solid ascii
 facet normal 0.0326222 -0.77015 -0.637028
  outer loop
   vertex 53.8491 122.297 163.567
   vertex 54.1329 122.02 163.917
   vertex 53.4537 122.143 163.733
  endloop
 endfacet
 facet normal -0.187848 -0.357675 -0.914758
  outer loop
   vertex 53.082 122.947 163.669
   vertex 52.9069 122.472 163.891
   vertex 52.6915 122.831 163.795
  endloop
 endfacet
 facet normal -0.408245 -0.258128 -0.875617
  outer loop
   vertex 53.4537 122.143 163.733
   vertex 52.9069 122.472 163.891
   vertex 53.082 122.947 163.669
  endloop
 endfacet
 facet normal -0.306034 -0.215026 -0.92742
  outer loop
   vertex 53.4537 122.143 163.733
   vertex 53.082 122.947 163.669
   vertex 53.8491 122.297 163.567
  endloop
 endfacet
 facet normal -0.230564 -0.120005 -0.965629
  outer loop
   vertex 53.8491 122.297 163.567
   vertex 53.082 122.947 163.669
   vertex 53.8827 122.921 163.482
  endloop
 endfacet
 facet normal 0.411648 -0.52127 -0.747545
  outer loop
   vertex 54.6219 122.854 163.604
   vertex 54.1329 122.02 163.917
   vertex 53.8491 122.297 163.567
  endloop
 endfacet
 facet normal 0.149287 -0.142282 -0.978504
  outer loop
   vertex 54.6219 122.854 163.604
   vertex 53.8491 122.297 163.567
   vertex 53.8827 122.921 163.482
  endloop
 endfacet
 facet normal -0.407187 0.335785 -0.849381
  outer loop
   vertex 53.082 122.947 163.669
   vertex 53.496 123.776 163.799
   vertex 53.902 123.604 163.536
  endloop
 endfacet
 facet normal -0.224991 0.0836899 -0.97076
  outer loop
   vertex 53.082 122.947 163.669
   vertex 53.902 123.604 163.536
   vertex 53.8827 122.921 163.482
  endloop
 endfacet
 facet normal 0.247065 0.150215 -0.957285
  outer loop
   vertex 54.3512 123.681 163.664
   vertex 55.0061 123.171 163.753
   vertex 54.6219 122.854 163.604
  endloop
 endfacet
 facet normal 0.246705 0.150105 -0.957395
  outer loop
   vertex 54.3512 123.681 163.664
   vertex 54.6219 122.854 163.604
   vertex 53.902 123.604 163.536
  endloop
 endfacet
 facet normal 0.169344 0.0735254 -0.982811
  outer loop
   vertex 53.902 123.604 163.536
   vertex 54.6219 122.854 163.604
   vertex 53.8827 122.921 163.482
  endloop
 endfacet
 facet normal 0.356495 0.0064315 -0.934275
  outer loop
   vertex 55.1577 122.815 163.808
   vertex 54.6219 122.854 163.604
   vertex 55.0061 123.171 163.753
  endloop
 endfacet
 facet normal -0.133304 0.721876 -0.679062
  outer loop
   vertex 53.902 123.604 163.536
   vertex 53.496 123.776 163.799
   vertex 54.0386 123.98 163.908
  endloop
 endfacet
 facet normal 0.0890126 0.684843 -0.723233
  outer loop
   vertex 54.3512 123.681 163.664
   vertex 53.902 123.604 163.536
   vertex 54.0386 123.98 163.908
  endloop
 endfacet
 facet normal -0.368193 -0.928661 -0.0449648
  outer loop
   vertex 54.1329 122.02 163.917
   vertex 54.2165 121.943 164.827
   vertex 53.6283 122.19 164.535
  endloop
 endfacet
 facet normal -0.203504 -0.97377 0.101776
  outer loop
   vertex 53.4537 122.143 163.733
   vertex 54.1329 122.02 163.917
   vertex 53.6283 122.19 164.535
  endloop
 endfacet
 facet normal 0.295233 -0.777569 -0.55518
  outer loop
   vertex 54.1329 122.02 163.917
   vertex 55.156 122.15 164.278
   vertex 54.9085 121.814 164.618
  endloop
 endfacet
 facet normal -0.201599 -0.977349 -0.0643916
  outer loop
   vertex 54.1329 122.02 163.917
   vertex 54.9085 121.814 164.618
   vertex 54.2165 121.943 164.827
  endloop
 endfacet
 facet normal 0.237322 -0.578952 -0.78006
  outer loop
   vertex 55.156 122.15 164.278
   vertex 55.9863 122.14 164.538
   vertex 55.8239 121.67 164.837
  endloop
 endfacet
 facet normal 0.0501048 -0.727654 -0.684112
  outer loop
   vertex 54.9085 121.814 164.618
   vertex 55.156 122.15 164.278
   vertex 55.8239 121.67 164.837
  endloop
 endfacet
 facet normal 0.23892 -0.579116 -0.77945
  outer loop
   vertex 55.8239 121.67 164.837
   vertex 55.9863 122.14 164.538
   vertex 56.3014 121.894 164.817
  endloop
 endfacet
 facet normal -0.839835 -0.532541 -0.10525
  outer loop
   vertex 52.4584 123.077 164.412
   vertex 52.6915 122.831 163.795
   vertex 52.9069 122.472 163.891
  endloop
 endfacet
 facet normal -0.641195 -0.715296 0.277885
  outer loop
   vertex 52.4584 123.077 164.412
   vertex 52.9069 122.472 163.891
   vertex 52.9108 122.748 164.611
  endloop
 endfacet
 facet normal -0.476982 -0.865153 0.154915
  outer loop
   vertex 53.6283 122.19 164.535
   vertex 52.9069 122.472 163.891
   vertex 53.4537 122.143 163.733
  endloop
 endfacet
 facet normal -0.566626 -0.768279 0.297797
  outer loop
   vertex 52.9108 122.748 164.611
   vertex 52.9069 122.472 163.891
   vertex 53.6283 122.19 164.535
  endloop
 endfacet
 facet normal 0.344361 -0.499572 -0.794886
  outer loop
   vertex 54.1329 122.02 163.917
   vertex 54.6219 122.854 163.604
   vertex 55.156 122.15 164.278
  endloop
 endfacet
 facet normal 0.259728 -0.557606 -0.788427
  outer loop
   vertex 55.1577 122.815 163.808
   vertex 55.156 122.15 164.278
   vertex 54.6219 122.854 163.604
  endloop
 endfacet
 facet normal 0.627181 -0.450435 -0.635415
  outer loop
   vertex 55.1577 122.815 163.808
   vertex 55.7906 123.004 164.299
   vertex 55.156 122.15 164.278
  endloop
 endfacet
 facet normal 0.29129 -0.193412 -0.936879
  outer loop
   vertex 55.7906 123.004 164.299
   vertex 55.9863 122.14 164.538
   vertex 55.156 122.15 164.278
  endloop
 endfacet
 facet normal 0.615204 -0.0998479 -0.78202
  outer loop
   vertex 56.422 122.821 164.794
   vertex 56.3014 121.894 164.817
   vertex 55.9863 122.14 164.538
  endloop
 endfacet
 facet normal 0.599513 -0.0846115 -0.79588
  outer loop
   vertex 55.7906 123.004 164.299
   vertex 56.422 122.821 164.794
   vertex 55.9863 122.14 164.538
  endloop
 endfacet
 facet normal -0.741362 0.641493 0.19715
  outer loop
   vertex 52.8899 123.625 164.251
   vertex 52.4584 123.077 164.412
   vertex 53.168 123.862 164.525
  endloop
 endfacet
 facet normal -0.685516 0.352162 -0.63722
  outer loop
   vertex 53.082 122.947 163.669
   vertex 52.4584 123.077 164.412
   vertex 52.8899 123.625 164.251
  endloop
 endfacet
 facet normal -0.386602 0.797162 -0.463758
  outer loop
   vertex 53.082 122.947 163.669
   vertex 52.6915 122.831 163.795
   vertex 52.4584 123.077 164.412
  endloop
 endfacet
 facet normal -0.608813 0.409916 -0.679203
  outer loop
   vertex 53.082 122.947 163.669
   vertex 52.8899 123.625 164.251
   vertex 53.496 123.776 163.799
  endloop
 endfacet
 facet normal 0.479413 0.488385 -0.729139
  outer loop
   vertex 55.0061 123.171 163.753
   vertex 54.3512 123.681 163.664
   vertex 55.0128 123.77 164.159
  endloop
 endfacet
 facet normal 0.58441 0.124246 -0.80189
  outer loop
   vertex 55.0061 123.171 163.753
   vertex 55.7906 123.004 164.299
   vertex 55.1577 122.815 163.808
  endloop
 endfacet
 facet normal 0.571473 0.455734 -0.68244
  outer loop
   vertex 55.0061 123.171 163.753
   vertex 55.0128 123.77 164.159
   vertex 55.7906 123.004 164.299
  endloop
 endfacet
 facet normal 0.32804 0.163127 -0.930473
  outer loop
   vertex 55.0128 123.77 164.159
   vertex 55.8161 123.84 164.454
   vertex 55.7906 123.004 164.299
  endloop
 endfacet
 facet normal 0.625669 0.0533345 -0.778263
  outer loop
   vertex 56.2091 123.683 164.682
   vertex 56.422 122.821 164.794
   vertex 55.7906 123.004 164.299
  endloop
 endfacet
 facet normal 0.537003 0.138459 -0.83214
  outer loop
   vertex 55.8161 123.84 164.454
   vertex 56.2091 123.683 164.682
   vertex 55.7906 123.004 164.299
  endloop
 endfacet
 facet normal -0.433547 0.850962 -0.296482
  outer loop
   vertex 53.496 123.776 163.799
   vertex 52.8899 123.625 164.251
   vertex 53.168 123.862 164.525
  endloop
 endfacet
 facet normal -0.296921 0.923381 -0.243322
  outer loop
   vertex 53.496 123.776 163.799
   vertex 53.168 123.862 164.525
   vertex 54.0386 123.98 163.908
  endloop
 endfacet
 facet normal -0.213265 0.970054 -0.116247
  outer loop
   vertex 54.0386 123.98 163.908
   vertex 53.168 123.862 164.525
   vertex 54.0905 124.089 164.725
  endloop
 endfacet
 facet normal 0.30846 0.774425 -0.552376
  outer loop
   vertex 55.0128 123.77 164.159
   vertex 54.3512 123.681 163.664
   vertex 54.0386 123.98 163.908
  endloop
 endfacet
 facet normal 0.308966 0.770373 -0.557733
  outer loop
   vertex 55.0128 123.77 164.159
   vertex 54.0386 123.98 163.908
   vertex 55.0854 124.112 164.671
  endloop
 endfacet
 facet normal -0.0299485 0.99097 -0.1307
  outer loop
   vertex 55.0854 124.112 164.671
   vertex 54.0386 123.98 163.908
   vertex 54.0905 124.089 164.725
  endloop
 endfacet
 facet normal 0.135931 0.81514 -0.56309
  outer loop
   vertex 55.8161 123.84 164.454
   vertex 55.0128 123.77 164.159
   vertex 55.0854 124.112 164.671
  endloop
 endfacet
 facet normal 0.156757 0.83841 -0.522012
  outer loop
   vertex 55.9937 124.038 164.825
   vertex 55.8161 123.84 164.454
   vertex 55.0854 124.112 164.671
  endloop
 endfacet
 facet normal 0.569574 0.580267 -0.582131
  outer loop
   vertex 56.2091 123.683 164.682
   vertex 55.8161 123.84 164.454
   vertex 55.9937 124.038 164.825
  endloop
 endfacet
 facet normal -0.393546 -0.377345 -0.838291
  outer loop
   vertex 56.3956 121.057 165.421
   vertex 56.268 120.307 165.818
   vertex 55.9169 120.87 165.73
  endloop
 endfacet
 facet normal 0.198021 -0.537324 -0.819799
  outer loop
   vertex 56.3956 121.057 165.421
   vertex 57.3161 121.201 165.549
   vertex 57.2225 120.619 165.908
  endloop
 endfacet
 facet normal 0.237571 -0.486165 -0.840954
  outer loop
   vertex 56.268 120.307 165.818
   vertex 56.3956 121.057 165.421
   vertex 57.2225 120.619 165.908
  endloop
 endfacet
 facet normal -0.553393 -0.762642 0.334864
  outer loop
   vertex 54.6304 122.056 165.769
   vertex 54.2165 121.943 164.827
   vertex 55.1192 121.618 165.58
  endloop
 endfacet
 facet normal -0.223954 -0.963496 -0.146693
  outer loop
   vertex 55.1192 121.618 165.58
   vertex 54.2165 121.943 164.827
   vertex 54.9085 121.814 164.618
  endloop
 endfacet
 facet normal -0.131096 -0.744773 -0.654314
  outer loop
   vertex 55.9169 120.87 165.73
   vertex 55.8239 121.67 164.837
   vertex 56.3956 121.057 165.421
  endloop
 endfacet
 facet normal -0.519948 -0.662116 -0.539682
  outer loop
   vertex 55.9169 120.87 165.73
   vertex 55.1192 121.618 165.58
   vertex 55.8239 121.67 164.837
  endloop
 endfacet
 facet normal -0.111225 -0.978375 -0.174388
  outer loop
   vertex 55.1192 121.618 165.58
   vertex 54.9085 121.814 164.618
   vertex 55.8239 121.67 164.837
  endloop
 endfacet
 facet normal 0.225714 -0.55294 -0.802066
  outer loop
   vertex 56.3014 121.894 164.817
   vertex 56.3956 121.057 165.421
   vertex 55.8239 121.67 164.837
  endloop
 endfacet
 facet normal 0.49853 -0.4694 -0.728787
  outer loop
   vertex 56.3014 121.894 164.817
   vertex 57.128 121.993 165.319
   vertex 56.3956 121.057 165.421
  endloop
 endfacet
 facet normal 0.170039 -0.237297 -0.95644
  outer loop
   vertex 57.128 121.993 165.319
   vertex 57.3161 121.201 165.549
   vertex 56.3956 121.057 165.421
  endloop
 endfacet
 facet normal 0.412724 -0.525237 -0.744167
  outer loop
   vertex 58.0078 121.465 165.746
   vertex 57.2225 120.619 165.908
   vertex 57.3161 121.201 165.549
  endloop
 endfacet
 facet normal 0.365822 -0.300748 -0.880752
  outer loop
   vertex 58.0078 121.465 165.746
   vertex 57.3161 121.201 165.549
   vertex 58.0375 121.94 165.596
  endloop
 endfacet
 facet normal 0.274172 -0.207511 -0.939025
  outer loop
   vertex 58.0375 121.94 165.596
   vertex 57.3161 121.201 165.549
   vertex 57.128 121.993 165.319
  endloop
 endfacet
 facet normal 0.666636 -0.261915 -0.697852
  outer loop
   vertex 58.0078 121.465 165.746
   vertex 58.0375 121.94 165.596
   vertex 58.3245 121.724 165.951
  endloop
 endfacet
 facet normal -0.645237 -0.613113 0.455809
  outer loop
   vertex 52.4584 123.077 164.412
   vertex 52.9108 122.748 164.611
   vertex 52.8503 123.042 164.92
  endloop
 endfacet
 facet normal -0.567582 -0.649701 0.505707
  outer loop
   vertex 52.9108 122.748 164.611
   vertex 53.3603 122.897 165.306
   vertex 52.8503 123.042 164.92
  endloop
 endfacet
 facet normal -0.506624 -0.715917 0.480411
  outer loop
   vertex 53.6283 122.19 164.535
   vertex 53.3603 122.897 165.306
   vertex 52.9108 122.748 164.611
  endloop
 endfacet
 facet normal -0.53698 -0.706405 0.461133
  outer loop
   vertex 53.6283 122.19 164.535
   vertex 53.9766 122.591 165.555
   vertex 53.3603 122.897 165.306
  endloop
 endfacet
 facet normal -0.528784 -0.712756 0.460833
  outer loop
   vertex 53.6283 122.19 164.535
   vertex 54.2165 121.943 164.827
   vertex 53.9766 122.591 165.555
  endloop
 endfacet
 facet normal -0.658213 -0.656654 0.368185
  outer loop
   vertex 54.6304 122.056 165.769
   vertex 53.9766 122.591 165.555
   vertex 54.2165 121.943 164.827
  endloop
 endfacet
 facet normal 0.638497 0.0576189 -0.767464
  outer loop
   vertex 57.128 121.993 165.319
   vertex 56.422 122.821 164.794
   vertex 57.1174 122.919 165.38
  endloop
 endfacet
 facet normal 0.524558 -0.0896933 -0.846637
  outer loop
   vertex 56.3014 121.894 164.817
   vertex 56.422 122.821 164.794
   vertex 57.128 121.993 165.319
  endloop
 endfacet
 facet normal 0.293622 0.0397398 -0.955095
  outer loop
   vertex 58.0375 121.94 165.596
   vertex 57.128 121.993 165.319
   vertex 57.9273 122.722 165.595
  endloop
 endfacet
 facet normal 0.271416 0.0660356 -0.960194
  outer loop
   vertex 57.9273 122.722 165.595
   vertex 57.128 121.993 165.319
   vertex 57.1174 122.919 165.38
  endloop
 endfacet
 facet normal 0.762757 -0.0465481 -0.645008
  outer loop
   vertex 58.3153 122.555 165.88
   vertex 58.3245 121.724 165.951
   vertex 58.0375 121.94 165.596
  endloop
 endfacet
 facet normal 0.61384 0.0851599 -0.784824
  outer loop
   vertex 57.9273 122.722 165.595
   vertex 58.3153 122.555 165.88
   vertex 58.0375 121.94 165.596
  endloop
 endfacet
 facet normal -0.715956 0.594208 0.366501
  outer loop
   vertex 53.168 123.862 164.525
   vertex 52.4584 123.077 164.412
   vertex 53.3173 123.638 165.18
  endloop
 endfacet
 facet normal -0.739301 0.321388 0.591729
  outer loop
   vertex 53.3173 123.638 165.18
   vertex 52.4584 123.077 164.412
   vertex 52.8503 123.042 164.92
  endloop
 endfacet
 facet normal -0.58085 0.102906 0.80748
  outer loop
   vertex 53.3173 123.638 165.18
   vertex 52.8503 123.042 164.92
   vertex 53.3603 122.897 165.306
  endloop
 endfacet
 facet normal 0.612194 0.558583 -0.559646
  outer loop
   vertex 57.1174 122.919 165.38
   vertex 56.4641 123.704 165.448
   vertex 57.3116 123.217 165.89
  endloop
 endfacet
 facet normal 0.518937 0.493101 -0.698252
  outer loop
   vertex 57.1174 122.919 165.38
   vertex 56.422 122.821 164.794
   vertex 56.4641 123.704 165.448
  endloop
 endfacet
 facet normal 0.9302 0.188982 -0.314663
  outer loop
   vertex 56.422 122.821 164.794
   vertex 56.2091 123.683 164.682
   vertex 56.4641 123.704 165.448
  endloop
 endfacet
 facet normal 0.334367 0.752651 -0.567199
  outer loop
   vertex 57.9273 122.722 165.595
   vertex 57.1174 122.919 165.38
   vertex 57.3116 123.217 165.89
  endloop
 endfacet
 facet normal 0.278959 0.722614 -0.632464
  outer loop
   vertex 58.1467 122.931 165.931
   vertex 57.9273 122.722 165.595
   vertex 57.3116 123.217 165.89
  endloop
 endfacet
 facet normal 0.648305 0.379464 -0.660082
  outer loop
   vertex 58.3153 122.555 165.88
   vertex 57.9273 122.722 165.595
   vertex 58.1467 122.931 165.931
  endloop
 endfacet
 facet normal -0.538038 0.752348 0.380116
  outer loop
   vertex 53.3173 123.638 165.18
   vertex 53.9774 124 165.397
   vertex 53.168 123.862 164.525
  endloop
 endfacet
 facet normal -0.255121 0.963233 0.0842402
  outer loop
   vertex 53.168 123.862 164.525
   vertex 53.9774 124 165.397
   vertex 54.0905 124.089 164.725
  endloop
 endfacet
 facet normal -0.0243778 0.999396 -0.0247617
  outer loop
   vertex 55.0854 124.112 164.671
   vertex 54.0905 124.089 164.725
   vertex 54.9885 124.133 165.602
  endloop
 endfacet
 facet normal -0.149857 0.98316 0.10459
  outer loop
   vertex 54.0905 124.089 164.725
   vertex 53.9774 124 165.397
   vertex 54.9885 124.133 165.602
  endloop
 endfacet
 facet normal 0.0940849 0.992445 -0.078742
  outer loop
   vertex 55.9937 124.038 164.825
   vertex 55.0854 124.112 164.671
   vertex 55.9198 124.108 165.615
  endloop
 endfacet
 facet normal 0.0270267 0.999446 -0.0194138
  outer loop
   vertex 55.0854 124.112 164.671
   vertex 54.9885 124.133 165.602
   vertex 55.9198 124.108 165.615
  endloop
 endfacet
 facet normal 0.770158 0.576837 -0.272242
  outer loop
   vertex 56.4641 123.704 165.448
   vertex 56.2091 123.683 164.682
   vertex 55.9937 124.038 164.825
  endloop
 endfacet
 facet normal 0.592401 0.805492 -0.0155981
  outer loop
   vertex 55.9198 124.108 165.615
   vertex 56.4641 123.704 165.448
   vertex 55.9937 124.038 164.825
  endloop
 endfacet
 facet normal -0.477964 -0.843029 -0.246684
  outer loop
   vertex 56.4586 119.946 166.23
   vertex 56.3604 119.804 166.907
   vertex 56.0705 120.082 166.517
  endloop
 endfacet
 facet normal 0.132928 -0.900789 -0.413412
  outer loop
   vertex 56.4586 119.946 166.23
   vertex 57.0926 119.954 166.416
   vertex 57.1202 119.785 166.793
  endloop
 endfacet
 facet normal -0.0554961 -0.975413 -0.213281
  outer loop
   vertex 56.3604 119.804 166.907
   vertex 56.4586 119.946 166.23
   vertex 57.1202 119.785 166.793
  endloop
 endfacet
 facet normal 0.381135 -0.832952 -0.401157
  outer loop
   vertex 57.1202 119.785 166.793
   vertex 57.0926 119.954 166.416
   vertex 57.4647 120.015 166.643
  endloop
 endfacet
 facet normal -0.549177 -0.737623 -0.392832
  outer loop
   vertex 56.268 120.307 165.818
   vertex 56.4586 119.946 166.23
   vertex 56.0705 120.082 166.517
  endloop
 endfacet
 facet normal -0.754731 -0.531532 -0.384518
  outer loop
   vertex 56.268 120.307 165.818
   vertex 56.0705 120.082 166.517
   vertex 55.9169 120.87 165.73
  endloop
 endfacet
 facet normal -0.904428 -0.376637 -0.200385
  outer loop
   vertex 55.9169 120.87 165.73
   vertex 56.0705 120.082 166.517
   vertex 55.7221 120.849 166.648
  endloop
 endfacet
 facet normal 0.27947 -0.654067 -0.702917
  outer loop
   vertex 57.2225 120.619 165.908
   vertex 56.4586 119.946 166.23
   vertex 56.268 120.307 165.818
  endloop
 endfacet
 facet normal 0.228019 -0.61898 -0.751579
  outer loop
   vertex 57.0926 119.954 166.416
   vertex 56.4586 119.946 166.23
   vertex 57.2225 120.619 165.908
  endloop
 endfacet
 facet normal 0.492431 -0.600799 -0.629724
  outer loop
   vertex 57.2225 120.619 165.908
   vertex 58.1403 120.989 166.273
   vertex 58.0316 120.523 166.632
  endloop
 endfacet
 facet normal 0.505125 -0.578006 -0.640904
  outer loop
   vertex 57.2225 120.619 165.908
   vertex 58.0316 120.523 166.632
   vertex 57.4647 120.015 166.643
  endloop
 endfacet
 facet normal 0.489703 -0.587854 -0.643909
  outer loop
   vertex 57.2225 120.619 165.908
   vertex 57.4647 120.015 166.643
   vertex 57.0926 119.954 166.416
  endloop
 endfacet
 facet normal 0.738871 -0.511244 -0.438975
  outer loop
   vertex 58.0316 120.523 166.632
   vertex 58.1403 120.989 166.273
   vertex 58.3741 120.854 166.824
  endloop
 endfacet
 facet normal -0.655058 -0.753821 0.0515086
  outer loop
   vertex 54.6304 122.056 165.769
   vertex 55.1192 121.618 165.58
   vertex 55.033 121.773 166.754
  endloop
 endfacet
 facet normal -0.660012 -0.734775 -0.156492
  outer loop
   vertex 55.7221 120.849 166.648
   vertex 55.1192 121.618 165.58
   vertex 55.9169 120.87 165.73
  endloop
 endfacet
 facet normal -0.800341 -0.599197 0.0204014
  outer loop
   vertex 55.033 121.773 166.754
   vertex 55.1192 121.618 165.58
   vertex 55.7221 120.849 166.648
  endloop
 endfacet
 facet normal 0.491874 -0.580462 -0.64894
  outer loop
   vertex 57.2225 120.619 165.908
   vertex 58.0078 121.465 165.746
   vertex 58.1403 120.989 166.273
  endloop
 endfacet
 facet normal 0.710643 -0.423402 -0.561887
  outer loop
   vertex 58.1403 120.989 166.273
   vertex 58.0078 121.465 165.746
   vertex 58.3245 121.724 165.951
  endloop
 endfacet
 facet normal 0.807334 -0.394037 -0.439257
  outer loop
   vertex 58.1403 120.989 166.273
   vertex 58.3245 121.724 165.951
   vertex 58.3741 120.854 166.824
  endloop
 endfacet
 facet normal 0.975431 -0.125708 -0.180919
  outer loop
   vertex 58.3741 120.854 166.824
   vertex 58.3245 121.724 165.951
   vertex 58.4794 121.837 166.708
  endloop
 endfacet
 facet normal -0.537271 -0.596874 0.595887
  outer loop
   vertex 53.9766 122.591 165.555
   vertex 53.9151 123.071 165.981
   vertex 53.3603 122.897 165.306
  endloop
 endfacet
 facet normal -0.772028 -0.474071 0.423356
  outer loop
   vertex 53.9766 122.591 165.555
   vertex 54.4803 122.705 166.602
   vertex 53.9151 123.071 165.981
  endloop
 endfacet
 facet normal -0.656718 -0.647398 0.386779
  outer loop
   vertex 53.9766 122.591 165.555
   vertex 54.6304 122.056 165.769
   vertex 54.4803 122.705 166.602
  endloop
 endfacet
 facet normal -0.855166 -0.472036 0.214179
  outer loop
   vertex 54.6304 122.056 165.769
   vertex 55.033 121.773 166.754
   vertex 54.4803 122.705 166.602
  endloop
 endfacet
 facet normal 0.97985 -0.00615349 -0.19964
  outer loop
   vertex 58.3245 121.724 165.951
   vertex 58.3153 122.555 165.88
   vertex 58.4794 121.837 166.708
  endloop
 endfacet
 facet normal 0.988791 0.0827735 -0.124265
  outer loop
   vertex 58.4794 121.837 166.708
   vertex 58.3153 122.555 165.88
   vertex 58.4087 122.677 166.704
  endloop
 endfacet
 facet normal -0.778696 0.0604528 0.624483
  outer loop
   vertex 53.3603 122.897 165.306
   vertex 53.9151 123.071 165.981
   vertex 53.3173 123.638 165.18
  endloop
 endfacet
 facet normal -0.693642 0.131229 0.708265
  outer loop
   vertex 54.7499 123.559 166.708
   vertex 53.9151 123.071 165.981
   vertex 54.4803 122.705 166.602
  endloop
 endfacet
 facet normal -0.708408 0.206049 0.675057
  outer loop
   vertex 53.3173 123.638 165.18
   vertex 53.9151 123.071 165.981
   vertex 54.7499 123.559 166.708
  endloop
 endfacet
 facet normal 0.553089 0.832674 -0.0273321
  outer loop
   vertex 57.3116 123.217 165.89
   vertex 56.4484 123.809 166.454
   vertex 57.2198 123.311 166.887
  endloop
 endfacet
 facet normal 0.527514 0.845753 -0.0801876
  outer loop
   vertex 56.4641 123.704 165.448
   vertex 56.4484 123.809 166.454
   vertex 57.3116 123.217 165.89
  endloop
 endfacet
 facet normal 0.327255 0.939485 -0.101355
  outer loop
   vertex 58.1467 122.931 165.931
   vertex 57.3116 123.217 165.89
   vertex 58.0688 123.044 166.724
  endloop
 endfacet
 facet normal 0.288829 0.955293 -0.0631959
  outer loop
   vertex 57.3116 123.217 165.89
   vertex 57.2198 123.311 166.887
   vertex 58.0688 123.044 166.724
  endloop
 endfacet
 facet normal 0.891618 0.422292 -0.163362
  outer loop
   vertex 58.4087 122.677 166.704
   vertex 58.3153 122.555 165.88
   vertex 58.1467 122.931 165.931
  endloop
 endfacet
 facet normal 0.732511 0.680304 -0.0247838
  outer loop
   vertex 58.0688 123.044 166.724
   vertex 58.4087 122.677 166.704
   vertex 58.1467 122.931 165.931
  endloop
 endfacet
 facet normal -0.56442 0.605839 0.560704
  outer loop
   vertex 53.3173 123.638 165.18
   vertex 54.7499 123.559 166.708
   vertex 54.9074 123.977 166.415
  endloop
 endfacet
 facet normal -0.536896 0.674853 0.506278
  outer loop
   vertex 53.3173 123.638 165.18
   vertex 54.9074 123.977 166.415
   vertex 53.9774 124 165.397
  endloop
 endfacet
 facet normal -0.161665 0.97207 0.170133
  outer loop
   vertex 53.9774 124 165.397
   vertex 54.9074 123.977 166.415
   vertex 54.9885 124.133 165.602
  endloop
 endfacet
 facet normal 0.0259518 0.998104 0.0558084
  outer loop
   vertex 55.9198 124.108 165.615
   vertex 54.9885 124.133 165.602
   vertex 55.8816 124.054 166.596
  endloop
 endfacet
 facet normal -0.11009 0.978135 0.176444
  outer loop
   vertex 54.9885 124.133 165.602
   vertex 54.9074 123.977 166.415
   vertex 55.8816 124.054 166.596
  endloop
 endfacet
 facet normal 0.57879 0.811942 -0.0758476
  outer loop
   vertex 56.4484 123.809 166.454
   vertex 56.4641 123.704 165.448
   vertex 55.9198 124.108 165.615
  endloop
 endfacet
 facet normal 0.409157 0.910082 0.0658901
  outer loop
   vertex 55.8816 124.054 166.596
   vertex 56.4484 123.809 166.454
   vertex 55.9198 124.108 165.615
  endloop
 endfacet
 facet normal -0.600327 -0.797872 0.0548404
  outer loop
   vertex 56.3604 119.804 166.907
   vertex 56.3863 119.835 167.652
   vertex 56.0686 120.057 167.408
  endloop
 endfacet
 facet normal -0.677216 -0.735465 -0.0216663
  outer loop
   vertex 56.0705 120.082 166.517
   vertex 56.3604 119.804 166.907
   vertex 56.0686 120.057 167.408
  endloop
 endfacet
 facet normal -0.0232826 -0.999716 0.0051328
  outer loop
   vertex 57.1202 119.785 166.793
   vertex 57.1702 119.788 167.582
   vertex 56.3604 119.804 166.907
  endloop
 endfacet
 facet normal -0.0559859 -0.997442 0.0444515
  outer loop
   vertex 56.3604 119.804 166.907
   vertex 57.1702 119.788 167.582
   vertex 56.3863 119.835 167.652
  endloop
 endfacet
 facet normal 0.417498 -0.844531 -0.335355
  outer loop
   vertex 57.4647 120.015 166.643
   vertex 57.9913 119.983 167.381
   vertex 57.1202 119.785 166.793
  endloop
 endfacet
 facet normal 0.227838 -0.973638 -0.0108863
  outer loop
   vertex 57.1202 119.785 166.793
   vertex 57.9913 119.983 167.381
   vertex 57.1702 119.788 167.582
  endloop
 endfacet
 facet normal -0.911277 -0.411581 -0.0132266
  outer loop
   vertex 56.0705 120.082 166.517
   vertex 56.0686 120.057 167.408
   vertex 55.7221 120.849 166.648
  endloop
 endfacet
 facet normal -0.94679 -0.298176 0.121156
  outer loop
   vertex 56.0686 120.057 167.408
   vertex 55.8312 120.952 167.755
   vertex 55.7221 120.849 166.648
  endloop
 endfacet
 facet normal 0.590615 -0.669027 -0.451195
  outer loop
   vertex 57.4647 120.015 166.643
   vertex 58.0316 120.523 166.632
   vertex 57.9913 119.983 167.381
  endloop
 endfacet
 facet normal 0.744065 -0.560049 -0.364297
  outer loop
   vertex 57.9913 119.983 167.381
   vertex 58.0316 120.523 166.632
   vertex 58.3741 120.854 166.824
  endloop
 endfacet
 facet normal 0.815262 -0.520566 -0.253691
  outer loop
   vertex 57.9913 119.983 167.381
   vertex 58.3741 120.854 166.824
   vertex 58.2929 120.244 167.813
  endloop
 endfacet
 facet normal 0.971576 -0.228693 -0.0611454
  outer loop
   vertex 58.2929 120.244 167.813
   vertex 58.3741 120.854 166.824
   vertex 58.4601 121.017 167.58
  endloop
 endfacet
 facet normal -0.833686 -0.531098 0.151338
  outer loop
   vertex 55.033 121.773 166.754
   vertex 55.2161 121.764 167.73
   vertex 54.9493 122.114 167.487
  endloop
 endfacet
 facet normal -0.787006 -0.602265 0.133787
  outer loop
   vertex 55.8312 120.952 167.755
   vertex 55.033 121.773 166.754
   vertex 55.7221 120.849 166.648
  endloop
 endfacet
 facet normal -0.790839 -0.595163 0.142668
  outer loop
   vertex 55.2161 121.764 167.73
   vertex 55.033 121.773 166.754
   vertex 55.8312 120.952 167.755
  endloop
 endfacet
 facet normal 0.989371 -0.116214 -0.0874089
  outer loop
   vertex 58.3741 120.854 166.824
   vertex 58.4794 121.837 166.708
   vertex 58.4601 121.017 167.58
  endloop
 endfacet
 facet normal 0.999829 -0.0176515 0.00559245
  outer loop
   vertex 58.4601 121.017 167.58
   vertex 58.4794 121.837 166.708
   vertex 58.4748 121.879 167.666
  endloop
 endfacet
 facet normal -0.8621 -0.490034 0.129038
  outer loop
   vertex 55.033 121.773 166.754
   vertex 54.9493 122.114 167.487
   vertex 54.4803 122.705 166.602
  endloop
 endfacet
 facet normal -0.864814 0.0604941 0.498435
  outer loop
   vertex 54.9493 122.114 167.487
   vertex 55.0336 122.792 167.552
   vertex 54.4803 122.705 166.602
  endloop
 endfacet
 facet normal 0.996465 0.0839995 0.00118053
  outer loop
   vertex 58.4794 121.837 166.708
   vertex 58.4087 122.677 166.704
   vertex 58.4748 121.879 167.666
  endloop
 endfacet
 facet normal 0.987371 0.14846 0.0552963
  outer loop
   vertex 58.4748 121.879 167.666
   vertex 58.4087 122.677 166.704
   vertex 58.3503 122.708 167.663
  endloop
 endfacet
 facet normal -0.634375 0.404698 0.658625
  outer loop
   vertex 55.92 123.06 168.141
   vertex 55.3339 123.802 167.121
   vertex 54.7499 123.559 166.708
  endloop
 endfacet
 facet normal -0.580094 0.496039 0.646093
  outer loop
   vertex 55.92 123.06 168.141
   vertex 54.7499 123.559 166.708
   vertex 55.0336 122.792 167.552
  endloop
 endfacet
 facet normal -0.852893 0.210167 0.477915
  outer loop
   vertex 55.0336 122.792 167.552
   vertex 54.7499 123.559 166.708
   vertex 54.4803 122.705 166.602
  endloop
 endfacet
 facet normal -0.564315 0.479 0.672389
  outer loop
   vertex 55.92 123.06 168.141
   vertex 55.9468 123.771 167.658
   vertex 55.3339 123.802 167.121
  endloop
 endfacet
 facet normal 0.469498 0.876322 0.107848
  outer loop
   vertex 57.2198 123.311 166.887
   vertex 56.3566 123.692 167.551
   vertex 57.1834 123.232 167.69
  endloop
 endfacet
 facet normal 0.483898 0.864948 0.133074
  outer loop
   vertex 56.4484 123.809 166.454
   vertex 56.3566 123.692 167.551
   vertex 57.2198 123.311 166.887
  endloop
 endfacet
 facet normal 0.310534 0.9486 0.0610465
  outer loop
   vertex 58.0688 123.044 166.724
   vertex 57.2198 123.311 166.887
   vertex 57.927 123.024 167.756
  endloop
 endfacet
 facet normal 0.259189 0.95993 0.106559
  outer loop
   vertex 57.2198 123.311 166.887
   vertex 57.1834 123.232 167.69
   vertex 57.927 123.024 167.756
  endloop
 endfacet
 facet normal 0.733829 0.678956 0.0226571
  outer loop
   vertex 58.3503 122.708 167.663
   vertex 58.4087 122.677 166.704
   vertex 58.0688 123.044 166.724
  endloop
 endfacet
 facet normal 0.608628 0.787268 0.0989023
  outer loop
   vertex 57.927 123.024 167.756
   vertex 58.3503 122.708 167.663
   vertex 58.0688 123.044 166.724
  endloop
 endfacet
 facet normal -0.614279 0.594925 0.518388
  outer loop
   vertex 54.7499 123.559 166.708
   vertex 55.3339 123.802 167.121
   vertex 54.9074 123.977 166.415
  endloop
 endfacet
 facet normal -0.426965 0.732613 0.530074
  outer loop
   vertex 55.3339 123.802 167.121
   vertex 55.9468 123.771 167.658
   vertex 55.8365 123.952 167.319
  endloop
 endfacet
 facet normal -0.412381 0.794378 0.445988
  outer loop
   vertex 55.3339 123.802 167.121
   vertex 55.8365 123.952 167.319
   vertex 54.9074 123.977 166.415
  endloop
 endfacet
 facet normal -0.1026 0.985803 0.132913
  outer loop
   vertex 54.9074 123.977 166.415
   vertex 55.8365 123.952 167.319
   vertex 55.8816 124.054 166.596
  endloop
 endfacet
 facet normal 0.42026 0.897857 0.131277
  outer loop
   vertex 56.3566 123.692 167.551
   vertex 56.4484 123.809 166.454
   vertex 55.8816 124.054 166.596
  endloop
 endfacet
 facet normal 0.386321 0.90965 0.15262
  outer loop
   vertex 55.8365 123.952 167.319
   vertex 56.3566 123.692 167.551
   vertex 55.8816 124.054 166.596
  endloop
 endfacet
 facet normal -0.677953 -0.689676 0.254415
  outer loop
   vertex 56.3863 119.835 167.652
   vertex 56.23 120.088 167.92
   vertex 56.0686 120.057 167.408
  endloop
 endfacet
 facet normal -0.0257449 -0.938709 0.343748
  outer loop
   vertex 56.3863 119.835 167.652
   vertex 57.1702 119.788 167.582
   vertex 56.9918 120.001 168.149
  endloop
 endfacet
 facet normal -0.261781 -0.773977 0.576568
  outer loop
   vertex 56.23 120.088 167.92
   vertex 56.3863 119.835 167.652
   vertex 56.9918 120.001 168.149
  endloop
 endfacet
 facet normal 0.241748 -0.969025 0.0504725
  outer loop
   vertex 57.1702 119.788 167.582
   vertex 57.9913 119.983 167.381
   vertex 57.9102 119.999 168.09
  endloop
 endfacet
 facet normal 0.021327 -0.933947 0.356774
  outer loop
   vertex 56.9918 120.001 168.149
   vertex 57.1702 119.788 167.582
   vertex 57.9102 119.999 168.09
  endloop
 endfacet
 facet normal 0.580163 -0.810004 0.0854672
  outer loop
   vertex 57.9913 119.983 167.381
   vertex 58.2929 120.244 167.813
   vertex 57.9102 119.999 168.09
  endloop
 endfacet
 facet normal -0.792724 -0.260621 0.551058
  outer loop
   vertex 56.23 120.088 167.92
   vertex 56.3618 120.647 168.373
   vertex 55.8312 120.952 167.755
  endloop
 endfacet
 facet normal -0.88664 -0.351695 0.300299
  outer loop
   vertex 56.0686 120.057 167.408
   vertex 56.23 120.088 167.92
   vertex 55.8312 120.952 167.755
  endloop
 endfacet
 facet normal -0.284686 -0.550783 0.784597
  outer loop
   vertex 57.2642 120.597 168.666
   vertex 56.3618 120.647 168.373
   vertex 56.9918 120.001 168.149
  endloop
 endfacet
 facet normal -0.296684 -0.558912 0.774335
  outer loop
   vertex 56.3618 120.647 168.373
   vertex 56.23 120.088 167.92
   vertex 56.9918 120.001 168.149
  endloop
 endfacet
 facet normal 0.0464021 -0.666721 0.743862
  outer loop
   vertex 57.9102 119.999 168.09
   vertex 57.2642 120.597 168.666
   vertex 56.9918 120.001 168.149
  endloop
 endfacet
 facet normal -0.0194838 -0.704645 0.709292
  outer loop
   vertex 58.1167 120.493 168.587
   vertex 57.2642 120.597 168.666
   vertex 57.9102 119.999 168.09
  endloop
 endfacet
 facet normal 0.673776 -0.644583 0.3613
  outer loop
   vertex 58.1167 120.493 168.587
   vertex 57.9102 119.999 168.09
   vertex 58.2929 120.244 167.813
  endloop
 endfacet
 facet normal 0.915741 -0.27145 0.296199
  outer loop
   vertex 58.1167 120.493 168.587
   vertex 58.2929 120.244 167.813
   vertex 58.3065 121.034 168.495
  endloop
 endfacet
 facet normal 0.972951 -0.160304 0.166342
  outer loop
   vertex 58.3065 121.034 168.495
   vertex 58.2929 120.244 167.813
   vertex 58.4601 121.017 167.58
  endloop
 endfacet
 facet normal -0.818324 -0.274726 0.504848
  outer loop
   vertex 55.2161 121.764 167.73
   vertex 55.3018 122.155 168.081
   vertex 54.9493 122.114 167.487
  endloop
 endfacet
 facet normal -0.744051 -0.349238 0.56958
  outer loop
   vertex 55.2161 121.764 167.73
   vertex 55.7727 121.784 168.469
   vertex 55.3018 122.155 168.081
  endloop
 endfacet
 facet normal -0.684203 -0.502318 0.528717
  outer loop
   vertex 55.8312 120.952 167.755
   vertex 55.7727 121.784 168.469
   vertex 55.2161 121.764 167.73
  endloop
 endfacet
 facet normal -0.666713 -0.512094 0.54153
  outer loop
   vertex 55.8312 120.952 167.755
   vertex 56.3142 121.249 168.63
   vertex 55.7727 121.784 168.469
  endloop
 endfacet
 facet normal -0.79256 -0.290694 0.536046
  outer loop
   vertex 55.8312 120.952 167.755
   vertex 56.3618 120.647 168.373
   vertex 56.3142 121.249 168.63
  endloop
 endfacet
 facet normal -0.303025 -0.393201 0.868084
  outer loop
   vertex 57.2642 120.597 168.666
   vertex 56.3142 121.249 168.63
   vertex 56.3618 120.647 168.373
  endloop
 endfacet
 facet normal 0.985551 -0.0334182 0.16605
  outer loop
   vertex 58.4601 121.017 167.58
   vertex 58.4748 121.879 167.666
   vertex 58.3065 121.034 168.495
  endloop
 endfacet
 facet normal 0.980036 -0.000159402 0.198818
  outer loop
   vertex 58.3065 121.034 168.495
   vertex 58.4748 121.879 167.666
   vertex 58.3097 122.022 168.48
  endloop
 endfacet
 facet normal -0.590004 0.354798 0.725268
  outer loop
   vertex 55.3018 122.155 168.081
   vertex 55.92 123.06 168.141
   vertex 55.0336 122.792 167.552
  endloop
 endfacet
 facet normal -0.860156 0.0591431 0.50659
  outer loop
   vertex 54.9493 122.114 167.487
   vertex 55.3018 122.155 168.081
   vertex 55.0336 122.792 167.552
  endloop
 endfacet
 facet normal -0.601996 0.0675542 0.795636
  outer loop
   vertex 56.0215 122.382 168.607
   vertex 55.3018 122.155 168.081
   vertex 55.7727 121.784 168.469
  endloop
 endfacet
 facet normal -0.620605 0.378237 0.686866
  outer loop
   vertex 56.0215 122.382 168.607
   vertex 55.92 123.06 168.141
   vertex 55.3018 122.155 168.081
  endloop
 endfacet
 facet normal -0.385566 0.481977 0.786789
  outer loop
   vertex 56.0215 122.382 168.607
   vertex 56.6042 122.723 168.683
   vertex 55.92 123.06 168.141
  endloop
 endfacet
 facet normal 0.400779 0.584413 0.705576
  outer loop
   vertex 58.1853 122.729 168.364
   vertex 57.6902 122.838 168.555
   vertex 58.0561 122.427 168.688
  endloop
 endfacet
 facet normal 0.809948 0.231035 0.53908
  outer loop
   vertex 58.1853 122.729 168.364
   vertex 58.0561 122.427 168.688
   vertex 58.3097 122.022 168.48
  endloop
 endfacet
 facet normal 0.954326 0.203853 0.218419
  outer loop
   vertex 58.1853 122.729 168.364
   vertex 58.3097 122.022 168.48
   vertex 58.3503 122.708 167.663
  endloop
 endfacet
 facet normal 0.974142 0.146923 0.17164
  outer loop
   vertex 58.3503 122.708 167.663
   vertex 58.3097 122.022 168.48
   vertex 58.4748 121.879 167.666
  endloop
 endfacet
 facet normal 0.42049 0.850701 0.31543
  outer loop
   vertex 56.3566 123.692 167.551
   vertex 57.0801 123.015 168.412
   vertex 57.1834 123.232 167.69
  endloop
 endfacet
 facet normal -0.129999 0.72331 0.678176
  outer loop
   vertex 56.3566 123.692 167.551
   vertex 55.92 123.06 168.141
   vertex 57.0801 123.015 168.412
  endloop
 endfacet
 facet normal 0.307153 0.527543 0.792058
  outer loop
   vertex 56.3566 123.692 167.551
   vertex 55.9468 123.771 167.658
   vertex 55.92 123.06 168.141
  endloop
 endfacet
 facet normal -0.115968 0.771234 0.625899
  outer loop
   vertex 56.6042 122.723 168.683
   vertex 57.0801 123.015 168.412
   vertex 55.92 123.06 168.141
  endloop
 endfacet
 facet normal 0.314372 0.900007 0.301922
  outer loop
   vertex 57.6902 122.838 168.555
   vertex 58.1853 122.729 168.364
   vertex 57.927 123.024 167.756
  endloop
 endfacet
 facet normal 0.206286 0.937961 0.278703
  outer loop
   vertex 57.6902 122.838 168.555
   vertex 57.927 123.024 167.756
   vertex 57.0801 123.015 168.412
  endloop
 endfacet
 facet normal 0.230506 0.922439 0.309794
  outer loop
   vertex 57.0801 123.015 168.412
   vertex 57.927 123.024 167.756
   vertex 57.1834 123.232 167.69
  endloop
 endfacet
 facet normal 0.610163 0.78318 0.119708
  outer loop
   vertex 58.3503 122.708 167.663
   vertex 57.927 123.024 167.756
   vertex 58.1853 122.729 168.364
  endloop
 endfacet
 facet normal 0.269638 0.883137 0.383882
  outer loop
   vertex 56.3566 123.692 167.551
   vertex 55.8365 123.952 167.319
   vertex 55.9468 123.771 167.658
  endloop
 endfacet
 facet normal -0.029138 -0.748485 0.662511
  outer loop
   vertex 57.2642 120.597 168.666
   vertex 58.1167 120.493 168.587
   vertex 57.9908 120.925 169.069
  endloop
 endfacet
 facet normal -0.281943 -0.429425 0.857964
  outer loop
   vertex 57.2004 121.189 168.941
   vertex 57.2642 120.597 168.666
   vertex 57.9908 120.925 169.069
  endloop
 endfacet
 facet normal 0.870204 -0.232025 0.434637
  outer loop
   vertex 58.1167 120.493 168.587
   vertex 58.3065 121.034 168.495
   vertex 57.9908 120.925 169.069
  endloop
 endfacet
 facet normal -0.461382 -0.208065 0.862459
  outer loop
   vertex 56.3142 121.249 168.63
   vertex 56.4281 121.95 168.86
   vertex 55.7727 121.784 168.469
  endloop
 endfacet
 facet normal -0.325532 -0.427362 0.84344
  outer loop
   vertex 56.3142 121.249 168.63
   vertex 57.2642 120.597 168.666
   vertex 57.2004 121.189 168.941
  endloop
 endfacet
 facet normal -0.336374 -0.243835 0.909613
  outer loop
   vertex 56.3142 121.249 168.63
   vertex 57.2004 121.189 168.941
   vertex 56.4281 121.95 168.86
  endloop
 endfacet
 facet normal -0.189793 -0.0877857 0.977892
  outer loop
   vertex 56.4281 121.95 168.86
   vertex 57.2004 121.189 168.941
   vertex 57.2102 121.874 169.005
  endloop
 endfacet
 facet normal -0.0663745 0.267796 0.961187
  outer loop
   vertex 57.9908 120.925 169.069
   vertex 57.9797 121.764 168.835
   vertex 57.2004 121.189 168.941
  endloop
 endfacet
 facet normal 0.202077 -0.0930646 0.974938
  outer loop
   vertex 57.9797 121.764 168.835
   vertex 57.2102 121.874 169.005
   vertex 57.2004 121.189 168.941
  endloop
 endfacet
 facet normal 0.729109 0.00814479 0.684349
  outer loop
   vertex 58.3065 121.034 168.495
   vertex 58.3097 122.022 168.48
   vertex 57.9797 121.764 168.835
  endloop
 endfacet
 facet normal 0.853964 0.150581 0.498067
  outer loop
   vertex 57.9908 120.925 169.069
   vertex 58.3065 121.034 168.495
   vertex 57.9797 121.764 168.835
  endloop
 endfacet
 facet normal -0.515162 0.0173069 0.856918
  outer loop
   vertex 55.7727 121.784 168.469
   vertex 56.4281 121.95 168.86
   vertex 56.0215 122.382 168.607
  endloop
 endfacet
 facet normal -0.281167 0.274366 0.919602
  outer loop
   vertex 56.6042 122.723 168.683
   vertex 56.0215 122.382 168.607
   vertex 56.4281 121.95 168.86
  endloop
 endfacet
 facet normal -0.0825571 0.24004 0.967246
  outer loop
   vertex 56.6042 122.723 168.683
   vertex 56.4281 121.95 168.86
   vertex 57.2708 122.58 168.775
  endloop
 endfacet
 facet normal -0.143222 0.317215 0.937476
  outer loop
   vertex 57.2708 122.58 168.775
   vertex 56.4281 121.95 168.86
   vertex 57.2102 121.874 169.005
  endloop
 endfacet
 facet normal 0.184517 0.446615 0.875493
  outer loop
   vertex 58.0561 122.427 168.688
   vertex 57.6902 122.838 168.555
   vertex 57.2708 122.58 168.775
  endloop
 endfacet
 facet normal 0.14676 0.198156 0.969121
  outer loop
   vertex 58.0561 122.427 168.688
   vertex 57.2708 122.58 168.775
   vertex 57.9797 121.764 168.835
  endloop
 endfacet
 facet normal 0.24518 0.280704 0.92795
  outer loop
   vertex 57.9797 121.764 168.835
   vertex 57.2708 122.58 168.775
   vertex 57.2102 121.874 169.005
  endloop
 endfacet
 facet normal 0.701621 0.0763856 0.708444
  outer loop
   vertex 58.3097 122.022 168.48
   vertex 58.0561 122.427 168.688
   vertex 57.9797 121.764 168.835
  endloop
 endfacet
 facet normal 0.0345247 0.649751 0.759363
  outer loop
   vertex 56.6042 122.723 168.683
   vertex 57.2708 122.58 168.775
   vertex 57.0801 123.015 168.412
  endloop
 endfacet
 facet normal 0.00611971 0.642835 0.76598
  outer loop
   vertex 57.6902 122.838 168.555
   vertex 57.0801 123.015 168.412
   vertex 57.2708 122.58 168.775
  endloop
 endfacet
endsolid
