solid ascii
 facet normal -0.144182 -0.600794 -0.786294
  outer loop
   vertex 57.2678 127.337 129.155
   vertex 57.2575 126.948 129.454
   vertex 56.8037 127.293 129.274
  endloop
 endfacet
 facet normal 0.257318 -0.045613 -0.96525
  outer loop
   vertex 57.2678 127.337 129.155
   vertex 58.0259 127.477 129.35
   vertex 57.986 127.084 129.358
  endloop
 endfacet
 facet normal 0.00951678 -0.609697 -0.792577
  outer loop
   vertex 57.2575 126.948 129.454
   vertex 57.2678 127.337 129.155
   vertex 57.986 127.084 129.358
  endloop
 endfacet
 facet normal 0.650811 -0.0812756 -0.754877
  outer loop
   vertex 57.986 127.084 129.358
   vertex 58.0259 127.477 129.35
   vertex 58.2865 127.203 129.605
  endloop
 endfacet
 facet normal -0.435969 -0.357681 -0.82583
  outer loop
   vertex 56.3349 128.218 129.062
   vertex 56.177 127.668 129.384
   vertex 55.75 128.211 129.374
  endloop
 endfacet
 facet normal -0.377626 -0.384173 -0.842502
  outer loop
   vertex 56.8037 127.293 129.274
   vertex 56.177 127.668 129.384
   vertex 56.3349 128.218 129.062
  endloop
 endfacet
 facet normal -0.206831 -0.316657 -0.925716
  outer loop
   vertex 56.8037 127.293 129.274
   vertex 56.3349 128.218 129.062
   vertex 57.2678 127.337 129.155
  endloop
 endfacet
 facet normal 0.102358 0.00346532 -0.994742
  outer loop
   vertex 57.2678 127.337 129.155
   vertex 56.3349 128.218 129.062
   vertex 57.2458 128.18 129.156
  endloop
 endfacet
 facet normal 0.441749 0.251695 -0.861108
  outer loop
   vertex 57.5812 128.165 129.323
   vertex 58.0259 127.477 129.35
   vertex 57.2458 128.18 129.156
  endloop
 endfacet
 facet normal 0.248423 0.00725868 -0.968624
  outer loop
   vertex 57.2458 128.18 129.156
   vertex 58.0259 127.477 129.35
   vertex 57.2678 127.337 129.155
  endloop
 endfacet
 facet normal -0.636822 -0.418581 -0.647493
  outer loop
   vertex 55.75 128.211 129.374
   vertex 55.0493 129.156 129.452
   vertex 55.4594 129.169 129.04
  endloop
 endfacet
 facet normal -0.425231 -0.409925 -0.806932
  outer loop
   vertex 55.75 128.211 129.374
   vertex 55.4594 129.169 129.04
   vertex 56.3349 128.218 129.062
  endloop
 endfacet
 facet normal -0.0531551 -0.0716002 -0.996016
  outer loop
   vertex 56.3349 128.218 129.062
   vertex 55.4594 129.169 129.04
   vertex 56.1548 129.187 129.002
  endloop
 endfacet
 facet normal 0.105547 0.0902636 -0.990309
  outer loop
   vertex 57.2458 128.18 129.156
   vertex 56.3349 128.218 129.062
   vertex 57.0026 129.345 129.236
  endloop
 endfacet
 facet normal 0.26765 -0.00992589 -0.963465
  outer loop
   vertex 57.0026 129.345 129.236
   vertex 56.3349 128.218 129.062
   vertex 56.1548 129.187 129.002
  endloop
 endfacet
 facet normal 0.445268 0.19919 -0.87296
  outer loop
   vertex 57.5772 128.998 129.511
   vertex 57.5812 128.165 129.323
   vertex 57.2458 128.18 129.156
  endloop
 endfacet
 facet normal 0.505147 0.163798 -0.847347
  outer loop
   vertex 57.0026 129.345 129.236
   vertex 57.5772 128.998 129.511
   vertex 57.2458 128.18 129.156
  endloop
 endfacet
 facet normal -0.70167 -0.11928 -0.702447
  outer loop
   vertex 55.238 130.161 129.093
   vertex 55.4594 129.169 129.04
   vertex 55.0493 129.156 129.452
  endloop
 endfacet
 facet normal -0.679213 -0.130568 -0.722234
  outer loop
   vertex 54.9047 130.175 129.404
   vertex 55.238 130.161 129.093
   vertex 55.0493 129.156 129.452
  endloop
 endfacet
 facet normal -0.0568981 0.0778087 -0.995343
  outer loop
   vertex 56.1548 129.187 129.002
   vertex 55.4594 129.169 129.04
   vertex 56.1455 130.091 129.073
  endloop
 endfacet
 facet normal -0.0180243 0.0489985 -0.998636
  outer loop
   vertex 56.1455 130.091 129.073
   vertex 55.4594 129.169 129.04
   vertex 55.238 130.161 129.093
  endloop
 endfacet
 facet normal 0.1976 0.0133284 -0.980192
  outer loop
   vertex 56.7961 130.203 129.206
   vertex 57.0026 129.345 129.236
   vertex 56.1455 130.091 129.073
  endloop
 endfacet
 facet normal 0.251419 0.0785802 -0.964683
  outer loop
   vertex 56.1455 130.091 129.073
   vertex 57.0026 129.345 129.236
   vertex 56.1548 129.187 129.002
  endloop
 endfacet
 facet normal -0.68233 -0.0162054 -0.730864
  outer loop
   vertex 55.1446 130.94 129.163
   vertex 55.238 130.161 129.093
   vertex 54.9047 130.175 129.404
  endloop
 endfacet
 facet normal -0.868199 0.120685 -0.481316
  outer loop
   vertex 54.9888 130.933 129.442
   vertex 55.1446 130.94 129.163
   vertex 54.9047 130.175 129.404
  endloop
 endfacet
 facet normal -0.0160449 0.0741654 -0.997117
  outer loop
   vertex 56.1455 130.091 129.073
   vertex 55.238 130.161 129.093
   vertex 55.8929 130.984 129.144
  endloop
 endfacet
 facet normal -0.0307364 0.0857708 -0.995841
  outer loop
   vertex 55.8929 130.984 129.144
   vertex 55.238 130.161 129.093
   vertex 55.1446 130.94 129.163
  endloop
 endfacet
 facet normal 0.190737 0.0532517 -0.980196
  outer loop
   vertex 56.7208 130.902 129.229
   vertex 56.7961 130.203 129.206
   vertex 56.1455 130.091 129.073
  endloop
 endfacet
 facet normal 0.112914 0.109865 -0.987512
  outer loop
   vertex 55.8929 130.984 129.144
   vertex 56.7208 130.902 129.229
   vertex 56.1455 130.091 129.073
  endloop
 endfacet
 facet normal -0.650459 0.676838 -0.344665
  outer loop
   vertex 55.1446 130.94 129.163
   vertex 54.9888 130.933 129.442
   vertex 55.3678 131.242 129.334
  endloop
 endfacet
 facet normal -0.0527756 0.521665 -0.851517
  outer loop
   vertex 55.8929 130.984 129.144
   vertex 55.1446 130.94 129.163
   vertex 55.3678 131.242 129.334
  endloop
 endfacet
 facet normal 0.0657717 0.676424 -0.73357
  outer loop
   vertex 56.2921 131.254 129.428
   vertex 55.8929 130.984 129.144
   vertex 55.3678 131.242 129.334
  endloop
 endfacet
 facet normal 0.141308 0.611825 -0.778269
  outer loop
   vertex 56.7208 130.902 129.229
   vertex 55.8929 130.984 129.144
   vertex 56.2921 131.254 129.428
  endloop
 endfacet
 facet normal -0.638934 -0.769176 0.0114325
  outer loop
   vertex 56.384 126.226 130.138
   vertex 56.3209 126.282 130.419
   vertex 56.0922 126.47 130.261
  endloop
 endfacet
 facet normal -0.0194472 -0.618192 -0.785787
  outer loop
   vertex 56.384 126.226 130.138
   vertex 57.1032 126.342 130.029
   vertex 56.9551 126.079 130.239
  endloop
 endfacet
 facet normal -0.268592 -0.954189 0.131839
  outer loop
   vertex 56.3209 126.282 130.419
   vertex 56.384 126.226 130.138
   vertex 56.9551 126.079 130.239
  endloop
 endfacet
 facet normal 0.503276 -0.694866 -0.513687
  outer loop
   vertex 56.9551 126.079 130.239
   vertex 57.1032 126.342 130.029
   vertex 57.3361 126.284 130.336
  endloop
 endfacet
 facet normal -0.579863 -0.313066 -0.752162
  outer loop
   vertex 56.3697 126.923 129.859
   vertex 56.384 126.226 130.138
   vertex 56.0922 126.47 130.261
  endloop
 endfacet
 facet normal -0.610316 -0.283378 -0.739737
  outer loop
   vertex 55.948 127.285 130.068
   vertex 56.3697 126.923 129.859
   vertex 56.0922 126.47 130.261
  endloop
 endfacet
 facet normal -0.277208 -0.705552 -0.652191
  outer loop
   vertex 57.2575 126.948 129.454
   vertex 56.3697 126.923 129.859
   vertex 56.8037 127.293 129.274
  endloop
 endfacet
 facet normal -0.314322 -0.60962 -0.727712
  outer loop
   vertex 57.2575 126.948 129.454
   vertex 57.1032 126.342 130.029
   vertex 56.3697 126.923 129.859
  endloop
 endfacet
 facet normal -0.08034 -0.371978 -0.924758
  outer loop
   vertex 57.1032 126.342 130.029
   vertex 56.384 126.226 130.138
   vertex 56.3697 126.923 129.859
  endloop
 endfacet
 facet normal 0.485519 -0.714386 -0.503908
  outer loop
   vertex 57.1032 126.342 130.029
   vertex 57.9634 126.836 130.157
   vertex 57.3361 126.284 130.336
  endloop
 endfacet
 facet normal 0.469521 -0.667298 -0.578155
  outer loop
   vertex 57.1032 126.342 130.029
   vertex 57.2575 126.948 129.454
   vertex 57.9634 126.836 130.157
  endloop
 endfacet
 facet normal 0.138515 -0.946904 -0.290149
  outer loop
   vertex 57.2575 126.948 129.454
   vertex 57.986 127.084 129.358
   vertex 57.9634 126.836 130.157
  endloop
 endfacet
 facet normal 0.521038 -0.819199 -0.239651
  outer loop
   vertex 57.9634 126.836 130.157
   vertex 57.986 127.084 129.358
   vertex 58.2865 127.203 129.605
  endloop
 endfacet
 facet normal 0.645879 -0.753475 -0.122944
  outer loop
   vertex 58.402 127.177 130.371
   vertex 57.9634 126.836 130.157
   vertex 58.2865 127.203 129.605
  endloop
 endfacet
 facet normal -0.691021 -0.507108 -0.515103
  outer loop
   vertex 56.177 127.668 129.384
   vertex 56.3697 126.923 129.859
   vertex 55.948 127.285 130.068
  endloop
 endfacet
 facet normal -0.666088 -0.533324 -0.521433
  outer loop
   vertex 56.177 127.668 129.384
   vertex 55.948 127.285 130.068
   vertex 55.75 128.211 129.374
  endloop
 endfacet
 facet normal -0.935441 -0.317136 -0.156126
  outer loop
   vertex 55.75 128.211 129.374
   vertex 55.948 127.285 130.068
   vertex 55.6453 128.113 130.2
  endloop
 endfacet
 facet normal -0.456037 -0.55927 -0.692277
  outer loop
   vertex 56.8037 127.293 129.274
   vertex 56.3697 126.923 129.859
   vertex 56.177 127.668 129.384
  endloop
 endfacet
 facet normal 0.610712 0.36734 -0.701493
  outer loop
   vertex 58.0259 127.477 129.35
   vertex 57.5812 128.165 129.323
   vertex 58.1074 128.236 129.818
  endloop
 endfacet
 facet normal 0.809556 0.242876 -0.534445
  outer loop
   vertex 58.0259 127.477 129.35
   vertex 58.1074 128.236 129.818
   vertex 58.5241 127.916 130.305
  endloop
 endfacet
 facet normal 0.800884 0.26173 -0.538593
  outer loop
   vertex 58.0259 127.477 129.35
   vertex 58.5241 127.916 130.305
   vertex 58.2865 127.203 129.605
  endloop
 endfacet
 facet normal 0.972787 -0.174365 -0.152584
  outer loop
   vertex 58.2865 127.203 129.605
   vertex 58.5241 127.916 130.305
   vertex 58.402 127.177 130.371
  endloop
 endfacet
 facet normal -0.874369 -0.480972 -0.0643829
  outer loop
   vertex 55.0493 129.156 129.452
   vertex 55.1425 128.86 130.395
   vertex 54.8653 129.402 130.114
  endloop
 endfacet
 facet normal -0.798264 -0.577954 -0.16954
  outer loop
   vertex 55.6453 128.113 130.2
   vertex 55.0493 129.156 129.452
   vertex 55.75 128.211 129.374
  endloop
 endfacet
 facet normal -0.83674 -0.540671 -0.0868372
  outer loop
   vertex 55.1425 128.86 130.395
   vertex 55.0493 129.156 129.452
   vertex 55.6453 128.113 130.2
  endloop
 endfacet
 facet normal 0.67197 0.177738 -0.718933
  outer loop
   vertex 58.1074 128.236 129.818
   vertex 57.5772 128.998 129.511
   vertex 58.4291 128.886 130.28
  endloop
 endfacet
 facet normal 0.663528 0.167777 -0.729096
  outer loop
   vertex 57.5812 128.165 129.323
   vertex 57.5772 128.998 129.511
   vertex 58.1074 128.236 129.818
  endloop
 endfacet
 facet normal 0.777097 0.0601783 -0.626497
  outer loop
   vertex 58.4291 128.886 130.28
   vertex 58.5241 127.916 130.305
   vertex 58.1074 128.236 129.818
  endloop
 endfacet
 facet normal -0.965701 -0.147046 -0.214009
  outer loop
   vertex 55.0493 129.156 129.452
   vertex 54.8653 129.402 130.114
   vertex 54.9047 130.175 129.404
  endloop
 endfacet
 facet normal -0.999269 0.0325154 -0.0201058
  outer loop
   vertex 54.8653 129.402 130.114
   vertex 54.8866 130.157 130.273
   vertex 54.9047 130.175 129.404
  endloop
 endfacet
 facet normal 0.545969 0.102414 -0.831522
  outer loop
   vertex 57.0026 129.345 129.236
   vertex 56.7961 130.203 129.206
   vertex 57.1973 130.373 129.49
  endloop
 endfacet
 facet normal 0.633423 0.070763 -0.770563
  outer loop
   vertex 57.0026 129.345 129.236
   vertex 57.1973 130.373 129.49
   vertex 57.8128 130.011 129.963
  endloop
 endfacet
 facet normal 0.533052 0.238119 -0.811883
  outer loop
   vertex 57.5772 128.998 129.511
   vertex 57.0026 129.345 129.236
   vertex 57.8128 130.011 129.963
  endloop
 endfacet
 facet normal 0.635298 0.186463 -0.749418
  outer loop
   vertex 57.5772 128.998 129.511
   vertex 57.8128 130.011 129.963
   vertex 58.2777 129.471 130.223
  endloop
 endfacet
 facet normal 0.67372 0.103031 -0.731769
  outer loop
   vertex 57.5772 128.998 129.511
   vertex 58.2777 129.471 130.223
   vertex 58.4291 128.886 130.28
  endloop
 endfacet
 facet normal -0.730061 0.589137 0.346309
  outer loop
   vertex 55.098 130.66 130.137
   vertex 55.2608 131.155 129.637
   vertex 54.9888 130.933 129.442
  endloop
 endfacet
 facet normal -0.845576 0.438096 0.30508
  outer loop
   vertex 55.098 130.66 130.137
   vertex 54.9888 130.933 129.442
   vertex 54.8866 130.157 130.273
  endloop
 endfacet
 facet normal -0.993618 0.111301 -0.0183111
  outer loop
   vertex 54.8866 130.157 130.273
   vertex 54.9888 130.933 129.442
   vertex 54.9047 130.175 129.404
  endloop
 endfacet
 facet normal -0.673562 0.622767 0.39809
  outer loop
   vertex 55.098 130.66 130.137
   vertex 55.6618 131.097 130.406
   vertex 55.2608 131.155 129.637
  endloop
 endfacet
 facet normal 0.608324 0.164807 -0.776389
  outer loop
   vertex 57.1973 130.373 129.49
   vertex 56.7208 130.902 129.229
   vertex 57.0646 131.092 129.539
  endloop
 endfacet
 facet normal 0.551249 0.0870637 -0.829786
  outer loop
   vertex 56.7961 130.203 129.206
   vertex 56.7208 130.902 129.229
   vertex 57.1973 130.373 129.49
  endloop
 endfacet
 facet normal 0.69034 0.338806 -0.639251
  outer loop
   vertex 57.5485 130.903 130.15
   vertex 57.8128 130.011 129.963
   vertex 57.1973 130.373 129.49
  endloop
 endfacet
 facet normal 0.797662 0.185989 -0.57371
  outer loop
   vertex 57.0646 131.092 129.539
   vertex 57.5485 130.903 130.15
   vertex 57.1973 130.373 129.49
  endloop
 endfacet
 facet normal -0.632241 0.774771 -0.000857149
  outer loop
   vertex 54.9888 130.933 129.442
   vertex 55.2608 131.155 129.637
   vertex 55.3678 131.242 129.334
  endloop
 endfacet
 facet normal -0.390147 0.880463 0.269387
  outer loop
   vertex 55.2608 131.155 129.637
   vertex 55.6618 131.097 130.406
   vertex 56.1112 131.369 130.168
  endloop
 endfacet
 facet normal -0.32926 0.932093 0.150964
  outer loop
   vertex 55.2608 131.155 129.637
   vertex 56.1112 131.369 130.168
   vertex 55.3678 131.242 129.334
  endloop
 endfacet
 facet normal 0.00220662 0.988226 -0.152985
  outer loop
   vertex 55.3678 131.242 129.334
   vertex 56.1112 131.369 130.168
   vertex 56.2921 131.254 129.428
  endloop
 endfacet
 facet normal 0.242148 0.683737 -0.688381
  outer loop
   vertex 57.0646 131.092 129.539
   vertex 56.7208 130.902 129.229
   vertex 56.2921 131.254 129.428
  endloop
 endfacet
 facet normal 0.235853 0.929296 -0.284222
  outer loop
   vertex 57.0646 131.092 129.539
   vertex 56.2921 131.254 129.428
   vertex 57.2093 131.292 130.314
  endloop
 endfacet
 facet normal 0.0866885 0.987425 -0.132202
  outer loop
   vertex 57.2093 131.292 130.314
   vertex 56.2921 131.254 129.428
   vertex 56.1112 131.369 130.168
  endloop
 endfacet
 facet normal 0.652896 0.69486 -0.30149
  outer loop
   vertex 57.5485 130.903 130.15
   vertex 57.0646 131.092 129.539
   vertex 57.2093 131.292 130.314
  endloop
 endfacet
 facet normal -0.0841132 -0.794062 0.601988
  outer loop
   vertex 56.3209 126.282 130.419
   vertex 56.9551 126.079 130.239
   vertex 56.9757 126.304 130.539
  endloop
 endfacet
 facet normal 0.275231 -0.777771 0.565084
  outer loop
   vertex 56.9551 126.079 130.239
   vertex 57.3361 126.284 130.336
   vertex 56.9757 126.304 130.539
  endloop
 endfacet
 facet normal -0.593643 -0.50396 0.627385
  outer loop
   vertex 56.3209 126.282 130.419
   vertex 56.3715 127.115 131.135
   vertex 55.9996 127.135 130.8
  endloop
 endfacet
 facet normal -0.730051 -0.48851 0.477895
  outer loop
   vertex 56.3209 126.282 130.419
   vertex 55.9996 127.135 130.8
   vertex 56.0922 126.47 130.261
  endloop
 endfacet
 facet normal -0.985515 -0.165827 0.0355222
  outer loop
   vertex 56.0922 126.47 130.261
   vertex 55.9996 127.135 130.8
   vertex 55.948 127.285 130.068
  endloop
 endfacet
 facet normal -0.11745 -0.64376 0.756161
  outer loop
   vertex 56.9757 126.304 130.539
   vertex 56.3715 127.115 131.135
   vertex 56.3209 126.282 130.419
  endloop
 endfacet
 facet normal -0.147322 -0.654978 0.741147
  outer loop
   vertex 57.3671 126.835 131.086
   vertex 56.3715 127.115 131.135
   vertex 56.9757 126.304 130.539
  endloop
 endfacet
 facet normal 0.273296 -0.780717 0.561952
  outer loop
   vertex 57.3361 126.284 130.336
   vertex 57.3671 126.835 131.086
   vertex 56.9757 126.304 130.539
  endloop
 endfacet
 facet normal 0.663446 -0.615915 0.42484
  outer loop
   vertex 57.3361 126.284 130.336
   vertex 57.9634 126.836 130.157
   vertex 57.3671 126.835 131.086
  endloop
 endfacet
 facet normal 0.164995 -0.980769 0.104255
  outer loop
   vertex 57.9634 126.836 130.157
   vertex 58.1733 126.97 131.089
   vertex 57.3671 126.835 131.086
  endloop
 endfacet
 facet normal 0.621851 -0.782662 -0.0272263
  outer loop
   vertex 58.1733 126.97 131.089
   vertex 57.9634 126.836 130.157
   vertex 58.402 127.177 130.371
  endloop
 endfacet
 facet normal 0.740738 -0.670418 0.0429729
  outer loop
   vertex 58.5038 127.349 131.306
   vertex 58.1733 126.97 131.089
   vertex 58.402 127.177 130.371
  endloop
 endfacet
 facet normal -0.939404 -0.342788 -0.00392016
  outer loop
   vertex 55.948 127.285 130.068
   vertex 55.9996 127.135 130.8
   vertex 55.6453 128.113 130.2
  endloop
 endfacet
 facet normal -0.955487 -0.253385 0.151131
  outer loop
   vertex 55.9996 127.135 130.8
   vertex 55.7835 128.086 131.026
   vertex 55.6453 128.113 130.2
  endloop
 endfacet
 facet normal 0.839345 -0.368532 -0.399605
  outer loop
   vertex 58.9784 127.948 131.23
   vertex 58.5241 127.916 130.305
   vertex 59.1719 128.475 131.15
  endloop
 endfacet
 facet normal 0.718089 -0.611699 -0.331921
  outer loop
   vertex 58.9784 127.948 131.23
   vertex 58.5038 127.349 131.306
   vertex 58.5241 127.916 130.305
  endloop
 endfacet
 facet normal 0.982674 -0.169119 -0.0758321
  outer loop
   vertex 58.5038 127.349 131.306
   vertex 58.402 127.177 130.371
   vertex 58.5241 127.916 130.305
  endloop
 endfacet
 facet normal -0.861579 -0.477606 0.171971
  outer loop
   vertex 55.1425 128.86 130.395
   vertex 55.2794 128.879 131.132
   vertex 54.9799 129.343 130.922
  endloop
 endfacet
 facet normal -0.905666 -0.412369 0.0985895
  outer loop
   vertex 54.8653 129.402 130.114
   vertex 55.1425 128.86 130.395
   vertex 54.9799 129.343 130.922
  endloop
 endfacet
 facet normal -0.8096 -0.57543 0.115882
  outer loop
   vertex 55.7835 128.086 131.026
   vertex 55.1425 128.86 130.395
   vertex 55.6453 128.113 130.2
  endloop
 endfacet
 facet normal -0.822043 -0.544592 0.166326
  outer loop
   vertex 55.2794 128.879 131.132
   vertex 55.1425 128.86 130.395
   vertex 55.7835 128.086 131.026
  endloop
 endfacet
 facet normal 0.731343 -0.104698 -0.673926
  outer loop
   vertex 59.1719 128.475 131.15
   vertex 58.4291 128.886 130.28
   vertex 59.0952 129.389 130.925
  endloop
 endfacet
 facet normal 0.772854 0.0596277 -0.631776
  outer loop
   vertex 58.5241 127.916 130.305
   vertex 58.4291 128.886 130.28
   vertex 59.1719 128.475 131.15
  endloop
 endfacet
 facet normal 0.735491 -0.103288 -0.669616
  outer loop
   vertex 59.0952 129.389 130.925
   vertex 59.3919 129.3 131.264
   vertex 59.1719 128.475 131.15
  endloop
 endfacet
 facet normal -0.990113 -0.00152539 0.140265
  outer loop
   vertex 54.8653 129.402 130.114
   vertex 54.9799 129.343 130.922
   vertex 54.8866 130.157 130.273
  endloop
 endfacet
 facet normal -0.986786 0.0156238 0.161272
  outer loop
   vertex 54.9799 129.343 130.922
   vertex 55.0172 130.003 131.087
   vertex 54.8866 130.157 130.273
  endloop
 endfacet
 facet normal 0.65471 0.215147 -0.724614
  outer loop
   vertex 58.2777 129.471 130.223
   vertex 57.8128 130.011 129.963
   vertex 58.3585 130.21 130.515
  endloop
 endfacet
 facet normal 0.653835 0.0960614 -0.750515
  outer loop
   vertex 58.2777 129.471 130.223
   vertex 59.0952 129.389 130.925
   vertex 58.4291 128.886 130.28
  endloop
 endfacet
 facet normal 0.64817 0.217861 -0.729666
  outer loop
   vertex 58.2777 129.471 130.223
   vertex 58.3585 130.21 130.515
   vertex 59.0952 129.389 130.925
  endloop
 endfacet
 facet normal 0.612563 0.164191 -0.77318
  outer loop
   vertex 58.3585 130.21 130.515
   vertex 59.0811 130.329 131.113
   vertex 59.0952 129.389 130.925
  endloop
 endfacet
 facet normal 0.755693 0.0209397 -0.654591
  outer loop
   vertex 59.3502 130.014 131.239
   vertex 59.3919 129.3 131.264
   vertex 59.0952 129.389 130.925
  endloop
 endfacet
 facet normal 0.573287 0.169309 -0.801671
  outer loop
   vertex 59.0811 130.329 131.113
   vertex 59.3502 130.014 131.239
   vertex 59.0952 129.389 130.925
  endloop
 endfacet
 facet normal -0.896608 0.386027 0.216972
  outer loop
   vertex 54.8866 130.157 130.273
   vertex 55.0172 130.003 131.087
   vertex 55.1707 130.453 130.92
  endloop
 endfacet
 facet normal -0.884431 0.424413 0.194049
  outer loop
   vertex 55.098 130.66 130.137
   vertex 54.8866 130.157 130.273
   vertex 55.1707 130.453 130.92
  endloop
 endfacet
 facet normal -0.665208 0.704451 0.247482
  outer loop
   vertex 55.1707 130.453 130.92
   vertex 55.6618 131.097 130.406
   vertex 55.098 130.66 130.137
  endloop
 endfacet
 facet normal -0.701187 0.686888 0.191109
  outer loop
   vertex 55.7616 131.003 131.111
   vertex 55.6618 131.097 130.406
   vertex 55.1707 130.453 130.92
  endloop
 endfacet
 facet normal 0.644964 0.416719 -0.640598
  outer loop
   vertex 58.3585 130.21 130.515
   vertex 57.5485 130.903 130.15
   vertex 58.2466 131.012 130.924
  endloop
 endfacet
 facet normal 0.608446 0.3317 -0.72095
  outer loop
   vertex 57.8128 130.011 129.963
   vertex 57.5485 130.903 130.15
   vertex 58.3585 130.21 130.515
  endloop
 endfacet
 facet normal 0.581348 0.553612 -0.596279
  outer loop
   vertex 58.7848 130.965 131.415
   vertex 59.1879 130.515 131.39
   vertex 59.0811 130.329 131.113
  endloop
 endfacet
 facet normal 0.58663 0.553609 -0.591085
  outer loop
   vertex 58.7848 130.965 131.415
   vertex 59.0811 130.329 131.113
   vertex 58.2466 131.012 130.924
  endloop
 endfacet
 facet normal 0.526804 0.443376 -0.725187
  outer loop
   vertex 58.2466 131.012 130.924
   vertex 59.0811 130.329 131.113
   vertex 58.3585 130.21 130.515
  endloop
 endfacet
 facet normal 0.729914 0.402806 -0.552243
  outer loop
   vertex 59.3502 130.014 131.239
   vertex 59.0811 130.329 131.113
   vertex 59.1879 130.515 131.39
  endloop
 endfacet
 facet normal -0.569353 0.800399 0.187615
  outer loop
   vertex 55.6618 131.097 130.406
   vertex 55.7616 131.003 131.111
   vertex 56.1524 131.307 130.999
  endloop
 endfacet
 facet normal -0.480649 0.872402 0.0888323
  outer loop
   vertex 56.1112 131.369 130.168
   vertex 55.6618 131.097 130.406
   vertex 56.1524 131.307 130.999
  endloop
 endfacet
 facet normal 0.0785239 0.99467 -0.0668308
  outer loop
   vertex 57.2093 131.292 130.314
   vertex 56.1112 131.369 130.168
   vertex 57.0811 131.36 131.176
  endloop
 endfacet
 facet normal -0.0715244 0.994416 0.0775929
  outer loop
   vertex 56.1112 131.369 130.168
   vertex 56.1524 131.307 130.999
   vertex 57.0811 131.36 131.176
  endloop
 endfacet
 facet normal 0.503204 0.668082 -0.548136
  outer loop
   vertex 58.2466 131.012 130.924
   vertex 57.5485 130.903 130.15
   vertex 57.2093 131.292 130.314
  endloop
 endfacet
 facet normal 0.444142 0.81026 -0.382383
  outer loop
   vertex 58.2466 131.012 130.924
   vertex 57.2093 131.292 130.314
   vertex 58.1097 131.268 131.309
  endloop
 endfacet
 facet normal 0.0971513 0.993213 -0.0639455
  outer loop
   vertex 58.1097 131.268 131.309
   vertex 57.2093 131.292 130.314
   vertex 57.0811 131.36 131.176
  endloop
 endfacet
 facet normal 0.427401 0.814921 -0.391448
  outer loop
   vertex 58.7848 130.965 131.415
   vertex 58.2466 131.012 130.924
   vertex 58.1097 131.268 131.309
  endloop
 endfacet
 facet normal -0.170774 -0.725186 0.667039
  outer loop
   vertex 56.3715 127.115 131.135
   vertex 57.3671 126.835 131.086
   vertex 57.1069 127.396 131.63
  endloop
 endfacet
 facet normal -0.373427 -0.728858 0.573863
  outer loop
   vertex 58.0391 127.159 131.936
   vertex 57.1069 127.396 131.63
   vertex 57.3671 126.835 131.086
  endloop
 endfacet
 facet normal 0.160618 -0.957636 0.239029
  outer loop
   vertex 58.0391 127.159 131.936
   vertex 57.3671 126.835 131.086
   vertex 58.1733 126.97 131.089
  endloop
 endfacet
 facet normal 0.648056 -0.715043 0.262175
  outer loop
   vertex 58.0391 127.159 131.936
   vertex 58.1733 126.97 131.089
   vertex 58.5038 127.349 131.306
  endloop
 endfacet
 facet normal 0.518429 -0.845611 0.127177
  outer loop
   vertex 58.3712 127.394 132.145
   vertex 58.0391 127.159 131.936
   vertex 58.5038 127.349 131.306
  endloop
 endfacet
 facet normal -0.655074 -0.319987 0.684461
  outer loop
   vertex 56.3715 127.115 131.135
   vertex 56.1917 128.306 131.52
   vertex 55.7835 128.086 131.026
  endloop
 endfacet
 facet normal -0.6455 -0.312807 0.696764
  outer loop
   vertex 55.9996 127.135 130.8
   vertex 56.3715 127.115 131.135
   vertex 55.7835 128.086 131.026
  endloop
 endfacet
 facet normal -0.460448 -0.485063 0.743439
  outer loop
   vertex 56.9988 128.166 132.065
   vertex 57.1069 127.396 131.63
   vertex 57.5285 128.05 132.317
  endloop
 endfacet
 facet normal -0.54866 -0.468565 0.692401
  outer loop
   vertex 56.9988 128.166 132.065
   vertex 56.1917 128.306 131.52
   vertex 57.1069 127.396 131.63
  endloop
 endfacet
 facet normal -0.433628 -0.335617 0.836258
  outer loop
   vertex 56.1917 128.306 131.52
   vertex 56.3715 127.115 131.135
   vertex 57.1069 127.396 131.63
  endloop
 endfacet
 facet normal -0.383088 -0.540713 0.748915
  outer loop
   vertex 58.0391 127.159 131.936
   vertex 57.5285 128.05 132.317
   vertex 57.1069 127.396 131.63
  endloop
 endfacet
 facet normal 0.709481 -0.500477 0.496145
  outer loop
   vertex 58.6152 128.228 132.032
   vertex 58.5038 127.349 131.306
   vertex 58.9784 127.948 131.23
  endloop
 endfacet
 facet normal 0.952417 -0.256746 0.164264
  outer loop
   vertex 58.6152 128.228 132.032
   vertex 58.3712 127.394 132.145
   vertex 58.5038 127.349 131.306
  endloop
 endfacet
 facet normal 0.849987 -0.240183 0.468866
  outer loop
   vertex 58.9784 127.948 131.23
   vertex 59.1719 128.475 131.15
   vertex 58.6152 128.228 132.032
  endloop
 endfacet
 facet normal -0.732587 -0.17473 0.657864
  outer loop
   vertex 55.2794 128.879 131.132
   vertex 55.3429 129.359 131.331
   vertex 54.9799 129.343 130.922
  endloop
 endfacet
 facet normal -0.575112 -0.456064 0.679155
  outer loop
   vertex 55.2794 128.879 131.132
   vertex 55.7835 128.086 131.026
   vertex 56.1917 128.306 131.52
  endloop
 endfacet
 facet normal -0.51473 -0.268215 0.814318
  outer loop
   vertex 55.2794 128.879 131.132
   vertex 56.1917 128.306 131.52
   vertex 55.3429 129.359 131.331
  endloop
 endfacet
 facet normal -0.34913 -0.113752 0.930145
  outer loop
   vertex 55.3429 129.359 131.331
   vertex 56.1917 128.306 131.52
   vertex 56.2516 129.328 131.668
  endloop
 endfacet
 facet normal -0.566447 -0.0688008 0.821221
  outer loop
   vertex 57.168 129.161 132.265
   vertex 56.1917 128.306 131.52
   vertex 56.9988 128.166 132.065
  endloop
 endfacet
 facet normal -0.555199 -0.0868309 0.827173
  outer loop
   vertex 56.2516 129.328 131.668
   vertex 56.1917 128.306 131.52
   vertex 57.168 129.161 132.265
  endloop
 endfacet
 facet normal 0.730468 -0.107315 0.674463
  outer loop
   vertex 58.6054 129.349 132.221
   vertex 58.6152 128.228 132.032
   vertex 59.1732 129.077 131.563
  endloop
 endfacet
 facet normal 0.862393 -0.287892 0.416408
  outer loop
   vertex 59.1719 128.475 131.15
   vertex 59.3919 129.3 131.264
   vertex 59.1732 129.077 131.563
  endloop
 endfacet
 facet normal 0.841387 -0.307217 0.444619
  outer loop
   vertex 58.6152 128.228 132.032
   vertex 59.1719 128.475 131.15
   vertex 59.1732 129.077 131.563
  endloop
 endfacet
 facet normal -0.53311 0.0500562 0.844564
  outer loop
   vertex 55.3429 129.359 131.331
   vertex 55.3585 130.306 131.284
   vertex 55.0172 130.003 131.087
  endloop
 endfacet
 facet normal -0.739339 -0.12331 0.661946
  outer loop
   vertex 54.9799 129.343 130.922
   vertex 55.3429 129.359 131.331
   vertex 55.0172 130.003 131.087
  endloop
 endfacet
 facet normal -0.344006 0.08969 0.934674
  outer loop
   vertex 56.2516 129.328 131.668
   vertex 56.1462 130.21 131.544
   vertex 55.3429 129.359 131.331
  endloop
 endfacet
 facet normal -0.307673 0.0515227 0.950096
  outer loop
   vertex 56.1462 130.21 131.544
   vertex 55.3585 130.306 131.284
   vertex 55.3429 129.359 131.331
  endloop
 endfacet
 facet normal -0.532203 0.091204 0.84169
  outer loop
   vertex 57.0411 130.189 132.074
   vertex 56.2516 129.328 131.668
   vertex 57.168 129.161 132.265
  endloop
 endfacet
 facet normal -0.507139 0.0596996 0.859794
  outer loop
   vertex 56.1462 130.21 131.544
   vertex 56.2516 129.328 131.668
   vertex 57.0411 130.189 132.074
  endloop
 endfacet
 facet normal 0.75935 0.0107809 0.650594
  outer loop
   vertex 59.2038 129.936 131.513
   vertex 58.6054 129.349 132.221
   vertex 59.1732 129.077 131.563
  endloop
 endfacet
 facet normal 0.724572 0.0862774 0.683778
  outer loop
   vertex 58.6068 130.37 132.091
   vertex 58.6054 129.349 132.221
   vertex 59.2038 129.936 131.513
  endloop
 endfacet
 facet normal 0.871718 0.0680875 0.485255
  outer loop
   vertex 59.3919 129.3 131.264
   vertex 59.3502 130.014 131.239
   vertex 59.2038 129.936 131.513
  endloop
 endfacet
 facet normal 0.804662 0.00585581 0.593705
  outer loop
   vertex 59.1732 129.077 131.563
   vertex 59.3919 129.3 131.264
   vertex 59.2038 129.936 131.513
  endloop
 endfacet
 facet normal -0.710239 0.444494 0.54588
  outer loop
   vertex 55.0172 130.003 131.087
   vertex 55.3585 130.306 131.284
   vertex 55.1707 130.453 130.92
  endloop
 endfacet
 facet normal -0.657933 0.516445 0.548095
  outer loop
   vertex 55.7616 131.003 131.111
   vertex 55.1707 130.453 130.92
   vertex 55.3585 130.306 131.284
  endloop
 endfacet
 facet normal -0.457653 0.454464 0.76421
  outer loop
   vertex 55.7616 131.003 131.111
   vertex 55.3585 130.306 131.284
   vertex 56.2044 131.035 131.357
  endloop
 endfacet
 facet normal -0.279733 0.231331 0.931791
  outer loop
   vertex 56.2044 131.035 131.357
   vertex 55.3585 130.306 131.284
   vertex 56.1462 130.21 131.544
  endloop
 endfacet
 facet normal -0.452204 0.430713 0.781024
  outer loop
   vertex 57.0411 130.189 132.074
   vertex 57.1322 131.017 131.67
   vertex 56.1462 130.21 131.544
  endloop
 endfacet
 facet normal -0.307086 0.2313 0.923146
  outer loop
   vertex 57.1322 131.017 131.67
   vertex 56.2044 131.035 131.357
   vertex 56.1462 130.21 131.544
  endloop
 endfacet
 facet normal -0.516182 0.4207 0.746034
  outer loop
   vertex 57.0411 130.189 132.074
   vertex 57.8236 130.949 132.187
   vertex 57.1322 131.017 131.67
  endloop
 endfacet
 facet normal 0.743732 0.158238 0.649479
  outer loop
   vertex 59.1879 130.515 131.39
   vertex 58.6068 130.37 132.091
   vertex 59.2038 129.936 131.513
  endloop
 endfacet
 facet normal 0.607047 0.510405 0.609082
  outer loop
   vertex 59.1879 130.515 131.39
   vertex 58.7848 130.965 131.415
   vertex 58.6068 130.37 132.091
  endloop
 endfacet
 facet normal 0.828466 0.293836 0.476765
  outer loop
   vertex 58.7848 130.965 131.415
   vertex 58.3927 131.093 132.017
   vertex 58.6068 130.37 132.091
  endloop
 endfacet
 facet normal 0.858842 0.128812 0.49578
  outer loop
   vertex 59.3502 130.014 131.239
   vertex 59.1879 130.515 131.39
   vertex 59.2038 129.936 131.513
  endloop
 endfacet
 facet normal -0.381332 0.707906 0.594521
  outer loop
   vertex 55.7616 131.003 131.111
   vertex 56.2044 131.035 131.357
   vertex 56.1524 131.307 130.999
  endloop
 endfacet
 facet normal -0.160725 0.773824 0.61267
  outer loop
   vertex 57.0811 131.36 131.176
   vertex 56.1524 131.307 130.999
   vertex 56.2044 131.035 131.357
  endloop
 endfacet
 facet normal -0.178199 0.7993 0.573903
  outer loop
   vertex 57.1322 131.017 131.67
   vertex 57.0811 131.36 131.176
   vertex 56.2044 131.035 131.357
  endloop
 endfacet
 facet normal -0.390392 0.687328 0.612515
  outer loop
   vertex 57.1322 131.017 131.67
   vertex 57.8236 130.949 132.187
   vertex 58.0102 131.236 131.984
  endloop
 endfacet
 facet normal -0.38242 0.73975 0.553647
  outer loop
   vertex 57.1322 131.017 131.67
   vertex 58.0102 131.236 131.984
   vertex 57.0811 131.36 131.176
  endloop
 endfacet
 facet normal 0.0812924 0.994888 0.0599144
  outer loop
   vertex 57.0811 131.36 131.176
   vertex 58.0102 131.236 131.984
   vertex 58.1097 131.268 131.309
  endloop
 endfacet
 facet normal 0.400278 0.91402 0.0659238
  outer loop
   vertex 58.3927 131.093 132.017
   vertex 58.7848 130.965 131.415
   vertex 58.1097 131.268 131.309
  endloop
 endfacet
 facet normal 0.340237 0.935506 0.0952276
  outer loop
   vertex 58.0102 131.236 131.984
   vertex 58.3927 131.093 132.017
   vertex 58.1097 131.268 131.309
  endloop
 endfacet
 facet normal 0.278288 -0.827244 0.488081
  outer loop
   vertex 58.0391 127.159 131.936
   vertex 58.3712 127.394 132.145
   vertex 58.14 127.423 132.325
  endloop
 endfacet
 facet normal -0.601865 -0.580269 0.548677
  outer loop
   vertex 57.5285 128.05 132.317
   vertex 58.0391 127.159 131.936
   vertex 58.14 127.423 132.325
  endloop
 endfacet
 facet normal -0.145261 -0.129536 0.980877
  outer loop
   vertex 57.5285 128.05 132.317
   vertex 58.14 127.423 132.325
   vertex 58.2088 128.027 132.415
  endloop
 endfacet
 facet normal 0.710865 -0.114391 0.693964
  outer loop
   vertex 58.3712 127.394 132.145
   vertex 58.6152 128.228 132.032
   vertex 58.2088 128.027 132.415
  endloop
 endfacet
 facet normal 0.590746 -0.184358 0.785514
  outer loop
   vertex 58.14 127.423 132.325
   vertex 58.3712 127.394 132.145
   vertex 58.2088 128.027 132.415
  endloop
 endfacet
 facet normal -0.445809 -0.102978 0.889185
  outer loop
   vertex 56.9988 128.166 132.065
   vertex 57.5285 128.05 132.317
   vertex 57.168 129.161 132.265
  endloop
 endfacet
 facet normal -0.145229 -0.320189 0.936156
  outer loop
   vertex 58.2088 128.027 132.415
   vertex 58.1245 128.937 132.713
   vertex 57.5285 128.05 132.317
  endloop
 endfacet
 facet normal -0.441321 -0.101408 0.891601
  outer loop
   vertex 58.1245 128.937 132.713
   vertex 57.168 129.161 132.265
   vertex 57.5285 128.05 132.317
  endloop
 endfacet
 facet normal 0.75327 -0.102923 0.649608
  outer loop
   vertex 58.6152 128.228 132.032
   vertex 58.6054 129.349 132.221
   vertex 58.1245 128.937 132.713
  endloop
 endfacet
 facet normal 0.717328 -0.156039 0.679038
  outer loop
   vertex 58.2088 128.027 132.415
   vertex 58.6152 128.228 132.032
   vertex 58.1245 128.937 132.713
  endloop
 endfacet
 facet normal -0.548568 0.0872922 0.831537
  outer loop
   vertex 57.168 129.161 132.265
   vertex 57.526 130.268 132.385
   vertex 57.0411 130.189 132.074
  endloop
 endfacet
 facet normal -0.42513 -0.00518356 0.905117
  outer loop
   vertex 58.1245 128.937 132.713
   vertex 58.1224 129.98 132.718
   vertex 57.168 129.161 132.265
  endloop
 endfacet
 facet normal -0.466354 0.0551368 0.882878
  outer loop
   vertex 58.1224 129.98 132.718
   vertex 57.526 130.268 132.385
   vertex 57.168 129.161 132.265
  endloop
 endfacet
 facet normal 0.764297 0.0806063 0.639807
  outer loop
   vertex 58.6054 129.349 132.221
   vertex 58.6068 130.37 132.091
   vertex 58.1224 129.98 132.718
  endloop
 endfacet
 facet normal 0.716219 -0.00186637 0.697873
  outer loop
   vertex 58.1245 128.937 132.713
   vertex 58.6054 129.349 132.221
   vertex 58.1224 129.98 132.718
  endloop
 endfacet
 facet normal -0.534385 0.443375 0.719619
  outer loop
   vertex 57.8236 130.949 132.187
   vertex 57.0411 130.189 132.074
   vertex 57.526 130.268 132.385
  endloop
 endfacet
 facet normal -0.314095 0.389749 0.865702
  outer loop
   vertex 57.8236 130.949 132.187
   vertex 57.526 130.268 132.385
   vertex 58.1789 130.896 132.339
  endloop
 endfacet
 facet normal -0.304282 0.380119 0.873454
  outer loop
   vertex 58.1789 130.896 132.339
   vertex 57.526 130.268 132.385
   vertex 58.1224 129.98 132.718
  endloop
 endfacet
 facet normal 0.714377 0.276961 0.642618
  outer loop
   vertex 58.6068 130.37 132.091
   vertex 58.3927 131.093 132.017
   vertex 58.1789 130.896 132.339
  endloop
 endfacet
 facet normal 0.691104 0.23946 0.681934
  outer loop
   vertex 58.1224 129.98 132.718
   vertex 58.6068 130.37 132.091
   vertex 58.1789 130.896 132.339
  endloop
 endfacet
 facet normal -0.214846 0.653258 0.726013
  outer loop
   vertex 57.8236 130.949 132.187
   vertex 58.1789 130.896 132.339
   vertex 58.0102 131.236 131.984
  endloop
 endfacet
 facet normal 0.228927 0.755937 0.613312
  outer loop
   vertex 58.3927 131.093 132.017
   vertex 58.0102 131.236 131.984
   vertex 58.1789 130.896 132.339
  endloop
 endfacet
endsolid
