ply
format ascii 1.0
element vertex 42
property float x
property float y
property float z
property float nx
property float ny
property float nz
element face 14
property list uint uint vertex_indices
end_header
94.7038 131.495 197.738 -0.811273 -0.358353 -0.461973
94.7112 131.284 197.888 -0.811273 -0.358353 -0.461973
94.6187 131.495 197.887 -0.811273 -0.358353 -0.461973
94.7112 131.284 197.888 0.412655 -0.519842 -0.747984
94.7038 131.495 197.738 0.412655 -0.519842 -0.747984
94.9942 131.495 197.897 0.412655 -0.519842 -0.747984
94.6355 131.952 197.843 -0.868698 -0.0159041 -0.495087
94.7038 131.495 197.738 -0.868698 -0.0159041 -0.495087
94.6187 131.495 197.887 -0.868698 -0.0159041 -0.495087
94.6245 131.988 197.921 -0.988599 0.021903 -0.14897
94.6355 131.952 197.843 -0.988599 0.021903 -0.14897
94.6187 131.495 197.887 -0.988599 0.021903 -0.14897
94.7517 131.987 197.878 0.472263 0.199083 -0.858681
94.9942 131.495 197.897 0.472263 0.199083 -0.858681
94.7038 131.495 197.738 0.472263 0.199083 -0.858681
94.6355 131.952 197.843 0.211396 0.249105 -0.945123
94.7517 131.987 197.878 0.211396 0.249105 -0.945123
94.7038 131.495 197.738 0.211396 0.249105 -0.945123
94.7517 131.987 197.878 -0.142298 0.889953 -0.433283
94.6355 131.952 197.843 -0.142298 0.889953 -0.433283
94.6245 131.988 197.921 -0.142298 0.889953 -0.433283
94.7112 131.284 197.888 -0.766626 -0.33186 0.549686
94.6918 131.495 197.989 -0.766626 -0.33186 0.549686
94.6187 131.495 197.887 -0.766626 -0.33186 0.549686
94.7112 131.284 197.888 0.266153 -0.394346 0.879576
94.9942 131.495 197.897 0.266153 -0.394346 0.879576
94.6918 131.495 197.989 0.266153 -0.394346 0.879576
94.6918 131.495 197.989 -0.231455 0.102593 0.967421
94.7236 131.951 197.948 -0.231455 0.102593 0.967421
94.6245 131.988 197.921 -0.231455 0.102593 0.967421
94.6187 131.495 197.887 -0.813235 -0.0304453 0.581138
94.6918 131.495 197.989 -0.813235 -0.0304453 0.581138
94.6245 131.988 197.921 -0.813235 -0.0304453 0.581138
94.9942 131.495 197.897 0.763772 0.396295 0.509512
94.7517 131.987 197.878 0.763772 0.396295 0.509512
94.7236 131.951 197.948 0.763772 0.396295 0.509512
94.6918 131.495 197.989 0.289398 0.0650397 0.954997
94.9942 131.495 197.897 0.289398 0.0650397 0.954997
94.7236 131.951 197.948 0.289398 0.0650397 0.954997
94.7517 131.987 197.878 0.172069 0.845585 0.50535
94.6245 131.988 197.921 0.172069 0.845585 0.50535
94.7236 131.951 197.948 0.172069 0.845585 0.50535
3 0 1 2
3 3 4 5
3 6 7 8
3 9 10 11
3 12 13 14
3 15 16 17
3 18 19 20
3 21 22 23
3 24 25 26
3 27 28 29
3 30 31 32
3 33 34 35
3 36 37 38
3 39 40 41
