ply
format ascii 1.0
element vertex 708
property float x
property float y
property float z
property float nx
property float ny
property float nz
element face 236
property list uint uint vertex_indices
end_header
53.8491 122.297 163.567 0.0326222 -0.77015 -0.637028
54.1329 122.02 163.917 0.0326222 -0.77015 -0.637028
53.4537 122.143 163.733 0.0326222 -0.77015 -0.637028
53.082 122.947 163.669 -0.187848 -0.357675 -0.914758
52.9069 122.472 163.891 -0.187848 -0.357675 -0.914758
52.6915 122.831 163.795 -0.187848 -0.357675 -0.914758
53.4537 122.143 163.733 -0.408245 -0.258128 -0.875617
52.9069 122.472 163.891 -0.408245 -0.258128 -0.875617
53.082 122.947 163.669 -0.408245 -0.258128 -0.875617
53.4537 122.143 163.733 -0.306034 -0.215026 -0.92742
53.082 122.947 163.669 -0.306034 -0.215026 -0.92742
53.8491 122.297 163.567 -0.306034 -0.215026 -0.92742
53.8491 122.297 163.567 -0.230564 -0.120005 -0.965629
53.082 122.947 163.669 -0.230564 -0.120005 -0.965629
53.8827 122.921 163.482 -0.230564 -0.120005 -0.965629
54.6219 122.854 163.604 0.411648 -0.52127 -0.747545
54.1329 122.02 163.917 0.411648 -0.52127 -0.747545
53.8491 122.297 163.567 0.411648 -0.52127 -0.747545
54.6219 122.854 163.604 0.149287 -0.142282 -0.978504
53.8491 122.297 163.567 0.149287 -0.142282 -0.978504
53.8827 122.921 163.482 0.149287 -0.142282 -0.978504
53.082 122.947 163.669 -0.407187 0.335785 -0.849381
53.496 123.776 163.799 -0.407187 0.335785 -0.849381
53.902 123.604 163.536 -0.407187 0.335785 -0.849381
53.082 122.947 163.669 -0.224991 0.0836899 -0.97076
53.902 123.604 163.536 -0.224991 0.0836899 -0.97076
53.8827 122.921 163.482 -0.224991 0.0836899 -0.97076
54.3512 123.681 163.664 0.247065 0.150215 -0.957285
55.0061 123.171 163.753 0.247065 0.150215 -0.957285
54.6219 122.854 163.604 0.247065 0.150215 -0.957285
54.3512 123.681 163.664 0.246705 0.150105 -0.957395
54.6219 122.854 163.604 0.246705 0.150105 -0.957395
53.902 123.604 163.536 0.246705 0.150105 -0.957395
53.902 123.604 163.536 0.169344 0.0735254 -0.982811
54.6219 122.854 163.604 0.169344 0.0735254 -0.982811
53.8827 122.921 163.482 0.169344 0.0735254 -0.982811
55.1577 122.815 163.808 0.356495 0.0064315 -0.934275
54.6219 122.854 163.604 0.356495 0.0064315 -0.934275
55.0061 123.171 163.753 0.356495 0.0064315 -0.934275
53.902 123.604 163.536 -0.133304 0.721876 -0.679062
53.496 123.776 163.799 -0.133304 0.721876 -0.679062
54.0386 123.98 163.908 -0.133304 0.721876 -0.679062
54.3512 123.681 163.664 0.0890126 0.684843 -0.723233
53.902 123.604 163.536 0.0890126 0.684843 -0.723233
54.0386 123.98 163.908 0.0890126 0.684843 -0.723233
54.1329 122.02 163.917 -0.368193 -0.928661 -0.0449648
54.2165 121.943 164.827 -0.368193 -0.928661 -0.0449648
53.6283 122.19 164.535 -0.368193 -0.928661 -0.0449648
53.4537 122.143 163.733 -0.203504 -0.97377 0.101776
54.1329 122.02 163.917 -0.203504 -0.97377 0.101776
53.6283 122.19 164.535 -0.203504 -0.97377 0.101776
54.1329 122.02 163.917 0.295233 -0.777569 -0.55518
55.156 122.15 164.278 0.295233 -0.777569 -0.55518
54.9085 121.814 164.618 0.295233 -0.777569 -0.55518
54.1329 122.02 163.917 -0.201599 -0.977349 -0.0643916
54.9085 121.814 164.618 -0.201599 -0.977349 -0.0643916
54.2165 121.943 164.827 -0.201599 -0.977349 -0.0643916
55.156 122.15 164.278 0.237322 -0.578952 -0.78006
55.9863 122.14 164.538 0.237322 -0.578952 -0.78006
55.8239 121.67 164.837 0.237322 -0.578952 -0.78006
54.9085 121.814 164.618 0.0501048 -0.727654 -0.684112
55.156 122.15 164.278 0.0501048 -0.727654 -0.684112
55.8239 121.67 164.837 0.0501048 -0.727654 -0.684112
55.8239 121.67 164.837 0.23892 -0.579116 -0.77945
55.9863 122.14 164.538 0.23892 -0.579116 -0.77945
56.3014 121.894 164.817 0.23892 -0.579116 -0.77945
52.4584 123.077 164.412 -0.839835 -0.532541 -0.10525
52.6915 122.831 163.795 -0.839835 -0.532541 -0.10525
52.9069 122.472 163.891 -0.839835 -0.532541 -0.10525
52.4584 123.077 164.412 -0.641195 -0.715296 0.277885
52.9069 122.472 163.891 -0.641195 -0.715296 0.277885
52.9108 122.748 164.611 -0.641195 -0.715296 0.277885
53.6283 122.19 164.535 -0.476982 -0.865153 0.154915
52.9069 122.472 163.891 -0.476982 -0.865153 0.154915
53.4537 122.143 163.733 -0.476982 -0.865153 0.154915
52.9108 122.748 164.611 -0.566626 -0.768279 0.297797
52.9069 122.472 163.891 -0.566626 -0.768279 0.297797
53.6283 122.19 164.535 -0.566626 -0.768279 0.297797
54.1329 122.02 163.917 0.344361 -0.499572 -0.794886
54.6219 122.854 163.604 0.344361 -0.499572 -0.794886
55.156 122.15 164.278 0.344361 -0.499572 -0.794886
55.1577 122.815 163.808 0.259728 -0.557606 -0.788427
55.156 122.15 164.278 0.259728 -0.557606 -0.788427
54.6219 122.854 163.604 0.259728 -0.557606 -0.788427
55.1577 122.815 163.808 0.627181 -0.450435 -0.635415
55.7906 123.004 164.299 0.627181 -0.450435 -0.635415
55.156 122.15 164.278 0.627181 -0.450435 -0.635415
55.7906 123.004 164.299 0.29129 -0.193412 -0.936879
55.9863 122.14 164.538 0.29129 -0.193412 -0.936879
55.156 122.15 164.278 0.29129 -0.193412 -0.936879
56.422 122.821 164.794 0.615204 -0.0998479 -0.78202
56.3014 121.894 164.817 0.615204 -0.0998479 -0.78202
55.9863 122.14 164.538 0.615204 -0.0998479 -0.78202
55.7906 123.004 164.299 0.599513 -0.0846115 -0.79588
56.422 122.821 164.794 0.599513 -0.0846115 -0.79588
55.9863 122.14 164.538 0.599513 -0.0846115 -0.79588
52.8899 123.625 164.251 -0.741362 0.641493 0.19715
52.4584 123.077 164.412 -0.741362 0.641493 0.19715
53.168 123.862 164.525 -0.741362 0.641493 0.19715
53.082 122.947 163.669 -0.685516 0.352162 -0.63722
52.4584 123.077 164.412 -0.685516 0.352162 -0.63722
52.8899 123.625 164.251 -0.685516 0.352162 -0.63722
53.082 122.947 163.669 -0.386602 0.797162 -0.463758
52.6915 122.831 163.795 -0.386602 0.797162 -0.463758
52.4584 123.077 164.412 -0.386602 0.797162 -0.463758
53.082 122.947 163.669 -0.608813 0.409916 -0.679203
52.8899 123.625 164.251 -0.608813 0.409916 -0.679203
53.496 123.776 163.799 -0.608813 0.409916 -0.679203
55.0061 123.171 163.753 0.479413 0.488385 -0.729139
54.3512 123.681 163.664 0.479413 0.488385 -0.729139
55.0128 123.77 164.159 0.479413 0.488385 -0.729139
55.0061 123.171 163.753 0.58441 0.124246 -0.80189
55.7906 123.004 164.299 0.58441 0.124246 -0.80189
55.1577 122.815 163.808 0.58441 0.124246 -0.80189
55.0061 123.171 163.753 0.571473 0.455734 -0.68244
55.0128 123.77 164.159 0.571473 0.455734 -0.68244
55.7906 123.004 164.299 0.571473 0.455734 -0.68244
55.0128 123.77 164.159 0.32804 0.163127 -0.930473
55.8161 123.84 164.454 0.32804 0.163127 -0.930473
55.7906 123.004 164.299 0.32804 0.163127 -0.930473
56.2091 123.683 164.682 0.625669 0.0533345 -0.778263
56.422 122.821 164.794 0.625669 0.0533345 -0.778263
55.7906 123.004 164.299 0.625669 0.0533345 -0.778263
55.8161 123.84 164.454 0.537003 0.138459 -0.83214
56.2091 123.683 164.682 0.537003 0.138459 -0.83214
55.7906 123.004 164.299 0.537003 0.138459 -0.83214
53.496 123.776 163.799 -0.433547 0.850962 -0.296482
52.8899 123.625 164.251 -0.433547 0.850962 -0.296482
53.168 123.862 164.525 -0.433547 0.850962 -0.296482
53.496 123.776 163.799 -0.296921 0.923381 -0.243322
53.168 123.862 164.525 -0.296921 0.923381 -0.243322
54.0386 123.98 163.908 -0.296921 0.923381 -0.243322
54.0386 123.98 163.908 -0.213265 0.970054 -0.116247
53.168 123.862 164.525 -0.213265 0.970054 -0.116247
54.0905 124.089 164.725 -0.213265 0.970054 -0.116247
55.0128 123.77 164.159 0.30846 0.774425 -0.552376
54.3512 123.681 163.664 0.30846 0.774425 -0.552376
54.0386 123.98 163.908 0.30846 0.774425 -0.552376
55.0128 123.77 164.159 0.308966 0.770373 -0.557733
54.0386 123.98 163.908 0.308966 0.770373 -0.557733
55.0854 124.112 164.671 0.308966 0.770373 -0.557733
55.0854 124.112 164.671 -0.0299485 0.99097 -0.1307
54.0386 123.98 163.908 -0.0299485 0.99097 -0.1307
54.0905 124.089 164.725 -0.0299485 0.99097 -0.1307
55.8161 123.84 164.454 0.135931 0.81514 -0.56309
55.0128 123.77 164.159 0.135931 0.81514 -0.56309
55.0854 124.112 164.671 0.135931 0.81514 -0.56309
55.9937 124.038 164.825 0.156757 0.83841 -0.522012
55.8161 123.84 164.454 0.156757 0.83841 -0.522012
55.0854 124.112 164.671 0.156757 0.83841 -0.522012
56.2091 123.683 164.682 0.569574 0.580267 -0.582131
55.8161 123.84 164.454 0.569574 0.580267 -0.582131
55.9937 124.038 164.825 0.569574 0.580267 -0.582131
56.3956 121.057 165.421 -0.393546 -0.377345 -0.838291
56.268 120.307 165.818 -0.393546 -0.377345 -0.838291
55.9169 120.87 165.73 -0.393546 -0.377345 -0.838291
56.3956 121.057 165.421 0.198021 -0.537324 -0.819799
57.3161 121.201 165.549 0.198021 -0.537324 -0.819799
57.2225 120.619 165.908 0.198021 -0.537324 -0.819799
56.268 120.307 165.818 0.237571 -0.486165 -0.840954
56.3956 121.057 165.421 0.237571 -0.486165 -0.840954
57.2225 120.619 165.908 0.237571 -0.486165 -0.840954
54.6304 122.056 165.769 -0.553393 -0.762642 0.334864
54.2165 121.943 164.827 -0.553393 -0.762642 0.334864
55.1192 121.618 165.58 -0.553393 -0.762642 0.334864
55.1192 121.618 165.58 -0.223954 -0.963496 -0.146693
54.2165 121.943 164.827 -0.223954 -0.963496 -0.146693
54.9085 121.814 164.618 -0.223954 -0.963496 -0.146693
55.9169 120.87 165.73 -0.131096 -0.744773 -0.654314
55.8239 121.67 164.837 -0.131096 -0.744773 -0.654314
56.3956 121.057 165.421 -0.131096 -0.744773 -0.654314
55.9169 120.87 165.73 -0.519948 -0.662116 -0.539682
55.1192 121.618 165.58 -0.519948 -0.662116 -0.539682
55.8239 121.67 164.837 -0.519948 -0.662116 -0.539682
55.1192 121.618 165.58 -0.111225 -0.978375 -0.174388
54.9085 121.814 164.618 -0.111225 -0.978375 -0.174388
55.8239 121.67 164.837 -0.111225 -0.978375 -0.174388
56.3014 121.894 164.817 0.225714 -0.55294 -0.802066
56.3956 121.057 165.421 0.225714 -0.55294 -0.802066
55.8239 121.67 164.837 0.225714 -0.55294 -0.802066
56.3014 121.894 164.817 0.49853 -0.4694 -0.728787
57.128 121.993 165.319 0.49853 -0.4694 -0.728787
56.3956 121.057 165.421 0.49853 -0.4694 -0.728787
57.128 121.993 165.319 0.170039 -0.237297 -0.95644
57.3161 121.201 165.549 0.170039 -0.237297 -0.95644
56.3956 121.057 165.421 0.170039 -0.237297 -0.95644
58.0078 121.465 165.746 0.412724 -0.525237 -0.744167
57.2225 120.619 165.908 0.412724 -0.525237 -0.744167
57.3161 121.201 165.549 0.412724 -0.525237 -0.744167
58.0078 121.465 165.746 0.365822 -0.300748 -0.880752
57.3161 121.201 165.549 0.365822 -0.300748 -0.880752
58.0375 121.94 165.596 0.365822 -0.300748 -0.880752
58.0375 121.94 165.596 0.274172 -0.207511 -0.939025
57.3161 121.201 165.549 0.274172 -0.207511 -0.939025
57.128 121.993 165.319 0.274172 -0.207511 -0.939025
58.0078 121.465 165.746 0.666636 -0.261915 -0.697852
58.0375 121.94 165.596 0.666636 -0.261915 -0.697852
58.3245 121.724 165.951 0.666636 -0.261915 -0.697852
52.4584 123.077 164.412 -0.645237 -0.613113 0.455809
52.9108 122.748 164.611 -0.645237 -0.613113 0.455809
52.8503 123.042 164.92 -0.645237 -0.613113 0.455809
52.9108 122.748 164.611 -0.567582 -0.649701 0.505707
53.3603 122.897 165.306 -0.567582 -0.649701 0.505707
52.8503 123.042 164.92 -0.567582 -0.649701 0.505707
53.6283 122.19 164.535 -0.506624 -0.715917 0.480411
53.3603 122.897 165.306 -0.506624 -0.715917 0.480411
52.9108 122.748 164.611 -0.506624 -0.715917 0.480411
53.6283 122.19 164.535 -0.53698 -0.706405 0.461133
53.9766 122.591 165.555 -0.53698 -0.706405 0.461133
53.3603 122.897 165.306 -0.53698 -0.706405 0.461133
53.6283 122.19 164.535 -0.528784 -0.712756 0.460833
54.2165 121.943 164.827 -0.528784 -0.712756 0.460833
53.9766 122.591 165.555 -0.528784 -0.712756 0.460833
54.6304 122.056 165.769 -0.658213 -0.656654 0.368185
53.9766 122.591 165.555 -0.658213 -0.656654 0.368185
54.2165 121.943 164.827 -0.658213 -0.656654 0.368185
57.128 121.993 165.319 0.638497 0.0576189 -0.767464
56.422 122.821 164.794 0.638497 0.0576189 -0.767464
57.1174 122.919 165.38 0.638497 0.0576189 -0.767464
56.3014 121.894 164.817 0.524558 -0.0896933 -0.846637
56.422 122.821 164.794 0.524558 -0.0896933 -0.846637
57.128 121.993 165.319 0.524558 -0.0896933 -0.846637
58.0375 121.94 165.596 0.293622 0.0397398 -0.955095
57.128 121.993 165.319 0.293622 0.0397398 -0.955095
57.9273 122.722 165.595 0.293622 0.0397398 -0.955095
57.9273 122.722 165.595 0.271416 0.0660356 -0.960194
57.128 121.993 165.319 0.271416 0.0660356 -0.960194
57.1174 122.919 165.38 0.271416 0.0660356 -0.960194
58.3153 122.555 165.88 0.762757 -0.0465481 -0.645008
58.3245 121.724 165.951 0.762757 -0.0465481 -0.645008
58.0375 121.94 165.596 0.762757 -0.0465481 -0.645008
57.9273 122.722 165.595 0.61384 0.0851599 -0.784824
58.3153 122.555 165.88 0.61384 0.0851599 -0.784824
58.0375 121.94 165.596 0.61384 0.0851599 -0.784824
53.168 123.862 164.525 -0.715956 0.594208 0.366501
52.4584 123.077 164.412 -0.715956 0.594208 0.366501
53.3173 123.638 165.18 -0.715956 0.594208 0.366501
53.3173 123.638 165.18 -0.739301 0.321388 0.591729
52.4584 123.077 164.412 -0.739301 0.321388 0.591729
52.8503 123.042 164.92 -0.739301 0.321388 0.591729
53.3173 123.638 165.18 -0.58085 0.102906 0.80748
52.8503 123.042 164.92 -0.58085 0.102906 0.80748
53.3603 122.897 165.306 -0.58085 0.102906 0.80748
57.1174 122.919 165.38 0.612194 0.558583 -0.559646
56.4641 123.704 165.448 0.612194 0.558583 -0.559646
57.3116 123.217 165.89 0.612194 0.558583 -0.559646
57.1174 122.919 165.38 0.518937 0.493101 -0.698252
56.422 122.821 164.794 0.518937 0.493101 -0.698252
56.4641 123.704 165.448 0.518937 0.493101 -0.698252
56.422 122.821 164.794 0.9302 0.188982 -0.314663
56.2091 123.683 164.682 0.9302 0.188982 -0.314663
56.4641 123.704 165.448 0.9302 0.188982 -0.314663
57.9273 122.722 165.595 0.334367 0.752651 -0.567199
57.1174 122.919 165.38 0.334367 0.752651 -0.567199
57.3116 123.217 165.89 0.334367 0.752651 -0.567199
58.1467 122.931 165.931 0.278959 0.722614 -0.632464
57.9273 122.722 165.595 0.278959 0.722614 -0.632464
57.3116 123.217 165.89 0.278959 0.722614 -0.632464
58.3153 122.555 165.88 0.648305 0.379464 -0.660082
57.9273 122.722 165.595 0.648305 0.379464 -0.660082
58.1467 122.931 165.931 0.648305 0.379464 -0.660082
53.3173 123.638 165.18 -0.538038 0.752348 0.380116
53.9774 124.0 165.397 -0.538038 0.752348 0.380116
53.168 123.862 164.525 -0.538038 0.752348 0.380116
53.168 123.862 164.525 -0.255121 0.963233 0.0842402
53.9774 124.0 165.397 -0.255121 0.963233 0.0842402
54.0905 124.089 164.725 -0.255121 0.963233 0.0842402
55.0854 124.112 164.671 -0.0243778 0.999396 -0.0247617
54.0905 124.089 164.725 -0.0243778 0.999396 -0.0247617
54.9885 124.133 165.602 -0.0243778 0.999396 -0.0247617
54.0905 124.089 164.725 -0.149857 0.98316 0.10459
53.9774 124.0 165.397 -0.149857 0.98316 0.10459
54.9885 124.133 165.602 -0.149857 0.98316 0.10459
55.9937 124.038 164.825 0.0940849 0.992445 -0.078742
55.0854 124.112 164.671 0.0940849 0.992445 -0.078742
55.9198 124.108 165.615 0.0940849 0.992445 -0.078742
55.0854 124.112 164.671 0.0270267 0.999446 -0.0194138
54.9885 124.133 165.602 0.0270267 0.999446 -0.0194138
55.9198 124.108 165.615 0.0270267 0.999446 -0.0194138
56.4641 123.704 165.448 0.770158 0.576837 -0.272242
56.2091 123.683 164.682 0.770158 0.576837 -0.272242
55.9937 124.038 164.825 0.770158 0.576837 -0.272242
55.9198 124.108 165.615 0.592401 0.805492 -0.0155981
56.4641 123.704 165.448 0.592401 0.805492 -0.0155981
55.9937 124.038 164.825 0.592401 0.805492 -0.0155981
56.4586 119.946 166.23 -0.477964 -0.843029 -0.246684
56.3604 119.804 166.907 -0.477964 -0.843029 -0.246684
56.0705 120.082 166.517 -0.477964 -0.843029 -0.246684
56.4586 119.946 166.23 0.132928 -0.900789 -0.413412
57.0926 119.954 166.416 0.132928 -0.900789 -0.413412
57.1202 119.785 166.793 0.132928 -0.900789 -0.413412
56.3604 119.804 166.907 -0.0554961 -0.975413 -0.213281
56.4586 119.946 166.23 -0.0554961 -0.975413 -0.213281
57.1202 119.785 166.793 -0.0554961 -0.975413 -0.213281
57.1202 119.785 166.793 0.381135 -0.832952 -0.401157
57.0926 119.954 166.416 0.381135 -0.832952 -0.401157
57.4647 120.015 166.643 0.381135 -0.832952 -0.401157
56.268 120.307 165.818 -0.549177 -0.737623 -0.392832
56.4586 119.946 166.23 -0.549177 -0.737623 -0.392832
56.0705 120.082 166.517 -0.549177 -0.737623 -0.392832
56.268 120.307 165.818 -0.754731 -0.531532 -0.384518
56.0705 120.082 166.517 -0.754731 -0.531532 -0.384518
55.9169 120.87 165.73 -0.754731 -0.531532 -0.384518
55.9169 120.87 165.73 -0.904428 -0.376637 -0.200385
56.0705 120.082 166.517 -0.904428 -0.376637 -0.200385
55.7221 120.849 166.648 -0.904428 -0.376637 -0.200385
57.2225 120.619 165.908 0.27947 -0.654067 -0.702917
56.4586 119.946 166.23 0.27947 -0.654067 -0.702917
56.268 120.307 165.818 0.27947 -0.654067 -0.702917
57.0926 119.954 166.416 0.228019 -0.61898 -0.751579
56.4586 119.946 166.23 0.228019 -0.61898 -0.751579
57.2225 120.619 165.908 0.228019 -0.61898 -0.751579
57.2225 120.619 165.908 0.492431 -0.600799 -0.629724
58.1403 120.989 166.273 0.492431 -0.600799 -0.629724
58.0316 120.523 166.632 0.492431 -0.600799 -0.629724
57.2225 120.619 165.908 0.505125 -0.578006 -0.640904
58.0316 120.523 166.632 0.505125 -0.578006 -0.640904
57.4647 120.015 166.643 0.505125 -0.578006 -0.640904
57.2225 120.619 165.908 0.489703 -0.587854 -0.643909
57.4647 120.015 166.643 0.489703 -0.587854 -0.643909
57.0926 119.954 166.416 0.489703 -0.587854 -0.643909
58.0316 120.523 166.632 0.738871 -0.511244 -0.438975
58.1403 120.989 166.273 0.738871 -0.511244 -0.438975
58.3741 120.854 166.824 0.738871 -0.511244 -0.438975
54.6304 122.056 165.769 -0.655058 -0.753821 0.0515086
55.1192 121.618 165.58 -0.655058 -0.753821 0.0515086
55.033 121.773 166.754 -0.655058 -0.753821 0.0515086
55.7221 120.849 166.648 -0.660012 -0.734775 -0.156492
55.1192 121.618 165.58 -0.660012 -0.734775 -0.156492
55.9169 120.87 165.73 -0.660012 -0.734775 -0.156492
55.033 121.773 166.754 -0.800341 -0.599197 0.0204014
55.1192 121.618 165.58 -0.800341 -0.599197 0.0204014
55.7221 120.849 166.648 -0.800341 -0.599197 0.0204014
57.2225 120.619 165.908 0.491874 -0.580462 -0.64894
58.0078 121.465 165.746 0.491874 -0.580462 -0.64894
58.1403 120.989 166.273 0.491874 -0.580462 -0.64894
58.1403 120.989 166.273 0.710643 -0.423402 -0.561887
58.0078 121.465 165.746 0.710643 -0.423402 -0.561887
58.3245 121.724 165.951 0.710643 -0.423402 -0.561887
58.1403 120.989 166.273 0.807334 -0.394037 -0.439257
58.3245 121.724 165.951 0.807334 -0.394037 -0.439257
58.3741 120.854 166.824 0.807334 -0.394037 -0.439257
58.3741 120.854 166.824 0.975431 -0.125708 -0.180919
58.3245 121.724 165.951 0.975431 -0.125708 -0.180919
58.4794 121.837 166.708 0.975431 -0.125708 -0.180919
53.9766 122.591 165.555 -0.537271 -0.596874 0.595887
53.9151 123.071 165.981 -0.537271 -0.596874 0.595887
53.3603 122.897 165.306 -0.537271 -0.596874 0.595887
53.9766 122.591 165.555 -0.772028 -0.474071 0.423356
54.4803 122.705 166.602 -0.772028 -0.474071 0.423356
53.9151 123.071 165.981 -0.772028 -0.474071 0.423356
53.9766 122.591 165.555 -0.656718 -0.647398 0.386779
54.6304 122.056 165.769 -0.656718 -0.647398 0.386779
54.4803 122.705 166.602 -0.656718 -0.647398 0.386779
54.6304 122.056 165.769 -0.855166 -0.472036 0.214179
55.033 121.773 166.754 -0.855166 -0.472036 0.214179
54.4803 122.705 166.602 -0.855166 -0.472036 0.214179
58.3245 121.724 165.951 0.97985 -0.00615349 -0.19964
58.3153 122.555 165.88 0.97985 -0.00615349 -0.19964
58.4794 121.837 166.708 0.97985 -0.00615349 -0.19964
58.4794 121.837 166.708 0.988791 0.0827735 -0.124265
58.3153 122.555 165.88 0.988791 0.0827735 -0.124265
58.4087 122.677 166.704 0.988791 0.0827735 -0.124265
53.3603 122.897 165.306 -0.778696 0.0604528 0.624483
53.9151 123.071 165.981 -0.778696 0.0604528 0.624483
53.3173 123.638 165.18 -0.778696 0.0604528 0.624483
54.7499 123.559 166.708 -0.693642 0.131229 0.708265
53.9151 123.071 165.981 -0.693642 0.131229 0.708265
54.4803 122.705 166.602 -0.693642 0.131229 0.708265
53.3173 123.638 165.18 -0.708408 0.206049 0.675057
53.9151 123.071 165.981 -0.708408 0.206049 0.675057
54.7499 123.559 166.708 -0.708408 0.206049 0.675057
57.3116 123.217 165.89 0.553089 0.832674 -0.0273321
56.4484 123.809 166.454 0.553089 0.832674 -0.0273321
57.2198 123.311 166.887 0.553089 0.832674 -0.0273321
56.4641 123.704 165.448 0.527514 0.845753 -0.0801876
56.4484 123.809 166.454 0.527514 0.845753 -0.0801876
57.3116 123.217 165.89 0.527514 0.845753 -0.0801876
58.1467 122.931 165.931 0.327255 0.939485 -0.101355
57.3116 123.217 165.89 0.327255 0.939485 -0.101355
58.0688 123.044 166.724 0.327255 0.939485 -0.101355
57.3116 123.217 165.89 0.288829 0.955293 -0.0631959
57.2198 123.311 166.887 0.288829 0.955293 -0.0631959
58.0688 123.044 166.724 0.288829 0.955293 -0.0631959
58.4087 122.677 166.704 0.891618 0.422292 -0.163362
58.3153 122.555 165.88 0.891618 0.422292 -0.163362
58.1467 122.931 165.931 0.891618 0.422292 -0.163362
58.0688 123.044 166.724 0.732511 0.680304 -0.0247838
58.4087 122.677 166.704 0.732511 0.680304 -0.0247838
58.1467 122.931 165.931 0.732511 0.680304 -0.0247838
53.3173 123.638 165.18 -0.56442 0.605839 0.560704
54.7499 123.559 166.708 -0.56442 0.605839 0.560704
54.9074 123.977 166.415 -0.56442 0.605839 0.560704
53.3173 123.638 165.18 -0.536896 0.674853 0.506278
54.9074 123.977 166.415 -0.536896 0.674853 0.506278
53.9774 124.0 165.397 -0.536896 0.674853 0.506278
53.9774 124.0 165.397 -0.161665 0.97207 0.170133
54.9074 123.977 166.415 -0.161665 0.97207 0.170133
54.9885 124.133 165.602 -0.161665 0.97207 0.170133
55.9198 124.108 165.615 0.0259518 0.998104 0.0558084
54.9885 124.133 165.602 0.0259518 0.998104 0.0558084
55.8816 124.054 166.596 0.0259518 0.998104 0.0558084
54.9885 124.133 165.602 -0.11009 0.978135 0.176444
54.9074 123.977 166.415 -0.11009 0.978135 0.176444
55.8816 124.054 166.596 -0.11009 0.978135 0.176444
56.4484 123.809 166.454 0.57879 0.811942 -0.0758476
56.4641 123.704 165.448 0.57879 0.811942 -0.0758476
55.9198 124.108 165.615 0.57879 0.811942 -0.0758476
55.8816 124.054 166.596 0.409157 0.910082 0.0658901
56.4484 123.809 166.454 0.409157 0.910082 0.0658901
55.9198 124.108 165.615 0.409157 0.910082 0.0658901
56.3604 119.804 166.907 -0.600327 -0.797872 0.0548404
56.3863 119.835 167.652 -0.600327 -0.797872 0.0548404
56.0686 120.057 167.408 -0.600327 -0.797872 0.0548404
56.0705 120.082 166.517 -0.677216 -0.735465 -0.0216663
56.3604 119.804 166.907 -0.677216 -0.735465 -0.0216663
56.0686 120.057 167.408 -0.677216 -0.735465 -0.0216663
57.1202 119.785 166.793 -0.0232826 -0.999716 0.0051328
57.1702 119.788 167.582 -0.0232826 -0.999716 0.0051328
56.3604 119.804 166.907 -0.0232826 -0.999716 0.0051328
56.3604 119.804 166.907 -0.0559859 -0.997442 0.0444515
57.1702 119.788 167.582 -0.0559859 -0.997442 0.0444515
56.3863 119.835 167.652 -0.0559859 -0.997442 0.0444515
57.4647 120.015 166.643 0.417498 -0.844531 -0.335355
57.9913 119.983 167.381 0.417498 -0.844531 -0.335355
57.1202 119.785 166.793 0.417498 -0.844531 -0.335355
57.1202 119.785 166.793 0.227838 -0.973638 -0.0108863
57.9913 119.983 167.381 0.227838 -0.973638 -0.0108863
57.1702 119.788 167.582 0.227838 -0.973638 -0.0108863
56.0705 120.082 166.517 -0.911277 -0.411581 -0.0132266
56.0686 120.057 167.408 -0.911277 -0.411581 -0.0132266
55.7221 120.849 166.648 -0.911277 -0.411581 -0.0132266
56.0686 120.057 167.408 -0.94679 -0.298176 0.121156
55.8312 120.952 167.755 -0.94679 -0.298176 0.121156
55.7221 120.849 166.648 -0.94679 -0.298176 0.121156
57.4647 120.015 166.643 0.590615 -0.669027 -0.451195
58.0316 120.523 166.632 0.590615 -0.669027 -0.451195
57.9913 119.983 167.381 0.590615 -0.669027 -0.451195
57.9913 119.983 167.381 0.744065 -0.560049 -0.364297
58.0316 120.523 166.632 0.744065 -0.560049 -0.364297
58.3741 120.854 166.824 0.744065 -0.560049 -0.364297
57.9913 119.983 167.381 0.815262 -0.520566 -0.253691
58.3741 120.854 166.824 0.815262 -0.520566 -0.253691
58.2929 120.244 167.813 0.815262 -0.520566 -0.253691
58.2929 120.244 167.813 0.971576 -0.228693 -0.0611454
58.3741 120.854 166.824 0.971576 -0.228693 -0.0611454
58.4601 121.017 167.58 0.971576 -0.228693 -0.0611454
55.033 121.773 166.754 -0.833686 -0.531098 0.151338
55.2161 121.764 167.73 -0.833686 -0.531098 0.151338
54.9493 122.114 167.487 -0.833686 -0.531098 0.151338
55.8312 120.952 167.755 -0.787006 -0.602265 0.133787
55.033 121.773 166.754 -0.787006 -0.602265 0.133787
55.7221 120.849 166.648 -0.787006 -0.602265 0.133787
55.2161 121.764 167.73 -0.790839 -0.595163 0.142668
55.033 121.773 166.754 -0.790839 -0.595163 0.142668
55.8312 120.952 167.755 -0.790839 -0.595163 0.142668
58.3741 120.854 166.824 0.989371 -0.116214 -0.0874089
58.4794 121.837 166.708 0.989371 -0.116214 -0.0874089
58.4601 121.017 167.58 0.989371 -0.116214 -0.0874089
58.4601 121.017 167.58 0.999829 -0.0176515 0.00559245
58.4794 121.837 166.708 0.999829 -0.0176515 0.00559245
58.4748 121.879 167.666 0.999829 -0.0176515 0.00559245
55.033 121.773 166.754 -0.8621 -0.490034 0.129038
54.9493 122.114 167.487 -0.8621 -0.490034 0.129038
54.4803 122.705 166.602 -0.8621 -0.490034 0.129038
54.9493 122.114 167.487 -0.864814 0.0604941 0.498435
55.0336 122.792 167.552 -0.864814 0.0604941 0.498435
54.4803 122.705 166.602 -0.864814 0.0604941 0.498435
58.4794 121.837 166.708 0.996465 0.0839995 0.00118053
58.4087 122.677 166.704 0.996465 0.0839995 0.00118053
58.4748 121.879 167.666 0.996465 0.0839995 0.00118053
58.4748 121.879 167.666 0.987371 0.14846 0.0552963
58.4087 122.677 166.704 0.987371 0.14846 0.0552963
58.3503 122.708 167.663 0.987371 0.14846 0.0552963
55.92 123.06 168.141 -0.634375 0.404698 0.658625
55.3339 123.802 167.121 -0.634375 0.404698 0.658625
54.7499 123.559 166.708 -0.634375 0.404698 0.658625
55.92 123.06 168.141 -0.580094 0.496039 0.646093
54.7499 123.559 166.708 -0.580094 0.496039 0.646093
55.0336 122.792 167.552 -0.580094 0.496039 0.646093
55.0336 122.792 167.552 -0.852893 0.210167 0.477915
54.7499 123.559 166.708 -0.852893 0.210167 0.477915
54.4803 122.705 166.602 -0.852893 0.210167 0.477915
55.92 123.06 168.141 -0.564315 0.479 0.672389
55.9468 123.771 167.658 -0.564315 0.479 0.672389
55.3339 123.802 167.121 -0.564315 0.479 0.672389
57.2198 123.311 166.887 0.469498 0.876322 0.107848
56.3566 123.692 167.551 0.469498 0.876322 0.107848
57.1834 123.232 167.69 0.469498 0.876322 0.107848
56.4484 123.809 166.454 0.483898 0.864948 0.133074
56.3566 123.692 167.551 0.483898 0.864948 0.133074
57.2198 123.311 166.887 0.483898 0.864948 0.133074
58.0688 123.044 166.724 0.310534 0.9486 0.0610465
57.2198 123.311 166.887 0.310534 0.9486 0.0610465
57.927 123.024 167.756 0.310534 0.9486 0.0610465
57.2198 123.311 166.887 0.259189 0.95993 0.106559
57.1834 123.232 167.69 0.259189 0.95993 0.106559
57.927 123.024 167.756 0.259189 0.95993 0.106559
58.3503 122.708 167.663 0.733829 0.678956 0.0226571
58.4087 122.677 166.704 0.733829 0.678956 0.0226571
58.0688 123.044 166.724 0.733829 0.678956 0.0226571
57.927 123.024 167.756 0.608628 0.787268 0.0989023
58.3503 122.708 167.663 0.608628 0.787268 0.0989023
58.0688 123.044 166.724 0.608628 0.787268 0.0989023
54.7499 123.559 166.708 -0.614279 0.594925 0.518388
55.3339 123.802 167.121 -0.614279 0.594925 0.518388
54.9074 123.977 166.415 -0.614279 0.594925 0.518388
55.3339 123.802 167.121 -0.426965 0.732613 0.530074
55.9468 123.771 167.658 -0.426965 0.732613 0.530074
55.8365 123.952 167.319 -0.426965 0.732613 0.530074
55.3339 123.802 167.121 -0.412381 0.794378 0.445988
55.8365 123.952 167.319 -0.412381 0.794378 0.445988
54.9074 123.977 166.415 -0.412381 0.794378 0.445988
54.9074 123.977 166.415 -0.1026 0.985803 0.132913
55.8365 123.952 167.319 -0.1026 0.985803 0.132913
55.8816 124.054 166.596 -0.1026 0.985803 0.132913
56.3566 123.692 167.551 0.42026 0.897857 0.131277
56.4484 123.809 166.454 0.42026 0.897857 0.131277
55.8816 124.054 166.596 0.42026 0.897857 0.131277
55.8365 123.952 167.319 0.386321 0.90965 0.15262
56.3566 123.692 167.551 0.386321 0.90965 0.15262
55.8816 124.054 166.596 0.386321 0.90965 0.15262
56.3863 119.835 167.652 -0.677953 -0.689676 0.254415
56.23 120.088 167.92 -0.677953 -0.689676 0.254415
56.0686 120.057 167.408 -0.677953 -0.689676 0.254415
56.3863 119.835 167.652 -0.0257449 -0.938709 0.343748
57.1702 119.788 167.582 -0.0257449 -0.938709 0.343748
56.9918 120.001 168.149 -0.0257449 -0.938709 0.343748
56.23 120.088 167.92 -0.261781 -0.773977 0.576568
56.3863 119.835 167.652 -0.261781 -0.773977 0.576568
56.9918 120.001 168.149 -0.261781 -0.773977 0.576568
57.1702 119.788 167.582 0.241748 -0.969025 0.0504725
57.9913 119.983 167.381 0.241748 -0.969025 0.0504725
57.9102 119.999 168.09 0.241748 -0.969025 0.0504725
56.9918 120.001 168.149 0.021327 -0.933947 0.356774
57.1702 119.788 167.582 0.021327 -0.933947 0.356774
57.9102 119.999 168.09 0.021327 -0.933947 0.356774
57.9913 119.983 167.381 0.580163 -0.810004 0.0854672
58.2929 120.244 167.813 0.580163 -0.810004 0.0854672
57.9102 119.999 168.09 0.580163 -0.810004 0.0854672
56.23 120.088 167.92 -0.792724 -0.260621 0.551058
56.3618 120.647 168.373 -0.792724 -0.260621 0.551058
55.8312 120.952 167.755 -0.792724 -0.260621 0.551058
56.0686 120.057 167.408 -0.88664 -0.351695 0.300299
56.23 120.088 167.92 -0.88664 -0.351695 0.300299
55.8312 120.952 167.755 -0.88664 -0.351695 0.300299
57.2642 120.597 168.666 -0.284686 -0.550783 0.784597
56.3618 120.647 168.373 -0.284686 -0.550783 0.784597
56.9918 120.001 168.149 -0.284686 -0.550783 0.784597
56.3618 120.647 168.373 -0.296684 -0.558912 0.774335
56.23 120.088 167.92 -0.296684 -0.558912 0.774335
56.9918 120.001 168.149 -0.296684 -0.558912 0.774335
57.9102 119.999 168.09 0.0464021 -0.666721 0.743862
57.2642 120.597 168.666 0.0464021 -0.666721 0.743862
56.9918 120.001 168.149 0.0464021 -0.666721 0.743862
58.1167 120.493 168.587 -0.0194838 -0.704645 0.709292
57.2642 120.597 168.666 -0.0194838 -0.704645 0.709292
57.9102 119.999 168.09 -0.0194838 -0.704645 0.709292
58.1167 120.493 168.587 0.673776 -0.644583 0.3613
57.9102 119.999 168.09 0.673776 -0.644583 0.3613
58.2929 120.244 167.813 0.673776 -0.644583 0.3613
58.1167 120.493 168.587 0.915741 -0.27145 0.296199
58.2929 120.244 167.813 0.915741 -0.27145 0.296199
58.3065 121.034 168.495 0.915741 -0.27145 0.296199
58.3065 121.034 168.495 0.972951 -0.160304 0.166342
58.2929 120.244 167.813 0.972951 -0.160304 0.166342
58.4601 121.017 167.58 0.972951 -0.160304 0.166342
55.2161 121.764 167.73 -0.818324 -0.274726 0.504848
55.3018 122.155 168.081 -0.818324 -0.274726 0.504848
54.9493 122.114 167.487 -0.818324 -0.274726 0.504848
55.2161 121.764 167.73 -0.744051 -0.349238 0.56958
55.7727 121.784 168.469 -0.744051 -0.349238 0.56958
55.3018 122.155 168.081 -0.744051 -0.349238 0.56958
55.8312 120.952 167.755 -0.684203 -0.502318 0.528717
55.7727 121.784 168.469 -0.684203 -0.502318 0.528717
55.2161 121.764 167.73 -0.684203 -0.502318 0.528717
55.8312 120.952 167.755 -0.666713 -0.512094 0.54153
56.3142 121.249 168.63 -0.666713 -0.512094 0.54153
55.7727 121.784 168.469 -0.666713 -0.512094 0.54153
55.8312 120.952 167.755 -0.79256 -0.290694 0.536046
56.3618 120.647 168.373 -0.79256 -0.290694 0.536046
56.3142 121.249 168.63 -0.79256 -0.290694 0.536046
57.2642 120.597 168.666 -0.303025 -0.393201 0.868084
56.3142 121.249 168.63 -0.303025 -0.393201 0.868084
56.3618 120.647 168.373 -0.303025 -0.393201 0.868084
58.4601 121.017 167.58 0.985551 -0.0334182 0.16605
58.4748 121.879 167.666 0.985551 -0.0334182 0.16605
58.3065 121.034 168.495 0.985551 -0.0334182 0.16605
58.3065 121.034 168.495 0.980036 -0.000159402 0.198818
58.4748 121.879 167.666 0.980036 -0.000159402 0.198818
58.3097 122.022 168.48 0.980036 -0.000159402 0.198818
55.3018 122.155 168.081 -0.590004 0.354798 0.725268
55.92 123.06 168.141 -0.590004 0.354798 0.725268
55.0336 122.792 167.552 -0.590004 0.354798 0.725268
54.9493 122.114 167.487 -0.860156 0.0591431 0.50659
55.3018 122.155 168.081 -0.860156 0.0591431 0.50659
55.0336 122.792 167.552 -0.860156 0.0591431 0.50659
56.0215 122.382 168.607 -0.601996 0.0675542 0.795636
55.3018 122.155 168.081 -0.601996 0.0675542 0.795636
55.7727 121.784 168.469 -0.601996 0.0675542 0.795636
56.0215 122.382 168.607 -0.620605 0.378237 0.686866
55.92 123.06 168.141 -0.620605 0.378237 0.686866
55.3018 122.155 168.081 -0.620605 0.378237 0.686866
56.0215 122.382 168.607 -0.385566 0.481977 0.786789
56.6042 122.723 168.683 -0.385566 0.481977 0.786789
55.92 123.06 168.141 -0.385566 0.481977 0.786789
58.1853 122.729 168.364 0.400779 0.584413 0.705576
57.6902 122.838 168.555 0.400779 0.584413 0.705576
58.0561 122.427 168.688 0.400779 0.584413 0.705576
58.1853 122.729 168.364 0.809948 0.231035 0.53908
58.0561 122.427 168.688 0.809948 0.231035 0.53908
58.3097 122.022 168.48 0.809948 0.231035 0.53908
58.1853 122.729 168.364 0.954326 0.203853 0.218419
58.3097 122.022 168.48 0.954326 0.203853 0.218419
58.3503 122.708 167.663 0.954326 0.203853 0.218419
58.3503 122.708 167.663 0.974142 0.146923 0.17164
58.3097 122.022 168.48 0.974142 0.146923 0.17164
58.4748 121.879 167.666 0.974142 0.146923 0.17164
56.3566 123.692 167.551 0.42049 0.850701 0.31543
57.0801 123.015 168.412 0.42049 0.850701 0.31543
57.1834 123.232 167.69 0.42049 0.850701 0.31543
56.3566 123.692 167.551 -0.129999 0.72331 0.678176
55.92 123.06 168.141 -0.129999 0.72331 0.678176
57.0801 123.015 168.412 -0.129999 0.72331 0.678176
56.3566 123.692 167.551 0.307153 0.527543 0.792058
55.9468 123.771 167.658 0.307153 0.527543 0.792058
55.92 123.06 168.141 0.307153 0.527543 0.792058
56.6042 122.723 168.683 -0.115968 0.771234 0.625899
57.0801 123.015 168.412 -0.115968 0.771234 0.625899
55.92 123.06 168.141 -0.115968 0.771234 0.625899
57.6902 122.838 168.555 0.314372 0.900007 0.301922
58.1853 122.729 168.364 0.314372 0.900007 0.301922
57.927 123.024 167.756 0.314372 0.900007 0.301922
57.6902 122.838 168.555 0.206286 0.937961 0.278703
57.927 123.024 167.756 0.206286 0.937961 0.278703
57.0801 123.015 168.412 0.206286 0.937961 0.278703
57.0801 123.015 168.412 0.230506 0.922439 0.309794
57.927 123.024 167.756 0.230506 0.922439 0.309794
57.1834 123.232 167.69 0.230506 0.922439 0.309794
58.3503 122.708 167.663 0.610163 0.78318 0.119708
57.927 123.024 167.756 0.610163 0.78318 0.119708
58.1853 122.729 168.364 0.610163 0.78318 0.119708
56.3566 123.692 167.551 0.269638 0.883137 0.383882
55.8365 123.952 167.319 0.269638 0.883137 0.383882
55.9468 123.771 167.658 0.269638 0.883137 0.383882
57.2642 120.597 168.666 -0.029138 -0.748485 0.662511
58.1167 120.493 168.587 -0.029138 -0.748485 0.662511
57.9908 120.925 169.069 -0.029138 -0.748485 0.662511
57.2004 121.189 168.941 -0.281943 -0.429425 0.857964
57.2642 120.597 168.666 -0.281943 -0.429425 0.857964
57.9908 120.925 169.069 -0.281943 -0.429425 0.857964
58.1167 120.493 168.587 0.870204 -0.232025 0.434637
58.3065 121.034 168.495 0.870204 -0.232025 0.434637
57.9908 120.925 169.069 0.870204 -0.232025 0.434637
56.3142 121.249 168.63 -0.461382 -0.208065 0.862459
56.4281 121.95 168.86 -0.461382 -0.208065 0.862459
55.7727 121.784 168.469 -0.461382 -0.208065 0.862459
56.3142 121.249 168.63 -0.325532 -0.427362 0.84344
57.2642 120.597 168.666 -0.325532 -0.427362 0.84344
57.2004 121.189 168.941 -0.325532 -0.427362 0.84344
56.3142 121.249 168.63 -0.336374 -0.243835 0.909613
57.2004 121.189 168.941 -0.336374 -0.243835 0.909613
56.4281 121.95 168.86 -0.336374 -0.243835 0.909613
56.4281 121.95 168.86 -0.189793 -0.0877857 0.977892
57.2004 121.189 168.941 -0.189793 -0.0877857 0.977892
57.2102 121.874 169.005 -0.189793 -0.0877857 0.977892
57.9908 120.925 169.069 -0.0663745 0.267796 0.961187
57.9797 121.764 168.835 -0.0663745 0.267796 0.961187
57.2004 121.189 168.941 -0.0663745 0.267796 0.961187
57.9797 121.764 168.835 0.202077 -0.0930646 0.974938
57.2102 121.874 169.005 0.202077 -0.0930646 0.974938
57.2004 121.189 168.941 0.202077 -0.0930646 0.974938
58.3065 121.034 168.495 0.729109 0.00814479 0.684349
58.3097 122.022 168.48 0.729109 0.00814479 0.684349
57.9797 121.764 168.835 0.729109 0.00814479 0.684349
57.9908 120.925 169.069 0.853964 0.150581 0.498067
58.3065 121.034 168.495 0.853964 0.150581 0.498067
57.9797 121.764 168.835 0.853964 0.150581 0.498067
55.7727 121.784 168.469 -0.515162 0.0173069 0.856918
56.4281 121.95 168.86 -0.515162 0.0173069 0.856918
56.0215 122.382 168.607 -0.515162 0.0173069 0.856918
56.6042 122.723 168.683 -0.281167 0.274366 0.919602
56.0215 122.382 168.607 -0.281167 0.274366 0.919602
56.4281 121.95 168.86 -0.281167 0.274366 0.919602
56.6042 122.723 168.683 -0.0825571 0.24004 0.967246
56.4281 121.95 168.86 -0.0825571 0.24004 0.967246
57.2708 122.58 168.775 -0.0825571 0.24004 0.967246
57.2708 122.58 168.775 -0.143222 0.317215 0.937476
56.4281 121.95 168.86 -0.143222 0.317215 0.937476
57.2102 121.874 169.005 -0.143222 0.317215 0.937476
58.0561 122.427 168.688 0.184517 0.446615 0.875493
57.6902 122.838 168.555 0.184517 0.446615 0.875493
57.2708 122.58 168.775 0.184517 0.446615 0.875493
58.0561 122.427 168.688 0.14676 0.198156 0.969121
57.2708 122.58 168.775 0.14676 0.198156 0.969121
57.9797 121.764 168.835 0.14676 0.198156 0.969121
57.9797 121.764 168.835 0.24518 0.280704 0.92795
57.2708 122.58 168.775 0.24518 0.280704 0.92795
57.2102 121.874 169.005 0.24518 0.280704 0.92795
58.3097 122.022 168.48 0.701621 0.0763856 0.708444
58.0561 122.427 168.688 0.701621 0.0763856 0.708444
57.9797 121.764 168.835 0.701621 0.0763856 0.708444
56.6042 122.723 168.683 0.0345247 0.649751 0.759363
57.2708 122.58 168.775 0.0345247 0.649751 0.759363
57.0801 123.015 168.412 0.0345247 0.649751 0.759363
57.6902 122.838 168.555 0.00611971 0.642835 0.76598
57.0801 123.015 168.412 0.00611971 0.642835 0.76598
57.2708 122.58 168.775 0.00611971 0.642835 0.76598
3 0 1 2
3 3 4 5
3 6 7 8
3 9 10 11
3 12 13 14
3 15 16 17
3 18 19 20
3 21 22 23
3 24 25 26
3 27 28 29
3 30 31 32
3 33 34 35
3 36 37 38
3 39 40 41
3 42 43 44
3 45 46 47
3 48 49 50
3 51 52 53
3 54 55 56
3 57 58 59
3 60 61 62
3 63 64 65
3 66 67 68
3 69 70 71
3 72 73 74
3 75 76 77
3 78 79 80
3 81 82 83
3 84 85 86
3 87 88 89
3 90 91 92
3 93 94 95
3 96 97 98
3 99 100 101
3 102 103 104
3 105 106 107
3 108 109 110
3 111 112 113
3 114 115 116
3 117 118 119
3 120 121 122
3 123 124 125
3 126 127 128
3 129 130 131
3 132 133 134
3 135 136 137
3 138 139 140
3 141 142 143
3 144 145 146
3 147 148 149
3 150 151 152
3 153 154 155
3 156 157 158
3 159 160 161
3 162 163 164
3 165 166 167
3 168 169 170
3 171 172 173
3 174 175 176
3 177 178 179
3 180 181 182
3 183 184 185
3 186 187 188
3 189 190 191
3 192 193 194
3 195 196 197
3 198 199 200
3 201 202 203
3 204 205 206
3 207 208 209
3 210 211 212
3 213 214 215
3 216 217 218
3 219 220 221
3 222 223 224
3 225 226 227
3 228 229 230
3 231 232 233
3 234 235 236
3 237 238 239
3 240 241 242
3 243 244 245
3 246 247 248
3 249 250 251
3 252 253 254
3 255 256 257
3 258 259 260
3 261 262 263
3 264 265 266
3 267 268 269
3 270 271 272
3 273 274 275
3 276 277 278
3 279 280 281
3 282 283 284
3 285 286 287
3 288 289 290
3 291 292 293
3 294 295 296
3 297 298 299
3 300 301 302
3 303 304 305
3 306 307 308
3 309 310 311
3 312 313 314
3 315 316 317
3 318 319 320
3 321 322 323
3 324 325 326
3 327 328 329
3 330 331 332
3 333 334 335
3 336 337 338
3 339 340 341
3 342 343 344
3 345 346 347
3 348 349 350
3 351 352 353
3 354 355 356
3 357 358 359
3 360 361 362
3 363 364 365
3 366 367 368
3 369 370 371
3 372 373 374
3 375 376 377
3 378 379 380
3 381 382 383
3 384 385 386
3 387 388 389
3 390 391 392
3 393 394 395
3 396 397 398
3 399 400 401
3 402 403 404
3 405 406 407
3 408 409 410
3 411 412 413
3 414 415 416
3 417 418 419
3 420 421 422
3 423 424 425
3 426 427 428
3 429 430 431
3 432 433 434
3 435 436 437
3 438 439 440
3 441 442 443
3 444 445 446
3 447 448 449
3 450 451 452
3 453 454 455
3 456 457 458
3 459 460 461
3 462 463 464
3 465 466 467
3 468 469 470
3 471 472 473
3 474 475 476
3 477 478 479
3 480 481 482
3 483 484 485
3 486 487 488
3 489 490 491
3 492 493 494
3 495 496 497
3 498 499 500
3 501 502 503
3 504 505 506
3 507 508 509
3 510 511 512
3 513 514 515
3 516 517 518
3 519 520 521
3 522 523 524
3 525 526 527
3 528 529 530
3 531 532 533
3 534 535 536
3 537 538 539
3 540 541 542
3 543 544 545
3 546 547 548
3 549 550 551
3 552 553 554
3 555 556 557
3 558 559 560
3 561 562 563
3 564 565 566
3 567 568 569
3 570 571 572
3 573 574 575
3 576 577 578
3 579 580 581
3 582 583 584
3 585 586 587
3 588 589 590
3 591 592 593
3 594 595 596
3 597 598 599
3 600 601 602
3 603 604 605
3 606 607 608
3 609 610 611
3 612 613 614
3 615 616 617
3 618 619 620
3 621 622 623
3 624 625 626
3 627 628 629
3 630 631 632
3 633 634 635
3 636 637 638
3 639 640 641
3 642 643 644
3 645 646 647
3 648 649 650
3 651 652 653
3 654 655 656
3 657 658 659
3 660 661 662
3 663 664 665
3 666 667 668
3 669 670 671
3 672 673 674
3 675 676 677
3 678 679 680
3 681 682 683
3 684 685 686
3 687 688 689
3 690 691 692
3 693 694 695
3 696 697 698
3 699 700 701
3 702 703 704
3 705 706 707
