ply
format ascii 1.0
element vertex 126
property float x
property float y
property float z
property float nx
property float ny
property float nz
element face 42
property list uint uint vertex_indices
end_header
113.572 114.716 178.907 -0.441558 -0.714289 -0.542972
113.488 114.385 179.41 -0.441558 -0.714289 -0.542972
113.014 114.794 179.259 -0.441558 -0.714289 -0.542972
113.572 114.716 178.907 0.0405353 -0.567053 -0.822683
114.332 114.765 178.91 0.0405353 -0.567053 -0.822683
114.221 114.322 179.211 0.0405353 -0.567053 -0.822683
113.488 114.385 179.41 -0.221997 -0.797539 -0.560936
113.572 114.716 178.907 -0.221997 -0.797539 -0.560936
114.221 114.322 179.211 -0.221997 -0.797539 -0.560936
114.221 114.322 179.211 0.507254 -0.566785 -0.649191
114.332 114.765 178.91 0.507254 -0.566785 -0.649191
114.781 114.661 179.352 0.507254 -0.566785 -0.649191
113.34 115.288 179.096 -0.524841 0.0668744 -0.848569
113.572 114.716 178.907 -0.524841 0.0668744 -0.848569
113.014 114.794 179.259 -0.524841 0.0668744 -0.848569
113.184 115.454 179.459 -0.788657 0.354289 -0.502494
113.34 115.288 179.096 -0.788657 0.354289 -0.502494
113.014 114.794 179.259 -0.788657 0.354289 -0.502494
114.332 114.765 178.91 -0.0138782 0.270286 -0.96268
113.572 114.716 178.907 -0.0138782 0.270286 -0.96268
114.034 115.373 179.085 -0.0138782 0.270286 -0.96268
114.034 115.373 179.085 -0.0512172 0.29425 -0.954355
113.572 114.716 178.907 -0.0512172 0.29425 -0.954355
113.34 115.288 179.096 -0.0512172 0.29425 -0.954355
114.504 115.309 179.332 0.70551 0.281795 -0.650267
114.781 114.661 179.352 0.70551 0.281795 -0.650267
114.332 114.765 178.91 0.70551 0.281795 -0.650267
114.034 115.373 179.085 0.462945 0.447547 -0.765104
114.504 115.309 179.332 0.462945 0.447547 -0.765104
114.332 114.765 178.91 0.462945 0.447547 -0.765104
114.034 115.373 179.085 -0.114988 0.883048 -0.454977
113.34 115.288 179.096 -0.114988 0.883048 -0.454977
113.184 115.454 179.459 -0.114988 0.883048 -0.454977
114.183 115.594 179.418 -0.139534 0.852297 -0.504104
114.034 115.373 179.085 -0.139534 0.852297 -0.504104
113.184 115.454 179.459 -0.139534 0.852297 -0.504104
114.504 115.309 179.332 0.418215 0.659253 -0.624885
114.034 115.373 179.085 0.418215 0.659253 -0.624885
114.183 115.594 179.418 0.418215 0.659253 -0.624885
113.488 114.385 179.41 -0.580537 -0.767664 0.271422
113.564 114.556 180.055 -0.580537 -0.767664 0.271422
113.206 114.775 179.907 -0.580537 -0.767664 0.271422
113.014 114.794 179.259 -0.674029 -0.716819 0.178479
113.488 114.385 179.41 -0.674029 -0.716819 0.178479
113.206 114.775 179.907 -0.674029 -0.716819 0.178479
114.221 114.322 179.211 -0.0202375 -0.971711 0.235306
114.255 114.485 179.89 -0.0202375 -0.971711 0.235306
113.488 114.385 179.41 -0.0202375 -0.971711 0.235306
113.488 114.385 179.41 -0.0361759 -0.96509 0.259407
114.255 114.485 179.89 -0.0361759 -0.96509 0.259407
113.564 114.556 180.055 -0.0361759 -0.96509 0.259407
114.255 114.485 179.89 0.474802 -0.860757 0.183468
114.221 114.322 179.211 0.474802 -0.860757 0.183468
114.781 114.661 179.352 0.474802 -0.860757 0.183468
114.546 114.861 179.982 0.654525 -0.615001 0.43974
114.255 114.485 179.89 0.654525 -0.615001 0.43974
114.781 114.661 179.352 0.654525 -0.615001 0.43974
113.014 114.794 179.259 -0.945877 0.156527 0.284282
113.206 114.775 179.907 -0.945877 0.156527 0.284282
113.184 115.454 179.459 -0.945877 0.156527 0.284282
113.206 114.775 179.907 -0.998342 -0.0507054 -0.0272369
113.17 115.396 180.082 -0.998342 -0.0507054 -0.0272369
113.184 115.454 179.459 -0.998342 -0.0507054 -0.0272369
114.781 114.661 179.352 0.896092 0.390677 0.21069
114.504 115.309 179.332 0.896092 0.390677 0.21069
114.546 114.861 179.982 0.896092 0.390677 0.21069
114.546 114.861 179.982 0.977034 0.199846 0.073937
114.504 115.309 179.332 0.977034 0.199846 0.073937
114.423 115.475 179.951 0.977034 0.199846 0.073937
113.184 115.454 179.459 -0.802777 0.595058 0.0381396
113.17 115.396 180.082 -0.802777 0.595058 0.0381396
113.374 115.672 180.06 -0.802777 0.595058 0.0381396
114.183 115.594 179.418 -0.141529 0.985421 -0.094416
113.184 115.454 179.459 -0.141529 0.985421 -0.094416
114.016 115.627 180.015 -0.141529 0.985421 -0.094416
113.184 115.454 179.459 0.0411023 0.935096 -0.352002
113.374 115.672 180.06 0.0411023 0.935096 -0.352002
114.016 115.627 180.015 0.0411023 0.935096 -0.352002
114.423 115.475 179.951 0.641583 0.757597 -0.120075
114.504 115.309 179.332 0.641583 0.757597 -0.120075
114.183 115.594 179.418 0.641583 0.757597 -0.120075
114.016 115.627 180.015 0.356798 0.932967 0.0476299
114.423 115.475 179.951 0.356798 0.932967 0.0476299
114.183 115.594 179.418 0.356798 0.932967 0.0476299
113.564 114.556 180.055 -0.557666 -0.439467 0.704186
113.501 114.885 180.21 -0.557666 -0.439467 0.704186
113.206 114.775 179.907 -0.557666 -0.439467 0.704186
113.564 114.556 180.055 0.0662422 -0.7873 0.613002
114.255 114.485 179.89 0.0662422 -0.7873 0.613002
114.158 114.718 180.198 0.0662422 -0.7873 0.613002
113.501 114.885 180.21 -0.0963576 -0.43977 0.892926
113.564 114.556 180.055 -0.0963576 -0.43977 0.892926
114.158 114.718 180.198 -0.0963576 -0.43977 0.892926
114.255 114.485 179.89 0.550349 -0.57489 0.60549
114.546 114.861 179.982 0.550349 -0.57489 0.60549
114.158 114.718 180.198 0.550349 -0.57489 0.60549
113.501 114.885 180.21 -0.427172 -0.0504178 0.902764
113.524 115.497 180.255 -0.427172 -0.0504178 0.902764
113.17 115.396 180.082 -0.427172 -0.0504178 0.902764
113.206 114.775 179.907 -0.649556 -0.240185 0.721379
113.501 114.885 180.21 -0.649556 -0.240185 0.721379
113.17 115.396 180.082 -0.649556 -0.240185 0.721379
114.158 114.718 180.198 0.0107286 -0.026093 0.999602
114.183 115.333 180.214 0.0107286 -0.026093 0.999602
113.501 114.885 180.21 0.0107286 -0.026093 0.999602
114.183 115.333 180.214 0.0428714 -0.0749632 0.996264
113.524 115.497 180.255 0.0428714 -0.0749632 0.996264
113.501 114.885 180.21 0.0428714 -0.0749632 0.996264
114.546 114.861 179.982 0.680008 0.172661 0.712585
114.423 115.475 179.951 0.680008 0.172661 0.712585
114.183 115.333 180.214 0.680008 0.172661 0.712585
114.158 114.718 180.198 0.498821 -0.0422496 0.865675
114.546 114.861 179.982 0.498821 -0.0422496 0.865675
114.183 115.333 180.214 0.498821 -0.0422496 0.865675
113.17 115.396 180.082 -0.492886 0.423306 0.760181
113.524 115.497 180.255 -0.492886 0.423306 0.760181
113.374 115.672 180.06 -0.492886 0.423306 0.760181
114.016 115.627 180.015 0.0974314 0.776626 0.622382
113.374 115.672 180.06 0.0974314 0.776626 0.622382
113.524 115.497 180.255 0.0974314 0.776626 0.622382
114.183 115.333 180.214 0.202358 0.623969 0.754794
114.016 115.627 180.015 0.202358 0.623969 0.754794
113.524 115.497 180.255 0.202358 0.623969 0.754794
114.423 115.475 179.951 0.35096 0.652147 0.671961
114.016 115.627 180.015 0.35096 0.652147 0.671961
114.183 115.333 180.214 0.35096 0.652147 0.671961
3 0 1 2
3 3 4 5
3 6 7 8
3 9 10 11
3 12 13 14
3 15 16 17
3 18 19 20
3 21 22 23
3 24 25 26
3 27 28 29
3 30 31 32
3 33 34 35
3 36 37 38
3 39 40 41
3 42 43 44
3 45 46 47
3 48 49 50
3 51 52 53
3 54 55 56
3 57 58 59
3 60 61 62
3 63 64 65
3 66 67 68
3 69 70 71
3 72 73 74
3 75 76 77
3 78 79 80
3 81 82 83
3 84 85 86
3 87 88 89
3 90 91 92
3 93 94 95
3 96 97 98
3 99 100 101
3 102 103 104
3 105 106 107
3 108 109 110
3 111 112 113
3 114 115 116
3 117 118 119
3 120 121 122
3 123 124 125
