ply
format ascii 1.0
element vertex 432
property float x
property float y
property float z
property float nx
property float ny
property float nz
element face 144
property list uint uint vertex_indices
end_header
50.7029 137.843 164.621 0.0712516 -0.662831 -0.745371
50.5426 137.482 164.926 0.0712516 -0.662831 -0.745371
50.1205 137.697 164.695 0.0712516 -0.662831 -0.745371
50.5426 137.482 164.926 -0.0819723 -0.622608 -0.778228
50.7029 137.843 164.621 -0.0819723 -0.622608 -0.778228
51.1537 137.585 164.779 -0.0819723 -0.622608 -0.778228
50.1205 137.697 164.695 -0.150009 0.0991202 -0.983703
49.9175 138.422 164.799 -0.150009 0.0991202 -0.983703
50.7029 137.843 164.621 -0.150009 0.0991202 -0.983703
50.7029 137.843 164.621 -0.24125 -0.0287622 -0.970037
49.9175 138.422 164.799 -0.24125 -0.0287622 -0.970037
50.7813 138.641 164.577 -0.24125 -0.0287622 -0.970037
51.5222 138.041 164.641 0.112538 -0.370854 -0.921848
51.1537 137.585 164.779 0.112538 -0.370854 -0.921848
50.7029 137.843 164.621 0.112538 -0.370854 -0.921848
51.5222 138.041 164.641 0.0534806 -0.119301 -0.991417
50.7029 137.843 164.621 0.0534806 -0.119301 -0.991417
51.472 138.49 164.584 0.0534806 -0.119301 -0.991417
51.472 138.49 164.584 -0.00192387 -0.0538247 -0.998549
50.7029 137.843 164.621 -0.00192387 -0.0538247 -0.998549
50.7813 138.641 164.577 -0.00192387 -0.0538247 -0.998549
51.5222 138.041 164.641 0.199884 -0.100814 -0.974619
51.472 138.49 164.584 0.199884 -0.100814 -0.974619
51.9145 138.477 164.676 0.199884 -0.100814 -0.974619
49.9175 138.422 164.799 -0.58076 0.362867 -0.728728
50.4263 139.557 164.958 -0.58076 0.362867 -0.728728
50.6759 139.315 164.639 -0.58076 0.362867 -0.728728
49.9175 138.422 164.799 -0.259049 0.047059 -0.964717
50.6759 139.315 164.639 -0.259049 0.047059 -0.964717
50.7813 138.641 164.577 -0.259049 0.047059 -0.964717
51.472 138.49 164.584 0.026977 0.0785098 -0.996548
50.7813 138.641 164.577 0.026977 0.0785098 -0.996548
51.7215 139.289 164.654 0.026977 0.0785098 -0.996548
51.7215 139.289 164.654 0.0169032 0.092995 -0.995523
50.7813 138.641 164.577 0.0169032 0.092995 -0.995523
50.6759 139.315 164.639 0.0169032 0.092995 -0.995523
51.7215 139.289 164.654 0.204229 0.0216205 -0.978684
51.9145 138.477 164.676 0.204229 0.0216205 -0.978684
51.472 138.49 164.584 0.204229 0.0216205 -0.978684
50.6759 139.315 164.639 -0.520131 0.434261 -0.735446
50.4263 139.557 164.958 -0.520131 0.434261 -0.735446
50.9578 139.791 164.721 -0.520131 0.434261 -0.735446
51.7215 139.289 164.654 0.0183996 0.159298 -0.987059
50.6759 139.315 164.639 0.0183996 0.159298 -0.987059
50.9578 139.791 164.721 0.0183996 0.159298 -0.987059
51.7169 139.843 164.711 -0.0194343 0.102768 -0.994515
51.7215 139.289 164.654 -0.0194343 0.102768 -0.994515
50.9578 139.791 164.721 -0.0194343 0.102768 -0.994515
49.7672 137.644 164.993 -0.760782 -0.637044 -0.124036
49.8389 137.411 165.75 -0.760782 -0.637044 -0.124036
49.5622 137.781 165.547 -0.760782 -0.637044 -0.124036
49.7672 137.644 164.993 -0.219726 -0.881484 -0.41798
50.1205 137.697 164.695 -0.219726 -0.881484 -0.41798
50.5426 137.482 164.926 -0.219726 -0.881484 -0.41798
49.7672 137.644 164.993 -0.218698 -0.938272 -0.267987
50.5426 137.482 164.926 -0.218698 -0.938272 -0.267987
49.8389 137.411 165.75 -0.218698 -0.938272 -0.267987
49.8389 137.411 165.75 -0.197819 -0.947568 -0.250961
50.5426 137.482 164.926 -0.197819 -0.947568 -0.250961
50.7546 137.212 165.777 -0.197819 -0.947568 -0.250961
51.1537 137.585 164.779 0.233234 -0.852137 -0.468469
51.9268 137.706 164.944 0.233234 -0.852137 -0.468469
51.6377 137.282 165.572 0.233234 -0.852137 -0.468469
51.1537 137.585 164.779 0.0616521 -0.919029 -0.389339
51.6377 137.282 165.572 0.0616521 -0.919029 -0.389339
50.5426 137.482 164.926 0.0616521 -0.919029 -0.389339
50.5426 137.482 164.926 0.00457592 -0.952945 -0.303109
51.6377 137.282 165.572 0.00457592 -0.952945 -0.303109
50.7546 137.212 165.777 0.00457592 -0.952945 -0.303109
51.9268 137.706 164.944 0.353388 -0.571622 -0.740517
52.7835 137.738 165.328 0.353388 -0.571622 -0.740517
52.5719 137.248 165.605 0.353388 -0.571622 -0.740517
51.6377 137.282 165.572 -0.00941645 -0.826502 -0.562855
51.9268 137.706 164.944 -0.00941645 -0.826502 -0.562855
52.5719 137.248 165.605 -0.00941645 -0.826502 -0.562855
52.5719 137.248 165.605 0.579866 -0.576329 -0.575848
52.7835 137.738 165.328 0.579866 -0.576329 -0.575848
53.095 137.558 165.822 0.579866 -0.576329 -0.575848
49.9175 138.422 164.799 -0.926988 0.0880046 -0.36462
49.7672 137.644 164.993 -0.926988 0.0880046 -0.36462
49.5622 137.781 165.547 -0.926988 0.0880046 -0.36462
49.9175 138.422 164.799 -0.937538 0.157048 -0.310416
49.5622 137.781 165.547 -0.937538 0.157048 -0.310416
49.6503 138.661 165.727 -0.937538 0.157048 -0.310416
50.1205 137.697 164.695 -0.63738 -0.0682875 -0.767518
49.7672 137.644 164.993 -0.63738 -0.0682875 -0.767518
49.9175 138.422 164.799 -0.63738 -0.0682875 -0.767518
51.1537 137.585 164.779 0.253842 -0.463063 -0.849197
51.5222 138.041 164.641 0.253842 -0.463063 -0.849197
51.9268 137.706 164.944 0.253842 -0.463063 -0.849197
51.9145 138.477 164.676 0.405433 -0.294576 -0.865361
51.9268 137.706 164.944 0.405433 -0.294576 -0.865361
51.5222 138.041 164.641 0.405433 -0.294576 -0.865361
51.9145 138.477 164.676 0.483285 -0.280768 -0.82922
52.6073 138.636 165.026 0.483285 -0.280768 -0.82922
51.9268 137.706 164.944 0.483285 -0.280768 -0.82922
52.6073 138.636 165.026 0.40586 -0.219052 -0.887296
52.7835 137.738 165.328 0.40586 -0.219052 -0.887296
51.9268 137.706 164.944 0.40586 -0.219052 -0.887296
53.3455 138.467 165.856 0.794882 -0.198164 -0.573492
53.095 137.558 165.822 0.794882 -0.198164 -0.573492
52.7835 137.738 165.328 0.794882 -0.198164 -0.573492
52.6073 138.636 165.026 0.736157 -0.0816981 -0.671862
53.3455 138.467 165.856 0.736157 -0.0816981 -0.671862
52.7835 137.738 165.328 0.736157 -0.0816981 -0.671862
49.6503 138.661 165.727 -0.835475 0.423853 -0.349756
50.4263 139.557 164.958 -0.835475 0.423853 -0.349756
49.9175 138.422 164.799 -0.835475 0.423853 -0.349756
50.2111 139.656 165.762 -0.831495 0.478809 -0.281706
50.4263 139.557 164.958 -0.831495 0.478809 -0.281706
49.6503 138.661 165.727 -0.831495 0.478809 -0.281706
52.6073 138.636 165.026 0.38661 -0.00116001 -0.922243
51.7215 139.289 164.654 0.38661 -0.00116001 -0.922243
52.5032 139.732 164.981 0.38661 -0.00116001 -0.922243
51.9145 138.477 164.676 0.434867 0.078687 -0.89705
51.7215 139.289 164.654 0.434867 0.078687 -0.89705
52.6073 138.636 165.026 0.434867 0.078687 -0.89705
52.969 139.42 165.603 0.753696 0.126615 -0.644911
53.3455 138.467 165.856 0.753696 0.126615 -0.644911
52.6073 138.636 165.026 0.753696 0.126615 -0.644911
52.5032 139.732 164.981 0.811734 0.0531976 -0.5816
52.969 139.42 165.603 0.811734 0.0531976 -0.5816
52.6073 138.636 165.026 0.811734 0.0531976 -0.5816
50.7713 140.342 165.163 -0.518356 0.421533 -0.744055
50.9578 139.791 164.721 -0.518356 0.421533 -0.744055
50.4263 139.557 164.958 -0.518356 0.421533 -0.744055
50.7713 140.342 165.163 -0.831434 0.450143 -0.325714
50.4263 139.557 164.958 -0.831434 0.450143 -0.325714
50.557 140.347 165.717 -0.831434 0.450143 -0.325714
50.557 140.347 165.717 -0.86505 0.414433 -0.282725
50.4263 139.557 164.958 -0.86505 0.414433 -0.282725
50.2111 139.656 165.762 -0.86505 0.414433 -0.282725
50.9578 139.791 164.721 -0.0446435 0.497567 -0.866276
51.6326 140.376 165.022 -0.0446435 0.497567 -0.866276
51.7169 139.843 164.711 -0.0446435 0.497567 -0.866276
50.7713 140.342 165.163 -0.153308 0.5864 -0.795382
51.6326 140.376 165.022 -0.153308 0.5864 -0.795382
50.9578 139.791 164.721 -0.153308 0.5864 -0.795382
51.7169 139.843 164.711 0.335482 0.0997572 -0.93675
52.5032 139.732 164.981 0.335482 0.0997572 -0.93675
51.7215 139.289 164.654 0.335482 0.0997572 -0.93675
51.7169 139.843 164.711 0.34242 0.512709 -0.787323
51.6326 140.376 165.022 0.34242 0.512709 -0.787323
52.5032 139.732 164.981 0.34242 0.512709 -0.787323
51.6326 140.376 165.022 0.202811 0.332581 -0.921009
52.5047 140.472 165.248 0.202811 0.332581 -0.921009
52.5032 139.732 164.981 0.202811 0.332581 -0.921009
52.8454 140.258 165.72 0.829436 0.195626 -0.523227
52.969 139.42 165.603 0.829436 0.195626 -0.523227
52.5032 139.732 164.981 0.829436 0.195626 -0.523227
52.5047 140.472 165.248 0.834588 0.185777 -0.518604
52.8454 140.258 165.72 0.834588 0.185777 -0.518604
52.5032 139.732 164.981 0.834588 0.185777 -0.518604
50.7713 140.342 165.163 -0.489352 0.849452 -0.197398
50.557 140.347 165.717 -0.489352 0.849452 -0.197398
50.9643 140.585 165.731 -0.489352 0.849452 -0.197398
51.6326 140.376 165.022 -0.096493 0.926479 -0.363767
50.7713 140.342 165.163 -0.096493 0.926479 -0.363767
50.9643 140.585 165.731 -0.096493 0.926479 -0.363767
51.8902 140.658 165.726 -0.0755764 0.93498 -0.346556
51.6326 140.376 165.022 -0.0755764 0.93498 -0.346556
50.9643 140.585 165.731 -0.0755764 0.93498 -0.346556
52.5047 140.472 165.248 -0.00531702 0.929065 -0.369879
51.6326 140.376 165.022 -0.00531702 0.929065 -0.369879
51.8902 140.658 165.726 -0.00531702 0.929065 -0.369879
52.6408 140.61 165.831 0.0966687 0.962893 -0.251975
52.5047 140.472 165.248 0.0966687 0.962893 -0.251975
51.8902 140.658 165.726 0.0966687 0.962893 -0.251975
52.8454 140.258 165.72 0.775708 0.548663 -0.311842
52.5047 140.472 165.248 0.775708 0.548663 -0.311842
52.6408 140.61 165.831 0.775708 0.548663 -0.311842
49.8389 137.411 165.75 -0.815171 -0.577955 -0.0382532
49.8254 137.372 166.619 -0.815171 -0.577955 -0.0382532
49.573 137.745 166.369 -0.815171 -0.577955 -0.0382532
49.5622 137.781 165.547 -0.796526 -0.604394 -0.0159545
49.8389 137.411 165.75 -0.796526 -0.604394 -0.0159545
49.573 137.745 166.369 -0.796526 -0.604394 -0.0159545
50.7546 137.212 165.777 -0.198409 -0.949325 -0.243755
50.6275 137.028 166.599 -0.198409 -0.949325 -0.243755
49.8389 137.411 165.75 -0.198409 -0.949325 -0.243755
49.8389 137.411 165.75 -0.394883 -0.917539 -0.0467847
50.6275 137.028 166.599 -0.394883 -0.917539 -0.0467847
49.8254 137.372 166.619 -0.394883 -0.917539 -0.0467847
51.6377 137.282 165.572 0.00973141 -0.959089 -0.282939
51.6622 136.992 166.555 0.00973141 -0.959089 -0.282939
50.7546 137.212 165.777 0.00973141 -0.959089 -0.282939
50.7546 137.212 165.777 -0.0432906 -0.973361 -0.225154
51.6622 136.992 166.555 -0.0432906 -0.973361 -0.225154
50.6275 137.028 166.599 -0.0432906 -0.973361 -0.225154
52.5719 137.248 165.605 -0.0316874 -0.994112 -0.103624
52.5969 137.168 166.374 -0.0316874 -0.994112 -0.103624
51.6377 137.282 165.572 -0.0316874 -0.994112 -0.103624
51.6377 137.282 165.572 0.123652 -0.951 -0.283387
52.5969 137.168 166.374 0.123652 -0.951 -0.283387
51.6622 136.992 166.555 0.123652 -0.951 -0.283387
52.5969 137.168 166.374 0.538569 -0.835942 -0.105565
52.5719 137.248 165.605 0.538569 -0.835942 -0.105565
53.095 137.558 165.822 0.538569 -0.835942 -0.105565
53.0465 137.701 166.476 0.730716 -0.653605 0.197113
52.5969 137.168 166.374 0.730716 -0.653605 0.197113
53.095 137.558 165.822 0.730716 -0.653605 0.197113
49.5622 137.781 165.547 -0.995231 0.0959966 0.0173262
49.573 137.745 166.369 -0.995231 0.0959966 0.0173262
49.6503 138.661 165.727 -0.995231 0.0959966 0.0173262
49.573 137.745 166.369 -0.986419 0.14151 0.0833804
49.7335 138.663 166.709 -0.986419 0.14151 0.0833804
49.6503 138.661 165.727 -0.986419 0.14151 0.0833804
53.5185 138.385 166.692 0.804267 -0.551825 -0.220552
53.3455 138.467 165.856 0.804267 -0.551825 -0.220552
53.6517 138.674 166.454 0.804267 -0.551825 -0.220552
53.5185 138.385 166.692 0.833739 -0.50552 -0.222099
53.0465 137.701 166.476 0.833739 -0.50552 -0.222099
53.3455 138.467 165.856 0.833739 -0.50552 -0.222099
53.0465 137.701 166.476 0.954718 -0.267904 0.129387
53.095 137.558 165.822 0.954718 -0.267904 0.129387
53.3455 138.467 165.856 0.954718 -0.267904 0.129387
53.5185 138.385 166.692 0.882585 -0.464796 -0.0707651
53.6517 138.674 166.454 0.882585 -0.464796 -0.0707651
53.6785 138.694 166.653 0.882585 -0.464796 -0.0707651
49.7523 139.451 166.416 -0.994924 0.0550806 0.084211
49.6503 138.661 165.727 -0.994924 0.0550806 0.084211
49.7335 138.663 166.709 -0.994924 0.0550806 0.084211
49.6503 138.661 165.727 -0.788512 0.45912 -0.409216
49.7523 139.451 166.416 -0.788512 0.45912 -0.409216
50.2111 139.656 165.762 -0.788512 0.45912 -0.409216
53.6517 138.674 166.454 0.649195 0.552093 -0.523201
53.3455 138.467 165.856 0.649195 0.552093 -0.523201
53.158 139.367 166.573 0.649195 0.552093 -0.523201
53.3455 138.467 165.856 0.931532 0.324655 -0.163851
52.969 139.42 165.603 0.931532 0.324655 -0.163851
53.158 139.367 166.573 0.931532 0.324655 -0.163851
53.6785 138.694 166.653 0.789274 0.590887 -0.167033
53.6517 138.674 166.454 0.789274 0.590887 -0.167033
53.158 139.367 166.573 0.789274 0.590887 -0.167033
50.3303 140.193 166.418 -0.741926 0.57846 -0.339014
50.2111 139.656 165.762 -0.741926 0.57846 -0.339014
49.7523 139.451 166.416 -0.741926 0.57846 -0.339014
50.3303 140.193 166.418 -0.882729 0.429234 -0.191173
50.557 140.347 165.717 -0.882729 0.429234 -0.191173
50.2111 139.656 165.762 -0.882729 0.429234 -0.191173
52.969 139.42 165.603 0.969266 0.168049 -0.179677
52.8454 140.258 165.72 0.969266 0.168049 -0.179677
53.158 139.367 166.573 0.969266 0.168049 -0.179677
53.158 139.367 166.573 0.949396 0.313415 -0.0204425
52.8454 140.258 165.72 0.949396 0.313415 -0.0204425
52.8298 140.363 166.601 0.949396 0.313415 -0.0204425
50.557 140.347 165.717 -0.460943 0.88624 0.0459288
50.3303 140.193 166.418 -0.460943 0.88624 0.0459288
50.73 140.389 166.656 -0.460943 0.88624 0.0459288
50.9643 140.585 165.731 -0.504999 0.861357 0.0551437
50.557 140.347 165.717 -0.504999 0.861357 0.0551437
50.73 140.389 166.656 -0.504999 0.861357 0.0551437
51.8902 140.658 165.726 -0.0787054 0.996897 0.00125741
50.9643 140.585 165.731 -0.0787054 0.996897 0.00125741
51.5953 140.634 166.49 -0.0787054 0.996897 0.00125741
50.9643 140.585 165.731 -0.244873 0.959125 0.141834
50.73 140.389 166.656 -0.244873 0.959125 0.141834
51.5953 140.634 166.49 -0.244873 0.959125 0.141834
52.6408 140.61 165.831 0.0629497 0.998001 0.00568066
51.8902 140.658 165.726 0.0629497 0.998001 0.00568066
52.4474 140.618 166.568 0.0629497 0.998001 0.00568066
51.8902 140.658 165.726 0.014978 0.999184 0.0375084
51.5953 140.634 166.49 0.014978 0.999184 0.0375084
52.4474 140.618 166.568 0.014978 0.999184 0.0375084
52.8298 140.363 166.601 0.857536 0.512384 -0.0457755
52.8454 140.258 165.72 0.857536 0.512384 -0.0457755
52.6408 140.61 165.831 0.857536 0.512384 -0.0457755
52.4474 140.618 166.568 0.542475 0.8294 0.133479
52.8298 140.363 166.601 0.542475 0.8294 0.133479
52.6408 140.61 165.831 0.542475 0.8294 0.133479
49.8254 137.372 166.619 -0.857652 -0.301287 0.416724
49.8136 137.766 166.879 -0.857652 -0.301287 0.416724
49.573 137.745 166.369 -0.857652 -0.301287 0.416724
49.8254 137.372 166.619 -0.302531 -0.739873 0.600885
50.6275 137.028 166.599 -0.302531 -0.739873 0.600885
50.495 137.552 167.177 -0.302531 -0.739873 0.600885
49.8136 137.766 166.879 -0.473859 -0.49568 0.727846
49.8254 137.372 166.619 -0.473859 -0.49568 0.727846
50.495 137.552 167.177 -0.473859 -0.49568 0.727846
50.6275 137.028 166.599 9.46982e-05 -0.769281 0.63891
51.6622 136.992 166.555 9.46982e-05 -0.769281 0.63891
51.4474 137.627 167.319 9.46982e-05 -0.769281 0.63891
50.495 137.552 167.177 -0.0409938 -0.745163 0.665621
50.6275 137.028 166.599 -0.0409938 -0.745163 0.665621
51.4474 137.627 167.319 -0.0409938 -0.745163 0.665621
51.6622 136.992 166.555 0.256275 -0.792535 0.553364
52.5969 137.168 166.374 0.256275 -0.792535 0.553364
52.5801 137.648 167.07 0.256275 -0.792535 0.553364
51.4474 137.627 167.319 0.158747 -0.737155 0.656812
51.6622 136.992 166.555 0.158747 -0.737155 0.656812
52.5801 137.648 167.07 0.158747 -0.737155 0.656812
52.5969 137.168 166.374 0.639922 -0.625056 0.446996
53.0465 137.701 166.476 0.639922 -0.625056 0.446996
52.5801 137.648 167.07 0.639922 -0.625056 0.446996
49.573 137.745 166.369 -0.904626 0.000252062 0.426206
49.8136 137.766 166.879 -0.904626 0.000252062 0.426206
49.7335 138.663 166.709 -0.904626 0.000252062 0.426206
50.495 137.552 167.177 -0.437513 -0.162881 0.884337
50.6407 138.45 167.414 -0.437513 -0.162881 0.884337
49.8136 137.766 166.879 -0.437513 -0.162881 0.884337
50.6407 138.45 167.414 -0.596674 0.0982867 0.796442
49.7335 138.663 166.709 -0.596674 0.0982867 0.796442
49.8136 137.766 166.879 -0.596674 0.0982867 0.796442
51.28 138.48 167.628 -0.107392 -0.35633 0.928168
51.4474 137.627 167.319 -0.107392 -0.35633 0.928168
51.8847 138.15 167.571 -0.107392 -0.35633 0.928168
51.28 138.48 167.628 -0.27767 -0.374108 0.88484
50.6407 138.45 167.414 -0.27767 -0.374108 0.88484
51.4474 137.627 167.319 -0.27767 -0.374108 0.88484
50.6407 138.45 167.414 -0.125809 -0.234482 0.963945
50.495 137.552 167.177 -0.125809 -0.234482 0.963945
51.4474 137.627 167.319 -0.125809 -0.234482 0.963945
52.5801 137.648 167.07 0.189823 -0.549505 0.813641
51.8847 138.15 167.571 0.189823 -0.549505 0.813641
51.4474 137.627 167.319 0.189823 -0.549505 0.813641
52.7571 138.507 167.458 0.291623 -0.442761 0.847891
51.8847 138.15 167.571 0.291623 -0.442761 0.847891
52.5801 137.648 167.07 0.291623 -0.442761 0.847891
53.4867 138.679 166.884 0.633445 -0.180263 0.752498
52.9305 138.912 167.408 0.633445 -0.180263 0.752498
52.7571 138.507 167.458 0.633445 -0.180263 0.752498
53.5185 138.385 166.692 0.624985 -0.379605 0.682124
53.4867 138.679 166.884 0.624985 -0.379605 0.682124
52.7571 138.507 167.458 0.624985 -0.379605 0.682124
53.5185 138.385 166.692 0.60593 -0.427546 0.67086
52.7571 138.507 167.458 0.60593 -0.427546 0.67086
52.5801 137.648 167.07 0.60593 -0.427546 0.67086
53.5185 138.385 166.692 0.655388 -0.597827 0.461595
52.5801 137.648 167.07 0.655388 -0.597827 0.461595
53.0465 137.701 166.476 0.655388 -0.597827 0.461595
53.5185 138.385 166.692 0.742489 -0.30927 0.59419
53.6785 138.694 166.653 0.742489 -0.30927 0.59419
53.4867 138.679 166.884 0.742489 -0.30927 0.59419
49.7335 138.663 166.709 -0.89081 0.176832 0.418555
49.9451 139.659 166.738 -0.89081 0.176832 0.418555
49.7523 139.451 166.416 -0.89081 0.176832 0.418555
50.6407 138.45 167.414 -0.586983 0.141802 0.797084
50.7294 139.543 167.285 -0.586983 0.141802 0.797084
49.7335 138.663 166.709 -0.586983 0.141802 0.797084
50.7294 139.543 167.285 -0.560247 0.0946246 0.822903
49.9451 139.659 166.738 -0.560247 0.0946246 0.822903
49.7335 138.663 166.709 -0.560247 0.0946246 0.822903
51.3551 139.199 167.625 -0.317557 0.0362351 0.947547
50.6407 138.45 167.414 -0.317557 0.0362351 0.947547
51.28 138.48 167.628 -0.317557 0.0362351 0.947547
50.7294 139.543 167.285 -0.412128 0.139812 0.900335
50.6407 138.45 167.414 -0.412128 0.139812 0.900335
51.3551 139.199 167.625 -0.412128 0.139812 0.900335
53.158 139.367 166.573 0.684124 0.545897 0.483706
52.9305 138.912 167.408 0.684124 0.545897 0.483706
53.4867 138.679 166.884 0.684124 0.545897 0.483706
53.158 139.367 166.573 0.929715 0.151599 0.335631
52.8106 139.682 167.393 0.929715 0.151599 0.335631
52.9305 138.912 167.408 0.929715 0.151599 0.335631
53.6785 138.694 166.653 0.624702 0.549648 0.554649
53.158 139.367 166.573 0.624702 0.549648 0.554649
53.4867 138.679 166.884 0.624702 0.549648 0.554649
49.7523 139.451 166.416 -0.786915 0.612436 0.0754114
49.9451 139.659 166.738 -0.786915 0.612436 0.0754114
50.3303 140.193 166.418 -0.786915 0.612436 0.0754114
50.3303 140.193 166.418 -0.590418 0.68325 0.429623
49.9451 139.659 166.738 -0.590418 0.68325 0.429623
50.73 140.389 166.656 -0.590418 0.68325 0.429623
50.73 140.389 166.656 -0.42636 0.540166 0.72556
49.9451 139.659 166.738 -0.42636 0.540166 0.72556
50.7294 139.543 167.285 -0.42636 0.540166 0.72556
51.7761 139.594 167.603 -0.287768 0.355145 0.889417
50.7294 139.543 167.285 -0.287768 0.355145 0.889417
51.3551 139.199 167.625 -0.287768 0.355145 0.889417
51.7761 139.594 167.603 -0.277457 0.472836 0.836328
51.7646 140.35 167.172 -0.277457 0.472836 0.836328
50.7294 139.543 167.285 -0.277457 0.472836 0.836328
51.7646 140.35 167.172 -0.353677 0.558525 0.750308
50.73 140.389 166.656 -0.353677 0.558525 0.750308
50.7294 139.543 167.285 -0.353677 0.558525 0.750308
51.7646 140.35 167.172 -0.0115822 0.612506 0.790381
52.5046 139.879 167.548 -0.0115822 0.612506 0.790381
52.6232 140.367 167.171 -0.0115822 0.612506 0.790381
51.7761 139.594 167.603 -0.126208 0.490061 0.862503
52.5046 139.879 167.548 -0.126208 0.490061 0.862503
51.7646 140.35 167.172 -0.126208 0.490061 0.862503
52.6232 140.367 167.171 0.60439 0.389497 0.694985
52.5046 139.879 167.548 0.60439 0.389497 0.694985
52.8106 139.682 167.393 0.60439 0.389497 0.694985
52.6232 140.367 167.171 0.88375 0.343907 0.317355
52.8106 139.682 167.393 0.88375 0.343907 0.317355
52.8298 140.363 166.601 0.88375 0.343907 0.317355
52.8298 140.363 166.601 0.915432 0.293835 0.275038
52.8106 139.682 167.393 0.915432 0.293835 0.275038
53.158 139.367 166.573 0.915432 0.293835 0.275038
51.7646 140.35 167.172 -0.173786 0.893065 0.41501
51.5953 140.634 166.49 -0.173786 0.893065 0.41501
50.73 140.389 166.656 -0.173786 0.893065 0.41501
52.4474 140.618 166.568 -0.0183988 0.921375 0.38824
51.5953 140.634 166.49 -0.0183988 0.921375 0.38824
51.7646 140.35 167.172 -0.0183988 0.921375 0.38824
52.6232 140.367 167.171 -0.0183043 0.921338 0.38833
52.4474 140.618 166.568 -0.0183043 0.921338 0.38833
51.7646 140.35 167.172 -0.0183043 0.921338 0.38833
52.8298 140.363 166.601 0.534396 0.82428 0.187039
52.4474 140.618 166.568 0.534396 0.82428 0.187039
52.6232 140.367 167.171 0.534396 0.82428 0.187039
51.8847 138.15 167.571 -0.000447254 -0.169916 0.985459
51.8514 138.778 167.679 -0.000447254 -0.169916 0.985459
51.28 138.48 167.628 -0.000447254 -0.169916 0.985459
51.8514 138.778 167.679 0.190347 -0.156974 0.969086
51.8847 138.15 167.571 0.190347 -0.156974 0.969086
52.7571 138.507 167.458 0.190347 -0.156974 0.969086
51.8514 138.778 167.679 -0.0325581 0.0896381 0.995442
51.7761 139.594 167.603 -0.0325581 0.0896381 0.995442
51.3551 139.199 167.625 -0.0325581 0.0896381 0.995442
51.28 138.48 167.628 -0.0971142 0.0133425 0.995184
51.8514 138.778 167.679 -0.0971142 0.0133425 0.995184
51.3551 139.199 167.625 -0.0971142 0.0133425 0.995184
52.7571 138.507 167.458 0.185197 -0.172799 0.967389
52.5742 139.334 167.64 0.185197 -0.172799 0.967389
51.8514 138.778 167.679 0.185197 -0.172799 0.967389
52.5742 139.334 167.64 -0.0160767 0.091184 0.995704
51.7761 139.594 167.603 -0.0160767 0.091184 0.995704
51.8514 138.778 167.679 -0.0160767 0.091184 0.995704
52.9305 138.912 167.408 0.633162 0.114013 0.765576
52.8106 139.682 167.393 0.633162 0.114013 0.765576
52.5742 139.334 167.64 0.633162 0.114013 0.765576
52.7571 138.507 167.458 0.464189 -0.0919581 0.88095
52.9305 138.912 167.408 0.464189 -0.0919581 0.88095
52.5742 139.334 167.64 0.464189 -0.0919581 0.88095
52.5742 139.334 167.64 0.0091619 0.167083 0.9859
52.5046 139.879 167.548 0.0091619 0.167083 0.9859
51.7761 139.594 167.603 0.0091619 0.167083 0.9859
52.8106 139.682 167.393 0.54587 0.206376 0.812056
52.5046 139.879 167.548 0.54587 0.206376 0.812056
52.5742 139.334 167.64 0.54587 0.206376 0.812056
3 0 1 2
3 3 4 5
3 6 7 8
3 9 10 11
3 12 13 14
3 15 16 17
3 18 19 20
3 21 22 23
3 24 25 26
3 27 28 29
3 30 31 32
3 33 34 35
3 36 37 38
3 39 40 41
3 42 43 44
3 45 46 47
3 48 49 50
3 51 52 53
3 54 55 56
3 57 58 59
3 60 61 62
3 63 64 65
3 66 67 68
3 69 70 71
3 72 73 74
3 75 76 77
3 78 79 80
3 81 82 83
3 84 85 86
3 87 88 89
3 90 91 92
3 93 94 95
3 96 97 98
3 99 100 101
3 102 103 104
3 105 106 107
3 108 109 110
3 111 112 113
3 114 115 116
3 117 118 119
3 120 121 122
3 123 124 125
3 126 127 128
3 129 130 131
3 132 133 134
3 135 136 137
3 138 139 140
3 141 142 143
3 144 145 146
3 147 148 149
3 150 151 152
3 153 154 155
3 156 157 158
3 159 160 161
3 162 163 164
3 165 166 167
3 168 169 170
3 171 172 173
3 174 175 176
3 177 178 179
3 180 181 182
3 183 184 185
3 186 187 188
3 189 190 191
3 192 193 194
3 195 196 197
3 198 199 200
3 201 202 203
3 204 205 206
3 207 208 209
3 210 211 212
3 213 214 215
3 216 217 218
3 219 220 221
3 222 223 224
3 225 226 227
3 228 229 230
3 231 232 233
3 234 235 236
3 237 238 239
3 240 241 242
3 243 244 245
3 246 247 248
3 249 250 251
3 252 253 254
3 255 256 257
3 258 259 260
3 261 262 263
3 264 265 266
3 267 268 269
3 270 271 272
3 273 274 275
3 276 277 278
3 279 280 281
3 282 283 284
3 285 286 287
3 288 289 290
3 291 292 293
3 294 295 296
3 297 298 299
3 300 301 302
3 303 304 305
3 306 307 308
3 309 310 311
3 312 313 314
3 315 316 317
3 318 319 320
3 321 322 323
3 324 325 326
3 327 328 329
3 330 331 332
3 333 334 335
3 336 337 338
3 339 340 341
3 342 343 344
3 345 346 347
3 348 349 350
3 351 352 353
3 354 355 356
3 357 358 359
3 360 361 362
3 363 364 365
3 366 367 368
3 369 370 371
3 372 373 374
3 375 376 377
3 378 379 380
3 381 382 383
3 384 385 386
3 387 388 389
3 390 391 392
3 393 394 395
3 396 397 398
3 399 400 401
3 402 403 404
3 405 406 407
3 408 409 410
3 411 412 413
3 414 415 416
3 417 418 419
3 420 421 422
3 423 424 425
3 426 427 428
3 429 430 431
