ply
format ascii 1.0
element vertex 426
property float x
property float y
property float z
property float nx
property float ny
property float nz
element face 142
property list uint uint vertex_indices
end_header
106.855 103.036 150.992 -0.267964 -0.236698 -0.9339
106.96 102.315 151.145 -0.267964 -0.236698 -0.9339
106.487 102.31 151.282 -0.267964 -0.236698 -0.9339
106.279 102.972 151.147 -0.223722 -0.261139 -0.939018
106.855 103.036 150.992 -0.223722 -0.261139 -0.939018
106.487 102.31 151.282 -0.223722 -0.261139 -0.939018
107.676 102.713 151.153 0.269677 -0.46812 -0.841509
107.097 102.111 151.302 0.269677 -0.46812 -0.841509
106.96 102.315 151.145 0.269677 -0.46812 -0.841509
107.676 102.713 151.153 0.212877 -0.364523 -0.906535
106.96 102.315 151.145 0.212877 -0.364523 -0.906535
107.835 103.202 150.994 0.212877 -0.364523 -0.906535
107.835 103.202 150.994 0.0358325 -0.202134 -0.978702
106.96 102.315 151.145 0.0358325 -0.202134 -0.978702
106.855 103.036 150.992 0.0358325 -0.202134 -0.978702
107.676 102.713 151.153 0.154993 -0.3512 -0.923383
107.835 103.202 150.994 0.154993 -0.3512 -0.923383
108.387 103.011 151.159 0.154993 -0.3512 -0.923383
106.855 103.036 150.992 -0.27437 0.529202 -0.802911
106.279 102.972 151.147 -0.27437 0.529202 -0.802911
106.565 103.315 151.275 -0.27437 0.529202 -0.802911
106.565 103.315 151.275 -0.381785 0.432155 -0.816996
107.555 103.858 151.1 -0.381785 0.432155 -0.816996
106.855 103.036 150.992 -0.381785 0.432155 -0.816996
106.855 103.036 150.992 -0.0236337 0.149569 -0.988469
107.555 103.858 151.1 -0.0236337 0.149569 -0.988469
107.835 103.202 150.994 -0.0236337 0.149569 -0.988469
108.7 103.496 151.08 0.187082 -0.275144 -0.943025
108.387 103.011 151.159 0.187082 -0.275144 -0.943025
107.835 103.202 150.994 0.187082 -0.275144 -0.943025
108.7 103.496 151.08 0.129732 -0.0938215 -0.9871
107.835 103.202 150.994 0.129732 -0.0938215 -0.9871
108.544 104.029 151.008 0.129732 -0.0938215 -0.9871
108.544 104.029 151.008 -0.110665 0.112275 -0.987496
107.835 103.202 150.994 -0.110665 0.112275 -0.987496
107.555 103.858 151.1 -0.110665 0.112275 -0.987496
108.7 103.496 151.08 0.525775 0.0407489 -0.849647
108.544 104.029 151.008 0.525775 0.0407489 -0.849647
109.021 103.898 151.297 0.525775 0.0407489 -0.849647
108.544 104.029 151.008 -0.174458 0.586675 -0.790807
107.555 103.858 151.1 -0.174458 0.586675 -0.790807
107.866 104.451 151.471 -0.174458 0.586675 -0.790807
108.79 104.485 151.334 -0.136523 0.624017 -0.769392
108.544 104.029 151.008 -0.136523 0.624017 -0.769392
107.866 104.451 151.471 -0.136523 0.624017 -0.769392
109.021 103.898 151.297 0.551588 0.266461 -0.790411
108.544 104.029 151.008 0.551588 0.266461 -0.790411
108.79 104.485 151.334 0.551588 0.266461 -0.790411
106.883 101.475 151.857 -0.434117 -0.787562 -0.437365
106.934 101.203 152.297 -0.434117 -0.787562 -0.437365
106.432 101.478 152.299 -0.434117 -0.787562 -0.437365
106.883 101.475 151.857 0.117422 -0.541555 -0.832424
107.896 101.423 152.034 0.117422 -0.541555 -0.832424
107.556 101.132 152.175 0.117422 -0.541555 -0.832424
106.934 101.203 152.297 -0.194107 -0.844 -0.499986
106.883 101.475 151.857 -0.194107 -0.844 -0.499986
107.556 101.132 152.175 -0.194107 -0.844 -0.499986
107.556 101.132 152.175 0.44748 -0.756155 -0.477484
107.896 101.423 152.034 0.44748 -0.756155 -0.477484
107.908 101.252 152.314 0.44748 -0.756155 -0.477484
105.951 102.046 151.947 -0.818298 -0.401374 -0.411445
105.781 102.019 152.313 -0.818298 -0.401374 -0.411445
105.648 102.393 152.212 -0.818298 -0.401374 -0.411445
106.432 101.478 152.299 -0.605687 -0.721 -0.336604
105.781 102.019 152.313 -0.605687 -0.721 -0.336604
105.951 102.046 151.947 -0.605687 -0.721 -0.336604
106.883 101.475 151.857 -0.488844 -0.719402 -0.49345
106.432 101.478 152.299 -0.488844 -0.719402 -0.49345
105.951 102.046 151.947 -0.488844 -0.719402 -0.49345
106.883 101.475 151.857 -0.453119 -0.641217 -0.619293
105.951 102.046 151.947 -0.453119 -0.641217 -0.619293
106.487 102.31 151.282 -0.453119 -0.641217 -0.619293
106.883 101.475 151.857 -0.212496 -0.620607 -0.75478
106.487 102.31 151.282 -0.212496 -0.620607 -0.75478
106.96 102.315 151.145 -0.212496 -0.620607 -0.75478
107.097 102.111 151.302 -0.0756184 -0.640872 -0.763914
106.883 101.475 151.857 -0.0756184 -0.640872 -0.763914
106.96 102.315 151.145 -0.0756184 -0.640872 -0.763914
107.097 102.111 151.302 0.348542 -0.680082 -0.644985
107.878 102.194 151.637 0.348542 -0.680082 -0.644985
106.883 101.475 151.857 0.348542 -0.680082 -0.644985
107.878 102.194 151.637 0.130927 -0.451153 -0.882791
107.896 101.423 152.034 0.130927 -0.451153 -0.882791
106.883 101.475 151.857 0.130927 -0.451153 -0.882791
108.629 101.959 152.288 0.626477 -0.654746 -0.422888
107.908 101.252 152.314 0.626477 -0.654746 -0.422888
107.896 101.423 152.034 0.626477 -0.654746 -0.422888
108.629 101.959 152.288 0.626797 -0.657286 -0.41845
107.896 101.423 152.034 0.626797 -0.657286 -0.41845
108.664 102.228 151.92 0.626797 -0.657286 -0.41845
108.664 102.228 151.92 0.322121 -0.427045 -0.844909
107.896 101.423 152.034 0.322121 -0.427045 -0.844909
107.878 102.194 151.637 0.322121 -0.427045 -0.844909
105.869 102.899 151.593 -0.797284 -0.295135 -0.52653
105.951 102.046 151.947 -0.797284 -0.295135 -0.52653
105.648 102.393 152.212 -0.797284 -0.295135 -0.52653
105.657 103.229 152.309 -0.951901 0.0453167 -0.303035
105.869 102.899 151.593 -0.951901 0.0453167 -0.303035
105.648 102.393 152.212 -0.951901 0.0453167 -0.303035
106.487 102.31 151.282 -0.663009 -0.343933 -0.664928
105.869 102.899 151.593 -0.663009 -0.343933 -0.664928
106.279 102.972 151.147 -0.663009 -0.343933 -0.664928
105.951 102.046 151.947 -0.661509 -0.340687 -0.668086
105.869 102.899 151.593 -0.661509 -0.340687 -0.668086
106.487 102.31 151.282 -0.661509 -0.340687 -0.668086
107.097 102.111 151.302 0.377874 -0.548497 -0.745897
107.676 102.713 151.153 0.377874 -0.548497 -0.745897
107.878 102.194 151.637 0.377874 -0.548497 -0.745897
108.387 103.011 151.159 0.259382 -0.602753 -0.754593
107.878 102.194 151.637 0.259382 -0.602753 -0.754593
107.676 102.713 151.153 0.259382 -0.602753 -0.754593
108.387 103.011 151.159 0.421969 -0.638826 -0.643307
108.782 103.041 151.389 0.421969 -0.638826 -0.643307
107.878 102.194 151.637 0.421969 -0.638826 -0.643307
108.782 103.041 151.389 0.303198 -0.551381 -0.777206
108.664 102.228 151.92 0.303198 -0.551381 -0.777206
107.878 102.194 151.637 0.303198 -0.551381 -0.777206
109.166 103.03 152.099 0.843639 -0.469374 -0.260696
108.629 101.959 152.288 0.843639 -0.469374 -0.260696
108.664 102.228 151.92 0.843639 -0.469374 -0.260696
108.782 103.041 151.389 0.802329 -0.403519 -0.439819
109.166 103.03 152.099 0.802329 -0.403519 -0.439819
108.664 102.228 151.92 0.802329 -0.403519 -0.439819
105.869 102.899 151.593 -0.795128 0.425927 -0.431691
105.657 103.229 152.309 -0.795128 0.425927 -0.431691
105.922 103.397 151.987 -0.795128 0.425927 -0.431691
106.565 103.315 151.275 -0.55628 0.602632 -0.572178
105.922 103.397 151.987 -0.55628 0.602632 -0.572178
106.741 104.009 151.835 -0.55628 0.602632 -0.572178
106.565 103.315 151.275 -0.5943 0.536698 -0.598968
105.869 102.899 151.593 -0.5943 0.536698 -0.598968
105.922 103.397 151.987 -0.5943 0.536698 -0.598968
106.565 103.315 151.275 -0.600196 0.666589 -0.442069
106.279 102.972 151.147 -0.600196 0.666589 -0.442069
105.869 102.899 151.593 -0.600196 0.666589 -0.442069
106.565 103.315 151.275 -0.455423 0.626064 -0.632956
106.741 104.009 151.835 -0.455423 0.626064 -0.632956
107.555 103.858 151.1 -0.455423 0.626064 -0.632956
108.387 103.011 151.159 0.476942 -0.433159 -0.764787
108.7 103.496 151.08 0.476942 -0.433159 -0.764787
108.782 103.041 151.389 0.476942 -0.433159 -0.764787
108.782 103.041 151.389 0.750388 -0.272891 -0.602037
108.7 103.496 151.08 0.750388 -0.272891 -0.602037
109.021 103.898 151.297 0.750388 -0.272891 -0.602037
108.782 103.041 151.389 0.841913 -0.283184 -0.459336
109.021 103.898 151.297 0.841913 -0.283184 -0.459336
109.166 103.03 152.099 0.841913 -0.283184 -0.459336
109.166 103.03 152.099 0.986076 0.0120978 -0.165855
109.021 103.898 151.297 0.986076 0.0120978 -0.165855
109.148 104.052 152.063 0.986076 0.0120978 -0.165855
107.866 104.451 151.471 -0.496092 0.659096 -0.56523
106.936 104.436 152.271 -0.496092 0.659096 -0.56523
107.687 104.898 152.15 -0.496092 0.659096 -0.56523
107.866 104.451 151.471 -0.452587 0.729179 -0.513287
106.741 104.009 151.835 -0.452587 0.729179 -0.513287
106.936 104.436 152.271 -0.452587 0.729179 -0.513287
107.866 104.451 151.471 -0.451859 0.631479 -0.630125
107.555 103.858 151.1 -0.451859 0.631479 -0.630125
106.741 104.009 151.835 -0.451859 0.631479 -0.630125
108.144 104.883 152.092 0.201861 0.759 -0.619008
108.69 104.637 151.968 0.201861 0.759 -0.619008
107.866 104.451 151.471 0.201861 0.759 -0.619008
108.69 104.637 151.968 -0.0709035 0.967275 -0.243621
108.79 104.485 151.334 -0.0709035 0.967275 -0.243621
107.866 104.451 151.471 -0.0709035 0.967275 -0.243621
109.148 104.052 152.063 0.902362 0.36851 -0.22348
109.021 103.898 151.297 0.902362 0.36851 -0.22348
108.79 104.485 151.334 0.902362 0.36851 -0.22348
108.69 104.637 151.968 0.789361 0.613519 -0.0224309
109.148 104.052 152.063 0.789361 0.613519 -0.0224309
108.79 104.485 151.334 0.789361 0.613519 -0.0224309
107.866 104.451 151.471 -0.68223 0.514629 -0.519345
107.687 104.898 152.15 -0.68223 0.514629 -0.519345
107.862 104.99 152.01 -0.68223 0.514629 -0.519345
108.144 104.883 152.092 0.427509 0.640674 -0.637787
107.866 104.451 151.471 0.427509 0.640674 -0.637787
107.862 104.99 152.01 0.427509 0.640674 -0.637787
106.934 101.203 152.297 -0.0816687 -0.984924 0.152498
107.556 101.132 152.175 -0.0816687 -0.984924 0.152498
107.548 101.21 152.673 -0.0816687 -0.984924 0.152498
107.556 101.132 152.175 0.265056 -0.952085 0.152573
107.908 101.252 152.314 0.265056 -0.952085 0.152573
107.548 101.21 152.673 0.265056 -0.952085 0.152573
105.781 102.019 152.313 -0.93402 -0.350311 -0.0699224
105.659 102.257 152.749 -0.93402 -0.350311 -0.0699224
105.648 102.393 152.212 -0.93402 -0.350311 -0.0699224
105.781 102.019 152.313 -0.596219 -0.762843 0.250187
105.998 102.103 153.086 -0.596219 -0.762843 0.250187
105.659 102.257 152.749 -0.596219 -0.762843 0.250187
106.432 101.478 152.299 -0.614905 -0.746689 0.253668
105.998 102.103 153.086 -0.614905 -0.746689 0.253668
105.781 102.019 152.313 -0.614905 -0.746689 0.253668
106.432 101.478 152.299 -0.364811 -0.816609 0.447283
106.82 101.731 153.078 -0.364811 -0.816609 0.447283
105.998 102.103 153.086 -0.364811 -0.816609 0.447283
106.432 101.478 152.299 -0.424848 -0.777126 0.464306
106.934 101.203 152.297 -0.424848 -0.777126 0.464306
106.82 101.731 153.078 -0.424848 -0.777126 0.464306
107.548 101.21 152.673 -0.29897 -0.809802 0.504815
106.82 101.731 153.078 -0.29897 -0.809802 0.504815
106.934 101.203 152.297 -0.29897 -0.809802 0.504815
107.869 101.559 153.089 -0.124676 -0.711409 0.691631
106.82 101.731 153.078 -0.124676 -0.711409 0.691631
107.548 101.21 152.673 -0.124676 -0.711409 0.691631
107.908 101.252 152.314 0.44516 -0.825086 0.347946
107.869 101.559 153.089 0.44516 -0.825086 0.347946
107.548 101.21 152.673 0.44516 -0.825086 0.347946
107.908 101.252 152.314 0.673227 -0.675725 0.300268
108.629 101.959 152.288 0.673227 -0.675725 0.300268
107.869 101.559 153.089 0.673227 -0.675725 0.300268
108.629 101.959 152.288 0.6459 -0.720677 0.251871
108.787 102.339 152.968 0.6459 -0.720677 0.251871
107.869 101.559 153.089 0.6459 -0.720677 0.251871
105.659 102.257 152.749 -0.939045 -0.134151 0.316541
105.776 102.492 153.197 -0.939045 -0.134151 0.316541
105.615 102.971 152.92 -0.939045 -0.134151 0.316541
105.659 102.257 152.749 -0.998016 -0.0628349 0.00409837
105.615 102.971 152.92 -0.998016 -0.0628349 0.00409837
105.648 102.393 152.212 -0.998016 -0.0628349 0.00409837
105.648 102.393 152.212 -0.997939 0.0177565 -0.0616562
105.615 102.971 152.92 -0.997939 0.0177565 -0.0616562
105.657 103.229 152.309 -0.997939 0.0177565 -0.0616562
105.998 102.103 153.086 -0.705837 -0.534407 0.464977
105.776 102.492 153.197 -0.705837 -0.534407 0.464977
105.659 102.257 152.749 -0.705837 -0.534407 0.464977
108.629 101.959 152.288 0.895814 -0.44274 0.0387123
109.166 103.03 152.099 0.895814 -0.44274 0.0387123
108.787 102.339 152.968 0.895814 -0.44274 0.0387123
108.787 102.339 152.968 0.945043 -0.160373 0.284911
109.166 103.03 152.099 0.945043 -0.160373 0.284911
108.973 103.319 152.904 0.945043 -0.160373 0.284911
105.996 104.065 152.68 -0.781587 0.488747 -0.387619
105.922 103.397 151.987 -0.781587 0.488747 -0.387619
105.657 103.229 152.309 -0.781587 0.488747 -0.387619
105.996 104.065 152.68 -0.892651 0.426496 -0.145863
105.657 103.229 152.309 -0.892651 0.426496 -0.145863
105.852 103.902 153.086 -0.892651 0.426496 -0.145863
105.852 103.902 153.086 -0.969921 0.241014 0.034135
105.657 103.229 152.309 -0.969921 0.241014 0.034135
105.615 102.971 152.92 -0.969921 0.241014 0.034135
105.922 103.397 151.987 -0.565651 0.623178 -0.540082
105.996 104.065 152.68 -0.565651 0.623178 -0.540082
106.741 104.009 151.835 -0.565651 0.623178 -0.540082
108.735 104.253 152.699 0.599158 0.587845 0.543551
108.461 104.153 153.11 0.599158 0.587845 0.543551
108.813 103.788 153.117 0.599158 0.587845 0.543551
108.735 104.253 152.699 0.955026 0.26964 0.12337
108.813 103.788 153.117 0.955026 0.26964 0.12337
108.973 103.319 152.904 0.955026 0.26964 0.12337
108.735 104.253 152.699 0.839466 0.310928 0.445668
108.973 103.319 152.904 0.839466 0.310928 0.445668
109.148 104.052 152.063 0.839466 0.310928 0.445668
109.148 104.052 152.063 0.973969 0.0257994 0.225207
108.973 103.319 152.904 0.973969 0.0257994 0.225207
109.166 103.03 152.099 0.973969 0.0257994 0.225207
106.741 104.009 151.835 -0.496044 0.720163 -0.485083
105.996 104.065 152.68 -0.496044 0.720163 -0.485083
106.936 104.436 152.271 -0.496044 0.720163 -0.485083
106.936 104.436 152.271 -0.473423 0.806192 -0.354858
105.996 104.065 152.68 -0.473423 0.806192 -0.354858
106.619 104.595 153.054 -0.473423 0.806192 -0.354858
107.687 104.898 152.15 -0.206267 0.932458 0.296608
107.593 104.607 153.0 -0.206267 0.932458 0.296608
107.997 104.884 152.41 -0.206267 0.932458 0.296608
107.687 104.898 152.15 -0.480977 0.844317 0.236197
106.936 104.436 152.271 -0.480977 0.844317 0.236197
107.593 104.607 153.0 -0.480977 0.844317 0.236197
106.936 104.436 152.271 -0.0231846 0.977882 -0.207869
106.619 104.595 153.054 -0.0231846 0.977882 -0.207869
107.593 104.607 153.0 -0.0231846 0.977882 -0.207869
108.461 104.153 153.11 0.321335 0.753223 0.573932
107.997 104.884 152.41 0.321335 0.753223 0.573932
107.593 104.607 153.0 0.321335 0.753223 0.573932
108.735 104.253 152.699 0.451493 0.749589 0.484015
107.997 104.884 152.41 0.451493 0.749589 0.484015
108.461 104.153 153.11 0.451493 0.749589 0.484015
108.735 104.253 152.699 0.567216 0.781688 0.259286
108.144 104.883 152.092 0.567216 0.781688 0.259286
107.997 104.884 152.41 0.567216 0.781688 0.259286
108.735 104.253 152.699 0.451 0.801419 0.392844
108.69 104.637 151.968 0.451 0.801419 0.392844
108.144 104.883 152.092 0.451 0.801419 0.392844
109.148 104.052 152.063 0.733709 0.619178 0.279804
108.69 104.637 151.968 0.733709 0.619178 0.279804
108.735 104.253 152.699 0.733709 0.619178 0.279804
107.687 104.898 152.15 -0.225733 0.920386 0.319271
107.997 104.884 152.41 -0.225733 0.920386 0.319271
107.862 104.99 152.01 -0.225733 0.920386 0.319271
108.144 104.883 152.092 0.313749 0.938857 0.141804
107.862 104.99 152.01 0.313749 0.938857 0.141804
107.997 104.884 152.41 0.313749 0.938857 0.141804
106.82 101.731 153.078 -0.373899 -0.842801 0.387151
106.998 102.026 153.893 -0.373899 -0.842801 0.387151
106.614 102.177 153.849 -0.373899 -0.842801 0.387151
105.998 102.103 153.086 -0.376904 -0.842033 0.385908
106.82 101.731 153.078 -0.376904 -0.842033 0.385908
106.614 102.177 153.849 -0.376904 -0.842033 0.385908
107.827 102.186 153.845 0.177739 -0.725933 0.664402
107.238 102.291 154.118 0.177739 -0.725933 0.664402
106.998 102.026 153.893 0.177739 -0.725933 0.664402
107.827 102.186 153.845 0.180969 -0.751661 0.634236
106.998 102.026 153.893 0.180969 -0.751661 0.634236
107.869 101.559 153.089 0.180969 -0.751661 0.634236
107.869 101.559 153.089 -0.155095 -0.917475 0.366312
106.998 102.026 153.893 -0.155095 -0.917475 0.366312
106.82 101.731 153.078 -0.155095 -0.917475 0.366312
107.869 101.559 153.089 0.652106 -0.747315 0.127587
108.787 102.339 152.968 0.652106 -0.747315 0.127587
108.521 102.17 153.34 0.652106 -0.747315 0.127587
107.827 102.186 153.845 0.417001 -0.68778 0.594196
107.869 101.559 153.089 0.417001 -0.68778 0.594196
108.521 102.17 153.34 0.417001 -0.68778 0.594196
105.776 102.492 153.197 -0.835461 0.034404 0.548472
105.955 103.282 153.419 -0.835461 0.034404 0.548472
105.615 102.971 152.92 -0.835461 0.034404 0.548472
105.776 102.492 153.197 -0.700946 -0.0420869 0.711972
106.45 102.869 153.882 -0.700946 -0.0420869 0.711972
105.955 103.282 153.419 -0.700946 -0.0420869 0.711972
105.776 102.492 153.197 -0.477922 -0.481304 0.734804
105.998 102.103 153.086 -0.477922 -0.481304 0.734804
106.45 102.869 153.882 -0.477922 -0.481304 0.734804
105.998 102.103 153.086 -0.750854 -0.208153 0.62681
106.614 102.177 153.849 -0.750854 -0.208153 0.62681
106.45 102.869 153.882 -0.750854 -0.208153 0.62681
107.827 102.186 153.845 0.326785 -0.393836 0.85913
107.829 102.652 154.058 0.326785 -0.393836 0.85913
107.238 102.291 154.118 0.326785 -0.393836 0.85913
107.829 102.652 154.058 0.616949 -0.0849766 0.782402
108.567 103.086 153.523 0.616949 -0.0849766 0.782402
107.935 103.191 154.033 0.616949 -0.0849766 0.782402
107.829 102.652 154.058 0.670704 -0.310361 0.673671
107.827 102.186 153.845 0.670704 -0.310361 0.673671
108.567 103.086 153.523 0.670704 -0.310361 0.673671
107.827 102.186 153.845 0.575325 -0.188096 0.796003
108.521 102.17 153.34 0.575325 -0.188096 0.796003
108.567 103.086 153.523 0.575325 -0.188096 0.796003
108.787 102.339 152.968 0.851094 -0.127934 0.509187
108.973 103.319 152.904 0.851094 -0.127934 0.509187
108.567 103.086 153.523 0.851094 -0.127934 0.509187
108.521 102.17 153.34 0.835137 -0.147927 0.529777
108.787 102.339 152.968 0.835137 -0.147927 0.529777
108.567 103.086 153.523 0.835137 -0.147927 0.529777
105.615 102.971 152.92 -0.854626 0.128039 0.503211
105.955 103.282 153.419 -0.854626 0.128039 0.503211
105.852 103.902 153.086 -0.854626 0.128039 0.503211
106.704 103.632 154.002 -0.637736 0.0926955 0.764657
105.955 103.282 153.419 -0.637736 0.0926955 0.764657
106.45 102.869 153.882 -0.637736 0.0926955 0.764657
106.704 103.632 154.002 -0.664952 0.49934 0.555427
106.799 104.058 153.732 -0.664952 0.49934 0.555427
105.955 103.282 153.419 -0.664952 0.49934 0.555427
106.799 104.058 153.732 -0.569826 0.313588 0.759579
105.852 103.902 153.086 -0.569826 0.313588 0.759579
105.955 103.282 153.419 -0.569826 0.313588 0.759579
106.799 104.058 153.732 0.107425 0.59892 0.793571
107.477 103.471 154.083 0.107425 0.59892 0.793571
107.845 103.922 153.693 0.107425 0.59892 0.793571
106.704 103.632 154.002 0.0216442 0.531639 0.846695
107.477 103.471 154.083 0.0216442 0.531639 0.846695
106.799 104.058 153.732 0.0216442 0.531639 0.846695
107.935 103.191 154.033 0.354125 0.429456 0.83076
107.845 103.922 153.693 0.354125 0.429456 0.83076
107.477 103.471 154.083 0.354125 0.429456 0.83076
108.567 103.086 153.523 0.615913 0.393048 0.682763
107.845 103.922 153.693 0.615913 0.393048 0.682763
107.935 103.191 154.033 0.615913 0.393048 0.682763
108.567 103.086 153.523 0.574253 0.344857 0.742501
108.461 104.153 153.11 0.574253 0.344857 0.742501
107.845 103.922 153.693 0.574253 0.344857 0.742501
108.567 103.086 153.523 0.363985 0.367708 0.855749
108.813 103.788 153.117 0.363985 0.367708 0.855749
108.461 104.153 153.11 0.363985 0.367708 0.855749
108.973 103.319 152.904 0.830834 0.030905 0.555661
108.813 103.788 153.117 0.830834 0.030905 0.555661
108.567 103.086 153.523 0.830834 0.030905 0.555661
106.619 104.595 153.054 -0.667697 0.741989 0.0602687
105.996 104.065 152.68 -0.667697 0.741989 0.0602687
105.852 103.902 153.086 -0.667697 0.741989 0.0602687
106.799 104.058 153.732 -0.516015 0.599875 0.611457
106.619 104.595 153.054 -0.516015 0.599875 0.611457
105.852 103.902 153.086 -0.516015 0.599875 0.611457
107.593 104.607 153.0 0.0247658 0.786828 0.616675
106.619 104.595 153.054 0.0247658 0.786828 0.616675
106.799 104.058 153.732 0.0247658 0.786828 0.616675
107.845 103.922 153.693 0.119854 0.727622 0.675427
107.593 104.607 153.0 0.119854 0.727622 0.675427
106.799 104.058 153.732 0.119854 0.727622 0.675427
108.461 104.153 153.11 0.304732 0.730507 0.611145
107.593 104.607 153.0 0.304732 0.730507 0.611145
107.845 103.922 153.693 0.304732 0.730507 0.611145
106.998 102.026 153.893 -0.31405 -0.586331 0.746719
106.852 102.395 154.121 -0.31405 -0.586331 0.746719
106.614 102.177 153.849 -0.31405 -0.586331 0.746719
106.998 102.026 153.893 -0.144827 -0.561353 0.814805
107.238 102.291 154.118 -0.144827 -0.561353 0.814805
106.852 102.395 154.121 -0.144827 -0.561353 0.814805
106.852 102.395 154.121 -0.509126 0.00122675 0.860691
106.916 103.104 154.157 -0.509126 0.00122675 0.860691
106.45 102.869 153.882 -0.509126 0.00122675 0.860691
106.614 102.177 153.849 -0.657608 -0.190858 0.728783
106.852 102.395 154.121 -0.657608 -0.190858 0.728783
106.45 102.869 153.882 -0.657608 -0.190858 0.728783
107.238 102.291 154.118 0.244357 -0.245583 0.938072
107.829 102.652 154.058 0.244357 -0.245583 0.938072
107.522 102.925 154.209 0.244357 -0.245583 0.938072
107.238 102.291 154.118 -0.0275473 -0.131297 0.99096
107.522 102.925 154.209 -0.0275473 -0.131297 0.99096
106.852 102.395 154.121 -0.0275473 -0.131297 0.99096
106.852 102.395 154.121 -0.0979721 -0.0427817 0.994269
107.522 102.925 154.209 -0.0979721 -0.0427817 0.994269
106.916 103.104 154.157 -0.0979721 -0.0427817 0.994269
107.829 102.652 154.058 0.414201 -0.039209 0.909341
107.935 103.191 154.033 0.414201 -0.039209 0.909341
107.522 102.925 154.209 0.414201 -0.039209 0.909341
106.45 102.869 153.882 -0.523487 0.0410471 0.851044
106.916 103.104 154.157 -0.523487 0.0410471 0.851044
106.704 103.632 154.002 -0.523487 0.0410471 0.851044
107.477 103.471 154.083 -0.0462824 0.265087 0.963113
106.704 103.632 154.002 -0.0462824 0.265087 0.963113
106.916 103.104 154.157 -0.0462824 0.265087 0.963113
107.522 102.925 154.209 -0.0177236 0.223714 0.974494
107.477 103.471 154.083 -0.0177236 0.223714 0.974494
106.916 103.104 154.157 -0.0177236 0.223714 0.974494
107.935 103.191 154.033 0.248841 0.23777 0.938906
107.477 103.471 154.083 0.248841 0.23777 0.938906
107.522 102.925 154.209 0.248841 0.23777 0.938906
3 0 1 2
3 3 4 5
3 6 7 8
3 9 10 11
3 12 13 14
3 15 16 17
3 18 19 20
3 21 22 23
3 24 25 26
3 27 28 29
3 30 31 32
3 33 34 35
3 36 37 38
3 39 40 41
3 42 43 44
3 45 46 47
3 48 49 50
3 51 52 53
3 54 55 56
3 57 58 59
3 60 61 62
3 63 64 65
3 66 67 68
3 69 70 71
3 72 73 74
3 75 76 77
3 78 79 80
3 81 82 83
3 84 85 86
3 87 88 89
3 90 91 92
3 93 94 95
3 96 97 98
3 99 100 101
3 102 103 104
3 105 106 107
3 108 109 110
3 111 112 113
3 114 115 116
3 117 118 119
3 120 121 122
3 123 124 125
3 126 127 128
3 129 130 131
3 132 133 134
3 135 136 137
3 138 139 140
3 141 142 143
3 144 145 146
3 147 148 149
3 150 151 152
3 153 154 155
3 156 157 158
3 159 160 161
3 162 163 164
3 165 166 167
3 168 169 170
3 171 172 173
3 174 175 176
3 177 178 179
3 180 181 182
3 183 184 185
3 186 187 188
3 189 190 191
3 192 193 194
3 195 196 197
3 198 199 200
3 201 202 203
3 204 205 206
3 207 208 209
3 210 211 212
3 213 214 215
3 216 217 218
3 219 220 221
3 222 223 224
3 225 226 227
3 228 229 230
3 231 232 233
3 234 235 236
3 237 238 239
3 240 241 242
3 243 244 245
3 246 247 248
3 249 250 251
3 252 253 254
3 255 256 257
3 258 259 260
3 261 262 263
3 264 265 266
3 267 268 269
3 270 271 272
3 273 274 275
3 276 277 278
3 279 280 281
3 282 283 284
3 285 286 287
3 288 289 290
3 291 292 293
3 294 295 296
3 297 298 299
3 300 301 302
3 303 304 305
3 306 307 308
3 309 310 311
3 312 313 314
3 315 316 317
3 318 319 320
3 321 322 323
3 324 325 326
3 327 328 329
3 330 331 332
3 333 334 335
3 336 337 338
3 339 340 341
3 342 343 344
3 345 346 347
3 348 349 350
3 351 352 353
3 354 355 356
3 357 358 359
3 360 361 362
3 363 364 365
3 366 367 368
3 369 370 371
3 372 373 374
3 375 376 377
3 378 379 380
3 381 382 383
3 384 385 386
3 387 388 389
3 390 391 392
3 393 394 395
3 396 397 398
3 399 400 401
3 402 403 404
3 405 406 407
3 408 409 410
3 411 412 413
3 414 415 416
3 417 418 419
3 420 421 422
3 423 424 425
