ply
format ascii 1.0
element vertex 246
property float x
property float y
property float z
property float nx
property float ny
property float nz
element face 82
property list uint uint vertex_indices
end_header
131.222 115.856 165.653 -0.472099 -0.744298 -0.47238
131.192 115.647 166.012 -0.472099 -0.744298 -0.47238
130.885 115.905 165.912 -0.472099 -0.744298 -0.47238
131.222 115.856 165.653 0.0373487 -0.525416 -0.850025
131.88 115.889 165.661 0.0373487 -0.525416 -0.850025
131.775 115.643 165.809 0.0373487 -0.525416 -0.850025
131.192 115.647 166.012 -0.1818 -0.843294 -0.50577
131.222 115.856 165.653 -0.1818 -0.843294 -0.50577
131.775 115.643 165.809 -0.1818 -0.843294 -0.50577
131.775 115.643 165.809 0.443856 -0.591439 -0.673196
131.88 115.889 165.661 0.443856 -0.591439 -0.673196
132.117 115.767 165.925 0.443856 -0.591439 -0.673196
130.995 116.488 165.668 -0.615773 -0.20256 -0.761441
131.222 115.856 165.653 -0.615773 -0.20256 -0.761441
130.885 115.905 165.912 -0.615773 -0.20256 -0.761441
130.587 116.68 166.088 -0.74066 -0.135858 -0.658001
130.995 116.488 165.668 -0.74066 -0.135858 -0.658001
130.885 115.905 165.912 -0.74066 -0.135858 -0.658001
131.88 115.889 165.661 0.0126111 -0.0111343 -0.999858
131.222 115.856 165.653 0.0126111 -0.0111343 -0.999858
131.7 116.542 165.651 0.0126111 -0.0111343 -0.999858
131.7 116.542 165.651 -0.0253291 0.0152793 -0.999562
131.222 115.856 165.653 -0.0253291 0.0152793 -0.999562
130.995 116.488 165.668 -0.0253291 0.0152793 -0.999562
132.23 116.476 165.983 0.728856 -0.060171 -0.682018
132.117 115.767 165.925 0.728856 -0.060171 -0.682018
131.88 115.889 165.661 0.728856 -0.060171 -0.682018
131.7 116.542 165.651 0.537927 0.135962 -0.831955
132.23 116.476 165.983 0.537927 0.135962 -0.831955
131.88 115.889 165.661 0.537927 0.135962 -0.831955
130.995 116.488 165.668 -0.579263 0.363791 -0.729459
130.587 116.68 166.088 -0.579263 0.363791 -0.729459
131.157 117.05 165.82 -0.579263 0.363791 -0.729459
131.7 116.542 165.651 -0.0441475 0.272452 -0.961156
130.995 116.488 165.668 -0.0441475 0.272452 -0.961156
131.157 117.05 165.82 -0.0441475 0.272452 -0.961156
131.873 117.064 165.886 0.0773005 0.388179 -0.918337
131.7 116.542 165.651 0.0773005 0.388179 -0.918337
131.157 117.05 165.82 0.0773005 0.388179 -0.918337
132.23 116.476 165.983 0.537953 0.191769 -0.820872
131.7 116.542 165.651 0.537953 0.191769 -0.820872
131.873 117.064 165.886 0.537953 0.191769 -0.820872
130.885 115.905 165.912 -0.650522 -0.758303 0.0423969
131.192 115.647 166.012 -0.650522 -0.758303 0.0423969
131.077 115.812 167.201 -0.650522 -0.758303 0.0423969
131.775 115.643 165.809 -0.0170906 -0.999433 -0.0289976
131.983 115.614 166.66 -0.0170906 -0.999433 -0.0289976
131.192 115.647 166.012 -0.0170906 -0.999433 -0.0289976
131.192 115.647 166.012 -0.140859 -0.982391 0.122749
131.983 115.614 166.66 -0.140859 -0.982391 0.122749
131.077 115.812 167.201 -0.140859 -0.982391 0.122749
131.983 115.614 166.66 0.374756 -0.919081 -0.121857
131.775 115.643 165.809 0.374756 -0.919081 -0.121857
132.117 115.767 165.925 0.374756 -0.919081 -0.121857
132.679 115.781 166.622 0.220845 -0.962286 -0.158852
131.983 115.614 166.66 0.220845 -0.962286 -0.158852
132.117 115.767 165.925 0.220845 -0.962286 -0.158852
130.885 115.905 165.912 -0.918978 -0.378755 0.109654
131.077 115.812 167.201 -0.918978 -0.378755 0.109654
130.587 116.68 166.088 -0.918978 -0.378755 0.109654
131.077 115.812 167.201 -0.735535 -0.651937 -0.184301
130.491 116.555 166.911 -0.735535 -0.651937 -0.184301
130.587 116.68 166.088 -0.735535 -0.651937 -0.184301
132.876 116.057 166.616 0.758739 0.279897 -0.588194
132.23 116.476 165.983 0.758739 0.279897 -0.588194
132.878 116.498 166.829 0.758739 0.279897 -0.588194
132.876 116.057 166.616 0.510979 -0.37863 -0.771712
132.679 115.781 166.622 0.510979 -0.37863 -0.771712
132.23 116.476 165.983 0.510979 -0.37863 -0.771712
132.679 115.781 166.622 0.776892 -0.0723924 -0.625458
132.117 115.767 165.925 0.776892 -0.0723924 -0.625458
132.23 116.476 165.983 0.776892 -0.0723924 -0.625458
130.99 117.461 166.343 -0.614843 0.51312 -0.598895
131.157 117.05 165.82 -0.614843 0.51312 -0.598895
130.587 116.68 166.088 -0.614843 0.51312 -0.598895
130.99 117.461 166.343 -0.834845 0.503703 -0.222076
130.587 116.68 166.088 -0.834845 0.503703 -0.222076
130.813 117.39 166.848 -0.834845 0.503703 -0.222076
130.813 117.39 166.848 -0.93312 0.355463 -0.0541568
130.587 116.68 166.088 -0.93312 0.355463 -0.0541568
130.491 116.555 166.911 -0.93312 0.355463 -0.0541568
131.157 117.05 165.82 0.0524187 0.698355 -0.713829
131.695 117.536 166.335 0.0524187 0.698355 -0.713829
131.873 117.064 165.886 0.0524187 0.698355 -0.713829
130.99 117.461 166.343 -0.0892516 0.769308 -0.632613
131.695 117.536 166.335 -0.0892516 0.769308 -0.632613
131.157 117.05 165.82 -0.0892516 0.769308 -0.632613
131.873 117.064 165.886 0.588843 0.662133 -0.463511
131.695 117.536 166.335 0.588843 0.662133 -0.463511
132.185 117.339 166.676 0.588843 0.662133 -0.463511
132.23 116.476 165.983 0.792432 0.40629 -0.45495
131.873 117.064 165.886 0.792432 0.40629 -0.45495
132.185 117.339 166.676 0.792432 0.40629 -0.45495
132.23 116.476 165.983 0.693943 0.472325 -0.543463
132.185 117.339 166.676 0.693943 0.472325 -0.543463
132.878 116.498 166.829 0.693943 0.472325 -0.543463
130.99 117.461 166.343 -0.59403 0.798658 -0.0963046
130.813 117.39 166.848 -0.59403 0.798658 -0.0963046
131.203 117.676 166.815 -0.59403 0.798658 -0.0963046
131.695 117.536 166.335 -0.102591 0.921523 -0.374527
130.99 117.461 166.343 -0.102591 0.921523 -0.374527
131.203 117.676 166.815 -0.102591 0.921523 -0.374527
131.871 117.675 166.87 0.0238993 0.965924 -0.257719
131.695 117.536 166.335 0.0238993 0.965924 -0.257719
131.203 117.676 166.815 0.0238993 0.965924 -0.257719
132.185 117.339 166.676 0.558567 0.739843 -0.375013
131.695 117.536 166.335 0.558567 0.739843 -0.375013
131.871 117.675 166.87 0.558567 0.739843 -0.375013
131.983 115.614 166.66 -0.182577 -0.981781 0.0526439
132.102 115.642 167.577 -0.182577 -0.981781 0.0526439
131.077 115.812 167.201 -0.182577 -0.981781 0.0526439
132.679 115.781 166.622 0.413589 -0.889902 -0.192399
132.998 115.832 167.068 0.413589 -0.889902 -0.192399
132.809 115.667 167.426 0.413589 -0.889902 -0.192399
132.679 115.781 166.622 0.21974 -0.960463 -0.170951
132.809 115.667 167.426 0.21974 -0.960463 -0.170951
131.983 115.614 166.66 0.21974 -0.960463 -0.170951
131.983 115.614 166.66 0.0414578 -0.998848 0.0241502
132.809 115.667 167.426 0.0414578 -0.998848 0.0241502
132.102 115.642 167.577 0.0414578 -0.998848 0.0241502
132.809 115.667 167.426 0.789 -0.598272 0.139822
132.998 115.832 167.068 0.789 -0.598272 0.139822
133.003 115.966 167.609 0.789 -0.598272 0.139822
131.077 115.812 167.201 -0.73132 -0.653228 -0.196123
130.827 115.999 167.51 -0.73132 -0.653228 -0.196123
130.491 116.555 166.911 -0.73132 -0.653228 -0.196123
130.827 115.999 167.51 -0.883753 -0.0305197 0.466957
130.82 116.683 167.542 -0.883753 -0.0305197 0.466957
130.491 116.555 166.911 -0.883753 -0.0305197 0.466957
132.679 115.781 166.622 0.721492 -0.522123 -0.454794
132.876 116.057 166.616 0.721492 -0.522123 -0.454794
132.998 115.832 167.068 0.721492 -0.522123 -0.454794
132.998 115.832 167.068 0.971777 0.0986097 -0.214302
132.876 116.057 166.616 0.971777 0.0986097 -0.214302
132.878 116.498 166.829 0.971777 0.0986097 -0.214302
132.998 115.832 167.068 0.985818 0.160269 -0.0497589
132.878 116.498 166.829 0.985818 0.160269 -0.0497589
133.003 115.966 167.609 0.985818 0.160269 -0.0497589
133.003 115.966 167.609 0.963275 0.267177 0.0268064
132.878 116.498 166.829 0.963275 0.267177 0.0268064
132.766 116.822 167.605 0.963275 0.267177 0.0268064
130.491 116.555 166.911 -0.855635 0.358093 0.373708
130.82 116.683 167.542 -0.855635 0.358093 0.373708
130.813 117.39 166.848 -0.855635 0.358093 0.373708
130.82 116.683 167.542 -0.985064 0.115482 0.127719
130.916 117.424 167.609 -0.985064 0.115482 0.127719
130.813 117.39 166.848 -0.985064 0.115482 0.127719
132.185 117.339 166.676 0.749304 0.653924 -0.104533
132.131 117.534 167.508 0.749304 0.653924 -0.104533
132.766 116.822 167.605 0.749304 0.653924 -0.104533
132.766 116.822 167.605 0.776744 0.613017 -0.144497
132.878 116.498 166.829 0.776744 0.613017 -0.144497
132.185 117.339 166.676 0.776744 0.613017 -0.144497
130.813 117.39 166.848 -0.84587 0.525566 0.0910172
130.916 117.424 167.609 -0.84587 0.525566 0.0910172
131.051 117.667 167.462 -0.84587 0.525566 0.0910172
131.203 117.676 166.815 -0.59363 0.79446 -0.128209
130.813 117.39 166.848 -0.59363 0.79446 -0.128209
131.051 117.667 167.462 -0.59363 0.79446 -0.128209
131.871 117.675 166.87 0.00488943 0.999661 -0.0255598
131.203 117.676 166.815 0.00488943 0.999661 -0.0255598
131.707 117.693 167.546 0.00488943 0.999661 -0.0255598
131.203 117.676 166.815 -0.0391331 0.999222 0.00480569
131.051 117.667 167.462 -0.0391331 0.999222 0.00480569
131.707 117.693 167.546 -0.0391331 0.999222 0.00480569
132.131 117.534 167.508 0.687928 0.715302 -0.122879
132.185 117.339 166.676 0.687928 0.715302 -0.122879
131.871 117.675 166.87 0.687928 0.715302 -0.122879
131.707 117.693 167.546 0.355317 0.932757 0.060946
132.131 117.534 167.508 0.355317 0.932757 0.060946
131.871 117.675 166.87 0.355317 0.932757 0.060946
131.077 115.812 167.201 -0.266322 -0.904492 0.333118
131.132 116.014 167.794 -0.266322 -0.904492 0.333118
130.827 115.999 167.51 -0.266322 -0.904492 0.333118
131.077 115.812 167.201 -0.290281 -0.871021 0.396307
132.102 115.642 167.577 -0.290281 -0.871021 0.396307
131.978 115.868 167.985 -0.290281 -0.871021 0.396307
131.132 116.014 167.794 -0.232634 -0.913733 0.333128
131.077 115.812 167.201 -0.232634 -0.913733 0.333128
131.978 115.868 167.985 -0.232634 -0.913733 0.333128
132.102 115.642 167.577 0.0915348 -0.959862 0.265114
132.809 115.667 167.426 0.0915348 -0.959862 0.265114
132.77 115.787 167.871 0.0915348 -0.959862 0.265114
131.978 115.868 167.985 -0.0215693 -0.87645 0.481009
132.102 115.642 167.577 -0.0215693 -0.87645 0.481009
132.77 115.787 167.871 -0.0215693 -0.87645 0.481009
132.809 115.667 167.426 0.743935 -0.6262 0.233313
133.003 115.966 167.609 0.743935 -0.6262 0.233313
132.77 115.787 167.871 0.743935 -0.6262 0.233313
131.132 116.014 167.794 -0.7727 -0.126696 0.621999
131.146 116.849 167.981 -0.7727 -0.126696 0.621999
130.82 116.683 167.542 -0.7727 -0.126696 0.621999
130.827 115.999 167.51 -0.678686 -0.0408947 0.733289
131.132 116.014 167.794 -0.678686 -0.0408947 0.733289
130.82 116.683 167.542 -0.678686 -0.0408947 0.733289
131.978 115.868 167.985 -0.266575 -0.391995 0.880498
131.866 116.553 168.256 -0.266575 -0.391995 0.880498
131.132 116.014 167.794 -0.266575 -0.391995 0.880498
131.866 116.553 168.256 -0.418022 -0.192343 0.887841
131.146 116.849 167.981 -0.418022 -0.192343 0.887841
131.132 116.014 167.794 -0.418022 -0.192343 0.887841
132.77 115.787 167.871 0.0837226 -0.433714 0.897152
132.695 116.474 168.211 0.0837226 -0.433714 0.897152
131.978 115.868 167.985 0.0837226 -0.433714 0.897152
132.695 116.474 168.211 0.0157502 -0.36573 0.930588
131.866 116.553 168.256 0.0157502 -0.36573 0.930588
131.978 115.868 167.985 0.0157502 -0.36573 0.930588
133.003 115.966 167.609 0.930755 0.25927 0.257827
132.766 116.822 167.605 0.930755 0.25927 0.257827
132.695 116.474 168.211 0.930755 0.25927 0.257827
132.77 115.787 167.871 0.795763 -0.195948 0.573032
133.003 115.966 167.609 0.795763 -0.195948 0.573032
132.695 116.474 168.211 0.795763 -0.195948 0.573032
131.146 116.849 167.981 -0.615911 0.239519 0.750523
131.183 117.542 167.791 -0.615911 0.239519 0.750523
130.916 117.424 167.609 -0.615911 0.239519 0.750523
130.82 116.683 167.542 -0.811063 0.0521112 0.582633
131.146 116.849 167.981 -0.811063 0.0521112 0.582633
130.916 117.424 167.609 -0.811063 0.0521112 0.582633
131.866 116.553 168.256 -0.265105 0.22553 0.937473
131.977 117.318 168.103 -0.265105 0.22553 0.937473
131.146 116.849 167.981 -0.265105 0.22553 0.937473
131.977 117.318 168.103 -0.286733 0.268483 0.91962
131.183 117.542 167.791 -0.286733 0.268483 0.91962
131.146 116.849 167.981 -0.286733 0.268483 0.91962
132.766 116.822 167.605 0.655676 0.639377 0.401604
132.131 117.534 167.508 0.655676 0.639377 0.401604
131.977 117.318 168.103 0.655676 0.639377 0.401604
132.766 116.822 167.605 0.659425 0.616284 0.430526
131.977 117.318 168.103 0.659425 0.616284 0.430526
132.695 116.474 168.211 0.659425 0.616284 0.430526
132.695 116.474 168.211 0.0709987 0.185379 0.980099
131.977 117.318 168.103 0.0709987 0.185379 0.980099
131.866 116.553 168.256 0.0709987 0.185379 0.980099
130.916 117.424 167.609 -0.607176 0.629732 0.484537
131.183 117.542 167.791 -0.607176 0.629732 0.484537
131.051 117.667 167.462 -0.607176 0.629732 0.484537
131.707 117.693 167.546 -0.0851413 0.918822 0.38538
131.051 117.667 167.462 -0.0851413 0.918822 0.38538
131.183 117.542 167.791 -0.0851413 0.918822 0.38538
131.977 117.318 168.103 0.0172144 0.833497 0.552256
131.707 117.693 167.546 0.0172144 0.833497 0.552256
131.183 117.542 167.791 0.0172144 0.833497 0.552256
132.131 117.534 167.508 0.353831 0.846336 0.398145
131.707 117.693 167.546 0.353831 0.846336 0.398145
131.977 117.318 168.103 0.353831 0.846336 0.398145
3 0 1 2
3 3 4 5
3 6 7 8
3 9 10 11
3 12 13 14
3 15 16 17
3 18 19 20
3 21 22 23
3 24 25 26
3 27 28 29
3 30 31 32
3 33 34 35
3 36 37 38
3 39 40 41
3 42 43 44
3 45 46 47
3 48 49 50
3 51 52 53
3 54 55 56
3 57 58 59
3 60 61 62
3 63 64 65
3 66 67 68
3 69 70 71
3 72 73 74
3 75 76 77
3 78 79 80
3 81 82 83
3 84 85 86
3 87 88 89
3 90 91 92
3 93 94 95
3 96 97 98
3 99 100 101
3 102 103 104
3 105 106 107
3 108 109 110
3 111 112 113
3 114 115 116
3 117 118 119
3 120 121 122
3 123 124 125
3 126 127 128
3 129 130 131
3 132 133 134
3 135 136 137
3 138 139 140
3 141 142 143
3 144 145 146
3 147 148 149
3 150 151 152
3 153 154 155
3 156 157 158
3 159 160 161
3 162 163 164
3 165 166 167
3 168 169 170
3 171 172 173
3 174 175 176
3 177 178 179
3 180 181 182
3 183 184 185
3 186 187 188
3 189 190 191
3 192 193 194
3 195 196 197
3 198 199 200
3 201 202 203
3 204 205 206
3 207 208 209
3 210 211 212
3 213 214 215
3 216 217 218
3 219 220 221
3 222 223 224
3 225 226 227
3 228 229 230
3 231 232 233
3 234 235 236
3 237 238 239
3 240 241 242
3 243 244 245
