ply
format ascii 1.0
element vertex 504
property float x
property float y
property float z
property float nx
property float ny
property float nz
element face 168
property list uint uint vertex_indices
end_header
61.6526 167.031 154.272 -0.152577 -0.44188 -0.884004
62.5798 166.956 154.15 -0.152577 -0.44188 -0.884004
62.4139 166.644 154.335 -0.152577 -0.44188 -0.884004
61.6182 166.604 154.623 -0.244493 -0.602323 -0.759888
61.6526 167.031 154.272 -0.244493 -0.602323 -0.759888
62.4139 166.644 154.335 -0.244493 -0.602323 -0.759888
62.4139 166.644 154.335 0.466888 -0.620821 -0.629759
62.5798 166.956 154.15 0.466888 -0.620821 -0.629759
62.7805 166.809 154.443 0.466888 -0.620821 -0.629759
61.3007 167.941 154.313 -0.479618 -0.146681 -0.865131
61.8287 167.882 154.031 -0.479618 -0.146681 -0.865131
61.6526 167.031 154.272 -0.479618 -0.146681 -0.865131
62.5798 166.956 154.15 -0.139448 -0.121843 -0.982705
61.6526 167.031 154.272 -0.139448 -0.121843 -0.982705
62.5217 167.745 154.061 -0.139448 -0.121843 -0.982705
62.5217 167.745 154.061 -0.0117573 -0.271234 -0.962442
61.6526 167.031 154.272 -0.0117573 -0.271234 -0.962442
61.8287 167.882 154.031 -0.0117573 -0.271234 -0.962442
63.0159 167.64 154.473 0.761677 -0.193521 -0.618383
62.7805 166.809 154.443 0.761677 -0.193521 -0.618383
62.5798 166.956 154.15 0.761677 -0.193521 -0.618383
62.5217 167.745 154.061 0.635163 -0.0408381 -0.771298
63.0159 167.64 154.473 0.635163 -0.0408381 -0.771298
62.5798 166.956 154.15 0.635163 -0.0408381 -0.771298
61.7565 168.67 154.064 -0.472502 -0.00629992 -0.881307
61.8287 167.882 154.031 -0.472502 -0.00629992 -0.881307
61.3007 167.941 154.313 -0.472502 -0.00629992 -0.881307
61.3311 168.634 154.287 -0.464463 -0.0127653 -0.8855
61.7565 168.67 154.064 -0.464463 -0.0127653 -0.8855
61.3007 167.941 154.313 -0.464463 -0.0127653 -0.8855
62.5217 167.745 154.061 0.0380995 -0.0258257 -0.99894
61.8287 167.882 154.031 0.0380995 -0.0258257 -0.99894
62.5045 168.712 154.035 0.0380995 -0.0258257 -0.99894
62.5045 168.712 154.035 -0.0405739 0.0382345 -0.998445
61.8287 167.882 154.031 -0.0405739 0.0382345 -0.998445
61.7565 168.67 154.064 -0.0405739 0.0382345 -0.998445
62.8874 168.588 154.286 0.630948 -0.0670569 -0.772922
63.0159 167.64 154.473 0.630948 -0.0670569 -0.772922
62.5217 167.745 154.061 0.630948 -0.0670569 -0.772922
62.5045 168.712 154.035 0.545423 -0.0125174 -0.838067
62.8874 168.588 154.286 0.545423 -0.0125174 -0.838067
62.5217 167.745 154.061 0.545423 -0.0125174 -0.838067
61.7565 168.67 154.064 -0.452172 0.403758 -0.795311
61.3311 168.634 154.287 -0.452172 0.403758 -0.795311
61.5792 169.094 154.38 -0.452172 0.403758 -0.795311
61.5792 169.094 154.38 -0.41781 0.417262 -0.807048
62.248 169.669 154.331 -0.41781 0.417262 -0.807048
62.4299 169.489 154.144 -0.41781 0.417262 -0.807048
61.5792 169.094 154.38 -0.419477 0.42322 -0.803071
62.4299 169.489 154.144 -0.419477 0.42322 -0.803071
61.7565 168.67 154.064 -0.419477 0.42322 -0.803071
61.7565 168.67 154.064 -0.0456134 0.134168 -0.989908
62.4299 169.489 154.144 -0.0456134 0.134168 -0.989908
62.5045 168.712 154.035 -0.0456134 0.134168 -0.989908
62.8338 169.565 154.448 0.577325 0.164067 -0.799861
62.8874 168.588 154.286 0.577325 0.164067 -0.799861
62.5045 168.712 154.035 0.577325 0.164067 -0.799861
62.4299 169.489 154.144 0.572598 0.167217 -0.802602
62.8338 169.565 154.448 0.572598 0.167217 -0.802602
62.5045 168.712 154.035 0.572598 0.167217 -0.802602
62.4299 169.489 154.144 -0.159615 0.629599 -0.760347
62.248 169.669 154.331 -0.159615 0.629599 -0.760347
62.5002 170.034 154.58 -0.159615 0.629599 -0.760347
62.8338 169.565 154.448 0.447363 0.523263 -0.725301
62.4299 169.489 154.144 0.447363 0.523263 -0.725301
62.5002 170.034 154.58 0.447363 0.523263 -0.725301
60.7189 166.918 155.161 -0.566972 -0.493933 -0.659222
61.6526 167.031 154.272 -0.566972 -0.493933 -0.659222
61.6182 166.604 154.623 -0.566972 -0.493933 -0.659222
60.7189 166.918 155.161 -0.515632 -0.741742 -0.428885
61.6182 166.604 154.623 -0.515632 -0.741742 -0.428885
60.9605 166.616 155.391 -0.515632 -0.741742 -0.428885
60.9605 166.616 155.391 -0.111274 -0.990667 -0.078718
61.6182 166.604 154.623 -0.111274 -0.990667 -0.078718
61.7425 166.531 155.355 -0.111274 -0.990667 -0.078718
62.4139 166.644 154.335 0.0172714 -0.995716 -0.0908371
62.4834 166.58 155.042 0.0172714 -0.995716 -0.0908371
61.6182 166.604 154.623 0.0172714 -0.995716 -0.0908371
61.6182 166.604 154.623 0.0226432 -0.994543 -0.101845
62.4834 166.58 155.042 0.0226432 -0.994543 -0.101845
61.7425 166.531 155.355 0.0226432 -0.994543 -0.101845
62.4834 166.58 155.042 0.43884 -0.890131 -0.122823
62.4139 166.644 154.335 0.43884 -0.890131 -0.122823
62.7805 166.809 154.443 0.43884 -0.890131 -0.122823
62.9702 166.926 155.22 0.583642 -0.811738 -0.0210415
62.4834 166.58 155.042 0.583642 -0.811738 -0.0210415
62.7805 166.809 154.443 0.583642 -0.811738 -0.0210415
61.6526 167.031 154.272 -0.701466 -0.241261 -0.670626
60.6366 167.749 155.077 -0.701466 -0.241261 -0.670626
61.3007 167.941 154.313 -0.701466 -0.241261 -0.670626
60.7189 166.918 155.161 -0.673521 -0.139883 -0.725811
60.6366 167.749 155.077 -0.673521 -0.139883 -0.725811
61.6526 167.031 154.272 -0.673521 -0.139883 -0.725811
63.5523 167.497 155.238 0.708513 -0.410584 -0.57396
63.0159 167.64 154.473 0.708513 -0.410584 -0.57396
63.6113 167.86 155.051 0.708513 -0.410584 -0.57396
63.5523 167.497 155.238 0.600618 -0.595814 -0.533164
62.9702 166.926 155.22 0.600618 -0.595814 -0.533164
63.0159 167.64 154.473 0.600618 -0.595814 -0.533164
62.9702 166.926 155.22 0.946048 -0.26109 -0.191897
62.7805 166.809 154.443 0.946048 -0.26109 -0.191897
63.0159 167.64 154.473 0.946048 -0.26109 -0.191897
63.5523 167.497 155.238 0.833541 -0.353808 -0.424299
63.6113 167.86 155.051 0.833541 -0.353808 -0.424299
63.8429 167.825 155.535 0.833541 -0.353808 -0.424299
60.4574 168.569 155.464 -0.885498 0.0257379 -0.463929
60.795 168.593 154.821 -0.885498 0.0257379 -0.463929
60.6366 167.749 155.077 -0.885498 0.0257379 -0.463929
61.3007 167.941 154.313 -0.705889 0.0044688 -0.708309
60.795 168.593 154.821 -0.705889 0.0044688 -0.708309
61.3311 168.634 154.287 -0.705889 0.0044688 -0.708309
60.6366 167.749 155.077 -0.745515 -0.061063 -0.663685
60.795 168.593 154.821 -0.745515 -0.061063 -0.663685
61.3007 167.941 154.313 -0.745515 -0.061063 -0.663685
63.6113 167.86 155.051 0.739738 0.342234 -0.579364
63.2153 168.685 155.033 0.739738 0.342234 -0.579364
63.7298 168.205 155.406 0.739738 0.342234 -0.579364
63.6113 167.86 155.051 0.614187 0.278497 -0.738386
63.0159 167.64 154.473 0.614187 0.278497 -0.738386
63.2153 168.685 155.033 0.614187 0.278497 -0.738386
63.0159 167.64 154.473 0.912707 0.0435741 -0.406285
62.8874 168.588 154.286 0.912707 0.0435741 -0.406285
63.2153 168.685 155.033 0.912707 0.0435741 -0.406285
63.8429 167.825 155.535 0.898553 0.124519 -0.420829
63.6113 167.86 155.051 0.898553 0.124519 -0.420829
63.7298 168.205 155.406 0.898553 0.124519 -0.420829
60.795 168.593 154.821 -0.817868 0.398883 -0.414709
60.4574 168.569 155.464 -0.817868 0.398883 -0.414709
60.847 169.072 155.18 -0.817868 0.398883 -0.414709
61.6705 169.664 154.859 -0.63235 0.699912 -0.332049
60.847 169.072 155.18 -0.63235 0.699912 -0.332049
61.3124 169.608 155.422 -0.63235 0.699912 -0.332049
61.5792 169.094 154.38 -0.617953 0.561362 -0.550461
60.847 169.072 155.18 -0.617953 0.561362 -0.550461
61.6705 169.664 154.859 -0.617953 0.561362 -0.550461
61.5792 169.094 154.38 -0.644964 0.501352 -0.576773
60.795 168.593 154.821 -0.644964 0.501352 -0.576773
60.847 169.072 155.18 -0.644964 0.501352 -0.576773
61.5792 169.094 154.38 -0.641316 0.468222 -0.60785
61.3311 168.634 154.287 -0.641316 0.468222 -0.60785
60.795 168.593 154.821 -0.641316 0.468222 -0.60785
61.5792 169.094 154.38 -0.548831 0.587459 -0.594707
61.6705 169.664 154.859 -0.548831 0.587459 -0.594707
62.248 169.669 154.331 -0.548831 0.587459 -0.594707
62.8874 168.588 154.286 0.903587 0.117707 -0.411917
62.8338 169.565 154.448 0.903587 0.117707 -0.411917
63.2153 168.685 155.033 0.903587 0.117707 -0.411917
63.2153 168.685 155.033 0.924479 0.17571 -0.338326
62.8338 169.565 154.448 0.924479 0.17571 -0.338326
63.1313 169.737 155.35 0.924479 0.17571 -0.338326
61.6705 169.664 154.859 -0.65429 0.670956 -0.348888
61.3124 169.608 155.422 -0.65429 0.670956 -0.348888
61.8015 169.986 155.233 -0.65429 0.670956 -0.348888
62.5002 170.034 154.58 -0.504624 0.712254 -0.487903
61.8015 169.986 155.233 -0.504624 0.712254 -0.487903
62.3602 170.482 155.379 -0.504624 0.712254 -0.487903
62.5002 170.034 154.58 -0.486291 0.738974 -0.466304
61.6705 169.664 154.859 -0.486291 0.738974 -0.466304
61.8015 169.986 155.233 -0.486291 0.738974 -0.466304
62.5002 170.034 154.58 -0.487534 0.696428 -0.526591
62.248 169.669 154.331 -0.487534 0.696428 -0.526591
61.6705 169.664 154.859 -0.487534 0.696428 -0.526591
62.5002 170.034 154.58 0.496596 0.544351 -0.676073
62.8443 170.414 155.139 0.496596 0.544351 -0.676073
62.8338 169.565 154.448 0.496596 0.544351 -0.676073
62.8338 169.565 154.448 0.897256 0.272076 -0.347715
62.8443 170.414 155.139 0.897256 0.272076 -0.347715
63.1313 169.737 155.35 0.897256 0.272076 -0.347715
62.5002 170.034 154.58 -0.479491 0.726865 -0.491687
62.3602 170.482 155.379 -0.479491 0.726865 -0.491687
62.6919 170.684 155.354 -0.479491 0.726865 -0.491687
62.8443 170.414 155.139 0.300754 0.692259 -0.655991
62.5002 170.034 154.58 0.300754 0.692259 -0.655991
62.6919 170.684 155.354 0.300754 0.692259 -0.655991
60.9605 166.616 155.391 -0.758715 -0.649254 -0.0531073
60.6735 166.93 155.662 -0.758715 -0.649254 -0.0531073
60.7189 166.918 155.161 -0.758715 -0.649254 -0.0531073
61.2259 166.852 156.258 -0.505938 -0.780616 0.366967
60.6735 166.93 155.662 -0.505938 -0.780616 0.366967
60.9605 166.616 155.391 -0.505938 -0.780616 0.366967
61.2259 166.852 156.258 -0.479106 -0.798857 0.363711
60.9605 166.616 155.391 -0.479106 -0.798857 0.363711
61.6064 166.603 156.212 -0.479106 -0.798857 0.363711
61.6064 166.603 156.212 -0.104733 -0.99233 0.0656665
60.9605 166.616 155.391 -0.104733 -0.99233 0.0656665
61.7425 166.531 155.355 -0.104733 -0.99233 0.0656665
62.4834 166.58 155.042 0.101545 -0.991122 0.0858198
62.4797 166.663 156.003 0.101545 -0.991122 0.0858198
61.7425 166.531 155.355 0.101545 -0.991122 0.0858198
61.7425 166.531 155.355 0.0918867 -0.991054 0.0967975
62.4797 166.663 156.003 0.0918867 -0.991054 0.0967975
61.6064 166.603 156.212 0.0918867 -0.991054 0.0967975
62.4797 166.663 156.003 0.559133 -0.82583 0.0733228
62.4834 166.58 155.042 0.559133 -0.82583 0.0733228
62.9702 166.926 155.22 0.559133 -0.82583 0.0733228
63.309 167.37 156.265 0.619743 -0.774184 0.128675
62.4797 166.663 156.003 0.619743 -0.774184 0.128675
62.9702 166.926 155.22 0.619743 -0.774184 0.128675
60.6735 166.93 155.662 -0.900843 -0.253347 0.352557
60.7831 167.377 156.263 -0.900843 -0.253347 0.352557
60.599 167.817 156.109 -0.900843 -0.253347 0.352557
60.6735 166.93 155.662 -0.995262 -0.0385149 -0.0892793
60.599 167.817 156.109 -0.995262 -0.0385149 -0.0892793
60.7189 166.918 155.161 -0.995262 -0.0385149 -0.0892793
60.7189 166.918 155.161 -0.994408 -0.1014 -0.0295248
60.599 167.817 156.109 -0.994408 -0.1014 -0.0295248
60.6366 167.749 155.077 -0.994408 -0.1014 -0.0295248
61.2259 166.852 156.258 -0.646932 -0.550704 0.527451
60.7831 167.377 156.263 -0.646932 -0.550704 0.527451
60.6735 166.93 155.662 -0.646932 -0.550704 0.527451
63.5523 167.497 155.238 0.696837 -0.713018 0.0776115
63.309 167.37 156.265 0.696837 -0.713018 0.0776115
62.9702 166.926 155.22 0.696837 -0.713018 0.0776115
63.309 167.37 156.265 0.708483 -0.700965 0.0818539
63.5523 167.497 155.238 0.708483 -0.700965 0.0818539
63.8429 167.825 155.535 0.708483 -0.700965 0.0818539
63.8285 167.985 156.385 0.74331 -0.654974 0.13601
63.309 167.37 156.265 0.74331 -0.654974 0.13601
63.8429 167.825 155.535 0.74331 -0.654974 0.13601
60.6366 167.749 155.077 -0.978837 -0.203424 -0.0222647
60.599 167.817 156.109 -0.978837 -0.203424 -0.0222647
60.4574 168.569 155.464 -0.978837 -0.203424 -0.0222647
60.599 167.817 156.109 -0.988014 -0.147759 0.0446721
60.4837 168.59 156.113 -0.988014 -0.147759 0.0446721
60.4574 168.569 155.464 -0.988014 -0.147759 0.0446721
63.7298 168.205 155.406 0.745242 0.364421 -0.558401
63.2153 168.685 155.033 0.745242 0.364421 -0.558401
63.6715 168.973 155.83 0.745242 0.364421 -0.558401
63.7298 168.205 155.406 0.892173 0.268131 -0.363502
63.6715 168.973 155.83 0.892173 0.268131 -0.363502
63.9053 168.601 156.129 0.892173 0.268131 -0.363502
63.7298 168.205 155.406 0.932519 0.169176 -0.319042
63.9053 168.601 156.129 0.932519 0.169176 -0.319042
63.8429 167.825 155.535 0.932519 0.169176 -0.319042
63.8429 167.825 155.535 0.993417 -0.108341 0.0372213
63.9053 168.601 156.129 0.993417 -0.108341 0.0372213
63.8285 167.985 156.385 0.993417 -0.108341 0.0372213
60.4574 168.569 155.464 -0.736017 0.67691 0.00845251
60.4837 168.59 156.113 -0.736017 0.67691 0.00845251
60.8188 168.954 156.164 -0.736017 0.67691 0.00845251
60.847 169.072 155.18 -0.774473 0.630304 0.053936
60.4574 168.569 155.464 -0.774473 0.630304 0.053936
60.8188 168.954 156.164 -0.774473 0.630304 0.053936
60.8188 168.954 156.164 -0.765873 0.640599 0.0554248
61.3124 169.608 155.422 -0.765873 0.640599 0.0554248
60.847 169.072 155.18 -0.765873 0.640599 0.0554248
61.7362 169.8 156.243 -0.675446 0.714823 0.181112
61.3124 169.608 155.422 -0.675446 0.714823 0.181112
60.8188 168.954 156.164 -0.675446 0.714823 0.181112
63.6715 168.973 155.83 0.786089 0.185472 -0.58963
63.1313 169.737 155.35 0.786089 0.185472 -0.58963
63.5999 169.782 155.989 0.786089 0.185472 -0.58963
63.2153 168.685 155.033 0.806958 0.228502 -0.544614
63.1313 169.737 155.35 0.806958 0.228502 -0.544614
63.6715 168.973 155.83 0.806958 0.228502 -0.544614
63.861 169.496 156.297 0.855798 0.135937 -0.499131
63.9053 168.601 156.129 0.855798 0.135937 -0.499131
63.6715 168.973 155.83 0.855798 0.135937 -0.499131
63.5999 169.782 155.989 0.826272 0.178162 -0.534353
63.861 169.496 156.297 0.826272 0.178162 -0.534353
63.6715 168.973 155.83 0.826272 0.178162 -0.534353
61.8015 169.986 155.233 -0.581002 0.806307 0.110934
61.3124 169.608 155.422 -0.581002 0.806307 0.110934
61.7362 169.8 156.243 -0.581002 0.806307 0.110934
61.7362 169.8 156.243 -0.67404 0.733015 0.0914259
62.3602 170.482 155.379 -0.67404 0.733015 0.0914259
61.8015 169.986 155.233 -0.67404 0.733015 0.0914259
62.5907 170.604 156.148 -0.677642 0.730268 0.0866622
62.3602 170.482 155.379 -0.677642 0.730268 0.0866622
61.7362 169.8 156.243 -0.677642 0.730268 0.0866622
63.5999 169.782 155.989 0.633422 0.560333 -0.53367
63.0298 170.467 156.032 0.633422 0.560333 -0.53367
63.6435 169.975 156.243 0.633422 0.560333 -0.53367
63.5999 169.782 155.989 0.644272 0.567988 -0.512155
63.1313 169.737 155.35 0.644272 0.567988 -0.512155
63.0298 170.467 156.032 0.644272 0.567988 -0.512155
63.1313 169.737 155.35 0.921833 0.325173 -0.210918
62.8443 170.414 155.139 0.921833 0.325173 -0.210918
63.0298 170.467 156.032 0.921833 0.325173 -0.210918
63.861 169.496 156.297 0.849325 0.340238 -0.40359
63.5999 169.782 155.989 0.849325 0.340238 -0.40359
63.6435 169.975 156.243 0.849325 0.340238 -0.40359
62.6919 170.684 155.354 -0.519043 0.854528 0.0193963
62.3602 170.482 155.379 -0.519043 0.854528 0.0193963
62.5907 170.604 156.148 -0.519043 0.854528 0.0193963
63.0298 170.467 156.032 0.778004 0.596485 -0.197267
62.8443 170.414 155.139 0.778004 0.596485 -0.197267
62.6919 170.684 155.354 0.778004 0.596485 -0.197267
62.5907 170.604 156.148 0.327445 0.935152 0.135168
63.0298 170.467 156.032 0.327445 0.935152 0.135168
62.6919 170.684 155.354 0.327445 0.935152 0.135168
61.6064 166.603 156.212 -0.13841 -0.960871 0.239937
61.9322 166.735 156.928 -0.13841 -0.960871 0.239937
61.5123 166.808 156.98 -0.13841 -0.960871 0.239937
61.2259 166.852 156.258 -0.527698 -0.834513 0.1585
61.6064 166.603 156.212 -0.527698 -0.834513 0.1585
61.5123 166.808 156.98 -0.527698 -0.834513 0.1585
63.309 167.37 156.265 0.538671 -0.733398 0.414681
62.1319 167.067 157.257 0.538671 -0.733398 0.414681
61.9322 166.735 156.928 0.538671 -0.733398 0.414681
63.309 167.37 156.265 0.531172 -0.760797 0.372886
61.9322 166.735 156.928 0.531172 -0.760797 0.372886
62.4797 166.663 156.003 0.531172 -0.760797 0.372886
62.4797 166.663 156.003 0.100831 -0.985597 0.135761
61.9322 166.735 156.928 0.100831 -0.985597 0.135761
61.6064 166.603 156.212 0.100831 -0.985597 0.135761
60.7831 167.377 156.263 -0.779126 -0.10995 0.61715
61.3378 167.528 156.99 -0.779126 -0.10995 0.61715
60.599 167.817 156.109 -0.779126 -0.10995 0.61715
60.7831 167.377 156.263 -0.618926 -0.52759 0.581876
61.2259 166.852 156.258 -0.618926 -0.52759 0.581876
61.3378 167.528 156.99 -0.618926 -0.52759 0.581876
61.2259 166.852 156.258 -0.910187 -0.225532 0.347412
61.5123 166.808 156.98 -0.910187 -0.225532 0.347412
61.3378 167.528 156.99 -0.910187 -0.225532 0.347412
63.309 167.37 156.265 0.517947 -0.766375 0.380001
62.8487 167.513 157.179 0.517947 -0.766375 0.380001
62.1319 167.067 157.257 0.517947 -0.766375 0.380001
63.517 167.774 156.716 0.5759 -0.686321 0.444188
63.0124 167.787 157.39 0.5759 -0.686321 0.444188
62.8487 167.513 157.179 0.5759 -0.686321 0.444188
63.309 167.37 156.265 0.558528 -0.729555 0.394709
63.517 167.774 156.716 0.558528 -0.729555 0.394709
62.8487 167.513 157.179 0.558528 -0.729555 0.394709
63.309 167.37 156.265 0.713328 -0.652876 0.254789
63.8285 167.985 156.385 0.713328 -0.652876 0.254789
63.517 167.774 156.716 0.713328 -0.652876 0.254789
60.599 167.817 156.109 -0.834713 -0.127262 0.535779
60.6621 168.583 156.389 -0.834713 -0.127262 0.535779
60.4837 168.59 156.113 -0.834713 -0.127262 0.535779
61.3159 168.503 156.994 -0.769318 -0.0195454 0.638567
60.599 167.817 156.109 -0.769318 -0.0195454 0.638567
61.3378 167.528 156.99 -0.769318 -0.0195454 0.638567
60.6621 168.583 156.389 -0.678094 -0.202615 0.706495
60.599 167.817 156.109 -0.678094 -0.202615 0.706495
61.3159 168.503 156.994 -0.678094 -0.202615 0.706495
63.517 167.774 156.716 0.707574 -0.457627 0.538439
63.5193 168.376 157.225 0.707574 -0.457627 0.538439
63.0124 167.787 157.39 0.707574 -0.457627 0.538439
63.5193 168.376 157.225 0.780511 -0.405183 0.476056
63.517 167.774 156.716 0.780511 -0.405183 0.476056
63.8285 167.985 156.385 0.780511 -0.405183 0.476056
63.5193 168.376 157.225 0.85983 -0.26167 0.43843
63.8285 167.985 156.385 0.85983 -0.26167 0.43843
63.806 168.842 156.941 0.85983 -0.26167 0.43843
63.806 168.842 156.941 0.987978 -0.0649755 0.140275
63.8285 167.985 156.385 0.987978 -0.0649755 0.140275
63.9053 168.601 156.129 0.987978 -0.0649755 0.140275
60.4837 168.59 156.113 -0.685228 0.567728 0.456231
60.6621 168.583 156.389 -0.685228 0.567728 0.456231
60.8188 168.954 156.164 -0.685228 0.567728 0.456231
61.7362 169.8 156.243 -0.85477 0.440859 0.273882
61.6003 169.09 156.962 -0.85477 0.440859 0.273882
61.7686 169.601 156.666 -0.85477 0.440859 0.273882
60.8188 168.954 156.164 -0.612488 0.617132 0.49397
61.6003 169.09 156.962 -0.612488 0.617132 0.49397
61.7362 169.8 156.243 -0.612488 0.617132 0.49397
60.8188 168.954 156.164 -0.694681 0.369979 0.616875
61.3159 168.503 156.994 -0.694681 0.369979 0.616875
61.6003 169.09 156.962 -0.694681 0.369979 0.616875
60.8188 168.954 156.164 -0.505203 0.594648 0.625431
60.6621 168.583 156.389 -0.505203 0.594648 0.625431
61.3159 168.503 156.994 -0.505203 0.594648 0.625431
61.6003 169.09 156.962 -0.534581 0.548939 0.642564
62.2398 169.586 157.071 -0.534581 0.548939 0.642564
61.7686 169.601 156.666 -0.534581 0.548939 0.642564
63.5475 169.783 156.589 0.5333 0.563334 0.631068
62.9761 169.789 157.066 0.5333 0.563334 0.631068
63.5163 169.169 157.163 0.5333 0.563334 0.631068
63.5475 169.783 156.589 0.796055 0.391406 0.461624
63.5163 169.169 157.163 0.796055 0.391406 0.461624
63.806 168.842 156.941 0.796055 0.391406 0.461624
63.5475 169.783 156.589 0.793149 0.392215 0.465921
63.806 168.842 156.941 0.793149 0.392215 0.465921
63.861 169.496 156.297 0.793149 0.392215 0.465921
63.861 169.496 156.297 0.993166 0.0279248 0.113322
63.806 168.842 156.941 0.993166 0.0279248 0.113322
63.9053 168.601 156.129 0.993166 0.0279248 0.113322
62.5907 170.604 156.148 -0.318838 0.744682 0.586337
62.5841 169.967 156.954 -0.318838 0.744682 0.586337
62.8611 170.418 156.532 -0.318838 0.744682 0.586337
61.7362 169.8 156.243 -0.557832 0.653201 0.512007
62.5841 169.967 156.954 -0.557832 0.653201 0.512007
62.5907 170.604 156.148 -0.557832 0.653201 0.512007
61.7362 169.8 156.243 -0.556055 0.65707 0.508981
62.2398 169.586 157.071 -0.556055 0.65707 0.508981
62.5841 169.967 156.954 -0.556055 0.65707 0.508981
61.7362 169.8 156.243 -0.336967 0.840984 0.423319
61.7686 169.601 156.666 -0.336967 0.840984 0.423319
62.2398 169.586 157.071 -0.336967 0.840984 0.423319
62.9761 169.789 157.066 0.0820119 0.653784 0.752224
62.8611 170.418 156.532 0.0820119 0.653784 0.752224
62.5841 169.967 156.954 0.0820119 0.653784 0.752224
63.5475 169.783 156.589 0.512756 0.608274 0.605875
62.8611 170.418 156.532 0.512756 0.608274 0.605875
62.9761 169.789 157.066 0.512756 0.608274 0.605875
63.5475 169.783 156.589 0.637944 0.715001 0.286007
63.0298 170.467 156.032 0.637944 0.715001 0.286007
62.8611 170.418 156.532 0.637944 0.715001 0.286007
63.5475 169.783 156.589 0.415024 0.741999 0.526491
63.6435 169.975 156.243 0.415024 0.741999 0.526491
63.0298 170.467 156.032 0.415024 0.741999 0.526491
63.861 169.496 156.297 0.793856 0.411089 0.448107
63.6435 169.975 156.243 0.793856 0.411089 0.448107
63.5475 169.783 156.589 0.793856 0.411089 0.448107
63.0298 170.467 156.032 0.3406 0.917432 0.205695
62.5907 170.604 156.148 0.3406 0.917432 0.205695
62.8611 170.418 156.532 0.3406 0.917432 0.205695
61.9322 166.735 156.928 -0.0916036 -0.867928 0.488169
61.6631 166.965 157.287 -0.0916036 -0.867928 0.488169
61.5123 166.808 156.98 -0.0916036 -0.867928 0.488169
61.9322 166.735 156.928 0.20363 -0.747288 0.632531
62.1319 167.067 157.257 0.20363 -0.747288 0.632531
61.6631 166.965 157.287 0.20363 -0.747288 0.632531
61.6631 166.965 157.287 -0.673138 0.000190107 0.739517
61.904 167.793 157.506 -0.673138 0.000190107 0.739517
61.3378 167.528 156.99 -0.673138 0.000190107 0.739517
61.5123 166.808 156.98 -0.831163 -0.208797 0.515337
61.6631 166.965 157.287 -0.831163 -0.208797 0.515337
61.3378 167.528 156.99 -0.831163 -0.208797 0.515337
62.1319 167.067 157.257 0.123485 -0.286958 0.949951
61.904 167.793 157.506 0.123485 -0.286958 0.949951
61.6631 166.965 157.287 0.123485 -0.286958 0.949951
62.1319 167.067 157.257 -0.535527 -0.419329 0.733058
62.5752 167.591 157.88 -0.535527 -0.419329 0.733058
61.904 167.793 157.506 -0.535527 -0.419329 0.733058
62.1319 167.067 157.257 0.527549 -0.796692 0.294914
62.8487 167.513 157.179 0.527549 -0.796692 0.294914
62.5752 167.591 157.88 0.527549 -0.796692 0.294914
62.5752 167.591 157.88 -0.473921 -0.764776 0.436481
62.5505 167.746 158.125 -0.473921 -0.764776 0.436481
61.904 167.793 157.506 -0.473921 -0.764776 0.436481
62.5752 167.591 157.88 0.67182 -0.660205 0.335839
62.8487 167.513 157.179 0.67182 -0.660205 0.335839
63.0124 167.787 157.39 0.67182 -0.660205 0.335839
62.8407 167.898 157.965 0.667277 -0.668448 0.328509
62.5752 167.591 157.88 0.667277 -0.668448 0.328509
63.0124 167.787 157.39 0.667277 -0.668448 0.328509
61.904 167.793 157.506 -0.525464 0.166409 0.834383
61.9155 168.824 157.307 -0.525464 0.166409 0.834383
61.3159 168.503 156.994 -0.525464 0.166409 0.834383
61.3378 167.528 156.99 -0.668449 -0.0176624 0.743549
61.904 167.793 157.506 -0.668449 -0.0176624 0.743549
61.3159 168.503 156.994 -0.668449 -0.0176624 0.743549
62.5658 167.927 158.013 -0.597281 0.458301 0.658192
61.904 167.793 157.506 -0.597281 0.458301 0.658192
62.5505 167.746 158.125 -0.597281 0.458301 0.658192
62.5658 167.927 158.013 -0.560811 0.596293 0.574392
62.7128 168.559 157.501 -0.560811 0.596293 0.574392
61.904 167.793 157.506 -0.560811 0.596293 0.574392
62.7128 168.559 157.501 -0.171847 0.187985 0.967021
61.9155 168.824 157.307 -0.171847 0.187985 0.967021
61.904 167.793 157.506 -0.171847 0.187985 0.967021
63.5193 168.376 157.225 0.289019 -0.151587 0.945246
63.4897 168.848 157.309 0.289019 -0.151587 0.945246
62.7128 168.559 157.501 0.289019 -0.151587 0.945246
63.5193 168.376 157.225 0.378244 0.580298 0.721239
62.7128 168.559 157.501 0.378244 0.580298 0.721239
62.8407 167.898 157.965 0.378244 0.580298 0.721239
63.5193 168.376 157.225 0.758837 -0.558756 0.334601
62.8407 167.898 157.965 0.758837 -0.558756 0.334601
63.0124 167.787 157.39 0.758837 -0.558756 0.334601
62.5658 167.927 158.013 0.198533 0.589129 0.78327
62.8407 167.898 157.965 0.198533 0.589129 0.78327
62.7128 168.559 157.501 0.198533 0.589129 0.78327
63.5193 168.376 157.225 0.756713 -0.069336 0.65006
63.806 168.842 156.941 0.756713 -0.069336 0.65006
63.4897 168.848 157.309 0.756713 -0.069336 0.65006
61.3159 168.503 156.994 -0.567114 0.316179 0.760535
61.9155 168.824 157.307 -0.567114 0.316179 0.760535
61.6003 169.09 156.962 -0.567114 0.316179 0.760535
62.2398 169.586 157.071 -0.470006 0.438318 0.766141
61.6003 169.09 156.962 -0.470006 0.438318 0.766141
61.9155 168.824 157.307 -0.470006 0.438318 0.766141
62.2398 169.586 157.071 -0.269431 0.388648 0.881113
61.9155 168.824 157.307 -0.269431 0.388648 0.881113
62.7668 169.446 157.294 -0.269431 0.388648 0.881113
62.7668 169.446 157.294 -0.154953 0.233617 0.959902
61.9155 168.824 157.307 -0.154953 0.233617 0.959902
62.7128 168.559 157.501 -0.154953 0.233617 0.959902
63.5163 169.169 157.163 0.296944 0.394509 0.86959
62.9761 169.789 157.066 0.296944 0.394509 0.86959
62.7668 169.446 157.294 0.296944 0.394509 0.86959
63.5163 169.169 157.163 0.292069 0.376809 0.87904
62.7668 169.446 157.294 0.292069 0.376809 0.87904
63.4897 168.848 157.309 0.292069 0.376809 0.87904
63.4897 168.848 157.309 0.156913 0.21551 0.963812
62.7668 169.446 157.294 0.156913 0.21551 0.963812
62.7128 168.559 157.501 0.156913 0.21551 0.963812
63.806 168.842 156.941 0.741045 0.226944 0.63194
63.5163 169.169 157.163 0.741045 0.226944 0.63194
63.4897 168.848 157.309 0.741045 0.226944 0.63194
62.2398 169.586 157.071 -0.234595 0.470913 0.850415
62.7668 169.446 157.294 -0.234595 0.470913 0.850415
62.5841 169.967 156.954 -0.234595 0.470913 0.850415
62.9761 169.789 157.066 0.00976914 0.547628 0.836665
62.5841 169.967 156.954 0.00976914 0.547628 0.836665
62.7668 169.446 157.294 0.00976914 0.547628 0.836665
62.5752 167.591 157.88 0.598542 -0.648251 0.470657
62.8407 167.898 157.965 0.598542 -0.648251 0.470657
62.5505 167.746 158.125 0.598542 -0.648251 0.470657
62.8407 167.898 157.965 0.199626 0.503935 0.840357
62.5658 167.927 158.013 0.199626 0.503935 0.840357
62.5505 167.746 158.125 0.199626 0.503935 0.840357
3 0 1 2
3 3 4 5
3 6 7 8
3 9 10 11
3 12 13 14
3 15 16 17
3 18 19 20
3 21 22 23
3 24 25 26
3 27 28 29
3 30 31 32
3 33 34 35
3 36 37 38
3 39 40 41
3 42 43 44
3 45 46 47
3 48 49 50
3 51 52 53
3 54 55 56
3 57 58 59
3 60 61 62
3 63 64 65
3 66 67 68
3 69 70 71
3 72 73 74
3 75 76 77
3 78 79 80
3 81 82 83
3 84 85 86
3 87 88 89
3 90 91 92
3 93 94 95
3 96 97 98
3 99 100 101
3 102 103 104
3 105 106 107
3 108 109 110
3 111 112 113
3 114 115 116
3 117 118 119
3 120 121 122
3 123 124 125
3 126 127 128
3 129 130 131
3 132 133 134
3 135 136 137
3 138 139 140
3 141 142 143
3 144 145 146
3 147 148 149
3 150 151 152
3 153 154 155
3 156 157 158
3 159 160 161
3 162 163 164
3 165 166 167
3 168 169 170
3 171 172 173
3 174 175 176
3 177 178 179
3 180 181 182
3 183 184 185
3 186 187 188
3 189 190 191
3 192 193 194
3 195 196 197
3 198 199 200
3 201 202 203
3 204 205 206
3 207 208 209
3 210 211 212
3 213 214 215
3 216 217 218
3 219 220 221
3 222 223 224
3 225 226 227
3 228 229 230
3 231 232 233
3 234 235 236
3 237 238 239
3 240 241 242
3 243 244 245
3 246 247 248
3 249 250 251
3 252 253 254
3 255 256 257
3 258 259 260
3 261 262 263
3 264 265 266
3 267 268 269
3 270 271 272
3 273 274 275
3 276 277 278
3 279 280 281
3 282 283 284
3 285 286 287
3 288 289 290
3 291 292 293
3 294 295 296
3 297 298 299
3 300 301 302
3 303 304 305
3 306 307 308
3 309 310 311
3 312 313 314
3 315 316 317
3 318 319 320
3 321 322 323
3 324 325 326
3 327 328 329
3 330 331 332
3 333 334 335
3 336 337 338
3 339 340 341
3 342 343 344
3 345 346 347
3 348 349 350
3 351 352 353
3 354 355 356
3 357 358 359
3 360 361 362
3 363 364 365
3 366 367 368
3 369 370 371
3 372 373 374
3 375 376 377
3 378 379 380
3 381 382 383
3 384 385 386
3 387 388 389
3 390 391 392
3 393 394 395
3 396 397 398
3 399 400 401
3 402 403 404
3 405 406 407
3 408 409 410
3 411 412 413
3 414 415 416
3 417 418 419
3 420 421 422
3 423 424 425
3 426 427 428
3 429 430 431
3 432 433 434
3 435 436 437
3 438 439 440
3 441 442 443
3 444 445 446
3 447 448 449
3 450 451 452
3 453 454 455
3 456 457 458
3 459 460 461
3 462 463 464
3 465 466 467
3 468 469 470
3 471 472 473
3 474 475 476
3 477 478 479
3 480 481 482
3 483 484 485
3 486 487 488
3 489 490 491
3 492 493 494
3 495 496 497
3 498 499 500
3 501 502 503
