solid ascii
 facet normal -0.356562 -0.792909 -0.494125
  outer loop
   vertex 98.2678 98.1003 184.252
   vertex 98.1701 97.8692 184.693
   vertex 97.9167 98.0746 184.547
  endloop
 endfacet
 facet normal -0.157299 -0.870643 -0.466088
  outer loop
   vertex 98.2678 98.1003 184.252
   vertex 99.1951 98.1173 183.907
   vertex 99.0213 97.8256 184.511
  endloop
 endfacet
 facet normal -0.14801 -0.862301 -0.484283
  outer loop
   vertex 98.1701 97.8692 184.693
   vertex 98.2678 98.1003 184.252
   vertex 99.0213 97.8256 184.511
  endloop
 endfacet
 facet normal 0.367328 -0.601188 -0.709678
  outer loop
   vertex 99.1951 98.1173 183.907
   vertex 99.9411 98.1527 184.263
   vertex 99.8141 97.8958 184.415
  endloop
 endfacet
 facet normal 0.0283938 -0.903173 -0.428337
  outer loop
   vertex 99.0213 97.8256 184.511
   vertex 99.1951 98.1173 183.907
   vertex 99.8141 97.8958 184.415
  endloop
 endfacet
 facet normal 0.640667 -0.600005 -0.479103
  outer loop
   vertex 99.8141 97.8958 184.415
   vertex 99.9411 98.1527 184.263
   vertex 100.098 98.0439 184.61
  endloop
 endfacet
 facet normal -0.642083 0.146876 -0.752434
  outer loop
   vertex 98.0383 98.6399 184.553
   vertex 98.2678 98.1003 184.252
   vertex 97.9167 98.0746 184.547
  endloop
 endfacet
 facet normal -0.345866 -0.083965 -0.93452
  outer loop
   vertex 99.1951 98.1173 183.907
   vertex 98.2678 98.1003 184.252
   vertex 98.828 98.7432 183.987
  endloop
 endfacet
 facet normal -0.588455 0.188551 -0.786238
  outer loop
   vertex 98.828 98.7432 183.987
   vertex 98.2678 98.1003 184.252
   vertex 98.0383 98.6399 184.553
  endloop
 endfacet
 facet normal 0.421334 0.13836 -0.896289
  outer loop
   vertex 99.9411 98.1527 184.263
   vertex 99.1951 98.1173 183.907
   vertex 99.7849 98.7644 184.284
  endloop
 endfacet
 facet normal 0.279304 0.280631 -0.918278
  outer loop
   vertex 99.7849 98.7644 184.284
   vertex 99.1951 98.1173 183.907
   vertex 98.828 98.7432 183.987
  endloop
 endfacet
 facet normal 0.906859 -0.0281942 -0.42049
  outer loop
   vertex 100.104 98.5878 184.586
   vertex 100.098 98.0439 184.61
   vertex 99.9411 98.1527 184.263
  endloop
 endfacet
 facet normal 0.73017 0.208816 -0.650575
  outer loop
   vertex 99.7849 98.7644 184.284
   vertex 100.104 98.5878 184.586
   vertex 99.9411 98.1527 184.263
  endloop
 endfacet
 facet normal -0.517184 0.598142 -0.612166
  outer loop
   vertex 98.828 98.7432 183.987
   vertex 98.0383 98.6399 184.553
   vertex 98.3299 98.9483 184.608
  endloop
 endfacet
 facet normal -0.102429 0.91722 -0.384988
  outer loop
   vertex 99.0934 99.004 184.538
   vertex 98.828 98.7432 183.987
   vertex 98.3299 98.9483 184.608
  endloop
 endfacet
 facet normal 0.128124 0.871049 -0.474192
  outer loop
   vertex 99.7849 98.7644 184.284
   vertex 98.828 98.7432 183.987
   vertex 99.0934 99.004 184.538
  endloop
 endfacet
 facet normal -0.635351 -0.768845 0.0721552
  outer loop
   vertex 98.1701 97.8692 184.693
   vertex 98.2212 97.8976 185.446
   vertex 97.9342 98.1129 185.212
  endloop
 endfacet
 facet normal -0.649464 -0.757971 0.0606363
  outer loop
   vertex 97.9167 98.0746 184.547
   vertex 98.1701 97.8692 184.693
   vertex 97.9342 98.1129 185.212
  endloop
 endfacet
 facet normal -0.0540041 -0.998447 -0.0136993
  outer loop
   vertex 99.0213 97.8256 184.511
   vertex 99.0032 97.8153 185.336
   vertex 98.1701 97.8692 184.693
  endloop
 endfacet
 facet normal -0.0984352 -0.99416 0.0442356
  outer loop
   vertex 98.1701 97.8692 184.693
   vertex 99.0032 97.8153 185.336
   vertex 98.2212 97.8976 185.446
  endloop
 endfacet
 facet normal 0.0841825 -0.995905 -0.0329709
  outer loop
   vertex 99.8141 97.8958 184.415
   vertex 99.8404 97.8737 185.149
   vertex 99.0213 97.8256 184.511
  endloop
 endfacet
 facet normal 0.0671764 -0.99768 -0.0110275
  outer loop
   vertex 99.0213 97.8256 184.511
   vertex 99.8404 97.8737 185.149
   vertex 99.0032 97.8153 185.336
  endloop
 endfacet
 facet normal 0.484759 -0.873557 -0.0436574
  outer loop
   vertex 99.8404 97.8737 185.149
   vertex 99.8141 97.8958 184.415
   vertex 100.098 98.0439 184.61
  endloop
 endfacet
 facet normal 0.735943 -0.661688 0.143374
  outer loop
   vertex 100.102 98.1956 185.29
   vertex 99.8404 97.8737 185.149
   vertex 100.098 98.0439 184.61
  endloop
 endfacet
 facet normal -0.977558 0.210225 0.013613
  outer loop
   vertex 97.9167 98.0746 184.547
   vertex 97.9342 98.1129 185.212
   vertex 98.0383 98.6399 184.553
  endloop
 endfacet
 facet normal -0.942965 0.316276 0.103858
  outer loop
   vertex 97.9342 98.1129 185.212
   vertex 98.1769 98.7484 185.481
   vertex 98.0383 98.6399 184.553
  endloop
 endfacet
 facet normal 0.999935 -0.0108811 -0.0034292
  outer loop
   vertex 100.098 98.0439 184.61
   vertex 100.104 98.5878 184.586
   vertex 100.102 98.1956 185.29
  endloop
 endfacet
 facet normal 0.998119 0.0523942 0.0318265
  outer loop
   vertex 100.102 98.1956 185.29
   vertex 100.104 98.5878 184.586
   vertex 100.075 98.7837 185.18
  endloop
 endfacet
 facet normal -0.728869 0.684043 0.0289161
  outer loop
   vertex 98.3299 98.9483 184.608
   vertex 98.0383 98.6399 184.553
   vertex 98.1769 98.7484 185.481
  endloop
 endfacet
 facet normal -0.0758314 0.99655 -0.0337295
  outer loop
   vertex 99.0934 99.004 184.538
   vertex 98.3299 98.9483 184.608
   vertex 98.8957 99.014 185.279
  endloop
 endfacet
 facet normal -0.30154 0.939539 0.162294
  outer loop
   vertex 98.3299 98.9483 184.608
   vertex 98.1769 98.7484 185.481
   vertex 98.8957 99.014 185.279
  endloop
 endfacet
 facet normal 0.2678 0.948967 -0.16657
  outer loop
   vertex 99.7849 98.7644 184.284
   vertex 99.0934 99.004 184.538
   vertex 99.7157 98.9578 185.275
  endloop
 endfacet
 facet normal 0.068499 0.99764 0.00475251
  outer loop
   vertex 99.0934 99.004 184.538
   vertex 98.8957 99.014 185.279
   vertex 99.7157 98.9578 185.275
  endloop
 endfacet
 facet normal 0.621607 0.75252 -0.217529
  outer loop
   vertex 100.075 98.7837 185.18
   vertex 100.104 98.5878 184.586
   vertex 99.7849 98.7644 184.284
  endloop
 endfacet
 facet normal 0.399183 0.904724 -0.148755
  outer loop
   vertex 99.7157 98.9578 185.275
   vertex 100.075 98.7837 185.18
   vertex 99.7849 98.7644 184.284
  endloop
 endfacet
 facet normal -0.733351 -0.561429 0.383398
  outer loop
   vertex 98.2212 97.8976 185.446
   vertex 98.2212 98.1708 185.846
   vertex 97.9342 98.1129 185.212
  endloop
 endfacet
 facet normal -0.0387539 -0.912485 0.407272
  outer loop
   vertex 98.2212 97.8976 185.446
   vertex 99.0032 97.8153 185.336
   vertex 99.0047 98.1038 185.983
  endloop
 endfacet
 facet normal -0.166495 -0.814278 0.556084
  outer loop
   vertex 98.2212 98.1708 185.846
   vertex 98.2212 97.8976 185.446
   vertex 99.0047 98.1038 185.983
  endloop
 endfacet
 facet normal 0.125207 -0.956947 0.26187
  outer loop
   vertex 99.0032 97.8153 185.336
   vertex 99.8404 97.8737 185.149
   vertex 99.7876 98.0338 185.76
  endloop
 endfacet
 facet normal 0.034419 -0.912692 0.407195
  outer loop
   vertex 99.0047 98.1038 185.983
   vertex 99.0032 97.8153 185.336
   vertex 99.7876 98.0338 185.76
  endloop
 endfacet
 facet normal 0.70006 -0.673492 0.237327
  outer loop
   vertex 99.8404 97.8737 185.149
   vertex 100.102 98.1956 185.29
   vertex 99.7876 98.0338 185.76
  endloop
 endfacet
 facet normal -0.902335 0.178785 0.392209
  outer loop
   vertex 97.9342 98.1129 185.212
   vertex 98.2212 98.1708 185.846
   vertex 98.1769 98.7484 185.481
  endloop
 endfacet
 facet normal -0.162421 0.0992305 0.981719
  outer loop
   vertex 99.0047 98.1038 185.983
   vertex 98.989 98.75 185.915
   vertex 98.2212 98.1708 185.846
  endloop
 endfacet
 facet normal -0.418362 0.462191 0.78189
  outer loop
   vertex 98.989 98.75 185.915
   vertex 98.1769 98.7484 185.481
   vertex 98.2212 98.1708 185.846
  endloop
 endfacet
 facet normal 0.268637 -0.0585037 0.961463
  outer loop
   vertex 99.7876 98.0338 185.76
   vertex 99.8306 98.649 185.785
   vertex 99.0047 98.1038 185.983
  endloop
 endfacet
 facet normal 0.163972 0.107006 0.980644
  outer loop
   vertex 99.8306 98.649 185.785
   vertex 98.989 98.75 185.915
   vertex 99.0047 98.1038 185.983
  endloop
 endfacet
 facet normal 0.911569 0.115929 0.394465
  outer loop
   vertex 100.102 98.1956 185.29
   vertex 100.075 98.7837 185.18
   vertex 99.8306 98.649 185.785
  endloop
 endfacet
 facet normal 0.84056 -0.0808703 0.535648
  outer loop
   vertex 99.7876 98.0338 185.76
   vertex 100.102 98.1956 185.29
   vertex 99.8306 98.649 185.785
  endloop
 endfacet
 facet normal -0.215972 0.890174 0.401182
  outer loop
   vertex 98.989 98.75 185.915
   vertex 98.8957 99.014 185.279
   vertex 98.1769 98.7484 185.481
  endloop
 endfacet
 facet normal 0.0652588 0.924979 0.374372
  outer loop
   vertex 99.7157 98.9578 185.275
   vertex 98.8957 99.014 185.279
   vertex 98.989 98.75 185.915
  endloop
 endfacet
 facet normal 0.177126 0.859186 0.480027
  outer loop
   vertex 99.8306 98.649 185.785
   vertex 99.7157 98.9578 185.275
   vertex 98.989 98.75 185.915
  endloop
 endfacet
 facet normal 0.481977 0.793461 0.371642
  outer loop
   vertex 100.075 98.7837 185.18
   vertex 99.7157 98.9578 185.275
   vertex 99.8306 98.649 185.785
  endloop
 endfacet
endsolid
