ply
format ascii 1.0
element vertex 234
property float x
property float y
property float z
property float nx
property float ny
property float nz
element face 78
property list uint uint vertex_indices
end_header
114.261 97.4759 150.297 0.108549 -0.233218 -0.966347
114.36 97.0013 150.423 0.108549 -0.233218 -0.966347
113.551 96.9853 150.336 0.108549 -0.233218 -0.966347
112.312 96.082 151.02 -0.194973 -0.806477 -0.558193
112.315 95.8568 151.345 -0.194973 -0.806477 -0.558193
111.796 96.0849 151.196 -0.194973 -0.806477 -0.558193
112.312 96.082 151.02 -0.0369554 -0.69057 -0.72232
113.259 96.14 150.916 -0.0369554 -0.69057 -0.72232
113.094 95.8704 151.183 -0.0369554 -0.69057 -0.72232
112.315 95.8568 151.345 -0.103648 -0.817452 -0.566594
112.312 96.082 151.02 -0.103648 -0.817452 -0.566594
113.094 95.8704 151.183 -0.103648 -0.817452 -0.566594
113.094 95.8704 151.183 0.357834 -0.757662 -0.545804
113.259 96.14 150.916 0.357834 -0.757662 -0.545804
113.79 96.0887 151.336 0.357834 -0.757662 -0.545804
111.509 96.7976 151.005 -0.727553 -0.228902 -0.646738
111.266 96.552 151.365 -0.727553 -0.228902 -0.646738
111.19 96.9784 151.299 -0.727553 -0.228902 -0.646738
111.796 96.0849 151.196 -0.590991 -0.422818 -0.68699
111.266 96.552 151.365 -0.590991 -0.422818 -0.68699
111.509 96.7976 151.005 -0.590991 -0.422818 -0.68699
111.796 96.0849 151.196 -0.303043 -0.359248 -0.882669
111.509 96.7976 151.005 -0.303043 -0.359248 -0.882669
112.312 96.082 151.02 -0.303043 -0.359248 -0.882669
112.312 96.082 151.02 -0.247187 -0.29738 -0.922206
111.509 96.7976 151.005 -0.247187 -0.29738 -0.922206
112.46 96.8806 150.723 -0.247187 -0.29738 -0.922206
113.551 96.9853 150.336 -0.250243 -0.488023 -0.836189
113.259 96.14 150.916 -0.250243 -0.488023 -0.836189
112.46 96.8806 150.723 -0.250243 -0.488023 -0.836189
113.259 96.14 150.916 -0.0826147 -0.334038 -0.938932
112.312 96.082 151.02 -0.0826147 -0.334038 -0.938932
112.46 96.8806 150.723 -0.0826147 -0.334038 -0.938932
113.259 96.14 150.916 0.261876 -0.860575 -0.436843
114.178 96.4084 150.939 0.261876 -0.860575 -0.436843
113.79 96.0887 151.336 0.261876 -0.860575 -0.436843
113.259 96.14 150.916 0.194292 -0.60029 -0.775824
113.551 96.9853 150.336 0.194292 -0.60029 -0.775824
114.178 96.4084 150.939 0.194292 -0.60029 -0.775824
113.551 96.9853 150.336 0.0924309 -0.67001 -0.736575
114.36 97.0013 150.423 0.0924309 -0.67001 -0.736575
114.178 96.4084 150.939 0.0924309 -0.67001 -0.736575
114.713 96.9168 151.001 0.63433 -0.609279 -0.47582
114.178 96.4084 150.939 0.63433 -0.609279 -0.47582
114.36 97.0013 150.423 0.63433 -0.609279 -0.47582
111.509 96.7976 151.005 -0.670302 0.0262832 -0.741623
111.19 96.9784 151.299 -0.670302 0.0262832 -0.741623
111.406 97.2339 151.113 -0.670302 0.0262832 -0.741623
111.406 97.2339 151.113 -0.639049 0.539418 -0.548311
111.898 97.8212 151.118 -0.639049 0.539418 -0.548311
112.13 97.6413 150.671 -0.639049 0.539418 -0.548311
111.406 97.2339 151.113 -0.551256 0.076486 -0.830823
112.13 97.6413 150.671 -0.551256 0.076486 -0.830823
111.509 96.7976 151.005 -0.551256 0.076486 -0.830823
111.509 96.7976 151.005 -0.264811 -0.180496 -0.947257
112.13 97.6413 150.671 -0.264811 -0.180496 -0.947257
112.46 96.8806 150.723 -0.264811 -0.180496 -0.947257
113.551 96.9853 150.336 -0.322339 -0.118224 -0.939213
112.46 96.8806 150.723 -0.322339 -0.118224 -0.939213
113.053 97.6988 150.417 -0.322339 -0.118224 -0.939213
112.46 96.8806 150.723 -0.25094 -0.17481 -0.952088
112.13 97.6413 150.671 -0.25094 -0.17481 -0.952088
113.053 97.6988 150.417 -0.25094 -0.17481 -0.952088
113.551 96.9853 150.336 -0.228323 0.256614 -0.939158
113.954 97.8346 150.47 -0.228323 0.256614 -0.939158
114.261 97.4759 150.297 -0.228323 0.256614 -0.939158
113.053 97.6988 150.417 0.0374246 0.138597 -0.989641
113.954 97.8346 150.47 0.0374246 0.138597 -0.989641
113.551 96.9853 150.336 0.0374246 0.138597 -0.989641
114.261 97.4759 150.297 0.644642 0.700385 -0.306427
113.954 97.8346 150.47 0.644642 0.700385 -0.306427
114.524 97.5787 151.085 0.644642 0.700385 -0.306427
114.261 97.4759 150.297 0.938501 0.109489 -0.327458
114.524 97.5787 151.085 0.938501 0.109489 -0.327458
114.36 97.0013 150.423 0.938501 0.109489 -0.327458
114.36 97.0013 150.423 0.833916 0.29706 -0.465122
114.524 97.5787 151.085 0.833916 0.29706 -0.465122
114.713 96.9168 151.001 0.833916 0.29706 -0.465122
112.13 97.6413 150.671 -0.468933 0.708151 -0.527848
111.898 97.8212 151.118 -0.468933 0.708151 -0.527848
112.554 98.2627 151.127 -0.468933 0.708151 -0.527848
113.053 97.6988 150.417 -0.234462 0.674451 -0.700102
112.13 97.6413 150.671 -0.234462 0.674451 -0.700102
112.554 98.2627 151.127 -0.234462 0.674451 -0.700102
113.954 97.8346 150.47 -0.0753977 0.754478 -0.65198
113.053 97.6988 150.417 -0.0753977 0.754478 -0.65198
112.554 98.2627 151.127 -0.0753977 0.754478 -0.65198
113.863 98.2058 151.246 0.0778482 0.903019 -0.422487
113.954 97.8346 150.47 0.0778482 0.903019 -0.422487
112.554 98.2627 151.127 0.0778482 0.903019 -0.422487
114.524 97.5787 151.085 0.625152 0.730074 -0.276001
113.954 97.8346 150.47 0.625152 0.730074 -0.276001
113.863 98.2058 151.246 0.625152 0.730074 -0.276001
112.315 95.8568 151.345 -0.19741 -0.98032 -0.00128421
112.363 95.8463 151.993 -0.19741 -0.98032 -0.00128421
111.65 95.9901 151.844 -0.19741 -0.98032 -0.00128421
111.796 96.0849 151.196 -0.34209 -0.915608 -0.211271
112.315 95.8568 151.345 -0.34209 -0.915608 -0.211271
111.65 95.9901 151.844 -0.34209 -0.915608 -0.211271
113.094 95.8704 151.183 0.0153481 -0.999835 -0.00975233
113.125 95.8648 151.803 0.0153481 -0.999835 -0.00975233
112.315 95.8568 151.345 0.0153481 -0.999835 -0.00975233
112.315 95.8568 151.345 0.0198628 -0.999645 -0.0177301
113.125 95.8648 151.803 0.0198628 -0.999645 -0.0177301
112.363 95.8463 151.993 0.0198628 -0.999645 -0.0177301
113.125 95.8648 151.803 0.303776 -0.952449 -0.023675
113.094 95.8704 151.183 0.303776 -0.952449 -0.023675
113.79 96.0887 151.336 0.303776 -0.952449 -0.023675
113.427 96.113 152.004 0.483169 -0.824914 0.293368
113.125 95.8648 151.803 0.483169 -0.824914 0.293368
113.79 96.0887 151.336 0.483169 -0.824914 0.293368
111.266 96.552 151.365 -0.955969 -0.293443 -0.0038252
111.334 96.3232 152.055 -0.955969 -0.293443 -0.0038252
111.162 96.8837 151.908 -0.955969 -0.293443 -0.0038252
111.19 96.9784 151.299 -0.979838 -0.185469 -0.0742824
111.266 96.552 151.365 -0.979838 -0.185469 -0.0742824
111.162 96.8837 151.908 -0.979838 -0.185469 -0.0742824
111.65 95.9901 151.844 -0.683656 -0.683991 -0.254499
111.266 96.552 151.365 -0.683656 -0.683991 -0.254499
111.796 96.0849 151.196 -0.683656 -0.683991 -0.254499
111.334 96.3232 152.055 -0.76009 -0.635368 -0.136276
111.266 96.552 151.365 -0.76009 -0.635368 -0.136276
111.65 95.9901 151.844 -0.76009 -0.635368 -0.136276
114.374 96.7951 151.481 0.735487 -0.648332 0.196788
113.79 96.0887 151.336 0.735487 -0.648332 0.196788
114.178 96.4084 150.939 0.735487 -0.648332 0.196788
114.374 96.7951 151.481 0.545687 -0.575976 0.608669
113.964 96.8536 151.905 0.545687 -0.575976 0.608669
113.79 96.0887 151.336 0.545687 -0.575976 0.608669
113.964 96.8536 151.905 0.757084 -0.491418 0.430502
113.427 96.113 152.004 0.757084 -0.491418 0.430502
113.79 96.0887 151.336 0.757084 -0.491418 0.430502
114.178 96.4084 150.939 0.645524 -0.712489 0.27506
114.713 96.9168 151.001 0.645524 -0.712489 0.27506
114.374 96.7951 151.481 0.645524 -0.712489 0.27506
111.488 97.688 151.85 -0.820013 0.523336 -0.231731
111.406 97.2339 151.113 -0.820013 0.523336 -0.231731
111.19 96.9784 151.299 -0.820013 0.523336 -0.231731
111.488 97.688 151.85 -0.926455 0.37609 0.0154043
111.19 96.9784 151.299 -0.926455 0.37609 0.0154043
111.162 96.8837 151.908 -0.926455 0.37609 0.0154043
111.406 97.2339 151.113 -0.730833 0.614231 -0.297664
111.488 97.688 151.85 -0.730833 0.614231 -0.297664
111.898 97.8212 151.118 -0.730833 0.614231 -0.297664
114.524 97.5787 151.085 0.717068 0.200359 0.667585
113.964 96.8536 151.905 0.717068 0.200359 0.667585
114.374 96.7951 151.481 0.717068 0.200359 0.667585
113.354 97.6792 152.212 0.682845 0.248696 0.68693
113.964 96.8536 151.905 0.682845 0.248696 0.68693
114.524 97.5787 151.085 0.682845 0.248696 0.68693
114.374 96.7951 151.481 0.789529 0.149857 0.595136
114.713 96.9168 151.001 0.789529 0.149857 0.595136
114.524 97.5787 151.085 0.789529 0.149857 0.595136
111.898 97.8212 151.118 -0.549404 0.820377 -0.158549
111.488 97.688 151.85 -0.549404 0.820377 -0.158549
112.554 98.2627 151.127 -0.549404 0.820377 -0.158549
112.554 98.2627 151.127 -0.585661 0.770483 -0.251708
111.488 97.688 151.85 -0.585661 0.770483 -0.251708
112.254 98.3144 151.985 -0.585661 0.770483 -0.251708
112.554 98.2627 151.127 0.0527003 0.997745 -0.0415624
112.254 98.3144 151.985 0.0527003 0.997745 -0.0415624
113.022 98.272 151.943 0.0527003 0.997745 -0.0415624
113.354 97.6792 152.212 0.622187 0.501185 0.601412
114.524 97.5787 151.085 0.622187 0.501185 0.601412
113.863 98.2058 151.246 0.622187 0.501185 0.601412
113.354 97.6792 152.212 0.546557 0.579702 0.604336
113.863 98.2058 151.246 0.546557 0.579702 0.604336
113.022 98.272 151.943 0.546557 0.579702 0.604336
113.022 98.272 151.943 0.0469484 0.998164 -0.0382688
113.863 98.2058 151.246 0.0469484 0.998164 -0.0382688
112.554 98.2627 151.127 0.0469484 0.998164 -0.0382688
112.363 95.8463 151.993 -0.270444 -0.822151 0.500927
112.17 96.1651 152.412 -0.270444 -0.822151 0.500927
111.65 95.9901 151.844 -0.270444 -0.822151 0.500927
112.363 95.8463 151.993 0.114812 -0.921793 0.370292
113.125 95.8648 151.803 0.114812 -0.921793 0.370292
113.019 95.9953 152.161 0.114812 -0.921793 0.370292
112.17 96.1651 152.412 0.0230951 -0.790308 0.612274
112.363 95.8463 151.993 0.0230951 -0.790308 0.612274
113.019 95.9953 152.161 0.0230951 -0.790308 0.612274
113.125 95.8648 151.803 0.396576 -0.81845 0.415773
113.427 96.113 152.004 0.396576 -0.81845 0.415773
113.019 95.9953 152.161 0.396576 -0.81845 0.415773
111.334 96.3232 152.055 -0.84488 -0.12206 0.520845
111.499 96.9251 152.465 -0.84488 -0.12206 0.520845
111.162 96.8837 151.908 -0.84488 -0.12206 0.520845
111.334 96.3232 152.055 -0.381489 -0.725505 0.572808
111.65 95.9901 151.844 -0.381489 -0.725505 0.572808
112.17 96.1651 152.412 -0.381489 -0.725505 0.572808
111.334 96.3232 152.055 -0.421838 -0.427951 0.799319
112.17 96.1651 152.412 -0.421838 -0.427951 0.799319
111.499 96.9251 152.465 -0.421838 -0.427951 0.799319
111.499 96.9251 152.465 -0.242657 -0.27891 0.929154
112.17 96.1651 152.412 -0.242657 -0.27891 0.929154
112.366 96.9941 152.712 -0.242657 -0.27891 0.929154
113.019 95.9953 152.161 0.190741 -0.383027 0.90383
113.153 96.6993 152.431 0.190741 -0.383027 0.90383
112.17 96.1651 152.412 0.190741 -0.383027 0.90383
113.153 96.6993 152.431 0.185191 -0.373004 0.90916
112.366 96.9941 152.712 0.185191 -0.373004 0.90916
112.17 96.1651 152.412 0.185191 -0.373004 0.90916
113.427 96.113 152.004 0.558609 -0.301914 0.772531
113.964 96.8536 151.905 0.558609 -0.301914 0.772531
113.153 96.6993 152.431 0.558609 -0.301914 0.772531
113.019 95.9953 152.161 0.427326 -0.393471 0.813986
113.427 96.113 152.004 0.427326 -0.393471 0.813986
113.153 96.6993 152.431 0.427326 -0.393471 0.813986
111.162 96.8837 151.908 -0.80924 0.361203 0.463317
111.499 96.9251 152.465 -0.80924 0.361203 0.463317
111.488 97.688 151.85 -0.80924 0.361203 0.463317
112.366 96.9941 152.712 -0.282911 0.182265 0.941669
112.253 97.7816 152.526 -0.282911 0.182265 0.941669
111.499 96.9251 152.465 -0.282911 0.182265 0.941669
112.253 97.7816 152.526 -0.609043 0.492114 0.622005
111.488 97.688 151.85 -0.609043 0.492114 0.622005
111.499 96.9251 152.465 -0.609043 0.492114 0.622005
113.153 96.6993 152.431 0.375895 0.127742 0.917815
113.354 97.6792 152.212 0.375895 0.127742 0.917815
112.366 96.9941 152.712 0.375895 0.127742 0.917815
113.354 97.6792 152.212 0.286891 0.259262 0.922213
112.253 97.7816 152.526 0.286891 0.259262 0.922213
112.366 96.9941 152.712 0.286891 0.259262 0.922213
113.153 96.6993 152.431 0.531899 0.0790582 0.84311
113.964 96.8536 151.905 0.531899 0.0790582 0.84311
113.354 97.6792 152.212 0.531899 0.0790582 0.84311
112.253 97.7816 152.526 -0.576743 0.582358 0.572911
112.254 98.3144 151.985 -0.576743 0.582358 0.572911
111.488 97.688 151.85 -0.576743 0.582358 0.572911
113.022 98.272 151.943 0.0768661 0.710415 0.699573
112.254 98.3144 151.985 0.0768661 0.710415 0.699573
112.253 97.7816 152.526 0.0768661 0.710415 0.699573
113.354 97.6792 152.212 0.278335 0.521535 0.806555
113.022 98.272 151.943 0.278335 0.521535 0.806555
112.253 97.7816 152.526 0.278335 0.521535 0.806555
3 0 1 2
3 3 4 5
3 6 7 8
3 9 10 11
3 12 13 14
3 15 16 17
3 18 19 20
3 21 22 23
3 24 25 26
3 27 28 29
3 30 31 32
3 33 34 35
3 36 37 38
3 39 40 41
3 42 43 44
3 45 46 47
3 48 49 50
3 51 52 53
3 54 55 56
3 57 58 59
3 60 61 62
3 63 64 65
3 66 67 68
3 69 70 71
3 72 73 74
3 75 76 77
3 78 79 80
3 81 82 83
3 84 85 86
3 87 88 89
3 90 91 92
3 93 94 95
3 96 97 98
3 99 100 101
3 102 103 104
3 105 106 107
3 108 109 110
3 111 112 113
3 114 115 116
3 117 118 119
3 120 121 122
3 123 124 125
3 126 127 128
3 129 130 131
3 132 133 134
3 135 136 137
3 138 139 140
3 141 142 143
3 144 145 146
3 147 148 149
3 150 151 152
3 153 154 155
3 156 157 158
3 159 160 161
3 162 163 164
3 165 166 167
3 168 169 170
3 171 172 173
3 174 175 176
3 177 178 179
3 180 181 182
3 183 184 185
3 186 187 188
3 189 190 191
3 192 193 194
3 195 196 197
3 198 199 200
3 201 202 203
3 204 205 206
3 207 208 209
3 210 211 212
3 213 214 215
3 216 217 218
3 219 220 221
3 222 223 224
3 225 226 227
3 228 229 230
3 231 232 233
