ply
format ascii 1.0
element vertex 270
property float x
property float y
property float z
property float nx
property float ny
property float nz
element face 90
property list uint uint vertex_indices
end_header
55.328 105.365 167.738 -0.517517 -0.183248 -0.835821
55.168 104.897 167.94 -0.517517 -0.183248 -0.835821
55.0067 105.303 167.951 -0.517517 -0.183248 -0.835821
55.328 105.365 167.738 0.0397656 -0.500704 -0.864705
55.9893 105.44 167.726 0.0397656 -0.500704 -0.864705
55.9403 104.993 167.982 0.0397656 -0.500704 -0.864705
55.168 104.897 167.94 0.10148 -0.422694 -0.900573
55.328 105.365 167.738 0.10148 -0.422694 -0.900573
55.9403 104.993 167.982 0.10148 -0.422694 -0.900573
55.9403 104.993 167.982 0.536153 -0.463667 -0.705375
55.9893 105.44 167.726 0.536153 -0.463667 -0.705375
56.3618 105.395 168.038 0.536153 -0.463667 -0.705375
55.1656 105.976 167.76 -0.53316 -0.111729 -0.838604
55.328 105.365 167.738 -0.53316 -0.111729 -0.838604
55.0067 105.303 167.951 -0.53316 -0.111729 -0.838604
55.0029 106.032 168.081 -0.883458 0.077811 -0.462005
55.1656 105.976 167.76 -0.883458 0.077811 -0.462005
55.0067 105.303 167.951 -0.883458 0.077811 -0.462005
55.9893 105.44 167.726 -0.0151987 -0.0363462 -0.999224
55.328 105.365 167.738 -0.0151987 -0.0363462 -0.999224
55.8062 106.032 167.707 -0.0151987 -0.0363462 -0.999224
55.8062 106.032 167.707 -0.084266 0.0132958 -0.996355
55.328 105.365 167.738 -0.084266 0.0132958 -0.996355
55.1656 105.976 167.76 -0.084266 0.0132958 -0.996355
56.1763 105.999 167.861 0.640176 -0.0277232 -0.767727
56.3618 105.395 168.038 0.640176 -0.0277232 -0.767727
55.9893 105.44 167.726 0.640176 -0.0277232 -0.767727
55.8062 106.032 167.707 0.39048 0.0916613 -0.916037
56.1763 105.999 167.861 0.39048 0.0916613 -0.916037
55.9893 105.44 167.726 0.39048 0.0916613 -0.916037
55.1656 105.976 167.76 -0.5982 0.680642 -0.422946
55.0029 106.032 168.081 -0.5982 0.680642 -0.422946
55.3406 106.259 167.969 -0.5982 0.680642 -0.422946
55.8062 106.032 167.707 -0.119689 0.635758 -0.762552
55.1656 105.976 167.76 -0.119689 0.635758 -0.762552
55.3406 106.259 167.969 -0.119689 0.635758 -0.762552
56.0143 106.274 167.981 -0.00487858 0.751785 -0.65939
55.8062 106.032 167.707 -0.00487858 0.751785 -0.65939
55.3406 106.259 167.969 -0.00487858 0.751785 -0.65939
56.1763 105.999 167.861 0.363851 0.54419 -0.755956
55.8062 106.032 167.707 0.363851 0.54419 -0.755956
56.0143 106.274 167.981 0.363851 0.54419 -0.755956
55.2943 104.422 168.344 -0.571315 -0.8172 -0.0760486
55.2884 104.359 169.065 -0.571315 -0.8172 -0.0760486
54.983 104.615 168.612 -0.571315 -0.8172 -0.0760486
55.2884 104.359 169.065 -0.0116314 -0.996135 -0.0870587
55.2943 104.422 168.344 -0.0116314 -0.996135 -0.0870587
56.0955 104.363 168.916 -0.0116314 -0.996135 -0.0870587
55.168 104.897 167.94 -0.712791 -0.554711 -0.429214
55.2943 104.422 168.344 -0.712791 -0.554711 -0.429214
54.983 104.615 168.612 -0.712791 -0.554711 -0.429214
55.168 104.897 167.94 -0.863861 -0.333141 -0.377838
54.983 104.615 168.612 -0.863861 -0.333141 -0.377838
55.0067 105.303 167.951 -0.863861 -0.333141 -0.377838
55.0067 105.303 167.951 -0.969663 -0.151154 -0.192112
54.983 104.615 168.612 -0.969663 -0.151154 -0.192112
54.8622 105.35 168.643 -0.969663 -0.151154 -0.192112
55.9403 104.993 167.982 0.119485 -0.624506 -0.771826
55.2943 104.422 168.344 0.119485 -0.624506 -0.771826
55.168 104.897 167.94 0.119485 -0.624506 -0.771826
56.0955 104.363 168.916 0.346829 -0.749895 -0.563353
55.2943 104.422 168.344 0.346829 -0.749895 -0.563353
55.9403 104.993 167.982 0.346829 -0.749895 -0.563353
56.3618 105.395 168.038 0.762115 -0.137912 -0.632583
57.0086 105.503 168.794 0.762115 -0.137912 -0.632583
56.8471 105.013 168.706 0.762115 -0.137912 -0.632583
55.9403 104.993 167.982 0.552387 -0.484386 -0.678409
56.3618 105.395 168.038 0.552387 -0.484386 -0.678409
56.8471 105.013 168.706 0.552387 -0.484386 -0.678409
55.9403 104.993 167.982 0.453908 -0.701962 -0.548832
56.8471 105.013 168.706 0.453908 -0.701962 -0.548832
56.0955 104.363 168.916 0.453908 -0.701962 -0.548832
56.8471 105.013 168.706 0.753807 -0.13323 -0.643448
57.0086 105.503 168.794 0.753807 -0.13323 -0.643448
57.2593 105.278 169.134 0.753807 -0.13323 -0.643448
55.0067 105.303 167.951 -0.978001 0.0316824 -0.206182
54.8622 105.35 168.643 -0.978001 0.0316824 -0.206182
55.0029 106.032 168.081 -0.978001 0.0316824 -0.206182
54.8622 105.35 168.643 -0.987505 0.113335 -0.109498
54.9066 106.033 168.951 -0.987505 0.113335 -0.109498
55.0029 106.032 168.081 -0.987505 0.113335 -0.109498
57.0086 105.503 168.794 0.667487 0.399564 -0.628338
56.3618 105.395 168.038 0.667487 0.399564 -0.628338
56.4438 106.087 168.565 0.667487 0.399564 -0.628338
56.3618 105.395 168.038 0.913284 0.172715 -0.368892
56.1763 105.999 167.861 0.913284 0.172715 -0.368892
56.4438 106.087 168.565 0.913284 0.172715 -0.368892
55.0029 106.032 168.081 -0.714321 0.69523 -0.0800079
54.9066 106.033 168.951 -0.714321 0.69523 -0.0800079
55.239 106.356 168.788 -0.714321 0.69523 -0.0800079
55.3406 106.259 167.969 -0.588096 0.791508 -0.166307
55.0029 106.032 168.081 -0.588096 0.791508 -0.166307
55.239 106.356 168.788 -0.588096 0.791508 -0.166307
56.0143 106.274 167.981 -0.0183901 0.983443 -0.18028
55.3406 106.259 167.969 -0.0183901 0.983443 -0.18028
56.0203 106.415 168.752 -0.0183901 0.983443 -0.18028
55.3406 106.259 167.969 -0.0813098 0.988611 -0.12664
55.239 106.356 168.788 -0.0813098 0.988611 -0.12664
56.0203 106.415 168.752 -0.0813098 0.988611 -0.12664
56.4438 106.087 168.565 0.731648 0.584336 -0.351059
56.1763 105.999 167.861 0.731648 0.584336 -0.351059
56.0143 106.274 167.981 0.731648 0.584336 -0.351059
56.0203 106.415 168.752 0.562608 0.812364 -0.153416
56.4438 106.087 168.565 0.562608 0.812364 -0.153416
56.0143 106.274 167.981 0.562608 0.812364 -0.153416
55.8441 104.464 169.926 -0.548223 -0.711175 0.440093
55.2884 104.359 169.065 -0.548223 -0.711175 0.440093
55.9775 104.195 169.658 -0.548223 -0.711175 0.440093
55.9775 104.195 169.658 -0.0376039 -0.973247 -0.226665
55.2884 104.359 169.065 -0.0376039 -0.973247 -0.226665
56.0955 104.363 168.916 -0.0376039 -0.973247 -0.226665
56.2749 104.39 169.832 0.582104 -0.808054 -0.0905709
55.9775 104.195 169.658 0.582104 -0.808054 -0.0905709
56.0955 104.363 168.916 0.582104 -0.808054 -0.0905709
55.2884 104.359 169.065 -0.804303 -0.481845 0.347737
55.2566 104.94 169.796 -0.804303 -0.481845 0.347737
54.9386 105.217 169.444 -0.804303 -0.481845 0.347737
55.2884 104.359 169.065 -0.831992 -0.469848 0.295013
54.9386 105.217 169.444 -0.831992 -0.469848 0.295013
54.983 104.615 168.612 -0.831992 -0.469848 0.295013
54.983 104.615 168.612 -0.984104 -0.164695 0.0664499
54.9386 105.217 169.444 -0.984104 -0.164695 0.0664499
54.8622 105.35 168.643 -0.984104 -0.164695 0.0664499
55.8441 104.464 169.926 -0.615396 -0.630033 0.473651
55.2566 104.94 169.796 -0.615396 -0.630033 0.473651
55.2884 104.359 169.065 -0.615396 -0.630033 0.473651
56.0955 104.363 168.916 0.618522 -0.779566 -0.0985243
56.926 104.923 169.699 0.618522 -0.779566 -0.0985243
56.2749 104.39 169.832 0.618522 -0.779566 -0.0985243
56.8471 105.013 168.706 0.630203 -0.767134 -0.11979
56.926 104.923 169.699 0.630203 -0.767134 -0.11979
56.0955 104.363 168.916 0.630203 -0.767134 -0.11979
56.926 104.923 169.699 0.621362 -0.77432 -0.119741
56.8471 105.013 168.706 0.621362 -0.77432 -0.119741
57.2593 105.278 169.134 0.621362 -0.77432 -0.119741
57.2805 105.28 169.9 0.714297 -0.699609 -0.0180909
56.926 104.923 169.699 0.714297 -0.699609 -0.0180909
57.2593 105.278 169.134 0.714297 -0.699609 -0.0180909
54.8622 105.35 168.643 -0.994956 0.0203733 0.0982256
54.9386 105.217 169.444 -0.994956 0.0203733 0.0982256
54.9066 106.033 168.951 -0.994956 0.0203733 0.0982256
54.9386 105.217 169.444 -0.997629 0.00246035 0.0687726
54.9575 105.989 169.69 -0.997629 0.00246035 0.0687726
54.9066 106.033 168.951 -0.997629 0.00246035 0.0687726
57.0086 105.503 168.794 0.738902 0.581753 -0.339982
56.4438 106.087 168.565 0.738902 0.581753 -0.339982
56.8174 106.233 169.627 0.738902 0.581753 -0.339982
57.0086 105.503 168.794 0.661046 0.633079 -0.402776
56.8174 106.233 169.627 0.661046 0.633079 -0.402776
57.2693 105.851 169.769 0.661046 0.633079 -0.402776
57.0086 105.503 168.794 0.845754 0.389142 -0.365061
57.2693 105.851 169.769 0.845754 0.389142 -0.365061
57.2593 105.278 169.134 0.845754 0.389142 -0.365061
57.2593 105.278 169.134 0.99953 0.0131023 -0.0277056
57.2693 105.851 169.769 0.99953 0.0131023 -0.0277056
57.2805 105.28 169.9 0.99953 0.0131023 -0.0277056
54.9066 106.033 168.951 -0.728239 0.679339 0.0903673
54.9575 105.989 169.69 -0.728239 0.679339 0.0903673
55.2303 106.284 169.676 -0.728239 0.679339 0.0903673
55.239 106.356 168.788 -0.682323 0.729151 0.0526688
54.9066 106.033 168.951 -0.682323 0.729151 0.0526688
55.2303 106.284 169.676 -0.682323 0.729151 0.0526688
56.0203 106.415 168.752 -0.0752748 0.997019 0.0169286
55.239 106.356 168.788 -0.0752748 0.997019 0.0169286
55.9654 106.397 169.611 -0.0752748 0.997019 0.0169286
55.239 106.356 168.788 -0.144916 0.986291 0.0789231
55.2303 106.284 169.676 -0.144916 0.986291 0.0789231
55.9654 106.397 169.611 -0.144916 0.986291 0.0789231
56.8174 106.233 169.627 0.503829 0.813903 -0.289342
56.4438 106.087 168.565 0.503829 0.813903 -0.289342
56.0203 106.415 168.752 0.503829 0.813903 -0.289342
56.8174 106.233 169.627 0.187591 0.981679 0.0333992
56.0203 106.415 168.752 0.187591 0.981679 0.0333992
55.9654 106.397 169.611 0.187591 0.981679 0.0333992
55.9775 104.195 169.658 -0.679691 -0.658875 0.322343
56.1013 104.347 170.229 -0.679691 -0.658875 0.322343
55.8441 104.464 169.926 -0.679691 -0.658875 0.322343
55.9775 104.195 169.658 0.492626 -0.861613 0.122244
56.2749 104.39 169.832 0.492626 -0.861613 0.122244
56.1013 104.347 170.229 0.492626 -0.861613 0.122244
55.2566 104.94 169.796 -0.809339 -0.261077 0.526127
55.2265 105.462 170.009 -0.809339 -0.261077 0.526127
54.9386 105.217 169.444 -0.809339 -0.261077 0.526127
55.2566 104.94 169.796 -0.618995 -0.326749 0.714199
55.8539 105.176 170.422 -0.618995 -0.326749 0.714199
55.2265 105.462 170.009 -0.618995 -0.326749 0.714199
55.8441 104.464 169.926 -0.539394 -0.475889 0.694682
55.8539 105.176 170.422 -0.539394 -0.475889 0.694682
55.2566 104.94 169.796 -0.539394 -0.475889 0.694682
55.8441 104.464 169.926 -0.344395 -0.532959 0.772882
56.3108 104.989 170.496 -0.344395 -0.532959 0.772882
55.8539 105.176 170.422 -0.344395 -0.532959 0.772882
55.8441 104.464 169.926 -0.765988 -0.0172069 0.642625
56.1013 104.347 170.229 -0.765988 -0.0172069 0.642625
56.3108 104.989 170.496 -0.765988 -0.0172069 0.642625
56.2749 104.39 169.832 0.850095 -0.413057 0.326686
56.3108 104.989 170.496 0.850095 -0.413057 0.326686
56.1013 104.347 170.229 0.850095 -0.413057 0.326686
56.2749 104.39 169.832 0.603194 -0.608146 0.516058
56.926 104.923 169.699 0.603194 -0.608146 0.516058
56.3108 104.989 170.496 0.603194 -0.608146 0.516058
56.926 104.923 169.699 0.144371 -0.970727 0.191952
57.0523 105.104 170.518 0.144371 -0.970727 0.191952
56.3108 104.989 170.496 0.144371 -0.970727 0.191952
57.0523 105.104 170.518 0.693736 -0.718381 0.051571
56.926 104.923 169.699 0.693736 -0.718381 0.051571
57.2805 105.28 169.9 0.693736 -0.718381 0.051571
57.1808 105.44 170.564 0.899189 -0.375153 0.225209
57.0523 105.104 170.518 0.899189 -0.375153 0.225209
57.2805 105.28 169.9 0.899189 -0.375153 0.225209
55.2265 105.462 170.009 -0.765428 -0.00197447 0.643518
55.2102 106.072 169.991 -0.765428 -0.00197447 0.643518
54.9575 105.989 169.69 -0.765428 -0.00197447 0.643518
54.9386 105.217 169.444 -0.856987 -0.137342 0.4967
55.2265 105.462 170.009 -0.856987 -0.137342 0.4967
54.9575 105.989 169.69 -0.856987 -0.137342 0.4967
56.1469 105.964 170.46 -0.497931 0.143728 0.855223
55.2265 105.462 170.009 -0.497931 0.143728 0.855223
55.8539 105.176 170.422 -0.497931 0.143728 0.855223
55.2102 106.072 169.991 -0.446382 0.0137859 0.894736
55.2265 105.462 170.009 -0.446382 0.0137859 0.894736
56.1469 105.964 170.46 -0.446382 0.0137859 0.894736
57.0357 106.024 170.483 -0.0618846 0.628188 0.775597
56.1469 105.964 170.46 -0.0618846 0.628188 0.775597
56.9877 105.719 170.726 -0.0618846 0.628188 0.775597
57.0357 106.024 170.483 0.818557 0.273696 0.505029
56.9877 105.719 170.726 0.818557 0.273696 0.505029
57.1808 105.44 170.564 0.818557 0.273696 0.505029
57.0357 106.024 170.483 0.933429 0.265482 0.241307
57.1808 105.44 170.564 0.933429 0.265482 0.241307
57.2693 105.851 169.769 0.933429 0.265482 0.241307
57.2693 105.851 169.769 0.989385 0.0505386 0.136244
57.1808 105.44 170.564 0.989385 0.0505386 0.136244
57.2805 105.28 169.9 0.989385 0.0505386 0.136244
54.9575 105.989 169.69 -0.667404 0.637424 0.385048
55.2102 106.072 169.991 -0.667404 0.637424 0.385048
55.2303 106.284 169.676 -0.667404 0.637424 0.385048
55.2102 106.072 169.991 -0.175978 0.822663 0.540608
56.1469 105.964 170.46 -0.175978 0.822663 0.540608
55.2303 106.284 169.676 -0.175978 0.822663 0.540608
55.2303 106.284 169.676 -0.0939613 0.878904 0.467652
56.1469 105.964 170.46 -0.0939613 0.878904 0.467652
55.9654 106.397 169.611 -0.0939613 0.878904 0.467652
56.1469 105.964 170.46 -0.0710459 0.964468 0.254467
57.0357 106.024 170.483 -0.0710459 0.964468 0.254467
56.8174 106.233 169.627 -0.0710459 0.964468 0.254467
56.1469 105.964 170.46 0.163097 0.892841 0.419802
56.8174 106.233 169.627 0.163097 0.892841 0.419802
55.9654 106.397 169.611 0.163097 0.892841 0.419802
57.2693 105.851 169.769 0.640725 0.767377 0.0245717
56.8174 106.233 169.627 0.640725 0.767377 0.0245717
57.0357 106.024 170.483 0.640725 0.767377 0.0245717
56.3108 104.989 170.496 0.0714342 -0.611563 0.787964
57.0523 105.104 170.518 0.0714342 -0.611563 0.787964
56.9171 105.359 170.728 0.0714342 -0.611563 0.787964
57.0523 105.104 170.518 0.569049 -0.322112 0.756589
57.1808 105.44 170.564 0.569049 -0.322112 0.756589
56.9171 105.359 170.728 0.569049 -0.322112 0.756589
55.8539 105.176 170.422 -0.156443 0.0102712 0.987634
56.3108 104.989 170.496 -0.156443 0.0102712 0.987634
56.1469 105.964 170.46 -0.156443 0.0102712 0.987634
56.9877 105.719 170.726 -0.284453 0.0619034 0.956689
56.1469 105.964 170.46 -0.284453 0.0619034 0.956689
56.9171 105.359 170.728 -0.284453 0.0619034 0.956689
56.9171 105.359 170.728 -0.344986 -0.0232414 0.93832
56.1469 105.964 170.46 -0.344986 -0.0232414 0.93832
56.3108 104.989 170.496 -0.344986 -0.0232414 0.93832
57.1808 105.44 170.564 0.547657 -0.102189 0.830439
56.9877 105.719 170.726 0.547657 -0.102189 0.830439
56.9171 105.359 170.728 0.547657 -0.102189 0.830439
3 0 1 2
3 3 4 5
3 6 7 8
3 9 10 11
3 12 13 14
3 15 16 17
3 18 19 20
3 21 22 23
3 24 25 26
3 27 28 29
3 30 31 32
3 33 34 35
3 36 37 38
3 39 40 41
3 42 43 44
3 45 46 47
3 48 49 50
3 51 52 53
3 54 55 56
3 57 58 59
3 60 61 62
3 63 64 65
3 66 67 68
3 69 70 71
3 72 73 74
3 75 76 77
3 78 79 80
3 81 82 83
3 84 85 86
3 87 88 89
3 90 91 92
3 93 94 95
3 96 97 98
3 99 100 101
3 102 103 104
3 105 106 107
3 108 109 110
3 111 112 113
3 114 115 116
3 117 118 119
3 120 121 122
3 123 124 125
3 126 127 128
3 129 130 131
3 132 133 134
3 135 136 137
3 138 139 140
3 141 142 143
3 144 145 146
3 147 148 149
3 150 151 152
3 153 154 155
3 156 157 158
3 159 160 161
3 162 163 164
3 165 166 167
3 168 169 170
3 171 172 173
3 174 175 176
3 177 178 179
3 180 181 182
3 183 184 185
3 186 187 188
3 189 190 191
3 192 193 194
3 195 196 197
3 198 199 200
3 201 202 203
3 204 205 206
3 207 208 209
3 210 211 212
3 213 214 215
3 216 217 218
3 219 220 221
3 222 223 224
3 225 226 227
3 228 229 230
3 231 232 233
3 234 235 236
3 237 238 239
3 240 241 242
3 243 244 245
3 246 247 248
3 249 250 251
3 252 253 254
3 255 256 257
3 258 259 260
3 261 262 263
3 264 265 266
3 267 268 269
