ply
format ascii 1.0
element vertex 714
property float x
property float y
property float z
property float nx
property float ny
property float nz
element face 238
property list uint uint vertex_indices
end_header
53.1604 136.634 174.02 -0.392565 -0.610726 -0.687682
53.0716 136.359 174.315 -0.392565 -0.610726 -0.687682
52.8791 136.654 174.163 -0.392565 -0.610726 -0.687682
53.1604 136.634 174.02 -0.0716734 -0.316219 -0.945975
53.77 136.547 174.003 -0.0716734 -0.316219 -0.945975
53.6936 136.143 174.144 -0.0716734 -0.316219 -0.945975
53.0716 136.359 174.315 -0.400006 -0.607138 -0.68657
53.1604 136.634 174.02 -0.400006 -0.607138 -0.68657
53.6936 136.143 174.144 -0.400006 -0.607138 -0.68657
53.6936 136.143 174.144 0.407196 -0.368518 -0.835695
53.77 136.547 174.003 0.407196 -0.368518 -0.835695
54.122 136.369 174.253 0.407196 -0.368518 -0.835695
56.0768 136.732 174.02 -0.462093 -0.384329 -0.799225
56.0331 136.475 174.169 -0.462093 -0.384329 -0.799225
55.7722 136.666 174.228 -0.462093 -0.384329 -0.799225
56.0331 136.475 174.169 0.889265 -0.3329 -0.313664
56.0768 136.732 174.02 0.889265 -0.3329 -0.313664
56.0994 136.594 174.23 0.889265 -0.3329 -0.313664
53.0039 137.534 174.137 -0.450434 0.0379477 -0.892003
53.1604 136.634 174.02 -0.450434 0.0379477 -0.892003
52.8791 136.654 174.163 -0.450434 0.0379477 -0.892003
53.77 136.547 174.003 -0.0155284 0.0831552 -0.996416
53.1604 136.634 174.02 -0.0155284 0.0831552 -0.996416
53.9545 137.345 174.067 -0.0155284 0.0831552 -0.996416
53.9545 137.345 174.067 -0.0494271 0.120733 -0.991454
53.1604 136.634 174.02 -0.0494271 0.120733 -0.991454
53.0039 137.534 174.137 -0.0494271 0.120733 -0.991454
53.9545 137.345 174.067 0.556344 -0.0624475 -0.828602
54.122 136.369 174.253 0.556344 -0.0624475 -0.828602
53.77 136.547 174.003 0.556344 -0.0624475 -0.828602
56.0759 137.523 174.0 -0.560788 -0.0213811 -0.827683
56.0768 136.732 174.02 -0.560788 -0.0213811 -0.827683
55.7722 136.666 174.228 -0.560788 -0.0213811 -0.827683
55.7964 137.736 174.099 -0.398786 -0.101037 -0.911461
56.0759 137.523 174.0 -0.398786 -0.101037 -0.911461
55.7722 136.666 174.228 -0.398786 -0.101037 -0.911461
56.1645 137.309 174.19 0.98043 -0.0989628 -0.170184
56.0994 136.594 174.23 0.98043 -0.0989628 -0.170184
56.0768 136.732 174.02 0.98043 -0.0989628 -0.170184
56.0759 137.523 174.0 0.901646 -0.00978032 -0.432364
56.1645 137.309 174.19 0.901646 -0.00978032 -0.432364
56.0768 136.732 174.02 0.901646 -0.00978032 -0.432364
52.8067 138.551 174.204 -0.604909 -0.0647841 -0.793655
53.1059 138.666 173.967 -0.604909 -0.0647841 -0.793655
53.0039 137.534 174.137 -0.604909 -0.0647841 -0.793655
53.9545 137.345 174.067 -0.0920434 -0.0935651 -0.991349
53.0039 137.534 174.137 -0.0920434 -0.0935651 -0.991349
53.9501 138.58 173.951 -0.0920434 -0.0935651 -0.991349
53.9501 138.58 173.951 -0.0340545 -0.145532 -0.988767
53.0039 137.534 174.137 -0.0340545 -0.145532 -0.988767
53.1059 138.666 173.967 -0.0340545 -0.145532 -0.988767
53.9501 138.58 173.951 0.309243 -0.0879386 -0.946908
54.3566 138.335 174.106 0.309243 -0.0879386 -0.946908
53.9545 137.345 174.067 0.309243 -0.0879386 -0.946908
56.0463 138.616 173.97 -0.356643 -0.0356938 -0.933559
56.0759 137.523 174.0 -0.356643 -0.0356938 -0.933559
55.7964 137.736 174.099 -0.356643 -0.0356938 -0.933559
55.6354 138.636 174.043 -0.178214 -0.0931267 -0.979575
56.0463 138.616 173.97 -0.178214 -0.0931267 -0.979575
55.7964 137.736 174.099 -0.178214 -0.0931267 -0.979575
56.3344 138.286 174.177 0.819972 -0.150191 -0.552347
56.1645 137.309 174.19 0.819972 -0.150191 -0.552347
56.0759 137.523 174.0 0.819972 -0.150191 -0.552347
56.0463 138.616 173.97 0.577677 -0.00712084 -0.816235
56.3344 138.286 174.177 0.577677 -0.00712084 -0.816235
56.0759 137.523 174.0 0.577677 -0.00712084 -0.816235
53.0361 139.537 173.96 -0.607526 -0.0553516 -0.792369
53.1059 138.666 173.967 -0.607526 -0.0553516 -0.792369
52.8067 138.551 174.204 -0.607526 -0.0553516 -0.792369
52.7705 139.543 174.219 -0.698939 -0.0148791 -0.715027
53.0361 139.537 173.96 -0.698939 -0.0148791 -0.715027
52.8067 138.551 174.204 -0.698939 -0.0148791 -0.715027
53.9501 138.58 173.951 -0.0240067 -0.0451156 -0.998693
53.1059 138.666 173.967 -0.0240067 -0.0451156 -0.998693
53.7959 139.437 173.915 -0.0240067 -0.0451156 -0.998693
53.7959 139.437 173.915 -0.0597189 -0.0131052 -0.998129
53.1059 138.666 173.967 -0.0597189 -0.0131052 -0.998129
53.0361 139.537 173.96 -0.0597189 -0.0131052 -0.998129
54.8783 139.003 174.041 0.207814 -0.254432 -0.944499
54.3566 138.335 174.106 0.207814 -0.254432 -0.944499
53.9501 138.58 173.951 0.207814 -0.254432 -0.944499
54.8783 139.003 174.041 0.102279 -0.0117839 -0.994686
53.9501 138.58 173.951 0.102279 -0.0117839 -0.994686
55.0353 139.593 174.05 0.102279 -0.0117839 -0.994686
55.0353 139.593 174.05 0.110519 -0.0207148 -0.993658
53.9501 138.58 173.951 0.110519 -0.0207148 -0.993658
53.7959 139.437 173.915 0.110519 -0.0207148 -0.993658
55.6354 138.636 174.043 0.00860986 0.0132169 -0.999876
54.8783 139.003 174.041 0.00860986 0.0132169 -0.999876
55.0353 139.593 174.05 0.00860986 0.0132169 -0.999876
55.6354 138.636 174.043 -0.178559 -0.104372 -0.978378
55.0353 139.593 174.05 -0.178559 -0.104372 -0.978378
56.0463 138.616 173.97 -0.178559 -0.104372 -0.978378
56.0463 138.616 173.97 -0.0798149 -0.000669853 -0.996809
55.0353 139.593 174.05 -0.0798149 -0.000669853 -0.996809
56.0788 139.413 173.967 -0.0798149 -0.000669853 -0.996809
56.8034 139.267 174.086 0.355779 -0.252945 -0.899689
56.3344 138.286 174.177 0.355779 -0.252945 -0.899689
56.0463 138.616 173.97 0.355779 -0.252945 -0.899689
56.8034 139.267 174.086 0.160781 -0.0104591 -0.986935
56.0463 138.616 173.97 0.160781 -0.0104591 -0.986935
56.0788 139.413 173.967 0.160781 -0.0104591 -0.986935
52.9616 140.311 173.991 -0.698797 -0.0383521 -0.714291
53.0361 139.537 173.96 -0.698797 -0.0383521 -0.714291
52.7705 139.543 174.219 -0.698797 -0.0383521 -0.714291
52.7944 140.372 174.341 -0.892632 0.0908985 -0.441527
52.9616 140.311 173.991 -0.892632 0.0908985 -0.441527
52.7705 139.543 174.219 -0.892632 0.0908985 -0.441527
53.7959 139.437 173.915 -0.0510983 0.0523803 -0.997319
53.0361 139.537 173.96 -0.0510983 0.0523803 -0.997319
53.7249 140.262 173.962 -0.0510983 0.0523803 -0.997319
53.7249 140.262 173.962 -0.0348903 0.0369953 -0.998706
53.0361 139.537 173.96 -0.0348903 0.0369953 -0.998706
52.9616 140.311 173.991 -0.0348903 0.0369953 -0.998706
54.059 140.501 174.244 0.312808 0.507484 -0.802877
55.0353 139.593 174.05 0.312808 0.507484 -0.802877
53.7249 140.262 173.962 0.312808 0.507484 -0.802877
53.7249 140.262 173.962 0.0996427 0.0651102 -0.992891
55.0353 139.593 174.05 0.0996427 0.0651102 -0.992891
53.7959 139.437 173.915 0.0996427 0.0651102 -0.992891
56.2623 139.679 174.204 0.0504354 0.646449 -0.761288
56.0788 139.413 173.967 0.0504354 0.646449 -0.761288
55.0353 139.593 174.05 0.0504354 0.646449 -0.761288
56.8034 139.267 174.086 0.242956 0.548285 -0.800222
56.0788 139.413 173.967 0.242956 0.548285 -0.800222
56.2623 139.679 174.204 0.242956 0.548285 -0.800222
57.0163 139.562 174.298 0.180805 0.482907 -0.856802
56.8034 139.267 174.086 0.180805 0.482907 -0.856802
56.2623 139.679 174.204 0.180805 0.482907 -0.856802
57.1588 139.266 174.392 0.650582 0.0720876 -0.756007
56.8034 139.267 174.086 0.650582 0.0720876 -0.756007
57.0163 139.562 174.298 0.650582 0.0720876 -0.756007
52.9616 140.311 173.991 -0.570937 0.71838 -0.397443
52.7944 140.372 174.341 -0.570937 0.71838 -0.397443
53.1696 140.604 174.221 -0.570937 0.71838 -0.397443
53.7249 140.262 173.962 0.0100163 0.61347 -0.789655
52.9616 140.311 173.991 0.0100163 0.61347 -0.789655
53.1696 140.604 174.221 0.0100163 0.61347 -0.789655
54.059 140.501 174.244 0.098634 0.697273 -0.709987
53.7249 140.262 173.962 0.098634 0.697273 -0.709987
53.1696 140.604 174.221 0.098634 0.697273 -0.709987
54.957 135.837 174.803 0.125434 -0.617226 -0.776723
55.0894 135.629 174.989 0.125434 -0.617226 -0.776723
54.7417 135.55 174.996 0.125434 -0.617226 -0.776723
53.0716 136.359 174.315 -0.830799 -0.5552 -0.0390654
53.0658 136.304 175.221 -0.830799 -0.5552 -0.0390654
52.8235 136.693 174.837 -0.830799 -0.5552 -0.0390654
52.8791 136.654 174.163 -0.828771 -0.558427 -0.0360299
53.0716 136.359 174.315 -0.828771 -0.558427 -0.0360299
52.8235 136.693 174.837 -0.828771 -0.558427 -0.0360299
53.6936 136.143 174.144 -0.371756 -0.904024 -0.211042
54.0441 135.808 174.96 -0.371756 -0.904024 -0.211042
53.0716 136.359 174.315 -0.371756 -0.904024 -0.211042
53.0716 136.359 174.315 -0.46311 -0.884487 -0.0566718
54.0441 135.808 174.96 -0.46311 -0.884487 -0.0566718
53.0658 136.304 175.221 -0.46311 -0.884487 -0.0566718
54.122 136.369 174.253 0.429541 -0.229097 -0.873504
54.8527 136.619 174.547 0.429541 -0.229097 -0.873504
54.957 135.837 174.803 0.429541 -0.229097 -0.873504
54.122 136.369 174.253 -0.0834791 -0.776451 -0.624625
54.957 135.837 174.803 -0.0834791 -0.776451 -0.624625
54.0441 135.808 174.96 -0.0834791 -0.776451 -0.624625
54.122 136.369 174.253 0.500128 -0.704573 -0.503436
54.0441 135.808 174.96 0.500128 -0.704573 -0.503436
53.6936 136.143 174.144 0.500128 -0.704573 -0.503436
54.0441 135.808 174.96 -0.13429 -0.482056 -0.865788
54.957 135.837 174.803 -0.13429 -0.482056 -0.865788
54.7417 135.55 174.996 -0.13429 -0.482056 -0.865788
55.7722 136.666 174.228 -0.59391 -0.679926 -0.430083
56.0331 136.475 174.169 -0.59391 -0.679926 -0.430083
55.7644 136.255 174.888 -0.59391 -0.679926 -0.430083
55.7722 136.666 174.228 0.444639 -0.762876 -0.469378
55.7644 136.255 174.888 0.444639 -0.762876 -0.469378
54.957 135.837 174.803 0.444639 -0.762876 -0.469378
55.7722 136.666 174.228 -0.293292 -0.333003 -0.896152
54.957 135.837 174.803 -0.293292 -0.333003 -0.896152
54.8527 136.619 174.547 -0.293292 -0.333003 -0.896152
55.0894 135.629 174.989 0.34191 -0.497498 -0.797241
54.957 135.837 174.803 0.34191 -0.497498 -0.797241
55.7644 136.255 174.888 0.34191 -0.497498 -0.797241
55.7644 136.255 174.888 0.83072 -0.537264 0.145781
56.0331 136.475 174.169 0.83072 -0.537264 0.145781
56.0994 136.594 174.23 0.83072 -0.537264 0.145781
56.1235 136.714 174.792 0.793446 -0.601382 0.093721
55.7644 136.255 174.888 0.793446 -0.601382 0.093721
56.0994 136.594 174.23 0.793446 -0.601382 0.093721
52.8791 136.654 174.163 -0.986488 0.137326 -0.0893518
52.8235 136.693 174.837 -0.986488 0.137326 -0.0893518
53.0039 137.534 174.137 -0.986488 0.137326 -0.0893518
52.8235 136.693 174.837 -0.945363 -0.0633564 -0.319804
52.7118 137.549 174.998 -0.945363 -0.0633564 -0.319804
53.0039 137.534 174.137 -0.945363 -0.0633564 -0.319804
54.8527 136.619 174.547 0.353505 -0.170585 -0.919747
53.9545 137.345 174.067 0.353505 -0.170585 -0.919747
54.9895 137.505 174.435 0.353505 -0.170585 -0.919747
54.122 136.369 174.253 0.40161 -0.1045 -0.909829
53.9545 137.345 174.067 0.40161 -0.1045 -0.909829
54.8527 136.619 174.547 0.40161 -0.1045 -0.909829
55.7722 136.666 174.228 -0.356634 -0.104041 -0.928433
54.9895 137.505 174.435 -0.356634 -0.104041 -0.928433
55.7964 137.736 174.099 -0.356634 -0.104041 -0.928433
54.8527 136.619 174.547 -0.323214 -0.0690943 -0.9438
54.9895 137.505 174.435 -0.323214 -0.0690943 -0.9438
55.7722 136.666 174.228 -0.323214 -0.0690943 -0.9438
56.0994 136.594 174.23 0.995486 -0.0920431 -0.0231466
56.1645 137.309 174.19 0.995486 -0.0920431 -0.0231466
56.1235 136.714 174.792 0.995486 -0.0920431 -0.0231466
56.1235 136.714 174.792 0.944685 -0.263035 -0.195917
56.1645 137.309 174.19 0.944685 -0.263035 -0.195917
56.3636 137.5 174.894 0.944685 -0.263035 -0.195917
53.0039 137.534 174.137 -0.9355 -0.160504 -0.314766
52.7118 137.549 174.998 -0.9355 -0.160504 -0.314766
52.8067 138.551 174.204 -0.9355 -0.160504 -0.314766
52.7118 137.549 174.998 -0.982593 -0.0488009 -0.179245
52.6573 138.551 175.023 -0.982593 -0.0488009 -0.179245
52.8067 138.551 174.204 -0.982593 -0.0488009 -0.179245
54.9895 137.505 174.435 0.313655 -0.133177 -0.940151
54.3566 138.335 174.106 0.313655 -0.133177 -0.940151
55.1033 138.369 174.35 0.313655 -0.133177 -0.940151
53.9545 137.345 174.067 0.347518 -0.104077 -0.931879
54.3566 138.335 174.106 0.347518 -0.104077 -0.931879
54.9895 137.505 174.435 0.347518 -0.104077 -0.931879
55.7964 137.736 174.099 -0.444354 -0.134878 -0.885639
55.1033 138.369 174.35 -0.444354 -0.134878 -0.885639
55.6354 138.636 174.043 -0.444354 -0.134878 -0.885639
54.9895 137.505 174.435 -0.373843 -0.0413717 -0.926569
55.1033 138.369 174.35 -0.373843 -0.0413717 -0.926569
55.7964 137.736 174.099 -0.373843 -0.0413717 -0.926569
56.965 138.461 174.812 0.685996 -0.476448 -0.549915
56.3636 137.5 174.894 0.685996 -0.476448 -0.549915
56.3344 138.286 174.177 0.685996 -0.476448 -0.549915
56.3636 137.5 174.894 0.959359 -0.169921 -0.225293
56.1645 137.309 174.19 0.959359 -0.169921 -0.225293
56.3344 138.286 174.177 0.959359 -0.169921 -0.225293
52.8067 138.551 174.204 -0.983221 -0.033222 -0.179369
52.6573 138.551 175.023 -0.983221 -0.033222 -0.179369
52.7705 139.543 174.219 -0.983221 -0.033222 -0.179369
52.6573 138.551 175.023 -0.994437 0.0321535 -0.100306
52.686 139.547 175.058 -0.994437 0.0321535 -0.100306
52.7705 139.543 174.219 -0.994437 0.0321535 -0.100306
54.3566 138.335 174.106 0.307355 -0.327219 -0.893566
54.8783 139.003 174.041 0.307355 -0.327219 -0.893566
55.1033 138.369 174.35 0.307355 -0.327219 -0.893566
55.6354 138.636 174.043 -0.236592 -0.492947 -0.837274
55.1033 138.369 174.35 -0.236592 -0.492947 -0.837274
54.8783 139.003 174.041 -0.236592 -0.492947 -0.837274
56.3344 138.286 174.177 0.704642 -0.391387 -0.591858
56.8034 139.267 174.086 0.704642 -0.391387 -0.591858
56.965 138.461 174.812 0.704642 -0.391387 -0.591858
56.965 138.461 174.812 0.570408 -0.483334 -0.664095
56.8034 139.267 174.086 0.570408 -0.483334 -0.664095
57.1588 139.266 174.392 0.570408 -0.483334 -0.664095
56.965 138.461 174.812 0.827707 -0.402769 -0.390742
57.1588 139.266 174.392 0.827707 -0.402769 -0.390742
57.1763 138.519 175.199 0.827707 -0.402769 -0.390742
57.1763 138.519 175.199 0.999551 0.0294665 0.00550835
57.1588 139.266 174.392 0.999551 0.0294665 0.00550835
57.153 139.337 175.069 0.999551 0.0294665 0.00550835
52.7705 139.543 174.219 -0.994005 0.0434868 -0.100311
52.686 139.547 175.058 -0.994005 0.0434868 -0.100311
52.7944 140.372 174.341 -0.994005 0.0434868 -0.100311
52.686 139.547 175.058 -0.994356 0.100119 -0.035103
52.7621 140.368 175.246 -0.994356 0.100119 -0.035103
52.7944 140.372 174.341 -0.994356 0.100119 -0.035103
55.0353 139.593 174.05 0.474465 0.639091 -0.605347
54.059 140.501 174.244 0.474465 0.639091 -0.605347
54.9947 140.53 175.008 0.474465 0.639091 -0.605347
55.0353 139.593 174.05 0.0264393 0.769017 -0.638681
55.9471 140.259 174.89 0.0264393 0.769017 -0.638681
56.2623 139.679 174.204 0.0264393 0.769017 -0.638681
54.9947 140.53 175.008 0.117165 0.712236 -0.692092
55.9471 140.259 174.89 0.117165 0.712236 -0.692092
55.0353 139.593 174.05 0.117165 0.712236 -0.692092
56.848 139.756 175.121 0.52323 0.753807 -0.397498
56.2623 139.679 174.204 0.52323 0.753807 -0.397498
55.9471 140.259 174.89 0.52323 0.753807 -0.397498
56.848 139.756 175.121 0.173324 0.96603 -0.191692
57.0163 139.562 174.298 0.173324 0.96603 -0.191692
56.2623 139.679 174.204 0.173324 0.96603 -0.191692
57.153 139.337 175.069 0.904966 0.423911 -0.0365483
57.1588 139.266 174.392 0.904966 0.423911 -0.0365483
57.0163 139.562 174.298 0.904966 0.423911 -0.0365483
56.848 139.756 175.121 0.809758 0.58611 0.0276891
57.153 139.337 175.069 0.809758 0.58611 0.0276891
57.0163 139.562 174.298 0.809758 0.58611 0.0276891
52.7944 140.372 174.341 -0.700313 0.713497 -0.0220105
52.7621 140.368 175.246 -0.700313 0.713497 -0.0220105
53.0456 140.64 175.039 -0.700313 0.713497 -0.0220105
53.1696 140.604 174.221 -0.548919 0.827195 -0.12015
52.7944 140.372 174.341 -0.548919 0.827195 -0.12015
53.0456 140.64 175.039 -0.548919 0.827195 -0.12015
54.059 140.501 174.244 0.117121 0.97196 -0.203904
53.1696 140.604 174.221 0.117121 0.97196 -0.203904
53.9324 140.682 175.031 0.117121 0.97196 -0.203904
53.1696 140.604 174.221 -0.0471511 0.997545 -0.0517682
53.0456 140.64 175.039 -0.0471511 0.997545 -0.0517682
53.9324 140.682 175.031 -0.0471511 0.997545 -0.0517682
54.9947 140.53 175.008 0.134035 0.970413 -0.200832
54.059 140.501 174.244 0.134035 0.970413 -0.200832
53.9324 140.682 175.031 0.134035 0.970413 -0.200832
55.0894 135.629 174.989 0.21564 -0.91625 0.337617
54.9453 135.653 175.146 0.21564 -0.91625 0.337617
54.7417 135.55 174.996 0.21564 -0.91625 0.337617
53.0658 136.304 175.221 -0.839177 -0.543856 -0.00161727
53.0883 136.266 176.193 -0.839177 -0.543856 -0.00161727
52.7775 136.747 175.91 -0.839177 -0.543856 -0.00161727
52.8235 136.693 174.837 -0.844825 -0.534955 -0.0096979
53.0658 136.304 175.221 -0.844825 -0.534955 -0.0096979
52.7775 136.747 175.91 -0.844825 -0.534955 -0.0096979
54.0441 135.808 174.96 -0.470171 -0.877229 -0.0969953
53.7986 135.838 175.886 -0.470171 -0.877229 -0.0969953
53.0658 136.304 175.221 -0.470171 -0.877229 -0.0969953
53.0658 136.304 175.221 -0.523127 -0.851999 -0.0208988
53.7986 135.838 175.886 -0.523127 -0.851999 -0.0208988
53.0883 136.266 176.193 -0.523127 -0.851999 -0.0208988
54.9453 135.653 175.146 -0.259058 -0.595554 0.760398
54.0441 135.808 174.96 -0.259058 -0.595554 0.760398
54.7417 135.55 174.996 -0.259058 -0.595554 0.760398
54.9453 135.653 175.146 -0.230732 -0.9003 0.369083
54.8254 135.979 175.864 -0.230732 -0.9003 0.369083
54.0441 135.808 174.96 -0.230732 -0.9003 0.369083
54.8254 135.979 175.864 0.137187 -0.988232 0.0676626
53.7986 135.838 175.886 0.137187 -0.988232 0.0676626
54.0441 135.808 174.96 0.137187 -0.988232 0.0676626
55.9841 136.692 175.355 0.598321 -0.569552 0.563581
55.1502 136.643 176.191 0.598321 -0.569552 0.563581
54.8254 135.979 175.864 0.598321 -0.569552 0.563581
55.7644 136.255 174.888 0.60012 -0.705062 0.377814
55.9841 136.692 175.355 0.60012 -0.705062 0.377814
54.8254 135.979 175.864 0.60012 -0.705062 0.377814
55.7644 136.255 174.888 0.620376 -0.670364 0.40712
54.8254 135.979 175.864 0.620376 -0.670364 0.40712
54.9453 135.653 175.146 0.620376 -0.670364 0.40712
55.7644 136.255 174.888 0.583103 -0.530227 0.615508
54.9453 135.653 175.146 0.583103 -0.530227 0.615508
55.0894 135.629 174.989 0.583103 -0.530227 0.615508
55.7644 136.255 174.888 0.792887 -0.58407 0.173761
56.1235 136.714 174.792 0.792887 -0.58407 0.173761
55.9841 136.692 175.355 0.792887 -0.58407 0.173761
52.8235 136.693 174.837 -0.991773 -0.122708 -0.0364513
52.7775 136.747 175.91 -0.991773 -0.122708 -0.0364513
52.7118 137.549 174.998 -0.991773 -0.122708 -0.0364513
52.7775 136.747 175.91 -0.991045 -0.127241 -0.0404876
52.6623 137.657 175.871 -0.991045 -0.127241 -0.0404876
52.7118 137.549 174.998 -0.991045 -0.127241 -0.0404876
55.9841 136.692 175.355 0.535354 -0.685084 0.49402
56.0751 137.314 176.119 0.535354 -0.685084 0.49402
55.1502 136.643 176.191 0.535354 -0.685084 0.49402
55.9841 136.692 175.355 0.925358 -0.310894 0.216926
56.1235 136.714 174.792 0.925358 -0.310894 0.216926
56.3636 137.5 174.894 0.925358 -0.310894 0.216926
55.9841 136.692 175.355 0.717914 -0.567461 -0.403221
56.3636 137.5 174.894 0.717914 -0.567461 -0.403221
56.8844 137.598 175.682 0.717914 -0.567461 -0.403221
55.9841 136.692 175.355 0.515337 -0.6936 0.503336
56.8844 137.598 175.682 0.515337 -0.6936 0.503336
56.0751 137.314 176.119 0.515337 -0.6936 0.503336
52.7118 137.549 174.998 -0.997346 -0.0528912 -0.050038
52.6623 137.657 175.871 -0.997346 -0.0528912 -0.050038
52.6573 138.551 175.023 -0.997346 -0.0528912 -0.050038
52.6623 137.657 175.871 -0.999849 -0.0145204 -0.00951915
52.6481 138.547 175.995 -0.999849 -0.0145204 -0.00951915
52.6573 138.551 175.023 -0.999849 -0.0145204 -0.00951915
56.3636 137.5 174.894 0.7479 -0.504998 -0.430839
56.965 138.461 174.812 0.7479 -0.504998 -0.430839
56.8844 137.598 175.682 0.7479 -0.504998 -0.430839
56.8844 137.598 175.682 0.809711 -0.452734 -0.373363
56.965 138.461 174.812 0.809711 -0.452734 -0.373363
57.1763 138.519 175.199 0.809711 -0.452734 -0.373363
56.8844 137.598 175.682 0.765195 -0.472301 -0.437502
57.1763 138.519 175.199 0.765195 -0.472301 -0.437502
57.139 137.842 175.865 0.765195 -0.472301 -0.437502
57.139 137.842 175.865 0.954908 0.179699 0.236344
57.1763 138.519 175.199 0.954908 0.179699 0.236344
56.9911 138.465 175.989 0.954908 0.179699 0.236344
52.6573 138.551 175.023 -0.999533 0.0291208 -0.00931195
52.6481 138.547 175.995 -0.999533 0.0291208 -0.00931195
52.686 139.547 175.058 -0.999533 0.0291208 -0.00931195
52.6481 138.547 175.995 -0.998825 0.04737 0.0101885
52.6957 139.541 176.035 -0.998825 0.04737 0.0101885
52.686 139.547 175.058 -0.998825 0.04737 0.0101885
57.1763 138.519 175.199 0.970542 0.0646565 0.232094
57.153 139.337 175.069 0.970542 0.0646565 0.232094
56.9911 138.465 175.989 0.970542 0.0646565 0.232094
56.9911 138.465 175.989 0.965312 0.0822153 0.247818
57.153 139.337 175.069 0.965312 0.0822153 0.247818
56.9062 139.383 176.015 0.965312 0.0822153 0.247818
52.686 139.547 175.058 -0.995901 0.0898495 0.0104149
52.6957 139.541 176.035 -0.995901 0.0898495 0.0104149
52.7621 140.368 175.246 -0.995901 0.0898495 0.0104149
52.6957 139.541 176.035 -0.986946 0.145349 0.0693679
52.819 140.316 176.165 -0.986946 0.145349 0.0693679
52.7621 140.368 175.246 -0.986946 0.145349 0.0693679
56.848 139.756 175.121 0.652141 0.757706 0.024376
56.0269 140.437 175.923 0.652141 0.757706 0.024376
56.7277 139.827 176.132 0.652141 0.757706 0.024376
56.9062 139.383 176.015 0.80546 0.56374 0.182842
57.153 139.337 175.069 0.80546 0.56374 0.182842
56.848 139.756 175.121 0.80546 0.56374 0.182842
56.7277 139.827 176.132 0.932071 0.351877 0.0861753
56.9062 139.383 176.015 0.932071 0.351877 0.0861753
56.848 139.756 175.121 0.932071 0.351877 0.0861753
52.7621 140.368 175.246 -0.83648 0.541707 0.0827945
52.819 140.316 176.165 -0.83648 0.541707 0.0827945
52.9648 140.589 175.852 -0.83648 0.541707 0.0827945
53.0456 140.64 175.039 -0.701189 0.712556 -0.0244542
52.7621 140.368 175.246 -0.701189 0.712556 -0.0244542
52.9648 140.589 175.852 -0.701189 0.712556 -0.0244542
53.9324 140.682 175.031 -0.0465739 0.998746 0.0183462
53.0456 140.64 175.039 -0.0465739 0.998746 0.0183462
53.7304 140.656 175.921 -0.0465739 0.998746 0.0183462
53.0456 140.64 175.039 -0.0923415 0.994264 0.0539594
52.9648 140.589 175.852 -0.0923415 0.994264 0.0539594
53.7304 140.656 175.921 -0.0923415 0.994264 0.0539594
54.9947 140.53 175.008 0.138889 0.986528 -0.0864399
53.9324 140.682 175.031 0.138889 0.986528 -0.0864399
54.8969 140.635 176.045 0.138889 0.986528 -0.0864399
53.9324 140.682 175.031 0.014703 0.999371 0.032275
53.7304 140.656 175.921 0.014703 0.999371 0.032275
54.8969 140.635 176.045 0.014703 0.999371 0.032275
55.9471 140.259 174.89 0.247983 0.951437 -0.182408
54.9947 140.53 175.008 0.247983 0.951437 -0.182408
56.0269 140.437 175.923 0.247983 0.951437 -0.182408
54.9947 140.53 175.008 0.163387 0.982999 -0.083775
54.8969 140.635 176.045 0.163387 0.982999 -0.083775
56.0269 140.437 175.923 0.163387 0.982999 -0.083775
56.0269 140.437 175.923 0.515105 0.837261 -0.183468
56.848 139.756 175.121 0.515105 0.837261 -0.183468
55.9471 140.259 174.89 0.515105 0.837261 -0.183468
53.8536 135.729 176.722 -0.506164 -0.719903 -0.474908
53.8567 135.528 177.023 -0.506164 -0.719903 -0.474908
53.722 135.628 177.015 -0.506164 -0.719903 -0.474908
53.8567 135.528 177.023 0.958616 -0.232219 -0.164711
53.8536 135.729 176.722 0.958616 -0.232219 -0.164711
53.9063 135.737 177.018 0.958616 -0.232219 -0.164711
53.0883 136.266 176.193 -0.846649 -0.53143 0.0277134
52.8913 136.609 176.757 -0.846649 -0.53143 0.0277134
52.7775 136.747 175.91 -0.846649 -0.53143 0.0277134
53.8536 135.729 176.722 -0.712992 -0.499408 -0.492172
53.722 135.628 177.015 -0.712992 -0.499408 -0.492172
53.3351 136.252 176.943 -0.712992 -0.499408 -0.492172
53.8536 135.729 176.722 -0.651882 -0.731428 0.200157
53.3351 136.252 176.943 -0.651882 -0.731428 0.200157
53.0883 136.266 176.193 -0.651882 -0.731428 0.200157
53.8536 135.729 176.722 -0.538373 -0.839489 -0.0735711
53.0883 136.266 176.193 -0.538373 -0.839489 -0.0735711
53.7986 135.838 175.886 -0.538373 -0.839489 -0.0735711
52.8913 136.609 176.757 -0.665126 -0.718105 0.204772
53.0883 136.266 176.193 -0.665126 -0.718105 0.204772
53.3351 136.252 176.943 -0.665126 -0.718105 0.204772
53.8536 135.729 176.722 0.132112 -0.981844 -0.136118
53.7986 135.838 175.886 0.132112 -0.981844 -0.136118
54.8254 135.979 175.864 0.132112 -0.981844 -0.136118
53.8536 135.729 176.722 0.643515 -0.493308 0.585266
54.8254 135.979 175.864 0.643515 -0.493308 0.585266
54.2464 136.356 176.819 0.643515 -0.493308 0.585266
53.8536 135.729 176.722 0.848732 -0.510565 -0.137757
54.2464 136.356 176.819 0.848732 -0.510565 -0.137757
53.9063 135.737 177.018 0.848732 -0.510565 -0.137757
54.2464 136.356 176.819 0.583284 -0.56975 0.578934
54.8254 135.979 175.864 0.583284 -0.56975 0.578934
55.1502 136.643 176.191 0.583284 -0.56975 0.578934
52.8913 136.609 176.757 -0.860068 -0.0941114 0.501424
53.0206 136.811 177.017 -0.860068 -0.0941114 0.501424
52.7887 137.477 176.744 -0.860068 -0.0941114 0.501424
52.8913 136.609 176.757 -0.986805 -0.11499 0.113989
52.7887 137.477 176.744 -0.986805 -0.11499 0.113989
52.7775 136.747 175.91 -0.986805 -0.11499 0.113989
52.7775 136.747 175.91 -0.985759 -0.119706 0.118106
52.7887 137.477 176.744 -0.985759 -0.119706 0.118106
52.6623 137.657 175.871 -0.985759 -0.119706 0.118106
53.3351 136.252 176.943 -0.623873 -0.435938 0.648646
53.0206 136.811 177.017 -0.623873 -0.435938 0.648646
52.8913 136.609 176.757 -0.623873 -0.435938 0.648646
55.1502 136.643 176.191 0.59693 -0.490551 0.63485
55.0772 137.519 176.937 0.59693 -0.490551 0.63485
54.2464 136.356 176.819 0.59693 -0.490551 0.63485
56.0751 137.314 176.119 0.350044 -0.71391 0.606466
56.2104 137.751 176.556 0.350044 -0.71391 0.606466
55.0772 137.519 176.937 0.350044 -0.71391 0.606466
56.0751 137.314 176.119 0.456344 -0.554336 0.696033
55.0772 137.519 176.937 0.456344 -0.554336 0.696033
55.1502 136.643 176.191 0.456344 -0.554336 0.696033
56.0751 137.314 176.119 0.391628 -0.910563 0.132295
56.8844 137.598 175.682 0.391628 -0.910563 0.132295
56.8886 137.66 176.093 0.391628 -0.910563 0.132295
56.2104 137.751 176.556 0.324623 -0.716738 0.617176
56.0751 137.314 176.119 0.324623 -0.716738 0.617176
56.8886 137.66 176.093 0.324623 -0.716738 0.617176
56.8844 137.598 175.682 0.646403 -0.755526 0.10651
57.139 137.842 175.865 0.646403 -0.755526 0.10651
56.8886 137.66 176.093 0.646403 -0.755526 0.10651
52.6623 137.657 175.871 -0.990071 -0.0346731 0.136224
52.7887 137.477 176.744 -0.990071 -0.0346731 0.136224
52.6481 138.547 175.995 -0.990071 -0.0346731 0.136224
52.7887 137.477 176.744 -0.985813 -0.0122951 0.167394
52.789 138.558 176.825 -0.985813 -0.0122951 0.167394
52.6481 138.547 175.995 -0.985813 -0.0122951 0.167394
56.1549 138.562 176.755 0.348955 -0.200747 0.915386
55.0772 137.519 176.937 0.348955 -0.200747 0.915386
56.2104 137.751 176.556 0.348955 -0.200747 0.915386
55.6252 138.737 177.142 0.474811 -0.34965 0.80765
55.0772 137.519 176.937 0.474811 -0.34965 0.80765
56.1549 138.562 176.755 0.474811 -0.34965 0.80765
56.8886 137.66 176.093 0.566448 0.034342 0.823382
56.9911 138.465 175.989 0.566448 0.034342 0.823382
56.2104 137.751 176.556 0.566448 0.034342 0.823382
56.9911 138.465 175.989 0.660489 -0.135994 0.738417
56.1549 138.562 176.755 0.660489 -0.135994 0.738417
56.2104 137.751 176.556 0.660489 -0.135994 0.738417
56.8886 137.66 176.093 0.668936 0.0109344 0.74324
57.139 137.842 175.865 0.668936 0.0109344 0.74324
56.9911 138.465 175.989 0.668936 0.0109344 0.74324
52.6481 138.547 175.995 -0.985199 0.0403911 0.16659
52.789 138.558 176.825 -0.985199 0.0403911 0.16659
52.6957 139.541 176.035 -0.985199 0.0403911 0.16659
52.789 138.558 176.825 -0.987464 0.0307206 0.154824
52.8215 139.52 176.842 -0.987464 0.0307206 0.154824
52.6957 139.541 176.035 -0.987464 0.0307206 0.154824
56.0113 139.689 176.886 0.585514 -0.019722 0.810422
55.6252 138.737 177.142 0.585514 -0.019722 0.810422
56.1549 138.562 176.755 0.585514 -0.019722 0.810422
55.5954 139.491 177.136 0.505794 0.0264982 0.862247
55.6252 138.737 177.142 0.505794 0.0264982 0.862247
56.0113 139.689 176.886 0.505794 0.0264982 0.862247
56.9911 138.465 175.989 0.67744 0.0417692 0.734391
56.9062 139.383 176.015 0.67744 0.0417692 0.734391
56.1549 138.562 176.755 0.67744 0.0417692 0.734391
56.9062 139.383 176.015 0.698414 0.00568741 0.715671
56.0113 139.689 176.886 0.698414 0.00568741 0.715671
56.1549 138.562 176.755 0.698414 0.00568741 0.715671
52.9768 140.064 176.852 -0.64405 0.658782 0.388853
53.1603 140.49 176.436 -0.64405 0.658782 0.388853
52.819 140.316 176.165 -0.64405 0.658782 0.388853
52.9768 140.064 176.852 -0.917574 0.255787 0.304354
52.819 140.316 176.165 -0.917574 0.255787 0.304354
52.8215 139.52 176.842 -0.917574 0.255787 0.304354
52.8215 139.52 176.842 -0.979211 0.129537 0.156097
52.819 140.316 176.165 -0.979211 0.129537 0.156097
52.6957 139.541 176.035 -0.979211 0.129537 0.156097
53.1603 140.49 176.436 -0.143754 0.700644 0.69888
53.7327 140.082 176.962 -0.143754 0.700644 0.69888
54.1287 140.496 176.628 -0.143754 0.700644 0.69888
52.9768 140.064 176.852 -0.116134 0.720183 0.683996
53.7327 140.082 176.962 -0.116134 0.720183 0.683996
53.1603 140.49 176.436 -0.116134 0.720183 0.683996
54.1287 140.496 176.628 -0.0993596 0.533532 0.839924
54.8706 139.97 177.051 -0.0993596 0.533532 0.839924
55.1797 140.438 176.79 -0.0993596 0.533532 0.839924
53.7327 140.082 176.962 0.00136866 0.62676 0.779211
54.8706 139.97 177.051 0.00136866 0.62676 0.779211
54.1287 140.496 176.628 0.00136866 0.62676 0.779211
55.8244 140.406 177.0 -0.358281 -0.236782 0.903089
56.0113 139.689 176.886 -0.358281 -0.236782 0.903089
56.0493 140.153 177.022 -0.358281 -0.236782 0.903089
55.8244 140.406 177.0 -0.311907 -0.227752 0.922412
55.1797 140.438 176.79 -0.311907 -0.227752 0.922412
56.0113 139.689 176.886 -0.311907 -0.227752 0.922412
55.5954 139.491 177.136 0.245794 0.518218 0.819168
56.0113 139.689 176.886 0.245794 0.518218 0.819168
54.8706 139.97 177.051 0.245794 0.518218 0.819168
54.8706 139.97 177.051 0.2196 0.3603 0.90662
56.0113 139.689 176.886 0.2196 0.3603 0.90662
55.1797 140.438 176.79 0.2196 0.3603 0.90662
56.7277 139.827 176.132 0.660152 0.750791 -0.0226496
56.0269 140.437 175.923 0.660152 0.750791 -0.0226496
56.1544 140.352 176.822 0.660152 0.750791 -0.0226496
56.7277 139.827 176.132 0.730079 -0.0925728 0.677064
56.1544 140.352 176.822 0.730079 -0.0925728 0.677064
56.0113 139.689 176.886 0.730079 -0.0925728 0.677064
56.7277 139.827 176.132 0.711583 0.102626 0.695067
56.0113 139.689 176.886 0.711583 0.102626 0.695067
56.9062 139.383 176.015 0.711583 0.102626 0.695067
56.0113 139.689 176.886 0.932032 -0.170589 0.319712
56.1544 140.352 176.822 0.932032 -0.170589 0.319712
56.0493 140.153 177.022 0.932032 -0.170589 0.319712
52.819 140.316 176.165 -0.622731 0.709888 0.329037
53.1603 140.49 176.436 -0.622731 0.709888 0.329037
52.9648 140.589 175.852 -0.622731 0.709888 0.329037
53.7304 140.656 175.921 -0.103769 0.97431 0.199879
52.9648 140.589 175.852 -0.103769 0.97431 0.199879
53.1603 140.49 176.436 -0.103769 0.97431 0.199879
54.1287 140.496 176.628 -0.0562987 0.966606 0.250008
53.7304 140.656 175.921 -0.0562987 0.966606 0.250008
53.1603 140.49 176.436 -0.0562987 0.966606 0.250008
54.8969 140.635 176.045 -0.00606112 0.974679 0.223524
53.7304 140.656 175.921 -0.00606112 0.974679 0.223524
54.1287 140.496 176.628 -0.00606112 0.974679 0.223524
55.1797 140.438 176.79 0.0151558 0.968144 0.249934
54.8969 140.635 176.045 0.0151558 0.968144 0.249934
54.1287 140.496 176.628 0.0151558 0.968144 0.249934
55.1797 140.438 176.79 -0.160557 0.77413 0.612327
55.8244 140.406 177.0 -0.160557 0.77413 0.612327
55.8413 140.566 176.802 -0.160557 0.77413 0.612327
55.1797 140.438 176.79 -0.185196 0.930466 0.316126
55.8413 140.566 176.802 -0.185196 0.930466 0.316126
54.8969 140.635 176.045 -0.185196 0.930466 0.316126
54.8969 140.635 176.045 0.16013 0.980899 -0.110435
55.8413 140.566 176.802 0.16013 0.980899 -0.110435
56.0269 140.437 175.923 0.16013 0.980899 -0.110435
55.8413 140.566 176.802 0.564785 0.825236 -0.00209056
56.1544 140.352 176.822 0.564785 0.825236 -0.00209056
56.0269 140.437 175.923 0.564785 0.825236 -0.00209056
53.8567 135.528 177.023 -0.255147 -0.271931 0.927876
53.7881 135.721 177.06 -0.255147 -0.271931 0.927876
53.722 135.628 177.015 -0.255147 -0.271931 0.927876
53.8567 135.528 177.023 0.343514 -0.0600031 0.937229
53.9063 135.737 177.018 0.343514 -0.0600031 0.937229
53.7881 135.721 177.06 0.343514 -0.0600031 0.937229
53.7881 135.721 177.06 -0.242312 0.00726287 0.970171
53.8156 136.593 177.061 -0.242312 0.00726287 0.970171
53.3351 136.252 176.943 -0.242312 0.00726287 0.970171
53.722 135.628 177.015 -0.407855 -0.149323 0.900754
53.7881 135.721 177.06 -0.407855 -0.149323 0.900754
53.3351 136.252 176.943 -0.407855 -0.149323 0.900754
53.9063 135.737 177.018 0.493226 0.00896501 0.869855
54.2464 136.356 176.819 0.493226 0.00896501 0.869855
53.8156 136.593 177.061 0.493226 0.00896501 0.869855
53.7881 135.721 177.06 0.338215 -0.0110211 0.941004
53.9063 135.737 177.018 0.338215 -0.0110211 0.941004
53.8156 136.593 177.061 0.338215 -0.0110211 0.941004
53.0206 136.811 177.017 -0.710343 0.0404449 0.702693
53.1259 137.649 177.075 -0.710343 0.0404449 0.702693
52.7887 137.477 176.744 -0.710343 0.0404449 0.702693
53.0206 136.811 177.017 -0.105607 -0.187509 0.976569
53.3351 136.252 176.943 -0.105607 -0.187509 0.976569
53.8156 136.593 177.061 -0.105607 -0.187509 0.976569
53.0206 136.811 177.017 -0.0717079 -0.0601194 0.995612
53.8156 136.593 177.061 -0.0717079 -0.0601194 0.995612
53.1259 137.649 177.075 -0.0717079 -0.0601194 0.995612
53.1259 137.649 177.075 -0.0998507 -0.0784481 0.991905
53.8156 136.593 177.061 -0.0998507 -0.0784481 0.991905
54.0518 137.644 177.168 -0.0998507 -0.0784481 0.991905
54.2464 136.356 176.819 0.323249 -0.321009 0.890204
55.0772 137.519 176.937 0.323249 -0.321009 0.890204
53.8156 136.593 177.061 0.323249 -0.321009 0.890204
53.8156 136.593 177.061 0.200706 -0.143642 0.969064
55.0772 137.519 176.937 0.200706 -0.143642 0.969064
54.0518 137.644 177.168 0.200706 -0.143642 0.969064
53.1259 137.649 177.075 -0.661397 -0.0392497 0.749009
53.0731 138.76 177.086 -0.661397 -0.0392497 0.749009
52.789 138.558 176.825 -0.661397 -0.0392497 0.749009
52.7887 137.477 176.744 -0.685246 -0.0543345 0.726282
53.1259 137.649 177.075 -0.685246 -0.0543345 0.726282
52.789 138.558 176.825 -0.685246 -0.0543345 0.726282
54.0518 137.644 177.168 -0.0998292 -0.0845689 0.991404
53.934 138.54 177.232 -0.0998292 -0.0845689 0.991404
53.1259 137.649 177.075 -0.0998292 -0.0845689 0.991404
53.934 138.54 177.232 -0.171468 -0.0184586 0.985017
53.0731 138.76 177.086 -0.171468 -0.0184586 0.985017
53.1259 137.649 177.075 -0.171468 -0.0184586 0.985017
55.0772 137.519 176.937 0.136571 -0.480278 0.866419
54.827 138.415 177.473 0.136571 -0.480278 0.866419
54.0518 137.644 177.168 0.136571 -0.480278 0.866419
54.827 138.415 177.473 -0.272408 -0.104767 0.956461
53.934 138.54 177.232 -0.272408 -0.104767 0.956461
54.0518 137.644 177.168 -0.272408 -0.104767 0.956461
55.0772 137.519 176.937 0.475776 -0.349966 0.806945
55.6252 138.737 177.142 0.475776 -0.349966 0.806945
54.827 138.415 177.473 0.475776 -0.349966 0.806945
53.0731 138.76 177.086 -0.618891 0.047428 0.784043
53.0991 139.585 177.057 -0.618891 0.047428 0.784043
52.8215 139.52 176.842 -0.618891 0.047428 0.784043
52.789 138.558 176.825 -0.681057 0.0101375 0.73216
53.0731 138.76 177.086 -0.681057 0.0101375 0.73216
52.8215 139.52 176.842 -0.681057 0.0101375 0.73216
53.934 138.54 177.232 -0.146067 0.0812236 0.985935
53.9131 139.461 177.153 -0.146067 0.0812236 0.985935
53.0731 138.76 177.086 -0.146067 0.0812236 0.985935
53.9131 139.461 177.153 -0.111337 0.0389103 0.993021
53.0991 139.585 177.057 -0.111337 0.0389103 0.993021
53.0731 138.76 177.086 -0.111337 0.0389103 0.993021
54.827 138.415 177.473 -0.247435 0.09074 0.964646
54.9012 139.29 177.41 -0.247435 0.09074 0.964646
53.934 138.54 177.232 -0.247435 0.09074 0.964646
54.9012 139.29 177.41 -0.237901 0.077621 0.968183
53.9131 139.461 177.153 -0.237901 0.077621 0.968183
53.934 138.54 177.232 -0.237901 0.077621 0.968183
55.6252 138.737 177.142 0.361477 0.0213326 0.932137
55.5954 139.491 177.136 0.361477 0.0213326 0.932137
54.9012 139.29 177.41 0.361477 0.0213326 0.932137
54.827 138.415 177.473 0.37089 0.0356442 0.927993
55.6252 138.737 177.142 0.37089 0.0356442 0.927993
54.9012 139.29 177.41 0.37089 0.0356442 0.927993
52.8215 139.52 176.842 -0.62821 0.164433 0.76047
53.0991 139.585 177.057 -0.62821 0.164433 0.76047
52.9768 140.064 176.852 -0.62821 0.164433 0.76047
53.7327 140.082 176.962 -0.142516 0.357705 0.922896
52.9768 140.064 176.852 -0.142516 0.357705 0.922896
53.0991 139.585 177.057 -0.142516 0.357705 0.922896
53.9131 139.461 177.153 -0.0714139 0.273879 0.959109
53.7327 140.082 176.962 -0.0714139 0.273879 0.959109
53.0991 139.585 177.057 -0.0714139 0.273879 0.959109
54.8706 139.97 177.051 -0.0466223 0.280925 0.958597
53.7327 140.082 176.962 -0.0466223 0.280925 0.958597
53.9131 139.461 177.153 -0.0466223 0.280925 0.958597
54.9012 139.29 177.41 -0.148794 0.456748 0.877064
54.8706 139.97 177.051 -0.148794 0.456748 0.877064
53.9131 139.461 177.153 -0.148794 0.456748 0.877064
55.5954 139.491 177.136 0.205327 0.464453 0.861466
54.8706 139.97 177.051 0.205327 0.464453 0.861466
54.9012 139.29 177.41 0.205327 0.464453 0.861466
56.0493 140.153 177.022 -0.100318 0.000591095 0.994955
56.0312 140.485 177.02 -0.100318 0.000591095 0.994955
55.8244 140.406 177.0 -0.100318 0.000591095 0.994955
56.0493 140.153 177.022 0.86311 0.0499089 0.502544
56.1544 140.352 176.822 0.86311 0.0499089 0.502544
56.0312 140.485 177.02 0.86311 0.0499089 0.502544
55.8244 140.406 177.0 -0.340987 0.745011 0.573311
56.0312 140.485 177.02 -0.340987 0.745011 0.573311
55.8413 140.566 176.802 -0.340987 0.745011 0.573311
56.1544 140.352 176.822 0.562745 0.804488 -0.190044
55.8413 140.566 176.802 0.562745 0.804488 -0.190044
56.0312 140.485 177.02 0.562745 0.804488 -0.190044
3 0 1 2
3 3 4 5
3 6 7 8
3 9 10 11
3 12 13 14
3 15 16 17
3 18 19 20
3 21 22 23
3 24 25 26
3 27 28 29
3 30 31 32
3 33 34 35
3 36 37 38
3 39 40 41
3 42 43 44
3 45 46 47
3 48 49 50
3 51 52 53
3 54 55 56
3 57 58 59
3 60 61 62
3 63 64 65
3 66 67 68
3 69 70 71
3 72 73 74
3 75 76 77
3 78 79 80
3 81 82 83
3 84 85 86
3 87 88 89
3 90 91 92
3 93 94 95
3 96 97 98
3 99 100 101
3 102 103 104
3 105 106 107
3 108 109 110
3 111 112 113
3 114 115 116
3 117 118 119
3 120 121 122
3 123 124 125
3 126 127 128
3 129 130 131
3 132 133 134
3 135 136 137
3 138 139 140
3 141 142 143
3 144 145 146
3 147 148 149
3 150 151 152
3 153 154 155
3 156 157 158
3 159 160 161
3 162 163 164
3 165 166 167
3 168 169 170
3 171 172 173
3 174 175 176
3 177 178 179
3 180 181 182
3 183 184 185
3 186 187 188
3 189 190 191
3 192 193 194
3 195 196 197
3 198 199 200
3 201 202 203
3 204 205 206
3 207 208 209
3 210 211 212
3 213 214 215
3 216 217 218
3 219 220 221
3 222 223 224
3 225 226 227
3 228 229 230
3 231 232 233
3 234 235 236
3 237 238 239
3 240 241 242
3 243 244 245
3 246 247 248
3 249 250 251
3 252 253 254
3 255 256 257
3 258 259 260
3 261 262 263
3 264 265 266
3 267 268 269
3 270 271 272
3 273 274 275
3 276 277 278
3 279 280 281
3 282 283 284
3 285 286 287
3 288 289 290
3 291 292 293
3 294 295 296
3 297 298 299
3 300 301 302
3 303 304 305
3 306 307 308
3 309 310 311
3 312 313 314
3 315 316 317
3 318 319 320
3 321 322 323
3 324 325 326
3 327 328 329
3 330 331 332
3 333 334 335
3 336 337 338
3 339 340 341
3 342 343 344
3 345 346 347
3 348 349 350
3 351 352 353
3 354 355 356
3 357 358 359
3 360 361 362
3 363 364 365
3 366 367 368
3 369 370 371
3 372 373 374
3 375 376 377
3 378 379 380
3 381 382 383
3 384 385 386
3 387 388 389
3 390 391 392
3 393 394 395
3 396 397 398
3 399 400 401
3 402 403 404
3 405 406 407
3 408 409 410
3 411 412 413
3 414 415 416
3 417 418 419
3 420 421 422
3 423 424 425
3 426 427 428
3 429 430 431
3 432 433 434
3 435 436 437
3 438 439 440
3 441 442 443
3 444 445 446
3 447 448 449
3 450 451 452
3 453 454 455
3 456 457 458
3 459 460 461
3 462 463 464
3 465 466 467
3 468 469 470
3 471 472 473
3 474 475 476
3 477 478 479
3 480 481 482
3 483 484 485
3 486 487 488
3 489 490 491
3 492 493 494
3 495 496 497
3 498 499 500
3 501 502 503
3 504 505 506
3 507 508 509
3 510 511 512
3 513 514 515
3 516 517 518
3 519 520 521
3 522 523 524
3 525 526 527
3 528 529 530
3 531 532 533
3 534 535 536
3 537 538 539
3 540 541 542
3 543 544 545
3 546 547 548
3 549 550 551
3 552 553 554
3 555 556 557
3 558 559 560
3 561 562 563
3 564 565 566
3 567 568 569
3 570 571 572
3 573 574 575
3 576 577 578
3 579 580 581
3 582 583 584
3 585 586 587
3 588 589 590
3 591 592 593
3 594 595 596
3 597 598 599
3 600 601 602
3 603 604 605
3 606 607 608
3 609 610 611
3 612 613 614
3 615 616 617
3 618 619 620
3 621 622 623
3 624 625 626
3 627 628 629
3 630 631 632
3 633 634 635
3 636 637 638
3 639 640 641
3 642 643 644
3 645 646 647
3 648 649 650
3 651 652 653
3 654 655 656
3 657 658 659
3 660 661 662
3 663 664 665
3 666 667 668
3 669 670 671
3 672 673 674
3 675 676 677
3 678 679 680
3 681 682 683
3 684 685 686
3 687 688 689
3 690 691 692
3 693 694 695
3 696 697 698
3 699 700 701
3 702 703 704
3 705 706 707
3 708 709 710
3 711 712 713
