ply
format ascii 1.0
element vertex 426
property float x
property float y
property float z
property float nx
property float ny
property float nz
element face 142
property list uint uint vertex_indices
end_header
62.7008 110.518 166.735 -0.749845 -0.301187 -0.589083
62.6894 110.305 166.858 -0.749845 -0.301187 -0.589083
62.5914 110.503 166.882 -0.749845 -0.301187 -0.589083
62.6894 110.305 166.858 0.862475 -0.287186 -0.416727
62.7008 110.518 166.735 0.862475 -0.287186 -0.416727
62.8218 110.467 167.021 0.862475 -0.287186 -0.416727
62.7008 110.518 166.735 -0.803396 0.0535353 -0.593034
62.5914 110.503 166.882 -0.803396 0.0535353 -0.593034
62.7089 110.93 166.761 -0.803396 0.0535353 -0.593034
62.8218 110.467 167.021 0.921339 0.00640173 -0.388707
62.7008 110.518 166.735 0.921339 0.00640173 -0.388707
62.7089 110.93 166.761 0.921339 0.00640173 -0.388707
62.5847 109.784 167.449 -0.331566 -0.750899 -0.571151
62.4456 109.445 167.975 -0.331566 -0.750899 -0.571151
62.272 109.668 167.782 -0.331566 -0.750899 -0.571151
62.4456 109.445 167.975 0.325505 -0.831893 -0.449446
62.5847 109.784 167.449 0.325505 -0.831893 -0.449446
62.7526 109.643 167.831 0.325505 -0.831893 -0.449446
61.9571 110.443 167.45 -0.5944 -0.393092 -0.701546
61.7376 110.12 167.817 -0.5944 -0.393092 -0.701546
61.3688 110.596 167.862 -0.5944 -0.393092 -0.701546
62.272 109.668 167.782 -0.471656 -0.502676 -0.724471
61.7376 110.12 167.817 -0.471656 -0.502676 -0.724471
61.9571 110.443 167.45 -0.471656 -0.502676 -0.724471
62.5847 109.784 167.449 -0.533599 -0.507368 -0.676646
62.272 109.668 167.782 -0.533599 -0.507368 -0.676646
61.9571 110.443 167.45 -0.533599 -0.507368 -0.676646
62.5847 109.784 167.449 -0.54329 -0.516619 -0.661771
61.9571 110.443 167.45 -0.54329 -0.516619 -0.661771
62.5914 110.503 166.882 -0.54329 -0.516619 -0.661771
62.5847 109.784 167.449 -0.818582 -0.350891 -0.454752
62.5914 110.503 166.882 -0.818582 -0.350891 -0.454752
62.6894 110.305 166.858 -0.818582 -0.350891 -0.454752
62.5847 109.784 167.449 0.856824 -0.452449 -0.247269
62.6894 110.305 166.858 0.856824 -0.452449 -0.247269
62.8218 110.467 167.021 0.856824 -0.452449 -0.247269
62.5847 109.784 167.449 0.674079 -0.545947 -0.497553
62.8218 110.467 167.021 0.674079 -0.545947 -0.497553
62.7526 109.643 167.831 0.674079 -0.545947 -0.497553
62.7526 109.643 167.831 0.837874 -0.416921 -0.35234
62.8218 110.467 167.021 0.837874 -0.416921 -0.35234
63.1256 110.321 167.915 0.837874 -0.416921 -0.35234
61.756 111.455 167.234 -0.598987 -0.278892 -0.750622
61.9571 110.443 167.45 -0.598987 -0.278892 -0.750622
61.3688 110.596 167.862 -0.598987 -0.278892 -0.750622
61.0451 111.638 167.891 -0.692195 -0.195902 -0.694614
61.756 111.455 167.234 -0.692195 -0.195902 -0.694614
61.3688 110.596 167.862 -0.692195 -0.195902 -0.694614
62.5914 110.503 166.882 -0.965021 0.230682 -0.124579
62.7753 111.334 166.996 -0.965021 0.230682 -0.124579
62.7089 110.93 166.761 -0.965021 0.230682 -0.124579
62.5914 110.503 166.882 -0.659985 0.243528 -0.710714
61.9571 110.443 167.45 -0.659985 0.243528 -0.710714
62.7753 111.334 166.996 -0.659985 0.243528 -0.710714
61.9571 110.443 167.45 -0.248457 -0.248827 -0.936138
61.756 111.455 167.234 -0.248457 -0.248827 -0.936138
62.7753 111.334 166.996 -0.248457 -0.248827 -0.936138
63.6023 111.094 167.593 0.728389 -0.592711 -0.34372
63.1256 110.321 167.915 0.728389 -0.592711 -0.34372
62.8218 110.467 167.021 0.728389 -0.592711 -0.34372
63.6023 111.094 167.593 0.587277 0.00805572 -0.809346
62.8218 110.467 167.021 0.587277 0.00805572 -0.809346
62.7753 111.334 166.996 0.587277 0.00805572 -0.809346
63.6023 111.094 167.593 0.369031 -0.564868 -0.738065
62.7753 111.334 166.996 0.369031 -0.564868 -0.738065
63.7347 111.537 167.32 0.369031 -0.564868 -0.738065
62.7753 111.334 166.996 0.940949 0.0406776 -0.336095
62.8218 110.467 167.021 0.940949 0.0406776 -0.336095
62.7089 110.93 166.761 0.940949 0.0406776 -0.336095
63.6023 111.094 167.593 0.467993 -0.560597 -0.683164
63.7347 111.537 167.32 0.467993 -0.560597 -0.683164
64.5 111.379 167.974 0.467993 -0.560597 -0.683164
61.6318 112.292 167.458 -0.661033 0.10062 -0.74358
61.756 111.455 167.234 -0.661033 0.10062 -0.74358
61.0451 111.638 167.891 -0.661033 0.10062 -0.74358
61.3634 112.48 167.914 -0.761279 0.303561 -0.572979
61.6318 112.292 167.458 -0.761279 0.303561 -0.572979
61.0451 111.638 167.891 -0.761279 0.303561 -0.572979
62.7753 111.334 166.996 -0.208592 0.148575 -0.966651
61.756 111.455 167.234 -0.208592 0.148575 -0.966651
62.5005 112.366 167.214 -0.208592 0.148575 -0.966651
62.5005 112.366 167.214 -0.281255 0.208614 -0.936684
61.756 111.455 167.234 -0.281255 0.208614 -0.936684
61.6318 112.292 167.458 -0.281255 0.208614 -0.936684
63.7347 111.537 167.32 0.21414 0.406967 -0.887987
62.7753 111.334 166.996 0.21414 0.406967 -0.887987
63.6621 112.276 167.641 0.21414 0.406967 -0.887987
63.6621 112.276 167.641 0.350541 0.281962 -0.893095
62.7753 111.334 166.996 0.350541 0.281962 -0.893095
62.5005 112.366 167.214 0.350541 0.281962 -0.893095
63.6621 112.276 167.641 0.648626 0.356116 -0.672656
64.5 111.379 167.974 0.648626 0.356116 -0.672656
63.7347 111.537 167.32 0.648626 0.356116 -0.672656
61.6318 112.292 167.458 -0.606932 0.542541 -0.58076
61.3634 112.48 167.914 -0.606932 0.542541 -0.58076
61.8509 112.829 167.73 -0.606932 0.542541 -0.58076
62.5005 112.366 167.214 -0.272 0.521453 -0.808766
61.6318 112.292 167.458 -0.272 0.521453 -0.808766
61.8509 112.829 167.73 -0.272 0.521453 -0.808766
62.8067 113.143 167.922 -0.0821234 0.689062 -0.720034
62.5005 112.366 167.214 -0.0821234 0.689062 -0.720034
61.8509 112.829 167.73 -0.0821234 0.689062 -0.720034
63.6621 112.276 167.641 0.323324 0.564889 -0.759185
62.5005 112.366 167.214 0.323324 0.564889 -0.759185
62.8067 113.143 167.922 0.323324 0.564889 -0.759185
63.8618 112.68 168.075 0.363914 0.591953 -0.719137
63.6621 112.276 167.641 0.363914 0.591953 -0.719137
62.8067 113.143 167.922 0.363914 0.591953 -0.719137
61.6954 109.715 168.329 -0.481066 -0.756535 -0.44298
62.272 109.668 167.782 -0.481066 -0.756535 -0.44298
62.4456 109.445 167.975 -0.481066 -0.756535 -0.44298
61.6954 109.715 168.329 -0.444481 -0.844584 -0.29852
62.4456 109.445 167.975 -0.444481 -0.844584 -0.29852
61.813 109.551 168.619 -0.444481 -0.844584 -0.29852
61.813 109.551 168.619 -0.136272 -0.990275 0.0280191
62.4456 109.445 167.975 -0.136272 -0.990275 0.0280191
62.5566 109.445 168.517 -0.136272 -0.990275 0.0280191
62.5566 109.445 168.517 0.504467 -0.857255 -0.103088
62.4456 109.445 167.975 0.504467 -0.857255 -0.103088
62.7526 109.643 167.831 0.504467 -0.857255 -0.103088
62.853 109.712 168.642 0.673657 -0.738756 -0.0206295
62.5566 109.445 168.517 0.673657 -0.738756 -0.0206295
62.7526 109.643 167.831 0.673657 -0.738756 -0.0206295
61.6954 109.715 168.329 -0.666973 -0.731071 -0.143814
61.813 109.551 168.619 -0.666973 -0.731071 -0.143814
60.9245 110.366 168.595 -0.666973 -0.731071 -0.143814
61.6954 109.715 168.329 -0.640208 -0.531151 -0.554989
60.9245 110.366 168.595 -0.640208 -0.531151 -0.554989
61.3688 110.596 167.862 -0.640208 -0.531151 -0.554989
61.6954 109.715 168.329 -0.720769 -0.513621 -0.465495
61.3688 110.596 167.862 -0.720769 -0.513621 -0.465495
61.7376 110.12 167.817 -0.720769 -0.513621 -0.465495
62.272 109.668 167.782 -0.563096 -0.625031 -0.540611
61.6954 109.715 168.329 -0.563096 -0.625031 -0.540611
61.7376 110.12 167.817 -0.563096 -0.625031 -0.540611
63.6266 110.286 168.784 0.422722 -0.862248 -0.278989
63.1256 110.321 167.915 0.422722 -0.862248 -0.278989
63.9685 110.595 168.348 0.422722 -0.862248 -0.278989
63.6266 110.286 168.784 0.595845 -0.711412 -0.372641
62.853 109.712 168.642 0.595845 -0.711412 -0.372641
63.1256 110.321 167.915 0.595845 -0.711412 -0.372641
62.853 109.712 168.642 0.87768 -0.474349 -0.0683384
62.7526 109.643 167.831 0.87768 -0.474349 -0.0683384
63.1256 110.321 167.915 0.87768 -0.474349 -0.0683384
63.9685 110.595 168.348 -0.0110972 -0.9372 -0.348615
64.6366 110.623 168.249 -0.0110972 -0.9372 -0.348615
64.4526 110.444 168.736 -0.0110972 -0.9372 -0.348615
63.6266 110.286 168.784 0.13535 -0.855656 -0.499533
63.9685 110.595 168.348 0.13535 -0.855656 -0.499533
64.4526 110.444 168.736 0.13535 -0.855656 -0.499533
64.4526 110.444 168.736 0.836973 -0.533972 0.119793
64.6366 110.623 168.249 0.836973 -0.533972 0.119793
64.6288 110.73 168.781 0.836973 -0.533972 0.119793
60.6208 111.187 168.703 -0.903331 -0.292935 -0.313339
60.7319 111.225 168.347 -0.903331 -0.292935 -0.313339
60.9245 110.366 168.595 -0.903331 -0.292935 -0.313339
61.3688 110.596 167.862 -0.712103 -0.202704 -0.672176
60.7319 111.225 168.347 -0.712103 -0.202704 -0.672176
61.0451 111.638 167.891 -0.712103 -0.202704 -0.672176
60.9245 110.366 168.595 -0.756743 -0.332116 -0.563062
60.7319 111.225 168.347 -0.756743 -0.332116 -0.563062
61.3688 110.596 167.862 -0.756743 -0.332116 -0.563062
63.1256 110.321 167.915 0.512777 -0.580179 -0.632813
63.6023 111.094 167.593 0.512777 -0.580179 -0.632813
63.9685 110.595 168.348 0.512777 -0.580179 -0.632813
64.5 111.379 167.974 0.465313 -0.617322 -0.634348
63.9685 110.595 168.348 0.465313 -0.617322 -0.634348
63.6023 111.094 167.593 0.465313 -0.617322 -0.634348
64.6366 110.623 168.249 -0.121272 -0.358616 -0.925574
63.9685 110.595 168.348 -0.121272 -0.358616 -0.925574
64.5 111.379 167.974 -0.121272 -0.358616 -0.925574
64.6366 110.623 168.249 0.985098 0.170843 -0.0198668
64.5 111.379 167.974 0.985098 0.170843 -0.0198668
64.6288 110.73 168.781 0.985098 0.170843 -0.0198668
64.6288 110.73 168.781 0.921065 -0.218226 -0.322517
64.5 111.379 167.974 0.921065 -0.218226 -0.322517
64.7832 111.574 168.651 0.921065 -0.218226 -0.322517
60.7319 111.225 168.347 -0.869705 0.439637 -0.224351
60.6208 111.187 168.703 -0.869705 0.439637 -0.224351
60.823 111.622 168.774 -0.869705 0.439637 -0.224351
60.823 111.622 168.774 -0.877572 0.429451 -0.213164
61.0451 111.638 167.891 -0.877572 0.429451 -0.213164
60.7319 111.225 168.347 -0.877572 0.429451 -0.213164
60.823 111.622 168.774 -0.836379 0.509823 -0.20137
61.2689 112.302 168.642 -0.836379 0.509823 -0.20137
61.0451 111.638 167.891 -0.836379 0.509823 -0.20137
61.2689 112.302 168.642 -0.934494 0.354295 -0.0345847
61.3634 112.48 167.914 -0.934494 0.354295 -0.0345847
61.0451 111.638 167.891 -0.934494 0.354295 -0.0345847
64.5 111.379 167.974 0.622409 0.315383 -0.716338
63.6621 112.276 167.641 0.622409 0.315383 -0.716338
64.5922 112.287 168.454 0.622409 0.315383 -0.716338
64.5 111.379 167.974 0.901438 0.127166 -0.41381
64.5922 112.287 168.454 0.901438 0.127166 -0.41381
64.7832 111.574 168.651 0.901438 0.127166 -0.41381
61.3634 112.48 167.914 -0.798745 0.600107 0.0433294
61.2689 112.302 168.642 -0.798745 0.600107 0.0433294
61.8195 113.049 168.444 -0.798745 0.600107 0.0433294
61.8509 112.829 167.73 -0.624165 0.738391 -0.255336
61.3634 112.48 167.914 -0.624165 0.738391 -0.255336
61.8195 113.049 168.444 -0.624165 0.738391 -0.255336
62.5597 113.428 168.271 -0.481901 0.855624 -0.188891
61.8195 113.049 168.444 -0.481901 0.855624 -0.188891
62.2278 113.33 168.675 -0.481901 0.855624 -0.188891
62.5597 113.428 168.271 -0.437598 0.519345 -0.734022
62.8067 113.143 167.922 -0.437598 0.519345 -0.734022
61.8195 113.049 168.444 -0.437598 0.519345 -0.734022
62.8067 113.143 167.922 -0.244299 0.923503 -0.295737
61.8509 112.829 167.73 -0.244299 0.923503 -0.295737
61.8195 113.049 168.444 -0.244299 0.923503 -0.295737
62.986 113.414 168.555 0.325802 0.832203 -0.448654
62.8067 113.143 167.922 0.325802 0.832203 -0.448654
62.5597 113.428 168.271 0.325802 0.832203 -0.448654
62.986 113.414 168.555 0.501087 0.735093 -0.456672
63.5963 113.052 168.641 0.501087 0.735093 -0.456672
62.8067 113.143 167.922 0.501087 0.735093 -0.456672
63.5963 113.052 168.641 0.418186 0.837061 -0.352773
63.8618 112.68 168.075 0.418186 0.837061 -0.352773
62.8067 113.143 167.922 0.418186 0.837061 -0.352773
64.5922 112.287 168.454 0.588508 0.438382 -0.679323
63.6621 112.276 167.641 0.588508 0.438382 -0.679323
63.8618 112.68 168.075 0.588508 0.438382 -0.679323
64.5922 112.287 168.454 0.597488 0.620905 -0.50743
63.8618 112.68 168.075 0.597488 0.620905 -0.50743
64.4359 112.649 168.713 0.597488 0.620905 -0.50743
64.4359 112.649 168.713 0.429276 0.834353 -0.345798
63.8618 112.68 168.075 0.429276 0.834353 -0.345798
63.5963 113.052 168.641 0.429276 0.834353 -0.345798
62.5597 113.428 168.271 -0.316756 0.947996 -0.0311241
62.2278 113.33 168.675 -0.316756 0.947996 -0.0311241
62.6641 113.475 168.643 -0.316756 0.947996 -0.0311241
62.986 113.414 168.555 0.139281 0.976819 -0.162556
62.5597 113.428 168.271 0.139281 0.976819 -0.162556
62.6641 113.475 168.643 0.139281 0.976819 -0.162556
61.813 109.551 168.619 -0.0447825 -0.839798 0.541049
62.5566 109.445 168.517 -0.0447825 -0.839798 0.541049
62.41 109.71 168.915 -0.0447825 -0.839798 0.541049
61.5149 109.824 168.78 -0.194313 -0.646091 0.738112
61.813 109.551 168.619 -0.194313 -0.646091 0.738112
62.41 109.71 168.915 -0.194313 -0.646091 0.738112
62.5566 109.445 168.517 0.376176 -0.70214 0.604558
62.853 109.712 168.642 0.376176 -0.70214 0.604558
62.41 109.71 168.915 0.376176 -0.70214 0.604558
60.9245 110.366 168.595 -0.676068 -0.736839 0.000243042
61.813 109.551 168.619 -0.676068 -0.736839 0.000243042
61.5149 109.824 168.78 -0.676068 -0.736839 0.000243042
60.9245 110.366 168.595 -0.693527 -0.65059 0.309438
61.5149 109.824 168.78 -0.693527 -0.65059 0.309438
60.8361 110.547 168.779 -0.693527 -0.65059 0.309438
60.8361 110.547 168.779 -0.307753 -0.287514 0.906986
61.5149 109.824 168.78 -0.307753 -0.287514 0.906986
61.6048 110.534 169.035 -0.307753 -0.287514 0.906986
62.4429 110.449 169.537 -0.111821 -0.637047 0.762671
62.41 109.71 168.915 -0.111821 -0.637047 0.762671
62.9771 110.273 169.469 -0.111821 -0.637047 0.762671
62.4429 110.449 169.537 -0.467867 -0.556902 0.686266
61.6048 110.534 169.035 -0.467867 -0.556902 0.686266
62.41 109.71 168.915 -0.467867 -0.556902 0.686266
61.6048 110.534 169.035 -0.181142 -0.312691 0.932423
61.5149 109.824 168.78 -0.181142 -0.312691 0.932423
62.41 109.71 168.915 -0.181142 -0.312691 0.932423
62.853 109.712 168.642 0.312845 -0.807044 0.500807
62.9771 110.273 169.469 0.312845 -0.807044 0.500807
62.41 109.71 168.915 0.312845 -0.807044 0.500807
62.853 109.712 168.642 0.480676 -0.757403 0.441917
63.6266 110.286 168.784 0.480676 -0.757403 0.441917
62.9771 110.273 169.469 0.480676 -0.757403 0.441917
63.6266 110.286 168.784 0.169891 -0.974991 0.143279
63.8915 110.417 169.363 0.169891 -0.974991 0.143279
62.9771 110.273 169.469 0.169891 -0.974991 0.143279
64.6288 110.73 168.781 0.66554 -0.286673 0.689111
63.7875 110.725 169.591 0.66554 -0.286673 0.689111
63.8915 110.417 169.363 0.66554 -0.286673 0.689111
64.6288 110.73 168.781 0.658255 -0.493711 0.568287
63.8915 110.417 169.363 0.658255 -0.493711 0.568287
64.4526 110.444 168.736 0.658255 -0.493711 0.568287
64.4526 110.444 168.736 0.19421 -0.972108 0.131486
63.8915 110.417 169.363 0.19421 -0.972108 0.131486
63.6266 110.286 168.784 0.19421 -0.972108 0.131486
60.8361 110.547 168.779 -0.663683 -0.136926 0.735375
60.819 111.21 168.887 -0.663683 -0.136926 0.735375
60.6208 111.187 168.703 -0.663683 -0.136926 0.735375
60.9245 110.366 168.595 -0.935755 -0.329722 -0.125087
60.8361 110.547 168.779 -0.935755 -0.329722 -0.125087
60.6208 111.187 168.703 -0.935755 -0.329722 -0.125087
61.4004 111.353 169.4 -0.406356 -0.454126 0.792871
61.6048 110.534 169.035 -0.406356 -0.454126 0.792871
61.969 111.289 169.654 -0.406356 -0.454126 0.792871
61.4004 111.353 169.4 -0.525262 -0.451844 0.721066
60.819 111.21 168.887 -0.525262 -0.451844 0.721066
61.6048 110.534 169.035 -0.525262 -0.451844 0.721066
60.819 111.21 168.887 -0.315082 -0.160513 0.935392
60.8361 110.547 168.779 -0.315082 -0.160513 0.935392
61.6048 110.534 169.035 -0.315082 -0.160513 0.935392
62.4429 110.449 169.537 -0.502042 -0.390549 0.771638
61.969 111.289 169.654 -0.502042 -0.390549 0.771638
61.6048 110.534 169.035 -0.502042 -0.390549 0.771638
64.5283 111.496 169.03 0.6872 -0.141767 0.712502
63.7875 110.725 169.591 0.6872 -0.141767 0.712502
64.6288 110.73 168.781 0.6872 -0.141767 0.712502
63.8821 111.568 169.629 0.669078 -0.107735 0.735342
63.7875 110.725 169.591 0.669078 -0.107735 0.735342
64.5283 111.496 169.03 0.669078 -0.107735 0.735342
64.6288 110.73 168.781 0.834464 -0.0685146 0.546787
64.7832 111.574 168.651 0.834464 -0.0685146 0.546787
64.5283 111.496 169.03 0.834464 -0.0685146 0.546787
60.6208 111.187 168.703 -0.678063 0.200713 0.707067
60.819 111.21 168.887 -0.678063 0.200713 0.707067
60.823 111.622 168.774 -0.678063 0.200713 0.707067
61.2689 112.302 168.642 -0.568501 0.546928 0.614553
61.5988 111.758 169.431 -0.568501 0.546928 0.614553
61.9277 112.605 168.981 -0.568501 0.546928 0.614553
60.823 111.622 168.774 -0.604673 0.514938 0.607626
61.5988 111.758 169.431 -0.604673 0.514938 0.607626
61.2689 112.302 168.642 -0.604673 0.514938 0.607626
60.823 111.622 168.774 -0.64992 0.263719 0.712781
61.4004 111.353 169.4 -0.64992 0.263719 0.712781
61.5988 111.758 169.431 -0.64992 0.263719 0.712781
60.823 111.622 168.774 -0.675388 0.20134 0.709446
60.819 111.21 168.887 -0.675388 0.20134 0.709446
61.4004 111.353 169.4 -0.675388 0.20134 0.709446
61.9277 112.605 168.981 -0.373667 0.567176 0.733951
62.5091 112.129 169.645 -0.373667 0.567176 0.733951
62.8324 112.54 169.492 -0.373667 0.567176 0.733951
61.5988 111.758 169.431 -0.396218 0.545761 0.738347
62.5091 112.129 169.645 -0.396218 0.545761 0.738347
61.9277 112.605 168.981 -0.396218 0.545761 0.738347
62.8324 112.54 169.492 0.177505 0.649136 0.739672
63.4488 112.112 169.72 0.177505 0.649136 0.739672
63.8252 112.439 169.342 0.177505 0.649136 0.739672
62.5091 112.129 169.645 -0.0660639 0.39281 0.917244
63.4488 112.112 169.72 -0.0660639 0.39281 0.917244
62.8324 112.54 169.492 -0.0660639 0.39281 0.917244
63.8821 111.568 169.629 0.536618 0.295155 0.790522
63.8252 112.439 169.342 0.536618 0.295155 0.790522
63.4488 112.112 169.72 0.536618 0.295155 0.790522
63.8821 111.568 169.629 0.670186 0.271127 0.690899
64.5283 111.496 169.03 0.670186 0.271127 0.690899
63.8252 112.439 169.342 0.670186 0.271127 0.690899
64.5283 111.496 169.03 0.533506 0.120764 0.837131
64.6669 112.252 168.833 0.533506 0.120764 0.837131
63.8252 112.439 169.342 0.533506 0.120764 0.837131
64.7832 111.574 168.651 0.962641 0.210817 -0.169938
64.5922 112.287 168.454 0.962641 0.210817 -0.169938
64.6669 112.252 168.833 0.962641 0.210817 -0.169938
64.5283 111.496 169.03 0.830613 -0.00695405 0.556807
64.7832 111.574 168.651 0.830613 -0.00695405 0.556807
64.6669 112.252 168.833 0.830613 -0.00695405 0.556807
61.2689 112.302 168.642 -0.568137 0.574513 0.589199
61.9277 112.605 168.981 -0.568137 0.574513 0.589199
61.8195 113.049 168.444 -0.568137 0.574513 0.589199
62.2278 113.33 168.675 -0.661771 0.506991 0.552285
61.8195 113.049 168.444 -0.661771 0.506991 0.552285
61.9277 112.605 168.981 -0.661771 0.506991 0.552285
62.2278 113.33 168.675 -0.21823 0.454699 0.863495
61.9277 112.605 168.981 -0.21823 0.454699 0.863495
62.7985 113.207 168.884 -0.21823 0.454699 0.863495
62.7985 113.207 168.884 -0.351099 0.620849 0.700911
61.9277 112.605 168.981 -0.351099 0.620849 0.700911
62.8324 112.54 169.492 -0.351099 0.620849 0.700911
63.5963 113.052 168.641 0.328672 0.703285 0.630369
62.986 113.414 168.555 0.328672 0.703285 0.630369
62.7985 113.207 168.884 0.328672 0.703285 0.630369
63.5963 113.052 168.641 0.31951 0.762704 0.562314
62.7985 113.207 168.884 0.31951 0.762704 0.562314
63.8252 112.439 169.342 0.31951 0.762704 0.562314
63.8252 112.439 169.342 0.176875 0.667823 0.722999
62.7985 113.207 168.884 0.176875 0.667823 0.722999
62.8324 112.54 169.492 0.176875 0.667823 0.722999
64.4359 112.649 168.713 0.317257 0.762945 0.563261
63.5963 113.052 168.641 0.317257 0.762945 0.563261
63.8252 112.439 169.342 0.317257 0.762945 0.563261
64.6669 112.252 168.833 0.525604 0.509948 0.680951
64.4359 112.649 168.713 0.525604 0.509948 0.680951
63.8252 112.439 169.342 0.525604 0.509948 0.680951
64.5922 112.287 168.454 0.873916 0.468868 -0.128196
64.4359 112.649 168.713 0.873916 0.468868 -0.128196
64.6669 112.252 168.833 0.873916 0.468868 -0.128196
62.2278 113.33 168.675 -0.148669 0.619618 0.770695
62.7985 113.207 168.884 -0.148669 0.619618 0.770695
62.6641 113.475 168.643 -0.148669 0.619618 0.770695
62.986 113.414 168.555 0.305663 0.717329 0.626107
62.6641 113.475 168.643 0.305663 0.717329 0.626107
62.7985 113.207 168.884 0.305663 0.717329 0.626107
62.9771 110.273 169.469 -0.0694885 -0.538194 0.839952
62.8306 110.741 169.756 -0.0694885 -0.538194 0.839952
62.4429 110.449 169.537 -0.0694885 -0.538194 0.839952
62.9771 110.273 169.469 0.181104 -0.545738 0.818151
63.8915 110.417 169.363 0.181104 -0.545738 0.818151
63.7875 110.725 169.591 0.181104 -0.545738 0.818151
62.8306 110.741 169.756 0.141097 -0.486013 0.862486
62.9771 110.273 169.469 0.141097 -0.486013 0.862486
63.7875 110.725 169.591 0.141097 -0.486013 0.862486
61.969 111.289 169.654 -0.294046 -0.292511 0.909931
62.4429 110.449 169.537 -0.294046 -0.292511 0.909931
62.8306 110.741 169.756 -0.294046 -0.292511 0.909931
61.969 111.289 169.654 -0.145019 -0.0437578 0.988461
62.8306 110.741 169.756 -0.145019 -0.0437578 0.988461
62.813 111.522 169.788 -0.145019 -0.0437578 0.988461
63.7875 110.725 169.591 0.162185 -0.225848 0.960567
63.5236 111.358 169.785 0.162185 -0.225848 0.960567
62.8306 110.741 169.756 0.162185 -0.225848 0.960567
63.5236 111.358 169.785 -0.00403752 -0.0410293 0.99915
62.813 111.522 169.788 -0.00403752 -0.0410293 0.99915
62.8306 110.741 169.756 -0.00403752 -0.0410293 0.99915
63.7875 110.725 169.591 0.440694 -0.0890973 0.893225
63.8821 111.568 169.629 0.440694 -0.0890973 0.893225
63.5236 111.358 169.785 0.440694 -0.0890973 0.893225
61.4004 111.353 169.4 -0.39402 0.12302 0.910831
61.969 111.289 169.654 -0.39402 0.12302 0.910831
61.5988 111.758 169.431 -0.39402 0.12302 0.910831
62.5091 112.129 169.645 -0.302405 0.204922 0.930891
61.5988 111.758 169.431 -0.302405 0.204922 0.930891
61.969 111.289 169.654 -0.302405 0.204922 0.930891
62.813 111.522 169.788 -0.191442 0.134069 0.972304
62.5091 112.129 169.645 -0.191442 0.134069 0.972304
61.969 111.289 169.654 -0.191442 0.134069 0.972304
63.4488 112.112 169.72 -0.0746954 0.193857 0.978182
62.5091 112.129 169.645 -0.0746954 0.193857 0.978182
62.813 111.522 169.788 -0.0746954 0.193857 0.978182
63.5236 111.358 169.785 0.0256038 0.087816 0.995808
63.4488 112.112 169.72 0.0256038 0.087816 0.995808
62.813 111.522 169.788 0.0256038 0.087816 0.995808
63.8821 111.568 169.629 0.33933 0.113626 0.93378
63.4488 112.112 169.72 0.33933 0.113626 0.93378
63.5236 111.358 169.785 0.33933 0.113626 0.93378
3 0 1 2
3 3 4 5
3 6 7 8
3 9 10 11
3 12 13 14
3 15 16 17
3 18 19 20
3 21 22 23
3 24 25 26
3 27 28 29
3 30 31 32
3 33 34 35
3 36 37 38
3 39 40 41
3 42 43 44
3 45 46 47
3 48 49 50
3 51 52 53
3 54 55 56
3 57 58 59
3 60 61 62
3 63 64 65
3 66 67 68
3 69 70 71
3 72 73 74
3 75 76 77
3 78 79 80
3 81 82 83
3 84 85 86
3 87 88 89
3 90 91 92
3 93 94 95
3 96 97 98
3 99 100 101
3 102 103 104
3 105 106 107
3 108 109 110
3 111 112 113
3 114 115 116
3 117 118 119
3 120 121 122
3 123 124 125
3 126 127 128
3 129 130 131
3 132 133 134
3 135 136 137
3 138 139 140
3 141 142 143
3 144 145 146
3 147 148 149
3 150 151 152
3 153 154 155
3 156 157 158
3 159 160 161
3 162 163 164
3 165 166 167
3 168 169 170
3 171 172 173
3 174 175 176
3 177 178 179
3 180 181 182
3 183 184 185
3 186 187 188
3 189 190 191
3 192 193 194
3 195 196 197
3 198 199 200
3 201 202 203
3 204 205 206
3 207 208 209
3 210 211 212
3 213 214 215
3 216 217 218
3 219 220 221
3 222 223 224
3 225 226 227
3 228 229 230
3 231 232 233
3 234 235 236
3 237 238 239
3 240 241 242
3 243 244 245
3 246 247 248
3 249 250 251
3 252 253 254
3 255 256 257
3 258 259 260
3 261 262 263
3 264 265 266
3 267 268 269
3 270 271 272
3 273 274 275
3 276 277 278
3 279 280 281
3 282 283 284
3 285 286 287
3 288 289 290
3 291 292 293
3 294 295 296
3 297 298 299
3 300 301 302
3 303 304 305
3 306 307 308
3 309 310 311
3 312 313 314
3 315 316 317
3 318 319 320
3 321 322 323
3 324 325 326
3 327 328 329
3 330 331 332
3 333 334 335
3 336 337 338
3 339 340 341
3 342 343 344
3 345 346 347
3 348 349 350
3 351 352 353
3 354 355 356
3 357 358 359
3 360 361 362
3 363 364 365
3 366 367 368
3 369 370 371
3 372 373 374
3 375 376 377
3 378 379 380
3 381 382 383
3 384 385 386
3 387 388 389
3 390 391 392
3 393 394 395
3 396 397 398
3 399 400 401
3 402 403 404
3 405 406 407
3 408 409 410
3 411 412 413
3 414 415 416
3 417 418 419
3 420 421 422
3 423 424 425
