ply
format ascii 1.0
element vertex 276
property float x
property float y
property float z
property float nx
property float ny
property float nz
element face 92
property list uint uint vertex_indices
end_header
100.32 111.829 190.569 0.0312059 -0.584551 -0.810757
101.04 111.76 190.646 0.0312059 -0.584551 -0.810757
100.895 111.549 190.793 0.0312059 -0.584551 -0.810757
100.035 111.602 190.93 -0.144567 -0.781957 -0.606337
100.32 111.829 190.569 -0.144567 -0.781957 -0.606337
100.895 111.549 190.793 -0.144567 -0.781957 -0.606337
100.895 111.549 190.793 0.451402 -0.697238 -0.556861
101.04 111.76 190.646 0.451402 -0.697238 -0.556861
101.137 111.67 190.838 0.451402 -0.697238 -0.556861
99.425 112.559 190.633 -0.644929 -0.148683 -0.74964
99.1731 112.076 190.945 -0.644929 -0.148683 -0.74964
98.9336 112.569 191.054 -0.644929 -0.148683 -0.74964
100.035 111.602 190.93 -0.25187 -0.42966 -0.867153
99.1731 112.076 190.945 -0.25187 -0.42966 -0.867153
99.425 112.559 190.633 -0.25187 -0.42966 -0.867153
100.035 111.602 190.93 -0.477108 -0.523185 -0.706149
99.425 112.559 190.633 -0.477108 -0.523185 -0.706149
100.32 111.829 190.569 -0.477108 -0.523185 -0.706149
100.32 111.829 190.569 -0.174878 -0.128744 -0.976137
99.425 112.559 190.633 -0.174878 -0.128744 -0.976137
100.243 112.629 190.477 -0.174878 -0.128744 -0.976137
101.04 111.76 190.646 0.0991185 -0.0797335 -0.991876
100.32 111.829 190.569 0.0991185 -0.0797335 -0.991876
100.965 112.508 190.579 0.0991185 -0.0797335 -0.991876
100.965 112.508 190.579 0.122 -0.101548 -0.987322
100.32 111.829 190.569 0.122 -0.101548 -0.987322
100.243 112.629 190.477 0.122 -0.101548 -0.987322
101.192 112.353 190.859 0.879655 -0.0568662 -0.472201
101.137 111.67 190.838 0.879655 -0.0568662 -0.472201
101.04 111.76 190.646 0.879655 -0.0568662 -0.472201
100.965 112.508 190.579 0.782281 0.0222028 -0.62253
101.192 112.353 190.859 0.782281 0.0222028 -0.62253
101.04 111.76 190.646 0.782281 0.0222028 -0.62253
99.425 112.559 190.633 -0.456754 0.311705 -0.833196
99.6845 113.459 190.827 -0.456754 0.311705 -0.833196
100.078 113.294 190.55 -0.456754 0.311705 -0.833196
99.425 112.559 190.633 -0.191748 0.0595031 -0.979639
100.078 113.294 190.55 -0.191748 0.0595031 -0.979639
100.243 112.629 190.477 -0.191748 0.0595031 -0.979639
100.965 112.508 190.579 0.149318 0.0611727 -0.986895
100.243 112.629 190.477 0.149318 0.0611727 -0.986895
100.832 113.32 190.609 0.149318 0.0611727 -0.986895
100.832 113.32 190.609 0.0733296 0.126422 -0.989263
100.243 112.629 190.477 0.0733296 0.126422 -0.989263
100.078 113.294 190.55 0.0733296 0.126422 -0.989263
101.164 113.227 190.823 0.776168 -0.00122924 -0.630525
101.192 112.353 190.859 0.776168 -0.00122924 -0.630525
100.965 112.508 190.579 0.776168 -0.00122924 -0.630525
100.832 113.32 190.609 0.560671 0.122407 -0.818941
101.164 113.227 190.823 0.560671 0.122407 -0.818941
100.965 112.508 190.579 0.560671 0.122407 -0.818941
100.078 113.294 190.55 -0.265461 0.615144 -0.742381
99.6845 113.459 190.827 -0.265461 0.615144 -0.742381
100.157 113.689 190.849 -0.265461 0.615144 -0.742381
100.832 113.32 190.609 0.0422315 0.597723 -0.80059
100.078 113.294 190.55 0.0422315 0.597723 -0.80059
100.157 113.689 190.849 0.0422315 0.597723 -0.80059
100.92 113.59 190.941 0.174148 0.740337 -0.649288
100.832 113.32 190.609 0.174148 0.740337 -0.649288
100.157 113.689 190.849 0.174148 0.740337 -0.649288
101.164 113.227 190.823 0.551023 0.56935 -0.610093
100.832 113.32 190.609 0.551023 0.56935 -0.610093
100.92 113.59 190.941 0.551023 0.56935 -0.610093
99.3638 111.535 191.756 -0.126099 -0.975301 -0.181347
100.035 111.602 190.93 -0.126099 -0.975301 -0.181347
100.101 111.453 191.685 -0.126099 -0.975301 -0.181347
100.895 111.549 190.793 -0.0270986 -0.978235 0.205722
100.894 111.731 191.656 -0.0270986 -0.978235 0.205722
100.035 111.602 190.93 -0.0270986 -0.978235 0.205722
100.035 111.602 190.93 0.316107 -0.92518 -0.210042
100.894 111.731 191.656 0.316107 -0.92518 -0.210042
100.101 111.453 191.685 0.316107 -0.92518 -0.210042
100.894 111.731 191.656 0.409466 -0.89273 0.188071
100.895 111.549 190.793 0.409466 -0.89273 0.188071
101.137 111.67 190.838 0.409466 -0.89273 0.188071
99.1731 112.076 190.945 -0.569115 -0.73955 -0.359407
99.3638 111.535 191.756 -0.569115 -0.73955 -0.359407
98.9734 111.877 191.671 -0.569115 -0.73955 -0.359407
99.1731 112.076 190.945 -0.873938 -0.350671 -0.336545
98.9734 111.877 191.671 -0.873938 -0.350671 -0.336545
98.9336 112.569 191.054 -0.873938 -0.350671 -0.336545
98.9336 112.569 191.054 -0.98616 -0.138321 -0.091406
98.9734 111.877 191.671 -0.98616 -0.138321 -0.091406
98.8822 112.511 191.695 -0.98616 -0.138321 -0.091406
100.035 111.602 190.93 -0.442397 -0.790629 -0.423309
99.3638 111.535 191.756 -0.442397 -0.790629 -0.423309
99.1731 112.076 190.945 -0.442397 -0.790629 -0.423309
101.137 111.67 190.838 0.953279 -0.0863672 0.289483
101.192 112.353 190.859 0.953279 -0.0863672 0.289483
100.894 111.731 191.656 0.953279 -0.0863672 0.289483
100.894 111.731 191.656 0.959061 -0.181621 0.21729
101.192 112.353 190.859 0.959061 -0.181621 0.21729
101.139 112.858 191.516 0.959061 -0.181621 0.21729
99.1311 113.317 191.263 -0.603129 0.358232 -0.712675
99.425 112.559 190.633 -0.603129 0.358232 -0.712675
98.9336 112.569 191.054 -0.603129 0.358232 -0.712675
99.1311 113.317 191.263 -0.930426 0.303122 -0.205974
98.9336 112.569 191.054 -0.930426 0.303122 -0.205974
98.9851 113.227 191.789 -0.930426 0.303122 -0.205974
98.9851 113.227 191.789 -0.986473 0.150309 -0.0654112
98.9336 112.569 191.054 -0.986473 0.150309 -0.0654112
98.8822 112.511 191.695 -0.986473 0.150309 -0.0654112
99.425 112.559 190.633 -0.634212 0.333577 -0.697497
99.1311 113.317 191.263 -0.634212 0.333577 -0.697497
99.6845 113.459 190.827 -0.634212 0.333577 -0.697497
101.131 113.406 191.281 0.833273 0.228902 0.50325
100.887 113.412 191.682 0.833273 0.228902 0.50325
101.139 112.858 191.516 0.833273 0.228902 0.50325
101.131 113.406 191.281 0.997568 0.0400904 0.0570109
101.139 112.858 191.516 0.997568 0.0400904 0.0570109
101.164 113.227 190.823 0.997568 0.0400904 0.0570109
101.164 113.227 190.823 0.997935 0.0346083 0.054107
101.139 112.858 191.516 0.997935 0.0346083 0.054107
101.192 112.353 190.859 0.997935 0.0346083 0.054107
99.1311 113.317 191.263 -0.883921 0.435513 -0.170327
98.9851 113.227 191.789 -0.883921 0.435513 -0.170327
99.3427 113.845 191.515 -0.883921 0.435513 -0.170327
99.6845 113.459 190.827 -0.604567 0.527638 -0.596739
99.1311 113.317 191.263 -0.604567 0.527638 -0.596739
99.3427 113.845 191.515 -0.604567 0.527638 -0.596739
99.6845 113.459 190.827 -0.334145 0.741051 -0.582401
99.3427 113.845 191.515 -0.334145 0.741051 -0.582401
100.157 113.689 190.849 -0.334145 0.741051 -0.582401
100.157 113.689 190.849 -0.0387184 0.961198 -0.27313
99.3427 113.845 191.515 -0.0387184 0.961198 -0.27313
100.122 113.908 191.626 -0.0387184 0.961198 -0.27313
100.887 113.412 191.682 0.399249 0.887344 0.230695
101.131 113.406 191.281 0.399249 0.887344 0.230695
100.92 113.59 190.941 0.399249 0.887344 0.230695
100.887 113.412 191.682 0.519374 0.825436 0.221147
100.92 113.59 190.941 0.519374 0.825436 0.221147
100.122 113.908 191.626 0.519374 0.825436 0.221147
100.122 113.908 191.626 0.155189 0.952532 -0.261914
100.92 113.59 190.941 0.155189 0.952532 -0.261914
100.157 113.689 190.849 0.155189 0.952532 -0.261914
101.164 113.227 190.823 0.790043 0.588138 -0.172989
100.92 113.59 190.941 0.790043 0.588138 -0.172989
101.131 113.406 191.281 0.790043 0.588138 -0.172989
99.3638 111.535 191.756 -0.653967 -0.75582 -0.032593
99.1222 111.719 192.35 -0.653967 -0.75582 -0.032593
98.9734 111.877 191.671 -0.653967 -0.75582 -0.032593
99.6612 111.698 192.755 -0.19822 -0.956365 0.21465
99.1222 111.719 192.35 -0.19822 -0.956365 0.21465
99.3638 111.535 191.756 -0.19822 -0.956365 0.21465
99.6612 111.698 192.755 -0.223068 -0.94944 0.220919
99.3638 111.535 191.756 -0.223068 -0.94944 0.220919
100.106 111.518 192.43 -0.223068 -0.94944 0.220919
100.106 111.518 192.43 -0.102253 -0.990968 0.0867602
99.3638 111.535 191.756 -0.102253 -0.990968 0.0867602
100.101 111.453 191.685 -0.102253 -0.990968 0.0867602
100.894 111.731 191.656 0.477739 -0.840758 0.254738
100.52 111.848 192.745 0.477739 -0.840758 0.254738
100.106 111.518 192.43 0.477739 -0.840758 0.254738
100.894 111.731 191.656 0.332053 -0.939942 0.0790559
100.106 111.518 192.43 0.332053 -0.939942 0.0790559
100.101 111.453 191.685 0.332053 -0.939942 0.0790559
99.1222 111.719 192.35 -0.910198 -0.183751 0.371181
99.2245 112.102 192.791 -0.910198 -0.183751 0.371181
99.0148 112.423 192.435 -0.910198 -0.183751 0.371181
99.1222 111.719 192.35 -0.970227 -0.169032 0.173459
99.0148 112.423 192.435 -0.970227 -0.169032 0.173459
98.9734 111.877 191.671 -0.970227 -0.169032 0.173459
98.9734 111.877 191.671 -0.976598 -0.146363 0.157589
99.0148 112.423 192.435 -0.976598 -0.146363 0.157589
98.8822 112.511 191.695 -0.976598 -0.146363 0.157589
99.6612 111.698 192.755 -0.498097 -0.593373 0.632304
99.2245 112.102 192.791 -0.498097 -0.593373 0.632304
99.1222 111.719 192.35 -0.498097 -0.593373 0.632304
100.94 112.573 192.261 0.894399 -0.292081 0.33873
100.52 111.848 192.745 0.894399 -0.292081 0.33873
100.894 111.731 191.656 0.894399 -0.292081 0.33873
100.673 112.608 192.747 0.857898 -0.17433 0.483343
100.52 111.848 192.745 0.857898 -0.17433 0.483343
100.94 112.573 192.261 0.857898 -0.17433 0.483343
100.894 111.731 191.656 0.964568 -0.186648 0.186472
101.139 112.858 191.516 0.964568 -0.186648 0.186472
100.94 112.573 192.261 0.964568 -0.186648 0.186472
99.2453 112.885 192.672 -0.787616 0.459679 0.410312
99.3869 113.505 192.249 -0.787616 0.459679 0.410312
98.9851 113.227 191.789 -0.787616 0.459679 0.410312
99.2453 112.885 192.672 -0.894366 0.259561 0.364331
98.9851 113.227 191.789 -0.894366 0.259561 0.364331
99.0148 112.423 192.435 -0.894366 0.259561 0.364331
99.0148 112.423 192.435 -0.975266 0.115374 0.188536
98.9851 113.227 191.789 -0.975266 0.115374 0.188536
98.8822 112.511 191.695 -0.975266 0.115374 0.188536
99.3869 113.505 192.249 0.0713644 0.837285 0.54209
99.9934 113.087 192.814 0.0713644 0.837285 0.54209
100.27 113.345 192.379 0.0713644 0.837285 0.54209
99.2453 112.885 192.672 -0.301509 0.583275 0.754243
99.9934 113.087 192.814 -0.301509 0.583275 0.754243
99.3869 113.505 192.249 -0.301509 0.583275 0.754243
100.673 112.608 192.747 0.478431 0.587315 0.652813
100.27 113.345 192.379 0.478431 0.587315 0.652813
99.9934 113.087 192.814 0.478431 0.587315 0.652813
100.94 112.573 192.261 0.731295 0.579422 0.359829
100.27 113.345 192.379 0.731295 0.579422 0.359829
100.673 112.608 192.747 0.731295 0.579422 0.359829
100.94 112.573 192.261 0.641636 0.462977 0.611519
100.887 113.412 191.682 0.641636 0.462977 0.611519
100.27 113.345 192.379 0.641636 0.462977 0.611519
100.94 112.573 192.261 0.887222 0.29896 0.351369
101.139 112.858 191.516 0.887222 0.29896 0.351369
100.887 113.412 191.682 0.887222 0.29896 0.351369
98.9851 113.227 191.789 -0.755957 0.575239 0.312457
99.3869 113.505 192.249 -0.755957 0.575239 0.312457
99.3427 113.845 191.515 -0.755957 0.575239 0.312457
100.122 113.908 191.626 -0.132198 0.896097 0.423714
99.3427 113.845 191.515 -0.132198 0.896097 0.423714
99.3869 113.505 192.249 -0.132198 0.896097 0.423714
100.27 113.345 192.379 0.0584844 0.805259 0.590032
100.122 113.908 191.626 0.0584844 0.805259 0.590032
99.3869 113.505 192.249 0.0584844 0.805259 0.590032
100.887 113.412 191.682 0.454671 0.754139 0.473866
100.122 113.908 191.626 0.454671 0.754139 0.473866
100.27 113.345 192.379 0.454671 0.754139 0.473866
100.106 111.518 192.43 -0.211198 -0.948382 0.236573
100.101 111.649 192.95 -0.211198 -0.948382 0.236573
99.6612 111.698 192.755 -0.211198 -0.948382 0.236573
100.106 111.518 192.43 0.504309 -0.836289 0.21516
100.52 111.848 192.745 0.504309 -0.836289 0.21516
100.101 111.649 192.95 0.504309 -0.836289 0.21516
99.2245 112.102 192.791 -0.897697 -0.115584 0.425183
99.2692 112.488 192.99 -0.897697 -0.115584 0.425183
99.0148 112.423 192.435 -0.897697 -0.115584 0.425183
99.2245 112.102 192.791 -0.634632 -0.295416 0.714123
99.8073 112.343 193.408 -0.634632 -0.295416 0.714123
99.2692 112.488 192.99 -0.634632 -0.295416 0.714123
99.6612 111.698 192.755 -0.474186 -0.570917 0.670225
99.8073 112.343 193.408 -0.474186 -0.570917 0.670225
99.2245 112.102 192.791 -0.474186 -0.570917 0.670225
99.6612 111.698 192.755 -0.380508 -0.613825 0.691688
100.084 112.168 193.405 -0.380508 -0.613825 0.691688
99.8073 112.343 193.408 -0.380508 -0.613825 0.691688
99.6612 111.698 192.755 -0.375914 -0.617232 0.691168
100.101 111.649 192.95 -0.375914 -0.617232 0.691168
100.084 112.168 193.405 -0.375914 -0.617232 0.691168
100.084 112.168 193.405 0.563605 -0.53325 0.630867
100.101 111.649 192.95 0.563605 -0.53325 0.630867
100.52 111.848 192.745 0.563605 -0.53325 0.630867
100.084 112.168 193.405 0.751552 -0.241838 0.613746
100.52 111.848 192.745 0.751552 -0.241838 0.613746
100.201 112.478 193.384 0.751552 -0.241838 0.613746
100.201 112.478 193.384 0.808029 -0.164478 0.565717
100.52 111.848 192.745 0.808029 -0.164478 0.565717
100.673 112.608 192.747 0.808029 -0.164478 0.565717
99.0148 112.423 192.435 -0.890895 0.250315 0.37901
99.2692 112.488 192.99 -0.890895 0.250315 0.37901
99.2453 112.885 192.672 -0.890895 0.250315 0.37901
99.2692 112.488 192.99 -0.577584 0.164234 0.79964
99.8073 112.343 193.408 -0.577584 0.164234 0.79964
99.8778 112.621 193.402 -0.577584 0.164234 0.79964
99.2692 112.488 192.99 -0.558176 0.498419 0.663339
99.8778 112.621 193.402 -0.558176 0.498419 0.663339
99.2453 112.885 192.672 -0.558176 0.498419 0.663339
99.2453 112.885 192.672 -0.314141 0.772901 0.551307
99.8778 112.621 193.402 -0.314141 0.772901 0.551307
99.9934 113.087 192.814 -0.314141 0.772901 0.551307
100.201 112.478 193.384 0.524137 0.670021 0.525693
100.673 112.608 192.747 0.524137 0.670021 0.525693
99.9934 113.087 192.814 0.524137 0.670021 0.525693
99.8778 112.621 193.402 0.345354 0.701031 0.623928
100.201 112.478 193.384 0.345354 0.701031 0.623928
99.9934 113.087 192.814 0.345354 0.701031 0.623928
100.084 112.168 193.405 -0.351598 -0.569121 0.74329
100.053 112.456 193.611 -0.351598 -0.569121 0.74329
99.8073 112.343 193.408 -0.351598 -0.569121 0.74329
100.084 112.168 193.405 0.81668 -0.2736 0.50811
100.201 112.478 193.384 0.81668 -0.2736 0.50811
100.053 112.456 193.611 0.81668 -0.2736 0.50811
99.8073 112.343 193.408 -0.674708 0.187069 0.713985
100.053 112.456 193.611 -0.674708 0.187069 0.713985
99.8778 112.621 193.402 -0.674708 0.187069 0.713985
100.201 112.478 193.384 0.396196 0.852116 0.341946
99.8778 112.621 193.402 0.396196 0.852116 0.341946
100.053 112.456 193.611 0.396196 0.852116 0.341946
3 0 1 2
3 3 4 5
3 6 7 8
3 9 10 11
3 12 13 14
3 15 16 17
3 18 19 20
3 21 22 23
3 24 25 26
3 27 28 29
3 30 31 32
3 33 34 35
3 36 37 38
3 39 40 41
3 42 43 44
3 45 46 47
3 48 49 50
3 51 52 53
3 54 55 56
3 57 58 59
3 60 61 62
3 63 64 65
3 66 67 68
3 69 70 71
3 72 73 74
3 75 76 77
3 78 79 80
3 81 82 83
3 84 85 86
3 87 88 89
3 90 91 92
3 93 94 95
3 96 97 98
3 99 100 101
3 102 103 104
3 105 106 107
3 108 109 110
3 111 112 113
3 114 115 116
3 117 118 119
3 120 121 122
3 123 124 125
3 126 127 128
3 129 130 131
3 132 133 134
3 135 136 137
3 138 139 140
3 141 142 143
3 144 145 146
3 147 148 149
3 150 151 152
3 153 154 155
3 156 157 158
3 159 160 161
3 162 163 164
3 165 166 167
3 168 169 170
3 171 172 173
3 174 175 176
3 177 178 179
3 180 181 182
3 183 184 185
3 186 187 188
3 189 190 191
3 192 193 194
3 195 196 197
3 198 199 200
3 201 202 203
3 204 205 206
3 207 208 209
3 210 211 212
3 213 214 215
3 216 217 218
3 219 220 221
3 222 223 224
3 225 226 227
3 228 229 230
3 231 232 233
3 234 235 236
3 237 238 239
3 240 241 242
3 243 244 245
3 246 247 248
3 249 250 251
3 252 253 254
3 255 256 257
3 258 259 260
3 261 262 263
3 264 265 266
3 267 268 269
3 270 271 272
3 273 274 275
