ply
format ascii 1.0
element vertex 636
property float x
property float y
property float z
property float nx
property float ny
property float nz
element face 212
property list uint uint vertex_indices
end_header
122.066 163.51 144.898 -0.569375 -0.5586 -0.60314
122.056 163.397 145.013 -0.569375 -0.5586 -0.60314
121.801 163.495 145.163 -0.569375 -0.5586 -0.60314
122.056 163.397 145.013 0.837573 -0.422124 -0.346818
122.066 163.51 144.898 0.837573 -0.422124 -0.346818
122.103 163.428 145.089 0.837573 -0.422124 -0.346818
119.604 164.364 145.123 -0.633886 -0.129275 -0.762546
119.823 163.662 145.06 -0.633886 -0.129275 -0.762546
119.109 163.548 145.673 -0.633886 -0.129275 -0.762546
120.148 164.238 145.024 0.0361425 -0.0822577 -0.995956
120.117 163.561 145.079 0.0361425 -0.0822577 -0.995956
119.823 163.662 145.06 0.0361425 -0.0822577 -0.995956
119.604 164.364 145.123 -0.171086 0.035276 -0.984624
120.148 164.238 145.024 -0.171086 0.035276 -0.984624
119.823 163.662 145.06 -0.171086 0.035276 -0.984624
122.066 163.51 144.898 -0.245925 0.950631 -0.189268
121.801 163.495 145.163 -0.245925 0.950631 -0.189268
122.061 163.554 145.122 -0.245925 0.950631 -0.189268
122.103 163.428 145.089 0.942913 0.330061 -0.0444437
122.066 163.51 144.898 0.942913 0.330061 -0.0444437
122.061 163.554 145.122 0.942913 0.330061 -0.0444437
120.148 164.238 145.024 -0.0551096 0.46072 -0.885833
119.604 164.364 145.123 -0.0551096 0.46072 -0.885833
120.031 164.645 145.243 -0.0551096 0.46072 -0.885833
120.117 162.904 145.608 -0.0468162 -0.72044 -0.691935
121.16 162.782 145.665 -0.0468162 -0.72044 -0.691935
120.848 162.524 145.954 -0.0468162 -0.72044 -0.691935
119.918 162.666 146.104 -0.208276 -0.846658 -0.489684
120.117 162.904 145.608 -0.208276 -0.846658 -0.489684
120.848 162.524 145.954 -0.208276 -0.846658 -0.489684
120.848 162.524 145.954 0.192985 -0.826853 -0.528272
121.16 162.782 145.665 0.192985 -0.826853 -0.528272
121.653 162.606 146.12 0.192985 -0.826853 -0.528272
118.067 163.744 146.097 -0.370689 -0.730875 -0.573073
119.109 163.548 145.673 -0.370689 -0.730875 -0.573073
118.967 163.272 146.117 -0.370689 -0.730875 -0.573073
119.918 162.666 146.104 -0.446395 -0.688817 -0.571194
118.967 163.272 146.117 -0.446395 -0.688817 -0.571194
119.109 163.548 145.673 -0.446395 -0.688817 -0.571194
120.117 162.904 145.608 -0.480821 -0.699549 -0.528622
119.918 162.666 146.104 -0.480821 -0.699549 -0.528622
119.109 163.548 145.673 -0.480821 -0.699549 -0.528622
120.117 162.904 145.608 -0.444506 -0.63205 -0.634765
119.109 163.548 145.673 -0.444506 -0.63205 -0.634765
119.823 163.662 145.06 -0.444506 -0.63205 -0.634765
120.117 163.561 145.079 -0.162389 -0.619161 -0.76829
120.117 162.904 145.608 -0.162389 -0.619161 -0.76829
119.823 163.662 145.06 -0.162389 -0.619161 -0.76829
120.117 163.561 145.079 0.32973 -0.592494 -0.735003
120.811 163.544 145.404 0.32973 -0.592494 -0.735003
120.117 162.904 145.608 0.32973 -0.592494 -0.735003
120.811 163.544 145.404 0.014497 -0.318415 -0.947841
121.16 162.782 145.665 0.014497 -0.318415 -0.947841
120.117 162.904 145.608 0.014497 -0.318415 -0.947841
121.801 163.495 145.163 -0.553236 -0.657758 -0.511161
122.056 163.397 145.013 -0.553236 -0.657758 -0.511161
121.963 162.956 145.681 -0.553236 -0.657758 -0.511161
121.801 163.495 145.163 0.157521 -0.65968 -0.734853
121.963 162.956 145.681 0.157521 -0.65968 -0.734853
121.16 162.782 145.665 0.157521 -0.65968 -0.734853
121.801 163.495 145.163 -0.235175 -0.40971 -0.88138
121.16 162.782 145.665 -0.235175 -0.40971 -0.88138
120.811 163.544 145.404 -0.235175 -0.40971 -0.88138
121.653 162.606 146.12 0.190238 -0.828886 -0.526077
121.16 162.782 145.665 0.190238 -0.828886 -0.526077
121.963 162.956 145.681 0.190238 -0.828886 -0.526077
121.963 162.956 145.681 0.787719 -0.55902 -0.258834
122.056 163.397 145.013 0.787719 -0.55902 -0.258834
122.103 163.428 145.089 0.787719 -0.55902 -0.258834
122.103 163.414 145.828 0.956579 -0.291429 -0.00513632
121.963 162.956 145.681 0.956579 -0.291429 -0.00513632
122.103 163.428 145.089 0.956579 -0.291429 -0.00513632
117.627 164.503 146.148 -0.682176 -0.352479 -0.64062
117.918 164.434 145.877 -0.682176 -0.352479 -0.64062
118.067 163.744 146.097 -0.682176 -0.352479 -0.64062
119.109 163.548 145.673 -0.399395 -0.172437 -0.900416
118.067 163.744 146.097 -0.399395 -0.172437 -0.900416
118.65 164.389 145.715 -0.399395 -0.172437 -0.900416
118.65 164.389 145.715 -0.222635 -0.340023 -0.913684
118.067 163.744 146.097 -0.222635 -0.340023 -0.913684
117.918 164.434 145.877 -0.222635 -0.340023 -0.913684
119.109 163.548 145.673 -0.516563 -0.240421 -0.821803
118.65 164.389 145.715 -0.516563 -0.240421 -0.821803
119.604 164.364 145.123 -0.516563 -0.240421 -0.821803
120.811 163.544 145.404 0.496277 -0.000664694 -0.868164
120.148 164.238 145.024 0.496277 -0.000664694 -0.868164
120.997 164.33 145.509 0.496277 -0.000664694 -0.868164
120.117 163.561 145.079 0.420239 -0.0922148 -0.902716
120.148 164.238 145.024 0.420239 -0.0922148 -0.902716
120.811 163.544 145.404 0.420239 -0.0922148 -0.902716
121.801 163.495 145.163 -0.224116 0.181123 -0.957584
120.811 163.544 145.404 -0.224116 0.181123 -0.957584
120.997 164.33 145.509 -0.224116 0.181123 -0.957584
121.801 163.495 145.163 0.604654 0.721893 -0.336546
120.997 164.33 145.509 0.604654 0.721893 -0.336546
121.868 163.794 145.924 0.604654 0.721893 -0.336546
121.801 163.495 145.163 -0.258615 0.906692 -0.333208
121.868 163.794 145.924 -0.258615 0.906692 -0.333208
122.061 163.554 145.122 -0.258615 0.906692 -0.333208
121.868 163.794 145.924 0.611284 0.560862 -0.558359
120.997 164.33 145.509 0.611284 0.560862 -0.558359
121.277 164.592 146.079 0.611284 0.560862 -0.558359
122.103 163.414 145.828 0.947991 0.31822 0.00706747
122.103 163.428 145.089 0.947991 0.31822 0.00706747
122.061 163.554 145.122 0.947991 0.31822 0.00706747
121.868 163.794 145.924 0.855246 0.515643 0.051645
122.103 163.414 145.828 0.855246 0.515643 0.051645
122.061 163.554 145.122 0.855246 0.515643 0.051645
117.918 164.434 145.877 -0.551375 0.446616 -0.704642
117.627 164.503 146.148 -0.551375 0.446616 -0.704642
118.038 164.777 146.0 -0.551375 0.446616 -0.704642
118.65 164.389 145.715 -0.175795 0.387428 -0.904984
117.918 164.434 145.877 -0.175795 0.387428 -0.904984
118.038 164.777 146.0 -0.175795 0.387428 -0.904984
119.08 164.822 145.821 -0.172432 0.391822 -0.903738
118.65 164.389 145.715 -0.172432 0.391822 -0.903738
118.038 164.777 146.0 -0.172432 0.391822 -0.903738
119.604 164.364 145.123 -0.417128 0.583824 -0.696529
118.65 164.389 145.715 -0.417128 0.583824 -0.696529
119.08 164.822 145.821 -0.417128 0.583824 -0.696529
119.604 164.364 145.123 -0.273496 0.696931 -0.662938
119.08 164.822 145.821 -0.273496 0.696931 -0.662938
120.031 164.645 145.243 -0.273496 0.696931 -0.662938
120.031 164.645 145.243 -0.10452 0.89008 -0.443659
119.08 164.822 145.821 -0.10452 0.89008 -0.443659
120.012 164.986 145.93 -0.10452 0.89008 -0.443659
120.997 164.33 145.509 0.380697 0.520418 -0.764352
120.148 164.238 145.024 0.380697 0.520418 -0.764352
120.031 164.645 145.243 0.380697 0.520418 -0.764352
120.997 164.33 145.509 0.390955 0.63162 -0.669485
120.031 164.645 145.243 0.390955 0.63162 -0.669485
120.811 164.901 145.94 0.390955 0.63162 -0.669485
120.811 164.901 145.94 0.0995275 0.892776 -0.43937
120.031 164.645 145.243 0.0995275 0.892776 -0.43937
120.012 164.986 145.93 0.0995275 0.892776 -0.43937
121.277 164.592 146.079 0.568437 0.604953 -0.557595
120.997 164.33 145.509 0.568437 0.604953 -0.557595
120.811 164.901 145.94 0.568437 0.604953 -0.557595
119.918 162.666 146.104 -0.383871 -0.919699 -0.0824435
120.093 162.509 147.045 -0.383871 -0.919699 -0.0824435
119.595 162.739 146.793 -0.383871 -0.919699 -0.0824435
120.848 162.524 145.954 -0.15596 -0.987254 -0.0317153
120.91 162.49 146.698 -0.15596 -0.987254 -0.0317153
119.918 162.666 146.104 -0.15596 -0.987254 -0.0317153
119.918 162.666 146.104 -0.0853832 -0.985149 -0.148965
120.91 162.49 146.698 -0.0853832 -0.985149 -0.148965
120.093 162.509 147.045 -0.0853832 -0.985149 -0.148965
120.91 162.49 146.698 0.112491 -0.992162 -0.0544124
120.848 162.524 145.954 0.112491 -0.992162 -0.0544124
121.653 162.606 146.12 0.112491 -0.992162 -0.0544124
121.547 162.737 147.012 0.281354 -0.944117 0.171705
120.91 162.49 146.698 0.281354 -0.944117 0.171705
121.653 162.606 146.12 0.281354 -0.944117 0.171705
118.067 163.744 146.097 -0.486745 -0.83996 -0.239887
117.963 163.524 147.078 -0.486745 -0.83996 -0.239887
117.503 163.872 146.795 -0.486745 -0.83996 -0.239887
118.967 163.272 146.117 -0.461456 -0.882883 -0.0870453
118.806 163.278 146.907 -0.461456 -0.882883 -0.0870453
118.067 163.744 146.097 -0.461456 -0.882883 -0.0870453
118.067 163.744 146.097 -0.316797 -0.917854 -0.239129
118.806 163.278 146.907 -0.316797 -0.917854 -0.239129
117.963 163.524 147.078 -0.316797 -0.917854 -0.239129
119.595 162.739 146.793 -0.531511 -0.831617 -0.160963
118.967 163.272 146.117 -0.531511 -0.831617 -0.160963
119.918 162.666 146.104 -0.531511 -0.831617 -0.160963
118.806 163.278 146.907 -0.571152 -0.813469 -0.109788
118.967 163.272 146.117 -0.571152 -0.813469 -0.109788
119.595 162.739 146.793 -0.571152 -0.813469 -0.109788
121.653 162.606 146.12 0.601895 -0.776827 0.1851
122.003 162.982 146.556 0.601895 -0.776827 0.1851
121.547 162.737 147.012 0.601895 -0.776827 0.1851
121.963 162.956 145.681 0.739363 -0.673153 -0.0143797
122.003 162.982 146.556 0.739363 -0.673153 -0.0143797
121.653 162.606 146.12 0.739363 -0.673153 -0.0143797
122.003 162.982 146.556 0.958711 -0.282084 -0.0360745
121.963 162.956 145.681 0.958711 -0.282084 -0.0360745
122.103 163.414 145.828 0.958711 -0.282084 -0.0360745
122.074 163.478 146.602 0.988159 -0.145383 0.0490471
122.003 162.982 146.556 0.988159 -0.145383 0.0490471
122.103 163.414 145.828 0.988159 -0.145383 0.0490471
116.946 164.671 146.758 -0.723211 -0.546321 -0.42249
116.954 164.349 147.162 -0.723211 -0.546321 -0.42249
116.662 164.832 147.036 -0.723211 -0.546321 -0.42249
116.946 164.671 146.758 -0.738734 -0.53346 -0.411936
117.503 163.872 146.795 -0.738734 -0.53346 -0.411936
116.954 164.349 147.162 -0.738734 -0.53346 -0.411936
116.946 164.671 146.758 -0.648124 -0.47865 -0.592309
117.627 164.503 146.148 -0.648124 -0.47865 -0.592309
117.503 163.872 146.795 -0.648124 -0.47865 -0.592309
117.627 164.503 146.148 -0.747422 -0.397614 -0.532225
118.067 163.744 146.097 -0.747422 -0.397614 -0.532225
117.503 163.872 146.795 -0.747422 -0.397614 -0.532225
121.868 163.794 145.924 0.841958 0.536829 0.054049
121.415 164.407 146.88 0.841958 0.536829 0.054049
121.871 163.696 146.848 0.841958 0.536829 0.054049
121.277 164.592 146.079 0.803438 0.595386 -0.00176982
121.415 164.407 146.88 0.803438 0.595386 -0.00176982
121.868 163.794 145.924 0.803438 0.595386 -0.00176982
122.074 163.478 146.602 0.849153 0.528003 -0.0123432
122.103 163.414 145.828 0.849153 0.528003 -0.0123432
121.868 163.794 145.924 0.849153 0.528003 -0.0123432
121.871 163.696 146.848 0.765603 0.640003 0.0651824
122.074 163.478 146.602 0.765603 0.640003 0.0651824
121.868 163.794 145.924 0.765603 0.640003 0.0651824
116.78 165.381 146.864 -0.716464 -0.0640877 -0.694674
116.946 164.671 146.758 -0.716464 -0.0640877 -0.694674
116.662 164.832 147.036 -0.716464 -0.0640877 -0.694674
116.595 165.605 147.235 -0.883868 0.043469 -0.465712
116.78 165.381 146.864 -0.883868 0.043469 -0.465712
116.662 164.832 147.036 -0.883868 0.043469 -0.465712
117.627 164.503 146.148 -0.525046 0.374924 -0.764041
117.562 165.356 146.611 -0.525046 0.374924 -0.764041
118.038 164.777 146.0 -0.525046 0.374924 -0.764041
117.627 164.503 146.148 -0.57242 0.357232 -0.738052
116.946 164.671 146.758 -0.57242 0.357232 -0.738052
117.562 165.356 146.611 -0.57242 0.357232 -0.738052
116.946 164.671 146.758 -0.304273 0.0707024 -0.949957
116.78 165.381 146.864 -0.304273 0.0707024 -0.949957
117.562 165.356 146.611 -0.304273 0.0707024 -0.949957
118.038 164.777 146.0 -0.15283 0.679962 -0.717143
118.601 165.463 146.531 -0.15283 0.679962 -0.717143
119.08 164.822 145.821 -0.15283 0.679962 -0.717143
117.562 165.356 146.611 -0.125413 0.669244 -0.732383
118.601 165.463 146.531 -0.125413 0.669244 -0.732383
118.038 164.777 146.0 -0.125413 0.669244 -0.732383
119.08 164.822 145.821 -0.049189 0.731775 -0.679769
119.676 165.509 146.518 -0.049189 0.731775 -0.679769
120.012 164.986 145.93 -0.049189 0.731775 -0.679769
118.601 165.463 146.531 -0.0396577 0.728111 -0.684311
119.676 165.509 146.518 -0.0396577 0.728111 -0.684311
119.08 164.822 145.821 -0.0396577 0.728111 -0.684311
120.012 164.986 145.93 0.0852862 0.729525 -0.678616
120.652 165.516 146.58 0.0852862 0.729525 -0.678616
120.811 164.901 145.94 0.0852862 0.729525 -0.678616
119.676 165.509 146.518 0.0366487 0.756618 -0.65283
120.652 165.516 146.58 0.0366487 0.756618 -0.65283
120.012 164.986 145.93 0.0366487 0.756618 -0.65283
120.811 164.901 145.94 0.552968 0.665449 -0.501402
120.652 165.516 146.58 0.552968 0.665449 -0.501402
121.133 165.399 146.956 0.552968 0.665449 -0.501402
120.811 164.901 145.94 0.577937 0.645368 -0.499488
121.133 165.399 146.956 0.577937 0.645368 -0.499488
121.277 164.592 146.079 0.577937 0.645368 -0.499488
121.277 164.592 146.079 0.954875 0.279347 -0.100887
121.133 165.399 146.956 0.954875 0.279347 -0.100887
121.415 164.407 146.88 0.954875 0.279347 -0.100887
116.78 165.381 146.864 -0.507052 0.602127 -0.616717
116.595 165.605 147.235 -0.507052 0.602127 -0.616717
116.968 165.747 147.067 -0.507052 0.602127 -0.616717
117.562 165.356 146.611 -0.238107 0.561323 -0.792604
116.78 165.381 146.864 -0.238107 0.561323 -0.792604
116.968 165.747 147.067 -0.238107 0.561323 -0.792604
117.848 165.757 146.953 -0.100419 0.686544 -0.72012
117.562 165.356 146.611 -0.100419 0.686544 -0.72012
116.968 165.747 147.067 -0.100419 0.686544 -0.72012
118.601 165.463 146.531 -0.126156 0.694689 -0.708161
117.562 165.356 146.611 -0.126156 0.694689 -0.708161
117.848 165.757 146.953 -0.126156 0.694689 -0.708161
118.881 165.937 147.071 -0.060167 0.765941 -0.64009
118.601 165.463 146.531 -0.060167 0.765941 -0.64009
117.848 165.757 146.953 -0.060167 0.765941 -0.64009
119.676 165.509 146.518 -0.0406566 0.761787 -0.646551
118.601 165.463 146.531 -0.0406566 0.761787 -0.646551
118.881 165.937 147.071 -0.0406566 0.761787 -0.646551
120.05 165.969 147.021 -0.0494222 0.754972 -0.653893
119.676 165.509 146.518 -0.0494222 0.754972 -0.653893
118.881 165.937 147.071 -0.0494222 0.754972 -0.653893
120.652 165.516 146.58 0.0392259 0.722633 -0.690118
119.676 165.509 146.518 0.0392259 0.722633 -0.690118
120.05 165.969 147.021 0.0392259 0.722633 -0.690118
120.843 165.934 147.092 0.0920948 0.754115 -0.650253
120.652 165.516 146.58 0.0920948 0.754115 -0.650253
120.05 165.969 147.021 0.0920948 0.754115 -0.650253
121.133 165.399 146.956 0.607355 0.489661 -0.625581
120.652 165.516 146.58 0.607355 0.489661 -0.625581
120.843 165.934 147.092 0.607355 0.489661 -0.625581
120.093 162.509 147.045 -0.478687 -0.86996 0.118439
120.172 162.561 147.746 -0.478687 -0.86996 0.118439
119.674 162.836 147.754 -0.478687 -0.86996 0.118439
119.595 162.739 146.793 -0.468446 -0.874385 0.12653
120.093 162.509 147.045 -0.468446 -0.874385 0.12653
119.674 162.836 147.754 -0.468446 -0.874385 0.12653
120.91 162.49 146.698 -0.00374565 -0.998997 0.0446209
120.826 162.527 147.51 -0.00374565 -0.998997 0.0446209
120.093 162.509 147.045 -0.00374565 -0.998997 0.0446209
120.093 162.509 147.045 -0.0240026 -0.996786 0.076433
120.826 162.527 147.51 -0.0240026 -0.996786 0.076433
120.172 162.561 147.746 -0.0240026 -0.996786 0.076433
120.826 162.527 147.51 0.327221 -0.941833 0.0766631
120.91 162.49 146.698 0.327221 -0.941833 0.0766631
121.547 162.737 147.012 0.327221 -0.941833 0.0766631
120.87 162.758 147.775 0.541462 -0.676805 0.498752
120.826 162.527 147.51 0.541462 -0.676805 0.498752
121.547 162.737 147.012 0.541462 -0.676805 0.498752
117.963 163.524 147.078 -0.57386 -0.816021 -0.069246
117.62 163.728 147.517 -0.57386 -0.816021 -0.069246
117.503 163.872 146.795 -0.57386 -0.816021 -0.069246
118.064 163.683 147.974 -0.299497 -0.933177 0.198701
117.62 163.728 147.517 -0.299497 -0.933177 0.198701
117.963 163.524 147.078 -0.299497 -0.933177 0.198701
118.064 163.683 147.974 -0.319831 -0.926175 0.199771
117.963 163.524 147.078 -0.319831 -0.926175 0.199771
118.728 163.434 147.886 -0.319831 -0.926175 0.199771
118.728 163.434 147.886 -0.253294 -0.958184 0.13314
117.963 163.524 147.078 -0.253294 -0.958184 0.13314
118.806 163.278 146.907 -0.253294 -0.958184 0.13314
119.674 162.836 147.754 -0.546365 -0.827672 0.128232
118.806 163.278 146.907 -0.546365 -0.827672 0.128232
119.595 162.739 146.793 -0.546365 -0.827672 0.128232
118.728 163.434 147.886 -0.522813 -0.847263 0.0938756
118.806 163.278 146.907 -0.522813 -0.847263 0.0938756
119.674 162.836 147.754 -0.522813 -0.847263 0.0938756
121.911 163.369 146.97 0.7467 -0.394574 0.535492
121.547 162.737 147.012 0.7467 -0.394574 0.535492
122.003 162.982 146.556 0.7467 -0.394574 0.535492
121.911 163.369 146.97 0.615371 -0.30657 0.726177
121.272 163.635 147.623 0.615371 -0.30657 0.726177
121.547 162.737 147.012 0.615371 -0.30657 0.726177
121.272 163.635 147.623 0.726487 -0.221078 0.650647
120.87 162.758 147.775 0.726487 -0.221078 0.650647
121.547 162.737 147.012 0.726487 -0.221078 0.650647
122.003 162.982 146.556 0.919107 -0.163858 0.358321
122.074 163.478 146.602 0.919107 -0.163858 0.358321
121.911 163.369 146.97 0.919107 -0.163858 0.358321
116.662 164.832 147.036 -0.859665 -0.460954 0.22022
116.954 164.349 147.162 -0.859665 -0.460954 0.22022
116.842 164.873 147.825 -0.859665 -0.460954 0.22022
117.62 163.728 147.517 -0.669823 -0.741507 -0.0387881
116.954 164.349 147.162 -0.669823 -0.741507 -0.0387881
117.503 163.872 146.795 -0.669823 -0.741507 -0.0387881
117.62 163.728 147.517 -0.73144 -0.581851 0.355591
117.581 164.051 147.965 -0.73144 -0.581851 0.355591
116.954 164.349 147.162 -0.73144 -0.581851 0.355591
117.581 164.051 147.965 -0.726207 -0.59333 0.347252
116.842 164.873 147.825 -0.726207 -0.59333 0.347252
116.954 164.349 147.162 -0.726207 -0.59333 0.347252
118.064 163.683 147.974 -0.544096 -0.702342 0.458994
117.581 164.051 147.965 -0.544096 -0.702342 0.458994
117.62 163.728 147.517 -0.544096 -0.702342 0.458994
121.871 163.696 146.848 0.739741 0.313342 0.595483
121.272 163.635 147.623 0.739741 0.313342 0.595483
121.911 163.369 146.97 0.739741 0.313342 0.595483
121.871 163.696 146.848 0.701019 0.42287 0.574242
121.415 164.407 146.88 0.701019 0.42287 0.574242
121.272 163.635 147.623 0.701019 0.42287 0.574242
121.415 164.407 146.88 0.969382 0.0515973 0.240077
121.146 164.813 147.882 0.969382 0.0515973 0.240077
121.272 163.635 147.623 0.969382 0.0515973 0.240077
122.074 163.478 146.602 0.846798 0.274054 0.455882
121.871 163.696 146.848 0.846798 0.274054 0.455882
121.911 163.369 146.97 0.846798 0.274054 0.455882
116.662 164.832 147.036 -0.963451 -0.141584 0.22741
116.842 164.873 147.825 -0.963451 -0.141584 0.22741
116.595 165.605 147.235 -0.963451 -0.141584 0.22741
116.842 164.873 147.825 -0.827618 -0.493924 -0.266623
116.411 165.619 147.783 -0.827618 -0.493924 -0.266623
116.595 165.605 147.235 -0.827618 -0.493924 -0.266623
121.415 164.407 146.88 0.953683 0.259847 0.151554
121.133 165.399 146.956 0.953683 0.259847 0.151554
121.146 164.813 147.882 0.953683 0.259847 0.151554
121.146 164.813 147.882 0.999298 0.0362606 0.00944408
121.133 165.399 146.956 0.999298 0.0362606 0.00944408
121.118 165.59 147.863 0.999298 0.0362606 0.00944408
116.783 166.273 147.685 -0.507886 0.575629 -0.640861
116.968 165.747 147.067 -0.507886 0.575629 -0.640861
116.595 165.605 147.235 -0.507886 0.575629 -0.640861
116.783 166.273 147.685 -0.527571 0.572338 -0.627772
116.595 165.605 147.235 -0.527571 0.572338 -0.627772
116.578 166.215 147.805 -0.527571 0.572338 -0.627772
116.578 166.215 147.805 -0.911067 0.267626 -0.313582
116.595 165.605 147.235 -0.911067 0.267626 -0.313582
116.411 165.619 147.783 -0.911067 0.267626 -0.313582
116.783 166.273 147.685 0.267127 0.771979 -0.576794
117.731 165.989 147.745 0.267127 0.771979 -0.576794
116.968 165.747 147.067 0.267127 0.771979 -0.576794
117.731 165.989 147.745 -0.047971 0.956459 -0.287896
117.848 165.757 146.953 -0.047971 0.956459 -0.287896
116.968 165.747 147.067 -0.047971 0.956459 -0.287896
118.793 166.446 147.768 -0.392901 0.916308 -0.0775107
117.731 165.989 147.745 -0.392901 0.916308 -0.0775107
118.546 166.378 148.215 -0.392901 0.916308 -0.0775107
118.793 166.446 147.768 -0.309398 0.748415 -0.586642
118.881 165.937 147.071 -0.309398 0.748415 -0.586642
117.731 165.989 147.745 -0.309398 0.748415 -0.586642
118.881 165.937 147.071 -0.130675 0.945896 -0.296994
117.848 165.757 146.953 -0.130675 0.945896 -0.296994
117.731 165.989 147.745 -0.130675 0.945896 -0.296994
118.881 165.937 147.071 -0.0492311 0.763581 -0.643833
119.69 166.493 147.67 -0.0492311 0.763581 -0.643833
120.05 165.969 147.021 -0.0492311 0.763581 -0.643833
118.793 166.446 147.768 -0.106986 0.795962 -0.595818
119.69 166.493 147.67 -0.106986 0.795962 -0.595818
118.881 165.937 147.071 -0.106986 0.795962 -0.595818
120.05 165.969 147.021 0.0912033 0.768755 -0.633007
120.63 166.462 147.703 0.0912033 0.768755 -0.633007
120.843 165.934 147.092 0.0912033 0.768755 -0.633007
119.69 166.493 147.67 0.0478469 0.789917 -0.611345
120.63 166.462 147.703 0.0478469 0.789917 -0.611345
120.05 165.969 147.021 0.0478469 0.789917 -0.611345
120.843 165.934 147.092 0.574108 0.707485 -0.412147
120.63 166.462 147.703 0.574108 0.707485 -0.412147
120.997 166.218 147.795 0.574108 0.707485 -0.412147
120.843 165.934 147.092 0.770074 0.514592 -0.37707
120.997 166.218 147.795 0.770074 0.514592 -0.37707
121.133 165.399 146.956 0.770074 0.514592 -0.37707
121.133 165.399 146.956 0.982207 0.186459 -0.022419
120.997 166.218 147.795 0.982207 0.186459 -0.022419
121.118 165.59 147.863 0.982207 0.186459 -0.022419
118.793 166.446 147.768 -0.447261 0.887379 -0.111872
118.546 166.378 148.215 -0.447261 0.887379 -0.111872
119.122 166.653 148.093 -0.447261 0.887379 -0.111872
119.69 166.493 147.67 -0.096858 0.88131 -0.462506
118.793 166.446 147.768 -0.096858 0.88131 -0.462506
119.122 166.653 148.093 -0.096858 0.88131 -0.462506
119.988 166.658 148.018 -0.039866 0.916028 -0.399129
119.69 166.493 147.67 -0.039866 0.916028 -0.399129
119.122 166.653 148.093 -0.039866 0.916028 -0.399129
120.63 166.462 147.703 0.0457872 0.887322 -0.458872
119.69 166.493 147.67 0.0457872 0.887322 -0.458872
119.988 166.658 148.018 0.0457872 0.887322 -0.458872
120.713 166.426 148.171 0.301087 0.953385 0.0200858
120.63 166.462 147.703 0.301087 0.953385 0.0200858
119.988 166.658 148.018 0.301087 0.953385 0.0200858
120.997 166.218 147.795 0.55902 0.828404 -0.0352605
120.63 166.462 147.703 0.55902 0.828404 -0.0352605
120.713 166.426 148.171 0.55902 0.828404 -0.0352605
120.172 162.561 147.746 -0.308427 -0.579517 0.754342
120.16 162.806 147.93 -0.308427 -0.579517 0.754342
119.674 162.836 147.754 -0.308427 -0.579517 0.754342
120.172 162.561 147.746 0.187346 -0.756398 0.626709
120.826 162.527 147.51 0.187346 -0.756398 0.626709
120.87 162.758 147.775 0.187346 -0.756398 0.626709
120.16 162.806 147.93 0.133233 -0.589865 0.796435
120.172 162.561 147.746 0.133233 -0.589865 0.796435
120.87 162.758 147.775 0.133233 -0.589865 0.796435
118.728 163.434 147.886 -0.04323 -0.946528 0.319712
119.172 163.675 148.658 -0.04323 -0.946528 0.319712
118.605 163.699 148.653 -0.04323 -0.946528 0.319712
118.064 163.683 147.974 -0.30643 -0.913947 0.266086
118.728 163.434 147.886 -0.30643 -0.913947 0.266086
118.605 163.699 148.653 -0.30643 -0.913947 0.266086
119.674 162.836 147.754 -0.419636 -0.769781 0.480981
119.172 163.675 148.658 -0.419636 -0.769781 0.480981
118.728 163.434 147.886 -0.419636 -0.769781 0.480981
119.674 162.836 147.754 0.324205 -0.597218 0.733636
120.028 163.563 148.189 0.324205 -0.597218 0.733636
119.172 163.675 148.658 0.324205 -0.597218 0.733636
119.674 162.836 147.754 -0.337084 -0.357441 0.870982
120.16 162.806 147.93 -0.337084 -0.357441 0.870982
120.028 163.563 148.189 -0.337084 -0.357441 0.870982
120.87 162.758 147.775 0.186718 -0.275603 0.942963
120.758 163.444 147.998 0.186718 -0.275603 0.942963
120.16 162.806 147.93 0.186718 -0.275603 0.942963
120.758 163.444 147.998 0.198686 -0.286214 0.937339
120.028 163.563 148.189 0.198686 -0.286214 0.937339
120.16 162.806 147.93 0.198686 -0.286214 0.937339
120.87 162.758 147.775 0.617512 -0.150019 0.772122
121.272 163.635 147.623 0.617512 -0.150019 0.772122
120.758 163.444 147.998 0.617512 -0.150019 0.772122
116.842 164.873 147.825 -0.615727 -0.441918 0.652372
117.581 164.051 147.965 -0.615727 -0.441918 0.652372
117.7 164.762 148.559 -0.615727 -0.441918 0.652372
117.581 164.051 147.965 -0.583795 -0.460731 0.668513
118.179 164.394 148.724 -0.583795 -0.460731 0.668513
117.7 164.762 148.559 -0.583795 -0.460731 0.668513
117.581 164.051 147.965 -0.471461 -0.602439 0.644043
118.064 163.683 147.974 -0.471461 -0.602439 0.644043
118.179 164.394 148.724 -0.471461 -0.602439 0.644043
118.064 163.683 147.974 -0.682594 -0.474925 0.555438
118.605 163.699 148.653 -0.682594 -0.474925 0.555438
118.179 164.394 148.724 -0.682594 -0.474925 0.555438
120.028 163.563 148.189 0.370048 -0.48728 0.790963
120.097 164.523 148.748 0.370048 -0.48728 0.790963
119.172 163.675 148.658 0.370048 -0.48728 0.790963
120.097 164.523 148.748 0.467413 -0.469765 0.748897
120.028 163.563 148.189 0.467413 -0.469765 0.748897
120.808 164.346 148.193 0.467413 -0.469765 0.748897
120.028 163.563 148.189 0.213649 -0.218111 0.952251
120.758 163.444 147.998 0.213649 -0.218111 0.952251
120.808 164.346 148.193 0.213649 -0.218111 0.952251
121.272 163.635 147.623 0.727393 -0.0715618 0.682479
121.146 164.813 147.882 0.727393 -0.0715618 0.682479
120.808 164.346 148.193 0.727393 -0.0715618 0.682479
120.758 163.444 147.998 0.623726 -0.198304 0.75607
121.272 163.635 147.623 0.623726 -0.198304 0.75607
120.808 164.346 148.193 0.623726 -0.198304 0.75607
116.842 164.873 147.825 -0.508086 -0.247418 0.825005
116.724 165.712 148.004 -0.508086 -0.247418 0.825005
116.411 165.619 147.783 -0.508086 -0.247418 0.825005
117.7 164.762 148.559 -0.647698 0.0331943 0.761173
117.584 165.639 148.423 -0.647698 0.0331943 0.761173
116.842 164.873 147.825 -0.647698 0.0331943 0.761173
117.584 165.639 148.423 -0.441186 -0.246123 0.863006
116.724 165.712 148.004 -0.441186 -0.246123 0.863006
116.842 164.873 147.825 -0.441186 -0.246123 0.863006
118.393 165.52 148.801 -0.32707 -0.00254084 0.944997
117.7 164.762 148.559 -0.32707 -0.00254084 0.944997
118.179 164.394 148.724 -0.32707 -0.00254084 0.944997
117.584 165.639 148.423 -0.411767 0.0870256 0.907124
117.7 164.762 148.559 -0.411767 0.0870256 0.907124
118.393 165.52 148.801 -0.411767 0.0870256 0.907124
120.808 164.346 148.193 0.48831 -0.425937 0.761663
120.845 165.229 148.663 0.48831 -0.425937 0.761663
120.097 164.523 148.748 0.48831 -0.425937 0.761663
120.845 165.229 148.663 0.832779 -0.287255 0.473249
120.808 164.346 148.193 0.832779 -0.287255 0.473249
121.146 164.813 147.882 0.832779 -0.287255 0.473249
120.845 165.229 148.663 0.905298 -0.114499 0.409055
121.146 164.813 147.882 0.905298 -0.114499 0.409055
120.977 165.68 148.498 0.905298 -0.114499 0.409055
120.977 165.68 148.498 0.976712 0.0403074 0.210735
121.146 164.813 147.882 0.976712 0.0403074 0.210735
121.118 165.59 147.863 0.976712 0.0403074 0.210735
116.724 165.712 148.004 -0.513593 0.182332 0.838438
116.887 166.252 147.986 -0.513593 0.182332 0.838438
116.578 166.215 147.805 -0.513593 0.182332 0.838438
116.411 165.619 147.783 -0.597953 0.138442 0.789484
116.724 165.712 148.004 -0.597953 0.138442 0.789484
116.578 166.215 147.805 -0.597953 0.138442 0.789484
117.731 165.989 147.745 0.288293 0.956902 -0.0350034
116.783 166.273 147.685 0.288293 0.956902 -0.0350034
116.887 166.252 147.986 0.288293 0.956902 -0.0350034
117.731 165.989 147.745 0.383892 0.783967 0.487877
116.887 166.252 147.986 0.383892 0.783967 0.487877
117.584 165.639 148.423 0.383892 0.783967 0.487877
117.584 165.639 148.423 -0.421659 0.15647 0.893152
116.887 166.252 147.986 -0.421659 0.15647 0.893152
116.724 165.712 148.004 -0.421659 0.15647 0.893152
117.584 165.639 148.423 -0.543063 0.788403 0.288971
118.546 166.378 148.215 -0.543063 0.788403 0.288971
117.731 165.989 147.745 -0.543063 0.788403 0.288971
117.584 165.639 148.423 -0.275402 0.575467 0.77006
118.393 165.52 148.801 -0.275402 0.575467 0.77006
118.546 166.378 148.215 -0.275402 0.575467 0.77006
118.393 165.52 148.801 -0.868958 0.37574 0.322073
118.767 166.37 148.818 -0.868958 0.37574 0.322073
118.546 166.378 148.215 -0.868958 0.37574 0.322073
120.713 166.426 148.171 0.475132 0.498533 0.725061
119.799 166.547 148.687 0.475132 0.498533 0.725061
120.52 165.644 148.836 0.475132 0.498533 0.725061
120.713 166.426 148.171 0.492294 0.489666 0.719635
120.52 165.644 148.836 0.492294 0.489666 0.719635
120.977 165.68 148.498 0.492294 0.489666 0.719635
120.713 166.426 148.171 0.81494 0.448817 0.366654
120.977 165.68 148.498 0.81494 0.448817 0.366654
120.997 166.218 147.795 0.81494 0.448817 0.366654
120.997 166.218 147.795 0.961365 0.204788 0.183955
120.977 165.68 148.498 0.961365 0.204788 0.183955
121.118 165.59 147.863 0.961365 0.204788 0.183955
116.578 166.215 147.805 -0.194475 0.97197 0.132116
116.887 166.252 147.986 -0.194475 0.97197 0.132116
116.783 166.273 147.685 -0.194475 0.97197 0.132116
118.546 166.378 148.215 -0.699063 0.664519 0.264054
118.767 166.37 148.818 -0.699063 0.664519 0.264054
118.952 166.611 148.701 -0.699063 0.664519 0.264054
119.122 166.653 148.093 -0.44064 0.895547 -0.0619018
118.546 166.378 148.215 -0.44064 0.895547 -0.0619018
118.952 166.611 148.701 -0.44064 0.895547 -0.0619018
119.988 166.658 148.018 0.00908797 0.986094 0.16594
119.122 166.653 148.093 0.00908797 0.986094 0.16594
119.799 166.547 148.687 0.00908797 0.986094 0.16594
119.122 166.653 148.093 0.0770115 0.992982 0.0897559
118.952 166.611 148.701 0.0770115 0.992982 0.0897559
119.799 166.547 148.687 0.0770115 0.992982 0.0897559
119.799 166.547 148.687 0.253004 0.940359 0.227405
120.713 166.426 148.171 0.253004 0.940359 0.227405
119.988 166.658 148.018 0.253004 0.940359 0.227405
119.172 163.675 148.658 -0.0353376 -0.66461 0.746355
118.852 163.964 148.9 -0.0353376 -0.66461 0.746355
118.605 163.699 148.653 -0.0353376 -0.66461 0.746355
118.852 163.964 148.9 -0.279893 -0.0452692 0.958963
118.907 164.816 148.957 -0.279893 -0.0452692 0.958963
118.179 164.394 148.724 -0.279893 -0.0452692 0.958963
118.605 163.699 148.653 -0.443106 -0.355794 0.822841
118.852 163.964 148.9 -0.443106 -0.355794 0.822841
118.179 164.394 148.724 -0.443106 -0.355794 0.822841
119.172 163.675 148.658 0.30702 -0.42501 0.851531
120.097 164.523 148.748 0.30702 -0.42501 0.851531
119.675 164.624 148.951 0.30702 -0.42501 0.851531
119.172 163.675 148.658 0.279844 -0.414975 0.865727
119.675 164.624 148.951 0.279844 -0.414975 0.865727
118.852 163.964 148.9 0.279844 -0.414975 0.865727
118.852 163.964 148.9 -0.00849618 -0.0654267 0.997821
119.675 164.624 148.951 -0.00849618 -0.0654267 0.997821
118.907 164.816 148.957 -0.00849618 -0.0654267 0.997821
118.907 164.816 148.957 -0.252396 0.0291531 0.967185
118.991 165.786 148.949 -0.252396 0.0291531 0.967185
118.393 165.52 148.801 -0.252396 0.0291531 0.967185
118.179 164.394 148.724 -0.299711 -0.0083427 0.953994
118.907 164.816 148.957 -0.299711 -0.0083427 0.953994
118.393 165.52 148.801 -0.299711 -0.0083427 0.953994
119.675 164.624 148.951 -0.000144237 -0.0320859 0.999485
119.715 165.499 148.979 -0.000144237 -0.0320859 0.999485
118.907 164.816 148.957 -0.000144237 -0.0320859 0.999485
119.715 165.499 148.979 -0.0361891 0.0105691 0.999289
118.991 165.786 148.949 -0.0361891 0.0105691 0.999289
118.907 164.816 148.957 -0.0361891 0.0105691 0.999289
120.097 164.523 148.748 0.274752 -0.177218 0.945042
120.845 165.229 148.663 0.274752 -0.177218 0.945042
120.52 165.644 148.836 0.274752 -0.177218 0.945042
120.097 164.523 148.748 0.380696 -0.21366 0.899678
120.52 165.644 148.836 0.380696 -0.21366 0.899678
119.675 164.624 148.951 0.380696 -0.21366 0.899678
119.675 164.624 148.951 0.181995 -0.0398809 0.98249
120.52 165.644 148.836 0.181995 -0.0398809 0.98249
119.715 165.499 148.979 0.181995 -0.0398809 0.98249
120.845 165.229 148.663 0.582732 0.123201 0.803272
120.977 165.68 148.498 0.582732 0.123201 0.803272
120.52 165.644 148.836 0.582732 0.123201 0.803272
118.991 165.786 148.949 -0.315293 0.0904888 0.94467
119.082 166.484 148.913 -0.315293 0.0904888 0.94467
118.767 166.37 148.818 -0.315293 0.0904888 0.94467
118.393 165.52 148.801 -0.282727 0.104984 0.953438
118.991 165.786 148.949 -0.282727 0.104984 0.953438
118.767 166.37 148.818 -0.282727 0.104984 0.953438
119.715 165.499 148.979 -0.0213947 0.0478256 0.998627
119.738 166.257 148.943 -0.0213947 0.0478256 0.998627
118.991 165.786 148.949 -0.0213947 0.0478256 0.998627
119.738 166.257 148.943 -0.026465 0.055862 0.998088
119.082 166.484 148.913 -0.026465 0.055862 0.998088
118.991 165.786 148.949 -0.026465 0.055862 0.998088
120.52 165.644 148.836 0.498156 0.512689 0.699279
119.799 166.547 148.687 0.498156 0.512689 0.699279
119.738 166.257 148.943 0.498156 0.512689 0.699279
120.52 165.644 148.836 0.167776 0.0414222 0.984954
119.738 166.257 148.943 0.167776 0.0414222 0.984954
119.715 165.499 148.979 0.167776 0.0414222 0.984954
118.767 166.37 148.818 -0.422294 0.637683 0.644227
119.082 166.484 148.913 -0.422294 0.637683 0.644227
118.952 166.611 148.701 -0.422294 0.637683 0.644227
119.799 166.547 148.687 0.0741785 0.873347 0.481417
118.952 166.611 148.701 0.0741785 0.873347 0.481417
119.082 166.484 148.913 0.0741785 0.873347 0.481417
119.738 166.257 148.943 0.182224 0.628517 0.756149
119.799 166.547 148.687 0.182224 0.628517 0.756149
119.082 166.484 148.913 0.182224 0.628517 0.756149
3 0 1 2
3 3 4 5
3 6 7 8
3 9 10 11
3 12 13 14
3 15 16 17
3 18 19 20
3 21 22 23
3 24 25 26
3 27 28 29
3 30 31 32
3 33 34 35
3 36 37 38
3 39 40 41
3 42 43 44
3 45 46 47
3 48 49 50
3 51 52 53
3 54 55 56
3 57 58 59
3 60 61 62
3 63 64 65
3 66 67 68
3 69 70 71
3 72 73 74
3 75 76 77
3 78 79 80
3 81 82 83
3 84 85 86
3 87 88 89
3 90 91 92
3 93 94 95
3 96 97 98
3 99 100 101
3 102 103 104
3 105 106 107
3 108 109 110
3 111 112 113
3 114 115 116
3 117 118 119
3 120 121 122
3 123 124 125
3 126 127 128
3 129 130 131
3 132 133 134
3 135 136 137
3 138 139 140
3 141 142 143
3 144 145 146
3 147 148 149
3 150 151 152
3 153 154 155
3 156 157 158
3 159 160 161
3 162 163 164
3 165 166 167
3 168 169 170
3 171 172 173
3 174 175 176
3 177 178 179
3 180 181 182
3 183 184 185
3 186 187 188
3 189 190 191
3 192 193 194
3 195 196 197
3 198 199 200
3 201 202 203
3 204 205 206
3 207 208 209
3 210 211 212
3 213 214 215
3 216 217 218
3 219 220 221
3 222 223 224
3 225 226 227
3 228 229 230
3 231 232 233
3 234 235 236
3 237 238 239
3 240 241 242
3 243 244 245
3 246 247 248
3 249 250 251
3 252 253 254
3 255 256 257
3 258 259 260
3 261 262 263
3 264 265 266
3 267 268 269
3 270 271 272
3 273 274 275
3 276 277 278
3 279 280 281
3 282 283 284
3 285 286 287
3 288 289 290
3 291 292 293
3 294 295 296
3 297 298 299
3 300 301 302
3 303 304 305
3 306 307 308
3 309 310 311
3 312 313 314
3 315 316 317
3 318 319 320
3 321 322 323
3 324 325 326
3 327 328 329
3 330 331 332
3 333 334 335
3 336 337 338
3 339 340 341
3 342 343 344
3 345 346 347
3 348 349 350
3 351 352 353
3 354 355 356
3 357 358 359
3 360 361 362
3 363 364 365
3 366 367 368
3 369 370 371
3 372 373 374
3 375 376 377
3 378 379 380
3 381 382 383
3 384 385 386
3 387 388 389
3 390 391 392
3 393 394 395
3 396 397 398
3 399 400 401
3 402 403 404
3 405 406 407
3 408 409 410
3 411 412 413
3 414 415 416
3 417 418 419
3 420 421 422
3 423 424 425
3 426 427 428
3 429 430 431
3 432 433 434
3 435 436 437
3 438 439 440
3 441 442 443
3 444 445 446
3 447 448 449
3 450 451 452
3 453 454 455
3 456 457 458
3 459 460 461
3 462 463 464
3 465 466 467
3 468 469 470
3 471 472 473
3 474 475 476
3 477 478 479
3 480 481 482
3 483 484 485
3 486 487 488
3 489 490 491
3 492 493 494
3 495 496 497
3 498 499 500
3 501 502 503
3 504 505 506
3 507 508 509
3 510 511 512
3 513 514 515
3 516 517 518
3 519 520 521
3 522 523 524
3 525 526 527
3 528 529 530
3 531 532 533
3 534 535 536
3 537 538 539
3 540 541 542
3 543 544 545
3 546 547 548
3 549 550 551
3 552 553 554
3 555 556 557
3 558 559 560
3 561 562 563
3 564 565 566
3 567 568 569
3 570 571 572
3 573 574 575
3 576 577 578
3 579 580 581
3 582 583 584
3 585 586 587
3 588 589 590
3 591 592 593
3 594 595 596
3 597 598 599
3 600 601 602
3 603 604 605
3 606 607 608
3 609 610 611
3 612 613 614
3 615 616 617
3 618 619 620
3 621 622 623
3 624 625 626
3 627 628 629
3 630 631 632
3 633 634 635
