ply
format ascii 1.0
element vertex 504
property float x
property float y
property float z
property float nx
property float ny
property float nz
element face 168
property list uint uint vertex_indices
end_header
56.3834 179.416 147.9 -0.39111 -0.594238 -0.702791
56.0992 179.124 148.305 -0.39111 -0.594238 -0.702791
55.848 179.503 148.125 -0.39111 -0.594238 -0.702791
56.3834 179.416 147.9 0.0516471 -0.465376 -0.883605
57.0643 179.449 147.923 0.0516471 -0.465376 -0.883605
56.9252 179.148 148.073 0.0516471 -0.465376 -0.883605
56.0992 179.124 148.305 -0.160835 -0.743534 -0.649068
56.3834 179.416 147.9 -0.160835 -0.743534 -0.649068
56.9252 179.148 148.073 -0.160835 -0.743534 -0.649068
56.9252 179.148 148.073 0.546222 -0.562826 -0.620378
57.0643 179.449 147.923 0.546222 -0.562826 -0.620378
57.2275 179.3 148.202 0.546222 -0.562826 -0.620378
56.1858 180.127 147.87 -0.403722 -0.150829 -0.902363
56.3834 179.416 147.9 -0.403722 -0.150829 -0.902363
55.848 179.503 148.125 -0.403722 -0.150829 -0.902363
55.7931 180.404 148.195 -0.628874 0.0221462 -0.777191
56.1858 180.127 147.87 -0.628874 0.0221462 -0.777191
55.848 179.503 148.125 -0.628874 0.0221462 -0.777191
57.0643 179.449 147.923 0.0293821 0.085195 -0.995931
56.3834 179.416 147.9 0.0293821 0.085195 -0.995931
56.9072 180.359 147.996 0.0293821 0.085195 -0.995931
56.9072 180.359 147.996 0.171038 0.00541351 -0.98525
56.3834 179.416 147.9 0.171038 0.00541351 -0.98525
56.1858 180.127 147.87 0.171038 0.00541351 -0.98525
57.2989 180.025 148.269 0.854036 -0.0360446 -0.518964
57.2275 179.3 148.202 0.854036 -0.0360446 -0.518964
57.0643 179.449 147.923 0.854036 -0.0360446 -0.518964
56.9072 180.359 147.996 0.657883 0.172457 -0.733108
57.2989 180.025 148.269 0.657883 0.172457 -0.733108
57.0643 179.449 147.923 0.657883 0.172457 -0.733108
56.2014 180.952 147.916 -0.613655 0.0559124 -0.787592
56.1858 180.127 147.87 -0.613655 0.0559124 -0.787592
55.7931 180.404 148.195 -0.613655 0.0559124 -0.787592
55.9686 181.353 148.247 -0.69969 0.167554 -0.694521
56.2014 180.952 147.916 -0.69969 0.167554 -0.694521
55.7931 180.404 148.195 -0.69969 0.167554 -0.694521
56.4724 181.113 148.037 0.288127 0.217106 -0.932656
56.9072 180.359 147.996 0.288127 0.217106 -0.932656
56.2014 180.952 147.916 0.288127 0.217106 -0.932656
56.2014 180.952 147.916 0.156066 0.0525262 -0.986349
56.9072 180.359 147.996 0.156066 0.0525262 -0.986349
56.1858 180.127 147.87 0.156066 0.0525262 -0.986349
56.2014 180.952 147.916 -0.400084 0.434506 -0.806931
55.9686 181.353 148.247 -0.400084 0.434506 -0.806931
56.2616 181.404 148.129 -0.400084 0.434506 -0.806931
56.4724 181.113 148.037 0.162878 0.40368 -0.900285
56.2014 180.952 147.916 0.162878 0.40368 -0.900285
56.2616 181.404 148.129 0.162878 0.40368 -0.900285
55.2874 179.314 148.723 -0.71112 -0.648728 -0.271035
55.271 179.178 149.094 -0.71112 -0.648728 -0.271035
55.0352 179.448 149.065 -0.71112 -0.648728 -0.271035
55.2874 179.314 148.723 -0.470442 -0.614006 -0.633783
55.848 179.503 148.125 -0.470442 -0.614006 -0.633783
56.0992 179.124 148.305 -0.470442 -0.614006 -0.633783
55.2874 179.314 148.723 -0.375511 -0.863958 -0.335512
56.0992 179.124 148.305 -0.375511 -0.863958 -0.335512
55.271 179.178 149.094 -0.375511 -0.863958 -0.335512
55.271 179.178 149.094 -0.238372 -0.953335 -0.185285
56.0992 179.124 148.305 -0.238372 -0.953335 -0.185285
56.0975 178.941 149.249 -0.238372 -0.953335 -0.185285
56.9252 179.148 148.073 0.00311742 -0.995656 -0.0930586
56.9473 179.08 148.809 0.00311742 -0.995656 -0.0930586
56.0992 179.124 148.305 0.00311742 -0.995656 -0.0930586
56.0992 179.124 148.305 0.0614229 -0.979878 -0.18991
56.9473 179.08 148.809 0.0614229 -0.979878 -0.18991
56.0975 178.941 149.249 0.0614229 -0.979878 -0.18991
56.9473 179.08 148.809 0.477888 -0.873178 -0.0958234
56.9252 179.148 148.073 0.477888 -0.873178 -0.0958234
57.2275 179.3 148.202 0.477888 -0.873178 -0.0958234
57.2963 179.375 149.001 0.640737 -0.767558 0.0176358
56.9473 179.08 148.809 0.640737 -0.767558 0.0176358
57.2275 179.3 148.202 0.640737 -0.767558 0.0176358
55.2068 179.968 148.747 -0.816625 -0.0801025 -0.571583
55.2874 179.314 148.723 -0.816625 -0.0801025 -0.571583
55.0352 179.448 149.065 -0.816625 -0.0801025 -0.571583
54.9717 180.236 149.278 -0.905687 0.0407714 -0.421983
55.2068 179.968 148.747 -0.905687 0.0407714 -0.421983
55.0352 179.448 149.065 -0.905687 0.0407714 -0.421983
55.848 179.503 148.125 -0.690825 0.0141584 -0.722883
55.2068 179.968 148.747 -0.690825 0.0141584 -0.722883
55.7931 180.404 148.195 -0.690825 0.0141584 -0.722883
55.2874 179.314 148.723 -0.71822 -0.0635956 -0.692904
55.2068 179.968 148.747 -0.71822 -0.0635956 -0.692904
55.848 179.503 148.125 -0.71822 -0.0635956 -0.692904
57.2275 179.3 148.202 0.992914 -0.0906293 -0.076861
57.2989 180.025 148.269 0.992914 -0.0906293 -0.076861
57.2963 179.375 149.001 0.992914 -0.0906293 -0.076861
57.2963 179.375 149.001 0.962849 -0.203692 -0.177291
57.2989 180.025 148.269 0.962849 -0.203692 -0.177291
57.5049 180.209 149.176 0.962849 -0.203692 -0.177291
55.2068 179.968 148.747 -0.867751 0.166089 -0.468425
54.9717 180.236 149.278 -0.867751 0.166089 -0.468425
55.2061 180.492 148.934 -0.867751 0.166089 -0.468425
55.2061 180.492 148.934 -0.750588 0.221326 -0.622601
55.7931 180.404 148.195 -0.750588 0.221326 -0.622601
55.2068 179.968 148.747 -0.750588 0.221326 -0.622601
55.2061 180.492 148.934 -0.708701 0.361381 -0.605927
55.6007 181.264 148.933 -0.708701 0.361381 -0.605927
55.7931 180.404 148.195 -0.708701 0.361381 -0.605927
55.6007 181.264 148.933 -0.875593 0.186456 -0.445613
55.9686 181.353 148.247 -0.875593 0.186456 -0.445613
55.7931 180.404 148.195 -0.875593 0.186456 -0.445613
56.9072 180.359 147.996 0.579285 0.37382 -0.724353
56.4724 181.113 148.037 0.579285 0.37382 -0.724353
56.9413 181.423 148.572 0.579285 0.37382 -0.724353
56.9072 180.359 147.996 0.726642 0.309075 -0.613566
56.9413 181.423 148.572 0.726642 0.309075 -0.613566
57.3577 181.015 148.86 0.726642 0.309075 -0.613566
56.9072 180.359 147.996 0.712338 0.328001 -0.620476
57.3577 181.015 148.86 0.712338 0.328001 -0.620476
57.2989 180.025 148.269 0.712338 0.328001 -0.620476
57.2989 180.025 148.269 0.967944 0.0838154 -0.236768
57.3577 181.015 148.86 0.967944 0.0838154 -0.236768
57.5049 180.209 149.176 0.967944 0.0838154 -0.236768
56.251 182.091 148.664 -0.391138 0.561215 -0.729417
56.2616 181.404 148.129 -0.391138 0.561215 -0.729417
55.9686 181.353 148.247 -0.391138 0.561215 -0.729417
56.251 182.091 148.664 -0.401661 0.561761 -0.723252
55.9686 181.353 148.247 -0.401661 0.561761 -0.723252
55.7508 182.221 149.043 -0.401661 0.561761 -0.723252
55.7508 182.221 149.043 -0.875371 0.188355 -0.44525
55.9686 181.353 148.247 -0.875371 0.188355 -0.44525
55.6007 181.264 148.933 -0.875371 0.188355 -0.44525
56.2616 181.404 148.129 0.44586 0.547537 -0.708105
56.9413 181.423 148.572 0.44586 0.547537 -0.708105
56.4724 181.113 148.037 0.44586 0.547537 -0.708105
56.2616 181.404 148.129 0.443196 0.554544 -0.704314
56.251 182.091 148.664 0.443196 0.554544 -0.704314
56.9413 181.423 148.572 0.443196 0.554544 -0.704314
56.251 182.091 148.664 0.180064 0.313888 -0.932229
56.8768 182.383 148.883 0.180064 0.313888 -0.932229
56.9413 181.423 148.572 0.180064 0.313888 -0.932229
57.294 182.09 149.2 0.704856 0.251809 -0.663152
57.3577 181.015 148.86 0.704856 0.251809 -0.663152
56.9413 181.423 148.572 0.704856 0.251809 -0.663152
56.8768 182.383 148.883 0.694417 0.263415 -0.669624
57.294 182.09 149.2 0.694417 0.263415 -0.669624
56.9413 181.423 148.572 0.694417 0.263415 -0.669624
56.0328 183.011 149.123 -0.53507 0.272308 -0.799718
56.251 182.091 148.664 -0.53507 0.272308 -0.799718
55.7508 182.221 149.043 -0.53507 0.272308 -0.799718
56.4973 183.086 149.109 0.465094 0.48815 -0.73851
57.0725 182.672 149.197 0.465094 0.48815 -0.73851
56.8768 182.383 148.883 0.465094 0.48815 -0.73851
56.4973 183.086 149.109 -0.0731811 0.268687 -0.960443
56.8768 182.383 148.883 -0.0731811 0.268687 -0.960443
56.0328 183.011 149.123 -0.0731811 0.268687 -0.960443
56.0328 183.011 149.123 0.0931242 0.462304 -0.881818
56.8768 182.383 148.883 0.0931242 0.462304 -0.881818
56.251 182.091 148.664 0.0931242 0.462304 -0.881818
57.294 182.09 149.2 0.693756 0.260493 -0.67145
56.8768 182.383 148.883 0.693756 0.260493 -0.67145
57.0725 182.672 149.197 0.693756 0.260493 -0.67145
56.4973 183.086 149.109 -0.136783 0.712965 -0.687729
56.0328 183.011 149.123 -0.136783 0.712965 -0.687729
56.2379 183.318 149.401 -0.136783 0.712965 -0.687729
56.2198 178.41 149.873 -0.537762 -0.741373 -0.40147
56.1283 178.341 150.121 -0.537762 -0.741373 -0.40147
55.9728 178.522 149.996 -0.537762 -0.741373 -0.40147
56.1283 178.341 150.121 0.539231 -0.841533 -0.0324399
56.2198 178.41 149.873 0.539231 -0.841533 -0.0324399
56.2986 178.451 150.112 0.539231 -0.841533 -0.0324399
55.271 179.178 149.094 -0.679764 -0.725881 0.104966
55.328 179.265 150.062 -0.679764 -0.725881 0.104966
55.0103 179.523 149.792 -0.679764 -0.725881 0.104966
55.0352 179.448 149.065 -0.755226 -0.654158 0.0413664
55.271 179.178 149.094 -0.755226 -0.654158 0.0413664
55.0103 179.523 149.792 -0.755226 -0.654158 0.0413664
55.9728 178.522 149.996 -0.549972 -0.68608 -0.476262
56.0975 178.941 149.249 -0.549972 -0.68608 -0.476262
56.2198 178.41 149.873 -0.549972 -0.68608 -0.476262
55.9728 178.522 149.996 -0.698695 -0.568047 -0.434912
55.328 179.265 150.062 -0.698695 -0.568047 -0.434912
56.0975 178.941 149.249 -0.698695 -0.568047 -0.434912
55.328 179.265 150.062 -0.291743 -0.951012 0.102288
55.271 179.178 149.094 -0.291743 -0.951012 0.102288
56.0975 178.941 149.249 -0.291743 -0.951012 0.102288
56.2198 178.41 149.873 0.645306 -0.759553 -0.0816057
56.885 178.973 149.891 0.645306 -0.759553 -0.0816057
56.2986 178.451 150.112 0.645306 -0.759553 -0.0816057
56.2198 178.41 149.873 0.521769 -0.596475 -0.609897
56.0975 178.941 149.249 0.521769 -0.596475 -0.609897
56.885 178.973 149.891 0.521769 -0.596475 -0.609897
56.0975 178.941 149.249 0.114235 -0.989286 -0.0909084
56.9473 179.08 148.809 0.114235 -0.989286 -0.0909084
56.885 178.973 149.891 0.114235 -0.989286 -0.0909084
56.885 178.973 149.891 0.65763 -0.752465 -0.0363281
56.9473 179.08 148.809 0.65763 -0.752465 -0.0363281
57.2963 179.375 149.001 0.65763 -0.752465 -0.0363281
57.4815 179.536 150.048 0.687946 -0.72569 -0.0102324
56.885 178.973 149.891 0.687946 -0.72569 -0.0102324
57.2963 179.375 149.001 0.687946 -0.72569 -0.0102324
55.0352 179.448 149.065 -0.996956 -0.0732771 -0.0266256
55.0103 179.523 149.792 -0.996956 -0.0732771 -0.0266256
54.9717 180.236 149.278 -0.996956 -0.0732771 -0.0266256
55.0103 179.523 149.792 -0.993274 -0.098164 -0.0614066
54.9288 180.237 149.97 -0.993274 -0.098164 -0.0614066
54.9717 180.236 149.278 -0.993274 -0.098164 -0.0614066
57.4815 179.536 150.048 0.664312 -0.60039 -0.445221
57.5049 180.209 149.176 0.664312 -0.60039 -0.445221
57.9721 180.236 149.836 0.664312 -0.60039 -0.445221
57.4815 179.536 150.048 0.967213 -0.212986 -0.138333
57.2963 179.375 149.001 0.967213 -0.212986 -0.138333
57.5049 180.209 149.176 0.967213 -0.212986 -0.138333
57.4815 179.536 150.048 0.416018 -0.518117 -0.747318
57.9721 180.236 149.836 0.416018 -0.518117 -0.747318
58.1355 180.099 150.022 0.416018 -0.518117 -0.747318
55.0877 181.118 149.52 -0.875248 0.232039 -0.424382
55.2061 180.492 148.934 -0.875248 0.232039 -0.424382
54.9717 180.236 149.278 -0.875248 0.232039 -0.424382
55.0877 181.118 149.52 -0.916972 0.213473 -0.337035
54.9717 180.236 149.278 -0.916972 0.213473 -0.337035
54.9023 181.125 150.029 -0.916972 0.213473 -0.337035
54.9023 181.125 150.029 -0.997764 -0.0255981 -0.061747
54.9717 180.236 149.278 -0.997764 -0.0255981 -0.061747
54.9288 180.237 149.97 -0.997764 -0.0255981 -0.061747
55.2061 180.492 148.934 -0.741858 0.378373 -0.553607
55.0877 181.118 149.52 -0.741858 0.378373 -0.553607
55.6007 181.264 148.933 -0.741858 0.378373 -0.553607
57.9721 180.236 149.836 0.808846 0.425859 -0.405478
57.5611 181.084 149.906 0.808846 0.425859 -0.405478
58.0331 180.376 150.104 0.808846 0.425859 -0.405478
57.9721 180.236 149.836 0.73876 0.403087 -0.540143
57.5049 180.209 149.176 0.73876 0.403087 -0.540143
57.5611 181.084 149.906 0.73876 0.403087 -0.540143
57.5049 180.209 149.176 0.975339 0.101063 -0.196213
57.3577 181.015 148.86 0.975339 0.101063 -0.196213
57.5611 181.084 149.906 0.975339 0.101063 -0.196213
58.1355 180.099 150.022 0.812807 0.42021 -0.403445
57.9721 180.236 149.836 0.812807 0.42021 -0.403445
58.0331 180.376 150.104 0.812807 0.42021 -0.403445
55.1374 182.014 149.692 -0.932619 0.117081 -0.34134
55.0877 181.118 149.52 -0.932619 0.117081 -0.34134
54.9023 181.125 150.029 -0.932619 0.117081 -0.34134
54.9118 182.095 150.216 -0.910115 0.086941 -0.405131
55.1374 182.014 149.692 -0.910115 0.086941 -0.405131
54.9023 181.125 150.029 -0.910115 0.086941 -0.405131
55.6007 181.264 148.933 -0.743144 0.1901 -0.641559
55.1374 182.014 149.692 -0.743144 0.1901 -0.641559
55.7508 182.221 149.043 -0.743144 0.1901 -0.641559
55.0877 181.118 149.52 -0.762807 0.162167 -0.625961
55.1374 182.014 149.692 -0.762807 0.162167 -0.625961
55.6007 181.264 148.933 -0.762807 0.162167 -0.625961
57.3577 181.015 148.86 0.973017 0.12009 -0.197018
57.294 182.09 149.2 0.973017 0.12009 -0.197018
57.5611 181.084 149.906 0.973017 0.12009 -0.197018
57.5611 181.084 149.906 0.976625 0.193264 -0.0940917
57.294 182.09 149.2 0.976625 0.193264 -0.0940917
57.3741 182.119 150.09 0.976625 0.193264 -0.0940917
55.1491 182.947 150.061 -0.894479 0.173985 -0.41187
55.1374 182.014 149.692 -0.894479 0.173985 -0.41187
54.9118 182.095 150.216 -0.894479 0.173985 -0.41187
55.7508 182.221 149.043 -0.701196 0.315414 -0.639405
55.1491 182.947 150.061 -0.701196 0.315414 -0.639405
56.0328 183.011 149.123 -0.701196 0.315414 -0.639405
55.1374 182.014 149.692 -0.742131 0.254388 -0.620104
55.1491 182.947 150.061 -0.742131 0.254388 -0.620104
55.7508 182.221 149.043 -0.742131 0.254388 -0.620104
57.0725 182.672 149.197 0.541703 0.634891 -0.550882
56.4973 183.086 149.109 0.541703 0.634891 -0.550882
56.9413 183.18 149.654 0.541703 0.634891 -0.550882
57.0725 182.672 149.197 0.80281 0.499668 -0.325312
56.9413 183.18 149.654 0.80281 0.499668 -0.325312
57.217 182.892 149.891 0.80281 0.499668 -0.325312
57.0725 182.672 149.197 0.893969 0.338759 -0.293364
57.217 182.892 149.891 0.893969 0.338759 -0.293364
57.294 182.09 149.2 0.893969 0.338759 -0.293364
57.294 182.09 149.2 0.980082 0.175034 -0.0938248
57.217 182.892 149.891 0.980082 0.175034 -0.0938248
57.3741 182.119 150.09 0.980082 0.175034 -0.0938248
56.0328 183.011 149.123 -0.646125 0.502117 -0.574806
55.1491 182.947 150.061 -0.646125 0.502117 -0.574806
55.4842 183.316 150.006 -0.646125 0.502117 -0.574806
56.0328 183.011 149.123 -0.417782 0.746716 -0.517565
55.4842 183.316 150.006 -0.417782 0.746716 -0.517565
56.2379 183.318 149.401 -0.417782 0.746716 -0.517565
56.2379 183.318 149.401 -0.070839 0.99384 -0.0852245
55.4842 183.316 150.006 -0.070839 0.99384 -0.0852245
56.1238 183.364 150.034 -0.070839 0.99384 -0.0852245
56.9413 183.18 149.654 0.313689 0.859378 -0.403818
56.4973 183.086 149.109 0.313689 0.859378 -0.403818
56.2379 183.318 149.401 0.313689 0.859378 -0.403818
56.9413 183.18 149.654 0.180328 0.983003 0.0344589
56.2379 183.318 149.401 0.180328 0.983003 0.0344589
56.8815 183.174 150.143 0.180328 0.983003 0.0344589
56.8815 183.174 150.143 0.246984 0.968668 -0.0261051
56.2379 183.318 149.401 0.246984 0.968668 -0.0261051
56.1238 183.364 150.034 0.246984 0.968668 -0.0261051
57.217 182.892 149.891 0.680354 0.727051 0.0922777
56.9413 183.18 149.654 0.680354 0.727051 0.0922777
56.8815 183.174 150.143 0.680354 0.727051 0.0922777
55.9728 178.522 149.996 -0.574065 -0.552335 0.604462
56.1865 179.051 150.683 -0.574065 -0.552335 0.604462
55.328 179.265 150.062 -0.574065 -0.552335 0.604462
55.9728 178.522 149.996 -0.7952 -0.334749 0.505569
56.1283 178.341 150.121 -0.7952 -0.334749 0.505569
56.1865 179.051 150.683 -0.7952 -0.334749 0.505569
56.2986 178.451 150.112 0.414811 -0.585199 0.69676
56.1865 179.051 150.683 0.414811 -0.585199 0.69676
56.1283 178.341 150.121 0.414811 -0.585199 0.69676
56.2986 178.451 150.112 0.641703 -0.462218 0.612023
56.885 178.973 149.891 0.641703 -0.462218 0.612023
56.1865 179.051 150.683 0.641703 -0.462218 0.612023
56.885 178.973 149.891 0.124064 -0.970772 0.205449
57.0552 179.173 150.734 0.124064 -0.970772 0.205449
56.1865 179.051 150.683 0.124064 -0.970772 0.205449
57.0552 179.173 150.734 0.68109 -0.731313 0.0360049
56.885 178.973 149.891 0.68109 -0.731313 0.0360049
57.4815 179.536 150.048 0.68109 -0.731313 0.0360049
57.2249 179.464 150.88 0.800214 -0.566227 0.197599
57.0552 179.173 150.734 0.800214 -0.566227 0.197599
57.4815 179.536 150.048 0.800214 -0.566227 0.197599
55.328 179.265 150.062 -0.670669 -0.51092 0.53774
55.3928 180.242 151.072 -0.670669 -0.51092 0.53774
55.0104 180.232 150.586 -0.670669 -0.51092 0.53774
55.328 179.265 150.062 -0.761305 -0.483495 0.432026
55.0104 180.232 150.586 -0.761305 -0.483495 0.432026
55.0103 179.523 149.792 -0.761305 -0.483495 0.432026
55.0103 179.523 149.792 -0.981121 -0.144164 0.128915
55.0104 180.232 150.586 -0.981121 -0.144164 0.128915
54.9288 180.237 149.97 -0.981121 -0.144164 0.128915
56.1865 179.051 150.683 -0.568988 -0.572243 0.590585
55.3928 180.242 151.072 -0.568988 -0.572243 0.590585
55.328 179.265 150.062 -0.568988 -0.572243 0.590585
57.9873 180.106 150.21 0.427878 -0.577218 0.695514
57.4151 180.313 150.734 0.427878 -0.577218 0.695514
57.4815 179.536 150.048 0.427878 -0.577218 0.695514
57.4151 180.313 150.734 0.9465 -0.164291 0.277752
57.2249 179.464 150.88 0.9465 -0.164291 0.277752
57.4815 179.536 150.048 0.9465 -0.164291 0.277752
57.4815 179.536 150.048 0.582203 -0.653801 0.483305
58.1355 180.099 150.022 0.582203 -0.653801 0.483305
57.9873 180.106 150.21 0.582203 -0.653801 0.483305
54.9288 180.237 149.97 -0.990647 -0.0383357 0.13095
55.0104 180.232 150.586 -0.990647 -0.0383357 0.13095
54.9023 181.125 150.029 -0.990647 -0.0383357 0.13095
55.0104 180.232 150.586 -0.993378 -0.0587397 0.0987378
54.9779 181.246 150.862 -0.993378 -0.0587397 0.0987378
54.9023 181.125 150.029 -0.993378 -0.0587397 0.0987378
58.0331 180.376 150.104 0.697271 0.157646 0.699257
57.4151 180.313 150.734 0.697271 0.157646 0.699257
57.9873 180.106 150.21 0.697271 0.157646 0.699257
58.0331 180.376 150.104 0.568731 0.549585 0.611965
57.5611 181.084 149.906 0.568731 0.549585 0.611965
57.4151 180.313 150.734 0.568731 0.549585 0.611965
57.5611 181.084 149.906 0.965628 0.0820827 0.246629
57.2995 181.434 150.814 0.965628 0.0820827 0.246629
57.4151 180.313 150.734 0.965628 0.0820827 0.246629
58.1355 180.099 150.022 0.78324 0.108621 0.612158
58.0331 180.376 150.104 0.78324 0.108621 0.612158
57.9873 180.106 150.21 0.78324 0.108621 0.612158
54.9023 181.125 150.029 -0.995767 -0.00794202 0.0915701
54.9779 181.246 150.862 -0.995767 -0.00794202 0.0915701
54.9118 182.095 150.216 -0.995767 -0.00794202 0.0915701
54.9779 181.246 150.862 -0.994695 0.000720699 0.102863
54.9868 182.262 150.941 -0.994695 0.000720699 0.102863
54.9118 182.095 150.216 -0.994695 0.000720699 0.102863
57.5611 181.084 149.906 0.964772 0.134091 0.226352
57.3741 182.119 150.09 0.964772 0.134091 0.226352
57.2995 181.434 150.814 0.964772 0.134091 0.226352
57.2995 181.434 150.814 0.974196 0.104997 0.199794
57.3741 182.119 150.09 0.974196 0.104997 0.199794
57.2174 182.385 150.715 0.974196 0.104997 0.199794
54.9118 182.095 150.216 -0.960905 0.274461 0.0364989
54.9868 182.262 150.941 -0.960905 0.274461 0.0364989
55.1491 182.947 150.061 -0.960905 0.274461 0.0364989
54.9868 182.262 150.941 -0.989569 0.083813 -0.117166
55.0497 183.038 150.965 -0.989569 0.083813 -0.117166
55.1491 182.947 150.061 -0.989569 0.083813 -0.117166
56.8815 183.174 150.143 0.432619 0.753331 0.495311
56.0211 183.259 150.764 0.432619 0.753331 0.495311
56.8696 182.675 150.911 0.432619 0.753331 0.495311
56.8815 183.174 150.143 0.710426 0.585376 0.39068
56.8696 182.675 150.911 0.710426 0.585376 0.39068
57.2174 182.385 150.715 0.710426 0.585376 0.39068
56.8815 183.174 150.143 0.742745 0.570288 0.350859
57.2174 182.385 150.715 0.742745 0.570288 0.350859
57.217 182.892 149.891 0.742745 0.570288 0.350859
57.217 182.892 149.891 0.962146 0.232288 0.142541
57.2174 182.385 150.715 0.962146 0.232288 0.142541
57.3741 182.119 150.09 0.962146 0.232288 0.142541
55.1491 182.947 150.061 -0.879628 0.453899 -0.142236
55.0497 183.038 150.965 -0.879628 0.453899 -0.142236
55.2068 183.279 150.762 -0.879628 0.453899 -0.142236
55.4842 183.316 150.006 -0.736198 0.633216 -0.238852
55.1491 182.947 150.061 -0.736198 0.633216 -0.238852
55.2068 183.279 150.762 -0.736198 0.633216 -0.238852
56.1238 183.364 150.034 -0.0796178 0.988263 0.130373
55.4842 183.316 150.006 -0.0796178 0.988263 0.130373
56.0211 183.259 150.764 -0.0796178 0.988263 0.130373
55.4842 183.316 150.006 0.0236157 0.998038 0.0579873
55.2068 183.279 150.762 0.0236157 0.998038 0.0579873
56.0211 183.259 150.764 0.0236157 0.998038 0.0579873
56.0211 183.259 150.764 0.217137 0.961533 0.168242
56.8815 183.174 150.143 0.217137 0.961533 0.168242
56.1238 183.364 150.034 0.217137 0.961533 0.168242
56.1865 179.051 150.683 0.092219 -0.864255 0.494528
57.0552 179.173 150.734 0.092219 -0.864255 0.494528
56.9164 179.323 151.022 0.092219 -0.864255 0.494528
56.2486 179.559 151.138 -0.101794 -0.657739 0.746336
56.1865 179.051 150.683 -0.101794 -0.657739 0.746336
56.9164 179.323 151.022 -0.101794 -0.657739 0.746336
57.0552 179.173 150.734 0.543596 -0.608213 0.57843
57.2249 179.464 150.88 0.543596 -0.608213 0.57843
56.9164 179.323 151.022 0.543596 -0.608213 0.57843
55.3928 180.242 151.072 -0.490429 -0.54829 0.67739
56.1865 179.051 150.683 -0.490429 -0.54829 0.67739
56.2486 179.559 151.138 -0.490429 -0.54829 0.67739
55.3928 180.242 151.072 -0.395376 -0.415639 0.819098
56.2486 179.559 151.138 -0.395376 -0.415639 0.819098
56.2476 180.341 151.535 -0.395376 -0.415639 0.819098
56.9164 179.323 151.022 0.111262 -0.16859 0.979387
56.977 180.047 151.14 0.111262 -0.16859 0.979387
56.2486 179.559 151.138 0.111262 -0.16859 0.979387
56.977 180.047 151.14 0.288566 -0.432562 0.854178
56.2476 180.341 151.535 0.288566 -0.432562 0.854178
56.2486 179.559 151.138 0.288566 -0.432562 0.854178
57.2249 179.464 150.88 0.688765 -0.0299796 0.724365
57.4151 180.313 150.734 0.688765 -0.0299796 0.724365
56.977 180.047 151.14 0.688765 -0.0299796 0.724365
56.9164 179.323 151.022 0.477979 -0.179825 0.859767
57.2249 179.464 150.88 0.477979 -0.179825 0.859767
56.977 180.047 151.14 0.477979 -0.179825 0.859767
55.3928 180.242 151.072 -0.843878 -0.249012 0.475249
55.2561 181.472 151.474 -0.843878 -0.249012 0.475249
54.9779 181.246 150.862 -0.843878 -0.249012 0.475249
55.0104 180.232 150.586 -0.769981 -0.190366 0.609007
55.3928 180.242 151.072 -0.769981 -0.190366 0.609007
54.9779 181.246 150.862 -0.769981 -0.190366 0.609007
56.2476 180.341 151.535 -0.459511 -0.136159 0.877673
56.1084 181.239 151.602 -0.459511 -0.136159 0.877673
55.3928 180.242 151.072 -0.459511 -0.136159 0.877673
56.1084 181.239 151.602 -0.226491 -0.325044 0.918176
55.2561 181.472 151.474 -0.226491 -0.325044 0.918176
55.3928 180.242 151.072 -0.226491 -0.325044 0.918176
56.977 180.047 151.14 0.452962 -0.0714865 0.888659
56.9733 181.034 151.221 0.452962 -0.0714865 0.888659
56.2476 180.341 151.535 0.452962 -0.0714865 0.888659
56.9733 181.034 151.221 0.401638 -0.00540949 0.915782
56.1084 181.239 151.602 0.401638 -0.00540949 0.915782
56.2476 180.341 151.535 0.401638 -0.00540949 0.915782
57.4151 180.313 150.734 0.763878 0.0329164 0.644521
57.2995 181.434 150.814 0.763878 0.0329164 0.644521
56.9733 181.034 151.221 0.763878 0.0329164 0.644521
56.977 180.047 151.14 0.696454 -0.0563015 0.715389
57.4151 180.313 150.734 0.696454 -0.0563015 0.715389
56.9733 181.034 151.221 0.696454 -0.0563015 0.715389
55.2561 181.472 151.474 -0.895828 -0.00541499 0.444368
55.2551 182.456 151.484 -0.895828 -0.00541499 0.444368
54.9868 182.262 150.941 -0.895828 -0.00541499 0.444368
54.9779 181.246 150.862 -0.9067 -0.0248739 0.421043
55.2561 181.472 151.474 -0.9067 -0.0248739 0.421043
54.9868 182.262 150.941 -0.9067 -0.0248739 0.421043
56.1084 181.239 151.602 -0.175079 -0.1041 0.979035
55.9754 182.142 151.674 -0.175079 -0.1041 0.979035
55.2561 181.472 151.474 -0.175079 -0.1041 0.979035
55.9754 182.142 151.674 -0.258936 -0.0101131 0.965842
55.2551 182.456 151.484 -0.258936 -0.0101131 0.965842
55.2561 181.472 151.474 -0.258936 -0.0101131 0.965842
56.9733 181.034 151.221 0.412447 0.051982 0.909497
56.8778 182.101 151.203 0.412447 0.051982 0.909497
56.1084 181.239 151.602 0.412447 0.051982 0.909497
56.8778 182.101 151.203 0.462203 -0.00288965 0.88677
55.9754 182.142 151.674 0.462203 -0.00288965 0.88677
56.1084 181.239 151.602 0.462203 -0.00288965 0.88677
57.2995 181.434 150.814 0.776722 0.13144 0.615976
57.2174 182.385 150.715 0.776722 0.13144 0.615976
56.8778 182.101 151.203 0.776722 0.13144 0.615976
56.9733 181.034 151.221 0.739589 0.077265 0.668609
57.2995 181.434 150.814 0.739589 0.077265 0.668609
56.8778 182.101 151.203 0.739589 0.077265 0.668609
55.2551 182.456 151.484 -0.554001 0.437072 0.708556
55.3075 183.154 151.094 -0.554001 0.437072 0.708556
55.0497 183.038 150.965 -0.554001 0.437072 0.708556
54.9868 182.262 150.941 -0.903351 0.0602193 0.424654
55.2551 182.456 151.484 -0.903351 0.0602193 0.424654
55.0497 183.038 150.965 -0.903351 0.0602193 0.424654
55.9754 182.142 151.674 0.0035757 0.523631 0.851938
56.0796 182.902 151.206 0.0035757 0.523631 0.851938
55.2551 182.456 151.484 0.0035757 0.523631 0.851938
56.0796 182.902 151.206 0.0316336 0.485382 0.87373
55.3075 183.154 151.094 0.0316336 0.485382 0.87373
55.2551 182.456 151.484 0.0316336 0.485382 0.87373
56.8696 182.675 150.911 0.412104 0.734528 0.53911
56.0211 183.259 150.764 0.412104 0.734528 0.53911
56.0796 182.902 151.206 0.412104 0.734528 0.53911
56.8696 182.675 150.911 0.420434 0.416176 0.806246
56.0796 182.902 151.206 0.420434 0.416176 0.806246
56.8778 182.101 151.203 0.420434 0.416176 0.806246
56.8778 182.101 151.203 0.432845 0.428589 0.793068
56.0796 182.902 151.206 0.432845 0.428589 0.793068
55.9754 182.142 151.674 0.432845 0.428589 0.793068
57.2174 182.385 150.715 0.664196 0.346464 0.662425
56.8696 182.675 150.911 0.664196 0.346464 0.662425
56.8778 182.101 151.203 0.664196 0.346464 0.662425
55.0497 183.038 150.965 -0.54354 0.718416 0.434099
55.3075 183.154 151.094 -0.54354 0.718416 0.434099
55.2068 183.279 150.762 -0.54354 0.718416 0.434099
56.0211 183.259 150.764 0.0214244 0.938337 0.345057
55.2068 183.279 150.762 0.0214244 0.938337 0.345057
55.3075 183.154 151.094 0.0214244 0.938337 0.345057
56.0796 182.902 151.206 0.165843 0.777573 0.606528
56.0211 183.259 150.764 0.165843 0.777573 0.606528
55.3075 183.154 151.094 0.165843 0.777573 0.606528
3 0 1 2
3 3 4 5
3 6 7 8
3 9 10 11
3 12 13 14
3 15 16 17
3 18 19 20
3 21 22 23
3 24 25 26
3 27 28 29
3 30 31 32
3 33 34 35
3 36 37 38
3 39 40 41
3 42 43 44
3 45 46 47
3 48 49 50
3 51 52 53
3 54 55 56
3 57 58 59
3 60 61 62
3 63 64 65
3 66 67 68
3 69 70 71
3 72 73 74
3 75 76 77
3 78 79 80
3 81 82 83
3 84 85 86
3 87 88 89
3 90 91 92
3 93 94 95
3 96 97 98
3 99 100 101
3 102 103 104
3 105 106 107
3 108 109 110
3 111 112 113
3 114 115 116
3 117 118 119
3 120 121 122
3 123 124 125
3 126 127 128
3 129 130 131
3 132 133 134
3 135 136 137
3 138 139 140
3 141 142 143
3 144 145 146
3 147 148 149
3 150 151 152
3 153 154 155
3 156 157 158
3 159 160 161
3 162 163 164
3 165 166 167
3 168 169 170
3 171 172 173
3 174 175 176
3 177 178 179
3 180 181 182
3 183 184 185
3 186 187 188
3 189 190 191
3 192 193 194
3 195 196 197
3 198 199 200
3 201 202 203
3 204 205 206
3 207 208 209
3 210 211 212
3 213 214 215
3 216 217 218
3 219 220 221
3 222 223 224
3 225 226 227
3 228 229 230
3 231 232 233
3 234 235 236
3 237 238 239
3 240 241 242
3 243 244 245
3 246 247 248
3 249 250 251
3 252 253 254
3 255 256 257
3 258 259 260
3 261 262 263
3 264 265 266
3 267 268 269
3 270 271 272
3 273 274 275
3 276 277 278
3 279 280 281
3 282 283 284
3 285 286 287
3 288 289 290
3 291 292 293
3 294 295 296
3 297 298 299
3 300 301 302
3 303 304 305
3 306 307 308
3 309 310 311
3 312 313 314
3 315 316 317
3 318 319 320
3 321 322 323
3 324 325 326
3 327 328 329
3 330 331 332
3 333 334 335
3 336 337 338
3 339 340 341
3 342 343 344
3 345 346 347
3 348 349 350
3 351 352 353
3 354 355 356
3 357 358 359
3 360 361 362
3 363 364 365
3 366 367 368
3 369 370 371
3 372 373 374
3 375 376 377
3 378 379 380
3 381 382 383
3 384 385 386
3 387 388 389
3 390 391 392
3 393 394 395
3 396 397 398
3 399 400 401
3 402 403 404
3 405 406 407
3 408 409 410
3 411 412 413
3 414 415 416
3 417 418 419
3 420 421 422
3 423 424 425
3 426 427 428
3 429 430 431
3 432 433 434
3 435 436 437
3 438 439 440
3 441 442 443
3 444 445 446
3 447 448 449
3 450 451 452
3 453 454 455
3 456 457 458
3 459 460 461
3 462 463 464
3 465 466 467
3 468 469 470
3 471 472 473
3 474 475 476
3 477 478 479
3 480 481 482
3 483 484 485
3 486 487 488
3 489 490 491
3 492 493 494
3 495 496 497
3 498 499 500
3 501 502 503
