ply
format ascii 1.0
element vertex 156
property float x
property float y
property float z
property float nx
property float ny
property float nz
element face 52
property list uint uint vertex_indices
end_header
98.2678 98.1003 184.252 -0.356562 -0.792909 -0.494125
98.1701 97.8692 184.693 -0.356562 -0.792909 -0.494125
97.9167 98.0746 184.547 -0.356562 -0.792909 -0.494125
98.2678 98.1003 184.252 -0.157299 -0.870643 -0.466088
99.1951 98.1173 183.907 -0.157299 -0.870643 -0.466088
99.0213 97.8256 184.511 -0.157299 -0.870643 -0.466088
98.1701 97.8692 184.693 -0.14801 -0.862301 -0.484283
98.2678 98.1003 184.252 -0.14801 -0.862301 -0.484283
99.0213 97.8256 184.511 -0.14801 -0.862301 -0.484283
99.1951 98.1173 183.907 0.367328 -0.601188 -0.709678
99.9411 98.1527 184.263 0.367328 -0.601188 -0.709678
99.8141 97.8958 184.415 0.367328 -0.601188 -0.709678
99.0213 97.8256 184.511 0.0283938 -0.903173 -0.428337
99.1951 98.1173 183.907 0.0283938 -0.903173 -0.428337
99.8141 97.8958 184.415 0.0283938 -0.903173 -0.428337
99.8141 97.8958 184.415 0.640667 -0.600005 -0.479103
99.9411 98.1527 184.263 0.640667 -0.600005 -0.479103
100.098 98.0439 184.61 0.640667 -0.600005 -0.479103
98.0383 98.6399 184.553 -0.642083 0.146876 -0.752434
98.2678 98.1003 184.252 -0.642083 0.146876 -0.752434
97.9167 98.0746 184.547 -0.642083 0.146876 -0.752434
99.1951 98.1173 183.907 -0.345866 -0.083965 -0.93452
98.2678 98.1003 184.252 -0.345866 -0.083965 -0.93452
98.828 98.7432 183.987 -0.345866 -0.083965 -0.93452
98.828 98.7432 183.987 -0.588455 0.188551 -0.786238
98.2678 98.1003 184.252 -0.588455 0.188551 -0.786238
98.0383 98.6399 184.553 -0.588455 0.188551 -0.786238
99.9411 98.1527 184.263 0.421334 0.13836 -0.896289
99.1951 98.1173 183.907 0.421334 0.13836 -0.896289
99.7849 98.7644 184.284 0.421334 0.13836 -0.896289
99.7849 98.7644 184.284 0.279304 0.280631 -0.918278
99.1951 98.1173 183.907 0.279304 0.280631 -0.918278
98.828 98.7432 183.987 0.279304 0.280631 -0.918278
100.104 98.5878 184.586 0.906859 -0.0281942 -0.42049
100.098 98.0439 184.61 0.906859 -0.0281942 -0.42049
99.9411 98.1527 184.263 0.906859 -0.0281942 -0.42049
99.7849 98.7644 184.284 0.73017 0.208816 -0.650575
100.104 98.5878 184.586 0.73017 0.208816 -0.650575
99.9411 98.1527 184.263 0.73017 0.208816 -0.650575
98.828 98.7432 183.987 -0.517184 0.598142 -0.612166
98.0383 98.6399 184.553 -0.517184 0.598142 -0.612166
98.3299 98.9483 184.608 -0.517184 0.598142 -0.612166
99.0934 99.004 184.538 -0.102429 0.91722 -0.384988
98.828 98.7432 183.987 -0.102429 0.91722 -0.384988
98.3299 98.9483 184.608 -0.102429 0.91722 -0.384988
99.7849 98.7644 184.284 0.128124 0.871049 -0.474192
98.828 98.7432 183.987 0.128124 0.871049 -0.474192
99.0934 99.004 184.538 0.128124 0.871049 -0.474192
98.1701 97.8692 184.693 -0.635351 -0.768845 0.0721552
98.2212 97.8976 185.446 -0.635351 -0.768845 0.0721552
97.9342 98.1129 185.212 -0.635351 -0.768845 0.0721552
97.9167 98.0746 184.547 -0.649464 -0.757971 0.0606363
98.1701 97.8692 184.693 -0.649464 -0.757971 0.0606363
97.9342 98.1129 185.212 -0.649464 -0.757971 0.0606363
99.0213 97.8256 184.511 -0.0540041 -0.998447 -0.0136993
99.0032 97.8153 185.336 -0.0540041 -0.998447 -0.0136993
98.1701 97.8692 184.693 -0.0540041 -0.998447 -0.0136993
98.1701 97.8692 184.693 -0.0984352 -0.99416 0.0442356
99.0032 97.8153 185.336 -0.0984352 -0.99416 0.0442356
98.2212 97.8976 185.446 -0.0984352 -0.99416 0.0442356
99.8141 97.8958 184.415 0.0841825 -0.995905 -0.0329709
99.8404 97.8737 185.149 0.0841825 -0.995905 -0.0329709
99.0213 97.8256 184.511 0.0841825 -0.995905 -0.0329709
99.0213 97.8256 184.511 0.0671764 -0.99768 -0.0110275
99.8404 97.8737 185.149 0.0671764 -0.99768 -0.0110275
99.0032 97.8153 185.336 0.0671764 -0.99768 -0.0110275
99.8404 97.8737 185.149 0.484759 -0.873557 -0.0436574
99.8141 97.8958 184.415 0.484759 -0.873557 -0.0436574
100.098 98.0439 184.61 0.484759 -0.873557 -0.0436574
100.102 98.1956 185.29 0.735943 -0.661688 0.143374
99.8404 97.8737 185.149 0.735943 -0.661688 0.143374
100.098 98.0439 184.61 0.735943 -0.661688 0.143374
97.9167 98.0746 184.547 -0.977558 0.210225 0.013613
97.9342 98.1129 185.212 -0.977558 0.210225 0.013613
98.0383 98.6399 184.553 -0.977558 0.210225 0.013613
97.9342 98.1129 185.212 -0.942965 0.316276 0.103858
98.1769 98.7484 185.481 -0.942965 0.316276 0.103858
98.0383 98.6399 184.553 -0.942965 0.316276 0.103858
100.098 98.0439 184.61 0.999935 -0.0108811 -0.0034292
100.104 98.5878 184.586 0.999935 -0.0108811 -0.0034292
100.102 98.1956 185.29 0.999935 -0.0108811 -0.0034292
100.102 98.1956 185.29 0.998119 0.0523942 0.0318265
100.104 98.5878 184.586 0.998119 0.0523942 0.0318265
100.075 98.7837 185.18 0.998119 0.0523942 0.0318265
98.3299 98.9483 184.608 -0.728869 0.684043 0.0289161
98.0383 98.6399 184.553 -0.728869 0.684043 0.0289161
98.1769 98.7484 185.481 -0.728869 0.684043 0.0289161
99.0934 99.004 184.538 -0.0758314 0.99655 -0.0337295
98.3299 98.9483 184.608 -0.0758314 0.99655 -0.0337295
98.8957 99.014 185.279 -0.0758314 0.99655 -0.0337295
98.3299 98.9483 184.608 -0.30154 0.939539 0.162294
98.1769 98.7484 185.481 -0.30154 0.939539 0.162294
98.8957 99.014 185.279 -0.30154 0.939539 0.162294
99.7849 98.7644 184.284 0.2678 0.948967 -0.16657
99.0934 99.004 184.538 0.2678 0.948967 -0.16657
99.7157 98.9578 185.275 0.2678 0.948967 -0.16657
99.0934 99.004 184.538 0.068499 0.99764 0.00475251
98.8957 99.014 185.279 0.068499 0.99764 0.00475251
99.7157 98.9578 185.275 0.068499 0.99764 0.00475251
100.075 98.7837 185.18 0.621607 0.75252 -0.217529
100.104 98.5878 184.586 0.621607 0.75252 -0.217529
99.7849 98.7644 184.284 0.621607 0.75252 -0.217529
99.7157 98.9578 185.275 0.399183 0.904724 -0.148755
100.075 98.7837 185.18 0.399183 0.904724 -0.148755
99.7849 98.7644 184.284 0.399183 0.904724 -0.148755
98.2212 97.8976 185.446 -0.733351 -0.561429 0.383398
98.2212 98.1708 185.846 -0.733351 -0.561429 0.383398
97.9342 98.1129 185.212 -0.733351 -0.561429 0.383398
98.2212 97.8976 185.446 -0.0387539 -0.912485 0.407272
99.0032 97.8153 185.336 -0.0387539 -0.912485 0.407272
99.0047 98.1038 185.983 -0.0387539 -0.912485 0.407272
98.2212 98.1708 185.846 -0.166495 -0.814278 0.556084
98.2212 97.8976 185.446 -0.166495 -0.814278 0.556084
99.0047 98.1038 185.983 -0.166495 -0.814278 0.556084
99.0032 97.8153 185.336 0.125207 -0.956947 0.26187
99.8404 97.8737 185.149 0.125207 -0.956947 0.26187
99.7876 98.0338 185.76 0.125207 -0.956947 0.26187
99.0047 98.1038 185.983 0.034419 -0.912692 0.407195
99.0032 97.8153 185.336 0.034419 -0.912692 0.407195
99.7876 98.0338 185.76 0.034419 -0.912692 0.407195
99.8404 97.8737 185.149 0.70006 -0.673492 0.237327
100.102 98.1956 185.29 0.70006 -0.673492 0.237327
99.7876 98.0338 185.76 0.70006 -0.673492 0.237327
97.9342 98.1129 185.212 -0.902335 0.178785 0.392209
98.2212 98.1708 185.846 -0.902335 0.178785 0.392209
98.1769 98.7484 185.481 -0.902335 0.178785 0.392209
99.0047 98.1038 185.983 -0.162421 0.0992305 0.981719
98.989 98.75 185.915 -0.162421 0.0992305 0.981719
98.2212 98.1708 185.846 -0.162421 0.0992305 0.981719
98.989 98.75 185.915 -0.418362 0.462191 0.78189
98.1769 98.7484 185.481 -0.418362 0.462191 0.78189
98.2212 98.1708 185.846 -0.418362 0.462191 0.78189
99.7876 98.0338 185.76 0.268637 -0.0585037 0.961463
99.8306 98.649 185.785 0.268637 -0.0585037 0.961463
99.0047 98.1038 185.983 0.268637 -0.0585037 0.961463
99.8306 98.649 185.785 0.163972 0.107006 0.980644
98.989 98.75 185.915 0.163972 0.107006 0.980644
99.0047 98.1038 185.983 0.163972 0.107006 0.980644
100.102 98.1956 185.29 0.911569 0.115929 0.394465
100.075 98.7837 185.18 0.911569 0.115929 0.394465
99.8306 98.649 185.785 0.911569 0.115929 0.394465
99.7876 98.0338 185.76 0.84056 -0.0808703 0.535648
100.102 98.1956 185.29 0.84056 -0.0808703 0.535648
99.8306 98.649 185.785 0.84056 -0.0808703 0.535648
98.989 98.75 185.915 -0.215972 0.890174 0.401182
98.8957 99.014 185.279 -0.215972 0.890174 0.401182
98.1769 98.7484 185.481 -0.215972 0.890174 0.401182
99.7157 98.9578 185.275 0.0652588 0.924979 0.374372
98.8957 99.014 185.279 0.0652588 0.924979 0.374372
98.989 98.75 185.915 0.0652588 0.924979 0.374372
99.8306 98.649 185.785 0.177126 0.859186 0.480027
99.7157 98.9578 185.275 0.177126 0.859186 0.480027
98.989 98.75 185.915 0.177126 0.859186 0.480027
100.075 98.7837 185.18 0.481977 0.793461 0.371642
99.7157 98.9578 185.275 0.481977 0.793461 0.371642
99.8306 98.649 185.785 0.481977 0.793461 0.371642
3 0 1 2
3 3 4 5
3 6 7 8
3 9 10 11
3 12 13 14
3 15 16 17
3 18 19 20
3 21 22 23
3 24 25 26
3 27 28 29
3 30 31 32
3 33 34 35
3 36 37 38
3 39 40 41
3 42 43 44
3 45 46 47
3 48 49 50
3 51 52 53
3 54 55 56
3 57 58 59
3 60 61 62
3 63 64 65
3 66 67 68
3 69 70 71
3 72 73 74
3 75 76 77
3 78 79 80
3 81 82 83
3 84 85 86
3 87 88 89
3 90 91 92
3 93 94 95
3 96 97 98
3 99 100 101
3 102 103 104
3 105 106 107
3 108 109 110
3 111 112 113
3 114 115 116
3 117 118 119
3 120 121 122
3 123 124 125
3 126 127 128
3 129 130 131
3 132 133 134
3 135 136 137
3 138 139 140
3 141 142 143
3 144 145 146
3 147 148 149
3 150 151 152
3 153 154 155
