ply
format ascii 1.0
element vertex 324
property float x
property float y
property float z
property float nx
property float ny
property float nz
element face 108
property list uint uint vertex_indices
end_header
122.936 156.507 138.749 -0.49481 -0.294077 -0.817729
123.22 156.415 138.611 -0.49481 -0.294077 -0.817729
123.142 155.557 138.967 -0.49481 -0.294077 -0.817729
123.22 156.415 138.611 0.29814 -0.388975 -0.871672
123.488 156.198 138.8 0.29814 -0.388975 -0.871672
123.142 155.557 138.967 0.29814 -0.388975 -0.871672
123.181 157.287 138.578 -0.451814 -0.0541691 -0.890466
123.22 156.415 138.611 -0.451814 -0.0541691 -0.890466
122.936 156.507 138.749 -0.451814 -0.0541691 -0.890466
122.912 157.493 138.738 -0.523982 -0.022905 -0.851421
123.181 157.287 138.578 -0.523982 -0.022905 -0.851421
122.936 156.507 138.749 -0.523982 -0.022905 -0.851421
123.447 157.179 138.797 0.586593 0.022674 -0.809564
123.488 156.198 138.8 0.586593 0.022674 -0.809564
123.22 156.415 138.611 0.586593 0.022674 -0.809564
123.181 157.287 138.578 0.635715 -0.00107902 -0.771923
123.447 157.179 138.797 0.635715 -0.00107902 -0.771923
123.22 156.415 138.611 0.635715 -0.00107902 -0.771923
123.157 158.06 138.615 -0.495843 0.0266971 -0.868002
123.181 157.287 138.578 -0.495843 0.0266971 -0.868002
122.912 157.493 138.738 -0.495843 0.0266971 -0.868002
122.933 158.321 138.867 -0.669784 0.131468 -0.730825
123.157 158.06 138.615 -0.669784 0.131468 -0.730825
122.912 157.493 138.738 -0.669784 0.131468 -0.730825
123.261 158.012 138.714 0.651257 0.0704407 -0.755581
123.447 157.179 138.797 0.651257 0.0704407 -0.755581
123.181 157.287 138.578 0.651257 0.0704407 -0.755581
123.157 158.06 138.615 0.701202 0.0564985 -0.710721
123.261 158.012 138.714 0.701202 0.0564985 -0.710721
123.181 157.287 138.578 0.701202 0.0564985 -0.710721
123.157 158.06 138.615 -0.00189813 0.694715 -0.719282
122.933 158.321 138.867 -0.00189813 0.694715 -0.719282
123.197 158.302 138.848 -0.00189813 0.694715 -0.719282
123.261 158.012 138.714 0.721478 0.415095 -0.554225
123.157 158.06 138.615 0.721478 0.415095 -0.554225
123.197 158.302 138.848 0.721478 0.415095 -0.554225
122.253 155.665 139.567 -0.363954 -0.847004 -0.387455
123.142 155.557 138.967 -0.363954 -0.847004 -0.387455
122.481 155.504 139.705 -0.363954 -0.847004 -0.387455
122.481 155.504 139.705 -0.336979 -0.867946 -0.364849
123.142 155.557 138.967 -0.336979 -0.867946 -0.364849
123.319 155.25 139.534 -0.336979 -0.867946 -0.364849
123.142 155.557 138.967 0.34119 -0.428974 -0.836403
124.071 155.588 139.33 0.34119 -0.428974 -0.836403
123.99 155.255 139.468 0.34119 -0.428974 -0.836403
123.142 155.557 138.967 -0.0398106 -0.883756 -0.466252
123.99 155.255 139.468 -0.0398106 -0.883756 -0.466252
123.319 155.25 139.534 -0.0398106 -0.883756 -0.466252
123.99 155.255 139.468 0.632611 -0.422585 -0.649018
124.071 155.588 139.33 0.632611 -0.422585 -0.649018
124.275 155.496 139.589 0.632611 -0.422585 -0.649018
121.973 156.413 139.632 -0.724451 -0.213911 -0.655296
122.342 156.208 139.291 -0.724451 -0.213911 -0.655296
122.253 155.665 139.567 -0.724451 -0.213911 -0.655296
123.142 155.557 138.967 -0.556833 -0.297803 -0.775404
122.342 156.208 139.291 -0.556833 -0.297803 -0.775404
122.936 156.507 138.749 -0.556833 -0.297803 -0.775404
122.253 155.665 139.567 -0.558474 -0.30103 -0.772973
122.342 156.208 139.291 -0.558474 -0.30103 -0.772973
123.142 155.557 138.967 -0.558474 -0.30103 -0.772973
124.071 155.588 139.33 0.625145 -0.0787626 -0.776524
123.488 156.198 138.8 0.625145 -0.0787626 -0.776524
124.105 156.466 139.269 0.625145 -0.0787626 -0.776524
123.142 155.557 138.967 0.344232 -0.407222 -0.845976
123.488 156.198 138.8 0.344232 -0.407222 -0.845976
124.071 155.588 139.33 0.344232 -0.407222 -0.845976
124.347 156.259 139.583 0.768761 -0.0772648 -0.634851
124.275 155.496 139.589 0.768761 -0.0772648 -0.634851
124.071 155.588 139.33 0.768761 -0.0772648 -0.634851
124.105 156.466 139.269 0.765696 -0.0744877 -0.638875
124.347 156.259 139.583 0.765696 -0.0744877 -0.638875
124.071 155.588 139.33 0.765696 -0.0744877 -0.638875
122.125 157.211 139.297 -0.714712 -0.15028 -0.683083
122.342 156.208 139.291 -0.714712 -0.15028 -0.683083
121.973 156.413 139.632 -0.714712 -0.15028 -0.683083
121.477 157.338 139.803 -0.627252 -0.196557 -0.753605
122.125 157.211 139.297 -0.627252 -0.196557 -0.753605
121.973 156.413 139.632 -0.627252 -0.196557 -0.753605
122.936 156.507 138.749 -0.57368 -0.023764 -0.818735
122.125 157.211 139.297 -0.57368 -0.023764 -0.818735
122.912 157.493 138.738 -0.57368 -0.023764 -0.818735
122.342 156.208 139.291 -0.630799 -0.131622 -0.764702
122.125 157.211 139.297 -0.630799 -0.131622 -0.764702
122.936 156.507 138.749 -0.630799 -0.131622 -0.764702
124.105 156.466 139.269 0.659774 0.117892 -0.742159
123.447 157.179 138.797 0.659774 0.117892 -0.742159
124.061 157.279 139.358 0.659774 0.117892 -0.742159
123.488 156.198 138.8 0.598974 0.023219 -0.800432
123.447 157.179 138.797 0.598974 0.023219 -0.800432
124.105 156.466 139.269 0.598974 0.023219 -0.800432
124.329 157.043 139.563 0.792942 0.0021416 -0.609294
124.347 156.259 139.583 0.792942 0.0021416 -0.609294
124.105 156.466 139.269 0.792942 0.0021416 -0.609294
124.061 157.279 139.358 0.664357 0.117692 -0.738091
124.329 157.043 139.563 0.664357 0.117692 -0.738091
124.105 156.466 139.269 0.664357 0.117692 -0.738091
121.422 158.139 139.53 -0.656822 -0.00152623 -0.754044
121.182 157.947 139.74 -0.656822 -0.00152623 -0.754044
121.304 158.465 139.632 -0.656822 -0.00152623 -0.754044
121.477 157.338 139.803 -0.469123 -0.3139 -0.825464
121.182 157.947 139.74 -0.469123 -0.3139 -0.825464
121.422 158.139 139.53 -0.469123 -0.3139 -0.825464
121.477 157.338 139.803 -0.623778 -0.290545 -0.725593
121.422 158.139 139.53 -0.623778 -0.290545 -0.725593
122.125 157.211 139.297 -0.623778 -0.290545 -0.725593
122.125 157.211 139.297 -0.349439 -0.0295408 -0.936493
121.422 158.139 139.53 -0.349439 -0.0295408 -0.936493
122.226 158.162 139.23 -0.349439 -0.0295408 -0.936493
122.912 157.493 138.738 -0.477196 0.147715 -0.866293
122.226 158.162 139.23 -0.477196 0.147715 -0.866293
122.933 158.321 138.867 -0.477196 0.147715 -0.866293
122.125 157.211 139.297 -0.580392 0.00370786 -0.814329
122.226 158.162 139.23 -0.580392 0.00370786 -0.814329
122.912 157.493 138.738 -0.580392 0.00370786 -0.814329
124.061 157.279 139.358 0.718422 0.620548 -0.314309
123.48 158.024 139.502 0.718422 0.620548 -0.314309
124.064 157.443 139.691 0.718422 0.620548 -0.314309
124.061 157.279 139.358 0.521376 0.534719 -0.665013
123.447 157.179 138.797 0.521376 0.534719 -0.665013
123.48 158.024 139.502 0.521376 0.534719 -0.665013
123.447 157.179 138.797 0.94603 0.185061 -0.266043
123.261 158.012 138.714 0.94603 0.185061 -0.266043
123.48 158.024 139.502 0.94603 0.185061 -0.266043
124.329 157.043 139.563 0.747434 0.592434 -0.300608
124.061 157.279 139.358 0.747434 0.592434 -0.300608
124.064 157.443 139.691 0.747434 0.592434 -0.300608
121.304 158.465 139.632 -0.499073 0.635333 -0.589304
121.795 159.054 139.851 -0.499073 0.635333 -0.589304
122.111 158.954 139.476 -0.499073 0.635333 -0.589304
121.304 158.465 139.632 -0.294014 0.186474 -0.937434
122.111 158.954 139.476 -0.294014 0.186474 -0.937434
121.422 158.139 139.53 -0.294014 0.186474 -0.937434
121.422 158.139 139.53 -0.346445 0.232684 -0.908754
122.111 158.954 139.476 -0.346445 0.232684 -0.908754
122.226 158.162 139.23 -0.346445 0.232684 -0.908754
122.933 158.321 138.867 -0.481811 0.195965 -0.854082
122.226 158.162 139.23 -0.481811 0.195965 -0.854082
122.111 158.954 139.476 -0.481811 0.195965 -0.854082
122.933 158.321 138.867 0.390931 0.84901 -0.355463
122.111 158.954 139.476 0.390931 0.84901 -0.355463
122.963 158.638 139.658 0.390931 0.84901 -0.355463
122.933 158.321 138.867 0.0398995 0.926874 -0.373247
122.963 158.638 139.658 0.0398995 0.926874 -0.373247
123.197 158.302 138.848 0.0398995 0.926874 -0.373247
122.963 158.638 139.658 0.351968 0.489667 -0.797712
122.111 158.954 139.476 0.351968 0.489667 -0.797712
122.316 159.207 139.722 0.351968 0.489667 -0.797712
123.48 158.024 139.502 0.9114 0.320215 -0.258481
123.261 158.012 138.714 0.9114 0.320215 -0.258481
123.197 158.302 138.848 0.9114 0.320215 -0.258481
122.963 158.638 139.658 0.757728 0.650542 -0.0514062
123.48 158.024 139.502 0.757728 0.650542 -0.0514062
123.197 158.302 138.848 0.757728 0.650542 -0.0514062
122.111 158.954 139.476 -0.618754 0.453116 -0.641739
121.795 159.054 139.851 -0.618754 0.453116 -0.641739
122.104 159.321 139.742 -0.618754 0.453116 -0.641739
122.316 159.207 139.722 0.23348 0.57359 -0.785164
122.111 158.954 139.476 0.23348 0.57359 -0.785164
122.104 159.321 139.742 0.23348 0.57359 -0.785164
122.481 155.504 139.705 -0.0853266 -0.734913 0.672772
123.319 155.25 139.534 -0.0853266 -0.734913 0.672772
123.23 155.612 139.918 -0.0853266 -0.734913 0.672772
123.319 155.25 139.534 0.0548055 -0.86805 0.493443
123.99 155.255 139.468 0.0548055 -0.86805 0.493443
123.997 155.373 139.675 0.0548055 -0.86805 0.493443
123.23 155.612 139.918 -0.010094 -0.728882 0.684565
123.319 155.25 139.534 -0.010094 -0.728882 0.684565
123.997 155.373 139.675 -0.010094 -0.728882 0.684565
123.99 155.255 139.468 0.473645 -0.771664 0.424493
124.275 155.496 139.589 0.473645 -0.771664 0.424493
123.997 155.373 139.675 0.473645 -0.771664 0.424493
122.481 155.504 139.705 -0.417458 -0.620469 0.663888
122.451 156.293 140.423 -0.417458 -0.620469 0.663888
122.051 156.32 140.198 -0.417458 -0.620469 0.663888
122.481 155.504 139.705 -0.678138 -0.607166 0.4141
122.051 156.32 140.198 -0.678138 -0.607166 0.4141
122.253 155.665 139.567 -0.678138 -0.607166 0.4141
122.253 155.665 139.567 -0.932466 -0.354451 0.0698028
122.051 156.32 140.198 -0.932466 -0.354451 0.0698028
121.973 156.413 139.632 -0.932466 -0.354451 0.0698028
123.23 155.612 139.918 -0.111576 -0.671318 0.732723
122.451 156.293 140.423 -0.111576 -0.671318 0.732723
122.481 155.504 139.705 -0.111576 -0.671318 0.732723
123.23 155.612 139.918 0.361596 -0.496152 0.789355
124.074 156.08 139.826 0.361596 -0.496152 0.789355
123.433 156.463 140.359 0.361596 -0.496152 0.789355
123.23 155.612 139.918 0.229205 -0.226882 0.946567
123.997 155.373 139.675 0.229205 -0.226882 0.946567
124.074 156.08 139.826 0.229205 -0.226882 0.946567
124.275 155.496 139.589 0.684259 -0.0592018 0.726832
124.347 156.259 139.583 0.684259 -0.0592018 0.726832
124.074 156.08 139.826 0.684259 -0.0592018 0.726832
123.997 155.373 139.675 0.380087 -0.2324 0.895279
124.275 155.496 139.589 0.380087 -0.2324 0.895279
124.074 156.08 139.826 0.380087 -0.2324 0.895279
121.973 156.413 139.632 -0.877291 -0.478131 0.0418415
122.051 156.32 140.198 -0.877291 -0.478131 0.0418415
121.477 157.338 139.803 -0.877291 -0.478131 0.0418415
122.051 156.32 140.198 -0.718862 -0.141574 0.680583
122.161 157.371 140.533 -0.718862 -0.141574 0.680583
121.477 157.338 139.803 -0.718862 -0.141574 0.680583
124.104 156.978 139.876 0.615443 -0.0652611 0.785475
123.433 156.463 140.359 0.615443 -0.0652611 0.785475
124.074 156.08 139.826 0.615443 -0.0652611 0.785475
123.445 157.445 140.352 0.584665 -0.000968891 0.811274
123.433 156.463 140.359 0.584665 -0.000968891 0.811274
124.104 156.978 139.876 0.584665 -0.000968891 0.811274
124.347 156.259 139.583 0.809234 0.0338729 0.586509
124.329 157.043 139.563 0.809234 0.0338729 0.586509
124.104 156.978 139.876 0.809234 0.0338729 0.586509
124.074 156.08 139.826 0.685838 -0.064238 0.724914
124.347 156.259 139.583 0.685838 -0.064238 0.724914
124.104 156.978 139.876 0.685838 -0.064238 0.724914
121.182 157.947 139.74 -0.969449 0.199853 -0.142223
121.257 158.398 139.86 -0.969449 0.199853 -0.142223
121.304 158.465 139.632 -0.969449 0.199853 -0.142223
121.182 157.947 139.74 -0.840344 -0.00388615 0.542039
121.551 158.269 140.315 -0.840344 -0.00388615 0.542039
121.257 158.398 139.86 -0.840344 -0.00388615 0.542039
121.182 157.947 139.74 -0.72483 -0.286903 0.626345
121.477 157.338 139.803 -0.72483 -0.286903 0.626345
121.551 158.269 140.315 -0.72483 -0.286903 0.626345
121.477 157.338 139.803 -0.687051 -0.307489 0.65834
122.161 157.371 140.533 -0.687051 -0.307489 0.65834
121.551 158.269 140.315 -0.687051 -0.307489 0.65834
124.064 157.443 139.691 0.692702 0.318935 0.646872
123.445 157.445 140.352 0.692702 0.318935 0.646872
124.104 156.978 139.876 0.692702 0.318935 0.646872
124.064 157.443 139.691 0.528478 0.691391 0.492635
123.48 158.024 139.502 0.528478 0.691391 0.492635
123.445 157.445 140.352 0.528478 0.691391 0.492635
123.48 158.024 139.502 0.95264 0.231619 0.197052
123.252 158.245 140.347 0.95264 0.231619 0.197052
123.445 157.445 140.352 0.95264 0.231619 0.197052
124.329 157.043 139.563 0.743589 0.303086 0.595999
124.064 157.443 139.691 0.743589 0.303086 0.595999
124.104 156.978 139.876 0.743589 0.303086 0.595999
121.257 158.398 139.86 -0.77262 0.634337 0.0259618
121.795 159.054 139.851 -0.77262 0.634337 0.0259618
121.304 158.465 139.632 -0.77262 0.634337 0.0259618
121.257 158.398 139.86 -0.635851 0.529426 0.561606
121.551 158.269 140.315 -0.635851 0.529426 0.561606
121.795 159.054 139.851 -0.635851 0.529426 0.561606
121.551 158.269 140.315 -0.959015 0.282041 -0.0272501
121.773 159.044 140.546 -0.959015 0.282041 -0.0272501
121.795 159.054 139.851 -0.959015 0.282041 -0.0272501
122.963 158.638 139.658 0.63491 0.771123 0.0475218
122.234 159.197 140.328 0.63491 0.771123 0.0475218
122.917 158.622 140.535 0.63491 0.771123 0.0475218
122.316 159.207 139.722 0.662597 0.741992 0.102042
122.234 159.197 140.328 0.662597 0.741992 0.102042
122.963 158.638 139.658 0.662597 0.741992 0.102042
123.252 158.245 140.347 0.769724 0.637026 0.0415111
123.48 158.024 139.502 0.769724 0.637026 0.0415111
122.963 158.638 139.658 0.769724 0.637026 0.0415111
122.917 158.622 140.535 0.759998 0.64786 0.0517754
123.252 158.245 140.347 0.759998 0.64786 0.0517754
122.963 158.638 139.658 0.759998 0.64786 0.0517754
121.795 159.054 139.851 -0.314267 0.94933 0.00305951
121.773 159.044 140.546 -0.314267 0.94933 0.00305951
122.234 159.197 140.328 -0.314267 0.94933 0.00305951
122.104 159.321 139.742 -0.565792 0.772705 0.287761
121.795 159.054 139.851 -0.565792 0.772705 0.287761
122.234 159.197 140.328 -0.565792 0.772705 0.287761
122.234 159.197 140.328 0.475915 0.875958 0.0787546
122.316 159.207 139.722 0.475915 0.875958 0.0787546
122.104 159.321 139.742 0.475915 0.875958 0.0787546
122.451 156.293 140.423 -0.0805619 -0.651752 0.754142
123.23 155.612 139.918 -0.0805619 -0.651752 0.754142
123.075 156.296 140.492 -0.0805619 -0.651752 0.754142
123.23 155.612 139.918 0.494389 -0.490657 0.71752
123.433 156.463 140.359 0.494389 -0.490657 0.71752
123.075 156.296 140.492 0.494389 -0.490657 0.71752
122.051 156.32 140.198 -0.491395 -0.217409 0.843364
122.451 156.293 140.423 -0.491395 -0.217409 0.843364
122.161 157.371 140.533 -0.491395 -0.217409 0.843364
123.075 156.296 140.492 -0.107605 -0.169236 0.979684
123.01 157.096 140.624 -0.107605 -0.169236 0.979684
122.451 156.293 140.423 -0.107605 -0.169236 0.979684
123.01 157.096 140.624 -0.149976 -0.139516 0.978796
122.161 157.371 140.533 -0.149976 -0.139516 0.978796
122.451 156.293 140.423 -0.149976 -0.139516 0.978796
123.433 156.463 140.359 0.529132 -3.67976e-05 0.848539
123.445 157.445 140.352 0.529132 -3.67976e-05 0.848539
123.01 157.096 140.624 0.529132 -3.67976e-05 0.848539
123.075 156.296 140.492 0.392978 -0.117555 0.912003
123.433 156.463 140.359 0.392978 -0.117555 0.912003
123.01 157.096 140.624 0.392978 -0.117555 0.912003
122.161 157.371 140.533 -0.543424 -0.170068 0.822051
122.104 158.394 140.706 -0.543424 -0.170068 0.822051
121.551 158.269 140.315 -0.543424 -0.170068 0.822051
123.01 157.096 140.624 -0.132896 -0.0840182 0.987562
122.915 158.147 140.7 -0.132896 -0.0840182 0.987562
122.161 157.371 140.533 -0.132896 -0.0840182 0.987562
122.915 158.147 140.7 -0.0442203 -0.169592 0.984522
122.104 158.394 140.706 -0.0442203 -0.169592 0.984522
122.161 157.371 140.533 -0.0442203 -0.169592 0.984522
123.445 157.445 140.352 0.689522 0.171339 0.703706
123.252 158.245 140.347 0.689522 0.171339 0.703706
122.915 158.147 140.7 0.689522 0.171339 0.703706
123.01 157.096 140.624 0.536727 -0.0133196 0.843651
123.445 157.445 140.352 0.536727 -0.0133196 0.843651
122.915 158.147 140.7 0.536727 -0.0133196 0.843651
122.104 158.394 140.706 -0.625749 -0.129071 0.769271
122.287 158.966 140.951 -0.625749 -0.129071 0.769271
121.773 159.044 140.546 -0.625749 -0.129071 0.769271
121.551 158.269 140.315 -0.562956 -0.0840482 0.822202
122.104 158.394 140.706 -0.562956 -0.0840482 0.822202
121.773 159.044 140.546 -0.562956 -0.0840482 0.822202
122.917 158.622 140.535 0.582202 0.777195 0.238767
122.234 159.197 140.328 0.582202 0.777195 0.238767
122.287 158.966 140.951 0.582202 0.777195 0.238767
122.917 158.622 140.535 0.625918 0.254658 0.73714
122.287 158.966 140.951 0.625918 0.254658 0.73714
122.915 158.147 140.7 0.625918 0.254658 0.73714
122.915 158.147 140.7 -0.103373 -0.362762 0.926131
122.287 158.966 140.951 -0.103373 -0.362762 0.926131
122.104 158.394 140.706 -0.103373 -0.362762 0.926131
123.252 158.245 140.347 0.668296 0.242628 0.703216
122.917 158.622 140.535 0.668296 0.242628 0.703216
122.915 158.147 140.7 0.668296 0.242628 0.703216
121.773 159.044 140.546 -0.139554 0.924494 0.354734
122.287 158.966 140.951 -0.139554 0.924494 0.354734
122.234 159.197 140.328 -0.139554 0.924494 0.354734
3 0 1 2
3 3 4 5
3 6 7 8
3 9 10 11
3 12 13 14
3 15 16 17
3 18 19 20
3 21 22 23
3 24 25 26
3 27 28 29
3 30 31 32
3 33 34 35
3 36 37 38
3 39 40 41
3 42 43 44
3 45 46 47
3 48 49 50
3 51 52 53
3 54 55 56
3 57 58 59
3 60 61 62
3 63 64 65
3 66 67 68
3 69 70 71
3 72 73 74
3 75 76 77
3 78 79 80
3 81 82 83
3 84 85 86
3 87 88 89
3 90 91 92
3 93 94 95
3 96 97 98
3 99 100 101
3 102 103 104
3 105 106 107
3 108 109 110
3 111 112 113
3 114 115 116
3 117 118 119
3 120 121 122
3 123 124 125
3 126 127 128
3 129 130 131
3 132 133 134
3 135 136 137
3 138 139 140
3 141 142 143
3 144 145 146
3 147 148 149
3 150 151 152
3 153 154 155
3 156 157 158
3 159 160 161
3 162 163 164
3 165 166 167
3 168 169 170
3 171 172 173
3 174 175 176
3 177 178 179
3 180 181 182
3 183 184 185
3 186 187 188
3 189 190 191
3 192 193 194
3 195 196 197
3 198 199 200
3 201 202 203
3 204 205 206
3 207 208 209
3 210 211 212
3 213 214 215
3 216 217 218
3 219 220 221
3 222 223 224
3 225 226 227
3 228 229 230
3 231 232 233
3 234 235 236
3 237 238 239
3 240 241 242
3 243 244 245
3 246 247 248
3 249 250 251
3 252 253 254
3 255 256 257
3 258 259 260
3 261 262 263
3 264 265 266
3 267 268 269
3 270 271 272
3 273 274 275
3 276 277 278
3 279 280 281
3 282 283 284
3 285 286 287
3 288 289 290
3 291 292 293
3 294 295 296
3 297 298 299
3 300 301 302
3 303 304 305
3 306 307 308
3 309 310 311
3 312 313 314
3 315 316 317
3 318 319 320
3 321 322 323
