ply
format ascii 1.0
element vertex 534
property float x
property float y
property float z
property float nx
property float ny
property float nz
element face 178
property list uint uint vertex_indices
end_header
105.7 87.6133 164.493 -0.389322 -0.255811 -0.884867
105.882 86.5085 164.733 -0.389322 -0.255811 -0.884867
105.52 86.6215 164.859 -0.389322 -0.255811 -0.884867
105.237 87.5121 164.821 -0.534898 -0.205311 -0.819592
105.7 87.6133 164.493 -0.534898 -0.205311 -0.819592
105.52 86.6215 164.859 -0.534898 -0.205311 -0.819592
106.628 86.7008 164.642 -0.0452757 -0.277604 -0.959628
106.388 86.3407 164.757 -0.0452757 -0.277604 -0.959628
105.882 86.5085 164.733 -0.0452757 -0.277604 -0.959628
106.628 86.7008 164.642 -0.0890869 -0.121428 -0.988594
105.882 86.5085 164.733 -0.0890869 -0.121428 -0.988594
106.613 87.4966 164.545 -0.0890869 -0.121428 -0.988594
106.613 87.4966 164.545 0.029346 -0.20698 -0.977905
105.882 86.5085 164.733 0.029346 -0.20698 -0.977905
105.7 87.6133 164.493 0.029346 -0.20698 -0.977905
106.628 86.7008 164.642 0.395672 -0.10304 -0.912593
106.613 87.4966 164.545 0.395672 -0.10304 -0.912593
107.225 87.2672 164.837 0.395672 -0.10304 -0.912593
105.237 87.5121 164.821 -0.682979 -0.37492 -0.626877
104.621 88.4993 164.902 -0.682979 -0.37492 -0.626877
104.961 88.5333 164.511 -0.682979 -0.37492 -0.626877
105.237 87.5121 164.821 -0.480814 -0.371212 -0.794367
104.961 88.5333 164.511 -0.480814 -0.371212 -0.794367
105.7 87.6133 164.493 -0.480814 -0.371212 -0.794367
105.7 87.6133 164.493 -0.126328 -0.0828781 -0.98852
104.961 88.5333 164.511 -0.126328 -0.0828781 -0.98852
105.723 88.6652 164.402 -0.126328 -0.0828781 -0.98852
106.613 87.4966 164.545 0.0518886 -0.0394868 -0.997872
105.7 87.6133 164.493 0.0518886 -0.0394868 -0.997872
106.514 88.5362 164.499 0.0518886 -0.0394868 -0.997872
106.514 88.5362 164.499 0.106995 -0.0881448 -0.990345
105.7 87.6133 164.493 0.106995 -0.0881448 -0.990345
105.723 88.6652 164.402 0.106995 -0.0881448 -0.990345
107.24 88.299 164.825 0.424713 -0.0160997 -0.905185
107.225 87.2672 164.837 0.424713 -0.0160997 -0.905185
106.613 87.4966 164.545 0.424713 -0.0160997 -0.905185
106.514 88.5362 164.499 0.409547 -0.0017609 -0.912287
107.24 88.299 164.825 0.409547 -0.0017609 -0.912287
106.613 87.4966 164.545 0.409547 -0.0017609 -0.912287
104.815 89.3975 164.573 -0.748679 -0.0784889 -0.65827
104.961 88.5333 164.511 -0.748679 -0.0784889 -0.65827
104.621 88.4993 164.902 -0.748679 -0.0784889 -0.65827
104.74 89.5979 164.948 -0.960225 0.114933 -0.254478
104.815 89.3975 164.573 -0.960225 0.114933 -0.254478
104.621 88.4993 164.902 -0.960225 0.114933 -0.254478
105.723 88.6652 164.402 -0.14282 0.0113838 -0.989683
104.961 88.5333 164.511 -0.14282 0.0113838 -0.989683
105.486 89.4041 164.445 -0.14282 0.0113838 -0.989683
105.486 89.4041 164.445 -0.188245 0.0394073 -0.981331
104.961 88.5333 164.511 -0.188245 0.0394073 -0.981331
104.815 89.3975 164.573 -0.188245 0.0394073 -0.981331
106.514 88.5362 164.499 0.129987 0.0530544 -0.990095
105.723 88.6652 164.402 0.129987 0.0530544 -0.990095
106.232 89.5239 164.515 0.129987 0.0530544 -0.990095
106.232 89.5239 164.515 0.0801249 0.0830296 -0.993321
105.723 88.6652 164.402 0.0801249 0.0830296 -0.993321
105.486 89.4041 164.445 0.0801249 0.0830296 -0.993321
106.607 89.5212 164.931 0.472948 0.315622 -0.822619
107.24 88.299 164.825 0.472948 0.315622 -0.822619
106.514 88.5362 164.499 0.472948 0.315622 -0.822619
106.232 89.5239 164.515 0.724928 0.217661 -0.653531
106.607 89.5212 164.931 0.724928 0.217661 -0.653531
106.514 88.5362 164.499 0.724928 0.217661 -0.653531
104.74 89.5979 164.948 -0.643128 0.531692 -0.551081
105.493 90.3735 164.818 -0.643128 0.531692 -0.551081
105.484 90.1255 164.589 -0.643128 0.531692 -0.551081
104.74 89.5979 164.948 -0.6507 0.607581 -0.455451
105.484 90.1255 164.589 -0.6507 0.607581 -0.455451
104.815 89.3975 164.573 -0.6507 0.607581 -0.455451
104.815 89.3975 164.573 -0.186349 0.191552 -0.96363
105.484 90.1255 164.589 -0.186349 0.191552 -0.96363
105.486 89.4041 164.445 -0.186349 0.191552 -0.96363
105.833 90.2858 164.699 0.651411 0.482683 -0.585389
106.607 89.5212 164.931 0.651411 0.482683 -0.585389
106.232 89.5239 164.515 0.651411 0.482683 -0.585389
105.833 90.2858 164.699 0.155546 0.308062 -0.938564
106.232 89.5239 164.515 0.155546 0.308062 -0.938564
105.484 90.1255 164.589 0.155546 0.308062 -0.938564
105.484 90.1255 164.589 0.0607429 0.19521 -0.978879
106.232 89.5239 164.515 0.0607429 0.19521 -0.978879
105.486 89.4041 164.445 0.0607429 0.19521 -0.978879
105.484 90.1255 164.589 -0.0812858 0.67872 -0.729885
105.493 90.3735 164.818 -0.0812858 0.67872 -0.729885
105.833 90.2858 164.699 -0.0812858 0.67872 -0.729885
105.99 85.6613 165.33 -0.434975 -0.590496 -0.679787
105.839 85.1104 165.905 -0.434975 -0.590496 -0.679787
105.553 85.6316 165.636 -0.434975 -0.590496 -0.679787
105.99 85.6613 165.33 0.0328747 -0.596587 -0.801875
106.714 85.6447 165.372 0.0328747 -0.596587 -0.801875
106.505 85.1719 165.715 0.0328747 -0.596587 -0.801875
105.839 85.1104 165.905 -0.136529 -0.697264 -0.703693
105.99 85.6613 165.33 -0.136529 -0.697264 -0.703693
106.505 85.1719 165.715 -0.136529 -0.697264 -0.703693
106.505 85.1719 165.715 0.507644 -0.642125 -0.574433
106.714 85.6447 165.372 0.507644 -0.642125 -0.574433
106.981 85.4343 165.843 0.507644 -0.642125 -0.574433
105.882 86.5085 164.733 -0.452107 -0.552095 -0.700565
105.99 85.6613 165.33 -0.452107 -0.552095 -0.700565
105.553 85.6316 165.636 -0.452107 -0.552095 -0.700565
105.882 86.5085 164.733 -0.424023 -0.567777 -0.705573
105.553 85.6316 165.636 -0.424023 -0.567777 -0.705573
105.52 86.6215 164.859 -0.424023 -0.567777 -0.705573
105.52 86.6215 164.859 -0.92908 -0.2472 -0.275139
105.553 85.6316 165.636 -0.92908 -0.2472 -0.275139
105.32 86.4807 165.66 -0.92908 -0.2472 -0.275139
106.388 86.3407 164.757 -0.154374 -0.582646 -0.79793
105.99 85.6613 165.33 -0.154374 -0.582646 -0.79793
105.882 86.5085 164.733 -0.154374 -0.582646 -0.79793
106.388 86.3407 164.757 0.315861 -0.712755 -0.626269
106.726 86.3681 164.897 0.315861 -0.712755 -0.626269
105.99 85.6613 165.33 0.315861 -0.712755 -0.626269
106.726 86.3681 164.897 0.0358736 -0.549394 -0.834793
106.714 85.6447 165.372 0.0358736 -0.549394 -0.834793
105.99 85.6613 165.33 0.0358736 -0.549394 -0.834793
107.348 86.3627 165.644 0.706967 -0.40378 -0.580655
106.981 85.4343 165.843 0.706967 -0.40378 -0.580655
106.714 85.6447 165.372 0.706967 -0.40378 -0.580655
106.726 86.3681 164.897 0.703766 -0.397992 -0.588486
107.348 86.3627 165.644 0.703766 -0.397992 -0.588486
106.714 85.6447 165.372 0.703766 -0.397992 -0.588486
105.52 86.6215 164.859 -0.911265 -0.301724 -0.280282
105.32 86.4807 165.66 -0.911265 -0.301724 -0.280282
105.237 87.5121 164.821 -0.911265 -0.301724 -0.280282
105.32 86.4807 165.66 -0.924005 -0.283493 -0.256606
105.027 87.4255 165.674 -0.924005 -0.283493 -0.256606
105.237 87.5121 164.821 -0.924005 -0.283493 -0.256606
106.388 86.3407 164.757 0.364883 -0.496071 -0.787892
106.628 86.7008 164.642 0.364883 -0.496071 -0.787892
106.726 86.3681 164.897 0.364883 -0.496071 -0.787892
106.726 86.3681 164.897 0.589091 -0.374855 -0.71586
106.628 86.7008 164.642 0.589091 -0.374855 -0.71586
107.225 87.2672 164.837 0.589091 -0.374855 -0.71586
106.726 86.3681 164.897 0.694496 -0.424448 -0.580964
107.225 87.2672 164.837 0.694496 -0.424448 -0.580964
107.348 86.3627 165.644 0.694496 -0.424448 -0.580964
107.348 86.3627 165.644 0.911762 -0.197779 -0.359963
107.225 87.2672 164.837 0.911762 -0.197779 -0.359963
107.592 87.4625 165.659 0.911762 -0.197779 -0.359963
104.621 88.4993 164.902 -0.945877 -0.254528 -0.201324
104.552 88.0528 165.789 -0.945877 -0.254528 -0.201324
104.423 88.6004 165.705 -0.945877 -0.254528 -0.201324
105.027 87.4255 165.674 -0.82956 -0.496802 -0.254986
104.621 88.4993 164.902 -0.82956 -0.496802 -0.254986
105.237 87.5121 164.821 -0.82956 -0.496802 -0.254986
104.552 88.0528 165.789 -0.781612 -0.530857 -0.327528
104.621 88.4993 164.902 -0.781612 -0.530857 -0.327528
105.027 87.4255 165.674 -0.781612 -0.530857 -0.327528
107.225 87.2672 164.837 0.914587 -0.017645 -0.404004
107.24 88.299 164.825 0.914587 -0.017645 -0.404004
107.592 87.4625 165.659 0.914587 -0.017645 -0.404004
107.592 87.4625 165.659 0.957978 0.183645 -0.220347
107.24 88.299 164.825 0.957978 0.183645 -0.220347
107.395 88.5091 165.674 0.957978 0.183645 -0.220347
104.621 88.4993 164.902 -0.960992 0.114893 -0.251583
104.423 88.6004 165.705 -0.960992 0.114893 -0.251583
104.74 89.5979 164.948 -0.960992 0.114893 -0.251583
104.423 88.6004 165.705 -0.96823 0.166476 -0.186593
104.522 89.3583 165.868 -0.96823 0.166476 -0.186593
104.74 89.5979 164.948 -0.96823 0.166476 -0.186593
107.24 88.299 164.825 0.845826 0.460964 -0.268498
106.607 89.5212 164.931 0.845826 0.460964 -0.268498
107.395 88.5091 165.674 0.845826 0.460964 -0.268498
107.395 88.5091 165.674 0.83194 0.532256 -0.156781
106.607 89.5212 164.931 0.83194 0.532256 -0.156781
106.893 89.3238 165.774 0.83194 0.532256 -0.156781
104.74 89.5979 164.948 -0.807829 0.588148 -0.0386432
104.522 89.3583 165.868 -0.807829 0.588148 -0.0386432
104.803 89.7361 165.739 -0.807829 0.588148 -0.0386432
105.493 90.3735 164.818 -0.282166 0.900622 0.330548
105.611 90.1753 165.46 -0.282166 0.900622 0.330548
105.785 90.3544 165.12 -0.282166 0.900622 0.330548
105.493 90.3735 164.818 -0.648544 0.685037 0.331836
104.74 89.5979 164.948 -0.648544 0.685037 0.331836
105.611 90.1753 165.46 -0.648544 0.685037 0.331836
104.74 89.5979 164.948 -0.503415 0.857039 -0.109807
104.803 89.7361 165.739 -0.503415 0.857039 -0.109807
105.611 90.1753 165.46 -0.503415 0.857039 -0.109807
105.785 90.3544 165.12 0.707343 0.705964 -0.0357718
106.607 89.5212 164.931 0.707343 0.705964 -0.0357718
105.833 90.2858 164.699 0.707343 0.705964 -0.0357718
105.785 90.3544 165.12 0.638352 0.496011 0.588625
105.611 90.1753 165.46 0.638352 0.496011 0.588625
106.607 89.5212 164.931 0.638352 0.496011 0.588625
105.611 90.1753 165.46 0.513604 0.853465 -0.0883692
106.446 89.7102 165.82 0.513604 0.853465 -0.0883692
106.607 89.5212 164.931 0.513604 0.853465 -0.0883692
106.446 89.7102 165.82 0.651383 0.75753 -0.0430015
106.893 89.3238 165.774 0.651383 0.75753 -0.0430015
106.607 89.5212 164.931 0.651383 0.75753 -0.0430015
105.493 90.3735 164.818 0.20251 0.96989 -0.135288
105.785 90.3544 165.12 0.20251 0.96989 -0.135288
105.833 90.2858 164.699 0.20251 0.96989 -0.135288
105.833 84.5534 166.561 -0.520595 -0.751877 -0.404551
105.706 84.4581 166.901 -0.520595 -0.751877 -0.404551
105.582 84.73 166.556 -0.520595 -0.751877 -0.404551
105.706 84.4581 166.901 0.137187 -0.965899 -0.219589
105.833 84.5534 166.561 0.137187 -0.965899 -0.219589
106.182 84.5108 166.967 0.137187 -0.965899 -0.219589
105.839 85.1104 165.905 -0.461624 -0.673921 -0.576831
105.833 84.5534 166.561 -0.461624 -0.673921 -0.576831
105.582 84.73 166.556 -0.461624 -0.673921 -0.576831
105.839 85.1104 165.905 -0.556936 -0.601837 -0.572377
105.582 84.73 166.556 -0.556936 -0.601837 -0.572377
105.553 85.6316 165.636 -0.556936 -0.601837 -0.572377
105.553 85.6316 165.636 -0.955909 -0.224142 -0.189731
105.582 84.73 166.556 -0.955909 -0.224142 -0.189731
105.389 85.487 166.635 -0.955909 -0.224142 -0.189731
105.833 84.5534 166.561 0.286925 -0.895136 -0.341183
106.559 84.8073 166.506 0.286925 -0.895136 -0.341183
106.182 84.5108 166.967 0.286925 -0.895136 -0.341183
105.833 84.5534 166.561 0.212701 -0.745915 -0.631165
105.839 85.1104 165.905 0.212701 -0.745915 -0.631165
106.559 84.8073 166.506 0.212701 -0.745915 -0.631165
105.839 85.1104 165.905 -0.0349277 -0.908501 -0.41642
106.505 85.1719 165.715 -0.0349277 -0.908501 -0.41642
106.559 84.8073 166.506 -0.0349277 -0.908501 -0.41642
106.559 84.8073 166.506 0.522435 -0.760023 -0.386558
106.505 85.1719 165.715 0.522435 -0.760023 -0.386558
106.981 85.4343 165.843 0.522435 -0.760023 -0.386558
107.234 85.514 166.644 0.72921 -0.664168 -0.164722
106.559 84.8073 166.506 0.72921 -0.664168 -0.164722
106.981 85.4343 165.843 0.72921 -0.664168 -0.164722
105.553 85.6316 165.636 -0.947624 -0.254646 -0.192781
105.389 85.487 166.635 -0.947624 -0.254646 -0.192781
105.32 86.4807 165.66 -0.947624 -0.254646 -0.192781
105.389 85.487 166.635 -0.950846 -0.247853 -0.185634
105.137 86.4319 166.665 -0.950846 -0.247853 -0.185634
105.32 86.4807 165.66 -0.950846 -0.247853 -0.185634
106.981 85.4343 165.843 0.884113 -0.400973 -0.239928
107.348 86.3627 165.644 0.884113 -0.400973 -0.239928
107.234 85.514 166.644 0.884113 -0.400973 -0.239928
107.234 85.514 166.644 0.933645 -0.318356 -0.164185
107.348 86.3627 165.644 0.933645 -0.318356 -0.164185
107.57 86.4924 166.654 0.933645 -0.318356 -0.164185
104.632 87.1779 166.66 -0.747468 -0.508935 -0.426939
105.027 87.4255 165.674 -0.747468 -0.508935 -0.426939
105.137 86.4319 166.665 -0.747468 -0.508935 -0.426939
105.027 87.4255 165.674 -0.939112 -0.289237 -0.185501
105.32 86.4807 165.66 -0.939112 -0.289237 -0.185501
105.137 86.4319 166.665 -0.939112 -0.289237 -0.185501
107.348 86.3627 165.644 0.960069 -0.210932 -0.183782
107.592 87.4625 165.659 0.960069 -0.210932 -0.183782
107.57 86.4924 166.654 0.960069 -0.210932 -0.183782
107.57 86.4924 166.654 0.999407 0.010352 0.0328352
107.592 87.4625 165.659 0.999407 0.010352 0.0328352
107.559 87.5342 166.653 0.999407 0.010352 0.0328352
104.552 88.0528 165.789 -0.842692 -0.416397 -0.341298
104.632 87.1779 166.66 -0.842692 -0.416397 -0.341298
104.39 87.6668 166.662 -0.842692 -0.416397 -0.341298
104.552 88.0528 165.789 -0.921195 -0.262062 -0.287617
104.39 87.6668 166.662 -0.921195 -0.262062 -0.287617
104.423 88.6004 165.705 -0.921195 -0.262062 -0.287617
104.423 88.6004 165.705 -0.984448 0.14159 0.103993
104.39 87.6668 166.662 -0.984448 0.14159 0.103993
104.512 88.4422 166.769 -0.984448 0.14159 0.103993
105.027 87.4255 165.674 -0.75726 -0.494081 -0.427131
104.632 87.1779 166.66 -0.75726 -0.494081 -0.427131
104.552 88.0528 165.789 -0.75726 -0.494081 -0.427131
107.592 87.4625 165.659 0.982585 0.184766 0.0196864
107.395 88.5091 165.674 0.982585 0.184766 0.0196864
107.559 87.5342 166.653 0.982585 0.184766 0.0196864
107.559 87.5342 166.653 0.931209 0.323981 0.16699
107.395 88.5091 165.674 0.931209 0.323981 0.16699
107.188 88.6027 166.65 0.931209 0.323981 0.16699
104.749 89.2898 166.75 -0.934973 0.241477 0.259834
104.725 89.604 166.372 -0.934973 0.241477 0.259834
104.522 89.3583 165.868 -0.934973 0.241477 0.259834
104.749 89.2898 166.75 -0.928551 0.264939 0.259999
104.522 89.3583 165.868 -0.928551 0.264939 0.259999
104.512 88.4422 166.769 -0.928551 0.264939 0.259999
104.512 88.4422 166.769 -0.989225 0.107551 0.0993342
104.522 89.3583 165.868 -0.989225 0.107551 0.0993342
104.423 88.6004 165.705 -0.989225 0.107551 0.0993342
104.749 89.2898 166.75 -0.641289 0.569741 0.513949
105.028 89.5659 166.792 -0.641289 0.569741 0.513949
104.725 89.604 166.372 -0.641289 0.569741 0.513949
106.717 89.4243 166.395 0.515608 0.747233 0.419275
106.3 89.6046 166.587 0.515608 0.747233 0.419275
106.523 89.2562 166.933 0.515608 0.747233 0.419275
106.717 89.4243 166.395 0.719703 0.545372 0.429647
106.523 89.2562 166.933 0.719703 0.545372 0.429647
107.188 88.6027 166.65 0.719703 0.545372 0.429647
106.717 89.4243 166.395 0.83668 0.526297 0.151587
107.188 88.6027 166.65 0.83668 0.526297 0.151587
106.893 89.3238 165.774 0.83668 0.526297 0.151587
106.893 89.3238 165.774 0.850845 0.508521 0.13217
107.188 88.6027 166.65 0.850845 0.508521 0.13217
107.395 88.5091 165.674 0.850845 0.508521 0.13217
104.522 89.3583 165.868 -0.797254 0.602999 0.0278922
104.725 89.604 166.372 -0.797254 0.602999 0.0278922
104.803 89.7361 165.739 -0.797254 0.602999 0.0278922
104.725 89.604 166.372 -0.323138 0.892744 0.31399
105.028 89.5659 166.792 -0.323138 0.892744 0.31399
105.529 89.8792 166.417 -0.323138 0.892744 0.31399
104.725 89.604 166.372 -0.327664 0.932118 0.154248
105.529 89.8792 166.417 -0.327664 0.932118 0.154248
104.803 89.7361 165.739 -0.327664 0.932118 0.154248
104.803 89.7361 165.739 -0.398122 0.885501 0.239556
105.529 89.8792 166.417 -0.398122 0.885501 0.239556
105.611 90.1753 165.46 -0.398122 0.885501 0.239556
106.3 89.6046 166.587 0.466947 0.859613 0.207425
106.717 89.4243 166.395 0.466947 0.859613 0.207425
106.446 89.7102 165.82 0.466947 0.859613 0.207425
106.3 89.6046 166.587 0.293319 0.937928 0.185079
106.446 89.7102 165.82 0.293319 0.937928 0.185079
105.529 89.8792 166.417 0.293319 0.937928 0.185079
105.529 89.8792 166.417 0.360342 0.881954 0.303827
106.446 89.7102 165.82 0.360342 0.881954 0.303827
105.611 90.1753 165.46 0.360342 0.881954 0.303827
106.893 89.3238 165.774 0.656861 0.751265 0.0643046
106.446 89.7102 165.82 0.656861 0.751265 0.0643046
106.717 89.4243 166.395 0.656861 0.751265 0.0643046
105.706 84.4581 166.901 -0.505347 -0.803187 0.315458
105.775 84.7094 167.651 -0.505347 -0.803187 0.315458
105.562 84.7141 167.321 -0.505347 -0.803187 0.315458
105.582 84.73 166.556 -0.892597 -0.449627 -0.0332531
105.706 84.4581 166.901 -0.892597 -0.449627 -0.0332531
105.562 84.7141 167.321 -0.892597 -0.449627 -0.0332531
105.775 84.7094 167.651 0.0620798 -0.948101 0.311849
105.706 84.4581 166.901 0.0620798 -0.948101 0.311849
106.182 84.5108 166.967 0.0620798 -0.948101 0.311849
106.077 84.6454 167.624 -0.18988 -0.967378 0.167707
105.775 84.7094 167.651 -0.18988 -0.967378 0.167707
106.182 84.5108 166.967 -0.18988 -0.967378 0.167707
105.582 84.73 166.556 -0.969216 -0.244247 -0.0310297
105.562 84.7141 167.321 -0.969216 -0.244247 -0.0310297
105.389 85.487 166.635 -0.969216 -0.244247 -0.0310297
105.562 84.7141 167.321 -0.981996 -0.184797 0.0391566
105.412 85.5921 167.707 -0.981996 -0.184797 0.0391566
105.389 85.487 166.635 -0.981996 -0.184797 0.0391566
106.182 84.5108 166.967 0.471986 -0.845724 0.248958
106.666 84.9165 167.427 0.471986 -0.845724 0.248958
106.077 84.6454 167.624 0.471986 -0.845724 0.248958
106.559 84.8073 166.506 0.631762 -0.774938 0.0186767
106.666 84.9165 167.427 0.631762 -0.774938 0.0186767
106.182 84.5108 166.967 0.631762 -0.774938 0.0186767
106.666 84.9165 167.427 0.723425 -0.6904 -0.0019538
106.559 84.8073 166.506 0.723425 -0.6904 -0.0019538
107.234 85.514 166.644 0.723425 -0.6904 -0.0019538
107.134 85.6953 167.591 0.823588 -0.534549 0.189633
106.666 84.9165 167.427 0.823588 -0.534549 0.189633
107.234 85.514 166.644 0.823588 -0.534549 0.189633
104.781 86.4364 167.623 -0.755955 -0.592658 -0.278009
105.137 86.4319 166.665 -0.755955 -0.592658 -0.278009
105.412 85.5921 167.707 -0.755955 -0.592658 -0.278009
105.137 86.4319 166.665 -0.964789 -0.25896 0.0460638
105.389 85.487 166.635 -0.964789 -0.25896 0.0460638
105.412 85.5921 167.707 -0.964789 -0.25896 0.0460638
107.234 85.514 166.644 0.933185 -0.321565 0.160504
107.57 86.4924 166.654 0.933185 -0.321565 0.160504
107.134 85.6953 167.591 0.933185 -0.321565 0.160504
107.134 85.6953 167.591 0.940936 -0.170702 0.292405
107.57 86.4924 166.654 0.940936 -0.170702 0.292405
107.311 86.7002 167.608 0.940936 -0.170702 0.292405
104.632 87.1779 166.66 -0.691209 -0.620374 -0.370628
104.781 86.4364 167.623 -0.691209 -0.620374 -0.370628
104.486 86.8432 167.492 -0.691209 -0.620374 -0.370628
104.632 87.1779 166.66 -0.850037 -0.420084 -0.317752
104.486 86.8432 167.492 -0.850037 -0.420084 -0.317752
104.39 87.6668 166.662 -0.850037 -0.420084 -0.317752
104.39 87.6668 166.662 -0.994172 -0.00844827 0.107471
104.486 86.8432 167.492 -0.994172 -0.00844827 0.107471
104.484 87.4497 167.516 -0.994172 -0.00844827 0.107471
105.137 86.4319 166.665 -0.79121 -0.537673 -0.291366
104.781 86.4364 167.623 -0.79121 -0.537673 -0.291366
104.632 87.1779 166.66 -0.79121 -0.537673 -0.291366
107.57 86.4924 166.654 0.965642 0.0102727 0.259673
107.559 87.5342 166.653 0.965642 0.0102727 0.259673
107.311 86.7002 167.608 0.965642 0.0102727 0.259673
107.311 86.7002 167.608 0.926552 0.129128 0.353309
107.559 87.5342 166.653 0.926552 0.129128 0.353309
107.193 87.7125 167.548 0.926552 0.129128 0.353309
104.839 87.7162 167.789 -0.729627 0.424675 0.535999
104.512 88.4422 166.769 -0.729627 0.424675 0.535999
104.484 87.4497 167.516 -0.729627 0.424675 0.535999
104.484 87.4497 167.516 -0.980452 0.135614 0.14256
104.512 88.4422 166.769 -0.980452 0.135614 0.14256
104.39 87.6668 166.662 -0.980452 0.135614 0.14256
104.839 87.7162 167.789 -0.695401 0.461237 0.55107
105.197 88.6046 167.496 -0.695401 0.461237 0.55107
104.512 88.4422 166.769 -0.695401 0.461237 0.55107
107.559 87.5342 166.653 0.899201 0.313296 0.305422
107.188 88.6027 166.65 0.899201 0.313296 0.305422
107.193 87.7125 167.548 0.899201 0.313296 0.305422
107.193 87.7125 167.548 0.812026 0.416822 0.408501
107.188 88.6027 166.65 0.812026 0.416822 0.408501
106.803 88.541 167.477 0.812026 0.416822 0.408501
105.028 89.5659 166.792 -0.221605 0.736127 0.639538
105.609 89.192 167.424 -0.221605 0.736127 0.639538
105.727 89.5615 167.039 -0.221605 0.736127 0.639538
104.749 89.2898 166.75 -0.528634 0.422321 0.736337
105.609 89.192 167.424 -0.528634 0.422321 0.736337
105.028 89.5659 166.792 -0.528634 0.422321 0.736337
104.749 89.2898 166.75 -0.517185 0.452986 0.72617
105.197 88.6046 167.496 -0.517185 0.452986 0.72617
105.609 89.192 167.424 -0.517185 0.452986 0.72617
104.749 89.2898 166.75 -0.734662 0.219278 0.642019
104.512 88.4422 166.769 -0.734662 0.219278 0.642019
105.197 88.6046 167.496 -0.734662 0.219278 0.642019
105.727 89.5615 167.039 0.36392 0.763481 0.533535
106.523 89.2562 166.933 0.36392 0.763481 0.533535
106.3 89.6046 166.587 0.36392 0.763481 0.533535
105.727 89.5615 167.039 0.334167 0.626395 0.704245
105.609 89.192 167.424 0.334167 0.626395 0.704245
106.523 89.2562 166.933 0.334167 0.626395 0.704245
105.609 89.192 167.424 0.249218 0.785268 0.566785
106.414 88.7862 167.632 0.249218 0.785268 0.566785
106.523 89.2562 166.933 0.249218 0.785268 0.566785
106.803 88.541 167.477 0.72593 0.573162 0.380145
107.188 88.6027 166.65 0.72593 0.573162 0.380145
106.523 89.2562 166.933 0.72593 0.573162 0.380145
106.414 88.7862 167.632 0.594678 0.621029 0.51057
106.803 88.541 167.477 0.594678 0.621029 0.51057
106.523 89.2562 166.933 0.594678 0.621029 0.51057
105.028 89.5659 166.792 -0.168003 0.855332 0.490084
105.727 89.5615 167.039 -0.168003 0.855332 0.490084
105.529 89.8792 166.417 -0.168003 0.855332 0.490084
106.3 89.6046 166.587 0.234371 0.894 0.381883
105.529 89.8792 166.417 0.234371 0.894 0.381883
105.727 89.5615 167.039 0.234371 0.894 0.381883
105.775 84.7094 167.651 -0.763394 -0.348742 0.543699
105.839 85.5383 168.273 -0.763394 -0.348742 0.543699
105.412 85.5921 167.707 -0.763394 -0.348742 0.543699
105.562 84.7141 167.321 -0.786909 -0.355906 0.504089
105.775 84.7094 167.651 -0.786909 -0.355906 0.504089
105.412 85.5921 167.707 -0.786909 -0.355906 0.504089
106.077 84.6454 167.624 0.493008 -0.665697 0.560171
106.666 84.9165 167.427 0.493008 -0.665697 0.560171
106.456 85.3078 168.077 0.493008 -0.665697 0.560171
106.077 84.6454 167.624 -0.0401406 -0.548872 0.834942
106.456 85.3078 168.077 -0.0401406 -0.548872 0.834942
105.775 84.7094 167.651 -0.0401406 -0.548872 0.834942
105.775 84.7094 167.651 0.0286526 -0.601198 0.798586
106.456 85.3078 168.077 0.0286526 -0.601198 0.798586
105.839 85.5383 168.273 0.0286526 -0.601198 0.798586
106.666 84.9165 167.427 0.673855 -0.516148 0.528688
107.134 85.6953 167.591 0.673855 -0.516148 0.528688
106.456 85.3078 168.077 0.673855 -0.516148 0.528688
104.781 86.4364 167.623 -0.811659 -0.481853 0.330191
104.802 86.776 168.169 -0.811659 -0.481853 0.330191
104.486 86.8432 167.492 -0.811659 -0.481853 0.330191
104.781 86.4364 167.623 -0.658601 -0.627749 0.414941
105.348 86.3823 168.441 -0.658601 -0.627749 0.414941
104.802 86.776 168.169 -0.658601 -0.627749 0.414941
105.412 85.5921 167.707 -0.728316 -0.496842 0.471915
105.348 86.3823 168.441 -0.728316 -0.496842 0.471915
104.781 86.4364 167.623 -0.728316 -0.496842 0.471915
105.412 85.5921 167.707 -0.484652 -0.615872 0.621139
105.713 86.154 168.5 -0.484652 -0.615872 0.621139
105.348 86.3823 168.441 -0.484652 -0.615872 0.621139
105.412 85.5921 167.707 -0.761703 -0.355343 0.541793
105.839 85.5383 168.273 -0.761703 -0.355343 0.541793
105.713 86.154 168.5 -0.761703 -0.355343 0.541793
105.713 86.154 168.5 0.259887 -0.315353 0.912695
106.476 86.3726 168.358 0.259887 -0.315353 0.912695
105.78 86.5623 168.622 0.259887 -0.315353 0.912695
105.713 86.154 168.5 0.253977 -0.287796 0.923401
105.839 85.5383 168.273 0.253977 -0.287796 0.923401
106.476 86.3726 168.358 0.253977 -0.287796 0.923401
105.839 85.5383 168.273 0.205491 -0.253042 0.94538
106.456 85.3078 168.077 0.205491 -0.253042 0.94538
106.476 86.3726 168.358 0.205491 -0.253042 0.94538
107.134 85.6953 167.591 0.690738 -0.133439 0.710687
107.311 86.7002 167.608 0.690738 -0.133439 0.710687
106.476 86.3726 168.358 0.690738 -0.133439 0.710687
106.456 85.3078 168.077 0.645096 -0.206162 0.735764
107.134 85.6953 167.591 0.645096 -0.206162 0.735764
106.476 86.3726 168.358 0.645096 -0.206162 0.735764
104.802 86.776 168.169 -0.709424 0.288394 0.643076
104.839 87.7162 167.789 -0.709424 0.288394 0.643076
104.484 87.4497 167.516 -0.709424 0.288394 0.643076
104.486 86.8432 167.492 -0.907106 -0.020855 0.420385
104.802 86.776 168.169 -0.907106 -0.020855 0.420385
104.484 87.4497 167.516 -0.907106 -0.020855 0.420385
105.464 86.7283 168.587 -0.534749 -0.170979 0.827532
104.802 86.776 168.169 -0.534749 -0.170979 0.827532
105.348 86.3823 168.441 -0.534749 -0.170979 0.827532
105.464 86.7283 168.587 -0.461488 0.423749 0.779401
105.714 87.3542 168.395 -0.461488 0.423749 0.779401
104.802 86.776 168.169 -0.461488 0.423749 0.779401
105.714 87.3542 168.395 -0.429686 0.353491 0.830912
104.839 87.7162 167.789 -0.429686 0.353491 0.830912
104.802 86.776 168.169 -0.429686 0.353491 0.830912
105.78 86.5623 168.622 0.0415194 0.277994 0.959685
105.714 87.3542 168.395 0.0415194 0.277994 0.959685
105.464 86.7283 168.587 0.0415194 0.277994 0.959685
105.78 86.5623 168.622 0.406339 0.282534 0.868944
106.476 86.3726 168.358 0.406339 0.282534 0.868944
105.714 87.3542 168.395 0.406339 0.282534 0.868944
106.476 86.3726 168.358 0.213094 0.128773 0.968508
106.7 87.3602 168.177 0.213094 0.128773 0.968508
105.714 87.3542 168.395 0.213094 0.128773 0.968508
107.311 86.7002 167.608 0.745878 0.125859 0.654084
107.193 87.7125 167.548 0.745878 0.125859 0.654084
106.7 87.3602 168.177 0.745878 0.125859 0.654084
106.476 86.3726 168.358 0.671868 -0.0171737 0.740472
107.311 86.7002 167.608 0.671868 -0.0171737 0.740472
106.7 87.3602 168.177 0.671868 -0.0171737 0.740472
105.197 88.6046 167.496 -0.533782 0.450322 0.715742
104.839 87.7162 167.789 -0.533782 0.450322 0.715742
105.684 88.4121 167.981 -0.533782 0.450322 0.715742
105.684 88.4121 167.981 -0.449432 0.314496 0.836124
104.839 87.7162 167.789 -0.449432 0.314496 0.836124
105.714 87.3542 168.395 -0.449432 0.314496 0.836124
106.7 87.3602 168.177 0.203175 0.310582 0.928579
106.534 88.2256 167.924 0.203175 0.310582 0.928579
105.714 87.3542 168.395 0.203175 0.310582 0.928579
106.534 88.2256 167.924 0.141763 0.364027 0.920537
105.684 88.4121 167.981 0.141763 0.364027 0.920537
105.714 87.3542 168.395 0.141763 0.364027 0.920537
107.193 87.7125 167.548 0.660079 0.366587 0.655675
106.803 88.541 167.477 0.660079 0.366587 0.655675
106.534 88.2256 167.924 0.660079 0.366587 0.655675
106.7 87.3602 168.177 0.647389 0.325863 0.688985
107.193 87.7125 167.548 0.647389 0.325863 0.688985
106.534 88.2256 167.924 0.647389 0.325863 0.688985
105.197 88.6046 167.496 -0.528434 0.459373 0.713956
105.684 88.4121 167.981 -0.528434 0.459373 0.713956
105.609 89.192 167.424 -0.528434 0.459373 0.713956
106.414 88.7862 167.632 0.0860693 0.584885 0.806537
105.609 89.192 167.424 0.0860693 0.584885 0.806537
105.684 88.4121 167.981 0.0860693 0.584885 0.806537
106.534 88.2256 167.924 0.16385 0.483184 0.860051
106.414 88.7862 167.632 0.16385 0.483184 0.860051
105.684 88.4121 167.981 0.16385 0.483184 0.860051
106.803 88.541 167.477 0.566855 0.472926 0.674549
106.414 88.7862 167.632 0.566855 0.472926 0.674549
106.534 88.2256 167.924 0.566855 0.472926 0.674549
105.713 86.154 168.5 -0.292132 -0.229691 0.928386
105.78 86.5623 168.622 -0.292132 -0.229691 0.928386
105.348 86.3823 168.441 -0.292132 -0.229691 0.928386
105.78 86.5623 168.622 -0.257882 -0.30141 0.917959
105.464 86.7283 168.587 -0.257882 -0.30141 0.917959
105.348 86.3823 168.441 -0.257882 -0.30141 0.917959
3 0 1 2
3 3 4 5
3 6 7 8
3 9 10 11
3 12 13 14
3 15 16 17
3 18 19 20
3 21 22 23
3 24 25 26
3 27 28 29
3 30 31 32
3 33 34 35
3 36 37 38
3 39 40 41
3 42 43 44
3 45 46 47
3 48 49 50
3 51 52 53
3 54 55 56
3 57 58 59
3 60 61 62
3 63 64 65
3 66 67 68
3 69 70 71
3 72 73 74
3 75 76 77
3 78 79 80
3 81 82 83
3 84 85 86
3 87 88 89
3 90 91 92
3 93 94 95
3 96 97 98
3 99 100 101
3 102 103 104
3 105 106 107
3 108 109 110
3 111 112 113
3 114 115 116
3 117 118 119
3 120 121 122
3 123 124 125
3 126 127 128
3 129 130 131
3 132 133 134
3 135 136 137
3 138 139 140
3 141 142 143
3 144 145 146
3 147 148 149
3 150 151 152
3 153 154 155
3 156 157 158
3 159 160 161
3 162 163 164
3 165 166 167
3 168 169 170
3 171 172 173
3 174 175 176
3 177 178 179
3 180 181 182
3 183 184 185
3 186 187 188
3 189 190 191
3 192 193 194
3 195 196 197
3 198 199 200
3 201 202 203
3 204 205 206
3 207 208 209
3 210 211 212
3 213 214 215
3 216 217 218
3 219 220 221
3 222 223 224
3 225 226 227
3 228 229 230
3 231 232 233
3 234 235 236
3 237 238 239
3 240 241 242
3 243 244 245
3 246 247 248
3 249 250 251
3 252 253 254
3 255 256 257
3 258 259 260
3 261 262 263
3 264 265 266
3 267 268 269
3 270 271 272
3 273 274 275
3 276 277 278
3 279 280 281
3 282 283 284
3 285 286 287
3 288 289 290
3 291 292 293
3 294 295 296
3 297 298 299
3 300 301 302
3 303 304 305
3 306 307 308
3 309 310 311
3 312 313 314
3 315 316 317
3 318 319 320
3 321 322 323
3 324 325 326
3 327 328 329
3 330 331 332
3 333 334 335
3 336 337 338
3 339 340 341
3 342 343 344
3 345 346 347
3 348 349 350
3 351 352 353
3 354 355 356
3 357 358 359
3 360 361 362
3 363 364 365
3 366 367 368
3 369 370 371
3 372 373 374
3 375 376 377
3 378 379 380
3 381 382 383
3 384 385 386
3 387 388 389
3 390 391 392
3 393 394 395
3 396 397 398
3 399 400 401
3 402 403 404
3 405 406 407
3 408 409 410
3 411 412 413
3 414 415 416
3 417 418 419
3 420 421 422
3 423 424 425
3 426 427 428
3 429 430 431
3 432 433 434
3 435 436 437
3 438 439 440
3 441 442 443
3 444 445 446
3 447 448 449
3 450 451 452
3 453 454 455
3 456 457 458
3 459 460 461
3 462 463 464
3 465 466 467
3 468 469 470
3 471 472 473
3 474 475 476
3 477 478 479
3 480 481 482
3 483 484 485
3 486 487 488
3 489 490 491
3 492 493 494
3 495 496 497
3 498 499 500
3 501 502 503
3 504 505 506
3 507 508 509
3 510 511 512
3 513 514 515
3 516 517 518
3 519 520 521
3 522 523 524
3 525 526 527
3 528 529 530
3 531 532 533
