ply
format ascii 1.0
element vertex 276
property float x
property float y
property float z
property float nx
property float ny
property float nz
element face 92
property list uint uint vertex_indices
end_header
74.9299 92.4509 180.25 -0.576125 -0.118541 -0.80872
74.9553 91.8043 180.326 -0.576125 -0.118541 -0.80872
74.6686 91.8599 180.522 -0.576125 -0.118541 -0.80872
74.7711 92.5713 180.504 -0.820582 0.10335 -0.562107
74.9299 92.4509 180.25 -0.820582 0.10335 -0.562107
74.6686 91.8599 180.522 -0.820582 0.10335 -0.562107
75.6101 92.4226 180.328 0.34382 -0.361482 -0.866671
75.1893 91.6955 180.465 0.34382 -0.361482 -0.866671
74.9553 91.8043 180.326 0.34382 -0.361482 -0.866671
75.6101 92.4226 180.328 0.109495 -0.112907 -0.987554
74.9553 91.8043 180.326 0.109495 -0.112907 -0.987554
74.9299 92.4509 180.25 0.109495 -0.112907 -0.987554
74.9299 92.4509 180.25 -0.436481 0.676263 -0.593424
74.7711 92.5713 180.504 -0.436481 0.676263 -0.593424
75.1397 92.7765 180.466 -0.436481 0.676263 -0.593424
75.6101 92.4226 180.328 0.120144 0.495342 -0.86035
74.9299 92.4509 180.25 0.120144 0.495342 -0.86035
75.1397 92.7765 180.466 0.120144 0.495342 -0.86035
75.9064 92.7496 180.531 0.0908366 0.464424 -0.880942
75.6101 92.4226 180.328 0.0908366 0.464424 -0.880942
75.1397 92.7765 180.466 0.0908366 0.464424 -0.880942
76.293 92.4744 180.592 0.329244 0.264329 -0.906493
75.6101 92.4226 180.328 0.329244 0.264329 -0.906493
75.9064 92.7496 180.531 0.329244 0.264329 -0.906493
74.9455 91.0175 181.003 -0.232032 -0.761796 -0.604837
74.9175 90.6059 181.532 -0.232032 -0.761796 -0.604837
74.1912 90.9076 181.431 -0.232032 -0.761796 -0.604837
74.9455 91.0175 181.003 -0.00348109 -0.649653 -0.760223
76.0716 90.8737 181.121 -0.00348109 -0.649653 -0.760223
75.7577 90.6096 181.348 -0.00348109 -0.649653 -0.760223
74.9175 90.6059 181.532 -0.131029 -0.779156 -0.612983
74.9455 91.0175 181.003 -0.131029 -0.779156 -0.612983
75.7577 90.6096 181.348 -0.131029 -0.779156 -0.612983
76.0716 90.8737 181.121 0.104894 -0.617985 -0.779161
76.7918 90.893 181.203 0.104894 -0.617985 -0.779161
76.5478 90.6478 181.364 0.104894 -0.617985 -0.779161
75.7577 90.6096 181.348 0.0479366 -0.683429 -0.728441
76.0716 90.8737 181.121 0.0479366 -0.683429 -0.728441
76.5478 90.6478 181.364 0.0479366 -0.683429 -0.728441
76.5478 90.6478 181.364 0.71335 -0.70067 0.0139162
76.7918 90.893 181.203 0.71335 -0.70067 0.0139162
76.7301 90.8359 181.49 0.71335 -0.70067 0.0139162
74.0922 91.5274 181.15 -0.943593 0.103968 -0.314361
73.9716 91.1983 181.403 -0.943593 0.103968 -0.314361
74.0323 91.6772 181.379 -0.943593 0.103968 -0.314361
74.1912 90.9076 181.431 -0.465115 -0.426383 -0.7758
73.9716 91.1983 181.403 -0.465115 -0.426383 -0.7758
74.0922 91.5274 181.15 -0.465115 -0.426383 -0.7758
74.9455 91.0175 181.003 -0.396738 -0.431162 -0.810369
74.1912 90.9076 181.431 -0.396738 -0.431162 -0.810369
74.0922 91.5274 181.15 -0.396738 -0.431162 -0.810369
74.9455 91.0175 181.003 -0.449302 -0.549555 -0.704356
74.0922 91.5274 181.15 -0.449302 -0.549555 -0.704356
74.6686 91.8599 180.522 -0.449302 -0.549555 -0.704356
74.9455 91.0175 181.003 -0.543139 -0.543622 -0.639902
74.6686 91.8599 180.522 -0.543139 -0.543622 -0.639902
74.9553 91.8043 180.326 -0.543139 -0.543622 -0.639902
75.1893 91.6955 180.465 0.142304 -0.646424 -0.749591
74.9455 91.0175 181.003 0.142304 -0.646424 -0.749591
74.9553 91.8043 180.326 0.142304 -0.646424 -0.749591
75.1893 91.6955 180.465 0.355827 -0.656291 -0.665334
75.9382 91.7011 180.86 0.355827 -0.656291 -0.665334
74.9455 91.0175 181.003 0.355827 -0.656291 -0.665334
75.9382 91.7011 180.86 0.0626103 -0.291224 -0.954604
76.0716 90.8737 181.121 0.0626103 -0.291224 -0.954604
74.9455 91.0175 181.003 0.0626103 -0.291224 -0.954604
76.7918 90.893 181.203 0.113178 -0.426227 -0.897508
76.0716 90.8737 181.121 0.113178 -0.426227 -0.897508
76.7025 91.4833 180.911 0.113178 -0.426227 -0.897508
76.7025 91.4833 180.911 -0.0228733 -0.304282 -0.952307
76.0716 90.8737 181.121 -0.0228733 -0.304282 -0.952307
75.9382 91.7011 180.86 -0.0228733 -0.304282 -0.952307
76.9143 91.4633 181.257 0.961457 -0.221988 0.162243
76.7301 90.8359 181.49 0.961457 -0.221988 0.162243
76.7918 90.893 181.203 0.961457 -0.221988 0.162243
76.7025 91.4833 180.911 0.842091 -0.131042 -0.523173
76.9143 91.4633 181.257 0.842091 -0.131042 -0.523173
76.7918 90.893 181.203 0.842091 -0.131042 -0.523173
74.0922 91.5274 181.15 -0.733685 0.465097 -0.495371
74.0323 91.6772 181.379 -0.733685 0.465097 -0.495371
74.5688 92.3307 181.198 -0.733685 0.465097 -0.495371
74.5688 92.3307 181.198 -0.758454 0.476726 -0.444387
74.6686 91.8599 180.522 -0.758454 0.476726 -0.444387
74.0922 91.5274 181.15 -0.758454 0.476726 -0.444387
74.5688 92.3307 181.198 -0.963005 0.132473 -0.234676
74.7711 92.5713 180.504 -0.963005 0.132473 -0.234676
74.6686 91.8599 180.522 -0.963005 0.132473 -0.234676
75.1893 91.6955 180.465 0.429839 -0.400496 -0.809223
75.6101 92.4226 180.328 0.429839 -0.400496 -0.809223
75.9382 91.7011 180.86 0.429839 -0.400496 -0.809223
76.7429 92.0071 181.226 0.197561 0.494087 -0.846669
76.7025 91.4833 180.911 0.197561 0.494087 -0.846669
75.9382 91.7011 180.86 0.197561 0.494087 -0.846669
76.7429 92.0071 181.226 0.508119 -0.480909 -0.714522
75.9382 91.7011 180.86 0.508119 -0.480909 -0.714522
76.293 92.4744 180.592 0.508119 -0.480909 -0.714522
76.7429 92.0071 181.226 0.862843 0.383307 -0.32951
76.293 92.4744 180.592 0.862843 0.383307 -0.32951
76.498 92.589 181.262 0.862843 0.383307 -0.32951
75.6101 92.4226 180.328 0.351067 -0.44649 -0.823042
76.293 92.4744 180.592 0.351067 -0.44649 -0.823042
75.9382 91.7011 180.86 0.351067 -0.44649 -0.823042
78.0773 92.7134 181.259 -0.111995 -0.543814 -0.831699
78.0231 92.7245 181.259 -0.111995 -0.543814 -0.831699
78.0774 92.7245 181.252 -0.111995 -0.543814 -0.831699
76.9143 91.4633 181.257 0.834952 0.234974 -0.497637
76.7025 91.4833 180.911 0.834952 0.234974 -0.497637
76.7429 92.0071 181.226 0.834952 0.234974 -0.497637
78.0773 92.7134 181.259 0.376328 -0.50818 -0.774681
78.0774 92.7245 181.252 0.376328 -0.50818 -0.774681
78.0924 92.7245 181.259 0.376328 -0.50818 -0.774681
74.7711 92.5713 180.504 -0.731209 0.681755 0.0232972
74.5688 92.3307 181.198 -0.731209 0.681755 0.0232972
75.0204 92.8154 181.185 -0.731209 0.681755 0.0232972
75.1397 92.7765 180.466 -0.492238 0.860929 -0.12846
74.7711 92.5713 180.504 -0.492238 0.860929 -0.12846
75.0204 92.8154 181.185 -0.492238 0.860929 -0.12846
75.9064 92.7496 180.531 0.0651491 0.918768 -0.389385
75.1397 92.7765 180.466 0.0651491 0.918768 -0.389385
75.8117 93.0577 181.242 0.0651491 0.918768 -0.389385
75.1397 92.7765 180.466 -0.284649 0.953508 -0.0989805
75.0204 92.8154 181.185 -0.284649 0.953508 -0.0989805
75.8117 93.0577 181.242 -0.284649 0.953508 -0.0989805
76.498 92.589 181.262 0.583217 0.752053 -0.30704
76.293 92.4744 180.592 0.583217 0.752053 -0.30704
75.9064 92.7496 180.531 0.583217 0.752053 -0.30704
75.8117 93.0577 181.242 0.548189 0.791584 -0.269971
76.498 92.589 181.262 0.548189 0.791584 -0.269971
75.9064 92.7496 180.531 0.548189 0.791584 -0.269971
78.0774 92.7245 181.252 -0.130833 0.184117 -0.974158
78.0231 92.7245 181.259 -0.130833 0.184117 -0.974158
78.0774 92.7632 181.259 -0.130833 0.184117 -0.974158
78.0924 92.7245 181.259 0.429933 0.166522 -0.887372
78.0774 92.7245 181.252 0.429933 0.166522 -0.887372
78.0774 92.7632 181.259 0.429933 0.166522 -0.887372
74.9175 90.6059 181.532 -0.309829 -0.947384 0.0804342
75.0235 90.6272 182.191 -0.309829 -0.947384 0.0804342
74.4825 90.7919 182.047 -0.309829 -0.947384 0.0804342
74.1912 90.9076 181.431 -0.384571 -0.923056 0.00852332
74.9175 90.6059 181.532 -0.384571 -0.923056 0.00852332
74.4825 90.7919 182.047 -0.384571 -0.923056 0.00852332
75.7577 90.6096 181.348 -0.0286096 -0.988257 -0.150101
75.873 90.5105 181.979 -0.0286096 -0.988257 -0.150101
74.9175 90.6059 181.532 -0.0286096 -0.988257 -0.150101
74.9175 90.6059 181.532 -0.123186 -0.991031 0.0517853
75.873 90.5105 181.979 -0.123186 -0.991031 0.0517853
75.0235 90.6272 182.191 -0.123186 -0.991031 0.0517853
76.7301 90.8359 181.49 0.550789 -0.631575 0.545659
76.1653 90.9447 182.186 0.550789 -0.631575 0.545659
75.873 90.5105 181.979 0.550789 -0.631575 0.545659
76.7301 90.8359 181.49 0.513952 -0.761838 0.39428
75.873 90.5105 181.979 0.513952 -0.761838 0.39428
76.5478 90.6478 181.364 0.513952 -0.761838 0.39428
76.5478 90.6478 181.364 0.0509458 -0.985119 -0.164151
75.873 90.5105 181.979 0.0509458 -0.985119 -0.164151
75.7577 90.6096 181.348 0.0509458 -0.985119 -0.164151
73.9716 91.1983 181.403 -0.706422 0.124323 0.696787
74.6239 91.6306 181.987 -0.706422 0.124323 0.696787
74.0323 91.6772 181.379 -0.706422 0.124323 0.696787
73.9716 91.1983 181.403 -0.512479 -0.309295 0.801063
74.1912 90.9076 181.431 -0.512479 -0.309295 0.801063
74.6239 91.6306 181.987 -0.512479 -0.309295 0.801063
74.1912 90.9076 181.431 -0.875864 0.17992 0.447763
74.4825 90.7919 182.047 -0.875864 0.17992 0.447763
74.6239 91.6306 181.987 -0.875864 0.17992 0.447763
76.7907 91.4973 181.667 0.735966 -0.236989 0.634185
76.1653 90.9447 182.186 0.735966 -0.236989 0.634185
76.7301 90.8359 181.49 0.735966 -0.236989 0.634185
76.4965 91.8631 182.077 0.717041 -0.178317 0.673836
76.1653 90.9447 182.186 0.717041 -0.178317 0.673836
76.7907 91.4973 181.667 0.717041 -0.178317 0.673836
76.7301 90.8359 181.49 0.940304 -0.165579 0.297341
76.9143 91.4633 181.257 0.940304 -0.165579 0.297341
76.7907 91.4973 181.667 0.940304 -0.165579 0.297341
74.5688 92.3307 181.198 -0.748778 0.468972 0.468398
74.6239 91.6306 181.987 -0.748778 0.468972 0.468398
74.9931 92.5682 181.638 -0.748778 0.468972 0.468398
74.5688 92.3307 181.198 -0.545475 0.607653 0.577247
74.0323 91.6772 181.379 -0.545475 0.607653 0.577247
74.6239 91.6306 181.987 -0.545475 0.607653 0.577247
74.6239 91.6306 181.987 -0.618302 0.475962 0.62543
75.4726 92.4434 182.207 -0.618302 0.475962 0.62543
74.9931 92.5682 181.638 -0.618302 0.475962 0.62543
76.7429 92.0071 181.226 0.880208 0.35494 0.315042
76.4965 91.8631 182.077 0.880208 0.35494 0.315042
76.7907 91.4973 181.667 0.880208 0.35494 0.315042
76.7429 92.0071 181.226 0.881539 0.351759 0.314889
76.498 92.589 181.262 0.881539 0.351759 0.314889
76.4965 91.8631 182.077 0.881539 0.351759 0.314889
76.498 92.589 181.262 0.892607 0.33586 0.300749
76.2268 92.6542 181.994 0.892607 0.33586 0.300749
76.4965 91.8631 182.077 0.892607 0.33586 0.300749
76.9143 91.4633 181.257 0.918806 0.303909 0.251864
76.7429 92.0071 181.226 0.918806 0.303909 0.251864
76.7907 91.4973 181.667 0.918806 0.303909 0.251864
78.0773 92.7134 181.259 -0.180778 -0.880237 0.43875
78.0774 92.7245 181.281 -0.180778 -0.880237 0.43875
78.0231 92.7245 181.259 -0.180778 -0.880237 0.43875
78.0773 92.7134 181.259 0.551984 -0.747441 0.369657
78.0924 92.7245 181.259 0.551984 -0.747441 0.369657
78.0774 92.7245 181.281 0.551984 -0.747441 0.369657
74.5688 92.3307 181.198 -0.690483 0.651807 0.313658
74.9931 92.5682 181.638 -0.690483 0.651807 0.313658
75.0204 92.8154 181.185 -0.690483 0.651807 0.313658
74.9931 92.5682 181.638 -0.527794 0.619824 0.580733
75.4726 92.4434 182.207 -0.527794 0.619824 0.580733
75.6989 92.8554 181.973 -0.527794 0.619824 0.580733
74.9931 92.5682 181.638 -0.500002 0.772753 0.390962
75.6989 92.8554 181.973 -0.500002 0.772753 0.390962
75.0204 92.8154 181.185 -0.500002 0.772753 0.390962
75.0204 92.8154 181.185 -0.300166 0.930247 0.211046
75.6989 92.8554 181.973 -0.300166 0.930247 0.211046
75.8117 93.0577 181.242 -0.300166 0.930247 0.211046
76.2268 92.6542 181.994 0.556386 0.82019 0.133127
76.498 92.589 181.262 0.556386 0.82019 0.133127
75.8117 93.0577 181.242 0.556386 0.82019 0.133127
75.6989 92.8554 181.973 0.329837 0.895536 0.298702
76.2268 92.6542 181.994 0.329837 0.895536 0.298702
75.8117 93.0577 181.242 0.329837 0.895536 0.298702
78.0231 92.7245 181.259 -0.333979 0.469999 0.817043
78.0774 92.7245 181.281 -0.333979 0.469999 0.817043
78.0774 92.7632 181.259 -0.333979 0.469999 0.817043
78.0924 92.7245 181.259 0.789158 0.305657 0.532732
78.0774 92.7632 181.259 0.789158 0.305657 0.532732
78.0774 92.7245 181.281 0.789158 0.305657 0.532732
75.0235 90.6272 182.191 -0.36148 -0.504863 0.783865
74.9839 90.9634 182.389 -0.36148 -0.504863 0.783865
74.4825 90.7919 182.047 -0.36148 -0.504863 0.783865
75.0235 90.6272 182.191 -0.0165498 -0.902558 0.430249
75.873 90.5105 181.979 -0.0165498 -0.902558 0.430249
75.6686 90.7662 182.507 -0.0165498 -0.902558 0.430249
74.9839 90.9634 182.389 -0.287065 -0.511468 0.809934
75.0235 90.6272 182.191 -0.287065 -0.511468 0.809934
75.6686 90.7662 182.507 -0.287065 -0.511468 0.809934
75.873 90.5105 181.979 0.567593 -0.633448 0.525911
76.1653 90.9447 182.186 0.567593 -0.633448 0.525911
75.6686 90.7662 182.507 0.567593 -0.633448 0.525911
74.9839 90.9634 182.389 -0.731348 0.0162411 0.681811
75.1626 91.7617 182.562 -0.731348 0.0162411 0.681811
74.6239 91.6306 181.987 -0.731348 0.0162411 0.681811
74.4825 90.7919 182.047 -0.592204 0.156741 0.790397
74.9839 90.9634 182.389 -0.592204 0.156741 0.790397
74.6239 91.6306 181.987 -0.592204 0.156741 0.790397
75.6686 90.7662 182.507 -0.211165 -0.154963 0.965088
75.783 91.5011 182.65 -0.211165 -0.154963 0.965088
74.9839 90.9634 182.389 -0.211165 -0.154963 0.965088
75.783 91.5011 182.65 -0.205999 -0.162573 0.964953
75.1626 91.7617 182.562 -0.205999 -0.162573 0.964953
74.9839 90.9634 182.389 -0.205999 -0.162573 0.964953
76.1653 90.9447 182.186 0.664949 -0.152709 0.73111
76.4965 91.8631 182.077 0.664949 -0.152709 0.73111
75.783 91.5011 182.65 0.664949 -0.152709 0.73111
75.6686 90.7662 182.507 0.586467 -0.241651 0.773086
76.1653 90.9447 182.186 0.586467 -0.241651 0.773086
75.783 91.5011 182.65 0.586467 -0.241651 0.773086
75.4726 92.4434 182.207 -0.664566 0.559597 0.49518
74.6239 91.6306 181.987 -0.664566 0.559597 0.49518
75.1626 91.7617 182.562 -0.664566 0.559597 0.49518
75.4726 92.4434 182.207 -0.214438 0.525414 0.823381
75.1626 91.7617 182.562 -0.214438 0.525414 0.823381
75.8696 92.3919 182.344 -0.214438 0.525414 0.823381
75.8696 92.3919 182.344 0.00167847 0.325224 0.945636
75.1626 91.7617 182.562 0.00167847 0.325224 0.945636
75.783 91.5011 182.65 0.00167847 0.325224 0.945636
76.4965 91.8631 182.077 0.562896 0.273675 0.779904
76.2268 92.6542 181.994 0.562896 0.273675 0.779904
75.8696 92.3919 182.344 0.562896 0.273675 0.779904
75.783 91.5011 182.65 0.537394 0.227173 0.812158
76.4965 91.8631 182.077 0.537394 0.227173 0.812158
75.8696 92.3919 182.344 0.537394 0.227173 0.812158
75.4726 92.4434 182.207 -0.201294 0.565135 0.800065
75.8696 92.3919 182.344 -0.201294 0.565135 0.800065
75.6989 92.8554 181.973 -0.201294 0.565135 0.800065
76.2268 92.6542 181.994 0.222574 0.65729 0.720021
75.6989 92.8554 181.973 0.222574 0.65729 0.720021
75.8696 92.3919 182.344 0.222574 0.65729 0.720021
3 0 1 2
3 3 4 5
3 6 7 8
3 9 10 11
3 12 13 14
3 15 16 17
3 18 19 20
3 21 22 23
3 24 25 26
3 27 28 29
3 30 31 32
3 33 34 35
3 36 37 38
3 39 40 41
3 42 43 44
3 45 46 47
3 48 49 50
3 51 52 53
3 54 55 56
3 57 58 59
3 60 61 62
3 63 64 65
3 66 67 68
3 69 70 71
3 72 73 74
3 75 76 77
3 78 79 80
3 81 82 83
3 84 85 86
3 87 88 89
3 90 91 92
3 93 94 95
3 96 97 98
3 99 100 101
3 102 103 104
3 105 106 107
3 108 109 110
3 111 112 113
3 114 115 116
3 117 118 119
3 120 121 122
3 123 124 125
3 126 127 128
3 129 130 131
3 132 133 134
3 135 136 137
3 138 139 140
3 141 142 143
3 144 145 146
3 147 148 149
3 150 151 152
3 153 154 155
3 156 157 158
3 159 160 161
3 162 163 164
3 165 166 167
3 168 169 170
3 171 172 173
3 174 175 176
3 177 178 179
3 180 181 182
3 183 184 185
3 186 187 188
3 189 190 191
3 192 193 194
3 195 196 197
3 198 199 200
3 201 202 203
3 204 205 206
3 207 208 209
3 210 211 212
3 213 214 215
3 216 217 218
3 219 220 221
3 222 223 224
3 225 226 227
3 228 229 230
3 231 232 233
3 234 235 236
3 237 238 239
3 240 241 242
3 243 244 245
3 246 247 248
3 249 250 251
3 252 253 254
3 255 256 257
3 258 259 260
3 261 262 263
3 264 265 266
3 267 268 269
3 270 271 272
3 273 274 275
