ply
format ascii 1.0
element vertex 282
property float x
property float y
property float z
property float nx
property float ny
property float nz
element face 94
property list uint uint vertex_indices
end_header
101.313 95.9937 163.628 -0.368648 -0.499509 -0.783958
101.269 95.6857 163.845 -0.368648 -0.499509 -0.783958
100.923 96.0251 163.791 -0.368648 -0.499509 -0.783958
101.269 95.6857 163.845 0.396486 -0.565815 -0.722947
101.313 95.9937 163.628 0.396486 -0.565815 -0.722947
101.995 96.0363 163.968 0.396486 -0.565815 -0.722947
101.179 96.6137 163.881 -0.350061 0.288614 -0.891156
101.313 95.9937 163.628 -0.350061 0.288614 -0.891156
100.923 96.0251 163.791 -0.350061 0.288614 -0.891156
101.179 96.6137 163.881 0.384661 0.418922 -0.822521
101.995 96.0363 163.968 0.384661 0.418922 -0.822521
101.313 95.9937 163.628 0.384661 0.418922 -0.822521
101.081 94.088 164.501 0.054243 -0.777184 -0.626932
101.224 93.7876 164.886 0.054243 -0.777184 -0.626932
100.535 93.9413 164.636 0.054243 -0.777184 -0.626932
101.224 93.7876 164.886 0.263432 -0.710512 -0.652515
101.081 94.088 164.501 0.263432 -0.710512 -0.652515
101.523 93.9437 164.837 0.263432 -0.710512 -0.652515
100.363 94.6428 164.152 -0.845893 -0.333549 -0.416185
100.265 94.1736 164.727 -0.845893 -0.333549 -0.416185
100.03 94.9174 164.608 -0.845893 -0.333549 -0.416185
100.535 93.9413 164.636 -0.643623 -0.535631 -0.54667
100.265 94.1736 164.727 -0.643623 -0.535631 -0.54667
100.363 94.6428 164.152 -0.643623 -0.535631 -0.54667
100.535 93.9413 164.636 -0.0467535 -0.575121 -0.816731
100.363 94.6428 164.152 -0.0467535 -0.575121 -0.816731
101.081 94.088 164.501 -0.0467535 -0.575121 -0.816731
101.081 94.088 164.501 0.261788 -0.248315 -0.932634
100.363 94.6428 164.152 0.261788 -0.248315 -0.932634
101.133 94.9485 164.287 0.261788 -0.248315 -0.932634
101.633 94.6229 164.714 0.538674 -0.233348 -0.809555
101.523 93.9437 164.837 0.538674 -0.233348 -0.809555
101.081 94.088 164.501 0.538674 -0.233348 -0.809555
101.133 94.9485 164.287 0.539185 -0.234096 -0.808999
101.633 94.6229 164.714 0.539185 -0.234096 -0.808999
101.081 94.088 164.501 0.539185 -0.234096 -0.808999
100.343 95.6276 164.261 -0.791823 0.0514805 -0.608577
100.363 94.6428 164.152 -0.791823 0.0514805 -0.608577
100.03 94.9174 164.608 -0.791823 0.0514805 -0.608577
99.7767 95.7654 164.794 -0.691256 -0.0477864 -0.721028
100.343 95.6276 164.261 -0.691256 -0.0477864 -0.721028
100.03 94.9174 164.608 -0.691256 -0.0477864 -0.721028
101.269 95.6857 163.845 -0.33643 -0.471601 -0.815112
100.343 95.6276 164.261 -0.33643 -0.471601 -0.815112
100.923 96.0251 163.791 -0.33643 -0.471601 -0.815112
101.269 95.6857 163.845 -0.34613 -0.434466 -0.831525
101.133 94.9485 164.287 -0.34613 -0.434466 -0.831525
100.343 95.6276 164.261 -0.34613 -0.434466 -0.831525
101.133 94.9485 164.287 0.128235 0.111583 -0.985447
100.363 94.6428 164.152 0.128235 0.111583 -0.985447
100.343 95.6276 164.261 0.128235 0.111583 -0.985447
101.133 94.9485 164.287 0.421487 -0.41288 -0.80739
101.987 95.445 164.479 0.421487 -0.41288 -0.80739
101.633 94.6229 164.714 0.421487 -0.41288 -0.80739
101.133 94.9485 164.287 0.462457 -0.517068 -0.72026
101.269 95.6857 163.845 0.462457 -0.517068 -0.72026
101.987 95.445 164.479 0.462457 -0.517068 -0.72026
101.269 95.6857 163.845 0.407077 -0.599739 -0.688913
101.995 96.0363 163.968 0.407077 -0.599739 -0.688913
101.987 95.445 164.479 0.407077 -0.599739 -0.688913
102.423 95.7062 164.781 0.676164 -0.486279 -0.553475
101.987 95.445 164.479 0.676164 -0.486279 -0.553475
101.995 96.0363 163.968 0.676164 -0.486279 -0.553475
100.279 96.5121 164.349 -0.682659 0.0236466 -0.730355
100.343 95.6276 164.261 -0.682659 0.0236466 -0.730355
99.7767 95.7654 164.794 -0.682659 0.0236466 -0.730355
100.039 96.5991 164.775 -0.822246 0.247569 -0.512466
100.279 96.5121 164.349 -0.822246 0.247569 -0.512466
99.7767 95.7654 164.794 -0.822246 0.247569 -0.512466
100.923 96.0251 163.791 -0.464373 0.327887 -0.822708
100.279 96.5121 164.349 -0.464373 0.327887 -0.822708
101.179 96.6137 163.881 -0.464373 0.327887 -0.822708
100.343 95.6276 164.261 -0.641077 0.0302768 -0.766879
100.279 96.5121 164.349 -0.641077 0.0302768 -0.766879
100.923 96.0251 163.791 -0.641077 0.0302768 -0.766879
101.995 96.0363 163.968 0.483773 0.584742 -0.651184
101.179 96.6137 163.881 0.483773 0.584742 -0.651184
101.965 96.7899 164.623 0.483773 0.584742 -0.651184
101.995 96.0363 163.968 0.592586 0.541502 -0.596337
101.965 96.7899 164.623 0.592586 0.541502 -0.596337
102.346 96.483 164.723 0.592586 0.541502 -0.596337
101.995 96.0363 163.968 0.89253 0.0546839 -0.447661
102.346 96.483 164.723 0.89253 0.0546839 -0.447661
102.423 95.7062 164.781 0.89253 0.0546839 -0.447661
100.279 96.5121 164.349 -0.638652 0.600445 -0.481238
100.039 96.5991 164.775 -0.638652 0.600445 -0.481238
100.457 96.8904 164.585 -0.638652 0.600445 -0.481238
101.179 96.6137 163.881 -0.417282 0.614134 -0.669862
100.279 96.5121 164.349 -0.417282 0.614134 -0.669862
100.457 96.8904 164.585 -0.417282 0.614134 -0.669862
101.179 96.6137 163.881 -0.335729 0.706864 -0.622599
100.457 96.8904 164.585 -0.335729 0.706864 -0.622599
101.195 96.9016 164.199 -0.335729 0.706864 -0.622599
101.965 96.7899 164.623 0.433966 0.657649 -0.615769
101.179 96.6137 163.881 0.433966 0.657649 -0.615769
101.195 96.9016 164.199 0.433966 0.657649 -0.615769
101.224 93.7876 164.886 -0.257937 -0.960425 0.105134
101.402 93.8095 165.521 -0.257937 -0.960425 0.105134
100.902 93.9226 165.329 -0.257937 -0.960425 0.105134
100.535 93.9413 164.636 -0.253758 -0.961175 0.108397
101.224 93.7876 164.886 -0.253758 -0.961175 0.108397
100.902 93.9226 165.329 -0.253758 -0.961175 0.108397
101.523 93.9437 164.837 0.609487 -0.653876 -0.4483
102.143 94.1811 165.333 0.609487 -0.653876 -0.4483
102.041 93.9789 165.49 0.609487 -0.653876 -0.4483
101.523 93.9437 164.837 0.408566 -0.869593 -0.277276
102.041 93.9789 165.49 0.408566 -0.869593 -0.277276
101.224 93.7876 164.886 0.408566 -0.869593 -0.277276
101.224 93.7876 164.886 0.254151 -0.966431 -0.0376554
102.041 93.9789 165.49 0.254151 -0.966431 -0.0376554
101.402 93.8095 165.521 0.254151 -0.966431 -0.0376554
100.03 94.9174 164.608 -0.94351 -0.266321 0.197135
100.265 94.1736 164.727 -0.94351 -0.266321 0.197135
100.242 94.7351 165.375 -0.94351 -0.266321 0.197135
100.902 93.9226 165.329 -0.569304 -0.77278 0.280543
100.265 94.1736 164.727 -0.569304 -0.77278 0.280543
100.535 93.9413 164.636 -0.569304 -0.77278 0.280543
100.242 94.7351 165.375 -0.67092 -0.572267 0.47157
100.265 94.1736 164.727 -0.67092 -0.572267 0.47157
100.902 93.9226 165.329 -0.67092 -0.572267 0.47157
102.143 94.1811 165.333 0.646061 -0.260102 -0.717602
101.633 94.6229 164.714 0.646061 -0.260102 -0.717602
102.254 94.9029 165.172 0.646061 -0.260102 -0.717602
101.523 93.9437 164.837 0.660939 -0.23573 -0.712454
101.633 94.6229 164.714 0.660939 -0.23573 -0.712454
102.143 94.1811 165.333 0.660939 -0.23573 -0.712454
102.603 94.9162 165.552 0.856407 -0.507012 -0.0974945
102.041 93.9789 165.49 0.856407 -0.507012 -0.0974945
102.143 94.1811 165.333 0.856407 -0.507012 -0.0974945
102.254 94.9029 165.172 0.717209 -0.255583 -0.648297
102.603 94.9162 165.552 0.717209 -0.255583 -0.648297
102.143 94.1811 165.333 0.717209 -0.255583 -0.648297
100.095 95.439 165.494 -0.885068 0.107652 0.452842
100.114 96.0678 165.381 -0.885068 0.107652 0.452842
99.7767 95.7654 164.794 -0.885068 0.107652 0.452842
100.095 95.439 165.494 -0.920613 -0.243211 0.305483
99.7767 95.7654 164.794 -0.920613 -0.243211 0.305483
100.242 94.7351 165.375 -0.920613 -0.243211 0.305483
100.242 94.7351 165.375 -0.930667 -0.317744 0.181379
99.7767 95.7654 164.794 -0.930667 -0.317744 0.181379
100.03 94.9174 164.608 -0.930667 -0.317744 0.181379
100.095 95.439 165.494 -0.710027 0.145 0.689083
100.34 95.7935 165.672 -0.710027 0.145 0.689083
100.114 96.0678 165.381 -0.710027 0.145 0.689083
101.633 94.6229 164.714 0.652075 -0.454646 -0.606708
101.987 95.445 164.479 0.652075 -0.454646 -0.606708
102.254 94.9029 165.172 0.652075 -0.454646 -0.606708
102.254 94.9029 165.172 0.674792 -0.432405 -0.598065
101.987 95.445 164.479 0.674792 -0.432405 -0.598065
102.423 95.7062 164.781 0.674792 -0.432405 -0.598065
102.254 94.9029 165.172 0.672003 -0.433101 -0.600696
102.423 95.7062 164.781 0.672003 -0.433101 -0.600696
102.603 94.9162 165.552 0.672003 -0.433101 -0.600696
102.603 94.9162 165.552 0.963748 -0.0378015 -0.264123
102.423 95.7062 164.781 0.963748 -0.0378015 -0.264123
102.615 95.9831 165.445 0.963748 -0.0378015 -0.264123
100.114 96.0678 165.381 -0.864533 0.320411 0.387193
100.311 96.7619 165.248 -0.864533 0.320411 0.387193
100.039 96.5991 164.775 -0.864533 0.320411 0.387193
99.7767 95.7654 164.794 -0.887007 0.287645 0.36122
100.114 96.0678 165.381 -0.887007 0.287645 0.36122
100.039 96.5991 164.775 -0.887007 0.287645 0.36122
100.632 96.5661 165.624 -0.613722 0.277482 0.739155
100.114 96.0678 165.381 -0.613722 0.277482 0.739155
100.34 95.7935 165.672 -0.613722 0.277482 0.739155
100.311 96.7619 165.248 -0.634962 0.316305 0.704822
100.114 96.0678 165.381 -0.634962 0.316305 0.704822
100.632 96.5661 165.624 -0.634962 0.316305 0.704822
102.301 96.6926 165.309 0.546469 0.709951 0.44423
101.972 96.8465 165.467 0.546469 0.709951 0.44423
102.194 96.5632 165.648 0.546469 0.709951 0.44423
102.301 96.6926 165.309 0.798074 0.433386 0.418634
102.194 96.5632 165.648 0.798074 0.433386 0.418634
102.615 95.9831 165.445 0.798074 0.433386 0.418634
102.301 96.6926 165.309 0.917082 0.392402 -0.0705816
102.615 95.9831 165.445 0.917082 0.392402 -0.0705816
102.346 96.483 164.723 0.917082 0.392402 -0.0705816
102.346 96.483 164.723 0.949585 0.0709398 -0.305377
102.615 95.9831 165.445 0.949585 0.0709398 -0.305377
102.423 95.7062 164.781 0.949585 0.0709398 -0.305377
100.039 96.5991 164.775 -0.560309 0.827444 0.0372867
100.311 96.7619 165.248 -0.560309 0.827444 0.0372867
100.457 96.8904 164.585 -0.560309 0.827444 0.0372867
100.311 96.7619 165.248 -0.256826 0.750696 0.608684
100.632 96.5661 165.624 -0.256826 0.750696 0.608684
101.15 97.0281 165.273 -0.256826 0.750696 0.608684
100.311 96.7619 165.248 -0.30377 0.94558 0.116631
101.15 97.0281 165.273 -0.30377 0.94558 0.116631
100.457 96.8904 164.585 -0.30377 0.94558 0.116631
100.457 96.8904 164.585 -0.0775478 0.989746 -0.119953
101.15 97.0281 165.273 -0.0775478 0.989746 -0.119953
101.195 96.9016 164.199 -0.0775478 0.989746 -0.119953
101.972 96.8465 165.467 0.397143 0.915445 -0.0650975
102.301 96.6926 165.309 0.397143 0.915445 -0.0650975
101.965 96.7899 164.623 0.397143 0.915445 -0.0650975
101.972 96.8465 165.467 0.230199 0.970818 -0.0672431
101.965 96.7899 164.623 0.230199 0.970818 -0.0672431
101.15 97.0281 165.273 0.230199 0.970818 -0.0672431
101.15 97.0281 165.273 0.199854 0.974029 -0.10642
101.965 96.7899 164.623 0.199854 0.974029 -0.10642
101.195 96.9016 164.199 0.199854 0.974029 -0.10642
102.346 96.483 164.723 0.645897 0.733094 -0.213051
101.965 96.7899 164.623 0.645897 0.733094 -0.213051
102.301 96.6926 165.309 0.645897 0.733094 -0.213051
101.402 93.8095 165.521 -0.386314 -0.713994 0.58393
101.196 94.1542 165.807 -0.386314 -0.713994 0.58393
100.902 93.9226 165.329 -0.386314 -0.713994 0.58393
101.402 93.8095 165.521 0.258347 -0.964309 0.0580049
102.041 93.9789 165.49 0.258347 -0.964309 0.0580049
101.927 93.9617 165.709 0.258347 -0.964309 0.0580049
101.196 94.1542 165.807 -0.0748482 -0.661908 0.745839
101.402 93.8095 165.521 -0.0748482 -0.661908 0.745839
101.927 93.9617 165.709 -0.0748482 -0.661908 0.745839
100.242 94.7351 165.375 -0.593657 -0.517655 0.61612
100.902 93.9226 165.329 -0.593657 -0.517655 0.61612
101.196 94.1542 165.807 -0.593657 -0.517655 0.61612
100.242 94.7351 165.375 -0.589082 -0.491184 0.641655
101.196 94.1542 165.807 -0.589082 -0.491184 0.641655
100.472 94.9975 165.788 -0.589082 -0.491184 0.641655
100.472 94.9975 165.788 -0.334259 -0.266595 0.90399
101.196 94.1542 165.807 -0.334259 -0.266595 0.90399
101.325 94.9488 166.089 -0.334259 -0.266595 0.90399
101.927 93.9617 165.709 0.0293328 -0.36047 0.93231
102.071 94.6387 165.966 0.0293328 -0.36047 0.93231
101.196 94.1542 165.807 0.0293328 -0.36047 0.93231
102.071 94.6387 165.966 0.0144287 -0.336579 0.941545
101.325 94.9488 166.089 0.0144287 -0.336579 0.941545
101.196 94.1542 165.807 0.0144287 -0.336579 0.941545
102.041 93.9789 165.49 0.682979 -0.448227 0.576743
102.603 94.9162 165.552 0.682979 -0.448227 0.576743
102.071 94.6387 165.966 0.682979 -0.448227 0.576743
101.927 93.9617 165.709 0.846879 -0.336541 0.411748
102.041 93.9789 165.49 0.846879 -0.336541 0.411748
102.071 94.6387 165.966 0.846879 -0.336541 0.411748
100.242 94.7351 165.375 -0.763707 -0.25893 0.591361
100.472 94.9975 165.788 -0.763707 -0.25893 0.591361
100.095 95.439 165.494 -0.763707 -0.25893 0.591361
100.34 95.7935 165.672 -0.602354 0.0159919 0.798069
100.095 95.439 165.494 -0.602354 0.0159919 0.798069
100.472 94.9975 165.788 -0.602354 0.0159919 0.798069
100.34 95.7935 165.672 -0.39965 0.0664512 0.914256
100.472 94.9975 165.788 -0.39965 0.0664512 0.914256
101.075 95.8111 165.992 -0.39965 0.0664512 0.914256
101.075 95.8111 165.992 -0.332316 0.00932318 0.943122
100.472 94.9975 165.788 -0.332316 0.00932318 0.943122
101.325 94.9488 166.089 -0.332316 0.00932318 0.943122
102.071 94.6387 165.966 0.164993 0.00827892 0.98626
102.082 95.7207 165.955 0.164993 0.00827892 0.98626
101.325 94.9488 166.089 0.164993 0.00827892 0.98626
102.082 95.7207 165.955 0.0471451 0.12478 0.991064
101.075 95.8111 165.992 0.0471451 0.12478 0.991064
101.325 94.9488 166.089 0.0471451 0.12478 0.991064
102.603 94.9162 165.552 0.673185 0.0666453 0.736465
102.615 95.9831 165.445 0.673185 0.0666453 0.736465
102.082 95.7207 165.955 0.673185 0.0666453 0.736465
102.071 94.6387 165.966 0.61381 0.00168085 0.789452
102.603 94.9162 165.552 0.61381 0.00168085 0.789452
102.082 95.7207 165.955 0.61381 0.00168085 0.789452
101.075 95.8111 165.992 -0.229111 0.314231 0.921285
101.424 96.6314 165.799 -0.229111 0.314231 0.921285
100.632 96.5661 165.624 -0.229111 0.314231 0.921285
100.34 95.7935 165.672 -0.394869 0.204541 0.895679
101.075 95.8111 165.992 -0.394869 0.204541 0.895679
100.632 96.5661 165.624 -0.394869 0.204541 0.895679
102.194 96.5632 165.648 0.202607 0.634087 0.746247
101.972 96.8465 165.467 0.202607 0.634087 0.746247
101.424 96.6314 165.799 0.202607 0.634087 0.746247
102.194 96.5632 165.648 0.209461 0.310668 0.927152
101.424 96.6314 165.799 0.209461 0.310668 0.927152
102.082 95.7207 165.955 0.209461 0.310668 0.927152
102.082 95.7207 165.955 0.0539862 0.206787 0.976895
101.424 96.6314 165.799 0.0539862 0.206787 0.976895
101.075 95.8111 165.992 0.0539862 0.206787 0.976895
102.615 95.9831 165.445 0.628122 0.192241 0.753994
102.194 96.5632 165.648 0.628122 0.192241 0.753994
102.082 95.7207 165.955 0.628122 0.192241 0.753994
100.632 96.5661 165.624 -0.204441 0.727297 0.655166
101.424 96.6314 165.799 -0.204441 0.727297 0.655166
101.15 97.0281 165.273 -0.204441 0.727297 0.655166
101.972 96.8465 165.467 0.0392762 0.807456 0.588619
101.15 97.0281 165.273 0.0392762 0.807456 0.588619
101.424 96.6314 165.799 0.0392762 0.807456 0.588619
3 0 1 2
3 3 4 5
3 6 7 8
3 9 10 11
3 12 13 14
3 15 16 17
3 18 19 20
3 21 22 23
3 24 25 26
3 27 28 29
3 30 31 32
3 33 34 35
3 36 37 38
3 39 40 41
3 42 43 44
3 45 46 47
3 48 49 50
3 51 52 53
3 54 55 56
3 57 58 59
3 60 61 62
3 63 64 65
3 66 67 68
3 69 70 71
3 72 73 74
3 75 76 77
3 78 79 80
3 81 82 83
3 84 85 86
3 87 88 89
3 90 91 92
3 93 94 95
3 96 97 98
3 99 100 101
3 102 103 104
3 105 106 107
3 108 109 110
3 111 112 113
3 114 115 116
3 117 118 119
3 120 121 122
3 123 124 125
3 126 127 128
3 129 130 131
3 132 133 134
3 135 136 137
3 138 139 140
3 141 142 143
3 144 145 146
3 147 148 149
3 150 151 152
3 153 154 155
3 156 157 158
3 159 160 161
3 162 163 164
3 165 166 167
3 168 169 170
3 171 172 173
3 174 175 176
3 177 178 179
3 180 181 182
3 183 184 185
3 186 187 188
3 189 190 191
3 192 193 194
3 195 196 197
3 198 199 200
3 201 202 203
3 204 205 206
3 207 208 209
3 210 211 212
3 213 214 215
3 216 217 218
3 219 220 221
3 222 223 224
3 225 226 227
3 228 229 230
3 231 232 233
3 234 235 236
3 237 238 239
3 240 241 242
3 243 244 245
3 246 247 248
3 249 250 251
3 252 253 254
3 255 256 257
3 258 259 260
3 261 262 263
3 264 265 266
3 267 268 269
3 270 271 272
3 273 274 275
3 276 277 278
3 279 280 281
