ply
format ascii 1.0
element vertex 366
property float x
property float y
property float z
property float nx
property float ny
property float nz
element face 122
property list uint uint vertex_indices
end_header
62.9904 99.979 146.929 -0.507488 -0.758472 -0.408871
62.8629 99.934 147.171 -0.507488 -0.758472 -0.408871
62.753 100.023 147.142 -0.507488 -0.758472 -0.408871
62.9904 99.979 146.929 0.0123906 -0.799395 -0.600679
63.6919 99.9895 146.929 0.0123906 -0.799395 -0.600679
63.6241 99.7769 147.211 0.0123906 -0.799395 -0.600679
62.8629 99.934 147.171 -0.180729 -0.94534 -0.271421
62.9904 99.979 146.929 -0.180729 -0.94534 -0.271421
63.6241 99.7769 147.211 -0.180729 -0.94534 -0.271421
63.6241 99.7769 147.211 0.0418965 -0.802148 -0.595654
63.6919 99.9895 146.929 0.0418965 -0.802148 -0.595654
64.7535 99.7879 147.276 0.0418965 -0.802148 -0.595654
62.9904 99.979 146.929 -0.382538 0.723257 -0.574947
62.753 100.023 147.142 -0.382538 0.723257 -0.574947
63.0247 100.074 147.026 -0.382538 0.723257 -0.574947
63.6919 99.9895 146.929 -0.0101714 0.71521 -0.698836
62.9904 99.979 146.929 -0.0101714 0.71521 -0.698836
63.0247 100.074 147.026 -0.0101714 0.71521 -0.698836
63.9114 100.228 147.098 -0.0392099 0.60036 -0.798768
63.6919 99.9895 146.929 -0.0392099 0.60036 -0.798768
63.0247 100.074 147.026 -0.0392099 0.60036 -0.798768
64.7535 99.7879 147.276 0.347256 0.306151 -0.886389
63.6919 99.9895 146.929 0.347256 0.306151 -0.886389
63.9114 100.228 147.098 0.347256 0.306151 -0.886389
64.8552 100.268 147.119 0.0353449 -0.315882 -0.94814
64.7535 99.7879 147.276 0.0353449 -0.315882 -0.94814
63.9114 100.228 147.098 0.0353449 -0.315882 -0.94814
62.8629 99.934 147.171 -0.549867 -0.835123 -0.0146825
62.9515 99.8629 147.893 -0.549867 -0.835123 -0.0146825
62.7309 100.011 147.752 -0.549867 -0.835123 -0.0146825
62.753 100.023 147.142 -0.622882 -0.781374 -0.0383731
62.8629 99.934 147.171 -0.622882 -0.781374 -0.0383731
62.7309 100.011 147.752 -0.622882 -0.781374 -0.0383731
63.5463 99.3432 148.059 -0.39035 -0.804635 -0.447425
63.6241 99.7769 147.211 -0.39035 -0.804635 -0.447425
64.0536 99.0976 148.058 -0.39035 -0.804635 -0.447425
63.5463 99.3432 148.059 -0.525324 -0.737032 -0.425228
62.9515 99.8629 147.893 -0.525324 -0.737032 -0.425228
63.6241 99.7769 147.211 -0.525324 -0.737032 -0.425228
62.9515 99.8629 147.893 -0.197906 -0.977579 -0.0719246
62.8629 99.934 147.171 -0.197906 -0.977579 -0.0719246
63.6241 99.7769 147.211 -0.197906 -0.977579 -0.0719246
64.7535 99.7879 147.276 0.0440252 -0.768319 -0.638551
64.0536 99.0976 148.058 0.0440252 -0.768319 -0.638551
63.6241 99.7769 147.211 0.0440252 -0.768319 -0.638551
64.9342 99.046 148.072 -0.0323932 -0.734885 -0.677418
64.0536 99.0976 148.058 -0.0323932 -0.734885 -0.677418
64.7535 99.7879 147.276 -0.0323932 -0.734885 -0.677418
64.7535 99.7879 147.276 0.46756 -0.230848 -0.853286
65.6928 100.215 147.675 0.46756 -0.230848 -0.853286
65.7688 99.5193 147.905 0.46756 -0.230848 -0.853286
64.7535 99.7879 147.276 0.310136 -0.584188 -0.750027
65.7688 99.5193 147.905 0.310136 -0.584188 -0.750027
65.3607 99.1522 148.022 0.310136 -0.584188 -0.750027
64.7535 99.7879 147.276 0.0976855 -0.716956 -0.690241
65.3607 99.1522 148.022 0.0976855 -0.716956 -0.690241
64.9342 99.046 148.072 0.0976855 -0.716956 -0.690241
65.7688 99.5193 147.905 0.635811 -0.178636 -0.750889
65.6928 100.215 147.675 0.635811 -0.178636 -0.750889
66.2162 99.8853 148.196 0.635811 -0.178636 -0.750889
62.753 100.023 147.142 -0.626554 0.779346 -0.00708121
62.7309 100.011 147.752 -0.626554 0.779346 -0.00708121
63.0025 100.229 147.706 -0.626554 0.779346 -0.00708121
63.0247 100.074 147.026 -0.271655 0.93655 -0.221533
62.753 100.023 147.142 -0.271655 0.93655 -0.221533
63.0025 100.229 147.706 -0.271655 0.93655 -0.221533
63.8077 100.805 147.637 -0.570944 0.760305 -0.309774
63.0025 100.229 147.706 -0.570944 0.760305 -0.309774
63.4842 100.79 148.195 -0.570944 0.760305 -0.309774
63.8077 100.805 147.637 -0.460096 0.560515 -0.688574
63.9114 100.228 147.098 -0.460096 0.560515 -0.688574
63.0025 100.229 147.706 -0.460096 0.560515 -0.688574
63.9114 100.228 147.098 -0.148638 0.963286 -0.223578
63.0247 100.074 147.026 -0.148638 0.963286 -0.223578
63.0025 100.229 147.706 -0.148638 0.963286 -0.223578
63.9114 100.228 147.098 0.00704188 0.336867 -0.941526
64.7905 100.839 147.323 0.00704188 0.336867 -0.941526
64.8552 100.268 147.119 0.00704188 0.336867 -0.941526
63.8077 100.805 147.637 -0.254925 0.635177 -0.729084
64.7905 100.839 147.323 -0.254925 0.635177 -0.729084
63.9114 100.228 147.098 -0.254925 0.635177 -0.729084
64.8552 100.268 147.119 0.499128 -0.36176 -0.787401
65.6928 100.215 147.675 0.499128 -0.36176 -0.787401
64.7535 99.7879 147.276 0.499128 -0.36176 -0.787401
64.8552 100.268 147.119 0.535095 0.337093 -0.774624
64.7905 100.839 147.323 0.535095 0.337093 -0.774624
65.6928 100.215 147.675 0.535095 0.337093 -0.774624
64.7905 100.839 147.323 0.342671 -0.033627 -0.938853
65.6994 101.018 147.648 0.342671 -0.033627 -0.938853
65.6928 100.215 147.675 0.342671 -0.033627 -0.938853
66.1256 100.894 148.173 0.720289 0.0485348 -0.691974
66.2162 99.8853 148.196 0.720289 0.0485348 -0.691974
65.6928 100.215 147.675 0.720289 0.0485348 -0.691974
65.6994 101.018 147.648 0.772616 -0.027208 -0.63429
66.1256 100.894 148.173 0.772616 -0.027208 -0.63429
65.6928 100.215 147.675 0.772616 -0.027208 -0.63429
63.8077 100.805 147.637 -0.585964 0.744946 -0.318906
63.4842 100.79 148.195 -0.585964 0.744946 -0.318906
64.0617 101.134 147.938 -0.585964 0.744946 -0.318906
64.7905 100.839 147.323 -0.225588 0.747146 -0.625206
63.8077 100.805 147.637 -0.225588 0.747146 -0.625206
64.0617 101.134 147.938 -0.225588 0.747146 -0.625206
64.9793 101.372 148.021 -0.157541 0.804822 -0.572226
64.7905 100.839 147.323 -0.157541 0.804822 -0.572226
64.0617 101.134 147.938 -0.157541 0.804822 -0.572226
65.6994 101.018 147.648 0.06674 0.784076 -0.617066
64.7905 100.839 147.323 0.06674 0.784076 -0.617066
64.9793 101.372 148.021 0.06674 0.784076 -0.617066
65.8435 101.574 148.084 -0.090211 0.628482 -0.772575
65.6994 101.018 147.648 -0.090211 0.628482 -0.772575
64.9793 101.372 148.021 -0.090211 0.628482 -0.772575
66.1256 100.894 148.173 0.779773 0.24805 -0.574827
65.6994 101.018 147.648 0.779773 0.24805 -0.574827
65.8435 101.574 148.084 0.779773 0.24805 -0.574827
64.0536 99.0976 148.058 -0.590275 -0.767629 -0.249643
64.0538 98.8064 148.953 -0.590275 -0.767629 -0.249643
63.5792 99.1985 148.869 -0.590275 -0.767629 -0.249643
63.5463 99.3432 148.059 -0.431575 -0.890906 -0.141526
64.0536 99.0976 148.058 -0.431575 -0.890906 -0.141526
63.5792 99.1985 148.869 -0.431575 -0.890906 -0.141526
64.9342 99.046 148.072 -0.0489669 -0.932275 -0.358422
64.8776 98.754 148.839 -0.0489669 -0.932275 -0.358422
64.0536 99.0976 148.058 -0.0489669 -0.932275 -0.358422
64.0536 99.0976 148.058 -0.102661 -0.945906 -0.307771
64.8776 98.754 148.839 -0.102661 -0.945906 -0.307771
64.0538 98.8064 148.953 -0.102661 -0.945906 -0.307771
65.3607 99.1522 148.022 0.366902 -0.841517 -0.396524
65.9243 99.18 148.484 0.366902 -0.841517 -0.396524
65.6829 98.9552 148.738 0.366902 -0.841517 -0.396524
65.3607 99.1522 148.022 0.189689 -0.921537 -0.338803
65.6829 98.9552 148.738 0.189689 -0.921537 -0.338803
64.9342 99.046 148.072 0.189689 -0.921537 -0.338803
64.9342 99.046 148.072 0.188148 -0.922443 -0.337194
65.6829 98.9552 148.738 0.188148 -0.922443 -0.337194
64.8776 98.754 148.839 0.188148 -0.922443 -0.337194
65.6829 98.9552 148.738 0.629652 -0.772202 -0.085102
65.9243 99.18 148.484 0.629652 -0.772202 -0.085102
66.1398 99.2969 149.018 0.629652 -0.772202 -0.085102
62.9515 99.8629 147.893 -0.655525 -0.693398 0.299142
62.8827 100.119 148.336 -0.655525 -0.693398 0.299142
62.7309 100.011 147.752 -0.655525 -0.693398 0.299142
62.9515 99.8629 147.893 -0.709137 -0.652492 0.26717
63.1396 100.002 148.731 -0.709137 -0.652492 0.26717
62.8827 100.119 148.336 -0.709137 -0.652492 0.26717
62.9515 99.8629 147.893 -0.675366 -0.688042 0.265478
63.5463 99.3432 148.059 -0.675366 -0.688042 0.265478
63.1396 100.002 148.731 -0.675366 -0.688042 0.265478
63.5463 99.3432 148.059 -0.872265 -0.486324 -0.0514084
63.5792 99.1985 148.869 -0.872265 -0.486324 -0.0514084
63.1396 100.002 148.731 -0.872265 -0.486324 -0.0514084
65.3607 99.1522 148.022 0.474314 -0.698311 -0.536087
65.7688 99.5193 147.905 0.474314 -0.698311 -0.536087
65.9243 99.18 148.484 0.474314 -0.698311 -0.536087
65.9243 99.18 148.484 0.721134 -0.495896 -0.483791
65.7688 99.5193 147.905 0.721134 -0.495896 -0.483791
66.2162 99.8853 148.196 0.721134 -0.495896 -0.483791
65.9243 99.18 148.484 0.856029 -0.454675 -0.245937
66.2162 99.8853 148.196 0.856029 -0.454675 -0.245937
66.1398 99.2969 149.018 0.856029 -0.454675 -0.245937
66.1398 99.2969 149.018 0.837299 -0.478415 -0.264668
66.2162 99.8853 148.196 0.837299 -0.478415 -0.264668
66.5734 100.136 148.872 0.837299 -0.478415 -0.264668
62.7309 100.011 147.752 -0.62399 0.781246 0.0170576
62.8827 100.119 148.336 -0.62399 0.781246 0.0170576
63.0025 100.229 147.706 -0.62399 0.781246 0.0170576
62.8827 100.119 148.336 -0.746951 0.664347 -0.0265976
63.4842 100.79 148.195 -0.746951 0.664347 -0.0265976
63.0025 100.229 147.706 -0.746951 0.664347 -0.0265976
62.8827 100.119 148.336 -0.561245 0.618767 0.549665
63.1396 100.002 148.731 -0.561245 0.618767 0.549665
63.4842 100.79 148.195 -0.561245 0.618767 0.549665
63.1396 100.002 148.731 -0.883897 0.456262 0.102722
63.5805 100.789 149.027 -0.883897 0.456262 0.102722
63.4842 100.79 148.195 -0.883897 0.456262 0.102722
66.2162 99.8853 148.196 0.871659 0.0669562 -0.485517
66.1256 100.894 148.173 0.871659 0.0669562 -0.485517
66.5734 100.136 148.872 0.871659 0.0669562 -0.485517
66.5734 100.136 148.872 0.91698 0.307251 -0.254452
66.1256 100.894 148.173 0.91698 0.307251 -0.254452
66.3727 100.899 149.07 0.91698 0.307251 -0.254452
63.4842 100.79 148.195 -0.686507 0.722695 0.0801272
63.5805 100.789 149.027 -0.686507 0.722695 0.0801272
64.0852 101.297 148.768 -0.686507 0.722695 0.0801272
64.0617 101.134 147.938 -0.553531 0.820022 -0.145489
63.4842 100.79 148.195 -0.553531 0.820022 -0.145489
64.0852 101.297 148.768 -0.553531 0.820022 -0.145489
64.9099 101.82 148.65 -0.543638 0.832284 -0.108453
64.0852 101.297 148.768 -0.543638 0.832284 -0.108453
64.9682 101.92 149.124 -0.543638 0.832284 -0.108453
64.9099 101.82 148.65 -0.505506 0.675573 -0.536716
64.9793 101.372 148.021 -0.505506 0.675573 -0.536716
64.0852 101.297 148.768 -0.505506 0.675573 -0.536716
64.9793 101.372 148.021 -0.231812 0.955724 -0.181259
64.0617 101.134 147.938 -0.231812 0.955724 -0.181259
64.0852 101.297 148.768 -0.231812 0.955724 -0.181259
64.9793 101.372 148.021 -0.112592 0.702556 -0.702664
65.6497 101.918 148.459 -0.112592 0.702556 -0.702664
65.8435 101.574 148.084 -0.112592 0.702556 -0.702664
64.9099 101.82 148.65 -0.252013 0.775001 -0.579537
65.6497 101.918 148.459 -0.252013 0.775001 -0.579537
64.9793 101.372 148.021 -0.252013 0.775001 -0.579537
65.8435 101.574 148.084 0.646727 0.698495 -0.306348
65.6497 101.918 148.459 0.646727 0.698495 -0.306348
66.0751 101.727 148.921 0.646727 0.698495 -0.306348
65.8435 101.574 148.084 0.892653 0.329901 -0.307141
66.0751 101.727 148.921 0.892653 0.329901 -0.307141
66.1256 100.894 148.173 0.892653 0.329901 -0.307141
66.1256 100.894 148.173 0.923402 0.285916 -0.256089
66.0751 101.727 148.921 0.923402 0.285916 -0.256089
66.3727 100.899 149.07 0.923402 0.285916 -0.256089
65.6497 101.918 148.459 -0.174566 0.967583 -0.18251
64.9099 101.82 148.65 -0.174566 0.967583 -0.18251
64.9682 101.92 149.124 -0.174566 0.967583 -0.18251
65.7818 102.029 149.029 -0.148572 0.976536 -0.155897
65.6497 101.918 148.459 -0.148572 0.976536 -0.155897
64.9682 101.92 149.124 -0.148572 0.976536 -0.155897
66.0751 101.727 148.921 0.634224 0.718002 -0.286764
65.6497 101.918 148.459 0.634224 0.718002 -0.286764
65.7818 102.029 149.029 0.634224 0.718002 -0.286764
64.0538 98.8064 148.953 -0.632838 -0.691603 0.348139
63.8956 99.1675 149.383 -0.632838 -0.691603 0.348139
63.5792 99.1985 148.869 -0.632838 -0.691603 0.348139
64.0538 98.8064 148.953 -0.00977457 -0.933566 0.358273
64.8776 98.754 148.839 -0.00977457 -0.933566 0.358273
64.7024 99.0205 149.529 -0.00977457 -0.933566 0.358273
63.8956 99.1675 149.383 -0.245831 -0.784813 0.56889
64.0538 98.8064 148.953 -0.245831 -0.784813 0.56889
64.7024 99.0205 149.529 -0.245831 -0.784813 0.56889
64.8776 98.754 148.839 0.256438 -0.956594 0.138448
65.6829 98.9552 148.738 0.256438 -0.956594 0.138448
65.6404 99.0215 149.275 0.256438 -0.956594 0.138448
64.7024 99.0205 149.529 0.104334 -0.918488 0.381437
64.8776 98.754 148.839 0.104334 -0.918488 0.381437
65.6404 99.0215 149.275 0.104334 -0.918488 0.381437
65.6829 98.9552 148.738 0.533804 -0.833058 0.145149
66.1398 99.2969 149.018 0.533804 -0.833058 0.145149
65.6404 99.0215 149.275 0.533804 -0.833058 0.145149
63.8956 99.1675 149.383 -0.621267 -0.439488 0.648751
64.1394 99.6457 149.94 -0.621267 -0.439488 0.648751
63.5703 99.9987 149.634 -0.621267 -0.439488 0.648751
63.8956 99.1675 149.383 -0.776014 -0.440363 0.451533
63.5703 99.9987 149.634 -0.776014 -0.440363 0.451533
63.5792 99.1985 148.869 -0.776014 -0.440363 0.451533
63.5792 99.1985 148.869 -0.832664 -0.387519 0.395599
63.5703 99.9987 149.634 -0.832664 -0.387519 0.395599
63.1396 100.002 148.731 -0.832664 -0.387519 0.395599
64.7024 99.0205 149.529 -0.248592 -0.678728 0.691036
64.1394 99.6457 149.94 -0.248592 -0.678728 0.691036
63.8956 99.1675 149.383 -0.248592 -0.678728 0.691036
65.1017 99.3593 149.983 -0.23087 -0.671427 0.704191
64.1394 99.6457 149.94 -0.23087 -0.671427 0.704191
64.7024 99.0205 149.529 -0.23087 -0.671427 0.704191
65.6404 99.0215 149.275 0.139281 -0.848398 0.510707
65.1017 99.3593 149.983 0.139281 -0.848398 0.510707
64.7024 99.0205 149.529 0.139281 -0.848398 0.510707
65.9311 99.4202 149.829 0.158326 -0.838941 0.520682
65.1017 99.3593 149.983 0.158326 -0.838941 0.520682
65.6404 99.0215 149.275 0.158326 -0.838941 0.520682
65.9311 99.4202 149.829 0.566197 -0.780612 0.264698
65.6404 99.0215 149.275 0.566197 -0.780612 0.264698
66.1398 99.2969 149.018 0.566197 -0.780612 0.264698
65.9311 99.4202 149.829 0.77072 -0.569729 0.285306
66.1398 99.2969 149.018 0.77072 -0.569729 0.285306
66.469 100.139 149.812 0.77072 -0.569729 0.285306
66.469 100.139 149.812 0.89105 -0.442665 0.100385
66.1398 99.2969 149.018 0.89105 -0.442665 0.100385
66.5734 100.136 148.872 0.89105 -0.442665 0.100385
63.1396 100.002 148.731 -0.853471 0.32444 0.40783
63.5703 99.9987 149.634 -0.853471 0.32444 0.40783
63.5805 100.789 149.027 -0.853471 0.32444 0.40783
63.5703 99.9987 149.634 -0.862835 0.314974 0.395356
63.9893 101.055 149.707 -0.862835 0.314974 0.395356
63.5805 100.789 149.027 -0.862835 0.314974 0.395356
66.5734 100.136 148.872 0.968025 0.226972 0.106825
66.3727 100.899 149.07 0.968025 0.226972 0.106825
66.469 100.139 149.812 0.968025 0.226972 0.106825
66.469 100.139 149.812 0.994917 0.0334221 -0.0949915
66.3727 100.899 149.07 0.994917 0.0334221 -0.0949915
66.4359 101.103 149.804 0.994917 0.0334221 -0.0949915
64.0852 101.297 148.768 -0.673345 0.72962 0.119418
63.5805 100.789 149.027 -0.673345 0.72962 0.119418
63.9893 101.055 149.707 -0.673345 0.72962 0.119418
63.9893 101.055 149.707 -0.607748 0.781769 0.139571
64.9682 101.92 149.124 -0.607748 0.781769 0.139571
64.0852 101.297 148.768 -0.607748 0.781769 0.139571
64.7918 101.786 149.869 -0.6704 0.741576 -0.0250846
64.9682 101.92 149.124 -0.6704 0.741576 -0.0250846
63.9893 101.055 149.707 -0.6704 0.741576 -0.0250846
66.3727 100.899 149.07 0.937087 0.307085 -0.166035
66.0751 101.727 148.921 0.937087 0.307085 -0.166035
66.4359 101.103 149.804 0.937087 0.307085 -0.166035
66.4359 101.103 149.804 0.659521 0.714064 0.234829
66.0751 101.727 148.921 0.659521 0.714064 0.234829
65.6897 101.775 149.856 0.659521 0.714064 0.234829
65.7818 102.029 149.029 -0.094819 0.954506 0.282716
64.9682 101.92 149.124 -0.094819 0.954506 0.282716
65.6897 101.775 149.856 -0.094819 0.954506 0.282716
64.9682 101.92 149.124 0.0146432 0.983432 0.180685
64.7918 101.786 149.869 0.0146432 0.983432 0.180685
65.6897 101.775 149.856 0.0146432 0.983432 0.180685
65.6897 101.775 149.856 0.7376 0.618051 0.271955
66.0751 101.727 148.921 0.7376 0.618051 0.271955
65.7818 102.029 149.029 0.7376 0.618051 0.271955
64.1394 99.6457 149.94 -0.574012 -0.249685 0.779851
64.0656 100.309 150.098 -0.574012 -0.249685 0.779851
63.5703 99.9987 149.634 -0.574012 -0.249685 0.779851
64.1394 99.6457 149.94 -0.207769 -0.581612 0.786485
65.1017 99.3593 149.983 -0.207769 -0.581612 0.786485
64.9358 100.109 150.493 -0.207769 -0.581612 0.786485
64.0656 100.309 150.098 -0.447521 -0.254121 0.857408
64.1394 99.6457 149.94 -0.447521 -0.254121 0.857408
64.9358 100.109 150.493 -0.447521 -0.254121 0.857408
65.1017 99.3593 149.983 0.180532 -0.693207 0.697763
65.9311 99.4202 149.829 0.180532 -0.693207 0.697763
65.8065 99.961 150.398 0.180532 -0.693207 0.697763
64.9358 100.109 150.493 -0.00555363 -0.563734 0.825938
65.1017 99.3593 149.983 -0.00555363 -0.563734 0.825938
65.8065 99.961 150.398 -0.00555363 -0.563734 0.825938
65.9311 99.4202 149.829 0.65185 -0.473556 0.592315
66.469 100.139 149.812 0.65185 -0.473556 0.592315
65.8065 99.961 150.398 0.65185 -0.473556 0.592315
64.0656 100.309 150.098 -0.833567 0.187308 0.519695
64.2432 101.149 150.081 -0.833567 0.187308 0.519695
63.9893 101.055 149.707 -0.833567 0.187308 0.519695
63.5703 99.9987 149.634 -0.740976 0.25094 0.622884
64.0656 100.309 150.098 -0.740976 0.25094 0.622884
63.9893 101.055 149.707 -0.740976 0.25094 0.622884
64.9358 100.109 150.493 -0.410519 0.0136388 0.91175
64.9216 101.019 150.473 -0.410519 0.0136388 0.91175
64.0656 100.309 150.098 -0.410519 0.0136388 0.91175
64.9216 101.019 150.473 -0.479908 0.119864 0.869092
64.2432 101.149 150.081 -0.479908 0.119864 0.869092
64.0656 100.309 150.098 -0.479908 0.119864 0.869092
65.8065 99.961 150.398 0.0855295 -0.132038 0.987548
65.8666 100.82 150.508 0.0855295 -0.132038 0.987548
64.9358 100.109 150.493 0.0855295 -0.132038 0.987548
65.8666 100.82 150.508 -0.0319231 0.0214836 0.999259
64.9216 101.019 150.473 -0.0319231 0.0214836 0.999259
64.9358 100.109 150.493 -0.0319231 0.0214836 0.999259
66.469 100.139 149.812 0.770889 0.0315842 0.636186
66.4359 101.103 149.804 0.770889 0.0315842 0.636186
65.8666 100.82 150.508 0.770889 0.0315842 0.636186
65.8065 99.961 150.398 0.677138 -0.139655 0.722482
66.469 100.139 149.812 0.677138 -0.139655 0.722482
65.8666 100.82 150.508 0.677138 -0.139655 0.722482
64.7918 101.786 149.869 -0.675795 0.678106 0.288919
63.9893 101.055 149.707 -0.675795 0.678106 0.288919
64.2432 101.149 150.081 -0.675795 0.678106 0.288919
64.7918 101.786 149.869 -0.564859 0.653913 0.503321
64.2432 101.149 150.081 -0.564859 0.653913 0.503321
64.9042 101.707 150.097 -0.564859 0.653913 0.503321
64.9042 101.707 150.097 -0.38725 0.434604 0.813115
64.2432 101.149 150.081 -0.38725 0.434604 0.813115
64.9216 101.019 150.473 -0.38725 0.434604 0.813115
65.8666 100.82 150.508 0.090861 0.572654 0.814746
65.6897 101.775 149.856 0.090861 0.572654 0.814746
64.9216 101.019 150.473 0.090861 0.572654 0.814746
65.6897 101.775 149.856 0.220954 0.472025 0.853447
64.9042 101.707 150.097 0.220954 0.472025 0.853447
64.9216 101.019 150.473 0.220954 0.472025 0.853447
65.8666 100.82 150.508 0.533615 0.541851 0.649348
66.4359 101.103 149.804 0.533615 0.541851 0.649348
65.6897 101.775 149.856 0.533615 0.541851 0.649348
65.6897 101.775 149.856 0.0161119 0.947779 0.31852
64.7918 101.786 149.869 0.0161119 0.947779 0.31852
64.9042 101.707 150.097 0.0161119 0.947779 0.31852
3 0 1 2
3 3 4 5
3 6 7 8
3 9 10 11
3 12 13 14
3 15 16 17
3 18 19 20
3 21 22 23
3 24 25 26
3 27 28 29
3 30 31 32
3 33 34 35
3 36 37 38
3 39 40 41
3 42 43 44
3 45 46 47
3 48 49 50
3 51 52 53
3 54 55 56
3 57 58 59
3 60 61 62
3 63 64 65
3 66 67 68
3 69 70 71
3 72 73 74
3 75 76 77
3 78 79 80
3 81 82 83
3 84 85 86
3 87 88 89
3 90 91 92
3 93 94 95
3 96 97 98
3 99 100 101
3 102 103 104
3 105 106 107
3 108 109 110
3 111 112 113
3 114 115 116
3 117 118 119
3 120 121 122
3 123 124 125
3 126 127 128
3 129 130 131
3 132 133 134
3 135 136 137
3 138 139 140
3 141 142 143
3 144 145 146
3 147 148 149
3 150 151 152
3 153 154 155
3 156 157 158
3 159 160 161
3 162 163 164
3 165 166 167
3 168 169 170
3 171 172 173
3 174 175 176
3 177 178 179
3 180 181 182
3 183 184 185
3 186 187 188
3 189 190 191
3 192 193 194
3 195 196 197
3 198 199 200
3 201 202 203
3 204 205 206
3 207 208 209
3 210 211 212
3 213 214 215
3 216 217 218
3 219 220 221
3 222 223 224
3 225 226 227
3 228 229 230
3 231 232 233
3 234 235 236
3 237 238 239
3 240 241 242
3 243 244 245
3 246 247 248
3 249 250 251
3 252 253 254
3 255 256 257
3 258 259 260
3 261 262 263
3 264 265 266
3 267 268 269
3 270 271 272
3 273 274 275
3 276 277 278
3 279 280 281
3 282 283 284
3 285 286 287
3 288 289 290
3 291 292 293
3 294 295 296
3 297 298 299
3 300 301 302
3 303 304 305
3 306 307 308
3 309 310 311
3 312 313 314
3 315 316 317
3 318 319 320
3 321 322 323
3 324 325 326
3 327 328 329
3 330 331 332
3 333 334 335
3 336 337 338
3 339 340 341
3 342 343 344
3 345 346 347
3 348 349 350
3 351 352 353
3 354 355 356
3 357 358 359
3 360 361 362
3 363 364 365
