ply
format ascii 1.0
element vertex 588
property float x
property float y
property float z
property float nx
property float ny
property float nz
element face 196
property list uint uint vertex_indices
end_header
61.5487 70.27 144.422 -0.0954086 -0.573529 -0.813611
61.4244 69.4447 145.018 -0.0954086 -0.573529 -0.813611
60.852 69.867 144.788 -0.0954086 -0.573529 -0.813611
61.4244 69.4447 145.018 0.539854 -0.544907 -0.641587
61.5487 70.27 144.422 0.539854 -0.544907 -0.641587
62.1343 70.0372 145.113 0.539854 -0.544907 -0.641587
60.6846 70.7885 144.297 -0.636358 -0.349208 -0.687824
60.4396 70.1304 144.857 -0.636358 -0.349208 -0.687824
59.8783 70.9506 144.96 -0.636358 -0.349208 -0.687824
60.852 69.867 144.788 -0.436812 -0.483656 -0.758467
60.4396 70.1304 144.857 -0.436812 -0.483656 -0.758467
60.6846 70.7885 144.297 -0.436812 -0.483656 -0.758467
60.852 69.867 144.788 -0.16803 -0.487301 -0.856915
60.6846 70.7885 144.297 -0.16803 -0.487301 -0.856915
61.5487 70.27 144.422 -0.16803 -0.487301 -0.856915
60.5912 71.8795 144.21 -0.644986 -0.115077 -0.75548
60.6846 70.7885 144.297 -0.644986 -0.115077 -0.75548
59.8783 70.9506 144.96 -0.644986 -0.115077 -0.75548
59.8958 72.0428 144.783 -0.647643 -0.111619 -0.753724
60.5912 71.8795 144.21 -0.647643 -0.111619 -0.753724
59.8783 70.9506 144.96 -0.647643 -0.111619 -0.753724
61.5487 70.27 144.422 0.0701603 -0.122572 -0.989977
60.6846 70.7885 144.297 0.0701603 -0.122572 -0.989977
61.5371 71.7574 144.237 0.0701603 -0.122572 -0.989977
61.5371 71.7574 144.237 0.0183762 -0.0774267 -0.996829
60.6846 70.7885 144.297 0.0183762 -0.0774267 -0.996829
60.5912 71.8795 144.21 0.0183762 -0.0774267 -0.996829
62.2821 71.5667 145.181 0.754609 -0.0437362 -0.654716
62.1343 70.0372 145.113 0.754609 -0.0437362 -0.654716
61.5487 70.27 144.422 0.754609 -0.0437362 -0.654716
61.5371 71.7574 144.237 0.775745 -0.0719472 -0.626932
62.2821 71.5667 145.181 0.775745 -0.0719472 -0.626932
61.5487 70.27 144.422 0.775745 -0.0719472 -0.626932
60.6001 72.9213 144.286 -0.626271 0.0616466 -0.777164
60.5912 71.8795 144.21 -0.626271 0.0616466 -0.777164
59.8958 72.0428 144.783 -0.626271 0.0616466 -0.777164
59.9499 73.0792 145.055 -0.72511 0.209584 -0.655965
60.6001 72.9213 144.286 -0.72511 0.209584 -0.655965
59.8958 72.0428 144.783 -0.72511 0.209584 -0.655965
61.5371 71.7574 144.237 0.0248785 -0.0275715 -0.99931
60.5912 71.8795 144.21 0.0248785 -0.0275715 -0.99931
61.5231 72.8658 144.206 0.0248785 -0.0275715 -0.99931
61.5231 72.8658 144.206 -0.0812106 0.0726854 -0.994043
60.5912 71.8795 144.21 -0.0812106 0.0726854 -0.994043
60.6001 72.9213 144.286 -0.0812106 0.0726854 -0.994043
62.2323 72.7183 144.792 0.753869 -0.180784 -0.631663
62.2821 71.5667 145.181 0.753869 -0.180784 -0.631663
61.5371 71.7574 144.237 0.753869 -0.180784 -0.631663
61.5231 72.8658 144.206 0.634989 -0.0135398 -0.772402
62.2323 72.7183 144.792 0.634989 -0.0135398 -0.772402
61.5371 71.7574 144.237 0.634989 -0.0135398 -0.772402
60.6001 72.9213 144.286 -0.634505 0.449684 -0.628639
59.9499 73.0792 145.055 -0.634505 0.449684 -0.628639
60.7602 73.8793 144.809 -0.634505 0.449684 -0.628639
60.7602 73.8793 144.809 -0.429317 0.487403 -0.760345
61.4496 73.7707 144.35 -0.429317 0.487403 -0.760345
60.6001 72.9213 144.286 -0.429317 0.487403 -0.760345
60.6001 72.9213 144.286 -0.0757742 0.151016 -0.985623
61.4496 73.7707 144.35 -0.0757742 0.151016 -0.985623
61.5231 72.8658 144.206 -0.0757742 0.151016 -0.985623
62.2707 73.6807 144.917 0.644019 0.0731419 -0.761505
62.2323 72.7183 144.792 0.644019 0.0731419 -0.761505
61.5231 72.8658 144.206 0.644019 0.0731419 -0.761505
61.4496 73.7707 144.35 0.57187 0.174296 -0.801614
62.2707 73.6807 144.917 0.57187 0.174296 -0.801614
61.5231 72.8658 144.206 0.57187 0.174296 -0.801614
61.4496 73.7707 144.35 -0.352641 0.641201 -0.681547
60.7602 73.8793 144.809 -0.352641 0.641201 -0.681547
61.6143 74.6879 145.128 -0.352641 0.641201 -0.681547
62.2707 73.6807 144.917 0.530419 0.49085 -0.691175
61.4496 73.7707 144.35 0.530419 0.49085 -0.691175
61.6143 74.6879 145.128 0.530419 0.49085 -0.691175
60.3405 69.5088 145.717 -0.371407 -0.779159 -0.504943
60.852 69.867 144.788 -0.371407 -0.779159 -0.504943
61.4244 69.4447 145.018 -0.371407 -0.779159 -0.504943
60.3405 69.5088 145.717 0.00614294 -0.994897 0.100709
61.4244 69.4447 145.018 0.00614294 -0.994897 0.100709
61.5487 69.5501 146.052 0.00614294 -0.994897 0.100709
61.5487 69.5501 146.052 0.640625 -0.767852 0.00124251
61.4244 69.4447 145.018 0.640625 -0.767852 0.00124251
62.1343 70.0372 145.113 0.640625 -0.767852 0.00124251
62.2431 70.0613 145.839 0.579895 -0.812496 -0.0597637
61.5487 69.5501 146.052 0.579895 -0.812496 -0.0597637
62.1343 70.0372 145.113 0.579895 -0.812496 -0.0597637
59.4932 70.6233 145.427 -0.755686 -0.349197 -0.554076
59.3817 70.0561 145.936 -0.755686 -0.349197 -0.554076
58.9438 70.7612 146.089 -0.755686 -0.349197 -0.554076
60.3405 69.5088 145.717 -0.46778 -0.538012 -0.701231
59.3817 70.0561 145.936 -0.46778 -0.538012 -0.701231
59.4932 70.6233 145.427 -0.46778 -0.538012 -0.701231
60.3405 69.5088 145.717 -0.439252 -0.523774 -0.729876
59.4932 70.6233 145.427 -0.439252 -0.523774 -0.729876
59.8783 70.9506 144.96 -0.439252 -0.523774 -0.729876
60.3405 69.5088 145.717 -0.76916 -0.472398 -0.430387
59.8783 70.9506 144.96 -0.76916 -0.472398 -0.430387
60.4396 70.1304 144.857 -0.76916 -0.472398 -0.430387
60.852 69.867 144.788 -0.515761 -0.664844 -0.540346
60.3405 69.5088 145.717 -0.515761 -0.664844 -0.540346
60.4396 70.1304 144.857 -0.515761 -0.664844 -0.540346
62.2431 70.0613 145.839 0.96739 -0.212578 -0.137725
62.1343 70.0372 145.113 0.96739 -0.212578 -0.137725
62.3615 70.6869 145.706 0.96739 -0.212578 -0.137725
59.4932 70.6233 145.427 -0.730082 0.211942 -0.649662
58.9438 70.7612 146.089 -0.730082 0.211942 -0.649662
59.3966 71.3474 145.772 -0.730082 0.211942 -0.649662
59.3966 71.3474 145.772 -0.813213 0.158183 -0.560056
59.8783 70.9506 144.96 -0.813213 0.158183 -0.560056
59.4932 70.6233 145.427 -0.813213 0.158183 -0.560056
59.3966 71.3474 145.772 -0.77039 0.257569 -0.583231
59.6221 72.0038 145.764 -0.77039 0.257569 -0.583231
59.8783 70.9506 144.96 -0.77039 0.257569 -0.583231
59.6221 72.0038 145.764 -0.962501 -0.0282544 -0.269804
59.8958 72.0428 144.783 -0.962501 -0.0282544 -0.269804
59.8783 70.9506 144.96 -0.962501 -0.0282544 -0.269804
62.1343 70.0372 145.113 0.956998 -0.080059 -0.278828
62.2821 71.5667 145.181 0.956998 -0.080059 -0.278828
62.3615 70.6869 145.706 0.956998 -0.080059 -0.278828
59.8958 72.0428 144.783 -0.957575 0.118744 -0.262583
59.6221 72.0038 145.764 -0.957575 0.118744 -0.262583
59.9499 73.0792 145.055 -0.957575 0.118744 -0.262583
59.6221 72.0038 145.764 -0.965213 0.155711 -0.210041
59.7919 73.5421 146.124 -0.965213 0.155711 -0.210041
59.9499 73.0792 145.055 -0.965213 0.155711 -0.210041
62.2821 71.5667 145.181 0.970848 -0.037976 -0.236668
62.2323 72.7183 144.792 0.970848 -0.037976 -0.236668
62.496 72.8683 145.849 0.970848 -0.037976 -0.236668
60.5153 74.4282 145.682 -0.674944 0.524179 -0.519314
60.7602 73.8793 144.809 -0.674944 0.524179 -0.519314
59.9499 73.0792 145.055 -0.674944 0.524179 -0.519314
60.5153 74.4282 145.682 -0.805092 0.491632 -0.33185
59.9499 73.0792 145.055 -0.805092 0.491632 -0.33185
59.7919 73.5421 146.124 -0.805092 0.491632 -0.33185
62.7237 73.4252 145.753 0.809465 -0.270699 -0.521046
62.2707 73.6807 144.917 0.809465 -0.270699 -0.521046
62.6793 74.1754 145.294 0.809465 -0.270699 -0.521046
62.7237 73.4252 145.753 0.750288 -0.397995 -0.52789
62.496 72.8683 145.849 0.750288 -0.397995 -0.52789
62.2707 73.6807 144.917 0.750288 -0.397995 -0.52789
62.496 72.8683 145.849 0.970517 -0.0074351 -0.240917
62.2323 72.7183 144.792 0.970517 -0.0074351 -0.240917
62.2707 73.6807 144.917 0.970517 -0.0074351 -0.240917
62.7237 73.4252 145.753 0.695563 -0.344412 -0.630533
62.6793 74.1754 145.294 0.695563 -0.344412 -0.630533
63.2069 73.9567 145.996 0.695563 -0.344412 -0.630533
61.6143 74.6879 145.128 -0.467752 0.603892 -0.645385
60.5153 74.4282 145.682 -0.467752 0.603892 -0.645385
60.9252 75.1556 146.065 -0.467752 0.603892 -0.645385
61.6143 74.6879 145.128 -0.44768 0.694801 -0.562881
60.7602 73.8793 144.809 -0.44768 0.694801 -0.562881
60.5153 74.4282 145.682 -0.44768 0.694801 -0.562881
61.6143 74.6879 145.128 0.322845 0.391384 -0.861737
62.6793 74.1754 145.294 0.322845 0.391384 -0.861737
62.2707 73.6807 144.917 0.322845 0.391384 -0.861737
61.6143 74.6879 145.128 0.207506 0.116184 -0.97131
62.5311 75.0319 145.365 0.207506 0.116184 -0.97131
62.6793 74.1754 145.294 0.207506 0.116184 -0.97131
63.2499 74.9016 146.014 0.795294 -0.0242478 -0.605738
63.2069 73.9567 145.996 0.795294 -0.0242478 -0.605738
62.6793 74.1754 145.294 0.795294 -0.0242478 -0.605738
62.5311 75.0319 145.365 0.677263 0.176197 -0.714331
63.2499 74.9016 146.014 0.677263 0.176197 -0.714331
62.6793 74.1754 145.294 0.677263 0.176197 -0.714331
61.6143 74.6879 145.128 -0.486072 0.584863 -0.649361
60.9252 75.1556 146.065 -0.486072 0.584863 -0.649361
61.8396 75.6051 145.785 -0.486072 0.584863 -0.649361
62.5311 75.0319 145.365 -0.00928101 0.584029 -0.81168
61.6143 74.6879 145.128 -0.00928101 0.584029 -0.81168
61.8396 75.6051 145.785 -0.00928101 0.584029 -0.81168
62.7119 75.6409 145.932 0.0972641 0.66219 -0.742996
62.5311 75.0319 145.365 0.0972641 0.66219 -0.742996
61.8396 75.6051 145.785 0.0972641 0.66219 -0.742996
63.2499 74.9016 146.014 0.652662 0.402981 -0.64159
62.5311 75.0319 145.365 0.652662 0.402981 -0.64159
62.7119 75.6409 145.932 0.652662 0.402981 -0.64159
59.4732 69.6753 146.24 -0.61011 -0.739492 -0.284459
59.5997 69.2997 146.945 -0.61011 -0.739492 -0.284459
58.9163 69.9523 146.715 -0.61011 -0.739492 -0.284459
59.4732 69.6753 146.24 -0.491436 -0.612319 -0.619319
59.3817 70.0561 145.936 -0.491436 -0.612319 -0.619319
60.3405 69.5088 145.717 -0.491436 -0.612319 -0.619319
59.4732 69.6753 146.24 -0.389292 -0.840126 -0.377677
60.3405 69.5088 145.717 -0.389292 -0.840126 -0.377677
59.5997 69.2997 146.945 -0.389292 -0.840126 -0.377677
59.5997 69.2997 146.945 -0.108019 -0.967249 -0.229696
60.3405 69.5088 145.717 -0.108019 -0.967249 -0.229696
60.5878 69.2334 146.76 -0.108019 -0.967249 -0.229696
61.5487 69.5501 146.052 0.528665 -0.760301 0.377434
61.1846 69.8379 147.142 0.528665 -0.760301 0.377434
60.5878 69.2334 146.76 0.528665 -0.760301 0.377434
61.5487 69.5501 146.052 0.109748 -0.954315 -0.277916
60.5878 69.2334 146.76 0.109748 -0.954315 -0.277916
60.3405 69.5088 145.717 0.109748 -0.954315 -0.277916
59.3817 70.0561 145.936 -0.683261 -0.548668 -0.481786
59.4732 69.6753 146.24 -0.683261 -0.548668 -0.481786
58.9163 69.9523 146.715 -0.683261 -0.548668 -0.481786
59.3817 70.0561 145.936 -0.774759 -0.370019 -0.512673
58.9163 69.9523 146.715 -0.774759 -0.370019 -0.512673
58.9438 70.7612 146.089 -0.774759 -0.370019 -0.512673
58.9438 70.7612 146.089 -0.996997 -0.0231622 -0.0738892
58.9163 69.9523 146.715 -0.996997 -0.0231622 -0.0738892
58.8771 70.6767 147.016 -0.996997 -0.0231622 -0.0738892
61.5487 69.5501 146.052 0.575922 -0.520116 0.630708
62.2431 70.0613 145.839 0.575922 -0.520116 0.630708
62.1895 70.8563 146.544 0.575922 -0.520116 0.630708
62.1895 70.8563 146.544 0.964913 -0.134711 0.225382
62.2431 70.0613 145.839 0.964913 -0.134711 0.225382
62.3615 70.6869 145.706 0.964913 -0.134711 0.225382
58.9438 70.7612 146.089 -0.874698 0.484303 -0.0188274
58.8771 70.6767 147.016 -0.874698 0.484303 -0.0188274
59.3059 71.4363 146.635 -0.874698 0.484303 -0.0188274
59.3966 71.3474 145.772 -0.819293 0.555193 -0.143247
58.9438 70.7612 146.089 -0.819293 0.555193 -0.143247
59.3059 71.4363 146.635 -0.819293 0.555193 -0.143247
59.3059 71.4363 146.635 -0.938012 0.320658 -0.131575
59.6221 72.0038 145.764 -0.938012 0.320658 -0.131575
59.3966 71.3474 145.772 -0.938012 0.320658 -0.131575
59.5963 72.026 146.928 -0.891112 0.452891 -0.0284334
59.6221 72.0038 145.764 -0.891112 0.452891 -0.0284334
59.3059 71.4363 146.635 -0.891112 0.452891 -0.0284334
62.3615 70.6869 145.706 0.969471 0.184197 0.161853
62.2821 71.5667 145.181 0.969471 0.184197 0.161853
62.1895 70.8563 146.544 0.969471 0.184197 0.161853
62.1895 70.8563 146.544 0.996295 -0.0823597 0.0247572
62.2821 71.5667 145.181 0.996295 -0.0823597 0.0247572
62.2819 72.0663 146.85 0.996295 -0.0823597 0.0247572
59.6221 72.0038 145.764 -0.993034 0.115309 -0.0242551
59.5963 72.026 146.928 -0.993034 0.115309 -0.0242551
59.7919 73.5421 146.124 -0.993034 0.115309 -0.0242551
59.5963 72.026 146.928 -0.992323 0.0765861 -0.0971054
59.6725 73.0116 146.926 -0.992323 0.0765861 -0.0971054
59.7919 73.5421 146.124 -0.992323 0.0765861 -0.0971054
62.2821 71.5667 145.181 0.980049 -0.190383 0.0570836
62.496 72.8683 145.849 0.980049 -0.190383 0.0570836
62.2819 72.0663 146.85 0.980049 -0.190383 0.0570836
62.2819 72.0663 146.85 0.97696 -0.209415 0.0411677
62.496 72.8683 145.849 0.97696 -0.209415 0.0411677
62.492 73.0805 147.025 0.97696 -0.209415 0.0411677
59.6725 73.0116 146.926 -0.9786 0.20554 -0.0097755
59.8429 73.8305 147.084 -0.9786 0.20554 -0.0097755
59.7919 73.5421 146.124 -0.9786 0.20554 -0.0097755
62.496 72.8683 145.849 0.776203 -0.619982 0.114593
62.8011 73.3932 146.623 0.776203 -0.619982 0.114593
62.492 73.0805 147.025 0.776203 -0.619982 0.114593
62.7237 73.4252 145.753 0.915439 -0.390896 -0.0957679
62.8011 73.3932 146.623 0.915439 -0.390896 -0.0957679
62.496 72.8683 145.849 0.915439 -0.390896 -0.0957679
62.8011 73.3932 146.623 0.757273 -0.646716 -0.0910834
62.7237 73.4252 145.753 0.757273 -0.646716 -0.0910834
63.2069 73.9567 145.996 0.757273 -0.646716 -0.0910834
63.2418 74.1949 146.815 0.859969 -0.498715 0.108335
62.8011 73.3932 146.623 0.859969 -0.498715 0.108335
63.2069 73.9567 145.996 0.859969 -0.498715 0.108335
59.7919 73.5421 146.124 -0.839477 0.531091 -0.114982
59.8429 73.8305 147.084 -0.839477 0.531091 -0.114982
60.3867 74.6037 146.685 -0.839477 0.531091 -0.114982
60.5153 74.4282 145.682 -0.805582 0.557445 -0.200728
59.7919 73.5421 146.124 -0.805582 0.557445 -0.200728
60.3867 74.6037 146.685 -0.805582 0.557445 -0.200728
60.3867 74.6037 146.685 -0.804355 0.559163 -0.200871
60.9252 75.1556 146.065 -0.804355 0.559163 -0.200871
60.5153 74.4282 145.682 -0.804355 0.559163 -0.200871
60.6817 75.0516 146.992 -0.781484 0.608725 -0.136885
60.9252 75.1556 146.065 -0.781484 0.608725 -0.136885
60.3867 74.6037 146.685 -0.781484 0.608725 -0.136885
63.2069 73.9567 145.996 0.998555 -0.0449192 -0.0294991
63.2499 74.9016 146.014 0.998555 -0.0449192 -0.0294991
63.2418 74.1949 146.815 0.998555 -0.0449192 -0.0294991
63.2418 74.1949 146.815 0.998208 -0.0495328 -0.0335747
63.2499 74.9016 146.014 0.998208 -0.0495328 -0.0335747
63.2949 75.1173 147.034 0.998208 -0.0495328 -0.0335747
61.5732 75.9514 146.247 -0.478795 0.54667 -0.686955
61.8396 75.6051 145.785 -0.478795 0.54667 -0.686955
60.9252 75.1556 146.065 -0.478795 0.54667 -0.686955
61.5732 75.9514 146.247 -0.654716 0.628837 -0.419418
60.9252 75.1556 146.065 -0.654716 0.628837 -0.419418
61.0031 75.8672 147.01 -0.654716 0.628837 -0.419418
61.0031 75.8672 147.01 -0.910404 0.363113 -0.198276
60.9252 75.1556 146.065 -0.910404 0.363113 -0.198276
60.6817 75.0516 146.992 -0.910404 0.363113 -0.198276
61.8396 75.6051 145.785 0.0965116 0.666213 -0.73949
62.4518 76.0779 146.291 0.0965116 0.666213 -0.73949
62.7119 75.6409 145.932 0.0965116 0.666213 -0.73949
61.5732 75.9514 146.247 -0.0796898 0.774519 -0.627511
62.4518 76.0779 146.291 -0.0796898 0.774519 -0.627511
61.8396 75.6051 145.785 -0.0796898 0.774519 -0.627511
62.7119 75.6409 145.932 0.501264 0.70796 -0.497521
62.4518 76.0779 146.291 0.501264 0.70796 -0.497521
63.198 75.8483 146.716 0.501264 0.70796 -0.497521
62.7119 75.6409 145.932 0.701848 0.448682 -0.553258
63.198 75.8483 146.716 0.701848 0.448682 -0.553258
63.2499 74.9016 146.014 0.701848 0.448682 -0.553258
63.2499 74.9016 146.014 0.992514 0.103026 -0.0655923
63.198 75.8483 146.716 0.992514 0.103026 -0.0655923
63.2949 75.1173 147.034 0.992514 0.103026 -0.0655923
61.5732 75.9514 146.247 -0.590974 0.721078 -0.361659
61.0031 75.8672 147.01 -0.590974 0.721078 -0.361659
61.8331 76.5172 146.95 -0.590974 0.721078 -0.361659
62.4518 76.0779 146.291 -0.083199 0.791257 -0.605797
61.5732 75.9514 146.247 -0.083199 0.791257 -0.605797
61.8331 76.5172 146.95 -0.083199 0.791257 -0.605797
62.6872 76.4687 147.016 0.0872039 0.864657 -0.494736
62.4518 76.0779 146.291 0.0872039 0.864657 -0.494736
61.8331 76.5172 146.95 0.0872039 0.864657 -0.494736
63.198 75.8483 146.716 0.510527 0.67648 -0.530789
62.4518 76.0779 146.291 0.510527 0.67648 -0.530789
62.6872 76.4687 147.016 0.510527 0.67648 -0.530789
59.5997 69.2997 146.945 -0.637866 -0.765594 0.0836281
59.6187 69.3864 147.883 -0.637866 -0.765594 0.0836281
59.0013 69.874 147.639 -0.637866 -0.765594 0.0836281
58.9163 69.9523 146.715 -0.691 -0.722851 0.00237751
59.5997 69.2997 146.945 -0.691 -0.722851 0.00237751
59.0013 69.874 147.639 -0.691 -0.722851 0.00237751
60.5878 69.2334 146.76 -0.047583 -0.993684 0.101628
60.4298 69.3333 147.662 -0.047583 -0.993684 0.101628
59.5997 69.2997 146.945 -0.047583 -0.993684 0.101628
59.5997 69.2997 146.945 -0.0398366 -0.994895 0.0927156
60.4298 69.3333 147.662 -0.0398366 -0.994895 0.0927156
59.6187 69.3864 147.883 -0.0398366 -0.994895 0.0927156
60.4298 69.3333 147.662 0.634147 -0.748514 0.193869
60.5878 69.2334 146.76 0.634147 -0.748514 0.193869
61.1846 69.8379 147.142 0.634147 -0.748514 0.193869
60.9573 69.9937 147.925 0.670656 -0.665872 0.326856
60.4298 69.3333 147.662 0.670656 -0.665872 0.326856
61.1846 69.8379 147.142 0.670656 -0.665872 0.326856
59.2937 70.5142 147.789 -0.746427 0.44374 0.495925
59.3573 71.0278 147.425 -0.746427 0.44374 0.495925
58.8771 70.6767 147.016 -0.746427 0.44374 0.495925
59.2937 70.5142 147.789 -0.825939 0.260064 0.500192
58.8771 70.6767 147.016 -0.825939 0.260064 0.500192
59.0013 69.874 147.639 -0.825939 0.260064 0.500192
59.0013 69.874 147.639 -0.992533 -0.0885966 0.0838427
58.8771 70.6767 147.016 -0.992533 -0.0885966 0.0838427
58.9163 69.9523 146.715 -0.992533 -0.0885966 0.0838427
59.2937 70.5142 147.789 -0.735794 0.449762 0.506283
59.6724 71.0424 147.87 -0.735794 0.449762 0.506283
59.3573 71.0278 147.425 -0.735794 0.449762 0.506283
61.6034 70.6319 147.271 0.787026 -0.478529 0.389358
61.1846 69.8379 147.142 0.787026 -0.478529 0.389358
61.5487 69.5501 146.052 0.787026 -0.478529 0.389358
61.6034 70.6319 147.271 0.644285 -0.441497 0.624481
61.2109 70.9188 147.879 0.644285 -0.441497 0.624481
61.1846 69.8379 147.142 0.644285 -0.441497 0.624481
61.2109 70.9188 147.879 0.919645 -0.236314 0.3137
60.9573 69.9937 147.925 0.919645 -0.236314 0.3137
61.1846 69.8379 147.142 0.919645 -0.236314 0.3137
61.5487 69.5501 146.052 0.73513 -0.523088 0.431235
62.1895 70.8563 146.544 0.73513 -0.523088 0.431235
61.6034 70.6319 147.271 0.73513 -0.523088 0.431235
58.8771 70.6767 147.016 -0.728757 0.587713 0.351436
59.3573 71.0278 147.425 -0.728757 0.587713 0.351436
59.3059 71.4363 146.635 -0.728757 0.587713 0.351436
59.3573 71.0278 147.425 -0.913287 0.334472 0.232454
59.5963 72.026 146.928 -0.913287 0.334472 0.232454
59.3059 71.4363 146.635 -0.913287 0.334472 0.232454
59.3573 71.0278 147.425 -0.742416 0.432606 0.511538
59.6724 71.0424 147.87 -0.742416 0.432606 0.511538
59.5963 72.026 146.928 -0.742416 0.432606 0.511538
59.6724 71.0424 147.87 -0.966343 0.135001 0.21899
59.8828 72.6133 147.83 -0.966343 0.135001 0.21899
59.5963 72.026 146.928 -0.966343 0.135001 0.21899
61.6985 71.587 147.535 0.758776 -0.242543 0.60451
61.2109 70.9188 147.879 0.758776 -0.242543 0.60451
61.6034 70.6319 147.271 0.758776 -0.242543 0.60451
61.3461 71.8922 148.019 0.729947 -0.195551 0.654933
61.2109 70.9188 147.879 0.729947 -0.195551 0.654933
61.6985 71.587 147.535 0.729947 -0.195551 0.654933
62.1895 70.8563 146.544 0.810597 -0.201089 0.549997
62.2819 72.0663 146.85 0.810597 -0.201089 0.549997
61.6985 71.587 147.535 0.810597 -0.201089 0.549997
61.6034 70.6319 147.271 0.790869 -0.234858 0.565126
62.1895 70.8563 146.544 0.790869 -0.234858 0.565126
61.6985 71.587 147.535 0.790869 -0.234858 0.565126
59.5963 72.026 146.928 -0.963467 0.0750281 0.257104
59.8828 72.6133 147.83 -0.963467 0.0750281 0.257104
59.6725 73.0116 146.926 -0.963467 0.0750281 0.257104
61.6985 71.587 147.535 0.638163 -0.350207 0.685641
61.7384 72.2203 147.821 0.638163 -0.350207 0.685641
61.3461 71.8922 148.019 0.638163 -0.350207 0.685641
61.7384 72.2203 147.821 0.818493 -0.278717 0.502381
61.6985 71.587 147.535 0.818493 -0.278717 0.502381
62.2819 72.0663 146.85 0.818493 -0.278717 0.502381
61.7384 72.2203 147.821 0.75878 -0.426389 0.492387
62.2819 72.0663 146.85 0.75878 -0.426389 0.492387
62.1458 72.9545 147.829 0.75878 -0.426389 0.492387
62.1458 72.9545 147.829 0.90342 -0.247446 0.350147
62.2819 72.0663 146.85 0.90342 -0.247446 0.350147
62.492 73.0805 147.025 0.90342 -0.247446 0.350147
59.6725 73.0116 146.926 -0.948326 0.142704 0.283397
59.8828 72.6133 147.83 -0.948326 0.142704 0.283397
59.8429 73.8305 147.084 -0.948326 0.142704 0.283397
59.8828 72.6133 147.83 -0.972441 0.0978925 0.211601
60.0222 73.7744 147.933 -0.972441 0.0978925 0.211601
59.8429 73.8305 147.084 -0.972441 0.0978925 0.211601
62.7324 73.8922 147.381 0.849885 -0.401623 0.341167
62.492 73.0805 147.025 0.849885 -0.401623 0.341167
62.8011 73.3932 146.623 0.849885 -0.401623 0.341167
62.7324 73.8922 147.381 0.617512 -0.462435 0.636264
62.3225 74.031 147.88 0.617512 -0.462435 0.636264
62.492 73.0805 147.025 0.617512 -0.462435 0.636264
62.3225 74.031 147.88 0.914775 -0.167613 0.367549
62.1458 72.9545 147.829 0.914775 -0.167613 0.367549
62.492 73.0805 147.025 0.914775 -0.167613 0.367549
62.8011 73.3932 146.623 0.756264 -0.513064 0.405993
63.2418 74.1949 146.815 0.756264 -0.513064 0.405993
62.7324 73.8922 147.381 0.756264 -0.513064 0.405993
59.8429 73.8305 147.084 -0.841236 0.498083 0.210321
60.0222 73.7744 147.933 -0.841236 0.498083 0.210321
60.4113 74.5486 147.656 -0.841236 0.498083 0.210321
60.3867 74.6037 146.685 -0.803498 0.592859 0.0539325
59.8429 73.8305 147.084 -0.803498 0.592859 0.0539325
60.4113 74.5486 147.656 -0.803498 0.592859 0.0539325
60.4113 74.5486 147.656 -0.849794 0.524619 0.0512361
60.6817 75.0516 146.992 -0.849794 0.524619 0.0512361
60.3867 74.6037 146.685 -0.849794 0.524619 0.0512361
60.8318 75.0617 147.824 -0.787467 0.601424 0.134851
60.6817 75.0516 146.992 -0.787467 0.601424 0.134851
60.4113 74.5486 147.656 -0.787467 0.601424 0.134851
62.7907 74.7305 147.574 0.728574 -0.201003 0.654811
62.3225 74.031 147.88 0.728574 -0.201003 0.654811
62.7324 73.8922 147.381 0.728574 -0.201003 0.654811
62.4267 75.0041 148.01 0.702824 -0.167795 0.691291
62.3225 74.031 147.88 0.702824 -0.167795 0.691291
62.7907 74.7305 147.574 0.702824 -0.167795 0.691291
63.2418 74.1949 146.815 0.780946 -0.186696 0.596044
63.2949 75.1173 147.034 0.780946 -0.186696 0.596044
62.7907 74.7305 147.574 0.780946 -0.186696 0.596044
62.7324 73.8922 147.381 0.778413 -0.191403 0.597861
63.2418 74.1949 146.815 0.778413 -0.191403 0.597861
62.7907 74.7305 147.574 0.778413 -0.191403 0.597861
60.6817 75.0516 146.992 -0.919353 0.358708 0.16161
60.8318 75.0617 147.824 -0.919353 0.358708 0.16161
61.0031 75.8672 147.01 -0.919353 0.358708 0.16161
60.8318 75.0617 147.824 -0.934265 0.331455 0.131477
61.1208 75.8386 147.919 -0.934265 0.331455 0.131477
61.0031 75.8672 147.01 -0.934265 0.331455 0.131477
62.7907 74.7305 147.574 0.623538 -0.313213 0.716308
62.8174 75.3321 147.814 0.623538 -0.313213 0.716308
62.4267 75.0041 148.01 0.623538 -0.313213 0.716308
62.8174 75.3321 147.814 0.791025 -0.256491 0.55542
62.7907 74.7305 147.574 0.791025 -0.256491 0.55542
63.2949 75.1173 147.034 0.791025 -0.256491 0.55542
62.8174 75.3321 147.814 0.803058 -0.221581 0.553172
63.2949 75.1173 147.034 0.803058 -0.221581 0.553172
63.1103 75.9553 147.638 0.803058 -0.221581 0.553172
63.1103 75.9553 147.638 0.983804 0.162921 0.0747365
63.2949 75.1173 147.034 0.983804 0.162921 0.0747365
63.198 75.8483 146.716 0.983804 0.162921 0.0747365
61.0031 75.8672 147.01 -0.770892 0.625643 0.119571
61.1208 75.8386 147.919 -0.770892 0.625643 0.119571
61.5851 76.4464 147.732 -0.770892 0.625643 0.119571
61.8331 76.5172 146.95 -0.617323 0.776629 -0.125535
61.0031 75.8672 147.01 -0.617323 0.776629 -0.125535
61.5851 76.4464 147.732 -0.617323 0.776629 -0.125535
62.6872 76.4687 147.016 0.0563695 0.998399 0.00472771
61.8331 76.5172 146.95 0.0563695 0.998399 0.00472771
62.4233 76.4799 147.792 0.0563695 0.998399 0.00472771
61.8331 76.5172 146.95 -0.0453556 0.996084 0.0758951
61.5851 76.4464 147.732 -0.0453556 0.996084 0.0758951
62.4233 76.4799 147.792 -0.0453556 0.996084 0.0758951
63.1103 75.9553 147.638 0.77193 0.635707 -0.000324732
63.198 75.8483 146.716 0.77193 0.635707 -0.000324732
62.6872 76.4687 147.016 0.77193 0.635707 -0.000324732
62.4233 76.4799 147.792 0.622678 0.756308 0.200673
63.1103 75.9553 147.638 0.622678 0.756308 0.200673
62.6872 76.4687 147.016 0.622678 0.756308 0.200673
59.6187 69.3864 147.883 -0.605678 -0.431628 0.668469
59.5884 70.0518 148.286 -0.605678 -0.431628 0.668469
59.0013 69.874 147.639 -0.605678 -0.431628 0.668469
59.6187 69.3864 147.883 0.113862 -0.786585 0.606894
60.4298 69.3333 147.662 0.113862 -0.786585 0.606894
60.3138 69.8206 148.316 0.113862 -0.786585 0.606894
59.5884 70.0518 148.286 -0.198412 -0.513624 0.834759
59.6187 69.3864 147.883 -0.198412 -0.513624 0.834759
60.3138 69.8206 148.316 -0.198412 -0.513624 0.834759
60.4298 69.3333 147.662 0.517095 -0.639566 0.568831
60.9573 69.9937 147.925 0.517095 -0.639566 0.568831
60.3138 69.8206 148.316 0.517095 -0.639566 0.568831
59.0013 69.874 147.639 -0.752264 0.196253 0.628954
59.5884 70.0518 148.286 -0.752264 0.196253 0.628954
59.2937 70.5142 147.789 -0.752264 0.196253 0.628954
59.6724 71.0424 147.87 -0.630427 0.345156 0.695291
59.2937 70.5142 147.789 -0.630427 0.345156 0.695291
59.5884 70.0518 148.286 -0.630427 0.345156 0.695291
59.6724 71.0424 147.87 -0.444004 0.378391 0.812207
59.5884 70.0518 148.286 -0.444004 0.378391 0.812207
60.3942 70.865 148.347 -0.444004 0.378391 0.812207
60.3942 70.865 148.347 -0.049908 -0.0262533 0.998409
59.5884 70.0518 148.286 -0.049908 -0.0262533 0.998409
60.3138 69.8206 148.316 -0.049908 -0.0262533 0.998409
60.9573 69.9937 147.925 0.500119 -0.0936513 0.860878
61.2109 70.9188 147.879 0.500119 -0.0936513 0.860878
60.3942 70.865 148.347 0.500119 -0.0936513 0.860878
60.3138 69.8206 148.316 0.530559 -0.0663148 0.84505
60.9573 69.9937 147.925 0.530559 -0.0663148 0.84505
60.3942 70.865 148.347 0.530559 -0.0663148 0.84505
60.3942 70.865 148.347 -0.517692 0.0999553 0.849708
60.6971 71.9735 148.401 -0.517692 0.0999553 0.849708
59.8828 72.6133 147.83 -0.517692 0.0999553 0.849708
59.6724 71.0424 147.87 -0.533188 0.0928139 0.84089
60.3942 70.865 148.347 -0.533188 0.0928139 0.84089
59.8828 72.6133 147.83 -0.533188 0.0928139 0.84089
61.2109 70.9188 147.879 0.481076 -0.189881 0.855869
61.3461 71.8922 148.019 0.481076 -0.189881 0.855869
60.6971 71.9735 148.401 0.481076 -0.189881 0.855869
60.3942 70.865 148.347 0.498537 -0.177702 0.848459
61.2109 70.9188 147.879 0.498537 -0.177702 0.848459
60.6971 71.9735 148.401 0.498537 -0.177702 0.848459
60.6971 71.9735 148.401 -0.6218 -0.0974053 0.777095
60.6033 73.0956 148.467 -0.6218 -0.0974053 0.777095
59.8828 72.6133 147.83 -0.6218 -0.0974053 0.777095
61.3461 71.8922 148.019 0.644046 -0.365412 0.672071
61.7384 72.2203 147.821 0.644046 -0.365412 0.672071
61.4337 72.7411 148.396 0.644046 -0.365412 0.672071
61.3461 71.8922 148.019 0.426715 -0.40395 0.809159
61.4337 72.7411 148.396 0.426715 -0.40395 0.809159
60.6971 71.9735 148.401 0.426715 -0.40395 0.809159
60.6971 71.9735 148.401 0.0623958 -0.0530612 0.99664
61.4337 72.7411 148.396 0.0623958 -0.0530612 0.99664
60.6033 73.0956 148.467 0.0623958 -0.0530612 0.99664
61.7384 72.2203 147.821 0.644497 -0.364948 0.67189
62.1458 72.9545 147.829 0.644497 -0.364948 0.67189
61.4337 72.7411 148.396 0.644497 -0.364948 0.67189
60.6033 73.0956 148.467 -0.596526 0.11382 0.794482
60.6944 74.1293 148.387 -0.596526 0.11382 0.794482
60.0222 73.7744 147.933 -0.596526 0.11382 0.794482
59.8828 72.6133 147.83 -0.667459 0.0138216 0.744518
60.6033 73.0956 148.467 -0.667459 0.0138216 0.744518
60.0222 73.7744 147.933 -0.667459 0.0138216 0.744518
61.4337 72.7411 148.396 0.0584239 -0.0623068 0.996346
61.5241 73.7589 148.454 0.0584239 -0.0623068 0.996346
60.6033 73.0956 148.467 0.0584239 -0.0623068 0.996346
61.5241 73.7589 148.454 -0.044604 0.0807017 0.99574
60.6944 74.1293 148.387 -0.044604 0.0807017 0.99574
60.6033 73.0956 148.467 -0.044604 0.0807017 0.99574
62.1458 72.9545 147.829 0.608799 -0.137046 0.781398
62.3225 74.031 147.88 0.608799 -0.137046 0.781398
61.5241 73.7589 148.454 0.608799 -0.137046 0.781398
61.4337 72.7411 148.396 0.638097 -0.100396 0.763383
62.1458 72.9545 147.829 0.638097 -0.100396 0.763383
61.5241 73.7589 148.454 0.638097 -0.100396 0.763383
60.0222 73.7744 147.933 -0.649033 0.523806 0.55171
60.6944 74.1293 148.387 -0.649033 0.523806 0.55171
60.4113 74.5486 147.656 -0.649033 0.523806 0.55171
60.8318 75.0617 147.824 -0.732889 0.427723 0.529081
60.4113 74.5486 147.656 -0.732889 0.427723 0.529081
60.6944 74.1293 148.387 -0.732889 0.427723 0.529081
60.8318 75.0617 147.824 -0.471231 0.506008 0.722425
60.6944 74.1293 148.387 -0.471231 0.506008 0.722425
61.6194 74.9851 148.391 -0.471231 0.506008 0.722425
61.6194 74.9851 148.391 -0.0558368 0.0557494 0.996882
60.6944 74.1293 148.387 -0.0558368 0.0557494 0.996882
61.5241 73.7589 148.454 -0.0558368 0.0557494 0.996882
62.3225 74.031 147.88 0.424052 -0.164588 0.890556
62.4267 75.0041 148.01 0.424052 -0.164588 0.890556
61.6194 74.9851 148.391 0.424052 -0.164588 0.890556
61.5241 73.7589 148.454 0.584773 -0.00365476 0.811189
62.3225 74.031 147.88 0.584773 -0.00365476 0.811189
61.6194 74.9851 148.391 0.584773 -0.00365476 0.811189
61.6194 74.9851 148.391 -0.551741 0.133325 0.82329
61.7625 76.0144 148.32 -0.551741 0.133325 0.82329
61.1208 75.8386 147.919 -0.551741 0.133325 0.82329
60.8318 75.0617 147.824 -0.573366 0.114068 0.81132
61.6194 74.9851 148.391 -0.573366 0.114068 0.81132
61.1208 75.8386 147.919 -0.573366 0.114068 0.81132
62.4267 75.0041 148.01 0.621855 -0.30932 0.719457
62.8174 75.3321 147.814 0.621855 -0.30932 0.719457
62.5006 75.8007 148.289 0.621855 -0.30932 0.719457
62.4267 75.0041 148.01 0.4085 -0.334887 0.849104
62.5006 75.8007 148.289 0.4085 -0.334887 0.849104
61.6194 74.9851 148.391 0.4085 -0.334887 0.849104
61.6194 74.9851 148.391 0.0598343 0.0602509 0.996388
62.5006 75.8007 148.289 0.0598343 0.0602509 0.996388
61.7625 76.0144 148.32 0.0598343 0.0602509 0.996388
62.8174 75.3321 147.814 0.739075 -0.163226 0.653549
63.1103 75.9553 147.638 0.739075 -0.163226 0.653549
62.5006 75.8007 148.289 0.739075 -0.163226 0.653549
61.1208 75.8386 147.919 -0.537253 0.594513 0.598259
61.7625 76.0144 148.32 -0.537253 0.594513 0.598259
61.5851 76.4464 147.732 -0.537253 0.594513 0.598259
62.4233 76.4799 147.792 -0.0754849 0.792899 0.604659
61.5851 76.4464 147.732 -0.0754849 0.792899 0.604659
61.7625 76.0144 148.32 -0.0754849 0.792899 0.604659
62.5006 75.8007 148.289 0.204748 0.592751 0.778925
62.4233 76.4799 147.792 0.204748 0.592751 0.778925
61.7625 76.0144 148.32 0.204748 0.592751 0.778925
63.1103 75.9553 147.638 0.551002 0.532466 0.642555
62.4233 76.4799 147.792 0.551002 0.532466 0.642555
62.5006 75.8007 148.289 0.551002 0.532466 0.642555
3 0 1 2
3 3 4 5
3 6 7 8
3 9 10 11
3 12 13 14
3 15 16 17
3 18 19 20
3 21 22 23
3 24 25 26
3 27 28 29
3 30 31 32
3 33 34 35
3 36 37 38
3 39 40 41
3 42 43 44
3 45 46 47
3 48 49 50
3 51 52 53
3 54 55 56
3 57 58 59
3 60 61 62
3 63 64 65
3 66 67 68
3 69 70 71
3 72 73 74
3 75 76 77
3 78 79 80
3 81 82 83
3 84 85 86
3 87 88 89
3 90 91 92
3 93 94 95
3 96 97 98
3 99 100 101
3 102 103 104
3 105 106 107
3 108 109 110
3 111 112 113
3 114 115 116
3 117 118 119
3 120 121 122
3 123 124 125
3 126 127 128
3 129 130 131
3 132 133 134
3 135 136 137
3 138 139 140
3 141 142 143
3 144 145 146
3 147 148 149
3 150 151 152
3 153 154 155
3 156 157 158
3 159 160 161
3 162 163 164
3 165 166 167
3 168 169 170
3 171 172 173
3 174 175 176
3 177 178 179
3 180 181 182
3 183 184 185
3 186 187 188
3 189 190 191
3 192 193 194
3 195 196 197
3 198 199 200
3 201 202 203
3 204 205 206
3 207 208 209
3 210 211 212
3 213 214 215
3 216 217 218
3 219 220 221
3 222 223 224
3 225 226 227
3 228 229 230
3 231 232 233
3 234 235 236
3 237 238 239
3 240 241 242
3 243 244 245
3 246 247 248
3 249 250 251
3 252 253 254
3 255 256 257
3 258 259 260
3 261 262 263
3 264 265 266
3 267 268 269
3 270 271 272
3 273 274 275
3 276 277 278
3 279 280 281
3 282 283 284
3 285 286 287
3 288 289 290
3 291 292 293
3 294 295 296
3 297 298 299
3 300 301 302
3 303 304 305
3 306 307 308
3 309 310 311
3 312 313 314
3 315 316 317
3 318 319 320
3 321 322 323
3 324 325 326
3 327 328 329
3 330 331 332
3 333 334 335
3 336 337 338
3 339 340 341
3 342 343 344
3 345 346 347
3 348 349 350
3 351 352 353
3 354 355 356
3 357 358 359
3 360 361 362
3 363 364 365
3 366 367 368
3 369 370 371
3 372 373 374
3 375 376 377
3 378 379 380
3 381 382 383
3 384 385 386
3 387 388 389
3 390 391 392
3 393 394 395
3 396 397 398
3 399 400 401
3 402 403 404
3 405 406 407
3 408 409 410
3 411 412 413
3 414 415 416
3 417 418 419
3 420 421 422
3 423 424 425
3 426 427 428
3 429 430 431
3 432 433 434
3 435 436 437
3 438 439 440
3 441 442 443
3 444 445 446
3 447 448 449
3 450 451 452
3 453 454 455
3 456 457 458
3 459 460 461
3 462 463 464
3 465 466 467
3 468 469 470
3 471 472 473
3 474 475 476
3 477 478 479
3 480 481 482
3 483 484 485
3 486 487 488
3 489 490 491
3 492 493 494
3 495 496 497
3 498 499 500
3 501 502 503
3 504 505 506
3 507 508 509
3 510 511 512
3 513 514 515
3 516 517 518
3 519 520 521
3 522 523 524
3 525 526 527
3 528 529 530
3 531 532 533
3 534 535 536
3 537 538 539
3 540 541 542
3 543 544 545
3 546 547 548
3 549 550 551
3 552 553 554
3 555 556 557
3 558 559 560
3 561 562 563
3 564 565 566
3 567 568 569
3 570 571 572
3 573 574 575
3 576 577 578
3 579 580 581
3 582 583 584
3 585 586 587
