solid ascii
 facet normal -0.48283 -0.601346 -0.636599
  outer loop
   vertex 113.294 155.278 154.491
   vertex 113.298 154.503 155.22
   vertex 112.479 155.175 155.207
  endloop
 endfacet
 facet normal 0.539979 -0.575021 -0.614633
  outer loop
   vertex 113.298 154.503 155.22
   vertex 113.294 155.278 154.491
   vertex 114.069 155.189 155.256
  endloop
 endfacet
 facet normal -0.557739 -0.541771 -0.628818
  outer loop
   vertex 112.271 156.23 154.438
   vertex 112.174 155.467 155.181
   vertex 111.415 156.256 155.175
  endloop
 endfacet
 facet normal -0.493902 -0.573796 -0.653314
  outer loop
   vertex 112.479 155.175 155.207
   vertex 112.174 155.467 155.181
   vertex 112.271 156.23 154.438
  endloop
 endfacet
 facet normal -0.498713 -0.572746 -0.650574
  outer loop
   vertex 112.479 155.175 155.207
   vertex 112.271 156.23 154.438
   vertex 113.294 155.278 154.491
  endloop
 endfacet
 facet normal 0.000271771 -0.055896 -0.998437
  outer loop
   vertex 113.294 155.278 154.491
   vertex 112.271 156.23 154.438
   vertex 113.333 156.288 154.435
  endloop
 endfacet
 facet normal 0.694879 -0.0824531 -0.714384
  outer loop
   vertex 114.162 156.177 155.232
   vertex 114.069 155.189 155.256
   vertex 113.294 155.278 154.491
  endloop
 endfacet
 facet normal 0.686856 -0.0670205 -0.723697
  outer loop
   vertex 113.333 156.288 154.435
   vertex 114.162 156.177 155.232
   vertex 113.294 155.278 154.491
  endloop
 endfacet
 facet normal -0.65251 -0.0372943 -0.756861
  outer loop
   vertex 112.216 157.292 154.433
   vertex 112.271 156.23 154.438
   vertex 111.415 156.256 155.175
  endloop
 endfacet
 facet normal -0.676246 -0.00445903 -0.736663
  outer loop
   vertex 111.309 157.308 155.265
   vertex 112.216 157.292 154.433
   vertex 111.415 156.256 155.175
  endloop
 endfacet
 facet normal -0.00211938 -0.0118018 -0.999928
  outer loop
   vertex 113.333 156.288 154.435
   vertex 112.271 156.23 154.438
   vertex 113.294 157.291 154.423
  endloop
 endfacet
 facet normal -0.00929757 -0.00488255 -0.999945
  outer loop
   vertex 113.294 157.291 154.423
   vertex 112.271 156.23 154.438
   vertex 112.216 157.292 154.433
  endloop
 endfacet
 facet normal 0.686167 -0.0728345 -0.723789
  outer loop
   vertex 114.391 157.292 155.337
   vertex 114.162 156.177 155.232
   vertex 113.333 156.288 154.435
  endloop
 endfacet
 facet normal 0.639874 0.0158863 -0.768316
  outer loop
   vertex 113.294 157.291 154.423
   vertex 114.391 157.292 155.337
   vertex 113.333 156.288 154.435
  endloop
 endfacet
 facet normal -0.675522 0.0326367 -0.736617
  outer loop
   vertex 112.215 158.326 154.479
   vertex 112.216 157.292 154.433
   vertex 111.309 157.308 155.265
  endloop
 endfacet
 facet normal -0.696823 0.0691366 -0.713903
  outer loop
   vertex 111.426 158.39 155.256
   vertex 112.215 158.326 154.479
   vertex 111.309 157.308 155.265
  endloop
 endfacet
 facet normal -0.00929394 0.0127357 -0.999876
  outer loop
   vertex 113.294 157.291 154.423
   vertex 112.216 157.292 154.433
   vertex 113.283 158.331 154.436
  endloop
 endfacet
 facet normal -0.0402544 0.0445424 -0.998196
  outer loop
   vertex 113.283 158.331 154.436
   vertex 112.216 157.292 154.433
   vertex 112.215 158.326 154.479
  endloop
 endfacet
 facet normal 0.639532 0.0359664 -0.767923
  outer loop
   vertex 114.123 158.295 155.161
   vertex 114.391 157.292 155.337
   vertex 113.294 157.291 154.423
  endloop
 endfacet
 facet normal 0.653393 0.0163694 -0.756842
  outer loop
   vertex 113.283 158.331 154.436
   vertex 114.123 158.295 155.161
   vertex 113.294 157.291 154.423
  endloop
 endfacet
 facet normal -0.563814 0.548019 -0.617891
  outer loop
   vertex 112.215 158.326 154.479
   vertex 111.426 158.39 155.256
   vertex 112.249 159.133 155.164
  endloop
 endfacet
 facet normal -0.528919 0.561925 -0.635991
  outer loop
   vertex 112.249 159.133 155.164
   vertex 113.25 159.316 154.494
   vertex 112.215 158.326 154.479
  endloop
 endfacet
 facet normal -0.0402789 0.0564862 -0.997591
  outer loop
   vertex 112.215 158.326 154.479
   vertex 113.25 159.316 154.494
   vertex 113.283 158.331 154.436
  endloop
 endfacet
 facet normal 0.653528 0.0335967 -0.756157
  outer loop
   vertex 114.085 159.303 155.173
   vertex 114.123 158.295 155.161
   vertex 113.283 158.331 154.436
  endloop
 endfacet
 facet normal 0.630007 0.0662986 -0.773755
  outer loop
   vertex 113.25 159.316 154.494
   vertex 114.085 159.303 155.173
   vertex 113.283 158.331 154.436
  endloop
 endfacet
 facet normal -0.516931 0.604032 -0.606571
  outer loop
   vertex 113.25 159.316 154.494
   vertex 112.249 159.133 155.164
   vertex 113.265 160.073 155.234
  endloop
 endfacet
 facet normal 0.512122 0.595646 -0.618819
  outer loop
   vertex 114.085 159.303 155.173
   vertex 113.25 159.316 154.494
   vertex 113.265 160.073 155.234
  endloop
 endfacet
 facet normal -0.532998 -0.586558 -0.609806
  outer loop
   vertex 112.24 154.215 155.542
   vertex 112.172 153.49 156.298
   vertex 111.448 154.218 156.231
  endloop
 endfacet
 facet normal 0.526433 -0.636996 -0.56312
  outer loop
   vertex 112.172 153.49 156.298
   vertex 112.24 154.215 155.542
   vertex 112.981 154.138 156.321
  endloop
 endfacet
 facet normal -0.649273 -0.151296 -0.745355
  outer loop
   vertex 112.114 155.214 155.449
   vertex 112.24 154.215 155.542
   vertex 111.448 154.218 156.231
  endloop
 endfacet
 facet normal -0.707427 -0.0787219 -0.702388
  outer loop
   vertex 111.331 155.186 156.24
   vertex 112.114 155.214 155.449
   vertex 111.448 154.218 156.231
  endloop
 endfacet
 facet normal -0.632166 -0.772149 -0.0644312
  outer loop
   vertex 112.479 155.175 155.207
   vertex 113.298 154.503 155.22
   vertex 113.286 154.433 156.177
  endloop
 endfacet
 facet normal 0.535865 -0.393488 -0.747005
  outer loop
   vertex 112.479 155.175 155.207
   vertex 113.286 154.433 156.177
   vertex 112.24 154.215 155.542
  endloop
 endfacet
 facet normal -0.556481 -0.146347 -0.81787
  outer loop
   vertex 112.479 155.175 155.207
   vertex 112.24 154.215 155.542
   vertex 112.114 155.214 155.449
  endloop
 endfacet
 facet normal 0.461284 -0.72613 -0.509855
  outer loop
   vertex 112.981 154.138 156.321
   vertex 112.24 154.215 155.542
   vertex 113.286 154.433 156.177
  endloop
 endfacet
 facet normal 0.665334 -0.745121 -0.0461003
  outer loop
   vertex 113.286 154.433 156.177
   vertex 113.298 154.503 155.22
   vertex 114.069 155.189 155.256
  endloop
 endfacet
 facet normal 0.672913 -0.738913 -0.0345668
  outer loop
   vertex 114.129 155.198 156.249
   vertex 113.286 154.433 156.177
   vertex 114.069 155.189 155.256
  endloop
 endfacet
 facet normal -0.58938 -0.557628 -0.584535
  outer loop
   vertex 111.128 156.195 155.494
   vertex 111.072 155.487 156.226
   vertex 110.321 156.282 156.224
  endloop
 endfacet
 facet normal -0.605542 -0.548321 -0.57677
  outer loop
   vertex 111.331 155.186 156.24
   vertex 111.072 155.487 156.226
   vertex 111.128 156.195 155.494
  endloop
 endfacet
 facet normal -0.580811 -0.556301 -0.594296
  outer loop
   vertex 112.114 155.214 155.449
   vertex 111.331 155.186 156.24
   vertex 111.128 156.195 155.494
  endloop
 endfacet
 facet normal -0.569559 -0.543992 -0.616177
  outer loop
   vertex 112.114 155.214 155.449
   vertex 111.128 156.195 155.494
   vertex 111.415 156.256 155.175
  endloop
 endfacet
 facet normal -0.554433 -0.538636 -0.63441
  outer loop
   vertex 112.114 155.214 155.449
   vertex 111.415 156.256 155.175
   vertex 112.174 155.467 155.181
  endloop
 endfacet
 facet normal -0.493601 -0.573522 -0.653782
  outer loop
   vertex 112.479 155.175 155.207
   vertex 112.114 155.214 155.449
   vertex 112.174 155.467 155.181
  endloop
 endfacet
 facet normal 0.6229 -0.5607 -0.545537
  outer loop
   vertex 114.407 155.484 156.223
   vertex 114.162 156.177 155.232
   vertex 114.485 156.294 155.48
  endloop
 endfacet
 facet normal 0.569115 -0.601407 -0.56073
  outer loop
   vertex 114.407 155.484 156.223
   vertex 114.129 155.198 156.249
   vertex 114.162 156.177 155.232
  endloop
 endfacet
 facet normal 0.993712 -0.0949062 -0.0594034
  outer loop
   vertex 114.129 155.198 156.249
   vertex 114.069 155.189 155.256
   vertex 114.162 156.177 155.232
  endloop
 endfacet
 facet normal 0.59572 -0.57349 -0.562341
  outer loop
   vertex 114.407 155.484 156.223
   vertex 114.485 156.294 155.48
   vertex 115.192 156.193 156.332
  endloop
 endfacet
 facet normal -0.672961 -0.0420916 -0.73848
  outer loop
   vertex 111.309 157.308 155.265
   vertex 111.128 156.195 155.494
   vertex 110.321 156.282 156.224
  endloop
 endfacet
 facet normal -0.687377 -0.0166394 -0.72611
  outer loop
   vertex 110.305 157.281 156.216
   vertex 111.309 157.308 155.265
   vertex 110.321 156.282 156.224
  endloop
 endfacet
 facet normal -0.742163 -0.0168178 -0.670008
  outer loop
   vertex 111.128 156.195 155.494
   vertex 111.309 157.308 155.265
   vertex 111.415 156.256 155.175
  endloop
 endfacet
 facet normal 0.620723 -0.053947 -0.782172
  outer loop
   vertex 114.162 156.177 155.232
   vertex 114.391 157.292 155.337
   vertex 114.485 156.294 155.48
  endloop
 endfacet
 facet normal 0.560443 -0.628318 -0.539555
  outer loop
   vertex 115.473 156.499 156.268
   vertex 115.192 156.193 156.332
   vertex 114.485 156.294 155.48
  endloop
 endfacet
 facet normal 0.581504 -0.569114 -0.581345
  outer loop
   vertex 115.473 156.499 156.268
   vertex 114.485 156.294 155.48
   vertex 115.485 157.298 155.497
  endloop
 endfacet
 facet normal 0.144735 -0.127342 -0.981242
  outer loop
   vertex 115.485 157.298 155.497
   vertex 114.485 156.294 155.48
   vertex 114.391 157.292 155.337
  endloop
 endfacet
 facet normal 0.589282 -0.565277 -0.577242
  outer loop
   vertex 115.473 156.499 156.268
   vertex 115.485 157.298 155.497
   vertex 116.269 157.262 156.334
  endloop
 endfacet
 facet normal -0.574422 0.567365 -0.590031
  outer loop
   vertex 111.309 157.308 155.265
   vertex 110.305 157.281 156.216
   vertex 111.02 158.056 156.265
  endloop
 endfacet
 facet normal -0.668723 0.489879 -0.55931
  outer loop
   vertex 111.02 158.056 156.265
   vertex 111.292 158.358 156.205
   vertex 111.309 157.308 155.265
  endloop
 endfacet
 facet normal -0.985101 0.105638 -0.135705
  outer loop
   vertex 111.292 158.358 156.205
   vertex 111.426 158.39 155.256
   vertex 111.309 157.308 155.265
  endloop
 endfacet
 facet normal 0.557283 0.00311025 -0.830317
  outer loop
   vertex 114.391 157.292 155.337
   vertex 114.123 158.295 155.161
   vertex 114.45 158.396 155.38
  endloop
 endfacet
 facet normal 0.145313 -0.0299176 -0.988933
  outer loop
   vertex 115.485 157.298 155.497
   vertex 114.391 157.292 155.337
   vertex 115.485 158.333 155.466
  endloop
 endfacet
 facet normal 0.0844931 0.0348275 -0.995815
  outer loop
   vertex 115.485 158.333 155.466
   vertex 114.391 157.292 155.337
   vertex 114.45 158.396 155.38
  endloop
 endfacet
 facet normal 0.725351 -0.0812349 -0.683569
  outer loop
   vertex 116.346 158.292 156.292
   vertex 116.269 157.262 156.334
   vertex 115.485 157.298 155.497
  endloop
 endfacet
 facet normal 0.691744 -0.0215389 -0.721822
  outer loop
   vertex 115.485 158.333 155.466
   vertex 116.346 158.292 156.292
   vertex 115.485 157.298 155.497
  endloop
 endfacet
 facet normal -0.582659 0.57415 -0.575204
  outer loop
   vertex 112.182 159.386 155.484
   vertex 112.249 159.133 155.164
   vertex 111.426 158.39 155.256
  endloop
 endfacet
 facet normal -0.575716 0.571153 -0.585094
  outer loop
   vertex 112.182 159.386 155.484
   vertex 111.426 158.39 155.256
   vertex 111.394 159.36 156.235
  endloop
 endfacet
 facet normal -0.985274 0.10391 -0.135788
  outer loop
   vertex 111.394 159.36 156.235
   vertex 111.426 158.39 155.256
   vertex 111.292 158.358 156.205
  endloop
 endfacet
 facet normal 0.604932 0.0613431 -0.79391
  outer loop
   vertex 114.45 158.396 155.38
   vertex 114.085 159.303 155.173
   vertex 114.392 159.448 155.417
  endloop
 endfacet
 facet normal 0.551158 0.0306106 -0.833839
  outer loop
   vertex 114.123 158.295 155.161
   vertex 114.085 159.303 155.173
   vertex 114.45 158.396 155.38
  endloop
 endfacet
 facet normal 0.0838061 0.0229402 -0.996218
  outer loop
   vertex 115.485 158.333 155.466
   vertex 114.45 158.396 155.38
   vertex 115.481 159.375 155.49
  endloop
 endfacet
 facet normal 0.0687549 0.0388699 -0.996876
  outer loop
   vertex 115.481 159.375 155.49
   vertex 114.45 158.396 155.38
   vertex 114.392 159.448 155.417
  endloop
 endfacet
 facet normal 0.69232 -0.00445645 -0.721577
  outer loop
   vertex 116.287 159.335 156.23
   vertex 116.346 158.292 156.292
   vertex 115.485 158.333 155.466
  endloop
 endfacet
 facet normal 0.676859 0.0188272 -0.735872
  outer loop
   vertex 115.481 159.375 155.49
   vertex 116.287 159.335 156.23
   vertex 115.485 158.333 155.466
  endloop
 endfacet
 facet normal -0.55984 0.603969 -0.567275
  outer loop
   vertex 112.182 159.386 155.484
   vertex 111.394 159.36 156.235
   vertex 112.258 160.186 156.262
  endloop
 endfacet
 facet normal -0.525153 0.619785 -0.583165
  outer loop
   vertex 113.265 160.073 155.234
   vertex 112.258 160.186 156.262
   vertex 113.34 160.388 155.502
  endloop
 endfacet
 facet normal -0.526638 0.617398 -0.584356
  outer loop
   vertex 113.265 160.073 155.234
   vertex 112.182 159.386 155.484
   vertex 112.258 160.186 156.262
  endloop
 endfacet
 facet normal -0.524663 0.611335 -0.592451
  outer loop
   vertex 113.265 160.073 155.234
   vertex 112.249 159.133 155.164
   vertex 112.182 159.386 155.484
  endloop
 endfacet
 facet normal 0.395106 0.483793 -0.780919
  outer loop
   vertex 113.265 160.073 155.234
   vertex 114.392 159.448 155.417
   vertex 114.085 159.303 155.173
  endloop
 endfacet
 facet normal 0.413708 0.5291 -0.740877
  outer loop
   vertex 113.265 160.073 155.234
   vertex 113.34 160.388 155.502
   vertex 114.392 159.448 155.417
  endloop
 endfacet
 facet normal 0.00139474 0.0910258 -0.995848
  outer loop
   vertex 113.34 160.388 155.502
   vertex 114.361 160.435 155.507
   vertex 114.392 159.448 155.417
  endloop
 endfacet
 facet normal 0.0687887 0.0393986 -0.996853
  outer loop
   vertex 115.481 159.375 155.49
   vertex 114.392 159.448 155.417
   vertex 115.423 160.4 155.526
  endloop
 endfacet
 facet normal 0.0204877 0.0915974 -0.995585
  outer loop
   vertex 115.423 160.4 155.526
   vertex 114.392 159.448 155.417
   vertex 114.361 160.435 155.507
  endloop
 endfacet
 facet normal 0.676943 0.053962 -0.734055
  outer loop
   vertex 116.236 160.344 156.257
   vertex 116.287 159.335 156.23
   vertex 115.481 159.375 155.49
  endloop
 endfacet
 facet normal 0.669565 0.0643889 -0.739958
  outer loop
   vertex 115.423 160.4 155.526
   vertex 116.236 160.344 156.257
   vertex 115.481 159.375 155.49
  endloop
 endfacet
 facet normal -0.531714 0.599952 -0.597777
  outer loop
   vertex 113.34 160.388 155.502
   vertex 112.258 160.186 156.262
   vertex 113.342 161.117 156.231
  endloop
 endfacet
 facet normal -0.0283824 0.707325 -0.706319
  outer loop
   vertex 114.361 160.435 155.507
   vertex 113.34 160.388 155.502
   vertex 113.342 161.117 156.231
  endloop
 endfacet
 facet normal -0.00255747 0.726055 -0.687632
  outer loop
   vertex 114.441 161.173 156.286
   vertex 114.361 160.435 155.507
   vertex 113.342 161.117 156.231
  endloop
 endfacet
 facet normal 0.0359076 0.723595 -0.68929
  outer loop
   vertex 115.423 160.4 155.526
   vertex 114.361 160.435 155.507
   vertex 114.441 161.173 156.286
  endloop
 endfacet
 facet normal 0.0253654 0.717198 -0.696408
  outer loop
   vertex 115.485 161.103 156.252
   vertex 115.423 160.4 155.526
   vertex 114.441 161.173 156.286
  endloop
 endfacet
 facet normal 0.573219 0.563911 -0.594495
  outer loop
   vertex 116.236 160.344 156.257
   vertex 115.423 160.4 155.526
   vertex 115.485 161.103 156.252
  endloop
 endfacet
 facet normal -0.65676 -0.752872 0.0430075
  outer loop
   vertex 112.172 153.49 156.298
   vertex 112.227 153.496 157.245
   vertex 111.385 154.23 157.236
  endloop
 endfacet
 facet normal -0.706711 -0.706621 -0.035297
  outer loop
   vertex 111.448 154.218 156.231
   vertex 112.172 153.49 156.298
   vertex 111.385 154.23 157.236
  endloop
 endfacet
 facet normal 0.625474 -0.779591 -0.0319209
  outer loop
   vertex 112.227 153.496 157.245
   vertex 112.172 153.49 156.298
   vertex 112.981 154.138 156.321
  endloop
 endfacet
 facet normal 0.679317 -0.732481 0.0447175
  outer loop
   vertex 112.974 154.194 157.339
   vertex 112.227 153.496 157.245
   vertex 112.981 154.138 156.321
  endloop
 endfacet
 facet normal -0.579 -0.591833 -0.560796
  outer loop
   vertex 111.033 155.248 156.526
   vertex 111.385 154.23 157.236
   vertex 110.347 155.22 157.263
  endloop
 endfacet
 facet normal -0.623104 -0.581087 -0.523526
  outer loop
   vertex 111.033 155.248 156.526
   vertex 111.331 155.186 156.24
   vertex 111.385 154.23 157.236
  endloop
 endfacet
 facet normal -0.991105 -0.11869 -0.0601956
  outer loop
   vertex 111.331 155.186 156.24
   vertex 111.448 154.218 156.231
   vertex 111.385 154.23 157.236
  endloop
 endfacet
 facet normal 0.56937 -0.820631 0.0488116
  outer loop
   vertex 112.981 154.138 156.321
   vertex 113.334 154.437 157.229
   vertex 112.974 154.194 157.339
  endloop
 endfacet
 facet normal 0.687304 -0.725819 -0.028275
  outer loop
   vertex 113.286 154.433 156.177
   vertex 113.334 154.437 157.229
   vertex 112.981 154.138 156.321
  endloop
 endfacet
 facet normal 0.672734 -0.739371 -0.027558
  outer loop
   vertex 113.334 154.437 157.229
   vertex 113.286 154.433 156.177
   vertex 114.129 155.198 156.249
  endloop
 endfacet
 facet normal 0.687103 -0.726536 -0.00593744
  outer loop
   vertex 114.175 155.232 157.314
   vertex 113.334 154.437 157.229
   vertex 114.129 155.198 156.249
  endloop
 endfacet
 facet normal -0.591431 -0.601573 -0.536954
  outer loop
   vertex 110.027 156.197 156.575
   vertex 110.024 155.537 157.318
   vertex 109.3 156.296 157.265
  endloop
 endfacet
 facet normal -0.645372 -0.569695 -0.508863
  outer loop
   vertex 110.347 155.22 157.263
   vertex 110.024 155.537 157.318
   vertex 110.027 156.197 156.575
  endloop
 endfacet
 facet normal -0.581649 -0.58705 -0.563078
  outer loop
   vertex 111.033 155.248 156.526
   vertex 110.347 155.22 157.263
   vertex 110.027 156.197 156.575
  endloop
 endfacet
 facet normal -0.561257 -0.563207 -0.606456
  outer loop
   vertex 111.033 155.248 156.526
   vertex 110.027 156.197 156.575
   vertex 110.321 156.282 156.224
  endloop
 endfacet
 facet normal -0.611418 -0.578384 -0.540037
  outer loop
   vertex 111.033 155.248 156.526
   vertex 110.321 156.282 156.224
   vertex 111.072 155.487 156.226
  endloop
 endfacet
 facet normal -0.628859 -0.566332 -0.532733
  outer loop
   vertex 111.331 155.186 156.24
   vertex 111.033 155.248 156.526
   vertex 111.072 155.487 156.226
  endloop
 endfacet
 facet normal 0.718035 -0.695958 -0.00824954
  outer loop
   vertex 114.407 155.484 156.223
   vertex 114.175 155.232 157.314
   vertex 114.129 155.198 156.249
  endloop
 endfacet
 facet normal 0.672163 -0.739869 -0.028123
  outer loop
   vertex 114.175 155.232 157.314
   vertex 114.407 155.484 156.223
   vertex 115.192 156.193 156.332
  endloop
 endfacet
 facet normal 0.689231 -0.724527 0.00455368
  outer loop
   vertex 115.257 156.267 158.166
   vertex 114.175 155.232 157.314
   vertex 115.192 156.193 156.332
  endloop
 endfacet
 facet normal -0.690392 -0.0338264 -0.722645
  outer loop
   vertex 110.003 157.25 156.549
   vertex 110.027 156.197 156.575
   vertex 109.3 156.296 157.265
  endloop
 endfacet
 facet normal -0.736017 0.0347595 -0.67607
  outer loop
   vertex 109.297 157.243 157.317
   vertex 110.003 157.25 156.549
   vertex 109.3 156.296 157.265
  endloop
 endfacet
 facet normal -0.739433 -0.0170372 -0.673014
  outer loop
   vertex 110.321 156.282 156.224
   vertex 110.003 157.25 156.549
   vertex 110.305 157.281 156.216
  endloop
 endfacet
 facet normal -0.762445 -0.0335757 -0.646181
  outer loop
   vertex 110.027 156.197 156.575
   vertex 110.003 157.25 156.549
   vertex 110.321 156.282 156.224
  endloop
 endfacet
 facet normal 0.73573 -0.677274 0.000982492
  outer loop
   vertex 115.473 156.499 156.268
   vertex 115.257 156.267 158.166
   vertex 115.192 156.193 156.332
  endloop
 endfacet
 facet normal 0.692279 -0.721569 -0.00935695
  outer loop
   vertex 115.257 156.267 158.166
   vertex 115.473 156.499 156.268
   vertex 116.269 157.262 156.334
  endloop
 endfacet
 facet normal 0.689065 -0.724587 -0.0127691
  outer loop
   vertex 116.304 157.277 157.323
   vertex 115.257 156.267 158.166
   vertex 116.269 157.262 156.334
  endloop
 endfacet
 facet normal -0.62024 0.543983 -0.565142
  outer loop
   vertex 110.003 157.25 156.549
   vertex 109.297 157.243 157.317
   vertex 110.05 158.018 157.237
  endloop
 endfacet
 facet normal -0.592043 0.598698 -0.539486
  outer loop
   vertex 111.035 158.351 156.524
   vertex 110.05 158.018 157.237
   vertex 110.279 158.325 157.325
  endloop
 endfacet
 facet normal -0.604615 0.542767 -0.582962
  outer loop
   vertex 111.02 158.056 156.265
   vertex 110.05 158.018 157.237
   vertex 111.035 158.351 156.524
  endloop
 endfacet
 facet normal -0.59966 0.553895 -0.577588
  outer loop
   vertex 111.02 158.056 156.265
   vertex 110.003 157.25 156.549
   vertex 110.05 158.018 157.237
  endloop
 endfacet
 facet normal -0.617813 0.602136 -0.505706
  outer loop
   vertex 111.02 158.056 156.265
   vertex 110.305 157.281 156.216
   vertex 110.003 157.25 156.549
  endloop
 endfacet
 facet normal -0.678672 0.503816 -0.534391
  outer loop
   vertex 111.02 158.056 156.265
   vertex 111.035 158.351 156.524
   vertex 111.292 158.358 156.205
  endloop
 endfacet
 facet normal 0.72891 -0.492018 -0.476033
  outer loop
   vertex 116.57 157.637 157.313
   vertex 116.346 158.292 156.292
   vertex 116.607 158.371 156.611
  endloop
 endfacet
 facet normal 0.694126 -0.52672 -0.490669
  outer loop
   vertex 116.57 157.637 157.313
   vertex 116.304 157.277 157.323
   vertex 116.346 158.292 156.292
  endloop
 endfacet
 facet normal 0.996575 -0.075379 -0.0339909
  outer loop
   vertex 116.304 157.277 157.323
   vertex 116.269 157.262 156.334
   vertex 116.346 158.292 156.292
  endloop
 endfacet
 facet normal 0.563255 -0.58574 -0.582797
  outer loop
   vertex 116.57 157.637 157.313
   vertex 116.607 158.371 156.611
   vertex 117.276 158.336 157.294
  endloop
 endfacet
 facet normal -0.727086 0.0450307 -0.685068
  outer loop
   vertex 111.065 159.303 156.556
   vertex 111.035 158.351 156.524
   vertex 110.279 158.325 157.325
  endloop
 endfacet
 facet normal -0.740408 0.0686397 -0.668644
  outer loop
   vertex 110.34 159.356 157.364
   vertex 111.065 159.303 156.556
   vertex 110.279 158.325 157.325
  endloop
 endfacet
 facet normal -0.70371 0.0923707 -0.704457
  outer loop
   vertex 111.292 158.358 156.205
   vertex 111.065 159.303 156.556
   vertex 111.394 159.36 156.235
  endloop
 endfacet
 facet normal -0.779384 0.0446722 -0.624952
  outer loop
   vertex 111.035 158.351 156.524
   vertex 111.065 159.303 156.556
   vertex 111.292 158.358 156.205
  endloop
 endfacet
 facet normal 0.736239 0.502882 -0.452838
  outer loop
   vertex 116.607 158.371 156.611
   vertex 116.287 159.385 157.216
   vertex 116.576 159.053 157.319
  endloop
 endfacet
 facet normal 0.577523 0.545134 -0.607698
  outer loop
   vertex 116.607 158.371 156.611
   vertex 116.346 158.292 156.292
   vertex 116.287 159.385 157.216
  endloop
 endfacet
 facet normal 0.998424 0.0560623 -0.0026807
  outer loop
   vertex 116.346 158.292 156.292
   vertex 116.287 159.335 156.23
   vertex 116.287 159.385 157.216
  endloop
 endfacet
 facet normal 0.589235 0.594228 -0.547444
  outer loop
   vertex 117.276 158.336 157.294
   vertex 116.607 158.371 156.611
   vertex 116.576 159.053 157.319
  endloop
 endfacet
 facet normal -0.586284 0.581907 -0.563609
  outer loop
   vertex 111.065 159.303 156.556
   vertex 110.34 159.356 157.364
   vertex 111.172 160.106 157.273
  endloop
 endfacet
 facet normal -0.623824 0.565428 -0.539569
  outer loop
   vertex 111.394 159.36 156.235
   vertex 111.065 159.303 156.556
   vertex 111.172 160.106 157.273
  endloop
 endfacet
 facet normal -0.564449 0.608477 -0.557811
  outer loop
   vertex 111.394 159.36 156.235
   vertex 111.172 160.106 157.273
   vertex 112.258 160.186 156.262
  endloop
 endfacet
 facet normal -0.132855 0.989084 -0.0637418
  outer loop
   vertex 112.258 160.186 156.262
   vertex 111.172 160.106 157.273
   vertex 112.243 160.255 157.353
  endloop
 endfacet
 facet normal 0.632796 0.548729 0.546321
  outer loop
   vertex 115.498 160.448 157.011
   vertex 115.211 160.439 157.352
   vertex 115.525 160.116 157.314
  endloop
 endfacet
 facet normal 0.609177 0.560371 0.561148
  outer loop
   vertex 115.498 160.448 157.011
   vertex 115.525 160.116 157.314
   vertex 116.287 159.385 157.216
  endloop
 endfacet
 facet normal 0.625852 0.567665 0.53485
  outer loop
   vertex 115.498 160.448 157.011
   vertex 116.287 159.385 157.216
   vertex 116.236 160.344 156.257
  endloop
 endfacet
 facet normal 0.998733 0.0502629 -0.00238977
  outer loop
   vertex 116.236 160.344 156.257
   vertex 116.287 159.385 157.216
   vertex 116.287 159.335 156.23
  endloop
 endfacet
 facet normal -0.656677 0.752075 -0.0561969
  outer loop
   vertex 112.258 160.186 156.262
   vertex 112.243 160.255 157.353
   vertex 113.31 161.177 157.22
  endloop
 endfacet
 facet normal -0.650978 0.756162 -0.0666801
  outer loop
   vertex 113.342 161.117 156.231
   vertex 112.258 160.186 156.262
   vertex 113.31 161.177 157.22
  endloop
 endfacet
 facet normal -0.450099 0.799812 -0.39713
  outer loop
   vertex 114.361 161.464 156.607
   vertex 113.31 161.177 157.22
   vertex 113.651 161.431 157.345
  endloop
 endfacet
 facet normal -0.526047 0.560259 -0.639832
  outer loop
   vertex 114.361 161.464 156.607
   vertex 114.441 161.173 156.286
   vertex 113.31 161.177 157.22
  endloop
 endfacet
 facet normal -0.0472066 0.996978 -0.0617027
  outer loop
   vertex 114.441 161.173 156.286
   vertex 113.342 161.117 156.231
   vertex 113.31 161.177 157.22
  endloop
 endfacet
 facet normal 0.758242 0.119864 0.64086
  outer loop
   vertex 115.498 160.448 157.011
   vertex 115.141 161.409 157.254
   vertex 115.211 160.439 157.352
  endloop
 endfacet
 facet normal 0.690002 0.407349 -0.5983
  outer loop
   vertex 115.498 160.448 157.011
   vertex 114.441 161.173 156.286
   vertex 115.141 161.409 157.254
  endloop
 endfacet
 facet normal 0.0714844 0.755527 0.651206
  outer loop
   vertex 115.498 160.448 157.011
   vertex 115.485 161.103 156.252
   vertex 114.441 161.173 156.286
  endloop
 endfacet
 facet normal 0.480322 0.706435 -0.519846
  outer loop
   vertex 114.361 161.464 156.607
   vertex 115.141 161.409 157.254
   vertex 114.441 161.173 156.286
  endloop
 endfacet
 facet normal 0.608389 0.605982 0.512493
  outer loop
   vertex 116.236 160.344 156.257
   vertex 115.485 161.103 156.252
   vertex 115.498 160.448 157.011
  endloop
 endfacet
 facet normal -0.584519 0.610057 -0.534947
  outer loop
   vertex 114.361 161.464 156.607
   vertex 113.651 161.431 157.345
   vertex 114.399 162.102 157.292
  endloop
 endfacet
 facet normal 0.533218 0.603938 -0.5924
  outer loop
   vertex 115.141 161.409 157.254
   vertex 114.361 161.464 156.607
   vertex 114.399 162.102 157.292
  endloop
 endfacet
 facet normal -0.550757 -0.625156 0.553034
  outer loop
   vertex 112.227 153.496 157.245
   vertex 112.159 154.219 157.995
   vertex 111.385 154.23 157.236
  endloop
 endfacet
 facet normal 0.487858 -0.605888 0.628407
  outer loop
   vertex 112.227 153.496 157.245
   vertex 112.974 154.194 157.339
   vertex 112.159 154.219 157.995
  endloop
 endfacet
 facet normal -0.567218 -0.609704 0.553647
  outer loop
   vertex 111.385 154.23 157.236
   vertex 111.086 155.219 158.019
   vertex 110.347 155.22 157.263
  endloop
 endfacet
 facet normal -0.557802 -0.612208 0.56041
  outer loop
   vertex 111.385 154.23 157.236
   vertex 112.159 154.219 157.995
   vertex 111.086 155.219 158.019
  endloop
 endfacet
 facet normal -0.133793 -0.166863 0.97686
  outer loop
   vertex 111.086 155.219 158.019
   vertex 112.159 154.219 157.995
   vertex 112.204 155.261 158.179
  endloop
 endfacet
 facet normal 0.616101 -0.162239 0.770777
  outer loop
   vertex 112.974 154.194 157.339
   vertex 112.204 155.261 158.179
   vertex 112.159 154.219 157.995
  endloop
 endfacet
 facet normal -0.522706 -0.727442 0.444529
  outer loop
   vertex 112.974 154.194 157.339
   vertex 113.309 154.533 158.286
   vertex 112.204 155.261 158.179
  endloop
 endfacet
 facet normal 0.575788 -0.812985 0.0867448
  outer loop
   vertex 112.974 154.194 157.339
   vertex 113.334 154.437 157.229
   vertex 113.309 154.533 158.286
  endloop
 endfacet
 facet normal 0.680137 -0.728528 0.0816086
  outer loop
   vertex 113.309 154.533 158.286
   vertex 113.334 154.437 157.229
   vertex 114.175 155.232 157.314
  endloop
 endfacet
 facet normal 0.668769 -0.740827 0.0626386
  outer loop
   vertex 114.08 155.235 158.366
   vertex 113.309 154.533 158.286
   vertex 114.175 155.232 157.314
  endloop
 endfacet
 facet normal -0.612809 -0.544177 0.573006
  outer loop
   vertex 110.024 155.537 157.318
   vertex 110.021 156.259 158
   vertex 109.3 156.296 157.265
  endloop
 endfacet
 facet normal -0.545138 -0.647942 0.531973
  outer loop
   vertex 110.024 155.537 157.318
   vertex 110.347 155.22 157.263
   vertex 111.086 155.219 158.019
  endloop
 endfacet
 facet normal -0.565046 -0.567956 0.598456
  outer loop
   vertex 110.024 155.537 157.318
   vertex 111.086 155.219 158.019
   vertex 110.021 156.259 158
  endloop
 endfacet
 facet normal -0.111973 -0.0969265 0.988973
  outer loop
   vertex 110.021 156.259 158
   vertex 111.086 155.219 158.019
   vertex 111.058 156.257 158.117
  endloop
 endfacet
 facet normal -0.512822 -0.549185 0.659855
  outer loop
   vertex 111.407 156.226 158.363
   vertex 111.058 156.257 158.117
   vertex 112.204 155.261 158.179
  endloop
 endfacet
 facet normal -0.137711 -0.0973209 0.98568
  outer loop
   vertex 111.058 156.257 158.117
   vertex 111.086 155.219 158.019
   vertex 112.204 155.261 158.179
  endloop
 endfacet
 facet normal 0.676122 -0.734067 0.0632882
  outer loop
   vertex 114.175 155.232 157.314
   vertex 114.373 155.507 158.387
   vertex 114.08 155.235 158.366
  endloop
 endfacet
 facet normal 0.660179 -0.747862 0.0697544
  outer loop
   vertex 114.373 155.507 158.387
   vertex 114.175 155.232 157.314
   vertex 115.257 156.267 158.166
  endloop
 endfacet
 facet normal -0.689418 -0.00347032 0.724355
  outer loop
   vertex 110.021 156.259 158
   vertex 110.027 157.282 158.011
   vertex 109.297 157.243 157.317
  endloop
 endfacet
 facet normal -0.714776 -0.0402686 0.698194
  outer loop
   vertex 109.3 156.296 157.265
   vertex 110.021 156.259 158
   vertex 109.297 157.243 157.317
  endloop
 endfacet
 facet normal -0.614338 -0.556062 0.559807
  outer loop
   vertex 110.298 157.299 158.319
   vertex 111.058 156.257 158.117
   vertex 111.092 156.524 158.42
  endloop
 endfacet
 facet normal -0.609292 -0.553862 0.56745
  outer loop
   vertex 110.298 157.299 158.319
   vertex 110.027 157.282 158.011
   vertex 111.058 156.257 158.117
  endloop
 endfacet
 facet normal -0.112338 -0.0100988 0.993619
  outer loop
   vertex 110.027 157.282 158.011
   vertex 110.021 156.259 158
   vertex 111.058 156.257 158.117
  endloop
 endfacet
 facet normal -0.48404 -0.62863 0.608711
  outer loop
   vertex 111.407 156.226 158.363
   vertex 111.092 156.524 158.42
   vertex 111.058 156.257 158.117
  endloop
 endfacet
 facet normal 0.743722 -0.653645 0.140093
  outer loop
   vertex 115.476 156.561 158.377
   vertex 115.257 156.267 158.166
   vertex 116.304 157.277 157.323
  endloop
 endfacet
 facet normal 0.712477 -0.696334 0.0865722
  outer loop
   vertex 116.241 157.333 158.288
   vertex 115.476 156.561 158.377
   vertex 116.304 157.277 157.323
  endloop
 endfacet
 facet normal -0.565174 0.60606 0.559705
  outer loop
   vertex 109.297 157.243 157.317
   vertex 110.027 157.282 158.011
   vertex 110.05 158.018 157.237
  endloop
 endfacet
 facet normal -0.780581 0.464216 0.418566
  outer loop
   vertex 110.027 157.282 158.011
   vertex 110.279 158.325 157.325
   vertex 110.05 158.018 157.237
  endloop
 endfacet
 facet normal -0.65523 0.519432 0.54851
  outer loop
   vertex 110.027 157.282 158.011
   vertex 110.298 157.299 158.319
   vertex 110.279 158.325 157.325
  endloop
 endfacet
 facet normal -0.999761 0.00252123 0.0217153
  outer loop
   vertex 110.298 157.299 158.319
   vertex 110.301 158.327 158.354
   vertex 110.279 158.325 157.325
  endloop
 endfacet
 facet normal 0.613161 0.482223 0.625695
  outer loop
   vertex 115.582 158.304 158.093
   vertex 115.228 158.381 158.381
   vertex 115.525 158.035 158.357
  endloop
 endfacet
 facet normal 0.122141 -0.671876 0.730523
  outer loop
   vertex 116.57 157.637 157.313
   vertex 116.548 158.371 157.992
   vertex 115.582 158.304 158.093
  endloop
 endfacet
 facet normal 0.711204 0.565912 0.417052
  outer loop
   vertex 116.57 157.637 157.313
   vertex 115.582 158.304 158.093
   vertex 116.241 157.333 158.288
  endloop
 endfacet
 facet normal 0.802021 -0.591012 0.086417
  outer loop
   vertex 116.57 157.637 157.313
   vertex 116.241 157.333 158.288
   vertex 116.304 157.277 157.323
  endloop
 endfacet
 facet normal 0.564918 0.512836 0.646425
  outer loop
   vertex 115.525 158.035 158.357
   vertex 116.241 157.333 158.288
   vertex 115.582 158.304 158.093
  endloop
 endfacet
 facet normal 0.563357 -0.551748 0.614982
  outer loop
   vertex 116.57 157.637 157.313
   vertex 117.276 158.336 157.294
   vertex 116.548 158.371 157.992
  endloop
 endfacet
 facet normal -0.998068 0.0582698 0.0215718
  outer loop
   vertex 110.279 158.325 157.325
   vertex 110.301 158.327 158.354
   vertex 110.34 159.356 157.364
  endloop
 endfacet
 facet normal -0.998732 0.0489293 0.0118438
  outer loop
   vertex 110.301 158.327 158.354
   vertex 110.35 159.328 158.353
   vertex 110.34 159.356 157.364
  endloop
 endfacet
 facet normal 0.639849 0.0840067 0.763895
  outer loop
   vertex 115.522 159.365 158.026
   vertex 115.228 158.381 158.381
   vertex 115.582 158.304 158.093
  endloop
 endfacet
 facet normal 0.660781 0.0717182 0.747145
  outer loop
   vertex 115.159 159.404 158.343
   vertex 115.228 158.381 158.381
   vertex 115.522 159.365 158.026
  endloop
 endfacet
 facet normal 0.548506 0.643692 0.533669
  outer loop
   vertex 116.576 159.053 157.319
   vertex 116.287 159.385 157.216
   vertex 115.522 159.365 158.026
  endloop
 endfacet
 facet normal 0.568214 0.566197 0.597121
  outer loop
   vertex 116.576 159.053 157.319
   vertex 115.522 159.365 158.026
   vertex 116.548 158.371 157.992
  endloop
 endfacet
 facet normal 0.0984128 0.0676915 0.992841
  outer loop
   vertex 116.548 158.371 157.992
   vertex 115.522 159.365 158.026
   vertex 115.582 158.304 158.093
  endloop
 endfacet
 facet normal 0.589568 0.555089 0.586759
  outer loop
   vertex 117.276 158.336 157.294
   vertex 116.576 159.053 157.319
   vertex 116.548 158.371 157.992
  endloop
 endfacet
 facet normal -0.717548 0.695983 0.0270644
  outer loop
   vertex 110.34 159.356 157.364
   vertex 110.35 159.328 158.353
   vertex 111.083 160.086 158.286
  endloop
 endfacet
 facet normal -0.67173 0.739475 -0.0442305
  outer loop
   vertex 111.172 160.106 157.273
   vertex 110.34 159.356 157.364
   vertex 111.083 160.086 158.286
  endloop
 endfacet
 facet normal -0.144364 0.984538 0.0992152
  outer loop
   vertex 112.243 160.255 157.353
   vertex 111.172 160.106 157.273
   vertex 112.111 160.138 158.317
  endloop
 endfacet
 facet normal -0.0515773 0.998551 0.0153227
  outer loop
   vertex 111.172 160.106 157.273
   vertex 111.083 160.086 158.286
   vertex 112.111 160.138 158.317
  endloop
 endfacet
 facet normal -0.54664 0.836954 0.0263163
  outer loop
   vertex 112.496 160.388 158.351
   vertex 112.243 160.255 157.353
   vertex 112.111 160.138 158.317
  endloop
 endfacet
 facet normal 0.540496 0.585914 0.603796
  outer loop
   vertex 114.413 160.427 158.071
   vertex 114.085 160.437 158.355
   vertex 114.379 160.141 158.38
  endloop
 endfacet
 facet normal 0.566964 0.571458 0.593286
  outer loop
   vertex 115.159 159.404 158.343
   vertex 114.413 160.427 158.071
   vertex 114.379 160.141 158.38
  endloop
 endfacet
 facet normal 0.573489 0.573905 0.584588
  outer loop
   vertex 115.522 159.365 158.026
   vertex 114.413 160.427 158.071
   vertex 115.159 159.404 158.343
  endloop
 endfacet
 facet normal 0.553774 0.551675 0.62369
  outer loop
   vertex 115.522 159.365 158.026
   vertex 115.211 160.439 157.352
   vertex 114.413 160.427 158.071
  endloop
 endfacet
 facet normal 0.623473 0.537058 0.568199
  outer loop
   vertex 115.522 159.365 158.026
   vertex 115.525 160.116 157.314
   vertex 115.211 160.439 157.352
  endloop
 endfacet
 facet normal 0.600911 0.549125 0.580834
  outer loop
   vertex 116.287 159.385 157.216
   vertex 115.525 160.116 157.314
   vertex 115.522 159.365 158.026
  endloop
 endfacet
 facet normal -0.656052 0.751874 0.0654222
  outer loop
   vertex 112.243 160.255 157.353
   vertex 112.496 160.388 158.351
   vertex 113.309 161.106 158.266
  endloop
 endfacet
 facet normal -0.649219 0.758896 0.0509068
  outer loop
   vertex 113.31 161.177 157.22
   vertex 112.243 160.255 157.353
   vertex 113.309 161.106 158.266
  endloop
 endfacet
 facet normal -0.620304 0.0929287 0.778837
  outer loop
   vertex 113.651 161.431 157.345
   vertex 114.413 160.427 158.071
   vertex 114.43 161.407 157.968
  endloop
 endfacet
 facet normal 0.523883 0.723256 0.44994
  outer loop
   vertex 113.651 161.431 157.345
   vertex 113.309 161.106 158.266
   vertex 114.413 160.427 158.071
  endloop
 endfacet
 facet normal -0.609144 0.791276 0.0531486
  outer loop
   vertex 113.651 161.431 157.345
   vertex 113.31 161.177 157.22
   vertex 113.309 161.106 158.266
  endloop
 endfacet
 facet normal 0.503589 0.65894 0.558745
  outer loop
   vertex 113.309 161.106 158.266
   vertex 114.085 160.437 158.355
   vertex 114.413 160.427 158.071
  endloop
 endfacet
 facet normal 0.703263 0.121963 0.70039
  outer loop
   vertex 115.211 160.439 157.352
   vertex 115.141 161.409 157.254
   vertex 114.43 161.407 157.968
  endloop
 endfacet
 facet normal 0.667137 0.0664228 0.741967
  outer loop
   vertex 114.413 160.427 158.071
   vertex 115.211 160.439 157.352
   vertex 114.43 161.407 157.968
  endloop
 endfacet
 facet normal -0.490198 0.596867 0.635182
  outer loop
   vertex 113.651 161.431 157.345
   vertex 114.43 161.407 157.968
   vertex 114.399 162.102 157.292
  endloop
 endfacet
 facet normal 0.574752 0.583725 0.57352
  outer loop
   vertex 115.141 161.409 157.254
   vertex 114.399 162.102 157.292
   vertex 114.43 161.407 157.968
  endloop
 endfacet
 facet normal -0.470982 -0.622459 0.625077
  outer loop
   vertex 113.309 154.533 158.286
   vertex 113.299 156.245 159.984
   vertex 112.204 155.261 158.179
  endloop
 endfacet
 facet normal 0.493013 -0.611142 0.619228
  outer loop
   vertex 113.309 154.533 158.286
   vertex 114.08 155.235 158.366
   vertex 113.299 156.245 159.984
  endloop
 endfacet
 facet normal -0.56875 -0.580644 0.582559
  outer loop
   vertex 112.204 155.261 158.179
   vertex 112.158 156.459 159.328
   vertex 111.407 156.226 158.363
  endloop
 endfacet
 facet normal -0.513119 -0.604351 0.609483
  outer loop
   vertex 112.204 155.261 158.179
   vertex 112.476 156.202 159.341
   vertex 112.158 156.459 159.328
  endloop
 endfacet
 facet normal -0.452974 -0.638063 0.622648
  outer loop
   vertex 112.204 155.261 158.179
   vertex 113.299 156.245 159.984
   vertex 112.476 156.202 159.341
  endloop
 endfacet
 facet normal 0.475647 -0.632108 0.611719
  outer loop
   vertex 114.373 155.507 158.387
   vertex 114.426 156.275 159.139
   vertex 113.299 156.245 159.984
  endloop
 endfacet
 facet normal 0.510271 -0.597202 0.618848
  outer loop
   vertex 114.373 155.507 158.387
   vertex 113.299 156.245 159.984
   vertex 114.08 155.235 158.366
  endloop
 endfacet
 facet normal 0.622778 -0.569122 0.536887
  outer loop
   vertex 114.373 155.507 158.387
   vertex 115.257 156.267 158.166
   vertex 114.426 156.275 159.139
  endloop
 endfacet
 facet normal -0.676276 -0.731878 0.0837015
  outer loop
   vertex 111.092 156.524 158.42
   vertex 111.151 156.58 159.391
   vertex 110.361 157.301 159.304
  endloop
 endfacet
 facet normal -0.700887 -0.711807 0.0456931
  outer loop
   vertex 110.298 157.299 158.319
   vertex 111.092 156.524 158.42
   vertex 110.361 157.301 159.304
  endloop
 endfacet
 facet normal -0.514733 -0.651248 0.557608
  outer loop
   vertex 112.158 156.459 159.328
   vertex 111.092 156.524 158.42
   vertex 111.407 156.226 158.363
  endloop
 endfacet
 facet normal -0.115293 -0.991221 0.0647126
  outer loop
   vertex 112.158 156.459 159.328
   vertex 111.151 156.58 159.391
   vertex 111.092 156.524 158.42
  endloop
 endfacet
 facet normal 0.597858 -0.520961 0.609233
  outer loop
   vertex 115.449 157.329 159.055
   vertex 115.117 157.331 159.383
   vertex 114.506 156.587 159.346
  endloop
 endfacet
 facet normal 0.59713 -0.519155 0.611485
  outer loop
   vertex 115.476 156.561 158.377
   vertex 115.449 157.329 159.055
   vertex 114.506 156.587 159.346
  endloop
 endfacet
 facet normal 0.583831 -0.548126 0.598916
  outer loop
   vertex 115.476 156.561 158.377
   vertex 114.506 156.587 159.346
   vertex 114.426 156.275 159.139
  endloop
 endfacet
 facet normal 0.5262 -0.717969 0.455668
  outer loop
   vertex 115.476 156.561 158.377
   vertex 114.426 156.275 159.139
   vertex 115.257 156.267 158.166
  endloop
 endfacet
 facet normal 0.595965 -0.519752 0.612114
  outer loop
   vertex 115.476 156.561 158.377
   vertex 116.241 157.333 158.288
   vertex 115.449 157.329 159.055
  endloop
 endfacet
 facet normal -0.589791 0.533259 0.60645
  outer loop
   vertex 111.082 158.052 159.354
   vertex 111.144 158.402 159.107
   vertex 110.301 158.327 158.354
  endloop
 endfacet
 facet normal -0.592985 0.528381 0.607604
  outer loop
   vertex 111.082 158.052 159.354
   vertex 110.301 158.327 158.354
   vertex 110.361 157.301 159.304
  endloop
 endfacet
 facet normal -0.99798 0.00107974 0.0635216
  outer loop
   vertex 110.361 157.301 159.304
   vertex 110.301 158.327 158.354
   vertex 110.298 157.299 158.319
  endloop
 endfacet
 facet normal -0.054782 0.576167 0.815494
  outer loop
   vertex 111.144 158.402 159.107
   vertex 112.11 158.07 159.407
   vertex 112.241 158.412 159.174
  endloop
 endfacet
 facet normal -0.0511803 0.582674 0.811093
  outer loop
   vertex 111.082 158.052 159.354
   vertex 112.11 158.07 159.407
   vertex 111.144 158.402 159.107
  endloop
 endfacet
 facet normal -0.418549 0.614783 0.668474
  outer loop
   vertex 112.11 158.07 159.407
   vertex 112.494 158.313 159.423
   vertex 112.241 158.412 159.174
  endloop
 endfacet
 facet normal 0.558061 0.543992 0.626611
  outer loop
   vertex 115.117 157.331 159.383
   vertex 114.386 158.344 159.155
   vertex 114.384 158.026 159.432
  endloop
 endfacet
 facet normal 0.585637 0.555674 0.590131
  outer loop
   vertex 115.449 157.329 159.055
   vertex 114.386 158.344 159.155
   vertex 115.117 157.331 159.383
  endloop
 endfacet
 facet normal 0.562455 0.526761 0.637313
  outer loop
   vertex 115.449 157.329 159.055
   vertex 115.228 158.381 158.381
   vertex 114.386 158.344 159.155
  endloop
 endfacet
 facet normal 0.637561 0.506241 0.58072
  outer loop
   vertex 115.449 157.329 159.055
   vertex 115.525 158.035 158.357
   vertex 115.228 158.381 158.381
  endloop
 endfacet
 facet normal 0.585416 0.53764 0.606821
  outer loop
   vertex 116.241 157.333 158.288
   vertex 115.525 158.035 158.357
   vertex 115.449 157.329 159.055
  endloop
 endfacet
 facet normal -0.656164 0.0512604 0.752875
  outer loop
   vertex 111.144 158.402 159.107
   vertex 111.15 159.394 159.045
   vertex 110.35 159.328 158.353
  endloop
 endfacet
 facet normal -0.667674 0.0339101 0.743681
  outer loop
   vertex 110.301 158.327 158.354
   vertex 111.144 158.402 159.107
   vertex 110.35 159.328 158.353
  endloop
 endfacet
 facet normal -0.0612611 0.0771021 0.995139
  outer loop
   vertex 112.241 158.412 159.174
   vertex 112.208 159.396 159.095
   vertex 111.144 158.402 159.107
  endloop
 endfacet
 facet normal -0.0474987 0.0623791 0.996922
  outer loop
   vertex 112.208 159.396 159.095
   vertex 111.15 159.394 159.045
   vertex 111.144 158.402 159.107
  endloop
 endfacet
 facet normal -0.464293 0.554227 0.690844
  outer loop
   vertex 113.271 159.019 159.379
   vertex 112.241 158.412 159.174
   vertex 112.494 158.313 159.423
  endloop
 endfacet
 facet normal -0.462747 0.550157 0.695121
  outer loop
   vertex 113.271 159.019 159.379
   vertex 113.3 159.335 159.148
   vertex 112.241 158.412 159.174
  endloop
 endfacet
 facet normal -0.0440413 0.0777398 0.996
  outer loop
   vertex 113.3 159.335 159.148
   vertex 112.208 159.396 159.095
   vertex 112.241 158.412 159.174
  endloop
 endfacet
 facet normal 0.451265 0.498911 0.739897
  outer loop
   vertex 114.386 158.344 159.155
   vertex 113.3 159.335 159.148
   vertex 113.271 159.019 159.379
  endloop
 endfacet
 facet normal 0.0787423 0.0927447 0.992571
  outer loop
   vertex 114.386 158.344 159.155
   vertex 114.383 159.367 159.06
   vertex 113.3 159.335 159.148
  endloop
 endfacet
 facet normal 0.674268 0.0721773 0.734951
  outer loop
   vertex 115.228 158.381 158.381
   vertex 115.159 159.404 158.343
   vertex 114.383 159.367 159.06
  endloop
 endfacet
 facet normal 0.673247 0.0705494 0.736044
  outer loop
   vertex 114.386 158.344 159.155
   vertex 115.228 158.381 158.381
   vertex 114.383 159.367 159.06
  endloop
 endfacet
 facet normal -0.556203 0.589039 0.586234
  outer loop
   vertex 110.35 159.328 158.353
   vertex 111.15 159.394 159.045
   vertex 111.083 160.086 158.286
  endloop
 endfacet
 facet normal -0.0578475 0.735252 0.675321
  outer loop
   vertex 112.111 160.138 158.317
   vertex 111.083 160.086 158.286
   vertex 111.15 159.394 159.045
  endloop
 endfacet
 facet normal -0.0343451 0.721156 0.69192
  outer loop
   vertex 112.208 159.396 159.095
   vertex 112.111 160.138 158.317
   vertex 111.15 159.394 159.045
  endloop
 endfacet
 facet normal -0.456527 0.614704 0.643212
  outer loop
   vertex 112.496 160.388 158.351
   vertex 112.111 160.138 158.317
   vertex 112.208 159.396 159.095
  endloop
 endfacet
 facet normal -0.48849 0.609707 0.624207
  outer loop
   vertex 112.496 160.388 158.351
   vertex 112.208 159.396 159.095
   vertex 113.328 160.347 159.043
  endloop
 endfacet
 facet normal -0.0423941 0.10507 0.993561
  outer loop
   vertex 113.328 160.347 159.043
   vertex 112.208 159.396 159.095
   vertex 113.3 159.335 159.148
  endloop
 endfacet
 facet normal 0.516604 0.565401 0.642995
  outer loop
   vertex 114.379 160.141 158.38
   vertex 114.085 160.437 158.355
   vertex 113.328 160.347 159.043
  endloop
 endfacet
 facet normal 0.516331 0.566548 0.642204
  outer loop
   vertex 114.379 160.141 158.38
   vertex 113.328 160.347 159.043
   vertex 114.383 159.367 159.06
  endloop
 endfacet
 facet normal 0.0784138 0.101571 0.991733
  outer loop
   vertex 114.383 159.367 159.06
   vertex 113.328 160.347 159.043
   vertex 113.3 159.335 159.148
  endloop
 endfacet
 facet normal 0.550514 0.552412 0.625919
  outer loop
   vertex 115.159 159.404 158.343
   vertex 114.379 160.141 158.38
   vertex 114.383 159.367 159.06
  endloop
 endfacet
 facet normal -0.482734 0.620589 0.61793
  outer loop
   vertex 112.496 160.388 158.351
   vertex 113.328 160.347 159.043
   vertex 113.309 161.106 158.266
  endloop
 endfacet
 facet normal 0.47685 0.634538 0.608257
  outer loop
   vertex 114.085 160.437 158.355
   vertex 113.309 161.106 158.266
   vertex 113.328 160.347 159.043
  endloop
 endfacet
 facet normal -0.568265 -0.549486 0.612487
  outer loop
   vertex 111.151 156.58 159.391
   vertex 111.151 157.322 160.056
   vertex 110.361 157.301 159.304
  endloop
 endfacet
 facet normal -0.0343939 -0.670629 0.740995
  outer loop
   vertex 111.151 156.58 159.391
   vertex 112.158 156.459 159.328
   vertex 112.207 157.297 160.089
  endloop
 endfacet
 facet normal -0.0390048 -0.666892 0.744132
  outer loop
   vertex 111.151 157.322 160.056
   vertex 111.151 156.58 159.391
   vertex 112.207 157.297 160.089
  endloop
 endfacet
 facet normal -0.487233 -0.569612 0.661926
  outer loop
   vertex 112.158 156.459 159.328
   vertex 112.476 156.202 159.341
   vertex 113.299 156.245 159.984
  endloop
 endfacet
 facet normal -0.486886 -0.571216 0.660798
  outer loop
   vertex 112.158 156.459 159.328
   vertex 113.299 156.245 159.984
   vertex 112.207 157.297 160.089
  endloop
 endfacet
 facet normal 0.52117 -0.561237 0.642958
  outer loop
   vertex 114.426 156.275 159.139
   vertex 114.506 156.587 159.346
   vertex 114.359 157.26 160.053
  endloop
 endfacet
 facet normal 0.502909 -0.569336 0.650338
  outer loop
   vertex 114.426 156.275 159.139
   vertex 114.359 157.26 160.053
   vertex 113.299 156.245 159.984
  endloop
 endfacet
 facet normal 0.593332 -0.517612 0.616469
  outer loop
   vertex 114.506 156.587 159.346
   vertex 115.117 157.331 159.383
   vertex 114.359 157.26 160.053
  endloop
 endfacet
 facet normal -0.592656 0.528023 0.608235
  outer loop
   vertex 110.361 157.301 159.304
   vertex 111.151 157.322 160.056
   vertex 111.082 158.052 159.354
  endloop
 endfacet
 facet normal -0.0485205 0.68936 0.722792
  outer loop
   vertex 112.11 158.07 159.407
   vertex 111.082 158.052 159.354
   vertex 111.151 157.322 160.056
  endloop
 endfacet
 facet normal -0.00845656 0.661488 0.749908
  outer loop
   vertex 112.207 157.297 160.089
   vertex 112.11 158.07 159.407
   vertex 111.151 157.322 160.056
  endloop
 endfacet
 facet normal -0.397663 0.578993 0.71178
  outer loop
   vertex 112.494 158.313 159.423
   vertex 112.11 158.07 159.407
   vertex 112.207 157.297 160.089
  endloop
 endfacet
 facet normal -0.469512 0.572988 0.671747
  outer loop
   vertex 112.494 158.313 159.423
   vertex 112.207 157.297 160.089
   vertex 113.335 158.236 160.076
  endloop
 endfacet
 facet normal 0.0505503 -0.0470656 0.997612
  outer loop
   vertex 113.335 158.236 160.076
   vertex 112.207 157.297 160.089
   vertex 113.299 156.245 159.984
  endloop
 endfacet
 facet normal 0.511137 0.563616 0.648904
  outer loop
   vertex 114.384 158.026 159.432
   vertex 114.386 158.344 159.155
   vertex 113.335 158.236 160.076
  endloop
 endfacet
 facet normal 0.51845 0.528382 0.672326
  outer loop
   vertex 114.384 158.026 159.432
   vertex 113.335 158.236 160.076
   vertex 114.359 157.26 160.053
  endloop
 endfacet
 facet normal -0.0212574 -0.0458452 0.998722
  outer loop
   vertex 114.359 157.26 160.053
   vertex 113.335 158.236 160.076
   vertex 113.299 156.245 159.984
  endloop
 endfacet
 facet normal 0.538028 0.520312 0.663175
  outer loop
   vertex 115.117 157.331 159.383
   vertex 114.384 158.026 159.432
   vertex 114.359 157.26 160.053
  endloop
 endfacet
 facet normal -0.473904 0.56391 0.676329
  outer loop
   vertex 112.494 158.313 159.423
   vertex 113.335 158.236 160.076
   vertex 113.271 159.019 159.379
  endloop
 endfacet
 facet normal 0.49118 0.601005 0.630503
  outer loop
   vertex 114.386 158.344 159.155
   vertex 113.271 159.019 159.379
   vertex 113.335 158.236 160.076
  endloop
 endfacet
endsolid
