solid ascii
 facet normal -0.363989 -0.608965 -0.704751
  outer loop
   vertex 125.329 140.857 132.935
   vertex 125.591 139.855 133.666
   vertex 124.305 140.718 133.584
  endloop
 endfacet
 facet normal 0.286941 -0.514258 -0.80821
  outer loop
   vertex 125.591 139.855 133.666
   vertex 125.329 140.857 132.935
   vertex 126.022 140.656 133.309
  endloop
 endfacet
 facet normal -0.572384 -0.366435 -0.733554
  outer loop
   vertex 124.435 141.514 132.847
   vertex 124.172 141.141 133.238
   vertex 123.72 141.782 133.271
  endloop
 endfacet
 facet normal -0.167556 -0.655301 -0.73655
  outer loop
   vertex 124.305 140.718 133.584
   vertex 124.172 141.141 133.238
   vertex 124.435 141.514 132.847
  endloop
 endfacet
 facet normal -0.369247 -0.598636 -0.710839
  outer loop
   vertex 124.305 140.718 133.584
   vertex 124.435 141.514 132.847
   vertex 125.329 140.857 132.935
  endloop
 endfacet
 facet normal 0.0210573 -0.105031 -0.994246
  outer loop
   vertex 125.329 140.857 132.935
   vertex 124.435 141.514 132.847
   vertex 125.216 141.852 132.828
  endloop
 endfacet
 facet normal 0.463149 -0.0502464 -0.884855
  outer loop
   vertex 126.023 141.477 133.263
   vertex 126.022 140.656 133.309
   vertex 125.329 140.857 132.935
  endloop
 endfacet
 facet normal 0.458482 -0.0435543 -0.887636
  outer loop
   vertex 125.216 141.852 132.828
   vertex 126.023 141.477 133.263
   vertex 125.329 140.857 132.935
  endloop
 endfacet
 facet normal -0.517838 -0.0295245 -0.854969
  outer loop
   vertex 124.345 142.436 132.869
   vertex 124.435 141.514 132.847
   vertex 123.72 141.782 133.271
  endloop
 endfacet
 facet normal -0.520125 -0.0265431 -0.853677
  outer loop
   vertex 123.712 142.628 133.249
   vertex 124.345 142.436 132.869
   vertex 123.72 141.782 133.271
  endloop
 endfacet
 facet normal 0.400735 0.466657 -0.788443
  outer loop
   vertex 124.96 142.62 133.152
   vertex 125.431 142.677 133.425
   vertex 125.216 141.852 132.828
  endloop
 endfacet
 facet normal 0.25991 0.448076 -0.85538
  outer loop
   vertex 124.96 142.62 133.152
   vertex 125.216 141.852 132.828
   vertex 124.345 142.436 132.869
  endloop
 endfacet
 facet normal -0.0336371 0.0209012 -0.999216
  outer loop
   vertex 124.345 142.436 132.869
   vertex 125.216 141.852 132.828
   vertex 124.435 141.514 132.847
  endloop
 endfacet
 facet normal 0.569785 0.379516 -0.728912
  outer loop
   vertex 126.023 141.477 133.263
   vertex 125.216 141.852 132.828
   vertex 125.431 142.677 133.425
  endloop
 endfacet
 facet normal -0.438413 -0.361876 -0.822702
  outer loop
   vertex 123.263 143.926 132.961
   vertex 123.07 143.362 133.312
   vertex 122.596 144.02 133.275
  endloop
 endfacet
 facet normal -0.330754 0.496774 -0.802382
  outer loop
   vertex 123.712 142.628 133.249
   vertex 124.319 143.099 133.29
   vertex 124.345 142.436 132.869
  endloop
 endfacet
 facet normal 0.2537 -0.572104 -0.779957
  outer loop
   vertex 123.07 143.362 133.312
   vertex 123.263 143.926 132.961
   vertex 123.736 143.684 133.292
  endloop
 endfacet
 facet normal 0.219138 0.529425 -0.819566
  outer loop
   vertex 124.96 142.62 133.152
   vertex 124.345 142.436 132.869
   vertex 124.319 143.099 133.29
  endloop
 endfacet
 facet normal -0.433012 -0.069706 -0.898689
  outer loop
   vertex 123.138 144.613 132.968
   vertex 123.263 143.926 132.961
   vertex 122.596 144.02 133.275
  endloop
 endfacet
 facet normal -0.571356 0.100395 -0.814538
  outer loop
   vertex 122.683 144.845 133.316
   vertex 123.138 144.613 132.968
   vertex 122.596 144.02 133.275
  endloop
 endfacet
 facet normal 0.544229 -0.0799185 -0.835121
  outer loop
   vertex 123.81 144.516 133.261
   vertex 123.736 143.684 133.292
   vertex 123.263 143.926 132.961
  endloop
 endfacet
 facet normal 0.408172 0.0836858 -0.909061
  outer loop
   vertex 123.138 144.613 132.968
   vertex 123.81 144.516 133.261
   vertex 123.263 143.926 132.961
  endloop
 endfacet
 facet normal -0.28288 0.584208 -0.76071
  outer loop
   vertex 123.138 144.613 132.968
   vertex 122.683 144.845 133.316
   vertex 123.336 145.165 133.318
  endloop
 endfacet
 facet normal 0.415094 0.376391 -0.828267
  outer loop
   vertex 123.81 144.516 133.261
   vertex 123.138 144.613 132.968
   vertex 123.336 145.165 133.318
  endloop
 endfacet
 facet normal -0.349671 -0.727834 -0.589905
  outer loop
   vertex 125.591 139.855 133.666
   vertex 125.583 139.225 134.448
   vertex 124.826 139.718 134.288
  endloop
 endfacet
 facet normal -0.0295212 -0.744939 -0.666479
  outer loop
   vertex 125.591 139.855 133.666
   vertex 126.716 139.726 133.761
   vertex 126.507 139.188 134.371
  endloop
 endfacet
 facet normal -0.0833706 -0.775685 -0.625589
  outer loop
   vertex 125.583 139.225 134.448
   vertex 125.591 139.855 133.666
   vertex 126.507 139.188 134.371
  endloop
 endfacet
 facet normal 0.169664 -0.622242 -0.764218
  outer loop
   vertex 126.716 139.726 133.761
   vertex 127.599 139.782 133.911
   vertex 127.405 139.253 134.298
  endloop
 endfacet
 facet normal 0.00115372 -0.750492 -0.660878
  outer loop
   vertex 126.507 139.188 134.371
   vertex 126.716 139.726 133.761
   vertex 127.405 139.253 134.298
  endloop
 endfacet
 facet normal 0.527725 -0.619473 -0.581171
  outer loop
   vertex 127.405 139.253 134.298
   vertex 127.599 139.782 133.911
   vertex 127.986 139.665 134.387
  endloop
 endfacet
 facet normal -0.593178 -0.704725 -0.389234
  outer loop
   vertex 124.305 140.718 133.584
   vertex 124.405 140.036 134.666
   vertex 123.449 140.935 134.496
  endloop
 endfacet
 facet normal -0.735113 -0.602144 -0.311498
  outer loop
   vertex 124.826 139.718 134.288
   vertex 124.405 140.036 134.666
   vertex 124.305 140.718 133.584
  endloop
 endfacet
 facet normal -0.401019 -0.657785 -0.637576
  outer loop
   vertex 125.591 139.855 133.666
   vertex 124.826 139.718 134.288
   vertex 124.305 140.718 133.584
  endloop
 endfacet
 facet normal 0.377467 -0.538583 -0.753291
  outer loop
   vertex 126.022 140.656 133.309
   vertex 126.439 140.642 133.528
   vertex 125.591 139.855 133.666
  endloop
 endfacet
 facet normal 0.0555336 -0.23011 -0.971579
  outer loop
   vertex 126.439 140.642 133.528
   vertex 126.716 139.726 133.761
   vertex 125.591 139.855 133.666
  endloop
 endfacet
 facet normal 0.171047 -0.0582937 -0.983537
  outer loop
   vertex 127.599 139.782 133.911
   vertex 126.716 139.726 133.761
   vertex 127.392 140.68 133.822
  endloop
 endfacet
 facet normal 0.296813 -0.149918 -0.943094
  outer loop
   vertex 127.392 140.68 133.822
   vertex 126.716 139.726 133.761
   vertex 126.439 140.642 133.528
  endloop
 endfacet
 facet normal 0.759465 -0.102671 -0.642395
  outer loop
   vertex 128.134 140.376 134.448
   vertex 127.986 139.665 134.387
   vertex 127.599 139.782 133.911
  endloop
 endfacet
 facet normal 0.661633 0.0787372 -0.745682
  outer loop
   vertex 127.392 140.68 133.822
   vertex 128.134 140.376 134.448
   vertex 127.599 139.782 133.911
  endloop
 endfacet
 facet normal -0.539287 -0.681898 -0.494151
  outer loop
   vertex 123.214 141.701 133.695
   vertex 123.449 140.935 134.496
   vertex 122.624 141.716 134.319
  endloop
 endfacet
 facet normal -0.626879 -0.646604 -0.434658
  outer loop
   vertex 124.305 140.718 133.584
   vertex 123.449 140.935 134.496
   vertex 123.214 141.701 133.695
  endloop
 endfacet
 facet normal -0.513318 -0.490005 -0.704557
  outer loop
   vertex 124.305 140.718 133.584
   vertex 123.214 141.701 133.695
   vertex 123.72 141.782 133.271
  endloop
 endfacet
 facet normal -0.774187 -0.528598 -0.348164
  outer loop
   vertex 124.305 140.718 133.584
   vertex 123.72 141.782 133.271
   vertex 124.172 141.141 133.238
  endloop
 endfacet
 facet normal 0.562794 0.018548 -0.826389
  outer loop
   vertex 126.439 140.642 133.528
   vertex 126.023 141.477 133.263
   vertex 126.569 141.667 133.639
  endloop
 endfacet
 facet normal 0.462361 -0.0502696 -0.885266
  outer loop
   vertex 126.022 140.656 133.309
   vertex 126.023 141.477 133.263
   vertex 126.439 140.642 133.528
  endloop
 endfacet
 facet normal 0.602734 0.285918 -0.744959
  outer loop
   vertex 127.601 141.655 134.365
   vertex 127.842 141.09 134.343
   vertex 127.392 140.68 133.822
  endloop
 endfacet
 facet normal 0.548615 0.31419 -0.774795
  outer loop
   vertex 127.601 141.655 134.365
   vertex 127.392 140.68 133.822
   vertex 126.569 141.667 133.639
  endloop
 endfacet
 facet normal 0.291665 0.0668152 -0.954184
  outer loop
   vertex 126.569 141.667 133.639
   vertex 127.392 140.68 133.822
   vertex 126.439 140.642 133.528
  endloop
 endfacet
 facet normal 0.675496 0.170895 -0.717286
  outer loop
   vertex 128.134 140.376 134.448
   vertex 127.392 140.68 133.822
   vertex 127.842 141.09 134.343
  endloop
 endfacet
 facet normal -0.61951 -0.648757 -0.441952
  outer loop
   vertex 122.321 142.54 133.826
   vertex 122.21 142.074 134.665
   vertex 121.602 142.866 134.354
  endloop
 endfacet
 facet normal -0.766582 -0.513084 -0.386131
  outer loop
   vertex 122.624 141.716 134.319
   vertex 122.21 142.074 134.665
   vertex 122.321 142.54 133.826
  endloop
 endfacet
 facet normal -0.608244 -0.560341 -0.56219
  outer loop
   vertex 122.624 141.716 134.319
   vertex 122.321 142.54 133.826
   vertex 123.214 141.701 133.695
  endloop
 endfacet
 facet normal -0.296761 -0.169905 -0.939715
  outer loop
   vertex 123.214 141.701 133.695
   vertex 122.321 142.54 133.826
   vertex 123.308 142.841 133.46
  endloop
 endfacet
 facet normal -0.473328 -0.0267878 -0.880479
  outer loop
   vertex 123.72 141.782 133.271
   vertex 123.308 142.841 133.46
   vertex 123.712 142.628 133.249
  endloop
 endfacet
 facet normal -0.62947 -0.107276 -0.769584
  outer loop
   vertex 123.214 141.701 133.695
   vertex 123.308 142.841 133.46
   vertex 123.72 141.782 133.271
  endloop
 endfacet
 facet normal 0.452569 0.334904 -0.826451
  outer loop
   vertex 125.431 142.677 133.425
   vertex 126.569 141.667 133.639
   vertex 126.023 141.477 133.263
  endloop
 endfacet
 facet normal 0.411383 0.279804 -0.867453
  outer loop
   vertex 125.431 142.677 133.425
   vertex 126.624 142.879 134.057
   vertex 126.569 141.667 133.639
  endloop
 endfacet
 facet normal 0.559426 0.246791 -0.791288
  outer loop
   vertex 126.624 142.879 134.057
   vertex 127.601 141.655 134.365
   vertex 126.569 141.667 133.639
  endloop
 endfacet
 facet normal -0.640008 -0.215953 -0.737397
  outer loop
   vertex 122.131 143.638 133.67
   vertex 122.321 142.54 133.826
   vertex 121.602 142.866 134.354
  endloop
 endfacet
 facet normal -0.692391 -0.151646 -0.705406
  outer loop
   vertex 121.301 143.704 134.469
   vertex 122.131 143.638 133.67
   vertex 121.602 142.866 134.354
  endloop
 endfacet
 facet normal -0.421215 -0.350249 -0.836603
  outer loop
   vertex 123.07 143.362 133.312
   vertex 122.131 143.638 133.67
   vertex 122.596 144.02 133.275
  endloop
 endfacet
 facet normal -0.428016 -0.421833 -0.799286
  outer loop
   vertex 123.07 143.362 133.312
   vertex 123.308 142.841 133.46
   vertex 122.131 143.638 133.67
  endloop
 endfacet
 facet normal -0.291989 -0.184119 -0.938532
  outer loop
   vertex 123.308 142.841 133.46
   vertex 122.321 142.54 133.826
   vertex 122.131 143.638 133.67
  endloop
 endfacet
 facet normal 0.0852053 -0.235243 -0.968195
  outer loop
   vertex 123.736 143.684 133.292
   vertex 123.308 142.841 133.46
   vertex 123.07 143.362 133.312
  endloop
 endfacet
 facet normal 0.261267 -0.313576 -0.912913
  outer loop
   vertex 123.736 143.684 133.292
   vertex 124.328 143.704 133.455
   vertex 123.308 142.841 133.46
  endloop
 endfacet
 facet normal -0.249925 0.399443 -0.882033
  outer loop
   vertex 123.712 142.628 133.249
   vertex 123.308 142.841 133.46
   vertex 124.319 143.099 133.29
  endloop
 endfacet
 facet normal -0.22369 0.259168 -0.939572
  outer loop
   vertex 124.319 143.099 133.29
   vertex 123.308 142.841 133.46
   vertex 124.328 143.704 133.455
  endloop
 endfacet
 facet normal 0.326815 0.638175 -0.697083
  outer loop
   vertex 124.319 143.099 133.29
   vertex 125.431 142.677 133.425
   vertex 124.96 142.62 133.152
  endloop
 endfacet
 facet normal 0.210888 0.253788 -0.94399
  outer loop
   vertex 124.319 143.099 133.29
   vertex 124.328 143.704 133.455
   vertex 125.431 142.677 133.425
  endloop
 endfacet
 facet normal 0.230391 0.274424 -0.933601
  outer loop
   vertex 124.328 143.704 133.455
   vertex 125.38 143.854 133.759
   vertex 125.431 142.677 133.425
  endloop
 endfacet
 facet normal 0.568696 0.445872 -0.691219
  outer loop
   vertex 126.195 143.766 134.275
   vertex 126.591 143.556 134.465
   vertex 126.624 142.879 134.057
  endloop
 endfacet
 facet normal 0.51565 0.432109 -0.739856
  outer loop
   vertex 126.195 143.766 134.275
   vertex 126.624 142.879 134.057
   vertex 125.38 143.854 133.759
  endloop
 endfacet
 facet normal 0.415509 0.264377 -0.87032
  outer loop
   vertex 125.38 143.854 133.759
   vertex 126.624 142.879 134.057
   vertex 125.431 142.677 133.425
  endloop
 endfacet
 facet normal -0.711044 -0.335082 -0.618172
  outer loop
   vertex 121.276 144.704 133.921
   vertex 120.902 144.268 134.587
   vertex 120.579 145.013 134.555
  endloop
 endfacet
 facet normal -0.693058 -0.360116 -0.62449
  outer loop
   vertex 121.301 143.704 134.469
   vertex 120.902 144.268 134.587
   vertex 121.276 144.704 133.921
  endloop
 endfacet
 facet normal -0.659022 -0.374478 -0.652271
  outer loop
   vertex 121.301 143.704 134.469
   vertex 121.276 144.704 133.921
   vertex 122.131 143.638 133.67
  endloop
 endfacet
 facet normal -0.358085 -0.0677281 -0.931229
  outer loop
   vertex 122.131 143.638 133.67
   vertex 121.276 144.704 133.921
   vertex 122.206 144.779 133.558
  endloop
 endfacet
 facet normal -0.460366 0.0919291 -0.882957
  outer loop
   vertex 122.596 144.02 133.275
   vertex 122.206 144.779 133.558
   vertex 122.683 144.845 133.316
  endloop
 endfacet
 facet normal -0.629562 -0.0345197 -0.776183
  outer loop
   vertex 122.131 143.638 133.67
   vertex 122.206 144.779 133.558
   vertex 122.596 144.02 133.275
  endloop
 endfacet
 facet normal 0.524294 0.133653 -0.840983
  outer loop
   vertex 124.328 143.704 133.455
   vertex 123.81 144.516 133.261
   vertex 124.304 144.897 133.629
  endloop
 endfacet
 facet normal 0.266142 -0.0599303 -0.962069
  outer loop
   vertex 123.736 143.684 133.292
   vertex 123.81 144.516 133.261
   vertex 124.328 143.704 133.455
  endloop
 endfacet
 facet normal 0.495359 0.44366 -0.74685
  outer loop
   vertex 125.13 144.796 134.152
   vertex 125.625 144.717 134.434
   vertex 125.38 143.854 133.759
  endloop
 endfacet
 facet normal 0.51758 0.443291 -0.73185
  outer loop
   vertex 125.13 144.796 134.152
   vertex 125.38 143.854 133.759
   vertex 124.304 144.897 133.629
  endloop
 endfacet
 facet normal 0.255267 0.144953 -0.955943
  outer loop
   vertex 124.304 144.897 133.629
   vertex 125.38 143.854 133.759
   vertex 124.328 143.704 133.455
  endloop
 endfacet
 facet normal 0.515605 0.432358 -0.739742
  outer loop
   vertex 126.195 143.766 134.275
   vertex 125.38 143.854 133.759
   vertex 125.625 144.717 134.434
  endloop
 endfacet
 facet normal -0.595897 0.233561 -0.768346
  outer loop
   vertex 121.276 144.704 133.921
   vertex 120.579 145.013 134.555
   vertex 121.143 145.488 134.262
  endloop
 endfacet
 facet normal -0.493392 0.437298 -0.751887
  outer loop
   vertex 121.143 145.488 134.262
   vertex 121.517 146.014 134.323
   vertex 122.063 145.752 133.812
  endloop
 endfacet
 facet normal -0.485579 0.278552 -0.828627
  outer loop
   vertex 121.143 145.488 134.262
   vertex 122.063 145.752 133.812
   vertex 121.276 144.704 133.921
  endloop
 endfacet
 facet normal -0.370241 0.183306 -0.910671
  outer loop
   vertex 121.276 144.704 133.921
   vertex 122.063 145.752 133.812
   vertex 122.206 144.779 133.558
  endloop
 endfacet
 facet normal -0.197237 0.410379 -0.89033
  outer loop
   vertex 122.683 144.845 133.316
   vertex 123.139 145.601 133.563
   vertex 123.336 145.165 133.318
  endloop
 endfacet
 facet normal -0.444199 0.509108 -0.737223
  outer loop
   vertex 122.683 144.845 133.316
   vertex 122.206 144.779 133.558
   vertex 123.139 145.601 133.563
  endloop
 endfacet
 facet normal -0.189921 0.221843 -0.956408
  outer loop
   vertex 122.206 144.779 133.558
   vertex 122.063 145.752 133.812
   vertex 123.139 145.601 133.563
  endloop
 endfacet
 facet normal 0.372804 0.348303 -0.860059
  outer loop
   vertex 123.336 145.165 133.318
   vertex 124.304 144.897 133.629
   vertex 123.81 144.516 133.261
  endloop
 endfacet
 facet normal 0.390232 0.57884 -0.716005
  outer loop
   vertex 123.336 145.165 133.318
   vertex 123.139 145.601 133.563
   vertex 124.304 144.897 133.629
  endloop
 endfacet
 facet normal 0.193613 0.230611 -0.953589
  outer loop
   vertex 123.139 145.601 133.563
   vertex 124.115 146.021 133.863
   vertex 124.304 144.897 133.629
  endloop
 endfacet
 facet normal 0.538076 0.273213 -0.797389
  outer loop
   vertex 125.013 145.724 134.391
   vertex 125.13 144.796 134.152
   vertex 124.304 144.897 133.629
  endloop
 endfacet
 facet normal 0.551977 0.257364 -0.793149
  outer loop
   vertex 124.115 146.021 133.863
   vertex 125.013 145.724 134.391
   vertex 124.304 144.897 133.629
  endloop
 endfacet
 facet normal -0.464333 0.481292 -0.743473
  outer loop
   vertex 122.063 145.752 133.812
   vertex 121.517 146.014 134.323
   vertex 122.182 146.52 134.234
  endloop
 endfacet
 facet normal -0.358538 0.48651 -0.796718
  outer loop
   vertex 122.182 146.52 134.234
   vertex 122.579 147.017 134.359
   vertex 123.099 146.633 133.891
  endloop
 endfacet
 facet normal -0.358004 0.492313 -0.793386
  outer loop
   vertex 122.182 146.52 134.234
   vertex 123.099 146.633 133.891
   vertex 122.063 145.752 133.812
  endloop
 endfacet
 facet normal -0.176328 0.291797 -0.940087
  outer loop
   vertex 122.063 145.752 133.812
   vertex 123.099 146.633 133.891
   vertex 123.139 145.601 133.563
  endloop
 endfacet
 facet normal 0.503914 0.522184 -0.688037
  outer loop
   vertex 123.926 147.007 134.473
   vertex 124.461 146.718 134.645
   vertex 124.115 146.021 133.863
  endloop
 endfacet
 facet normal 0.305065 0.542571 -0.782657
  outer loop
   vertex 123.926 147.007 134.473
   vertex 124.115 146.021 133.863
   vertex 123.099 146.633 133.891
  endloop
 endfacet
 facet normal 0.157488 0.304379 -0.939442
  outer loop
   vertex 123.099 146.633 133.891
   vertex 124.115 146.021 133.863
   vertex 123.139 145.601 133.563
  endloop
 endfacet
 facet normal 0.557508 0.482003 -0.675913
  outer loop
   vertex 125.013 145.724 134.391
   vertex 124.115 146.021 133.863
   vertex 124.461 146.718 134.645
  endloop
 endfacet
 facet normal -0.247804 0.596071 -0.763736
  outer loop
   vertex 123.099 146.633 133.891
   vertex 122.579 147.017 134.359
   vertex 123.262 147.419 134.452
  endloop
 endfacet
 facet normal 0.335297 0.500188 -0.798365
  outer loop
   vertex 123.926 147.007 134.473
   vertex 123.099 146.633 133.891
   vertex 123.262 147.419 134.452
  endloop
 endfacet
 facet normal -0.564784 -0.773525 0.287539
  outer loop
   vertex 125.583 139.225 134.448
   vertex 125.326 139.597 134.944
   vertex 124.826 139.718 134.288
  endloop
 endfacet
 facet normal -0.000433454 -0.905066 0.42527
  outer loop
   vertex 125.583 139.225 134.448
   vertex 126.507 139.188 134.371
   vertex 126.291 139.516 135.068
  endloop
 endfacet
 facet normal -0.139322 -0.825665 0.546688
  outer loop
   vertex 125.326 139.597 134.944
   vertex 125.583 139.225 134.448
   vertex 126.291 139.516 135.068
  endloop
 endfacet
 facet normal 0.101358 -0.878371 0.467109
  outer loop
   vertex 126.507 139.188 134.371
   vertex 127.405 139.253 134.298
   vertex 127.497 139.629 134.985
  endloop
 endfacet
 facet normal 0.114127 -0.885026 0.451335
  outer loop
   vertex 126.291 139.516 135.068
   vertex 126.507 139.188 134.371
   vertex 127.497 139.629 134.985
  endloop
 endfacet
 facet normal 0.501139 -0.785462 0.363192
  outer loop
   vertex 127.405 139.253 134.298
   vertex 127.986 139.665 134.387
   vertex 127.497 139.629 134.985
  endloop
 endfacet
 facet normal -0.554736 -0.802394 0.22007
  outer loop
   vertex 124.405 140.036 134.666
   vertex 124.494 140.243 135.643
   vertex 123.71 140.728 135.435
  endloop
 endfacet
 facet normal -0.687505 -0.725528 0.0307557
  outer loop
   vertex 123.449 140.935 134.496
   vertex 124.405 140.036 134.666
   vertex 123.71 140.728 135.435
  endloop
 endfacet
 facet normal -0.470705 -0.859352 0.199877
  outer loop
   vertex 125.326 139.597 134.944
   vertex 124.405 140.036 134.666
   vertex 124.826 139.718 134.288
  endloop
 endfacet
 facet normal -0.490518 -0.69467 0.526142
  outer loop
   vertex 125.326 139.597 134.944
   vertex 125.506 139.929 135.551
   vertex 124.405 140.036 134.666
  endloop
 endfacet
 facet normal -0.270333 -0.936644 0.22275
  outer loop
   vertex 125.506 139.929 135.551
   vertex 124.494 140.243 135.643
   vertex 124.405 140.036 134.666
  endloop
 endfacet
 facet normal -0.136336 -0.851102 0.506989
  outer loop
   vertex 126.291 139.516 135.068
   vertex 125.506 139.929 135.551
   vertex 125.326 139.597 134.944
  endloop
 endfacet
 facet normal -0.11762 -0.840708 0.52856
  outer loop
   vertex 126.722 139.771 135.569
   vertex 125.506 139.929 135.551
   vertex 126.291 139.516 135.068
  endloop
 endfacet
 facet normal 0.112085 -0.921453 0.371969
  outer loop
   vertex 127.497 139.629 134.985
   vertex 126.722 139.771 135.569
   vertex 126.291 139.516 135.068
  endloop
 endfacet
 facet normal 0.0557243 -0.950935 0.304331
  outer loop
   vertex 127.591 139.804 135.514
   vertex 126.722 139.771 135.569
   vertex 127.497 139.629 134.985
  endloop
 endfacet
 facet normal 0.762773 -0.210207 0.611547
  outer loop
   vertex 127.497 139.629 134.985
   vertex 127.986 139.665 134.387
   vertex 128.134 140.376 134.448
  endloop
 endfacet
 facet normal 0.562253 -0.742358 -0.364385
  outer loop
   vertex 127.497 139.629 134.985
   vertex 128.134 140.376 134.448
   vertex 128.391 140.11 135.386
  endloop
 endfacet
 facet normal 0.379529 -0.896444 0.228794
  outer loop
   vertex 127.497 139.629 134.985
   vertex 128.391 140.11 135.386
   vertex 127.591 139.804 135.514
  endloop
 endfacet
 facet normal 0.835429 -0.424161 -0.349494
  outer loop
   vertex 128.542 140.897 134.789
   vertex 128.391 140.11 135.386
   vertex 128.134 140.376 134.448
  endloop
 endfacet
 facet normal 0.654617 -0.53195 -0.537128
  outer loop
   vertex 128.391 140.11 135.386
   vertex 128.542 140.897 134.789
   vertex 129.036 140.797 135.492
  endloop
 endfacet
 facet normal -0.689861 -0.663899 0.288668
  outer loop
   vertex 123.449 140.935 134.496
   vertex 123.012 141.604 134.988
   vertex 122.624 141.716 134.319
  endloop
 endfacet
 facet normal -0.682159 -0.666967 0.29969
  outer loop
   vertex 123.449 140.935 134.496
   vertex 123.347 141.44 135.387
   vertex 123.012 141.604 134.988
  endloop
 endfacet
 facet normal -0.885074 -0.441195 0.148295
  outer loop
   vertex 123.449 140.935 134.496
   vertex 123.71 140.728 135.435
   vertex 123.347 141.44 135.387
  endloop
 endfacet
 facet normal 0.55527 0.10601 -0.824886
  outer loop
   vertex 127.842 141.09 134.343
   vertex 128.542 140.897 134.789
   vertex 128.134 140.376 134.448
  endloop
 endfacet
 facet normal 0.569575 0.273022 -0.77527
  outer loop
   vertex 127.842 141.09 134.343
   vertex 127.601 141.655 134.365
   vertex 128.542 140.897 134.789
  endloop
 endfacet
 facet normal 0.486716 0.119826 -0.865303
  outer loop
   vertex 127.601 141.655 134.365
   vertex 128.487 141.815 134.885
   vertex 128.542 140.897 134.789
  endloop
 endfacet
 facet normal 0.802968 -0.123892 -0.583004
  outer loop
   vertex 129.043 141.499 135.352
   vertex 129.036 140.797 135.492
   vertex 128.542 140.897 134.789
  endloop
 endfacet
 facet normal 0.676073 0.116717 -0.727531
  outer loop
   vertex 128.487 141.815 134.885
   vertex 129.043 141.499 135.352
   vertex 128.542 140.897 134.789
  endloop
 endfacet
 facet normal -0.702139 -0.707104 0.0836955
  outer loop
   vertex 122.21 142.074 134.665
   vertex 122.265 142.127 135.577
   vertex 121.478 142.883 135.36
  endloop
 endfacet
 facet normal -0.774079 -0.627331 -0.0851985
  outer loop
   vertex 121.602 142.866 134.354
   vertex 122.21 142.074 134.665
   vertex 121.478 142.883 135.36
  endloop
 endfacet
 facet normal -0.551221 -0.813997 0.183206
  outer loop
   vertex 123.012 141.604 134.988
   vertex 122.21 142.074 134.665
   vertex 122.624 141.716 134.319
  endloop
 endfacet
 facet normal -0.56802 -0.771333 0.287053
  outer loop
   vertex 123.012 141.604 134.988
   vertex 123.007 141.8 135.507
   vertex 122.21 142.074 134.665
  endloop
 endfacet
 facet normal -0.395917 -0.915011 0.0774927
  outer loop
   vertex 123.007 141.8 135.507
   vertex 122.265 142.127 135.577
   vertex 122.21 142.074 134.665
  endloop
 endfacet
 facet normal -0.656774 -0.707173 0.26183
  outer loop
   vertex 123.347 141.44 135.387
   vertex 123.007 141.8 135.507
   vertex 123.012 141.604 134.988
  endloop
 endfacet
 facet normal 0.569268 0.257276 -0.78086
  outer loop
   vertex 127.601 141.655 134.365
   vertex 126.624 142.879 134.057
   vertex 127.694 142.537 134.723
  endloop
 endfacet
 facet normal 0.719969 0.548784 -0.42483
  outer loop
   vertex 128.317 142.508 135.493
   vertex 128.688 142.058 135.541
   vertex 128.487 141.815 134.885
  endloop
 endfacet
 facet normal 0.638601 0.589764 -0.494335
  outer loop
   vertex 128.317 142.508 135.493
   vertex 128.487 141.815 134.885
   vertex 127.694 142.537 134.723
  endloop
 endfacet
 facet normal 0.443361 0.296763 -0.845791
  outer loop
   vertex 127.694 142.537 134.723
   vertex 128.487 141.815 134.885
   vertex 127.601 141.655 134.365
  endloop
 endfacet
 facet normal 0.689853 0.583546 -0.428459
  outer loop
   vertex 129.043 141.499 135.352
   vertex 128.487 141.815 134.885
   vertex 128.688 142.058 135.541
  endloop
 endfacet
 facet normal -0.940147 -0.322251 -0.110804
  outer loop
   vertex 121.602 142.866 134.354
   vertex 121.478 142.883 135.36
   vertex 121.301 143.704 134.469
  endloop
 endfacet
 facet normal -0.898563 -0.396686 -0.187682
  outer loop
   vertex 121.478 142.883 135.36
   vertex 120.997 143.902 135.509
   vertex 121.301 143.704 134.469
  endloop
 endfacet
 facet normal 0.563114 0.413025 -0.71576
  outer loop
   vertex 126.591 143.556 134.465
   vertex 126.195 143.766 134.275
   vertex 126.518 144.046 134.691
  endloop
 endfacet
 facet normal 0.691157 0.384195 -0.612124
  outer loop
   vertex 126.591 143.556 134.465
   vertex 126.518 144.046 134.691
   vertex 127.139 143.706 135.179
  endloop
 endfacet
 facet normal 0.682982 0.402336 -0.60964
  outer loop
   vertex 126.624 142.879 134.057
   vertex 126.591 143.556 134.465
   vertex 127.139 143.706 135.179
  endloop
 endfacet
 facet normal 0.729621 0.346232 -0.589725
  outer loop
   vertex 126.624 142.879 134.057
   vertex 127.139 143.706 135.179
   vertex 127.601 143.244 135.479
  endloop
 endfacet
 facet normal 0.541916 0.645845 -0.537784
  outer loop
   vertex 126.624 142.879 134.057
   vertex 127.601 143.244 135.479
   vertex 127.694 142.537 134.723
  endloop
 endfacet
 facet normal 0.63078 0.60374 -0.487457
  outer loop
   vertex 128.317 142.508 135.493
   vertex 127.694 142.537 134.723
   vertex 127.601 143.244 135.479
  endloop
 endfacet
 facet normal -0.792464 -0.590453 -0.152858
  outer loop
   vertex 120.902 144.268 134.587
   vertex 120.997 143.902 135.509
   vertex 120.411 144.742 135.303
  endloop
 endfacet
 facet normal -0.859516 -0.387003 -0.333858
  outer loop
   vertex 120.579 145.013 134.555
   vertex 120.902 144.268 134.587
   vertex 120.411 144.742 135.303
  endloop
 endfacet
 facet normal -0.821692 -0.553648 -0.135265
  outer loop
   vertex 120.997 143.902 135.509
   vertex 120.902 144.268 134.587
   vertex 121.301 143.704 134.469
  endloop
 endfacet
 facet normal 0.538927 0.442462 -0.716788
  outer loop
   vertex 125.625 144.717 134.434
   vertex 126.518 144.046 134.691
   vertex 126.195 143.766 134.275
  endloop
 endfacet
 facet normal 0.434603 0.246486 -0.866236
  outer loop
   vertex 125.625 144.717 134.434
   vertex 126.347 144.956 134.864
   vertex 126.518 144.046 134.691
  endloop
 endfacet
 facet normal 0.683593 0.284318 -0.672208
  outer loop
   vertex 127.073 144.56 135.473
   vertex 127.139 143.706 135.179
   vertex 126.518 144.046 134.691
  endloop
 endfacet
 facet normal 0.699449 0.25831 -0.666369
  outer loop
   vertex 126.347 144.956 134.864
   vertex 127.073 144.56 135.473
   vertex 126.518 144.046 134.691
  endloop
 endfacet
 facet normal -0.654302 0.369568 -0.65978
  outer loop
   vertex 121.027 145.928 134.624
   vertex 121.143 145.488 134.262
   vertex 120.579 145.013 134.555
  endloop
 endfacet
 facet normal -0.731835 0.399397 -0.552178
  outer loop
   vertex 121.027 145.928 134.624
   vertex 120.579 145.013 134.555
   vertex 120.354 145.754 135.39
  endloop
 endfacet
 facet normal -0.972171 -0.034686 -0.231691
  outer loop
   vertex 120.354 145.754 135.39
   vertex 120.579 145.013 134.555
   vertex 120.411 144.742 135.303
  endloop
 endfacet
 facet normal -0.522705 0.454626 -0.721176
  outer loop
   vertex 121.143 145.488 134.262
   vertex 121.027 145.928 134.624
   vertex 121.517 146.014 134.323
  endloop
 endfacet
 facet normal 0.546576 0.299129 -0.782161
  outer loop
   vertex 125.625 144.717 134.434
   vertex 125.013 145.724 134.391
   vertex 125.584 145.679 134.773
  endloop
 endfacet
 facet normal 0.508207 0.274337 -0.816373
  outer loop
   vertex 125.13 144.796 134.152
   vertex 125.013 145.724 134.391
   vertex 125.625 144.717 134.434
  endloop
 endfacet
 facet normal 0.67617 0.529519 -0.512254
  outer loop
   vertex 126.122 145.763 135.401
   vertex 126.603 145.342 135.601
   vertex 126.347 144.956 134.864
  endloop
 endfacet
 facet normal 0.594404 0.553889 -0.583002
  outer loop
   vertex 126.122 145.763 135.401
   vertex 126.347 144.956 134.864
   vertex 125.584 145.679 134.773
  endloop
 endfacet
 facet normal 0.404912 0.319284 -0.856799
  outer loop
   vertex 125.584 145.679 134.773
   vertex 126.347 144.956 134.864
   vertex 125.625 144.717 134.434
  endloop
 endfacet
 facet normal 0.699438 0.503853 -0.506872
  outer loop
   vertex 127.073 144.56 135.473
   vertex 126.347 144.956 134.864
   vertex 126.603 145.342 135.601
  endloop
 endfacet
 facet normal -0.757275 0.216439 -0.616188
  outer loop
   vertex 121.052 146.853 134.917
   vertex 121.027 145.928 134.624
   vertex 120.354 145.754 135.39
  endloop
 endfacet
 facet normal -0.737888 0.190668 -0.647431
  outer loop
   vertex 120.348 146.846 135.718
   vertex 121.052 146.853 134.917
   vertex 120.354 145.754 135.39
  endloop
 endfacet
 facet normal -0.446744 0.453277 -0.771337
  outer loop
   vertex 121.517 146.014 134.323
   vertex 121.955 146.856 134.564
   vertex 122.182 146.52 134.234
  endloop
 endfacet
 facet normal -0.519732 0.473951 -0.710809
  outer loop
   vertex 121.517 146.014 134.323
   vertex 121.027 145.928 134.624
   vertex 121.955 146.856 134.564
  endloop
 endfacet
 facet normal -0.349521 0.292081 -0.890238
  outer loop
   vertex 121.027 145.928 134.624
   vertex 121.052 146.853 134.917
   vertex 121.955 146.856 134.564
  endloop
 endfacet
 facet normal -0.382978 0.500901 -0.776161
  outer loop
   vertex 122.182 146.52 134.234
   vertex 121.955 146.856 134.564
   vertex 122.579 147.017 134.359
  endloop
 endfacet
 facet normal 0.664061 0.508618 -0.548024
  outer loop
   vertex 125.013 145.724 134.391
   vertex 124.461 146.718 134.645
   vertex 125.258 146.661 135.558
  endloop
 endfacet
 facet normal 0.460129 0.642463 -0.612799
  outer loop
   vertex 125.013 145.724 134.391
   vertex 125.258 146.661 135.558
   vertex 125.584 145.679 134.773
  endloop
 endfacet
 facet normal 0.549611 0.625222 -0.554098
  outer loop
   vertex 126.122 145.763 135.401
   vertex 125.584 145.679 134.773
   vertex 125.258 146.661 135.558
  endloop
 endfacet
 facet normal -0.684216 0.417092 -0.598232
  outer loop
   vertex 121.052 146.853 134.917
   vertex 120.348 146.846 135.718
   vertex 121.01 147.769 135.604
  endloop
 endfacet
 facet normal -0.517416 0.514329 -0.68392
  outer loop
   vertex 121.01 147.769 135.604
   vertex 121.462 148.102 135.513
   vertex 121.89 147.76 134.932
  endloop
 endfacet
 facet normal -0.524276 0.495337 -0.692659
  outer loop
   vertex 121.01 147.769 135.604
   vertex 121.89 147.76 134.932
   vertex 121.052 146.853 134.917
  endloop
 endfacet
 facet normal -0.344786 0.332788 -0.87771
  outer loop
   vertex 121.052 146.853 134.917
   vertex 121.89 147.76 134.932
   vertex 121.955 146.856 134.564
  endloop
 endfacet
 facet normal -0.206369 0.538124 -0.817211
  outer loop
   vertex 122.579 147.017 134.359
   vertex 122.901 147.798 134.792
   vertex 123.262 147.419 134.452
  endloop
 endfacet
 facet normal -0.38437 0.563693 -0.731102
  outer loop
   vertex 122.579 147.017 134.359
   vertex 121.955 146.856 134.564
   vertex 122.901 147.798 134.792
  endloop
 endfacet
 facet normal -0.140622 0.364857 -0.920383
  outer loop
   vertex 121.955 146.856 134.564
   vertex 121.89 147.76 134.932
   vertex 122.901 147.798 134.792
  endloop
 endfacet
 facet normal 0.223867 0.760591 -0.609413
  outer loop
   vertex 123.262 147.419 134.452
   vertex 122.901 147.798 134.792
   vertex 123.755 147.786 135.091
  endloop
 endfacet
 facet normal 0.406305 0.621076 -0.670209
  outer loop
   vertex 123.926 147.007 134.473
   vertex 123.262 147.419 134.452
   vertex 123.755 147.786 135.091
  endloop
 endfacet
 facet normal 0.540209 0.592708 -0.597388
  outer loop
   vertex 123.926 147.007 134.473
   vertex 123.755 147.786 135.091
   vertex 124.302 147.645 135.445
  endloop
 endfacet
 facet normal 0.521396 0.607145 -0.599601
  outer loop
   vertex 123.926 147.007 134.473
   vertex 124.302 147.645 135.445
   vertex 124.461 146.718 134.645
  endloop
 endfacet
 facet normal 0.640122 0.562057 -0.52377
  outer loop
   vertex 125.258 146.661 135.558
   vertex 124.461 146.718 134.645
   vertex 124.302 147.645 135.445
  endloop
 endfacet
 facet normal -0.281864 0.721791 -0.632116
  outer loop
   vertex 121.89 147.76 134.932
   vertex 121.462 148.102 135.513
   vertex 122.243 148.478 135.594
  endloop
 endfacet
 facet normal -0.12279 0.70497 -0.698527
  outer loop
   vertex 122.901 147.798 134.792
   vertex 121.89 147.76 134.932
   vertex 122.243 148.478 135.594
  endloop
 endfacet
 facet normal 0.0307923 0.774759 -0.631507
  outer loop
   vertex 123.372 148.401 135.555
   vertex 122.901 147.798 134.792
   vertex 122.243 148.478 135.594
  endloop
 endfacet
 facet normal 0.251133 0.677948 -0.690882
  outer loop
   vertex 123.755 147.786 135.091
   vertex 122.901 147.798 134.792
   vertex 123.372 148.401 135.555
  endloop
 endfacet
 facet normal -0.551552 -0.690919 0.467356
  outer loop
   vertex 124.494 140.243 135.643
   vertex 124.264 140.833 136.243
   vertex 123.71 140.728 135.435
  endloop
 endfacet
 facet normal -0.173782 -0.747958 0.640593
  outer loop
   vertex 124.494 140.243 135.643
   vertex 125.506 139.929 135.551
   vertex 125.315 141.226 137.013
  endloop
 endfacet
 facet normal -0.198445 -0.736234 0.646977
  outer loop
   vertex 124.264 140.833 136.243
   vertex 124.494 140.243 135.643
   vertex 125.315 141.226 137.013
  endloop
 endfacet
 facet normal -0.384704 -0.714944 0.58383
  outer loop
   vertex 125.315 141.226 137.013
   vertex 125.506 139.929 135.551
   vertex 126.502 140.143 136.469
  endloop
 endfacet
 facet normal -0.126234 -0.927139 0.352815
  outer loop
   vertex 126.502 140.143 136.469
   vertex 125.506 139.929 135.551
   vertex 126.722 139.771 135.569
  endloop
 endfacet
 facet normal 0.0566016 -0.945213 0.321509
  outer loop
   vertex 127.591 139.804 135.514
   vertex 127.643 140.051 136.233
   vertex 126.722 139.771 135.569
  endloop
 endfacet
 facet normal 0.0052239 -0.923504 0.383553
  outer loop
   vertex 126.722 139.771 135.569
   vertex 127.643 140.051 136.233
   vertex 126.502 140.143 136.469
  endloop
 endfacet
 facet normal 0.494513 -0.636624 0.591749
  outer loop
   vertex 128.569 140.606 136.055
   vertex 128.259 140.873 136.601
   vertex 127.643 140.051 136.233
  endloop
 endfacet
 facet normal 0.524807 -0.744616 0.412461
  outer loop
   vertex 128.569 140.606 136.055
   vertex 127.643 140.051 136.233
   vertex 128.391 140.11 135.386
  endloop
 endfacet
 facet normal 0.3816 -0.882074 0.276274
  outer loop
   vertex 128.391 140.11 135.386
   vertex 127.643 140.051 136.233
   vertex 127.591 139.804 135.514
  endloop
 endfacet
 facet normal 0.664446 -0.673892 0.323081
  outer loop
   vertex 128.391 140.11 135.386
   vertex 129.036 140.797 135.492
   vertex 128.569 140.606 136.055
  endloop
 endfacet
 facet normal -0.553349 -0.602796 0.574841
  outer loop
   vertex 124.264 140.833 136.243
   vertex 124.342 141.136 136.637
   vertex 123.613 141.596 136.417
  endloop
 endfacet
 facet normal -0.602761 -0.626571 0.494053
  outer loop
   vertex 124.264 140.833 136.243
   vertex 123.613 141.596 136.417
   vertex 123.71 140.728 135.435
  endloop
 endfacet
 facet normal -0.861395 -0.419906 0.285792
  outer loop
   vertex 123.71 140.728 135.435
   vertex 123.613 141.596 136.417
   vertex 123.347 141.44 135.387
  endloop
 endfacet
 facet normal -0.170155 -0.763927 0.622465
  outer loop
   vertex 125.315 141.226 137.013
   vertex 124.342 141.136 136.637
   vertex 124.264 140.833 136.243
  endloop
 endfacet
 facet normal 0.828722 -0.144452 0.540697
  outer loop
   vertex 128.744 141.417 136.003
   vertex 128.259 140.873 136.601
   vertex 128.569 140.606 136.055
  endloop
 endfacet
 facet normal 0.766597 0.021876 0.641755
  outer loop
   vertex 128.474 141.82 136.312
   vertex 128.259 140.873 136.601
   vertex 128.744 141.417 136.003
  endloop
 endfacet
 facet normal 0.902966 0.0761034 0.422918
  outer loop
   vertex 129.036 140.797 135.492
   vertex 129.043 141.499 135.352
   vertex 128.744 141.417 136.003
  endloop
 endfacet
 facet normal 0.784406 -0.130641 0.606333
  outer loop
   vertex 128.569 140.606 136.055
   vertex 129.036 140.797 135.492
   vertex 128.744 141.417 136.003
  endloop
 endfacet
 facet normal -0.691316 -0.607309 0.391482
  outer loop
   vertex 122.265 142.127 135.577
   vertex 122.188 142.883 136.614
   vertex 121.478 142.883 135.36
  endloop
 endfacet
 facet normal -0.552179 -0.692647 0.464045
  outer loop
   vertex 122.188 142.883 136.614
   vertex 122.265 142.127 135.577
   vertex 122.985 142.065 136.341
  endloop
 endfacet
 facet normal -0.36626 -0.889612 0.272843
  outer loop
   vertex 122.985 142.065 136.341
   vertex 122.265 142.127 135.577
   vertex 123.007 141.8 135.507
  endloop
 endfacet
 facet normal -0.65166 -0.706811 0.275239
  outer loop
   vertex 123.613 141.596 136.417
   vertex 123.007 141.8 135.507
   vertex 123.347 141.44 135.387
  endloop
 endfacet
 facet normal -0.600466 -0.766529 0.227758
  outer loop
   vertex 122.985 142.065 136.341
   vertex 123.007 141.8 135.507
   vertex 123.613 141.596 136.417
  endloop
 endfacet
 facet normal 0.880253 0.326292 0.344512
  outer loop
   vertex 128.688 142.058 135.541
   vertex 128.474 141.82 136.312
   vertex 128.744 141.417 136.003
  endloop
 endfacet
 facet normal 0.692949 0.612378 0.380545
  outer loop
   vertex 128.688 142.058 135.541
   vertex 128.317 142.508 135.493
   vertex 128.474 141.82 136.312
  endloop
 endfacet
 facet normal 0.941895 0.323485 0.090508
  outer loop
   vertex 128.317 142.508 135.493
   vertex 128.188 142.625 136.415
   vertex 128.474 141.82 136.312
  endloop
 endfacet
 facet normal 0.822539 0.378795 0.424199
  outer loop
   vertex 129.043 141.499 135.352
   vertex 128.688 142.058 135.541
   vertex 128.744 141.417 136.003
  endloop
 endfacet
 facet normal -0.637641 -0.68046 0.361092
  outer loop
   vertex 122.188 142.883 136.614
   vertex 121.311 143.569 136.357
   vertex 121.478 142.883 135.36
  endloop
 endfacet
 facet normal -0.884388 -0.440353 0.154751
  outer loop
   vertex 121.478 142.883 135.36
   vertex 121.311 143.569 136.357
   vertex 120.997 143.902 135.509
  endloop
 endfacet
 facet normal 0.896599 0.440538 -0.0451305
  outer loop
   vertex 127.601 143.244 135.479
   vertex 127.384 143.774 136.353
   vertex 127.653 143.245 136.535
  endloop
 endfacet
 facet normal 0.753835 0.627786 -0.193952
  outer loop
   vertex 127.139 143.706 135.179
   vertex 127.384 143.774 136.353
   vertex 127.601 143.244 135.479
  endloop
 endfacet
 facet normal 0.716971 0.69701 0.0113942
  outer loop
   vertex 128.188 142.625 136.415
   vertex 128.317 142.508 135.493
   vertex 127.601 143.244 135.479
  endloop
 endfacet
 facet normal 0.753379 0.656474 -0.0382318
  outer loop
   vertex 127.653 143.245 136.535
   vertex 128.188 142.625 136.415
   vertex 127.601 143.244 135.479
  endloop
 endfacet
 facet normal -0.800084 -0.59837 0.0426412
  outer loop
   vertex 120.997 143.902 135.509
   vertex 120.921 144.086 136.659
   vertex 120.34 144.832 136.239
  endloop
 endfacet
 facet normal -0.819351 -0.573253 -0.00670463
  outer loop
   vertex 120.411 144.742 135.303
   vertex 120.997 143.902 135.509
   vertex 120.34 144.832 136.239
  endloop
 endfacet
 facet normal -0.783815 -0.619209 0.0470495
  outer loop
   vertex 120.921 144.086 136.659
   vertex 120.997 143.902 135.509
   vertex 121.311 143.569 136.357
  endloop
 endfacet
 facet normal 0.96653 0.147004 -0.210262
  outer loop
   vertex 127.139 143.706 135.179
   vertex 127.073 144.56 135.473
   vertex 127.384 143.774 136.353
  endloop
 endfacet
 facet normal 0.958061 0.26928 -0.0980178
  outer loop
   vertex 127.384 143.774 136.353
   vertex 127.073 144.56 135.473
   vertex 127.123 144.742 136.458
  endloop
 endfacet
 facet normal -0.996275 -0.0498845 -0.0703338
  outer loop
   vertex 120.411 144.742 135.303
   vertex 120.34 144.832 136.239
   vertex 120.354 145.754 135.39
  endloop
 endfacet
 facet normal -0.976879 -0.136788 -0.164307
  outer loop
   vertex 120.34 144.832 136.239
   vertex 120.163 145.84 136.452
   vertex 120.354 145.754 135.39
  endloop
 endfacet
 facet normal 0.678503 0.727744 -0.100111
  outer loop
   vertex 126.122 145.763 135.401
   vertex 126.309 145.738 136.486
   vertex 126.603 145.342 135.601
  endloop
 endfacet
 facet normal 0.838086 0.527382 -0.139569
  outer loop
   vertex 127.123 144.742 136.458
   vertex 127.073 144.56 135.473
   vertex 126.603 145.342 135.601
  endloop
 endfacet
 facet normal 0.773563 0.633175 -0.0262731
  outer loop
   vertex 126.309 145.738 136.486
   vertex 127.123 144.742 136.458
   vertex 126.603 145.342 135.601
  endloop
 endfacet
 facet normal -0.982388 0.0489322 -0.180332
  outer loop
   vertex 120.354 145.754 135.39
   vertex 120.163 145.84 136.452
   vertex 120.348 146.846 135.718
  endloop
 endfacet
 facet normal -0.975959 0.0210188 -0.216939
  outer loop
   vertex 120.163 145.84 136.452
   vertex 120.147 146.747 136.613
   vertex 120.348 146.846 135.718
  endloop
 endfacet
 facet normal 0.823903 0.552461 -0.126376
  outer loop
   vertex 125.258 146.661 135.558
   vertex 125.215 146.972 136.634
   vertex 125.516 146.559 136.797
  endloop
 endfacet
 facet normal 0.707281 0.698986 -0.105703
  outer loop
   vertex 126.309 145.738 136.486
   vertex 126.122 145.763 135.401
   vertex 125.258 146.661 135.558
  endloop
 endfacet
 facet normal 0.69997 0.708765 -0.0877137
  outer loop
   vertex 125.516 146.559 136.797
   vertex 126.309 145.738 136.486
   vertex 125.258 146.661 135.558
  endloop
 endfacet
 facet normal -0.729506 0.460991 -0.50528
  outer loop
   vertex 121.01 147.769 135.604
   vertex 120.348 146.846 135.718
   vertex 120.368 147.842 136.598
  endloop
 endfacet
 facet normal -0.961878 0.191722 -0.195022
  outer loop
   vertex 120.368 147.842 136.598
   vertex 120.348 146.846 135.718
   vertex 120.147 146.747 136.613
  endloop
 endfacet
 facet normal 0.678732 0.613229 -0.404069
  outer loop
   vertex 124.302 147.645 135.445
   vertex 124.968 147.64 136.557
   vertex 125.258 146.661 135.558
  endloop
 endfacet
 facet normal 0.93874 0.339329 -0.0601989
  outer loop
   vertex 125.258 146.661 135.558
   vertex 124.968 147.64 136.557
   vertex 125.215 146.972 136.634
  endloop
 endfacet
 facet normal -0.640092 0.616185 -0.45891
  outer loop
   vertex 121.01 147.769 135.604
   vertex 120.368 147.842 136.598
   vertex 121.27 148.548 136.288
  endloop
 endfacet
 facet normal -0.574579 0.639635 -0.510613
  outer loop
   vertex 121.462 148.102 135.513
   vertex 121.01 147.769 135.604
   vertex 121.27 148.548 136.288
  endloop
 endfacet
 facet normal -0.322205 0.783584 -0.531206
  outer loop
   vertex 121.462 148.102 135.513
   vertex 121.27 148.548 136.288
   vertex 122.243 148.478 135.594
  endloop
 endfacet
 facet normal -0.128931 0.952117 -0.277218
  outer loop
   vertex 122.243 148.478 135.594
   vertex 121.27 148.548 136.288
   vertex 122.28 148.777 136.603
  endloop
 endfacet
 facet normal 0.0555899 0.959259 -0.277007
  outer loop
   vertex 123.372 148.401 135.555
   vertex 122.243 148.478 135.594
   vertex 123.213 148.682 136.493
  endloop
 endfacet
 facet normal 0.0642676 0.956169 -0.285676
  outer loop
   vertex 122.243 148.478 135.594
   vertex 122.28 148.777 136.603
   vertex 123.213 148.682 136.493
  endloop
 endfacet
 facet normal 0.50763 0.697762 -0.50541
  outer loop
   vertex 124.302 147.645 135.445
   vertex 123.755 147.786 135.091
   vertex 123.372 148.401 135.555
  endloop
 endfacet
 facet normal 0.518185 0.707189 -0.481007
  outer loop
   vertex 124.302 147.645 135.445
   vertex 123.372 148.401 135.555
   vertex 124.222 148.404 136.475
  endloop
 endfacet
 facet normal 0.253546 0.937813 -0.237111
  outer loop
   vertex 124.222 148.404 136.475
   vertex 123.372 148.401 135.555
   vertex 123.213 148.682 136.493
  endloop
 endfacet
 facet normal 0.676132 0.617127 -0.402493
  outer loop
   vertex 124.968 147.64 136.557
   vertex 124.302 147.645 135.445
   vertex 124.222 148.404 136.475
  endloop
 endfacet
 facet normal -0.399366 -0.721714 0.565363
  outer loop
   vertex 126.502 140.143 136.469
   vertex 126.476 140.7 137.162
   vertex 125.315 141.226 137.013
  endloop
 endfacet
 facet normal 0.047272 -0.832543 0.55194
  outer loop
   vertex 126.502 140.143 136.469
   vertex 127.643 140.051 136.233
   vertex 127.344 140.589 137.069
  endloop
 endfacet
 facet normal -0.0329596 -0.77971 0.625273
  outer loop
   vertex 126.476 140.7 137.162
   vertex 126.502 140.143 136.469
   vertex 127.344 140.589 137.069
  endloop
 endfacet
 facet normal 0.49812 -0.637531 0.587733
  outer loop
   vertex 127.643 140.051 136.233
   vertex 128.259 140.873 136.601
   vertex 127.344 140.589 137.069
  endloop
 endfacet
 facet normal -0.548046 -0.581914 0.600852
  outer loop
   vertex 124.342 141.136 136.637
   vertex 124.36 141.558 137.062
   vertex 123.613 141.596 136.417
  endloop
 endfacet
 facet normal -0.20464 -0.690118 0.694161
  outer loop
   vertex 124.36 141.558 137.062
   vertex 124.342 141.136 136.637
   vertex 125.315 141.226 137.013
  endloop
 endfacet
 facet normal -0.340283 -0.614514 0.711744
  outer loop
   vertex 125.315 141.226 137.013
   vertex 126.618 141.1 137.528
   vertex 125.891 141.758 137.748
  endloop
 endfacet
 facet normal -0.350261 -0.560897 0.750141
  outer loop
   vertex 125.315 141.226 137.013
   vertex 126.476 140.7 137.162
   vertex 126.618 141.1 137.528
  endloop
 endfacet
 facet normal -0.00689446 -0.672998 0.739612
  outer loop
   vertex 127.344 140.589 137.069
   vertex 126.618 141.1 137.528
   vertex 126.476 140.7 137.162
  endloop
 endfacet
 facet normal 0.076527 -0.603299 0.793835
  outer loop
   vertex 127.611 141.043 137.388
   vertex 126.618 141.1 137.528
   vertex 127.344 140.589 137.069
  endloop
 endfacet
 facet normal 0.490788 -0.675523 0.550269
  outer loop
   vertex 127.611 141.043 137.388
   vertex 127.344 140.589 137.069
   vertex 128.259 140.873 136.601
  endloop
 endfacet
 facet normal 0.685176 -0.348523 0.639582
  outer loop
   vertex 127.611 141.043 137.388
   vertex 128.259 140.873 136.601
   vertex 128.119 141.774 137.243
  endloop
 endfacet
 facet normal 0.930797 -0.104258 0.350353
  outer loop
   vertex 128.119 141.774 137.243
   vertex 128.259 140.873 136.601
   vertex 128.474 141.82 136.312
  endloop
 endfacet
 facet normal -0.488344 -0.664335 0.565843
  outer loop
   vertex 122.985 142.065 136.341
   vertex 123.425 142.651 137.408
   vertex 122.188 142.883 136.614
  endloop
 endfacet
 facet normal -0.536706 -0.626622 0.565059
  outer loop
   vertex 123.613 141.596 136.417
   vertex 123.425 142.651 137.408
   vertex 122.985 142.065 136.341
  endloop
 endfacet
 facet normal -0.452114 -0.652262 0.608397
  outer loop
   vertex 123.613 141.596 136.417
   vertex 124.43 142.009 137.467
   vertex 123.425 142.651 137.408
  endloop
 endfacet
 facet normal -0.583187 -0.491203 0.647003
  outer loop
   vertex 123.613 141.596 136.417
   vertex 124.36 141.558 137.062
   vertex 124.43 142.009 137.467
  endloop
 endfacet
 facet normal -0.184922 -0.640768 0.745131
  outer loop
   vertex 125.315 141.226 137.013
   vertex 124.43 142.009 137.467
   vertex 124.36 141.558 137.062
  endloop
 endfacet
 facet normal -0.179211 -0.636987 0.749754
  outer loop
   vertex 125.357 142.007 137.687
   vertex 124.43 142.009 137.467
   vertex 125.315 141.226 137.013
  endloop
 endfacet
 facet normal -0.360738 -0.597952 0.715767
  outer loop
   vertex 125.891 141.758 137.748
   vertex 125.357 142.007 137.687
   vertex 125.315 141.226 137.013
  endloop
 endfacet
 facet normal 0.727981 0.36304 0.581588
  outer loop
   vertex 127.742 142.64 137.152
   vertex 127.416 142.969 137.355
   vertex 127.493 142.323 137.661
  endloop
 endfacet
 facet normal 0.719628 0.374559 0.584672
  outer loop
   vertex 127.742 142.64 137.152
   vertex 127.493 142.323 137.661
   vertex 128.119 141.774 137.243
  endloop
 endfacet
 facet normal 0.78994 0.393244 0.470482
  outer loop
   vertex 127.742 142.64 137.152
   vertex 128.119 141.774 137.243
   vertex 128.188 142.625 136.415
  endloop
 endfacet
 facet normal 0.894142 0.272694 0.355174
  outer loop
   vertex 128.188 142.625 136.415
   vertex 128.119 141.774 137.243
   vertex 128.474 141.82 136.312
  endloop
 endfacet
 facet normal -0.564696 -0.755486 0.332204
  outer loop
   vertex 122.188 142.883 136.614
   vertex 122.259 143.249 137.566
   vertex 121.512 143.769 137.479
  endloop
 endfacet
 facet normal -0.64059 -0.727861 0.244668
  outer loop
   vertex 121.311 143.569 136.357
   vertex 122.188 142.883 136.614
   vertex 121.512 143.769 137.479
  endloop
 endfacet
 facet normal -0.478859 -0.68917 0.543819
  outer loop
   vertex 123.425 142.651 137.408
   vertex 122.98 143.112 137.601
   vertex 122.188 142.883 136.614
  endloop
 endfacet
 facet normal -0.190201 -0.911751 0.364052
  outer loop
   vertex 122.98 143.112 137.601
   vertex 122.259 143.249 137.566
   vertex 122.188 142.883 136.614
  endloop
 endfacet
 facet normal 0.762762 0.512704 0.394119
  outer loop
   vertex 127.653 143.245 136.535
   vertex 127.416 142.969 137.355
   vertex 127.742 142.64 137.152
  endloop
 endfacet
 facet normal 0.756727 0.520821 0.395107
  outer loop
   vertex 127.653 143.245 136.535
   vertex 127.384 143.774 136.353
   vertex 127.416 142.969 137.355
  endloop
 endfacet
 facet normal 0.949543 0.258225 0.17801
  outer loop
   vertex 127.384 143.774 136.353
   vertex 127.152 143.839 137.5
   vertex 127.416 142.969 137.355
  endloop
 endfacet
 facet normal 0.723974 0.541251 0.427678
  outer loop
   vertex 128.188 142.625 136.415
   vertex 127.653 143.245 136.535
   vertex 127.742 142.64 137.152
  endloop
 endfacet
 facet normal -0.767421 -0.614331 0.183473
  outer loop
   vertex 120.921 144.086 136.659
   vertex 121.002 144.264 137.595
   vertex 120.383 144.969 137.366
  endloop
 endfacet
 facet normal -0.811928 -0.575029 0.10057
  outer loop
   vertex 120.34 144.832 136.239
   vertex 120.921 144.086 136.659
   vertex 120.383 144.969 137.366
  endloop
 endfacet
 facet normal -0.69955 -0.671227 0.245119
  outer loop
   vertex 121.512 143.769 137.479
   vertex 120.921 144.086 136.659
   vertex 121.311 143.569 136.357
  endloop
 endfacet
 facet normal -0.659598 -0.725818 0.19524
  outer loop
   vertex 121.002 144.264 137.595
   vertex 120.921 144.086 136.659
   vertex 121.512 143.769 137.479
  endloop
 endfacet
 facet normal 0.954379 0.23815 0.180126
  outer loop
   vertex 127.384 143.774 136.353
   vertex 127.123 144.742 136.458
   vertex 127.152 143.839 137.5
  endloop
 endfacet
 facet normal 0.968808 0.199839 0.146546
  outer loop
   vertex 127.152 143.839 137.5
   vertex 127.123 144.742 136.458
   vertex 126.969 144.849 137.328
  endloop
 endfacet
 facet normal -0.980971 -0.184785 0.0595838
  outer loop
   vertex 120.34 144.832 136.239
   vertex 120.383 144.969 137.366
   vertex 120.163 145.84 136.452
  endloop
 endfacet
 facet normal -0.975224 -0.219826 0.0248128
  outer loop
   vertex 120.383 144.969 137.366
   vertex 120.156 145.97 137.344
   vertex 120.163 145.84 136.452
  endloop
 endfacet
 facet normal 0.789224 0.604977 0.105492
  outer loop
   vertex 126.309 145.738 136.486
   vertex 126.082 145.851 137.529
   vertex 126.466 145.345 137.565
  endloop
 endfacet
 facet normal 0.773676 0.630845 0.0588137
  outer loop
   vertex 126.969 144.849 137.328
   vertex 127.123 144.742 136.458
   vertex 126.309 145.738 136.486
  endloop
 endfacet
 facet normal 0.727124 0.672276 0.139053
  outer loop
   vertex 126.466 145.345 137.565
   vertex 126.969 144.849 137.328
   vertex 126.309 145.738 136.486
  endloop
 endfacet
 facet normal -0.999844 -0.0169102 -0.00502116
  outer loop
   vertex 120.163 145.84 136.452
   vertex 120.156 145.97 137.344
   vertex 120.147 146.747 136.613
  endloop
 endfacet
 facet normal -0.99968 0.00979012 0.0233427
  outer loop
   vertex 120.156 145.97 137.344
   vertex 120.169 146.864 137.49
   vertex 120.147 146.747 136.613
  endloop
 endfacet
 facet normal 0.797489 0.601909 0.0414344
  outer loop
   vertex 125.516 146.559 136.797
   vertex 125.052 147.087 138.068
   vertex 125.532 146.473 137.742
  endloop
 endfacet
 facet normal 0.798461 0.600555 0.0423515
  outer loop
   vertex 125.215 146.972 136.634
   vertex 125.052 147.087 138.068
   vertex 125.516 146.559 136.797
  endloop
 endfacet
 facet normal 0.732889 0.674933 0.085673
  outer loop
   vertex 126.082 145.851 137.529
   vertex 126.309 145.738 136.486
   vertex 125.516 146.559 136.797
  endloop
 endfacet
 facet normal 0.755841 0.65308 0.0468091
  outer loop
   vertex 125.532 146.473 137.742
   vertex 126.082 145.851 137.529
   vertex 125.516 146.559 136.797
  endloop
 endfacet
 facet normal -0.980185 0.198071 -0.0021065
  outer loop
   vertex 120.147 146.747 136.613
   vertex 120.169 146.864 137.49
   vertex 120.368 147.842 136.598
  endloop
 endfacet
 facet normal -0.987265 0.0719411 -0.141886
  outer loop
   vertex 120.169 146.864 137.49
   vertex 120.216 147.755 137.613
   vertex 120.368 147.842 136.598
  endloop
 endfacet
 facet normal 0.932469 0.352845 0.0774656
  outer loop
   vertex 125.215 146.972 136.634
   vertex 124.968 147.64 136.557
   vertex 125.052 147.087 138.068
  endloop
 endfacet
 facet normal 0.968051 0.247992 0.0371087
  outer loop
   vertex 125.052 147.087 138.068
   vertex 124.968 147.64 136.557
   vertex 124.855 147.947 137.451
  endloop
 endfacet
 facet normal -0.622485 0.551292 -0.555508
  outer loop
   vertex 120.982 148.803 136.864
   vertex 121.27 148.548 136.288
   vertex 120.368 147.842 136.598
  endloop
 endfacet
 facet normal -0.688703 0.565427 -0.45385
  outer loop
   vertex 120.982 148.803 136.864
   vertex 120.368 147.842 136.598
   vertex 120.426 148.586 137.436
  endloop
 endfacet
 facet normal -0.967681 0.218186 -0.126445
  outer loop
   vertex 120.426 148.586 137.436
   vertex 120.368 147.842 136.598
   vertex 120.216 147.755 137.613
  endloop
 endfacet
 facet normal -0.00235108 0.81306 -0.582175
  outer loop
   vertex 121.27 148.548 136.288
   vertex 121.855 148.995 136.909
   vertex 122.28 148.777 136.603
  endloop
 endfacet
 facet normal -0.166582 0.868193 -0.467431
  outer loop
   vertex 120.982 148.803 136.864
   vertex 121.855 148.995 136.909
   vertex 121.27 148.548 136.288
  endloop
 endfacet
 facet normal 0.230024 0.9147 -0.332283
  outer loop
   vertex 122.542 148.99 137.371
   vertex 122.28 148.777 136.603
   vertex 121.855 148.995 136.909
  endloop
 endfacet
 facet normal 0.502917 0.773446 -0.385819
  outer loop
   vertex 122.542 148.99 137.371
   vertex 123.053 148.745 137.546
   vertex 122.28 148.777 136.603
  endloop
 endfacet
 facet normal 0.0963406 0.994315 -0.0453381
  outer loop
   vertex 123.053 148.745 137.546
   vertex 123.213 148.682 136.493
   vertex 122.28 148.777 136.603
  endloop
 endfacet
 facet normal 0.262577 0.961004 -0.0867441
  outer loop
   vertex 124.222 148.404 136.475
   vertex 123.213 148.682 136.493
   vertex 124.157 148.513 137.482
  endloop
 endfacet
 facet normal 0.204173 0.978534 -0.0280216
  outer loop
   vertex 123.213 148.682 136.493
   vertex 123.053 148.745 137.546
   vertex 124.157 148.513 137.482
  endloop
 endfacet
 facet normal 0.715726 0.683297 -0.144364
  outer loop
   vertex 124.855 147.947 137.451
   vertex 124.968 147.64 136.557
   vertex 124.222 148.404 136.475
  endloop
 endfacet
 facet normal 0.627722 0.777235 -0.0432466
  outer loop
   vertex 124.157 148.513 137.482
   vertex 124.855 147.947 137.451
   vertex 124.222 148.404 136.475
  endloop
 endfacet
 facet normal -0.486244 0.861792 -0.144504
  outer loop
   vertex 120.982 148.803 136.864
   vertex 120.426 148.586 137.436
   vertex 121.252 149.098 137.709
  endloop
 endfacet
 facet normal -0.193802 0.944087 -0.266722
  outer loop
   vertex 121.855 148.995 136.909
   vertex 120.982 148.803 136.864
   vertex 121.252 149.098 137.709
  endloop
 endfacet
 facet normal -0.367083 0.84683 -0.384874
  outer loop
   vertex 122.028 149.336 137.494
   vertex 121.855 148.995 136.909
   vertex 121.252 149.098 137.709
  endloop
 endfacet
 facet normal 0.373302 0.749217 -0.547101
  outer loop
   vertex 122.542 148.99 137.371
   vertex 121.855 148.995 136.909
   vertex 122.028 149.336 137.494
  endloop
 endfacet
 facet normal -0.269863 -0.560474 0.78297
  outer loop
   vertex 126.618 141.1 137.528
   vertex 126.707 141.833 138.083
   vertex 125.891 141.758 137.748
  endloop
 endfacet
 facet normal 0.0714567 -0.633845 0.770152
  outer loop
   vertex 126.618 141.1 137.528
   vertex 127.611 141.043 137.388
   vertex 127.424 141.608 137.87
  endloop
 endfacet
 facet normal 0.0443521 -0.606692 0.793698
  outer loop
   vertex 126.707 141.833 138.083
   vertex 126.618 141.1 137.528
   vertex 127.424 141.608 137.87
  endloop
 endfacet
 facet normal 0.674291 -0.337524 0.656818
  outer loop
   vertex 127.611 141.043 137.388
   vertex 128.119 141.774 137.243
   vertex 127.424 141.608 137.87
  endloop
 endfacet
 facet normal -0.448973 -0.646574 0.616737
  outer loop
   vertex 124.43 142.009 137.467
   vertex 124.334 142.644 138.063
   vertex 123.425 142.651 137.408
  endloop
 endfacet
 facet normal -0.184425 -0.608193 0.772067
  outer loop
   vertex 124.43 142.009 137.467
   vertex 125.357 142.007 137.687
   vertex 125.25 142.719 138.222
  endloop
 endfacet
 facet normal -0.068963 -0.688473 0.721976
  outer loop
   vertex 124.334 142.644 138.063
   vertex 124.43 142.009 137.467
   vertex 125.25 142.719 138.222
  endloop
 endfacet
 facet normal -0.250883 -0.605537 0.755236
  outer loop
   vertex 125.357 142.007 137.687
   vertex 125.914 142.625 138.367
   vertex 125.25 142.719 138.222
  endloop
 endfacet
 facet normal -0.340116 -0.540697 0.769394
  outer loop
   vertex 125.891 141.758 137.748
   vertex 125.914 142.625 138.367
   vertex 125.357 142.007 137.687
  endloop
 endfacet
 facet normal -0.484304 -0.5 0.717948
  outer loop
   vertex 125.891 141.758 137.748
   vertex 126.422 142.183 138.403
   vertex 125.914 142.625 138.367
  endloop
 endfacet
 facet normal -0.194473 -0.743045 0.640363
  outer loop
   vertex 125.891 141.758 137.748
   vertex 126.707 141.833 138.083
   vertex 126.422 142.183 138.403
  endloop
 endfacet
 facet normal 0.842226 0.310157 0.440973
  outer loop
   vertex 127.493 142.323 137.661
   vertex 127.416 142.969 137.355
   vertex 127.005 142.772 138.278
  endloop
 endfacet
 facet normal 0.600859 -0.340742 0.723093
  outer loop
   vertex 127.493 142.323 137.661
   vertex 127.005 142.772 138.278
   vertex 126.707 141.833 138.083
  endloop
 endfacet
 facet normal 0.343266 0.233429 0.909769
  outer loop
   vertex 127.493 142.323 137.661
   vertex 126.707 141.833 138.083
   vertex 127.424 141.608 137.87
  endloop
 endfacet
 facet normal 0.50067 -0.32543 0.802137
  outer loop
   vertex 126.707 141.833 138.083
   vertex 127.005 142.772 138.278
   vertex 126.422 142.183 138.403
  endloop
 endfacet
 facet normal 0.640846 0.158303 0.75117
  outer loop
   vertex 128.119 141.774 137.243
   vertex 127.493 142.323 137.661
   vertex 127.424 141.608 137.87
  endloop
 endfacet
 facet normal -0.531635 -0.678945 0.506357
  outer loop
   vertex 122.259 143.249 137.566
   vertex 122.166 143.703 138.078
   vertex 121.512 143.769 137.479
  endloop
 endfacet
 facet normal -0.17181 -0.739971 0.650327
  outer loop
   vertex 122.259 143.249 137.566
   vertex 122.98 143.112 137.601
   vertex 122.894 143.679 138.223
  endloop
 endfacet
 facet normal -0.153468 -0.752304 0.640692
  outer loop
   vertex 122.166 143.703 138.078
   vertex 122.259 143.249 137.566
   vertex 122.894 143.679 138.223
  endloop
 endfacet
 facet normal -0.27691 -0.729094 0.625894
  outer loop
   vertex 122.98 143.112 137.601
   vertex 123.601 143.697 138.556
   vertex 122.894 143.679 138.223
  endloop
 endfacet
 facet normal -0.391163 -0.649845 0.651685
  outer loop
   vertex 123.425 142.651 137.408
   vertex 123.601 143.697 138.556
   vertex 122.98 143.112 137.601
  endloop
 endfacet
 facet normal -0.389114 -0.650652 0.652106
  outer loop
   vertex 123.425 142.651 137.408
   vertex 124.442 143.125 138.488
   vertex 123.601 143.697 138.556
  endloop
 endfacet
 facet normal -0.507039 -0.50441 0.698915
  outer loop
   vertex 123.425 142.651 137.408
   vertex 124.334 142.644 138.063
   vertex 124.442 143.125 138.488
  endloop
 endfacet
 facet normal -0.0779549 -0.650168 0.75578
  outer loop
   vertex 125.25 142.719 138.222
   vertex 124.442 143.125 138.488
   vertex 124.334 142.644 138.063
  endloop
 endfacet
 facet normal 0.0101139 -0.533824 0.845535
  outer loop
   vertex 125.456 143.248 138.554
   vertex 124.442 143.125 138.488
   vertex 125.25 142.719 138.222
  endloop
 endfacet
 facet normal 0.330278 -0.297025 0.895931
  outer loop
   vertex 125.456 143.248 138.554
   vertex 126.344 143.502 138.311
   vertex 125.981 143.991 138.606
  endloop
 endfacet
 facet normal 0.366019 -0.592192 0.717871
  outer loop
   vertex 125.456 143.248 138.554
   vertex 125.25 142.719 138.222
   vertex 126.344 143.502 138.311
  endloop
 endfacet
 facet normal -0.498822 0.296942 0.814249
  outer loop
   vertex 126.475 143.124 138.529
   vertex 126.344 143.502 138.311
   vertex 125.914 142.625 138.367
  endloop
 endfacet
 facet normal -0.190364 0.155908 0.969255
  outer loop
   vertex 125.914 142.625 138.367
   vertex 126.344 143.502 138.311
   vertex 125.25 142.719 138.222
  endloop
 endfacet
 facet normal 0.626227 0.541686 0.560728
  outer loop
   vertex 126.344 143.502 138.311
   vertex 126.475 143.124 138.529
   vertex 127.005 142.772 138.278
  endloop
 endfacet
 facet normal 0.53227 0.449691 0.717264
  outer loop
   vertex 126.344 143.502 138.311
   vertex 127.005 142.772 138.278
   vertex 127.152 143.839 137.5
  endloop
 endfacet
 facet normal 0.880058 0.194553 0.433183
  outer loop
   vertex 127.152 143.839 137.5
   vertex 127.005 142.772 138.278
   vertex 127.416 142.969 137.355
  endloop
 endfacet
 facet normal -0.734438 -0.493705 0.465678
  outer loop
   vertex 121.002 144.264 137.595
   vertex 121.005 144.956 138.333
   vertex 120.383 144.969 137.366
  endloop
 endfacet
 facet normal -0.599425 -0.582747 0.548722
  outer loop
   vertex 121.002 144.264 137.595
   vertex 121.429 144.518 138.331
   vertex 121.005 144.956 138.333
  endloop
 endfacet
 facet normal -0.52344 -0.664757 0.533019
  outer loop
   vertex 121.512 143.769 137.479
   vertex 121.429 144.518 138.331
   vertex 121.002 144.264 137.595
  endloop
 endfacet
 facet normal -0.439091 -0.695732 0.568469
  outer loop
   vertex 121.512 143.769 137.479
   vertex 122.232 144.15 138.501
   vertex 121.429 144.518 138.331
  endloop
 endfacet
 facet normal -0.613572 -0.493797 0.616193
  outer loop
   vertex 121.512 143.769 137.479
   vertex 122.166 143.703 138.078
   vertex 122.232 144.15 138.501
  endloop
 endfacet
 facet normal -0.167885 -0.66533 0.727427
  outer loop
   vertex 122.894 143.679 138.223
   vertex 122.232 144.15 138.501
   vertex 122.166 143.703 138.078
  endloop
 endfacet
 facet normal -0.170583 -0.66755 0.724761
  outer loop
   vertex 123.132 144.148 138.712
   vertex 122.232 144.15 138.501
   vertex 122.894 143.679 138.223
  endloop
 endfacet
 facet normal -0.330721 -0.5946 0.732854
  outer loop
   vertex 123.601 143.697 138.556
   vertex 123.132 144.148 138.712
   vertex 122.894 143.679 138.223
  endloop
 endfacet
 facet normal 0.658316 0.0342024 0.751964
  outer loop
   vertex 126.544 144.556 138.088
   vertex 125.981 143.991 138.606
   vertex 126.344 143.502 138.311
  endloop
 endfacet
 facet normal 0.633408 0.0756606 0.77011
  outer loop
   vertex 126.063 145.034 138.436
   vertex 125.981 143.991 138.606
   vertex 126.544 144.556 138.088
  endloop
 endfacet
 facet normal 0.805376 0.237751 0.542995
  outer loop
   vertex 127.152 143.839 137.5
   vertex 126.969 144.849 137.328
   vertex 126.544 144.556 138.088
  endloop
 endfacet
 facet normal 0.70483 0.0163183 0.709188
  outer loop
   vertex 126.344 143.502 138.311
   vertex 127.152 143.839 137.5
   vertex 126.544 144.556 138.088
  endloop
 endfacet
 facet normal -0.748324 -0.462974 0.475043
  outer loop
   vertex 121.005 144.956 138.333
   vertex 120.372 145.873 138.23
   vertex 120.383 144.969 137.366
  endloop
 endfacet
 facet normal -0.954876 -0.211155 0.208867
  outer loop
   vertex 120.383 144.969 137.366
   vertex 120.372 145.873 138.23
   vertex 120.156 145.97 137.344
  endloop
 endfacet
 facet normal 0.765721 0.40633 0.498564
  outer loop
   vertex 126.466 145.345 137.565
   vertex 126.063 145.034 138.436
   vertex 126.544 144.556 138.088
  endloop
 endfacet
 facet normal 0.67127 0.543554 0.50393
  outer loop
   vertex 126.466 145.345 137.565
   vertex 126.082 145.851 137.529
   vertex 126.063 145.034 138.436
  endloop
 endfacet
 facet normal 0.950316 0.221073 0.219149
  outer loop
   vertex 126.082 145.851 137.529
   vertex 125.878 145.897 138.369
   vertex 126.063 145.034 138.436
  endloop
 endfacet
 facet normal 0.698967 0.441943 0.562255
  outer loop
   vertex 126.969 144.849 137.328
   vertex 126.466 145.345 137.565
   vertex 126.544 144.556 138.088
  endloop
 endfacet
 facet normal -0.972042 -0.0250327 0.23347
  outer loop
   vertex 120.156 145.97 137.344
   vertex 120.372 145.873 138.23
   vertex 120.169 146.864 137.49
  endloop
 endfacet
 facet normal -0.973922 -0.0320313 0.224612
  outer loop
   vertex 120.372 145.873 138.23
   vertex 120.385 146.893 138.431
   vertex 120.169 146.864 137.49
  endloop
 endfacet
 facet normal 0.821736 0.524293 0.22331
  outer loop
   vertex 125.532 146.473 137.742
   vertex 125.052 147.087 138.068
   vertex 125.31 146.483 138.537
  endloop
 endfacet
 facet normal 0.765347 0.625354 0.152239
  outer loop
   vertex 125.878 145.897 138.369
   vertex 126.082 145.851 137.529
   vertex 125.532 146.473 137.742
  endloop
 endfacet
 facet normal 0.731423 0.653036 0.196378
  outer loop
   vertex 125.31 146.483 138.537
   vertex 125.878 145.897 138.369
   vertex 125.532 146.473 137.742
  endloop
 endfacet
 facet normal -0.974563 0.0208608 0.223139
  outer loop
   vertex 120.169 146.864 137.49
   vertex 120.385 146.893 138.431
   vertex 120.216 147.755 137.613
  endloop
 endfacet
 facet normal -0.938369 0.122691 0.323126
  outer loop
   vertex 120.385 146.893 138.431
   vertex 120.493 147.949 138.346
   vertex 120.216 147.755 137.613
  endloop
 endfacet
 facet normal 0.941845 0.309436 0.13106
  outer loop
   vertex 125.052 147.087 138.068
   vertex 124.855 147.947 137.451
   vertex 124.736 147.952 138.294
  endloop
 endfacet
 facet normal -0.569763 0.653145 0.49877
  outer loop
   vertex 121.252 149.098 137.709
   vertex 120.426 148.586 137.436
   vertex 120.493 147.949 138.346
  endloop
 endfacet
 facet normal -0.917701 0.290569 0.270915
  outer loop
   vertex 120.493 147.949 138.346
   vertex 120.426 148.586 137.436
   vertex 120.216 147.755 137.613
  endloop
 endfacet
 facet normal -0.0849372 0.763355 0.64037
  outer loop
   vertex 121.252 149.098 137.709
   vertex 122.299 148.555 138.495
   vertex 122.194 149.008 137.941
  endloop
 endfacet
 facet normal 0.368449 0.908483 0.197241
  outer loop
   vertex 122.194 149.008 137.941
   vertex 123.053 148.745 137.546
   vertex 122.542 148.99 137.371
  endloop
 endfacet
 facet normal 0.457061 0.728901 0.509704
  outer loop
   vertex 122.194 149.008 137.941
   vertex 122.299 148.555 138.495
   vertex 123.053 148.745 137.546
  endloop
 endfacet
 facet normal 0.212107 0.963188 0.165162
  outer loop
   vertex 124.157 148.513 137.482
   vertex 123.053 148.745 137.546
   vertex 123.898 148.406 138.438
  endloop
 endfacet
 facet normal 0.0986128 0.957659 0.27049
  outer loop
   vertex 123.053 148.745 137.546
   vertex 122.299 148.555 138.495
   vertex 123.898 148.406 138.438
  endloop
 endfacet
 facet normal 0.629563 0.772345 0.0844633
  outer loop
   vertex 124.736 147.952 138.294
   vertex 124.855 147.947 137.451
   vertex 124.157 148.513 137.482
  endloop
 endfacet
 facet normal 0.493657 0.8393 0.227767
  outer loop
   vertex 123.898 148.406 138.438
   vertex 124.736 147.952 138.294
   vertex 124.157 148.513 137.482
  endloop
 endfacet
 facet normal -0.0742687 0.790733 0.607639
  outer loop
   vertex 122.194 149.008 137.941
   vertex 122.028 149.336 137.494
   vertex 121.252 149.098 137.709
  endloop
 endfacet
 facet normal 0.579372 0.74481 0.331037
  outer loop
   vertex 122.542 148.99 137.371
   vertex 122.028 149.336 137.494
   vertex 122.194 149.008 137.941
  endloop
 endfacet
 facet normal -0.465619 -0.476285 0.74589
  outer loop
   vertex 126.422 142.183 138.403
   vertex 126.481 142.695 138.766
   vertex 125.914 142.625 138.367
  endloop
 endfacet
 facet normal 0.6301 -0.496712 0.596868
  outer loop
   vertex 126.422 142.183 138.403
   vertex 127.005 142.772 138.278
   vertex 126.481 142.695 138.766
  endloop
 endfacet
 facet normal -0.352224 -0.603845 0.715059
  outer loop
   vertex 124.442 143.125 138.488
   vertex 124.469 143.835 139.101
   vertex 123.601 143.697 138.556
  endloop
 endfacet
 facet normal 0.0319833 -0.66258 0.748308
  outer loop
   vertex 124.442 143.125 138.488
   vertex 125.456 143.248 138.554
   vertex 125.222 143.739 138.998
  endloop
 endfacet
 facet normal 0.0197773 -0.6538 0.756409
  outer loop
   vertex 124.469 143.835 139.101
   vertex 124.442 143.125 138.488
   vertex 125.222 143.739 138.998
  endloop
 endfacet
 facet normal -0.560713 0.394576 0.72795
  outer loop
   vertex 126.475 143.124 138.529
   vertex 125.914 142.625 138.367
   vertex 126.481 142.695 138.766
  endloop
 endfacet
 facet normal 0.522378 -0.421771 0.741101
  outer loop
   vertex 125.981 143.991 138.606
   vertex 125.222 143.739 138.998
   vertex 125.456 143.248 138.554
  endloop
 endfacet
 facet normal 0.594965 0.395374 0.699783
  outer loop
   vertex 127.005 142.772 138.278
   vertex 126.475 143.124 138.529
   vertex 126.481 142.695 138.766
  endloop
 endfacet
 facet normal -0.420748 -0.607196 0.674005
  outer loop
   vertex 122.232 144.15 138.501
   vertex 121.932 144.933 139.019
   vertex 121.429 144.518 138.331
  endloop
 endfacet
 facet normal -0.187851 -0.571059 0.799127
  outer loop
   vertex 122.232 144.15 138.501
   vertex 123.132 144.148 138.712
   vertex 123.036 144.887 139.217
  endloop
 endfacet
 facet normal -0.166047 -0.587741 0.791827
  outer loop
   vertex 121.932 144.933 139.019
   vertex 122.232 144.15 138.501
   vertex 123.036 144.887 139.217
  endloop
 endfacet
 facet normal -0.341216 -0.560633 0.754495
  outer loop
   vertex 123.132 144.148 138.712
   vertex 123.707 144.72 139.396
   vertex 123.036 144.887 139.217
  endloop
 endfacet
 facet normal -0.313608 -0.582677 0.749759
  outer loop
   vertex 123.601 143.697 138.556
   vertex 123.707 144.72 139.396
   vertex 123.132 144.148 138.712
  endloop
 endfacet
 facet normal -0.428122 -0.546319 0.719893
  outer loop
   vertex 123.601 143.697 138.556
   vertex 124.325 144.281 139.43
   vertex 123.707 144.72 139.396
  endloop
 endfacet
 facet normal -0.339427 -0.627543 0.700699
  outer loop
   vertex 123.601 143.697 138.556
   vertex 124.469 143.835 139.101
   vertex 124.325 144.281 139.43
  endloop
 endfacet
 facet normal 0.423701 -0.440752 0.791337
  outer loop
   vertex 124.325 144.281 139.43
   vertex 125.193 144.688 139.192
   vertex 124.712 144.899 139.567
  endloop
 endfacet
 facet normal 0.424849 -0.444934 0.788376
  outer loop
   vertex 124.325 144.281 139.43
   vertex 124.469 143.835 139.101
   vertex 125.193 144.688 139.192
  endloop
 endfacet
 facet normal 0.108208 -0.195633 0.974689
  outer loop
   vertex 124.469 143.835 139.101
   vertex 125.222 143.739 138.998
   vertex 125.193 144.688 139.192
  endloop
 endfacet
 facet normal 0.63697 0.0749085 0.767241
  outer loop
   vertex 125.981 143.991 138.606
   vertex 126.063 145.034 138.436
   vertex 125.193 144.688 139.192
  endloop
 endfacet
 facet normal 0.494105 -0.159718 0.854605
  outer loop
   vertex 125.222 143.739 138.998
   vertex 125.981 143.991 138.606
   vertex 125.193 144.688 139.192
  endloop
 endfacet
 facet normal -0.644077 -0.369192 0.669972
  outer loop
   vertex 121.005 144.956 138.333
   vertex 121.19 145.95 139.059
   vertex 120.372 145.873 138.23
  endloop
 endfacet
 facet normal -0.520792 -0.506976 0.686842
  outer loop
   vertex 121.005 144.956 138.333
   vertex 121.429 144.518 138.331
   vertex 121.932 144.933 139.019
  endloop
 endfacet
 facet normal -0.544995 -0.425802 0.722269
  outer loop
   vertex 121.005 144.956 138.333
   vertex 121.932 144.933 139.019
   vertex 121.19 145.95 139.059
  endloop
 endfacet
 facet normal -0.325688 -0.272815 0.905262
  outer loop
   vertex 121.19 145.95 139.059
   vertex 121.932 144.933 139.019
   vertex 122.324 145.695 139.39
  endloop
 endfacet
 facet normal -0.319901 -0.459257 0.828702
  outer loop
   vertex 122.324 145.695 139.39
   vertex 123.036 144.887 139.217
   vertex 123.176 145.38 139.544
  endloop
 endfacet
 facet normal -0.178949 -0.354304 0.917849
  outer loop
   vertex 122.324 145.695 139.39
   vertex 121.932 144.933 139.019
   vertex 123.036 144.887 139.217
  endloop
 endfacet
 facet normal 0.283446 -0.585563 0.759457
  outer loop
   vertex 123.176 145.38 139.544
   vertex 123.036 144.887 139.217
   vertex 124.127 145.712 139.446
  endloop
 endfacet
 facet normal -0.475706 0.158516 0.865203
  outer loop
   vertex 124.264 145.235 139.608
   vertex 124.127 145.712 139.446
   vertex 123.707 144.72 139.396
  endloop
 endfacet
 facet normal -0.245154 0.0557365 0.967881
  outer loop
   vertex 123.707 144.72 139.396
   vertex 124.127 145.712 139.446
   vertex 123.036 144.887 139.217
  endloop
 endfacet
 facet normal 0.373336 0.394393 0.839687
  outer loop
   vertex 124.712 144.899 139.567
   vertex 124.127 145.712 139.446
   vertex 124.264 145.235 139.608
  endloop
 endfacet
 facet normal 0.650237 0.546892 0.527354
  outer loop
   vertex 124.712 144.899 139.567
   vertex 125.193 144.688 139.192
   vertex 124.127 145.712 139.446
  endloop
 endfacet
 facet normal 0.321767 0.10207 0.941301
  outer loop
   vertex 125.193 144.688 139.192
   vertex 125.285 145.799 139.04
   vertex 124.127 145.712 139.446
  endloop
 endfacet
 facet normal 0.71798 0.205611 0.665003
  outer loop
   vertex 126.063 145.034 138.436
   vertex 125.878 145.897 138.369
   vertex 125.285 145.799 139.04
  endloop
 endfacet
 facet normal 0.643361 0.0514186 0.763835
  outer loop
   vertex 125.193 144.688 139.192
   vertex 126.063 145.034 138.436
   vertex 125.285 145.799 139.04
  endloop
 endfacet
 facet normal -0.661066 -0.0670114 0.747329
  outer loop
   vertex 121.19 145.95 139.059
   vertex 121.124 147.105 139.104
   vertex 120.385 146.893 138.431
  endloop
 endfacet
 facet normal -0.699626 -0.12971 0.702637
  outer loop
   vertex 120.372 145.873 138.23
   vertex 121.19 145.95 139.059
   vertex 120.385 146.893 138.431
  endloop
 endfacet
 facet normal -0.289482 -0.0452933 0.956111
  outer loop
   vertex 122.324 145.695 139.39
   vertex 122.295 146.827 139.435
   vertex 121.19 145.95 139.059
  endloop
 endfacet
 facet normal -0.283312 -0.0536775 0.957525
  outer loop
   vertex 122.295 146.827 139.435
   vertex 121.124 147.105 139.104
   vertex 121.19 145.95 139.059
  endloop
 endfacet
 facet normal 0.541917 0.0914144 0.835446
  outer loop
   vertex 123.79 146.901 139.534
   vertex 124.127 145.712 139.446
   vertex 124.416 146.828 139.136
  endloop
 endfacet
 facet normal 0.582913 0.638828 0.502106
  outer loop
   vertex 125.31 146.483 138.537
   vertex 125.052 147.087 138.068
   vertex 124.416 146.828 139.136
  endloop
 endfacet
 facet normal 0.610085 0.45462 0.648936
  outer loop
   vertex 125.31 146.483 138.537
   vertex 124.416 146.828 139.136
   vertex 125.285 145.799 139.04
  endloop
 endfacet
 facet normal 0.313165 0.177719 0.932922
  outer loop
   vertex 125.285 145.799 139.04
   vertex 124.416 146.828 139.136
   vertex 124.127 145.712 139.446
  endloop
 endfacet
 facet normal 0.639847 0.439782 0.630228
  outer loop
   vertex 125.878 145.897 138.369
   vertex 125.31 146.483 138.537
   vertex 125.285 145.799 139.04
  endloop
 endfacet
 facet normal -0.588275 0.250664 0.768831
  outer loop
   vertex 121.124 147.105 139.104
   vertex 121.236 148.063 138.877
   vertex 120.493 147.949 138.346
  endloop
 endfacet
 facet normal -0.687452 0.128166 0.714831
  outer loop
   vertex 120.385 146.893 138.431
   vertex 121.124 147.105 139.104
   vertex 120.493 147.949 138.346
  endloop
 endfacet
 facet normal -0.223085 0.196911 0.954704
  outer loop
   vertex 122.295 146.827 139.435
   vertex 122.025 147.756 139.18
   vertex 121.124 147.105 139.104
  endloop
 endfacet
 facet normal -0.260331 0.251046 0.932311
  outer loop
   vertex 122.025 147.756 139.18
   vertex 121.236 148.063 138.877
   vertex 121.124 147.105 139.104
  endloop
 endfacet
 facet normal -0.44397 0.641862 0.625223
  outer loop
   vertex 123.167 147.291 139.577
   vertex 123.255 147.714 139.206
   vertex 122.295 146.827 139.435
  endloop
 endfacet
 facet normal -0.0111818 0.26141 0.965163
  outer loop
   vertex 123.255 147.714 139.206
   vertex 122.025 147.756 139.18
   vertex 122.295 146.827 139.435
  endloop
 endfacet
 facet normal 0.39906 0.556787 0.728519
  outer loop
   vertex 123.79 146.901 139.534
   vertex 123.255 147.714 139.206
   vertex 123.167 147.291 139.577
  endloop
 endfacet
 facet normal 0.483328 0.582137 0.653843
  outer loop
   vertex 123.79 146.901 139.534
   vertex 124.416 146.828 139.136
   vertex 123.255 147.714 139.206
  endloop
 endfacet
 facet normal 0.241823 0.242813 0.939448
  outer loop
   vertex 124.416 146.828 139.136
   vertex 124.314 147.731 138.929
   vertex 123.255 147.714 139.206
  endloop
 endfacet
 facet normal 0.801145 0.140608 0.581719
  outer loop
   vertex 125.052 147.087 138.068
   vertex 124.736 147.952 138.294
   vertex 124.314 147.731 138.929
  endloop
 endfacet
 facet normal 0.815112 0.215262 0.537824
  outer loop
   vertex 124.416 146.828 139.136
   vertex 125.052 147.087 138.068
   vertex 124.314 147.731 138.929
  endloop
 endfacet
 facet normal -0.505937 0.649299 0.567837
  outer loop
   vertex 120.493 147.949 138.346
   vertex 121.236 148.063 138.877
   vertex 121.252 149.098 137.709
  endloop
 endfacet
 facet normal -0.107866 0.745034 0.658247
  outer loop
   vertex 122.299 148.555 138.495
   vertex 121.252 149.098 137.709
   vertex 121.236 148.063 138.877
  endloop
 endfacet
 facet normal -0.0332976 0.657344 0.752855
  outer loop
   vertex 122.025 147.756 139.18
   vertex 122.299 148.555 138.495
   vertex 121.236 148.063 138.877
  endloop
 endfacet
 facet normal 0.00653761 0.649847 0.760037
  outer loop
   vertex 123.255 147.714 139.206
   vertex 122.299 148.555 138.495
   vertex 122.025 147.756 139.18
  endloop
 endfacet
 facet normal 0.0902653 0.700743 0.70768
  outer loop
   vertex 123.898 148.406 138.438
   vertex 122.299 148.555 138.495
   vertex 123.255 147.714 139.206
  endloop
 endfacet
 facet normal 0.182639 0.649106 0.738447
  outer loop
   vertex 124.314 147.731 138.929
   vertex 123.898 148.406 138.438
   vertex 123.255 147.714 139.206
  endloop
 endfacet
 facet normal 0.46849 0.68989 0.551878
  outer loop
   vertex 124.736 147.952 138.294
   vertex 123.898 148.406 138.438
   vertex 124.314 147.731 138.929
  endloop
 endfacet
 facet normal -0.451851 -0.583161 0.675095
  outer loop
   vertex 124.325 144.281 139.43
   vertex 124.283 144.789 139.842
   vertex 123.707 144.72 139.396
  endloop
 endfacet
 facet normal 0.553999 -0.495273 0.66917
  outer loop
   vertex 124.325 144.281 139.43
   vertex 124.712 144.899 139.567
   vertex 124.283 144.789 139.842
  endloop
 endfacet
 facet normal -0.323647 -0.474224 0.818758
  outer loop
   vertex 123.176 145.38 139.544
   vertex 123.087 145.985 139.859
   vertex 122.324 145.695 139.39
  endloop
 endfacet
 facet normal -0.598639 0.351419 0.719817
  outer loop
   vertex 124.264 145.235 139.608
   vertex 123.707 144.72 139.396
   vertex 124.283 144.789 139.842
  endloop
 endfacet
 facet normal 0.237888 -0.420801 0.875406
  outer loop
   vertex 124.127 145.712 139.446
   vertex 123.087 145.985 139.859
   vertex 123.176 145.38 139.544
  endloop
 endfacet
 facet normal 0.402479 0.437516 0.804108
  outer loop
   vertex 124.712 144.899 139.567
   vertex 124.264 145.235 139.608
   vertex 124.283 144.789 139.842
  endloop
 endfacet
 facet normal -0.407689 0.0751078 0.910027
  outer loop
   vertex 123.087 145.985 139.859
   vertex 123.274 146.684 139.885
   vertex 122.295 146.827 139.435
  endloop
 endfacet
 facet normal -0.510189 -0.047077 0.858773
  outer loop
   vertex 122.324 145.695 139.39
   vertex 123.087 145.985 139.859
   vertex 122.295 146.827 139.435
  endloop
 endfacet
 facet normal 0.534895 0.0890719 0.84021
  outer loop
   vertex 124.127 145.712 139.446
   vertex 123.79 146.901 139.534
   vertex 123.274 146.684 139.885
  endloop
 endfacet
 facet normal 0.338262 -0.125165 0.932691
  outer loop
   vertex 123.087 145.985 139.859
   vertex 124.127 145.712 139.446
   vertex 123.274 146.684 139.885
  endloop
 endfacet
 facet normal -0.341138 0.377014 0.861095
  outer loop
   vertex 122.295 146.827 139.435
   vertex 123.274 146.684 139.885
   vertex 123.167 147.291 139.577
  endloop
 endfacet
 facet normal 0.351771 0.472627 0.80801
  outer loop
   vertex 123.79 146.901 139.534
   vertex 123.167 147.291 139.577
   vertex 123.274 146.684 139.885
  endloop
 endfacet
endsolid
