ply
format ascii 1.0
element vertex 318
property float x
property float y
property float z
property float nx
property float ny
property float nz
element face 106
property list uint uint vertex_indices
end_header
46.5277 161.486 158.438 -0.114079 -0.566078 -0.81642
47.413 161.689 158.173 -0.114079 -0.566078 -0.81642
47.213 161.182 158.553 -0.114079 -0.566078 -0.81642
47.213 161.182 158.553 0.0945293 -0.620167 -0.778754
47.413 161.689 158.173 0.0945293 -0.620167 -0.778754
48.0944 161.448 158.448 0.0945293 -0.620167 -0.778754
46.4459 162.458 158.189 -0.498032 -0.254093 -0.829096
46.5277 161.486 158.438 -0.498032 -0.254093 -0.829096
46.1967 161.629 158.592 -0.498032 -0.254093 -0.829096
46.1813 162.527 158.689 -0.881431 0.035669 -0.470964
46.4459 162.458 158.189 -0.881431 0.035669 -0.470964
46.1967 161.629 158.592 -0.881431 0.035669 -0.470964
47.413 161.689 158.173 -0.199906 -0.33013 -0.922525
46.5277 161.486 158.438 -0.199906 -0.33013 -0.922525
47.2929 162.49 157.913 -0.199906 -0.33013 -0.922525
47.2929 162.49 157.913 -0.290591 -0.260095 -0.920819
46.5277 161.486 158.438 -0.290591 -0.260095 -0.920819
46.4459 162.458 158.189 -0.290591 -0.260095 -0.920819
48.0944 161.448 158.448 0.211265 -0.412897 -0.885936
47.413 161.689 158.173 0.211265 -0.412897 -0.885936
48.1484 162.471 157.984 0.211265 -0.412897 -0.885936
48.1484 162.471 157.984 0.0729512 -0.298639 -0.951574
47.413 161.689 158.173 0.0729512 -0.298639 -0.951574
47.2929 162.49 157.913 0.0729512 -0.298639 -0.951574
48.4668 162.266 158.537 0.633014 -0.206699 -0.746036
48.4289 161.364 158.755 0.633014 -0.206699 -0.746036
48.0944 161.448 158.448 0.633014 -0.206699 -0.746036
48.1484 162.471 157.984 0.777734 -0.293193 -0.556028
48.4668 162.266 158.537 0.777734 -0.293193 -0.556028
48.0944 161.448 158.448 0.777734 -0.293193 -0.556028
46.4459 162.458 158.189 -0.874191 0.0974703 -0.475699
46.1813 162.527 158.689 -0.874191 0.0974703 -0.475699
46.393 163.117 158.421 -0.874191 0.0974703 -0.475699
46.393 163.117 158.421 -0.35165 0.450223 -0.820756
46.6341 163.529 158.543 -0.35165 0.450223 -0.820756
47.1192 163.317 158.22 -0.35165 0.450223 -0.820756
46.393 163.117 158.421 -0.329117 0.290114 -0.898619
47.1192 163.317 158.22 -0.329117 0.290114 -0.898619
46.4459 162.458 158.189 -0.329117 0.290114 -0.898619
46.4459 162.458 158.189 -0.307429 0.273575 -0.911397
47.1192 163.317 158.22 -0.307429 0.273575 -0.911397
47.2929 162.49 157.913 -0.307429 0.273575 -0.911397
48.1484 162.471 157.984 0.0850632 0.0999553 -0.991349
47.2929 162.49 157.913 0.0850632 0.0999553 -0.991349
48.0238 163.39 158.066 0.0850632 0.0999553 -0.991349
48.0238 163.39 158.066 -0.183222 0.307882 -0.933616
47.2929 162.49 157.913 -0.183222 0.307882 -0.933616
47.1192 163.317 158.22 -0.183222 0.307882 -0.933616
48.4172 163.246 158.48 0.868941 0.0150123 -0.494688
48.4668 162.266 158.537 0.868941 0.0150123 -0.494688
48.1484 162.471 157.984 0.868941 0.0150123 -0.494688
48.0238 163.39 158.066 0.742573 0.158673 -0.650698
48.4172 163.246 158.48 0.742573 0.158673 -0.650698
48.1484 162.471 157.984 0.742573 0.158673 -0.650698
47.1192 163.317 158.22 -0.250049 0.595586 -0.763383
46.6341 163.529 158.543 -0.250049 0.595586 -0.763383
47.3818 163.889 158.58 -0.250049 0.595586 -0.763383
48.0238 163.39 158.066 -0.181364 0.582369 -0.792436
47.1192 163.317 158.22 -0.181364 0.582369 -0.792436
47.3818 163.889 158.58 -0.181364 0.582369 -0.792436
48.2232 163.912 158.561 -0.0346411 0.694796 -0.718372
48.0238 163.39 158.066 -0.0346411 0.694796 -0.718372
47.3818 163.889 158.58 -0.0346411 0.694796 -0.718372
48.4172 163.246 158.48 0.74207 0.289766 -0.604456
48.0238 163.39 158.066 0.74207 0.289766 -0.604456
48.2232 163.912 158.561 0.74207 0.289766 -0.604456
46.582 160.558 159.413 -0.153586 -0.801014 -0.578608
47.4139 160.647 159.068 -0.153586 -0.801014 -0.578608
47.3292 160.373 159.471 -0.153586 -0.801014 -0.578608
47.3292 160.373 159.471 0.155149 -0.831017 -0.534172
47.4139 160.647 159.068 0.155149 -0.831017 -0.534172
48.0966 160.59 159.356 0.155149 -0.831017 -0.534172
46.5277 161.486 158.438 -0.262477 -0.70634 -0.657411
46.582 160.558 159.413 -0.262477 -0.70634 -0.657411
46.1947 160.858 159.245 -0.262477 -0.70634 -0.657411
46.5277 161.486 158.438 -0.537304 -0.543988 -0.644501
46.1947 160.858 159.245 -0.537304 -0.543988 -0.644501
46.1967 161.629 158.592 -0.537304 -0.543988 -0.644501
46.1967 161.629 158.592 -0.985518 -0.108058 -0.130684
46.1947 160.858 159.245 -0.985518 -0.108058 -0.130684
46.1048 161.512 159.383 -0.985518 -0.108058 -0.130684
47.213 161.182 158.553 -0.204814 -0.714797 -0.668667
46.582 160.558 159.413 -0.204814 -0.714797 -0.668667
46.5277 161.486 158.438 -0.204814 -0.714797 -0.668667
47.4139 160.647 159.068 -0.199091 -0.718093 -0.666862
46.582 160.558 159.413 -0.199091 -0.718093 -0.666862
47.213 161.182 158.553 -0.199091 -0.718093 -0.666862
48.0944 161.448 158.448 0.113786 -0.667296 -0.736049
47.4139 160.647 159.068 0.113786 -0.667296 -0.736049
47.213 161.182 158.553 0.113786 -0.667296 -0.736049
48.0966 160.59 159.356 0.222631 -0.708454 -0.669723
47.4139 160.647 159.068 0.222631 -0.708454 -0.669723
48.0944 161.448 158.448 0.222631 -0.708454 -0.669723
48.0966 160.59 159.356 0.409885 -0.662596 -0.626866
48.0944 161.448 158.448 0.409885 -0.662596 -0.626866
48.4289 161.364 158.755 0.409885 -0.662596 -0.626866
48.0966 160.59 159.356 0.748091 -0.576407 -0.328809
48.4289 161.364 158.755 0.748091 -0.576407 -0.328809
48.4133 160.877 159.573 0.748091 -0.576407 -0.328809
48.4133 160.877 159.573 0.980899 -0.174814 -0.0853122
48.4289 161.364 158.755 0.980899 -0.174814 -0.0853122
48.5207 161.621 159.283 0.980899 -0.174814 -0.0853122
46.1967 161.629 158.592 -0.99322 -0.0045417 -0.116165
46.1048 161.512 159.383 -0.99322 -0.0045417 -0.116165
46.1813 162.527 158.689 -0.99322 -0.0045417 -0.116165
46.1048 161.512 159.383 -0.998065 0.0490505 -0.038225
46.1404 162.347 159.524 -0.998065 0.0490505 -0.038225
46.1813 162.527 158.689 -0.998065 0.0490505 -0.038225
48.4289 161.364 158.755 0.987983 -0.074167 -0.135604
48.4668 162.266 158.537 0.987983 -0.074167 -0.135604
48.5207 161.621 159.283 0.987983 -0.074167 -0.135604
48.5207 161.621 159.283 0.998434 0.0448111 -0.0334926
48.4668 162.266 158.537 0.998434 0.0448111 -0.0334926
48.4812 162.572 159.376 0.998434 0.0448111 -0.0334926
46.2851 163.346 158.936 -0.935655 0.205419 -0.286972
46.393 163.117 158.421 -0.935655 0.205419 -0.286972
46.1813 162.527 158.689 -0.935655 0.205419 -0.286972
46.2851 163.346 158.936 -0.99048 0.134538 -0.0291489
46.1813 162.527 158.689 -0.99048 0.134538 -0.0291489
46.2484 163.185 159.446 -0.99048 0.134538 -0.0291489
46.2484 163.185 159.446 -0.991842 0.12568 -0.0213248
46.1813 162.527 158.689 -0.991842 0.12568 -0.0213248
46.1404 162.347 159.524 -0.991842 0.12568 -0.0213248
46.393 163.117 158.421 -0.735295 0.54906 -0.397334
46.2851 163.346 158.936 -0.735295 0.54906 -0.397334
46.6341 163.529 158.543 -0.735295 0.54906 -0.397334
48.4668 162.266 158.537 0.998217 0.0484785 -0.0348262
48.4172 163.246 158.48 0.998217 0.0484785 -0.0348262
48.4812 162.572 159.376 0.998217 0.0484785 -0.0348262
48.4812 162.572 159.376 0.996934 0.0771235 -0.0132264
48.4172 163.246 158.48 0.996934 0.0771235 -0.0132264
48.407 163.5 159.194 0.996934 0.0771235 -0.0132264
46.2851 163.346 158.936 -0.827104 0.550475 0.113475
46.2484 163.185 159.446 -0.827104 0.550475 0.113475
46.4998 163.62 159.172 -0.827104 0.550475 0.113475
46.6341 163.529 158.543 -0.651092 0.71888 -0.243495
46.2851 163.346 158.936 -0.651092 0.71888 -0.243495
46.4998 163.62 159.172 -0.651092 0.71888 -0.243495
46.6341 163.529 158.543 -0.415681 0.883249 -0.21698
46.4998 163.62 159.172 -0.415681 0.883249 -0.21698
47.3818 163.889 158.58 -0.415681 0.883249 -0.21698
47.3818 163.889 158.58 -0.315012 0.94836 -0.037162
46.4998 163.62 159.172 -0.315012 0.94836 -0.037162
47.1932 163.857 159.356 -0.315012 0.94836 -0.037162
48.2232 163.912 158.561 -0.0256902 0.999154 0.0321045
47.3818 163.889 158.58 -0.0256902 0.999154 0.0321045
48.038 163.883 159.299 -0.0256902 0.999154 0.0321045
47.3818 163.889 158.58 -0.0284069 0.998998 0.0345832
47.1932 163.857 159.356 -0.0284069 0.998998 0.0345832
48.038 163.883 159.299 -0.0284069 0.998998 0.0345832
48.407 163.5 159.194 0.953291 0.288571 -0.0892366
48.4172 163.246 158.48 0.953291 0.288571 -0.0892366
48.2232 163.912 158.561 0.953291 0.288571 -0.0892366
48.038 163.883 159.299 0.732275 0.648219 0.208772
48.407 163.5 159.194 0.732275 0.648219 0.208772
48.2232 163.912 158.561 0.732275 0.648219 0.208772
46.582 160.558 159.413 -0.53988 -0.833858 -0.114938
46.5326 160.466 160.31 -0.53988 -0.833858 -0.114938
46.2205 160.701 160.076 -0.53988 -0.833858 -0.114938
46.1947 160.858 159.245 -0.569414 -0.810719 -0.136022
46.582 160.558 159.413 -0.569414 -0.810719 -0.136022
46.2205 160.701 160.076 -0.569414 -0.810719 -0.136022
47.3292 160.373 159.471 -0.244773 -0.967277 0.0667891
47.3785 160.407 160.153 -0.244773 -0.967277 0.0667891
46.582 160.558 159.413 -0.244773 -0.967277 0.0667891
46.582 160.558 159.413 -0.0884747 -0.990414 -0.106076
47.3785 160.407 160.153 -0.0884747 -0.990414 -0.106076
46.5326 160.466 160.31 -0.0884747 -0.990414 -0.106076
48.1797 160.586 160.096 0.226144 -0.957086 0.181233
47.9363 160.592 160.431 0.226144 -0.957086 0.181233
47.3785 160.407 160.153 0.226144 -0.957086 0.181233
48.1797 160.586 160.096 0.215311 -0.976102 -0.0294312
47.3785 160.407 160.153 0.215311 -0.976102 -0.0294312
48.0966 160.59 159.356 0.215311 -0.976102 -0.0294312
48.0966 160.59 159.356 0.276108 -0.960693 0.0288542
47.3785 160.407 160.153 0.276108 -0.960693 0.0288542
47.3292 160.373 159.471 0.276108 -0.960693 0.0288542
48.0966 160.59 159.356 0.699825 -0.709539 -0.0824539
48.4133 160.877 159.573 0.699825 -0.709539 -0.0824539
48.1797 160.586 160.096 0.699825 -0.709539 -0.0824539
46.1947 160.858 159.245 -0.990523 -0.137269 0.00469098
46.2205 160.701 160.076 -0.990523 -0.137269 0.00469098
46.1048 161.512 159.383 -0.990523 -0.137269 0.00469098
46.2205 160.701 160.076 -0.993654 -0.0609092 0.094564
46.1868 161.502 160.238 -0.993654 -0.0609092 0.094564
46.1048 161.512 159.383 -0.993654 -0.0609092 0.094564
48.1797 160.586 160.096 0.790386 -0.203965 0.577657
48.0893 161.289 160.468 0.790386 -0.203965 0.577657
47.9363 160.592 160.431 0.790386 -0.203965 0.577657
48.0893 161.289 160.468 0.925565 -0.077041 0.370668
48.1797 160.586 160.096 0.925565 -0.077041 0.370668
48.4133 160.877 159.573 0.925565 -0.077041 0.370668
48.0893 161.289 160.468 0.862263 -0.262563 0.433085
48.4133 160.877 159.573 0.862263 -0.262563 0.433085
48.3963 161.654 160.078 0.862263 -0.262563 0.433085
48.3963 161.654 160.078 0.984236 -0.0807028 0.157377
48.4133 160.877 159.573 0.984236 -0.0807028 0.157377
48.5207 161.621 159.283 0.984236 -0.0807028 0.157377
46.1048 161.512 159.383 -0.995066 0.0262608 0.095673
46.1868 161.502 160.238 -0.995066 0.0262608 0.095673
46.1404 162.347 159.524 -0.995066 0.0262608 0.095673
46.1868 161.502 160.238 -0.927945 0.209633 0.308176
46.4237 162.481 160.286 -0.927945 0.209633 0.308176
46.1404 162.347 159.524 -0.927945 0.209633 0.308176
48.2265 162.534 160.12 0.543535 0.329252 0.772116
47.8755 162.518 160.374 0.543535 0.329252 0.772116
48.1687 161.965 160.404 0.543535 0.329252 0.772116
48.2265 162.534 160.12 0.870565 0.14558 0.470024
48.1687 161.965 160.404 0.870565 0.14558 0.470024
48.3963 161.654 160.078 0.870565 0.14558 0.470024
48.2265 162.534 160.12 0.930644 0.163998 0.327117
48.3963 161.654 160.078 0.930644 0.163998 0.327117
48.4812 162.572 159.376 0.930644 0.163998 0.327117
48.4812 162.572 159.376 0.987797 0.0260372 0.153553
48.3963 161.654 160.078 0.987797 0.0260372 0.153553
48.5207 161.621 159.283 0.987797 0.0260372 0.153553
46.4355 162.977 160.069 -0.762784 0.508969 0.398888
46.5175 163.469 159.598 -0.762784 0.508969 0.398888
46.2484 163.185 159.446 -0.762784 0.508969 0.398888
46.4355 162.977 160.069 -0.927232 0.168165 0.334607
46.2484 163.185 159.446 -0.927232 0.168165 0.334607
46.4237 162.481 160.286 -0.927232 0.168165 0.334607
46.4237 162.481 160.286 -0.934977 0.150335 0.321275
46.2484 163.185 159.446 -0.934977 0.150335 0.321275
46.1404 162.347 159.524 -0.934977 0.150335 0.321275
46.4355 162.977 160.069 -0.192049 0.695144 0.692743
47.3447 163.242 160.056 -0.192049 0.695144 0.692743
46.5175 163.469 159.598 -0.192049 0.695144 0.692743
47.8755 162.518 160.374 0.444666 0.613263 0.652825
48.2265 162.534 160.12 0.444666 0.613263 0.652825
47.3447 163.242 160.056 0.444666 0.613263 0.652825
48.2265 162.534 160.12 0.253599 0.396204 0.882445
48.2429 163.319 159.763 0.253599 0.396204 0.882445
47.3447 163.242 160.056 0.253599 0.396204 0.882445
48.4812 162.572 159.376 0.939356 0.13698 0.314399
48.407 163.5 159.194 0.939356 0.13698 0.314399
48.2429 163.319 159.763 0.939356 0.13698 0.314399
48.2265 162.534 160.12 0.936075 0.129325 0.327168
48.4812 162.572 159.376 0.936075 0.129325 0.327168
48.2429 163.319 159.763 0.936075 0.129325 0.327168
46.2484 163.185 159.446 -0.765771 0.595974 0.24168
46.5175 163.469 159.598 -0.765771 0.595974 0.24168
46.4998 163.62 159.172 -0.765771 0.595974 0.24168
47.1932 163.857 159.356 -0.382294 0.866504 0.320971
46.4998 163.62 159.172 -0.382294 0.866504 0.320971
46.5175 163.469 159.598 -0.382294 0.866504 0.320971
47.3447 163.242 160.056 -0.173147 0.720682 0.671295
47.1932 163.857 159.356 -0.173147 0.720682 0.671295
46.5175 163.469 159.598 -0.173147 0.720682 0.671295
48.038 163.883 159.299 0.0213072 0.753031 0.65764
47.1932 163.857 159.356 0.0213072 0.753031 0.65764
47.3447 163.242 160.056 0.0213072 0.753031 0.65764
48.2429 163.319 159.763 0.179663 0.663207 0.726552
48.038 163.883 159.299 0.179663 0.663207 0.726552
47.3447 163.242 160.056 0.179663 0.663207 0.726552
48.407 163.5 159.194 0.714162 0.580911 0.390531
48.038 163.883 159.299 0.714162 0.580911 0.390531
48.2429 163.319 159.763 0.714162 0.580911 0.390531
46.5326 160.466 160.31 -0.727208 -0.515603 0.453125
46.4566 160.783 160.549 -0.727208 -0.515603 0.453125
46.2205 160.701 160.076 -0.727208 -0.515603 0.453125
46.5326 160.466 160.31 0.00778592 -0.922086 0.386907
47.3785 160.407 160.153 0.00778592 -0.922086 0.386907
47.2776 160.646 160.724 0.00778592 -0.922086 0.386907
46.4566 160.783 160.549 -0.260963 -0.619877 0.740034
46.5326 160.466 160.31 -0.260963 -0.619877 0.740034
47.2776 160.646 160.724 -0.260963 -0.619877 0.740034
47.3785 160.407 160.153 0.102418 -0.911174 0.39909
47.9363 160.592 160.431 0.102418 -0.911174 0.39909
47.2776 160.646 160.724 0.102418 -0.911174 0.39909
46.4566 160.783 160.549 -0.837308 -0.0803106 0.540801
46.504 161.59 160.742 -0.837308 -0.0803106 0.540801
46.1868 161.502 160.238 -0.837308 -0.0803106 0.540801
46.2205 160.701 160.076 -0.877839 -0.13006 0.460958
46.4566 160.783 160.549 -0.877839 -0.13006 0.460958
46.1868 161.502 160.238 -0.877839 -0.13006 0.460958
47.2776 160.646 160.724 -0.241678 -0.255519 0.93611
47.1839 161.348 160.891 -0.241678 -0.255519 0.93611
46.4566 160.783 160.549 -0.241678 -0.255519 0.93611
47.1839 161.348 160.891 -0.279195 -0.208043 0.937426
46.504 161.59 160.742 -0.279195 -0.208043 0.937426
46.4566 160.783 160.549 -0.279195 -0.208043 0.937426
47.9363 160.592 160.431 0.392789 -0.134044 0.909807
48.0893 161.289 160.468 0.392789 -0.134044 0.909807
47.2776 160.646 160.724 0.392789 -0.134044 0.909807
47.2776 160.646 160.724 0.409429 -0.159657 0.898263
48.0893 161.289 160.468 0.409429 -0.159657 0.898263
47.1839 161.348 160.891 0.409429 -0.159657 0.898263
46.1868 161.502 160.238 -0.846445 0.180541 0.500935
46.504 161.59 160.742 -0.846445 0.180541 0.500935
46.4237 162.481 160.286 -0.846445 0.180541 0.500935
47.1839 161.348 160.891 -0.102111 0.29699 0.949405
47.3511 162.232 160.633 -0.102111 0.29699 0.949405
46.504 161.59 160.742 -0.102111 0.29699 0.949405
47.3511 162.232 160.633 -0.212604 0.430577 0.877156
46.4237 162.481 160.286 -0.212604 0.430577 0.877156
46.504 161.59 160.742 -0.212604 0.430577 0.877156
48.1687 161.965 160.404 0.330248 0.223841 0.916969
47.8755 162.518 160.374 0.330248 0.223841 0.916969
47.3511 162.232 160.633 0.330248 0.223841 0.916969
48.1687 161.965 160.404 0.286915 0.0572525 0.956244
47.3511 162.232 160.633 0.286915 0.0572525 0.956244
48.0893 161.289 160.468 0.286915 0.0572525 0.956244
48.0893 161.289 160.468 0.426427 0.178587 0.886717
47.3511 162.232 160.633 0.426427 0.178587 0.886717
47.1839 161.348 160.891 0.426427 0.178587 0.886717
48.3963 161.654 160.078 0.801589 -0.0373276 0.596709
48.1687 161.965 160.404 0.801589 -0.0373276 0.596709
48.0893 161.289 160.468 0.801589 -0.0373276 0.596709
47.3447 163.242 160.056 -0.103139 0.400042 0.910675
46.4355 162.977 160.069 -0.103139 0.400042 0.910675
46.4237 162.481 160.286 -0.103139 0.400042 0.910675
47.3511 162.232 160.633 -0.18867 0.486261 0.853202
47.3447 163.242 160.056 -0.18867 0.486261 0.853202
46.4237 162.481 160.286 -0.18867 0.486261 0.853202
47.8755 162.518 160.374 0.155108 0.490813 0.857347
47.3447 163.242 160.056 0.155108 0.490813 0.857347
47.3511 162.232 160.633 0.155108 0.490813 0.857347
3 0 1 2
3 3 4 5
3 6 7 8
3 9 10 11
3 12 13 14
3 15 16 17
3 18 19 20
3 21 22 23
3 24 25 26
3 27 28 29
3 30 31 32
3 33 34 35
3 36 37 38
3 39 40 41
3 42 43 44
3 45 46 47
3 48 49 50
3 51 52 53
3 54 55 56
3 57 58 59
3 60 61 62
3 63 64 65
3 66 67 68
3 69 70 71
3 72 73 74
3 75 76 77
3 78 79 80
3 81 82 83
3 84 85 86
3 87 88 89
3 90 91 92
3 93 94 95
3 96 97 98
3 99 100 101
3 102 103 104
3 105 106 107
3 108 109 110
3 111 112 113
3 114 115 116
3 117 118 119
3 120 121 122
3 123 124 125
3 126 127 128
3 129 130 131
3 132 133 134
3 135 136 137
3 138 139 140
3 141 142 143
3 144 145 146
3 147 148 149
3 150 151 152
3 153 154 155
3 156 157 158
3 159 160 161
3 162 163 164
3 165 166 167
3 168 169 170
3 171 172 173
3 174 175 176
3 177 178 179
3 180 181 182
3 183 184 185
3 186 187 188
3 189 190 191
3 192 193 194
3 195 196 197
3 198 199 200
3 201 202 203
3 204 205 206
3 207 208 209
3 210 211 212
3 213 214 215
3 216 217 218
3 219 220 221
3 222 223 224
3 225 226 227
3 228 229 230
3 231 232 233
3 234 235 236
3 237 238 239
3 240 241 242
3 243 244 245
3 246 247 248
3 249 250 251
3 252 253 254
3 255 256 257
3 258 259 260
3 261 262 263
3 264 265 266
3 267 268 269
3 270 271 272
3 273 274 275
3 276 277 278
3 279 280 281
3 282 283 284
3 285 286 287
3 288 289 290
3 291 292 293
3 294 295 296
3 297 298 299
3 300 301 302
3 303 304 305
3 306 307 308
3 309 310 311
3 312 313 314
3 315 316 317
