ply
format ascii 1.0
element vertex 114
property float x
property float y
property float z
property float nx
property float ny
property float nz
element face 38
property list uint uint vertex_indices
end_header
74.7136 116.358 185.181 -0.68389 -0.320578 -0.655381
74.5842 115.31 185.829 -0.68389 -0.320578 -0.655381
74.2166 116.423 185.668 -0.68389 -0.320578 -0.655381
74.9367 116.187 185.695 0.789634 -0.390083 -0.473618
74.5842 115.31 185.829 0.789634 -0.390083 -0.473618
74.7136 116.358 185.181 0.789634 -0.390083 -0.473618
74.7136 116.358 185.181 -0.292983 0.861859 -0.413956
74.2166 116.423 185.668 -0.292983 0.861859 -0.413956
74.6276 116.677 185.906 -0.292983 0.861859 -0.413956
74.6276 116.677 185.906 0.80338 0.574288 -0.157396
74.9367 116.187 185.695 0.80338 0.574288 -0.157396
74.7136 116.358 185.181 0.80338 0.574288 -0.157396
74.5842 115.31 185.829 -0.697652 -0.603462 -0.386154
74.7254 114.657 186.594 -0.697652 -0.603462 -0.386154
74.2571 115.214 186.57 -0.697652 -0.603462 -0.386154
74.7254 114.657 186.594 0.624724 -0.533336 -0.570327
74.5842 115.31 185.829 0.624724 -0.533336 -0.570327
74.9465 115.036 186.482 0.624724 -0.533336 -0.570327
73.3259 116.275 186.306 -0.982085 -0.174642 -0.0707703
73.3018 116.287 186.609 -0.982085 -0.174642 -0.0707703
73.2495 116.565 186.651 -0.982085 -0.174642 -0.0707703
74.2571 115.214 186.57 -0.747265 -0.663778 -0.031519
73.3018 116.287 186.609 -0.747265 -0.663778 -0.031519
73.3259 116.275 186.306 -0.747265 -0.663778 -0.031519
74.5842 115.31 185.829 -0.649547 -0.662772 -0.372589
74.2571 115.214 186.57 -0.649547 -0.662772 -0.372589
73.3259 116.275 186.306 -0.649547 -0.662772 -0.372589
74.5842 115.31 185.829 -0.525281 -0.289142 -0.800298
73.3259 116.275 186.306 -0.525281 -0.289142 -0.800298
74.2166 116.423 185.668 -0.525281 -0.289142 -0.800298
74.5842 115.31 185.829 0.731451 -0.380808 -0.565654
74.9367 116.187 185.695 0.731451 -0.380808 -0.565654
74.9465 115.036 186.482 0.731451 -0.380808 -0.565654
74.9465 115.036 186.482 0.994817 -0.0515153 -0.0876628
74.9367 116.187 185.695 0.994817 -0.0515153 -0.0876628
75.0046 116.182 186.467 0.994817 -0.0515153 -0.0876628
73.3259 116.275 186.306 -0.845492 0.301004 -0.441067
73.2495 116.565 186.651 -0.845492 0.301004 -0.441067
73.4326 116.641 186.352 -0.845492 0.301004 -0.441067
74.2166 116.423 185.668 -0.590318 0.26654 -0.761893
73.3259 116.275 186.306 -0.590318 0.26654 -0.761893
73.4326 116.641 186.352 -0.590318 0.26654 -0.761893
74.2166 116.423 185.668 -0.216471 0.830664 -0.51297
73.4326 116.641 186.352 -0.216471 0.830664 -0.51297
74.6276 116.677 185.906 -0.216471 0.830664 -0.51297
75.0046 116.182 186.467 0.830006 0.553361 -0.0698718
74.9367 116.187 185.695 0.830006 0.553361 -0.0698718
74.6276 116.677 185.906 0.830006 0.553361 -0.0698718
74.7254 114.657 186.594 -0.737218 -0.669014 0.0944978
74.8137 114.647 187.209 -0.737218 -0.669014 0.0944978
74.6018 114.881 187.213 -0.737218 -0.669014 0.0944978
74.2571 115.214 186.57 -0.764691 -0.639612 0.0783915
74.7254 114.657 186.594 -0.764691 -0.639612 0.0783915
74.6018 114.881 187.213 -0.764691 -0.639612 0.0783915
74.8137 114.647 187.209 0.839521 -0.527683 -0.129442
74.7254 114.657 186.594 0.839521 -0.527683 -0.129442
74.9465 115.036 186.482 0.839521 -0.527683 -0.129442
74.9436 115.216 187.236 0.972805 -0.224427 0.0573031
74.8137 114.647 187.209 0.972805 -0.224427 0.0573031
74.9465 115.036 186.482 0.972805 -0.224427 0.0573031
73.3018 116.287 186.609 -0.513127 -0.220236 0.829577
74.3301 116.134 187.205 -0.513127 -0.220236 0.829577
73.2495 116.565 186.651 -0.513127 -0.220236 0.829577
73.3018 116.287 186.609 -0.494206 -0.466717 0.73344
74.2571 115.214 186.57 -0.494206 -0.466717 0.73344
74.3301 116.134 187.205 -0.494206 -0.466717 0.73344
74.2571 115.214 186.57 -0.90303 -0.193031 0.383766
74.6018 114.881 187.213 -0.90303 -0.193031 0.383766
74.3301 116.134 187.205 -0.90303 -0.193031 0.383766
74.9465 115.036 186.482 0.998602 -0.0504098 0.0158836
75.0046 116.182 186.467 0.998602 -0.0504098 0.0158836
74.9436 115.216 187.236 0.998602 -0.0504098 0.0158836
74.9436 115.216 187.236 0.977791 0.0892361 0.189637
75.0046 116.182 186.467 0.977791 0.0892361 0.189637
74.8647 116.398 187.087 0.977791 0.0892361 0.189637
73.2495 116.565 186.651 -0.333253 0.309644 0.890541
74.3301 116.134 187.205 -0.333253 0.309644 0.890541
74.3937 116.643 187.051 -0.333253 0.309644 0.890541
73.2495 116.565 186.651 -0.127088 0.977004 0.171208
74.3937 116.643 187.051 -0.127088 0.977004 0.171208
73.4326 116.641 186.352 -0.127088 0.977004 0.171208
73.4326 116.641 186.352 -0.0207535 0.99947 0.0250735
74.3937 116.643 187.051 -0.0207535 0.99947 0.0250735
74.6276 116.677 185.906 -0.0207535 0.99947 0.0250735
74.8647 116.398 187.087 0.807307 0.589698 -0.0226296
75.0046 116.182 186.467 0.807307 0.589698 -0.0226296
74.6276 116.677 185.906 0.807307 0.589698 -0.0226296
74.3937 116.643 187.051 0.452182 0.884052 0.118249
74.8647 116.398 187.087 0.452182 0.884052 0.118249
74.6276 116.677 185.906 0.452182 0.884052 0.118249
74.8137 114.647 187.209 -0.498527 -0.464121 0.732163
74.7501 115.093 187.449 -0.498527 -0.464121 0.732163
74.6018 114.881 187.213 -0.498527 -0.464121 0.732163
74.8137 114.647 187.209 0.780453 -0.205824 0.590364
74.9436 115.216 187.236 0.780453 -0.205824 0.590364
74.7501 115.093 187.449 0.780453 -0.205824 0.590364
74.7501 115.093 187.449 -0.44939 0.0284273 0.892883
74.7505 116.175 187.415 -0.44939 0.0284273 0.892883
74.3301 116.134 187.205 -0.44939 0.0284273 0.892883
74.6018 114.881 187.213 -0.763439 -0.161103 0.625465
74.7501 115.093 187.449 -0.763439 -0.161103 0.625465
74.3301 116.134 187.205 -0.763439 -0.161103 0.625465
74.9436 115.216 187.236 0.912883 0.110605 0.392953
74.8647 116.398 187.087 0.912883 0.110605 0.392953
74.7505 116.175 187.415 0.912883 0.110605 0.392953
74.7501 115.093 187.449 0.733733 0.0212116 0.679107
74.9436 115.216 187.236 0.733733 0.0212116 0.679107
74.7505 116.175 187.415 0.733733 0.0212116 0.679107
74.3301 116.134 187.205 -0.449541 0.308446 0.838316
74.7505 116.175 187.415 -0.449541 0.308446 0.838316
74.3937 116.643 187.051 -0.449541 0.308446 0.838316
74.8647 116.398 187.087 0.331614 0.723307 0.605689
74.3937 116.643 187.051 0.331614 0.723307 0.605689
74.7505 116.175 187.415 0.331614 0.723307 0.605689
3 0 1 2
3 3 4 5
3 6 7 8
3 9 10 11
3 12 13 14
3 15 16 17
3 18 19 20
3 21 22 23
3 24 25 26
3 27 28 29
3 30 31 32
3 33 34 35
3 36 37 38
3 39 40 41
3 42 43 44
3 45 46 47
3 48 49 50
3 51 52 53
3 54 55 56
3 57 58 59
3 60 61 62
3 63 64 65
3 66 67 68
3 69 70 71
3 72 73 74
3 75 76 77
3 78 79 80
3 81 82 83
3 84 85 86
3 87 88 89
3 90 91 92
3 93 94 95
3 96 97 98
3 99 100 101
3 102 103 104
3 105 106 107
3 108 109 110
3 111 112 113
