ply
format ascii 1.0
element vertex 420
property float x
property float y
property float z
property float nx
property float ny
property float nz
element face 140
property list uint uint vertex_indices
end_header
52.8447 152.3 159.328 -0.149284 -0.181334 -0.972025
52.6283 151.777 159.459 -0.149284 -0.181334 -0.972025
52.2487 152.359 159.409 -0.149284 -0.181334 -0.972025
52.6283 151.777 159.459 0.310321 -0.349624 -0.884004
52.8447 152.3 159.328 0.310321 -0.349624 -0.884004
53.0613 152.058 159.5 0.310321 -0.349624 -0.884004
52.7369 153.008 159.205 -0.150027 -0.19174 -0.969911
52.8447 152.3 159.328 -0.150027 -0.19174 -0.969911
52.2487 152.359 159.409 -0.150027 -0.19174 -0.969911
52.0786 153.272 159.444 -0.351473 -0.0295403 -0.935732
52.7369 153.008 159.205 -0.351473 -0.0295403 -0.935732
52.2487 152.359 159.409 -0.351473 -0.0295403 -0.935732
53.5519 153.053 159.444 0.412452 -0.251983 -0.875436
53.0613 152.058 159.5 0.412452 -0.251983 -0.875436
52.8447 152.3 159.328 0.412452 -0.251983 -0.875436
53.5519 153.053 159.444 0.286245 -0.121976 -0.950361
52.8447 152.3 159.328 0.286245 -0.121976 -0.950361
52.7369 153.008 159.205 0.286245 -0.121976 -0.950361
52.7469 153.755 159.365 -0.259577 0.20622 -0.943447
52.7369 153.008 159.205 -0.259577 0.20622 -0.943447
52.0786 153.272 159.444 -0.259577 0.20622 -0.943447
52.2393 153.991 159.583 -0.284688 0.243671 -0.927134
52.7469 153.755 159.365 -0.284688 0.243671 -0.927134
52.0786 153.272 159.444 -0.284688 0.243671 -0.927134
53.0036 154.102 159.698 0.183891 0.320639 -0.92918
53.8553 153.497 159.657 0.183891 0.320639 -0.92918
53.5519 153.053 159.444 0.183891 0.320639 -0.92918
53.0036 154.102 159.698 0.446817 0.423972 -0.787783
53.5519 153.053 159.444 0.446817 0.423972 -0.787783
52.7469 153.755 159.365 0.446817 0.423972 -0.787783
52.7469 153.755 159.365 0.266239 0.199147 -0.94311
53.5519 153.053 159.444 0.266239 0.199147 -0.94311
52.7369 153.008 159.205 0.266239 0.199147 -0.94311
52.7469 153.755 159.365 0.00872528 0.688134 -0.725531
52.2393 153.991 159.583 0.00872528 0.688134 -0.725531
53.0036 154.102 159.698 0.00872528 0.688134 -0.725531
52.0489 150.242 160.249 -0.427851 -0.700003 -0.571786
51.9407 149.947 160.691 -0.427851 -0.700003 -0.571786
51.6412 150.296 160.488 -0.427851 -0.700003 -0.571786
52.0489 150.242 160.249 0.0494186 -0.630389 -0.774705
52.9547 150.296 160.263 0.0494186 -0.630389 -0.774705
52.6233 149.945 160.527 0.0494186 -0.630389 -0.774705
51.9407 149.947 160.691 -0.139722 -0.807574 -0.572977
52.0489 150.242 160.249 -0.139722 -0.807574 -0.572977
52.6233 149.945 160.527 -0.139722 -0.807574 -0.572977
52.6233 149.945 160.527 0.425146 -0.765559 -0.482877
52.9547 150.296 160.263 0.425146 -0.765559 -0.482877
53.1876 150.15 160.7 0.425146 -0.765559 -0.482877
51.6828 151.073 160.05 -0.501772 -0.404802 -0.764434
52.0489 150.242 160.249 -0.501772 -0.404802 -0.764434
51.6412 150.296 160.488 -0.501772 -0.404802 -0.764434
51.1758 151.148 160.622 -0.732492 -0.304598 -0.608831
51.6828 151.073 160.05 -0.732492 -0.304598 -0.608831
51.6412 150.296 160.488 -0.732492 -0.304598 -0.608831
52.9547 150.296 160.263 0.040328 -0.448044 -0.893102
52.0489 150.242 160.249 0.040328 -0.448044 -0.893102
52.7515 151.201 159.8 0.040328 -0.448044 -0.893102
52.7515 151.201 159.8 -0.181939 -0.304804 -0.934876
52.0489 150.242 160.249 -0.181939 -0.304804 -0.934876
51.6828 151.073 160.05 -0.181939 -0.304804 -0.934876
53.7093 150.524 160.537 0.407852 -0.778036 -0.477825
53.1876 150.15 160.7 0.407852 -0.778036 -0.477825
52.9547 150.296 160.263 0.407852 -0.778036 -0.477825
53.7093 150.524 160.537 0.41835 -0.41734 -0.806728
52.9547 150.296 160.263 0.41835 -0.41734 -0.806728
53.8929 151.224 160.27 0.41835 -0.41734 -0.806728
53.8929 151.224 160.27 0.361315 -0.359263 -0.860454
52.9547 150.296 160.263 0.361315 -0.359263 -0.860454
52.7515 151.201 159.8 0.361315 -0.359263 -0.860454
53.7093 150.524 160.537 0.79312 -0.387259 -0.470097
53.8929 151.224 160.27 0.79312 -0.387259 -0.470097
54.2057 151.279 160.752 0.79312 -0.387259 -0.470097
51.024 151.95 160.224 -0.821348 -0.195579 -0.53585
50.8419 151.892 160.524 -0.821348 -0.195579 -0.53585
50.8636 152.333 160.33 -0.821348 -0.195579 -0.53585
51.1758 151.148 160.622 -0.745132 -0.404354 -0.530355
50.8419 151.892 160.524 -0.745132 -0.404354 -0.530355
51.024 151.95 160.224 -0.745132 -0.404354 -0.530355
51.1758 151.148 160.622 -0.706709 -0.417401 -0.571261
51.024 151.95 160.224 -0.706709 -0.417401 -0.571261
51.6828 151.073 160.05 -0.706709 -0.417401 -0.571261
51.6828 151.073 160.05 -0.517818 -0.225168 -0.825327
51.024 151.95 160.224 -0.517818 -0.225168 -0.825327
51.8705 151.933 159.697 -0.517818 -0.225168 -0.825327
52.6283 151.777 159.459 -0.341832 -0.299993 -0.890592
51.8705 151.933 159.697 -0.341832 -0.299993 -0.890592
52.2487 152.359 159.409 -0.341832 -0.299993 -0.890592
52.6283 151.777 159.459 -0.351755 -0.531479 -0.770583
52.7515 151.201 159.8 -0.351755 -0.531479 -0.770583
51.8705 151.933 159.697 -0.351755 -0.531479 -0.770583
52.7515 151.201 159.8 -0.175099 -0.34035 -0.923852
51.6828 151.073 160.05 -0.175099 -0.34035 -0.923852
51.8705 151.933 159.697 -0.175099 -0.34035 -0.923852
53.0613 152.058 159.5 0.351558 -0.420092 -0.836618
52.7515 151.201 159.8 0.351558 -0.420092 -0.836618
52.6283 151.777 159.459 0.351558 -0.420092 -0.836618
53.0613 152.058 159.5 0.491936 -0.440794 -0.750799
53.8469 152.114 159.982 0.491936 -0.440794 -0.750799
52.7515 151.201 159.8 0.491936 -0.440794 -0.750799
53.8469 152.114 159.982 0.371228 -0.268439 -0.888893
53.8929 151.224 160.27 0.371228 -0.268439 -0.888893
52.7515 151.201 159.8 0.371228 -0.268439 -0.888893
54.8003 152.113 160.564 0.705813 -0.591496 -0.389821
54.2057 151.279 160.752 0.705813 -0.591496 -0.389821
53.8929 151.224 160.27 0.705813 -0.591496 -0.389821
54.8003 152.113 160.564 0.672509 -0.508604 -0.537637
53.8929 151.224 160.27 0.672509 -0.508604 -0.537637
54.6805 152.239 160.295 0.672509 -0.508604 -0.537637
54.6805 152.239 160.295 0.37363 -0.268029 -0.88801
53.8929 151.224 160.27 0.37363 -0.268029 -0.88801
53.8469 152.114 159.982 0.37363 -0.268029 -0.88801
50.8636 152.333 160.33 -0.734044 0.479983 -0.480412
51.2044 152.994 160.47 -0.734044 0.479983 -0.480412
51.5714 152.842 159.757 -0.734044 0.479983 -0.480412
50.8636 152.333 160.33 -0.61216 -0.0372344 -0.789857
51.5714 152.842 159.757 -0.61216 -0.0372344 -0.789857
51.024 151.95 160.224 -0.61216 -0.0372344 -0.789857
51.024 151.95 160.224 -0.526166 -0.117401 -0.842239
51.5714 152.842 159.757 -0.526166 -0.117401 -0.842239
51.8705 151.933 159.697 -0.526166 -0.117401 -0.842239
52.2487 152.359 159.409 -0.489163 -0.0576839 -0.870283
51.5714 152.842 159.757 -0.489163 -0.0576839 -0.870283
52.0786 153.272 159.444 -0.489163 -0.0576839 -0.870283
51.8705 151.933 159.697 -0.517988 -0.114348 -0.84771
51.5714 152.842 159.757 -0.517988 -0.114348 -0.84771
52.2487 152.359 159.409 -0.517988 -0.114348 -0.84771
53.0613 152.058 159.5 0.514409 -0.298271 -0.804001
53.5519 153.053 159.444 0.514409 -0.298271 -0.804001
53.8469 152.114 159.982 0.514409 -0.298271 -0.804001
53.5519 153.053 159.444 0.57656 -0.261617 -0.774038
54.5894 153.214 160.163 0.57656 -0.261617 -0.774038
53.8469 152.114 159.982 0.57656 -0.261617 -0.774038
54.5894 153.214 160.163 0.362135 -0.0916678 -0.927607
54.6805 152.239 160.295 0.362135 -0.0916678 -0.927607
53.8469 152.114 159.982 0.362135 -0.0916678 -0.927607
54.9467 153.096 160.485 0.869364 -0.166679 -0.465214
54.8003 152.113 160.564 0.869364 -0.166679 -0.465214
54.6805 152.239 160.295 0.869364 -0.166679 -0.465214
54.5894 153.214 160.163 0.66192 -0.0394451 -0.748536
54.9467 153.096 160.485 0.66192 -0.0394451 -0.748536
54.6805 152.239 160.295 0.66192 -0.0394451 -0.748536
51.7278 153.792 159.937 -0.844237 0.230581 -0.483834
51.5714 152.842 159.757 -0.844237 0.230581 -0.483834
51.2044 152.994 160.47 -0.844237 0.230581 -0.483834
51.6691 153.826 160.585 -0.862056 0.495976 -0.104245
51.7278 153.792 159.937 -0.862056 0.495976 -0.104245
51.2044 152.994 160.47 -0.862056 0.495976 -0.104245
52.0786 153.272 159.444 -0.61758 0.280775 -0.734684
51.7278 153.792 159.937 -0.61758 0.280775 -0.734684
52.2393 153.991 159.583 -0.61758 0.280775 -0.734684
51.5714 152.842 159.757 -0.651037 0.243299 -0.718997
51.7278 153.792 159.937 -0.651037 0.243299 -0.718997
52.0786 153.272 159.444 -0.651037 0.243299 -0.718997
53.8553 153.497 159.657 0.359396 0.555643 -0.74973
53.0036 154.102 159.698 0.359396 0.555643 -0.74973
53.9803 154.01 160.098 0.359396 0.555643 -0.74973
53.8553 153.497 159.657 0.56859 0.00621448 -0.822597
54.5894 153.214 160.163 0.56859 0.00621448 -0.822597
53.5519 153.053 159.444 0.56859 0.00621448 -0.822597
53.8553 153.497 159.657 0.618587 0.419349 -0.664452
53.9803 154.01 160.098 0.618587 0.419349 -0.664452
54.5894 153.214 160.163 0.618587 0.419349 -0.664452
53.9803 154.01 160.098 0.344213 0.188281 -0.919819
54.5858 154.062 160.335 0.344213 0.188281 -0.919819
54.5894 153.214 160.163 0.344213 0.188281 -0.919819
54.7155 153.956 160.51 0.691972 0.206126 -0.691872
54.9467 153.096 160.485 0.691972 0.206126 -0.691872
54.5894 153.214 160.163 0.691972 0.206126 -0.691872
54.5858 154.062 160.335 0.829979 0.114385 -0.545941
54.7155 153.956 160.51 0.829979 0.114385 -0.545941
54.5894 153.214 160.163 0.829979 0.114385 -0.545941
51.7278 153.792 159.937 -0.766351 0.634137 -0.102841
51.6691 153.826 160.585 -0.766351 0.634137 -0.102841
52.0156 154.188 160.237 -0.766351 0.634137 -0.102841
52.2393 153.991 159.583 -0.562627 0.718046 -0.409709
51.7278 153.792 159.937 -0.562627 0.718046 -0.409709
52.0156 154.188 160.237 -0.562627 0.718046 -0.409709
52.2393 153.991 159.583 -0.0898773 0.944382 -0.316331
52.0156 154.188 160.237 -0.0898773 0.944382 -0.316331
53.0036 154.102 159.698 -0.0898773 0.944382 -0.316331
53.0036 154.102 159.698 -0.25475 0.766155 -0.590008
52.0156 154.188 160.237 -0.25475 0.766155 -0.590008
52.7366 154.593 160.451 -0.25475 0.766155 -0.590008
53.9803 154.01 160.098 0.341331 0.643226 -0.685385
53.0036 154.102 159.698 0.341331 0.643226 -0.685385
53.7858 154.508 160.469 0.341331 0.643226 -0.685385
53.7858 154.508 160.469 0.0775147 0.847406 -0.525257
53.0036 154.102 159.698 0.0775147 0.847406 -0.525257
52.7366 154.593 160.451 0.0775147 0.847406 -0.525257
54.5858 154.062 160.335 0.232617 0.637426 -0.73456
53.9803 154.01 160.098 0.232617 0.637426 -0.73456
53.7858 154.508 160.469 0.232617 0.637426 -0.73456
54.7155 153.956 160.51 0.500232 0.853372 0.14671
54.5858 154.062 160.335 0.500232 0.853372 0.14671
53.7858 154.508 160.469 0.500232 0.853372 0.14671
51.9407 149.947 160.691 -0.627202 -0.763898 0.151916
51.996 150.03 161.335 -0.627202 -0.763898 0.151916
51.6738 150.261 161.169 -0.627202 -0.763898 0.151916
51.6412 150.296 160.488 -0.7597 -0.650266 0.00326948
51.9407 149.947 160.691 -0.7597 -0.650266 0.00326948
51.6738 150.261 161.169 -0.7597 -0.650266 0.00326948
52.6233 149.945 160.527 0.0172852 -0.996466 0.0822015
52.6513 150.0 161.183 0.0172852 -0.996466 0.0822015
51.9407 149.947 160.691 0.0172852 -0.996466 0.0822015
51.9407 149.947 160.691 -0.015167 -0.991585 0.128567
52.6513 150.0 161.183 -0.015167 -0.991585 0.128567
51.996 150.03 161.335 -0.015167 -0.991585 0.128567
52.6513 150.0 161.183 0.322612 -0.94431 0.0648108
52.6233 149.945 160.527 0.322612 -0.94431 0.0648108
53.1876 150.15 160.7 0.322612 -0.94431 0.0648108
53.0853 150.254 161.373 0.427937 -0.881117 0.201253
52.6513 150.0 161.183 0.427937 -0.881117 0.201253
53.1876 150.15 160.7 0.427937 -0.881117 0.201253
51.6412 150.296 160.488 -0.876283 -0.48148 0.0174561
51.6738 150.261 161.169 -0.876283 -0.48148 0.0174561
51.1758 151.148 160.622 -0.876283 -0.48148 0.0174561
51.6738 150.261 161.169 -0.778156 -0.05067 0.626023
51.8463 151.188 161.459 -0.778156 -0.05067 0.626023
51.1758 151.148 160.622 -0.778156 -0.05067 0.626023
53.1876 150.15 160.7 0.637806 -0.740617 0.211399
53.7404 150.772 161.21 0.637806 -0.740617 0.211399
53.0853 150.254 161.373 0.637806 -0.740617 0.211399
53.7093 150.524 160.537 0.614086 -0.749348 0.247741
53.7404 150.772 161.21 0.614086 -0.749348 0.247741
53.1876 150.15 160.7 0.614086 -0.749348 0.247741
53.7404 150.772 161.21 0.799398 -0.574786 0.17488
53.7093 150.524 160.537 0.799398 -0.574786 0.17488
54.2057 151.279 160.752 0.799398 -0.574786 0.17488
54.0201 151.277 161.43 0.809741 -0.544345 0.219107
53.7404 150.772 161.21 0.809741 -0.544345 0.219107
54.2057 151.279 160.752 0.809741 -0.544345 0.219107
50.8419 151.892 160.524 -0.99665 0.0686298 0.0444822
50.867 152.235 160.556 -0.99665 0.0686298 0.0444822
50.8636 152.333 160.33 -0.99665 0.0686298 0.0444822
50.8419 151.892 160.524 -0.711309 -0.0139851 0.70274
51.4156 152.086 161.109 -0.711309 -0.0139851 0.70274
50.867 152.235 160.556 -0.711309 -0.0139851 0.70274
50.8419 151.892 160.524 -0.664094 -0.203396 0.719451
51.1758 151.148 160.622 -0.664094 -0.203396 0.719451
51.4156 152.086 161.109 -0.664094 -0.203396 0.719451
51.1758 151.148 160.622 -0.771123 -0.126542 0.623984
51.8463 151.188 161.459 -0.771123 -0.126542 0.623984
51.4156 152.086 161.109 -0.771123 -0.126542 0.623984
54.7892 152.106 161.093 0.81505 -0.5793 0.0102479
54.2057 151.279 160.752 0.81505 -0.5793 0.0102479
54.8003 152.113 160.564 0.81505 -0.5793 0.0102479
54.7892 152.106 161.093 0.534899 -0.61598 0.578318
54.5393 152.17 161.391 0.534899 -0.61598 0.578318
54.2057 151.279 160.752 0.534899 -0.61598 0.578318
54.5393 152.17 161.391 0.845822 -0.481703 0.229232
54.0201 151.277 161.43 0.845822 -0.481703 0.229232
54.2057 151.279 160.752 0.845822 -0.481703 0.229232
50.867 152.235 160.556 -0.888349 0.416473 0.193357
51.2044 152.994 160.47 -0.888349 0.416473 0.193357
50.8636 152.333 160.33 -0.888349 0.416473 0.193357
50.867 152.235 160.556 -0.614693 0.352898 0.705419
51.4156 152.086 161.109 -0.614693 0.352898 0.705419
51.2044 152.994 160.47 -0.614693 0.352898 0.705419
51.4156 152.086 161.109 -0.852088 0.153563 0.500365
51.6529 153.026 161.224 -0.852088 0.153563 0.500365
51.2044 152.994 160.47 -0.852088 0.153563 0.500365
54.7968 152.995 161.02 0.770459 0.0458085 0.635841
54.5393 152.17 161.391 0.770459 0.0458085 0.635841
54.7892 152.106 161.093 0.770459 0.0458085 0.635841
54.3983 153.066 161.412 0.707255 0.0946455 0.700594
54.5393 152.17 161.391 0.707255 0.0946455 0.700594
54.7968 152.995 161.02 0.707255 0.0946455 0.700594
54.8003 152.113 160.564 0.961291 -0.123359 0.246379
54.9467 153.096 160.485 0.961291 -0.123359 0.246379
54.7968 152.995 161.02 0.961291 -0.123359 0.246379
54.7892 152.106 161.093 0.999759 -0.00675885 0.020895
54.8003 152.113 160.564 0.999759 -0.00675885 0.020895
54.7968 152.995 161.02 0.999759 -0.00675885 0.020895
51.8661 153.47 161.238 -0.691502 0.525854 0.495281
52.0662 154.115 160.833 -0.691502 0.525854 0.495281
51.6691 153.826 160.585 -0.691502 0.525854 0.495281
51.8661 153.47 161.238 -0.81067 0.375469 0.449263
51.6691 153.826 160.585 -0.81067 0.375469 0.449263
51.6529 153.026 161.224 -0.81067 0.375469 0.449263
51.6529 153.026 161.224 -0.800588 0.383908 0.46008
51.6691 153.826 160.585 -0.800588 0.383908 0.46008
51.2044 152.994 160.47 -0.800588 0.383908 0.46008
52.0662 154.115 160.833 -0.305552 0.670137 0.676428
52.6358 153.834 161.369 -0.305552 0.670137 0.676428
52.9398 154.256 161.088 -0.305552 0.670137 0.676428
51.8661 153.47 161.238 -0.393078 0.573554 0.718697
52.6358 153.834 161.369 -0.393078 0.573554 0.718697
52.0662 154.115 160.833 -0.393078 0.573554 0.718697
52.6358 153.834 161.369 0.0804182 0.511533 0.855492
53.9009 153.854 161.237 0.0804182 0.511533 0.855492
52.9398 154.256 161.088 0.0804182 0.511533 0.855492
54.3983 153.066 161.412 0.641752 0.528138 0.556079
54.7968 152.995 161.02 0.641752 0.528138 0.556079
53.9009 153.854 161.237 0.641752 0.528138 0.556079
54.7968 152.995 161.02 0.516481 0.339143 0.786276
54.7885 153.772 160.69 0.516481 0.339143 0.786276
53.9009 153.854 161.237 0.516481 0.339143 0.786276
54.9467 153.096 160.485 0.957663 0.261097 -0.121281
54.7155 153.956 160.51 0.957663 0.261097 -0.121281
54.7885 153.772 160.69 0.957663 0.261097 -0.121281
54.7968 152.995 161.02 0.947342 0.133537 0.291053
54.9467 153.096 160.485 0.947342 0.133537 0.291053
54.7885 153.772 160.69 0.947342 0.133537 0.291053
51.6691 153.826 160.585 -0.64027 0.753911 0.147215
52.0662 154.115 160.833 -0.64027 0.753911 0.147215
52.0156 154.188 160.237 -0.64027 0.753911 0.147215
52.7366 154.593 160.451 -0.517296 0.842958 0.147738
52.0156 154.188 160.237 -0.517296 0.842958 0.147738
52.0662 154.115 160.833 -0.517296 0.842958 0.147738
52.9398 154.256 161.088 -0.281498 0.807783 0.517925
52.7366 154.593 160.451 -0.281498 0.807783 0.517925
52.0662 154.115 160.833 -0.281498 0.807783 0.517925
53.7858 154.508 160.469 0.0646529 0.890147 0.451063
52.7366 154.593 160.451 0.0646529 0.890147 0.451063
52.9398 154.256 161.088 0.0646529 0.890147 0.451063
53.9009 153.854 161.237 0.221715 0.75893 0.612264
53.7858 154.508 160.469 0.221715 0.75893 0.612264
52.9398 154.256 161.088 0.221715 0.75893 0.612264
54.7155 153.956 160.51 0.406001 0.725254 0.55603
53.7858 154.508 160.469 0.406001 0.725254 0.55603
53.9009 153.854 161.237 0.406001 0.725254 0.55603
54.7885 153.772 160.69 0.414097 0.714741 0.563621
54.7155 153.956 160.51 0.414097 0.714741 0.563621
53.9009 153.854 161.237 0.414097 0.714741 0.563621
51.996 150.03 161.335 -0.635921 -0.421686 0.646363
52.0 150.315 161.525 -0.635921 -0.421686 0.646363
51.6738 150.261 161.169 -0.635921 -0.421686 0.646363
51.996 150.03 161.335 0.075136 -0.866587 0.493337
52.6513 150.0 161.183 0.075136 -0.866587 0.493337
52.7127 150.249 161.61 0.075136 -0.866587 0.493337
52.0 150.315 161.525 -0.149258 -0.546846 0.823821
51.996 150.03 161.335 -0.149258 -0.546846 0.823821
52.7127 150.249 161.61 -0.149258 -0.546846 0.823821
52.6513 150.0 161.183 0.297658 -0.843164 0.447744
53.0853 150.254 161.373 0.297658 -0.843164 0.447744
52.7127 150.249 161.61 0.297658 -0.843164 0.447744
51.6738 150.261 161.169 -0.729282 -0.0766117 0.679911
52.0 150.315 161.525 -0.729282 -0.0766117 0.679911
51.8463 151.188 161.459 -0.729282 -0.0766117 0.679911
52.7127 150.249 161.61 -0.139316 -0.27827 0.950346
52.7904 151.065 161.861 -0.139316 -0.27827 0.950346
52.0 150.315 161.525 -0.139316 -0.27827 0.950346
52.7904 151.065 161.861 -0.391768 0.00114874 0.920063
51.8463 151.188 161.459 -0.391768 0.00114874 0.920063
52.0 150.315 161.525 -0.391768 0.00114874 0.920063
53.0853 150.254 161.373 0.621994 -0.64884 0.438326
53.7404 150.772 161.21 0.621994 -0.64884 0.438326
53.5597 150.945 161.722 0.621994 -0.64884 0.438326
53.0853 150.254 161.373 0.426153 -0.623748 0.655234
53.5597 150.945 161.722 0.426153 -0.623748 0.655234
52.7127 150.249 161.61 0.426153 -0.623748 0.655234
52.7127 150.249 161.61 0.123327 -0.301732 0.945383
53.5597 150.945 161.722 0.123327 -0.301732 0.945383
52.7904 151.065 161.861 0.123327 -0.301732 0.945383
53.7404 150.772 161.21 0.691655 -0.574417 0.437788
54.0201 151.277 161.43 0.691655 -0.574417 0.437788
53.5597 150.945 161.722 0.691655 -0.574417 0.437788
51.8463 151.188 161.459 -0.626633 0.00320462 0.779308
51.9355 152.303 161.526 -0.626633 0.00320462 0.779308
51.4156 152.086 161.109 -0.626633 0.00320462 0.779308
52.7904 151.065 161.861 -0.391974 -0.000731109 0.919976
52.8102 152.075 161.87 -0.391974 -0.000731109 0.919976
51.8463 151.188 161.459 -0.391974 -0.000731109 0.919976
52.8102 152.075 161.87 -0.37202 -0.0260654 0.927859
51.9355 152.303 161.526 -0.37202 -0.0260654 0.927859
51.8463 151.188 161.459 -0.37202 -0.0260654 0.927859
53.5597 150.945 161.722 0.151998 -0.154747 0.976191
53.7351 151.863 161.84 0.151998 -0.154747 0.976191
52.7904 151.065 161.861 0.151998 -0.154747 0.976191
53.7351 151.863 161.84 0.0301235 -0.00971748 0.999499
52.8102 152.075 161.87 0.0301235 -0.00971748 0.999499
52.7904 151.065 161.861 0.0301235 -0.00971748 0.999499
54.0201 151.277 161.43 0.547843 -0.283917 0.78693
54.5393 152.17 161.391 0.547843 -0.283917 0.78693
53.7351 151.863 161.84 0.547843 -0.283917 0.78693
53.5597 150.945 161.722 0.629012 -0.216306 0.746697
54.0201 151.277 161.43 0.629012 -0.216306 0.746697
53.7351 151.863 161.84 0.629012 -0.216306 0.746697
51.9355 152.303 161.526 -0.599701 0.0968789 0.794338
51.9921 153.136 161.467 -0.599701 0.0968789 0.794338
51.6529 153.026 161.224 -0.599701 0.0968789 0.794338
51.4156 152.086 161.109 -0.641477 0.0679449 0.764127
51.9355 152.303 161.526 -0.641477 0.0679449 0.764127
51.6529 153.026 161.224 -0.641477 0.0679449 0.764127
52.8102 152.075 161.87 -0.324968 0.16029 0.932042
52.8195 153.079 161.701 -0.324968 0.16029 0.932042
51.9355 152.303 161.526 -0.324968 0.16029 0.932042
52.8195 153.079 161.701 -0.265264 0.0858427 0.960347
51.9921 153.136 161.467 -0.265264 0.0858427 0.960347
51.9355 152.303 161.526 -0.265264 0.0858427 0.960347
53.7351 151.863 161.84 0.0580496 0.113225 0.991872
53.8014 152.87 161.721 0.0580496 0.113225 0.991872
52.8102 152.075 161.87 0.0580496 0.113225 0.991872
53.8014 152.87 161.721 0.0146462 0.166241 0.985976
52.8195 153.079 161.701 0.0146462 0.166241 0.985976
52.8102 152.075 161.87 0.0146462 0.166241 0.985976
54.5393 152.17 161.391 0.446497 0.0490615 0.893439
54.3983 153.066 161.412 0.446497 0.0490615 0.893439
53.8014 152.87 161.721 0.446497 0.0490615 0.893439
53.7351 151.863 161.84 0.464766 0.0735378 0.882374
54.5393 152.17 161.391 0.464766 0.0735378 0.882374
53.8014 152.87 161.721 0.464766 0.0735378 0.882374
51.6529 153.026 161.224 -0.61662 0.273695 0.738154
51.9921 153.136 161.467 -0.61662 0.273695 0.738154
51.8661 153.47 161.238 -0.61662 0.273695 0.738154
52.6358 153.834 161.369 -0.347683 0.437417 0.829327
51.8661 153.47 161.238 -0.347683 0.437417 0.829327
51.9921 153.136 161.467 -0.347683 0.437417 0.829327
52.8195 153.079 161.701 -0.233271 0.343238 0.90982
52.6358 153.834 161.369 -0.233271 0.343238 0.90982
51.9921 153.136 161.467 -0.233271 0.343238 0.90982
53.9009 153.854 161.237 0.0869824 0.418595 0.903998
52.6358 153.834 161.369 0.0869824 0.418595 0.903998
52.8195 153.079 161.701 0.0869824 0.418595 0.903998
53.8014 152.87 161.721 0.0734691 0.433844 0.897987
53.9009 153.854 161.237 0.0734691 0.433844 0.897987
52.8195 153.079 161.701 0.0734691 0.433844 0.897987
54.3983 153.066 161.412 0.318013 0.392043 0.863232
53.9009 153.854 161.237 0.318013 0.392043 0.863232
53.8014 152.87 161.721 0.318013 0.392043 0.863232
3 0 1 2
3 3 4 5
3 6 7 8
3 9 10 11
3 12 13 14
3 15 16 17
3 18 19 20
3 21 22 23
3 24 25 26
3 27 28 29
3 30 31 32
3 33 34 35
3 36 37 38
3 39 40 41
3 42 43 44
3 45 46 47
3 48 49 50
3 51 52 53
3 54 55 56
3 57 58 59
3 60 61 62
3 63 64 65
3 66 67 68
3 69 70 71
3 72 73 74
3 75 76 77
3 78 79 80
3 81 82 83
3 84 85 86
3 87 88 89
3 90 91 92
3 93 94 95
3 96 97 98
3 99 100 101
3 102 103 104
3 105 106 107
3 108 109 110
3 111 112 113
3 114 115 116
3 117 118 119
3 120 121 122
3 123 124 125
3 126 127 128
3 129 130 131
3 132 133 134
3 135 136 137
3 138 139 140
3 141 142 143
3 144 145 146
3 147 148 149
3 150 151 152
3 153 154 155
3 156 157 158
3 159 160 161
3 162 163 164
3 165 166 167
3 168 169 170
3 171 172 173
3 174 175 176
3 177 178 179
3 180 181 182
3 183 184 185
3 186 187 188
3 189 190 191
3 192 193 194
3 195 196 197
3 198 199 200
3 201 202 203
3 204 205 206
3 207 208 209
3 210 211 212
3 213 214 215
3 216 217 218
3 219 220 221
3 222 223 224
3 225 226 227
3 228 229 230
3 231 232 233
3 234 235 236
3 237 238 239
3 240 241 242
3 243 244 245
3 246 247 248
3 249 250 251
3 252 253 254
3 255 256 257
3 258 259 260
3 261 262 263
3 264 265 266
3 267 268 269
3 270 271 272
3 273 274 275
3 276 277 278
3 279 280 281
3 282 283 284
3 285 286 287
3 288 289 290
3 291 292 293
3 294 295 296
3 297 298 299
3 300 301 302
3 303 304 305
3 306 307 308
3 309 310 311
3 312 313 314
3 315 316 317
3 318 319 320
3 321 322 323
3 324 325 326
3 327 328 329
3 330 331 332
3 333 334 335
3 336 337 338
3 339 340 341
3 342 343 344
3 345 346 347
3 348 349 350
3 351 352 353
3 354 355 356
3 357 358 359
3 360 361 362
3 363 364 365
3 366 367 368
3 369 370 371
3 372 373 374
3 375 376 377
3 378 379 380
3 381 382 383
3 384 385 386
3 387 388 389
3 390 391 392
3 393 394 395
3 396 397 398
3 399 400 401
3 402 403 404
3 405 406 407
3 408 409 410
3 411 412 413
3 414 415 416
3 417 418 419
