ply
format ascii 1.0
element vertex 204
property float x
property float y
property float z
property float nx
property float ny
property float nz
element face 68
property list uint uint vertex_indices
end_header
53.1352 166.789 160.381 -0.290678 -0.45841 -0.839861
52.9548 166.261 160.732 -0.290678 -0.45841 -0.839861
52.4866 166.871 160.561 -0.290678 -0.45841 -0.839861
53.1352 166.789 160.381 -0.0146652 -0.411724 -0.91119
54.0507 166.836 160.345 -0.0146652 -0.411724 -0.91119
53.921 166.239 160.617 -0.0146652 -0.411724 -0.91119
52.9548 166.261 160.732 -0.112316 -0.522784 -0.845034
53.1352 166.789 160.381 -0.112316 -0.522784 -0.845034
53.921 166.239 160.617 -0.112316 -0.522784 -0.845034
53.921 166.239 160.617 0.123419 -0.433321 -0.892749
54.0507 166.836 160.345 0.123419 -0.433321 -0.892749
54.8654 166.671 160.538 0.123419 -0.433321 -0.892749
52.9955 167.655 160.388 -0.271077 -0.0358532 -0.96189
53.1352 166.789 160.381 -0.271077 -0.0358532 -0.96189
52.4866 166.871 160.561 -0.271077 -0.0358532 -0.96189
52.6202 167.625 160.718 -0.648922 0.264053 -0.713566
52.9955 167.655 160.388 -0.648922 0.264053 -0.713566
52.4866 166.871 160.561 -0.648922 0.264053 -0.713566
54.0507 166.836 160.345 -0.0367704 -0.0461457 -0.998258
53.1352 166.789 160.381 -0.0367704 -0.0461457 -0.998258
53.9533 167.666 160.311 -0.0367704 -0.0461457 -0.998258
53.9533 167.666 160.311 -0.0808515 -0.00490377 -0.996714
53.1352 166.789 160.381 -0.0808515 -0.00490377 -0.996714
52.9955 167.655 160.388 -0.0808515 -0.00490377 -0.996714
54.8654 166.671 160.538 0.191429 -0.180799 -0.964711
54.0507 166.836 160.345 0.191429 -0.180799 -0.964711
54.842 167.524 160.373 0.191429 -0.180799 -0.964711
54.842 167.524 160.373 0.0650656 -0.0341517 -0.997296
54.0507 166.836 160.345 0.0650656 -0.0341517 -0.997296
53.9533 167.666 160.311 0.0650656 -0.0341517 -0.997296
55.4851 167.479 160.648 0.462359 -0.238191 -0.854101
55.2873 166.776 160.737 0.462359 -0.238191 -0.854101
54.8654 166.671 160.538 0.462359 -0.238191 -0.854101
54.842 167.524 160.373 0.37763 -0.165345 -0.911074
55.4851 167.479 160.648 0.37763 -0.165345 -0.911074
54.8654 166.671 160.538 0.37763 -0.165345 -0.911074
52.9955 167.655 160.388 -0.654198 0.220094 -0.723591
52.6202 167.625 160.718 -0.654198 0.220094 -0.723591
52.997 168.254 160.569 -0.654198 0.220094 -0.723591
52.997 168.254 160.569 -0.27944 0.685178 -0.672639
53.3959 168.606 160.762 -0.27944 0.685178 -0.672639
53.8017 168.446 160.43 -0.27944 0.685178 -0.672639
52.997 168.254 160.569 -0.227875 0.281939 -0.931978
53.8017 168.446 160.43 -0.227875 0.281939 -0.931978
52.9955 167.655 160.388 -0.227875 0.281939 -0.931978
52.9955 167.655 160.388 -0.0816996 0.135819 -0.987359
53.8017 168.446 160.43 -0.0816996 0.135819 -0.987359
53.9533 167.666 160.311 -0.0816996 0.135819 -0.987359
54.842 167.524 160.373 0.102762 0.212701 -0.971699
53.9533 167.666 160.311 0.102762 0.212701 -0.971699
55.0629 168.38 160.584 0.102762 0.212701 -0.971699
55.0629 168.38 160.584 0.128189 0.174916 -0.976203
53.9533 167.666 160.311 0.128189 0.174916 -0.976203
53.8017 168.446 160.43 0.128189 0.174916 -0.976203
55.0629 168.38 160.584 0.397282 0.12144 -0.909626
55.4851 167.479 160.648 0.397282 0.12144 -0.909626
54.842 167.524 160.373 0.397282 0.12144 -0.909626
53.8017 168.446 160.43 -0.117355 0.830388 -0.544687
53.3959 168.606 160.762 -0.117355 0.830388 -0.544687
54.183 168.688 160.718 -0.117355 0.830388 -0.544687
55.0629 168.38 160.584 0.124007 0.671237 -0.730796
53.8017 168.446 160.43 0.124007 0.671237 -0.730796
54.183 168.688 160.718 0.124007 0.671237 -0.730796
54.9295 168.687 160.782 0.0715759 0.561811 -0.824163
55.0629 168.38 160.584 0.0715759 0.561811 -0.824163
54.183 168.688 160.718 0.0715759 0.561811 -0.824163
52.9548 166.261 160.732 -0.614546 -0.778672 0.126506
53.021 166.32 161.415 -0.614546 -0.778672 0.126506
52.3732 166.798 161.209 -0.614546 -0.778672 0.126506
52.4866 166.871 160.561 -0.748639 -0.631375 -0.20225
52.9548 166.261 160.732 -0.748639 -0.631375 -0.20225
52.3732 166.798 161.209 -0.748639 -0.631375 -0.20225
53.921 166.239 160.617 -0.027081 -0.999108 -0.0323957
53.894 166.217 161.318 -0.027081 -0.999108 -0.0323957
52.9548 166.261 160.732 -0.027081 -0.999108 -0.0323957
52.9548 166.261 160.732 -0.106478 -0.989725 0.0954272
53.894 166.217 161.318 -0.106478 -0.989725 0.0954272
53.021 166.32 161.415 -0.106478 -0.989725 0.0954272
54.8654 166.671 160.538 0.379495 -0.880518 -0.284028
54.8123 166.443 161.175 0.379495 -0.880518 -0.284028
53.921 166.239 160.617 0.379495 -0.880518 -0.284028
53.921 166.239 160.617 0.236074 -0.9715 -0.021393
54.8123 166.443 161.175 0.236074 -0.9715 -0.021393
53.894 166.217 161.318 0.236074 -0.9715 -0.021393
54.8123 166.443 161.175 0.35722 -0.888292 -0.288672
54.8654 166.671 160.538 0.35722 -0.888292 -0.288672
55.2873 166.776 160.737 0.35722 -0.888292 -0.288672
55.2532 166.957 161.312 0.700368 -0.66806 0.251357
54.8123 166.443 161.175 0.700368 -0.66806 0.251357
55.2873 166.776 160.737 0.700368 -0.66806 0.251357
52.4866 166.871 160.561 -0.968333 0.202233 -0.146397
52.3732 166.798 161.209 -0.968333 0.202233 -0.146397
52.6202 167.625 160.718 -0.968333 0.202233 -0.146397
52.3732 166.798 161.209 -0.963871 0.162534 -0.211037
52.4635 167.563 161.387 -0.963871 0.162534 -0.211037
52.6202 167.625 160.718 -0.963871 0.162534 -0.211037
55.2873 166.776 160.737 0.957944 -0.252594 0.136164
55.4851 167.479 160.648 0.957944 -0.252594 0.136164
55.2532 166.957 161.312 0.957944 -0.252594 0.136164
55.2532 166.957 161.312 0.963799 -0.188705 0.188368
55.4851 167.479 160.648 0.963799 -0.188705 0.188368
55.4338 167.859 161.292 0.963799 -0.188705 0.188368
52.6202 167.625 160.718 -0.869285 0.467467 -0.16068
52.4635 167.563 161.387 -0.869285 0.467467 -0.16068
52.8621 168.242 161.205 -0.869285 0.467467 -0.16068
52.997 168.254 160.569 -0.86235 0.475403 -0.174197
52.6202 167.625 160.718 -0.86235 0.475403 -0.174197
52.8621 168.242 161.205 -0.86235 0.475403 -0.174197
52.8621 168.242 161.205 -0.624707 0.771858 -0.11822
53.3959 168.606 160.762 -0.624707 0.771858 -0.11822
52.997 168.254 160.569 -0.624707 0.771858 -0.11822
53.2321 168.497 161.367 -0.566647 0.823944 -0.00525962
53.3959 168.606 160.762 -0.566647 0.823944 -0.00525962
52.8621 168.242 161.205 -0.566647 0.823944 -0.00525962
55.4851 167.479 160.648 0.897107 0.407948 -0.169643
55.0629 168.38 160.584 0.897107 0.407948 -0.169643
55.4338 167.859 161.292 0.897107 0.407948 -0.169643
55.4338 167.859 161.292 0.918057 0.162135 -0.361777
55.0629 168.38 160.584 0.918057 0.162135 -0.361777
55.2717 168.535 161.183 0.918057 0.162135 -0.361777
53.3959 168.606 160.762 -0.0312866 0.98515 0.16882
53.2321 168.497 161.367 -0.0312866 0.98515 0.16882
53.793 168.495 161.483 -0.0312866 0.98515 0.16882
54.183 168.688 160.718 -0.0902135 0.975666 0.199843
53.3959 168.606 160.762 -0.0902135 0.975666 0.199843
53.793 168.495 161.483 -0.0902135 0.975666 0.199843
54.9295 168.687 160.782 -0.0270432 0.942589 0.332858
54.183 168.688 160.718 -0.0270432 0.942589 0.332858
54.7844 168.439 161.473 -0.0270432 0.942589 0.332858
54.183 168.688 160.718 0.0576506 0.960726 0.271443
53.793 168.495 161.483 0.0576506 0.960726 0.271443
54.7844 168.439 161.473 0.0576506 0.960726 0.271443
55.2717 168.535 161.183 0.719822 0.569036 -0.397562
55.0629 168.38 160.584 0.719822 0.569036 -0.397562
54.9295 168.687 160.782 0.719822 0.569036 -0.397562
54.7844 168.439 161.473 0.0175972 0.939815 0.341229
55.2717 168.535 161.183 0.0175972 0.939815 0.341229
54.9295 168.687 160.782 0.0175972 0.939815 0.341229
53.021 166.32 161.415 -0.537697 -0.411976 0.735635
52.9455 166.962 161.719 -0.537697 -0.411976 0.735635
52.3732 166.798 161.209 -0.537697 -0.411976 0.735635
53.021 166.32 161.415 0.00787008 -0.647885 0.761698
53.894 166.217 161.318 0.00787008 -0.647885 0.761698
53.8935 166.785 161.802 0.00787008 -0.647885 0.761698
52.9455 166.962 161.719 -0.158429 -0.438068 0.884871
53.021 166.32 161.415 -0.158429 -0.438068 0.884871
53.8935 166.785 161.802 -0.158429 -0.438068 0.884871
53.894 166.217 161.318 0.280147 -0.797022 0.535045
54.8123 166.443 161.175 0.280147 -0.797022 0.535045
54.7313 166.709 161.613 0.280147 -0.797022 0.535045
53.8935 166.785 161.802 0.111929 -0.643784 0.756977
53.894 166.217 161.318 0.111929 -0.643784 0.756977
54.7313 166.709 161.613 0.111929 -0.643784 0.756977
54.8123 166.443 161.175 0.589162 -0.638104 0.495692
55.2532 166.957 161.312 0.589162 -0.638104 0.495692
54.7313 166.709 161.613 0.589162 -0.638104 0.495692
52.9455 166.962 161.719 -0.489116 0.0880697 0.867761
53.0293 167.859 161.676 -0.489116 0.0880697 0.867761
52.4635 167.563 161.387 -0.489116 0.0880697 0.867761
52.3732 166.798 161.209 -0.646147 -0.0991688 0.756743
52.9455 166.962 161.719 -0.646147 -0.0991688 0.756743
52.4635 167.563 161.387 -0.646147 -0.0991688 0.756743
53.8935 166.785 161.802 -0.10317 -0.0931475 0.990293
53.8909 167.696 161.887 -0.10317 -0.0931475 0.990293
52.9455 166.962 161.719 -0.10317 -0.0931475 0.990293
53.8909 167.696 161.887 -0.225352 0.0685021 0.971866
53.0293 167.859 161.676 -0.225352 0.0685021 0.971866
52.9455 166.962 161.719 -0.225352 0.0685021 0.971866
54.7313 166.709 161.613 0.194218 -0.225466 0.954696
54.8278 167.509 161.782 0.194218 -0.225466 0.954696
53.8935 166.785 161.802 0.194218 -0.225466 0.954696
54.8278 167.509 161.782 0.0920951 -0.0926943 0.991426
53.8909 167.696 161.887 0.0920951 -0.0926943 0.991426
53.8935 166.785 161.802 0.0920951 -0.0926943 0.991426
55.2532 166.957 161.312 0.664777 -0.116229 0.737945
55.4338 167.859 161.292 0.664777 -0.116229 0.737945
54.8278 167.509 161.782 0.664777 -0.116229 0.737945
54.7313 166.709 161.613 0.567027 -0.235421 0.78934
55.2532 166.957 161.312 0.567027 -0.235421 0.78934
54.8278 167.509 161.782 0.567027 -0.235421 0.78934
52.4635 167.563 161.387 -0.587717 0.513057 0.625588
53.0293 167.859 161.676 -0.587717 0.513057 0.625588
52.8621 168.242 161.205 -0.587717 0.513057 0.625588
53.2321 168.497 161.367 -0.6116 0.493629 0.618284
52.8621 168.242 161.205 -0.6116 0.493629 0.618284
53.0293 167.859 161.676 -0.6116 0.493629 0.618284
53.2321 168.497 161.367 -0.176641 0.473759 0.862757
53.0293 167.859 161.676 -0.176641 0.473759 0.862757
53.793 168.495 161.483 -0.176641 0.473759 0.862757
53.793 168.495 161.483 -0.136093 0.433584 0.890777
53.0293 167.859 161.676 -0.136093 0.433584 0.890777
53.8909 167.696 161.887 -0.136093 0.433584 0.890777
54.8278 167.509 161.782 0.167514 0.318087 0.933145
54.7844 168.439 161.473 0.167514 0.318087 0.933145
53.8909 167.696 161.887 0.167514 0.318087 0.933145
54.7844 168.439 161.473 0.0344665 0.454187 0.89024
53.793 168.495 161.483 0.0344665 0.454187 0.89024
53.8909 167.696 161.887 0.0344665 0.454187 0.89024
55.4338 167.859 161.292 0.459207 0.247196 0.853243
55.2717 168.535 161.183 0.459207 0.247196 0.853243
54.7844 168.439 161.473 0.459207 0.247196 0.853243
54.8278 167.509 161.782 0.492416 0.295203 0.818768
55.4338 167.859 161.292 0.492416 0.295203 0.818768
54.7844 168.439 161.473 0.492416 0.295203 0.818768
3 0 1 2
3 3 4 5
3 6 7 8
3 9 10 11
3 12 13 14
3 15 16 17
3 18 19 20
3 21 22 23
3 24 25 26
3 27 28 29
3 30 31 32
3 33 34 35
3 36 37 38
3 39 40 41
3 42 43 44
3 45 46 47
3 48 49 50
3 51 52 53
3 54 55 56
3 57 58 59
3 60 61 62
3 63 64 65
3 66 67 68
3 69 70 71
3 72 73 74
3 75 76 77
3 78 79 80
3 81 82 83
3 84 85 86
3 87 88 89
3 90 91 92
3 93 94 95
3 96 97 98
3 99 100 101
3 102 103 104
3 105 106 107
3 108 109 110
3 111 112 113
3 114 115 116
3 117 118 119
3 120 121 122
3 123 124 125
3 126 127 128
3 129 130 131
3 132 133 134
3 135 136 137
3 138 139 140
3 141 142 143
3 144 145 146
3 147 148 149
3 150 151 152
3 153 154 155
3 156 157 158
3 159 160 161
3 162 163 164
3 165 166 167
3 168 169 170
3 171 172 173
3 174 175 176
3 177 178 179
3 180 181 182
3 183 184 185
3 186 187 188
3 189 190 191
3 192 193 194
3 195 196 197
3 198 199 200
3 201 202 203
