solid ascii
 facet normal -0.149284 -0.181334 -0.972025
  outer loop
   vertex 52.8447 152.3 159.328
   vertex 52.6283 151.777 159.459
   vertex 52.2487 152.359 159.409
  endloop
 endfacet
 facet normal 0.310321 -0.349624 -0.884004
  outer loop
   vertex 52.6283 151.777 159.459
   vertex 52.8447 152.3 159.328
   vertex 53.0613 152.058 159.5
  endloop
 endfacet
 facet normal -0.150027 -0.19174 -0.969911
  outer loop
   vertex 52.7369 153.008 159.205
   vertex 52.8447 152.3 159.328
   vertex 52.2487 152.359 159.409
  endloop
 endfacet
 facet normal -0.351473 -0.0295403 -0.935732
  outer loop
   vertex 52.0786 153.272 159.444
   vertex 52.7369 153.008 159.205
   vertex 52.2487 152.359 159.409
  endloop
 endfacet
 facet normal 0.412452 -0.251983 -0.875436
  outer loop
   vertex 53.5519 153.053 159.444
   vertex 53.0613 152.058 159.5
   vertex 52.8447 152.3 159.328
  endloop
 endfacet
 facet normal 0.286245 -0.121976 -0.950361
  outer loop
   vertex 53.5519 153.053 159.444
   vertex 52.8447 152.3 159.328
   vertex 52.7369 153.008 159.205
  endloop
 endfacet
 facet normal -0.259577 0.20622 -0.943447
  outer loop
   vertex 52.7469 153.755 159.365
   vertex 52.7369 153.008 159.205
   vertex 52.0786 153.272 159.444
  endloop
 endfacet
 facet normal -0.284688 0.243671 -0.927134
  outer loop
   vertex 52.2393 153.991 159.583
   vertex 52.7469 153.755 159.365
   vertex 52.0786 153.272 159.444
  endloop
 endfacet
 facet normal 0.183891 0.320639 -0.92918
  outer loop
   vertex 53.0036 154.102 159.698
   vertex 53.8553 153.497 159.657
   vertex 53.5519 153.053 159.444
  endloop
 endfacet
 facet normal 0.446817 0.423972 -0.787783
  outer loop
   vertex 53.0036 154.102 159.698
   vertex 53.5519 153.053 159.444
   vertex 52.7469 153.755 159.365
  endloop
 endfacet
 facet normal 0.266239 0.199147 -0.94311
  outer loop
   vertex 52.7469 153.755 159.365
   vertex 53.5519 153.053 159.444
   vertex 52.7369 153.008 159.205
  endloop
 endfacet
 facet normal 0.00872528 0.688134 -0.725531
  outer loop
   vertex 52.7469 153.755 159.365
   vertex 52.2393 153.991 159.583
   vertex 53.0036 154.102 159.698
  endloop
 endfacet
 facet normal -0.427851 -0.700003 -0.571786
  outer loop
   vertex 52.0489 150.242 160.249
   vertex 51.9407 149.947 160.691
   vertex 51.6412 150.296 160.488
  endloop
 endfacet
 facet normal 0.0494186 -0.630389 -0.774705
  outer loop
   vertex 52.0489 150.242 160.249
   vertex 52.9547 150.296 160.263
   vertex 52.6233 149.945 160.527
  endloop
 endfacet
 facet normal -0.139722 -0.807574 -0.572977
  outer loop
   vertex 51.9407 149.947 160.691
   vertex 52.0489 150.242 160.249
   vertex 52.6233 149.945 160.527
  endloop
 endfacet
 facet normal 0.425146 -0.765559 -0.482877
  outer loop
   vertex 52.6233 149.945 160.527
   vertex 52.9547 150.296 160.263
   vertex 53.1876 150.15 160.7
  endloop
 endfacet
 facet normal -0.501772 -0.404802 -0.764434
  outer loop
   vertex 51.6828 151.073 160.05
   vertex 52.0489 150.242 160.249
   vertex 51.6412 150.296 160.488
  endloop
 endfacet
 facet normal -0.732492 -0.304598 -0.608831
  outer loop
   vertex 51.1758 151.148 160.622
   vertex 51.6828 151.073 160.05
   vertex 51.6412 150.296 160.488
  endloop
 endfacet
 facet normal 0.040328 -0.448044 -0.893102
  outer loop
   vertex 52.9547 150.296 160.263
   vertex 52.0489 150.242 160.249
   vertex 52.7515 151.201 159.8
  endloop
 endfacet
 facet normal -0.181939 -0.304804 -0.934876
  outer loop
   vertex 52.7515 151.201 159.8
   vertex 52.0489 150.242 160.249
   vertex 51.6828 151.073 160.05
  endloop
 endfacet
 facet normal 0.407852 -0.778036 -0.477825
  outer loop
   vertex 53.7093 150.524 160.537
   vertex 53.1876 150.15 160.7
   vertex 52.9547 150.296 160.263
  endloop
 endfacet
 facet normal 0.41835 -0.41734 -0.806728
  outer loop
   vertex 53.7093 150.524 160.537
   vertex 52.9547 150.296 160.263
   vertex 53.8929 151.224 160.27
  endloop
 endfacet
 facet normal 0.361315 -0.359263 -0.860454
  outer loop
   vertex 53.8929 151.224 160.27
   vertex 52.9547 150.296 160.263
   vertex 52.7515 151.201 159.8
  endloop
 endfacet
 facet normal 0.79312 -0.387259 -0.470097
  outer loop
   vertex 53.7093 150.524 160.537
   vertex 53.8929 151.224 160.27
   vertex 54.2057 151.279 160.752
  endloop
 endfacet
 facet normal -0.821348 -0.195579 -0.53585
  outer loop
   vertex 51.024 151.95 160.224
   vertex 50.8419 151.892 160.524
   vertex 50.8636 152.333 160.33
  endloop
 endfacet
 facet normal -0.745132 -0.404354 -0.530355
  outer loop
   vertex 51.1758 151.148 160.622
   vertex 50.8419 151.892 160.524
   vertex 51.024 151.95 160.224
  endloop
 endfacet
 facet normal -0.706709 -0.417401 -0.571261
  outer loop
   vertex 51.1758 151.148 160.622
   vertex 51.024 151.95 160.224
   vertex 51.6828 151.073 160.05
  endloop
 endfacet
 facet normal -0.517818 -0.225168 -0.825327
  outer loop
   vertex 51.6828 151.073 160.05
   vertex 51.024 151.95 160.224
   vertex 51.8705 151.933 159.697
  endloop
 endfacet
 facet normal -0.341832 -0.299993 -0.890592
  outer loop
   vertex 52.6283 151.777 159.459
   vertex 51.8705 151.933 159.697
   vertex 52.2487 152.359 159.409
  endloop
 endfacet
 facet normal -0.351755 -0.531479 -0.770583
  outer loop
   vertex 52.6283 151.777 159.459
   vertex 52.7515 151.201 159.8
   vertex 51.8705 151.933 159.697
  endloop
 endfacet
 facet normal -0.175099 -0.34035 -0.923852
  outer loop
   vertex 52.7515 151.201 159.8
   vertex 51.6828 151.073 160.05
   vertex 51.8705 151.933 159.697
  endloop
 endfacet
 facet normal 0.351558 -0.420092 -0.836618
  outer loop
   vertex 53.0613 152.058 159.5
   vertex 52.7515 151.201 159.8
   vertex 52.6283 151.777 159.459
  endloop
 endfacet
 facet normal 0.491936 -0.440794 -0.750799
  outer loop
   vertex 53.0613 152.058 159.5
   vertex 53.8469 152.114 159.982
   vertex 52.7515 151.201 159.8
  endloop
 endfacet
 facet normal 0.371228 -0.268439 -0.888893
  outer loop
   vertex 53.8469 152.114 159.982
   vertex 53.8929 151.224 160.27
   vertex 52.7515 151.201 159.8
  endloop
 endfacet
 facet normal 0.705813 -0.591496 -0.389821
  outer loop
   vertex 54.8003 152.113 160.564
   vertex 54.2057 151.279 160.752
   vertex 53.8929 151.224 160.27
  endloop
 endfacet
 facet normal 0.672509 -0.508604 -0.537637
  outer loop
   vertex 54.8003 152.113 160.564
   vertex 53.8929 151.224 160.27
   vertex 54.6805 152.239 160.295
  endloop
 endfacet
 facet normal 0.37363 -0.268029 -0.88801
  outer loop
   vertex 54.6805 152.239 160.295
   vertex 53.8929 151.224 160.27
   vertex 53.8469 152.114 159.982
  endloop
 endfacet
 facet normal -0.734044 0.479983 -0.480412
  outer loop
   vertex 50.8636 152.333 160.33
   vertex 51.2044 152.994 160.47
   vertex 51.5714 152.842 159.757
  endloop
 endfacet
 facet normal -0.61216 -0.0372344 -0.789857
  outer loop
   vertex 50.8636 152.333 160.33
   vertex 51.5714 152.842 159.757
   vertex 51.024 151.95 160.224
  endloop
 endfacet
 facet normal -0.526166 -0.117401 -0.842239
  outer loop
   vertex 51.024 151.95 160.224
   vertex 51.5714 152.842 159.757
   vertex 51.8705 151.933 159.697
  endloop
 endfacet
 facet normal -0.489163 -0.0576839 -0.870283
  outer loop
   vertex 52.2487 152.359 159.409
   vertex 51.5714 152.842 159.757
   vertex 52.0786 153.272 159.444
  endloop
 endfacet
 facet normal -0.517988 -0.114348 -0.84771
  outer loop
   vertex 51.8705 151.933 159.697
   vertex 51.5714 152.842 159.757
   vertex 52.2487 152.359 159.409
  endloop
 endfacet
 facet normal 0.514409 -0.298271 -0.804001
  outer loop
   vertex 53.0613 152.058 159.5
   vertex 53.5519 153.053 159.444
   vertex 53.8469 152.114 159.982
  endloop
 endfacet
 facet normal 0.57656 -0.261617 -0.774038
  outer loop
   vertex 53.5519 153.053 159.444
   vertex 54.5894 153.214 160.163
   vertex 53.8469 152.114 159.982
  endloop
 endfacet
 facet normal 0.362135 -0.0916678 -0.927607
  outer loop
   vertex 54.5894 153.214 160.163
   vertex 54.6805 152.239 160.295
   vertex 53.8469 152.114 159.982
  endloop
 endfacet
 facet normal 0.869364 -0.166679 -0.465214
  outer loop
   vertex 54.9467 153.096 160.485
   vertex 54.8003 152.113 160.564
   vertex 54.6805 152.239 160.295
  endloop
 endfacet
 facet normal 0.66192 -0.0394451 -0.748536
  outer loop
   vertex 54.5894 153.214 160.163
   vertex 54.9467 153.096 160.485
   vertex 54.6805 152.239 160.295
  endloop
 endfacet
 facet normal -0.844237 0.230581 -0.483834
  outer loop
   vertex 51.7278 153.792 159.937
   vertex 51.5714 152.842 159.757
   vertex 51.2044 152.994 160.47
  endloop
 endfacet
 facet normal -0.862056 0.495976 -0.104245
  outer loop
   vertex 51.6691 153.826 160.585
   vertex 51.7278 153.792 159.937
   vertex 51.2044 152.994 160.47
  endloop
 endfacet
 facet normal -0.61758 0.280775 -0.734684
  outer loop
   vertex 52.0786 153.272 159.444
   vertex 51.7278 153.792 159.937
   vertex 52.2393 153.991 159.583
  endloop
 endfacet
 facet normal -0.651037 0.243299 -0.718997
  outer loop
   vertex 51.5714 152.842 159.757
   vertex 51.7278 153.792 159.937
   vertex 52.0786 153.272 159.444
  endloop
 endfacet
 facet normal 0.359396 0.555643 -0.74973
  outer loop
   vertex 53.8553 153.497 159.657
   vertex 53.0036 154.102 159.698
   vertex 53.9803 154.01 160.098
  endloop
 endfacet
 facet normal 0.56859 0.00621448 -0.822597
  outer loop
   vertex 53.8553 153.497 159.657
   vertex 54.5894 153.214 160.163
   vertex 53.5519 153.053 159.444
  endloop
 endfacet
 facet normal 0.618587 0.419349 -0.664452
  outer loop
   vertex 53.8553 153.497 159.657
   vertex 53.9803 154.01 160.098
   vertex 54.5894 153.214 160.163
  endloop
 endfacet
 facet normal 0.344213 0.188281 -0.919819
  outer loop
   vertex 53.9803 154.01 160.098
   vertex 54.5858 154.062 160.335
   vertex 54.5894 153.214 160.163
  endloop
 endfacet
 facet normal 0.691972 0.206126 -0.691872
  outer loop
   vertex 54.7155 153.956 160.51
   vertex 54.9467 153.096 160.485
   vertex 54.5894 153.214 160.163
  endloop
 endfacet
 facet normal 0.829979 0.114385 -0.545941
  outer loop
   vertex 54.5858 154.062 160.335
   vertex 54.7155 153.956 160.51
   vertex 54.5894 153.214 160.163
  endloop
 endfacet
 facet normal -0.766351 0.634137 -0.102841
  outer loop
   vertex 51.7278 153.792 159.937
   vertex 51.6691 153.826 160.585
   vertex 52.0156 154.188 160.237
  endloop
 endfacet
 facet normal -0.562627 0.718046 -0.409709
  outer loop
   vertex 52.2393 153.991 159.583
   vertex 51.7278 153.792 159.937
   vertex 52.0156 154.188 160.237
  endloop
 endfacet
 facet normal -0.0898773 0.944382 -0.316331
  outer loop
   vertex 52.2393 153.991 159.583
   vertex 52.0156 154.188 160.237
   vertex 53.0036 154.102 159.698
  endloop
 endfacet
 facet normal -0.25475 0.766155 -0.590008
  outer loop
   vertex 53.0036 154.102 159.698
   vertex 52.0156 154.188 160.237
   vertex 52.7366 154.593 160.451
  endloop
 endfacet
 facet normal 0.341331 0.643226 -0.685385
  outer loop
   vertex 53.9803 154.01 160.098
   vertex 53.0036 154.102 159.698
   vertex 53.7858 154.508 160.469
  endloop
 endfacet
 facet normal 0.0775147 0.847406 -0.525257
  outer loop
   vertex 53.7858 154.508 160.469
   vertex 53.0036 154.102 159.698
   vertex 52.7366 154.593 160.451
  endloop
 endfacet
 facet normal 0.232617 0.637426 -0.73456
  outer loop
   vertex 54.5858 154.062 160.335
   vertex 53.9803 154.01 160.098
   vertex 53.7858 154.508 160.469
  endloop
 endfacet
 facet normal 0.500232 0.853372 0.14671
  outer loop
   vertex 54.7155 153.956 160.51
   vertex 54.5858 154.062 160.335
   vertex 53.7858 154.508 160.469
  endloop
 endfacet
 facet normal -0.627202 -0.763898 0.151916
  outer loop
   vertex 51.9407 149.947 160.691
   vertex 51.996 150.03 161.335
   vertex 51.6738 150.261 161.169
  endloop
 endfacet
 facet normal -0.7597 -0.650266 0.00326948
  outer loop
   vertex 51.6412 150.296 160.488
   vertex 51.9407 149.947 160.691
   vertex 51.6738 150.261 161.169
  endloop
 endfacet
 facet normal 0.0172852 -0.996466 0.0822015
  outer loop
   vertex 52.6233 149.945 160.527
   vertex 52.6513 150 161.183
   vertex 51.9407 149.947 160.691
  endloop
 endfacet
 facet normal -0.015167 -0.991585 0.128567
  outer loop
   vertex 51.9407 149.947 160.691
   vertex 52.6513 150 161.183
   vertex 51.996 150.03 161.335
  endloop
 endfacet
 facet normal 0.322612 -0.94431 0.0648108
  outer loop
   vertex 52.6513 150 161.183
   vertex 52.6233 149.945 160.527
   vertex 53.1876 150.15 160.7
  endloop
 endfacet
 facet normal 0.427937 -0.881117 0.201253
  outer loop
   vertex 53.0853 150.254 161.373
   vertex 52.6513 150 161.183
   vertex 53.1876 150.15 160.7
  endloop
 endfacet
 facet normal -0.876283 -0.48148 0.0174561
  outer loop
   vertex 51.6412 150.296 160.488
   vertex 51.6738 150.261 161.169
   vertex 51.1758 151.148 160.622
  endloop
 endfacet
 facet normal -0.778156 -0.05067 0.626023
  outer loop
   vertex 51.6738 150.261 161.169
   vertex 51.8463 151.188 161.459
   vertex 51.1758 151.148 160.622
  endloop
 endfacet
 facet normal 0.637806 -0.740617 0.211399
  outer loop
   vertex 53.1876 150.15 160.7
   vertex 53.7404 150.772 161.21
   vertex 53.0853 150.254 161.373
  endloop
 endfacet
 facet normal 0.614086 -0.749348 0.247741
  outer loop
   vertex 53.7093 150.524 160.537
   vertex 53.7404 150.772 161.21
   vertex 53.1876 150.15 160.7
  endloop
 endfacet
 facet normal 0.799398 -0.574786 0.17488
  outer loop
   vertex 53.7404 150.772 161.21
   vertex 53.7093 150.524 160.537
   vertex 54.2057 151.279 160.752
  endloop
 endfacet
 facet normal 0.809741 -0.544345 0.219107
  outer loop
   vertex 54.0201 151.277 161.43
   vertex 53.7404 150.772 161.21
   vertex 54.2057 151.279 160.752
  endloop
 endfacet
 facet normal -0.99665 0.0686298 0.0444822
  outer loop
   vertex 50.8419 151.892 160.524
   vertex 50.867 152.235 160.556
   vertex 50.8636 152.333 160.33
  endloop
 endfacet
 facet normal -0.711309 -0.0139851 0.70274
  outer loop
   vertex 50.8419 151.892 160.524
   vertex 51.4156 152.086 161.109
   vertex 50.867 152.235 160.556
  endloop
 endfacet
 facet normal -0.664094 -0.203396 0.719451
  outer loop
   vertex 50.8419 151.892 160.524
   vertex 51.1758 151.148 160.622
   vertex 51.4156 152.086 161.109
  endloop
 endfacet
 facet normal -0.771123 -0.126542 0.623984
  outer loop
   vertex 51.1758 151.148 160.622
   vertex 51.8463 151.188 161.459
   vertex 51.4156 152.086 161.109
  endloop
 endfacet
 facet normal 0.81505 -0.5793 0.0102479
  outer loop
   vertex 54.7892 152.106 161.093
   vertex 54.2057 151.279 160.752
   vertex 54.8003 152.113 160.564
  endloop
 endfacet
 facet normal 0.534899 -0.61598 0.578318
  outer loop
   vertex 54.7892 152.106 161.093
   vertex 54.5393 152.17 161.391
   vertex 54.2057 151.279 160.752
  endloop
 endfacet
 facet normal 0.845822 -0.481703 0.229232
  outer loop
   vertex 54.5393 152.17 161.391
   vertex 54.0201 151.277 161.43
   vertex 54.2057 151.279 160.752
  endloop
 endfacet
 facet normal -0.888349 0.416473 0.193357
  outer loop
   vertex 50.867 152.235 160.556
   vertex 51.2044 152.994 160.47
   vertex 50.8636 152.333 160.33
  endloop
 endfacet
 facet normal -0.614693 0.352898 0.705419
  outer loop
   vertex 50.867 152.235 160.556
   vertex 51.4156 152.086 161.109
   vertex 51.2044 152.994 160.47
  endloop
 endfacet
 facet normal -0.852088 0.153563 0.500365
  outer loop
   vertex 51.4156 152.086 161.109
   vertex 51.6529 153.026 161.224
   vertex 51.2044 152.994 160.47
  endloop
 endfacet
 facet normal 0.770459 0.0458085 0.635841
  outer loop
   vertex 54.7968 152.995 161.02
   vertex 54.5393 152.17 161.391
   vertex 54.7892 152.106 161.093
  endloop
 endfacet
 facet normal 0.707255 0.0946455 0.700594
  outer loop
   vertex 54.3983 153.066 161.412
   vertex 54.5393 152.17 161.391
   vertex 54.7968 152.995 161.02
  endloop
 endfacet
 facet normal 0.961291 -0.123359 0.246379
  outer loop
   vertex 54.8003 152.113 160.564
   vertex 54.9467 153.096 160.485
   vertex 54.7968 152.995 161.02
  endloop
 endfacet
 facet normal 0.999759 -0.00675885 0.020895
  outer loop
   vertex 54.7892 152.106 161.093
   vertex 54.8003 152.113 160.564
   vertex 54.7968 152.995 161.02
  endloop
 endfacet
 facet normal -0.691502 0.525854 0.495281
  outer loop
   vertex 51.8661 153.47 161.238
   vertex 52.0662 154.115 160.833
   vertex 51.6691 153.826 160.585
  endloop
 endfacet
 facet normal -0.81067 0.375469 0.449263
  outer loop
   vertex 51.8661 153.47 161.238
   vertex 51.6691 153.826 160.585
   vertex 51.6529 153.026 161.224
  endloop
 endfacet
 facet normal -0.800588 0.383908 0.46008
  outer loop
   vertex 51.6529 153.026 161.224
   vertex 51.6691 153.826 160.585
   vertex 51.2044 152.994 160.47
  endloop
 endfacet
 facet normal -0.305552 0.670137 0.676428
  outer loop
   vertex 52.0662 154.115 160.833
   vertex 52.6358 153.834 161.369
   vertex 52.9398 154.256 161.088
  endloop
 endfacet
 facet normal -0.393078 0.573554 0.718697
  outer loop
   vertex 51.8661 153.47 161.238
   vertex 52.6358 153.834 161.369
   vertex 52.0662 154.115 160.833
  endloop
 endfacet
 facet normal 0.0804182 0.511533 0.855492
  outer loop
   vertex 52.6358 153.834 161.369
   vertex 53.9009 153.854 161.237
   vertex 52.9398 154.256 161.088
  endloop
 endfacet
 facet normal 0.641752 0.528138 0.556079
  outer loop
   vertex 54.3983 153.066 161.412
   vertex 54.7968 152.995 161.02
   vertex 53.9009 153.854 161.237
  endloop
 endfacet
 facet normal 0.516481 0.339143 0.786276
  outer loop
   vertex 54.7968 152.995 161.02
   vertex 54.7885 153.772 160.69
   vertex 53.9009 153.854 161.237
  endloop
 endfacet
 facet normal 0.957663 0.261097 -0.121281
  outer loop
   vertex 54.9467 153.096 160.485
   vertex 54.7155 153.956 160.51
   vertex 54.7885 153.772 160.69
  endloop
 endfacet
 facet normal 0.947342 0.133537 0.291053
  outer loop
   vertex 54.7968 152.995 161.02
   vertex 54.9467 153.096 160.485
   vertex 54.7885 153.772 160.69
  endloop
 endfacet
 facet normal -0.64027 0.753911 0.147215
  outer loop
   vertex 51.6691 153.826 160.585
   vertex 52.0662 154.115 160.833
   vertex 52.0156 154.188 160.237
  endloop
 endfacet
 facet normal -0.517296 0.842958 0.147738
  outer loop
   vertex 52.7366 154.593 160.451
   vertex 52.0156 154.188 160.237
   vertex 52.0662 154.115 160.833
  endloop
 endfacet
 facet normal -0.281498 0.807783 0.517925
  outer loop
   vertex 52.9398 154.256 161.088
   vertex 52.7366 154.593 160.451
   vertex 52.0662 154.115 160.833
  endloop
 endfacet
 facet normal 0.0646529 0.890147 0.451063
  outer loop
   vertex 53.7858 154.508 160.469
   vertex 52.7366 154.593 160.451
   vertex 52.9398 154.256 161.088
  endloop
 endfacet
 facet normal 0.221715 0.75893 0.612264
  outer loop
   vertex 53.9009 153.854 161.237
   vertex 53.7858 154.508 160.469
   vertex 52.9398 154.256 161.088
  endloop
 endfacet
 facet normal 0.406001 0.725254 0.55603
  outer loop
   vertex 54.7155 153.956 160.51
   vertex 53.7858 154.508 160.469
   vertex 53.9009 153.854 161.237
  endloop
 endfacet
 facet normal 0.414097 0.714741 0.563621
  outer loop
   vertex 54.7885 153.772 160.69
   vertex 54.7155 153.956 160.51
   vertex 53.9009 153.854 161.237
  endloop
 endfacet
 facet normal -0.635921 -0.421686 0.646363
  outer loop
   vertex 51.996 150.03 161.335
   vertex 52 150.315 161.525
   vertex 51.6738 150.261 161.169
  endloop
 endfacet
 facet normal 0.075136 -0.866587 0.493337
  outer loop
   vertex 51.996 150.03 161.335
   vertex 52.6513 150 161.183
   vertex 52.7127 150.249 161.61
  endloop
 endfacet
 facet normal -0.149258 -0.546846 0.823821
  outer loop
   vertex 52 150.315 161.525
   vertex 51.996 150.03 161.335
   vertex 52.7127 150.249 161.61
  endloop
 endfacet
 facet normal 0.297658 -0.843164 0.447744
  outer loop
   vertex 52.6513 150 161.183
   vertex 53.0853 150.254 161.373
   vertex 52.7127 150.249 161.61
  endloop
 endfacet
 facet normal -0.729282 -0.0766117 0.679911
  outer loop
   vertex 51.6738 150.261 161.169
   vertex 52 150.315 161.525
   vertex 51.8463 151.188 161.459
  endloop
 endfacet
 facet normal -0.139316 -0.27827 0.950346
  outer loop
   vertex 52.7127 150.249 161.61
   vertex 52.7904 151.065 161.861
   vertex 52 150.315 161.525
  endloop
 endfacet
 facet normal -0.391768 0.00114874 0.920063
  outer loop
   vertex 52.7904 151.065 161.861
   vertex 51.8463 151.188 161.459
   vertex 52 150.315 161.525
  endloop
 endfacet
 facet normal 0.621994 -0.64884 0.438326
  outer loop
   vertex 53.0853 150.254 161.373
   vertex 53.7404 150.772 161.21
   vertex 53.5597 150.945 161.722
  endloop
 endfacet
 facet normal 0.426153 -0.623748 0.655234
  outer loop
   vertex 53.0853 150.254 161.373
   vertex 53.5597 150.945 161.722
   vertex 52.7127 150.249 161.61
  endloop
 endfacet
 facet normal 0.123327 -0.301732 0.945383
  outer loop
   vertex 52.7127 150.249 161.61
   vertex 53.5597 150.945 161.722
   vertex 52.7904 151.065 161.861
  endloop
 endfacet
 facet normal 0.691655 -0.574417 0.437788
  outer loop
   vertex 53.7404 150.772 161.21
   vertex 54.0201 151.277 161.43
   vertex 53.5597 150.945 161.722
  endloop
 endfacet
 facet normal -0.626633 0.00320462 0.779308
  outer loop
   vertex 51.8463 151.188 161.459
   vertex 51.9355 152.303 161.526
   vertex 51.4156 152.086 161.109
  endloop
 endfacet
 facet normal -0.391974 -0.000731109 0.919976
  outer loop
   vertex 52.7904 151.065 161.861
   vertex 52.8102 152.075 161.87
   vertex 51.8463 151.188 161.459
  endloop
 endfacet
 facet normal -0.37202 -0.0260654 0.927859
  outer loop
   vertex 52.8102 152.075 161.87
   vertex 51.9355 152.303 161.526
   vertex 51.8463 151.188 161.459
  endloop
 endfacet
 facet normal 0.151998 -0.154747 0.976191
  outer loop
   vertex 53.5597 150.945 161.722
   vertex 53.7351 151.863 161.84
   vertex 52.7904 151.065 161.861
  endloop
 endfacet
 facet normal 0.0301235 -0.00971748 0.999499
  outer loop
   vertex 53.7351 151.863 161.84
   vertex 52.8102 152.075 161.87
   vertex 52.7904 151.065 161.861
  endloop
 endfacet
 facet normal 0.547843 -0.283917 0.78693
  outer loop
   vertex 54.0201 151.277 161.43
   vertex 54.5393 152.17 161.391
   vertex 53.7351 151.863 161.84
  endloop
 endfacet
 facet normal 0.629012 -0.216306 0.746697
  outer loop
   vertex 53.5597 150.945 161.722
   vertex 54.0201 151.277 161.43
   vertex 53.7351 151.863 161.84
  endloop
 endfacet
 facet normal -0.599701 0.0968789 0.794338
  outer loop
   vertex 51.9355 152.303 161.526
   vertex 51.9921 153.136 161.467
   vertex 51.6529 153.026 161.224
  endloop
 endfacet
 facet normal -0.641477 0.0679449 0.764127
  outer loop
   vertex 51.4156 152.086 161.109
   vertex 51.9355 152.303 161.526
   vertex 51.6529 153.026 161.224
  endloop
 endfacet
 facet normal -0.324968 0.16029 0.932042
  outer loop
   vertex 52.8102 152.075 161.87
   vertex 52.8195 153.079 161.701
   vertex 51.9355 152.303 161.526
  endloop
 endfacet
 facet normal -0.265264 0.0858427 0.960347
  outer loop
   vertex 52.8195 153.079 161.701
   vertex 51.9921 153.136 161.467
   vertex 51.9355 152.303 161.526
  endloop
 endfacet
 facet normal 0.0580496 0.113225 0.991872
  outer loop
   vertex 53.7351 151.863 161.84
   vertex 53.8014 152.87 161.721
   vertex 52.8102 152.075 161.87
  endloop
 endfacet
 facet normal 0.0146462 0.166241 0.985976
  outer loop
   vertex 53.8014 152.87 161.721
   vertex 52.8195 153.079 161.701
   vertex 52.8102 152.075 161.87
  endloop
 endfacet
 facet normal 0.446497 0.0490615 0.893439
  outer loop
   vertex 54.5393 152.17 161.391
   vertex 54.3983 153.066 161.412
   vertex 53.8014 152.87 161.721
  endloop
 endfacet
 facet normal 0.464766 0.0735378 0.882374
  outer loop
   vertex 53.7351 151.863 161.84
   vertex 54.5393 152.17 161.391
   vertex 53.8014 152.87 161.721
  endloop
 endfacet
 facet normal -0.61662 0.273695 0.738154
  outer loop
   vertex 51.6529 153.026 161.224
   vertex 51.9921 153.136 161.467
   vertex 51.8661 153.47 161.238
  endloop
 endfacet
 facet normal -0.347683 0.437417 0.829327
  outer loop
   vertex 52.6358 153.834 161.369
   vertex 51.8661 153.47 161.238
   vertex 51.9921 153.136 161.467
  endloop
 endfacet
 facet normal -0.233271 0.343238 0.90982
  outer loop
   vertex 52.8195 153.079 161.701
   vertex 52.6358 153.834 161.369
   vertex 51.9921 153.136 161.467
  endloop
 endfacet
 facet normal 0.0869824 0.418595 0.903998
  outer loop
   vertex 53.9009 153.854 161.237
   vertex 52.6358 153.834 161.369
   vertex 52.8195 153.079 161.701
  endloop
 endfacet
 facet normal 0.0734691 0.433844 0.897987
  outer loop
   vertex 53.8014 152.87 161.721
   vertex 53.9009 153.854 161.237
   vertex 52.8195 153.079 161.701
  endloop
 endfacet
 facet normal 0.318013 0.392043 0.863232
  outer loop
   vertex 54.3983 153.066 161.412
   vertex 53.9009 153.854 161.237
   vertex 53.8014 152.87 161.721
  endloop
 endfacet
endsolid
