ply
format ascii 1.0
element vertex 150
property float x
property float y
property float z
property float nx
property float ny
property float nz
element face 50
property list uint uint vertex_indices
end_header
59.7803 100.171 161.403 -0.275967 -0.533639 -0.799419
60.5739 100.217 161.098 -0.275967 -0.533639 -0.799419
60.3851 99.6596 161.535 -0.275967 -0.533639 -0.799419
59.8082 99.9459 161.718 -0.507318 -0.722088 -0.470337
59.7803 100.171 161.403 -0.507318 -0.722088 -0.470337
60.3851 99.6596 161.535 -0.507318 -0.722088 -0.470337
60.3851 99.6596 161.535 0.602734 -0.608788 -0.515838
60.5739 100.217 161.098 0.602734 -0.608788 -0.515838
61.1526 100.302 161.674 0.602734 -0.608788 -0.515838
60.5739 100.217 161.098 -0.342799 -0.187218 -0.920564
59.7803 100.171 161.403 -0.342799 -0.187218 -0.920564
60.3822 100.9 161.031 -0.342799 -0.187218 -0.920564
60.3822 100.9 161.031 -0.536845 0.0123251 -0.843591
59.7803 100.171 161.403 -0.536845 0.0123251 -0.843591
59.6731 100.939 161.482 -0.536845 0.0123251 -0.843591
61.1526 100.302 161.674 0.675382 -0.399516 -0.619876
60.5739 100.217 161.098 0.675382 -0.399516 -0.619876
61.23 101.056 161.272 0.675382 -0.399516 -0.619876
61.23 101.056 161.272 0.276999 -0.0170826 -0.960718
60.5739 100.217 161.098 0.276999 -0.0170826 -0.960718
60.3822 100.9 161.031 0.276999 -0.0170826 -0.960718
61.1526 100.302 161.674 0.513237 -0.44394 -0.73451
61.23 101.056 161.272 0.513237 -0.44394 -0.73451
61.5698 100.991 161.549 0.513237 -0.44394 -0.73451
59.8107 101.285 161.706 -0.605043 0.573959 -0.55181
60.3853 101.873 161.688 -0.605043 0.573959 -0.55181
60.466 101.681 161.4 -0.605043 0.573959 -0.55181
59.8107 101.285 161.706 -0.606003 0.587669 -0.536102
60.466 101.681 161.4 -0.606003 0.587669 -0.536102
59.6731 100.939 161.482 -0.606003 0.587669 -0.536102
59.6731 100.939 161.482 -0.471799 0.41755 -0.776568
60.466 101.681 161.4 -0.471799 0.41755 -0.776568
60.3822 100.9 161.031 -0.471799 0.41755 -0.776568
61.1147 101.763 161.581 0.325377 0.422897 -0.845747
61.4883 101.392 161.54 0.325377 0.422897 -0.845747
61.23 101.056 161.272 0.325377 0.422897 -0.845747
61.1147 101.763 161.581 0.195304 0.419511 -0.886491
61.23 101.056 161.272 0.195304 0.419511 -0.886491
60.466 101.681 161.4 0.195304 0.419511 -0.886491
60.466 101.681 161.4 0.1811 0.40421 -0.896558
61.23 101.056 161.272 0.1811 0.40421 -0.896558
60.3822 100.9 161.031 0.1811 0.40421 -0.896558
61.5698 100.991 161.549 0.639837 0.113045 -0.760151
61.23 101.056 161.272 0.639837 0.113045 -0.760151
61.4883 101.392 161.54 0.639837 0.113045 -0.760151
60.466 101.681 161.4 -0.545944 0.618651 -0.564992
60.3853 101.873 161.688 -0.545944 0.618651 -0.564992
60.612 101.992 161.6 -0.545944 0.618651 -0.564992
61.1147 101.763 161.581 0.182843 0.468798 -0.864174
60.466 101.681 161.4 0.182843 0.468798 -0.864174
60.612 101.992 161.6 0.182843 0.468798 -0.864174
59.8082 99.9459 161.718 -0.885163 -0.412217 -0.215785
59.6147 100.313 161.81 -0.885163 -0.412217 -0.215785
59.7803 100.171 161.403 -0.885163 -0.412217 -0.215785
60.1147 100.138 162.264 -0.673406 -0.493076 0.550818
59.6147 100.313 161.81 -0.673406 -0.493076 0.550818
59.8082 99.9459 161.718 -0.673406 -0.493076 0.550818
60.1147 100.138 162.264 -0.371372 -0.791131 0.486
59.8082 99.9459 161.718 -0.371372 -0.791131 0.486
60.4743 99.9236 162.191 -0.371372 -0.791131 0.486
60.4743 99.9236 162.191 -0.306757 -0.867615 0.391336
59.8082 99.9459 161.718 -0.306757 -0.867615 0.391336
60.3851 99.6596 161.535 -0.306757 -0.867615 0.391336
60.4743 99.9236 162.191 0.601005 -0.766359 0.226908
60.3851 99.6596 161.535 0.601005 -0.766359 0.226908
61.1526 100.302 161.674 0.601005 -0.766359 0.226908
60.7914 100.277 162.375 0.628309 -0.718814 0.297549
60.4743 99.9236 162.191 0.628309 -0.718814 0.297549
61.1526 100.302 161.674 0.628309 -0.718814 0.297549
59.6147 100.313 161.81 -0.965518 -0.0443267 -0.256533
59.5703 100.912 161.874 -0.965518 -0.0443267 -0.256533
59.6731 100.939 161.482 -0.965518 -0.0443267 -0.256533
59.7803 100.171 161.403 -0.933311 -0.0944255 -0.34643
59.6147 100.313 161.81 -0.933311 -0.0944255 -0.34643
59.6731 100.939 161.482 -0.933311 -0.0944255 -0.34643
59.9774 100.861 162.296 -0.694096 -0.16205 0.701406
59.6147 100.313 161.81 -0.694096 -0.16205 0.701406
60.1147 100.138 162.264 -0.694096 -0.16205 0.701406
59.5703 100.912 161.874 -0.721339 -0.125984 0.681028
59.6147 100.313 161.81 -0.721339 -0.125984 0.681028
59.9774 100.861 162.296 -0.721339 -0.125984 0.681028
61.3835 101.172 161.967 0.782766 -0.375428 0.496317
61.0864 101.021 162.322 0.782766 -0.375428 0.496317
61.1526 100.302 161.674 0.782766 -0.375428 0.496317
61.0864 101.021 162.322 0.850609 -0.306718 0.427069
60.7914 100.277 162.375 0.850609 -0.306718 0.427069
61.1526 100.302 161.674 0.850609 -0.306718 0.427069
61.1526 100.302 161.674 0.774801 -0.377072 0.507446
61.5698 100.991 161.549 0.774801 -0.377072 0.507446
61.3835 101.172 161.967 0.774801 -0.377072 0.507446
59.6731 100.939 161.482 -0.862052 0.468338 -0.193716
59.5703 100.912 161.874 -0.862052 0.468338 -0.193716
59.8107 101.285 161.706 -0.862052 0.468338 -0.193716
60.3853 101.873 161.688 -0.34636 0.816014 0.462771
60.438 101.563 162.274 -0.34636 0.816014 0.462771
60.7412 101.797 162.088 -0.34636 0.816014 0.462771
59.8107 101.285 161.706 -0.649419 0.646514 0.400344
60.438 101.563 162.274 -0.649419 0.646514 0.400344
60.3853 101.873 161.688 -0.649419 0.646514 0.400344
59.8107 101.285 161.706 -0.697233 0.474463 0.537356
59.9774 100.861 162.296 -0.697233 0.474463 0.537356
60.438 101.563 162.274 -0.697233 0.474463 0.537356
59.8107 101.285 161.706 -0.533584 0.608552 0.587327
59.5703 100.912 161.874 -0.533584 0.608552 0.587327
59.9774 100.861 162.296 -0.533584 0.608552 0.587327
61.0864 101.021 162.322 0.252003 0.380169 0.889925
60.7412 101.797 162.088 0.252003 0.380169 0.889925
60.438 101.563 162.274 0.252003 0.380169 0.889925
61.3835 101.172 161.967 0.574785 0.459675 0.676995
60.7412 101.797 162.088 0.574785 0.459675 0.676995
61.0864 101.021 162.322 0.574785 0.459675 0.676995
61.3835 101.172 161.967 0.664851 0.596136 0.450105
61.1147 101.763 161.581 0.664851 0.596136 0.450105
60.7412 101.797 162.088 0.664851 0.596136 0.450105
61.3835 101.172 161.967 0.648477 0.600374 0.468005
61.4883 101.392 161.54 0.648477 0.600374 0.468005
61.1147 101.763 161.581 0.648477 0.600374 0.468005
61.5698 100.991 161.549 0.924519 0.195385 0.327245
61.4883 101.392 161.54 0.924519 0.195385 0.327245
61.3835 101.172 161.967 0.924519 0.195385 0.327245
60.3853 101.873 161.688 -0.289365 0.859941 0.42044
60.7412 101.797 162.088 -0.289365 0.859941 0.42044
60.612 101.992 161.6 -0.289365 0.859941 0.42044
61.1147 101.763 161.581 0.409952 0.879078 0.243231
60.612 101.992 161.6 0.409952 0.879078 0.243231
60.7412 101.797 162.088 0.409952 0.879078 0.243231
60.4743 99.9236 162.191 -0.258777 -0.673149 0.692752
60.4268 100.252 162.492 -0.258777 -0.673149 0.692752
60.1147 100.138 162.264 -0.258777 -0.673149 0.692752
60.4743 99.9236 162.191 0.276928 -0.627569 0.727646
60.7914 100.277 162.375 0.276928 -0.627569 0.727646
60.4268 100.252 162.492 0.276928 -0.627569 0.727646
60.4268 100.252 162.492 -0.43068 -0.0273512 0.90209
60.5459 100.888 162.568 -0.43068 -0.0273512 0.90209
59.9774 100.861 162.296 -0.43068 -0.0273512 0.90209
60.1147 100.138 162.264 -0.549184 -0.139854 0.823916
60.4268 100.252 162.492 -0.549184 -0.139854 0.823916
59.9774 100.861 162.296 -0.549184 -0.139854 0.823916
60.7914 100.277 162.375 0.434104 -0.108328 0.894326
61.0864 101.021 162.322 0.434104 -0.108328 0.894326
60.5459 100.888 162.568 0.434104 -0.108328 0.894326
60.4268 100.252 162.492 0.311775 -0.170281 0.934773
60.7914 100.277 162.375 0.311775 -0.170281 0.934773
60.5459 100.888 162.568 0.311775 -0.170281 0.934773
59.9774 100.861 162.296 -0.422875 0.304101 0.853639
60.5459 100.888 162.568 -0.422875 0.304101 0.853639
60.438 101.563 162.274 -0.422875 0.304101 0.853639
61.0864 101.021 162.322 0.288019 0.420675 0.860278
60.438 101.563 162.274 0.288019 0.420675 0.860278
60.5459 100.888 162.568 0.288019 0.420675 0.860278
3 0 1 2
3 3 4 5
3 6 7 8
3 9 10 11
3 12 13 14
3 15 16 17
3 18 19 20
3 21 22 23
3 24 25 26
3 27 28 29
3 30 31 32
3 33 34 35
3 36 37 38
3 39 40 41
3 42 43 44
3 45 46 47
3 48 49 50
3 51 52 53
3 54 55 56
3 57 58 59
3 60 61 62
3 63 64 65
3 66 67 68
3 69 70 71
3 72 73 74
3 75 76 77
3 78 79 80
3 81 82 83
3 84 85 86
3 87 88 89
3 90 91 92
3 93 94 95
3 96 97 98
3 99 100 101
3 102 103 104
3 105 106 107
3 108 109 110
3 111 112 113
3 114 115 116
3 117 118 119
3 120 121 122
3 123 124 125
3 126 127 128
3 129 130 131
3 132 133 134
3 135 136 137
3 138 139 140
3 141 142 143
3 144 145 146
3 147 148 149
