ply
format ascii 1.0
element vertex 294
property float x
property float y
property float z
property float nx
property float ny
property float nz
element face 98
property list uint uint vertex_indices
end_header
121.317 163.63 156.256 -0.157507 -0.561977 -0.812018
122.221 163.624 156.084 -0.157507 -0.561977 -0.812018
122.008 163.249 156.385 -0.157507 -0.561977 -0.812018
122.221 163.624 156.084 0.231501 -0.35091 -0.907342
123.052 163.777 156.237 0.231501 -0.35091 -0.907342
122.985 163.285 156.41 0.231501 -0.35091 -0.907342
122.008 163.249 156.385 0.0434419 -0.639972 -0.76717
122.221 163.624 156.084 0.0434419 -0.639972 -0.76717
122.985 163.285 156.41 0.0434419 -0.639972 -0.76717
122.985 163.285 156.41 0.165677 -0.3475 -0.922928
123.052 163.777 156.237 0.165677 -0.3475 -0.922928
124.113 163.388 156.574 0.165677 -0.3475 -0.922928
121.062 164.4 156.477 -0.470244 0.0962808 -0.877269
121.317 163.63 156.256 -0.470244 0.0962808 -0.877269
120.659 163.696 156.616 -0.470244 0.0962808 -0.877269
122.221 163.624 156.084 -0.181937 0.177136 -0.967224
121.317 163.63 156.256 -0.181937 0.177136 -0.967224
122.017 164.316 156.25 -0.181937 0.177136 -0.967224
122.017 164.316 156.25 -0.209393 0.205225 -0.956053
121.317 163.63 156.256 -0.209393 0.205225 -0.956053
121.062 164.4 156.477 -0.209393 0.205225 -0.956053
122.799 164.392 156.404 0.26629 0.352999 -0.896929
123.465 164.125 156.497 0.26629 0.352999 -0.896929
123.052 163.777 156.237 0.26629 0.352999 -0.896929
122.799 164.392 156.404 0.154082 0.317377 -0.935698
123.052 163.777 156.237 0.154082 0.317377 -0.935698
122.017 164.316 156.25 0.154082 0.317377 -0.935698
122.017 164.316 156.25 0.126629 0.265176 -0.955849
123.052 163.777 156.237 0.126629 0.265176 -0.955849
122.221 163.624 156.084 0.126629 0.265176 -0.955849
124.113 163.388 156.574 0.370326 0.23129 -0.899646
123.052 163.777 156.237 0.370326 0.23129 -0.899646
123.465 164.125 156.497 0.370326 0.23129 -0.899646
124.172 163.763 156.594 0.151877 0.0298621 -0.987948
124.113 163.388 156.574 0.151877 0.0298621 -0.987948
123.465 164.125 156.497 0.151877 0.0298621 -0.987948
122.017 164.316 156.25 -0.175271 0.418421 -0.891181
121.062 164.4 156.477 -0.175271 0.418421 -0.891181
121.412 164.658 156.529 -0.175271 0.418421 -0.891181
122.192 164.599 156.529 0.0522519 0.686218 -0.725516
122.017 164.316 156.25 0.0522519 0.686218 -0.725516
121.412 164.658 156.529 0.0522519 0.686218 -0.725516
122.799 164.392 156.404 0.0794647 0.676223 -0.732399
122.017 164.316 156.25 0.0794647 0.676223 -0.732399
122.192 164.599 156.529 0.0794647 0.676223 -0.732399
121.115 162.746 156.834 -0.436501 -0.632748 -0.639607
121.018 162.171 157.47 -0.436501 -0.632748 -0.639607
120.327 162.707 157.411 -0.436501 -0.632748 -0.639607
121.115 162.746 156.834 -0.0155136 -0.707544 -0.706499
122.322 162.584 156.97 -0.0155136 -0.707544 -0.706499
122.032 162.122 157.439 -0.0155136 -0.707544 -0.706499
121.018 162.171 157.47 -0.0560192 -0.736083 -0.674569
121.115 162.746 156.834 -0.0560192 -0.736083 -0.674569
122.032 162.122 157.439 -0.0560192 -0.736083 -0.674569
122.322 162.584 156.97 0.0506866 -0.565233 -0.823372
123.324 162.66 156.98 0.0506866 -0.565233 -0.823372
123.188 162.144 157.326 0.0506866 -0.565233 -0.823372
122.032 162.122 157.439 -0.0575887 -0.69323 -0.718412
122.322 162.584 156.97 -0.0575887 -0.69323 -0.718412
123.188 162.144 157.326 -0.0575887 -0.69323 -0.718412
123.188 162.144 157.326 0.154227 -0.577806 -0.80147
123.324 162.66 156.98 0.154227 -0.577806 -0.80147
124.071 162.569 157.19 0.154227 -0.577806 -0.80147
120.16 163.355 157.043 -0.85664 -0.241255 -0.456031
120.03 163.066 157.44 -0.85664 -0.241255 -0.456031
119.953 163.51 157.351 -0.85664 -0.241255 -0.456031
120.327 162.707 157.411 -0.653165 -0.494037 -0.573849
120.03 163.066 157.44 -0.653165 -0.494037 -0.573849
120.16 163.355 157.043 -0.653165 -0.494037 -0.573849
121.115 162.746 156.834 -0.486388 -0.522697 -0.700153
120.327 162.707 157.411 -0.486388 -0.522697 -0.700153
120.16 163.355 157.043 -0.486388 -0.522697 -0.700153
121.115 162.746 156.834 -0.428893 -0.393635 -0.813082
120.16 163.355 157.043 -0.428893 -0.393635 -0.813082
120.659 163.696 156.616 -0.428893 -0.393635 -0.813082
121.115 162.746 156.834 -0.469337 -0.4064 -0.78394
120.659 163.696 156.616 -0.469337 -0.4064 -0.78394
121.317 163.63 156.256 -0.469337 -0.4064 -0.78394
122.008 163.249 156.385 -0.129927 -0.522429 -0.842726
121.115 162.746 156.834 -0.129927 -0.522429 -0.842726
121.317 163.63 156.256 -0.129927 -0.522429 -0.842726
122.322 162.584 156.97 -0.00452751 -0.661985 -0.749503
121.115 162.746 156.834 -0.00452751 -0.661985 -0.749503
122.008 163.249 156.385 -0.00452751 -0.661985 -0.749503
122.985 163.285 156.41 0.0435703 -0.648481 -0.759983
122.322 162.584 156.97 0.0435703 -0.648481 -0.759983
122.008 163.249 156.385 0.0435703 -0.648481 -0.759983
123.324 162.66 156.98 0.0568466 -0.655499 -0.753053
122.322 162.584 156.97 0.0568466 -0.655499 -0.753053
122.985 163.285 156.41 0.0568466 -0.655499 -0.753053
124.113 163.388 156.574 0.168172 -0.612677 -0.772234
123.324 162.66 156.98 0.168172 -0.612677 -0.772234
122.985 163.285 156.41 0.168172 -0.612677 -0.772234
124.071 162.569 157.19 0.147659 -0.598776 -0.787187
123.324 162.66 156.98 0.147659 -0.598776 -0.787187
124.113 163.388 156.574 0.147659 -0.598776 -0.787187
124.071 162.569 157.19 0.403316 -0.562727 -0.721578
124.113 163.388 156.574 0.403316 -0.562727 -0.721578
124.56 162.871 157.227 0.403316 -0.562727 -0.721578
124.56 162.871 157.227 0.831711 0.0183108 -0.554908
124.113 163.388 156.574 0.831711 0.0183108 -0.554908
124.455 163.487 157.09 0.831711 0.0183108 -0.554908
120.16 163.355 157.043 -0.663725 0.384832 -0.641384
119.953 163.51 157.351 -0.663725 0.384832 -0.641384
120.168 163.951 157.393 -0.663725 0.384832 -0.641384
120.168 163.951 157.393 -0.736157 0.349614 -0.57952
120.659 163.696 156.616 -0.736157 0.349614 -0.57952
120.16 163.355 157.043 -0.736157 0.349614 -0.57952
120.168 163.951 157.393 -0.708391 0.402878 -0.579543
120.535 164.397 157.255 -0.708391 0.402878 -0.579543
120.659 163.696 156.616 -0.708391 0.402878 -0.579543
120.535 164.397 157.255 -0.778355 0.342132 -0.526411
121.062 164.4 156.477 -0.778355 0.342132 -0.526411
120.659 163.696 156.616 -0.778355 0.342132 -0.526411
123.465 164.125 156.497 0.377507 0.92442 -0.0541818
122.799 164.392 156.404 0.377507 0.92442 -0.0541818
123.057 164.332 157.185 0.377507 0.92442 -0.0541818
123.057 164.332 157.185 0.424865 0.905029 -0.0202887
124.038 163.869 157.079 0.424865 0.905029 -0.0202887
123.465 164.125 156.497 0.424865 0.905029 -0.0202887
124.038 163.869 157.079 0.461837 0.884533 -0.0656321
124.172 163.763 156.594 0.461837 0.884533 -0.0656321
123.465 164.125 156.497 0.461837 0.884533 -0.0656321
124.455 163.487 157.09 0.837986 -0.102569 -0.535966
124.113 163.388 156.574 0.837986 -0.102569 -0.535966
124.172 163.763 156.594 0.837986 -0.102569 -0.535966
124.038 163.869 157.079 0.674746 0.737613 0.0253866
124.455 163.487 157.09 0.674746 0.737613 0.0253866
124.172 163.763 156.594 0.674746 0.737613 0.0253866
121.062 164.4 156.477 -0.610361 0.677107 -0.411079
120.535 164.397 157.255 -0.610361 0.677107 -0.411079
121.103 164.831 157.127 -0.610361 0.677107 -0.411079
121.412 164.658 156.529 -0.47874 0.745127 -0.464321
121.062 164.4 156.477 -0.47874 0.745127 -0.464321
121.103 164.831 157.127 -0.47874 0.745127 -0.464321
122.192 164.599 156.529 0.0726323 0.9604 -0.268991
121.412 164.658 156.529 0.0726323 0.9604 -0.268991
121.925 164.81 157.212 0.0726323 0.9604 -0.268991
121.412 164.658 156.529 0.0510643 0.965843 -0.254048
121.103 164.831 157.127 0.0510643 0.965843 -0.254048
121.925 164.81 157.212 0.0510643 0.965843 -0.254048
123.057 164.332 157.185 0.316676 0.947986 -0.0322398
122.799 164.392 156.404 0.316676 0.947986 -0.0322398
122.192 164.599 156.529 0.316676 0.947986 -0.0322398
123.057 164.332 157.185 0.382855 0.91412 -0.133442
122.192 164.599 156.529 0.382855 0.91412 -0.133442
121.925 164.81 157.212 0.382855 0.91412 -0.133442
121.018 162.171 157.47 -0.390654 -0.842782 0.370281
121.249 162.323 158.058 -0.390654 -0.842782 0.370281
120.715 162.568 158.054 -0.390654 -0.842782 0.370281
120.327 162.707 157.411 -0.610712 -0.765255 0.20351
121.018 162.171 157.47 -0.610712 -0.765255 0.20351
120.715 162.568 158.054 -0.610712 -0.765255 0.20351
122.105 162.608 158.093 0.118393 -0.463656 0.87807
121.225 162.798 158.312 0.118393 -0.463656 0.87807
121.249 162.323 158.058 0.118393 -0.463656 0.87807
122.105 162.608 158.093 0.240891 -0.791287 0.561993
121.249 162.323 158.058 0.240891 -0.791287 0.561993
122.032 162.122 157.439 0.240891 -0.791287 0.561993
122.032 162.122 157.439 -0.0388908 -0.963934 0.263285
121.249 162.323 158.058 -0.0388908 -0.963934 0.263285
121.018 162.171 157.47 -0.0388908 -0.963934 0.263285
122.032 162.122 157.439 0.0842638 -0.67751 0.730671
123.188 162.144 157.326 0.0842638 -0.67751 0.730671
123.14 162.601 157.756 0.0842638 -0.67751 0.730671
122.105 162.608 158.093 0.181413 -0.798531 0.573966
122.032 162.122 157.439 0.181413 -0.798531 0.573966
123.14 162.601 157.756 0.181413 -0.798531 0.573966
123.188 162.144 157.326 0.444021 -0.890308 0.100981
124.071 162.569 157.19 0.444021 -0.890308 0.100981
124.037 162.589 157.519 0.444021 -0.890308 0.100981
123.14 162.601 157.756 0.182489 -0.663009 0.726029
123.188 162.144 157.326 0.182489 -0.663009 0.726029
124.037 162.589 157.519 0.182489 -0.663009 0.726029
124.071 162.569 157.19 0.517104 -0.849339 0.105958
124.56 162.871 157.227 0.517104 -0.849339 0.105958
124.037 162.589 157.519 0.517104 -0.849339 0.105958
120.03 163.066 157.44 -0.975072 -0.134576 0.176421
120.018 163.51 157.707 -0.975072 -0.134576 0.176421
119.953 163.51 157.351 -0.975072 -0.134576 0.176421
120.03 163.066 157.44 -0.647454 -0.406796 0.644453
120.446 163.352 158.038 -0.647454 -0.406796 0.644453
120.018 163.51 157.707 -0.647454 -0.406796 0.644453
120.03 163.066 157.44 -0.565645 -0.518636 0.641141
120.327 162.707 157.411 -0.565645 -0.518636 0.641141
120.446 163.352 158.038 -0.565645 -0.518636 0.641141
120.327 162.707 157.411 -0.84705 -0.281964 0.450558
120.715 162.568 158.054 -0.84705 -0.281964 0.450558
120.446 163.352 158.038 -0.84705 -0.281964 0.450558
122.105 162.608 158.093 0.15878 -0.334748 0.928834
122.101 163.082 158.264 0.15878 -0.334748 0.928834
121.225 162.798 158.312 0.15878 -0.334748 0.928834
122.101 163.082 158.264 0.392843 -0.0500787 0.918241
122.901 163.472 157.943 0.392843 -0.0500787 0.918241
122.268 163.611 158.222 0.392843 -0.0500787 0.918241
122.101 163.082 158.264 0.476221 -0.295487 0.828191
122.105 162.608 158.093 0.476221 -0.295487 0.828191
122.901 163.472 157.943 0.476221 -0.295487 0.828191
122.105 162.608 158.093 0.306584 -0.118674 0.944417
123.14 162.601 157.756 0.306584 -0.118674 0.944417
122.901 163.472 157.943 0.306584 -0.118674 0.944417
124.037 162.589 157.519 0.255619 0.0409874 0.965908
124.01 163.393 157.492 0.255619 0.0409874 0.965908
123.14 162.601 157.756 0.255619 0.0409874 0.965908
124.01 163.393 157.492 0.368938 -0.0972402 0.924353
122.901 163.472 157.943 0.368938 -0.0972402 0.924353
123.14 162.601 157.756 0.368938 -0.0972402 0.924353
124.56 162.871 157.227 0.613516 0.269836 0.74215
124.455 163.487 157.09 0.613516 0.269836 0.74215
124.01 163.393 157.492 0.613516 0.269836 0.74215
124.037 162.589 157.519 0.468172 0.0453375 0.882473
124.56 162.871 157.227 0.468172 0.0453375 0.882473
124.01 163.393 157.492 0.468172 0.0453375 0.882473
119.953 163.51 157.351 -0.892825 0.420259 0.162005
120.018 163.51 157.707 -0.892825 0.420259 0.162005
120.168 163.951 157.393 -0.892825 0.420259 0.162005
120.535 164.397 157.255 -0.498104 0.656434 0.566557
120.895 163.993 158.039 -0.498104 0.656434 0.566557
121.251 164.496 157.77 -0.498104 0.656434 0.566557
120.168 163.951 157.393 -0.540889 0.620554 0.567761
120.895 163.993 158.039 -0.540889 0.620554 0.567761
120.535 164.397 157.255 -0.540889 0.620554 0.567761
120.168 163.951 157.393 -0.61407 0.429032 0.662458
120.446 163.352 158.038 -0.61407 0.429032 0.662458
120.895 163.993 158.039 -0.61407 0.429032 0.662458
120.168 163.951 157.393 -0.324114 0.61961 0.714866
120.018 163.51 157.707 -0.324114 0.61961 0.714866
120.446 163.352 158.038 -0.324114 0.61961 0.714866
121.251 164.496 157.77 0.0510269 0.611253 0.789789
121.785 163.883 158.21 0.0510269 0.611253 0.789789
122.191 164.305 157.857 0.0510269 0.611253 0.789789
120.895 163.993 158.039 -0.0977112 0.522716 0.846889
121.785 163.883 158.21 -0.0977112 0.522716 0.846889
121.251 164.496 157.77 -0.0977112 0.522716 0.846889
122.268 163.611 158.222 0.245322 0.472068 0.84674
122.191 164.305 157.857 0.245322 0.472068 0.84674
121.785 163.883 158.21 0.245322 0.472068 0.84674
122.268 163.611 158.222 0.440406 0.455353 0.773754
122.901 163.472 157.943 0.440406 0.455353 0.773754
122.191 164.305 157.857 0.440406 0.455353 0.773754
122.901 163.472 157.943 0.516786 0.511458 0.686545
123.057 164.332 157.185 0.516786 0.511458 0.686545
122.191 164.305 157.857 0.516786 0.511458 0.686545
124.038 163.869 157.079 0.359775 0.599585 0.714884
123.057 164.332 157.185 0.359775 0.599585 0.714884
124.01 163.393 157.492 0.359775 0.599585 0.714884
124.01 163.393 157.492 0.340182 0.586351 0.735166
123.057 164.332 157.185 0.340182 0.586351 0.735166
122.901 163.472 157.943 0.340182 0.586351 0.735166
124.455 163.487 157.09 0.490512 0.554689 0.6721
124.038 163.869 157.079 0.490512 0.554689 0.6721
124.01 163.393 157.492 0.490512 0.554689 0.6721
120.535 164.397 157.255 -0.456421 0.74109 0.492408
121.251 164.496 157.77 -0.456421 0.74109 0.492408
121.103 164.831 157.127 -0.456421 0.74109 0.492408
121.925 164.81 157.212 -0.0257866 0.883729 0.467287
121.103 164.831 157.127 -0.0257866 0.883729 0.467287
121.251 164.496 157.77 -0.0257866 0.883729 0.467287
122.191 164.305 157.857 0.108982 0.803773 0.584869
121.925 164.81 157.212 0.108982 0.803773 0.584869
121.251 164.496 157.77 0.108982 0.803773 0.584869
123.057 164.332 157.185 0.350509 0.801975 0.483715
121.925 164.81 157.212 0.350509 0.801975 0.483715
122.191 164.305 157.857 0.350509 0.801975 0.483715
121.249 162.323 158.058 -0.222023 -0.468203 0.855273
121.225 162.798 158.312 -0.222023 -0.468203 0.855273
120.715 162.568 158.054 -0.222023 -0.468203 0.855273
121.225 162.798 158.312 -0.339459 -0.012418 0.940539
121.164 163.507 158.299 -0.339459 -0.012418 0.940539
120.446 163.352 158.038 -0.339459 -0.012418 0.940539
120.715 162.568 158.054 -0.404532 -0.120786 0.906513
121.225 162.798 158.312 -0.404532 -0.120786 0.906513
120.446 163.352 158.038 -0.404532 -0.120786 0.906513
121.225 162.798 158.312 0.08984 -0.111762 0.989666
122.101 163.082 158.264 0.08984 -0.111762 0.989666
121.855 163.415 158.324 0.08984 -0.111762 0.989666
121.225 162.798 158.312 -0.0343477 0.0147536 0.999301
121.855 163.415 158.324 -0.0343477 0.0147536 0.999301
121.164 163.507 158.299 -0.0343477 0.0147536 0.999301
122.101 163.082 158.264 0.240076 0.00245577 0.970751
122.268 163.611 158.222 0.240076 0.00245577 0.970751
121.855 163.415 158.324 0.240076 0.00245577 0.970751
120.446 163.352 158.038 -0.379568 0.264239 0.886626
121.164 163.507 158.299 -0.379568 0.264239 0.886626
120.895 163.993 158.039 -0.379568 0.264239 0.886626
121.785 163.883 158.21 -0.121585 0.415113 0.901609
120.895 163.993 158.039 -0.121585 0.415113 0.901609
121.164 163.507 158.299 -0.121585 0.415113 0.901609
121.855 163.415 158.324 -0.00364037 0.236935 0.971519
121.785 163.883 158.21 -0.00364037 0.236935 0.971519
121.164 163.507 158.299 -0.00364037 0.236935 0.971519
122.268 163.611 158.222 0.118914 0.252455 0.960274
121.785 163.883 158.21 0.118914 0.252455 0.960274
121.855 163.415 158.324 0.118914 0.252455 0.960274
3 0 1 2
3 3 4 5
3 6 7 8
3 9 10 11
3 12 13 14
3 15 16 17
3 18 19 20
3 21 22 23
3 24 25 26
3 27 28 29
3 30 31 32
3 33 34 35
3 36 37 38
3 39 40 41
3 42 43 44
3 45 46 47
3 48 49 50
3 51 52 53
3 54 55 56
3 57 58 59
3 60 61 62
3 63 64 65
3 66 67 68
3 69 70 71
3 72 73 74
3 75 76 77
3 78 79 80
3 81 82 83
3 84 85 86
3 87 88 89
3 90 91 92
3 93 94 95
3 96 97 98
3 99 100 101
3 102 103 104
3 105 106 107
3 108 109 110
3 111 112 113
3 114 115 116
3 117 118 119
3 120 121 122
3 123 124 125
3 126 127 128
3 129 130 131
3 132 133 134
3 135 136 137
3 138 139 140
3 141 142 143
3 144 145 146
3 147 148 149
3 150 151 152
3 153 154 155
3 156 157 158
3 159 160 161
3 162 163 164
3 165 166 167
3 168 169 170
3 171 172 173
3 174 175 176
3 177 178 179
3 180 181 182
3 183 184 185
3 186 187 188
3 189 190 191
3 192 193 194
3 195 196 197
3 198 199 200
3 201 202 203
3 204 205 206
3 207 208 209
3 210 211 212
3 213 214 215
3 216 217 218
3 219 220 221
3 222 223 224
3 225 226 227
3 228 229 230
3 231 232 233
3 234 235 236
3 237 238 239
3 240 241 242
3 243 244 245
3 246 247 248
3 249 250 251
3 252 253 254
3 255 256 257
3 258 259 260
3 261 262 263
3 264 265 266
3 267 268 269
3 270 271 272
3 273 274 275
3 276 277 278
3 279 280 281
3 282 283 284
3 285 286 287
3 288 289 290
3 291 292 293
