ply
format ascii 1.0
element vertex 564
property float x
property float y
property float z
property float nx
property float ny
property float nz
element face 188
property list uint uint vertex_indices
end_header
111.315 137.706 158.51 -0.147316 -0.516317 -0.843632
112.231 137.624 158.399 -0.147316 -0.516317 -0.843632
112.07 137.438 158.541 -0.147316 -0.516317 -0.843632
111.33 137.445 158.757 -0.210739 -0.678681 -0.703549
111.315 137.706 158.51 -0.210739 -0.678681 -0.703549
112.07 137.438 158.541 -0.210739 -0.678681 -0.703549
112.231 137.624 158.399 0.236967 -0.416422 -0.877747
113.288 137.651 158.672 0.236967 -0.416422 -0.877747
113.047 137.318 158.765 0.236967 -0.416422 -0.877747
112.07 137.438 158.541 0.0918612 -0.652574 -0.752136
112.231 137.624 158.399 0.0918612 -0.652574 -0.752136
113.047 137.318 158.765 0.0918612 -0.652574 -0.752136
111.065 138.534 158.697 -0.469363 0.0575578 -0.881127
111.487 138.298 158.457 -0.469363 0.0575578 -0.881127
111.315 137.706 158.51 -0.469363 0.0575578 -0.881127
111.487 138.298 158.457 0.187744 0.287146 -0.939308
112.436 137.9 158.525 0.187744 0.287146 -0.939308
112.231 137.624 158.399 0.187744 0.287146 -0.939308
111.487 138.298 158.457 -0.123827 -0.052574 -0.99091
112.231 137.624 158.399 -0.123827 -0.052574 -0.99091
111.315 137.706 158.51 -0.123827 -0.052574 -0.99091
113.288 137.651 158.672 0.23572 0.251131 -0.938813
112.231 137.624 158.399 0.23572 0.251131 -0.938813
112.436 137.9 158.525 0.23572 0.251131 -0.938813
113.182 137.88 158.651 0.167117 -0.0122335 -0.985861
113.288 137.651 158.672 0.167117 -0.0122335 -0.985861
112.436 137.9 158.525 0.167117 -0.0122335 -0.985861
111.487 138.298 158.457 -0.492358 0.00539679 -0.870376
111.065 138.534 158.697 -0.492358 0.00539679 -0.870376
111.332 138.744 158.547 -0.492358 0.00539679 -0.870376
111.33 137.445 158.757 -0.565468 -0.760461 -0.319289
111.225 137.208 159.507 -0.565468 -0.760461 -0.319289
110.796 137.602 159.328 -0.565468 -0.760461 -0.319289
111.315 137.706 158.51 -0.691683 -0.517156 -0.504107
111.33 137.445 158.757 -0.691683 -0.517156 -0.504107
110.796 137.602 159.328 -0.691683 -0.517156 -0.504107
112.07 137.438 158.541 -0.11419 -0.924164 -0.36453
112.11 137.127 159.319 -0.11419 -0.924164 -0.36453
111.33 137.445 158.757 -0.11419 -0.924164 -0.36453
111.33 137.445 158.757 -0.153177 -0.935969 -0.317016
112.11 137.127 159.319 -0.153177 -0.935969 -0.317016
111.225 137.208 159.507 -0.153177 -0.935969 -0.317016
112.925 136.753 159.396 0.425181 -0.713572 -0.556809
113.047 137.318 158.765 0.425181 -0.713572 -0.556809
113.268 136.705 159.719 0.425181 -0.713572 -0.556809
112.925 136.753 159.396 -0.255452 -0.695027 -0.672073
112.11 137.127 159.319 -0.255452 -0.695027 -0.672073
113.047 137.318 158.765 -0.255452 -0.695027 -0.672073
112.11 137.127 159.319 -0.0295864 -0.928344 -0.370543
112.07 137.438 158.541 -0.0295864 -0.928344 -0.370543
113.047 137.318 158.765 -0.0295864 -0.928344 -0.370543
113.047 137.318 158.765 0.566249 -0.57459 -0.590938
113.288 137.651 158.672 0.566249 -0.57459 -0.590938
114.061 137.522 159.538 0.566249 -0.57459 -0.590938
113.047 137.318 158.765 0.541287 -0.644867 -0.539587
114.061 137.522 159.538 0.541287 -0.644867 -0.539587
113.268 136.705 159.719 0.541287 -0.644867 -0.539587
111.315 137.706 158.51 -0.830355 -0.127997 -0.542336
110.796 137.602 159.328 -0.830355 -0.127997 -0.542336
111.065 138.534 158.697 -0.830355 -0.127997 -0.542336
110.796 137.602 159.328 -0.903175 -0.0297871 -0.428238
110.673 138.411 159.531 -0.903175 -0.0297871 -0.428238
111.065 138.534 158.697 -0.903175 -0.0297871 -0.428238
112.436 137.9 158.525 0.247417 0.442417 -0.862005
111.487 138.298 158.457 0.247417 0.442417 -0.862005
112.153 138.759 158.884 0.247417 0.442417 -0.862005
112.436 137.9 158.525 0.159646 0.47454 -0.865635
113.127 138.583 159.027 0.159646 0.47454 -0.865635
113.182 137.88 158.651 0.159646 0.47454 -0.865635
112.153 138.759 158.884 0.206584 0.434998 -0.876413
113.127 138.583 159.027 0.206584 0.434998 -0.876413
112.436 137.9 158.525 0.206584 0.434998 -0.876413
113.182 137.88 158.651 0.529665 0.431068 -0.730503
113.127 138.583 159.027 0.529665 0.431068 -0.730503
113.615 138.38 159.26 0.529665 0.431068 -0.730503
113.288 137.651 158.672 0.678569 0.252665 -0.689713
113.182 137.88 158.651 0.678569 0.252665 -0.689713
113.615 138.38 159.26 0.678569 0.252665 -0.689713
113.288 137.651 158.672 0.620769 0.304845 -0.722298
113.615 138.38 159.26 0.620769 0.304845 -0.722298
114.12 137.895 159.489 0.620769 0.304845 -0.722298
113.288 137.651 158.672 0.715947 -0.200677 -0.668692
114.12 137.895 159.489 0.715947 -0.200677 -0.668692
114.061 137.522 159.538 0.715947 -0.200677 -0.668692
111.402 139.469 158.869 -0.655663 0.358745 -0.664386
111.332 138.744 158.547 -0.655663 0.358745 -0.664386
111.065 138.534 158.697 -0.655663 0.358745 -0.664386
111.402 139.469 158.869 -0.826374 0.375411 -0.419729
111.065 138.534 158.697 -0.826374 0.375411 -0.419729
111.019 139.361 159.528 -0.826374 0.375411 -0.419729
111.019 139.361 159.528 -0.875748 0.316895 -0.364203
111.065 138.534 158.697 -0.875748 0.316895 -0.364203
110.673 138.411 159.531 -0.875748 0.316895 -0.364203
111.332 138.744 158.547 0.357163 0.303471 -0.883368
112.153 138.759 158.884 0.357163 0.303471 -0.883368
111.487 138.298 158.457 0.357163 0.303471 -0.883368
111.332 138.744 158.547 0.350185 0.351018 -0.868422
111.402 139.469 158.869 0.350185 0.351018 -0.868422
112.153 138.759 158.884 0.350185 0.351018 -0.868422
111.402 139.469 158.869 0.183227 0.172299 -0.967854
112.302 139.699 159.08 0.183227 0.172299 -0.967854
112.153 138.759 158.884 0.183227 0.172299 -0.967854
113.127 138.583 159.027 0.169065 0.147627 -0.974486
112.153 138.759 158.884 0.169065 0.147627 -0.974486
113.103 139.563 159.171 0.169065 0.147627 -0.974486
113.103 139.563 159.171 0.141259 0.180118 -0.973449
112.153 138.759 158.884 0.141259 0.180118 -0.973449
112.302 139.699 159.08 0.141259 0.180118 -0.973449
113.659 139.338 159.508 0.489248 0.197461 -0.849497
113.615 138.38 159.26 0.489248 0.197461 -0.849497
113.127 138.583 159.027 0.489248 0.197461 -0.849497
113.103 139.563 159.171 0.553315 0.134833 -0.821987
113.659 139.338 159.508 0.553315 0.134833 -0.821987
113.127 138.583 159.027 0.553315 0.134833 -0.821987
111.402 139.469 158.869 -0.855703 0.238484 -0.459236
111.019 139.361 159.528 -0.855703 0.238484 -0.459236
111.294 140.147 159.423 -0.855703 0.238484 -0.459236
111.294 140.147 159.423 -0.395937 0.488789 -0.77738
111.589 140.661 159.596 -0.395937 0.488789 -0.77738
112.039 140.445 159.231 -0.395937 0.488789 -0.77738
111.294 140.147 159.423 -0.405836 0.538801 -0.738235
112.039 140.445 159.231 -0.405836 0.538801 -0.738235
111.402 139.469 158.869 -0.405836 0.538801 -0.738235
111.402 139.469 158.869 0.160435 0.249547 -0.95498
112.039 140.445 159.231 0.160435 0.249547 -0.95498
112.302 139.699 159.08 0.160435 0.249547 -0.95498
113.103 139.563 159.171 0.131051 0.112769 -0.984941
112.302 139.699 159.08 0.131051 0.112769 -0.984941
112.978 140.49 159.26 0.131051 0.112769 -0.984941
112.978 140.49 159.26 0.0212844 0.205182 -0.978492
112.302 139.699 159.08 0.0212844 0.205182 -0.978492
112.039 140.445 159.231 0.0212844 0.205182 -0.978492
113.592 140.307 159.56 0.54114 0.0823413 -0.836891
113.659 139.338 159.508 0.54114 0.0823413 -0.836891
113.103 139.563 159.171 0.54114 0.0823413 -0.836891
112.978 140.49 159.26 0.469436 0.147082 -0.87063
113.592 140.307 159.56 0.469436 0.147082 -0.87063
113.103 139.563 159.171 0.469436 0.147082 -0.87063
112.413 141.271 159.477 -0.433969 0.432056 -0.790569
112.039 140.445 159.231 -0.433969 0.432056 -0.790569
111.589 140.661 159.596 -0.433969 0.432056 -0.790569
112.123 141.4 159.749 -0.469155 0.490589 -0.734313
112.413 141.271 159.477 -0.469155 0.490589 -0.734313
111.589 140.661 159.596 -0.469155 0.490589 -0.734313
112.413 141.271 159.477 0.291855 0.445923 -0.846152
113.303 140.892 159.584 0.291855 0.445923 -0.846152
112.978 140.49 159.26 0.291855 0.445923 -0.846152
112.413 141.271 159.477 0.0171625 0.278551 -0.960268
112.978 140.49 159.26 0.0171625 0.278551 -0.960268
112.039 140.445 159.231 0.0171625 0.278551 -0.960268
113.592 140.307 159.56 0.487167 0.274781 -0.828953
112.978 140.49 159.26 0.487167 0.274781 -0.828953
113.303 140.892 159.584 0.487167 0.274781 -0.828953
112.413 141.271 159.477 -0.347052 0.647288 -0.678656
112.123 141.4 159.749 -0.347052 0.647288 -0.678656
112.495 141.61 159.758 -0.347052 0.647288 -0.678656
111.547 136.625 160.371 -0.158911 -0.947621 -0.277061
112.356 136.597 160.001 -0.158911 -0.947621 -0.277061
112.457 136.442 160.476 -0.158911 -0.947621 -0.277061
112.356 136.597 160.001 0.0534602 -0.978093 -0.201186
112.925 136.753 159.396 0.0534602 -0.978093 -0.201186
113.268 136.705 159.719 0.0534602 -0.978093 -0.201186
112.356 136.597 160.001 0.0149841 -0.94914 -0.314497
113.268 136.705 159.719 0.0149841 -0.94914 -0.314497
112.457 136.442 160.476 0.0149841 -0.94914 -0.314497
112.457 136.442 160.476 0.0227815 -0.951454 -0.306946
113.268 136.705 159.719 0.0227815 -0.951454 -0.306946
113.163 136.467 160.449 0.0227815 -0.951454 -0.306946
113.56 136.746 160.634 0.617191 -0.769893 -0.162298
113.163 136.467 160.449 0.617191 -0.769893 -0.162298
113.268 136.705 159.719 0.617191 -0.769893 -0.162298
111.225 137.208 159.507 -0.236352 -0.84405 -0.48137
111.547 136.625 160.371 -0.236352 -0.84405 -0.48137
111.057 136.88 160.163 -0.236352 -0.84405 -0.48137
111.225 137.208 159.507 -0.47193 -0.734871 -0.48708
111.057 136.88 160.163 -0.47193 -0.734871 -0.48708
110.796 137.602 159.328 -0.47193 -0.734871 -0.48708
110.796 137.602 159.328 -0.950494 -0.309325 0.029637
111.057 136.88 160.163 -0.950494 -0.309325 0.029637
110.834 137.574 160.262 -0.950494 -0.309325 0.029637
112.11 137.127 159.319 -0.184049 -0.845247 -0.501681
111.547 136.625 160.371 -0.184049 -0.845247 -0.501681
111.225 137.208 159.507 -0.184049 -0.845247 -0.501681
112.356 136.597 160.001 -0.268802 -0.805506 -0.528115
111.547 136.625 160.371 -0.268802 -0.805506 -0.528115
112.11 137.127 159.319 -0.268802 -0.805506 -0.528115
112.925 136.753 159.396 -0.319754 -0.800936 -0.50622
112.356 136.597 160.001 -0.319754 -0.800936 -0.50622
112.11 137.127 159.319 -0.319754 -0.800936 -0.50622
113.268 136.705 159.719 0.635634 -0.753282 -0.168924
114.105 137.282 160.298 0.635634 -0.753282 -0.168924
113.56 136.746 160.634 0.635634 -0.753282 -0.168924
114.061 137.522 159.538 0.663378 -0.701434 -0.260616
114.105 137.282 160.298 0.663378 -0.701434 -0.260616
113.268 136.705 159.719 0.663378 -0.701434 -0.260616
114.344 137.728 160.583 0.909981 -0.377037 -0.172562
114.105 137.282 160.298 0.909981 -0.377037 -0.172562
114.061 137.522 159.538 0.909981 -0.377037 -0.172562
110.796 137.602 159.328 -0.986633 -0.159025 0.0355774
110.834 137.574 160.262 -0.986633 -0.159025 0.0355774
110.673 138.411 159.531 -0.986633 -0.159025 0.0355774
110.834 137.574 160.262 -0.975261 0.00514737 0.220999
110.876 138.62 160.423 -0.975261 0.00514737 0.220999
110.673 138.411 159.531 -0.975261 0.00514737 0.220999
114.12 137.895 159.489 0.65864 0.378104 -0.650563
113.615 138.38 159.26 0.65864 0.378104 -0.650563
114.182 138.657 159.996 0.65864 0.378104 -0.650563
114.12 137.895 159.489 0.919241 0.162746 -0.358482
114.182 138.657 159.996 0.919241 0.162746 -0.358482
114.359 138.373 160.321 0.919241 0.162746 -0.358482
114.12 137.895 159.489 0.968127 -0.176672 -0.177533
114.359 138.373 160.321 0.968127 -0.176672 -0.177533
114.061 137.522 159.538 0.968127 -0.176672 -0.177533
114.061 137.522 159.538 0.963919 -0.119708 -0.237762
114.359 138.373 160.321 0.963919 -0.119708 -0.237762
114.344 137.728 160.583 0.963919 -0.119708 -0.237762
110.673 138.411 159.531 -0.93138 0.339013 0.132669
110.876 138.62 160.423 -0.93138 0.339013 0.132669
111.019 139.361 159.528 -0.93138 0.339013 0.132669
110.876 138.62 160.423 -0.973775 0.225293 0.0317222
111.063 139.433 160.38 -0.973775 0.225293 0.0317222
111.019 139.361 159.528 -0.973775 0.225293 0.0317222
114.182 138.657 159.996 0.782706 0.173957 -0.597587
113.659 139.338 159.508 0.782706 0.173957 -0.597587
114.292 139.568 160.405 0.782706 0.173957 -0.597587
113.615 138.38 159.26 0.76079 0.129684 -0.635909
113.659 139.338 159.508 0.76079 0.129684 -0.635909
114.182 138.657 159.996 0.76079 0.129684 -0.635909
114.292 139.568 160.405 0.903199 0.0803295 -0.421637
114.359 138.373 160.321 0.903199 0.0803295 -0.421637
114.182 138.657 159.996 0.903199 0.0803295 -0.421637
111.019 139.361 159.528 -0.923342 0.383652 0.0158246
111.063 139.433 160.38 -0.923342 0.383652 0.0158246
111.241 139.869 160.202 -0.923342 0.383652 0.0158246
111.294 140.147 159.423 -0.939881 0.336788 0.0565539
111.019 139.361 159.528 -0.939881 0.336788 0.0565539
111.241 139.869 160.202 -0.939881 0.336788 0.0565539
111.241 139.869 160.202 -0.877267 0.467794 0.107569
111.589 140.661 159.596 -0.877267 0.467794 0.107569
111.294 140.147 159.423 -0.877267 0.467794 0.107569
111.831 140.612 160.41 -0.789715 0.551873 0.267928
111.589 140.661 159.596 -0.789715 0.551873 0.267928
111.241 139.869 160.202 -0.789715 0.551873 0.267928
114.292 139.568 160.405 0.774487 0.0110253 -0.632494
113.592 140.307 159.56 0.774487 0.0110253 -0.632494
114.108 140.78 160.201 0.774487 0.0110253 -0.632494
113.659 139.338 159.508 0.802982 0.0870625 -0.58961
113.592 140.307 159.56 0.802982 0.0870625 -0.58961
114.292 139.568 160.405 0.802982 0.0870625 -0.58961
114.108 140.78 160.201 0.821133 0.0286344 -0.570018
114.394 140.617 160.605 0.821133 0.0286344 -0.570018
114.292 139.568 160.405 0.821133 0.0286344 -0.570018
111.589 140.661 159.596 -0.805996 0.526136 0.271203
111.831 140.612 160.41 -0.805996 0.526136 0.271203
112.123 141.4 159.749 -0.805996 0.526136 0.271203
111.831 140.612 160.41 -0.906297 0.41256 0.0917598
112.185 141.36 160.54 -0.906297 0.41256 0.0917598
112.123 141.4 159.749 -0.906297 0.41256 0.0917598
113.303 140.892 159.584 0.348595 0.620087 -0.702832
112.413 141.271 159.477 0.348595 0.620087 -0.702832
113.289 141.452 160.072 0.348595 0.620087 -0.702832
113.303 140.892 159.584 0.602549 0.327615 -0.727739
114.108 140.78 160.201 0.602549 0.327615 -0.727739
113.592 140.307 159.56 0.602549 0.327615 -0.727739
113.303 140.892 159.584 0.553082 0.554504 -0.621792
113.289 141.452 160.072 0.553082 0.554504 -0.621792
114.108 140.78 160.201 0.553082 0.554504 -0.621792
113.289 141.452 160.072 0.327701 0.222769 -0.918143
114.063 141.511 160.362 0.327701 0.222769 -0.918143
114.108 140.78 160.201 0.327701 0.222769 -0.918143
114.325 141.378 160.433 0.802803 -0.0605673 -0.59316
114.394 140.617 160.605 0.802803 -0.0605673 -0.59316
114.108 140.78 160.201 0.802803 -0.0605673 -0.59316
114.063 141.511 160.362 0.359504 0.222131 -0.906319
114.325 141.378 160.433 0.359504 0.222131 -0.906319
114.108 140.78 160.201 0.359504 0.222131 -0.906319
112.123 141.4 159.749 -0.756006 0.648097 0.0917927
112.185 141.36 160.54 -0.756006 0.648097 0.0917927
112.376 141.621 160.268 -0.756006 0.648097 0.0917927
112.495 141.61 159.758 -0.484226 0.864826 -0.132671
112.123 141.4 159.749 -0.484226 0.864826 -0.132671
112.376 141.621 160.268 -0.484226 0.864826 -0.132671
113.289 141.452 160.072 0.400001 0.526691 -0.750064
112.413 141.271 159.477 0.400001 0.526691 -0.750064
112.495 141.61 159.758 0.400001 0.526691 -0.750064
113.289 141.452 160.072 0.340959 0.825286 -0.450167
112.495 141.61 159.758 0.340959 0.825286 -0.450167
113.228 141.659 160.404 0.340959 0.825286 -0.450167
113.228 141.659 160.404 -0.0387493 0.998734 -0.0320894
112.495 141.61 159.758 -0.0387493 0.998734 -0.0320894
112.376 141.621 160.268 -0.0387493 0.998734 -0.0320894
114.063 141.511 160.362 0.125569 0.8528 -0.506916
113.289 141.452 160.072 0.125569 0.8528 -0.506916
113.228 141.659 160.404 0.125569 0.8528 -0.506916
114.095 141.599 160.515 0.124647 0.849314 -0.512962
114.063 141.511 160.362 0.124647 0.849314 -0.512962
113.228 141.659 160.404 0.124647 0.849314 -0.512962
114.325 141.378 160.433 0.496657 0.704613 -0.506806
114.063 141.511 160.362 0.496657 0.704613 -0.506806
114.095 141.599 160.515 0.496657 0.704613 -0.506806
111.547 136.625 160.371 -0.499467 -0.857527 0.123209
111.231 136.847 160.639 -0.499467 -0.857527 0.123209
111.057 136.88 160.163 -0.499467 -0.857527 0.123209
111.885 136.647 161.181 -0.439355 -0.874012 0.207536
111.231 136.847 160.639 -0.439355 -0.874012 0.207536
111.547 136.625 160.371 -0.439355 -0.874012 0.207536
111.885 136.647 161.181 -0.349314 -0.921218 0.171281
111.547 136.625 160.371 -0.349314 -0.921218 0.171281
112.316 136.488 161.201 -0.349314 -0.921218 0.171281
112.316 136.488 161.201 -0.199935 -0.979533 0.023267
111.547 136.625 160.371 -0.199935 -0.979533 0.023267
112.457 136.442 160.476 -0.199935 -0.979533 0.023267
113.163 136.467 160.449 0.0372691 -0.998914 0.0279582
113.097 136.484 161.124 0.0372691 -0.998914 0.0279582
112.457 136.442 160.476 0.0372691 -0.998914 0.0279582
112.457 136.442 160.476 0.00118989 -0.997983 0.0634747
113.097 136.484 161.124 0.00118989 -0.997983 0.0634747
112.316 136.488 161.201 0.00118989 -0.997983 0.0634747
113.097 136.484 161.124 0.550031 -0.831836 0.0742637
113.163 136.467 160.449 0.550031 -0.831836 0.0742637
113.56 136.746 160.634 0.550031 -0.831836 0.0742637
113.393 136.75 161.315 0.60485 -0.78149 0.153068
113.097 136.484 161.124 0.60485 -0.78149 0.153068
113.56 136.746 160.634 0.60485 -0.78149 0.153068
111.231 136.847 160.639 -0.864263 -0.243564 0.440143
111.131 137.731 160.932 -0.864263 -0.243564 0.440143
110.834 137.574 160.262 -0.864263 -0.243564 0.440143
111.057 136.88 160.163 -0.893603 -0.330263 0.303973
111.231 136.847 160.639 -0.893603 -0.330263 0.303973
110.834 137.574 160.262 -0.893603 -0.330263 0.303973
111.606 137.36 161.296 -0.657762 -0.36437 0.65923
111.231 136.847 160.639 -0.657762 -0.36437 0.65923
111.885 136.647 161.181 -0.657762 -0.36437 0.65923
111.131 137.731 160.932 -0.715479 -0.291207 0.63505
111.231 136.847 160.639 -0.715479 -0.291207 0.63505
111.606 137.36 161.296 -0.715479 -0.291207 0.63505
114.211 137.44 160.92 0.716423 -0.695554 0.0542522
113.56 136.746 160.634 0.716423 -0.695554 0.0542522
114.105 137.282 160.298 0.716423 -0.695554 0.0542522
114.211 137.44 160.92 0.578502 -0.709352 0.402685
113.966 137.463 161.313 0.578502 -0.709352 0.402685
113.56 136.746 160.634 0.578502 -0.709352 0.402685
113.966 137.463 161.313 0.765027 -0.614898 0.191401
113.393 136.75 161.315 0.765027 -0.614898 0.191401
113.56 136.746 160.634 0.765027 -0.614898 0.191401
114.105 137.282 160.298 0.890665 -0.453141 -0.0371407
114.344 137.728 160.583 0.890665 -0.453141 -0.0371407
114.211 137.44 160.92 0.890665 -0.453141 -0.0371407
111.131 137.731 160.932 -0.918902 -0.0385245 0.3926
111.147 138.548 161.05 -0.918902 -0.0385245 0.3926
110.876 138.62 160.423 -0.918902 -0.0385245 0.3926
110.834 137.574 160.262 -0.91162 -0.0263648 0.410187
111.131 137.731 160.932 -0.91162 -0.0263648 0.410187
110.876 138.62 160.423 -0.91162 -0.0263648 0.410187
111.522 138.354 161.348 -0.651527 -0.0936819 0.752819
111.131 137.731 160.932 -0.651527 -0.0936819 0.752819
111.606 137.36 161.296 -0.651527 -0.0936819 0.752819
111.147 138.548 161.05 -0.648973 -0.096516 0.754664
111.131 137.731 160.932 -0.648973 -0.096516 0.754664
111.522 138.354 161.348 -0.648973 -0.096516 0.754664
114.211 137.44 160.92 0.711533 -0.518102 0.474648
114.304 137.866 161.246 0.711533 -0.518102 0.474648
113.966 137.463 161.313 0.711533 -0.518102 0.474648
114.304 137.866 161.246 0.947543 -0.296633 0.11904
114.211 137.44 160.92 0.947543 -0.296633 0.11904
114.344 137.728 160.583 0.947543 -0.296633 0.11904
114.304 137.866 161.246 0.987031 0.15828 0.0267756
114.344 137.728 160.583 0.987031 0.15828 0.0267756
114.196 138.504 161.437 0.987031 0.15828 0.0267756
114.196 138.504 161.437 0.989481 0.0333062 0.140775
114.344 137.728 160.583 0.989481 0.0333062 0.140775
114.359 138.373 160.321 0.989481 0.0333062 0.140775
111.147 138.548 161.05 -0.885072 0.223873 0.408078
111.443 139.53 161.153 -0.885072 0.223873 0.408078
110.876 138.62 160.423 -0.885072 0.223873 0.408078
110.876 138.62 160.423 -0.885277 0.22474 0.407157
111.443 139.53 161.153 -0.885277 0.22474 0.407157
111.063 139.433 160.38 -0.885277 0.22474 0.407157
111.522 138.354 161.348 -0.588709 0.0934107 0.80293
111.443 139.53 161.153 -0.588709 0.0934107 0.80293
111.147 138.548 161.05 -0.588709 0.0934107 0.80293
114.359 138.373 160.321 0.989193 0.0458676 0.139259
114.292 139.568 160.405 0.989193 0.0458676 0.139259
114.196 138.504 161.437 0.989193 0.0458676 0.139259
114.196 138.504 161.437 0.990233 -0.132181 -0.0443381
114.292 139.568 160.405 0.990233 -0.132181 -0.0443381
114.36 139.78 161.298 0.990233 -0.132181 -0.0443381
111.241 139.869 160.202 -0.813471 0.471413 0.340639
111.063 139.433 160.38 -0.813471 0.471413 0.340639
111.443 139.53 161.153 -0.813471 0.471413 0.340639
111.443 139.53 161.153 -0.778869 0.52006 0.350573
111.831 140.612 160.41 -0.778869 0.52006 0.350573
111.241 139.869 160.202 -0.778869 0.52006 0.350573
112.053 140.645 161.161 -0.85378 0.46585 0.232472
111.831 140.612 160.41 -0.85378 0.46585 0.232472
111.443 139.53 161.153 -0.85378 0.46585 0.232472
114.251 140.702 161.2 0.54917 0.457495 0.699365
113.944 140.775 161.393 0.54917 0.457495 0.699365
114.185 140.342 161.487 0.54917 0.457495 0.699365
114.251 140.702 161.2 0.905259 0.14975 0.397595
114.185 140.342 161.487 0.905259 0.14975 0.397595
114.36 139.78 161.298 0.905259 0.14975 0.397595
114.251 140.702 161.2 0.967341 0.137362 0.213034
114.36 139.78 161.298 0.967341 0.137362 0.213034
114.394 140.617 160.605 0.967341 0.137362 0.213034
114.394 140.617 160.605 0.994712 -0.0863815 -0.0555599
114.36 139.78 161.298 0.994712 -0.0863815 -0.0555599
114.292 139.568 160.405 0.994712 -0.0863815 -0.0555599
112.346 141.085 161.216 -0.57385 0.701694 0.422282
112.566 141.527 160.78 -0.57385 0.701694 0.422282
112.185 141.36 160.54 -0.57385 0.701694 0.422282
112.346 141.085 161.216 -0.790953 0.477447 0.382673
112.185 141.36 160.54 -0.790953 0.477447 0.382673
112.053 140.645 161.161 -0.790953 0.477447 0.382673
112.053 140.645 161.161 -0.891779 0.378761 0.247527
112.185 141.36 160.54 -0.891779 0.378761 0.247527
111.831 140.612 160.41 -0.891779 0.378761 0.247527
112.566 141.527 160.78 -0.0686618 0.785731 0.614745
113.101 141.14 161.335 -0.0686618 0.785731 0.614745
113.541 141.431 161.012 -0.0686618 0.785731 0.614745
112.346 141.085 161.216 -0.157881 0.731704 0.663086
113.101 141.14 161.335 -0.157881 0.731704 0.663086
112.566 141.527 160.78 -0.157881 0.731704 0.663086
113.944 140.775 161.393 0.196437 0.579636 0.790844
113.541 141.431 161.012 0.196437 0.579636 0.790844
113.101 141.14 161.335 0.196437 0.579636 0.790844
113.944 140.775 161.393 0.511435 0.643887 0.569072
114.251 140.702 161.2 0.511435 0.643887 0.569072
113.541 141.431 161.012 0.511435 0.643887 0.569072
114.251 140.702 161.2 0.420362 0.586884 0.691999
114.248 141.364 160.64 0.420362 0.586884 0.691999
113.541 141.431 161.012 0.420362 0.586884 0.691999
114.394 140.617 160.605 0.921656 0.163603 0.351831
114.325 141.378 160.433 0.921656 0.163603 0.351831
114.248 141.364 160.64 0.921656 0.163603 0.351831
114.251 140.702 161.2 0.962181 0.178313 0.20594
114.394 140.617 160.605 0.962181 0.178313 0.20594
114.248 141.364 160.64 0.962181 0.178313 0.20594
112.185 141.36 160.54 -0.550394 0.760589 0.344341
112.566 141.527 160.78 -0.550394 0.760589 0.344341
112.376 141.621 160.268 -0.550394 0.760589 0.344341
113.228 141.659 160.404 -0.0759109 0.975228 0.207767
112.376 141.621 160.268 -0.0759109 0.975228 0.207767
112.566 141.527 160.78 -0.0759109 0.975228 0.207767
113.541 141.431 161.012 0.0101086 0.938168 0.346034
113.228 141.659 160.404 0.0101086 0.938168 0.346034
112.566 141.527 160.78 0.0101086 0.938168 0.346034
114.095 141.599 160.515 0.0217026 0.939918 0.340709
113.228 141.659 160.404 0.0217026 0.939918 0.340709
113.541 141.431 161.012 0.0217026 0.939918 0.340709
114.248 141.364 160.64 0.410175 0.622939 0.666111
114.095 141.599 160.515 0.410175 0.622939 0.666111
113.541 141.431 161.012 0.410175 0.622939 0.666111
114.325 141.378 160.433 0.713496 0.630308 0.306
114.095 141.599 160.515 0.713496 0.630308 0.306
114.248 141.364 160.64 0.713496 0.630308 0.306
112.316 136.488 161.201 -0.248717 -0.574067 0.78012
112.33 136.811 161.444 -0.248717 -0.574067 0.78012
111.885 136.647 161.181 -0.248717 -0.574067 0.78012
112.316 136.488 161.201 0.0409491 -0.885964 0.461942
113.097 136.484 161.124 0.0409491 -0.885964 0.461942
113.033 136.636 161.422 0.0409491 -0.885964 0.461942
112.33 136.811 161.444 -0.122931 -0.591978 0.796524
112.316 136.488 161.201 -0.122931 -0.591978 0.796524
113.033 136.636 161.422 -0.122931 -0.591978 0.796524
113.097 136.484 161.124 0.392285 -0.782104 0.484176
113.393 136.75 161.315 0.392285 -0.782104 0.484176
113.033 136.636 161.422 0.392285 -0.782104 0.484176
112.33 136.811 161.444 -0.243238 -0.0615395 0.968012
112.295 137.731 161.493 -0.243238 -0.0615395 0.968012
111.606 137.36 161.296 -0.243238 -0.0615395 0.968012
111.885 136.647 161.181 -0.401116 -0.297162 0.866488
112.33 136.811 161.444 -0.401116 -0.297162 0.866488
111.606 137.36 161.296 -0.401116 -0.297162 0.866488
113.033 136.636 161.422 0.00602475 -0.0985866 0.99511
113.259 137.462 161.502 0.00602475 -0.0985866 0.99511
112.33 136.811 161.444 0.00602475 -0.0985866 0.99511
113.259 137.462 161.502 -0.0249168 -0.0547478 0.998189
112.295 137.731 161.493 -0.0249168 -0.0547478 0.998189
112.33 136.811 161.444 -0.0249168 -0.0547478 0.998189
113.393 136.75 161.315 0.25361 -0.201592 0.946067
113.966 137.463 161.313 0.25361 -0.201592 0.946067
113.259 137.462 161.502 0.25361 -0.201592 0.946067
113.033 136.636 161.422 0.332556 -0.181407 0.925472
113.393 136.75 161.315 0.332556 -0.181407 0.925472
113.259 137.462 161.502 0.332556 -0.181407 0.925472
112.295 137.731 161.493 -0.195603 -0.0135828 0.980589
112.269 138.76 161.502 -0.195603 -0.0135828 0.980589
111.522 138.354 161.348 -0.195603 -0.0135828 0.980589
111.606 137.36 161.296 -0.238806 -0.0700503 0.968537
112.295 137.731 161.493 -0.238806 -0.0700503 0.968537
111.522 138.354 161.348 -0.238806 -0.0700503 0.968537
113.259 137.462 161.502 -0.0351007 -0.0914057 0.995195
113.26 138.556 161.603 -0.0351007 -0.0914057 0.995195
112.295 137.731 161.493 -0.0351007 -0.0914057 0.995195
113.26 138.556 161.603 -0.103471 -0.0113422 0.994568
112.269 138.76 161.502 -0.103471 -0.0113422 0.994568
112.295 137.731 161.493 -0.103471 -0.0113422 0.994568
113.966 137.463 161.313 0.410307 -0.196689 0.890484
114.304 137.866 161.246 0.410307 -0.196689 0.890484
114.196 138.504 161.437 0.410307 -0.196689 0.890484
113.966 137.463 161.313 0.255161 -0.169626 0.951903
114.196 138.504 161.437 0.255161 -0.169626 0.951903
113.259 137.462 161.502 0.255161 -0.169626 0.951903
113.259 137.462 161.502 0.168923 -0.0901815 0.981495
114.196 138.504 161.437 0.168923 -0.0901815 0.981495
113.26 138.556 161.603 0.168923 -0.0901815 0.981495
111.443 139.53 161.153 -0.272766 0.139137 0.951966
111.522 138.354 161.348 -0.272766 0.139137 0.951966
112.269 138.76 161.502 -0.272766 0.139137 0.951966
111.443 139.53 161.153 -0.362346 0.0339033 0.931427
112.269 138.76 161.502 -0.362346 0.0339033 0.931427
112.376 139.69 161.51 -0.362346 0.0339033 0.931427
113.26 138.556 161.603 -0.107924 -0.0334498 0.993596
113.151 139.458 161.621 -0.107924 -0.0334498 0.993596
112.269 138.76 161.502 -0.107924 -0.0334498 0.993596
113.151 139.458 161.621 -0.139968 0.00765608 0.990126
112.376 139.69 161.51 -0.139968 0.00765608 0.990126
112.269 138.76 161.502 -0.139968 0.00765608 0.990126
114.196 138.504 161.437 0.153122 -0.273034 0.94974
114.017 139.547 161.766 0.153122 -0.273034 0.94974
113.26 138.556 161.603 0.153122 -0.273034 0.94974
114.017 139.547 161.766 -0.160047 -0.0395764 0.986316
113.151 139.458 161.621 -0.160047 -0.0395764 0.986316
113.26 138.556 161.603 -0.160047 -0.0395764 0.986316
114.196 138.504 161.437 0.815265 -0.0420839 0.577557
114.36 139.78 161.298 0.815265 -0.0420839 0.577557
114.017 139.547 161.766 0.815265 -0.0420839 0.577557
112.053 140.645 161.161 -0.566332 0.30478 0.765752
111.443 139.53 161.153 -0.566332 0.30478 0.765752
112.338 140.508 161.426 -0.566332 0.30478 0.765752
112.338 140.508 161.426 -0.368064 0.0784707 0.926483
111.443 139.53 161.153 -0.368064 0.0784707 0.926483
112.376 139.69 161.51 -0.368064 0.0784707 0.926483
113.151 139.458 161.621 -0.111883 0.10075 0.988601
113.334 140.378 161.548 -0.111883 0.10075 0.988601
112.376 139.69 161.51 -0.111883 0.10075 0.988601
113.334 140.378 161.548 -0.109144 0.0969001 0.989292
112.338 140.508 161.426 -0.109144 0.0969001 0.989292
112.376 139.69 161.51 -0.109144 0.0969001 0.989292
114.185 140.342 161.487 0.0800516 0.253908 0.96391
113.944 140.775 161.393 0.0800516 0.253908 0.96391
113.334 140.378 161.548 0.0800516 0.253908 0.96391
114.185 140.342 161.487 0.0812967 0.313861 0.945982
113.334 140.378 161.548 0.0812967 0.313861 0.945982
114.017 139.547 161.766 0.0812967 0.313861 0.945982
114.017 139.547 161.766 -0.174264 0.112336 0.97827
113.334 140.378 161.548 -0.174264 0.112336 0.97827
113.151 139.458 161.621 -0.174264 0.112336 0.97827
114.36 139.78 161.298 0.794377 0.0449587 0.605759
114.185 140.342 161.487 0.794377 0.0449587 0.605759
114.017 139.547 161.766 0.794377 0.0449587 0.605759
112.053 140.645 161.161 -0.575327 0.286604 0.766066
112.338 140.508 161.426 -0.575327 0.286604 0.766066
112.346 141.085 161.216 -0.575327 0.286604 0.766066
113.101 141.14 161.335 -0.170832 0.339243 0.925057
112.346 141.085 161.216 -0.170832 0.339243 0.925057
112.338 140.508 161.426 -0.170832 0.339243 0.925057
113.334 140.378 161.548 -0.0870194 0.243994 0.965865
113.101 141.14 161.335 -0.0870194 0.243994 0.965865
112.338 140.508 161.426 -0.0870194 0.243994 0.965865
113.944 140.775 161.393 0.0575329 0.28567 0.956599
113.101 141.14 161.335 0.0575329 0.28567 0.956599
113.334 140.378 161.548 0.0575329 0.28567 0.956599
3 0 1 2
3 3 4 5
3 6 7 8
3 9 10 11
3 12 13 14
3 15 16 17
3 18 19 20
3 21 22 23
3 24 25 26
3 27 28 29
3 30 31 32
3 33 34 35
3 36 37 38
3 39 40 41
3 42 43 44
3 45 46 47
3 48 49 50
3 51 52 53
3 54 55 56
3 57 58 59
3 60 61 62
3 63 64 65
3 66 67 68
3 69 70 71
3 72 73 74
3 75 76 77
3 78 79 80
3 81 82 83
3 84 85 86
3 87 88 89
3 90 91 92
3 93 94 95
3 96 97 98
3 99 100 101
3 102 103 104
3 105 106 107
3 108 109 110
3 111 112 113
3 114 115 116
3 117 118 119
3 120 121 122
3 123 124 125
3 126 127 128
3 129 130 131
3 132 133 134
3 135 136 137
3 138 139 140
3 141 142 143
3 144 145 146
3 147 148 149
3 150 151 152
3 153 154 155
3 156 157 158
3 159 160 161
3 162 163 164
3 165 166 167
3 168 169 170
3 171 172 173
3 174 175 176
3 177 178 179
3 180 181 182
3 183 184 185
3 186 187 188
3 189 190 191
3 192 193 194
3 195 196 197
3 198 199 200
3 201 202 203
3 204 205 206
3 207 208 209
3 210 211 212
3 213 214 215
3 216 217 218
3 219 220 221
3 222 223 224
3 225 226 227
3 228 229 230
3 231 232 233
3 234 235 236
3 237 238 239
3 240 241 242
3 243 244 245
3 246 247 248
3 249 250 251
3 252 253 254
3 255 256 257
3 258 259 260
3 261 262 263
3 264 265 266
3 267 268 269
3 270 271 272
3 273 274 275
3 276 277 278
3 279 280 281
3 282 283 284
3 285 286 287
3 288 289 290
3 291 292 293
3 294 295 296
3 297 298 299
3 300 301 302
3 303 304 305
3 306 307 308
3 309 310 311
3 312 313 314
3 315 316 317
3 318 319 320
3 321 322 323
3 324 325 326
3 327 328 329
3 330 331 332
3 333 334 335
3 336 337 338
3 339 340 341
3 342 343 344
3 345 346 347
3 348 349 350
3 351 352 353
3 354 355 356
3 357 358 359
3 360 361 362
3 363 364 365
3 366 367 368
3 369 370 371
3 372 373 374
3 375 376 377
3 378 379 380
3 381 382 383
3 384 385 386
3 387 388 389
3 390 391 392
3 393 394 395
3 396 397 398
3 399 400 401
3 402 403 404
3 405 406 407
3 408 409 410
3 411 412 413
3 414 415 416
3 417 418 419
3 420 421 422
3 423 424 425
3 426 427 428
3 429 430 431
3 432 433 434
3 435 436 437
3 438 439 440
3 441 442 443
3 444 445 446
3 447 448 449
3 450 451 452
3 453 454 455
3 456 457 458
3 459 460 461
3 462 463 464
3 465 466 467
3 468 469 470
3 471 472 473
3 474 475 476
3 477 478 479
3 480 481 482
3 483 484 485
3 486 487 488
3 489 490 491
3 492 493 494
3 495 496 497
3 498 499 500
3 501 502 503
3 504 505 506
3 507 508 509
3 510 511 512
3 513 514 515
3 516 517 518
3 519 520 521
3 522 523 524
3 525 526 527
3 528 529 530
3 531 532 533
3 534 535 536
3 537 538 539
3 540 541 542
3 543 544 545
3 546 547 548
3 549 550 551
3 552 553 554
3 555 556 557
3 558 559 560
3 561 562 563
