ply
format ascii 1.0
element vertex 480
property float x
property float y
property float z
property float nx
property float ny
property float nz
element face 160
property list uint uint vertex_indices
end_header
71.867 116.83 172.035 -0.623702 0.0429884 -0.78048
71.6423 116.388 172.19 -0.623702 0.0429884 -0.78048
71.4387 116.769 172.373 -0.623702 0.0429884 -0.78048
71.867 116.83 172.035 -0.146449 -0.543095 -0.826801
72.5734 116.792 171.935 -0.146449 -0.543095 -0.826801
72.52 116.407 172.197 -0.146449 -0.543095 -0.826801
71.6423 116.388 172.19 0.0149201 -0.337805 -0.941098
71.867 116.83 172.035 0.0149201 -0.337805 -0.941098
72.52 116.407 172.197 0.0149201 -0.337805 -0.941098
72.52 116.407 172.197 0.182937 -0.570835 -0.800426
72.5734 116.792 171.935 0.182937 -0.570835 -0.800426
73.1739 116.762 172.093 0.182937 -0.570835 -0.800426
71.867 116.83 172.035 -0.102343 0.440723 -0.89179
72.6696 117.37 172.209 -0.102343 0.440723 -0.89179
72.5734 116.792 171.935 -0.102343 0.440723 -0.89179
72.6696 117.37 172.209 0.253145 0.380519 -0.889451
73.1739 116.762 172.093 0.253145 0.380519 -0.889451
72.5734 116.792 171.935 0.253145 0.380519 -0.889451
71.812 115.79 172.67 -0.382876 -0.738379 -0.55516
71.72 115.478 173.149 -0.382876 -0.738379 -0.55516
71.1949 115.815 173.062 -0.382876 -0.738379 -0.55516
71.812 115.79 172.67 0.0182913 -0.803319 -0.595268
72.4621 115.778 172.706 0.0182913 -0.803319 -0.595268
72.3636 115.547 173.015 0.0182913 -0.803319 -0.595268
71.72 115.478 173.149 -0.0244377 -0.835156 -0.54947
71.812 115.79 172.67 -0.0244377 -0.835156 -0.54947
72.3636 115.547 173.015 -0.0244377 -0.835156 -0.54947
72.3636 115.547 173.015 0.552478 -0.74217 -0.379409
72.4621 115.778 172.706 0.552478 -0.74217 -0.379409
72.8319 115.858 173.089 0.552478 -0.74217 -0.379409
71.6423 116.388 172.19 -0.43204 -0.636374 -0.639038
71.812 115.79 172.67 -0.43204 -0.636374 -0.639038
71.1949 115.815 173.062 -0.43204 -0.636374 -0.639038
71.6423 116.388 172.19 -0.822629 -0.179305 -0.539566
71.1949 115.815 173.062 -0.822629 -0.179305 -0.539566
71.4387 116.769 172.373 -0.822629 -0.179305 -0.539566
71.4387 116.769 172.373 -0.933608 -0.0195961 -0.357759
71.1949 115.815 173.062 -0.933608 -0.0195961 -0.357759
71.1327 116.779 173.171 -0.933608 -0.0195961 -0.357759
72.52 116.407 172.197 0.0199055 -0.622892 -0.782054
71.812 115.79 172.67 0.0199055 -0.622892 -0.782054
71.6423 116.388 172.19 0.0199055 -0.622892 -0.782054
72.4621 115.778 172.706 0.0314797 -0.630928 -0.775202
71.812 115.79 172.67 0.0314797 -0.630928 -0.775202
72.52 116.407 172.197 0.0314797 -0.630928 -0.775202
73.1739 116.762 172.093 0.708225 -0.546143 -0.447375
73.5085 116.944 172.401 0.708225 -0.546143 -0.447375
73.4304 116.546 172.762 0.708225 -0.546143 -0.447375
72.52 116.407 172.197 0.38321 -0.826152 -0.413065
73.1739 116.762 172.093 0.38321 -0.826152 -0.413065
73.4304 116.546 172.762 0.38321 -0.826152 -0.413065
72.52 116.407 172.197 0.461378 -0.674474 -0.576381
73.4304 116.546 172.762 0.461378 -0.674474 -0.576381
72.8319 115.858 173.089 0.461378 -0.674474 -0.576381
72.52 116.407 172.197 0.671623 -0.50275 -0.54421
72.8319 115.858 173.089 0.671623 -0.50275 -0.54421
72.4621 115.778 172.706 0.671623 -0.50275 -0.54421
73.4304 116.546 172.762 0.765524 -0.508767 -0.393865
73.5085 116.944 172.401 0.765524 -0.508767 -0.393865
73.6902 116.806 172.932 0.765524 -0.508767 -0.393865
71.8075 117.602 172.874 -0.549041 0.595525 -0.586433
71.867 116.83 172.035 -0.549041 0.595525 -0.586433
71.4387 116.769 172.373 -0.549041 0.595525 -0.586433
71.8075 117.602 172.874 -0.523068 0.597096 -0.608174
71.4387 116.769 172.373 -0.523068 0.597096 -0.608174
71.4257 117.497 173.099 -0.523068 0.597096 -0.608174
71.4257 117.497 173.099 -0.881448 0.325459 -0.342237
71.4387 116.769 172.373 -0.881448 0.325459 -0.342237
71.1327 116.779 173.171 -0.881448 0.325459 -0.342237
71.867 116.83 172.035 -0.319438 0.686186 -0.653534
71.8075 117.602 172.874 -0.319438 0.686186 -0.653534
72.6696 117.37 172.209 -0.319438 0.686186 -0.653534
73.5085 116.944 172.401 0.468935 0.658369 -0.58877
72.6696 117.37 172.209 0.468935 0.658369 -0.58877
73.3394 117.603 173.003 0.468935 0.658369 -0.58877
73.1739 116.762 172.093 0.425474 0.497843 -0.755728
72.6696 117.37 172.209 0.425474 0.497843 -0.755728
73.5085 116.944 172.401 0.425474 0.497843 -0.755728
73.6518 117.327 172.993 0.948887 0.105078 -0.29761
73.6902 116.806 172.932 0.948887 0.105078 -0.29761
73.5085 116.944 172.401 0.948887 0.105078 -0.29761
73.3394 117.603 173.003 0.544967 0.637511 -0.544601
73.6518 117.327 172.993 0.544967 0.637511 -0.544601
73.5085 116.944 172.401 0.544967 0.637511 -0.544601
72.6696 117.37 172.209 -0.106586 0.887757 -0.447802
71.8075 117.602 172.874 -0.106586 0.887757 -0.447802
72.587 117.731 172.946 -0.106586 0.887757 -0.447802
73.3394 117.603 173.003 0.184001 0.890333 -0.416474
72.6696 117.37 172.209 0.184001 0.890333 -0.416474
72.587 117.731 172.946 0.184001 0.890333 -0.416474
70.3641 114.564 174.434 -0.141515 -0.691739 -0.708146
70.4133 114.994 174.004 -0.141515 -0.691739 -0.708146
70.8572 114.693 174.209 -0.141515 -0.691739 -0.708146
70.1938 115.825 174.117 -0.813773 -0.138453 -0.56445
70.5088 115.679 173.698 -0.813773 -0.138453 -0.56445
70.4133 114.994 174.004 -0.813773 -0.138453 -0.56445
71.1949 115.815 173.062 -0.414021 -0.769213 -0.486722
71.72 115.478 173.149 -0.414021 -0.769213 -0.486722
71.4038 115.205 173.848 -0.414021 -0.769213 -0.486722
71.1949 115.815 173.062 0.0683114 -0.77941 -0.62278
71.4038 115.205 173.848 0.0683114 -0.77941 -0.62278
70.4133 114.994 174.004 0.0683114 -0.77941 -0.62278
71.1949 115.815 173.062 -0.634176 -0.239646 -0.735112
70.4133 114.994 174.004 -0.634176 -0.239646 -0.735112
70.5088 115.679 173.698 -0.634176 -0.239646 -0.735112
70.8572 114.693 174.209 -0.00730748 -0.570802 -0.821055
70.4133 114.994 174.004 -0.00730748 -0.570802 -0.821055
71.4038 115.205 173.848 -0.00730748 -0.570802 -0.821055
72.3636 115.547 173.015 0.0537848 -0.968848 -0.241747
72.3475 115.337 173.853 0.0537848 -0.968848 -0.241747
71.72 115.478 173.149 0.0537848 -0.968848 -0.241747
71.72 115.478 173.149 0.132913 -0.9424 -0.306945
72.3475 115.337 173.853 0.132913 -0.9424 -0.306945
71.4038 115.205 173.848 0.132913 -0.9424 -0.306945
72.3475 115.337 173.853 0.563685 -0.803707 -0.190566
72.3636 115.547 173.015 0.563685 -0.803707 -0.190566
72.8319 115.858 173.089 0.563685 -0.803707 -0.190566
72.8941 115.727 174.21 0.628765 -0.767534 -0.124683
72.3475 115.337 173.853 0.628765 -0.767534 -0.124683
72.8319 115.858 173.089 0.628765 -0.767534 -0.124683
70.5529 116.398 173.698 -0.789869 0.0482503 -0.611375
70.5088 115.679 173.698 -0.789869 0.0482503 -0.611375
70.1938 115.825 174.117 -0.789869 0.0482503 -0.611375
70.3143 116.618 174.195 -0.854028 0.177982 -0.488833
70.5529 116.398 173.698 -0.854028 0.177982 -0.488833
70.1938 115.825 174.117 -0.854028 0.177982 -0.488833
71.1949 115.815 173.062 -0.685518 0.0383382 -0.727046
70.5529 116.398 173.698 -0.685518 0.0383382 -0.727046
71.1327 116.779 173.171 -0.685518 0.0383382 -0.727046
70.5088 115.679 173.698 -0.68385 0.0416894 -0.728431
70.5529 116.398 173.698 -0.68385 0.0416894 -0.728431
71.1949 115.815 173.062 -0.68385 0.0416894 -0.728431
72.8319 115.858 173.089 0.78989 -0.602502 -0.114304
73.5552 116.706 173.619 0.78989 -0.602502 -0.114304
72.8941 115.727 174.21 0.78989 -0.602502 -0.114304
73.4304 116.546 172.762 0.757268 -0.653013 0.0109386
73.5552 116.706 173.619 0.757268 -0.653013 0.0109386
72.8319 115.858 173.089 0.757268 -0.653013 0.0109386
73.5552 116.706 173.619 0.696318 -0.717032 0.0317068
73.4304 116.546 172.762 0.696318 -0.717032 0.0317068
73.6902 116.806 172.932 0.696318 -0.717032 0.0317068
70.5529 116.398 173.698 -0.757683 0.378868 -0.53139
70.3143 116.618 174.195 -0.757683 0.378868 -0.53139
70.6265 116.921 173.966 -0.757683 0.378868 -0.53139
70.6265 116.921 173.966 -0.74628 0.383688 -0.543921
71.1327 116.779 173.171 -0.74628 0.383688 -0.543921
70.5529 116.398 173.698 -0.74628 0.383688 -0.543921
70.6265 116.921 173.966 -0.587064 0.644988 -0.489231
71.2493 117.547 174.044 -0.587064 0.644988 -0.489231
71.1327 116.779 173.171 -0.587064 0.644988 -0.489231
71.2493 117.547 174.044 -0.915536 0.354656 -0.189769
71.4257 117.497 173.099 -0.915536 0.354656 -0.189769
71.1327 116.779 173.171 -0.915536 0.354656 -0.189769
73.596 117.474 173.368 0.66589 0.660379 0.347117
73.2417 117.56 173.885 0.66589 0.660379 0.347117
73.5783 117.229 173.868 0.66589 0.660379 0.347117
73.596 117.474 173.368 0.998718 -0.0493637 0.0112318
73.5783 117.229 173.868 0.998718 -0.0493637 0.0112318
73.5552 116.706 173.619 0.998718 -0.0493637 0.0112318
73.596 117.474 173.368 0.988895 -0.0039689 0.148563
73.5552 116.706 173.619 0.988895 -0.0039689 0.148563
73.6518 117.327 172.993 0.988895 -0.0039689 0.148563
73.6518 117.327 172.993 0.978727 0.0487317 0.199296
73.5552 116.706 173.619 0.978727 0.0487317 0.199296
73.6902 116.806 172.932 0.978727 0.0487317 0.199296
71.4257 117.497 173.099 -0.773958 0.608071 -0.176745
71.2493 117.547 174.044 -0.773958 0.608071 -0.176745
71.6271 117.96 173.812 -0.773958 0.608071 -0.176745
71.8075 117.602 172.874 -0.452126 0.800719 -0.392977
71.4257 117.497 173.099 -0.452126 0.800719 -0.392977
71.6271 117.96 173.812 -0.452126 0.800719 -0.392977
72.587 117.731 172.946 -0.143239 0.969908 -0.196877
71.8075 117.602 172.874 -0.143239 0.969908 -0.196877
72.4521 117.904 173.896 -0.143239 0.969908 -0.196877
71.8075 117.602 172.874 0.0977642 0.935758 -0.33882
71.6271 117.96 173.812 0.0977642 0.935758 -0.33882
72.4521 117.904 173.896 0.0977642 0.935758 -0.33882
73.2417 117.56 173.885 0.348845 0.933356 0.0845768
73.596 117.474 173.368 0.348845 0.933356 0.0845768
73.3394 117.603 173.003 0.348845 0.933356 0.0845768
73.2417 117.56 173.885 0.399627 0.91233 0.0891722
73.3394 117.603 173.003 0.399627 0.91233 0.0891722
72.4521 117.904 173.896 0.399627 0.91233 0.0891722
72.4521 117.904 173.896 0.177651 0.972319 -0.151774
73.3394 117.603 173.003 0.177651 0.972319 -0.151774
72.587 117.731 172.946 0.177651 0.972319 -0.151774
73.6518 117.327 172.993 0.645976 0.738408 -0.193566
73.3394 117.603 173.003 0.645976 0.738408 -0.193566
73.596 117.474 173.368 0.645976 0.738408 -0.193566
69.5637 114.82 174.905 -0.546177 -0.56013 -0.622852
70.4133 114.994 174.004 -0.546177 -0.56013 -0.622852
70.3641 114.564 174.434 -0.546177 -0.56013 -0.622852
69.5637 114.82 174.905 -0.487884 -0.770771 -0.409733
70.3641 114.564 174.434 -0.487884 -0.770771 -0.409733
69.698 114.564 175.227 -0.487884 -0.770771 -0.409733
69.698 114.564 175.227 -0.10946 -0.989709 -0.09217
70.3641 114.564 174.434 -0.10946 -0.989709 -0.09217
70.5496 114.475 175.17 -0.10946 -0.989709 -0.09217
70.8572 114.693 174.209 0.209942 -0.917946 -0.336599
71.7097 114.748 174.593 0.209942 -0.917946 -0.336599
71.4081 114.529 175.002 0.209942 -0.917946 -0.336599
70.8572 114.693 174.209 0.120623 -0.951931 -0.281564
71.4081 114.529 175.002 0.120623 -0.951931 -0.281564
70.3641 114.564 174.434 0.120623 -0.951931 -0.281564
70.3641 114.564 174.434 0.0363152 -0.990973 -0.129048
71.4081 114.529 175.002 0.0363152 -0.990973 -0.129048
70.5496 114.475 175.17 0.0363152 -0.990973 -0.129048
71.7097 114.748 174.593 0.185027 -0.864877 -0.46664
72.4759 114.857 174.694 0.185027 -0.864877 -0.46664
72.3054 114.632 175.043 0.185027 -0.864877 -0.46664
71.4081 114.529 175.002 0.123186 -0.909844 -0.396244
71.7097 114.748 174.593 0.123186 -0.909844 -0.396244
72.3054 114.632 175.043 0.123186 -0.909844 -0.396244
72.3054 114.632 175.043 0.596972 -0.774962 -0.207504
72.4759 114.857 174.694 0.596972 -0.774962 -0.207504
72.6215 114.89 174.99 0.596972 -0.774962 -0.207504
69.4414 115.498 175.18 -0.889766 0.024225 -0.455774
69.6764 115.526 174.723 -0.889766 0.024225 -0.455774
69.5637 114.82 174.905 -0.889766 0.024225 -0.455774
70.4133 114.994 174.004 -0.731338 -0.101729 -0.674386
69.6764 115.526 174.723 -0.731338 -0.101729 -0.674386
70.1938 115.825 174.117 -0.731338 -0.101729 -0.674386
69.5637 114.82 174.905 -0.720092 -0.0637454 -0.690945
69.6764 115.526 174.723 -0.720092 -0.0637454 -0.690945
70.4133 114.994 174.004 -0.720092 -0.0637454 -0.690945
70.8572 114.693 174.209 0.311882 -0.746795 -0.587389
71.4038 115.205 173.848 0.311882 -0.746795 -0.587389
71.7097 114.748 174.593 0.311882 -0.746795 -0.587389
72.3475 115.337 173.853 0.117664 -0.823602 -0.554828
71.7097 114.748 174.593 0.117664 -0.823602 -0.554828
71.4038 115.205 173.848 0.117664 -0.823602 -0.554828
72.4759 114.857 174.694 0.187044 -0.840521 -0.508467
71.7097 114.748 174.593 0.187044 -0.840521 -0.508467
72.3475 115.337 173.853 0.187044 -0.840521 -0.508467
72.4759 114.857 174.694 0.693446 -0.574989 -0.43419
72.3475 115.337 173.853 0.693446 -0.574989 -0.43419
72.8941 115.727 174.21 0.693446 -0.574989 -0.43419
72.4759 114.857 174.694 0.77256 -0.548986 -0.319008
72.8941 115.727 174.21 0.77256 -0.548986 -0.319008
72.6215 114.89 174.99 0.77256 -0.548986 -0.319008
72.6215 114.89 174.99 0.970319 -0.217378 0.105964
72.8941 115.727 174.21 0.970319 -0.217378 0.105964
72.7558 115.553 175.12 0.970319 -0.217378 0.105964
69.6764 115.526 174.723 -0.787865 0.488862 -0.374543
69.4414 115.498 175.18 -0.787865 0.488862 -0.374543
70.0607 116.343 174.981 -0.787865 0.488862 -0.374543
70.0607 116.343 174.981 -0.767128 0.49116 -0.412647
70.1938 115.825 174.117 -0.767128 0.49116 -0.412647
69.6764 115.526 174.723 -0.767128 0.49116 -0.412647
70.0607 116.343 174.981 -0.953703 0.169463 -0.24846
70.3143 116.618 174.195 -0.953703 0.169463 -0.24846
70.1938 115.825 174.117 -0.953703 0.169463 -0.24846
73.3814 116.818 174.284 0.864919 -0.406198 0.294818
72.8941 115.727 174.21 0.864919 -0.406198 0.294818
73.5552 116.706 173.619 0.864919 -0.406198 0.294818
73.3814 116.818 174.284 0.85254 -0.403235 0.33253
72.9719 116.553 175.013 0.85254 -0.403235 0.33253
72.8941 115.727 174.21 0.85254 -0.403235 0.33253
72.9719 116.553 175.013 0.973878 -0.198604 0.110084
72.7558 115.553 175.12 0.973878 -0.198604 0.110084
72.8941 115.727 174.21 0.973878 -0.198604 0.110084
70.3143 116.618 174.195 -0.84399 0.529159 -0.0875849
70.0607 116.343 174.981 -0.84399 0.529159 -0.0875849
70.6164 117.215 174.891 -0.84399 0.529159 -0.0875849
70.6265 116.921 173.966 -0.755585 0.621976 -0.205518
70.3143 116.618 174.195 -0.755585 0.621976 -0.205518
70.6164 117.215 174.891 -0.755585 0.621976 -0.205518
70.6164 117.215 174.891 -0.67536 0.700819 -0.229655
71.2493 117.547 174.044 -0.67536 0.700819 -0.229655
70.6265 116.921 173.966 -0.67536 0.700819 -0.229655
71.2334 117.606 174.979 -0.52837 0.846694 -0.0627274
71.2493 117.547 174.044 -0.52837 0.846694 -0.0627274
70.6164 117.215 174.891 -0.52837 0.846694 -0.0627274
72.7316 117.485 174.598 0.440133 0.784521 0.436817
72.0971 117.704 174.843 0.440133 0.784521 0.436817
72.3915 117.327 175.225 0.440133 0.784521 0.436817
72.9719 116.553 175.013 0.748245 0.421202 0.512561
72.7316 117.485 174.598 0.748245 0.421202 0.512561
72.3915 117.327 175.225 0.748245 0.421202 0.512561
73.3814 116.818 174.284 0.710731 0.430879 0.556061
72.7316 117.485 174.598 0.710731 0.430879 0.556061
72.9719 116.553 175.013 0.710731 0.430879 0.556061
73.3814 116.818 174.284 0.71138 0.432497 0.553972
73.2417 117.56 173.885 0.71138 0.432497 0.553972
72.7316 117.485 174.598 0.71138 0.432497 0.553972
73.3814 116.818 174.284 0.507417 0.48083 0.715074
73.5783 117.229 173.868 0.507417 0.48083 0.715074
73.2417 117.56 173.885 0.507417 0.48083 0.715074
73.5552 116.706 173.619 0.9453 -0.173321 0.276349
73.5783 117.229 173.868 0.9453 -0.173321 0.276349
73.3814 116.818 174.284 0.9453 -0.173321 0.276349
71.2493 117.547 174.044 -0.512987 0.856077 -0.0630616
71.2334 117.606 174.979 -0.512987 0.856077 -0.0630616
71.6305 117.822 174.678 -0.512987 0.856077 -0.0630616
71.6271 117.96 173.812 -0.700439 0.704325 0.115378
71.2493 117.547 174.044 -0.700439 0.704325 0.115378
71.6305 117.822 174.678 -0.700439 0.704325 0.115378
72.0971 117.704 174.843 0.421253 0.842473 0.335834
72.7316 117.485 174.598 0.421253 0.842473 0.335834
72.4521 117.904 173.896 0.421253 0.842473 0.335834
72.0971 117.704 174.843 0.149408 0.954621 0.257635
72.4521 117.904 173.896 0.149408 0.954621 0.257635
71.6305 117.822 174.678 0.149408 0.954621 0.257635
71.6305 117.822 174.678 0.0508765 0.986213 0.157464
72.4521 117.904 173.896 0.0508765 0.986213 0.157464
71.6271 117.96 173.812 0.0508765 0.986213 0.157464
73.2417 117.56 173.885 0.377616 0.853268 0.359637
72.4521 117.904 173.896 0.377616 0.853268 0.359637
72.7316 117.485 174.598 0.377616 0.853268 0.359637
69.698 114.564 175.227 -0.645584 -0.763217 0.0268682
69.6453 114.636 175.987 -0.645584 -0.763217 0.0268682
69.4006 114.833 175.72 -0.645584 -0.763217 0.0268682
69.5637 114.82 174.905 -0.787045 -0.598864 -0.148061
69.698 114.564 175.227 -0.787045 -0.598864 -0.148061
69.4006 114.833 175.72 -0.787045 -0.598864 -0.148061
70.5496 114.475 175.17 -0.097956 -0.991753 0.0826514
70.4493 114.552 175.971 -0.097956 -0.991753 0.0826514
69.698 114.564 175.227 -0.097956 -0.991753 0.0826514
69.698 114.564 175.227 -0.101288 -0.991131 0.0860267
70.4493 114.552 175.971 -0.101288 -0.991131 0.0860267
69.6453 114.636 175.987 -0.101288 -0.991131 0.0860267
71.4081 114.529 175.002 0.0664118 -0.997545 0.0221948
71.3432 114.543 175.848 0.0664118 -0.997545 0.0221948
70.5496 114.475 175.17 0.0664118 -0.997545 0.0221948
70.5496 114.475 175.17 0.00340287 -0.995405 0.0956981
71.3432 114.543 175.848 0.00340287 -0.995405 0.0956981
70.4493 114.552 175.971 0.00340287 -0.995405 0.0956981
72.3054 114.632 175.043 0.0984641 -0.958049 0.269159
72.3159 114.844 175.791 0.0984641 -0.958049 0.269159
71.4081 114.529 175.002 0.0984641 -0.958049 0.269159
71.4081 114.529 175.002 0.296991 -0.954078 0.0391283
72.3159 114.844 175.791 0.296991 -0.954078 0.0391283
71.3432 114.543 175.848 0.296991 -0.954078 0.0391283
72.3159 114.844 175.791 0.638925 -0.742624 0.200712
72.3054 114.632 175.043 0.638925 -0.742624 0.200712
72.6215 114.89 174.99 0.638925 -0.742624 0.200712
69.5637 114.82 174.905 -0.976173 -0.0976446 -0.193782
69.4006 114.833 175.72 -0.976173 -0.0976446 -0.193782
69.4414 115.498 175.18 -0.976173 -0.0976446 -0.193782
69.4006 114.833 175.72 -0.977596 0.165624 0.129903
69.5484 115.642 175.802 -0.977596 0.165624 0.129903
69.4414 115.498 175.18 -0.977596 0.165624 0.129903
72.6215 114.89 174.99 0.909432 -0.249759 0.332496
72.7558 115.553 175.12 0.909432 -0.249759 0.332496
72.3159 114.844 175.791 0.909432 -0.249759 0.332496
72.3159 114.844 175.791 0.911044 -0.324214 0.254723
72.7558 115.553 175.12 0.911044 -0.324214 0.254723
72.6425 115.817 175.861 0.911044 -0.324214 0.254723
70.0607 116.343 174.981 -0.806603 0.59109 0.00179654
69.4414 115.498 175.18 -0.806603 0.59109 0.00179654
69.5484 115.642 175.802 -0.806603 0.59109 0.00179654
70.3189 116.57 175.78 -0.767004 0.63816 0.0667624
70.0607 116.343 174.981 -0.767004 0.63816 0.0667624
69.5484 115.642 175.802 -0.767004 0.63816 0.0667624
72.7558 115.553 175.12 0.959601 -0.184516 0.212413
72.9719 116.553 175.013 0.959601 -0.184516 0.212413
72.6425 115.817 175.861 0.959601 -0.184516 0.212413
72.6425 115.817 175.861 0.912577 0.0579354 0.404781
72.9719 116.553 175.013 0.912577 0.0579354 0.404781
72.6214 116.63 175.792 0.912577 0.0579354 0.404781
70.6164 117.215 174.891 -0.832125 0.542537 0.114986
70.0607 116.343 174.981 -0.832125 0.542537 0.114986
70.3189 116.57 175.78 -0.832125 0.542537 0.114986
71.2334 117.606 174.979 -0.310438 0.804956 0.505642
71.3839 117.192 175.73 -0.310438 0.804956 0.505642
71.6555 117.629 175.202 -0.310438 0.804956 0.505642
71.2334 117.606 174.979 -0.515422 0.702749 0.490391
70.6164 117.215 174.891 -0.515422 0.702749 0.490391
71.3839 117.192 175.73 -0.515422 0.702749 0.490391
70.6164 117.215 174.891 -0.441662 0.790022 0.425207
70.3189 116.57 175.78 -0.441662 0.790022 0.425207
71.3839 117.192 175.73 -0.441662 0.790022 0.425207
71.6555 117.629 175.202 0.304935 0.784002 0.540699
72.3915 117.327 175.225 0.304935 0.784002 0.540699
72.0971 117.704 174.843 0.304935 0.784002 0.540699
71.6555 117.629 175.202 0.256135 0.676149 0.690809
71.3839 117.192 175.73 0.256135 0.676149 0.690809
72.3915 117.327 175.225 0.256135 0.676149 0.690809
71.3839 117.192 175.73 0.193437 0.78109 0.5937
72.2773 116.83 175.915 0.193437 0.78109 0.5937
72.3915 117.327 175.225 0.193437 0.78109 0.5937
72.6214 116.63 175.792 0.7994 0.515315 0.308886
72.9719 116.553 175.013 0.7994 0.515315 0.308886
72.3915 117.327 175.225 0.7994 0.515315 0.308886
72.2773 116.83 175.915 0.558733 0.626753 0.543137
72.6214 116.63 175.792 0.558733 0.626753 0.543137
72.3915 117.327 175.225 0.558733 0.626753 0.543137
71.2334 117.606 174.979 -0.231703 0.908994 0.346472
71.6555 117.629 175.202 -0.231703 0.908994 0.346472
71.6305 117.822 174.678 -0.231703 0.908994 0.346472
72.0971 117.704 174.843 0.115319 0.933686 0.339017
71.6305 117.822 174.678 0.115319 0.933686 0.339017
71.6555 117.629 175.202 0.115319 0.933686 0.339017
69.6453 114.636 175.987 -0.799858 -0.263474 0.539268
69.6115 114.961 176.096 -0.799858 -0.263474 0.539268
69.4006 114.833 175.72 -0.799858 -0.263474 0.539268
69.6453 114.636 175.987 -0.08389 -0.890975 0.446236
70.4493 114.552 175.971 -0.08389 -0.890975 0.446236
70.4446 114.84 176.545 -0.08389 -0.890975 0.446236
69.6115 114.961 176.096 -0.485525 -0.322375 0.812613
69.6453 114.636 175.987 -0.485525 -0.322375 0.812613
70.4446 114.84 176.545 -0.485525 -0.322375 0.812613
70.4493 114.552 175.971 0.0407053 -0.930909 0.362976
71.3432 114.543 175.848 0.0407053 -0.930909 0.362976
71.4525 114.815 176.533 0.0407053 -0.930909 0.362976
70.4446 114.84 176.545 -0.0167626 -0.893781 0.448191
70.4493 114.552 175.971 -0.0167626 -0.893781 0.448191
71.4525 114.815 176.533 -0.0167626 -0.893781 0.448191
71.4525 114.815 176.533 0.297322 -0.902764 0.310832
71.3432 114.543 175.848 0.297322 -0.902764 0.310832
72.3159 114.844 175.791 0.297322 -0.902764 0.310832
69.6115 114.961 176.096 -0.772533 0.189918 0.605908
69.7699 115.77 176.044 -0.772533 0.189918 0.605908
69.5484 115.642 175.802 -0.772533 0.189918 0.605908
69.4006 114.833 175.72 -0.882185 0.115287 0.456573
69.6115 114.961 176.096 -0.882185 0.115287 0.456573
69.5484 115.642 175.802 -0.882185 0.115287 0.456573
70.4446 114.84 176.545 -0.416963 0.308384 0.855009
70.4618 115.653 176.261 -0.416963 0.308384 0.855009
69.6115 114.961 176.096 -0.416963 0.308384 0.855009
70.4618 115.653 176.261 -0.279 0.11554 0.953315
69.7699 115.77 176.044 -0.279 0.11554 0.953315
69.6115 114.961 176.096 -0.279 0.11554 0.953315
71.4525 114.815 176.533 0.00862666 -0.141583 0.989889
71.4631 115.618 176.648 0.00862666 -0.141583 0.989889
70.4446 114.84 176.545 0.00862666 -0.141583 0.989889
71.4631 115.618 176.648 -0.332202 0.318135 0.887937
70.4618 115.653 176.261 -0.332202 0.318135 0.887937
70.4446 114.84 176.545 -0.332202 0.318135 0.887937
72.3159 114.844 175.791 0.555983 -0.547607 0.625307
72.2812 115.522 176.416 0.555983 -0.547607 0.625307
71.4525 114.815 176.533 0.555983 -0.547607 0.625307
72.2812 115.522 176.416 0.2552 -0.140087 0.956686
71.4631 115.618 176.648 0.2552 -0.140087 0.956686
71.4525 114.815 176.533 0.2552 -0.140087 0.956686
72.3159 114.844 175.791 0.862768 -0.318004 0.393071
72.6425 115.817 175.861 0.862768 -0.318004 0.393071
72.2812 115.522 176.416 0.862768 -0.318004 0.393071
70.3189 116.57 175.78 -0.720386 0.605871 0.337586
69.5484 115.642 175.802 -0.720386 0.605871 0.337586
69.7699 115.77 176.044 -0.720386 0.605871 0.337586
70.3189 116.57 175.78 -0.505205 0.562739 0.654289
69.7699 115.77 176.044 -0.505205 0.562739 0.654289
70.5619 116.474 176.05 -0.505205 0.562739 0.654289
70.5619 116.474 176.05 -0.246112 0.269098 0.931136
69.7699 115.77 176.044 -0.246112 0.269098 0.931136
70.4618 115.653 176.261 -0.246112 0.269098 0.931136
71.4631 115.618 176.648 -0.304822 0.465983 0.830628
71.4656 116.493 176.158 -0.304822 0.465983 0.830628
70.4618 115.653 176.261 -0.304822 0.465983 0.830628
71.4656 116.493 176.158 -0.120094 0.260612 0.957945
70.5619 116.474 176.05 -0.120094 0.260612 0.957945
70.4618 115.653 176.261 -0.120094 0.260612 0.957945
72.2812 115.522 176.416 0.291261 0.247293 0.924129
72.3334 116.345 176.179 0.291261 0.247293 0.924129
71.4631 115.618 176.648 0.291261 0.247293 0.924129
72.3334 116.345 176.179 0.0617746 0.487516 0.870926
71.4656 116.493 176.158 0.0617746 0.487516 0.870926
71.4631 115.618 176.648 0.0617746 0.487516 0.870926
72.6425 115.817 175.861 0.773266 0.0733241 0.629828
72.6214 116.63 175.792 0.773266 0.0733241 0.629828
72.3334 116.345 176.179 0.773266 0.0733241 0.629828
72.2812 115.522 176.416 0.802503 0.117399 0.584985
72.6425 115.817 175.861 0.802503 0.117399 0.584985
72.3334 116.345 176.179 0.802503 0.117399 0.584985
71.3839 117.192 175.73 -0.384135 0.7053 0.595812
70.3189 116.57 175.78 -0.384135 0.7053 0.595812
70.5619 116.474 176.05 -0.384135 0.7053 0.595812
71.4656 116.493 176.158 -0.112553 0.509118 0.853306
71.3839 117.192 175.73 -0.112553 0.509118 0.853306
70.5619 116.474 176.05 -0.112553 0.509118 0.853306
72.2773 116.83 175.915 0.0363387 0.524762 0.850473
71.3839 117.192 175.73 0.0363387 0.524762 0.850473
71.4656 116.493 176.158 0.0363387 0.524762 0.850473
72.3334 116.345 176.179 0.0608661 0.482558 0.873746
72.2773 116.83 175.915 0.0608661 0.482558 0.873746
71.4656 116.493 176.158 0.0608661 0.482558 0.873746
72.6214 116.63 175.792 0.521918 0.453501 0.722453
72.2773 116.83 175.915 0.521918 0.453501 0.722453
72.3334 116.345 176.179 0.521918 0.453501 0.722453
3 0 1 2
3 3 4 5
3 6 7 8
3 9 10 11
3 12 13 14
3 15 16 17
3 18 19 20
3 21 22 23
3 24 25 26
3 27 28 29
3 30 31 32
3 33 34 35
3 36 37 38
3 39 40 41
3 42 43 44
3 45 46 47
3 48 49 50
3 51 52 53
3 54 55 56
3 57 58 59
3 60 61 62
3 63 64 65
3 66 67 68
3 69 70 71
3 72 73 74
3 75 76 77
3 78 79 80
3 81 82 83
3 84 85 86
3 87 88 89
3 90 91 92
3 93 94 95
3 96 97 98
3 99 100 101
3 102 103 104
3 105 106 107
3 108 109 110
3 111 112 113
3 114 115 116
3 117 118 119
3 120 121 122
3 123 124 125
3 126 127 128
3 129 130 131
3 132 133 134
3 135 136 137
3 138 139 140
3 141 142 143
3 144 145 146
3 147 148 149
3 150 151 152
3 153 154 155
3 156 157 158
3 159 160 161
3 162 163 164
3 165 166 167
3 168 169 170
3 171 172 173
3 174 175 176
3 177 178 179
3 180 181 182
3 183 184 185
3 186 187 188
3 189 190 191
3 192 193 194
3 195 196 197
3 198 199 200
3 201 202 203
3 204 205 206
3 207 208 209
3 210 211 212
3 213 214 215
3 216 217 218
3 219 220 221
3 222 223 224
3 225 226 227
3 228 229 230
3 231 232 233
3 234 235 236
3 237 238 239
3 240 241 242
3 243 244 245
3 246 247 248
3 249 250 251
3 252 253 254
3 255 256 257
3 258 259 260
3 261 262 263
3 264 265 266
3 267 268 269
3 270 271 272
3 273 274 275
3 276 277 278
3 279 280 281
3 282 283 284
3 285 286 287
3 288 289 290
3 291 292 293
3 294 295 296
3 297 298 299
3 300 301 302
3 303 304 305
3 306 307 308
3 309 310 311
3 312 313 314
3 315 316 317
3 318 319 320
3 321 322 323
3 324 325 326
3 327 328 329
3 330 331 332
3 333 334 335
3 336 337 338
3 339 340 341
3 342 343 344
3 345 346 347
3 348 349 350
3 351 352 353
3 354 355 356
3 357 358 359
3 360 361 362
3 363 364 365
3 366 367 368
3 369 370 371
3 372 373 374
3 375 376 377
3 378 379 380
3 381 382 383
3 384 385 386
3 387 388 389
3 390 391 392
3 393 394 395
3 396 397 398
3 399 400 401
3 402 403 404
3 405 406 407
3 408 409 410
3 411 412 413
3 414 415 416
3 417 418 419
3 420 421 422
3 423 424 425
3 426 427 428
3 429 430 431
3 432 433 434
3 435 436 437
3 438 439 440
3 441 442 443
3 444 445 446
3 447 448 449
3 450 451 452
3 453 454 455
3 456 457 458
3 459 460 461
3 462 463 464
3 465 466 467
3 468 469 470
3 471 472 473
3 474 475 476
3 477 478 479
