ply
format ascii 1.0
element vertex 756
property float x
property float y
property float z
property float nx
property float ny
property float nz
element face 252
property list uint uint vertex_indices
end_header
115.873 100.231 164.626 -0.303697 -0.697885 -0.648633
115.729 99.9992 164.943 -0.303697 -0.697885 -0.648633
115.508 100.264 164.761 -0.303697 -0.697885 -0.648633
115.873 100.231 164.626 0.0517382 -0.582409 -0.811248
116.754 100.305 164.629 0.0517382 -0.582409 -0.811248
116.538 99.9661 164.859 0.0517382 -0.582409 -0.811248
115.729 99.9992 164.943 -0.0962015 -0.781884 -0.615956
115.873 100.231 164.626 -0.0962015 -0.781884 -0.615956
116.538 99.9661 164.859 -0.0962015 -0.781884 -0.615956
116.538 99.9661 164.859 0.161225 -0.621941 -0.766287
116.754 100.305 164.629 0.161225 -0.621941 -0.766287
117.01 100.088 164.859 0.161225 -0.621941 -0.766287
115.648 100.803 164.62 -0.355591 -0.149378 -0.922627
115.873 100.231 164.626 -0.355591 -0.149378 -0.922627
115.508 100.264 164.761 -0.355591 -0.149378 -0.922627
115.255 100.85 164.935 -0.627607 -0.0403889 -0.777482
115.648 100.803 164.62 -0.627607 -0.0403889 -0.777482
115.508 100.264 164.761 -0.627607 -0.0403889 -0.777482
116.754 100.305 164.629 0.00645036 -0.033624 -0.999414
115.873 100.231 164.626 0.00645036 -0.033624 -0.999414
116.523 100.97 164.605 0.00645036 -0.033624 -0.999414
116.523 100.97 164.605 -0.0138228 -0.0158053 -0.99978
115.873 100.231 164.626 -0.0138228 -0.0158053 -0.99978
115.648 100.803 164.62 -0.0138228 -0.0158053 -0.99978
117.627 100.595 164.904 0.395043 -0.407383 -0.823396
117.01 100.088 164.859 0.395043 -0.407383 -0.823396
116.754 100.305 164.629 0.395043 -0.407383 -0.823396
117.627 100.595 164.904 0.372314 -0.281022 -0.884539
116.754 100.305 164.629 0.372314 -0.281022 -0.884539
117.641 100.993 164.784 0.372314 -0.281022 -0.884539
117.641 100.993 164.784 0.157265 0.0193578 -0.987367
116.754 100.305 164.629 0.157265 0.0193578 -0.987367
116.523 100.97 164.605 0.157265 0.0193578 -0.987367
115.648 100.803 164.62 -0.51695 0.471538 -0.714433
115.255 100.85 164.935 -0.51695 0.471538 -0.714433
115.605 101.095 164.843 -0.51695 0.471538 -0.714433
116.523 100.97 164.605 -0.126112 0.592104 -0.795933
115.648 100.803 164.62 -0.126112 0.592104 -0.795933
115.605 101.095 164.843 -0.126112 0.592104 -0.795933
116.426 101.338 164.879 -0.133416 0.568565 -0.811748
116.523 100.97 164.605 -0.133416 0.568565 -0.811748
115.605 101.095 164.843 -0.133416 0.568565 -0.811748
116.426 101.338 164.879 -0.184688 0.554729 -0.811274
117.492 101.759 164.924 -0.184688 0.554729 -0.811274
116.523 100.97 164.605 -0.184688 0.554729 -0.811274
116.523 100.97 164.605 0.150155 0.206281 -0.966903
117.492 101.759 164.924 0.150155 0.206281 -0.966903
117.641 100.993 164.784 0.150155 0.206281 -0.966903
115.729 99.9992 164.943 -0.592888 -0.789348 -0.159414
115.658 99.9087 165.657 -0.592888 -0.789348 -0.159414
115.263 100.233 165.517 -0.592888 -0.789348 -0.159414
115.508 100.264 164.761 -0.656625 -0.714415 -0.241776
115.729 99.9992 164.943 -0.656625 -0.714415 -0.241776
115.263 100.233 165.517 -0.656625 -0.714415 -0.241776
116.538 99.9661 164.859 -0.0699646 -0.952172 -0.297444
116.423 99.6988 165.741 -0.0699646 -0.952172 -0.297444
115.729 99.9992 164.943 -0.0699646 -0.952172 -0.297444
115.729 99.9992 164.943 -0.246808 -0.957994 -0.14606
116.423 99.6988 165.741 -0.246808 -0.957994 -0.14606
115.658 99.9087 165.657 -0.246808 -0.957994 -0.14606
117.01 100.088 164.859 0.388946 -0.761723 -0.518169
117.593 100.098 165.282 0.388946 -0.761723 -0.518169
117.46 99.7502 165.693 0.388946 -0.761723 -0.518169
117.01 100.088 164.859 0.22126 -0.856619 -0.466098
117.46 99.7502 165.693 0.22126 -0.856619 -0.466098
116.538 99.9661 164.859 0.22126 -0.856619 -0.466098
116.538 99.9661 164.859 0.0341911 -0.957757 -0.28554
117.46 99.7502 165.693 0.0341911 -0.957757 -0.28554
116.423 99.6988 165.741 0.0341911 -0.957757 -0.28554
117.46 99.7502 165.693 0.485324 -0.738789 -0.467602
117.593 100.098 165.282 0.485324 -0.738789 -0.467602
118.046 100.141 165.685 0.485324 -0.738789 -0.467602
114.388 100.93 165.735 -0.631247 -0.671129 -0.388733
115.263 100.233 165.517 -0.631247 -0.671129 -0.388733
114.395 100.718 166.09 -0.631247 -0.671129 -0.388733
114.388 100.93 165.735 -0.590026 -0.55832 -0.583222
115.255 100.85 164.935 -0.590026 -0.55832 -0.583222
115.263 100.233 165.517 -0.590026 -0.55832 -0.583222
115.255 100.85 164.935 -0.904103 -0.299469 -0.304822
115.508 100.264 164.761 -0.904103 -0.299469 -0.304822
115.263 100.233 165.517 -0.904103 -0.299469 -0.304822
117.01 100.088 164.859 0.498023 -0.545881 -0.673786
117.627 100.595 164.904 0.498023 -0.545881 -0.673786
117.593 100.098 165.282 0.498023 -0.545881 -0.673786
117.641 100.993 164.784 0.603535 -0.27054 -0.750036
118.461 101.212 165.364 0.603535 -0.27054 -0.750036
118.453 100.777 165.515 0.603535 -0.27054 -0.750036
117.627 100.595 164.904 0.610651 -0.249256 -0.751649
117.641 100.993 164.784 0.610651 -0.249256 -0.751649
118.453 100.777 165.515 0.610651 -0.249256 -0.751649
117.627 100.595 164.904 0.575732 -0.533274 -0.6198
118.453 100.777 165.515 0.575732 -0.533274 -0.6198
118.046 100.141 165.685 0.575732 -0.533274 -0.6198
117.627 100.595 164.904 0.597547 -0.51055 -0.618285
118.046 100.141 165.685 0.597547 -0.51055 -0.618285
117.593 100.098 165.282 0.597547 -0.51055 -0.618285
118.453 100.777 165.515 0.772504 -0.220248 -0.595591
118.461 101.212 165.364 0.772504 -0.220248 -0.595591
118.783 100.947 165.88 0.772504 -0.220248 -0.595591
115.255 100.85 164.935 -0.58158 0.453285 -0.675498
114.388 100.93 165.735 -0.58158 0.453285 -0.675498
114.637 101.145 165.665 -0.58158 0.453285 -0.675498
115.255 100.85 164.935 -0.537346 0.51915 -0.664638
114.637 101.145 165.665 -0.537346 0.51915 -0.664638
115.605 101.095 164.843 -0.537346 0.51915 -0.664638
115.605 101.095 164.843 -0.261891 0.894302 -0.362819
114.637 101.145 165.665 -0.261891 0.894302 -0.362819
115.482 101.384 165.645 -0.261891 0.894302 -0.362819
116.368 101.906 165.609 -0.432669 0.694409 -0.574973
116.426 101.338 164.879 -0.432669 0.694409 -0.574973
115.482 101.384 165.645 -0.432669 0.694409 -0.574973
116.426 101.338 164.879 -0.250112 0.897877 -0.3623
115.605 101.095 164.843 -0.250112 0.897877 -0.3623
115.482 101.384 165.645 -0.250112 0.897877 -0.3623
116.426 101.338 164.879 -0.270361 0.749207 -0.604643
116.368 101.906 165.609 -0.270361 0.749207 -0.604643
117.492 101.759 164.924 -0.270361 0.749207 -0.604643
118.461 101.212 165.364 0.515699 0.255139 -0.817899
117.492 101.759 164.924 0.515699 0.255139 -0.817899
118.535 101.736 165.575 0.515699 0.255139 -0.817899
117.641 100.993 164.784 0.514117 0.250347 -0.820372
117.492 101.759 164.924 0.514117 0.250347 -0.820372
118.461 101.212 165.364 0.514117 0.250347 -0.820372
118.535 101.736 165.575 0.862943 0.0777299 -0.499287
118.783 100.947 165.88 0.862943 0.0777299 -0.499287
118.461 101.212 165.364 0.862943 0.0777299 -0.499287
117.492 101.759 164.924 -0.21085 0.825568 -0.52343
116.368 101.906 165.609 -0.21085 0.825568 -0.52343
116.892 102.145 165.774 -0.21085 0.825568 -0.52343
117.492 101.759 164.924 -0.302029 0.769716 -0.56242
116.892 102.145 165.774 -0.302029 0.769716 -0.56242
117.798 102.057 165.168 -0.302029 0.769716 -0.56242
117.798 102.057 165.168 -0.000198836 0.989697 -0.143175
116.892 102.145 165.774 -0.000198836 0.989697 -0.143175
117.693 102.138 165.724 -0.000198836 0.989697 -0.143175
118.535 101.736 165.575 0.525886 0.144411 -0.838206
117.492 101.759 164.924 0.525886 0.144411 -0.838206
117.798 102.057 165.168 0.525886 0.144411 -0.838206
118.535 101.736 165.575 0.500788 0.827794 -0.252919
117.798 102.057 165.168 0.500788 0.827794 -0.252919
118.419 101.902 165.888 0.500788 0.827794 -0.252919
118.419 101.902 165.888 0.323499 0.94323 -0.0752659
117.798 102.057 165.168 0.323499 0.94323 -0.0752659
117.693 102.138 165.724 0.323499 0.94323 -0.0752659
116.916 99.1694 166.433 -0.235832 -0.860822 -0.450964
116.863 99.0283 166.73 -0.235832 -0.860822 -0.450964
116.491 99.2012 166.594 -0.235832 -0.860822 -0.450964
116.916 99.1694 166.433 0.126606 -0.839763 -0.527986
117.646 99.2544 166.473 0.126606 -0.839763 -0.527986
117.549 99.1248 166.655 0.126606 -0.839763 -0.527986
116.863 99.0283 166.73 0.0823808 -0.905846 -0.415519
116.916 99.1694 166.433 0.0823808 -0.905846 -0.415519
117.549 99.1248 166.655 0.0823808 -0.905846 -0.415519
117.549 99.1248 166.655 0.634587 -0.748283 -0.193318
117.646 99.2544 166.473 0.634587 -0.748283 -0.193318
118.319 99.7854 166.627 0.634587 -0.748283 -0.193318
115.263 100.233 165.517 -0.617334 -0.782993 -0.0763012
115.658 99.9087 165.657 -0.617334 -0.782993 -0.0763012
115.593 99.8622 166.654 -0.617334 -0.782993 -0.0763012
116.491 99.2012 166.594 -0.243543 -0.846096 -0.47414
116.423 99.6988 165.741 -0.243543 -0.846096 -0.47414
116.916 99.1694 166.433 -0.243543 -0.846096 -0.47414
116.491 99.2012 166.594 -0.564421 -0.731835 -0.381899
115.593 99.8622 166.654 -0.564421 -0.731835 -0.381899
116.423 99.6988 165.741 -0.564421 -0.731835 -0.381899
115.593 99.8622 166.654 -0.257784 -0.964235 -0.0616352
115.658 99.9087 165.657 -0.257784 -0.964235 -0.0616352
116.423 99.6988 165.741 -0.257784 -0.964235 -0.0616352
117.46 99.7502 165.693 0.0107148 -0.790218 -0.612732
116.916 99.1694 166.433 0.0107148 -0.790218 -0.612732
116.423 99.6988 165.741 0.0107148 -0.790218 -0.612732
117.646 99.2544 166.473 0.12607 -0.823123 -0.553692
116.916 99.1694 166.433 0.12607 -0.823123 -0.553692
117.46 99.7502 165.693 0.12607 -0.823123 -0.553692
118.046 100.141 165.685 0.535656 -0.727204 -0.429239
118.648 100.245 166.259 0.535656 -0.727204 -0.429239
118.319 99.7854 166.627 0.535656 -0.727204 -0.429239
117.46 99.7502 165.693 0.496627 -0.754882 -0.428386
118.046 100.141 165.685 0.496627 -0.754882 -0.428386
118.319 99.7854 166.627 0.496627 -0.754882 -0.428386
117.46 99.7502 165.693 0.597553 -0.604407 -0.526899
118.319 99.7854 166.627 0.597553 -0.604407 -0.526899
117.646 99.2544 166.473 0.597553 -0.604407 -0.526899
118.319 99.7854 166.627 0.767358 -0.632655 -0.104446
118.648 100.245 166.259 0.767358 -0.632655 -0.104446
118.79 100.333 166.771 0.767358 -0.632655 -0.104446
113.33 101.013 166.687 -0.462555 -0.765072 -0.448003
114.388 100.93 165.735 -0.462555 -0.765072 -0.448003
114.395 100.718 166.09 -0.462555 -0.765072 -0.448003
113.33 101.013 166.687 -0.3996 -0.871988 -0.282765
114.395 100.718 166.09 -0.3996 -0.871988 -0.282765
113.434 100.87 166.978 -0.3996 -0.871988 -0.282765
113.434 100.87 166.978 -0.240671 -0.965992 -0.0945325
114.395 100.718 166.09 -0.240671 -0.965992 -0.0945325
114.488 100.621 166.845 -0.240671 -0.965992 -0.0945325
115.593 99.8622 166.654 -0.540858 -0.833228 -0.114909
114.395 100.718 166.09 -0.540858 -0.833228 -0.114909
115.263 100.233 165.517 -0.540858 -0.833228 -0.114909
114.488 100.621 166.845 -0.569642 -0.821133 -0.0353269
114.395 100.718 166.09 -0.569642 -0.821133 -0.0353269
115.593 99.8622 166.654 -0.569642 -0.821133 -0.0353269
118.046 100.141 165.685 0.625307 -0.547844 -0.555749
118.453 100.777 165.515 0.625307 -0.547844 -0.555749
118.648 100.245 166.259 0.625307 -0.547844 -0.555749
118.648 100.245 166.259 0.762798 -0.414431 -0.496372
118.453 100.777 165.515 0.762798 -0.414431 -0.496372
118.783 100.947 165.88 0.762798 -0.414431 -0.496372
118.648 100.245 166.259 0.933229 -0.292416 -0.208752
118.783 100.947 165.88 0.933229 -0.292416 -0.208752
118.79 100.333 166.771 0.933229 -0.292416 -0.208752
118.79 100.333 166.771 0.999968 -0.00076458 -0.00800613
118.783 100.947 165.88 0.999968 -0.00076458 -0.00800613
118.788 101.156 166.48 0.999968 -0.00076458 -0.00800613
114.388 100.93 165.735 -0.472774 0.660409 -0.583392
113.33 101.013 166.687 -0.472774 0.660409 -0.583392
113.579 101.159 166.65 -0.472774 0.660409 -0.583392
114.388 100.93 165.735 -0.594954 0.478469 -0.64583
113.579 101.159 166.65 -0.594954 0.478469 -0.64583
114.637 101.145 165.665 -0.594954 0.478469 -0.64583
114.637 101.145 165.665 -0.24797 0.927455 -0.279889
113.579 101.159 166.65 -0.24797 0.927455 -0.279889
114.414 101.378 166.637 -0.24797 0.927455 -0.279889
115.284 101.933 166.617 -0.472818 0.722169 -0.504891
115.482 101.384 165.645 -0.472818 0.722169 -0.504891
114.414 101.378 166.637 -0.472818 0.722169 -0.504891
115.482 101.384 165.645 -0.267589 0.921082 -0.282851
114.637 101.145 165.665 -0.267589 0.921082 -0.282851
114.414 101.378 166.637 -0.267589 0.921082 -0.282851
115.482 101.384 165.645 -0.452882 0.733297 -0.507122
115.284 101.933 166.617 -0.452882 0.733297 -0.507122
116.368 101.906 165.609 -0.452882 0.733297 -0.507122
118.419 101.902 165.888 0.478496 0.802894 0.355532
117.573 102.058 166.674 0.478496 0.802894 0.355532
118.477 101.422 166.893 0.478496 0.802894 0.355532
118.419 101.902 165.888 0.789104 0.570831 0.226864
118.477 101.422 166.893 0.789104 0.570831 0.226864
118.788 101.156 166.48 0.789104 0.570831 0.226864
118.419 101.902 165.888 0.872079 0.484795 0.0667246
118.788 101.156 166.48 0.872079 0.484795 0.0667246
118.535 101.736 165.575 0.872079 0.484795 0.0667246
118.535 101.736 165.575 0.959609 0.263101 -0.0996373
118.788 101.156 166.48 0.959609 0.263101 -0.0996373
118.783 100.947 165.88 0.959609 0.263101 -0.0996373
116.368 101.906 165.609 -0.287684 0.897689 -0.333755
115.284 101.933 166.617 -0.287684 0.897689 -0.333755
115.799 102.152 166.761 -0.287684 0.897689 -0.333755
116.368 101.906 165.609 -0.299168 0.892231 -0.338264
115.799 102.152 166.761 -0.299168 0.892231 -0.338264
116.892 102.145 165.774 -0.299168 0.892231 -0.338264
116.892 102.145 165.774 -0.0150222 0.999595 -0.0241618
115.799 102.152 166.761 -0.0150222 0.999595 -0.0241618
116.634 102.163 166.682 -0.0150222 0.999595 -0.0241618
117.693 102.138 165.724 0.0140753 0.996241 0.0854752
116.892 102.145 165.774 0.0140753 0.996241 0.0854752
117.573 102.058 166.674 0.0140753 0.996241 0.0854752
116.892 102.145 165.774 0.111079 0.993741 0.0118461
116.634 102.163 166.682 0.111079 0.993741 0.0118461
117.573 102.058 166.674 0.111079 0.993741 0.0118461
117.573 102.058 166.674 0.283255 0.95203 0.115779
118.419 101.902 165.888 0.283255 0.95203 0.115779
117.693 102.138 165.724 0.283255 0.95203 0.115779
116.863 99.0283 166.73 -0.427172 -0.90394 0.0204033
116.599 99.1608 167.086 -0.427172 -0.90394 0.0204033
116.491 99.2012 166.594 -0.427172 -0.90394 0.0204033
116.863 99.0283 166.73 0.167558 -0.921566 0.350201
117.549 99.1248 166.655 0.167558 -0.921566 0.350201
117.452 99.2099 166.926 0.167558 -0.921566 0.350201
116.599 99.1608 167.086 0.132055 -0.892969 0.430311
116.863 99.0283 166.73 0.132055 -0.892969 0.430311
117.452 99.2099 166.926 0.132055 -0.892969 0.430311
117.549 99.1248 166.655 0.597507 -0.678219 0.427791
118.319 99.7854 166.627 0.597507 -0.678219 0.427791
117.452 99.2099 166.926 0.597507 -0.678219 0.427791
115.593 99.8622 166.654 -0.566095 -0.815532 -0.120184
115.375 99.8361 167.86 -0.566095 -0.815532 -0.120184
115.006 100.137 167.553 -0.566095 -0.815532 -0.120184
116.599 99.1608 167.086 -0.58918 -0.805432 0.0643869
115.593 99.8622 166.654 -0.58918 -0.805432 0.0643869
116.491 99.2012 166.594 -0.58918 -0.805432 0.0643869
116.599 99.1608 167.086 -0.633497 -0.66097 0.402243
116.597 99.4819 167.609 -0.633497 -0.66097 0.402243
115.593 99.8622 166.654 -0.633497 -0.66097 0.402243
116.597 99.4819 167.609 -0.29157 -0.953726 -0.0734438
115.375 99.8361 167.86 -0.29157 -0.953726 -0.0734438
115.593 99.8622 166.654 -0.29157 -0.953726 -0.0734438
117.452 99.2099 166.926 0.145597 -0.842902 0.517993
116.597 99.4819 167.609 0.145597 -0.842902 0.517993
116.599 99.1608 167.086 0.145597 -0.842902 0.517993
117.793 99.8404 167.464 0.290132 -0.707095 0.644856
116.597 99.4819 167.609 0.290132 -0.707095 0.644856
117.452 99.2099 166.926 0.290132 -0.707095 0.644856
118.547 100.08 167.335 0.329942 -0.697069 0.63658
118.198 100.189 167.635 0.329942 -0.697069 0.63658
117.793 99.8404 167.464 0.329942 -0.697069 0.63658
118.319 99.7854 166.627 0.332847 -0.9039 0.268658
118.547 100.08 167.335 0.332847 -0.9039 0.268658
117.793 99.8404 167.464 0.332847 -0.9039 0.268658
118.319 99.7854 166.627 0.597815 -0.68236 0.420715
117.793 99.8404 167.464 0.597815 -0.68236 0.420715
117.452 99.2099 166.926 0.597815 -0.68236 0.420715
118.319 99.7854 166.627 0.753781 -0.656427 0.0303103
118.79 100.333 166.771 0.753781 -0.656427 0.0303103
118.547 100.08 167.335 0.753781 -0.656427 0.0303103
112.557 101.023 167.482 -0.335567 -0.888266 -0.313654
113.33 101.013 166.687 -0.335567 -0.888266 -0.313654
113.434 100.87 166.978 -0.335567 -0.888266 -0.313654
112.557 101.023 167.482 -0.320828 -0.903762 -0.283345
113.434 100.87 166.978 -0.320828 -0.903762 -0.283345
112.707 100.865 167.819 -0.320828 -0.903762 -0.283345
112.707 100.865 167.819 -0.238839 -0.947461 -0.212777
113.434 100.87 166.978 -0.238839 -0.947461 -0.212777
113.357 100.725 167.712 -0.238839 -0.947461 -0.212777
114.488 100.621 166.845 -0.246163 -0.956604 -0.155927
114.163 100.57 167.667 -0.246163 -0.956604 -0.155927
113.434 100.87 166.978 -0.246163 -0.956604 -0.155927
113.434 100.87 166.978 -0.195335 -0.957924 -0.210302
114.163 100.57 167.667 -0.195335 -0.957924 -0.210302
113.357 100.725 167.712 -0.195335 -0.957924 -0.210302
115.006 100.137 167.553 -0.576228 -0.806977 -0.129418
114.488 100.621 166.845 -0.576228 -0.806977 -0.129418
115.593 99.8622 166.654 -0.576228 -0.806977 -0.129418
114.163 100.57 167.667 -0.46924 -0.850519 -0.237551
114.488 100.621 166.845 -0.46924 -0.850519 -0.237551
115.006 100.137 167.553 -0.46924 -0.850519 -0.237551
118.547 100.08 167.335 0.507337 -0.430964 0.746243
118.675 100.54 167.513 0.507337 -0.430964 0.746243
118.198 100.189 167.635 0.507337 -0.430964 0.746243
118.675 100.54 167.513 0.908209 -0.345399 0.236338
118.547 100.08 167.335 0.908209 -0.345399 0.236338
118.79 100.333 166.771 0.908209 -0.345399 0.236338
118.675 100.54 167.513 0.979343 -0.0962441 0.177832
118.79 100.333 166.771 0.979343 -0.0962441 0.177832
118.741 100.938 167.367 0.979343 -0.0962441 0.177832
118.741 100.938 167.367 0.998028 0.0227461 0.0585017
118.79 100.333 166.771 0.998028 0.0227461 0.0585017
118.788 101.156 166.48 0.998028 0.0227461 0.0585017
113.33 101.013 166.687 -0.604321 0.53105 -0.593955
112.557 101.023 167.482 -0.604321 0.53105 -0.593955
112.693 101.137 167.446 -0.604321 0.53105 -0.593955
113.33 101.013 166.687 -0.486829 0.699523 -0.52313
112.693 101.137 167.446 -0.486829 0.699523 -0.52313
113.579 101.159 166.65 -0.486829 0.699523 -0.52313
113.579 101.159 166.65 -0.288934 0.910078 -0.297111
112.693 101.137 167.446 -0.288934 0.910078 -0.297111
113.37 101.431 167.687 -0.288934 0.910078 -0.297111
114.305 101.937 167.492 -0.487559 0.70135 -0.519994
114.414 101.378 166.637 -0.487559 0.70135 -0.519994
113.37 101.431 167.687 -0.487559 0.70135 -0.519994
114.414 101.378 166.637 -0.24721 0.92382 -0.292309
113.579 101.159 166.65 -0.24721 0.92382 -0.292309
113.37 101.431 167.687 -0.24721 0.92382 -0.292309
114.414 101.378 166.637 -0.466841 0.712106 -0.524371
114.305 101.937 167.492 -0.466841 0.712106 -0.524371
115.284 101.933 166.617 -0.466841 0.712106 -0.524371
117.813 101.904 167.352 0.390339 0.6878 0.612019
117.411 101.915 167.596 0.390339 0.6878 0.612019
117.893 101.673 167.561 0.390339 0.6878 0.612019
117.813 101.904 167.352 0.578577 0.815378 -0.020178
118.477 101.422 166.893 0.578577 0.815378 -0.020178
117.573 102.058 166.674 0.578577 0.815378 -0.020178
117.813 101.904 167.352 0.702306 0.595118 0.390642
117.893 101.673 167.561 0.702306 0.595118 0.390642
118.477 101.422 166.893 0.702306 0.595118 0.390642
117.893 101.673 167.561 0.639248 0.711567 0.291607
118.469 101.151 167.573 0.639248 0.711567 0.291607
118.477 101.422 166.893 0.639248 0.711567 0.291607
118.741 100.938 167.367 0.771299 0.607469 0.189948
118.788 101.156 166.48 0.771299 0.607469 0.189948
118.477 101.422 166.893 0.771299 0.607469 0.189948
118.469 101.151 167.573 0.710301 0.650811 0.268173
118.741 100.938 167.367 0.710301 0.650811 0.268173
118.477 101.422 166.893 0.710301 0.650811 0.268173
115.284 101.933 166.617 -0.406662 0.790836 -0.457389
114.305 101.937 167.492 -0.406662 0.790836 -0.457389
114.679 102.331 167.841 -0.406662 0.790836 -0.457389
115.284 101.933 166.617 -0.256596 0.874987 -0.410557
114.679 102.331 167.841 -0.256596 0.874987 -0.410557
115.799 102.152 166.761 -0.256596 0.874987 -0.410557
115.799 102.152 166.761 0.122762 0.991759 -0.0366537
114.679 102.331 167.841 0.122762 0.991759 -0.0366537
115.523 102.222 167.728 0.122762 0.991759 -0.0366537
116.634 102.163 166.682 -0.0073422 0.998305 0.0577334
115.799 102.152 166.761 -0.0073422 0.998305 0.0577334
116.441 102.106 167.647 -0.0073422 0.998305 0.0577334
115.799 102.152 166.761 0.122596 0.991778 -0.0367023
115.523 102.222 167.728 0.122596 0.991778 -0.0367023
116.441 102.106 167.647 0.122596 0.991778 -0.0367023
117.411 101.915 167.596 0.13209 0.97581 0.174205
117.813 101.904 167.352 0.13209 0.97581 0.174205
117.573 102.058 166.674 0.13209 0.97581 0.174205
117.411 101.915 167.596 0.198652 0.962665 0.183886
117.573 102.058 166.674 0.198652 0.962665 0.183886
116.441 102.106 167.647 0.198652 0.962665 0.183886
116.441 102.106 167.647 0.111352 0.990475 0.08099
117.573 102.058 166.674 0.111352 0.990475 0.08099
116.634 102.163 166.682 0.111352 0.990475 0.08099
113.489 100.256 168.462 -0.377739 -0.85849 -0.346854
113.564 99.9929 169.03 -0.377739 -0.85849 -0.346854
113.261 100.189 168.876 -0.377739 -0.85849 -0.346854
113.489 100.256 168.462 -0.217526 -0.942625 -0.253261
114.484 100.079 168.266 -0.217526 -0.942625 -0.253261
114.526 99.9302 168.783 -0.217526 -0.942625 -0.253261
113.564 99.9929 169.03 -0.160986 -0.903798 -0.396526
113.489 100.256 168.462 -0.160986 -0.903798 -0.396526
114.526 99.9302 168.783 -0.160986 -0.903798 -0.396526
114.484 100.079 168.266 -0.39346 -0.846906 -0.357685
115.006 100.137 167.553 -0.39346 -0.846906 -0.357685
115.375 99.8361 167.86 -0.39346 -0.846906 -0.357685
114.484 100.079 168.266 -0.352487 -0.906592 -0.232042
115.375 99.8361 167.86 -0.352487 -0.906592 -0.232042
114.526 99.9302 168.783 -0.352487 -0.906592 -0.232042
114.526 99.9302 168.783 -0.0337014 -0.996929 0.0706931
115.375 99.8361 167.86 -0.0337014 -0.996929 0.0706931
115.649 99.8765 168.562 -0.0337014 -0.996929 0.0706931
116.635 100.142 168.077 0.444652 -0.745028 0.49721
115.969 100.299 168.908 0.444652 -0.745028 0.49721
115.649 99.8765 168.562 0.444652 -0.745028 0.49721
116.635 100.142 168.077 0.484795 -0.524974 0.699554
115.649 99.8765 168.562 0.484795 -0.524974 0.699554
116.597 99.4819 167.609 0.484795 -0.524974 0.699554
116.597 99.4819 167.609 -0.2463 -0.957301 0.151363
115.649 99.8765 168.562 -0.2463 -0.957301 0.151363
115.375 99.8361 167.86 -0.2463 -0.957301 0.151363
116.597 99.4819 167.609 0.259089 -0.540515 0.800447
117.793 99.8404 167.464 0.259089 -0.540515 0.800447
117.608 100.145 167.729 0.259089 -0.540515 0.800447
116.635 100.142 168.077 0.279231 -0.566661 0.775193
116.597 99.4819 167.609 0.279231 -0.566661 0.775193
117.608 100.145 167.729 0.279231 -0.566661 0.775193
117.793 99.8404 167.464 0.169733 -0.586906 0.791664
118.198 100.189 167.635 0.169733 -0.586906 0.791664
117.608 100.145 167.729 0.169733 -0.586906 0.791664
112.707 100.865 167.819 -0.879958 -0.437434 0.185269
112.595 101.142 167.941 -0.879958 -0.437434 0.185269
112.557 101.023 167.482 -0.879958 -0.437434 0.185269
113.489 100.256 168.462 -0.80053 -0.337432 -0.495269
113.261 100.189 168.876 -0.80053 -0.337432 -0.495269
113.061 100.865 168.738 -0.80053 -0.337432 -0.495269
113.489 100.256 168.462 -0.722163 -0.633301 0.278226
113.061 100.865 168.738 -0.722163 -0.633301 0.278226
112.707 100.865 167.819 -0.722163 -0.633301 0.278226
113.489 100.256 168.462 -0.259214 -0.83856 -0.479192
112.707 100.865 167.819 -0.259214 -0.83856 -0.479192
113.357 100.725 167.712 -0.259214 -0.83856 -0.479192
112.595 101.142 167.941 -0.822634 -0.472075 0.316889
112.707 100.865 167.819 -0.822634 -0.472075 0.316889
113.061 100.865 168.738 -0.822634 -0.472075 0.316889
114.163 100.57 167.667 -0.190022 -0.846928 -0.496592
113.489 100.256 168.462 -0.190022 -0.846928 -0.496592
113.357 100.725 167.712 -0.190022 -0.846928 -0.496592
114.484 100.079 168.266 -0.248596 -0.809722 -0.531554
113.489 100.256 168.462 -0.248596 -0.809722 -0.531554
114.163 100.57 167.667 -0.248596 -0.809722 -0.531554
115.006 100.137 167.553 -0.460938 -0.790915 -0.40248
114.484 100.079 168.266 -0.460938 -0.790915 -0.40248
114.163 100.57 167.667 -0.460938 -0.790915 -0.40248
116.635 100.142 168.077 0.612501 -0.525729 0.590297
116.645 100.768 168.624 0.612501 -0.525729 0.590297
115.969 100.299 168.908 0.612501 -0.525729 0.590297
116.645 100.768 168.624 0.66938 -0.197983 0.716054
117.525 101.067 167.885 0.66938 -0.197983 0.716054
116.767 101.141 168.614 0.66938 -0.197983 0.716054
116.645 100.768 168.624 0.649424 -0.506285 0.567384
116.635 100.142 168.077 0.649424 -0.506285 0.567384
117.525 101.067 167.885 0.649424 -0.506285 0.567384
116.635 100.142 168.077 0.334585 -0.127334 0.933723
117.608 100.145 167.729 0.334585 -0.127334 0.933723
117.525 101.067 167.885 0.334585 -0.127334 0.933723
118.198 100.189 167.635 0.395717 -0.229722 0.889177
118.675 100.54 167.513 0.395717 -0.229722 0.889177
118.452 100.8 167.68 0.395717 -0.229722 0.889177
118.198 100.189 167.635 0.166238 -0.141013 0.975951
118.452 100.8 167.68 0.166238 -0.141013 0.975951
117.608 100.145 167.729 0.166238 -0.141013 0.975951
117.608 100.145 167.729 0.172182 -0.148827 0.973758
118.452 100.8 167.68 0.172182 -0.148827 0.973758
117.525 101.067 167.885 0.172182 -0.148827 0.973758
118.675 100.54 167.513 0.693989 0.144086 0.705421
118.741 100.938 167.367 0.693989 0.144086 0.705421
118.452 100.8 167.68 0.693989 0.144086 0.705421
112.557 101.023 167.482 -0.659067 0.739423 -0.137423
112.595 101.142 167.941 -0.659067 0.739423 -0.137423
112.693 101.137 167.446 -0.659067 0.739423 -0.137423
112.595 101.142 167.941 -0.37153 0.924771 -0.082244
113.37 101.431 167.687 -0.37153 0.924771 -0.082244
112.693 101.137 167.446 -0.37153 0.924771 -0.082244
112.595 101.142 167.941 -0.418197 0.856378 -0.302868
113.168 101.738 168.834 -0.418197 0.856378 -0.302868
113.37 101.431 167.687 -0.418197 0.856378 -0.302868
112.595 101.142 167.941 -0.855011 0.0477385 0.516408
113.061 100.865 168.738 -0.855011 0.0477385 0.516408
113.168 101.738 168.834 -0.855011 0.0477385 0.516408
113.168 101.738 168.834 -0.709205 0.639672 -0.296391
113.733 102.277 168.643 -0.709205 0.639672 -0.296391
113.37 101.431 167.687 -0.709205 0.639672 -0.296391
113.37 101.431 167.687 -0.494291 0.735801 -0.462896
113.733 102.277 168.643 -0.494291 0.735801 -0.462896
114.305 101.937 167.492 -0.494291 0.735801 -0.462896
116.711 101.767 168.054 0.580701 0.609056 0.54022
115.936 101.882 168.757 0.580701 0.609056 0.54022
116.455 101.313 168.841 0.580701 0.609056 0.54022
116.767 101.141 168.614 0.67036 0.527276 0.522108
116.711 101.767 168.054 0.67036 0.527276 0.522108
116.455 101.313 168.841 0.67036 0.527276 0.522108
117.525 101.067 167.885 0.600994 0.562193 0.568107
116.711 101.767 168.054 0.600994 0.562193 0.568107
116.767 101.141 168.614 0.600994 0.562193 0.568107
117.525 101.067 167.885 0.462474 0.340604 0.8186
117.411 101.915 167.596 0.462474 0.340604 0.8186
116.711 101.767 168.054 0.462474 0.340604 0.8186
117.525 101.067 167.885 0.238411 0.341299 0.909217
117.893 101.673 167.561 0.238411 0.341299 0.909217
117.411 101.915 167.596 0.238411 0.341299 0.909217
118.469 101.151 167.573 0.271594 0.320259 0.907563
117.893 101.673 167.561 0.271594 0.320259 0.907563
117.525 101.067 167.885 0.271594 0.320259 0.907563
118.452 100.8 167.68 0.280775 0.268365 0.921491
118.469 101.151 167.573 0.280775 0.268365 0.921491
117.525 101.067 167.885 0.280775 0.268365 0.921491
118.741 100.938 167.367 0.679951 0.183632 0.709892
118.469 101.151 167.573 0.679951 0.183632 0.709892
118.452 100.8 167.68 0.679951 0.183632 0.709892
114.323 102.881 168.616 -0.705672 0.679578 -0.200501
113.733 102.277 168.643 -0.705672 0.679578 -0.200501
114.275 102.92 168.917 -0.705672 0.679578 -0.200501
114.679 102.331 167.841 -0.567737 0.525164 -0.633938
113.733 102.277 168.643 -0.567737 0.525164 -0.633938
114.323 102.881 168.616 -0.567737 0.525164 -0.633938
114.679 102.331 167.841 -0.420951 0.791582 -0.442943
114.305 101.937 167.492 -0.420951 0.791582 -0.442943
113.733 102.277 168.643 -0.420951 0.791582 -0.442943
114.574 102.881 168.696 0.165383 0.838253 -0.519597
114.679 102.331 167.841 0.165383 0.838253 -0.519597
114.323 102.881 168.616 0.165383 0.838253 -0.519597
114.574 102.881 168.696 0.594461 0.707149 -0.382826
115.303 102.311 168.776 0.594461 0.707149 -0.382826
114.679 102.331 167.841 0.594461 0.707149 -0.382826
115.303 102.311 168.776 0.119617 0.99104 -0.0594317
115.523 102.222 167.728 0.119617 0.99104 -0.0594317
114.679 102.331 167.841 0.119617 0.99104 -0.0594317
115.936 101.882 168.757 0.456476 0.808786 0.370802
116.711 101.767 168.054 0.456476 0.808786 0.370802
116.441 102.106 167.647 0.456476 0.808786 0.370802
115.936 101.882 168.757 0.524773 0.755995 0.39126
116.441 102.106 167.647 0.524773 0.755995 0.39126
115.303 102.311 168.776 0.524773 0.755995 0.39126
115.303 102.311 168.776 0.120503 0.990944 -0.0592379
116.441 102.106 167.647 0.120503 0.990944 -0.0592379
115.523 102.222 167.728 0.120503 0.990944 -0.0592379
117.411 101.915 167.596 0.18842 0.812454 0.55174
116.441 102.106 167.647 0.18842 0.812454 0.55174
116.711 101.767 168.054 0.18842 0.812454 0.55174
114.323 102.881 168.616 -0.768671 0.607217 -0.201078
114.275 102.92 168.917 -0.768671 0.607217 -0.201078
114.408 103.06 168.834 -0.768671 0.607217 -0.201078
114.574 102.881 168.696 0.212929 0.712884 -0.668174
114.323 102.881 168.616 0.212929 0.712884 -0.668174
114.408 103.06 168.834 0.212929 0.712884 -0.668174
113.564 99.9929 169.03 -0.5671 -0.816911 0.105135
113.618 100.04 169.68 -0.5671 -0.816911 0.105135
113.295 100.238 169.483 -0.5671 -0.816911 0.105135
113.261 100.189 168.876 -0.574032 -0.812848 0.0988177
113.564 99.9929 169.03 -0.574032 -0.812848 0.0988177
113.295 100.238 169.483 -0.574032 -0.812848 0.0988177
114.526 99.9302 168.783 -0.0417281 -0.99504 0.0902998
114.424 100.013 169.652 -0.0417281 -0.99504 0.0902998
113.564 99.9929 169.03 -0.0417281 -0.99504 0.0902998
113.564 99.9929 169.03 -0.0297852 -0.996824 0.073854
114.424 100.013 169.652 -0.0297852 -0.996824 0.073854
113.618 100.04 169.68 -0.0297852 -0.996824 0.073854
115.649 99.8765 168.562 0.00302478 -0.968124 0.250455
115.372 100.122 169.513 0.00302478 -0.968124 0.250455
114.526 99.9302 168.783 0.00302478 -0.968124 0.250455
114.526 99.9302 168.783 0.128621 -0.985646 0.109351
115.372 100.122 169.513 0.128621 -0.985646 0.109351
114.424 100.013 169.652 0.128621 -0.985646 0.109351
115.372 100.122 169.513 0.579409 -0.732554 0.357281
115.649 99.8765 168.562 0.579409 -0.732554 0.357281
115.969 100.299 168.908 0.579409 -0.732554 0.357281
113.261 100.189 168.876 -0.960406 -0.267995 0.0761478
113.295 100.238 169.483 -0.960406 -0.267995 0.0761478
113.061 100.865 168.738 -0.960406 -0.267995 0.0761478
113.295 100.238 169.483 -0.96835 -0.0808935 0.236124
113.261 101.036 169.616 -0.96835 -0.0808935 0.236124
113.061 100.865 168.738 -0.96835 -0.0808935 0.236124
116.453 100.944 169.222 0.62971 -0.66669 0.398735
115.969 100.299 168.908 0.62971 -0.66669 0.398735
116.645 100.768 168.624 0.62971 -0.66669 0.398735
116.453 100.944 169.222 0.413385 -0.630153 0.657282
115.948 101.049 169.641 0.413385 -0.630153 0.657282
115.969 100.299 168.908 0.413385 -0.630153 0.657282
115.948 101.049 169.641 0.685347 -0.498694 0.530663
115.372 100.122 169.513 0.685347 -0.498694 0.530663
115.969 100.299 168.908 0.685347 -0.498694 0.530663
116.645 100.768 168.624 0.887461 -0.279034 0.366815
116.767 101.141 168.614 0.887461 -0.279034 0.366815
116.453 100.944 169.222 0.887461 -0.279034 0.366815
113.061 100.865 168.738 -0.974403 0.0966877 0.202955
113.261 101.036 169.616 -0.974403 0.0966877 0.202955
113.168 101.738 168.834 -0.974403 0.0966877 0.202955
113.261 101.036 169.616 -0.987144 0.0409758 0.154494
113.311 101.791 169.737 -0.987144 0.0409758 0.154494
113.168 101.738 168.834 -0.987144 0.0409758 0.154494
116.455 101.313 168.841 0.586644 0.581561 0.563591
115.948 101.049 169.641 0.586644 0.581561 0.563591
116.453 100.944 169.222 0.586644 0.581561 0.563591
116.455 101.313 168.841 0.569746 0.601887 0.559572
115.936 101.882 168.757 0.569746 0.601887 0.559572
115.948 101.049 169.641 0.569746 0.601887 0.559572
115.936 101.882 168.757 0.849043 0.390216 0.356171
115.562 101.94 169.584 0.849043 0.390216 0.356171
115.948 101.049 169.641 0.849043 0.390216 0.356171
116.767 101.141 168.614 0.669798 0.532944 0.51705
116.455 101.313 168.841 0.669798 0.532944 0.51705
116.453 100.944 169.222 0.669798 0.532944 0.51705
113.168 101.738 168.834 -0.789755 0.606837 0.0896417
113.311 101.791 169.737 -0.789755 0.606837 0.0896417
113.563 102.131 169.66 -0.789755 0.606837 0.0896417
113.733 102.277 168.643 -0.691817 0.721971 -0.0121491
113.168 101.738 168.834 -0.691817 0.721971 -0.0121491
113.563 102.131 169.66 -0.691817 0.721971 -0.0121491
114.275 102.92 168.917 -0.527457 0.680404 0.508763
114.405 102.554 169.541 -0.527457 0.680404 0.508763
114.526 102.92 169.178 -0.527457 0.680404 0.508763
114.275 102.92 168.917 -0.771772 0.465443 0.433278
113.733 102.277 168.643 -0.771772 0.465443 0.433278
114.405 102.554 169.541 -0.771772 0.465443 0.433278
113.733 102.277 168.643 -0.442306 0.895215 0.0543542
113.563 102.131 169.66 -0.442306 0.895215 0.0543542
114.405 102.554 169.541 -0.442306 0.895215 0.0543542
114.526 102.92 169.178 0.61601 0.787734 -0.00251569
115.303 102.311 168.776 0.61601 0.787734 -0.00251569
114.574 102.881 168.696 0.61601 0.787734 -0.00251569
114.526 102.92 169.178 0.652643 0.413403 0.634945
114.405 102.554 169.541 0.652643 0.413403 0.634945
115.303 102.311 168.776 0.652643 0.413403 0.634945
114.405 102.554 169.541 0.403158 0.895271 0.189614
115.173 102.137 169.876 0.403158 0.895271 0.189614
115.303 102.311 168.776 0.403158 0.895271 0.189614
115.562 101.94 169.584 0.555048 0.808908 0.19388
115.936 101.882 168.757 0.555048 0.808908 0.19388
115.303 102.311 168.776 0.555048 0.808908 0.19388
115.173 102.137 169.876 0.554953 0.80896 0.193934
115.562 101.94 169.584 0.554953 0.80896 0.193934
115.303 102.311 168.776 0.554953 0.80896 0.193934
114.275 102.92 168.917 -0.486438 0.737054 0.469179
114.526 102.92 169.178 -0.486438 0.737054 0.469179
114.408 103.06 168.834 -0.486438 0.737054 0.469179
114.574 102.881 168.696 0.739468 0.672919 0.0191362
114.408 103.06 168.834 0.739468 0.672919 0.0191362
114.526 102.92 169.178 0.739468 0.672919 0.0191362
113.618 100.04 169.68 -0.654706 -0.504498 0.562887
113.551 100.38 169.908 -0.654706 -0.504498 0.562887
113.295 100.238 169.483 -0.654706 -0.504498 0.562887
113.618 100.04 169.68 -0.00455679 -0.795277 0.606229
114.424 100.013 169.652 -0.00455679 -0.795277 0.606229
114.404 100.263 169.98 -0.00455679 -0.795277 0.606229
113.551 100.38 169.908 -0.145728 -0.56991 0.808681
113.618 100.04 169.68 -0.145728 -0.56991 0.808681
114.404 100.263 169.98 -0.145728 -0.56991 0.808681
115.265 100.283 170.203 -0.136208 -0.791698 0.595535
114.404 100.263 169.98 -0.136208 -0.791698 0.595535
114.424 100.013 169.652 -0.136208 -0.791698 0.595535
115.265 100.283 170.203 0.145707 -0.958027 0.246889
114.424 100.013 169.652 0.145707 -0.958027 0.246889
115.372 100.122 169.513 0.145707 -0.958027 0.246889
113.551 100.38 169.908 -0.891221 -0.21758 0.397974
113.473 101.173 170.167 -0.891221 -0.21758 0.397974
113.261 101.036 169.616 -0.891221 -0.21758 0.397974
113.295 100.238 169.483 -0.830371 -0.126253 0.542719
113.551 100.38 169.908 -0.830371 -0.126253 0.542719
113.261 101.036 169.616 -0.830371 -0.126253 0.542719
114.404 100.263 169.98 -0.130423 -0.396876 0.908559
114.332 101.169 170.365 -0.130423 -0.396876 0.908559
113.551 100.38 169.908 -0.130423 -0.396876 0.908559
114.332 101.169 170.365 -0.21412 -0.32196 0.922222
113.473 101.173 170.167 -0.21412 -0.32196 0.922222
113.551 100.38 169.908 -0.21412 -0.32196 0.922222
115.265 100.283 170.203 -0.251687 0.0148889 0.967694
115.251 100.937 170.19 -0.251687 0.0148889 0.967694
114.404 100.263 169.98 -0.251687 0.0148889 0.967694
115.251 100.937 170.19 0.0785289 -0.385003 0.919568
114.332 101.169 170.365 0.0785289 -0.385003 0.919568
114.404 100.263 169.98 0.0785289 -0.385003 0.919568
115.251 100.937 170.19 0.615775 0.029139 0.787383
115.265 100.283 170.203 0.615775 0.029139 0.787383
115.948 101.049 169.641 0.615775 0.029139 0.787383
115.948 101.049 169.641 0.806618 -0.535234 0.250781
115.265 100.283 170.203 0.806618 -0.535234 0.250781
115.372 100.122 169.513 0.806618 -0.535234 0.250781
113.473 101.173 170.167 -0.726714 0.253382 0.638502
113.657 101.859 170.104 -0.726714 0.253382 0.638502
113.311 101.791 169.737 -0.726714 0.253382 0.638502
113.261 101.036 169.616 -0.933364 0.00477743 0.358899
113.473 101.173 170.167 -0.933364 0.00477743 0.358899
113.311 101.791 169.737 -0.933364 0.00477743 0.358899
114.293 101.889 170.632 -0.327297 -0.344119 0.880034
114.332 101.169 170.365 -0.327297 -0.344119 0.880034
114.567 101.715 170.666 -0.327297 -0.344119 0.880034
114.293 101.889 170.632 -0.599565 -0.306656 0.739245
113.657 101.859 170.104 -0.599565 -0.306656 0.739245
114.332 101.169 170.365 -0.599565 -0.306656 0.739245
113.657 101.859 170.104 -0.221565 0.148098 0.963834
113.473 101.173 170.167 -0.221565 0.148098 0.963834
114.332 101.169 170.365 -0.221565 0.148098 0.963834
114.567 101.715 170.666 0.541154 -0.248465 0.803379
115.272 101.757 170.204 0.541154 -0.248465 0.803379
114.824 102.008 170.584 0.541154 -0.248465 0.803379
114.567 101.715 170.666 0.472794 -0.57272 0.66967
114.332 101.169 170.365 0.472794 -0.57272 0.66967
115.272 101.757 170.204 0.472794 -0.57272 0.66967
114.332 101.169 170.365 0.182019 -0.0222445 0.983043
115.251 100.937 170.19 0.182019 -0.0222445 0.983043
115.272 101.757 170.204 0.182019 -0.0222445 0.983043
115.948 101.049 169.641 0.792716 0.373831 0.48151
115.562 101.94 169.584 0.792716 0.373831 0.48151
115.272 101.757 170.204 0.792716 0.373831 0.48151
115.251 100.937 170.19 0.621572 -0.0296416 0.782796
115.948 101.049 169.641 0.621572 -0.0296416 0.782796
115.272 101.757 170.204 0.621572 -0.0296416 0.782796
113.311 101.791 169.737 -0.640014 0.587876 0.494756
113.657 101.859 170.104 -0.640014 0.587876 0.494756
113.563 102.131 169.66 -0.640014 0.587876 0.494756
113.657 101.859 170.104 -0.509542 0.637993 0.577348
114.293 101.889 170.632 -0.509542 0.637993 0.577348
114.355 102.117 170.434 -0.509542 0.637993 0.577348
113.657 101.859 170.104 -0.502886 0.68596 0.525895
114.355 102.117 170.434 -0.502886 0.68596 0.525895
113.563 102.131 169.66 -0.502886 0.68596 0.525895
113.563 102.131 169.66 -0.368661 0.843022 0.391668
114.355 102.117 170.434 -0.368661 0.843022 0.391668
114.405 102.554 169.541 -0.368661 0.843022 0.391668
114.824 102.008 170.584 0.694401 0.565169 0.44541
115.272 101.757 170.204 0.694401 0.565169 0.44541
115.173 102.137 169.876 0.694401 0.565169 0.44541
114.824 102.008 170.584 0.144553 0.958449 0.245927
115.173 102.137 169.876 0.144553 0.958449 0.245927
114.355 102.117 170.434 0.144553 0.958449 0.245927
114.355 102.117 170.434 0.275912 0.857265 0.434705
115.173 102.137 169.876 0.275912 0.857265 0.434705
114.405 102.554 169.541 0.275912 0.857265 0.434705
115.562 101.94 169.584 0.655028 0.584179 0.479242
115.173 102.137 169.876 0.655028 0.584179 0.479242
115.272 101.757 170.204 0.655028 0.584179 0.479242
114.567 101.715 170.666 -0.326466 -0.34264 0.880919
114.471 101.996 170.74 -0.326466 -0.34264 0.880919
114.293 101.889 170.632 -0.326466 -0.34264 0.880919
114.567 101.715 170.666 0.404533 -0.0994562 0.909099
114.824 102.008 170.584 0.404533 -0.0994562 0.909099
114.471 101.996 170.74 0.404533 -0.0994562 0.909099
114.293 101.889 170.632 -0.647971 0.591107 0.48034
114.471 101.996 170.74 -0.647971 0.591107 0.48034
114.355 102.117 170.434 -0.647971 0.591107 0.48034
114.824 102.008 170.584 0.113788 0.937976 0.327496
114.355 102.117 170.434 0.113788 0.937976 0.327496
114.471 101.996 170.74 0.113788 0.937976 0.327496
3 0 1 2
3 3 4 5
3 6 7 8
3 9 10 11
3 12 13 14
3 15 16 17
3 18 19 20
3 21 22 23
3 24 25 26
3 27 28 29
3 30 31 32
3 33 34 35
3 36 37 38
3 39 40 41
3 42 43 44
3 45 46 47
3 48 49 50
3 51 52 53
3 54 55 56
3 57 58 59
3 60 61 62
3 63 64 65
3 66 67 68
3 69 70 71
3 72 73 74
3 75 76 77
3 78 79 80
3 81 82 83
3 84 85 86
3 87 88 89
3 90 91 92
3 93 94 95
3 96 97 98
3 99 100 101
3 102 103 104
3 105 106 107
3 108 109 110
3 111 112 113
3 114 115 116
3 117 118 119
3 120 121 122
3 123 124 125
3 126 127 128
3 129 130 131
3 132 133 134
3 135 136 137
3 138 139 140
3 141 142 143
3 144 145 146
3 147 148 149
3 150 151 152
3 153 154 155
3 156 157 158
3 159 160 161
3 162 163 164
3 165 166 167
3 168 169 170
3 171 172 173
3 174 175 176
3 177 178 179
3 180 181 182
3 183 184 185
3 186 187 188
3 189 190 191
3 192 193 194
3 195 196 197
3 198 199 200
3 201 202 203
3 204 205 206
3 207 208 209
3 210 211 212
3 213 214 215
3 216 217 218
3 219 220 221
3 222 223 224
3 225 226 227
3 228 229 230
3 231 232 233
3 234 235 236
3 237 238 239
3 240 241 242
3 243 244 245
3 246 247 248
3 249 250 251
3 252 253 254
3 255 256 257
3 258 259 260
3 261 262 263
3 264 265 266
3 267 268 269
3 270 271 272
3 273 274 275
3 276 277 278
3 279 280 281
3 282 283 284
3 285 286 287
3 288 289 290
3 291 292 293
3 294 295 296
3 297 298 299
3 300 301 302
3 303 304 305
3 306 307 308
3 309 310 311
3 312 313 314
3 315 316 317
3 318 319 320
3 321 322 323
3 324 325 326
3 327 328 329
3 330 331 332
3 333 334 335
3 336 337 338
3 339 340 341
3 342 343 344
3 345 346 347
3 348 349 350
3 351 352 353
3 354 355 356
3 357 358 359
3 360 361 362
3 363 364 365
3 366 367 368
3 369 370 371
3 372 373 374
3 375 376 377
3 378 379 380
3 381 382 383
3 384 385 386
3 387 388 389
3 390 391 392
3 393 394 395
3 396 397 398
3 399 400 401
3 402 403 404
3 405 406 407
3 408 409 410
3 411 412 413
3 414 415 416
3 417 418 419
3 420 421 422
3 423 424 425
3 426 427 428
3 429 430 431
3 432 433 434
3 435 436 437
3 438 439 440
3 441 442 443
3 444 445 446
3 447 448 449
3 450 451 452
3 453 454 455
3 456 457 458
3 459 460 461
3 462 463 464
3 465 466 467
3 468 469 470
3 471 472 473
3 474 475 476
3 477 478 479
3 480 481 482
3 483 484 485
3 486 487 488
3 489 490 491
3 492 493 494
3 495 496 497
3 498 499 500
3 501 502 503
3 504 505 506
3 507 508 509
3 510 511 512
3 513 514 515
3 516 517 518
3 519 520 521
3 522 523 524
3 525 526 527
3 528 529 530
3 531 532 533
3 534 535 536
3 537 538 539
3 540 541 542
3 543 544 545
3 546 547 548
3 549 550 551
3 552 553 554
3 555 556 557
3 558 559 560
3 561 562 563
3 564 565 566
3 567 568 569
3 570 571 572
3 573 574 575
3 576 577 578
3 579 580 581
3 582 583 584
3 585 586 587
3 588 589 590
3 591 592 593
3 594 595 596
3 597 598 599
3 600 601 602
3 603 604 605
3 606 607 608
3 609 610 611
3 612 613 614
3 615 616 617
3 618 619 620
3 621 622 623
3 624 625 626
3 627 628 629
3 630 631 632
3 633 634 635
3 636 637 638
3 639 640 641
3 642 643 644
3 645 646 647
3 648 649 650
3 651 652 653
3 654 655 656
3 657 658 659
3 660 661 662
3 663 664 665
3 666 667 668
3 669 670 671
3 672 673 674
3 675 676 677
3 678 679 680
3 681 682 683
3 684 685 686
3 687 688 689
3 690 691 692
3 693 694 695
3 696 697 698
3 699 700 701
3 702 703 704
3 705 706 707
3 708 709 710
3 711 712 713
3 714 715 716
3 717 718 719
3 720 721 722
3 723 724 725
3 726 727 728
3 729 730 731
3 732 733 734
3 735 736 737
3 738 739 740
3 741 742 743
3 744 745 746
3 747 748 749
3 750 751 752
3 753 754 755
