solid ascii
 facet normal -0.450199 -0.566843 -0.689934
  outer loop
   vertex 44.3416 167.703 158.002
   vertex 44.0953 167.199 158.576
   vertex 43.5649 167.898 158.348
  endloop
 endfacet
 facet normal -0.405319 -0.594226 -0.694703
  outer loop
   vertex 44.705 166.945 158.438
   vertex 44.0953 167.199 158.576
   vertex 44.3416 167.703 158.002
  endloop
 endfacet
 facet normal 0.092914 -0.462764 -0.881599
  outer loop
   vertex 44.705 166.945 158.438
   vertex 44.3416 167.703 158.002
   vertex 45.248 166.976 158.479
  endloop
 endfacet
 facet normal -0.0547387 -0.594697 -0.802084
  outer loop
   vertex 45.248 166.976 158.479
   vertex 44.3416 167.703 158.002
   vertex 45.2731 167.862 157.82
  endloop
 endfacet
 facet normal 0.126163 -0.634604 -0.76247
  outer loop
   vertex 46.218 167.106 158.531
   vertex 45.6972 166.811 158.69
   vertex 45.248 166.976 158.479
  endloop
 endfacet
 facet normal 0.120718 -0.575641 -0.808743
  outer loop
   vertex 46.218 167.106 158.531
   vertex 45.248 166.976 158.479
   vertex 46.1543 167.761 158.055
  endloop
 endfacet
 facet normal 0.143457 -0.593028 -0.792299
  outer loop
   vertex 46.1543 167.761 158.055
   vertex 45.248 166.976 158.479
   vertex 45.2731 167.862 157.82
  endloop
 endfacet
 facet normal 0.41135 -0.509109 -0.756042
  outer loop
   vertex 46.218 167.106 158.531
   vertex 46.1543 167.761 158.055
   vertex 46.855 167.708 158.472
  endloop
 endfacet
 facet normal -0.441861 -0.211113 -0.871889
  outer loop
   vertex 44.1148 168.72 157.87
   vertex 44.3416 167.703 158.002
   vertex 43.5649 167.898 158.348
  endloop
 endfacet
 facet normal -0.730597 0.0960195 -0.676024
  outer loop
   vertex 43.5637 168.712 158.465
   vertex 44.1148 168.72 157.87
   vertex 43.5649 167.898 158.348
  endloop
 endfacet
 facet normal -0.159566 -0.17631 -0.971315
  outer loop
   vertex 45.2731 167.862 157.82
   vertex 44.3416 167.703 158.002
   vertex 45.1199 168.725 157.688
  endloop
 endfacet
 facet normal -0.175031 -0.164367 -0.970746
  outer loop
   vertex 45.1199 168.725 157.688
   vertex 44.3416 167.703 158.002
   vertex 44.1148 168.72 157.87
  endloop
 endfacet
 facet normal 0.23466 -0.180447 -0.955183
  outer loop
   vertex 46.1543 167.761 158.055
   vertex 45.2731 167.862 157.82
   vertex 46.1466 168.705 157.875
  endloop
 endfacet
 facet normal 0.175577 -0.117767 -0.977396
  outer loop
   vertex 46.1466 168.705 157.875
   vertex 45.2731 167.862 157.82
   vertex 45.1199 168.725 157.688
  endloop
 endfacet
 facet normal 0.484056 -0.233237 -0.84338
  outer loop
   vertex 46.9799 168.533 158.315
   vertex 46.855 167.708 158.472
   vertex 46.1543 167.761 158.055
  endloop
 endfacet
 facet normal 0.433984 -0.165531 -0.885583
  outer loop
   vertex 46.1466 168.705 157.875
   vertex 46.9799 168.533 158.315
   vertex 46.1543 167.761 158.055
  endloop
 endfacet
 facet normal -0.705174 0.282691 -0.650243
  outer loop
   vertex 44.0789 169.46 158.231
   vertex 44.1148 168.72 157.87
   vertex 43.5637 168.712 158.465
  endloop
 endfacet
 facet normal -0.835309 0.518553 -0.182653
  outer loop
   vertex 43.9536 169.38 158.578
   vertex 44.0789 169.46 158.231
   vertex 43.5637 168.712 158.465
  endloop
 endfacet
 facet normal -0.174008 0.253756 -0.951488
  outer loop
   vertex 45.1199 168.725 157.688
   vertex 44.1148 168.72 157.87
   vertex 44.911 169.533 157.942
  endloop
 endfacet
 facet normal -0.332232 0.400109 -0.854128
  outer loop
   vertex 44.911 169.533 157.942
   vertex 44.1148 168.72 157.87
   vertex 44.0789 169.46 158.231
  endloop
 endfacet
 facet normal 0.174623 0.343808 -0.922661
  outer loop
   vertex 46.1466 168.705 157.875
   vertex 45.1199 168.725 157.688
   vertex 46.1254 169.589 158.2
  endloop
 endfacet
 facet normal 0.181123 0.336989 -0.923923
  outer loop
   vertex 46.1254 169.589 158.2
   vertex 45.1199 168.725 157.688
   vertex 44.911 169.533 157.942
  endloop
 endfacet
 facet normal 0.47447 0.0473401 -0.878998
  outer loop
   vertex 46.8853 169.36 158.309
   vertex 46.9799 168.533 158.315
   vertex 46.1466 168.705 157.875
  endloop
 endfacet
 facet normal 0.233146 0.340831 -0.910756
  outer loop
   vertex 46.1254 169.589 158.2
   vertex 46.8853 169.36 158.309
   vertex 46.1466 168.705 157.875
  endloop
 endfacet
 facet normal -0.543765 0.83923 -0.00357023
  outer loop
   vertex 44.0789 169.46 158.231
   vertex 43.9536 169.38 158.578
   vertex 44.3781 169.655 158.549
  endloop
 endfacet
 facet normal -0.206084 0.908397 -0.363792
  outer loop
   vertex 44.911 169.533 157.942
   vertex 44.0789 169.46 158.231
   vertex 44.3781 169.655 158.549
  endloop
 endfacet
 facet normal -0.185074 0.919219 -0.347541
  outer loop
   vertex 45.2295 169.801 158.482
   vertex 44.911 169.533 157.942
   vertex 44.3781 169.655 158.549
  endloop
 endfacet
 facet normal 0.0598575 0.879539 -0.472047
  outer loop
   vertex 46.1254 169.589 158.2
   vertex 44.911 169.533 157.942
   vertex 45.2295 169.801 158.482
  endloop
 endfacet
 facet normal 0.301769 -0.94517 0.124859
  outer loop
   vertex 45.248 166.976 158.479
   vertex 45.0991 167.064 159.51
   vertex 44.6827 166.869 159.034
  endloop
 endfacet
 facet normal 0.0653157 -0.990085 -0.124361
  outer loop
   vertex 44.705 166.945 158.438
   vertex 45.248 166.976 158.479
   vertex 44.6827 166.869 159.034
  endloop
 endfacet
 facet normal 0.0554134 -0.983502 0.172204
  outer loop
   vertex 45.6972 166.811 158.69
   vertex 46.4059 166.941 159.205
   vertex 46.0223 166.952 159.387
  endloop
 endfacet
 facet normal -0.470525 -0.796507 0.379715
  outer loop
   vertex 45.6972 166.811 158.69
   vertex 46.0223 166.952 159.387
   vertex 45.248 166.976 158.479
  endloop
 endfacet
 facet normal -0.112021 -0.991303 0.0690654
  outer loop
   vertex 45.248 166.976 158.479
   vertex 46.0223 166.952 159.387
   vertex 45.0991 167.064 159.51
  endloop
 endfacet
 facet normal -0.799459 -0.569789 0.190276
  outer loop
   vertex 44.0953 167.199 158.576
   vertex 44.2198 167.254 159.263
   vertex 43.7654 167.829 159.076
  endloop
 endfacet
 facet normal -0.810931 -0.559851 0.170168
  outer loop
   vertex 43.5649 167.898 158.348
   vertex 44.0953 167.199 158.576
   vertex 43.7654 167.829 159.076
  endloop
 endfacet
 facet normal -0.406366 -0.904271 -0.130996
  outer loop
   vertex 44.6827 166.869 159.034
   vertex 44.0953 167.199 158.576
   vertex 44.705 166.945 158.438
  endloop
 endfacet
 facet normal -0.579801 -0.79714 0.168519
  outer loop
   vertex 44.2198 167.254 159.263
   vertex 44.0953 167.199 158.576
   vertex 44.6827 166.869 159.034
  endloop
 endfacet
 facet normal 0.390892 -0.862982 -0.320102
  outer loop
   vertex 45.6972 166.811 158.69
   vertex 46.218 167.106 158.531
   vertex 46.4059 166.941 159.205
  endloop
 endfacet
 facet normal 0.686236 -0.526937 -0.501415
  outer loop
   vertex 46.855 167.708 158.472
   vertex 47.3381 168 158.827
   vertex 47.0775 167.347 159.156
  endloop
 endfacet
 facet normal 0.559896 -0.643561 -0.521868
  outer loop
   vertex 46.218 167.106 158.531
   vertex 46.855 167.708 158.472
   vertex 47.0775 167.347 159.156
  endloop
 endfacet
 facet normal 0.47015 -0.81808 -0.331216
  outer loop
   vertex 46.218 167.106 158.531
   vertex 47.0775 167.347 159.156
   vertex 46.4059 166.941 159.205
  endloop
 endfacet
 facet normal 0.764775 -0.506334 -0.398428
  outer loop
   vertex 47.0775 167.347 159.156
   vertex 47.3381 168 158.827
   vertex 47.5815 167.907 159.412
  endloop
 endfacet
 facet normal -0.964282 -0.0390399 0.261985
  outer loop
   vertex 43.5649 167.898 158.348
   vertex 43.7654 167.829 159.076
   vertex 43.5637 168.712 158.465
  endloop
 endfacet
 facet normal -0.896714 0.0941898 0.432472
  outer loop
   vertex 43.7654 167.829 159.076
   vertex 43.9029 168.663 159.179
   vertex 43.5637 168.712 158.465
  endloop
 endfacet
 facet normal 0.757256 -0.108458 -0.64405
  outer loop
   vertex 47.3381 168 158.827
   vertex 46.9799 168.533 158.315
   vertex 47.3083 168.914 158.638
  endloop
 endfacet
 facet normal 0.663319 -0.235116 -0.710442
  outer loop
   vertex 46.855 167.708 158.472
   vertex 46.9799 168.533 158.315
   vertex 47.3381 168 158.827
  endloop
 endfacet
 facet normal 0.891557 -0.205689 -0.403507
  outer loop
   vertex 47.7281 168.735 159.314
   vertex 47.5815 167.907 159.412
   vertex 47.3381 168 158.827
  endloop
 endfacet
 facet normal 0.836254 -0.0847308 -0.541756
  outer loop
   vertex 47.3083 168.914 158.638
   vertex 47.7281 168.735 159.314
   vertex 47.3381 168 158.827
  endloop
 endfacet
 facet normal -0.436379 0.729 0.527382
  outer loop
   vertex 44.1449 169.09 159.137
   vertex 44.3781 169.655 158.549
   vertex 43.9536 169.38 158.578
  endloop
 endfacet
 facet normal -0.735761 0.464662 0.492692
  outer loop
   vertex 44.1449 169.09 159.137
   vertex 43.9536 169.38 158.578
   vertex 43.9029 168.663 159.179
  endloop
 endfacet
 facet normal -0.81451 0.405266 0.41513
  outer loop
   vertex 43.9029 168.663 159.179
   vertex 43.9536 169.38 158.578
   vertex 43.5637 168.712 158.465
  endloop
 endfacet
 facet normal -0.587947 0.68704 0.42696
  outer loop
   vertex 44.1449 169.09 159.137
   vertex 44.7487 169.541 159.244
   vertex 44.3781 169.655 158.549
  endloop
 endfacet
 facet normal 0.766978 0.315383 -0.558819
  outer loop
   vertex 47.3083 168.914 158.638
   vertex 46.8853 169.36 158.309
   vertex 47.0915 169.599 158.727
  endloop
 endfacet
 facet normal 0.656585 0.0691788 -0.751073
  outer loop
   vertex 46.9799 168.533 158.315
   vertex 46.8853 169.36 158.309
   vertex 47.3083 168.914 158.638
  endloop
 endfacet
 facet normal 0.830489 0.367561 -0.418553
  outer loop
   vertex 47.3391 169.495 159.21
   vertex 47.7281 168.735 159.314
   vertex 47.3083 168.914 158.638
  endloop
 endfacet
 facet normal 0.868316 0.323614 -0.375901
  outer loop
   vertex 47.0915 169.599 158.727
   vertex 47.3391 169.495 159.21
   vertex 47.3083 168.914 158.638
  endloop
 endfacet
 facet normal -0.420319 0.832251 0.361511
  outer loop
   vertex 44.3781 169.655 158.549
   vertex 44.7487 169.541 159.244
   vertex 45.0986 169.77 159.123
  endloop
 endfacet
 facet normal -0.168141 0.985656 0.01449
  outer loop
   vertex 44.3781 169.655 158.549
   vertex 45.0986 169.77 159.123
   vertex 45.2295 169.801 158.482
  endloop
 endfacet
 facet normal 0.173992 0.968717 -0.17696
  outer loop
   vertex 46.1254 169.589 158.2
   vertex 45.2295 169.801 158.482
   vertex 45.9516 169.796 159.164
  endloop
 endfacet
 facet normal -0.0329918 0.998542 0.0427178
  outer loop
   vertex 45.2295 169.801 158.482
   vertex 45.0986 169.77 159.123
   vertex 45.9516 169.796 159.164
  endloop
 endfacet
 facet normal 0.309978 0.751301 -0.582631
  outer loop
   vertex 47.0915 169.599 158.727
   vertex 46.8853 169.36 158.309
   vertex 46.1254 169.589 158.2
  endloop
 endfacet
 facet normal 0.104223 0.972281 -0.209304
  outer loop
   vertex 47.0915 169.599 158.727
   vertex 46.1254 169.589 158.2
   vertex 46.9093 169.725 159.22
  endloop
 endfacet
 facet normal 0.0846236 0.977167 -0.194895
  outer loop
   vertex 46.9093 169.725 159.22
   vertex 46.1254 169.589 158.2
   vertex 45.9516 169.796 159.164
  endloop
 endfacet
 facet normal 0.469114 0.881637 -0.0514644
  outer loop
   vertex 47.3391 169.495 159.21
   vertex 47.0915 169.599 158.727
   vertex 46.9093 169.725 159.22
  endloop
 endfacet
 facet normal -0.633305 -0.263814 0.727549
  outer loop
   vertex 44.2198 167.254 159.263
   vertex 44.3047 167.893 159.568
   vertex 43.7654 167.829 159.076
  endloop
 endfacet
 facet normal -0.324935 -0.739953 0.588971
  outer loop
   vertex 44.2198 167.254 159.263
   vertex 44.6827 166.869 159.034
   vertex 45.0991 167.064 159.51
  endloop
 endfacet
 facet normal -0.324792 -0.372552 0.869319
  outer loop
   vertex 44.2198 167.254 159.263
   vertex 45.0991 167.064 159.51
   vertex 44.3047 167.893 159.568
  endloop
 endfacet
 facet normal -0.345245 -0.391028 0.853172
  outer loop
   vertex 44.3047 167.893 159.568
   vertex 45.0991 167.064 159.51
   vertex 45.2645 167.886 159.953
  endloop
 endfacet
 facet normal 0.0279035 -0.621763 0.782708
  outer loop
   vertex 46.0223 166.952 159.387
   vertex 46.1679 167.737 160.006
   vertex 45.0991 167.064 159.51
  endloop
 endfacet
 facet normal -0.125893 -0.451505 0.883343
  outer loop
   vertex 46.1679 167.737 160.006
   vertex 45.2645 167.886 159.953
   vertex 45.0991 167.064 159.51
  endloop
 endfacet
 facet normal 0.494005 -0.768425 0.406795
  outer loop
   vertex 46.4059 166.941 159.205
   vertex 47.0775 167.347 159.156
   vertex 46.9809 167.586 159.724
  endloop
 endfacet
 facet normal 0.272999 -0.739403 0.61543
  outer loop
   vertex 46.4059 166.941 159.205
   vertex 46.9809 167.586 159.724
   vertex 46.0223 166.952 159.387
  endloop
 endfacet
 facet normal 0.147833 -0.628791 0.763392
  outer loop
   vertex 46.0223 166.952 159.387
   vertex 46.9809 167.586 159.724
   vertex 46.1679 167.737 160.006
  endloop
 endfacet
 facet normal 0.584741 -0.707619 0.396678
  outer loop
   vertex 47.0775 167.347 159.156
   vertex 47.5815 167.907 159.412
   vertex 46.9809 167.586 159.724
  endloop
 endfacet
 facet normal -0.574416 0.110296 0.811099
  outer loop
   vertex 44.3047 167.893 159.568
   vertex 44.3478 168.858 159.468
   vertex 43.9029 168.663 159.179
  endloop
 endfacet
 facet normal -0.675651 0.0199606 0.736952
  outer loop
   vertex 43.7654 167.829 159.076
   vertex 44.3047 167.893 159.568
   vertex 43.9029 168.663 159.179
  endloop
 endfacet
 facet normal -0.37134 0.0568132 0.926757
  outer loop
   vertex 45.2645 167.886 159.953
   vertex 45.16 168.747 159.859
   vertex 44.3047 167.893 159.568
  endloop
 endfacet
 facet normal -0.418471 0.112726 0.901207
  outer loop
   vertex 45.16 168.747 159.859
   vertex 44.3478 168.858 159.468
   vertex 44.3047 167.893 159.568
  endloop
 endfacet
 facet normal -0.0632459 -0.0304992 0.997532
  outer loop
   vertex 46.1679 167.737 160.006
   vertex 46.1903 168.704 160.037
   vertex 45.2645 167.886 159.953
  endloop
 endfacet
 facet normal -0.166412 0.0877723 0.982142
  outer loop
   vertex 46.1903 168.704 160.037
   vertex 45.16 168.747 159.859
   vertex 45.2645 167.886 159.953
  endloop
 endfacet
 facet normal 0.284236 -0.213971 0.934573
  outer loop
   vertex 46.9809 167.586 159.724
   vertex 47.147 168.507 159.885
   vertex 46.1679 167.737 160.006
  endloop
 endfacet
 facet normal 0.150233 -0.035131 0.988026
  outer loop
   vertex 47.147 168.507 159.885
   vertex 46.1903 168.704 160.037
   vertex 46.1679 167.737 160.006
  endloop
 endfacet
 facet normal 0.708546 -0.0419648 0.704415
  outer loop
   vertex 47.5815 167.907 159.412
   vertex 47.7281 168.735 159.314
   vertex 47.147 168.507 159.885
  endloop
 endfacet
 facet normal 0.545475 -0.238279 0.803542
  outer loop
   vertex 46.9809 167.586 159.724
   vertex 47.5815 167.907 159.412
   vertex 47.147 168.507 159.885
  endloop
 endfacet
 facet normal -0.616338 0.414403 0.669625
  outer loop
   vertex 43.9029 168.663 159.179
   vertex 44.3478 168.858 159.468
   vertex 44.1449 169.09 159.137
  endloop
 endfacet
 facet normal -0.511067 0.523579 0.681671
  outer loop
   vertex 44.7487 169.541 159.244
   vertex 44.1449 169.09 159.137
   vertex 44.3478 168.858 159.468
  endloop
 endfacet
 facet normal -0.39197 0.486178 0.781019
  outer loop
   vertex 44.7487 169.541 159.244
   vertex 44.3478 168.858 159.468
   vertex 45.1967 169.552 159.462
  endloop
 endfacet
 facet normal -0.343781 0.427667 0.836012
  outer loop
   vertex 45.1967 169.552 159.462
   vertex 44.3478 168.858 159.468
   vertex 45.16 168.747 159.859
  endloop
 endfacet
 facet normal -0.146465 0.343151 0.927791
  outer loop
   vertex 46.1903 168.704 160.037
   vertex 46.155 169.532 159.725
   vertex 45.16 168.747 159.859
  endloop
 endfacet
 facet normal -0.229749 0.438622 0.868808
  outer loop
   vertex 46.155 169.532 159.725
   vertex 45.1967 169.552 159.462
   vertex 45.16 168.747 159.859
  endloop
 endfacet
 facet normal 0.204371 0.261956 0.943192
  outer loop
   vertex 47.147 168.507 159.885
   vertex 47.1052 169.404 159.644
   vertex 46.1903 168.704 160.037
  endloop
 endfacet
 facet normal 0.126614 0.3543 0.926521
  outer loop
   vertex 47.1052 169.404 159.644
   vertex 46.155 169.532 159.725
   vertex 46.1903 168.704 160.037
  endloop
 endfacet
 facet normal 0.74437 0.448388 0.494835
  outer loop
   vertex 47.7281 168.735 159.314
   vertex 47.3391 169.495 159.21
   vertex 47.1052 169.404 159.644
  endloop
 endfacet
 facet normal 0.635741 0.227043 0.737756
  outer loop
   vertex 47.147 168.507 159.885
   vertex 47.7281 168.735 159.314
   vertex 47.1052 169.404 159.644
  endloop
 endfacet
 facet normal -0.299325 0.760469 0.576274
  outer loop
   vertex 44.7487 169.541 159.244
   vertex 45.1967 169.552 159.462
   vertex 45.0986 169.77 159.123
  endloop
 endfacet
 facet normal -0.0518782 0.832822 0.551105
  outer loop
   vertex 45.9516 169.796 159.164
   vertex 45.0986 169.77 159.123
   vertex 45.1967 169.552 159.462
  endloop
 endfacet
 facet normal -0.106683 0.884321 0.454528
  outer loop
   vertex 46.155 169.532 159.725
   vertex 45.9516 169.796 159.164
   vertex 45.1967 169.552 159.462
  endloop
 endfacet
 facet normal 0.0436207 0.910056 0.412184
  outer loop
   vertex 46.9093 169.725 159.22
   vertex 45.9516 169.796 159.164
   vertex 46.155 169.532 159.725
  endloop
 endfacet
 facet normal 0.157674 0.82104 0.548665
  outer loop
   vertex 47.1052 169.404 159.644
   vertex 46.9093 169.725 159.22
   vertex 46.155 169.532 159.725
  endloop
 endfacet
 facet normal 0.438347 0.802449 0.40488
  outer loop
   vertex 47.3391 169.495 159.21
   vertex 46.9093 169.725 159.22
   vertex 47.1052 169.404 159.644
  endloop
 endfacet
endsolid
