ply
format ascii 1.0
element vertex 162
property float x
property float y
property float z
property float nx
property float ny
property float nz
element face 54
property list uint uint vertex_indices
end_header
111.466 114.708 168.701 -0.53045 -0.445303 -0.721337
111.276 114.45 169.0 -0.53045 -0.445303 -0.721337
111.114 114.825 168.888 -0.53045 -0.445303 -0.721337
111.466 114.708 168.701 -0.201617 -0.57505 -0.792886
112.313 114.656 168.523 -0.201617 -0.57505 -0.792886
112.12 114.067 169.0 -0.201617 -0.57505 -0.792886
111.276 114.45 169.0 -0.285473 -0.628341 -0.723666
111.466 114.708 168.701 -0.285473 -0.628341 -0.723666
112.12 114.067 169.0 -0.285473 -0.628341 -0.723666
112.313 114.656 168.523 0.435239 -0.638938 -0.634291
112.971 114.937 168.693 0.435239 -0.638938 -0.634291
113.039 114.661 169.016 0.435239 -0.638938 -0.634291
112.12 114.067 169.0 0.430937 -0.648129 -0.627871
112.313 114.656 168.523 0.430937 -0.648129 -0.627871
113.039 114.661 169.016 0.430937 -0.648129 -0.627871
111.271 115.399 168.703 -0.499868 -0.138452 -0.854964
111.466 114.708 168.701 -0.499868 -0.138452 -0.854964
111.114 114.825 168.888 -0.499868 -0.138452 -0.854964
111.012 115.489 169.06 -0.805912 0.0300834 -0.591271
111.271 115.399 168.703 -0.805912 0.0300834 -0.591271
111.114 114.825 168.888 -0.805912 0.0300834 -0.591271
112.313 114.656 168.523 -0.204878 0.00871525 -0.978749
111.466 114.708 168.701 -0.204878 0.00871525 -0.978749
112.13 115.421 168.568 -0.204878 0.00871525 -0.978749
112.13 115.421 168.568 -0.153879 -0.0403661 -0.987265
111.466 114.708 168.701 -0.153879 -0.0403661 -0.987265
111.271 115.399 168.703 -0.153879 -0.0403661 -0.987265
112.96 115.536 168.776 0.633471 0.118835 -0.764587
113.189 115.328 168.934 0.633471 0.118835 -0.764587
112.971 114.937 168.693 0.633471 0.118835 -0.764587
112.96 115.536 168.776 0.222759 0.13893 -0.964923
112.971 114.937 168.693 0.222759 0.13893 -0.964923
112.13 115.421 168.568 0.222759 0.13893 -0.964923
112.13 115.421 168.568 0.20522 0.106426 -0.972912
112.971 114.937 168.693 0.20522 0.106426 -0.972912
112.313 114.656 168.523 0.20522 0.106426 -0.972912
113.039 114.661 169.016 0.884203 -0.248451 -0.395546
112.971 114.937 168.693 0.884203 -0.248451 -0.395546
113.189 115.328 168.934 0.884203 -0.248451 -0.395546
111.271 115.399 168.703 -0.611859 0.538866 -0.579009
111.012 115.489 169.06 -0.611859 0.538866 -0.579009
111.443 115.857 168.947 -0.611859 0.538866 -0.579009
112.13 115.421 168.568 -0.14625 0.508122 -0.848777
111.271 115.399 168.703 -0.14625 0.508122 -0.848777
111.443 115.857 168.947 -0.14625 0.508122 -0.848777
112.367 115.952 168.967 -0.0463262 0.613329 -0.788468
112.13 115.421 168.568 -0.0463262 0.613329 -0.788468
111.443 115.857 168.947 -0.0463262 0.613329 -0.788468
112.96 115.536 168.776 0.128015 0.55877 -0.819383
112.13 115.421 168.568 0.128015 0.55877 -0.819383
112.367 115.952 168.967 0.128015 0.55877 -0.819383
111.276 114.45 169.0 -0.866013 -0.493221 -0.0821909
111.399 114.132 169.605 -0.866013 -0.493221 -0.0821909
111.061 114.736 169.542 -0.866013 -0.493221 -0.0821909
111.114 114.825 168.888 -0.895714 -0.425205 -0.129991
111.276 114.45 169.0 -0.895714 -0.425205 -0.129991
111.061 114.736 169.542 -0.895714 -0.425205 -0.129991
112.193 114.047 169.784 -0.102862 -0.994578 -0.0152836
111.399 114.132 169.605 -0.102862 -0.994578 -0.0152836
112.12 114.067 169.0 -0.102862 -0.994578 -0.0152836
111.399 114.132 169.605 -0.384371 -0.847208 -0.366739
111.276 114.45 169.0 -0.384371 -0.847208 -0.366739
112.12 114.067 169.0 -0.384371 -0.847208 -0.366739
112.193 114.047 169.784 0.242751 -0.968966 -0.0466571
112.12 114.067 169.0 0.242751 -0.968966 -0.0466571
112.886 114.233 169.537 0.242751 -0.968966 -0.0466571
112.12 114.067 169.0 0.486785 -0.738967 -0.465798
113.039 114.661 169.016 0.486785 -0.738967 -0.465798
112.886 114.233 169.537 0.486785 -0.738967 -0.465798
112.96 114.572 169.83 0.962409 -0.263867 0.0643682
112.886 114.233 169.537 0.962409 -0.263867 0.0643682
113.039 114.661 169.016 0.962409 -0.263867 0.0643682
111.114 114.825 168.888 -0.987269 -0.126062 -0.0969966
111.061 114.736 169.542 -0.987269 -0.126062 -0.0969966
111.012 115.489 169.06 -0.987269 -0.126062 -0.0969966
111.061 114.736 169.542 -0.960098 -0.192198 -0.203154
110.874 115.444 169.756 -0.960098 -0.192198 -0.203154
111.012 115.489 169.06 -0.960098 -0.192198 -0.203154
113.189 115.328 168.934 0.74958 0.48762 -0.447612
112.96 115.536 168.776 0.74958 0.48762 -0.447612
113.082 115.645 169.1 0.74958 0.48762 -0.447612
113.189 115.328 168.934 0.956038 0.224693 0.188424
113.082 115.645 169.1 0.956038 0.224693 0.188424
113.032 115.343 169.714 0.956038 0.224693 0.188424
113.189 115.328 168.934 0.961142 -0.192794 0.197577
113.032 115.343 169.714 0.961142 -0.192794 0.197577
113.039 114.661 169.016 0.961142 -0.192794 0.197577
113.039 114.661 169.016 0.992941 -0.0800004 0.0875656
113.032 115.343 169.714 0.992941 -0.0800004 0.0875656
112.96 114.572 169.83 0.992941 -0.0800004 0.0875656
111.012 115.489 169.06 -0.867316 0.477427 -0.140804
110.874 115.444 169.756 -0.867316 0.477427 -0.140804
111.202 115.996 169.61 -0.867316 0.477427 -0.140804
111.443 115.857 168.947 -0.656598 0.65371 -0.376221
111.012 115.489 169.06 -0.656598 0.65371 -0.376221
111.202 115.996 169.61 -0.656598 0.65371 -0.376221
112.367 115.952 168.967 -0.097012 0.977737 -0.186061
111.443 115.857 168.947 -0.097012 0.977737 -0.186061
111.994 116.049 169.669 -0.097012 0.977737 -0.186061
111.443 115.857 168.947 -0.047856 0.973735 -0.222597
111.202 115.996 169.61 -0.047856 0.973735 -0.222597
111.994 116.049 169.669 -0.047856 0.973735 -0.222597
113.082 115.645 169.1 0.422464 0.798946 -0.428029
112.96 115.536 168.776 0.422464 0.798946 -0.428029
112.367 115.952 168.967 0.422464 0.798946 -0.428029
113.082 115.645 169.1 0.403716 0.912711 -0.0630297
112.367 115.952 168.967 0.403716 0.912711 -0.0630297
112.842 115.788 169.633 0.403716 0.912711 -0.0630297
112.842 115.788 169.633 0.294853 0.955214 0.0250631
112.367 115.952 168.967 0.294853 0.955214 0.0250631
111.994 116.049 169.669 0.294853 0.955214 0.0250631
113.032 115.343 169.714 0.863972 0.420531 0.276958
113.082 115.645 169.1 0.863972 0.420531 0.276958
112.842 115.788 169.633 0.863972 0.420531 0.276958
111.399 114.132 169.605 -0.791113 -0.394081 0.467804
111.394 114.749 170.116 -0.791113 -0.394081 0.467804
111.061 114.736 169.542 -0.791113 -0.394081 0.467804
111.399 114.132 169.605 -0.23503 -0.621492 0.747334
112.193 114.047 169.784 -0.23503 -0.621492 0.747334
111.394 114.749 170.116 -0.23503 -0.621492 0.747334
111.394 114.749 170.116 -0.0818081 -0.501173 0.861471
112.193 114.047 169.784 -0.0818081 -0.501173 0.861471
112.315 114.733 170.194 -0.0818081 -0.501173 0.861471
112.193 114.047 169.784 0.40355 -0.647234 0.646711
112.886 114.233 169.537 0.40355 -0.647234 0.646711
112.96 114.572 169.83 0.40355 -0.647234 0.646711
112.193 114.047 169.784 0.313465 -0.52813 0.789188
112.96 114.572 169.83 0.313465 -0.52813 0.789188
112.315 114.733 170.194 0.313465 -0.52813 0.789188
111.394 114.749 170.116 -0.579175 -0.0111449 0.815127
111.341 115.617 170.09 -0.579175 -0.0111449 0.815127
110.874 115.444 169.756 -0.579175 -0.0111449 0.815127
111.061 114.736 169.542 -0.804648 -0.356464 0.474842
111.394 114.749 170.116 -0.804648 -0.356464 0.474842
110.874 115.444 169.756 -0.804648 -0.356464 0.474842
112.315 114.733 170.194 -0.0837703 0.0426951 0.99557
112.182 115.485 170.151 -0.0837703 0.0426951 0.99557
111.394 114.749 170.116 -0.0837703 0.0426951 0.99557
112.182 115.485 170.151 -0.0677516 0.0254839 0.997377
111.341 115.617 170.09 -0.0677516 0.0254839 0.997377
111.394 114.749 170.116 -0.0677516 0.0254839 0.997377
112.96 114.572 169.83 0.505476 0.0818175 0.858953
113.032 115.343 169.714 0.505476 0.0818175 0.858953
112.315 114.733 170.194 0.505476 0.0818175 0.858953
113.032 115.343 169.714 0.470312 0.133651 0.872321
112.182 115.485 170.151 0.470312 0.133651 0.872321
112.315 114.733 170.194 0.470312 0.133651 0.872321
110.874 115.444 169.756 -0.61585 0.521397 0.590655
111.341 115.617 170.09 -0.61585 0.521397 0.590655
111.202 115.996 169.61 -0.61585 0.521397 0.590655
111.994 116.049 169.669 -0.0975776 0.766905 0.634299
111.202 115.996 169.61 -0.0975776 0.766905 0.634299
111.341 115.617 170.09 -0.0975776 0.766905 0.634299
112.182 115.485 170.151 0.0490213 0.658856 0.75067
111.994 116.049 169.669 0.0490213 0.658856 0.75067
111.341 115.617 170.09 0.0490213 0.658856 0.75067
112.842 115.788 169.633 0.237165 0.676005 0.697689
111.994 116.049 169.669 0.237165 0.676005 0.697689
112.182 115.485 170.151 0.237165 0.676005 0.697689
113.032 115.343 169.714 0.473505 0.349925 0.808298
112.842 115.788 169.633 0.473505 0.349925 0.808298
112.182 115.485 170.151 0.473505 0.349925 0.808298
3 0 1 2
3 3 4 5
3 6 7 8
3 9 10 11
3 12 13 14
3 15 16 17
3 18 19 20
3 21 22 23
3 24 25 26
3 27 28 29
3 30 31 32
3 33 34 35
3 36 37 38
3 39 40 41
3 42 43 44
3 45 46 47
3 48 49 50
3 51 52 53
3 54 55 56
3 57 58 59
3 60 61 62
3 63 64 65
3 66 67 68
3 69 70 71
3 72 73 74
3 75 76 77
3 78 79 80
3 81 82 83
3 84 85 86
3 87 88 89
3 90 91 92
3 93 94 95
3 96 97 98
3 99 100 101
3 102 103 104
3 105 106 107
3 108 109 110
3 111 112 113
3 114 115 116
3 117 118 119
3 120 121 122
3 123 124 125
3 126 127 128
3 129 130 131
3 132 133 134
3 135 136 137
3 138 139 140
3 141 142 143
3 144 145 146
3 147 148 149
3 150 151 152
3 153 154 155
3 156 157 158
3 159 160 161
