ply
format ascii 1.0
element vertex 234
property float x
property float y
property float z
property float nx
property float ny
property float nz
element face 78
property list uint uint vertex_indices
end_header
44.1593 176.331 153.717 -0.144598 -0.904434 -0.401361
44.1288 176.024 154.42 -0.144598 -0.904434 -0.401361
43.3849 176.243 154.195 -0.144598 -0.904434 -0.401361
44.1593 176.331 153.717 -0.0467893 -0.863017 -0.503003
45.2508 176.286 153.693 -0.0467893 -0.863017 -0.503003
44.9547 176.014 154.188 -0.0467893 -0.863017 -0.503003
44.1288 176.024 154.42 -0.124416 -0.907269 -0.401725
44.1593 176.331 153.717 -0.124416 -0.907269 -0.401725
44.9547 176.014 154.188 -0.124416 -0.907269 -0.401725
45.2508 176.286 153.693 0.491478 -0.603546 -0.627839
46.0028 176.394 154.178 0.491478 -0.603546 -0.627839
45.7435 176.078 154.279 0.491478 -0.603546 -0.627839
44.9547 176.014 154.188 0.121795 -0.898524 -0.421688
45.2508 176.286 153.693 0.121795 -0.898524 -0.421688
45.7435 176.078 154.279 0.121795 -0.898524 -0.421688
43.2524 177.04 153.824 -0.82518 -0.246011 -0.508484
43.0818 176.529 154.348 -0.82518 -0.246011 -0.508484
42.9309 177.217 154.261 -0.82518 -0.246011 -0.508484
43.3849 176.243 154.195 -0.684548 -0.397925 -0.610778
43.0818 176.529 154.348 -0.684548 -0.397925 -0.610778
43.2524 177.04 153.824 -0.684548 -0.397925 -0.610778
43.3849 176.243 154.195 -0.435533 -0.438192 -0.786319
43.2524 177.04 153.824 -0.435533 -0.438192 -0.786319
44.1593 176.331 153.717 -0.435533 -0.438192 -0.786319
44.1593 176.331 153.717 -0.298893 -0.242653 -0.922921
43.2524 177.04 153.824 -0.298893 -0.242653 -0.922921
44.1343 177.196 153.498 -0.298893 -0.242653 -0.922921
45.2508 176.286 153.693 -0.0341551 -0.32228 -0.946028
44.1593 176.331 153.717 -0.0341551 -0.32228 -0.946028
44.9431 176.988 153.465 -0.0341551 -0.32228 -0.946028
44.9431 176.988 153.465 -0.102572 -0.247275 -0.963501
44.1593 176.331 153.717 -0.102572 -0.247275 -0.963501
44.1343 177.196 153.498 -0.102572 -0.247275 -0.963501
46.0028 176.394 154.178 0.547239 -0.0573769 -0.835007
45.2508 176.286 153.693 0.547239 -0.0573769 -0.835007
45.7275 177.081 153.951 0.547239 -0.0573769 -0.835007
45.7275 177.081 153.951 0.529599 -0.0428558 -0.847165
45.2508 176.286 153.693 0.529599 -0.0428558 -0.847165
44.9431 176.988 153.465 0.529599 -0.0428558 -0.847165
45.7275 177.081 153.951 0.701541 0.0454224 -0.71118
45.9847 177.08 154.204 0.701541 0.0454224 -0.71118
46.0028 176.394 154.178 0.701541 0.0454224 -0.71118
43.0771 177.854 154.072 -0.803489 0.00805877 -0.595265
43.2524 177.04 153.824 -0.803489 0.00805877 -0.595265
42.9309 177.217 154.261 -0.803489 0.00805877 -0.595265
42.9309 177.928 154.472 -0.927344 0.106551 -0.35872
43.0771 177.854 154.072 -0.927344 0.106551 -0.35872
42.9309 177.217 154.261 -0.927344 0.106551 -0.35872
44.1343 177.196 153.498 -0.363284 0.118685 -0.924088
43.2524 177.04 153.824 -0.363284 0.118685 -0.924088
43.8299 177.952 153.714 -0.363284 0.118685 -0.924088
43.8299 177.952 153.714 -0.440822 0.173026 -0.88076
43.2524 177.04 153.824 -0.440822 0.173026 -0.88076
43.0771 177.854 154.072 -0.440822 0.173026 -0.88076
44.9431 176.988 153.465 0.0321297 0.274855 -0.960949
44.1343 177.196 153.498 0.0321297 0.274855 -0.960949
44.8766 177.907 153.726 0.0321297 0.274855 -0.960949
44.8766 177.907 153.726 0.0226047 0.284029 -0.958549
44.1343 177.196 153.498 0.0226047 0.284029 -0.958549
43.8299 177.952 153.714 0.0226047 0.284029 -0.958549
45.398 177.805 154.23 0.604207 0.51117 -0.61126
45.9847 177.08 154.204 0.604207 0.51117 -0.61126
45.7275 177.081 153.951 0.604207 0.51117 -0.61126
45.398 177.805 154.23 0.646885 0.512577 -0.564628
45.7275 177.081 153.951 0.646885 0.512577 -0.564628
44.8766 177.907 153.726 0.646885 0.512577 -0.564628
44.8766 177.907 153.726 0.48316 0.271047 -0.83252
45.7275 177.081 153.951 0.48316 0.271047 -0.83252
44.9431 176.988 153.465 0.48316 0.271047 -0.83252
43.0771 177.854 154.072 -0.732713 0.569355 -0.372782
42.9309 177.928 154.472 -0.732713 0.569355 -0.372782
43.2594 178.244 154.309 -0.732713 0.569355 -0.372782
43.8299 177.952 153.714 -0.404145 0.605911 -0.685229
43.0771 177.854 154.072 -0.404145 0.605911 -0.685229
43.2594 178.244 154.309 -0.404145 0.605911 -0.685229
44.1097 178.541 154.174 -0.339936 0.673187 -0.656706
43.8299 177.952 153.714 -0.339936 0.673187 -0.656706
43.2594 178.244 154.309 -0.339936 0.673187 -0.656706
44.8766 177.907 153.726 0.0344381 0.604113 -0.796154
43.8299 177.952 153.714 0.0344381 0.604113 -0.796154
44.1097 178.541 154.174 0.0344381 0.604113 -0.796154
44.8728 178.406 154.395 0.300783 0.765649 -0.568605
44.8766 177.907 153.726 0.300783 0.765649 -0.568605
44.1097 178.541 154.174 0.300783 0.765649 -0.568605
45.398 177.805 154.23 0.59121 0.648419 -0.479609
44.8766 177.907 153.726 0.59121 0.648419 -0.479609
44.8728 178.406 154.395 0.59121 0.648419 -0.479609
44.1288 176.024 154.42 -0.346704 -0.936896 0.0449744
44.1355 176.055 155.101 -0.346704 -0.936896 0.0449744
43.6795 176.215 154.929 -0.346704 -0.936896 0.0449744
43.3849 176.243 154.195 -0.304735 -0.948512 0.0863749
44.1288 176.024 154.42 -0.304735 -0.948512 0.0863749
43.6795 176.215 154.929 -0.304735 -0.948512 0.0863749
44.9547 176.014 154.188 0.0304404 -0.98762 0.153882
45.0022 176.154 155.08 0.0304404 -0.98762 0.153882
44.1288 176.024 154.42 0.0304404 -0.98762 0.153882
44.1288 176.024 154.42 0.115104 -0.992427 0.0429002
45.0022 176.154 155.08 0.115104 -0.992427 0.0429002
44.1355 176.055 155.101 0.115104 -0.992427 0.0429002
45.8937 176.237 154.618 0.396864 -0.648718 0.649357
45.5046 176.459 155.078 0.396864 -0.648718 0.649357
45.0022 176.154 155.08 0.396864 -0.648718 0.649357
45.8937 176.237 154.618 0.249558 -0.914749 0.317735
45.0022 176.154 155.08 0.249558 -0.914749 0.317735
45.7435 176.078 154.279 0.249558 -0.914749 0.317735
45.7435 176.078 154.279 0.062941 -0.986381 0.151959
45.0022 176.154 155.08 0.062941 -0.986381 0.151959
44.9547 176.014 154.188 0.062941 -0.986381 0.151959
45.7435 176.078 154.279 0.765876 -0.641827 -0.038628
46.0028 176.394 154.178 0.765876 -0.641827 -0.038628
45.8937 176.237 154.618 0.765876 -0.641827 -0.038628
42.9309 177.217 154.261 -0.97292 -0.19852 0.118394
43.0818 176.529 154.348 -0.97292 -0.19852 0.118394
43.0558 177.052 155.011 -0.97292 -0.19852 0.118394
43.6795 176.215 154.929 -0.610273 -0.762137 0.216133
43.0818 176.529 154.348 -0.610273 -0.762137 0.216133
43.3849 176.243 154.195 -0.610273 -0.762137 0.216133
43.0558 177.052 155.011 -0.707042 -0.568473 0.420631
43.0818 176.529 154.348 -0.707042 -0.568473 0.420631
43.6795 176.215 154.929 -0.707042 -0.568473 0.420631
45.8724 177.021 154.566 0.77656 0.0628068 0.626905
45.5046 176.459 155.078 0.77656 0.0628068 0.626905
45.8937 176.237 154.618 0.77656 0.0628068 0.626905
45.4161 177.208 155.108 0.774745 0.0657639 0.628845
45.5046 176.459 155.078 0.774745 0.0657639 0.628845
45.8724 177.021 154.566 0.774745 0.0657639 0.628845
46.0028 176.394 154.178 0.954278 0.0139447 0.298595
45.9847 177.08 154.204 0.954278 0.0139447 0.298595
45.8724 177.021 154.566 0.954278 0.0139447 0.298595
45.8937 176.237 154.618 0.965938 0.0432171 0.255141
46.0028 176.394 154.178 0.965938 0.0432171 0.255141
45.8724 177.021 154.566 0.965938 0.0432171 0.255141
42.9309 177.217 154.261 -0.986983 -0.0456839 0.154202
43.0558 177.052 155.011 -0.986983 -0.0456839 0.154202
42.9309 177.928 154.472 -0.986983 -0.0456839 0.154202
43.0558 177.052 155.011 -0.990956 -0.133607 0.0124982
42.9431 177.902 155.157 -0.990956 -0.133607 0.0124982
42.9309 177.928 154.472 -0.990956 -0.133607 0.0124982
45.4161 177.208 155.108 0.592059 0.424216 0.685205
45.25 177.882 154.835 0.592059 0.424216 0.685205
44.8476 177.964 155.131 0.592059 0.424216 0.685205
45.8724 177.021 154.566 0.765684 0.394938 0.507693
45.25 177.882 154.835 0.765684 0.394938 0.507693
45.4161 177.208 155.108 0.765684 0.394938 0.507693
45.8724 177.021 154.566 0.822421 0.553524 0.13128
45.398 177.805 154.23 0.822421 0.553524 0.13128
45.25 177.882 154.835 0.822421 0.553524 0.13128
45.8724 177.021 154.566 0.74022 0.587479 0.327021
45.9847 177.08 154.204 0.74022 0.587479 0.327021
45.398 177.805 154.23 0.74022 0.587479 0.327021
42.9309 177.928 154.472 -0.952935 0.30184 0.0284287
42.9431 177.902 155.157 -0.952935 0.30184 0.0284287
43.0835 178.36 154.996 -0.952935 0.30184 0.0284287
43.2594 178.244 154.309 -0.734435 0.61276 -0.291771
42.9309 177.928 154.472 -0.734435 0.61276 -0.291771
43.0835 178.36 154.996 -0.734435 0.61276 -0.291771
44.1097 178.541 154.174 -0.324349 0.945234 0.0364647
43.2594 178.244 154.309 -0.324349 0.945234 0.0364647
43.9259 178.447 154.988 -0.324349 0.945234 0.0364647
43.2594 178.244 154.309 -0.101985 0.976234 -0.191225
43.0835 178.36 154.996 -0.101985 0.976234 -0.191225
43.9259 178.447 154.988 -0.101985 0.976234 -0.191225
44.8476 177.964 155.131 0.490735 0.739664 0.460517
45.25 177.882 154.835 0.490735 0.739664 0.460517
44.8728 178.406 154.395 0.490735 0.739664 0.460517
44.8476 177.964 155.131 0.342454 0.800456 0.491931
44.8728 178.406 154.395 0.342454 0.800456 0.491931
43.9259 178.447 154.988 0.342454 0.800456 0.491931
43.9259 178.447 154.988 0.132245 0.980748 0.14368
44.8728 178.406 154.395 0.132245 0.980748 0.14368
44.1097 178.541 154.174 0.132245 0.980748 0.14368
45.398 177.805 154.23 0.762748 0.637954 0.105968
44.8728 178.406 154.395 0.762748 0.637954 0.105968
45.25 177.882 154.835 0.762748 0.637954 0.105968
44.1355 176.055 155.101 -0.454437 -0.700087 0.550786
43.9918 176.437 155.468 -0.454437 -0.700087 0.550786
43.6795 176.215 154.929 -0.454437 -0.700087 0.550786
43.9918 176.437 155.468 0.0946644 -0.670879 0.7355
44.1355 176.055 155.101 0.0946644 -0.670879 0.7355
45.0022 176.154 155.08 0.0946644 -0.670879 0.7355
43.0558 177.052 155.011 -0.626078 -0.523695 0.577729
43.6795 176.215 154.929 -0.626078 -0.523695 0.577729
43.9918 176.437 155.468 -0.626078 -0.523695 0.577729
43.0558 177.052 155.011 -0.632163 -0.582252 0.511226
43.9918 176.437 155.468 -0.632163 -0.582252 0.511226
43.273 177.292 155.553 -0.632163 -0.582252 0.511226
43.273 177.292 155.553 -0.233001 -0.288537 0.928686
43.9918 176.437 155.468 -0.233001 -0.288537 0.928686
44.0117 177.11 155.682 -0.233001 -0.288537 0.928686
45.0022 176.154 155.08 0.255974 -0.330866 0.908298
44.8522 177.026 155.44 0.255974 -0.330866 0.908298
43.9918 176.437 155.468 0.255974 -0.330866 0.908298
44.8522 177.026 155.44 0.235966 -0.300936 0.92399
44.0117 177.11 155.682 0.235966 -0.300936 0.92399
43.9918 176.437 155.468 0.235966 -0.300936 0.92399
45.5046 176.459 155.078 0.50126 0.0237446 0.864971
45.4161 177.208 155.108 0.50126 0.0237446 0.864971
44.8522 177.026 155.44 0.50126 0.0237446 0.864971
45.0022 176.154 155.08 0.211851 -0.341507 0.915692
45.5046 176.459 155.078 0.211851 -0.341507 0.915692
44.8522 177.026 155.44 0.211851 -0.341507 0.915692
43.273 177.292 155.553 -0.703847 0.0778838 0.706069
43.2139 178.069 155.409 -0.703847 0.0778838 0.706069
42.9431 177.902 155.157 -0.703847 0.0778838 0.706069
43.0558 177.052 155.011 -0.878763 -0.191586 0.437116
43.273 177.292 155.553 -0.878763 -0.191586 0.437116
42.9431 177.902 155.157 -0.878763 -0.191586 0.437116
44.0117 177.11 155.682 -0.111729 0.231039 0.966508
44.0041 177.839 155.507 -0.111729 0.231039 0.966508
43.273 177.292 155.553 -0.111729 0.231039 0.966508
44.0041 177.839 155.507 -0.0705719 0.177325 0.981619
43.2139 178.069 155.409 -0.0705719 0.177325 0.981619
43.273 177.292 155.553 -0.0705719 0.177325 0.981619
44.8476 177.964 155.131 0.352047 0.29427 0.88852
44.0041 177.839 155.507 0.352047 0.29427 0.88852
44.8522 177.026 155.44 0.352047 0.29427 0.88852
44.8522 177.026 155.44 0.290287 0.226439 0.929763
44.0041 177.839 155.507 0.290287 0.226439 0.929763
44.0117 177.11 155.682 0.290287 0.226439 0.929763
45.4161 177.208 155.108 0.415801 0.286253 0.863232
44.8476 177.964 155.131 0.415801 0.286253 0.863232
44.8522 177.026 155.44 0.415801 0.286253 0.863232
42.9431 177.902 155.157 -0.743476 0.412785 0.526167
43.2139 178.069 155.409 -0.743476 0.412785 0.526167
43.0835 178.36 154.996 -0.743476 0.412785 0.526167
43.9259 178.447 154.988 -0.0766192 0.80298 0.59106
43.0835 178.36 154.996 -0.0766192 0.80298 0.59106
43.2139 178.069 155.409 -0.0766192 0.80298 0.59106
44.0041 177.839 155.507 0.0966063 0.654008 0.750294
43.9259 178.447 154.988 0.0966063 0.654008 0.750294
43.2139 178.069 155.409 0.0966063 0.654008 0.750294
44.8476 177.964 155.131 0.22703 0.649638 0.725554
43.9259 178.447 154.988 0.22703 0.649638 0.725554
44.0041 177.839 155.507 0.22703 0.649638 0.725554
3 0 1 2
3 3 4 5
3 6 7 8
3 9 10 11
3 12 13 14
3 15 16 17
3 18 19 20
3 21 22 23
3 24 25 26
3 27 28 29
3 30 31 32
3 33 34 35
3 36 37 38
3 39 40 41
3 42 43 44
3 45 46 47
3 48 49 50
3 51 52 53
3 54 55 56
3 57 58 59
3 60 61 62
3 63 64 65
3 66 67 68
3 69 70 71
3 72 73 74
3 75 76 77
3 78 79 80
3 81 82 83
3 84 85 86
3 87 88 89
3 90 91 92
3 93 94 95
3 96 97 98
3 99 100 101
3 102 103 104
3 105 106 107
3 108 109 110
3 111 112 113
3 114 115 116
3 117 118 119
3 120 121 122
3 123 124 125
3 126 127 128
3 129 130 131
3 132 133 134
3 135 136 137
3 138 139 140
3 141 142 143
3 144 145 146
3 147 148 149
3 150 151 152
3 153 154 155
3 156 157 158
3 159 160 161
3 162 163 164
3 165 166 167
3 168 169 170
3 171 172 173
3 174 175 176
3 177 178 179
3 180 181 182
3 183 184 185
3 186 187 188
3 189 190 191
3 192 193 194
3 195 196 197
3 198 199 200
3 201 202 203
3 204 205 206
3 207 208 209
3 210 211 212
3 213 214 215
3 216 217 218
3 219 220 221
3 222 223 224
3 225 226 227
3 228 229 230
3 231 232 233
