ply
format ascii 1.0
element vertex 318
property float x
property float y
property float z
property float nx
property float ny
property float nz
element face 106
property list uint uint vertex_indices
end_header
60.6222 102.42 155.171 0.015024 -0.725293 -0.688276
60.4088 102.057 155.549 0.015024 -0.725293 -0.688276
60.0877 102.318 155.267 0.015024 -0.725293 -0.688276
60.4088 102.057 155.549 -0.0226232 -0.714555 -0.699214
60.6222 102.42 155.171 -0.0226232 -0.714555 -0.699214
60.9369 102.15 155.438 -0.0226232 -0.714555 -0.699214
59.7458 103.098 155.033 -0.546851 -0.140298 -0.825391
59.4932 102.634 155.279 -0.546851 -0.140298 -0.825391
59.0467 103.217 155.476 -0.546851 -0.140298 -0.825391
60.0877 102.318 155.267 -0.212093 -0.365458 -0.906343
59.4932 102.634 155.279 -0.212093 -0.365458 -0.906343
59.7458 103.098 155.033 -0.212093 -0.365458 -0.906343
60.0877 102.318 155.267 -0.105609 -0.328463 -0.938594
59.7458 103.098 155.033 -0.105609 -0.328463 -0.938594
60.6222 102.42 155.171 -0.105609 -0.328463 -0.938594
60.6222 102.42 155.171 -0.0894624 -0.309253 -0.946763
59.7458 103.098 155.033 -0.0894624 -0.309253 -0.946763
60.643 103.258 154.896 -0.0894624 -0.309253 -0.946763
61.6012 102.485 155.435 0.254406 -0.511941 -0.820484
60.9369 102.15 155.438 0.254406 -0.511941 -0.820484
60.6222 102.42 155.171 0.254406 -0.511941 -0.820484
61.6012 102.485 155.435 0.259344 -0.452176 -0.853391
60.6222 102.42 155.171 0.259344 -0.452176 -0.853391
61.5168 103.166 155.048 0.259344 -0.452176 -0.853391
61.5168 103.166 155.048 0.131132 -0.312765 -0.940735
60.6222 102.42 155.171 0.131132 -0.312765 -0.940735
60.643 103.258 154.896 0.131132 -0.312765 -0.940735
61.6012 102.485 155.435 0.511505 -0.375313 -0.772983
61.5168 103.166 155.048 0.511505 -0.375313 -0.772983
62.2168 103.2 155.495 0.511505 -0.375313 -0.772983
59.511 103.898 155.224 -0.528856 0.0473944 -0.847387
59.7458 103.098 155.033 -0.528856 0.0473944 -0.847387
59.0467 103.217 155.476 -0.528856 0.0473944 -0.847387
59.3142 104.017 155.536 -0.752988 0.296475 -0.587462
59.511 103.898 155.224 -0.752988 0.296475 -0.587462
59.0467 103.217 155.476 -0.752988 0.296475 -0.587462
60.643 103.258 154.896 -0.185215 0.216732 -0.9585
59.7458 103.098 155.033 -0.185215 0.216732 -0.9585
60.33 103.983 155.12 -0.185215 0.216732 -0.9585
60.33 103.983 155.12 -0.143208 0.19027 -0.97123
59.7458 103.098 155.033 -0.143208 0.19027 -0.97123
59.511 103.898 155.224 -0.143208 0.19027 -0.97123
61.5168 103.166 155.048 0.188472 0.193713 -0.962784
60.643 103.258 154.896 0.188472 0.193713 -0.962784
61.421 103.991 155.195 0.188472 0.193713 -0.962784
61.421 103.991 155.195 0.0630365 0.319833 -0.945375
60.643 103.258 154.896 0.0630365 0.319833 -0.945375
60.33 103.983 155.12 0.0630365 0.319833 -0.945375
62.124 103.802 155.329 0.537217 -0.146306 -0.830658
62.2168 103.2 155.495 0.537217 -0.146306 -0.830658
61.5168 103.166 155.048 0.537217 -0.146306 -0.830658
61.421 103.991 155.195 0.233533 0.197054 -0.952172
62.124 103.802 155.329 0.233533 0.197054 -0.952172
61.5168 103.166 155.048 0.233533 0.197054 -0.952172
59.511 103.898 155.224 -0.452076 0.700774 -0.551854
59.3142 104.017 155.536 -0.452076 0.700774 -0.551854
59.7535 104.248 155.47 -0.452076 0.700774 -0.551854
60.33 103.983 155.12 -0.162399 0.640154 -0.750886
59.511 103.898 155.224 -0.162399 0.640154 -0.750886
59.7535 104.248 155.47 -0.162399 0.640154 -0.750886
60.6244 104.452 155.457 -0.161596 0.641083 -0.750266
60.33 103.983 155.12 -0.161596 0.641083 -0.750266
59.7535 104.248 155.47 -0.161596 0.641083 -0.750266
61.421 103.991 155.195 0.0532122 0.560839 -0.826213
60.33 103.983 155.12 0.0532122 0.560839 -0.826213
60.6244 104.452 155.457 0.0532122 0.560839 -0.826213
59.4272 102.313 155.72 -0.55267 -0.787659 -0.272304
59.7019 101.901 156.354 -0.55267 -0.787659 -0.272304
59.0294 102.351 156.418 -0.55267 -0.787659 -0.272304
59.4272 102.313 155.72 -0.297374 -0.845351 -0.443791
60.0877 102.318 155.267 -0.297374 -0.845351 -0.443791
60.4088 102.057 155.549 -0.297374 -0.845351 -0.443791
59.4272 102.313 155.72 -0.296732 -0.854406 -0.426544
60.4088 102.057 155.549 -0.296732 -0.854406 -0.426544
59.7019 101.901 156.354 -0.296732 -0.854406 -0.426544
59.7019 101.901 156.354 -0.232746 -0.895909 -0.378388
60.4088 102.057 155.549 -0.232746 -0.895909 -0.378388
60.4949 101.738 156.252 -0.232746 -0.895909 -0.378388
60.9369 102.15 155.438 0.114846 -0.969837 -0.215005
61.5064 102.151 155.737 0.114846 -0.969837 -0.215005
61.2587 102.029 156.153 0.114846 -0.969837 -0.215005
60.9369 102.15 155.438 0.123106 -0.968059 -0.21842
61.2587 102.029 156.153 0.123106 -0.968059 -0.21842
60.4088 102.057 155.549 0.123106 -0.968059 -0.21842
60.4088 102.057 155.549 0.273697 -0.862665 -0.425322
61.2587 102.029 156.153 0.273697 -0.862665 -0.425322
60.4949 101.738 156.252 0.273697 -0.862665 -0.425322
61.2587 102.029 156.153 0.290574 -0.951091 -0.104847
61.5064 102.151 155.737 0.290574 -0.951091 -0.104847
61.8693 102.22 156.112 0.290574 -0.951091 -0.104847
58.6106 102.936 156.045 -0.990093 0.000471954 -0.140413
58.5607 102.884 156.396 -0.990093 0.000471954 -0.140413
58.5569 103.194 156.425 -0.990093 0.000471954 -0.140413
59.0294 102.351 156.418 -0.731862 -0.651509 -0.199784
58.5607 102.884 156.396 -0.731862 -0.651509 -0.199784
58.6106 102.936 156.045 -0.731862 -0.651509 -0.199784
59.4272 102.313 155.72 -0.651977 -0.680336 -0.334766
59.0294 102.351 156.418 -0.651977 -0.680336 -0.334766
58.6106 102.936 156.045 -0.651977 -0.680336 -0.334766
59.4272 102.313 155.72 -0.598774 -0.433944 -0.673174
58.6106 102.936 156.045 -0.598774 -0.433944 -0.673174
59.0467 103.217 155.476 -0.598774 -0.433944 -0.673174
59.4272 102.313 155.72 -0.777996 -0.446838 -0.441653
59.0467 103.217 155.476 -0.777996 -0.446838 -0.441653
59.4932 102.634 155.279 -0.777996 -0.446838 -0.441653
60.0877 102.318 155.267 -0.39123 -0.715241 -0.579111
59.4272 102.313 155.72 -0.39123 -0.715241 -0.579111
59.4932 102.634 155.279 -0.39123 -0.715241 -0.579111
60.9369 102.15 155.438 0.341269 -0.682638 -0.646173
61.6012 102.485 155.435 0.341269 -0.682638 -0.646173
61.5064 102.151 155.737 0.341269 -0.682638 -0.646173
62.2168 103.2 155.495 0.763857 -0.5034 -0.40387
62.5367 103.247 156.041 0.763857 -0.5034 -0.40387
62.2829 102.734 156.201 0.763857 -0.5034 -0.40387
61.6012 102.485 155.435 0.69912 -0.564844 -0.438385
62.2168 103.2 155.495 0.69912 -0.564844 -0.438385
62.2829 102.734 156.201 0.69912 -0.564844 -0.438385
61.6012 102.485 155.435 0.721805 -0.4984 -0.480202
62.2829 102.734 156.201 0.721805 -0.4984 -0.480202
61.8693 102.22 156.112 0.721805 -0.4984 -0.480202
61.6012 102.485 155.435 0.619746 -0.616338 -0.485842
61.8693 102.22 156.112 0.619746 -0.616338 -0.485842
61.5064 102.151 155.737 0.619746 -0.616338 -0.485842
62.2829 102.734 156.201 0.903143 -0.421885 0.0796655
62.5367 103.247 156.041 0.903143 -0.421885 0.0796655
62.4284 103.104 156.512 0.903143 -0.421885 0.0796655
58.6106 102.936 156.045 -0.990906 -0.00873087 -0.134273
58.5569 103.194 156.425 -0.990906 -0.00873087 -0.134273
58.5973 103.26 156.122 -0.990906 -0.00873087 -0.134273
58.5973 103.26 156.122 -0.813432 0.102278 -0.572597
59.0467 103.217 155.476 -0.813432 0.102278 -0.572597
58.6106 102.936 156.045 -0.813432 0.102278 -0.572597
58.5973 103.26 156.122 -0.549935 0.71592 -0.43015
59.1313 103.825 156.379 -0.549935 0.71592 -0.43015
59.0467 103.217 155.476 -0.549935 0.71592 -0.43015
59.1313 103.825 156.379 -0.937308 0.323443 -0.129764
59.3142 104.017 155.536 -0.937308 0.323443 -0.129764
59.0467 103.217 155.476 -0.937308 0.323443 -0.129764
62.5367 103.247 156.041 0.849647 0.453788 -0.268656
62.2381 103.862 156.136 0.849647 0.453788 -0.268656
62.501 103.509 156.37 0.849647 0.453788 -0.268656
62.5367 103.247 156.041 0.757055 0.441626 -0.481492
62.2168 103.2 155.495 0.757055 0.441626 -0.481492
62.2381 103.862 156.136 0.757055 0.441626 -0.481492
62.2168 103.2 155.495 0.982893 0.110787 -0.147133
62.124 103.802 155.329 0.982893 0.110787 -0.147133
62.2381 103.862 156.136 0.982893 0.110787 -0.147133
62.4284 103.104 156.512 0.975496 -0.108011 0.19168
62.5367 103.247 156.041 0.975496 -0.108011 0.19168
62.501 103.509 156.37 0.975496 -0.108011 0.19168
59.3142 104.017 155.536 -0.597079 0.800458 0.0525765
59.1313 103.825 156.379 -0.597079 0.800458 0.0525765
59.6136 104.184 156.386 -0.597079 0.800458 0.0525765
59.7535 104.248 155.47 -0.467039 0.884183 -0.00979542
59.3142 104.017 155.536 -0.467039 0.884183 -0.00979542
59.6136 104.184 156.386 -0.467039 0.884183 -0.00979542
60.6244 104.452 155.457 -0.22359 0.962412 0.154174
59.7535 104.248 155.47 -0.22359 0.962412 0.154174
60.5069 104.285 156.332 -0.22359 0.962412 0.154174
59.7535 104.248 155.47 -0.108796 0.992676 0.0525214
59.6136 104.184 156.386 -0.108796 0.992676 0.0525214
60.5069 104.285 156.332 -0.108796 0.992676 0.0525214
61.421 103.991 155.195 0.431872 0.873287 -0.225515
60.6244 104.452 155.457 0.431872 0.873287 -0.225515
61.4 104.238 156.112 0.431872 0.873287 -0.225515
60.6244 104.452 155.457 0.100834 0.974572 0.200103
60.5069 104.285 156.332 0.100834 0.974572 0.200103
61.4 104.238 156.112 0.100834 0.974572 0.200103
62.2381 103.862 156.136 0.276588 0.954685 -0.109885
62.124 103.802 155.329 0.276588 0.954685 -0.109885
61.421 103.991 155.195 0.276588 0.954685 -0.109885
61.4 104.238 156.112 0.403456 0.885744 -0.229524
62.2381 103.862 156.136 0.403456 0.885744 -0.229524
61.421 103.991 155.195 0.403456 0.885744 -0.229524
59.7019 101.901 156.354 -0.549031 -0.83205 0.0791116
59.4416 102.119 156.842 -0.549031 -0.83205 0.0791116
59.0294 102.351 156.418 -0.549031 -0.83205 0.0791116
59.8654 102.096 157.103 -0.229922 -0.928313 0.292183
59.4416 102.119 156.842 -0.229922 -0.928313 0.292183
59.7019 101.901 156.354 -0.229922 -0.928313 0.292183
59.8654 102.096 157.103 -0.11955 -0.954044 0.274785
59.7019 101.901 156.354 -0.11955 -0.954044 0.274785
60.5783 101.965 156.958 -0.11955 -0.954044 0.274785
60.5783 101.965 156.958 -0.151466 -0.935519 0.319159
59.7019 101.901 156.354 -0.151466 -0.935519 0.319159
60.4949 101.738 156.252 -0.151466 -0.935519 0.319159
61.5462 102.215 156.676 0.338404 -0.843538 0.417045
61.0763 102.294 157.219 0.338404 -0.843538 0.417045
60.5783 101.965 156.958 0.338404 -0.843538 0.417045
61.5462 102.215 156.676 0.29241 -0.940583 0.172628
60.5783 101.965 156.958 0.29241 -0.940583 0.172628
61.2587 102.029 156.153 0.29241 -0.940583 0.172628
61.2587 102.029 156.153 0.372738 -0.895228 0.244197
60.5783 101.965 156.958 0.372738 -0.895228 0.244197
60.4949 101.738 156.252 0.372738 -0.895228 0.244197
61.2587 102.029 156.153 0.304692 -0.938054 0.16498
61.8693 102.22 156.112 0.304692 -0.938054 0.16498
61.5462 102.215 156.676 0.304692 -0.938054 0.16498
58.5607 102.884 156.396 -0.798599 -0.0645882 0.598388
58.9782 103.118 156.979 -0.798599 -0.0645882 0.598388
58.5569 103.194 156.425 -0.798599 -0.0645882 0.598388
59.0294 102.351 156.418 -0.596493 -0.499452 0.628287
58.9782 103.118 156.979 -0.596493 -0.499452 0.628287
58.5607 102.884 156.396 -0.596493 -0.499452 0.628287
59.0294 102.351 156.418 -0.752304 -0.420957 0.506788
59.4798 102.452 157.17 -0.752304 -0.420957 0.506788
58.9782 103.118 156.979 -0.752304 -0.420957 0.506788
59.0294 102.351 156.418 -0.755577 -0.413825 0.507792
59.4416 102.119 156.842 -0.755577 -0.413825 0.507792
59.4798 102.452 157.17 -0.755577 -0.413825 0.507792
59.8654 102.096 157.103 -0.440903 -0.604003 0.663916
59.4798 102.452 157.17 -0.440903 -0.604003 0.663916
59.4416 102.119 156.842 -0.440903 -0.604003 0.663916
61.5462 102.215 156.676 0.540669 -0.627312 0.560497
61.7512 102.708 157.031 0.540669 -0.627312 0.560497
61.0763 102.294 157.219 0.540669 -0.627312 0.560497
62.4284 103.104 156.512 0.676382 -0.24686 0.69395
62.0083 103.296 156.989 0.676382 -0.24686 0.69395
61.7512 102.708 157.031 0.676382 -0.24686 0.69395
62.2829 102.734 156.201 0.674634 -0.611958 0.412766
62.4284 103.104 156.512 0.674634 -0.611958 0.412766
61.7512 102.708 157.031 0.674634 -0.611958 0.412766
62.2829 102.734 156.201 0.688519 -0.589531 0.422369
61.7512 102.708 157.031 0.688519 -0.589531 0.422369
61.5462 102.215 156.676 0.688519 -0.589531 0.422369
62.2829 102.734 156.201 0.685011 -0.617863 0.386012
61.5462 102.215 156.676 0.685011 -0.617863 0.386012
61.8693 102.22 156.112 0.685011 -0.617863 0.386012
58.5569 103.194 156.425 -0.736829 0.674308 0.048902
59.1313 103.825 156.379 -0.736829 0.674308 0.048902
58.5973 103.26 156.122 -0.736829 0.674308 0.048902
58.5569 103.194 156.425 -0.603111 0.587987 0.539007
58.9782 103.118 156.979 -0.603111 0.587987 0.539007
59.1313 103.825 156.379 -0.603111 0.587987 0.539007
58.9782 103.118 156.979 -0.908188 0.367199 0.200895
59.3011 103.795 157.201 -0.908188 0.367199 0.200895
59.1313 103.825 156.379 -0.908188 0.367199 0.200895
62.501 103.509 156.37 0.765046 0.0863632 0.638158
62.0083 103.296 156.989 0.765046 0.0863632 0.638158
62.4284 103.104 156.512 0.765046 0.0863632 0.638158
62.501 103.509 156.37 0.424466 0.697643 0.577168
62.2381 103.862 156.136 0.424466 0.697643 0.577168
62.0083 103.296 156.989 0.424466 0.697643 0.577168
59.1313 103.825 156.379 -0.705252 0.688116 0.170633
59.3011 103.795 157.201 -0.705252 0.688116 0.170633
59.5188 103.977 157.366 -0.705252 0.688116 0.170633
59.6136 104.184 156.386 -0.594742 0.79628 0.110547
59.1313 103.825 156.379 -0.594742 0.79628 0.110547
59.5188 103.977 157.366 -0.594742 0.79628 0.110547
60.5069 104.285 156.332 -0.0940724 0.964835 0.245447
59.6136 104.184 156.386 -0.0940724 0.964835 0.245447
60.3016 103.957 157.544 -0.0940724 0.964835 0.245447
59.6136 104.184 156.386 -0.0206804 0.978632 0.204578
59.5188 103.977 157.366 -0.0206804 0.978632 0.204578
60.3016 103.957 157.544 -0.0206804 0.978632 0.204578
61.4 104.238 156.112 0.129034 0.937811 0.322273
60.5069 104.285 156.332 0.129034 0.937811 0.322273
61.3778 103.89 157.133 0.129034 0.937811 0.322273
60.5069 104.285 156.332 0.167077 0.944139 0.284054
60.3016 103.957 157.544 0.167077 0.944139 0.284054
61.3778 103.89 157.133 0.167077 0.944139 0.284054
61.3778 103.89 157.133 0.381992 0.87223 0.305446
62.2381 103.862 156.136 0.381992 0.87223 0.305446
61.4 104.238 156.112 0.381992 0.87223 0.305446
60.5783 101.965 156.958 0.00306578 -0.734655 0.678434
60.4055 102.399 157.428 0.00306578 -0.734655 0.678434
59.8654 102.096 157.103 0.00306578 -0.734655 0.678434
60.5783 101.965 156.958 0.105407 -0.711509 0.694726
61.0763 102.294 157.219 0.105407 -0.711509 0.694726
60.4055 102.399 157.428 0.105407 -0.711509 0.694726
59.4798 102.452 157.17 -0.603266 -0.235538 0.761966
59.6468 103.231 157.543 -0.603266 -0.235538 0.761966
58.9782 103.118 156.979 -0.603266 -0.235538 0.761966
59.4798 102.452 157.17 -0.263473 -0.44754 0.85457
59.8654 102.096 157.103 -0.263473 -0.44754 0.85457
60.4055 102.399 157.428 -0.263473 -0.44754 0.85457
59.4798 102.452 157.17 -0.268772 -0.368438 0.889952
60.4055 102.399 157.428 -0.268772 -0.368438 0.889952
59.6468 103.231 157.543 -0.268772 -0.368438 0.889952
59.6468 103.231 157.543 -0.147504 -0.266604 0.952452
60.4055 102.399 157.428 -0.147504 -0.266604 0.952452
60.5966 103.242 157.693 -0.147504 -0.266604 0.952452
61.0763 102.294 157.219 0.474902 -0.424038 0.771142
61.7512 102.708 157.031 0.474902 -0.424038 0.771142
61.3509 103.006 157.441 0.474902 -0.424038 0.771142
61.0763 102.294 157.219 0.223452 -0.368082 0.902544
61.3509 103.006 157.441 0.223452 -0.368082 0.902544
60.4055 102.399 157.428 0.223452 -0.368082 0.902544
60.4055 102.399 157.428 0.202325 -0.335609 0.920017
61.3509 103.006 157.441 0.202325 -0.335609 0.920017
60.5966 103.242 157.693 0.202325 -0.335609 0.920017
61.7512 102.708 157.031 0.616061 -0.216034 0.757495
62.0083 103.296 156.989 0.616061 -0.216034 0.757495
61.3509 103.006 157.441 0.616061 -0.216034 0.757495
59.6468 103.231 157.543 -0.640082 0.071859 0.764939
59.5188 103.977 157.366 -0.640082 0.071859 0.764939
59.3011 103.795 157.201 -0.640082 0.071859 0.764939
58.9782 103.118 156.979 -0.649829 0.0614268 0.757595
59.6468 103.231 157.543 -0.649829 0.0614268 0.757595
59.3011 103.795 157.201 -0.649829 0.0614268 0.757595
60.5966 103.242 157.693 -0.156289 0.1396 0.977796
60.3016 103.957 157.544 -0.156289 0.1396 0.977796
59.6468 103.231 157.543 -0.156289 0.1396 0.977796
60.3016 103.957 157.544 -0.213168 0.190982 0.958168
59.5188 103.977 157.366 -0.213168 0.190982 0.958168
59.6468 103.231 157.543 -0.213168 0.190982 0.958168
61.3509 103.006 157.441 0.384274 0.293466 0.875335
61.3778 103.89 157.133 0.384274 0.293466 0.875335
60.5966 103.242 157.693 0.384274 0.293466 0.875335
61.3778 103.89 157.133 0.354586 0.329151 0.875174
60.3016 103.957 157.544 0.354586 0.329151 0.875174
60.5966 103.242 157.693 0.354586 0.329151 0.875174
62.0083 103.296 156.989 0.640138 0.549478 0.536934
62.2381 103.862 156.136 0.640138 0.549478 0.536934
61.3778 103.89 157.133 0.640138 0.549478 0.536934
61.3509 103.006 157.441 0.456896 0.280397 0.844171
62.0083 103.296 156.989 0.456896 0.280397 0.844171
61.3778 103.89 157.133 0.456896 0.280397 0.844171
3 0 1 2
3 3 4 5
3 6 7 8
3 9 10 11
3 12 13 14
3 15 16 17
3 18 19 20
3 21 22 23
3 24 25 26
3 27 28 29
3 30 31 32
3 33 34 35
3 36 37 38
3 39 40 41
3 42 43 44
3 45 46 47
3 48 49 50
3 51 52 53
3 54 55 56
3 57 58 59
3 60 61 62
3 63 64 65
3 66 67 68
3 69 70 71
3 72 73 74
3 75 76 77
3 78 79 80
3 81 82 83
3 84 85 86
3 87 88 89
3 90 91 92
3 93 94 95
3 96 97 98
3 99 100 101
3 102 103 104
3 105 106 107
3 108 109 110
3 111 112 113
3 114 115 116
3 117 118 119
3 120 121 122
3 123 124 125
3 126 127 128
3 129 130 131
3 132 133 134
3 135 136 137
3 138 139 140
3 141 142 143
3 144 145 146
3 147 148 149
3 150 151 152
3 153 154 155
3 156 157 158
3 159 160 161
3 162 163 164
3 165 166 167
3 168 169 170
3 171 172 173
3 174 175 176
3 177 178 179
3 180 181 182
3 183 184 185
3 186 187 188
3 189 190 191
3 192 193 194
3 195 196 197
3 198 199 200
3 201 202 203
3 204 205 206
3 207 208 209
3 210 211 212
3 213 214 215
3 216 217 218
3 219 220 221
3 222 223 224
3 225 226 227
3 228 229 230
3 231 232 233
3 234 235 236
3 237 238 239
3 240 241 242
3 243 244 245
3 246 247 248
3 249 250 251
3 252 253 254
3 255 256 257
3 258 259 260
3 261 262 263
3 264 265 266
3 267 268 269
3 270 271 272
3 273 274 275
3 276 277 278
3 279 280 281
3 282 283 284
3 285 286 287
3 288 289 290
3 291 292 293
3 294 295 296
3 297 298 299
3 300 301 302
3 303 304 305
3 306 307 308
3 309 310 311
3 312 313 314
3 315 316 317
