ply
format ascii 1.0
element vertex 264
property float x
property float y
property float z
property float nx
property float ny
property float nz
element face 88
property list uint uint vertex_indices
end_header
55.4399 108.578 164.546 -0.217362 -0.934107 -0.283192
56.3171 108.45 164.295 -0.217362 -0.934107 -0.283192
56.2601 108.327 164.746 -0.217362 -0.934107 -0.283192
56.3171 108.45 164.295 0.0243702 -0.711095 -0.702673
57.3233 108.528 164.251 0.0243702 -0.711095 -0.702673
57.0678 108.147 164.628 0.0243702 -0.711095 -0.702673
56.2601 108.327 164.746 -0.247972 -0.925949 -0.284832
56.3171 108.45 164.295 -0.247972 -0.925949 -0.284832
57.0678 108.147 164.628 -0.247972 -0.925949 -0.284832
57.3233 108.528 164.251 0.265665 -0.681493 -0.681902
58.4334 108.653 164.559 0.265665 -0.681493 -0.681902
57.9064 108.299 164.707 0.265665 -0.681493 -0.681902
57.0678 108.147 164.628 0.195938 -0.752765 -0.628454
57.3233 108.528 164.251 0.195938 -0.752765 -0.628454
57.9064 108.299 164.707 0.195938 -0.752765 -0.628454
55.2248 109.382 164.294 -0.114295 -0.324526 -0.938946
55.4399 108.578 164.546 -0.114295 -0.324526 -0.938946
54.9958 108.722 164.55 -0.114295 -0.324526 -0.938946
54.7163 109.391 164.628 -0.54573 -0.131576 -0.827567
55.2248 109.382 164.294 -0.54573 -0.131576 -0.827567
54.9958 108.722 164.55 -0.54573 -0.131576 -0.827567
56.3171 108.45 164.295 -0.289038 -0.11604 -0.950259
55.4399 108.578 164.546 -0.289038 -0.11604 -0.950259
56.4478 109.368 164.143 -0.289038 -0.11604 -0.950259
56.4478 109.368 164.143 -0.119791 -0.325659 -0.937868
55.4399 108.578 164.546 -0.119791 -0.325659 -0.937868
55.2248 109.382 164.294 -0.119791 -0.325659 -0.937868
57.3233 108.528 164.251 -0.0305222 -0.158874 -0.986827
56.3171 108.45 164.295 -0.0305222 -0.158874 -0.986827
56.4478 109.368 164.143 -0.0305222 -0.158874 -0.986827
58.4334 108.653 164.559 0.28621 -0.328825 -0.899977
57.3233 108.528 164.251 0.28621 -0.328825 -0.899977
58.028 109.272 164.204 0.28621 -0.328825 -0.899977
58.028 109.272 164.204 0.0323836 -0.0943811 -0.995009
57.3233 108.528 164.251 0.0323836 -0.0943811 -0.995009
56.4478 109.368 164.143 0.0323836 -0.0943811 -0.995009
58.9218 109.124 164.831 0.723051 -0.443527 -0.529605
58.4334 108.653 164.559 0.723051 -0.443527 -0.529605
58.9101 109.456 164.537 0.723051 -0.443527 -0.529605
58.9101 109.456 164.537 0.388193 -0.253909 -0.88591
58.4334 108.653 164.559 0.388193 -0.253909 -0.88591
58.028 109.272 164.204 0.388193 -0.253909 -0.88591
55.1014 110.118 164.414 -0.5479 0.044132 -0.835379
55.2248 109.382 164.294 -0.5479 0.044132 -0.835379
54.7163 109.391 164.628 -0.5479 0.044132 -0.835379
54.9786 110.132 164.739 -0.867903 0.358316 -0.344027
55.1014 110.118 164.414 -0.867903 0.358316 -0.344027
54.7163 109.391 164.628 -0.867903 0.358316 -0.344027
56.4478 109.368 164.143 -0.12099 0.106039 -0.986974
55.2248 109.382 164.294 -0.12099 0.106039 -0.986974
55.933 110.191 164.295 -0.12099 0.106039 -0.986974
55.933 110.191 164.295 -0.152776 0.133851 -0.979154
55.2248 109.382 164.294 -0.152776 0.133851 -0.979154
55.1014 110.118 164.414 -0.152776 0.133851 -0.979154
56.9449 110.32 164.333 0.0129263 0.188862 -0.981918
56.4478 109.368 164.143 0.0129263 0.188862 -0.981918
55.933 110.191 164.295 0.0129263 0.188862 -0.981918
58.028 109.272 164.204 0.0514888 0.23329 -0.971043
56.4478 109.368 164.143 0.0514888 0.23329 -0.971043
58.0057 110.172 164.419 0.0514888 0.23329 -0.971043
58.0057 110.172 164.419 0.0999892 0.143908 -0.984527
56.4478 109.368 164.143 0.0999892 0.143908 -0.984527
56.9449 110.32 164.333 0.0999892 0.143908 -0.984527
58.6547 110.128 164.781 0.674602 0.463759 -0.574317
59.0512 109.535 164.767 0.674602 0.463759 -0.574317
58.9101 109.456 164.537 0.674602 0.463759 -0.574317
58.6547 110.128 164.781 0.457598 0.450774 -0.766425
58.9101 109.456 164.537 0.457598 0.450774 -0.766425
58.0057 110.172 164.419 0.457598 0.450774 -0.766425
58.0057 110.172 164.419 0.302477 0.228606 -0.925336
58.9101 109.456 164.537 0.302477 0.228606 -0.925336
58.028 109.272 164.204 0.302477 0.228606 -0.925336
58.9218 109.124 164.831 0.851254 -0.33078 -0.407372
58.9101 109.456 164.537 0.851254 -0.33078 -0.407372
59.0512 109.535 164.767 0.851254 -0.33078 -0.407372
55.1014 110.118 164.414 -0.605171 0.751898 -0.261568
54.9786 110.132 164.739 -0.605171 0.751898 -0.261568
55.3554 110.422 164.7 -0.605171 0.751898 -0.261568
55.933 110.191 164.295 -0.159185 0.743753 -0.649224
55.1014 110.118 164.414 -0.159185 0.743753 -0.649224
55.3554 110.422 164.7 -0.159185 0.743753 -0.649224
56.313 110.572 164.729 -0.106575 0.791701 -0.60154
55.933 110.191 164.295 -0.106575 0.791701 -0.60154
55.3554 110.422 164.7 -0.106575 0.791701 -0.60154
56.9449 110.32 164.333 -0.0760791 0.781485 -0.619269
55.933 110.191 164.295 -0.0760791 0.781485 -0.619269
56.313 110.572 164.729 -0.0760791 0.781485 -0.619269
57.3626 110.752 164.761 -0.108608 0.750755 -0.651591
56.9449 110.32 164.333 -0.108608 0.750755 -0.651591
56.313 110.572 164.729 -0.108608 0.750755 -0.651591
58.0057 110.172 164.419 0.148993 0.619644 -0.770612
56.9449 110.32 164.333 0.148993 0.619644 -0.770612
57.3626 110.752 164.761 0.148993 0.619644 -0.770612
58.1866 110.61 164.829 0.171865 0.634801 -0.753319
58.0057 110.172 164.419 0.171865 0.634801 -0.753319
57.3626 110.752 164.761 0.171865 0.634801 -0.753319
58.6547 110.128 164.781 0.445427 0.507255 -0.737759
58.0057 110.172 164.419 0.445427 0.507255 -0.737759
58.1866 110.61 164.829 0.445427 0.507255 -0.737759
55.4399 108.578 164.546 -0.308173 -0.950106 -0.048256
55.1008 108.676 164.789 -0.308173 -0.950106 -0.048256
54.9958 108.722 164.55 -0.308173 -0.950106 -0.048256
55.4399 108.578 164.546 -0.336504 -0.912421 0.232922
56.2601 108.327 164.746 -0.336504 -0.912421 0.232922
55.8869 108.594 165.255 -0.336504 -0.912421 0.232922
55.1008 108.676 164.789 -0.182046 -0.973707 0.136941
55.4399 108.578 164.546 -0.182046 -0.973707 0.136941
55.8869 108.594 165.255 -0.182046 -0.973707 0.136941
57.1771 108.572 165.46 -0.0820953 -0.905713 0.415867
55.8869 108.594 165.255 -0.0820953 -0.905713 0.415867
56.2601 108.327 164.746 -0.0820953 -0.905713 0.415867
57.1771 108.572 165.46 -0.127589 -0.87646 0.464261
56.2601 108.327 164.746 -0.127589 -0.87646 0.464261
57.0678 108.147 164.628 -0.127589 -0.87646 0.464261
58.2538 108.52 165.023 0.142339 -0.8787 0.455659
57.1771 108.572 165.46 0.142339 -0.8787 0.455659
57.9064 108.299 164.707 0.142339 -0.8787 0.455659
57.9064 108.299 164.707 0.120544 -0.89046 0.438806
57.1771 108.572 165.46 0.120544 -0.89046 0.438806
57.0678 108.147 164.628 0.120544 -0.89046 0.438806
57.9064 108.299 164.707 0.552266 -0.833253 -0.0263187
58.4334 108.653 164.559 0.552266 -0.833253 -0.0263187
58.2538 108.52 165.023 0.552266 -0.833253 -0.0263187
55.1008 108.676 164.789 -0.778023 -0.293585 0.555417
55.1404 109.458 165.258 -0.778023 -0.293585 0.555417
54.7163 109.391 164.628 -0.778023 -0.293585 0.555417
54.9958 108.722 164.55 -0.865874 -0.397568 0.303648
55.1008 108.676 164.789 -0.865874 -0.397568 0.303648
54.7163 109.391 164.628 -0.865874 -0.397568 0.303648
55.552 109.299 165.594 -0.497063 -0.556626 0.665655
55.8869 108.594 165.255 -0.497063 -0.556626 0.665655
56.1584 108.781 165.614 -0.497063 -0.556626 0.665655
55.552 109.299 165.594 -0.643143 -0.558021 0.524384
55.1404 109.458 165.258 -0.643143 -0.558021 0.524384
55.8869 108.594 165.255 -0.643143 -0.558021 0.524384
55.1404 109.458 165.258 -0.492888 -0.428864 0.757058
55.1008 108.676 164.789 -0.492888 -0.428864 0.757058
55.8869 108.594 165.255 -0.492888 -0.428864 0.757058
57.1771 108.572 165.46 -0.0970837 -0.850878 0.516315
56.1584 108.781 165.614 -0.0970837 -0.850878 0.516315
55.8869 108.594 165.255 -0.0970837 -0.850878 0.516315
58.2538 108.52 165.023 0.184998 -0.812438 0.552919
58.2615 108.821 165.464 0.184998 -0.812438 0.552919
57.1771 108.572 165.46 0.184998 -0.812438 0.552919
58.9218 109.124 164.831 0.725782 -0.224942 0.650109
58.5109 109.553 165.439 0.725782 -0.224942 0.650109
58.2615 108.821 165.464 0.725782 -0.224942 0.650109
58.9218 109.124 164.831 0.673793 -0.61515 0.409381
58.2615 108.821 165.464 0.673793 -0.61515 0.409381
58.2538 108.52 165.023 0.673793 -0.61515 0.409381
58.9218 109.124 164.831 0.677833 -0.733452 0.0508992
58.2538 108.52 165.023 0.677833 -0.733452 0.0508992
58.4334 108.653 164.559 0.677833 -0.733452 0.0508992
55.1404 109.458 165.258 -0.873575 0.147527 0.463791
55.2285 110.282 165.162 -0.873575 0.147527 0.463791
54.9786 110.132 164.739 -0.873575 0.147527 0.463791
54.7163 109.391 164.628 -0.820883 0.211536 0.530475
55.1404 109.458 165.258 -0.820883 0.211536 0.530475
54.9786 110.132 164.739 -0.820883 0.211536 0.530475
55.6009 110.112 165.596 -0.624019 0.036016 0.780579
55.1404 109.458 165.258 -0.624019 0.036016 0.780579
55.552 109.299 165.594 -0.624019 0.036016 0.780579
55.2285 110.282 165.162 -0.718862 0.155965 0.67743
55.1404 109.458 165.258 -0.718862 0.155965 0.67743
55.6009 110.112 165.596 -0.718862 0.155965 0.67743
59.0512 109.535 164.767 0.768911 -0.144869 0.622727
58.5109 109.553 165.439 0.768911 -0.144869 0.622727
58.9218 109.124 164.831 0.768911 -0.144869 0.622727
59.0512 109.535 164.767 0.69917 0.455425 0.551135
58.6547 110.128 164.781 0.69917 0.455425 0.551135
58.5109 109.553 165.439 0.69917 0.455425 0.551135
58.6547 110.128 164.781 0.919989 0.172511 0.351937
58.3635 110.352 165.432 0.919989 0.172511 0.351937
58.5109 109.553 165.439 0.919989 0.172511 0.351937
54.9786 110.132 164.739 -0.60327 0.794112 0.0738346
55.2285 110.282 165.162 -0.60327 0.794112 0.0738346
55.3554 110.422 164.7 -0.60327 0.794112 0.0738346
55.2285 110.282 165.162 -0.462426 0.616126 0.637613
55.6009 110.112 165.596 -0.462426 0.616126 0.637613
55.9775 110.605 165.393 -0.462426 0.616126 0.637613
55.2285 110.282 165.162 -0.430004 0.890194 0.150504
55.9775 110.605 165.393 -0.430004 0.890194 0.150504
55.3554 110.422 164.7 -0.430004 0.890194 0.150504
55.3554 110.422 164.7 -0.150533 0.980752 -0.124362
55.9775 110.605 165.393 -0.150533 0.980752 -0.124362
56.313 110.572 164.729 -0.150533 0.980752 -0.124362
57.3626 110.752 164.761 -0.159495 0.966915 -0.19909
56.313 110.572 164.729 -0.159495 0.966915 -0.19909
56.974 110.837 165.484 -0.159495 0.966915 -0.19909
56.313 110.572 164.729 -0.210528 0.965397 -0.153907
55.9775 110.605 165.393 -0.210528 0.965397 -0.153907
56.974 110.837 165.484 -0.210528 0.965397 -0.153907
58.1866 110.61 164.829 0.181634 0.965896 -0.184537
57.3626 110.752 164.761 0.181634 0.965896 -0.184537
57.9347 110.788 165.512 0.181634 0.965896 -0.184537
57.3626 110.752 164.761 0.053174 0.994693 -0.0880776
56.974 110.837 165.484 0.053174 0.994693 -0.0880776
57.9347 110.788 165.512 0.053174 0.994693 -0.0880776
58.3635 110.352 165.432 0.719071 0.689766 0.0846131
58.6547 110.128 164.781 0.719071 0.689766 0.0846131
58.1866 110.61 164.829 0.719071 0.689766 0.0846131
57.9347 110.788 165.512 0.718209 0.690589 0.0852187
58.3635 110.352 165.432 0.718209 0.690589 0.0852187
58.1866 110.61 164.829 0.718209 0.690589 0.0852187
56.1584 108.781 165.614 -0.293503 -0.309314 0.904533
56.3056 109.491 165.904 -0.293503 -0.309314 0.904533
55.552 109.299 165.594 -0.293503 -0.309314 0.904533
56.1584 108.781 165.614 0.0590166 -0.38856 0.919531
57.1771 108.572 165.46 0.0590166 -0.38856 0.919531
56.3056 109.491 165.904 0.0590166 -0.38856 0.919531
56.3056 109.491 165.904 -0.132434 -0.530324 0.837387
57.1771 108.572 165.46 -0.132434 -0.530324 0.837387
57.3125 109.499 166.069 -0.132434 -0.530324 0.837387
57.1771 108.572 165.46 0.14473 -0.640764 0.753973
58.2615 108.821 165.464 0.14473 -0.640764 0.753973
58.0343 109.315 165.927 0.14473 -0.640764 0.753973
57.1771 108.572 165.46 0.0231119 -0.550947 0.83422
58.0343 109.315 165.927 0.0231119 -0.550947 0.83422
57.3125 109.499 166.069 0.0231119 -0.550947 0.83422
58.2615 108.821 165.464 0.750398 -0.23445 0.61801
58.5109 109.553 165.439 0.750398 -0.23445 0.61801
58.0343 109.315 165.927 0.750398 -0.23445 0.61801
56.3056 109.491 165.904 -0.345172 0.0731377 0.935686
56.2924 110.365 165.831 -0.345172 0.0731377 0.935686
55.6009 110.112 165.596 -0.345172 0.0731377 0.935686
55.552 109.299 165.594 -0.385084 0.0213898 0.922634
56.3056 109.491 165.904 -0.385084 0.0213898 0.922634
55.6009 110.112 165.596 -0.385084 0.0213898 0.922634
57.3125 109.499 166.069 -0.161308 0.036582 0.986226
57.1793 110.305 166.017 -0.161308 0.036582 0.986226
56.3056 109.491 165.904 -0.161308 0.036582 0.986226
57.1793 110.305 166.017 -0.199405 0.0787698 0.976746
56.2924 110.365 165.831 -0.199405 0.0787698 0.976746
56.3056 109.491 165.904 -0.199405 0.0787698 0.976746
58.0343 109.315 165.927 0.177628 -0.0593861 0.982304
58.0624 110.147 165.972 0.177628 -0.0593861 0.982304
57.3125 109.499 166.069 0.177628 -0.0593861 0.982304
58.0624 110.147 165.972 0.0637559 0.0743265 0.995194
57.1793 110.305 166.017 0.0637559 0.0743265 0.995194
57.3125 109.499 166.069 0.0637559 0.0743265 0.995194
58.5109 109.553 165.439 0.835752 0.158414 0.525759
58.3635 110.352 165.432 0.835752 0.158414 0.525759
58.0624 110.147 165.972 0.835752 0.158414 0.525759
58.0343 109.315 165.927 0.729271 -0.0616665 0.681441
58.5109 109.553 165.439 0.729271 -0.0616665 0.681441
58.0624 110.147 165.972 0.729271 -0.0616665 0.681441
55.6009 110.112 165.596 -0.445916 0.610489 0.65457
56.2924 110.365 165.831 -0.445916 0.610489 0.65457
55.9775 110.605 165.393 -0.445916 0.610489 0.65457
56.974 110.837 165.484 -0.23372 0.772343 0.590645
55.9775 110.605 165.393 -0.23372 0.772343 0.590645
56.2924 110.365 165.831 -0.23372 0.772343 0.590645
57.1793 110.305 166.017 -0.105276 0.683588 0.722236
56.974 110.837 165.484 -0.105276 0.683588 0.722236
56.2924 110.365 165.831 -0.105276 0.683588 0.722236
57.9347 110.788 165.512 0.0158705 0.711055 0.702957
56.974 110.837 165.484 0.0158705 0.711055 0.702957
57.1793 110.305 166.017 0.0158705 0.711055 0.702957
58.0624 110.147 165.972 0.146859 0.59632 0.789199
57.9347 110.788 165.512 0.146859 0.59632 0.789199
57.1793 110.305 166.017 0.146859 0.59632 0.789199
58.3635 110.352 165.432 0.64084 0.528068 0.557196
57.9347 110.788 165.512 0.64084 0.528068 0.557196
58.0624 110.147 165.972 0.64084 0.528068 0.557196
3 0 1 2
3 3 4 5
3 6 7 8
3 9 10 11
3 12 13 14
3 15 16 17
3 18 19 20
3 21 22 23
3 24 25 26
3 27 28 29
3 30 31 32
3 33 34 35
3 36 37 38
3 39 40 41
3 42 43 44
3 45 46 47
3 48 49 50
3 51 52 53
3 54 55 56
3 57 58 59
3 60 61 62
3 63 64 65
3 66 67 68
3 69 70 71
3 72 73 74
3 75 76 77
3 78 79 80
3 81 82 83
3 84 85 86
3 87 88 89
3 90 91 92
3 93 94 95
3 96 97 98
3 99 100 101
3 102 103 104
3 105 106 107
3 108 109 110
3 111 112 113
3 114 115 116
3 117 118 119
3 120 121 122
3 123 124 125
3 126 127 128
3 129 130 131
3 132 133 134
3 135 136 137
3 138 139 140
3 141 142 143
3 144 145 146
3 147 148 149
3 150 151 152
3 153 154 155
3 156 157 158
3 159 160 161
3 162 163 164
3 165 166 167
3 168 169 170
3 171 172 173
3 174 175 176
3 177 178 179
3 180 181 182
3 183 184 185
3 186 187 188
3 189 190 191
3 192 193 194
3 195 196 197
3 198 199 200
3 201 202 203
3 204 205 206
3 207 208 209
3 210 211 212
3 213 214 215
3 216 217 218
3 219 220 221
3 222 223 224
3 225 226 227
3 228 229 230
3 231 232 233
3 234 235 236
3 237 238 239
3 240 241 242
3 243 244 245
3 246 247 248
3 249 250 251
3 252 253 254
3 255 256 257
3 258 259 260
3 261 262 263
