ply
format ascii 1.0
element vertex 312
property float x
property float y
property float z
property float nx
property float ny
property float nz
element face 104
property list uint uint vertex_indices
end_header
119.966 165.837 128.106 -0.317952 -0.11056 -0.941638
119.974 165.139 128.185 -0.317952 -0.11056 -0.941638
119.305 165.781 128.336 -0.317952 -0.11056 -0.941638
119.974 165.139 128.185 0.0393458 -0.112202 -0.992906
119.966 165.837 128.106 0.0393458 -0.112202 -0.992906
120.928 165.424 128.191 0.0393458 -0.112202 -0.992906
119.13 166.45 128.152 -0.461844 -0.0964063 -0.881706
118.938 166.401 128.258 -0.461844 -0.0964063 -0.881706
118.9 166.608 128.254 -0.461844 -0.0964063 -0.881706
119.305 165.781 128.336 -0.387434 -0.337848 -0.857761
118.938 166.401 128.258 -0.387434 -0.337848 -0.857761
119.13 166.45 128.152 -0.387434 -0.337848 -0.857761
119.305 165.781 128.336 -0.286061 -0.323471 -0.901962
119.13 166.45 128.152 -0.286061 -0.323471 -0.901962
119.966 165.837 128.106 -0.286061 -0.323471 -0.901962
119.966 165.837 128.106 -0.0671751 -0.0174103 -0.997589
119.13 166.45 128.152 -0.0671751 -0.0174103 -0.997589
119.953 166.672 128.092 -0.0671751 -0.0174103 -0.997589
120.928 165.424 128.191 0.0459358 -0.0971419 -0.99421
119.966 165.837 128.106 0.0459358 -0.0971419 -0.99421
120.828 166.512 128.08 0.0459358 -0.0971419 -0.99421
120.828 166.512 128.08 -0.0172751 -0.0166595 -0.999712
119.966 165.837 128.106 -0.0172751 -0.0166595 -0.999712
119.953 166.672 128.092 -0.0172751 -0.0166595 -0.999712
121.845 166.223 128.215 0.471073 -0.519259 -0.713064
121.607 165.642 128.481 0.471073 -0.519259 -0.713064
120.928 165.424 128.191 0.471073 -0.519259 -0.713064
121.845 166.223 128.215 0.0754373 -0.0567012 -0.995537
120.928 165.424 128.191 0.0754373 -0.0567012 -0.995537
121.701 166.803 128.171 0.0754373 -0.0567012 -0.995537
121.701 166.803 128.171 0.132307 -0.0885041 -0.98725
120.928 165.424 128.191 0.132307 -0.0885041 -0.98725
120.828 166.512 128.08 0.132307 -0.0885041 -0.98725
121.845 166.223 128.215 0.132188 -0.0422727 -0.990323
121.701 166.803 128.171 0.132188 -0.0422727 -0.990323
121.99 166.629 128.217 0.132188 -0.0422727 -0.990323
119.13 166.45 128.152 -0.0754122 0.464865 -0.882164
118.9 166.608 128.254 -0.0754122 0.464865 -0.882164
119.194 166.747 128.303 -0.0754122 0.464865 -0.882164
119.953 166.672 128.092 -0.190982 0.477515 -0.857616
119.13 166.45 128.152 -0.190982 0.477515 -0.857616
119.194 166.747 128.303 -0.190982 0.477515 -0.857616
120.117 167.046 128.341 -0.159893 0.595547 -0.787247
119.953 166.672 128.092 -0.159893 0.595547 -0.787247
119.194 166.747 128.303 -0.159893 0.595547 -0.787247
120.117 167.046 128.341 -0.417307 0.615344 -0.668736
120.865 167.558 128.346 -0.417307 0.615344 -0.668736
120.928 167.377 128.141 -0.417307 0.615344 -0.668736
120.117 167.046 128.341 -0.418693 0.624352 -0.659454
120.928 167.377 128.141 -0.418693 0.624352 -0.659454
119.953 166.672 128.092 -0.418693 0.624352 -0.659454
119.953 166.672 128.092 -0.00135601 0.0702184 -0.997531
120.928 167.377 128.141 -0.00135601 0.0702184 -0.997531
120.828 166.512 128.08 -0.00135601 0.0702184 -0.997531
121.478 167.469 128.256 0.172507 0.181016 -0.968233
121.701 166.803 128.171 0.172507 0.181016 -0.968233
120.928 167.377 128.141 0.172507 0.181016 -0.968233
120.928 167.377 128.141 0.0836944 0.0601329 -0.994675
121.701 166.803 128.171 0.0836944 0.0601329 -0.994675
120.828 166.512 128.08 0.0836944 0.0601329 -0.994675
120.928 167.377 128.141 -0.718026 0.398815 -0.570425
120.865 167.558 128.346 -0.718026 0.398815 -0.570425
121.085 167.819 128.252 -0.718026 0.398815 -0.570425
121.478 167.469 128.256 0.172014 0.183501 -0.967852
120.928 167.377 128.141 0.172014 0.183501 -0.967852
121.085 167.819 128.252 0.172014 0.183501 -0.967852
120.217 163.787 128.917 -0.390327 -0.744978 -0.540973
120.12 163.468 129.427 -0.390327 -0.744978 -0.540973
119.723 163.854 129.182 -0.390327 -0.744978 -0.540973
120.217 163.787 128.917 0.169614 -0.658583 -0.733144
120.988 163.827 129.059 0.169614 -0.658583 -0.733144
120.795 163.544 129.268 0.169614 -0.658583 -0.733144
120.12 163.468 129.427 -0.0292692 -0.844795 -0.534289
120.217 163.787 128.917 -0.0292692 -0.844795 -0.534289
120.795 163.544 129.268 -0.0292692 -0.844795 -0.534289
120.795 163.544 129.268 0.398097 -0.705511 -0.586321
120.988 163.827 129.059 0.398097 -0.705511 -0.586321
121.245 163.699 129.388 0.398097 -0.705511 -0.586321
119.881 164.707 128.485 -0.458696 -0.509099 -0.728297
120.217 163.787 128.917 -0.458696 -0.509099 -0.728297
119.723 163.854 129.182 -0.458696 -0.509099 -0.728297
119.226 164.76 129.311 -0.749698 -0.329484 -0.573927
119.881 164.707 128.485 -0.749698 -0.329484 -0.573927
119.723 163.854 129.182 -0.749698 -0.329484 -0.573927
120.988 163.827 129.059 0.180358 -0.533462 -0.826371
120.217 163.787 128.917 0.180358 -0.533462 -0.826371
120.92 164.586 128.554 0.180358 -0.533462 -0.826371
120.92 164.586 128.554 0.0109958 -0.421156 -0.906922
120.217 163.787 128.917 0.0109958 -0.421156 -0.906922
119.881 164.707 128.485 0.0109958 -0.421156 -0.906922
121.481 164.541 129.208 0.676728 -0.329537 -0.658366
121.245 163.699 129.388 0.676728 -0.329537 -0.658366
120.988 163.827 129.059 0.676728 -0.329537 -0.658366
120.92 164.586 128.554 0.698701 -0.352119 -0.622759
121.481 164.541 129.208 0.698701 -0.352119 -0.622759
120.988 163.827 129.059 0.698701 -0.352119 -0.622759
119.055 165.501 128.855 -0.844022 -0.408408 -0.347606
119.226 164.76 129.311 -0.844022 -0.408408 -0.347606
118.879 165.604 129.16 -0.844022 -0.408408 -0.347606
119.881 164.707 128.485 -0.700079 -0.48429 -0.524741
119.226 164.76 129.311 -0.700079 -0.48429 -0.524741
119.055 165.501 128.855 -0.700079 -0.48429 -0.524741
119.881 164.707 128.485 -0.686707 -0.448199 -0.57232
119.055 165.501 128.855 -0.686707 -0.448199 -0.57232
119.305 165.781 128.336 -0.686707 -0.448199 -0.57232
119.881 164.707 128.485 -0.545787 -0.395767 -0.738569
119.305 165.781 128.336 -0.545787 -0.395767 -0.738569
119.974 165.139 128.185 -0.545787 -0.395767 -0.738569
120.928 165.424 128.191 0.180045 -0.587497 -0.788943
119.881 164.707 128.485 0.180045 -0.587497 -0.788943
119.974 165.139 128.185 0.180045 -0.587497 -0.788943
120.92 164.586 128.554 0.0143495 -0.398182 -0.917194
119.881 164.707 128.485 0.0143495 -0.398182 -0.917194
120.928 165.424 128.191 0.0143495 -0.398182 -0.917194
120.92 164.586 128.554 0.461258 -0.356573 -0.812464
120.928 165.424 128.191 0.461258 -0.356573 -0.812464
121.607 165.642 128.481 0.461258 -0.356573 -0.812464
120.92 164.586 128.554 0.655177 -0.467523 -0.593435
121.607 165.642 128.481 0.655177 -0.467523 -0.593435
121.481 164.541 129.208 0.655177 -0.467523 -0.593435
121.481 164.541 129.208 0.993872 -0.0485408 0.0993056
121.607 165.642 128.481 0.993872 -0.0485408 0.0993056
121.523 165.601 129.302 0.993872 -0.0485408 0.0993056
118.938 166.401 128.258 -0.950622 -0.167175 0.261478
119.014 166.588 128.656 -0.950622 -0.167175 0.261478
118.9 166.608 128.254 -0.950622 -0.167175 0.261478
119.055 165.501 128.855 -0.827376 0.170948 -0.535001
118.879 165.604 129.16 -0.827376 0.170948 -0.535001
119.089 166.339 129.07 -0.827376 0.170948 -0.535001
119.089 166.339 129.07 -0.919134 0.132601 -0.370957
119.305 165.781 128.336 -0.919134 0.132601 -0.370957
119.055 165.501 128.855 -0.919134 0.132601 -0.370957
118.938 166.401 128.258 -0.820573 -0.440356 0.364345
119.305 165.781 128.336 -0.820573 -0.440356 0.364345
119.014 166.588 128.656 -0.820573 -0.440356 0.364345
119.014 166.588 128.656 -0.943948 -0.328943 -0.0275433
119.305 165.781 128.336 -0.943948 -0.328943 -0.0275433
119.089 166.339 129.07 -0.943948 -0.328943 -0.0275433
121.843 166.711 128.457 0.901323 -0.190392 0.38906
121.607 165.642 128.481 0.901323 -0.190392 0.38906
121.845 166.223 128.215 0.901323 -0.190392 0.38906
121.843 166.711 128.457 0.879265 -0.184391 0.439196
121.542 166.594 129.011 0.879265 -0.184391 0.439196
121.607 165.642 128.481 0.879265 -0.184391 0.439196
121.542 166.594 129.011 0.994682 0.0111523 0.102384
121.523 165.601 129.302 0.994682 0.0111523 0.102384
121.607 165.642 128.481 0.994682 0.0111523 0.102384
121.845 166.223 128.215 0.773294 -0.280059 0.568844
121.99 166.629 128.217 0.773294 -0.280059 0.568844
121.843 166.711 128.457 0.773294 -0.280059 0.568844
118.9 166.608 128.254 -0.443832 0.879922 0.169561
119.014 166.588 128.656 -0.443832 0.879922 0.169561
119.194 166.747 128.303 -0.443832 0.879922 0.169561
119.014 166.588 128.656 -0.633678 0.607427 0.479045
119.089 166.339 129.07 -0.633678 0.607427 0.479045
119.729 167.09 128.965 -0.633678 0.607427 0.479045
119.014 166.588 128.656 -0.591381 0.804118 0.0605199
119.729 167.09 128.965 -0.591381 0.804118 0.0605199
119.194 166.747 128.303 -0.591381 0.804118 0.0605199
119.194 166.747 128.303 -0.289402 0.925049 -0.24603
119.729 167.09 128.965 -0.289402 0.925049 -0.24603
120.117 167.046 128.341 -0.289402 0.925049 -0.24603
120.865 167.558 128.346 -0.122742 0.889235 0.440676
120.762 167.206 129.028 -0.122742 0.889235 0.440676
121.205 167.455 128.65 -0.122742 0.889235 0.440676
120.865 167.558 128.346 -0.536859 0.78002 0.321483
120.117 167.046 128.341 -0.536859 0.78002 0.321483
120.762 167.206 129.028 -0.536859 0.78002 0.321483
120.117 167.046 128.341 -0.102624 0.985651 -0.134013
119.729 167.09 128.965 -0.102624 0.985651 -0.134013
120.762 167.206 129.028 -0.102624 0.985651 -0.134013
121.542 166.594 129.011 0.39593 0.482448 0.781335
121.205 167.455 128.65 0.39593 0.482448 0.781335
120.762 167.206 129.028 0.39593 0.482448 0.781335
121.843 166.711 128.457 0.719139 0.48866 0.494015
121.205 167.455 128.65 0.719139 0.48866 0.494015
121.542 166.594 129.011 0.719139 0.48866 0.494015
121.843 166.711 128.457 0.713456 0.479343 0.511088
121.478 167.469 128.256 0.713456 0.479343 0.511088
121.205 167.455 128.65 0.713456 0.479343 0.511088
121.843 166.711 128.457 0.881999 0.337657 -0.328732
121.701 166.803 128.171 0.881999 0.337657 -0.328732
121.478 167.469 128.256 0.881999 0.337657 -0.328732
121.99 166.629 128.217 0.512606 0.858341 0.0220251
121.701 166.803 128.171 0.512606 0.858341 0.0220251
121.843 166.711 128.457 0.512606 0.858341 0.0220251
120.865 167.558 128.346 -0.423179 0.600989 0.678035
121.205 167.455 128.65 -0.423179 0.600989 0.678035
121.085 167.819 128.252 -0.423179 0.600989 0.678035
121.478 167.469 128.256 0.596572 0.67307 0.437126
121.085 167.819 128.252 0.596572 0.67307 0.437126
121.205 167.455 128.65 0.596572 0.67307 0.437126
120.12 163.468 129.427 -0.798879 -0.58749 0.129027
120.214 163.472 130.028 -0.798879 -0.58749 0.129027
119.915 163.869 129.987 -0.798879 -0.58749 0.129027
119.723 163.854 129.182 -0.742353 -0.64272 0.189271
120.12 163.468 129.427 -0.742353 -0.64272 0.189271
119.915 163.869 129.987 -0.742353 -0.64272 0.189271
120.795 163.544 129.268 0.0856626 -0.989717 -0.114554
120.815 163.473 129.902 0.0856626 -0.989717 -0.114554
120.12 163.468 129.427 0.0856626 -0.989717 -0.114554
120.12 163.468 129.427 0.00278858 -0.999973 0.00674507
120.815 163.473 129.902 0.00278858 -0.999973 0.00674507
120.214 163.472 130.028 0.00278858 -0.999973 0.00674507
120.815 163.473 129.902 0.349845 -0.929635 -0.115706
120.795 163.544 129.268 0.349845 -0.929635 -0.115706
121.245 163.699 129.388 0.349845 -0.929635 -0.115706
121.071 163.868 129.997 0.737146 -0.566464 0.368423
120.815 163.473 129.902 0.737146 -0.566464 0.368423
121.245 163.699 129.388 0.737146 -0.566464 0.368423
119.723 163.854 129.182 -0.843866 -0.493525 0.210532
119.915 163.869 129.987 -0.843866 -0.493525 0.210532
119.226 164.76 129.311 -0.843866 -0.493525 0.210532
119.915 163.869 129.987 -0.845387 -0.34502 0.407777
119.632 164.594 130.015 -0.845387 -0.34502 0.407777
119.226 164.76 129.311 -0.845387 -0.34502 0.407777
121.245 163.699 129.388 0.928165 -0.191572 0.319076
121.481 164.541 129.208 0.928165 -0.191572 0.319076
121.071 163.868 129.997 0.928165 -0.191572 0.319076
121.071 163.868 129.997 0.900572 -0.041624 0.432709
121.481 164.541 129.208 0.900572 -0.041624 0.432709
121.12 164.741 129.979 0.900572 -0.041624 0.432709
119.226 164.76 129.311 -0.649618 -0.131759 0.748756
119.144 165.698 129.406 -0.649618 -0.131759 0.748756
118.879 165.604 129.16 -0.649618 -0.131759 0.748756
119.989 165.367 129.951 -0.75375 0.390989 0.528193
119.226 164.76 129.311 -0.75375 0.390989 0.528193
119.632 164.594 130.015 -0.75375 0.390989 0.528193
119.989 165.367 129.951 -0.573327 -0.131141 0.808764
119.144 165.698 129.406 -0.573327 -0.131141 0.808764
119.226 164.76 129.311 -0.573327 -0.131141 0.808764
119.989 165.367 129.951 -0.0339581 0.479635 0.876811
120.734 165.03 130.164 -0.0339581 0.479635 0.876811
120.934 165.51 129.91 -0.0339581 0.479635 0.876811
120.934 165.51 129.91 0.544907 0.20462 0.813147
120.734 165.03 130.164 0.544907 0.20462 0.813147
121.12 164.741 129.979 0.544907 0.20462 0.813147
120.934 165.51 129.91 0.682278 0.22722 0.694887
121.12 164.741 129.979 0.682278 0.22722 0.694887
121.523 165.601 129.302 0.682278 0.22722 0.694887
121.523 165.601 129.302 0.895478 -0.0744539 0.438835
121.12 164.741 129.979 0.895478 -0.0744539 0.438835
121.481 164.541 129.208 0.895478 -0.0744539 0.438835
118.879 165.604 129.16 -0.704903 0.280452 0.651504
119.144 165.698 129.406 -0.704903 0.280452 0.651504
119.089 166.339 129.07 -0.704903 0.280452 0.651504
119.089 166.339 129.07 -0.524196 0.359056 0.772203
119.144 165.698 129.406 -0.524196 0.359056 0.772203
119.913 166.515 129.548 -0.524196 0.359056 0.772203
119.913 166.515 129.548 -0.445197 0.270403 0.853629
119.144 165.698 129.406 -0.445197 0.270403 0.853629
119.989 165.367 129.951 -0.445197 0.270403 0.853629
120.934 165.51 129.91 -0.013154 0.35789 0.933671
120.892 166.356 129.585 -0.013154 0.35789 0.933671
119.989 165.367 129.951 -0.013154 0.35789 0.933671
120.892 166.356 129.585 0.0185131 0.332402 0.942956
119.913 166.515 129.548 0.0185131 0.332402 0.942956
119.989 165.367 129.951 0.0185131 0.332402 0.942956
121.523 165.601 129.302 0.601251 0.213989 0.769874
121.542 166.594 129.011 0.601251 0.213989 0.769874
120.892 166.356 129.585 0.601251 0.213989 0.769874
120.934 165.51 129.91 0.663251 0.297011 0.686937
121.523 165.601 129.302 0.663251 0.297011 0.686937
120.892 166.356 129.585 0.663251 0.297011 0.686937
119.089 166.339 129.07 -0.507289 0.52803 0.681059
119.913 166.515 129.548 -0.507289 0.52803 0.681059
119.729 167.09 128.965 -0.507289 0.52803 0.681059
120.762 167.206 129.028 -0.121188 0.687223 0.716267
119.729 167.09 128.965 -0.121188 0.687223 0.716267
119.913 166.515 129.548 -0.121188 0.687223 0.716267
120.892 166.356 129.585 0.0585501 0.55304 0.831095
120.762 167.206 129.028 0.0585501 0.55304 0.831095
119.913 166.515 129.548 0.0585501 0.55304 0.831095
121.542 166.594 129.011 0.438351 0.538209 0.719846
120.762 167.206 129.028 0.438351 0.538209 0.719846
120.892 166.356 129.585 0.438351 0.538209 0.719846
120.214 163.472 130.028 0.12194 -0.808954 0.575086
120.815 163.473 129.902 0.12194 -0.808954 0.575086
120.715 163.676 130.21 0.12194 -0.808954 0.575086
119.915 163.869 129.987 -0.293115 -0.122619 0.948182
120.214 163.472 130.028 -0.293115 -0.122619 0.948182
120.715 163.676 130.21 -0.293115 -0.122619 0.948182
120.815 163.473 129.902 0.626082 -0.541119 0.561437
121.071 163.868 129.997 0.626082 -0.541119 0.561437
120.715 163.676 130.21 0.626082 -0.541119 0.561437
119.915 163.869 129.987 -0.352039 -0.172054 0.920036
120.094 164.62 130.196 -0.352039 -0.172054 0.920036
119.632 164.594 130.015 -0.352039 -0.172054 0.920036
120.715 163.676 130.21 -0.289685 -0.104715 0.951377
120.756 164.374 130.299 -0.289685 -0.104715 0.951377
119.915 163.869 129.987 -0.289685 -0.104715 0.951377
120.756 164.374 130.299 -0.225992 -0.21074 0.95106
120.094 164.62 130.196 -0.225992 -0.21074 0.95106
119.915 163.869 129.987 -0.225992 -0.21074 0.95106
121.071 163.868 129.997 0.673305 -0.0222753 0.739029
121.12 164.741 129.979 0.673305 -0.0222753 0.739029
120.756 164.374 130.299 0.673305 -0.0222753 0.739029
120.715 163.676 130.21 0.560969 -0.138107 0.816235
121.071 163.868 129.997 0.560969 -0.138107 0.816235
120.756 164.374 130.299 0.560969 -0.138107 0.816235
119.632 164.594 130.015 -0.366842 0.242954 0.897998
120.094 164.62 130.196 -0.366842 0.242954 0.897998
119.989 165.367 129.951 -0.366842 0.242954 0.897998
120.734 165.03 130.164 -0.139335 0.290879 0.94656
119.989 165.367 129.951 -0.139335 0.290879 0.94656
120.094 164.62 130.196 -0.139335 0.290879 0.94656
120.756 164.374 130.299 -0.0780764 0.19757 0.977175
120.734 165.03 130.164 -0.0780764 0.19757 0.977175
120.094 164.62 130.196 -0.0780764 0.19757 0.977175
121.12 164.741 129.979 0.536256 0.186646 0.82316
120.734 165.03 130.164 0.536256 0.186646 0.82316
120.756 164.374 130.299 0.536256 0.186646 0.82316
3 0 1 2
3 3 4 5
3 6 7 8
3 9 10 11
3 12 13 14
3 15 16 17
3 18 19 20
3 21 22 23
3 24 25 26
3 27 28 29
3 30 31 32
3 33 34 35
3 36 37 38
3 39 40 41
3 42 43 44
3 45 46 47
3 48 49 50
3 51 52 53
3 54 55 56
3 57 58 59
3 60 61 62
3 63 64 65
3 66 67 68
3 69 70 71
3 72 73 74
3 75 76 77
3 78 79 80
3 81 82 83
3 84 85 86
3 87 88 89
3 90 91 92
3 93 94 95
3 96 97 98
3 99 100 101
3 102 103 104
3 105 106 107
3 108 109 110
3 111 112 113
3 114 115 116
3 117 118 119
3 120 121 122
3 123 124 125
3 126 127 128
3 129 130 131
3 132 133 134
3 135 136 137
3 138 139 140
3 141 142 143
3 144 145 146
3 147 148 149
3 150 151 152
3 153 154 155
3 156 157 158
3 159 160 161
3 162 163 164
3 165 166 167
3 168 169 170
3 171 172 173
3 174 175 176
3 177 178 179
3 180 181 182
3 183 184 185
3 186 187 188
3 189 190 191
3 192 193 194
3 195 196 197
3 198 199 200
3 201 202 203
3 204 205 206
3 207 208 209
3 210 211 212
3 213 214 215
3 216 217 218
3 219 220 221
3 222 223 224
3 225 226 227
3 228 229 230
3 231 232 233
3 234 235 236
3 237 238 239
3 240 241 242
3 243 244 245
3 246 247 248
3 249 250 251
3 252 253 254
3 255 256 257
3 258 259 260
3 261 262 263
3 264 265 266
3 267 268 269
3 270 271 272
3 273 274 275
3 276 277 278
3 279 280 281
3 282 283 284
3 285 286 287
3 288 289 290
3 291 292 293
3 294 295 296
3 297 298 299
3 300 301 302
3 303 304 305
3 306 307 308
3 309 310 311
