ply
format ascii 1.0
element vertex 450
property float x
property float y
property float z
property float nx
property float ny
property float nz
element face 150
property list uint uint vertex_indices
end_header
49.5758 153.143 148.211 -0.533559 -0.600025 -0.596058
49.5165 152.382 149.029 -0.533559 -0.600025 -0.596058
48.7272 153.174 148.939 -0.533559 -0.600025 -0.596058
49.5758 153.143 148.211 0.0302296 -0.687006 -0.726023
50.6584 153.174 148.226 0.0302296 -0.687006 -0.726023
50.5523 152.411 148.943 0.0302296 -0.687006 -0.726023
49.5165 152.382 149.029 -0.036055 -0.730904 -0.681528
49.5758 153.143 148.211 -0.036055 -0.730904 -0.681528
50.5523 152.411 148.943 -0.036055 -0.730904 -0.681528
50.5523 152.411 148.943 0.58252 -0.598419 -0.550059
50.6584 153.174 148.226 0.58252 -0.598419 -0.550059
51.3992 153.147 149.04 0.58252 -0.598419 -0.550059
49.5157 154.168 148.153 -0.650783 -0.0803497 -0.755
49.5758 153.143 148.211 -0.650783 -0.0803497 -0.755
48.7272 153.174 148.939 -0.650783 -0.0803497 -0.755
48.6324 154.194 148.954 -0.671477 -0.0514622 -0.739236
49.5157 154.168 148.153 -0.671477 -0.0514622 -0.739236
48.7272 153.174 148.939 -0.671477 -0.0514622 -0.739236
50.6584 153.174 148.226 0.0173374 -0.0982834 -0.995007
49.5758 153.143 148.211 0.0173374 -0.0982834 -0.995007
50.6005 154.168 148.127 0.0173374 -0.0982834 -0.995007
50.6005 154.168 148.127 -0.0240708 -0.05713 -0.998077
49.5758 153.143 148.211 -0.0240708 -0.05713 -0.998077
49.5157 154.168 148.153 -0.0240708 -0.05713 -0.998077
51.6806 153.42 148.934 0.507691 -0.711583 -0.485695
51.3992 153.147 149.04 0.507691 -0.711583 -0.485695
50.6584 153.174 148.226 0.507691 -0.711583 -0.485695
51.6806 153.42 148.934 0.554995 -0.574045 -0.60204
50.6584 153.174 148.226 0.554995 -0.574045 -0.60204
51.6827 154.176 148.215 0.554995 -0.574045 -0.60204
51.6827 154.176 148.215 0.0810283 -0.0942985 -0.992241
50.6584 153.174 148.226 0.0810283 -0.0942985 -0.992241
50.6005 154.168 148.127 0.0810283 -0.0942985 -0.992241
51.6806 153.42 148.934 0.615719 -0.543893 -0.57015
51.6827 154.176 148.215 0.615719 -0.543893 -0.57015
52.4606 154.211 149.021 0.615719 -0.543893 -0.57015
49.5128 155.208 148.152 -0.671555 -0.00283728 -0.74095
49.5157 154.168 148.153 -0.671555 -0.00283728 -0.74095
48.6324 154.194 148.954 -0.671555 -0.00283728 -0.74095
48.6414 155.246 148.916 -0.659504 -0.0215599 -0.751392
49.5128 155.208 148.152 -0.659504 -0.0215599 -0.751392
48.6324 154.194 148.954 -0.659504 -0.0215599 -0.751392
50.6005 154.168 148.127 -0.0241132 -0.00914331 -0.999667
49.5157 154.168 148.153 -0.0241132 -0.00914331 -0.999667
50.5594 155.17 148.119 -0.0241132 -0.00914331 -0.999667
50.5594 155.17 148.119 -0.0315274 -0.00142038 -0.999502
49.5157 154.168 148.153 -0.0315274 -0.00142038 -0.999502
49.5128 155.208 148.152 -0.0315274 -0.00142038 -0.999502
51.6827 154.176 148.215 0.0807262 -0.0110463 -0.996675
50.6005 154.168 148.127 0.0807262 -0.0110463 -0.996675
51.6293 155.229 148.199 0.0807262 -0.0110463 -0.996675
51.6293 155.229 148.199 0.0746029 -0.00507449 -0.9972
50.6005 154.168 148.127 0.0746029 -0.00507449 -0.9972
50.5594 155.17 148.119 0.0746029 -0.00507449 -0.9972
52.4872 155.201 148.975 0.71998 -0.0518367 -0.692056
52.4606 154.211 149.021 0.71998 -0.0518367 -0.692056
51.6827 154.176 148.215 0.71998 -0.0518367 -0.692056
51.6293 155.229 148.199 0.671156 0.0227966 -0.740966
52.4872 155.201 148.975 0.671156 0.0227966 -0.740966
51.6827 154.176 148.215 0.671156 0.0227966 -0.740966
49.5066 156.243 148.215 -0.657541 0.0416237 -0.752268
49.5128 155.208 148.152 -0.657541 0.0416237 -0.752268
48.6414 155.246 148.916 -0.657541 0.0416237 -0.752268
48.4425 156.268 149.181 -0.67036 0.0617589 -0.739461
49.5066 156.243 148.215 -0.67036 0.0617589 -0.739461
48.6414 155.246 148.916 -0.67036 0.0617589 -0.739461
50.5594 155.17 148.119 -0.0288382 0.070647 -0.997084
49.5128 155.208 148.152 -0.0288382 0.070647 -0.997084
50.6115 156.222 148.192 -0.0288382 0.070647 -0.997084
50.6115 156.222 148.192 -0.0192764 0.0603162 -0.997993
49.5128 155.208 148.152 -0.0192764 0.0603162 -0.997993
49.5066 156.243 148.215 -0.0192764 0.0603162 -0.997993
51.4479 156.274 148.949 0.558131 0.54564 -0.625114
51.7492 155.998 148.977 0.558131 0.54564 -0.625114
51.6293 155.229 148.199 0.558131 0.54564 -0.625114
51.4479 156.274 148.949 0.541086 0.550387 -0.635846
51.6293 155.229 148.199 0.541086 0.550387 -0.635846
50.6115 156.222 148.192 0.541086 0.550387 -0.635846
50.6115 156.222 148.192 0.0706009 0.0656025 -0.995345
51.6293 155.229 148.199 0.0706009 0.0656025 -0.995345
50.5594 155.17 148.119 0.0706009 0.0656025 -0.995345
52.4872 155.201 148.975 0.576286 0.535214 -0.617608
51.6293 155.229 148.199 0.576286 0.535214 -0.617608
51.7492 155.998 148.977 0.576286 0.535214 -0.617608
49.5066 156.243 148.215 -0.553316 0.552561 -0.623312
48.4425 156.268 149.181 -0.553316 0.552561 -0.623312
49.5086 157.042 148.921 -0.553316 0.552561 -0.623312
49.5086 157.042 148.921 -0.500741 0.624346 -0.599542
49.806 157.337 148.98 -0.500741 0.624346 -0.599542
50.5326 157.243 148.276 -0.500741 0.624346 -0.599542
49.5086 157.042 148.921 -0.515917 0.568188 -0.641086
50.5326 157.243 148.276 -0.515917 0.568188 -0.641086
49.5066 156.243 148.215 -0.515917 0.568188 -0.641086
49.5066 156.243 148.215 -0.0188724 0.0800187 -0.996615
50.5326 157.243 148.276 -0.0188724 0.0800187 -0.996615
50.6115 156.222 148.192 -0.0188724 0.0800187 -0.996615
51.3305 157.241 148.941 0.66681 0.0744458 -0.7415
51.4479 156.274 148.949 0.66681 0.0744458 -0.7415
50.6115 156.222 148.192 0.66681 0.0744458 -0.7415
50.5326 157.243 148.276 0.636627 0.111564 -0.763059
51.3305 157.241 148.941 0.636627 0.111564 -0.763059
50.6115 156.222 148.192 0.636627 0.111564 -0.763059
50.5326 157.243 148.276 -0.486964 0.645697 -0.588168
49.806 157.337 148.98 -0.486964 0.645697 -0.588168
50.5892 157.973 149.03 -0.486964 0.645697 -0.588168
51.3305 157.241 148.941 0.514791 0.59649 -0.615784
50.5326 157.243 148.276 0.514791 0.59649 -0.615784
50.5892 157.973 149.03 0.514791 0.59649 -0.615784
49.5165 152.382 149.029 -0.699321 -0.714724 -0.0109542
49.5116 152.372 149.991 -0.699321 -0.714724 -0.0109542
48.7001 153.166 149.994 -0.699321 -0.714724 -0.0109542
48.7272 153.174 148.939 -0.70663 -0.707201 -0.0232511
49.5165 152.382 149.029 -0.70663 -0.707201 -0.0232511
48.7001 153.166 149.994 -0.70663 -0.707201 -0.0232511
50.5523 152.411 148.943 0.0305771 -0.998962 0.0337638
50.5618 152.448 150.032 0.0305771 -0.998962 0.0337638
49.5165 152.382 149.029 0.0305771 -0.998962 0.0337638
49.5165 152.382 149.029 0.0724729 -0.99732 -0.0100196
50.5618 152.448 150.032 0.0724729 -0.99732 -0.0100196
49.5116 152.372 149.991 0.0724729 -0.99732 -0.0100196
50.5618 152.448 150.032 0.654223 -0.756037 0.0200347
50.5523 152.411 148.943 0.654223 -0.756037 0.0200347
51.3992 153.147 149.04 0.654223 -0.756037 0.0200347
51.4297 153.183 150.002 0.646322 -0.763018 0.00844554
50.5618 152.448 150.032 0.646322 -0.763018 0.00844554
51.3992 153.147 149.04 0.646322 -0.763018 0.00844554
48.3883 154.14 149.258 -0.613782 -0.605306 -0.506829
48.423 153.445 150.045 -0.613782 -0.605306 -0.506829
47.6948 154.214 150.008 -0.613782 -0.605306 -0.506829
48.3883 154.14 149.258 -0.665338 -0.57419 -0.477107
48.7001 153.166 149.994 -0.665338 -0.57419 -0.477107
48.423 153.445 150.045 -0.665338 -0.57419 -0.477107
48.3883 154.14 149.258 -0.563561 -0.605643 -0.561779
48.6324 154.194 148.954 -0.563561 -0.605643 -0.561779
48.7001 153.166 149.994 -0.563561 -0.605643 -0.561779
48.6324 154.194 148.954 -0.995407 -0.092078 -0.0262035
48.7272 153.174 148.939 -0.995407 -0.092078 -0.0262035
48.7001 153.166 149.994 -0.995407 -0.092078 -0.0262035
51.713 154.109 149.709 0.703494 -0.545779 0.455216
51.3992 153.147 149.04 0.703494 -0.545779 0.455216
51.6806 153.42 148.934 0.703494 -0.545779 0.455216
51.713 154.109 149.709 0.705122 -0.545113 0.453493
51.5167 154.117 150.023 0.705122 -0.545113 0.453493
51.3992 153.147 149.04 0.705122 -0.545113 0.453493
51.5167 154.117 150.023 0.995357 -0.0920743 -0.0280476
51.4297 153.183 150.002 0.995357 -0.0920743 -0.0280476
51.3992 153.147 149.04 0.995357 -0.0920743 -0.0280476
51.6806 153.42 148.934 0.573357 -0.624384 0.530478
52.4606 154.211 149.021 0.573357 -0.624384 0.530478
51.713 154.109 149.709 0.573357 -0.624384 0.530478
48.3653 155.148 149.207 -0.736059 -0.0505765 -0.675025
48.3883 154.14 149.258 -0.736059 -0.0505765 -0.675025
47.6948 154.214 150.008 -0.736059 -0.0505765 -0.675025
47.6805 155.279 150.069 -0.780834 0.0251731 -0.624231
48.3653 155.148 149.207 -0.780834 0.0251731 -0.624231
47.6948 154.214 150.008 -0.780834 0.0251731 -0.624231
48.6324 154.194 148.954 -0.722741 -0.0188235 -0.690863
48.3653 155.148 149.207 -0.722741 -0.0188235 -0.690863
48.6414 155.246 148.916 -0.722741 -0.0188235 -0.690863
48.3883 154.14 149.258 -0.774354 -0.0492338 -0.630834
48.3653 155.148 149.207 -0.774354 -0.0492338 -0.630834
48.6324 154.194 148.954 -0.774354 -0.0492338 -0.630834
51.713 154.109 149.709 0.698686 -0.556374 0.449762
51.7531 154.388 149.992 0.698686 -0.556374 0.449762
51.5167 154.117 150.023 0.698686 -0.556374 0.449762
51.7531 154.388 149.992 0.574475 -0.622017 0.532047
51.713 154.109 149.709 0.574475 -0.622017 0.532047
52.4606 154.211 149.021 0.574475 -0.622017 0.532047
51.7531 154.388 149.992 0.59599 -0.59221 0.542295
52.4606 154.211 149.021 0.59599 -0.59221 0.542295
52.5126 155.16 150.0 0.59599 -0.59221 0.542295
52.5126 155.16 150.0 0.999269 -0.0281439 -0.0258641
52.4606 154.211 149.021 0.999269 -0.0281439 -0.0258641
52.4872 155.201 148.975 0.999269 -0.0281439 -0.0258641
48.4425 156.268 149.181 -0.779429 0.0392903 -0.625258
48.3653 155.148 149.207 -0.779429 0.0392903 -0.625258
47.6805 155.279 150.069 -0.779429 0.0392903 -0.625258
47.6695 157.191 150.0 -0.742621 -0.0284394 -0.669108
48.4425 156.268 149.181 -0.742621 -0.0284394 -0.669108
47.6805 155.279 150.069 -0.742621 -0.0284394 -0.669108
48.3653 155.148 149.207 -0.731399 0.0346915 -0.681067
48.4425 156.268 149.181 -0.731399 0.0346915 -0.681067
48.6414 155.246 148.916 -0.731399 0.0346915 -0.681067
51.7492 155.998 148.977 0.593377 0.592212 -0.54515
51.4479 156.274 148.949 0.593377 0.592212 -0.54515
51.7109 156.307 149.271 0.593377 0.592212 -0.54515
51.7492 155.998 148.977 0.598528 0.589886 -0.542032
51.7109 156.307 149.271 0.598528 0.589886 -0.542032
52.474 156.184 149.981 0.598528 0.589886 -0.542032
51.7492 155.998 148.977 0.612855 0.568843 -0.548477
52.474 156.184 149.981 0.612855 0.568843 -0.548477
52.4872 155.201 148.975 0.612855 0.568843 -0.548477
52.4872 155.201 148.975 0.999036 0.0372107 -0.0232724
52.474 156.184 149.981 0.999036 0.0372107 -0.0232724
52.5126 155.16 150.0 0.999036 0.0372107 -0.0232724
48.4139 157.277 149.255 -0.709049 0.0310035 -0.704477
48.4425 156.268 149.181 -0.709049 0.0310035 -0.704477
47.6695 157.191 150.0 -0.709049 0.0310035 -0.704477
48.4425 156.268 149.181 -0.553298 0.552518 -0.623366
49.4111 157.3 149.237 -0.553298 0.552518 -0.623366
49.5086 157.042 148.921 -0.553298 0.552518 -0.623366
48.4425 156.268 149.181 -0.0197335 0.071822 -0.997222
48.4139 157.277 149.255 -0.0197335 0.071822 -0.997222
49.4111 157.3 149.237 -0.0197335 0.071822 -0.997222
49.5086 157.042 148.921 -0.472909 0.604495 -0.641049
49.4111 157.3 149.237 -0.472909 0.604495 -0.641049
49.806 157.337 148.98 -0.472909 0.604495 -0.641049
51.7109 156.307 149.271 0.665467 0.555802 -0.498235
51.3821 157.288 149.927 0.665467 0.555802 -0.498235
51.7072 157.005 150.044 0.665467 0.555802 -0.498235
51.7109 156.307 149.271 0.605482 0.572309 -0.55304
51.4479 156.274 148.949 0.605482 0.572309 -0.55304
51.3821 157.288 149.927 0.605482 0.572309 -0.55304
51.4479 156.274 148.949 0.991122 0.119819 -0.0576171
51.3305 157.241 148.941 0.991122 0.119819 -0.0576171
51.3821 157.288 149.927 0.991122 0.119819 -0.0576171
52.474 156.184 149.981 0.595001 0.598173 -0.536808
51.7109 156.307 149.271 0.595001 0.598173 -0.536808
51.7072 157.005 150.044 0.595001 0.598173 -0.536808
48.4139 157.277 149.255 -0.609763 0.577969 -0.542347
47.6695 157.191 150.0 -0.609763 0.577969 -0.542347
48.4513 157.989 149.971 -0.609763 0.577969 -0.542347
49.4111 157.3 149.237 -0.028954 0.709894 -0.703713
48.4139 157.277 149.255 -0.028954 0.709894 -0.703713
48.4513 157.989 149.971 -0.028954 0.709894 -0.703713
49.5318 158.011 149.994 1.5103e-06 0.72935 -0.684141
49.4111 157.3 149.237 1.5103e-06 0.72935 -0.684141
48.4513 157.989 149.971 1.5103e-06 0.72935 -0.684141
49.806 157.337 148.98 -0.438855 0.689179 -0.576576
49.4111 157.3 149.237 -0.438855 0.689179 -0.576576
49.5318 158.011 149.994 -0.438855 0.689179 -0.576576
49.806 157.337 148.98 -0.496028 0.65539 -0.56958
49.5318 158.011 149.994 -0.496028 0.65539 -0.56958
50.5892 157.973 149.03 -0.496028 0.65539 -0.56958
50.5892 157.973 149.03 -0.0246718 0.997507 -0.0661173
49.5318 158.011 149.994 -0.0246718 0.997507 -0.0661173
50.588 158.037 149.998 -0.0246718 0.997507 -0.0661173
51.3821 157.288 149.927 0.696405 0.714182 -0.0704472
51.3305 157.241 148.941 0.696405 0.714182 -0.0704472
50.5892 157.973 149.03 0.696405 0.714182 -0.0704472
50.588 158.037 149.998 0.683023 0.728856 -0.0474075
51.3821 157.288 149.927 0.683023 0.728856 -0.0474075
50.5892 157.973 149.03 0.683023 0.728856 -0.0474075
49.5116 152.372 149.991 -0.578862 -0.594132 0.558503
49.5124 153.066 150.73 -0.578862 -0.594132 0.558503
48.7001 153.166 149.994 -0.578862 -0.594132 0.558503
49.5124 153.066 150.73 0.0257454 -0.728769 0.684276
49.5116 152.372 149.991 0.0257454 -0.728769 0.684276
50.5618 152.448 150.032 0.0257454 -0.728769 0.684276
48.423 153.445 150.045 -0.596344 -0.536673 0.596955
49.3768 154.18 151.658 -0.596344 -0.536673 0.596955
47.6948 154.214 150.008 -0.596344 -0.536673 0.596955
48.7001 153.166 149.994 -0.51762 -0.620836 0.588755
49.3768 154.18 151.658 -0.51762 -0.620836 0.588755
48.423 153.445 150.045 -0.51762 -0.620836 0.588755
48.7001 153.166 149.994 -0.576145 -0.572658 0.583198
49.5459 153.351 151.011 -0.576145 -0.572658 0.583198
49.3768 154.18 151.658 -0.576145 -0.572658 0.583198
48.7001 153.166 149.994 -0.607148 -0.521339 0.599648
49.5124 153.066 150.73 -0.607148 -0.521339 0.599648
49.5459 153.351 151.011 -0.607148 -0.521339 0.599648
50.5618 152.448 150.032 0.0547201 -0.705155 0.706938
49.5459 153.351 151.011 0.0547201 -0.705155 0.706938
49.5124 153.066 150.73 0.0547201 -0.705155 0.706938
50.5618 152.448 150.032 0.539009 -0.612726 0.577958
51.4297 153.183 150.002 0.539009 -0.612726 0.577958
51.4165 154.073 150.957 0.539009 -0.612726 0.577958
51.4165 154.073 150.957 0.990291 -0.0946611 0.101802
51.4297 153.183 150.002 0.990291 -0.0946611 0.101802
51.5167 154.117 150.023 0.990291 -0.0946611 0.101802
47.6948 154.214 150.008 -0.699885 -0.0501391 0.712493
49.3768 154.18 151.658 -0.699885 -0.0501391 0.712493
47.6805 155.279 150.069 -0.699885 -0.0501391 0.712493
47.6805 155.279 150.069 -0.707847 -0.0774692 0.702104
49.3768 154.18 151.658 -0.707847 -0.0774692 0.702104
48.6753 155.21 151.065 -0.707847 -0.0774692 0.702104
51.5167 154.117 150.023 0.807151 -0.58737 0.0591869
51.6776 154.439 151.029 0.807151 -0.58737 0.0591869
51.4165 154.073 150.957 0.807151 -0.58737 0.0591869
51.7531 154.388 149.992 0.756238 -0.648494 0.0869452
51.6776 154.439 151.029 0.756238 -0.648494 0.0869452
51.5167 154.117 150.023 0.756238 -0.648494 0.0869452
51.6776 154.439 151.029 0.709753 -0.699176 0.0860437
51.7531 154.388 149.992 0.709753 -0.699176 0.0860437
52.5126 155.16 150.0 0.709753 -0.699176 0.0860437
52.4691 155.279 151.024 0.723651 -0.681373 0.109821
51.6776 154.439 151.029 0.723651 -0.681373 0.109821
52.5126 155.16 150.0 0.723651 -0.681373 0.109821
47.6805 155.279 150.069 -0.709462 0.0214335 0.704418
48.4259 156.336 150.788 -0.709462 0.0214335 0.704418
47.6695 157.191 150.0 -0.709462 0.0214335 0.704418
48.6808 156.183 151.052 -0.706789 0.0129809 0.707305
47.6805 155.279 150.069 -0.706789 0.0129809 0.707305
48.6753 155.21 151.065 -0.706789 0.0129809 0.707305
48.4259 156.336 150.788 -0.712294 0.0254691 0.701419
47.6805 155.279 150.069 -0.712294 0.0254691 0.701419
48.6808 156.183 151.052 -0.712294 0.0254691 0.701419
52.5126 155.16 150.0 0.998539 0.0383845 0.0380218
52.474 156.184 149.981 0.998539 0.0383845 0.0380218
52.4691 155.279 151.024 0.998539 0.0383845 0.0380218
52.4691 155.279 151.024 0.994672 0.0754882 0.0702141
52.474 156.184 149.981 0.994672 0.0754882 0.0702141
52.3935 156.304 150.992 0.994672 0.0754882 0.0702141
48.4259 156.336 150.788 -0.685032 0.0627309 0.725807
48.4529 157.309 150.729 -0.685032 0.0627309 0.725807
47.6695 157.191 150.0 -0.685032 0.0627309 0.725807
49.4407 156.994 151.053 -0.491505 0.459729 0.739643
48.4259 156.336 150.788 -0.491505 0.459729 0.739643
48.6808 156.183 151.052 -0.491505 0.459729 0.739643
49.4407 156.994 151.053 -0.537621 0.5839 0.608297
49.4767 157.298 150.793 -0.537621 0.5839 0.608297
48.4259 156.336 150.788 -0.537621 0.5839 0.608297
49.4767 157.298 150.793 -0.0615891 0.0616733 0.996194
48.4529 157.309 150.729 -0.0615891 0.0616733 0.996194
48.4259 156.336 150.788 -0.0615891 0.0616733 0.996194
49.4407 156.994 151.053 -0.512612 0.592318 0.621601
49.8006 157.269 151.087 -0.512612 0.592318 0.621601
49.4767 157.298 150.793 -0.512612 0.592318 0.621601
51.3821 157.288 149.927 0.654757 0.755743 0.012034
50.6365 157.917 150.982 0.654757 0.755743 0.012034
51.7072 157.005 150.044 0.654757 0.755743 0.012034
52.3935 156.304 150.992 0.729365 0.683739 -0.0229859
52.474 156.184 149.981 0.729365 0.683739 -0.0229859
51.7072 157.005 150.044 0.729365 0.683739 -0.0229859
50.6365 157.917 150.982 0.675084 0.735707 0.0547421
52.3935 156.304 150.992 0.675084 0.735707 0.0547421
51.7072 157.005 150.044 0.675084 0.735707 0.0547421
47.6695 157.191 150.0 -0.591755 0.599113 0.539342
48.4529 157.309 150.729 -0.591755 0.599113 0.539342
48.4513 157.989 149.971 -0.591755 0.599113 0.539342
49.5318 158.011 149.994 -0.0288845 0.743676 0.667916
48.4513 157.989 149.971 -0.0288845 0.743676 0.667916
48.4529 157.309 150.729 -0.0288845 0.743676 0.667916
49.4767 157.298 150.793 -0.0336083 0.746912 0.664073
49.5318 158.011 149.994 -0.0336083 0.746912 0.664073
48.4529 157.309 150.729 -0.0336083 0.746912 0.664073
49.4767 157.298 150.793 -0.457534 0.682703 0.569718
49.8006 157.269 151.087 -0.457534 0.682703 0.569718
50.6365 157.917 150.982 -0.457534 0.682703 0.569718
49.4767 157.298 150.793 -0.456505 0.679287 0.574606
50.6365 157.917 150.982 -0.456505 0.679287 0.574606
49.5318 158.011 149.994 -0.456505 0.679287 0.574606
49.5318 158.011 149.994 -0.0252758 0.992215 0.121947
50.6365 157.917 150.982 -0.0252758 0.992215 0.121947
50.588 158.037 149.998 -0.0252758 0.992215 0.121947
50.6365 157.917 150.982 0.687653 0.724015 0.0541791
51.3821 157.288 149.927 0.687653 0.724015 0.0541791
50.588 158.037 149.998 0.687653 0.724015 0.0541791
49.5459 153.351 151.011 0.0439136 -0.711362 0.701452
50.5618 152.448 150.032 0.0439136 -0.711362 0.701452
50.551 154.166 151.775 0.0439136 -0.711362 0.701452
49.3768 154.18 151.658 -0.0845904 -0.623719 0.777058
49.5459 153.351 151.011 -0.0845904 -0.623719 0.777058
50.551 154.166 151.775 -0.0845904 -0.623719 0.777058
50.5618 152.448 150.032 0.50707 -0.61226 0.606644
51.4165 154.073 150.957 0.50707 -0.61226 0.606644
50.551 154.166 151.775 0.50707 -0.61226 0.606644
49.3768 154.18 151.658 -0.656775 -0.0127473 0.753979
49.5424 155.248 151.821 -0.656775 -0.0127473 0.753979
48.6753 155.21 151.065 -0.656775 -0.0127473 0.753979
49.88 155.171 152.09 -0.393607 -0.504226 0.768654
50.551 154.166 151.775 -0.393607 -0.504226 0.768654
50.6647 154.509 152.058 -0.393607 -0.504226 0.768654
49.88 155.171 152.09 -0.58727 -0.572018 0.572634
49.5424 155.248 151.821 -0.58727 -0.572018 0.572634
50.551 154.166 151.775 -0.58727 -0.572018 0.572634
49.5424 155.248 151.821 -0.09943 -0.134508 0.985911
49.3768 154.18 151.658 -0.09943 -0.134508 0.985911
50.551 154.166 151.775 -0.09943 -0.134508 0.985911
51.648 155.226 151.812 0.539897 -0.5112 0.66872
51.3205 155.245 152.091 0.539897 -0.5112 0.66872
50.6647 154.509 152.058 0.539897 -0.5112 0.66872
51.6776 154.439 151.029 0.56532 -0.57122 0.595081
51.648 155.226 151.812 0.56532 -0.57122 0.595081
50.6647 154.509 152.058 0.56532 -0.57122 0.595081
51.6776 154.439 151.029 0.526405 -0.638582 0.561348
50.6647 154.509 152.058 0.526405 -0.638582 0.561348
50.551 154.166 151.775 0.526405 -0.638582 0.561348
51.6776 154.439 151.029 0.555198 -0.522229 0.647327
50.551 154.166 151.775 0.555198 -0.522229 0.647327
51.4165 154.073 150.957 0.555198 -0.522229 0.647327
51.6776 154.439 151.029 0.59386 -0.556345 0.581215
52.4691 155.279 151.024 0.59386 -0.556345 0.581215
51.648 155.226 151.812 0.59386 -0.556345 0.581215
49.5424 155.248 151.821 -0.644916 0.0331226 0.763535
49.5496 156.302 151.781 -0.644916 0.0331226 0.763535
48.6808 156.183 151.052 -0.644916 0.0331226 0.763535
48.6753 155.21 151.065 -0.657415 0.0132931 0.753411
49.5424 155.248 151.821 -0.657415 0.0132931 0.753411
48.6808 156.183 151.052 -0.657415 0.0132931 0.753411
50.5612 155.89 152.092 -0.487984 0.460381 0.741567
49.5424 155.248 151.821 -0.487984 0.460381 0.741567
49.88 155.171 152.09 -0.487984 0.460381 0.741567
50.5612 155.89 152.092 -0.533723 0.59039 0.605458
50.6192 156.189 151.852 -0.533723 0.59039 0.605458
49.5424 155.248 151.821 -0.533723 0.59039 0.605458
50.6192 156.189 151.852 -0.0620462 0.0380005 0.99735
49.5496 156.302 151.781 -0.0620462 0.0380005 0.99735
49.5424 155.248 151.821 -0.0620462 0.0380005 0.99735
51.3205 155.245 152.091 0.435318 0.51143 0.740904
50.6192 156.189 151.852 0.435318 0.51143 0.740904
50.5612 155.89 152.092 0.435318 0.51143 0.740904
51.3205 155.245 152.091 0.553085 0.566047 0.6113
51.648 155.226 151.812 0.553085 0.566047 0.6113
50.6192 156.189 151.852 0.553085 0.566047 0.6113
51.648 155.226 151.812 0.0935066 0.0592564 0.993854
51.6468 156.271 151.75 0.0935066 0.0592564 0.993854
50.6192 156.189 151.852 0.0935066 0.0592564 0.993854
52.4691 155.279 151.024 0.708892 0.0739405 0.701431
52.3935 156.304 150.992 0.708892 0.0739405 0.701431
51.6468 156.271 151.75 0.708892 0.0739405 0.701431
51.648 155.226 151.812 0.690592 0.043786 0.721917
52.4691 155.279 151.024 0.690592 0.043786 0.721917
51.6468 156.271 151.75 0.690592 0.043786 0.721917
48.6808 156.183 151.052 -0.581592 0.544374 0.60449
49.5496 156.302 151.781 -0.581592 0.544374 0.60449
49.4407 156.994 151.053 -0.581592 0.544374 0.60449
49.8006 157.269 151.087 -0.508042 0.585045 0.632152
49.4407 156.994 151.053 -0.508042 0.585045 0.632152
49.5496 156.302 151.781 -0.508042 0.585045 0.632152
49.8006 157.269 151.087 -0.508192 0.585017 0.632058
49.5496 156.302 151.781 -0.508192 0.585017 0.632058
50.5715 157.203 151.769 -0.508192 0.585017 0.632058
50.5715 157.203 151.769 -0.0575833 0.0789104 0.995217
49.5496 156.302 151.781 -0.0575833 0.0789104 0.995217
50.6192 156.189 151.852 -0.0575833 0.0789104 0.995217
50.6365 157.917 150.982 0.533313 0.603784 0.592472
50.5715 157.203 151.769 0.533313 0.603784 0.592472
51.6468 156.271 151.75 0.533313 0.603784 0.592472
51.6468 156.271 151.75 0.0912219 0.0856521 0.99214
50.5715 157.203 151.769 0.0912219 0.0856521 0.99214
50.6192 156.189 151.852 0.0912219 0.0856521 0.99214
52.3935 156.304 150.992 0.553308 0.606183 0.571307
50.6365 157.917 150.982 0.553308 0.606183 0.571307
51.6468 156.271 151.75 0.553308 0.606183 0.571307
49.8006 157.269 151.087 -0.452966 0.678256 0.578611
50.5715 157.203 151.769 -0.452966 0.678256 0.578611
50.6365 157.917 150.982 -0.452966 0.678256 0.578611
50.6647 154.509 152.058 -0.500377 -0.622533 0.601727
50.6007 155.208 152.728 -0.500377 -0.622533 0.601727
49.88 155.171 152.09 -0.500377 -0.622533 0.601727
50.6647 154.509 152.058 0.573551 -0.538814 0.617023
51.3205 155.245 152.091 0.573551 -0.538814 0.617023
50.6007 155.208 152.728 0.573551 -0.538814 0.617023
49.88 155.171 152.09 -0.572619 0.540865 0.616094
50.6007 155.208 152.728 -0.572619 0.540865 0.616094
50.5612 155.89 152.092 -0.572619 0.540865 0.616094
51.3205 155.245 152.091 0.51157 0.601355 0.613733
50.5612 155.89 152.092 0.51157 0.601355 0.613733
50.6007 155.208 152.728 0.51157 0.601355 0.613733
3 0 1 2
3 3 4 5
3 6 7 8
3 9 10 11
3 12 13 14
3 15 16 17
3 18 19 20
3 21 22 23
3 24 25 26
3 27 28 29
3 30 31 32
3 33 34 35
3 36 37 38
3 39 40 41
3 42 43 44
3 45 46 47
3 48 49 50
3 51 52 53
3 54 55 56
3 57 58 59
3 60 61 62
3 63 64 65
3 66 67 68
3 69 70 71
3 72 73 74
3 75 76 77
3 78 79 80
3 81 82 83
3 84 85 86
3 87 88 89
3 90 91 92
3 93 94 95
3 96 97 98
3 99 100 101
3 102 103 104
3 105 106 107
3 108 109 110
3 111 112 113
3 114 115 116
3 117 118 119
3 120 121 122
3 123 124 125
3 126 127 128
3 129 130 131
3 132 133 134
3 135 136 137
3 138 139 140
3 141 142 143
3 144 145 146
3 147 148 149
3 150 151 152
3 153 154 155
3 156 157 158
3 159 160 161
3 162 163 164
3 165 166 167
3 168 169 170
3 171 172 173
3 174 175 176
3 177 178 179
3 180 181 182
3 183 184 185
3 186 187 188
3 189 190 191
3 192 193 194
3 195 196 197
3 198 199 200
3 201 202 203
3 204 205 206
3 207 208 209
3 210 211 212
3 213 214 215
3 216 217 218
3 219 220 221
3 222 223 224
3 225 226 227
3 228 229 230
3 231 232 233
3 234 235 236
3 237 238 239
3 240 241 242
3 243 244 245
3 246 247 248
3 249 250 251
3 252 253 254
3 255 256 257
3 258 259 260
3 261 262 263
3 264 265 266
3 267 268 269
3 270 271 272
3 273 274 275
3 276 277 278
3 279 280 281
3 282 283 284
3 285 286 287
3 288 289 290
3 291 292 293
3 294 295 296
3 297 298 299
3 300 301 302
3 303 304 305
3 306 307 308
3 309 310 311
3 312 313 314
3 315 316 317
3 318 319 320
3 321 322 323
3 324 325 326
3 327 328 329
3 330 331 332
3 333 334 335
3 336 337 338
3 339 340 341
3 342 343 344
3 345 346 347
3 348 349 350
3 351 352 353
3 354 355 356
3 357 358 359
3 360 361 362
3 363 364 365
3 366 367 368
3 369 370 371
3 372 373 374
3 375 376 377
3 378 379 380
3 381 382 383
3 384 385 386
3 387 388 389
3 390 391 392
3 393 394 395
3 396 397 398
3 399 400 401
3 402 403 404
3 405 406 407
3 408 409 410
3 411 412 413
3 414 415 416
3 417 418 419
3 420 421 422
3 423 424 425
3 426 427 428
3 429 430 431
3 432 433 434
3 435 436 437
3 438 439 440
3 441 442 443
3 444 445 446
3 447 448 449
