ply
format ascii 1.0
element vertex 744
property float x
property float y
property float z
property float nx
property float ny
property float nz
element face 248
property list uint uint vertex_indices
end_header
105.676 133.351 165.924 -0.547139 -0.629713 -0.551453
105.646 132.581 166.834 -0.547139 -0.629713 -0.551453
104.817 133.406 166.714 -0.547139 -0.629713 -0.551453
105.676 133.351 165.924 0.0103631 -0.686712 -0.726856
106.759 133.379 165.913 0.0103631 -0.686712 -0.726856
106.655 132.596 166.652 0.0103631 -0.686712 -0.726856
105.646 132.581 166.834 -0.105255 -0.757312 -0.644515
105.676 133.351 165.924 -0.105255 -0.757312 -0.644515
106.655 132.596 166.652 -0.105255 -0.757312 -0.644515
106.655 132.596 166.652 0.553641 -0.608987 -0.567994
106.759 133.379 165.913 0.553641 -0.608987 -0.567994
107.513 133.298 166.735 0.553641 -0.608987 -0.567994
105.617 134.377 165.878 -0.677472 -0.071832 -0.732032
105.676 133.351 165.924 -0.677472 -0.071832 -0.732032
104.817 133.406 166.714 -0.677472 -0.071832 -0.732032
104.781 134.414 166.646 -0.675931 -0.074129 -0.733227
105.617 134.377 165.878 -0.675931 -0.074129 -0.733227
104.817 133.406 166.714 -0.675931 -0.074129 -0.733227
106.759 133.379 165.913 -0.00794013 -0.0994332 -0.995013
105.676 133.351 165.924 -0.00794013 -0.0994332 -0.995013
106.703 134.376 165.814 -0.00794013 -0.0994332 -0.995013
106.703 134.376 165.814 -0.0592987 -0.0482513 -0.997073
105.676 133.351 165.924 -0.0592987 -0.0482513 -0.997073
105.617 134.377 165.878 -0.0592987 -0.0482513 -0.997073
107.783 133.576 166.647 0.514422 -0.667872 -0.537882
107.513 133.298 166.735 0.514422 -0.667872 -0.537882
106.759 133.379 165.913 0.514422 -0.667872 -0.537882
107.783 133.576 166.647 0.54838 -0.570535 -0.611367
106.759 133.379 165.913 0.54838 -0.570535 -0.611367
107.788 134.381 165.9 0.54838 -0.570535 -0.611367
107.788 134.381 165.9 0.0795027 -0.0942176 -0.992372
106.759 133.379 165.913 0.0795027 -0.0942176 -0.992372
106.703 134.376 165.814 0.0795027 -0.0942176 -0.992372
107.783 133.576 166.647 0.577224 -0.557262 -0.596884
107.788 134.381 165.9 0.577224 -0.557262 -0.596884
108.597 134.352 166.711 0.577224 -0.557262 -0.596884
105.614 135.417 165.869 -0.676168 -0.00822023 -0.736702
105.617 134.377 165.878 -0.676168 -0.00822023 -0.736702
104.781 134.414 166.646 -0.676168 -0.00822023 -0.736702
104.76 135.417 166.68 -0.688388 0.0108039 -0.725263
105.614 135.417 165.869 -0.688388 0.0108039 -0.725263
104.781 134.414 166.646 -0.688388 0.0108039 -0.725263
106.703 134.376 165.814 -0.059339 -0.0136373 -0.998145
105.617 134.377 165.878 -0.059339 -0.0136373 -0.998145
106.699 135.417 165.8 -0.059339 -0.0136373 -0.998145
106.699 135.417 165.8 -0.0640984 -0.00866571 -0.997906
105.617 134.377 165.878 -0.0640984 -0.00866571 -0.997906
105.614 135.417 165.869 -0.0640984 -0.00866571 -0.997906
107.788 134.381 165.9 0.0795407 -0.0447763 -0.995825
106.703 134.376 165.814 0.0795407 -0.0447763 -0.995825
107.821 135.423 165.856 0.0795407 -0.0447763 -0.995825
107.821 135.423 165.856 0.0501822 -0.013281 -0.998652
106.703 134.376 165.814 0.0501822 -0.013281 -0.998652
106.699 135.417 165.8 0.0501822 -0.013281 -0.998652
108.716 135.368 166.678 0.70181 -0.104892 -0.7046
108.597 134.352 166.711 0.70181 -0.104892 -0.7046
107.788 134.381 165.9 0.70181 -0.104892 -0.7046
107.821 135.423 165.856 0.673865 -0.0530861 -0.736945
108.716 135.368 166.678 0.673865 -0.0530861 -0.736945
107.788 134.381 165.9 0.673865 -0.0530861 -0.736945
105.613 136.456 165.886 -0.688387 0.0109341 -0.725262
105.614 135.417 165.869 -0.688387 0.0109341 -0.725262
104.76 135.417 166.68 -0.688387 0.0109341 -0.725262
104.774 136.456 166.685 -0.689462 0.0126183 -0.724212
105.613 136.456 165.886 -0.689462 0.0126183 -0.724212
104.76 135.417 166.68 -0.689462 0.0126183 -0.724212
106.699 135.417 165.8 -0.0640873 0.0174943 -0.997791
105.614 135.417 165.869 -0.0640873 0.0174943 -0.997791
106.659 136.42 165.82 -0.0640873 0.0174943 -0.997791
106.659 136.42 165.82 -0.0626559 0.0159986 -0.997907
105.614 135.417 165.869 -0.0626559 0.0159986 -0.997907
105.613 136.456 165.886 -0.0626559 0.0159986 -0.997907
107.821 135.423 165.856 0.049994 0.0190836 -0.998567
106.699 135.417 165.8 0.049994 0.0190836 -0.998567
107.735 136.478 165.872 0.049994 0.0190836 -0.998567
107.735 136.478 165.872 0.0470016 0.0220094 -0.998652
106.699 135.417 165.8 0.0470016 0.0220094 -0.998652
106.659 136.42 165.82 0.0470016 0.0220094 -0.998652
108.877 135.694 166.596 0.585909 -0.458503 -0.668196
108.716 135.368 166.678 0.585909 -0.458503 -0.668196
107.821 135.423 165.856 0.585909 -0.458503 -0.668196
108.877 135.694 166.596 0.578421 -0.505339 -0.640361
107.821 135.423 165.856 0.578421 -0.505339 -0.640361
108.824 136.453 165.949 0.578421 -0.505339 -0.640361
108.824 136.453 165.949 0.0710352 0.0207822 -0.997257
107.821 135.423 165.856 0.0710352 0.0207822 -0.997257
107.735 136.478 165.872 0.0710352 0.0207822 -0.997257
108.877 135.694 166.596 0.579418 -0.504837 -0.639855
108.824 136.453 165.949 0.579418 -0.504837 -0.639855
109.665 136.429 166.729 0.579418 -0.504837 -0.639855
105.58 137.451 165.953 -0.689282 0.0261124 -0.724022
105.613 136.456 165.886 -0.689282 0.0261124 -0.724022
104.774 136.456 166.685 -0.689282 0.0261124 -0.724022
104.817 137.457 166.836 -0.749457 0.130032 -0.649158
105.58 137.451 165.953 -0.749457 0.130032 -0.649158
104.774 136.456 166.685 -0.749457 0.130032 -0.649158
106.659 136.42 165.82 -0.0597656 0.0918455 -0.993978
105.613 136.456 165.886 -0.0597656 0.0918455 -0.993978
106.665 137.458 165.915 -0.0597656 0.0918455 -0.993978
106.665 137.458 165.915 -0.0353707 0.0663195 -0.997171
105.613 136.456 165.886 -0.0353707 0.0663195 -0.997171
105.58 137.451 165.953 -0.0353707 0.0663195 -0.997171
107.526 137.482 166.616 0.406113 0.597293 -0.691602
107.867 137.252 166.617 0.406113 0.597293 -0.691602
107.735 136.478 165.872 0.406113 0.597293 -0.691602
107.526 137.482 166.616 0.504333 0.579602 -0.640085
107.735 136.478 165.872 0.504333 0.579602 -0.640085
106.665 137.458 165.915 0.504333 0.579602 -0.640085
106.665 137.458 165.915 0.0430679 0.0913126 -0.994891
107.735 136.478 165.872 0.0430679 0.0913126 -0.994891
106.659 136.42 165.82 0.0430679 0.0913126 -0.994891
108.824 136.453 165.949 0.0673594 0.686355 -0.724141
107.735 136.478 165.872 0.0673594 0.686355 -0.724141
107.867 137.252 166.617 0.0673594 0.686355 -0.724141
108.858 137.296 166.734 0.0562509 0.679344 -0.731661
108.824 136.453 165.949 0.0562509 0.679344 -0.731661
107.867 137.252 166.617 0.0562509 0.679344 -0.731661
109.665 136.429 166.729 0.578942 0.543064 -0.6082
108.824 136.453 165.949 0.578942 0.543064 -0.6082
108.858 137.296 166.734 0.578942 0.543064 -0.6082
105.58 137.451 165.953 -0.607122 0.592626 -0.529336
104.817 137.457 166.836 -0.607122 0.592626 -0.529336
105.676 138.23 166.716 -0.607122 0.592626 -0.529336
106.665 137.458 165.915 -0.0296223 0.701056 -0.712491
105.58 137.451 165.953 -0.0296223 0.701056 -0.712491
105.676 138.23 166.716 -0.0296223 0.701056 -0.712491
106.76 138.241 166.712 -0.0096839 0.713868 -0.700214
106.665 137.458 165.915 -0.0096839 0.713868 -0.700214
105.676 138.23 166.716 -0.0096839 0.713868 -0.700214
107.526 137.482 166.616 0.501039 0.586601 -0.636285
106.665 137.458 165.915 0.501039 0.586601 -0.636285
106.76 138.241 166.712 0.501039 0.586601 -0.636285
106.655 132.596 166.652 0.00657989 -0.998966 -0.0449824
106.752 132.55 167.68 0.00657989 -0.998966 -0.0449824
105.646 132.581 166.834 0.00657989 -0.998966 -0.0449824
106.752 132.55 167.68 0.635929 -0.766006 -0.0939571
106.655 132.596 166.652 0.635929 -0.766006 -0.0939571
107.513 133.298 166.735 0.635929 -0.766006 -0.0939571
107.577 133.281 167.715 0.663308 -0.74623 -0.0562461
106.752 132.55 167.68 0.663308 -0.74623 -0.0562461
107.513 133.298 166.735 0.663308 -0.74623 -0.0562461
104.817 133.406 166.714 -0.997523 -0.0400238 -0.0578426
104.722 134.378 167.675 -0.997523 -0.0400238 -0.0578426
104.781 134.414 166.646 -0.997523 -0.0400238 -0.0578426
107.513 133.298 166.735 0.700117 -0.711663 -0.058068
107.84 133.547 167.621 0.700117 -0.711663 -0.058068
107.577 133.281 167.715 0.700117 -0.711663 -0.058068
107.783 133.576 166.647 0.707095 -0.704334 -0.0627016
107.84 133.547 167.621 0.707095 -0.704334 -0.0627016
107.513 133.298 166.735 0.707095 -0.704334 -0.0627016
107.84 133.547 167.621 0.690896 -0.720269 -0.0622452
107.783 133.576 166.647 0.690896 -0.720269 -0.0622452
108.597 134.352 166.711 0.690896 -0.720269 -0.0622452
108.695 134.379 167.658 0.697698 -0.714537 -0.051521
107.84 133.547 167.621 0.697698 -0.714537 -0.051521
108.597 134.352 166.711 0.697698 -0.714537 -0.051521
104.781 134.414 166.646 -0.998202 -0.018231 -0.0571054
104.722 134.378 167.675 -0.998202 -0.018231 -0.0571054
104.76 135.417 166.68 -0.998202 -0.018231 -0.0571054
104.722 134.378 167.675 -0.999033 -0.00530924 -0.0436456
104.716 135.417 167.708 -0.999033 -0.00530924 -0.0436456
104.76 135.417 166.68 -0.999033 -0.00530924 -0.0436456
108.695 134.379 167.658 0.98793 -0.119291 -0.0988085
108.597 134.352 166.711 0.98793 -0.119291 -0.0988085
108.716 135.368 166.678 0.98793 -0.119291 -0.0988085
108.695 134.379 167.658 0.601339 -0.568838 -0.561084
108.716 135.368 166.678 0.601339 -0.568838 -0.561084
109.703 135.388 167.715 0.601339 -0.568838 -0.561084
104.76 135.417 166.68 -0.998964 0.0129655 -0.0436311
104.716 135.417 167.708 -0.998964 0.0129655 -0.0436311
104.774 136.456 166.685 -0.998964 0.0129655 -0.0436311
104.716 135.417 167.708 -0.998992 0.0139054 -0.0426769
104.729 136.419 167.712 -0.998992 0.0139054 -0.0426769
104.774 136.456 166.685 -0.998992 0.0139054 -0.0426769
108.716 135.368 166.678 0.537746 -0.446598 -0.715108
108.877 135.694 166.596 0.537746 -0.446598 -0.715108
109.665 136.429 166.729 0.537746 -0.446598 -0.715108
108.716 135.368 166.678 0.620717 -0.527192 -0.580327
109.665 136.429 166.729 0.620717 -0.527192 -0.580327
109.703 135.388 167.715 0.620717 -0.527192 -0.580327
109.703 135.388 167.715 0.992647 -0.0621818 -0.103854
109.665 136.429 166.729 0.992647 -0.0621818 -0.103854
109.771 136.419 167.747 0.992647 -0.0621818 -0.103854
104.774 136.456 166.685 -0.997913 0.0495956 -0.0413471
104.729 136.419 167.712 -0.997913 0.0495956 -0.0413471
104.817 137.457 166.836 -0.997913 0.0495956 -0.0413471
107.867 137.252 166.617 0.448619 0.660634 -0.601917
107.526 137.482 166.616 0.448619 0.660634 -0.601917
107.793 137.541 166.88 0.448619 0.660634 -0.601917
107.793 137.541 166.88 0.0563424 0.678744 -0.73221
108.858 137.296 166.734 0.0563424 0.678744 -0.73221
107.867 137.252 166.617 0.0563424 0.678744 -0.73221
108.858 137.296 166.734 0.590904 0.554066 -0.586382
109.725 137.413 167.718 0.590904 0.554066 -0.586382
109.665 136.429 166.729 0.590904 0.554066 -0.586382
109.665 136.429 166.729 0.993751 0.0433174 -0.102873
109.725 137.413 167.718 0.993751 0.0433174 -0.102873
109.771 136.419 167.747 0.993751 0.0433174 -0.102873
106.76 138.241 166.712 -0.010311 0.995154 -0.0977905
105.676 138.23 166.716 -0.010311 0.995154 -0.0977905
106.702 138.336 167.693 -0.010311 0.995154 -0.0977905
107.793 137.541 166.88 0.500215 0.58593 -0.637551
107.526 137.482 166.616 0.500215 0.58593 -0.637551
106.76 138.241 166.712 0.500215 0.58593 -0.637551
107.793 137.541 166.88 0.513908 0.615842 -0.597191
106.76 138.241 166.712 0.513908 0.615842 -0.597191
107.843 138.292 167.697 0.513908 0.615842 -0.597191
107.843 138.292 167.697 0.0389675 0.994732 -0.0948113
106.76 138.241 166.712 0.0389675 0.994732 -0.0948113
106.702 138.336 167.693 0.0389675 0.994732 -0.0948113
108.858 137.296 166.734 0.0761723 0.73201 -0.677022
107.793 137.541 166.88 0.0761723 0.73201 -0.677022
107.843 138.292 167.697 0.0761723 0.73201 -0.677022
108.957 138.228 167.749 0.0736744 0.730896 -0.678501
108.858 137.296 166.734 0.0736744 0.730896 -0.678501
107.843 138.292 167.697 0.0736744 0.730896 -0.678501
109.725 137.413 167.718 0.581786 0.569945 -0.580248
108.858 137.296 166.734 0.581786 0.569945 -0.580248
108.957 138.228 167.749 0.581786 0.569945 -0.580248
105.646 132.581 166.834 -0.693872 -0.720097 0.0014146
105.663 132.568 168.705 -0.693872 -0.720097 0.0014146
104.845 133.356 168.67 -0.693872 -0.720097 0.0014146
104.817 133.406 166.714 -0.704992 -0.70917 -0.00805448
105.646 132.581 166.834 -0.704992 -0.70917 -0.00805448
104.845 133.356 168.67 -0.704992 -0.70917 -0.00805448
106.752 132.55 167.68 0.000684678 -0.999305 -0.0372808
106.701 132.511 168.72 0.000684678 -0.999305 -0.0372808
105.646 132.581 166.834 0.000684678 -0.999305 -0.0372808
105.646 132.581 166.834 -0.0544101 -0.998498 -0.00640481
106.701 132.511 168.72 -0.0544101 -0.998498 -0.00640481
105.663 132.568 168.705 -0.0544101 -0.998498 -0.00640481
107.577 133.281 167.715 0.524701 -0.629166 -0.573446
107.904 133.35 167.938 0.524701 -0.629166 -0.573446
107.796 132.541 168.726 0.524701 -0.629166 -0.573446
107.577 133.281 167.715 0.560745 -0.605956 -0.564253
107.796 132.541 168.726 0.560745 -0.605956 -0.564253
106.752 132.55 167.68 0.560745 -0.605956 -0.564253
106.752 132.55 167.68 0.0275178 -0.998974 -0.0359563
107.796 132.541 168.726 0.0275178 -0.998974 -0.0359563
106.701 132.511 168.72 0.0275178 -0.998974 -0.0359563
107.904 133.35 167.938 0.0679829 -0.676949 -0.732883
108.922 133.38 168.005 0.0679829 -0.676949 -0.732883
108.852 132.59 168.728 0.0679829 -0.676949 -0.732883
107.796 132.541 168.726 0.0334342 -0.699869 -0.713489
107.904 133.35 167.938 0.0334342 -0.699869 -0.713489
108.852 132.59 168.728 0.0334342 -0.699869 -0.713489
108.852 132.59 168.728 0.558563 -0.586352 -0.586684
108.922 133.38 168.005 0.558563 -0.586352 -0.586684
109.684 133.315 168.795 0.558563 -0.586352 -0.586684
104.817 133.406 166.714 -0.994097 -0.10792 0.011147
104.845 133.356 168.67 -0.994097 -0.10792 0.011147
104.722 134.378 167.675 -0.994097 -0.10792 0.011147
104.845 133.356 168.67 -0.994261 -0.106201 0.0129344
104.732 134.413 168.708 -0.994261 -0.106201 0.0129344
104.722 134.378 167.675 -0.994261 -0.106201 0.0129344
107.577 133.281 167.715 0.504481 -0.684195 -0.526665
107.84 133.547 167.621 0.504481 -0.684195 -0.526665
107.904 133.35 167.938 0.504481 -0.684195 -0.526665
108.695 134.379 167.658 0.614247 -0.608713 -0.502165
107.904 133.35 167.938 0.614247 -0.608713 -0.502165
107.84 133.547 167.621 0.614247 -0.608713 -0.502165
108.695 134.379 167.658 0.585452 -0.598675 -0.546658
108.916 134.338 167.94 0.585452 -0.598675 -0.546658
107.904 133.35 167.938 0.585452 -0.598675 -0.546658
108.916 134.338 167.94 0.0677277 -0.066881 -0.99546
108.922 133.38 168.005 0.0677277 -0.066881 -0.99546
107.904 133.35 167.938 0.0677277 -0.066881 -0.99546
109.69 134.375 168.751 0.717926 -0.0327358 -0.695349
109.684 133.315 168.795 0.717926 -0.0327358 -0.695349
108.922 133.38 168.005 0.717926 -0.0327358 -0.695349
108.916 134.338 167.94 0.723767 -0.0421894 -0.688753
109.69 134.375 168.751 0.723767 -0.0421894 -0.688753
108.922 133.38 168.005 0.723767 -0.0421894 -0.688753
104.722 134.378 167.675 -0.99993 -0.00696546 0.0096026
104.732 134.413 168.708 -0.99993 -0.00696546 0.0096026
104.716 135.417 167.708 -0.99993 -0.00696546 0.0096026
104.732 134.413 168.708 -0.999864 -0.000103382 0.0164835
104.733 135.416 168.748 -0.999864 -0.000103382 0.0164835
104.716 135.417 167.708 -0.999864 -0.000103382 0.0164835
108.916 134.338 167.94 0.603327 -0.571074 -0.556661
108.695 134.379 167.658 0.603327 -0.571074 -0.556661
109.703 135.388 167.715 0.603327 -0.571074 -0.556661
108.916 134.338 167.94 0.606132 -0.572259 -0.55238
109.703 135.388 167.715 0.606132 -0.572259 -0.55238
109.69 134.375 168.751 0.606132 -0.572259 -0.55238
109.69 134.375 168.751 0.999045 -0.0367641 -0.0236001
109.703 135.388 167.715 0.999045 -0.0367641 -0.0236001
109.731 135.475 168.77 0.999045 -0.0367641 -0.0236001
104.716 135.417 167.708 -0.999771 0.0136595 0.0164894
104.733 135.416 168.748 -0.999771 0.0136595 0.0164894
104.729 136.419 167.712 -0.999771 0.0136595 0.0164894
104.733 135.416 168.748 -0.996723 0.0564605 0.0579276
104.791 136.451 168.746 -0.996723 0.0564605 0.0579276
104.729 136.419 167.712 -0.996723 0.0564605 0.0579276
109.703 135.388 167.715 0.997654 -0.0650893 -0.0212278
109.771 136.419 167.747 0.997654 -0.0650893 -0.0212278
109.731 135.475 168.77 0.997654 -0.0650893 -0.0212278
109.731 135.475 168.77 0.998597 -0.0521413 -0.00924533
109.771 136.419 167.747 0.998597 -0.0521413 -0.00924533
109.782 136.468 168.713 0.998597 -0.0521413 -0.00924533
104.729 136.419 167.712 -0.989904 0.130528 0.0552538
104.791 136.451 168.746 -0.989904 0.130528 0.0552538
104.817 137.457 166.836 -0.989904 0.130528 0.0552538
104.791 136.451 168.746 -0.997952 0.061189 0.0186295
104.852 137.453 168.731 -0.997952 0.061189 0.0186295
104.817 137.457 166.836 -0.997952 0.061189 0.0186295
109.973 136.79 168.769 0.754882 -0.470158 -0.457279
109.725 137.413 167.718 0.754882 -0.470158 -0.457279
109.978 137.526 168.02 0.754882 -0.470158 -0.457279
109.973 136.79 168.769 0.808208 -0.402592 -0.429791
109.782 136.468 168.713 0.808208 -0.402592 -0.429791
109.725 137.413 167.718 0.808208 -0.402592 -0.429791
109.782 136.468 168.713 0.998833 0.0461629 -0.0142171
109.771 136.419 167.747 0.998833 0.0461629 -0.0142171
109.725 137.413 167.718 0.998833 0.0461629 -0.0142171
109.973 136.79 168.769 0.568774 -0.588369 -0.574734
109.978 137.526 168.02 0.568774 -0.588369 -0.574734
110.689 137.501 168.75 0.568774 -0.588369 -0.574734
104.817 137.457 166.836 -0.715381 0.698584 0.0145085
104.852 137.453 168.731 -0.715381 0.698584 0.0145085
105.623 138.245 168.618 -0.715381 0.698584 0.0145085
105.676 138.23 166.716 -0.670748 0.741279 -0.0245634
104.817 137.457 166.836 -0.670748 0.741279 -0.0245634
105.623 138.245 168.618 -0.670748 0.741279 -0.0245634
106.671 138.552 168.031 -0.457731 0.793036 -0.401966
105.623 138.245 168.618 -0.457731 0.793036 -0.401966
105.912 138.519 168.83 -0.457731 0.793036 -0.401966
106.671 138.552 168.031 -0.489883 0.713663 -0.500699
106.702 138.336 167.693 -0.489883 0.713663 -0.500699
105.623 138.245 168.618 -0.489883 0.713663 -0.500699
106.702 138.336 167.693 -0.0932017 0.995589 -0.0107739
105.676 138.23 166.716 -0.0932017 0.995589 -0.0107739
105.623 138.245 168.618 -0.0932017 0.995589 -0.0107739
106.702 138.336 167.693 0.0315817 0.747143 -0.663912
107.726 138.574 168.009 0.0315817 0.747143 -0.663912
107.843 138.292 167.697 0.0315817 0.747143 -0.663912
106.671 138.552 168.031 -0.0285558 0.841261 -0.539874
107.726 138.574 168.009 -0.0285558 0.841261 -0.539874
106.702 138.336 167.693 -0.0285558 0.841261 -0.539874
108.577 138.519 168.759 0.47518 0.733946 -0.485312
107.843 138.292 167.697 0.47518 0.733946 -0.485312
107.726 138.574 168.009 0.47518 0.733946 -0.485312
108.577 138.519 168.759 0.520309 0.687481 -0.506605
108.888 138.272 168.743 0.520309 0.687481 -0.506605
107.843 138.292 167.697 0.520309 0.687481 -0.506605
108.888 138.272 168.743 0.0593144 0.997428 -0.0402493
108.957 138.228 167.749 0.0593144 0.997428 -0.0402493
107.843 138.292 167.697 0.0593144 0.997428 -0.0402493
109.978 137.526 168.02 0.539433 0.532791 -0.652032
109.725 137.413 167.718 0.539433 0.532791 -0.652032
108.957 138.228 167.749 0.539433 0.532791 -0.652032
109.978 137.526 168.02 0.569584 0.619989 -0.539618
108.957 138.228 167.749 0.569584 0.619989 -0.539618
109.925 138.203 168.742 0.569584 0.619989 -0.539618
109.925 138.203 168.742 0.0663615 0.997004 -0.0397374
108.957 138.228 167.749 0.0663615 0.997004 -0.0397374
108.888 138.272 168.743 0.0663615 0.997004 -0.0397374
110.689 137.501 168.75 0.573541 0.618115 -0.537573
109.978 137.526 168.02 0.573541 0.618115 -0.537573
109.925 138.203 168.742 0.573541 0.618115 -0.537573
106.671 138.552 168.031 -0.57803 0.626405 -0.522971
105.912 138.519 168.83 -0.57803 0.626405 -0.522971
106.774 139.264 168.769 -0.57803 0.626405 -0.522971
107.726 138.574 168.009 -0.0291543 0.721663 -0.69163
106.671 138.552 168.031 -0.0291543 0.721663 -0.69163
106.774 139.264 168.769 -0.0291543 0.721663 -0.69163
107.819 139.253 168.798 0.0263229 0.756367 -0.653617
107.726 138.574 168.009 0.0263229 0.756367 -0.653617
106.774 139.264 168.769 0.0263229 0.756367 -0.653617
108.577 138.519 168.759 0.550439 0.599845 -0.580692
107.726 138.574 168.009 0.550439 0.599845 -0.580692
107.819 139.253 168.798 0.550439 0.599845 -0.580692
105.663 132.568 168.705 -0.583792 -0.58051 0.567622
106.618 132.691 169.813 -0.583792 -0.58051 0.567622
104.845 133.356 168.67 -0.583792 -0.58051 0.567622
106.618 132.691 169.813 -0.0560844 -0.985841 0.158026
105.663 132.568 168.705 -0.0560844 -0.985841 0.158026
106.701 132.511 168.72 -0.0560844 -0.985841 0.158026
107.796 132.541 168.726 0.0272154 -0.999497 0.0162521
107.796 132.558 169.775 0.0272154 -0.999497 0.0162521
106.701 132.511 168.72 0.0272154 -0.999497 0.0162521
106.701 132.511 168.72 -0.105923 -0.982432 0.153648
107.796 132.558 169.775 -0.105923 -0.982432 0.153648
106.618 132.691 169.813 -0.105923 -0.982432 0.153648
108.852 132.59 168.728 0.0458418 -0.998669 -0.0236225
108.882 132.568 169.72 0.0458418 -0.998669 -0.0236225
107.796 132.541 168.726 0.0458418 -0.998669 -0.0236225
107.796 132.541 168.726 0.0093736 -0.999824 0.0162707
108.882 132.568 169.72 0.0093736 -0.999824 0.0162707
107.796 132.558 169.775 0.0093736 -0.999824 0.0162707
108.882 132.568 169.72 0.658775 -0.751467 -0.0362336
108.852 132.59 168.728 0.658775 -0.751467 -0.0362336
109.684 133.315 168.795 0.658775 -0.751467 -0.0362336
109.682 133.397 169.746 0.717352 -0.694039 0.0609597
108.882 132.568 169.72 0.717352 -0.694039 0.0609597
109.684 133.315 168.795 0.717352 -0.694039 0.0609597
106.618 132.691 169.813 -0.581791 -0.591764 0.557974
104.835 134.354 169.718 -0.581791 -0.591764 0.557974
104.845 133.356 168.67 -0.581791 -0.591764 0.557974
104.845 133.356 168.67 -0.989556 -0.108709 0.0946675
104.835 134.354 169.718 -0.989556 -0.108709 0.0946675
104.732 134.413 168.708 -0.989556 -0.108709 0.0946675
108.953 134.368 169.569 0.685481 0.464201 0.560922
108.658 134.456 169.857 0.685481 0.464201 0.560922
108.882 134.142 169.843 0.685481 0.464201 0.560922
108.953 134.368 169.569 0.581825 0.546624 0.602231
108.882 134.142 169.843 0.581825 0.546624 0.602231
109.682 133.397 169.746 0.581825 0.546624 0.602231
108.953 134.368 169.569 0.612471 0.561314 0.556602
109.682 133.397 169.746 0.612471 0.561314 0.556602
109.69 134.375 168.751 0.612471 0.561314 0.556602
109.69 134.375 168.751 0.99998 -0.00576611 0.00250677
109.682 133.397 169.746 0.99998 -0.00576611 0.00250677
109.684 133.315 168.795 0.99998 -0.00576611 0.00250677
104.732 134.413 168.708 -0.994848 -0.00345647 0.101322
104.835 134.354 169.718 -0.994848 -0.00345647 0.101322
104.733 135.416 168.748 -0.994848 -0.00345647 0.101322
104.835 134.354 169.718 -0.994927 -0.00420112 0.100516
104.837 135.408 169.781 -0.994927 -0.00420112 0.100516
104.733 135.416 168.748 -0.994927 -0.00420112 0.100516
108.94 135.332 169.553 0.701791 0.0208909 0.712077
108.658 134.456 169.857 0.701791 0.0208909 0.712077
108.953 134.368 169.569 0.701791 0.0208909 0.712077
108.718 135.456 169.871 0.808096 -0.0569485 0.586292
108.658 134.456 169.857 0.808096 -0.0569485 0.586292
108.94 135.332 169.553 0.808096 -0.0569485 0.586292
109.69 134.375 168.751 0.706529 -0.0385568 0.706633
109.731 135.475 168.77 0.706529 -0.0385568 0.706633
108.94 135.332 169.553 0.706529 -0.0385568 0.706633
108.953 134.368 169.569 0.742493 0.0207282 0.669533
109.69 134.375 168.751 0.742493 0.0207282 0.669533
108.94 135.332 169.553 0.742493 0.0207282 0.669533
105.556 136.189 169.782 -0.666674 0.438405 0.602782
105.563 136.544 169.531 -0.666674 0.438405 0.602782
104.791 136.451 168.746 -0.666674 0.438405 0.602782
105.556 136.189 169.782 -0.598938 0.550812 0.581274
104.791 136.451 168.746 -0.598938 0.550812 0.581274
104.837 135.408 169.781 -0.598938 0.550812 0.581274
104.837 135.408 169.781 -0.993309 0.0563687 0.100799
104.791 136.451 168.746 -0.993309 0.0563687 0.100799
104.733 135.416 168.748 -0.993309 0.0563687 0.100799
105.556 136.189 169.782 -0.672703 0.435354 0.598279
105.792 136.449 169.857 -0.672703 0.435354 0.598279
105.563 136.544 169.531 -0.672703 0.435354 0.598279
108.94 135.332 169.553 0.651124 -0.432563 0.62364
108.955 135.673 169.774 0.651124 -0.432563 0.62364
108.718 135.456 169.871 0.651124 -0.432563 0.62364
108.955 135.673 169.774 0.675413 -0.421595 0.605042
108.94 135.332 169.553 0.675413 -0.421595 0.605042
109.731 135.475 168.77 0.675413 -0.421595 0.605042
108.955 135.673 169.774 0.620118 -0.525276 0.582699
109.731 135.475 168.77 0.620118 -0.525276 0.582699
109.68 136.473 169.724 0.620118 -0.525276 0.582699
109.68 136.473 169.724 0.993882 -0.0455049 0.100634
109.731 135.475 168.77 0.993882 -0.0455049 0.100634
109.782 136.468 168.713 0.993882 -0.0455049 0.100634
105.563 136.544 169.531 -0.707693 0.0656843 0.70346
105.59 137.528 169.467 -0.707693 0.0656843 0.70346
104.852 137.453 168.731 -0.707693 0.0656843 0.70346
104.791 136.451 168.746 -0.715499 0.0535104 0.696562
105.563 136.544 169.531 -0.715499 0.0535104 0.696562
104.852 137.453 168.731 -0.715499 0.0535104 0.696562
105.856 137.472 169.823 -0.807196 0.0702138 0.586092
105.563 136.544 169.531 -0.807196 0.0702138 0.586092
105.792 136.449 169.857 -0.807196 0.0702138 0.586092
105.59 137.528 169.467 -0.795775 0.0614491 0.602467
105.563 136.544 169.531 -0.795775 0.0614491 0.602467
105.856 137.472 169.823 -0.795775 0.0614491 0.602467
109.973 136.79 168.769 0.0530404 -0.687301 0.724434
109.985 137.5 169.441 0.0530404 -0.687301 0.724434
109.017 137.493 169.506 0.0530404 -0.687301 0.724434
109.973 136.79 168.769 0.723719 0.557399 0.406862
109.017 137.493 169.506 0.723719 0.557399 0.406862
109.68 136.473 169.724 0.723719 0.557399 0.406862
109.973 136.79 168.769 0.850738 -0.518089 0.0884831
109.68 136.473 169.724 0.850738 -0.518089 0.0884831
109.782 136.468 168.713 0.850738 -0.518089 0.0884831
108.721 137.495 169.801 0.604603 0.521648 0.601945
109.68 136.473 169.724 0.604603 0.521648 0.601945
109.017 137.493 169.506 0.604603 0.521648 0.601945
109.973 136.79 168.769 0.578052 -0.566437 0.587372
110.689 137.501 168.75 0.578052 -0.566437 0.587372
109.985 137.5 169.441 0.578052 -0.566437 0.587372
104.852 137.453 168.731 -0.576591 0.634858 0.514294
105.59 137.528 169.467 -0.576591 0.634858 0.514294
105.623 138.245 168.618 -0.576591 0.634858 0.514294
105.59 137.528 169.467 -0.768311 0.503298 0.395461
105.912 138.519 168.83 -0.768311 0.503298 0.395461
105.623 138.245 168.618 -0.768311 0.503298 0.395461
105.59 137.528 169.467 -0.622253 0.55585 0.55121
105.856 137.472 169.823 -0.622253 0.55585 0.55121
105.912 138.519 168.83 -0.622253 0.55585 0.55121
105.856 137.472 169.823 -0.994213 0.0970038 0.0461507
105.955 138.494 169.814 -0.994213 0.0970038 0.0461507
105.912 138.519 168.83 -0.994213 0.0970038 0.0461507
108.888 138.272 168.743 0.551884 0.628224 0.548415
108.721 137.495 169.801 0.551884 0.628224 0.548415
109.017 137.493 169.506 0.551884 0.628224 0.548415
108.888 138.272 168.743 0.5355 0.638179 0.553143
108.577 138.519 168.759 0.5355 0.638179 0.553143
108.721 137.495 169.801 0.5355 0.638179 0.553143
108.577 138.519 168.759 0.992687 0.119141 -0.0194224
108.597 138.526 169.792 0.992687 0.119141 -0.0194224
108.721 137.495 169.801 0.992687 0.119141 -0.0194224
109.925 138.203 168.742 0.0472405 0.702557 0.710057
108.888 138.272 168.743 0.0472405 0.702557 0.710057
109.017 137.493 169.506 0.0472405 0.702557 0.710057
109.985 137.5 169.441 0.0418136 0.706088 0.706888
109.925 138.203 168.742 0.0418136 0.706088 0.706888
109.017 137.493 169.506 0.0418136 0.706088 0.706888
110.689 137.501 168.75 0.555143 0.609592 0.565875
109.925 138.203 168.742 0.555143 0.609592 0.565875
109.985 137.5 169.441 0.555143 0.609592 0.565875
105.912 138.519 168.83 -0.705368 0.707149 0.0489653
105.955 138.494 169.814 -0.705368 0.707149 0.0489653
106.719 139.258 169.785 -0.705368 0.707149 0.0489653
106.774 139.264 168.769 -0.654533 0.755385 -0.0313048
105.912 138.519 168.83 -0.654533 0.755385 -0.0313048
106.719 139.258 169.785 -0.654533 0.755385 -0.0313048
107.819 139.253 168.798 0.0115701 0.999196 -0.0383917
106.774 139.264 168.769 0.0115701 0.999196 -0.0383917
107.783 139.291 169.791 0.0115701 0.999196 -0.0383917
106.774 139.264 168.769 -0.031568 0.999493 0.0041903
106.719 139.258 169.785 -0.031568 0.999493 0.0041903
107.783 139.291 169.791 -0.031568 0.999493 0.0041903
108.597 138.526 169.792 0.694955 0.718831 -0.0178872
108.577 138.519 168.759 0.694955 0.718831 -0.0178872
107.819 139.253 168.798 0.694955 0.718831 -0.0178872
107.783 139.291 169.791 0.68538 0.728177 -0.00354791
108.597 138.526 169.792 0.68538 0.728177 -0.00354791
107.819 139.253 168.798 0.68538 0.728177 -0.00354791
106.618 132.691 169.813 -0.0589956 -0.719389 0.692098
107.796 132.558 169.775 -0.0589956 -0.719389 0.692098
107.759 133.315 170.559 -0.0589956 -0.719389 0.692098
106.798 133.358 170.573 -0.0238697 -0.74851 0.662694
106.618 132.691 169.813 -0.0238697 -0.74851 0.662694
107.759 133.315 170.559 -0.0238697 -0.74851 0.662694
107.796 132.558 169.775 0.0412461 -0.72264 0.689992
108.882 132.568 169.72 0.0412461 -0.72264 0.689992
108.824 133.341 170.533 0.0412461 -0.72264 0.689992
107.759 133.315 170.559 0.0338788 -0.718014 0.695203
107.796 132.558 169.775 0.0338788 -0.718014 0.695203
108.824 133.341 170.533 0.0338788 -0.718014 0.695203
108.882 132.568 169.72 0.57423 -0.57258 0.585159
109.682 133.397 169.746 0.57423 -0.57258 0.585159
108.824 133.341 170.533 0.57423 -0.57258 0.585159
106.618 132.691 169.813 -0.576503 -0.58541 0.570034
105.6 134.385 170.523 -0.576503 -0.58541 0.570034
104.835 134.354 169.718 -0.576503 -0.58541 0.570034
106.618 132.691 169.813 -0.582495 -0.58613 0.563162
105.939 134.325 170.811 -0.582495 -0.58613 0.563162
105.6 134.385 170.523 -0.582495 -0.58613 0.563162
106.618 132.691 169.813 -0.51061 -0.59275 0.622836
106.735 133.639 170.811 -0.51061 -0.59275 0.622836
105.939 134.325 170.811 -0.51061 -0.59275 0.622836
106.618 132.691 169.813 -0.38583 -0.645951 0.658698
106.798 133.358 170.573 -0.38583 -0.645951 0.658698
106.735 133.639 170.811 -0.38583 -0.645951 0.658698
106.735 133.639 170.811 0.456858 -0.533495 0.711803
107.814 134.289 170.605 0.456858 -0.533495 0.711803
107.511 134.395 170.88 0.456858 -0.533495 0.711803
106.735 133.639 170.811 0.449914 -0.516678 0.728437
106.798 133.358 170.573 0.449914 -0.516678 0.728437
107.814 134.289 170.605 0.449914 -0.516678 0.728437
106.798 133.358 170.573 0.0125117 -0.0484249 0.998748
107.759 133.315 170.559 0.0125117 -0.0484249 0.998748
107.814 134.289 170.605 0.0125117 -0.0484249 0.998748
108.882 134.142 169.843 0.572025 0.375568 0.729203
108.658 134.456 169.857 0.572025 0.375568 0.729203
107.814 134.289 170.605 0.572025 0.375568 0.729203
108.882 134.142 169.843 0.540651 0.526314 0.65627
107.814 134.289 170.605 0.540651 0.526314 0.65627
108.824 133.341 170.533 0.540651 0.526314 0.65627
108.824 133.341 170.533 0.0249892 -0.0491176 0.99848
107.814 134.289 170.605 0.0249892 -0.0491176 0.99848
107.759 133.315 170.559 0.0249892 -0.0491176 0.99848
109.682 133.397 169.746 0.559884 0.517212 0.647319
108.882 134.142 169.843 0.559884 0.517212 0.647319
108.824 133.341 170.533 0.559884 0.517212 0.647319
105.6 134.385 170.523 -0.701828 -0.00622943 0.712319
105.835 135.411 170.764 -0.701828 -0.00622943 0.712319
104.837 135.408 169.781 -0.701828 -0.00622943 0.712319
104.835 134.354 169.718 -0.723738 -0.0395154 0.688943
105.6 134.385 170.523 -0.723738 -0.0395154 0.688943
104.837 135.408 169.781 -0.723738 -0.0395154 0.688943
105.835 135.411 170.764 -0.650034 -0.0291931 0.759344
105.6 134.385 170.523 -0.650034 -0.0291931 0.759344
105.939 134.325 170.811 -0.650034 -0.0291931 0.759344
107.814 134.289 170.605 0.484085 -0.490021 0.724942
107.851 134.639 170.817 0.484085 -0.490021 0.724942
107.511 134.395 170.88 0.484085 -0.490021 0.724942
107.851 134.639 170.817 0.64159 -0.445812 0.624191
107.814 134.289 170.605 0.64159 -0.445812 0.624191
108.658 134.456 169.857 0.64159 -0.445812 0.624191
107.851 134.639 170.817 0.595127 -0.532624 0.601778
108.658 134.456 169.857 0.595127 -0.532624 0.601778
108.581 135.456 170.818 0.595127 -0.532624 0.601778
108.581 135.456 170.818 0.987803 -0.0615809 0.143013
108.658 134.456 169.857 0.987803 -0.0615809 0.143013
108.718 135.456 169.871 0.987803 -0.0615809 0.143013
104.837 135.408 169.781 -0.590281 0.542803 0.597439
105.835 135.411 170.764 -0.590281 0.542803 0.597439
105.556 136.189 169.782 -0.590281 0.542803 0.597439
105.835 135.411 170.764 -0.688464 0.460527 0.560296
105.792 136.449 169.857 -0.688464 0.460527 0.560296
105.556 136.189 169.782 -0.688464 0.460527 0.560296
105.835 135.411 170.764 -0.986605 0.0816852 0.141206
105.926 136.422 170.816 -0.986605 0.0816852 0.141206
105.792 136.449 169.857 -0.986605 0.0816852 0.141206
108.908 136.431 170.501 0.674 -0.488805 0.553889
108.718 135.456 169.871 0.674 -0.488805 0.553889
108.955 135.673 169.774 0.674 -0.488805 0.553889
108.908 136.431 170.501 0.566666 -0.521951 0.63754
108.641 136.489 170.786 0.566666 -0.521951 0.63754
108.718 135.456 169.871 0.566666 -0.521951 0.63754
108.641 136.489 170.786 0.988311 -0.0525998 0.14309
108.581 135.456 170.818 0.988311 -0.0525998 0.14309
108.718 135.456 169.871 0.988311 -0.0525998 0.14309
108.955 135.673 169.774 0.618284 -0.523382 0.586341
109.68 136.473 169.724 0.618284 -0.523382 0.586341
108.908 136.431 170.501 0.618284 -0.523382 0.586341
106.648 137.23 170.816 -0.652424 0.428598 0.625018
106.665 137.585 170.591 -0.652424 0.428598 0.625018
105.856 137.472 169.823 -0.652424 0.428598 0.625018
106.648 137.23 170.816 -0.594575 0.530955 0.603794
105.856 137.472 169.823 -0.594575 0.530955 0.603794
105.926 136.422 170.816 -0.594575 0.530955 0.603794
105.926 136.422 170.816 -0.987764 0.0667709 0.140941
105.856 137.472 169.823 -0.987764 0.0667709 0.140941
105.792 136.449 169.857 -0.987764 0.0667709 0.140941
106.648 137.23 170.816 -0.556664 0.464317 0.688865
106.944 137.489 170.881 -0.556664 0.464317 0.688865
106.665 137.585 170.591 -0.556664 0.464317 0.688865
108.721 137.495 169.801 0.687898 0.479169 0.545154
108.641 136.489 170.786 0.687898 0.479169 0.545154
108.908 136.431 170.501 0.687898 0.479169 0.545154
108.721 137.495 169.801 0.993481 0.0289812 0.11025
108.606 137.561 170.815 0.993481 0.0289812 0.11025
108.641 136.489 170.786 0.993481 0.0289812 0.11025
109.68 136.473 169.724 0.595414 0.511691 0.619399
108.721 137.495 169.801 0.595414 0.511691 0.619399
108.908 136.431 170.501 0.595414 0.511691 0.619399
106.665 137.585 170.591 -0.692248 0.0728727 0.717971
106.72 138.558 170.545 -0.692248 0.0728727 0.717971
105.955 138.494 169.814 -0.692248 0.0728727 0.717971
105.856 137.472 169.823 -0.691483 0.0740014 0.718593
106.665 137.585 170.591 -0.691483 0.0740014 0.718593
105.955 138.494 169.814 -0.691483 0.0740014 0.718593
107.014 138.468 170.864 -0.70906 0.0624047 0.702381
106.665 137.585 170.591 -0.70906 0.0624047 0.702381
106.944 137.489 170.881 -0.70906 0.0624047 0.702381
106.72 138.558 170.545 -0.723654 0.073146 0.686276
106.665 137.585 170.591 -0.723654 0.073146 0.686276
107.014 138.468 170.864 -0.723654 0.073146 0.686276
108.721 137.495 169.801 0.987388 0.11967 0.103655
108.597 138.526 169.792 0.987388 0.11967 0.103655
108.606 137.561 170.815 0.987388 0.11967 0.103655
108.606 137.561 170.815 0.997428 0.0565583 0.0440291
108.597 138.526 169.792 0.997428 0.0565583 0.0440291
108.551 138.559 170.783 0.997428 0.0565583 0.0440291
105.955 138.494 169.814 -0.578519 0.599381 0.553225
106.72 138.558 170.545 -0.578519 0.599381 0.553225
106.719 139.258 169.785 -0.578519 0.599381 0.553225
106.72 138.558 170.545 -0.527332 0.556659 0.641913
107.014 138.468 170.864 -0.527332 0.556659 0.641913
107.733 139.242 170.784 -0.527332 0.556659 0.641913
106.72 138.558 170.545 -0.548645 0.61441 0.567
107.733 139.242 170.784 -0.548645 0.61441 0.567
106.719 139.258 169.785 -0.548645 0.61441 0.567
106.719 139.258 169.785 -0.0317952 0.998336 0.0481049
107.733 139.242 170.784 -0.0317952 0.998336 0.0481049
107.783 139.291 169.791 -0.0317952 0.998336 0.0481049
108.551 138.559 170.783 0.685365 0.728168 0.00683067
108.597 138.526 169.792 0.685365 0.728168 0.00683067
107.783 139.291 169.791 0.685365 0.728168 0.00683067
107.733 139.242 170.784 0.639336 0.765719 0.0701721
108.551 138.559 170.783 0.639336 0.765719 0.0701721
107.783 139.291 169.791 0.639336 0.765719 0.0701721
106.735 133.639 170.811 -0.473074 -0.549211 0.68889
106.713 134.568 171.537 -0.473074 -0.549211 0.68889
105.939 134.325 170.811 -0.473074 -0.549211 0.68889
106.735 133.639 170.811 0.462774 -0.538848 0.703905
107.511 134.395 170.88 0.462774 -0.538848 0.703905
106.713 134.568 171.537 0.462774 -0.538848 0.703905
105.939 134.325 170.811 -0.678108 -0.032958 0.734223
106.713 134.568 171.537 -0.678108 -0.032958 0.734223
105.835 135.411 170.764 -0.678108 -0.032958 0.734223
107.511 134.395 170.88 0.524399 -0.569959 0.632576
107.851 134.639 170.817 0.524399 -0.569959 0.632576
107.78 135.39 171.553 0.524399 -0.569959 0.632576
107.511 134.395 170.88 0.437937 -0.582079 0.685124
107.78 135.39 171.553 0.437937 -0.582079 0.685124
106.713 134.568 171.537 0.437937 -0.582079 0.685124
107.851 134.639 170.817 0.595303 -0.53278 0.601465
108.581 135.456 170.818 0.595303 -0.53278 0.601465
107.78 135.39 171.553 0.595303 -0.53278 0.601465
106.713 134.568 171.537 -0.677673 -0.00147987 0.735361
106.718 136.487 171.546 -0.677673 -0.00147987 0.735361
105.926 136.422 170.816 -0.677673 -0.00147987 0.735361
105.835 135.411 170.764 -0.649908 0.0197887 0.759755
106.713 134.568 171.537 -0.649908 0.0197887 0.759755
105.926 136.422 170.816 -0.649908 0.0197887 0.759755
107.78 135.39 171.553 -0.0117757 -0.00403128 0.999923
107.773 137.355 171.561 -0.0117757 -0.00403128 0.999923
106.713 134.568 171.537 -0.0117757 -0.00403128 0.999923
107.773 137.355 171.561 -0.0105129 -0.00451162 0.999935
106.718 136.487 171.546 -0.0105129 -0.00451162 0.999935
106.713 134.568 171.537 -0.0105129 -0.00451162 0.999935
108.581 135.456 170.818 0.657598 -0.0144749 0.75323
108.641 136.489 170.786 0.657598 -0.0144749 0.75323
107.773 137.355 171.561 0.657598 -0.0144749 0.75323
107.78 135.39 171.553 0.67602 -0.000239891 0.736883
108.581 135.456 170.818 0.67602 -0.000239891 0.736883
107.773 137.355 171.561 0.67602 -0.000239891 0.736883
105.926 136.422 170.816 -0.596805 0.532945 0.599827
106.718 136.487 171.546 -0.596805 0.532945 0.599827
106.648 137.23 170.816 -0.596805 0.532945 0.599827
106.944 137.489 170.881 -0.597038 0.532812 0.599714
106.648 137.23 170.816 -0.597038 0.532812 0.599714
106.718 136.487 171.546 -0.597038 0.532812 0.599714
106.944 137.489 170.881 -0.469926 0.55933 0.682877
106.718 136.487 171.546 -0.469926 0.55933 0.682877
107.773 137.355 171.561 -0.469926 0.55933 0.682877
108.641 136.489 170.786 0.66656 0.00148326 0.74545
108.606 137.561 170.815 0.66656 0.00148326 0.74545
107.773 137.355 171.561 0.66656 0.00148326 0.74545
107.773 137.355 171.561 -0.62448 0.0616392 0.778605
107.828 138.49 171.515 -0.62448 0.0616392 0.778605
107.014 138.468 170.864 -0.62448 0.0616392 0.778605
106.944 137.489 170.881 -0.627793 0.0578914 0.776225
107.773 137.355 171.561 -0.627793 0.0578914 0.776225
107.014 138.468 170.864 -0.627793 0.0578914 0.776225
108.606 137.561 170.815 0.706861 0.0612717 0.704693
108.551 138.559 170.783 0.706861 0.0612717 0.704693
107.828 138.49 171.515 0.706861 0.0612717 0.704693
107.773 137.355 171.561 0.667092 -0.0024024 0.744972
108.606 137.561 170.815 0.667092 -0.0024024 0.744972
107.828 138.49 171.515 0.667092 -0.0024024 0.744972
107.014 138.468 170.864 -0.527931 0.557124 0.641016
107.828 138.49 171.515 -0.527931 0.557124 0.641016
107.733 139.242 170.784 -0.527931 0.557124 0.641016
108.551 138.559 170.783 0.523719 0.626677 0.577056
107.733 139.242 170.784 0.523719 0.626677 0.577056
107.828 138.49 171.515 0.523719 0.626677 0.577056
3 0 1 2
3 3 4 5
3 6 7 8
3 9 10 11
3 12 13 14
3 15 16 17
3 18 19 20
3 21 22 23
3 24 25 26
3 27 28 29
3 30 31 32
3 33 34 35
3 36 37 38
3 39 40 41
3 42 43 44
3 45 46 47
3 48 49 50
3 51 52 53
3 54 55 56
3 57 58 59
3 60 61 62
3 63 64 65
3 66 67 68
3 69 70 71
3 72 73 74
3 75 76 77
3 78 79 80
3 81 82 83
3 84 85 86
3 87 88 89
3 90 91 92
3 93 94 95
3 96 97 98
3 99 100 101
3 102 103 104
3 105 106 107
3 108 109 110
3 111 112 113
3 114 115 116
3 117 118 119
3 120 121 122
3 123 124 125
3 126 127 128
3 129 130 131
3 132 133 134
3 135 136 137
3 138 139 140
3 141 142 143
3 144 145 146
3 147 148 149
3 150 151 152
3 153 154 155
3 156 157 158
3 159 160 161
3 162 163 164
3 165 166 167
3 168 169 170
3 171 172 173
3 174 175 176
3 177 178 179
3 180 181 182
3 183 184 185
3 186 187 188
3 189 190 191
3 192 193 194
3 195 196 197
3 198 199 200
3 201 202 203
3 204 205 206
3 207 208 209
3 210 211 212
3 213 214 215
3 216 217 218
3 219 220 221
3 222 223 224
3 225 226 227
3 228 229 230
3 231 232 233
3 234 235 236
3 237 238 239
3 240 241 242
3 243 244 245
3 246 247 248
3 249 250 251
3 252 253 254
3 255 256 257
3 258 259 260
3 261 262 263
3 264 265 266
3 267 268 269
3 270 271 272
3 273 274 275
3 276 277 278
3 279 280 281
3 282 283 284
3 285 286 287
3 288 289 290
3 291 292 293
3 294 295 296
3 297 298 299
3 300 301 302
3 303 304 305
3 306 307 308
3 309 310 311
3 312 313 314
3 315 316 317
3 318 319 320
3 321 322 323
3 324 325 326
3 327 328 329
3 330 331 332
3 333 334 335
3 336 337 338
3 339 340 341
3 342 343 344
3 345 346 347
3 348 349 350
3 351 352 353
3 354 355 356
3 357 358 359
3 360 361 362
3 363 364 365
3 366 367 368
3 369 370 371
3 372 373 374
3 375 376 377
3 378 379 380
3 381 382 383
3 384 385 386
3 387 388 389
3 390 391 392
3 393 394 395
3 396 397 398
3 399 400 401
3 402 403 404
3 405 406 407
3 408 409 410
3 411 412 413
3 414 415 416
3 417 418 419
3 420 421 422
3 423 424 425
3 426 427 428
3 429 430 431
3 432 433 434
3 435 436 437
3 438 439 440
3 441 442 443
3 444 445 446
3 447 448 449
3 450 451 452
3 453 454 455
3 456 457 458
3 459 460 461
3 462 463 464
3 465 466 467
3 468 469 470
3 471 472 473
3 474 475 476
3 477 478 479
3 480 481 482
3 483 484 485
3 486 487 488
3 489 490 491
3 492 493 494
3 495 496 497
3 498 499 500
3 501 502 503
3 504 505 506
3 507 508 509
3 510 511 512
3 513 514 515
3 516 517 518
3 519 520 521
3 522 523 524
3 525 526 527
3 528 529 530
3 531 532 533
3 534 535 536
3 537 538 539
3 540 541 542
3 543 544 545
3 546 547 548
3 549 550 551
3 552 553 554
3 555 556 557
3 558 559 560
3 561 562 563
3 564 565 566
3 567 568 569
3 570 571 572
3 573 574 575
3 576 577 578
3 579 580 581
3 582 583 584
3 585 586 587
3 588 589 590
3 591 592 593
3 594 595 596
3 597 598 599
3 600 601 602
3 603 604 605
3 606 607 608
3 609 610 611
3 612 613 614
3 615 616 617
3 618 619 620
3 621 622 623
3 624 625 626
3 627 628 629
3 630 631 632
3 633 634 635
3 636 637 638
3 639 640 641
3 642 643 644
3 645 646 647
3 648 649 650
3 651 652 653
3 654 655 656
3 657 658 659
3 660 661 662
3 663 664 665
3 666 667 668
3 669 670 671
3 672 673 674
3 675 676 677
3 678 679 680
3 681 682 683
3 684 685 686
3 687 688 689
3 690 691 692
3 693 694 695
3 696 697 698
3 699 700 701
3 702 703 704
3 705 706 707
3 708 709 710
3 711 712 713
3 714 715 716
3 717 718 719
3 720 721 722
3 723 724 725
3 726 727 728
3 729 730 731
3 732 733 734
3 735 736 737
3 738 739 740
3 741 742 743
