solid ascii
 facet normal -0.547139 -0.629713 -0.551453
  outer loop
   vertex 105.676 133.351 165.924
   vertex 105.646 132.581 166.834
   vertex 104.817 133.406 166.714
  endloop
 endfacet
 facet normal 0.0103631 -0.686712 -0.726856
  outer loop
   vertex 105.676 133.351 165.924
   vertex 106.759 133.379 165.913
   vertex 106.655 132.596 166.652
  endloop
 endfacet
 facet normal -0.105255 -0.757312 -0.644515
  outer loop
   vertex 105.646 132.581 166.834
   vertex 105.676 133.351 165.924
   vertex 106.655 132.596 166.652
  endloop
 endfacet
 facet normal 0.553641 -0.608987 -0.567994
  outer loop
   vertex 106.655 132.596 166.652
   vertex 106.759 133.379 165.913
   vertex 107.513 133.298 166.735
  endloop
 endfacet
 facet normal -0.677472 -0.071832 -0.732032
  outer loop
   vertex 105.617 134.377 165.878
   vertex 105.676 133.351 165.924
   vertex 104.817 133.406 166.714
  endloop
 endfacet
 facet normal -0.675931 -0.074129 -0.733227
  outer loop
   vertex 104.781 134.414 166.646
   vertex 105.617 134.377 165.878
   vertex 104.817 133.406 166.714
  endloop
 endfacet
 facet normal -0.00794013 -0.0994332 -0.995013
  outer loop
   vertex 106.759 133.379 165.913
   vertex 105.676 133.351 165.924
   vertex 106.703 134.376 165.814
  endloop
 endfacet
 facet normal -0.0592987 -0.0482513 -0.997073
  outer loop
   vertex 106.703 134.376 165.814
   vertex 105.676 133.351 165.924
   vertex 105.617 134.377 165.878
  endloop
 endfacet
 facet normal 0.514422 -0.667872 -0.537882
  outer loop
   vertex 107.783 133.576 166.647
   vertex 107.513 133.298 166.735
   vertex 106.759 133.379 165.913
  endloop
 endfacet
 facet normal 0.54838 -0.570535 -0.611367
  outer loop
   vertex 107.783 133.576 166.647
   vertex 106.759 133.379 165.913
   vertex 107.788 134.381 165.9
  endloop
 endfacet
 facet normal 0.0795027 -0.0942176 -0.992372
  outer loop
   vertex 107.788 134.381 165.9
   vertex 106.759 133.379 165.913
   vertex 106.703 134.376 165.814
  endloop
 endfacet
 facet normal 0.577224 -0.557262 -0.596884
  outer loop
   vertex 107.783 133.576 166.647
   vertex 107.788 134.381 165.9
   vertex 108.597 134.352 166.711
  endloop
 endfacet
 facet normal -0.676168 -0.00822023 -0.736702
  outer loop
   vertex 105.614 135.417 165.869
   vertex 105.617 134.377 165.878
   vertex 104.781 134.414 166.646
  endloop
 endfacet
 facet normal -0.688388 0.0108039 -0.725263
  outer loop
   vertex 104.76 135.417 166.68
   vertex 105.614 135.417 165.869
   vertex 104.781 134.414 166.646
  endloop
 endfacet
 facet normal -0.059339 -0.0136373 -0.998145
  outer loop
   vertex 106.703 134.376 165.814
   vertex 105.617 134.377 165.878
   vertex 106.699 135.417 165.8
  endloop
 endfacet
 facet normal -0.0640984 -0.00866571 -0.997906
  outer loop
   vertex 106.699 135.417 165.8
   vertex 105.617 134.377 165.878
   vertex 105.614 135.417 165.869
  endloop
 endfacet
 facet normal 0.0795407 -0.0447763 -0.995825
  outer loop
   vertex 107.788 134.381 165.9
   vertex 106.703 134.376 165.814
   vertex 107.821 135.423 165.856
  endloop
 endfacet
 facet normal 0.0501822 -0.013281 -0.998652
  outer loop
   vertex 107.821 135.423 165.856
   vertex 106.703 134.376 165.814
   vertex 106.699 135.417 165.8
  endloop
 endfacet
 facet normal 0.70181 -0.104892 -0.7046
  outer loop
   vertex 108.716 135.368 166.678
   vertex 108.597 134.352 166.711
   vertex 107.788 134.381 165.9
  endloop
 endfacet
 facet normal 0.673865 -0.0530861 -0.736945
  outer loop
   vertex 107.821 135.423 165.856
   vertex 108.716 135.368 166.678
   vertex 107.788 134.381 165.9
  endloop
 endfacet
 facet normal -0.688387 0.0109341 -0.725262
  outer loop
   vertex 105.613 136.456 165.886
   vertex 105.614 135.417 165.869
   vertex 104.76 135.417 166.68
  endloop
 endfacet
 facet normal -0.689462 0.0126183 -0.724212
  outer loop
   vertex 104.774 136.456 166.685
   vertex 105.613 136.456 165.886
   vertex 104.76 135.417 166.68
  endloop
 endfacet
 facet normal -0.0640873 0.0174943 -0.997791
  outer loop
   vertex 106.699 135.417 165.8
   vertex 105.614 135.417 165.869
   vertex 106.659 136.42 165.82
  endloop
 endfacet
 facet normal -0.0626559 0.0159986 -0.997907
  outer loop
   vertex 106.659 136.42 165.82
   vertex 105.614 135.417 165.869
   vertex 105.613 136.456 165.886
  endloop
 endfacet
 facet normal 0.049994 0.0190836 -0.998567
  outer loop
   vertex 107.821 135.423 165.856
   vertex 106.699 135.417 165.8
   vertex 107.735 136.478 165.872
  endloop
 endfacet
 facet normal 0.0470016 0.0220094 -0.998652
  outer loop
   vertex 107.735 136.478 165.872
   vertex 106.699 135.417 165.8
   vertex 106.659 136.42 165.82
  endloop
 endfacet
 facet normal 0.585909 -0.458503 -0.668196
  outer loop
   vertex 108.877 135.694 166.596
   vertex 108.716 135.368 166.678
   vertex 107.821 135.423 165.856
  endloop
 endfacet
 facet normal 0.578421 -0.505339 -0.640361
  outer loop
   vertex 108.877 135.694 166.596
   vertex 107.821 135.423 165.856
   vertex 108.824 136.453 165.949
  endloop
 endfacet
 facet normal 0.0710352 0.0207822 -0.997257
  outer loop
   vertex 108.824 136.453 165.949
   vertex 107.821 135.423 165.856
   vertex 107.735 136.478 165.872
  endloop
 endfacet
 facet normal 0.579418 -0.504837 -0.639855
  outer loop
   vertex 108.877 135.694 166.596
   vertex 108.824 136.453 165.949
   vertex 109.665 136.429 166.729
  endloop
 endfacet
 facet normal -0.689282 0.0261124 -0.724022
  outer loop
   vertex 105.58 137.451 165.953
   vertex 105.613 136.456 165.886
   vertex 104.774 136.456 166.685
  endloop
 endfacet
 facet normal -0.749457 0.130032 -0.649158
  outer loop
   vertex 104.817 137.457 166.836
   vertex 105.58 137.451 165.953
   vertex 104.774 136.456 166.685
  endloop
 endfacet
 facet normal -0.0597656 0.0918455 -0.993978
  outer loop
   vertex 106.659 136.42 165.82
   vertex 105.613 136.456 165.886
   vertex 106.665 137.458 165.915
  endloop
 endfacet
 facet normal -0.0353707 0.0663195 -0.997171
  outer loop
   vertex 106.665 137.458 165.915
   vertex 105.613 136.456 165.886
   vertex 105.58 137.451 165.953
  endloop
 endfacet
 facet normal 0.406113 0.597293 -0.691602
  outer loop
   vertex 107.526 137.482 166.616
   vertex 107.867 137.252 166.617
   vertex 107.735 136.478 165.872
  endloop
 endfacet
 facet normal 0.504333 0.579602 -0.640085
  outer loop
   vertex 107.526 137.482 166.616
   vertex 107.735 136.478 165.872
   vertex 106.665 137.458 165.915
  endloop
 endfacet
 facet normal 0.0430679 0.0913126 -0.994891
  outer loop
   vertex 106.665 137.458 165.915
   vertex 107.735 136.478 165.872
   vertex 106.659 136.42 165.82
  endloop
 endfacet
 facet normal 0.0673594 0.686355 -0.724141
  outer loop
   vertex 108.824 136.453 165.949
   vertex 107.735 136.478 165.872
   vertex 107.867 137.252 166.617
  endloop
 endfacet
 facet normal 0.0562509 0.679344 -0.731661
  outer loop
   vertex 108.858 137.296 166.734
   vertex 108.824 136.453 165.949
   vertex 107.867 137.252 166.617
  endloop
 endfacet
 facet normal 0.578942 0.543064 -0.6082
  outer loop
   vertex 109.665 136.429 166.729
   vertex 108.824 136.453 165.949
   vertex 108.858 137.296 166.734
  endloop
 endfacet
 facet normal -0.607122 0.592626 -0.529336
  outer loop
   vertex 105.58 137.451 165.953
   vertex 104.817 137.457 166.836
   vertex 105.676 138.23 166.716
  endloop
 endfacet
 facet normal -0.0296223 0.701056 -0.712491
  outer loop
   vertex 106.665 137.458 165.915
   vertex 105.58 137.451 165.953
   vertex 105.676 138.23 166.716
  endloop
 endfacet
 facet normal -0.0096839 0.713868 -0.700214
  outer loop
   vertex 106.76 138.241 166.712
   vertex 106.665 137.458 165.915
   vertex 105.676 138.23 166.716
  endloop
 endfacet
 facet normal 0.501039 0.586601 -0.636285
  outer loop
   vertex 107.526 137.482 166.616
   vertex 106.665 137.458 165.915
   vertex 106.76 138.241 166.712
  endloop
 endfacet
 facet normal 0.00657989 -0.998966 -0.0449824
  outer loop
   vertex 106.655 132.596 166.652
   vertex 106.752 132.55 167.68
   vertex 105.646 132.581 166.834
  endloop
 endfacet
 facet normal 0.635929 -0.766006 -0.0939571
  outer loop
   vertex 106.752 132.55 167.68
   vertex 106.655 132.596 166.652
   vertex 107.513 133.298 166.735
  endloop
 endfacet
 facet normal 0.663308 -0.74623 -0.0562461
  outer loop
   vertex 107.577 133.281 167.715
   vertex 106.752 132.55 167.68
   vertex 107.513 133.298 166.735
  endloop
 endfacet
 facet normal -0.997523 -0.0400238 -0.0578426
  outer loop
   vertex 104.817 133.406 166.714
   vertex 104.722 134.378 167.675
   vertex 104.781 134.414 166.646
  endloop
 endfacet
 facet normal 0.700117 -0.711663 -0.058068
  outer loop
   vertex 107.513 133.298 166.735
   vertex 107.84 133.547 167.621
   vertex 107.577 133.281 167.715
  endloop
 endfacet
 facet normal 0.707095 -0.704334 -0.0627016
  outer loop
   vertex 107.783 133.576 166.647
   vertex 107.84 133.547 167.621
   vertex 107.513 133.298 166.735
  endloop
 endfacet
 facet normal 0.690896 -0.720269 -0.0622452
  outer loop
   vertex 107.84 133.547 167.621
   vertex 107.783 133.576 166.647
   vertex 108.597 134.352 166.711
  endloop
 endfacet
 facet normal 0.697698 -0.714537 -0.051521
  outer loop
   vertex 108.695 134.379 167.658
   vertex 107.84 133.547 167.621
   vertex 108.597 134.352 166.711
  endloop
 endfacet
 facet normal -0.998202 -0.018231 -0.0571054
  outer loop
   vertex 104.781 134.414 166.646
   vertex 104.722 134.378 167.675
   vertex 104.76 135.417 166.68
  endloop
 endfacet
 facet normal -0.999033 -0.00530924 -0.0436456
  outer loop
   vertex 104.722 134.378 167.675
   vertex 104.716 135.417 167.708
   vertex 104.76 135.417 166.68
  endloop
 endfacet
 facet normal 0.98793 -0.119291 -0.0988085
  outer loop
   vertex 108.695 134.379 167.658
   vertex 108.597 134.352 166.711
   vertex 108.716 135.368 166.678
  endloop
 endfacet
 facet normal 0.601339 -0.568838 -0.561084
  outer loop
   vertex 108.695 134.379 167.658
   vertex 108.716 135.368 166.678
   vertex 109.703 135.388 167.715
  endloop
 endfacet
 facet normal -0.998964 0.0129655 -0.0436311
  outer loop
   vertex 104.76 135.417 166.68
   vertex 104.716 135.417 167.708
   vertex 104.774 136.456 166.685
  endloop
 endfacet
 facet normal -0.998992 0.0139054 -0.0426769
  outer loop
   vertex 104.716 135.417 167.708
   vertex 104.729 136.419 167.712
   vertex 104.774 136.456 166.685
  endloop
 endfacet
 facet normal 0.537746 -0.446598 -0.715108
  outer loop
   vertex 108.716 135.368 166.678
   vertex 108.877 135.694 166.596
   vertex 109.665 136.429 166.729
  endloop
 endfacet
 facet normal 0.620717 -0.527192 -0.580327
  outer loop
   vertex 108.716 135.368 166.678
   vertex 109.665 136.429 166.729
   vertex 109.703 135.388 167.715
  endloop
 endfacet
 facet normal 0.992647 -0.0621818 -0.103854
  outer loop
   vertex 109.703 135.388 167.715
   vertex 109.665 136.429 166.729
   vertex 109.771 136.419 167.747
  endloop
 endfacet
 facet normal -0.997913 0.0495956 -0.0413471
  outer loop
   vertex 104.774 136.456 166.685
   vertex 104.729 136.419 167.712
   vertex 104.817 137.457 166.836
  endloop
 endfacet
 facet normal 0.448619 0.660634 -0.601917
  outer loop
   vertex 107.867 137.252 166.617
   vertex 107.526 137.482 166.616
   vertex 107.793 137.541 166.88
  endloop
 endfacet
 facet normal 0.0563424 0.678744 -0.73221
  outer loop
   vertex 107.793 137.541 166.88
   vertex 108.858 137.296 166.734
   vertex 107.867 137.252 166.617
  endloop
 endfacet
 facet normal 0.590904 0.554066 -0.586382
  outer loop
   vertex 108.858 137.296 166.734
   vertex 109.725 137.413 167.718
   vertex 109.665 136.429 166.729
  endloop
 endfacet
 facet normal 0.993751 0.0433174 -0.102873
  outer loop
   vertex 109.665 136.429 166.729
   vertex 109.725 137.413 167.718
   vertex 109.771 136.419 167.747
  endloop
 endfacet
 facet normal -0.010311 0.995154 -0.0977905
  outer loop
   vertex 106.76 138.241 166.712
   vertex 105.676 138.23 166.716
   vertex 106.702 138.336 167.693
  endloop
 endfacet
 facet normal 0.500215 0.58593 -0.637551
  outer loop
   vertex 107.793 137.541 166.88
   vertex 107.526 137.482 166.616
   vertex 106.76 138.241 166.712
  endloop
 endfacet
 facet normal 0.513908 0.615842 -0.597191
  outer loop
   vertex 107.793 137.541 166.88
   vertex 106.76 138.241 166.712
   vertex 107.843 138.292 167.697
  endloop
 endfacet
 facet normal 0.0389675 0.994732 -0.0948113
  outer loop
   vertex 107.843 138.292 167.697
   vertex 106.76 138.241 166.712
   vertex 106.702 138.336 167.693
  endloop
 endfacet
 facet normal 0.0761723 0.73201 -0.677022
  outer loop
   vertex 108.858 137.296 166.734
   vertex 107.793 137.541 166.88
   vertex 107.843 138.292 167.697
  endloop
 endfacet
 facet normal 0.0736744 0.730896 -0.678501
  outer loop
   vertex 108.957 138.228 167.749
   vertex 108.858 137.296 166.734
   vertex 107.843 138.292 167.697
  endloop
 endfacet
 facet normal 0.581786 0.569945 -0.580248
  outer loop
   vertex 109.725 137.413 167.718
   vertex 108.858 137.296 166.734
   vertex 108.957 138.228 167.749
  endloop
 endfacet
 facet normal -0.693872 -0.720097 0.0014146
  outer loop
   vertex 105.646 132.581 166.834
   vertex 105.663 132.568 168.705
   vertex 104.845 133.356 168.67
  endloop
 endfacet
 facet normal -0.704992 -0.70917 -0.00805448
  outer loop
   vertex 104.817 133.406 166.714
   vertex 105.646 132.581 166.834
   vertex 104.845 133.356 168.67
  endloop
 endfacet
 facet normal 0.000684678 -0.999305 -0.0372808
  outer loop
   vertex 106.752 132.55 167.68
   vertex 106.701 132.511 168.72
   vertex 105.646 132.581 166.834
  endloop
 endfacet
 facet normal -0.0544101 -0.998498 -0.00640481
  outer loop
   vertex 105.646 132.581 166.834
   vertex 106.701 132.511 168.72
   vertex 105.663 132.568 168.705
  endloop
 endfacet
 facet normal 0.524701 -0.629166 -0.573446
  outer loop
   vertex 107.577 133.281 167.715
   vertex 107.904 133.35 167.938
   vertex 107.796 132.541 168.726
  endloop
 endfacet
 facet normal 0.560745 -0.605956 -0.564253
  outer loop
   vertex 107.577 133.281 167.715
   vertex 107.796 132.541 168.726
   vertex 106.752 132.55 167.68
  endloop
 endfacet
 facet normal 0.0275178 -0.998974 -0.0359563
  outer loop
   vertex 106.752 132.55 167.68
   vertex 107.796 132.541 168.726
   vertex 106.701 132.511 168.72
  endloop
 endfacet
 facet normal 0.0679829 -0.676949 -0.732883
  outer loop
   vertex 107.904 133.35 167.938
   vertex 108.922 133.38 168.005
   vertex 108.852 132.59 168.728
  endloop
 endfacet
 facet normal 0.0334342 -0.699869 -0.713489
  outer loop
   vertex 107.796 132.541 168.726
   vertex 107.904 133.35 167.938
   vertex 108.852 132.59 168.728
  endloop
 endfacet
 facet normal 0.558563 -0.586352 -0.586684
  outer loop
   vertex 108.852 132.59 168.728
   vertex 108.922 133.38 168.005
   vertex 109.684 133.315 168.795
  endloop
 endfacet
 facet normal -0.994097 -0.10792 0.011147
  outer loop
   vertex 104.817 133.406 166.714
   vertex 104.845 133.356 168.67
   vertex 104.722 134.378 167.675
  endloop
 endfacet
 facet normal -0.994261 -0.106201 0.0129344
  outer loop
   vertex 104.845 133.356 168.67
   vertex 104.732 134.413 168.708
   vertex 104.722 134.378 167.675
  endloop
 endfacet
 facet normal 0.504481 -0.684195 -0.526665
  outer loop
   vertex 107.577 133.281 167.715
   vertex 107.84 133.547 167.621
   vertex 107.904 133.35 167.938
  endloop
 endfacet
 facet normal 0.614247 -0.608713 -0.502165
  outer loop
   vertex 108.695 134.379 167.658
   vertex 107.904 133.35 167.938
   vertex 107.84 133.547 167.621
  endloop
 endfacet
 facet normal 0.585452 -0.598675 -0.546658
  outer loop
   vertex 108.695 134.379 167.658
   vertex 108.916 134.338 167.94
   vertex 107.904 133.35 167.938
  endloop
 endfacet
 facet normal 0.0677277 -0.066881 -0.99546
  outer loop
   vertex 108.916 134.338 167.94
   vertex 108.922 133.38 168.005
   vertex 107.904 133.35 167.938
  endloop
 endfacet
 facet normal 0.717926 -0.0327358 -0.695349
  outer loop
   vertex 109.69 134.375 168.751
   vertex 109.684 133.315 168.795
   vertex 108.922 133.38 168.005
  endloop
 endfacet
 facet normal 0.723767 -0.0421894 -0.688753
  outer loop
   vertex 108.916 134.338 167.94
   vertex 109.69 134.375 168.751
   vertex 108.922 133.38 168.005
  endloop
 endfacet
 facet normal -0.99993 -0.00696546 0.0096026
  outer loop
   vertex 104.722 134.378 167.675
   vertex 104.732 134.413 168.708
   vertex 104.716 135.417 167.708
  endloop
 endfacet
 facet normal -0.999864 -0.000103382 0.0164835
  outer loop
   vertex 104.732 134.413 168.708
   vertex 104.733 135.416 168.748
   vertex 104.716 135.417 167.708
  endloop
 endfacet
 facet normal 0.603327 -0.571074 -0.556661
  outer loop
   vertex 108.916 134.338 167.94
   vertex 108.695 134.379 167.658
   vertex 109.703 135.388 167.715
  endloop
 endfacet
 facet normal 0.606132 -0.572259 -0.55238
  outer loop
   vertex 108.916 134.338 167.94
   vertex 109.703 135.388 167.715
   vertex 109.69 134.375 168.751
  endloop
 endfacet
 facet normal 0.999045 -0.0367641 -0.0236001
  outer loop
   vertex 109.69 134.375 168.751
   vertex 109.703 135.388 167.715
   vertex 109.731 135.475 168.77
  endloop
 endfacet
 facet normal -0.999771 0.0136595 0.0164894
  outer loop
   vertex 104.716 135.417 167.708
   vertex 104.733 135.416 168.748
   vertex 104.729 136.419 167.712
  endloop
 endfacet
 facet normal -0.996723 0.0564605 0.0579276
  outer loop
   vertex 104.733 135.416 168.748
   vertex 104.791 136.451 168.746
   vertex 104.729 136.419 167.712
  endloop
 endfacet
 facet normal 0.997654 -0.0650893 -0.0212278
  outer loop
   vertex 109.703 135.388 167.715
   vertex 109.771 136.419 167.747
   vertex 109.731 135.475 168.77
  endloop
 endfacet
 facet normal 0.998597 -0.0521413 -0.00924533
  outer loop
   vertex 109.731 135.475 168.77
   vertex 109.771 136.419 167.747
   vertex 109.782 136.468 168.713
  endloop
 endfacet
 facet normal -0.989904 0.130528 0.0552538
  outer loop
   vertex 104.729 136.419 167.712
   vertex 104.791 136.451 168.746
   vertex 104.817 137.457 166.836
  endloop
 endfacet
 facet normal -0.997952 0.061189 0.0186295
  outer loop
   vertex 104.791 136.451 168.746
   vertex 104.852 137.453 168.731
   vertex 104.817 137.457 166.836
  endloop
 endfacet
 facet normal 0.754882 -0.470158 -0.457279
  outer loop
   vertex 109.973 136.79 168.769
   vertex 109.725 137.413 167.718
   vertex 109.978 137.526 168.02
  endloop
 endfacet
 facet normal 0.808208 -0.402592 -0.429791
  outer loop
   vertex 109.973 136.79 168.769
   vertex 109.782 136.468 168.713
   vertex 109.725 137.413 167.718
  endloop
 endfacet
 facet normal 0.998833 0.0461629 -0.0142171
  outer loop
   vertex 109.782 136.468 168.713
   vertex 109.771 136.419 167.747
   vertex 109.725 137.413 167.718
  endloop
 endfacet
 facet normal 0.568774 -0.588369 -0.574734
  outer loop
   vertex 109.973 136.79 168.769
   vertex 109.978 137.526 168.02
   vertex 110.689 137.501 168.75
  endloop
 endfacet
 facet normal -0.715381 0.698584 0.0145085
  outer loop
   vertex 104.817 137.457 166.836
   vertex 104.852 137.453 168.731
   vertex 105.623 138.245 168.618
  endloop
 endfacet
 facet normal -0.670748 0.741279 -0.0245634
  outer loop
   vertex 105.676 138.23 166.716
   vertex 104.817 137.457 166.836
   vertex 105.623 138.245 168.618
  endloop
 endfacet
 facet normal -0.457731 0.793036 -0.401966
  outer loop
   vertex 106.671 138.552 168.031
   vertex 105.623 138.245 168.618
   vertex 105.912 138.519 168.83
  endloop
 endfacet
 facet normal -0.489883 0.713663 -0.500699
  outer loop
   vertex 106.671 138.552 168.031
   vertex 106.702 138.336 167.693
   vertex 105.623 138.245 168.618
  endloop
 endfacet
 facet normal -0.0932017 0.995589 -0.0107739
  outer loop
   vertex 106.702 138.336 167.693
   vertex 105.676 138.23 166.716
   vertex 105.623 138.245 168.618
  endloop
 endfacet
 facet normal 0.0315817 0.747143 -0.663912
  outer loop
   vertex 106.702 138.336 167.693
   vertex 107.726 138.574 168.009
   vertex 107.843 138.292 167.697
  endloop
 endfacet
 facet normal -0.0285558 0.841261 -0.539874
  outer loop
   vertex 106.671 138.552 168.031
   vertex 107.726 138.574 168.009
   vertex 106.702 138.336 167.693
  endloop
 endfacet
 facet normal 0.47518 0.733946 -0.485312
  outer loop
   vertex 108.577 138.519 168.759
   vertex 107.843 138.292 167.697
   vertex 107.726 138.574 168.009
  endloop
 endfacet
 facet normal 0.520309 0.687481 -0.506605
  outer loop
   vertex 108.577 138.519 168.759
   vertex 108.888 138.272 168.743
   vertex 107.843 138.292 167.697
  endloop
 endfacet
 facet normal 0.0593144 0.997428 -0.0402493
  outer loop
   vertex 108.888 138.272 168.743
   vertex 108.957 138.228 167.749
   vertex 107.843 138.292 167.697
  endloop
 endfacet
 facet normal 0.539433 0.532791 -0.652032
  outer loop
   vertex 109.978 137.526 168.02
   vertex 109.725 137.413 167.718
   vertex 108.957 138.228 167.749
  endloop
 endfacet
 facet normal 0.569584 0.619989 -0.539618
  outer loop
   vertex 109.978 137.526 168.02
   vertex 108.957 138.228 167.749
   vertex 109.925 138.203 168.742
  endloop
 endfacet
 facet normal 0.0663615 0.997004 -0.0397374
  outer loop
   vertex 109.925 138.203 168.742
   vertex 108.957 138.228 167.749
   vertex 108.888 138.272 168.743
  endloop
 endfacet
 facet normal 0.573541 0.618115 -0.537573
  outer loop
   vertex 110.689 137.501 168.75
   vertex 109.978 137.526 168.02
   vertex 109.925 138.203 168.742
  endloop
 endfacet
 facet normal -0.57803 0.626405 -0.522971
  outer loop
   vertex 106.671 138.552 168.031
   vertex 105.912 138.519 168.83
   vertex 106.774 139.264 168.769
  endloop
 endfacet
 facet normal -0.0291543 0.721663 -0.69163
  outer loop
   vertex 107.726 138.574 168.009
   vertex 106.671 138.552 168.031
   vertex 106.774 139.264 168.769
  endloop
 endfacet
 facet normal 0.0263229 0.756367 -0.653617
  outer loop
   vertex 107.819 139.253 168.798
   vertex 107.726 138.574 168.009
   vertex 106.774 139.264 168.769
  endloop
 endfacet
 facet normal 0.550439 0.599845 -0.580692
  outer loop
   vertex 108.577 138.519 168.759
   vertex 107.726 138.574 168.009
   vertex 107.819 139.253 168.798
  endloop
 endfacet
 facet normal -0.583792 -0.58051 0.567622
  outer loop
   vertex 105.663 132.568 168.705
   vertex 106.618 132.691 169.813
   vertex 104.845 133.356 168.67
  endloop
 endfacet
 facet normal -0.0560844 -0.985841 0.158026
  outer loop
   vertex 106.618 132.691 169.813
   vertex 105.663 132.568 168.705
   vertex 106.701 132.511 168.72
  endloop
 endfacet
 facet normal 0.0272154 -0.999497 0.0162521
  outer loop
   vertex 107.796 132.541 168.726
   vertex 107.796 132.558 169.775
   vertex 106.701 132.511 168.72
  endloop
 endfacet
 facet normal -0.105923 -0.982432 0.153648
  outer loop
   vertex 106.701 132.511 168.72
   vertex 107.796 132.558 169.775
   vertex 106.618 132.691 169.813
  endloop
 endfacet
 facet normal 0.0458418 -0.998669 -0.0236225
  outer loop
   vertex 108.852 132.59 168.728
   vertex 108.882 132.568 169.72
   vertex 107.796 132.541 168.726
  endloop
 endfacet
 facet normal 0.0093736 -0.999824 0.0162707
  outer loop
   vertex 107.796 132.541 168.726
   vertex 108.882 132.568 169.72
   vertex 107.796 132.558 169.775
  endloop
 endfacet
 facet normal 0.658775 -0.751467 -0.0362336
  outer loop
   vertex 108.882 132.568 169.72
   vertex 108.852 132.59 168.728
   vertex 109.684 133.315 168.795
  endloop
 endfacet
 facet normal 0.717352 -0.694039 0.0609597
  outer loop
   vertex 109.682 133.397 169.746
   vertex 108.882 132.568 169.72
   vertex 109.684 133.315 168.795
  endloop
 endfacet
 facet normal -0.581791 -0.591764 0.557974
  outer loop
   vertex 106.618 132.691 169.813
   vertex 104.835 134.354 169.718
   vertex 104.845 133.356 168.67
  endloop
 endfacet
 facet normal -0.989556 -0.108709 0.0946675
  outer loop
   vertex 104.845 133.356 168.67
   vertex 104.835 134.354 169.718
   vertex 104.732 134.413 168.708
  endloop
 endfacet
 facet normal 0.685481 0.464201 0.560922
  outer loop
   vertex 108.953 134.368 169.569
   vertex 108.658 134.456 169.857
   vertex 108.882 134.142 169.843
  endloop
 endfacet
 facet normal 0.581825 0.546624 0.602231
  outer loop
   vertex 108.953 134.368 169.569
   vertex 108.882 134.142 169.843
   vertex 109.682 133.397 169.746
  endloop
 endfacet
 facet normal 0.612471 0.561314 0.556602
  outer loop
   vertex 108.953 134.368 169.569
   vertex 109.682 133.397 169.746
   vertex 109.69 134.375 168.751
  endloop
 endfacet
 facet normal 0.99998 -0.00576611 0.00250677
  outer loop
   vertex 109.69 134.375 168.751
   vertex 109.682 133.397 169.746
   vertex 109.684 133.315 168.795
  endloop
 endfacet
 facet normal -0.994848 -0.00345647 0.101322
  outer loop
   vertex 104.732 134.413 168.708
   vertex 104.835 134.354 169.718
   vertex 104.733 135.416 168.748
  endloop
 endfacet
 facet normal -0.994927 -0.00420112 0.100516
  outer loop
   vertex 104.835 134.354 169.718
   vertex 104.837 135.408 169.781
   vertex 104.733 135.416 168.748
  endloop
 endfacet
 facet normal 0.701791 0.0208909 0.712077
  outer loop
   vertex 108.94 135.332 169.553
   vertex 108.658 134.456 169.857
   vertex 108.953 134.368 169.569
  endloop
 endfacet
 facet normal 0.808096 -0.0569485 0.586292
  outer loop
   vertex 108.718 135.456 169.871
   vertex 108.658 134.456 169.857
   vertex 108.94 135.332 169.553
  endloop
 endfacet
 facet normal 0.706529 -0.0385568 0.706633
  outer loop
   vertex 109.69 134.375 168.751
   vertex 109.731 135.475 168.77
   vertex 108.94 135.332 169.553
  endloop
 endfacet
 facet normal 0.742493 0.0207282 0.669533
  outer loop
   vertex 108.953 134.368 169.569
   vertex 109.69 134.375 168.751
   vertex 108.94 135.332 169.553
  endloop
 endfacet
 facet normal -0.666674 0.438405 0.602782
  outer loop
   vertex 105.556 136.189 169.782
   vertex 105.563 136.544 169.531
   vertex 104.791 136.451 168.746
  endloop
 endfacet
 facet normal -0.598938 0.550812 0.581274
  outer loop
   vertex 105.556 136.189 169.782
   vertex 104.791 136.451 168.746
   vertex 104.837 135.408 169.781
  endloop
 endfacet
 facet normal -0.993309 0.0563687 0.100799
  outer loop
   vertex 104.837 135.408 169.781
   vertex 104.791 136.451 168.746
   vertex 104.733 135.416 168.748
  endloop
 endfacet
 facet normal -0.672703 0.435354 0.598279
  outer loop
   vertex 105.556 136.189 169.782
   vertex 105.792 136.449 169.857
   vertex 105.563 136.544 169.531
  endloop
 endfacet
 facet normal 0.651124 -0.432563 0.62364
  outer loop
   vertex 108.94 135.332 169.553
   vertex 108.955 135.673 169.774
   vertex 108.718 135.456 169.871
  endloop
 endfacet
 facet normal 0.675413 -0.421595 0.605042
  outer loop
   vertex 108.955 135.673 169.774
   vertex 108.94 135.332 169.553
   vertex 109.731 135.475 168.77
  endloop
 endfacet
 facet normal 0.620118 -0.525276 0.582699
  outer loop
   vertex 108.955 135.673 169.774
   vertex 109.731 135.475 168.77
   vertex 109.68 136.473 169.724
  endloop
 endfacet
 facet normal 0.993882 -0.0455049 0.100634
  outer loop
   vertex 109.68 136.473 169.724
   vertex 109.731 135.475 168.77
   vertex 109.782 136.468 168.713
  endloop
 endfacet
 facet normal -0.707693 0.0656843 0.70346
  outer loop
   vertex 105.563 136.544 169.531
   vertex 105.59 137.528 169.467
   vertex 104.852 137.453 168.731
  endloop
 endfacet
 facet normal -0.715499 0.0535104 0.696562
  outer loop
   vertex 104.791 136.451 168.746
   vertex 105.563 136.544 169.531
   vertex 104.852 137.453 168.731
  endloop
 endfacet
 facet normal -0.807196 0.0702138 0.586092
  outer loop
   vertex 105.856 137.472 169.823
   vertex 105.563 136.544 169.531
   vertex 105.792 136.449 169.857
  endloop
 endfacet
 facet normal -0.795775 0.0614491 0.602467
  outer loop
   vertex 105.59 137.528 169.467
   vertex 105.563 136.544 169.531
   vertex 105.856 137.472 169.823
  endloop
 endfacet
 facet normal 0.0530404 -0.687301 0.724434
  outer loop
   vertex 109.973 136.79 168.769
   vertex 109.985 137.5 169.441
   vertex 109.017 137.493 169.506
  endloop
 endfacet
 facet normal 0.723719 0.557399 0.406862
  outer loop
   vertex 109.973 136.79 168.769
   vertex 109.017 137.493 169.506
   vertex 109.68 136.473 169.724
  endloop
 endfacet
 facet normal 0.850738 -0.518089 0.0884831
  outer loop
   vertex 109.973 136.79 168.769
   vertex 109.68 136.473 169.724
   vertex 109.782 136.468 168.713
  endloop
 endfacet
 facet normal 0.604603 0.521648 0.601945
  outer loop
   vertex 108.721 137.495 169.801
   vertex 109.68 136.473 169.724
   vertex 109.017 137.493 169.506
  endloop
 endfacet
 facet normal 0.578052 -0.566437 0.587372
  outer loop
   vertex 109.973 136.79 168.769
   vertex 110.689 137.501 168.75
   vertex 109.985 137.5 169.441
  endloop
 endfacet
 facet normal -0.576591 0.634858 0.514294
  outer loop
   vertex 104.852 137.453 168.731
   vertex 105.59 137.528 169.467
   vertex 105.623 138.245 168.618
  endloop
 endfacet
 facet normal -0.768311 0.503298 0.395461
  outer loop
   vertex 105.59 137.528 169.467
   vertex 105.912 138.519 168.83
   vertex 105.623 138.245 168.618
  endloop
 endfacet
 facet normal -0.622253 0.55585 0.55121
  outer loop
   vertex 105.59 137.528 169.467
   vertex 105.856 137.472 169.823
   vertex 105.912 138.519 168.83
  endloop
 endfacet
 facet normal -0.994213 0.0970038 0.0461507
  outer loop
   vertex 105.856 137.472 169.823
   vertex 105.955 138.494 169.814
   vertex 105.912 138.519 168.83
  endloop
 endfacet
 facet normal 0.551884 0.628224 0.548415
  outer loop
   vertex 108.888 138.272 168.743
   vertex 108.721 137.495 169.801
   vertex 109.017 137.493 169.506
  endloop
 endfacet
 facet normal 0.5355 0.638179 0.553143
  outer loop
   vertex 108.888 138.272 168.743
   vertex 108.577 138.519 168.759
   vertex 108.721 137.495 169.801
  endloop
 endfacet
 facet normal 0.992687 0.119141 -0.0194224
  outer loop
   vertex 108.577 138.519 168.759
   vertex 108.597 138.526 169.792
   vertex 108.721 137.495 169.801
  endloop
 endfacet
 facet normal 0.0472405 0.702557 0.710057
  outer loop
   vertex 109.925 138.203 168.742
   vertex 108.888 138.272 168.743
   vertex 109.017 137.493 169.506
  endloop
 endfacet
 facet normal 0.0418136 0.706088 0.706888
  outer loop
   vertex 109.985 137.5 169.441
   vertex 109.925 138.203 168.742
   vertex 109.017 137.493 169.506
  endloop
 endfacet
 facet normal 0.555143 0.609592 0.565875
  outer loop
   vertex 110.689 137.501 168.75
   vertex 109.925 138.203 168.742
   vertex 109.985 137.5 169.441
  endloop
 endfacet
 facet normal -0.705368 0.707149 0.0489653
  outer loop
   vertex 105.912 138.519 168.83
   vertex 105.955 138.494 169.814
   vertex 106.719 139.258 169.785
  endloop
 endfacet
 facet normal -0.654533 0.755385 -0.0313048
  outer loop
   vertex 106.774 139.264 168.769
   vertex 105.912 138.519 168.83
   vertex 106.719 139.258 169.785
  endloop
 endfacet
 facet normal 0.0115701 0.999196 -0.0383917
  outer loop
   vertex 107.819 139.253 168.798
   vertex 106.774 139.264 168.769
   vertex 107.783 139.291 169.791
  endloop
 endfacet
 facet normal -0.031568 0.999493 0.0041903
  outer loop
   vertex 106.774 139.264 168.769
   vertex 106.719 139.258 169.785
   vertex 107.783 139.291 169.791
  endloop
 endfacet
 facet normal 0.694955 0.718831 -0.0178872
  outer loop
   vertex 108.597 138.526 169.792
   vertex 108.577 138.519 168.759
   vertex 107.819 139.253 168.798
  endloop
 endfacet
 facet normal 0.68538 0.728177 -0.00354791
  outer loop
   vertex 107.783 139.291 169.791
   vertex 108.597 138.526 169.792
   vertex 107.819 139.253 168.798
  endloop
 endfacet
 facet normal -0.0589956 -0.719389 0.692098
  outer loop
   vertex 106.618 132.691 169.813
   vertex 107.796 132.558 169.775
   vertex 107.759 133.315 170.559
  endloop
 endfacet
 facet normal -0.0238697 -0.74851 0.662694
  outer loop
   vertex 106.798 133.358 170.573
   vertex 106.618 132.691 169.813
   vertex 107.759 133.315 170.559
  endloop
 endfacet
 facet normal 0.0412461 -0.72264 0.689992
  outer loop
   vertex 107.796 132.558 169.775
   vertex 108.882 132.568 169.72
   vertex 108.824 133.341 170.533
  endloop
 endfacet
 facet normal 0.0338788 -0.718014 0.695203
  outer loop
   vertex 107.759 133.315 170.559
   vertex 107.796 132.558 169.775
   vertex 108.824 133.341 170.533
  endloop
 endfacet
 facet normal 0.57423 -0.57258 0.585159
  outer loop
   vertex 108.882 132.568 169.72
   vertex 109.682 133.397 169.746
   vertex 108.824 133.341 170.533
  endloop
 endfacet
 facet normal -0.576503 -0.58541 0.570034
  outer loop
   vertex 106.618 132.691 169.813
   vertex 105.6 134.385 170.523
   vertex 104.835 134.354 169.718
  endloop
 endfacet
 facet normal -0.582495 -0.58613 0.563162
  outer loop
   vertex 106.618 132.691 169.813
   vertex 105.939 134.325 170.811
   vertex 105.6 134.385 170.523
  endloop
 endfacet
 facet normal -0.51061 -0.59275 0.622836
  outer loop
   vertex 106.618 132.691 169.813
   vertex 106.735 133.639 170.811
   vertex 105.939 134.325 170.811
  endloop
 endfacet
 facet normal -0.38583 -0.645951 0.658698
  outer loop
   vertex 106.618 132.691 169.813
   vertex 106.798 133.358 170.573
   vertex 106.735 133.639 170.811
  endloop
 endfacet
 facet normal 0.456858 -0.533495 0.711803
  outer loop
   vertex 106.735 133.639 170.811
   vertex 107.814 134.289 170.605
   vertex 107.511 134.395 170.88
  endloop
 endfacet
 facet normal 0.449914 -0.516678 0.728437
  outer loop
   vertex 106.735 133.639 170.811
   vertex 106.798 133.358 170.573
   vertex 107.814 134.289 170.605
  endloop
 endfacet
 facet normal 0.0125117 -0.0484249 0.998748
  outer loop
   vertex 106.798 133.358 170.573
   vertex 107.759 133.315 170.559
   vertex 107.814 134.289 170.605
  endloop
 endfacet
 facet normal 0.572025 0.375568 0.729203
  outer loop
   vertex 108.882 134.142 169.843
   vertex 108.658 134.456 169.857
   vertex 107.814 134.289 170.605
  endloop
 endfacet
 facet normal 0.540651 0.526314 0.65627
  outer loop
   vertex 108.882 134.142 169.843
   vertex 107.814 134.289 170.605
   vertex 108.824 133.341 170.533
  endloop
 endfacet
 facet normal 0.0249892 -0.0491176 0.99848
  outer loop
   vertex 108.824 133.341 170.533
   vertex 107.814 134.289 170.605
   vertex 107.759 133.315 170.559
  endloop
 endfacet
 facet normal 0.559884 0.517212 0.647319
  outer loop
   vertex 109.682 133.397 169.746
   vertex 108.882 134.142 169.843
   vertex 108.824 133.341 170.533
  endloop
 endfacet
 facet normal -0.701828 -0.00622943 0.712319
  outer loop
   vertex 105.6 134.385 170.523
   vertex 105.835 135.411 170.764
   vertex 104.837 135.408 169.781
  endloop
 endfacet
 facet normal -0.723738 -0.0395154 0.688943
  outer loop
   vertex 104.835 134.354 169.718
   vertex 105.6 134.385 170.523
   vertex 104.837 135.408 169.781
  endloop
 endfacet
 facet normal -0.650034 -0.0291931 0.759344
  outer loop
   vertex 105.835 135.411 170.764
   vertex 105.6 134.385 170.523
   vertex 105.939 134.325 170.811
  endloop
 endfacet
 facet normal 0.484085 -0.490021 0.724942
  outer loop
   vertex 107.814 134.289 170.605
   vertex 107.851 134.639 170.817
   vertex 107.511 134.395 170.88
  endloop
 endfacet
 facet normal 0.64159 -0.445812 0.624191
  outer loop
   vertex 107.851 134.639 170.817
   vertex 107.814 134.289 170.605
   vertex 108.658 134.456 169.857
  endloop
 endfacet
 facet normal 0.595127 -0.532624 0.601778
  outer loop
   vertex 107.851 134.639 170.817
   vertex 108.658 134.456 169.857
   vertex 108.581 135.456 170.818
  endloop
 endfacet
 facet normal 0.987803 -0.0615809 0.143013
  outer loop
   vertex 108.581 135.456 170.818
   vertex 108.658 134.456 169.857
   vertex 108.718 135.456 169.871
  endloop
 endfacet
 facet normal -0.590281 0.542803 0.597439
  outer loop
   vertex 104.837 135.408 169.781
   vertex 105.835 135.411 170.764
   vertex 105.556 136.189 169.782
  endloop
 endfacet
 facet normal -0.688464 0.460527 0.560296
  outer loop
   vertex 105.835 135.411 170.764
   vertex 105.792 136.449 169.857
   vertex 105.556 136.189 169.782
  endloop
 endfacet
 facet normal -0.986605 0.0816852 0.141206
  outer loop
   vertex 105.835 135.411 170.764
   vertex 105.926 136.422 170.816
   vertex 105.792 136.449 169.857
  endloop
 endfacet
 facet normal 0.674 -0.488805 0.553889
  outer loop
   vertex 108.908 136.431 170.501
   vertex 108.718 135.456 169.871
   vertex 108.955 135.673 169.774
  endloop
 endfacet
 facet normal 0.566666 -0.521951 0.63754
  outer loop
   vertex 108.908 136.431 170.501
   vertex 108.641 136.489 170.786
   vertex 108.718 135.456 169.871
  endloop
 endfacet
 facet normal 0.988311 -0.0525998 0.14309
  outer loop
   vertex 108.641 136.489 170.786
   vertex 108.581 135.456 170.818
   vertex 108.718 135.456 169.871
  endloop
 endfacet
 facet normal 0.618284 -0.523382 0.586341
  outer loop
   vertex 108.955 135.673 169.774
   vertex 109.68 136.473 169.724
   vertex 108.908 136.431 170.501
  endloop
 endfacet
 facet normal -0.652424 0.428598 0.625018
  outer loop
   vertex 106.648 137.23 170.816
   vertex 106.665 137.585 170.591
   vertex 105.856 137.472 169.823
  endloop
 endfacet
 facet normal -0.594575 0.530955 0.603794
  outer loop
   vertex 106.648 137.23 170.816
   vertex 105.856 137.472 169.823
   vertex 105.926 136.422 170.816
  endloop
 endfacet
 facet normal -0.987764 0.0667709 0.140941
  outer loop
   vertex 105.926 136.422 170.816
   vertex 105.856 137.472 169.823
   vertex 105.792 136.449 169.857
  endloop
 endfacet
 facet normal -0.556664 0.464317 0.688865
  outer loop
   vertex 106.648 137.23 170.816
   vertex 106.944 137.489 170.881
   vertex 106.665 137.585 170.591
  endloop
 endfacet
 facet normal 0.687898 0.479169 0.545154
  outer loop
   vertex 108.721 137.495 169.801
   vertex 108.641 136.489 170.786
   vertex 108.908 136.431 170.501
  endloop
 endfacet
 facet normal 0.993481 0.0289812 0.11025
  outer loop
   vertex 108.721 137.495 169.801
   vertex 108.606 137.561 170.815
   vertex 108.641 136.489 170.786
  endloop
 endfacet
 facet normal 0.595414 0.511691 0.619399
  outer loop
   vertex 109.68 136.473 169.724
   vertex 108.721 137.495 169.801
   vertex 108.908 136.431 170.501
  endloop
 endfacet
 facet normal -0.692248 0.0728727 0.717971
  outer loop
   vertex 106.665 137.585 170.591
   vertex 106.72 138.558 170.545
   vertex 105.955 138.494 169.814
  endloop
 endfacet
 facet normal -0.691483 0.0740014 0.718593
  outer loop
   vertex 105.856 137.472 169.823
   vertex 106.665 137.585 170.591
   vertex 105.955 138.494 169.814
  endloop
 endfacet
 facet normal -0.70906 0.0624047 0.702381
  outer loop
   vertex 107.014 138.468 170.864
   vertex 106.665 137.585 170.591
   vertex 106.944 137.489 170.881
  endloop
 endfacet
 facet normal -0.723654 0.073146 0.686276
  outer loop
   vertex 106.72 138.558 170.545
   vertex 106.665 137.585 170.591
   vertex 107.014 138.468 170.864
  endloop
 endfacet
 facet normal 0.987388 0.11967 0.103655
  outer loop
   vertex 108.721 137.495 169.801
   vertex 108.597 138.526 169.792
   vertex 108.606 137.561 170.815
  endloop
 endfacet
 facet normal 0.997428 0.0565583 0.0440291
  outer loop
   vertex 108.606 137.561 170.815
   vertex 108.597 138.526 169.792
   vertex 108.551 138.559 170.783
  endloop
 endfacet
 facet normal -0.578519 0.599381 0.553225
  outer loop
   vertex 105.955 138.494 169.814
   vertex 106.72 138.558 170.545
   vertex 106.719 139.258 169.785
  endloop
 endfacet
 facet normal -0.527332 0.556659 0.641913
  outer loop
   vertex 106.72 138.558 170.545
   vertex 107.014 138.468 170.864
   vertex 107.733 139.242 170.784
  endloop
 endfacet
 facet normal -0.548645 0.61441 0.567
  outer loop
   vertex 106.72 138.558 170.545
   vertex 107.733 139.242 170.784
   vertex 106.719 139.258 169.785
  endloop
 endfacet
 facet normal -0.0317952 0.998336 0.0481049
  outer loop
   vertex 106.719 139.258 169.785
   vertex 107.733 139.242 170.784
   vertex 107.783 139.291 169.791
  endloop
 endfacet
 facet normal 0.685365 0.728168 0.00683067
  outer loop
   vertex 108.551 138.559 170.783
   vertex 108.597 138.526 169.792
   vertex 107.783 139.291 169.791
  endloop
 endfacet
 facet normal 0.639336 0.765719 0.0701721
  outer loop
   vertex 107.733 139.242 170.784
   vertex 108.551 138.559 170.783
   vertex 107.783 139.291 169.791
  endloop
 endfacet
 facet normal -0.473074 -0.549211 0.68889
  outer loop
   vertex 106.735 133.639 170.811
   vertex 106.713 134.568 171.537
   vertex 105.939 134.325 170.811
  endloop
 endfacet
 facet normal 0.462774 -0.538848 0.703905
  outer loop
   vertex 106.735 133.639 170.811
   vertex 107.511 134.395 170.88
   vertex 106.713 134.568 171.537
  endloop
 endfacet
 facet normal -0.678108 -0.032958 0.734223
  outer loop
   vertex 105.939 134.325 170.811
   vertex 106.713 134.568 171.537
   vertex 105.835 135.411 170.764
  endloop
 endfacet
 facet normal 0.524399 -0.569959 0.632576
  outer loop
   vertex 107.511 134.395 170.88
   vertex 107.851 134.639 170.817
   vertex 107.78 135.39 171.553
  endloop
 endfacet
 facet normal 0.437937 -0.582079 0.685124
  outer loop
   vertex 107.511 134.395 170.88
   vertex 107.78 135.39 171.553
   vertex 106.713 134.568 171.537
  endloop
 endfacet
 facet normal 0.595303 -0.53278 0.601465
  outer loop
   vertex 107.851 134.639 170.817
   vertex 108.581 135.456 170.818
   vertex 107.78 135.39 171.553
  endloop
 endfacet
 facet normal -0.677673 -0.00147987 0.735361
  outer loop
   vertex 106.713 134.568 171.537
   vertex 106.718 136.487 171.546
   vertex 105.926 136.422 170.816
  endloop
 endfacet
 facet normal -0.649908 0.0197887 0.759755
  outer loop
   vertex 105.835 135.411 170.764
   vertex 106.713 134.568 171.537
   vertex 105.926 136.422 170.816
  endloop
 endfacet
 facet normal -0.0117757 -0.00403128 0.999923
  outer loop
   vertex 107.78 135.39 171.553
   vertex 107.773 137.355 171.561
   vertex 106.713 134.568 171.537
  endloop
 endfacet
 facet normal -0.0105129 -0.00451162 0.999935
  outer loop
   vertex 107.773 137.355 171.561
   vertex 106.718 136.487 171.546
   vertex 106.713 134.568 171.537
  endloop
 endfacet
 facet normal 0.657598 -0.0144749 0.75323
  outer loop
   vertex 108.581 135.456 170.818
   vertex 108.641 136.489 170.786
   vertex 107.773 137.355 171.561
  endloop
 endfacet
 facet normal 0.67602 -0.000239891 0.736883
  outer loop
   vertex 107.78 135.39 171.553
   vertex 108.581 135.456 170.818
   vertex 107.773 137.355 171.561
  endloop
 endfacet
 facet normal -0.596805 0.532945 0.599827
  outer loop
   vertex 105.926 136.422 170.816
   vertex 106.718 136.487 171.546
   vertex 106.648 137.23 170.816
  endloop
 endfacet
 facet normal -0.597038 0.532812 0.599714
  outer loop
   vertex 106.944 137.489 170.881
   vertex 106.648 137.23 170.816
   vertex 106.718 136.487 171.546
  endloop
 endfacet
 facet normal -0.469926 0.55933 0.682877
  outer loop
   vertex 106.944 137.489 170.881
   vertex 106.718 136.487 171.546
   vertex 107.773 137.355 171.561
  endloop
 endfacet
 facet normal 0.66656 0.00148326 0.74545
  outer loop
   vertex 108.641 136.489 170.786
   vertex 108.606 137.561 170.815
   vertex 107.773 137.355 171.561
  endloop
 endfacet
 facet normal -0.62448 0.0616392 0.778605
  outer loop
   vertex 107.773 137.355 171.561
   vertex 107.828 138.49 171.515
   vertex 107.014 138.468 170.864
  endloop
 endfacet
 facet normal -0.627793 0.0578914 0.776225
  outer loop
   vertex 106.944 137.489 170.881
   vertex 107.773 137.355 171.561
   vertex 107.014 138.468 170.864
  endloop
 endfacet
 facet normal 0.706861 0.0612717 0.704693
  outer loop
   vertex 108.606 137.561 170.815
   vertex 108.551 138.559 170.783
   vertex 107.828 138.49 171.515
  endloop
 endfacet
 facet normal 0.667092 -0.0024024 0.744972
  outer loop
   vertex 107.773 137.355 171.561
   vertex 108.606 137.561 170.815
   vertex 107.828 138.49 171.515
  endloop
 endfacet
 facet normal -0.527931 0.557124 0.641016
  outer loop
   vertex 107.014 138.468 170.864
   vertex 107.828 138.49 171.515
   vertex 107.733 139.242 170.784
  endloop
 endfacet
 facet normal 0.523719 0.626677 0.577056
  outer loop
   vertex 108.551 138.559 170.783
   vertex 107.733 139.242 170.784
   vertex 107.828 138.49 171.515
  endloop
 endfacet
endsolid
