solid ascii
 facet normal -0.525044 -0.561602 -0.639477
  outer loop
   vertex 116.675 119.812 158.724
   vertex 116.612 119.101 159.401
   vertex 115.902 119.806 159.365
  endloop
 endfacet
 facet normal 0.0208607 -0.674237 -0.738221
  outer loop
   vertex 116.675 119.812 158.724
   vertex 117.713 119.84 158.728
   vertex 117.648 119.142 159.364
  endloop
 endfacet
 facet normal 0.0013534 -0.689376 -0.724403
  outer loop
   vertex 116.612 119.101 159.401
   vertex 116.675 119.812 158.724
   vertex 117.648 119.142 159.364
  endloop
 endfacet
 facet normal 0.555643 -0.587511 -0.588296
  outer loop
   vertex 117.648 119.142 159.364
   vertex 117.713 119.84 158.728
   vertex 118.387 119.778 159.426
  endloop
 endfacet
 facet normal -0.552567 0.505465 -0.662703
  outer loop
   vertex 116.675 119.812 158.724
   vertex 115.902 119.806 159.365
   vertex 116.543 120.827 159.609
  endloop
 endfacet
 facet normal -0.390204 0.762452 -0.516146
  outer loop
   vertex 116.543 120.827 159.609
   vertex 116.955 120.899 159.404
   vertex 117.633 120.792 158.733
  endloop
 endfacet
 facet normal -0.525116 0.519175 -0.674322
  outer loop
   vertex 116.543 120.827 159.609
   vertex 117.633 120.792 158.733
   vertex 116.675 119.812 158.724
  endloop
 endfacet
 facet normal 0.00335385 0.00534679 -0.99998
  outer loop
   vertex 116.675 119.812 158.724
   vertex 117.633 120.792 158.733
   vertex 117.713 119.84 158.728
  endloop
 endfacet
 facet normal 0.717529 -0.0388301 -0.695445
  outer loop
   vertex 118.413 120.761 159.399
   vertex 118.387 119.778 159.426
   vertex 117.713 119.84 158.728
  endloop
 endfacet
 facet normal 0.649699 0.0583451 -0.757949
  outer loop
   vertex 117.633 120.792 158.733
   vertex 118.413 120.761 159.399
   vertex 117.713 119.84 158.728
  endloop
 endfacet
 facet normal -0.481477 0.647967 -0.590185
  outer loop
   vertex 117.633 120.792 158.733
   vertex 116.955 120.899 159.404
   vertex 117.691 121.489 159.451
  endloop
 endfacet
 facet normal 0.542019 0.581089 -0.607084
  outer loop
   vertex 118.413 120.761 159.399
   vertex 117.633 120.792 158.733
   vertex 117.691 121.489 159.451
  endloop
 endfacet
 facet normal -0.527431 -0.608706 -0.5927
  outer loop
   vertex 115.499 118.777 159.688
   vertex 115.46 118.053 160.467
   vertex 114.379 119.017 160.438
  endloop
 endfacet
 facet normal 0.0198002 -0.715758 -0.698067
  outer loop
   vertex 115.499 118.777 159.688
   vertex 116.589 118.779 159.717
   vertex 116.522 118.083 160.429
  endloop
 endfacet
 facet normal -0.00378154 -0.732289 -0.680983
  outer loop
   vertex 115.46 118.053 160.467
   vertex 115.499 118.777 159.688
   vertex 116.522 118.083 160.429
  endloop
 endfacet
 facet normal 0.549825 -0.622474 -0.556973
  outer loop
   vertex 116.522 118.083 160.429
   vertex 116.589 118.779 159.717
   vertex 117.294 118.743 160.454
  endloop
 endfacet
 facet normal -0.521215 -0.57544 -0.630241
  outer loop
   vertex 114.437 119.826 159.653
   vertex 114.379 119.017 160.438
   vertex 113.583 119.812 160.371
  endloop
 endfacet
 facet normal -0.538779 -0.567124 -0.622967
  outer loop
   vertex 114.379 119.017 160.438
   vertex 114.437 119.826 159.653
   vertex 115.499 118.777 159.688
  endloop
 endfacet
 facet normal -0.0635382 -0.0980612 -0.99315
  outer loop
   vertex 115.499 118.777 159.688
   vertex 114.437 119.826 159.653
   vertex 115.566 119.774 159.586
  endloop
 endfacet
 facet normal -0.446409 -0.488076 -0.750001
  outer loop
   vertex 116.612 119.101 159.401
   vertex 115.566 119.774 159.586
   vertex 115.902 119.806 159.365
  endloop
 endfacet
 facet normal -0.493103 -0.591526 -0.637923
  outer loop
   vertex 116.612 119.101 159.401
   vertex 116.589 118.779 159.717
   vertex 115.566 119.774 159.586
  endloop
 endfacet
 facet normal 0.0266299 -0.104188 -0.994201
  outer loop
   vertex 116.589 118.779 159.717
   vertex 115.499 118.777 159.688
   vertex 115.566 119.774 159.586
  endloop
 endfacet
 facet normal 0.505065 -0.69073 -0.517496
  outer loop
   vertex 116.589 118.779 159.717
   vertex 117.678 119.063 160.402
   vertex 117.294 118.743 160.454
  endloop
 endfacet
 facet normal 0.528494 -0.613506 -0.586775
  outer loop
   vertex 116.589 118.779 159.717
   vertex 116.612 119.101 159.401
   vertex 117.678 119.063 160.402
  endloop
 endfacet
 facet normal 0.0365537 -0.996318 -0.0775555
  outer loop
   vertex 116.612 119.101 159.401
   vertex 117.648 119.142 159.364
   vertex 117.678 119.063 160.402
  endloop
 endfacet
 facet normal 0.654276 -0.752348 -0.0767836
  outer loop
   vertex 117.678 119.063 160.402
   vertex 117.648 119.142 159.364
   vertex 118.387 119.778 159.426
  endloop
 endfacet
 facet normal 0.671333 -0.739134 -0.054711
  outer loop
   vertex 118.528 119.831 160.446
   vertex 117.678 119.063 160.402
   vertex 118.387 119.778 159.426
  endloop
 endfacet
 facet normal -0.542333 -0.555438 -0.630368
  outer loop
   vertex 113.332 120.84 159.695
   vertex 113.264 120.1 160.405
   vertex 112.263 120.782 160.665
  endloop
 endfacet
 facet normal -0.56017 -0.546372 -0.622645
  outer loop
   vertex 113.583 119.812 160.371
   vertex 113.264 120.1 160.405
   vertex 113.332 120.84 159.695
  endloop
 endfacet
 facet normal -0.53163 -0.552257 -0.642169
  outer loop
   vertex 113.583 119.812 160.371
   vertex 113.332 120.84 159.695
   vertex 114.437 119.826 159.653
  endloop
 endfacet
 facet normal -0.0856784 -0.0523437 -0.994947
  outer loop
   vertex 114.437 119.826 159.653
   vertex 113.332 120.84 159.695
   vertex 114.439 120.871 159.598
  endloop
 endfacet
 facet normal -0.0592457 0.00196173 -0.998242
  outer loop
   vertex 115.566 119.774 159.586
   vertex 114.437 119.826 159.653
   vertex 115.461 120.796 159.594
  endloop
 endfacet
 facet normal -0.00751028 -0.0527091 -0.998582
  outer loop
   vertex 115.461 120.796 159.594
   vertex 114.437 119.826 159.653
   vertex 114.439 120.871 159.598
  endloop
 endfacet
 facet normal -0.511641 0.490079 -0.705724
  outer loop
   vertex 115.902 119.806 159.365
   vertex 115.566 119.774 159.586
   vertex 116.543 120.827 159.609
  endloop
 endfacet
 facet normal 0.0137149 0.00945426 -0.999861
  outer loop
   vertex 115.566 119.774 159.586
   vertex 115.461 120.796 159.594
   vertex 116.543 120.827 159.609
  endloop
 endfacet
 facet normal 0.990293 -0.0306928 -0.135561
  outer loop
   vertex 118.387 119.778 159.426
   vertex 118.413 120.761 159.399
   vertex 118.528 119.831 160.446
  endloop
 endfacet
 facet normal 0.996393 0.0363529 -0.0766744
  outer loop
   vertex 118.528 119.831 160.446
   vertex 118.413 120.761 159.399
   vertex 118.488 120.865 160.419
  endloop
 endfacet
 facet normal -0.613019 -0.501902 -0.610166
  outer loop
   vertex 112.266 121.847 159.742
   vertex 112.132 121.158 160.443
   vertex 111.487 121.901 160.48
  endloop
 endfacet
 facet normal -0.509763 -0.563044 -0.650479
  outer loop
   vertex 112.263 120.782 160.665
   vertex 112.132 121.158 160.443
   vertex 112.266 121.847 159.742
  endloop
 endfacet
 facet normal -0.545709 -0.548336 -0.633664
  outer loop
   vertex 112.263 120.782 160.665
   vertex 112.266 121.847 159.742
   vertex 113.332 120.84 159.695
  endloop
 endfacet
 facet normal -0.11328 -0.0737393 -0.990823
  outer loop
   vertex 113.332 120.84 159.695
   vertex 112.266 121.847 159.742
   vertex 113.3 121.873 159.621
  endloop
 endfacet
 facet normal -0.0879861 0.0280935 -0.995725
  outer loop
   vertex 114.439 120.871 159.598
   vertex 113.332 120.84 159.695
   vertex 114.336 121.895 159.636
  endloop
 endfacet
 facet normal 0.0152324 -0.0702289 -0.997415
  outer loop
   vertex 114.336 121.895 159.636
   vertex 113.332 120.84 159.695
   vertex 113.3 121.873 159.621
  endloop
 endfacet
 facet normal 0.00179179 0.0733336 -0.997306
  outer loop
   vertex 115.461 120.796 159.594
   vertex 114.439 120.871 159.598
   vertex 115.464 121.835 159.67
  endloop
 endfacet
 facet normal 0.0329241 0.0403208 -0.998644
  outer loop
   vertex 115.464 121.835 159.67
   vertex 114.439 120.871 159.598
   vertex 114.336 121.895 159.636
  endloop
 endfacet
 facet normal 0.477319 0.599495 -0.642474
  outer loop
   vertex 116.312 121.855 160.397
   vertex 116.672 121.596 160.422
   vertex 116.543 120.827 159.609
  endloop
 endfacet
 facet normal 0.516583 0.590854 -0.619704
  outer loop
   vertex 116.312 121.855 160.397
   vertex 116.543 120.827 159.609
   vertex 115.464 121.835 159.67
  endloop
 endfacet
 facet normal 0.0118039 0.0733009 -0.99724
  outer loop
   vertex 115.464 121.835 159.67
   vertex 116.543 120.827 159.609
   vertex 115.461 120.796 159.594
  endloop
 endfacet
 facet normal -0.414615 0.693315 -0.589414
  outer loop
   vertex 116.955 120.899 159.404
   vertex 116.543 120.827 159.609
   vertex 116.672 121.596 160.422
  endloop
 endfacet
 facet normal -0.485807 0.65268 -0.581377
  outer loop
   vertex 116.955 120.899 159.404
   vertex 116.672 121.596 160.422
   vertex 117.691 121.489 159.451
  endloop
 endfacet
 facet normal 0.0377945 0.996783 -0.0706735
  outer loop
   vertex 117.691 121.489 159.451
   vertex 116.672 121.596 160.422
   vertex 117.728 121.558 160.455
  endloop
 endfacet
 facet normal 0.699858 0.703594 -0.123101
  outer loop
   vertex 118.488 120.865 160.419
   vertex 118.413 120.761 159.399
   vertex 117.691 121.489 159.451
  endloop
 endfacet
 facet normal 0.670066 0.738383 -0.0761697
  outer loop
   vertex 117.728 121.558 160.455
   vertex 118.488 120.865 160.419
   vertex 117.691 121.489 159.451
  endloop
 endfacet
 facet normal -0.576379 0.501315 -0.645345
  outer loop
   vertex 112.266 121.847 159.742
   vertex 111.487 121.901 160.48
   vertex 112.229 122.59 160.353
  endloop
 endfacet
 facet normal -0.527838 0.556767 -0.641403
  outer loop
   vertex 112.229 122.59 160.353
   vertex 112.446 122.919 160.459
   vertex 113.271 122.846 159.718
  endloop
 endfacet
 facet normal -0.534059 0.520592 -0.666157
  outer loop
   vertex 112.229 122.59 160.353
   vertex 113.271 122.846 159.718
   vertex 112.266 121.847 159.742
  endloop
 endfacet
 facet normal -0.117345 0.0941479 -0.988618
  outer loop
   vertex 112.266 121.847 159.742
   vertex 113.271 122.846 159.718
   vertex 113.3 121.873 159.621
  endloop
 endfacet
 facet normal 0.449135 0.609887 -0.652929
  outer loop
   vertex 114.085 122.897 160.399
   vertex 114.471 122.674 160.456
   vertex 114.336 121.895 159.636
  endloop
 endfacet
 facet normal 0.489568 0.602684 -0.630155
  outer loop
   vertex 114.085 122.897 160.399
   vertex 114.336 121.895 159.636
   vertex 113.271 122.846 159.718
  endloop
 endfacet
 facet normal 0.0116389 0.0987029 -0.995049
  outer loop
   vertex 113.271 122.846 159.718
   vertex 114.336 121.895 159.636
   vertex 113.3 121.873 159.621
  endloop
 endfacet
 facet normal 0.0597962 0.718871 -0.692567
  outer loop
   vertex 115.464 121.835 159.67
   vertex 114.336 121.895 159.636
   vertex 114.471 122.674 160.456
  endloop
 endfacet
 facet normal 0.0574535 0.717558 -0.694125
  outer loop
   vertex 115.524 122.597 160.463
   vertex 115.464 121.835 159.67
   vertex 114.471 122.674 160.456
  endloop
 endfacet
 facet normal 0.512295 0.599505 -0.614937
  outer loop
   vertex 116.312 121.855 160.397
   vertex 115.464 121.835 159.67
   vertex 115.524 122.597 160.463
  endloop
 endfacet
 facet normal -0.487659 0.63045 -0.603922
  outer loop
   vertex 113.271 122.846 159.718
   vertex 112.446 122.919 160.459
   vertex 113.293 123.601 160.488
  endloop
 endfacet
 facet normal 0.480541 0.619604 -0.620623
  outer loop
   vertex 114.085 122.897 160.399
   vertex 113.271 122.846 159.718
   vertex 113.293 123.601 160.488
  endloop
 endfacet
 facet normal -0.627612 -0.778398 0.014097
  outer loop
   vertex 115.46 118.053 160.467
   vertex 115.544 118.005 161.567
   vertex 114.441 118.892 161.462
  endloop
 endfacet
 facet normal -0.664257 -0.745764 -0.0509805
  outer loop
   vertex 114.379 119.017 160.438
   vertex 115.46 118.053 160.467
   vertex 114.441 118.892 161.462
  endloop
 endfacet
 facet normal 0.615677 -0.70404 0.353935
  outer loop
   vertex 116.58 118.702 161.153
   vertex 116.378 118.697 161.494
   vertex 115.544 118.005 161.567
  endloop
 endfacet
 facet normal 0.613604 -0.623733 0.484198
  outer loop
   vertex 116.58 118.702 161.153
   vertex 115.544 118.005 161.567
   vertex 116.522 118.083 160.429
  endloop
 endfacet
 facet normal 0.0268703 -0.998585 -0.0459011
  outer loop
   vertex 116.522 118.083 160.429
   vertex 115.544 118.005 161.567
   vertex 115.46 118.053 160.467
  endloop
 endfacet
 facet normal 0.545194 -0.658242 0.519116
  outer loop
   vertex 116.522 118.083 160.429
   vertex 117.294 118.743 160.454
   vertex 116.58 118.702 161.153
  endloop
 endfacet
 facet normal -0.543129 -0.643254 -0.539662
  outer loop
   vertex 113.285 119.785 160.705
   vertex 113.344 119.074 161.493
   vertex 112.522 119.812 161.441
  endloop
 endfacet
 facet normal -0.564426 -0.612249 -0.553691
  outer loop
   vertex 113.285 119.785 160.705
   vertex 113.583 119.812 160.371
   vertex 114.379 119.017 160.438
  endloop
 endfacet
 facet normal -0.570569 -0.630569 -0.52615
  outer loop
   vertex 113.285 119.785 160.705
   vertex 114.379 119.017 160.438
   vertex 113.344 119.074 161.493
  endloop
 endfacet
 facet normal -0.165576 -0.98006 -0.109847
  outer loop
   vertex 113.344 119.074 161.493
   vertex 114.379 119.017 160.438
   vertex 114.441 118.892 161.462
  endloop
 endfacet
 facet normal 0.660409 -0.646925 0.381245
  outer loop
   vertex 116.58 118.702 161.153
   vertex 116.682 118.949 161.393
   vertex 116.378 118.697 161.494
  endloop
 endfacet
 facet normal 0.521247 -0.69703 0.492394
  outer loop
   vertex 117.294 118.743 160.454
   vertex 116.682 118.949 161.393
   vertex 116.58 118.702 161.153
  endloop
 endfacet
 facet normal 0.587503 -0.620996 0.518849
  outer loop
   vertex 117.294 118.743 160.454
   vertex 117.678 119.063 160.402
   vertex 116.682 118.949 161.393
  endloop
 endfacet
 facet normal 0.0644507 -0.996681 -0.0497255
  outer loop
   vertex 117.678 119.063 160.402
   vertex 117.662 119.01 161.434
   vertex 116.682 118.949 161.393
  endloop
 endfacet
 facet normal 0.56538 -0.592336 -0.574007
  outer loop
   vertex 118.528 119.831 160.446
   vertex 118.713 119.07 161.413
   vertex 117.678 119.063 160.402
  endloop
 endfacet
 facet normal 0.05621 -0.997172 -0.0498794
  outer loop
   vertex 117.678 119.063 160.402
   vertex 118.713 119.07 161.413
   vertex 117.662 119.01 161.434
  endloop
 endfacet
 facet normal 0.566532 -0.59159 -0.57364
  outer loop
   vertex 118.713 119.07 161.413
   vertex 118.528 119.831 160.446
   vertex 119.505 119.642 161.605
  endloop
 endfacet
 facet normal -0.568296 -0.614006 -0.547755
  outer loop
   vertex 112.263 120.782 160.665
   vertex 112.17 120.1 161.527
   vertex 111.443 120.882 161.405
  endloop
 endfacet
 facet normal -0.610666 -0.587315 -0.531176
  outer loop
   vertex 112.522 119.812 161.441
   vertex 112.17 120.1 161.527
   vertex 112.263 120.782 160.665
  endloop
 endfacet
 facet normal -0.565402 -0.601644 -0.56422
  outer loop
   vertex 113.285 119.785 160.705
   vertex 112.522 119.812 161.441
   vertex 112.263 120.782 160.665
  endloop
 endfacet
 facet normal -0.555274 -0.592062 -0.584067
  outer loop
   vertex 113.285 119.785 160.705
   vertex 112.263 120.782 160.665
   vertex 113.264 120.1 160.405
  endloop
 endfacet
 facet normal -0.584075 -0.579245 -0.568622
  outer loop
   vertex 113.583 119.812 160.371
   vertex 113.285 119.785 160.705
   vertex 113.264 120.1 160.405
  endloop
 endfacet
 facet normal 0.757499 -0.067709 -0.649316
  outer loop
   vertex 119.473 120.759 161.451
   vertex 119.505 119.642 161.605
   vertex 118.528 119.831 160.446
  endloop
 endfacet
 facet normal 0.72412 0.00992761 -0.689603
  outer loop
   vertex 118.488 120.865 160.419
   vertex 119.473 120.759 161.451
   vertex 118.528 119.831 160.446
  endloop
 endfacet
 facet normal -0.59384 -0.553144 -0.584283
  outer loop
   vertex 112.132 121.158 160.443
   vertex 112.263 120.782 160.665
   vertex 111.443 120.882 161.405
  endloop
 endfacet
 facet normal -0.622514 -0.510991 -0.59276
  outer loop
   vertex 112.132 121.158 160.443
   vertex 111.443 120.882 161.405
   vertex 111.487 121.901 160.48
  endloop
 endfacet
 facet normal -0.991785 -0.0594304 -0.113272
  outer loop
   vertex 111.487 121.901 160.48
   vertex 111.443 120.882 161.405
   vertex 111.375 121.837 161.496
  endloop
 endfacet
 facet normal 0.643298 0.764127 -0.0477144
  outer loop
   vertex 116.672 121.596 160.422
   vertex 116.371 121.909 161.373
   vertex 116.685 121.651 161.486
  endloop
 endfacet
 facet normal 0.58586 0.806467 -0.0798662
  outer loop
   vertex 116.312 121.855 160.397
   vertex 116.371 121.909 161.373
   vertex 116.672 121.596 160.422
  endloop
 endfacet
 facet normal 0.0358567 0.999345 -0.00489917
  outer loop
   vertex 117.728 121.558 160.455
   vertex 116.672 121.596 160.422
   vertex 117.663 121.565 161.411
  endloop
 endfacet
 facet normal 0.0834393 0.995116 -0.0527373
  outer loop
   vertex 116.672 121.596 160.422
   vertex 116.685 121.651 161.486
   vertex 117.663 121.565 161.411
  endloop
 endfacet
 facet normal 0.562737 0.643747 -0.518572
  outer loop
   vertex 118.488 120.865 160.419
   vertex 117.728 121.558 160.455
   vertex 118.713 121.49 161.44
  endloop
 endfacet
 facet normal 0.0715148 0.997437 -0.00245851
  outer loop
   vertex 118.713 121.49 161.44
   vertex 117.728 121.558 160.455
   vertex 117.663 121.565 161.411
  endloop
 endfacet
 facet normal 0.600806 0.615731 -0.509812
  outer loop
   vertex 119.473 120.759 161.451
   vertex 118.488 120.865 160.419
   vertex 118.713 121.49 161.44
  endloop
 endfacet
 facet normal -0.629987 0.583212 -0.512816
  outer loop
   vertex 112.446 122.919 160.459
   vertex 112.229 122.59 160.353
   vertex 111.487 121.901 160.48
  endloop
 endfacet
 facet normal -0.615785 0.569177 -0.544836
  outer loop
   vertex 112.446 122.919 160.459
   vertex 111.487 121.901 160.48
   vertex 111.477 122.848 161.481
  endloop
 endfacet
 facet normal -0.989787 0.0983555 -0.103188
  outer loop
   vertex 111.477 122.848 161.481
   vertex 111.487 121.901 160.48
   vertex 111.375 121.837 161.496
  endloop
 endfacet
 facet normal 0.466159 0.879714 -0.0938045
  outer loop
   vertex 114.471 122.674 160.456
   vertex 114.115 122.958 161.348
   vertex 114.426 122.808 161.489
  endloop
 endfacet
 facet normal 0.506122 0.859501 -0.0714105
  outer loop
   vertex 114.085 122.897 160.399
   vertex 114.115 122.958 161.348
   vertex 114.471 122.674 160.456
  endloop
 endfacet
 facet normal 0.0737192 0.993497 -0.0867711
  outer loop
   vertex 115.524 122.597 160.463
   vertex 114.471 122.674 160.456
   vertex 115.523 122.685 161.465
  endloop
 endfacet
 facet normal 0.10876 0.986401 -0.123222
  outer loop
   vertex 114.471 122.674 160.456
   vertex 114.426 122.808 161.489
   vertex 115.523 122.685 161.465
  endloop
 endfacet
 facet normal 0.679467 0.729199 -0.0811993
  outer loop
   vertex 116.371 121.909 161.373
   vertex 116.312 121.855 160.397
   vertex 115.524 122.597 160.463
  endloop
 endfacet
 facet normal 0.669663 0.739904 -0.063972
  outer loop
   vertex 115.523 122.685 161.465
   vertex 116.371 121.909 161.373
   vertex 115.524 122.597 160.463
  endloop
 endfacet
 facet normal -0.597548 0.606054 -0.52501
  outer loop
   vertex 112.446 122.919 160.459
   vertex 111.477 122.848 161.481
   vertex 112.285 123.62 161.452
  endloop
 endfacet
 facet normal -0.513128 0.659661 -0.549133
  outer loop
   vertex 112.446 122.919 160.459
   vertex 112.285 123.62 161.452
   vertex 113.293 123.601 160.488
  endloop
 endfacet
 facet normal -0.0445307 0.996849 -0.065643
  outer loop
   vertex 113.293 123.601 160.488
   vertex 112.285 123.62 161.452
   vertex 113.359 123.67 161.489
  endloop
 endfacet
 facet normal 0.658384 0.749503 -0.0691006
  outer loop
   vertex 114.115 122.958 161.348
   vertex 114.085 122.897 160.399
   vertex 113.293 123.601 160.488
  endloop
 endfacet
 facet normal 0.672897 0.733627 -0.0948672
  outer loop
   vertex 113.359 123.67 161.489
   vertex 114.115 122.958 161.348
   vertex 113.293 123.601 160.488
  endloop
 endfacet
 facet normal -0.491077 -0.616037 -0.615908
  outer loop
   vertex 117.708 117.757 161.814
   vertex 117.678 117.011 162.584
   vertex 116.91 117.727 162.481
  endloop
 endfacet
 facet normal 0.518936 -0.624035 -0.584197
  outer loop
   vertex 117.678 117.011 162.584
   vertex 117.708 117.757 161.814
   vertex 118.728 117.083 163.44
  endloop
 endfacet
 facet normal -0.556669 -0.587551 -0.587285
  outer loop
   vertex 112.2 118.75 161.861
   vertex 112.2 118.111 162.5
   vertex 111.525 118.75 162.5
  endloop
 endfacet
 facet normal 0.556673 -0.587549 -0.587283
  outer loop
   vertex 112.2 118.111 162.5
   vertex 112.2 118.75 161.861
   vertex 112.875 118.75 162.5
  endloop
 endfacet
 facet normal -0.629102 -0.775315 0.0558435
  outer loop
   vertex 114.441 118.892 161.462
   vertex 115.544 118.005 161.567
   vertex 114.678 118.775 162.494
  endloop
 endfacet
 facet normal 0.35941 -0.704282 -0.612219
  outer loop
   vertex 116.378 118.697 161.494
   vertex 116.689 118.687 161.688
   vertex 116.578 117.946 162.475
  endloop
 endfacet
 facet normal 0.483753 -0.644668 -0.591934
  outer loop
   vertex 116.378 118.697 161.494
   vertex 116.578 117.946 162.475
   vertex 115.544 118.005 161.567
  endloop
 endfacet
 facet normal -0.407809 -0.63559 -0.655528
  outer loop
   vertex 116.91 117.727 162.481
   vertex 116.578 117.946 162.475
   vertex 116.689 118.687 161.688
  endloop
 endfacet
 facet normal -0.489093 -0.619799 -0.613708
  outer loop
   vertex 116.91 117.727 162.481
   vertex 116.689 118.687 161.688
   vertex 117.708 117.757 161.814
  endloop
 endfacet
 facet normal -0.0120234 -0.147157 -0.98904
  outer loop
   vertex 117.708 117.757 161.814
   vertex 116.689 118.687 161.688
   vertex 117.739 118.732 161.669
  endloop
 endfacet
 facet normal 0.532395 -0.61006 -0.586841
  outer loop
   vertex 118.745 118.695 161.779
   vertex 118.728 117.083 163.44
   vertex 117.708 117.757 161.814
  endloop
 endfacet
 facet normal 0.102498 -0.149857 -0.98338
  outer loop
   vertex 118.745 118.695 161.779
   vertex 117.708 117.757 161.814
   vertex 117.739 118.732 161.669
  endloop
 endfacet
 facet normal -0.556288 0.587725 -0.587472
  outer loop
   vertex 112.2 118.75 161.861
   vertex 111.525 118.75 162.5
   vertex 112.2 119.389 162.5
  endloop
 endfacet
 facet normal -0.66688 -0.744764 -0.0244393
  outer loop
   vertex 112.504 119.794 162.475
   vertex 112.522 119.812 161.441
   vertex 113.344 119.074 161.493
  endloop
 endfacet
 facet normal -0.667654 -0.74403 -0.02564
  outer loop
   vertex 112.504 119.794 162.475
   vertex 113.344 119.074 161.493
   vertex 113.32 119.059 162.562
  endloop
 endfacet
 facet normal 0.556292 0.587722 -0.58747
  outer loop
   vertex 112.875 118.75 162.5
   vertex 112.2 118.75 161.861
   vertex 112.2 119.389 162.5
  endloop
 endfacet
 facet normal -0.160304 -0.982894 0.0906746
  outer loop
   vertex 114.441 118.892 161.462
   vertex 114.375 118.998 162.495
   vertex 113.344 119.074 161.493
  endloop
 endfacet
 facet normal -0.0583665 -0.998176 -0.0154286
  outer loop
   vertex 113.344 119.074 161.493
   vertex 114.375 118.998 162.495
   vertex 113.32 119.059 162.562
  endloop
 endfacet
 facet normal -0.593856 -0.803335 0.0445839
  outer loop
   vertex 114.375 118.998 162.495
   vertex 114.441 118.892 161.462
   vertex 114.678 118.775 162.494
  endloop
 endfacet
 facet normal 0.366073 -0.691971 -0.622228
  outer loop
   vertex 116.378 118.697 161.494
   vertex 116.682 118.949 161.393
   vertex 116.689 118.687 161.688
  endloop
 endfacet
 facet normal 0.0739641 -0.744806 -0.663169
  outer loop
   vertex 117.662 119.01 161.434
   vertex 116.689 118.687 161.688
   vertex 116.682 118.949 161.393
  endloop
 endfacet
 facet normal 0.0133418 -0.642972 -0.765773
  outer loop
   vertex 117.739 118.732 161.669
   vertex 116.689 118.687 161.688
   vertex 117.662 119.01 161.434
  endloop
 endfacet
 facet normal 0.0215969 -0.64155 -0.766777
  outer loop
   vertex 118.713 119.07 161.413
   vertex 117.739 118.732 161.669
   vertex 117.662 119.01 161.434
  endloop
 endfacet
 facet normal 0.053511 -0.695444 -0.716585
  outer loop
   vertex 118.745 118.695 161.779
   vertex 117.739 118.732 161.669
   vertex 118.713 119.07 161.413
  endloop
 endfacet
 facet normal 0.552936 -0.55737 -0.619355
  outer loop
   vertex 118.745 118.695 161.779
   vertex 118.713 119.07 161.413
   vertex 119.505 119.642 161.605
  endloop
 endfacet
 facet normal -0.699864 -0.713896 0.0233091
  outer loop
   vertex 112.17 120.1 161.527
   vertex 112.191 120.112 162.528
   vertex 111.434 120.851 162.43
  endloop
 endfacet
 facet normal -0.729936 -0.682985 -0.0269171
  outer loop
   vertex 111.443 120.882 161.405
   vertex 112.17 120.1 161.527
   vertex 111.434 120.851 162.43
  endloop
 endfacet
 facet normal -0.637075 -0.770416 -0.024375
  outer loop
   vertex 112.504 119.794 162.475
   vertex 112.17 120.1 161.527
   vertex 112.522 119.812 161.441
  endloop
 endfacet
 facet normal -0.710797 -0.703008 0.0234009
  outer loop
   vertex 112.191 120.112 162.528
   vertex 112.17 120.1 161.527
   vertex 112.504 119.794 162.475
  endloop
 endfacet
 facet normal 0.615965 0.592042 0.519686
  outer loop
   vertex 117.736 120.897 162.191
   vertex 117.432 120.901 162.547
   vertex 117.66 120.634 162.581
  endloop
 endfacet
 facet normal 0.0731258 0.781555 0.619535
  outer loop
   vertex 117.736 120.897 162.191
   vertex 118.73 120.513 162.559
   vertex 118.812 120.811 162.173
  endloop
 endfacet
 facet normal 0.104189 0.814817 0.570278
  outer loop
   vertex 117.66 120.634 162.581
   vertex 118.73 120.513 162.559
   vertex 117.736 120.897 162.191
  endloop
 endfacet
 facet normal 0.556207 0.596082 0.579069
  outer loop
   vertex 118.812 120.811 162.173
   vertex 118.73 120.513 162.559
   vertex 119.526 119.843 162.484
  endloop
 endfacet
 facet normal 0.605556 0.610493 0.51049
  outer loop
   vertex 118.812 120.811 162.173
   vertex 119.526 119.843 162.484
   vertex 119.473 120.759 161.451
  endloop
 endfacet
 facet normal 0.999251 0.0246297 -0.0298365
  outer loop
   vertex 119.473 120.759 161.451
   vertex 119.526 119.843 162.484
   vertex 119.505 119.642 161.605
  endloop
 endfacet
 facet normal -0.997516 -0.0695854 -0.0109282
  outer loop
   vertex 111.443 120.882 161.405
   vertex 111.434 120.851 162.43
   vertex 111.375 121.837 161.496
  endloop
 endfacet
 facet normal -0.995961 0.0230874 0.0867629
  outer loop
   vertex 111.434 120.851 162.43
   vertex 111.465 121.866 162.514
   vertex 111.375 121.837 161.496
  endloop
 endfacet
 facet normal 0.662309 0.628293 -0.40816
  outer loop
   vertex 116.685 121.651 161.486
   vertex 116.371 121.909 161.373
   vertex 116.582 121.924 161.738
  endloop
 endfacet
 facet normal 0.754574 0.133769 0.642436
  outer loop
   vertex 117.736 120.897 162.191
   vertex 117.342 121.83 162.46
   vertex 117.432 120.901 162.547
  endloop
 endfacet
 facet normal 0.697719 0.454401 -0.553813
  outer loop
   vertex 117.736 120.897 162.191
   vertex 116.685 121.651 161.486
   vertex 117.342 121.83 162.46
  endloop
 endfacet
 facet normal 0.116335 0.759787 0.639679
  outer loop
   vertex 117.736 120.897 162.191
   vertex 117.663 121.565 161.411
   vertex 116.685 121.651 161.486
  endloop
 endfacet
 facet normal 0.554125 0.668434 -0.496127
  outer loop
   vertex 116.582 121.924 161.738
   vertex 117.342 121.83 162.46
   vertex 116.685 121.651 161.486
  endloop
 endfacet
 facet normal 0.0366946 0.76077 0.647984
  outer loop
   vertex 118.713 121.49 161.44
   vertex 117.663 121.565 161.411
   vertex 117.736 120.897 162.191
  endloop
 endfacet
 facet normal 0.0703962 0.736562 0.672697
  outer loop
   vertex 118.812 120.811 162.173
   vertex 118.713 121.49 161.44
   vertex 117.736 120.897 162.191
  endloop
 endfacet
 facet normal 0.596319 0.627352 0.500831
  outer loop
   vertex 119.473 120.759 161.451
   vertex 118.713 121.49 161.44
   vertex 118.812 120.811 162.173
  endloop
 endfacet
 facet normal -0.611644 0.580187 0.537843
  outer loop
   vertex 112.227 122.652 162.546
   vertex 112.223 122.962 162.207
   vertex 111.477 122.848 161.481
  endloop
 endfacet
 facet normal -0.614908 0.575403 0.539258
  outer loop
   vertex 112.227 122.652 162.546
   vertex 111.477 122.848 161.481
   vertex 111.465 121.866 162.514
  endloop
 endfacet
 facet normal -0.991294 0.101278 0.0841341
  outer loop
   vertex 111.465 121.866 162.514
   vertex 111.477 122.848 161.481
   vertex 111.375 121.837 161.496
  endloop
 endfacet
 facet normal -0.589922 0.592344 0.548744
  outer loop
   vertex 112.227 122.652 162.546
   vertex 112.514 122.929 162.555
   vertex 112.223 122.962 162.207
  endloop
 endfacet
 facet normal 0.111792 0.993536 -0.0197073
  outer loop
   vertex 115.432 122.715 162.486
   vertex 115.523 122.685 161.465
   vertex 114.426 122.808 161.489
  endloop
 endfacet
 facet normal 0.602388 0.703726 -0.376694
  outer loop
   vertex 116.582 121.924 161.738
   vertex 116.371 121.909 161.373
   vertex 115.523 122.685 161.465
  endloop
 endfacet
 facet normal 0.586422 0.637243 -0.500031
  outer loop
   vertex 116.582 121.924 161.738
   vertex 115.523 122.685 161.465
   vertex 116.522 122.571 162.492
  endloop
 endfacet
 facet normal 0.131531 0.991151 -0.0178879
  outer loop
   vertex 116.522 122.571 162.492
   vertex 115.523 122.685 161.465
   vertex 115.432 122.715 162.486
  endloop
 endfacet
 facet normal 0.565375 0.647723 -0.510692
  outer loop
   vertex 117.342 121.83 162.46
   vertex 116.582 121.924 161.738
   vertex 116.522 122.571 162.492
  endloop
 endfacet
 facet normal -0.586874 0.63362 0.504088
  outer loop
   vertex 111.477 122.848 161.481
   vertex 112.223 122.962 162.207
   vertex 112.285 123.62 161.452
  endloop
 endfacet
 facet normal -0.56094 0.636975 0.528781
  outer loop
   vertex 112.223 122.962 162.207
   vertex 112.514 122.929 162.555
   vertex 113.245 123.657 162.453
  endloop
 endfacet
 facet normal -0.563443 0.645156 0.516048
  outer loop
   vertex 112.223 122.962 162.207
   vertex 113.245 123.657 162.453
   vertex 112.285 123.62 161.452
  endloop
 endfacet
 facet normal -0.0471619 0.998853 0.00823969
  outer loop
   vertex 112.285 123.62 161.452
   vertex 113.245 123.657 162.453
   vertex 113.359 123.67 161.489
  endloop
 endfacet
 facet normal 0.548652 0.67941 -0.487219
  outer loop
   vertex 114.426 122.808 161.489
   vertex 114.115 122.958 161.348
   vertex 113.359 123.67 161.489
  endloop
 endfacet
 facet normal 0.542079 0.671262 -0.505527
  outer loop
   vertex 114.426 122.808 161.489
   vertex 113.359 123.67 161.489
   vertex 114.335 123.632 162.485
  endloop
 endfacet
 facet normal 0.0219917 0.999623 0.0164184
  outer loop
   vertex 114.335 123.632 162.485
   vertex 113.359 123.67 161.489
   vertex 113.245 123.657 162.453
  endloop
 endfacet
 facet normal 0.556103 0.664749 -0.498858
  outer loop
   vertex 115.432 122.715 162.486
   vertex 114.426 122.808 161.489
   vertex 114.335 123.632 162.485
  endloop
 endfacet
 facet normal -0.662819 -0.74811 -0.0316587
  outer loop
   vertex 117.678 117.011 162.584
   vertex 117.669 116.977 163.576
   vertex 116.878 117.682 163.478
  endloop
 endfacet
 facet normal -0.676585 -0.734358 -0.0543231
  outer loop
   vertex 116.91 117.727 162.481
   vertex 117.678 117.011 162.584
   vertex 116.878 117.682 163.478
  endloop
 endfacet
 facet normal 0.0949202 -0.994943 -0.0328279
  outer loop
   vertex 117.678 117.011 162.584
   vertex 118.728 117.083 163.44
   vertex 117.669 116.977 163.576
  endloop
 endfacet
 facet normal -0.556504 -0.587377 0.587615
  outer loop
   vertex 112.2 118.111 162.5
   vertex 112.2 118.75 163.139
   vertex 111.525 118.75 162.5
  endloop
 endfacet
 facet normal 0.556508 -0.587375 0.587613
  outer loop
   vertex 112.2 118.111 162.5
   vertex 112.875 118.75 162.5
   vertex 112.2 118.75 163.139
  endloop
 endfacet
 facet normal -0.717171 -0.696715 -0.0159205
  outer loop
   vertex 115.544 118.005 161.567
   vertex 115.52 117.984 163.572
   vertex 114.751 118.777 163.51
  endloop
 endfacet
 facet normal -0.634587 -0.771392 0.0474647
  outer loop
   vertex 114.678 118.775 162.494
   vertex 115.544 118.005 161.567
   vertex 114.751 118.777 163.51
  endloop
 endfacet
 facet normal -0.0145054 -0.99876 -0.0476165
  outer loop
   vertex 116.578 117.946 162.475
   vertex 116.531 117.9 163.466
   vertex 115.544 118.005 161.567
  endloop
 endfacet
 facet normal -0.0839798 -0.996402 -0.0113867
  outer loop
   vertex 115.544 118.005 161.567
   vertex 116.531 117.9 163.466
   vertex 115.52 117.984 163.572
  endloop
 endfacet
 facet normal -0.550189 -0.833249 -0.0546711
  outer loop
   vertex 116.878 117.682 163.478
   vertex 116.578 117.946 162.475
   vertex 116.91 117.727 162.481
  endloop
 endfacet
 facet normal -0.528221 -0.846632 -0.064777
  outer loop
   vertex 116.531 117.9 163.466
   vertex 116.578 117.946 162.475
   vertex 116.878 117.682 163.478
  endloop
 endfacet
 facet normal 0.595043 -0.579664 -0.556698
  outer loop
   vertex 118.728 117.083 163.44
   vertex 118.745 118.695 161.779
   vertex 119.505 119.642 161.605
  endloop
 endfacet
 facet normal 0.609095 -0.575815 -0.545381
  outer loop
   vertex 118.728 117.083 163.44
   vertex 119.505 119.642 161.605
   vertex 119.543 117.821 163.571
  endloop
 endfacet
 facet normal 0.99793 -0.0362697 -0.0531089
  outer loop
   vertex 119.543 117.821 163.571
   vertex 119.505 119.642 161.605
   vertex 119.575 118.837 163.472
  endloop
 endfacet
 facet normal -0.556123 0.58755 0.587803
  outer loop
   vertex 111.525 118.75 162.5
   vertex 112.2 118.75 163.139
   vertex 112.2 119.389 162.5
  endloop
 endfacet
 facet normal -0.65477 -0.753855 0.0545821
  outer loop
   vertex 113.32 119.059 162.562
   vertex 113.35 119.104 163.556
   vertex 112.573 119.775 163.493
  endloop
 endfacet
 facet normal -0.670926 -0.74085 0.031624
  outer loop
   vertex 113.32 119.059 162.562
   vertex 112.573 119.775 163.493
   vertex 112.504 119.794 162.475
  endloop
 endfacet
 facet normal 0.556127 0.587548 0.587801
  outer loop
   vertex 112.2 119.389 162.5
   vertex 112.2 118.75 163.139
   vertex 112.875 118.75 162.5
  endloop
 endfacet
 facet normal -0.0512599 -0.994362 0.09283
  outer loop
   vertex 114.375 118.998 162.495
   vertex 114.388 119.091 163.496
   vertex 113.32 119.059 162.562
  endloop
 endfacet
 facet normal -0.00999273 -0.998903 0.045754
  outer loop
   vertex 113.32 119.059 162.562
   vertex 114.388 119.091 163.496
   vertex 113.35 119.104 163.556
  endloop
 endfacet
 facet normal -0.81714 0.573558 0.0575651
  outer loop
   vertex 114.751 118.777 163.51
   vertex 115.453 119.794 163.342
   vertex 114.678 118.775 162.494
  endloop
 endfacet
 facet normal -0.618347 0.523537 0.586136
  outer loop
   vertex 114.751 118.777 163.51
   vertex 115.471 119.55 163.58
   vertex 115.453 119.794 163.342
  endloop
 endfacet
 facet normal -0.327281 -0.444495 0.833853
  outer loop
   vertex 114.678 118.775 162.494
   vertex 115.453 119.794 163.342
   vertex 114.375 118.998 162.495
  endloop
 endfacet
 facet normal 0.423623 -0.47254 0.772819
  outer loop
   vertex 115.106 119.83 163.554
   vertex 114.388 119.091 163.496
   vertex 115.453 119.794 163.342
  endloop
 endfacet
 facet normal 0.556865 -0.827704 0.0693341
  outer loop
   vertex 114.375 118.998 162.495
   vertex 115.453 119.794 163.342
   vertex 114.388 119.091 163.496
  endloop
 endfacet
 facet normal -0.649838 0.504281 0.568693
  outer loop
   vertex 115.471 119.55 163.58
   vertex 115.729 119.825 163.631
   vertex 115.453 119.794 163.342
  endloop
 endfacet
 facet normal 0.639381 0.626765 0.445375
  outer loop
   vertex 118.848 119.774 163.237
   vertex 118.58 119.839 163.533
   vertex 118.833 119.515 163.624
  endloop
 endfacet
 facet normal 0.653669 0.616436 0.439003
  outer loop
   vertex 118.848 119.774 163.237
   vertex 118.833 119.515 163.624
   vertex 119.575 118.837 163.472
  endloop
 endfacet
 facet normal 0.574294 0.587781 0.569825
  outer loop
   vertex 118.848 119.774 163.237
   vertex 119.575 118.837 163.472
   vertex 119.526 119.843 162.484
  endloop
 endfacet
 facet normal 0.999382 0.0201495 -0.0288179
  outer loop
   vertex 119.526 119.843 162.484
   vertex 119.575 118.837 163.472
   vertex 119.505 119.642 161.605
  endloop
 endfacet
 facet normal -0.607741 -0.546614 0.576076
  outer loop
   vertex 112.191 120.112 162.528
   vertex 112.191 120.88 163.257
   vertex 111.434 120.851 162.43
  endloop
 endfacet
 facet normal -0.659186 -0.517582 0.545511
  outer loop
   vertex 112.191 120.112 162.528
   vertex 112.518 120.76 163.537
   vertex 112.191 120.88 163.257
  endloop
 endfacet
 facet normal -0.535027 -0.621616 0.572136
  outer loop
   vertex 112.191 120.112 162.528
   vertex 112.504 119.794 162.475
   vertex 112.518 120.76 163.537
  endloop
 endfacet
 facet normal -0.99611 -0.0587235 0.0657062
  outer loop
   vertex 112.504 119.794 162.475
   vertex 112.573 119.775 163.493
   vertex 112.518 120.76 163.537
  endloop
 endfacet
 facet normal 0.539601 0.37767 0.75246
  outer loop
   vertex 114.499 120.808 163.37
   vertex 114.148 120.869 163.591
   vertex 114.38 120.538 163.59
  endloop
 endfacet
 facet normal 0.459696 0.432065 0.775886
  outer loop
   vertex 115.106 119.83 163.554
   vertex 114.499 120.808 163.37
   vertex 114.38 120.538 163.59
  endloop
 endfacet
 facet normal 0.499146 0.449931 0.740551
  outer loop
   vertex 115.106 119.83 163.554
   vertex 115.453 119.794 163.342
   vertex 114.499 120.808 163.37
  endloop
 endfacet
 facet normal 0.0221357 -0.00641837 0.999734
  outer loop
   vertex 115.453 119.794 163.342
   vertex 115.54 120.869 163.347
   vertex 114.499 120.808 163.37
  endloop
 endfacet
 facet normal -0.559248 0.687865 0.462692
  outer loop
   vertex 116.632 120.607 163.56
   vertex 115.453 119.794 163.342
   vertex 115.729 119.825 163.631
  endloop
 endfacet
 facet normal -0.532254 0.617501 0.579136
  outer loop
   vertex 116.632 120.607 163.56
   vertex 116.592 120.822 163.294
   vertex 115.453 119.794 163.342
  endloop
 endfacet
 facet normal 0.05028 -0.00869055 0.998697
  outer loop
   vertex 116.592 120.822 163.294
   vertex 115.54 120.869 163.347
   vertex 115.453 119.794 163.342
  endloop
 endfacet
 facet normal 0.531637 0.53702 0.654959
  outer loop
   vertex 116.592 120.822 163.294
   vertex 117.66 120.634 162.581
   vertex 117.432 120.901 162.547
  endloop
 endfacet
 facet normal 0.468034 0.720667 0.511452
  outer loop
   vertex 116.592 120.822 163.294
   vertex 116.632 120.607 163.56
   vertex 117.66 120.634 162.581
  endloop
 endfacet
 facet normal 0.0254313 0.998185 0.0545808
  outer loop
   vertex 116.632 120.607 163.56
   vertex 117.749 120.579 163.543
   vertex 117.66 120.634 162.581
  endloop
 endfacet
 facet normal 0.670949 0.557213 0.489225
  outer loop
   vertex 118.58 119.839 163.533
   vertex 118.848 119.774 163.237
   vertex 118.73 120.513 162.559
  endloop
 endfacet
 facet normal 0.570141 0.631718 0.525235
  outer loop
   vertex 118.58 119.839 163.533
   vertex 118.73 120.513 162.559
   vertex 117.749 120.579 163.543
  endloop
 endfacet
 facet normal 0.11343 0.992476 0.0461024
  outer loop
   vertex 117.749 120.579 163.543
   vertex 118.73 120.513 162.559
   vertex 117.66 120.634 162.581
  endloop
 endfacet
 facet normal 0.563155 0.606299 0.561479
  outer loop
   vertex 119.526 119.843 162.484
   vertex 118.73 120.513 162.559
   vertex 118.848 119.774 163.237
  endloop
 endfacet
 facet normal -0.684029 0.0442073 0.728114
  outer loop
   vertex 112.191 120.88 163.257
   vertex 113.238 121.856 164.181
   vertex 111.465 121.866 162.514
  endloop
 endfacet
 facet normal -0.736216 -0.033541 0.675915
  outer loop
   vertex 111.434 120.851 162.43
   vertex 112.191 120.88 163.257
   vertex 111.465 121.866 162.514
  endloop
 endfacet
 facet normal -0.654673 -0.0134906 0.755792
  outer loop
   vertex 113.238 121.856 164.181
   vertex 112.191 120.88 163.257
   vertex 112.518 120.76 163.537
  endloop
 endfacet
 facet normal 0.44055 -0.389072 0.809036
  outer loop
   vertex 114.499 120.808 163.37
   vertex 114.46 121.148 163.555
   vertex 114.148 120.869 163.591
  endloop
 endfacet
 facet normal 0.498987 -0.434026 0.750089
  outer loop
   vertex 114.46 121.148 163.555
   vertex 115.469 121.869 163.301
   vertex 115.127 121.911 163.553
  endloop
 endfacet
 facet normal 0.471206 -0.378753 0.796562
  outer loop
   vertex 114.46 121.148 163.555
   vertex 114.499 120.808 163.37
   vertex 115.469 121.869 163.301
  endloop
 endfacet
 facet normal 0.0189112 0.0477841 0.998679
  outer loop
   vertex 114.499 120.808 163.37
   vertex 115.54 120.869 163.347
   vertex 115.469 121.869 163.301
  endloop
 endfacet
 facet normal 0.0538956 0.0744891 0.995764
  outer loop
   vertex 116.592 120.822 163.294
   vertex 116.582 121.803 163.221
   vertex 115.54 120.869 163.347
  endloop
 endfacet
 facet normal 0.0744314 0.0516069 0.99589
  outer loop
   vertex 116.582 121.803 163.221
   vertex 115.469 121.869 163.301
   vertex 115.54 120.869 163.347
  endloop
 endfacet
 facet normal 0.698873 0.134004 0.70258
  outer loop
   vertex 117.432 120.901 162.547
   vertex 117.342 121.83 162.46
   vertex 116.582 121.803 163.221
  endloop
 endfacet
 facet normal 0.659738 0.0625562 0.748888
  outer loop
   vertex 116.592 120.822 163.294
   vertex 117.432 120.901 162.547
   vertex 116.582 121.803 163.221
  endloop
 endfacet
 facet normal -0.576798 0.535324 0.617034
  outer loop
   vertex 111.465 121.866 162.514
   vertex 113.238 121.856 164.181
   vertex 112.227 122.652 162.546
  endloop
 endfacet
 facet normal -0.488207 0.651754 0.580405
  outer loop
   vertex 112.514 122.929 162.555
   vertex 113.27 122.666 163.485
   vertex 113.372 122.947 163.257
  endloop
 endfacet
 facet normal -0.559602 0.558645 0.612178
  outer loop
   vertex 112.227 122.652 162.546
   vertex 113.27 122.666 163.485
   vertex 112.514 122.929 162.555
  endloop
 endfacet
 facet normal -0.563007 0.550884 0.616077
  outer loop
   vertex 112.227 122.652 162.546
   vertex 113.238 121.856 164.181
   vertex 113.27 122.666 163.485
  endloop
 endfacet
 facet normal 0.0356968 0.735096 0.677022
  outer loop
   vertex 113.372 122.947 163.257
   vertex 114.323 122.612 163.57
   vertex 114.454 122.863 163.291
  endloop
 endfacet
 facet normal -0.0292097 0.63772 0.769714
  outer loop
   vertex 113.27 122.666 163.485
   vertex 114.323 122.612 163.57
   vertex 113.372 122.947 163.257
  endloop
 endfacet
 facet normal 0.477875 0.530094 0.700454
  outer loop
   vertex 115.127 121.911 163.553
   vertex 114.454 122.863 163.291
   vertex 114.323 122.612 163.57
  endloop
 endfacet
 facet normal 0.536433 0.553899 0.636738
  outer loop
   vertex 115.469 121.869 163.301
   vertex 114.454 122.863 163.291
   vertex 115.127 121.911 163.553
  endloop
 endfacet
 facet normal 0.566602 0.584122 0.581174
  outer loop
   vertex 115.469 121.869 163.301
   vertex 115.432 122.715 162.486
   vertex 114.454 122.863 163.291
  endloop
 endfacet
 facet normal 0.0883778 0.692864 0.715632
  outer loop
   vertex 116.522 122.571 162.492
   vertex 115.432 122.715 162.486
   vertex 115.469 121.869 163.301
  endloop
 endfacet
 facet normal 0.092251 0.689846 0.718054
  outer loop
   vertex 116.582 121.803 163.221
   vertex 116.522 122.571 162.492
   vertex 115.469 121.869 163.301
  endloop
 endfacet
 facet normal 0.558927 0.593852 0.57874
  outer loop
   vertex 117.342 121.83 162.46
   vertex 116.522 122.571 162.492
   vertex 116.582 121.803 163.221
  endloop
 endfacet
 facet normal -0.513371 0.601 0.612576
  outer loop
   vertex 112.514 122.929 162.555
   vertex 113.372 122.947 163.257
   vertex 113.245 123.657 162.453
  endloop
 endfacet
 facet normal -0.00253852 0.749297 0.662229
  outer loop
   vertex 114.335 123.632 162.485
   vertex 113.245 123.657 162.453
   vertex 113.372 122.947 163.257
  endloop
 endfacet
 facet normal 0.0346175 0.725452 0.687402
  outer loop
   vertex 114.454 122.863 163.291
   vertex 114.335 123.632 162.485
   vertex 113.372 122.947 163.257
  endloop
 endfacet
 facet normal 0.540345 0.64729 0.537627
  outer loop
   vertex 115.432 122.715 162.486
   vertex 114.335 123.632 162.485
   vertex 114.454 122.863 163.291
  endloop
 endfacet
 facet normal -0.634961 -0.76992 0.063623
  outer loop
   vertex 117.669 116.977 163.576
   vertex 117.729 117.007 164.533
   vertex 116.631 117.912 164.522
  endloop
 endfacet
 facet normal -0.665779 -0.746122 0.00631966
  outer loop
   vertex 116.878 117.682 163.478
   vertex 117.669 116.977 163.576
   vertex 116.631 117.912 164.522
  endloop
 endfacet
 facet normal 0.563217 -0.681495 0.46728
  outer loop
   vertex 118.552 117.708 164.563
   vertex 117.729 117.007 164.533
   vertex 118.728 117.083 163.44
  endloop
 endfacet
 facet normal 0.102171 -0.994479 0.0239336
  outer loop
   vertex 118.728 117.083 163.44
   vertex 117.729 117.007 164.533
   vertex 117.669 116.977 163.576
  endloop
 endfacet
 facet normal 0.549429 -0.690669 0.470218
  outer loop
   vertex 118.728 117.083 163.44
   vertex 119.543 117.821 163.571
   vertex 118.552 117.708 164.563
  endloop
 endfacet
 facet normal -0.665767 -0.742992 0.0686763
  outer loop
   vertex 115.52 117.984 163.572
   vertex 115.554 118.048 164.599
   vertex 114.794 118.723 164.533
  endloop
 endfacet
 facet normal -0.717622 -0.696404 -0.00631234
  outer loop
   vertex 114.751 118.777 163.51
   vertex 115.52 117.984 163.572
   vertex 114.794 118.723 164.533
  endloop
 endfacet
 facet normal -0.0808121 -0.996551 0.0188339
  outer loop
   vertex 116.531 117.9 163.466
   vertex 116.631 117.912 164.522
   vertex 115.52 117.984 163.572
  endloop
 endfacet
 facet normal -0.120854 -0.990466 0.0661103
  outer loop
   vertex 115.52 117.984 163.572
   vertex 116.631 117.912 164.522
   vertex 115.554 118.048 164.599
  endloop
 endfacet
 facet normal -0.531464 -0.844967 0.0598067
  outer loop
   vertex 116.631 117.912 164.522
   vertex 116.531 117.9 163.466
   vertex 116.878 117.682 163.478
  endloop
 endfacet
 facet normal 0.596783 -0.604795 0.527326
  outer loop
   vertex 118.859 118.014 164.568
   vertex 118.552 117.708 164.563
   vertex 119.543 117.821 163.571
  endloop
 endfacet
 facet normal 0.639293 -0.542965 0.544512
  outer loop
   vertex 118.859 118.014 164.568
   vertex 119.543 117.821 163.571
   vertex 119.527 118.745 164.512
  endloop
 endfacet
 facet normal 0.998698 -0.0268998 0.043352
  outer loop
   vertex 119.527 118.745 164.512
   vertex 119.543 117.821 163.571
   vertex 119.575 118.837 163.472
  endloop
 endfacet
 facet normal -0.555041 -0.588308 0.588067
  outer loop
   vertex 113.35 119.104 163.556
   vertex 113.284 119.839 164.229
   vertex 112.573 119.775 163.493
  endloop
 endfacet
 facet normal 0.031813 -0.71075 0.702725
  outer loop
   vertex 113.35 119.104 163.556
   vertex 114.388 119.091 163.496
   vertex 114.324 119.803 164.219
  endloop
 endfacet
 facet normal -0.0166575 -0.675723 0.736968
  outer loop
   vertex 113.284 119.839 164.229
   vertex 113.35 119.104 163.556
   vertex 114.324 119.803 164.219
  endloop
 endfacet
 facet normal -0.74499 0.663769 0.0663398
  outer loop
   vertex 114.751 118.777 163.51
   vertex 114.794 118.723 164.533
   vertex 115.468 119.481 164.513
  endloop
 endfacet
 facet normal -0.732889 0.67871 0.0471898
  outer loop
   vertex 114.751 118.777 163.51
   vertex 115.468 119.481 164.513
   vertex 115.471 119.55 163.58
  endloop
 endfacet
 facet normal 0.541467 -0.574451 0.613856
  outer loop
   vertex 115.106 119.83 163.554
   vertex 114.324 119.803 164.219
   vertex 114.388 119.091 163.496
  endloop
 endfacet
 facet normal -0.732587 0.679034 0.0472148
  outer loop
   vertex 115.468 119.481 164.513
   vertex 115.729 119.825 163.631
   vertex 115.471 119.55 163.58
  endloop
 endfacet
 facet normal -0.681348 0.727435 0.0812578
  outer loop
   vertex 115.802 119.778 164.655
   vertex 115.729 119.825 163.631
   vertex 115.468 119.481 164.513
  endloop
 endfacet
 facet normal 0.73821 0.672258 0.0558234
  outer loop
   vertex 118.833 119.515 163.624
   vertex 118.486 119.822 164.514
   vertex 118.778 119.495 164.599
  endloop
 endfacet
 facet normal 0.772815 0.629008 0.0842956
  outer loop
   vertex 118.58 119.839 163.533
   vertex 118.486 119.822 164.514
   vertex 118.833 119.515 163.624
  endloop
 endfacet
 facet normal 0.682338 0.724823 0.0951166
  outer loop
   vertex 119.527 118.745 164.512
   vertex 119.575 118.837 163.472
   vertex 118.833 119.515 163.624
  endloop
 endfacet
 facet normal 0.709359 0.702713 0.0548028
  outer loop
   vertex 118.778 119.495 164.599
   vertex 119.527 118.745 164.512
   vertex 118.833 119.515 163.624
  endloop
 endfacet
 facet normal -0.645208 0.0361867 0.763149
  outer loop
   vertex 113.284 119.839 164.229
   vertex 113.384 120.825 164.267
   vertex 112.518 120.76 163.537
  endloop
 endfacet
 facet normal -0.713979 -0.0710537 0.696552
  outer loop
   vertex 112.573 119.775 163.493
   vertex 113.284 119.839 164.229
   vertex 112.518 120.76 163.537
  endloop
 endfacet
 facet normal 0.589736 0.413056 0.693971
  outer loop
   vertex 114.38 120.538 163.59
   vertex 114.148 120.869 163.591
   vertex 113.384 120.825 164.267
  endloop
 endfacet
 facet normal 0.579578 0.503814 0.640516
  outer loop
   vertex 114.38 120.538 163.59
   vertex 113.384 120.825 164.267
   vertex 114.324 119.803 164.219
  endloop
 endfacet
 facet normal 0.00783794 -0.0389652 0.99921
  outer loop
   vertex 114.324 119.803 164.219
   vertex 113.384 120.825 164.267
   vertex 113.284 119.839 164.229
  endloop
 endfacet
 facet normal 0.541771 0.522197 0.658631
  outer loop
   vertex 115.106 119.83 163.554
   vertex 114.38 120.538 163.59
   vertex 114.324 119.803 164.219
  endloop
 endfacet
 facet normal -0.691641 0.717624 0.0815404
  outer loop
   vertex 115.729 119.825 163.631
   vertex 115.802 119.778 164.655
   vertex 116.577 120.538 164.548
  endloop
 endfacet
 facet normal -0.653774 0.756515 0.0162809
  outer loop
   vertex 116.632 120.607 163.56
   vertex 115.729 119.825 163.631
   vertex 116.577 120.538 164.548
  endloop
 endfacet
 facet normal 0.0253811 0.998382 0.0508782
  outer loop
   vertex 117.749 120.579 163.543
   vertex 116.632 120.607 163.56
   vertex 117.628 120.528 164.601
  endloop
 endfacet
 facet normal 0.00561696 0.997551 0.0697217
  outer loop
   vertex 116.632 120.607 163.56
   vertex 116.577 120.538 164.548
   vertex 117.628 120.528 164.601
  endloop
 endfacet
 facet normal 0.664172 0.743724 0.0758343
  outer loop
   vertex 118.486 119.822 164.514
   vertex 118.58 119.839 163.533
   vertex 117.749 120.579 163.543
  endloop
 endfacet
 facet normal 0.638261 0.761961 0.109719
  outer loop
   vertex 117.628 120.528 164.601
   vertex 118.486 119.822 164.514
   vertex 117.749 120.579 163.543
  endloop
 endfacet
 facet normal -0.642607 -0.0272518 0.765711
  outer loop
   vertex 112.518 120.76 163.537
   vertex 113.384 120.825 164.267
   vertex 113.238 121.856 164.181
  endloop
 endfacet
 facet normal 0.559975 -0.546871 0.622383
  outer loop
   vertex 114.148 120.869 163.591
   vertex 114.46 121.148 163.555
   vertex 114.349 121.813 164.239
  endloop
 endfacet
 facet normal 0.573476 -0.543372 0.613084
  outer loop
   vertex 114.148 120.869 163.591
   vertex 114.349 121.813 164.239
   vertex 113.384 120.825 164.267
  endloop
 endfacet
 facet normal -0.0486713 0.0756353 0.995947
  outer loop
   vertex 113.384 120.825 164.267
   vertex 114.349 121.813 164.239
   vertex 113.238 121.856 164.181
  endloop
 endfacet
 facet normal 0.600049 -0.522821 0.605475
  outer loop
   vertex 114.46 121.148 163.555
   vertex 115.127 121.911 163.553
   vertex 114.349 121.813 164.239
  endloop
 endfacet
 facet normal -0.0275243 0.651856 0.757843
  outer loop
   vertex 114.323 122.612 163.57
   vertex 113.27 122.666 163.485
   vertex 113.238 121.856 164.181
  endloop
 endfacet
 facet normal -0.0147254 0.641124 0.767296
  outer loop
   vertex 114.349 121.813 164.239
   vertex 114.323 122.612 163.57
   vertex 113.238 121.856 164.181
  endloop
 endfacet
 facet normal 0.505586 0.562996 0.653772
  outer loop
   vertex 115.127 121.911 163.553
   vertex 114.323 122.612 163.57
   vertex 114.349 121.813 164.239
  endloop
 endfacet
 facet normal -0.507044 -0.60853 0.610407
  outer loop
   vertex 117.729 117.007 164.533
   vertex 117.693 117.816 165.309
   vertex 116.631 117.912 164.522
  endloop
 endfacet
 facet normal 0.482815 -0.59488 0.642656
  outer loop
   vertex 117.729 117.007 164.533
   vertex 118.552 117.708 164.563
   vertex 117.693 117.816 165.309
  endloop
 endfacet
 facet normal -0.553732 -0.563728 0.612856
  outer loop
   vertex 115.554 118.048 164.599
   vertex 115.552 118.79 165.28
   vertex 114.794 118.723 164.533
  endloop
 endfacet
 facet normal -0.0404643 -0.713504 0.699481
  outer loop
   vertex 115.554 118.048 164.599
   vertex 116.631 117.912 164.522
   vertex 116.602 118.713 165.338
  endloop
 endfacet
 facet normal -0.0901155 -0.673376 0.733788
  outer loop
   vertex 115.552 118.79 165.28
   vertex 115.554 118.048 164.599
   vertex 116.602 118.713 165.338
  endloop
 endfacet
 facet normal -0.499498 -0.626817 0.597999
  outer loop
   vertex 116.631 117.912 164.522
   vertex 117.693 117.816 165.309
   vertex 116.602 118.713 165.338
  endloop
 endfacet
 facet normal 0.0144599 -0.0148795 0.999785
  outer loop
   vertex 116.602 118.713 165.338
   vertex 117.693 117.816 165.309
   vertex 117.709 119.693 165.337
  endloop
 endfacet
 facet normal 0.541157 -0.550816 0.635413
  outer loop
   vertex 118.552 117.708 164.563
   vertex 118.859 118.014 164.568
   vertex 118.75 118.719 165.271
  endloop
 endfacet
 facet normal 0.50175 -0.559879 0.65938
  outer loop
   vertex 118.552 117.708 164.563
   vertex 118.75 118.719 165.271
   vertex 117.693 117.816 165.309
  endloop
 endfacet
 facet normal 0.0487015 -0.0151581 0.998698
  outer loop
   vertex 117.693 117.816 165.309
   vertex 118.75 118.719 165.271
   vertex 117.709 119.693 165.337
  endloop
 endfacet
 facet normal 0.609548 -0.510983 0.606093
  outer loop
   vertex 118.859 118.014 164.568
   vertex 119.527 118.745 164.512
   vertex 118.75 118.719 165.271
  endloop
 endfacet
 facet normal -0.607952 0.555591 0.567198
  outer loop
   vertex 114.794 118.723 164.533
   vertex 115.552 118.79 165.28
   vertex 115.468 119.481 164.513
  endloop
 endfacet
 facet normal -0.086329 -0.548162 0.831905
  outer loop
   vertex 116.58 119.106 165.595
   vertex 115.552 118.79 165.28
   vertex 116.602 118.713 165.338
  endloop
 endfacet
 facet normal -0.394961 0.560467 0.72793
  outer loop
   vertex 116.58 119.106 165.595
   vertex 115.802 119.778 164.655
   vertex 115.552 118.79 165.28
  endloop
 endfacet
 facet normal -0.705055 -0.704628 0.0799797
  outer loop
   vertex 116.58 119.106 165.595
   vertex 115.897 119.791 165.609
   vertex 115.802 119.778 164.655
  endloop
 endfacet
 facet normal -0.677707 0.507805 0.531833
  outer loop
   vertex 115.468 119.481 164.513
   vertex 115.552 118.79 165.28
   vertex 115.802 119.778 164.655
  endloop
 endfacet
 facet normal 0.41579 -0.453488 0.788332
  outer loop
   vertex 116.58 119.106 165.595
   vertex 117.709 119.693 165.337
   vertex 117.344 119.818 165.601
  endloop
 endfacet
 facet normal 0.424289 -0.478436 0.768816
  outer loop
   vertex 116.58 119.106 165.595
   vertex 116.602 118.713 165.338
   vertex 117.709 119.693 165.337
  endloop
 endfacet
 facet normal 0.520829 0.617785 0.589134
  outer loop
   vertex 118.778 119.495 164.599
   vertex 118.486 119.822 164.514
   vertex 117.709 119.693 165.337
  endloop
 endfacet
 facet normal 0.54392 0.537942 0.644025
  outer loop
   vertex 118.778 119.495 164.599
   vertex 117.709 119.693 165.337
   vertex 118.75 118.719 165.271
  endloop
 endfacet
 facet normal 0.589453 0.516482 0.621121
  outer loop
   vertex 119.527 118.745 164.512
   vertex 118.778 119.495 164.599
   vertex 118.75 118.719 165.271
  endloop
 endfacet
 facet normal -0.686301 0.724955 0.0585777
  outer loop
   vertex 115.802 119.778 164.655
   vertex 115.897 119.791 165.609
   vertex 116.607 120.469 165.552
  endloop
 endfacet
 facet normal -0.693026 0.717469 0.0703858
  outer loop
   vertex 116.577 120.538 164.548
   vertex 115.802 119.778 164.655
   vertex 116.607 120.469 165.552
  endloop
 endfacet
 facet normal 0.603338 0.55909 0.568683
  outer loop
   vertex 117.344 119.818 165.601
   vertex 117.709 119.693 165.337
   vertex 117.628 120.528 164.601
  endloop
 endfacet
 facet normal 0.512513 0.624483 0.589365
  outer loop
   vertex 117.344 119.818 165.601
   vertex 117.628 120.528 164.601
   vertex 116.607 120.469 165.552
  endloop
 endfacet
 facet normal 0.00567229 0.997625 0.0686383
  outer loop
   vertex 116.607 120.469 165.552
   vertex 117.628 120.528 164.601
   vertex 116.577 120.538 164.548
  endloop
 endfacet
 facet normal 0.542146 0.584215 0.603962
  outer loop
   vertex 118.486 119.822 164.514
   vertex 117.628 120.528 164.601
   vertex 117.709 119.693 165.337
  endloop
 endfacet
 facet normal -0.555477 -0.566216 0.60897
  outer loop
   vertex 116.58 119.106 165.595
   vertex 116.601 119.792 166.252
   vertex 115.897 119.791 165.609
  endloop
 endfacet
 facet normal 0.543501 -0.58893 0.598137
  outer loop
   vertex 116.58 119.106 165.595
   vertex 117.344 119.818 165.601
   vertex 116.601 119.792 166.252
  endloop
 endfacet
 facet normal -0.534633 0.610191 0.584666
  outer loop
   vertex 115.897 119.791 165.609
   vertex 116.601 119.792 166.252
   vertex 116.607 120.469 165.552
  endloop
 endfacet
 facet normal 0.505743 0.617797 0.602123
  outer loop
   vertex 117.344 119.818 165.601
   vertex 116.607 120.469 165.552
   vertex 116.601 119.792 166.252
  endloop
 endfacet
endsolid
