ply
format ascii 1.0
element vertex 828
property float x
property float y
property float z
property float nx
property float ny
property float nz
element face 276
property list uint uint vertex_indices
end_header
57.2035 139.552 181.979 -0.452517 -0.472382 -0.756362
57.2138 139.098 182.256 -0.452517 -0.472382 -0.756362
56.7707 139.456 182.297 -0.452517 -0.472382 -0.756362
57.2138 139.098 182.256 0.461297 -0.454803 -0.761814
57.2035 139.552 181.979 0.461297 -0.454803 -0.761814
57.6578 139.478 182.298 0.461297 -0.454803 -0.761814
56.0941 140.65 182.088 -0.663769 -0.310726 -0.680339
56.018 140.087 182.42 -0.663769 -0.310726 -0.680339
55.5523 140.667 182.609 -0.663769 -0.310726 -0.680339
56.7707 139.456 182.297 -0.584704 0.488741 -0.647498
57.2045 140.004 182.319 -0.584704 0.488741 -0.647498
57.2035 139.552 181.979 -0.584704 0.488741 -0.647498
56.018 140.087 182.42 0.299315 -0.513712 -0.804059
56.0941 140.65 182.088 0.299315 -0.513712 -0.804059
56.5702 140.526 182.344 0.299315 -0.513712 -0.804059
57.6578 139.478 182.298 0.550987 0.50109 -0.667325
57.2035 139.552 181.979 0.550987 0.50109 -0.667325
57.2045 140.004 182.319 0.550987 0.50109 -0.667325
56.0941 140.65 182.088 -0.559778 0.570532 -0.60095
55.5523 140.667 182.609 -0.559778 0.570532 -0.60095
56.2349 141.336 182.609 -0.559778 0.570532 -0.60095
56.5702 140.526 182.344 0.511041 0.450278 -0.732179
56.0941 140.65 182.088 0.511041 0.450278 -0.732179
56.2349 141.336 182.609 0.511041 0.450278 -0.732179
58.2477 137.783 182.895 -0.168907 -0.63581 -0.753138
58.0717 137.115 183.499 -0.168907 -0.63581 -0.753138
57.614 137.647 183.153 -0.168907 -0.63581 -0.753138
58.0717 137.115 183.499 0.386662 -0.67212 -0.631464
58.2477 137.783 182.895 0.386662 -0.67212 -0.631464
58.7898 137.495 183.534 0.386662 -0.67212 -0.631464
57.3165 138.67 182.639 -0.515987 -0.526658 -0.675565
57.2045 137.701 183.481 -0.515987 -0.526658 -0.675565
56.4716 138.509 183.41 -0.515987 -0.526658 -0.675565
57.614 137.647 183.153 -0.582805 -0.493155 -0.645861
57.2045 137.701 183.481 -0.582805 -0.493155 -0.645861
57.3165 138.67 182.639 -0.582805 -0.493155 -0.645861
57.614 137.647 183.153 -0.23565 -0.48937 -0.839635
57.3165 138.67 182.639 -0.23565 -0.48937 -0.839635
58.2477 137.783 182.895 -0.23565 -0.48937 -0.839635
58.2477 137.783 182.895 0.133474 -0.142446 -0.980762
57.3165 138.67 182.639 0.133474 -0.142446 -0.980762
58.3505 138.708 182.775 0.133474 -0.142446 -0.980762
58.9675 138.354 183.444 0.694537 -0.215297 -0.686488
58.7898 137.495 183.534 0.694537 -0.215297 -0.686488
58.2477 137.783 182.895 0.694537 -0.215297 -0.686488
58.3505 138.708 182.775 0.678871 -0.168427 -0.714679
58.9675 138.354 183.444 0.678871 -0.168427 -0.714679
58.2477 137.783 182.895 0.678871 -0.168427 -0.714679
56.3676 139.608 182.627 -0.517586 -0.561007 -0.646046
55.8962 138.946 183.579 -0.517586 -0.561007 -0.646046
55.4301 139.835 183.18 -0.517586 -0.561007 -0.646046
56.4716 138.509 183.41 -0.57483 -0.510627 -0.639399
55.8962 138.946 183.579 -0.57483 -0.510627 -0.639399
56.3676 139.608 182.627 -0.57483 -0.510627 -0.639399
57.3165 138.67 182.639 -0.514286 -0.529849 -0.674366
56.4716 138.509 183.41 -0.514286 -0.529849 -0.674366
56.3676 139.608 182.627 -0.514286 -0.529849 -0.674366
57.3165 138.67 182.639 -0.618656 -0.632627 -0.465883
56.3676 139.608 182.627 -0.618656 -0.632627 -0.465883
56.7707 139.456 182.297 -0.618656 -0.632627 -0.465883
57.3165 138.67 182.639 -0.556649 -0.625012 -0.547268
56.7707 139.456 182.297 -0.556649 -0.625012 -0.547268
57.2138 139.098 182.256 -0.556649 -0.625012 -0.547268
57.6578 139.478 182.298 0.501222 -0.50821 -0.700356
57.3165 138.67 182.639 0.501222 -0.50821 -0.700356
57.2138 139.098 182.256 0.501222 -0.50821 -0.700356
57.6578 139.478 182.298 0.746976 -0.500804 -0.437289
58.1066 139.848 182.641 0.746976 -0.500804 -0.437289
57.3165 138.67 182.639 0.746976 -0.500804 -0.437289
58.1066 139.848 182.641 0.132315 -0.0876128 -0.987328
58.3505 138.708 182.775 0.132315 -0.0876128 -0.987328
57.3165 138.67 182.639 0.132315 -0.0876128 -0.987328
59.0613 139.529 183.495 0.72755 -0.0283321 -0.685469
58.9675 138.354 183.444 0.72755 -0.0283321 -0.685469
58.3505 138.708 182.775 0.72755 -0.0283321 -0.685469
58.1066 139.848 182.641 0.67647 0.0586265 -0.734133
59.0613 139.529 183.495 0.67647 0.0586265 -0.734133
58.3505 138.708 182.775 0.67647 0.0586265 -0.734133
56.018 140.087 182.42 -0.503766 -0.624914 -0.596408
56.3676 139.608 182.627 -0.503766 -0.624914 -0.596408
55.4301 139.835 183.18 -0.503766 -0.624914 -0.596408
56.018 140.087 182.42 -0.685899 -0.340673 -0.643028
55.4301 139.835 183.18 -0.685899 -0.340673 -0.643028
55.5523 140.667 182.609 -0.685899 -0.340673 -0.643028
55.5523 140.667 182.609 -0.932058 -0.101759 -0.347724
55.4301 139.835 183.18 -0.932058 -0.101759 -0.347724
55.2526 140.742 183.39 -0.932058 -0.101759 -0.347724
56.5702 140.526 182.344 0.123433 -0.316059 -0.940676
56.3676 139.608 182.627 0.123433 -0.316059 -0.940676
56.018 140.087 182.42 0.123433 -0.316059 -0.940676
56.5702 140.526 182.344 0.338673 -0.343631 -0.87591
57.1422 140.658 182.514 0.338673 -0.343631 -0.87591
56.3676 139.608 182.627 0.338673 -0.343631 -0.87591
56.7707 139.456 182.297 -0.479528 0.410604 -0.775537
56.3676 139.608 182.627 -0.479528 0.410604 -0.775537
57.2045 140.004 182.319 -0.479528 0.410604 -0.775537
57.2045 140.004 182.319 -0.426961 0.22108 -0.876829
56.3676 139.608 182.627 -0.426961 0.22108 -0.876829
57.1422 140.658 182.514 -0.426961 0.22108 -0.876829
57.2045 140.004 182.319 0.368131 0.351445 -0.860794
58.1066 139.848 182.641 0.368131 0.351445 -0.860794
57.6578 139.478 182.298 0.368131 0.351445 -0.860794
57.2045 140.004 182.319 0.366245 0.298088 -0.881481
57.1422 140.658 182.514 0.366245 0.298088 -0.881481
58.1066 139.848 182.641 0.366245 0.298088 -0.881481
56.2349 141.336 182.609 -0.543199 0.553597 -0.631241
55.5523 140.667 182.609 -0.543199 0.553597 -0.631241
55.5574 141.554 183.382 -0.543199 0.553597 -0.631241
55.5574 141.554 183.382 -0.87257 0.323896 -0.365668
55.5523 140.667 182.609 -0.87257 0.323896 -0.365668
55.2526 140.742 183.39 -0.87257 0.323896 -0.365668
56.2349 141.336 182.609 0.184269 0.372796 -0.909433
57.1422 140.658 182.514 0.184269 0.372796 -0.909433
56.5702 140.526 182.344 0.184269 0.372796 -0.909433
56.2349 141.336 182.609 0.0943756 0.259803 -0.961039
57.0674 141.651 182.775 0.0943756 0.259803 -0.961039
57.1422 140.658 182.514 0.0943756 0.259803 -0.961039
58.1066 139.848 182.641 0.240253 0.135633 -0.961188
57.1422 140.658 182.514 0.240253 0.135633 -0.961188
58.0021 141.455 182.842 0.240253 0.135633 -0.961188
58.0021 141.455 182.842 0.122673 0.261006 -0.957511
57.1422 140.658 182.514 0.122673 0.261006 -0.957511
57.0674 141.651 182.775 0.122673 0.261006 -0.957511
58.8288 141.163 183.425 0.67736 0.0649226 -0.732782
59.0613 139.529 183.495 0.67736 0.0649226 -0.732782
58.1066 139.848 182.641 0.67736 0.0649226 -0.732782
58.0021 141.455 182.842 0.603059 0.137329 -0.785786
58.8288 141.163 183.425 0.603059 0.137329 -0.785786
58.1066 139.848 182.641 0.603059 0.137329 -0.785786
56.2349 141.336 182.609 -0.500137 0.614069 -0.610559
55.5574 141.554 183.382 -0.500137 0.614069 -0.610559
56.3033 142.091 183.312 -0.500137 0.614069 -0.610559
57.0674 141.651 182.775 -0.113694 0.682717 -0.721783
56.2349 141.336 182.609 -0.113694 0.682717 -0.721783
56.3033 142.091 183.312 -0.113694 0.682717 -0.721783
57.2854 142.232 183.606 0.0582798 0.81102 -0.582108
57.0674 141.651 182.775 0.0582798 0.81102 -0.582108
56.3033 142.091 183.312 0.0582798 0.81102 -0.582108
58.0021 141.455 182.842 0.205639 0.775984 -0.596289
57.0674 141.651 182.775 0.205639 0.775984 -0.596289
57.2854 142.232 183.606 0.205639 0.775984 -0.596289
58.2981 142.051 183.559 0.102338 0.743872 -0.66044
58.0021 141.455 182.842 0.102338 0.743872 -0.66044
57.2854 142.232 183.606 0.102338 0.743872 -0.66044
58.8288 141.163 183.425 0.614331 0.463556 -0.638524
58.0021 141.455 182.842 0.614331 0.463556 -0.638524
58.2981 142.051 183.559 0.614331 0.463556 -0.638524
59.4 136.458 184.084 -0.557411 -0.587694 -0.586437
59.4 136.167 184.376 -0.557411 -0.587694 -0.586437
59.0917 136.459 184.376 -0.557411 -0.587694 -0.586437
59.4 136.167 184.376 0.557411 -0.587694 -0.586437
59.4 136.458 184.084 0.557411 -0.587694 -0.586437
59.7082 136.459 184.376 0.557411 -0.587694 -0.586437
57.2045 137.701 183.481 -0.581289 -0.749965 -0.315683
57.4409 137.1 184.473 -0.581289 -0.749965 -0.315683
56.6 137.796 184.368 -0.581289 -0.749965 -0.315683
57.2045 137.701 183.481 -0.483553 -0.730196 -0.482691
57.614 137.647 183.153 -0.483553 -0.730196 -0.482691
58.0717 137.115 183.499 -0.483553 -0.730196 -0.482691
57.2045 137.701 183.481 -0.52003 -0.779869 -0.348385
58.0717 137.115 183.499 -0.52003 -0.779869 -0.348385
57.4409 137.1 184.473 -0.52003 -0.779869 -0.348385
57.4409 137.1 184.473 -0.142879 -0.983914 -0.107233
58.0717 137.115 183.499 -0.142879 -0.983914 -0.107233
58.3343 136.994 184.258 -0.142879 -0.983914 -0.107233
58.3343 136.994 184.258 0.458743 -0.839061 -0.292459
58.0717 137.115 183.499 0.458743 -0.839061 -0.292459
58.7898 137.495 183.534 0.458743 -0.839061 -0.292459
58.3343 136.994 184.258 0.70195 -0.710449 -0.0502788
58.7898 137.495 183.534 0.70195 -0.710449 -0.0502788
58.9581 137.603 184.361 0.70195 -0.710449 -0.0502788
59.4 136.75 184.376 -0.556016 0.588034 -0.58742
59.4 136.458 184.084 -0.556016 0.588034 -0.58742
59.0917 136.459 184.376 -0.556016 0.588034 -0.58742
59.7082 136.459 184.376 0.556016 0.588034 -0.58742
59.4 136.458 184.084 0.556016 0.588034 -0.58742
59.4 136.75 184.376 0.556016 0.588034 -0.58742
57.2045 137.701 183.481 -0.666524 -0.637925 -0.385744
56.6 137.796 184.368 -0.666524 -0.637925 -0.385744
56.4716 138.509 183.41 -0.666524 -0.637925 -0.385744
56.4716 138.509 183.41 -0.85082 -0.469634 -0.23569
56.6 137.796 184.368 -0.85082 -0.469634 -0.23569
56.2553 138.478 184.254 -0.85082 -0.469634 -0.23569
58.7898 137.495 183.534 0.961843 -0.216377 -0.16745
58.9675 138.354 183.444 0.961843 -0.216377 -0.16745
58.9581 137.603 184.361 0.961843 -0.216377 -0.16745
58.9581 137.603 184.361 0.909508 -0.32603 -0.257874
58.9675 138.354 183.444 0.909508 -0.32603 -0.257874
59.3158 138.591 184.373 0.909508 -0.32603 -0.257874
55.089 139.556 183.731 -0.645706 -0.639329 -0.417519
55.1324 139.0 184.515 -0.645706 -0.639329 -0.417519
54.5037 139.745 184.346 -0.645706 -0.639329 -0.417519
55.089 139.556 183.731 -0.543347 -0.563764 -0.622048
55.4301 139.835 183.18 -0.543347 -0.563764 -0.622048
55.8962 138.946 183.579 -0.543347 -0.563764 -0.622048
55.089 139.556 183.731 -0.591863 -0.672648 -0.444121
55.8962 138.946 183.579 -0.591863 -0.672648 -0.444121
55.1324 139.0 184.515 -0.591863 -0.672648 -0.444121
55.1324 139.0 184.515 -0.338684 -0.913884 -0.223851
55.8962 138.946 183.579 -0.338684 -0.913884 -0.223851
55.9717 138.691 184.506 -0.338684 -0.913884 -0.223851
56.2553 138.478 184.254 -0.6284 -0.754492 -0.189356
55.8962 138.946 183.579 -0.6284 -0.754492 -0.189356
56.4716 138.509 183.41 -0.6284 -0.754492 -0.189356
55.9717 138.691 184.506 -0.673868 -0.724594 -0.144447
55.8962 138.946 183.579 -0.673868 -0.724594 -0.144447
56.2553 138.478 184.254 -0.673868 -0.724594 -0.144447
59.4337 139.115 184.154 0.80738 -0.171891 -0.564438
59.0613 139.529 183.495 0.80738 -0.171891 -0.564438
59.4242 139.699 183.963 0.80738 -0.171891 -0.564438
59.4337 139.115 184.154 0.658007 -0.411579 -0.630579
59.3158 138.591 184.373 0.658007 -0.411579 -0.630579
59.0613 139.529 183.495 0.658007 -0.411579 -0.630579
59.3158 138.591 184.373 0.939575 -0.0603882 -0.336974
58.9675 138.354 183.444 0.939575 -0.0603882 -0.336974
59.0613 139.529 183.495 0.939575 -0.0603882 -0.336974
59.4337 139.115 184.154 0.736689 -0.199809 -0.646038
59.4242 139.699 183.963 0.736689 -0.199809 -0.646038
59.8334 139.4 184.522 0.736689 -0.199809 -0.646038
54.9423 140.425 183.783 -0.734663 -0.0842048 -0.673186
55.089 139.556 183.731 -0.734663 -0.0842048 -0.673186
54.5037 139.745 184.346 -0.734663 -0.0842048 -0.673186
54.3905 140.596 184.63 -0.828602 0.0744247 -0.554869
54.9423 140.425 183.783 -0.828602 0.0744247 -0.554869
54.5037 139.745 184.346 -0.828602 0.0744247 -0.554869
55.4301 139.835 183.18 -0.780979 -0.00805374 -0.624505
54.9423 140.425 183.783 -0.780979 -0.00805374 -0.624505
55.2526 140.742 183.39 -0.780979 -0.00805374 -0.624505
55.089 139.556 183.731 -0.820802 -0.105327 -0.561418
54.9423 140.425 183.783 -0.820802 -0.105327 -0.561418
55.4301 139.835 183.18 -0.820802 -0.105327 -0.561418
59.4242 139.699 183.963 0.877322 0.354929 -0.323004
59.1873 140.542 184.246 0.877322 0.354929 -0.323004
59.4879 140.155 184.637 0.877322 0.354929 -0.323004
59.4242 139.699 183.963 0.648068 0.399909 -0.648136
59.0613 139.529 183.495 0.648068 0.399909 -0.648136
59.1873 140.542 184.246 0.648068 0.399909 -0.648136
59.8334 139.4 184.522 0.82177 0.432911 -0.370516
59.4242 139.699 183.963 0.82177 0.432911 -0.370516
59.4879 140.155 184.637 0.82177 0.432911 -0.370516
54.9423 140.425 183.783 -0.715395 0.427935 -0.552342
54.3905 140.596 184.63 -0.715395 0.427935 -0.552342
55.1433 141.483 184.342 -0.715395 0.427935 -0.552342
55.1433 141.483 184.342 -0.850712 0.36275 -0.380396
55.2526 140.742 183.39 -0.850712 0.36275 -0.380396
54.9423 140.425 183.783 -0.850712 0.36275 -0.380396
55.1433 141.483 184.342 -0.876616 0.325526 -0.354367
55.5574 141.554 183.382 -0.876616 0.325526 -0.354367
55.2526 140.742 183.39 -0.876616 0.325526 -0.354367
59.0613 139.529 183.495 0.939902 0.120057 -0.319641
58.8288 141.163 183.425 0.939902 0.120057 -0.319641
59.1873 140.542 184.246 0.939902 0.120057 -0.319641
59.1873 140.542 184.246 0.931731 0.32558 -0.160854
58.8288 141.163 183.425 0.931731 0.32558 -0.160854
58.8739 141.511 184.391 0.931731 0.32558 -0.160854
55.5574 141.554 183.382 -0.603155 0.771233 -0.203481
55.1433 141.483 184.342 -0.603155 0.771233 -0.203481
56.1077 142.25 184.388 -0.603155 0.771233 -0.203481
56.3033 142.091 183.312 -0.583789 0.781246 -0.22101
55.5574 141.554 183.382 -0.583789 0.781246 -0.22101
56.1077 142.25 184.388 -0.583789 0.781246 -0.22101
56.3033 142.091 183.312 -0.0924085 0.982581 -0.16123
56.1077 142.25 184.388 -0.0924085 0.982581 -0.16123
57.2854 142.232 183.606 -0.0924085 0.982581 -0.16123
58.2981 142.051 183.559 0.171656 0.981843 -0.0807376
57.2854 142.232 183.606 0.171656 0.981843 -0.0807376
58.1447 142.155 184.495 0.171656 0.981843 -0.0807376
58.8739 141.511 184.391 0.820541 0.524451 -0.227297
58.8288 141.163 183.425 0.820541 0.524451 -0.227297
58.2981 142.051 183.559 0.820541 0.524451 -0.227297
58.1447 142.155 184.495 0.664003 0.747277 0.0260044
58.8739 141.511 184.391 0.664003 0.747277 0.0260044
58.2981 142.051 183.559 0.664003 0.747277 0.0260044
59.4 136.167 184.376 -0.556799 -0.587049 0.587664
59.4 136.458 184.667 -0.556799 -0.587049 0.587664
59.0917 136.459 184.376 -0.556799 -0.587049 0.587664
59.4 136.167 184.376 0.556799 -0.587049 0.587664
59.7082 136.459 184.376 0.556799 -0.587049 0.587664
59.4 136.458 184.667 0.556799 -0.587049 0.587664
57.4409 137.1 184.473 -0.639806 -0.743329 0.19522
56.9298 137.79 185.427 -0.639806 -0.743329 0.19522
56.6 137.796 184.368 -0.639806 -0.743329 0.19522
57.6395 137.583 185.544 -0.317611 -0.840741 0.438495
56.9298 137.79 185.427 -0.317611 -0.840741 0.438495
57.4409 137.1 184.473 -0.317611 -0.840741 0.438495
57.6395 137.583 185.544 -0.321644 -0.839183 0.438539
57.4409 137.1 184.473 -0.321644 -0.839183 0.438539
58.2993 137.124 185.149 -0.321644 -0.839183 0.438539
58.2993 137.124 185.149 -0.0832492 -0.986503 0.141003
57.4409 137.1 184.473 -0.0832492 -0.986503 0.141003
58.3343 136.994 184.258 -0.0832492 -0.986503 0.141003
58.9581 137.603 184.361 0.648668 -0.756556 0.08278
59.0739 137.805 185.302 0.648668 -0.756556 0.08278
58.2993 137.124 185.149 0.648668 -0.756556 0.08278
58.9581 137.603 184.361 0.681153 -0.720131 0.132066
58.2993 137.124 185.149 0.681153 -0.720131 0.132066
58.3343 136.994 184.258 0.681153 -0.720131 0.132066
59.0917 136.459 184.376 -0.555403 0.587386 0.588647
59.4 136.458 184.667 -0.555403 0.587386 0.588647
59.4 136.75 184.376 -0.555403 0.587386 0.588647
59.7082 136.459 184.376 0.555403 0.587386 0.588647
59.4 136.75 184.376 0.555403 0.587386 0.588647
59.4 136.458 184.667 0.555403 0.587386 0.588647
56.9298 137.79 185.427 -0.725702 -0.65104 0.222492
56.304 138.383 185.121 -0.725702 -0.65104 0.222492
56.6 137.796 184.368 -0.725702 -0.65104 0.222492
56.6 137.796 184.368 -0.892452 -0.45114 0.00111059
56.304 138.383 185.121 -0.892452 -0.45114 0.00111059
56.2553 138.478 184.254 -0.892452 -0.45114 0.00111059
59.0739 137.805 185.302 0.939649 -0.339462 -0.0427345
58.9581 137.603 184.361 0.939649 -0.339462 -0.0427345
59.3158 138.591 184.373 0.939649 -0.339462 -0.0427345
59.0739 137.805 185.302 0.781024 -0.56194 -0.272442
59.3158 138.591 184.373 0.781024 -0.56194 -0.272442
59.7672 138.757 185.325 0.781024 -0.56194 -0.272442
55.1324 139.0 184.515 -0.7241 -0.67191 -0.155619
54.9143 139.001 185.528 -0.7241 -0.67191 -0.155619
54.3578 139.671 185.221 -0.7241 -0.67191 -0.155619
54.5037 139.745 184.346 -0.731957 -0.657768 -0.177707
55.1324 139.0 184.515 -0.731957 -0.657768 -0.177707
54.3578 139.671 185.221 -0.731957 -0.657768 -0.177707
55.9717 138.691 184.506 -0.344994 -0.935656 -0.074351
55.7542 138.696 185.453 -0.344994 -0.935656 -0.074351
55.1324 139.0 184.515 -0.344994 -0.935656 -0.074351
55.1324 139.0 184.515 -0.34549 -0.935503 -0.0739726
55.7542 138.696 185.453 -0.34549 -0.935503 -0.0739726
54.9143 139.001 185.528 -0.34549 -0.935503 -0.0739726
56.304 138.383 185.121 -0.628313 -0.776408 -0.0491195
55.9717 138.691 184.506 -0.628313 -0.776408 -0.0491195
56.2553 138.478 184.254 -0.628313 -0.776408 -0.0491195
55.7542 138.696 185.453 -0.544906 -0.829748 -0.120817
55.9717 138.691 184.506 -0.544906 -0.829748 -0.120817
56.304 138.383 185.121 -0.544906 -0.829748 -0.120817
59.3158 138.591 184.373 0.758407 -0.389187 -0.522832
59.4337 139.115 184.154 0.758407 -0.389187 -0.522832
59.8334 139.4 184.522 0.758407 -0.389187 -0.522832
59.3158 138.591 184.373 0.82577 -0.471575 -0.309387
59.8334 139.4 184.522 0.82577 -0.471575 -0.309387
59.7672 138.757 185.325 0.82577 -0.471575 -0.309387
59.7672 138.757 185.325 0.994657 -0.103231 -0.000661413
59.8334 139.4 184.522 0.994657 -0.103231 -0.000661413
59.8552 139.605 185.258 0.994657 -0.103231 -0.000661413
54.5037 139.745 184.346 -0.982616 -0.0740753 -0.170233
54.3578 139.671 185.221 -0.982616 -0.0740753 -0.170233
54.3905 140.596 184.63 -0.982616 -0.0740753 -0.170233
54.3578 139.671 185.221 -0.967861 -0.110257 -0.22603
54.19 140.512 185.53 -0.967861 -0.110257 -0.22603
54.3905 140.596 184.63 -0.967861 -0.110257 -0.22603
59.4879 140.155 184.637 0.852882 0.519421 0.0528556
59.1768 140.581 185.474 0.852882 0.519421 0.0528556
59.4586 140.129 185.371 0.852882 0.519421 0.0528556
59.1873 140.542 184.246 0.795736 0.605521 -0.0122346
59.1768 140.581 185.474 0.795736 0.605521 -0.0122346
59.4879 140.155 184.637 0.795736 0.605521 -0.0122346
59.8552 139.605 185.258 0.890899 0.430098 -0.145994
59.8334 139.4 184.522 0.890899 0.430098 -0.145994
59.4879 140.155 184.637 0.890899 0.430098 -0.145994
59.4586 140.129 185.371 0.801469 0.595633 0.053548
59.8552 139.605 185.258 0.801469 0.595633 0.053548
59.4879 140.155 184.637 0.801469 0.595633 0.053548
55.1433 141.483 184.342 -0.745854 0.484725 -0.456885
54.3905 140.596 184.63 -0.745854 0.484725 -0.456885
54.426 141.498 185.529 -0.745854 0.484725 -0.456885
54.426 141.498 185.529 -0.954641 0.228199 -0.191274
54.3905 140.596 184.63 -0.954641 0.228199 -0.191274
54.19 140.512 185.53 -0.954641 0.228199 -0.191274
58.4992 141.537 185.33 0.760811 0.582071 0.286985
59.1768 140.581 185.474 0.760811 0.582071 0.286985
58.8739 141.511 184.391 0.760811 0.582071 0.286985
58.8739 141.511 184.391 0.951345 0.308125 -0.00152829
59.1768 140.581 185.474 0.951345 0.308125 -0.00152829
59.1873 140.542 184.246 0.951345 0.308125 -0.00152829
55.1433 141.483 184.342 -0.627025 0.675806 -0.387461
54.426 141.498 185.529 -0.627025 0.675806 -0.387461
55.2931 142.244 185.426 -0.627025 0.675806 -0.387461
55.1433 141.483 184.342 -0.549908 0.717576 -0.427418
55.2931 142.244 185.426 -0.549908 0.717576 -0.427418
56.1077 142.25 184.388 -0.549908 0.717576 -0.427418
56.1077 142.25 184.388 -0.164656 0.978557 -0.123748
55.2931 142.244 185.426 -0.164656 0.978557 -0.123748
56.2433 142.416 185.525 -0.164656 0.978557 -0.123748
57.2854 142.232 183.606 -0.0128065 0.999052 -0.0416058
56.1077 142.25 184.388 -0.0128065 0.999052 -0.0416058
57.3286 142.303 185.29 -0.0128065 0.999052 -0.0416058
56.1077 142.25 184.388 0.0699738 0.985776 -0.152803
56.2433 142.416 185.525 0.0699738 0.985776 -0.152803
57.3286 142.303 185.29 0.0699738 0.985776 -0.152803
58.0535 141.867 185.288 0.537908 0.770715 0.341545
58.4992 141.537 185.33 0.537908 0.770715 0.341545
58.1447 142.155 184.495 0.537908 0.770715 0.341545
58.0535 141.867 185.288 0.483867 0.803334 0.347172
58.1447 142.155 184.495 0.483867 0.803334 0.347172
57.3286 142.303 185.29 0.483867 0.803334 0.347172
57.3286 142.303 185.29 0.135431 0.989764 -0.0450174
58.1447 142.155 184.495 0.135431 0.989764 -0.0450174
57.2854 142.232 183.606 0.135431 0.989764 -0.0450174
58.8739 141.511 184.391 0.661445 0.709288 0.243722
58.1447 142.155 184.495 0.661445 0.709288 0.243722
58.4992 141.537 185.33 0.661445 0.709288 0.243722
58.2993 137.124 185.149 -0.139784 -0.753391 0.642544
58.414 137.725 185.878 -0.139784 -0.753391 0.642544
57.6395 137.583 185.544 -0.139784 -0.753391 0.642544
58.2993 137.124 185.149 0.516983 -0.698865 0.494283
59.0739 137.805 185.302 0.516983 -0.698865 0.494283
58.414 137.725 185.878 0.516983 -0.698865 0.494283
56.1544 138.381 185.744 -0.588942 -0.791051 -0.165486
56.3592 138.094 186.388 -0.588942 -0.791051 -0.165486
55.5944 138.639 186.503 -0.588942 -0.791051 -0.165486
56.1544 138.381 185.744 -0.638126 -0.753836 -0.15661
56.304 138.383 185.121 -0.638126 -0.753836 -0.15661
56.9298 137.79 185.427 -0.638126 -0.753836 -0.15661
56.1544 138.381 185.744 -0.635024 -0.760227 -0.137112
56.9298 137.79 185.427 -0.635024 -0.760227 -0.137112
56.3592 138.094 186.388 -0.635024 -0.760227 -0.137112
56.3592 138.094 186.388 -0.0616382 -0.961814 0.266675
56.9298 137.79 185.427 -0.0616382 -0.961814 0.266675
57.2699 138.007 186.287 -0.0616382 -0.961814 0.266675
57.6395 137.583 185.544 -0.314911 -0.883393 0.347056
57.2699 138.007 186.287 -0.314911 -0.883393 0.347056
56.9298 137.79 185.427 -0.314911 -0.883393 0.347056
57.6395 137.583 185.544 0.496422 -0.624433 0.603034
58.1148 138.637 186.244 0.496422 -0.624433 0.603034
57.2699 138.007 186.287 0.496422 -0.624433 0.603034
57.6395 137.583 185.544 -0.288059 -0.436198 0.852498
58.414 137.725 185.878 -0.288059 -0.436198 0.852498
58.1148 138.637 186.244 -0.288059 -0.436198 0.852498
57.6501 138.561 186.51 0.472386 -0.588583 0.656065
57.2699 138.007 186.287 0.472386 -0.588583 0.656065
58.1148 138.637 186.244 0.472386 -0.588583 0.656065
59.0739 137.805 185.302 0.562704 -0.608828 0.559189
59.1373 138.465 185.956 0.562704 -0.608828 0.559189
58.414 137.725 185.878 0.562704 -0.608828 0.559189
58.414 137.725 185.878 0.210273 -0.303624 0.9293
59.1373 138.465 185.956 0.210273 -0.303624 0.9293
58.1148 138.637 186.244 0.210273 -0.303624 0.9293
59.0739 137.805 185.302 0.710588 -0.528776 0.464178
59.7672 138.757 185.325 0.710588 -0.528776 0.464178
59.1373 138.465 185.956 0.710588 -0.528776 0.464178
54.9143 139.001 185.528 -0.766216 -0.639061 -0.0671847
54.8759 138.947 186.474 -0.766216 -0.639061 -0.0671847
54.2426 139.733 186.225 -0.766216 -0.639061 -0.0671847
54.3578 139.671 185.221 -0.758045 -0.650484 -0.0473081
54.9143 139.001 185.528 -0.758045 -0.650484 -0.0473081
54.2426 139.733 186.225 -0.758045 -0.650484 -0.0473081
55.5944 138.639 186.503 -0.554194 -0.822291 -0.129258
55.7542 138.696 185.453 -0.554194 -0.822291 -0.129258
56.1544 138.381 185.744 -0.554194 -0.822291 -0.129258
55.5944 138.639 186.503 -0.388232 -0.915083 -0.109086
54.8759 138.947 186.474 -0.388232 -0.915083 -0.109086
55.7542 138.696 185.453 -0.388232 -0.915083 -0.109086
54.8759 138.947 186.474 -0.345098 -0.936186 -0.0668038
54.9143 139.001 185.528 -0.345098 -0.936186 -0.0668038
55.7542 138.696 185.453 -0.345098 -0.936186 -0.0668038
56.304 138.383 185.121 -0.550521 -0.823696 -0.135837
56.1544 138.381 185.744 -0.550521 -0.823696 -0.135837
55.7542 138.696 185.453 -0.550521 -0.823696 -0.135837
57.2173 139.143 186.585 0.533248 0.199122 0.822191
57.3349 139.432 186.439 0.533248 0.199122 0.822191
56.8868 139.556 186.7 0.533248 0.199122 0.822191
57.6934 139.589 186.656 0.0157313 -0.391436 0.920071
58.1148 138.637 186.244 0.0157313 -0.391436 0.920071
58.4355 139.186 186.472 0.0157313 -0.391436 0.920071
57.6934 139.589 186.656 -0.287057 -0.484777 0.82619
57.3349 139.432 186.439 -0.287057 -0.484777 0.82619
58.1148 138.637 186.244 -0.287057 -0.484777 0.82619
57.6501 138.561 186.51 0.455872 0.22832 0.860262
58.1148 138.637 186.244 0.455872 0.22832 0.860262
57.2173 139.143 186.585 0.455872 0.22832 0.860262
57.2173 139.143 186.585 0.461753 0.243758 0.852858
58.1148 138.637 186.244 0.461753 0.243758 0.852858
57.3349 139.432 186.439 0.461753 0.243758 0.852858
58.4355 139.186 186.472 0.555191 -0.498772 0.665574
59.2615 139.447 185.979 0.555191 -0.498772 0.665574
59.0385 139.796 186.426 0.555191 -0.498772 0.665574
58.4355 139.186 186.472 0.546126 -0.573003 0.611076
58.1148 138.637 186.244 0.546126 -0.573003 0.611076
59.2615 139.447 185.979 0.546126 -0.573003 0.611076
58.1148 138.637 186.244 0.261763 -0.0551424 0.963556
59.1373 138.465 185.956 0.261763 -0.0551424 0.963556
59.2615 139.447 185.979 0.261763 -0.0551424 0.963556
59.7672 138.757 185.325 0.77468 -0.0306475 0.63161
59.8552 139.605 185.258 0.77468 -0.0306475 0.63161
59.2615 139.447 185.979 0.77468 -0.0306475 0.63161
59.1373 138.465 185.956 0.728221 -0.10756 0.676849
59.7672 138.757 185.325 0.728221 -0.10756 0.676849
59.2615 139.447 185.979 0.728221 -0.10756 0.676849
54.3578 139.671 185.221 -0.981998 -0.158309 -0.103042
54.2426 139.733 186.225 -0.981998 -0.158309 -0.103042
54.19 140.512 185.53 -0.981998 -0.158309 -0.103042
54.2426 139.733 186.225 -0.990104 -0.124571 -0.0646246
54.1034 140.795 186.311 -0.990104 -0.124571 -0.0646246
54.19 140.512 185.53 -0.990104 -0.124571 -0.0646246
57.3349 139.432 186.439 0.302592 -0.5463 0.781021
57.1243 139.73 186.729 0.302592 -0.5463 0.781021
56.8868 139.556 186.7 0.302592 -0.5463 0.781021
57.6934 139.589 186.656 -0.0921461 -0.72709 0.680331
57.1243 139.73 186.729 -0.0921461 -0.72709 0.680331
57.3349 139.432 186.439 -0.0921461 -0.72709 0.680331
59.3601 140.224 186.328 0.915861 -0.260683 -0.305357
59.1768 140.581 185.474 0.915861 -0.260683 -0.305357
59.3727 140.675 185.981 0.915861 -0.260683 -0.305357
59.3601 140.224 186.328 0.685599 -0.607663 -0.400873
59.0385 139.796 186.426 0.685599 -0.607663 -0.400873
59.1768 140.581 185.474 0.685599 -0.607663 -0.400873
59.4586 140.129 185.371 0.734044 0.321314 0.598279
59.1768 140.581 185.474 0.734044 0.321314 0.598279
59.2615 139.447 185.979 0.734044 0.321314 0.598279
59.2615 139.447 185.979 0.930469 0.204813 0.303775
59.1768 140.581 185.474 0.930469 0.204813 0.303775
59.0385 139.796 186.426 0.930469 0.204813 0.303775
59.4586 140.129 185.371 0.67406 0.373473 0.637308
59.2615 139.447 185.979 0.67406 0.373473 0.637308
59.8552 139.605 185.258 0.67406 0.373473 0.637308
59.3727 140.675 185.981 0.825183 -0.358902 -0.43619
59.6077 140.674 186.426 0.825183 -0.358902 -0.43619
59.3601 140.224 186.328 0.825183 -0.358902 -0.43619
54.19 140.512 185.53 -0.955147 0.228322 -0.188583
54.1034 140.795 186.311 -0.955147 0.228322 -0.188583
54.426 141.498 185.529 -0.955147 0.228322 -0.188583
54.1034 140.795 186.311 -0.95568 0.175191 -0.23661
54.2161 141.657 186.494 -0.95568 0.175191 -0.23661
54.426 141.498 185.529 -0.95568 0.175191 -0.23661
58.4992 141.537 185.33 0.59765 0.792926 -0.118674
58.0535 141.867 185.288 0.59765 0.792926 -0.118674
58.2286 141.8 185.726 0.59765 0.792926 -0.118674
58.4992 141.537 185.33 0.584756 0.800327 -0.132429
58.2286 141.8 185.726 0.584756 0.800327 -0.132429
58.9505 141.365 186.28 0.584756 0.800327 -0.132429
59.1768 140.581 185.474 0.801635 0.525166 -0.285626
58.4992 141.537 185.33 0.801635 0.525166 -0.285626
58.9505 141.365 186.28 0.801635 0.525166 -0.285626
59.1768 140.581 185.474 0.704058 0.597672 -0.383523
58.9505 141.365 186.28 0.704058 0.597672 -0.383523
59.3727 140.675 185.981 0.704058 0.597672 -0.383523
59.6077 140.674 186.426 0.710509 0.59691 -0.372659
59.3727 140.675 185.981 0.710509 0.59691 -0.372659
58.9505 141.365 186.28 0.710509 0.59691 -0.372659
54.426 141.498 185.529 -0.586152 0.769325 -0.254095
54.2161 141.657 186.494 -0.586152 0.769325 -0.254095
54.9732 142.247 186.533 -0.586152 0.769325 -0.254095
55.2931 142.244 185.426 -0.652909 0.733049 -0.190652
54.426 141.498 185.529 -0.652909 0.733049 -0.190652
54.9732 142.247 186.533 -0.652909 0.733049 -0.190652
56.2433 142.416 185.525 -0.173086 0.98357 -0.0513005
55.2931 142.244 185.426 -0.173086 0.98357 -0.0513005
55.9649 142.409 186.325 -0.173086 0.98357 -0.0513005
55.2931 142.244 185.426 -0.171832 0.983739 -0.0522692
54.9732 142.247 186.533 -0.171832 0.983739 -0.0522692
55.9649 142.409 186.325 -0.171832 0.983739 -0.0522692
57.3286 142.303 185.29 0.10818 0.993927 0.0201323
56.2433 142.416 185.525 0.10818 0.993927 0.0201323
56.9581 142.32 186.409 0.10818 0.993927 0.0201323
56.2433 142.416 185.525 0.0853719 0.995596 0.0387432
55.9649 142.409 186.325 0.0853719 0.995596 0.0387432
56.9581 142.32 186.409 0.0853719 0.995596 0.0387432
58.2286 141.8 185.726 0.513683 0.854639 -0.0756427
58.0535 141.867 185.288 0.513683 0.854639 -0.0756427
57.3286 142.303 185.29 0.513683 0.854639 -0.0756427
58.2286 141.8 185.726 0.542115 0.822653 -0.171328
57.3286 142.303 185.29 0.542115 0.822653 -0.171328
58.0266 142.074 186.4 0.542115 0.822653 -0.171328
58.0266 142.074 186.4 0.224888 0.97259 0.0591052
57.3286 142.303 185.29 0.224888 0.97259 0.0591052
56.9581 142.32 186.409 0.224888 0.97259 0.0591052
58.9505 141.365 186.28 0.590575 0.793826 -0.145126
58.2286 141.8 185.726 0.590575 0.793826 -0.145126
58.0266 142.074 186.4 0.590575 0.793826 -0.145126
56.3592 138.094 186.388 -0.447159 -0.734423 0.51056
56.1854 138.597 186.961 -0.447159 -0.734423 0.51056
55.5944 138.639 186.503 -0.447159 -0.734423 0.51056
56.3592 138.094 186.388 0.0079569 -0.724759 0.688956
57.2699 138.007 186.287 0.0079569 -0.724759 0.688956
56.9508 138.579 186.892 0.0079569 -0.724759 0.688956
56.1854 138.597 186.961 0.0420382 -0.743708 0.667182
56.3592 138.094 186.388 0.0420382 -0.743708 0.667182
56.9508 138.579 186.892 0.0420382 -0.743708 0.667182
57.2699 138.007 186.287 0.385974 -0.560268 0.732887
57.6501 138.561 186.51 0.385974 -0.560268 0.732887
56.9508 138.579 186.892 0.385974 -0.560268 0.732887
54.0187 139.59 186.826 -0.771432 -0.620976 -0.13886
54.2076 139.216 187.448 -0.771432 -0.620976 -0.13886
53.5204 140.066 187.466 -0.771432 -0.620976 -0.13886
54.0187 139.59 186.826 -0.64927 -0.649268 -0.396106
54.2426 139.733 186.225 -0.64927 -0.649268 -0.396106
54.8759 138.947 186.474 -0.64927 -0.649268 -0.396106
54.0187 139.59 186.826 -0.643536 -0.726451 -0.241104
54.8759 138.947 186.474 -0.643536 -0.726451 -0.241104
54.2076 139.216 187.448 -0.643536 -0.726451 -0.241104
54.2076 139.216 187.448 -0.154354 -0.974435 0.163252
54.8759 138.947 186.474 -0.154354 -0.974435 0.163252
55.1492 139.046 187.323 -0.154354 -0.974435 0.163252
55.5944 138.639 186.503 -0.391558 -0.890978 0.229871
55.1492 139.046 187.323 -0.391558 -0.890978 0.229871
54.8759 138.947 186.474 -0.391558 -0.890978 0.229871
55.5944 138.639 186.503 0.287373 -0.786582 0.54654
56.1937 139.29 187.125 0.287373 -0.786582 0.54654
55.1492 139.046 187.323 0.287373 -0.786582 0.54654
55.5944 138.639 186.503 -0.610763 -0.175371 0.772148
56.1854 138.597 186.961 -0.610763 -0.175371 0.772148
56.1937 139.29 187.125 -0.610763 -0.175371 0.772148
55.7602 139.639 187.603 0.284482 -0.633023 0.719967
55.1492 139.046 187.323 0.284482 -0.633023 0.719967
56.1937 139.29 187.125 0.284482 -0.633023 0.719967
57.2173 139.143 186.585 0.477616 0.142229 0.86698
56.8868 139.556 186.7 0.477616 0.142229 0.86698
56.1937 139.29 187.125 0.477616 0.142229 0.86698
57.2173 139.143 186.585 0.479596 0.233551 0.845837
56.1937 139.29 187.125 0.479596 0.233551 0.845837
56.9508 138.579 186.892 0.479596 0.233551 0.845837
56.9508 138.579 186.892 0.0818462 -0.230452 0.969636
56.1937 139.29 187.125 0.0818462 -0.230452 0.969636
56.1854 138.597 186.961 0.0818462 -0.230452 0.969636
57.6501 138.561 186.51 0.469859 0.240121 0.849455
57.2173 139.143 186.585 0.469859 0.240121 0.849455
56.9508 138.579 186.892 0.469859 0.240121 0.849455
58.4355 139.186 186.472 -0.137983 -0.61032 0.780045
58.4202 139.785 186.938 -0.137983 -0.61032 0.780045
57.6934 139.589 186.656 -0.137983 -0.61032 0.780045
58.4355 139.186 186.472 0.557127 -0.500926 0.662331
59.0385 139.796 186.426 0.557127 -0.500926 0.662331
58.4202 139.785 186.938 0.557127 -0.500926 0.662331
53.8954 140.396 186.742 -0.836807 -0.181474 -0.516547
54.0187 139.59 186.826 -0.836807 -0.181474 -0.516547
53.5204 140.066 187.466 -0.836807 -0.181474 -0.516547
54.2426 139.733 186.225 -0.869669 -0.0743886 -0.487999
53.8954 140.396 186.742 -0.869669 -0.0743886 -0.487999
54.1034 140.795 186.311 -0.869669 -0.0743886 -0.487999
54.0187 139.59 186.826 -0.907536 -0.178166 -0.380309
53.8954 140.396 186.742 -0.907536 -0.178166 -0.380309
54.2426 139.733 186.225 -0.907536 -0.178166 -0.380309
56.1937 139.29 187.125 0.402513 -0.52617 0.749085
56.4251 139.886 187.419 0.402513 -0.52617 0.749085
55.7602 139.639 187.603 0.402513 -0.52617 0.749085
56.8868 139.556 186.7 0.581922 -0.53037 0.616502
56.4251 139.886 187.419 0.581922 -0.53037 0.616502
56.1937 139.29 187.125 0.581922 -0.53037 0.616502
56.8868 139.556 186.7 0.428288 -0.685307 0.589003
57.1243 139.73 186.729 0.428288 -0.685307 0.589003
56.4251 139.886 187.419 0.428288 -0.685307 0.589003
57.1243 139.73 186.729 0.214052 -0.883438 0.416796
57.2906 140.056 187.335 0.214052 -0.883438 0.416796
56.4251 139.886 187.419 0.214052 -0.883438 0.416796
57.6934 139.589 186.656 -0.146535 -0.853675 0.499767
57.2906 140.056 187.335 -0.146535 -0.853675 0.499767
57.1243 139.73 186.729 -0.146535 -0.853675 0.499767
57.6934 139.589 186.656 0.478475 -0.56481 0.672347
58.0961 140.558 187.183 0.478475 -0.56481 0.672347
57.2906 140.056 187.335 0.478475 -0.56481 0.672347
57.6934 139.589 186.656 -0.241811 -0.384403 0.890933
58.4202 139.785 186.938 -0.241811 -0.384403 0.890933
58.0961 140.558 187.183 -0.241811 -0.384403 0.890933
57.6507 140.675 187.489 0.42477 -0.443586 0.789178
57.2906 140.056 187.335 0.42477 -0.443586 0.789178
58.0961 140.558 187.183 0.42477 -0.443586 0.789178
59.0385 139.796 186.426 0.705808 -0.395918 0.587439
59.3601 140.224 186.328 0.705808 -0.395918 0.587439
59.0743 140.569 186.904 0.705808 -0.395918 0.587439
59.0385 139.796 186.426 0.574246 -0.449623 0.684164
59.0743 140.569 186.904 0.574246 -0.449623 0.684164
58.4202 139.785 186.938 0.574246 -0.449623 0.684164
58.4202 139.785 186.938 0.271925 -0.18598 0.944176
59.0743 140.569 186.904 0.271925 -0.18598 0.944176
58.0961 140.558 187.183 0.271925 -0.18598 0.944176
59.3601 140.224 186.328 0.635309 -0.481583 0.603705
59.6077 140.674 186.426 0.635309 -0.481583 0.603705
59.0743 140.569 186.904 0.635309 -0.481583 0.603705
53.8476 141.29 186.909 -0.893846 0.0353576 -0.446978
53.8954 140.396 186.742 -0.893846 0.0353576 -0.446978
53.5204 140.066 187.466 -0.893846 0.0353576 -0.446978
53.5116 141.345 187.68 -0.913615 0.0611208 -0.401961
53.8476 141.29 186.909 -0.913615 0.0611208 -0.401961
53.5204 140.066 187.466 -0.913615 0.0611208 -0.401961
54.1034 140.795 186.311 -0.817393 0.220021 -0.532408
53.8476 141.29 186.909 -0.817393 0.220021 -0.532408
54.2161 141.657 186.494 -0.817393 0.220021 -0.532408
53.8954 140.396 186.742 -0.910313 0.0281485 -0.412963
53.8476 141.29 186.909 -0.910313 0.0281485 -0.412963
54.1034 140.795 186.311 -0.910313 0.0281485 -0.412963
57.6507 140.675 187.489 0.58525 0.420545 0.693271
58.0961 140.558 187.183 0.58525 0.420545 0.693271
57.2793 141.546 187.274 0.58525 0.420545 0.693271
58.0961 140.558 187.183 0.260884 0.128112 0.956832
58.3343 141.427 187.002 0.260884 0.128112 0.956832
57.2793 141.546 187.274 0.260884 0.128112 0.956832
58.9505 141.365 186.28 0.672196 0.518731 0.528271
58.3343 141.427 187.002 0.672196 0.518731 0.528271
59.0743 140.569 186.904 0.672196 0.518731 0.528271
59.0743 140.569 186.904 0.271508 0.124677 0.954326
58.3343 141.427 187.002 0.271508 0.124677 0.954326
58.0961 140.558 187.183 0.271508 0.124677 0.954326
59.6077 140.674 186.426 0.471527 0.588383 0.656862
58.9505 141.365 186.28 0.471527 0.588383 0.656862
59.0743 140.569 186.904 0.471527 0.588383 0.656862
53.8476 141.29 186.909 -0.78943 0.483868 -0.377718
53.5116 141.345 187.68 -0.78943 0.483868 -0.377718
54.1111 142.029 187.304 -0.78943 0.483868 -0.377718
54.2161 141.657 186.494 -0.824513 0.466002 -0.320968
53.8476 141.29 186.909 -0.824513 0.466002 -0.320968
54.1111 142.029 187.304 -0.824513 0.466002 -0.320968
54.2161 141.657 186.494 -0.548331 0.730672 -0.406758
54.1111 142.029 187.304 -0.548331 0.730672 -0.406758
54.9732 142.247 186.533 -0.548331 0.730672 -0.406758
54.9732 142.247 186.533 -0.202138 0.978084 0.0499193
54.1111 142.029 187.304 -0.202138 0.978084 0.0499193
54.9028 142.182 187.507 -0.202138 0.978084 0.0499193
55.9649 142.409 186.325 -0.113385 0.969833 0.215797
54.9732 142.247 186.533 -0.113385 0.969833 0.215797
55.9829 142.192 187.309 -0.113385 0.969833 0.215797
54.9732 142.247 186.533 0.00325791 0.997809 0.0660728
54.9028 142.182 187.507 0.00325791 0.997809 0.0660728
55.9829 142.192 187.309 0.00325791 0.997809 0.0660728
57.2793 141.546 187.274 0.389759 0.753129 0.529986
56.9581 142.32 186.409 0.389759 0.753129 0.529986
55.9829 142.192 187.309 0.389759 0.753129 0.529986
55.9829 142.192 187.309 0.0686461 0.974527 0.213506
56.9581 142.32 186.409 0.0686461 0.974527 0.213506
55.9649 142.409 186.325 0.0686461 0.974527 0.213506
58.0266 142.074 186.4 0.181781 0.764992 0.617853
56.9581 142.32 186.409 0.181781 0.764992 0.617853
57.2793 141.546 187.274 0.181781 0.764992 0.617853
58.3343 141.427 187.002 0.247701 0.720718 0.647464
58.0266 142.074 186.4 0.247701 0.720718 0.647464
57.2793 141.546 187.274 0.247701 0.720718 0.647464
58.9505 141.365 186.28 0.582778 0.68475 0.437593
58.0266 142.074 186.4 0.582778 0.68475 0.437593
58.3343 141.427 187.002 0.582778 0.68475 0.437593
54.2076 139.216 187.448 -0.698737 -0.574361 0.426469
54.0662 139.957 188.214 -0.698737 -0.574361 0.426469
53.5204 140.066 187.466 -0.698737 -0.574361 0.426469
54.2076 139.216 187.448 -0.0419689 -0.730429 0.681698
55.1492 139.046 187.323 -0.0419689 -0.730429 0.681698
54.9957 139.703 188.018 -0.0419689 -0.730429 0.681698
54.0662 139.957 188.214 -0.0521674 -0.722705 0.689185
54.2076 139.216 187.448 -0.0521674 -0.722705 0.689185
54.9957 139.703 188.018 -0.0521674 -0.722705 0.689185
55.1492 139.046 187.323 0.31823 -0.652591 0.687645
55.7602 139.639 187.603 0.31823 -0.652591 0.687645
54.9957 139.703 188.018 0.31823 -0.652591 0.687645
54.0662 139.957 188.214 -0.657804 -0.646678 0.386136
53.4696 140.613 188.296 -0.657804 -0.646678 0.386136
53.5204 140.066 187.466 -0.657804 -0.646678 0.386136
54.0662 139.957 188.214 0.303918 -0.401597 0.863917
54.979 140.721 188.248 0.303918 -0.401597 0.863917
54.3722 140.729 188.465 0.303918 -0.401597 0.863917
54.0662 139.957 188.214 0.144564 -0.215575 0.965727
54.9957 139.703 188.018 0.144564 -0.215575 0.965727
54.979 140.721 188.248 0.144564 -0.215575 0.965727
55.7602 139.639 187.603 0.4034 -0.531945 0.744515
56.4251 139.886 187.419 0.4034 -0.531945 0.744515
55.9521 140.437 188.069 0.4034 -0.531945 0.744515
55.7602 139.639 187.603 0.368431 -0.533413 0.7614
55.9521 140.437 188.069 0.368431 -0.533413 0.7614
54.9957 139.703 188.018 0.368431 -0.533413 0.7614
54.9957 139.703 188.018 0.114479 -0.21691 0.969456
55.9521 140.437 188.069 0.114479 -0.21691 0.969456
54.979 140.721 188.248 0.114479 -0.21691 0.969456
56.4251 139.886 187.419 0.193201 -0.596406 0.779085
57.2906 140.056 187.335 0.193201 -0.596406 0.779085
56.9389 140.662 187.886 0.193201 -0.596406 0.779085
55.9521 140.437 188.069 0.277907 -0.623461 0.730796
56.4251 139.886 187.419 0.277907 -0.623461 0.730796
56.9389 140.662 187.886 0.277907 -0.623461 0.730796
57.2906 140.056 187.335 0.4413 -0.450011 0.776366
57.6507 140.675 187.489 0.4413 -0.450011 0.776366
56.9389 140.662 187.886 0.4413 -0.450011 0.776366
53.858 141.143 188.404 -0.466343 0.768743 0.437674
54.2115 141.537 188.088 -0.466343 0.768743 0.437674
53.5116 141.345 187.68 -0.466343 0.768743 0.437674
53.858 141.143 188.404 -0.74973 0.450655 0.484576
53.5116 141.345 187.68 -0.74973 0.450655 0.484576
53.4696 140.613 188.296 -0.74973 0.450655 0.484576
53.4696 140.613 188.296 -0.997974 0.00376805 -0.0635165
53.5116 141.345 187.68 -0.997974 0.00376805 -0.0635165
53.5204 140.066 187.466 -0.997974 0.00376805 -0.0635165
54.3722 140.729 188.465 0.261295 0.450064 0.853913
54.2115 141.537 188.088 0.261295 0.450064 0.853913
53.858 141.143 188.404 0.261295 0.450064 0.853913
54.3722 140.729 188.465 0.306176 0.451588 0.838048
54.979 140.721 188.248 0.306176 0.451588 0.838048
54.2115 141.537 188.088 0.306176 0.451588 0.838048
54.979 140.721 188.248 0.0179137 0.208004 0.977964
55.1437 141.671 188.043 0.0179137 0.208004 0.977964
54.2115 141.537 188.088 0.0179137 0.208004 0.977964
55.9521 140.437 188.069 0.18412 0.0136181 0.982809
56.079 141.394 188.032 0.18412 0.0136181 0.982809
54.979 140.721 188.248 0.18412 0.0136181 0.982809
56.079 141.394 188.032 0.0696905 0.198936 0.977531
55.1437 141.671 188.043 0.0696905 0.198936 0.977531
54.979 140.721 188.248 0.0696905 0.198936 0.977531
57.2793 141.546 187.274 0.459573 0.379013 0.803208
56.079 141.394 188.032 0.459573 0.379013 0.803208
56.9389 140.662 187.886 0.459573 0.379013 0.803208
56.9389 140.662 187.886 0.179795 0.0142226 0.983601
56.079 141.394 188.032 0.179795 0.0142226 0.983601
55.9521 140.437 188.069 0.179795 0.0142226 0.983601
57.6507 140.675 187.489 0.443519 0.388346 0.807761
57.2793 141.546 187.274 0.443519 0.388346 0.807761
56.9389 140.662 187.886 0.443519 0.388346 0.807761
53.5116 141.345 187.68 -0.490376 0.708661 0.507278
54.2115 141.537 188.088 -0.490376 0.708661 0.507278
54.1111 142.029 187.304 -0.490376 0.708661 0.507278
54.9028 142.182 187.507 -0.290654 0.793383 0.534849
54.1111 142.029 187.304 -0.290654 0.793383 0.534849
54.2115 141.537 188.088 -0.290654 0.793383 0.534849
55.1437 141.671 188.043 -0.0667663 0.706444 0.704613
54.9028 142.182 187.507 -0.0667663 0.706444 0.704613
54.2115 141.537 188.088 -0.0667663 0.706444 0.704613
55.9829 142.192 187.309 0.114153 0.743622 0.658784
54.9028 142.182 187.507 0.114153 0.743622 0.658784
55.1437 141.671 188.043 0.114153 0.743622 0.658784
56.079 141.394 188.032 0.206448 0.670633 0.712482
55.9829 142.192 187.309 0.206448 0.670633 0.712482
55.1437 141.671 188.043 0.206448 0.670633 0.712482
57.2793 141.546 187.274 0.343763 0.65303 0.674818
55.9829 142.192 187.309 0.343763 0.65303 0.674818
56.079 141.394 188.032 0.343763 0.65303 0.674818
54.0662 139.957 188.214 -0.576165 -0.594319 0.561088
53.9107 140.603 188.738 -0.576165 -0.594319 0.561088
53.4696 140.613 188.296 -0.576165 -0.594319 0.561088
54.0662 139.957 188.214 0.542943 -0.446672 0.711124
54.3722 140.729 188.465 0.542943 -0.446672 0.711124
53.9107 140.603 188.738 0.542943 -0.446672 0.711124
53.4696 140.613 188.296 -0.659921 0.347839 0.665967
53.9107 140.603 188.738 -0.659921 0.347839 0.665967
53.858 141.143 188.404 -0.659921 0.347839 0.665967
54.3722 140.729 188.465 0.325532 0.520354 0.789469
53.858 141.143 188.404 0.325532 0.520354 0.789469
53.9107 140.603 188.738 0.325532 0.520354 0.789469
3 0 1 2
3 3 4 5
3 6 7 8
3 9 10 11
3 12 13 14
3 15 16 17
3 18 19 20
3 21 22 23
3 24 25 26
3 27 28 29
3 30 31 32
3 33 34 35
3 36 37 38
3 39 40 41
3 42 43 44
3 45 46 47
3 48 49 50
3 51 52 53
3 54 55 56
3 57 58 59
3 60 61 62
3 63 64 65
3 66 67 68
3 69 70 71
3 72 73 74
3 75 76 77
3 78 79 80
3 81 82 83
3 84 85 86
3 87 88 89
3 90 91 92
3 93 94 95
3 96 97 98
3 99 100 101
3 102 103 104
3 105 106 107
3 108 109 110
3 111 112 113
3 114 115 116
3 117 118 119
3 120 121 122
3 123 124 125
3 126 127 128
3 129 130 131
3 132 133 134
3 135 136 137
3 138 139 140
3 141 142 143
3 144 145 146
3 147 148 149
3 150 151 152
3 153 154 155
3 156 157 158
3 159 160 161
3 162 163 164
3 165 166 167
3 168 169 170
3 171 172 173
3 174 175 176
3 177 178 179
3 180 181 182
3 183 184 185
3 186 187 188
3 189 190 191
3 192 193 194
3 195 196 197
3 198 199 200
3 201 202 203
3 204 205 206
3 207 208 209
3 210 211 212
3 213 214 215
3 216 217 218
3 219 220 221
3 222 223 224
3 225 226 227
3 228 229 230
3 231 232 233
3 234 235 236
3 237 238 239
3 240 241 242
3 243 244 245
3 246 247 248
3 249 250 251
3 252 253 254
3 255 256 257
3 258 259 260
3 261 262 263
3 264 265 266
3 267 268 269
3 270 271 272
3 273 274 275
3 276 277 278
3 279 280 281
3 282 283 284
3 285 286 287
3 288 289 290
3 291 292 293
3 294 295 296
3 297 298 299
3 300 301 302
3 303 304 305
3 306 307 308
3 309 310 311
3 312 313 314
3 315 316 317
3 318 319 320
3 321 322 323
3 324 325 326
3 327 328 329
3 330 331 332
3 333 334 335
3 336 337 338
3 339 340 341
3 342 343 344
3 345 346 347
3 348 349 350
3 351 352 353
3 354 355 356
3 357 358 359
3 360 361 362
3 363 364 365
3 366 367 368
3 369 370 371
3 372 373 374
3 375 376 377
3 378 379 380
3 381 382 383
3 384 385 386
3 387 388 389
3 390 391 392
3 393 394 395
3 396 397 398
3 399 400 401
3 402 403 404
3 405 406 407
3 408 409 410
3 411 412 413
3 414 415 416
3 417 418 419
3 420 421 422
3 423 424 425
3 426 427 428
3 429 430 431
3 432 433 434
3 435 436 437
3 438 439 440
3 441 442 443
3 444 445 446
3 447 448 449
3 450 451 452
3 453 454 455
3 456 457 458
3 459 460 461
3 462 463 464
3 465 466 467
3 468 469 470
3 471 472 473
3 474 475 476
3 477 478 479
3 480 481 482
3 483 484 485
3 486 487 488
3 489 490 491
3 492 493 494
3 495 496 497
3 498 499 500
3 501 502 503
3 504 505 506
3 507 508 509
3 510 511 512
3 513 514 515
3 516 517 518
3 519 520 521
3 522 523 524
3 525 526 527
3 528 529 530
3 531 532 533
3 534 535 536
3 537 538 539
3 540 541 542
3 543 544 545
3 546 547 548
3 549 550 551
3 552 553 554
3 555 556 557
3 558 559 560
3 561 562 563
3 564 565 566
3 567 568 569
3 570 571 572
3 573 574 575
3 576 577 578
3 579 580 581
3 582 583 584
3 585 586 587
3 588 589 590
3 591 592 593
3 594 595 596
3 597 598 599
3 600 601 602
3 603 604 605
3 606 607 608
3 609 610 611
3 612 613 614
3 615 616 617
3 618 619 620
3 621 622 623
3 624 625 626
3 627 628 629
3 630 631 632
3 633 634 635
3 636 637 638
3 639 640 641
3 642 643 644
3 645 646 647
3 648 649 650
3 651 652 653
3 654 655 656
3 657 658 659
3 660 661 662
3 663 664 665
3 666 667 668
3 669 670 671
3 672 673 674
3 675 676 677
3 678 679 680
3 681 682 683
3 684 685 686
3 687 688 689
3 690 691 692
3 693 694 695
3 696 697 698
3 699 700 701
3 702 703 704
3 705 706 707
3 708 709 710
3 711 712 713
3 714 715 716
3 717 718 719
3 720 721 722
3 723 724 725
3 726 727 728
3 729 730 731
3 732 733 734
3 735 736 737
3 738 739 740
3 741 742 743
3 744 745 746
3 747 748 749
3 750 751 752
3 753 754 755
3 756 757 758
3 759 760 761
3 762 763 764
3 765 766 767
3 768 769 770
3 771 772 773
3 774 775 776
3 777 778 779
3 780 781 782
3 783 784 785
3 786 787 788
3 789 790 791
3 792 793 794
3 795 796 797
3 798 799 800
3 801 802 803
3 804 805 806
3 807 808 809
3 810 811 812
3 813 814 815
3 816 817 818
3 819 820 821
3 822 823 824
3 825 826 827
