solid ascii
 facet normal -0.702738 -0.330441 -0.630054
  outer loop
   vertex 77.0157 132.258 182.081
   vertex 76.9424 131.756 182.425
   vertex 76.5779 132.231 182.583
  endloop
 endfacet
 facet normal 0.336779 -0.566289 -0.752261
  outer loop
   vertex 76.9424 131.756 182.425
   vertex 77.0157 132.258 182.081
   vertex 77.4532 132.147 182.359
  endloop
 endfacet
 facet normal -0.543943 0.71663 -0.43654
  outer loop
   vertex 77.0157 132.258 182.081
   vertex 76.5779 132.231 182.583
   vertex 77.2081 132.673 182.522
  endloop
 endfacet
 facet normal 0.555375 0.471625 -0.68493
  outer loop
   vertex 77.4532 132.147 182.359
   vertex 77.0157 132.258 182.081
   vertex 77.2081 132.673 182.522
  endloop
 endfacet
 facet normal -0.400048 -0.521222 -0.753849
  outer loop
   vertex 77.2747 131.366 182.738
   vertex 76.9639 130.754 183.326
   vertex 76.4706 131.438 183.115
  endloop
 endfacet
 facet normal 0.154412 -0.586934 -0.794774
  outer loop
   vertex 77.2747 131.366 182.738
   vertex 78.1464 131.402 182.881
   vertex 78.082 130.616 183.448
  endloop
 endfacet
 facet normal -0.00603434 -0.691287 -0.722555
  outer loop
   vertex 76.9639 130.754 183.326
   vertex 77.2747 131.366 182.738
   vertex 78.082 130.616 183.448
  endloop
 endfacet
 facet normal 0.425235 -0.552718 -0.716713
  outer loop
   vertex 78.082 130.616 183.448
   vertex 78.1464 131.402 182.881
   vertex 78.7795 131.207 183.407
  endloop
 endfacet
 facet normal -0.335833 -0.746728 -0.57412
  outer loop
   vertex 76.9424 131.756 182.425
   vertex 77.2747 131.366 182.738
   vertex 76.4706 131.438 183.115
  endloop
 endfacet
 facet normal -0.701752 -0.329089 -0.631858
  outer loop
   vertex 76.9424 131.756 182.425
   vertex 76.4706 131.438 183.115
   vertex 76.5779 132.231 182.583
  endloop
 endfacet
 facet normal -0.988563 0.0353474 -0.146609
  outer loop
   vertex 76.5779 132.231 182.583
   vertex 76.4706 131.438 183.115
   vertex 76.447 132.124 183.44
  endloop
 endfacet
 facet normal 0.248966 -0.467872 -0.848005
  outer loop
   vertex 77.4532 132.147 182.359
   vertex 77.2747 131.366 182.738
   vertex 76.9424 131.756 182.425
  endloop
 endfacet
 facet normal 0.565767 -0.460724 -0.683843
  outer loop
   vertex 77.4532 132.147 182.359
   vertex 77.9099 132.183 182.713
   vertex 77.2747 131.366 182.738
  endloop
 endfacet
 facet normal 0.16591 -0.158714 -0.973285
  outer loop
   vertex 77.9099 132.183 182.713
   vertex 78.1464 131.402 182.881
   vertex 77.2747 131.366 182.738
  endloop
 endfacet
 facet normal 0.626785 -0.0611436 -0.77679
  outer loop
   vertex 78.6988 132.043 183.276
   vertex 78.7795 131.207 183.407
   vertex 78.1464 131.402 182.881
  endloop
 endfacet
 facet normal 0.581019 0.00120512 -0.813889
  outer loop
   vertex 77.9099 132.183 182.713
   vertex 78.6988 132.043 183.276
   vertex 78.1464 131.402 182.881
  endloop
 endfacet
 facet normal -0.742312 0.6694 -0.0296056
  outer loop
   vertex 76.5779 132.231 182.583
   vertex 76.447 132.124 183.44
   vertex 76.9964 132.723 183.21
  endloop
 endfacet
 facet normal -0.572865 0.785579 -0.233864
  outer loop
   vertex 77.2081 132.673 182.522
   vertex 76.5779 132.231 182.583
   vertex 76.9964 132.723 183.21
  endloop
 endfacet
 facet normal 0.518996 0.464732 -0.717403
  outer loop
   vertex 77.9099 132.183 182.713
   vertex 77.4532 132.147 182.359
   vertex 77.2081 132.673 182.522
  endloop
 endfacet
 facet normal 0.56642 0.586698 -0.578752
  outer loop
   vertex 77.9099 132.183 182.713
   vertex 77.2081 132.673 182.522
   vertex 77.9408 132.819 183.388
  endloop
 endfacet
 facet normal -0.0825049 0.991769 -0.0979175
  outer loop
   vertex 77.9408 132.819 183.388
   vertex 77.2081 132.673 182.522
   vertex 76.9964 132.723 183.21
  endloop
 endfacet
 facet normal 0.531256 0.604334 -0.593757
  outer loop
   vertex 78.6988 132.043 183.276
   vertex 77.9099 132.183 182.713
   vertex 77.9408 132.819 183.388
  endloop
 endfacet
 facet normal -0.586789 -0.569211 -0.575914
  outer loop
   vertex 76.107 130.182 183.934
   vertex 75.8893 129.758 184.575
   vertex 75.4769 130.383 184.377
  endloop
 endfacet
 facet normal -0.106769 -0.713623 -0.692346
  outer loop
   vertex 76.107 130.182 183.934
   vertex 77.1022 130.228 183.733
   vertex 76.7751 129.53 184.503
  endloop
 endfacet
 facet normal -0.245639 -0.767955 -0.591529
  outer loop
   vertex 75.8893 129.758 184.575
   vertex 76.107 130.182 183.934
   vertex 76.7751 129.53 184.503
  endloop
 endfacet
 facet normal 0.00292202 -0.727689 -0.685901
  outer loop
   vertex 77.1022 130.228 183.733
   vertex 78.0943 130.142 183.828
   vertex 78.0686 129.52 184.489
  endloop
 endfacet
 facet normal -0.013337 -0.737947 -0.674727
  outer loop
   vertex 76.7751 129.53 184.503
   vertex 77.1022 130.228 183.733
   vertex 78.0686 129.52 184.489
  endloop
 endfacet
 facet normal 0.382528 -0.679661 -0.625886
  outer loop
   vertex 78.0686 129.52 184.489
   vertex 78.0943 130.142 183.828
   vertex 79.0852 130.168 184.406
  endloop
 endfacet
 facet normal -0.596707 -0.123552 -0.792891
  outer loop
   vertex 76.1121 131.156 183.778
   vertex 76.107 130.182 183.934
   vertex 75.4769 130.383 184.377
  endloop
 endfacet
 facet normal -0.784275 0.186691 -0.591658
  outer loop
   vertex 75.4833 131.087 184.59
   vertex 76.1121 131.156 183.778
   vertex 75.4769 130.383 184.377
  endloop
 endfacet
 facet normal -0.577641 -0.590697 -0.56339
  outer loop
   vertex 76.9639 130.754 183.326
   vertex 76.1121 131.156 183.778
   vertex 76.4706 131.438 183.115
  endloop
 endfacet
 facet normal -0.577737 -0.588945 -0.565122
  outer loop
   vertex 76.9639 130.754 183.326
   vertex 77.1022 130.228 183.733
   vertex 76.1121 131.156 183.778
  endloop
 endfacet
 facet normal -0.18903 -0.153974 -0.969825
  outer loop
   vertex 77.1022 130.228 183.733
   vertex 76.107 130.182 183.934
   vertex 76.1121 131.156 183.778
  endloop
 endfacet
 facet normal 0.0116668 -0.609856 -0.792427
  outer loop
   vertex 78.082 130.616 183.448
   vertex 77.1022 130.228 183.733
   vertex 76.9639 130.754 183.326
  endloop
 endfacet
 facet normal 0.0209496 -0.624648 -0.780626
  outer loop
   vertex 78.0943 130.142 183.828
   vertex 77.1022 130.228 183.733
   vertex 78.082 130.616 183.448
  endloop
 endfacet
 facet normal 0.501289 -0.489672 -0.713394
  outer loop
   vertex 78.7795 131.207 183.407
   vertex 79.3132 131.337 183.693
   vertex 79.1309 130.649 184.036
  endloop
 endfacet
 facet normal 0.421806 -0.54901 -0.721573
  outer loop
   vertex 78.082 130.616 183.448
   vertex 78.7795 131.207 183.407
   vertex 79.1309 130.649 184.036
  endloop
 endfacet
 facet normal 0.412487 -0.579024 -0.703268
  outer loop
   vertex 78.082 130.616 183.448
   vertex 79.1309 130.649 184.036
   vertex 79.0852 130.168 184.406
  endloop
 endfacet
 facet normal 0.428827 -0.557942 -0.710499
  outer loop
   vertex 78.082 130.616 183.448
   vertex 79.0852 130.168 184.406
   vertex 78.0943 130.142 183.828
  endloop
 endfacet
 facet normal 0.360209 -0.398905 -0.843282
  outer loop
   vertex 79.3132 131.337 183.693
   vertex 80.1094 131.507 183.952
   vertex 80.0155 130.693 184.297
  endloop
 endfacet
 facet normal 0.269027 -0.486863 -0.831017
  outer loop
   vertex 79.1309 130.649 184.036
   vertex 79.3132 131.337 183.693
   vertex 80.0155 130.693 184.297
  endloop
 endfacet
 facet normal 0.554982 -0.378019 -0.741011
  outer loop
   vertex 80.0155 130.693 184.297
   vertex 80.1094 131.507 183.952
   vertex 80.8517 131.322 184.603
  endloop
 endfacet
 facet normal -0.723575 0.451101 -0.522443
  outer loop
   vertex 76.1121 131.156 183.778
   vertex 75.4833 131.087 184.59
   vertex 75.9763 131.663 184.405
  endloop
 endfacet
 facet normal -0.895373 0.164821 -0.413692
  outer loop
   vertex 76.1121 131.156 183.778
   vertex 76.447 132.124 183.44
   vertex 76.4706 131.438 183.115
  endloop
 endfacet
 facet normal -0.891551 0.389322 0.23144
  outer loop
   vertex 76.1121 131.156 183.778
   vertex 76.6584 132.034 184.405
   vertex 76.447 132.124 183.44
  endloop
 endfacet
 facet normal -0.370636 0.680703 -0.63188
  outer loop
   vertex 76.1121 131.156 183.778
   vertex 75.9763 131.663 184.405
   vertex 76.6584 132.034 184.405
  endloop
 endfacet
 facet normal -0.629525 0.748775 0.207445
  outer loop
   vertex 77.0731 132.504 183.968
   vertex 76.447 132.124 183.44
   vertex 76.6584 132.034 184.405
  endloop
 endfacet
 facet normal -0.753085 0.657881 -0.00752775
  outer loop
   vertex 76.6584 132.034 184.405
   vertex 77.1245 132.57 184.599
   vertex 77.0731 132.504 183.968
  endloop
 endfacet
 facet normal 0.627889 0.0898656 -0.773098
  outer loop
   vertex 79.3132 131.337 183.693
   vertex 78.6988 132.043 183.276
   vertex 79.1873 132.429 183.718
  endloop
 endfacet
 facet normal 0.487181 -0.0890298 -0.868751
  outer loop
   vertex 78.7795 131.207 183.407
   vertex 78.6988 132.043 183.276
   vertex 79.3132 131.337 183.693
  endloop
 endfacet
 facet normal 0.593608 0.397774 -0.699575
  outer loop
   vertex 80.0368 132.399 184.397
   vertex 80.4318 131.979 184.494
   vertex 80.1094 131.507 183.952
  endloop
 endfacet
 facet normal 0.581031 0.401059 -0.708206
  outer loop
   vertex 80.0368 132.399 184.397
   vertex 80.1094 131.507 183.952
   vertex 79.1873 132.429 183.718
  endloop
 endfacet
 facet normal 0.298394 0.0559155 -0.952804
  outer loop
   vertex 79.1873 132.429 183.718
   vertex 80.1094 131.507 183.952
   vertex 79.3132 131.337 183.693
  endloop
 endfacet
 facet normal 0.66854 0.316192 -0.67311
  outer loop
   vertex 80.8517 131.322 184.603
   vertex 80.1094 131.507 183.952
   vertex 80.4318 131.979 184.494
  endloop
 endfacet
 facet normal -0.65577 0.704996 0.270085
  outer loop
   vertex 76.447 132.124 183.44
   vertex 77.0731 132.504 183.968
   vertex 76.9964 132.723 183.21
  endloop
 endfacet
 facet normal -0.150725 0.945547 0.288484
  outer loop
   vertex 77.0731 132.504 183.968
   vertex 77.9408 132.819 183.388
   vertex 76.9964 132.723 183.21
  endloop
 endfacet
 facet normal -0.572065 0.646358 -0.504939
  outer loop
   vertex 77.0731 132.504 183.968
   vertex 77.5536 133.253 184.381
   vertex 77.9408 132.819 183.388
  endloop
 endfacet
 facet normal -0.844702 0.535084 0.0127848
  outer loop
   vertex 77.0731 132.504 183.968
   vertex 77.1245 132.57 184.599
   vertex 77.5536 133.253 184.381
  endloop
 endfacet
 facet normal -0.378405 0.785277 -0.49005
  outer loop
   vertex 77.5536 133.253 184.381
   vertex 78.2833 133.232 183.785
   vertex 77.9408 132.819 183.388
  endloop
 endfacet
 facet normal 0.359977 0.467889 -0.807153
  outer loop
   vertex 77.9408 132.819 183.388
   vertex 79.1873 132.429 183.718
   vertex 78.6988 132.043 183.276
  endloop
 endfacet
 facet normal 0.360775 0.473518 -0.803506
  outer loop
   vertex 77.9408 132.819 183.388
   vertex 78.2833 133.232 183.785
   vertex 79.1873 132.429 183.718
  endloop
 endfacet
 facet normal 0.140238 0.238551 -0.960951
  outer loop
   vertex 78.2833 133.232 183.785
   vertex 79.0282 133.368 183.927
   vertex 79.1873 132.429 183.718
  endloop
 endfacet
 facet normal 0.610871 0.246536 -0.752367
  outer loop
   vertex 79.7537 133.308 184.465
   vertex 80.0368 132.399 184.397
   vertex 79.1873 132.429 183.718
  endloop
 endfacet
 facet normal 0.587868 0.270032 -0.762557
  outer loop
   vertex 79.0282 133.368 183.927
   vertex 79.7537 133.308 184.465
   vertex 79.1873 132.429 183.718
  endloop
 endfacet
 facet normal -0.486401 0.619174 -0.616471
  outer loop
   vertex 78.2833 133.232 183.785
   vertex 77.5536 133.253 184.381
   vertex 78.2976 133.802 184.346
  endloop
 endfacet
 facet normal 0.00846388 0.701497 -0.712623
  outer loop
   vertex 79.0282 133.368 183.927
   vertex 78.2833 133.232 183.785
   vertex 78.2976 133.802 184.346
  endloop
 endfacet
 facet normal 0.0309635 0.720353 -0.692916
  outer loop
   vertex 79.1064 133.982 184.57
   vertex 79.0282 133.368 183.927
   vertex 78.2976 133.802 184.346
  endloop
 endfacet
 facet normal 0.512398 0.588518 -0.625376
  outer loop
   vertex 79.7537 133.308 184.465
   vertex 79.0282 133.368 183.927
   vertex 79.1064 133.982 184.57
  endloop
 endfacet
 facet normal -0.38485 -0.792712 -0.472756
  outer loop
   vertex 77.2654 129.093 184.87
   vertex 77.1221 128.67 185.695
   vertex 76.4764 129.176 185.372
  endloop
 endfacet
 facet normal -0.00430908 -0.812068 -0.583547
  outer loop
   vertex 77.2654 129.093 184.87
   vertex 78.0652 129.094 184.863
   vertex 78.0836 128.629 185.51
  endloop
 endfacet
 facet normal -0.12826 -0.873512 -0.469601
  outer loop
   vertex 77.1221 128.67 185.695
   vertex 77.2654 129.093 184.87
   vertex 78.0836 128.629 185.51
  endloop
 endfacet
 facet normal 0.372334 -0.748601 -0.548601
  outer loop
   vertex 78.0836 128.629 185.51
   vertex 78.0652 129.094 184.863
   vertex 78.772 129.083 185.357
  endloop
 endfacet
 facet normal -0.807862 -0.586657 -0.0565075
  outer loop
   vertex 75.8893 129.758 184.575
   vertex 75.9588 129.572 185.509
   vertex 75.4351 130.311 185.329
  endloop
 endfacet
 facet normal -0.820567 -0.566026 -0.0792793
  outer loop
   vertex 75.4769 130.383 184.377
   vertex 75.8893 129.758 184.575
   vertex 75.4351 130.311 185.329
  endloop
 endfacet
 facet normal -0.37625 -0.805933 -0.457066
  outer loop
   vertex 76.4764 129.176 185.372
   vertex 76.7751 129.53 184.503
   vertex 77.2654 129.093 184.87
  endloop
 endfacet
 facet normal -0.611426 -0.637185 -0.469206
  outer loop
   vertex 76.4764 129.176 185.372
   vertex 75.9588 129.572 185.509
   vertex 76.7751 129.53 184.503
  endloop
 endfacet
 facet normal -0.258449 -0.950987 -0.169789
  outer loop
   vertex 75.9588 129.572 185.509
   vertex 75.8893 129.758 184.575
   vertex 76.7751 129.53 184.503
  endloop
 endfacet
 facet normal -0.0135874 -0.651822 -0.75825
  outer loop
   vertex 78.0686 129.52 184.489
   vertex 77.2654 129.093 184.87
   vertex 76.7751 129.53 184.503
  endloop
 endfacet
 facet normal -0.00595956 -0.659955 -0.751282
  outer loop
   vertex 78.0652 129.094 184.863
   vertex 77.2654 129.093 184.87
   vertex 78.0686 129.52 184.489
  endloop
 endfacet
 facet normal 0.374715 -0.669379 -0.641499
  outer loop
   vertex 78.0686 129.52 184.489
   vertex 79.0852 130.168 184.406
   vertex 79.175 129.522 185.133
  endloop
 endfacet
 facet normal 0.373967 -0.671029 -0.64021
  outer loop
   vertex 78.0686 129.52 184.489
   vertex 79.175 129.522 185.133
   vertex 78.772 129.083 185.357
  endloop
 endfacet
 facet normal 0.45715 -0.58905 -0.666359
  outer loop
   vertex 78.0686 129.52 184.489
   vertex 78.772 129.083 185.357
   vertex 78.0652 129.094 184.863
  endloop
 endfacet
 facet normal 0.328687 -0.685249 -0.649922
  outer loop
   vertex 79.175 129.522 185.133
   vertex 79.0852 130.168 184.406
   vertex 80.4333 130.164 185.092
  endloop
 endfacet
 facet normal -0.735853 0.584764 0.341426
  outer loop
   vertex 75.7751 130.987 185.391
   vertex 75.9858 131.458 185.039
   vertex 75.4833 131.087 184.59
  endloop
 endfacet
 facet normal -0.846976 0.393032 0.35799
  outer loop
   vertex 75.7751 130.987 185.391
   vertex 75.4833 131.087 184.59
   vertex 75.4351 130.311 185.329
  endloop
 endfacet
 facet normal -0.998871 0.0218728 -0.0421778
  outer loop
   vertex 75.4351 130.311 185.329
   vertex 75.4833 131.087 184.59
   vertex 75.4769 130.383 184.377
  endloop
 endfacet
 facet normal -0.825023 0.525264 0.208409
  outer loop
   vertex 75.7751 130.987 185.391
   vertex 76.0464 131.312 185.647
   vertex 75.9858 131.458 185.039
  endloop
 endfacet
 facet normal 0.252588 -0.604167 -0.755765
  outer loop
   vertex 80.0155 130.693 184.297
   vertex 79.0852 130.168 184.406
   vertex 79.1309 130.649 184.036
  endloop
 endfacet
 facet normal 0.321575 -0.701479 -0.636016
  outer loop
   vertex 80.4333 130.164 185.092
   vertex 79.0852 130.168 184.406
   vertex 80.0155 130.693 184.297
  endloop
 endfacet
 facet normal 0.417313 -0.477423 -0.773251
  outer loop
   vertex 80.8517 131.322 184.603
   vertex 81.2572 131.164 184.919
   vertex 80.4333 130.164 185.092
  endloop
 endfacet
 facet normal 0.598132 -0.48545 -0.637634
  outer loop
   vertex 80.0155 130.693 184.297
   vertex 80.8517 131.322 184.603
   vertex 80.4333 130.164 185.092
  endloop
 endfacet
 facet normal 0.598483 -0.587187 -0.545004
  outer loop
   vertex 80.4333 130.164 185.092
   vertex 81.2572 131.164 184.919
   vertex 81.7243 131.077 185.526
  endloop
 endfacet
 facet normal -0.701685 0.67473 0.228861
  outer loop
   vertex 75.4833 131.087 184.59
   vertex 75.9858 131.458 185.039
   vertex 75.9763 131.663 184.405
  endloop
 endfacet
 facet normal -0.458864 0.843308 0.279778
  outer loop
   vertex 75.9858 131.458 185.039
   vertex 76.6584 132.034 184.405
   vertex 75.9763 131.663 184.405
  endloop
 endfacet
 facet normal -0.753518 0.610363 -0.244268
  outer loop
   vertex 75.9858 131.458 185.039
   vertex 76.3691 132.153 185.593
   vertex 76.6584 132.034 184.405
  endloop
 endfacet
 facet normal -0.914777 0.362486 0.178286
  outer loop
   vertex 75.9858 131.458 185.039
   vertex 76.0464 131.312 185.647
   vertex 76.3691 132.153 185.593
  endloop
 endfacet
 facet normal -0.665535 0.709165 -0.232697
  outer loop
   vertex 76.3691 132.153 185.593
   vertex 76.8696 132.37 184.823
   vertex 76.6584 132.034 184.405
  endloop
 endfacet
 facet normal -0.7051 0.682746 -0.191553
  outer loop
   vertex 76.6584 132.034 184.405
   vertex 76.8696 132.37 184.823
   vertex 77.1245 132.57 184.599
  endloop
 endfacet
 facet normal 0.653577 0.480788 -0.584533
  outer loop
   vertex 80.4318 131.979 184.494
   vertex 80.0368 132.399 184.397
   vertex 80.3721 132.415 184.785
  endloop
 endfacet
 facet normal 0.673574 0.472638 -0.568253
  outer loop
   vertex 80.4318 131.979 184.494
   vertex 80.3721 132.415 184.785
   vertex 80.9403 132.312 185.373
  endloop
 endfacet
 facet normal 0.733704 0.375473 -0.566303
  outer loop
   vertex 80.8517 131.322 184.603
   vertex 80.4318 131.979 184.494
   vertex 80.9403 132.312 185.373
  endloop
 endfacet
 facet normal 0.640689 0.435346 -0.632449
  outer loop
   vertex 80.8517 131.322 184.603
   vertex 80.9403 132.312 185.373
   vertex 81.4172 131.747 185.468
  endloop
 endfacet
 facet normal 0.654564 0.41534 -0.631695
  outer loop
   vertex 80.8517 131.322 184.603
   vertex 81.4172 131.747 185.468
   vertex 81.2572 131.164 184.919
  endloop
 endfacet
 facet normal 0.775405 0.306932 -0.551851
  outer loop
   vertex 81.7243 131.077 185.526
   vertex 81.2572 131.164 184.919
   vertex 81.4172 131.747 185.468
  endloop
 endfacet
 facet normal -0.767328 0.539396 -0.346785
  outer loop
   vertex 76.8696 132.37 184.823
   vertex 76.3691 132.153 185.593
   vertex 76.9504 132.833 185.364
  endloop
 endfacet
 facet normal -0.751577 0.552514 -0.360361
  outer loop
   vertex 76.9504 132.833 185.364
   vertex 77.1245 132.57 184.599
   vertex 76.8696 132.37 184.823
  endloop
 endfacet
 facet normal -0.657328 0.654339 -0.373845
  outer loop
   vertex 76.9504 132.833 185.364
   vertex 77.359 133.326 185.509
   vertex 77.1245 132.57 184.599
  endloop
 endfacet
 facet normal -0.857587 0.482094 -0.17925
  outer loop
   vertex 77.359 133.326 185.509
   vertex 77.5536 133.253 184.381
   vertex 77.1245 132.57 184.599
  endloop
 endfacet
 facet normal 0.638101 0.514784 -0.572559
  outer loop
   vertex 80.3721 132.415 184.785
   vertex 80.0368 132.399 184.397
   vertex 80.2274 133.267 185.39
  endloop
 endfacet
 facet normal 0.854937 0.297954 -0.424625
  outer loop
   vertex 80.0368 132.399 184.397
   vertex 79.7537 133.308 184.465
   vertex 80.2274 133.267 185.39
  endloop
 endfacet
 facet normal 0.663182 0.504844 -0.55256
  outer loop
   vertex 80.9403 132.312 185.373
   vertex 80.3721 132.415 184.785
   vertex 80.2274 133.267 185.39
  endloop
 endfacet
 facet normal -0.662712 0.731199 -0.161745
  outer loop
   vertex 77.5536 133.253 184.381
   vertex 77.359 133.326 185.509
   vertex 78.202 134.022 185.203
  endloop
 endfacet
 facet normal -0.581147 0.770228 -0.262712
  outer loop
   vertex 78.2976 133.802 184.346
   vertex 77.5536 133.253 184.381
   vertex 78.202 134.022 185.203
  endloop
 endfacet
 facet normal -0.428954 0.749713 -0.503914
  outer loop
   vertex 79.0623 134.385 185.011
   vertex 78.202 134.022 185.203
   vertex 78.568 134.55 185.677
  endloop
 endfacet
 facet normal -0.416274 0.650153 -0.635624
  outer loop
   vertex 79.0623 134.385 185.011
   vertex 79.1064 133.982 184.57
   vertex 78.202 134.022 185.203
  endloop
 endfacet
 facet normal -0.140605 0.955041 -0.261013
  outer loop
   vertex 79.1064 133.982 184.57
   vertex 78.2976 133.802 184.346
   vertex 78.202 134.022 185.203
  endloop
 endfacet
 facet normal 0.392434 0.698212 -0.598745
  outer loop
   vertex 79.1064 133.982 184.57
   vertex 79.0623 134.385 185.011
   vertex 79.7745 134.288 185.365
  endloop
 endfacet
 facet normal 0.500109 0.57951 -0.643474
  outer loop
   vertex 79.1064 133.982 184.57
   vertex 79.7745 134.288 185.365
   vertex 79.7537 133.308 184.465
  endloop
 endfacet
 facet normal 0.836591 0.360553 -0.412452
  outer loop
   vertex 79.7537 133.308 184.465
   vertex 79.7745 134.288 185.365
   vertex 80.2274 133.267 185.39
  endloop
 endfacet
 facet normal -0.486537 0.692621 -0.532502
  outer loop
   vertex 79.0623 134.385 185.011
   vertex 78.568 134.55 185.677
   vertex 79.2517 134.916 185.529
  endloop
 endfacet
 facet normal 0.431105 0.546341 -0.718095
  outer loop
   vertex 79.7745 134.288 185.365
   vertex 79.0623 134.385 185.011
   vertex 79.2517 134.916 185.529
  endloop
 endfacet
 facet normal -0.581169 -0.803252 0.130494
  outer loop
   vertex 77.1221 128.67 185.695
   vertex 77.2065 128.769 186.68
   vertex 76.3824 129.324 186.425
  endloop
 endfacet
 facet normal -0.631993 -0.773222 0.0520759
  outer loop
   vertex 76.4764 129.176 185.372
   vertex 77.1221 128.67 185.695
   vertex 76.3824 129.324 186.425
  endloop
 endfacet
 facet normal -0.0723406 -0.985218 -0.155283
  outer loop
   vertex 78.0836 128.629 185.51
   vertex 78.1179 128.473 186.486
   vertex 77.1221 128.67 185.695
  endloop
 endfacet
 facet normal -0.284111 -0.951263 0.119916
  outer loop
   vertex 77.1221 128.67 185.695
   vertex 78.1179 128.473 186.486
   vertex 77.2065 128.769 186.68
  endloop
 endfacet
 facet normal 0.337184 -0.775533 -0.533719
  outer loop
   vertex 78.772 129.083 185.357
   vertex 79.4275 129.173 185.641
   vertex 79.164 128.568 186.353
  endloop
 endfacet
 facet normal 0.377778 -0.753379 -0.538241
  outer loop
   vertex 78.772 129.083 185.357
   vertex 79.164 128.568 186.353
   vertex 78.0836 128.629 185.51
  endloop
 endfacet
 facet normal 0.0695726 -0.984634 -0.160173
  outer loop
   vertex 78.0836 128.629 185.51
   vertex 79.164 128.568 186.353
   vertex 78.1179 128.473 186.486
  endloop
 endfacet
 facet normal 0.297713 -0.675596 -0.67449
  outer loop
   vertex 79.4275 129.173 185.641
   vertex 80.4333 130.164 185.092
   vertex 80.1344 128.854 186.272
  endloop
 endfacet
 facet normal 0.18047 -0.781728 -0.596936
  outer loop
   vertex 79.164 128.568 186.353
   vertex 79.4275 129.173 185.641
   vertex 80.1344 128.854 186.272
  endloop
 endfacet
 facet normal 0.616405 -0.600008 -0.509936
  outer loop
   vertex 80.1344 128.854 186.272
   vertex 80.4333 130.164 185.092
   vertex 80.9337 129.409 186.586
  endloop
 endfacet
 facet normal -0.741996 -0.666845 0.0689986
  outer loop
   vertex 75.9588 129.572 185.509
   vertex 75.9124 129.725 186.483
   vertex 75.5227 130.134 186.252
  endloop
 endfacet
 facet normal -0.811231 -0.583701 -0.0345989
  outer loop
   vertex 75.4351 130.311 185.329
   vertex 75.9588 129.572 185.509
   vertex 75.5227 130.134 186.252
  endloop
 endfacet
 facet normal -0.596466 -0.800462 0.059073
  outer loop
   vertex 76.3824 129.324 186.425
   vertex 75.9588 129.572 185.509
   vertex 76.4764 129.176 185.372
  endloop
 endfacet
 facet normal -0.63957 -0.763563 0.0890098
  outer loop
   vertex 75.9124 129.725 186.483
   vertex 75.9588 129.572 185.509
   vertex 76.3824 129.324 186.425
  endloop
 endfacet
 facet normal 0.370302 -0.669543 -0.643885
  outer loop
   vertex 78.772 129.083 185.357
   vertex 79.175 129.522 185.133
   vertex 79.4275 129.173 185.641
  endloop
 endfacet
 facet normal 0.332508 -0.692141 -0.640609
  outer loop
   vertex 80.4333 130.164 185.092
   vertex 79.4275 129.173 185.641
   vertex 79.175 129.522 185.133
  endloop
 endfacet
 facet normal 0.633071 -0.584408 -0.50763
  outer loop
   vertex 80.9337 129.409 186.586
   vertex 80.4333 130.164 185.092
   vertex 81.7233 130.436 186.388
  endloop
 endfacet
 facet normal -0.884362 0.435818 0.167229
  outer loop
   vertex 75.4351 130.311 185.329
   vertex 75.5227 130.134 186.252
   vertex 75.8419 130.764 186.298
  endloop
 endfacet
 facet normal -0.886555 0.429888 0.170928
  outer loop
   vertex 75.7751 130.987 185.391
   vertex 75.4351 130.311 185.329
   vertex 75.8419 130.764 186.298
  endloop
 endfacet
 facet normal -0.822222 0.53573 0.19221
  outer loop
   vertex 75.8419 130.764 186.298
   vertex 76.0464 131.312 185.647
   vertex 75.7751 130.987 185.391
  endloop
 endfacet
 facet normal -0.922378 0.384811 0.0337587
  outer loop
   vertex 76.0942 131.344 186.582
   vertex 76.0464 131.312 185.647
   vertex 75.8419 130.764 186.298
  endloop
 endfacet
 facet normal 0.609158 -0.636647 -0.472872
  outer loop
   vertex 80.4333 130.164 185.092
   vertex 81.7243 131.077 185.526
   vertex 81.7233 130.436 186.388
  endloop
 endfacet
 facet normal 0.963465 -0.215449 -0.159113
  outer loop
   vertex 81.7233 130.436 186.388
   vertex 81.7243 131.077 185.526
   vertex 81.9076 131.32 186.307
  endloop
 endfacet
 facet normal -0.932296 0.359986 0.035128
  outer loop
   vertex 76.0464 131.312 185.647
   vertex 76.0942 131.344 186.582
   vertex 76.3691 132.153 185.593
  endloop
 endfacet
 facet normal -0.94348 0.331319 0.0085931
  outer loop
   vertex 76.0942 131.344 186.582
   vertex 76.4042 132.205 187.454
   vertex 76.3691 132.153 185.593
  endloop
 endfacet
 facet normal 0.765253 0.614649 -0.191297
  outer loop
   vertex 80.9403 132.312 185.373
   vertex 81.3412 132.141 186.43
   vertex 81.4172 131.747 185.468
  endloop
 endfacet
 facet normal 0.871613 0.371208 -0.32015
  outer loop
   vertex 81.9076 131.32 186.307
   vertex 81.7243 131.077 185.526
   vertex 81.4172 131.747 185.468
  endloop
 endfacet
 facet normal 0.798668 0.576374 -0.172981
  outer loop
   vertex 81.3412 132.141 186.43
   vertex 81.9076 131.32 186.307
   vertex 81.4172 131.747 185.468
  endloop
 endfacet
 facet normal -0.819359 0.573281 -0.000496228
  outer loop
   vertex 76.3691 132.153 185.593
   vertex 76.4042 132.205 187.454
   vertex 76.9224 132.944 186.374
  endloop
 endfacet
 facet normal -0.771814 0.629304 -0.0909904
  outer loop
   vertex 76.9504 132.833 185.364
   vertex 76.3691 132.153 185.593
   vertex 76.9224 132.944 186.374
  endloop
 endfacet
 facet normal -0.753051 0.65137 -0.0929084
  outer loop
   vertex 76.9224 132.944 186.374
   vertex 77.359 133.326 185.509
   vertex 76.9504 132.833 185.364
  endloop
 endfacet
 facet normal -0.695883 0.717302 -0.0349898
  outer loop
   vertex 77.39 133.412 186.665
   vertex 77.359 133.326 185.509
   vertex 76.9224 132.944 186.374
  endloop
 endfacet
 facet normal 0.714902 0.556884 -0.422842
  outer loop
   vertex 80.2274 133.267 185.39
   vertex 80.3273 133.604 186.003
   vertex 80.9055 133.234 186.493
  endloop
 endfacet
 facet normal 0.721027 0.545749 -0.426941
  outer loop
   vertex 80.2274 133.267 185.39
   vertex 80.9055 133.234 186.493
   vertex 80.9403 132.312 185.373
  endloop
 endfacet
 facet normal 0.886892 0.36979 -0.276907
  outer loop
   vertex 80.9403 132.312 185.373
   vertex 80.9055 133.234 186.493
   vertex 81.3412 132.141 186.43
  endloop
 endfacet
 facet normal -0.660339 0.749986 -0.038386
  outer loop
   vertex 77.359 133.326 185.509
   vertex 77.39 133.412 186.665
   vertex 78.1192 134.039 186.368
  endloop
 endfacet
 facet normal -0.64806 0.759447 -0.0570925
  outer loop
   vertex 78.202 134.022 185.203
   vertex 77.359 133.326 185.509
   vertex 78.1192 134.039 186.368
  endloop
 endfacet
 facet normal -0.791892 0.607181 -0.0650939
  outer loop
   vertex 78.1192 134.039 186.368
   vertex 78.568 134.55 185.677
   vertex 78.202 134.022 185.203
  endloop
 endfacet
 facet normal -0.680159 0.726766 0.0958901
  outer loop
   vertex 78.5712 134.441 186.529
   vertex 78.568 134.55 185.677
   vertex 78.1192 134.039 186.368
  endloop
 endfacet
 facet normal 0.834601 0.527575 -0.158449
  outer loop
   vertex 80.3273 133.604 186.003
   vertex 79.9185 134.343 186.311
   vertex 80.1432 134.11 186.717
  endloop
 endfacet
 facet normal 0.704317 0.567244 -0.426816
  outer loop
   vertex 80.3273 133.604 186.003
   vertex 80.2274 133.267 185.39
   vertex 79.9185 134.343 186.311
  endloop
 endfacet
 facet normal 0.903803 0.396698 -0.160532
  outer loop
   vertex 80.2274 133.267 185.39
   vertex 79.7745 134.288 185.365
   vertex 79.9185 134.343 186.311
  endloop
 endfacet
 facet normal 0.680974 0.668867 -0.298145
  outer loop
   vertex 80.9055 133.234 186.493
   vertex 80.3273 133.604 186.003
   vertex 80.1432 134.11 186.717
  endloop
 endfacet
 facet normal -0.455109 0.573821 -0.680886
  outer loop
   vertex 79.1163 135.261 185.91
   vertex 79.2517 134.916 185.529
   vertex 78.568 134.55 185.677
  endloop
 endfacet
 facet normal -0.688076 0.641497 -0.339165
  outer loop
   vertex 79.1163 135.261 185.91
   vertex 78.568 134.55 185.677
   vertex 78.7489 135.135 186.417
  endloop
 endfacet
 facet normal -0.966757 0.253134 0.0361158
  outer loop
   vertex 78.7489 135.135 186.417
   vertex 78.568 134.55 185.677
   vertex 78.5712 134.441 186.529
  endloop
 endfacet
 facet normal 0.420059 0.742094 -0.522347
  outer loop
   vertex 79.2517 134.916 185.529
   vertex 79.1163 135.261 185.91
   vertex 79.6628 135.167 186.215
  endloop
 endfacet
 facet normal 0.559878 0.611941 -0.558628
  outer loop
   vertex 79.2517 134.916 185.529
   vertex 79.6628 135.167 186.215
   vertex 79.7745 134.288 185.365
  endloop
 endfacet
 facet normal 0.947813 0.275637 -0.160233
  outer loop
   vertex 79.7745 134.288 185.365
   vertex 79.6628 135.167 186.215
   vertex 79.9185 134.343 186.311
  endloop
 endfacet
 facet normal -0.687916 0.641766 -0.338982
  outer loop
   vertex 79.1163 135.261 185.91
   vertex 78.7489 135.135 186.417
   vertex 79.2021 135.617 186.409
  endloop
 endfacet
 facet normal 0.438655 0.694348 -0.570493
  outer loop
   vertex 79.6628 135.167 186.215
   vertex 79.1163 135.261 185.91
   vertex 79.2021 135.617 186.409
  endloop
 endfacet
 facet normal -0.56951 -0.576317 0.586103
  outer loop
   vertex 77.2065 128.769 186.68
   vertex 77.0764 130.125 187.887
   vertex 76.3824 129.324 186.425
  endloop
 endfacet
 facet normal -0.521482 -0.594672 0.6119
  outer loop
   vertex 78.1286 128.797 187.493
   vertex 77.0764 130.125 187.887
   vertex 77.2065 128.769 186.68
  endloop
 endfacet
 facet normal -0.236791 -0.924028 0.300169
  outer loop
   vertex 78.1286 128.797 187.493
   vertex 77.2065 128.769 186.68
   vertex 78.1179 128.473 186.486
  endloop
 endfacet
 facet normal 0.0945443 -0.995096 0.0290757
  outer loop
   vertex 79.164 128.568 186.353
   vertex 79.1794 128.6 187.387
   vertex 78.1179 128.473 186.486
  endloop
 endfacet
 facet normal -0.146028 -0.941179 0.304726
  outer loop
   vertex 78.1179 128.473 186.486
   vertex 79.1794 128.6 187.387
   vertex 78.1286 128.797 187.493
  endloop
 endfacet
 facet normal 0.266174 -0.950155 -0.162346
  outer loop
   vertex 80.1344 128.854 186.272
   vertex 80.1801 128.706 187.214
   vertex 79.164 128.568 186.353
  endloop
 endfacet
 facet normal 0.11005 -0.993509 0.0287974
  outer loop
   vertex 79.164 128.568 186.353
   vertex 80.1801 128.706 187.214
   vertex 79.1794 128.6 187.387
  endloop
 endfacet
 facet normal 0.603291 -0.782826 -0.152389
  outer loop
   vertex 80.1801 128.706 187.214
   vertex 80.1344 128.854 186.272
   vertex 80.9337 129.409 186.586
  endloop
 endfacet
 facet normal 0.715307 -0.694089 0.0810951
  outer loop
   vertex 80.7882 129.366 187.506
   vertex 80.1801 128.706 187.214
   vertex 80.9337 129.409 186.586
  endloop
 endfacet
 facet normal -0.753719 -0.442769 0.485657
  outer loop
   vertex 75.9124 129.725 186.483
   vertex 75.8478 130.218 186.833
   vertex 75.5227 130.134 186.252
  endloop
 endfacet
 facet normal -0.494076 -0.54472 0.67762
  outer loop
   vertex 75.9124 129.725 186.483
   vertex 76.134 130.328 187.13
   vertex 75.8478 130.218 186.833
  endloop
 endfacet
 facet normal -0.416168 -0.589267 0.692509
  outer loop
   vertex 76.3824 129.324 186.425
   vertex 76.134 130.328 187.13
   vertex 75.9124 129.725 186.483
  endloop
 endfacet
 facet normal -0.589793 -0.556716 0.584988
  outer loop
   vertex 76.3824 129.324 186.425
   vertex 77.0764 130.125 187.887
   vertex 76.134 130.328 187.13
  endloop
 endfacet
 facet normal 0.911203 -0.392235 0.125942
  outer loop
   vertex 81.1812 130.246 187.402
   vertex 80.7882 129.366 187.506
   vertex 80.9337 129.409 186.586
  endloop
 endfacet
 facet normal 0.780563 -0.539177 0.316242
  outer loop
   vertex 80.9337 129.409 186.586
   vertex 81.7233 130.436 186.388
   vertex 81.1812 130.246 187.402
  endloop
 endfacet
 facet normal -0.826534 0.389169 0.406681
  outer loop
   vertex 75.8478 130.218 186.833
   vertex 75.8419 130.764 186.298
   vertex 75.5227 130.134 186.252
  endloop
 endfacet
 facet normal -0.749323 -0.582963 -0.314116
  outer loop
   vertex 76.042 130.696 187.543
   vertex 75.6498 131.223 187.501
   vertex 75.9109 131.123 187.064
  endloop
 endfacet
 facet normal -0.963021 -0.268296 0.0246464
  outer loop
   vertex 75.9109 131.123 187.064
   vertex 76.134 130.328 187.13
   vertex 76.042 130.696 187.543
  endloop
 endfacet
 facet normal -0.849261 -0.276007 -0.450084
  outer loop
   vertex 75.9109 131.123 187.064
   vertex 76.0942 131.344 186.582
   vertex 76.134 130.328 187.13
  endloop
 endfacet
 facet normal -0.712567 0.486846 0.505202
  outer loop
   vertex 75.8478 130.218 186.833
   vertex 76.134 130.328 187.13
   vertex 75.8419 130.764 186.298
  endloop
 endfacet
 facet normal -0.89232 0.18671 0.410979
  outer loop
   vertex 75.8419 130.764 186.298
   vertex 76.134 130.328 187.13
   vertex 76.0942 131.344 186.582
  endloop
 endfacet
 facet normal 0.83903 -0.394641 0.37455
  outer loop
   vertex 81.1812 130.246 187.402
   vertex 81.7233 130.436 186.388
   vertex 81.7463 131.266 187.211
  endloop
 endfacet
 facet normal 0.968892 -0.187287 0.16178
  outer loop
   vertex 81.7463 131.266 187.211
   vertex 81.7233 130.436 186.388
   vertex 81.9076 131.32 186.307
  endloop
 endfacet
 facet normal -0.757003 0.371693 -0.537392
  outer loop
   vertex 75.9109 131.123 187.064
   vertex 75.6498 131.223 187.501
   vertex 75.9457 131.653 187.381
  endloop
 endfacet
 facet normal -0.941389 0.216675 -0.258533
  outer loop
   vertex 75.9457 131.653 187.381
   vertex 76.0942 131.344 186.582
   vertex 75.9109 131.123 187.064
  endloop
 endfacet
 facet normal -0.690563 0.622398 -0.368435
  outer loop
   vertex 75.9457 131.653 187.381
   vertex 76.4042 132.205 187.454
   vertex 76.0942 131.344 186.582
  endloop
 endfacet
 facet normal 0.822406 0.540195 0.178429
  outer loop
   vertex 81.7463 131.266 187.211
   vertex 81.9076 131.32 186.307
   vertex 81.3412 132.141 186.43
  endloop
 endfacet
 facet normal 0.846589 0.514331 0.136932
  outer loop
   vertex 81.0453 132.349 187.479
   vertex 81.7463 131.266 187.211
   vertex 81.3412 132.141 186.43
  endloop
 endfacet
 facet normal -0.756837 0.648564 0.0810107
  outer loop
   vertex 76.9224 132.944 186.374
   vertex 76.4042 132.205 187.454
   vertex 77.0986 133.011 187.487
  endloop
 endfacet
 facet normal -0.728172 0.681331 0.0745167
  outer loop
   vertex 77.0986 133.011 187.487
   vertex 77.39 133.412 186.665
   vertex 76.9224 132.944 186.374
  endloop
 endfacet
 facet normal -0.594245 0.785493 0.17284
  outer loop
   vertex 77.553 133.336 187.572
   vertex 77.39 133.412 186.665
   vertex 77.0986 133.011 187.487
  endloop
 endfacet
 facet normal 0.915961 0.354408 0.188174
  outer loop
   vertex 81.3412 132.141 186.43
   vertex 80.9055 133.234 186.493
   vertex 81.0453 132.349 187.479
  endloop
 endfacet
 facet normal 0.985799 0.167593 0.0106028
  outer loop
   vertex 81.0453 132.349 187.479
   vertex 80.9055 133.234 186.493
   vertex 80.8657 133.404 187.508
  endloop
 endfacet
 facet normal -0.638315 0.748984 0.177698
  outer loop
   vertex 77.39 133.412 186.665
   vertex 77.553 133.336 187.572
   vertex 78.0637 133.831 187.32
  endloop
 endfacet
 facet normal -0.613984 0.777826 0.134203
  outer loop
   vertex 78.1192 134.039 186.368
   vertex 77.39 133.412 186.665
   vertex 78.0637 133.831 187.32
  endloop
 endfacet
 facet normal -0.39975 0.720291 0.566905
  outer loop
   vertex 78.5712 134.441 186.529
   vertex 79.0176 134.065 187.322
   vertex 79.2436 134.509 186.917
  endloop
 endfacet
 facet normal -0.642802 0.485503 0.59253
  outer loop
   vertex 78.5712 134.441 186.529
   vertex 78.1192 134.039 186.368
   vertex 79.0176 134.065 187.322
  endloop
 endfacet
 facet normal -0.234051 0.952568 0.194512
  outer loop
   vertex 78.1192 134.039 186.368
   vertex 78.0637 133.831 187.32
   vertex 79.0176 134.065 187.322
  endloop
 endfacet
 facet normal 0.438618 0.862344 0.252937
  outer loop
   vertex 79.2436 134.509 186.917
   vertex 80.1432 134.11 186.717
   vertex 79.9185 134.343 186.311
  endloop
 endfacet
 facet normal 0.393497 0.501828 0.770278
  outer loop
   vertex 79.2436 134.509 186.917
   vertex 79.0176 134.065 187.322
   vertex 80.1432 134.11 186.717
  endloop
 endfacet
 facet normal -0.500955 0.762527 -0.409385
  outer loop
   vertex 80.273 134.372 187.048
   vertex 80.1432 134.11 186.717
   vertex 79.7443 134.249 187.464
  endloop
 endfacet
 facet normal -0.184695 0.943774 -0.274186
  outer loop
   vertex 79.7443 134.249 187.464
   vertex 80.1432 134.11 186.717
   vertex 79.0176 134.065 187.322
  endloop
 endfacet
 facet normal 0.583648 0.508164 -0.633344
  outer loop
   vertex 80.1432 134.11 186.717
   vertex 80.273 134.372 187.048
   vertex 80.735 134.156 187.3
  endloop
 endfacet
 facet normal 0.530202 0.611612 -0.58721
  outer loop
   vertex 80.1432 134.11 186.717
   vertex 80.735 134.156 187.3
   vertex 80.9055 133.234 186.493
  endloop
 endfacet
 facet normal 0.984734 0.173806 0.00952097
  outer loop
   vertex 80.9055 133.234 186.493
   vertex 80.735 134.156 187.3
   vertex 80.8657 133.404 187.508
  endloop
 endfacet
 facet normal -0.549763 0.211231 0.808172
  outer loop
   vertex 79.2436 134.509 186.917
   vertex 79.3016 135.174 186.783
   vertex 78.7489 135.135 186.417
  endloop
 endfacet
 facet normal -0.501736 0.262081 0.824363
  outer loop
   vertex 78.5712 134.441 186.529
   vertex 79.2436 134.509 186.917
   vertex 78.7489 135.135 186.417
  endloop
 endfacet
 facet normal 0.804212 0.309189 0.507588
  outer loop
   vertex 79.9185 134.343 186.311
   vertex 79.6628 135.167 186.215
   vertex 79.3016 135.174 186.783
  endloop
 endfacet
 facet normal 0.677266 0.0883357 0.730416
  outer loop
   vertex 79.9185 134.343 186.311
   vertex 79.3016 135.174 186.783
   vertex 79.2436 134.509 186.917
  endloop
 endfacet
 facet normal -0.498156 0.766945 -0.40452
  outer loop
   vertex 79.7443 134.249 187.464
   vertex 80.2833 134.603 187.473
   vertex 80.273 134.372 187.048
  endloop
 endfacet
 facet normal 0.559973 0.722259 -0.405922
  outer loop
   vertex 80.735 134.156 187.3
   vertex 80.273 134.372 187.048
   vertex 80.2833 134.603 187.473
  endloop
 endfacet
 facet normal -0.505204 0.487694 0.711986
  outer loop
   vertex 78.7489 135.135 186.417
   vertex 79.3016 135.174 186.783
   vertex 79.2021 135.617 186.409
  endloop
 endfacet
 facet normal 0.714187 0.538159 0.447574
  outer loop
   vertex 79.6628 135.167 186.215
   vertex 79.2021 135.617 186.409
   vertex 79.3016 135.174 186.783
  endloop
 endfacet
 facet normal -0.063819 -0.71363 0.69761
  outer loop
   vertex 78.1286 128.797 187.493
   vertex 79.1794 128.6 187.387
   vertex 79.1989 129.276 188.081
  endloop
 endfacet
 facet normal -0.112184 -0.660541 0.742361
  outer loop
   vertex 78.2591 129.508 188.146
   vertex 78.1286 128.797 187.493
   vertex 79.1989 129.276 188.081
  endloop
 endfacet
 facet normal 0.180155 -0.823663 0.537702
  outer loop
   vertex 79.1794 128.6 187.387
   vertex 80.1801 128.706 187.214
   vertex 80.0903 129.155 187.933
  endloop
 endfacet
 facet normal 0.0187133 -0.716124 0.697722
  outer loop
   vertex 79.1989 129.276 188.081
   vertex 79.1794 128.6 187.387
   vertex 80.0903 129.155 187.933
  endloop
 endfacet
 facet normal 0.516025 -0.695735 0.499672
  outer loop
   vertex 80.1801 128.706 187.214
   vertex 80.7882 129.366 187.506
   vertex 80.0903 129.155 187.933
  endloop
 endfacet
 facet normal -0.444774 -0.55981 0.699134
  outer loop
   vertex 77.0764 130.125 187.887
   vertex 78.1286 128.797 187.493
   vertex 78.2591 129.508 188.146
  endloop
 endfacet
 facet normal -0.275732 -0.13007 0.952394
  outer loop
   vertex 77.0764 130.125 187.887
   vertex 78.2591 129.508 188.146
   vertex 78.2484 130.357 188.258
  endloop
 endfacet
 facet normal 0.0221085 -0.182822 0.982897
  outer loop
   vertex 79.1989 129.276 188.081
   vertex 79.2092 130.23 188.258
   vertex 78.2591 129.508 188.146
  endloop
 endfacet
 facet normal -0.0175446 -0.131948 0.991101
  outer loop
   vertex 79.2092 130.23 188.258
   vertex 78.2484 130.357 188.258
   vertex 78.2591 129.508 188.146
  endloop
 endfacet
 facet normal 0.136045 -0.188252 0.972653
  outer loop
   vertex 80.0903 129.155 187.933
   vertex 80.2948 130.121 188.092
   vertex 79.1989 129.276 188.081
  endloop
 endfacet
 facet normal 0.131533 -0.182422 0.974382
  outer loop
   vertex 80.2948 130.121 188.092
   vertex 79.2092 130.23 188.258
   vertex 79.1989 129.276 188.081
  endloop
 endfacet
 facet normal 0.619431 -0.18635 0.762613
  outer loop
   vertex 80.7882 129.366 187.506
   vertex 81.1812 130.246 187.402
   vertex 80.2948 130.121 188.092
  endloop
 endfacet
 facet normal 0.558942 -0.248056 0.791235
  outer loop
   vertex 80.0903 129.155 187.933
   vertex 80.7882 129.366 187.506
   vertex 80.2948 130.121 188.092
  endloop
 endfacet
 facet normal -0.587376 -0.38069 0.714188
  outer loop
   vertex 76.042 130.696 187.543
   vertex 76.214 131.257 187.983
   vertex 75.6498 131.223 187.501
  endloop
 endfacet
 facet normal -0.540572 -0.684158 0.489602
  outer loop
   vertex 76.042 130.696 187.543
   vertex 76.134 130.328 187.13
   vertex 77.0764 130.125 187.887
  endloop
 endfacet
 facet normal -0.492542 -0.439018 0.751442
  outer loop
   vertex 76.042 130.696 187.543
   vertex 77.0764 130.125 187.887
   vertex 76.214 131.257 187.983
  endloop
 endfacet
 facet normal -0.343432 -0.335984 0.877023
  outer loop
   vertex 76.214 131.257 187.983
   vertex 77.0764 130.125 187.887
   vertex 77.0351 131.133 188.257
  endloop
 endfacet
 facet normal -0.273067 -0.142037 0.951451
  outer loop
   vertex 78.2484 130.357 188.258
   vertex 78.0012 131.225 188.317
   vertex 77.0764 130.125 187.887
  endloop
 endfacet
 facet normal -0.0251994 -0.34537 0.938128
  outer loop
   vertex 78.0012 131.225 188.317
   vertex 77.0351 131.133 188.257
   vertex 77.0764 130.125 187.887
  endloop
 endfacet
 facet normal -0.0020812 -0.014803 0.999888
  outer loop
   vertex 79.2092 130.23 188.258
   vertex 79.1707 131.237 188.273
   vertex 78.2484 130.357 188.258
  endloop
 endfacet
 facet normal 0.0377937 -0.0565861 0.997682
  outer loop
   vertex 79.1707 131.237 188.273
   vertex 78.0012 131.225 188.317
   vertex 78.2484 130.357 188.258
  endloop
 endfacet
 facet normal 0.138904 -0.121866 0.982779
  outer loop
   vertex 80.2948 130.121 188.092
   vertex 80.1257 131.09 188.236
   vertex 79.2092 130.23 188.258
  endloop
 endfacet
 facet normal 0.0374887 -0.0132793 0.999209
  outer loop
   vertex 80.1257 131.09 188.236
   vertex 79.1707 131.237 188.273
   vertex 79.2092 130.23 188.258
  endloop
 endfacet
 facet normal 0.605887 -0.346083 0.716329
  outer loop
   vertex 81.1812 130.246 187.402
   vertex 81.0375 131.224 187.996
   vertex 80.2948 130.121 188.092
  endloop
 endfacet
 facet normal 0.26589 -0.0961817 0.959193
  outer loop
   vertex 80.2948 130.121 188.092
   vertex 81.0375 131.224 187.996
   vertex 80.1257 131.09 188.236
  endloop
 endfacet
 facet normal 0.719914 -0.279977 0.635088
  outer loop
   vertex 81.1812 130.246 187.402
   vertex 81.7463 131.266 187.211
   vertex 81.0375 131.224 187.996
  endloop
 endfacet
 facet normal -0.559003 0.55619 0.614954
  outer loop
   vertex 75.6498 131.223 187.501
   vertex 76.214 131.257 187.983
   vertex 75.9457 131.653 187.381
  endloop
 endfacet
 facet normal -0.341846 -0.284231 0.895742
  outer loop
   vertex 77.0876 131.696 188.456
   vertex 76.214 131.257 187.983
   vertex 77.0351 131.133 188.257
  endloop
 endfacet
 facet normal -0.591609 0.480176 0.647634
  outer loop
   vertex 77.0876 131.696 188.456
   vertex 76.4042 132.205 187.454
   vertex 76.214 131.257 187.983
  endloop
 endfacet
 facet normal -0.764169 -0.609211 0.211913
  outer loop
   vertex 77.0876 131.696 188.456
   vertex 76.613 132.279 188.421
   vertex 76.4042 132.205 187.454
  endloop
 endfacet
 facet normal -0.654072 0.46448 0.597033
  outer loop
   vertex 75.9457 131.653 187.381
   vertex 76.214 131.257 187.983
   vertex 76.4042 132.205 187.454
  endloop
 endfacet
 facet normal -0.0269547 -0.330405 0.943454
  outer loop
   vertex 78.0012 131.225 188.317
   vertex 77.0876 131.696 188.456
   vertex 77.0351 131.133 188.257
  endloop
 endfacet
 facet normal -0.0698559 -0.404315 0.911948
  outer loop
   vertex 78.0554 131.728 188.544
   vertex 77.0876 131.696 188.456
   vertex 78.0012 131.225 188.317
  endloop
 endfacet
 facet normal 0.460101 -0.406106 0.789547
  outer loop
   vertex 78.0554 131.728 188.544
   vertex 78.0012 131.225 188.317
   vertex 78.952 132.349 188.341
  endloop
 endfacet
 facet normal 0.0377682 -0.053445 0.997856
  outer loop
   vertex 78.0012 131.225 188.317
   vertex 79.1707 131.237 188.273
   vertex 78.952 132.349 188.341
  endloop
 endfacet
 facet normal 0.0477151 0.0537518 0.997414
  outer loop
   vertex 80.1257 131.09 188.236
   vertex 80.2081 132.052 188.18
   vertex 79.1707 131.237 188.273
  endloop
 endfacet
 facet normal 0.118761 -0.0371813 0.992227
  outer loop
   vertex 80.2081 132.052 188.18
   vertex 78.952 132.349 188.341
   vertex 79.1707 131.237 188.273
  endloop
 endfacet
 facet normal 0.523802 0.352837 0.77533
  outer loop
   vertex 81.0453 132.349 187.479
   vertex 80.2081 132.052 188.18
   vertex 81.0375 131.224 187.996
  endloop
 endfacet
 facet normal 0.248858 0.0348233 0.967914
  outer loop
   vertex 81.0375 131.224 187.996
   vertex 80.2081 132.052 188.18
   vertex 80.1257 131.09 188.236
  endloop
 endfacet
 facet normal 0.701552 0.29365 0.649303
  outer loop
   vertex 81.7463 131.266 187.211
   vertex 81.0453 132.349 187.479
   vertex 81.0375 131.224 187.996
  endloop
 endfacet
 facet normal -0.770991 0.625752 0.11835
  outer loop
   vertex 76.4042 132.205 187.454
   vertex 76.613 132.279 188.421
   vertex 76.9846 132.757 188.315
  endloop
 endfacet
 facet normal -0.756211 0.647475 0.0944529
  outer loop
   vertex 77.0986 133.011 187.487
   vertex 76.4042 132.205 187.454
   vertex 76.9846 132.757 188.315
  endloop
 endfacet
 facet normal -0.330543 0.772442 0.542287
  outer loop
   vertex 77.553 133.336 187.572
   vertex 77.8466 132.896 188.377
   vertex 78.3377 133.345 188.036
  endloop
 endfacet
 facet normal -0.552424 0.630255 0.545533
  outer loop
   vertex 77.553 133.336 187.572
   vertex 77.0986 133.011 187.487
   vertex 77.8466 132.896 188.377
  endloop
 endfacet
 facet normal -0.172533 0.948099 0.267098
  outer loop
   vertex 77.0986 133.011 187.487
   vertex 76.9846 132.757 188.315
   vertex 77.8466 132.896 188.377
  endloop
 endfacet
 facet normal 0.232991 0.412874 0.880483
  outer loop
   vertex 78.952 132.349 188.341
   vertex 78.3377 133.345 188.036
   vertex 77.8466 132.896 188.377
  endloop
 endfacet
 facet normal -0.0674716 0.253498 0.96498
  outer loop
   vertex 78.952 132.349 188.341
   vertex 79.3423 133.487 188.07
   vertex 78.3377 133.345 188.036
  endloop
 endfacet
 facet normal 0.146416 0.0835266 0.98569
  outer loop
   vertex 80.2081 132.052 188.18
   vertex 80.2082 133.104 188.091
   vertex 78.952 132.349 188.341
  endloop
 endfacet
 facet normal 0.0687858 0.209256 0.975439
  outer loop
   vertex 80.2082 133.104 188.091
   vertex 79.3423 133.487 188.07
   vertex 78.952 132.349 188.341
  endloop
 endfacet
 facet normal 0.637768 0.0873905 0.765255
  outer loop
   vertex 81.0453 132.349 187.479
   vertex 80.8657 133.404 187.508
   vertex 80.2082 133.104 188.091
  endloop
 endfacet
 facet normal 0.626559 0.0657819 0.776593
  outer loop
   vertex 80.2081 132.052 188.18
   vertex 81.0453 132.349 187.479
   vertex 80.2082 133.104 188.091
  endloop
 endfacet
 facet normal -0.372032 0.696201 0.613919
  outer loop
   vertex 77.553 133.336 187.572
   vertex 78.3377 133.345 188.036
   vertex 78.0637 133.831 187.32
  endloop
 endfacet
 facet normal -0.19169 0.776948 0.599672
  outer loop
   vertex 79.0176 134.065 187.322
   vertex 78.0637 133.831 187.32
   vertex 78.3377 133.345 188.036
  endloop
 endfacet
 facet normal -0.127499 0.757092 0.640746
  outer loop
   vertex 79.3423 133.487 188.07
   vertex 79.0176 134.065 187.322
   vertex 78.3377 133.345 188.036
  endloop
 endfacet
 facet normal -0.303225 0.68565 0.66177
  outer loop
   vertex 79.7443 134.249 187.464
   vertex 79.0176 134.065 187.322
   vertex 79.3423 133.487 188.07
  endloop
 endfacet
 facet normal -0.330522 0.687775 0.646313
  outer loop
   vertex 79.7443 134.249 187.464
   vertex 79.3423 133.487 188.07
   vertex 80.2519 134.07 187.914
  endloop
 endfacet
 facet normal 0.0545905 0.177515 0.982603
  outer loop
   vertex 80.2519 134.07 187.914
   vertex 79.3423 133.487 188.07
   vertex 80.2082 133.104 188.091
  endloop
 endfacet
 facet normal 0.729678 0.29764 0.615614
  outer loop
   vertex 80.8657 133.404 187.508
   vertex 80.735 134.156 187.3
   vertex 80.2519 134.07 187.914
  endloop
 endfacet
 facet normal 0.629545 0.11233 0.768801
  outer loop
   vertex 80.2082 133.104 188.091
   vertex 80.8657 133.404 187.508
   vertex 80.2519 134.07 187.914
  endloop
 endfacet
 facet normal -0.404116 0.596684 0.693295
  outer loop
   vertex 79.7443 134.249 187.464
   vertex 80.2519 134.07 187.914
   vertex 80.2833 134.603 187.473
  endloop
 endfacet
 facet normal 0.671094 0.448289 0.590483
  outer loop
   vertex 80.735 134.156 187.3
   vertex 80.2833 134.603 187.473
   vertex 80.2519 134.07 187.914
  endloop
 endfacet
 facet normal -0.520604 -0.377879 0.765624
  outer loop
   vertex 77.0876 131.696 188.456
   vertex 77.1791 132.359 188.846
   vertex 76.613 132.279 188.421
  endloop
 endfacet
 facet normal -0.0592261 -0.534848 0.84287
  outer loop
   vertex 77.0876 131.696 188.456
   vertex 78.0554 131.728 188.544
   vertex 77.9365 132.224 188.85
  endloop
 endfacet
 facet normal -0.0942037 -0.494458 0.864082
  outer loop
   vertex 77.1791 132.359 188.846
   vertex 77.0876 131.696 188.456
   vertex 77.9365 132.224 188.85
  endloop
 endfacet
 facet normal 0.450956 -0.388293 0.803658
  outer loop
   vertex 78.0554 131.728 188.544
   vertex 78.952 132.349 188.341
   vertex 77.9365 132.224 188.85
  endloop
 endfacet
 facet normal -0.545979 0.562101 0.621249
  outer loop
   vertex 76.613 132.279 188.421
   vertex 77.1791 132.359 188.846
   vertex 76.9846 132.757 188.315
  endloop
 endfacet
 facet normal -0.167895 0.75848 0.629698
  outer loop
   vertex 77.8466 132.896 188.377
   vertex 76.9846 132.757 188.315
   vertex 77.1791 132.359 188.846
  endloop
 endfacet
 facet normal 0.0990846 0.581593 0.807423
  outer loop
   vertex 77.9365 132.224 188.85
   vertex 77.8466 132.896 188.377
   vertex 77.1791 132.359 188.846
  endloop
 endfacet
 facet normal 0.309124 0.574703 0.757732
  outer loop
   vertex 78.952 132.349 188.341
   vertex 77.8466 132.896 188.377
   vertex 77.9365 132.224 188.85
  endloop
 endfacet
endsolid
