ply
format ascii 1.0
element vertex 534
property float x
property float y
property float z
property float nx
property float ny
property float nz
element face 178
property list uint uint vertex_indices
end_header
45.409 135.507 134.458 -0.0706215 -0.404968 -0.911599
45.0916 134.981 134.716 -0.0706215 -0.404968 -0.911599
44.6883 135.452 134.538 -0.0706215 -0.404968 -0.911599
45.409 135.507 134.458 -0.124501 0.20885 -0.96999
44.6883 135.452 134.538 -0.124501 0.20885 -0.96999
44.9549 136.044 134.632 -0.124501 0.20885 -0.96999
45.1188 137.525 134.168 -0.404255 -0.545344 -0.734287
45.1732 136.935 134.575 -0.404255 -0.545344 -0.734287
44.6446 137.514 134.437 -0.404255 -0.545344 -0.734287
45.1732 136.935 134.575 0.415979 -0.491107 -0.76536
45.1188 137.525 134.168 0.415979 -0.491107 -0.76536
45.6969 137.452 134.528 0.415979 -0.491107 -0.76536
45.1188 137.525 134.168 -0.411788 0.581422 -0.701697
44.6446 137.514 134.437 -0.411788 0.581422 -0.701697
45.0914 138.202 134.745 -0.411788 0.581422 -0.701697
45.6969 137.452 134.528 0.48227 0.579424 -0.657026
45.1188 137.525 134.168 0.48227 0.579424 -0.657026
45.0914 138.202 134.745 0.48227 0.579424 -0.657026
47.5797 139.539 134.107 -0.616148 -0.200564 -0.761667
47.1666 138.912 134.606 -0.616148 -0.200564 -0.761667
46.9452 139.648 134.592 -0.616148 -0.200564 -0.761667
47.5797 139.539 134.107 0.0468112 -0.669944 -0.740935
48.4062 139.606 134.099 0.0468112 -0.669944 -0.740935
48.1501 138.433 135.143 0.0468112 -0.669944 -0.740935
47.1666 138.912 134.606 0.0900038 -0.655774 -0.749573
47.5797 139.539 134.107 0.0900038 -0.655774 -0.749573
48.1501 138.433 135.143 0.0900038 -0.655774 -0.749573
48.1501 138.433 135.143 0.467697 -0.642529 -0.606972
48.4062 139.606 134.099 0.467697 -0.642529 -0.606972
48.9164 139.426 134.682 0.467697 -0.642529 -0.606972
47.5797 139.539 134.107 -0.485412 0.466177 -0.739631
46.9452 139.648 134.592 -0.485412 0.466177 -0.739631
47.6415 140.282 134.534 -0.485412 0.466177 -0.739631
47.6415 140.282 134.534 -0.6333 0.425021 -0.646752
48.2435 140.348 133.988 -0.6333 0.425021 -0.646752
47.5797 139.539 134.107 -0.6333 0.425021 -0.646752
47.5797 139.539 134.107 0.00201766 -0.147024 -0.989131
48.2435 140.348 133.988 0.00201766 -0.147024 -0.989131
48.4062 139.606 134.099 0.00201766 -0.147024 -0.989131
48.8303 140.309 134.458 0.733803 -0.099397 -0.672051
48.9164 139.426 134.682 0.733803 -0.099397 -0.672051
48.4062 139.606 134.099 0.733803 -0.099397 -0.672051
48.2435 140.348 133.988 0.62555 0.021015 -0.779901
48.8303 140.309 134.458 0.62555 0.021015 -0.779901
48.4062 139.606 134.099 0.62555 0.021015 -0.779901
48.2435 140.348 133.988 -0.557747 0.631459 -0.538681
47.6415 140.282 134.534 -0.557747 0.631459 -0.538681
48.3394 140.794 134.413 -0.557747 0.631459 -0.538681
48.8303 140.309 134.458 0.559386 0.504745 -0.657511
48.2435 140.348 133.988 0.559386 0.504745 -0.657511
48.3394 140.794 134.413 0.559386 0.504745 -0.657511
45.0916 134.981 134.716 -0.620973 -0.773176 0.128803
45.2439 134.975 135.415 -0.620973 -0.773176 0.128803
44.5395 135.503 135.189 -0.620973 -0.773176 0.128803
44.6883 135.452 134.538 -0.732701 -0.670826 -0.114638
45.0916 134.981 134.716 -0.732701 -0.670826 -0.114638
44.5395 135.503 135.189 -0.732701 -0.670826 -0.114638
45.409 135.507 134.458 0.557869 -0.484726 -0.673663
46.3084 135.429 135.259 0.557869 -0.484726 -0.673663
45.8492 134.975 135.205 0.557869 -0.484726 -0.673663
45.409 135.507 134.458 0.433162 -0.593905 -0.677973
45.8492 134.975 135.205 0.433162 -0.593905 -0.677973
45.0916 134.981 134.716 0.433162 -0.593905 -0.677973
45.0916 134.981 134.716 -0.00242863 -0.999966 -0.00787666
45.8492 134.975 135.205 -0.00242863 -0.999966 -0.00787666
45.2439 134.975 135.415 -0.00242863 -0.999966 -0.00787666
44.2148 136.363 134.877 -0.625156 -0.645952 -0.438093
44.1593 135.881 135.667 -0.625156 -0.645952 -0.438093
43.5829 136.616 135.406 -0.625156 -0.645952 -0.438093
44.9549 136.044 134.632 -0.261645 0.129291 -0.956465
44.2148 136.363 134.877 -0.261645 0.129291 -0.956465
44.941 136.553 134.704 -0.261645 0.129291 -0.956465
44.9549 136.044 134.632 -0.449969 -0.45 -0.77138
44.5395 135.503 135.189 -0.449969 -0.45 -0.77138
44.2148 136.363 134.877 -0.449969 -0.45 -0.77138
44.9549 136.044 134.632 -0.872314 0.429734 -0.23323
44.6883 135.452 134.538 -0.872314 0.429734 -0.23323
44.5395 135.503 135.189 -0.872314 0.429734 -0.23323
44.1593 135.881 135.667 -0.839941 -0.435015 -0.324439
44.2148 136.363 134.877 -0.839941 -0.435015 -0.324439
44.5395 135.503 135.189 -0.839941 -0.435015 -0.324439
44.9549 136.044 134.632 0.662233 0.123629 -0.739029
44.941 136.553 134.704 0.662233 0.123629 -0.739029
45.7564 136.209 135.378 0.662233 0.123629 -0.739029
45.409 135.507 134.458 0.471052 0.606373 -0.640641
44.9549 136.044 134.632 0.471052 0.606373 -0.640641
45.7564 136.209 135.378 0.471052 0.606373 -0.640641
45.409 135.507 134.458 0.483187 0.598375 -0.639123
45.7564 136.209 135.378 0.483187 0.598375 -0.639123
46.0395 135.872 135.276 0.483187 0.598375 -0.639123
45.409 135.507 134.458 0.626823 0.406987 -0.664421
46.0395 135.872 135.276 0.626823 0.406987 -0.664421
46.3084 135.429 135.259 0.626823 0.406987 -0.664421
44.2178 137.324 134.82 -0.650974 -0.043401 -0.757858
44.2148 136.363 134.877 -0.650974 -0.043401 -0.757858
43.5829 136.616 135.406 -0.650974 -0.043401 -0.757858
43.5336 137.409 135.641 -0.753081 0.143953 -0.641987
44.2178 137.324 134.82 -0.753081 0.143953 -0.641987
43.5829 136.616 135.406 -0.753081 0.143953 -0.641987
45.1732 136.935 134.575 -0.409764 -0.548991 -0.728493
44.2178 137.324 134.82 -0.409764 -0.548991 -0.728493
44.6446 137.514 134.437 -0.409764 -0.548991 -0.728493
45.1732 136.935 134.575 -0.297657 -0.137803 -0.944675
44.941 136.553 134.704 -0.297657 -0.137803 -0.944675
44.2178 137.324 134.82 -0.297657 -0.137803 -0.944675
44.941 136.553 134.704 -0.216986 -0.0577318 -0.974466
44.2148 136.363 134.877 -0.216986 -0.0577318 -0.974466
44.2178 137.324 134.82 -0.216986 -0.0577318 -0.974466
45.6969 137.452 134.528 0.498221 -0.45325 -0.739148
46.3184 137.703 134.793 0.498221 -0.45325 -0.739148
46.118 136.876 135.166 0.498221 -0.45325 -0.739148
45.1732 136.935 134.575 0.433498 -0.507 -0.745003
45.6969 137.452 134.528 0.433498 -0.507 -0.745003
46.118 136.876 135.166 0.433498 -0.507 -0.745003
45.1732 136.935 134.575 0.442654 -0.480625 -0.757006
46.118 136.876 135.166 0.442654 -0.480625 -0.757006
45.7564 136.209 135.378 0.442654 -0.480625 -0.757006
45.1732 136.935 134.575 0.412354 -0.505763 -0.757739
45.7564 136.209 135.378 0.412354 -0.505763 -0.757739
44.941 136.553 134.704 0.412354 -0.505763 -0.757739
46.118 136.876 135.166 0.481952 -0.45394 -0.749441
46.3184 137.703 134.793 0.481952 -0.45394 -0.749441
46.8601 137.329 135.368 0.481952 -0.45394 -0.749441
44.2178 137.324 134.82 -0.691221 0.379953 -0.614694
43.5336 137.409 135.641 -0.691221 0.379953 -0.614694
44.1237 138.08 135.392 -0.691221 0.379953 -0.614694
45.0914 138.202 134.745 -0.466225 0.677521 -0.568858
44.1237 138.08 135.392 -0.466225 0.677521 -0.568858
44.4919 138.561 135.664 -0.466225 0.677521 -0.568858
45.0914 138.202 134.745 -0.531311 0.468805 -0.705642
44.2178 137.324 134.82 -0.531311 0.468805 -0.705642
44.1237 138.08 135.392 -0.531311 0.468805 -0.705642
45.0914 138.202 134.745 -0.658546 0.618991 -0.42798
44.6446 137.514 134.437 -0.658546 0.618991 -0.42798
44.2178 137.324 134.82 -0.658546 0.618991 -0.42798
45.0914 138.202 134.745 0.206044 0.42173 -0.883
46.3184 137.703 134.793 0.206044 0.42173 -0.883
45.6969 137.452 134.528 0.206044 0.42173 -0.883
45.0914 138.202 134.745 0.0574978 0.0453034 -0.997317
46.245 138.668 134.833 0.0574978 0.0453034 -0.997317
46.3184 137.703 134.793 0.0574978 0.0453034 -0.997317
47.3269 137.825 135.37 0.483061 -0.45254 -0.749573
46.8601 137.329 135.368 0.483061 -0.45254 -0.749573
46.3184 137.703 134.793 0.483061 -0.45254 -0.749573
47.3269 137.825 135.37 0.450468 -0.599555 -0.661523
46.3184 137.703 134.793 0.450468 -0.599555 -0.661523
47.1458 138.338 134.781 0.450468 -0.599555 -0.661523
47.1458 138.338 134.781 -0.0431572 0.0376842 -0.998357
46.3184 137.703 134.793 -0.0431572 0.0376842 -0.998357
46.245 138.668 134.833 -0.0431572 0.0376842 -0.998357
47.3269 137.825 135.37 0.307167 -0.668378 -0.677436
47.1458 138.338 134.781 0.307167 -0.668378 -0.677436
48.1501 138.433 135.143 0.307167 -0.668378 -0.677436
45.0914 138.202 134.745 -0.482021 0.662549 -0.57331
44.4919 138.561 135.664 -0.482021 0.662549 -0.57331
45.3679 139.062 135.506 -0.482021 0.662549 -0.57331
46.245 138.668 134.833 -0.224306 0.685419 -0.69274
45.0914 138.202 134.745 -0.224306 0.685419 -0.69274
45.3679 139.062 135.506 -0.224306 0.685419 -0.69274
46.2551 139.26 135.588 -0.117898 0.782728 -0.611095
46.245 138.668 134.833 -0.117898 0.782728 -0.611095
45.3679 139.062 135.506 -0.117898 0.782728 -0.611095
47.1666 138.912 134.606 -0.900803 -0.277703 -0.33382
46.7324 139.433 135.345 -0.900803 -0.277703 -0.33382
46.9452 139.648 134.592 -0.900803 -0.277703 -0.33382
47.1666 138.912 134.606 -0.339247 0.663169 -0.667172
46.245 138.668 134.833 -0.339247 0.663169 -0.667172
46.7324 139.433 135.345 -0.339247 0.663169 -0.667172
47.1666 138.912 134.606 -0.157783 -0.283197 -0.945994
47.1458 138.338 134.781 -0.157783 -0.283197 -0.945994
46.245 138.668 134.833 -0.157783 -0.283197 -0.945994
46.245 138.668 134.833 -0.513786 0.678911 -0.524504
46.2551 139.26 135.588 -0.513786 0.678911 -0.524504
46.7324 139.433 135.345 -0.513786 0.678911 -0.524504
48.1501 138.433 135.143 0.348682 -0.285312 -0.892759
47.1458 138.338 134.781 0.348682 -0.285312 -0.892759
47.1666 138.912 134.606 0.348682 -0.285312 -0.892759
48.1501 138.433 135.143 0.616518 -0.668575 -0.415828
48.9164 139.426 134.682 0.616518 -0.668575 -0.415828
48.8468 138.898 135.429 0.616518 -0.668575 -0.415828
48.8468 138.898 135.429 0.997117 -0.0409548 0.0638779
48.9164 139.426 134.682 0.997117 -0.0409548 0.0638779
48.893 139.731 135.243 0.997117 -0.0409548 0.0638779
46.9452 139.648 134.592 -0.726986 0.686588 -0.00938403
46.7324 139.433 135.345 -0.726986 0.686588 -0.00938403
47.3182 140.052 135.261 -0.726986 0.686588 -0.00938403
47.6415 140.282 134.534 -0.67485 0.734852 -0.0676045
46.9452 139.648 134.592 -0.67485 0.734852 -0.0676045
47.3182 140.052 135.261 -0.67485 0.734852 -0.0676045
47.6415 140.282 134.534 -0.377591 0.836973 0.396108
48.1655 140.116 135.385 -0.377591 0.836973 0.396108
48.4179 140.443 134.934 -0.377591 0.836973 0.396108
47.6415 140.282 134.534 -0.110044 0.960557 0.255383
47.3182 140.052 135.261 -0.110044 0.960557 0.255383
48.1655 140.116 135.385 -0.110044 0.960557 0.255383
48.4179 140.443 134.934 0.443566 0.58877 0.675721
48.1655 140.116 135.385 0.443566 0.58877 0.675721
48.893 139.731 135.243 0.443566 0.58877 0.675721
48.4179 140.443 134.934 0.66989 0.62233 0.404912
48.893 139.731 135.243 0.66989 0.62233 0.404912
48.8303 140.309 134.458 0.66989 0.62233 0.404912
48.8303 140.309 134.458 0.995471 0.094562 -0.00981434
48.893 139.731 135.243 0.995471 0.094562 -0.00981434
48.9164 139.426 134.682 0.995471 0.094562 -0.00981434
47.6415 140.282 134.534 -0.430925 0.716858 0.548104
48.4179 140.443 134.934 -0.430925 0.716858 0.548104
48.3394 140.794 134.413 -0.430925 0.716858 0.548104
48.8303 140.309 134.458 0.638507 0.679313 0.361721
48.3394 140.794 134.413 0.638507 0.679313 0.361721
48.4179 140.443 134.934 0.638507 0.679313 0.361721
45.2439 134.975 135.415 -0.611537 -0.590391 0.526746
45.1164 135.528 135.887 -0.611537 -0.590391 0.526746
44.5395 135.503 135.189 -0.611537 -0.590391 0.526746
45.2439 134.975 135.415 0.216835 -0.750155 0.6247
45.8492 134.975 135.205 0.216835 -0.750155 0.6247
45.9476 135.453 135.746 0.216835 -0.750155 0.6247
45.1164 135.528 135.887 0.073494 -0.637511 0.766928
45.2439 134.975 135.415 0.073494 -0.637511 0.766928
45.9476 135.453 135.746 0.073494 -0.637511 0.766928
45.8492 134.975 135.205 0.59222 -0.653811 0.470963
46.3084 135.429 135.259 0.59222 -0.653811 0.470963
45.9476 135.453 135.746 0.59222 -0.653811 0.470963
44.1593 135.881 135.667 -0.651476 -0.73895 0.171845
44.2087 136.03 136.498 -0.651476 -0.73895 0.171845
43.5401 136.556 136.225 -0.651476 -0.73895 0.171845
43.5829 136.616 135.406 -0.768936 -0.633471 -0.0863322
44.1593 135.881 135.667 -0.768936 -0.633471 -0.0863322
43.5401 136.556 136.225 -0.768936 -0.633471 -0.0863322
45.1164 135.528 135.887 -0.394021 -0.847268 0.356209
44.1593 135.881 135.667 -0.394021 -0.847268 0.356209
44.5395 135.503 135.189 -0.394021 -0.847268 0.356209
45.1164 135.528 135.887 -0.398304 -0.771105 0.496741
45.1842 135.827 136.406 -0.398304 -0.771105 0.496741
44.1593 135.881 135.667 -0.398304 -0.771105 0.496741
45.1842 135.827 136.406 -0.183658 -0.96545 0.184865
44.2087 136.03 136.498 -0.183658 -0.96545 0.184865
44.1593 135.881 135.667 -0.183658 -0.96545 0.184865
45.9476 135.453 135.746 0.189402 0.468296 0.863033
45.7564 136.209 135.378 0.189402 0.468296 0.863033
45.1164 135.528 135.887 0.189402 0.468296 0.863033
45.9476 135.453 135.746 0.718318 0.443055 0.536398
46.0395 135.872 135.276 0.718318 0.443055 0.536398
45.7564 136.209 135.378 0.718318 0.443055 0.536398
45.1164 135.528 135.887 0.788638 -0.571611 0.226521
45.7564 136.209 135.378 0.788638 -0.571611 0.226521
45.1842 135.827 136.406 0.788638 -0.571611 0.226521
46.5353 136.546 135.717 0.515139 -0.715957 -0.47121
46.2895 135.887 136.449 0.515139 -0.715957 -0.47121
45.7564 136.209 135.378 0.515139 -0.715957 -0.47121
45.1842 135.827 136.406 0.0638918 -0.946617 -0.315966
45.7564 136.209 135.378 0.0638918 -0.946617 -0.315966
46.2895 135.887 136.449 0.0638918 -0.946617 -0.315966
46.5353 136.546 135.717 0.25526 -0.665496 -0.701397
47.3971 136.669 135.914 0.25526 -0.665496 -0.701397
47.1533 136.059 136.404 0.25526 -0.665496 -0.701397
46.5353 136.546 135.717 0.117029 -0.757491 -0.642271
47.1533 136.059 136.404 0.117029 -0.757491 -0.642271
46.2895 135.887 136.449 0.117029 -0.757491 -0.642271
45.9476 135.453 135.746 0.736616 0.426311 0.525029
46.3084 135.429 135.259 0.736616 0.426311 0.525029
46.0395 135.872 135.276 0.736616 0.426311 0.525029
47.1533 136.059 136.404 0.627841 -0.624297 -0.464832
47.3971 136.669 135.914 0.627841 -0.624297 -0.464832
47.9839 136.728 136.628 0.627841 -0.624297 -0.464832
43.5829 136.616 135.406 -0.997419 -0.0456208 -0.055436
43.5401 136.556 136.225 -0.997419 -0.0456208 -0.055436
43.5336 137.409 135.641 -0.997419 -0.0456208 -0.055436
43.5401 136.556 136.225 -0.999448 0.0132036 0.030471
43.5574 137.327 136.456 -0.999448 0.0132036 0.030471
43.5336 137.409 135.641 -0.999448 0.0132036 0.030471
45.7564 136.209 135.378 0.518871 -0.5014 -0.692366
46.118 136.876 135.166 0.518871 -0.5014 -0.692366
46.5353 136.546 135.717 0.518871 -0.5014 -0.692366
46.8601 137.329 135.368 0.504676 -0.517313 -0.691151
46.5353 136.546 135.717 0.504676 -0.517313 -0.691151
46.118 136.876 135.166 0.504676 -0.517313 -0.691151
46.8601 137.329 135.368 0.544296 -0.519338 -0.658809
47.3582 137.409 135.717 0.544296 -0.519338 -0.658809
46.5353 136.546 135.717 0.544296 -0.519338 -0.658809
47.3582 137.409 135.717 0.248328 -0.237506 -0.939108
47.3971 136.669 135.914 0.248328 -0.237506 -0.939108
46.5353 136.546 135.717 0.248328 -0.237506 -0.939108
47.9839 136.728 136.628 0.663343 -0.557133 -0.499578
47.3971 136.669 135.914 0.663343 -0.557133 -0.499578
48.1479 137.454 136.035 0.663343 -0.557133 -0.499578
48.1479 137.454 136.035 0.375849 -0.220392 -0.900091
47.3971 136.669 135.914 0.375849 -0.220392 -0.900091
47.3582 137.409 135.717 0.375849 -0.220392 -0.900091
47.9839 136.728 136.628 0.547246 -0.599666 -0.583886
48.1479 137.454 136.035 0.547246 -0.599666 -0.583886
48.6156 137.437 136.491 0.547246 -0.599666 -0.583886
43.5336 137.409 135.641 -0.853712 0.515139 0.0762063
43.5574 137.327 136.456 -0.853712 0.515139 0.0762063
43.9701 138.043 136.241 -0.853712 0.515139 0.0762063
44.1237 138.08 135.392 -0.766443 0.632554 -0.11154
43.5336 137.409 135.641 -0.766443 0.632554 -0.11154
43.9701 138.043 136.241 -0.766443 0.632554 -0.11154
43.9701 138.043 136.241 -0.758811 0.641997 -0.109751
44.4919 138.561 135.664 -0.758811 0.641997 -0.109751
44.1237 138.08 135.392 -0.758811 0.641997 -0.109751
44.4259 138.417 136.678 -0.667959 0.741609 0.0620222
44.4919 138.561 135.664 -0.667959 0.741609 0.0620222
43.9701 138.043 136.241 -0.667959 0.741609 0.0620222
46.8601 137.329 135.368 0.546081 -0.512009 -0.663055
47.3269 137.825 135.37 0.546081 -0.512009 -0.663055
47.3582 137.409 135.717 0.546081 -0.512009 -0.663055
48.1501 138.433 135.143 0.601307 -0.797738 0.0452022
47.963 138.357 136.295 0.601307 -0.797738 0.0452022
47.3269 137.825 135.37 0.601307 -0.797738 0.0452022
48.1501 138.433 135.143 0.798647 -0.594942 0.0905914
48.2966 138.755 135.968 0.798647 -0.594942 0.0905914
47.963 138.357 136.295 0.798647 -0.594942 0.0905914
47.3269 137.825 135.37 0.858366 -0.289041 -0.423868
47.963 138.357 136.295 0.858366 -0.289041 -0.423868
47.3582 137.409 135.717 0.858366 -0.289041 -0.423868
48.3429 137.901 136.56 0.768164 0.317282 -0.556108
48.1479 137.454 136.035 0.768164 0.317282 -0.556108
47.963 138.357 136.295 0.768164 0.317282 -0.556108
47.3582 137.409 135.717 0.338214 0.323519 -0.883712
47.963 138.357 136.295 0.338214 0.323519 -0.883712
48.1479 137.454 136.035 0.338214 0.323519 -0.883712
48.1479 137.454 136.035 0.62772 0.461545 -0.626852
48.3429 137.901 136.56 0.62772 0.461545 -0.626852
48.6156 137.437 136.491 0.62772 0.461545 -0.626852
48.1501 138.433 135.143 0.464929 -0.849508 0.249355
48.8468 138.898 135.429 0.464929 -0.849508 0.249355
48.2966 138.755 135.968 0.464929 -0.849508 0.249355
44.4919 138.561 135.664 -0.699036 0.712898 0.0559084
44.4259 138.417 136.678 -0.699036 0.712898 0.0559084
45.0834 139.088 136.35 -0.699036 0.712898 0.0559084
45.3679 139.062 135.506 -0.513067 0.835116 -0.198351
44.4919 138.561 135.664 -0.513067 0.835116 -0.198351
45.0834 139.088 136.35 -0.513067 0.835116 -0.198351
46.2551 139.26 135.588 -0.212691 0.975783 -0.0510941
45.3679 139.062 135.506 -0.212691 0.975783 -0.0510941
46.0709 139.264 136.438 -0.212691 0.975783 -0.0510941
45.3679 139.062 135.506 -0.167816 0.982033 -0.0863077
45.0834 139.088 136.35 -0.167816 0.982033 -0.0863077
46.0709 139.264 136.438 -0.167816 0.982033 -0.0863077
46.7324 139.433 135.345 -0.269613 0.912386 0.307994
47.1386 139.196 136.401 -0.269613 0.912386 0.307994
47.5768 139.462 135.997 -0.269613 0.912386 0.307994
46.7324 139.433 135.345 -0.194457 0.938609 0.284957
46.2551 139.26 135.588 -0.194457 0.938609 0.284957
47.1386 139.196 136.401 -0.194457 0.938609 0.284957
46.2551 139.26 135.588 0.0637702 0.997926 0.00876013
46.0709 139.264 136.438 0.0637702 0.997926 0.00876013
47.1386 139.196 136.401 0.0637702 0.997926 0.00876013
47.963 138.357 136.295 0.489498 0.38223 0.783768
47.5768 139.462 135.997 0.489498 0.38223 0.783768
47.1386 139.196 136.401 0.489498 0.38223 0.783768
47.963 138.357 136.295 0.3929 0.364736 0.844155
48.2966 138.755 135.968 0.3929 0.364736 0.844155
47.5768 139.462 135.997 0.3929 0.364736 0.844155
48.2966 138.755 135.968 0.152834 0.114582 0.981587
48.4121 139.45 135.869 0.152834 0.114582 0.981587
47.5768 139.462 135.997 0.152834 0.114582 0.981587
48.8468 138.898 135.429 0.767255 0.0989568 0.633662
48.893 139.731 135.243 0.767255 0.0989568 0.633662
48.4121 139.45 135.869 0.767255 0.0989568 0.633662
48.2966 138.755 135.968 0.701866 -0.0150817 0.71215
48.8468 138.898 135.429 0.701866 -0.0150817 0.71215
48.4121 139.45 135.869 0.701866 -0.0150817 0.71215
46.7324 139.433 135.345 -0.513577 0.572845 0.638817
47.5768 139.462 135.997 -0.513577 0.572845 0.638817
47.3182 140.052 135.261 -0.513577 0.572845 0.638817
48.1655 140.116 135.385 -0.151495 0.745044 0.649583
47.3182 140.052 135.261 -0.151495 0.745044 0.649583
47.5768 139.462 135.997 -0.151495 0.745044 0.649583
48.4121 139.45 135.869 0.128694 0.613921 0.778806
48.1655 140.116 135.385 0.128694 0.613921 0.778806
47.5768 139.462 135.997 0.128694 0.613921 0.778806
48.893 139.731 135.243 0.455498 0.627675 0.631304
48.1655 140.116 135.385 0.455498 0.627675 0.631304
48.4121 139.45 135.869 0.455498 0.627675 0.631304
44.2087 136.03 136.498 -0.649369 -0.555893 0.518944
44.0056 136.646 136.904 -0.649369 -0.555893 0.518944
43.5401 136.556 136.225 -0.649369 -0.555893 0.518944
44.2087 136.03 136.498 -0.100014 -0.767585 0.633096
45.1842 135.827 136.406 -0.100014 -0.767585 0.633096
44.9773 136.536 137.233 -0.100014 -0.767585 0.633096
44.0056 136.646 136.904 -0.317773 -0.592399 0.740326
44.2087 136.03 136.498 -0.317773 -0.592399 0.740326
44.9773 136.536 137.233 -0.317773 -0.592399 0.740326
44.9773 136.536 137.233 -0.384349 -0.746169 0.543606
45.1842 135.827 136.406 -0.384349 -0.746169 0.543606
46.1721 136.007 137.351 -0.384349 -0.746169 0.543606
46.1721 136.007 137.351 0.0484441 -0.9893 0.137619
45.1842 135.827 136.406 0.0484441 -0.9893 0.137619
46.2895 135.887 136.449 0.0484441 -0.9893 0.137619
47.1533 136.059 136.404 0.19328 -0.980756 -0.0275976
47.1856 136.042 137.225 0.19328 -0.980756 -0.0275976
46.2895 135.887 136.449 0.19328 -0.980756 -0.0275976
46.2895 135.887 136.449 0.0514389 -0.989098 0.137982
47.1856 136.042 137.225 0.0514389 -0.989098 0.137982
46.1721 136.007 137.351 0.0514389 -0.989098 0.137982
47.1856 136.042 137.225 0.63344 -0.77272 -0.0407126
47.1533 136.059 136.404 0.63344 -0.77272 -0.0407126
47.9839 136.728 136.628 0.63344 -0.77272 -0.0407126
47.7349 136.779 137.475 0.732441 -0.631914 0.253407
47.1856 136.042 137.225 0.732441 -0.631914 0.253407
47.9839 136.728 136.628 0.732441 -0.631914 0.253407
44.0056 136.646 136.904 -0.685078 0.0282304 0.727923
44.1265 137.455 136.987 -0.685078 0.0282304 0.727923
43.5574 137.327 136.456 -0.685078 0.0282304 0.727923
43.5401 136.556 136.225 -0.805476 -0.153367 0.57244
44.0056 136.646 136.904 -0.805476 -0.153367 0.57244
43.5574 137.327 136.456 -0.805476 -0.153367 0.57244
44.5619 137.527 137.411 -0.637176 -0.386853 0.666598
44.9773 136.536 137.233 -0.637176 -0.386853 0.666598
45.1574 136.942 137.64 -0.637176 -0.386853 0.666598
44.5619 137.527 137.411 -0.612115 -0.381063 0.692897
44.1265 137.455 136.987 -0.612115 -0.381063 0.692897
44.9773 136.536 137.233 -0.612115 -0.381063 0.692897
44.1265 137.455 136.987 -0.324999 -0.047735 0.944509
44.0056 136.646 136.904 -0.324999 -0.047735 0.944509
44.9773 136.536 137.233 -0.324999 -0.047735 0.944509
48.3537 137.454 136.913 0.41237 -0.507796 0.756369
48.008 137.629 137.219 0.41237 -0.507796 0.756369
47.9839 136.728 136.628 0.41237 -0.507796 0.756369
48.008 137.629 137.219 0.933741 -0.213657 0.287192
47.7349 136.779 137.475 0.933741 -0.213657 0.287192
47.9839 136.728 136.628 0.933741 -0.213657 0.287192
47.9839 136.728 136.628 0.705389 -0.540004 0.459153
48.6156 137.437 136.491 0.705389 -0.540004 0.459153
48.3537 137.454 136.913 0.705389 -0.540004 0.459153
43.5574 137.327 136.456 -0.637391 0.534245 0.555261
44.1265 137.455 136.987 -0.637391 0.534245 0.555261
43.9701 138.043 136.241 -0.637391 0.534245 0.555261
44.1265 137.455 136.987 -0.783576 0.397158 0.47778
44.4259 138.417 136.678 -0.783576 0.397158 0.47778
43.9701 138.043 136.241 -0.783576 0.397158 0.47778
44.1265 137.455 136.987 -0.670746 0.407613 0.619638
44.5619 137.527 137.411 -0.670746 0.407613 0.619638
44.4259 138.417 136.678 -0.670746 0.407613 0.619638
44.5619 137.527 137.411 -0.940854 0.117773 0.317685
44.6954 138.339 137.505 -0.940854 0.117773 0.317685
44.4259 138.417 136.678 -0.940854 0.117773 0.317685
48.3429 137.901 136.56 0.708354 0.448303 0.545215
48.008 137.629 137.219 0.708354 0.448303 0.545215
48.3537 137.454 136.913 0.708354 0.448303 0.545215
48.3429 137.901 136.56 0.473238 0.702853 0.531077
47.963 138.357 136.295 0.473238 0.702853 0.531077
48.008 137.629 137.219 0.473238 0.702853 0.531077
47.963 138.357 136.295 0.931092 0.307151 0.196789
47.7056 138.521 137.258 0.931092 0.307151 0.196789
48.008 137.629 137.219 0.931092 0.307151 0.196789
48.6156 137.437 136.491 0.788291 0.393285 0.473207
48.3429 137.901 136.56 0.788291 0.393285 0.473207
48.3537 137.454 136.913 0.788291 0.393285 0.473207
44.4259 138.417 136.678 -0.650672 0.706266 0.278952
44.6954 138.339 137.505 -0.650672 0.706266 0.278952
45.2979 139.002 137.231 -0.650672 0.706266 0.278952
45.0834 139.088 136.35 -0.637639 0.736199 0.226777
44.4259 138.417 136.678 -0.637639 0.736199 0.226777
45.2979 139.002 137.231 -0.637639 0.736199 0.226777
46.0709 139.264 136.438 -0.18631 0.972491 0.139822
45.0834 139.088 136.35 -0.18631 0.972491 0.139822
45.2979 139.002 137.231 -0.18631 0.972491 0.139822
47.1386 139.196 136.401 0.0698914 0.969167 0.236287
46.0709 139.264 136.438 0.0698914 0.969167 0.236287
46.7907 138.987 137.361 0.0698914 0.969167 0.236287
46.0709 139.264 136.438 -0.0165681 0.954045 0.299206
45.2979 139.002 137.231 -0.0165681 0.954045 0.299206
46.7907 138.987 137.361 -0.0165681 0.954045 0.299206
47.7056 138.521 137.258 0.716034 0.694191 0.0734383
47.963 138.357 136.295 0.716034 0.694191 0.0734383
47.1386 139.196 136.401 0.716034 0.694191 0.0734383
46.7907 138.987 137.361 0.457043 0.82017 0.344141
47.7056 138.521 137.258 0.457043 0.82017 0.344141
47.1386 139.196 136.401 0.457043 0.82017 0.344141
46.1721 136.007 137.351 -0.3402 -0.607493 0.717786
46.0659 136.808 137.979 -0.3402 -0.607493 0.717786
44.9773 136.536 137.233 -0.3402 -0.607493 0.717786
46.1721 136.007 137.351 0.106805 -0.756504 0.645209
47.1856 136.042 137.225 0.106805 -0.756504 0.645209
47.0551 136.588 137.886 0.106805 -0.756504 0.645209
46.0659 136.808 137.979 -0.0648508 -0.620755 0.781318
46.1721 136.007 137.351 -0.0648508 -0.620755 0.781318
47.0551 136.588 137.886 -0.0648508 -0.620755 0.781318
47.1856 136.042 137.225 0.530824 -0.599312 0.599209
47.7349 136.779 137.475 0.530824 -0.599312 0.599209
47.0551 136.588 137.886 0.530824 -0.599312 0.599209
45.1574 136.942 137.64 -0.60701 -0.334876 0.720692
45.224 137.558 137.983 -0.60701 -0.334876 0.720692
44.5619 137.527 137.411 -0.60701 -0.334876 0.720692
45.1574 136.942 137.64 -0.358344 -0.577671 0.733407
44.9773 136.536 137.233 -0.358344 -0.577671 0.733407
46.0659 136.808 137.979 -0.358344 -0.577671 0.733407
45.1574 136.942 137.64 -0.37044 -0.420295 0.828327
46.0659 136.808 137.979 -0.37044 -0.420295 0.828327
45.224 137.558 137.983 -0.37044 -0.420295 0.828327
45.224 137.558 137.983 -0.174188 -0.200717 0.964039
46.0659 136.808 137.979 -0.174188 -0.200717 0.964039
46.0527 137.635 138.149 -0.174188 -0.200717 0.964039
47.0551 136.588 137.886 0.0858881 -0.0338974 0.995728
47.0718 137.975 137.932 0.0858881 -0.0338974 0.995728
46.0659 136.808 137.979 0.0858881 -0.0338974 0.995728
47.0718 137.975 137.932 0.264629 -0.189891 0.94547
46.0527 137.635 138.149 0.264629 -0.189891 0.94547
46.0659 136.808 137.979 0.264629 -0.189891 0.94547
47.7349 136.779 137.475 0.614527 0.0400953 0.787876
48.008 137.629 137.219 0.614527 0.0400953 0.787876
47.0718 137.975 137.932 0.614527 0.0400953 0.787876
47.0551 136.588 137.886 0.523717 -0.0343969 0.851198
47.7349 136.779 137.475 0.523717 -0.0343969 0.851198
47.0718 137.975 137.932 0.523717 -0.0343969 0.851198
45.224 137.558 137.983 -0.449503 0.224765 0.864539
45.5828 138.403 137.95 -0.449503 0.224765 0.864539
44.6954 138.339 137.505 -0.449503 0.224765 0.864539
44.5619 137.527 137.411 -0.654199 0.019849 0.756062
45.224 137.558 137.983 -0.654199 0.019849 0.756062
44.6954 138.339 137.505 -0.654199 0.019849 0.756062
46.0527 137.635 138.149 -0.205866 0.125447 0.970506
45.5828 138.403 137.95 -0.205866 0.125447 0.970506
45.224 137.558 137.983 -0.205866 0.125447 0.970506
47.0718 137.975 137.932 0.0991953 0.306035 0.946838
45.5828 138.403 137.95 0.0991953 0.306035 0.946838
46.0527 137.635 138.149 0.0991953 0.306035 0.946838
48.008 137.629 137.219 0.637549 0.183805 0.748162
47.7056 138.521 137.258 0.637549 0.183805 0.748162
47.0718 137.975 137.932 0.637549 0.183805 0.748162
44.6954 138.339 137.505 -0.384225 0.628349 0.676423
45.5828 138.403 137.95 -0.384225 0.628349 0.676423
45.2979 139.002 137.231 -0.384225 0.628349 0.676423
46.7907 138.987 137.361 -0.0491226 0.757331 0.651181
45.2979 139.002 137.231 -0.0491226 0.757331 0.651181
45.5828 138.403 137.95 -0.0491226 0.757331 0.651181
47.0718 137.975 137.932 0.1588 0.518305 0.840323
46.7907 138.987 137.361 0.1588 0.518305 0.840323
45.5828 138.403 137.95 0.1588 0.518305 0.840323
47.7056 138.521 137.258 0.357908 0.532329 0.767155
46.7907 138.987 137.361 0.357908 0.532329 0.767155
47.0718 137.975 137.932 0.357908 0.532329 0.767155
3 0 1 2
3 3 4 5
3 6 7 8
3 9 10 11
3 12 13 14
3 15 16 17
3 18 19 20
3 21 22 23
3 24 25 26
3 27 28 29
3 30 31 32
3 33 34 35
3 36 37 38
3 39 40 41
3 42 43 44
3 45 46 47
3 48 49 50
3 51 52 53
3 54 55 56
3 57 58 59
3 60 61 62
3 63 64 65
3 66 67 68
3 69 70 71
3 72 73 74
3 75 76 77
3 78 79 80
3 81 82 83
3 84 85 86
3 87 88 89
3 90 91 92
3 93 94 95
3 96 97 98
3 99 100 101
3 102 103 104
3 105 106 107
3 108 109 110
3 111 112 113
3 114 115 116
3 117 118 119
3 120 121 122
3 123 124 125
3 126 127 128
3 129 130 131
3 132 133 134
3 135 136 137
3 138 139 140
3 141 142 143
3 144 145 146
3 147 148 149
3 150 151 152
3 153 154 155
3 156 157 158
3 159 160 161
3 162 163 164
3 165 166 167
3 168 169 170
3 171 172 173
3 174 175 176
3 177 178 179
3 180 181 182
3 183 184 185
3 186 187 188
3 189 190 191
3 192 193 194
3 195 196 197
3 198 199 200
3 201 202 203
3 204 205 206
3 207 208 209
3 210 211 212
3 213 214 215
3 216 217 218
3 219 220 221
3 222 223 224
3 225 226 227
3 228 229 230
3 231 232 233
3 234 235 236
3 237 238 239
3 240 241 242
3 243 244 245
3 246 247 248
3 249 250 251
3 252 253 254
3 255 256 257
3 258 259 260
3 261 262 263
3 264 265 266
3 267 268 269
3 270 271 272
3 273 274 275
3 276 277 278
3 279 280 281
3 282 283 284
3 285 286 287
3 288 289 290
3 291 292 293
3 294 295 296
3 297 298 299
3 300 301 302
3 303 304 305
3 306 307 308
3 309 310 311
3 312 313 314
3 315 316 317
3 318 319 320
3 321 322 323
3 324 325 326
3 327 328 329
3 330 331 332
3 333 334 335
3 336 337 338
3 339 340 341
3 342 343 344
3 345 346 347
3 348 349 350
3 351 352 353
3 354 355 356
3 357 358 359
3 360 361 362
3 363 364 365
3 366 367 368
3 369 370 371
3 372 373 374
3 375 376 377
3 378 379 380
3 381 382 383
3 384 385 386
3 387 388 389
3 390 391 392
3 393 394 395
3 396 397 398
3 399 400 401
3 402 403 404
3 405 406 407
3 408 409 410
3 411 412 413
3 414 415 416
3 417 418 419
3 420 421 422
3 423 424 425
3 426 427 428
3 429 430 431
3 432 433 434
3 435 436 437
3 438 439 440
3 441 442 443
3 444 445 446
3 447 448 449
3 450 451 452
3 453 454 455
3 456 457 458
3 459 460 461
3 462 463 464
3 465 466 467
3 468 469 470
3 471 472 473
3 474 475 476
3 477 478 479
3 480 481 482
3 483 484 485
3 486 487 488
3 489 490 491
3 492 493 494
3 495 496 497
3 498 499 500
3 501 502 503
3 504 505 506
3 507 508 509
3 510 511 512
3 513 514 515
3 516 517 518
3 519 520 521
3 522 523 524
3 525 526 527
3 528 529 530
3 531 532 533
