ply
format ascii 1.0
element vertex 870
property float x
property float y
property float z
property float nx
property float ny
property float nz
element face 290
property list uint uint vertex_indices
end_header
113.294 155.278 154.491 -0.48283 -0.601346 -0.636599
113.298 154.503 155.22 -0.48283 -0.601346 -0.636599
112.479 155.175 155.207 -0.48283 -0.601346 -0.636599
113.298 154.503 155.22 0.539979 -0.575021 -0.614633
113.294 155.278 154.491 0.539979 -0.575021 -0.614633
114.069 155.189 155.256 0.539979 -0.575021 -0.614633
112.271 156.23 154.438 -0.557739 -0.541771 -0.628818
112.174 155.467 155.181 -0.557739 -0.541771 -0.628818
111.415 156.256 155.175 -0.557739 -0.541771 -0.628818
112.479 155.175 155.207 -0.493902 -0.573796 -0.653314
112.174 155.467 155.181 -0.493902 -0.573796 -0.653314
112.271 156.23 154.438 -0.493902 -0.573796 -0.653314
112.479 155.175 155.207 -0.498713 -0.572746 -0.650574
112.271 156.23 154.438 -0.498713 -0.572746 -0.650574
113.294 155.278 154.491 -0.498713 -0.572746 -0.650574
113.294 155.278 154.491 0.000271771 -0.055896 -0.998437
112.271 156.23 154.438 0.000271771 -0.055896 -0.998437
113.333 156.288 154.435 0.000271771 -0.055896 -0.998437
114.162 156.177 155.232 0.694879 -0.0824531 -0.714384
114.069 155.189 155.256 0.694879 -0.0824531 -0.714384
113.294 155.278 154.491 0.694879 -0.0824531 -0.714384
113.333 156.288 154.435 0.686856 -0.0670205 -0.723697
114.162 156.177 155.232 0.686856 -0.0670205 -0.723697
113.294 155.278 154.491 0.686856 -0.0670205 -0.723697
112.216 157.292 154.433 -0.65251 -0.0372943 -0.756861
112.271 156.23 154.438 -0.65251 -0.0372943 -0.756861
111.415 156.256 155.175 -0.65251 -0.0372943 -0.756861
111.309 157.308 155.265 -0.676246 -0.00445903 -0.736663
112.216 157.292 154.433 -0.676246 -0.00445903 -0.736663
111.415 156.256 155.175 -0.676246 -0.00445903 -0.736663
113.333 156.288 154.435 -0.00211938 -0.0118018 -0.999928
112.271 156.23 154.438 -0.00211938 -0.0118018 -0.999928
113.294 157.291 154.423 -0.00211938 -0.0118018 -0.999928
113.294 157.291 154.423 -0.00929757 -0.00488255 -0.999945
112.271 156.23 154.438 -0.00929757 -0.00488255 -0.999945
112.216 157.292 154.433 -0.00929757 -0.00488255 -0.999945
114.391 157.292 155.337 0.686167 -0.0728345 -0.723789
114.162 156.177 155.232 0.686167 -0.0728345 -0.723789
113.333 156.288 154.435 0.686167 -0.0728345 -0.723789
113.294 157.291 154.423 0.639874 0.0158863 -0.768316
114.391 157.292 155.337 0.639874 0.0158863 -0.768316
113.333 156.288 154.435 0.639874 0.0158863 -0.768316
112.215 158.326 154.479 -0.675522 0.0326367 -0.736617
112.216 157.292 154.433 -0.675522 0.0326367 -0.736617
111.309 157.308 155.265 -0.675522 0.0326367 -0.736617
111.426 158.39 155.256 -0.696823 0.0691366 -0.713903
112.215 158.326 154.479 -0.696823 0.0691366 -0.713903
111.309 157.308 155.265 -0.696823 0.0691366 -0.713903
113.294 157.291 154.423 -0.00929394 0.0127357 -0.999876
112.216 157.292 154.433 -0.00929394 0.0127357 -0.999876
113.283 158.331 154.436 -0.00929394 0.0127357 -0.999876
113.283 158.331 154.436 -0.0402544 0.0445424 -0.998196
112.216 157.292 154.433 -0.0402544 0.0445424 -0.998196
112.215 158.326 154.479 -0.0402544 0.0445424 -0.998196
114.123 158.295 155.161 0.639532 0.0359664 -0.767923
114.391 157.292 155.337 0.639532 0.0359664 -0.767923
113.294 157.291 154.423 0.639532 0.0359664 -0.767923
113.283 158.331 154.436 0.653393 0.0163694 -0.756842
114.123 158.295 155.161 0.653393 0.0163694 -0.756842
113.294 157.291 154.423 0.653393 0.0163694 -0.756842
112.215 158.326 154.479 -0.563814 0.548019 -0.617891
111.426 158.39 155.256 -0.563814 0.548019 -0.617891
112.249 159.133 155.164 -0.563814 0.548019 -0.617891
112.249 159.133 155.164 -0.528919 0.561925 -0.635991
113.25 159.316 154.494 -0.528919 0.561925 -0.635991
112.215 158.326 154.479 -0.528919 0.561925 -0.635991
112.215 158.326 154.479 -0.0402789 0.0564862 -0.997591
113.25 159.316 154.494 -0.0402789 0.0564862 -0.997591
113.283 158.331 154.436 -0.0402789 0.0564862 -0.997591
114.085 159.303 155.173 0.653528 0.0335967 -0.756157
114.123 158.295 155.161 0.653528 0.0335967 -0.756157
113.283 158.331 154.436 0.653528 0.0335967 -0.756157
113.25 159.316 154.494 0.630007 0.0662986 -0.773755
114.085 159.303 155.173 0.630007 0.0662986 -0.773755
113.283 158.331 154.436 0.630007 0.0662986 -0.773755
113.25 159.316 154.494 -0.516931 0.604032 -0.606571
112.249 159.133 155.164 -0.516931 0.604032 -0.606571
113.265 160.073 155.234 -0.516931 0.604032 -0.606571
114.085 159.303 155.173 0.512122 0.595646 -0.618819
113.25 159.316 154.494 0.512122 0.595646 -0.618819
113.265 160.073 155.234 0.512122 0.595646 -0.618819
112.24 154.215 155.542 -0.532998 -0.586558 -0.609806
112.172 153.49 156.298 -0.532998 -0.586558 -0.609806
111.448 154.218 156.231 -0.532998 -0.586558 -0.609806
112.172 153.49 156.298 0.526433 -0.636996 -0.56312
112.24 154.215 155.542 0.526433 -0.636996 -0.56312
112.981 154.138 156.321 0.526433 -0.636996 -0.56312
112.114 155.214 155.449 -0.649273 -0.151296 -0.745355
112.24 154.215 155.542 -0.649273 -0.151296 -0.745355
111.448 154.218 156.231 -0.649273 -0.151296 -0.745355
111.331 155.186 156.24 -0.707427 -0.0787219 -0.702388
112.114 155.214 155.449 -0.707427 -0.0787219 -0.702388
111.448 154.218 156.231 -0.707427 -0.0787219 -0.702388
112.479 155.175 155.207 -0.632166 -0.772149 -0.0644312
113.298 154.503 155.22 -0.632166 -0.772149 -0.0644312
113.286 154.433 156.177 -0.632166 -0.772149 -0.0644312
112.479 155.175 155.207 0.535865 -0.393488 -0.747005
113.286 154.433 156.177 0.535865 -0.393488 -0.747005
112.24 154.215 155.542 0.535865 -0.393488 -0.747005
112.479 155.175 155.207 -0.556481 -0.146347 -0.81787
112.24 154.215 155.542 -0.556481 -0.146347 -0.81787
112.114 155.214 155.449 -0.556481 -0.146347 -0.81787
112.981 154.138 156.321 0.461284 -0.72613 -0.509855
112.24 154.215 155.542 0.461284 -0.72613 -0.509855
113.286 154.433 156.177 0.461284 -0.72613 -0.509855
113.286 154.433 156.177 0.665334 -0.745121 -0.0461003
113.298 154.503 155.22 0.665334 -0.745121 -0.0461003
114.069 155.189 155.256 0.665334 -0.745121 -0.0461003
114.129 155.198 156.249 0.672913 -0.738913 -0.0345668
113.286 154.433 156.177 0.672913 -0.738913 -0.0345668
114.069 155.189 155.256 0.672913 -0.738913 -0.0345668
111.128 156.195 155.494 -0.58938 -0.557628 -0.584535
111.072 155.487 156.226 -0.58938 -0.557628 -0.584535
110.321 156.282 156.224 -0.58938 -0.557628 -0.584535
111.331 155.186 156.24 -0.605542 -0.548321 -0.57677
111.072 155.487 156.226 -0.605542 -0.548321 -0.57677
111.128 156.195 155.494 -0.605542 -0.548321 -0.57677
112.114 155.214 155.449 -0.580811 -0.556301 -0.594296
111.331 155.186 156.24 -0.580811 -0.556301 -0.594296
111.128 156.195 155.494 -0.580811 -0.556301 -0.594296
112.114 155.214 155.449 -0.569559 -0.543992 -0.616177
111.128 156.195 155.494 -0.569559 -0.543992 -0.616177
111.415 156.256 155.175 -0.569559 -0.543992 -0.616177
112.114 155.214 155.449 -0.554433 -0.538636 -0.63441
111.415 156.256 155.175 -0.554433 -0.538636 -0.63441
112.174 155.467 155.181 -0.554433 -0.538636 -0.63441
112.479 155.175 155.207 -0.493601 -0.573522 -0.653782
112.114 155.214 155.449 -0.493601 -0.573522 -0.653782
112.174 155.467 155.181 -0.493601 -0.573522 -0.653782
114.407 155.484 156.223 0.6229 -0.5607 -0.545537
114.162 156.177 155.232 0.6229 -0.5607 -0.545537
114.485 156.294 155.48 0.6229 -0.5607 -0.545537
114.407 155.484 156.223 0.569115 -0.601407 -0.56073
114.129 155.198 156.249 0.569115 -0.601407 -0.56073
114.162 156.177 155.232 0.569115 -0.601407 -0.56073
114.129 155.198 156.249 0.993712 -0.0949062 -0.0594034
114.069 155.189 155.256 0.993712 -0.0949062 -0.0594034
114.162 156.177 155.232 0.993712 -0.0949062 -0.0594034
114.407 155.484 156.223 0.59572 -0.57349 -0.562341
114.485 156.294 155.48 0.59572 -0.57349 -0.562341
115.192 156.193 156.332 0.59572 -0.57349 -0.562341
111.309 157.308 155.265 -0.672961 -0.0420916 -0.73848
111.128 156.195 155.494 -0.672961 -0.0420916 -0.73848
110.321 156.282 156.224 -0.672961 -0.0420916 -0.73848
110.305 157.281 156.216 -0.687377 -0.0166394 -0.72611
111.309 157.308 155.265 -0.687377 -0.0166394 -0.72611
110.321 156.282 156.224 -0.687377 -0.0166394 -0.72611
111.128 156.195 155.494 -0.742163 -0.0168178 -0.670008
111.309 157.308 155.265 -0.742163 -0.0168178 -0.670008
111.415 156.256 155.175 -0.742163 -0.0168178 -0.670008
114.162 156.177 155.232 0.620723 -0.053947 -0.782172
114.391 157.292 155.337 0.620723 -0.053947 -0.782172
114.485 156.294 155.48 0.620723 -0.053947 -0.782172
115.473 156.499 156.268 0.560443 -0.628318 -0.539555
115.192 156.193 156.332 0.560443 -0.628318 -0.539555
114.485 156.294 155.48 0.560443 -0.628318 -0.539555
115.473 156.499 156.268 0.581504 -0.569114 -0.581345
114.485 156.294 155.48 0.581504 -0.569114 -0.581345
115.485 157.298 155.497 0.581504 -0.569114 -0.581345
115.485 157.298 155.497 0.144735 -0.127342 -0.981242
114.485 156.294 155.48 0.144735 -0.127342 -0.981242
114.391 157.292 155.337 0.144735 -0.127342 -0.981242
115.473 156.499 156.268 0.589282 -0.565277 -0.577242
115.485 157.298 155.497 0.589282 -0.565277 -0.577242
116.269 157.262 156.334 0.589282 -0.565277 -0.577242
111.309 157.308 155.265 -0.574422 0.567365 -0.590031
110.305 157.281 156.216 -0.574422 0.567365 -0.590031
111.02 158.056 156.265 -0.574422 0.567365 -0.590031
111.02 158.056 156.265 -0.668723 0.489879 -0.55931
111.292 158.358 156.205 -0.668723 0.489879 -0.55931
111.309 157.308 155.265 -0.668723 0.489879 -0.55931
111.292 158.358 156.205 -0.985101 0.105638 -0.135705
111.426 158.39 155.256 -0.985101 0.105638 -0.135705
111.309 157.308 155.265 -0.985101 0.105638 -0.135705
114.391 157.292 155.337 0.557283 0.00311025 -0.830317
114.123 158.295 155.161 0.557283 0.00311025 -0.830317
114.45 158.396 155.38 0.557283 0.00311025 -0.830317
115.485 157.298 155.497 0.145313 -0.0299176 -0.988933
114.391 157.292 155.337 0.145313 -0.0299176 -0.988933
115.485 158.333 155.466 0.145313 -0.0299176 -0.988933
115.485 158.333 155.466 0.0844931 0.0348275 -0.995815
114.391 157.292 155.337 0.0844931 0.0348275 -0.995815
114.45 158.396 155.38 0.0844931 0.0348275 -0.995815
116.346 158.292 156.292 0.725351 -0.0812349 -0.683569
116.269 157.262 156.334 0.725351 -0.0812349 -0.683569
115.485 157.298 155.497 0.725351 -0.0812349 -0.683569
115.485 158.333 155.466 0.691744 -0.0215389 -0.721822
116.346 158.292 156.292 0.691744 -0.0215389 -0.721822
115.485 157.298 155.497 0.691744 -0.0215389 -0.721822
112.182 159.386 155.484 -0.582659 0.57415 -0.575204
112.249 159.133 155.164 -0.582659 0.57415 -0.575204
111.426 158.39 155.256 -0.582659 0.57415 -0.575204
112.182 159.386 155.484 -0.575716 0.571153 -0.585094
111.426 158.39 155.256 -0.575716 0.571153 -0.585094
111.394 159.36 156.235 -0.575716 0.571153 -0.585094
111.394 159.36 156.235 -0.985274 0.10391 -0.135788
111.426 158.39 155.256 -0.985274 0.10391 -0.135788
111.292 158.358 156.205 -0.985274 0.10391 -0.135788
114.45 158.396 155.38 0.604932 0.0613431 -0.79391
114.085 159.303 155.173 0.604932 0.0613431 -0.79391
114.392 159.448 155.417 0.604932 0.0613431 -0.79391
114.123 158.295 155.161 0.551158 0.0306106 -0.833839
114.085 159.303 155.173 0.551158 0.0306106 -0.833839
114.45 158.396 155.38 0.551158 0.0306106 -0.833839
115.485 158.333 155.466 0.0838061 0.0229402 -0.996218
114.45 158.396 155.38 0.0838061 0.0229402 -0.996218
115.481 159.375 155.49 0.0838061 0.0229402 -0.996218
115.481 159.375 155.49 0.0687549 0.0388699 -0.996876
114.45 158.396 155.38 0.0687549 0.0388699 -0.996876
114.392 159.448 155.417 0.0687549 0.0388699 -0.996876
116.287 159.335 156.23 0.69232 -0.00445645 -0.721577
116.346 158.292 156.292 0.69232 -0.00445645 -0.721577
115.485 158.333 155.466 0.69232 -0.00445645 -0.721577
115.481 159.375 155.49 0.676859 0.0188272 -0.735872
116.287 159.335 156.23 0.676859 0.0188272 -0.735872
115.485 158.333 155.466 0.676859 0.0188272 -0.735872
112.182 159.386 155.484 -0.55984 0.603969 -0.567275
111.394 159.36 156.235 -0.55984 0.603969 -0.567275
112.258 160.186 156.262 -0.55984 0.603969 -0.567275
113.265 160.073 155.234 -0.525153 0.619785 -0.583165
112.258 160.186 156.262 -0.525153 0.619785 -0.583165
113.34 160.388 155.502 -0.525153 0.619785 -0.583165
113.265 160.073 155.234 -0.526638 0.617398 -0.584356
112.182 159.386 155.484 -0.526638 0.617398 -0.584356
112.258 160.186 156.262 -0.526638 0.617398 -0.584356
113.265 160.073 155.234 -0.524663 0.611335 -0.592451
112.249 159.133 155.164 -0.524663 0.611335 -0.592451
112.182 159.386 155.484 -0.524663 0.611335 -0.592451
113.265 160.073 155.234 0.395106 0.483793 -0.780919
114.392 159.448 155.417 0.395106 0.483793 -0.780919
114.085 159.303 155.173 0.395106 0.483793 -0.780919
113.265 160.073 155.234 0.413708 0.5291 -0.740877
113.34 160.388 155.502 0.413708 0.5291 -0.740877
114.392 159.448 155.417 0.413708 0.5291 -0.740877
113.34 160.388 155.502 0.00139474 0.0910258 -0.995848
114.361 160.435 155.507 0.00139474 0.0910258 -0.995848
114.392 159.448 155.417 0.00139474 0.0910258 -0.995848
115.481 159.375 155.49 0.0687887 0.0393986 -0.996853
114.392 159.448 155.417 0.0687887 0.0393986 -0.996853
115.423 160.4 155.526 0.0687887 0.0393986 -0.996853
115.423 160.4 155.526 0.0204877 0.0915974 -0.995585
114.392 159.448 155.417 0.0204877 0.0915974 -0.995585
114.361 160.435 155.507 0.0204877 0.0915974 -0.995585
116.236 160.344 156.257 0.676943 0.053962 -0.734055
116.287 159.335 156.23 0.676943 0.053962 -0.734055
115.481 159.375 155.49 0.676943 0.053962 -0.734055
115.423 160.4 155.526 0.669565 0.0643889 -0.739958
116.236 160.344 156.257 0.669565 0.0643889 -0.739958
115.481 159.375 155.49 0.669565 0.0643889 -0.739958
113.34 160.388 155.502 -0.531714 0.599952 -0.597777
112.258 160.186 156.262 -0.531714 0.599952 -0.597777
113.342 161.117 156.231 -0.531714 0.599952 -0.597777
114.361 160.435 155.507 -0.0283824 0.707325 -0.706319
113.34 160.388 155.502 -0.0283824 0.707325 -0.706319
113.342 161.117 156.231 -0.0283824 0.707325 -0.706319
114.441 161.173 156.286 -0.00255747 0.726055 -0.687632
114.361 160.435 155.507 -0.00255747 0.726055 -0.687632
113.342 161.117 156.231 -0.00255747 0.726055 -0.687632
115.423 160.4 155.526 0.0359076 0.723595 -0.68929
114.361 160.435 155.507 0.0359076 0.723595 -0.68929
114.441 161.173 156.286 0.0359076 0.723595 -0.68929
115.485 161.103 156.252 0.0253654 0.717198 -0.696408
115.423 160.4 155.526 0.0253654 0.717198 -0.696408
114.441 161.173 156.286 0.0253654 0.717198 -0.696408
116.236 160.344 156.257 0.573219 0.563911 -0.594495
115.423 160.4 155.526 0.573219 0.563911 -0.594495
115.485 161.103 156.252 0.573219 0.563911 -0.594495
112.172 153.49 156.298 -0.65676 -0.752872 0.0430075
112.227 153.496 157.245 -0.65676 -0.752872 0.0430075
111.385 154.23 157.236 -0.65676 -0.752872 0.0430075
111.448 154.218 156.231 -0.706711 -0.706621 -0.035297
112.172 153.49 156.298 -0.706711 -0.706621 -0.035297
111.385 154.23 157.236 -0.706711 -0.706621 -0.035297
112.227 153.496 157.245 0.625474 -0.779591 -0.0319209
112.172 153.49 156.298 0.625474 -0.779591 -0.0319209
112.981 154.138 156.321 0.625474 -0.779591 -0.0319209
112.974 154.194 157.339 0.679317 -0.732481 0.0447175
112.227 153.496 157.245 0.679317 -0.732481 0.0447175
112.981 154.138 156.321 0.679317 -0.732481 0.0447175
111.033 155.248 156.526 -0.579 -0.591833 -0.560796
111.385 154.23 157.236 -0.579 -0.591833 -0.560796
110.347 155.22 157.263 -0.579 -0.591833 -0.560796
111.033 155.248 156.526 -0.623104 -0.581087 -0.523526
111.331 155.186 156.24 -0.623104 -0.581087 -0.523526
111.385 154.23 157.236 -0.623104 -0.581087 -0.523526
111.331 155.186 156.24 -0.991105 -0.11869 -0.0601956
111.448 154.218 156.231 -0.991105 -0.11869 -0.0601956
111.385 154.23 157.236 -0.991105 -0.11869 -0.0601956
112.981 154.138 156.321 0.56937 -0.820631 0.0488116
113.334 154.437 157.229 0.56937 -0.820631 0.0488116
112.974 154.194 157.339 0.56937 -0.820631 0.0488116
113.286 154.433 156.177 0.687304 -0.725819 -0.028275
113.334 154.437 157.229 0.687304 -0.725819 -0.028275
112.981 154.138 156.321 0.687304 -0.725819 -0.028275
113.334 154.437 157.229 0.672734 -0.739371 -0.027558
113.286 154.433 156.177 0.672734 -0.739371 -0.027558
114.129 155.198 156.249 0.672734 -0.739371 -0.027558
114.175 155.232 157.314 0.687103 -0.726536 -0.00593744
113.334 154.437 157.229 0.687103 -0.726536 -0.00593744
114.129 155.198 156.249 0.687103 -0.726536 -0.00593744
110.027 156.197 156.575 -0.591431 -0.601573 -0.536954
110.024 155.537 157.318 -0.591431 -0.601573 -0.536954
109.3 156.296 157.265 -0.591431 -0.601573 -0.536954
110.347 155.22 157.263 -0.645372 -0.569695 -0.508863
110.024 155.537 157.318 -0.645372 -0.569695 -0.508863
110.027 156.197 156.575 -0.645372 -0.569695 -0.508863
111.033 155.248 156.526 -0.581649 -0.58705 -0.563078
110.347 155.22 157.263 -0.581649 -0.58705 -0.563078
110.027 156.197 156.575 -0.581649 -0.58705 -0.563078
111.033 155.248 156.526 -0.561257 -0.563207 -0.606456
110.027 156.197 156.575 -0.561257 -0.563207 -0.606456
110.321 156.282 156.224 -0.561257 -0.563207 -0.606456
111.033 155.248 156.526 -0.611418 -0.578384 -0.540037
110.321 156.282 156.224 -0.611418 -0.578384 -0.540037
111.072 155.487 156.226 -0.611418 -0.578384 -0.540037
111.331 155.186 156.24 -0.628859 -0.566332 -0.532733
111.033 155.248 156.526 -0.628859 -0.566332 -0.532733
111.072 155.487 156.226 -0.628859 -0.566332 -0.532733
114.407 155.484 156.223 0.718035 -0.695958 -0.00824954
114.175 155.232 157.314 0.718035 -0.695958 -0.00824954
114.129 155.198 156.249 0.718035 -0.695958 -0.00824954
114.175 155.232 157.314 0.672163 -0.739869 -0.028123
114.407 155.484 156.223 0.672163 -0.739869 -0.028123
115.192 156.193 156.332 0.672163 -0.739869 -0.028123
115.257 156.267 158.166 0.689231 -0.724527 0.00455368
114.175 155.232 157.314 0.689231 -0.724527 0.00455368
115.192 156.193 156.332 0.689231 -0.724527 0.00455368
110.003 157.25 156.549 -0.690392 -0.0338264 -0.722645
110.027 156.197 156.575 -0.690392 -0.0338264 -0.722645
109.3 156.296 157.265 -0.690392 -0.0338264 -0.722645
109.297 157.243 157.317 -0.736017 0.0347595 -0.67607
110.003 157.25 156.549 -0.736017 0.0347595 -0.67607
109.3 156.296 157.265 -0.736017 0.0347595 -0.67607
110.321 156.282 156.224 -0.739433 -0.0170372 -0.673014
110.003 157.25 156.549 -0.739433 -0.0170372 -0.673014
110.305 157.281 156.216 -0.739433 -0.0170372 -0.673014
110.027 156.197 156.575 -0.762445 -0.0335757 -0.646181
110.003 157.25 156.549 -0.762445 -0.0335757 -0.646181
110.321 156.282 156.224 -0.762445 -0.0335757 -0.646181
115.473 156.499 156.268 0.73573 -0.677274 0.000982492
115.257 156.267 158.166 0.73573 -0.677274 0.000982492
115.192 156.193 156.332 0.73573 -0.677274 0.000982492
115.257 156.267 158.166 0.692279 -0.721569 -0.00935695
115.473 156.499 156.268 0.692279 -0.721569 -0.00935695
116.269 157.262 156.334 0.692279 -0.721569 -0.00935695
116.304 157.277 157.323 0.689065 -0.724587 -0.0127691
115.257 156.267 158.166 0.689065 -0.724587 -0.0127691
116.269 157.262 156.334 0.689065 -0.724587 -0.0127691
110.003 157.25 156.549 -0.62024 0.543983 -0.565142
109.297 157.243 157.317 -0.62024 0.543983 -0.565142
110.05 158.018 157.237 -0.62024 0.543983 -0.565142
111.035 158.351 156.524 -0.592043 0.598698 -0.539486
110.05 158.018 157.237 -0.592043 0.598698 -0.539486
110.279 158.325 157.325 -0.592043 0.598698 -0.539486
111.02 158.056 156.265 -0.604615 0.542767 -0.582962
110.05 158.018 157.237 -0.604615 0.542767 -0.582962
111.035 158.351 156.524 -0.604615 0.542767 -0.582962
111.02 158.056 156.265 -0.59966 0.553895 -0.577588
110.003 157.25 156.549 -0.59966 0.553895 -0.577588
110.05 158.018 157.237 -0.59966 0.553895 -0.577588
111.02 158.056 156.265 -0.617813 0.602136 -0.505706
110.305 157.281 156.216 -0.617813 0.602136 -0.505706
110.003 157.25 156.549 -0.617813 0.602136 -0.505706
111.02 158.056 156.265 -0.678672 0.503816 -0.534391
111.035 158.351 156.524 -0.678672 0.503816 -0.534391
111.292 158.358 156.205 -0.678672 0.503816 -0.534391
116.57 157.637 157.313 0.72891 -0.492018 -0.476033
116.346 158.292 156.292 0.72891 -0.492018 -0.476033
116.607 158.371 156.611 0.72891 -0.492018 -0.476033
116.57 157.637 157.313 0.694126 -0.52672 -0.490669
116.304 157.277 157.323 0.694126 -0.52672 -0.490669
116.346 158.292 156.292 0.694126 -0.52672 -0.490669
116.304 157.277 157.323 0.996575 -0.075379 -0.0339909
116.269 157.262 156.334 0.996575 -0.075379 -0.0339909
116.346 158.292 156.292 0.996575 -0.075379 -0.0339909
116.57 157.637 157.313 0.563255 -0.58574 -0.582797
116.607 158.371 156.611 0.563255 -0.58574 -0.582797
117.276 158.336 157.294 0.563255 -0.58574 -0.582797
111.065 159.303 156.556 -0.727086 0.0450307 -0.685068
111.035 158.351 156.524 -0.727086 0.0450307 -0.685068
110.279 158.325 157.325 -0.727086 0.0450307 -0.685068
110.34 159.356 157.364 -0.740408 0.0686397 -0.668644
111.065 159.303 156.556 -0.740408 0.0686397 -0.668644
110.279 158.325 157.325 -0.740408 0.0686397 -0.668644
111.292 158.358 156.205 -0.70371 0.0923707 -0.704457
111.065 159.303 156.556 -0.70371 0.0923707 -0.704457
111.394 159.36 156.235 -0.70371 0.0923707 -0.704457
111.035 158.351 156.524 -0.779384 0.0446722 -0.624952
111.065 159.303 156.556 -0.779384 0.0446722 -0.624952
111.292 158.358 156.205 -0.779384 0.0446722 -0.624952
116.607 158.371 156.611 0.736239 0.502882 -0.452838
116.287 159.385 157.216 0.736239 0.502882 -0.452838
116.576 159.053 157.319 0.736239 0.502882 -0.452838
116.607 158.371 156.611 0.577523 0.545134 -0.607698
116.346 158.292 156.292 0.577523 0.545134 -0.607698
116.287 159.385 157.216 0.577523 0.545134 -0.607698
116.346 158.292 156.292 0.998424 0.0560623 -0.0026807
116.287 159.335 156.23 0.998424 0.0560623 -0.0026807
116.287 159.385 157.216 0.998424 0.0560623 -0.0026807
117.276 158.336 157.294 0.589235 0.594228 -0.547444
116.607 158.371 156.611 0.589235 0.594228 -0.547444
116.576 159.053 157.319 0.589235 0.594228 -0.547444
111.065 159.303 156.556 -0.586284 0.581907 -0.563609
110.34 159.356 157.364 -0.586284 0.581907 -0.563609
111.172 160.106 157.273 -0.586284 0.581907 -0.563609
111.394 159.36 156.235 -0.623824 0.565428 -0.539569
111.065 159.303 156.556 -0.623824 0.565428 -0.539569
111.172 160.106 157.273 -0.623824 0.565428 -0.539569
111.394 159.36 156.235 -0.564449 0.608477 -0.557811
111.172 160.106 157.273 -0.564449 0.608477 -0.557811
112.258 160.186 156.262 -0.564449 0.608477 -0.557811
112.258 160.186 156.262 -0.132855 0.989084 -0.0637418
111.172 160.106 157.273 -0.132855 0.989084 -0.0637418
112.243 160.255 157.353 -0.132855 0.989084 -0.0637418
115.498 160.448 157.011 0.632796 0.548729 0.546321
115.211 160.439 157.352 0.632796 0.548729 0.546321
115.525 160.116 157.314 0.632796 0.548729 0.546321
115.498 160.448 157.011 0.609177 0.560371 0.561148
115.525 160.116 157.314 0.609177 0.560371 0.561148
116.287 159.385 157.216 0.609177 0.560371 0.561148
115.498 160.448 157.011 0.625852 0.567665 0.53485
116.287 159.385 157.216 0.625852 0.567665 0.53485
116.236 160.344 156.257 0.625852 0.567665 0.53485
116.236 160.344 156.257 0.998733 0.0502629 -0.00238977
116.287 159.385 157.216 0.998733 0.0502629 -0.00238977
116.287 159.335 156.23 0.998733 0.0502629 -0.00238977
112.258 160.186 156.262 -0.656677 0.752075 -0.0561969
112.243 160.255 157.353 -0.656677 0.752075 -0.0561969
113.31 161.177 157.22 -0.656677 0.752075 -0.0561969
113.342 161.117 156.231 -0.650978 0.756162 -0.0666801
112.258 160.186 156.262 -0.650978 0.756162 -0.0666801
113.31 161.177 157.22 -0.650978 0.756162 -0.0666801
114.361 161.464 156.607 -0.450099 0.799812 -0.39713
113.31 161.177 157.22 -0.450099 0.799812 -0.39713
113.651 161.431 157.345 -0.450099 0.799812 -0.39713
114.361 161.464 156.607 -0.526047 0.560259 -0.639832
114.441 161.173 156.286 -0.526047 0.560259 -0.639832
113.31 161.177 157.22 -0.526047 0.560259 -0.639832
114.441 161.173 156.286 -0.0472066 0.996978 -0.0617027
113.342 161.117 156.231 -0.0472066 0.996978 -0.0617027
113.31 161.177 157.22 -0.0472066 0.996978 -0.0617027
115.498 160.448 157.011 0.758242 0.119864 0.64086
115.141 161.409 157.254 0.758242 0.119864 0.64086
115.211 160.439 157.352 0.758242 0.119864 0.64086
115.498 160.448 157.011 0.690002 0.407349 -0.5983
114.441 161.173 156.286 0.690002 0.407349 -0.5983
115.141 161.409 157.254 0.690002 0.407349 -0.5983
115.498 160.448 157.011 0.0714844 0.755527 0.651206
115.485 161.103 156.252 0.0714844 0.755527 0.651206
114.441 161.173 156.286 0.0714844 0.755527 0.651206
114.361 161.464 156.607 0.480322 0.706435 -0.519846
115.141 161.409 157.254 0.480322 0.706435 -0.519846
114.441 161.173 156.286 0.480322 0.706435 -0.519846
116.236 160.344 156.257 0.608389 0.605982 0.512493
115.485 161.103 156.252 0.608389 0.605982 0.512493
115.498 160.448 157.011 0.608389 0.605982 0.512493
114.361 161.464 156.607 -0.584519 0.610057 -0.534947
113.651 161.431 157.345 -0.584519 0.610057 -0.534947
114.399 162.102 157.292 -0.584519 0.610057 -0.534947
115.141 161.409 157.254 0.533218 0.603938 -0.5924
114.361 161.464 156.607 0.533218 0.603938 -0.5924
114.399 162.102 157.292 0.533218 0.603938 -0.5924
112.227 153.496 157.245 -0.550757 -0.625156 0.553034
112.159 154.219 157.995 -0.550757 -0.625156 0.553034
111.385 154.23 157.236 -0.550757 -0.625156 0.553034
112.227 153.496 157.245 0.487858 -0.605888 0.628407
112.974 154.194 157.339 0.487858 -0.605888 0.628407
112.159 154.219 157.995 0.487858 -0.605888 0.628407
111.385 154.23 157.236 -0.567218 -0.609704 0.553647
111.086 155.219 158.019 -0.567218 -0.609704 0.553647
110.347 155.22 157.263 -0.567218 -0.609704 0.553647
111.385 154.23 157.236 -0.557802 -0.612208 0.56041
112.159 154.219 157.995 -0.557802 -0.612208 0.56041
111.086 155.219 158.019 -0.557802 -0.612208 0.56041
111.086 155.219 158.019 -0.133793 -0.166863 0.97686
112.159 154.219 157.995 -0.133793 -0.166863 0.97686
112.204 155.261 158.179 -0.133793 -0.166863 0.97686
112.974 154.194 157.339 0.616101 -0.162239 0.770777
112.204 155.261 158.179 0.616101 -0.162239 0.770777
112.159 154.219 157.995 0.616101 -0.162239 0.770777
112.974 154.194 157.339 -0.522706 -0.727442 0.444529
113.309 154.533 158.286 -0.522706 -0.727442 0.444529
112.204 155.261 158.179 -0.522706 -0.727442 0.444529
112.974 154.194 157.339 0.575788 -0.812985 0.0867448
113.334 154.437 157.229 0.575788 -0.812985 0.0867448
113.309 154.533 158.286 0.575788 -0.812985 0.0867448
113.309 154.533 158.286 0.680137 -0.728528 0.0816086
113.334 154.437 157.229 0.680137 -0.728528 0.0816086
114.175 155.232 157.314 0.680137 -0.728528 0.0816086
114.08 155.235 158.366 0.668769 -0.740827 0.0626386
113.309 154.533 158.286 0.668769 -0.740827 0.0626386
114.175 155.232 157.314 0.668769 -0.740827 0.0626386
110.024 155.537 157.318 -0.612809 -0.544177 0.573006
110.021 156.259 158.0 -0.612809 -0.544177 0.573006
109.3 156.296 157.265 -0.612809 -0.544177 0.573006
110.024 155.537 157.318 -0.545138 -0.647942 0.531973
110.347 155.22 157.263 -0.545138 -0.647942 0.531973
111.086 155.219 158.019 -0.545138 -0.647942 0.531973
110.024 155.537 157.318 -0.565046 -0.567956 0.598456
111.086 155.219 158.019 -0.565046 -0.567956 0.598456
110.021 156.259 158.0 -0.565046 -0.567956 0.598456
110.021 156.259 158.0 -0.111973 -0.0969265 0.988973
111.086 155.219 158.019 -0.111973 -0.0969265 0.988973
111.058 156.257 158.117 -0.111973 -0.0969265 0.988973
111.407 156.226 158.363 -0.512822 -0.549185 0.659855
111.058 156.257 158.117 -0.512822 -0.549185 0.659855
112.204 155.261 158.179 -0.512822 -0.549185 0.659855
111.058 156.257 158.117 -0.137711 -0.0973209 0.98568
111.086 155.219 158.019 -0.137711 -0.0973209 0.98568
112.204 155.261 158.179 -0.137711 -0.0973209 0.98568
114.175 155.232 157.314 0.676122 -0.734067 0.0632882
114.373 155.507 158.387 0.676122 -0.734067 0.0632882
114.08 155.235 158.366 0.676122 -0.734067 0.0632882
114.373 155.507 158.387 0.660179 -0.747862 0.0697544
114.175 155.232 157.314 0.660179 -0.747862 0.0697544
115.257 156.267 158.166 0.660179 -0.747862 0.0697544
110.021 156.259 158.0 -0.689418 -0.00347032 0.724355
110.027 157.282 158.011 -0.689418 -0.00347032 0.724355
109.297 157.243 157.317 -0.689418 -0.00347032 0.724355
109.3 156.296 157.265 -0.714776 -0.0402686 0.698194
110.021 156.259 158.0 -0.714776 -0.0402686 0.698194
109.297 157.243 157.317 -0.714776 -0.0402686 0.698194
110.298 157.299 158.319 -0.614338 -0.556062 0.559807
111.058 156.257 158.117 -0.614338 -0.556062 0.559807
111.092 156.524 158.42 -0.614338 -0.556062 0.559807
110.298 157.299 158.319 -0.609292 -0.553862 0.56745
110.027 157.282 158.011 -0.609292 -0.553862 0.56745
111.058 156.257 158.117 -0.609292 -0.553862 0.56745
110.027 157.282 158.011 -0.112338 -0.0100988 0.993619
110.021 156.259 158.0 -0.112338 -0.0100988 0.993619
111.058 156.257 158.117 -0.112338 -0.0100988 0.993619
111.407 156.226 158.363 -0.48404 -0.62863 0.608711
111.092 156.524 158.42 -0.48404 -0.62863 0.608711
111.058 156.257 158.117 -0.48404 -0.62863 0.608711
115.476 156.561 158.377 0.743722 -0.653645 0.140093
115.257 156.267 158.166 0.743722 -0.653645 0.140093
116.304 157.277 157.323 0.743722 -0.653645 0.140093
116.241 157.333 158.288 0.712477 -0.696334 0.0865722
115.476 156.561 158.377 0.712477 -0.696334 0.0865722
116.304 157.277 157.323 0.712477 -0.696334 0.0865722
109.297 157.243 157.317 -0.565174 0.60606 0.559705
110.027 157.282 158.011 -0.565174 0.60606 0.559705
110.05 158.018 157.237 -0.565174 0.60606 0.559705
110.027 157.282 158.011 -0.780581 0.464216 0.418566
110.279 158.325 157.325 -0.780581 0.464216 0.418566
110.05 158.018 157.237 -0.780581 0.464216 0.418566
110.027 157.282 158.011 -0.65523 0.519432 0.54851
110.298 157.299 158.319 -0.65523 0.519432 0.54851
110.279 158.325 157.325 -0.65523 0.519432 0.54851
110.298 157.299 158.319 -0.999761 0.00252123 0.0217153
110.301 158.327 158.354 -0.999761 0.00252123 0.0217153
110.279 158.325 157.325 -0.999761 0.00252123 0.0217153
115.582 158.304 158.093 0.613161 0.482223 0.625695
115.228 158.381 158.381 0.613161 0.482223 0.625695
115.525 158.035 158.357 0.613161 0.482223 0.625695
116.57 157.637 157.313 0.122141 -0.671876 0.730523
116.548 158.371 157.992 0.122141 -0.671876 0.730523
115.582 158.304 158.093 0.122141 -0.671876 0.730523
116.57 157.637 157.313 0.711204 0.565912 0.417052
115.582 158.304 158.093 0.711204 0.565912 0.417052
116.241 157.333 158.288 0.711204 0.565912 0.417052
116.57 157.637 157.313 0.802021 -0.591012 0.086417
116.241 157.333 158.288 0.802021 -0.591012 0.086417
116.304 157.277 157.323 0.802021 -0.591012 0.086417
115.525 158.035 158.357 0.564918 0.512836 0.646425
116.241 157.333 158.288 0.564918 0.512836 0.646425
115.582 158.304 158.093 0.564918 0.512836 0.646425
116.57 157.637 157.313 0.563357 -0.551748 0.614982
117.276 158.336 157.294 0.563357 -0.551748 0.614982
116.548 158.371 157.992 0.563357 -0.551748 0.614982
110.279 158.325 157.325 -0.998068 0.0582698 0.0215718
110.301 158.327 158.354 -0.998068 0.0582698 0.0215718
110.34 159.356 157.364 -0.998068 0.0582698 0.0215718
110.301 158.327 158.354 -0.998732 0.0489293 0.0118438
110.35 159.328 158.353 -0.998732 0.0489293 0.0118438
110.34 159.356 157.364 -0.998732 0.0489293 0.0118438
115.522 159.365 158.026 0.639849 0.0840067 0.763895
115.228 158.381 158.381 0.639849 0.0840067 0.763895
115.582 158.304 158.093 0.639849 0.0840067 0.763895
115.159 159.404 158.343 0.660781 0.0717182 0.747145
115.228 158.381 158.381 0.660781 0.0717182 0.747145
115.522 159.365 158.026 0.660781 0.0717182 0.747145
116.576 159.053 157.319 0.548506 0.643692 0.533669
116.287 159.385 157.216 0.548506 0.643692 0.533669
115.522 159.365 158.026 0.548506 0.643692 0.533669
116.576 159.053 157.319 0.568214 0.566197 0.597121
115.522 159.365 158.026 0.568214 0.566197 0.597121
116.548 158.371 157.992 0.568214 0.566197 0.597121
116.548 158.371 157.992 0.0984128 0.0676915 0.992841
115.522 159.365 158.026 0.0984128 0.0676915 0.992841
115.582 158.304 158.093 0.0984128 0.0676915 0.992841
117.276 158.336 157.294 0.589568 0.555089 0.586759
116.576 159.053 157.319 0.589568 0.555089 0.586759
116.548 158.371 157.992 0.589568 0.555089 0.586759
110.34 159.356 157.364 -0.717548 0.695983 0.0270644
110.35 159.328 158.353 -0.717548 0.695983 0.0270644
111.083 160.086 158.286 -0.717548 0.695983 0.0270644
111.172 160.106 157.273 -0.67173 0.739475 -0.0442305
110.34 159.356 157.364 -0.67173 0.739475 -0.0442305
111.083 160.086 158.286 -0.67173 0.739475 -0.0442305
112.243 160.255 157.353 -0.144364 0.984538 0.0992152
111.172 160.106 157.273 -0.144364 0.984538 0.0992152
112.111 160.138 158.317 -0.144364 0.984538 0.0992152
111.172 160.106 157.273 -0.0515773 0.998551 0.0153227
111.083 160.086 158.286 -0.0515773 0.998551 0.0153227
112.111 160.138 158.317 -0.0515773 0.998551 0.0153227
112.496 160.388 158.351 -0.54664 0.836954 0.0263163
112.243 160.255 157.353 -0.54664 0.836954 0.0263163
112.111 160.138 158.317 -0.54664 0.836954 0.0263163
114.413 160.427 158.071 0.540496 0.585914 0.603796
114.085 160.437 158.355 0.540496 0.585914 0.603796
114.379 160.141 158.38 0.540496 0.585914 0.603796
115.159 159.404 158.343 0.566964 0.571458 0.593286
114.413 160.427 158.071 0.566964 0.571458 0.593286
114.379 160.141 158.38 0.566964 0.571458 0.593286
115.522 159.365 158.026 0.573489 0.573905 0.584588
114.413 160.427 158.071 0.573489 0.573905 0.584588
115.159 159.404 158.343 0.573489 0.573905 0.584588
115.522 159.365 158.026 0.553774 0.551675 0.62369
115.211 160.439 157.352 0.553774 0.551675 0.62369
114.413 160.427 158.071 0.553774 0.551675 0.62369
115.522 159.365 158.026 0.623473 0.537058 0.568199
115.525 160.116 157.314 0.623473 0.537058 0.568199
115.211 160.439 157.352 0.623473 0.537058 0.568199
116.287 159.385 157.216 0.600911 0.549125 0.580834
115.525 160.116 157.314 0.600911 0.549125 0.580834
115.522 159.365 158.026 0.600911 0.549125 0.580834
112.243 160.255 157.353 -0.656052 0.751874 0.0654222
112.496 160.388 158.351 -0.656052 0.751874 0.0654222
113.309 161.106 158.266 -0.656052 0.751874 0.0654222
113.31 161.177 157.22 -0.649219 0.758896 0.0509068
112.243 160.255 157.353 -0.649219 0.758896 0.0509068
113.309 161.106 158.266 -0.649219 0.758896 0.0509068
113.651 161.431 157.345 -0.620304 0.0929287 0.778837
114.413 160.427 158.071 -0.620304 0.0929287 0.778837
114.43 161.407 157.968 -0.620304 0.0929287 0.778837
113.651 161.431 157.345 0.523883 0.723256 0.44994
113.309 161.106 158.266 0.523883 0.723256 0.44994
114.413 160.427 158.071 0.523883 0.723256 0.44994
113.651 161.431 157.345 -0.609144 0.791276 0.0531486
113.31 161.177 157.22 -0.609144 0.791276 0.0531486
113.309 161.106 158.266 -0.609144 0.791276 0.0531486
113.309 161.106 158.266 0.503589 0.65894 0.558745
114.085 160.437 158.355 0.503589 0.65894 0.558745
114.413 160.427 158.071 0.503589 0.65894 0.558745
115.211 160.439 157.352 0.703263 0.121963 0.70039
115.141 161.409 157.254 0.703263 0.121963 0.70039
114.43 161.407 157.968 0.703263 0.121963 0.70039
114.413 160.427 158.071 0.667137 0.0664228 0.741967
115.211 160.439 157.352 0.667137 0.0664228 0.741967
114.43 161.407 157.968 0.667137 0.0664228 0.741967
113.651 161.431 157.345 -0.490198 0.596867 0.635182
114.43 161.407 157.968 -0.490198 0.596867 0.635182
114.399 162.102 157.292 -0.490198 0.596867 0.635182
115.141 161.409 157.254 0.574752 0.583725 0.57352
114.399 162.102 157.292 0.574752 0.583725 0.57352
114.43 161.407 157.968 0.574752 0.583725 0.57352
113.309 154.533 158.286 -0.470982 -0.622459 0.625077
113.299 156.245 159.984 -0.470982 -0.622459 0.625077
112.204 155.261 158.179 -0.470982 -0.622459 0.625077
113.309 154.533 158.286 0.493013 -0.611142 0.619228
114.08 155.235 158.366 0.493013 -0.611142 0.619228
113.299 156.245 159.984 0.493013 -0.611142 0.619228
112.204 155.261 158.179 -0.56875 -0.580644 0.582559
112.158 156.459 159.328 -0.56875 -0.580644 0.582559
111.407 156.226 158.363 -0.56875 -0.580644 0.582559
112.204 155.261 158.179 -0.513119 -0.604351 0.609483
112.476 156.202 159.341 -0.513119 -0.604351 0.609483
112.158 156.459 159.328 -0.513119 -0.604351 0.609483
112.204 155.261 158.179 -0.452974 -0.638063 0.622648
113.299 156.245 159.984 -0.452974 -0.638063 0.622648
112.476 156.202 159.341 -0.452974 -0.638063 0.622648
114.373 155.507 158.387 0.475647 -0.632108 0.611719
114.426 156.275 159.139 0.475647 -0.632108 0.611719
113.299 156.245 159.984 0.475647 -0.632108 0.611719
114.373 155.507 158.387 0.510271 -0.597202 0.618848
113.299 156.245 159.984 0.510271 -0.597202 0.618848
114.08 155.235 158.366 0.510271 -0.597202 0.618848
114.373 155.507 158.387 0.622778 -0.569122 0.536887
115.257 156.267 158.166 0.622778 -0.569122 0.536887
114.426 156.275 159.139 0.622778 -0.569122 0.536887
111.092 156.524 158.42 -0.676276 -0.731878 0.0837015
111.151 156.58 159.391 -0.676276 -0.731878 0.0837015
110.361 157.301 159.304 -0.676276 -0.731878 0.0837015
110.298 157.299 158.319 -0.700887 -0.711807 0.0456931
111.092 156.524 158.42 -0.700887 -0.711807 0.0456931
110.361 157.301 159.304 -0.700887 -0.711807 0.0456931
112.158 156.459 159.328 -0.514733 -0.651248 0.557608
111.092 156.524 158.42 -0.514733 -0.651248 0.557608
111.407 156.226 158.363 -0.514733 -0.651248 0.557608
112.158 156.459 159.328 -0.115293 -0.991221 0.0647126
111.151 156.58 159.391 -0.115293 -0.991221 0.0647126
111.092 156.524 158.42 -0.115293 -0.991221 0.0647126
115.449 157.329 159.055 0.597858 -0.520961 0.609233
115.117 157.331 159.383 0.597858 -0.520961 0.609233
114.506 156.587 159.346 0.597858 -0.520961 0.609233
115.476 156.561 158.377 0.59713 -0.519155 0.611485
115.449 157.329 159.055 0.59713 -0.519155 0.611485
114.506 156.587 159.346 0.59713 -0.519155 0.611485
115.476 156.561 158.377 0.583831 -0.548126 0.598916
114.506 156.587 159.346 0.583831 -0.548126 0.598916
114.426 156.275 159.139 0.583831 -0.548126 0.598916
115.476 156.561 158.377 0.5262 -0.717969 0.455668
114.426 156.275 159.139 0.5262 -0.717969 0.455668
115.257 156.267 158.166 0.5262 -0.717969 0.455668
115.476 156.561 158.377 0.595965 -0.519752 0.612114
116.241 157.333 158.288 0.595965 -0.519752 0.612114
115.449 157.329 159.055 0.595965 -0.519752 0.612114
111.082 158.052 159.354 -0.589791 0.533259 0.60645
111.144 158.402 159.107 -0.589791 0.533259 0.60645
110.301 158.327 158.354 -0.589791 0.533259 0.60645
111.082 158.052 159.354 -0.592985 0.528381 0.607604
110.301 158.327 158.354 -0.592985 0.528381 0.607604
110.361 157.301 159.304 -0.592985 0.528381 0.607604
110.361 157.301 159.304 -0.99798 0.00107974 0.0635216
110.301 158.327 158.354 -0.99798 0.00107974 0.0635216
110.298 157.299 158.319 -0.99798 0.00107974 0.0635216
111.144 158.402 159.107 -0.054782 0.576167 0.815494
112.11 158.07 159.407 -0.054782 0.576167 0.815494
112.241 158.412 159.174 -0.054782 0.576167 0.815494
111.082 158.052 159.354 -0.0511803 0.582674 0.811093
112.11 158.07 159.407 -0.0511803 0.582674 0.811093
111.144 158.402 159.107 -0.0511803 0.582674 0.811093
112.11 158.07 159.407 -0.418549 0.614783 0.668474
112.494 158.313 159.423 -0.418549 0.614783 0.668474
112.241 158.412 159.174 -0.418549 0.614783 0.668474
115.117 157.331 159.383 0.558061 0.543992 0.626611
114.386 158.344 159.155 0.558061 0.543992 0.626611
114.384 158.026 159.432 0.558061 0.543992 0.626611
115.449 157.329 159.055 0.585637 0.555674 0.590131
114.386 158.344 159.155 0.585637 0.555674 0.590131
115.117 157.331 159.383 0.585637 0.555674 0.590131
115.449 157.329 159.055 0.562455 0.526761 0.637313
115.228 158.381 158.381 0.562455 0.526761 0.637313
114.386 158.344 159.155 0.562455 0.526761 0.637313
115.449 157.329 159.055 0.637561 0.506241 0.58072
115.525 158.035 158.357 0.637561 0.506241 0.58072
115.228 158.381 158.381 0.637561 0.506241 0.58072
116.241 157.333 158.288 0.585416 0.53764 0.606821
115.525 158.035 158.357 0.585416 0.53764 0.606821
115.449 157.329 159.055 0.585416 0.53764 0.606821
111.144 158.402 159.107 -0.656164 0.0512604 0.752875
111.15 159.394 159.045 -0.656164 0.0512604 0.752875
110.35 159.328 158.353 -0.656164 0.0512604 0.752875
110.301 158.327 158.354 -0.667674 0.0339101 0.743681
111.144 158.402 159.107 -0.667674 0.0339101 0.743681
110.35 159.328 158.353 -0.667674 0.0339101 0.743681
112.241 158.412 159.174 -0.0612611 0.0771021 0.995139
112.208 159.396 159.095 -0.0612611 0.0771021 0.995139
111.144 158.402 159.107 -0.0612611 0.0771021 0.995139
112.208 159.396 159.095 -0.0474987 0.0623791 0.996922
111.15 159.394 159.045 -0.0474987 0.0623791 0.996922
111.144 158.402 159.107 -0.0474987 0.0623791 0.996922
113.271 159.019 159.379 -0.464293 0.554227 0.690844
112.241 158.412 159.174 -0.464293 0.554227 0.690844
112.494 158.313 159.423 -0.464293 0.554227 0.690844
113.271 159.019 159.379 -0.462747 0.550157 0.695121
113.3 159.335 159.148 -0.462747 0.550157 0.695121
112.241 158.412 159.174 -0.462747 0.550157 0.695121
113.3 159.335 159.148 -0.0440413 0.0777398 0.996
112.208 159.396 159.095 -0.0440413 0.0777398 0.996
112.241 158.412 159.174 -0.0440413 0.0777398 0.996
114.386 158.344 159.155 0.451265 0.498911 0.739897
113.3 159.335 159.148 0.451265 0.498911 0.739897
113.271 159.019 159.379 0.451265 0.498911 0.739897
114.386 158.344 159.155 0.0787423 0.0927447 0.992571
114.383 159.367 159.06 0.0787423 0.0927447 0.992571
113.3 159.335 159.148 0.0787423 0.0927447 0.992571
115.228 158.381 158.381 0.674268 0.0721773 0.734951
115.159 159.404 158.343 0.674268 0.0721773 0.734951
114.383 159.367 159.06 0.674268 0.0721773 0.734951
114.386 158.344 159.155 0.673247 0.0705494 0.736044
115.228 158.381 158.381 0.673247 0.0705494 0.736044
114.383 159.367 159.06 0.673247 0.0705494 0.736044
110.35 159.328 158.353 -0.556203 0.589039 0.586234
111.15 159.394 159.045 -0.556203 0.589039 0.586234
111.083 160.086 158.286 -0.556203 0.589039 0.586234
112.111 160.138 158.317 -0.0578475 0.735252 0.675321
111.083 160.086 158.286 -0.0578475 0.735252 0.675321
111.15 159.394 159.045 -0.0578475 0.735252 0.675321
112.208 159.396 159.095 -0.0343451 0.721156 0.69192
112.111 160.138 158.317 -0.0343451 0.721156 0.69192
111.15 159.394 159.045 -0.0343451 0.721156 0.69192
112.496 160.388 158.351 -0.456527 0.614704 0.643212
112.111 160.138 158.317 -0.456527 0.614704 0.643212
112.208 159.396 159.095 -0.456527 0.614704 0.643212
112.496 160.388 158.351 -0.48849 0.609707 0.624207
112.208 159.396 159.095 -0.48849 0.609707 0.624207
113.328 160.347 159.043 -0.48849 0.609707 0.624207
113.328 160.347 159.043 -0.0423941 0.10507 0.993561
112.208 159.396 159.095 -0.0423941 0.10507 0.993561
113.3 159.335 159.148 -0.0423941 0.10507 0.993561
114.379 160.141 158.38 0.516604 0.565401 0.642995
114.085 160.437 158.355 0.516604 0.565401 0.642995
113.328 160.347 159.043 0.516604 0.565401 0.642995
114.379 160.141 158.38 0.516331 0.566548 0.642204
113.328 160.347 159.043 0.516331 0.566548 0.642204
114.383 159.367 159.06 0.516331 0.566548 0.642204
114.383 159.367 159.06 0.0784138 0.101571 0.991733
113.328 160.347 159.043 0.0784138 0.101571 0.991733
113.3 159.335 159.148 0.0784138 0.101571 0.991733
115.159 159.404 158.343 0.550514 0.552412 0.625919
114.379 160.141 158.38 0.550514 0.552412 0.625919
114.383 159.367 159.06 0.550514 0.552412 0.625919
112.496 160.388 158.351 -0.482734 0.620589 0.61793
113.328 160.347 159.043 -0.482734 0.620589 0.61793
113.309 161.106 158.266 -0.482734 0.620589 0.61793
114.085 160.437 158.355 0.47685 0.634538 0.608257
113.309 161.106 158.266 0.47685 0.634538 0.608257
113.328 160.347 159.043 0.47685 0.634538 0.608257
111.151 156.58 159.391 -0.568265 -0.549486 0.612487
111.151 157.322 160.056 -0.568265 -0.549486 0.612487
110.361 157.301 159.304 -0.568265 -0.549486 0.612487
111.151 156.58 159.391 -0.0343939 -0.670629 0.740995
112.158 156.459 159.328 -0.0343939 -0.670629 0.740995
112.207 157.297 160.089 -0.0343939 -0.670629 0.740995
111.151 157.322 160.056 -0.0390048 -0.666892 0.744132
111.151 156.58 159.391 -0.0390048 -0.666892 0.744132
112.207 157.297 160.089 -0.0390048 -0.666892 0.744132
112.158 156.459 159.328 -0.487233 -0.569612 0.661926
112.476 156.202 159.341 -0.487233 -0.569612 0.661926
113.299 156.245 159.984 -0.487233 -0.569612 0.661926
112.158 156.459 159.328 -0.486886 -0.571216 0.660798
113.299 156.245 159.984 -0.486886 -0.571216 0.660798
112.207 157.297 160.089 -0.486886 -0.571216 0.660798
114.426 156.275 159.139 0.52117 -0.561237 0.642958
114.506 156.587 159.346 0.52117 -0.561237 0.642958
114.359 157.26 160.053 0.52117 -0.561237 0.642958
114.426 156.275 159.139 0.502909 -0.569336 0.650338
114.359 157.26 160.053 0.502909 -0.569336 0.650338
113.299 156.245 159.984 0.502909 -0.569336 0.650338
114.506 156.587 159.346 0.593332 -0.517612 0.616469
115.117 157.331 159.383 0.593332 -0.517612 0.616469
114.359 157.26 160.053 0.593332 -0.517612 0.616469
110.361 157.301 159.304 -0.592656 0.528023 0.608235
111.151 157.322 160.056 -0.592656 0.528023 0.608235
111.082 158.052 159.354 -0.592656 0.528023 0.608235
112.11 158.07 159.407 -0.0485205 0.68936 0.722792
111.082 158.052 159.354 -0.0485205 0.68936 0.722792
111.151 157.322 160.056 -0.0485205 0.68936 0.722792
112.207 157.297 160.089 -0.00845656 0.661488 0.749908
112.11 158.07 159.407 -0.00845656 0.661488 0.749908
111.151 157.322 160.056 -0.00845656 0.661488 0.749908
112.494 158.313 159.423 -0.397663 0.578993 0.71178
112.11 158.07 159.407 -0.397663 0.578993 0.71178
112.207 157.297 160.089 -0.397663 0.578993 0.71178
112.494 158.313 159.423 -0.469512 0.572988 0.671747
112.207 157.297 160.089 -0.469512 0.572988 0.671747
113.335 158.236 160.076 -0.469512 0.572988 0.671747
113.335 158.236 160.076 0.0505503 -0.0470656 0.997612
112.207 157.297 160.089 0.0505503 -0.0470656 0.997612
113.299 156.245 159.984 0.0505503 -0.0470656 0.997612
114.384 158.026 159.432 0.511137 0.563616 0.648904
114.386 158.344 159.155 0.511137 0.563616 0.648904
113.335 158.236 160.076 0.511137 0.563616 0.648904
114.384 158.026 159.432 0.51845 0.528382 0.672326
113.335 158.236 160.076 0.51845 0.528382 0.672326
114.359 157.26 160.053 0.51845 0.528382 0.672326
114.359 157.26 160.053 -0.0212574 -0.0458452 0.998722
113.335 158.236 160.076 -0.0212574 -0.0458452 0.998722
113.299 156.245 159.984 -0.0212574 -0.0458452 0.998722
115.117 157.331 159.383 0.538028 0.520312 0.663175
114.384 158.026 159.432 0.538028 0.520312 0.663175
114.359 157.26 160.053 0.538028 0.520312 0.663175
112.494 158.313 159.423 -0.473904 0.56391 0.676329
113.335 158.236 160.076 -0.473904 0.56391 0.676329
113.271 159.019 159.379 -0.473904 0.56391 0.676329
114.386 158.344 159.155 0.49118 0.601005 0.630503
113.271 159.019 159.379 0.49118 0.601005 0.630503
113.335 158.236 160.076 0.49118 0.601005 0.630503
3 0 1 2
3 3 4 5
3 6 7 8
3 9 10 11
3 12 13 14
3 15 16 17
3 18 19 20
3 21 22 23
3 24 25 26
3 27 28 29
3 30 31 32
3 33 34 35
3 36 37 38
3 39 40 41
3 42 43 44
3 45 46 47
3 48 49 50
3 51 52 53
3 54 55 56
3 57 58 59
3 60 61 62
3 63 64 65
3 66 67 68
3 69 70 71
3 72 73 74
3 75 76 77
3 78 79 80
3 81 82 83
3 84 85 86
3 87 88 89
3 90 91 92
3 93 94 95
3 96 97 98
3 99 100 101
3 102 103 104
3 105 106 107
3 108 109 110
3 111 112 113
3 114 115 116
3 117 118 119
3 120 121 122
3 123 124 125
3 126 127 128
3 129 130 131
3 132 133 134
3 135 136 137
3 138 139 140
3 141 142 143
3 144 145 146
3 147 148 149
3 150 151 152
3 153 154 155
3 156 157 158
3 159 160 161
3 162 163 164
3 165 166 167
3 168 169 170
3 171 172 173
3 174 175 176
3 177 178 179
3 180 181 182
3 183 184 185
3 186 187 188
3 189 190 191
3 192 193 194
3 195 196 197
3 198 199 200
3 201 202 203
3 204 205 206
3 207 208 209
3 210 211 212
3 213 214 215
3 216 217 218
3 219 220 221
3 222 223 224
3 225 226 227
3 228 229 230
3 231 232 233
3 234 235 236
3 237 238 239
3 240 241 242
3 243 244 245
3 246 247 248
3 249 250 251
3 252 253 254
3 255 256 257
3 258 259 260
3 261 262 263
3 264 265 266
3 267 268 269
3 270 271 272
3 273 274 275
3 276 277 278
3 279 280 281
3 282 283 284
3 285 286 287
3 288 289 290
3 291 292 293
3 294 295 296
3 297 298 299
3 300 301 302
3 303 304 305
3 306 307 308
3 309 310 311
3 312 313 314
3 315 316 317
3 318 319 320
3 321 322 323
3 324 325 326
3 327 328 329
3 330 331 332
3 333 334 335
3 336 337 338
3 339 340 341
3 342 343 344
3 345 346 347
3 348 349 350
3 351 352 353
3 354 355 356
3 357 358 359
3 360 361 362
3 363 364 365
3 366 367 368
3 369 370 371
3 372 373 374
3 375 376 377
3 378 379 380
3 381 382 383
3 384 385 386
3 387 388 389
3 390 391 392
3 393 394 395
3 396 397 398
3 399 400 401
3 402 403 404
3 405 406 407
3 408 409 410
3 411 412 413
3 414 415 416
3 417 418 419
3 420 421 422
3 423 424 425
3 426 427 428
3 429 430 431
3 432 433 434
3 435 436 437
3 438 439 440
3 441 442 443
3 444 445 446
3 447 448 449
3 450 451 452
3 453 454 455
3 456 457 458
3 459 460 461
3 462 463 464
3 465 466 467
3 468 469 470
3 471 472 473
3 474 475 476
3 477 478 479
3 480 481 482
3 483 484 485
3 486 487 488
3 489 490 491
3 492 493 494
3 495 496 497
3 498 499 500
3 501 502 503
3 504 505 506
3 507 508 509
3 510 511 512
3 513 514 515
3 516 517 518
3 519 520 521
3 522 523 524
3 525 526 527
3 528 529 530
3 531 532 533
3 534 535 536
3 537 538 539
3 540 541 542
3 543 544 545
3 546 547 548
3 549 550 551
3 552 553 554
3 555 556 557
3 558 559 560
3 561 562 563
3 564 565 566
3 567 568 569
3 570 571 572
3 573 574 575
3 576 577 578
3 579 580 581
3 582 583 584
3 585 586 587
3 588 589 590
3 591 592 593
3 594 595 596
3 597 598 599
3 600 601 602
3 603 604 605
3 606 607 608
3 609 610 611
3 612 613 614
3 615 616 617
3 618 619 620
3 621 622 623
3 624 625 626
3 627 628 629
3 630 631 632
3 633 634 635
3 636 637 638
3 639 640 641
3 642 643 644
3 645 646 647
3 648 649 650
3 651 652 653
3 654 655 656
3 657 658 659
3 660 661 662
3 663 664 665
3 666 667 668
3 669 670 671
3 672 673 674
3 675 676 677
3 678 679 680
3 681 682 683
3 684 685 686
3 687 688 689
3 690 691 692
3 693 694 695
3 696 697 698
3 699 700 701
3 702 703 704
3 705 706 707
3 708 709 710
3 711 712 713
3 714 715 716
3 717 718 719
3 720 721 722
3 723 724 725
3 726 727 728
3 729 730 731
3 732 733 734
3 735 736 737
3 738 739 740
3 741 742 743
3 744 745 746
3 747 748 749
3 750 751 752
3 753 754 755
3 756 757 758
3 759 760 761
3 762 763 764
3 765 766 767
3 768 769 770
3 771 772 773
3 774 775 776
3 777 778 779
3 780 781 782
3 783 784 785
3 786 787 788
3 789 790 791
3 792 793 794
3 795 796 797
3 798 799 800
3 801 802 803
3 804 805 806
3 807 808 809
3 810 811 812
3 813 814 815
3 816 817 818
3 819 820 821
3 822 823 824
3 825 826 827
3 828 829 830
3 831 832 833
3 834 835 836
3 837 838 839
3 840 841 842
3 843 844 845
3 846 847 848
3 849 850 851
3 852 853 854
3 855 856 857
3 858 859 860
3 861 862 863
3 864 865 866
3 867 868 869
