ply
format ascii 1.0
element vertex 516
property float x
property float y
property float z
property float nx
property float ny
property float nz
element face 172
property list uint uint vertex_indices
end_header
68.5365 126.018 174.601 -0.457283 -0.693876 -0.556263
68.4085 125.537 175.307 -0.457283 -0.693876 -0.556263
67.7647 126.195 175.015 -0.457283 -0.693876 -0.556263
68.5365 126.018 174.601 0.0975769 -0.602664 -0.792007
69.2934 126.248 174.52 0.0975769 -0.602664 -0.792007
70.0795 125.457 175.218 0.0975769 -0.602664 -0.792007
68.4085 125.537 175.307 -0.0693544 -0.818253 -0.570659
68.5365 126.018 174.601 -0.0693544 -0.818253 -0.570659
70.0795 125.457 175.218 -0.0693544 -0.818253 -0.570659
69.2934 126.248 174.52 -0.0616832 -0.694527 -0.716817
70.3997 126.087 174.581 -0.0616832 -0.694527 -0.716817
70.0795 125.457 175.218 -0.0616832 -0.694527 -0.716817
70.3997 126.087 174.581 0.109778 -0.594242 -0.796759
71.3369 126.163 174.653 0.109778 -0.594242 -0.796759
71.4129 125.535 175.132 0.109778 -0.594242 -0.796759
70.0795 125.457 175.218 -0.00416956 -0.710487 -0.703698
70.3997 126.087 174.581 -0.00416956 -0.710487 -0.703698
71.4129 125.535 175.132 -0.00416956 -0.710487 -0.703698
71.4129 125.535 175.132 0.521083 -0.476788 -0.707917
71.3369 126.163 174.653 0.521083 -0.476788 -0.707917
72.1809 126.165 175.273 0.521083 -0.476788 -0.707917
68.2823 126.82 174.596 -0.495098 -0.162414 -0.853522
68.5365 126.018 174.601 -0.495098 -0.162414 -0.853522
67.7647 126.195 175.015 -0.495098 -0.162414 -0.853522
67.6232 126.896 175.19 -0.665326 0.0513251 -0.744786
68.2823 126.82 174.596 -0.665326 0.0513251 -0.744786
67.7647 126.195 175.015 -0.665326 0.0513251 -0.744786
68.9533 127.013 174.874 0.175101 0.476606 -0.861502
69.63 126.797 174.892 0.175101 0.476606 -0.861502
69.2934 126.248 174.52 0.175101 0.476606 -0.861502
68.9533 127.013 174.874 0.21125 0.486351 -0.847842
69.2934 126.248 174.52 0.21125 0.486351 -0.847842
68.2823 126.82 174.596 0.21125 0.486351 -0.847842
68.2823 126.82 174.596 -0.0960281 -0.0368641 -0.994696
69.2934 126.248 174.52 -0.0960281 -0.0368641 -0.994696
68.5365 126.018 174.601 -0.0960281 -0.0368641 -0.994696
70.3997 126.087 174.581 0.120719 0.505179 -0.85453
69.2934 126.248 174.52 0.120719 0.505179 -0.85453
69.63 126.797 174.892 0.120719 0.505179 -0.85453
70.6448 126.762 174.928 0.0466333 0.442861 -0.895377
70.3997 126.087 174.581 0.0466333 0.442861 -0.895377
69.63 126.797 174.892 0.0466333 0.442861 -0.895377
71.3369 126.163 174.653 0.0317437 0.447428 -0.893756
70.3997 126.087 174.581 0.0317437 0.447428 -0.893756
70.6448 126.762 174.928 0.0317437 0.447428 -0.893756
71.5607 126.745 175.104 0.166642 0.564206 -0.808642
71.3369 126.163 174.653 0.166642 0.564206 -0.808642
70.6448 126.762 174.928 0.166642 0.564206 -0.808642
72.1809 126.165 175.273 0.549873 0.370136 -0.748759
71.3369 126.163 174.653 0.549873 0.370136 -0.748759
71.5607 126.745 175.104 0.549873 0.370136 -0.748759
68.2823 126.82 174.596 -0.579225 0.423058 -0.696793
67.6232 126.896 175.19 -0.579225 0.423058 -0.696793
68.1601 127.548 175.14 -0.579225 0.423058 -0.696793
68.9533 127.013 174.874 0.148422 0.607594 -0.780256
68.2823 126.82 174.596 0.148422 0.607594 -0.780256
68.1601 127.548 175.14 0.148422 0.607594 -0.780256
68.4085 125.537 175.307 -0.66246 -0.721791 -0.200412
68.1951 125.486 176.197 -0.66246 -0.721791 -0.200412
67.5932 126.135 175.849 -0.66246 -0.721791 -0.200412
67.7647 126.195 175.015 -0.658974 -0.728287 -0.18802
68.4085 125.537 175.307 -0.658974 -0.728287 -0.18802
67.5932 126.135 175.849 -0.658974 -0.728287 -0.18802
70.0795 125.457 175.218 -0.0560491 -0.984394 -0.166815
69.3109 125.3 176.405 -0.0560491 -0.984394 -0.166815
68.4085 125.537 175.307 -0.0560491 -0.984394 -0.166815
68.4085 125.537 175.307 -0.147055 -0.984826 -0.092158
69.3109 125.3 176.405 -0.147055 -0.984826 -0.092158
68.1951 125.486 176.197 -0.147055 -0.984826 -0.092158
70.0795 125.457 175.218 0.00294232 -0.991568 -0.129556
70.5083 125.262 176.721 0.00294232 -0.991568 -0.129556
69.3109 125.3 176.405 0.00294232 -0.991568 -0.129556
71.4129 125.535 175.132 0.0420425 -0.972843 -0.227615
71.4569 125.303 176.129 0.0420425 -0.972843 -0.227615
70.0795 125.457 175.218 0.0420425 -0.972843 -0.227615
70.0795 125.457 175.218 -0.0313726 -0.992296 -0.119855
71.4569 125.303 176.129 -0.0313726 -0.992296 -0.119855
70.5083 125.262 176.721 -0.0313726 -0.992296 -0.119855
72.1809 126.165 175.273 0.420351 -0.578812 -0.698772
72.6262 126.071 175.619 0.420351 -0.578812 -0.698772
72.3812 125.546 175.906 0.420351 -0.578812 -0.698772
72.1809 126.165 175.273 0.540848 -0.50955 -0.669211
72.3812 125.546 175.906 0.540848 -0.50955 -0.669211
71.4129 125.535 175.132 0.540848 -0.50955 -0.669211
71.4129 125.535 175.132 0.194951 -0.953493 -0.229882
72.3812 125.546 175.906 0.194951 -0.953493 -0.229882
71.4569 125.303 176.129 0.194951 -0.953493 -0.229882
72.3812 125.546 175.906 0.717027 -0.561106 -0.41356
72.6262 126.071 175.619 0.717027 -0.561106 -0.41356
73.0307 126.097 176.285 0.717027 -0.561106 -0.41356
67.7647 126.195 175.015 -0.967331 -0.142988 -0.209346
67.5932 126.135 175.849 -0.967331 -0.142988 -0.209346
67.6232 126.896 175.19 -0.967331 -0.142988 -0.209346
67.5932 126.135 175.849 -0.979604 -0.107979 -0.169458
67.4425 127.139 176.08 -0.979604 -0.107979 -0.169458
67.6232 126.896 175.19 -0.979604 -0.107979 -0.169458
69.63 126.797 174.892 0.172878 0.469248 -0.865979
68.9533 127.013 174.874 0.172878 0.469248 -0.865979
69.2934 127.401 175.152 0.172878 0.469248 -0.865979
69.63 126.797 174.892 0.0462218 0.419811 -0.906434
70.4049 127.277 175.154 0.0462218 0.419811 -0.906434
70.6448 126.762 174.928 0.0462218 0.419811 -0.906434
69.2934 127.401 175.152 0.0480195 0.417449 -0.907431
70.4049 127.277 175.154 0.0480195 0.417449 -0.907431
69.63 126.797 174.892 0.0480195 0.417449 -0.907431
70.6448 126.762 174.928 0.178269 0.436891 -0.881672
71.4286 127.261 175.333 0.178269 0.436891 -0.881672
71.5607 126.745 175.104 0.178269 0.436891 -0.881672
70.4049 127.277 175.154 0.160369 0.458762 -0.873968
71.4286 127.261 175.333 0.160369 0.458762 -0.873968
70.6448 126.762 174.928 0.160369 0.458762 -0.873968
71.5607 126.745 175.104 0.564314 0.451189 -0.69136
71.4286 127.261 175.333 0.564314 0.451189 -0.69136
72.2538 127.135 175.925 0.564314 0.451189 -0.69136
72.1809 126.165 175.273 0.583525 0.422119 -0.693768
71.5607 126.745 175.104 0.583525 0.422119 -0.693768
72.2538 127.135 175.925 0.583525 0.422119 -0.693768
72.1809 126.165 175.273 0.623765 0.402954 -0.669735
72.2538 127.135 175.925 0.623765 0.402954 -0.669735
72.6693 126.681 176.038 0.623765 0.402954 -0.669735
72.1809 126.165 175.273 0.610008 0.419596 -0.672182
72.6693 126.681 176.038 0.610008 0.419596 -0.672182
72.6262 126.071 175.619 0.610008 0.419596 -0.672182
73.0307 126.097 176.285 0.812874 0.290186 -0.505003
72.6262 126.071 175.619 0.812874 0.290186 -0.505003
72.6693 126.681 176.038 0.812874 0.290186 -0.505003
67.3543 127.971 175.605 -0.671333 -0.555202 -0.490981
67.1644 127.69 176.182 -0.671333 -0.555202 -0.490981
66.8925 128.117 176.071 -0.671333 -0.555202 -0.490981
68.1601 127.548 175.14 -0.227263 0.491953 -0.840437
67.3543 127.971 175.605 -0.227263 0.491953 -0.840437
68.3485 128.119 175.423 -0.227263 0.491953 -0.840437
68.1601 127.548 175.14 -0.61102 -0.440639 -0.657641
67.4425 127.139 176.08 -0.61102 -0.440639 -0.657641
67.3543 127.971 175.605 -0.61102 -0.440639 -0.657641
68.1601 127.548 175.14 -0.745072 0.589494 -0.312034
67.6232 126.896 175.19 -0.745072 0.589494 -0.312034
67.4425 127.139 176.08 -0.745072 0.589494 -0.312034
67.1644 127.69 176.182 -0.832219 -0.338973 -0.438759
67.3543 127.971 175.605 -0.832219 -0.338973 -0.438759
67.4425 127.139 176.08 -0.832219 -0.338973 -0.438759
68.1601 127.548 175.14 0.0785628 0.534438 -0.841549
69.2934 127.401 175.152 0.0785628 0.534438 -0.841549
68.9533 127.013 174.874 0.0785628 0.534438 -0.841549
68.1601 127.548 175.14 0.0651871 0.426165 -0.902294
68.3485 128.119 175.423 0.0651871 0.426165 -0.902294
69.2934 127.401 175.152 0.0651871 0.426165 -0.902294
68.3485 128.119 175.423 -0.0795049 0.258622 -0.962701
69.4079 128.215 175.361 -0.0795049 0.258622 -0.962701
69.2934 127.401 175.152 -0.0795049 0.258622 -0.962701
70.4049 127.277 175.154 0.0162285 0.131396 -0.991197
69.2934 127.401 175.152 0.0162285 0.131396 -0.991197
70.2372 128.029 175.251 0.0162285 0.131396 -0.991197
70.2372 128.029 175.251 -0.0706814 0.257628 -0.963656
69.2934 127.401 175.152 -0.0706814 0.257628 -0.963656
69.4079 128.215 175.361 -0.0706814 0.257628 -0.963656
71.4286 127.261 175.333 0.172815 0.166359 -0.970804
70.4049 127.277 175.154 0.172815 0.166359 -0.970804
71.2074 128.194 175.454 0.172815 0.166359 -0.970804
71.2074 128.194 175.454 0.175251 0.164206 -0.970734
70.4049 127.277 175.154 0.175251 0.164206 -0.970734
70.2372 128.029 175.251 0.175251 0.164206 -0.970734
72.0534 128.087 176.101 0.588036 0.265048 -0.764175
72.2538 127.135 175.925 0.588036 0.265048 -0.764175
71.4286 127.261 175.333 0.588036 0.265048 -0.764175
71.2074 128.194 175.454 0.608476 0.241837 -0.755825
72.0534 128.087 176.101 0.608476 0.241837 -0.755825
71.4286 127.261 175.333 0.608476 0.241837 -0.755825
67.3543 127.971 175.605 -0.419172 0.660099 -0.62335
66.8925 128.117 176.071 -0.419172 0.660099 -0.62335
67.5424 128.542 176.083 -0.419172 0.660099 -0.62335
68.3485 128.119 175.423 -0.229317 0.66825 -0.707712
67.3543 127.971 175.605 -0.229317 0.66825 -0.707712
67.5424 128.542 176.083 -0.229317 0.66825 -0.707712
69.0767 128.791 176.061 -0.131702 0.754058 -0.643469
68.3485 128.119 175.423 -0.131702 0.754058 -0.643469
67.5424 128.542 176.083 -0.131702 0.754058 -0.643469
69.4079 128.215 175.361 -0.105918 0.742824 -0.661055
68.3485 128.119 175.423 -0.105918 0.742824 -0.661055
69.0767 128.791 176.061 -0.105918 0.742824 -0.661055
69.0767 128.791 176.061 -0.291464 0.80404 -0.518235
69.7801 129.211 176.317 -0.291464 0.80404 -0.518235
70.281 128.905 175.56 -0.291464 0.80404 -0.518235
69.0767 128.791 176.061 -0.346542 0.63741 -0.688198
70.281 128.905 175.56 -0.346542 0.63741 -0.688198
69.4079 128.215 175.361 -0.346542 0.63741 -0.688198
69.4079 128.215 175.361 -0.0502945 0.334917 -0.940905
70.281 128.905 175.56 -0.0502945 0.334917 -0.940905
70.2372 128.029 175.251 -0.0502945 0.334917 -0.940905
71.037 129.036 175.871 0.601071 0.449341 -0.660913
71.4614 128.947 176.197 0.601071 0.449341 -0.660913
71.2074 128.194 175.454 0.601071 0.449341 -0.660913
71.037 129.036 175.871 0.264488 0.470817 -0.841652
71.2074 128.194 175.454 0.264488 0.470817 -0.841652
70.281 128.905 175.56 0.264488 0.470817 -0.841652
70.281 128.905 175.56 0.140802 0.323527 -0.935684
71.2074 128.194 175.454 0.140802 0.323527 -0.935684
70.2372 128.029 175.251 0.140802 0.323527 -0.935684
72.0534 128.087 176.101 0.572997 0.4695 -0.671747
71.2074 128.194 175.454 0.572997 0.4695 -0.671747
71.4614 128.947 176.197 0.572997 0.4695 -0.671747
70.281 128.905 175.56 -0.363102 0.755118 -0.545851
69.7801 129.211 176.317 -0.363102 0.755118 -0.545851
70.6041 129.528 176.207 -0.363102 0.755118 -0.545851
71.037 129.036 175.871 0.184765 0.660192 -0.728017
70.281 128.905 175.56 0.184765 0.660192 -0.728017
70.6041 129.528 176.207 0.184765 0.660192 -0.728017
68.1951 125.486 176.197 -0.665065 -0.725577 0.17671
68.3927 125.537 177.15 -0.665065 -0.725577 0.17671
67.6511 126.138 176.829 -0.665065 -0.725577 0.17671
67.5932 126.135 175.849 -0.744711 -0.66577 0.046437
68.1951 125.486 176.197 -0.744711 -0.66577 0.046437
67.6511 126.138 176.829 -0.744711 -0.66577 0.046437
68.1951 125.486 176.197 -0.180095 -0.979549 0.0897147
69.3109 125.3 176.405 -0.180095 -0.979549 0.0897147
68.3927 125.537 177.15 -0.180095 -0.979549 0.0897147
71.4569 125.303 176.129 0.106933 -0.989004 0.102163
71.4716 125.415 177.191 0.106933 -0.989004 0.102163
70.5083 125.262 176.721 0.106933 -0.989004 0.102163
72.3812 125.546 175.906 0.246678 -0.968564 -0.0321575
72.4588 125.534 176.858 0.246678 -0.968564 -0.0321575
71.4569 125.303 176.129 0.246678 -0.968564 -0.0321575
71.4569 125.303 176.129 0.153249 -0.983023 0.100896
72.4588 125.534 176.858 0.153249 -0.983023 0.100896
71.4716 125.415 177.191 0.153249 -0.983023 0.100896
72.4588 125.534 176.858 0.666813 -0.742508 -0.0635799
72.3812 125.546 175.906 0.666813 -0.742508 -0.0635799
73.0307 126.097 176.285 0.666813 -0.742508 -0.0635799
73.0758 126.217 177.23 0.726645 -0.685 0.0525616
72.4588 125.534 176.858 0.726645 -0.685 0.0525616
73.0307 126.097 176.285 0.726645 -0.685 0.0525616
67.5932 126.135 175.849 -0.985144 -0.161352 0.0587865
67.6511 126.138 176.829 -0.985144 -0.161352 0.0587865
67.4425 127.139 176.08 -0.985144 -0.161352 0.0587865
67.6511 126.138 176.829 -0.983882 -0.0889928 0.155103
67.6249 126.955 177.132 -0.983882 -0.0889928 0.155103
67.4425 127.139 176.08 -0.983882 -0.0889928 0.155103
72.6693 126.681 176.038 0.684413 0.491338 -0.538671
72.2538 127.135 175.925 0.684413 0.491338 -0.538671
72.6355 127.233 176.499 0.684413 0.491338 -0.538671
72.6693 126.681 176.038 0.738802 0.457833 -0.494531
72.6355 127.233 176.499 0.738802 0.457833 -0.494531
73.1162 126.92 176.928 0.738802 0.457833 -0.494531
72.6693 126.681 176.038 0.817927 0.298992 -0.491527
73.1162 126.92 176.928 0.817927 0.298992 -0.491527
73.0307 126.097 176.285 0.817927 0.298992 -0.491527
73.0307 126.097 176.285 0.996551 -0.0736566 -0.0382276
73.1162 126.92 176.928 0.996551 -0.0736566 -0.0382276
73.0758 126.217 177.23 0.996551 -0.0736566 -0.0382276
67.1644 127.69 176.182 -0.741217 -0.317744 0.5913
67.279 128.182 176.59 -0.741217 -0.317744 0.5913
66.8925 128.117 176.071 -0.741217 -0.317744 0.5913
67.1644 127.69 176.182 -0.855285 -0.197938 0.478861
67.5958 127.851 177.019 -0.855285 -0.197938 0.478861
67.279 128.182 176.59 -0.855285 -0.197938 0.478861
67.1644 127.69 176.182 -0.747441 -0.464701 0.474748
67.4425 127.139 176.08 -0.747441 -0.464701 0.474748
67.5958 127.851 177.019 -0.747441 -0.464701 0.474748
67.4425 127.139 176.08 -0.985548 -0.0107052 0.169059
67.6249 126.955 177.132 -0.985548 -0.0107052 0.169059
67.5958 127.851 177.019 -0.985548 -0.0107052 0.169059
72.6355 127.233 176.499 0.847507 0.446755 -0.286605
72.3857 127.961 176.895 0.847507 0.446755 -0.286605
72.6737 127.661 177.28 0.847507 0.446755 -0.286605
72.6355 127.233 176.499 0.668294 0.519232 -0.532712
72.2538 127.135 175.925 0.668294 0.519232 -0.532712
72.3857 127.961 176.895 0.668294 0.519232 -0.532712
72.2538 127.135 175.925 0.906151 0.253286 -0.338728
72.0534 128.087 176.101 0.906151 0.253286 -0.338728
72.3857 127.961 176.895 0.906151 0.253286 -0.338728
73.1162 126.92 176.928 0.71356 0.598901 -0.363525
72.6355 127.233 176.499 0.71356 0.598901 -0.363525
72.6737 127.661 177.28 0.71356 0.598901 -0.363525
66.8925 128.117 176.071 -0.526999 0.797835 0.292798
67.279 128.182 176.59 -0.526999 0.797835 0.292798
67.5424 128.542 176.083 -0.526999 0.797835 0.292798
67.279 128.182 176.59 -0.522313 0.44451 0.727736
67.5958 127.851 177.019 -0.522313 0.44451 0.727736
68.2554 128.652 177.004 -0.522313 0.44451 0.727736
67.279 128.182 176.59 -0.514489 0.802361 0.302518
68.2554 128.652 177.004 -0.514489 0.802361 0.302518
67.5424 128.542 176.083 -0.514489 0.802361 0.302518
67.5424 128.542 176.083 -0.160266 0.987056 0.00595415
68.2554 128.652 177.004 -0.160266 0.987056 0.00595415
69.0767 128.791 176.061 -0.160266 0.987056 0.00595415
69.0767 128.791 176.061 -0.248339 0.965846 -0.07395
68.2554 128.652 177.004 -0.248339 0.965846 -0.07395
69.3431 128.938 177.083 -0.248339 0.965846 -0.07395
69.3431 128.938 177.083 -0.515341 0.85691 0.0113557
69.7801 129.211 176.317 -0.515341 0.85691 0.0113557
69.0767 128.791 176.061 -0.515341 0.85691 0.0113557
69.85 129.177 177.171 -0.436242 0.897041 0.0707876
69.7801 129.211 176.317 -0.436242 0.897041 0.0707876
69.3431 128.938 177.083 -0.436242 0.897041 0.0707876
71.4614 128.947 176.197 0.752433 0.557169 -0.351292
72.0396 128.747 177.117 0.752433 0.557169 -0.351292
72.0534 128.087 176.101 0.752433 0.557169 -0.351292
72.0534 128.087 176.101 0.84613 0.45229 -0.281952
72.0396 128.747 177.117 0.84613 0.45229 -0.281952
72.3857 127.961 176.895 0.84613 0.45229 -0.281952
69.7801 129.211 176.317 -0.596737 0.798433 0.0800678
69.85 129.177 177.171 -0.596737 0.798433 0.0800678
70.3767 129.593 176.953 -0.596737 0.798433 0.0800678
70.6041 129.528 176.207 -0.374553 0.906795 -0.193477
69.7801 129.211 176.317 -0.374553 0.906795 -0.193477
70.3767 129.593 176.953 -0.374553 0.906795 -0.193477
71.4614 128.947 176.197 0.497958 0.743486 -0.446392
71.037 129.036 175.871 0.497958 0.743486 -0.446392
70.6041 129.528 176.207 0.497958 0.743486 -0.446392
71.4614 128.947 176.197 0.535762 0.796377 -0.280612
70.6041 129.528 176.207 0.535762 0.796377 -0.280612
71.2333 129.423 177.112 0.535762 0.796377 -0.280612
71.2333 129.423 177.112 0.198551 0.979769 -0.0251021
70.6041 129.528 176.207 0.198551 0.979769 -0.0251021
70.3767 129.593 176.953 0.198551 0.979769 -0.0251021
72.0396 128.747 177.117 0.626275 0.744558 -0.231111
71.4614 128.947 176.197 0.626275 0.744558 -0.231111
71.2333 129.423 177.112 0.626275 0.744558 -0.231111
68.3927 125.537 177.15 -0.671381 -0.585503 0.454351
68.1147 126.222 177.622 -0.671381 -0.585503 0.454351
67.6511 126.138 176.829 -0.671381 -0.585503 0.454351
68.6089 126.053 178.001 -0.60438 -0.603567 0.520031
68.1147 126.222 177.622 -0.60438 -0.603567 0.520031
68.3927 125.537 177.15 -0.60438 -0.603567 0.520031
68.6089 126.053 178.001 -0.432621 -0.717674 0.545695
68.3927 125.537 177.15 -0.432621 -0.717674 0.545695
69.3528 125.544 177.921 -0.432621 -0.717674 0.545695
69.3528 125.544 177.921 -0.121982 -0.979338 0.1613
68.3927 125.537 177.15 -0.121982 -0.979338 0.1613
69.3109 125.3 176.405 -0.121982 -0.979338 0.1613
70.5083 125.262 176.721 -0.0723642 -0.984939 0.157032
70.4013 125.431 177.732 -0.0723642 -0.984939 0.157032
69.3109 125.3 176.405 -0.0723642 -0.984939 0.157032
69.3109 125.3 176.405 -0.0770705 -0.983973 0.160804
70.4013 125.431 177.732 -0.0770705 -0.983973 0.160804
69.3528 125.544 177.921 -0.0770705 -0.983973 0.160804
71.3801 126.023 178.03 0.283308 -0.761373 0.583136
70.4013 125.431 177.732 0.283308 -0.761373 0.583136
71.4716 125.415 177.191 0.283308 -0.761373 0.583136
71.4716 125.415 177.191 0.0718905 -0.98249 0.171887
70.4013 125.431 177.732 0.0718905 -0.98249 0.171887
70.5083 125.262 176.721 0.0718905 -0.98249 0.171887
71.4716 125.415 177.191 0.26439 -0.834088 0.484143
72.4588 125.534 176.858 0.26439 -0.834088 0.484143
72.3266 125.981 177.7 0.26439 -0.834088 0.484143
71.3801 126.023 178.03 0.170787 -0.788651 0.590645
71.4716 125.415 177.191 0.170787 -0.788651 0.590645
72.3266 125.981 177.7 0.170787 -0.788651 0.590645
72.4588 125.534 176.858 0.517258 -0.719702 0.463113
73.0758 126.217 177.23 0.517258 -0.719702 0.463113
72.3266 125.981 177.7 0.517258 -0.719702 0.463113
68.1147 126.222 177.622 -0.738667 -0.0445322 0.672598
68.4109 127.084 178.004 -0.738667 -0.0445322 0.672598
67.6249 126.955 177.132 -0.738667 -0.0445322 0.672598
67.6511 126.138 176.829 -0.832713 -0.215812 0.509915
68.1147 126.222 177.622 -0.832713 -0.215812 0.509915
67.6249 126.955 177.132 -0.832713 -0.215812 0.509915
68.4109 127.084 178.004 -0.630233 -0.123456 0.766528
68.1147 126.222 177.622 -0.630233 -0.123456 0.766528
68.6089 126.053 178.001 -0.630233 -0.123456 0.766528
72.3266 125.981 177.7 0.229245 -0.633659 0.738866
71.854 126.405 178.21 0.229245 -0.633659 0.738866
71.3801 126.023 178.03 0.229245 -0.633659 0.738866
72.5982 126.445 178.017 0.225434 -0.636443 0.737645
71.854 126.405 178.21 0.225434 -0.636443 0.737645
72.3266 125.981 177.7 0.225434 -0.636443 0.737645
72.5982 126.445 178.017 0.535073 -0.667611 0.51768
72.3266 125.981 177.7 0.535073 -0.667611 0.51768
73.0758 126.217 177.23 0.535073 -0.667611 0.51768
72.5982 126.445 178.017 0.740618 -0.374496 0.557886
73.0758 126.217 177.23 0.740618 -0.374496 0.557886
73.02 127.045 177.86 0.740618 -0.374496 0.557886
73.02 127.045 177.86 0.994476 -0.0122493 0.104251
73.0758 126.217 177.23 0.994476 -0.0122493 0.104251
73.1162 126.92 176.928 0.994476 -0.0122493 0.104251
68.4109 127.084 178.004 -0.723103 0.107551 0.682316
68.3216 128.115 177.747 -0.723103 0.107551 0.682316
67.5958 127.851 177.019 -0.723103 0.107551 0.682316
67.6249 126.955 177.132 -0.745699 0.0595816 0.663614
68.4109 127.084 178.004 -0.745699 0.0595816 0.663614
67.5958 127.851 177.019 -0.745699 0.0595816 0.663614
68.3216 128.115 177.747 -0.720644 0.108379 0.684782
68.4109 127.084 178.004 -0.720644 0.108379 0.684782
68.748 127.948 178.222 -0.720644 0.108379 0.684782
72.6737 127.661 177.28 0.835111 0.524172 0.166832
72.2817 128.121 177.797 0.835111 0.524172 0.166832
72.4714 127.725 178.094 0.835111 0.524172 0.166832
72.3857 127.961 176.895 0.741725 0.669863 -0.0335751
72.2817 128.121 177.797 0.741725 0.669863 -0.0335751
72.6737 127.661 177.28 0.741725 0.669863 -0.0335751
73.02 127.045 177.86 0.862738 0.505204 0.0212713
73.1162 126.92 176.928 0.862738 0.505204 0.0212713
72.6737 127.661 177.28 0.862738 0.505204 0.0212713
72.4714 127.725 178.094 0.793707 0.589135 0.151489
73.02 127.045 177.86 0.793707 0.589135 0.151489
72.6737 127.661 177.28 0.793707 0.589135 0.151489
67.5958 127.851 177.019 -0.676887 0.566818 0.469619
68.3216 128.115 177.747 -0.676887 0.566818 0.469619
68.2554 128.652 177.004 -0.676887 0.566818 0.469619
68.3216 128.115 177.747 -0.510977 0.557096 0.654635
68.748 127.948 178.222 -0.510977 0.557096 0.654635
69.1317 128.642 177.931 -0.510977 0.557096 0.654635
68.3216 128.115 177.747 -0.545106 0.655878 0.522192
69.1317 128.642 177.931 -0.545106 0.655878 0.522192
68.2554 128.652 177.004 -0.545106 0.655878 0.522192
68.2554 128.652 177.004 -0.262966 0.929527 0.25851
69.1317 128.642 177.931 -0.262966 0.929527 0.25851
69.3431 128.938 177.083 -0.262966 0.929527 0.25851
69.85 129.177 177.171 -0.314347 0.816351 0.484516
70.1149 128.8 177.978 -0.314347 0.816351 0.484516
70.536 129.132 177.693 -0.314347 0.816351 0.484516
69.85 129.177 177.171 -0.440276 0.749365 0.494581
69.3431 128.938 177.083 -0.440276 0.749365 0.494581
70.1149 128.8 177.978 -0.440276 0.749365 0.494581
69.3431 128.938 177.083 -0.165652 0.943324 0.287576
69.1317 128.642 177.931 -0.165652 0.943324 0.287576
70.1149 128.8 177.978 -0.165652 0.943324 0.287576
70.1149 128.8 177.978 0.0438071 0.619243 0.783977
71.3553 128.153 178.42 0.0438071 0.619243 0.783977
70.536 129.132 177.693 0.0438071 0.619243 0.783977
71.3553 128.153 178.42 0.391127 0.742599 0.543661
72.2817 128.121 177.797 0.391127 0.742599 0.543661
72.0396 128.747 177.117 0.391127 0.742599 0.543661
72.0396 128.747 177.117 0.918222 0.394448 0.0357693
72.2817 128.121 177.797 0.918222 0.394448 0.0357693
72.3857 127.961 176.895 0.918222 0.394448 0.0357693
69.85 129.177 177.171 -0.366622 0.75209 0.547675
70.536 129.132 177.693 -0.366622 0.75209 0.547675
70.3767 129.593 176.953 -0.366622 0.75209 0.547675
71.2333 129.423 177.112 0.0727384 0.853364 0.516216
70.3767 129.593 176.953 0.0727384 0.853364 0.516216
70.536 129.132 177.693 0.0727384 0.853364 0.516216
71.3553 128.153 178.42 0.255436 0.705211 0.661385
71.2333 129.423 177.112 0.255436 0.705211 0.661385
70.536 129.132 177.693 0.255436 0.705211 0.661385
72.0396 128.747 177.117 0.528375 0.633022 0.565776
71.2333 129.423 177.112 0.528375 0.633022 0.565776
71.3553 128.153 178.42 0.528375 0.633022 0.565776
69.3528 125.544 177.921 -0.350226 -0.621793 0.700511
69.35 126.321 178.609 -0.350226 -0.621793 0.700511
68.6089 126.053 178.001 -0.350226 -0.621793 0.700511
69.3528 125.544 177.921 0.0299022 -0.775657 0.630446
70.4013 125.431 177.732 0.0299022 -0.775657 0.630446
70.3817 126.129 178.591 0.0299022 -0.775657 0.630446
69.35 126.321 178.609 -0.110144 -0.659263 0.743801
69.3528 125.544 177.921 -0.110144 -0.659263 0.743801
70.3817 126.129 178.591 -0.110144 -0.659263 0.743801
70.4013 125.431 177.732 0.265155 -0.745582 0.611392
71.3801 126.023 178.03 0.265155 -0.745582 0.611392
70.3817 126.129 178.591 0.265155 -0.745582 0.611392
69.35 126.321 178.609 -0.60543 -0.121271 0.786606
69.2657 127.22 178.683 -0.60543 -0.121271 0.786606
68.4109 127.084 178.004 -0.60543 -0.121271 0.786606
68.6089 126.053 178.001 -0.604107 -0.118499 0.788044
69.35 126.321 178.609 -0.604107 -0.118499 0.788044
68.4109 127.084 178.004 -0.604107 -0.118499 0.788044
70.3817 126.129 178.591 -0.0258996 -0.229646 0.97293
70.2891 127.103 178.819 -0.0258996 -0.229646 0.97293
69.35 126.321 178.609 -0.0258996 -0.229646 0.97293
70.2891 127.103 178.819 -0.141542 -0.094027 0.985457
69.2657 127.22 178.683 -0.141542 -0.094027 0.985457
69.35 126.321 178.609 -0.141542 -0.094027 0.985457
71.3801 126.023 178.03 0.166273 -0.582333 0.795765
71.854 126.405 178.21 0.166273 -0.582333 0.795765
71.3646 126.905 178.679 0.166273 -0.582333 0.795765
71.3801 126.023 178.03 0.365694 -0.547271 0.752837
71.3646 126.905 178.679 0.365694 -0.547271 0.752837
70.3817 126.129 178.591 0.365694 -0.547271 0.752837
70.3817 126.129 178.591 0.0866418 -0.218715 0.971935
71.3646 126.905 178.679 0.0866418 -0.218715 0.971935
70.2891 127.103 178.819 0.0866418 -0.218715 0.971935
71.854 126.405 178.21 0.240547 -0.519597 0.819852
72.5982 126.445 178.017 0.240547 -0.519597 0.819852
72.3137 127.104 178.519 0.240547 -0.519597 0.819852
71.3646 126.905 178.679 0.247175 -0.522317 0.816143
71.854 126.405 178.21 0.247175 -0.522317 0.816143
72.3137 127.104 178.519 0.247175 -0.522317 0.816143
72.5982 126.445 178.017 0.645223 -0.266297 0.716082
73.02 127.045 177.86 0.645223 -0.266297 0.716082
72.3137 127.104 178.519 0.645223 -0.266297 0.716082
69.2657 127.22 178.683 -0.415115 0.257208 0.872653
69.6415 128.051 178.617 -0.415115 0.257208 0.872653
68.748 127.948 178.222 -0.415115 0.257208 0.872653
68.4109 127.084 178.004 -0.62588 0.0478216 0.778452
69.2657 127.22 178.683 -0.62588 0.0478216 0.778452
68.748 127.948 178.222 -0.62588 0.0478216 0.778452
70.2891 127.103 178.819 -0.1158 0.130743 0.98463
69.6415 128.051 178.617 -0.1158 0.130743 0.98463
69.2657 127.22 178.683 -0.1158 0.130743 0.98463
71.3646 126.905 178.679 0.162975 0.201236 0.96589
71.3553 128.153 178.42 0.162975 0.201236 0.96589
70.2891 127.103 178.819 0.162975 0.201236 0.96589
71.3553 128.153 178.42 0.093969 0.268579 0.958663
69.6415 128.051 178.617 0.093969 0.268579 0.958663
70.2891 127.103 178.819 0.093969 0.268579 0.958663
72.4714 127.725 178.094 0.433023 0.663717 0.609894
72.2817 128.121 177.797 0.433023 0.663717 0.609894
71.3553 128.153 178.42 0.433023 0.663717 0.609894
72.4714 127.725 178.094 0.404357 0.444618 0.799256
71.3553 128.153 178.42 0.404357 0.444618 0.799256
72.3137 127.104 178.519 0.404357 0.444618 0.799256
72.3137 127.104 178.519 0.121482 0.202148 0.971791
71.3553 128.153 178.42 0.121482 0.202148 0.971791
71.3646 126.905 178.679 0.121482 0.202148 0.971791
73.02 127.045 177.86 0.66365 0.300465 0.685047
72.4714 127.725 178.094 0.66365 0.300465 0.685047
72.3137 127.104 178.519 0.66365 0.300465 0.685047
68.748 127.948 178.222 -0.392569 0.531801 0.750385
69.6415 128.051 178.617 -0.392569 0.531801 0.750385
69.1317 128.642 177.931 -0.392569 0.531801 0.750385
70.1149 128.8 177.978 -0.145367 0.693233 0.705902
69.1317 128.642 177.931 -0.145367 0.693233 0.705902
69.6415 128.051 178.617 -0.145367 0.693233 0.705902
71.3553 128.153 178.42 0.0515555 0.628628 0.775995
70.1149 128.8 177.978 0.0515555 0.628628 0.775995
69.6415 128.051 178.617 0.0515555 0.628628 0.775995
3 0 1 2
3 3 4 5
3 6 7 8
3 9 10 11
3 12 13 14
3 15 16 17
3 18 19 20
3 21 22 23
3 24 25 26
3 27 28 29
3 30 31 32
3 33 34 35
3 36 37 38
3 39 40 41
3 42 43 44
3 45 46 47
3 48 49 50
3 51 52 53
3 54 55 56
3 57 58 59
3 60 61 62
3 63 64 65
3 66 67 68
3 69 70 71
3 72 73 74
3 75 76 77
3 78 79 80
3 81 82 83
3 84 85 86
3 87 88 89
3 90 91 92
3 93 94 95
3 96 97 98
3 99 100 101
3 102 103 104
3 105 106 107
3 108 109 110
3 111 112 113
3 114 115 116
3 117 118 119
3 120 121 122
3 123 124 125
3 126 127 128
3 129 130 131
3 132 133 134
3 135 136 137
3 138 139 140
3 141 142 143
3 144 145 146
3 147 148 149
3 150 151 152
3 153 154 155
3 156 157 158
3 159 160 161
3 162 163 164
3 165 166 167
3 168 169 170
3 171 172 173
3 174 175 176
3 177 178 179
3 180 181 182
3 183 184 185
3 186 187 188
3 189 190 191
3 192 193 194
3 195 196 197
3 198 199 200
3 201 202 203
3 204 205 206
3 207 208 209
3 210 211 212
3 213 214 215
3 216 217 218
3 219 220 221
3 222 223 224
3 225 226 227
3 228 229 230
3 231 232 233
3 234 235 236
3 237 238 239
3 240 241 242
3 243 244 245
3 246 247 248
3 249 250 251
3 252 253 254
3 255 256 257
3 258 259 260
3 261 262 263
3 264 265 266
3 267 268 269
3 270 271 272
3 273 274 275
3 276 277 278
3 279 280 281
3 282 283 284
3 285 286 287
3 288 289 290
3 291 292 293
3 294 295 296
3 297 298 299
3 300 301 302
3 303 304 305
3 306 307 308
3 309 310 311
3 312 313 314
3 315 316 317
3 318 319 320
3 321 322 323
3 324 325 326
3 327 328 329
3 330 331 332
3 333 334 335
3 336 337 338
3 339 340 341
3 342 343 344
3 345 346 347
3 348 349 350
3 351 352 353
3 354 355 356
3 357 358 359
3 360 361 362
3 363 364 365
3 366 367 368
3 369 370 371
3 372 373 374
3 375 376 377
3 378 379 380
3 381 382 383
3 384 385 386
3 387 388 389
3 390 391 392
3 393 394 395
3 396 397 398
3 399 400 401
3 402 403 404
3 405 406 407
3 408 409 410
3 411 412 413
3 414 415 416
3 417 418 419
3 420 421 422
3 423 424 425
3 426 427 428
3 429 430 431
3 432 433 434
3 435 436 437
3 438 439 440
3 441 442 443
3 444 445 446
3 447 448 449
3 450 451 452
3 453 454 455
3 456 457 458
3 459 460 461
3 462 463 464
3 465 466 467
3 468 469 470
3 471 472 473
3 474 475 476
3 477 478 479
3 480 481 482
3 483 484 485
3 486 487 488
3 489 490 491
3 492 493 494
3 495 496 497
3 498 499 500
3 501 502 503
3 504 505 506
3 507 508 509
3 510 511 512
3 513 514 515
