ply
format ascii 1.0
element vertex 714
property float x
property float y
property float z
property float nx
property float ny
property float nz
element face 238
property list uint uint vertex_indices
end_header
116.51 170.968 160.71 0.0447665 0.0459174 -0.997942
115.494 171.411 160.685 0.0447665 0.0459174 -0.997942
115.525 171.712 160.7 0.0447665 0.0459174 -0.997942
116.51 170.968 160.71 -0.199373 -0.276632 -0.940067
115.525 171.712 160.7 -0.199373 -0.276632 -0.940067
116.371 171.73 160.516 -0.199373 -0.276632 -0.940067
116.371 171.73 160.516 0.269157 -0.192169 -0.94373
116.844 171.637 160.669 0.269157 -0.192169 -0.94373
116.51 170.968 160.71 0.269157 -0.192169 -0.94373
116.371 171.73 160.516 -0.17389 0.659843 -0.731006
115.525 171.712 160.7 -0.17389 0.659843 -0.731006
115.76 171.899 160.813 -0.17389 0.659843 -0.731006
116.705 171.899 160.775 -0.0212263 0.850627 -0.525341
116.371 171.73 160.516 -0.0212263 0.850627 -0.525341
115.76 171.899 160.813 -0.0212263 0.850627 -0.525341
116.844 171.637 160.669 0.355109 0.50662 -0.785642
116.371 171.73 160.516 0.355109 0.50662 -0.785642
116.705 171.899 160.775 0.355109 0.50662 -0.785642
114.738 169.992 161.39 -0.239169 -0.742459 -0.625741
114.682 169.701 161.758 -0.239169 -0.742459 -0.625741
114.095 169.86 161.793 -0.239169 -0.742459 -0.625741
114.738 169.992 161.39 -0.145231 -0.860221 -0.488802
115.619 169.927 161.243 -0.145231 -0.860221 -0.488802
115.541 169.699 161.669 -0.145231 -0.860221 -0.488802
114.682 169.701 161.758 -0.0669381 -0.776599 -0.62643
114.738 169.992 161.39 -0.0669381 -0.776599 -0.62643
115.541 169.699 161.669 -0.0669381 -0.776599 -0.62643
115.619 169.927 161.243 -0.0181783 -0.864537 -0.50224
116.327 170.083 160.949 -0.0181783 -0.864537 -0.50224
116.35 169.759 161.505 -0.0181783 -0.864537 -0.50224
115.541 169.699 161.669 -0.0302546 -0.878177 -0.477378
115.619 169.927 161.243 -0.0302546 -0.878177 -0.477378
116.35 169.759 161.505 -0.0302546 -0.878177 -0.477378
116.35 169.759 161.505 0.521656 -0.727919 -0.444983
116.327 170.083 160.949 0.521656 -0.727919 -0.444983
116.862 170.116 161.522 0.521656 -0.727919 -0.444983
114.276 170.791 161.548 -0.50825 -0.125208 -0.852059
114.738 169.992 161.39 -0.50825 -0.125208 -0.852059
114.095 169.86 161.793 -0.50825 -0.125208 -0.852059
115.619 169.927 161.243 -0.179643 -0.439284 -0.880203
114.738 169.992 161.39 -0.179643 -0.439284 -0.880203
115.406 170.732 160.885 -0.179643 -0.439284 -0.880203
115.406 170.732 160.885 -0.507397 -0.124596 -0.852657
114.738 169.992 161.39 -0.507397 -0.124596 -0.852657
114.276 170.791 161.548 -0.507397 -0.124596 -0.852657
116.51 170.968 160.71 -0.101192 -0.239728 -0.965552
116.327 170.083 160.949 -0.101192 -0.239728 -0.965552
115.406 170.732 160.885 -0.101192 -0.239728 -0.965552
116.327 170.083 160.949 -0.256152 -0.448883 -0.85609
115.619 169.927 161.243 -0.256152 -0.448883 -0.85609
115.406 170.732 160.885 -0.256152 -0.448883 -0.85609
116.51 170.968 160.71 0.475357 -0.530116 -0.702148
117.423 171.186 161.165 0.475357 -0.530116 -0.702148
117.506 170.861 161.466 0.475357 -0.530116 -0.702148
116.51 170.968 160.71 0.495529 -0.482778 -0.722064
117.506 170.861 161.466 0.495529 -0.482778 -0.722064
116.862 170.116 161.522 0.495529 -0.482778 -0.722064
116.51 170.968 160.71 0.702207 -0.316985 -0.637515
116.862 170.116 161.522 0.702207 -0.316985 -0.637515
116.327 170.083 160.949 0.702207 -0.316985 -0.637515
115.494 171.411 160.685 -0.575212 0.0996166 -0.811916
114.51 171.62 161.408 -0.575212 0.0996166 -0.811916
115.525 171.712 160.7 -0.575212 0.0996166 -0.811916
115.494 171.411 160.685 -0.605738 -0.150555 -0.78129
115.406 170.732 160.885 -0.605738 -0.150555 -0.78129
114.51 171.62 161.408 -0.605738 -0.150555 -0.78129
115.406 170.732 160.885 -0.506637 -0.00291371 -0.862154
114.276 170.791 161.548 -0.506637 -0.00291371 -0.862154
114.51 171.62 161.408 -0.506637 -0.00291371 -0.862154
116.51 170.968 160.71 -0.0937275 -0.269359 -0.958468
115.406 170.732 160.885 -0.0937275 -0.269359 -0.958468
115.494 171.411 160.685 -0.0937275 -0.269359 -0.958468
117.423 171.186 161.165 0.650686 0.00220614 -0.759344
116.844 171.637 160.669 0.650686 0.00220614 -0.759344
117.429 171.747 161.171 0.650686 0.00220614 -0.759344
116.51 170.968 160.71 0.480605 -0.290593 -0.82739
116.844 171.637 160.669 0.480605 -0.290593 -0.82739
117.423 171.186 161.165 0.480605 -0.290593 -0.82739
117.735 171.549 161.629 0.87695 -0.186476 -0.442927
117.506 170.861 161.466 0.87695 -0.186476 -0.442927
117.423 171.186 161.165 0.87695 -0.186476 -0.442927
117.429 171.747 161.171 0.830841 -0.00196993 -0.556506
117.735 171.549 161.629 0.830841 -0.00196993 -0.556506
117.423 171.186 161.165 0.830841 -0.00196993 -0.556506
115.525 171.712 160.7 -0.437062 0.724905 -0.532437
114.51 171.62 161.408 -0.437062 0.724905 -0.532437
114.743 171.893 161.588 -0.437062 0.724905 -0.532437
115.525 171.712 160.7 -0.382426 0.779885 -0.49551
114.743 171.893 161.588 -0.382426 0.779885 -0.49551
115.76 171.899 160.813 -0.382426 0.779885 -0.49551
115.76 171.899 160.813 -0.10492 0.985969 -0.129832
114.743 171.893 161.588 -0.10492 0.985969 -0.129832
115.686 171.999 161.634 -0.10492 0.985969 -0.129832
116.705 171.899 160.775 -0.00727725 0.98453 -0.175067
115.76 171.899 160.813 -0.00727725 0.98453 -0.175067
116.604 172.032 161.526 -0.00727725 0.98453 -0.175067
115.76 171.899 160.813 -0.0500701 0.990823 -0.125548
115.686 171.999 161.634 -0.0500701 0.990823 -0.125548
116.604 172.032 161.526 -0.0500701 0.990823 -0.125548
117.429 171.747 161.171 0.488692 0.537637 -0.687114
116.844 171.637 160.669 0.488692 0.537637 -0.687114
116.705 171.899 160.775 0.488692 0.537637 -0.687114
117.429 171.747 161.171 0.399461 0.816757 -0.416339
116.705 171.899 160.775 0.399461 0.816757 -0.416339
117.468 171.935 161.578 0.399461 0.816757 -0.416339
117.468 171.935 161.578 0.119261 0.980329 -0.157263
116.705 171.899 160.775 0.119261 0.980329 -0.157263
116.604 172.032 161.526 0.119261 0.980329 -0.157263
117.735 171.549 161.629 0.799479 0.512051 -0.314067
117.429 171.747 161.171 0.799479 0.512051 -0.314067
117.468 171.935 161.578 0.799479 0.512051 -0.314067
112.554 168.988 162.456 -0.407322 -0.660102 -0.631153
112.399 168.723 162.834 -0.407322 -0.660102 -0.631153
112.16 169.048 162.648 -0.407322 -0.660102 -0.631153
112.554 168.988 162.456 -0.0315198 -0.618715 -0.784983
113.42 169.064 162.361 -0.0315198 -0.618715 -0.784983
113.096 168.721 162.645 -0.0315198 -0.618715 -0.784983
112.399 168.723 162.834 -0.168048 -0.772841 -0.611945
112.554 168.988 162.456 -0.168048 -0.772841 -0.611945
113.096 168.721 162.645 -0.168048 -0.772841 -0.611945
113.096 168.721 162.645 0.433062 -0.780952 -0.45008
113.42 169.064 162.361 0.433062 -0.780952 -0.45008
113.613 168.902 162.828 0.433062 -0.780952 -0.45008
112.423 169.808 162.424 -0.44843 -0.106217 -0.887485
112.554 168.988 162.456 -0.44843 -0.106217 -0.887485
112.16 169.048 162.648 -0.44843 -0.106217 -0.887485
111.943 169.82 162.772 -0.587011 -0.0351 -0.808818
112.423 169.808 162.424 -0.587011 -0.0351 -0.808818
112.16 169.048 162.648 -0.587011 -0.0351 -0.808818
113.42 169.064 162.361 -0.0903452 -0.18721 -0.978157
112.554 168.988 162.456 -0.0903452 -0.18721 -0.978157
113.186 169.692 162.263 -0.0903452 -0.18721 -0.978157
113.186 169.692 162.263 -0.216856 -0.0722981 -0.973523
112.554 168.988 162.456 -0.216856 -0.0722981 -0.973523
112.423 169.808 162.424 -0.216856 -0.0722981 -0.973523
114.095 169.86 161.793 -0.264957 -0.898074 -0.351086
114.682 169.701 161.758 -0.264957 -0.898074 -0.351086
114.421 169.474 162.534 -0.264957 -0.898074 -0.351086
114.095 169.86 161.793 0.395386 -0.731732 -0.555193
114.421 169.474 162.534 0.395386 -0.731732 -0.555193
113.42 169.064 162.361 0.395386 -0.731732 -0.555193
114.095 169.86 161.793 -0.397728 -0.285262 -0.872031
113.42 169.064 162.361 -0.397728 -0.285262 -0.872031
113.186 169.692 162.263 -0.397728 -0.285262 -0.872031
113.613 168.902 162.828 0.40406 -0.799464 -0.444514
113.42 169.064 162.361 0.40406 -0.799464 -0.444514
114.421 169.474 162.534 0.40406 -0.799464 -0.444514
115.541 169.699 161.669 -0.015902 -0.99121 -0.131338
115.51 169.587 162.517 -0.015902 -0.99121 -0.131338
114.682 169.701 161.758 -0.015902 -0.99121 -0.131338
114.682 169.701 161.758 0.0957773 -0.963732 -0.249093
115.51 169.587 162.517 0.0957773 -0.963732 -0.249093
114.421 169.474 162.534 0.0957773 -0.963732 -0.249093
116.35 169.759 161.505 0.0645943 -0.996603 -0.0510951
116.674 169.731 162.475 0.0645943 -0.996603 -0.0510951
115.541 169.699 161.669 0.0645943 -0.996603 -0.0510951
115.541 169.699 161.669 0.117396 -0.9851 -0.12568
116.674 169.731 162.475 0.117396 -0.9851 -0.12568
115.51 169.587 162.517 0.117396 -0.9851 -0.12568
116.674 169.731 162.475 0.563518 -0.79849 -0.211804
116.35 169.759 161.505 0.563518 -0.79849 -0.211804
116.862 170.116 161.522 0.563518 -0.79849 -0.211804
112.311 170.857 162.511 -0.586719 0.0042426 -0.80978
112.423 169.808 162.424 -0.586719 0.0042426 -0.80978
111.943 169.82 162.772 -0.586719 0.0042426 -0.80978
113.186 169.692 162.263 -0.21357 -0.0475843 -0.975768
112.423 169.808 162.424 -0.21357 -0.0475843 -0.975768
113.274 170.591 162.2 -0.21357 -0.0475843 -0.975768
113.274 170.591 162.2 -0.295182 0.0473254 -0.954268
112.423 169.808 162.424 -0.295182 0.0473254 -0.954268
112.311 170.857 162.511 -0.295182 0.0473254 -0.954268
114.095 169.86 161.793 -0.52424 -0.119744 -0.84311
113.274 170.591 162.2 -0.52424 -0.119744 -0.84311
114.276 170.791 161.548 -0.52424 -0.119744 -0.84311
113.186 169.692 162.263 -0.456349 -0.0176827 -0.889625
113.274 170.591 162.2 -0.456349 -0.0176827 -0.889625
114.095 169.86 161.793 -0.456349 -0.0176827 -0.889625
116.862 170.116 161.522 0.676621 -0.719288 -0.15751
117.681 170.68 162.465 0.676621 -0.719288 -0.15751
116.674 169.731 162.475 0.676621 -0.719288 -0.15751
117.506 170.861 161.466 0.724448 -0.644913 -0.243441
117.681 170.68 162.465 0.724448 -0.644913 -0.243441
116.862 170.116 161.522 0.724448 -0.644913 -0.243441
112.148 171.541 162.709 -0.715552 0.0320812 -0.697822
112.397 171.651 162.459 -0.715552 0.0320812 -0.697822
112.311 170.857 162.511 -0.715552 0.0320812 -0.697822
113.274 170.591 162.2 -0.298778 0.0336553 -0.953729
112.311 170.857 162.511 -0.298778 0.0336553 -0.953729
113.242 171.555 162.244 -0.298778 0.0336553 -0.953729
113.242 171.555 162.244 -0.250449 -0.036081 -0.967457
112.311 170.857 162.511 -0.250449 -0.036081 -0.967457
112.397 171.651 162.459 -0.250449 -0.036081 -0.967457
114.276 170.791 161.548 -0.55076 0.0141673 -0.834543
113.242 171.555 162.244 -0.55076 0.0141673 -0.834543
114.51 171.62 161.408 -0.55076 0.0141673 -0.834543
113.274 170.591 162.2 -0.54773 0.0199703 -0.836417
113.242 171.555 162.244 -0.54773 0.0199703 -0.836417
114.276 170.791 161.548 -0.54773 0.0199703 -0.836417
117.506 170.861 161.466 0.941347 -0.262661 -0.211838
117.735 171.549 161.629 0.941347 -0.262661 -0.211838
117.681 170.68 162.465 0.941347 -0.262661 -0.211838
117.681 170.68 162.465 0.992331 -0.112121 -0.0520394
117.735 171.549 161.629 0.992331 -0.112121 -0.0520394
117.791 171.654 162.482 0.992331 -0.112121 -0.0520394
112.397 171.651 162.459 -0.683624 0.59908 -0.416848
112.148 171.541 162.709 -0.683624 0.59908 -0.416848
112.523 171.821 162.497 -0.683624 0.59908 -0.416848
113.242 171.555 162.244 -0.194195 0.348202 -0.917085
112.397 171.651 162.459 -0.194195 0.348202 -0.917085
112.523 171.821 162.497 -0.194195 0.348202 -0.917085
113.48 171.86 162.336 -0.167454 0.403727 -0.899424
113.242 171.555 162.244 -0.167454 0.403727 -0.899424
112.523 171.821 162.497 -0.167454 0.403727 -0.899424
114.51 171.62 161.408 -0.471611 0.57192 -0.671186
113.242 171.555 162.244 -0.471611 0.57192 -0.671186
113.48 171.86 162.336 -0.471611 0.57192 -0.671186
114.51 171.62 161.408 -0.371824 0.711213 -0.596593
113.48 171.86 162.336 -0.371824 0.711213 -0.596593
114.743 171.893 161.588 -0.371824 0.711213 -0.596593
114.743 171.893 161.588 -0.0628491 0.996033 -0.0629922
113.48 171.86 162.336 -0.0628491 0.996033 -0.0629922
114.452 171.934 162.538 -0.0628491 0.996033 -0.0629922
115.686 171.999 161.634 -0.110057 0.993037 -0.0420066
114.743 171.893 161.588 -0.110057 0.993037 -0.0420066
115.51 172.016 162.492 -0.110057 0.993037 -0.0420066
114.743 171.893 161.588 -0.0795803 0.994503 -0.068047
114.452 171.934 162.538 -0.0795803 0.994503 -0.068047
115.51 172.016 162.492 -0.0795803 0.994503 -0.068047
116.604 172.032 161.526 -0.0380372 0.999044 -0.0215311
115.686 171.999 161.634 -0.0380372 0.999044 -0.0215311
116.554 172.05 162.485 -0.0380372 0.999044 -0.0215311
115.686 171.999 161.634 -0.0333346 0.999097 -0.0263285
115.51 172.016 162.492 -0.0333346 0.999097 -0.0263285
116.554 172.05 162.485 -0.0333346 0.999097 -0.0263285
117.468 171.935 161.578 0.11464 0.991562 -0.0605185
116.604 172.032 161.526 0.11464 0.991562 -0.0605185
117.444 171.992 162.474 0.11464 0.991562 -0.0605185
116.604 172.032 161.526 0.0648447 0.997765 -0.0161405
116.554 172.05 162.485 0.0648447 0.997765 -0.0161405
117.444 171.992 162.474 0.0648447 0.997765 -0.0161405
117.791 171.654 162.482 0.823564 0.553834 -0.122515
117.735 171.549 161.629 0.823564 0.553834 -0.122515
117.468 171.935 161.578 0.823564 0.553834 -0.122515
117.444 171.992 162.474 0.697581 0.715998 -0.0269776
117.791 171.654 162.482 0.697581 0.715998 -0.0269776
117.468 171.935 161.578 0.697581 0.715998 -0.0269776
112.399 168.723 162.834 -0.554508 -0.825229 -0.107323
112.331 168.649 163.756 -0.554508 -0.825229 -0.107323
111.87 169.004 163.401 -0.554508 -0.825229 -0.107323
112.16 169.048 162.648 -0.67867 -0.670432 -0.299881
112.399 168.723 162.834 -0.67867 -0.670432 -0.299881
111.87 169.004 163.401 -0.67867 -0.670432 -0.299881
113.096 168.721 162.645 -0.0368612 -0.991396 -0.125599
113.136 168.624 163.401 -0.0368612 -0.991396 -0.125599
112.399 168.723 162.834 -0.0368612 -0.991396 -0.125599
112.399 168.723 162.834 -0.0683753 -0.994024 -0.0850967
113.136 168.624 163.401 -0.0683753 -0.994024 -0.0850967
112.331 168.649 163.756 -0.0683753 -0.994024 -0.0850967
113.136 168.624 163.401 0.370443 -0.91855 -0.137976
113.096 168.721 162.645 0.370443 -0.91855 -0.137976
113.613 168.902 162.828 0.370443 -0.91855 -0.137976
113.701 168.888 163.767 0.453267 -0.88968 -0.0549387
113.136 168.624 163.401 0.453267 -0.88968 -0.0549387
113.613 168.902 162.828 0.453267 -0.88968 -0.0549387
111.339 169.764 163.356 -0.805753 -0.367178 -0.464696
111.266 169.394 163.774 -0.805753 -0.367178 -0.464696
111.076 169.861 163.735 -0.805753 -0.367178 -0.464696
111.339 169.764 163.356 -0.665427 -0.498078 -0.55599
111.87 169.004 163.401 -0.665427 -0.498078 -0.55599
111.266 169.394 163.774 -0.665427 -0.498078 -0.55599
111.339 169.764 163.356 -0.59662 -0.456031 -0.660364
111.943 169.82 162.772 -0.59662 -0.456031 -0.660364
111.87 169.004 163.401 -0.59662 -0.456031 -0.660364
111.943 169.82 162.772 -0.911138 -0.197527 -0.361678
112.16 169.048 162.648 -0.911138 -0.197527 -0.361678
111.87 169.004 163.401 -0.911138 -0.197527 -0.361678
113.613 168.902 162.828 0.524217 -0.8494 -0.0609567
114.461 169.375 163.533 0.524217 -0.8494 -0.0609567
113.701 168.888 163.767 0.524217 -0.8494 -0.0609567
114.421 169.474 162.534 0.549131 -0.829174 -0.10453
114.461 169.375 163.533 0.549131 -0.829174 -0.10453
113.613 168.902 162.828 0.549131 -0.829174 -0.10453
115.51 169.587 162.517 0.102431 -0.994549 -0.0194716
115.357 169.554 163.374 0.102431 -0.994549 -0.0194716
114.421 169.474 162.534 0.102431 -0.994549 -0.0194716
114.421 169.474 162.534 0.177456 -0.978556 -0.104583
115.357 169.554 163.374 0.177456 -0.978556 -0.104583
114.461 169.375 163.533 0.177456 -0.978556 -0.104583
116.674 169.731 162.475 0.121075 -0.99157 -0.0461578
116.462 169.66 163.441 0.121075 -0.99157 -0.0461578
115.51 169.587 162.517 0.121075 -0.99157 -0.0461578
115.51 169.587 162.517 0.0964863 -0.995122 -0.0205579
116.462 169.66 163.441 0.0964863 -0.995122 -0.0205579
115.357 169.554 163.374 0.0964863 -0.995122 -0.0205579
116.674 169.731 162.475 0.463919 -0.805768 -0.368126
117.534 169.934 163.115 0.463919 -0.805768 -0.368126
117.392 169.739 163.362 0.463919 -0.805768 -0.368126
116.674 169.731 162.475 0.0800823 -0.995246 -0.0554281
117.392 169.739 163.362 0.0800823 -0.995246 -0.0554281
116.462 169.66 163.441 0.0800823 -0.995246 -0.0554281
117.392 169.739 163.362 0.756977 -0.649037 -0.0757488
117.534 169.934 163.115 0.756977 -0.649037 -0.0757488
117.718 170.116 163.393 0.756977 -0.649037 -0.0757488
111.448 170.662 163.292 -0.813365 0.0572328 -0.578931
111.339 169.764 163.356 -0.813365 0.0572328 -0.578931
111.076 169.861 163.735 -0.813365 0.0572328 -0.578931
111.103 170.468 163.792 -0.835786 0.0880836 -0.541943
111.448 170.662 163.292 -0.835786 0.0880836 -0.541943
111.076 169.861 163.735 -0.835786 0.0880836 -0.541943
111.943 169.82 162.772 -0.676963 0.0552392 -0.733941
111.448 170.662 163.292 -0.676963 0.0552392 -0.733941
112.311 170.857 162.511 -0.676963 0.0552392 -0.733941
111.339 169.764 163.356 -0.696504 0.033159 -0.716786
111.448 170.662 163.292 -0.696504 0.033159 -0.716786
111.943 169.82 162.772 -0.696504 0.033159 -0.716786
116.674 169.731 162.475 0.562735 -0.602722 -0.565735
117.681 170.68 162.465 0.562735 -0.602722 -0.565735
117.534 169.934 163.115 0.562735 -0.602722 -0.565735
117.534 169.934 163.115 0.858709 -0.421731 -0.291139
117.681 170.68 162.465 0.858709 -0.421731 -0.291139
117.718 170.116 163.393 0.858709 -0.421731 -0.291139
117.718 170.116 163.393 0.99516 -0.0607361 -0.0772544
117.681 170.68 162.465 0.99516 -0.0607361 -0.0772544
117.766 171.005 163.308 0.99516 -0.0607361 -0.0772544
111.448 170.662 163.292 -0.651211 0.741706 -0.160614
111.103 170.468 163.792 -0.651211 0.741706 -0.160614
111.455 170.788 163.843 -0.651211 0.741706 -0.160614
111.448 170.662 163.292 -0.676671 0.0518866 -0.734455
112.148 171.541 162.709 -0.676671 0.0518866 -0.734455
112.311 170.857 162.511 -0.676671 0.0518866 -0.734455
111.448 170.662 163.292 -0.553045 0.719544 0.419997
112.244 171.125 163.546 -0.553045 0.719544 0.419997
112.148 171.541 162.709 -0.553045 0.719544 0.419997
111.448 170.662 163.292 -0.446548 0.873607 -0.193404
111.455 170.788 163.843 -0.446548 0.873607 -0.193404
112.244 171.125 163.546 -0.446548 0.873607 -0.193404
112.594 171.694 162.773 -0.348261 0.823317 0.448177
112.148 171.541 162.709 -0.348261 0.823317 0.448177
112.244 171.125 163.546 -0.348261 0.823317 0.448177
112.594 171.694 162.773 -0.0456972 0.847191 0.52932
113.313 171.241 163.561 -0.0456972 0.847191 0.52932
113.579 171.732 162.798 -0.0456972 0.847191 0.52932
112.244 171.125 163.546 -0.0964291 0.822061 0.561175
113.313 171.241 163.561 -0.0964291 0.822061 0.561175
112.594 171.694 162.773 -0.0964291 0.822061 0.561175
113.579 171.732 162.798 -0.147179 0.804852 0.574937
114.361 171.318 163.578 -0.147179 0.804852 0.574937
114.518 171.788 162.959 -0.147179 0.804852 0.574937
113.313 171.241 163.561 -0.0708202 0.849844 0.522255
114.361 171.318 163.578 -0.0708202 0.849844 0.522255
113.579 171.732 162.798 -0.0708202 0.849844 0.522255
114.361 171.318 163.578 -0.372399 0.781787 0.500128
115.166 171.679 163.613 -0.372399 0.781787 0.500128
114.518 171.788 162.959 -0.372399 0.781787 0.500128
117.681 170.68 162.465 0.992062 -0.112005 -0.0571623
117.791 171.654 162.482 0.992062 -0.112005 -0.0571623
117.766 171.005 163.308 0.992062 -0.112005 -0.0571623
117.766 171.005 163.308 0.985681 0.116422 0.121979
117.791 171.654 162.482 0.985681 0.116422 0.121979
117.687 171.74 163.243 0.985681 0.116422 0.121979
112.148 171.541 162.709 -0.347634 0.815132 0.463369
112.594 171.694 162.773 -0.347634 0.815132 0.463369
112.523 171.821 162.497 -0.347634 0.815132 0.463369
113.48 171.86 162.336 0.0314435 0.911342 0.410448
112.523 171.821 162.497 0.0314435 0.911342 0.410448
112.594 171.694 162.773 0.0314435 0.911342 0.410448
113.579 171.732 162.798 -0.0436041 0.960023 0.276503
113.48 171.86 162.336 -0.0436041 0.960023 0.276503
112.594 171.694 162.773 -0.0436041 0.960023 0.276503
114.452 171.934 162.538 -0.132717 0.94717 0.291983
113.48 171.86 162.336 -0.132717 0.94717 0.291983
113.579 171.732 162.798 -0.132717 0.94717 0.291983
114.518 171.788 162.959 -0.114747 0.932936 0.341268
114.452 171.934 162.538 -0.114747 0.932936 0.341268
113.579 171.732 162.798 -0.114747 0.932936 0.341268
114.518 171.788 162.959 -0.30204 0.845139 0.441035
115.166 171.679 163.613 -0.30204 0.845139 0.441035
115.369 171.916 163.297 -0.30204 0.845139 0.441035
114.518 171.788 162.959 -0.274445 0.894504 0.352906
115.369 171.916 163.297 -0.274445 0.894504 0.352906
114.452 171.934 162.538 -0.274445 0.894504 0.352906
114.452 171.934 162.538 -0.0715943 0.991306 0.110391
115.369 171.916 163.297 -0.0715943 0.991306 0.110391
115.51 172.016 162.492 -0.0715943 0.991306 0.110391
116.554 172.05 162.485 -0.0319651 0.990436 0.134219
115.51 172.016 162.492 -0.0319651 0.990436 0.134219
116.355 171.927 163.351 -0.0319651 0.990436 0.134219
115.51 172.016 162.492 -0.0173536 0.992614 0.120068
115.369 171.916 163.297 -0.0173536 0.992614 0.120068
116.355 171.927 163.351 -0.0173536 0.992614 0.120068
117.444 171.992 162.474 0.0660628 0.990767 0.118388
116.554 172.05 162.485 0.0660628 0.990767 0.118388
117.309 171.902 163.303 0.0660628 0.990767 0.118388
116.554 172.05 162.485 0.0327526 0.988337 0.148718
116.355 171.927 163.351 0.0327526 0.988337 0.148718
117.309 171.902 163.303 0.0327526 0.988337 0.148718
117.687 171.74 163.243 0.697293 0.71664 0.0144989
117.791 171.654 162.482 0.697293 0.71664 0.0144989
117.444 171.992 162.474 0.697293 0.71664 0.0144989
117.309 171.902 163.303 0.410551 0.896913 0.164301
117.687 171.74 163.243 0.410551 0.896913 0.164301
117.444 171.992 162.474 0.410551 0.896913 0.164301
111.621 168.843 164.48 -0.472995 -0.848775 -0.236339
111.87 169.004 163.401 -0.472995 -0.848775 -0.236339
112.331 168.649 163.756 -0.472995 -0.848775 -0.236339
111.621 168.843 164.48 -0.221077 -0.974226 0.0448135
112.331 168.649 163.756 -0.221077 -0.974226 0.0448135
112.4 168.675 164.673 -0.221077 -0.974226 0.0448135
113.136 168.624 163.401 -0.0189397 -0.999447 0.0273286
113.254 168.651 164.494 -0.0189397 -0.999447 0.0273286
112.331 168.649 163.756 -0.0189397 -0.999447 0.0273286
112.331 168.649 163.756 -0.0215481 -0.9993 0.0305934
113.254 168.651 164.494 -0.0215481 -0.9993 0.0305934
112.4 168.675 164.673 -0.0215481 -0.9993 0.0305934
113.254 168.651 164.494 0.437772 -0.898754 -0.0244442
113.136 168.624 163.401 0.437772 -0.898754 -0.0244442
113.701 168.888 163.767 0.437772 -0.898754 -0.0244442
113.796 169.004 164.752 0.528818 -0.847365 0.0482114
113.254 168.651 164.494 0.528818 -0.847365 0.0482114
113.701 168.888 163.767 0.528818 -0.847365 0.0482114
111.266 169.394 163.774 -0.786717 -0.611738 -0.0827812
111.621 168.843 164.48 -0.786717 -0.611738 -0.0827812
111.325 169.211 164.562 -0.786717 -0.611738 -0.0827812
111.266 169.394 163.774 -0.925598 -0.378072 -0.0181711
111.325 169.211 164.562 -0.925598 -0.378072 -0.0181711
111.076 169.861 163.735 -0.925598 -0.378072 -0.0181711
111.076 169.861 163.735 -0.935716 -0.352721 0.00477192
111.325 169.211 164.562 -0.935716 -0.352721 0.00477192
111.091 169.831 164.364 -0.935716 -0.352721 0.00477192
111.87 169.004 163.401 -0.630894 -0.732578 -0.255545
111.621 168.843 164.48 -0.630894 -0.732578 -0.255545
111.266 169.394 163.774 -0.630894 -0.732578 -0.255545
113.701 168.888 163.767 0.578278 -0.814879 0.0395747
114.463 169.461 164.4 0.578278 -0.814879 0.0395747
113.796 169.004 164.752 0.578278 -0.814879 0.0395747
114.461 169.375 163.533 0.554336 -0.828382 0.0805854
114.463 169.461 164.4 0.554336 -0.828382 0.0805854
113.701 168.888 163.767 0.554336 -0.828382 0.0805854
115.357 169.554 163.374 0.212522 -0.971954 0.100695
115.496 169.67 164.203 0.212522 -0.971954 0.100695
114.461 169.375 163.533 0.212522 -0.971954 0.100695
114.461 169.375 163.533 0.215694 -0.971759 0.09571
115.496 169.67 164.203 0.215694 -0.971759 0.09571
114.463 169.461 164.4 0.215694 -0.971759 0.09571
116.574 170.002 163.848 0.409488 -0.561904 0.718738
115.765 170.115 164.397 0.409488 -0.561904 0.718738
115.496 169.67 164.203 0.409488 -0.561904 0.718738
116.574 170.002 163.848 0.403105 -0.751932 0.521637
115.496 169.67 164.203 0.403105 -0.751932 0.521637
116.462 169.66 163.441 0.403105 -0.751932 0.521637
116.462 169.66 163.441 0.087023 -0.988452 0.124051
115.496 169.67 164.203 0.087023 -0.988452 0.124051
115.357 169.554 163.374 0.087023 -0.988452 0.124051
116.462 169.66 163.441 0.117821 -0.814471 0.568116
117.392 169.739 163.362 0.117821 -0.814471 0.568116
117.376 169.918 163.622 0.117821 -0.814471 0.568116
116.574 170.002 163.848 0.0952313 -0.77447 0.625402
116.462 169.66 163.441 0.0952313 -0.77447 0.625402
117.376 169.918 163.622 0.0952313 -0.77447 0.625402
117.392 169.739 163.362 0.653925 -0.604125 0.455429
117.718 170.116 163.393 0.653925 -0.604125 0.455429
117.376 169.918 163.622 0.653925 -0.604125 0.455429
111.324 170.117 164.483 -0.620166 0.601091 0.504067
111.455 170.788 163.843 -0.620166 0.601091 0.504067
111.103 170.468 163.792 -0.620166 0.601091 0.504067
111.324 170.117 164.483 -0.770121 0.434348 0.467179
111.103 170.468 163.792 -0.770121 0.434348 0.467179
111.091 169.831 164.364 -0.770121 0.434348 0.467179
111.091 169.831 164.364 -0.998795 0.0421426 0.0251692
111.103 170.468 163.792 -0.998795 0.0421426 0.0251692
111.076 169.861 163.735 -0.998795 0.0421426 0.0251692
111.324 170.117 164.483 -0.583862 0.616744 0.52795
111.925 170.605 164.576 -0.583862 0.616744 0.52795
111.455 170.788 163.843 -0.583862 0.616744 0.52795
116.524 170.905 163.874 0.562381 0.00684913 0.82685
115.765 170.115 164.397 0.562381 0.00684913 0.82685
116.574 170.002 163.848 0.562381 0.00684913 0.82685
115.648 170.855 164.39 0.501218 0.0880378 0.860831
115.765 170.115 164.397 0.501218 0.0880378 0.860831
116.524 170.905 163.874 0.501218 0.0880378 0.860831
117.376 169.918 163.622 0.264741 -0.0630637 0.962255
117.445 170.653 163.651 0.264741 -0.0630637 0.962255
116.574 170.002 163.848 0.264741 -0.0630637 0.962255
117.445 170.653 163.651 0.23164 -0.0156521 0.972676
116.524 170.905 163.874 0.23164 -0.0156521 0.972676
116.574 170.002 163.848 0.23164 -0.0156521 0.972676
117.718 170.116 163.393 0.714634 0.0285732 0.698915
117.766 171.005 163.308 0.714634 0.0285732 0.698915
117.445 170.653 163.651 0.714634 0.0285732 0.698915
117.376 169.918 163.622 0.587485 -0.0867678 0.80457
117.718 170.116 163.393 0.587485 -0.0867678 0.80457
117.445 170.653 163.651 0.587485 -0.0867678 0.80457
111.455 170.788 163.843 -0.452159 0.75318 0.477778
111.925 170.605 164.576 -0.452159 0.75318 0.477778
112.207 170.913 164.357 -0.452159 0.75318 0.477778
111.455 170.788 163.843 -0.309377 0.923353 0.227387
112.207 170.913 164.357 -0.309377 0.923353 0.227387
112.244 171.125 163.546 -0.309377 0.923353 0.227387
113.313 171.241 163.561 -0.106667 0.950309 0.292464
112.244 171.125 163.546 -0.106667 0.950309 0.292464
113.088 170.963 164.383 -0.106667 0.950309 0.292464
112.244 171.125 163.546 -0.0615056 0.966301 0.24996
112.207 170.913 164.357 -0.0615056 0.966301 0.24996
113.088 170.963 164.383 -0.0615056 0.966301 0.24996
114.361 171.318 163.578 -0.0739907 0.927582 0.36622
113.313 171.241 163.561 -0.0739907 0.927582 0.36622
114.15 170.987 164.374 -0.0739907 0.927582 0.36622
113.313 171.241 163.561 -0.0187151 0.948611 0.315892
113.088 170.963 164.383 -0.0187151 0.948611 0.315892
114.15 170.987 164.374 -0.0187151 0.948611 0.315892
115.166 171.679 163.613 -0.27675 0.752972 0.597028
115.179 171.105 164.342 -0.27675 0.752972 0.597028
115.745 171.614 163.963 -0.27675 0.752972 0.597028
115.166 171.679 163.613 -0.353783 0.732199 0.581999
114.361 171.318 163.578 -0.353783 0.732199 0.581999
115.179 171.105 164.342 -0.353783 0.732199 0.581999
114.361 171.318 163.578 -0.095864 0.927816 0.36051
114.15 170.987 164.374 -0.095864 0.927816 0.36051
115.179 171.105 164.342 -0.095864 0.927816 0.36051
115.648 170.855 164.39 0.161533 0.467909 0.868889
115.745 171.614 163.963 0.161533 0.467909 0.868889
115.179 171.105 164.342 0.161533 0.467909 0.868889
115.648 170.855 164.39 0.449254 0.393375 0.802139
116.524 170.905 163.874 0.449254 0.393375 0.802139
115.745 171.614 163.963 0.449254 0.393375 0.802139
116.524 170.905 163.874 0.296301 0.209346 0.931869
116.683 171.715 163.642 0.296301 0.209346 0.931869
115.745 171.614 163.963 0.296301 0.209346 0.931869
117.445 170.653 163.651 0.258259 0.0913499 0.961747
117.442 171.536 163.568 0.258259 0.0913499 0.961747
116.524 170.905 163.874 0.258259 0.0913499 0.961747
117.442 171.536 163.568 0.150986 0.245316 0.957613
116.683 171.715 163.642 0.150986 0.245316 0.957613
116.524 170.905 163.874 0.150986 0.245316 0.957613
117.766 171.005 163.308 0.74669 0.137632 0.650778
117.687 171.74 163.243 0.74669 0.137632 0.650778
117.442 171.536 163.568 0.74669 0.137632 0.650778
117.445 170.653 163.651 0.691031 0.0701134 0.719417
117.766 171.005 163.308 0.691031 0.0701134 0.719417
117.442 171.536 163.568 0.691031 0.0701134 0.719417
115.166 171.679 163.613 -0.207642 0.841503 0.498756
115.745 171.614 163.963 -0.207642 0.841503 0.498756
115.369 171.916 163.297 -0.207642 0.841503 0.498756
116.355 171.927 163.351 -0.0333797 0.90313 0.428068
115.369 171.916 163.297 -0.0333797 0.90313 0.428068
115.745 171.614 163.963 -0.0333797 0.90313 0.428068
116.683 171.715 163.642 0.0868501 0.849347 0.52064
116.355 171.927 163.351 0.0868501 0.849347 0.52064
115.745 171.614 163.963 0.0868501 0.849347 0.52064
117.309 171.902 163.303 0.0494481 0.833047 0.550988
116.355 171.927 163.351 0.0494481 0.833047 0.550988
116.683 171.715 163.642 0.0494481 0.833047 0.550988
117.442 171.536 163.568 0.220043 0.623637 0.750105
117.309 171.902 163.303 0.220043 0.623637 0.750105
116.683 171.715 163.642 0.220043 0.623637 0.750105
117.687 171.74 163.243 0.376709 0.629373 0.679691
117.309 171.902 163.303 0.376709 0.629373 0.679691
117.442 171.536 163.568 0.376709 0.629373 0.679691
112.234 168.998 165.348 -0.599449 -0.599576 0.530255
111.325 169.211 164.562 -0.599449 -0.599576 0.530255
111.621 168.843 164.48 -0.599449 -0.599576 0.530255
112.234 168.998 165.348 -0.660181 -0.504766 0.556213
111.621 168.843 164.48 -0.660181 -0.504766 0.556213
112.383 168.77 165.318 -0.660181 -0.504766 0.556213
112.383 168.77 165.318 -0.240718 -0.961121 0.135284
111.621 168.843 164.48 -0.240718 -0.961121 0.135284
112.4 168.675 164.673 -0.240718 -0.961121 0.135284
113.254 168.651 164.494 -0.00721212 -0.99512 0.0984132
113.251 168.737 165.366 -0.00721212 -0.99512 0.0984132
112.4 168.675 164.673 -0.00721212 -0.99512 0.0984132
112.4 168.675 164.673 -0.0451517 -0.988488 0.144404
113.251 168.737 165.366 -0.0451517 -0.988488 0.144404
112.383 168.77 165.318 -0.0451517 -0.988488 0.144404
113.796 169.004 164.752 0.857756 -0.303062 -0.415221
114.095 168.937 165.418 0.857756 -0.303062 -0.415221
114.019 168.781 165.375 0.857756 -0.303062 -0.415221
113.796 169.004 164.752 0.62759 -0.634029 -0.451815
114.019 168.781 165.375 0.62759 -0.634029 -0.451815
113.254 168.651 164.494 0.62759 -0.634029 -0.451815
113.254 168.651 164.494 0.0546191 -0.993636 0.0985077
114.019 168.781 165.375 0.0546191 -0.993636 0.0985077
113.251 168.737 165.366 0.0546191 -0.993636 0.0985077
114.019 168.781 165.375 0.871487 -0.322556 -0.369416
114.095 168.937 165.418 0.871487 -0.322556 -0.369416
114.151 168.932 165.553 0.871487 -0.322556 -0.369416
111.325 169.211 164.562 -0.865236 -0.17699 0.469085
111.3 169.722 164.708 -0.865236 -0.17699 0.469085
111.091 169.831 164.364 -0.865236 -0.17699 0.469085
112.122 169.819 165.211 -0.648463 0.0386302 0.760265
111.325 169.211 164.562 -0.648463 0.0386302 0.760265
112.234 168.998 165.348 -0.648463 0.0386302 0.760265
111.3 169.722 164.708 -0.481141 -0.262148 0.83653
111.325 169.211 164.562 -0.481141 -0.262148 0.83653
112.122 169.819 165.211 -0.481141 -0.262148 0.83653
114.352 169.92 164.804 0.631012 -0.420229 0.652098
113.796 169.004 164.752 0.631012 -0.420229 0.652098
114.463 169.461 164.4 0.631012 -0.420229 0.652098
114.352 169.92 164.804 0.685342 -0.448704 0.573561
113.632 169.577 165.397 0.685342 -0.448704 0.573561
113.796 169.004 164.752 0.685342 -0.448704 0.573561
114.095 168.937 165.418 0.779321 0.553939 -0.292933
113.796 169.004 164.752 0.779321 0.553939 -0.292933
113.632 169.577 165.397 0.779321 0.553939 -0.292933
114.463 169.461 164.4 0.266919 -0.777588 0.569308
115.496 169.67 164.203 0.266919 -0.777588 0.569308
115.233 169.881 164.614 0.266919 -0.777588 0.569308
114.463 169.461 164.4 0.13603 -0.63512 0.760341
115.233 169.881 164.614 0.13603 -0.63512 0.760341
114.352 169.92 164.804 0.13603 -0.63512 0.760341
113.632 169.577 165.397 0.776912 0.55185 -0.303101
114.151 168.932 165.553 0.776912 0.55185 -0.303101
114.095 168.937 165.418 0.776912 0.55185 -0.303101
115.496 169.67 164.203 0.513229 -0.585044 0.627948
115.765 170.115 164.397 0.513229 -0.585044 0.627948
115.233 169.881 164.614 0.513229 -0.585044 0.627948
111.091 169.831 164.364 -0.738555 0.367878 0.56498
111.3 169.722 164.708 -0.738555 0.367878 0.56498
111.324 170.117 164.483 -0.738555 0.367878 0.56498
111.925 170.605 164.576 -0.337725 0.538617 0.771903
112.122 169.819 165.211 -0.337725 0.538617 0.771903
112.498 170.626 164.812 -0.337725 0.538617 0.771903
111.324 170.117 164.483 -0.494491 0.467602 0.732685
112.122 169.819 165.211 -0.494491 0.467602 0.732685
111.925 170.605 164.576 -0.494491 0.467602 0.732685
111.324 170.117 164.483 -0.504114 0.451086 0.736471
111.3 169.722 164.708 -0.504114 0.451086 0.736471
112.122 169.819 165.211 -0.504114 0.451086 0.736471
112.498 170.626 164.812 0.0198259 0.666029 0.745662
113.076 169.99 165.365 0.0198259 0.666029 0.745662
113.501 170.569 164.837 0.0198259 0.666029 0.745662
112.122 169.819 165.211 -0.226004 0.51395 0.827513
113.076 169.99 165.365 -0.226004 0.51395 0.827513
112.498 170.626 164.812 -0.226004 0.51395 0.827513
113.632 169.577 165.397 0.323379 0.497303 0.805056
113.501 170.569 164.837 0.323379 0.497303 0.805056
113.076 169.99 165.365 0.323379 0.497303 0.805056
113.632 169.577 165.397 0.402836 0.489815 0.773178
114.352 169.92 164.804 0.402836 0.489815 0.773178
113.501 170.569 164.837 0.402836 0.489815 0.773178
114.352 169.92 164.804 0.149421 0.146694 0.977831
114.486 170.72 164.664 0.149421 0.146694 0.977831
113.501 170.569 164.837 0.149421 0.146694 0.977831
115.233 169.881 164.614 0.211566 0.0163941 0.977226
115.267 170.563 164.595 0.211566 0.0163941 0.977226
114.352 169.92 164.804 0.211566 0.0163941 0.977226
115.267 170.563 164.595 0.116584 0.152806 0.981355
114.486 170.72 164.664 0.116584 0.152806 0.981355
114.352 169.92 164.804 0.116584 0.152806 0.981355
115.765 170.115 164.397 0.427502 0.0767341 0.900752
115.648 170.855 164.39 0.427502 0.0767341 0.900752
115.267 170.563 164.595 0.427502 0.0767341 0.900752
115.233 169.881 164.614 0.375155 0.00694695 0.926936
115.765 170.115 164.397 0.375155 0.00694695 0.926936
115.267 170.563 164.595 0.375155 0.00694695 0.926936
111.925 170.605 164.576 -0.288265 0.715856 0.635967
112.498 170.626 164.812 -0.288265 0.715856 0.635967
112.207 170.913 164.357 -0.288265 0.715856 0.635967
113.088 170.963 164.383 -0.0627745 0.82553 0.560857
112.207 170.913 164.357 -0.0627745 0.82553 0.560857
112.498 170.626 164.812 -0.0627745 0.82553 0.560857
113.501 170.569 164.837 0.0281969 0.767575 0.640338
113.088 170.963 164.383 0.0281969 0.767575 0.640338
112.498 170.626 164.812 0.0281969 0.767575 0.640338
114.15 170.987 164.374 -0.011341 0.750191 0.661124
113.088 170.963 164.383 -0.011341 0.750191 0.661124
113.501 170.569 164.837 -0.011341 0.750191 0.661124
114.486 170.72 164.664 0.00516958 0.738761 0.673948
114.15 170.987 164.374 0.00516958 0.738761 0.673948
113.501 170.569 164.837 0.00516958 0.738761 0.673948
115.179 171.105 164.342 -0.0587748 0.699636 0.712078
114.15 170.987 164.374 -0.0587748 0.699636 0.712078
114.486 170.72 164.664 -0.0587748 0.699636 0.712078
115.267 170.563 164.595 0.165401 0.439292 0.882987
115.179 171.105 164.342 0.165401 0.439292 0.882987
114.486 170.72 164.664 0.165401 0.439292 0.882987
115.648 170.855 164.39 0.143626 0.437861 0.887496
115.179 171.105 164.342 0.143626 0.437861 0.887496
115.267 170.563 164.595 0.143626 0.437861 0.887496
112.383 168.77 165.318 -0.0627271 -0.81004 0.583009
113.251 168.737 165.366 -0.0627271 -0.81004 0.583009
113.121 168.892 165.566 -0.0627271 -0.81004 0.583009
112.234 168.998 165.348 -0.261213 -0.292229 0.919984
112.383 168.77 165.318 -0.261213 -0.292229 0.919984
113.121 168.892 165.566 -0.261213 -0.292229 0.919984
113.251 168.737 165.366 0.034467 -0.74887 0.66182
114.019 168.781 165.375 0.034467 -0.74887 0.66182
113.896 168.953 165.577 0.034467 -0.74887 0.66182
113.121 168.892 165.566 0.053194 -0.774321 0.630553
113.251 168.737 165.366 0.053194 -0.774321 0.630553
113.896 168.953 165.577 0.053194 -0.774321 0.630553
114.019 168.781 165.375 -0.00270162 -0.760627 0.649183
114.151 168.932 165.553 -0.00270162 -0.760627 0.649183
113.896 168.953 165.577 -0.00270162 -0.760627 0.649183
113.121 168.892 165.566 -0.236311 0.0208623 0.971453
113.142 169.505 165.558 -0.236311 0.0208623 0.971453
112.234 168.998 165.348 -0.236311 0.0208623 0.971453
113.142 169.505 165.558 -0.286746 0.119881 0.950476
112.122 169.819 165.211 -0.286746 0.119881 0.950476
112.234 168.998 165.348 -0.286746 0.119881 0.950476
113.632 169.577 165.397 0.243676 0.362858 0.89942
113.142 169.505 165.558 0.243676 0.362858 0.89942
113.896 168.953 165.577 0.243676 0.362858 0.89942
113.896 168.953 165.577 -0.0146298 0.013559 0.999801
113.142 169.505 165.558 -0.0146298 0.013559 0.999801
113.121 168.892 165.566 -0.0146298 0.013559 0.999801
114.151 168.932 165.553 0.113307 0.319603 0.940753
113.632 169.577 165.397 0.113307 0.319603 0.940753
113.896 168.953 165.577 0.113307 0.319603 0.940753
113.142 169.505 165.558 -0.20889 0.337215 0.91796
113.076 169.99 165.365 -0.20889 0.337215 0.91796
112.122 169.819 165.211 -0.20889 0.337215 0.91796
113.632 169.577 165.397 0.237149 0.38774 0.89074
113.076 169.99 165.365 0.237149 0.38774 0.89074
113.142 169.505 165.558 0.237149 0.38774 0.89074
3 0 1 2
3 3 4 5
3 6 7 8
3 9 10 11
3 12 13 14
3 15 16 17
3 18 19 20
3 21 22 23
3 24 25 26
3 27 28 29
3 30 31 32
3 33 34 35
3 36 37 38
3 39 40 41
3 42 43 44
3 45 46 47
3 48 49 50
3 51 52 53
3 54 55 56
3 57 58 59
3 60 61 62
3 63 64 65
3 66 67 68
3 69 70 71
3 72 73 74
3 75 76 77
3 78 79 80
3 81 82 83
3 84 85 86
3 87 88 89
3 90 91 92
3 93 94 95
3 96 97 98
3 99 100 101
3 102 103 104
3 105 106 107
3 108 109 110
3 111 112 113
3 114 115 116
3 117 118 119
3 120 121 122
3 123 124 125
3 126 127 128
3 129 130 131
3 132 133 134
3 135 136 137
3 138 139 140
3 141 142 143
3 144 145 146
3 147 148 149
3 150 151 152
3 153 154 155
3 156 157 158
3 159 160 161
3 162 163 164
3 165 166 167
3 168 169 170
3 171 172 173
3 174 175 176
3 177 178 179
3 180 181 182
3 183 184 185
3 186 187 188
3 189 190 191
3 192 193 194
3 195 196 197
3 198 199 200
3 201 202 203
3 204 205 206
3 207 208 209
3 210 211 212
3 213 214 215
3 216 217 218
3 219 220 221
3 222 223 224
3 225 226 227
3 228 229 230
3 231 232 233
3 234 235 236
3 237 238 239
3 240 241 242
3 243 244 245
3 246 247 248
3 249 250 251
3 252 253 254
3 255 256 257
3 258 259 260
3 261 262 263
3 264 265 266
3 267 268 269
3 270 271 272
3 273 274 275
3 276 277 278
3 279 280 281
3 282 283 284
3 285 286 287
3 288 289 290
3 291 292 293
3 294 295 296
3 297 298 299
3 300 301 302
3 303 304 305
3 306 307 308
3 309 310 311
3 312 313 314
3 315 316 317
3 318 319 320
3 321 322 323
3 324 325 326
3 327 328 329
3 330 331 332
3 333 334 335
3 336 337 338
3 339 340 341
3 342 343 344
3 345 346 347
3 348 349 350
3 351 352 353
3 354 355 356
3 357 358 359
3 360 361 362
3 363 364 365
3 366 367 368
3 369 370 371
3 372 373 374
3 375 376 377
3 378 379 380
3 381 382 383
3 384 385 386
3 387 388 389
3 390 391 392
3 393 394 395
3 396 397 398
3 399 400 401
3 402 403 404
3 405 406 407
3 408 409 410
3 411 412 413
3 414 415 416
3 417 418 419
3 420 421 422
3 423 424 425
3 426 427 428
3 429 430 431
3 432 433 434
3 435 436 437
3 438 439 440
3 441 442 443
3 444 445 446
3 447 448 449
3 450 451 452
3 453 454 455
3 456 457 458
3 459 460 461
3 462 463 464
3 465 466 467
3 468 469 470
3 471 472 473
3 474 475 476
3 477 478 479
3 480 481 482
3 483 484 485
3 486 487 488
3 489 490 491
3 492 493 494
3 495 496 497
3 498 499 500
3 501 502 503
3 504 505 506
3 507 508 509
3 510 511 512
3 513 514 515
3 516 517 518
3 519 520 521
3 522 523 524
3 525 526 527
3 528 529 530
3 531 532 533
3 534 535 536
3 537 538 539
3 540 541 542
3 543 544 545
3 546 547 548
3 549 550 551
3 552 553 554
3 555 556 557
3 558 559 560
3 561 562 563
3 564 565 566
3 567 568 569
3 570 571 572
3 573 574 575
3 576 577 578
3 579 580 581
3 582 583 584
3 585 586 587
3 588 589 590
3 591 592 593
3 594 595 596
3 597 598 599
3 600 601 602
3 603 604 605
3 606 607 608
3 609 610 611
3 612 613 614
3 615 616 617
3 618 619 620
3 621 622 623
3 624 625 626
3 627 628 629
3 630 631 632
3 633 634 635
3 636 637 638
3 639 640 641
3 642 643 644
3 645 646 647
3 648 649 650
3 651 652 653
3 654 655 656
3 657 658 659
3 660 661 662
3 663 664 665
3 666 667 668
3 669 670 671
3 672 673 674
3 675 676 677
3 678 679 680
3 681 682 683
3 684 685 686
3 687 688 689
3 690 691 692
3 693 694 695
3 696 697 698
3 699 700 701
3 702 703 704
3 705 706 707
3 708 709 710
3 711 712 713
