ply
format ascii 1.0
element vertex 696
property float x
property float y
property float z
property float nx
property float ny
property float nz
element face 232
property list uint uint vertex_indices
end_header
103.601 121.999 169.715 -0.296188 -0.69235 -0.657969
103.607 121.682 170.046 -0.296188 -0.69235 -0.657969
103.001 121.924 170.065 -0.296188 -0.69235 -0.657969
103.601 121.999 169.715 0.317847 -0.0405131 -0.947276
104.247 122.26 169.921 0.317847 -0.0405131 -0.947276
104.237 121.784 169.938 0.317847 -0.0405131 -0.947276
103.607 121.682 170.046 -0.00194908 -0.72228 -0.691598
103.601 121.999 169.715 -0.00194908 -0.72228 -0.691598
104.237 121.784 169.938 -0.00194908 -0.72228 -0.691598
104.237 121.784 169.938 0.620164 -0.0405536 -0.783423
104.247 122.26 169.921 0.620164 -0.0405536 -0.783423
104.571 121.968 170.193 0.620164 -0.0405536 -0.783423
103.321 122.978 169.793 -0.495265 -0.0728937 -0.865678
103.601 121.999 169.715 -0.495265 -0.0728937 -0.865678
103.001 121.924 170.065 -0.495265 -0.0728937 -0.865678
103.82 123.09 170.053 0.376328 0.331288 -0.865231
104.247 122.26 169.921 0.376328 0.331288 -0.865231
103.321 122.978 169.793 0.376328 0.331288 -0.865231
103.321 122.978 169.793 0.245796 0.146523 -0.958183
104.247 122.26 169.921 0.245796 0.146523 -0.958183
103.601 121.999 169.715 0.245796 0.146523 -0.958183
103.016 123.864 170.004 -0.640041 -0.037095 -0.767445
103.364 123.803 169.717 -0.640041 -0.037095 -0.767445
103.321 122.978 169.793 -0.640041 -0.037095 -0.767445
103.602 123.727 169.929 0.463809 -0.0127341 -0.885844
103.82 123.09 170.053 0.463809 -0.0127341 -0.885844
103.321 122.978 169.793 0.463809 -0.0127341 -0.885844
103.364 123.803 169.717 0.643007 -0.103113 -0.758887
103.602 123.727 169.929 0.643007 -0.103113 -0.758887
103.321 122.978 169.793 0.643007 -0.103113 -0.758887
103.364 123.803 169.717 -0.36232 0.721177 -0.590447
103.016 123.864 170.004 -0.36232 0.721177 -0.590447
103.319 124.118 170.129 -0.36232 0.721177 -0.590447
103.602 123.727 169.929 0.606118 0.66209 -0.440748
103.364 123.803 169.717 0.606118 0.66209 -0.440748
103.319 124.118 170.129 0.606118 0.66209 -0.440748
101.546 121.031 170.696 -0.475928 -0.34853 -0.807477
101.386 120.597 170.978 -0.475928 -0.34853 -0.807477
100.956 121.021 171.048 -0.475928 -0.34853 -0.807477
101.546 121.031 170.696 -0.00966855 -0.673522 -0.739104
102.408 121.156 170.571 -0.00966855 -0.673522 -0.739104
102.339 120.567 171.108 -0.00966855 -0.673522 -0.739104
101.386 120.597 170.978 0.0946435 -0.565993 -0.818959
101.546 121.031 170.696 0.0946435 -0.565993 -0.818959
102.339 120.567 171.108 0.0946435 -0.565993 -0.818959
101.408 121.969 170.734 -0.511224 -0.0401026 -0.858511
101.546 121.031 170.696 -0.511224 -0.0401026 -0.858511
100.956 121.021 171.048 -0.511224 -0.0401026 -0.858511
100.885 121.869 171.064 -0.529264 -0.0280156 -0.847994
101.408 121.969 170.734 -0.529264 -0.0280156 -0.847994
100.956 121.021 171.048 -0.529264 -0.0280156 -0.847994
102.408 121.156 170.571 -0.115333 -0.183829 -0.976169
101.546 121.031 170.696 -0.115333 -0.183829 -0.976169
102.171 121.779 170.481 -0.115333 -0.183829 -0.976169
102.171 121.779 170.481 -0.316532 -0.00794206 -0.948549
101.546 121.031 170.696 -0.316532 -0.00794206 -0.948549
101.408 121.969 170.734 -0.316532 -0.00794206 -0.948549
103.001 121.924 170.065 -0.35051 -0.848494 -0.396486
103.607 121.682 170.046 -0.35051 -0.848494 -0.396486
103.356 121.434 170.799 -0.35051 -0.848494 -0.396486
103.001 121.924 170.065 0.354318 -0.689877 -0.631291
103.356 121.434 170.799 0.354318 -0.689877 -0.631291
102.408 121.156 170.571 0.354318 -0.689877 -0.631291
103.001 121.924 170.065 -0.392726 -0.274908 -0.877606
102.408 121.156 170.571 -0.392726 -0.274908 -0.877606
102.171 121.779 170.481 -0.392726 -0.274908 -0.877606
102.339 120.567 171.108 0.35281 -0.652752 -0.670402
102.408 121.156 170.571 0.35281 -0.652752 -0.670402
103.356 121.434 170.799 0.35281 -0.652752 -0.670402
104.237 121.784 169.938 0.136487 -0.981936 -0.131043
104.272 121.693 170.656 0.136487 -0.981936 -0.131043
103.607 121.682 170.046 0.136487 -0.981936 -0.131043
103.607 121.682 170.046 0.230473 -0.944453 -0.234286
104.272 121.693 170.656 0.230473 -0.944453 -0.234286
103.356 121.434 170.799 0.230473 -0.944453 -0.234286
104.272 121.693 170.656 0.553643 -0.822419 -0.13079
104.237 121.784 169.938 0.553643 -0.822419 -0.13079
104.571 121.968 170.193 0.553643 -0.822419 -0.13079
104.595 121.938 170.951 0.632202 -0.773141 -0.0507225
104.272 121.693 170.656 0.632202 -0.773141 -0.0507225
104.571 121.968 170.193 0.632202 -0.773141 -0.0507225
101.408 121.969 170.734 -0.545613 0.394488 -0.739382
101.839 123.106 171.023 -0.545613 0.394488 -0.739382
102.341 122.697 170.434 -0.545613 0.394488 -0.739382
101.408 121.969 170.734 -0.312724 0.00904319 -0.949801
102.341 122.697 170.434 -0.312724 0.00904319 -0.949801
102.171 121.779 170.481 -0.312724 0.00904319 -0.949801
103.001 121.924 170.065 -0.535771 -0.0546643 -0.842592
102.341 122.697 170.434 -0.535771 -0.0546643 -0.842592
103.321 122.978 169.793 -0.535771 -0.0546643 -0.842592
102.171 121.779 170.481 -0.453563 0.0382844 -0.890402
102.341 122.697 170.434 -0.453563 0.0382844 -0.890402
103.001 121.924 170.065 -0.453563 0.0382844 -0.890402
104.247 122.26 169.921 0.776505 0.466585 -0.423484
103.82 123.09 170.053 0.776505 0.466585 -0.423484
104.291 123.106 170.935 0.776505 0.466585 -0.423484
104.247 122.26 169.921 0.762409 0.479953 -0.434025
104.291 123.106 170.935 0.762409 0.479953 -0.434025
104.607 122.538 170.862 0.762409 0.479953 -0.434025
104.247 122.26 169.921 0.775562 0.459384 -0.432979
104.607 122.538 170.862 0.775562 0.459384 -0.432979
104.571 121.968 170.193 0.775562 0.459384 -0.432979
104.571 121.968 170.193 0.999159 -0.0255626 -0.0320532
104.607 122.538 170.862 0.999159 -0.0255626 -0.0320532
104.595 121.938 170.951 0.999159 -0.0255626 -0.0320532
102.447 123.667 170.507 -0.708294 0.128951 -0.694039
102.341 122.697 170.434 -0.708294 0.128951 -0.694039
101.839 123.106 171.023 -0.708294 0.128951 -0.694039
102.125 124.069 171.124 -0.760083 0.287478 -0.582778
102.447 123.667 170.507 -0.760083 0.287478 -0.582778
101.839 123.106 171.023 -0.760083 0.287478 -0.582778
103.321 122.978 169.793 -0.652441 -0.0439532 -0.756563
102.447 123.667 170.507 -0.652441 -0.0439532 -0.756563
103.016 123.864 170.004 -0.652441 -0.0439532 -0.756563
102.341 122.697 170.434 -0.567967 0.122764 -0.813844
102.447 123.667 170.507 -0.567967 0.122764 -0.813844
103.321 122.978 169.793 -0.567967 0.122764 -0.813844
104.291 123.106 170.935 0.763967 0.492177 -0.417272
103.82 123.09 170.053 0.763967 0.492177 -0.417272
103.702 123.9 170.791 0.763967 0.492177 -0.417272
103.82 123.09 170.053 0.941988 0.290733 -0.16773
103.602 123.727 169.929 0.941988 0.290733 -0.16773
103.702 123.9 170.791 0.941988 0.290733 -0.16773
102.447 123.667 170.507 -0.575961 0.514689 -0.635109
102.125 124.069 171.124 -0.575961 0.514689 -0.635109
102.635 124.28 170.833 -0.575961 0.514689 -0.635109
103.016 123.864 170.004 -0.663819 0.499772 -0.556392
102.447 123.667 170.507 -0.663819 0.499772 -0.556392
102.635 124.28 170.833 -0.663819 0.499772 -0.556392
103.016 123.864 170.004 -0.392092 0.736982 -0.550565
102.635 124.28 170.833 -0.392092 0.736982 -0.550565
103.319 124.118 170.129 -0.392092 0.736982 -0.550565
103.319 124.118 170.129 -0.0576552 0.959243 -0.276639
102.635 124.28 170.833 -0.0576552 0.959243 -0.276639
103.327 124.365 170.982 -0.0576552 0.959243 -0.276639
103.702 123.9 170.791 0.737139 0.640888 -0.214216
103.602 123.727 169.929 0.737139 0.640888 -0.214216
103.319 124.118 170.129 0.737139 0.640888 -0.214216
103.327 124.365 170.982 0.721887 0.663056 -0.198081
103.702 123.9 170.791 0.721887 0.663056 -0.198081
103.319 124.118 170.129 0.721887 0.663056 -0.198081
101.358 120.087 171.592 -0.342197 -0.838156 -0.42473
101.406 119.77 172.178 -0.342197 -0.838156 -0.42473
100.9 120.066 172.001 -0.342197 -0.838156 -0.42473
101.358 120.087 171.592 -0.139888 -0.887155 -0.439757
102.183 119.94 171.626 -0.139888 -0.887155 -0.439757
102.213 119.739 172.022 -0.139888 -0.887155 -0.439757
101.406 119.77 172.178 -0.123752 -0.877252 -0.463805
101.358 120.087 171.592 -0.123752 -0.877252 -0.463805
102.213 119.739 172.022 -0.123752 -0.877252 -0.463805
102.213 119.739 172.022 0.303141 -0.840611 -0.448864
102.183 119.94 171.626 0.303141 -0.840611 -0.448864
102.613 119.977 171.846 0.303141 -0.840611 -0.448864
100.427 120.765 171.726 -0.782621 -0.519293 -0.343278
100.312 120.633 172.186 -0.782621 -0.519293 -0.343278
100.107 121.078 171.982 -0.782621 -0.519293 -0.343278
100.9 120.066 172.001 -0.705062 -0.615923 -0.351461
100.312 120.633 172.186 -0.705062 -0.615923 -0.351461
100.427 120.765 171.726 -0.705062 -0.615923 -0.351461
101.358 120.087 171.592 -0.520937 -0.594252 -0.612772
100.9 120.066 172.001 -0.520937 -0.594252 -0.612772
100.427 120.765 171.726 -0.520937 -0.594252 -0.612772
101.358 120.087 171.592 -0.516426 -0.585699 -0.624709
100.427 120.765 171.726 -0.516426 -0.585699 -0.624709
100.956 121.021 171.048 -0.516426 -0.585699 -0.624709
101.358 120.087 171.592 -0.646874 -0.571801 -0.504577
100.956 121.021 171.048 -0.646874 -0.571801 -0.504577
101.386 120.597 170.978 -0.646874 -0.571801 -0.504577
102.339 120.567 171.108 0.063117 -0.769297 -0.635766
101.358 120.087 171.592 0.063117 -0.769297 -0.635766
101.386 120.597 170.978 0.063117 -0.769297 -0.635766
102.183 119.94 171.626 -0.0787917 -0.622842 -0.77837
101.358 120.087 171.592 -0.0787917 -0.622842 -0.77837
102.339 120.567 171.108 -0.0787917 -0.622842 -0.77837
102.339 120.567 171.108 0.460063 -0.63195 -0.623683
103.389 120.928 171.517 0.460063 -0.63195 -0.623683
103.175 120.447 171.846 0.460063 -0.63195 -0.623683
102.339 120.567 171.108 0.488437 -0.584314 -0.648079
103.175 120.447 171.846 0.488437 -0.584314 -0.648079
102.613 119.977 171.846 0.488437 -0.584314 -0.648079
102.339 120.567 171.108 0.393407 -0.641485 -0.65858
102.613 119.977 171.846 0.393407 -0.641485 -0.65858
102.183 119.94 171.626 0.393407 -0.641485 -0.65858
103.175 120.447 171.846 0.730218 -0.57659 -0.366505
103.389 120.928 171.517 0.730218 -0.57659 -0.366505
103.626 120.822 172.155 0.730218 -0.57659 -0.366505
100.345 121.771 171.622 -0.693496 -0.129589 -0.70871
100.427 120.765 171.726 -0.693496 -0.129589 -0.70871
100.107 121.078 171.982 -0.693496 -0.129589 -0.70871
100.05 121.883 172.07 -0.835016 0.00147983 -0.550223
100.345 121.771 171.622 -0.835016 0.00147983 -0.550223
100.107 121.078 171.982 -0.835016 0.00147983 -0.550223
100.956 121.021 171.048 -0.713653 -0.0463727 -0.698963
100.345 121.771 171.622 -0.713653 -0.0463727 -0.698963
100.885 121.869 171.064 -0.713653 -0.0463727 -0.698963
100.427 120.765 171.726 -0.757872 -0.127664 -0.63979
100.345 121.771 171.622 -0.757872 -0.127664 -0.63979
100.956 121.021 171.048 -0.757872 -0.127664 -0.63979
102.339 120.567 171.108 0.452571 -0.718704 -0.527868
103.356 121.434 170.799 0.452571 -0.718704 -0.527868
103.389 120.928 171.517 0.452571 -0.718704 -0.527868
103.389 120.928 171.517 0.628869 -0.69507 -0.348428
104.167 121.571 171.639 0.628869 -0.69507 -0.348428
103.626 120.822 172.155 0.628869 -0.69507 -0.348428
103.389 120.928 171.517 0.602612 -0.638691 -0.478468
103.356 121.434 170.799 0.602612 -0.638691 -0.478468
104.167 121.571 171.639 0.602612 -0.638691 -0.478468
103.356 121.434 170.799 0.257468 -0.961844 -0.0925575
104.272 121.693 170.656 0.257468 -0.961844 -0.0925575
104.167 121.571 171.639 0.257468 -0.961844 -0.0925575
104.167 121.571 171.639 0.621794 -0.782545 -0.0315371
104.272 121.693 170.656 0.621794 -0.782545 -0.0315371
104.595 121.938 170.951 0.621794 -0.782545 -0.0315371
104.517 122.067 171.707 0.791775 -0.583581 0.180349
104.167 121.571 171.639 0.791775 -0.583581 0.180349
104.595 121.938 170.951 0.791775 -0.583581 0.180349
100.248 122.65 171.812 -0.831624 0.0280912 -0.554628
100.345 121.771 171.622 -0.831624 0.0280912 -0.554628
100.05 121.883 172.07 -0.831624 0.0280912 -0.554628
100.081 122.879 172.24 -0.908539 0.0978568 -0.406178
100.248 122.65 171.812 -0.908539 0.0978568 -0.406178
100.05 121.883 172.07 -0.908539 0.0978568 -0.406178
100.885 121.869 171.064 -0.538316 0.436766 -0.72073
100.991 122.679 171.476 -0.538316 0.436766 -0.72073
101.408 121.969 170.734 -0.538316 0.436766 -0.72073
100.885 121.869 171.064 -0.693142 0.396566 -0.601904
100.345 121.771 171.622 -0.693142 0.396566 -0.601904
100.991 122.679 171.476 -0.693142 0.396566 -0.601904
100.345 121.771 171.622 -0.412105 0.149189 -0.89884
100.248 122.65 171.812 -0.412105 0.149189 -0.89884
100.991 122.679 171.476 -0.412105 0.149189 -0.89884
101.408 121.969 170.734 -0.580456 0.400017 -0.709266
100.991 122.679 171.476 -0.580456 0.400017 -0.709266
101.839 123.106 171.023 -0.580456 0.400017 -0.709266
104.595 121.938 170.951 0.994707 -0.00544918 0.102607
104.607 122.538 170.862 0.994707 -0.00544918 0.102607
104.517 122.067 171.707 0.994707 -0.00544918 0.102607
104.517 122.067 171.707 0.982468 0.0976317 0.158821
104.607 122.538 170.862 0.982468 0.0976317 0.158821
104.429 122.751 171.831 0.982468 0.0976317 0.158821
100.248 122.65 171.812 -0.696141 0.483747 -0.53045
100.081 122.879 172.24 -0.696141 0.483747 -0.53045
100.445 123.157 172.016 -0.696141 0.483747 -0.53045
100.991 122.679 171.476 -0.379228 0.468565 -0.797893
100.248 122.65 171.812 -0.379228 0.468565 -0.797893
100.445 123.157 172.016 -0.379228 0.468565 -0.797893
101.229 123.292 171.819 -0.291213 0.551202 -0.781903
100.991 122.679 171.476 -0.291213 0.551202 -0.781903
100.445 123.157 172.016 -0.291213 0.551202 -0.781903
101.229 123.292 171.819 -0.591749 0.556738 -0.582989
101.839 123.106 171.023 -0.591749 0.556738 -0.582989
100.991 122.679 171.476 -0.591749 0.556738 -0.582989
101.229 123.292 171.819 -0.566893 0.592507 -0.572335
101.796 123.977 171.968 -0.566893 0.592507 -0.572335
101.839 123.106 171.023 -0.566893 0.592507 -0.572335
101.796 123.977 171.968 -0.898909 0.301122 -0.318257
102.125 124.069 171.124 -0.898909 0.301122 -0.318257
101.839 123.106 171.023 -0.898909 0.301122 -0.318257
104.291 123.106 170.935 0.815332 0.578816 -0.0143364
103.827 123.783 171.842 0.815332 0.578816 -0.0143364
104.25 123.187 171.852 0.815332 0.578816 -0.0143364
103.702 123.9 170.791 0.804878 0.592681 -0.0300207
103.827 123.783 171.842 0.804878 0.592681 -0.0300207
104.291 123.106 170.935 0.804878 0.592681 -0.0300207
104.429 122.751 171.831 0.875497 0.480029 0.055474
104.607 122.538 170.862 0.875497 0.480029 0.055474
104.291 123.106 170.935 0.875497 0.480029 0.055474
104.25 123.187 171.852 0.92504 0.379786 0.00804951
104.429 122.751 171.831 0.92504 0.379786 0.00804951
104.291 123.106 170.935 0.92504 0.379786 0.00804951
102.415 124.795 171.572 -0.571431 0.583136 -0.577424
102.635 124.28 170.833 -0.571431 0.583136 -0.577424
102.125 124.069 171.124 -0.571431 0.583136 -0.577424
102.415 124.795 171.572 -0.705666 0.553406 -0.442467
102.125 124.069 171.124 -0.705666 0.553406 -0.442467
102.151 124.778 171.972 -0.705666 0.553406 -0.442467
102.151 124.778 171.972 -0.872267 0.387356 -0.298506
102.125 124.069 171.124 -0.872267 0.387356 -0.298506
101.796 123.977 171.968 -0.872267 0.387356 -0.298506
102.635 124.28 170.833 0.0189593 0.829039 -0.558869
103.145 124.946 171.839 0.0189593 0.829039 -0.558869
103.327 124.365 170.982 0.0189593 0.829039 -0.558869
102.415 124.795 171.572 0.0360079 0.824597 -0.564574
103.145 124.946 171.839 0.0360079 0.824597 -0.564574
102.635 124.28 170.833 0.0360079 0.824597 -0.564574
103.327 124.365 170.982 0.586722 0.722382 -0.365952
103.145 124.946 171.839 0.586722 0.722382 -0.365952
103.581 124.594 171.843 0.586722 0.722382 -0.365952
103.327 124.365 170.982 0.643818 0.670349 -0.368957
103.581 124.594 171.843 0.643818 0.670349 -0.368957
103.702 123.9 170.791 0.643818 0.670349 -0.368957
103.702 123.9 170.791 0.953899 0.28883 -0.0815742
103.581 124.594 171.843 0.953899 0.28883 -0.0815742
103.827 123.783 171.842 0.953899 0.28883 -0.0815742
102.415 124.795 171.572 -0.539236 0.77766 -0.323217
102.151 124.778 171.972 -0.539236 0.77766 -0.323217
102.524 125.079 172.071 -0.539236 0.77766 -0.323217
103.145 124.946 171.839 0.000769209 0.869598 -0.493759
102.415 124.795 171.572 0.000769209 0.869598 -0.493759
102.524 125.079 172.071 0.000769209 0.869598 -0.493759
101.406 119.77 172.178 -0.441359 -0.874934 0.199228
101.484 119.9 172.922 -0.441359 -0.874934 0.199228
100.968 120.142 172.842 -0.441359 -0.874934 0.199228
100.9 120.066 172.001 -0.532328 -0.838181 0.118658
101.406 119.77 172.178 -0.532328 -0.838181 0.118658
100.968 120.142 172.842 -0.532328 -0.838181 0.118658
102.213 119.739 172.022 -0.0289053 -0.998322 0.0501804
102.287 119.772 172.732 -0.0289053 -0.998322 0.0501804
101.406 119.77 172.178 -0.0289053 -0.998322 0.0501804
101.406 119.77 172.178 -0.112032 -0.976806 0.182481
102.287 119.772 172.732 -0.112032 -0.976806 0.182481
101.484 119.9 172.922 -0.112032 -0.976806 0.182481
102.613 119.977 171.846 0.38197 -0.870622 -0.310026
103.12 119.949 172.55 0.38197 -0.870622 -0.310026
102.213 119.739 172.022 0.38197 -0.870622 -0.310026
102.213 119.739 172.022 0.212336 -0.976905 0.0238946
103.12 119.949 172.55 0.212336 -0.976905 0.0238946
102.287 119.772 172.732 0.212336 -0.976905 0.0238946
100.312 120.633 172.186 -0.855885 -0.50918 0.0905326
100.327 120.746 172.962 -0.855885 -0.50918 0.0905326
100.105 121.069 172.676 -0.855885 -0.50918 0.0905326
100.107 121.078 171.982 -0.906356 -0.422438 -0.00800694
100.312 120.633 172.186 -0.906356 -0.422438 -0.00800694
100.105 121.069 172.676 -0.906356 -0.422438 -0.00800694
100.968 120.142 172.842 -0.669463 -0.733017 0.120438
100.312 120.633 172.186 -0.669463 -0.733017 0.120438
100.9 120.066 172.001 -0.669463 -0.733017 0.120438
100.327 120.746 172.962 -0.668981 -0.733608 0.119513
100.312 120.633 172.186 -0.668981 -0.733608 0.119513
100.968 120.142 172.842 -0.668981 -0.733608 0.119513
102.613 119.977 171.846 0.57544 -0.68802 -0.442151
103.175 120.447 171.846 0.57544 -0.68802 -0.442151
103.12 119.949 172.55 0.57544 -0.68802 -0.442151
103.12 119.949 172.55 0.729395 -0.583881 -0.356463
103.175 120.447 171.846 0.729395 -0.583881 -0.356463
103.626 120.822 172.155 0.729395 -0.583881 -0.356463
103.12 119.949 172.55 0.770672 -0.572856 -0.279106
103.626 120.822 172.155 0.770672 -0.572856 -0.279106
103.409 120.208 172.814 0.770672 -0.572856 -0.279106
103.409 120.208 172.814 0.972017 -0.16249 0.169645
103.626 120.822 172.155 0.972017 -0.16249 0.169645
103.53 120.974 172.85 0.972017 -0.16249 0.169645
100.107 121.078 171.982 -0.997575 -0.0695064 -0.00365028
100.105 121.069 172.676 -0.997575 -0.0695064 -0.00365028
100.05 121.883 172.07 -0.997575 -0.0695064 -0.00365028
100.105 121.069 172.676 -0.998147 -0.0258332 0.0550963
100.091 121.922 172.821 -0.998147 -0.0258332 0.0550963
100.05 121.883 172.07 -0.998147 -0.0258332 0.0550963
103.789 121.932 172.61 0.843683 -0.30512 0.441703
103.626 120.822 172.155 0.843683 -0.30512 0.441703
104.167 121.571 171.639 0.843683 -0.30512 0.441703
103.789 121.932 172.61 0.960027 -0.214808 0.17946
103.53 120.974 172.85 0.960027 -0.214808 0.17946
103.626 120.822 172.155 0.960027 -0.214808 0.17946
104.167 121.571 171.639 0.688174 -0.550654 0.472437
104.517 122.067 171.707 0.688174 -0.550654 0.472437
103.789 121.932 172.61 0.688174 -0.550654 0.472437
100.05 121.883 172.07 -0.998365 0.0223826 0.0525882
100.091 121.922 172.821 -0.998365 0.0223826 0.0525882
100.081 122.879 172.24 -0.998365 0.0223826 0.0525882
100.091 121.922 172.821 -0.997441 0.0298998 0.0649454
100.122 122.788 172.905 -0.997441 0.0298998 0.0649454
100.081 122.879 172.24 -0.997441 0.0298998 0.0649454
103.738 123.104 172.648 0.765955 0.0125557 0.642771
103.789 121.932 172.61 0.765955 0.0125557 0.642771
104.429 122.751 171.831 0.765955 0.0125557 0.642771
103.789 121.932 172.61 0.779354 -0.0134344 0.62644
104.517 122.067 171.707 0.779354 -0.0134344 0.62644
104.429 122.751 171.831 0.779354 -0.0134344 0.62644
100.365 123.732 172.707 -0.698458 0.508034 -0.504041
100.445 123.157 172.016 -0.698458 0.508034 -0.504041
100.081 122.879 172.24 -0.698458 0.508034 -0.504041
100.365 123.732 172.707 -0.732323 0.497755 -0.464697
100.081 122.879 172.24 -0.732323 0.497755 -0.464697
100.143 123.537 172.847 -0.732323 0.497755 -0.464697
100.143 123.537 172.847 -0.997311 0.0331224 0.0653776
100.081 122.879 172.24 -0.997311 0.0331224 0.0653776
100.122 122.788 172.905 -0.997311 0.0331224 0.0653776
100.445 123.157 172.016 -0.281096 0.737913 -0.613571
101.064 123.767 172.466 -0.281096 0.737913 -0.613571
101.229 123.292 171.819 -0.281096 0.737913 -0.613571
100.365 123.732 172.707 -0.254868 0.728074 -0.636357
101.064 123.767 172.466 -0.254868 0.728074 -0.636357
100.445 123.157 172.016 -0.254868 0.728074 -0.636357
101.229 123.292 171.819 -0.563454 0.590779 -0.577494
101.064 123.767 172.466 -0.563454 0.590779 -0.577494
101.796 123.977 171.968 -0.563454 0.590779 -0.577494
104.25 123.187 171.852 0.788301 0.298476 0.538046
103.738 123.104 172.648 0.788301 0.298476 0.538046
104.429 122.751 171.831 0.788301 0.298476 0.538046
104.25 123.187 171.852 0.700554 0.505916 0.503262
103.827 123.783 171.842 0.700554 0.505916 0.503262
103.738 123.104 172.648 0.700554 0.505916 0.503262
103.827 123.783 171.842 0.959436 0.154444 0.23586
103.564 124.117 172.692 0.959436 0.154444 0.23586
103.738 123.104 172.648 0.959436 0.154444 0.23586
101.277 124.041 172.998 -0.179543 0.902079 -0.392451
101.064 123.767 172.466 -0.179543 0.902079 -0.392451
100.365 123.732 172.707 -0.179543 0.902079 -0.392451
101.277 124.041 172.998 -0.431733 0.860586 -0.270181
101.796 123.977 171.968 -0.431733 0.860586 -0.270181
101.064 123.767 172.466 -0.431733 0.860586 -0.270181
101.277 124.041 172.998 -0.629237 0.689292 -0.359079
102.079 124.674 172.808 -0.629237 0.689292 -0.359079
101.796 123.977 171.968 -0.629237 0.689292 -0.359079
102.079 124.674 172.808 -0.914107 0.40456 -0.0272079
102.151 124.778 171.972 -0.914107 0.40456 -0.0272079
101.796 123.977 171.968 -0.914107 0.40456 -0.0272079
103.827 123.783 171.842 0.941695 0.284798 0.179165
103.581 124.594 171.843 0.941695 0.284798 0.179165
103.564 124.117 172.692 0.941695 0.284798 0.179165
103.564 124.117 172.692 0.976861 0.177428 0.119425
103.581 124.594 171.843 0.976861 0.177428 0.119425
103.441 124.844 172.623 0.976861 0.177428 0.119425
102.151 124.778 171.972 -0.718461 0.695089 0.0257842
102.079 124.674 172.808 -0.718461 0.695089 0.0257842
102.404 125.014 172.677 -0.718461 0.695089 0.0257842
102.524 125.079 172.071 -0.619628 0.783904 -0.0394456
102.151 124.778 171.972 -0.619628 0.783904 -0.0394456
102.404 125.014 172.677 -0.619628 0.783904 -0.0394456
103.145 124.946 171.839 0.179902 0.980678 -0.0768477
102.524 125.079 172.071 0.179902 0.980678 -0.0768477
103.075 125.027 172.702 0.179902 0.980678 -0.0768477
102.524 125.079 172.071 -0.0221745 0.994664 0.100755
102.404 125.014 172.677 -0.0221745 0.994664 0.100755
103.075 125.027 172.702 -0.0221745 0.994664 0.100755
103.441 124.844 172.623 0.623302 0.770328 -0.134498
103.581 124.594 171.843 0.623302 0.770328 -0.134498
103.145 124.946 171.839 0.623302 0.770328 -0.134498
103.075 125.027 172.702 0.438233 0.897569 -0.0481832
103.441 124.844 172.623 0.438233 0.897569 -0.0481832
103.145 124.946 171.839 0.438233 0.897569 -0.0481832
101.484 119.9 172.922 0.0119407 -0.806131 0.591617
102.287 119.772 172.732 0.0119407 -0.806131 0.591617
102.278 120.1 173.178 0.0119407 -0.806131 0.591617
102.287 119.772 172.732 0.224038 -0.971011 0.0833371
103.12 119.949 172.55 0.224038 -0.971011 0.0833371
103.078 119.973 172.947 0.224038 -0.971011 0.0833371
102.278 120.1 173.178 0.0434776 -0.805111 0.591528
102.287 119.772 172.732 0.0434776 -0.805111 0.591528
103.078 119.973 172.947 0.0434776 -0.805111 0.591528
103.12 119.949 172.55 0.605502 -0.787868 0.112387
103.409 120.208 172.814 0.605502 -0.787868 0.112387
103.078 119.973 172.947 0.605502 -0.787868 0.112387
100.327 120.746 172.962 -0.888623 -0.358387 0.286195
100.276 121.187 173.355 -0.888623 -0.358387 0.286195
100.105 121.069 172.676 -0.888623 -0.358387 0.286195
100.327 120.746 172.962 -0.672645 -0.53436 0.511867
100.806 120.932 173.785 -0.672645 -0.53436 0.511867
100.276 121.187 173.355 -0.672645 -0.53436 0.511867
100.968 120.142 172.842 -0.554307 -0.682498 0.476382
100.806 120.932 173.785 -0.554307 -0.682498 0.476382
100.327 120.746 172.962 -0.554307 -0.682498 0.476382
100.968 120.142 172.842 -0.350144 -0.74683 0.565371
101.379 120.562 173.652 -0.350144 -0.74683 0.565371
100.806 120.932 173.785 -0.350144 -0.74683 0.565371
100.968 120.142 172.842 -0.418216 -0.701909 0.576558
101.484 119.9 172.922 -0.418216 -0.701909 0.576558
101.379 120.562 173.652 -0.418216 -0.701909 0.576558
102.278 120.1 173.178 -0.0291737 -0.742483 0.669229
101.379 120.562 173.652 -0.0291737 -0.742483 0.669229
101.484 119.9 172.922 -0.0291737 -0.742483 0.669229
102.128 120.901 173.97 0.0149084 -0.701373 0.712638
101.379 120.562 173.652 0.0149084 -0.701373 0.712638
102.278 120.1 173.178 0.0149084 -0.701373 0.712638
102.128 120.901 173.97 0.45421 -0.522354 0.721692
103.099 120.72 173.228 0.45421 -0.522354 0.721692
102.544 121.256 173.965 0.45421 -0.522354 0.721692
102.128 120.901 173.97 0.411969 -0.600356 0.68546
102.278 120.1 173.178 0.411969 -0.600356 0.68546
103.099 120.72 173.228 0.411969 -0.600356 0.68546
102.278 120.1 173.178 0.208505 -0.349245 0.913539
103.078 119.973 172.947 0.208505 -0.349245 0.913539
103.099 120.72 173.228 0.208505 -0.349245 0.913539
103.409 120.208 172.814 0.698504 -0.143528 0.701065
103.53 120.974 172.85 0.698504 -0.143528 0.701065
103.099 120.72 173.228 0.698504 -0.143528 0.701065
103.078 119.973 172.947 0.535602 -0.310257 0.785411
103.409 120.208 172.814 0.535602 -0.310257 0.785411
103.099 120.72 173.228 0.535602 -0.310257 0.785411
100.276 121.187 173.355 -0.913641 0.0614985 0.401843
100.378 122.13 173.442 -0.913641 0.0614985 0.401843
100.091 121.922 172.821 -0.913641 0.0614985 0.401843
100.105 121.069 172.676 -0.965515 -0.0590875 0.253553
100.276 121.187 173.355 -0.965515 -0.0590875 0.253553
100.091 121.922 172.821 -0.965515 -0.0590875 0.253553
100.825 121.743 174.01 -0.671267 -0.183342 0.718183
100.276 121.187 173.355 -0.671267 -0.183342 0.718183
100.806 120.932 173.785 -0.671267 -0.183342 0.718183
100.378 122.13 173.442 -0.776804 0.0256273 0.629221
100.276 121.187 173.355 -0.776804 0.0256273 0.629221
100.825 121.743 174.01 -0.776804 0.0256273 0.629221
103.239 121.684 173.251 0.747263 -0.124425 0.652776
102.544 121.256 173.965 0.747263 -0.124425 0.652776
103.099 120.72 173.228 0.747263 -0.124425 0.652776
102.638 122.027 173.86 0.714061 0.00860915 0.700031
102.544 121.256 173.965 0.714061 0.00860915 0.700031
103.239 121.684 173.251 0.714061 0.00860915 0.700031
103.53 120.974 172.85 0.766828 -0.0470138 0.640128
103.789 121.932 172.61 0.766828 -0.0470138 0.640128
103.239 121.684 173.251 0.766828 -0.0470138 0.640128
103.099 120.72 173.228 0.692609 -0.117855 0.71162
103.53 120.974 172.85 0.692609 -0.117855 0.71162
103.239 121.684 173.251 0.692609 -0.117855 0.71162
100.378 122.13 173.442 -0.856161 0.0837721 0.509874
100.35 123.092 173.237 -0.856161 0.0837721 0.509874
100.122 122.788 172.905 -0.856161 0.0837721 0.509874
100.091 121.922 172.821 -0.906664 -0.00776931 0.421782
100.378 122.13 173.442 -0.906664 -0.00776931 0.421782
100.122 122.788 172.905 -0.906664 -0.00776931 0.421782
101.191 122.339 174.076 -0.633051 0.309779 0.709425
100.378 122.13 173.442 -0.633051 0.309779 0.709425
100.825 121.743 174.01 -0.633051 0.309779 0.709425
101.191 122.339 174.076 -0.634663 0.253072 0.730176
101.08 122.959 173.765 -0.634663 0.253072 0.730176
100.378 122.13 173.442 -0.634663 0.253072 0.730176
101.08 122.959 173.765 -0.55975 0.157009 0.813651
100.35 123.092 173.237 -0.55975 0.157009 0.813651
100.378 122.13 173.442 -0.55975 0.157009 0.813651
101.191 122.339 174.076 -0.416575 0.347218 0.840182
101.595 122.852 174.065 -0.416575 0.347218 0.840182
101.08 122.959 173.765 -0.416575 0.347218 0.840182
103.255 122.709 173.228 0.712938 0.00454669 0.701213
102.638 122.027 173.86 0.712938 0.00454669 0.701213
103.239 121.684 173.251 0.712938 0.00454669 0.701213
102.524 122.993 173.882 0.679152 0.063015 0.731288
102.638 122.027 173.86 0.679152 0.063015 0.731288
103.255 122.709 173.228 0.679152 0.063015 0.731288
103.789 121.932 172.61 0.764102 0.0124021 0.644976
103.738 123.104 172.648 0.764102 0.0124021 0.644976
103.255 122.709 173.228 0.764102 0.0124021 0.644976
103.239 121.684 173.251 0.758224 0.0027788 0.651988
103.789 121.932 172.61 0.758224 0.0027788 0.651988
103.255 122.709 173.228 0.758224 0.0027788 0.651988
100.35 123.092 173.237 -0.707147 0.251201 0.66094
100.411 123.785 173.04 -0.707147 0.251201 0.66094
100.143 123.537 172.847 -0.707147 0.251201 0.66094
100.122 122.788 172.905 -0.84971 0.0641793 0.52333
100.35 123.092 173.237 -0.84971 0.0641793 0.52333
100.143 123.537 172.847 -0.84971 0.0641793 0.52333
101.08 122.959 173.765 -0.543832 0.224467 0.808617
101.024 123.693 173.524 -0.543832 0.224467 0.808617
100.35 123.092 173.237 -0.543832 0.224467 0.808617
101.024 123.693 173.524 -0.571314 0.271508 0.774521
100.411 123.785 173.04 -0.571314 0.271508 0.774521
100.35 123.092 173.237 -0.571314 0.271508 0.774521
101.674 123.668 173.826 -0.435094 0.291171 0.852005
101.08 122.959 173.765 -0.435094 0.291171 0.852005
101.595 122.852 174.065 -0.435094 0.291171 0.852005
101.024 123.693 173.524 -0.39933 0.25884 0.87951
101.08 122.959 173.765 -0.39933 0.25884 0.87951
101.674 123.668 173.826 -0.39933 0.25884 0.87951
103.172 123.844 173.189 0.681117 0.0748554 0.728338
102.524 122.993 173.882 0.681117 0.0748554 0.728338
103.255 122.709 173.228 0.681117 0.0748554 0.728338
102.462 123.929 173.721 0.604124 0.173688 0.777732
102.524 122.993 173.882 0.604124 0.173688 0.777732
103.172 123.844 173.189 0.604124 0.173688 0.777732
103.738 123.104 172.648 0.753412 0.101395 0.649684
103.564 124.117 172.692 0.753412 0.101395 0.649684
103.172 123.844 173.189 0.753412 0.101395 0.649684
103.255 122.709 173.228 0.739602 0.0770259 0.668623
103.738 123.104 172.648 0.739602 0.0770259 0.668623
103.172 123.844 173.189 0.739602 0.0770259 0.668623
100.143 123.537 172.847 -0.669974 0.741969 -0.0248443
100.411 123.785 173.04 -0.669974 0.741969 -0.0248443
100.365 123.732 172.707 -0.669974 0.741969 -0.0248443
101.277 124.041 172.998 -0.286009 0.951678 -0.111837
100.365 123.732 172.707 -0.286009 0.951678 -0.111837
100.411 123.785 173.04 -0.286009 0.951678 -0.111837
101.024 123.693 173.524 -0.231692 0.859035 0.456484
101.277 124.041 172.998 -0.231692 0.859035 0.456484
100.411 123.785 173.04 -0.231692 0.859035 0.456484
102.079 124.674 172.808 -0.399917 0.750545 0.526068
102.13 124.128 173.625 -0.399917 0.750545 0.526068
102.547 124.701 173.124 -0.399917 0.750545 0.526068
101.277 124.041 172.998 -0.452829 0.728218 0.514437
102.13 124.128 173.625 -0.452829 0.728218 0.514437
102.079 124.674 172.808 -0.452829 0.728218 0.514437
101.277 124.041 172.998 -0.46842 0.69954 0.539654
101.674 123.668 173.826 -0.46842 0.69954 0.539654
102.13 124.128 173.625 -0.46842 0.69954 0.539654
101.277 124.041 172.998 -0.188312 0.858476 0.47703
101.024 123.693 173.524 -0.188312 0.858476 0.47703
101.674 123.668 173.826 -0.188312 0.858476 0.47703
102.462 123.929 173.721 0.129434 0.597312 0.791496
102.547 124.701 173.124 0.129434 0.597312 0.791496
102.13 124.128 173.625 0.129434 0.597312 0.791496
102.462 123.929 173.721 0.566217 0.464178 0.681129
103.172 123.844 173.189 0.566217 0.464178 0.681129
102.547 124.701 173.124 0.566217 0.464178 0.681129
103.172 123.844 173.189 0.210123 0.224593 0.951528
103.27 124.716 172.961 0.210123 0.224593 0.951528
102.547 124.701 173.124 0.210123 0.224593 0.951528
103.564 124.117 172.692 0.845107 0.190727 0.499418
103.441 124.844 172.623 0.845107 0.190727 0.499418
103.27 124.716 172.961 0.845107 0.190727 0.499418
103.172 123.844 173.189 0.759769 0.0833672 0.644826
103.564 124.117 172.692 0.759769 0.0833672 0.644826
103.27 124.716 172.961 0.759769 0.0833672 0.644826
102.079 124.674 172.808 -0.447434 0.659211 0.604354
102.547 124.701 173.124 -0.447434 0.659211 0.604354
102.404 125.014 172.677 -0.447434 0.659211 0.604354
103.075 125.027 172.702 -0.0365736 0.813152 0.580901
102.404 125.014 172.677 -0.0365736 0.813152 0.580901
102.547 124.701 173.124 -0.0365736 0.813152 0.580901
103.27 124.716 172.961 0.146763 0.686261 0.712395
103.075 125.027 172.702 0.146763 0.686261 0.712395
102.547 124.701 173.124 0.146763 0.686261 0.712395
103.441 124.844 172.623 0.470098 0.720042 0.510439
103.075 125.027 172.702 0.470098 0.720042 0.510439
103.27 124.716 172.961 0.470098 0.720042 0.510439
101.379 120.562 173.652 -0.305486 -0.704602 0.64048
101.303 121.041 174.143 -0.305486 -0.704602 0.64048
100.806 120.932 173.785 -0.305486 -0.704602 0.64048
101.303 121.041 174.143 0.0255656 -0.713377 0.700314
101.379 120.562 173.652 0.0255656 -0.713377 0.700314
102.128 120.901 173.97 0.0255656 -0.713377 0.700314
101.303 121.041 174.143 -0.212701 -0.624909 0.751163
101.508 121.663 174.718 -0.212701 -0.624909 0.751163
101.128 121.614 174.57 -0.212701 -0.624909 0.751163
101.303 121.041 174.143 -0.359993 -0.625776 0.691961
101.128 121.614 174.57 -0.359993 -0.625776 0.691961
100.806 120.932 173.785 -0.359993 -0.625776 0.691961
100.806 120.932 173.785 -0.884501 -0.105336 0.454492
101.128 121.614 174.57 -0.884501 -0.105336 0.454492
100.825 121.743 174.01 -0.884501 -0.105336 0.454492
102.128 120.901 173.97 0.0360725 -0.685168 0.727492
101.508 121.663 174.718 0.0360725 -0.685168 0.727492
101.303 121.041 174.143 0.0360725 -0.685168 0.727492
102.175 121.667 174.679 0.0470995 -0.680174 0.731536
101.508 121.663 174.718 0.0470995 -0.680174 0.731536
102.128 120.901 173.97 0.0470995 -0.680174 0.731536
102.175 121.667 174.679 0.51769 -0.598091 0.611787
102.128 120.901 173.97 0.51769 -0.598091 0.611787
102.544 121.256 173.965 0.51769 -0.598091 0.611787
102.175 121.667 174.679 0.830369 -0.173815 0.529411
102.544 121.256 173.965 0.830369 -0.173815 0.529411
102.349 122.035 174.527 0.830369 -0.173815 0.529411
102.349 122.035 174.527 0.915708 -0.0574419 0.397719
102.544 121.256 173.965 0.915708 -0.0574419 0.397719
102.638 122.027 173.86 0.915708 -0.0574419 0.397719
100.825 121.743 174.01 -0.82875 0.242047 0.504566
101.128 121.614 174.57 -0.82875 0.242047 0.504566
101.28 121.922 174.672 -0.82875 0.242047 0.504566
101.191 122.339 174.076 -0.791376 0.438539 0.42592
100.825 121.743 174.01 -0.791376 0.438539 0.42592
101.28 121.922 174.672 -0.791376 0.438539 0.42592
101.595 122.852 174.065 -0.169709 0.576413 0.799341
101.948 122.117 174.669 -0.169709 0.576413 0.799341
102.153 122.911 174.141 -0.169709 0.576413 0.799341
101.595 122.852 174.065 -0.488612 0.402396 0.774168
101.191 122.339 174.076 -0.488612 0.402396 0.774168
101.948 122.117 174.669 -0.488612 0.402396 0.774168
101.191 122.339 174.076 -0.226832 0.781137 0.581698
101.28 121.922 174.672 -0.226832 0.781137 0.581698
101.948 122.117 174.669 -0.226832 0.781137 0.581698
102.153 122.911 174.141 0.379611 0.443046 0.812161
101.948 122.117 174.669 0.379611 0.443046 0.812161
102.349 122.035 174.527 0.379611 0.443046 0.812161
102.153 122.911 174.141 0.44418 0.442821 0.778854
102.349 122.035 174.527 0.44418 0.442821 0.778854
102.524 122.993 173.882 0.44418 0.442821 0.778854
102.524 122.993 173.882 0.913421 0.0984816 0.394922
102.349 122.035 174.527 0.913421 0.0984816 0.394922
102.638 122.027 173.86 0.913421 0.0984816 0.394922
102.153 122.911 174.141 -0.192865 0.269896 0.943377
102.233 123.694 173.933 -0.192865 0.269896 0.943377
101.674 123.668 173.826 -0.192865 0.269896 0.943377
101.595 122.852 174.065 -0.159465 0.290997 0.943341
102.153 122.911 174.141 -0.159465 0.290997 0.943341
101.674 123.668 173.826 -0.159465 0.290997 0.943341
102.524 122.993 173.882 0.56402 0.176032 0.80678
102.462 123.929 173.721 0.56402 0.176032 0.80678
102.233 123.694 173.933 0.56402 0.176032 0.80678
102.153 122.911 174.141 0.538853 0.164158 0.82625
102.524 122.993 173.882 0.538853 0.164158 0.82625
102.233 123.694 173.933 0.538853 0.164158 0.82625
101.674 123.668 173.826 -0.182384 0.539671 0.821883
102.233 123.694 173.933 -0.182384 0.539671 0.821883
102.13 124.128 173.625 -0.182384 0.539671 0.821883
102.462 123.929 173.721 0.126176 0.593509 0.794876
102.13 124.128 173.625 0.126176 0.593509 0.794876
102.233 123.694 173.933 0.126176 0.593509 0.794876
101.128 121.614 174.57 -0.344809 -0.13722 0.928589
101.508 121.663 174.718 -0.344809 -0.13722 0.928589
101.28 121.922 174.672 -0.344809 -0.13722 0.928589
101.948 122.117 174.669 -0.0387639 0.143896 0.988833
101.28 121.922 174.672 -0.0387639 0.143896 0.988833
101.508 121.663 174.718 -0.0387639 0.143896 0.988833
102.175 121.667 174.679 0.0582464 0.0509175 0.997003
101.948 122.117 174.669 0.0582464 0.0509175 0.997003
101.508 121.663 174.718 0.0582464 0.0509175 0.997003
102.349 122.035 174.527 0.364722 0.20348 0.908611
101.948 122.117 174.669 0.364722 0.20348 0.908611
102.175 121.667 174.679 0.364722 0.20348 0.908611
3 0 1 2
3 3 4 5
3 6 7 8
3 9 10 11
3 12 13 14
3 15 16 17
3 18 19 20
3 21 22 23
3 24 25 26
3 27 28 29
3 30 31 32
3 33 34 35
3 36 37 38
3 39 40 41
3 42 43 44
3 45 46 47
3 48 49 50
3 51 52 53
3 54 55 56
3 57 58 59
3 60 61 62
3 63 64 65
3 66 67 68
3 69 70 71
3 72 73 74
3 75 76 77
3 78 79 80
3 81 82 83
3 84 85 86
3 87 88 89
3 90 91 92
3 93 94 95
3 96 97 98
3 99 100 101
3 102 103 104
3 105 106 107
3 108 109 110
3 111 112 113
3 114 115 116
3 117 118 119
3 120 121 122
3 123 124 125
3 126 127 128
3 129 130 131
3 132 133 134
3 135 136 137
3 138 139 140
3 141 142 143
3 144 145 146
3 147 148 149
3 150 151 152
3 153 154 155
3 156 157 158
3 159 160 161
3 162 163 164
3 165 166 167
3 168 169 170
3 171 172 173
3 174 175 176
3 177 178 179
3 180 181 182
3 183 184 185
3 186 187 188
3 189 190 191
3 192 193 194
3 195 196 197
3 198 199 200
3 201 202 203
3 204 205 206
3 207 208 209
3 210 211 212
3 213 214 215
3 216 217 218
3 219 220 221
3 222 223 224
3 225 226 227
3 228 229 230
3 231 232 233
3 234 235 236
3 237 238 239
3 240 241 242
3 243 244 245
3 246 247 248
3 249 250 251
3 252 253 254
3 255 256 257
3 258 259 260
3 261 262 263
3 264 265 266
3 267 268 269
3 270 271 272
3 273 274 275
3 276 277 278
3 279 280 281
3 282 283 284
3 285 286 287
3 288 289 290
3 291 292 293
3 294 295 296
3 297 298 299
3 300 301 302
3 303 304 305
3 306 307 308
3 309 310 311
3 312 313 314
3 315 316 317
3 318 319 320
3 321 322 323
3 324 325 326
3 327 328 329
3 330 331 332
3 333 334 335
3 336 337 338
3 339 340 341
3 342 343 344
3 345 346 347
3 348 349 350
3 351 352 353
3 354 355 356
3 357 358 359
3 360 361 362
3 363 364 365
3 366 367 368
3 369 370 371
3 372 373 374
3 375 376 377
3 378 379 380
3 381 382 383
3 384 385 386
3 387 388 389
3 390 391 392
3 393 394 395
3 396 397 398
3 399 400 401
3 402 403 404
3 405 406 407
3 408 409 410
3 411 412 413
3 414 415 416
3 417 418 419
3 420 421 422
3 423 424 425
3 426 427 428
3 429 430 431
3 432 433 434
3 435 436 437
3 438 439 440
3 441 442 443
3 444 445 446
3 447 448 449
3 450 451 452
3 453 454 455
3 456 457 458
3 459 460 461
3 462 463 464
3 465 466 467
3 468 469 470
3 471 472 473
3 474 475 476
3 477 478 479
3 480 481 482
3 483 484 485
3 486 487 488
3 489 490 491
3 492 493 494
3 495 496 497
3 498 499 500
3 501 502 503
3 504 505 506
3 507 508 509
3 510 511 512
3 513 514 515
3 516 517 518
3 519 520 521
3 522 523 524
3 525 526 527
3 528 529 530
3 531 532 533
3 534 535 536
3 537 538 539
3 540 541 542
3 543 544 545
3 546 547 548
3 549 550 551
3 552 553 554
3 555 556 557
3 558 559 560
3 561 562 563
3 564 565 566
3 567 568 569
3 570 571 572
3 573 574 575
3 576 577 578
3 579 580 581
3 582 583 584
3 585 586 587
3 588 589 590
3 591 592 593
3 594 595 596
3 597 598 599
3 600 601 602
3 603 604 605
3 606 607 608
3 609 610 611
3 612 613 614
3 615 616 617
3 618 619 620
3 621 622 623
3 624 625 626
3 627 628 629
3 630 631 632
3 633 634 635
3 636 637 638
3 639 640 641
3 642 643 644
3 645 646 647
3 648 649 650
3 651 652 653
3 654 655 656
3 657 658 659
3 660 661 662
3 663 664 665
3 666 667 668
3 669 670 671
3 672 673 674
3 675 676 677
3 678 679 680
3 681 682 683
3 684 685 686
3 687 688 689
3 690 691 692
3 693 694 695
