solid ascii
 facet normal -0.337866 -0.32462 -0.883441
  outer loop
   vertex 67.3861 177.052 156.253
   vertex 67.2744 176.813 156.384
   vertex 66.969 176.947 156.451
  endloop
 endfacet
 facet normal 0.127289 -0.416309 -0.900269
  outer loop
   vertex 67.3861 177.052 156.253
   vertex 68.3983 177.248 156.306
   vertex 68.1461 176.763 156.494
  endloop
 endfacet
 facet normal 0.0797959 -0.506539 -0.858517
  outer loop
   vertex 67.2744 176.813 156.384
   vertex 67.3861 177.052 156.253
   vertex 68.1461 176.763 156.494
  endloop
 endfacet
 facet normal -0.14927 -0.776685 -0.611947
  outer loop
   vertex 68.3983 177.248 156.306
   vertex 69.426 177.106 156.235
   vertex 69.3053 176.928 156.49
  endloop
 endfacet
 facet normal 0.0516109 -0.385149 -0.92141
  outer loop
   vertex 68.1461 176.763 156.494
   vertex 68.3983 177.248 156.306
   vertex 69.3053 176.928 156.49
  endloop
 endfacet
 facet normal 0.0998698 -0.690782 -0.716133
  outer loop
   vertex 69.426 177.106 156.235
   vertex 70.1217 177.143 156.296
   vertex 70.1079 177.027 156.406
  endloop
 endfacet
 facet normal 0.0441614 -0.829324 -0.55702
  outer loop
   vertex 69.3053 176.928 156.49
   vertex 69.426 177.106 156.235
   vertex 70.1079 177.027 156.406
  endloop
 endfacet
 facet normal 0.598747 -0.587511 -0.544365
  outer loop
   vertex 70.1079 177.027 156.406
   vertex 70.1217 177.143 156.296
   vertex 70.4389 177.181 156.604
  endloop
 endfacet
 facet normal -0.472668 0.389408 -0.790535
  outer loop
   vertex 67.3861 177.052 156.253
   vertex 66.969 176.947 156.451
   vertex 67.1641 177.357 156.536
  endloop
 endfacet
 facet normal -0.0851325 0.643469 -0.760724
  outer loop
   vertex 68.3983 177.248 156.306
   vertex 67.3861 177.052 156.253
   vertex 67.1641 177.357 156.536
  endloop
 endfacet
 facet normal 0.00480583 0.472511 -0.881312
  outer loop
   vertex 69.49 177.387 156.387
   vertex 69.426 177.106 156.235
   vertex 68.3983 177.248 156.306
  endloop
 endfacet
 facet normal 0.0523104 0.463472 -0.884566
  outer loop
   vertex 70.1217 177.143 156.296
   vertex 69.426 177.106 156.235
   vertex 69.49 177.387 156.387
  endloop
 endfacet
 facet normal 0.116589 0.596183 -0.794338
  outer loop
   vertex 70.2663 177.396 156.507
   vertex 70.1217 177.143 156.296
   vertex 69.49 177.387 156.387
  endloop
 endfacet
 facet normal 0.666259 0.215214 -0.71399
  outer loop
   vertex 70.4389 177.181 156.604
   vertex 70.1217 177.143 156.296
   vertex 70.2663 177.396 156.507
  endloop
 endfacet
 facet normal -0.309964 -0.606384 -0.732271
  outer loop
   vertex 67.3426 175.307 157.18
   vertex 67.0445 174.897 157.646
   vertex 66.7482 175.342 157.402
  endloop
 endfacet
 facet normal 0.116661 -0.78128 -0.613181
  outer loop
   vertex 67.0445 174.897 157.646
   vertex 67.3426 175.307 157.18
   vertex 67.6137 175.07 157.534
  endloop
 endfacet
 facet normal -0.344791 -0.369979 -0.86269
  outer loop
   vertex 67.1377 176.189 156.884
   vertex 67.3426 175.307 157.18
   vertex 66.7482 175.342 157.402
  endloop
 endfacet
 facet normal -0.552746 -0.235481 -0.799388
  outer loop
   vertex 66.5447 176.127 157.312
   vertex 67.1377 176.189 156.884
   vertex 66.7482 175.342 157.402
  endloop
 endfacet
 facet normal 0.447331 -0.545793 -0.708523
  outer loop
   vertex 68.3385 175.628 157.562
   vertex 67.6137 175.07 157.534
   vertex 67.3426 175.307 157.18
  endloop
 endfacet
 facet normal 0.447435 -0.597554 -0.66538
  outer loop
   vertex 68.3385 175.628 157.562
   vertex 67.3426 175.307 157.18
   vertex 68.1057 176.061 157.017
  endloop
 endfacet
 facet normal 0.0908277 -0.298102 -0.950203
  outer loop
   vertex 68.1057 176.061 157.017
   vertex 67.3426 175.307 157.18
   vertex 67.1377 176.189 156.884
  endloop
 endfacet
 facet normal -0.792402 -0.154895 -0.590005
  outer loop
   vertex 66.3479 176.91 157.019
   vertex 66.0623 176.574 157.491
   vertex 65.8972 177.024 157.595
  endloop
 endfacet
 facet normal -0.624286 -0.406237 -0.667262
  outer loop
   vertex 66.5447 176.127 157.312
   vertex 66.0623 176.574 157.491
   vertex 66.3479 176.91 157.019
  endloop
 endfacet
 facet normal -0.50544 -0.410588 -0.758912
  outer loop
   vertex 67.1377 176.189 156.884
   vertex 66.5447 176.127 157.312
   vertex 66.3479 176.91 157.019
  endloop
 endfacet
 facet normal -0.568552 -0.499465 -0.653669
  outer loop
   vertex 67.1377 176.189 156.884
   vertex 66.3479 176.91 157.019
   vertex 66.969 176.947 156.451
  endloop
 endfacet
 facet normal -0.395669 -0.519987 -0.757007
  outer loop
   vertex 67.1377 176.189 156.884
   vertex 66.969 176.947 156.451
   vertex 67.2744 176.813 156.384
  endloop
 endfacet
 facet normal 0.0616354 -0.63235 -0.772227
  outer loop
   vertex 68.1461 176.763 156.494
   vertex 67.1377 176.189 156.884
   vertex 67.2744 176.813 156.384
  endloop
 endfacet
 facet normal 0.0307239 -0.59769 -0.801139
  outer loop
   vertex 68.1057 176.061 157.017
   vertex 67.1377 176.189 156.884
   vertex 68.1461 176.763 156.494
  endloop
 endfacet
 facet normal 0.447756 -0.597345 -0.665352
  outer loop
   vertex 68.1057 176.061 157.017
   vertex 69.4877 176.506 157.547
   vertex 68.3385 175.628 157.562
  endloop
 endfacet
 facet normal 0.44772 -0.550128 -0.704915
  outer loop
   vertex 68.1057 176.061 157.017
   vertex 68.1461 176.763 156.494
   vertex 69.4877 176.506 157.547
  endloop
 endfacet
 facet normal 0.128585 -0.91313 -0.386859
  outer loop
   vertex 68.1461 176.763 156.494
   vertex 69.3053 176.928 156.49
   vertex 69.4877 176.506 157.547
  endloop
 endfacet
 facet normal 0.094105 -0.965615 -0.242348
  outer loop
   vertex 70.1079 177.027 156.406
   vertex 70.2936 176.864 157.129
   vertex 69.3053 176.928 156.49
  endloop
 endfacet
 facet normal 0.195566 -0.898658 -0.392641
  outer loop
   vertex 69.3053 176.928 156.49
   vertex 70.2936 176.864 157.129
   vertex 69.4877 176.506 157.547
  endloop
 endfacet
 facet normal 0.548969 -0.773857 -0.315877
  outer loop
   vertex 70.2936 176.864 157.129
   vertex 70.1079 177.027 156.406
   vertex 70.4389 177.181 156.604
  endloop
 endfacet
 facet normal 0.583003 -0.756617 -0.296039
  outer loop
   vertex 70.8248 177.163 157.412
   vertex 70.2936 176.864 157.129
   vertex 70.4389 177.181 156.604
  endloop
 endfacet
 facet normal -0.726552 0.284712 -0.625349
  outer loop
   vertex 66.3479 176.91 157.019
   vertex 65.8972 177.024 157.595
   vertex 66.341 177.46 157.278
  endloop
 endfacet
 facet normal -0.614786 0.649051 -0.448076
  outer loop
   vertex 67.271 178.185 157.051
   vertex 66.341 177.46 157.278
   vertex 66.7529 178.058 157.578
  endloop
 endfacet
 facet normal -0.547968 0.491739 -0.676701
  outer loop
   vertex 67.1641 177.357 156.536
   vertex 66.341 177.46 157.278
   vertex 67.271 178.185 157.051
  endloop
 endfacet
 facet normal -0.608285 0.33127 -0.721283
  outer loop
   vertex 67.1641 177.357 156.536
   vertex 66.3479 176.91 157.019
   vertex 66.341 177.46 157.278
  endloop
 endfacet
 facet normal -0.622672 0.432042 -0.652394
  outer loop
   vertex 67.1641 177.357 156.536
   vertex 66.969 176.947 156.451
   vertex 66.3479 176.91 157.019
  endloop
 endfacet
 facet normal -0.125297 0.450411 -0.883986
  outer loop
   vertex 67.1641 177.357 156.536
   vertex 68.2195 178.142 156.787
   vertex 68.3983 177.248 156.306
  endloop
 endfacet
 facet normal -0.204269 0.535954 -0.819163
  outer loop
   vertex 67.271 178.185 157.051
   vertex 68.2195 178.142 156.787
   vertex 67.1641 177.357 156.536
  endloop
 endfacet
 facet normal -0.000574328 0.504234 -0.863567
  outer loop
   vertex 68.3983 177.248 156.306
   vertex 69.1562 178.029 156.761
   vertex 69.49 177.387 156.387
  endloop
 endfacet
 facet normal 0.0340404 0.478681 -0.877329
  outer loop
   vertex 68.2195 178.142 156.787
   vertex 69.1562 178.029 156.761
   vertex 68.3983 177.248 156.306
  endloop
 endfacet
 facet normal 0.127511 0.498466 -0.85748
  outer loop
   vertex 69.49 177.387 156.387
   vertex 70.0068 178.136 156.899
   vertex 70.2663 177.396 156.507
  endloop
 endfacet
 facet normal 0.0696052 0.529988 -0.845143
  outer loop
   vertex 69.1562 178.029 156.761
   vertex 70.0068 178.136 156.899
   vertex 69.49 177.387 156.387
  endloop
 endfacet
 facet normal 0.519037 0.534835 -0.666748
  outer loop
   vertex 70.2663 177.396 156.507
   vertex 70.0068 178.136 156.899
   vertex 70.6705 177.999 157.306
  endloop
 endfacet
 facet normal 0.729907 0.314365 -0.606969
  outer loop
   vertex 70.2663 177.396 156.507
   vertex 70.6705 177.999 157.306
   vertex 70.4389 177.181 156.604
  endloop
 endfacet
 facet normal 0.897801 0.111537 -0.426043
  outer loop
   vertex 70.4389 177.181 156.604
   vertex 70.6705 177.999 157.306
   vertex 70.8248 177.163 157.412
  endloop
 endfacet
 facet normal -0.648421 0.574874 -0.499069
  outer loop
   vertex 67.271 178.185 157.051
   vertex 66.7529 178.058 157.578
   vertex 67.1713 178.428 157.461
  endloop
 endfacet
 facet normal -0.645677 0.640762 -0.415362
  outer loop
   vertex 68.2872 179.05 156.807
   vertex 67.271 178.185 157.051
   vertex 67.7947 179.004 157.501
  endloop
 endfacet
 facet normal -0.266828 0.041265 -0.96286
  outer loop
   vertex 68.2872 179.05 156.807
   vertex 68.2195 178.142 156.787
   vertex 67.271 178.185 157.051
  endloop
 endfacet
 facet normal -0.561777 0.644137 -0.519128
  outer loop
   vertex 67.271 178.185 157.051
   vertex 67.1713 178.428 157.461
   vertex 67.7947 179.004 157.501
  endloop
 endfacet
 facet normal 0.211922 0.00590216 -0.977269
  outer loop
   vertex 68.2872 179.05 156.807
   vertex 69.2287 179.011 157.011
   vertex 68.2195 178.142 156.787
  endloop
 endfacet
 facet normal 0.0035009 0.245797 -0.969315
  outer loop
   vertex 69.2287 179.011 157.011
   vertex 69.1562 178.029 156.761
   vertex 68.2195 178.142 156.787
  endloop
 endfacet
 facet normal 0.535468 0.422245 -0.731425
  outer loop
   vertex 69.8581 178.981 157.277
   vertex 70.6705 177.999 157.306
   vertex 70.0068 178.136 156.899
  endloop
 endfacet
 facet normal 0.369248 0.433595 -0.82198
  outer loop
   vertex 69.8581 178.981 157.277
   vertex 70.0068 178.136 156.899
   vertex 69.2287 179.011 157.011
  endloop
 endfacet
 facet normal 0.125949 0.235344 -0.963717
  outer loop
   vertex 69.2287 179.011 157.011
   vertex 70.0068 178.136 156.899
   vertex 69.1562 178.029 156.761
  endloop
 endfacet
 facet normal -0.637772 0.652683 -0.408965
  outer loop
   vertex 68.2872 179.05 156.807
   vertex 67.7947 179.004 157.501
   vertex 68.3899 179.498 157.361
  endloop
 endfacet
 facet normal -0.496592 0.71794 -0.487811
  outer loop
   vertex 68.2872 179.05 156.807
   vertex 68.3899 179.498 157.361
   vertex 69.1 179.871 157.187
  endloop
 endfacet
 facet normal 0.215187 0.227345 -0.949741
  outer loop
   vertex 68.2872 179.05 156.807
   vertex 69.1 179.871 157.187
   vertex 69.2287 179.011 157.011
  endloop
 endfacet
 facet normal -0.497386 0.724134 -0.477742
  outer loop
   vertex 68.9913 180.097 157.642
   vertex 69.1 179.871 157.187
   vertex 68.3899 179.498 157.361
  endloop
 endfacet
 facet normal 0.390011 0.212015 -0.89607
  outer loop
   vertex 69.6408 179.83 157.384
   vertex 69.8581 178.981 157.277
   vertex 69.2287 179.011 157.011
  endloop
 endfacet
 facet normal 0.3475 0.238338 -0.906884
  outer loop
   vertex 69.1 179.871 157.187
   vertex 69.6408 179.83 157.384
   vertex 69.2287 179.011 157.011
  endloop
 endfacet
 facet normal -0.308364 0.820951 -0.480574
  outer loop
   vertex 69.1 179.871 157.187
   vertex 68.9913 180.097 157.642
   vertex 69.5248 180.266 157.59
  endloop
 endfacet
 facet normal 0.332345 0.473251 -0.815831
  outer loop
   vertex 69.6408 179.83 157.384
   vertex 69.1 179.871 157.187
   vertex 69.5248 180.266 157.59
  endloop
 endfacet
 facet normal -0.777038 -0.629395 -0.00865457
  outer loop
   vertex 66.2719 175.133 157.999
   vertex 66.4463 174.912 158.417
   vertex 66.0658 175.381 158.485
  endloop
 endfacet
 facet normal -0.472169 -0.643446 -0.602523
  outer loop
   vertex 66.2719 175.133 157.999
   vertex 66.7482 175.342 157.402
   vertex 67.0445 174.897 157.646
  endloop
 endfacet
 facet normal -0.399444 -0.86876 -0.292746
  outer loop
   vertex 66.2719 175.133 157.999
   vertex 67.0445 174.897 157.646
   vertex 66.4463 174.912 158.417
  endloop
 endfacet
 facet normal -0.169119 -0.979219 -0.111933
  outer loop
   vertex 66.4463 174.912 158.417
   vertex 67.0445 174.897 157.646
   vertex 67.1124 174.807 158.336
  endloop
 endfacet
 facet normal 0.342217 -0.87749 -0.336003
  outer loop
   vertex 67.6137 175.07 157.534
   vertex 68.1062 175.1 157.957
   vertex 67.8438 174.882 158.26
  endloop
 endfacet
 facet normal 0.219915 -0.925091 -0.309588
  outer loop
   vertex 67.6137 175.07 157.534
   vertex 67.8438 174.882 158.26
   vertex 67.0445 174.897 157.646
  endloop
 endfacet
 facet normal 0.0868891 -0.986604 -0.13807
  outer loop
   vertex 67.0445 174.897 157.646
   vertex 67.8438 174.882 158.26
   vertex 67.1124 174.807 158.336
  endloop
 endfacet
 facet normal 0.523122 -0.83874 -0.151187
  outer loop
   vertex 67.8438 174.882 158.26
   vertex 68.1062 175.1 157.957
   vertex 68.3669 175.188 158.37
  endloop
 endfacet
 facet normal -0.933566 -0.216623 -0.285533
  outer loop
   vertex 66.1364 175.856 157.893
   vertex 66.2719 175.133 157.999
   vertex 66.0658 175.381 158.485
  endloop
 endfacet
 facet normal -0.89068 -0.296529 -0.344617
  outer loop
   vertex 65.8397 176.287 158.29
   vertex 66.1364 175.856 157.893
   vertex 66.0658 175.381 158.485
  endloop
 endfacet
 facet normal -0.728202 -0.261807 -0.633387
  outer loop
   vertex 66.7482 175.342 157.402
   vertex 66.1364 175.856 157.893
   vertex 66.5447 176.127 157.312
  endloop
 endfacet
 facet normal -0.719408 -0.230453 -0.655244
  outer loop
   vertex 66.2719 175.133 157.999
   vertex 66.1364 175.856 157.893
   vertex 66.7482 175.342 157.402
  endloop
 endfacet
 facet normal 0.519386 -0.646982 -0.558258
  outer loop
   vertex 67.6137 175.07 157.534
   vertex 68.3385 175.628 157.562
   vertex 68.1062 175.1 157.957
  endloop
 endfacet
 facet normal 0.512573 -0.76864 -0.382702
  outer loop
   vertex 68.3385 175.628 157.562
   vertex 69.206 176.008 157.961
   vertex 69.1544 175.694 158.521
  endloop
 endfacet
 facet normal 0.546881 -0.727258 -0.414749
  outer loop
   vertex 68.3385 175.628 157.562
   vertex 69.1544 175.694 158.521
   vertex 68.3669 175.188 158.37
  endloop
 endfacet
 facet normal 0.738253 -0.581336 -0.342098
  outer loop
   vertex 68.3385 175.628 157.562
   vertex 68.3669 175.188 158.37
   vertex 68.1062 175.1 157.957
  endloop
 endfacet
 facet normal 0.421255 -0.807525 -0.412853
  outer loop
   vertex 69.1544 175.694 158.521
   vertex 69.206 176.008 157.961
   vertex 69.6865 176.037 158.393
  endloop
 endfacet
 facet normal -0.890134 -0.289199 -0.352173
  outer loop
   vertex 66.0623 176.574 157.491
   vertex 66.1364 175.856 157.893
   vertex 65.8397 176.287 158.29
  endloop
 endfacet
 facet normal -0.904595 -0.2529 -0.343146
  outer loop
   vertex 66.0623 176.574 157.491
   vertex 65.8397 176.287 158.29
   vertex 65.8972 177.024 157.595
  endloop
 endfacet
 facet normal -0.996513 -0.000896381 -0.0834319
  outer loop
   vertex 65.8972 177.024 157.595
   vertex 65.8397 176.287 158.29
   vertex 65.8213 177.222 158.5
  endloop
 endfacet
 facet normal -0.634595 -0.426519 -0.644493
  outer loop
   vertex 66.5447 176.127 157.312
   vertex 66.1364 175.856 157.893
   vertex 66.0623 176.574 157.491
  endloop
 endfacet
 facet normal 0.527896 -0.699051 -0.482341
  outer loop
   vertex 68.3385 175.628 157.562
   vertex 69.4877 176.506 157.547
   vertex 69.206 176.008 157.961
  endloop
 endfacet
 facet normal 0.499101 -0.70298 -0.506672
  outer loop
   vertex 69.206 176.008 157.961
   vertex 69.4877 176.506 157.547
   vertex 69.6865 176.037 158.393
  endloop
 endfacet
 facet normal 0.703828 -0.540572 -0.460877
  outer loop
   vertex 70.8248 177.163 157.412
   vertex 71.5149 177.315 158.287
   vertex 70.9952 176.838 158.053
  endloop
 endfacet
 facet normal 0.610116 -0.629557 -0.481059
  outer loop
   vertex 70.8248 177.163 157.412
   vertex 70.9952 176.838 158.053
   vertex 70.2936 176.864 157.129
  endloop
 endfacet
 facet normal 0.285617 -0.926952 -0.243276
  outer loop
   vertex 70.2936 176.864 157.129
   vertex 70.9952 176.838 158.053
   vertex 69.4877 176.506 157.547
  endloop
 endfacet
 facet normal -0.819766 0.541211 -0.187281
  outer loop
   vertex 65.8972 177.024 157.595
   vertex 65.8213 177.222 158.5
   vertex 66.134 177.558 158.102
  endloop
 endfacet
 facet normal -0.765271 0.587974 -0.262006
  outer loop
   vertex 66.341 177.46 157.278
   vertex 65.8972 177.024 157.595
   vertex 66.134 177.558 158.102
  endloop
 endfacet
 facet normal -0.729719 0.633035 -0.258412
  outer loop
   vertex 66.134 177.558 158.102
   vertex 66.7529 178.058 157.578
   vertex 66.341 177.46 157.278
  endloop
 endfacet
 facet normal -0.712201 0.67301 -0.199569
  outer loop
   vertex 66.5707 178.063 158.247
   vertex 66.7529 178.058 157.578
   vertex 66.134 177.558 158.102
  endloop
 endfacet
 facet normal 0.712832 -0.113138 -0.692149
  outer loop
   vertex 71.5149 177.315 158.287
   vertex 70.6705 177.999 157.306
   vertex 71.3931 178.335 157.995
  endloop
 endfacet
 facet normal 0.778269 0.0643477 -0.624626
  outer loop
   vertex 70.8248 177.163 157.412
   vertex 70.6705 177.999 157.306
   vertex 71.5149 177.315 158.287
  endloop
 endfacet
 facet normal 0.674837 -0.127611 -0.72685
  outer loop
   vertex 71.3931 178.335 157.995
   vertex 71.8989 178.037 158.517
   vertex 71.5149 177.315 158.287
  endloop
 endfacet
 facet normal -0.712274 0.672927 -0.199588
  outer loop
   vertex 66.7529 178.058 157.578
   vertex 66.5707 178.063 158.247
   vertex 66.9638 178.493 158.293
  endloop
 endfacet
 facet normal -0.680515 0.69765 -0.224019
  outer loop
   vertex 67.1713 178.428 157.461
   vertex 66.7529 178.058 157.578
   vertex 66.9638 178.493 158.293
  endloop
 endfacet
 facet normal -0.654397 0.723587 -0.219515
  outer loop
   vertex 66.9638 178.493 158.293
   vertex 67.7947 179.004 157.501
   vertex 67.1713 178.428 157.461
  endloop
 endfacet
 facet normal -0.672915 0.692996 -0.258731
  outer loop
   vertex 67.5598 179.121 158.426
   vertex 67.7947 179.004 157.501
   vertex 66.9638 178.493 158.293
  endloop
 endfacet
 facet normal 0.474442 0.369802 -0.798844
  outer loop
   vertex 70.6705 177.999 157.306
   vertex 69.8581 178.981 157.277
   vertex 70.4833 179.131 157.719
  endloop
 endfacet
 facet normal 0.548242 0.365074 -0.75243
  outer loop
   vertex 70.6705 177.999 157.306
   vertex 70.4833 179.131 157.719
   vertex 71.3931 178.335 157.995
  endloop
 endfacet
 facet normal 0.362761 0.0925189 -0.927278
  outer loop
   vertex 70.4833 179.131 157.719
   vertex 71.2524 179.295 158.036
   vertex 71.3931 178.335 157.995
  endloop
 endfacet
 facet normal 0.688822 -0.0905769 -0.71925
  outer loop
   vertex 71.9092 178.93 158.414
   vertex 71.8989 178.037 158.517
   vertex 71.3931 178.335 157.995
  endloop
 endfacet
 facet normal 0.543135 0.114915 -0.831744
  outer loop
   vertex 71.2524 179.295 158.036
   vertex 71.9092 178.93 158.414
   vertex 71.3931 178.335 157.995
  endloop
 endfacet
 facet normal -0.617769 0.745118 -0.251317
  outer loop
   vertex 67.7947 179.004 157.501
   vertex 67.5598 179.121 158.426
   vertex 68.1664 179.581 158.297
  endloop
 endfacet
 facet normal -0.652967 0.724704 -0.220084
  outer loop
   vertex 68.3899 179.498 157.361
   vertex 67.7947 179.004 157.501
   vertex 68.1664 179.581 158.297
  endloop
 endfacet
 facet normal -0.635673 0.740722 -0.217374
  outer loop
   vertex 68.1664 179.581 158.297
   vertex 68.9913 180.097 157.642
   vertex 68.3899 179.498 157.361
  endloop
 endfacet
 facet normal -0.642152 0.729994 -0.233986
  outer loop
   vertex 68.8796 180.309 158.611
   vertex 68.9913 180.097 157.642
   vertex 68.1664 179.581 158.297
  endloop
 endfacet
 facet normal 0.527178 0.246151 -0.813322
  outer loop
   vertex 70.4833 179.131 157.719
   vertex 69.6408 179.83 157.384
   vertex 70.3655 180.003 157.906
  endloop
 endfacet
 facet normal 0.521501 0.236141 -0.819923
  outer loop
   vertex 69.8581 178.981 157.277
   vertex 69.6408 179.83 157.384
   vertex 70.4833 179.131 157.719
  endloop
 endfacet
 facet normal 0.469168 0.468335 -0.748695
  outer loop
   vertex 70.9389 180.046 158.309
   vertex 71.5816 179.604 158.435
   vertex 71.2524 179.295 158.036
  endloop
 endfacet
 facet normal 0.483706 0.470511 -0.738003
  outer loop
   vertex 70.9389 180.046 158.309
   vertex 71.2524 179.295 158.036
   vertex 70.3655 180.003 157.906
  endloop
 endfacet
 facet normal 0.325921 0.24064 -0.914258
  outer loop
   vertex 70.3655 180.003 157.906
   vertex 71.2524 179.295 158.036
   vertex 70.4833 179.131 157.719
  endloop
 endfacet
 facet normal 0.598911 0.314342 -0.736542
  outer loop
   vertex 71.9092 178.93 158.414
   vertex 71.2524 179.295 158.036
   vertex 71.5816 179.604 158.435
  endloop
 endfacet
 facet normal -0.487209 0.839627 -0.240111
  outer loop
   vertex 68.9913 180.097 157.642
   vertex 68.8796 180.309 158.611
   vertex 69.4744 180.567 158.306
  endloop
 endfacet
 facet normal -0.31381 0.867497 -0.385969
  outer loop
   vertex 69.5248 180.266 157.59
   vertex 68.9913 180.097 157.642
   vertex 69.4744 180.567 158.306
  endloop
 endfacet
 facet normal 0.436293 0.476179 -0.76348
  outer loop
   vertex 70.3655 180.003 157.906
   vertex 69.6408 179.83 157.384
   vertex 69.5248 180.266 157.59
  endloop
 endfacet
 facet normal 0.439448 0.593024 -0.674691
  outer loop
   vertex 70.3655 180.003 157.906
   vertex 69.5248 180.266 157.59
   vertex 70.3559 180.474 158.314
  endloop
 endfacet
 facet normal 0.0997397 0.920046 -0.378903
  outer loop
   vertex 70.3559 180.474 158.314
   vertex 69.5248 180.266 157.59
   vertex 69.4744 180.567 158.306
  endloop
 endfacet
 facet normal 0.431899 0.595329 -0.67753
  outer loop
   vertex 70.9389 180.046 158.309
   vertex 70.3655 180.003 157.906
   vertex 70.3559 180.474 158.314
  endloop
 endfacet
 facet normal -0.662348 -0.601976 0.446004
  outer loop
   vertex 66.7324 175.231 159.271
   vertex 66.0658 175.381 158.485
   vertex 66.4463 174.912 158.417
  endloop
 endfacet
 facet normal -0.364795 -0.825968 0.429769
  outer loop
   vertex 66.7324 175.231 159.271
   vertex 66.4463 174.912 158.417
   vertex 67.2009 174.906 159.045
  endloop
 endfacet
 facet normal -0.136711 -0.978509 0.154368
  outer loop
   vertex 67.2009 174.906 159.045
   vertex 66.4463 174.912 158.417
   vertex 67.1124 174.807 158.336
  endloop
 endfacet
 facet normal 0.272175 -0.909065 0.315471
  outer loop
   vertex 67.9735 175.049 158.79
   vertex 67.5329 175.09 159.287
   vertex 67.2009 174.906 159.045
  endloop
 endfacet
 facet normal 0.251003 -0.939097 0.234723
  outer loop
   vertex 67.9735 175.049 158.79
   vertex 67.2009 174.906 159.045
   vertex 67.8438 174.882 158.26
  endloop
 endfacet
 facet normal 0.114091 -0.985691 0.124085
  outer loop
   vertex 67.8438 174.882 158.26
   vertex 67.2009 174.906 159.045
   vertex 67.1124 174.807 158.336
  endloop
 endfacet
 facet normal 0.474306 -0.866237 0.157061
  outer loop
   vertex 67.8438 174.882 158.26
   vertex 68.3669 175.188 158.37
   vertex 67.9735 175.049 158.79
  endloop
 endfacet
 facet normal -0.945714 -0.177504 0.272245
  outer loop
   vertex 66.0658 175.381 158.485
   vertex 66.0199 176.071 158.775
   vertex 65.8397 176.287 158.29
  endloop
 endfacet
 facet normal -0.753535 -0.311651 0.578843
  outer loop
   vertex 66.4507 175.947 159.29
   vertex 66.0658 175.381 158.485
   vertex 66.7324 175.231 159.271
  endloop
 endfacet
 facet normal -0.767342 -0.291386 0.57121
  outer loop
   vertex 66.0199 176.071 158.775
   vertex 66.0658 175.381 158.485
   vertex 66.4507 175.947 159.29
  endloop
 endfacet
 facet normal 0.350591 -0.855744 0.380511
  outer loop
   vertex 67.9735 175.049 158.79
   vertex 68.2225 175.458 159.48
   vertex 67.5329 175.09 159.287
  endloop
 endfacet
 facet normal 0.559512 -0.785763 0.263671
  outer loop
   vertex 68.3669 175.188 158.37
   vertex 68.2225 175.458 159.48
   vertex 67.9735 175.049 158.79
  endloop
 endfacet
 facet normal 0.484671 -0.833423 0.265519
  outer loop
   vertex 68.3669 175.188 158.37
   vertex 69.1544 175.694 158.521
   vertex 68.2225 175.458 159.48
  endloop
 endfacet
 facet normal 0.18674 -0.980555 -0.0603259
  outer loop
   vertex 69.1544 175.694 158.521
   vertex 69.3836 175.676 159.522
   vertex 68.2225 175.458 159.48
  endloop
 endfacet
 facet normal 0.448933 -0.774217 -0.446147
  outer loop
   vertex 69.6865 176.037 158.393
   vertex 70.3457 176.156 158.85
   vertex 70.2448 175.812 159.346
  endloop
 endfacet
 facet normal 0.413062 -0.801883 -0.431699
  outer loop
   vertex 69.6865 176.037 158.393
   vertex 70.2448 175.812 159.346
   vertex 69.1544 175.694 158.521
  endloop
 endfacet
 facet normal 0.144938 -0.988131 -0.0508896
  outer loop
   vertex 69.1544 175.694 158.521
   vertex 70.2448 175.812 159.346
   vertex 69.3836 175.676 159.522
  endloop
 endfacet
 facet normal 0.428911 -0.780599 -0.454643
  outer loop
   vertex 70.2448 175.812 159.346
   vertex 70.3457 176.156 158.85
   vertex 70.8876 176.091 159.473
  endloop
 endfacet
 facet normal -0.935481 -0.27105 0.226733
  outer loop
   vertex 66.0199 176.071 158.775
   vertex 65.9473 176.848 159.404
   vertex 65.8397 176.287 158.29
  endloop
 endfacet
 facet normal -0.991815 -0.0462517 0.119015
  outer loop
   vertex 65.8397 176.287 158.29
   vertex 65.9473 176.848 159.404
   vertex 65.8213 177.222 158.5
  endloop
 endfacet
 facet normal -0.729493 -0.470381 0.49657
  outer loop
   vertex 66.4507 175.947 159.29
   vertex 65.9473 176.848 159.404
   vertex 66.0199 176.071 158.775
  endloop
 endfacet
 facet normal 0.481333 -0.713924 -0.508558
  outer loop
   vertex 69.6865 176.037 158.393
   vertex 69.4877 176.506 157.547
   vertex 70.3457 176.156 158.85
  endloop
 endfacet
 facet normal 0.514211 -0.683164 -0.518531
  outer loop
   vertex 70.3457 176.156 158.85
   vertex 71.1711 176.649 159.019
   vertex 70.8876 176.091 159.473
  endloop
 endfacet
 facet normal 0.51375 -0.681478 -0.521198
  outer loop
   vertex 70.3457 176.156 158.85
   vertex 69.4877 176.506 157.547
   vertex 71.1711 176.649 159.019
  endloop
 endfacet
 facet normal 0.282901 -0.930442 -0.232905
  outer loop
   vertex 69.4877 176.506 157.547
   vertex 70.9952 176.838 158.053
   vertex 71.1711 176.649 159.019
  endloop
 endfacet
 facet normal 0.713823 -0.651448 -0.257046
  outer loop
   vertex 71.1711 176.649 159.019
   vertex 70.9952 176.838 158.053
   vertex 71.5149 177.315 158.287
  endloop
 endfacet
 facet normal 0.677119 -0.674171 -0.294964
  outer loop
   vertex 71.9337 177.218 159.469
   vertex 71.1711 176.649 159.019
   vertex 71.5149 177.315 158.287
  endloop
 endfacet
 facet normal -0.841564 0.471807 -0.262999
  outer loop
   vertex 66.1736 177.968 158.711
   vertex 66.134 177.558 158.102
   vertex 65.8213 177.222 158.5
  endloop
 endfacet
 facet normal -0.862264 0.464372 -0.202139
  outer loop
   vertex 66.1736 177.968 158.711
   vertex 65.8213 177.222 158.5
   vertex 66.0831 178.097 159.392
  endloop
 endfacet
 facet normal -0.97757 0.108001 0.18081
  outer loop
   vertex 66.0831 178.097 159.392
   vertex 65.8213 177.222 158.5
   vertex 65.9473 176.848 159.404
  endloop
 endfacet
 facet normal -0.630942 0.661879 -0.404757
  outer loop
   vertex 66.134 177.558 158.102
   vertex 66.1736 177.968 158.711
   vertex 66.5707 178.063 158.247
  endloop
 endfacet
 facet normal 0.726533 -0.507702 -0.463021
  outer loop
   vertex 71.9337 177.218 159.469
   vertex 71.8989 178.037 158.517
   vertex 72.4306 178.328 159.032
  endloop
 endfacet
 facet normal 0.871376 -0.35583 -0.337771
  outer loop
   vertex 71.9337 177.218 159.469
   vertex 71.5149 177.315 158.287
   vertex 71.8989 178.037 158.517
  endloop
 endfacet
 facet normal 0.677618 -0.511565 -0.528332
  outer loop
   vertex 71.9337 177.218 159.469
   vertex 72.4306 178.328 159.032
   vertex 72.7054 178.1 159.606
  endloop
 endfacet
 facet normal -0.712866 0.670658 -0.205036
  outer loop
   vertex 66.9864 178.916 158.932
   vertex 66.0831 178.097 159.392
   vertex 67.1385 179.228 159.423
  endloop
 endfacet
 facet normal -0.72073 0.589404 -0.3649
  outer loop
   vertex 66.9638 178.493 158.293
   vertex 66.0831 178.097 159.392
   vertex 66.9864 178.916 158.932
  endloop
 endfacet
 facet normal -0.618634 0.753006 -0.224221
  outer loop
   vertex 66.9638 178.493 158.293
   vertex 66.1736 177.968 158.711
   vertex 66.0831 178.097 159.392
  endloop
 endfacet
 facet normal -0.645818 0.63568 -0.422883
  outer loop
   vertex 66.9638 178.493 158.293
   vertex 66.5707 178.063 158.247
   vertex 66.1736 177.968 158.711
  endloop
 endfacet
 facet normal -0.6116 0.669389 -0.421739
  outer loop
   vertex 66.9638 178.493 158.293
   vertex 66.9864 178.916 158.932
   vertex 67.5598 179.121 158.426
  endloop
 endfacet
 facet normal 0.749625 -0.028883 -0.661232
  outer loop
   vertex 72.4306 178.328 159.032
   vertex 71.9092 178.93 158.414
   vertex 72.3962 179.383 158.947
  endloop
 endfacet
 facet normal 0.717271 -0.0876903 -0.691254
  outer loop
   vertex 71.8989 178.037 158.517
   vertex 71.9092 178.93 158.414
   vertex 72.4306 178.328 159.032
  endloop
 endfacet
 facet normal 0.852131 -0.194877 -0.485691
  outer loop
   vertex 72.866 178.969 159.538
   vertex 72.7054 178.1 159.606
   vertex 72.4306 178.328 159.032
  endloop
 endfacet
 facet normal 0.774107 -0.0257667 -0.632531
  outer loop
   vertex 72.3962 179.383 158.947
   vertex 72.866 178.969 159.538
   vertex 72.4306 178.328 159.032
  endloop
 endfacet
 facet normal -0.554691 0.769454 -0.316637
  outer loop
   vertex 67.5598 179.121 158.426
   vertex 66.9864 178.916 158.932
   vertex 67.1385 179.228 159.423
  endloop
 endfacet
 facet normal -0.613029 0.715299 -0.335474
  outer loop
   vertex 67.5598 179.121 158.426
   vertex 67.1385 179.228 159.423
   vertex 68.1664 179.581 158.297
  endloop
 endfacet
 facet normal -0.471746 0.867292 -0.158932
  outer loop
   vertex 68.1664 179.581 158.297
   vertex 67.1385 179.228 159.423
   vertex 68.111 179.746 159.365
  endloop
 endfacet
 facet normal -0.674062 0.723864 -0.147178
  outer loop
   vertex 68.111 179.746 159.365
   vertex 68.8796 180.309 158.611
   vertex 68.1664 179.581 158.297
  endloop
 endfacet
 facet normal -0.701988 0.681352 -0.207298
  outer loop
   vertex 68.6602 180.379 159.584
   vertex 68.8796 180.309 158.611
   vertex 68.111 179.746 159.365
  endloop
 endfacet
 facet normal 0.459104 0.448529 -0.766841
  outer loop
   vertex 71.5816 179.604 158.435
   vertex 70.9389 180.046 158.309
   vertex 71.4985 180.343 158.818
  endloop
 endfacet
 facet normal 0.564171 0.298472 -0.769822
  outer loop
   vertex 71.5816 179.604 158.435
   vertex 72.3962 179.383 158.947
   vertex 71.9092 178.93 158.414
  endloop
 endfacet
 facet normal 0.560794 0.429435 -0.707881
  outer loop
   vertex 71.5816 179.604 158.435
   vertex 71.4985 180.343 158.818
   vertex 72.3962 179.383 158.947
  endloop
 endfacet
 facet normal 0.260467 0.115101 -0.958597
  outer loop
   vertex 71.4985 180.343 158.818
   vertex 72.5001 180.328 159.088
   vertex 72.3962 179.383 158.947
  endloop
 endfacet
 facet normal 0.782005 -0.00353089 -0.623263
  outer loop
   vertex 72.8783 179.981 159.548
   vertex 72.866 178.969 159.538
   vertex 72.3962 179.383 158.947
  endloop
 endfacet
 facet normal 0.775741 0.00928804 -0.630983
  outer loop
   vertex 72.5001 180.328 159.088
   vertex 72.8783 179.981 159.548
   vertex 72.3962 179.383 158.947
  endloop
 endfacet
 facet normal -0.552436 0.631024 -0.544631
  outer loop
   vertex 69.382 181.046 158.955
   vertex 69.4744 180.567 158.306
   vertex 68.8796 180.309 158.611
  endloop
 endfacet
 facet normal -0.622278 0.636812 -0.455236
  outer loop
   vertex 69.382 181.046 158.955
   vertex 68.8796 180.309 158.611
   vertex 69.0551 181.095 159.47
  endloop
 endfacet
 facet normal -0.867517 0.442407 -0.227353
  outer loop
   vertex 69.0551 181.095 159.47
   vertex 68.8796 180.309 158.611
   vertex 68.6602 180.379 159.584
  endloop
 endfacet
 facet normal 0.0802148 0.707837 -0.701806
  outer loop
   vertex 69.4744 180.567 158.306
   vertex 70.3273 181.084 158.926
   vertex 70.3559 180.474 158.314
  endloop
 endfacet
 facet normal -0.0510324 0.799914 -0.597941
  outer loop
   vertex 69.382 181.046 158.955
   vertex 70.3273 181.084 158.926
   vertex 69.4744 180.567 158.306
  endloop
 endfacet
 facet normal 0.390804 0.540186 -0.745299
  outer loop
   vertex 70.3559 180.474 158.314
   vertex 71.4985 180.343 158.818
   vertex 70.9389 180.046 158.309
  endloop
 endfacet
 facet normal 0.363126 0.668342 -0.649198
  outer loop
   vertex 70.3559 180.474 158.314
   vertex 70.3273 181.084 158.926
   vertex 71.4985 180.343 158.818
  endloop
 endfacet
 facet normal 0.101046 0.297687 -0.949301
  outer loop
   vertex 70.3273 181.084 158.926
   vertex 71.3556 181.218 159.077
   vertex 71.4985 180.343 158.818
  endloop
 endfacet
 facet normal 0.26009 0.135291 -0.956059
  outer loop
   vertex 72.5001 180.328 159.088
   vertex 71.4985 180.343 158.818
   vertex 72.2748 181.128 159.14
  endloop
 endfacet
 facet normal 0.0943233 0.29687 -0.950248
  outer loop
   vertex 72.2748 181.128 159.14
   vertex 71.4985 180.343 158.818
   vertex 71.3556 181.218 159.077
  endloop
 endfacet
 facet normal 0.804881 0.102653 -0.58449
  outer loop
   vertex 72.8039 181.08 159.639
   vertex 72.8783 179.981 159.548
   vertex 72.5001 180.328 159.088
  endloop
 endfacet
 facet normal 0.677622 0.23598 -0.696521
  outer loop
   vertex 72.2748 181.128 159.14
   vertex 72.8039 181.08 159.639
   vertex 72.5001 180.328 159.088
  endloop
 endfacet
 facet normal -0.546342 0.727205 -0.415552
  outer loop
   vertex 69.382 181.046 158.955
   vertex 69.0551 181.095 159.47
   vertex 69.5735 181.445 159.402
  endloop
 endfacet
 facet normal -0.0509888 0.755413 -0.653262
  outer loop
   vertex 70.3273 181.084 158.926
   vertex 69.382 181.046 158.955
   vertex 69.5735 181.445 159.402
  endloop
 endfacet
 facet normal -0.109254 0.701284 -0.70446
  outer loop
   vertex 70.5422 181.694 159.499
   vertex 70.3273 181.084 158.926
   vertex 69.5735 181.445 159.402
  endloop
 endfacet
 facet normal 0.0189521 0.681547 -0.731529
  outer loop
   vertex 71.3556 181.218 159.077
   vertex 70.3273 181.084 158.926
   vertex 70.5422 181.694 159.499
  endloop
 endfacet
 facet normal -0.0418175 0.622199 -0.781741
  outer loop
   vertex 71.6907 181.72 159.459
   vertex 71.3556 181.218 159.077
   vertex 70.5422 181.694 159.499
  endloop
 endfacet
 facet normal 0.110883 0.553545 -0.825404
  outer loop
   vertex 72.2748 181.128 159.14
   vertex 71.3556 181.218 159.077
   vertex 71.6907 181.72 159.459
  endloop
 endfacet
 facet normal 0.144944 0.575915 -0.804558
  outer loop
   vertex 72.494 181.696 159.586
   vertex 72.2748 181.128 159.14
   vertex 71.6907 181.72 159.459
  endloop
 endfacet
 facet normal 0.67169 0.279596 -0.686045
  outer loop
   vertex 72.8039 181.08 159.639
   vertex 72.2748 181.128 159.14
   vertex 72.494 181.696 159.586
  endloop
 endfacet
 facet normal -0.879423 0.0288465 -0.475167
  outer loop
   vertex 71.5181 183.298 159.367
   vertex 71.3655 182.991 159.631
   vertex 71.3528 183.326 159.675
  endloop
 endfacet
 facet normal 0.224374 -0.696837 -0.68123
  outer loop
   vertex 71.3655 182.991 159.631
   vertex 71.5181 183.298 159.367
   vertex 71.7412 183.179 159.563
  endloop
 endfacet
 facet normal -0.323099 0.911127 -0.255841
  outer loop
   vertex 71.5181 183.298 159.367
   vertex 71.3528 183.326 159.675
   vertex 71.7135 183.46 159.696
  endloop
 endfacet
 facet normal 0.716624 0.354556 -0.600616
  outer loop
   vertex 71.7412 183.179 159.563
   vertex 71.5181 183.298 159.367
   vertex 71.7135 183.46 159.696
  endloop
 endfacet
 facet normal -0.329581 -0.81168 0.482236
  outer loop
   vertex 67.2009 174.906 159.045
   vertex 67.2133 175.251 159.634
   vertex 66.7324 175.231 159.271
  endloop
 endfacet
 facet normal 0.109494 -0.858784 0.5005
  outer loop
   vertex 67.5329 175.09 159.287
   vertex 67.2133 175.251 159.634
   vertex 67.2009 174.906 159.045
  endloop
 endfacet
 facet normal -0.666243 -0.377197 -0.643306
  outer loop
   vertex 68.3243 175.173 160.233
   vertex 68.2199 175.003 160.441
   vertex 68.0254 175.275 160.483
  endloop
 endfacet
 facet normal 0.692411 -0.688276 -0.216436
  outer loop
   vertex 68.2199 175.003 160.441
   vertex 68.3243 175.173 160.233
   vertex 68.4285 175.185 160.528
  endloop
 endfacet
 facet normal -0.53772 -0.661243 0.523081
  outer loop
   vertex 67.2133 175.251 159.634
   vertex 67.3694 175.695 160.356
   vertex 66.7949 176.113 160.294
  endloop
 endfacet
 facet normal -0.428141 -0.671028 0.605324
  outer loop
   vertex 67.2133 175.251 159.634
   vertex 66.7949 176.113 160.294
   vertex 66.7324 175.231 159.271
  endloop
 endfacet
 facet normal -0.866669 -0.350272 0.355238
  outer loop
   vertex 66.7324 175.231 159.271
   vertex 66.7949 176.113 160.294
   vertex 66.4507 175.947 159.29
  endloop
 endfacet
 facet normal -0.492369 -0.834177 -0.248437
  outer loop
   vertex 68.0254 175.275 160.483
   vertex 68.2225 175.458 159.48
   vertex 68.3243 175.173 160.233
  endloop
 endfacet
 facet normal -0.487138 -0.837375 -0.24799
  outer loop
   vertex 68.0254 175.275 160.483
   vertex 67.3694 175.695 160.356
   vertex 68.2225 175.458 159.48
  endloop
 endfacet
 facet normal 0.247577 -0.770767 0.587046
  outer loop
   vertex 67.5329 175.09 159.287
   vertex 68.2225 175.458 159.48
   vertex 67.2133 175.251 159.634
  endloop
 endfacet
 facet normal 0.245532 -0.848405 0.46896
  outer loop
   vertex 67.2133 175.251 159.634
   vertex 68.2225 175.458 159.48
   vertex 67.3694 175.695 160.356
  endloop
 endfacet
 facet normal 0.52467 -0.8378 -0.15104
  outer loop
   vertex 68.3243 175.173 160.233
   vertex 69.0479 175.599 160.385
   vertex 68.4285 175.185 160.528
  endloop
 endfacet
 facet normal 0.528046 -0.76843 -0.361501
  outer loop
   vertex 68.3243 175.173 160.233
   vertex 68.2225 175.458 159.48
   vertex 69.0479 175.599 160.385
  endloop
 endfacet
 facet normal 0.18549 -0.982521 -0.0156767
  outer loop
   vertex 68.2225 175.458 159.48
   vertex 69.3836 175.676 159.522
   vertex 69.0479 175.599 160.385
  endloop
 endfacet
 facet normal 0.153786 -0.988076 -0.00747499
  outer loop
   vertex 70.2448 175.812 159.346
   vertex 70.2426 175.803 160.371
   vertex 69.3836 175.676 159.522
  endloop
 endfacet
 facet normal 0.168353 -0.985467 -0.0226071
  outer loop
   vertex 69.3836 175.676 159.522
   vertex 70.2426 175.803 160.371
   vertex 69.0479 175.599 160.385
  endloop
 endfacet
 facet normal 0.531121 -0.755328 -0.383914
  outer loop
   vertex 70.8876 176.091 159.473
   vertex 71.4483 176.273 159.891
   vertex 71.1764 175.928 160.194
  endloop
 endfacet
 facet normal 0.430648 -0.827603 -0.360022
  outer loop
   vertex 70.8876 176.091 159.473
   vertex 71.1764 175.928 160.194
   vertex 70.2448 175.812 159.346
  endloop
 endfacet
 facet normal 0.130361 -0.991438 -0.00755321
  outer loop
   vertex 70.2448 175.812 159.346
   vertex 71.1764 175.928 160.194
   vertex 70.2426 175.803 160.371
  endloop
 endfacet
 facet normal 0.726728 -0.67658 -0.118765
  outer loop
   vertex 71.1764 175.928 160.194
   vertex 71.4483 176.273 159.891
   vertex 71.6657 176.402 160.484
  endloop
 endfacet
 facet normal -0.918599 -0.27735 0.281519
  outer loop
   vertex 65.9473 176.848 159.404
   vertex 66.2639 176.821 160.41
   vertex 66.1116 177.344 160.429
  endloop
 endfacet
 facet normal -0.796568 -0.489832 0.35432
  outer loop
   vertex 66.7949 176.113 160.294
   vertex 65.9473 176.848 159.404
   vertex 66.4507 175.947 159.29
  endloop
 endfacet
 facet normal -0.761648 -0.608373 0.223104
  outer loop
   vertex 66.2639 176.821 160.41
   vertex 65.9473 176.848 159.404
   vertex 66.7949 176.113 160.294
  endloop
 endfacet
 facet normal 0.569704 -0.6731 -0.471565
  outer loop
   vertex 70.8876 176.091 159.473
   vertex 71.1711 176.649 159.019
   vertex 71.4483 176.273 159.891
  endloop
 endfacet
 facet normal 0.689307 -0.559323 -0.46045
  outer loop
   vertex 71.4483 176.273 159.891
   vertex 71.1711 176.649 159.019
   vertex 71.9337 177.218 159.469
  endloop
 endfacet
 facet normal 0.834897 -0.515186 -0.193725
  outer loop
   vertex 71.4483 176.273 159.891
   vertex 71.9337 177.218 159.469
   vertex 71.6657 176.402 160.484
  endloop
 endfacet
 facet normal 0.915089 -0.395909 -0.0766012
  outer loop
   vertex 71.6657 176.402 160.484
   vertex 71.9337 177.218 159.469
   vertex 71.9986 177.164 160.523
  endloop
 endfacet
 facet normal -0.988438 0.10847 0.105948
  outer loop
   vertex 65.9473 176.848 159.404
   vertex 66.1116 177.344 160.429
   vertex 66.0831 178.097 159.392
  endloop
 endfacet
 facet normal -0.999464 -0.0325062 0.00390893
  outer loop
   vertex 66.1116 177.344 160.429
   vertex 66.0893 178.028 160.432
   vertex 66.0831 178.097 159.392
  endloop
 endfacet
 facet normal 0.744139 -0.663247 -0.079749
  outer loop
   vertex 71.9337 177.218 159.469
   vertex 72.4734 177.723 160.31
   vertex 71.9986 177.164 160.523
  endloop
 endfacet
 facet normal 0.756293 -0.646951 -0.0973444
  outer loop
   vertex 72.4734 177.723 160.31
   vertex 71.9337 177.218 159.469
   vertex 72.7054 178.1 159.606
  endloop
 endfacet
 facet normal 0.84707 -0.531452 -0.00555776
  outer loop
   vertex 72.8214 178.276 160.413
   vertex 72.4734 177.723 160.31
   vertex 72.7054 178.1 159.606
  endloop
 endfacet
 facet normal -0.810213 0.584523 0.0434537
  outer loop
   vertex 66.0831 178.097 159.392
   vertex 66.0893 178.028 160.432
   vertex 66.4155 178.483 160.402
  endloop
 endfacet
 facet normal -0.730779 0.682318 -0.0200884
  outer loop
   vertex 66.4155 178.483 160.402
   vertex 67.1385 179.228 159.423
   vertex 66.0831 178.097 159.392
  endloop
 endfacet
 facet normal -0.766967 0.636454 -0.081776
  outer loop
   vertex 66.8758 179.034 160.378
   vertex 67.1385 179.228 159.423
   vertex 66.4155 178.483 160.402
  endloop
 endfacet
 facet normal 0.97711 -0.188144 -0.0992871
  outer loop
   vertex 72.7054 178.1 159.606
   vertex 72.866 178.969 159.538
   vertex 72.8214 178.276 160.413
  endloop
 endfacet
 facet normal 0.995624 -0.0909834 -0.0213472
  outer loop
   vertex 72.8214 178.276 160.413
   vertex 72.866 178.969 159.538
   vertex 72.9027 179.164 160.417
  endloop
 endfacet
 facet normal -0.630106 0.776351 -0.0156443
  outer loop
   vertex 67.1385 179.228 159.423
   vertex 66.8758 179.034 160.378
   vertex 67.3858 179.448 160.371
  endloop
 endfacet
 facet normal -0.698752 0.685201 -0.205535
  outer loop
   vertex 68.104 180.083 160.046
   vertex 67.3858 179.448 160.371
   vertex 67.8586 180.004 160.619
  endloop
 endfacet
 facet normal -0.704677 0.633251 -0.320038
  outer loop
   vertex 68.104 180.083 160.046
   vertex 68.111 179.746 159.365
   vertex 67.3858 179.448 160.371
  endloop
 endfacet
 facet normal -0.472556 0.877641 -0.0802284
  outer loop
   vertex 68.111 179.746 159.365
   vertex 67.1385 179.228 159.423
   vertex 67.3858 179.448 160.371
  endloop
 endfacet
 facet normal -0.647235 0.680799 -0.342928
  outer loop
   vertex 68.111 179.746 159.365
   vertex 68.104 180.083 160.046
   vertex 68.6602 180.379 159.584
  endloop
 endfacet
 facet normal 0.999167 -0.0117883 -0.0390745
  outer loop
   vertex 72.866 178.969 159.538
   vertex 72.8783 179.981 159.548
   vertex 72.9027 179.164 160.417
  endloop
 endfacet
 facet normal 0.989368 0.118788 0.083904
  outer loop
   vertex 72.9027 179.164 160.417
   vertex 72.8783 179.981 159.548
   vertex 72.7781 180.121 160.532
  endloop
 endfacet
 facet normal -0.764893 0.595276 -0.246142
  outer loop
   vertex 68.104 180.083 160.046
   vertex 67.8586 180.004 160.619
   vertex 68.2716 180.446 160.405
  endloop
 endfacet
 facet normal -0.655143 0.661626 -0.364745
  outer loop
   vertex 68.2716 180.446 160.405
   vertex 68.6602 180.379 159.584
   vertex 68.104 180.083 160.046
  endloop
 endfacet
 facet normal -0.646898 0.671372 -0.361639
  outer loop
   vertex 68.2716 180.446 160.405
   vertex 68.8433 181.055 160.512
   vertex 68.6602 180.379 159.584
  endloop
 endfacet
 facet normal -0.874815 0.457102 -0.160488
  outer loop
   vertex 68.8433 181.055 160.512
   vertex 69.0551 181.095 159.47
   vertex 68.6602 180.379 159.584
  endloop
 endfacet
 facet normal 0.993895 0.059682 0.0927931
  outer loop
   vertex 72.8783 179.981 159.548
   vertex 72.8039 181.08 159.639
   vertex 72.7781 180.121 160.532
  endloop
 endfacet
 facet normal 0.98082 0.118044 0.155107
  outer loop
   vertex 72.7781 180.121 160.532
   vertex 72.8039 181.08 159.639
   vertex 72.6348 181.224 160.598
  endloop
 endfacet
 facet normal -0.674918 0.729731 -0.109445
  outer loop
   vertex 69.0551 181.095 159.47
   vertex 68.8433 181.055 160.512
   vertex 69.5699 181.684 160.224
  endloop
 endfacet
 facet normal -0.565544 0.791318 -0.232325
  outer loop
   vertex 69.5735 181.445 159.402
   vertex 69.0551 181.095 159.47
   vertex 69.5699 181.684 160.224
  endloop
 endfacet
 facet normal -0.561043 0.746594 -0.357531
  outer loop
   vertex 70.6001 182.367 160.034
   vertex 69.5699 181.684 160.224
   vertex 70.2731 182.429 160.676
  endloop
 endfacet
 facet normal -0.496318 0.565832 -0.65841
  outer loop
   vertex 70.6001 182.367 160.034
   vertex 70.5422 181.694 159.499
   vertex 69.5699 181.684 160.224
  endloop
 endfacet
 facet normal -0.213332 0.937949 -0.273389
  outer loop
   vertex 70.5422 181.694 159.499
   vertex 69.5735 181.445 159.402
   vertex 69.5699 181.684 160.224
  endloop
 endfacet
 facet normal -0.0417475 0.463535 -0.885094
  outer loop
   vertex 70.5422 181.694 159.499
   vertex 71.5179 182.426 159.837
   vertex 71.6907 181.72 159.459
  endloop
 endfacet
 facet normal -0.20306 0.619801 -0.758032
  outer loop
   vertex 70.6001 182.367 160.034
   vertex 71.5179 182.426 159.837
   vertex 70.5422 181.694 159.499
  endloop
 endfacet
 facet normal 0.14572 0.566153 -0.811318
  outer loop
   vertex 71.6907 181.72 159.459
   vertex 72.3889 182.364 160.033
   vertex 72.494 181.696 159.586
  endloop
 endfacet
 facet normal 0.224502 0.501986 -0.83523
  outer loop
   vertex 71.5179 182.426 159.837
   vertex 72.3889 182.364 160.033
   vertex 71.6907 181.72 159.459
  endloop
 endfacet
 facet normal 0.743001 0.449222 -0.496134
  outer loop
   vertex 72.494 181.696 159.586
   vertex 72.3889 182.364 160.033
   vertex 72.711 182.27 160.431
  endloop
 endfacet
 facet normal 0.809126 0.36813 -0.458033
  outer loop
   vertex 72.494 181.696 159.586
   vertex 72.711 182.27 160.431
   vertex 72.8039 181.08 159.639
  endloop
 endfacet
 facet normal 0.982816 -0.0428443 0.179548
  outer loop
   vertex 72.8039 181.08 159.639
   vertex 72.711 182.27 160.431
   vertex 72.6348 181.224 160.598
  endloop
 endfacet
 facet normal -0.951093 0.00438792 -0.308872
  outer loop
   vertex 71.3655 182.991 159.631
   vertex 71.0903 183.122 160.48
   vertex 71.3528 183.326 159.675
  endloop
 endfacet
 facet normal -0.694446 0.642679 -0.323588
  outer loop
   vertex 71.3655 182.991 159.631
   vertex 70.6001 182.367 160.034
   vertex 71.0903 183.122 160.48
  endloop
 endfacet
 facet normal -0.171582 -0.377656 -0.90991
  outer loop
   vertex 71.3655 182.991 159.631
   vertex 71.5179 182.426 159.837
   vertex 70.6001 182.367 160.034
  endloop
 endfacet
 facet normal -0.647572 0.653049 -0.392655
  outer loop
   vertex 70.6001 182.367 160.034
   vertex 70.2731 182.429 160.676
   vertex 71.0903 183.122 160.48
  endloop
 endfacet
 facet normal 0.00033959 -0.342104 -0.939662
  outer loop
   vertex 71.7412 183.179 159.563
   vertex 71.5179 182.426 159.837
   vertex 71.3655 182.991 159.631
  endloop
 endfacet
 facet normal 0.59726 -0.424783 -0.680324
  outer loop
   vertex 71.7412 183.179 159.563
   vertex 72.2811 183.137 160.063
   vertex 71.5179 182.426 159.837
  endloop
 endfacet
 facet normal 0.22419 0.0691663 -0.972088
  outer loop
   vertex 72.2811 183.137 160.063
   vertex 72.3889 182.364 160.033
   vertex 71.5179 182.426 159.837
  endloop
 endfacet
 facet normal 0.782602 0.0637875 -0.619245
  outer loop
   vertex 72.6515 183.066 160.438
   vertex 72.711 182.27 160.431
   vertex 72.3889 182.364 160.033
  endloop
 endfacet
 facet normal 0.716715 0.126688 -0.685762
  outer loop
   vertex 72.2811 183.137 160.063
   vertex 72.6515 183.066 160.438
   vertex 72.3889 182.364 160.033
  endloop
 endfacet
 facet normal -0.545936 0.837111 0.0346412
  outer loop
   vertex 71.3528 183.326 159.675
   vertex 71.0903 183.122 160.48
   vertex 71.6482 183.487 160.431
  endloop
 endfacet
 facet normal -0.343658 0.936803 -0.0655711
  outer loop
   vertex 71.7135 183.46 159.696
   vertex 71.3528 183.326 159.675
   vertex 71.6482 183.487 160.431
  endloop
 endfacet
 facet normal 0.645217 0.377582 -0.664174
  outer loop
   vertex 72.2811 183.137 160.063
   vertex 71.7412 183.179 159.563
   vertex 71.7135 183.46 159.696
  endloop
 endfacet
 facet normal 0.651324 0.554461 -0.518026
  outer loop
   vertex 72.2811 183.137 160.063
   vertex 71.7135 183.46 159.696
   vertex 72.3638 183.422 160.473
  endloop
 endfacet
 facet normal 0.0921691 0.99532 -0.0290351
  outer loop
   vertex 72.3638 183.422 160.473
   vertex 71.7135 183.46 159.696
   vertex 71.6482 183.487 160.431
  endloop
 endfacet
 facet normal 0.636204 0.566718 -0.523522
  outer loop
   vertex 72.6515 183.066 160.438
   vertex 72.2811 183.137 160.063
   vertex 72.3638 183.422 160.473
  endloop
 endfacet
 facet normal -0.705388 -0.567992 0.424045
  outer loop
   vertex 68.2199 175.003 160.441
   vertex 68.2281 175.148 160.649
   vertex 68.0254 175.275 160.483
  endloop
 endfacet
 facet normal 0.442655 -0.743546 0.501194
  outer loop
   vertex 68.2199 175.003 160.441
   vertex 68.4285 175.185 160.528
   vertex 68.2281 175.148 160.649
  endloop
 endfacet
 facet normal -0.563484 -0.711962 0.419042
  outer loop
   vertex 67.3694 175.695 160.356
   vertex 67.21 176.075 160.788
   vertex 66.7949 176.113 160.294
  endloop
 endfacet
 facet normal -0.466717 -0.742028 0.481217
  outer loop
   vertex 67.3694 175.695 160.356
   vertex 67.7695 175.96 161.152
   vertex 67.21 176.075 160.788
  endloop
 endfacet
 facet normal -0.533974 -0.684778 0.495934
  outer loop
   vertex 68.0254 175.275 160.483
   vertex 67.7695 175.96 161.152
   vertex 67.3694 175.695 160.356
  endloop
 endfacet
 facet normal -0.308506 -0.721616 0.619753
  outer loop
   vertex 68.0254 175.275 160.483
   vertex 68.4042 175.698 161.164
   vertex 67.7695 175.96 161.152
  endloop
 endfacet
 facet normal -0.715142 -0.341464 0.609896
  outer loop
   vertex 68.0254 175.275 160.483
   vertex 68.2281 175.148 160.649
   vertex 68.4042 175.698 161.164
  endloop
 endfacet
 facet normal 0.469128 -0.678591 0.565184
  outer loop
   vertex 68.4285 175.185 160.528
   vertex 68.4042 175.698 161.164
   vertex 68.2281 175.148 160.649
  endloop
 endfacet
 facet normal 0.550757 -0.639306 0.536613
  outer loop
   vertex 68.4285 175.185 160.528
   vertex 69.0479 175.599 160.385
   vertex 68.4042 175.698 161.164
  endloop
 endfacet
 facet normal 0.154419 -0.956002 0.249431
  outer loop
   vertex 69.0479 175.599 160.385
   vertex 69.4128 175.868 161.189
   vertex 68.4042 175.698 161.164
  endloop
 endfacet
 facet normal 0.337603 -0.775043 0.534165
  outer loop
   vertex 70.2763 176.083 160.956
   vertex 69.689 176.221 161.527
   vertex 69.4128 175.868 161.189
  endloop
 endfacet
 facet normal 0.321174 -0.861412 0.393467
  outer loop
   vertex 70.2763 176.083 160.956
   vertex 69.4128 175.868 161.189
   vertex 70.2426 175.803 160.371
  endloop
 endfacet
 facet normal 0.166354 -0.955445 0.243827
  outer loop
   vertex 70.2426 175.803 160.371
   vertex 69.4128 175.868 161.189
   vertex 69.0479 175.599 160.385
  endloop
 endfacet
 facet normal 0.192378 -0.904494 0.380634
  outer loop
   vertex 70.2426 175.803 160.371
   vertex 71.1764 175.928 160.194
   vertex 71.1247 176.163 160.778
  endloop
 endfacet
 facet normal 0.170726 -0.892684 0.417094
  outer loop
   vertex 70.2763 176.083 160.956
   vertex 70.2426 175.803 160.371
   vertex 71.1247 176.163 160.778
  endloop
 endfacet
 facet normal 0.533829 -0.767171 0.355634
  outer loop
   vertex 71.1764 175.928 160.194
   vertex 71.6657 176.402 160.484
   vertex 71.1247 176.163 160.778
  endloop
 endfacet
 facet normal -0.705174 -0.229321 0.670926
  outer loop
   vertex 66.2639 176.821 160.41
   vertex 67.0769 176.957 161.311
   vertex 66.1116 177.344 160.429
  endloop
 endfacet
 facet normal -0.583718 -0.538213 0.607947
  outer loop
   vertex 66.7949 176.113 160.294
   vertex 67.0769 176.957 161.311
   vertex 66.2639 176.821 160.41
  endloop
 endfacet
 facet normal -0.736153 -0.406586 0.541079
  outer loop
   vertex 66.7949 176.113 160.294
   vertex 67.2823 176.475 161.229
   vertex 67.0769 176.957 161.311
  endloop
 endfacet
 facet normal -0.690886 -0.475836 0.544295
  outer loop
   vertex 66.7949 176.113 160.294
   vertex 67.21 176.075 160.788
   vertex 67.2823 176.475 161.229
  endloop
 endfacet
 facet normal -0.523658 -0.586896 0.617523
  outer loop
   vertex 67.7695 175.96 161.152
   vertex 67.2823 176.475 161.229
   vertex 67.21 176.075 160.788
  endloop
 endfacet
 facet normal 0.382973 -0.727419 0.56938
  outer loop
   vertex 70.2763 176.083 160.956
   vertex 70.431 176.602 161.515
   vertex 69.689 176.221 161.527
  endloop
 endfacet
 facet normal 0.20262 -0.744971 0.635581
  outer loop
   vertex 71.1247 176.163 160.778
   vertex 70.431 176.602 161.515
   vertex 70.2763 176.083 160.956
  endloop
 endfacet
 facet normal 0.211696 -0.738437 0.640231
  outer loop
   vertex 71.3207 176.749 161.39
   vertex 70.431 176.602 161.515
   vertex 71.1247 176.163 160.778
  endloop
 endfacet
 facet normal 0.55947 -0.680527 0.473156
  outer loop
   vertex 71.3207 176.749 161.39
   vertex 71.1247 176.163 160.778
   vertex 71.6657 176.402 160.484
  endloop
 endfacet
 facet normal 0.57971 -0.662724 0.47406
  outer loop
   vertex 71.3207 176.749 161.39
   vertex 71.6657 176.402 160.484
   vertex 71.7987 177.053 161.231
  endloop
 endfacet
 facet normal 0.89596 -0.401373 0.190147
  outer loop
   vertex 71.7987 177.053 161.231
   vertex 71.6657 176.402 160.484
   vertex 71.9986 177.164 160.523
  endloop
 endfacet
 facet normal -0.689235 -0.0769337 0.720441
  outer loop
   vertex 67.0462 178.033 161.397
   vertex 66.1116 177.344 160.429
   vertex 67.0769 176.957 161.311
  endloop
 endfacet
 facet normal -0.70983 -0.0257448 0.703903
  outer loop
   vertex 66.0893 178.028 160.432
   vertex 66.1116 177.344 160.429
   vertex 67.0462 178.033 161.397
  endloop
 endfacet
 facet normal 0.790835 -0.598146 0.12962
  outer loop
   vertex 71.9986 177.164 160.523
   vertex 72.3484 177.797 161.309
   vertex 71.7987 177.053 161.231
  endloop
 endfacet
 facet normal 0.78031 -0.608843 0.14292
  outer loop
   vertex 72.4734 177.723 160.31
   vertex 72.3484 177.797 161.309
   vertex 71.9986 177.164 160.523
  endloop
 endfacet
 facet normal 0.825459 -0.545816 0.143881
  outer loop
   vertex 72.3484 177.797 161.309
   vertex 72.4734 177.723 160.31
   vertex 72.8214 178.276 160.413
  endloop
 endfacet
 facet normal 0.840646 -0.514686 0.16856
  outer loop
   vertex 72.7415 178.425 161.267
   vertex 72.3484 177.797 161.309
   vertex 72.8214 178.276 160.413
  endloop
 endfacet
 facet normal -0.543898 0.677762 0.494787
  outer loop
   vertex 66.8758 179.034 160.378
   vertex 67.0587 178.681 161.063
   vertex 67.3858 179.448 160.371
  endloop
 endfacet
 facet normal -0.665359 0.576097 0.474774
  outer loop
   vertex 66.4155 178.483 160.402
   vertex 67.0587 178.681 161.063
   vertex 66.8758 179.034 160.378
  endloop
 endfacet
 facet normal -0.724435 0.326901 0.606902
  outer loop
   vertex 66.4155 178.483 160.402
   vertex 67.0462 178.033 161.397
   vertex 67.0587 178.681 161.063
  endloop
 endfacet
 facet normal -0.621489 0.486722 0.613884
  outer loop
   vertex 66.4155 178.483 160.402
   vertex 66.0893 178.028 160.432
   vertex 67.0462 178.033 161.397
  endloop
 endfacet
 facet normal -0.673485 0.632249 0.382988
  outer loop
   vertex 67.0587 178.681 161.063
   vertex 67.6849 179.131 161.421
   vertex 67.3858 179.448 160.371
  endloop
 endfacet
 facet normal 0.989912 -0.0910368 0.10857
  outer loop
   vertex 72.8214 178.276 160.413
   vertex 72.9027 179.164 160.417
   vertex 72.7415 178.425 161.267
  endloop
 endfacet
 facet normal 0.984065 -0.0105143 0.177496
  outer loop
   vertex 72.7415 178.425 161.267
   vertex 72.9027 179.164 160.417
   vertex 72.7578 179.2 161.222
  endloop
 endfacet
 facet normal -0.782482 0.498194 0.37353
  outer loop
   vertex 67.3858 179.448 160.371
   vertex 67.6849 179.131 161.421
   vertex 67.8586 180.004 160.619
  endloop
 endfacet
 facet normal -0.90994 0.363718 0.199296
  outer loop
   vertex 67.6849 179.131 161.421
   vertex 68.1023 180.199 161.378
   vertex 67.8586 180.004 160.619
  endloop
 endfacet
 facet normal 0.762253 0.388184 0.517962
  outer loop
   vertex 72.7781 180.121 160.532
   vertex 72.0843 180.261 161.448
   vertex 72.4607 179.505 161.46
  endloop
 endfacet
 facet normal 0.780557 0.36399 0.508175
  outer loop
   vertex 72.7781 180.121 160.532
   vertex 72.4607 179.505 161.46
   vertex 72.7578 179.2 161.222
  endloop
 endfacet
 facet normal 0.979377 0.106998 0.171381
  outer loop
   vertex 72.7781 180.121 160.532
   vertex 72.7578 179.2 161.222
   vertex 72.9027 179.164 160.417
  endloop
 endfacet
 facet normal -0.716718 0.695397 0.0523258
  outer loop
   vertex 68.2716 180.446 160.405
   vertex 67.8586 180.004 160.619
   vertex 68.1023 180.199 161.378
  endloop
 endfacet
 facet normal -0.732131 0.679633 0.0456349
  outer loop
   vertex 68.1023 180.199 161.378
   vertex 68.8433 181.055 160.512
   vertex 68.2716 180.446 160.405
  endloop
 endfacet
 facet normal -0.755805 0.654797 0.000826049
  outer loop
   vertex 68.8187 181.025 161.577
   vertex 68.8433 181.055 160.512
   vertex 68.1023 180.199 161.378
  endloop
 endfacet
 facet normal 0.800221 0.067904 0.595848
  outer loop
   vertex 72.6348 181.224 160.598
   vertex 72.0843 180.261 161.448
   vertex 72.7781 180.121 160.532
  endloop
 endfacet
 facet normal 0.786692 0.0889269 0.610908
  outer loop
   vertex 71.9458 181.252 161.482
   vertex 72.0843 180.261 161.448
   vertex 72.6348 181.224 160.598
  endloop
 endfacet
 facet normal -0.667147 0.744907 0.0053963
  outer loop
   vertex 68.8433 181.055 160.512
   vertex 68.8187 181.025 161.577
   vertex 69.4865 181.625 161.363
  endloop
 endfacet
 facet normal -0.656397 0.754361 -0.00906315
  outer loop
   vertex 69.5699 181.684 160.224
   vertex 68.8433 181.055 160.512
   vertex 69.4865 181.625 161.363
  endloop
 endfacet
 facet normal -0.721991 0.691691 -0.0171089
  outer loop
   vertex 69.4865 181.625 161.363
   vertex 70.2731 182.429 160.676
   vertex 69.5699 181.684 160.224
  endloop
 endfacet
 facet normal -0.635206 0.756064 0.157738
  outer loop
   vertex 70.1802 182.184 161.474
   vertex 70.2731 182.429 160.676
   vertex 69.4865 181.625 161.363
  endloop
 endfacet
 facet normal 0.787051 -0.0433891 0.61536
  outer loop
   vertex 72.4289 182.111 160.924
   vertex 71.9458 181.252 161.482
   vertex 72.6348 181.224 160.598
  endloop
 endfacet
 facet normal 0.73512 0.0260832 0.677435
  outer loop
   vertex 71.8842 182.121 161.515
   vertex 71.9458 181.252 161.482
   vertex 72.4289 182.111 160.924
  endloop
 endfacet
 facet normal 0.86568 0.0171348 0.500305
  outer loop
   vertex 72.6348 181.224 160.598
   vertex 72.711 182.27 160.431
   vertex 72.4289 182.111 160.924
  endloop
 endfacet
 facet normal -0.722063 0.680536 0.124479
  outer loop
   vertex 70.2731 182.429 160.676
   vertex 70.1802 182.184 161.474
   vertex 70.5782 182.647 161.252
  endloop
 endfacet
 facet normal -0.639179 0.767584 0.0475937
  outer loop
   vertex 70.5782 182.647 161.252
   vertex 71.0903 183.122 160.48
   vertex 70.2731 182.429 160.676
  endloop
 endfacet
 facet normal -0.60599 0.791023 0.0840089
  outer loop
   vertex 71.1695 183.091 161.342
   vertex 71.0903 183.122 160.48
   vertex 70.5782 182.647 161.252
  endloop
 endfacet
 facet normal 0.712325 -0.236842 0.66068
  outer loop
   vertex 72.4289 182.111 160.924
   vertex 72.3257 182.916 161.324
   vertex 71.8842 182.121 161.515
  endloop
 endfacet
 facet normal 0.878008 -0.117837 0.463913
  outer loop
   vertex 72.3257 182.916 161.324
   vertex 72.4289 182.111 160.924
   vertex 72.711 182.27 160.431
  endloop
 endfacet
 facet normal 0.811958 -0.24706 0.528854
  outer loop
   vertex 72.3257 182.916 161.324
   vertex 72.711 182.27 160.431
   vertex 72.5862 183.169 161.043
  endloop
 endfacet
 facet normal 0.99279 0.0733306 0.0948152
  outer loop
   vertex 72.5862 183.169 161.043
   vertex 72.711 182.27 160.431
   vertex 72.6515 183.066 160.438
  endloop
 endfacet
 facet normal -0.564306 0.821556 0.0812708
  outer loop
   vertex 71.0903 183.122 160.48
   vertex 71.1695 183.091 161.342
   vertex 71.5446 183.364 161.184
  endloop
 endfacet
 facet normal -0.543482 0.837093 0.0624773
  outer loop
   vertex 71.6482 183.487 160.431
   vertex 71.0903 183.122 160.48
   vertex 71.5446 183.364 161.184
  endloop
 endfacet
 facet normal 0.0827597 0.989031 0.122344
  outer loop
   vertex 72.3638 183.422 160.473
   vertex 71.6482 183.487 160.431
   vertex 72.2399 183.343 161.2
  endloop
 endfacet
 facet normal 0.0263196 0.985904 0.165229
  outer loop
   vertex 71.6482 183.487 160.431
   vertex 71.5446 183.364 161.184
   vertex 72.2399 183.343 161.2
  endloop
 endfacet
 facet normal 0.776313 0.629923 -0.0231237
  outer loop
   vertex 72.5862 183.169 161.043
   vertex 72.6515 183.066 160.438
   vertex 72.3638 183.422 160.473
  endloop
 endfacet
 facet normal 0.504662 0.844666 0.178481
  outer loop
   vertex 72.2399 183.343 161.2
   vertex 72.5862 183.169 161.043
   vertex 72.3638 183.422 160.473
  endloop
 endfacet
 facet normal -0.283176 -0.656715 0.698954
  outer loop
   vertex 68.4042 175.698 161.164
   vertex 68.0442 176.293 161.577
   vertex 67.7695 175.96 161.152
  endloop
 endfacet
 facet normal 0.111783 -0.760248 0.639944
  outer loop
   vertex 68.4042 175.698 161.164
   vertex 69.4128 175.868 161.189
   vertex 69.0296 176.297 161.766
  endloop
 endfacet
 facet normal -0.145107 -0.622075 0.769394
  outer loop
   vertex 68.0442 176.293 161.577
   vertex 68.4042 175.698 161.164
   vertex 69.0296 176.297 161.766
  endloop
 endfacet
 facet normal 0.150959 -0.742418 0.652707
  outer loop
   vertex 69.4128 175.868 161.189
   vertex 69.689 176.221 161.527
   vertex 69.0296 176.297 161.766
  endloop
 endfacet
 facet normal -0.45333 -0.534615 0.713217
  outer loop
   vertex 67.2823 176.475 161.229
   vertex 67.7695 175.96 161.152
   vertex 68.0442 176.293 161.577
  endloop
 endfacet
 facet normal -0.456414 -0.33557 0.824063
  outer loop
   vertex 67.2823 176.475 161.229
   vertex 68.0442 176.293 161.577
   vertex 67.0769 176.957 161.311
  endloop
 endfacet
 facet normal -0.425539 -0.27534 0.862035
  outer loop
   vertex 67.0769 176.957 161.311
   vertex 68.0442 176.293 161.577
   vertex 68.124 177.182 161.9
  endloop
 endfacet
 facet normal -0.133173 -0.630163 0.764957
  outer loop
   vertex 68.9616 177.255 162.543
   vertex 69.0296 176.297 161.766
   vertex 69.6137 176.889 162.355
  endloop
 endfacet
 facet normal -0.464842 -0.577545 0.671091
  outer loop
   vertex 68.9616 177.255 162.543
   vertex 68.124 177.182 161.9
   vertex 69.0296 176.297 161.766
  endloop
 endfacet
 facet normal -0.17702 -0.322336 0.929926
  outer loop
   vertex 68.124 177.182 161.9
   vertex 68.0442 176.293 161.577
   vertex 69.0296 176.297 161.766
  endloop
 endfacet
 facet normal 0.139914 -0.764477 0.629285
  outer loop
   vertex 69.689 176.221 161.527
   vertex 69.6137 176.889 162.355
   vertex 69.0296 176.297 161.766
  endloop
 endfacet
 facet normal 0.372295 -0.70561 0.602919
  outer loop
   vertex 69.689 176.221 161.527
   vertex 70.431 176.602 161.515
   vertex 69.6137 176.889 162.355
  endloop
 endfacet
 facet normal 0.18641 -0.860074 0.474893
  outer loop
   vertex 70.431 176.602 161.515
   vertex 70.6572 177.036 162.213
   vertex 69.6137 176.889 162.355
  endloop
 endfacet
 facet normal 0.469668 -0.644022 0.603861
  outer loop
   vertex 71.5411 177.248 161.751
   vertex 70.6572 177.036 162.213
   vertex 71.3207 176.749 161.39
  endloop
 endfacet
 facet normal 0.207294 -0.859276 0.467626
  outer loop
   vertex 71.3207 176.749 161.39
   vertex 70.6572 177.036 162.213
   vertex 70.431 176.602 161.515
  endloop
 endfacet
 facet normal 0.574958 -0.63069 0.521204
  outer loop
   vertex 71.3207 176.749 161.39
   vertex 71.7987 177.053 161.231
   vertex 71.5411 177.248 161.751
  endloop
 endfacet
 facet normal -0.720353 -0.339609 0.604779
  outer loop
   vertex 67.9214 178.223 162.243
   vertex 68.124 177.182 161.9
   vertex 68.3687 177.816 162.548
  endloop
 endfacet
 facet normal -0.609849 -0.352693 0.709712
  outer loop
   vertex 67.9214 178.223 162.243
   vertex 67.0462 178.033 161.397
   vertex 68.124 177.182 161.9
  endloop
 endfacet
 facet normal -0.474826 -0.0832258 0.876136
  outer loop
   vertex 67.0462 178.033 161.397
   vertex 67.0769 176.957 161.311
   vertex 68.124 177.182 161.9
  endloop
 endfacet
 facet normal -0.48975 -0.52322 0.697414
  outer loop
   vertex 68.9616 177.255 162.543
   vertex 68.3687 177.816 162.548
   vertex 68.124 177.182 161.9
  endloop
 endfacet
 facet normal 0.490484 -0.515426 0.702682
  outer loop
   vertex 71.5411 177.248 161.751
   vertex 71.5749 178.115 162.363
   vertex 70.6572 177.036 162.213
  endloop
 endfacet
 facet normal 0.533041 -0.618264 0.577596
  outer loop
   vertex 72.3484 177.797 161.309
   vertex 72.4348 178.243 161.707
   vertex 71.5749 178.115 162.363
  endloop
 endfacet
 facet normal 0.645709 -0.457145 0.611619
  outer loop
   vertex 72.3484 177.797 161.309
   vertex 71.5749 178.115 162.363
   vertex 71.5411 177.248 161.751
  endloop
 endfacet
 facet normal 0.655913 -0.540092 0.527332
  outer loop
   vertex 72.3484 177.797 161.309
   vertex 71.5411 177.248 161.751
   vertex 71.7987 177.053 161.231
  endloop
 endfacet
 facet normal 0.801193 -0.477126 0.361165
  outer loop
   vertex 72.3484 177.797 161.309
   vertex 72.7415 178.425 161.267
   vertex 72.4348 178.243 161.707
  endloop
 endfacet
 facet normal -0.644507 0.360189 0.674444
  outer loop
   vertex 67.0462 178.033 161.397
   vertex 67.6849 179.131 161.421
   vertex 67.0587 178.681 161.063
  endloop
 endfacet
 facet normal -0.683622 0.384113 0.620578
  outer loop
   vertex 67.0462 178.033 161.397
   vertex 67.9214 178.223 162.243
   vertex 67.6849 179.131 161.421
  endloop
 endfacet
 facet normal -0.937199 0.0661158 0.342472
  outer loop
   vertex 67.9214 178.223 162.243
   vertex 68.0207 179.207 162.325
   vertex 67.6849 179.131 161.421
  endloop
 endfacet
 facet normal 0.60899 -0.0258769 0.792756
  outer loop
   vertex 72.4311 178.912 161.732
   vertex 71.5749 178.115 162.363
   vertex 72.4348 178.243 161.707
  endloop
 endfacet
 facet normal 0.617477 -0.0407142 0.785534
  outer loop
   vertex 71.8056 179.36 162.246
   vertex 71.5749 178.115 162.363
   vertex 72.4311 178.912 161.732
  endloop
 endfacet
 facet normal 0.83808 0.013703 0.545375
  outer loop
   vertex 72.7415 178.425 161.267
   vertex 72.7578 179.2 161.222
   vertex 72.4311 178.912 161.732
  endloop
 endfacet
 facet normal 0.823448 -0.0163995 0.567155
  outer loop
   vertex 72.4348 178.243 161.707
   vertex 72.7415 178.425 161.267
   vertex 72.4311 178.912 161.732
  endloop
 endfacet
 facet normal -0.884836 0.357874 0.298315
  outer loop
   vertex 67.6849 179.131 161.421
   vertex 68.0207 179.207 162.325
   vertex 68.1023 180.199 161.378
  endloop
 endfacet
 facet normal -0.934261 0.283535 0.216252
  outer loop
   vertex 68.0207 179.207 162.325
   vertex 68.3682 180.211 162.511
   vertex 68.1023 180.199 161.378
  endloop
 endfacet
 facet normal 0.71773 0.259803 0.646039
  outer loop
   vertex 72.4607 179.505 161.46
   vertex 71.8056 179.36 162.246
   vertex 72.4311 178.912 161.732
  endloop
 endfacet
 facet normal 0.686002 0.352205 0.636673
  outer loop
   vertex 72.4607 179.505 161.46
   vertex 72.0843 180.261 161.448
   vertex 71.8056 179.36 162.246
  endloop
 endfacet
 facet normal 0.887931 0.119243 0.444252
  outer loop
   vertex 72.0843 180.261 161.448
   vertex 71.6557 180.417 162.262
   vertex 71.8056 179.36 162.246
  endloop
 endfacet
 facet normal 0.746892 0.245498 0.617966
  outer loop
   vertex 72.7578 179.2 161.222
   vertex 72.4607 179.505 161.46
   vertex 72.4311 178.912 161.732
  endloop
 endfacet
 facet normal -0.764506 0.621036 0.172757
  outer loop
   vertex 68.3682 180.211 162.511
   vertex 68.8187 181.025 161.577
   vertex 68.1023 180.199 161.378
  endloop
 endfacet
 facet normal -0.692914 0.674759 0.254109
  outer loop
   vertex 69.2708 181.184 162.387
   vertex 68.8187 181.025 161.577
   vertex 68.3682 180.211 162.511
  endloop
 endfacet
 facet normal 0.888202 0.108796 0.446387
  outer loop
   vertex 72.0843 180.261 161.448
   vertex 71.9458 181.252 161.482
   vertex 71.6557 180.417 162.262
  endloop
 endfacet
 facet normal 0.889202 0.106992 0.444829
  outer loop
   vertex 71.6557 180.417 162.262
   vertex 71.9458 181.252 161.482
   vertex 71.5811 181.362 162.184
  endloop
 endfacet
 facet normal -0.619504 0.760014 0.196451
  outer loop
   vertex 69.4865 181.625 161.363
   vertex 68.8187 181.025 161.577
   vertex 69.2708 181.184 162.387
  endloop
 endfacet
 facet normal -0.457832 0.679254 0.573589
  outer loop
   vertex 70.1802 182.184 161.474
   vertex 70.2156 181.54 162.265
   vertex 70.7359 182.33 161.745
  endloop
 endfacet
 facet normal -0.582613 0.617276 0.528708
  outer loop
   vertex 70.1802 182.184 161.474
   vertex 69.4865 181.625 161.363
   vertex 70.2156 181.54 162.265
  endloop
 endfacet
 facet normal -0.296711 0.898373 0.323864
  outer loop
   vertex 69.4865 181.625 161.363
   vertex 69.2708 181.184 162.387
   vertex 70.2156 181.54 162.265
  endloop
 endfacet
 facet normal 0.0312787 0.585217 0.810274
  outer loop
   vertex 70.7359 182.33 161.745
   vertex 71.1642 181.504 162.325
   vertex 71.5313 182.268 161.76
  endloop
 endfacet
 facet normal -0.0310489 0.56357 0.825485
  outer loop
   vertex 70.2156 181.54 162.265
   vertex 71.1642 181.504 162.325
   vertex 70.7359 182.33 161.745
  endloop
 endfacet
 facet normal 0.413819 0.405027 0.815296
  outer loop
   vertex 71.5313 182.268 161.76
   vertex 71.1642 181.504 162.325
   vertex 71.5811 181.362 162.184
  endloop
 endfacet
 facet normal 0.627939 0.358421 0.690816
  outer loop
   vertex 71.5313 182.268 161.76
   vertex 71.5811 181.362 162.184
   vertex 71.8842 182.121 161.515
  endloop
 endfacet
 facet normal 0.889524 0.0455809 0.454609
  outer loop
   vertex 71.8842 182.121 161.515
   vertex 71.5811 181.362 162.184
   vertex 71.9458 181.252 161.482
  endloop
 endfacet
 facet normal -0.459341 0.672533 0.580263
  outer loop
   vertex 70.1802 182.184 161.474
   vertex 70.7359 182.33 161.745
   vertex 70.5782 182.647 161.252
  endloop
 endfacet
 facet normal -0.546444 0.613517 0.570084
  outer loop
   vertex 71.1695 183.091 161.342
   vertex 70.5782 182.647 161.252
   vertex 70.7359 182.33 161.745
  endloop
 endfacet
 facet normal -0.324326 0.580663 0.746755
  outer loop
   vertex 71.1695 183.091 161.342
   vertex 70.7359 182.33 161.745
   vertex 71.5735 183.084 161.523
  endloop
 endfacet
 facet normal 0.0047262 0.278327 0.960475
  outer loop
   vertex 71.5735 183.084 161.523
   vertex 70.7359 182.33 161.745
   vertex 71.5313 182.268 161.76
  endloop
 endfacet
 facet normal 0.538739 -0.0982283 0.836727
  outer loop
   vertex 71.8842 182.121 161.515
   vertex 72.3257 182.916 161.324
   vertex 71.5313 182.268 161.76
  endloop
 endfacet
 facet normal 0.299247 0.251483 0.920439
  outer loop
   vertex 71.5313 182.268 161.76
   vertex 72.3257 182.916 161.324
   vertex 71.5735 183.084 161.523
  endloop
 endfacet
 facet normal -0.268448 0.730692 0.627714
  outer loop
   vertex 71.1695 183.091 161.342
   vertex 71.5735 183.084 161.523
   vertex 71.5446 183.364 161.184
  endloop
 endfacet
 facet normal 0.00929298 0.770708 0.637121
  outer loop
   vertex 72.2399 183.343 161.2
   vertex 71.5446 183.364 161.184
   vertex 71.5735 183.084 161.523
  endloop
 endfacet
 facet normal 0.308406 0.322778 0.894819
  outer loop
   vertex 72.3257 182.916 161.324
   vertex 72.2399 183.343 161.2
   vertex 71.5735 183.084 161.523
  endloop
 endfacet
 facet normal 0.523138 0.333657 0.784219
  outer loop
   vertex 72.5862 183.169 161.043
   vertex 72.2399 183.343 161.2
   vertex 72.3257 182.916 161.324
  endloop
 endfacet
 facet normal 0.191703 -0.777553 0.598884
  outer loop
   vertex 69.6137 176.889 162.355
   vertex 70.6572 177.036 162.213
   vertex 70.3568 177.398 162.778
  endloop
 endfacet
 facet normal -0.701797 -0.282315 0.654048
  outer loop
   vertex 68.3687 177.816 162.548
   vertex 68.3674 178.43 162.812
   vertex 67.9214 178.223 162.243
  endloop
 endfacet
 facet normal -0.64927 -0.301218 0.698367
  outer loop
   vertex 68.3687 177.816 162.548
   vertex 68.9388 178.093 163.197
   vertex 68.3674 178.43 162.812
  endloop
 endfacet
 facet normal -0.505285 -0.539412 0.673588
  outer loop
   vertex 68.9616 177.255 162.543
   vertex 68.9388 178.093 163.197
   vertex 68.3687 177.816 162.548
  endloop
 endfacet
 facet normal -0.337346 -0.584856 0.737659
  outer loop
   vertex 68.9616 177.255 162.543
   vertex 69.5476 177.926 163.343
   vertex 68.9388 178.093 163.197
  endloop
 endfacet
 facet normal -0.180487 -0.684487 0.70633
  outer loop
   vertex 68.9616 177.255 162.543
   vertex 69.6137 176.889 162.355
   vertex 69.5476 177.926 163.343
  endloop
 endfacet
 facet normal 0.0580153 -0.686709 0.724613
  outer loop
   vertex 70.3568 177.398 162.778
   vertex 69.5476 177.926 163.343
   vertex 69.6137 176.889 162.355
  endloop
 endfacet
 facet normal 0.107889 -0.644699 0.756785
  outer loop
   vertex 70.5204 177.992 163.261
   vertex 69.5476 177.926 163.343
   vertex 70.3568 177.398 162.778
  endloop
 endfacet
 facet normal 0.634658 -0.307203 0.709109
  outer loop
   vertex 71.1412 178.367 162.868
   vertex 70.5708 178.313 163.355
   vertex 70.5204 177.992 163.261
  endloop
 endfacet
 facet normal 0.636242 -0.314827 0.70433
  outer loop
   vertex 71.5749 178.115 162.363
   vertex 71.1412 178.367 162.868
   vertex 70.5204 177.992 163.261
  endloop
 endfacet
 facet normal 0.552868 -0.611897 0.565613
  outer loop
   vertex 71.5749 178.115 162.363
   vertex 70.5204 177.992 163.261
   vertex 70.3568 177.398 162.778
  endloop
 endfacet
 facet normal 0.540301 -0.548765 0.637912
  outer loop
   vertex 71.5749 178.115 162.363
   vertex 70.3568 177.398 162.778
   vertex 70.6572 177.036 162.213
  endloop
 endfacet
 facet normal -0.820909 -0.00879851 0.570991
  outer loop
   vertex 68.3674 178.43 162.812
   vertex 68.3951 179.368 162.866
   vertex 68.0207 179.207 162.325
  endloop
 endfacet
 facet normal -0.791425 0.0291398 0.610571
  outer loop
   vertex 67.9214 178.223 162.243
   vertex 68.3674 178.43 162.812
   vertex 68.0207 179.207 162.325
  endloop
 endfacet
 facet normal -0.578868 -0.0498343 0.813897
  outer loop
   vertex 69.2867 178.982 163.499
   vertex 68.3674 178.43 162.812
   vertex 68.9388 178.093 163.197
  endloop
 endfacet
 facet normal -0.587283 -0.0295196 0.808843
  outer loop
   vertex 68.3951 179.368 162.866
   vertex 68.3674 178.43 162.812
   vertex 69.2867 178.982 163.499
  endloop
 endfacet
 facet normal 0.524725 0.341904 0.779593
  outer loop
   vertex 70.5967 179.129 162.956
   vertex 69.7633 179.399 163.398
   vertex 70.1897 178.614 163.456
  endloop
 endfacet
 facet normal 0.498953 0.367428 0.784884
  outer loop
   vertex 70.5708 178.313 163.355
   vertex 70.5967 179.129 162.956
   vertex 70.1897 178.614 163.456
  endloop
 endfacet
 facet normal 0.591945 0.338412 0.731491
  outer loop
   vertex 70.5708 178.313 163.355
   vertex 71.1412 178.367 162.868
   vertex 70.5967 179.129 162.956
  endloop
 endfacet
 facet normal 0.377531 0.164205 0.911321
  outer loop
   vertex 71.1412 178.367 162.868
   vertex 71.3827 179.047 162.645
   vertex 70.5967 179.129 162.956
  endloop
 endfacet
 facet normal 0.709816 -0.0657332 0.701314
  outer loop
   vertex 71.5749 178.115 162.363
   vertex 71.8056 179.36 162.246
   vertex 71.3827 179.047 162.645
  endloop
 endfacet
 facet normal 0.745646 -0.0472676 0.664663
  outer loop
   vertex 71.1412 178.367 162.868
   vertex 71.5749 178.115 162.363
   vertex 71.3827 179.047 162.645
  endloop
 endfacet
 facet normal -0.998594 -0.0099482 0.0520722
  outer loop
   vertex 68.3951 179.368 162.866
   vertex 68.3881 179.989 162.85
   vertex 68.3682 180.211 162.511
  endloop
 endfacet
 facet normal -0.832624 0.192257 0.519399
  outer loop
   vertex 68.0207 179.207 162.325
   vertex 68.3951 179.368 162.866
   vertex 68.3682 180.211 162.511
  endloop
 endfacet
 facet normal -0.594588 -0.0577217 0.801956
  outer loop
   vertex 68.891 179.985 163.278
   vertex 68.3951 179.368 162.866
   vertex 69.2867 178.982 163.499
  endloop
 endfacet
 facet normal -0.648213 0.0125193 0.761357
  outer loop
   vertex 68.3881 179.989 162.85
   vertex 68.3951 179.368 162.866
   vertex 68.891 179.985 163.278
  endloop
 endfacet
 facet normal 0.504156 0.168543 0.847006
  outer loop
   vertex 70.374 180.261 162.863
   vertex 69.7633 179.399 163.398
   vertex 70.5967 179.129 162.956
  endloop
 endfacet
 facet normal 0.499784 0.172727 0.848753
  outer loop
   vertex 69.5896 180.222 163.333
   vertex 69.7633 179.399 163.398
   vertex 70.374 180.261 162.863
  endloop
 endfacet
 facet normal 0.372416 0.057512 0.926282
  outer loop
   vertex 71.3827 179.047 162.645
   vertex 71.3011 179.988 162.62
   vertex 70.5967 179.129 162.956
  endloop
 endfacet
 facet normal 0.28887 0.13447 0.947878
  outer loop
   vertex 71.3011 179.988 162.62
   vertex 70.374 180.261 162.863
   vertex 70.5967 179.129 162.956
  endloop
 endfacet
 facet normal 0.656452 0.0818223 0.749917
  outer loop
   vertex 71.8056 179.36 162.246
   vertex 71.6557 180.417 162.262
   vertex 71.3011 179.988 162.62
  endloop
 endfacet
 facet normal 0.653146 0.0771609 0.75329
  outer loop
   vertex 71.3827 179.047 162.645
   vertex 71.8056 179.36 162.246
   vertex 71.3011 179.988 162.62
  endloop
 endfacet
 facet normal -0.276641 0.735406 0.618586
  outer loop
   vertex 69.2708 181.184 162.387
   vertex 69.2003 180.461 163.216
   vertex 69.6571 180.977 162.806
  endloop
 endfacet
 facet normal -0.605684 0.624203 0.493475
  outer loop
   vertex 68.3682 180.211 162.511
   vertex 69.2003 180.461 163.216
   vertex 69.2708 181.184 162.387
  endloop
 endfacet
 facet normal -0.643638 0.494254 0.584332
  outer loop
   vertex 68.3682 180.211 162.511
   vertex 68.891 179.985 163.278
   vertex 69.2003 180.461 163.216
  endloop
 endfacet
 facet normal -0.42902 0.744296 0.511825
  outer loop
   vertex 68.3682 180.211 162.511
   vertex 68.3881 179.989 162.85
   vertex 68.891 179.985 163.278
  endloop
 endfacet
 facet normal 0.0982453 0.563701 0.820115
  outer loop
   vertex 69.5896 180.222 163.333
   vertex 69.6571 180.977 162.806
   vertex 69.2003 180.461 163.216
  endloop
 endfacet
 facet normal 0.429908 0.490644 0.757924
  outer loop
   vertex 69.5896 180.222 163.333
   vertex 70.374 180.261 162.863
   vertex 69.6571 180.977 162.806
  endloop
 endfacet
 facet normal 0.158811 0.235417 0.958831
  outer loop
   vertex 70.374 180.261 162.863
   vertex 70.5031 181.133 162.628
   vertex 69.6571 180.977 162.806
  endloop
 endfacet
 facet normal 0.278044 0.0901426 0.956329
  outer loop
   vertex 71.3011 179.988 162.62
   vertex 71.2599 180.944 162.541
   vertex 70.374 180.261 162.863
  endloop
 endfacet
 facet normal 0.167669 0.233806 0.957717
  outer loop
   vertex 71.2599 180.944 162.541
   vertex 70.5031 181.133 162.628
   vertex 70.374 180.261 162.863
  endloop
 endfacet
 facet normal 0.669114 0.113532 0.734436
  outer loop
   vertex 71.6557 180.417 162.262
   vertex 71.5811 181.362 162.184
   vertex 71.2599 180.944 162.541
  endloop
 endfacet
 facet normal 0.650932 0.0896386 0.753825
  outer loop
   vertex 71.3011 179.988 162.62
   vertex 71.6557 180.417 162.262
   vertex 71.2599 180.944 162.541
  endloop
 endfacet
 facet normal -0.217951 0.78006 0.586518
  outer loop
   vertex 70.2156 181.54 162.265
   vertex 69.2708 181.184 162.387
   vertex 69.6571 180.977 162.806
  endloop
 endfacet
 facet normal 0.0303653 0.676967 0.735387
  outer loop
   vertex 70.5031 181.133 162.628
   vertex 70.2156 181.54 162.265
   vertex 69.6571 180.977 162.806
  endloop
 endfacet
 facet normal -0.0229184 0.656189 0.754249
  outer loop
   vertex 71.1642 181.504 162.325
   vertex 70.2156 181.54 162.265
   vertex 70.5031 181.133 162.628
  endloop
 endfacet
 facet normal 0.198397 0.382494 0.902406
  outer loop
   vertex 71.2599 180.944 162.541
   vertex 71.1642 181.504 162.325
   vertex 70.5031 181.133 162.628
  endloop
 endfacet
 facet normal 0.411368 0.388824 0.824374
  outer loop
   vertex 71.5811 181.362 162.184
   vertex 71.1642 181.504 162.325
   vertex 71.2599 180.944 162.541
  endloop
 endfacet
 facet normal 0.107683 -0.674882 0.730027
  outer loop
   vertex 69.5476 177.926 163.343
   vertex 70.5204 177.992 163.261
   vertex 70.1574 178.266 163.568
  endloop
 endfacet
 facet normal 0.463033 -0.315139 0.828425
  outer loop
   vertex 70.5204 177.992 163.261
   vertex 70.5708 178.313 163.355
   vertex 70.1574 178.266 163.568
  endloop
 endfacet
 facet normal -0.281316 -0.207962 0.93681
  outer loop
   vertex 68.9388 178.093 163.197
   vertex 69.5476 177.926 163.343
   vertex 69.2867 178.982 163.499
  endloop
 endfacet
 facet normal 0.0988716 0.125827 0.987113
  outer loop
   vertex 70.1897 178.614 163.456
   vertex 69.7633 179.399 163.398
   vertex 69.2867 178.982 163.499
  endloop
 endfacet
 facet normal 0.163532 0.289625 0.943067
  outer loop
   vertex 70.1897 178.614 163.456
   vertex 69.2867 178.982 163.499
   vertex 70.1574 178.266 163.568
  endloop
 endfacet
 facet normal -0.239204 -0.199548 0.950243
  outer loop
   vertex 70.1574 178.266 163.568
   vertex 69.2867 178.982 163.499
   vertex 69.5476 177.926 163.343
  endloop
 endfacet
 facet normal 0.423608 0.24276 0.872711
  outer loop
   vertex 70.5708 178.313 163.355
   vertex 70.1897 178.614 163.456
   vertex 70.1574 178.266 163.568
  endloop
 endfacet
 facet normal -0.531096 -0.0227085 0.847007
  outer loop
   vertex 69.2867 178.982 163.499
   vertex 69.3264 179.963 163.55
   vertex 68.891 179.985 163.278
  endloop
 endfacet
 facet normal 0.518169 0.175677 0.837042
  outer loop
   vertex 69.7633 179.399 163.398
   vertex 69.5896 180.222 163.333
   vertex 69.3264 179.963 163.55
  endloop
 endfacet
 facet normal 0.257384 -0.0608007 0.964394
  outer loop
   vertex 69.2867 178.982 163.499
   vertex 69.7633 179.399 163.398
   vertex 69.3264 179.963 163.55
  endloop
 endfacet
 facet normal -0.469922 0.407304 0.78312
  outer loop
   vertex 68.891 179.985 163.278
   vertex 69.3264 179.963 163.55
   vertex 69.2003 180.461 163.216
  endloop
 endfacet
 facet normal 0.106281 0.573114 0.812555
  outer loop
   vertex 69.5896 180.222 163.333
   vertex 69.2003 180.461 163.216
   vertex 69.3264 179.963 163.55
  endloop
 endfacet
endsolid
