solid ascii
 facet normal -0.0144452 -0.422338 -0.906323
  outer loop
   vertex 120.044 177.691 157.652
   vertex 119.871 178.047 157.489
   vertex 120.433 178.001 157.501
  endloop
 endfacet
 facet normal -0.441784 -0.0160625 -0.896978
  outer loop
   vertex 121.024 178.715 157.351
   vertex 120.784 179.305 157.459
   vertex 121.137 179.346 157.284
  endloop
 endfacet
 facet normal 0.0610608 0.514493 -0.855318
  outer loop
   vertex 120.433 178.001 157.501
   vertex 119.871 178.047 157.489
   vertex 119.882 178.25 157.612
  endloop
 endfacet
 facet normal 0.453188 -0.173885 -0.874291
  outer loop
   vertex 121.024 178.715 157.351
   vertex 121.137 179.346 157.284
   vertex 121.289 179.11 157.41
  endloop
 endfacet
 facet normal -0.449918 0.0903413 -0.888488
  outer loop
   vertex 121.145 180.182 157.365
   vertex 121.137 179.346 157.284
   vertex 120.784 179.305 157.459
  endloop
 endfacet
 facet normal -0.437824 0.0846662 -0.895065
  outer loop
   vertex 120.771 180.179 157.548
   vertex 121.145 180.182 157.365
   vertex 120.784 179.305 157.459
  endloop
 endfacet
 facet normal 0.375867 -0.235616 -0.89622
  outer loop
   vertex 121.814 180.073 157.377
   vertex 121.289 179.11 157.41
   vertex 121.137 179.346 157.284
  endloop
 endfacet
 facet normal 0.0334447 0.0957576 -0.994843
  outer loop
   vertex 121.814 180.073 157.377
   vertex 121.137 179.346 157.284
   vertex 121.145 180.182 157.365
  endloop
 endfacet
 facet normal 0.042999 0.154845 -0.987003
  outer loop
   vertex 121.145 180.182 157.365
   vertex 121.74 180.987 157.517
   vertex 121.814 180.073 157.377
  endloop
 endfacet
 facet normal 0.683443 -0.0485475 -0.728387
  outer loop
   vertex 122.093 180.867 157.586
   vertex 122.13 180.035 157.676
   vertex 121.814 180.073 157.377
  endloop
 endfacet
 facet normal 0.242763 0.16613 -0.955755
  outer loop
   vertex 121.74 180.987 157.517
   vertex 122.093 180.867 157.586
   vertex 121.814 180.073 157.377
  endloop
 endfacet
 facet normal 0.323675 0.485258 -0.812256
  outer loop
   vertex 122.093 180.867 157.586
   vertex 121.74 180.987 157.517
   vertex 121.955 181.216 157.74
  endloop
 endfacet
 facet normal -0.24173 -0.319023 -0.916401
  outer loop
   vertex 119.817 176.371 158.344
   vertex 119.522 176.011 158.547
   vertex 118.942 176.097 158.67
  endloop
 endfacet
 facet normal -0.183904 -0.451825 -0.872945
  outer loop
   vertex 119.817 176.371 158.344
   vertex 118.942 176.097 158.67
   vertex 119.666 177.069 158.014
  endloop
 endfacet
 facet normal -0.427681 -0.264488 -0.86437
  outer loop
   vertex 119.666 177.069 158.014
   vertex 118.942 176.097 158.67
   vertex 118.718 177.249 158.428
  endloop
 endfacet
 facet normal 0.181391 -0.387313 -0.903928
  outer loop
   vertex 119.817 176.371 158.344
   vertex 119.666 177.069 158.014
   vertex 120.526 176.992 158.22
  endloop
 endfacet
 facet normal -0.614103 -0.0784613 -0.785316
  outer loop
   vertex 118.618 177.977 158.434
   vertex 119.17 177.934 158.006
   vertex 118.718 177.249 158.428
  endloop
 endfacet
 facet normal -0.440943 -0.542382 -0.715116
  outer loop
   vertex 120.044 177.691 157.652
   vertex 119.17 177.934 158.006
   vertex 119.871 178.047 157.489
  endloop
 endfacet
 facet normal -0.42298 -0.250472 -0.870834
  outer loop
   vertex 120.044 177.691 157.652
   vertex 119.666 177.069 158.014
   vertex 119.17 177.934 158.006
  endloop
 endfacet
 facet normal -0.427109 -0.252811 -0.868138
  outer loop
   vertex 119.666 177.069 158.014
   vertex 118.718 177.249 158.428
   vertex 119.17 177.934 158.006
  endloop
 endfacet
 facet normal 0.435812 -0.438507 -0.78599
  outer loop
   vertex 120.433 178.001 157.501
   vertex 121.009 178.339 157.633
   vertex 120.897 177.446 158.069
  endloop
 endfacet
 facet normal 0.195576 -0.616181 -0.762936
  outer loop
   vertex 120.044 177.691 157.652
   vertex 120.433 178.001 157.501
   vertex 120.897 177.446 158.069
  endloop
 endfacet
 facet normal 0.263874 -0.491866 -0.829722
  outer loop
   vertex 120.044 177.691 157.652
   vertex 120.897 177.446 158.069
   vertex 120.526 176.992 158.22
  endloop
 endfacet
 facet normal 0.144332 -0.561876 -0.814533
  outer loop
   vertex 120.044 177.691 157.652
   vertex 120.526 176.992 158.22
   vertex 119.666 177.069 158.014
  endloop
 endfacet
 facet normal 0.611363 -0.196415 -0.766587
  outer loop
   vertex 121.009 178.339 157.633
   vertex 121.981 178.14 158.458
   vertex 121.654 177.693 158.312
  endloop
 endfacet
 facet normal 0.402283 -0.442003 -0.801749
  outer loop
   vertex 120.897 177.446 158.069
   vertex 121.009 178.339 157.633
   vertex 121.654 177.693 158.312
  endloop
 endfacet
 facet normal -0.553025 0.362397 -0.750221
  outer loop
   vertex 119.17 177.934 158.006
   vertex 118.618 177.977 158.434
   vertex 118.902 178.454 158.455
  endloop
 endfacet
 facet normal -0.547793 0.382779 -0.743911
  outer loop
   vertex 119.981 179.021 157.953
   vertex 118.902 178.454 158.455
   vertex 119.528 179.431 158.497
  endloop
 endfacet
 facet normal -0.550514 0.395819 -0.735025
  outer loop
   vertex 119.882 178.25 157.612
   vertex 118.902 178.454 158.455
   vertex 119.981 179.021 157.953
  endloop
 endfacet
 facet normal -0.568435 0.349673 -0.744722
  outer loop
   vertex 119.882 178.25 157.612
   vertex 119.17 177.934 158.006
   vertex 118.902 178.454 158.455
  endloop
 endfacet
 facet normal -0.577453 0.445584 -0.684108
  outer loop
   vertex 119.882 178.25 157.612
   vertex 119.871 178.047 157.489
   vertex 119.17 177.934 158.006
  endloop
 endfacet
 facet normal -0.0128652 0.381594 -0.92424
  outer loop
   vertex 119.882 178.25 157.612
   vertex 121.009 178.339 157.633
   vertex 120.433 178.001 157.501
  endloop
 endfacet
 facet normal -0.0149658 0.4059 -0.913795
  outer loop
   vertex 119.882 178.25 157.612
   vertex 119.981 179.021 157.953
   vertex 121.009 178.339 157.633
  endloop
 endfacet
 facet normal -0.86628 -0.276486 -0.41607
  outer loop
   vertex 121.024 178.715 157.351
   vertex 121.009 178.339 157.633
   vertex 120.784 179.305 157.459
  endloop
 endfacet
 facet normal -0.438615 -0.257129 -0.861105
  outer loop
   vertex 120.784 179.305 157.459
   vertex 121.009 178.339 157.633
   vertex 119.981 179.021 157.953
  endloop
 endfacet
 facet normal 0.741577 -0.420348 -0.522849
  outer loop
   vertex 121.289 179.11 157.41
   vertex 121.009 178.339 157.633
   vertex 121.024 178.715 157.351
  endloop
 endfacet
 facet normal 0.599099 -0.415224 -0.684594
  outer loop
   vertex 121.289 179.11 157.41
   vertex 121.889 179.158 157.906
   vertex 121.009 178.339 157.633
  endloop
 endfacet
 facet normal 0.562255 -0.354836 -0.746968
  outer loop
   vertex 121.889 179.158 157.906
   vertex 121.981 178.14 158.458
   vertex 121.009 178.339 157.633
  endloop
 endfacet
 facet normal 0.837441 -0.200461 -0.508437
  outer loop
   vertex 121.889 179.158 157.906
   vertex 122.206 179.186 158.417
   vertex 121.981 178.14 158.458
  endloop
 endfacet
 facet normal -0.705828 0.141893 -0.694027
  outer loop
   vertex 120.116 180.1 158.035
   vertex 119.981 179.021 157.953
   vertex 119.528 179.431 158.497
  endloop
 endfacet
 facet normal -0.698762 0.129072 -0.703613
  outer loop
   vertex 119.73 180.323 158.459
   vertex 120.116 180.1 158.035
   vertex 119.528 179.431 158.497
  endloop
 endfacet
 facet normal -0.60115 0.072075 -0.795879
  outer loop
   vertex 120.784 179.305 157.459
   vertex 120.116 180.1 158.035
   vertex 120.771 180.179 157.548
  endloop
 endfacet
 facet normal -0.552507 0.132547 -0.822902
  outer loop
   vertex 119.981 179.021 157.953
   vertex 120.116 180.1 158.035
   vertex 120.784 179.305 157.459
  endloop
 endfacet
 facet normal 0.611833 -0.357613 -0.705531
  outer loop
   vertex 121.289 179.11 157.41
   vertex 121.814 180.073 157.377
   vertex 121.889 179.158 157.906
  endloop
 endfacet
 facet normal 0.619993 -0.353901 -0.700259
  outer loop
   vertex 121.889 179.158 157.906
   vertex 121.814 180.073 157.377
   vertex 122.13 180.035 157.676
  endloop
 endfacet
 facet normal 0.805353 -0.347234 -0.480454
  outer loop
   vertex 121.889 179.158 157.906
   vertex 122.13 180.035 157.676
   vertex 122.206 179.186 158.417
  endloop
 endfacet
 facet normal 0.987756 -0.042392 -0.150133
  outer loop
   vertex 122.206 179.186 158.417
   vertex 122.13 180.035 157.676
   vertex 122.24 180.185 158.36
  endloop
 endfacet
 facet normal -0.704098 0.114502 -0.700811
  outer loop
   vertex 120.03 180.957 158.262
   vertex 120.116 180.1 158.035
   vertex 119.73 180.323 158.459
  endloop
 endfacet
 facet normal -0.83138 0.23643 -0.5029
  outer loop
   vertex 119.802 181.036 158.676
   vertex 120.03 180.957 158.262
   vertex 119.73 180.323 158.459
  endloop
 endfacet
 facet normal -0.387302 0.48437 -0.784463
  outer loop
   vertex 120.771 180.179 157.548
   vertex 120.827 180.945 157.993
   vertex 121.145 180.182 157.365
  endloop
 endfacet
 facet normal -0.56893 0.443916 -0.692284
  outer loop
   vertex 120.771 180.179 157.548
   vertex 120.116 180.1 158.035
   vertex 120.827 180.945 157.993
  endloop
 endfacet
 facet normal -0.309234 0.213756 -0.926651
  outer loop
   vertex 120.116 180.1 158.035
   vertex 120.03 180.957 158.262
   vertex 120.827 180.945 157.993
  endloop
 endfacet
 facet normal -0.426409 0.462271 -0.777483
  outer loop
   vertex 121.145 180.182 157.365
   vertex 120.827 180.945 157.993
   vertex 121.74 180.987 157.517
  endloop
 endfacet
 facet normal 0.985992 0.025685 -0.164803
  outer loop
   vertex 122.13 180.035 157.676
   vertex 122.093 180.867 157.586
   vertex 122.24 180.185 158.36
  endloop
 endfacet
 facet normal 0.98995 0.0871092 -0.111408
  outer loop
   vertex 122.24 180.185 158.36
   vertex 122.093 180.867 157.586
   vertex 122.167 181.014 158.361
  endloop
 endfacet
 facet normal -0.55139 0.709126 -0.439442
  outer loop
   vertex 120.03 180.957 158.262
   vertex 119.802 181.036 158.676
   vertex 120.238 181.284 158.529
  endloop
 endfacet
 facet normal -0.219636 0.69712 -0.682484
  outer loop
   vertex 120.827 180.945 157.993
   vertex 120.03 180.957 158.262
   vertex 120.238 181.284 158.529
  endloop
 endfacet
 facet normal -0.134439 0.763979 -0.63108
  outer loop
   vertex 121.234 181.314 158.353
   vertex 120.827 180.945 157.993
   vertex 120.238 181.284 158.529
  endloop
 endfacet
 facet normal -0.297334 0.814381 -0.498374
  outer loop
   vertex 121.74 180.987 157.517
   vertex 120.827 180.945 157.993
   vertex 121.234 181.314 158.353
  endloop
 endfacet
 facet normal -0.325286 0.797199 -0.508588
  outer loop
   vertex 121.74 180.987 157.517
   vertex 121.234 181.314 158.353
   vertex 121.955 181.216 157.74
  endloop
 endfacet
 facet normal 0.0588535 0.994327 -0.0885988
  outer loop
   vertex 121.955 181.216 157.74
   vertex 121.234 181.314 158.353
   vertex 121.965 181.281 158.467
  endloop
 endfacet
 facet normal 0.889834 0.424999 -0.166045
  outer loop
   vertex 122.167 181.014 158.361
   vertex 122.093 180.867 157.586
   vertex 121.955 181.216 157.74
  endloop
 endfacet
 facet normal 0.781511 0.620455 -0.0653898
  outer loop
   vertex 121.965 181.281 158.467
   vertex 122.167 181.014 158.361
   vertex 121.955 181.216 157.74
  endloop
 endfacet
 facet normal -0.391877 -0.638786 -0.662107
  outer loop
   vertex 118.757 175.215 159.63
   vertex 117.962 175.861 159.478
   vertex 118.942 176.097 158.67
  endloop
 endfacet
 facet normal 0.273913 -0.730937 -0.625063
  outer loop
   vertex 119.522 176.011 158.547
   vertex 120.214 176.195 158.634
   vertex 119.793 175.566 159.186
  endloop
 endfacet
 facet normal -0.229521 -0.841822 -0.488524
  outer loop
   vertex 118.942 176.097 158.67
   vertex 119.522 176.011 158.547
   vertex 119.793 175.566 159.186
  endloop
 endfacet
 facet normal 0.0232144 -0.677343 -0.735301
  outer loop
   vertex 118.942 176.097 158.67
   vertex 119.793 175.566 159.186
   vertex 119.258 175.232 159.477
  endloop
 endfacet
 facet normal -0.186149 -0.705559 -0.683765
  outer loop
   vertex 118.942 176.097 158.67
   vertex 119.258 175.232 159.477
   vertex 118.757 175.215 159.63
  endloop
 endfacet
 facet normal 0.320655 -0.857048 -0.403299
  outer loop
   vertex 120.214 176.195 158.634
   vertex 121.131 176.355 159.024
   vertex 120.793 176.036 159.433
  endloop
 endfacet
 facet normal 0.467489 -0.738383 -0.486051
  outer loop
   vertex 119.793 175.566 159.186
   vertex 120.214 176.195 158.634
   vertex 120.793 176.036 159.433
  endloop
 endfacet
 facet normal 0.354629 -0.856587 -0.374829
  outer loop
   vertex 120.793 176.036 159.433
   vertex 121.131 176.355 159.024
   vertex 121.378 176.326 159.325
  endloop
 endfacet
 facet normal -0.625133 -0.245824 -0.740796
  outer loop
   vertex 117.957 176.854 159.153
   vertex 117.962 175.861 159.478
   vertex 117.667 176.172 159.623
  endloop
 endfacet
 facet normal -0.837004 -0.0219331 -0.546757
  outer loop
   vertex 117.662 177.042 159.596
   vertex 117.957 176.854 159.153
   vertex 117.667 176.172 159.623
  endloop
 endfacet
 facet normal -0.584681 -0.273959 -0.763606
  outer loop
   vertex 118.942 176.097 158.67
   vertex 117.957 176.854 159.153
   vertex 118.718 177.249 158.428
  endloop
 endfacet
 facet normal -0.577203 -0.256854 -0.775153
  outer loop
   vertex 117.962 175.861 159.478
   vertex 117.957 176.854 159.153
   vertex 118.942 176.097 158.67
  endloop
 endfacet
 facet normal 0.259895 -0.626917 -0.734458
  outer loop
   vertex 119.522 176.011 158.547
   vertex 119.817 176.371 158.344
   vertex 120.214 176.195 158.634
  endloop
 endfacet
 facet normal 0.33219 -0.534457 -0.777178
  outer loop
   vertex 120.526 176.992 158.22
   vertex 120.214 176.195 158.634
   vertex 119.817 176.371 158.344
  endloop
 endfacet
 facet normal 0.362714 -0.537973 -0.760936
  outer loop
   vertex 120.526 176.992 158.22
   vertex 121.059 176.99 158.475
   vertex 120.214 176.195 158.634
  endloop
 endfacet
 facet normal 0.403338 -0.571844 -0.714362
  outer loop
   vertex 121.059 176.99 158.475
   vertex 121.131 176.355 159.024
   vertex 120.214 176.195 158.634
  endloop
 endfacet
 facet normal 0.570596 -0.626747 -0.530667
  outer loop
   vertex 121.827 176.782 159.268
   vertex 121.378 176.326 159.325
   vertex 121.131 176.355 159.024
  endloop
 endfacet
 facet normal 0.563327 -0.584401 -0.584071
  outer loop
   vertex 121.827 176.782 159.268
   vertex 121.131 176.355 159.024
   vertex 121.827 177.156 158.894
  endloop
 endfacet
 facet normal 0.490273 -0.537514 -0.686084
  outer loop
   vertex 121.827 177.156 158.894
   vertex 121.131 176.355 159.024
   vertex 121.059 176.99 158.475
  endloop
 endfacet
 facet normal 0.877686 -0.339174 -0.338568
  outer loop
   vertex 121.827 176.782 159.268
   vertex 121.827 177.156 158.894
   vertex 122.046 177.385 159.231
  endloop
 endfacet
 facet normal -0.830922 0.0101338 -0.556296
  outer loop
   vertex 118.006 177.86 159.098
   vertex 117.957 176.854 159.153
   vertex 117.662 177.042 159.596
  endloop
 endfacet
 facet normal -0.894945 0.112873 -0.431663
  outer loop
   vertex 117.718 177.901 159.705
   vertex 118.006 177.86 159.098
   vertex 117.662 177.042 159.596
  endloop
 endfacet
 facet normal -0.723741 -0.0942392 -0.683606
  outer loop
   vertex 118.718 177.249 158.428
   vertex 118.006 177.86 159.098
   vertex 118.618 177.977 158.434
  endloop
 endfacet
 facet normal -0.687759 -0.00595808 -0.725915
  outer loop
   vertex 117.957 176.854 159.153
   vertex 118.006 177.86 159.098
   vertex 118.718 177.249 158.428
  endloop
 endfacet
 facet normal 0.360406 -0.546194 -0.756162
  outer loop
   vertex 120.526 176.992 158.22
   vertex 120.897 177.446 158.069
   vertex 121.059 176.99 158.475
  endloop
 endfacet
 facet normal 0.410826 -0.521157 -0.748076
  outer loop
   vertex 121.654 177.693 158.312
   vertex 121.059 176.99 158.475
   vertex 120.897 177.446 158.069
  endloop
 endfacet
 facet normal 0.485684 -0.565566 -0.666518
  outer loop
   vertex 121.827 177.156 158.894
   vertex 121.059 176.99 158.475
   vertex 121.654 177.693 158.312
  endloop
 endfacet
 facet normal 0.746195 -0.36336 -0.557819
  outer loop
   vertex 121.827 177.156 158.894
   vertex 121.654 177.693 158.312
   vertex 121.981 178.14 158.458
  endloop
 endfacet
 facet normal 0.880519 -0.299832 -0.367134
  outer loop
   vertex 121.827 177.156 158.894
   vertex 121.981 178.14 158.458
   vertex 122.046 177.385 159.231
  endloop
 endfacet
 facet normal 0.967829 -0.134341 -0.212745
  outer loop
   vertex 122.046 177.385 159.231
   vertex 121.981 178.14 158.458
   vertex 122.172 178.365 159.187
  endloop
 endfacet
 facet normal -0.842915 0.334065 -0.421776
  outer loop
   vertex 118.006 177.86 159.098
   vertex 117.718 177.901 159.705
   vertex 118.066 178.4 159.404
  endloop
 endfacet
 facet normal -0.73644 0.590078 -0.330854
  outer loop
   vertex 118.845 179.306 159.289
   vertex 118.066 178.4 159.404
   vertex 118.522 179.185 159.789
  endloop
 endfacet
 facet normal -0.664274 0.499356 -0.556222
  outer loop
   vertex 118.902 178.454 158.455
   vertex 118.066 178.4 159.404
   vertex 118.845 179.306 159.289
  endloop
 endfacet
 facet normal -0.695488 0.41206 -0.588645
  outer loop
   vertex 118.902 178.454 158.455
   vertex 118.006 177.86 159.098
   vertex 118.066 178.4 159.404
  endloop
 endfacet
 facet normal -0.697464 0.439807 -0.565786
  outer loop
   vertex 118.902 178.454 158.455
   vertex 118.618 177.977 158.434
   vertex 118.006 177.86 159.098
  endloop
 endfacet
 facet normal -0.702471 0.472955 -0.531834
  outer loop
   vertex 118.902 178.454 158.455
   vertex 118.845 179.306 159.289
   vertex 119.528 179.431 158.497
  endloop
 endfacet
 facet normal 0.958994 -0.213982 -0.185855
  outer loop
   vertex 121.981 178.14 158.458
   vertex 122.206 179.186 158.417
   vertex 122.172 178.365 159.187
  endloop
 endfacet
 facet normal 0.995887 -0.080407 -0.0417613
  outer loop
   vertex 122.172 178.365 159.187
   vertex 122.206 179.186 158.417
   vertex 122.254 179.388 159.182
  endloop
 endfacet
 facet normal -0.702551 0.472717 -0.531941
  outer loop
   vertex 118.845 179.306 159.289
   vertex 119.445 180.312 159.39
   vertex 119.528 179.431 158.497
  endloop
 endfacet
 facet normal -0.937141 0.200626 -0.285511
  outer loop
   vertex 119.445 180.312 159.39
   vertex 119.73 180.323 158.459
   vertex 119.528 179.431 158.497
  endloop
 endfacet
 facet normal 0.997885 -0.0371598 -0.0533344
  outer loop
   vertex 122.206 179.186 158.417
   vertex 122.24 180.185 158.36
   vertex 122.254 179.388 159.182
  endloop
 endfacet
 facet normal 0.999828 0.0185141 0.000520701
  outer loop
   vertex 122.254 179.388 159.182
   vertex 122.24 180.185 158.36
   vertex 122.236 180.377 159.165
  endloop
 endfacet
 facet normal -0.940583 0.181805 -0.286795
  outer loop
   vertex 119.73 180.323 158.459
   vertex 119.445 180.312 159.39
   vertex 119.802 181.036 158.676
  endloop
 endfacet
 facet normal -0.930889 0.346985 -0.114224
  outer loop
   vertex 119.445 180.312 159.39
   vertex 119.726 181.103 159.499
   vertex 119.802 181.036 158.676
  endloop
 endfacet
 facet normal 0.996042 0.0874454 -0.0159259
  outer loop
   vertex 122.24 180.185 158.36
   vertex 122.167 181.014 158.361
   vertex 122.236 180.377 159.165
  endloop
 endfacet
 facet normal 0.991425 0.129458 0.0177782
  outer loop
   vertex 122.236 180.377 159.165
   vertex 122.167 181.014 158.361
   vertex 122.142 181.106 159.109
  endloop
 endfacet
 facet normal -0.627744 0.76906 -0.120352
  outer loop
   vertex 119.802 181.036 158.676
   vertex 119.726 181.103 159.499
   vertex 120.012 181.301 159.276
  endloop
 endfacet
 facet normal -0.531175 0.827882 -0.180178
  outer loop
   vertex 120.238 181.284 158.529
   vertex 119.802 181.036 158.676
   vertex 120.012 181.301 159.276
  endloop
 endfacet
 facet normal -0.0365848 0.998697 -0.0355741
  outer loop
   vertex 121.234 181.314 158.353
   vertex 120.238 181.284 158.529
   vertex 120.743 181.332 159.377
  endloop
 endfacet
 facet normal -0.0372128 0.998687 -0.0351995
  outer loop
   vertex 120.238 181.284 158.529
   vertex 120.012 181.301 159.276
   vertex 120.743 181.332 159.377
  endloop
 endfacet
 facet normal 0.0457248 0.998948 -0.00335432
  outer loop
   vertex 121.965 181.281 158.467
   vertex 121.234 181.314 158.353
   vertex 121.737 181.294 159.193
  endloop
 endfacet
 facet normal 0.0390283 0.999238 0.000667438
  outer loop
   vertex 121.234 181.314 158.353
   vertex 120.743 181.332 159.377
   vertex 121.737 181.294 159.193
  endloop
 endfacet
 facet normal 0.785445 0.616978 -0.0491403
  outer loop
   vertex 122.142 181.106 159.109
   vertex 122.167 181.014 158.361
   vertex 121.965 181.281 158.467
  endloop
 endfacet
 facet normal 0.437853 0.890813 0.121394
  outer loop
   vertex 121.737 181.294 159.193
   vertex 122.142 181.106 159.109
   vertex 121.965 181.281 158.467
  endloop
 endfacet
 facet normal -0.110941 -0.963233 -0.244691
  outer loop
   vertex 118.028 175.082 160.485
   vertex 118.757 175.215 159.63
   vertex 118.914 174.972 160.518
  endloop
 endfacet
 facet normal 0.314307 -0.888116 -0.335352
  outer loop
   vertex 119.258 175.232 159.477
   vertex 119.926 175.28 159.976
   vertex 119.582 175.041 160.286
  endloop
 endfacet
 facet normal -0.0334327 -0.975645 -0.216793
  outer loop
   vertex 119.258 175.232 159.477
   vertex 119.582 175.041 160.286
   vertex 118.757 175.215 159.63
  endloop
 endfacet
 facet normal 0.00811471 -0.963948 -0.265965
  outer loop
   vertex 118.757 175.215 159.63
   vertex 119.582 175.041 160.286
   vertex 118.914 174.972 160.518
  endloop
 endfacet
 facet normal 0.479199 -0.867166 -0.135611
  outer loop
   vertex 119.582 175.041 160.286
   vertex 119.926 175.28 159.976
   vertex 119.905 175.175 160.572
  endloop
 endfacet
 facet normal -0.392922 -0.739535 -0.546535
  outer loop
   vertex 117.962 175.861 159.478
   vertex 118.028 175.082 160.485
   vertex 117.677 175.416 160.285
  endloop
 endfacet
 facet normal -0.731301 -0.454484 -0.50857
  outer loop
   vertex 117.962 175.861 159.478
   vertex 117.677 175.416 160.285
   vertex 117.667 176.172 159.623
  endloop
 endfacet
 facet normal -0.991542 -0.0925706 -0.0909702
  outer loop
   vertex 117.667 176.172 159.623
   vertex 117.677 175.416 160.285
   vertex 117.603 176.091 160.405
  endloop
 endfacet
 facet normal -0.477135 -0.709878 -0.518089
  outer loop
   vertex 118.757 175.215 159.63
   vertex 118.028 175.082 160.485
   vertex 117.962 175.861 159.478
  endloop
 endfacet
 facet normal 0.338414 -0.865306 -0.369759
  outer loop
   vertex 119.258 175.232 159.477
   vertex 119.793 175.566 159.186
   vertex 119.926 175.28 159.976
  endloop
 endfacet
 facet normal 0.468812 -0.802547 -0.368962
  outer loop
   vertex 119.926 175.28 159.976
   vertex 119.793 175.566 159.186
   vertex 120.793 176.036 159.433
  endloop
 endfacet
 facet normal 0.731734 -0.541001 0.414588
  outer loop
   vertex 119.926 175.28 159.976
   vertex 120.793 176.036 159.433
   vertex 120.224 176.01 160.402
  endloop
 endfacet
 facet normal 0.931309 -0.362935 -0.030696
  outer loop
   vertex 119.926 175.28 159.976
   vertex 120.224 176.01 160.402
   vertex 119.905 175.175 160.572
  endloop
 endfacet
 facet normal -0.996541 -0.00842086 -0.0826793
  outer loop
   vertex 117.667 176.172 159.623
   vertex 117.603 176.091 160.405
   vertex 117.662 177.042 159.596
  endloop
 endfacet
 facet normal -0.998877 0.0340092 -0.0329857
  outer loop
   vertex 117.603 176.091 160.405
   vertex 117.632 177.034 160.497
   vertex 117.662 177.042 159.596
  endloop
 endfacet
 facet normal 0.823782 -0.309658 0.474863
  outer loop
   vertex 121.031 177.145 159.743
   vertex 120.224 176.01 160.402
   vertex 120.793 176.036 159.433
  endloop
 endfacet
 facet normal 0.731823 -0.131903 0.668608
  outer loop
   vertex 120.376 177.227 160.476
   vertex 120.224 176.01 160.402
   vertex 121.031 177.145 159.743
  endloop
 endfacet
 facet normal 0.506377 -0.403852 0.761896
  outer loop
   vertex 121.378 176.326 159.325
   vertex 121.827 176.782 159.268
   vertex 121.742 176.968 159.423
  endloop
 endfacet
 facet normal 0.323081 -0.319705 0.890734
  outer loop
   vertex 121.378 176.326 159.325
   vertex 121.742 176.968 159.423
   vertex 120.793 176.036 159.433
  endloop
 endfacet
 facet normal 0.321798 -0.318388 0.89167
  outer loop
   vertex 120.793 176.036 159.433
   vertex 121.742 176.968 159.423
   vertex 121.031 177.145 159.743
  endloop
 endfacet
 facet normal 0.719916 -0.2199 0.658304
  outer loop
   vertex 121.827 176.782 159.268
   vertex 122.046 177.385 159.231
   vertex 121.742 176.968 159.423
  endloop
 endfacet
 facet normal -0.997097 0.0687982 -0.0326264
  outer loop
   vertex 117.662 177.042 159.596
   vertex 117.632 177.034 160.497
   vertex 117.718 177.901 159.705
  endloop
 endfacet
 facet normal -0.995776 0.0914987 -0.0076342
  outer loop
   vertex 117.632 177.034 160.497
   vertex 117.709 177.865 160.466
   vertex 117.718 177.901 159.705
  endloop
 endfacet
 facet normal 0.73828 -0.084748 0.669149
  outer loop
   vertex 121.148 178.784 159.822
   vertex 120.376 177.227 160.476
   vertex 121.031 177.145 159.743
  endloop
 endfacet
 facet normal 0.677719 -0.0271872 0.734818
  outer loop
   vertex 120.335 178.503 160.561
   vertex 120.376 177.227 160.476
   vertex 121.148 178.784 159.822
  endloop
 endfacet
 facet normal 0.38078 -0.126141 0.916021
  outer loop
   vertex 121.742 176.968 159.423
   vertex 121.861 178.011 159.517
   vertex 121.031 177.145 159.743
  endloop
 endfacet
 facet normal 0.327909 -0.0686309 0.942213
  outer loop
   vertex 121.861 178.011 159.517
   vertex 121.148 178.784 159.822
   vertex 121.031 177.145 159.743
  endloop
 endfacet
 facet normal 0.762558 -0.0696163 0.643164
  outer loop
   vertex 122.046 177.385 159.231
   vertex 122.172 178.365 159.187
   vertex 121.861 178.011 159.517
  endloop
 endfacet
 facet normal 0.661846 -0.141865 0.736094
  outer loop
   vertex 121.742 176.968 159.423
   vertex 122.046 177.385 159.231
   vertex 121.861 178.011 159.517
  endloop
 endfacet
 facet normal -0.856448 0.516048 0.0138496
  outer loop
   vertex 117.718 177.901 159.705
   vertex 117.709 177.865 160.466
   vertex 117.984 178.323 160.397
  endloop
 endfacet
 facet normal -0.826807 0.561906 -0.0255435
  outer loop
   vertex 118.066 178.4 159.404
   vertex 117.718 177.901 159.705
   vertex 117.984 178.323 160.397
  endloop
 endfacet
 facet normal -0.857353 0.513744 -0.0318107
  outer loop
   vertex 117.984 178.323 160.397
   vertex 118.522 179.185 159.789
   vertex 118.066 178.4 159.404
  endloop
 endfacet
 facet normal -0.793316 0.593124 0.137311
  outer loop
   vertex 118.608 179.13 160.519
   vertex 118.522 179.185 159.789
   vertex 117.984 178.323 160.397
  endloop
 endfacet
 facet normal 0.32835 -0.0681765 0.942093
  outer loop
   vertex 121.861 178.011 159.517
   vertex 121.98 179.011 159.548
   vertex 121.148 178.784 159.822
  endloop
 endfacet
 facet normal 0.82894 -0.064393 0.555618
  outer loop
   vertex 122.172 178.365 159.187
   vertex 122.254 179.388 159.182
   vertex 121.98 179.011 159.548
  endloop
 endfacet
 facet normal 0.780625 -0.111921 0.614897
  outer loop
   vertex 121.861 178.011 159.517
   vertex 122.172 178.365 159.187
   vertex 121.98 179.011 159.548
  endloop
 endfacet
 facet normal -0.790199 0.468585 -0.394986
  outer loop
   vertex 118.877 179.999 160.045
   vertex 118.845 179.306 159.289
   vertex 118.522 179.185 159.789
  endloop
 endfacet
 facet normal -0.895948 0.427866 -0.119192
  outer loop
   vertex 118.877 179.999 160.045
   vertex 118.522 179.185 159.789
   vertex 118.784 179.913 160.44
  endloop
 endfacet
 facet normal -0.964537 0.22942 0.130516
  outer loop
   vertex 118.784 179.913 160.44
   vertex 118.522 179.185 159.789
   vertex 118.608 179.13 160.519
  endloop
 endfacet
 facet normal -0.759611 0.495642 -0.421107
  outer loop
   vertex 118.845 179.306 159.289
   vertex 118.877 179.999 160.045
   vertex 119.445 180.312 159.39
  endloop
 endfacet
 facet normal 0.665179 0.0377345 0.74573
  outer loop
   vertex 121.058 180.033 159.839
   vertex 120.335 178.503 160.561
   vertex 121.148 178.784 159.822
  endloop
 endfacet
 facet normal 0.630889 0.066781 0.772994
  outer loop
   vertex 120.287 180.098 160.462
   vertex 120.335 178.503 160.561
   vertex 121.058 180.033 159.839
  endloop
 endfacet
 facet normal 0.312015 0.00139516 0.950076
  outer loop
   vertex 121.98 179.011 159.548
   vertex 121.903 179.945 159.572
   vertex 121.148 178.784 159.822
  endloop
 endfacet
 facet normal 0.301889 0.00867476 0.953304
  outer loop
   vertex 121.903 179.945 159.572
   vertex 121.058 180.033 159.839
   vertex 121.148 178.784 159.822
  endloop
 endfacet
 facet normal 0.759809 0.0253946 0.649651
  outer loop
   vertex 122.254 179.388 159.182
   vertex 122.236 180.377 159.165
   vertex 121.903 179.945 159.572
  endloop
 endfacet
 facet normal 0.774496 0.0479186 0.630762
  outer loop
   vertex 121.98 179.011 159.548
   vertex 122.254 179.388 159.182
   vertex 121.903 179.945 159.572
  endloop
 endfacet
 facet normal -0.874889 0.472956 -0.104314
  outer loop
   vertex 118.877 179.999 160.045
   vertex 118.784 179.913 160.44
   vertex 119.082 180.477 160.496
  endloop
 endfacet
 facet normal -0.716991 0.615547 -0.327148
  outer loop
   vertex 119.082 180.477 160.496
   vertex 119.445 180.312 159.39
   vertex 118.877 179.999 160.045
  endloop
 endfacet
 facet normal -0.792973 0.508196 -0.336052
  outer loop
   vertex 119.082 180.477 160.496
   vertex 119.467 180.975 160.339
   vertex 119.445 180.312 159.39
  endloop
 endfacet
 facet normal -0.907573 0.354103 -0.225658
  outer loop
   vertex 119.467 180.975 160.339
   vertex 119.726 181.103 159.499
   vertex 119.445 180.312 159.39
  endloop
 endfacet
 facet normal 0.629934 0.136794 0.764507
  outer loop
   vertex 121 180.996 159.714
   vertex 120.287 180.098 160.462
   vertex 121.058 180.033 159.839
  endloop
 endfacet
 facet normal 0.607221 0.165342 0.777139
  outer loop
   vertex 120.171 181.013 160.358
   vertex 120.287 180.098 160.462
   vertex 121 180.996 159.714
  endloop
 endfacet
 facet normal 0.308739 0.095266 0.946364
  outer loop
   vertex 121.903 179.945 159.572
   vertex 121.865 180.889 159.489
   vertex 121.058 180.033 159.839
  endloop
 endfacet
 facet normal 0.265065 0.139617 0.954069
  outer loop
   vertex 121.865 180.889 159.489
   vertex 121 180.996 159.714
   vertex 121.058 180.033 159.839
  endloop
 endfacet
 facet normal 0.758146 0.146767 0.635354
  outer loop
   vertex 122.236 180.377 159.165
   vertex 122.142 181.106 159.109
   vertex 121.865 180.889 159.489
  endloop
 endfacet
 facet normal 0.722161 0.0886753 0.686017
  outer loop
   vertex 121.903 179.945 159.572
   vertex 122.236 180.377 159.165
   vertex 121.865 180.889 159.489
  endloop
 endfacet
 facet normal -0.475828 0.879442 -0.0130275
  outer loop
   vertex 119.726 181.103 159.499
   vertex 119.467 180.975 160.339
   vertex 119.949 181.233 160.136
  endloop
 endfacet
 facet normal -0.556718 0.830318 0.0252452
  outer loop
   vertex 120.012 181.301 159.276
   vertex 119.726 181.103 159.499
   vertex 119.949 181.233 160.136
  endloop
 endfacet
 facet normal 0.390937 0.783358 0.483237
  outer loop
   vertex 120.171 181.013 160.358
   vertex 121 180.996 159.714
   vertex 120.743 181.332 159.377
  endloop
 endfacet
 facet normal 0.343025 0.815676 0.465839
  outer loop
   vertex 120.171 181.013 160.358
   vertex 120.743 181.332 159.377
   vertex 119.949 181.233 160.136
  endloop
 endfacet
 facet normal -0.0524755 0.995754 0.0756336
  outer loop
   vertex 119.949 181.233 160.136
   vertex 120.743 181.332 159.377
   vertex 120.012 181.301 159.276
  endloop
 endfacet
 facet normal 0.148171 0.754317 0.639571
  outer loop
   vertex 121.737 181.294 159.193
   vertex 120.743 181.332 159.377
   vertex 121 180.996 159.714
  endloop
 endfacet
 facet normal 0.268048 0.623436 0.734492
  outer loop
   vertex 121.865 180.889 159.489
   vertex 121.737 181.294 159.193
   vertex 121 180.996 159.714
  endloop
 endfacet
 facet normal 0.423271 0.619049 0.661529
  outer loop
   vertex 122.142 181.106 159.109
   vertex 121.737 181.294 159.193
   vertex 121.865 180.889 159.489
  endloop
 endfacet
 facet normal -0.585571 -0.809414 -0.04422
  outer loop
   vertex 118.028 175.082 160.485
   vertex 118.024 175.04 161.305
   vertex 117.714 175.275 161.104
  endloop
 endfacet
 facet normal -0.655996 -0.748244 -0.0989953
  outer loop
   vertex 117.677 175.416 160.285
   vertex 118.028 175.082 160.485
   vertex 117.714 175.275 161.104
  endloop
 endfacet
 facet normal -0.123462 -0.992326 -0.00680884
  outer loop
   vertex 118.914 174.972 160.518
   vertex 118.814 174.979 161.231
   vertex 118.028 175.082 160.485
  endloop
 endfacet
 facet normal -0.0814986 -0.995344 -0.0514632
  outer loop
   vertex 118.028 175.082 160.485
   vertex 118.814 174.979 161.231
   vertex 118.024 175.04 161.305
  endloop
 endfacet
 facet normal 0.0882894 -0.995077 -0.045019
  outer loop
   vertex 119.582 175.041 160.286
   vertex 119.64 175.009 161.111
   vertex 118.914 174.972 160.518
  endloop
 endfacet
 facet normal 0.0385541 -0.999128 0.0160497
  outer loop
   vertex 118.914 174.972 160.518
   vertex 119.64 175.009 161.111
   vertex 118.814 174.979 161.231
  endloop
 endfacet
 facet normal 0.430569 -0.90018 -0.0654682
  outer loop
   vertex 119.64 175.009 161.111
   vertex 119.582 175.041 160.286
   vertex 119.905 175.175 160.572
  endloop
 endfacet
 facet normal 0.736032 -0.657966 0.159178
  outer loop
   vertex 119.917 175.348 161.229
   vertex 119.64 175.009 161.111
   vertex 119.905 175.175 160.572
  endloop
 endfacet
 facet normal -0.99325 -0.113326 0.0247339
  outer loop
   vertex 117.677 175.416 160.285
   vertex 117.714 175.275 161.104
   vertex 117.603 176.091 160.405
  endloop
 endfacet
 facet normal -0.992947 -0.0384333 0.112161
  outer loop
   vertex 117.714 175.275 161.104
   vertex 117.697 176.056 161.222
   vertex 117.603 176.091 160.405
  endloop
 endfacet
 facet normal 0.936247 -0.343735 0.0727162
  outer loop
   vertex 119.905 175.175 160.572
   vertex 120.224 176.01 160.402
   vertex 119.917 175.348 161.229
  endloop
 endfacet
 facet normal 0.957942 -0.118179 0.261499
  outer loop
   vertex 119.917 175.348 161.229
   vertex 120.224 176.01 160.402
   vertex 120.027 176.281 161.248
  endloop
 endfacet
 facet normal -0.976252 0.110938 0.186077
  outer loop
   vertex 117.746 176.704 161.289
   vertex 117.781 177.323 161.105
   vertex 117.632 177.034 160.497
  endloop
 endfacet
 facet normal -0.984645 0.0573123 0.164894
  outer loop
   vertex 117.746 176.704 161.289
   vertex 117.632 177.034 160.497
   vertex 117.697 176.056 161.222
  endloop
 endfacet
 facet normal -0.993213 0.0194932 0.114664
  outer loop
   vertex 117.697 176.056 161.222
   vertex 117.632 177.034 160.497
   vertex 117.603 176.091 160.405
  endloop
 endfacet
 facet normal -0.730533 0.232204 0.642186
  outer loop
   vertex 117.746 176.704 161.289
   vertex 118.005 177.062 161.454
   vertex 117.781 177.323 161.105
  endloop
 endfacet
 facet normal 0.954358 -0.135437 0.26619
  outer loop
   vertex 120.224 176.01 160.402
   vertex 120.376 177.227 160.476
   vertex 120.027 176.281 161.248
  endloop
 endfacet
 facet normal 0.929264 -0.0440727 0.366777
  outer loop
   vertex 120.027 176.281 161.248
   vertex 120.376 177.227 160.476
   vertex 120.069 177.338 161.268
  endloop
 endfacet
 facet normal -0.957819 0.156577 0.240969
  outer loop
   vertex 117.781 177.323 161.105
   vertex 117.818 177.962 160.839
   vertex 117.709 177.865 160.466
  endloop
 endfacet
 facet normal -0.97644 0.0971649 0.192675
  outer loop
   vertex 117.632 177.034 160.497
   vertex 117.781 177.323 161.105
   vertex 117.709 177.865 160.466
  endloop
 endfacet
 facet normal -0.690463 0.292454 0.661613
  outer loop
   vertex 118.244 177.929 161.321
   vertex 117.781 177.323 161.105
   vertex 118.005 177.062 161.454
  endloop
 endfacet
 facet normal -0.702161 0.308497 0.641716
  outer loop
   vertex 117.818 177.962 160.839
   vertex 117.781 177.323 161.105
   vertex 118.244 177.929 161.321
  endloop
 endfacet
 facet normal 0.932538 0.00595588 0.361022
  outer loop
   vertex 120.376 177.227 160.476
   vertex 120.335 178.503 160.561
   vertex 120.069 177.338 161.268
  endloop
 endfacet
 facet normal 0.926937 0.0156591 0.37489
  outer loop
   vertex 120.069 177.338 161.268
   vertex 120.335 178.503 160.561
   vertex 120.027 178.294 161.332
  endloop
 endfacet
 facet normal -0.844483 0.523683 0.112266
  outer loop
   vertex 117.709 177.865 160.466
   vertex 117.818 177.962 160.839
   vertex 117.984 178.323 160.397
  endloop
 endfacet
 facet normal -0.885044 0.353338 0.303066
  outer loop
   vertex 118.608 179.13 160.519
   vertex 118.684 178.72 161.219
   vertex 118.899 179.402 161.053
  endloop
 endfacet
 facet normal -0.755812 0.525794 0.390242
  outer loop
   vertex 117.984 178.323 160.397
   vertex 118.684 178.72 161.219
   vertex 118.608 179.13 160.519
  endloop
 endfacet
 facet normal -0.768151 0.481314 0.422232
  outer loop
   vertex 117.984 178.323 160.397
   vertex 118.244 177.929 161.321
   vertex 118.684 178.72 161.219
  endloop
 endfacet
 facet normal -0.455422 0.765099 0.455208
  outer loop
   vertex 117.984 178.323 160.397
   vertex 117.818 177.962 160.839
   vertex 118.244 177.929 161.321
  endloop
 endfacet
 facet normal -0.593562 0.362568 0.71849
  outer loop
   vertex 118.684 178.72 161.219
   vertex 119.163 179.119 161.413
   vertex 118.899 179.402 161.053
  endloop
 endfacet
 facet normal 0.921366 0.0585013 0.384268
  outer loop
   vertex 120.027 178.294 161.332
   vertex 120.335 178.503 160.561
   vertex 120.008 179.291 161.226
  endloop
 endfacet
 facet normal -0.928082 0.180554 0.325674
  outer loop
   vertex 118.899 179.402 161.053
   vertex 118.956 180.076 160.84
   vertex 118.784 179.913 160.44
  endloop
 endfacet
 facet normal -0.898359 0.238848 0.368651
  outer loop
   vertex 118.608 179.13 160.519
   vertex 118.899 179.402 161.053
   vertex 118.784 179.913 160.44
  endloop
 endfacet
 facet normal -0.606894 0.346254 0.715393
  outer loop
   vertex 119.475 179.972 161.265
   vertex 118.899 179.402 161.053
   vertex 119.163 179.119 161.413
  endloop
 endfacet
 facet normal -0.570719 0.290014 0.768227
  outer loop
   vertex 118.956 180.076 160.84
   vertex 118.899 179.402 161.053
   vertex 119.475 179.972 161.265
  endloop
 endfacet
 facet normal 0.91899 0.0519664 0.39084
  outer loop
   vertex 120.335 178.503 160.561
   vertex 120.287 180.098 160.462
   vertex 120.008 179.291 161.226
  endloop
 endfacet
 facet normal 0.902433 0.0871062 0.421933
  outer loop
   vertex 120.008 179.291 161.226
   vertex 120.287 180.098 160.462
   vertex 119.948 180.302 161.145
  endloop
 endfacet
 facet normal -0.874747 0.443063 0.196248
  outer loop
   vertex 118.784 179.913 160.44
   vertex 118.956 180.076 160.84
   vertex 119.082 180.477 160.496
  endloop
 endfacet
 facet normal -0.693972 0.513069 0.505136
  outer loop
   vertex 119.467 180.975 160.339
   vertex 119.708 180.503 161.149
   vertex 119.85 180.994 160.846
  endloop
 endfacet
 facet normal -0.581109 0.616137 0.531684
  outer loop
   vertex 119.082 180.477 160.496
   vertex 119.708 180.503 161.149
   vertex 119.467 180.975 160.339
  endloop
 endfacet
 facet normal -0.662197 0.42502 0.617133
  outer loop
   vertex 119.082 180.477 160.496
   vertex 119.475 179.972 161.265
   vertex 119.708 180.503 161.149
  endloop
 endfacet
 facet normal -0.38654 0.668016 0.635878
  outer loop
   vertex 119.082 180.477 160.496
   vertex 118.956 180.076 160.84
   vertex 119.475 179.972 161.265
  endloop
 endfacet
 facet normal 0.360346 0.412004 0.836901
  outer loop
   vertex 119.85 180.994 160.846
   vertex 119.708 180.503 161.149
   vertex 119.948 180.302 161.145
  endloop
 endfacet
 facet normal 0.780677 0.33724 0.52613
  outer loop
   vertex 119.85 180.994 160.846
   vertex 119.948 180.302 161.145
   vertex 120.171 181.013 160.358
  endloop
 endfacet
 facet normal 0.902393 0.159651 0.400247
  outer loop
   vertex 120.171 181.013 160.358
   vertex 119.948 180.302 161.145
   vertex 120.287 180.098 160.462
  endloop
 endfacet
 facet normal -0.373244 0.893834 0.248497
  outer loop
   vertex 119.467 180.975 160.339
   vertex 119.85 180.994 160.846
   vertex 119.949 181.233 160.136
  endloop
 endfacet
 facet normal 0.469039 0.815486 0.339094
  outer loop
   vertex 120.171 181.013 160.358
   vertex 119.949 181.233 160.136
   vertex 119.85 180.994 160.846
  endloop
 endfacet
 facet normal -0.69921 -0.43689 0.565891
  outer loop
   vertex 118.024 175.04 161.305
   vertex 117.967 175.377 161.496
   vertex 117.714 175.275 161.104
  endloop
 endfacet
 facet normal 0.00165459 -0.766368 0.642399
  outer loop
   vertex 118.024 175.04 161.305
   vertex 118.814 174.979 161.231
   vertex 118.803 175.237 161.538
  endloop
 endfacet
 facet normal -0.127957 -0.503516 0.854458
  outer loop
   vertex 117.967 175.377 161.496
   vertex 118.024 175.04 161.305
   vertex 118.803 175.237 161.538
  endloop
 endfacet
 facet normal 0.0920745 -0.908369 0.407906
  outer loop
   vertex 118.814 174.979 161.231
   vertex 119.64 175.009 161.111
   vertex 119.587 175.154 161.445
  endloop
 endfacet
 facet normal -0.00494435 -0.766478 0.642252
  outer loop
   vertex 118.803 175.237 161.538
   vertex 118.814 174.979 161.231
   vertex 119.587 175.154 161.445
  endloop
 endfacet
 facet normal 0.64242 -0.660825 0.388081
  outer loop
   vertex 119.64 175.009 161.111
   vertex 119.917 175.348 161.229
   vertex 119.587 175.154 161.445
  endloop
 endfacet
 facet normal -0.741136 -0.0246688 0.670901
  outer loop
   vertex 117.967 175.377 161.496
   vertex 117.975 176.251 161.537
   vertex 117.697 176.056 161.222
  endloop
 endfacet
 facet normal -0.82298 -0.102407 0.558764
  outer loop
   vertex 117.714 175.275 161.104
   vertex 117.967 175.377 161.496
   vertex 117.697 176.056 161.222
  endloop
 endfacet
 facet normal -0.0953005 -0.27939 0.955437
  outer loop
   vertex 118.803 175.237 161.538
   vertex 118.803 176.075 161.783
   vertex 117.967 175.377 161.496
  endloop
 endfacet
 facet normal -0.293119 -0.0422501 0.955142
  outer loop
   vertex 118.803 176.075 161.783
   vertex 117.975 176.251 161.537
   vertex 117.967 175.377 161.496
  endloop
 endfacet
 facet normal 0.0984372 -0.168891 0.980707
  outer loop
   vertex 119.587 175.154 161.445
   vertex 119.651 175.874 161.563
   vertex 118.803 175.237 161.538
  endloop
 endfacet
 facet normal 0.180119 -0.276077 0.944107
  outer loop
   vertex 119.651 175.874 161.563
   vertex 118.803 176.075 161.783
   vertex 118.803 175.237 161.538
  endloop
 endfacet
 facet normal 0.698766 -0.0966931 0.708785
  outer loop
   vertex 119.917 175.348 161.229
   vertex 120.027 176.281 161.248
   vertex 119.651 175.874 161.563
  endloop
 endfacet
 facet normal 0.611022 -0.180302 0.770807
  outer loop
   vertex 119.587 175.154 161.445
   vertex 119.917 175.348 161.229
   vertex 119.651 175.874 161.563
  endloop
 endfacet
 facet normal -0.74518 -0.0121593 0.666752
  outer loop
   vertex 117.697 176.056 161.222
   vertex 117.975 176.251 161.537
   vertex 117.746 176.704 161.289
  endloop
 endfacet
 facet normal -0.631258 0.101522 0.7689
  outer loop
   vertex 118.005 177.062 161.454
   vertex 117.746 176.704 161.289
   vertex 117.975 176.251 161.537
  endloop
 endfacet
 facet normal -0.355275 0.107586 0.92855
  outer loop
   vertex 118.005 177.062 161.454
   vertex 117.975 176.251 161.537
   vertex 118.774 177.162 161.737
  endloop
 endfacet
 facet normal -0.278483 0.0333755 0.959861
  outer loop
   vertex 118.774 177.162 161.737
   vertex 117.975 176.251 161.537
   vertex 118.803 176.075 161.783
  endloop
 endfacet
 facet normal 0.237381 -0.0619978 0.969436
  outer loop
   vertex 119.651 175.874 161.563
   vertex 119.67 176.877 161.622
   vertex 118.803 176.075 161.783
  endloop
 endfacet
 facet normal 0.141191 0.0458732 0.988919
  outer loop
   vertex 119.67 176.877 161.622
   vertex 118.774 177.162 161.737
   vertex 118.803 176.075 161.783
  endloop
 endfacet
 facet normal 0.689427 -0.0414665 0.723168
  outer loop
   vertex 120.027 176.281 161.248
   vertex 120.069 177.338 161.268
   vertex 119.67 176.877 161.622
  endloop
 endfacet
 facet normal 0.676461 -0.0562392 0.734328
  outer loop
   vertex 119.651 175.874 161.563
   vertex 120.027 176.281 161.248
   vertex 119.67 176.877 161.622
  endloop
 endfacet
 facet normal -0.436156 0.177604 0.882171
  outer loop
   vertex 118.774 177.162 161.737
   vertex 118.974 178.267 161.613
   vertex 118.244 177.929 161.321
  endloop
 endfacet
 facet normal -0.362192 0.238865 0.900977
  outer loop
   vertex 118.005 177.062 161.454
   vertex 118.774 177.162 161.737
   vertex 118.244 177.929 161.321
  endloop
 endfacet
 facet normal 0.134719 0.0248241 0.990573
  outer loop
   vertex 119.67 176.877 161.622
   vertex 119.687 177.927 161.593
   vertex 118.774 177.162 161.737
  endloop
 endfacet
 facet normal 0.073851 0.0977777 0.992464
  outer loop
   vertex 119.687 177.927 161.593
   vertex 118.974 178.267 161.613
   vertex 118.774 177.162 161.737
  endloop
 endfacet
 facet normal 0.626584 -0.0244295 0.778971
  outer loop
   vertex 120.069 177.338 161.268
   vertex 120.027 178.294 161.332
   vertex 119.687 177.927 161.593
  endloop
 endfacet
 facet normal 0.657399 0.00957951 0.753482
  outer loop
   vertex 119.67 176.877 161.622
   vertex 120.069 177.338 161.268
   vertex 119.687 177.927 161.593
  endloop
 endfacet
 facet normal -0.489061 0.373129 0.788413
  outer loop
   vertex 118.244 177.929 161.321
   vertex 118.974 178.267 161.613
   vertex 118.684 178.72 161.219
  endloop
 endfacet
 facet normal -0.56528 0.30529 0.766327
  outer loop
   vertex 119.163 179.119 161.413
   vertex 118.684 178.72 161.219
   vertex 118.974 178.267 161.613
  endloop
 endfacet
 facet normal -0.0946877 0.247262 0.964311
  outer loop
   vertex 119.163 179.119 161.413
   vertex 118.974 178.267 161.613
   vertex 119.721 179.056 161.484
  endloop
 endfacet
 facet normal 0.0720694 0.0939979 0.99296
  outer loop
   vertex 119.721 179.056 161.484
   vertex 118.974 178.267 161.613
   vertex 119.687 177.927 161.593
  endloop
 endfacet
 facet normal 0.62259 0.0944823 0.776824
  outer loop
   vertex 120.027 178.294 161.332
   vertex 120.008 179.291 161.226
   vertex 119.721 179.056 161.484
  endloop
 endfacet
 facet normal 0.56588 0.062661 0.822103
  outer loop
   vertex 119.687 177.927 161.593
   vertex 120.027 178.294 161.332
   vertex 119.721 179.056 161.484
  endloop
 endfacet
 facet normal -0.306783 0.142585 0.941038
  outer loop
   vertex 119.721 179.056 161.484
   vertex 119.841 179.973 161.384
   vertex 119.475 179.972 161.265
  endloop
 endfacet
 facet normal -0.1005 0.205824 0.973415
  outer loop
   vertex 119.163 179.119 161.413
   vertex 119.721 179.056 161.484
   vertex 119.475 179.972 161.265
  endloop
 endfacet
 facet normal 0.857167 0.0912234 0.506896
  outer loop
   vertex 120.008 179.291 161.226
   vertex 119.948 180.302 161.145
   vertex 119.841 179.973 161.384
  endloop
 endfacet
 facet normal 0.672923 -0.00781873 0.739671
  outer loop
   vertex 119.721 179.056 161.484
   vertex 120.008 179.291 161.226
   vertex 119.841 179.973 161.384
  endloop
 endfacet
 facet normal -0.293804 0.324954 0.898935
  outer loop
   vertex 119.475 179.972 161.265
   vertex 119.841 179.973 161.384
   vertex 119.708 180.503 161.149
  endloop
 endfacet
 facet normal 0.394896 0.453935 0.798749
  outer loop
   vertex 119.948 180.302 161.145
   vertex 119.708 180.503 161.149
   vertex 119.841 179.973 161.384
  endloop
 endfacet
endsolid
