ply
format ascii 1.0
element vertex 642
property float x
property float y
property float z
property float nx
property float ny
property float nz
element face 214
property list uint uint vertex_indices
end_header
61.8673 130.53 171.899 -0.356985 -0.623323 -0.695723
61.7459 130.224 172.236 -0.356985 -0.623323 -0.695723
61.5923 130.538 172.033 -0.356985 -0.623323 -0.695723
61.7459 130.224 172.236 -0.10318 -0.716974 -0.689422
61.8673 130.53 171.899 -0.10318 -0.716974 -0.689422
62.0379 130.282 172.132 -0.10318 -0.716974 -0.689422
61.8221 131.306 171.776 -0.435457 -0.165895 -0.884792
61.8673 130.53 171.899 -0.435457 -0.165895 -0.884792
61.5923 130.538 172.033 -0.435457 -0.165895 -0.884792
61.2893 131.402 172.097 -0.528318 -0.123125 -0.840072
61.8221 131.306 171.776 -0.528318 -0.123125 -0.840072
61.5923 130.538 172.033 -0.528318 -0.123125 -0.840072
62.5306 130.812 171.984 0.322035 -0.519845 -0.791236
62.0379 130.282 172.132 0.322035 -0.519845 -0.791236
61.8673 130.53 171.899 0.322035 -0.519845 -0.791236
62.5306 130.812 171.984 0.29216 -0.430997 -0.853747
61.8673 130.53 171.899 0.29216 -0.430997 -0.853747
62.6288 131.319 171.761 0.29216 -0.430997 -0.853747
62.6288 131.319 171.761 -0.0154068 -0.157747 -0.987359
61.8673 130.53 171.899 -0.0154068 -0.157747 -0.987359
61.8221 131.306 171.776 -0.0154068 -0.157747 -0.987359
62.5306 130.812 171.984 0.41011 -0.431746 -0.803371
62.6288 131.319 171.761 0.41011 -0.431746 -0.803371
63.0431 131.19 172.042 0.41011 -0.431746 -0.803371
61.7212 132.285 171.745 -0.524999 -0.0811566 -0.847225
61.8221 131.306 171.776 -0.524999 -0.0811566 -0.847225
61.2893 131.402 172.097 -0.524999 -0.0811566 -0.847225
60.9678 132.469 171.997 -0.353701 -0.192204 -0.915398
61.7212 132.285 171.745 -0.353701 -0.192204 -0.915398
61.2893 131.402 172.097 -0.353701 -0.192204 -0.915398
62.6288 131.319 171.761 -0.0170286 -0.0737587 -0.997131
61.8221 131.306 171.776 -0.0170286 -0.0737587 -0.997131
62.6879 132.251 171.691 -0.0170286 -0.0737587 -0.997131
62.6879 132.251 171.691 -0.0564879 -0.0376758 -0.997692
61.8221 131.306 171.776 -0.0564879 -0.0376758 -0.997692
61.7212 132.285 171.745 -0.0564879 -0.0376758 -0.997692
63.6687 132.006 171.993 0.434215 -0.381696 -0.815945
63.0431 131.19 172.042 0.434215 -0.381696 -0.815945
62.6288 131.319 171.761 0.434215 -0.381696 -0.815945
63.6687 132.006 171.993 0.272807 -0.0891844 -0.957926
62.6288 131.319 171.761 0.272807 -0.0891844 -0.957926
62.6879 132.251 171.691 0.272807 -0.0891844 -0.957926
61.5999 133.085 171.796 -0.314582 0.0138062 -0.94913
61.7212 132.285 171.745 -0.314582 0.0138062 -0.94913
60.9678 132.469 171.997 -0.314582 0.0138062 -0.94913
61.2558 133.173 172.016 -0.483254 0.220241 -0.847325
61.5999 133.085 171.796 -0.483254 0.220241 -0.847325
60.9678 132.469 171.997 -0.483254 0.220241 -0.847325
62.6879 132.251 171.691 -0.0534472 0.0486837 -0.997383
61.7212 132.285 171.745 -0.0534472 0.0486837 -0.997383
62.4807 133.135 171.745 -0.0534472 0.0486837 -0.997383
62.4807 133.135 171.745 -0.0609305 0.055364 -0.996605
61.7212 132.285 171.745 -0.0609305 0.055364 -0.996605
61.5999 133.085 171.796 -0.0609305 0.055364 -0.996605
63.6687 132.006 171.993 0.288705 -0.0245212 -0.957104
62.6879 132.251 171.691 0.288705 -0.0245212 -0.957104
63.6978 133.103 171.974 0.288705 -0.0245212 -0.957104
63.6978 133.103 171.974 0.186179 0.103565 -0.977042
62.6879 132.251 171.691 0.186179 0.103565 -0.977042
62.4807 133.135 171.745 0.186179 0.103565 -0.977042
63.6978 133.103 171.974 0.313082 -0.025031 -0.949396
64.1636 132.394 172.146 0.313082 -0.025031 -0.949396
63.6687 132.006 171.993 0.313082 -0.025031 -0.949396
61.5999 133.085 171.796 -0.328349 0.576835 -0.747963
61.2558 133.173 172.016 -0.328349 0.576835 -0.747963
61.6727 133.558 172.129 -0.328349 0.576835 -0.747963
62.4807 133.135 171.745 -0.0804703 0.581833 -0.809318
61.5999 133.085 171.796 -0.0804703 0.581833 -0.809318
61.6727 133.558 172.129 -0.0804703 0.581833 -0.809318
62.7923 133.661 172.058 -0.103786 0.553011 -0.826684
62.4807 133.135 171.745 -0.103786 0.553011 -0.826684
61.6727 133.558 172.129 -0.103786 0.553011 -0.826684
63.6978 133.103 171.974 0.177989 0.422603 -0.888666
62.4807 133.135 171.745 0.177989 0.422603 -0.888666
62.7923 133.661 172.058 0.177989 0.422603 -0.888666
61.7459 130.224 172.236 -0.660153 -0.751126 -0.00298832
61.816 130.159 173.12 -0.660153 -0.751126 -0.00298832
61.3899 130.534 172.88 -0.660153 -0.751126 -0.00298832
61.5923 130.538 172.033 -0.82356 -0.531062 -0.199305
61.7459 130.224 172.236 -0.82356 -0.531062 -0.199305
61.3899 130.534 172.88 -0.82356 -0.531062 -0.199305
62.0379 130.282 172.132 0.421894 -0.664962 -0.616304
62.892 130.422 172.565 0.421894 -0.664962 -0.616304
62.5127 129.949 172.816 0.421894 -0.664962 -0.616304
62.0379 130.282 172.132 0.0183509 -0.894028 -0.447635
62.5127 129.949 172.816 0.0183509 -0.894028 -0.447635
61.7459 130.224 172.236 0.0183509 -0.894028 -0.447635
61.7459 130.224 172.236 -0.305964 -0.950944 -0.0457353
62.5127 129.949 172.816 -0.305964 -0.950944 -0.0457353
61.816 130.159 173.12 -0.305964 -0.950944 -0.0457353
62.892 130.422 172.565 0.27477 -0.644906 -0.71316
63.6795 130.479 172.816 0.27477 -0.644906 -0.71316
63.444 130.188 172.99 0.27477 -0.644906 -0.71316
62.5127 129.949 172.816 0.29479 -0.6212 -0.726091
62.892 130.422 172.565 0.29479 -0.6212 -0.726091
63.444 130.188 172.99 0.29479 -0.6212 -0.726091
63.444 130.188 172.99 0.336085 -0.666216 -0.665735
63.6795 130.479 172.816 0.336085 -0.666216 -0.665735
63.8246 130.408 172.961 0.336085 -0.666216 -0.665735
60.6868 131.499 173.052 -0.763433 -0.479078 -0.433191
61.2893 131.402 172.097 -0.763433 -0.479078 -0.433191
61.3899 130.534 172.88 -0.763433 -0.479078 -0.433191
61.2893 131.402 172.097 -0.925062 -0.307801 -0.222527
61.5923 130.538 172.033 -0.925062 -0.307801 -0.222527
61.3899 130.534 172.88 -0.925062 -0.307801 -0.222527
62.0379 130.282 172.132 0.439112 -0.595515 -0.672713
62.5306 130.812 171.984 0.439112 -0.595515 -0.672713
62.892 130.422 172.565 0.439112 -0.595515 -0.672713
63.0431 131.19 172.042 0.486401 -0.554937 -0.674877
62.892 130.422 172.565 0.486401 -0.554937 -0.674877
62.5306 130.812 171.984 0.486401 -0.554937 -0.674877
63.0431 131.19 172.042 0.499163 -0.55246 -0.667551
63.5998 131.122 172.515 0.499163 -0.55246 -0.667551
62.892 130.422 172.565 0.499163 -0.55246 -0.667551
63.5998 131.122 172.515 0.306829 -0.372963 -0.875645
63.6795 130.479 172.816 0.306829 -0.372963 -0.875645
62.892 130.422 172.565 0.306829 -0.372963 -0.875645
64.1078 131.168 172.959 0.626531 -0.235171 -0.74307
63.8246 130.408 172.961 0.626531 -0.235171 -0.74307
63.6795 130.479 172.816 0.626531 -0.235171 -0.74307
63.5998 131.122 172.515 0.649948 -0.255398 -0.715779
64.1078 131.168 172.959 0.649948 -0.255398 -0.715779
63.6795 130.479 172.816 0.649948 -0.255398 -0.715779
60.5116 132.418 172.961 -0.958303 -0.202594 -0.201521
60.6769 132.197 172.397 -0.958303 -0.202594 -0.201521
60.6868 131.499 173.052 -0.958303 -0.202594 -0.201521
61.2893 131.402 172.097 -0.682476 -0.26925 -0.679508
60.6769 132.197 172.397 -0.682476 -0.26925 -0.679508
60.9678 132.469 171.997 -0.682476 -0.26925 -0.679508
60.6868 131.499 173.052 -0.781645 -0.432537 -0.449381
60.6769 132.197 172.397 -0.781645 -0.432537 -0.449381
61.2893 131.402 172.097 -0.781645 -0.432537 -0.449381
63.0431 131.19 172.042 0.542183 -0.457888 -0.70454
63.6687 132.006 171.993 0.542183 -0.457888 -0.70454
63.5998 131.122 172.515 0.542183 -0.457888 -0.70454
64.1636 132.394 172.146 0.707155 -0.272627 -0.652385
64.6909 132.578 172.641 0.707155 -0.272627 -0.652385
64.6055 132.012 172.785 0.707155 -0.272627 -0.652385
63.6687 132.006 171.993 0.572967 -0.465322 -0.674674
64.1636 132.394 172.146 0.572967 -0.465322 -0.674674
64.6055 132.012 172.785 0.572967 -0.465322 -0.674674
63.6687 132.006 171.993 0.569677 -0.474998 -0.670705
64.6055 132.012 172.785 0.569677 -0.474998 -0.670705
64.1078 131.168 172.959 0.569677 -0.474998 -0.670705
63.6687 132.006 171.993 0.615048 -0.435653 -0.657208
64.1078 131.168 172.959 0.615048 -0.435653 -0.657208
63.5998 131.122 172.515 0.615048 -0.435653 -0.657208
64.6055 132.012 172.785 0.766648 -0.264484 -0.585064
64.6909 132.578 172.641 0.766648 -0.264484 -0.585064
64.9828 132.219 173.186 0.766648 -0.264484 -0.585064
60.7285 133.098 172.593 -0.938029 0.124128 -0.323563
60.6769 132.197 172.397 -0.938029 0.124128 -0.323563
60.5116 132.418 172.961 -0.938029 0.124128 -0.323563
60.4988 133.315 173.247 -0.927668 0.10142 -0.35937
60.7285 133.098 172.593 -0.927668 0.10142 -0.35937
60.5116 132.418 172.961 -0.927668 0.10142 -0.35937
60.9678 132.469 171.997 -0.72123 0.311598 -0.618655
60.7285 133.098 172.593 -0.72123 0.311598 -0.618655
61.2558 133.173 172.016 -0.72123 0.311598 -0.618655
60.6769 132.197 172.397 -0.846653 0.158919 -0.507861
60.7285 133.098 172.593 -0.846653 0.158919 -0.507861
60.9678 132.469 171.997 -0.846653 0.158919 -0.507861
64.6909 132.578 172.641 0.584919 0.0818156 -0.806955
63.6978 133.103 171.974 0.584919 0.0818156 -0.806955
64.643 133.496 172.699 0.584919 0.0818156 -0.806955
64.1636 132.394 172.146 0.622606 0.226749 -0.748964
63.6978 133.103 171.974 0.622606 0.226749 -0.748964
64.6909 132.578 172.641 0.622606 0.226749 -0.748964
65.01 133.126 173.111 0.860428 -0.0671041 -0.505134
64.9828 132.219 173.186 0.860428 -0.0671041 -0.505134
64.6909 132.578 172.641 0.860428 -0.0671041 -0.505134
64.643 133.496 172.699 0.779243 0.0801836 -0.621571
65.01 133.126 173.111 0.779243 0.0801836 -0.621571
64.6909 132.578 172.641 0.779243 0.0801836 -0.621571
60.7285 133.098 172.593 -0.818166 0.394722 -0.418088
60.4988 133.315 173.247 -0.818166 0.394722 -0.418088
60.8507 133.677 172.9 -0.818166 0.394722 -0.418088
61.5901 134.174 172.705 -0.534113 0.539553 -0.65085
60.8507 133.677 172.9 -0.534113 0.539553 -0.65085
61.2486 134.246 173.045 -0.534113 0.539553 -0.65085
61.6727 133.558 172.129 -0.533613 0.538218 -0.652364
60.8507 133.677 172.9 -0.533613 0.538218 -0.652364
61.5901 134.174 172.705 -0.533613 0.538218 -0.652364
61.6727 133.558 172.129 -0.563294 0.477081 -0.674606
60.7285 133.098 172.593 -0.563294 0.477081 -0.674606
60.8507 133.677 172.9 -0.563294 0.477081 -0.674606
61.6727 133.558 172.129 -0.554428 0.722727 -0.412643
61.2558 133.173 172.016 -0.554428 0.722727 -0.412643
60.7285 133.098 172.593 -0.554428 0.722727 -0.412643
61.6727 133.558 172.129 -0.108072 0.654326 -0.74845
62.5007 134.225 172.593 -0.108072 0.654326 -0.74845
62.7923 133.661 172.058 -0.108072 0.654326 -0.74845
61.5901 134.174 172.705 -0.127757 0.66805 -0.733067
62.5007 134.225 172.593 -0.127757 0.66805 -0.733067
61.6727 133.558 172.129 -0.127757 0.66805 -0.733067
62.7923 133.661 172.058 0.242646 0.517472 -0.820577
63.6836 134.139 172.623 0.242646 0.517472 -0.820577
63.6978 133.103 171.974 0.242646 0.517472 -0.820577
62.5007 134.225 172.593 0.0690386 0.705178 -0.705661
63.6836 134.139 172.623 0.0690386 0.705178 -0.705661
62.7923 133.661 172.058 0.0690386 0.705178 -0.705661
63.6978 133.103 171.974 0.391798 0.492358 -0.777225
63.6836 134.139 172.623 0.391798 0.492358 -0.777225
64.643 133.496 172.699 0.391798 0.492358 -0.777225
63.6836 134.139 172.623 0.238374 0.24426 -0.939955
64.6062 134.238 172.883 0.238374 0.24426 -0.939955
64.643 133.496 172.699 0.238374 0.24426 -0.939955
64.9362 134.024 173.14 0.780515 0.0837637 -0.619499
65.01 133.126 173.111 0.780515 0.0837637 -0.619499
64.643 133.496 172.699 0.780515 0.0837637 -0.619499
64.6062 134.238 172.883 0.681563 0.207355 -0.701766
64.9362 134.024 173.14 0.681563 0.207355 -0.701766
64.643 133.496 172.699 0.681563 0.207355 -0.701766
61.5901 134.174 172.705 -0.282077 0.840961 -0.461755
61.2486 134.246 173.045 -0.282077 0.840961 -0.461755
61.8005 134.495 173.162 -0.282077 0.840961 -0.461755
62.5007 134.225 172.593 -0.113094 0.836409 -0.53631
61.5901 134.174 172.705 -0.113094 0.836409 -0.53631
61.8005 134.495 173.162 -0.113094 0.836409 -0.53631
62.9378 134.554 173.106 -0.0689792 0.865634 -0.495902
62.5007 134.225 172.593 -0.0689792 0.865634 -0.495902
61.8005 134.495 173.162 -0.0689792 0.865634 -0.495902
63.6836 134.139 172.623 0.0736256 0.809989 -0.581804
62.5007 134.225 172.593 0.0736256 0.809989 -0.581804
62.9378 134.554 173.106 0.0736256 0.809989 -0.581804
63.9953 134.504 173.135 0.0537223 0.797102 -0.601451
63.6836 134.139 172.623 0.0537223 0.797102 -0.601451
62.9378 134.554 173.106 0.0537223 0.797102 -0.601451
64.6062 134.238 172.883 0.0882311 0.784674 -0.613597
63.6836 134.139 172.623 0.0882311 0.784674 -0.613597
63.9953 134.504 173.135 0.0882311 0.784674 -0.613597
64.759 134.385 173.21 0.180631 0.862843 -0.472095
64.6062 134.238 172.883 0.180631 0.862843 -0.472095
63.9953 134.504 173.135 0.180631 0.862843 -0.472095
64.9362 134.024 173.14 0.712281 0.453149 -0.536015
64.6062 134.238 172.883 0.712281 0.453149 -0.536015
64.759 134.385 173.21 0.712281 0.453149 -0.536015
61.816 130.159 173.12 -0.498246 -0.862326 0.0902439
61.8667 130.212 173.911 -0.498246 -0.862326 0.0902439
61.4717 130.438 173.888 -0.498246 -0.862326 0.0902439
61.3899 130.534 172.88 -0.654966 -0.755422 -0.0189151
61.816 130.159 173.12 -0.654966 -0.755422 -0.0189151
61.4717 130.438 173.888 -0.654966 -0.755422 -0.0189151
62.5127 129.949 172.816 -0.171363 -0.949875 0.261482
62.6973 130.143 173.64 -0.171363 -0.949875 0.261482
61.816 130.159 173.12 -0.171363 -0.949875 0.261482
61.816 130.159 173.12 -0.059818 -0.995671 0.0711372
62.6973 130.143 173.64 -0.059818 -0.995671 0.0711372
61.8667 130.212 173.911 -0.059818 -0.995671 0.0711372
63.7038 130.456 173.328 0.373773 -0.862956 0.34
63.0085 130.417 173.994 0.373773 -0.862956 0.34
62.6973 130.143 173.64 0.373773 -0.862956 0.34
63.7038 130.456 173.328 0.379709 -0.844526 0.37762
62.6973 130.143 173.64 0.379709 -0.844526 0.37762
63.444 130.188 172.99 0.379709 -0.844526 0.37762
63.444 130.188 172.99 0.212751 -0.960748 0.178048
62.6973 130.143 173.64 0.212751 -0.960748 0.178048
62.5127 129.949 172.816 0.212751 -0.960748 0.178048
63.444 130.188 172.99 0.49678 -0.824241 0.271727
63.8246 130.408 172.961 0.49678 -0.824241 0.271727
63.7038 130.456 173.328 0.49678 -0.824241 0.271727
60.6868 131.499 173.052 -0.810849 -0.584003 -0.0382627
61.3899 130.534 172.88 -0.810849 -0.584003 -0.0382627
60.8615 131.199 173.924 -0.810849 -0.584003 -0.0382627
61.3899 130.534 172.88 -0.780216 -0.625499 0.00366261
61.4717 130.438 173.888 -0.780216 -0.625499 0.00366261
60.8615 131.199 173.924 -0.780216 -0.625499 0.00366261
63.7038 130.456 173.328 0.461483 -0.772085 0.436942
63.6669 130.867 174.095 0.461483 -0.772085 0.436942
63.0085 130.417 173.994 0.461483 -0.772085 0.436942
63.7038 130.456 173.328 0.883617 -0.32801 0.334112
63.8246 130.408 172.961 0.883617 -0.32801 0.334112
64.1078 131.168 172.959 0.883617 -0.32801 0.334112
63.7038 130.456 173.328 0.786936 -0.569268 -0.238045
64.1078 131.168 172.959 0.786936 -0.569268 -0.238045
64.464 131.209 174.041 0.786936 -0.569268 -0.238045
63.7038 130.456 173.328 0.37657 -0.808428 0.452371
64.464 131.209 174.041 0.37657 -0.808428 0.452371
63.6669 130.867 174.095 0.37657 -0.808428 0.452371
64.7704 131.494 173.544 0.537217 -0.830706 -0.146032
64.464 131.209 174.041 0.537217 -0.830706 -0.146032
64.1078 131.168 172.959 0.537217 -0.830706 -0.146032
64.464 131.209 174.041 0.721612 -0.690631 0.0480214
64.7704 131.494 173.544 0.721612 -0.690631 0.0480214
64.9409 131.706 174.028 0.721612 -0.690631 0.0480214
60.6868 131.499 173.052 -0.975871 -0.21217 -0.0515738
60.5881 131.721 174.007 -0.975871 -0.21217 -0.0515738
60.4629 132.362 173.736 -0.975871 -0.21217 -0.0515738
60.6868 131.499 173.052 -0.978125 -0.193862 -0.0754243
60.4629 132.362 173.736 -0.978125 -0.193862 -0.0754243
60.5116 132.418 172.961 -0.978125 -0.193862 -0.0754243
60.8615 131.199 173.924 -0.884499 -0.466234 0.0169465
60.5881 131.721 174.007 -0.884499 -0.466234 0.0169465
60.6868 131.499 173.052 -0.884499 -0.466234 0.0169465
64.1078 131.168 172.959 0.695429 -0.514216 -0.501957
64.6055 132.012 172.785 0.695429 -0.514216 -0.501957
64.7704 131.494 173.544 0.695429 -0.514216 -0.501957
64.7704 131.494 173.544 0.753565 -0.455171 -0.474299
64.6055 132.012 172.785 0.753565 -0.455171 -0.474299
64.9828 132.219 173.186 0.753565 -0.455171 -0.474299
64.7704 131.494 173.544 0.920031 -0.353341 -0.169391
64.9828 132.219 173.186 0.920031 -0.353341 -0.169391
64.9409 131.706 174.028 0.920031 -0.353341 -0.169391
64.9409 131.706 174.028 0.9773 -0.199035 -0.0725882
64.9828 132.219 173.186 0.9773 -0.199035 -0.0725882
65.0799 132.455 173.845 0.9773 -0.199035 -0.0725882
60.5116 132.418 172.961 -0.998045 0.00561387 -0.0622544
60.4629 132.362 173.736 -0.998045 0.00561387 -0.0622544
60.4988 133.315 173.247 -0.998045 0.00561387 -0.0622544
60.4629 132.362 173.736 -0.998378 0.00870601 -0.056257
60.4555 133.205 173.998 -0.998378 0.00870601 -0.056257
60.4988 133.315 173.247 -0.998378 0.00870601 -0.056257
64.9828 132.219 173.186 0.990509 -0.0404088 -0.131372
65.01 133.126 173.111 0.990509 -0.0404088 -0.131372
65.0799 132.455 173.845 0.990509 -0.0404088 -0.131372
65.0799 132.455 173.845 0.996676 0.0166363 -0.0797544
65.01 133.126 173.111 0.996676 0.0166363 -0.0797544
65.0732 133.32 173.942 0.996676 0.0166363 -0.0797544
60.8649 134.232 173.752 -0.812633 0.494433 -0.308487
60.8507 133.677 172.9 -0.812633 0.494433 -0.308487
60.4988 133.315 173.247 -0.812633 0.494433 -0.308487
60.8649 134.232 173.752 -0.727503 0.530328 -0.435307
60.4988 133.315 173.247 -0.727503 0.530328 -0.435307
60.5443 133.957 173.953 -0.727503 0.530328 -0.435307
60.5443 133.957 173.953 -0.992572 0.114763 -0.040385
60.4988 133.315 173.247 -0.992572 0.114763 -0.040385
60.4555 133.205 173.998 -0.992572 0.114763 -0.040385
60.8507 133.677 172.9 -0.712375 0.593444 -0.374627
60.8649 134.232 173.752 -0.712375 0.593444 -0.374627
61.2486 134.246 173.045 -0.712375 0.593444 -0.374627
65.01 133.126 173.111 0.991852 0.084613 -0.0952386
64.9362 134.024 173.14 0.991852 0.084613 -0.0952386
65.0732 133.32 173.942 0.991852 0.084613 -0.0952386
65.0732 133.32 173.942 0.991322 0.108535 -0.0741674
64.9362 134.024 173.14 0.991322 0.108535 -0.0741674
64.9835 134.153 173.961 0.991322 0.108535 -0.0741674
61.2486 134.246 173.045 -0.372219 0.909839 -0.183428
60.8649 134.232 173.752 -0.372219 0.909839 -0.183428
61.8005 134.495 173.162 -0.372219 0.909839 -0.183428
61.8005 134.495 173.162 -0.31009 0.948299 -0.0676269
60.8649 134.232 173.752 -0.31009 0.948299 -0.0676269
61.7706 134.55 174.059 -0.31009 0.948299 -0.0676269
62.9378 134.554 173.106 -0.0565331 0.991884 -0.113889
61.8005 134.495 173.162 -0.0565331 0.991884 -0.113889
62.7207 134.642 173.978 -0.0565331 0.991884 -0.113889
61.8005 134.495 173.162 -0.101482 0.992818 -0.0633613
61.7706 134.55 174.059 -0.101482 0.992818 -0.0633613
62.7207 134.642 173.978 -0.101482 0.992818 -0.0633613
63.9953 134.504 173.135 0.0496458 0.992774 -0.109247
62.9378 134.554 173.106 0.0496458 0.992774 -0.109247
63.7738 134.607 173.974 0.0496458 0.992774 -0.109247
62.9378 134.554 173.106 0.03184 0.995228 -0.092238
62.7207 134.642 173.978 0.03184 0.995228 -0.092238
63.7738 134.607 173.974 0.03184 0.995228 -0.092238
64.759 134.385 173.21 0.161506 0.98281 -0.0894445
63.9953 134.504 173.135 0.161506 0.98281 -0.0894445
64.6597 134.471 173.974 0.161506 0.98281 -0.0894445
63.9953 134.504 173.135 0.151487 0.9851 -0.0814193
63.7738 134.607 173.974 0.151487 0.9851 -0.0814193
64.6597 134.471 173.974 0.151487 0.9851 -0.0814193
64.9835 134.153 173.961 0.881636 0.45573 -0.122593
64.9362 134.024 173.14 0.881636 0.45573 -0.122593
64.759 134.385 173.21 0.881636 0.45573 -0.122593
64.6597 134.471 173.974 0.701071 0.713006 0.0109944
64.9835 134.153 173.961 0.701071 0.713006 0.0109944
64.759 134.385 173.21 0.701071 0.713006 0.0109944
61.8667 130.212 173.911 -0.493911 -0.84184 0.217617
61.7014 130.447 174.444 -0.493911 -0.84184 0.217617
61.4717 130.438 173.888 -0.493911 -0.84184 0.217617
61.8667 130.212 173.911 0.0502512 -0.919485 0.3899
62.6973 130.143 173.64 0.0502512 -0.919485 0.3899
62.437 130.385 174.246 0.0502512 -0.919485 0.3899
61.7014 130.447 174.444 0.0347406 -0.910654 0.411708
61.8667 130.212 173.911 0.0347406 -0.910654 0.411708
62.437 130.385 174.246 0.0347406 -0.910654 0.411708
62.6973 130.143 173.64 0.245684 -0.858796 0.449566
63.0085 130.417 173.994 0.245684 -0.858796 0.449566
62.437 130.385 174.246 0.245684 -0.858796 0.449566
61.7014 130.447 174.444 -0.414026 -0.508033 0.755304
61.8606 131.103 174.973 -0.414026 -0.508033 0.755304
61.2832 131.087 174.645 -0.414026 -0.508033 0.755304
61.7014 130.447 174.444 -0.745157 -0.586651 0.317145
61.2832 131.087 174.645 -0.745157 -0.586651 0.317145
61.4717 130.438 173.888 -0.745157 -0.586651 0.317145
61.4717 130.438 173.888 -0.728034 -0.599537 0.332447
61.2832 131.087 174.645 -0.728034 -0.599537 0.332447
60.8615 131.199 173.924 -0.728034 -0.599537 0.332447
62.437 130.385 174.246 0.148832 -0.642018 0.752104
61.8606 131.103 174.973 0.148832 -0.642018 0.752104
61.7014 130.447 174.444 0.148832 -0.642018 0.752104
62.9194 130.975 174.784 0.0439669 -0.693159 0.719443
61.8606 131.103 174.973 0.0439669 -0.693159 0.719443
62.437 130.385 174.246 0.0439669 -0.693159 0.719443
63.0085 130.417 173.994 0.294962 -0.764724 0.572883
62.9194 130.975 174.784 0.294962 -0.764724 0.572883
62.437 130.385 174.246 0.294962 -0.764724 0.572883
63.0085 130.417 173.994 0.409552 -0.723004 0.556356
63.6669 130.867 174.095 0.409552 -0.723004 0.556356
62.9194 130.975 174.784 0.409552 -0.723004 0.556356
63.6669 130.867 174.095 0.203 -0.909981 0.36156
63.7624 131.122 174.683 0.203 -0.909981 0.36156
62.9194 130.975 174.784 0.203 -0.909981 0.36156
64.464 131.209 174.041 0.565939 -0.627923 0.534253
63.769 131.425 175.032 0.565939 -0.627923 0.534253
63.7624 131.122 174.683 0.565939 -0.627923 0.534253
64.464 131.209 174.041 0.39158 -0.865734 0.311721
63.7624 131.122 174.683 0.39158 -0.865734 0.311721
63.6669 130.867 174.095 0.39158 -0.865734 0.311721
60.5881 131.721 174.007 -0.978912 -0.121706 0.164069
60.5695 132.521 174.489 -0.978912 -0.121706 0.164069
60.4629 132.362 173.736 -0.978912 -0.121706 0.164069
60.5881 131.721 174.007 -0.818095 -0.310915 0.48379
60.9291 132.004 174.765 -0.818095 -0.310915 0.48379
60.5695 132.521 174.489 -0.818095 -0.310915 0.48379
60.5881 131.721 174.007 -0.731421 -0.462277 0.501321
60.8615 131.199 173.924 -0.731421 -0.462277 0.501321
60.9291 132.004 174.765 -0.731421 -0.462277 0.501321
60.8615 131.199 173.924 -0.824784 -0.373871 0.424208
61.2832 131.087 174.645 -0.824784 -0.373871 0.424208
60.9291 132.004 174.765 -0.824784 -0.373871 0.424208
64.464 131.209 174.041 0.568805 -0.624286 0.53547
64.6262 132.11 174.92 0.568805 -0.624286 0.53547
63.769 131.425 175.032 0.568805 -0.624286 0.53547
64.6262 132.11 174.92 0.634031 -0.595247 0.493646
64.464 131.209 174.041 0.634031 -0.595247 0.493646
64.9409 131.706 174.028 0.634031 -0.595247 0.493646
64.6262 132.11 174.92 0.805162 -0.379083 0.456081
64.9409 131.706 174.028 0.805162 -0.379083 0.456081
64.9656 132.537 174.675 0.805162 -0.379083 0.456081
64.9656 132.537 174.675 0.978168 -0.144988 0.148882
64.9409 131.706 174.028 0.978168 -0.144988 0.148882
65.0799 132.455 173.845 0.978168 -0.144988 0.148882
60.5695 132.521 174.489 -0.955576 0.0497257 0.290519
60.6405 133.482 174.559 -0.955576 0.0497257 0.290519
60.4555 133.205 173.998 -0.955576 0.0497257 0.290519
60.4629 132.362 173.736 -0.98692 -0.05567 0.151293
60.5695 132.521 174.489 -0.98692 -0.05567 0.151293
60.4555 133.205 173.998 -0.98692 -0.05567 0.151293
60.9325 133.106 174.937 -0.698208 -0.107953 0.707708
60.5695 132.521 174.489 -0.698208 -0.107953 0.707708
60.9291 132.004 174.765 -0.698208 -0.107953 0.707708
60.6405 133.482 174.559 -0.784981 0.0134853 0.619373
60.5695 132.521 174.489 -0.784981 0.0134853 0.619373
60.9325 133.106 174.937 -0.784981 0.0134853 0.619373
65.0799 132.455 173.845 0.990535 -0.00774477 0.137038
65.0732 133.32 173.942 0.990535 -0.00774477 0.137038
64.9656 132.537 174.675 0.990535 -0.00774477 0.137038
64.9656 132.537 174.675 0.990951 -0.0108507 0.133785
65.0732 133.32 173.942 0.990951 -0.0108507 0.133785
64.9616 133.507 174.784 0.990951 -0.0108507 0.133785
60.6405 133.482 174.559 -0.848627 0.342199 0.403401
60.7825 134.192 174.255 -0.848627 0.342199 0.403401
60.5443 133.957 173.953 -0.848627 0.342199 0.403401
60.4555 133.205 173.998 -0.958979 0.128055 0.252907
60.6405 133.482 174.559 -0.958979 0.128055 0.252907
60.5443 133.957 173.953 -0.958979 0.128055 0.252907
61.3034 134.032 174.884 -0.60164 0.28375 0.74667
60.6405 133.482 174.559 -0.60164 0.28375 0.74667
60.9325 133.106 174.937 -0.60164 0.28375 0.74667
60.7825 134.192 174.255 -0.650766 0.404722 0.64242
60.6405 133.482 174.559 -0.650766 0.404722 0.64242
61.3034 134.032 174.884 -0.650766 0.404722 0.64242
65.0732 133.32 173.942 0.988691 0.104099 0.107955
64.9835 134.153 173.961 0.988691 0.104099 0.107955
64.9616 133.507 174.784 0.988691 0.104099 0.107955
64.9616 133.507 174.784 0.988888 0.103056 0.107142
64.9835 134.153 173.961 0.988888 0.103056 0.107142
64.8901 134.239 174.74 0.988888 0.103056 0.107142
60.5443 133.957 173.953 -0.667731 0.742706 -0.0502259
60.7825 134.192 174.255 -0.667731 0.742706 -0.0502259
60.8649 134.232 173.752 -0.667731 0.742706 -0.0502259
60.7825 134.192 174.255 -0.509797 0.632194 0.58347
61.3034 134.032 174.884 -0.509797 0.632194 0.58347
61.5239 134.398 174.679 -0.509797 0.632194 0.58347
60.7825 134.192 174.255 -0.284255 0.95829 0.0296611
61.5239 134.398 174.679 -0.284255 0.95829 0.0296611
60.8649 134.232 173.752 -0.284255 0.95829 0.0296611
60.8649 134.232 173.752 -0.355842 0.930624 0.0855285
61.5239 134.398 174.679 -0.355842 0.930624 0.0855285
61.7706 134.55 174.059 -0.355842 0.930624 0.0855285
62.7207 134.642 173.978 -0.0851739 0.988709 0.123285
61.7706 134.55 174.059 -0.0851739 0.988709 0.123285
62.599 134.517 174.892 -0.0851739 0.988709 0.123285
61.7706 134.55 174.059 -0.143307 0.973075 0.180522
61.5239 134.398 174.679 -0.143307 0.973075 0.180522
62.599 134.517 174.892 -0.143307 0.973075 0.180522
63.7738 134.607 173.974 0.0325943 0.997991 0.0543316
62.7207 134.642 173.978 0.0325943 0.997991 0.0543316
63.6001 134.567 174.816 0.0325943 0.997991 0.0543316
62.7207 134.642 173.978 -0.0397432 0.990767 0.129622
62.599 134.517 174.892 -0.0397432 0.990767 0.129622
63.6001 134.567 174.816 -0.0397432 0.990767 0.129622
64.6597 134.471 173.974 0.151497 0.985166 0.0805989
63.7738 134.607 173.974 0.151497 0.985166 0.0805989
64.4463 134.425 174.946 0.151497 0.985166 0.0805989
63.7738 134.607 173.974 0.154083 0.984914 0.0787634
63.6001 134.567 174.816 0.154083 0.984914 0.0787634
64.4463 134.425 174.946 0.154083 0.984914 0.0787634
64.8901 134.239 174.74 0.700995 0.713143 0.00564466
64.9835 134.153 173.961 0.700995 0.713143 0.00564466
64.6597 134.471 173.974 0.700995 0.713143 0.00564466
64.4463 134.425 174.946 0.436408 0.889026 0.138496
64.8901 134.239 174.74 0.436408 0.889026 0.138496
64.6597 134.471 173.974 0.436408 0.889026 0.138496
61.8606 131.103 174.973 0.0112623 -0.795689 0.605601
62.9194 130.975 174.784 0.0112623 -0.795689 0.605601
62.8549 131.465 175.429 0.0112623 -0.795689 0.605601
62.9194 130.975 174.784 0.206826 -0.740844 0.639041
63.7624 131.122 174.683 0.206826 -0.740844 0.639041
63.769 131.425 175.032 0.206826 -0.740844 0.639041
62.8549 131.465 175.429 0.229429 -0.763844 0.603245
62.9194 130.975 174.784 0.229429 -0.763844 0.603245
63.769 131.425 175.032 0.229429 -0.763844 0.603245
61.8606 131.103 174.973 -0.419523 -0.231622 0.877697
61.5717 132.351 175.164 -0.419523 -0.231622 0.877697
60.9291 132.004 174.765 -0.419523 -0.231622 0.877697
61.2832 131.087 174.645 -0.466058 -0.289314 0.836114
61.8606 131.103 174.973 -0.466058 -0.289314 0.836114
60.9291 132.004 174.765 -0.466058 -0.289314 0.836114
62.8549 131.465 175.429 -0.286714 -0.341744 0.89499
62.5502 132.352 175.671 -0.286714 -0.341744 0.89499
61.8606 131.103 174.973 -0.286714 -0.341744 0.89499
62.5502 132.352 175.671 -0.446624 -0.235664 0.863128
61.5717 132.351 175.164 -0.446624 -0.235664 0.863128
61.8606 131.103 174.973 -0.446624 -0.235664 0.863128
63.769 131.425 175.032 0.3212 -0.522299 0.789959
63.6858 132.319 175.656 0.3212 -0.522299 0.789959
62.8549 131.465 175.429 0.3212 -0.522299 0.789959
63.6858 132.319 175.656 0.00451078 -0.260883 0.96536
62.5502 132.352 175.671 0.00451078 -0.260883 0.96536
62.8549 131.465 175.429 0.00451078 -0.260883 0.96536
63.769 131.425 175.032 0.475416 -0.473878 0.741229
64.6262 132.11 174.92 0.475416 -0.473878 0.741229
63.6858 132.319 175.656 0.475416 -0.473878 0.741229
61.5717 132.351 175.164 -0.351894 -0.0162008 0.9359
61.8103 133.384 175.272 -0.351894 -0.0162008 0.9359
60.9325 133.106 174.937 -0.351894 -0.0162008 0.9359
60.9291 132.004 174.765 -0.46904 -0.134365 0.872896
61.5717 132.351 175.164 -0.46904 -0.134365 0.872896
60.9325 133.106 174.937 -0.46904 -0.134365 0.872896
62.7385 133.388 175.83 -0.404558 -0.0671163 0.912046
62.5502 132.352 175.671 -0.404558 -0.0671163 0.912046
63.0559 132.98 175.941 -0.404558 -0.0671163 0.912046
62.7385 133.388 175.83 -0.515275 -0.0383536 0.856166
61.8103 133.384 175.272 -0.515275 -0.0383536 0.856166
62.5502 132.352 175.671 -0.515275 -0.0383536 0.856166
61.8103 133.384 175.272 -0.459792 0.0136987 0.887921
61.5717 132.351 175.164 -0.459792 0.0136987 0.887921
62.5502 132.352 175.671 -0.459792 0.0136987 0.887921
63.6858 132.319 175.656 -1.31414e-05 -0.395625 0.918412
63.0559 132.98 175.941 -1.31414e-05 -0.395625 0.918412
62.5502 132.352 175.671 -1.31414e-05 -0.395625 0.918412
63.7937 132.945 175.842 0.112542 -0.300736 0.947044
63.0559 132.98 175.941 0.112542 -0.300736 0.947044
63.6858 132.319 175.656 0.112542 -0.300736 0.947044
63.7937 132.945 175.842 0.589782 -0.00295797 0.807557
64.5814 133.11 175.268 0.589782 -0.00295797 0.807557
63.8025 133.423 175.838 0.589782 -0.00295797 0.807557
63.7937 132.945 175.842 0.601185 -0.321075 0.73177
63.6858 132.319 175.656 0.601185 -0.321075 0.73177
64.5814 133.11 175.268 0.601185 -0.321075 0.73177
63.6858 132.319 175.656 0.562331 -0.249203 0.788468
64.6262 132.11 174.92 0.562331 -0.249203 0.788468
64.5814 133.11 175.268 0.562331 -0.249203 0.788468
64.9656 132.537 174.675 0.808876 -0.0619139 0.58471
64.9616 133.507 174.784 0.808876 -0.0619139 0.58471
64.5814 133.11 175.268 0.808876 -0.0619139 0.58471
64.6262 132.11 174.92 0.724086 -0.197523 0.660821
64.9656 132.537 174.675 0.724086 -0.197523 0.660821
64.5814 133.11 175.268 0.724086 -0.197523 0.660821
61.8103 133.384 175.272 -0.385262 0.23328 0.892834
61.8495 134.233 175.067 -0.385262 0.23328 0.892834
61.3034 134.032 174.884 -0.385262 0.23328 0.892834
60.9325 133.106 174.937 -0.406678 0.213745 0.888215
61.8103 133.384 175.272 -0.406678 0.213745 0.888215
61.3034 134.032 174.884 -0.406678 0.213745 0.888215
62.7385 133.388 175.83 -0.466231 0.432163 0.771922
62.7049 134.158 175.379 -0.466231 0.432163 0.771922
61.8103 133.384 175.272 -0.466231 0.432163 0.771922
62.7049 134.158 175.379 -0.314661 0.236401 0.919295
61.8495 134.233 175.067 -0.314661 0.236401 0.919295
61.8103 133.384 175.272 -0.314661 0.236401 0.919295
62.7385 133.388 175.83 -0.28785 0.474947 0.831606
63.6709 134.085 175.755 -0.28785 0.474947 0.831606
62.7049 134.158 175.379 -0.28785 0.474947 0.831606
64.6228 134.029 175.215 0.595361 0.0187902 0.803239
63.8025 133.423 175.838 0.595361 0.0187902 0.803239
64.5814 133.11 175.268 0.595361 0.0187902 0.803239
63.6709 134.085 175.755 0.491714 0.20355 0.846632
63.8025 133.423 175.838 0.491714 0.20355 0.846632
64.6228 134.029 175.215 0.491714 0.20355 0.846632
64.9616 133.507 174.784 0.843692 0.113657 0.524658
64.8901 134.239 174.74 0.843692 0.113657 0.524658
64.6228 134.029 175.215 0.843692 0.113657 0.524658
64.5814 133.11 175.268 0.786479 -0.000368475 0.617617
64.9616 133.507 174.784 0.786479 -0.000368475 0.617617
64.6228 134.029 175.215 0.786479 -0.000368475 0.617617
61.3034 134.032 174.884 -0.445665 0.625467 0.640448
61.8495 134.233 175.067 -0.445665 0.625467 0.640448
61.5239 134.398 174.679 -0.445665 0.625467 0.640448
62.599 134.517 174.892 -0.194573 0.833056 0.51784
61.5239 134.398 174.679 -0.194573 0.833056 0.51784
61.8495 134.233 175.067 -0.194573 0.833056 0.51784
62.7049 134.158 175.379 -0.153044 0.779005 0.608053
62.599 134.517 174.892 -0.153044 0.779005 0.608053
61.8495 134.233 175.067 -0.153044 0.779005 0.608053
62.7049 134.158 175.379 -0.267089 0.548364 0.79244
63.6709 134.085 175.755 -0.267089 0.548364 0.79244
63.5903 134.399 175.51 -0.267089 0.548364 0.79244
62.7049 134.158 175.379 -0.291586 0.738327 0.608153
63.5903 134.399 175.51 -0.291586 0.738327 0.608153
62.599 134.517 174.892 -0.291586 0.738327 0.608153
62.599 134.517 174.892 -0.0308386 0.971584 0.234677
63.5903 134.399 175.51 -0.0308386 0.971584 0.234677
63.6001 134.567 174.816 -0.0308386 0.971584 0.234677
63.6709 134.085 175.755 0.410096 0.631336 0.658207
64.6228 134.029 175.215 0.410096 0.631336 0.658207
64.4463 134.425 174.946 0.410096 0.631336 0.658207
63.6709 134.085 175.755 0.417807 0.622405 0.661853
64.4463 134.425 174.946 0.417807 0.622405 0.661853
63.5903 134.399 175.51 0.417807 0.622405 0.661853
63.5903 134.399 175.51 0.126485 0.963732 0.234993
64.4463 134.425 174.946 0.126485 0.963732 0.234993
63.6001 134.567 174.816 0.126485 0.963732 0.234993
64.8901 134.239 174.74 0.528265 0.626279 0.573333
64.4463 134.425 174.946 0.528265 0.626279 0.573333
64.6228 134.029 175.215 0.528265 0.626279 0.573333
63.0559 132.98 175.941 -0.383139 -0.0475937 0.922464
63.0754 133.432 175.973 -0.383139 -0.0475937 0.922464
62.7385 133.388 175.83 -0.383139 -0.0475937 0.922464
63.0559 132.98 175.941 0.133267 0.0072543 0.991054
63.7937 132.945 175.842 0.133267 0.0072543 0.991054
63.8025 133.423 175.838 0.133267 0.0072543 0.991054
63.0754 133.432 175.973 0.181182 -0.0760476 0.980505
63.0559 132.98 175.941 0.181182 -0.0760476 0.980505
63.8025 133.423 175.838 0.181182 -0.0760476 0.980505
63.6709 134.085 175.755 -0.379197 0.584659 0.717206
62.7385 133.388 175.83 -0.379197 0.584659 0.717206
63.0754 133.432 175.973 -0.379197 0.584659 0.717206
63.6709 134.085 175.755 0.182175 0.157523 0.970566
63.0754 133.432 175.973 0.182175 0.157523 0.970566
63.8025 133.423 175.838 0.182175 0.157523 0.970566
3 0 1 2
3 3 4 5
3 6 7 8
3 9 10 11
3 12 13 14
3 15 16 17
3 18 19 20
3 21 22 23
3 24 25 26
3 27 28 29
3 30 31 32
3 33 34 35
3 36 37 38
3 39 40 41
3 42 43 44
3 45 46 47
3 48 49 50
3 51 52 53
3 54 55 56
3 57 58 59
3 60 61 62
3 63 64 65
3 66 67 68
3 69 70 71
3 72 73 74
3 75 76 77
3 78 79 80
3 81 82 83
3 84 85 86
3 87 88 89
3 90 91 92
3 93 94 95
3 96 97 98
3 99 100 101
3 102 103 104
3 105 106 107
3 108 109 110
3 111 112 113
3 114 115 116
3 117 118 119
3 120 121 122
3 123 124 125
3 126 127 128
3 129 130 131
3 132 133 134
3 135 136 137
3 138 139 140
3 141 142 143
3 144 145 146
3 147 148 149
3 150 151 152
3 153 154 155
3 156 157 158
3 159 160 161
3 162 163 164
3 165 166 167
3 168 169 170
3 171 172 173
3 174 175 176
3 177 178 179
3 180 181 182
3 183 184 185
3 186 187 188
3 189 190 191
3 192 193 194
3 195 196 197
3 198 199 200
3 201 202 203
3 204 205 206
3 207 208 209
3 210 211 212
3 213 214 215
3 216 217 218
3 219 220 221
3 222 223 224
3 225 226 227
3 228 229 230
3 231 232 233
3 234 235 236
3 237 238 239
3 240 241 242
3 243 244 245
3 246 247 248
3 249 250 251
3 252 253 254
3 255 256 257
3 258 259 260
3 261 262 263
3 264 265 266
3 267 268 269
3 270 271 272
3 273 274 275
3 276 277 278
3 279 280 281
3 282 283 284
3 285 286 287
3 288 289 290
3 291 292 293
3 294 295 296
3 297 298 299
3 300 301 302
3 303 304 305
3 306 307 308
3 309 310 311
3 312 313 314
3 315 316 317
3 318 319 320
3 321 322 323
3 324 325 326
3 327 328 329
3 330 331 332
3 333 334 335
3 336 337 338
3 339 340 341
3 342 343 344
3 345 346 347
3 348 349 350
3 351 352 353
3 354 355 356
3 357 358 359
3 360 361 362
3 363 364 365
3 366 367 368
3 369 370 371
3 372 373 374
3 375 376 377
3 378 379 380
3 381 382 383
3 384 385 386
3 387 388 389
3 390 391 392
3 393 394 395
3 396 397 398
3 399 400 401
3 402 403 404
3 405 406 407
3 408 409 410
3 411 412 413
3 414 415 416
3 417 418 419
3 420 421 422
3 423 424 425
3 426 427 428
3 429 430 431
3 432 433 434
3 435 436 437
3 438 439 440
3 441 442 443
3 444 445 446
3 447 448 449
3 450 451 452
3 453 454 455
3 456 457 458
3 459 460 461
3 462 463 464
3 465 466 467
3 468 469 470
3 471 472 473
3 474 475 476
3 477 478 479
3 480 481 482
3 483 484 485
3 486 487 488
3 489 490 491
3 492 493 494
3 495 496 497
3 498 499 500
3 501 502 503
3 504 505 506
3 507 508 509
3 510 511 512
3 513 514 515
3 516 517 518
3 519 520 521
3 522 523 524
3 525 526 527
3 528 529 530
3 531 532 533
3 534 535 536
3 537 538 539
3 540 541 542
3 543 544 545
3 546 547 548
3 549 550 551
3 552 553 554
3 555 556 557
3 558 559 560
3 561 562 563
3 564 565 566
3 567 568 569
3 570 571 572
3 573 574 575
3 576 577 578
3 579 580 581
3 582 583 584
3 585 586 587
3 588 589 590
3 591 592 593
3 594 595 596
3 597 598 599
3 600 601 602
3 603 604 605
3 606 607 608
3 609 610 611
3 612 613 614
3 615 616 617
3 618 619 620
3 621 622 623
3 624 625 626
3 627 628 629
3 630 631 632
3 633 634 635
3 636 637 638
3 639 640 641
