solid ascii
 facet normal -0.551592 -0.410975 -0.725842
  outer loop
   vertex 113.593 118.842 159.245
   vertex 113.435 118.008 159.837
   vertex 113.064 118.958 159.582
  endloop
 endfacet
 facet normal 0.185841 -0.201365 -0.961725
  outer loop
   vertex 113.593 118.842 159.245
   vertex 114.251 118.924 159.355
   vertex 114.142 118.34 159.456
  endloop
 endfacet
 facet normal -0.184508 -0.545618 -0.81747
  outer loop
   vertex 113.435 118.008 159.837
   vertex 113.593 118.842 159.245
   vertex 114.142 118.34 159.456
  endloop
 endfacet
 facet normal 0.706448 -0.246916 -0.663298
  outer loop
   vertex 114.142 118.34 159.456
   vertex 114.251 118.924 159.355
   vertex 114.424 118.62 159.652
  endloop
 endfacet
 facet normal -0.543212 -0.0448062 -0.838399
  outer loop
   vertex 113.391 119.64 159.333
   vertex 113.593 118.842 159.245
   vertex 113.064 118.958 159.582
  endloop
 endfacet
 facet normal -0.606184 0.00107377 -0.795323
  outer loop
   vertex 112.977 119.81 159.649
   vertex 113.391 119.64 159.333
   vertex 113.064 118.958 159.582
  endloop
 endfacet
 facet normal 0.162281 0.0207471 -0.986526
  outer loop
   vertex 114.251 118.924 159.355
   vertex 113.593 118.842 159.245
   vertex 114.074 119.69 159.342
  endloop
 endfacet
 facet normal 0.00395902 0.111419 -0.993766
  outer loop
   vertex 114.074 119.69 159.342
   vertex 113.593 118.842 159.245
   vertex 113.391 119.64 159.333
  endloop
 endfacet
 facet normal 0.861166 -0.00710961 -0.508275
  outer loop
   vertex 114.408 119.548 159.611
   vertex 114.424 118.62 159.652
   vertex 114.251 118.924 159.355
  endloop
 endfacet
 facet normal 0.65742 0.139405 -0.740517
  outer loop
   vertex 114.074 119.69 159.342
   vertex 114.408 119.548 159.611
   vertex 114.251 118.924 159.355
  endloop
 endfacet
 facet normal -0.425225 0.43635 -0.792958
  outer loop
   vertex 113.391 119.64 159.333
   vertex 112.977 119.81 159.649
   vertex 113.46 120.338 159.68
  endloop
 endfacet
 facet normal -0.0216537 0.446847 -0.894348
  outer loop
   vertex 114.074 119.69 159.342
   vertex 113.391 119.64 159.333
   vertex 113.46 120.338 159.68
  endloop
 endfacet
 facet normal -0.00942893 0.456105 -0.889876
  outer loop
   vertex 114.201 120.151 159.577
   vertex 114.074 119.69 159.342
   vertex 113.46 120.338 159.68
  endloop
 endfacet
 facet normal 0.664205 0.187048 -0.723771
  outer loop
   vertex 114.408 119.548 159.611
   vertex 114.074 119.69 159.342
   vertex 114.201 120.151 159.577
  endloop
 endfacet
 facet normal -0.295894 -0.861843 -0.411915
  outer loop
   vertex 113.435 118.008 159.837
   vertex 113.378 117.631 160.666
   vertex 112.95 117.869 160.477
  endloop
 endfacet
 facet normal -0.0981289 -0.899887 -0.42494
  outer loop
   vertex 113.435 118.008 159.837
   vertex 114.249 117.931 159.811
   vertex 114.125 117.673 160.387
  endloop
 endfacet
 facet normal -0.105471 -0.902593 -0.417376
  outer loop
   vertex 113.378 117.631 160.666
   vertex 113.435 118.008 159.837
   vertex 114.125 117.673 160.387
  endloop
 endfacet
 facet normal 0.617215 -0.758901 -0.207641
  outer loop
   vertex 114.125 117.673 160.387
   vertex 114.249 117.931 159.811
   vertex 114.463 117.929 160.456
  endloop
 endfacet
 facet normal -0.608281 -0.54265 -0.579245
  outer loop
   vertex 113.435 118.008 159.837
   vertex 112.95 117.869 160.477
   vertex 112.492 118.573 160.298
  endloop
 endfacet
 facet normal -0.588295 -0.416533 -0.693116
  outer loop
   vertex 113.435 118.008 159.837
   vertex 112.492 118.573 160.298
   vertex 113.064 118.958 159.582
  endloop
 endfacet
 facet normal -0.0863617 -0.66631 -0.740657
  outer loop
   vertex 114.249 117.931 159.811
   vertex 113.435 118.008 159.837
   vertex 114.142 118.34 159.456
  endloop
 endfacet
 facet normal 0.735605 -0.324267 -0.594758
  outer loop
   vertex 114.249 117.931 159.811
   vertex 114.142 118.34 159.456
   vertex 114.424 118.62 159.652
  endloop
 endfacet
 facet normal 0.905272 -0.299655 -0.301148
  outer loop
   vertex 114.249 117.931 159.811
   vertex 114.424 118.62 159.652
   vertex 114.463 117.929 160.456
  endloop
 endfacet
 facet normal 0.991017 -0.0742662 -0.111222
  outer loop
   vertex 114.463 117.929 160.456
   vertex 114.424 118.62 159.652
   vertex 114.527 118.797 160.446
  endloop
 endfacet
 facet normal -0.560778 -0.188079 -0.806321
  outer loop
   vertex 112.313 119.539 160.197
   vertex 112.492 118.573 160.298
   vertex 111.89 118.92 160.635
  endloop
 endfacet
 facet normal -0.527891 -0.220401 -0.820216
  outer loop
   vertex 111.608 119.753 160.594
   vertex 112.313 119.539 160.197
   vertex 111.89 118.92 160.635
  endloop
 endfacet
 facet normal -0.635847 -0.00377075 -0.771806
  outer loop
   vertex 113.064 118.958 159.582
   vertex 112.313 119.539 160.197
   vertex 112.977 119.81 159.649
  endloop
 endfacet
 facet normal -0.709761 -0.201976 -0.674867
  outer loop
   vertex 112.492 118.573 160.298
   vertex 112.313 119.539 160.197
   vertex 113.064 118.958 159.582
  endloop
 endfacet
 facet normal 0.991371 0.0120253 -0.130533
  outer loop
   vertex 114.424 118.62 159.652
   vertex 114.408 119.548 159.611
   vertex 114.527 118.797 160.446
  endloop
 endfacet
 facet normal 0.966153 0.244615 0.0819199
  outer loop
   vertex 114.527 118.797 160.446
   vertex 114.408 119.548 159.611
   vertex 114.231 119.987 160.378
  endloop
 endfacet
 facet normal -0.340406 0.427638 -0.837406
  outer loop
   vertex 112.313 119.539 160.197
   vertex 111.608 119.753 160.594
   vertex 112.42 120.27 160.527
  endloop
 endfacet
 facet normal -0.676201 0.382963 -0.629357
  outer loop
   vertex 112.977 119.81 159.649
   vertex 112.313 119.539 160.197
   vertex 112.42 120.27 160.527
  endloop
 endfacet
 facet normal -0.551585 0.542301 -0.633769
  outer loop
   vertex 112.977 119.81 159.649
   vertex 112.42 120.27 160.527
   vertex 113.46 120.338 159.68
  endloop
 endfacet
 facet normal -0.080015 0.996617 -0.0187556
  outer loop
   vertex 113.46 120.338 159.68
   vertex 112.42 120.27 160.527
   vertex 113.44 120.353 160.583
  endloop
 endfacet
 facet normal 0.264076 0.946965 0.183086
  outer loop
   vertex 114.201 120.151 159.577
   vertex 113.46 120.338 159.68
   vertex 114.231 119.987 160.378
  endloop
 endfacet
 facet normal 0.418215 0.908324 -0.00665538
  outer loop
   vertex 113.46 120.338 159.68
   vertex 113.44 120.353 160.583
   vertex 114.231 119.987 160.378
  endloop
 endfacet
 facet normal 0.944906 0.325924 0.0304267
  outer loop
   vertex 114.231 119.987 160.378
   vertex 114.408 119.548 159.611
   vertex 114.201 120.151 159.577
  endloop
 endfacet
 facet normal -0.371926 -0.887401 -0.272378
  outer loop
   vertex 112.333 117.846 161.393
   vertex 112.95 117.869 160.477
   vertex 113.378 117.631 160.666
  endloop
 endfacet
 facet normal -0.267503 -0.958224 -0.101241
  outer loop
   vertex 112.333 117.846 161.393
   vertex 113.378 117.631 160.666
   vertex 113.425 117.525 161.55
  endloop
 endfacet
 facet normal 0.0307077 -0.997271 -0.067146
  outer loop
   vertex 114.125 117.673 160.387
   vertex 114.18 117.617 161.239
   vertex 113.378 117.631 160.666
  endloop
 endfacet
 facet normal 0.0705924 -0.989916 -0.122813
  outer loop
   vertex 113.378 117.631 160.666
   vertex 114.18 117.617 161.239
   vertex 113.425 117.525 161.55
  endloop
 endfacet
 facet normal 0.613134 -0.784758 -0.0906785
  outer loop
   vertex 114.18 117.617 161.239
   vertex 114.125 117.673 160.387
   vertex 114.463 117.929 160.456
  endloop
 endfacet
 facet normal 0.70361 -0.710023 -0.0282875
  outer loop
   vertex 114.525 117.953 161.412
   vertex 114.18 117.617 161.239
   vertex 114.463 117.929 160.456
  endloop
 endfacet
 facet normal -0.587347 -0.649113 -0.483401
  outer loop
   vertex 111.331 118.737 161.238
   vertex 111.138 118.516 161.769
   vertex 110.87 118.956 161.505
  endloop
 endfacet
 facet normal -0.538865 -0.690244 -0.482895
  outer loop
   vertex 112.333 117.846 161.393
   vertex 111.138 118.516 161.769
   vertex 111.331 118.737 161.238
  endloop
 endfacet
 facet normal -0.463974 -0.630225 -0.622531
  outer loop
   vertex 112.333 117.846 161.393
   vertex 111.331 118.737 161.238
   vertex 111.89 118.92 160.635
  endloop
 endfacet
 facet normal -0.625447 -0.605118 -0.492593
  outer loop
   vertex 112.333 117.846 161.393
   vertex 111.89 118.92 160.635
   vertex 112.492 118.573 160.298
  endloop
 endfacet
 facet normal -0.679614 -0.56181 -0.471693
  outer loop
   vertex 112.95 117.869 160.477
   vertex 112.333 117.846 161.393
   vertex 112.492 118.573 160.298
  endloop
 endfacet
 facet normal 0.995229 -0.074069 -0.0635111
  outer loop
   vertex 114.463 117.929 160.456
   vertex 114.527 118.797 160.446
   vertex 114.525 117.953 161.412
  endloop
 endfacet
 facet normal 0.999999 7.76511e-05 0.00134776
  outer loop
   vertex 114.525 117.953 161.412
   vertex 114.527 118.797 160.446
   vertex 114.525 118.856 161.434
  endloop
 endfacet
 facet normal -0.58969 -0.365726 -0.720077
  outer loop
   vertex 111.165 119.511 160.98
   vertex 111.331 118.737 161.238
   vertex 110.87 118.956 161.505
  endloop
 endfacet
 facet normal -0.771525 -0.168422 -0.613501
  outer loop
   vertex 110.63 119.564 161.639
   vertex 111.165 119.511 160.98
   vertex 110.87 118.956 161.505
  endloop
 endfacet
 facet normal -0.5655 -0.231728 -0.791525
  outer loop
   vertex 111.89 118.92 160.635
   vertex 111.165 119.511 160.98
   vertex 111.608 119.753 160.594
  endloop
 endfacet
 facet normal -0.625034 -0.363523 -0.690785
  outer loop
   vertex 111.331 118.737 161.238
   vertex 111.165 119.511 160.98
   vertex 111.89 118.92 160.635
  endloop
 endfacet
 facet normal 0.970609 0.24031 -0.0130298
  outer loop
   vertex 114.527 118.797 160.446
   vertex 114.231 119.987 160.378
   vertex 114.525 118.856 161.434
  endloop
 endfacet
 facet normal 0.946841 0.313521 0.0720876
  outer loop
   vertex 114.525 118.856 161.434
   vertex 114.231 119.987 160.378
   vertex 114.195 119.834 161.523
  endloop
 endfacet
 facet normal -0.643117 0.518228 -0.563773
  outer loop
   vertex 111.165 119.511 160.98
   vertex 110.63 119.564 161.639
   vertex 111.348 120.071 161.286
  endloop
 endfacet
 facet normal -0.708229 0.502385 -0.496004
  outer loop
   vertex 111.608 119.753 160.594
   vertex 111.165 119.511 160.98
   vertex 111.348 120.071 161.286
  endloop
 endfacet
 facet normal -0.491356 0.707076 -0.50854
  outer loop
   vertex 111.608 119.753 160.594
   vertex 111.348 120.071 161.286
   vertex 112.42 120.27 160.527
  endloop
 endfacet
 facet normal -0.165696 0.98587 0.0245894
  outer loop
   vertex 112.42 120.27 160.527
   vertex 111.348 120.071 161.286
   vertex 112.286 120.221 161.6
  endloop
 endfacet
 facet normal -0.0882467 0.984889 0.149015
  outer loop
   vertex 113.44 120.353 160.583
   vertex 112.42 120.27 160.527
   vertex 113.284 120.206 161.459
  endloop
 endfacet
 facet normal 0.0211314 0.998595 0.048586
  outer loop
   vertex 112.42 120.27 160.527
   vertex 112.286 120.221 161.6
   vertex 113.284 120.206 161.459
  endloop
 endfacet
 facet normal 0.444121 0.886 0.133266
  outer loop
   vertex 114.231 119.987 160.378
   vertex 113.44 120.353 160.583
   vertex 114.195 119.834 161.523
  endloop
 endfacet
 facet normal 0.356813 0.908851 0.216043
  outer loop
   vertex 113.44 120.353 160.583
   vertex 113.284 120.206 161.459
   vertex 114.195 119.834 161.523
  endloop
 endfacet
 facet normal -0.537324 -0.826954 -0.165621
  outer loop
   vertex 112.333 117.846 161.393
   vertex 112.465 117.552 162.433
   vertex 111.945 117.92 162.284
  endloop
 endfacet
 facet normal -0.242715 -0.940499 -0.237806
  outer loop
   vertex 113.425 117.525 161.55
   vertex 113.306 117.355 162.343
   vertex 112.333 117.846 161.393
  endloop
 endfacet
 facet normal -0.245631 -0.940493 -0.234815
  outer loop
   vertex 112.333 117.846 161.393
   vertex 113.306 117.355 162.343
   vertex 112.465 117.552 162.433
  endloop
 endfacet
 facet normal 0.124815 -0.992146 0.0082679
  outer loop
   vertex 114.18 117.617 161.239
   vertex 114.199 117.627 162.171
   vertex 113.425 117.525 161.55
  endloop
 endfacet
 facet normal 0.258701 -0.951718 -0.165245
  outer loop
   vertex 113.425 117.525 161.55
   vertex 114.199 117.627 162.171
   vertex 113.306 117.355 162.343
  endloop
 endfacet
 facet normal 0.698267 -0.715809 -0.00642229
  outer loop
   vertex 114.199 117.627 162.171
   vertex 114.18 117.617 161.239
   vertex 114.525 117.953 161.412
  endloop
 endfacet
 facet normal 0.720431 -0.693409 0.0127287
  outer loop
   vertex 114.61 118.057 162.309
   vertex 114.199 117.627 162.171
   vertex 114.525 117.953 161.412
  endloop
 endfacet
 facet normal -0.623271 -0.64946 -0.435587
  outer loop
   vertex 110.397 118.895 162.17
   vertex 110.435 118.713 162.386
   vertex 110.254 118.851 162.44
  endloop
 endfacet
 facet normal -0.590981 -0.648863 -0.479289
  outer loop
   vertex 110.397 118.895 162.17
   vertex 110.87 118.956 161.505
   vertex 111.138 118.516 161.769
  endloop
 endfacet
 facet normal -0.588244 -0.667284 -0.456838
  outer loop
   vertex 110.397 118.895 162.17
   vertex 111.138 118.516 161.769
   vertex 110.435 118.713 162.386
  endloop
 endfacet
 facet normal -0.269242 -0.963072 0.00074656
  outer loop
   vertex 110.435 118.713 162.386
   vertex 111.138 118.516 161.769
   vertex 111.261 118.482 162.412
  endloop
 endfacet
 facet normal -0.520068 -0.83956 -0.157063
  outer loop
   vertex 111.945 117.92 162.284
   vertex 111.138 118.516 161.769
   vertex 112.333 117.846 161.393
  endloop
 endfacet
 facet normal -0.624364 -0.777168 0.078608
  outer loop
   vertex 111.261 118.482 162.412
   vertex 111.138 118.516 161.769
   vertex 111.945 117.92 162.284
  endloop
 endfacet
 facet normal 0.995601 0.00234117 -0.0936691
  outer loop
   vertex 114.525 117.953 161.412
   vertex 114.525 118.856 161.434
   vertex 114.61 118.057 162.309
  endloop
 endfacet
 facet normal 0.979753 0.185525 0.0752623
  outer loop
   vertex 114.61 118.057 162.309
   vertex 114.525 118.856 161.434
   vertex 114.438 118.965 162.299
  endloop
 endfacet
 facet normal -0.793161 -0.18422 -0.580482
  outer loop
   vertex 110.397 118.895 162.17
   vertex 110.63 119.564 161.639
   vertex 110.87 118.956 161.505
  endloop
 endfacet
 facet normal -0.599946 0.615067 0.511623
  outer loop
   vertex 110.397 118.895 162.17
   vertex 110.903 119.232 162.358
   vertex 110.63 119.564 161.639
  endloop
 endfacet
 facet normal -0.514121 0.846939 -0.13555
  outer loop
   vertex 110.397 118.895 162.17
   vertex 110.254 118.851 162.44
   vertex 110.903 119.232 162.358
  endloop
 endfacet
 facet normal -0.461108 0.725982 0.510225
  outer loop
   vertex 111.402 119.778 162.032
   vertex 110.63 119.564 161.639
   vertex 110.903 119.232 162.358
  endloop
 endfacet
 facet normal -0.198376 0.596463 0.777739
  outer loop
   vertex 111.402 119.778 162.032
   vertex 111.862 119.391 162.446
   vertex 112.525 119.723 162.36
  endloop
 endfacet
 facet normal -0.172832 0.616553 0.768109
  outer loop
   vertex 110.903 119.232 162.358
   vertex 111.862 119.391 162.446
   vertex 111.402 119.778 162.032
  endloop
 endfacet
 facet normal 0.947389 0.315198 0.0557158
  outer loop
   vertex 114.525 118.856 161.434
   vertex 114.195 119.834 161.523
   vertex 114.438 118.965 162.299
  endloop
 endfacet
 facet normal 0.978769 0.162867 -0.12444
  outer loop
   vertex 114.438 118.965 162.299
   vertex 114.195 119.834 161.523
   vertex 114.327 119.638 162.308
  endloop
 endfacet
 facet normal -0.414596 0.836322 0.358715
  outer loop
   vertex 110.63 119.564 161.639
   vertex 111.402 119.778 162.032
   vertex 111.348 120.071 161.286
  endloop
 endfacet
 facet normal -0.265802 0.890501 0.369266
  outer loop
   vertex 112.286 120.221 161.6
   vertex 111.348 120.071 161.286
   vertex 111.402 119.778 162.032
  endloop
 endfacet
 facet normal -0.12745 0.810955 0.571059
  outer loop
   vertex 112.525 119.723 162.36
   vertex 112.286 120.221 161.6
   vertex 111.402 119.778 162.032
  endloop
 endfacet
 facet normal -0.193692 0.79174 0.579337
  outer loop
   vertex 112.525 119.723 162.36
   vertex 113.187 119.977 162.235
   vertex 112.286 120.221 161.6
  endloop
 endfacet
 facet normal 0.054645 0.955637 0.289434
  outer loop
   vertex 112.286 120.221 161.6
   vertex 113.187 119.977 162.235
   vertex 113.284 120.206 161.459
  endloop
 endfacet
 facet normal 0.370907 0.923368 0.0990897
  outer loop
   vertex 114.195 119.834 161.523
   vertex 113.284 120.206 161.459
   vertex 114.01 119.827 162.272
  endloop
 endfacet
 facet normal 0.157737 0.941425 0.298056
  outer loop
   vertex 113.284 120.206 161.459
   vertex 113.187 119.977 162.235
   vertex 114.01 119.827 162.272
  endloop
 endfacet
 facet normal 0.497246 0.857869 0.12964
  outer loop
   vertex 114.01 119.827 162.272
   vertex 114.327 119.638 162.308
   vertex 114.195 119.834 161.523
  endloop
 endfacet
 facet normal -0.57788 -0.587069 0.566926
  outer loop
   vertex 112.465 117.552 162.433
   vertex 112.222 118.076 162.728
   vertex 111.945 117.92 162.284
  endloop
 endfacet
 facet normal -0.0979534 -0.728604 0.677895
  outer loop
   vertex 112.465 117.552 162.433
   vertex 113.306 117.355 162.343
   vertex 113.288 117.86 162.883
  endloop
 endfacet
 facet normal -0.22895 -0.555768 0.79919
  outer loop
   vertex 112.222 118.076 162.728
   vertex 112.465 117.552 162.433
   vertex 113.288 117.86 162.883
  endloop
 endfacet
 facet normal 0.330834 -0.895528 0.297621
  outer loop
   vertex 113.306 117.355 162.343
   vertex 114.199 117.627 162.171
   vertex 114.132 117.784 162.716
  endloop
 endfacet
 facet normal 0.069665 -0.727505 0.682556
  outer loop
   vertex 113.288 117.86 162.883
   vertex 113.306 117.355 162.343
   vertex 114.132 117.784 162.716
  endloop
 endfacet
 facet normal 0.646048 -0.708979 0.282791
  outer loop
   vertex 114.199 117.627 162.171
   vertex 114.61 118.057 162.309
   vertex 114.132 117.784 162.716
  endloop
 endfacet
 facet normal -0.308279 -0.667931 0.677371
  outer loop
   vertex 110.435 118.713 162.386
   vertex 110.402 118.84 162.496
   vertex 110.254 118.851 162.44
  endloop
 endfacet
 facet normal -0.138045 -0.39287 0.909174
  outer loop
   vertex 110.435 118.713 162.386
   vertex 111.261 118.482 162.412
   vertex 111.232 118.782 162.537
  endloop
 endfacet
 facet normal -0.0828561 -0.664346 0.742819
  outer loop
   vertex 110.402 118.84 162.496
   vertex 110.435 118.713 162.386
   vertex 111.232 118.782 162.537
  endloop
 endfacet
 facet normal -0.472214 -0.696966 0.539677
  outer loop
   vertex 111.261 118.482 162.412
   vertex 111.945 117.92 162.284
   vertex 112.222 118.076 162.728
  endloop
 endfacet
 facet normal -0.430798 -0.382779 0.817247
  outer loop
   vertex 111.261 118.482 162.412
   vertex 112.222 118.076 162.728
   vertex 111.232 118.782 162.537
  endloop
 endfacet
 facet normal -0.0947478 0.133835 0.986464
  outer loop
   vertex 111.232 118.782 162.537
   vertex 112.222 118.076 162.728
   vertex 112.345 118.943 162.622
  endloop
 endfacet
 facet normal -0.142277 0.0076772 0.989797
  outer loop
   vertex 113.288 117.86 162.883
   vertex 113.281 118.746 162.875
   vertex 112.222 118.076 162.728
  endloop
 endfacet
 facet normal -0.228348 0.149737 0.961996
  outer loop
   vertex 113.281 118.746 162.875
   vertex 112.345 118.943 162.622
   vertex 112.222 118.076 162.728
  endloop
 endfacet
 facet normal 0.187511 -0.0702748 0.979745
  outer loop
   vertex 114.132 117.784 162.716
   vertex 114.175 118.559 162.763
   vertex 113.288 117.86 162.883
  endloop
 endfacet
 facet normal 0.12605 0.00982786 0.991975
  outer loop
   vertex 114.175 118.559 162.763
   vertex 113.281 118.746 162.875
   vertex 113.288 117.86 162.883
  endloop
 endfacet
 facet normal 0.794367 0.155898 0.587091
  outer loop
   vertex 114.61 118.057 162.309
   vertex 114.438 118.965 162.299
   vertex 114.175 118.559 162.763
  endloop
 endfacet
 facet normal 0.673427 -0.0823912 0.734648
  outer loop
   vertex 114.132 117.784 162.716
   vertex 114.61 118.057 162.309
   vertex 114.175 118.559 162.763
  endloop
 endfacet
 facet normal -0.247132 0.586858 0.771054
  outer loop
   vertex 110.903 119.232 162.358
   vertex 110.254 118.851 162.44
   vertex 110.402 118.84 162.496
  endloop
 endfacet
 facet normal -0.0218931 0.356319 0.934108
  outer loop
   vertex 111.232 118.782 162.537
   vertex 110.903 119.232 162.358
   vertex 110.402 118.84 162.496
  endloop
 endfacet
 facet normal -0.133593 0.280896 0.950395
  outer loop
   vertex 111.862 119.391 162.446
   vertex 110.903 119.232 162.358
   vertex 111.232 118.782 162.537
  endloop
 endfacet
 facet normal -0.110665 0.258595 0.959626
  outer loop
   vertex 112.345 118.943 162.622
   vertex 111.862 119.391 162.446
   vertex 111.232 118.782 162.537
  endloop
 endfacet
 facet normal -0.0420309 0.326405 0.944295
  outer loop
   vertex 112.525 119.723 162.36
   vertex 111.862 119.391 162.446
   vertex 112.345 118.943 162.622
  endloop
 endfacet
 facet normal -0.198966 0.352657 0.914355
  outer loop
   vertex 112.525 119.723 162.36
   vertex 112.345 118.943 162.622
   vertex 113.301 119.583 162.584
  endloop
 endfacet
 facet normal -0.181659 0.327555 0.927204
  outer loop
   vertex 113.301 119.583 162.584
   vertex 112.345 118.943 162.622
   vertex 113.281 118.746 162.875
  endloop
 endfacet
 facet normal 0.168516 0.232754 0.957825
  outer loop
   vertex 114.175 118.559 162.763
   vertex 114.132 119.442 162.556
   vertex 113.281 118.746 162.875
  endloop
 endfacet
 facet normal 0.086152 0.325915 0.941465
  outer loop
   vertex 114.132 119.442 162.556
   vertex 113.301 119.583 162.584
   vertex 113.281 118.746 162.875
  endloop
 endfacet
 facet normal 0.735115 0.11244 0.668554
  outer loop
   vertex 114.438 118.965 162.299
   vertex 114.327 119.638 162.308
   vertex 114.132 119.442 162.556
  endloop
 endfacet
 facet normal 0.780348 0.178838 0.599228
  outer loop
   vertex 114.175 118.559 162.763
   vertex 114.438 118.965 162.299
   vertex 114.132 119.442 162.556
  endloop
 endfacet
 facet normal -0.102074 0.64226 0.75966
  outer loop
   vertex 112.525 119.723 162.36
   vertex 113.301 119.583 162.584
   vertex 113.187 119.977 162.235
  endloop
 endfacet
 facet normal 0.0892725 0.674233 0.733103
  outer loop
   vertex 114.01 119.827 162.272
   vertex 113.187 119.977 162.235
   vertex 113.301 119.583 162.584
  endloop
 endfacet
 facet normal 0.129496 0.614785 0.777991
  outer loop
   vertex 114.132 119.442 162.556
   vertex 114.01 119.827 162.272
   vertex 113.301 119.583 162.584
  endloop
 endfacet
 facet normal 0.29191 0.625638 0.72344
  outer loop
   vertex 114.327 119.638 162.308
   vertex 114.01 119.827 162.272
   vertex 114.132 119.442 162.556
  endloop
 endfacet
endsolid
