ply
format ascii 1.0
element vertex 78
property float x
property float y
property float z
property float nx
property float ny
property float nz
element face 26
property list uint uint vertex_indices
end_header
44.324 137.667 156.981 -0.253415 -0.866053 -0.430967
44.2463 137.482 157.397 -0.253415 -0.866053 -0.430967
43.7666 137.656 157.33 -0.253415 -0.866053 -0.430967
44.324 137.667 156.981 -0.0582153 -0.869426 -0.490622
45.1772 137.616 156.969 -0.0582153 -0.869426 -0.490622
44.9765 137.456 157.277 -0.0582153 -0.869426 -0.490622
44.2463 137.482 157.397 -0.101459 -0.902417 -0.418747
44.324 137.667 156.981 -0.101459 -0.902417 -0.418747
44.9765 137.456 157.277 -0.101459 -0.902417 -0.418747
45.1772 137.616 156.969 0.429992 -0.373943 -0.82175
45.7576 137.721 157.225 0.429992 -0.373943 -0.82175
45.7734 137.52 157.324 0.429992 -0.373943 -0.82175
44.9765 137.456 157.277 0.0974295 -0.907341 -0.40895
45.1772 137.616 156.969 0.0974295 -0.907341 -0.40895
45.7734 137.52 157.324 0.0974295 -0.907341 -0.40895
45.7734 137.52 157.324 0.288714 -0.407248 -0.866483
45.7576 137.721 157.225 0.288714 -0.407248 -0.866483
45.9452 137.672 157.31 0.288714 -0.407248 -0.866483
44.3391 138.168 157.316 -0.466835 0.500968 -0.728764
44.324 137.667 156.981 -0.466835 0.500968 -0.728764
43.7666 137.656 157.33 -0.466835 0.500968 -0.728764
45.1772 137.616 156.969 0.00822696 0.366149 -0.93052
44.324 137.667 156.981 0.00822696 0.366149 -0.93052
45.0101 138.129 157.169 0.00822696 0.366149 -0.93052
45.0101 138.129 157.169 -0.147423 0.552545 -0.820342
44.324 137.667 156.981 -0.147423 0.552545 -0.820342
44.3391 138.168 157.316 -0.147423 0.552545 -0.820342
45.3142 138.173 157.308 0.457139 0.572944 -0.680264
45.9452 137.672 157.31 0.457139 0.572944 -0.680264
45.7576 137.721 157.225 0.457139 0.572944 -0.680264
45.3142 138.173 157.308 0.313072 0.459488 -0.831178
45.7576 137.721 157.225 0.313072 0.459488 -0.831178
45.0101 138.129 157.169 0.313072 0.459488 -0.831178
45.0101 138.129 157.169 0.298673 0.430237 -0.851875
45.7576 137.721 157.225 0.298673 0.430237 -0.851875
45.1772 137.616 156.969 0.298673 0.430237 -0.851875
45.3142 138.173 157.308 -0.00749779 0.956772 -0.290741
45.0101 138.129 157.169 -0.00749779 0.956772 -0.290741
44.3391 138.168 157.316 -0.00749779 0.956772 -0.290741
44.2463 137.482 157.397 -0.35408 -0.775027 0.523413
44.2498 137.71 157.737 -0.35408 -0.775027 0.523413
43.7666 137.656 157.33 -0.35408 -0.775027 0.523413
45.0554 137.592 157.775 -0.145753 -0.820944 0.552094
44.2498 137.71 157.737 -0.145753 -0.820944 0.552094
44.2463 137.482 157.397 -0.145753 -0.820944 0.552094
45.0554 137.592 157.775 0.00907141 -0.96493 0.262349
44.2463 137.482 157.397 0.00907141 -0.96493 0.262349
44.9765 137.456 157.277 0.00907141 -0.96493 0.262349
45.7448 137.719 157.438 0.461694 -0.388257 0.797556
45.0554 137.592 157.775 0.461694 -0.388257 0.797556
45.7734 137.52 157.324 0.461694 -0.388257 0.797556
45.7734 137.52 157.324 0.0624013 -0.965196 0.253973
45.0554 137.592 157.775 0.0624013 -0.965196 0.253973
44.9765 137.456 157.277 0.0624013 -0.965196 0.253973
45.7734 137.52 157.324 0.423832 -0.401784 0.811749
45.9452 137.672 157.31 0.423832 -0.401784 0.811749
45.7448 137.719 157.438 0.423832 -0.401784 0.811749
43.7666 137.656 157.33 -0.543449 0.623438 0.562129
44.2498 137.71 157.737 -0.543449 0.623438 0.562129
44.3391 138.168 157.316 -0.543449 0.623438 0.562129
45.0554 137.592 157.775 0.0298913 0.484834 0.874095
44.992 138.13 157.479 0.0298913 0.484834 0.874095
44.2498 137.71 157.737 0.0298913 0.484834 0.874095
44.992 138.13 157.479 -0.138762 0.685224 0.714992
44.3391 138.168 157.316 -0.138762 0.685224 0.714992
44.2498 137.71 157.737 -0.138762 0.685224 0.714992
45.7448 137.719 157.438 0.310523 0.486385 0.816703
44.992 138.13 157.479 0.310523 0.486385 0.816703
45.0554 137.592 157.775 0.310523 0.486385 0.816703
45.7448 137.719 157.438 0.337113 0.5397 0.771413
45.3142 138.173 157.308 0.337113 0.5397 0.771413
44.992 138.13 157.479 0.337113 0.5397 0.771413
45.7448 137.719 157.438 0.510928 0.646062 0.567059
45.9452 137.672 157.31 0.510928 0.646062 0.567059
45.3142 138.173 157.308 0.510928 0.646062 0.567059
44.992 138.13 157.479 -0.00327966 0.970555 0.240857
45.3142 138.173 157.308 -0.00327966 0.970555 0.240857
44.3391 138.168 157.316 -0.00327966 0.970555 0.240857
3 0 1 2
3 3 4 5
3 6 7 8
3 9 10 11
3 12 13 14
3 15 16 17
3 18 19 20
3 21 22 23
3 24 25 26
3 27 28 29
3 30 31 32
3 33 34 35
3 36 37 38
3 39 40 41
3 42 43 44
3 45 46 47
3 48 49 50
3 51 52 53
3 54 55 56
3 57 58 59
3 60 61 62
3 63 64 65
3 66 67 68
3 69 70 71
3 72 73 74
3 75 76 77
