solid ascii
 facet normal -0.566746 -0.400554 -0.719969
  outer loop
   vertex 99.0872 125.278 189.48
   vertex 99.0126 125.063 189.658
   vertex 98.7901 125.328 189.686
  endloop
 endfacet
 facet normal 0.755721 -0.553267 -0.350403
  outer loop
   vertex 99.0126 125.063 189.658
   vertex 99.0872 125.278 189.48
   vertex 99.243 125.286 189.803
  endloop
 endfacet
 facet normal -0.580781 -0.211485 -0.786109
  outer loop
   vertex 98.9882 125.846 189.4
   vertex 99.0872 125.278 189.48
   vertex 98.7901 125.328 189.686
  endloop
 endfacet
 facet normal -0.699882 -0.120679 -0.70399
  outer loop
   vertex 98.5786 125.971 189.786
   vertex 98.9882 125.846 189.4
   vertex 98.7901 125.328 189.686
  endloop
 endfacet
 facet normal 0.825391 -0.410581 -0.387495
  outer loop
   vertex 99.4518 125.839 189.662
   vertex 99.243 125.286 189.803
   vertex 99.0872 125.278 189.48
  endloop
 endfacet
 facet normal 0.490649 -0.0367343 -0.870582
  outer loop
   vertex 98.9882 125.846 189.4
   vertex 99.4518 125.839 189.662
   vertex 99.0872 125.278 189.48
  endloop
 endfacet
 facet normal -0.379853 0.682924 -0.62396
  outer loop
   vertex 98.9882 125.846 189.4
   vertex 98.5786 125.971 189.786
   vertex 99.0403 126.223 189.781
  endloop
 endfacet
 facet normal 0.389891 0.627219 -0.674226
  outer loop
   vertex 99.4518 125.839 189.662
   vertex 98.9882 125.846 189.4
   vertex 99.0403 126.223 189.781
  endloop
 endfacet
 facet normal -0.745923 -0.644817 0.166763
  outer loop
   vertex 99.0126 125.063 189.658
   vertex 98.9485 125.227 190.006
   vertex 98.7901 125.328 189.686
  endloop
 endfacet
 facet normal 0.459612 -0.767367 0.447108
  outer loop
   vertex 99.0126 125.063 189.658
   vertex 99.243 125.286 189.803
   vertex 98.9485 125.227 190.006
  endloop
 endfacet
 facet normal -0.512926 -0.603204 0.61078
  outer loop
   vertex 98.9485 125.227 190.006
   vertex 99.013 125.568 190.396
   vertex 98.6462 125.82 190.337
  endloop
 endfacet
 facet normal -0.808698 -0.541164 0.230538
  outer loop
   vertex 98.9485 125.227 190.006
   vertex 98.6462 125.82 190.337
   vertex 98.7901 125.328 189.686
  endloop
 endfacet
 facet normal -0.948138 -0.316451 0.029875
  outer loop
   vertex 98.7901 125.328 189.686
   vertex 98.6462 125.82 190.337
   vertex 98.5786 125.971 189.786
  endloop
 endfacet
 facet normal 0.496577 -0.693122 0.522487
  outer loop
   vertex 99.013 125.568 190.396
   vertex 98.9485 125.227 190.006
   vertex 99.243 125.286 189.803
  endloop
 endfacet
 facet normal 0.769731 -0.406704 0.492043
  outer loop
   vertex 99.013 125.568 190.396
   vertex 99.243 125.286 189.803
   vertex 99.2655 125.935 190.305
  endloop
 endfacet
 facet normal 0.914286 -0.266972 0.304643
  outer loop
   vertex 99.2655 125.935 190.305
   vertex 99.243 125.286 189.803
   vertex 99.4518 125.839 189.662
  endloop
 endfacet
 facet normal -0.783809 0.567895 0.251274
  outer loop
   vertex 98.5786 125.971 189.786
   vertex 98.6462 125.82 190.337
   vertex 98.9113 126.178 190.355
  endloop
 endfacet
 facet normal -0.479447 0.876685 -0.0394216
  outer loop
   vertex 99.0403 126.223 189.781
   vertex 98.5786 125.971 189.786
   vertex 98.9113 126.178 190.355
  endloop
 endfacet
 facet normal 0.693763 0.713993 0.094377
  outer loop
   vertex 99.2655 125.935 190.305
   vertex 99.4518 125.839 189.662
   vertex 99.0403 126.223 189.781
  endloop
 endfacet
 facet normal 0.573971 0.796266 0.191095
  outer loop
   vertex 98.9113 126.178 190.355
   vertex 99.2655 125.935 190.305
   vertex 99.0403 126.223 189.781
  endloop
 endfacet
 facet normal -0.434252 -0.448877 0.780983
  outer loop
   vertex 99.013 125.568 190.396
   vertex 98.9703 125.962 190.599
   vertex 98.6462 125.82 190.337
  endloop
 endfacet
 facet normal 0.663694 -0.283893 0.692036
  outer loop
   vertex 99.013 125.568 190.396
   vertex 99.2655 125.935 190.305
   vertex 98.9703 125.962 190.599
  endloop
 endfacet
 facet normal -0.669575 0.467411 0.577232
  outer loop
   vertex 98.6462 125.82 190.337
   vertex 98.9703 125.962 190.599
   vertex 98.9113 126.178 190.355
  endloop
 endfacet
 facet normal 0.541403 0.689165 0.481596
  outer loop
   vertex 99.2655 125.935 190.305
   vertex 98.9113 126.178 190.355
   vertex 98.9703 125.962 190.599
  endloop
 endfacet
endsolid
