ply
format ascii 1.0
element vertex 546
property float x
property float y
property float z
property float nx
property float ny
property float nz
element face 182
property list uint uint vertex_indices
end_header
55.364 104.201 149.255 -0.412776 0.175525 -0.89376
55.1592 103.823 149.275 -0.412776 0.175525 -0.89376
55.0202 104.135 149.4 -0.412776 0.175525 -0.89376
55.9633 103.297 149.399 0.0873645 -0.100388 -0.991105
55.1592 103.823 149.275 0.0873645 -0.100388 -0.991105
55.364 104.201 149.255 0.0873645 -0.100388 -0.991105
55.9633 103.297 149.399 0.0819257 -0.104006 -0.991197
55.364 104.201 149.255 0.0819257 -0.104006 -0.991197
56.2158 104.071 149.339 0.0819257 -0.104006 -0.991197
56.0458 104.922 149.837 0.162624 0.522096 -0.837239
56.2158 104.071 149.339 0.162624 0.522096 -0.837239
55.364 104.201 149.255 0.162624 0.522096 -0.837239
55.188 103.279 149.7 -0.685857 -0.68596 -0.243021
55.2938 103.01 150.162 -0.685857 -0.68596 -0.243021
54.9457 103.444 149.918 -0.685857 -0.68596 -0.243021
55.188 103.279 149.7 -0.162266 -0.868049 -0.469214
55.9633 103.297 149.399 -0.162266 -0.868049 -0.469214
55.2938 103.01 150.162 -0.162266 -0.868049 -0.469214
55.2938 103.01 150.162 -0.277628 -0.793026 -0.542247
55.9633 103.297 149.399 -0.277628 -0.793026 -0.542247
56.2119 102.698 150.147 -0.277628 -0.793026 -0.542247
55.9633 103.297 149.399 0.404829 -0.378455 -0.832398
56.9722 103.439 149.825 0.404829 -0.378455 -0.832398
56.9143 102.94 150.024 0.404829 -0.378455 -0.832398
55.9633 103.297 149.399 0.144208 -0.748753 -0.646972
56.9143 102.94 150.024 0.144208 -0.748753 -0.646972
56.2119 102.698 150.147 0.144208 -0.748753 -0.646972
56.9143 102.94 150.024 0.609939 -0.353233 -0.709367
56.9722 103.439 149.825 0.609939 -0.353233 -0.709367
57.3373 103.236 150.24 0.609939 -0.353233 -0.709367
55.1592 103.823 149.275 -0.747918 -0.432915 -0.503193
55.188 103.279 149.7 -0.747918 -0.432915 -0.503193
54.9457 103.444 149.918 -0.747918 -0.432915 -0.503193
55.1592 103.823 149.275 -0.879035 -0.221523 -0.422166
54.9457 103.444 149.918 -0.879035 -0.221523 -0.422166
55.0202 104.135 149.4 -0.879035 -0.221523 -0.422166
55.0202 104.135 149.4 -0.981655 -0.0346454 -0.187493
54.9457 103.444 149.918 -0.981655 -0.0346454 -0.187493
54.8588 104.258 150.223 -0.981655 -0.0346454 -0.187493
55.9633 103.297 149.399 -0.277273 -0.60077 -0.749797
55.188 103.279 149.7 -0.277273 -0.60077 -0.749797
55.1592 103.823 149.275 -0.277273 -0.60077 -0.749797
56.9722 103.439 149.825 0.576661 0.0637399 -0.814493
56.2158 104.071 149.339 0.576661 0.0637399 -0.814493
56.9656 104.358 149.892 0.576661 0.0637399 -0.814493
55.9633 103.297 149.399 0.404901 -0.201589 -0.891861
56.2158 104.071 149.339 0.404901 -0.201589 -0.891861
56.9722 103.439 149.825 0.404901 -0.201589 -0.891861
57.344 104.004 150.225 0.746228 -0.019259 -0.665412
57.3373 103.236 150.24 0.746228 -0.019259 -0.665412
56.9722 103.439 149.825 0.746228 -0.019259 -0.665412
56.9656 104.358 149.892 0.689889 0.0577626 -0.721607
57.344 104.004 150.225 0.689889 0.0577626 -0.721607
56.9722 103.439 149.825 0.689889 0.0577626 -0.721607
55.0202 104.135 149.4 -0.898892 0.371697 -0.232022
54.8588 104.258 150.223 -0.898892 0.371697 -0.232022
55.1749 104.804 149.873 -0.898892 0.371697 -0.232022
55.364 104.201 149.255 -0.409232 0.58786 -0.697818
55.0202 104.135 149.4 -0.409232 0.58786 -0.697818
55.1749 104.804 149.873 -0.409232 0.58786 -0.697818
56.0458 104.922 149.837 -0.108913 0.544085 -0.831931
55.1749 104.804 149.873 -0.108913 0.544085 -0.831931
55.4919 105.142 150.053 -0.108913 0.544085 -0.831931
56.0458 104.922 149.837 -0.123764 0.691588 -0.71161
55.364 104.201 149.255 -0.123764 0.691588 -0.71161
55.1749 104.804 149.873 -0.123764 0.691588 -0.71161
56.0458 104.922 149.837 0.367179 0.5231 -0.76912
56.9656 104.358 149.892 0.367179 0.5231 -0.76912
56.2158 104.071 149.339 0.367179 0.5231 -0.76912
56.0458 104.922 149.837 0.252491 0.321943 -0.91247
56.9486 105.279 150.212 0.252491 0.321943 -0.91247
56.9656 104.358 149.892 0.252491 0.321943 -0.91247
57.3177 104.965 150.356 0.714493 0.113369 -0.690396
57.344 104.004 150.225 0.714493 0.113369 -0.690396
56.9656 104.358 149.892 0.714493 0.113369 -0.690396
56.9486 105.279 150.212 0.548086 0.283698 -0.78684
57.3177 104.965 150.356 0.548086 0.283698 -0.78684
56.9656 104.358 149.892 0.548086 0.283698 -0.78684
56.0458 104.922 149.837 -0.0127998 0.684474 -0.728925
55.4919 105.142 150.053 -0.0127998 0.684474 -0.728925
56.0163 105.402 150.288 -0.0127998 0.684474 -0.728925
56.9486 105.279 150.212 0.0317973 0.685638 -0.727248
56.0458 104.922 149.837 0.0317973 0.685638 -0.727248
56.0163 105.402 150.288 0.0317973 0.685638 -0.727248
55.2938 103.01 150.162 -0.647693 -0.76074 -0.0420505
55.263 102.992 150.958 -0.647693 -0.76074 -0.0420505
54.8497 103.356 150.735 -0.647693 -0.76074 -0.0420505
54.9457 103.444 149.918 -0.725681 -0.669802 -0.157328
55.2938 103.01 150.162 -0.725681 -0.669802 -0.157328
54.8497 103.356 150.735 -0.725681 -0.669802 -0.157328
56.2119 102.698 150.147 -0.3198 -0.945506 0.0612069
56.0966 102.786 150.901 -0.3198 -0.945506 0.0612069
55.2938 103.01 150.162 -0.3198 -0.945506 0.0612069
55.2938 103.01 150.162 -0.241591 -0.969881 -0.0310509
56.0966 102.786 150.901 -0.241591 -0.969881 -0.0310509
55.263 102.992 150.958 -0.241591 -0.969881 -0.0310509
56.9143 102.94 150.024 0.321658 -0.946512 -0.0255186
56.9859 102.945 150.762 0.321658 -0.946512 -0.0255186
56.2119 102.698 150.147 0.321658 -0.946512 -0.0255186
56.2119 102.698 150.147 0.195505 -0.970244 0.142842
56.9859 102.945 150.762 0.195505 -0.970244 0.142842
56.0966 102.786 150.901 0.195505 -0.970244 0.142842
56.9859 102.945 150.762 0.589959 -0.805733 -0.0523706
56.9143 102.94 150.024 0.589959 -0.805733 -0.0523706
57.3373 103.236 150.24 0.589959 -0.805733 -0.0523706
57.4175 103.461 151.052 0.729674 -0.674015 0.11524
56.9859 102.945 150.762 0.729674 -0.674015 0.11524
57.3373 103.236 150.24 0.729674 -0.674015 0.11524
54.9457 103.444 149.918 -0.990628 -0.0598021 -0.122799
54.8497 103.356 150.735 -0.990628 -0.0598021 -0.122799
54.8588 104.258 150.223 -0.990628 -0.0598021 -0.122799
54.8497 103.356 150.735 -0.96992 -0.112814 -0.215704
54.6802 104.198 151.057 -0.96992 -0.112814 -0.215704
54.8588 104.258 150.223 -0.96992 -0.112814 -0.215704
57.3373 103.236 150.24 0.995381 -0.0104505 -0.0954284
57.344 104.004 150.225 0.995381 -0.0104505 -0.0954284
57.4175 103.461 151.052 0.995381 -0.0104505 -0.0954284
57.4175 103.461 151.052 0.877982 -0.360628 -0.314794
57.344 104.004 150.225 0.877982 -0.360628 -0.314794
57.7225 104.281 150.963 0.877982 -0.360628 -0.314794
55.1428 105.105 150.391 -0.898499 0.352848 -0.261149
55.1749 104.804 149.873 -0.898499 0.352848 -0.261149
54.8588 104.258 150.223 -0.898499 0.352848 -0.261149
55.1428 105.105 150.391 -0.841489 0.361588 -0.401436
54.8588 104.258 150.223 -0.841489 0.361588 -0.401436
54.8365 105.202 151.119 -0.841489 0.361588 -0.401436
54.8365 105.202 151.119 -0.967104 0.162848 -0.195424
54.8588 104.258 150.223 -0.967104 0.162848 -0.195424
54.6802 104.198 151.057 -0.967104 0.162848 -0.195424
55.1749 104.804 149.873 -0.516435 0.725682 -0.454622
55.1428 105.105 150.391 -0.516435 0.725682 -0.454622
55.4919 105.142 150.053 -0.516435 0.725682 -0.454622
57.344 104.004 150.225 0.872245 0.0891943 -0.480867
57.3177 104.965 150.356 0.872245 0.0891943 -0.480867
57.7225 104.281 150.963 0.872245 0.0891943 -0.480867
57.7225 104.281 150.963 0.910133 0.236589 -0.340122
57.3177 104.965 150.356 0.910133 0.236589 -0.340122
57.6482 105.014 151.275 0.910133 0.236589 -0.340122
55.1428 105.105 150.391 -0.623644 0.696906 -0.354104
54.8365 105.202 151.119 -0.623644 0.696906 -0.354104
55.2598 105.486 150.934 -0.623644 0.696906 -0.354104
56.0163 105.402 150.288 -0.488298 0.584949 -0.647611
55.2598 105.486 150.934 -0.488298 0.584949 -0.647611
55.9715 106.113 150.964 -0.488298 0.584949 -0.647611
56.0163 105.402 150.288 -0.33136 0.804729 -0.492557
55.1428 105.105 150.391 -0.33136 0.804729 -0.492557
55.2598 105.486 150.934 -0.33136 0.804729 -0.492557
56.0163 105.402 150.288 -0.33766 0.907452 -0.250035
55.4919 105.142 150.053 -0.33766 0.907452 -0.250035
55.1428 105.105 150.391 -0.33766 0.907452 -0.250035
56.0163 105.402 150.288 0.0135352 0.594817 -0.803747
56.8464 106.119 150.833 0.0135352 0.594817 -0.803747
56.9486 105.279 150.212 0.0135352 0.594817 -0.803747
55.9715 106.113 150.964 -0.113386 0.680836 -0.723606
56.8464 106.119 150.833 -0.113386 0.680836 -0.723606
56.0163 105.402 150.288 -0.113386 0.680836 -0.723606
56.9486 105.279 150.212 0.485577 0.556554 -0.674138
56.8464 106.119 150.833 0.485577 0.556554 -0.674138
57.433 105.885 151.062 0.485577 0.556554 -0.674138
56.9486 105.279 150.212 0.619869 0.427125 -0.658276
57.433 105.885 151.062 0.619869 0.427125 -0.658276
57.3177 104.965 150.356 0.619869 0.427125 -0.658276
57.3177 104.965 150.356 0.928395 0.145809 -0.341793
57.433 105.885 151.062 0.928395 0.145809 -0.341793
57.6482 105.014 151.275 0.928395 0.145809 -0.341793
56.8464 106.119 150.833 -0.137898 0.415674 -0.898999
55.9715 106.113 150.964 -0.137898 0.415674 -0.898999
56.188 106.862 151.277 -0.137898 0.415674 -0.898999
57.174 106.481 151.239 0.217004 0.635635 -0.740862
56.8464 106.119 150.833 0.217004 0.635635 -0.740862
56.188 106.862 151.277 0.217004 0.635635 -0.740862
57.433 105.885 151.062 0.472798 0.433577 -0.76712
56.8464 106.119 150.833 0.472798 0.433577 -0.76712
57.174 106.481 151.239 0.472798 0.433577 -0.76712
55.263 102.992 150.958 -0.712715 -0.5235 0.466889
55.072 103.402 151.126 -0.712715 -0.5235 0.466889
54.8497 103.356 150.735 -0.712715 -0.5235 0.466889
55.263 102.992 150.958 -0.137535 -0.738105 0.660519
56.0966 102.786 150.901 -0.137535 -0.738105 0.660519
55.9146 103.348 151.492 -0.137535 -0.738105 0.660519
55.072 103.402 151.126 -0.372084 -0.495419 0.784929
55.263 102.992 150.958 -0.372084 -0.495419 0.784929
55.9146 103.348 151.492 -0.372084 -0.495419 0.784929
56.0966 102.786 150.901 0.225766 -0.855286 0.466386
56.9859 102.945 150.762 0.225766 -0.855286 0.466386
56.8694 103.235 151.352 0.225766 -0.855286 0.466386
55.9146 103.348 151.492 0.0162998 -0.721525 0.692196
56.0966 102.786 150.901 0.0162998 -0.721525 0.692196
56.8694 103.235 151.352 0.0162998 -0.721525 0.692196
56.9859 102.945 150.762 0.540836 -0.707104 0.455523
57.4175 103.461 151.052 0.540836 -0.707104 0.455523
56.8694 103.235 151.352 0.540836 -0.707104 0.455523
55.072 103.402 151.126 -0.612813 -0.23586 0.754208
55.1665 104.208 151.455 -0.612813 -0.23586 0.754208
54.6802 104.198 151.057 -0.612813 -0.23586 0.754208
54.8497 103.356 150.735 -0.796464 -0.348833 0.493924
55.072 103.402 151.126 -0.796464 -0.348833 0.493924
54.6802 104.198 151.057 -0.796464 -0.348833 0.493924
55.9275 104.331 152.147 -0.307329 -0.525089 0.793619
55.9146 103.348 151.492 -0.307329 -0.525089 0.793619
56.3918 103.822 151.99 -0.307329 -0.525089 0.793619
55.9275 104.331 152.147 -0.55757 -0.455417 0.694054
55.1665 104.208 151.455 -0.55757 -0.455417 0.694054
55.9146 103.348 151.492 -0.55757 -0.455417 0.694054
55.1665 104.208 151.455 -0.39507 -0.306929 0.86586
55.072 103.402 151.126 -0.39507 -0.306929 0.86586
55.9146 103.348 151.492 -0.39507 -0.306929 0.86586
56.8694 103.235 151.352 0.0137116 -0.731065 0.68217
56.3918 103.822 151.99 0.0137116 -0.731065 0.68217
55.9146 103.348 151.492 0.0137116 -0.731065 0.68217
57.1503 103.789 151.879 0.0724287 -0.706739 0.703757
56.3918 103.822 151.99 0.0724287 -0.706739 0.703757
56.8694 103.235 151.352 0.0724287 -0.706739 0.703757
57.1503 103.789 151.879 0.54071 -0.707577 0.454937
56.8694 103.235 151.352 0.54071 -0.707577 0.454937
57.4175 103.461 151.052 0.54071 -0.707577 0.454937
57.1503 103.789 151.879 0.550879 -0.699606 0.455065
57.4175 103.461 151.052 0.550879 -0.699606 0.455065
57.6997 104.245 151.915 0.550879 -0.699606 0.455065
57.6997 104.245 151.915 0.937498 -0.347868 0.00924659
57.4175 103.461 151.052 0.937498 -0.347868 0.00924659
57.7225 104.281 150.963 0.937498 -0.347868 0.00924659
55.1665 104.208 151.455 -0.651776 -0.400477 0.644055
55.24 105.292 152.203 -0.651776 -0.400477 0.644055
54.9188 105.067 151.739 -0.651776 -0.400477 0.644055
55.1665 104.208 151.455 -0.575431 -0.401124 0.712726
54.9188 105.067 151.739 -0.575431 -0.401124 0.712726
54.6802 104.198 151.057 -0.575431 -0.401124 0.712726
54.6802 104.198 151.057 -0.976717 0.142186 0.160644
54.9188 105.067 151.739 -0.976717 0.142186 0.160644
54.8365 105.202 151.119 -0.976717 0.142186 0.160644
55.9275 104.331 152.147 -0.562718 -0.443492 0.697613
55.24 105.292 152.203 -0.562718 -0.443492 0.697613
55.1665 104.208 151.455 -0.562718 -0.443492 0.697613
58.0112 104.683 152.179 0.85627 -0.267531 -0.441847
57.6482 105.014 151.275 0.85627 -0.267531 -0.441847
58.1831 105.407 152.074 0.85627 -0.267531 -0.441847
58.0112 104.683 152.179 0.833083 -0.319476 -0.451561
57.6997 104.245 151.915 0.833083 -0.319476 -0.451561
57.6482 105.014 151.275 0.833083 -0.319476 -0.451561
57.6997 104.245 151.915 0.995645 0.0891566 0.0272537
57.7225 104.281 150.963 0.995645 0.0891566 0.0272537
57.6482 105.014 151.275 0.995645 0.0891566 0.0272537
55.2347 106.186 151.596 -0.613085 0.53132 -0.584659
55.2598 105.486 150.934 -0.613085 0.53132 -0.584659
54.8365 105.202 151.119 -0.613085 0.53132 -0.584659
55.2347 106.186 151.596 -0.820168 0.481521 -0.308969
54.8365 105.202 151.119 -0.820168 0.481521 -0.308969
54.9905 105.999 151.953 -0.820168 0.481521 -0.308969
54.9905 105.999 151.953 -0.989054 0.043708 0.140929
54.8365 105.202 151.119 -0.989054 0.043708 0.140929
54.9188 105.067 151.739 -0.989054 0.043708 0.140929
55.2598 105.486 150.934 -0.492128 0.588984 -0.641021
55.2347 106.186 151.596 -0.492128 0.588984 -0.641021
55.9715 106.113 150.964 -0.492128 0.588984 -0.641021
58.1831 105.407 152.074 0.798894 -0.0188464 -0.601176
57.433 105.885 151.062 0.798894 -0.0188464 -0.601176
58.0362 106.418 151.847 0.798894 -0.0188464 -0.601176
57.6482 105.014 151.275 0.815307 0.0605361 -0.575856
57.433 105.885 151.062 0.815307 0.0605361 -0.575856
58.1831 105.407 152.074 0.815307 0.0605361 -0.575856
58.0362 106.418 151.847 0.712126 -0.0536511 -0.699999
58.487 106.178 152.324 0.712126 -0.0536511 -0.699999
58.1831 105.407 152.074 0.712126 -0.0536511 -0.699999
55.2347 106.186 151.596 -0.854521 0.273918 -0.44132
54.9905 105.999 151.953 -0.854521 0.273918 -0.44132
55.2869 106.878 151.925 -0.854521 0.273918 -0.44132
56.0436 107.199 151.583 -0.456115 0.868633 -0.193484
55.2869 106.878 151.925 -0.456115 0.868633 -0.193484
55.4873 107.067 152.301 -0.456115 0.868633 -0.193484
56.188 106.862 151.277 -0.518591 0.4416 -0.732156
55.2869 106.878 151.925 -0.518591 0.4416 -0.732156
56.0436 107.199 151.583 -0.518591 0.4416 -0.732156
56.188 106.862 151.277 -0.531503 0.39559 -0.749008
55.2347 106.186 151.596 -0.531503 0.39559 -0.749008
55.2869 106.878 151.925 -0.531503 0.39559 -0.749008
56.188 106.862 151.277 -0.554765 0.452295 -0.69833
55.9715 106.113 150.964 -0.554765 0.452295 -0.69833
55.2347 106.186 151.596 -0.554765 0.452295 -0.69833
56.188 106.862 151.277 0.222265 0.648017 -0.728472
57.0904 107.117 151.779 0.222265 0.648017 -0.728472
57.174 106.481 151.239 0.222265 0.648017 -0.728472
56.0436 107.199 151.583 0.184149 0.702434 -0.687514
57.0904 107.117 151.779 0.184149 0.702434 -0.687514
56.188 106.862 151.277 0.184149 0.702434 -0.687514
57.174 106.481 151.239 0.537196 0.446264 -0.715729
58.0362 106.418 151.847 0.537196 0.446264 -0.715729
57.433 105.885 151.062 0.537196 0.446264 -0.715729
57.174 106.481 151.239 0.489437 0.601057 -0.631808
57.0904 107.117 151.779 0.489437 0.601057 -0.631808
58.0362 106.418 151.847 0.489437 0.601057 -0.631808
57.0904 107.117 151.779 0.237381 0.229618 -0.943889
58.0221 107.199 152.033 0.237381 0.229618 -0.943889
58.0362 106.418 151.847 0.237381 0.229618 -0.943889
58.6202 107.148 152.422 0.719386 -0.0281801 -0.694038
58.487 106.178 152.324 0.719386 -0.0281801 -0.694038
58.0362 106.418 151.847 0.719386 -0.0281801 -0.694038
58.0221 107.199 152.033 0.546142 0.20384 -0.812514
58.6202 107.148 152.422 0.546142 0.20384 -0.812514
58.0362 106.418 151.847 0.546142 0.20384 -0.812514
56.0436 107.199 151.583 -0.306637 0.949749 -0.0628556
55.4873 107.067 152.301 -0.306637 0.949749 -0.0628556
56.3578 107.341 152.195 -0.306637 0.949749 -0.0628556
57.0904 107.117 151.779 0.128239 0.949628 -0.285938
56.0436 107.199 151.583 0.128239 0.949628 -0.285938
56.3578 107.341 152.195 0.128239 0.949628 -0.285938
57.3078 107.4 152.19 -0.0546446 0.835633 -0.546564
57.0904 107.117 151.779 -0.0546446 0.835633 -0.546564
56.3578 107.341 152.195 -0.0546446 0.835633 -0.546564
58.0221 107.199 152.033 0.0930857 0.79639 -0.597577
57.0904 107.117 151.779 0.0930857 0.79639 -0.597577
57.3078 107.4 152.19 0.0930857 0.79639 -0.597577
58.1297 107.588 152.441 0.0485878 0.71593 -0.69648
58.0221 107.199 152.033 0.0485878 0.71593 -0.69648
57.3078 107.4 152.19 0.0485878 0.71593 -0.69648
58.6202 107.148 152.422 0.482759 0.566257 -0.668054
58.0221 107.199 152.033 0.482759 0.566257 -0.668054
58.1297 107.588 152.441 0.482759 0.566257 -0.668054
56.3918 103.822 151.99 -0.391839 -0.578225 0.715624
56.291 104.269 152.296 -0.391839 -0.578225 0.715624
55.9275 104.331 152.147 -0.391839 -0.578225 0.715624
56.3918 103.822 151.99 0.0688406 -0.725413 0.684863
57.1503 103.789 151.879 0.0688406 -0.725413 0.684863
56.985 104.255 152.389 0.0688406 -0.725413 0.684863
56.291 104.269 152.296 -0.119677 -0.579058 0.806455
56.3918 103.822 151.99 -0.119677 -0.579058 0.806455
56.985 104.255 152.389 -0.119677 -0.579058 0.806455
57.1503 103.789 151.879 0.442282 -0.586259 0.678739
57.6997 104.245 151.915 0.442282 -0.586259 0.678739
56.985 104.255 152.389 0.442282 -0.586259 0.678739
55.9275 104.331 152.147 -0.624837 -0.482986 0.613435
55.939 105.224 152.862 -0.624837 -0.482986 0.613435
55.24 105.292 152.203 -0.624837 -0.482986 0.613435
55.9275 104.331 152.147 -0.424214 -0.562571 0.709617
56.3993 104.928 152.903 -0.424214 -0.562571 0.709617
55.939 105.224 152.862 -0.424214 -0.562571 0.709617
55.9275 104.331 152.147 -0.390531 -0.587771 0.708527
56.291 104.269 152.296 -0.390531 -0.587771 0.708527
56.3993 104.928 152.903 -0.390531 -0.587771 0.708527
56.985 104.255 152.389 -0.112593 -0.662718 0.740356
56.3993 104.928 152.903 -0.112593 -0.662718 0.740356
56.291 104.269 152.296 -0.112593 -0.662718 0.740356
57.4204 104.789 152.881 -0.0718998 -0.643742 0.761857
56.3993 104.928 152.903 -0.0718998 -0.643742 0.761857
56.985 104.255 152.389 -0.0718998 -0.643742 0.761857
57.6997 104.245 151.915 0.343616 -0.772463 0.534068
57.4204 104.789 152.881 0.343616 -0.772463 0.534068
56.985 104.255 152.389 0.343616 -0.772463 0.534068
57.6997 104.245 151.915 0.507698 -0.67977 0.529297
58.0112 104.683 152.179 0.507698 -0.67977 0.529297
57.4204 104.789 152.881 0.507698 -0.67977 0.529297
58.0112 104.683 152.179 0.324942 -0.856039 0.402006
58.1504 105.053 152.855 0.324942 -0.856039 0.402006
57.4204 104.789 152.881 0.324942 -0.856039 0.402006
58.1504 105.053 152.855 0.96843 -0.239785 -0.0681645
58.0112 104.683 152.179 0.96843 -0.239785 -0.0681645
58.1831 105.407 152.074 0.96843 -0.239785 -0.0681645
58.4277 105.539 152.963 0.871222 -0.459801 -0.171918
58.1504 105.053 152.855 0.871222 -0.459801 -0.171918
58.1831 105.407 152.074 0.871222 -0.459801 -0.171918
55.24 105.292 152.203 -0.87284 -0.142813 0.466642
55.1614 106.309 152.368 -0.87284 -0.142813 0.466642
54.9905 105.999 151.953 -0.87284 -0.142813 0.466642
54.9188 105.067 151.739 -0.803135 -0.0742078 0.591157
55.24 105.292 152.203 -0.803135 -0.0742078 0.591157
54.9905 105.999 151.953 -0.803135 -0.0742078 0.591157
55.6843 106.17 152.914 -0.68002 -0.221454 0.69895
55.24 105.292 152.203 -0.68002 -0.221454 0.69895
55.939 105.224 152.862 -0.68002 -0.221454 0.69895
55.1614 106.309 152.368 -0.73306 -0.163328 0.660263
55.24 105.292 152.203 -0.73306 -0.163328 0.660263
55.6843 106.17 152.914 -0.73306 -0.163328 0.660263
58.1831 105.407 152.074 0.930629 -0.298228 -0.212107
58.487 106.178 152.324 0.930629 -0.298228 -0.212107
58.4277 105.539 152.963 0.930629 -0.298228 -0.212107
58.4277 105.539 152.963 0.821706 -0.439158 -0.363235
58.487 106.178 152.324 0.821706 -0.439158 -0.363235
58.9134 106.416 153.001 0.821706 -0.439158 -0.363235
54.9905 105.999 151.953 -0.935959 0.320299 0.146253
55.1614 106.309 152.368 -0.935959 0.320299 0.146253
55.2869 106.878 151.925 -0.935959 0.320299 0.146253
55.1614 106.309 152.368 -0.876994 0.400315 0.265761
55.4873 107.067 152.301 -0.876994 0.400315 0.265761
55.2869 106.878 151.925 -0.876994 0.400315 0.265761
55.1614 106.309 152.368 -0.63673 0.334662 0.694677
55.6843 106.17 152.914 -0.63673 0.334662 0.694677
55.4873 107.067 152.301 -0.63673 0.334662 0.694677
55.6843 106.17 152.914 -0.861153 0.143867 0.487564
55.8918 107.015 153.031 -0.861153 0.143867 0.487564
55.4873 107.067 152.301 -0.861153 0.143867 0.487564
59.2037 106.924 153.019 0.679398 -0.146293 -0.719038
58.6202 107.148 152.422 0.679398 -0.146293 -0.719038
59.2169 107.263 152.963 0.679398 -0.146293 -0.719038
59.2037 106.924 153.019 0.613066 -0.323697 -0.720673
58.9134 106.416 153.001 0.613066 -0.323697 -0.720673
58.6202 107.148 152.422 0.613066 -0.323697 -0.720673
58.9134 106.416 153.001 0.854499 -0.064907 -0.515383
58.487 106.178 152.324 0.854499 -0.064907 -0.515383
58.6202 107.148 152.422 0.854499 -0.064907 -0.515383
59.2037 106.924 153.019 0.848109 -0.119053 -0.516273
59.2169 107.263 152.963 0.848109 -0.119053 -0.516273
59.3098 107.265 153.115 0.848109 -0.119053 -0.516273
55.4873 107.067 152.301 -0.573446 0.730825 0.370209
55.8918 107.015 153.031 -0.573446 0.730825 0.370209
56.1467 107.289 152.884 -0.573446 0.730825 0.370209
56.3578 107.341 152.195 -0.302499 0.952924 -0.0207581
55.4873 107.067 152.301 -0.302499 0.952924 -0.0207581
56.1467 107.289 152.884 -0.302499 0.952924 -0.0207581
57.3078 107.4 152.19 -0.0623613 0.993096 -0.0993515
56.3578 107.341 152.195 -0.0623613 0.993096 -0.0993515
57.1173 107.461 152.916 -0.0623613 0.993096 -0.0993515
56.3578 107.341 152.195 -0.174949 0.98436 0.0206817
56.1467 107.289 152.884 -0.174949 0.98436 0.0206817
57.1173 107.461 152.916 -0.174949 0.98436 0.0206817
58.1297 107.588 152.441 -0.340772 0.786213 -0.515504
57.1173 107.461 152.916 -0.340772 0.786213 -0.515504
58.0054 107.943 153.065 -0.340772 0.786213 -0.515504
58.1297 107.588 152.441 -0.183455 0.974447 -0.129602
57.3078 107.4 152.19 -0.183455 0.974447 -0.129602
57.1173 107.461 152.916 -0.183455 0.974447 -0.129602
58.6202 107.148 152.422 0.395132 0.473652 -0.787099
58.1297 107.588 152.441 0.395132 0.473652 -0.787099
58.6232 107.958 152.911 0.395132 0.473652 -0.787099
58.6202 107.148 152.422 0.530604 0.436596 -0.726528
58.6232 107.958 152.911 0.530604 0.436596 -0.726528
59.0889 107.605 153.039 0.530604 0.436596 -0.726528
58.6202 107.148 152.422 0.580393 0.378243 -0.721163
59.0889 107.605 153.039 0.580393 0.378243 -0.721163
59.2169 107.263 152.963 0.580393 0.378243 -0.721163
59.3098 107.265 153.115 0.779406 0.399501 -0.482623
59.2169 107.263 152.963 0.779406 0.399501 -0.482623
59.0889 107.605 153.039 0.779406 0.399501 -0.482623
58.1297 107.588 152.441 -0.495464 0.708731 -0.502211
58.0054 107.943 153.065 -0.495464 0.708731 -0.502211
58.32 108.105 152.982 -0.495464 0.708731 -0.502211
58.6232 107.958 152.911 0.16483 0.683842 -0.710768
58.1297 107.588 152.441 0.16483 0.683842 -0.710768
58.32 108.105 152.982 0.16483 0.683842 -0.710768
56.3993 104.928 152.903 -0.386781 -0.494661 0.778274
56.3098 105.54 153.247 -0.386781 -0.494661 0.778274
55.939 105.224 152.862 -0.386781 -0.494661 0.778274
56.3993 104.928 152.903 -0.0731897 -0.652051 0.754635
57.4204 104.789 152.881 -0.0731897 -0.652051 0.754635
57.2323 105.386 153.379 -0.0731897 -0.652051 0.754635
56.3098 105.54 153.247 -0.204107 -0.502693 0.840024
56.3993 104.928 152.903 -0.204107 -0.502693 0.840024
57.2323 105.386 153.379 -0.204107 -0.502693 0.840024
57.4204 104.789 152.881 0.297092 -0.761819 0.575645
58.1504 105.053 152.855 0.297092 -0.761819 0.575645
58.0477 105.299 153.232 0.297092 -0.761819 0.575645
57.2323 105.386 153.379 0.0730717 -0.624882 0.777292
57.4204 104.789 152.881 0.0730717 -0.624882 0.777292
58.0477 105.299 153.232 0.0730717 -0.624882 0.777292
58.1504 105.053 152.855 0.68812 -0.508486 0.517622
58.4277 105.539 152.963 0.68812 -0.508486 0.517622
58.0477 105.299 153.232 0.68812 -0.508486 0.517622
56.3098 105.54 153.247 -0.556454 -0.117007 0.822599
56.3012 106.462 153.373 -0.556454 -0.117007 0.822599
55.6843 106.17 152.914 -0.556454 -0.117007 0.822599
55.939 105.224 152.862 -0.614532 -0.207248 0.761182
56.3098 105.54 153.247 -0.614532 -0.207248 0.761182
55.6843 106.17 152.914 -0.614532 -0.207248 0.761182
57.2323 105.386 153.379 -0.179626 -0.264322 0.947559
57.2227 106.283 153.627 -0.179626 -0.264322 0.947559
56.3098 105.54 153.247 -0.179626 -0.264322 0.947559
57.2227 106.283 153.627 -0.287921 -0.13164 0.948563
56.3012 106.462 153.373 -0.287921 -0.13164 0.948563
56.3098 105.54 153.247 -0.287921 -0.13164 0.948563
58.0477 105.299 153.232 0.132244 -0.335698 0.93264
58.2389 106.185 153.524 0.132244 -0.335698 0.93264
57.2323 105.386 153.379 0.132244 -0.335698 0.93264
58.2389 106.185 153.524 0.0724315 -0.265478 0.961392
57.2227 106.283 153.627 0.0724315 -0.265478 0.961392
57.2323 105.386 153.379 0.0724315 -0.265478 0.961392
58.4277 105.539 152.963 0.6443 -0.385522 0.660493
58.9134 106.416 153.001 0.6443 -0.385522 0.660493
58.2389 106.185 153.524 0.6443 -0.385522 0.660493
58.0477 105.299 153.232 0.679798 -0.357609 0.640305
58.4277 105.539 152.963 0.679798 -0.357609 0.640305
58.2389 106.185 153.524 0.679798 -0.357609 0.640305
56.3012 106.462 153.373 -0.459757 0.194567 0.866468
56.3674 107.178 153.247 -0.459757 0.194567 0.866468
55.8918 107.015 153.031 -0.459757 0.194567 0.866468
55.6843 106.17 152.914 -0.60816 0.0392468 0.792844
56.3012 106.462 153.373 -0.60816 0.0392468 0.792844
55.8918 107.015 153.031 -0.60816 0.0392468 0.792844
57.2227 106.283 153.627 -0.237888 0.143449 0.960641
57.3005 107.26 153.501 -0.237888 0.143449 0.960641
56.3012 106.462 153.373 -0.237888 0.143449 0.960641
57.3005 107.26 153.501 -0.273386 0.190766 0.942798
56.3674 107.178 153.247 -0.273386 0.190766 0.942798
56.3012 106.462 153.373 -0.273386 0.190766 0.942798
58.2389 106.185 153.524 0.0900052 -0.113304 0.989475
58.1455 107.111 153.638 0.0900052 -0.113304 0.989475
57.2227 106.283 153.627 0.0900052 -0.113304 0.989475
58.1455 107.111 153.638 -0.135469 0.137956 0.98113
57.3005 107.26 153.501 -0.135469 0.137956 0.98113
57.2227 106.283 153.627 -0.135469 0.137956 0.98113
58.9134 106.416 153.001 0.601043 -0.368818 0.709028
59.2037 106.924 153.019 0.601043 -0.368818 0.709028
59.0313 107.162 153.289 0.601043 -0.368818 0.709028
58.9134 106.416 153.001 0.645548 -0.361781 0.672594
59.0313 107.162 153.289 0.645548 -0.361781 0.672594
58.2389 106.185 153.524 0.645548 -0.361781 0.672594
58.2389 106.185 153.524 0.369774 -0.0772153 0.925908
59.0313 107.162 153.289 0.369774 -0.0772153 0.925908
58.1455 107.111 153.638 0.369774 -0.0772153 0.925908
59.2037 106.924 153.019 0.587709 -0.382785 0.712792
59.3098 107.265 153.115 0.587709 -0.382785 0.712792
59.0313 107.162 153.289 0.587709 -0.382785 0.712792
55.8918 107.015 153.031 -0.477277 0.716057 0.509381
56.3674 107.178 153.247 -0.477277 0.716057 0.509381
56.1467 107.289 152.884 -0.477277 0.716057 0.509381
57.1173 107.461 152.916 -0.173172 0.90748 0.382742
56.1467 107.289 152.884 -0.173172 0.90748 0.382742
56.3674 107.178 153.247 -0.173172 0.90748 0.382742
57.3005 107.26 153.501 -0.180309 0.911402 0.369913
57.1173 107.461 152.916 -0.180309 0.911402 0.369913
56.3674 107.178 153.247 -0.180309 0.911402 0.369913
58.0054 107.943 153.065 -0.486774 0.767823 0.416532
57.1173 107.461 152.916 -0.486774 0.767823 0.416532
57.3005 107.26 153.501 -0.486774 0.767823 0.416532
58.0054 107.943 153.065 -0.241574 0.68669 0.685638
57.3005 107.26 153.501 -0.241574 0.68669 0.685638
58.3752 107.916 153.222 -0.241574 0.68669 0.685638
58.3752 107.916 153.222 -0.0601987 0.472202 0.879432
57.3005 107.26 153.501 -0.0601987 0.472202 0.879432
58.1455 107.111 153.638 -0.0601987 0.472202 0.879432
59.0889 107.605 153.039 0.451596 0.762383 0.463501
58.6232 107.958 152.911 0.451596 0.762383 0.463501
58.3752 107.916 153.222 0.451596 0.762383 0.463501
59.0889 107.605 153.039 0.39088 0.412846 0.822661
58.3752 107.916 153.222 0.39088 0.412846 0.822661
59.0313 107.162 153.289 0.39088 0.412846 0.822661
59.0313 107.162 153.289 0.32468 0.359915 0.874668
58.3752 107.916 153.222 0.32468 0.359915 0.874668
58.1455 107.111 153.638 0.32468 0.359915 0.874668
59.3098 107.265 153.115 0.362388 0.421427 0.831309
59.0889 107.605 153.039 0.362388 0.421427 0.831309
59.0313 107.162 153.289 0.362388 0.421427 0.831309
58.0054 107.943 153.065 -0.215101 0.743579 0.633105
58.3752 107.916 153.222 -0.215101 0.743579 0.633105
58.32 108.105 152.982 -0.215101 0.743579 0.633105
58.6232 107.958 152.911 0.469816 0.743728 0.475544
58.32 108.105 152.982 0.469816 0.743728 0.475544
58.3752 107.916 153.222 0.469816 0.743728 0.475544
3 0 1 2
3 3 4 5
3 6 7 8
3 9 10 11
3 12 13 14
3 15 16 17
3 18 19 20
3 21 22 23
3 24 25 26
3 27 28 29
3 30 31 32
3 33 34 35
3 36 37 38
3 39 40 41
3 42 43 44
3 45 46 47
3 48 49 50
3 51 52 53
3 54 55 56
3 57 58 59
3 60 61 62
3 63 64 65
3 66 67 68
3 69 70 71
3 72 73 74
3 75 76 77
3 78 79 80
3 81 82 83
3 84 85 86
3 87 88 89
3 90 91 92
3 93 94 95
3 96 97 98
3 99 100 101
3 102 103 104
3 105 106 107
3 108 109 110
3 111 112 113
3 114 115 116
3 117 118 119
3 120 121 122
3 123 124 125
3 126 127 128
3 129 130 131
3 132 133 134
3 135 136 137
3 138 139 140
3 141 142 143
3 144 145 146
3 147 148 149
3 150 151 152
3 153 154 155
3 156 157 158
3 159 160 161
3 162 163 164
3 165 166 167
3 168 169 170
3 171 172 173
3 174 175 176
3 177 178 179
3 180 181 182
3 183 184 185
3 186 187 188
3 189 190 191
3 192 193 194
3 195 196 197
3 198 199 200
3 201 202 203
3 204 205 206
3 207 208 209
3 210 211 212
3 213 214 215
3 216 217 218
3 219 220 221
3 222 223 224
3 225 226 227
3 228 229 230
3 231 232 233
3 234 235 236
3 237 238 239
3 240 241 242
3 243 244 245
3 246 247 248
3 249 250 251
3 252 253 254
3 255 256 257
3 258 259 260
3 261 262 263
3 264 265 266
3 267 268 269
3 270 271 272
3 273 274 275
3 276 277 278
3 279 280 281
3 282 283 284
3 285 286 287
3 288 289 290
3 291 292 293
3 294 295 296
3 297 298 299
3 300 301 302
3 303 304 305
3 306 307 308
3 309 310 311
3 312 313 314
3 315 316 317
3 318 319 320
3 321 322 323
3 324 325 326
3 327 328 329
3 330 331 332
3 333 334 335
3 336 337 338
3 339 340 341
3 342 343 344
3 345 346 347
3 348 349 350
3 351 352 353
3 354 355 356
3 357 358 359
3 360 361 362
3 363 364 365
3 366 367 368
3 369 370 371
3 372 373 374
3 375 376 377
3 378 379 380
3 381 382 383
3 384 385 386
3 387 388 389
3 390 391 392
3 393 394 395
3 396 397 398
3 399 400 401
3 402 403 404
3 405 406 407
3 408 409 410
3 411 412 413
3 414 415 416
3 417 418 419
3 420 421 422
3 423 424 425
3 426 427 428
3 429 430 431
3 432 433 434
3 435 436 437
3 438 439 440
3 441 442 443
3 444 445 446
3 447 448 449
3 450 451 452
3 453 454 455
3 456 457 458
3 459 460 461
3 462 463 464
3 465 466 467
3 468 469 470
3 471 472 473
3 474 475 476
3 477 478 479
3 480 481 482
3 483 484 485
3 486 487 488
3 489 490 491
3 492 493 494
3 495 496 497
3 498 499 500
3 501 502 503
3 504 505 506
3 507 508 509
3 510 511 512
3 513 514 515
3 516 517 518
3 519 520 521
3 522 523 524
3 525 526 527
3 528 529 530
3 531 532 533
3 534 535 536
3 537 538 539
3 540 541 542
3 543 544 545
