ply
format ascii 1.0
element vertex 210
property float x
property float y
property float z
property float nx
property float ny
property float nz
element face 70
property list uint uint vertex_indices
end_header
100.22 108.041 179.544 0.172019 0.0298616 -0.984641
100.217 106.805 179.506 0.172019 0.0298616 -0.984641
99.7917 107.43 179.451 0.172019 0.0298616 -0.984641
100.22 108.041 179.544 -0.141242 0.030763 -0.989497
100.825 107.257 179.433 -0.141242 0.030763 -0.989497
100.217 106.805 179.506 -0.141242 0.030763 -0.989497
99.2822 106.273 180.089 -0.66343 -0.583538 -0.468342
99.238 106.007 180.484 -0.66343 -0.583538 -0.468342
98.9664 106.463 180.3 -0.66343 -0.583538 -0.468342
99.2822 106.273 180.089 -0.268355 -0.727537 -0.631407
99.9479 106.356 179.71 -0.268355 -0.727537 -0.631407
99.9264 105.897 180.248 -0.268355 -0.727537 -0.631407
99.238 106.007 180.484 -0.312385 -0.770709 -0.555358
99.2822 106.273 180.089 -0.312385 -0.770709 -0.555358
99.9264 105.897 180.248 -0.312385 -0.770709 -0.555358
99.9264 105.897 180.248 0.52121 -0.659409 -0.541775
99.9479 106.356 179.71 0.52121 -0.659409 -0.541775
100.612 106.389 180.31 0.52121 -0.659409 -0.541775
99.2569 107.051 179.898 -0.626408 -0.204688 -0.752141
99.2822 106.273 180.089 -0.626408 -0.204688 -0.752141
98.9664 106.463 180.3 -0.626408 -0.204688 -0.752141
98.7355 107.258 180.34 -0.674097 -0.159954 -0.721116
99.2569 107.051 179.898 -0.674097 -0.159954 -0.721116
98.9664 106.463 180.3 -0.674097 -0.159954 -0.721116
100.217 106.805 179.506 -0.430812 -0.365992 -0.824894
99.2569 107.051 179.898 -0.430812 -0.365992 -0.824894
99.7917 107.43 179.451 -0.430812 -0.365992 -0.824894
100.217 106.805 179.506 -0.408687 -0.163627 -0.897887
99.9479 106.356 179.71 -0.408687 -0.163627 -0.897887
99.2569 107.051 179.898 -0.408687 -0.163627 -0.897887
99.9479 106.356 179.71 -0.460166 -0.225402 -0.858744
99.2822 106.273 180.089 -0.460166 -0.225402 -0.858744
99.2569 107.051 179.898 -0.460166 -0.225402 -0.858744
100.825 107.257 179.433 0.791321 -0.384509 -0.475357
101.059 107.516 179.614 0.791321 -0.384509 -0.475357
100.995 106.841 180.052 0.791321 -0.384509 -0.475357
100.217 106.805 179.506 0.439929 -0.684676 -0.581103
100.825 107.257 179.433 0.439929 -0.684676 -0.581103
100.995 106.841 180.052 0.439929 -0.684676 -0.581103
100.217 106.805 179.506 0.434761 -0.694657 -0.573092
100.995 106.841 180.052 0.434761 -0.694657 -0.573092
100.612 106.389 180.31 0.434761 -0.694657 -0.573092
100.217 106.805 179.506 0.553394 -0.596977 -0.580838
100.612 106.389 180.31 0.553394 -0.596977 -0.580838
99.9479 106.356 179.71 0.553394 -0.596977 -0.580838
100.995 106.841 180.052 0.899784 -0.294983 -0.321519
101.059 107.516 179.614 0.899784 -0.294983 -0.321519
101.266 107.458 180.245 0.899784 -0.294983 -0.321519
99.2042 107.966 179.819 -0.666192 -0.102389 -0.738718
99.2569 107.051 179.898 -0.666192 -0.102389 -0.738718
98.7355 107.258 180.34 -0.666192 -0.102389 -0.738718
98.9671 108.036 180.42 -0.874988 0.299305 -0.380542
99.2042 107.966 179.819 -0.874988 0.299305 -0.380542
98.7355 107.258 180.34 -0.874988 0.299305 -0.380542
99.7917 107.43 179.451 -0.269327 0.327463 -0.905666
99.2042 107.966 179.819 -0.269327 0.327463 -0.905666
100.22 108.041 179.544 -0.269327 0.327463 -0.905666
99.2569 107.051 179.898 -0.594211 -0.103339 -0.797643
99.2042 107.966 179.819 -0.594211 -0.103339 -0.797643
99.7917 107.43 179.451 -0.594211 -0.103339 -0.797643
101.059 107.516 179.614 0.307107 0.374462 -0.874908
100.22 108.041 179.544 0.307107 0.374462 -0.874908
100.992 108.145 179.859 0.307107 0.374462 -0.874908
100.825 107.257 179.433 0.294636 0.352788 -0.888105
100.22 108.041 179.544 0.294636 0.352788 -0.888105
101.059 107.516 179.614 0.294636 0.352788 -0.888105
101.172 108.073 180.123 0.949259 0.0850719 -0.302771
101.266 107.458 180.245 0.949259 0.0850719 -0.302771
101.059 107.516 179.614 0.949259 0.0850719 -0.302771
100.992 108.145 179.859 0.826625 0.279547 -0.48841
101.172 108.073 180.123 0.826625 0.279547 -0.48841
101.059 107.516 179.614 0.826625 0.279547 -0.48841
99.2042 107.966 179.819 -0.68186 0.645078 -0.34488
98.9671 108.036 180.42 -0.68186 0.645078 -0.34488
99.377 108.401 180.291 -0.68186 0.645078 -0.34488
100.22 108.041 179.544 -0.222468 0.756181 -0.615385
99.2042 107.966 179.819 -0.222468 0.756181 -0.615385
99.377 108.401 180.291 -0.222468 0.756181 -0.615385
100.22 108.041 179.544 -0.351239 0.624737 -0.697377
99.377 108.401 180.291 -0.351239 0.624737 -0.697377
100.111 108.748 180.233 -0.351239 0.624737 -0.697377
100.992 108.145 179.859 0.0660748 0.888483 -0.454128
100.22 108.041 179.544 0.0660748 0.888483 -0.454128
100.844 108.375 180.288 0.0660748 0.888483 -0.454128
100.844 108.375 180.288 0.390023 0.672444 -0.629047
100.22 108.041 179.544 0.390023 0.672444 -0.629047
100.111 108.748 180.233 0.390023 0.672444 -0.629047
101.172 108.073 180.123 0.606284 0.768527 -0.204413
100.992 108.145 179.859 0.606284 0.768527 -0.204413
100.844 108.375 180.288 0.606284 0.768527 -0.204413
99.238 106.007 180.484 -0.728502 -0.650293 0.215416
99.2813 106.17 181.122 -0.728502 -0.650293 0.215416
98.9769 106.454 180.952 -0.728502 -0.650293 0.215416
98.9664 106.463 180.3 -0.86039 -0.509581 0.00744161
99.238 106.007 180.484 -0.86039 -0.509581 0.00744161
98.9769 106.454 180.952 -0.86039 -0.509581 0.00744161
99.9264 105.897 180.248 -0.0242788 -0.931585 0.362713
99.9669 106.168 180.945 -0.0242788 -0.931585 0.362713
99.238 106.007 180.484 -0.0242788 -0.931585 0.362713
99.238 106.007 180.484 0.0595206 -0.968167 0.243125
99.9669 106.168 180.945 0.0595206 -0.968167 0.243125
99.2813 106.17 181.122 0.0595206 -0.968167 0.243125
99.9669 106.168 180.945 0.54365 -0.792685 0.275851
99.9264 105.897 180.248 0.54365 -0.792685 0.275851
100.612 106.389 180.31 0.54365 -0.792685 0.275851
100.295 106.509 181.146 0.578464 -0.747298 0.326994
99.9669 106.168 180.945 0.578464 -0.747298 0.326994
100.612 106.389 180.31 0.578464 -0.747298 0.326994
98.9664 106.463 180.3 -0.960085 -0.279454 0.0119469
98.9769 106.454 180.952 -0.960085 -0.279454 0.0119469
98.7355 107.258 180.34 -0.960085 -0.279454 0.0119469
98.9769 106.454 180.952 -0.954491 -0.0651226 0.291043
98.9598 107.302 181.085 -0.954491 -0.0651226 0.291043
98.7355 107.258 180.34 -0.954491 -0.0651226 0.291043
100.782 107.311 180.985 0.798366 -0.444443 0.406303
100.612 106.389 180.31 0.798366 -0.444443 0.406303
100.995 106.841 180.052 0.798366 -0.444443 0.406303
100.782 107.311 180.985 0.824164 -0.425442 0.373835
100.295 106.509 181.146 0.824164 -0.425442 0.373835
100.612 106.389 180.31 0.824164 -0.425442 0.373835
100.995 106.841 180.052 0.77821 -0.471164 0.415204
101.266 107.458 180.245 0.77821 -0.471164 0.415204
100.782 107.311 180.985 0.77821 -0.471164 0.415204
98.7355 107.258 180.34 -0.931143 0.249979 0.265485
98.9598 107.302 181.085 -0.931143 0.249979 0.265485
98.9671 108.036 180.42 -0.931143 0.249979 0.265485
98.9598 107.302 181.085 -0.903721 0.292458 0.312659
99.2547 108.139 181.154 -0.903721 0.292458 0.312659
98.9671 108.036 180.42 -0.903721 0.292458 0.312659
100.657 108.22 181.025 0.758067 0.0759216 0.647742
100.782 107.311 180.985 0.758067 0.0759216 0.647742
101.087 108.063 180.54 0.758067 0.0759216 0.647742
101.266 107.458 180.245 0.961863 0.186466 0.200125
101.172 108.073 180.123 0.961863 0.186466 0.200125
101.087 108.063 180.54 0.961863 0.186466 0.200125
100.782 107.311 180.985 0.838697 -0.017995 0.5443
101.266 107.458 180.245 0.838697 -0.017995 0.5443
101.087 108.063 180.54 0.838697 -0.017995 0.5443
99.377 108.401 180.291 -0.633078 0.761103 0.141189
98.9671 108.036 180.42 -0.633078 0.761103 0.141189
99.2547 108.139 181.154 -0.633078 0.761103 0.141189
100.111 108.748 180.233 -0.416312 0.900679 0.124341
99.377 108.401 180.291 -0.416312 0.900679 0.124341
100.06 108.626 180.949 -0.416312 0.900679 0.124341
99.377 108.401 180.291 -0.470598 0.860661 0.194423
99.2547 108.139 181.154 -0.470598 0.860661 0.194423
100.06 108.626 180.949 -0.470598 0.860661 0.194423
100.657 108.22 181.025 0.613671 0.726578 0.309017
101.087 108.063 180.54 0.613671 0.726578 0.309017
100.844 108.375 180.288 0.613671 0.726578 0.309017
100.657 108.22 181.025 0.510611 0.805976 0.299465
100.844 108.375 180.288 0.510611 0.805976 0.299465
100.06 108.626 180.949 0.510611 0.805976 0.299465
100.06 108.626 180.949 0.435575 0.881623 0.181699
100.844 108.375 180.288 0.435575 0.881623 0.181699
100.111 108.748 180.233 0.435575 0.881623 0.181699
101.172 108.073 180.123 0.712018 0.683436 0.161073
100.844 108.375 180.288 0.712018 0.683436 0.161073
101.087 108.063 180.54 0.712018 0.683436 0.161073
99.2813 106.17 181.122 -0.706878 -0.412539 0.574574
99.2341 106.582 181.36 -0.706878 -0.412539 0.574574
98.9769 106.454 180.952 -0.706878 -0.412539 0.574574
99.2813 106.17 181.122 0.133363 -0.838824 0.527815
99.9669 106.168 180.945 0.133363 -0.838824 0.527815
99.8681 106.387 181.319 0.133363 -0.838824 0.527815
99.2341 106.582 181.36 -0.100327 -0.506119 0.856609
99.2813 106.17 181.122 -0.100327 -0.506119 0.856609
99.8681 106.387 181.319 -0.100327 -0.506119 0.856609
99.9669 106.168 180.945 0.426805 -0.726074 0.539123
100.295 106.509 181.146 0.426805 -0.726074 0.539123
99.8681 106.387 181.319 0.426805 -0.726074 0.539123
99.2341 106.582 181.36 -0.779591 -0.0589235 0.623511
99.2932 107.397 181.511 -0.779591 -0.0589235 0.623511
98.9598 107.302 181.085 -0.779591 -0.0589235 0.623511
98.9769 106.454 180.952 -0.826588 -0.103763 0.553159
99.2341 106.582 181.36 -0.826588 -0.103763 0.553159
98.9598 107.302 181.085 -0.826588 -0.103763 0.553159
99.8681 106.387 181.319 -0.0297675 -0.297594 0.954228
99.9826 107.11 181.548 -0.0297675 -0.297594 0.954228
99.2341 106.582 181.36 -0.0297675 -0.297594 0.954228
99.9826 107.11 181.548 -0.124202 -0.171909 0.977252
99.2932 107.397 181.511 -0.124202 -0.171909 0.977252
99.2341 106.582 181.36 -0.124202 -0.171909 0.977252
100.295 106.509 181.146 0.597961 -0.207782 0.774125
100.782 107.311 180.985 0.597961 -0.207782 0.774125
99.9826 107.11 181.548 0.597961 -0.207782 0.774125
99.8681 106.387 181.319 0.43539 -0.333781 0.836077
100.295 106.509 181.146 0.43539 -0.333781 0.836077
99.9826 107.11 181.548 0.43539 -0.333781 0.836077
98.9598 107.302 181.085 -0.790467 0.23161 0.567026
99.2932 107.397 181.511 -0.790467 0.23161 0.567026
99.2547 108.139 181.154 -0.790467 0.23161 0.567026
99.9826 107.11 181.548 -0.00255337 0.12276 0.992433
100.035 108.026 181.435 -0.00255337 0.12276 0.992433
99.2932 107.397 181.511 -0.00255337 0.12276 0.992433
100.035 108.026 181.435 -0.256411 0.407987 0.876242
99.2547 108.139 181.154 -0.256411 0.407987 0.876242
99.2932 107.397 181.511 -0.256411 0.407987 0.876242
100.782 107.311 180.985 0.542266 0.0376458 0.839363
100.657 108.22 181.025 0.542266 0.0376458 0.839363
100.035 108.026 181.435 0.542266 0.0376458 0.839363
99.9826 107.11 181.548 0.563071 0.0693773 0.823492
100.782 107.311 180.985 0.563071 0.0693773 0.823492
100.035 108.026 181.435 0.563071 0.0693773 0.823492
100.035 108.026 181.435 -0.183361 0.623786 0.759783
100.06 108.626 180.949 -0.183361 0.623786 0.759783
99.2547 108.139 181.154 -0.183361 0.623786 0.759783
100.657 108.22 181.025 0.307835 0.59151 0.74522
100.06 108.626 180.949 0.307835 0.59151 0.74522
100.035 108.026 181.435 0.307835 0.59151 0.74522
3 0 1 2
3 3 4 5
3 6 7 8
3 9 10 11
3 12 13 14
3 15 16 17
3 18 19 20
3 21 22 23
3 24 25 26
3 27 28 29
3 30 31 32
3 33 34 35
3 36 37 38
3 39 40 41
3 42 43 44
3 45 46 47
3 48 49 50
3 51 52 53
3 54 55 56
3 57 58 59
3 60 61 62
3 63 64 65
3 66 67 68
3 69 70 71
3 72 73 74
3 75 76 77
3 78 79 80
3 81 82 83
3 84 85 86
3 87 88 89
3 90 91 92
3 93 94 95
3 96 97 98
3 99 100 101
3 102 103 104
3 105 106 107
3 108 109 110
3 111 112 113
3 114 115 116
3 117 118 119
3 120 121 122
3 123 124 125
3 126 127 128
3 129 130 131
3 132 133 134
3 135 136 137
3 138 139 140
3 141 142 143
3 144 145 146
3 147 148 149
3 150 151 152
3 153 154 155
3 156 157 158
3 159 160 161
3 162 163 164
3 165 166 167
3 168 169 170
3 171 172 173
3 174 175 176
3 177 178 179
3 180 181 182
3 183 184 185
3 186 187 188
3 189 190 191
3 192 193 194
3 195 196 197
3 198 199 200
3 201 202 203
3 204 205 206
3 207 208 209
