ply
format ascii 1.0
element vertex 252
property float x
property float y
property float z
property float nx
property float ny
property float nz
element face 84
property list uint uint vertex_indices
end_header
110.252 161.612 153.188 -0.583993 -0.535932 -0.609696
110.179 161.254 153.572 -0.583993 -0.535932 -0.609696
109.887 161.722 153.44 -0.583993 -0.535932 -0.609696
110.252 161.612 153.188 0.102836 -0.261911 -0.959598
110.889 161.967 153.159 0.102836 -0.261911 -0.959598
110.834 161.399 153.308 0.102836 -0.261911 -0.959598
110.179 161.254 153.572 -0.11887 -0.714936 -0.689011
110.252 161.612 153.188 -0.11887 -0.714936 -0.689011
110.834 161.399 153.308 -0.11887 -0.714936 -0.689011
110.834 161.399 153.308 0.620205 -0.254967 -0.741848
110.889 161.967 153.159 0.620205 -0.254967 -0.741848
111.168 161.712 153.48 0.620205 -0.254967 -0.741848
110.228 162.527 153.234 -0.563429 0.0269462 -0.825725
110.252 161.612 153.188 -0.563429 0.0269462 -0.825725
109.887 161.722 153.44 -0.563429 0.0269462 -0.825725
109.732 162.518 153.655 -0.646897 0.0794898 -0.758423
110.228 162.527 153.234 -0.646897 0.0794898 -0.758423
109.887 161.722 153.44 -0.646897 0.0794898 -0.758423
110.889 161.967 153.159 -0.0712539 0.0482005 -0.996293
110.252 161.612 153.188 -0.0712539 0.0482005 -0.996293
110.228 162.527 153.234 -0.0712539 0.0482005 -0.996293
110.228 162.527 153.234 -0.394391 0.365231 -0.843245
110.73 163.563 153.447 -0.394391 0.365231 -0.843245
110.94 163.181 153.183 -0.394391 0.365231 -0.843245
110.228 162.527 153.234 -0.0919427 0.0236607 -0.995483
110.94 163.181 153.183 -0.0919427 0.0236607 -0.995483
110.889 161.967 153.159 -0.0919427 0.0236607 -0.995483
111.181 163.026 153.392 0.732648 -0.0526516 -0.678568
111.168 161.712 153.48 0.732648 -0.0526516 -0.678568
110.889 161.967 153.159 0.732648 -0.0526516 -0.678568
110.94 163.181 153.183 0.6506 -0.0122789 -0.759321
111.181 163.026 153.392 0.6506 -0.0122789 -0.759321
110.889 161.967 153.159 0.6506 -0.0122789 -0.759321
110.94 163.181 153.183 -0.146257 0.50629 -0.84987
110.73 163.563 153.447 -0.146257 0.50629 -0.84987
111.086 163.664 153.446 -0.146257 0.50629 -0.84987
111.181 163.026 153.392 0.704213 0.163348 -0.690942
110.94 163.181 153.183 0.704213 0.163348 -0.690942
111.086 163.664 153.446 0.704213 0.163348 -0.690942
110.179 161.254 153.572 -0.820253 -0.563087 -0.100583
110.237 161.025 154.384 -0.820253 -0.563087 -0.100583
109.723 161.703 154.782 -0.820253 -0.563087 -0.100583
109.887 161.722 153.44 -0.829402 -0.547774 -0.10971
110.179 161.254 153.572 -0.829402 -0.547774 -0.10971
109.723 161.703 154.782 -0.829402 -0.547774 -0.10971
110.834 161.399 153.308 0.00682473 -0.883134 -0.46907
110.913 161.024 154.015 0.00682473 -0.883134 -0.46907
110.179 161.254 153.572 0.00682473 -0.883134 -0.46907
110.179 161.254 153.572 -0.142783 -0.955236 -0.25911
110.913 161.024 154.015 -0.142783 -0.955236 -0.25911
110.237 161.025 154.384 -0.142783 -0.955236 -0.25911
110.913 161.024 154.015 0.728409 -0.5686 -0.382251
110.834 161.399 153.308 0.728409 -0.5686 -0.382251
111.168 161.712 153.48 0.728409 -0.5686 -0.382251
111.353 161.532 154.276 0.791227 -0.530793 -0.303676
110.913 161.024 154.015 0.791227 -0.530793 -0.303676
111.168 161.712 153.48 0.791227 -0.530793 -0.303676
109.887 161.722 153.44 -0.979817 -0.157953 -0.122511
109.723 161.703 154.782 -0.979817 -0.157953 -0.122511
109.732 162.518 153.655 -0.979817 -0.157953 -0.122511
109.723 161.703 154.782 -0.887252 -0.370189 -0.275217
109.511 162.535 154.346 -0.887252 -0.370189 -0.275217
109.732 162.518 153.655 -0.887252 -0.370189 -0.275217
111.353 161.532 154.276 0.962638 -0.108748 -0.247997
111.168 161.712 153.48 0.962638 -0.108748 -0.247997
111.431 162.4 154.198 0.962638 -0.108748 -0.247997
110.023 163.377 153.793 -0.616784 0.323505 -0.717581
110.228 162.527 153.234 -0.616784 0.323505 -0.717581
109.732 162.518 153.655 -0.616784 0.323505 -0.717581
110.023 163.377 153.793 -0.63212 0.326338 -0.7028
109.732 162.518 153.655 -0.63212 0.326338 -0.7028
109.514 163.419 154.27 -0.63212 0.326338 -0.7028
109.514 163.419 154.27 -0.952175 -0.0229634 -0.30469
109.732 162.518 153.655 -0.952175 -0.0229634 -0.30469
109.511 162.535 154.346 -0.952175 -0.0229634 -0.30469
110.228 162.527 153.234 -0.485033 0.396065 -0.779664
110.023 163.377 153.793 -0.485033 0.396065 -0.779664
110.73 163.563 153.447 -0.485033 0.396065 -0.779664
111.168 161.712 153.48 0.947744 -0.030523 -0.317567
111.181 163.026 153.392 0.947744 -0.030523 -0.317567
111.431 162.4 154.198 0.947744 -0.030523 -0.317567
111.431 162.4 154.198 0.966376 0.06564 -0.248612
111.181 163.026 153.392 0.966376 0.06564 -0.248612
111.363 163.369 154.189 0.966376 0.06564 -0.248612
110.114 164.213 154.088 -0.634428 0.318006 -0.704538
110.023 163.377 153.793 -0.634428 0.318006 -0.704538
109.514 163.419 154.27 -0.634428 0.318006 -0.704538
109.884 164.282 154.381 -0.68445 0.37374 -0.625977
110.114 164.213 154.088 -0.68445 0.37374 -0.625977
109.514 163.419 154.27 -0.68445 0.37374 -0.625977
110.73 163.563 153.447 -0.483386 0.338046 -0.807504
110.023 163.377 153.793 -0.483386 0.338046 -0.807504
110.114 164.213 154.088 -0.483386 0.338046 -0.807504
110.73 163.563 153.447 0.336399 0.803169 -0.491686
110.114 164.213 154.088 0.336399 0.803169 -0.491686
110.817 164.023 154.258 0.336399 0.803169 -0.491686
110.73 163.563 153.447 -0.2435 0.85449 -0.458862
110.817 164.023 154.258 -0.2435 0.85449 -0.458862
111.086 163.664 153.446 -0.2435 0.85449 -0.458862
110.817 164.023 154.258 0.300221 0.301806 -0.904865
110.114 164.213 154.088 0.300221 0.301806 -0.904865
110.204 164.445 154.195 0.300221 0.301806 -0.904865
111.363 163.369 154.189 0.943917 0.164755 -0.286141
111.181 163.026 153.392 0.943917 0.164755 -0.286141
111.086 163.664 153.446 0.943917 0.164755 -0.286141
110.817 164.023 154.258 0.765713 0.642473 -0.0302024
111.363 163.369 154.189 0.765713 0.642473 -0.0302024
111.086 163.664 153.446 0.765713 0.642473 -0.0302024
110.114 164.213 154.088 -0.778426 0.0555018 -0.625278
109.884 164.282 154.381 -0.778426 0.0555018 -0.625278
110.038 164.492 154.208 -0.778426 0.0555018 -0.625278
110.204 164.445 154.195 0.0439595 0.404911 -0.913299
110.114 164.213 154.088 0.0439595 0.404911 -0.913299
110.038 164.492 154.208 0.0439595 0.404911 -0.913299
110.237 161.025 154.384 -0.729323 -0.659736 0.18121
110.229 161.234 155.109 -0.729323 -0.659736 0.18121
109.723 161.703 154.782 -0.729323 -0.659736 0.18121
110.913 161.024 154.015 0.16009 -0.94154 0.296435
110.919 161.3 154.887 0.16009 -0.94154 0.296435
110.237 161.025 154.384 0.16009 -0.94154 0.296435
110.237 161.025 154.384 0.178668 -0.945203 0.273256
110.919 161.3 154.887 0.178668 -0.945203 0.273256
110.229 161.234 155.109 0.178668 -0.945203 0.273256
110.919 161.3 154.887 0.679623 -0.700865 0.216566
110.913 161.024 154.015 0.679623 -0.700865 0.216566
111.353 161.532 154.276 0.679623 -0.700865 0.216566
111.202 161.778 155.041 0.76221 -0.55709 0.329678
110.919 161.3 154.887 0.76221 -0.55709 0.329678
111.353 161.532 154.276 0.76221 -0.55709 0.329678
109.723 161.703 154.782 -0.962953 -0.266589 -0.0406552
109.429 162.71 155.129 -0.962953 -0.266589 -0.0406552
109.511 162.535 154.346 -0.962953 -0.266589 -0.0406552
111.353 161.532 154.276 0.974432 -0.0682327 0.214073
111.431 162.4 154.198 0.974432 -0.0682327 0.214073
111.202 161.778 155.041 0.974432 -0.0682327 0.214073
111.202 161.778 155.041 0.974873 -0.178947 0.132668
111.431 162.4 154.198 0.974873 -0.178947 0.132668
111.366 162.69 155.066 0.974873 -0.178947 0.132668
109.437 163.59 155.045 -0.995142 -0.000621974 -0.0984455
109.514 163.419 154.27 -0.995142 -0.000621974 -0.0984455
109.429 162.71 155.129 -0.995142 -0.000621974 -0.0984455
109.514 163.419 154.27 -0.994734 -0.00540612 -0.10235
109.511 162.535 154.346 -0.994734 -0.00540612 -0.10235
109.429 162.71 155.129 -0.994734 -0.00540612 -0.10235
111.431 162.4 154.198 0.99622 0.0703616 0.0509384
111.363 163.369 154.189 0.99622 0.0703616 0.0509384
111.366 162.69 155.066 0.99622 0.0703616 0.0509384
111.366 162.69 155.066 0.935949 0.280079 0.213436
111.363 163.369 154.189 0.935949 0.280079 0.213436
111.145 163.487 154.99 0.935949 0.280079 0.213436
109.437 163.59 155.045 -0.895748 0.407005 -0.178836
109.884 164.282 154.381 -0.895748 0.407005 -0.178836
109.514 163.419 154.27 -0.895748 0.407005 -0.178836
109.437 163.59 155.045 -0.526859 0.740595 0.41706
110.116 164.106 154.987 -0.526859 0.740595 0.41706
109.884 164.282 154.381 -0.526859 0.740595 0.41706
110.137 164.432 154.354 -0.435996 0.805604 0.401135
109.884 164.282 154.381 -0.435996 0.805604 0.401135
110.116 164.106 154.987 -0.435996 0.805604 0.401135
110.137 164.432 154.354 0.52313 0.802042 0.288207
110.817 164.023 154.258 0.52313 0.802042 0.288207
110.204 164.445 154.195 0.52313 0.802042 0.288207
110.137 164.432 154.354 0.512417 0.756491 0.406387
110.116 164.106 154.987 0.512417 0.756491 0.406387
110.817 164.023 154.258 0.512417 0.756491 0.406387
110.116 164.106 154.987 0.380399 0.886116 0.264754
110.805 163.749 155.192 0.380399 0.886116 0.264754
110.817 164.023 154.258 0.380399 0.886116 0.264754
111.145 163.487 154.99 0.76842 0.629306 0.116211
111.363 163.369 154.189 0.76842 0.629306 0.116211
110.817 164.023 154.258 0.76842 0.629306 0.116211
110.805 163.749 155.192 0.672965 0.707388 0.216151
111.145 163.487 154.99 0.672965 0.707388 0.216151
110.817 164.023 154.258 0.672965 0.707388 0.216151
109.884 164.282 154.381 -0.378027 0.736511 0.560934
110.137 164.432 154.354 -0.378027 0.736511 0.560934
110.038 164.492 154.208 -0.378027 0.736511 0.560934
110.204 164.445 154.195 0.280609 0.939392 0.196981
110.038 164.492 154.208 0.280609 0.939392 0.196981
110.137 164.432 154.354 0.280609 0.939392 0.196981
110.229 161.234 155.109 -0.748312 -0.51442 0.41881
110.158 161.758 155.627 -0.748312 -0.51442 0.41881
109.723 161.703 154.782 -0.748312 -0.51442 0.41881
110.229 161.234 155.109 0.249571 -0.807457 0.534535
110.919 161.3 154.887 0.249571 -0.807457 0.534535
110.833 161.568 155.331 0.249571 -0.807457 0.534535
110.158 161.758 155.627 0.118222 -0.689349 0.714717
110.229 161.234 155.109 0.118222 -0.689349 0.714717
110.833 161.568 155.331 0.118222 -0.689349 0.714717
110.919 161.3 154.887 0.686522 -0.55678 0.467636
111.202 161.778 155.041 0.686522 -0.55678 0.467636
110.833 161.568 155.331 0.686522 -0.55678 0.467636
110.158 161.758 155.627 -0.378116 -0.463501 0.801371
110.147 162.506 156.055 -0.378116 -0.463501 0.801371
109.782 162.41 155.826 -0.378116 -0.463501 0.801371
110.158 161.758 155.627 -0.729185 -0.547062 0.41111
109.782 162.41 155.826 -0.729185 -0.547062 0.41111
109.723 161.703 154.782 -0.729185 -0.547062 0.41111
109.723 161.703 154.782 -0.886104 -0.359229 0.292872
109.782 162.41 155.826 -0.886104 -0.359229 0.292872
109.429 162.71 155.129 -0.886104 -0.359229 0.292872
110.147 162.506 156.055 0.381303 -0.246553 0.890965
110.867 162.365 155.708 0.381303 -0.246553 0.890965
110.406 162.758 156.014 0.381303 -0.246553 0.890965
110.147 162.506 156.055 0.307095 -0.469259 0.827942
110.158 161.758 155.627 0.307095 -0.469259 0.827942
110.867 162.365 155.708 0.307095 -0.469259 0.827942
110.158 161.758 155.627 0.26134 -0.421104 0.868546
110.833 161.568 155.331 0.26134 -0.421104 0.868546
110.867 162.365 155.708 0.26134 -0.421104 0.868546
111.202 161.778 155.041 0.817185 -0.162022 0.553134
111.366 162.69 155.066 0.817185 -0.162022 0.553134
110.867 162.365 155.708 0.817185 -0.162022 0.553134
110.833 161.568 155.331 0.693268 -0.33145 0.639938
111.202 161.778 155.041 0.693268 -0.33145 0.639938
110.867 162.365 155.708 0.693268 -0.33145 0.639938
109.437 163.59 155.045 -0.760348 0.0688552 0.645856
109.429 162.71 155.129 -0.760348 0.0688552 0.645856
110.057 163.292 155.806 -0.760348 0.0688552 0.645856
109.429 162.71 155.129 -0.809925 0.2646 0.523458
109.782 162.41 155.826 -0.809925 0.2646 0.523458
110.057 163.292 155.806 -0.809925 0.2646 0.523458
110.916 163.24 155.56 0.60734 0.0987812 0.788277
110.406 162.758 156.014 0.60734 0.0987812 0.788277
110.867 162.365 155.708 0.60734 0.0987812 0.788277
110.057 163.292 155.806 0.266162 0.495496 0.826826
110.406 162.758 156.014 0.266162 0.495496 0.826826
110.916 163.24 155.56 0.266162 0.495496 0.826826
111.366 162.69 155.066 0.843991 0.27802 0.458676
111.145 163.487 154.99 0.843991 0.27802 0.458676
110.916 163.24 155.56 0.843991 0.27802 0.458676
110.867 162.365 155.708 0.772094 0.0633111 0.632347
111.366 162.69 155.066 0.772094 0.0633111 0.632347
110.916 163.24 155.56 0.772094 0.0633111 0.632347
109.437 163.59 155.045 -0.442661 0.652018 0.615568
110.057 163.292 155.806 -0.442661 0.652018 0.615568
110.116 164.106 154.987 -0.442661 0.652018 0.615568
110.057 163.292 155.806 0.252549 0.60326 0.756503
110.916 163.24 155.56 0.252549 0.60326 0.756503
110.805 163.749 155.192 0.252549 0.60326 0.756503
110.057 163.292 155.806 0.151436 0.695722 0.702167
110.805 163.749 155.192 0.151436 0.695722 0.702167
110.116 164.106 154.987 0.151436 0.695722 0.702167
111.145 163.487 154.99 0.694683 0.515575 0.501595
110.805 163.749 155.192 0.694683 0.515575 0.501595
110.916 163.24 155.56 0.694683 0.515575 0.501595
109.782 162.41 155.826 -0.556041 0.192034 0.808667
110.147 162.506 156.055 -0.556041 0.192034 0.808667
110.057 163.292 155.806 -0.556041 0.192034 0.808667
110.147 162.506 156.055 -0.127223 0.286227 0.949678
110.406 162.758 156.014 -0.127223 0.286227 0.949678
110.057 163.292 155.806 -0.127223 0.286227 0.949678
3 0 1 2
3 3 4 5
3 6 7 8
3 9 10 11
3 12 13 14
3 15 16 17
3 18 19 20
3 21 22 23
3 24 25 26
3 27 28 29
3 30 31 32
3 33 34 35
3 36 37 38
3 39 40 41
3 42 43 44
3 45 46 47
3 48 49 50
3 51 52 53
3 54 55 56
3 57 58 59
3 60 61 62
3 63 64 65
3 66 67 68
3 69 70 71
3 72 73 74
3 75 76 77
3 78 79 80
3 81 82 83
3 84 85 86
3 87 88 89
3 90 91 92
3 93 94 95
3 96 97 98
3 99 100 101
3 102 103 104
3 105 106 107
3 108 109 110
3 111 112 113
3 114 115 116
3 117 118 119
3 120 121 122
3 123 124 125
3 126 127 128
3 129 130 131
3 132 133 134
3 135 136 137
3 138 139 140
3 141 142 143
3 144 145 146
3 147 148 149
3 150 151 152
3 153 154 155
3 156 157 158
3 159 160 161
3 162 163 164
3 165 166 167
3 168 169 170
3 171 172 173
3 174 175 176
3 177 178 179
3 180 181 182
3 183 184 185
3 186 187 188
3 189 190 191
3 192 193 194
3 195 196 197
3 198 199 200
3 201 202 203
3 204 205 206
3 207 208 209
3 210 211 212
3 213 214 215
3 216 217 218
3 219 220 221
3 222 223 224
3 225 226 227
3 228 229 230
3 231 232 233
3 234 235 236
3 237 238 239
3 240 241 242
3 243 244 245
3 246 247 248
3 249 250 251
