ply
format ascii 1.0
element vertex 264
property float x
property float y
property float z
property float nx
property float ny
property float nz
element face 88
property list uint uint vertex_indices
end_header
55.2723 150.298 172.947 -0.222008 -0.703001 -0.675649
56.3026 150.248 172.66 -0.222008 -0.703001 -0.675649
56.0985 149.875 173.115 -0.222008 -0.703001 -0.675649
55.2549 149.93 173.32 -0.213128 -0.691467 -0.690254
55.2723 150.298 172.947 -0.213128 -0.691467 -0.690254
56.0985 149.875 173.115 -0.213128 -0.691467 -0.690254
56.0985 149.875 173.115 0.136846 -0.795393 -0.590443
56.3026 150.248 172.66 0.136846 -0.795393 -0.590443
56.8394 150.036 173.069 0.136846 -0.795393 -0.590443
54.74 151.047 173.202 -0.639744 -0.201538 -0.741694
55.2527 151.162 172.729 -0.639744 -0.201538 -0.741694
55.2723 150.298 172.947 -0.639744 -0.201538 -0.741694
56.3026 150.248 172.66 -0.264561 -0.387221 -0.883214
55.2723 150.298 172.947 -0.264561 -0.387221 -0.883214
56.1047 151.063 172.362 -0.264561 -0.387221 -0.883214
56.1047 151.063 172.362 -0.40737 -0.231969 -0.883312
55.2723 150.298 172.947 -0.40737 -0.231969 -0.883312
55.2527 151.162 172.729 -0.40737 -0.231969 -0.883312
57.0937 150.328 172.919 0.298745 -0.629762 -0.717044
56.8394 150.036 173.069 0.298745 -0.629762 -0.717044
56.3026 150.248 172.66 0.298745 -0.629762 -0.717044
57.0937 150.328 172.919 0.321887 -0.394307 -0.860762
56.3026 150.248 172.66 0.321887 -0.394307 -0.860762
57.0496 151.04 172.576 0.321887 -0.394307 -0.860762
57.0496 151.04 172.576 0.205003 -0.291822 -0.934245
56.3026 150.248 172.66 0.205003 -0.291822 -0.934245
56.1047 151.063 172.362 0.205003 -0.291822 -0.934245
57.0937 150.328 172.919 0.66445 -0.290236 -0.688672
57.0496 151.04 172.576 0.66445 -0.290236 -0.688672
57.5638 150.875 173.142 0.66445 -0.290236 -0.688672
55.0308 151.806 172.968 -0.682308 0.0359619 -0.73018
55.2527 151.162 172.729 -0.682308 0.0359619 -0.73018
54.74 151.047 173.202 -0.682308 0.0359619 -0.73018
56.1047 151.063 172.362 -0.379621 0.128066 -0.916235
55.2527 151.162 172.729 -0.379621 0.128066 -0.916235
55.8955 151.898 172.565 -0.379621 0.128066 -0.916235
55.8955 151.898 172.565 -0.430747 0.179841 -0.884372
55.2527 151.162 172.729 -0.430747 0.179841 -0.884372
55.0308 151.806 172.968 -0.430747 0.179841 -0.884372
57.0496 151.04 172.576 0.222553 0.117214 -0.967849
56.1047 151.063 172.362 0.222553 0.117214 -0.967849
56.881 151.897 172.641 0.222553 0.117214 -0.967849
56.881 151.897 172.641 0.074658 0.25366 -0.964408
56.1047 151.063 172.362 0.074658 0.25366 -0.964408
55.8955 151.898 172.565 0.074658 0.25366 -0.964408
57.5184 151.764 173.065 0.736703 -0.0207519 -0.675898
57.5638 150.875 173.142 0.736703 -0.0207519 -0.675898
57.0496 151.04 172.576 0.736703 -0.0207519 -0.675898
56.881 151.897 172.641 0.570107 0.173059 -0.803137
57.5184 151.764 173.065 0.570107 0.173059 -0.803137
57.0496 151.04 172.576 0.570107 0.173059 -0.803137
55.8955 151.898 172.565 -0.388592 0.601295 -0.698169
55.0308 151.806 172.968 -0.388592 0.601295 -0.698169
55.2533 152.207 173.189 -0.388592 0.601295 -0.698169
56.2767 152.39 173.075 -0.205149 0.776236 -0.59613
55.8955 151.898 172.565 -0.205149 0.776236 -0.59613
55.2533 152.207 173.189 -0.205149 0.776236 -0.59613
56.881 151.897 172.641 0.0554083 0.697309 -0.714626
55.8955 151.898 172.565 0.0554083 0.697309 -0.714626
56.2767 152.39 173.075 0.0554083 0.697309 -0.714626
57.1423 152.259 173.139 0.161435 0.756307 -0.633986
56.881 151.897 172.641 0.161435 0.756307 -0.633986
56.2767 152.39 173.075 0.161435 0.756307 -0.633986
57.5184 151.764 173.065 0.546884 0.514163 -0.660723
56.881 151.897 172.641 0.546884 0.514163 -0.660723
57.1423 152.259 173.139 0.546884 0.514163 -0.660723
55.2549 149.93 173.32 -0.600198 -0.786385 -0.146154
55.2364 149.819 173.995 -0.600198 -0.786385 -0.146154
54.6156 150.304 173.933 -0.600198 -0.786385 -0.146154
55.2723 150.298 172.947 -0.739565 -0.46222 -0.489282
55.2549 149.93 173.32 -0.739565 -0.46222 -0.489282
54.6156 150.304 173.933 -0.739565 -0.46222 -0.489282
56.0985 149.875 173.115 -0.103788 -0.981345 -0.161832
56.0855 149.757 173.842 -0.103788 -0.981345 -0.161832
55.2549 149.93 173.32 -0.103788 -0.981345 -0.161832
55.2549 149.93 173.32 -0.101965 -0.981069 -0.164641
56.0855 149.757 173.842 -0.101965 -0.981069 -0.164641
55.2364 149.819 173.995 -0.101965 -0.981069 -0.164641
56.8394 150.036 173.069 0.458519 -0.877868 -0.13823
57.2079 150.175 173.411 0.458519 -0.877868 -0.13823
56.9262 149.981 173.708 0.458519 -0.877868 -0.13823
56.8394 150.036 173.069 0.204936 -0.972356 -0.111912
56.9262 149.981 173.708 0.204936 -0.972356 -0.111912
56.0985 149.875 173.115 0.204936 -0.972356 -0.111912
56.0985 149.875 173.115 0.232441 -0.96059 -0.152439
56.9262 149.981 173.708 0.232441 -0.96059 -0.152439
56.0855 149.757 173.842 0.232441 -0.96059 -0.152439
56.9262 149.981 173.708 0.666714 -0.728539 0.157235
57.2079 150.175 173.411 0.666714 -0.728539 0.157235
57.2835 150.341 173.859 0.666714 -0.728539 0.157235
54.1992 151.007 173.809 -0.782528 -0.52312 -0.337632
54.6156 150.304 173.933 -0.782528 -0.52312 -0.337632
54.1382 150.913 174.096 -0.782528 -0.52312 -0.337632
54.1992 151.007 173.809 -0.637612 -0.483338 -0.599863
54.74 151.047 173.202 -0.637612 -0.483338 -0.599863
54.6156 150.304 173.933 -0.637612 -0.483338 -0.599863
54.74 151.047 173.202 -0.773018 -0.374368 -0.512145
55.2723 150.298 172.947 -0.773018 -0.374368 -0.512145
54.6156 150.304 173.933 -0.773018 -0.374368 -0.512145
56.8394 150.036 173.069 0.602855 -0.711326 -0.36136
57.0937 150.328 172.919 0.602855 -0.711326 -0.36136
57.2079 150.175 173.411 0.602855 -0.711326 -0.36136
57.2079 150.175 173.411 0.776851 -0.527178 -0.344364
57.0937 150.328 172.919 0.776851 -0.527178 -0.344364
57.5638 150.875 173.142 0.776851 -0.527178 -0.344364
57.2079 150.175 173.411 0.893768 -0.448271 0.0152268
57.5638 150.875 173.142 0.893768 -0.448271 0.0152268
57.2835 150.341 173.859 0.893768 -0.448271 0.0152268
57.2835 150.341 173.859 0.929337 -0.356036 0.0978299
57.5638 150.875 173.142 0.929337 -0.356036 0.0978299
57.6243 151.227 173.846 0.929337 -0.356036 0.0978299
54.3828 151.771 173.827 -0.963624 0.234557 -0.128107
54.1992 151.007 173.809 -0.963624 0.234557 -0.128107
54.1382 150.913 174.096 -0.963624 0.234557 -0.128107
54.74 151.047 173.202 -0.794782 0.120896 -0.594731
54.3828 151.771 173.827 -0.794782 0.120896 -0.594731
55.0308 151.806 172.968 -0.794782 0.120896 -0.594731
54.1992 151.007 173.809 -0.739218 0.192147 -0.645474
54.3828 151.771 173.827 -0.739218 0.192147 -0.645474
54.74 151.047 173.202 -0.739218 0.192147 -0.645474
57.5638 150.875 173.142 0.993484 0.0415983 -0.10611
57.5184 151.764 173.065 0.993484 0.0415983 -0.10611
57.6243 151.227 173.846 0.993484 0.0415983 -0.10611
57.6243 151.227 173.846 0.993801 0.06767 -0.0882078
57.5184 151.764 173.065 0.993801 0.06767 -0.0882078
57.5633 152.008 173.758 0.993801 0.06767 -0.0882078
55.0308 151.806 172.968 -0.643584 0.611448 -0.460359
54.3828 151.771 173.827 -0.643584 0.611448 -0.460359
55.2533 152.207 173.189 -0.643584 0.611448 -0.460359
55.2533 152.207 173.189 -0.60624 0.721843 -0.33379
54.3828 151.771 173.827 -0.60624 0.721843 -0.33379
55.0654 152.38 173.904 -0.60624 0.721843 -0.33379
56.2767 152.39 173.075 -0.195594 0.955246 -0.221919
55.2533 152.207 173.189 -0.195594 0.955246 -0.221919
55.9015 152.505 173.898 -0.195594 0.955246 -0.221919
55.2533 152.207 173.189 -0.143857 0.952589 -0.268104
55.0654 152.38 173.904 -0.143857 0.952589 -0.268104
55.9015 152.505 173.898 -0.143857 0.952589 -0.268104
57.1423 152.259 173.139 0.158475 0.978685 -0.130616
56.2767 152.39 173.075 0.158475 0.978685 -0.130616
56.9112 152.392 173.86 0.158475 0.978685 -0.130616
56.2767 152.39 173.075 0.106817 0.9903 -0.0888621
55.9015 152.505 173.898 0.106817 0.9903 -0.0888621
56.9112 152.392 173.86 0.106817 0.9903 -0.0888621
57.5633 152.008 173.758 0.748883 0.60853 -0.262424
57.5184 151.764 173.065 0.748883 0.60853 -0.262424
57.1423 152.259 173.139 0.748883 0.60853 -0.262424
56.9112 152.392 173.86 0.508497 0.861057 0.00333369
57.5633 152.008 173.758 0.508497 0.861057 0.00333369
57.1423 152.259 173.139 0.508497 0.861057 0.00333369
55.2364 149.819 173.995 -0.603642 -0.731997 0.315904
55.135 150.098 174.447 -0.603642 -0.731997 0.315904
54.6156 150.304 173.933 -0.603642 -0.731997 0.315904
55.2364 149.819 173.995 0.0348915 -0.841682 0.538845
56.0855 149.757 173.842 0.0348915 -0.841682 0.538845
55.9992 150.17 174.493 0.0348915 -0.841682 0.538845
55.135 150.098 174.447 0.0419928 -0.846224 0.531171
55.2364 149.819 173.995 0.0419928 -0.846224 0.531171
55.9992 150.17 174.493 0.0419928 -0.846224 0.531171
56.0855 149.757 173.842 0.29372 -0.889268 0.350616
56.9262 149.981 173.708 0.29372 -0.889268 0.350616
56.878 150.118 174.096 0.29372 -0.889268 0.350616
55.9992 150.17 174.493 0.198222 -0.815447 0.543833
56.0855 149.757 173.842 0.198222 -0.815447 0.543833
56.878 150.118 174.096 0.198222 -0.815447 0.543833
56.9262 149.981 173.708 0.595359 -0.731502 0.332344
57.2835 150.341 173.859 0.595359 -0.731502 0.332344
56.878 150.118 174.096 0.595359 -0.731502 0.332344
54.1382 150.913 174.096 -0.835734 -0.121059 0.535624
54.4913 150.923 174.649 -0.835734 -0.121059 0.535624
54.3074 151.28 174.443 -0.835734 -0.121059 0.535624
54.6156 150.304 173.933 -0.652218 -0.626086 0.42735
54.4913 150.923 174.649 -0.652218 -0.626086 0.42735
54.1382 150.913 174.096 -0.652218 -0.626086 0.42735
54.6156 150.304 173.933 -0.369115 -0.734209 0.569817
55.2463 150.657 174.797 -0.369115 -0.734209 0.569817
54.4913 150.923 174.649 -0.369115 -0.734209 0.569817
54.6156 150.304 173.933 -0.729435 -0.25211 0.635897
55.135 150.098 174.447 -0.729435 -0.25211 0.635897
55.2463 150.657 174.797 -0.729435 -0.25211 0.635897
55.9992 150.17 174.493 -0.00127133 -0.529656 0.848211
55.2463 150.657 174.797 -0.00127133 -0.529656 0.848211
55.135 150.098 174.447 -0.00127133 -0.529656 0.848211
56.0921 150.768 174.823 0.036274 -0.486927 0.872689
55.2463 150.657 174.797 0.036274 -0.486927 0.872689
55.9992 150.17 174.493 0.036274 -0.486927 0.872689
56.0921 150.768 174.823 0.418507 -0.120275 0.900214
56.894 150.965 174.476 0.418507 -0.120275 0.900214
56.1142 151.097 174.856 0.418507 -0.120275 0.900214
56.0921 150.768 174.823 0.444665 -0.484559 0.75331
55.9992 150.17 174.493 0.444665 -0.484559 0.75331
56.894 150.965 174.476 0.444665 -0.484559 0.75331
55.9992 150.17 174.493 0.360853 -0.388227 0.847977
56.878 150.118 174.096 0.360853 -0.388227 0.847977
56.894 150.965 174.476 0.360853 -0.388227 0.847977
57.2835 150.341 173.859 0.682691 -0.252035 0.685865
57.6243 151.227 173.846 0.682691 -0.252035 0.685865
56.894 150.965 174.476 0.682691 -0.252035 0.685865
56.878 150.118 174.096 0.604997 -0.336091 0.721818
57.2835 150.341 173.859 0.604997 -0.336091 0.721818
56.894 150.965 174.476 0.604997 -0.336091 0.721818
54.1382 150.913 174.096 -0.941555 0.310013 0.131778
54.3074 151.28 174.443 -0.941555 0.310013 0.131778
54.3828 151.771 173.827 -0.941555 0.310013 0.131778
54.9593 151.347 174.828 -0.512422 0.216217 0.831068
54.3074 151.28 174.443 -0.512422 0.216217 0.831068
54.4913 150.923 174.649 -0.512422 0.216217 0.831068
54.9593 151.347 174.828 -0.475002 0.512216 0.715547
55.1249 151.933 174.518 -0.475002 0.512216 0.715547
54.3074 151.28 174.443 -0.475002 0.512216 0.715547
55.1249 151.933 174.518 -0.578672 0.671036 0.463519
54.3828 151.771 173.827 -0.578672 0.671036 0.463519
54.3074 151.28 174.443 -0.578672 0.671036 0.463519
55.1249 151.933 174.518 -0.0170517 0.484055 0.874871
55.7273 151.326 174.866 -0.0170517 0.484055 0.874871
56.2403 151.889 174.564 -0.0170517 0.484055 0.874871
54.9593 151.347 174.828 -0.0307319 0.473552 0.88023
55.7273 151.326 174.866 -0.0307319 0.473552 0.88023
55.1249 151.933 174.518 -0.0307319 0.473552 0.88023
56.1142 151.097 174.856 0.206235 0.309436 0.928287
56.2403 151.889 174.564 0.206235 0.309436 0.928287
55.7273 151.326 174.866 0.206235 0.309436 0.928287
56.1142 151.097 174.856 0.457996 0.242459 0.855251
56.894 150.965 174.476 0.457996 0.242459 0.855251
56.2403 151.889 174.564 0.457996 0.242459 0.855251
56.894 150.965 174.476 0.302122 0.123648 0.945216
57.16 151.862 174.274 0.302122 0.123648 0.945216
56.2403 151.889 174.564 0.302122 0.123648 0.945216
57.6243 151.227 173.846 0.76286 0.130665 0.633223
57.5633 152.008 173.758 0.76286 0.130665 0.633223
57.16 151.862 174.274 0.76286 0.130665 0.633223
56.894 150.965 174.476 0.658639 -0.025683 0.752021
57.6243 151.227 173.846 0.658639 -0.025683 0.752021
57.16 151.862 174.274 0.658639 -0.025683 0.752021
55.1249 151.933 174.518 -0.605699 0.614242 0.505802
55.0654 152.38 173.904 -0.605699 0.614242 0.505802
54.3828 151.771 173.827 -0.605699 0.614242 0.505802
55.9015 152.505 173.898 -0.114583 0.797817 0.591911
55.0654 152.38 173.904 -0.114583 0.797817 0.591911
55.1249 151.933 174.518 -0.114583 0.797817 0.591911
56.2403 151.889 174.564 0.000835051 0.734784 0.678301
55.9015 152.505 173.898 0.000835051 0.734784 0.678301
55.1249 151.933 174.518 0.000835051 0.734784 0.678301
56.9112 152.392 173.86 0.108667 0.757156 0.644132
55.9015 152.505 173.898 0.108667 0.757156 0.644132
56.2403 151.889 174.564 0.108667 0.757156 0.644132
57.16 151.862 174.274 0.242903 0.665037 0.706204
56.9112 152.392 173.86 0.242903 0.665037 0.706204
56.2403 151.889 174.564 0.242903 0.665037 0.706204
57.5633 152.008 173.758 0.482631 0.66818 0.566218
56.9112 152.392 173.86 0.482631 0.66818 0.566218
57.16 151.862 174.274 0.482631 0.66818 0.566218
55.2463 150.657 174.797 -0.0177555 -0.100672 0.994761
56.0921 150.768 174.823 -0.0177555 -0.100672 0.994761
56.1142 151.097 174.856 -0.0177555 -0.100672 0.994761
54.4913 150.923 174.649 -0.237094 -0.141945 0.961061
55.2463 150.657 174.797 -0.237094 -0.141945 0.961061
54.9593 151.347 174.828 -0.237094 -0.141945 0.961061
55.7273 151.326 174.866 -0.0519222 -0.0665113 0.996434
54.9593 151.347 174.828 -0.0519222 -0.0665113 0.996434
55.2463 150.657 174.797 -0.0519222 -0.0665113 0.996434
56.1142 151.097 174.856 -0.0255439 -0.0854573 0.996014
55.7273 151.326 174.866 -0.0255439 -0.0854573 0.996014
55.2463 150.657 174.797 -0.0255439 -0.0854573 0.996014
3 0 1 2
3 3 4 5
3 6 7 8
3 9 10 11
3 12 13 14
3 15 16 17
3 18 19 20
3 21 22 23
3 24 25 26
3 27 28 29
3 30 31 32
3 33 34 35
3 36 37 38
3 39 40 41
3 42 43 44
3 45 46 47
3 48 49 50
3 51 52 53
3 54 55 56
3 57 58 59
3 60 61 62
3 63 64 65
3 66 67 68
3 69 70 71
3 72 73 74
3 75 76 77
3 78 79 80
3 81 82 83
3 84 85 86
3 87 88 89
3 90 91 92
3 93 94 95
3 96 97 98
3 99 100 101
3 102 103 104
3 105 106 107
3 108 109 110
3 111 112 113
3 114 115 116
3 117 118 119
3 120 121 122
3 123 124 125
3 126 127 128
3 129 130 131
3 132 133 134
3 135 136 137
3 138 139 140
3 141 142 143
3 144 145 146
3 147 148 149
3 150 151 152
3 153 154 155
3 156 157 158
3 159 160 161
3 162 163 164
3 165 166 167
3 168 169 170
3 171 172 173
3 174 175 176
3 177 178 179
3 180 181 182
3 183 184 185
3 186 187 188
3 189 190 191
3 192 193 194
3 195 196 197
3 198 199 200
3 201 202 203
3 204 205 206
3 207 208 209
3 210 211 212
3 213 214 215
3 216 217 218
3 219 220 221
3 222 223 224
3 225 226 227
3 228 229 230
3 231 232 233
3 234 235 236
3 237 238 239
3 240 241 242
3 243 244 245
3 246 247 248
3 249 250 251
3 252 253 254
3 255 256 257
3 258 259 260
3 261 262 263
