ply
format ascii 1.0
element vertex 390
property float x
property float y
property float z
property float nx
property float ny
property float nz
element face 130
property list uint uint vertex_indices
end_header
127.568 128.424 156.192 -0.166866 -0.668369 -0.724872
128.55 128.379 156.008 -0.166866 -0.668369 -0.724872
128.361 128.016 156.385 -0.166866 -0.668369 -0.724872
127.622 128.054 156.535 -0.178506 -0.683077 -0.708196
127.568 128.424 156.192 -0.178506 -0.683077 -0.708196
128.361 128.016 156.385 -0.178506 -0.683077 -0.708196
128.361 128.016 156.385 0.546871 -0.723567 -0.421169
128.55 128.379 156.008 0.546871 -0.723567 -0.421169
128.784 128.349 156.363 0.546871 -0.723567 -0.421169
125.679 129.409 156.427 -0.360177 -0.577688 -0.732495
126.636 129.168 156.147 -0.360177 -0.577688 -0.732495
126.333 128.85 156.546 -0.360177 -0.577688 -0.732495
125.304 129.109 156.671 -0.215631 -0.438334 -0.872563
125.679 129.409 156.427 -0.215631 -0.438334 -0.872563
126.333 128.85 156.546 -0.215631 -0.438334 -0.872563
127.568 128.424 156.192 -0.399454 -0.545549 -0.736759
126.333 128.85 156.546 -0.399454 -0.545549 -0.736759
126.636 129.168 156.147 -0.399454 -0.545549 -0.736759
127.568 128.424 156.192 -0.248025 -0.365437 -0.897184
126.636 129.168 156.147 -0.248025 -0.365437 -0.897184
127.419 129.334 155.863 -0.248025 -0.365437 -0.897184
128.55 128.379 156.008 -0.187613 -0.102548 -0.976875
127.568 128.424 156.192 -0.187613 -0.102548 -0.976875
128.339 129.089 155.974 -0.187613 -0.102548 -0.976875
128.339 129.089 155.974 0.0244448 -0.336647 -0.941314
127.568 128.424 156.192 0.0244448 -0.336647 -0.941314
127.419 129.334 155.863 0.0244448 -0.336647 -0.941314
128.787 128.949 156.261 0.827201 -0.0979542 -0.553302
128.784 128.349 156.363 0.827201 -0.0979542 -0.553302
128.55 128.379 156.008 0.827201 -0.0979542 -0.553302
128.339 129.089 155.974 0.562862 0.128452 -0.816509
128.787 128.949 156.261 0.562862 0.128452 -0.816509
128.55 128.379 156.008 0.562862 0.128452 -0.816509
125.679 129.409 156.427 -0.416265 0.406162 -0.813483
126.157 130.206 156.581 -0.416265 0.406162 -0.813483
126.557 129.899 156.222 -0.416265 0.406162 -0.813483
125.679 129.409 156.427 -0.263854 0.0709663 -0.961949
126.557 129.899 156.222 -0.263854 0.0709663 -0.961949
126.636 129.168 156.147 -0.263854 0.0709663 -0.961949
127.052 130.017 156.323 0.274659 0.634969 -0.722065
127.682 129.795 156.368 0.274659 0.634969 -0.722065
127.419 129.334 155.863 0.274659 0.634969 -0.722065
127.052 130.017 156.323 0.0313707 0.570813 -0.820481
127.419 129.334 155.863 0.0313707 0.570813 -0.820481
126.557 129.899 156.222 0.0313707 0.570813 -0.820481
126.557 129.899 156.222 -0.351784 0.0586001 -0.934245
127.419 129.334 155.863 -0.351784 0.0586001 -0.934245
126.636 129.168 156.147 -0.351784 0.0586001 -0.934245
128.339 129.089 155.974 0.258836 0.642806 -0.720975
127.419 129.334 155.863 0.258836 0.642806 -0.720975
127.682 129.795 156.368 0.258836 0.642806 -0.720975
128.437 129.399 156.48 0.454978 0.717329 -0.527669
128.339 129.089 155.974 0.454978 0.717329 -0.527669
127.682 129.795 156.368 0.454978 0.717329 -0.527669
128.787 128.949 156.261 0.538331 0.668013 -0.513769
128.339 129.089 155.974 0.538331 0.668013 -0.513769
128.437 129.399 156.48 0.538331 0.668013 -0.513769
126.557 129.899 156.222 -0.0979968 0.698718 -0.708654
126.157 130.206 156.581 -0.0979968 0.698718 -0.708654
126.619 130.207 156.518 -0.0979968 0.698718 -0.708654
127.052 130.017 156.323 -0.0183531 0.693728 -0.720003
126.557 129.899 156.222 -0.0183531 0.693728 -0.720003
126.619 130.207 156.518 -0.0183531 0.693728 -0.720003
126.891 128.19 157.112 -0.558248 -0.60653 -0.56611
127.568 128.424 156.192 -0.558248 -0.60653 -0.56611
127.622 128.054 156.535 -0.558248 -0.60653 -0.56611
126.891 128.19 157.112 -0.100468 -0.989431 0.104562
127.622 128.054 156.535 -0.100468 -0.989431 0.104562
127.766 128.097 157.074 -0.100468 -0.989431 0.104562
128.507 128.243 156.811 0.351995 -0.730772 0.58487
128.159 128.442 157.27 0.351995 -0.730772 0.58487
127.766 128.097 157.074 0.351995 -0.730772 0.58487
128.507 128.243 156.811 0.303184 -0.88027 0.364972
127.766 128.097 157.074 0.303184 -0.88027 0.364972
128.361 128.016 156.385 0.303184 -0.88027 0.364972
128.361 128.016 156.385 -0.0335933 -0.995622 0.0872271
127.766 128.097 157.074 -0.0335933 -0.995622 0.0872271
127.622 128.054 156.535 -0.0335933 -0.995622 0.0872271
128.361 128.016 156.385 0.612436 -0.765308 0.198053
128.784 128.349 156.363 0.612436 -0.765308 0.198053
128.507 128.243 156.811 0.612436 -0.765308 0.198053
124.57 129.392 157.032 -0.342582 -0.622175 -0.703943
124.392 129.061 157.411 -0.342582 -0.622175 -0.703943
123.605 129.409 157.487 -0.342582 -0.622175 -0.703943
124.57 129.392 157.032 -0.474499 -0.114873 -0.872729
125.679 129.409 156.427 -0.474499 -0.114873 -0.872729
125.304 129.109 156.671 -0.474499 -0.114873 -0.872729
124.57 129.392 157.032 -0.530526 -0.499167 -0.685109
125.304 129.109 156.671 -0.530526 -0.499167 -0.685109
124.392 129.061 157.411 -0.530526 -0.499167 -0.685109
124.392 129.061 157.411 -0.207862 -0.926077 -0.314921
125.304 129.109 156.671 -0.207862 -0.926077 -0.314921
125.49 128.816 157.409 -0.207862 -0.926077 -0.314921
126.352 128.392 157.369 -0.487539 -0.767515 -0.416205
126.333 128.85 156.546 -0.487539 -0.767515 -0.416205
126.891 128.19 157.112 -0.487539 -0.767515 -0.416205
126.352 128.392 157.369 -0.413184 -0.79963 -0.435741
125.49 128.816 157.409 -0.413184 -0.79963 -0.435741
126.333 128.85 156.546 -0.413184 -0.79963 -0.435741
125.49 128.816 157.409 -0.265982 -0.917186 -0.296688
125.304 129.109 156.671 -0.265982 -0.917186 -0.296688
126.333 128.85 156.546 -0.265982 -0.917186 -0.296688
127.568 128.424 156.192 -0.406806 -0.76739 -0.495603
126.891 128.19 157.112 -0.406806 -0.76739 -0.495603
126.333 128.85 156.546 -0.406806 -0.76739 -0.495603
128.62 128.895 156.796 0.765738 -0.11806 0.632224
128.159 128.442 157.27 0.765738 -0.11806 0.632224
128.507 128.243 156.811 0.765738 -0.11806 0.632224
128.239 129.146 157.18 0.71274 0.00817941 0.701381
128.159 128.442 157.27 0.71274 0.00817941 0.701381
128.62 128.895 156.796 0.71274 0.00817941 0.701381
128.784 128.349 156.363 0.95227 0.0473208 0.301566
128.787 128.949 156.261 0.95227 0.0473208 0.301566
128.62 128.895 156.796 0.95227 0.0473208 0.301566
128.507 128.243 156.811 0.856266 -0.13686 0.498075
128.784 128.349 156.363 0.856266 -0.13686 0.498075
128.62 128.895 156.796 0.856266 -0.13686 0.498075
124.356 130.194 157.231 -0.421774 0.111166 -0.89986
124.57 129.392 157.032 -0.421774 0.111166 -0.89986
123.605 129.409 157.487 -0.421774 0.111166 -0.89986
123.513 130.313 157.618 -0.404033 0.0908003 -0.910226
124.356 130.194 157.231 -0.404033 0.0908003 -0.910226
123.605 129.409 157.487 -0.404033 0.0908003 -0.910226
125.679 129.409 156.427 -0.44568 0.389989 -0.805778
124.57 129.392 157.032 -0.44568 0.389989 -0.805778
125.275 130.085 156.978 -0.44568 0.389989 -0.805778
124.57 129.392 157.032 -0.243144 0.172368 -0.954552
124.356 130.194 157.231 -0.243144 0.172368 -0.954552
125.275 130.085 156.978 -0.243144 0.172368 -0.954552
125.679 129.409 156.427 -0.420903 0.408274 -0.810033
125.275 130.085 156.978 -0.420903 0.408274 -0.810033
126.157 130.206 156.581 -0.420903 0.408274 -0.810033
127.682 129.795 156.368 0.518873 0.850093 0.0900694
127.119 130.057 157.138 0.518873 0.850093 0.0900694
127.743 129.679 157.109 0.518873 0.850093 0.0900694
127.052 130.017 156.323 0.335394 0.93914 -0.0743456
127.119 130.057 157.138 0.335394 0.93914 -0.0743456
127.682 129.795 156.368 0.335394 0.93914 -0.0743456
128.239 129.146 157.18 0.750514 0.524437 0.402113
128.62 128.895 156.796 0.750514 0.524437 0.402113
128.437 129.399 156.48 0.750514 0.524437 0.402113
128.239 129.146 157.18 0.638279 0.648402 0.414939
128.437 129.399 156.48 0.638279 0.648402 0.414939
127.743 129.679 157.109 0.638279 0.648402 0.414939
127.743 129.679 157.109 0.450737 0.886867 0.101499
128.437 129.399 156.48 0.450737 0.886867 0.101499
127.682 129.795 156.368 0.450737 0.886867 0.101499
128.787 128.949 156.261 0.818689 0.487415 0.303604
128.437 129.399 156.48 0.818689 0.487415 0.303604
128.62 128.895 156.796 0.818689 0.487415 0.303604
124.325 130.956 157.351 -0.398337 0.125741 -0.90858
124.356 130.194 157.231 -0.398337 0.125741 -0.90858
123.513 130.313 157.618 -0.398337 0.125741 -0.90858
124.147 131.083 157.564 -0.562287 0.412749 -0.716569
124.325 130.956 157.351 -0.562287 0.412749 -0.716569
123.513 130.313 157.618 -0.562287 0.412749 -0.716569
125.275 130.085 156.978 -0.160781 0.551471 -0.818553
124.356 130.194 157.231 -0.160781 0.551471 -0.818553
125.341 130.864 157.489 -0.160781 0.551471 -0.818553
125.341 130.864 157.489 0.147678 0.158862 -0.976194
124.356 130.194 157.231 0.147678 0.158862 -0.976194
124.325 130.956 157.351 0.147678 0.158862 -0.976194
126.157 130.206 156.581 -0.408381 0.525217 -0.746574
125.275 130.085 156.978 -0.408381 0.525217 -0.746574
125.341 130.864 157.489 -0.408381 0.525217 -0.746574
126.157 130.206 156.581 0.197104 0.869767 -0.452389
125.341 130.864 157.489 0.197104 0.869767 -0.452389
126.425 130.456 157.178 0.197104 0.869767 -0.452389
126.157 130.206 156.581 -0.0521426 0.929453 -0.365236
126.425 130.456 157.178 -0.0521426 0.929453 -0.365236
126.619 130.207 156.518 -0.0521426 0.929453 -0.365236
127.119 130.057 157.138 0.37255 0.924839 -0.0766771
127.052 130.017 156.323 0.37255 0.924839 -0.0766771
126.619 130.207 156.518 0.37255 0.924839 -0.0766771
126.425 130.456 157.178 0.482085 0.857109 -0.181542
127.119 130.057 157.138 0.482085 0.857109 -0.181542
126.619 130.207 156.518 0.482085 0.857109 -0.181542
124.325 130.956 157.351 -0.419715 0.580646 -0.697632
124.147 131.083 157.564 -0.419715 0.580646 -0.697632
124.464 131.209 157.478 -0.419715 0.580646 -0.697632
125.341 130.864 157.489 0.15859 0.372587 -0.914346
124.325 130.956 157.351 0.15859 0.372587 -0.914346
124.464 131.209 157.478 0.15859 0.372587 -0.914346
125.486 128.401 158.167 -0.370436 -0.680311 -0.632419
125.344 128.318 158.339 -0.370436 -0.680311 -0.632419
124.636 128.818 158.217 -0.370436 -0.680311 -0.632419
126.755 128.345 157.798 -0.280153 -0.946601 0.159568
126.352 128.392 157.369 -0.280153 -0.946601 0.159568
126.891 128.19 157.112 -0.280153 -0.946601 0.159568
125.86 128.385 158.355 0.130261 -0.930786 -0.341568
125.344 128.318 158.339 0.130261 -0.930786 -0.341568
125.486 128.401 158.167 0.130261 -0.930786 -0.341568
126.891 128.19 157.112 -0.0868497 -0.94538 0.314189
127.766 128.097 157.074 -0.0868497 -0.94538 0.314189
127.454 128.288 157.564 -0.0868497 -0.94538 0.314189
126.755 128.345 157.798 -0.00630611 -0.975395 0.220373
126.891 128.19 157.112 -0.00630611 -0.975395 0.220373
127.454 128.288 157.564 -0.00630611 -0.975395 0.220373
127.766 128.097 157.074 0.389017 -0.747016 0.539104
128.159 128.442 157.27 0.389017 -0.747016 0.539104
127.454 128.288 157.564 0.389017 -0.747016 0.539104
123.605 129.409 157.487 -0.484953 -0.821924 -0.298766
123.597 129.146 158.224 -0.484953 -0.821924 -0.298766
123.092 129.468 158.157 -0.484953 -0.821924 -0.298766
123.605 129.409 157.487 -0.409109 -0.857916 -0.310822
124.392 129.061 157.411 -0.409109 -0.857916 -0.310822
123.597 129.146 158.224 -0.409109 -0.857916 -0.310822
123.597 129.146 158.224 -0.29668 -0.935294 -0.192887
124.392 129.061 157.411 -0.29668 -0.935294 -0.192887
124.636 128.818 158.217 -0.29668 -0.935294 -0.192887
124.636 128.818 158.217 -0.416174 -0.796835 -0.438011
125.49 128.816 157.409 -0.416174 -0.796835 -0.438011
125.486 128.401 158.167 -0.416174 -0.796835 -0.438011
124.636 128.818 158.217 -0.213276 -0.951216 -0.22294
124.392 129.061 157.411 -0.213276 -0.951216 -0.22294
125.49 128.816 157.409 -0.213276 -0.951216 -0.22294
125.486 128.401 158.167 0.197578 -0.860604 -0.469387
126.381 128.637 158.112 0.197578 -0.860604 -0.469387
125.86 128.385 158.355 0.197578 -0.860604 -0.469387
125.486 128.401 158.167 0.197623 -0.860719 -0.469157
125.49 128.816 157.409 0.197623 -0.860719 -0.469157
126.381 128.637 158.112 0.197623 -0.860719 -0.469157
126.755 128.345 157.798 -0.417721 -0.858157 0.298455
126.381 128.637 158.112 -0.417721 -0.858157 0.298455
126.352 128.392 157.369 -0.417721 -0.858157 0.298455
126.352 128.392 157.369 -0.40964 -0.861747 0.299312
126.381 128.637 158.112 -0.40964 -0.861747 0.299312
125.49 128.816 157.409 -0.40964 -0.861747 0.299312
126.381 128.637 158.112 0.451257 -0.40489 0.795256
127.393 129.123 157.786 0.451257 -0.40489 0.795256
126.779 129.339 158.244 0.451257 -0.40489 0.795256
126.381 128.637 158.112 0.43391 -0.343599 0.832863
126.755 128.345 157.798 0.43391 -0.343599 0.832863
127.393 129.123 157.786 0.43391 -0.343599 0.832863
126.755 128.345 157.798 0.29184 -0.225526 0.929498
127.454 128.288 157.564 0.29184 -0.225526 0.929498
127.393 129.123 157.786 0.29184 -0.225526 0.929498
128.159 128.442 157.27 0.581431 0.0372394 0.812743
128.239 129.146 157.18 0.581431 0.0372394 0.812743
127.393 129.123 157.786 0.581431 0.0372394 0.812743
127.454 128.288 157.564 0.415655 -0.204881 0.886146
128.159 128.442 157.27 0.415655 -0.204881 0.886146
127.393 129.123 157.786 0.415655 -0.204881 0.886146
123.513 130.313 157.618 -0.793847 0.0071884 -0.608076
123.605 129.409 157.487 -0.793847 0.0071884 -0.608076
123.092 129.468 158.157 -0.793847 0.0071884 -0.608076
123.071 130.082 158.314 -0.854943 0.100864 -0.50882
123.513 130.313 157.618 -0.854943 0.100864 -0.50882
123.092 129.468 158.157 -0.854943 0.100864 -0.50882
126.779 129.339 158.244 0.594766 0.448693 0.66703
126.563 130.102 157.924 0.594766 0.448693 0.66703
126.142 130.138 158.275 0.594766 0.448693 0.66703
127.393 129.123 157.786 0.631008 0.445534 0.635081
126.563 130.102 157.924 0.631008 0.445534 0.635081
126.779 129.339 158.244 0.631008 0.445534 0.635081
127.393 129.123 157.786 0.705265 0.531889 0.468717
127.119 130.057 157.138 0.705265 0.531889 0.468717
126.563 130.102 157.924 0.705265 0.531889 0.468717
127.393 129.123 157.786 0.395184 0.599041 0.696405
127.743 129.679 157.109 0.395184 0.599041 0.696405
127.119 130.057 157.138 0.395184 0.599041 0.696405
128.239 129.146 157.18 0.480788 0.539121 0.691514
127.743 129.679 157.109 0.480788 0.539121 0.691514
127.393 129.123 157.786 0.480788 0.539121 0.691514
123.513 130.313 157.618 -0.837808 0.35702 -0.413055
123.071 130.082 158.314 -0.837808 0.35702 -0.413055
123.326 130.61 158.254 -0.837808 0.35702 -0.413055
123.326 130.61 158.254 -0.518305 0.706139 -0.482419
123.853 130.955 158.193 -0.518305 0.706139 -0.482419
123.513 130.313 157.618 -0.518305 0.706139 -0.482419
123.853 130.955 158.193 -0.758859 0.6088 -0.231292
124.147 131.083 157.564 -0.758859 0.6088 -0.231292
123.513 130.313 157.618 -0.758859 0.6088 -0.231292
125.341 130.864 157.489 0.525393 0.845083 0.0989806
124.806 131.115 158.183 0.525393 0.845083 0.0989806
125.283 130.806 158.288 0.525393 0.845083 0.0989806
126.142 130.138 158.275 0.611864 0.784507 0.100852
125.341 130.864 157.489 0.611864 0.784507 0.100852
125.283 130.806 158.288 0.611864 0.784507 0.100852
126.563 130.102 157.924 0.388598 0.839654 0.379437
125.341 130.864 157.489 0.388598 0.839654 0.379437
126.142 130.138 158.275 0.388598 0.839654 0.379437
126.563 130.102 157.924 0.413324 0.849676 0.327435
126.425 130.456 157.178 0.413324 0.849676 0.327435
125.341 130.864 157.489 0.413324 0.849676 0.327435
127.119 130.057 157.138 0.488526 0.819635 0.299233
126.425 130.456 157.178 0.488526 0.819635 0.299233
126.563 130.102 157.924 0.488526 0.819635 0.299233
124.147 131.083 157.564 -0.359309 0.932982 0.0210387
123.853 130.955 158.193 -0.359309 0.932982 0.0210387
124.422 131.178 158.047 -0.359309 0.932982 0.0210387
124.464 131.209 157.478 -0.364587 0.930848 0.0244538
124.147 131.083 157.564 -0.364587 0.930848 0.0244538
124.422 131.178 158.047 -0.364587 0.930848 0.0244538
124.806 131.115 158.183 0.219039 0.95917 -0.178929
125.341 130.864 157.489 0.219039 0.95917 -0.178929
124.422 131.178 158.047 0.219039 0.95917 -0.178929
124.422 131.178 158.047 0.36464 0.927823 0.0786214
125.341 130.864 157.489 0.36464 0.927823 0.0786214
124.464 131.209 157.478 0.36464 0.927823 0.0786214
125.344 128.318 158.339 -0.507514 -0.559268 0.655476
125.34 128.564 158.546 -0.507514 -0.559268 0.655476
124.636 128.818 158.217 -0.507514 -0.559268 0.655476
125.344 128.318 158.339 0.0588532 -0.641244 0.765076
125.86 128.385 158.355 0.0588532 -0.641244 0.765076
125.34 128.564 158.546 0.0588532 -0.641244 0.765076
123.597 129.146 158.224 -0.532173 -0.751615 0.389702
123.423 129.508 158.685 -0.532173 -0.751615 0.389702
123.092 129.468 158.157 -0.532173 -0.751615 0.389702
123.597 129.146 158.224 -0.256756 -0.823945 0.505164
124.636 128.818 158.217 -0.256756 -0.823945 0.505164
124.434 129.259 158.833 -0.256756 -0.823945 0.505164
123.423 129.508 158.685 -0.275708 -0.803627 0.527417
123.597 129.146 158.224 -0.275708 -0.803627 0.527417
124.434 129.259 158.833 -0.275708 -0.803627 0.527417
124.636 128.818 158.217 -0.471312 -0.783099 0.405735
125.34 128.564 158.546 -0.471312 -0.783099 0.405735
124.434 129.259 158.833 -0.471312 -0.783099 0.405735
124.434 129.259 158.833 0.00788074 -0.373513 0.927591
125.34 128.564 158.546 0.00788074 -0.373513 0.927591
125.358 129.203 158.803 0.00788074 -0.373513 0.927591
125.86 128.385 158.355 0.531144 -0.357962 0.767952
126.381 128.637 158.112 0.531144 -0.357962 0.767952
126.143 129.155 158.519 0.531144 -0.357962 0.767952
125.86 128.385 158.355 0.241542 -0.285337 0.927492
126.143 129.155 158.519 0.241542 -0.285337 0.927492
125.34 128.564 158.546 0.241542 -0.285337 0.927492
125.34 128.564 158.546 0.297617 -0.363732 0.882679
126.143 129.155 158.519 0.297617 -0.363732 0.882679
125.358 129.203 158.803 0.297617 -0.363732 0.882679
126.381 128.637 158.112 0.458686 -0.408001 0.789394
126.779 129.339 158.244 0.458686 -0.408001 0.789394
126.143 129.155 158.519 0.458686 -0.408001 0.789394
123.423 129.508 158.685 -0.664211 0.0730498 0.743968
123.495 130.334 158.667 -0.664211 0.0730498 0.743968
123.071 130.082 158.314 -0.664211 0.0730498 0.743968
123.092 129.468 158.157 -0.830266 -0.165333 0.532281
123.423 129.508 158.685 -0.830266 -0.165333 0.532281
123.071 130.082 158.314 -0.830266 -0.165333 0.532281
124.434 129.259 158.833 -0.182595 -0.162011 0.969748
124.209 130.084 158.929 -0.182595 -0.162011 0.969748
123.423 129.508 158.685 -0.182595 -0.162011 0.969748
124.209 130.084 158.929 -0.328559 0.0482783 0.943249
123.495 130.334 158.667 -0.328559 0.0482783 0.943249
123.423 129.508 158.685 -0.328559 0.0482783 0.943249
125.358 129.203 158.803 0.0361016 0.0601768 0.997535
125.257 130.055 158.756 0.0361016 0.0601768 0.997535
124.434 129.259 158.833 0.0361016 0.0601768 0.997535
125.257 130.055 158.756 0.160851 -0.070096 0.984486
124.209 130.084 158.929 0.160851 -0.070096 0.984486
124.434 129.259 158.833 0.160851 -0.070096 0.984486
126.142 130.138 158.275 0.450388 0.215245 0.866499
125.257 130.055 158.756 0.450388 0.215245 0.866499
126.143 129.155 158.519 0.450388 0.215245 0.866499
126.143 129.155 158.519 0.344458 0.0931548 0.934169
125.257 130.055 158.756 0.344458 0.0931548 0.934169
125.358 129.203 158.803 0.344458 0.0931548 0.934169
126.779 129.339 158.244 0.329535 0.227431 0.916342
126.142 130.138 158.275 0.329535 0.227431 0.916342
126.143 129.155 158.519 0.329535 0.227431 0.916342
123.071 130.082 158.314 -0.715635 0.409167 0.566082
123.495 130.334 158.667 -0.715635 0.409167 0.566082
123.326 130.61 158.254 -0.715635 0.409167 0.566082
123.853 130.955 158.193 -0.379561 0.689742 0.616596
123.326 130.61 158.254 -0.379561 0.689742 0.616596
123.495 130.334 158.667 -0.379561 0.689742 0.616596
123.853 130.955 158.193 -0.303302 0.68262 0.664859
123.495 130.334 158.667 -0.303302 0.68262 0.664859
124.405 130.901 158.5 -0.303302 0.68262 0.664859
124.405 130.901 158.5 -0.14516 0.486523 0.861524
123.495 130.334 158.667 -0.14516 0.486523 0.861524
124.209 130.084 158.929 -0.14516 0.486523 0.861524
125.283 130.806 158.288 0.246605 0.630411 0.736049
124.806 131.115 158.183 0.246605 0.630411 0.736049
124.405 130.901 158.5 0.246605 0.630411 0.736049
125.283 130.806 158.288 0.25448 0.504898 0.824814
124.405 130.901 158.5 0.25448 0.504898 0.824814
125.257 130.055 158.756 0.25448 0.504898 0.824814
125.257 130.055 158.756 0.15883 0.428141 0.889645
124.405 130.901 158.5 0.15883 0.428141 0.889645
124.209 130.084 158.929 0.15883 0.428141 0.889645
126.142 130.138 158.275 0.384045 0.478505 0.789647
125.283 130.806 158.288 0.384045 0.478505 0.789647
125.257 130.055 158.756 0.384045 0.478505 0.789647
123.853 130.955 158.193 -0.199059 0.839621 0.505383
124.405 130.901 158.5 -0.199059 0.839621 0.505383
124.422 131.178 158.047 -0.199059 0.839621 0.505383
124.806 131.115 158.183 -0.0446985 0.853424 0.519296
124.422 131.178 158.047 -0.0446985 0.853424 0.519296
124.405 130.901 158.5 -0.0446985 0.853424 0.519296
3 0 1 2
3 3 4 5
3 6 7 8
3 9 10 11
3 12 13 14
3 15 16 17
3 18 19 20
3 21 22 23
3 24 25 26
3 27 28 29
3 30 31 32
3 33 34 35
3 36 37 38
3 39 40 41
3 42 43 44
3 45 46 47
3 48 49 50
3 51 52 53
3 54 55 56
3 57 58 59
3 60 61 62
3 63 64 65
3 66 67 68
3 69 70 71
3 72 73 74
3 75 76 77
3 78 79 80
3 81 82 83
3 84 85 86
3 87 88 89
3 90 91 92
3 93 94 95
3 96 97 98
3 99 100 101
3 102 103 104
3 105 106 107
3 108 109 110
3 111 112 113
3 114 115 116
3 117 118 119
3 120 121 122
3 123 124 125
3 126 127 128
3 129 130 131
3 132 133 134
3 135 136 137
3 138 139 140
3 141 142 143
3 144 145 146
3 147 148 149
3 150 151 152
3 153 154 155
3 156 157 158
3 159 160 161
3 162 163 164
3 165 166 167
3 168 169 170
3 171 172 173
3 174 175 176
3 177 178 179
3 180 181 182
3 183 184 185
3 186 187 188
3 189 190 191
3 192 193 194
3 195 196 197
3 198 199 200
3 201 202 203
3 204 205 206
3 207 208 209
3 210 211 212
3 213 214 215
3 216 217 218
3 219 220 221
3 222 223 224
3 225 226 227
3 228 229 230
3 231 232 233
3 234 235 236
3 237 238 239
3 240 241 242
3 243 244 245
3 246 247 248
3 249 250 251
3 252 253 254
3 255 256 257
3 258 259 260
3 261 262 263
3 264 265 266
3 267 268 269
3 270 271 272
3 273 274 275
3 276 277 278
3 279 280 281
3 282 283 284
3 285 286 287
3 288 289 290
3 291 292 293
3 294 295 296
3 297 298 299
3 300 301 302
3 303 304 305
3 306 307 308
3 309 310 311
3 312 313 314
3 315 316 317
3 318 319 320
3 321 322 323
3 324 325 326
3 327 328 329
3 330 331 332
3 333 334 335
3 336 337 338
3 339 340 341
3 342 343 344
3 345 346 347
3 348 349 350
3 351 352 353
3 354 355 356
3 357 358 359
3 360 361 362
3 363 364 365
3 366 367 368
3 369 370 371
3 372 373 374
3 375 376 377
3 378 379 380
3 381 382 383
3 384 385 386
3 387 388 389
