ply
format ascii 1.0
element vertex 222
property float x
property float y
property float z
property float nx
property float ny
property float nz
element face 74
property list uint uint vertex_indices
end_header
114.342 174.194 140.646 -0.257622 -0.451381 -0.854334
114.148 173.787 140.92 -0.257622 -0.451381 -0.854334
113.966 174.206 140.753 -0.257622 -0.451381 -0.854334
114.148 173.787 140.92 0.536617 -0.63157 -0.559608
114.342 174.194 140.646 0.536617 -0.63157 -0.559608
114.463 174.042 140.935 0.536617 -0.63157 -0.559608
114.267 174.975 140.836 -0.263298 0.205044 -0.942672
114.342 174.194 140.646 -0.263298 0.205044 -0.942672
113.966 174.206 140.753 -0.263298 0.205044 -0.942672
114.516 174.794 140.979 0.913319 -0.0399858 -0.405278
114.463 174.042 140.935 0.913319 -0.0399858 -0.405278
114.342 174.194 140.646 0.913319 -0.0399858 -0.405278
114.267 174.975 140.836 0.608921 0.24283 -0.755148
114.516 174.794 140.979 0.608921 0.24283 -0.755148
114.342 174.194 140.646 0.608921 0.24283 -0.755148
113.534 174.054 141.133 -0.840363 -0.474977 -0.261127
113.518 173.764 141.712 -0.840363 -0.474977 -0.261127
113.292 174.208 141.634 -0.840363 -0.474977 -0.261127
113.534 174.054 141.133 -0.470026 -0.494687 -0.730999
113.966 174.206 140.753 -0.470026 -0.494687 -0.730999
114.148 173.787 140.92 -0.470026 -0.494687 -0.730999
113.534 174.054 141.133 -0.479921 -0.778859 -0.4038
114.148 173.787 140.92 -0.479921 -0.778859 -0.4038
113.518 173.764 141.712 -0.479921 -0.778859 -0.4038
113.518 173.764 141.712 -0.0413801 -0.997248 -0.0615071
114.148 173.787 140.92 -0.0413801 -0.997248 -0.0615071
114.192 173.737 141.696 -0.0413801 -0.997248 -0.0615071
114.192 173.737 141.696 0.628674 -0.772984 -0.0852281
114.148 173.787 140.92 0.628674 -0.772984 -0.0852281
114.463 174.042 140.935 0.628674 -0.772984 -0.0852281
114.522 174.271 141.696 0.846803 -0.523862 0.0921605
114.192 173.737 141.696 0.846803 -0.523862 0.0921605
114.463 174.042 140.935 0.846803 -0.523862 0.0921605
113.534 174.916 141.042 -0.90435 -0.0453828 -0.424371
113.534 174.054 141.133 -0.90435 -0.0453828 -0.424371
113.292 174.208 141.634 -0.90435 -0.0453828 -0.424371
113.168 175.015 141.764 -0.894031 -0.0647475 -0.443302
113.534 174.916 141.042 -0.894031 -0.0647475 -0.443302
113.292 174.208 141.634 -0.894031 -0.0647475 -0.443302
113.966 174.206 140.753 -0.279363 0.210706 -0.936781
113.534 174.916 141.042 -0.279363 0.210706 -0.936781
114.267 174.975 140.836 -0.279363 0.210706 -0.936781
113.534 174.054 141.133 -0.642516 -0.0811894 -0.761959
113.534 174.916 141.042 -0.642516 -0.0811894 -0.761959
113.966 174.206 140.753 -0.642516 -0.0811894 -0.761959
114.463 174.042 140.935 0.996189 -0.0662806 -0.0566937
114.516 174.794 140.979 0.996189 -0.0662806 -0.0566937
114.522 174.271 141.696 0.996189 -0.0662806 -0.0566937
114.522 174.271 141.696 0.893887 -0.358627 -0.268984
114.516 174.794 140.979 0.893887 -0.358627 -0.268984
114.801 174.981 141.679 0.893887 -0.358627 -0.268984
113.399 175.81 141.361 -0.89046 0.0280685 -0.454195
113.534 174.916 141.042 -0.89046 0.0280685 -0.454195
113.168 175.015 141.764 -0.89046 0.0280685 -0.454195
113.07 175.914 141.967 -0.877828 0.011894 -0.478828
113.399 175.81 141.361 -0.877828 0.011894 -0.478828
113.168 175.015 141.764 -0.877828 0.011894 -0.478828
114.267 174.975 140.836 -0.275863 0.421184 -0.864004
113.534 174.916 141.042 -0.275863 0.421184 -0.864004
114.103 175.849 141.315 -0.275863 0.421184 -0.864004
113.534 174.916 141.042 -0.0787593 0.324145 -0.942723
113.399 175.81 141.361 -0.0787593 0.324145 -0.942723
114.103 175.849 141.315 -0.0787593 0.324145 -0.942723
114.267 174.975 140.836 0.620281 0.463109 -0.633072
114.103 175.849 141.315 0.620281 0.463109 -0.633072
114.584 175.659 141.647 0.620281 0.463109 -0.633072
114.267 174.975 140.836 0.662297 0.424832 -0.617155
114.584 175.659 141.647 0.662297 0.424832 -0.617155
114.516 174.794 140.979 0.662297 0.424832 -0.617155
114.516 174.794 140.979 0.868101 0.259075 -0.423416
114.584 175.659 141.647 0.868101 0.259075 -0.423416
114.801 174.981 141.679 0.868101 0.259075 -0.423416
113.399 175.81 141.361 -0.665292 0.586479 -0.461984
113.07 175.914 141.967 -0.665292 0.586479 -0.461984
113.572 176.375 141.83 -0.665292 0.586479 -0.461984
114.103 175.849 141.315 -0.084976 0.651846 -0.753576
113.399 175.81 141.361 -0.084976 0.651846 -0.753576
113.572 176.375 141.83 -0.084976 0.651846 -0.753576
114.275 176.193 141.873 0.2392 0.791889 -0.561868
114.103 175.849 141.315 0.2392 0.791889 -0.561868
113.572 176.375 141.83 0.2392 0.791889 -0.561868
114.584 175.659 141.647 0.605531 0.580299 -0.544597
114.103 175.849 141.315 0.605531 0.580299 -0.544597
114.275 176.193 141.873 0.605531 0.580299 -0.544597
113.518 173.764 141.712 -0.784015 -0.618676 0.0505928
113.552 173.786 142.503 -0.784015 -0.618676 0.0505928
113.209 174.223 142.536 -0.784015 -0.618676 0.0505928
113.292 174.208 141.634 -0.882984 -0.463708 -0.0728984
113.518 173.764 141.712 -0.882984 -0.463708 -0.0728984
113.209 174.223 142.536 -0.882984 -0.463708 -0.0728984
114.147 174.222 142.674 0.457952 -0.788127 0.411262
113.552 173.786 142.503 0.457952 -0.788127 0.411262
114.192 173.737 141.696 0.457952 -0.788127 0.411262
114.192 173.737 141.696 -0.0393887 -0.998784 0.0296462
113.552 173.786 142.503 -0.0393887 -0.998784 0.0296462
113.518 173.764 141.712 -0.0393887 -0.998784 0.0296462
114.192 173.737 141.696 0.814729 -0.503986 0.286731
114.522 174.271 141.696 0.814729 -0.503986 0.286731
114.147 174.222 142.674 0.814729 -0.503986 0.286731
113.292 174.208 141.634 -0.986732 -0.136517 -0.0878822
113.209 174.223 142.536 -0.986732 -0.136517 -0.0878822
113.168 175.015 141.764 -0.986732 -0.136517 -0.0878822
113.209 174.223 142.536 -0.962883 -0.212208 -0.166803
113.001 175.13 142.584 -0.962883 -0.212208 -0.166803
113.168 175.015 141.764 -0.962883 -0.212208 -0.166803
114.147 174.222 142.674 0.858102 -0.410848 0.308002
114.522 174.271 141.696 0.858102 -0.410848 0.308002
114.626 175.081 142.486 0.858102 -0.410848 0.308002
114.626 175.081 142.486 0.905251 -0.350624 0.239967
114.522 174.271 141.696 0.905251 -0.350624 0.239967
114.801 174.981 141.679 0.905251 -0.350624 0.239967
113.168 175.015 141.764 -0.979471 -0.0639423 -0.191173
113.001 175.13 142.584 -0.979471 -0.0639423 -0.191173
113.07 175.914 141.967 -0.979471 -0.0639423 -0.191173
113.001 175.13 142.584 -0.952044 -0.132869 -0.275606
112.809 175.885 142.882 -0.952044 -0.132869 -0.275606
113.07 175.914 141.967 -0.952044 -0.132869 -0.275606
114.801 174.981 141.679 0.936827 0.308461 0.164944
114.584 175.659 141.647 0.936827 0.308461 0.164944
114.626 175.081 142.486 0.936827 0.308461 0.164944
114.626 175.081 142.486 0.97978 0.184543 0.0772971
114.584 175.659 141.647 0.97978 0.184543 0.0772971
114.471 175.911 142.479 0.97978 0.184543 0.0772971
113.07 175.914 141.967 -0.759078 0.620444 -0.197104
112.809 175.885 142.882 -0.759078 0.620444 -0.197104
113.317 176.419 142.603 -0.759078 0.620444 -0.197104
113.572 176.375 141.83 -0.690757 0.672737 -0.265103
113.07 175.914 141.967 -0.690757 0.672737 -0.265103
113.317 176.419 142.603 -0.690757 0.672737 -0.265103
114.275 176.193 141.873 0.246433 0.967164 0.0621667
113.572 176.375 141.83 0.246433 0.967164 0.0621667
114.051 176.196 142.706 0.246433 0.967164 0.0621667
113.572 176.375 141.83 0.28505 0.957713 0.0391365
113.317 176.419 142.603 0.28505 0.957713 0.0391365
114.051 176.196 142.706 0.28505 0.957713 0.0391365
114.471 175.911 142.479 0.857753 0.512611 -0.0385955
114.584 175.659 141.647 0.857753 0.512611 -0.0385955
114.275 176.193 141.873 0.857753 0.512611 -0.0385955
114.051 176.196 142.706 0.613182 0.773224 0.161652
114.471 175.911 142.479 0.613182 0.773224 0.161652
114.275 176.193 141.873 0.613182 0.773224 0.161652
113.552 173.786 142.503 -0.771087 -0.616578 0.158925
113.383 174.163 143.144 -0.771087 -0.616578 0.158925
113.209 174.223 142.536 -0.771087 -0.616578 0.158925
113.552 173.786 142.503 0.389759 -0.745667 0.540434
114.147 174.222 142.674 0.389759 -0.745667 0.540434
113.383 174.163 143.144 0.389759 -0.745667 0.540434
113.383 174.163 143.144 -0.489512 -0.497059 0.716457
113.495 174.541 143.483 -0.489512 -0.497059 0.716457
112.943 174.98 143.41 -0.489512 -0.497059 0.716457
113.383 174.163 143.144 -0.837705 -0.512625 0.188324
112.943 174.98 143.41 -0.837705 -0.512625 0.188324
113.209 174.223 142.536 -0.837705 -0.512625 0.188324
113.209 174.223 142.536 -0.970216 -0.217041 -0.107581
112.943 174.98 143.41 -0.970216 -0.217041 -0.107581
113.001 175.13 142.584 -0.970216 -0.217041 -0.107581
114.155 174.963 143.203 0.515921 -0.268379 0.81351
113.438 175.279 143.762 0.515921 -0.268379 0.81351
113.495 174.541 143.483 0.515921 -0.268379 0.81351
114.147 174.222 142.674 0.582957 -0.475823 0.6586
114.155 174.963 143.203 0.582957 -0.475823 0.6586
113.495 174.541 143.483 0.582957 -0.475823 0.6586
114.147 174.222 142.674 0.425642 -0.669925 0.6083
113.495 174.541 143.483 0.425642 -0.669925 0.6083
113.383 174.163 143.144 0.425642 -0.669925 0.6083
114.147 174.222 142.674 0.808889 -0.346875 0.474738
114.626 175.081 142.486 0.808889 -0.346875 0.474738
114.155 174.963 143.203 0.808889 -0.346875 0.474738
113.001 175.13 142.584 -0.972991 -0.205261 -0.105624
112.943 174.98 143.41 -0.972991 -0.205261 -0.105624
112.809 175.885 142.882 -0.972991 -0.205261 -0.105624
112.943 174.98 143.41 -0.985962 -0.0532005 0.158266
112.933 175.806 143.626 -0.985962 -0.0532005 0.158266
112.809 175.885 142.882 -0.985962 -0.0532005 0.158266
114.225 175.738 143.032 0.640743 0.110039 0.759829
113.438 175.279 143.762 0.640743 0.110039 0.759829
114.155 174.963 143.203 0.640743 0.110039 0.759829
113.702 175.949 143.543 0.690777 -0.0353276 0.722204
113.438 175.279 143.762 0.690777 -0.0353276 0.722204
114.225 175.738 143.032 0.690777 -0.0353276 0.722204
114.626 175.081 142.486 0.880156 0.16908 0.443551
114.471 175.911 142.479 0.880156 0.16908 0.443551
114.225 175.738 143.032 0.880156 0.16908 0.443551
114.155 174.963 143.203 0.831097 0.0473393 0.554109
114.626 175.081 142.486 0.831097 0.0473393 0.554109
114.225 175.738 143.032 0.831097 0.0473393 0.554109
112.809 175.885 142.882 -0.651623 0.73528 0.186417
112.933 175.806 143.626 -0.651623 0.73528 0.186417
113.318 176.198 143.426 -0.651623 0.73528 0.186417
113.317 176.419 142.603 -0.657 0.728076 0.195591
112.809 175.885 142.882 -0.657 0.728076 0.195591
113.318 176.198 143.426 -0.657 0.728076 0.195591
113.702 175.949 143.543 0.676172 0.580327 0.453885
114.225 175.738 143.032 0.676172 0.580327 0.453885
114.051 176.196 142.706 0.676172 0.580327 0.453885
113.702 175.949 143.543 0.405611 0.81647 0.410922
114.051 176.196 142.706 0.405611 0.81647 0.410922
113.318 176.198 143.426 0.405611 0.81647 0.410922
113.318 176.198 143.426 0.248677 0.935563 0.250762
114.051 176.196 142.706 0.248677 0.935563 0.250762
113.317 176.419 142.603 0.248677 0.935563 0.250762
114.471 175.911 142.479 0.655984 0.587153 0.474275
114.051 176.196 142.706 0.655984 0.587153 0.474275
114.225 175.738 143.032 0.655984 0.587153 0.474275
113.495 174.541 143.483 -0.391707 -0.35191 0.850132
113.438 175.279 143.762 -0.391707 -0.35191 0.850132
112.943 174.98 143.41 -0.391707 -0.35191 0.850132
113.438 175.279 143.762 -0.43795 -0.192044 0.878248
113.305 175.91 143.834 -0.43795 -0.192044 0.878248
112.933 175.806 143.626 -0.43795 -0.192044 0.878248
112.943 174.98 143.41 -0.468832 -0.228033 0.853345
113.438 175.279 143.762 -0.468832 -0.228033 0.853345
112.933 175.806 143.626 -0.468832 -0.228033 0.853345
113.438 175.279 143.762 0.589993 0.0319892 0.806774
113.702 175.949 143.543 0.589993 0.0319892 0.806774
113.305 175.91 143.834 0.589993 0.0319892 0.806774
112.933 175.806 143.626 -0.479325 0.724121 0.495879
113.305 175.91 143.834 -0.479325 0.724121 0.495879
113.318 176.198 143.426 -0.479325 0.724121 0.495879
113.702 175.949 143.543 0.330405 0.766563 0.550648
113.318 176.198 143.426 0.330405 0.766563 0.550648
113.305 175.91 143.834 0.330405 0.766563 0.550648
3 0 1 2
3 3 4 5
3 6 7 8
3 9 10 11
3 12 13 14
3 15 16 17
3 18 19 20
3 21 22 23
3 24 25 26
3 27 28 29
3 30 31 32
3 33 34 35
3 36 37 38
3 39 40 41
3 42 43 44
3 45 46 47
3 48 49 50
3 51 52 53
3 54 55 56
3 57 58 59
3 60 61 62
3 63 64 65
3 66 67 68
3 69 70 71
3 72 73 74
3 75 76 77
3 78 79 80
3 81 82 83
3 84 85 86
3 87 88 89
3 90 91 92
3 93 94 95
3 96 97 98
3 99 100 101
3 102 103 104
3 105 106 107
3 108 109 110
3 111 112 113
3 114 115 116
3 117 118 119
3 120 121 122
3 123 124 125
3 126 127 128
3 129 130 131
3 132 133 134
3 135 136 137
3 138 139 140
3 141 142 143
3 144 145 146
3 147 148 149
3 150 151 152
3 153 154 155
3 156 157 158
3 159 160 161
3 162 163 164
3 165 166 167
3 168 169 170
3 171 172 173
3 174 175 176
3 177 178 179
3 180 181 182
3 183 184 185
3 186 187 188
3 189 190 191
3 192 193 194
3 195 196 197
3 198 199 200
3 201 202 203
3 204 205 206
3 207 208 209
3 210 211 212
3 213 214 215
3 216 217 218
3 219 220 221
