ply
format ascii 1.0
element vertex 294
property float x
property float y
property float z
property float nx
property float ny
property float nz
element face 98
property list uint uint vertex_indices
end_header
97.8859 153.002 172.025 -0.547893 -0.334728 -0.766662
97.765 152.387 172.38 -0.547893 -0.334728 -0.766662
97.689 153.133 172.109 -0.547893 -0.334728 -0.766662
97.765 152.387 172.38 0.684869 -0.460426 -0.564768
97.8859 153.002 172.025 0.684869 -0.460426 -0.564768
98.1092 153.003 172.295 0.684869 -0.460426 -0.564768
97.8859 153.002 172.025 -0.107967 0.416692 -0.902613
97.689 153.133 172.109 -0.107967 0.416692 -0.902613
97.9331 153.317 172.164 -0.107967 0.416692 -0.902613
98.1092 153.003 172.295 0.75978 0.165225 -0.628836
97.8859 153.002 172.025 0.75978 0.165225 -0.628836
97.9331 153.317 172.164 0.75978 0.165225 -0.628836
96.8929 152.146 172.741 -0.193966 -0.531966 -0.824251
97.765 152.387 172.38 -0.193966 -0.531966 -0.824251
97.7065 151.561 172.927 -0.193966 -0.531966 -0.824251
97.7065 151.561 172.927 0.462948 -0.511914 -0.723618
97.765 152.387 172.38 0.462948 -0.511914 -0.723618
98.4069 152.073 173.013 0.462948 -0.511914 -0.723618
96.3877 152.076 173.064 -0.490855 -0.27672 -0.826128
96.0417 152.929 172.984 -0.490855 -0.27672 -0.826128
96.8929 152.146 172.741 -0.490855 -0.27672 -0.826128
96.8929 152.146 172.741 -0.50222 -0.292959 -0.813603
96.0417 152.929 172.984 -0.50222 -0.292959 -0.813603
97.001 153.102 172.33 -0.50222 -0.292959 -0.813603
97.765 152.387 172.38 -0.271922 -0.353335 -0.895105
97.001 153.102 172.33 -0.271922 -0.353335 -0.895105
97.689 153.133 172.109 -0.271922 -0.353335 -0.895105
97.765 152.387 172.38 -0.272421 -0.353844 -0.894752
96.8929 152.146 172.741 -0.272421 -0.353844 -0.894752
97.001 153.102 172.33 -0.272421 -0.353844 -0.894752
97.765 152.387 172.38 0.53571 -0.401757 -0.742702
98.1092 153.003 172.295 0.53571 -0.401757 -0.742702
98.4069 152.073 173.013 0.53571 -0.401757 -0.742702
98.4069 152.073 173.013 0.821774 -0.159322 -0.547087
98.1092 153.003 172.295 0.821774 -0.159322 -0.547087
98.6162 152.98 173.063 0.821774 -0.159322 -0.547087
97.001 153.102 172.33 -0.546591 -0.109322 -0.830233
96.0417 152.929 172.984 -0.546591 -0.109322 -0.830233
96.6357 153.914 172.463 -0.546591 -0.109322 -0.830233
96.6357 153.914 172.463 -0.628889 -0.0314634 -0.776858
96.0417 152.929 172.984 -0.628889 -0.0314634 -0.776858
95.8822 153.873 173.075 -0.628889 -0.0314634 -0.776858
97.689 153.133 172.109 -0.212161 0.529991 -0.821034
97.6222 153.875 172.605 -0.212161 0.529991 -0.821034
97.9331 153.317 172.164 -0.212161 0.529991 -0.821034
97.689 153.133 172.109 -0.283673 0.515306 -0.808696
97.001 153.102 172.33 -0.283673 0.515306 -0.808696
97.6222 153.875 172.605 -0.283673 0.515306 -0.808696
97.001 153.102 172.33 0.146955 0.224426 -0.963347
96.6357 153.914 172.463 0.146955 0.224426 -0.963347
97.6222 153.875 172.605 0.146955 0.224426 -0.963347
97.9331 153.317 172.164 0.393943 0.694676 -0.601859
97.6222 153.875 172.605 0.393943 0.694676 -0.601859
98.2607 153.773 172.905 0.393943 0.694676 -0.601859
97.9331 153.317 172.164 0.82089 0.246776 -0.515016
98.2607 153.773 172.905 0.82089 0.246776 -0.515016
98.1092 153.003 172.295 0.82089 0.246776 -0.515016
98.1092 153.003 172.295 0.809916 0.258179 -0.526669
98.2607 153.773 172.905 0.809916 0.258179 -0.526669
98.6162 152.98 173.063 0.809916 0.258179 -0.526669
96.6357 153.914 172.463 -0.603857 0.340126 -0.720882
95.8822 153.873 173.075 -0.603857 0.340126 -0.720882
96.1405 154.196 173.012 -0.603857 0.340126 -0.720882
96.9084 154.22 172.933 -0.0782174 0.855655 -0.511603
96.6357 153.914 172.463 -0.0782174 0.855655 -0.511603
96.1405 154.196 173.012 -0.0782174 0.855655 -0.511603
97.6222 153.875 172.605 0.11591 0.800313 -0.588272
96.6357 153.914 172.463 0.11591 0.800313 -0.588272
96.9084 154.22 172.933 0.11591 0.800313 -0.588272
97.6261 154.168 173.138 0.197032 0.858675 -0.473134
97.6222 153.875 172.605 0.197032 0.858675 -0.473134
96.9084 154.22 172.933 0.197032 0.858675 -0.473134
98.2607 153.773 172.905 0.344629 0.821711 -0.453897
97.6222 153.875 172.605 0.344629 0.821711 -0.453897
97.6261 154.168 173.138 0.344629 0.821711 -0.453897
96.8843 151.282 173.417 -0.482 -0.632671 -0.606139
96.8504 150.741 174.008 -0.482 -0.632671 -0.606139
96.2905 151.208 173.966 -0.482 -0.632671 -0.606139
96.8843 151.282 173.417 -0.0622044 -0.932656 -0.355365
97.8308 151.257 173.315 -0.0622044 -0.932656 -0.355365
97.5606 151.025 173.971 -0.0622044 -0.932656 -0.355365
96.8504 150.741 174.008 0.254964 -0.720888 -0.644448
96.8843 151.282 173.417 0.254964 -0.720888 -0.644448
97.5606 151.025 173.971 0.254964 -0.720888 -0.644448
97.5606 151.025 173.971 0.609589 -0.792182 -0.0291354
97.8308 151.257 173.315 0.609589 -0.792182 -0.0291354
98.0446 151.4 173.905 0.609589 -0.792182 -0.0291354
95.9831 151.944 173.569 -0.881234 -0.377368 -0.284638
95.9347 151.645 174.115 -0.881234 -0.377368 -0.284638
95.7532 152.234 173.897 -0.881234 -0.377368 -0.284638
96.2905 151.208 173.966 -0.781252 -0.51581 -0.351547
95.9347 151.645 174.115 -0.781252 -0.51581 -0.351547
95.9831 151.944 173.569 -0.781252 -0.51581 -0.351547
96.8843 151.282 173.417 -0.522124 -0.563474 -0.640222
96.2905 151.208 173.966 -0.522124 -0.563474 -0.640222
95.9831 151.944 173.569 -0.522124 -0.563474 -0.640222
96.8843 151.282 173.417 -0.540273 -0.599557 -0.590455
95.9831 151.944 173.569 -0.540273 -0.599557 -0.590455
96.3877 152.076 173.064 -0.540273 -0.599557 -0.590455
96.8843 151.282 173.417 -0.388284 -0.56547 -0.727653
96.3877 152.076 173.064 -0.388284 -0.56547 -0.727653
96.8929 152.146 172.741 -0.388284 -0.56547 -0.727653
97.7065 151.561 172.927 -0.252922 -0.594618 -0.763191
96.8843 151.282 173.417 -0.252922 -0.594618 -0.763191
96.8929 152.146 172.741 -0.252922 -0.594618 -0.763191
97.8308 151.257 173.315 -0.0848164 -0.797706 -0.597052
96.8843 151.282 173.417 -0.0848164 -0.797706 -0.597052
97.7065 151.561 172.927 -0.0848164 -0.797706 -0.597052
97.8308 151.257 173.315 0.508841 -0.59127 -0.625684
97.7065 151.561 172.927 0.508841 -0.59127 -0.625684
98.4069 152.073 173.013 0.508841 -0.59127 -0.625684
97.8308 151.257 173.315 0.784161 -0.605095 -0.137668
98.4069 152.073 173.013 0.784161 -0.605095 -0.137668
98.0446 151.4 173.905 0.784161 -0.605095 -0.137668
98.0446 151.4 173.905 0.906471 -0.419026 0.052225
98.4069 152.073 173.013 0.906471 -0.419026 0.052225
98.4719 152.319 173.859 0.906471 -0.419026 0.052225
96.0417 152.929 172.984 -0.877343 -0.205229 -0.433764
95.9831 151.944 173.569 -0.877343 -0.205229 -0.433764
95.7532 152.234 173.897 -0.877343 -0.205229 -0.433764
96.0417 152.929 172.984 -0.95806 0.0225914 -0.285675
95.7532 152.234 173.897 -0.95806 0.0225914 -0.285675
95.7509 153.006 173.965 -0.95806 0.0225914 -0.285675
96.3877 152.076 173.064 -0.68833 -0.339494 -0.641051
95.9831 151.944 173.569 -0.68833 -0.339494 -0.641051
96.0417 152.929 172.984 -0.68833 -0.339494 -0.641051
98.4069 152.073 173.013 0.974478 -0.224276 -0.00967582
98.6162 152.98 173.063 0.974478 -0.224276 -0.00967582
98.4719 152.319 173.859 0.974478 -0.224276 -0.00967582
98.4719 152.319 173.859 0.943625 0.149446 0.29536
98.6162 152.98 173.063 0.943625 0.149446 0.29536
98.3582 153.264 173.744 0.943625 0.149446 0.29536
95.8435 153.732 173.83 -0.938433 0.345069 0.016444
95.9715 154.098 173.446 -0.938433 0.345069 0.016444
95.8822 153.873 173.075 -0.938433 0.345069 0.016444
95.8435 153.732 173.83 -0.992197 0.121482 -0.0280727
95.8822 153.873 173.075 -0.992197 0.121482 -0.0280727
95.7509 153.006 173.965 -0.992197 0.121482 -0.0280727
95.7509 153.006 173.965 -0.952872 -0.134904 -0.271727
95.8822 153.873 173.075 -0.952872 -0.134904 -0.271727
96.0417 152.929 172.984 -0.952872 -0.134904 -0.271727
95.8435 153.732 173.83 -0.48631 0.707488 0.512799
96.2993 153.972 173.931 -0.48631 0.707488 0.512799
95.9715 154.098 173.446 -0.48631 0.707488 0.512799
97.9037 153.965 173.527 0.362625 0.740352 0.566024
97.2584 154.089 173.779 0.362625 0.740352 0.566024
97.7417 153.726 173.944 0.362625 0.740352 0.566024
97.9037 153.965 173.527 0.605343 0.565649 0.560001
97.7417 153.726 173.944 0.605343 0.565649 0.560001
98.3582 153.264 173.744 0.605343 0.565649 0.560001
97.9037 153.965 173.527 0.770408 0.580816 0.262915
98.3582 153.264 173.744 0.770408 0.580816 0.262915
98.2607 153.773 172.905 0.770408 0.580816 0.262915
98.2607 153.773 172.905 0.888998 0.429941 0.157587
98.3582 153.264 173.744 0.888998 0.429941 0.157587
98.6162 152.98 173.063 0.888998 0.429941 0.157587
95.8822 153.873 173.075 -0.786286 0.593735 -0.170977
95.9715 154.098 173.446 -0.786286 0.593735 -0.170977
96.1405 154.196 173.012 -0.786286 0.593735 -0.170977
95.9715 154.098 173.446 -0.218672 0.89816 0.381433
96.2993 153.972 173.931 -0.218672 0.89816 0.381433
96.7294 154.199 173.644 -0.218672 0.89816 0.381433
95.9715 154.098 173.446 -0.169707 0.973271 0.154734
96.7294 154.199 173.644 -0.169707 0.973271 0.154734
96.1405 154.196 173.012 -0.169707 0.973271 0.154734
96.1405 154.196 173.012 -0.0280327 0.99935 0.022644
96.7294 154.199 173.644 -0.0280327 0.99935 0.022644
96.9084 154.22 172.933 -0.0280327 0.99935 0.022644
97.2584 154.089 173.779 0.283492 0.918222 0.276589
97.9037 153.965 173.527 0.283492 0.918222 0.276589
97.6261 154.168 173.138 0.283492 0.918222 0.276589
97.2584 154.089 173.779 0.148593 0.967353 0.205299
97.6261 154.168 173.138 0.148593 0.967353 0.205299
96.7294 154.199 173.644 0.148593 0.967353 0.205299
96.7294 154.199 173.644 0.0590224 0.997263 0.0445182
97.6261 154.168 173.138 0.0590224 0.997263 0.0445182
96.9084 154.22 172.933 0.0590224 0.997263 0.0445182
98.2607 153.773 172.905 0.541194 0.839323 0.0514292
97.6261 154.168 173.138 0.541194 0.839323 0.0514292
97.9037 153.965 173.527 0.541194 0.839323 0.0514292
96.2905 151.208 173.966 -0.564128 -0.629603 0.534191
96.8504 150.741 174.008 -0.564128 -0.629603 0.534191
96.787 151.372 174.684 -0.564128 -0.629603 0.534191
97.696 151.257 174.432 0.0111117 -0.894457 0.447015
96.787 151.372 174.684 0.0111117 -0.894457 0.447015
97.5606 151.025 173.971 0.0111117 -0.894457 0.447015
97.5606 151.025 173.971 0.306722 -0.681626 0.664309
96.787 151.372 174.684 0.306722 -0.681626 0.664309
96.8504 150.741 174.008 0.306722 -0.681626 0.664309
97.5606 151.025 173.971 0.616817 -0.760797 0.201801
98.0446 151.4 173.905 0.616817 -0.760797 0.201801
97.696 151.257 174.432 0.616817 -0.760797 0.201801
95.7532 152.234 173.897 -0.960418 -0.26836 0.0746979
95.9347 151.645 174.115 -0.960418 -0.26836 0.0746979
95.8699 152.023 174.641 -0.960418 -0.26836 0.0746979
96.787 151.372 174.684 -0.558821 -0.636144 0.532016
95.9347 151.645 174.115 -0.558821 -0.636144 0.532016
96.2905 151.208 173.966 -0.558821 -0.636144 0.532016
95.8699 152.023 174.641 -0.530703 -0.717813 0.450664
95.9347 151.645 174.115 -0.530703 -0.717813 0.450664
96.787 151.372 174.684 -0.530703 -0.717813 0.450664
97.708 152.045 174.581 0.241069 -0.1835 0.953002
96.787 151.372 174.684 0.241069 -0.1835 0.953002
97.696 151.257 174.432 0.241069 -0.1835 0.953002
97.1009 152.151 174.91 0.383197 -0.396358 0.834303
96.787 151.372 174.684 0.383197 -0.396358 0.834303
97.708 152.045 174.581 0.383197 -0.396358 0.834303
98.0446 151.4 173.905 0.709851 -0.298123 0.638149
98.4719 152.319 173.859 0.709851 -0.298123 0.638149
97.708 152.045 174.581 0.709851 -0.298123 0.638149
97.696 151.257 174.432 0.842451 -0.112273 0.526945
98.0446 151.4 173.905 0.842451 -0.112273 0.526945
97.708 152.045 174.581 0.842451 -0.112273 0.526945
95.8956 152.505 174.766 -0.827548 0.396235 0.397695
96.0726 153.217 174.425 -0.827548 0.396235 0.397695
95.7509 153.006 173.965 -0.827548 0.396235 0.397695
95.8956 152.505 174.766 -0.983461 0.00541121 0.18104
95.7509 153.006 173.965 -0.983461 0.00541121 0.18104
95.8699 152.023 174.641 -0.983461 0.00541121 0.18104
95.8699 152.023 174.641 -0.988492 -0.0162567 0.150399
95.7509 153.006 173.965 -0.988492 -0.0162567 0.150399
95.7532 152.234 173.897 -0.988492 -0.0162567 0.150399
96.0726 153.217 174.425 -0.0667833 0.558442 0.826851
96.5636 152.556 174.911 -0.0667833 0.558442 0.826851
96.9531 152.942 174.682 -0.0667833 0.558442 0.826851
95.8956 152.505 174.766 -0.221328 0.465608 0.856868
96.5636 152.556 174.911 -0.221328 0.465608 0.856868
96.0726 153.217 174.425 -0.221328 0.465608 0.856868
97.1009 152.151 174.91 0.234866 0.309665 0.921382
96.9531 152.942 174.682 0.234866 0.309665 0.921382
96.5636 152.556 174.911 0.234866 0.309665 0.921382
97.1009 152.151 174.91 0.494483 0.324963 0.806155
97.708 152.045 174.581 0.494483 0.324963 0.806155
96.9531 152.942 174.682 0.494483 0.324963 0.806155
97.708 152.045 174.581 0.354589 0.194981 0.914467
97.7967 153.07 174.328 0.354589 0.194981 0.914467
96.9531 152.942 174.682 0.354589 0.194981 0.914467
98.4719 152.319 173.859 0.68176 0.168654 0.711871
98.3582 153.264 173.744 0.68176 0.168654 0.711871
97.7967 153.07 174.328 0.68176 0.168654 0.711871
97.708 152.045 174.581 0.656824 0.126593 0.743341
98.4719 152.319 173.859 0.656824 0.126593 0.743341
97.7967 153.07 174.328 0.656824 0.126593 0.743341
95.7509 153.006 173.965 -0.843465 0.200523 0.498355
96.0726 153.217 174.425 -0.843465 0.200523 0.498355
95.8435 153.732 173.83 -0.843465 0.200523 0.498355
96.2993 153.972 173.931 -0.454891 0.579164 0.676493
95.8435 153.732 173.83 -0.454891 0.579164 0.676493
96.0726 153.217 174.425 -0.454891 0.579164 0.676493
96.2993 153.972 173.931 -0.0903457 0.564084 0.82076
96.0726 153.217 174.425 -0.0903457 0.564084 0.82076
96.9021 153.831 174.094 -0.0903457 0.564084 0.82076
96.9021 153.831 174.094 -0.0724276 0.547025 0.833977
96.0726 153.217 174.425 -0.0724276 0.547025 0.833977
96.9531 152.942 174.682 -0.0724276 0.547025 0.833977
97.7417 153.726 173.944 0.212834 0.624785 0.751229
97.2584 154.089 173.779 0.212834 0.624785 0.751229
96.9021 153.831 174.094 0.212834 0.624785 0.751229
97.7417 153.726 173.944 0.213041 0.506499 0.835507
96.9021 153.831 174.094 0.213041 0.506499 0.835507
97.7967 153.07 174.328 0.213041 0.506499 0.835507
97.7967 153.07 174.328 0.253674 0.543402 0.800228
96.9021 153.831 174.094 0.253674 0.543402 0.800228
96.9531 152.942 174.682 0.253674 0.543402 0.800228
98.3582 153.264 173.744 0.56298 0.451881 0.691995
97.7417 153.726 173.944 0.56298 0.451881 0.691995
97.7967 153.07 174.328 0.56298 0.451881 0.691995
96.2993 153.972 173.931 0.0109373 0.777135 0.629239
96.9021 153.831 174.094 0.0109373 0.777135 0.629239
96.7294 154.199 173.644 0.0109373 0.777135 0.629239
97.2584 154.089 173.779 -0.000881792 0.774966 0.632003
96.7294 154.199 173.644 -0.000881792 0.774966 0.632003
96.9021 153.831 174.094 -0.000881792 0.774966 0.632003
95.8699 152.023 174.641 -0.509551 -0.683265 0.522979
96.787 151.372 174.684 -0.509551 -0.683265 0.522979
96.1156 152.072 174.945 -0.509551 -0.683265 0.522979
96.1156 152.072 174.945 -0.179807 -0.490134 0.8529
96.787 151.372 174.684 -0.179807 -0.490134 0.8529
96.702 152.038 175.049 -0.179807 -0.490134 0.8529
96.787 151.372 174.684 0.400465 -0.400386 0.824208
97.1009 152.151 174.91 0.400465 -0.400386 0.824208
96.702 152.038 175.049 0.400465 -0.400386 0.824208
95.8699 152.023 174.641 -0.761456 -0.124705 0.636108
96.1156 152.072 174.945 -0.761456 -0.124705 0.636108
95.8956 152.505 174.766 -0.761456 -0.124705 0.636108
96.5636 152.556 174.911 -0.223493 0.272962 0.935704
95.8956 152.505 174.766 -0.223493 0.272962 0.935704
96.1156 152.072 174.945 -0.223493 0.272962 0.935704
96.702 152.038 175.049 -0.157901 0.214234 0.963935
96.5636 152.556 174.911 -0.157901 0.214234 0.963935
96.1156 152.072 174.945 -0.157901 0.214234 0.963935
97.1009 152.151 174.91 0.233375 0.307685 0.922424
96.5636 152.556 174.911 0.233375 0.307685 0.922424
96.702 152.038 175.049 0.233375 0.307685 0.922424
3 0 1 2
3 3 4 5
3 6 7 8
3 9 10 11
3 12 13 14
3 15 16 17
3 18 19 20
3 21 22 23
3 24 25 26
3 27 28 29
3 30 31 32
3 33 34 35
3 36 37 38
3 39 40 41
3 42 43 44
3 45 46 47
3 48 49 50
3 51 52 53
3 54 55 56
3 57 58 59
3 60 61 62
3 63 64 65
3 66 67 68
3 69 70 71
3 72 73 74
3 75 76 77
3 78 79 80
3 81 82 83
3 84 85 86
3 87 88 89
3 90 91 92
3 93 94 95
3 96 97 98
3 99 100 101
3 102 103 104
3 105 106 107
3 108 109 110
3 111 112 113
3 114 115 116
3 117 118 119
3 120 121 122
3 123 124 125
3 126 127 128
3 129 130 131
3 132 133 134
3 135 136 137
3 138 139 140
3 141 142 143
3 144 145 146
3 147 148 149
3 150 151 152
3 153 154 155
3 156 157 158
3 159 160 161
3 162 163 164
3 165 166 167
3 168 169 170
3 171 172 173
3 174 175 176
3 177 178 179
3 180 181 182
3 183 184 185
3 186 187 188
3 189 190 191
3 192 193 194
3 195 196 197
3 198 199 200
3 201 202 203
3 204 205 206
3 207 208 209
3 210 211 212
3 213 214 215
3 216 217 218
3 219 220 221
3 222 223 224
3 225 226 227
3 228 229 230
3 231 232 233
3 234 235 236
3 237 238 239
3 240 241 242
3 243 244 245
3 246 247 248
3 249 250 251
3 252 253 254
3 255 256 257
3 258 259 260
3 261 262 263
3 264 265 266
3 267 268 269
3 270 271 272
3 273 274 275
3 276 277 278
3 279 280 281
3 282 283 284
3 285 286 287
3 288 289 290
3 291 292 293
