ply
format ascii 1.0
element vertex 492
property float x
property float y
property float z
property float nx
property float ny
property float nz
element face 164
property list uint uint vertex_indices
end_header
123.559 189.754 136.433 -0.414213 -0.545513 -0.72859
123.441 189.36 136.795 -0.414213 -0.545513 -0.72859
123.159 189.84 136.596 -0.414213 -0.545513 -0.72859
123.559 189.754 136.433 0.0438586 -0.339 -0.939764
124.345 189.815 136.448 0.0438586 -0.339 -0.939764
124.121 189.31 136.619 0.0438586 -0.339 -0.939764
123.441 189.36 136.795 -0.238661 -0.617389 -0.749581
123.559 189.754 136.433 -0.238661 -0.617389 -0.749581
124.121 189.31 136.619 -0.238661 -0.617389 -0.749581
124.121 189.31 136.619 0.583088 -0.480867 -0.654809
124.345 189.815 136.448 0.583088 -0.480867 -0.654809
124.703 189.766 136.802 0.583088 -0.480867 -0.654809
123.394 190.633 136.331 -0.403685 -0.179294 -0.897158
123.559 189.754 136.433 -0.403685 -0.179294 -0.897158
123.159 189.84 136.596 -0.403685 -0.179294 -0.897158
122.86 190.644 136.628 -0.483414 -0.144489 -0.863385
123.394 190.633 136.331 -0.483414 -0.144489 -0.863385
123.159 189.84 136.596 -0.483414 -0.144489 -0.863385
124.345 189.815 136.448 0.027978 -0.122611 -0.99206
123.559 189.754 136.433 0.027978 -0.122611 -0.99206
124.284 190.637 136.344 0.027978 -0.122611 -0.99206
124.284 190.637 136.344 0.0146455 -0.111819 -0.993621
123.559 189.754 136.433 0.0146455 -0.111819 -0.993621
123.394 190.633 136.331 0.0146455 -0.111819 -0.993621
125.064 190.622 136.587 0.60726 -0.424567 -0.67155
124.703 189.766 136.802 0.60726 -0.424567 -0.67155
124.345 189.815 136.448 0.60726 -0.424567 -0.67155
125.064 190.622 136.587 0.294594 -0.0977999 -0.950605
124.345 189.815 136.448 0.294594 -0.0977999 -0.950605
124.284 190.637 136.344 0.294594 -0.0977999 -0.950605
123.381 191.527 136.213 -0.484568 -0.121281 -0.866305
123.394 190.633 136.331 -0.484568 -0.121281 -0.866305
122.86 190.644 136.628 -0.484568 -0.121281 -0.866305
123.114 191.43 136.677 -0.852186 0.302196 -0.427149
123.381 191.527 136.213 -0.852186 0.302196 -0.427149
122.86 190.644 136.628 -0.852186 0.302196 -0.427149
124.284 190.637 136.344 0.0145386 -0.0762029 -0.996986
123.394 190.633 136.331 0.0145386 -0.0762029 -0.996986
124.157 191.496 136.277 0.0145386 -0.0762029 -0.996986
124.157 191.496 136.277 0.0756681 -0.129749 -0.988655
123.394 190.633 136.331 0.0756681 -0.129749 -0.988655
123.381 191.527 136.213 0.0756681 -0.129749 -0.988655
125.064 190.622 136.587 0.293112 -0.126737 -0.947641
124.284 190.637 136.344 0.293112 -0.126737 -0.947641
125.037 191.678 136.438 0.293112 -0.126737 -0.947641
125.037 191.678 136.438 0.189557 -0.0488807 -0.980652
124.284 190.637 136.344 0.189557 -0.0488807 -0.980652
124.157 191.496 136.277 0.189557 -0.0488807 -0.980652
125.037 191.678 136.438 0.737948 -0.0761989 -0.670542
125.357 191.605 136.799 0.737948 -0.0761989 -0.670542
125.064 190.622 136.587 0.737948 -0.0761989 -0.670542
123.381 191.527 136.213 -0.788843 0.506689 -0.34784
123.114 191.43 136.677 -0.788843 0.506689 -0.34784
123.467 191.899 136.561 -0.788843 0.506689 -0.34784
123.467 191.899 136.561 -0.507257 0.733105 -0.453042
124.092 192.484 136.808 -0.507257 0.733105 -0.453042
124.267 192.323 136.351 -0.507257 0.733105 -0.453042
123.467 191.899 136.561 -0.495796 0.651344 -0.574401
124.267 192.323 136.351 -0.495796 0.651344 -0.574401
123.381 191.527 136.213 -0.495796 0.651344 -0.574401
123.381 191.527 136.213 0.0843733 0.0776367 -0.993405
124.267 192.323 136.351 0.0843733 0.0776367 -0.993405
124.157 191.496 136.277 0.0843733 0.0776367 -0.993405
125.007 192.511 136.503 0.4711 0.086192 -0.877858
125.318 192.28 136.648 0.4711 0.086192 -0.877858
125.037 191.678 136.438 0.4711 0.086192 -0.877858
125.007 192.511 136.503 0.181079 0.0837965 -0.979892
125.037 191.678 136.438 0.181079 0.0837965 -0.979892
124.267 192.323 136.351 0.181079 0.0837965 -0.979892
124.267 192.323 136.351 0.166437 0.0657864 -0.983855
125.037 191.678 136.438 0.166437 0.0657864 -0.983855
124.157 191.496 136.277 0.166437 0.0657864 -0.983855
125.357 191.605 136.799 0.732586 -0.10743 -0.672143
125.037 191.678 136.438 0.732586 -0.10743 -0.672143
125.318 192.28 136.648 0.732586 -0.10743 -0.672143
124.267 192.323 136.351 -0.49484 0.742445 -0.451563
124.092 192.484 136.808 -0.49484 0.742445 -0.451563
124.577 192.749 136.712 -0.49484 0.742445 -0.451563
125.007 192.511 136.503 -0.00828841 0.650299 -0.759633
124.267 192.323 136.351 -0.00828841 0.650299 -0.759633
124.577 192.749 136.712 -0.00828841 0.650299 -0.759633
123.441 189.36 136.795 -0.761407 -0.62477 0.172983
123.482 189.555 137.681 -0.761407 -0.62477 0.172983
123.163 189.864 137.392 -0.761407 -0.62477 0.172983
123.159 189.84 136.596 -0.865622 -0.500322 0.01939
123.441 189.36 136.795 -0.865622 -0.500322 0.01939
123.163 189.864 137.392 -0.865622 -0.500322 0.01939
124.121 189.31 136.619 -0.0342832 -0.988289 0.148694
124.157 189.42 137.36 -0.0342832 -0.988289 0.148694
123.441 189.36 136.795 -0.0342832 -0.988289 0.148694
123.441 189.36 136.795 -0.0907679 -0.971618 0.218447
124.157 189.42 137.36 -0.0907679 -0.971618 0.218447
123.482 189.555 137.681 -0.0907679 -0.971618 0.218447
124.157 189.42 137.36 0.59703 -0.797172 0.08985
124.121 189.31 136.619 0.59703 -0.797172 0.08985
124.703 189.766 136.802 0.59703 -0.797172 0.08985
124.578 189.788 137.734 0.602906 -0.791641 0.0990343
124.157 189.42 137.36 0.602906 -0.791641 0.0990343
124.703 189.766 136.802 0.602906 -0.791641 0.0990343
123.159 189.84 136.596 -0.937009 -0.348979 0.0150855
123.163 189.864 137.392 -0.937009 -0.348979 0.0150855
122.86 190.644 136.628 -0.937009 -0.348979 0.0150855
123.163 189.864 137.392 -0.950159 -0.0717354 0.303402
123.085 190.756 137.36 -0.950159 -0.0717354 0.303402
122.86 190.644 136.628 -0.950159 -0.0717354 0.303402
124.703 189.766 136.802 0.842855 -0.523386 0.125147
125.188 190.707 137.468 0.842855 -0.523386 0.125147
124.578 189.788 137.734 0.842855 -0.523386 0.125147
125.064 190.622 136.587 0.909578 -0.405804 -0.0893926
125.188 190.707 137.468 0.909578 -0.405804 -0.0893926
124.703 189.766 136.802 0.909578 -0.405804 -0.0893926
122.86 190.644 136.628 -0.927599 0.284872 0.241676
123.085 190.756 137.36 -0.927599 0.284872 0.241676
123.114 191.43 136.677 -0.927599 0.284872 0.241676
123.085 190.756 137.36 -0.915675 0.304861 0.261913
123.402 191.642 137.435 -0.915675 0.304861 0.261913
123.114 191.43 136.677 -0.915675 0.304861 0.261913
125.064 190.622 136.587 0.958597 -0.262649 -0.110032
125.357 191.605 136.799 0.958597 -0.262649 -0.110032
125.188 190.707 137.468 0.958597 -0.262649 -0.110032
125.188 190.707 137.468 0.96652 -0.243164 -0.0819102
125.357 191.605 136.799 0.96652 -0.243164 -0.0819102
125.421 191.614 137.524 0.96652 -0.243164 -0.0819102
123.467 191.899 136.561 -0.77834 0.615715 0.12281
123.114 191.43 136.677 -0.77834 0.615715 0.12281
123.402 191.642 137.435 -0.77834 0.615715 0.12281
123.402 191.642 137.435 -0.706624 0.691427 0.150369
124.092 192.484 136.808 -0.706624 0.691427 0.150369
123.467 191.899 136.561 -0.706624 0.691427 0.150369
124.123 192.434 137.761 -0.749872 0.658932 0.0591699
124.092 192.484 136.808 -0.749872 0.658932 0.0591699
123.402 191.642 137.435 -0.749872 0.658932 0.0591699
125.318 192.28 136.648 0.63061 0.45984 -0.625203
125.007 192.511 136.503 0.63061 0.45984 -0.625203
125.22 192.638 136.811 0.63061 0.45984 -0.625203
125.318 192.28 136.648 0.941602 0.314554 -0.120172
125.22 192.638 136.811 0.941602 0.314554 -0.120172
125.394 192.359 137.452 0.941602 0.314554 -0.120172
125.318 192.28 136.648 0.994546 0.0359372 -0.0979106
125.394 192.359 137.452 0.994546 0.0359372 -0.0979106
125.357 191.605 136.799 0.994546 0.0359372 -0.0979106
125.357 191.605 136.799 0.995751 0.0272646 -0.0879595
125.394 192.359 137.452 0.995751 0.0272646 -0.0879595
125.421 191.614 137.524 0.995751 0.0272646 -0.0879595
124.092 192.484 136.808 -0.552992 0.830884 0.0618968
124.123 192.434 137.761 -0.552992 0.830884 0.0618968
124.501 192.701 137.551 -0.552992 0.830884 0.0618968
124.577 192.749 136.712 -0.478728 0.877933 0.00725513
124.092 192.484 136.808 -0.478728 0.877933 0.00725513
124.501 192.701 137.551 -0.478728 0.877933 0.00725513
125.22 192.638 136.811 0.222464 0.837586 -0.498958
125.007 192.511 136.503 0.222464 0.837586 -0.498958
124.577 192.749 136.712 0.222464 0.837586 -0.498958
125.22 192.638 136.811 0.183079 0.979755 -0.0810107
124.577 192.749 136.712 0.183079 0.979755 -0.0810107
125.137 192.703 137.415 0.183079 0.979755 -0.0810107
125.137 192.703 137.415 0.00955446 0.998249 0.0583827
124.577 192.749 136.712 0.00955446 0.998249 0.0583827
124.501 192.701 137.551 0.00955446 0.998249 0.0583827
125.394 192.359 137.452 0.797168 0.602141 0.0441429
125.22 192.638 136.811 0.797168 0.602141 0.0441429
125.137 192.703 137.415 0.797168 0.602141 0.0441429
123.482 189.555 137.681 -0.726288 -0.683673 0.0713878
123.297 189.799 138.133 -0.726288 -0.683673 0.0713878
123.163 189.864 137.392 -0.726288 -0.683673 0.0713878
123.657 189.739 138.616 -0.482989 -0.837788 0.254622
123.297 189.799 138.133 -0.482989 -0.837788 0.254622
123.482 189.555 137.681 -0.482989 -0.837788 0.254622
123.657 189.739 138.616 -0.271921 -0.933462 0.233896
123.482 189.555 137.681 -0.271921 -0.933462 0.233896
124.124 189.567 138.473 -0.271921 -0.933462 0.233896
124.124 189.567 138.473 -0.13728 -0.982572 0.125322
123.482 189.555 137.681 -0.13728 -0.982572 0.125322
124.157 189.42 137.36 -0.13728 -0.982572 0.125322
124.124 189.567 138.473 0.588421 -0.799184 0.122741
124.157 189.42 137.36 0.588421 -0.799184 0.122741
124.578 189.788 137.734 0.588421 -0.799184 0.122741
124.396 189.693 138.684 0.426106 -0.904632 -0.00865628
124.124 189.567 138.473 0.426106 -0.904632 -0.00865628
124.578 189.788 137.734 0.426106 -0.904632 -0.00865628
123.297 189.799 138.133 -0.994894 -0.0475042 0.0890465
123.328 190.112 138.649 -0.994894 -0.0475042 0.0890465
123.269 190.602 138.251 -0.994894 -0.0475042 0.0890465
123.297 189.799 138.133 -0.983196 -0.0593965 0.172619
123.269 190.602 138.251 -0.983196 -0.0593965 0.172619
123.163 189.864 137.392 -0.983196 -0.0593965 0.172619
123.163 189.864 137.392 -0.978949 -0.0784257 0.188436
123.269 190.602 138.251 -0.978949 -0.0784257 0.188436
123.085 190.756 137.36 -0.978949 -0.0784257 0.188436
123.657 189.739 138.616 -0.663841 -0.621059 0.416655
123.328 190.112 138.649 -0.663841 -0.621059 0.416655
123.297 189.799 138.133 -0.663841 -0.621059 0.416655
125.188 190.707 137.468 0.842309 -0.503793 0.191593
124.755 190.4 138.566 0.842309 -0.503793 0.191593
124.578 189.788 137.734 0.842309 -0.503793 0.191593
124.755 190.4 138.566 0.89285 -0.431828 0.12784
124.396 189.693 138.684 0.89285 -0.431828 0.12784
124.578 189.788 137.734 0.89285 -0.431828 0.12784
123.269 190.602 138.251 -0.919762 0.307906 0.243375
123.402 191.642 137.435 -0.919762 0.307906 0.243375
123.085 190.756 137.36 -0.919762 0.307906 0.243375
123.269 190.602 138.251 -0.843891 0.393398 0.364809
123.837 191.518 138.577 -0.843891 0.393398 0.364809
123.402 191.642 137.435 -0.843891 0.393398 0.364809
125.188 190.707 137.468 0.843886 -0.500562 0.193117
125.388 191.454 138.535 0.843886 -0.500562 0.193117
124.755 190.4 138.566 0.843886 -0.500562 0.193117
125.388 191.454 138.535 0.968664 -0.248274 -0.0070558
125.188 190.707 137.468 0.968664 -0.248274 -0.0070558
125.421 191.614 137.524 0.968664 -0.248274 -0.0070558
123.402 191.642 137.435 -0.759647 0.54844 0.3495
123.837 191.518 138.577 -0.759647 0.54844 0.3495
124.123 192.434 137.761 -0.759647 0.54844 0.3495
123.837 191.518 138.577 -0.908473 0.397724 0.128422
124.206 192.323 138.693 -0.908473 0.397724 0.128422
124.123 192.434 137.761 -0.908473 0.397724 0.128422
125.421 191.614 137.524 0.998438 0.0396211 0.0393856
125.394 192.359 137.452 0.998438 0.0396211 0.0393856
125.388 191.454 138.535 0.998438 0.0396211 0.0393856
125.388 191.454 138.535 0.96633 0.194418 0.168548
125.394 192.359 137.452 0.96633 0.194418 0.168548
125.206 192.441 138.44 0.96633 0.194418 0.168548
124.123 192.434 137.761 -0.576703 0.803618 0.147009
124.206 192.323 138.693 -0.576703 0.803618 0.147009
124.494 192.549 138.584 -0.576703 0.803618 0.147009
124.501 192.701 137.551 -0.527953 0.840778 0.119823
124.123 192.434 137.761 -0.527953 0.840778 0.119823
124.494 192.549 138.584 -0.527953 0.840778 0.119823
125.137 192.703 137.415 0.0496038 0.96835 0.24462
124.501 192.701 137.551 0.0496038 0.96835 0.24462
125.206 192.441 138.44 0.0496038 0.96835 0.24462
124.501 192.701 137.551 0.177567 0.973418 0.14466
124.494 192.549 138.584 0.177567 0.973418 0.14466
125.206 192.441 138.44 0.177567 0.973418 0.14466
125.206 192.441 138.44 0.79087 0.603533 0.101349
125.394 192.359 137.452 0.79087 0.603533 0.101349
125.137 192.703 137.415 0.79087 0.603533 0.101349
124.124 189.567 138.473 -0.381204 -0.916959 -0.117774
124.258 189.372 139.556 -0.381204 -0.916959 -0.117774
123.747 189.583 139.561 -0.381204 -0.916959 -0.117774
123.657 189.739 138.616 -0.373882 -0.920296 -0.115188
124.124 189.567 138.473 -0.373882 -0.920296 -0.115188
123.747 189.583 139.561 -0.373882 -0.920296 -0.115188
124.258 189.372 139.556 0.541858 -0.813051 -0.212925
124.124 189.567 138.473 0.541858 -0.813051 -0.212925
124.396 189.693 138.684 0.541858 -0.813051 -0.212925
124.628 189.651 139.549 0.588373 -0.784699 -0.195103
124.258 189.372 139.556 0.588373 -0.784699 -0.195103
124.396 189.693 138.684 0.588373 -0.784699 -0.195103
123.328 190.112 138.649 -0.985383 0.0190065 0.169287
123.379 190.665 138.886 -0.985383 0.0190065 0.169287
123.269 190.602 138.251 -0.985383 0.0190065 0.169287
123.328 190.112 138.649 -0.94854 -0.0463376 0.313249
123.579 190.483 139.463 -0.94854 -0.0463376 0.313249
123.379 190.665 138.886 -0.94854 -0.0463376 0.313249
123.328 190.112 138.649 -0.640325 -0.605405 0.472725
123.657 189.739 138.616 -0.640325 -0.605405 0.472725
123.579 190.483 139.463 -0.640325 -0.605405 0.472725
123.657 189.739 138.616 -0.982086 -0.176908 0.0648949
123.747 189.583 139.561 -0.982086 -0.176908 0.0648949
123.579 190.483 139.463 -0.982086 -0.176908 0.0648949
125.395 190.362 139.646 0.647841 -0.644031 -0.406848
124.628 189.651 139.549 0.647841 -0.644031 -0.406848
124.755 190.4 138.566 0.647841 -0.644031 -0.406848
124.628 189.651 139.549 0.84635 -0.470786 -0.249102
124.396 189.693 138.684 0.84635 -0.470786 -0.249102
124.755 190.4 138.566 0.84635 -0.470786 -0.249102
123.379 190.665 138.886 -0.861142 0.498386 0.100223
123.837 191.518 138.577 -0.861142 0.498386 0.100223
123.269 190.602 138.251 -0.861142 0.498386 0.100223
123.379 190.665 138.886 -0.726105 0.54267 0.422233
123.579 190.483 139.463 -0.726105 0.54267 0.422233
123.837 191.518 138.577 -0.726105 0.54267 0.422233
123.579 190.483 139.463 -0.920628 0.359787 0.151649
124.004 191.512 139.607 -0.920628 0.359787 0.151649
123.837 191.518 138.577 -0.920628 0.359787 0.151649
124.755 190.4 138.566 0.75377 -0.466032 -0.463299
125.388 191.454 138.535 0.75377 -0.466032 -0.463299
125.395 190.362 139.646 0.75377 -0.466032 -0.463299
125.395 190.362 139.646 0.846939 -0.376234 -0.375689
125.388 191.454 138.535 0.846939 -0.376234 -0.375689
125.597 190.887 139.574 0.846939 -0.376234 -0.375689
125.597 190.887 139.574 0.982131 0.147103 -0.117389
125.388 191.454 138.535 0.982131 0.147103 -0.117389
125.491 191.573 139.55 0.982131 0.147103 -0.117389
124.39 192.153 139.393 -0.504688 0.798913 0.327152
124.494 192.549 138.584 -0.504688 0.798913 0.327152
124.206 192.323 138.693 -0.504688 0.798913 0.327152
124.39 192.153 139.393 -0.753106 0.565659 0.335948
124.206 192.323 138.693 -0.753106 0.565659 0.335948
124.004 191.512 139.607 -0.753106 0.565659 0.335948
124.004 191.512 139.607 -0.906875 0.393941 0.149628
124.206 192.323 138.693 -0.906875 0.393941 0.149628
123.837 191.518 138.577 -0.906875 0.393941 0.149628
124.494 192.549 138.584 0.1998 0.938747 0.280774
125.071 192.154 139.494 0.1998 0.938747 0.280774
125.206 192.441 138.44 0.1998 0.938747 0.280774
124.39 192.153 139.393 -0.0659831 0.899301 0.432324
125.071 192.154 139.494 -0.0659831 0.899301 0.432324
124.494 192.549 138.584 -0.0659831 0.899301 0.432324
125.206 192.441 138.44 0.77114 0.582567 0.256824
125.071 192.154 139.494 0.77114 0.582567 0.256824
125.491 191.573 139.55 0.77114 0.582567 0.256824
125.206 192.441 138.44 0.978353 0.168909 -0.119564
125.491 191.573 139.55 0.978353 0.168909 -0.119564
125.388 191.454 138.535 0.978353 0.168909 -0.119564
124.595 188.816 140.392 -0.220544 -0.754229 -0.618465
124.522 188.435 140.883 -0.220544 -0.754229 -0.618465
124.174 188.861 140.487 -0.220544 -0.754229 -0.618465
124.595 188.816 140.392 0.203573 -0.610618 -0.765313
125.35 188.821 140.588 0.203573 -0.610618 -0.765313
125.153 188.557 140.747 0.203573 -0.610618 -0.765313
124.522 188.435 140.883 0.0214633 -0.791249 -0.611117
124.595 188.816 140.392 0.0214633 -0.791249 -0.611117
125.153 188.557 140.747 0.0214633 -0.791249 -0.611117
125.153 188.557 140.747 0.518316 -0.688904 -0.506715
125.35 188.821 140.588 0.518316 -0.688904 -0.506715
125.471 188.715 140.857 0.518316 -0.688904 -0.506715
124.258 189.372 139.556 -0.200728 -0.851134 -0.485056
124.595 188.816 140.392 -0.200728 -0.851134 -0.485056
124.174 188.861 140.487 -0.200728 -0.851134 -0.485056
124.258 189.372 139.556 -0.340752 -0.810975 -0.475614
124.174 188.861 140.487 -0.340752 -0.810975 -0.475614
123.747 189.583 139.561 -0.340752 -0.810975 -0.475614
123.747 189.583 139.561 -0.910519 -0.39897 0.108527
124.174 188.861 140.487 -0.910519 -0.39897 0.108527
123.864 189.591 140.565 -0.910519 -0.39897 0.108527
124.628 189.651 139.549 0.468031 -0.636933 -0.612587
124.595 188.816 140.392 0.468031 -0.636933 -0.612587
124.258 189.372 139.556 0.468031 -0.636933 -0.612587
124.628 189.651 139.549 0.507141 -0.622161 -0.596426
125.263 189.467 140.28 0.507141 -0.622161 -0.596426
124.595 188.816 140.392 0.507141 -0.622161 -0.596426
125.263 189.467 140.28 0.234376 -0.392701 -0.8893
125.35 188.821 140.588 0.234376 -0.392701 -0.8893
124.595 188.816 140.392 0.234376 -0.392701 -0.8893
125.882 189.516 140.675 0.71163 -0.481832 -0.511293
125.471 188.715 140.857 0.71163 -0.481832 -0.511293
125.35 188.821 140.588 0.71163 -0.481832 -0.511293
125.263 189.467 140.28 0.528223 -0.306572 -0.79183
125.882 189.516 140.675 0.528223 -0.306572 -0.79183
125.35 188.821 140.588 0.528223 -0.306572 -0.79183
123.747 189.583 139.561 -0.978605 -0.170794 0.114725
123.864 189.591 140.565 -0.978605 -0.170794 0.114725
123.579 190.483 139.463 -0.978605 -0.170794 0.114725
123.864 189.591 140.565 -0.87991 0.231727 0.414803
124.115 190.456 140.615 -0.87991 0.231727 0.414803
123.579 190.483 139.463 -0.87991 0.231727 0.414803
124.628 189.651 139.549 0.570209 -0.529737 -0.627886
125.395 190.362 139.646 0.570209 -0.529737 -0.627886
125.263 189.467 140.28 0.570209 -0.529737 -0.627886
125.395 190.362 139.646 0.831916 -0.375055 -0.408962
125.597 190.887 139.574 0.831916 -0.375055 -0.408962
125.911 190.592 140.483 0.831916 -0.375055 -0.408962
125.395 190.362 139.646 0.859571 -0.11165 -0.49867
125.911 190.592 140.483 0.859571 -0.11165 -0.49867
125.882 189.516 140.675 0.859571 -0.11165 -0.49867
125.395 190.362 139.646 0.477683 -0.554154 -0.681713
125.882 189.516 140.675 0.477683 -0.554154 -0.681713
125.263 189.467 140.28 0.477683 -0.554154 -0.681713
124.396 191.049 140.447 -0.615537 0.533378 0.580192
124.502 191.673 139.986 -0.615537 0.533378 0.580192
124.004 191.512 139.607 -0.615537 0.533378 0.580192
124.396 191.049 140.447 -0.665794 0.477852 0.573041
124.004 191.512 139.607 -0.665794 0.477852 0.573041
124.115 190.456 140.615 -0.665794 0.477852 0.573041
124.115 190.456 140.615 -0.862302 0.299722 0.40817
124.004 191.512 139.607 -0.862302 0.299722 0.40817
123.579 190.483 139.463 -0.862302 0.299722 0.40817
124.396 191.049 140.447 -0.196367 0.604054 0.772372
125.194 191.303 140.451 -0.196367 0.604054 0.772372
124.502 191.673 139.986 -0.196367 0.604054 0.772372
125.911 190.592 140.483 0.634391 0.657606 0.406329
125.491 191.573 139.55 0.634391 0.657606 0.406329
125.194 191.303 140.451 0.634391 0.657606 0.406329
125.911 190.592 140.483 0.949211 0.136246 -0.283612
125.597 190.887 139.574 0.949211 0.136246 -0.283612
125.491 191.573 139.55 0.949211 0.136246 -0.283612
124.004 191.512 139.607 -0.610537 0.556046 0.563965
124.502 191.673 139.986 -0.610537 0.556046 0.563965
124.39 192.153 139.393 -0.610537 0.556046 0.563965
125.071 192.154 139.494 -0.0961292 0.765413 0.636319
124.39 192.153 139.393 -0.0961292 0.765413 0.636319
124.502 191.673 139.986 -0.0961292 0.765413 0.636319
125.194 191.303 140.451 -0.0509543 0.743326 0.666986
125.071 192.154 139.494 -0.0509543 0.743326 0.666986
124.502 191.673 139.986 -0.0509543 0.743326 0.666986
125.491 191.573 139.55 0.721378 0.56101 0.406056
125.071 192.154 139.494 0.721378 0.56101 0.406056
125.194 191.303 140.451 0.721378 0.56101 0.406056
124.522 188.435 140.883 -0.639011 -0.744308 0.19409
124.57 188.561 141.526 -0.639011 -0.744308 0.19409
124.261 188.775 141.328 -0.639011 -0.744308 0.19409
124.174 188.861 140.487 -0.782456 -0.62247 0.0171259
124.522 188.435 140.883 -0.782456 -0.62247 0.0171259
124.261 188.775 141.328 -0.782456 -0.62247 0.0171259
125.153 188.557 140.747 0.186547 -0.982354 -0.0134539
125.185 188.554 141.364 0.186547 -0.982354 -0.0134539
124.522 188.435 140.883 0.186547 -0.982354 -0.0134539
124.522 188.435 140.883 0.0388102 -0.981085 0.189649
125.185 188.554 141.364 0.0388102 -0.981085 0.189649
124.57 188.561 141.526 0.0388102 -0.981085 0.189649
125.185 188.554 141.364 0.452452 -0.891392 -0.0265827
125.153 188.557 140.747 0.452452 -0.891392 -0.0265827
125.471 188.715 140.857 0.452452 -0.891392 -0.0265827
125.49 188.886 141.454 0.700085 -0.691999 0.176123
125.185 188.554 141.364 0.700085 -0.691999 0.176123
125.471 188.715 140.857 0.700085 -0.691999 0.176123
124.174 188.861 140.487 -0.916737 -0.395794 0.0542268
124.261 188.775 141.328 -0.916737 -0.395794 0.0542268
123.864 189.591 140.565 -0.916737 -0.395794 0.0542268
124.261 188.775 141.328 -0.923707 -0.105428 0.368306
124.199 189.499 141.38 -0.923707 -0.105428 0.368306
123.864 189.591 140.565 -0.923707 -0.105428 0.368306
125.471 188.715 140.857 0.894287 -0.437008 0.0963074
125.882 189.516 140.675 0.894287 -0.437008 0.0963074
125.49 188.886 141.454 0.894287 -0.437008 0.0963074
125.49 188.886 141.454 0.927991 -0.162226 0.335433
125.882 189.516 140.675 0.927991 -0.162226 0.335433
125.661 189.761 141.403 0.927991 -0.162226 0.335433
124.51 189.753 141.524 -0.57964 0.50269 0.641342
124.62 190.589 140.968 -0.57964 0.50269 0.641342
124.115 190.456 140.615 -0.57964 0.50269 0.641342
124.51 189.753 141.524 -0.647008 0.440411 0.62243
124.115 190.456 140.615 -0.647008 0.440411 0.62243
124.199 189.499 141.38 -0.647008 0.440411 0.62243
124.199 189.499 141.38 -0.889027 0.235663 0.392547
124.115 190.456 140.615 -0.889027 0.235663 0.392547
123.864 189.591 140.565 -0.889027 0.235663 0.392547
124.62 190.589 140.968 -0.1943 0.672677 0.71397
125.19 190.159 141.529 -0.1943 0.672677 0.71397
125.384 190.55 141.213 -0.1943 0.672677 0.71397
124.51 189.753 141.524 -0.334764 0.551832 0.763815
125.19 190.159 141.529 -0.334764 0.551832 0.763815
124.62 190.589 140.968 -0.334764 0.551832 0.763815
125.911 190.592 140.483 0.735002 0.392249 0.553094
125.384 190.55 141.213 0.735002 0.392249 0.553094
125.661 189.761 141.403 0.735002 0.392249 0.553094
125.911 190.592 140.483 0.959103 0.0248731 0.281962
125.661 189.761 141.403 0.959103 0.0248731 0.281962
125.882 189.516 140.675 0.959103 0.0248731 0.281962
125.19 190.159 141.529 0.516232 0.36838 0.773176
125.661 189.761 141.403 0.516232 0.36838 0.773176
125.384 190.55 141.213 0.516232 0.36838 0.773176
124.115 190.456 140.615 -0.585457 0.465484 0.66375
124.62 190.589 140.968 -0.585457 0.465484 0.66375
124.396 191.049 140.447 -0.585457 0.465484 0.66375
125.194 191.303 140.451 -0.220719 0.681753 0.697492
124.396 191.049 140.447 -0.220719 0.681753 0.697492
124.62 190.589 140.968 -0.220719 0.681753 0.697492
125.384 190.55 141.213 -0.194342 0.672549 0.714079
125.194 191.303 140.451 -0.194342 0.672549 0.714079
124.62 190.589 140.968 -0.194342 0.672549 0.714079
125.911 190.592 140.483 0.608646 0.634708 0.476126
125.194 191.303 140.451 0.608646 0.634708 0.476126
125.384 190.55 141.213 0.608646 0.634708 0.476126
124.57 188.561 141.526 -0.679707 -0.437827 0.588477
124.518 188.888 141.709 -0.679707 -0.437827 0.588477
124.261 188.775 141.328 -0.679707 -0.437827 0.588477
124.57 188.561 141.526 0.110015 -0.883454 0.455418
125.185 188.554 141.364 0.110015 -0.883454 0.455418
125.141 188.712 141.68 0.110015 -0.883454 0.455418
124.518 188.888 141.709 -0.10133 -0.49753 0.861508
124.57 188.561 141.526 -0.10133 -0.49753 0.861508
125.141 188.712 141.68 -0.10133 -0.49753 0.861508
125.185 188.554 141.364 0.608409 -0.673365 0.420021
125.49 188.886 141.454 0.608409 -0.673365 0.420021
125.141 188.712 141.68 0.608409 -0.673365 0.420021
124.518 188.888 141.709 -0.526512 0.17409 0.832153
124.51 189.753 141.524 -0.526512 0.17409 0.832153
124.199 189.499 141.38 -0.526512 0.17409 0.832153
124.261 188.775 141.328 -0.808618 -0.1104 0.577883
124.518 188.888 141.709 -0.808618 -0.1104 0.577883
124.199 189.499 141.38 -0.808618 -0.1104 0.577883
125.141 188.712 141.68 0.0154203 -0.107287 0.994109
125.208 189.407 141.754 0.0154203 -0.107287 0.994109
124.518 188.888 141.709 0.0154203 -0.107287 0.994109
125.208 189.407 141.754 -0.215347 0.203188 0.955165
124.51 189.753 141.524 -0.215347 0.203188 0.955165
124.518 188.888 141.709 -0.215347 0.203188 0.955165
125.49 188.886 141.454 0.649718 -0.0834138 0.755585
125.661 189.761 141.403 0.649718 -0.0834138 0.755585
125.208 189.407 141.754 0.649718 -0.0834138 0.755585
125.141 188.712 141.68 0.587185 -0.141285 0.797027
125.49 188.886 141.454 0.587185 -0.141285 0.797027
125.208 189.407 141.754 0.587185 -0.141285 0.797027
125.208 189.407 141.754 -0.173809 0.279605 0.944252
125.19 190.159 141.529 -0.173809 0.279605 0.944252
124.51 189.753 141.524 -0.173809 0.279605 0.944252
125.661 189.761 141.403 0.451168 0.266345 0.851767
125.19 190.159 141.529 0.451168 0.266345 0.851767
125.208 189.407 141.754 0.451168 0.266345 0.851767
3 0 1 2
3 3 4 5
3 6 7 8
3 9 10 11
3 12 13 14
3 15 16 17
3 18 19 20
3 21 22 23
3 24 25 26
3 27 28 29
3 30 31 32
3 33 34 35
3 36 37 38
3 39 40 41
3 42 43 44
3 45 46 47
3 48 49 50
3 51 52 53
3 54 55 56
3 57 58 59
3 60 61 62
3 63 64 65
3 66 67 68
3 69 70 71
3 72 73 74
3 75 76 77
3 78 79 80
3 81 82 83
3 84 85 86
3 87 88 89
3 90 91 92
3 93 94 95
3 96 97 98
3 99 100 101
3 102 103 104
3 105 106 107
3 108 109 110
3 111 112 113
3 114 115 116
3 117 118 119
3 120 121 122
3 123 124 125
3 126 127 128
3 129 130 131
3 132 133 134
3 135 136 137
3 138 139 140
3 141 142 143
3 144 145 146
3 147 148 149
3 150 151 152
3 153 154 155
3 156 157 158
3 159 160 161
3 162 163 164
3 165 166 167
3 168 169 170
3 171 172 173
3 174 175 176
3 177 178 179
3 180 181 182
3 183 184 185
3 186 187 188
3 189 190 191
3 192 193 194
3 195 196 197
3 198 199 200
3 201 202 203
3 204 205 206
3 207 208 209
3 210 211 212
3 213 214 215
3 216 217 218
3 219 220 221
3 222 223 224
3 225 226 227
3 228 229 230
3 231 232 233
3 234 235 236
3 237 238 239
3 240 241 242
3 243 244 245
3 246 247 248
3 249 250 251
3 252 253 254
3 255 256 257
3 258 259 260
3 261 262 263
3 264 265 266
3 267 268 269
3 270 271 272
3 273 274 275
3 276 277 278
3 279 280 281
3 282 283 284
3 285 286 287
3 288 289 290
3 291 292 293
3 294 295 296
3 297 298 299
3 300 301 302
3 303 304 305
3 306 307 308
3 309 310 311
3 312 313 314
3 315 316 317
3 318 319 320
3 321 322 323
3 324 325 326
3 327 328 329
3 330 331 332
3 333 334 335
3 336 337 338
3 339 340 341
3 342 343 344
3 345 346 347
3 348 349 350
3 351 352 353
3 354 355 356
3 357 358 359
3 360 361 362
3 363 364 365
3 366 367 368
3 369 370 371
3 372 373 374
3 375 376 377
3 378 379 380
3 381 382 383
3 384 385 386
3 387 388 389
3 390 391 392
3 393 394 395
3 396 397 398
3 399 400 401
3 402 403 404
3 405 406 407
3 408 409 410
3 411 412 413
3 414 415 416
3 417 418 419
3 420 421 422
3 423 424 425
3 426 427 428
3 429 430 431
3 432 433 434
3 435 436 437
3 438 439 440
3 441 442 443
3 444 445 446
3 447 448 449
3 450 451 452
3 453 454 455
3 456 457 458
3 459 460 461
3 462 463 464
3 465 466 467
3 468 469 470
3 471 472 473
3 474 475 476
3 477 478 479
3 480 481 482
3 483 484 485
3 486 487 488
3 489 490 491
