ply
format ascii 1.0
element vertex 180
property float x
property float y
property float z
property float nx
property float ny
property float nz
element face 60
property list uint uint vertex_indices
end_header
54.9369 115.979 166.694 -0.0139127 -0.590097 -0.807213
54.8276 115.669 166.923 -0.0139127 -0.590097 -0.807213
54.3495 115.831 166.813 -0.0139127 -0.590097 -0.807213
54.8276 115.669 166.923 0.262068 -0.63071 -0.730428
54.9369 115.979 166.694 0.262068 -0.63071 -0.730428
55.2031 115.803 166.942 0.262068 -0.63071 -0.730428
54.2462 116.622 166.635 -0.550757 -0.242087 -0.798787
54.0034 116.071 166.969 -0.550757 -0.242087 -0.798787
53.9059 116.796 166.817 -0.550757 -0.242087 -0.798787
54.3495 115.831 166.813 -0.537727 -0.251452 -0.804749
54.0034 116.071 166.969 -0.537727 -0.251452 -0.804749
54.2462 116.622 166.635 -0.537727 -0.251452 -0.804749
54.3495 115.831 166.813 -0.135468 -0.234513 -0.962628
54.2462 116.622 166.635 -0.135468 -0.234513 -0.962628
54.9369 115.979 166.694 -0.135468 -0.234513 -0.962628
54.9369 115.979 166.694 -0.0193602 -0.112518 -0.993461
54.2462 116.622 166.635 -0.0193602 -0.112518 -0.993461
55.0935 116.774 166.601 -0.0193602 -0.112518 -0.993461
55.7584 116.62 166.939 0.505912 -0.346796 -0.789801
55.2031 115.803 166.942 0.505912 -0.346796 -0.789801
54.9369 115.979 166.694 0.505912 -0.346796 -0.789801
55.0935 116.774 166.601 0.410736 -0.18548 -0.892689
55.7584 116.62 166.939 0.410736 -0.18548 -0.892689
54.9369 115.979 166.694 0.410736 -0.18548 -0.892689
54.0851 117.413 166.68 -0.490474 -0.0503342 -0.870001
54.2462 116.622 166.635 -0.490474 -0.0503342 -0.870001
53.9059 116.796 166.817 -0.490474 -0.0503342 -0.870001
53.9324 117.453 166.953 -0.855336 0.137897 -0.499385
54.0851 117.413 166.68 -0.855336 0.137897 -0.499385
53.9059 116.796 166.817 -0.855336 0.137897 -0.499385
55.0935 116.774 166.601 -0.0492798 0.0532935 -0.997362
54.2462 116.622 166.635 -0.0492798 0.0532935 -0.997362
54.9753 117.503 166.646 -0.0492798 0.0532935 -0.997362
54.9753 117.503 166.646 -0.0430253 0.0481258 -0.997914
54.2462 116.622 166.635 -0.0430253 0.0481258 -0.997914
54.0851 117.413 166.68 -0.0430253 0.0481258 -0.997914
55.6664 117.344 166.72 0.40159 -0.218024 -0.889489
55.7584 116.62 166.939 0.40159 -0.218024 -0.889489
55.0935 116.774 166.601 0.40159 -0.218024 -0.889489
54.9753 117.503 166.646 0.124475 0.0809601 -0.988914
55.6664 117.344 166.72 0.124475 0.0809601 -0.988914
55.0935 116.774 166.601 0.124475 0.0809601 -0.988914
54.0851 117.413 166.68 -0.644628 0.615836 -0.452991
53.9324 117.453 166.953 -0.644628 0.615836 -0.452991
54.1881 117.655 166.862 -0.644628 0.615836 -0.452991
54.9753 117.503 166.646 -0.0929335 0.624159 -0.775751
54.0851 117.413 166.68 -0.0929335 0.624159 -0.775751
54.1881 117.655 166.862 -0.0929335 0.624159 -0.775751
54.8276 115.669 166.923 -0.0878191 -0.995911 0.0211798
54.9945 115.666 167.494 -0.0878191 -0.995911 0.0211798
54.3368 115.723 167.443 -0.0878191 -0.995911 0.0211798
54.3495 115.831 166.813 -0.281077 -0.945134 -0.166485
54.8276 115.669 166.923 -0.281077 -0.945134 -0.166485
54.3368 115.723 167.443 -0.281077 -0.945134 -0.166485
54.9945 115.666 167.494 0.338176 -0.935409 -0.103186
54.8276 115.669 166.923 0.338176 -0.935409 -0.103186
55.2031 115.803 166.942 0.338176 -0.935409 -0.103186
55.6398 115.915 167.547 0.365018 -0.926558 -0.0908397
54.9945 115.666 167.494 0.365018 -0.926558 -0.0908397
55.2031 115.803 166.942 0.365018 -0.926558 -0.0908397
54.0034 116.071 166.969 -0.962682 -0.243984 0.117108
54.1014 116.01 167.647 -0.962682 -0.243984 0.117108
53.9013 116.709 167.458 -0.962682 -0.243984 0.117108
53.9059 116.796 166.817 -0.990002 -0.138628 -0.0260609
54.0034 116.071 166.969 -0.990002 -0.138628 -0.0260609
53.9013 116.709 167.458 -0.990002 -0.138628 -0.0260609
54.3368 115.723 167.443 -0.608028 -0.780546 -0.145085
54.0034 116.071 166.969 -0.608028 -0.780546 -0.145085
54.3495 115.831 166.813 -0.608028 -0.780546 -0.145085
54.1014 116.01 167.647 -0.754011 -0.654978 0.0497176
54.0034 116.071 166.969 -0.754011 -0.654978 0.0497176
54.3368 115.723 167.443 -0.754011 -0.654978 0.0497176
55.9467 116.312 167.569 0.711235 -0.524052 -0.468523
55.6398 115.915 167.547 0.711235 -0.524052 -0.468523
55.7584 116.62 166.939 0.711235 -0.524052 -0.468523
55.6398 115.915 167.547 0.741596 -0.505465 -0.441067
55.2031 115.803 166.942 0.741596 -0.505465 -0.441067
55.7584 116.62 166.939 0.741596 -0.505465 -0.441067
53.9633 117.402 167.583 -0.872718 0.481291 0.081986
54.0774 117.652 167.331 -0.872718 0.481291 0.081986
53.9324 117.453 166.953 -0.872718 0.481291 0.081986
53.9633 117.402 167.583 -0.995342 0.0790529 0.0551756
53.9324 117.453 166.953 -0.995342 0.0790529 0.0551756
53.9013 116.709 167.458 -0.995342 0.0790529 0.0551756
53.9013 116.709 167.458 -0.999173 0.0406277 -0.00169551
53.9324 117.453 166.953 -0.999173 0.0406277 -0.00169551
53.9059 116.796 166.817 -0.999173 0.0406277 -0.00169551
53.9633 117.402 167.583 -0.60489 0.685675 0.404917
54.22 117.542 167.731 -0.60489 0.685675 0.404917
54.0774 117.652 167.331 -0.60489 0.685675 0.404917
55.7584 116.62 166.939 0.918303 -0.00298795 -0.395867
55.6664 117.344 166.72 0.918303 -0.00298795 -0.395867
55.832 117.484 167.103 0.918303 -0.00298795 -0.395867
55.8222 117.247 167.66 0.965024 0.149462 -0.215382
55.9467 116.312 167.569 0.965024 0.149462 -0.215382
55.7584 116.62 166.939 0.965024 0.149462 -0.215382
55.832 117.484 167.103 0.996514 -0.0816428 -0.0171409
55.8222 117.247 167.66 0.996514 -0.0816428 -0.0171409
55.7584 116.62 166.939 0.996514 -0.0816428 -0.0171409
53.9324 117.453 166.953 -0.643258 0.751222 -0.147937
54.0774 117.652 167.331 -0.643258 0.751222 -0.147937
54.1881 117.655 166.862 -0.643258 0.751222 -0.147937
54.0774 117.652 167.331 -0.131135 0.94263 0.307004
54.22 117.542 167.731 -0.131135 0.94263 0.307004
54.789 117.704 167.474 -0.131135 0.94263 0.307004
54.0774 117.652 167.331 -0.0710073 0.997413 -0.011219
54.789 117.704 167.474 -0.0710073 0.997413 -0.011219
54.1881 117.655 166.862 -0.0710073 0.997413 -0.011219
54.1881 117.655 166.862 0.13015 0.969732 -0.206593
54.789 117.704 167.474 0.13015 0.969732 -0.206593
54.9753 117.503 166.646 0.13015 0.969732 -0.206593
55.832 117.484 167.103 0.245461 0.871668 -0.424198
55.6664 117.344 166.72 0.245461 0.871668 -0.424198
54.9753 117.503 166.646 0.245461 0.871668 -0.424198
55.832 117.484 167.103 0.157521 0.953738 -0.25607
54.9753 117.503 166.646 0.157521 0.953738 -0.25607
55.6207 117.627 167.506 0.157521 0.953738 -0.25607
55.6207 117.627 167.506 0.0983235 0.971816 -0.214257
54.9753 117.503 166.646 0.0983235 0.971816 -0.214257
54.789 117.704 167.474 0.0983235 0.971816 -0.214257
55.8222 117.247 167.66 0.814036 0.529221 0.239312
55.832 117.484 167.103 0.814036 0.529221 0.239312
55.6207 117.627 167.506 0.814036 0.529221 0.239312
54.9945 115.666 167.494 -0.113222 -0.842942 0.525956
54.915 115.953 167.936 -0.113222 -0.842942 0.525956
54.3368 115.723 167.443 -0.113222 -0.842942 0.525956
54.9945 115.666 167.494 0.257815 -0.788993 0.557693
55.6398 115.915 167.547 0.257815 -0.788993 0.557693
54.915 115.953 167.936 0.257815 -0.788993 0.557693
54.1014 116.01 167.647 -0.843542 -0.0990225 0.527855
54.2296 116.771 167.994 -0.843542 -0.0990225 0.527855
53.9013 116.709 167.458 -0.843542 -0.0990225 0.527855
54.1014 116.01 167.647 -0.282319 -0.698944 0.657095
54.3368 115.723 167.443 -0.282319 -0.698944 0.657095
54.915 115.953 167.936 -0.282319 -0.698944 0.657095
54.1014 116.01 167.647 -0.335894 -0.343926 0.876864
54.915 115.953 167.936 -0.335894 -0.343926 0.876864
54.2296 116.771 167.994 -0.335894 -0.343926 0.876864
54.2296 116.771 167.994 -0.206318 -0.240367 0.948502
54.915 115.953 167.936 -0.206318 -0.240367 0.948502
55.1099 116.76 168.183 -0.206318 -0.240367 0.948502
55.6398 115.915 167.547 0.525518 -0.445641 0.724731
55.9467 116.312 167.569 0.525518 -0.445641 0.724731
55.7476 116.49 167.823 0.525518 -0.445641 0.724731
55.6398 115.915 167.547 0.402097 -0.455718 0.794128
55.7476 116.49 167.823 0.402097 -0.455718 0.794128
54.915 115.953 167.936 0.402097 -0.455718 0.794128
54.915 115.953 167.936 0.344287 -0.349715 0.871301
55.7476 116.49 167.823 0.344287 -0.349715 0.871301
55.1099 116.76 168.183 0.344287 -0.349715 0.871301
53.9013 116.709 167.458 -0.851763 -0.0185367 0.523599
54.2296 116.771 167.994 -0.851763 -0.0185367 0.523599
53.9633 117.402 167.583 -0.851763 -0.0185367 0.523599
54.22 117.542 167.731 -0.582058 0.256606 0.771597
53.9633 117.402 167.583 -0.582058 0.256606 0.771597
54.2296 116.771 167.994 -0.582058 0.256606 0.771597
54.22 117.542 167.731 -0.285253 0.306922 0.907981
54.2296 116.771 167.994 -0.285253 0.306922 0.907981
54.99 117.462 167.999 -0.285253 0.306922 0.907981
54.99 117.462 167.999 -0.202416 0.215466 0.955302
54.2296 116.771 167.994 -0.202416 0.215466 0.955302
55.1099 116.76 168.183 -0.202416 0.215466 0.955302
55.7476 116.49 167.823 0.528565 0.127982 0.83919
55.8222 117.247 167.66 0.528565 0.127982 0.83919
55.1099 116.76 168.183 0.528565 0.127982 0.83919
55.8222 117.247 167.66 0.425114 0.296476 0.855207
54.99 117.462 167.999 0.425114 0.296476 0.855207
55.1099 116.76 168.183 0.425114 0.296476 0.855207
55.7476 116.49 167.823 0.801953 0.0487577 0.595394
55.9467 116.312 167.569 0.801953 0.0487577 0.595394
55.8222 117.247 167.66 0.801953 0.0487577 0.595394
54.22 117.542 167.731 -0.0598085 0.897654 0.436623
54.99 117.462 167.999 -0.0598085 0.897654 0.436623
54.789 117.704 167.474 -0.0598085 0.897654 0.436623
55.6207 117.627 167.506 0.0697071 0.915831 0.395468
54.789 117.704 167.474 0.0697071 0.915831 0.395468
54.99 117.462 167.999 0.0697071 0.915831 0.395468
55.8222 117.247 167.66 0.433856 0.526953 0.730814
55.6207 117.627 167.506 0.433856 0.526953 0.730814
54.99 117.462 167.999 0.433856 0.526953 0.730814
3 0 1 2
3 3 4 5
3 6 7 8
3 9 10 11
3 12 13 14
3 15 16 17
3 18 19 20
3 21 22 23
3 24 25 26
3 27 28 29
3 30 31 32
3 33 34 35
3 36 37 38
3 39 40 41
3 42 43 44
3 45 46 47
3 48 49 50
3 51 52 53
3 54 55 56
3 57 58 59
3 60 61 62
3 63 64 65
3 66 67 68
3 69 70 71
3 72 73 74
3 75 76 77
3 78 79 80
3 81 82 83
3 84 85 86
3 87 88 89
3 90 91 92
3 93 94 95
3 96 97 98
3 99 100 101
3 102 103 104
3 105 106 107
3 108 109 110
3 111 112 113
3 114 115 116
3 117 118 119
3 120 121 122
3 123 124 125
3 126 127 128
3 129 130 131
3 132 133 134
3 135 136 137
3 138 139 140
3 141 142 143
3 144 145 146
3 147 148 149
3 150 151 152
3 153 154 155
3 156 157 158
3 159 160 161
3 162 163 164
3 165 166 167
3 168 169 170
3 171 172 173
3 174 175 176
3 177 178 179
