ply
format ascii 1.0
element vertex 240
property float x
property float y
property float z
property float nx
property float ny
property float nz
element face 80
property list uint uint vertex_indices
end_header
53.0332 188.818 144.817 -0.0533438 -0.136927 -0.989144
52.8675 188.63 144.852 -0.0533438 -0.136927 -0.989144
52.714 188.851 144.829 -0.0533438 -0.136927 -0.989144
52.8675 188.63 144.852 0.34919 -0.459369 -0.816729
53.0332 188.818 144.817 0.34919 -0.459369 -0.816729
53.1449 188.642 144.963 0.34919 -0.459369 -0.816729
52.821 189.507 144.759 -0.0496549 -0.0988907 -0.993859
53.0332 188.818 144.817 -0.0496549 -0.0988907 -0.993859
52.714 188.851 144.829 -0.0496549 -0.0988907 -0.993859
52.1217 189.664 144.956 -0.283053 -0.0569143 -0.957414
52.821 189.507 144.759 -0.283053 -0.0569143 -0.957414
52.714 188.851 144.829 -0.283053 -0.0569143 -0.957414
53.5933 188.867 145.04 0.364333 -0.449022 -0.815868
53.1449 188.642 144.963 0.364333 -0.449022 -0.815868
53.0332 188.818 144.817 0.364333 -0.449022 -0.815868
53.5933 188.867 145.04 0.376741 -0.117298 -0.918862
53.0332 188.818 144.817 0.376741 -0.117298 -0.918862
53.5808 189.741 144.923 0.376741 -0.117298 -0.918862
53.5808 189.741 144.923 0.216397 -0.0154722 -0.976183
53.0332 188.818 144.817 0.216397 -0.0154722 -0.976183
52.821 189.507 144.759 0.216397 -0.0154722 -0.976183
53.5933 188.867 145.04 0.619468 -0.0951737 -0.779231
53.5808 189.741 144.923 0.619468 -0.0951737 -0.779231
53.9061 189.526 145.208 0.619468 -0.0951737 -0.779231
52.765 190.495 144.931 -0.236254 0.154258 -0.959369
52.821 189.507 144.759 -0.236254 0.154258 -0.959369
52.1217 189.664 144.956 -0.236254 0.154258 -0.959369
52.1105 190.571 144.991 -0.0859344 0.0368549 -0.995619
52.765 190.495 144.931 -0.0859344 0.0368549 -0.995619
52.1217 189.664 144.956 -0.0859344 0.0368549 -0.995619
53.2278 190.617 145.151 0.322344 0.35771 -0.876435
53.5808 189.741 144.923 0.322344 0.35771 -0.876435
52.765 190.495 144.931 0.322344 0.35771 -0.876435
52.765 190.495 144.931 0.155758 0.17862 -0.971511
53.5808 189.741 144.923 0.155758 0.17862 -0.971511
52.821 189.507 144.759 0.155758 0.17862 -0.971511
52.8675 188.63 144.852 -0.786514 -0.570686 -0.236037
52.6775 188.795 145.085 -0.786514 -0.570686 -0.236037
52.714 188.851 144.829 -0.786514 -0.570686 -0.236037
52.8675 188.63 144.852 -0.155876 -0.861254 0.483678
53.1449 188.642 144.963 -0.155876 -0.861254 0.483678
52.6775 188.795 145.085 -0.155876 -0.861254 0.483678
51.8014 189.734 145.262 -0.806627 -0.58948 0.043207
52.0815 189.388 145.771 -0.806627 -0.58948 0.043207
51.7479 189.837 145.673 -0.806627 -0.58948 0.043207
52.6775 188.795 145.085 -0.472199 -0.827418 0.303985
52.9481 188.845 145.639 -0.472199 -0.827418 0.303985
52.0815 189.388 145.771 -0.472199 -0.827418 0.303985
52.6775 188.795 145.085 -0.805025 -0.548561 -0.225866
52.0815 189.388 145.771 -0.805025 -0.548561 -0.225866
52.1217 189.664 144.956 -0.805025 -0.548561 -0.225866
52.6775 188.795 145.085 -0.802956 -0.548376 -0.23355
52.1217 189.664 144.956 -0.802956 -0.548376 -0.23355
52.714 188.851 144.829 -0.802956 -0.548376 -0.23355
52.1217 189.664 144.956 -0.470914 -0.828063 -0.304221
52.0815 189.388 145.771 -0.470914 -0.828063 -0.304221
51.8014 189.734 145.262 -0.470914 -0.828063 -0.304221
53.1449 188.642 144.963 -0.254719 -0.944346 0.208158
52.9481 188.845 145.639 -0.254719 -0.944346 0.208158
52.6775 188.795 145.085 -0.254719 -0.944346 0.208158
53.1449 188.642 144.963 0.366188 -0.856891 0.362828
53.5933 188.867 145.04 0.366188 -0.856891 0.362828
52.9481 188.845 145.639 0.366188 -0.856891 0.362828
53.5933 188.867 145.04 0.238737 -0.945304 0.222272
53.6643 189.066 145.814 0.238737 -0.945304 0.222272
52.9481 188.845 145.639 0.238737 -0.945304 0.222272
53.6643 189.066 145.814 0.900073 -0.434728 0.0296536
53.5933 188.867 145.04 0.900073 -0.434728 0.0296536
53.9061 189.526 145.208 0.900073 -0.434728 0.0296536
53.9164 189.724 145.93 0.92473 -0.370207 0.0884339
53.6643 189.066 145.814 0.92473 -0.370207 0.0884339
53.9061 189.526 145.208 0.92473 -0.370207 0.0884339
51.8602 190.509 145.243 -0.986647 0.071248 -0.146465
51.8014 189.734 145.262 -0.986647 0.071248 -0.146465
51.7479 189.837 145.673 -0.986647 0.071248 -0.146465
51.7435 190.512 145.788 -0.977361 0.0293333 -0.209537
51.8602 190.509 145.243 -0.977361 0.0293333 -0.209537
51.7479 189.837 145.673 -0.977361 0.0293333 -0.209537
52.1217 189.664 144.956 -0.712536 0.0178597 -0.701408
51.8602 190.509 145.243 -0.712536 0.0178597 -0.701408
52.1105 190.571 144.991 -0.712536 0.0178597 -0.701408
51.8014 189.734 145.262 -0.686864 0.034167 -0.725982
51.8602 190.509 145.243 -0.686864 0.034167 -0.725982
52.1217 189.664 144.956 -0.686864 0.034167 -0.725982
53.5808 189.741 144.923 0.563284 0.413004 -0.715638
53.2278 190.617 145.151 0.563284 0.413004 -0.715638
53.732 190.479 145.469 0.563284 0.413004 -0.715638
53.5808 189.741 144.923 0.851125 0.187725 -0.490251
53.732 190.479 145.469 0.851125 0.187725 -0.490251
53.9126 190.315 145.719 0.851125 0.187725 -0.490251
53.5808 189.741 144.923 0.737889 0.362622 -0.569232
53.9126 190.315 145.719 0.737889 0.362622 -0.569232
53.9061 189.526 145.208 0.737889 0.362622 -0.569232
53.9061 189.526 145.208 0.999893 0.00124501 -0.0145948
53.9126 190.315 145.719 0.999893 0.00124501 -0.0145948
53.9164 189.724 145.93 0.999893 0.00124501 -0.0145948
52.0523 191.332 145.937 -0.905338 0.376592 -0.196318
51.8602 190.509 145.243 -0.905338 0.376592 -0.196318
51.7435 190.512 145.788 -0.905338 0.376592 -0.196318
52.1105 190.571 144.991 -0.00263072 0.604188 -0.796838
52.5238 191.275 145.523 -0.00263072 0.604188 -0.796838
52.765 190.495 144.931 -0.00263072 0.604188 -0.796838
52.1105 190.571 144.991 -0.599813 0.675885 -0.428256
51.8602 190.509 145.243 -0.599813 0.675885 -0.428256
52.5238 191.275 145.523 -0.599813 0.675885 -0.428256
51.8602 190.509 145.243 -0.467174 0.630881 -0.619466
52.0523 191.332 145.937 -0.467174 0.630881 -0.619466
52.5238 191.275 145.523 -0.467174 0.630881 -0.619466
52.765 190.495 144.931 0.268107 0.633817 -0.72553
52.5238 191.275 145.523 0.268107 0.633817 -0.72553
52.9652 191.312 145.719 0.268107 0.633817 -0.72553
53.2278 190.617 145.151 0.173173 0.661277 -0.729879
52.765 190.495 144.931 0.173173 0.661277 -0.729879
52.9652 191.312 145.719 0.173173 0.661277 -0.729879
53.2278 190.617 145.151 0.602086 0.628901 -0.49191
52.9652 191.312 145.719 0.602086 0.628901 -0.49191
53.5956 190.835 145.881 0.602086 0.628901 -0.49191
53.2278 190.617 145.151 0.494351 0.732172 -0.468551
53.5956 190.835 145.881 0.494351 0.732172 -0.468551
53.732 190.479 145.469 0.494351 0.732172 -0.468551
53.9126 190.315 145.719 0.803348 0.555732 -0.213996
53.732 190.479 145.469 0.803348 0.555732 -0.213996
53.5956 190.835 145.881 0.803348 0.555732 -0.213996
52.6925 191.604 146.013 -0.300654 0.836374 -0.458351
52.5238 191.275 145.523 -0.300654 0.836374 -0.458351
52.0523 191.332 145.937 -0.300654 0.836374 -0.458351
52.9652 191.312 145.719 0.196654 0.781168 -0.59254
52.5238 191.275 145.523 0.196654 0.781168 -0.59254
52.6925 191.604 146.013 0.196654 0.781168 -0.59254
52.0815 189.388 145.771 -0.758697 -0.463804 0.457455
51.9313 189.899 146.041 -0.758697 -0.463804 0.457455
51.7479 189.837 145.673 -0.758697 -0.463804 0.457455
52.559 189.709 146.58 -0.647599 -0.495313 0.579034
51.9313 189.899 146.041 -0.647599 -0.495313 0.579034
52.0815 189.388 145.771 -0.647599 -0.495313 0.579034
52.559 189.709 146.58 -0.429258 -0.723362 0.54082
52.0815 189.388 145.771 -0.429258 -0.723362 0.54082
52.9162 189.454 146.522 -0.429258 -0.723362 0.54082
52.9162 189.454 146.522 -0.399291 -0.761283 0.510896
52.0815 189.388 145.771 -0.399291 -0.761283 0.510896
52.9481 188.845 145.639 -0.399291 -0.761283 0.510896
53.6267 189.632 146.482 0.21491 -0.704816 0.676053
53.1395 189.754 146.764 0.21491 -0.704816 0.676053
52.9162 189.454 146.522 0.21491 -0.704816 0.676053
53.6267 189.632 146.482 0.221116 -0.738244 0.637262
52.9162 189.454 146.522 0.221116 -0.738244 0.637262
53.6643 189.066 145.814 0.221116 -0.738244 0.637262
53.6643 189.066 145.814 0.114453 -0.815714 0.567019
52.9162 189.454 146.522 0.114453 -0.815714 0.567019
52.9481 188.845 145.639 0.114453 -0.815714 0.567019
53.6643 189.066 145.814 0.840722 -0.389061 0.376587
53.9164 189.724 145.93 0.840722 -0.389061 0.376587
53.6267 189.632 146.482 0.840722 -0.389061 0.376587
51.9313 189.899 146.041 -0.843283 -0.0373373 0.536171
51.9494 190.701 146.125 -0.843283 -0.0373373 0.536171
51.7435 190.512 145.788 -0.843283 -0.0373373 0.536171
51.7479 189.837 145.673 -0.885944 -0.0834033 0.456232
51.9313 189.899 146.041 -0.885944 -0.0834033 0.456232
51.7435 190.512 145.788 -0.885944 -0.0834033 0.456232
52.5198 190.446 146.678 -0.668696 -0.132769 0.731586
51.9313 189.899 146.041 -0.668696 -0.132769 0.731586
52.559 189.709 146.58 -0.668696 -0.132769 0.731586
51.9494 190.701 146.125 -0.708021 -0.0579941 0.703806
51.9313 189.899 146.041 -0.708021 -0.0579941 0.703806
52.5198 190.446 146.678 -0.708021 -0.0579941 0.703806
53.6267 189.632 146.482 0.475933 -0.115373 0.871881
53.5396 190.49 146.643 0.475933 -0.115373 0.871881
53.1395 189.754 146.764 0.475933 -0.115373 0.871881
53.5396 190.49 146.643 0.885334 0.00262577 0.464947
53.6267 189.632 146.482 0.885334 0.00262577 0.464947
53.9164 189.724 145.93 0.885334 0.00262577 0.464947
53.5396 190.49 146.643 0.927722 0.130788 0.349608
53.9164 189.724 145.93 0.927722 0.130788 0.349608
53.9126 190.315 145.719 0.927722 0.130788 0.349608
51.7435 190.512 145.788 -0.882037 0.260678 0.392501
51.9494 190.701 146.125 -0.882037 0.260678 0.392501
52.0523 191.332 145.937 -0.882037 0.260678 0.392501
52.4423 191.291 146.677 -0.709171 -0.0642417 0.702104
51.9494 190.701 146.125 -0.709171 -0.0642417 0.702104
52.5198 190.446 146.678 -0.709171 -0.0642417 0.702104
52.0523 191.332 145.937 -0.844072 0.274718 0.460513
51.9494 190.701 146.125 -0.844072 0.274718 0.460513
52.4423 191.291 146.677 -0.844072 0.274718 0.460513
53.5956 190.835 145.881 0.811511 0.507731 0.289239
53.0019 191.416 146.528 0.811511 0.507731 0.289239
53.5396 190.49 146.643 0.811511 0.507731 0.289239
52.9652 191.312 145.719 0.618985 0.775043 -0.127149
53.0019 191.416 146.528 0.618985 0.775043 -0.127149
53.5956 190.835 145.881 0.618985 0.775043 -0.127149
53.5396 190.49 146.643 0.85816 0.441157 0.262568
53.9126 190.315 145.719 0.85816 0.441157 0.262568
53.5956 190.835 145.881 0.85816 0.441157 0.262568
52.0523 191.332 145.937 -0.680058 0.618703 0.393355
52.4423 191.291 146.677 -0.680058 0.618703 0.393355
52.6599 191.579 146.599 -0.680058 0.618703 0.393355
52.0523 191.332 145.937 -0.392321 0.919671 0.0170086
52.6599 191.579 146.599 -0.392321 0.919671 0.0170086
52.6925 191.604 146.013 -0.392321 0.919671 0.0170086
53.0019 191.416 146.528 0.658951 0.741776 -0.124707
52.9652 191.312 145.719 0.658951 0.741776 -0.124707
52.6925 191.604 146.013 0.658951 0.741776 -0.124707
52.6599 191.579 146.599 0.441058 0.895311 0.062345
53.0019 191.416 146.528 0.441058 0.895311 0.062345
52.6925 191.604 146.013 0.441058 0.895311 0.062345
52.9162 189.454 146.522 -0.255329 -0.538896 0.802744
52.8901 189.906 146.817 -0.255329 -0.538896 0.802744
52.559 189.709 146.58 -0.255329 -0.538896 0.802744
52.9162 189.454 146.522 -0.157326 -0.546257 0.82271
53.1395 189.754 146.764 -0.157326 -0.546257 0.82271
52.8901 189.906 146.817 -0.157326 -0.546257 0.82271
52.8901 189.906 146.817 -0.537546 -0.154597 0.828941
52.8492 190.702 146.939 -0.537546 -0.154597 0.828941
52.5198 190.446 146.678 -0.537546 -0.154597 0.828941
52.559 189.709 146.58 -0.520671 -0.139585 0.842269
52.8901 189.906 146.817 -0.520671 -0.139585 0.842269
52.5198 190.446 146.678 -0.520671 -0.139585 0.842269
53.1395 189.754 146.764 0.227519 0.0362797 0.973097
53.5396 190.49 146.643 0.227519 0.0362797 0.973097
52.8901 189.906 146.817 0.227519 0.0362797 0.973097
52.8901 189.906 146.817 0.35847 -0.12333 0.925359
53.5396 190.49 146.643 0.35847 -0.12333 0.925359
52.8492 190.702 146.939 0.35847 -0.12333 0.925359
52.8492 190.702 146.939 -0.399919 0.128186 0.907543
52.8738 191.346 146.859 -0.399919 0.128186 0.907543
52.4423 191.291 146.677 -0.399919 0.128186 0.907543
52.5198 190.446 146.678 -0.594854 -0.0536397 0.802042
52.8492 190.702 146.939 -0.594854 -0.0536397 0.802042
52.4423 191.291 146.677 -0.594854 -0.0536397 0.802042
53.5396 190.49 146.643 0.769031 0.497094 0.401856
53.0019 191.416 146.528 0.769031 0.497094 0.401856
52.8738 191.346 146.859 0.769031 0.497094 0.401856
53.5396 190.49 146.643 0.416706 0.0964599 0.903909
52.8738 191.346 146.859 0.416706 0.0964599 0.903909
52.8492 190.702 146.939 0.416706 0.0964599 0.903909
52.4423 191.291 146.677 -0.390515 0.502053 0.771648
52.8738 191.346 146.859 -0.390515 0.502053 0.771648
52.6599 191.579 146.599 -0.390515 0.502053 0.771648
53.0019 191.416 146.528 0.462356 0.814724 0.34993
52.6599 191.579 146.599 0.462356 0.814724 0.34993
52.8738 191.346 146.859 0.462356 0.814724 0.34993
3 0 1 2
3 3 4 5
3 6 7 8
3 9 10 11
3 12 13 14
3 15 16 17
3 18 19 20
3 21 22 23
3 24 25 26
3 27 28 29
3 30 31 32
3 33 34 35
3 36 37 38
3 39 40 41
3 42 43 44
3 45 46 47
3 48 49 50
3 51 52 53
3 54 55 56
3 57 58 59
3 60 61 62
3 63 64 65
3 66 67 68
3 69 70 71
3 72 73 74
3 75 76 77
3 78 79 80
3 81 82 83
3 84 85 86
3 87 88 89
3 90 91 92
3 93 94 95
3 96 97 98
3 99 100 101
3 102 103 104
3 105 106 107
3 108 109 110
3 111 112 113
3 114 115 116
3 117 118 119
3 120 121 122
3 123 124 125
3 126 127 128
3 129 130 131
3 132 133 134
3 135 136 137
3 138 139 140
3 141 142 143
3 144 145 146
3 147 148 149
3 150 151 152
3 153 154 155
3 156 157 158
3 159 160 161
3 162 163 164
3 165 166 167
3 168 169 170
3 171 172 173
3 174 175 176
3 177 178 179
3 180 181 182
3 183 184 185
3 186 187 188
3 189 190 191
3 192 193 194
3 195 196 197
3 198 199 200
3 201 202 203
3 204 205 206
3 207 208 209
3 210 211 212
3 213 214 215
3 216 217 218
3 219 220 221
3 222 223 224
3 225 226 227
3 228 229 230
3 231 232 233
3 234 235 236
3 237 238 239
