ply
format ascii 1.0
element vertex 168
property float x
property float y
property float z
property float nx
property float ny
property float nz
element face 56
property list uint uint vertex_indices
end_header
56.3246 99.2239 158.457 -0.316662 -0.459787 -0.829651
56.0987 98.8948 158.725 -0.316662 -0.459787 -0.829651
55.7696 99.2562 158.651 -0.316662 -0.459787 -0.829651
56.0987 98.8948 158.725 0.0736378 -0.660423 -0.747274
56.3246 99.2239 158.457 0.0736378 -0.660423 -0.747274
56.9662 99.0682 158.658 0.0736378 -0.660423 -0.747274
56.2881 99.9164 158.633 -0.310513 0.219037 -0.924989
56.3246 99.2239 158.457 -0.310513 0.219037 -0.924989
55.7696 99.2562 158.651 -0.310513 0.219037 -0.924989
55.9544 99.9033 158.735 -0.292379 0.204549 -0.93417
56.2881 99.9164 158.633 -0.292379 0.204549 -0.93417
55.7696 99.2562 158.651 -0.292379 0.204549 -0.93417
56.9662 99.0682 158.658 0.306142 0.0342534 -0.951369
56.3246 99.2239 158.457 0.306142 0.0342534 -0.951369
57.0598 99.7554 158.712 0.306142 0.0342534 -0.951369
57.0598 99.7554 158.712 0.150928 0.251232 -0.956087
56.3246 99.2239 158.457 0.150928 0.251232 -0.956087
56.2881 99.9164 158.633 0.150928 0.251232 -0.956087
55.273 98.9873 159.046 -0.426824 -0.843229 -0.326782
55.3562 98.8182 159.374 -0.426824 -0.843229 -0.326782
55.0449 98.9877 159.343 -0.426824 -0.843229 -0.326782
55.273 98.9873 159.046 -0.362615 -0.493559 -0.790512
55.7696 99.2562 158.651 -0.362615 -0.493559 -0.790512
56.0987 98.8948 158.725 -0.362615 -0.493559 -0.790512
55.273 98.9873 159.046 -0.251695 -0.884602 -0.392592
56.0987 98.8948 158.725 -0.251695 -0.884602 -0.392592
55.3562 98.8182 159.374 -0.251695 -0.884602 -0.392592
55.3562 98.8182 159.374 -0.143464 -0.95025 -0.276484
56.0987 98.8948 158.725 -0.143464 -0.95025 -0.276484
56.2054 98.629 159.584 -0.143464 -0.95025 -0.276484
56.9662 99.0682 158.658 0.137585 -0.872043 -0.469693
56.9355 98.7433 159.252 0.137585 -0.872043 -0.469693
56.0987 98.8948 158.725 0.137585 -0.872043 -0.469693
56.0987 98.8948 158.725 0.0142378 -0.954633 -0.297444
56.9355 98.7433 159.252 0.0142378 -0.954633 -0.297444
56.2054 98.629 159.584 0.0142378 -0.954633 -0.297444
57.3932 99.2571 159.419 0.760147 -0.585843 -0.281006
56.9355 98.7433 159.252 0.760147 -0.585843 -0.281006
56.9662 99.0682 158.658 0.760147 -0.585843 -0.281006
55.273 98.9873 159.046 -0.76373 0.26809 -0.587234
55.0449 98.9877 159.343 -0.76373 0.26809 -0.587234
55.1933 99.2249 159.258 -0.76373 0.26809 -0.587234
55.1933 99.2249 159.258 -0.69157 0.337949 -0.638375
55.7696 99.2562 158.651 -0.69157 0.337949 -0.638375
55.273 98.9873 159.046 -0.69157 0.337949 -0.638375
55.1933 99.2249 159.258 -0.573283 0.640791 -0.510621
55.6024 99.7531 159.462 -0.573283 0.640791 -0.510621
55.7696 99.2562 158.651 -0.573283 0.640791 -0.510621
55.6024 99.7531 159.462 -0.881737 0.299026 -0.364861
55.9544 99.9033 158.735 -0.881737 0.299026 -0.364861
55.7696 99.2562 158.651 -0.881737 0.299026 -0.364861
56.9662 99.0682 158.658 0.877759 -0.0818816 -0.472053
57.0598 99.7554 158.712 0.877759 -0.0818816 -0.472053
57.3932 99.2571 159.419 0.877759 -0.0818816 -0.472053
57.3932 99.2571 159.419 0.820092 -0.207352 -0.533342
57.0598 99.7554 158.712 0.820092 -0.207352 -0.533342
57.5346 99.9048 159.384 0.820092 -0.207352 -0.533342
55.9544 99.9033 158.735 -0.64452 0.748222 -0.157346
55.6024 99.7531 159.462 -0.64452 0.748222 -0.157346
56.2364 100.285 159.396 -0.64452 0.748222 -0.157346
56.2881 99.9164 158.633 -0.168093 0.882898 -0.438446
55.9544 99.9033 158.735 -0.168093 0.882898 -0.438446
56.2364 100.285 159.396 -0.168093 0.882898 -0.438446
57.0598 99.7554 158.712 0.222122 0.767966 -0.600742
56.2881 99.9164 158.633 0.222122 0.767966 -0.600742
57.0233 100.291 159.384 0.222122 0.767966 -0.600742
56.2881 99.9164 158.633 -0.0132301 0.899791 -0.43612
56.2364 100.285 159.396 -0.0132301 0.899791 -0.43612
57.0233 100.291 159.384 -0.0132301 0.899791 -0.43612
57.0233 100.291 159.384 0.51653 0.68276 -0.516754
57.5346 99.9048 159.384 0.51653 0.68276 -0.516754
57.0598 99.7554 158.712 0.51653 0.68276 -0.516754
55.3562 98.8182 159.374 -0.414657 -0.643593 0.64331
55.211 99.0933 159.556 -0.414657 -0.643593 0.64331
55.0449 98.9877 159.343 -0.414657 -0.643593 0.64331
55.8014 99.0978 160.006 -0.460325 -0.645397 0.60956
55.211 99.0933 159.556 -0.460325 -0.645397 0.60956
55.3562 98.8182 159.374 -0.460325 -0.645397 0.60956
55.8014 99.0978 160.006 -0.30924 -0.769907 0.558224
55.3562 98.8182 159.374 -0.30924 -0.769907 0.558224
56.2054 98.629 159.584 -0.30924 -0.769907 0.558224
56.9832 98.9787 159.817 0.216119 -0.827172 0.518728
56.5223 99.1156 160.228 0.216119 -0.827172 0.518728
56.2054 98.629 159.584 0.216119 -0.827172 0.518728
56.9832 98.9787 159.817 0.296469 -0.890303 0.345639
56.2054 98.629 159.584 0.296469 -0.890303 0.345639
56.9355 98.7433 159.252 0.296469 -0.890303 0.345639
56.9355 98.7433 159.252 0.688916 -0.68797 0.228237
57.3932 99.2571 159.419 0.688916 -0.68797 0.228237
56.9832 98.9787 159.817 0.688916 -0.68797 0.228237
55.0449 98.9877 159.343 -0.755975 0.580772 0.302004
55.211 99.0933 159.556 -0.755975 0.580772 0.302004
55.1933 99.2249 159.258 -0.755975 0.580772 0.302004
55.211 99.0933 159.556 -0.808391 0.518976 0.277792
55.6024 99.7531 159.462 -0.808391 0.518976 0.277792
55.1933 99.2249 159.258 -0.808391 0.518976 0.277792
55.211 99.0933 159.556 -0.550257 0.428263 0.716804
55.8014 99.0978 160.006 -0.550257 0.428263 0.716804
55.6024 99.7531 159.462 -0.550257 0.428263 0.716804
55.8014 99.0978 160.006 -0.915895 0.0523769 0.397987
55.9455 99.7651 160.25 -0.915895 0.0523769 0.397987
55.6024 99.7531 159.462 -0.915895 0.0523769 0.397987
56.9832 98.9787 159.817 0.455547 -0.554311 0.696575
57.1114 99.5549 160.192 0.455547 -0.554311 0.696575
56.5223 99.1156 160.228 0.455547 -0.554311 0.696575
57.1114 99.5549 160.192 0.758776 -0.465214 0.455889
56.9832 98.9787 159.817 0.758776 -0.465214 0.455889
57.3932 99.2571 159.419 0.758776 -0.465214 0.455889
57.1114 99.5549 160.192 0.876448 -0.245559 0.414173
57.3932 99.2571 159.419 0.876448 -0.245559 0.414173
57.2687 99.9204 160.076 0.876448 -0.245559 0.414173
57.2687 99.9204 160.076 0.91651 -0.181098 0.356669
57.3932 99.2571 159.419 0.91651 -0.181098 0.356669
57.5346 99.9048 159.384 0.91651 -0.181098 0.356669
55.6024 99.7531 159.462 -0.787143 0.517966 0.334838
55.9455 99.7651 160.25 -0.787143 0.517966 0.334838
56.1436 100.131 160.15 -0.787143 0.517966 0.334838
56.2364 100.285 159.396 -0.636057 0.767613 0.078752
55.6024 99.7531 159.462 -0.636057 0.767613 0.078752
56.1436 100.131 160.15 -0.636057 0.767613 0.078752
57.0233 100.291 159.384 -0.00510944 0.987884 0.155108
56.2364 100.285 159.396 -0.00510944 0.987884 0.155108
56.8575 100.164 160.186 -0.00510944 0.987884 0.155108
56.2364 100.285 159.396 -0.0556788 0.979506 0.193567
56.1436 100.131 160.15 -0.0556788 0.979506 0.193567
56.8575 100.164 160.186 -0.0556788 0.979506 0.193567
57.2687 99.9204 160.076 0.589427 0.780253 0.209239
57.5346 99.9048 159.384 0.589427 0.780253 0.209239
57.0233 100.291 159.384 0.589427 0.780253 0.209239
56.8575 100.164 160.186 0.542245 0.805379 0.239448
57.2687 99.9204 160.076 0.542245 0.805379 0.239448
57.0233 100.291 159.384 0.542245 0.805379 0.239448
56.2054 98.629 159.584 -0.245175 -0.757232 0.605384
56.206 99.2168 160.319 -0.245175 -0.757232 0.605384
55.8014 99.0978 160.006 -0.245175 -0.757232 0.605384
56.2054 98.629 159.584 -0.0690086 -0.779286 0.622857
56.5223 99.1156 160.228 -0.0690086 -0.779286 0.622857
56.206 99.2168 160.319 -0.0690086 -0.779286 0.622857
56.206 99.2168 160.319 -0.481775 -0.119715 0.868079
56.3134 99.9016 160.473 -0.481775 -0.119715 0.868079
55.9455 99.7651 160.25 -0.481775 -0.119715 0.868079
55.8014 99.0978 160.006 -0.570813 -0.170166 0.803254
56.206 99.2168 160.319 -0.570813 -0.170166 0.803254
55.9455 99.7651 160.25 -0.570813 -0.170166 0.803254
56.5223 99.1156 160.228 0.414924 -0.494385 0.76382
57.1114 99.5549 160.192 0.414924 -0.494385 0.76382
56.8903 99.7808 160.458 0.414924 -0.494385 0.76382
56.5223 99.1156 160.228 0.138011 -0.391727 0.909672
56.8903 99.7808 160.458 0.138011 -0.391727 0.909672
56.206 99.2168 160.319 0.138011 -0.391727 0.909672
56.206 99.2168 160.319 -0.0199849 -0.216396 0.976101
56.8903 99.7808 160.458 -0.0199849 -0.216396 0.976101
56.3134 99.9016 160.473 -0.0199849 -0.216396 0.976101
57.1114 99.5549 160.192 0.724856 -0.0949453 0.682326
57.2687 99.9204 160.076 0.724856 -0.0949453 0.682326
56.8903 99.7808 160.458 0.724856 -0.0949453 0.682326
55.9455 99.7651 160.25 -0.577498 0.491538 0.651833
56.3134 99.9016 160.473 -0.577498 0.491538 0.651833
56.1436 100.131 160.15 -0.577498 0.491538 0.651833
56.8575 100.164 160.186 -0.0677441 0.796669 0.600607
56.1436 100.131 160.15 -0.0677441 0.796669 0.600607
56.3134 99.9016 160.473 -0.0677441 0.796669 0.600607
56.8903 99.7808 160.458 0.142511 0.580886 0.801412
56.8575 100.164 160.186 0.142511 0.580886 0.801412
56.3134 99.9016 160.473 0.142511 0.580886 0.801412
57.2687 99.9204 160.076 0.498413 0.529684 0.686308
56.8575 100.164 160.186 0.498413 0.529684 0.686308
56.8903 99.7808 160.458 0.498413 0.529684 0.686308
3 0 1 2
3 3 4 5
3 6 7 8
3 9 10 11
3 12 13 14
3 15 16 17
3 18 19 20
3 21 22 23
3 24 25 26
3 27 28 29
3 30 31 32
3 33 34 35
3 36 37 38
3 39 40 41
3 42 43 44
3 45 46 47
3 48 49 50
3 51 52 53
3 54 55 56
3 57 58 59
3 60 61 62
3 63 64 65
3 66 67 68
3 69 70 71
3 72 73 74
3 75 76 77
3 78 79 80
3 81 82 83
3 84 85 86
3 87 88 89
3 90 91 92
3 93 94 95
3 96 97 98
3 99 100 101
3 102 103 104
3 105 106 107
3 108 109 110
3 111 112 113
3 114 115 116
3 117 118 119
3 120 121 122
3 123 124 125
3 126 127 128
3 129 130 131
3 132 133 134
3 135 136 137
3 138 139 140
3 141 142 143
3 144 145 146
3 147 148 149
3 150 151 152
3 153 154 155
3 156 157 158
3 159 160 161
3 162 163 164
3 165 166 167
