ply
format ascii 1.0
element vertex 354
property float x
property float y
property float z
property float nx
property float ny
property float nz
element face 118
property list uint uint vertex_indices
end_header
47.6913 162.62 155.995 -0.650134 -0.472375 -0.595137
47.5706 162.082 156.554 -0.650134 -0.472375 -0.595137
47.3268 162.687 156.34 -0.650134 -0.472375 -0.595137
47.6913 162.62 155.995 -0.00833147 -0.630552 -0.776103
48.5909 162.744 155.885 -0.00833147 -0.630552 -0.776103
48.3789 162.085 156.423 -0.00833147 -0.630552 -0.776103
47.5706 162.082 156.554 -0.111705 -0.703789 -0.701571
47.6913 162.62 155.995 -0.111705 -0.703789 -0.701571
48.3789 162.085 156.423 -0.111705 -0.703789 -0.701571
48.3789 162.085 156.423 0.564731 -0.623081 -0.541156
48.5909 162.744 155.885 0.564731 -0.623081 -0.541156
48.9067 162.548 156.44 0.564731 -0.623081 -0.541156
47.6036 163.394 156.098 -0.685324 0.0186281 -0.728
47.6913 162.62 155.995 -0.685324 0.0186281 -0.728
47.3268 162.687 156.34 -0.685324 0.0186281 -0.728
47.464 163.441 156.436 -0.892595 0.213292 -0.397217
47.6036 163.394 156.098 -0.892595 0.213292 -0.397217
47.3268 162.687 156.34 -0.892595 0.213292 -0.397217
48.5909 162.744 155.885 -0.0949323 -0.18286 -0.978545
47.6913 162.62 155.995 -0.0949323 -0.18286 -0.978545
48.4397 163.52 155.754 -0.0949323 -0.18286 -0.978545
48.4397 163.52 155.754 -0.388433 0.0774163 -0.918219
47.6913 162.62 155.995 -0.388433 0.0774163 -0.918219
47.6036 163.394 156.098 -0.388433 0.0774163 -0.918219
49.5247 163.135 156.331 0.530591 -0.658155 -0.534139
48.9067 162.548 156.44 0.530591 -0.658155 -0.534139
48.5909 162.744 155.885 0.530591 -0.658155 -0.534139
49.5247 163.135 156.331 0.530473 -0.659167 -0.533007
48.5909 162.744 155.885 0.530473 -0.659167 -0.533007
49.5644 163.6 155.796 0.530473 -0.659167 -0.533007
49.5644 163.6 155.796 0.047152 -0.156508 -0.98655
48.5909 162.744 155.885 0.047152 -0.156508 -0.98655
48.4397 163.52 155.754 0.047152 -0.156508 -0.98655
49.5644 163.6 155.796 0.282209 -0.717633 -0.636679
50.5261 163.771 156.029 0.282209 -0.717633 -0.636679
50.3182 163.464 156.283 0.282209 -0.717633 -0.636679
49.5247 163.135 156.331 0.268031 -0.737202 -0.620235
49.5644 163.6 155.796 0.268031 -0.737202 -0.620235
50.3182 163.464 156.283 0.268031 -0.737202 -0.620235
50.3182 163.464 156.283 0.553004 -0.720346 -0.418674
50.5261 163.771 156.029 0.553004 -0.720346 -0.418674
50.7173 163.656 156.479 0.553004 -0.720346 -0.418674
47.464 163.441 156.436 -0.70847 0.644797 -0.286892
48.159 164.263 156.568 -0.70847 0.644797 -0.286892
48.2918 164.207 156.113 -0.70847 0.644797 -0.286892
47.464 163.441 156.436 -0.704273 0.603712 -0.373538
48.2918 164.207 156.113 -0.704273 0.603712 -0.373538
47.6036 163.394 156.098 -0.704273 0.603712 -0.373538
47.6036 163.394 156.098 -0.400118 0.355245 -0.844812
48.2918 164.207 156.113 -0.400118 0.355245 -0.844812
48.4397 163.52 155.754 -0.400118 0.355245 -0.844812
49.5644 163.6 155.796 0.0306362 0.0808919 -0.996252
48.4397 163.52 155.754 0.0306362 0.0808919 -0.996252
49.2723 164.36 155.848 0.0306362 0.0808919 -0.996252
49.2723 164.36 155.848 -0.29672 0.391256 -0.871135
48.4397 163.52 155.754 -0.29672 0.391256 -0.871135
48.2918 164.207 156.113 -0.29672 0.391256 -0.871135
50.5261 163.771 156.029 0.235512 0.00147778 -0.97187
49.5644 163.6 155.796 0.235512 0.00147778 -0.97187
50.327 164.388 155.982 0.235512 0.00147778 -0.97187
50.327 164.388 155.982 0.121526 0.115084 -0.985894
49.5644 163.6 155.796 0.121526 0.115084 -0.985894
49.2723 164.36 155.848 0.121526 0.115084 -0.985894
51.1558 164.325 156.436 0.736228 -0.511486 -0.443114
50.7173 163.656 156.479 0.736228 -0.511486 -0.443114
50.5261 163.771 156.029 0.736228 -0.511486 -0.443114
50.327 164.388 155.982 0.484346 0.0895674 -0.87028
51.1558 164.325 156.436 0.484346 0.0895674 -0.87028
50.5261 163.771 156.029 0.484346 0.0895674 -0.87028
48.2918 164.207 156.113 -0.622089 0.733905 -0.272742
48.159 164.263 156.568 -0.622089 0.733905 -0.272742
48.6576 164.601 156.339 -0.622089 0.733905 -0.272742
49.2723 164.36 155.848 -0.290196 0.664573 -0.68857
48.2918 164.207 156.113 -0.290196 0.664573 -0.68857
48.6576 164.601 156.339 -0.290196 0.664573 -0.68857
49.5902 164.819 156.513 -0.0975156 0.840211 -0.533419
49.2723 164.36 155.848 -0.0975156 0.840211 -0.533419
48.6576 164.601 156.339 -0.0975156 0.840211 -0.533419
50.327 164.388 155.982 0.0526124 0.809836 -0.584293
49.2723 164.36 155.848 0.0526124 0.809836 -0.584293
49.5902 164.819 156.513 0.0526124 0.809836 -0.584293
50.7231 164.671 156.508 0.107955 0.839896 -0.531902
50.327 164.388 155.982 0.107955 0.839896 -0.531902
49.5902 164.819 156.513 0.107955 0.839896 -0.531902
51.1558 164.325 156.436 0.405757 0.642554 -0.649989
50.327 164.388 155.982 0.405757 0.642554 -0.649989
50.7231 164.671 156.508 0.405757 0.642554 -0.649989
47.5706 162.082 156.554 -0.82532 -0.552107 0.118427
47.6527 162.145 157.416 -0.82532 -0.552107 0.118427
47.3263 162.552 157.04 -0.82532 -0.552107 0.118427
47.3268 162.687 156.34 -0.914971 -0.396016 -0.0774568
47.5706 162.082 156.554 -0.914971 -0.396016 -0.0774568
47.3263 162.552 157.04 -0.914971 -0.396016 -0.0774568
48.3789 162.085 156.423 -0.0154308 -0.993395 -0.1137
48.422 161.983 157.309 -0.0154308 -0.993395 -0.1137
47.5706 162.082 156.554 -0.0154308 -0.993395 -0.1137
47.5706 162.082 156.554 -0.193125 -0.977136 0.0889307
48.422 161.983 157.309 -0.193125 -0.977136 0.0889307
47.6527 162.145 157.416 -0.193125 -0.977136 0.0889307
48.9067 162.548 156.44 0.479239 -0.821295 -0.309523
49.5315 162.731 156.923 0.479239 -0.821295 -0.309523
49.4284 162.516 157.332 0.479239 -0.821295 -0.309523
48.9067 162.548 156.44 0.615973 -0.68741 -0.384765
49.4284 162.516 157.332 0.615973 -0.68741 -0.384765
48.3789 162.085 156.423 0.615973 -0.68741 -0.384765
48.3789 162.085 156.423 0.467069 -0.875542 -0.123588
49.4284 162.516 157.332 0.467069 -0.875542 -0.123588
48.422 161.983 157.309 0.467069 -0.875542 -0.123588
47.4371 162.93 157.114 -0.873772 0.404291 0.270318
47.5788 163.541 156.658 -0.873772 0.404291 0.270318
47.464 163.441 156.436 -0.873772 0.404291 0.270318
47.4371 162.93 157.114 -0.956199 0.250674 0.151151
47.464 163.441 156.436 -0.956199 0.250674 0.151151
47.3263 162.552 157.04 -0.956199 0.250674 0.151151
47.3263 162.552 157.04 -0.984022 0.174926 0.0331846
47.464 163.441 156.436 -0.984022 0.174926 0.0331846
47.3268 162.687 156.34 -0.984022 0.174926 0.0331846
47.4371 162.93 157.114 -0.710038 0.5194 0.475468
47.9692 163.447 157.343 -0.710038 0.5194 0.475468
47.5788 163.541 156.658 -0.710038 0.5194 0.475468
48.9067 162.548 156.44 0.562361 -0.679794 -0.470777
49.5247 163.135 156.331 0.562361 -0.679794 -0.470777
49.5315 162.731 156.923 0.562361 -0.679794 -0.470777
49.5315 162.731 156.923 0.584993 -0.769637 -0.255817
50.321 163.276 157.087 0.584993 -0.769637 -0.255817
49.4284 162.516 157.332 0.584993 -0.769637 -0.255817
49.5315 162.731 156.923 0.566035 -0.677701 -0.46939
49.5247 163.135 156.331 0.566035 -0.677701 -0.46939
50.321 163.276 157.087 0.566035 -0.677701 -0.46939
49.5247 163.135 156.331 0.362949 -0.907191 -0.212772
50.3182 163.464 156.283 0.362949 -0.907191 -0.212772
50.321 163.276 157.087 0.362949 -0.907191 -0.212772
50.321 163.276 157.087 0.502902 -0.841377 -0.197927
50.3182 163.464 156.283 0.502902 -0.841377 -0.197927
50.7173 163.656 156.479 0.502902 -0.841377 -0.197927
50.9634 163.855 157.315 0.673829 -0.738551 -0.0223042
50.321 163.276 157.087 0.673829 -0.738551 -0.0223042
50.7173 163.656 156.479 0.673829 -0.738551 -0.0223042
47.5788 163.541 156.658 -0.767734 0.630683 0.113239
48.159 164.263 156.568 -0.767734 0.630683 0.113239
47.464 163.441 156.436 -0.767734 0.630683 0.113239
47.5788 163.541 156.658 -0.664053 0.590263 0.458937
47.9692 163.447 157.343 -0.664053 0.590263 0.458937
48.159 164.263 156.568 -0.664053 0.590263 0.458937
47.9692 163.447 157.343 -0.918231 0.363325 0.15763
48.2802 164.203 157.413 -0.918231 0.363325 0.15763
48.159 164.263 156.568 -0.918231 0.363325 0.15763
51.5224 164.404 157.157 0.737272 -0.600665 -0.309243
51.1558 164.325 156.436 0.737272 -0.600665 -0.309243
51.4823 164.569 156.739 0.737272 -0.600665 -0.309243
51.5224 164.404 157.157 0.642037 -0.725778 -0.247052
50.9634 163.855 157.315 0.642037 -0.725778 -0.247052
51.1558 164.325 156.436 0.642037 -0.725778 -0.247052
50.9634 163.855 157.315 0.82749 -0.550079 -0.112575
50.7173 163.656 156.479 0.82749 -0.550079 -0.112575
51.1558 164.325 156.436 0.82749 -0.550079 -0.112575
51.5224 164.404 157.157 0.831587 -0.484179 -0.272092
51.4823 164.569 156.739 0.831587 -0.484179 -0.272092
51.6504 164.564 157.262 0.831587 -0.484179 -0.272092
48.159 164.263 156.568 -0.705654 0.692392 0.150483
48.2802 164.203 157.413 -0.705654 0.692392 0.150483
48.7283 164.703 157.217 -0.705654 0.692392 0.150483
48.6576 164.601 156.339 -0.57512 0.816642 -0.0482941
48.159 164.263 156.568 -0.57512 0.816642 -0.0482941
48.7283 164.703 157.217 -0.57512 0.816642 -0.0482941
49.3736 165.29 157.126 -0.676057 0.735361 -0.0468066
48.7283 164.703 157.217 -0.676057 0.735361 -0.0468066
49.359 165.294 157.396 -0.676057 0.735361 -0.0468066
49.3736 165.29 157.126 -0.575804 0.537774 -0.615832
49.5902 164.819 156.513 -0.575804 0.537774 -0.615832
48.7283 164.703 157.217 -0.575804 0.537774 -0.615832
49.5902 164.819 156.513 -0.209753 0.97304 -0.095902
48.6576 164.601 156.339 -0.209753 0.97304 -0.095902
48.7283 164.703 157.217 -0.209753 0.97304 -0.095902
49.6306 165.262 157.282 0.377096 0.79427 -0.476375
49.5902 164.819 156.513 0.377096 0.79427 -0.476375
49.3736 165.29 157.126 0.377096 0.79427 -0.476375
49.6306 165.262 157.282 0.421713 0.776364 -0.46842
50.3632 164.875 157.302 0.421713 0.776364 -0.46842
49.5902 164.819 156.513 0.421713 0.776364 -0.46842
50.3632 164.875 157.302 0.126662 0.972865 -0.193625
50.7231 164.671 156.508 0.126662 0.972865 -0.193625
49.5902 164.819 156.513 0.126662 0.972865 -0.193625
51.4823 164.569 156.739 0.309525 0.548533 -0.776727
51.1558 164.325 156.436 0.309525 0.548533 -0.776727
50.7231 164.671 156.508 0.309525 0.548533 -0.776727
51.4823 164.569 156.739 0.173961 0.974079 -0.144592
50.7231 164.671 156.508 0.173961 0.974079 -0.144592
51.3269 164.69 157.364 0.173961 0.974079 -0.144592
51.3269 164.69 157.364 0.196652 0.967256 -0.160445
50.7231 164.671 156.508 0.196652 0.967256 -0.160445
50.3632 164.875 157.302 0.196652 0.967256 -0.160445
51.6504 164.564 157.262 0.333879 0.93753 -0.097789
51.4823 164.569 156.739 0.333879 0.93753 -0.097789
51.3269 164.69 157.364 0.333879 0.93753 -0.097789
49.6306 165.262 157.282 0.114829 0.993354 -0.00786409
49.3736 165.29 157.126 0.114829 0.993354 -0.00786409
49.359 165.294 157.396 0.114829 0.993354 -0.00786409
47.6527 162.145 157.416 -0.86156 -0.354399 0.363478
47.5274 162.622 157.585 -0.86156 -0.354399 0.363478
47.3263 162.552 157.04 -0.86156 -0.354399 0.363478
48.0739 162.673 158.055 -0.574929 -0.402587 0.712306
47.5274 162.622 157.585 -0.574929 -0.402587 0.712306
47.6527 162.145 157.416 -0.574929 -0.402587 0.712306
48.0739 162.673 158.055 -0.504031 -0.472234 0.723151
47.6527 162.145 157.416 -0.504031 -0.472234 0.723151
48.4951 162.362 158.146 -0.504031 -0.472234 0.723151
48.4951 162.362 158.146 -0.130356 -0.898697 0.41875
47.6527 162.145 157.416 -0.130356 -0.898697 0.41875
48.422 161.983 157.309 -0.130356 -0.898697 0.41875
49.4284 162.516 157.332 0.468525 -0.883428 -0.00634976
49.2375 162.41 158.096 0.468525 -0.883428 -0.00634976
48.422 161.983 157.309 0.468525 -0.883428 -0.00634976
48.422 161.983 157.309 0.0853103 -0.910259 0.405155
49.2375 162.41 158.096 0.0853103 -0.910259 0.405155
48.4951 162.362 158.146 0.0853103 -0.910259 0.405155
49.7217 162.752 158.253 0.571122 -0.820385 0.0280808
49.2375 162.41 158.096 0.571122 -0.820385 0.0280808
49.4284 162.516 157.332 0.571122 -0.820385 0.0280808
47.3263 162.552 157.04 -0.925869 0.209925 0.314162
47.5274 162.622 157.585 -0.925869 0.209925 0.314162
47.4371 162.93 157.114 -0.925869 0.209925 0.314162
47.5274 162.622 157.585 -0.710151 0.51977 0.474894
47.9692 163.447 157.343 -0.710151 0.51977 0.474894
47.4371 162.93 157.114 -0.710151 0.51977 0.474894
47.5274 162.622 157.585 -0.58999 0.501767 0.632567
48.0739 162.673 158.055 -0.58999 0.501767 0.632567
47.9692 163.447 157.343 -0.58999 0.501767 0.632567
48.0739 162.673 158.055 -0.952287 0.126558 0.277727
48.2067 163.477 158.144 -0.952287 0.126558 0.277727
47.9692 163.447 157.343 -0.952287 0.126558 0.277727
49.4284 162.516 157.332 0.706347 -0.706487 -0.044149
50.4759 163.516 158.093 0.706347 -0.706487 -0.044149
49.7217 162.752 158.253 0.706347 -0.706487 -0.044149
50.321 163.276 157.087 0.658402 -0.748695 0.0772217
50.4759 163.516 158.093 0.658402 -0.748695 0.0772217
49.4284 162.516 157.332 0.658402 -0.748695 0.0772217
50.4759 163.516 158.093 0.651876 -0.754144 0.0795265
50.321 163.276 157.087 0.651876 -0.754144 0.0795265
50.9634 163.855 157.315 0.651876 -0.754144 0.0795265
48.5389 163.968 158.074 -0.56157 0.685704 0.463086
48.7283 164.703 157.217 -0.56157 0.685704 0.463086
48.2802 164.203 157.413 -0.56157 0.685704 0.463086
48.5389 163.968 158.074 -0.701098 0.539872 0.465833
48.2802 164.203 157.413 -0.701098 0.539872 0.465833
48.2067 163.477 158.144 -0.701098 0.539872 0.465833
48.2067 163.477 158.144 -0.902275 0.347803 0.254821
48.2802 164.203 157.413 -0.902275 0.347803 0.254821
47.9692 163.447 157.343 -0.902275 0.347803 0.254821
48.5389 163.968 158.074 -0.535226 0.696405 0.478072
49.447 164.686 158.045 -0.535226 0.696405 0.478072
48.7283 164.703 157.217 -0.535226 0.696405 0.478072
51.4998 164.46 157.677 0.711436 -0.694607 0.106678
50.9634 163.855 157.315 0.711436 -0.694607 0.106678
51.5224 164.404 157.157 0.711436 -0.694607 0.106678
51.4998 164.46 157.677 0.518471 -0.728264 0.448129
51.096 164.422 158.082 0.518471 -0.728264 0.448129
50.9634 163.855 157.315 0.518471 -0.728264 0.448129
51.096 164.422 158.082 0.797706 -0.542717 0.262913
50.4759 163.516 158.093 0.797706 -0.542717 0.262913
50.9634 163.855 157.315 0.797706 -0.542717 0.262913
51.5224 164.404 157.157 0.742629 -0.661511 0.104424
51.6504 164.564 157.262 0.742629 -0.661511 0.104424
51.4998 164.46 157.677 0.742629 -0.661511 0.104424
48.7283 164.703 157.217 -0.643092 0.513594 0.568026
49.447 164.686 158.045 -0.643092 0.513594 0.568026
49.359 165.294 157.396 -0.643092 0.513594 0.568026
49.447 164.686 158.045 0.354252 0.703635 0.615957
50.3632 164.875 157.302 0.354252 0.703635 0.615957
49.6306 165.262 157.282 0.354252 0.703635 0.615957
49.447 164.686 158.045 -0.205871 0.978568 -0.00457158
50.4998 164.908 158.174 -0.205871 0.978568 -0.00457158
50.3632 164.875 157.302 -0.205871 0.978568 -0.00457158
51.096 164.422 158.082 0.34507 0.837815 0.423076
51.4998 164.46 157.677 0.34507 0.837815 0.423076
51.3269 164.69 157.364 0.34507 0.837815 0.423076
51.096 164.422 158.082 0.606581 0.661263 0.441351
51.3269 164.69 157.364 0.606581 0.661263 0.441351
50.4998 164.908 158.174 0.606581 0.661263 0.441351
50.4998 164.908 158.174 0.192888 0.978925 -0.0670765
51.3269 164.69 157.364 0.192888 0.978925 -0.0670765
50.3632 164.875 157.302 0.192888 0.978925 -0.0670765
51.6504 164.564 157.262 0.434756 0.823959 0.363427
51.3269 164.69 157.364 0.434756 0.823959 0.363427
51.4998 164.46 157.677 0.434756 0.823959 0.363427
49.6306 165.262 157.282 0.342762 0.70851 0.616869
49.359 165.294 157.396 0.342762 0.70851 0.616869
49.447 164.686 158.045 0.342762 0.70851 0.616869
48.4951 162.362 158.146 -0.492712 -0.450677 0.744395
48.5924 162.845 158.502 -0.492712 -0.450677 0.744395
48.0739 162.673 158.055 -0.492712 -0.450677 0.744395
48.4951 162.362 158.146 0.0892686 -0.846549 0.524772
49.2375 162.41 158.096 0.0892686 -0.846549 0.524772
49.375 162.726 158.583 0.0892686 -0.846549 0.524772
48.5924 162.845 158.502 -0.168664 -0.563516 0.808704
48.4951 162.362 158.146 -0.168664 -0.563516 0.808704
49.375 162.726 158.583 -0.168664 -0.563516 0.808704
49.2375 162.41 158.096 0.439942 -0.804728 0.398577
49.7217 162.752 158.253 0.439942 -0.804728 0.398577
49.375 162.726 158.583 0.439942 -0.804728 0.398577
48.5924 162.845 158.502 -0.628296 0.0564245 0.775926
48.7466 163.703 158.565 -0.628296 0.0564245 0.775926
48.2067 163.477 158.144 -0.628296 0.0564245 0.775926
48.0739 162.673 158.055 -0.657857 0.0252145 0.75272
48.5924 162.845 158.502 -0.657857 0.0252145 0.75272
48.2067 163.477 158.144 -0.657857 0.0252145 0.75272
49.375 162.726 158.583 -0.137299 -0.257946 0.956354
49.4963 163.55 158.822 -0.137299 -0.257946 0.956354
48.5924 162.845 158.502 -0.137299 -0.257946 0.956354
49.4963 163.55 158.822 -0.326664 -0.0101416 0.945086
48.7466 163.703 158.565 -0.326664 -0.0101416 0.945086
48.5924 162.845 158.502 -0.326664 -0.0101416 0.945086
49.7217 162.752 158.253 0.71043 -0.640439 0.291765
50.4759 163.516 158.093 0.71043 -0.640439 0.291765
50.1738 163.423 158.625 0.71043 -0.640439 0.291765
49.7217 162.752 158.253 0.545373 -0.656418 0.521233
50.1738 163.423 158.625 0.545373 -0.656418 0.521233
49.375 162.726 158.583 0.545373 -0.656418 0.521233
49.375 162.726 158.583 0.214309 -0.30174 0.928991
50.1738 163.423 158.625 0.214309 -0.30174 0.928991
49.4963 163.55 158.822 0.214309 -0.30174 0.928991
48.2067 163.477 158.144 -0.650091 0.518208 0.555735
48.7466 163.703 158.565 -0.650091 0.518208 0.555735
48.5389 163.968 158.074 -0.650091 0.518208 0.555735
49.447 164.686 158.045 -0.499896 0.655271 0.566326
48.5389 163.968 158.074 -0.499896 0.655271 0.566326
48.7466 163.703 158.565 -0.499896 0.655271 0.566326
49.447 164.686 158.045 -0.572226 0.66276 0.483018
48.7466 163.703 158.565 -0.572226 0.66276 0.483018
49.6407 164.388 158.684 -0.572226 0.66276 0.483018
49.6407 164.388 158.684 -0.280721 0.203693 0.937926
48.7466 163.703 158.565 -0.280721 0.203693 0.937926
49.4963 163.55 158.822 -0.280721 0.203693 0.937926
50.1738 163.423 158.625 0.264372 -0.0844927 0.960712
50.4016 164.274 158.637 0.264372 -0.0844927 0.960712
49.4963 163.55 158.822 0.264372 -0.0844927 0.960712
50.4016 164.274 158.637 0.0828302 0.148907 0.985376
49.6407 164.388 158.684 0.0828302 0.148907 0.985376
49.4963 163.55 158.822 0.0828302 0.148907 0.985376
50.4759 163.516 158.093 0.619997 -0.416156 0.665145
51.096 164.422 158.082 0.619997 -0.416156 0.665145
50.4016 164.274 158.637 0.619997 -0.416156 0.665145
50.1738 163.423 158.625 0.861748 -0.23712 0.448513
50.4759 163.516 158.093 0.861748 -0.23712 0.448513
50.4016 164.274 158.637 0.861748 -0.23712 0.448513
50.4998 164.908 158.174 -0.236712 0.850857 0.469053
49.447 164.686 158.045 -0.236712 0.850857 0.469053
49.6407 164.388 158.684 -0.236712 0.850857 0.469053
50.4016 164.274 158.637 0.135298 0.570686 0.809946
50.4998 164.908 158.174 0.135298 0.570686 0.809946
49.6407 164.388 158.684 0.135298 0.570686 0.809946
51.096 164.422 158.082 0.49058 0.463216 0.73808
50.4998 164.908 158.174 0.49058 0.463216 0.73808
50.4016 164.274 158.637 0.49058 0.463216 0.73808
3 0 1 2
3 3 4 5
3 6 7 8
3 9 10 11
3 12 13 14
3 15 16 17
3 18 19 20
3 21 22 23
3 24 25 26
3 27 28 29
3 30 31 32
3 33 34 35
3 36 37 38
3 39 40 41
3 42 43 44
3 45 46 47
3 48 49 50
3 51 52 53
3 54 55 56
3 57 58 59
3 60 61 62
3 63 64 65
3 66 67 68
3 69 70 71
3 72 73 74
3 75 76 77
3 78 79 80
3 81 82 83
3 84 85 86
3 87 88 89
3 90 91 92
3 93 94 95
3 96 97 98
3 99 100 101
3 102 103 104
3 105 106 107
3 108 109 110
3 111 112 113
3 114 115 116
3 117 118 119
3 120 121 122
3 123 124 125
3 126 127 128
3 129 130 131
3 132 133 134
3 135 136 137
3 138 139 140
3 141 142 143
3 144 145 146
3 147 148 149
3 150 151 152
3 153 154 155
3 156 157 158
3 159 160 161
3 162 163 164
3 165 166 167
3 168 169 170
3 171 172 173
3 174 175 176
3 177 178 179
3 180 181 182
3 183 184 185
3 186 187 188
3 189 190 191
3 192 193 194
3 195 196 197
3 198 199 200
3 201 202 203
3 204 205 206
3 207 208 209
3 210 211 212
3 213 214 215
3 216 217 218
3 219 220 221
3 222 223 224
3 225 226 227
3 228 229 230
3 231 232 233
3 234 235 236
3 237 238 239
3 240 241 242
3 243 244 245
3 246 247 248
3 249 250 251
3 252 253 254
3 255 256 257
3 258 259 260
3 261 262 263
3 264 265 266
3 267 268 269
3 270 271 272
3 273 274 275
3 276 277 278
3 279 280 281
3 282 283 284
3 285 286 287
3 288 289 290
3 291 292 293
3 294 295 296
3 297 298 299
3 300 301 302
3 303 304 305
3 306 307 308
3 309 310 311
3 312 313 314
3 315 316 317
3 318 319 320
3 321 322 323
3 324 325 326
3 327 328 329
3 330 331 332
3 333 334 335
3 336 337 338
3 339 340 341
3 342 343 344
3 345 346 347
3 348 349 350
3 351 352 353
