ply
format ascii 1.0
element vertex 834
property float x
property float y
property float z
property float nx
property float ny
property float nz
element face 278
property list uint uint vertex_indices
end_header
104.757 149.889 172.012 0.184654 -0.0556997 -0.981224
105.408 150.173 172.118 0.184654 -0.0556997 -0.981224
105.334 149.607 172.136 0.184654 -0.0556997 -0.981224
105.334 149.607 172.136 0.624496 -0.106369 -0.773751
105.408 150.173 172.118 0.624496 -0.106369 -0.773751
105.646 149.872 172.352 0.624496 -0.106369 -0.773751
104.757 149.889 172.012 -0.373196 0.199919 -0.905957
104.387 150.04 172.197 -0.373196 0.199919 -0.905957
104.748 150.312 172.109 -0.373196 0.199919 -0.905957
105.408 150.173 172.118 0.0612443 0.224323 -0.972588
104.757 149.889 172.012 0.0612443 0.224323 -0.972588
104.748 150.312 172.109 0.0612443 0.224323 -0.972588
104.648 149.274 172.659 -0.27859 -0.855436 -0.436596
104.674 148.973 173.231 -0.27859 -0.855436 -0.436596
104.212 149.222 173.039 -0.27859 -0.855436 -0.436596
104.648 149.274 172.659 -0.0942119 -0.87028 -0.483464
105.438 149.204 172.63 -0.0942119 -0.87028 -0.483464
105.321 149.011 173.001 -0.0942119 -0.87028 -0.483464
104.674 148.973 173.231 -0.111552 -0.881808 -0.458226
104.648 149.274 172.659 -0.111552 -0.881808 -0.458226
105.321 149.011 173.001 -0.111552 -0.881808 -0.458226
105.321 149.011 173.001 0.536451 -0.805805 -0.250798
105.438 149.204 172.63 0.536451 -0.805805 -0.250798
105.61 149.197 173.021 0.536451 -0.805805 -0.250798
102.659 150.203 172.871 -0.427369 -0.670882 -0.60603
102.334 149.918 173.417 -0.427369 -0.670882 -0.60603
102.042 150.355 173.138 -0.427369 -0.670882 -0.60603
102.659 150.203 172.871 -0.232954 -0.76274 -0.603291
103.696 150.016 172.707 -0.232954 -0.76274 -0.603291
103.401 149.691 173.232 -0.232954 -0.76274 -0.603291
102.334 149.918 173.417 -0.26376 -0.781051 -0.566029
102.659 150.203 172.871 -0.26376 -0.781051 -0.566029
103.401 149.691 173.232 -0.26376 -0.781051 -0.566029
104.212 149.222 173.039 -0.493036 -0.588225 -0.641021
103.401 149.691 173.232 -0.493036 -0.588225 -0.641021
103.696 150.016 172.707 -0.493036 -0.588225 -0.641021
104.648 149.274 172.659 -0.490758 -0.587681 -0.643264
104.212 149.222 173.039 -0.490758 -0.587681 -0.643264
103.696 150.016 172.707 -0.490758 -0.587681 -0.643264
104.648 149.274 172.659 -0.475933 -0.566775 -0.672499
103.696 150.016 172.707 -0.475933 -0.566775 -0.672499
104.387 150.04 172.197 -0.475933 -0.566775 -0.672499
104.648 149.274 172.659 -0.543551 -0.56086 -0.624491
104.387 150.04 172.197 -0.543551 -0.56086 -0.624491
104.757 149.889 172.012 -0.543551 -0.56086 -0.624491
105.334 149.607 172.136 -0.190276 -0.695488 -0.692886
104.648 149.274 172.659 -0.190276 -0.695488 -0.692886
104.757 149.889 172.012 -0.190276 -0.695488 -0.692886
105.438 149.204 172.63 -0.0911985 -0.781327 -0.617423
104.648 149.274 172.659 -0.0911985 -0.781327 -0.617423
105.334 149.607 172.136 -0.0911985 -0.781327 -0.617423
105.438 149.204 172.63 0.733148 -0.443799 -0.515302
105.334 149.607 172.136 0.733148 -0.443799 -0.515302
105.646 149.872 172.352 0.733148 -0.443799 -0.515302
105.438 149.204 172.63 0.830205 -0.414588 -0.372661
105.646 149.872 172.352 0.830205 -0.414588 -0.372661
105.61 149.197 173.021 0.830205 -0.414588 -0.372661
105.61 149.197 173.021 0.902961 -0.326303 -0.27962
105.646 149.872 172.352 0.902961 -0.326303 -0.27962
105.912 149.903 173.172 0.902961 -0.326303 -0.27962
102.488 151.067 172.838 -0.418333 -0.117835 -0.900618
102.659 150.203 172.871 -0.418333 -0.117835 -0.900618
102.042 150.355 173.138 -0.418333 -0.117835 -0.900618
101.978 151.161 173.133 -0.507501 -0.0450094 -0.860475
102.488 151.067 172.838 -0.507501 -0.0450094 -0.860475
102.042 150.355 173.138 -0.507501 -0.0450094 -0.860475
103.696 150.016 172.707 -0.162128 -0.0343803 -0.986171
102.659 150.203 172.871 -0.162128 -0.0343803 -0.986171
103.425 151.041 172.716 -0.162128 -0.0343803 -0.986171
103.425 151.041 172.716 -0.130386 -0.064002 -0.989395
102.659 150.203 172.871 -0.130386 -0.064002 -0.989395
102.488 151.067 172.838 -0.130386 -0.064002 -0.989395
104.387 150.04 172.197 -0.476024 0.371733 -0.797004
104.474 150.961 172.575 -0.476024 0.371733 -0.797004
104.748 150.312 172.109 -0.476024 0.371733 -0.797004
104.387 150.04 172.197 -0.561902 0.358642 -0.745414
103.696 150.016 172.707 -0.561902 0.358642 -0.745414
104.474 150.961 172.575 -0.561902 0.358642 -0.745414
103.696 150.016 172.707 -0.135081 -0.0271966 -0.990461
103.425 151.041 172.716 -0.135081 -0.0271966 -0.990461
104.474 150.961 172.575 -0.135081 -0.0271966 -0.990461
104.748 150.312 172.109 0.118073 0.500032 -0.85792
105.386 151.036 172.618 0.118073 0.500032 -0.85792
105.408 150.173 172.118 0.118073 0.500032 -0.85792
104.474 150.961 172.575 -0.00927874 0.581199 -0.813708
105.386 151.036 172.618 -0.00927874 0.581199 -0.813708
104.748 150.312 172.109 -0.00927874 0.581199 -0.813708
105.408 150.173 172.118 0.669861 0.385016 -0.634861
105.386 151.036 172.618 0.669861 0.385016 -0.634861
105.918 150.879 173.084 0.669861 0.385016 -0.634861
105.408 150.173 172.118 0.80112 0.195715 -0.565599
105.918 150.879 173.084 0.80112 0.195715 -0.565599
105.646 149.872 172.352 0.80112 0.195715 -0.565599
105.646 149.872 172.352 0.951342 -0.0333463 -0.306327
105.918 150.879 173.084 0.951342 -0.0333463 -0.306327
105.912 149.903 173.172 0.951342 -0.0333463 -0.306327
102.293 151.867 172.998 -0.493425 0.0545848 -0.868074
102.488 151.067 172.838 -0.493425 0.0545848 -0.868074
101.978 151.161 173.133 -0.493425 0.0545848 -0.868074
103.425 151.041 172.716 -0.126151 0.0843757 -0.988416
102.488 151.067 172.838 -0.126151 0.0843757 -0.988416
103.187 151.979 172.826 -0.126151 0.0843757 -0.988416
103.187 151.979 172.826 -0.204653 0.144767 -0.96807
102.488 151.067 172.838 -0.204653 0.144767 -0.96807
102.293 151.867 172.998 -0.204653 0.144767 -0.96807
104.474 150.961 172.575 -0.117957 0.174466 -0.977572
103.425 151.041 172.716 -0.117957 0.174466 -0.977572
104.257 152.005 172.788 -0.117957 0.174466 -0.977572
104.257 152.005 172.788 -0.0386082 0.107225 -0.993485
103.425 151.041 172.716 -0.0386082 0.107225 -0.993485
103.187 151.979 172.826 -0.0386082 0.107225 -0.993485
105.386 151.036 172.618 0.0263643 0.23819 -0.970861
104.474 150.961 172.575 0.0263643 0.23819 -0.970861
105.234 151.934 172.835 0.0263643 0.23819 -0.970861
105.234 151.934 172.835 0.062157 0.211435 -0.975414
104.474 150.961 172.575 0.062157 0.211435 -0.975414
104.257 152.005 172.788 0.062157 0.211435 -0.975414
105.654 151.799 173.031 0.676484 0.151227 -0.720764
105.918 150.879 173.084 0.676484 0.151227 -0.720764
105.386 151.036 172.618 0.676484 0.151227 -0.720764
105.234 151.934 172.835 0.478526 0.280885 -0.831936
105.654 151.799 173.031 0.478526 0.280885 -0.831936
105.386 151.036 172.618 0.478526 0.280885 -0.831936
103.187 151.979 172.826 -0.214334 0.264757 -0.940194
102.293 151.867 172.998 -0.214334 0.264757 -0.940194
102.418 152.536 173.159 -0.214334 0.264757 -0.940194
103.591 152.774 172.982 -0.198597 0.285014 -0.937724
103.187 151.979 172.826 -0.198597 0.285014 -0.937724
102.418 152.536 173.159 -0.198597 0.285014 -0.937724
104.257 152.005 172.788 -0.0405494 0.21211 -0.976404
103.187 151.979 172.826 -0.0405494 0.21211 -0.976404
103.591 152.774 172.982 -0.0405494 0.21211 -0.976404
104.697 152.754 173.127 0.128048 0.346212 -0.929377
104.257 152.005 172.788 0.128048 0.346212 -0.929377
103.591 152.774 172.982 0.128048 0.346212 -0.929377
105.234 151.934 172.835 0.0716764 0.37671 -0.923554
104.257 152.005 172.788 0.0716764 0.37671 -0.923554
104.697 152.754 173.127 0.0716764 0.37671 -0.923554
105.469 152.264 173.198 0.405299 0.531319 -0.74393
105.234 151.934 172.835 0.405299 0.531319 -0.74393
104.697 152.754 173.127 0.405299 0.531319 -0.74393
105.654 151.799 173.031 0.492609 0.462175 -0.737381
105.234 151.934 172.835 0.492609 0.462175 -0.737381
105.469 152.264 173.198 0.492609 0.462175 -0.737381
104.674 148.973 173.231 -0.335527 -0.94189 -0.0162981
104.697 148.949 174.187 -0.335527 -0.94189 -0.0162981
104.212 149.127 173.881 -0.335527 -0.94189 -0.0162981
104.212 149.222 173.039 -0.438311 -0.893127 -0.101032
104.674 148.973 173.231 -0.438311 -0.893127 -0.101032
104.212 149.127 173.881 -0.438311 -0.893127 -0.101032
105.321 149.011 173.001 0.0428661 -0.998163 -0.0428162
105.384 148.983 173.705 0.0428661 -0.998163 -0.0428162
104.674 148.973 173.231 0.0428661 -0.998163 -0.0428162
104.674 148.973 173.231 0.0318842 -0.999144 -0.0263568
105.384 148.983 173.705 0.0318842 -0.999144 -0.0263568
104.697 148.949 174.187 0.0318842 -0.999144 -0.0263568
105.384 148.983 173.705 0.543708 -0.835345 -0.0811167
105.321 149.011 173.001 0.543708 -0.835345 -0.0811167
105.61 149.197 173.021 0.543708 -0.835345 -0.0811167
105.728 149.22 173.754 0.57247 -0.817269 -0.0659547
105.384 148.983 173.705 0.57247 -0.817269 -0.0659547
105.61 149.197 173.021 0.57247 -0.817269 -0.0659547
101.359 150.295 173.934 -0.532295 -0.677861 -0.507116
102.042 150.355 173.138 -0.532295 -0.677861 -0.507116
102.334 149.918 173.417 -0.532295 -0.677861 -0.507116
101.359 150.295 173.934 -0.524826 -0.709893 -0.469692
102.334 149.918 173.417 -0.524826 -0.709893 -0.469692
101.57 149.99 174.16 -0.524826 -0.709893 -0.469692
101.57 149.99 174.16 -0.199369 -0.973763 -0.109716
102.334 149.918 173.417 -0.199369 -0.973763 -0.109716
102.337 149.831 174.18 -0.199369 -0.973763 -0.109716
103.401 149.691 173.232 -0.217628 -0.974162 -0.0603907
103.442 149.587 174.757 -0.217628 -0.974162 -0.0603907
102.334 149.918 173.417 -0.217628 -0.974162 -0.0603907
102.334 149.918 173.417 -0.158826 -0.981076 -0.110741
103.442 149.587 174.757 -0.158826 -0.981076 -0.110741
102.337 149.831 174.18 -0.158826 -0.981076 -0.110741
104.212 149.127 173.881 -0.515272 -0.851588 -0.0964014
103.401 149.691 173.232 -0.515272 -0.851588 -0.0964014
104.212 149.222 173.039 -0.515272 -0.851588 -0.0964014
103.442 149.587 174.757 -0.547648 -0.835651 -0.0420745
103.401 149.691 173.232 -0.547648 -0.835651 -0.0420745
104.212 149.127 173.881 -0.547648 -0.835651 -0.0420745
106.248 149.744 174.041 0.790926 -0.469554 -0.392373
105.912 149.903 173.172 0.790926 -0.469554 -0.392373
106.476 150.261 173.882 0.790926 -0.469554 -0.392373
106.248 149.744 174.041 0.75102 -0.533748 -0.388693
105.728 149.22 173.754 0.75102 -0.533748 -0.388693
105.912 149.903 173.172 0.75102 -0.533748 -0.388693
105.728 149.22 173.754 0.921077 -0.364634 -0.136597
105.61 149.197 173.021 0.921077 -0.364634 -0.136597
105.912 149.903 173.172 0.921077 -0.364634 -0.136597
101.045 151.153 174.052 -0.742535 -0.18388 -0.644073
101.413 150.965 173.682 -0.742535 -0.18388 -0.644073
101.359 150.295 173.934 -0.742535 -0.18388 -0.644073
102.042 150.355 173.138 -0.684616 -0.0583249 -0.726567
101.413 150.965 173.682 -0.684616 -0.0583249 -0.726567
101.978 151.161 173.133 -0.684616 -0.0583249 -0.726567
101.359 150.295 173.934 -0.739284 -0.185384 -0.647373
101.413 150.965 173.682 -0.739284 -0.185384 -0.647373
102.042 150.355 173.138 -0.739284 -0.185384 -0.647373
105.912 149.903 173.172 0.795616 -0.05906 -0.602915
105.918 150.879 173.084 0.795616 -0.05906 -0.602915
106.476 150.261 173.882 0.795616 -0.05906 -0.602915
105.918 150.879 173.084 0.802117 -0.0437116 -0.595565
106.527 150.868 173.906 0.802117 -0.0437116 -0.595565
106.476 150.261 173.882 0.802117 -0.0437116 -0.595565
101.48 151.872 173.693 -0.692812 0.0602668 -0.718596
101.413 150.965 173.682 -0.692812 0.0602668 -0.718596
101.045 151.153 174.052 -0.692812 0.0602668 -0.718596
101.153 151.982 174.276 -0.825078 0.244574 -0.509343
101.48 151.872 173.693 -0.825078 0.244574 -0.509343
101.045 151.153 174.052 -0.825078 0.244574 -0.509343
101.978 151.161 173.133 -0.642142 0.143024 -0.753125
101.48 151.872 173.693 -0.642142 0.143024 -0.753125
102.293 151.867 172.998 -0.642142 0.143024 -0.753125
101.413 150.965 173.682 -0.705862 0.0610762 -0.705711
101.48 151.872 173.693 -0.705862 0.0610762 -0.705711
101.978 151.161 173.133 -0.705862 0.0610762 -0.705711
105.918 150.879 173.084 0.717758 0.473149 -0.510836
105.857 151.857 173.905 0.717758 0.473149 -0.510836
106.441 151.112 174.036 0.717758 0.473149 -0.510836
105.918 150.879 173.084 0.938282 0.25467 -0.234029
105.654 151.799 173.031 0.938282 0.25467 -0.234029
105.857 151.857 173.905 0.938282 0.25467 -0.234029
106.527 150.868 173.906 0.692967 0.512703 -0.506885
105.918 150.879 173.084 0.692967 0.512703 -0.506885
106.441 151.112 174.036 0.692967 0.512703 -0.506885
101.48 151.872 173.693 -0.822316 0.253455 -0.509468
101.153 151.982 174.276 -0.822316 0.253455 -0.509468
101.533 152.538 173.938 -0.822316 0.253455 -0.509468
102.267 153.025 173.58 -0.62484 0.500758 -0.599013
101.533 152.538 173.938 -0.62484 0.500758 -0.599013
101.836 153.069 174.066 -0.62484 0.500758 -0.599013
102.418 152.536 173.159 -0.604104 0.405346 -0.686115
101.533 152.538 173.938 -0.604104 0.405346 -0.686115
102.267 153.025 173.58 -0.604104 0.405346 -0.686115
102.418 152.536 173.159 -0.627793 0.312869 -0.712734
101.48 151.872 173.693 -0.627793 0.312869 -0.712734
101.533 152.538 173.938 -0.627793 0.312869 -0.712734
102.418 152.536 173.159 -0.620476 0.289624 -0.728785
102.293 151.867 172.998 -0.620476 0.289624 -0.728785
101.48 151.872 173.693 -0.620476 0.289624 -0.728785
102.418 152.536 173.159 -0.225352 0.486526 -0.844102
103.192 153.142 173.301 -0.225352 0.486526 -0.844102
103.591 152.774 172.982 -0.225352 0.486526 -0.844102
102.267 153.025 173.58 -0.302587 0.56682 -0.766261
103.192 153.142 173.301 -0.302587 0.56682 -0.766261
102.418 152.536 173.159 -0.302587 0.56682 -0.766261
103.591 152.774 172.982 0.116761 0.570895 -0.812678
104.242 153.148 173.338 0.116761 0.570895 -0.812678
104.697 152.754 173.127 0.116761 0.570895 -0.812678
103.192 153.142 173.301 0.0228788 0.668419 -0.743433
104.242 153.148 173.338 0.0228788 0.668419 -0.743433
103.591 152.774 172.982 0.0228788 0.668419 -0.743433
104.962 153.078 173.786 0.401207 0.74757 -0.529312
104.697 152.754 173.127 0.401207 0.74757 -0.529312
104.242 153.148 173.338 0.401207 0.74757 -0.529312
104.962 153.078 173.786 0.773375 0.387423 -0.501791
105.34 152.707 174.083 0.773375 0.387423 -0.501791
104.697 152.754 173.127 0.773375 0.387423 -0.501791
105.34 152.707 174.083 0.528564 0.787346 -0.317342
105.469 152.264 173.198 0.528564 0.787346 -0.317342
104.697 152.754 173.127 0.528564 0.787346 -0.317342
105.857 151.857 173.905 0.872338 0.431205 -0.230409
105.654 151.799 173.031 0.872338 0.431205 -0.230409
105.469 152.264 173.198 0.872338 0.431205 -0.230409
105.34 152.707 174.083 0.831301 0.535893 -0.147504
105.857 151.857 173.905 0.831301 0.535893 -0.147504
105.469 152.264 173.198 0.831301 0.535893 -0.147504
102.267 153.025 173.58 -0.483514 0.722756 -0.4938
101.836 153.069 174.066 -0.483514 0.722756 -0.4938
102.45 153.497 174.092 -0.483514 0.722756 -0.4938
103.192 153.142 173.301 -0.275207 0.753902 -0.596567
102.267 153.025 173.58 -0.275207 0.753902 -0.596567
102.45 153.497 174.092 -0.275207 0.753902 -0.596567
103.565 153.631 173.992 -0.147795 0.843132 -0.516997
103.192 153.142 173.301 -0.147795 0.843132 -0.516997
102.45 153.497 174.092 -0.147795 0.843132 -0.516997
104.242 153.148 173.338 0.0165325 0.811813 -0.583683
103.192 153.142 173.301 0.0165325 0.811813 -0.583683
103.565 153.631 173.992 0.0165325 0.811813 -0.583683
104.411 153.271 173.868 0.332575 0.889394 -0.313645
104.242 153.148 173.338 0.332575 0.889394 -0.313645
103.565 153.631 173.992 0.332575 0.889394 -0.313645
104.962 153.078 173.786 0.27502 0.913138 -0.300902
104.242 153.148 173.338 0.27502 0.913138 -0.300902
104.411 153.271 173.868 0.27502 0.913138 -0.300902
104.212 149.127 173.881 -0.337923 -0.941097 -0.012038
104.697 148.949 174.187 -0.337923 -0.941097 -0.012038
104.292 149.087 174.709 -0.337923 -0.941097 -0.012038
105.519 149.107 174.307 0.177283 -0.98088 0.0802846
104.973 149.061 174.948 0.177283 -0.98088 0.0802846
104.697 148.949 174.187 0.177283 -0.98088 0.0802846
105.519 149.107 174.307 0.163689 -0.972918 0.163209
104.697 148.949 174.187 0.163689 -0.972918 0.163209
105.384 148.983 173.705 0.163689 -0.972918 0.163209
105.384 148.983 173.705 0.562505 -0.825671 0.0430834
105.728 149.22 173.754 0.562505 -0.825671 0.0430834
105.519 149.107 174.307 0.562505 -0.825671 0.0430834
101.57 149.99 174.16 -0.644839 -0.689301 -0.330222
101.228 150.19 174.412 -0.644839 -0.689301 -0.330222
101.359 150.295 173.934 -0.644839 -0.689301 -0.330222
101.365 150.124 174.935 -0.492711 -0.869957 0.0202497
101.228 150.19 174.412 -0.492711 -0.869957 0.0202497
101.57 149.99 174.16 -0.492711 -0.869957 0.0202497
101.365 150.124 174.935 -0.306331 -0.948307 0.0829189
101.57 149.99 174.16 -0.306331 -0.948307 0.0829189
102.234 149.859 175.108 -0.306331 -0.948307 0.0829189
102.234 149.859 175.108 -0.203377 -0.979079 0.00650011
101.57 149.99 174.16 -0.203377 -0.979079 0.00650011
102.337 149.831 174.18 -0.203377 -0.979079 0.00650011
102.337 149.831 174.18 -0.21802 -0.975933 0.00476938
103.442 149.587 174.757 -0.21802 -0.975933 0.00476938
102.234 149.859 175.108 -0.21802 -0.975933 0.00476938
104.292 149.087 174.709 -0.50648 -0.862214 0.00804546
103.442 149.587 174.757 -0.50648 -0.862214 0.00804546
104.212 149.127 173.881 -0.50648 -0.862214 0.00804546
105.519 149.107 174.307 0.438293 -0.842792 0.312412
105.663 149.428 174.969 0.438293 -0.842792 0.312412
104.973 149.061 174.948 0.438293 -0.842792 0.312412
106.462 150.032 174.453 0.690509 -0.660534 0.294775
106.268 150.117 175.098 0.690509 -0.660534 0.294775
105.663 149.428 174.969 0.690509 -0.660534 0.294775
106.248 149.744 174.041 0.661704 -0.730661 0.168172
106.462 150.032 174.453 0.661704 -0.730661 0.168172
105.663 149.428 174.969 0.661704 -0.730661 0.168172
106.248 149.744 174.041 0.684359 -0.703494 0.191698
105.663 149.428 174.969 0.684359 -0.703494 0.191698
105.519 149.107 174.307 0.684359 -0.703494 0.191698
106.248 149.744 174.041 0.675735 -0.729548 0.10556
105.519 149.107 174.307 0.675735 -0.729548 0.10556
105.728 149.22 173.754 0.675735 -0.729548 0.10556
106.248 149.744 174.041 0.885932 -0.437902 -0.152861
106.476 150.261 173.882 0.885932 -0.437902 -0.152861
106.462 150.032 174.453 0.885932 -0.437902 -0.152861
101.228 150.19 174.412 -0.890157 -0.417939 0.181516
101.365 150.124 174.935 -0.890157 -0.417939 0.181516
100.989 150.907 174.891 -0.890157 -0.417939 0.181516
101.228 150.19 174.412 -0.949432 -0.123195 -0.288793
100.989 150.907 174.891 -0.949432 -0.123195 -0.288793
101.359 150.295 173.934 -0.949432 -0.123195 -0.288793
101.359 150.295 173.934 -0.934137 -0.320745 -0.15656
100.989 150.907 174.891 -0.934137 -0.320745 -0.15656
101.045 151.153 174.052 -0.934137 -0.320745 -0.15656
106.583 150.737 174.501 0.934847 -0.182058 0.30482
106.268 150.117 175.098 0.934847 -0.182058 0.30482
106.462 150.032 174.453 0.934847 -0.182058 0.30482
106.371 151.046 174.954 0.896779 -0.0309901 0.441393
106.268 150.117 175.098 0.896779 -0.0309901 0.441393
106.583 150.737 174.501 0.896779 -0.0309901 0.441393
106.476 150.261 173.882 0.990701 -0.0786137 -0.111044
106.527 150.868 173.906 0.990701 -0.0786137 -0.111044
106.583 150.737 174.501 0.990701 -0.0786137 -0.111044
106.462 150.032 174.453 0.985024 -0.167257 -0.0418777
106.476 150.261 173.882 0.985024 -0.167257 -0.0418777
106.583 150.737 174.501 0.985024 -0.167257 -0.0418777
101.045 151.153 174.052 -0.990375 0.135742 -0.0270595
100.989 150.907 174.891 -0.990375 0.135742 -0.0270595
101.153 151.982 174.276 -0.990375 0.135742 -0.0270595
100.989 150.907 174.891 -0.971737 0.0132946 -0.235691
100.938 151.918 175.158 -0.971737 0.0132946 -0.235691
101.153 151.982 174.276 -0.971737 0.0132946 -0.235691
106.441 151.112 174.036 0.883122 0.458315 0.100214
106.371 151.046 174.954 0.883122 0.458315 0.100214
106.583 150.737 174.501 0.883122 0.458315 0.100214
106.441 151.112 174.036 0.773562 0.625154 0.103848
105.857 151.857 173.905 0.773562 0.625154 0.103848
106.371 151.046 174.954 0.773562 0.625154 0.103848
105.857 151.857 173.905 0.861065 0.507617 -0.0298514
105.837 151.954 174.981 0.861065 0.507617 -0.0298514
106.371 151.046 174.954 0.861065 0.507617 -0.0298514
106.527 150.868 173.906 0.940769 0.338758 -0.0140567
106.441 151.112 174.036 0.940769 0.338758 -0.0140567
106.583 150.737 174.501 0.940769 0.338758 -0.0140567
101.505 153.003 175.022 -0.862145 0.457222 -0.218297
101.533 152.538 173.938 -0.862145 0.457222 -0.218297
101.153 151.982 174.276 -0.862145 0.457222 -0.218297
101.505 153.003 175.022 -0.88043 0.437545 -0.182752
101.153 151.982 174.276 -0.88043 0.437545 -0.182752
100.938 151.918 175.158 -0.88043 0.437545 -0.182752
101.533 152.538 173.938 -0.815073 0.524548 -0.24598
101.505 153.003 175.022 -0.815073 0.524548 -0.24598
101.836 153.069 174.066 -0.815073 0.524548 -0.24598
104.409 153.181 174.272 0.548542 0.737169 0.394568
103.923 153.154 174.998 0.548542 0.737169 0.394568
104.62 152.586 175.09 0.548542 0.737169 0.394568
104.409 153.181 174.272 0.479677 0.791338 0.379071
105.34 152.707 174.083 0.479677 0.791338 0.379071
104.962 153.078 173.786 0.479677 0.791338 0.379071
104.409 153.181 174.272 0.47714 0.764765 0.432981
104.62 152.586 175.09 0.47714 0.764765 0.432981
105.34 152.707 174.083 0.47714 0.764765 0.432981
104.62 152.586 175.09 0.307312 0.893669 0.326979
105.47 152.286 175.112 0.307312 0.893669 0.326979
105.34 152.707 174.083 0.307312 0.893669 0.326979
105.837 151.954 174.981 0.851287 0.523754 -0.0314929
105.857 151.857 173.905 0.851287 0.523754 -0.0314929
105.34 152.707 174.083 0.851287 0.523754 -0.0314929
105.47 152.286 175.112 0.695244 0.691708 0.195384
105.837 151.954 174.981 0.695244 0.691708 0.195384
105.34 152.707 174.083 0.695244 0.691708 0.195384
102.326 153.887 174.839 -0.737541 0.641817 -0.21001
101.505 153.003 175.022 -0.737541 0.641817 -0.21001
102.186 153.823 175.138 -0.737541 0.641817 -0.21001
102.45 153.497 174.092 -0.707809 0.571734 -0.414881
101.505 153.003 175.022 -0.707809 0.571734 -0.414881
102.326 153.887 174.839 -0.707809 0.571734 -0.414881
102.45 153.497 174.092 -0.562801 0.814883 -0.138642
101.836 153.069 174.066 -0.562801 0.814883 -0.138642
101.505 153.003 175.022 -0.562801 0.814883 -0.138642
102.45 153.497 174.092 -0.14826 0.817161 -0.557016
103.105 153.976 174.62 -0.14826 0.817161 -0.557016
103.565 153.631 173.992 -0.14826 0.817161 -0.557016
102.326 153.887 174.839 -0.232115 0.846283 -0.479507
103.105 153.976 174.62 -0.232115 0.846283 -0.479507
102.45 153.497 174.092 -0.232115 0.846283 -0.479507
104.409 153.181 174.272 0.712001 0.497961 0.495065
103.59 153.765 174.863 0.712001 0.497961 0.495065
103.923 153.154 174.998 0.712001 0.497961 0.495065
104.409 153.181 174.272 0.502932 0.852034 -0.145249
103.565 153.631 173.992 0.502932 0.852034 -0.145249
103.59 153.765 174.863 0.502932 0.852034 -0.145249
104.409 153.181 174.272 0.408453 0.89039 0.200928
104.411 153.271 173.868 0.408453 0.89039 0.200928
103.565 153.631 173.992 0.408453 0.89039 0.200928
103.105 153.976 174.62 0.455621 0.877804 -0.147888
103.59 153.765 174.863 0.455621 0.877804 -0.147888
103.565 153.631 173.992 0.455621 0.877804 -0.147888
104.962 153.078 173.786 0.350219 0.913737 0.205988
104.411 153.271 173.868 0.350219 0.913737 0.205988
104.409 153.181 174.272 0.350219 0.913737 0.205988
102.326 153.887 174.839 -0.229235 0.968446 0.0977948
102.186 153.823 175.138 -0.229235 0.968446 0.0977948
102.598 153.917 175.178 -0.229235 0.968446 0.0977948
103.105 153.976 174.62 -0.113531 0.993531 0.0027392
102.326 153.887 174.839 -0.113531 0.993531 0.0027392
102.598 153.917 175.178 -0.113531 0.993531 0.0027392
103.302 153.86 175.183 0.0774816 0.981565 0.174722
103.105 153.976 174.62 0.0774816 0.981565 0.174722
102.598 153.917 175.178 0.0774816 0.981565 0.174722
103.59 153.765 174.863 0.372811 0.925996 0.0595353
103.105 153.976 174.62 0.372811 0.925996 0.0595353
103.302 153.86 175.183 0.372811 0.925996 0.0595353
104.697 148.949 174.187 -0.228293 -0.97023 0.0808411
104.426 149.093 175.154 -0.228293 -0.97023 0.0808411
104.292 149.087 174.709 -0.228293 -0.97023 0.0808411
104.697 148.949 174.187 -0.00279964 -0.989168 0.146758
104.973 149.061 174.948 -0.00279964 -0.989168 0.146758
104.426 149.093 175.154 -0.00279964 -0.989168 0.146758
101.365 150.124 174.935 -0.292947 -0.956122 0.00360571
102.234 149.859 175.108 -0.292947 -0.956122 0.00360571
101.334 150.138 176.032 -0.292947 -0.956122 0.00360571
101.334 150.138 176.032 -0.294436 -0.955669 0.00202161
102.234 149.859 175.108 -0.294436 -0.955669 0.00202161
102.286 149.845 176.054 -0.294436 -0.955669 0.00202161
103.442 149.587 174.757 -0.196976 -0.977278 0.0782835
103.304 149.727 176.163 -0.196976 -0.977278 0.0782835
102.234 149.859 175.108 -0.196976 -0.977278 0.0782835
102.234 149.859 175.108 -0.113426 -0.99351 -0.00849636
103.304 149.727 176.163 -0.113426 -0.99351 -0.00849636
102.286 149.845 176.054 -0.113426 -0.99351 -0.00849636
104.426 149.093 175.154 -0.49362 -0.854924 0.159511
103.442 149.587 174.757 -0.49362 -0.854924 0.159511
104.292 149.087 174.709 -0.49362 -0.854924 0.159511
104.426 149.093 175.154 -0.533936 -0.750857 0.388749
104.536 149.328 175.759 -0.533936 -0.750857 0.388749
103.442 149.587 174.757 -0.533936 -0.750857 0.388749
104.536 149.328 175.759 -0.287871 -0.95531 0.0671859
103.304 149.727 176.163 -0.287871 -0.95531 0.0671859
103.442 149.587 174.757 -0.287871 -0.95531 0.0671859
104.973 149.061 174.948 0.0763886 -0.934111 0.348714
104.536 149.328 175.759 0.0763886 -0.934111 0.348714
104.426 149.093 175.154 0.0763886 -0.934111 0.348714
104.973 149.061 174.948 0.401768 -0.783356 0.474275
105.663 149.428 174.969 0.401768 -0.783356 0.474275
104.536 149.328 175.759 0.401768 -0.783356 0.474275
105.663 149.428 174.969 0.293515 -0.90626 0.304208
105.49 149.703 175.957 0.293515 -0.90626 0.304208
104.536 149.328 175.759 0.293515 -0.90626 0.304208
105.49 149.703 175.957 0.6873 -0.65951 0.304411
105.663 149.428 174.969 0.6873 -0.65951 0.304411
106.268 150.117 175.098 0.6873 -0.65951 0.304411
105.975 150.316 175.945 0.727376 -0.56824 0.384745
105.49 149.703 175.957 0.727376 -0.56824 0.384745
106.268 150.117 175.098 0.727376 -0.56824 0.384745
101.365 150.124 174.935 -0.900606 -0.434166 -0.0202326
101.334 150.138 176.032 -0.900606 -0.434166 -0.0202326
100.989 150.907 174.891 -0.900606 -0.434166 -0.0202326
100.989 150.907 174.891 -0.880303 -0.471593 -0.051632
101.334 150.138 176.032 -0.880303 -0.471593 -0.051632
100.846 151.048 176.036 -0.880303 -0.471593 -0.051632
106.268 150.117 175.098 0.940041 -0.0519587 0.33708
106.371 151.046 174.954 0.940041 -0.0519587 0.33708
105.975 150.316 175.945 0.940041 -0.0519587 0.33708
105.975 150.316 175.945 0.948703 -0.113803 0.294976
106.371 151.046 174.954 0.948703 -0.113803 0.294976
106.105 151.246 175.885 0.948703 -0.113803 0.294976
100.989 150.907 174.891 -0.992446 -0.0179385 -0.121367
100.846 151.048 176.036 -0.992446 -0.0179385 -0.121367
100.938 151.918 175.158 -0.992446 -0.0179385 -0.121367
100.846 151.048 176.036 -0.988276 0.146694 0.0423345
100.996 152.024 176.144 -0.988276 0.146694 0.0423345
100.938 151.918 175.158 -0.988276 0.146694 0.0423345
106.371 151.046 174.954 0.855553 0.499309 0.136817
105.837 151.954 174.981 0.855553 0.499309 0.136817
106.105 151.246 175.885 0.855553 0.499309 0.136817
106.105 151.246 175.885 0.878071 0.466923 0.104763
105.837 151.954 174.981 0.878071 0.466923 0.104763
105.728 151.98 175.779 0.878071 0.466923 0.104763
101.412 152.621 176.162 -0.815622 0.565378 0.122916
101.505 153.003 175.022 -0.815622 0.565378 0.122916
100.996 152.024 176.144 -0.815622 0.565378 0.122916
100.996 152.024 176.144 -0.886008 0.463665 0.00217076
101.505 153.003 175.022 -0.886008 0.463665 0.00217076
100.938 151.918 175.158 -0.886008 0.463665 0.00217076
101.412 152.621 176.162 -0.621682 0.756557 0.20281
101.863 153.019 176.058 -0.621682 0.756557 0.20281
101.505 153.003 175.022 -0.621682 0.756557 0.20281
104.62 152.586 175.09 0.607772 0.757206 0.239273
103.79 153.063 175.689 0.607772 0.757206 0.239273
104.53 152.409 175.878 0.607772 0.757206 0.239273
103.923 153.154 174.998 0.59928 0.77062 0.216814
103.79 153.063 175.689 0.59928 0.77062 0.216814
104.62 152.586 175.09 0.59928 0.77062 0.216814
105.47 152.286 175.112 0.323208 0.928228 0.1842
104.62 152.586 175.09 0.323208 0.928228 0.1842
105.269 152.208 175.855 0.323208 0.928228 0.1842
104.62 152.586 175.09 0.261668 0.934908 0.239741
104.53 152.409 175.878 0.261668 0.934908 0.239741
105.269 152.208 175.855 0.261668 0.934908 0.239741
105.728 151.98 175.779 0.682709 0.727332 0.0699788
105.837 151.954 174.981 0.682709 0.727332 0.0699788
105.47 152.286 175.112 0.682709 0.727332 0.0699788
105.269 152.208 175.855 0.464342 0.859136 0.215108
105.728 151.98 175.779 0.464342 0.859136 0.215108
105.47 152.286 175.112 0.464342 0.859136 0.215108
102.186 153.823 175.138 -0.234901 0.795183 0.559021
102.284 153.407 175.772 -0.234901 0.795183 0.559021
102.598 153.917 175.178 -0.234901 0.795183 0.559021
101.505 153.003 175.022 -0.714796 0.528467 0.458027
102.284 153.407 175.772 -0.714796 0.528467 0.458027
102.186 153.823 175.138 -0.714796 0.528467 0.458027
101.505 153.003 175.022 -0.590749 0.783745 0.191727
101.863 153.019 176.058 -0.590749 0.783745 0.191727
102.284 153.407 175.772 -0.590749 0.783745 0.191727
102.598 153.917 175.178 0.0557452 0.753292 0.655319
103.25 153.16 175.993 0.0557452 0.753292 0.655319
103.302 153.86 175.183 0.0557452 0.753292 0.655319
102.284 153.407 175.772 0.0391159 0.747445 0.663171
103.25 153.16 175.993 0.0391159 0.747445 0.663171
102.598 153.917 175.178 0.0391159 0.747445 0.663171
103.302 153.86 175.183 0.455505 0.658331 0.599263
103.25 153.16 175.993 0.455505 0.658331 0.599263
103.79 153.063 175.689 0.455505 0.658331 0.599263
103.302 153.86 175.183 0.652575 0.648012 0.392718
103.79 153.063 175.689 0.652575 0.648012 0.392718
103.59 153.765 174.863 0.652575 0.648012 0.392718
103.59 153.765 174.863 0.832878 0.504735 0.227061
103.79 153.063 175.689 0.832878 0.504735 0.227061
103.923 153.154 174.998 0.832878 0.504735 0.227061
101.334 150.138 176.032 -0.502982 -0.862826 -0.0504139
101.43 150.012 177.237 -0.502982 -0.862826 -0.0504139
100.962 150.303 176.924 -0.502982 -0.862826 -0.0504139
102.286 149.845 176.054 -0.294991 -0.954679 0.0395981
102.314 149.873 176.957 -0.294991 -0.954679 0.0395981
101.334 150.138 176.032 -0.294991 -0.954679 0.0395981
101.334 150.138 176.032 -0.18106 -0.979506 -0.0882304
102.314 149.873 176.957 -0.18106 -0.979506 -0.0882304
101.43 150.012 177.237 -0.18106 -0.979506 -0.0882304
102.286 149.845 176.054 -0.11798 -0.99239 0.035239
103.304 149.727 176.163 -0.11798 -0.99239 0.035239
102.314 149.873 176.957 -0.11798 -0.99239 0.035239
104.536 149.328 175.759 -0.207949 -0.93422 0.289811
104.524 149.674 176.865 -0.207949 -0.93422 0.289811
103.304 149.727 176.163 -0.207949 -0.93422 0.289811
105.429 150.078 176.574 0.47454 -0.593834 0.649749
104.989 150.29 177.09 0.47454 -0.593834 0.649749
104.524 149.674 176.865 0.47454 -0.593834 0.649749
105.429 150.078 176.574 0.482258 -0.726851 0.488993
104.524 149.674 176.865 0.482258 -0.726851 0.488993
105.49 149.703 175.957 0.482258 -0.726851 0.488993
105.49 149.703 175.957 0.298414 -0.910027 0.28775
104.524 149.674 176.865 0.298414 -0.910027 0.28775
104.536 149.328 175.759 0.298414 -0.910027 0.28775
105.49 149.703 175.957 0.718607 -0.560791 0.411239
105.975 150.316 175.945 0.718607 -0.560791 0.411239
105.429 150.078 176.574 0.718607 -0.560791 0.411239
101.334 150.138 176.032 -0.848995 -0.45403 -0.270303
100.962 150.303 176.924 -0.848995 -0.45403 -0.270303
100.846 151.048 176.036 -0.848995 -0.45403 -0.270303
100.962 150.303 176.924 -0.993456 -0.107135 0.0395872
100.882 151.08 177.01 -0.993456 -0.107135 0.0395872
100.846 151.048 176.036 -0.993456 -0.107135 0.0395872
105.494 150.985 176.641 0.735176 -0.102433 0.670092
104.989 150.29 177.09 0.735176 -0.102433 0.670092
105.429 150.078 176.574 0.735176 -0.102433 0.670092
105.003 151.089 177.01 0.608448 0.0677228 0.790699
104.989 150.29 177.09 0.608448 0.0677228 0.790699
105.494 150.985 176.641 0.608448 0.0677228 0.790699
105.975 150.316 175.945 0.787736 -0.0709686 0.611912
106.105 151.246 175.885 0.787736 -0.0709686 0.611912
105.494 150.985 176.641 0.787736 -0.0709686 0.611912
105.429 150.078 176.574 0.77023 -0.101951 0.629565
105.975 150.316 175.945 0.77023 -0.101951 0.629565
105.494 150.985 176.641 0.77023 -0.101951 0.629565
100.846 151.048 176.036 -0.988502 0.147975 0.031104
100.882 151.08 177.01 -0.988502 0.147975 0.031104
100.996 152.024 176.144 -0.988502 0.147975 0.031104
100.882 151.08 177.01 -0.956169 0.252108 0.14894
101.093 151.842 177.078 -0.956169 0.252108 0.14894
100.996 152.024 176.144 -0.956169 0.252108 0.14894
104.532 152.055 176.366 0.459527 0.602091 0.652933
103.349 152.16 177.103 0.459527 0.602091 0.652933
104.408 151.416 177.043 0.459527 0.602091 0.652933
105.003 151.089 177.01 0.385198 0.63462 0.669985
104.532 152.055 176.366 0.385198 0.63462 0.669985
104.408 151.416 177.043 0.385198 0.63462 0.669985
105.003 151.089 177.01 0.546907 0.632454 0.548539
105.494 150.985 176.641 0.546907 0.632454 0.548539
104.532 152.055 176.366 0.546907 0.632454 0.548539
105.494 150.985 176.641 0.261269 0.4537 0.851995
105.531 151.837 176.176 0.261269 0.4537 0.851995
104.532 152.055 176.366 0.261269 0.4537 0.851995
106.105 151.246 175.885 0.725885 0.449207 0.520869
105.728 151.98 175.779 0.725885 0.449207 0.520869
105.531 151.837 176.176 0.725885 0.449207 0.520869
105.494 150.985 176.641 0.674619 0.331052 0.659768
106.105 151.246 175.885 0.674619 0.331052 0.659768
105.531 151.837 176.176 0.674619 0.331052 0.659768
100.996 152.024 176.144 -0.74022 0.641236 0.202215
101.093 151.842 177.078 -0.74022 0.641236 0.202215
101.403 152.228 176.989 -0.74022 0.641236 0.202215
101.412 152.621 176.162 -0.797159 0.548657 0.252017
100.996 152.024 176.144 -0.797159 0.548657 0.252017
101.403 152.228 176.989 -0.797159 0.548657 0.252017
101.863 153.019 176.058 -0.218116 0.833404 0.507802
102.166 152.597 176.881 -0.218116 0.833404 0.507802
102.486 152.982 176.387 -0.218116 0.833404 0.507802
101.863 153.019 176.058 -0.487466 0.690898 0.533888
101.412 152.621 176.162 -0.487466 0.690898 0.533888
102.166 152.597 176.881 -0.487466 0.690898 0.533888
101.412 152.621 176.162 -0.353082 0.846533 0.398391
101.403 152.228 176.989 -0.353082 0.846533 0.398391
102.166 152.597 176.881 -0.353082 0.846533 0.398391
102.486 152.982 176.387 0.163641 0.740061 0.652327
103.349 152.16 177.103 0.163641 0.740061 0.652327
103.25 153.16 175.993 0.163641 0.740061 0.652327
102.166 152.597 176.881 0.145822 0.732427 0.665046
103.349 152.16 177.103 0.145822 0.732427 0.665046
102.486 152.982 176.387 0.145822 0.732427 0.665046
104.532 152.055 176.366 0.424969 0.69098 0.584763
103.25 153.16 175.993 0.424969 0.69098 0.584763
103.349 152.16 177.103 0.424969 0.69098 0.584763
104.532 152.055 176.366 0.441052 0.701312 0.560031
103.79 153.063 175.689 0.441052 0.701312 0.560031
103.25 153.16 175.993 0.441052 0.701312 0.560031
104.532 152.055 176.366 0.492718 0.705407 0.509538
104.53 152.409 175.878 0.492718 0.705407 0.509538
103.79 153.063 175.689 0.492718 0.705407 0.509538
105.269 152.208 175.855 0.231821 0.787837 0.570589
104.53 152.409 175.878 0.231821 0.787837 0.570589
104.532 152.055 176.366 0.231821 0.787837 0.570589
105.531 151.837 176.176 0.2782 0.732744 0.62104
105.269 152.208 175.855 0.2782 0.732744 0.62104
104.532 152.055 176.366 0.2782 0.732744 0.62104
105.728 151.98 175.779 0.453174 0.743946 0.491098
105.269 152.208 175.855 0.453174 0.743946 0.491098
105.531 151.837 176.176 0.453174 0.743946 0.491098
101.863 153.019 176.058 -0.275123 0.746411 0.605952
102.486 152.982 176.387 -0.275123 0.746411 0.605952
102.284 153.407 175.772 -0.275123 0.746411 0.605952
103.25 153.16 175.993 0.0876649 0.832714 0.54672
102.284 153.407 175.772 0.0876649 0.832714 0.54672
102.486 152.982 176.387 0.0876649 0.832714 0.54672
101.43 150.012 177.237 -0.626829 -0.737491 0.251382
101.215 150.36 177.724 -0.626829 -0.737491 0.251382
100.962 150.303 176.924 -0.626829 -0.737491 0.251382
101.572 150.161 178.009 -0.619676 -0.741458 0.257374
101.215 150.36 177.724 -0.619676 -0.741458 0.257374
101.43 150.012 177.237 -0.619676 -0.741458 0.257374
101.572 150.161 178.009 -0.219133 -0.949682 0.223799
101.43 150.012 177.237 -0.219133 -0.949682 0.223799
102.333 149.971 177.948 -0.219133 -0.949682 0.223799
102.333 149.971 177.948 -0.122843 -0.987442 0.0993378
101.43 150.012 177.237 -0.122843 -0.987442 0.0993378
102.314 149.873 176.957 -0.122843 -0.987442 0.0993378
103.304 149.727 176.163 -0.0442183 -0.990914 0.127022
103.43 149.92 177.706 -0.0442183 -0.990914 0.127022
102.314 149.873 176.957 -0.0442183 -0.990914 0.127022
102.314 149.873 176.957 -0.0246469 -0.994868 0.0981309
103.43 149.92 177.706 -0.0246469 -0.994868 0.0981309
102.333 149.971 177.948 -0.0246469 -0.994868 0.0981309
104.355 150.114 177.579 0.241825 -0.747345 0.618867
103.886 150.331 178.024 0.241825 -0.747345 0.618867
103.43 149.92 177.706 0.241825 -0.747345 0.618867
104.355 150.114 177.579 0.24318 -0.798791 0.55027
103.43 149.92 177.706 0.24318 -0.798791 0.55027
104.524 149.674 176.865 0.24318 -0.798791 0.55027
104.524 149.674 176.865 -0.119459 -0.98399 0.13226
103.43 149.92 177.706 -0.119459 -0.98399 0.13226
103.304 149.727 176.163 -0.119459 -0.98399 0.13226
104.524 149.674 176.865 0.578124 -0.625961 0.523398
104.989 150.29 177.09 0.578124 -0.625961 0.523398
104.355 150.114 177.579 0.578124 -0.625961 0.523398
101.215 150.36 177.724 -0.871274 0.0769289 0.48473
101.274 151.226 177.692 -0.871274 0.0769289 0.48473
100.882 151.08 177.01 -0.871274 0.0769289 0.48473
100.962 150.303 176.924 -0.942311 -0.131385 0.307877
101.215 150.36 177.724 -0.942311 -0.131385 0.307877
100.882 151.08 177.01 -0.942311 -0.131385 0.307877
101.673 150.876 178.112 -0.63194 -0.0224843 0.774691
101.215 150.36 177.724 -0.63194 -0.0224843 0.774691
101.572 150.161 178.009 -0.63194 -0.0224843 0.774691
101.274 151.226 177.692 -0.691986 0.0732385 0.718187
101.215 150.36 177.724 -0.691986 0.0732385 0.718187
101.673 150.876 178.112 -0.691986 0.0732385 0.718187
104.313 151.014 177.549 0.701021 0.0558865 0.710947
103.886 150.331 178.024 0.701021 0.0558865 0.710947
104.355 150.114 177.579 0.701021 0.0558865 0.710947
103.746 151.1 178.017 0.642825 0.123615 0.755973
103.886 150.331 178.024 0.642825 0.123615 0.755973
104.313 151.014 177.549 0.642825 0.123615 0.755973
104.989 150.29 177.09 0.609448 0.0676298 0.789936
105.003 151.089 177.01 0.609448 0.0676298 0.789936
104.313 151.014 177.549 0.609448 0.0676298 0.789936
104.355 150.114 177.579 0.600402 0.0541427 0.797863
104.989 150.29 177.09 0.600402 0.0541427 0.797863
104.313 151.014 177.549 0.600402 0.0541427 0.797863
101.274 151.226 177.692 -0.774253 0.317974 0.547197
101.424 151.944 177.487 -0.774253 0.317974 0.547197
101.093 151.842 177.078 -0.774253 0.317974 0.547197
100.882 151.08 177.01 -0.867246 0.199779 0.456039
101.274 151.226 177.692 -0.867246 0.199779 0.456039
101.093 151.842 177.078 -0.867246 0.199779 0.456039
101.881 151.737 178.021 -0.604783 0.226583 0.763477
101.274 151.226 177.692 -0.604783 0.226583 0.763477
101.673 150.876 178.112 -0.604783 0.226583 0.763477
101.424 151.944 177.487 -0.649824 0.331298 0.684084
101.274 151.226 177.692 -0.649824 0.331298 0.684084
101.881 151.737 178.021 -0.649824 0.331298 0.684084
103.491 151.763 177.781 0.395593 0.594015 0.700466
102.902 151.988 177.923 0.395593 0.594015 0.700466
103.252 151.576 178.074 0.395593 0.594015 0.700466
103.746 151.1 178.017 0.524378 0.457576 0.718089
103.491 151.763 177.781 0.524378 0.457576 0.718089
103.252 151.576 178.074 0.524378 0.457576 0.718089
104.313 151.014 177.549 0.604827 0.463462 0.647601
103.491 151.763 177.781 0.604827 0.463462 0.647601
103.746 151.1 178.017 0.604827 0.463462 0.647601
104.313 151.014 177.549 0.689635 0.678748 0.2524
103.349 152.16 177.103 0.689635 0.678748 0.2524
103.491 151.763 177.781 0.689635 0.678748 0.2524
104.313 151.014 177.549 0.48266 0.639386 0.598519
104.408 151.416 177.043 0.48266 0.639386 0.598519
103.349 152.16 177.103 0.48266 0.639386 0.598519
105.003 151.089 177.01 0.405461 0.677121 0.614092
104.408 151.416 177.043 0.405461 0.677121 0.614092
104.313 151.014 177.549 0.405461 0.677121 0.614092
101.093 151.842 177.078 -0.673092 0.630144 0.387125
101.424 151.944 177.487 -0.673092 0.630144 0.387125
101.403 152.228 176.989 -0.673092 0.630144 0.387125
101.424 151.944 177.487 -0.346561 0.735849 0.58174
101.881 151.737 178.021 -0.346561 0.735849 0.58174
102.24 152.119 177.751 -0.346561 0.735849 0.58174
101.424 151.944 177.487 -0.329668 0.81414 0.478011
102.24 152.119 177.751 -0.329668 0.81414 0.478011
101.403 152.228 176.989 -0.329668 0.81414 0.478011
101.403 152.228 176.989 -0.327433 0.816295 0.475868
102.24 152.119 177.751 -0.327433 0.816295 0.475868
102.166 152.597 176.881 -0.327433 0.816295 0.475868
102.902 151.988 177.923 0.408932 0.822508 0.395291
103.491 151.763 177.781 0.408932 0.822508 0.395291
103.349 152.16 177.103 0.408932 0.822508 0.395291
102.902 151.988 177.923 0.120841 0.956214 0.266556
103.349 152.16 177.103 0.120841 0.956214 0.266556
102.24 152.119 177.751 0.120841 0.956214 0.266556
102.24 152.119 177.751 0.233124 0.86077 0.452468
103.349 152.16 177.103 0.233124 0.86077 0.452468
102.166 152.597 176.881 0.233124 0.86077 0.452468
102.333 149.971 177.948 -0.142822 -0.770789 0.620875
102.346 150.329 178.397 -0.142822 -0.770789 0.620875
101.572 150.161 178.009 -0.142822 -0.770789 0.620875
102.333 149.971 177.948 0.0399444 -0.925796 0.375907
103.43 149.92 177.706 0.0399444 -0.925796 0.375907
103.185 150.157 178.318 0.0399444 -0.925796 0.375907
102.346 150.329 178.397 -0.100384 -0.77541 0.623427
102.333 149.971 177.948 -0.100384 -0.77541 0.623427
103.185 150.157 178.318 -0.100384 -0.77541 0.623427
103.43 149.92 177.706 0.391241 -0.794149 0.465036
103.886 150.331 178.024 0.391241 -0.794149 0.465036
103.185 150.157 178.318 0.391241 -0.794149 0.465036
102.346 150.329 178.397 -0.341824 0.0675054 0.937336
102.306 151.125 178.325 -0.341824 0.0675054 0.937336
101.673 150.876 178.112 -0.341824 0.0675054 0.937336
101.572 150.161 178.009 -0.435047 -0.0678672 0.897847
102.346 150.329 178.397 -0.435047 -0.0678672 0.897847
101.673 150.876 178.112 -0.435047 -0.0678672 0.897847
103.185 150.157 178.318 0.117219 0.120794 0.985733
103.183 150.943 178.222 0.117219 0.120794 0.985733
102.346 150.329 178.397 0.117219 0.120794 0.985733
103.183 150.943 178.222 0.135902 0.095388 0.98612
102.306 151.125 178.325 0.135902 0.095388 0.98612
102.346 150.329 178.397 0.135902 0.095388 0.98612
103.886 150.331 178.024 0.324268 0.0675879 0.943548
103.746 151.1 178.017 0.324268 0.0675879 0.943548
103.183 150.943 178.222 0.324268 0.0675879 0.943548
103.185 150.157 178.318 0.359836 0.114032 0.926021
103.886 150.331 178.024 0.359836 0.114032 0.926021
103.183 150.943 178.222 0.359836 0.114032 0.926021
102.306 151.125 178.325 -0.182848 0.331944 0.925408
102.518 151.786 178.13 -0.182848 0.331944 0.925408
101.881 151.737 178.021 -0.182848 0.331944 0.925408
101.673 150.876 178.112 -0.378326 0.18684 0.90662
102.306 151.125 178.325 -0.378326 0.18684 0.90662
101.881 151.737 178.021 -0.378326 0.18684 0.90662
103.252 151.576 178.074 0.202552 0.484839 0.850826
102.902 151.988 177.923 0.202552 0.484839 0.850826
102.518 151.786 178.13 0.202552 0.484839 0.850826
103.252 151.576 178.074 0.133308 0.211182 0.968314
102.518 151.786 178.13 0.133308 0.211182 0.968314
103.183 150.943 178.222 0.133308 0.211182 0.968314
103.183 150.943 178.222 0.161039 0.232095 0.95927
102.518 151.786 178.13 0.161039 0.232095 0.95927
102.306 151.125 178.325 0.161039 0.232095 0.95927
103.746 151.1 178.017 0.289174 0.187349 0.938764
103.252 151.576 178.074 0.289174 0.187349 0.938764
103.183 150.943 178.222 0.289174 0.187349 0.938764
101.881 151.737 178.021 -0.174091 0.671737 0.720043
102.518 151.786 178.13 -0.174091 0.671737 0.720043
102.24 152.119 177.751 -0.174091 0.671737 0.720043
102.902 151.988 177.923 -0.0273694 0.739836 0.67223
102.24 152.119 177.751 -0.0273694 0.739836 0.67223
102.518 151.786 178.13 -0.0273694 0.739836 0.67223
3 0 1 2
3 3 4 5
3 6 7 8
3 9 10 11
3 12 13 14
3 15 16 17
3 18 19 20
3 21 22 23
3 24 25 26
3 27 28 29
3 30 31 32
3 33 34 35
3 36 37 38
3 39 40 41
3 42 43 44
3 45 46 47
3 48 49 50
3 51 52 53
3 54 55 56
3 57 58 59
3 60 61 62
3 63 64 65
3 66 67 68
3 69 70 71
3 72 73 74
3 75 76 77
3 78 79 80
3 81 82 83
3 84 85 86
3 87 88 89
3 90 91 92
3 93 94 95
3 96 97 98
3 99 100 101
3 102 103 104
3 105 106 107
3 108 109 110
3 111 112 113
3 114 115 116
3 117 118 119
3 120 121 122
3 123 124 125
3 126 127 128
3 129 130 131
3 132 133 134
3 135 136 137
3 138 139 140
3 141 142 143
3 144 145 146
3 147 148 149
3 150 151 152
3 153 154 155
3 156 157 158
3 159 160 161
3 162 163 164
3 165 166 167
3 168 169 170
3 171 172 173
3 174 175 176
3 177 178 179
3 180 181 182
3 183 184 185
3 186 187 188
3 189 190 191
3 192 193 194
3 195 196 197
3 198 199 200
3 201 202 203
3 204 205 206
3 207 208 209
3 210 211 212
3 213 214 215
3 216 217 218
3 219 220 221
3 222 223 224
3 225 226 227
3 228 229 230
3 231 232 233
3 234 235 236
3 237 238 239
3 240 241 242
3 243 244 245
3 246 247 248
3 249 250 251
3 252 253 254
3 255 256 257
3 258 259 260
3 261 262 263
3 264 265 266
3 267 268 269
3 270 271 272
3 273 274 275
3 276 277 278
3 279 280 281
3 282 283 284
3 285 286 287
3 288 289 290
3 291 292 293
3 294 295 296
3 297 298 299
3 300 301 302
3 303 304 305
3 306 307 308
3 309 310 311
3 312 313 314
3 315 316 317
3 318 319 320
3 321 322 323
3 324 325 326
3 327 328 329
3 330 331 332
3 333 334 335
3 336 337 338
3 339 340 341
3 342 343 344
3 345 346 347
3 348 349 350
3 351 352 353
3 354 355 356
3 357 358 359
3 360 361 362
3 363 364 365
3 366 367 368
3 369 370 371
3 372 373 374
3 375 376 377
3 378 379 380
3 381 382 383
3 384 385 386
3 387 388 389
3 390 391 392
3 393 394 395
3 396 397 398
3 399 400 401
3 402 403 404
3 405 406 407
3 408 409 410
3 411 412 413
3 414 415 416
3 417 418 419
3 420 421 422
3 423 424 425
3 426 427 428
3 429 430 431
3 432 433 434
3 435 436 437
3 438 439 440
3 441 442 443
3 444 445 446
3 447 448 449
3 450 451 452
3 453 454 455
3 456 457 458
3 459 460 461
3 462 463 464
3 465 466 467
3 468 469 470
3 471 472 473
3 474 475 476
3 477 478 479
3 480 481 482
3 483 484 485
3 486 487 488
3 489 490 491
3 492 493 494
3 495 496 497
3 498 499 500
3 501 502 503
3 504 505 506
3 507 508 509
3 510 511 512
3 513 514 515
3 516 517 518
3 519 520 521
3 522 523 524
3 525 526 527
3 528 529 530
3 531 532 533
3 534 535 536
3 537 538 539
3 540 541 542
3 543 544 545
3 546 547 548
3 549 550 551
3 552 553 554
3 555 556 557
3 558 559 560
3 561 562 563
3 564 565 566
3 567 568 569
3 570 571 572
3 573 574 575
3 576 577 578
3 579 580 581
3 582 583 584
3 585 586 587
3 588 589 590
3 591 592 593
3 594 595 596
3 597 598 599
3 600 601 602
3 603 604 605
3 606 607 608
3 609 610 611
3 612 613 614
3 615 616 617
3 618 619 620
3 621 622 623
3 624 625 626
3 627 628 629
3 630 631 632
3 633 634 635
3 636 637 638
3 639 640 641
3 642 643 644
3 645 646 647
3 648 649 650
3 651 652 653
3 654 655 656
3 657 658 659
3 660 661 662
3 663 664 665
3 666 667 668
3 669 670 671
3 672 673 674
3 675 676 677
3 678 679 680
3 681 682 683
3 684 685 686
3 687 688 689
3 690 691 692
3 693 694 695
3 696 697 698
3 699 700 701
3 702 703 704
3 705 706 707
3 708 709 710
3 711 712 713
3 714 715 716
3 717 718 719
3 720 721 722
3 723 724 725
3 726 727 728
3 729 730 731
3 732 733 734
3 735 736 737
3 738 739 740
3 741 742 743
3 744 745 746
3 747 748 749
3 750 751 752
3 753 754 755
3 756 757 758
3 759 760 761
3 762 763 764
3 765 766 767
3 768 769 770
3 771 772 773
3 774 775 776
3 777 778 779
3 780 781 782
3 783 784 785
3 786 787 788
3 789 790 791
3 792 793 794
3 795 796 797
3 798 799 800
3 801 802 803
3 804 805 806
3 807 808 809
3 810 811 812
3 813 814 815
3 816 817 818
3 819 820 821
3 822 823 824
3 825 826 827
3 828 829 830
3 831 832 833
