ply
format ascii 1.0
element vertex 282
property float x
property float y
property float z
property float nx
property float ny
property float nz
element face 94
property list uint uint vertex_indices
end_header
119.066 177.37 137.402 -0.333578 -0.783075 -0.5249
118.958 177.145 137.806 -0.333578 -0.783075 -0.5249
118.681 177.413 137.583 -0.333578 -0.783075 -0.5249
118.958 177.145 137.806 -0.113787 -0.854988 -0.506012
119.066 177.37 137.402 -0.113787 -0.854988 -0.506012
119.384 177.165 137.677 -0.113787 -0.854988 -0.506012
118.928 178.179 137.132 -0.429262 -0.351385 -0.832023
119.066 177.37 137.402 -0.429262 -0.351385 -0.832023
118.681 177.413 137.583 -0.429262 -0.351385 -0.832023
118.24 178.209 137.606 -0.552829 -0.283159 -0.783709
118.928 178.179 137.132 -0.552829 -0.283159 -0.783709
118.681 177.413 137.583 -0.552829 -0.283159 -0.783709
119.694 177.466 137.522 0.237138 -0.626611 -0.742378
119.384 177.165 137.677 0.237138 -0.626611 -0.742378
119.066 177.37 137.402 0.237138 -0.626611 -0.742378
119.694 177.466 137.522 0.230449 -0.406315 -0.884195
119.066 177.37 137.402 0.230449 -0.406315 -0.884195
119.676 178.152 137.202 0.230449 -0.406315 -0.884195
119.676 178.152 137.202 0.077826 -0.304155 -0.949438
119.066 177.37 137.402 0.077826 -0.304155 -0.949438
118.928 178.179 137.132 0.077826 -0.304155 -0.949438
119.694 177.466 137.522 0.86826 -0.19072 -0.457984
119.676 178.152 137.202 0.86826 -0.19072 -0.457984
119.908 177.969 137.718 0.86826 -0.19072 -0.457984
118.74 179.274 137.34 -0.564688 0.0596016 -0.823149
118.928 178.179 137.132 -0.564688 0.0596016 -0.823149
118.24 178.209 137.606 -0.564688 0.0596016 -0.823149
117.897 179.259 137.664 -0.356328 -0.0656892 -0.932049
118.74 179.274 137.34 -0.356328 -0.0656892 -0.932049
118.24 178.209 137.606 -0.356328 -0.0656892 -0.932049
119.676 178.152 137.202 0.0874542 -0.130681 -0.98756
118.928 178.179 137.132 0.0874542 -0.130681 -0.98756
119.638 179.144 137.067 0.0874542 -0.130681 -0.98756
119.638 179.144 137.067 -0.270453 0.134714 -0.953261
118.928 178.179 137.132 -0.270453 0.134714 -0.953261
118.74 179.274 137.34 -0.270453 0.134714 -0.953261
119.908 178.929 137.658 0.908233 -0.0262004 -0.417643
119.908 177.969 137.718 0.908233 -0.0262004 -0.417643
119.676 178.152 137.202 0.908233 -0.0262004 -0.417643
119.638 179.144 137.067 0.906148 -0.0228108 -0.422345
119.908 178.929 137.658 0.906148 -0.0228108 -0.422345
119.676 178.152 137.202 0.906148 -0.0228108 -0.422345
118.078 180.105 137.51 -0.678039 0.0119536 -0.734929
117.897 179.259 137.664 -0.678039 0.0119536 -0.734929
117.79 179.968 137.774 -0.678039 0.0119536 -0.734929
117.897 179.259 137.664 -0.355128 -0.0927841 -0.930202
118.078 180.105 137.51 -0.355128 -0.0927841 -0.930202
118.74 179.274 137.34 -0.355128 -0.0927841 -0.930202
118.74 179.274 137.34 -0.15176 0.0804479 -0.985138
118.078 180.105 137.51 -0.15176 0.0804479 -0.985138
118.784 180.171 137.407 -0.15176 0.0804479 -0.985138
119.638 179.144 137.067 -0.244005 0.27126 -0.931064
118.74 179.274 137.34 -0.244005 0.27126 -0.931064
119.501 180.195 137.409 -0.244005 0.27126 -0.931064
119.501 180.195 137.409 0.00101957 0.0738903 -0.997266
118.74 179.274 137.34 0.00101957 0.0738903 -0.997266
118.784 180.171 137.407 0.00101957 0.0738903 -0.997266
119.845 179.924 137.647 0.915446 0.052872 -0.398953
119.908 178.929 137.658 0.915446 0.052872 -0.398953
119.638 179.144 137.067 0.915446 0.052872 -0.398953
119.501 180.195 137.409 0.691373 0.303279 -0.655763
119.845 179.924 137.647 0.691373 0.303279 -0.655763
119.638 179.144 137.067 0.691373 0.303279 -0.655763
118.078 180.105 137.51 -0.717424 0.328081 -0.614545
117.79 179.968 137.774 -0.717424 0.328081 -0.614545
118.058 180.463 137.724 -0.717424 0.328081 -0.614545
118.058 180.463 137.724 -0.478699 0.476947 -0.737136
118.592 180.946 137.69 -0.478699 0.476947 -0.737136
118.742 180.838 137.523 -0.478699 0.476947 -0.737136
118.058 180.463 137.724 -0.465761 0.435587 -0.77028
118.742 180.838 137.523 -0.465761 0.435587 -0.77028
118.078 180.105 137.51 -0.465761 0.435587 -0.77028
118.078 180.105 137.51 -0.157675 0.160382 -0.97438
118.742 180.838 137.523 -0.157675 0.160382 -0.97438
118.784 180.171 137.407 -0.157675 0.160382 -0.97438
119.223 180.872 137.599 0.232673 0.350062 -0.90737
119.714 180.567 137.607 0.232673 0.350062 -0.90737
119.501 180.195 137.409 0.232673 0.350062 -0.90737
119.223 180.872 137.599 0.125661 0.315344 -0.940621
119.501 180.195 137.409 0.125661 0.315344 -0.940621
118.742 180.838 137.523 0.125661 0.315344 -0.940621
118.742 180.838 137.523 -0.00234865 0.172044 -0.985086
119.501 180.195 137.409 -0.00234865 0.172044 -0.985086
118.784 180.171 137.407 -0.00234865 0.172044 -0.985086
119.845 179.924 137.647 0.605889 0.0751001 -0.791997
119.501 180.195 137.409 0.605889 0.0751001 -0.791997
119.714 180.567 137.607 0.605889 0.0751001 -0.791997
118.742 180.838 137.523 0.14733 0.885427 -0.440809
118.592 180.946 137.69 0.14733 0.885427 -0.440809
118.948 180.931 137.78 0.14733 0.885427 -0.440809
119.223 180.872 137.599 -0.0153703 0.943335 -0.331485
118.742 180.838 137.523 -0.0153703 0.943335 -0.331485
118.948 180.931 137.78 -0.0153703 0.943335 -0.331485
118.958 177.145 137.806 -0.617395 -0.78482 0.0536742
119.043 177.123 138.473 -0.617395 -0.78482 0.0536742
118.6 177.471 138.452 -0.617395 -0.78482 0.0536742
118.681 177.413 137.583 -0.688766 -0.724803 -0.016176
118.958 177.145 137.806 -0.688766 -0.724803 -0.016176
118.6 177.471 138.452 -0.688766 -0.724803 -0.016176
119.384 177.165 137.677 0.366346 -0.909098 -0.198322
119.795 177.276 137.927 0.366346 -0.909098 -0.198322
119.612 177.122 138.297 0.366346 -0.909098 -0.198322
119.384 177.165 137.677 0.0226005 -0.996714 -0.0777864
119.612 177.122 138.297 0.0226005 -0.996714 -0.0777864
118.958 177.145 137.806 0.0226005 -0.996714 -0.0777864
118.958 177.145 137.806 -0.0123981 -0.999437 -0.0311842
119.612 177.122 138.297 -0.0123981 -0.999437 -0.0311842
119.043 177.123 138.473 -0.0123981 -0.999437 -0.0311842
119.612 177.122 138.297 0.750056 -0.654069 0.0980346
119.795 177.276 137.927 0.750056 -0.654069 0.0980346
119.858 177.423 138.431 0.750056 -0.654069 0.0980346
117.873 178.282 138.096 -0.724666 -0.672057 -0.15231
117.966 178.061 138.628 -0.724666 -0.672057 -0.15231
117.747 178.321 138.525 -0.724666 -0.672057 -0.15231
117.873 178.282 138.096 -0.696297 -0.69782 -0.167981
118.6 177.471 138.452 -0.696297 -0.69782 -0.167981
117.966 178.061 138.628 -0.696297 -0.69782 -0.167981
117.873 178.282 138.096 -0.613315 -0.705503 -0.355121
118.24 178.209 137.606 -0.613315 -0.705503 -0.355121
118.6 177.471 138.452 -0.613315 -0.705503 -0.355121
118.24 178.209 137.606 -0.874086 -0.483228 -0.0496406
118.681 177.413 137.583 -0.874086 -0.483228 -0.0496406
118.6 177.471 138.452 -0.874086 -0.483228 -0.0496406
119.384 177.165 137.677 0.484218 -0.739322 -0.467906
119.694 177.466 137.522 0.484218 -0.739322 -0.467906
119.795 177.276 137.927 0.484218 -0.739322 -0.467906
119.795 177.276 137.927 0.904758 -0.250344 -0.344587
119.694 177.466 137.522 0.904758 -0.250344 -0.344587
119.908 177.969 137.718 0.904758 -0.250344 -0.344587
119.795 177.276 137.927 0.981328 -0.179612 -0.068808
119.908 177.969 137.718 0.981328 -0.179612 -0.068808
119.858 177.423 138.431 0.981328 -0.179612 -0.068808
119.858 177.423 138.431 0.998055 -0.0562597 0.0268431
119.908 177.969 137.718 0.998055 -0.0562597 0.0268431
119.905 178.243 138.403 0.998055 -0.0562597 0.0268431
117.748 179.107 138.413 -0.95968 -0.0374765 -0.278584
117.873 178.282 138.096 -0.95968 -0.0374765 -0.278584
117.747 178.321 138.525 -0.95968 -0.0374765 -0.278584
118.24 178.209 137.606 -0.79491 -0.229109 -0.561807
117.873 178.282 138.096 -0.79491 -0.229109 -0.561807
117.897 179.259 137.664 -0.79491 -0.229109 -0.561807
119.908 177.969 137.718 0.999991 0.000101477 0.00430554
119.908 178.929 137.658 0.999991 0.000101477 0.00430554
119.905 178.243 138.403 0.999991 0.000101477 0.00430554
119.905 178.243 138.403 0.95132 0.224769 0.210877
119.908 178.929 137.658 0.95132 0.224769 0.210877
119.609 179.21 138.707 0.95132 0.224769 0.210877
117.897 179.259 137.664 -0.976038 -0.0675295 -0.206855
117.873 178.282 138.096 -0.976038 -0.0675295 -0.206855
117.748 179.107 138.413 -0.976038 -0.0675295 -0.206855
117.897 179.259 137.664 -0.970066 -0.113124 -0.214881
117.748 179.107 138.413 -0.970066 -0.113124 -0.214881
117.79 179.968 137.774 -0.970066 -0.113124 -0.214881
117.79 179.968 137.774 -0.944679 0.223415 0.24014
117.748 179.107 138.413 -0.944679 0.223415 0.24014
117.965 180.016 138.42 -0.944679 0.223415 0.24014
119.62 180.313 138.059 0.925454 0.184641 0.33082
119.609 179.21 138.707 0.925454 0.184641 0.33082
119.845 179.924 137.647 0.925454 0.184641 0.33082
119.845 179.924 137.647 0.964125 0.0634631 0.25775
119.609 179.21 138.707 0.964125 0.0634631 0.25775
119.908 178.929 137.658 0.964125 0.0634631 0.25775
118.058 180.463 137.724 -0.853273 0.48322 0.19602
117.79 179.968 137.774 -0.853273 0.48322 0.19602
117.965 180.016 138.42 -0.853273 0.48322 0.19602
118.592 180.946 137.69 -0.117999 0.791481 0.599695
118.646 180.508 138.279 -0.117999 0.791481 0.599695
118.948 180.931 137.78 -0.117999 0.791481 0.599695
118.592 180.946 137.69 -0.550223 0.645205 0.530062
118.058 180.463 137.724 -0.550223 0.645205 0.530062
118.646 180.508 138.279 -0.550223 0.645205 0.530062
118.058 180.463 137.724 -0.467695 0.770954 0.432308
117.965 180.016 138.42 -0.467695 0.770954 0.432308
118.646 180.508 138.279 -0.467695 0.770954 0.432308
119.228 180.219 138.431 0.166136 0.70027 0.694277
118.948 180.931 137.78 0.166136 0.70027 0.694277
118.646 180.508 138.279 0.166136 0.70027 0.694277
119.62 180.313 138.059 0.396246 0.699607 0.594592
118.948 180.931 137.78 0.396246 0.699607 0.594592
119.228 180.219 138.431 0.396246 0.699607 0.594592
119.62 180.313 138.059 0.475681 0.735442 0.482549
119.223 180.872 137.599 0.475681 0.735442 0.482549
118.948 180.931 137.78 0.475681 0.735442 0.482549
119.62 180.313 138.059 0.447825 0.736141 0.507494
119.714 180.567 137.607 0.447825 0.736141 0.507494
119.223 180.872 137.599 0.447825 0.736141 0.507494
119.845 179.924 137.647 0.927715 0.208201 0.309833
119.714 180.567 137.607 0.927715 0.208201 0.309833
119.62 180.313 138.059 0.927715 0.208201 0.309833
119.043 177.123 138.473 -0.573526 -0.706013 0.415468
119.04 177.356 138.865 -0.573526 -0.706013 0.415468
118.6 177.471 138.452 -0.573526 -0.706013 0.415468
119.043 177.123 138.473 0.0950801 -0.944586 0.314194
119.612 177.122 138.297 0.0950801 -0.944586 0.314194
119.615 177.252 138.687 0.0950801 -0.944586 0.314194
119.04 177.356 138.865 0.00225214 -0.859226 0.511591
119.043 177.123 138.473 0.00225214 -0.859226 0.511591
119.615 177.252 138.687 0.00225214 -0.859226 0.511591
119.612 177.122 138.297 0.706209 -0.672902 0.220164
119.858 177.423 138.431 0.706209 -0.672902 0.220164
119.615 177.252 138.687 0.706209 -0.672902 0.220164
117.966 178.061 138.628 -0.751237 -0.439859 0.492105
117.943 178.45 138.942 -0.751237 -0.439859 0.492105
117.747 178.321 138.525 -0.751237 -0.439859 0.492105
117.966 178.061 138.628 -0.559729 -0.539218 0.629243
118.573 178.15 139.245 -0.559729 -0.539218 0.629243
117.943 178.45 138.942 -0.559729 -0.539218 0.629243
118.6 177.471 138.452 -0.472998 -0.676959 0.563915
118.573 178.15 139.245 -0.472998 -0.676959 0.563915
117.966 178.061 138.628 -0.472998 -0.676959 0.563915
118.6 177.471 138.452 -0.491706 -0.669443 0.556841
118.91 177.909 139.253 -0.491706 -0.669443 0.556841
118.573 178.15 139.245 -0.491706 -0.669443 0.556841
118.6 177.471 138.452 -0.648539 -0.533386 0.543044
119.04 177.356 138.865 -0.648539 -0.533386 0.543044
118.91 177.909 139.253 -0.648539 -0.533386 0.543044
118.91 177.909 139.253 0.346808 -0.286765 0.893023
119.607 177.991 139.008 0.346808 -0.286765 0.893023
119.008 178.344 139.354 0.346808 -0.286765 0.893023
118.91 177.909 139.253 0.339389 -0.484945 0.806005
119.04 177.356 138.865 0.339389 -0.484945 0.806005
119.607 177.991 139.008 0.339389 -0.484945 0.806005
119.04 177.356 138.865 0.208146 -0.388221 0.897753
119.615 177.252 138.687 0.208146 -0.388221 0.897753
119.607 177.991 139.008 0.208146 -0.388221 0.897753
119.858 177.423 138.431 0.902934 -0.0367781 0.428203
119.905 178.243 138.403 0.902934 -0.0367781 0.428203
119.607 177.991 139.008 0.902934 -0.0367781 0.428203
119.615 177.252 138.687 0.779015 -0.243459 0.577809
119.858 177.423 138.431 0.779015 -0.243459 0.577809
119.607 177.991 139.008 0.779015 -0.243459 0.577809
117.943 178.45 138.942 -0.916796 0.0470031 0.396579
118.005 179.264 138.987 -0.916796 0.0470031 0.396579
117.748 179.107 138.413 -0.916796 0.0470031 0.396579
117.747 178.321 138.525 -0.909548 0.0608563 0.411118
117.943 178.45 138.942 -0.909548 0.0608563 0.411118
117.748 179.107 138.413 -0.909548 0.0608563 0.411118
118.693 178.976 139.272 -0.421416 0.0313532 0.906325
117.943 178.45 138.942 -0.421416 0.0313532 0.906325
118.573 178.15 139.245 -0.421416 0.0313532 0.906325
118.005 179.264 138.987 -0.390392 -0.0217189 0.920392
117.943 178.45 138.942 -0.390392 -0.0217189 0.920392
118.693 178.976 139.272 -0.390392 -0.0217189 0.920392
119.609 179.21 138.707 0.574579 0.195403 0.794781
119.008 178.344 139.354 0.574579 0.195403 0.794781
119.607 177.991 139.008 0.574579 0.195403 0.794781
118.693 178.976 139.272 0.435328 0.325453 0.839387
119.008 178.344 139.354 0.435328 0.325453 0.839387
119.609 179.21 138.707 0.435328 0.325453 0.839387
119.607 177.991 139.008 0.871324 0.116518 0.476673
119.905 178.243 138.403 0.871324 0.116518 0.476673
119.609 179.21 138.707 0.871324 0.116518 0.476673
117.748 179.107 138.413 -0.912273 0.214866 0.348699
118.005 179.264 138.987 -0.912273 0.214866 0.348699
117.965 180.016 138.42 -0.912273 0.214866 0.348699
118.693 178.976 139.272 -0.179344 0.442236 0.878785
118.734 179.899 138.816 -0.179344 0.442236 0.878785
118.005 179.264 138.987 -0.179344 0.442236 0.878785
118.734 179.899 138.816 -0.309676 0.561842 0.767095
117.965 180.016 138.42 -0.309676 0.561842 0.767095
118.005 179.264 138.987 -0.309676 0.561842 0.767095
119.609 179.21 138.707 0.40994 0.389565 0.824736
118.734 179.899 138.816 0.40994 0.389565 0.824736
118.693 178.976 139.272 0.40994 0.389565 0.824736
119.609 179.21 138.707 0.403118 0.379648 0.832685
119.228 180.219 138.431 0.403118 0.379648 0.832685
118.734 179.899 138.816 0.403118 0.379648 0.832685
119.609 179.21 138.707 0.573953 0.410249 0.708713
119.62 180.313 138.059 0.573953 0.410249 0.708713
119.228 180.219 138.431 0.573953 0.410249 0.708713
118.734 179.899 138.816 -0.287638 0.609812 0.738507
118.646 180.508 138.279 -0.287638 0.609812 0.738507
117.965 180.016 138.42 -0.287638 0.609812 0.738507
119.228 180.219 138.431 0.139297 0.666367 0.732497
118.646 180.508 138.279 0.139297 0.666367 0.732497
118.734 179.899 138.816 0.139297 0.666367 0.732497
118.91 177.909 139.253 -0.15818 -0.190522 0.968855
119.008 178.344 139.354 -0.15818 -0.190522 0.968855
118.573 178.15 139.245 -0.15818 -0.190522 0.968855
118.573 178.15 139.245 -0.244812 0.0035262 0.969564
119.008 178.344 139.354 -0.244812 0.0035262 0.969564
118.693 178.976 139.272 -0.244812 0.0035262 0.969564
3 0 1 2
3 3 4 5
3 6 7 8
3 9 10 11
3 12 13 14
3 15 16 17
3 18 19 20
3 21 22 23
3 24 25 26
3 27 28 29
3 30 31 32
3 33 34 35
3 36 37 38
3 39 40 41
3 42 43 44
3 45 46 47
3 48 49 50
3 51 52 53
3 54 55 56
3 57 58 59
3 60 61 62
3 63 64 65
3 66 67 68
3 69 70 71
3 72 73 74
3 75 76 77
3 78 79 80
3 81 82 83
3 84 85 86
3 87 88 89
3 90 91 92
3 93 94 95
3 96 97 98
3 99 100 101
3 102 103 104
3 105 106 107
3 108 109 110
3 111 112 113
3 114 115 116
3 117 118 119
3 120 121 122
3 123 124 125
3 126 127 128
3 129 130 131
3 132 133 134
3 135 136 137
3 138 139 140
3 141 142 143
3 144 145 146
3 147 148 149
3 150 151 152
3 153 154 155
3 156 157 158
3 159 160 161
3 162 163 164
3 165 166 167
3 168 169 170
3 171 172 173
3 174 175 176
3 177 178 179
3 180 181 182
3 183 184 185
3 186 187 188
3 189 190 191
3 192 193 194
3 195 196 197
3 198 199 200
3 201 202 203
3 204 205 206
3 207 208 209
3 210 211 212
3 213 214 215
3 216 217 218
3 219 220 221
3 222 223 224
3 225 226 227
3 228 229 230
3 231 232 233
3 234 235 236
3 237 238 239
3 240 241 242
3 243 244 245
3 246 247 248
3 249 250 251
3 252 253 254
3 255 256 257
3 258 259 260
3 261 262 263
3 264 265 266
3 267 268 269
3 270 271 272
3 273 274 275
3 276 277 278
3 279 280 281
