ply
format ascii 1.0
element vertex 534
property float x
property float y
property float z
property float nx
property float ny
property float nz
element face 178
property list uint uint vertex_indices
end_header
58.5675 137.629 152.042 -0.269112 -0.218395 -0.93802
58.3022 137.081 152.245 -0.269112 -0.218395 -0.93802
58.0462 137.676 152.18 -0.269112 -0.218395 -0.93802
58.5675 137.629 152.042 0.119583 -0.268831 -0.955735
59.2414 137.694 152.108 0.119583 -0.268831 -0.955735
59.062 137.105 152.251 0.119583 -0.268831 -0.955735
58.3022 137.081 152.245 0.0179693 -0.356004 -0.934312
58.5675 137.629 152.042 0.0179693 -0.356004 -0.934312
59.062 137.105 152.251 0.0179693 -0.356004 -0.934312
59.062 137.105 152.251 0.615857 -0.358002 -0.701822
59.2414 137.694 152.108 0.615857 -0.358002 -0.701822
59.4089 137.473 152.368 0.615857 -0.358002 -0.701822
58.2903 138.404 151.972 -0.267976 -0.181458 -0.946183
58.5675 137.629 152.042 -0.267976 -0.181458 -0.946183
58.0462 137.676 152.18 -0.267976 -0.181458 -0.946183
57.4084 138.437 152.441 -0.470654 -0.0937828 -0.87732
58.2903 138.404 151.972 -0.470654 -0.0937828 -0.87732
58.0462 137.676 152.18 -0.470654 -0.0937828 -0.87732
59.2414 137.694 152.108 0.0963753 0.0118511 -0.995275
58.5675 137.629 152.042 0.0963753 0.0118511 -0.995275
59.0612 138.459 152.099 0.0963753 0.0118511 -0.995275
59.0612 138.459 152.099 0.16547 -0.0299481 -0.98576
58.5675 137.629 152.042 0.16547 -0.0299481 -0.98576
58.2903 138.404 151.972 0.16547 -0.0299481 -0.98576
59.4682 138.361 152.402 0.827123 -0.0333097 -0.561034
59.4089 137.473 152.368 0.827123 -0.0333097 -0.561034
59.2414 137.694 152.108 0.827123 -0.0333097 -0.561034
59.0612 138.459 152.099 0.612726 0.135955 -0.778514
59.4682 138.361 152.402 0.612726 0.135955 -0.778514
59.2414 137.694 152.108 0.612726 0.135955 -0.778514
58.3547 139.395 152.409 -0.42193 0.388816 -0.819022
58.2903 138.404 151.972 -0.42193 0.388816 -0.819022
57.4084 138.437 152.441 -0.42193 0.388816 -0.819022
58.3547 139.395 152.409 0.123702 0.394165 -0.910677
59.2497 138.949 152.337 0.123702 0.394165 -0.910677
59.0612 138.459 152.099 0.123702 0.394165 -0.910677
58.3547 139.395 152.409 0.123215 0.393862 -0.910874
59.0612 138.459 152.099 0.123215 0.393862 -0.910874
58.2903 138.404 151.972 0.123215 0.393862 -0.910874
59.4682 138.361 152.402 0.613097 0.141396 -0.777251
59.0612 138.459 152.099 0.613097 0.141396 -0.777251
59.2497 138.949 152.337 0.613097 0.141396 -0.777251
57.3613 136.649 153.182 -0.281607 -0.788321 -0.547035
58.3771 136.643 152.667 -0.281607 -0.788321 -0.547035
58.2787 136.229 153.314 -0.281607 -0.788321 -0.547035
57.3906 136.254 153.548 -0.206128 -0.674419 -0.708992
57.3613 136.649 153.182 -0.206128 -0.674419 -0.708992
58.2787 136.229 153.314 -0.206128 -0.674419 -0.708992
58.3771 136.643 152.667 0.312086 -0.724934 -0.614062
59.2514 136.763 152.97 0.312086 -0.724934 -0.614062
59.0218 136.47 153.198 0.312086 -0.724934 -0.614062
58.2787 136.229 153.314 0.193578 -0.839552 -0.507621
58.3771 136.643 152.667 0.193578 -0.839552 -0.507621
59.0218 136.47 153.198 0.193578 -0.839552 -0.507621
56.8565 137.606 153.262 -0.657736 -0.28849 -0.695814
57.5237 137.372 152.729 -0.657736 -0.28849 -0.695814
57.3613 136.649 153.182 -0.657736 -0.28849 -0.695814
58.3022 137.081 152.245 -0.583638 -0.3322 -0.740952
57.5237 137.372 152.729 -0.583638 -0.3322 -0.740952
58.0462 137.676 152.18 -0.583638 -0.3322 -0.740952
58.3022 137.081 152.245 -0.567608 -0.618962 -0.54287
58.3771 136.643 152.667 -0.567608 -0.618962 -0.54287
57.5237 137.372 152.729 -0.567608 -0.618962 -0.54287
58.3771 136.643 152.667 -0.413141 -0.415312 -0.810451
57.3613 136.649 153.182 -0.413141 -0.415312 -0.810451
57.5237 137.372 152.729 -0.413141 -0.415312 -0.810451
59.062 137.105 152.251 0.0266048 -0.690466 -0.722875
58.3771 136.643 152.667 0.0266048 -0.690466 -0.722875
58.3022 137.081 152.245 0.0266048 -0.690466 -0.722875
59.2514 136.763 152.97 0.27799 -0.837006 -0.47132
58.3771 136.643 152.667 0.27799 -0.837006 -0.47132
59.062 137.105 152.251 0.27799 -0.837006 -0.47132
59.2514 136.763 152.97 0.718044 -0.535877 -0.444127
59.062 137.105 152.251 0.718044 -0.535877 -0.444127
59.4089 137.473 152.368 0.718044 -0.535877 -0.444127
59.2514 136.763 152.97 0.90897 -0.367874 -0.196068
59.4089 137.473 152.368 0.90897 -0.367874 -0.196068
59.5954 137.516 153.151 0.90897 -0.367874 -0.196068
57.4084 138.437 152.441 -0.657147 -0.261776 -0.706846
57.5237 137.372 152.729 -0.657147 -0.261776 -0.706846
56.8565 137.606 153.262 -0.657147 -0.261776 -0.706846
56.5855 138.717 153.141 -0.675029 -0.240607 -0.697456
57.4084 138.437 152.441 -0.675029 -0.240607 -0.697456
56.8565 137.606 153.262 -0.675029 -0.240607 -0.697456
57.5237 137.372 152.729 -0.619496 -0.266232 -0.738475
57.4084 138.437 152.441 -0.619496 -0.266232 -0.738475
58.0462 137.676 152.18 -0.619496 -0.266232 -0.738475
59.4089 137.473 152.368 0.971966 -0.0560149 -0.228352
59.4682 138.361 152.402 0.971966 -0.0560149 -0.228352
59.5954 137.516 153.151 0.971966 -0.0560149 -0.228352
59.5954 137.516 153.151 0.836072 -0.288006 -0.466943
59.4682 138.361 152.402 0.836072 -0.288006 -0.466943
59.9588 138.376 153.271 0.836072 -0.288006 -0.466943
57.1991 139.387 152.691 -0.634008 0.0629701 -0.770759
57.4084 138.437 152.441 -0.634008 0.0629701 -0.770759
56.5855 138.717 153.141 -0.634008 0.0629701 -0.770759
56.6717 139.5 153.155 -0.648095 0.0852729 -0.75677
57.1991 139.387 152.691 -0.648095 0.0852729 -0.75677
56.5855 138.717 153.141 -0.648095 0.0852729 -0.75677
57.4084 138.437 152.441 -0.233984 0.198664 -0.951727
57.1991 139.387 152.691 -0.233984 0.198664 -0.951727
58.3547 139.395 152.409 -0.233984 0.198664 -0.951727
59.2497 138.949 152.337 0.22351 0.574836 -0.787151
58.3547 139.395 152.409 0.22351 0.574836 -0.787151
59.2226 139.437 152.685 0.22351 0.574836 -0.787151
59.2497 138.949 152.337 0.812751 0.367933 -0.451731
59.2226 139.437 152.685 0.812751 0.367933 -0.451731
59.5712 139.21 153.128 0.812751 0.367933 -0.451731
59.2497 138.949 152.337 0.857714 0.26983 -0.437628
59.5712 139.21 153.128 0.857714 0.26983 -0.437628
59.4682 138.361 152.402 0.857714 0.26983 -0.437628
59.4682 138.361 152.402 0.827467 0.30332 -0.472541
59.5712 139.21 153.128 0.827467 0.30332 -0.472541
59.9588 138.376 153.271 0.827467 0.30332 -0.472541
57.1991 139.387 152.691 -0.488513 0.538595 -0.686492
56.6717 139.5 153.155 -0.488513 0.538595 -0.686492
57.2526 140.114 153.223 -0.488513 0.538595 -0.686492
58.3547 139.395 152.409 -0.195818 0.588667 -0.7843
57.1991 139.387 152.691 -0.195818 0.588667 -0.7843
57.2526 140.114 153.223 -0.195818 0.588667 -0.7843
58.3547 139.395 152.409 -0.0507041 0.713818 -0.698493
57.2526 140.114 153.223 -0.0507041 0.713818 -0.698493
58.4057 140.283 153.312 -0.0507041 0.713818 -0.698493
59.2226 139.437 152.685 0.089894 0.903967 -0.418045
58.3547 139.395 152.409 0.089894 0.903967 -0.418045
59.2143 139.689 153.229 0.089894 0.903967 -0.418045
59.2143 139.689 153.229 0.403694 0.641111 -0.652693
58.3547 139.395 152.409 0.403694 0.641111 -0.652693
58.4057 140.283 153.312 0.403694 0.641111 -0.652693
59.5712 139.21 153.128 0.742949 0.611459 -0.272295
59.2226 139.437 152.685 0.742949 0.611459 -0.272295
59.2143 139.689 153.229 0.742949 0.611459 -0.272295
57.3906 136.254 153.548 -0.619466 -0.733926 -0.278593
57.2915 136.022 154.379 -0.619466 -0.733926 -0.278593
56.5253 136.742 154.187 -0.619466 -0.733926 -0.278593
57.3613 136.649 153.182 -0.676495 -0.527756 -0.513642
57.3906 136.254 153.548 -0.676495 -0.527756 -0.513642
56.5253 136.742 154.187 -0.676495 -0.527756 -0.513642
58.2787 136.229 153.314 -0.100865 -0.954748 -0.27979
58.1568 136.018 154.078 -0.100865 -0.954748 -0.27979
57.3906 136.254 153.548 -0.100865 -0.954748 -0.27979
57.3906 136.254 153.548 -0.101838 -0.955021 -0.278503
58.1568 136.018 154.078 -0.101838 -0.955021 -0.278503
57.2915 136.022 154.379 -0.101838 -0.955021 -0.278503
59.0218 136.47 153.198 0.323525 -0.93854 0.120311
59.1588 136.638 154.141 0.323525 -0.93854 0.120311
58.2787 136.229 153.314 0.323525 -0.93854 0.120311
58.2787 136.229 153.314 0.527254 -0.836907 -0.146933
59.1588 136.638 154.141 0.527254 -0.836907 -0.146933
58.1568 136.018 154.078 0.527254 -0.836907 -0.146933
59.1588 136.638 154.141 0.785342 -0.61905 -0.00376824
59.0218 136.47 153.198 0.785342 -0.61905 -0.00376824
59.2514 136.763 152.97 0.785342 -0.61905 -0.00376824
56.2659 137.532 153.94 -0.761109 -0.407464 -0.504664
56.5253 136.742 154.187 -0.761109 -0.407464 -0.504664
56.0166 137.643 154.226 -0.761109 -0.407464 -0.504664
56.2659 137.532 153.94 -0.664101 -0.412641 -0.623456
56.8565 137.606 153.262 -0.664101 -0.412641 -0.623456
56.5253 136.742 154.187 -0.664101 -0.412641 -0.623456
56.8565 137.606 153.262 -0.738192 -0.340357 -0.582434
57.3613 136.649 153.182 -0.738192 -0.340357 -0.582434
56.5253 136.742 154.187 -0.738192 -0.340357 -0.582434
59.2514 136.763 152.97 0.906842 -0.420607 0.0269645
59.5954 137.516 153.151 0.906842 -0.420607 0.0269645
59.1588 136.638 154.141 0.906842 -0.420607 0.0269645
59.1588 136.638 154.141 0.787639 -0.590396 -0.176231
59.5954 137.516 153.151 0.787639 -0.590396 -0.176231
59.8887 137.643 154.038 0.787639 -0.590396 -0.176231
56.2179 138.339 153.791 -0.774111 -0.159102 -0.61273
56.2659 137.532 153.94 -0.774111 -0.159102 -0.61273
56.0166 137.643 154.226 -0.774111 -0.159102 -0.61273
56.0059 138.518 154.318 -0.923854 0.0286612 -0.38167
56.2179 138.339 153.791 -0.923854 0.0286612 -0.38167
56.0166 137.643 154.226 -0.923854 0.0286612 -0.38167
56.8565 137.606 153.262 -0.772424 -0.251928 -0.583003
56.2179 138.339 153.791 -0.772424 -0.251928 -0.583003
56.5855 138.717 153.141 -0.772424 -0.251928 -0.583003
56.2659 137.532 153.94 -0.734848 -0.16509 -0.657833
56.2179 138.339 153.791 -0.734848 -0.16509 -0.657833
56.8565 137.606 153.262 -0.734848 -0.16509 -0.657833
59.5954 137.516 153.151 0.904004 -0.34718 -0.249486
59.9588 138.376 153.271 0.904004 -0.34718 -0.249486
59.8887 137.643 154.038 0.904004 -0.34718 -0.249486
59.8887 137.643 154.038 0.991879 -0.124068 -0.0279885
59.9588 138.376 153.271 0.991879 -0.124068 -0.0279885
60.0023 138.525 154.149 0.991879 -0.124068 -0.0279885
56.2923 139.387 153.758 -0.920003 0.0528176 -0.388335
56.2179 138.339 153.791 -0.920003 0.0528176 -0.388335
56.0059 138.518 154.318 -0.920003 0.0528176 -0.388335
56.0865 139.423 154.467 -0.950351 0.131252 -0.282146
56.2923 139.387 153.758 -0.950351 0.131252 -0.282146
56.0059 138.518 154.318 -0.950351 0.131252 -0.282146
56.5855 138.717 153.141 -0.850116 0.103088 -0.516407
56.2923 139.387 153.758 -0.850116 0.103088 -0.516407
56.6717 139.5 153.155 -0.850116 0.103088 -0.516407
56.2179 138.339 153.791 -0.881088 0.0474053 -0.470571
56.2923 139.387 153.758 -0.881088 0.0474053 -0.470571
56.5855 138.717 153.141 -0.881088 0.0474053 -0.470571
59.9588 138.376 153.271 0.908351 0.402515 -0.113493
59.5712 139.21 153.128 0.908351 0.402515 -0.113493
60.0023 138.525 154.149 0.908351 0.402515 -0.113493
60.0023 138.525 154.149 0.937489 0.278054 -0.209287
59.5712 139.21 153.128 0.937489 0.278054 -0.209287
59.74 139.416 154.158 0.937489 0.278054 -0.209287
56.2923 139.387 153.758 -0.912669 0.298011 -0.279687
56.0865 139.423 154.467 -0.912669 0.298011 -0.279687
56.4047 140.057 154.105 -0.912669 0.298011 -0.279687
57.1369 140.557 153.69 -0.659979 0.636471 -0.399165
56.4047 140.057 154.105 -0.659979 0.636471 -0.399165
56.6843 140.536 154.406 -0.659979 0.636471 -0.399165
57.2526 140.114 153.223 -0.653965 0.461126 -0.599744
56.4047 140.057 154.105 -0.653965 0.461126 -0.599744
57.1369 140.557 153.69 -0.653965 0.461126 -0.599744
57.2526 140.114 153.223 -0.664605 0.428569 -0.61207
56.2923 139.387 153.758 -0.664605 0.428569 -0.61207
56.4047 140.057 154.105 -0.664605 0.428569 -0.61207
57.2526 140.114 153.223 -0.675997 0.673177 -0.299768
56.6717 139.5 153.155 -0.675997 0.673177 -0.299768
56.2923 139.387 153.758 -0.675997 0.673177 -0.299768
57.2526 140.114 153.223 -0.0344398 0.639269 -0.768212
57.9897 140.605 153.599 -0.0344398 0.639269 -0.768212
58.4057 140.283 153.312 -0.0344398 0.639269 -0.768212
57.1369 140.557 153.69 -0.114591 0.706308 -0.698568
57.9897 140.605 153.599 -0.114591 0.706308 -0.698568
57.2526 140.114 153.223 -0.114591 0.706308 -0.698568
58.5567 140.538 154.089 0.406999 0.841472 -0.355354
58.4057 140.283 153.312 0.406999 0.841472 -0.355354
57.9897 140.605 153.599 0.406999 0.841472 -0.355354
58.5567 140.538 154.089 0.669266 0.657558 -0.345977
59.102 140.104 154.32 0.669266 0.657558 -0.345977
58.4057 140.283 153.312 0.669266 0.657558 -0.345977
59.102 140.104 154.32 0.557501 0.793283 -0.244734
59.2143 139.689 153.229 0.557501 0.793283 -0.244734
58.4057 140.283 153.312 0.557501 0.793283 -0.244734
59.74 139.416 154.158 0.751514 0.612259 -0.245696
59.5712 139.21 153.128 0.751514 0.612259 -0.245696
59.2143 139.689 153.229 0.751514 0.612259 -0.245696
59.102 140.104 154.32 0.696742 0.691269 -0.191568
59.74 139.416 154.158 0.696742 0.691269 -0.191568
59.2143 139.689 153.229 0.696742 0.691269 -0.191568
57.1369 140.557 153.69 -0.554894 0.764053 -0.329114
56.6843 140.536 154.406 -0.554894 0.764053 -0.329114
57.3592 140.918 154.154 -0.554894 0.764053 -0.329114
57.9897 140.605 153.599 -0.107539 0.808751 -0.578236
57.1369 140.557 153.69 -0.107539 0.808751 -0.578236
57.3592 140.918 154.154 -0.107539 0.808751 -0.578236
58.0833 140.692 154.359 0.332469 0.931489 -0.147627
57.9897 140.605 153.599 0.332469 0.931489 -0.147627
57.3592 140.918 154.154 0.332469 0.931489 -0.147627
58.5567 140.538 154.089 0.234544 0.962107 -0.139065
57.9897 140.605 153.599 0.234544 0.962107 -0.139065
58.0833 140.692 154.359 0.234544 0.962107 -0.139065
57.2915 136.022 154.379 -0.381634 -0.910388 0.159841
57.3739 136.13 155.187 -0.381634 -0.910388 0.159841
56.6638 136.404 155.051 -0.381634 -0.910388 0.159841
56.5253 136.742 154.187 -0.647612 -0.739018 -0.18561
57.2915 136.022 154.379 -0.647612 -0.739018 -0.18561
56.6638 136.404 155.051 -0.647612 -0.739018 -0.18561
58.1568 136.018 154.078 0.0525451 -0.984878 0.16509
58.2178 136.163 154.925 0.0525451 -0.984878 0.16509
57.2915 136.022 154.379 0.0525451 -0.984878 0.16509
57.2915 136.022 154.379 0.0777635 -0.989299 0.123451
58.2178 136.163 154.925 0.0777635 -0.989299 0.123451
57.3739 136.13 155.187 0.0777635 -0.989299 0.123451
59.1588 136.638 154.141 0.518488 -0.84817 0.108526
58.7593 136.515 155.087 0.518488 -0.84817 0.108526
58.2178 136.163 154.925 0.518488 -0.84817 0.108526
59.1588 136.638 154.141 0.51826 -0.848359 0.108139
58.2178 136.163 154.925 0.51826 -0.848359 0.108139
58.1568 136.018 154.078 0.51826 -0.848359 0.108139
56.5253 136.742 154.187 -0.860022 -0.508738 -0.0393511
56.3862 136.884 155.389 -0.860022 -0.508738 -0.0393511
55.9918 137.581 154.999 -0.860022 -0.508738 -0.0393511
56.0166 137.643 154.226 -0.870097 -0.488293 -0.0670916
56.5253 136.742 154.187 -0.870097 -0.488293 -0.0670916
55.9918 137.581 154.999 -0.870097 -0.488293 -0.0670916
56.3862 136.884 155.389 -0.878587 -0.475416 -0.0454437
56.5253 136.742 154.187 -0.878587 -0.475416 -0.0454437
56.6638 136.404 155.051 -0.878587 -0.475416 -0.0454437
59.1588 136.638 154.141 0.791702 -0.551656 0.262456
59.0218 136.954 155.218 0.791702 -0.551656 0.262456
58.7593 136.515 155.087 0.791702 -0.551656 0.262456
59.0218 136.954 155.218 0.898082 -0.377913 0.225011
59.1588 136.638 154.141 0.898082 -0.377913 0.225011
59.333 137.628 155.107 0.898082 -0.377913 0.225011
59.333 137.628 155.107 0.763647 -0.5149 0.389514
59.1588 136.638 154.141 0.763647 -0.5149 0.389514
59.8887 137.643 154.038 0.763647 -0.5149 0.389514
56.0166 137.643 154.226 -0.999425 -0.00874021 -0.0327752
55.9918 137.581 154.999 -0.999425 -0.00874021 -0.0327752
56.0059 138.518 154.318 -0.999425 -0.00874021 -0.0327752
55.9918 137.581 154.999 -0.998516 -0.0213476 -0.0500989
55.9609 138.548 155.201 -0.998516 -0.0213476 -0.0500989
56.0059 138.518 154.318 -0.998516 -0.0213476 -0.0500989
59.8887 137.643 154.038 0.875416 -0.169863 0.452541
60.0023 138.525 154.149 0.875416 -0.169863 0.452541
59.333 137.628 155.107 0.875416 -0.169863 0.452541
59.333 137.628 155.107 0.871301 -0.151666 0.466724
60.0023 138.525 154.149 0.871301 -0.151666 0.466724
59.5551 138.723 155.048 0.871301 -0.151666 0.466724
56.0059 138.518 154.318 -0.993786 0.0974023 -0.0538727
55.9609 138.548 155.201 -0.993786 0.0974023 -0.0538727
56.0865 139.423 154.467 -0.993786 0.0974023 -0.0538727
55.9609 138.548 155.201 -0.993037 0.112091 -0.0362304
56.0452 139.342 155.347 -0.993037 0.112091 -0.0362304
56.0865 139.423 154.467 -0.993037 0.112091 -0.0362304
60.0023 138.525 154.149 0.886633 0.257077 0.384439
59.74 139.416 154.158 0.886633 0.257077 0.384439
59.5551 138.723 155.048 0.886633 0.257077 0.384439
59.5551 138.723 155.048 0.935787 0.1562 0.316077
59.74 139.416 154.158 0.935787 0.1562 0.316077
59.433 139.513 155.02 0.935787 0.1562 0.316077
56.0865 139.423 154.467 -0.895215 0.445634 -0.000772567
56.0452 139.342 155.347 -0.895215 0.445634 -0.000772567
56.3366 139.927 155.162 -0.895215 0.445634 -0.000772567
56.4047 140.057 154.105 -0.894318 0.447425 -0.00239424
56.0865 139.423 154.467 -0.894318 0.447425 -0.00239424
56.3366 139.927 155.162 -0.894318 0.447425 -0.00239424
56.3366 139.927 155.162 -0.865262 0.501282 0.00612798
56.6843 140.536 154.406 -0.865262 0.501282 0.00612798
56.4047 140.057 154.105 -0.865262 0.501282 0.00612798
56.8718 140.452 155.204 -0.690349 0.684465 0.234361
56.6843 140.536 154.406 -0.690349 0.684465 0.234361
56.3366 139.927 155.162 -0.690349 0.684465 0.234361
58.4062 140.541 154.804 0.427268 0.766849 0.478942
57.9969 140.602 155.072 0.427268 0.766849 0.478942
58.2507 140.334 155.274 0.427268 0.766849 0.478942
58.4062 140.541 154.804 0.586208 0.801323 0.119341
59.102 140.104 154.32 0.586208 0.801323 0.119341
58.5567 140.538 154.089 0.586208 0.801323 0.119341
58.4062 140.541 154.804 0.680344 0.560715 0.471944
58.2507 140.334 155.274 0.680344 0.560715 0.471944
59.102 140.104 154.32 0.680344 0.560715 0.471944
58.2507 140.334 155.274 0.580583 0.739978 0.339642
59.0022 139.707 155.356 0.580583 0.739978 0.339642
59.102 140.104 154.32 0.580583 0.739978 0.339642
59.433 139.513 155.02 0.741628 0.64258 0.192562
59.74 139.416 154.158 0.741628 0.64258 0.192562
59.102 140.104 154.32 0.741628 0.64258 0.192562
59.0022 139.707 155.356 0.593356 0.73083 0.337365
59.433 139.513 155.02 0.593356 0.73083 0.337365
59.102 140.104 154.32 0.593356 0.73083 0.337365
56.6843 140.536 154.406 -0.348154 0.920215 0.178864
56.8718 140.452 155.204 -0.348154 0.920215 0.178864
57.3128 140.673 154.927 -0.348154 0.920215 0.178864
57.3592 140.918 154.154 -0.402202 0.879398 0.25474
56.6843 140.536 154.406 -0.402202 0.879398 0.25474
57.3128 140.673 154.927 -0.402202 0.879398 0.25474
57.9969 140.602 155.072 0.240296 0.958973 0.150427
58.4062 140.541 154.804 0.240296 0.958973 0.150427
58.0833 140.692 154.359 0.240296 0.958973 0.150427
57.9969 140.602 155.072 0.0744796 0.988172 0.134052
58.0833 140.692 154.359 0.0744796 0.988172 0.134052
57.3128 140.673 154.927 0.0744796 0.988172 0.134052
57.3128 140.673 154.927 0.20357 0.929675 0.307025
58.0833 140.692 154.359 0.20357 0.929675 0.307025
57.3592 140.918 154.154 0.20357 0.929675 0.307025
58.5567 140.538 154.089 0.343985 0.936533 0.0676708
58.0833 140.692 154.359 0.343985 0.936533 0.0676708
58.4062 140.541 154.804 0.343985 0.936533 0.0676708
57.3739 136.13 155.187 -0.395082 -0.8043 0.443859
57.1478 136.503 155.663 -0.395082 -0.8043 0.443859
56.6638 136.404 155.051 -0.395082 -0.8043 0.443859
57.3739 136.13 155.187 0.188167 -0.847096 0.497013
58.2178 136.163 154.925 0.188167 -0.847096 0.497013
58.1401 136.539 155.594 0.188167 -0.847096 0.497013
57.1478 136.503 155.663 0.0714555 -0.767608 0.636924
57.3739 136.13 155.187 0.0714555 -0.767608 0.636924
58.1401 136.539 155.594 0.0714555 -0.767608 0.636924
58.2178 136.163 154.925 0.368757 -0.791768 0.486951
58.7593 136.515 155.087 0.368757 -0.791768 0.486951
58.1401 136.539 155.594 0.368757 -0.791768 0.486951
56.3862 136.884 155.389 -0.857667 -0.350462 0.376276
56.506 137.32 156.067 -0.857667 -0.350462 0.376276
56.2868 137.738 155.957 -0.857667 -0.350462 0.376276
55.9918 137.581 154.999 -0.889242 -0.320746 0.326146
56.3862 136.884 155.389 -0.889242 -0.320746 0.326146
56.2868 137.738 155.957 -0.889242 -0.320746 0.326146
57.1478 136.503 155.663 -0.524448 -0.670736 0.524469
56.3862 136.884 155.389 -0.524448 -0.670736 0.524469
56.6638 136.404 155.051 -0.524448 -0.670736 0.524469
57.1478 136.503 155.663 -0.486999 -0.423813 0.763685
57.3343 136.965 156.038 -0.486999 -0.423813 0.763685
56.3862 136.884 155.389 -0.486999 -0.423813 0.763685
57.3343 136.965 156.038 -0.312048 -0.773626 0.551478
56.506 137.32 156.067 -0.312048 -0.773626 0.551478
56.3862 136.884 155.389 -0.312048 -0.773626 0.551478
58.1401 136.539 155.594 0.0755922 -0.647095 0.758652
57.3343 136.965 156.038 0.0755922 -0.647095 0.758652
57.1478 136.503 155.663 0.0755922 -0.647095 0.758652
58.4059 137.107 155.879 0.192293 -0.509659 0.838613
57.3343 136.965 156.038 0.192293 -0.509659 0.838613
58.1401 136.539 155.594 0.192293 -0.509659 0.838613
59.333 137.628 155.107 0.673084 -0.115593 0.730476
58.3191 137.779 156.065 0.673084 -0.115593 0.730476
58.4059 137.107 155.879 0.673084 -0.115593 0.730476
59.0218 136.954 155.218 0.691703 -0.205329 0.692378
59.333 137.628 155.107 0.691703 -0.205329 0.692378
58.4059 137.107 155.879 0.691703 -0.205329 0.692378
59.0218 136.954 155.218 0.534386 -0.564596 0.629018
58.4059 137.107 155.879 0.534386 -0.564596 0.629018
58.1401 136.539 155.594 0.534386 -0.564596 0.629018
59.0218 136.954 155.218 0.530331 -0.517623 0.671428
58.1401 136.539 155.594 0.530331 -0.517623 0.671428
58.7593 136.515 155.087 0.530331 -0.517623 0.671428
55.9918 137.581 154.999 -0.947036 -0.0945651 0.306889
56.2868 137.738 155.957 -0.947036 -0.0945651 0.306889
55.9609 138.548 155.201 -0.947036 -0.0945651 0.306889
56.2868 137.738 155.957 -0.927131 -0.0239222 0.373972
56.2903 138.755 156.031 -0.927131 -0.0239222 0.373972
55.9609 138.548 155.201 -0.927131 -0.0239222 0.373972
59.1589 138.441 155.534 0.647319 -0.241216 0.723044
58.3191 137.779 156.065 0.647319 -0.241216 0.723044
59.333 137.628 155.107 0.647319 -0.241216 0.723044
58.6353 138.64 156.028 0.631262 -0.199695 0.74942
58.3191 137.779 156.065 0.631262 -0.199695 0.74942
59.1589 138.441 155.534 0.631262 -0.199695 0.74942
59.333 137.628 155.107 0.80436 -0.132074 0.579277
59.5551 138.723 155.048 0.80436 -0.132074 0.579277
59.1589 138.441 155.534 0.80436 -0.132074 0.579277
56.1944 139.112 155.958 -0.904676 0.276007 0.324626
56.2031 139.516 155.64 -0.904676 0.276007 0.324626
56.0452 139.342 155.347 -0.904676 0.276007 0.324626
56.1944 139.112 155.958 -0.96216 -0.228211 0.148886
56.0452 139.342 155.347 -0.96216 -0.228211 0.148886
56.2903 138.755 156.031 -0.96216 -0.228211 0.148886
56.2903 138.755 156.031 -0.931729 0.032581 0.361689
56.0452 139.342 155.347 -0.931729 0.032581 0.361689
55.9609 138.548 155.201 -0.931729 0.032581 0.361689
56.1944 139.112 155.958 -0.554727 0.523107 0.647021
56.6166 139.493 156.013 -0.554727 0.523107 0.647021
56.2031 139.516 155.64 -0.554727 0.523107 0.647021
59.1705 139.242 155.644 0.659148 -0.111935 0.743636
58.6353 138.64 156.028 0.659148 -0.111935 0.743636
59.1589 138.441 155.534 0.659148 -0.111935 0.743636
58.1918 139.112 156.167 0.447794 0.162113 0.879318
58.6353 138.64 156.028 0.447794 0.162113 0.879318
59.1705 139.242 155.644 0.447794 0.162113 0.879318
59.5551 138.723 155.048 0.885792 0.152929 0.43816
59.433 139.513 155.02 0.885792 0.152929 0.43816
59.1705 139.242 155.644 0.885792 0.152929 0.43816
59.1589 138.441 155.534 0.797495 -0.0936344 0.596015
59.5551 138.723 155.048 0.797495 -0.0936344 0.596015
59.1705 139.242 155.644 0.797495 -0.0936344 0.596015
56.0452 139.342 155.347 -0.85764 0.483078 0.176319
56.2031 139.516 155.64 -0.85764 0.483078 0.176319
56.3366 139.927 155.162 -0.85764 0.483078 0.176319
56.8718 140.452 155.204 -0.324554 0.688427 0.648639
57.233 139.994 155.871 -0.324554 0.688427 0.648639
57.409 140.511 155.41 -0.324554 0.688427 0.648639
56.3366 139.927 155.162 -0.555779 0.513537 0.65375
57.233 139.994 155.871 -0.555779 0.513537 0.65375
56.8718 140.452 155.204 -0.555779 0.513537 0.65375
56.3366 139.927 155.162 -0.464498 0.717504 0.519067
56.6166 139.493 156.013 -0.464498 0.717504 0.519067
57.233 139.994 155.871 -0.464498 0.717504 0.519067
56.3366 139.927 155.162 -0.426805 0.740877 0.518593
56.2031 139.516 155.64 -0.426805 0.740877 0.518593
56.6166 139.493 156.013 -0.426805 0.740877 0.518593
57.409 140.511 155.41 0.255945 0.725082 0.639334
58.2507 140.334 155.274 0.255945 0.725082 0.639334
57.9969 140.602 155.072 0.255945 0.725082 0.639334
57.409 140.511 155.41 0.248912 0.595681 0.76368
57.233 139.994 155.871 0.248912 0.595681 0.76368
58.2507 140.334 155.274 0.248912 0.595681 0.76368
57.233 139.994 155.871 0.15217 0.724552 0.672211
58.1234 139.709 155.977 0.15217 0.724552 0.672211
58.2507 140.334 155.274 0.15217 0.724552 0.672211
58.1918 139.112 156.167 0.321891 0.580572 0.747879
59.1705 139.242 155.644 0.321891 0.580572 0.747879
59.0022 139.707 155.356 0.321891 0.580572 0.747879
58.1918 139.112 156.167 0.548742 0.310198 0.776311
59.0022 139.707 155.356 0.548742 0.310198 0.776311
58.1234 139.709 155.977 0.548742 0.310198 0.776311
58.1234 139.709 155.977 0.451399 0.624488 0.637381
59.0022 139.707 155.356 0.451399 0.624488 0.637381
58.2507 140.334 155.274 0.451399 0.624488 0.637381
59.433 139.513 155.02 0.652964 0.555823 0.514488
59.0022 139.707 155.356 0.652964 0.555823 0.514488
59.1705 139.242 155.644 0.652964 0.555823 0.514488
56.8718 140.452 155.204 -0.233978 0.906992 0.350171
57.409 140.511 155.41 -0.233978 0.906992 0.350171
57.3128 140.673 154.927 -0.233978 0.906992 0.350171
57.9969 140.602 155.072 0.0328435 0.949729 0.311346
57.3128 140.673 154.927 0.0328435 0.949729 0.311346
57.409 140.511 155.41 0.0328435 0.949729 0.311346
56.506 137.32 156.067 -0.0832971 -0.27383 0.958164
57.3343 136.965 156.038 -0.0832971 -0.27383 0.958164
57.2313 137.751 156.254 -0.0832971 -0.27383 0.958164
56.2868 137.738 155.957 -0.299142 0.0928296 0.949683
56.506 137.32 156.067 -0.299142 0.0928296 0.949683
57.2313 137.751 156.254 -0.299142 0.0928296 0.949683
57.3343 136.965 156.038 0.173901 -0.242275 0.954495
58.4059 137.107 155.879 0.173901 -0.242275 0.954495
58.3191 137.779 156.065 0.173901 -0.242275 0.954495
57.2313 137.751 156.254 0.171764 -0.239723 0.955526
57.3343 136.965 156.038 0.171764 -0.239723 0.955526
58.3191 137.779 156.065 0.171764 -0.239723 0.955526
57.2313 137.751 156.254 -0.297223 -0.0825996 0.951229
57.0809 138.545 156.276 -0.297223 -0.0825996 0.951229
56.2868 137.738 155.957 -0.297223 -0.0825996 0.951229
57.0809 138.545 156.276 -0.311051 -0.0677006 0.947979
56.2903 138.755 156.031 -0.311051 -0.0677006 0.947979
56.2868 137.738 155.957 -0.311051 -0.0677006 0.947979
58.3191 137.779 156.065 0.172004 -0.0586831 0.983347
58.1918 139.112 156.167 0.172004 -0.0586831 0.983347
57.2313 137.751 156.254 0.172004 -0.0586831 0.983347
58.1918 139.112 156.167 0.10152 -0.00820516 0.9948
57.0809 138.545 156.276 0.10152 -0.00820516 0.9948
57.2313 137.751 156.254 0.10152 -0.00820516 0.9948
58.3191 137.779 156.065 0.249297 -0.0500634 0.967132
58.6353 138.64 156.028 0.249297 -0.0500634 0.967132
58.1918 139.112 156.167 0.249297 -0.0500634 0.967132
56.6166 139.493 156.013 -0.241949 0.131409 0.961349
56.1944 139.112 155.958 -0.241949 0.131409 0.961349
56.2903 138.755 156.031 -0.241949 0.131409 0.961349
56.6166 139.493 156.013 -0.26888 0.143102 0.952484
56.2903 138.755 156.031 -0.26888 0.143102 0.952484
57.2422 139.392 156.204 -0.26888 0.143102 0.952484
57.2422 139.392 156.204 -0.260998 0.130234 0.956514
56.2903 138.755 156.031 -0.260998 0.130234 0.956514
57.0809 138.545 156.276 -0.260998 0.130234 0.956514
58.1918 139.112 156.167 0.0604464 0.0723615 0.995545
57.2422 139.392 156.204 0.0604464 0.0723615 0.995545
57.0809 138.545 156.276 0.0604464 0.0723615 0.995545
56.6166 139.493 156.013 -0.187718 0.47376 0.860415
57.2422 139.392 156.204 -0.187718 0.47376 0.860415
57.233 139.994 155.871 -0.187718 0.47376 0.860415
58.1234 139.709 155.977 0.0513499 0.484544 0.873258
57.233 139.994 155.871 0.0513499 0.484544 0.873258
57.2422 139.392 156.204 0.0513499 0.484544 0.873258
58.1918 139.112 156.167 0.129751 0.314421 0.940375
58.1234 139.709 155.977 0.129751 0.314421 0.940375
57.2422 139.392 156.204 0.129751 0.314421 0.940375
3 0 1 2
3 3 4 5
3 6 7 8
3 9 10 11
3 12 13 14
3 15 16 17
3 18 19 20
3 21 22 23
3 24 25 26
3 27 28 29
3 30 31 32
3 33 34 35
3 36 37 38
3 39 40 41
3 42 43 44
3 45 46 47
3 48 49 50
3 51 52 53
3 54 55 56
3 57 58 59
3 60 61 62
3 63 64 65
3 66 67 68
3 69 70 71
3 72 73 74
3 75 76 77
3 78 79 80
3 81 82 83
3 84 85 86
3 87 88 89
3 90 91 92
3 93 94 95
3 96 97 98
3 99 100 101
3 102 103 104
3 105 106 107
3 108 109 110
3 111 112 113
3 114 115 116
3 117 118 119
3 120 121 122
3 123 124 125
3 126 127 128
3 129 130 131
3 132 133 134
3 135 136 137
3 138 139 140
3 141 142 143
3 144 145 146
3 147 148 149
3 150 151 152
3 153 154 155
3 156 157 158
3 159 160 161
3 162 163 164
3 165 166 167
3 168 169 170
3 171 172 173
3 174 175 176
3 177 178 179
3 180 181 182
3 183 184 185
3 186 187 188
3 189 190 191
3 192 193 194
3 195 196 197
3 198 199 200
3 201 202 203
3 204 205 206
3 207 208 209
3 210 211 212
3 213 214 215
3 216 217 218
3 219 220 221
3 222 223 224
3 225 226 227
3 228 229 230
3 231 232 233
3 234 235 236
3 237 238 239
3 240 241 242
3 243 244 245
3 246 247 248
3 249 250 251
3 252 253 254
3 255 256 257
3 258 259 260
3 261 262 263
3 264 265 266
3 267 268 269
3 270 271 272
3 273 274 275
3 276 277 278
3 279 280 281
3 282 283 284
3 285 286 287
3 288 289 290
3 291 292 293
3 294 295 296
3 297 298 299
3 300 301 302
3 303 304 305
3 306 307 308
3 309 310 311
3 312 313 314
3 315 316 317
3 318 319 320
3 321 322 323
3 324 325 326
3 327 328 329
3 330 331 332
3 333 334 335
3 336 337 338
3 339 340 341
3 342 343 344
3 345 346 347
3 348 349 350
3 351 352 353
3 354 355 356
3 357 358 359
3 360 361 362
3 363 364 365
3 366 367 368
3 369 370 371
3 372 373 374
3 375 376 377
3 378 379 380
3 381 382 383
3 384 385 386
3 387 388 389
3 390 391 392
3 393 394 395
3 396 397 398
3 399 400 401
3 402 403 404
3 405 406 407
3 408 409 410
3 411 412 413
3 414 415 416
3 417 418 419
3 420 421 422
3 423 424 425
3 426 427 428
3 429 430 431
3 432 433 434
3 435 436 437
3 438 439 440
3 441 442 443
3 444 445 446
3 447 448 449
3 450 451 452
3 453 454 455
3 456 457 458
3 459 460 461
3 462 463 464
3 465 466 467
3 468 469 470
3 471 472 473
3 474 475 476
3 477 478 479
3 480 481 482
3 483 484 485
3 486 487 488
3 489 490 491
3 492 493 494
3 495 496 497
3 498 499 500
3 501 502 503
3 504 505 506
3 507 508 509
3 510 511 512
3 513 514 515
3 516 517 518
3 519 520 521
3 522 523 524
3 525 526 527
3 528 529 530
3 531 532 533
