ply
format ascii 1.0
element vertex 168
property float x
property float y
property float z
property float nx
property float ny
property float nz
element face 56
property list uint uint vertex_indices
end_header
119.962 103.026 159.29 -0.165496 -0.207174 -0.964204
120.181 102.374 159.392 -0.165496 -0.207174 -0.964204
119.797 102.469 159.438 -0.165496 -0.207174 -0.964204
119.459 103.206 159.612 -0.552883 -0.057222 -0.831292
119.962 103.026 159.29 -0.552883 -0.057222 -0.831292
119.797 102.469 159.438 -0.552883 -0.057222 -0.831292
120.86 102.397 159.395 0.00542167 -0.0588423 -0.998253
120.181 102.374 159.392 0.00542167 -0.0588423 -0.998253
120.647 103.139 159.35 0.00542167 -0.0588423 -0.998253
120.647 103.139 159.35 0.106122 -0.119565 -0.987138
120.181 102.374 159.392 0.106122 -0.119565 -0.987138
119.962 103.026 159.29 0.106122 -0.119565 -0.987138
121.049 102.959 159.519 0.769563 -0.119886 -0.627216
121.072 102.434 159.647 0.769563 -0.119886 -0.627216
120.86 102.397 159.395 0.769563 -0.119886 -0.627216
120.647 103.139 159.35 0.411268 0.0631916 -0.909321
121.049 102.959 159.519 0.411268 0.0631916 -0.909321
120.86 102.397 159.395 0.411268 0.0631916 -0.909321
119.949 103.813 159.415 -0.501766 0.128294 -0.855437
119.962 103.026 159.29 -0.501766 0.128294 -0.855437
119.459 103.206 159.612 -0.501766 0.128294 -0.855437
119.593 104.014 159.625 -0.46656 0.0920488 -0.879686
119.949 103.813 159.415 -0.46656 0.0920488 -0.879686
119.459 103.206 159.612 -0.46656 0.0920488 -0.879686
120.268 103.918 159.532 0.48048 0.415014 -0.772594
120.867 103.494 159.677 0.48048 0.415014 -0.772594
120.647 103.139 159.35 0.48048 0.415014 -0.772594
120.268 103.918 159.532 0.229395 0.326653 -0.916884
120.647 103.139 159.35 0.229395 0.326653 -0.916884
119.949 103.813 159.415 0.229395 0.326653 -0.916884
119.949 103.813 159.415 0.0599508 0.157872 -0.985638
120.647 103.139 159.35 0.0599508 0.157872 -0.985638
119.962 103.026 159.29 0.0599508 0.157872 -0.985638
121.049 102.959 159.519 0.501974 0.397531 -0.768109
120.647 103.139 159.35 0.501974 0.397531 -0.768109
120.867 103.494 159.677 0.501974 0.397531 -0.768109
119.949 103.813 159.415 -0.133607 0.592627 -0.794319
119.593 104.014 159.625 -0.133607 0.592627 -0.794319
119.891 104.176 159.695 -0.133607 0.592627 -0.794319
120.268 103.918 159.532 0.0844793 0.617883 -0.781719
119.949 103.813 159.415 0.0844793 0.617883 -0.781719
119.891 104.176 159.695 0.0844793 0.617883 -0.781719
120.181 102.374 159.392 -0.25331 -0.95911 -0.126265
119.873 102.402 159.798 -0.25331 -0.95911 -0.126265
119.797 102.469 159.438 -0.25331 -0.95911 -0.126265
120.181 102.374 159.392 0.0335661 -0.934404 -0.354631
120.86 102.397 159.395 0.0335661 -0.934404 -0.354631
120.681 102.262 159.735 0.0335661 -0.934404 -0.354631
119.873 102.402 159.798 -0.175195 -0.98236 -0.0653855
120.181 102.374 159.392 -0.175195 -0.98236 -0.0653855
120.681 102.262 159.735 -0.175195 -0.98236 -0.0653855
120.86 102.397 159.395 0.365677 -0.91471 -0.172005
121.072 102.434 159.647 0.365677 -0.91471 -0.172005
120.681 102.262 159.735 0.365677 -0.91471 -0.172005
119.873 102.402 159.798 -0.499775 -0.75174 0.430246
120.094 102.558 160.329 -0.499775 -0.75174 0.430246
119.172 103.162 160.313 -0.499775 -0.75174 0.430246
119.873 102.402 159.798 -0.794784 -0.491206 -0.356419
119.172 103.162 160.313 -0.794784 -0.491206 -0.356419
119.459 103.206 159.612 -0.794784 -0.491206 -0.356419
119.873 102.402 159.798 -0.894085 -0.43493 0.106994
119.459 103.206 159.612 -0.894085 -0.43493 0.106994
119.797 102.469 159.438 -0.894085 -0.43493 0.106994
119.459 103.206 159.612 -0.488797 -0.835096 -0.252374
119.172 103.162 160.313 -0.488797 -0.835096 -0.252374
119.011 103.315 160.12 -0.488797 -0.835096 -0.252374
120.681 102.262 159.735 -0.135824 -0.933382 0.332189
120.094 102.558 160.329 -0.135824 -0.933382 0.332189
119.873 102.402 159.798 -0.135824 -0.933382 0.332189
120.861 102.634 160.214 0.163993 -0.807845 0.566121
120.094 102.558 160.329 0.163993 -0.807845 0.566121
120.681 102.262 159.735 0.163993 -0.807845 0.566121
120.861 102.634 160.214 0.444291 -0.780658 0.43952
120.681 102.262 159.735 0.444291 -0.780658 0.43952
121.072 102.434 159.647 0.444291 -0.780658 0.43952
120.861 102.634 160.214 0.840504 -0.331592 0.428486
121.072 102.434 159.647 0.840504 -0.331592 0.428486
121.078 103.087 160.141 0.840504 -0.331592 0.428486
121.078 103.087 160.141 0.998199 0.0302518 -0.0517961
121.072 102.434 159.647 0.998199 0.0302518 -0.0517961
121.049 102.959 159.519 0.998199 0.0302518 -0.0517961
119.044 103.855 160.083 -0.727782 0.090943 0.679752
119.011 103.315 160.12 -0.727782 0.090943 0.679752
119.172 103.162 160.313 -0.727782 0.090943 0.679752
119.126 103.983 160.511 -0.970049 -0.106971 0.218087
119.044 103.855 160.083 -0.970049 -0.106971 0.218087
119.172 103.162 160.313 -0.970049 -0.106971 0.218087
119.459 103.206 159.612 -0.656045 0.121313 -0.744909
119.044 103.855 160.083 -0.656045 0.121313 -0.744909
119.593 104.014 159.625 -0.656045 0.121313 -0.744909
119.011 103.315 160.12 -0.750278 6.04223e-05 -0.661123
119.044 103.855 160.083 -0.750278 6.04223e-05 -0.661123
119.459 103.206 159.612 -0.750278 6.04223e-05 -0.661123
120.867 103.494 159.677 0.775283 0.61631 -0.138197
120.506 104.062 160.179 0.775283 0.61631 -0.138197
120.804 103.724 160.347 0.775283 0.61631 -0.138197
120.268 103.918 159.532 0.593852 0.711115 -0.376372
120.506 104.062 160.179 0.593852 0.711115 -0.376372
120.867 103.494 159.677 0.593852 0.711115 -0.376372
121.078 103.087 160.141 0.929748 0.34987 -0.114714
121.049 102.959 159.519 0.929748 0.34987 -0.114714
120.867 103.494 159.677 0.929748 0.34987 -0.114714
120.804 103.724 160.347 0.91099 0.40882 -0.0544327
121.078 103.087 160.141 0.91099 0.40882 -0.0544327
120.867 103.494 159.677 0.91099 0.40882 -0.0544327
119.044 103.855 160.083 -0.923123 0.379258 0.0632978
119.126 103.983 160.511 -0.923123 0.379258 0.0632978
119.22 104.269 160.174 -0.923123 0.379258 0.0632978
119.593 104.014 159.625 -0.650254 0.416902 -0.635108
119.044 103.855 160.083 -0.650254 0.416902 -0.635108
119.22 104.269 160.174 -0.650254 0.416902 -0.635108
119.593 104.014 159.625 -0.289904 0.777698 -0.5578
119.22 104.269 160.174 -0.289904 0.777698 -0.5578
119.891 104.176 159.695 -0.289904 0.777698 -0.5578
119.891 104.176 159.695 -0.0704122 0.955841 -0.285323
119.22 104.269 160.174 -0.0704122 0.955841 -0.285323
119.78 104.361 160.345 -0.0704122 0.955841 -0.285323
120.506 104.062 160.179 0.424778 0.838004 -0.342511
120.268 103.918 159.532 0.424778 0.838004 -0.342511
119.891 104.176 159.695 0.424778 0.838004 -0.342511
119.78 104.361 160.345 0.33295 0.920076 -0.20641
120.506 104.062 160.179 0.33295 0.920076 -0.20641
119.891 104.176 159.695 0.33295 0.920076 -0.20641
119.172 103.162 160.313 -0.429368 -0.638831 0.638387
120.094 102.558 160.329 -0.429368 -0.638831 0.638387
119.819 103.177 160.763 -0.429368 -0.638831 0.638387
119.214 103.415 160.591 -0.431528 -0.634396 0.641346
119.172 103.162 160.313 -0.431528 -0.634396 0.641346
119.819 103.177 160.763 -0.431528 -0.634396 0.641346
120.094 102.558 160.329 0.175685 -0.498979 0.848619
120.861 102.634 160.214 0.175685 -0.498979 0.848619
120.66 103.164 160.567 0.175685 -0.498979 0.848619
119.819 103.177 160.763 0.18755 -0.507148 0.841205
120.094 102.558 160.329 0.18755 -0.507148 0.841205
120.66 103.164 160.567 0.18755 -0.507148 0.841205
120.861 102.634 160.214 0.67955 -0.210511 0.702778
121.078 103.087 160.141 0.67955 -0.210511 0.702778
120.66 103.164 160.567 0.67955 -0.210511 0.702778
119.172 103.162 160.313 -0.96146 -0.114211 0.2501
119.214 103.415 160.591 -0.96146 -0.114211 0.2501
119.126 103.983 160.511 -0.96146 -0.114211 0.2501
119.819 103.177 160.763 -0.232894 0.105097 0.966807
119.965 103.89 160.721 -0.232894 0.105097 0.966807
119.214 103.415 160.591 -0.232894 0.105097 0.966807
119.965 103.89 160.721 -0.230814 0.101574 0.967682
119.126 103.983 160.511 -0.230814 0.101574 0.967682
119.214 103.415 160.591 -0.230814 0.101574 0.967682
120.804 103.724 160.347 0.408622 0.670219 0.619543
120.506 104.062 160.179 0.408622 0.670219 0.619543
119.965 103.89 160.721 0.408622 0.670219 0.619543
120.804 103.724 160.347 0.433243 0.231091 0.871147
119.965 103.89 160.721 0.433243 0.231091 0.871147
120.66 103.164 160.567 0.433243 0.231091 0.871147
120.66 103.164 160.567 0.226563 0.0115855 0.973928
119.965 103.89 160.721 0.226563 0.0115855 0.973928
119.819 103.177 160.763 0.226563 0.0115855 0.973928
121.078 103.087 160.141 0.719781 0.0855872 0.688905
120.804 103.724 160.347 0.719781 0.0855872 0.688905
120.66 103.164 160.567 0.719781 0.0855872 0.688905
119.78 104.361 160.345 -0.298946 0.766487 0.568445
119.22 104.269 160.174 -0.298946 0.766487 0.568445
119.126 103.983 160.511 -0.298946 0.766487 0.568445
119.965 103.89 160.721 -0.135483 0.584982 0.799651
119.78 104.361 160.345 -0.135483 0.584982 0.799651
119.126 103.983 160.511 -0.135483 0.584982 0.799651
120.506 104.062 160.179 0.416258 0.661069 0.624273
119.78 104.361 160.345 0.416258 0.661069 0.624273
119.965 103.89 160.721 0.416258 0.661069 0.624273
3 0 1 2
3 3 4 5
3 6 7 8
3 9 10 11
3 12 13 14
3 15 16 17
3 18 19 20
3 21 22 23
3 24 25 26
3 27 28 29
3 30 31 32
3 33 34 35
3 36 37 38
3 39 40 41
3 42 43 44
3 45 46 47
3 48 49 50
3 51 52 53
3 54 55 56
3 57 58 59
3 60 61 62
3 63 64 65
3 66 67 68
3 69 70 71
3 72 73 74
3 75 76 77
3 78 79 80
3 81 82 83
3 84 85 86
3 87 88 89
3 90 91 92
3 93 94 95
3 96 97 98
3 99 100 101
3 102 103 104
3 105 106 107
3 108 109 110
3 111 112 113
3 114 115 116
3 117 118 119
3 120 121 122
3 123 124 125
3 126 127 128
3 129 130 131
3 132 133 134
3 135 136 137
3 138 139 140
3 141 142 143
3 144 145 146
3 147 148 149
3 150 151 152
3 153 154 155
3 156 157 158
3 159 160 161
3 162 163 164
3 165 166 167
