ply
format ascii 1.0
element vertex 354
property float x
property float y
property float z
property float nx
property float ny
property float nz
element face 118
property list uint uint vertex_indices
end_header
110.18 135.767 174.949 -0.202195 -0.797158 -0.568908
110.15 135.51 175.32 -0.202195 -0.797158 -0.568908
109.911 135.738 175.085 -0.202195 -0.797158 -0.568908
110.179 136.464 174.68 -0.398224 -0.330548 -0.855661
110.18 135.767 174.949 -0.398224 -0.330548 -0.855661
109.911 135.738 175.085 -0.398224 -0.330548 -0.855661
109.652 136.54 175.165 -0.680935 -0.149027 -0.71702
110.179 136.464 174.68 -0.680935 -0.149027 -0.71702
109.911 135.738 175.085 -0.680935 -0.149027 -0.71702
110.943 136.31 175.088 0.573465 -0.694782 -0.43407
110.15 135.51 175.32 0.573465 -0.694782 -0.43407
110.18 135.767 174.949 0.573465 -0.694782 -0.43407
110.943 136.31 175.088 0.391355 -0.329953 -0.859053
110.18 135.767 174.949 0.391355 -0.329953 -0.859053
110.179 136.464 174.68 0.391355 -0.329953 -0.859053
110.025 137.231 174.931 -0.664547 0.108142 -0.73938
110.179 136.464 174.68 -0.664547 0.108142 -0.73938
109.652 136.54 175.165 -0.664547 0.108142 -0.73938
109.515 137.318 175.108 -0.345361 -0.128413 -0.929643
110.025 137.231 174.931 -0.345361 -0.128413 -0.929643
109.652 136.54 175.165 -0.345361 -0.128413 -0.929643
110.943 136.31 175.088 0.454454 -0.0897232 -0.88624
110.179 136.464 174.68 0.454454 -0.0897232 -0.88624
110.853 137.264 174.945 0.454454 -0.0897232 -0.88624
110.853 137.264 174.945 0.00463078 0.311265 -0.950312
110.179 136.464 174.68 0.00463078 0.311265 -0.950312
110.025 137.231 174.931 0.00463078 0.311265 -0.950312
111.717 137.131 175.154 0.407951 -0.315505 -0.856757
111.355 136.463 175.228 0.407951 -0.315505 -0.856757
110.943 136.31 175.088 0.407951 -0.315505 -0.856757
111.717 137.131 175.154 0.214912 -0.124472 -0.968669
110.943 136.31 175.088 0.214912 -0.124472 -0.968669
110.853 137.264 174.945 0.214912 -0.124472 -0.968669
110.025 137.231 174.931 -0.171523 0.595503 -0.784829
109.515 137.318 175.108 -0.171523 0.595503 -0.784829
110.047 137.685 175.27 -0.171523 0.595503 -0.784829
110.853 137.264 174.945 -0.0092719 0.599183 -0.800558
110.025 137.231 174.931 -0.0092719 0.599183 -0.800558
110.047 137.685 175.27 -0.0092719 0.599183 -0.800558
111.251 137.73 175.308 0.00215993 0.613002 -0.790078
110.853 137.264 174.945 0.00215993 0.613002 -0.790078
110.047 137.685 175.27 0.00215993 0.613002 -0.790078
111.717 137.131 175.154 0.274092 0.434084 -0.858164
110.853 137.264 174.945 0.274092 0.434084 -0.858164
111.251 137.73 175.308 0.274092 0.434084 -0.858164
112.009 137.511 175.344 0.145429 0.351206 -0.924935
111.717 137.131 175.154 0.145429 0.351206 -0.924935
111.251 137.73 175.308 0.145429 0.351206 -0.924935
112.042 137.123 175.429 0.639646 -0.111632 -0.760521
111.717 137.131 175.154 0.639646 -0.111632 -0.760521
112.009 137.511 175.344 0.639646 -0.111632 -0.760521
110.15 135.51 175.32 -0.445641 -0.824844 -0.347903
110.142 135.14 176.208 -0.445641 -0.824844 -0.347903
109.47 135.642 175.879 -0.445641 -0.824844 -0.347903
109.911 135.738 175.085 -0.445615 -0.824874 -0.347865
110.15 135.51 175.32 -0.445615 -0.824874 -0.347865
109.47 135.642 175.879 -0.445615 -0.824874 -0.347865
110.15 135.51 175.32 0.259971 -0.891974 -0.369862
110.853 135.467 175.917 0.259971 -0.891974 -0.369862
110.142 135.14 176.208 0.259971 -0.891974 -0.369862
109.084 136.414 175.843 -0.875693 -0.354347 -0.328023
109.071 136.026 176.296 -0.875693 -0.354347 -0.328023
108.895 136.639 176.104 -0.875693 -0.354347 -0.328023
109.084 136.414 175.843 -0.816895 -0.426628 -0.388163
109.47 135.642 175.879 -0.816895 -0.426628 -0.388163
109.071 136.026 176.296 -0.816895 -0.426628 -0.388163
109.084 136.414 175.843 -0.677585 -0.368613 -0.636398
109.652 136.54 175.165 -0.677585 -0.368613 -0.636398
109.47 135.642 175.879 -0.677585 -0.368613 -0.636398
109.652 136.54 175.165 -0.840391 -0.222561 -0.494176
109.911 135.738 175.085 -0.840391 -0.222561 -0.494176
109.47 135.642 175.879 -0.840391 -0.222561 -0.494176
110.15 135.51 175.32 0.472517 -0.643451 -0.602245
110.943 136.31 175.088 0.472517 -0.643451 -0.602245
110.853 135.467 175.917 0.472517 -0.643451 -0.602245
110.943 136.31 175.088 0.447003 -0.727963 -0.519863
111.355 136.463 175.228 0.447003 -0.727963 -0.519863
111.431 135.985 175.962 0.447003 -0.727963 -0.519863
110.943 136.31 175.088 0.581268 -0.601581 -0.54793
111.431 135.985 175.962 0.581268 -0.601581 -0.54793
110.853 135.467 175.917 0.581268 -0.601581 -0.54793
109.128 137.268 175.561 -0.851649 -0.123931 -0.509249
109.084 136.414 175.843 -0.851649 -0.123931 -0.509249
108.895 136.639 176.104 -0.851649 -0.123931 -0.509249
108.815 137.395 176.271 -0.915693 -0.00751446 -0.401808
109.128 137.268 175.561 -0.915693 -0.00751446 -0.401808
108.895 136.639 176.104 -0.915693 -0.00751446 -0.401808
109.652 136.54 175.165 -0.738529 -0.177548 -0.650425
109.128 137.268 175.561 -0.738529 -0.177548 -0.650425
109.515 137.318 175.108 -0.738529 -0.177548 -0.650425
109.084 136.414 175.843 -0.737991 -0.176704 -0.651264
109.128 137.268 175.561 -0.737991 -0.176704 -0.651264
109.652 136.54 175.165 -0.737991 -0.176704 -0.651264
111.355 136.463 175.228 0.791378 -0.471698 -0.388873
111.717 137.131 175.154 0.791378 -0.471698 -0.388873
111.431 135.985 175.962 0.791378 -0.471698 -0.388873
111.431 135.985 175.962 0.519848 -0.575224 -0.631566
111.717 137.131 175.154 0.519848 -0.575224 -0.631566
112.042 137.123 175.429 0.519848 -0.575224 -0.631566
111.431 135.985 175.962 0.660734 -0.57881 -0.477922
112.042 137.123 175.429 0.660734 -0.57881 -0.477922
112.066 136.638 176.05 0.660734 -0.57881 -0.477922
112.066 136.638 176.05 0.972002 -0.165345 -0.166953
112.042 137.123 175.429 0.972002 -0.165345 -0.166953
112.186 137.325 176.064 0.972002 -0.165345 -0.166953
109.128 137.268 175.561 -0.815883 0.388275 -0.42846
108.815 137.395 176.271 -0.815883 0.388275 -0.42846
109.204 137.925 176.011 -0.815883 0.388275 -0.42846
109.968 138.339 175.928 -0.428047 0.668293 -0.608408
109.204 137.925 176.011 -0.428047 0.668293 -0.608408
109.565 138.45 176.334 -0.428047 0.668293 -0.608408
110.047 137.685 175.27 -0.40943 0.622132 -0.667323
109.204 137.925 176.011 -0.40943 0.622132 -0.667323
109.968 138.339 175.928 -0.40943 0.622132 -0.667323
110.047 137.685 175.27 -0.465885 0.536424 -0.703705
109.128 137.268 175.561 -0.465885 0.536424 -0.703705
109.204 137.925 176.011 -0.465885 0.536424 -0.703705
110.047 137.685 175.27 -0.472315 0.824488 -0.31167
109.515 137.318 175.108 -0.472315 0.824488 -0.31167
109.128 137.268 175.561 -0.472315 0.824488 -0.31167
110.047 137.685 175.27 -0.00112826 0.66409 -0.747652
110.817 138.343 175.853 -0.00112826 0.66409 -0.747652
111.251 137.73 175.308 -0.00112826 0.66409 -0.747652
109.968 138.339 175.928 -0.0657819 0.703867 -0.70728
110.817 138.343 175.853 -0.0657819 0.703867 -0.70728
110.047 137.685 175.27 -0.0657819 0.703867 -0.70728
111.412 138.341 176.047 0.213934 0.729476 -0.64969
111.251 137.73 175.308 0.213934 0.729476 -0.64969
110.817 138.343 175.853 0.213934 0.729476 -0.64969
111.412 138.341 176.047 0.550836 0.580235 -0.599922
111.947 137.923 176.134 0.550836 0.580235 -0.599922
111.251 137.73 175.308 0.550836 0.580235 -0.599922
111.947 137.923 176.134 0.269798 0.86199 -0.429165
112.009 137.511 175.344 0.269798 0.86199 -0.429165
111.251 137.73 175.308 0.269798 0.86199 -0.429165
112.186 137.325 176.064 0.97267 0.0327199 -0.229874
112.042 137.123 175.429 0.97267 0.0327199 -0.229874
112.009 137.511 175.344 0.97267 0.0327199 -0.229874
111.947 137.923 176.134 0.91618 0.380373 -0.126214
112.186 137.325 176.064 0.91618 0.380373 -0.126214
112.009 137.511 175.344 0.91618 0.380373 -0.126214
109.968 138.339 175.928 -0.213533 0.867344 -0.449575
109.565 138.45 176.334 -0.213533 0.867344 -0.449575
110.249 138.572 176.244 -0.213533 0.867344 -0.449575
110.817 138.343 175.853 -0.0534069 0.825733 -0.561527
109.968 138.339 175.928 -0.0534069 0.825733 -0.561527
110.249 138.572 176.244 -0.0534069 0.825733 -0.561527
111.012 138.542 176.261 0.0453266 0.889185 -0.455297
110.817 138.343 175.853 0.0453266 0.889185 -0.455297
110.249 138.572 176.244 0.0453266 0.889185 -0.455297
111.412 138.341 176.047 0.163954 0.853548 -0.494545
110.817 138.343 175.853 0.163954 0.853548 -0.494545
111.012 138.542 176.261 0.163954 0.853548 -0.494545
110.142 135.14 176.208 -0.36923 -0.851402 0.372538
110.244 135.412 176.93 -0.36923 -0.851402 0.372538
109.754 135.552 176.764 -0.36923 -0.851402 0.372538
109.47 135.642 175.879 -0.632069 -0.76476 0.125022
110.142 135.14 176.208 -0.632069 -0.76476 0.125022
109.754 135.552 176.764 -0.632069 -0.76476 0.125022
110.853 135.467 175.917 0.393242 -0.916646 -0.0715658
110.919 135.432 176.736 0.393242 -0.916646 -0.0715658
110.142 135.14 176.208 0.393242 -0.916646 -0.0715658
110.142 135.14 176.208 0.12374 -0.934309 0.334299
110.919 135.432 176.736 0.12374 -0.934309 0.334299
110.244 135.412 176.93 0.12374 -0.934309 0.334299
110.919 135.432 176.736 0.668106 -0.739079 -0.0860037
110.853 135.467 175.917 0.668106 -0.739079 -0.0860037
111.431 135.985 175.962 0.668106 -0.739079 -0.0860037
111.346 135.748 176.906 0.623888 -0.769415 -0.136985
110.919 135.432 176.736 0.623888 -0.769415 -0.136985
111.431 135.985 175.962 0.623888 -0.769415 -0.136985
109.071 136.026 176.296 -0.844977 -0.458308 0.275621
109.196 136.193 176.955 -0.844977 -0.458308 0.275621
108.916 136.614 176.796 -0.844977 -0.458308 0.275621
108.895 136.639 176.104 -0.962535 -0.270512 0.0187023
109.071 136.026 176.296 -0.962535 -0.270512 0.0187023
108.916 136.614 176.796 -0.962535 -0.270512 0.0187023
109.754 135.552 176.764 -0.620876 -0.774603 0.120431
109.071 136.026 176.296 -0.620876 -0.774603 0.120431
109.47 135.642 175.879 -0.620876 -0.774603 0.120431
109.196 136.193 176.955 -0.674104 -0.675779 0.298172
109.071 136.026 176.296 -0.674104 -0.675779 0.298172
109.754 135.552 176.764 -0.674104 -0.675779 0.298172
111.431 135.985 175.962 0.780546 -0.619281 -0.0850857
112.0 136.588 176.796 0.780546 -0.619281 -0.0850857
111.346 135.748 176.906 0.780546 -0.619281 -0.0850857
112.0 136.588 176.796 0.715456 -0.698462 0.0165576
111.431 135.985 175.962 0.715456 -0.698462 0.0165576
112.066 136.638 176.05 0.715456 -0.698462 0.0165576
108.895 136.639 176.104 -0.993569 -0.110343 0.0253886
108.916 136.614 176.796 -0.993569 -0.110343 0.0253886
108.815 137.395 176.271 -0.993569 -0.110343 0.0253886
108.916 136.614 176.796 -0.992469 -0.0530108 0.110431
108.897 137.358 176.986 -0.992469 -0.0530108 0.110431
108.815 137.395 176.271 -0.992469 -0.0530108 0.110431
112.066 136.638 176.05 0.982203 -0.171995 0.0754703
112.186 137.325 176.064 0.982203 -0.171995 0.0754703
112.0 136.588 176.796 0.982203 -0.171995 0.0754703
112.0 136.588 176.796 0.982535 -0.168389 0.0791815
112.186 137.325 176.064 0.982535 -0.168389 0.0791815
112.148 137.462 176.823 0.982535 -0.168389 0.0791815
108.815 137.395 176.271 -0.971803 0.202319 0.121101
108.897 137.358 176.986 -0.971803 0.202319 0.121101
109.023 138.067 176.812 -0.971803 0.202319 0.121101
109.204 137.925 176.011 -0.834678 0.477779 -0.273934
108.815 137.395 176.271 -0.834678 0.477779 -0.273934
109.023 138.067 176.812 -0.834678 0.477779 -0.273934
109.023 138.067 176.812 -0.704899 0.653513 -0.275748
109.565 138.45 176.334 -0.704899 0.653513 -0.275748
109.204 137.925 176.011 -0.704899 0.653513 -0.275748
109.364 138.39 177.011 -0.642703 0.756176 -0.123006
109.565 138.45 176.334 -0.642703 0.756176 -0.123006
109.023 138.067 176.812 -0.642703 0.756176 -0.123006
111.947 137.923 176.134 0.659858 0.74962 0.0515457
111.367 138.39 176.771 0.659858 0.74962 0.0515457
111.903 137.905 176.958 0.659858 0.74962 0.0515457
111.412 138.341 176.047 0.616795 0.786981 -0.0149811
111.367 138.39 176.771 0.616795 0.786981 -0.0149811
111.947 137.923 176.134 0.616795 0.786981 -0.0149811
112.148 137.462 176.823 0.927714 0.37269 -0.0211964
112.186 137.325 176.064 0.927714 0.37269 -0.0211964
111.947 137.923 176.134 0.927714 0.37269 -0.0211964
111.903 137.905 176.958 0.881268 0.469167 0.0570058
112.148 137.462 176.823 0.881268 0.469167 0.0570058
111.947 137.923 176.134 0.881268 0.469167 0.0570058
109.565 138.45 176.334 -0.447452 0.89274 -0.0529312
109.364 138.39 177.011 -0.447452 0.89274 -0.0529312
109.987 138.694 176.875 -0.447452 0.89274 -0.0529312
110.249 138.572 176.244 -0.20262 0.942288 -0.266531
109.565 138.45 176.334 -0.20262 0.942288 -0.266531
109.987 138.694 176.875 -0.20262 0.942288 -0.266531
111.012 138.542 176.261 0.0399997 0.998251 -0.0435234
110.249 138.572 176.244 0.0399997 0.998251 -0.0435234
110.79 138.579 176.9 0.0399997 0.998251 -0.0435234
110.249 138.572 176.244 0.145112 0.980851 -0.1299
109.987 138.694 176.875 0.145112 0.980851 -0.1299
110.79 138.579 176.9 0.145112 0.980851 -0.1299
111.367 138.39 176.771 0.433975 0.900283 -0.0339918
111.412 138.341 176.047 0.433975 0.900283 -0.0339918
111.012 138.542 176.261 0.433975 0.900283 -0.0339918
110.79 138.579 176.9 0.322164 0.944934 0.0575321
111.367 138.39 176.771 0.322164 0.944934 0.0575321
111.012 138.542 176.261 0.322164 0.944934 0.0575321
110.244 135.412 176.93 -0.40501 -0.613986 0.677486
110.034 135.817 177.172 -0.40501 -0.613986 0.677486
109.754 135.552 176.764 -0.40501 -0.613986 0.677486
110.244 135.412 176.93 0.171525 -0.843133 0.509613
110.919 135.432 176.736 0.171525 -0.843133 0.509613
110.976 135.675 177.119 0.171525 -0.843133 0.509613
110.034 135.817 177.172 -0.0312142 -0.52412 0.851072
110.244 135.412 176.93 -0.0312142 -0.52412 0.851072
110.976 135.675 177.119 -0.0312142 -0.52412 0.851072
110.919 135.432 176.736 0.41209 -0.795763 0.443783
111.346 135.748 176.906 0.41209 -0.795763 0.443783
110.976 135.675 177.119 0.41209 -0.795763 0.443783
109.196 136.193 176.955 -0.75863 -0.283366 0.586672
109.239 136.672 177.243 -0.75863 -0.283366 0.586672
108.916 136.614 176.796 -0.75863 -0.283366 0.586672
109.196 136.193 176.955 -0.438675 -0.585263 0.681932
109.754 135.552 176.764 -0.438675 -0.585263 0.681932
110.034 135.817 177.172 -0.438675 -0.585263 0.681932
109.196 136.193 176.955 -0.405377 -0.442882 0.799703
110.034 135.817 177.172 -0.405377 -0.442882 0.799703
109.239 136.672 177.243 -0.405377 -0.442882 0.799703
109.239 136.672 177.243 -0.300129 -0.352163 0.886512
110.034 135.817 177.172 -0.300129 -0.352163 0.886512
110.155 136.629 177.536 -0.300129 -0.352163 0.886512
110.976 135.675 177.119 0.00172036 -0.339403 0.94064
111.039 136.485 177.411 0.00172036 -0.339403 0.94064
110.034 135.817 177.172 0.00172036 -0.339403 0.94064
111.039 136.485 177.411 0.0599382 -0.415282 0.907716
110.155 136.629 177.536 0.0599382 -0.415282 0.907716
110.034 135.817 177.172 0.0599382 -0.415282 0.907716
111.346 135.748 176.906 0.784141 -0.583248 0.212
112.0 136.588 176.796 0.784141 -0.583248 0.212
111.747 136.37 177.133 0.784141 -0.583248 0.212
111.346 135.748 176.906 0.49315 -0.560986 0.664904
111.747 136.37 177.133 0.49315 -0.560986 0.664904
110.976 135.675 177.119 0.49315 -0.560986 0.664904
110.976 135.675 177.119 0.29391 -0.344525 0.891583
111.747 136.37 177.133 0.29391 -0.344525 0.891583
111.039 136.485 177.411 0.29391 -0.344525 0.891583
109.239 136.672 177.243 -0.703821 -0.0870167 0.705028
109.199 137.663 177.325 -0.703821 -0.0870167 0.705028
108.897 137.358 176.986 -0.703821 -0.0870167 0.705028
108.916 136.614 176.796 -0.787208 -0.170701 0.592591
109.239 136.672 177.243 -0.787208 -0.170701 0.592591
108.897 137.358 176.986 -0.787208 -0.170701 0.592591
110.155 136.629 177.536 -0.306908 -0.0754231 0.948746
110.043 137.489 177.568 -0.306908 -0.0754231 0.948746
109.239 136.672 177.243 -0.306908 -0.0754231 0.948746
110.043 137.489 177.568 -0.292331 -0.0910579 0.951972
109.199 137.663 177.325 -0.292331 -0.0910579 0.951972
109.239 136.672 177.243 -0.292331 -0.0910579 0.951972
111.039 136.485 177.411 0.115676 -0.139429 0.983452
110.942 137.338 177.544 0.115676 -0.139429 0.983452
110.155 136.629 177.536 0.115676 -0.139429 0.983452
110.942 137.338 177.544 0.0210339 -0.0346205 0.999179
110.043 137.489 177.568 0.0210339 -0.0346205 0.999179
110.155 136.629 177.536 0.0210339 -0.0346205 0.999179
111.747 136.37 177.133 0.340761 -0.144818 0.928929
111.835 137.318 177.249 0.340761 -0.144818 0.928929
111.039 136.485 177.411 0.340761 -0.144818 0.928929
111.835 137.318 177.249 0.308887 -0.111362 0.944557
110.942 137.338 177.544 0.308887 -0.111362 0.944557
111.039 136.485 177.411 0.308887 -0.111362 0.944557
112.0 136.588 176.796 0.820175 -0.155444 0.550591
112.148 137.462 176.823 0.820175 -0.155444 0.550591
111.835 137.318 177.249 0.820175 -0.155444 0.550591
111.747 136.37 177.133 0.833593 -0.142002 0.533815
112.0 136.588 176.796 0.833593 -0.142002 0.533815
111.835 137.318 177.249 0.833593 -0.142002 0.533815
108.897 137.358 176.986 -0.826208 0.268207 0.495424
109.199 137.663 177.325 -0.826208 0.268207 0.495424
109.023 138.067 176.812 -0.826208 0.268207 0.495424
109.364 138.39 177.011 -0.715396 0.407743 0.56741
109.023 138.067 176.812 -0.715396 0.407743 0.56741
109.199 137.663 177.325 -0.715396 0.407743 0.56741
109.364 138.39 177.011 -0.315383 0.436168 0.842788
109.199 137.663 177.325 -0.315383 0.436168 0.842788
110.036 138.336 177.29 -0.315383 0.436168 0.842788
110.036 138.336 177.29 -0.205052 0.303613 0.930469
109.199 137.663 177.325 -0.205052 0.303613 0.930469
110.043 137.489 177.568 -0.205052 0.303613 0.930469
110.942 137.338 177.544 0.0829955 0.343909 0.935328
111.061 138.169 177.227 0.0829955 0.343909 0.935328
110.043 137.489 177.568 0.0829955 0.343909 0.935328
111.061 138.169 177.227 0.108097 0.310835 0.944297
110.036 138.336 177.29 0.108097 0.310835 0.944297
110.043 137.489 177.568 0.108097 0.310835 0.944297
111.903 137.905 176.958 0.407937 0.684432 0.604269
111.367 138.39 176.771 0.407937 0.684432 0.604269
111.061 138.169 177.227 0.407937 0.684432 0.604269
111.903 137.905 176.958 0.387012 0.373677 0.842963
111.061 138.169 177.227 0.387012 0.373677 0.842963
111.835 137.318 177.249 0.387012 0.373677 0.842963
111.835 137.318 177.249 0.304629 0.300272 0.903902
111.061 138.169 177.227 0.304629 0.300272 0.903902
110.942 137.338 177.544 0.304629 0.300272 0.903902
112.148 137.462 176.823 0.747959 0.223353 0.625036
111.903 137.905 176.958 0.747959 0.223353 0.625036
111.835 137.318 177.249 0.747959 0.223353 0.625036
109.364 138.39 177.011 -0.213235 0.726556 0.653182
110.036 138.336 177.29 -0.213235 0.726556 0.653182
109.987 138.694 176.875 -0.213235 0.726556 0.653182
110.79 138.579 176.9 0.0894837 0.758547 0.645445
109.987 138.694 176.875 0.0894837 0.758547 0.645445
110.036 138.336 177.29 0.0894837 0.758547 0.645445
111.061 138.169 177.227 0.153971 0.677242 0.71947
110.79 138.579 176.9 0.153971 0.677242 0.71947
110.036 138.336 177.29 0.153971 0.677242 0.71947
111.367 138.39 176.771 0.36731 0.716861 0.592616
110.79 138.579 176.9 0.36731 0.716861 0.592616
111.061 138.169 177.227 0.36731 0.716861 0.592616
3 0 1 2
3 3 4 5
3 6 7 8
3 9 10 11
3 12 13 14
3 15 16 17
3 18 19 20
3 21 22 23
3 24 25 26
3 27 28 29
3 30 31 32
3 33 34 35
3 36 37 38
3 39 40 41
3 42 43 44
3 45 46 47
3 48 49 50
3 51 52 53
3 54 55 56
3 57 58 59
3 60 61 62
3 63 64 65
3 66 67 68
3 69 70 71
3 72 73 74
3 75 76 77
3 78 79 80
3 81 82 83
3 84 85 86
3 87 88 89
3 90 91 92
3 93 94 95
3 96 97 98
3 99 100 101
3 102 103 104
3 105 106 107
3 108 109 110
3 111 112 113
3 114 115 116
3 117 118 119
3 120 121 122
3 123 124 125
3 126 127 128
3 129 130 131
3 132 133 134
3 135 136 137
3 138 139 140
3 141 142 143
3 144 145 146
3 147 148 149
3 150 151 152
3 153 154 155
3 156 157 158
3 159 160 161
3 162 163 164
3 165 166 167
3 168 169 170
3 171 172 173
3 174 175 176
3 177 178 179
3 180 181 182
3 183 184 185
3 186 187 188
3 189 190 191
3 192 193 194
3 195 196 197
3 198 199 200
3 201 202 203
3 204 205 206
3 207 208 209
3 210 211 212
3 213 214 215
3 216 217 218
3 219 220 221
3 222 223 224
3 225 226 227
3 228 229 230
3 231 232 233
3 234 235 236
3 237 238 239
3 240 241 242
3 243 244 245
3 246 247 248
3 249 250 251
3 252 253 254
3 255 256 257
3 258 259 260
3 261 262 263
3 264 265 266
3 267 268 269
3 270 271 272
3 273 274 275
3 276 277 278
3 279 280 281
3 282 283 284
3 285 286 287
3 288 289 290
3 291 292 293
3 294 295 296
3 297 298 299
3 300 301 302
3 303 304 305
3 306 307 308
3 309 310 311
3 312 313 314
3 315 316 317
3 318 319 320
3 321 322 323
3 324 325 326
3 327 328 329
3 330 331 332
3 333 334 335
3 336 337 338
3 339 340 341
3 342 343 344
3 345 346 347
3 348 349 350
3 351 352 353
