ply
format ascii 1.0
element vertex 114
property float x
property float y
property float z
property float nx
property float ny
property float nz
element face 38
property list uint uint vertex_indices
end_header
61.8843 133.544 179.26 -0.252614 -0.399676 -0.881161
62.6508 133.523 179.05 -0.252614 -0.399676 -0.881161
62.5224 133.074 179.29 -0.252614 -0.399676 -0.881161
61.9757 133.064 179.469 -0.274273 -0.427804 -0.861254
61.8843 133.544 179.26 -0.274273 -0.427804 -0.861254
62.5224 133.074 179.29 -0.274273 -0.427804 -0.861254
62.5224 133.074 179.29 0.445337 -0.518465 -0.729979
62.6508 133.523 179.05 0.445337 -0.518465 -0.729979
63.0312 133.357 179.4 0.445337 -0.518465 -0.729979
61.8121 134.15 179.209 0.0620661 0.597413 -0.799528
61.8347 134.313 179.333 0.0620661 0.597413 -0.799528
62.4558 134.19 179.289 0.0620661 0.597413 -0.799528
61.8121 134.15 179.209 0.127441 -0.0674975 -0.989547
62.4558 134.19 179.289 0.127441 -0.0674975 -0.989547
61.8843 133.544 179.26 0.127441 -0.0674975 -0.989547
61.8843 133.544 179.26 -0.248206 0.262223 -0.932541
62.4558 134.19 179.289 -0.248206 0.262223 -0.932541
62.6508 133.523 179.05 -0.248206 0.262223 -0.932541
62.9994 133.986 179.395 0.683752 0.0290784 -0.729134
63.0312 133.357 179.4 0.683752 0.0290784 -0.729134
62.6508 133.523 179.05 0.683752 0.0290784 -0.729134
62.4558 134.19 179.289 0.317953 0.401212 -0.859031
62.9994 133.986 179.395 0.317953 0.401212 -0.859031
62.6508 133.523 179.05 0.317953 0.401212 -0.859031
61.8843 133.544 179.26 -0.964808 -0.235166 -0.117653
61.9757 133.064 179.469 -0.964808 -0.235166 -0.117653
61.8788 133.148 180.097 -0.964808 -0.235166 -0.117653
62.5224 133.074 179.29 -0.0326919 -0.987397 -0.154848
62.5909 132.965 179.971 -0.0326919 -0.987397 -0.154848
61.9757 133.064 179.469 -0.0326919 -0.987397 -0.154848
61.9757 133.064 179.469 -0.231968 -0.968227 0.0934158
62.5909 132.965 179.971 -0.231968 -0.968227 0.0934158
61.8788 133.148 180.097 -0.231968 -0.968227 0.0934158
62.5909 132.965 179.971 0.507141 -0.841593 -0.18582
62.5224 133.074 179.29 0.507141 -0.841593 -0.18582
63.0312 133.357 179.4 0.507141 -0.841593 -0.18582
63.0853 133.551 180.111 0.743551 -0.657256 0.123072
62.5909 132.965 179.971 0.743551 -0.657256 0.123072
63.0312 133.357 179.4 0.743551 -0.657256 0.123072
61.684 134.206 179.434 -0.874514 -0.143 -0.46344
61.8121 134.15 179.209 -0.874514 -0.143 -0.46344
61.8843 133.544 179.26 -0.874514 -0.143 -0.46344
61.684 134.206 179.434 -0.959489 -0.266511 -0.0913966
61.8843 133.544 179.26 -0.959489 -0.266511 -0.0913966
61.6733 134.026 180.071 -0.959489 -0.266511 -0.0913966
61.6733 134.026 180.071 -0.966436 -0.229695 -0.115074
61.8843 133.544 179.26 -0.966436 -0.229695 -0.115074
61.8788 133.148 180.097 -0.966436 -0.229695 -0.115074
61.8121 134.15 179.209 -0.698288 0.491347 -0.520549
61.684 134.206 179.434 -0.698288 0.491347 -0.520549
61.8347 134.313 179.333 -0.698288 0.491347 -0.520549
63.0312 133.357 179.4 0.994769 0.0496773 -0.0892615
62.9994 133.986 179.395 0.994769 0.0496773 -0.0892615
63.0853 133.551 180.111 0.994769 0.0496773 -0.0892615
63.0853 133.551 180.111 0.994017 0.086388 -0.0668424
62.9994 133.986 179.395 0.994017 0.086388 -0.0668424
63.0235 134.194 180.022 0.994017 0.086388 -0.0668424
61.684 134.206 179.434 -0.846141 0.516478 0.131511
61.6733 134.026 180.071 -0.846141 0.516478 0.131511
61.8454 134.343 179.933 -0.846141 0.516478 0.131511
61.8347 134.313 179.333 -0.593343 0.804418 -0.0292507
61.684 134.206 179.434 -0.593343 0.804418 -0.0292507
61.8454 134.343 179.933 -0.593343 0.804418 -0.0292507
61.8347 134.313 179.333 0.190317 0.980346 -0.0519632
61.8454 134.343 179.933 0.190317 0.980346 -0.0519632
62.4558 134.19 179.289 0.190317 0.980346 -0.0519632
62.4558 134.19 179.289 0.0439951 0.980655 -0.190738
61.8454 134.343 179.933 0.0439951 0.980655 -0.190738
62.4958 134.356 180.151 0.0439951 0.980655 -0.190738
63.0235 134.194 180.022 0.386371 0.870914 -0.303687
62.9994 133.986 179.395 0.386371 0.870914 -0.303687
62.4558 134.19 179.289 0.386371 0.870914 -0.303687
62.4958 134.356 180.151 0.244437 0.950029 -0.194154
63.0235 134.194 180.022 0.244437 0.950029 -0.194154
62.4558 134.19 179.289 0.244437 0.950029 -0.194154
61.8788 133.148 180.097 -0.124643 -0.844761 0.520426
62.5909 132.965 179.971 -0.124643 -0.844761 0.520426
62.5175 133.376 180.62 -0.124643 -0.844761 0.520426
61.9022 133.622 180.615 -0.284979 -0.701204 0.653529
61.8788 133.148 180.097 -0.284979 -0.701204 0.653529
62.5175 133.376 180.62 -0.284979 -0.701204 0.653529
62.5909 132.965 179.971 0.615909 -0.632433 0.469771
63.0853 133.551 180.111 0.615909 -0.632433 0.469771
62.5175 133.376 180.62 0.615909 -0.632433 0.469771
61.9022 133.622 180.615 -0.887349 0.102667 0.449524
61.8995 134.219 180.473 -0.887349 0.102667 0.449524
61.6733 134.026 180.071 -0.887349 0.102667 0.449524
61.8788 133.148 180.097 -0.947013 -0.214681 0.238911
61.9022 133.622 180.615 -0.947013 -0.214681 0.238911
61.6733 134.026 180.071 -0.947013 -0.214681 0.238911
62.5175 133.376 180.62 -0.0139718 -0.0147632 0.999793
62.5866 134.066 180.631 -0.0139718 -0.0147632 0.999793
61.9022 133.622 180.615 -0.0139718 -0.0147632 0.999793
62.5866 134.066 180.631 -0.169899 0.226771 0.959015
61.8995 134.219 180.473 -0.169899 0.226771 0.959015
61.9022 133.622 180.615 -0.169899 0.226771 0.959015
63.0853 133.551 180.111 0.786332 0.157675 0.597345
63.0235 134.194 180.022 0.786332 0.157675 0.597345
62.5866 134.066 180.631 0.786332 0.157675 0.597345
62.5175 133.376 180.62 0.67908 -0.0798202 0.729712
63.0853 133.551 180.111 0.67908 -0.0798202 0.729712
62.5866 134.066 180.631 0.67908 -0.0798202 0.729712
61.6733 134.026 180.071 -0.820382 0.534052 0.204357
61.8995 134.219 180.473 -0.820382 0.534052 0.204357
61.8454 134.343 179.933 -0.820382 0.534052 0.204357
62.4958 134.356 180.151 -0.0969101 0.968091 0.231102
61.8454 134.343 179.933 -0.0969101 0.968091 0.231102
61.8995 134.219 180.473 -0.0969101 0.968091 0.231102
62.5866 134.066 180.631 0.0757761 0.859862 0.504872
62.4958 134.356 180.151 0.0757761 0.859862 0.504872
61.8995 134.219 180.473 0.0757761 0.859862 0.504872
63.0235 134.194 180.022 0.359424 0.827353 0.431626
62.4958 134.356 180.151 0.359424 0.827353 0.431626
62.5866 134.066 180.631 0.359424 0.827353 0.431626
3 0 1 2
3 3 4 5
3 6 7 8
3 9 10 11
3 12 13 14
3 15 16 17
3 18 19 20
3 21 22 23
3 24 25 26
3 27 28 29
3 30 31 32
3 33 34 35
3 36 37 38
3 39 40 41
3 42 43 44
3 45 46 47
3 48 49 50
3 51 52 53
3 54 55 56
3 57 58 59
3 60 61 62
3 63 64 65
3 66 67 68
3 69 70 71
3 72 73 74
3 75 76 77
3 78 79 80
3 81 82 83
3 84 85 86
3 87 88 89
3 90 91 92
3 93 94 95
3 96 97 98
3 99 100 101
3 102 103 104
3 105 106 107
3 108 109 110
3 111 112 113
