ply
format ascii 1.0
element vertex 72
property float x
property float y
property float z
property float nx
property float ny
property float nz
element face 24
property list uint uint vertex_indices
end_header
99.0872 125.278 189.48 -0.566746 -0.400554 -0.719969
99.0126 125.063 189.658 -0.566746 -0.400554 -0.719969
98.7901 125.328 189.686 -0.566746 -0.400554 -0.719969
99.0126 125.063 189.658 0.755721 -0.553267 -0.350403
99.0872 125.278 189.48 0.755721 -0.553267 -0.350403
99.243 125.286 189.803 0.755721 -0.553267 -0.350403
98.9882 125.846 189.4 -0.580781 -0.211485 -0.786109
99.0872 125.278 189.48 -0.580781 -0.211485 -0.786109
98.7901 125.328 189.686 -0.580781 -0.211485 -0.786109
98.5786 125.971 189.786 -0.699882 -0.120679 -0.70399
98.9882 125.846 189.4 -0.699882 -0.120679 -0.70399
98.7901 125.328 189.686 -0.699882 -0.120679 -0.70399
99.4518 125.839 189.662 0.825391 -0.410581 -0.387495
99.243 125.286 189.803 0.825391 -0.410581 -0.387495
99.0872 125.278 189.48 0.825391 -0.410581 -0.387495
98.9882 125.846 189.4 0.490649 -0.0367343 -0.870582
99.4518 125.839 189.662 0.490649 -0.0367343 -0.870582
99.0872 125.278 189.48 0.490649 -0.0367343 -0.870582
98.9882 125.846 189.4 -0.379853 0.682924 -0.62396
98.5786 125.971 189.786 -0.379853 0.682924 -0.62396
99.0403 126.223 189.781 -0.379853 0.682924 -0.62396
99.4518 125.839 189.662 0.389891 0.627219 -0.674226
98.9882 125.846 189.4 0.389891 0.627219 -0.674226
99.0403 126.223 189.781 0.389891 0.627219 -0.674226
99.0126 125.063 189.658 -0.745923 -0.644817 0.166763
98.9485 125.227 190.006 -0.745923 -0.644817 0.166763
98.7901 125.328 189.686 -0.745923 -0.644817 0.166763
99.0126 125.063 189.658 0.459612 -0.767367 0.447108
99.243 125.286 189.803 0.459612 -0.767367 0.447108
98.9485 125.227 190.006 0.459612 -0.767367 0.447108
98.9485 125.227 190.006 -0.512926 -0.603204 0.61078
99.013 125.568 190.396 -0.512926 -0.603204 0.61078
98.6462 125.82 190.337 -0.512926 -0.603204 0.61078
98.9485 125.227 190.006 -0.808698 -0.541164 0.230538
98.6462 125.82 190.337 -0.808698 -0.541164 0.230538
98.7901 125.328 189.686 -0.808698 -0.541164 0.230538
98.7901 125.328 189.686 -0.948138 -0.316451 0.029875
98.6462 125.82 190.337 -0.948138 -0.316451 0.029875
98.5786 125.971 189.786 -0.948138 -0.316451 0.029875
99.013 125.568 190.396 0.496577 -0.693122 0.522487
98.9485 125.227 190.006 0.496577 -0.693122 0.522487
99.243 125.286 189.803 0.496577 -0.693122 0.522487
99.013 125.568 190.396 0.769731 -0.406704 0.492043
99.243 125.286 189.803 0.769731 -0.406704 0.492043
99.2655 125.935 190.305 0.769731 -0.406704 0.492043
99.2655 125.935 190.305 0.914286 -0.266972 0.304643
99.243 125.286 189.803 0.914286 -0.266972 0.304643
99.4518 125.839 189.662 0.914286 -0.266972 0.304643
98.5786 125.971 189.786 -0.783809 0.567895 0.251274
98.6462 125.82 190.337 -0.783809 0.567895 0.251274
98.9113 126.178 190.355 -0.783809 0.567895 0.251274
99.0403 126.223 189.781 -0.479447 0.876685 -0.0394216
98.5786 125.971 189.786 -0.479447 0.876685 -0.0394216
98.9113 126.178 190.355 -0.479447 0.876685 -0.0394216
99.2655 125.935 190.305 0.693763 0.713993 0.094377
99.4518 125.839 189.662 0.693763 0.713993 0.094377
99.0403 126.223 189.781 0.693763 0.713993 0.094377
98.9113 126.178 190.355 0.573971 0.796266 0.191095
99.2655 125.935 190.305 0.573971 0.796266 0.191095
99.0403 126.223 189.781 0.573971 0.796266 0.191095
99.013 125.568 190.396 -0.434252 -0.448877 0.780983
98.9703 125.962 190.599 -0.434252 -0.448877 0.780983
98.6462 125.82 190.337 -0.434252 -0.448877 0.780983
99.013 125.568 190.396 0.663694 -0.283893 0.692036
99.2655 125.935 190.305 0.663694 -0.283893 0.692036
98.9703 125.962 190.599 0.663694 -0.283893 0.692036
98.6462 125.82 190.337 -0.669575 0.467411 0.577232
98.9703 125.962 190.599 -0.669575 0.467411 0.577232
98.9113 126.178 190.355 -0.669575 0.467411 0.577232
99.2655 125.935 190.305 0.541403 0.689165 0.481596
98.9113 126.178 190.355 0.541403 0.689165 0.481596
98.9703 125.962 190.599 0.541403 0.689165 0.481596
3 0 1 2
3 3 4 5
3 6 7 8
3 9 10 11
3 12 13 14
3 15 16 17
3 18 19 20
3 21 22 23
3 24 25 26
3 27 28 29
3 30 31 32
3 33 34 35
3 36 37 38
3 39 40 41
3 42 43 44
3 45 46 47
3 48 49 50
3 51 52 53
3 54 55 56
3 57 58 59
3 60 61 62
3 63 64 65
3 66 67 68
3 69 70 71
