ply
format ascii 1.0
element vertex 222
property float x
property float y
property float z
property float nx
property float ny
property float nz
element face 74
property list uint uint vertex_indices
end_header
58.119 145.195 159.537 -0.128094 -0.950722 -0.282348
58.3258 145.206 159.406 -0.128094 -0.950722 -0.282348
58.5682 145.122 159.577 -0.128094 -0.950722 -0.282348
57.5739 145.836 159.369 -0.424405 -0.731171 -0.534106
57.3891 145.697 159.706 -0.424405 -0.731171 -0.534106
57.0988 145.971 159.562 -0.424405 -0.731171 -0.534106
58.119 145.195 159.537 -0.554133 -0.617349 -0.558406
57.3891 145.697 159.706 -0.554133 -0.617349 -0.558406
57.5739 145.836 159.369 -0.554133 -0.617349 -0.558406
58.119 145.195 159.537 -0.426873 -0.550798 -0.717218
57.5739 145.836 159.369 -0.426873 -0.550798 -0.717218
58.3258 145.206 159.406 -0.426873 -0.550798 -0.717218
58.3258 145.206 159.406 -0.0442315 -0.110019 -0.992945
57.5739 145.836 159.369 -0.0442315 -0.110019 -0.992945
58.2968 145.797 159.341 -0.0442315 -0.110019 -0.992945
59.0469 145.694 159.649 0.480178 -0.298141 -0.824949
58.5682 145.122 159.577 0.480178 -0.298141 -0.824949
58.3258 145.206 159.406 0.480178 -0.298141 -0.824949
59.0469 145.694 159.649 0.368427 -0.0825109 -0.925988
58.3258 145.206 159.406 0.368427 -0.0825109 -0.925988
58.2968 145.797 159.341 0.368427 -0.0825109 -0.925988
57.099 146.591 159.607 -0.358899 0.0672262 -0.930952
57.5739 145.836 159.369 -0.358899 0.0672262 -0.930952
57.0988 145.971 159.562 -0.358899 0.0672262 -0.930952
58.2968 145.797 159.341 -0.0346823 0.0708088 -0.996887
57.5739 145.836 159.369 -0.0346823 0.0708088 -0.996887
58.1978 146.543 159.398 -0.0346823 0.0708088 -0.996887
58.1978 146.543 159.398 -0.175271 0.193584 -0.965301
57.5739 145.836 159.369 -0.175271 0.193584 -0.965301
57.099 146.591 159.607 -0.175271 0.193584 -0.965301
59.0535 146.633 159.463 0.379006 -0.182024 -0.907316
59.3078 146.472 159.602 0.379006 -0.182024 -0.907316
59.0469 145.694 159.649 0.379006 -0.182024 -0.907316
59.0535 146.633 159.463 0.0951395 -0.193699 -0.976437
59.0469 145.694 159.649 0.0951395 -0.193699 -0.976437
58.1978 146.543 159.398 0.0951395 -0.193699 -0.976437
58.1978 146.543 159.398 0.390946 0.12096 -0.912431
59.0469 145.694 159.649 0.390946 0.12096 -0.912431
58.2968 145.797 159.341 0.390946 0.12096 -0.912431
58.1978 146.543 159.398 -0.14671 0.459864 -0.875786
57.099 146.591 159.607 -0.14671 0.459864 -0.875786
57.4337 146.899 159.713 -0.14671 0.459864 -0.875786
58.4622 146.88 159.638 -0.0459289 0.604704 -0.795125
58.1978 146.543 159.398 -0.0459289 0.604704 -0.795125
57.4337 146.899 159.713 -0.0459289 0.604704 -0.795125
59.0535 146.633 159.463 0.00132771 0.580997 -0.813905
58.1978 146.543 159.398 0.00132771 0.580997 -0.813905
58.4622 146.88 159.638 0.00132771 0.580997 -0.813905
57.3891 145.697 159.706 -0.398878 -0.90643 0.138855
57.426 145.797 160.461 -0.398878 -0.90643 0.138855
56.7173 146.072 160.221 -0.398878 -0.90643 0.138855
57.0988 145.971 159.562 -0.603576 -0.762699 -0.232348
57.3891 145.697 159.706 -0.603576 -0.762699 -0.232348
56.7173 146.072 160.221 -0.603576 -0.762699 -0.232348
58.119 145.195 159.537 -0.403587 -0.757915 0.512525
58.4122 145.587 160.348 -0.403587 -0.757915 0.512525
57.3891 145.697 159.706 -0.403587 -0.757915 0.512525
58.4122 145.587 160.348 -0.19126 -0.971883 0.137344
57.426 145.797 160.461 -0.19126 -0.971883 0.137344
57.3891 145.697 159.706 -0.19126 -0.971883 0.137344
58.5682 145.122 159.577 -0.180285 -0.858351 0.480344
58.4122 145.587 160.348 -0.180285 -0.858351 0.480344
58.119 145.195 159.537 -0.180285 -0.858351 0.480344
58.5682 145.122 159.577 0.637702 -0.596042 0.487925
59.0469 145.694 159.649 0.637702 -0.596042 0.487925
58.4122 145.587 160.348 0.637702 -0.596042 0.487925
59.0469 145.694 159.649 -0.111854 -0.962065 -0.248837
59.1833 145.481 160.411 -0.111854 -0.962065 -0.248837
58.4122 145.587 160.348 -0.111854 -0.962065 -0.248837
59.3565 145.852 160.508 0.899421 -0.351896 -0.25925
59.1833 145.481 160.411 0.899421 -0.351896 -0.25925
59.0469 145.694 159.649 0.899421 -0.351896 -0.25925
56.3469 146.698 160.267 -0.793095 -0.515324 -0.324716
56.3561 146.554 160.473 -0.793095 -0.515324 -0.324716
56.2227 146.8 160.409 -0.793095 -0.515324 -0.324716
56.3469 146.698 160.267 -0.832344 -0.471084 -0.292033
56.7173 146.072 160.221 -0.832344 -0.471084 -0.292033
56.3561 146.554 160.473 -0.832344 -0.471084 -0.292033
56.3469 146.698 160.267 -0.64854 -0.333485 -0.68424
57.099 146.591 159.607 -0.64854 -0.333485 -0.68424
56.7173 146.072 160.221 -0.64854 -0.333485 -0.68424
57.099 146.591 159.607 -0.862493 0.0366335 -0.504741
57.0988 145.971 159.562 -0.862493 0.0366335 -0.504741
56.7173 146.072 160.221 -0.862493 0.0366335 -0.504741
59.3078 146.472 159.602 0.623898 0.41517 -0.662107
59.0535 146.633 159.463 0.623898 0.41517 -0.662107
59.2088 146.785 159.705 0.623898 0.41517 -0.662107
59.3078 146.472 159.602 0.943085 0.323506 -0.0770319
59.2088 146.785 159.705 0.943085 0.323506 -0.0770319
59.3479 146.525 160.317 0.943085 0.323506 -0.0770319
59.3078 146.472 159.602 0.947184 -0.319356 -0.0292119
59.3479 146.525 160.317 0.947184 -0.319356 -0.0292119
59.0469 145.694 159.649 0.947184 -0.319356 -0.0292119
59.0469 145.694 159.649 0.942385 -0.0801757 -0.324781
59.3479 146.525 160.317 0.942385 -0.0801757 -0.324781
59.3565 145.852 160.508 0.942385 -0.0801757 -0.324781
56.3469 146.698 160.267 -0.549706 0.370204 -0.748847
56.2227 146.8 160.409 -0.549706 0.370204 -0.748847
56.498 146.853 160.233 -0.549706 0.370204 -0.748847
57.099 146.591 159.607 -0.572267 0.399388 -0.71624
56.3469 146.698 160.267 -0.572267 0.399388 -0.71624
56.498 146.853 160.233 -0.572267 0.399388 -0.71624
57.099 146.591 159.607 -0.393668 0.650152 -0.649868
56.498 146.853 160.233 -0.393668 0.650152 -0.649868
57.4337 146.899 159.713 -0.393668 0.650152 -0.649868
57.4337 146.899 159.713 -0.10764 0.988585 -0.10542
56.498 146.853 160.233 -0.10764 0.988585 -0.10542
57.1374 146.938 160.381 -0.10764 0.988585 -0.10542
58.4622 146.88 159.638 0.0135833 0.997042 -0.0756464
57.4337 146.899 159.713 0.0135833 0.997042 -0.0756464
58.0725 146.94 160.367 0.0135833 0.997042 -0.0756464
57.4337 146.899 159.713 -0.00293982 0.99822 -0.0595743
57.1374 146.938 160.381 -0.00293982 0.99822 -0.0595743
58.0725 146.94 160.367 -0.00293982 0.99822 -0.0595743
59.2088 146.785 159.705 0.153083 0.789199 -0.594753
59.0535 146.633 159.463 0.153083 0.789199 -0.594753
58.4622 146.88 159.638 0.153083 0.789199 -0.594753
59.2088 146.785 159.705 0.130328 0.990022 -0.0535898
58.4622 146.88 159.638 0.130328 0.990022 -0.0535898
59.0155 146.846 160.365 0.130328 0.990022 -0.0535898
59.0155 146.846 160.365 0.0991485 0.994631 -0.0296401
58.4622 146.88 159.638 0.0991485 0.994631 -0.0296401
58.0725 146.94 160.367 0.0991485 0.994631 -0.0296401
59.3479 146.525 160.317 0.698103 0.702304 0.139364
59.2088 146.785 159.705 0.698103 0.702304 0.139364
59.0155 146.846 160.365 0.698103 0.702304 0.139364
57.426 145.797 160.461 -0.452554 -0.761316 0.464321
57.2018 146.178 160.868 -0.452554 -0.761316 0.464321
56.7173 146.072 160.221 -0.452554 -0.761316 0.464321
57.426 145.797 160.461 -0.132807 -0.874548 0.466399
58.4122 145.587 160.348 -0.132807 -0.874548 0.466399
58.334 146.008 161.115 -0.132807 -0.874548 0.466399
57.2018 146.178 160.868 -0.244539 -0.770978 0.588042
57.426 145.797 160.461 -0.244539 -0.770978 0.588042
58.334 146.008 161.115 -0.244539 -0.770978 0.588042
58.8467 145.848 161.247 -0.366716 -0.830848 0.418582
58.334 146.008 161.115 -0.366716 -0.830848 0.418582
58.4122 145.587 160.348 -0.366716 -0.830848 0.418582
58.8467 145.848 161.247 -0.0715025 -0.948067 0.309929
58.4122 145.587 160.348 -0.0715025 -0.948067 0.309929
59.2067 145.77 161.093 -0.0715025 -0.948067 0.309929
59.2067 145.77 161.093 -0.156846 -0.907005 0.39082
58.4122 145.587 160.348 -0.156846 -0.907005 0.39082
59.1833 145.481 160.411 -0.156846 -0.907005 0.39082
59.2067 145.77 161.093 0.877478 -0.451513 0.161769
59.1833 145.481 160.411 0.877478 -0.451513 0.161769
59.3565 145.852 160.508 0.877478 -0.451513 0.161769
59.3506 146.033 161.153 0.852506 -0.501198 0.148439
59.2067 145.77 161.093 0.852506 -0.501198 0.148439
59.3565 145.852 160.508 0.852506 -0.501198 0.148439
56.3561 146.554 160.473 -0.480258 -0.0336842 0.87648
56.4996 146.759 160.559 -0.480258 -0.0336842 0.87648
56.2227 146.8 160.409 -0.480258 -0.0336842 0.87648
56.3561 146.554 160.473 -0.5374 -0.669458 0.512862
56.7173 146.072 160.221 -0.5374 -0.669458 0.512862
57.2018 146.178 160.868 -0.5374 -0.669458 0.512862
56.3561 146.554 160.473 -0.445778 -0.0647926 0.892795
57.2018 146.178 160.868 -0.445778 -0.0647926 0.892795
56.4996 146.759 160.559 -0.445778 -0.0647926 0.892795
56.4996 146.759 160.559 -0.342908 0.0823973 0.935748
57.2018 146.178 160.868 -0.342908 0.0823973 0.935748
57.3411 146.773 160.866 -0.342908 0.0823973 0.935748
58.334 146.008 161.115 -0.192477 0.134277 0.972071
58.2512 146.676 161.007 -0.192477 0.134277 0.972071
57.2018 146.178 160.868 -0.192477 0.134277 0.972071
58.2512 146.676 161.007 -0.148408 0.0369773 0.988235
57.3411 146.773 160.866 -0.148408 0.0369773 0.988235
57.2018 146.178 160.868 -0.148408 0.0369773 0.988235
59.1557 146.082 161.324 -0.246992 0.00529397 0.969003
58.334 146.008 161.115 -0.246992 0.00529397 0.969003
58.8467 145.848 161.247 -0.246992 0.00529397 0.969003
59.1557 146.082 161.324 -0.250803 0.56407 0.786716
59.1241 146.562 160.97 -0.250803 0.56407 0.786716
58.334 146.008 161.115 -0.250803 0.56407 0.786716
59.1241 146.562 160.97 0.0635482 0.167861 0.98376
58.2512 146.676 161.007 0.0635482 0.167861 0.98376
58.334 146.008 161.115 0.0635482 0.167861 0.98376
59.1241 146.562 160.97 0.644855 0.480887 0.594062
59.1557 146.082 161.324 0.644855 0.480887 0.594062
59.3506 146.033 161.153 0.644855 0.480887 0.594062
59.1241 146.562 160.97 0.849854 0.455185 0.265621
59.3506 146.033 161.153 0.849854 0.455185 0.265621
59.3479 146.525 160.317 0.849854 0.455185 0.265621
59.3479 146.525 160.317 0.999885 0.0142558 0.00519482
59.3506 146.033 161.153 0.999885 0.0142558 0.00519482
59.3565 145.852 160.508 0.999885 0.0142558 0.00519482
56.2227 146.8 160.409 -0.00834357 0.960716 0.277409
56.4996 146.759 160.559 -0.00834357 0.960716 0.277409
56.498 146.853 160.233 -0.00834357 0.960716 0.277409
57.1374 146.938 160.381 -0.189362 0.94313 0.273217
56.498 146.853 160.233 -0.189362 0.94313 0.273217
56.4996 146.759 160.559 -0.189362 0.94313 0.273217
57.3411 146.773 160.866 -0.152577 0.914046 0.375819
57.1374 146.938 160.381 -0.152577 0.914046 0.375819
56.4996 146.759 160.559 -0.152577 0.914046 0.375819
58.0725 146.94 160.367 0.00325664 0.946893 0.321533
57.1374 146.938 160.381 0.00325664 0.946893 0.321533
57.3411 146.773 160.866 0.00325664 0.946893 0.321533
58.2512 146.676 161.007 0.0412921 0.927794 0.370801
58.0725 146.94 160.367 0.0412921 0.927794 0.370801
57.3411 146.773 160.866 0.0412921 0.927794 0.370801
59.0155 146.846 160.365 0.0931986 0.929448 0.356988
58.0725 146.94 160.367 0.0931986 0.929448 0.356988
58.2512 146.676 161.007 0.0931986 0.929448 0.356988
59.1241 146.562 160.97 0.135413 0.905982 0.401074
59.0155 146.846 160.365 0.135413 0.905982 0.401074
58.2512 146.676 161.007 0.135413 0.905982 0.401074
59.3479 146.525 160.317 0.69536 0.690478 0.199287
59.0155 146.846 160.365 0.69536 0.690478 0.199287
59.1241 146.562 160.97 0.69536 0.690478 0.199287
59.2067 145.77 161.093 -0.0237288 -0.914166 0.404645
59.2612 145.889 161.365 -0.0237288 -0.914166 0.404645
58.8467 145.848 161.247 -0.0237288 -0.914166 0.404645
59.2067 145.77 161.093 0.872486 -0.487149 0.0381397
59.3506 146.033 161.153 0.872486 -0.487149 0.0381397
59.2612 145.889 161.365 0.872486 -0.487149 0.0381397
58.8467 145.848 161.247 -0.277302 0.0484872 0.959559
59.2612 145.889 161.365 -0.277302 0.0484872 0.959559
59.1557 146.082 161.324 -0.277302 0.0484872 0.959559
59.3506 146.033 161.153 0.645551 0.477924 0.595695
59.1557 146.082 161.324 0.645551 0.477924 0.595695
59.2612 145.889 161.365 0.645551 0.477924 0.595695
3 0 1 2
3 3 4 5
3 6 7 8
3 9 10 11
3 12 13 14
3 15 16 17
3 18 19 20
3 21 22 23
3 24 25 26
3 27 28 29
3 30 31 32
3 33 34 35
3 36 37 38
3 39 40 41
3 42 43 44
3 45 46 47
3 48 49 50
3 51 52 53
3 54 55 56
3 57 58 59
3 60 61 62
3 63 64 65
3 66 67 68
3 69 70 71
3 72 73 74
3 75 76 77
3 78 79 80
3 81 82 83
3 84 85 86
3 87 88 89
3 90 91 92
3 93 94 95
3 96 97 98
3 99 100 101
3 102 103 104
3 105 106 107
3 108 109 110
3 111 112 113
3 114 115 116
3 117 118 119
3 120 121 122
3 123 124 125
3 126 127 128
3 129 130 131
3 132 133 134
3 135 136 137
3 138 139 140
3 141 142 143
3 144 145 146
3 147 148 149
3 150 151 152
3 153 154 155
3 156 157 158
3 159 160 161
3 162 163 164
3 165 166 167
3 168 169 170
3 171 172 173
3 174 175 176
3 177 178 179
3 180 181 182
3 183 184 185
3 186 187 188
3 189 190 191
3 192 193 194
3 195 196 197
3 198 199 200
3 201 202 203
3 204 205 206
3 207 208 209
3 210 211 212
3 213 214 215
3 216 217 218
3 219 220 221
