ply
format ascii 1.0
element vertex 282
property float x
property float y
property float z
property float nx
property float ny
property float nz
element face 94
property list uint uint vertex_indices
end_header
114.369 119.581 162.57 -0.188003 -0.104244 -0.976621
114.411 118.849 162.64 -0.188003 -0.104244 -0.976621
114.114 118.972 162.684 -0.188003 -0.104244 -0.976621
114.135 119.817 162.632 -0.305917 -0.050058 -0.950741
114.369 119.581 162.57 -0.305917 -0.050058 -0.950741
114.114 118.972 162.684 -0.305917 -0.050058 -0.950741
114.702 119.681 162.842 0.585247 -0.00729372 -0.810823
114.584 118.787 162.765 0.585247 -0.00729372 -0.810823
114.411 118.849 162.64 0.585247 -0.00729372 -0.810823
114.369 119.581 162.57 0.638401 -0.0360469 -0.768859
114.702 119.681 162.842 0.638401 -0.0360469 -0.768859
114.411 118.849 162.64 0.638401 -0.0360469 -0.768859
114.369 119.581 162.57 -0.00864257 0.248298 -0.968645
114.135 119.817 162.632 -0.00864257 0.248298 -0.968645
114.461 120.12 162.707 -0.00864257 0.248298 -0.968645
114.702 119.681 162.842 0.612123 0.0955562 -0.784968
114.369 119.581 162.57 0.612123 0.0955562 -0.784968
114.461 120.12 162.707 0.612123 0.0955562 -0.784968
114.42 118.144 163.095 -0.26969 -0.694641 -0.666889
114.464 117.698 163.542 -0.26969 -0.694641 -0.666889
113.963 117.926 163.507 -0.26969 -0.694641 -0.666889
114.464 117.698 163.542 0.386864 -0.633129 -0.670436
114.42 118.144 163.095 0.386864 -0.633129 -0.670436
115.121 118.071 163.568 0.386864 -0.633129 -0.670436
113.564 118.648 163.141 -0.686848 -0.6285 -0.365003
113.545 118.294 163.788 -0.686848 -0.6285 -0.365003
113.083 118.944 163.536 -0.686848 -0.6285 -0.365003
113.963 117.926 163.507 -0.73897 -0.581254 -0.340685
113.545 118.294 163.788 -0.73897 -0.581254 -0.340685
113.564 118.648 163.141 -0.73897 -0.581254 -0.340685
114.42 118.144 163.095 -0.378069 -0.576474 -0.724391
113.963 117.926 163.507 -0.378069 -0.576474 -0.724391
113.564 118.648 163.141 -0.378069 -0.576474 -0.724391
114.42 118.144 163.095 -0.346382 -0.51722 -0.782625
113.564 118.648 163.141 -0.346382 -0.51722 -0.782625
114.114 118.972 162.684 -0.346382 -0.51722 -0.782625
114.42 118.144 163.095 -0.330297 -0.515318 -0.790791
114.114 118.972 162.684 -0.330297 -0.515318 -0.790791
114.411 118.849 162.64 -0.330297 -0.515318 -0.790791
114.584 118.787 162.765 0.387062 -0.497215 -0.776505
114.42 118.144 163.095 0.387062 -0.497215 -0.776505
114.411 118.849 162.64 0.387062 -0.497215 -0.776505
114.584 118.787 162.765 0.575244 -0.484814 -0.658825
115.17 118.8 163.267 0.575244 -0.484814 -0.658825
114.42 118.144 163.095 0.575244 -0.484814 -0.658825
115.17 118.8 163.267 0.496138 -0.35994 -0.790121
115.121 118.071 163.568 0.496138 -0.35994 -0.790121
114.42 118.144 163.095 0.496138 -0.35994 -0.790121
115.17 118.8 163.267 0.855907 -0.245918 -0.454914
115.467 118.957 163.74 0.855907 -0.245918 -0.454914
115.121 118.071 163.568 0.855907 -0.245918 -0.454914
113.491 119.709 162.958 -0.685431 -0.169179 -0.708211
113.564 118.648 163.141 -0.685431 -0.169179 -0.708211
113.083 118.944 163.536 -0.685431 -0.169179 -0.708211
112.946 119.809 163.611 -0.770447 -0.0676237 -0.633907
113.491 119.709 162.958 -0.770447 -0.0676237 -0.633907
113.083 118.944 163.536 -0.770447 -0.0676237 -0.633907
114.114 118.972 162.684 -0.44522 -0.0430892 -0.894384
113.491 119.709 162.958 -0.44522 -0.0430892 -0.894384
114.135 119.817 162.632 -0.44522 -0.0430892 -0.894384
113.564 118.648 163.141 -0.565471 -0.177734 -0.80539
113.491 119.709 162.958 -0.565471 -0.177734 -0.80539
114.114 118.972 162.684 -0.565471 -0.177734 -0.80539
115.17 118.8 163.267 0.706761 0.0346267 -0.706605
114.702 119.681 162.842 0.706761 0.0346267 -0.706605
115.401 119.621 163.538 0.706761 0.0346267 -0.706605
114.584 118.787 162.765 0.650811 -0.0204103 -0.758965
114.702 119.681 162.842 0.650811 -0.0204103 -0.758965
115.17 118.8 163.267 0.650811 -0.0204103 -0.758965
115.401 119.621 163.538 0.855679 -0.0712365 -0.51258
115.467 118.957 163.74 0.855679 -0.0712365 -0.51258
115.17 118.8 163.267 0.855679 -0.0712365 -0.51258
113.418 120.786 163.112 -0.763536 0.0395334 -0.644554
113.491 119.709 162.958 -0.763536 0.0395334 -0.644554
112.946 119.809 163.611 -0.763536 0.0395334 -0.644554
112.954 120.784 163.667 -0.767311 0.0437926 -0.639778
113.418 120.786 163.112 -0.767311 0.0437926 -0.639778
112.946 119.809 163.611 -0.767311 0.0437926 -0.639778
114.135 119.817 162.632 -0.104358 0.342475 -0.933713
114.258 120.719 162.949 -0.104358 0.342475 -0.933713
114.461 120.12 162.707 -0.104358 0.342475 -0.933713
114.135 119.817 162.632 -0.469277 0.349248 -0.811052
113.491 119.709 162.958 -0.469277 0.349248 -0.811052
114.258 120.719 162.949 -0.469277 0.349248 -0.811052
113.491 119.709 162.958 -0.178301 0.126929 -0.975755
113.418 120.786 163.112 -0.178301 0.126929 -0.975755
114.258 120.719 162.949 -0.178301 0.126929 -0.975755
114.461 120.12 162.707 0.513798 0.465193 -0.720837
114.258 120.719 162.949 0.513798 0.465193 -0.720837
114.897 120.681 163.38 0.513798 0.465193 -0.720837
114.702 119.681 162.842 0.734399 0.20495 -0.647035
114.461 120.12 162.707 0.734399 0.20495 -0.647035
114.897 120.681 163.38 0.734399 0.20495 -0.647035
114.702 119.681 162.842 0.763062 0.184511 -0.61943
114.897 120.681 163.38 0.763062 0.184511 -0.61943
115.242 120.337 163.703 0.763062 0.184511 -0.61943
114.702 119.681 162.842 0.68513 0.304258 -0.661834
115.242 120.337 163.703 0.68513 0.304258 -0.661834
115.401 119.621 163.538 0.68513 0.304258 -0.661834
113.376 121.589 163.332 -0.761215 0.134779 -0.634339
113.418 120.786 163.112 -0.761215 0.134779 -0.634339
112.954 120.784 163.667 -0.761215 0.134779 -0.634339
113.27 121.53 163.758 -0.900209 0.401981 -0.167437
113.376 121.589 163.332 -0.900209 0.401981 -0.167437
112.954 120.784 163.667 -0.900209 0.401981 -0.167437
114.258 120.719 162.949 -0.154308 0.324456 -0.933229
113.418 120.786 163.112 -0.154308 0.324456 -0.933229
114.085 121.629 163.294 -0.154308 0.324456 -0.933229
114.085 121.629 163.294 -0.0654511 0.260595 -0.963227
113.418 120.786 163.112 -0.0654511 0.260595 -0.963227
113.376 121.589 163.332 -0.0654511 0.260595 -0.963227
114.572 121.454 163.522 0.535424 0.364745 -0.761763
114.897 120.681 163.38 0.535424 0.364745 -0.761763
114.258 120.719 162.949 0.535424 0.364745 -0.761763
114.085 121.629 163.294 0.500609 0.388733 -0.773484
114.572 121.454 163.522 0.500609 0.388733 -0.773484
114.258 120.719 162.949 0.500609 0.388733 -0.773484
113.376 121.589 163.332 -0.847446 0.512407 -0.138833
113.27 121.53 163.758 -0.847446 0.512407 -0.138833
113.56 121.954 163.561 -0.847446 0.512407 -0.138833
114.085 121.629 163.294 -0.0748191 0.557322 -0.826919
113.376 121.589 163.332 -0.0748191 0.557322 -0.826919
113.56 121.954 163.561 -0.0748191 0.557322 -0.826919
114.225 121.742 163.74 0.366676 0.867479 -0.336198
114.085 121.629 163.294 0.366676 0.867479 -0.336198
113.56 121.954 163.561 0.366676 0.867479 -0.336198
114.572 121.454 163.522 0.457171 0.816824 -0.351842
114.085 121.629 163.294 0.457171 0.816824 -0.351842
114.225 121.742 163.74 0.457171 0.816824 -0.351842
114.464 117.698 163.542 -0.395778 -0.802366 0.446731
114.43 117.93 163.928 -0.395778 -0.802366 0.446731
113.963 117.926 163.507 -0.395778 -0.802366 0.446731
114.43 117.93 163.928 0.414838 -0.763091 0.495583
114.464 117.698 163.542 0.414838 -0.763091 0.495583
115.121 118.071 163.568 0.414838 -0.763091 0.495583
113.545 118.294 163.788 -0.698151 -0.618154 0.361208
113.59 118.651 164.486 -0.698151 -0.618154 0.361208
113.219 118.943 164.269 -0.698151 -0.618154 0.361208
113.083 118.944 163.536 -0.832978 -0.53167 0.153217
113.545 118.294 163.788 -0.832978 -0.53167 0.153217
113.219 118.943 164.269 -0.832978 -0.53167 0.153217
114.43 117.93 163.928 -0.39953 -0.798191 0.450852
113.545 118.294 163.788 -0.39953 -0.798191 0.450852
113.963 117.926 163.507 -0.39953 -0.798191 0.450852
114.43 117.93 163.928 -0.395116 -0.765197 0.508289
114.32 118.286 164.379 -0.395116 -0.765197 0.508289
113.545 118.294 163.788 -0.395116 -0.765197 0.508289
114.32 118.286 164.379 -0.347319 -0.825531 0.444824
113.59 118.651 164.486 -0.347319 -0.825531 0.444824
113.545 118.294 163.788 -0.347319 -0.825531 0.444824
114.32 118.286 164.379 0.540671 -0.55353 0.633466
115.133 118.616 163.974 0.540671 -0.55353 0.633466
114.71 118.796 164.492 0.540671 -0.55353 0.633466
114.32 118.286 164.379 0.539152 -0.592244 0.5988
114.43 117.93 163.928 0.539152 -0.592244 0.5988
115.133 118.616 163.974 0.539152 -0.592244 0.5988
114.43 117.93 163.928 0.474607 -0.532922 0.700529
115.121 118.071 163.568 0.474607 -0.532922 0.700529
115.133 118.616 163.974 0.474607 -0.532922 0.700529
115.121 118.071 163.568 0.763127 -0.397273 0.509717
115.467 118.957 163.74 0.763127 -0.397273 0.509717
115.133 118.616 163.974 0.763127 -0.397273 0.509717
113.083 118.944 163.536 -0.969193 -0.169469 0.17873
113.219 118.943 164.269 -0.969193 -0.169469 0.17873
112.946 119.809 163.611 -0.969193 -0.169469 0.17873
113.219 118.943 164.269 -0.969954 -0.193735 0.14716
113.056 119.833 164.371 -0.969954 -0.193735 0.14716
112.946 119.809 163.611 -0.969954 -0.193735 0.14716
115.133 118.616 163.974 0.665513 -0.343653 0.662567
115.126 119.565 164.474 0.665513 -0.343653 0.662567
114.71 118.796 164.492 0.665513 -0.343653 0.662567
115.126 119.565 164.474 0.73746 -0.310113 0.599986
115.133 118.616 163.974 0.73746 -0.310113 0.599986
115.467 118.957 163.74 0.73746 -0.310113 0.599986
115.126 119.565 164.474 0.734392 -0.313957 0.601746
115.467 118.957 163.74 0.734392 -0.313957 0.601746
115.438 119.764 164.196 0.734392 -0.313957 0.601746
115.438 119.764 164.196 0.994431 0.0766828 -0.0722985
115.467 118.957 163.74 0.994431 0.0766828 -0.0722985
115.401 119.621 163.538 0.994431 0.0766828 -0.0722985
112.946 119.809 163.611 -0.98962 0.000289092 0.143712
113.056 119.833 164.371 -0.98962 0.000289092 0.143712
112.954 120.784 163.667 -0.98962 0.000289092 0.143712
113.056 119.833 164.371 -0.906271 0.184364 0.380371
113.219 120.7 164.34 -0.906271 0.184364 0.380371
112.954 120.784 163.667 -0.906271 0.184364 0.380371
115.242 120.337 163.703 0.767535 0.600963 0.223012
114.682 120.891 164.138 0.767535 0.600963 0.223012
115.189 120.153 164.382 0.767535 0.600963 0.223012
114.897 120.681 163.38 0.704171 0.710024 0.00298685
114.682 120.891 164.138 0.704171 0.710024 0.00298685
115.242 120.337 163.703 0.704171 0.710024 0.00298685
115.438 119.764 164.196 0.965472 0.238162 -0.105555
115.401 119.621 163.538 0.965472 0.238162 -0.105555
115.242 120.337 163.703 0.965472 0.238162 -0.105555
115.189 120.153 164.382 0.866259 0.460947 0.192673
115.438 119.764 164.196 0.866259 0.460947 0.192673
115.242 120.337 163.703 0.866259 0.460947 0.192673
113.457 120.915 164.395 -0.574822 0.498189 0.649143
113.585 121.614 163.971 -0.574822 0.498189 0.649143
113.27 121.53 163.758 -0.574822 0.498189 0.649143
113.457 120.915 164.395 -0.59031 0.487488 0.643342
113.27 121.53 163.758 -0.59031 0.487488 0.643342
113.219 120.7 164.34 -0.59031 0.487488 0.643342
113.219 120.7 164.34 -0.866741 0.320987 0.381743
113.27 121.53 163.758 -0.866741 0.320987 0.381743
112.954 120.784 163.667 -0.866741 0.320987 0.381743
113.585 121.614 163.971 0.176795 0.566703 0.80473
114.312 120.686 164.465 0.176795 0.566703 0.80473
114.225 121.742 163.74 0.176795 0.566703 0.80473
113.457 120.915 164.395 0.0655357 0.508309 0.858677
114.312 120.686 164.465 0.0655357 0.508309 0.858677
113.585 121.614 163.971 0.0655357 0.508309 0.858677
114.225 121.742 163.74 0.362701 0.547259 0.754291
114.312 120.686 164.465 0.362701 0.547259 0.754291
114.682 120.891 164.138 0.362701 0.547259 0.754291
114.225 121.742 163.74 0.721012 0.570614 0.393117
114.682 120.891 164.138 0.721012 0.570614 0.393117
114.572 121.454 163.522 0.721012 0.570614 0.393117
114.572 121.454 163.522 0.920148 0.356584 0.161785
114.682 120.891 164.138 0.920148 0.356584 0.161785
114.897 120.681 163.38 0.920148 0.356584 0.161785
113.27 121.53 163.758 -0.545848 0.627954 0.554728
113.585 121.614 163.971 -0.545848 0.627954 0.554728
113.56 121.954 163.561 -0.545848 0.627954 0.554728
114.225 121.742 163.74 0.0750121 0.769412 0.634333
113.56 121.954 163.561 0.0750121 0.769412 0.634333
113.585 121.614 163.971 0.0750121 0.769412 0.634333
113.59 118.651 164.486 -0.674415 -0.392362 0.625473
113.507 119.103 164.68 -0.674415 -0.392362 0.625473
113.219 118.943 164.269 -0.674415 -0.392362 0.625473
113.59 118.651 164.486 -0.149818 -0.541816 0.827037
114.32 118.286 164.379 -0.149818 -0.541816 0.827037
114.306 118.901 164.779 -0.149818 -0.541816 0.827037
113.507 119.103 164.68 -0.215353 -0.418795 0.882176
113.59 118.651 164.486 -0.215353 -0.418795 0.882176
114.306 118.901 164.779 -0.215353 -0.418795 0.882176
114.32 118.286 164.379 0.41745 -0.488877 0.765986
114.71 118.796 164.492 0.41745 -0.488877 0.765986
114.306 118.901 164.779 0.41745 -0.488877 0.765986
113.507 119.103 164.68 -0.577953 -0.011067 0.815995
113.5 120.018 164.688 -0.577953 -0.011067 0.815995
113.056 119.833 164.371 -0.577953 -0.011067 0.815995
113.219 118.943 164.269 -0.76054 -0.208861 0.614782
113.507 119.103 164.68 -0.76054 -0.208861 0.614782
113.056 119.833 164.371 -0.76054 -0.208861 0.614782
114.306 118.901 164.779 -0.138442 -0.0615873 0.988454
114.249 119.689 164.821 -0.138442 -0.0615873 0.988454
113.507 119.103 164.68 -0.138442 -0.0615873 0.988454
114.249 119.689 164.821 -0.178714 -0.00949286 0.983855
113.5 120.018 164.688 -0.178714 -0.00949286 0.983855
113.507 119.103 164.68 -0.178714 -0.00949286 0.983855
114.71 118.796 164.492 0.514139 -0.258151 0.817936
115.126 119.565 164.474 0.514139 -0.258151 0.817936
114.306 118.901 164.779 0.514139 -0.258151 0.817936
114.306 118.901 164.779 0.364988 -0.0222867 0.930745
115.126 119.565 164.474 0.364988 -0.0222867 0.930745
114.249 119.689 164.821 0.364988 -0.0222867 0.930745
113.5 120.018 164.688 -0.436202 0.26017 0.861417
113.457 120.915 164.395 -0.436202 0.26017 0.861417
113.219 120.7 164.34 -0.436202 0.26017 0.861417
113.056 119.833 164.371 -0.613946 0.143555 0.776184
113.5 120.018 164.688 -0.613946 0.143555 0.776184
113.219 120.7 164.34 -0.613946 0.143555 0.776184
114.249 119.689 164.821 -0.0189539 0.336728 0.941411
114.312 120.686 164.465 -0.0189539 0.336728 0.941411
113.5 120.018 164.688 -0.0189539 0.336728 0.941411
114.312 120.686 164.465 0.00504037 0.310587 0.950531
113.457 120.915 164.395 0.00504037 0.310587 0.950531
113.5 120.018 164.688 0.00504037 0.310587 0.950531
115.189 120.153 164.382 0.386748 0.517798 0.763094
114.682 120.891 164.138 0.386748 0.517798 0.763094
114.312 120.686 164.465 0.386748 0.517798 0.763094
115.189 120.153 164.382 0.173652 0.133708 0.975688
114.312 120.686 164.465 0.173652 0.133708 0.975688
115.126 119.565 164.474 0.173652 0.133708 0.975688
115.126 119.565 164.474 0.387083 0.287962 0.875925
114.312 120.686 164.465 0.387083 0.287962 0.875925
114.249 119.689 164.821 0.387083 0.287962 0.875925
115.438 119.764 164.196 0.646062 0.048975 0.761712
115.189 120.153 164.382 0.646062 0.048975 0.761712
115.126 119.565 164.474 0.646062 0.048975 0.761712
3 0 1 2
3 3 4 5
3 6 7 8
3 9 10 11
3 12 13 14
3 15 16 17
3 18 19 20
3 21 22 23
3 24 25 26
3 27 28 29
3 30 31 32
3 33 34 35
3 36 37 38
3 39 40 41
3 42 43 44
3 45 46 47
3 48 49 50
3 51 52 53
3 54 55 56
3 57 58 59
3 60 61 62
3 63 64 65
3 66 67 68
3 69 70 71
3 72 73 74
3 75 76 77
3 78 79 80
3 81 82 83
3 84 85 86
3 87 88 89
3 90 91 92
3 93 94 95
3 96 97 98
3 99 100 101
3 102 103 104
3 105 106 107
3 108 109 110
3 111 112 113
3 114 115 116
3 117 118 119
3 120 121 122
3 123 124 125
3 126 127 128
3 129 130 131
3 132 133 134
3 135 136 137
3 138 139 140
3 141 142 143
3 144 145 146
3 147 148 149
3 150 151 152
3 153 154 155
3 156 157 158
3 159 160 161
3 162 163 164
3 165 166 167
3 168 169 170
3 171 172 173
3 174 175 176
3 177 178 179
3 180 181 182
3 183 184 185
3 186 187 188
3 189 190 191
3 192 193 194
3 195 196 197
3 198 199 200
3 201 202 203
3 204 205 206
3 207 208 209
3 210 211 212
3 213 214 215
3 216 217 218
3 219 220 221
3 222 223 224
3 225 226 227
3 228 229 230
3 231 232 233
3 234 235 236
3 237 238 239
3 240 241 242
3 243 244 245
3 246 247 248
3 249 250 251
3 252 253 254
3 255 256 257
3 258 259 260
3 261 262 263
3 264 265 266
3 267 268 269
3 270 271 272
3 273 274 275
3 276 277 278
3 279 280 281
