ply
format ascii 1.0
element vertex 276
property float x
property float y
property float z
property float nx
property float ny
property float nz
element face 92
property list uint uint vertex_indices
end_header
67.1516 101.338 165.75 -0.0226117 -0.35094 -0.936125
67.2029 100.644 166.009 -0.0226117 -0.35094 -0.936125
66.7775 101.107 165.846 -0.0226117 -0.35094 -0.936125
66.3993 102.097 165.626 -0.574308 -0.177308 -0.799207
66.154 101.715 165.887 -0.574308 -0.177308 -0.799207
66.0092 102.269 165.869 -0.574308 -0.177308 -0.799207
66.7775 101.107 165.846 -0.387021 -0.337746 -0.857987
66.154 101.715 165.887 -0.387021 -0.337746 -0.857987
66.3993 102.097 165.626 -0.387021 -0.337746 -0.857987
66.7775 101.107 165.846 -0.0928314 -0.248859 -0.964081
66.3993 102.097 165.626 -0.0928314 -0.248859 -0.964081
67.1516 101.338 165.75 -0.0928314 -0.248859 -0.964081
67.1516 101.338 165.75 -0.0205802 -0.180378 -0.983382
66.3993 102.097 165.626 -0.0205802 -0.180378 -0.983382
67.1545 102.222 165.588 -0.0205802 -0.180378 -0.983382
67.1545 102.222 165.588 0.386943 -0.167656 -0.906734
67.6698 102.007 165.847 0.386943 -0.167656 -0.906734
67.1516 101.338 165.75 0.386943 -0.167656 -0.906734
66.2658 103.094 165.723 -0.523329 0.0127116 -0.852036
66.3993 102.097 165.626 -0.523329 0.0127116 -0.852036
66.0092 102.269 165.869 -0.523329 0.0127116 -0.852036
66.0229 103.064 165.95 -0.685652 0.0859447 -0.722838
66.2658 103.094 165.723 -0.685652 0.0859447 -0.722838
66.0092 102.269 165.869 -0.685652 0.0859447 -0.722838
67.1545 102.222 165.588 -0.0294234 -0.129549 -0.991136
66.3993 102.097 165.626 -0.0294234 -0.129549 -0.991136
67.0447 103.091 165.477 -0.0294234 -0.129549 -0.991136
67.0447 103.091 165.477 -0.300621 0.0522714 -0.95231
66.3993 102.097 165.626 -0.300621 0.0522714 -0.95231
66.2658 103.094 165.723 -0.300621 0.0522714 -0.95231
67.7113 103.018 165.797 0.428383 -0.0621296 -0.901459
67.6698 102.007 165.847 0.428383 -0.0621296 -0.901459
67.1545 102.222 165.588 0.428383 -0.0621296 -0.901459
67.0447 103.091 165.477 0.42665 -0.0606746 -0.902379
67.7113 103.018 165.797 0.42665 -0.0606746 -0.902379
67.1545 102.222 165.588 0.42665 -0.0606746 -0.902379
66.2658 103.094 165.723 -0.291081 0.247299 -0.924183
66.9487 103.885 165.72 -0.291081 0.247299 -0.924183
67.0447 103.091 165.477 -0.291081 0.247299 -0.924183
67.5711 103.887 165.747 0.434436 0.018332 -0.900516
67.7113 103.018 165.797 0.434436 0.018332 -0.900516
67.0447 103.091 165.477 0.434436 0.018332 -0.900516
66.9487 103.885 165.72 0.0414648 0.296656 -0.954084
67.5711 103.887 165.747 0.0414648 0.296656 -0.954084
67.0447 103.091 165.477 0.0414648 0.296656 -0.954084
67.5711 103.887 165.747 0.0362005 0.53074 -0.846761
66.9487 103.885 165.72 0.0362005 0.53074 -0.846761
67.1017 104.281 165.974 0.0362005 0.53074 -0.846761
66.974 100.31 166.394 -0.730442 -0.631805 -0.259379
67.0825 100.053 166.714 -0.730442 -0.631805 -0.259379
66.7792 100.352 166.839 -0.730442 -0.631805 -0.259379
67.0825 100.053 166.714 0.287083 -0.697641 -0.656415
66.974 100.31 166.394 0.287083 -0.697641 -0.656415
67.3181 100.254 166.604 0.287083 -0.697641 -0.656415
66.2961 100.956 166.454 -0.831662 -0.501192 -0.239049
66.2352 100.898 166.786 -0.831662 -0.501192 -0.239049
65.9949 101.437 166.492 -0.831662 -0.501192 -0.239049
66.7792 100.352 166.839 -0.674956 -0.696342 -0.244013
66.2352 100.898 166.786 -0.674956 -0.696342 -0.244013
66.2961 100.956 166.454 -0.674956 -0.696342 -0.244013
66.974 100.31 166.394 -0.681519 -0.694005 -0.232139
66.7792 100.352 166.839 -0.681519 -0.694005 -0.232139
66.2961 100.956 166.454 -0.681519 -0.694005 -0.232139
66.974 100.31 166.394 -0.580373 -0.55387 -0.596989
66.2961 100.956 166.454 -0.580373 -0.55387 -0.596989
66.7775 101.107 165.846 -0.580373 -0.55387 -0.596989
66.974 100.31 166.394 -0.360642 -0.587388 -0.724508
66.7775 101.107 165.846 -0.360642 -0.587388 -0.724508
67.2029 100.644 166.009 -0.360642 -0.587388 -0.724508
67.2029 100.644 166.009 0.788844 -0.162721 -0.592662
67.1516 101.338 165.75 0.788844 -0.162721 -0.592662
67.8522 101.194 166.722 0.788844 -0.162721 -0.592662
67.2029 100.644 166.009 0.809459 -0.406688 -0.423534
67.8522 101.194 166.722 0.809459 -0.406688 -0.423534
67.3181 100.254 166.604 0.809459 -0.406688 -0.423534
67.2029 100.644 166.009 0.214713 -0.79704 -0.56447
67.3181 100.254 166.604 0.214713 -0.79704 -0.56447
66.974 100.31 166.394 0.214713 -0.79704 -0.56447
66.154 101.715 165.887 -0.785242 -0.457901 -0.4168
66.2961 100.956 166.454 -0.785242 -0.457901 -0.4168
65.9949 101.437 166.492 -0.785242 -0.457901 -0.4168
66.154 101.715 165.887 -0.902808 -0.247967 -0.351354
65.9949 101.437 166.492 -0.902808 -0.247967 -0.351354
66.0092 102.269 165.869 -0.902808 -0.247967 -0.351354
66.0092 102.269 165.869 -0.994045 -0.0539294 -0.0946926
65.9949 101.437 166.492 -0.994045 -0.0539294 -0.0946926
65.918 102.711 166.574 -0.994045 -0.0539294 -0.0946926
66.7775 101.107 165.846 -0.580334 -0.553929 -0.596972
66.2961 100.956 166.454 -0.580334 -0.553929 -0.596972
66.154 101.715 165.887 -0.580334 -0.553929 -0.596972
67.8522 101.194 166.722 0.745831 -0.403143 -0.530295
67.6698 102.007 165.847 0.745831 -0.403143 -0.530295
68.1134 102.284 166.26 0.745831 -0.403143 -0.530295
67.1516 101.338 165.75 0.690311 -0.452475 -0.564568
67.6698 102.007 165.847 0.690311 -0.452475 -0.564568
67.8522 101.194 166.722 0.690311 -0.452475 -0.564568
68.1134 102.284 166.26 0.77254 -0.395381 -0.496847
68.3276 102.099 166.741 0.77254 -0.395381 -0.496847
67.8522 101.194 166.722 0.77254 -0.395381 -0.496847
66.0092 102.269 165.869 -0.98848 0.0322004 -0.147886
65.918 102.711 166.574 -0.98848 0.0322004 -0.147886
66.0229 103.064 165.95 -0.98848 0.0322004 -0.147886
68.1134 102.284 166.26 0.791941 0.0498908 -0.608556
67.7113 103.018 165.797 0.791941 0.0498908 -0.608556
68.0585 103.149 166.26 0.791941 0.0498908 -0.608556
67.6698 102.007 165.847 0.701226 -0.063868 -0.710073
67.7113 103.018 165.797 0.701226 -0.063868 -0.710073
68.1134 102.284 166.26 0.701226 -0.063868 -0.710073
68.3051 102.86 166.724 0.915874 0.0179157 -0.401066
68.3276 102.099 166.741 0.915874 0.0179157 -0.401066
68.1134 102.284 166.26 0.915874 0.0179157 -0.401066
68.0585 103.149 166.26 0.895815 0.0566006 -0.440808
68.3051 102.86 166.724 0.895815 0.0566006 -0.440808
68.1134 102.284 166.26 0.895815 0.0566006 -0.440808
66.351 103.812 166.408 -0.586339 0.594553 -0.550194
66.2658 103.094 165.723 -0.586339 0.594553 -0.550194
66.0229 103.064 165.95 -0.586339 0.594553 -0.550194
66.351 103.812 166.408 -0.926367 0.372515 0.0554783
66.0229 103.064 165.95 -0.926367 0.372515 0.0554783
65.918 102.711 166.574 -0.926367 0.372515 0.0554783
66.2658 103.094 165.723 -0.653312 0.561785 -0.507524
66.351 103.812 166.408 -0.653312 0.561785 -0.507524
66.9487 103.885 165.72 -0.653312 0.561785 -0.507524
68.0585 103.149 166.26 0.743498 0.578579 -0.335346
67.5185 103.917 166.388 0.743498 0.578579 -0.335346
67.9705 103.507 166.681 0.743498 0.578579 -0.335346
68.0585 103.149 166.26 0.603152 0.524138 -0.601237
67.7113 103.018 165.797 0.603152 0.524138 -0.601237
67.5185 103.917 166.388 0.603152 0.524138 -0.601237
67.7113 103.018 165.797 0.98391 0.163084 0.072975
67.5711 103.887 165.747 0.98391 0.163084 0.072975
67.5185 103.917 166.388 0.98391 0.163084 0.072975
68.3051 102.86 166.724 0.876922 0.441065 -0.190971
68.0585 103.149 166.26 0.876922 0.441065 -0.190971
67.9705 103.507 166.681 0.876922 0.441065 -0.190971
66.9487 103.885 165.72 -0.647905 0.573236 -0.501617
66.351 103.812 166.408 -0.647905 0.573236 -0.501617
67.1017 104.281 165.974 -0.647905 0.573236 -0.501617
67.1017 104.281 165.974 -0.487934 0.867897 0.0931443
66.351 103.812 166.408 -0.487934 0.867897 0.0931443
67.0305 104.183 166.51 -0.487934 0.867897 0.0931443
67.5185 103.917 166.388 0.647818 0.761611 0.0167485
67.5711 103.887 165.747 0.647818 0.761611 0.0167485
67.1017 104.281 165.974 0.647818 0.761611 0.0167485
67.0305 104.183 166.51 0.508787 0.832485 0.219326
67.5185 103.917 166.388 0.508787 0.832485 0.219326
67.1017 104.281 165.974 0.508787 0.832485 0.219326
67.0825 100.053 166.714 -0.424392 -0.679911 0.598007
67.2049 100.273 167.051 -0.424392 -0.679911 0.598007
66.7792 100.352 166.839 -0.424392 -0.679911 0.598007
67.0825 100.053 166.714 0.689118 -0.69548 0.203529
67.3181 100.254 166.604 0.689118 -0.69548 0.203529
67.2049 100.273 167.051 0.689118 -0.69548 0.203529
66.2352 100.898 166.786 -0.906782 -0.203587 0.369188
66.1689 101.472 166.939 -0.906782 -0.203587 0.369188
65.9949 101.437 166.492 -0.906782 -0.203587 0.369188
66.2352 100.898 166.786 -0.669354 -0.263014 0.694831
66.7943 101.124 167.41 -0.669354 -0.263014 0.694831
66.1689 101.472 166.939 -0.669354 -0.263014 0.694831
66.7792 100.352 166.839 -0.555697 -0.486862 0.673918
66.7943 101.124 167.41 -0.555697 -0.486862 0.673918
66.2352 100.898 166.786 -0.555697 -0.486862 0.673918
66.7792 100.352 166.839 -0.461873 -0.521069 0.717747
67.1991 100.8 167.435 -0.461873 -0.521069 0.717747
66.7943 101.124 167.41 -0.461873 -0.521069 0.717747
66.7792 100.352 166.839 -0.455335 -0.526997 0.717596
67.2049 100.273 167.051 -0.455335 -0.526997 0.717596
67.1991 100.8 167.435 -0.455335 -0.526997 0.717596
67.8522 101.194 166.722 0.706565 -0.64498 0.291148
67.6142 101.318 167.575 0.706565 -0.64498 0.291148
67.1991 100.8 167.435 0.706565 -0.64498 0.291148
67.8522 101.194 166.722 0.77814 -0.363804 0.512001
67.1991 100.8 167.435 0.77814 -0.363804 0.512001
67.2049 100.273 167.051 0.77814 -0.363804 0.512001
67.8522 101.194 166.722 0.832942 -0.502462 0.231818
67.2049 100.273 167.051 0.832942 -0.502462 0.231818
67.3181 100.254 166.604 0.832942 -0.502462 0.231818
66.1689 101.472 166.939 -0.852422 -0.0190281 0.522508
66.2378 102.321 167.082 -0.852422 -0.0190281 0.522508
65.918 102.711 166.574 -0.852422 -0.0190281 0.522508
65.9949 101.437 166.492 -0.926646 -0.079649 0.3674
66.1689 101.472 166.939 -0.926646 -0.079649 0.3674
65.918 102.711 166.574 -0.926646 -0.079649 0.3674
66.6936 101.973 167.497 -0.647441 -0.153573 0.746482
66.1689 101.472 166.939 -0.647441 -0.153573 0.746482
66.7943 101.124 167.41 -0.647441 -0.153573 0.746482
66.2378 102.321 167.082 -0.697985 -0.0637858 0.713266
66.1689 101.472 166.939 -0.697985 -0.0637858 0.713266
66.6936 101.973 167.497 -0.697985 -0.0637858 0.713266
67.8522 101.194 166.722 0.585745 -0.762575 0.274557
68.0407 101.625 167.518 0.585745 -0.762575 0.274557
67.6142 101.318 167.575 0.585745 -0.762575 0.274557
68.0407 101.625 167.518 0.96163 -0.260341 -0.0865472
67.8522 101.194 166.722 0.96163 -0.260341 -0.0865472
68.1699 102.146 167.387 0.96163 -0.260341 -0.0865472
68.1699 102.146 167.387 0.856581 -0.455264 0.242909
67.8522 101.194 166.722 0.856581 -0.455264 0.242909
68.3276 102.099 166.741 0.856581 -0.455264 0.242909
66.2378 102.321 167.082 -0.787181 0.137104 0.601289
66.3032 103.162 166.976 -0.787181 0.137104 0.601289
65.918 102.711 166.574 -0.787181 0.137104 0.601289
67.0749 102.847 167.452 -0.526739 0.271222 0.805596
66.2378 102.321 167.082 -0.526739 0.271222 0.805596
66.6936 101.973 167.497 -0.526739 0.271222 0.805596
67.0749 102.847 167.452 -0.475706 0.146493 0.86732
66.3032 103.162 166.976 -0.475706 0.146493 0.86732
66.2378 102.321 167.082 -0.475706 0.146493 0.86732
67.0749 102.847 167.452 0.121389 0.557394 0.821326
67.8944 102.41 167.627 0.121389 0.557394 0.821326
67.9541 103.039 167.192 0.121389 0.557394 0.821326
67.9541 103.039 167.192 0.775813 0.307904 0.550735
67.8944 102.41 167.627 0.775813 0.307904 0.550735
68.1699 102.146 167.387 0.775813 0.307904 0.550735
67.9541 103.039 167.192 0.814162 0.304821 0.494191
68.1699 102.146 167.387 0.814162 0.304821 0.494191
68.3051 102.86 166.724 0.814162 0.304821 0.494191
68.3051 102.86 166.724 0.971458 0.0340087 0.234762
68.1699 102.146 167.387 0.971458 0.0340087 0.234762
68.3276 102.099 166.741 0.971458 0.0340087 0.234762
65.918 102.711 166.574 -0.842875 0.387544 0.373325
66.3032 103.162 166.976 -0.842875 0.387544 0.373325
66.351 103.812 166.408 -0.842875 0.387544 0.373325
67.0749 102.847 167.452 -0.274981 0.534765 0.799007
67.1406 103.789 166.844 -0.274981 0.534765 0.799007
66.3032 103.162 166.976 -0.274981 0.534765 0.799007
67.1406 103.789 166.844 -0.3618 0.627714 0.689257
66.351 103.812 166.408 -0.3618 0.627714 0.689257
66.3032 103.162 166.976 -0.3618 0.627714 0.689257
67.9705 103.507 166.681 0.364593 0.772993 0.519185
67.5185 103.917 166.388 0.364593 0.772993 0.519185
67.1406 103.789 166.844 0.364593 0.772993 0.519185
67.9705 103.507 166.681 0.357131 0.682861 0.637305
67.1406 103.789 166.844 0.357131 0.682861 0.637305
67.9541 103.039 167.192 0.357131 0.682861 0.637305
67.9541 103.039 167.192 0.131844 0.530961 0.837077
67.1406 103.789 166.844 0.131844 0.530961 0.837077
67.0749 102.847 167.452 0.131844 0.530961 0.837077
68.3051 102.86 166.724 0.791668 0.437475 0.42647
67.9705 103.507 166.681 0.791668 0.437475 0.42647
67.9541 103.039 167.192 0.791668 0.437475 0.42647
67.1406 103.789 166.844 -0.399014 0.525828 0.751194
67.0305 104.183 166.51 -0.399014 0.525828 0.751194
66.351 103.812 166.408 -0.399014 0.525828 0.751194
67.5185 103.917 166.388 0.495313 0.638164 0.589417
67.0305 104.183 166.51 0.495313 0.638164 0.589417
67.1406 103.789 166.844 0.495313 0.638164 0.589417
67.1991 100.8 167.435 -0.266991 -0.260973 0.92769
67.2559 101.882 167.756 -0.266991 -0.260973 0.92769
66.7943 101.124 167.41 -0.266991 -0.260973 0.92769
67.1991 100.8 167.435 0.0333159 -0.285663 0.957751
67.6142 101.318 167.575 0.0333159 -0.285663 0.957751
67.2559 101.882 167.756 0.0333159 -0.285663 0.957751
66.7943 101.124 167.41 -0.432764 -0.142884 0.890112
67.2559 101.882 167.756 -0.432764 -0.142884 0.890112
66.6936 101.973 167.497 -0.432764 -0.142884 0.890112
67.6142 101.318 167.575 0.414509 -0.42697 0.803666
68.0407 101.625 167.518 0.414509 -0.42697 0.803666
67.9586 101.947 167.731 0.414509 -0.42697 0.803666
67.6142 101.318 167.575 0.0582348 -0.270832 0.960864
67.9586 101.947 167.731 0.0582348 -0.270832 0.960864
67.2559 101.882 167.756 0.0582348 -0.270832 0.960864
68.0407 101.625 167.518 0.872151 -0.0952718 0.479871
68.1699 102.146 167.387 0.872151 -0.0952718 0.479871
67.9586 101.947 167.731 0.872151 -0.0952718 0.479871
66.6936 101.973 167.497 -0.379898 0.211935 0.900423
67.2559 101.882 167.756 -0.379898 0.211935 0.900423
67.0749 102.847 167.452 -0.379898 0.211935 0.900423
67.8944 102.41 167.627 -0.0488238 0.291371 0.955363
67.0749 102.847 167.452 -0.0488238 0.291371 0.955363
67.2559 101.882 167.756 -0.0488238 0.291371 0.955363
67.9586 101.947 167.731 0.01364 0.220694 0.975248
67.8944 102.41 167.627 0.01364 0.220694 0.975248
67.2559 101.882 167.756 0.01364 0.220694 0.975248
68.1699 102.146 167.387 0.758875 0.240711 0.605117
67.8944 102.41 167.627 0.758875 0.240711 0.605117
67.9586 101.947 167.731 0.758875 0.240711 0.605117
3 0 1 2
3 3 4 5
3 6 7 8
3 9 10 11
3 12 13 14
3 15 16 17
3 18 19 20
3 21 22 23
3 24 25 26
3 27 28 29
3 30 31 32
3 33 34 35
3 36 37 38
3 39 40 41
3 42 43 44
3 45 46 47
3 48 49 50
3 51 52 53
3 54 55 56
3 57 58 59
3 60 61 62
3 63 64 65
3 66 67 68
3 69 70 71
3 72 73 74
3 75 76 77
3 78 79 80
3 81 82 83
3 84 85 86
3 87 88 89
3 90 91 92
3 93 94 95
3 96 97 98
3 99 100 101
3 102 103 104
3 105 106 107
3 108 109 110
3 111 112 113
3 114 115 116
3 117 118 119
3 120 121 122
3 123 124 125
3 126 127 128
3 129 130 131
3 132 133 134
3 135 136 137
3 138 139 140
3 141 142 143
3 144 145 146
3 147 148 149
3 150 151 152
3 153 154 155
3 156 157 158
3 159 160 161
3 162 163 164
3 165 166 167
3 168 169 170
3 171 172 173
3 174 175 176
3 177 178 179
3 180 181 182
3 183 184 185
3 186 187 188
3 189 190 191
3 192 193 194
3 195 196 197
3 198 199 200
3 201 202 203
3 204 205 206
3 207 208 209
3 210 211 212
3 213 214 215
3 216 217 218
3 219 220 221
3 222 223 224
3 225 226 227
3 228 229 230
3 231 232 233
3 234 235 236
3 237 238 239
3 240 241 242
3 243 244 245
3 246 247 248
3 249 250 251
3 252 253 254
3 255 256 257
3 258 259 260
3 261 262 263
3 264 265 266
3 267 268 269
3 270 271 272
3 273 274 275
