ply
format ascii 1.0
element vertex 258
property float x
property float y
property float z
property float nx
property float ny
property float nz
element face 86
property list uint uint vertex_indices
end_header
102.378 121.11 184.483 -0.0284586 -0.850202 -0.525687
103.208 121.12 184.421 -0.0284586 -0.850202 -0.525687
103.023 120.943 184.718 -0.0284586 -0.850202 -0.525687
102.197 120.832 184.787 0.0461352 -0.750369 -0.659407
102.378 121.11 184.483 0.0461352 -0.750369 -0.659407
103.023 120.943 184.718 0.0461352 -0.750369 -0.659407
103.023 120.943 184.718 0.592112 -0.798509 -0.108565
103.208 121.12 184.421 0.592112 -0.798509 -0.108565
103.36 121.203 184.644 0.592112 -0.798509 -0.108565
102.378 121.11 184.483 -0.288665 -0.118781 -0.950033
101.54 121.696 184.664 -0.288665 -0.118781 -0.950033
102.315 121.717 184.426 -0.288665 -0.118781 -0.950033
103.208 121.12 184.421 -0.0734905 -0.0285324 -0.996888
102.378 121.11 184.483 -0.0734905 -0.0285324 -0.996888
103.04 121.679 184.418 -0.0734905 -0.0285324 -0.996888
103.04 121.679 184.418 -0.0162223 -0.0950134 -0.995344
102.378 121.11 184.483 -0.0162223 -0.0950134 -0.995344
102.315 121.717 184.426 -0.0162223 -0.0950134 -0.995344
103.356 121.64 184.521 0.840058 -0.13887 -0.524422
103.36 121.203 184.644 0.840058 -0.13887 -0.524422
103.208 121.12 184.421 0.840058 -0.13887 -0.524422
103.04 121.679 184.418 0.320375 0.0901465 -0.942992
103.356 121.64 184.521 0.320375 0.0901465 -0.942992
103.208 121.12 184.421 0.320375 0.0901465 -0.942992
102.379 122.005 184.69 -0.230966 0.685791 -0.690178
102.315 121.717 184.426 -0.230966 0.685791 -0.690178
101.54 121.696 184.664 -0.230966 0.685791 -0.690178
103.04 121.679 184.418 0.026832 0.673312 -0.738871
102.315 121.717 184.426 0.026832 0.673312 -0.738871
102.379 122.005 184.69 0.026832 0.673312 -0.738871
103.212 121.865 184.639 0.0807217 0.731192 -0.677379
103.04 121.679 184.418 0.0807217 0.731192 -0.677379
102.379 122.005 184.69 0.0807217 0.731192 -0.677379
103.356 121.64 184.521 0.316881 0.59003 -0.742598
103.04 121.679 184.418 0.316881 0.59003 -0.742598
103.212 121.865 184.639 0.316881 0.59003 -0.742598
101.524 120.989 185.057 -0.642728 -0.721866 -0.256535
101.509 120.812 185.596 -0.642728 -0.721866 -0.256535
101.212 121.165 185.345 -0.642728 -0.721866 -0.256535
101.524 120.989 185.057 -0.4196 -0.53156 -0.735785
102.378 121.11 184.483 -0.4196 -0.53156 -0.735785
102.197 120.832 184.787 -0.4196 -0.53156 -0.735785
101.524 120.989 185.057 -0.330846 -0.893334 -0.30413
102.197 120.832 184.787 -0.330846 -0.893334 -0.30413
101.509 120.812 185.596 -0.330846 -0.893334 -0.30413
101.509 120.812 185.596 -0.063914 -0.994787 -0.0794559
102.197 120.832 184.787 -0.063914 -0.994787 -0.0794559
102.417 120.762 185.488 -0.063914 -0.994787 -0.0794559
103.023 120.943 184.718 0.473216 -0.864538 0.169236
102.812 121.016 185.681 0.473216 -0.864538 0.169236
102.417 120.762 185.488 0.473216 -0.864538 0.169236
103.023 120.943 184.718 0.120978 -0.98327 -0.136177
102.417 120.762 185.488 0.120978 -0.98327 -0.136177
102.197 120.832 184.787 0.120978 -0.98327 -0.136177
101.54 121.696 184.664 -0.733126 -0.317999 -0.601168
101.524 120.989 185.057 -0.733126 -0.317999 -0.601168
101.212 121.165 185.345 -0.733126 -0.317999 -0.601168
101.54 121.696 184.664 -0.658367 -0.406033 -0.63379
101.212 121.165 185.345 -0.658367 -0.406033 -0.63379
101.235 121.827 184.897 -0.658367 -0.406033 -0.63379
101.235 121.827 184.897 -0.992265 -0.0440719 -0.116053
101.212 121.165 185.345 -0.992265 -0.0440719 -0.116053
101.148 121.834 185.637 -0.992265 -0.0440719 -0.116053
102.378 121.11 184.483 -0.463817 -0.422663 -0.778608
101.524 120.989 185.057 -0.463817 -0.422663 -0.778608
101.54 121.696 184.664 -0.463817 -0.422663 -0.778608
103.023 120.943 184.718 0.870627 -0.438134 0.223712
103.19 121.594 185.342 0.870627 -0.438134 0.223712
102.812 121.016 185.681 0.870627 -0.438134 0.223712
103.19 121.594 185.342 0.595595 -0.630402 0.497855
103.023 120.943 184.718 0.595595 -0.630402 0.497855
103.36 121.203 184.644 0.595595 -0.630402 0.497855
103.19 121.594 185.342 0.866333 -0.315079 0.387547
103.36 121.203 184.644 0.866333 -0.315079 0.387547
103.369 121.743 185.065 0.866333 -0.315079 0.387547
103.369 121.743 185.065 0.999711 0.00343285 -0.0237994
103.36 121.203 184.644 0.999711 0.00343285 -0.0237994
103.356 121.64 184.521 0.999711 0.00343285 -0.0237994
101.235 121.827 184.897 -0.888667 0.445496 -0.108646
101.148 121.834 185.637 -0.888667 0.445496 -0.108646
101.466 122.384 185.292 -0.888667 0.445496 -0.108646
101.54 121.696 184.664 -0.280656 0.62973 -0.724343
101.235 121.827 184.897 -0.280656 0.62973 -0.724343
101.466 122.384 185.292 -0.280656 0.62973 -0.724343
102.23 122.586 185.656 0.018573 0.857869 -0.513533
102.379 122.005 184.69 0.018573 0.857869 -0.513533
101.466 122.384 185.292 0.018573 0.857869 -0.513533
102.379 122.005 184.69 -0.214627 0.645044 -0.733385
101.54 121.696 184.664 -0.214627 0.645044 -0.733385
101.466 122.384 185.292 -0.214627 0.645044 -0.733385
102.23 122.586 185.656 0.422437 0.803854 -0.418767
103.054 121.976 185.317 0.422437 0.803854 -0.418767
102.379 122.005 184.69 0.422437 0.803854 -0.418767
103.054 121.976 185.317 0.156966 0.979663 -0.124986
103.212 121.865 184.639 0.156966 0.979663 -0.124986
102.379 122.005 184.69 0.156966 0.979663 -0.124986
103.369 121.743 185.065 0.80236 0.582566 -0.129751
103.356 121.64 184.521 0.80236 0.582566 -0.129751
103.212 121.865 184.639 0.80236 0.582566 -0.129751
103.054 121.976 185.317 0.599204 0.800567 0.00692058
103.369 121.743 185.065 0.599204 0.800567 0.00692058
103.212 121.865 184.639 0.599204 0.800567 0.00692058
101.509 120.812 185.596 -0.675558 -0.728565 -0.113203
101.365 120.798 186.539 -0.675558 -0.728565 -0.113203
101.131 121.059 186.252 -0.675558 -0.728565 -0.113203
101.212 121.165 185.345 -0.705435 -0.694124 -0.143368
101.509 120.812 185.596 -0.705435 -0.694124 -0.143368
101.131 121.059 186.252 -0.705435 -0.694124 -0.143368
102.417 120.762 185.488 -0.0559418 -0.998377 -0.0107008
102.202 120.763 186.465 -0.0559418 -0.998377 -0.0107008
101.509 120.812 185.596 -0.0559418 -0.998377 -0.0107008
101.509 120.812 185.596 -0.0432156 -0.998848 -0.0208803
102.202 120.763 186.465 -0.0432156 -0.998848 -0.0208803
101.365 120.798 186.539 -0.0432156 -0.998848 -0.0208803
102.812 121.016 185.681 0.323523 -0.851224 -0.413219
103.22 120.877 186.287 0.323523 -0.851224 -0.413219
103.056 120.815 186.286 0.323523 -0.851224 -0.413219
102.812 121.016 185.681 0.628408 -0.626384 -0.461246
103.056 120.815 186.286 0.628408 -0.626384 -0.461246
102.417 120.762 185.488 0.628408 -0.626384 -0.461246
102.417 120.762 185.488 0.0640959 -0.997821 0.0156378
103.056 120.815 186.286 0.0640959 -0.997821 0.0156378
102.202 120.763 186.465 0.0640959 -0.997821 0.0156378
103.056 120.815 186.286 0.348231 -0.921321 -0.172922
103.22 120.877 186.287 0.348231 -0.921321 -0.172922
103.294 120.871 186.472 0.348231 -0.921321 -0.172922
101.212 121.165 185.345 -0.994087 -0.053705 -0.0943764
101.131 121.059 186.252 -0.994087 -0.053705 -0.0943764
101.148 121.834 185.637 -0.994087 -0.053705 -0.0943764
101.131 121.059 186.252 -0.97638 -0.121178 -0.17888
100.992 121.697 186.579 -0.97638 -0.121178 -0.17888
101.148 121.834 185.637 -0.97638 -0.121178 -0.17888
103.19 121.594 185.342 0.780463 -0.154586 0.605789
102.593 121.916 186.193 0.780463 -0.154586 0.605789
102.812 121.016 185.681 0.780463 -0.154586 0.605789
103.22 120.877 186.287 0.683894 0.660919 -0.308991
102.812 121.016 185.681 0.683894 0.660919 -0.308991
103.087 121.085 186.437 0.683894 0.660919 -0.308991
103.087 121.085 186.437 0.847774 0.402703 -0.345123
102.812 121.016 185.681 0.847774 0.402703 -0.345123
102.593 121.916 186.193 0.847774 0.402703 -0.345123
103.22 120.877 186.287 0.715876 0.647346 -0.261659
103.087 121.085 186.437 0.715876 0.647346 -0.261659
103.294 120.871 186.472 0.715876 0.647346 -0.261659
101.469 122.538 186.255 -0.882361 0.465091 -0.0716207
101.466 122.384 185.292 -0.882361 0.465091 -0.0716207
101.148 121.834 185.637 -0.882361 0.465091 -0.0716207
101.469 122.538 186.255 -0.879949 0.468775 -0.0770682
101.148 121.834 185.637 -0.879949 0.468775 -0.0770682
100.992 121.697 186.579 -0.879949 0.468775 -0.0770682
101.466 122.384 185.292 -0.18226 0.971056 -0.154375
101.469 122.538 186.255 -0.18226 0.971056 -0.154375
102.23 122.586 185.656 -0.18226 0.971056 -0.154375
103.054 121.976 185.317 0.828025 0.323164 0.458192
102.593 121.916 186.193 0.828025 0.323164 0.458192
103.19 121.594 185.342 0.828025 0.323164 0.458192
103.054 121.976 185.317 0.64562 0.659354 0.385262
102.23 122.586 185.656 0.64562 0.659354 0.385262
102.593 121.916 186.193 0.64562 0.659354 0.385262
102.23 122.586 185.656 0.917061 0.360774 -0.169827
102.311 122.68 186.289 0.917061 0.360774 -0.169827
102.593 121.916 186.193 0.917061 0.360774 -0.169827
103.369 121.743 185.065 0.722273 0.296397 0.624877
103.054 121.976 185.317 0.722273 0.296397 0.624877
103.19 121.594 185.342 0.722273 0.296397 0.624877
102.23 122.586 185.656 -0.327379 0.879175 -0.346229
101.469 122.538 186.255 -0.327379 0.879175 -0.346229
102.131 122.8 186.294 -0.327379 0.879175 -0.346229
102.131 122.8 186.294 0.54076 0.81929 -0.190638
102.311 122.68 186.289 0.54076 0.81929 -0.190638
102.23 122.586 185.656 0.54076 0.81929 -0.190638
101.365 120.798 186.539 -0.448106 -0.880932 0.152181
101.503 120.848 187.232 -0.448106 -0.880932 0.152181
101.185 120.993 187.137 -0.448106 -0.880932 0.152181
101.131 121.059 186.252 -0.742518 -0.669806 -0.00525714
101.365 120.798 186.539 -0.742518 -0.669806 -0.00525714
101.185 120.993 187.137 -0.742518 -0.669806 -0.00525714
102.157 121.042 187.188 0.267075 -0.766751 0.58375
101.744 121.041 187.376 0.267075 -0.766751 0.58375
101.503 120.848 187.232 0.267075 -0.766751 0.58375
102.157 121.042 187.188 0.287939 -0.887487 0.359803
101.503 120.848 187.232 0.287939 -0.887487 0.359803
102.202 120.763 186.465 0.287939 -0.887487 0.359803
102.202 120.763 186.465 -0.0343863 -0.996365 0.0779394
101.503 120.848 187.232 -0.0343863 -0.996365 0.0779394
101.365 120.798 186.539 -0.0343863 -0.996365 0.0779394
102.202 120.763 186.465 0.118699 -0.949821 0.289397
103.056 120.815 186.286 0.118699 -0.949821 0.289397
102.994 120.949 186.749 0.118699 -0.949821 0.289397
102.157 121.042 187.188 0.0872514 -0.927823 0.362673
102.202 120.763 186.465 0.0872514 -0.927823 0.362673
102.994 120.949 186.749 0.0872514 -0.927823 0.362673
103.056 120.815 186.286 0.00564515 -0.960738 0.277401
103.294 120.871 186.472 0.00564515 -0.960738 0.277401
102.994 120.949 186.749 0.00564515 -0.960738 0.277401
101.274 121.29 187.282 -0.544145 0.612603 0.573257
101.534 121.781 187.003 -0.544145 0.612603 0.573257
100.992 121.697 186.579 -0.544145 0.612603 0.573257
101.274 121.29 187.282 -0.909858 0.0745766 0.408163
100.992 121.697 186.579 -0.909858 0.0745766 0.408163
101.185 120.993 187.137 -0.909858 0.0745766 0.408163
101.185 120.993 187.137 -0.97159 -0.233028 0.0413696
100.992 121.697 186.579 -0.97159 -0.233028 0.0413696
101.131 121.059 186.252 -0.97159 -0.233028 0.0413696
101.744 121.041 187.376 0.0687529 0.464065 0.883129
101.534 121.781 187.003 0.0687529 0.464065 0.883129
101.274 121.29 187.282 0.0687529 0.464065 0.883129
101.744 121.041 187.376 0.357581 0.498904 0.789449
102.157 121.042 187.188 0.357581 0.498904 0.789449
101.534 121.781 187.003 0.357581 0.498904 0.789449
102.157 121.042 187.188 0.119917 0.334888 0.934596
102.395 121.669 186.933 0.119917 0.334888 0.934596
101.534 121.781 187.003 0.119917 0.334888 0.934596
103.087 121.085 186.437 0.740287 0.55218 0.3835
102.593 121.916 186.193 0.740287 0.55218 0.3835
102.395 121.669 186.933 0.740287 0.55218 0.3835
103.087 121.085 186.437 0.741863 0.504697 0.441497
102.395 121.669 186.933 0.741863 0.504697 0.441497
102.994 120.949 186.749 0.741863 0.504697 0.441497
102.994 120.949 186.749 0.472456 0.172432 0.864322
102.395 121.669 186.933 0.472456 0.172432 0.864322
102.157 121.042 187.188 0.472456 0.172432 0.864322
103.294 120.871 186.472 0.598258 0.653663 0.463478
103.087 121.085 186.437 0.598258 0.653663 0.463478
102.994 120.949 186.749 0.598258 0.653663 0.463478
100.992 121.697 186.579 -0.56458 0.555348 0.610605
101.534 121.781 187.003 -0.56458 0.555348 0.610605
101.469 122.538 186.255 -0.56458 0.555348 0.610605
102.395 121.669 186.933 0.130151 0.443485 0.886782
102.134 122.526 186.543 0.130151 0.443485 0.886782
101.534 121.781 187.003 0.130151 0.443485 0.886782
102.134 122.526 186.543 -0.288555 0.660608 0.693061
101.469 122.538 186.255 -0.288555 0.660608 0.693061
101.534 121.781 187.003 -0.288555 0.660608 0.693061
102.593 121.916 186.193 0.744814 0.196071 0.637815
102.311 122.68 186.289 0.744814 0.196071 0.637815
102.134 122.526 186.543 0.744814 0.196071 0.637815
102.395 121.669 186.933 0.832084 0.418874 0.363567
102.593 121.916 186.193 0.832084 0.418874 0.363567
102.134 122.526 186.543 0.832084 0.418874 0.363567
102.134 122.526 186.543 -0.295493 0.641091 0.708299
102.131 122.8 186.294 -0.295493 0.641091 0.708299
101.469 122.538 186.255 -0.295493 0.641091 0.708299
102.311 122.68 186.289 0.426355 0.610865 0.667132
102.131 122.8 186.294 0.426355 0.610865 0.667132
102.134 122.526 186.543 0.426355 0.610865 0.667132
101.503 120.848 187.232 -0.433032 -0.898227 0.0753044
101.339 120.942 187.416 -0.433032 -0.898227 0.0753044
101.185 120.993 187.137 -0.433032 -0.898227 0.0753044
101.503 120.848 187.232 0.245479 -0.756521 0.606148
101.744 121.041 187.376 0.245479 -0.756521 0.606148
101.339 120.942 187.416 0.245479 -0.756521 0.606148
101.185 120.993 187.137 -0.87323 0.0253917 0.486646
101.339 120.942 187.416 -0.87323 0.0253917 0.486646
101.274 121.29 187.282 -0.87323 0.0253917 0.486646
101.744 121.041 187.376 0.00493895 0.362297 0.93205
101.274 121.29 187.282 0.00493895 0.362297 0.93205
101.339 120.942 187.416 0.00493895 0.362297 0.93205
3 0 1 2
3 3 4 5
3 6 7 8
3 9 10 11
3 12 13 14
3 15 16 17
3 18 19 20
3 21 22 23
3 24 25 26
3 27 28 29
3 30 31 32
3 33 34 35
3 36 37 38
3 39 40 41
3 42 43 44
3 45 46 47
3 48 49 50
3 51 52 53
3 54 55 56
3 57 58 59
3 60 61 62
3 63 64 65
3 66 67 68
3 69 70 71
3 72 73 74
3 75 76 77
3 78 79 80
3 81 82 83
3 84 85 86
3 87 88 89
3 90 91 92
3 93 94 95
3 96 97 98
3 99 100 101
3 102 103 104
3 105 106 107
3 108 109 110
3 111 112 113
3 114 115 116
3 117 118 119
3 120 121 122
3 123 124 125
3 126 127 128
3 129 130 131
3 132 133 134
3 135 136 137
3 138 139 140
3 141 142 143
3 144 145 146
3 147 148 149
3 150 151 152
3 153 154 155
3 156 157 158
3 159 160 161
3 162 163 164
3 165 166 167
3 168 169 170
3 171 172 173
3 174 175 176
3 177 178 179
3 180 181 182
3 183 184 185
3 186 187 188
3 189 190 191
3 192 193 194
3 195 196 197
3 198 199 200
3 201 202 203
3 204 205 206
3 207 208 209
3 210 211 212
3 213 214 215
3 216 217 218
3 219 220 221
3 222 223 224
3 225 226 227
3 228 229 230
3 231 232 233
3 234 235 236
3 237 238 239
3 240 241 242
3 243 244 245
3 246 247 248
3 249 250 251
3 252 253 254
3 255 256 257
