solid ascii
 facet normal -0.389322 -0.255811 -0.884867
  outer loop
   vertex 105.7 87.6133 164.493
   vertex 105.882 86.5085 164.733
   vertex 105.52 86.6215 164.859
  endloop
 endfacet
 facet normal -0.534898 -0.205311 -0.819592
  outer loop
   vertex 105.237 87.5121 164.821
   vertex 105.7 87.6133 164.493
   vertex 105.52 86.6215 164.859
  endloop
 endfacet
 facet normal -0.0452757 -0.277604 -0.959628
  outer loop
   vertex 106.628 86.7008 164.642
   vertex 106.388 86.3407 164.757
   vertex 105.882 86.5085 164.733
  endloop
 endfacet
 facet normal -0.0890869 -0.121428 -0.988594
  outer loop
   vertex 106.628 86.7008 164.642
   vertex 105.882 86.5085 164.733
   vertex 106.613 87.4966 164.545
  endloop
 endfacet
 facet normal 0.029346 -0.20698 -0.977905
  outer loop
   vertex 106.613 87.4966 164.545
   vertex 105.882 86.5085 164.733
   vertex 105.7 87.6133 164.493
  endloop
 endfacet
 facet normal 0.395672 -0.10304 -0.912593
  outer loop
   vertex 106.628 86.7008 164.642
   vertex 106.613 87.4966 164.545
   vertex 107.225 87.2672 164.837
  endloop
 endfacet
 facet normal -0.682979 -0.37492 -0.626877
  outer loop
   vertex 105.237 87.5121 164.821
   vertex 104.621 88.4993 164.902
   vertex 104.961 88.5333 164.511
  endloop
 endfacet
 facet normal -0.480814 -0.371212 -0.794367
  outer loop
   vertex 105.237 87.5121 164.821
   vertex 104.961 88.5333 164.511
   vertex 105.7 87.6133 164.493
  endloop
 endfacet
 facet normal -0.126328 -0.0828781 -0.98852
  outer loop
   vertex 105.7 87.6133 164.493
   vertex 104.961 88.5333 164.511
   vertex 105.723 88.6652 164.402
  endloop
 endfacet
 facet normal 0.0518886 -0.0394868 -0.997872
  outer loop
   vertex 106.613 87.4966 164.545
   vertex 105.7 87.6133 164.493
   vertex 106.514 88.5362 164.499
  endloop
 endfacet
 facet normal 0.106995 -0.0881448 -0.990345
  outer loop
   vertex 106.514 88.5362 164.499
   vertex 105.7 87.6133 164.493
   vertex 105.723 88.6652 164.402
  endloop
 endfacet
 facet normal 0.424713 -0.0160997 -0.905185
  outer loop
   vertex 107.24 88.299 164.825
   vertex 107.225 87.2672 164.837
   vertex 106.613 87.4966 164.545
  endloop
 endfacet
 facet normal 0.409547 -0.0017609 -0.912287
  outer loop
   vertex 106.514 88.5362 164.499
   vertex 107.24 88.299 164.825
   vertex 106.613 87.4966 164.545
  endloop
 endfacet
 facet normal -0.748679 -0.0784889 -0.65827
  outer loop
   vertex 104.815 89.3975 164.573
   vertex 104.961 88.5333 164.511
   vertex 104.621 88.4993 164.902
  endloop
 endfacet
 facet normal -0.960225 0.114933 -0.254478
  outer loop
   vertex 104.74 89.5979 164.948
   vertex 104.815 89.3975 164.573
   vertex 104.621 88.4993 164.902
  endloop
 endfacet
 facet normal -0.14282 0.0113838 -0.989683
  outer loop
   vertex 105.723 88.6652 164.402
   vertex 104.961 88.5333 164.511
   vertex 105.486 89.4041 164.445
  endloop
 endfacet
 facet normal -0.188245 0.0394073 -0.981331
  outer loop
   vertex 105.486 89.4041 164.445
   vertex 104.961 88.5333 164.511
   vertex 104.815 89.3975 164.573
  endloop
 endfacet
 facet normal 0.129987 0.0530544 -0.990095
  outer loop
   vertex 106.514 88.5362 164.499
   vertex 105.723 88.6652 164.402
   vertex 106.232 89.5239 164.515
  endloop
 endfacet
 facet normal 0.0801249 0.0830296 -0.993321
  outer loop
   vertex 106.232 89.5239 164.515
   vertex 105.723 88.6652 164.402
   vertex 105.486 89.4041 164.445
  endloop
 endfacet
 facet normal 0.472948 0.315622 -0.822619
  outer loop
   vertex 106.607 89.5212 164.931
   vertex 107.24 88.299 164.825
   vertex 106.514 88.5362 164.499
  endloop
 endfacet
 facet normal 0.724928 0.217661 -0.653531
  outer loop
   vertex 106.232 89.5239 164.515
   vertex 106.607 89.5212 164.931
   vertex 106.514 88.5362 164.499
  endloop
 endfacet
 facet normal -0.643128 0.531692 -0.551081
  outer loop
   vertex 104.74 89.5979 164.948
   vertex 105.493 90.3735 164.818
   vertex 105.484 90.1255 164.589
  endloop
 endfacet
 facet normal -0.6507 0.607581 -0.455451
  outer loop
   vertex 104.74 89.5979 164.948
   vertex 105.484 90.1255 164.589
   vertex 104.815 89.3975 164.573
  endloop
 endfacet
 facet normal -0.186349 0.191552 -0.96363
  outer loop
   vertex 104.815 89.3975 164.573
   vertex 105.484 90.1255 164.589
   vertex 105.486 89.4041 164.445
  endloop
 endfacet
 facet normal 0.651411 0.482683 -0.585389
  outer loop
   vertex 105.833 90.2858 164.699
   vertex 106.607 89.5212 164.931
   vertex 106.232 89.5239 164.515
  endloop
 endfacet
 facet normal 0.155546 0.308062 -0.938564
  outer loop
   vertex 105.833 90.2858 164.699
   vertex 106.232 89.5239 164.515
   vertex 105.484 90.1255 164.589
  endloop
 endfacet
 facet normal 0.0607429 0.19521 -0.978879
  outer loop
   vertex 105.484 90.1255 164.589
   vertex 106.232 89.5239 164.515
   vertex 105.486 89.4041 164.445
  endloop
 endfacet
 facet normal -0.0812858 0.67872 -0.729885
  outer loop
   vertex 105.484 90.1255 164.589
   vertex 105.493 90.3735 164.818
   vertex 105.833 90.2858 164.699
  endloop
 endfacet
 facet normal -0.434975 -0.590496 -0.679787
  outer loop
   vertex 105.99 85.6613 165.33
   vertex 105.839 85.1104 165.905
   vertex 105.553 85.6316 165.636
  endloop
 endfacet
 facet normal 0.0328747 -0.596587 -0.801875
  outer loop
   vertex 105.99 85.6613 165.33
   vertex 106.714 85.6447 165.372
   vertex 106.505 85.1719 165.715
  endloop
 endfacet
 facet normal -0.136529 -0.697264 -0.703693
  outer loop
   vertex 105.839 85.1104 165.905
   vertex 105.99 85.6613 165.33
   vertex 106.505 85.1719 165.715
  endloop
 endfacet
 facet normal 0.507644 -0.642125 -0.574433
  outer loop
   vertex 106.505 85.1719 165.715
   vertex 106.714 85.6447 165.372
   vertex 106.981 85.4343 165.843
  endloop
 endfacet
 facet normal -0.452107 -0.552095 -0.700565
  outer loop
   vertex 105.882 86.5085 164.733
   vertex 105.99 85.6613 165.33
   vertex 105.553 85.6316 165.636
  endloop
 endfacet
 facet normal -0.424023 -0.567777 -0.705573
  outer loop
   vertex 105.882 86.5085 164.733
   vertex 105.553 85.6316 165.636
   vertex 105.52 86.6215 164.859
  endloop
 endfacet
 facet normal -0.92908 -0.2472 -0.275139
  outer loop
   vertex 105.52 86.6215 164.859
   vertex 105.553 85.6316 165.636
   vertex 105.32 86.4807 165.66
  endloop
 endfacet
 facet normal -0.154374 -0.582646 -0.79793
  outer loop
   vertex 106.388 86.3407 164.757
   vertex 105.99 85.6613 165.33
   vertex 105.882 86.5085 164.733
  endloop
 endfacet
 facet normal 0.315861 -0.712755 -0.626269
  outer loop
   vertex 106.388 86.3407 164.757
   vertex 106.726 86.3681 164.897
   vertex 105.99 85.6613 165.33
  endloop
 endfacet
 facet normal 0.0358736 -0.549394 -0.834793
  outer loop
   vertex 106.726 86.3681 164.897
   vertex 106.714 85.6447 165.372
   vertex 105.99 85.6613 165.33
  endloop
 endfacet
 facet normal 0.706967 -0.40378 -0.580655
  outer loop
   vertex 107.348 86.3627 165.644
   vertex 106.981 85.4343 165.843
   vertex 106.714 85.6447 165.372
  endloop
 endfacet
 facet normal 0.703766 -0.397992 -0.588486
  outer loop
   vertex 106.726 86.3681 164.897
   vertex 107.348 86.3627 165.644
   vertex 106.714 85.6447 165.372
  endloop
 endfacet
 facet normal -0.911265 -0.301724 -0.280282
  outer loop
   vertex 105.52 86.6215 164.859
   vertex 105.32 86.4807 165.66
   vertex 105.237 87.5121 164.821
  endloop
 endfacet
 facet normal -0.924005 -0.283493 -0.256606
  outer loop
   vertex 105.32 86.4807 165.66
   vertex 105.027 87.4255 165.674
   vertex 105.237 87.5121 164.821
  endloop
 endfacet
 facet normal 0.364883 -0.496071 -0.787892
  outer loop
   vertex 106.388 86.3407 164.757
   vertex 106.628 86.7008 164.642
   vertex 106.726 86.3681 164.897
  endloop
 endfacet
 facet normal 0.589091 -0.374855 -0.71586
  outer loop
   vertex 106.726 86.3681 164.897
   vertex 106.628 86.7008 164.642
   vertex 107.225 87.2672 164.837
  endloop
 endfacet
 facet normal 0.694496 -0.424448 -0.580964
  outer loop
   vertex 106.726 86.3681 164.897
   vertex 107.225 87.2672 164.837
   vertex 107.348 86.3627 165.644
  endloop
 endfacet
 facet normal 0.911762 -0.197779 -0.359963
  outer loop
   vertex 107.348 86.3627 165.644
   vertex 107.225 87.2672 164.837
   vertex 107.592 87.4625 165.659
  endloop
 endfacet
 facet normal -0.945877 -0.254528 -0.201324
  outer loop
   vertex 104.621 88.4993 164.902
   vertex 104.552 88.0528 165.789
   vertex 104.423 88.6004 165.705
  endloop
 endfacet
 facet normal -0.82956 -0.496802 -0.254986
  outer loop
   vertex 105.027 87.4255 165.674
   vertex 104.621 88.4993 164.902
   vertex 105.237 87.5121 164.821
  endloop
 endfacet
 facet normal -0.781612 -0.530857 -0.327528
  outer loop
   vertex 104.552 88.0528 165.789
   vertex 104.621 88.4993 164.902
   vertex 105.027 87.4255 165.674
  endloop
 endfacet
 facet normal 0.914587 -0.017645 -0.404004
  outer loop
   vertex 107.225 87.2672 164.837
   vertex 107.24 88.299 164.825
   vertex 107.592 87.4625 165.659
  endloop
 endfacet
 facet normal 0.957978 0.183645 -0.220347
  outer loop
   vertex 107.592 87.4625 165.659
   vertex 107.24 88.299 164.825
   vertex 107.395 88.5091 165.674
  endloop
 endfacet
 facet normal -0.960992 0.114893 -0.251583
  outer loop
   vertex 104.621 88.4993 164.902
   vertex 104.423 88.6004 165.705
   vertex 104.74 89.5979 164.948
  endloop
 endfacet
 facet normal -0.96823 0.166476 -0.186593
  outer loop
   vertex 104.423 88.6004 165.705
   vertex 104.522 89.3583 165.868
   vertex 104.74 89.5979 164.948
  endloop
 endfacet
 facet normal 0.845826 0.460964 -0.268498
  outer loop
   vertex 107.24 88.299 164.825
   vertex 106.607 89.5212 164.931
   vertex 107.395 88.5091 165.674
  endloop
 endfacet
 facet normal 0.83194 0.532256 -0.156781
  outer loop
   vertex 107.395 88.5091 165.674
   vertex 106.607 89.5212 164.931
   vertex 106.893 89.3238 165.774
  endloop
 endfacet
 facet normal -0.807829 0.588148 -0.0386432
  outer loop
   vertex 104.74 89.5979 164.948
   vertex 104.522 89.3583 165.868
   vertex 104.803 89.7361 165.739
  endloop
 endfacet
 facet normal -0.282166 0.900622 0.330548
  outer loop
   vertex 105.493 90.3735 164.818
   vertex 105.611 90.1753 165.46
   vertex 105.785 90.3544 165.12
  endloop
 endfacet
 facet normal -0.648544 0.685037 0.331836
  outer loop
   vertex 105.493 90.3735 164.818
   vertex 104.74 89.5979 164.948
   vertex 105.611 90.1753 165.46
  endloop
 endfacet
 facet normal -0.503415 0.857039 -0.109807
  outer loop
   vertex 104.74 89.5979 164.948
   vertex 104.803 89.7361 165.739
   vertex 105.611 90.1753 165.46
  endloop
 endfacet
 facet normal 0.707343 0.705964 -0.0357718
  outer loop
   vertex 105.785 90.3544 165.12
   vertex 106.607 89.5212 164.931
   vertex 105.833 90.2858 164.699
  endloop
 endfacet
 facet normal 0.638352 0.496011 0.588625
  outer loop
   vertex 105.785 90.3544 165.12
   vertex 105.611 90.1753 165.46
   vertex 106.607 89.5212 164.931
  endloop
 endfacet
 facet normal 0.513604 0.853465 -0.0883692
  outer loop
   vertex 105.611 90.1753 165.46
   vertex 106.446 89.7102 165.82
   vertex 106.607 89.5212 164.931
  endloop
 endfacet
 facet normal 0.651383 0.75753 -0.0430015
  outer loop
   vertex 106.446 89.7102 165.82
   vertex 106.893 89.3238 165.774
   vertex 106.607 89.5212 164.931
  endloop
 endfacet
 facet normal 0.20251 0.96989 -0.135288
  outer loop
   vertex 105.493 90.3735 164.818
   vertex 105.785 90.3544 165.12
   vertex 105.833 90.2858 164.699
  endloop
 endfacet
 facet normal -0.520595 -0.751877 -0.404551
  outer loop
   vertex 105.833 84.5534 166.561
   vertex 105.706 84.4581 166.901
   vertex 105.582 84.73 166.556
  endloop
 endfacet
 facet normal 0.137187 -0.965899 -0.219589
  outer loop
   vertex 105.706 84.4581 166.901
   vertex 105.833 84.5534 166.561
   vertex 106.182 84.5108 166.967
  endloop
 endfacet
 facet normal -0.461624 -0.673921 -0.576831
  outer loop
   vertex 105.839 85.1104 165.905
   vertex 105.833 84.5534 166.561
   vertex 105.582 84.73 166.556
  endloop
 endfacet
 facet normal -0.556936 -0.601837 -0.572377
  outer loop
   vertex 105.839 85.1104 165.905
   vertex 105.582 84.73 166.556
   vertex 105.553 85.6316 165.636
  endloop
 endfacet
 facet normal -0.955909 -0.224142 -0.189731
  outer loop
   vertex 105.553 85.6316 165.636
   vertex 105.582 84.73 166.556
   vertex 105.389 85.487 166.635
  endloop
 endfacet
 facet normal 0.286925 -0.895136 -0.341183
  outer loop
   vertex 105.833 84.5534 166.561
   vertex 106.559 84.8073 166.506
   vertex 106.182 84.5108 166.967
  endloop
 endfacet
 facet normal 0.212701 -0.745915 -0.631165
  outer loop
   vertex 105.833 84.5534 166.561
   vertex 105.839 85.1104 165.905
   vertex 106.559 84.8073 166.506
  endloop
 endfacet
 facet normal -0.0349277 -0.908501 -0.41642
  outer loop
   vertex 105.839 85.1104 165.905
   vertex 106.505 85.1719 165.715
   vertex 106.559 84.8073 166.506
  endloop
 endfacet
 facet normal 0.522435 -0.760023 -0.386558
  outer loop
   vertex 106.559 84.8073 166.506
   vertex 106.505 85.1719 165.715
   vertex 106.981 85.4343 165.843
  endloop
 endfacet
 facet normal 0.72921 -0.664168 -0.164722
  outer loop
   vertex 107.234 85.514 166.644
   vertex 106.559 84.8073 166.506
   vertex 106.981 85.4343 165.843
  endloop
 endfacet
 facet normal -0.947624 -0.254646 -0.192781
  outer loop
   vertex 105.553 85.6316 165.636
   vertex 105.389 85.487 166.635
   vertex 105.32 86.4807 165.66
  endloop
 endfacet
 facet normal -0.950846 -0.247853 -0.185634
  outer loop
   vertex 105.389 85.487 166.635
   vertex 105.137 86.4319 166.665
   vertex 105.32 86.4807 165.66
  endloop
 endfacet
 facet normal 0.884113 -0.400973 -0.239928
  outer loop
   vertex 106.981 85.4343 165.843
   vertex 107.348 86.3627 165.644
   vertex 107.234 85.514 166.644
  endloop
 endfacet
 facet normal 0.933645 -0.318356 -0.164185
  outer loop
   vertex 107.234 85.514 166.644
   vertex 107.348 86.3627 165.644
   vertex 107.57 86.4924 166.654
  endloop
 endfacet
 facet normal -0.747468 -0.508935 -0.426939
  outer loop
   vertex 104.632 87.1779 166.66
   vertex 105.027 87.4255 165.674
   vertex 105.137 86.4319 166.665
  endloop
 endfacet
 facet normal -0.939112 -0.289237 -0.185501
  outer loop
   vertex 105.027 87.4255 165.674
   vertex 105.32 86.4807 165.66
   vertex 105.137 86.4319 166.665
  endloop
 endfacet
 facet normal 0.960069 -0.210932 -0.183782
  outer loop
   vertex 107.348 86.3627 165.644
   vertex 107.592 87.4625 165.659
   vertex 107.57 86.4924 166.654
  endloop
 endfacet
 facet normal 0.999407 0.010352 0.0328352
  outer loop
   vertex 107.57 86.4924 166.654
   vertex 107.592 87.4625 165.659
   vertex 107.559 87.5342 166.653
  endloop
 endfacet
 facet normal -0.842692 -0.416397 -0.341298
  outer loop
   vertex 104.552 88.0528 165.789
   vertex 104.632 87.1779 166.66
   vertex 104.39 87.6668 166.662
  endloop
 endfacet
 facet normal -0.921195 -0.262062 -0.287617
  outer loop
   vertex 104.552 88.0528 165.789
   vertex 104.39 87.6668 166.662
   vertex 104.423 88.6004 165.705
  endloop
 endfacet
 facet normal -0.984448 0.14159 0.103993
  outer loop
   vertex 104.423 88.6004 165.705
   vertex 104.39 87.6668 166.662
   vertex 104.512 88.4422 166.769
  endloop
 endfacet
 facet normal -0.75726 -0.494081 -0.427131
  outer loop
   vertex 105.027 87.4255 165.674
   vertex 104.632 87.1779 166.66
   vertex 104.552 88.0528 165.789
  endloop
 endfacet
 facet normal 0.982585 0.184766 0.0196864
  outer loop
   vertex 107.592 87.4625 165.659
   vertex 107.395 88.5091 165.674
   vertex 107.559 87.5342 166.653
  endloop
 endfacet
 facet normal 0.931209 0.323981 0.16699
  outer loop
   vertex 107.559 87.5342 166.653
   vertex 107.395 88.5091 165.674
   vertex 107.188 88.6027 166.65
  endloop
 endfacet
 facet normal -0.934973 0.241477 0.259834
  outer loop
   vertex 104.749 89.2898 166.75
   vertex 104.725 89.604 166.372
   vertex 104.522 89.3583 165.868
  endloop
 endfacet
 facet normal -0.928551 0.264939 0.259999
  outer loop
   vertex 104.749 89.2898 166.75
   vertex 104.522 89.3583 165.868
   vertex 104.512 88.4422 166.769
  endloop
 endfacet
 facet normal -0.989225 0.107551 0.0993342
  outer loop
   vertex 104.512 88.4422 166.769
   vertex 104.522 89.3583 165.868
   vertex 104.423 88.6004 165.705
  endloop
 endfacet
 facet normal -0.641289 0.569741 0.513949
  outer loop
   vertex 104.749 89.2898 166.75
   vertex 105.028 89.5659 166.792
   vertex 104.725 89.604 166.372
  endloop
 endfacet
 facet normal 0.515608 0.747233 0.419275
  outer loop
   vertex 106.717 89.4243 166.395
   vertex 106.3 89.6046 166.587
   vertex 106.523 89.2562 166.933
  endloop
 endfacet
 facet normal 0.719703 0.545372 0.429647
  outer loop
   vertex 106.717 89.4243 166.395
   vertex 106.523 89.2562 166.933
   vertex 107.188 88.6027 166.65
  endloop
 endfacet
 facet normal 0.83668 0.526297 0.151587
  outer loop
   vertex 106.717 89.4243 166.395
   vertex 107.188 88.6027 166.65
   vertex 106.893 89.3238 165.774
  endloop
 endfacet
 facet normal 0.850845 0.508521 0.13217
  outer loop
   vertex 106.893 89.3238 165.774
   vertex 107.188 88.6027 166.65
   vertex 107.395 88.5091 165.674
  endloop
 endfacet
 facet normal -0.797254 0.602999 0.0278922
  outer loop
   vertex 104.522 89.3583 165.868
   vertex 104.725 89.604 166.372
   vertex 104.803 89.7361 165.739
  endloop
 endfacet
 facet normal -0.323138 0.892744 0.31399
  outer loop
   vertex 104.725 89.604 166.372
   vertex 105.028 89.5659 166.792
   vertex 105.529 89.8792 166.417
  endloop
 endfacet
 facet normal -0.327664 0.932118 0.154248
  outer loop
   vertex 104.725 89.604 166.372
   vertex 105.529 89.8792 166.417
   vertex 104.803 89.7361 165.739
  endloop
 endfacet
 facet normal -0.398122 0.885501 0.239556
  outer loop
   vertex 104.803 89.7361 165.739
   vertex 105.529 89.8792 166.417
   vertex 105.611 90.1753 165.46
  endloop
 endfacet
 facet normal 0.466947 0.859613 0.207425
  outer loop
   vertex 106.3 89.6046 166.587
   vertex 106.717 89.4243 166.395
   vertex 106.446 89.7102 165.82
  endloop
 endfacet
 facet normal 0.293319 0.937928 0.185079
  outer loop
   vertex 106.3 89.6046 166.587
   vertex 106.446 89.7102 165.82
   vertex 105.529 89.8792 166.417
  endloop
 endfacet
 facet normal 0.360342 0.881954 0.303827
  outer loop
   vertex 105.529 89.8792 166.417
   vertex 106.446 89.7102 165.82
   vertex 105.611 90.1753 165.46
  endloop
 endfacet
 facet normal 0.656861 0.751265 0.0643046
  outer loop
   vertex 106.893 89.3238 165.774
   vertex 106.446 89.7102 165.82
   vertex 106.717 89.4243 166.395
  endloop
 endfacet
 facet normal -0.505347 -0.803187 0.315458
  outer loop
   vertex 105.706 84.4581 166.901
   vertex 105.775 84.7094 167.651
   vertex 105.562 84.7141 167.321
  endloop
 endfacet
 facet normal -0.892597 -0.449627 -0.0332531
  outer loop
   vertex 105.582 84.73 166.556
   vertex 105.706 84.4581 166.901
   vertex 105.562 84.7141 167.321
  endloop
 endfacet
 facet normal 0.0620798 -0.948101 0.311849
  outer loop
   vertex 105.775 84.7094 167.651
   vertex 105.706 84.4581 166.901
   vertex 106.182 84.5108 166.967
  endloop
 endfacet
 facet normal -0.18988 -0.967378 0.167707
  outer loop
   vertex 106.077 84.6454 167.624
   vertex 105.775 84.7094 167.651
   vertex 106.182 84.5108 166.967
  endloop
 endfacet
 facet normal -0.969216 -0.244247 -0.0310297
  outer loop
   vertex 105.582 84.73 166.556
   vertex 105.562 84.7141 167.321
   vertex 105.389 85.487 166.635
  endloop
 endfacet
 facet normal -0.981996 -0.184797 0.0391566
  outer loop
   vertex 105.562 84.7141 167.321
   vertex 105.412 85.5921 167.707
   vertex 105.389 85.487 166.635
  endloop
 endfacet
 facet normal 0.471986 -0.845724 0.248958
  outer loop
   vertex 106.182 84.5108 166.967
   vertex 106.666 84.9165 167.427
   vertex 106.077 84.6454 167.624
  endloop
 endfacet
 facet normal 0.631762 -0.774938 0.0186767
  outer loop
   vertex 106.559 84.8073 166.506
   vertex 106.666 84.9165 167.427
   vertex 106.182 84.5108 166.967
  endloop
 endfacet
 facet normal 0.723425 -0.6904 -0.0019538
  outer loop
   vertex 106.666 84.9165 167.427
   vertex 106.559 84.8073 166.506
   vertex 107.234 85.514 166.644
  endloop
 endfacet
 facet normal 0.823588 -0.534549 0.189633
  outer loop
   vertex 107.134 85.6953 167.591
   vertex 106.666 84.9165 167.427
   vertex 107.234 85.514 166.644
  endloop
 endfacet
 facet normal -0.755955 -0.592658 -0.278009
  outer loop
   vertex 104.781 86.4364 167.623
   vertex 105.137 86.4319 166.665
   vertex 105.412 85.5921 167.707
  endloop
 endfacet
 facet normal -0.964789 -0.25896 0.0460638
  outer loop
   vertex 105.137 86.4319 166.665
   vertex 105.389 85.487 166.635
   vertex 105.412 85.5921 167.707
  endloop
 endfacet
 facet normal 0.933185 -0.321565 0.160504
  outer loop
   vertex 107.234 85.514 166.644
   vertex 107.57 86.4924 166.654
   vertex 107.134 85.6953 167.591
  endloop
 endfacet
 facet normal 0.940936 -0.170702 0.292405
  outer loop
   vertex 107.134 85.6953 167.591
   vertex 107.57 86.4924 166.654
   vertex 107.311 86.7002 167.608
  endloop
 endfacet
 facet normal -0.691209 -0.620374 -0.370628
  outer loop
   vertex 104.632 87.1779 166.66
   vertex 104.781 86.4364 167.623
   vertex 104.486 86.8432 167.492
  endloop
 endfacet
 facet normal -0.850037 -0.420084 -0.317752
  outer loop
   vertex 104.632 87.1779 166.66
   vertex 104.486 86.8432 167.492
   vertex 104.39 87.6668 166.662
  endloop
 endfacet
 facet normal -0.994172 -0.00844827 0.107471
  outer loop
   vertex 104.39 87.6668 166.662
   vertex 104.486 86.8432 167.492
   vertex 104.484 87.4497 167.516
  endloop
 endfacet
 facet normal -0.79121 -0.537673 -0.291366
  outer loop
   vertex 105.137 86.4319 166.665
   vertex 104.781 86.4364 167.623
   vertex 104.632 87.1779 166.66
  endloop
 endfacet
 facet normal 0.965642 0.0102727 0.259673
  outer loop
   vertex 107.57 86.4924 166.654
   vertex 107.559 87.5342 166.653
   vertex 107.311 86.7002 167.608
  endloop
 endfacet
 facet normal 0.926552 0.129128 0.353309
  outer loop
   vertex 107.311 86.7002 167.608
   vertex 107.559 87.5342 166.653
   vertex 107.193 87.7125 167.548
  endloop
 endfacet
 facet normal -0.729627 0.424675 0.535999
  outer loop
   vertex 104.839 87.7162 167.789
   vertex 104.512 88.4422 166.769
   vertex 104.484 87.4497 167.516
  endloop
 endfacet
 facet normal -0.980452 0.135614 0.14256
  outer loop
   vertex 104.484 87.4497 167.516
   vertex 104.512 88.4422 166.769
   vertex 104.39 87.6668 166.662
  endloop
 endfacet
 facet normal -0.695401 0.461237 0.55107
  outer loop
   vertex 104.839 87.7162 167.789
   vertex 105.197 88.6046 167.496
   vertex 104.512 88.4422 166.769
  endloop
 endfacet
 facet normal 0.899201 0.313296 0.305422
  outer loop
   vertex 107.559 87.5342 166.653
   vertex 107.188 88.6027 166.65
   vertex 107.193 87.7125 167.548
  endloop
 endfacet
 facet normal 0.812026 0.416822 0.408501
  outer loop
   vertex 107.193 87.7125 167.548
   vertex 107.188 88.6027 166.65
   vertex 106.803 88.541 167.477
  endloop
 endfacet
 facet normal -0.221605 0.736127 0.639538
  outer loop
   vertex 105.028 89.5659 166.792
   vertex 105.609 89.192 167.424
   vertex 105.727 89.5615 167.039
  endloop
 endfacet
 facet normal -0.528634 0.422321 0.736337
  outer loop
   vertex 104.749 89.2898 166.75
   vertex 105.609 89.192 167.424
   vertex 105.028 89.5659 166.792
  endloop
 endfacet
 facet normal -0.517185 0.452986 0.72617
  outer loop
   vertex 104.749 89.2898 166.75
   vertex 105.197 88.6046 167.496
   vertex 105.609 89.192 167.424
  endloop
 endfacet
 facet normal -0.734662 0.219278 0.642019
  outer loop
   vertex 104.749 89.2898 166.75
   vertex 104.512 88.4422 166.769
   vertex 105.197 88.6046 167.496
  endloop
 endfacet
 facet normal 0.36392 0.763481 0.533535
  outer loop
   vertex 105.727 89.5615 167.039
   vertex 106.523 89.2562 166.933
   vertex 106.3 89.6046 166.587
  endloop
 endfacet
 facet normal 0.334167 0.626395 0.704245
  outer loop
   vertex 105.727 89.5615 167.039
   vertex 105.609 89.192 167.424
   vertex 106.523 89.2562 166.933
  endloop
 endfacet
 facet normal 0.249218 0.785268 0.566785
  outer loop
   vertex 105.609 89.192 167.424
   vertex 106.414 88.7862 167.632
   vertex 106.523 89.2562 166.933
  endloop
 endfacet
 facet normal 0.72593 0.573162 0.380145
  outer loop
   vertex 106.803 88.541 167.477
   vertex 107.188 88.6027 166.65
   vertex 106.523 89.2562 166.933
  endloop
 endfacet
 facet normal 0.594678 0.621029 0.51057
  outer loop
   vertex 106.414 88.7862 167.632
   vertex 106.803 88.541 167.477
   vertex 106.523 89.2562 166.933
  endloop
 endfacet
 facet normal -0.168003 0.855332 0.490084
  outer loop
   vertex 105.028 89.5659 166.792
   vertex 105.727 89.5615 167.039
   vertex 105.529 89.8792 166.417
  endloop
 endfacet
 facet normal 0.234371 0.894 0.381883
  outer loop
   vertex 106.3 89.6046 166.587
   vertex 105.529 89.8792 166.417
   vertex 105.727 89.5615 167.039
  endloop
 endfacet
 facet normal -0.763394 -0.348742 0.543699
  outer loop
   vertex 105.775 84.7094 167.651
   vertex 105.839 85.5383 168.273
   vertex 105.412 85.5921 167.707
  endloop
 endfacet
 facet normal -0.786909 -0.355906 0.504089
  outer loop
   vertex 105.562 84.7141 167.321
   vertex 105.775 84.7094 167.651
   vertex 105.412 85.5921 167.707
  endloop
 endfacet
 facet normal 0.493008 -0.665697 0.560171
  outer loop
   vertex 106.077 84.6454 167.624
   vertex 106.666 84.9165 167.427
   vertex 106.456 85.3078 168.077
  endloop
 endfacet
 facet normal -0.0401406 -0.548872 0.834942
  outer loop
   vertex 106.077 84.6454 167.624
   vertex 106.456 85.3078 168.077
   vertex 105.775 84.7094 167.651
  endloop
 endfacet
 facet normal 0.0286526 -0.601198 0.798586
  outer loop
   vertex 105.775 84.7094 167.651
   vertex 106.456 85.3078 168.077
   vertex 105.839 85.5383 168.273
  endloop
 endfacet
 facet normal 0.673855 -0.516148 0.528688
  outer loop
   vertex 106.666 84.9165 167.427
   vertex 107.134 85.6953 167.591
   vertex 106.456 85.3078 168.077
  endloop
 endfacet
 facet normal -0.811659 -0.481853 0.330191
  outer loop
   vertex 104.781 86.4364 167.623
   vertex 104.802 86.776 168.169
   vertex 104.486 86.8432 167.492
  endloop
 endfacet
 facet normal -0.658601 -0.627749 0.414941
  outer loop
   vertex 104.781 86.4364 167.623
   vertex 105.348 86.3823 168.441
   vertex 104.802 86.776 168.169
  endloop
 endfacet
 facet normal -0.728316 -0.496842 0.471915
  outer loop
   vertex 105.412 85.5921 167.707
   vertex 105.348 86.3823 168.441
   vertex 104.781 86.4364 167.623
  endloop
 endfacet
 facet normal -0.484652 -0.615872 0.621139
  outer loop
   vertex 105.412 85.5921 167.707
   vertex 105.713 86.154 168.5
   vertex 105.348 86.3823 168.441
  endloop
 endfacet
 facet normal -0.761703 -0.355343 0.541793
  outer loop
   vertex 105.412 85.5921 167.707
   vertex 105.839 85.5383 168.273
   vertex 105.713 86.154 168.5
  endloop
 endfacet
 facet normal 0.259887 -0.315353 0.912695
  outer loop
   vertex 105.713 86.154 168.5
   vertex 106.476 86.3726 168.358
   vertex 105.78 86.5623 168.622
  endloop
 endfacet
 facet normal 0.253977 -0.287796 0.923401
  outer loop
   vertex 105.713 86.154 168.5
   vertex 105.839 85.5383 168.273
   vertex 106.476 86.3726 168.358
  endloop
 endfacet
 facet normal 0.205491 -0.253042 0.94538
  outer loop
   vertex 105.839 85.5383 168.273
   vertex 106.456 85.3078 168.077
   vertex 106.476 86.3726 168.358
  endloop
 endfacet
 facet normal 0.690738 -0.133439 0.710687
  outer loop
   vertex 107.134 85.6953 167.591
   vertex 107.311 86.7002 167.608
   vertex 106.476 86.3726 168.358
  endloop
 endfacet
 facet normal 0.645096 -0.206162 0.735764
  outer loop
   vertex 106.456 85.3078 168.077
   vertex 107.134 85.6953 167.591
   vertex 106.476 86.3726 168.358
  endloop
 endfacet
 facet normal -0.709424 0.288394 0.643076
  outer loop
   vertex 104.802 86.776 168.169
   vertex 104.839 87.7162 167.789
   vertex 104.484 87.4497 167.516
  endloop
 endfacet
 facet normal -0.907106 -0.020855 0.420385
  outer loop
   vertex 104.486 86.8432 167.492
   vertex 104.802 86.776 168.169
   vertex 104.484 87.4497 167.516
  endloop
 endfacet
 facet normal -0.534749 -0.170979 0.827532
  outer loop
   vertex 105.464 86.7283 168.587
   vertex 104.802 86.776 168.169
   vertex 105.348 86.3823 168.441
  endloop
 endfacet
 facet normal -0.461488 0.423749 0.779401
  outer loop
   vertex 105.464 86.7283 168.587
   vertex 105.714 87.3542 168.395
   vertex 104.802 86.776 168.169
  endloop
 endfacet
 facet normal -0.429686 0.353491 0.830912
  outer loop
   vertex 105.714 87.3542 168.395
   vertex 104.839 87.7162 167.789
   vertex 104.802 86.776 168.169
  endloop
 endfacet
 facet normal 0.0415194 0.277994 0.959685
  outer loop
   vertex 105.78 86.5623 168.622
   vertex 105.714 87.3542 168.395
   vertex 105.464 86.7283 168.587
  endloop
 endfacet
 facet normal 0.406339 0.282534 0.868944
  outer loop
   vertex 105.78 86.5623 168.622
   vertex 106.476 86.3726 168.358
   vertex 105.714 87.3542 168.395
  endloop
 endfacet
 facet normal 0.213094 0.128773 0.968508
  outer loop
   vertex 106.476 86.3726 168.358
   vertex 106.7 87.3602 168.177
   vertex 105.714 87.3542 168.395
  endloop
 endfacet
 facet normal 0.745878 0.125859 0.654084
  outer loop
   vertex 107.311 86.7002 167.608
   vertex 107.193 87.7125 167.548
   vertex 106.7 87.3602 168.177
  endloop
 endfacet
 facet normal 0.671868 -0.0171737 0.740472
  outer loop
   vertex 106.476 86.3726 168.358
   vertex 107.311 86.7002 167.608
   vertex 106.7 87.3602 168.177
  endloop
 endfacet
 facet normal -0.533782 0.450322 0.715742
  outer loop
   vertex 105.197 88.6046 167.496
   vertex 104.839 87.7162 167.789
   vertex 105.684 88.4121 167.981
  endloop
 endfacet
 facet normal -0.449432 0.314496 0.836124
  outer loop
   vertex 105.684 88.4121 167.981
   vertex 104.839 87.7162 167.789
   vertex 105.714 87.3542 168.395
  endloop
 endfacet
 facet normal 0.203175 0.310582 0.928579
  outer loop
   vertex 106.7 87.3602 168.177
   vertex 106.534 88.2256 167.924
   vertex 105.714 87.3542 168.395
  endloop
 endfacet
 facet normal 0.141763 0.364027 0.920537
  outer loop
   vertex 106.534 88.2256 167.924
   vertex 105.684 88.4121 167.981
   vertex 105.714 87.3542 168.395
  endloop
 endfacet
 facet normal 0.660079 0.366587 0.655675
  outer loop
   vertex 107.193 87.7125 167.548
   vertex 106.803 88.541 167.477
   vertex 106.534 88.2256 167.924
  endloop
 endfacet
 facet normal 0.647389 0.325863 0.688985
  outer loop
   vertex 106.7 87.3602 168.177
   vertex 107.193 87.7125 167.548
   vertex 106.534 88.2256 167.924
  endloop
 endfacet
 facet normal -0.528434 0.459373 0.713956
  outer loop
   vertex 105.197 88.6046 167.496
   vertex 105.684 88.4121 167.981
   vertex 105.609 89.192 167.424
  endloop
 endfacet
 facet normal 0.0860693 0.584885 0.806537
  outer loop
   vertex 106.414 88.7862 167.632
   vertex 105.609 89.192 167.424
   vertex 105.684 88.4121 167.981
  endloop
 endfacet
 facet normal 0.16385 0.483184 0.860051
  outer loop
   vertex 106.534 88.2256 167.924
   vertex 106.414 88.7862 167.632
   vertex 105.684 88.4121 167.981
  endloop
 endfacet
 facet normal 0.566855 0.472926 0.674549
  outer loop
   vertex 106.803 88.541 167.477
   vertex 106.414 88.7862 167.632
   vertex 106.534 88.2256 167.924
  endloop
 endfacet
 facet normal -0.292132 -0.229691 0.928386
  outer loop
   vertex 105.713 86.154 168.5
   vertex 105.78 86.5623 168.622
   vertex 105.348 86.3823 168.441
  endloop
 endfacet
 facet normal -0.257882 -0.30141 0.917959
  outer loop
   vertex 105.78 86.5623 168.622
   vertex 105.464 86.7283 168.587
   vertex 105.348 86.3823 168.441
  endloop
 endfacet
endsolid
