solid ascii
 facet normal -0.0284586 -0.850202 -0.525687
  outer loop
   vertex 102.378 121.11 184.483
   vertex 103.208 121.12 184.421
   vertex 103.023 120.943 184.718
  endloop
 endfacet
 facet normal 0.0461352 -0.750369 -0.659407
  outer loop
   vertex 102.197 120.832 184.787
   vertex 102.378 121.11 184.483
   vertex 103.023 120.943 184.718
  endloop
 endfacet
 facet normal 0.592112 -0.798509 -0.108565
  outer loop
   vertex 103.023 120.943 184.718
   vertex 103.208 121.12 184.421
   vertex 103.36 121.203 184.644
  endloop
 endfacet
 facet normal -0.288665 -0.118781 -0.950033
  outer loop
   vertex 102.378 121.11 184.483
   vertex 101.54 121.696 184.664
   vertex 102.315 121.717 184.426
  endloop
 endfacet
 facet normal -0.0734905 -0.0285324 -0.996888
  outer loop
   vertex 103.208 121.12 184.421
   vertex 102.378 121.11 184.483
   vertex 103.04 121.679 184.418
  endloop
 endfacet
 facet normal -0.0162223 -0.0950134 -0.995344
  outer loop
   vertex 103.04 121.679 184.418
   vertex 102.378 121.11 184.483
   vertex 102.315 121.717 184.426
  endloop
 endfacet
 facet normal 0.840058 -0.13887 -0.524422
  outer loop
   vertex 103.356 121.64 184.521
   vertex 103.36 121.203 184.644
   vertex 103.208 121.12 184.421
  endloop
 endfacet
 facet normal 0.320375 0.0901465 -0.942992
  outer loop
   vertex 103.04 121.679 184.418
   vertex 103.356 121.64 184.521
   vertex 103.208 121.12 184.421
  endloop
 endfacet
 facet normal -0.230966 0.685791 -0.690178
  outer loop
   vertex 102.379 122.005 184.69
   vertex 102.315 121.717 184.426
   vertex 101.54 121.696 184.664
  endloop
 endfacet
 facet normal 0.026832 0.673312 -0.738871
  outer loop
   vertex 103.04 121.679 184.418
   vertex 102.315 121.717 184.426
   vertex 102.379 122.005 184.69
  endloop
 endfacet
 facet normal 0.0807217 0.731192 -0.677379
  outer loop
   vertex 103.212 121.865 184.639
   vertex 103.04 121.679 184.418
   vertex 102.379 122.005 184.69
  endloop
 endfacet
 facet normal 0.316881 0.59003 -0.742598
  outer loop
   vertex 103.356 121.64 184.521
   vertex 103.04 121.679 184.418
   vertex 103.212 121.865 184.639
  endloop
 endfacet
 facet normal -0.642728 -0.721866 -0.256535
  outer loop
   vertex 101.524 120.989 185.057
   vertex 101.509 120.812 185.596
   vertex 101.212 121.165 185.345
  endloop
 endfacet
 facet normal -0.4196 -0.53156 -0.735785
  outer loop
   vertex 101.524 120.989 185.057
   vertex 102.378 121.11 184.483
   vertex 102.197 120.832 184.787
  endloop
 endfacet
 facet normal -0.330846 -0.893334 -0.30413
  outer loop
   vertex 101.524 120.989 185.057
   vertex 102.197 120.832 184.787
   vertex 101.509 120.812 185.596
  endloop
 endfacet
 facet normal -0.063914 -0.994787 -0.0794559
  outer loop
   vertex 101.509 120.812 185.596
   vertex 102.197 120.832 184.787
   vertex 102.417 120.762 185.488
  endloop
 endfacet
 facet normal 0.473216 -0.864538 0.169236
  outer loop
   vertex 103.023 120.943 184.718
   vertex 102.812 121.016 185.681
   vertex 102.417 120.762 185.488
  endloop
 endfacet
 facet normal 0.120978 -0.98327 -0.136177
  outer loop
   vertex 103.023 120.943 184.718
   vertex 102.417 120.762 185.488
   vertex 102.197 120.832 184.787
  endloop
 endfacet
 facet normal -0.733126 -0.317999 -0.601168
  outer loop
   vertex 101.54 121.696 184.664
   vertex 101.524 120.989 185.057
   vertex 101.212 121.165 185.345
  endloop
 endfacet
 facet normal -0.658367 -0.406033 -0.63379
  outer loop
   vertex 101.54 121.696 184.664
   vertex 101.212 121.165 185.345
   vertex 101.235 121.827 184.897
  endloop
 endfacet
 facet normal -0.992265 -0.0440719 -0.116053
  outer loop
   vertex 101.235 121.827 184.897
   vertex 101.212 121.165 185.345
   vertex 101.148 121.834 185.637
  endloop
 endfacet
 facet normal -0.463817 -0.422663 -0.778608
  outer loop
   vertex 102.378 121.11 184.483
   vertex 101.524 120.989 185.057
   vertex 101.54 121.696 184.664
  endloop
 endfacet
 facet normal 0.870627 -0.438134 0.223712
  outer loop
   vertex 103.023 120.943 184.718
   vertex 103.19 121.594 185.342
   vertex 102.812 121.016 185.681
  endloop
 endfacet
 facet normal 0.595595 -0.630402 0.497855
  outer loop
   vertex 103.19 121.594 185.342
   vertex 103.023 120.943 184.718
   vertex 103.36 121.203 184.644
  endloop
 endfacet
 facet normal 0.866333 -0.315079 0.387547
  outer loop
   vertex 103.19 121.594 185.342
   vertex 103.36 121.203 184.644
   vertex 103.369 121.743 185.065
  endloop
 endfacet
 facet normal 0.999711 0.00343285 -0.0237994
  outer loop
   vertex 103.369 121.743 185.065
   vertex 103.36 121.203 184.644
   vertex 103.356 121.64 184.521
  endloop
 endfacet
 facet normal -0.888667 0.445496 -0.108646
  outer loop
   vertex 101.235 121.827 184.897
   vertex 101.148 121.834 185.637
   vertex 101.466 122.384 185.292
  endloop
 endfacet
 facet normal -0.280656 0.62973 -0.724343
  outer loop
   vertex 101.54 121.696 184.664
   vertex 101.235 121.827 184.897
   vertex 101.466 122.384 185.292
  endloop
 endfacet
 facet normal 0.018573 0.857869 -0.513533
  outer loop
   vertex 102.23 122.586 185.656
   vertex 102.379 122.005 184.69
   vertex 101.466 122.384 185.292
  endloop
 endfacet
 facet normal -0.214627 0.645044 -0.733385
  outer loop
   vertex 102.379 122.005 184.69
   vertex 101.54 121.696 184.664
   vertex 101.466 122.384 185.292
  endloop
 endfacet
 facet normal 0.422437 0.803854 -0.418767
  outer loop
   vertex 102.23 122.586 185.656
   vertex 103.054 121.976 185.317
   vertex 102.379 122.005 184.69
  endloop
 endfacet
 facet normal 0.156966 0.979663 -0.124986
  outer loop
   vertex 103.054 121.976 185.317
   vertex 103.212 121.865 184.639
   vertex 102.379 122.005 184.69
  endloop
 endfacet
 facet normal 0.80236 0.582566 -0.129751
  outer loop
   vertex 103.369 121.743 185.065
   vertex 103.356 121.64 184.521
   vertex 103.212 121.865 184.639
  endloop
 endfacet
 facet normal 0.599204 0.800567 0.00692058
  outer loop
   vertex 103.054 121.976 185.317
   vertex 103.369 121.743 185.065
   vertex 103.212 121.865 184.639
  endloop
 endfacet
 facet normal -0.675558 -0.728565 -0.113203
  outer loop
   vertex 101.509 120.812 185.596
   vertex 101.365 120.798 186.539
   vertex 101.131 121.059 186.252
  endloop
 endfacet
 facet normal -0.705435 -0.694124 -0.143368
  outer loop
   vertex 101.212 121.165 185.345
   vertex 101.509 120.812 185.596
   vertex 101.131 121.059 186.252
  endloop
 endfacet
 facet normal -0.0559418 -0.998377 -0.0107008
  outer loop
   vertex 102.417 120.762 185.488
   vertex 102.202 120.763 186.465
   vertex 101.509 120.812 185.596
  endloop
 endfacet
 facet normal -0.0432156 -0.998848 -0.0208803
  outer loop
   vertex 101.509 120.812 185.596
   vertex 102.202 120.763 186.465
   vertex 101.365 120.798 186.539
  endloop
 endfacet
 facet normal 0.323523 -0.851224 -0.413219
  outer loop
   vertex 102.812 121.016 185.681
   vertex 103.22 120.877 186.287
   vertex 103.056 120.815 186.286
  endloop
 endfacet
 facet normal 0.628408 -0.626384 -0.461246
  outer loop
   vertex 102.812 121.016 185.681
   vertex 103.056 120.815 186.286
   vertex 102.417 120.762 185.488
  endloop
 endfacet
 facet normal 0.0640959 -0.997821 0.0156378
  outer loop
   vertex 102.417 120.762 185.488
   vertex 103.056 120.815 186.286
   vertex 102.202 120.763 186.465
  endloop
 endfacet
 facet normal 0.348231 -0.921321 -0.172922
  outer loop
   vertex 103.056 120.815 186.286
   vertex 103.22 120.877 186.287
   vertex 103.294 120.871 186.472
  endloop
 endfacet
 facet normal -0.994087 -0.053705 -0.0943764
  outer loop
   vertex 101.212 121.165 185.345
   vertex 101.131 121.059 186.252
   vertex 101.148 121.834 185.637
  endloop
 endfacet
 facet normal -0.97638 -0.121178 -0.17888
  outer loop
   vertex 101.131 121.059 186.252
   vertex 100.992 121.697 186.579
   vertex 101.148 121.834 185.637
  endloop
 endfacet
 facet normal 0.780463 -0.154586 0.605789
  outer loop
   vertex 103.19 121.594 185.342
   vertex 102.593 121.916 186.193
   vertex 102.812 121.016 185.681
  endloop
 endfacet
 facet normal 0.683894 0.660919 -0.308991
  outer loop
   vertex 103.22 120.877 186.287
   vertex 102.812 121.016 185.681
   vertex 103.087 121.085 186.437
  endloop
 endfacet
 facet normal 0.847774 0.402703 -0.345123
  outer loop
   vertex 103.087 121.085 186.437
   vertex 102.812 121.016 185.681
   vertex 102.593 121.916 186.193
  endloop
 endfacet
 facet normal 0.715876 0.647346 -0.261659
  outer loop
   vertex 103.22 120.877 186.287
   vertex 103.087 121.085 186.437
   vertex 103.294 120.871 186.472
  endloop
 endfacet
 facet normal -0.882361 0.465091 -0.0716207
  outer loop
   vertex 101.469 122.538 186.255
   vertex 101.466 122.384 185.292
   vertex 101.148 121.834 185.637
  endloop
 endfacet
 facet normal -0.879949 0.468775 -0.0770682
  outer loop
   vertex 101.469 122.538 186.255
   vertex 101.148 121.834 185.637
   vertex 100.992 121.697 186.579
  endloop
 endfacet
 facet normal -0.18226 0.971056 -0.154375
  outer loop
   vertex 101.466 122.384 185.292
   vertex 101.469 122.538 186.255
   vertex 102.23 122.586 185.656
  endloop
 endfacet
 facet normal 0.828025 0.323164 0.458192
  outer loop
   vertex 103.054 121.976 185.317
   vertex 102.593 121.916 186.193
   vertex 103.19 121.594 185.342
  endloop
 endfacet
 facet normal 0.64562 0.659354 0.385262
  outer loop
   vertex 103.054 121.976 185.317
   vertex 102.23 122.586 185.656
   vertex 102.593 121.916 186.193
  endloop
 endfacet
 facet normal 0.917061 0.360774 -0.169827
  outer loop
   vertex 102.23 122.586 185.656
   vertex 102.311 122.68 186.289
   vertex 102.593 121.916 186.193
  endloop
 endfacet
 facet normal 0.722273 0.296397 0.624877
  outer loop
   vertex 103.369 121.743 185.065
   vertex 103.054 121.976 185.317
   vertex 103.19 121.594 185.342
  endloop
 endfacet
 facet normal -0.327379 0.879175 -0.346229
  outer loop
   vertex 102.23 122.586 185.656
   vertex 101.469 122.538 186.255
   vertex 102.131 122.8 186.294
  endloop
 endfacet
 facet normal 0.54076 0.81929 -0.190638
  outer loop
   vertex 102.131 122.8 186.294
   vertex 102.311 122.68 186.289
   vertex 102.23 122.586 185.656
  endloop
 endfacet
 facet normal -0.448106 -0.880932 0.152181
  outer loop
   vertex 101.365 120.798 186.539
   vertex 101.503 120.848 187.232
   vertex 101.185 120.993 187.137
  endloop
 endfacet
 facet normal -0.742518 -0.669806 -0.00525714
  outer loop
   vertex 101.131 121.059 186.252
   vertex 101.365 120.798 186.539
   vertex 101.185 120.993 187.137
  endloop
 endfacet
 facet normal 0.267075 -0.766751 0.58375
  outer loop
   vertex 102.157 121.042 187.188
   vertex 101.744 121.041 187.376
   vertex 101.503 120.848 187.232
  endloop
 endfacet
 facet normal 0.287939 -0.887487 0.359803
  outer loop
   vertex 102.157 121.042 187.188
   vertex 101.503 120.848 187.232
   vertex 102.202 120.763 186.465
  endloop
 endfacet
 facet normal -0.0343863 -0.996365 0.0779394
  outer loop
   vertex 102.202 120.763 186.465
   vertex 101.503 120.848 187.232
   vertex 101.365 120.798 186.539
  endloop
 endfacet
 facet normal 0.118699 -0.949821 0.289397
  outer loop
   vertex 102.202 120.763 186.465
   vertex 103.056 120.815 186.286
   vertex 102.994 120.949 186.749
  endloop
 endfacet
 facet normal 0.0872514 -0.927823 0.362673
  outer loop
   vertex 102.157 121.042 187.188
   vertex 102.202 120.763 186.465
   vertex 102.994 120.949 186.749
  endloop
 endfacet
 facet normal 0.00564515 -0.960738 0.277401
  outer loop
   vertex 103.056 120.815 186.286
   vertex 103.294 120.871 186.472
   vertex 102.994 120.949 186.749
  endloop
 endfacet
 facet normal -0.544145 0.612603 0.573257
  outer loop
   vertex 101.274 121.29 187.282
   vertex 101.534 121.781 187.003
   vertex 100.992 121.697 186.579
  endloop
 endfacet
 facet normal -0.909858 0.0745766 0.408163
  outer loop
   vertex 101.274 121.29 187.282
   vertex 100.992 121.697 186.579
   vertex 101.185 120.993 187.137
  endloop
 endfacet
 facet normal -0.97159 -0.233028 0.0413696
  outer loop
   vertex 101.185 120.993 187.137
   vertex 100.992 121.697 186.579
   vertex 101.131 121.059 186.252
  endloop
 endfacet
 facet normal 0.0687529 0.464065 0.883129
  outer loop
   vertex 101.744 121.041 187.376
   vertex 101.534 121.781 187.003
   vertex 101.274 121.29 187.282
  endloop
 endfacet
 facet normal 0.357581 0.498904 0.789449
  outer loop
   vertex 101.744 121.041 187.376
   vertex 102.157 121.042 187.188
   vertex 101.534 121.781 187.003
  endloop
 endfacet
 facet normal 0.119917 0.334888 0.934596
  outer loop
   vertex 102.157 121.042 187.188
   vertex 102.395 121.669 186.933
   vertex 101.534 121.781 187.003
  endloop
 endfacet
 facet normal 0.740287 0.55218 0.3835
  outer loop
   vertex 103.087 121.085 186.437
   vertex 102.593 121.916 186.193
   vertex 102.395 121.669 186.933
  endloop
 endfacet
 facet normal 0.741863 0.504697 0.441497
  outer loop
   vertex 103.087 121.085 186.437
   vertex 102.395 121.669 186.933
   vertex 102.994 120.949 186.749
  endloop
 endfacet
 facet normal 0.472456 0.172432 0.864322
  outer loop
   vertex 102.994 120.949 186.749
   vertex 102.395 121.669 186.933
   vertex 102.157 121.042 187.188
  endloop
 endfacet
 facet normal 0.598258 0.653663 0.463478
  outer loop
   vertex 103.294 120.871 186.472
   vertex 103.087 121.085 186.437
   vertex 102.994 120.949 186.749
  endloop
 endfacet
 facet normal -0.56458 0.555348 0.610605
  outer loop
   vertex 100.992 121.697 186.579
   vertex 101.534 121.781 187.003
   vertex 101.469 122.538 186.255
  endloop
 endfacet
 facet normal 0.130151 0.443485 0.886782
  outer loop
   vertex 102.395 121.669 186.933
   vertex 102.134 122.526 186.543
   vertex 101.534 121.781 187.003
  endloop
 endfacet
 facet normal -0.288555 0.660608 0.693061
  outer loop
   vertex 102.134 122.526 186.543
   vertex 101.469 122.538 186.255
   vertex 101.534 121.781 187.003
  endloop
 endfacet
 facet normal 0.744814 0.196071 0.637815
  outer loop
   vertex 102.593 121.916 186.193
   vertex 102.311 122.68 186.289
   vertex 102.134 122.526 186.543
  endloop
 endfacet
 facet normal 0.832084 0.418874 0.363567
  outer loop
   vertex 102.395 121.669 186.933
   vertex 102.593 121.916 186.193
   vertex 102.134 122.526 186.543
  endloop
 endfacet
 facet normal -0.295493 0.641091 0.708299
  outer loop
   vertex 102.134 122.526 186.543
   vertex 102.131 122.8 186.294
   vertex 101.469 122.538 186.255
  endloop
 endfacet
 facet normal 0.426355 0.610865 0.667132
  outer loop
   vertex 102.311 122.68 186.289
   vertex 102.131 122.8 186.294
   vertex 102.134 122.526 186.543
  endloop
 endfacet
 facet normal -0.433032 -0.898227 0.0753044
  outer loop
   vertex 101.503 120.848 187.232
   vertex 101.339 120.942 187.416
   vertex 101.185 120.993 187.137
  endloop
 endfacet
 facet normal 0.245479 -0.756521 0.606148
  outer loop
   vertex 101.503 120.848 187.232
   vertex 101.744 121.041 187.376
   vertex 101.339 120.942 187.416
  endloop
 endfacet
 facet normal -0.87323 0.0253917 0.486646
  outer loop
   vertex 101.185 120.993 187.137
   vertex 101.339 120.942 187.416
   vertex 101.274 121.29 187.282
  endloop
 endfacet
 facet normal 0.00493895 0.362297 0.93205
  outer loop
   vertex 101.744 121.041 187.376
   vertex 101.274 121.29 187.282
   vertex 101.339 120.942 187.416
  endloop
 endfacet
endsolid
