ply
format ascii 1.0
element vertex 516
property float x
property float y
property float z
property float nx
property float ny
property float nz
element face 172
property list uint uint vertex_indices
end_header
62.6947 164.793 158.351 -0.478998 -0.260574 -0.83825
62.5461 164.442 158.545 -0.478998 -0.260574 -0.83825
62.3835 164.855 158.51 -0.478998 -0.260574 -0.83825
62.5461 164.442 158.545 0.379084 -0.566041 -0.732047
62.6947 164.793 158.351 0.379084 -0.566041 -0.732047
62.8211 164.463 158.671 0.379084 -0.566041 -0.732047
62.6678 165.374 158.37 -0.452672 0.00756672 -0.891645
62.6947 164.793 158.351 -0.452672 0.00756672 -0.891645
62.3835 164.855 158.51 -0.452672 0.00756672 -0.891645
62.3751 165.495 158.611 -0.602056 0.116702 -0.78988
62.6678 165.374 158.37 -0.602056 0.116702 -0.78988
62.3835 164.855 158.51 -0.602056 0.116702 -0.78988
62.9259 165.267 158.608 0.856697 -0.15075 -0.4933
62.8211 164.463 158.671 0.856697 -0.15075 -0.4933
62.6947 164.793 158.351 0.856697 -0.15075 -0.4933
62.6678 165.374 158.37 0.689127 0.0550918 -0.722544
62.9259 165.267 158.608 0.689127 0.0550918 -0.722544
62.6947 164.793 158.351 0.689127 0.0550918 -0.722544
62.6678 165.374 158.37 -0.105217 0.831703 -0.545161
62.3751 165.495 158.611 -0.105217 0.831703 -0.545161
62.8036 165.652 158.767 -0.105217 0.831703 -0.545161
62.9259 165.267 158.608 0.699329 0.451307 -0.554311
62.6678 165.374 158.37 0.699329 0.451307 -0.554311
62.8036 165.652 158.767 0.699329 0.451307 -0.554311
61.6952 163.695 159.239 -0.42151 -0.498041 -0.757815
61.7173 163.28 159.499 -0.42151 -0.498041 -0.757815
61.3102 163.505 159.578 -0.42151 -0.498041 -0.757815
61.6952 163.695 159.239 -0.0826498 -0.609078 -0.788792
62.493 163.82 159.059 -0.0826498 -0.609078 -0.788792
62.3763 163.265 159.5 -0.0826498 -0.609078 -0.788792
61.7173 163.28 159.499 -0.0117671 -0.532009 -0.846657
61.6952 163.695 159.239 -0.0117671 -0.532009 -0.846657
62.3763 163.265 159.5 -0.0117671 -0.532009 -0.846657
62.3763 163.265 159.5 0.414508 -0.617755 -0.668253
62.493 163.82 159.059 0.414508 -0.617755 -0.668253
62.8725 163.546 159.547 0.414508 -0.617755 -0.668253
61.3102 163.505 159.578 -0.485356 -0.402091 -0.776371
60.8561 164.341 159.429 -0.485356 -0.402091 -0.776371
61.6952 163.695 159.239 -0.485356 -0.402091 -0.776371
61.6952 163.695 159.239 -0.383277 -0.235055 -0.893223
60.8561 164.341 159.429 -0.383277 -0.235055 -0.893223
61.8096 164.466 158.987 -0.383277 -0.235055 -0.893223
62.5461 164.442 158.545 -0.501975 -0.268265 -0.822226
61.8096 164.466 158.987 -0.501975 -0.268265 -0.822226
62.3835 164.855 158.51 -0.501975 -0.268265 -0.822226
62.5461 164.442 158.545 -0.443335 -0.547911 -0.709399
62.493 163.82 159.059 -0.443335 -0.547911 -0.709399
61.8096 164.466 158.987 -0.443335 -0.547911 -0.709399
62.493 163.82 159.059 -0.168665 -0.283505 -0.944022
61.6952 163.695 159.239 -0.168665 -0.283505 -0.944022
61.8096 164.466 158.987 -0.168665 -0.283505 -0.944022
62.493 163.82 159.059 0.368324 -0.61043 -0.701222
62.5461 164.442 158.545 0.368324 -0.61043 -0.701222
62.8211 164.463 158.671 0.368324 -0.61043 -0.701222
62.493 163.82 159.059 0.416774 -0.615617 -0.668816
62.8211 164.463 158.671 0.416774 -0.615617 -0.668816
62.8725 163.546 159.547 0.416774 -0.615617 -0.668816
62.8725 163.546 159.547 0.876471 -0.30597 -0.371726
62.8211 164.463 158.671 0.876471 -0.30597 -0.371726
63.1622 164.497 159.448 0.876471 -0.30597 -0.371726
60.8561 164.341 159.429 -0.610184 0.0189358 -0.792034
60.4728 164.506 159.728 -0.610184 0.0189358 -0.792034
60.7738 164.87 159.505 -0.610184 0.0189358 -0.792034
60.7738 164.87 159.505 -0.550035 0.677253 -0.488661
61.3225 165.444 159.683 -0.550035 0.677253 -0.488661
61.5982 165.263 159.122 -0.550035 0.677253 -0.488661
60.7738 164.87 159.505 -0.443533 0.0595825 -0.894275
61.5982 165.263 159.122 -0.443533 0.0595825 -0.894275
60.8561 164.341 159.429 -0.443533 0.0595825 -0.894275
60.8561 164.341 159.429 -0.424718 0.0410769 -0.904394
61.5982 165.263 159.122 -0.424718 0.0410769 -0.904394
61.8096 164.466 158.987 -0.424718 0.0410769 -0.904394
62.3835 164.855 158.51 -0.570829 0.120619 -0.812161
61.5982 165.263 159.122 -0.570829 0.120619 -0.812161
62.3751 165.495 158.611 -0.570829 0.120619 -0.812161
61.8096 164.466 158.987 -0.625483 -0.033397 -0.779523
61.5982 165.263 159.122 -0.625483 -0.033397 -0.779523
62.3835 164.855 158.51 -0.625483 -0.033397 -0.779523
63.6532 165.315 159.532 0.735401 -0.383805 -0.558462
63.1622 164.497 159.448 0.735401 -0.383805 -0.558462
62.9259 165.267 158.608 0.735401 -0.383805 -0.558462
63.1622 164.497 159.448 0.907668 -0.14943 -0.392185
62.8211 164.463 158.671 0.907668 -0.14943 -0.392185
62.9259 165.267 158.608 0.907668 -0.14943 -0.392185
61.5982 165.263 159.122 -0.500581 0.721376 -0.478577
61.3225 165.444 159.683 -0.500581 0.721376 -0.478577
61.9748 165.722 159.421 -0.500581 0.721376 -0.478577
62.3751 165.495 158.611 -0.517666 0.722347 -0.458515
61.5982 165.263 159.122 -0.517666 0.722347 -0.458515
61.9748 165.722 159.421 -0.517666 0.722347 -0.458515
62.3751 165.495 158.611 -0.203604 0.911847 -0.356483
61.9748 165.722 159.421 -0.203604 0.911847 -0.356483
62.8036 165.652 158.767 -0.203604 0.911847 -0.356483
62.8036 165.652 158.767 -0.0515016 0.983877 -0.171272
61.9748 165.722 159.421 -0.0515016 0.983877 -0.171272
62.8404 165.792 159.557 -0.0515016 0.983877 -0.171272
63.6532 165.315 159.532 0.688955 0.452831 -0.565937
62.9259 165.267 158.608 0.688955 0.452831 -0.565937
62.8036 165.652 158.767 0.688955 0.452831 -0.565937
63.6532 165.315 159.532 0.700897 0.25991 -0.664221
62.8036 165.652 158.767 0.700897 0.25991 -0.664221
63.5356 165.698 159.558 0.700897 0.25991 -0.664221
63.5356 165.698 159.558 0.131673 0.975136 -0.178247
62.8036 165.652 158.767 0.131673 0.975136 -0.178247
62.8404 165.792 159.557 0.131673 0.975136 -0.178247
61.7293 162.776 160.113 -0.526762 -0.749775 -0.400449
61.7721 162.418 160.726 -0.526762 -0.749775 -0.400449
61.3699 162.744 160.644 -0.526762 -0.749775 -0.400449
61.7293 162.776 160.113 -0.0548505 -0.796288 -0.602425
62.5738 162.75 160.069 -0.0548505 -0.796288 -0.602425
62.4399 162.439 160.493 -0.0548505 -0.796288 -0.602425
61.7721 162.418 160.726 -0.144261 -0.859157 -0.490956
61.7293 162.776 160.113 -0.144261 -0.859157 -0.490956
62.4399 162.439 160.493 -0.144261 -0.859157 -0.490956
62.4399 162.439 160.493 0.536882 -0.751766 -0.382891
62.5738 162.75 160.069 0.536882 -0.751766 -0.382891
62.844 162.724 160.5 0.536882 -0.751766 -0.382891
61.7293 162.776 160.113 -0.59906 -0.666017 -0.444465
61.3699 162.744 160.644 -0.59906 -0.666017 -0.444465
60.8517 163.426 160.322 -0.59906 -0.666017 -0.444465
61.7293 162.776 160.113 -0.59965 -0.668053 -0.440597
60.8517 163.426 160.322 -0.59965 -0.668053 -0.440597
61.3102 163.505 159.578 -0.59965 -0.668053 -0.440597
61.7293 162.776 160.113 -0.482814 -0.681333 -0.55016
61.3102 163.505 159.578 -0.482814 -0.681333 -0.55016
61.7173 163.28 159.499 -0.482814 -0.681333 -0.55016
62.3763 163.265 159.5 -0.0172728 -0.772824 -0.634386
61.7293 162.776 160.113 -0.0172728 -0.772824 -0.634386
61.7173 163.28 159.499 -0.0172728 -0.772824 -0.634386
62.5738 162.75 160.069 -0.0563873 -0.750819 -0.658097
61.7293 162.776 160.113 -0.0563873 -0.750819 -0.658097
62.3763 163.265 159.5 -0.0563873 -0.750819 -0.658097
62.5738 162.75 160.069 0.407796 -0.60303 -0.685607
62.3763 163.265 159.5 0.407796 -0.60303 -0.685607
62.8725 163.546 159.547 0.407796 -0.60303 -0.685607
62.5738 162.75 160.069 0.684885 -0.56167 -0.464177
62.8725 163.546 159.547 0.684885 -0.56167 -0.464177
62.844 162.724 160.5 0.684885 -0.56167 -0.464177
62.844 162.724 160.5 0.857505 -0.40192 -0.321163
62.8725 163.546 159.547 0.857505 -0.40192 -0.321163
63.2211 163.526 160.503 0.857505 -0.40192 -0.321163
60.8561 164.341 159.429 -0.542374 -0.585355 -0.602652
60.8517 163.426 160.322 -0.542374 -0.585355 -0.602652
60.4812 163.901 160.193 -0.542374 -0.585355 -0.602652
60.8561 164.341 159.429 -0.660391 -0.463793 -0.590576
60.4812 163.901 160.193 -0.660391 -0.463793 -0.590576
60.4728 164.506 159.728 -0.660391 -0.463793 -0.590576
60.4728 164.506 159.728 -0.999574 -0.0252097 -0.0147109
60.4812 163.901 160.193 -0.999574 -0.0252097 -0.0147109
60.4667 164.398 160.326 -0.999574 -0.0252097 -0.0147109
61.3102 163.505 159.578 -0.722567 -0.480979 -0.496544
60.8517 163.426 160.322 -0.722567 -0.480979 -0.496544
60.8561 164.341 159.429 -0.722567 -0.480979 -0.496544
63.8116 164.287 160.51 0.677983 -0.521799 -0.51775
63.2211 163.526 160.503 0.677983 -0.521799 -0.51775
63.1622 164.497 159.448 0.677983 -0.521799 -0.51775
63.2211 163.526 160.503 0.892162 -0.306586 -0.331742
62.8725 163.546 159.547 0.892162 -0.306586 -0.331742
63.1622 164.497 159.448 0.892162 -0.306586 -0.331742
60.4728 164.506 159.728 -0.877907 0.472727 0.0762102
60.4667 164.398 160.326 -0.877907 0.472727 0.0762102
60.6887 164.836 160.167 -0.877907 0.472727 0.0762102
60.7738 164.87 159.505 -0.789461 0.609769 -0.0702302
60.4728 164.506 159.728 -0.789461 0.609769 -0.0702302
60.6887 164.836 160.167 -0.789461 0.609769 -0.0702302
60.6887 164.836 160.167 -0.713156 0.698773 -0.0558963
61.3225 165.444 159.683 -0.713156 0.698773 -0.0558963
60.7738 164.87 159.505 -0.713156 0.698773 -0.0558963
61.3091 165.346 160.601 -0.662266 0.745995 0.0699737
61.3225 165.444 159.683 -0.662266 0.745995 0.0699737
60.6887 164.836 160.167 -0.662266 0.745995 0.0699737
63.1622 164.497 159.448 0.747627 -0.393553 -0.534948
63.6532 165.315 159.532 0.747627 -0.393553 -0.534948
63.8116 164.287 160.51 0.747627 -0.393553 -0.534948
63.8116 164.287 160.51 0.766582 -0.37656 -0.520149
63.6532 165.315 159.532 0.766582 -0.37656 -0.520149
64.1386 164.823 160.604 0.766582 -0.37656 -0.520149
64.1386 164.823 160.604 0.924027 0.195048 -0.32883
63.6532 165.315 159.532 0.924027 0.195048 -0.32883
63.8919 165.494 160.309 0.924027 0.195048 -0.32883
61.3225 165.444 159.683 -0.595298 0.799835 0.0767027
61.3091 165.346 160.601 -0.595298 0.799835 0.0767027
61.7929 165.723 160.421 -0.595298 0.799835 0.0767027
61.9748 165.722 159.421 -0.41747 0.90545 -0.0766738
61.3225 165.444 159.683 -0.41747 0.90545 -0.0766738
61.7929 165.723 160.421 -0.41747 0.90545 -0.0766738
62.8404 165.792 159.557 -0.076896 0.996901 -0.0165776
61.9748 165.722 159.421 -0.076896 0.996901 -0.0165776
62.6948 165.794 160.407 -0.076896 0.996901 -0.0165776
61.9748 165.722 159.421 -0.0788013 0.996775 -0.0151784
61.7929 165.723 160.421 -0.0788013 0.996775 -0.0151784
62.6948 165.794 160.407 -0.0788013 0.996775 -0.0151784
63.5356 165.698 159.558 0.133634 0.990663 -0.0269913
62.8404 165.792 159.557 0.133634 0.990663 -0.0269913
63.5719 165.716 160.409 0.133634 0.990663 -0.0269913
62.8404 165.792 159.557 0.0889924 0.995962 0.0118194
62.6948 165.794 160.407 0.0889924 0.995962 0.0118194
63.5719 165.716 160.409 0.0889924 0.995962 0.0118194
63.8919 165.494 160.309 0.891475 0.296901 -0.342231
63.6532 165.315 159.532 0.891475 0.296901 -0.342231
63.5356 165.698 159.558 0.891475 0.296901 -0.342231
63.5719 165.716 160.409 0.561254 0.826593 -0.0416915
63.8919 165.494 160.309 0.561254 0.826593 -0.0416915
63.5356 165.698 159.558 0.561254 0.826593 -0.0416915
61.7721 162.418 160.726 -0.613319 -0.788573 -0.0446295
61.7203 162.412 161.539 -0.613319 -0.788573 -0.0446295
61.4689 162.619 161.342 -0.613319 -0.788573 -0.0446295
61.3699 162.744 160.644 -0.622705 -0.78074 -0.051805
61.7721 162.418 160.726 -0.622705 -0.78074 -0.051805
61.4689 162.619 161.342 -0.622705 -0.78074 -0.051805
62.4399 162.439 160.493 0.0197524 -0.999276 -0.0325032
62.443 162.412 161.313 0.0197524 -0.999276 -0.0325032
61.7721 162.418 160.726 0.0197524 -0.999276 -0.0325032
61.7721 162.418 160.726 -0.00241024 -0.999971 -0.00717505
62.443 162.412 161.313 -0.00241024 -0.999971 -0.00717505
61.7203 162.412 161.539 -0.00241024 -0.999971 -0.00717505
62.443 162.412 161.313 0.5768 -0.816382 -0.0286733
62.4399 162.439 160.493 0.5768 -0.816382 -0.0286733
62.844 162.724 160.5 0.5768 -0.816382 -0.0286733
62.9311 162.779 161.377 0.601065 -0.799136 -0.0100924
62.443 162.412 161.313 0.601065 -0.799136 -0.0100924
62.844 162.724 160.5 0.601065 -0.799136 -0.0100924
60.8517 163.426 160.322 -0.79199 -0.541493 0.282025
60.6923 163.846 160.68 -0.79199 -0.541493 0.282025
60.4812 163.901 160.193 -0.79199 -0.541493 0.282025
60.8517 163.426 160.322 -0.787205 -0.545107 0.288387
61.2624 163.376 161.349 -0.787205 -0.545107 0.288387
60.6923 163.846 160.68 -0.787205 -0.545107 0.288387
60.8517 163.426 160.322 -0.82209 -0.480497 0.305437
61.3699 162.744 160.644 -0.82209 -0.480497 0.305437
61.2624 163.376 161.349 -0.82209 -0.480497 0.305437
61.3699 162.744 160.644 -0.960711 -0.262823 0.0892101
61.4689 162.619 161.342 -0.960711 -0.262823 0.0892101
61.2624 163.376 161.349 -0.960711 -0.262823 0.0892101
63.5465 163.343 161.52 0.554583 -0.769695 -0.31624
63.2211 163.526 160.503 0.554583 -0.769695 -0.31624
63.7199 163.646 161.085 0.554583 -0.769695 -0.31624
63.5465 163.343 161.52 0.67774 -0.654598 -0.334918
62.9311 162.779 161.377 0.67774 -0.654598 -0.334918
63.2211 163.526 160.503 0.67774 -0.654598 -0.334918
62.9311 162.779 161.377 0.903188 -0.424545 -0.0633525
62.844 162.724 160.5 0.903188 -0.424545 -0.0633525
63.2211 163.526 160.503 0.903188 -0.424545 -0.0633525
63.5465 163.343 161.52 0.631658 -0.73089 -0.258472
63.7199 163.646 161.085 0.631658 -0.73089 -0.258472
64.0599 163.764 161.584 0.631658 -0.73089 -0.258472
60.6923 163.846 160.68 -0.764901 0.0953255 0.637055
60.731 164.585 160.616 -0.764901 0.0953255 0.637055
60.4667 164.398 160.326 -0.764901 0.0953255 0.637055
60.4812 163.901 160.193 -0.914942 -0.128948 0.38243
60.6923 163.846 160.68 -0.914942 -0.128948 0.38243
60.4667 164.398 160.326 -0.914942 -0.128948 0.38243
61.3302 164.425 161.414 -0.758216 0.00873399 0.651945
60.6923 163.846 160.68 -0.758216 0.00873399 0.651945
61.2624 163.376 161.349 -0.758216 0.00873399 0.651945
60.731 164.585 160.616 -0.787059 0.0940996 0.609658
60.6923 163.846 160.68 -0.787059 0.0940996 0.609658
61.3302 164.425 161.414 -0.787059 0.0940996 0.609658
63.2211 163.526 160.503 0.69322 -0.533917 -0.484127
63.8116 164.287 160.51 0.69322 -0.533917 -0.484127
63.7199 163.646 161.085 0.69322 -0.533917 -0.484127
64.1386 164.823 160.604 0.751968 -0.250957 -0.609561
64.6565 164.712 161.289 0.751968 -0.250957 -0.609561
64.6012 164.414 161.343 0.751968 -0.250957 -0.609561
63.8116 164.287 160.51 0.710722 -0.324222 -0.624303
64.1386 164.823 160.604 0.710722 -0.324222 -0.624303
64.6012 164.414 161.343 0.710722 -0.324222 -0.624303
63.8116 164.287 160.51 0.591182 -0.662922 -0.45939
64.6012 164.414 161.343 0.591182 -0.662922 -0.45939
64.0599 163.764 161.584 0.591182 -0.662922 -0.45939
63.8116 164.287 160.51 0.772888 -0.481617 -0.413145
64.0599 163.764 161.584 0.772888 -0.481617 -0.413145
63.7199 163.646 161.085 0.772888 -0.481617 -0.413145
64.6012 164.414 161.343 0.707784 -0.25196 -0.659968
64.6565 164.712 161.289 0.707784 -0.25196 -0.659968
64.8764 164.581 161.574 0.707784 -0.25196 -0.659968
60.4667 164.398 160.326 -0.770382 0.52293 0.364769
60.731 164.585 160.616 -0.770382 0.52293 0.364769
60.6887 164.836 160.167 -0.770382 0.52293 0.364769
60.731 164.585 160.616 -0.731556 0.563504 0.383782
61.3091 165.346 160.601 -0.731556 0.563504 0.383782
60.6887 164.836 160.167 -0.731556 0.563504 0.383782
60.731 164.585 160.616 -0.641815 0.499088 0.582223
61.3302 164.425 161.414 -0.641815 0.499088 0.582223
61.3091 165.346 160.601 -0.641815 0.499088 0.582223
61.3302 164.425 161.414 -0.932235 0.227191 0.281644
61.5374 165.339 161.363 -0.932235 0.227191 0.281644
61.3091 165.346 160.601 -0.932235 0.227191 0.281644
64.6565 164.712 161.289 0.697643 0.711204 -0.0865049
64.0327 165.318 161.247 0.697643 0.711204 -0.0865049
64.6537 164.765 161.707 0.697643 0.711204 -0.0865049
64.6565 164.712 161.289 0.655096 0.646771 -0.390559
64.1386 164.823 160.604 0.655096 0.646771 -0.390559
64.0327 165.318 161.247 0.655096 0.646771 -0.390559
64.1386 164.823 160.604 0.946644 0.311176 -0.0838761
63.8919 165.494 160.309 0.946644 0.311176 -0.0838761
64.0327 165.318 161.247 0.946644 0.311176 -0.0838761
64.8764 164.581 161.574 0.600104 0.793927 -0.0977486
64.6565 164.712 161.289 0.600104 0.793927 -0.0977486
64.6537 164.765 161.707 0.600104 0.793927 -0.0977486
61.3091 165.346 160.601 -0.776543 0.583232 0.238372
61.5374 165.339 161.363 -0.776543 0.583232 0.238372
61.714 165.642 161.196 -0.776543 0.583232 0.238372
61.7929 165.723 160.421 -0.609946 0.792158 0.02126
61.3091 165.346 160.601 -0.609946 0.792158 0.02126
61.714 165.642 161.196 -0.609946 0.792158 0.02126
62.6948 165.794 160.407 -0.0767039 0.992025 0.100016
61.7929 165.723 160.421 -0.0767039 0.992025 0.100016
62.4823 165.693 161.25 -0.0767039 0.992025 0.100016
61.7929 165.723 160.421 -0.0730218 0.992604 0.0969765
61.714 165.642 161.196 -0.0730218 0.992604 0.0969765
62.4823 165.693 161.25 -0.0730218 0.992604 0.0969765
63.5719 165.716 160.409 0.0878804 0.985517 0.14503
62.6948 165.794 160.407 0.0878804 0.985517 0.14503
63.442 165.593 161.325 0.0878804 0.985517 0.14503
62.6948 165.794 160.407 0.0919273 0.985624 0.141758
62.4823 165.693 161.25 0.0919273 0.985624 0.141758
63.442 165.593 161.325 0.0919273 0.985624 0.141758
64.0327 165.318 161.247 0.582786 0.810114 0.0638466
63.8919 165.494 160.309 0.582786 0.810114 0.0638466
63.5719 165.716 160.409 0.582786 0.810114 0.0638466
63.442 165.593 161.325 0.43371 0.882842 0.180236
64.0327 165.318 161.247 0.43371 0.882842 0.180236
63.5719 165.716 160.409 0.43371 0.882842 0.180236
61.7203 162.412 161.539 -0.587403 -0.784847 0.197416
61.8332 162.49 162.185 -0.587403 -0.784847 0.197416
61.5242 162.708 162.128 -0.587403 -0.784847 0.197416
61.4689 162.619 161.342 -0.687954 -0.714259 0.128661
61.7203 162.412 161.539 -0.687954 -0.714259 0.128661
61.5242 162.708 162.128 -0.687954 -0.714259 0.128661
62.5 162.613 161.873 0.381693 -0.768646 0.513316
62.0239 162.791 162.492 0.381693 -0.768646 0.513316
61.8332 162.49 162.185 0.381693 -0.768646 0.513316
62.5 162.613 161.873 0.304308 -0.906054 0.294044
61.8332 162.49 162.185 0.304308 -0.906054 0.294044
62.443 162.412 161.313 0.304308 -0.906054 0.294044
62.443 162.412 161.313 0.0353393 -0.99289 0.113665
61.8332 162.49 162.185 0.0353393 -0.99289 0.113665
61.7203 162.412 161.539 0.0353393 -0.99289 0.113665
62.443 162.412 161.313 0.565291 -0.793052 0.226968
62.9311 162.779 161.377 0.565291 -0.793052 0.226968
62.5 162.613 161.873 0.565291 -0.793052 0.226968
61.4689 162.619 161.342 -0.959989 -0.262702 0.0969972
61.5242 162.708 162.128 -0.959989 -0.262702 0.0969972
61.2624 163.376 161.349 -0.959989 -0.262702 0.0969972
61.5242 162.708 162.128 -0.959991 -0.0560566 0.274364
61.5184 163.458 162.262 -0.959991 -0.0560566 0.274364
61.2624 163.376 161.349 -0.959991 -0.0560566 0.274364
62.5 162.613 161.873 0.460391 -0.694738 0.552611
62.8311 163.154 162.277 0.460391 -0.694738 0.552611
62.0239 162.791 162.492 0.460391 -0.694738 0.552611
62.9311 162.779 161.377 0.658739 -0.665512 0.350938
62.8311 163.154 162.277 0.658739 -0.665512 0.350938
62.5 162.613 161.873 0.658739 -0.665512 0.350938
62.9311 162.779 161.377 0.58058 -0.726462 0.367668
63.5465 163.343 161.52 0.58058 -0.726462 0.367668
62.8311 163.154 162.277 0.58058 -0.726462 0.367668
63.5465 163.343 161.52 0.357239 -0.927959 0.106174
63.6068 163.463 162.371 0.357239 -0.927959 0.106174
62.8311 163.154 162.277 0.357239 -0.927959 0.106174
63.6068 163.463 162.371 0.627848 -0.775585 0.0653853
63.5465 163.343 161.52 0.627848 -0.775585 0.0653853
64.0599 163.764 161.584 0.627848 -0.775585 0.0653853
64.1041 163.797 162.376 0.557665 -0.830055 0.00415389
63.6068 163.463 162.371 0.557665 -0.830055 0.00415389
64.0599 163.764 161.584 0.557665 -0.830055 0.00415389
61.7846 163.905 162.389 -0.718714 0.416603 0.55668
61.7993 164.762 161.767 -0.718714 0.416603 0.55668
61.3302 164.425 161.414 -0.718714 0.416603 0.55668
61.7846 163.905 162.389 -0.784924 0.315114 0.533476
61.3302 164.425 161.414 -0.784924 0.315114 0.533476
61.5184 163.458 162.262 -0.784924 0.315114 0.533476
61.5184 163.458 162.262 -0.962882 0.0457777 0.266012
61.3302 164.425 161.414 -0.962882 0.0457777 0.266012
61.2624 163.376 161.349 -0.962882 0.0457777 0.266012
61.7846 163.905 162.389 -0.51132 0.51072 0.691171
62.3992 164.478 162.421 -0.51132 0.51072 0.691171
61.7993 164.762 161.767 -0.51132 0.51072 0.691171
64.0599 163.764 161.584 0.702212 -0.711911 -0.00893878
64.7293 164.417 162.139 0.702212 -0.711911 -0.00893878
64.1041 163.797 162.376 0.702212 -0.711911 -0.00893878
64.6012 164.414 161.343 0.741468 -0.660817 -0.116385
64.7293 164.417 162.139 0.741468 -0.660817 -0.116385
64.0599 163.764 161.584 0.741468 -0.660817 -0.116385
64.7293 164.417 162.139 0.569921 -0.816963 -0.0881023
64.6012 164.414 161.343 0.569921 -0.816963 -0.0881023
64.8764 164.581 161.574 0.569921 -0.816963 -0.0881023
61.7993 164.762 161.767 -0.514683 0.323299 0.79409
61.8738 165.479 161.524 -0.514683 0.323299 0.79409
61.5374 165.339 161.363 -0.514683 0.323299 0.79409
61.3302 164.425 161.414 -0.674908 0.193051 0.712201
61.7993 164.762 161.767 -0.674908 0.193051 0.712201
61.5374 165.339 161.363 -0.674908 0.193051 0.712201
62.6869 165.272 161.799 -0.396974 0.650911 0.647091
61.7993 164.762 161.767 -0.396974 0.650911 0.647091
62.3992 164.478 162.421 -0.396974 0.650911 0.647091
62.6869 165.272 161.799 -0.224686 0.334304 0.915291
61.8738 165.479 161.524 -0.224686 0.334304 0.915291
61.7993 164.762 161.767 -0.224686 0.334304 0.915291
63.7888 164.891 162.16 0.364374 0.802196 0.472983
64.6537 164.765 161.707 0.364374 0.802196 0.472983
64.0327 165.318 161.247 0.364374 0.802196 0.472983
63.7888 164.891 162.16 0.248484 0.945107 0.212201
64.5697 164.642 162.354 0.248484 0.945107 0.212201
64.6537 164.765 161.707 0.248484 0.945107 0.212201
64.7293 164.417 162.139 0.713427 0.601356 0.359712
64.8764 164.581 161.574 0.713427 0.601356 0.359712
64.6537 164.765 161.707 0.713427 0.601356 0.359712
64.5697 164.642 162.354 0.878536 0.435175 0.196972
64.7293 164.417 162.139 0.878536 0.435175 0.196972
64.6537 164.765 161.707 0.878536 0.435175 0.196972
61.5374 165.339 161.363 -0.533359 0.623943 0.571159
61.8738 165.479 161.524 -0.533359 0.623943 0.571159
61.714 165.642 161.196 -0.533359 0.623943 0.571159
62.4823 165.693 161.25 -0.0917744 0.872815 0.479345
61.714 165.642 161.196 -0.0917744 0.872815 0.479345
61.8738 165.479 161.524 -0.0917744 0.872815 0.479345
62.6869 165.272 161.799 -0.0048186 0.792439 0.609932
62.4823 165.693 161.25 -0.0048186 0.792439 0.609932
61.8738 165.479 161.524 -0.0048186 0.792439 0.609932
63.442 165.593 161.325 0.0367631 0.799358 0.59973
62.4823 165.693 161.25 0.0367631 0.799358 0.59973
62.6869 165.272 161.799 0.0367631 0.799358 0.59973
63.7888 164.891 162.16 0.0631463 0.776833 0.626532
63.442 165.593 161.325 0.0631463 0.776833 0.626532
62.6869 165.272 161.799 0.0631463 0.776833 0.626532
64.0327 165.318 161.247 0.421372 0.772869 0.474468
63.442 165.593 161.325 0.421372 0.772869 0.474468
63.7888 164.891 162.16 0.421372 0.772869 0.474468
61.8332 162.49 162.185 -0.580187 -0.73453 0.35192
61.6557 162.776 162.489 -0.580187 -0.73453 0.35192
61.5242 162.708 162.128 -0.580187 -0.73453 0.35192
61.8332 162.49 162.185 0.0214742 -0.722194 0.691357
62.0239 162.791 162.492 0.0214742 -0.722194 0.691357
61.6557 162.776 162.489 0.0214742 -0.722194 0.691357
61.6557 162.776 162.489 -0.774677 0.053894 0.630057
61.8587 163.386 162.686 -0.774677 0.053894 0.630057
61.5184 163.458 162.262 -0.774677 0.053894 0.630057
61.5242 162.708 162.128 -0.932722 -0.0699393 0.35375
61.6557 162.776 162.489 -0.932722 -0.0699393 0.35375
61.5184 163.458 162.262 -0.932722 -0.0699393 0.35375
62.0239 162.791 162.492 0.00319523 -0.309217 0.950986
61.8587 163.386 162.686 0.00319523 -0.309217 0.950986
61.6557 162.776 162.489 0.00319523 -0.309217 0.950986
62.0239 162.791 162.492 -0.341294 -0.375684 0.861615
62.7344 163.414 163.045 -0.341294 -0.375684 0.861615
61.8587 163.386 162.686 -0.341294 -0.375684 0.861615
62.0239 162.791 162.492 0.459769 -0.822171 0.33563
62.8311 163.154 162.277 0.459769 -0.822171 0.33563
62.7344 163.414 163.045 0.459769 -0.822171 0.33563
62.7344 163.414 163.045 -0.340882 -0.37795 0.860786
62.5114 163.758 163.108 -0.340882 -0.37795 0.860786
61.8587 163.386 162.686 -0.340882 -0.37795 0.860786
63.6311 163.798 162.716 0.4879 -0.576211 0.655694
62.9105 163.719 163.182 0.4879 -0.576211 0.655694
62.7344 163.414 163.045 0.4879 -0.576211 0.655694
63.6311 163.798 162.716 0.491448 -0.642168 0.588302
62.7344 163.414 163.045 0.491448 -0.642168 0.588302
63.6068 163.463 162.371 0.491448 -0.642168 0.588302
63.6068 163.463 162.371 0.312709 -0.887244 0.339133
62.7344 163.414 163.045 0.312709 -0.887244 0.339133
62.8311 163.154 162.277 0.312709 -0.887244 0.339133
63.6068 163.463 162.371 0.43757 -0.660638 0.609992
64.1041 163.797 162.376 0.43757 -0.660638 0.609992
63.6311 163.798 162.716 0.43757 -0.660638 0.609992
61.5184 163.458 162.262 -0.732455 0.256014 0.630845
61.8587 163.386 162.686 -0.732455 0.256014 0.630845
61.7846 163.905 162.389 -0.732455 0.256014 0.630845
62.3992 164.478 162.421 -0.212643 0.657531 0.722797
62.5114 163.758 163.108 -0.212643 0.657531 0.722797
62.9746 164.424 162.64 -0.212643 0.657531 0.722797
61.7846 163.905 162.389 -0.535188 0.538503 0.650836
62.5114 163.758 163.108 -0.535188 0.538503 0.650836
62.3992 164.478 162.421 -0.535188 0.538503 0.650836
61.7846 163.905 162.389 -0.63534 0.312836 0.706029
61.8587 163.386 162.686 -0.63534 0.312836 0.706029
62.5114 163.758 163.108 -0.63534 0.312836 0.706029
62.9105 163.719 163.182 -0.0846234 0.612736 0.785744
62.9746 164.424 162.64 -0.0846234 0.612736 0.785744
62.5114 163.758 163.108 -0.0846234 0.612736 0.785744
62.9105 163.719 163.182 0.41875 0.529794 0.737541
63.6311 163.798 162.716 0.41875 0.529794 0.737541
62.9746 164.424 162.64 0.41875 0.529794 0.737541
63.6311 163.798 162.716 0.0627161 0.185819 0.98058
63.8891 164.484 162.57 0.0627161 0.185819 0.98058
62.9746 164.424 162.64 0.0627161 0.185819 0.98058
64.1041 163.797 162.376 0.721958 -0.59107 0.359741
64.7293 164.417 162.139 0.721958 -0.59107 0.359741
64.4782 164.35 162.534 0.721958 -0.59107 0.359741
64.1041 163.797 162.376 0.494249 -0.530788 0.688464
64.4782 164.35 162.534 0.494249 -0.530788 0.688464
63.6311 163.798 162.716 0.494249 -0.530788 0.688464
63.6311 163.798 162.716 0.0991525 0.171998 0.980095
64.4782 164.35 162.534 0.0991525 0.171998 0.980095
63.8891 164.484 162.57 0.0991525 0.171998 0.980095
62.3992 164.478 162.421 -0.21581 0.649487 0.729104
62.9746 164.424 162.64 -0.21581 0.649487 0.729104
62.6869 165.272 161.799 -0.21581 0.649487 0.729104
63.7888 164.891 162.16 0.0118142 0.705933 0.70818
62.6869 165.272 161.799 0.0118142 0.705933 0.70818
62.9746 164.424 162.64 0.0118142 0.705933 0.70818
63.8891 164.484 162.57 0.00712507 0.709993 0.704172
63.7888 164.891 162.16 0.00712507 0.709993 0.704172
62.9746 164.424 162.64 0.00712507 0.709993 0.704172
64.5697 164.642 162.354 0.0547808 0.714753 0.697228
63.7888 164.891 162.16 0.0547808 0.714753 0.697228
63.8891 164.484 162.57 0.0547808 0.714753 0.697228
64.4782 164.35 162.534 0.1617 0.479889 0.862299
64.5697 164.642 162.354 0.1617 0.479889 0.862299
63.8891 164.484 162.57 0.1617 0.479889 0.862299
64.7293 164.417 162.139 0.835571 0.072918 0.544521
64.5697 164.642 162.354 0.835571 0.072918 0.544521
64.4782 164.35 162.534 0.835571 0.072918 0.544521
62.7344 163.414 163.045 -0.202772 -0.30158 0.931629
62.9105 163.719 163.182 -0.202772 -0.30158 0.931629
62.5114 163.758 163.108 -0.202772 -0.30158 0.931629
3 0 1 2
3 3 4 5
3 6 7 8
3 9 10 11
3 12 13 14
3 15 16 17
3 18 19 20
3 21 22 23
3 24 25 26
3 27 28 29
3 30 31 32
3 33 34 35
3 36 37 38
3 39 40 41
3 42 43 44
3 45 46 47
3 48 49 50
3 51 52 53
3 54 55 56
3 57 58 59
3 60 61 62
3 63 64 65
3 66 67 68
3 69 70 71
3 72 73 74
3 75 76 77
3 78 79 80
3 81 82 83
3 84 85 86
3 87 88 89
3 90 91 92
3 93 94 95
3 96 97 98
3 99 100 101
3 102 103 104
3 105 106 107
3 108 109 110
3 111 112 113
3 114 115 116
3 117 118 119
3 120 121 122
3 123 124 125
3 126 127 128
3 129 130 131
3 132 133 134
3 135 136 137
3 138 139 140
3 141 142 143
3 144 145 146
3 147 148 149
3 150 151 152
3 153 154 155
3 156 157 158
3 159 160 161
3 162 163 164
3 165 166 167
3 168 169 170
3 171 172 173
3 174 175 176
3 177 178 179
3 180 181 182
3 183 184 185
3 186 187 188
3 189 190 191
3 192 193 194
3 195 196 197
3 198 199 200
3 201 202 203
3 204 205 206
3 207 208 209
3 210 211 212
3 213 214 215
3 216 217 218
3 219 220 221
3 222 223 224
3 225 226 227
3 228 229 230
3 231 232 233
3 234 235 236
3 237 238 239
3 240 241 242
3 243 244 245
3 246 247 248
3 249 250 251
3 252 253 254
3 255 256 257
3 258 259 260
3 261 262 263
3 264 265 266
3 267 268 269
3 270 271 272
3 273 274 275
3 276 277 278
3 279 280 281
3 282 283 284
3 285 286 287
3 288 289 290
3 291 292 293
3 294 295 296
3 297 298 299
3 300 301 302
3 303 304 305
3 306 307 308
3 309 310 311
3 312 313 314
3 315 316 317
3 318 319 320
3 321 322 323
3 324 325 326
3 327 328 329
3 330 331 332
3 333 334 335
3 336 337 338
3 339 340 341
3 342 343 344
3 345 346 347
3 348 349 350
3 351 352 353
3 354 355 356
3 357 358 359
3 360 361 362
3 363 364 365
3 366 367 368
3 369 370 371
3 372 373 374
3 375 376 377
3 378 379 380
3 381 382 383
3 384 385 386
3 387 388 389
3 390 391 392
3 393 394 395
3 396 397 398
3 399 400 401
3 402 403 404
3 405 406 407
3 408 409 410
3 411 412 413
3 414 415 416
3 417 418 419
3 420 421 422
3 423 424 425
3 426 427 428
3 429 430 431
3 432 433 434
3 435 436 437
3 438 439 440
3 441 442 443
3 444 445 446
3 447 448 449
3 450 451 452
3 453 454 455
3 456 457 458
3 459 460 461
3 462 463 464
3 465 466 467
3 468 469 470
3 471 472 473
3 474 475 476
3 477 478 479
3 480 481 482
3 483 484 485
3 486 487 488
3 489 490 491
3 492 493 494
3 495 496 497
3 498 499 500
3 501 502 503
3 504 505 506
3 507 508 509
3 510 511 512
3 513 514 515
