ply
format ascii 1.0
element vertex 390
property float x
property float y
property float z
property float nx
property float ny
property float nz
element face 130
property list uint uint vertex_indices
end_header
113.89 102.153 170.051 -0.0327662 -0.117039 -0.992587
113.35 103.118 169.955 -0.0327662 -0.117039 -0.992587
114.394 102.313 170.015 -0.0327662 -0.117039 -0.992587
114.394 102.313 170.015 -0.092367 -0.193159 -0.97681
113.35 103.118 169.955 -0.092367 -0.193159 -0.97681
114.198 103.242 169.85 -0.092367 -0.193159 -0.97681
115.111 102.939 169.956 0.0602252 -0.162387 -0.984888
114.394 102.313 170.015 0.0602252 -0.162387 -0.984888
114.198 103.242 169.85 0.0602252 -0.162387 -0.984888
113.074 104.096 170.017 -0.207593 0.00345552 -0.978209
113.427 103.997 169.941 -0.207593 0.00345552 -0.978209
113.35 103.118 169.955 -0.207593 0.00345552 -0.978209
113.717 104.036 170.025 0.227369 0.338932 -0.912923
114.578 103.457 170.025 0.227369 0.338932 -0.912923
114.198 103.242 169.85 0.227369 0.338932 -0.912923
113.717 104.036 170.025 0.219786 0.335069 -0.9162
114.198 103.242 169.85 0.219786 0.335069 -0.9162
113.427 103.997 169.941 0.219786 0.335069 -0.9162
113.427 103.997 169.941 -0.121937 -0.00428204 -0.992529
114.198 103.242 169.85 -0.121937 -0.00428204 -0.992529
113.35 103.118 169.955 -0.121937 -0.00428204 -0.992529
115.111 102.939 169.956 0.221036 0.348479 -0.910882
114.198 103.242 169.85 0.221036 0.348479 -0.910882
114.578 103.457 170.025 0.221036 0.348479 -0.910882
115.278 103.291 170.042 0.0729338 0.204722 -0.976099
115.111 102.939 169.956 0.0729338 0.204722 -0.976099
114.578 103.457 170.025 0.0729338 0.204722 -0.976099
115.448 102.969 170.285 0.697458 -0.159079 -0.698747
115.111 102.939 169.956 0.697458 -0.159079 -0.698747
115.278 103.291 170.042 0.697458 -0.159079 -0.698747
113.427 103.997 169.941 -0.000155846 0.605924 -0.795523
113.074 104.096 170.017 -0.000155846 0.605924 -0.795523
113.259 104.803 170.556 -0.000155846 0.605924 -0.795523
113.717 104.036 170.025 0.139569 0.618333 -0.773424
113.427 103.997 169.941 0.139569 0.618333 -0.773424
113.259 104.803 170.556 0.139569 0.618333 -0.773424
114.298 101.511 170.586 -0.0191499 -0.754463 -0.656064
114.466 101.271 170.858 -0.0191499 -0.754463 -0.656064
114.036 101.32 170.814 -0.0191499 -0.754463 -0.656064
114.466 101.271 170.858 0.470346 -0.495732 -0.730085
114.298 101.511 170.586 0.470346 -0.495732 -0.730085
115.099 101.87 170.859 0.470346 -0.495732 -0.730085
113.383 102.08 170.406 -0.421966 -0.785122 -0.453353
113.47 101.65 171.07 -0.421966 -0.785122 -0.453353
112.695 102.187 170.861 -0.421966 -0.785122 -0.453353
114.036 101.32 170.814 -0.588619 -0.711553 -0.383692
113.47 101.65 171.07 -0.588619 -0.711553 -0.383692
113.383 102.08 170.406 -0.588619 -0.711553 -0.383692
114.298 101.511 170.586 -0.224429 -0.603181 -0.765378
114.036 101.32 170.814 -0.224429 -0.603181 -0.765378
113.383 102.08 170.406 -0.224429 -0.603181 -0.765378
114.298 101.511 170.586 -0.326837 -0.719613 -0.612645
113.383 102.08 170.406 -0.326837 -0.719613 -0.612645
113.89 102.153 170.051 -0.326837 -0.719613 -0.612645
114.298 101.511 170.586 0.130323 -0.585541 -0.800098
113.89 102.153 170.051 0.130323 -0.585541 -0.800098
114.394 102.313 170.015 0.130323 -0.585541 -0.800098
114.394 102.313 170.015 0.478575 -0.546643 -0.687131
115.099 101.87 170.859 0.478575 -0.546643 -0.687131
114.298 101.511 170.586 0.478575 -0.546643 -0.687131
112.438 102.953 170.419 -0.639713 -0.549152 -0.537772
112.23 102.555 171.071 -0.639713 -0.549152 -0.537772
111.802 103.286 170.834 -0.639713 -0.549152 -0.537772
112.695 102.187 170.861 -0.6603 -0.529655 -0.532419
112.23 102.555 171.071 -0.6603 -0.529655 -0.532419
112.438 102.953 170.419 -0.6603 -0.529655 -0.532419
113.383 102.08 170.406 -0.518073 -0.551842 -0.653507
112.695 102.187 170.861 -0.518073 -0.551842 -0.653507
112.438 102.953 170.419 -0.518073 -0.551842 -0.653507
113.383 102.08 170.406 -0.36329 -0.381448 -0.85001
112.438 102.953 170.419 -0.36329 -0.381448 -0.85001
113.35 103.118 169.955 -0.36329 -0.381448 -0.85001
113.89 102.153 170.051 -0.501028 -0.358581 -0.787649
113.383 102.08 170.406 -0.501028 -0.358581 -0.787649
113.35 103.118 169.955 -0.501028 -0.358581 -0.787649
114.394 102.313 170.015 0.449101 -0.579748 -0.679853
115.111 102.939 169.956 0.449101 -0.579748 -0.679853
115.099 101.87 170.859 0.449101 -0.579748 -0.679853
115.099 101.87 170.859 0.625084 -0.508005 -0.592622
115.111 102.939 169.956 0.625084 -0.508005 -0.592622
115.448 102.969 170.285 0.625084 -0.508005 -0.592622
115.099 101.87 170.859 0.620593 -0.508718 -0.596716
115.448 102.969 170.285 0.620593 -0.508718 -0.596716
115.494 102.098 171.075 0.620593 -0.508718 -0.596716
115.494 102.098 171.075 0.998007 -0.00453902 -0.0629472
115.448 102.969 170.285 0.998007 -0.00453902 -0.0629472
115.494 102.971 171.007 0.998007 -0.00453902 -0.0629472
112.383 104.025 170.312 -0.58387 -0.109786 -0.80439
112.438 102.953 170.419 -0.58387 -0.109786 -0.80439
111.802 103.286 170.834 -0.58387 -0.109786 -0.80439
111.731 104.132 170.969 -0.704676 0.0535811 -0.707503
112.383 104.025 170.312 -0.704676 0.0535811 -0.707503
111.802 103.286 170.834 -0.704676 0.0535811 -0.707503
113.35 103.118 169.955 -0.387968 -0.0511877 -0.92025
112.383 104.025 170.312 -0.387968 -0.0511877 -0.92025
113.074 104.096 170.017 -0.387968 -0.0511877 -0.92025
112.438 102.953 170.419 -0.434395 -0.111098 -0.893845
112.383 104.025 170.312 -0.434395 -0.111098 -0.893845
113.35 103.118 169.955 -0.434395 -0.111098 -0.893845
114.578 103.457 170.025 0.399664 0.594644 -0.697615
113.717 104.036 170.025 0.399664 0.594644 -0.697615
114.276 104.243 170.522 0.399664 0.594644 -0.697615
114.578 103.457 170.025 0.201325 0.788598 -0.581018
115.193 103.913 170.857 0.201325 0.788598 -0.581018
115.278 103.291 170.042 0.201325 0.788598 -0.581018
114.276 104.243 170.522 0.456053 0.594144 -0.662577
115.193 103.913 170.857 0.456053 0.594144 -0.662577
114.578 103.457 170.025 0.456053 0.594144 -0.662577
115.278 103.291 170.042 0.919091 0.353567 -0.17396
115.193 103.913 170.857 0.919091 0.353567 -0.17396
115.448 102.969 170.285 0.919091 0.353567 -0.17396
115.448 102.969 170.285 0.953746 0.294388 -0.0608625
115.193 103.913 170.857 0.953746 0.294388 -0.0608625
115.494 102.971 171.007 0.953746 0.294388 -0.0608625
112.287 104.877 170.764 -0.653842 0.295481 -0.69655
112.383 104.025 170.312 -0.653842 0.295481 -0.69655
111.731 104.132 170.969 -0.653842 0.295481 -0.69655
112.159 104.92 171.099 -0.791881 0.489862 -0.364636
112.287 104.877 170.764 -0.791881 0.489862 -0.364636
111.731 104.132 170.969 -0.791881 0.489862 -0.364636
113.074 104.096 170.017 -0.360503 0.622898 -0.694288
112.383 104.025 170.312 -0.360503 0.622898 -0.694288
113.259 104.803 170.556 -0.360503 0.622898 -0.694288
112.383 104.025 170.312 -0.154305 0.449065 -0.880074
112.287 104.877 170.764 -0.154305 0.449065 -0.880074
113.259 104.803 170.556 -0.154305 0.449065 -0.880074
113.259 104.803 170.556 0.34367 0.66443 -0.663644
114.276 104.243 170.522 0.34367 0.66443 -0.663644
113.717 104.036 170.025 0.34367 0.66443 -0.663644
113.259 104.803 170.556 0.185918 0.391997 -0.900984
114.296 104.935 170.827 0.185918 0.391997 -0.900984
114.276 104.243 170.522 0.185918 0.391997 -0.900984
114.726 104.902 171.092 0.500093 0.416796 -0.75907
115.193 103.913 170.857 0.500093 0.416796 -0.75907
114.296 104.935 170.827 0.500093 0.416796 -0.75907
114.296 104.935 170.827 0.430806 0.353837 -0.830184
115.193 103.913 170.857 0.430806 0.353837 -0.830184
114.276 104.243 170.522 0.430806 0.353837 -0.830184
112.287 104.877 170.764 -0.584908 0.746167 -0.31799
112.159 104.92 171.099 -0.584908 0.746167 -0.31799
112.562 105.186 170.984 -0.584908 0.746167 -0.31799
113.259 104.803 170.556 -0.113682 0.640992 -0.759082
112.287 104.877 170.764 -0.113682 0.640992 -0.759082
112.562 105.186 170.984 -0.113682 0.640992 -0.759082
113.505 105.231 171.031 -0.0016767 0.743653 -0.668564
113.259 104.803 170.556 -0.0016767 0.743653 -0.668564
112.562 105.186 170.984 -0.0016767 0.743653 -0.668564
114.296 104.935 170.827 0.0898898 0.716676 -0.691589
113.259 104.803 170.556 0.0898898 0.716676 -0.691589
113.505 105.231 171.031 0.0898898 0.716676 -0.691589
114.295 105.165 171.104 0.122002 0.763089 -0.634673
114.296 104.935 170.827 0.122002 0.763089 -0.634673
113.505 105.231 171.031 0.122002 0.763089 -0.634673
114.726 104.902 171.092 0.412937 0.700503 -0.582047
114.296 104.935 170.827 0.412937 0.700503 -0.582047
114.295 105.165 171.104 0.412937 0.700503 -0.582047
114.466 101.271 170.858 -0.124115 -0.984859 0.121025
114.348 101.319 171.123 -0.124115 -0.984859 0.121025
114.036 101.32 170.814 -0.124115 -0.984859 0.121025
115.099 101.87 170.859 0.630093 -0.666903 0.397774
114.348 101.319 171.123 0.630093 -0.666903 0.397774
114.466 101.271 170.858 0.630093 -0.666903 0.397774
113.47 101.65 171.07 -0.417878 -0.881932 0.218114
113.519 101.81 171.808 -0.417878 -0.881932 0.218114
112.781 102.111 171.614 -0.417878 -0.881932 0.218114
112.695 102.187 170.861 -0.566043 -0.824174 -0.0182106
113.47 101.65 171.07 -0.566043 -0.824174 -0.0182106
112.781 102.111 171.614 -0.566043 -0.824174 -0.0182106
114.348 101.319 171.123 -0.349453 -0.869505 0.349062
113.47 101.65 171.07 -0.349453 -0.869505 0.349062
114.036 101.32 170.814 -0.349453 -0.869505 0.349062
114.348 101.319 171.123 -0.344525 -0.847669 0.403435
114.427 101.538 171.651 -0.344525 -0.847669 0.403435
113.47 101.65 171.07 -0.344525 -0.847669 0.403435
114.427 101.538 171.651 -0.244658 -0.944288 0.220143
113.519 101.81 171.808 -0.244658 -0.944288 0.220143
113.47 101.65 171.07 -0.244658 -0.944288 0.220143
114.994 101.311 171.667 -0.0210601 -0.820591 -0.571127
115.099 101.87 170.859 -0.0210601 -0.820591 -0.571127
115.379 101.342 171.608 -0.0210601 -0.820591 -0.571127
114.994 101.311 171.667 -0.291458 -0.768089 -0.570168
114.427 101.538 171.651 -0.291458 -0.768089 -0.570168
115.099 101.87 170.859 -0.291458 -0.768089 -0.570168
114.348 101.319 171.123 0.626439 -0.748752 0.216667
115.099 101.87 170.859 0.626439 -0.748752 0.216667
114.427 101.538 171.651 0.626439 -0.748752 0.216667
115.379 101.342 171.608 0.620861 -0.512707 -0.593012
115.099 101.87 170.859 0.620861 -0.512707 -0.593012
115.494 102.098 171.075 0.620861 -0.512707 -0.593012
115.379 101.342 171.608 0.865855 -0.369683 -0.33709
115.494 102.098 171.075 0.865855 -0.369683 -0.33709
115.467 101.448 171.718 0.865855 -0.369683 -0.33709
115.467 101.448 171.718 0.965689 0.160999 0.203774
115.494 102.098 171.075 0.965689 0.160999 0.203774
115.306 102.246 171.847 0.965689 0.160999 0.203774
112.23 102.555 171.071 -0.837251 -0.513411 0.1882
112.384 102.577 171.813 -0.837251 -0.513411 0.1882
111.934 103.23 171.596 -0.837251 -0.513411 0.1882
111.802 103.286 170.834 -0.873059 -0.473484 0.116534
112.23 102.555 171.071 -0.873059 -0.473484 0.116534
111.934 103.23 171.596 -0.873059 -0.473484 0.116534
112.781 102.111 171.614 -0.622932 -0.782241 -0.00744925
112.23 102.555 171.071 -0.622932 -0.782241 -0.00744925
112.695 102.187 170.861 -0.622932 -0.782241 -0.00744925
112.384 102.577 171.813 -0.713319 -0.680554 0.1674
112.23 102.555 171.071 -0.713319 -0.680554 0.1674
112.781 102.111 171.614 -0.713319 -0.680554 0.1674
115.421 103.1 171.619 0.837684 0.243024 0.489107
115.172 103.397 171.898 0.837684 0.243024 0.489107
115.275 102.908 171.964 0.837684 0.243024 0.489107
115.421 103.1 171.619 0.925558 -0.0228369 0.377918
115.275 102.908 171.964 0.925558 -0.0228369 0.377918
115.306 102.246 171.847 0.925558 -0.0228369 0.377918
115.421 103.1 171.619 0.985914 -0.0950266 0.137636
115.306 102.246 171.847 0.985914 -0.0950266 0.137636
115.494 102.971 171.007 0.985914 -0.0950266 0.137636
115.494 102.971 171.007 0.972388 0.0185267 0.232632
115.306 102.246 171.847 0.972388 0.0185267 0.232632
115.494 102.098 171.075 0.972388 0.0185267 0.232632
111.802 103.286 170.834 -0.980839 -0.108507 0.161804
111.934 103.23 171.596 -0.980839 -0.108507 0.161804
111.731 104.132 170.969 -0.980839 -0.108507 0.161804
111.934 103.23 171.596 -0.889064 0.108599 0.444716
112.11 104.133 171.727 -0.889064 0.108599 0.444716
111.731 104.132 170.969 -0.889064 0.108599 0.444716
115.193 103.913 170.857 0.844782 0.472202 0.251733
115.172 103.397 171.898 0.844782 0.472202 0.251733
115.421 103.1 171.619 0.844782 0.472202 0.251733
114.934 104.318 171.765 0.951656 0.266871 0.15209
115.172 103.397 171.898 0.951656 0.266871 0.15209
115.193 103.913 170.857 0.951656 0.266871 0.15209
115.421 103.1 171.619 0.949439 0.310299 0.0477413
115.494 102.971 171.007 0.949439 0.310299 0.0477413
115.193 103.913 170.857 0.949439 0.310299 0.0477413
112.278 104.784 171.728 -0.810283 0.521888 0.266598
112.411 105.165 171.387 -0.810283 0.521888 0.266598
112.159 104.92 171.099 -0.810283 0.521888 0.266598
112.278 104.784 171.728 -0.942116 0.242627 0.231409
112.159 104.92 171.099 -0.942116 0.242627 0.231409
112.11 104.133 171.727 -0.942116 0.242627 0.231409
112.11 104.133 171.727 -0.82718 0.380543 0.413474
112.159 104.92 171.099 -0.82718 0.380543 0.413474
111.731 104.132 170.969 -0.82718 0.380543 0.413474
112.278 104.784 171.728 -0.621693 0.632071 0.462584
112.666 105.062 171.87 -0.621693 0.632071 0.462584
112.411 105.165 171.387 -0.621693 0.632071 0.462584
115.193 103.913 170.857 0.908193 0.411765 0.0750686
114.726 104.902 171.092 0.908193 0.411765 0.0750686
114.934 104.318 171.765 0.908193 0.411765 0.0750686
114.726 104.902 171.092 0.811303 0.542362 0.218244
114.481 105.038 171.663 0.811303 0.542362 0.218244
114.934 104.318 171.765 0.811303 0.542362 0.218244
112.159 104.92 171.099 -0.577454 0.797831 -0.173241
112.411 105.165 171.387 -0.577454 0.797831 -0.173241
112.562 105.186 170.984 -0.577454 0.797831 -0.173241
112.411 105.165 171.387 -0.400606 0.830029 0.388029
112.666 105.062 171.87 -0.400606 0.830029 0.388029
113.146 105.394 171.656 -0.400606 0.830029 0.388029
112.411 105.165 171.387 -0.279152 0.958768 -0.0532778
113.146 105.394 171.656 -0.279152 0.958768 -0.0532778
112.562 105.186 170.984 -0.279152 0.958768 -0.0532778
112.562 105.186 170.984 -0.0323972 0.962567 -0.2691
113.146 105.394 171.656 -0.0323972 0.962567 -0.2691
113.505 105.231 171.031 -0.0323972 0.962567 -0.2691
114.295 105.165 171.104 0.0858011 0.995993 -0.0252195
113.505 105.231 171.031 0.0858011 0.995993 -0.0252195
114.046 105.202 171.724 0.0858011 0.995993 -0.0252195
113.505 105.231 171.031 0.215814 0.967993 -0.128117
113.146 105.394 171.656 0.215814 0.967993 -0.128117
114.046 105.202 171.724 0.215814 0.967993 -0.128117
114.481 105.038 171.663 0.522594 0.852333 0.020586
114.726 104.902 171.092 0.522594 0.852333 0.020586
114.295 105.165 171.104 0.522594 0.852333 0.020586
114.046 105.202 171.724 0.363402 0.927233 0.0904304
114.481 105.038 171.663 0.363402 0.927233 0.0904304
114.295 105.165 171.104 0.363402 0.927233 0.0904304
115.379 101.342 171.608 0.110054 -0.969632 0.218409
115.192 101.379 171.87 0.110054 -0.969632 0.218409
114.994 101.311 171.667 0.110054 -0.969632 0.218409
115.379 101.342 171.608 0.433374 -0.795584 0.423358
115.467 101.448 171.718 0.433374 -0.795584 0.423358
115.192 101.379 171.87 0.433374 -0.795584 0.423358
113.519 101.81 171.808 -0.427323 -0.627739 0.650644
113.3 102.378 172.213 -0.427323 -0.627739 0.650644
112.781 102.111 171.614 -0.427323 -0.627739 0.650644
113.519 101.81 171.808 -0.0758311 -0.676038 0.732955
114.427 101.538 171.651 -0.0758311 -0.676038 0.732955
114.387 102.028 172.099 -0.0758311 -0.676038 0.732955
113.3 102.378 172.213 -0.112339 -0.604847 0.788378
113.519 101.81 171.808 -0.112339 -0.604847 0.788378
114.387 102.028 172.099 -0.112339 -0.604847 0.788378
114.427 101.538 171.651 -0.319566 -0.758619 0.567781
114.994 101.311 171.667 -0.319566 -0.758619 0.567781
115.192 101.379 171.87 -0.319566 -0.758619 0.567781
114.427 101.538 171.651 -0.330414 -0.651312 0.683095
115.192 101.379 171.87 -0.330414 -0.651312 0.683095
114.387 102.028 172.099 -0.330414 -0.651312 0.683095
114.387 102.028 172.099 0.266282 -0.00979213 0.963845
115.192 101.379 171.87 0.266282 -0.00979213 0.963845
115.306 102.246 171.847 0.266282 -0.00979213 0.963845
115.192 101.379 171.87 0.491966 -0.0419576 0.869603
115.467 101.448 171.718 0.491966 -0.0419576 0.869603
115.306 102.246 171.847 0.491966 -0.0419576 0.869603
112.384 102.577 171.813 -0.694113 -0.253058 0.673921
112.497 103.297 172.2 -0.694113 -0.253058 0.673921
111.934 103.23 171.596 -0.694113 -0.253058 0.673921
112.384 102.577 171.813 -0.419953 -0.635627 0.647779
112.781 102.111 171.614 -0.419953 -0.635627 0.647779
113.3 102.378 172.213 -0.419953 -0.635627 0.647779
112.384 102.577 171.813 -0.437486 -0.371107 0.819076
113.3 102.378 172.213 -0.437486 -0.371107 0.819076
112.497 103.297 172.2 -0.437486 -0.371107 0.819076
112.497 103.297 172.2 -0.370182 -0.311458 0.875191
113.3 102.378 172.213 -0.370182 -0.311458 0.875191
113.466 103.26 172.597 -0.370182 -0.311458 0.875191
114.387 102.028 172.099 -0.00962819 -0.33611 0.941774
114.462 102.951 172.429 -0.00962819 -0.33611 0.941774
113.3 102.378 172.213 -0.00962819 -0.33611 0.941774
114.462 102.951 172.429 0.0287679 -0.403653 0.91446
113.466 103.26 172.597 0.0287679 -0.403653 0.91446
113.3 102.378 172.213 0.0287679 -0.403653 0.91446
115.275 102.908 171.964 0.493168 0.217725 0.842248
115.172 103.397 171.898 0.493168 0.217725 0.842248
114.462 102.951 172.429 0.493168 0.217725 0.842248
115.275 102.908 171.964 0.486855 -0.129484 0.863832
114.462 102.951 172.429 0.486855 -0.129484 0.863832
115.306 102.246 171.847 0.486855 -0.129484 0.863832
115.306 102.246 171.847 0.3226 -0.341713 0.882701
114.462 102.951 172.429 0.3226 -0.341713 0.882701
114.387 102.028 172.099 0.3226 -0.341713 0.882701
112.497 103.297 172.2 -0.752162 0.0250393 0.658503
112.497 104.33 172.161 -0.752162 0.0250393 0.658503
112.11 104.133 171.727 -0.752162 0.0250393 0.658503
111.934 103.23 171.596 -0.733808 0.0445251 0.677896
112.497 103.297 172.2 -0.733808 0.0445251 0.677896
112.11 104.133 171.727 -0.733808 0.0445251 0.677896
113.466 103.26 172.597 -0.378279 0.0183772 0.925509
113.338 104.147 172.527 -0.378279 0.0183772 0.925509
112.497 103.297 172.2 -0.378279 0.0183772 0.925509
113.338 104.147 172.527 -0.392223 0.0346128 0.919219
112.497 104.33 172.161 -0.392223 0.0346128 0.919219
112.497 103.297 172.2 -0.392223 0.0346128 0.919219
114.462 102.951 172.429 0.153397 -0.0419329 0.987274
114.337 103.95 172.491 0.153397 -0.0419329 0.987274
113.466 103.26 172.597 0.153397 -0.0419329 0.987274
114.337 103.95 172.491 0.0529717 0.0860586 0.994881
113.338 104.147 172.527 0.0529717 0.0860586 0.994881
113.466 103.26 172.597 0.0529717 0.0860586 0.994881
115.172 103.397 171.898 0.670492 0.272217 0.690173
114.934 104.318 171.765 0.670492 0.272217 0.690173
114.337 103.95 172.491 0.670492 0.272217 0.690173
114.462 102.951 172.429 0.58913 0.0235599 0.807694
115.172 103.397 171.898 0.58913 0.0235599 0.807694
114.337 103.95 172.491 0.58913 0.0235599 0.807694
112.11 104.133 171.727 -0.774838 0.198318 0.600246
112.497 104.33 172.161 -0.774838 0.198318 0.600246
112.278 104.784 171.728 -0.774838 0.198318 0.600246
112.666 105.062 171.87 -0.559036 0.414534 0.718081
112.278 104.784 171.728 -0.559036 0.414534 0.718081
112.497 104.33 172.161 -0.559036 0.414534 0.718081
112.666 105.062 171.87 -0.367606 0.415727 0.831887
112.497 104.33 172.161 -0.367606 0.415727 0.831887
113.322 105.0 172.191 -0.367606 0.415727 0.831887
113.322 105.0 172.191 -0.310708 0.343427 0.886295
112.497 104.33 172.161 -0.310708 0.343427 0.886295
113.338 104.147 172.527 -0.310708 0.343427 0.886295
114.337 103.95 172.491 0.112016 0.401488 0.908988
114.22 104.851 172.107 0.112016 0.401488 0.908988
113.338 104.147 172.527 0.112016 0.401488 0.908988
114.22 104.851 172.107 0.145846 0.365323 0.919385
113.322 105.0 172.191 0.145846 0.365323 0.919385
113.338 104.147 172.527 0.145846 0.365323 0.919385
114.934 104.318 171.765 0.646045 0.490226 0.585068
114.481 105.038 171.663 0.646045 0.490226 0.585068
114.22 104.851 172.107 0.646045 0.490226 0.585068
114.337 103.95 172.491 0.613063 0.375291 0.695205
114.934 104.318 171.765 0.613063 0.375291 0.695205
114.22 104.851 172.107 0.613063 0.375291 0.695205
112.666 105.062 171.87 -0.235618 0.744138 0.625094
113.322 105.0 172.191 -0.235618 0.744138 0.625094
113.146 105.394 171.656 -0.235618 0.744138 0.625094
114.046 105.202 171.724 0.132196 0.818483 0.559115
113.146 105.394 171.656 0.132196 0.818483 0.559115
113.322 105.0 172.191 0.132196 0.818483 0.559115
114.22 104.851 172.107 0.184324 0.765131 0.616927
114.046 105.202 171.724 0.184324 0.765131 0.616927
113.322 105.0 172.191 0.184324 0.765131 0.616927
114.481 105.038 171.663 0.363226 0.763392 0.534134
114.046 105.202 171.724 0.363226 0.763392 0.534134
114.22 104.851 172.107 0.363226 0.763392 0.534134
3 0 1 2
3 3 4 5
3 6 7 8
3 9 10 11
3 12 13 14
3 15 16 17
3 18 19 20
3 21 22 23
3 24 25 26
3 27 28 29
3 30 31 32
3 33 34 35
3 36 37 38
3 39 40 41
3 42 43 44
3 45 46 47
3 48 49 50
3 51 52 53
3 54 55 56
3 57 58 59
3 60 61 62
3 63 64 65
3 66 67 68
3 69 70 71
3 72 73 74
3 75 76 77
3 78 79 80
3 81 82 83
3 84 85 86
3 87 88 89
3 90 91 92
3 93 94 95
3 96 97 98
3 99 100 101
3 102 103 104
3 105 106 107
3 108 109 110
3 111 112 113
3 114 115 116
3 117 118 119
3 120 121 122
3 123 124 125
3 126 127 128
3 129 130 131
3 132 133 134
3 135 136 137
3 138 139 140
3 141 142 143
3 144 145 146
3 147 148 149
3 150 151 152
3 153 154 155
3 156 157 158
3 159 160 161
3 162 163 164
3 165 166 167
3 168 169 170
3 171 172 173
3 174 175 176
3 177 178 179
3 180 181 182
3 183 184 185
3 186 187 188
3 189 190 191
3 192 193 194
3 195 196 197
3 198 199 200
3 201 202 203
3 204 205 206
3 207 208 209
3 210 211 212
3 213 214 215
3 216 217 218
3 219 220 221
3 222 223 224
3 225 226 227
3 228 229 230
3 231 232 233
3 234 235 236
3 237 238 239
3 240 241 242
3 243 244 245
3 246 247 248
3 249 250 251
3 252 253 254
3 255 256 257
3 258 259 260
3 261 262 263
3 264 265 266
3 267 268 269
3 270 271 272
3 273 274 275
3 276 277 278
3 279 280 281
3 282 283 284
3 285 286 287
3 288 289 290
3 291 292 293
3 294 295 296
3 297 298 299
3 300 301 302
3 303 304 305
3 306 307 308
3 309 310 311
3 312 313 314
3 315 316 317
3 318 319 320
3 321 322 323
3 324 325 326
3 327 328 329
3 330 331 332
3 333 334 335
3 336 337 338
3 339 340 341
3 342 343 344
3 345 346 347
3 348 349 350
3 351 352 353
3 354 355 356
3 357 358 359
3 360 361 362
3 363 364 365
3 366 367 368
3 369 370 371
3 372 373 374
3 375 376 377
3 378 379 380
3 381 382 383
3 384 385 386
3 387 388 389
