ply
format ascii 1.0
element vertex 228
property float x
property float y
property float z
property float nx
property float ny
property float nz
element face 76
property list uint uint vertex_indices
end_header
70.283 96.8561 167.761 -0.162524 -0.147485 -0.97562
70.2166 96.483 167.829 -0.162524 -0.147485 -0.97562
69.9147 96.851 167.823 -0.162524 -0.147485 -0.97562
70.2166 96.483 167.829 0.415642 -0.232897 -0.879205
70.283 96.8561 167.761 0.415642 -0.232897 -0.879205
70.4863 96.7669 167.881 0.415642 -0.232897 -0.879205
70.283 96.8561 167.761 -0.147593 0.537075 -0.830522
69.9147 96.851 167.823 -0.147593 0.537075 -0.830522
70.2813 97.21 167.99 -0.147593 0.537075 -0.830522
70.4863 96.7669 167.881 0.591246 0.440331 -0.675676
70.283 96.8561 167.761 0.591246 0.440331 -0.675676
70.2813 97.21 167.99 0.591246 0.440331 -0.675676
70.6228 95.1841 168.686 0.011167 -0.520045 -0.854066
71.3523 95.0869 168.755 0.011167 -0.520045 -0.854066
71.2166 94.8579 168.893 0.011167 -0.520045 -0.854066
70.474 95.0424 169.044 -0.301099 -0.837086 -0.456757
70.6228 95.1841 168.686 -0.301099 -0.837086 -0.456757
71.2166 94.8579 168.893 -0.301099 -0.837086 -0.456757
71.2166 94.8579 168.893 0.482589 -0.643256 -0.594416
71.3523 95.0869 168.755 0.482589 -0.643256 -0.594416
71.4808 94.9561 169.001 0.482589 -0.643256 -0.594416
70.474 95.0424 169.044 -0.606973 -0.619525 -0.497768
69.7447 95.9354 168.822 -0.606973 -0.619525 -0.497768
70.6228 95.1841 168.686 -0.606973 -0.619525 -0.497768
70.6228 95.1841 168.686 -0.546533 -0.520299 -0.656194
69.7447 95.9354 168.822 -0.546533 -0.520299 -0.656194
70.4218 96.0909 168.135 -0.546533 -0.520299 -0.656194
71.3523 95.0869 168.755 0.0702284 -0.167944 -0.983292
70.6228 95.1841 168.686 0.0702284 -0.167944 -0.983292
71.2657 95.8778 168.614 0.0702284 -0.167944 -0.983292
71.2657 95.8778 168.614 0.363756 -0.42392 -0.829442
70.6228 95.1841 168.686 0.363756 -0.42392 -0.829442
70.4218 96.0909 168.135 0.363756 -0.42392 -0.829442
71.5324 95.6564 168.999 0.869721 -0.0653282 -0.489202
71.4808 94.9561 169.001 0.869721 -0.0653282 -0.489202
71.3523 95.0869 168.755 0.869721 -0.0653282 -0.489202
71.2657 95.8778 168.614 0.818809 -0.0129065 -0.573921
71.5324 95.6564 168.999 0.818809 -0.0129065 -0.573921
71.3523 95.0869 168.755 0.818809 -0.0129065 -0.573921
69.5199 96.708 168.885 -0.937541 -0.253281 -0.238467
69.6889 96.7094 168.219 -0.937541 -0.253281 -0.238467
69.7447 95.9354 168.822 -0.937541 -0.253281 -0.238467
70.2166 96.483 167.829 -0.639176 -0.532398 -0.554983
69.6889 96.7094 168.219 -0.639176 -0.532398 -0.554983
69.9147 96.851 167.823 -0.639176 -0.532398 -0.554983
70.2166 96.483 167.829 -0.608526 -0.661031 -0.439014
70.4218 96.0909 168.135 -0.608526 -0.661031 -0.439014
69.6889 96.7094 168.219 -0.608526 -0.661031 -0.439014
70.4218 96.0909 168.135 -0.533308 -0.543321 -0.648371
69.7447 95.9354 168.822 -0.533308 -0.543321 -0.648371
69.6889 96.7094 168.219 -0.533308 -0.543321 -0.648371
70.4863 96.7669 167.881 0.514364 -0.343926 -0.785585
70.4218 96.0909 168.135 0.514364 -0.343926 -0.785585
70.2166 96.483 167.829 0.514364 -0.343926 -0.785585
70.4863 96.7669 167.881 0.687959 -0.311626 -0.65544
71.1319 96.9555 168.469 0.687959 -0.311626 -0.65544
70.4218 96.0909 168.135 0.687959 -0.311626 -0.65544
71.1319 96.9555 168.469 0.481762 -0.0576381 -0.874405
71.2657 95.8778 168.614 0.481762 -0.0576381 -0.874405
70.4218 96.0909 168.135 0.481762 -0.0576381 -0.874405
71.4852 96.6849 168.971 0.82817 0.0225676 -0.560022
71.5324 95.6564 168.999 0.82817 0.0225676 -0.560022
71.2657 95.8778 168.614 0.82817 0.0225676 -0.560022
71.1319 96.9555 168.469 0.824051 0.02629 -0.565906
71.4852 96.6849 168.971 0.824051 0.02629 -0.565906
71.2657 95.8778 168.614 0.824051 0.02629 -0.565906
69.6889 96.7094 168.219 -0.852438 0.47643 -0.215323
69.5199 96.708 168.885 -0.852438 0.47643 -0.215323
69.7729 97.1053 168.763 -0.852438 0.47643 -0.215323
70.5053 97.6344 168.418 -0.651873 0.667532 -0.35981
69.7729 97.1053 168.763 -0.651873 0.667532 -0.35981
70.346 97.7166 168.859 -0.651873 0.667532 -0.35981
70.2813 97.21 167.99 -0.650467 0.681319 -0.335704
69.7729 97.1053 168.763 -0.650467 0.681319 -0.335704
70.5053 97.6344 168.418 -0.650467 0.681319 -0.335704
70.2813 97.21 167.99 -0.679407 0.639119 -0.360463
69.6889 96.7094 168.219 -0.679407 0.639119 -0.360463
69.7729 97.1053 168.763 -0.679407 0.639119 -0.360463
70.2813 97.21 167.99 -0.667065 0.735712 -0.11727
69.9147 96.851 167.823 -0.667065 0.735712 -0.11727
69.6889 96.7094 168.219 -0.667065 0.735712 -0.11727
70.2813 97.21 167.99 0.537045 0.427912 -0.726962
71.1319 96.9555 168.469 0.537045 0.427912 -0.726962
70.4863 96.7669 167.881 0.537045 0.427912 -0.726962
70.2813 97.21 167.99 0.536686 0.441008 -0.719361
70.5053 97.6344 168.418 0.536686 0.441008 -0.719361
71.1319 96.9555 168.469 0.536686 0.441008 -0.719361
70.5053 97.6344 168.418 0.314661 0.22065 -0.923202
71.1952 97.741 168.678 0.314661 0.22065 -0.923202
71.1319 96.9555 168.469 0.314661 0.22065 -0.923202
71.4136 97.6099 168.869 0.817727 4.79865e-05 -0.575606
71.4852 96.6849 168.971 0.817727 4.79865e-05 -0.575606
71.1319 96.9555 168.469 0.817727 4.79865e-05 -0.575606
71.1952 97.741 168.678 0.696042 0.132009 -0.705761
71.4136 97.6099 168.869 0.696042 0.132009 -0.705761
71.1319 96.9555 168.469 0.696042 0.132009 -0.705761
70.5053 97.6344 168.418 -0.481025 0.814081 -0.325404
70.346 97.7166 168.859 -0.481025 0.814081 -0.325404
70.6592 97.8607 168.756 -0.481025 0.814081 -0.325404
71.1952 97.741 168.678 0.0953931 0.807088 -0.582675
70.5053 97.6344 168.418 0.0953931 0.807088 -0.582675
70.6592 97.8607 168.756 0.0953931 0.807088 -0.582675
71.2252 97.8615 168.84 0.0883485 0.790664 -0.605843
71.1952 97.741 168.678 0.0883485 0.790664 -0.605843
70.6592 97.8607 168.756 0.0883485 0.790664 -0.605843
71.4136 97.6099 168.869 0.72235 0.483301 -0.494601
71.1952 97.741 168.678 0.72235 0.483301 -0.494601
71.2252 97.8615 168.84 0.72235 0.483301 -0.494601
71.2166 94.8579 168.893 -0.241846 -0.970306 -0.00399338
71.2486 94.8475 169.49 -0.241846 -0.970306 -0.00399338
70.474 95.0424 169.044 -0.241846 -0.970306 -0.00399338
70.474 95.0424 169.044 -0.202399 -0.976411 -0.0752099
71.2486 94.8475 169.49 -0.202399 -0.976411 -0.0752099
70.5792 94.9737 169.652 -0.202399 -0.976411 -0.0752099
71.2486 94.8475 169.49 0.360802 -0.931962 -0.0356275
71.2166 94.8579 168.893 0.360802 -0.931962 -0.0356275
71.4808 94.9561 169.001 0.360802 -0.931962 -0.0356275
71.4706 95.0737 169.582 0.671858 -0.72354 0.158419
71.2486 94.8475 169.49 0.671858 -0.72354 0.158419
71.4808 94.9561 169.001 0.671858 -0.72354 0.158419
69.7447 95.9354 168.822 -0.775903 -0.63075 0.0113952
70.474 95.0424 169.044 -0.775903 -0.63075 0.0113952
69.9662 95.6769 169.592 -0.775903 -0.63075 0.0113952
70.474 95.0424 169.044 -0.754958 -0.653297 0.0569286
70.5792 94.9737 169.652 -0.754958 -0.653297 0.0569286
69.9662 95.6769 169.592 -0.754958 -0.653297 0.0569286
71.4808 94.9561 169.001 0.996783 -0.0732959 0.0324312
71.5324 95.6564 168.999 0.996783 -0.0732959 0.0324312
71.4706 95.0737 169.582 0.996783 -0.0732959 0.0324312
71.4706 95.0737 169.582 0.969893 0.112904 0.215777
71.5324 95.6564 168.999 0.969893 0.112904 0.215777
71.3049 95.8975 169.896 0.969893 0.112904 0.215777
69.9084 96.6606 169.547 -0.96397 -0.0448304 0.262206
69.7447 95.9354 168.822 -0.96397 -0.0448304 0.262206
69.9662 95.6769 169.592 -0.96397 -0.0448304 0.262206
69.5199 96.708 168.885 -0.836301 -0.281831 0.47029
69.7447 95.9354 168.822 -0.836301 -0.281831 0.47029
69.9084 96.6606 169.547 -0.836301 -0.281831 0.47029
71.5324 95.6564 168.999 0.971197 0.0509709 0.232764
71.4852 96.6849 168.971 0.971197 0.0509709 0.232764
71.3049 95.8975 169.896 0.971197 0.0509709 0.232764
71.3049 95.8975 169.896 0.952316 0.114215 0.282928
71.4852 96.6849 168.971 0.952316 0.114215 0.282928
71.2262 97.2662 169.608 0.952316 0.114215 0.282928
70.346 97.7166 168.859 -0.463353 0.786856 0.407628
70.3847 97.395 169.523 -0.463353 0.786856 0.407628
70.7082 97.7855 169.137 -0.463353 0.786856 0.407628
69.7729 97.1053 168.763 -0.712216 0.614764 0.338841
70.3847 97.395 169.523 -0.712216 0.614764 0.338841
70.346 97.7166 168.859 -0.712216 0.614764 0.338841
69.7729 97.1053 168.763 -0.756459 0.504231 0.416558
69.9084 96.6606 169.547 -0.756459 0.504231 0.416558
70.3847 97.395 169.523 -0.756459 0.504231 0.416558
69.7729 97.1053 168.763 -0.687571 0.57427 0.444365
69.5199 96.708 168.885 -0.687571 0.57427 0.444365
69.9084 96.6606 169.547 -0.687571 0.57427 0.444365
70.7082 97.7855 169.137 0.0872922 0.715351 0.693291
71.2262 97.2662 169.608 0.0872922 0.715351 0.693291
71.2978 97.7814 169.067 0.0872922 0.715351 0.693291
70.3847 97.395 169.523 0.0326432 0.688841 0.724177
71.2262 97.2662 169.608 0.0326432 0.688841 0.724177
70.7082 97.7855 169.137 0.0326432 0.688841 0.724177
71.2978 97.7814 169.067 0.913543 0.227145 0.337409
71.2262 97.2662 169.608 0.913543 0.227145 0.337409
71.4136 97.6099 168.869 0.913543 0.227145 0.337409
71.4136 97.6099 168.869 0.951085 0.105535 0.290345
71.2262 97.2662 169.608 0.951085 0.105535 0.290345
71.4852 96.6849 168.971 0.951085 0.105535 0.290345
70.346 97.7166 168.859 -0.346062 0.91098 0.224405
70.7082 97.7855 169.137 -0.346062 0.91098 0.224405
70.6592 97.8607 168.756 -0.346062 0.91098 0.224405
71.2252 97.8615 168.84 -0.0304373 0.979851 0.197397
70.6592 97.8607 168.756 -0.0304373 0.979851 0.197397
70.7082 97.7855 169.137 -0.0304373 0.979851 0.197397
71.2978 97.7814 169.067 0.0445449 0.946615 0.319275
71.2252 97.8615 168.84 0.0445449 0.946615 0.319275
70.7082 97.7855 169.137 0.0445449 0.946615 0.319275
71.4136 97.6099 168.869 0.80222 0.595242 -0.0461375
71.2252 97.8615 168.84 0.80222 0.595242 -0.0461375
71.2978 97.7814 169.067 0.80222 0.595242 -0.0461375
70.5792 94.9737 169.652 -0.0592063 -0.891292 0.449548
71.2486 94.8475 169.49 -0.0592063 -0.891292 0.449548
71.2169 95.0013 169.791 -0.0592063 -0.891292 0.449548
70.5867 95.2243 169.826 -0.152774 -0.560173 0.814166
70.5792 94.9737 169.652 -0.152774 -0.560173 0.814166
71.2169 95.0013 169.791 -0.152774 -0.560173 0.814166
71.2486 94.8475 169.49 0.5541 -0.716106 0.424459
71.4706 95.0737 169.582 0.5541 -0.716106 0.424459
71.2169 95.0013 169.791 0.5541 -0.716106 0.424459
70.5867 95.2243 169.826 -0.443761 -0.151863 0.883184
70.4987 96.0443 169.923 -0.443761 -0.151863 0.883184
69.9662 95.6769 169.592 -0.443761 -0.151863 0.883184
70.5792 94.9737 169.652 -0.583554 -0.450952 0.675357
70.5867 95.2243 169.826 -0.583554 -0.450952 0.675357
69.9662 95.6769 169.592 -0.583554 -0.450952 0.675357
71.2169 95.0013 169.791 0.0138011 -0.117612 0.992964
71.3049 95.8975 169.896 0.0138011 -0.117612 0.992964
70.5867 95.2243 169.826 0.0138011 -0.117612 0.992964
71.3049 95.8975 169.896 0.0121909 -0.115917 0.993184
70.4987 96.0443 169.923 0.0121909 -0.115917 0.993184
70.5867 95.2243 169.826 0.0121909 -0.115917 0.993184
71.2169 95.0013 169.791 0.653761 -0.150938 0.741495
71.4706 95.0737 169.582 0.653761 -0.150938 0.741495
71.3049 95.8975 169.896 0.653761 -0.150938 0.741495
70.4987 96.0443 169.923 -0.5786 -0.0589877 0.813476
70.5631 96.8604 170.028 -0.5786 -0.0589877 0.813476
69.9084 96.6606 169.547 -0.5786 -0.0589877 0.813476
69.9662 95.6769 169.592 -0.531114 0.00707867 0.847271
70.4987 96.0443 169.923 -0.531114 0.00707867 0.847271
69.9084 96.6606 169.547 -0.531114 0.00707867 0.847271
71.3049 95.8975 169.896 -0.024214 -0.308119 0.951039
71.1324 96.6491 170.135 -0.024214 -0.308119 0.951039
70.4987 96.0443 169.923 -0.024214 -0.308119 0.951039
71.1324 96.6491 170.135 -0.222125 -0.107114 0.969117
70.5631 96.8604 170.028 -0.222125 -0.107114 0.969117
70.4987 96.0443 169.923 -0.222125 -0.107114 0.969117
71.3049 95.8975 169.896 0.944188 0.118853 0.307217
71.2262 97.2662 169.608 0.944188 0.118853 0.307217
71.1324 96.6491 170.135 0.944188 0.118853 0.307217
69.9084 96.6606 169.547 -0.616411 0.421569 0.665069
70.5631 96.8604 170.028 -0.616411 0.421569 0.665069
70.3847 97.395 169.523 -0.616411 0.421569 0.665069
71.2262 97.2662 169.608 0.0333445 0.691643 0.721469
70.3847 97.395 169.523 0.0333445 0.691643 0.721469
70.5631 96.8604 170.028 0.0333445 0.691643 0.721469
71.1324 96.6491 170.135 0.0930027 0.638299 0.76415
71.2262 97.2662 169.608 0.0930027 0.638299 0.76415
70.5631 96.8604 170.028 0.0930027 0.638299 0.76415
3 0 1 2
3 3 4 5
3 6 7 8
3 9 10 11
3 12 13 14
3 15 16 17
3 18 19 20
3 21 22 23
3 24 25 26
3 27 28 29
3 30 31 32
3 33 34 35
3 36 37 38
3 39 40 41
3 42 43 44
3 45 46 47
3 48 49 50
3 51 52 53
3 54 55 56
3 57 58 59
3 60 61 62
3 63 64 65
3 66 67 68
3 69 70 71
3 72 73 74
3 75 76 77
3 78 79 80
3 81 82 83
3 84 85 86
3 87 88 89
3 90 91 92
3 93 94 95
3 96 97 98
3 99 100 101
3 102 103 104
3 105 106 107
3 108 109 110
3 111 112 113
3 114 115 116
3 117 118 119
3 120 121 122
3 123 124 125
3 126 127 128
3 129 130 131
3 132 133 134
3 135 136 137
3 138 139 140
3 141 142 143
3 144 145 146
3 147 148 149
3 150 151 152
3 153 154 155
3 156 157 158
3 159 160 161
3 162 163 164
3 165 166 167
3 168 169 170
3 171 172 173
3 174 175 176
3 177 178 179
3 180 181 182
3 183 184 185
3 186 187 188
3 189 190 191
3 192 193 194
3 195 196 197
3 198 199 200
3 201 202 203
3 204 205 206
3 207 208 209
3 210 211 212
3 213 214 215
3 216 217 218
3 219 220 221
3 222 223 224
3 225 226 227
