ply
format ascii 1.0
element vertex 396
property float x
property float y
property float z
property float nx
property float ny
property float nz
element face 132
property list uint uint vertex_indices
end_header
57.4189 162.714 147.115 -0.0379307 -0.5928 -0.804456
57.2957 162.464 147.306 -0.0379307 -0.5928 -0.804456
57.1507 162.767 147.089 -0.0379307 -0.5928 -0.804456
57.2278 163.41 147.03 0.0769436 -0.100277 -0.99198
57.4189 162.714 147.115 0.0769436 -0.100277 -0.99198
57.1507 162.767 147.089 0.0769436 -0.100277 -0.99198
57.0296 163.424 147.232 -0.712705 0.0210216 -0.701149
57.2278 163.41 147.03 -0.712705 0.0210216 -0.701149
57.1507 162.767 147.089 -0.712705 0.0210216 -0.701149
57.2278 163.41 147.03 0.52844 0.0413657 -0.847963
57.5043 163.439 147.204 0.52844 0.0413657 -0.847963
57.4189 162.714 147.115 0.52844 0.0413657 -0.847963
57.2278 163.41 147.03 -0.626375 0.436698 -0.645717
57.0296 163.424 147.232 -0.626375 0.436698 -0.645717
57.273 164.341 147.616 -0.626375 0.436698 -0.645717
57.5043 163.439 147.204 0.435661 0.46408 -0.771252
57.2278 163.41 147.03 0.435661 0.46408 -0.771252
57.273 164.341 147.616 0.435661 0.46408 -0.771252
57.2957 162.464 147.306 -0.737896 -0.631706 -0.237608
57.2988 162.188 148.028 -0.737896 -0.631706 -0.237608
56.9373 162.671 147.867 -0.737896 -0.631706 -0.237608
57.1507 162.767 147.089 -0.77161 -0.570261 -0.281817
57.2957 162.464 147.306 -0.77161 -0.570261 -0.281817
56.9373 162.671 147.867 -0.77161 -0.570261 -0.281817
57.4189 162.714 147.115 0.602639 -0.475796 -0.640659
58.0978 162.809 147.683 0.602639 -0.475796 -0.640659
57.927 162.271 147.923 0.602639 -0.475796 -0.640659
57.4189 162.714 147.115 0.403029 -0.671095 -0.622253
57.927 162.271 147.923 0.403029 -0.671095 -0.622253
57.2957 162.464 147.306 0.403029 -0.671095 -0.622253
57.2957 162.464 147.306 0.0629342 -0.932484 -0.355687
57.927 162.271 147.923 0.0629342 -0.932484 -0.355687
57.2988 162.188 148.028 0.0629342 -0.932484 -0.355687
57.927 162.271 147.923 0.62175 -0.474177 -0.623364
58.0978 162.809 147.683 0.62175 -0.474177 -0.623364
58.3462 162.436 148.215 0.62175 -0.474177 -0.623364
56.4965 163.655 147.732 -0.744234 -0.40655 -0.529937
56.9373 162.671 147.867 -0.744234 -0.40655 -0.529937
56.2324 163.555 148.18 -0.744234 -0.40655 -0.529937
56.4965 163.655 147.732 -0.712948 -0.398988 -0.57664
57.0296 163.424 147.232 -0.712948 -0.398988 -0.57664
56.9373 162.671 147.867 -0.712948 -0.398988 -0.57664
57.0296 163.424 147.232 -0.954186 -0.115795 -0.275898
57.1507 162.767 147.089 -0.954186 -0.115795 -0.275898
56.9373 162.671 147.867 -0.954186 -0.115795 -0.275898
58.0978 162.809 147.683 0.639147 0.0169467 -0.768898
57.5043 163.439 147.204 0.639147 0.0169467 -0.768898
58.1062 163.736 147.711 0.639147 0.0169467 -0.768898
57.4189 162.714 147.115 0.640094 0.0184642 -0.768075
57.5043 163.439 147.204 0.640094 0.0184642 -0.768075
58.0978 162.809 147.683 0.640094 0.0184642 -0.768075
58.4276 163.365 148.117 0.861283 -0.127479 -0.491876
58.3462 162.436 148.215 0.861283 -0.127479 -0.491876
58.0978 162.809 147.683 0.861283 -0.127479 -0.491876
58.1062 163.736 147.711 0.788996 0.010993 -0.6143
58.4276 163.365 148.117 0.788996 0.010993 -0.6143
58.0978 162.809 147.683 0.788996 0.010993 -0.6143
56.3571 164.537 147.861 -0.854203 -0.0589229 -0.51659
56.4965 163.655 147.732 -0.854203 -0.0589229 -0.51659
56.2324 163.555 148.18 -0.854203 -0.0589229 -0.51659
56.0731 164.56 148.163 -0.726545 -0.126527 -0.675369
56.3571 164.537 147.861 -0.726545 -0.126527 -0.675369
56.2324 163.555 148.18 -0.726545 -0.126527 -0.675369
57.0296 163.424 147.232 -0.502646 0.444042 -0.741737
56.4965 163.655 147.732 -0.502646 0.444042 -0.741737
57.273 164.341 147.616 -0.502646 0.444042 -0.741737
56.4965 163.655 147.732 -0.236567 0.104824 -0.965944
56.3571 164.537 147.861 -0.236567 0.104824 -0.965944
57.273 164.341 147.616 -0.236567 0.104824 -0.965944
57.273 164.341 147.616 0.425388 0.46406 -0.776977
58.1062 163.736 147.711 0.425388 0.46406 -0.776977
57.5043 163.439 147.204 0.425388 0.46406 -0.776977
57.273 164.341 147.616 0.197563 0.119181 -0.973018
58.1476 164.644 147.83 0.197563 0.119181 -0.973018
58.1062 163.736 147.711 0.197563 0.119181 -0.973018
58.4121 164.353 148.121 0.790711 0.0149848 -0.612006
58.4276 163.365 148.117 0.790711 0.0149848 -0.612006
58.1062 163.736 147.711 0.790711 0.0149848 -0.612006
58.1476 164.644 147.83 0.763205 0.0500775 -0.644213
58.4121 164.353 148.121 0.763205 0.0500775 -0.644213
58.1062 163.736 147.711 0.763205 0.0500775 -0.644213
56.2624 165.318 147.943 -0.728274 -0.0170301 -0.685075
56.3571 164.537 147.861 -0.728274 -0.0170301 -0.685075
56.0731 164.56 148.163 -0.728274 -0.0170301 -0.685075
56.1122 165.347 148.288 -0.908066 0.109381 -0.404291
56.2624 165.318 147.943 -0.908066 0.109381 -0.404291
56.0731 164.56 148.163 -0.908066 0.109381 -0.404291
57.273 164.341 147.616 -0.220123 0.173842 -0.959857
56.3571 164.537 147.861 -0.220123 0.173842 -0.959857
57.0146 165.358 147.859 -0.220123 0.173842 -0.959857
57.0146 165.358 147.859 -0.114568 0.0892236 -0.9894
56.3571 164.537 147.861 -0.114568 0.0892236 -0.9894
56.2624 165.318 147.943 -0.114568 0.0892236 -0.9894
58.1476 164.644 147.83 0.194605 0.127408 -0.972572
57.273 164.341 147.616 0.194605 0.127408 -0.972572
57.9442 165.362 147.884 0.194605 0.127408 -0.972572
57.9442 165.362 147.884 0.0246951 0.23863 -0.970797
57.273 164.341 147.616 0.0246951 0.23863 -0.970797
57.0146 165.358 147.859 0.0246951 0.23863 -0.970797
58.3469 165.247 148.15 0.774457 0.0765185 -0.627982
58.4121 164.353 148.121 0.774457 0.0765185 -0.627982
58.1476 164.644 147.83 0.774457 0.0765185 -0.627982
57.9442 165.362 147.884 0.580727 0.222623 -0.783068
58.3469 165.247 148.15 0.580727 0.222623 -0.783068
58.1476 164.644 147.83 0.580727 0.222623 -0.783068
56.2624 165.318 147.943 -0.62329 0.708577 -0.3308
56.1122 165.347 148.288 -0.62329 0.708577 -0.3308
56.4708 165.599 148.153 -0.62329 0.708577 -0.3308
57.0146 165.358 147.859 -0.118499 0.648714 -0.75175
56.2624 165.318 147.943 -0.118499 0.648714 -0.75175
56.4708 165.599 148.153 -0.118499 0.648714 -0.75175
57.3795 165.649 148.135 -0.0528422 0.721859 -0.69002
57.0146 165.358 147.859 -0.0528422 0.721859 -0.69002
56.4708 165.599 148.153 -0.0528422 0.721859 -0.69002
57.9442 165.362 147.884 0.0167404 0.6775 -0.735333
57.0146 165.358 147.859 0.0167404 0.6775 -0.735333
57.3795 165.649 148.135 0.0167404 0.6775 -0.735333
58.146 165.59 148.201 0.112967 0.771354 -0.6263
57.9442 165.362 147.884 0.112967 0.771354 -0.6263
57.3795 165.649 148.135 0.112967 0.771354 -0.6263
58.3469 165.247 148.15 0.578935 0.441716 -0.685362
57.9442 165.362 147.884 0.578935 0.441716 -0.685362
58.146 165.59 148.201 0.578935 0.441716 -0.685362
57.4532 161.701 148.632 -0.429326 -0.780731 -0.454024
57.4678 161.535 148.904 -0.429326 -0.780731 -0.454024
57.1697 161.812 148.708 -0.429326 -0.780731 -0.454024
57.4678 161.535 148.904 0.0564896 -0.850571 -0.522817
57.4532 161.701 148.632 0.0564896 -0.850571 -0.522817
58.074 161.681 148.731 0.0564896 -0.850571 -0.522817
57.2988 162.188 148.028 -0.430188 -0.752971 -0.497968
57.4532 161.701 148.632 -0.430188 -0.752971 -0.497968
57.1697 161.812 148.708 -0.430188 -0.752971 -0.497968
57.2988 162.188 148.028 -0.627555 -0.624782 -0.464567
57.1697 161.812 148.708 -0.627555 -0.624782 -0.464567
56.9373 162.671 147.867 -0.627555 -0.624782 -0.464567
56.9373 162.671 147.867 -0.935713 -0.341145 -0.0897872
57.1697 161.812 148.708 -0.935713 -0.341145 -0.0897872
56.8953 162.547 148.777 -0.935713 -0.341145 -0.0897872
57.927 162.271 147.923 -0.00326443 -0.778462 -0.627683
57.4532 161.701 148.632 -0.00326443 -0.778462 -0.627683
57.2988 162.188 148.028 -0.00326443 -0.778462 -0.627683
58.074 161.681 148.731 0.069693 -0.799835 -0.59616
57.4532 161.701 148.632 0.069693 -0.799835 -0.59616
57.927 162.271 147.923 0.069693 -0.799835 -0.59616
58.074 161.681 148.731 0.606025 -0.586098 -0.537794
57.927 162.271 147.923 0.606025 -0.586098 -0.537794
58.3462 162.436 148.215 0.606025 -0.586098 -0.537794
58.074 161.681 148.731 0.754454 -0.533452 -0.382398
58.3462 162.436 148.215 0.754454 -0.533452 -0.382398
58.2952 161.894 148.87 0.754454 -0.533452 -0.382398
58.2952 161.894 148.87 0.98952 -0.139273 -0.0381191
58.3462 162.436 148.215 0.98952 -0.139273 -0.0381191
58.4248 162.789 148.966 0.98952 -0.139273 -0.0381191
56.2324 163.555 148.18 -0.812227 -0.583283 -0.0082347
56.3906 163.321 149.121 -0.812227 -0.583283 -0.0082347
56.0515 163.797 148.854 -0.812227 -0.583283 -0.0082347
56.8953 162.547 148.777 -0.796111 -0.593571 -0.117816
56.2324 163.555 148.18 -0.796111 -0.593571 -0.117816
56.9373 162.671 147.867 -0.796111 -0.593571 -0.117816
56.3906 163.321 149.121 -0.836694 -0.547651 0.00471486
56.2324 163.555 148.18 -0.836694 -0.547651 0.00471486
56.8953 162.547 148.777 -0.836694 -0.547651 0.00471486
58.3462 162.436 148.215 0.993808 -0.0934654 -0.0600803
58.4276 163.365 148.117 0.993808 -0.0934654 -0.0600803
58.4248 162.789 148.966 0.993808 -0.0934654 -0.0600803
58.4248 162.789 148.966 0.987249 -0.133245 -0.0870961
58.4276 163.365 148.117 0.987249 -0.133245 -0.0870961
58.5337 163.68 148.837 0.987249 -0.133245 -0.0870961
56.2324 163.555 148.18 -0.966569 -0.156649 -0.202992
56.0515 163.797 148.854 -0.966569 -0.156649 -0.202992
56.0731 164.56 148.163 -0.966569 -0.156649 -0.202992
56.0515 163.797 148.854 -0.99718 -0.032945 -0.0674307
56.0193 164.56 148.958 -0.99718 -0.032945 -0.0674307
56.0731 164.56 148.163 -0.99718 -0.032945 -0.0674307
58.4276 163.365 148.117 0.988139 0.0161826 -0.152706
58.4121 164.353 148.121 0.988139 0.0161826 -0.152706
58.5337 163.68 148.837 0.988139 0.0161826 -0.152706
58.5337 163.68 148.837 0.983261 -0.0154014 -0.181552
58.4121 164.353 148.121 0.983261 -0.0154014 -0.181552
58.5659 164.547 148.938 0.983261 -0.0154014 -0.181552
56.0731 164.56 148.163 -0.995907 0.0601995 -0.0674126
56.0193 164.56 148.958 -0.995907 0.0601995 -0.0674126
56.1122 165.347 148.288 -0.995907 0.0601995 -0.0674126
56.0193 164.56 148.958 -0.992625 0.121134 0.00460297
56.0973 165.195 149.085 -0.992625 0.121134 0.00460297
56.1122 165.347 148.288 -0.992625 0.121134 0.00460297
58.4121 164.353 148.121 0.976218 0.0776322 -0.202416
58.3469 165.247 148.15 0.976218 0.0776322 -0.202416
58.5659 164.547 148.938 0.976218 0.0776322 -0.202416
58.5659 164.547 148.938 0.976817 0.185546 -0.106776
58.3469 165.247 148.15 0.976817 0.185546 -0.106776
58.4244 165.297 148.946 0.976817 0.185546 -0.106776
56.1122 165.347 148.288 -0.579026 0.802822 0.142149
56.0973 165.195 149.085 -0.579026 0.802822 0.142149
56.4244 165.448 148.985 -0.579026 0.802822 0.142149
56.4708 165.599 148.153 -0.540441 0.83271 0.120491
56.1122 165.347 148.288 -0.540441 0.83271 0.120491
56.4244 165.448 148.985 -0.540441 0.83271 0.120491
57.3795 165.649 148.135 -0.0556803 0.99737 -0.0463971
56.4708 165.599 148.153 -0.0556803 0.99737 -0.0463971
57.1159 165.663 148.755 -0.0556803 0.99737 -0.0463971
56.4708 165.599 148.153 -0.243718 0.956651 0.159434
56.4244 165.448 148.985 -0.243718 0.956651 0.159434
57.1159 165.663 148.755 -0.243718 0.956651 0.159434
58.146 165.59 148.201 0.0709776 0.995764 0.0584497
57.3795 165.649 148.135 0.0709776 0.995764 0.0584497
57.9629 165.564 148.874 0.0709776 0.995764 0.0584497
57.3795 165.649 148.135 0.112586 0.99332 0.0253032
57.1159 165.663 148.755 0.112586 0.99332 0.0253032
57.9629 165.564 148.874 0.112586 0.99332 0.0253032
58.4244 165.297 148.946 0.849889 0.514233 -0.115124
58.3469 165.247 148.15 0.849889 0.514233 -0.115124
58.146 165.59 148.201 0.849889 0.514233 -0.115124
57.9629 165.564 148.874 0.474626 0.864916 0.163247
58.4244 165.297 148.946 0.474626 0.864916 0.163247
58.146 165.59 148.201 0.474626 0.864916 0.163247
57.4678 161.535 148.904 -0.737702 -0.416963 0.530979
57.3764 161.829 149.009 -0.737702 -0.416963 0.530979
57.1697 161.812 148.708 -0.737702 -0.416963 0.530979
57.4678 161.535 148.904 0.230885 -0.972828 -0.0172645
58.074 161.681 148.731 0.230885 -0.972828 -0.0172645
58.0219 161.664 148.993 0.230885 -0.972828 -0.0172645
57.3764 161.829 149.009 -0.0669953 -0.351311 0.933859
57.4678 161.535 148.904 -0.0669953 -0.351311 0.933859
58.0219 161.664 148.993 -0.0669953 -0.351311 0.933859
58.074 161.681 148.731 0.662814 -0.74413 0.0833563
58.2952 161.894 148.87 0.662814 -0.74413 0.0833563
58.0219 161.664 148.993 0.662814 -0.74413 0.0833563
57.3764 161.829 149.009 -0.744575 -0.307611 0.592439
57.1887 162.609 149.178 -0.744575 -0.307611 0.592439
56.8953 162.547 148.777 -0.744575 -0.307611 0.592439
57.1697 161.812 148.708 -0.766601 -0.337216 0.546451
57.3764 161.829 149.009 -0.766601 -0.337216 0.546451
56.8953 162.547 148.777 -0.766601 -0.337216 0.546451
58.0219 161.664 148.993 -0.0455394 -0.269793 0.961841
58.0122 162.448 149.212 -0.0455394 -0.269793 0.961841
57.3764 161.829 149.009 -0.0455394 -0.269793 0.961841
58.0122 162.448 149.212 -0.0857848 -0.230864 0.969197
57.1887 162.609 149.178 -0.0857848 -0.230864 0.969197
57.3764 161.829 149.009 -0.0857848 -0.230864 0.969197
58.2952 161.894 148.87 0.605129 -0.170809 0.777588
58.4248 162.789 148.966 0.605129 -0.170809 0.777588
58.0122 162.448 149.212 0.605129 -0.170809 0.777588
58.0219 161.664 148.993 0.546768 -0.21941 0.808025
58.2952 161.894 148.87 0.546768 -0.21941 0.808025
58.0122 162.448 149.212 0.546768 -0.21941 0.808025
56.3906 163.321 149.121 -0.670004 -0.69636 0.257251
56.4334 163.546 149.842 -0.670004 -0.69636 0.257251
56.1234 163.771 149.644 -0.670004 -0.69636 0.257251
56.0515 163.797 148.854 -0.828017 -0.557772 0.0572664
56.3906 163.321 149.121 -0.828017 -0.557772 0.0572664
56.1234 163.771 149.644 -0.828017 -0.557772 0.0572664
57.1887 162.609 149.178 -0.587078 -0.616211 0.524998
56.3906 163.321 149.121 -0.587078 -0.616211 0.524998
56.8953 162.547 148.777 -0.587078 -0.616211 0.524998
57.1887 162.609 149.178 -0.499182 -0.503298 0.705343
57.3061 163.303 149.756 -0.499182 -0.503298 0.705343
56.3906 163.321 149.121 -0.499182 -0.503298 0.705343
57.3061 163.303 149.756 -0.228036 -0.925459 0.30253
56.4334 163.546 149.842 -0.228036 -0.925459 0.30253
56.3906 163.321 149.121 -0.228036 -0.925459 0.30253
58.0122 162.448 149.212 -0.153086 -0.617188 0.771779
57.3061 163.303 149.756 -0.153086 -0.617188 0.771779
57.1887 162.609 149.178 -0.153086 -0.617188 0.771779
58.1884 163.261 149.733 -0.00362768 -0.538728 0.842472
57.3061 163.303 149.756 -0.00362768 -0.538728 0.842472
58.0122 162.448 149.212 -0.00362768 -0.538728 0.842472
58.1884 163.261 149.733 0.70723 -0.483547 0.515759
58.0122 162.448 149.212 0.70723 -0.483547 0.515759
58.4248 162.789 148.966 0.70723 -0.483547 0.515759
58.1884 163.261 149.733 0.671763 -0.520184 0.527393
58.4248 162.789 148.966 0.671763 -0.520184 0.527393
58.5991 163.78 149.722 0.671763 -0.520184 0.527393
58.5991 163.78 149.722 0.989866 -0.129409 -0.0584743
58.4248 162.789 148.966 0.989866 -0.129409 -0.0584743
58.5337 163.68 148.837 0.989866 -0.129409 -0.0584743
56.0515 163.797 148.854 -0.9946 -0.0540114 0.088623
56.1234 163.771 149.644 -0.9946 -0.0540114 0.088623
56.0193 164.56 148.958 -0.9946 -0.0540114 0.088623
56.1234 163.771 149.644 -0.994276 -0.0480339 0.0954389
56.0952 164.471 149.703 -0.994276 -0.0480339 0.0954389
56.0193 164.56 148.958 -0.994276 -0.0480339 0.0954389
58.5991 163.78 149.722 0.83198 -0.378782 -0.405382
58.5659 164.547 148.938 0.83198 -0.378782 -0.405382
58.9625 164.594 149.708 0.83198 -0.378782 -0.405382
58.5991 163.78 149.722 0.997103 -0.0288411 -0.0703834
58.5337 163.68 148.837 0.997103 -0.0288411 -0.0703834
58.5659 164.547 148.938 0.997103 -0.0288411 -0.0703834
58.5991 163.78 149.722 0.604966 -0.283546 -0.744055
58.9625 164.594 149.708 0.604966 -0.283546 -0.744055
59.1748 164.426 149.944 0.604966 -0.283546 -0.744055
56.3579 164.687 149.786 -0.344399 0.694587 0.631616
56.4244 165.448 148.985 -0.344399 0.694587 0.631616
56.0973 165.195 149.085 -0.344399 0.694587 0.631616
56.3579 164.687 149.786 -0.611133 0.515294 0.600823
56.0973 165.195 149.085 -0.611133 0.515294 0.600823
56.0952 164.471 149.703 -0.611133 0.515294 0.600823
56.0952 164.471 149.703 -0.988728 0.0989486 0.112366
56.0973 165.195 149.085 -0.988728 0.0989486 0.112366
56.0193 164.56 148.958 -0.988728 0.0989486 0.112366
56.4244 165.448 148.985 -0.150668 0.725665 0.671348
57.1091 164.891 149.741 -0.150668 0.725665 0.671348
57.3113 165.423 149.211 -0.150668 0.725665 0.671348
56.3579 164.687 149.786 -0.155904 0.722393 0.673678
57.1091 164.891 149.741 -0.155904 0.722393 0.673678
56.4244 165.448 148.985 -0.155904 0.722393 0.673678
57.3113 165.423 149.211 0.142496 0.78491 0.603002
58.1649 164.857 149.746 0.142496 0.78491 0.603002
57.9629 165.564 148.874 0.142496 0.78491 0.603002
57.1091 164.891 149.741 0.0189621 0.701783 0.712138
58.1649 164.857 149.746 0.0189621 0.701783 0.712138
57.3113 165.423 149.211 0.0189621 0.701783 0.712138
58.9625 164.594 149.708 0.308529 0.9483 -0.0744056
58.1649 164.857 149.746 0.308529 0.9483 -0.0744056
59.0236 164.595 149.967 0.308529 0.9483 -0.0744056
58.9625 164.594 149.708 0.287947 0.796558 0.531584
58.4244 165.297 148.946 0.287947 0.796558 0.531584
58.1649 164.857 149.746 0.287947 0.796558 0.531584
58.9625 164.594 149.708 0.871772 0.169922 -0.459499
58.5659 164.547 148.938 0.871772 0.169922 -0.459499
58.4244 165.297 148.946 0.871772 0.169922 -0.459499
58.4244 165.297 148.946 0.357701 0.764342 0.5365
57.9629 165.564 148.874 0.357701 0.764342 0.5365
58.1649 164.857 149.746 0.357701 0.764342 0.5365
59.1748 164.426 149.944 0.723241 0.668918 -0.171672
58.9625 164.594 149.708 0.723241 0.668918 -0.171672
59.0236 164.595 149.967 0.723241 0.668918 -0.171672
57.3113 165.423 149.211 -0.102169 0.861874 0.496724
57.1159 165.663 148.755 -0.102169 0.861874 0.496724
56.4244 165.448 148.985 -0.102169 0.861874 0.496724
57.9629 165.564 148.874 0.0408086 0.891533 0.451114
57.1159 165.663 148.755 0.0408086 0.891533 0.451114
57.3113 165.423 149.211 0.0408086 0.891533 0.451114
56.4334 163.546 149.842 -0.670148 -0.346907 0.656169
56.3695 163.889 149.958 -0.670148 -0.346907 0.656169
56.1234 163.771 149.644 -0.670148 -0.346907 0.656169
56.4334 163.546 149.842 -0.0634199 -0.526681 0.847694
57.3061 163.303 149.756 -0.0634199 -0.526681 0.847694
57.2374 163.753 150.03 -0.0634199 -0.526681 0.847694
56.3695 163.889 149.958 -0.131038 -0.339652 0.931378
56.4334 163.546 149.842 -0.131038 -0.339652 0.931378
57.2374 163.753 150.03 -0.131038 -0.339652 0.931378
57.3061 163.303 149.756 -0.00262765 -0.523124 0.852253
58.1884 163.261 149.733 -0.00262765 -0.523124 0.852253
58.1802 163.717 150.013 -0.00262765 -0.523124 0.852253
57.2374 163.753 150.03 -0.00393665 -0.521119 0.853475
57.3061 163.303 149.756 -0.00393665 -0.521119 0.853475
58.1802 163.717 150.013 -0.00393665 -0.521119 0.853475
58.1884 163.261 149.733 0.558292 -0.426674 0.711519
58.5991 163.78 149.722 0.558292 -0.426674 0.711519
58.1802 163.717 150.013 0.558292 -0.426674 0.711519
56.3695 163.889 149.958 -0.429242 0.184487 0.884147
56.3579 164.687 149.786 -0.429242 0.184487 0.884147
56.0952 164.471 149.703 -0.429242 0.184487 0.884147
56.1234 163.771 149.644 -0.768316 -0.0845174 0.634467
56.3695 163.889 149.958 -0.768316 -0.0845174 0.634467
56.0952 164.471 149.703 -0.768316 -0.0845174 0.634467
57.2374 163.753 150.03 -0.0795897 0.0206778 0.996613
57.2185 164.447 150.014 -0.0795897 0.0206778 0.996613
56.3695 163.889 149.958 -0.0795897 0.0206778 0.996613
57.2185 164.447 150.014 -0.197528 0.203944 0.958848
56.3579 164.687 149.786 -0.197528 0.203944 0.958848
56.3695 163.889 149.958 -0.197528 0.203944 0.958848
58.1802 163.717 150.013 0.0160098 -0.0613176 0.99799
58.2335 164.392 150.054 0.0160098 -0.0613176 0.99799
57.2374 163.753 150.03 0.0160098 -0.0613176 0.99799
58.2335 164.392 150.054 -0.0374145 0.0218819 0.99906
57.2185 164.447 150.014 -0.0374145 0.0218819 0.99906
57.2374 163.753 150.03 -0.0374145 0.0218819 0.99906
58.5991 163.78 149.722 0.499689 -0.64356 0.579777
58.9592 164.331 150.023 0.499689 -0.64356 0.579777
58.1802 163.717 150.013 0.499689 -0.64356 0.579777
58.1802 163.717 150.013 0.0369799 -0.062933 0.997332
58.9592 164.331 150.023 0.0369799 -0.062933 0.997332
58.2335 164.392 150.054 0.0369799 -0.062933 0.997332
58.5991 163.78 149.722 0.49542 -0.64306 0.58398
59.1748 164.426 149.944 0.49542 -0.64306 0.58398
58.9592 164.331 150.023 0.49542 -0.64306 0.58398
57.2185 164.447 150.014 -0.0862652 0.507408 0.857377
57.1091 164.891 149.741 -0.0862652 0.507408 0.857377
56.3579 164.687 149.786 -0.0862652 0.507408 0.857377
58.1649 164.857 149.746 0.0125896 0.527073 0.849727
57.1091 164.891 149.741 0.0125896 0.527073 0.849727
57.2185 164.447 150.014 0.0125896 0.527073 0.849727
58.2335 164.392 150.054 -0.00203379 0.55093 0.834549
58.1649 164.857 149.746 -0.00203379 0.55093 0.834549
57.2185 164.447 150.014 -0.00203379 0.55093 0.834549
59.0236 164.595 149.967 -0.0482471 0.545536 0.836698
58.1649 164.857 149.746 -0.0482471 0.545536 0.836698
58.2335 164.392 150.054 -0.0482471 0.545536 0.836698
58.9592 164.331 150.023 0.057828 0.193986 0.979298
59.0236 164.595 149.967 0.057828 0.193986 0.979298
58.2335 164.392 150.054 0.057828 0.193986 0.979298
59.1748 164.426 149.944 0.286439 0.131841 0.948984
59.0236 164.595 149.967 0.286439 0.131841 0.948984
58.9592 164.331 150.023 0.286439 0.131841 0.948984
3 0 1 2
3 3 4 5
3 6 7 8
3 9 10 11
3 12 13 14
3 15 16 17
3 18 19 20
3 21 22 23
3 24 25 26
3 27 28 29
3 30 31 32
3 33 34 35
3 36 37 38
3 39 40 41
3 42 43 44
3 45 46 47
3 48 49 50
3 51 52 53
3 54 55 56
3 57 58 59
3 60 61 62
3 63 64 65
3 66 67 68
3 69 70 71
3 72 73 74
3 75 76 77
3 78 79 80
3 81 82 83
3 84 85 86
3 87 88 89
3 90 91 92
3 93 94 95
3 96 97 98
3 99 100 101
3 102 103 104
3 105 106 107
3 108 109 110
3 111 112 113
3 114 115 116
3 117 118 119
3 120 121 122
3 123 124 125
3 126 127 128
3 129 130 131
3 132 133 134
3 135 136 137
3 138 139 140
3 141 142 143
3 144 145 146
3 147 148 149
3 150 151 152
3 153 154 155
3 156 157 158
3 159 160 161
3 162 163 164
3 165 166 167
3 168 169 170
3 171 172 173
3 174 175 176
3 177 178 179
3 180 181 182
3 183 184 185
3 186 187 188
3 189 190 191
3 192 193 194
3 195 196 197
3 198 199 200
3 201 202 203
3 204 205 206
3 207 208 209
3 210 211 212
3 213 214 215
3 216 217 218
3 219 220 221
3 222 223 224
3 225 226 227
3 228 229 230
3 231 232 233
3 234 235 236
3 237 238 239
3 240 241 242
3 243 244 245
3 246 247 248
3 249 250 251
3 252 253 254
3 255 256 257
3 258 259 260
3 261 262 263
3 264 265 266
3 267 268 269
3 270 271 272
3 273 274 275
3 276 277 278
3 279 280 281
3 282 283 284
3 285 286 287
3 288 289 290
3 291 292 293
3 294 295 296
3 297 298 299
3 300 301 302
3 303 304 305
3 306 307 308
3 309 310 311
3 312 313 314
3 315 316 317
3 318 319 320
3 321 322 323
3 324 325 326
3 327 328 329
3 330 331 332
3 333 334 335
3 336 337 338
3 339 340 341
3 342 343 344
3 345 346 347
3 348 349 350
3 351 352 353
3 354 355 356
3 357 358 359
3 360 361 362
3 363 364 365
3 366 367 368
3 369 370 371
3 372 373 374
3 375 376 377
3 378 379 380
3 381 382 383
3 384 385 386
3 387 388 389
3 390 391 392
3 393 394 395
