solid ascii
 facet normal -0.0203581 -0.585393 -0.810494
  outer loop
   vertex 55.1885 112.661 142.605
   vertex 56.0768 112.71 142.547
   vertex 56.083 112.062 143.015
  endloop
 endfacet
 facet normal 0.39075 -0.536389 -0.748065
  outer loop
   vertex 56.083 112.062 143.015
   vertex 56.0768 112.71 142.547
   vertex 56.5608 112.553 142.912
  endloop
 endfacet
 facet normal -0.716447 -0.10865 -0.689129
  outer loop
   vertex 54.2716 113.453 142.602
   vertex 53.991 113.068 142.954
   vertex 53.7967 113.61 143.071
  endloop
 endfacet
 facet normal -0.446403 -0.404865 -0.798003
  outer loop
   vertex 54.539 112.565 142.903
   vertex 53.991 113.068 142.954
   vertex 54.2716 113.453 142.602
  endloop
 endfacet
 facet normal -0.335478 -0.391398 -0.856891
  outer loop
   vertex 54.539 112.565 142.903
   vertex 54.2716 113.453 142.602
   vertex 55.1885 112.661 142.605
  endloop
 endfacet
 facet normal -0.15337 -0.180945 -0.971461
  outer loop
   vertex 55.1885 112.661 142.605
   vertex 54.2716 113.453 142.602
   vertex 55.1357 113.642 142.43
  endloop
 endfacet
 facet normal -0.0590778 -0.0930734 -0.993905
  outer loop
   vertex 56.0768 112.71 142.547
   vertex 55.1885 112.661 142.605
   vertex 55.9572 113.541 142.477
  endloop
 endfacet
 facet normal 0.0341969 -0.173134 -0.984304
  outer loop
   vertex 55.9572 113.541 142.477
   vertex 55.1885 112.661 142.605
   vertex 55.1357 113.642 142.43
  endloop
 endfacet
 facet normal 0.5813 -0.0885506 -0.808856
  outer loop
   vertex 56.5561 113.364 142.82
   vertex 56.5608 112.553 142.912
   vertex 56.0768 112.71 142.547
  endloop
 endfacet
 facet normal 0.497108 -0.00239586 -0.867685
  outer loop
   vertex 55.9572 113.541 142.477
   vertex 56.5561 113.364 142.82
   vertex 56.0768 112.71 142.547
  endloop
 endfacet
 facet normal -0.688508 0.0729791 -0.721547
  outer loop
   vertex 54.2716 113.453 142.602
   vertex 53.7967 113.61 143.071
   vertex 54.1263 113.98 142.794
  endloop
 endfacet
 facet normal -0.459598 0.491619 -0.739649
  outer loop
   vertex 54.1263 113.98 142.794
   vertex 54.5042 114.509 142.911
   vertex 54.8689 114.303 142.547
  endloop
 endfacet
 facet normal -0.391508 0.217777 -0.894033
  outer loop
   vertex 54.1263 113.98 142.794
   vertex 54.8689 114.303 142.547
   vertex 54.2716 113.453 142.602
  endloop
 endfacet
 facet normal -0.212217 0.0867115 -0.973368
  outer loop
   vertex 54.2716 113.453 142.602
   vertex 54.8689 114.303 142.547
   vertex 55.1357 113.642 142.43
  endloop
 endfacet
 facet normal 0.0661795 0.0839564 -0.994269
  outer loop
   vertex 55.9572 113.541 142.477
   vertex 55.1357 113.642 142.43
   vertex 55.7776 114.408 142.538
  endloop
 endfacet
 facet normal -0.0292512 0.162785 -0.986228
  outer loop
   vertex 55.7776 114.408 142.538
   vertex 55.1357 113.642 142.43
   vertex 54.8689 114.303 142.547
  endloop
 endfacet
 facet normal 0.520982 0.122999 -0.844659
  outer loop
   vertex 56.5196 114.458 142.957
   vertex 56.5561 113.364 142.82
   vertex 55.9572 113.541 142.477
  endloop
 endfacet
 facet normal 0.477284 0.159967 -0.864066
  outer loop
   vertex 55.7776 114.408 142.538
   vertex 56.5196 114.458 142.957
   vertex 55.9572 113.541 142.477
  endloop
 endfacet
 facet normal -0.318643 0.651456 -0.688528
  outer loop
   vertex 54.8689 114.303 142.547
   vertex 54.5042 114.509 142.911
   vertex 55.0506 114.766 142.901
  endloop
 endfacet
 facet normal -0.0803236 0.625106 -0.776396
  outer loop
   vertex 55.7776 114.408 142.538
   vertex 54.8689 114.303 142.547
   vertex 55.0506 114.766 142.901
  endloop
 endfacet
 facet normal -0.0565638 0.652391 -0.755769
  outer loop
   vertex 55.9291 114.97 143.012
   vertex 55.7776 114.408 142.538
   vertex 55.0506 114.766 142.901
  endloop
 endfacet
 facet normal 0.389542 0.530006 -0.753227
  outer loop
   vertex 56.5196 114.458 142.957
   vertex 55.7776 114.408 142.538
   vertex 55.9291 114.97 143.012
  endloop
 endfacet
 facet normal -0.139584 -0.882237 -0.449639
  outer loop
   vertex 55.1808 111.561 143.649
   vertex 56.0161 111.51 143.49
   vertex 56.1224 111.26 143.947
  endloop
 endfacet
 facet normal 0.362962 -0.779706 -0.510213
  outer loop
   vertex 56.1224 111.26 143.947
   vertex 56.0161 111.51 143.49
   vertex 56.549 111.557 143.797
  endloop
 endfacet
 facet normal -0.747452 -0.587806 -0.309516
  outer loop
   vertex 54.1676 112.347 143.485
   vertex 54.0728 112.171 144.048
   vertex 53.7719 112.752 143.67
  endloop
 endfacet
 facet normal -0.703966 -0.635514 -0.317103
  outer loop
   vertex 54.5783 111.693 143.882
   vertex 54.0728 112.171 144.048
   vertex 54.1676 112.347 143.485
  endloop
 endfacet
 facet normal -0.39482 -0.645773 -0.653525
  outer loop
   vertex 55.1808 111.561 143.649
   vertex 54.5783 111.693 143.882
   vertex 54.1676 112.347 143.485
  endloop
 endfacet
 facet normal -0.453157 -0.699893 -0.552085
  outer loop
   vertex 55.1808 111.561 143.649
   vertex 54.1676 112.347 143.485
   vertex 54.539 112.565 142.903
  endloop
 endfacet
 facet normal -0.225789 -0.66989 -0.707295
  outer loop
   vertex 55.1808 111.561 143.649
   vertex 54.539 112.565 142.903
   vertex 55.1885 112.661 142.605
  endloop
 endfacet
 facet normal -0.126917 -0.682465 -0.719815
  outer loop
   vertex 56.083 112.062 143.015
   vertex 55.1808 111.561 143.649
   vertex 55.1885 112.661 142.605
  endloop
 endfacet
 facet normal -0.182515 -0.628382 -0.756191
  outer loop
   vertex 56.0161 111.51 143.49
   vertex 55.1808 111.561 143.649
   vertex 56.083 112.062 143.015
  endloop
 endfacet
 facet normal 0.69007 -0.363194 -0.626014
  outer loop
   vertex 56.5608 112.553 142.912
   vertex 57.1069 112.771 143.388
   vertex 56.9674 112.128 143.607
  endloop
 endfacet
 facet normal 0.476224 -0.598013 -0.644663
  outer loop
   vertex 56.083 112.062 143.015
   vertex 56.5608 112.553 142.912
   vertex 56.9674 112.128 143.607
  endloop
 endfacet
 facet normal 0.484491 -0.574646 -0.659583
  outer loop
   vertex 56.083 112.062 143.015
   vertex 56.9674 112.128 143.607
   vertex 56.549 111.557 143.797
  endloop
 endfacet
 facet normal 0.433292 -0.617313 -0.656645
  outer loop
   vertex 56.083 112.062 143.015
   vertex 56.549 111.557 143.797
   vertex 56.0161 111.51 143.49
  endloop
 endfacet
 facet normal 0.70318 -0.361372 -0.61233
  outer loop
   vertex 56.9674 112.128 143.607
   vertex 57.1069 112.771 143.388
   vertex 57.4291 112.385 143.986
  endloop
 endfacet
 facet normal -0.733287 -0.510185 -0.449446
  outer loop
   vertex 53.991 113.068 142.954
   vertex 54.1676 112.347 143.485
   vertex 53.7719 112.752 143.67
  endloop
 endfacet
 facet normal -0.893958 -0.23901 -0.379097
  outer loop
   vertex 53.991 113.068 142.954
   vertex 53.7719 112.752 143.67
   vertex 53.7967 113.61 143.071
  endloop
 endfacet
 facet normal -0.984062 -0.0818599 -0.157866
  outer loop
   vertex 53.7967 113.61 143.071
   vertex 53.7719 112.752 143.67
   vertex 53.6782 113.43 143.902
  endloop
 endfacet
 facet normal -0.578134 -0.570632 -0.583215
  outer loop
   vertex 54.539 112.565 142.903
   vertex 54.1676 112.347 143.485
   vertex 53.991 113.068 142.954
  endloop
 endfacet
 facet normal 0.71078 -0.0134464 -0.703286
  outer loop
   vertex 57.1069 112.771 143.388
   vertex 56.5561 113.364 142.82
   vertex 57.1165 113.731 143.379
  endloop
 endfacet
 facet normal 0.672702 -0.0796917 -0.735609
  outer loop
   vertex 56.5608 112.553 142.912
   vertex 56.5561 113.364 142.82
   vertex 57.1069 112.771 143.388
  endloop
 endfacet
 facet normal 0.851185 -0.0900061 -0.517091
  outer loop
   vertex 57.4907 113.339 143.921
   vertex 57.4291 112.385 143.986
   vertex 57.1069 112.771 143.388
  endloop
 endfacet
 facet normal 0.818103 -0.01337 -0.574917
  outer loop
   vertex 57.1165 113.731 143.379
   vertex 57.4907 113.339 143.921
   vertex 57.1069 112.771 143.388
  endloop
 endfacet
 facet normal -0.804368 0.366575 -0.467562
  outer loop
   vertex 53.9853 114.368 143.341
   vertex 54.1263 113.98 142.794
   vertex 53.7967 113.61 143.071
  endloop
 endfacet
 facet normal -0.896888 0.328501 -0.296108
  outer loop
   vertex 53.9853 114.368 143.341
   vertex 53.7967 113.61 143.071
   vertex 53.7763 114.329 143.93
  endloop
 endfacet
 facet normal -0.986915 0.111396 -0.116574
  outer loop
   vertex 53.7763 114.329 143.93
   vertex 53.7967 113.61 143.071
   vertex 53.6782 113.43 143.902
  endloop
 endfacet
 facet normal -0.613178 0.560865 -0.556276
  outer loop
   vertex 54.1263 113.98 142.794
   vertex 53.9853 114.368 143.341
   vertex 54.5042 114.509 142.911
  endloop
 endfacet
 facet normal 0.626392 0.0625957 -0.776991
  outer loop
   vertex 57.1165 113.731 143.379
   vertex 56.5196 114.458 142.957
   vertex 57.1219 114.472 143.444
  endloop
 endfacet
 facet normal 0.663293 0.114599 -0.739533
  outer loop
   vertex 56.5561 113.364 142.82
   vertex 56.5196 114.458 142.957
   vertex 57.1165 113.731 143.379
  endloop
 endfacet
 facet normal 0.827703 0.0150768 -0.560964
  outer loop
   vertex 57.5127 114.474 143.984
   vertex 57.4907 113.339 143.921
   vertex 57.1165 113.731 143.379
  endloop
 endfacet
 facet normal 0.809473 0.0446878 -0.585454
  outer loop
   vertex 57.1219 114.472 143.444
   vertex 57.5127 114.474 143.984
   vertex 57.1165 113.731 143.379
  endloop
 endfacet
 facet normal -0.73474 0.642598 -0.217313
  outer loop
   vertex 53.9853 114.368 143.341
   vertex 53.7763 114.329 143.93
   vertex 54.2113 114.722 143.622
  endloop
 endfacet
 facet normal -0.555888 0.705132 -0.440202
  outer loop
   vertex 54.5042 114.509 142.911
   vertex 53.9853 114.368 143.341
   vertex 54.2113 114.722 143.622
  endloop
 endfacet
 facet normal -0.394654 0.822768 -0.409025
  outer loop
   vertex 54.5042 114.509 142.911
   vertex 54.2113 114.722 143.622
   vertex 55.0506 114.766 142.901
  endloop
 endfacet
 facet normal -0.33016 0.884332 -0.330079
  outer loop
   vertex 55.0506 114.766 142.901
   vertex 54.2113 114.722 143.622
   vertex 55.0529 115.075 143.725
  endloop
 endfacet
 facet normal -0.445943 0.675126 -0.587656
  outer loop
   vertex 55.9261 115.491 143.541
   vertex 55.0529 115.075 143.725
   vertex 55.5128 115.593 143.972
  endloop
 endfacet
 facet normal -0.438204 0.639489 -0.63169
  outer loop
   vertex 55.9261 115.491 143.541
   vertex 55.9291 114.97 143.012
   vertex 55.0529 115.075 143.725
  endloop
 endfacet
 facet normal -0.170927 0.922925 -0.344953
  outer loop
   vertex 55.9291 114.97 143.012
   vertex 55.0506 114.766 142.901
   vertex 55.0529 115.075 143.725
  endloop
 endfacet
 facet normal 0.226576 0.694974 -0.682404
  outer loop
   vertex 55.9291 114.97 143.012
   vertex 55.9261 115.491 143.541
   vertex 56.5141 115.539 143.785
  endloop
 endfacet
 facet normal 0.414215 0.555066 -0.721337
  outer loop
   vertex 56.5196 114.458 142.957
   vertex 55.9291 114.97 143.012
   vertex 56.5141 115.539 143.785
  endloop
 endfacet
 facet normal 0.467504 0.539306 -0.700421
  outer loop
   vertex 56.5196 114.458 142.957
   vertex 56.5141 115.539 143.785
   vertex 57.0748 114.927 143.688
  endloop
 endfacet
 facet normal 0.559635 0.436472 -0.704487
  outer loop
   vertex 56.5196 114.458 142.957
   vertex 57.0748 114.927 143.688
   vertex 57.1219 114.472 143.444
  endloop
 endfacet
 facet normal 0.751677 0.37085 -0.545391
  outer loop
   vertex 57.5127 114.474 143.984
   vertex 57.1219 114.472 143.444
   vertex 57.0748 114.927 143.688
  endloop
 endfacet
 facet normal -0.378149 0.751508 -0.540592
  outer loop
   vertex 55.9261 115.491 143.541
   vertex 55.5128 115.593 143.972
   vertex 55.9521 115.832 143.997
  endloop
 endfacet
 facet normal 0.183432 0.782074 -0.595578
  outer loop
   vertex 56.5141 115.539 143.785
   vertex 55.9261 115.491 143.541
   vertex 55.9521 115.832 143.997
  endloop
 endfacet
 facet normal -0.271888 -0.948001 -0.165442
  outer loop
   vertex 54.5783 111.693 143.882
   vertex 55.1808 111.561 143.649
   vertex 54.9735 111.438 144.698
  endloop
 endfacet
 facet normal -0.273082 -0.956393 -0.103628
  outer loop
   vertex 56.1224 111.26 143.947
   vertex 55.94 111.238 144.632
   vertex 55.1808 111.561 143.649
  endloop
 endfacet
 facet normal -0.210017 -0.965293 -0.155249
  outer loop
   vertex 55.1808 111.561 143.649
   vertex 55.94 111.238 144.632
   vertex 54.9735 111.438 144.698
  endloop
 endfacet
 facet normal 0.4469 -0.816397 -0.365754
  outer loop
   vertex 56.549 111.557 143.797
   vertex 57.1368 111.665 144.274
   vertex 56.8461 111.324 144.68
  endloop
 endfacet
 facet normal 0.441864 -0.819522 -0.364883
  outer loop
   vertex 56.549 111.557 143.797
   vertex 56.8461 111.324 144.68
   vertex 56.1224 111.26 143.947
  endloop
 endfacet
 facet normal 0.0950152 -0.995452 -0.00682952
  outer loop
   vertex 56.1224 111.26 143.947
   vertex 56.8461 111.324 144.68
   vertex 55.94 111.238 144.632
  endloop
 endfacet
 facet normal 0.573616 -0.781399 -0.245724
  outer loop
   vertex 56.8461 111.324 144.68
   vertex 57.1368 111.665 144.274
   vertex 57.3779 111.718 144.668
  endloop
 endfacet
 facet normal -0.816999 -0.576163 -0.0234093
  outer loop
   vertex 54.0728 112.171 144.048
   vertex 54.0989 112.095 144.992
   vertex 53.7066 112.668 144.595
  endloop
 endfacet
 facet normal -0.853052 -0.510745 -0.106969
  outer loop
   vertex 53.7719 112.752 143.67
   vertex 54.0728 112.171 144.048
   vertex 53.7066 112.668 144.595
  endloop
 endfacet
 facet normal -0.667443 -0.738981 0.0917973
  outer loop
   vertex 54.9735 111.438 144.698
   vertex 54.0728 112.171 144.048
   vertex 54.5783 111.693 143.882
  endloop
 endfacet
 facet normal -0.610146 -0.790936 -0.0462754
  outer loop
   vertex 54.0989 112.095 144.992
   vertex 54.0728 112.171 144.048
   vertex 54.9735 111.438 144.698
  endloop
 endfacet
 facet normal 0.566628 -0.602436 -0.562142
  outer loop
   vertex 56.549 111.557 143.797
   vertex 56.9674 112.128 143.607
   vertex 57.1368 111.665 144.274
  endloop
 endfacet
 facet normal 0.699262 -0.491645 -0.518959
  outer loop
   vertex 57.1368 111.665 144.274
   vertex 56.9674 112.128 143.607
   vertex 57.4291 112.385 143.986
  endloop
 endfacet
 facet normal 0.776065 -0.479237 -0.409945
  outer loop
   vertex 57.1368 111.665 144.274
   vertex 57.4291 112.385 143.986
   vertex 57.3779 111.718 144.668
  endloop
 endfacet
 facet normal 0.93363 -0.288746 -0.212039
  outer loop
   vertex 57.3779 111.718 144.668
   vertex 57.4291 112.385 143.986
   vertex 57.6514 112.501 144.807
  endloop
 endfacet
 facet normal -0.990771 -0.109477 -0.0799191
  outer loop
   vertex 53.7719 112.752 143.67
   vertex 53.7066 112.668 144.595
   vertex 53.6782 113.43 143.902
  endloop
 endfacet
 facet normal -0.99609 -0.0767787 -0.0437023
  outer loop
   vertex 53.7066 112.668 144.595
   vertex 53.6306 113.537 144.801
   vertex 53.6782 113.43 143.902
  endloop
 endfacet
 facet normal 0.964988 -0.0792637 -0.250032
  outer loop
   vertex 57.4291 112.385 143.986
   vertex 57.4907 113.339 143.921
   vertex 57.6514 112.501 144.807
  endloop
 endfacet
 facet normal 0.952553 -0.115167 -0.281743
  outer loop
   vertex 57.6514 112.501 144.807
   vertex 57.4907 113.339 143.921
   vertex 57.7582 113.544 144.741
  endloop
 endfacet
 facet normal -0.991723 0.110355 -0.0656311
  outer loop
   vertex 53.6782 113.43 143.902
   vertex 53.6306 113.537 144.801
   vertex 53.7763 114.329 143.93
  endloop
 endfacet
 facet normal -0.992344 0.0919427 -0.0824611
  outer loop
   vertex 53.6306 113.537 144.801
   vertex 53.7043 114.553 145.047
   vertex 53.7763 114.329 143.93
  endloop
 endfacet
 facet normal 0.950808 -0.00121825 -0.309778
  outer loop
   vertex 57.4907 113.339 143.921
   vertex 57.5127 114.474 143.984
   vertex 57.7582 113.544 144.741
  endloop
 endfacet
 facet normal 0.917944 -0.0748809 -0.38958
  outer loop
   vertex 57.7582 113.544 144.741
   vertex 57.5127 114.474 143.984
   vertex 57.8596 114.416 144.813
  endloop
 endfacet
 facet normal -0.779749 0.602219 -0.171239
  outer loop
   vertex 53.7763 114.329 143.93
   vertex 53.7043 114.553 145.047
   vertex 54.107 114.927 144.529
  endloop
 endfacet
 facet normal -0.736932 0.636107 -0.22869
  outer loop
   vertex 54.2113 114.722 143.622
   vertex 53.7763 114.329 143.93
   vertex 54.107 114.927 144.529
  endloop
 endfacet
 facet normal -0.523876 0.697947 -0.488287
  outer loop
   vertex 54.7805 115.509 144.638
   vertex 55.0529 115.075 143.725
   vertex 54.107 114.927 144.529
  endloop
 endfacet
 facet normal -0.349107 0.904523 -0.244873
  outer loop
   vertex 55.0529 115.075 143.725
   vertex 54.2113 114.722 143.622
   vertex 54.107 114.927 144.529
  endloop
 endfacet
 facet normal -0.524468 0.697521 -0.488261
  outer loop
   vertex 55.0529 115.075 143.725
   vertex 54.7805 115.509 144.638
   vertex 55.5128 115.593 143.972
  endloop
 endfacet
 facet normal 0.449563 0.526266 -0.721759
  outer loop
   vertex 57.0748 114.927 143.688
   vertex 56.5141 115.539 143.785
   vertex 57.3456 115.487 144.265
  endloop
 endfacet
 facet normal 0.873466 -0.295923 -0.386636
  outer loop
   vertex 58.0637 115.161 144.703
   vertex 57.8596 114.416 144.813
   vertex 57.5127 114.474 143.984
  endloop
 endfacet
 facet normal 0.592869 0.304763 -0.745403
  outer loop
   vertex 58.0637 115.161 144.703
   vertex 57.5127 114.474 143.984
   vertex 57.3456 115.487 144.265
  endloop
 endfacet
 facet normal 0.499769 -0.0605039 -0.864043
  outer loop
   vertex 58.0637 115.161 144.703
   vertex 57.3456 115.487 144.265
   vertex 58.01 115.794 144.628
  endloop
 endfacet
 facet normal 0.724297 0.292819 -0.62422
  outer loop
   vertex 57.3456 115.487 144.265
   vertex 57.5127 114.474 143.984
   vertex 57.0748 114.927 143.688
  endloop
 endfacet
 facet normal 0.719928 -0.0215427 -0.693715
  outer loop
   vertex 58.0637 115.161 144.703
   vertex 58.01 115.794 144.628
   vertex 58.4659 115.51 145.11
  endloop
 endfacet
 facet normal -0.465296 0.783239 -0.412354
  outer loop
   vertex 55.5128 115.593 143.972
   vertex 54.7805 115.509 144.638
   vertex 55.205 115.843 144.794
  endloop
 endfacet
 facet normal -0.419251 0.812953 -0.404147
  outer loop
   vertex 55.5128 115.593 143.972
   vertex 55.205 115.843 144.794
   vertex 55.9521 115.832 143.997
  endloop
 endfacet
 facet normal -0.273532 0.923451 -0.269106
  outer loop
   vertex 55.9521 115.832 143.997
   vertex 55.205 115.843 144.794
   vertex 56.1341 116.112 144.773
  endloop
 endfacet
 facet normal 0.307764 0.869674 -0.385937
  outer loop
   vertex 56.5141 115.539 143.785
   vertex 55.9521 115.832 143.997
   vertex 56.1341 116.112 144.773
  endloop
 endfacet
 facet normal -0.293335 0.773709 -0.561541
  outer loop
   vertex 56.5141 115.539 143.785
   vertex 56.1341 116.112 144.773
   vertex 57.1403 116.332 144.551
  endloop
 endfacet
 facet normal 0.479504 0.383317 -0.789395
  outer loop
   vertex 56.5141 115.539 143.785
   vertex 57.1403 116.332 144.551
   vertex 57.3456 115.487 144.265
  endloop
 endfacet
 facet normal -0.295997 0.614443 -0.731331
  outer loop
   vertex 56.7622 116.585 144.916
   vertex 57.1403 116.332 144.551
   vertex 56.1341 116.112 144.773
  endloop
 endfacet
 facet normal 0.524139 0.488603 -0.697528
  outer loop
   vertex 57.6913 116.462 144.856
   vertex 58.2295 116.088 144.999
   vertex 58.01 115.794 144.628
  endloop
 endfacet
 facet normal 0.35023 0.44835 -0.822387
  outer loop
   vertex 57.6913 116.462 144.856
   vertex 58.01 115.794 144.628
   vertex 57.1403 116.332 144.551
  endloop
 endfacet
 facet normal 0.307049 0.370872 -0.876456
  outer loop
   vertex 57.1403 116.332 144.551
   vertex 58.01 115.794 144.628
   vertex 57.3456 115.487 144.265
  endloop
 endfacet
 facet normal 0.767428 0.19703 -0.61011
  outer loop
   vertex 58.4659 115.51 145.11
   vertex 58.01 115.794 144.628
   vertex 58.2295 116.088 144.999
  endloop
 endfacet
 facet normal -0.0571179 0.792548 -0.607129
  outer loop
   vertex 57.1403 116.332 144.551
   vertex 56.7622 116.585 144.916
   vertex 57.277 116.768 145.107
  endloop
 endfacet
 facet normal 0.173633 0.753942 -0.63358
  outer loop
   vertex 57.6913 116.462 144.856
   vertex 57.1403 116.332 144.551
   vertex 57.277 116.768 145.107
  endloop
 endfacet
 facet normal -0.192953 -0.973678 0.121329
  outer loop
   vertex 55.94 111.238 144.632
   vertex 56.0067 111.346 145.606
   vertex 54.9735 111.438 144.698
  endloop
 endfacet
 facet normal -0.126483 -0.990994 0.0439665
  outer loop
   vertex 54.9735 111.438 144.698
   vertex 56.0067 111.346 145.606
   vertex 54.9007 111.49 145.675
  endloop
 endfacet
 facet normal 0.339293 -0.894069 0.29244
  outer loop
   vertex 57.1496 111.668 145.263
   vertex 56.4761 111.621 145.903
   vertex 56.0067 111.346 145.606
  endloop
 endfacet
 facet normal 0.347038 -0.875824 0.335406
  outer loop
   vertex 57.1496 111.668 145.263
   vertex 56.0067 111.346 145.606
   vertex 56.8461 111.324 144.68
  endloop
 endfacet
 facet normal 0.0886925 -0.990621 0.10394
  outer loop
   vertex 56.8461 111.324 144.68
   vertex 56.0067 111.346 145.606
   vertex 55.94 111.238 144.632
  endloop
 endfacet
 facet normal 0.590009 -0.791525 0.159303
  outer loop
   vertex 56.8461 111.324 144.68
   vertex 57.3779 111.718 144.668
   vertex 57.1496 111.668 145.263
  endloop
 endfacet
 facet normal -0.797894 -0.601101 0.0452071
  outer loop
   vertex 54.0989 112.095 144.992
   vertex 54.1622 112.08 145.904
   vertex 53.7156 112.65 145.6
  endloop
 endfacet
 facet normal -0.823992 -0.566596 -0.00270411
  outer loop
   vertex 53.7066 112.668 144.595
   vertex 54.0989 112.095 144.992
   vertex 53.7156 112.65 145.6
  endloop
 endfacet
 facet normal -0.60125 -0.799059 -0.00171285
  outer loop
   vertex 54.9007 111.49 145.675
   vertex 54.0989 112.095 144.992
   vertex 54.9735 111.438 144.698
  endloop
 endfacet
 facet normal -0.617824 -0.785762 0.0295291
  outer loop
   vertex 54.1622 112.08 145.904
   vertex 54.0989 112.095 144.992
   vertex 54.9007 111.49 145.675
  endloop
 endfacet
 facet normal 0.42188 -0.820977 0.384726
  outer loop
   vertex 57.1496 111.668 145.263
   vertex 57.209 112.033 145.978
   vertex 56.4761 111.621 145.903
  endloop
 endfacet
 facet normal 0.880209 -0.361855 0.30707
  outer loop
   vertex 57.1496 111.668 145.263
   vertex 57.3779 111.718 144.668
   vertex 57.6514 112.501 144.807
  endloop
 endfacet
 facet normal 0.668794 -0.624252 -0.403762
  outer loop
   vertex 57.1496 111.668 145.263
   vertex 57.6514 112.501 144.807
   vertex 57.9872 112.257 145.74
  endloop
 endfacet
 facet normal 0.36363 -0.841311 0.399962
  outer loop
   vertex 57.1496 111.668 145.263
   vertex 57.9872 112.257 145.74
   vertex 57.209 112.033 145.978
  endloop
 endfacet
 facet normal 0.771238 -0.490549 -0.405652
  outer loop
   vertex 58.1995 112.811 145.473
   vertex 57.9872 112.257 145.74
   vertex 57.6514 112.501 144.807
  endloop
 endfacet
 facet normal 0.725617 -0.50357 -0.468932
  outer loop
   vertex 57.9872 112.257 145.74
   vertex 58.1995 112.811 145.473
   vertex 58.4166 112.612 146.024
  endloop
 endfacet
 facet normal -0.996017 -0.0888661 0.0073372
  outer loop
   vertex 53.7066 112.668 144.595
   vertex 53.7156 112.65 145.6
   vertex 53.6306 113.537 144.801
  endloop
 endfacet
 facet normal -0.995909 -0.0901649 0.00588343
  outer loop
   vertex 53.7156 112.65 145.6
   vertex 53.6362 113.541 145.813
   vertex 53.6306 113.537 144.801
  endloop
 endfacet
 facet normal 0.810734 -0.0894882 -0.578534
  outer loop
   vertex 58.1995 112.811 145.473
   vertex 57.7582 113.544 144.741
   vertex 58.2447 113.76 145.39
  endloop
 endfacet
 facet normal 0.793297 -0.118593 -0.597173
  outer loop
   vertex 57.6514 112.501 144.807
   vertex 57.7582 113.544 144.741
   vertex 58.1995 112.811 145.473
  endloop
 endfacet
 facet normal 0.891884 -0.177294 -0.416065
  outer loop
   vertex 58.546 113.397 145.966
   vertex 58.4166 112.612 146.024
   vertex 58.1995 112.811 145.473
  endloop
 endfacet
 facet normal 0.860063 -0.085199 -0.503024
  outer loop
   vertex 58.2447 113.76 145.39
   vertex 58.546 113.397 145.966
   vertex 58.1995 112.811 145.473
  endloop
 endfacet
 facet normal -0.997459 0.071047 0.005317
  outer loop
   vertex 53.6306 113.537 144.801
   vertex 53.6362 113.541 145.813
   vertex 53.7043 114.553 145.047
  endloop
 endfacet
 facet normal -0.998288 0.0284519 -0.0510967
  outer loop
   vertex 53.6362 113.541 145.813
   vertex 53.6533 114.411 145.965
   vertex 53.7043 114.553 145.047
  endloop
 endfacet
 facet normal 0.757229 -0.12016 -0.642001
  outer loop
   vertex 58.2447 113.76 145.39
   vertex 57.8596 114.416 144.813
   vertex 58.282 114.652 145.267
  endloop
 endfacet
 facet normal 0.806263 -0.045456 -0.589808
  outer loop
   vertex 57.7582 113.544 144.741
   vertex 57.8596 114.416 144.813
   vertex 58.2447 113.76 145.39
  endloop
 endfacet
 facet normal 0.865519 -0.0695511 -0.496023
  outer loop
   vertex 58.5725 114.508 145.857
   vertex 58.546 113.397 145.966
   vertex 58.2447 113.76 145.39
  endloop
 endfacet
 facet normal 0.882746 -0.100182 -0.459045
  outer loop
   vertex 58.282 114.652 145.267
   vertex 58.5725 114.508 145.857
   vertex 58.2447 113.76 145.39
  endloop
 endfacet
 facet normal -0.834826 0.439387 -0.331669
  outer loop
   vertex 54.0233 115.38 145.339
   vertex 54.107 114.927 144.529
   vertex 53.7043 114.553 145.047
  endloop
 endfacet
 facet normal -0.885289 0.415479 -0.208905
  outer loop
   vertex 54.0233 115.38 145.339
   vertex 53.7043 114.553 145.047
   vertex 53.8227 115.252 145.935
  endloop
 endfacet
 facet normal -0.980152 0.19678 -0.0240749
  outer loop
   vertex 53.8227 115.252 145.935
   vertex 53.7043 114.553 145.047
   vertex 53.6533 114.411 145.965
  endloop
 endfacet
 facet normal -0.539975 0.709867 -0.452235
  outer loop
   vertex 54.107 114.927 144.529
   vertex 54.0233 115.38 145.339
   vertex 54.7805 115.509 144.638
  endloop
 endfacet
 facet normal 0.771234 -0.294134 -0.56452
  outer loop
   vertex 57.8596 114.416 144.813
   vertex 58.0637 115.161 144.703
   vertex 58.282 114.652 145.267
  endloop
 endfacet
 facet normal 0.790311 -0.269936 -0.550039
  outer loop
   vertex 58.282 114.652 145.267
   vertex 58.0637 115.161 144.703
   vertex 58.4659 115.51 145.11
  endloop
 endfacet
 facet normal 0.837317 -0.266688 -0.477261
  outer loop
   vertex 58.282 114.652 145.267
   vertex 58.4659 115.51 145.11
   vertex 58.5725 114.508 145.857
  endloop
 endfacet
 facet normal 0.987277 -0.0131389 -0.158467
  outer loop
   vertex 58.5725 114.508 145.857
   vertex 58.4659 115.51 145.11
   vertex 58.5979 115.473 145.935
  endloop
 endfacet
 facet normal -0.696828 0.71258 -0.0816079
  outer loop
   vertex 54.0233 115.38 145.339
   vertex 53.8227 115.252 145.935
   vertex 54.3278 115.721 145.717
  endloop
 endfacet
 facet normal -0.466982 0.809845 -0.355078
  outer loop
   vertex 54.7805 115.509 144.638
   vertex 54.0233 115.38 145.339
   vertex 54.3278 115.721 145.717
  endloop
 endfacet
 facet normal -0.491092 0.792433 -0.361771
  outer loop
   vertex 54.7805 115.509 144.638
   vertex 54.3278 115.721 145.717
   vertex 55.205 115.843 144.794
  endloop
 endfacet
 facet normal -0.268713 0.954542 -0.129006
  outer loop
   vertex 55.205 115.843 144.794
   vertex 54.3278 115.721 145.717
   vertex 55.3597 116.025 145.819
  endloop
 endfacet
 facet normal -0.571831 0.736201 -0.361963
  outer loop
   vertex 56.3305 116.653 145.562
   vertex 56.1341 116.112 144.773
   vertex 55.3597 116.025 145.819
  endloop
 endfacet
 facet normal -0.278654 0.951951 -0.127047
  outer loop
   vertex 56.1341 116.112 144.773
   vertex 55.205 115.843 144.794
   vertex 55.3597 116.025 145.819
  endloop
 endfacet
 facet normal -0.488143 0.771915 -0.407264
  outer loop
   vertex 56.1341 116.112 144.773
   vertex 56.3305 116.653 145.562
   vertex 56.7622 116.585 144.916
  endloop
 endfacet
 facet normal 0.571775 0.617267 -0.54042
  outer loop
   vertex 58.2295 116.088 144.999
   vertex 57.6913 116.462 144.856
   vertex 58.0819 116.567 145.39
  endloop
 endfacet
 facet normal 0.767204 0.53059 -0.360378
  outer loop
   vertex 58.2295 116.088 144.999
   vertex 58.0819 116.567 145.39
   vertex 58.4424 116.261 145.706
  endloop
 endfacet
 facet normal 0.891146 0.299113 -0.341161
  outer loop
   vertex 58.2295 116.088 144.999
   vertex 58.4424 116.261 145.706
   vertex 58.4659 115.51 145.11
  endloop
 endfacet
 facet normal 0.977386 0.149474 -0.149581
  outer loop
   vertex 58.4659 115.51 145.11
   vertex 58.4424 116.261 145.706
   vertex 58.5979 115.473 145.935
  endloop
 endfacet
 facet normal -0.2382 0.936441 -0.257563
  outer loop
   vertex 56.7622 116.585 144.916
   vertex 56.3305 116.653 145.562
   vertex 57.277 116.768 145.107
  endloop
 endfacet
 facet normal -0.153992 0.985593 -0.0699448
  outer loop
   vertex 57.277 116.768 145.107
   vertex 56.3305 116.653 145.562
   vertex 57.0925 116.789 145.802
  endloop
 endfacet
 facet normal 0.356959 0.831583 -0.425501
  outer loop
   vertex 58.0819 116.567 145.39
   vertex 57.6913 116.462 144.856
   vertex 57.277 116.768 145.107
  endloop
 endfacet
 facet normal 0.236996 0.971392 0.0151619
  outer loop
   vertex 58.0819 116.567 145.39
   vertex 57.277 116.768 145.107
   vertex 58.0129 116.576 145.921
  endloop
 endfacet
 facet normal 0.221371 0.974726 0.0300746
  outer loop
   vertex 58.0129 116.576 145.921
   vertex 57.277 116.768 145.107
   vertex 57.0925 116.789 145.802
  endloop
 endfacet
 facet normal 0.61129 0.788591 0.0667007
  outer loop
   vertex 58.4424 116.261 145.706
   vertex 58.0819 116.567 145.39
   vertex 58.0129 116.576 145.921
  endloop
 endfacet
 facet normal 0.0575439 -0.936372 0.346261
  outer loop
   vertex 56.0176 111.558 146.178
   vertex 55.1665 111.648 146.562
   vertex 56.0067 111.346 145.606
  endloop
 endfacet
 facet normal -0.113801 -0.971728 0.206866
  outer loop
   vertex 56.0067 111.346 145.606
   vertex 55.1665 111.648 146.562
   vertex 54.9007 111.49 145.675
  endloop
 endfacet
 facet normal 0.317268 -0.891089 0.324502
  outer loop
   vertex 56.0067 111.346 145.606
   vertex 56.4761 111.621 145.903
   vertex 56.0176 111.558 146.178
  endloop
 endfacet
 facet normal -0.815035 -0.560539 0.146676
  outer loop
   vertex 53.7156 112.65 145.6
   vertex 54.1622 112.08 145.904
   vertex 53.9786 112.525 146.587
  endloop
 endfacet
 facet normal -0.536181 -0.788673 0.300841
  outer loop
   vertex 55.1665 111.648 146.562
   vertex 54.1622 112.08 145.904
   vertex 54.9007 111.49 145.675
  endloop
 endfacet
 facet normal -0.552737 -0.758072 0.346134
  outer loop
   vertex 53.9786 112.525 146.587
   vertex 54.1622 112.08 145.904
   vertex 55.1665 111.648 146.562
  endloop
 endfacet
 facet normal 0.212521 -0.736121 0.64262
  outer loop
   vertex 56.0176 111.558 146.178
   vertex 56.3971 112.079 146.648
   vertex 55.1665 111.648 146.562
  endloop
 endfacet
 facet normal 0.409061 -0.757909 0.508177
  outer loop
   vertex 56.4761 111.621 145.903
   vertex 56.3971 112.079 146.648
   vertex 56.0176 111.558 146.178
  endloop
 endfacet
 facet normal 0.380101 -0.769973 0.512509
  outer loop
   vertex 56.4761 111.621 145.903
   vertex 57.209 112.033 145.978
   vertex 56.3971 112.079 146.648
  endloop
 endfacet
 facet normal 0.173296 -0.946013 0.273913
  outer loop
   vertex 57.209 112.033 145.978
   vertex 57.9253 112.353 146.627
   vertex 56.3971 112.079 146.648
  endloop
 endfacet
 facet normal 0.308413 -0.943205 0.123473
  outer loop
   vertex 57.9872 112.257 145.74
   vertex 57.9253 112.353 146.627
   vertex 57.209 112.033 145.978
  endloop
 endfacet
 facet normal 0.580513 -0.804218 0.127424
  outer loop
   vertex 57.9253 112.353 146.627
   vertex 57.9872 112.257 145.74
   vertex 58.4166 112.612 146.024
  endloop
 endfacet
 facet normal 0.647916 -0.731136 0.213645
  outer loop
   vertex 58.4273 112.821 146.708
   vertex 57.9253 112.353 146.627
   vertex 58.4166 112.612 146.024
  endloop
 endfacet
 facet normal -0.960724 -0.142466 0.238146
  outer loop
   vertex 53.7156 112.65 145.6
   vertex 53.9786 112.525 146.587
   vertex 53.6362 113.541 145.813
  endloop
 endfacet
 facet normal -0.965142 -0.229305 0.126175
  outer loop
   vertex 53.9786 112.525 146.587
   vertex 53.7464 113.551 146.675
   vertex 53.6362 113.541 145.813
  endloop
 endfacet
 facet normal 0.986546 -0.159994 0.0336026
  outer loop
   vertex 58.4166 112.612 146.024
   vertex 58.546 113.397 145.966
   vertex 58.4273 112.821 146.708
  endloop
 endfacet
 facet normal 0.992009 -0.0882653 0.0901466
  outer loop
   vertex 58.4273 112.821 146.708
   vertex 58.546 113.397 145.966
   vertex 58.5108 113.766 146.715
  endloop
 endfacet
 facet normal -0.991915 -0.00272255 0.126878
  outer loop
   vertex 53.6362 113.541 145.813
   vertex 53.7464 113.551 146.675
   vertex 53.6533 114.411 145.965
  endloop
 endfacet
 facet normal -0.984819 0.0338331 0.170254
  outer loop
   vertex 53.7464 113.551 146.675
   vertex 53.7838 114.462 146.71
   vertex 53.6533 114.411 145.965
  endloop
 endfacet
 facet normal 0.998267 -0.018297 0.0559282
  outer loop
   vertex 58.546 113.397 145.966
   vertex 58.5725 114.508 145.857
   vertex 58.5108 113.766 146.715
  endloop
 endfacet
 facet normal 0.997497 -0.00113605 0.0706946
  outer loop
   vertex 58.5108 113.766 146.715
   vertex 58.5725 114.508 145.857
   vertex 58.5151 114.809 146.672
  endloop
 endfacet
 facet normal -0.782776 0.450727 0.429078
  outer loop
   vertex 54.1581 114.905 146.911
   vertex 54.1802 115.527 146.298
   vertex 53.8227 115.252 145.935
  endloop
 endfacet
 facet normal -0.776202 0.460747 0.430375
  outer loop
   vertex 54.1581 114.905 146.911
   vertex 53.8227 115.252 145.935
   vertex 53.7838 114.462 146.71
  endloop
 endfacet
 facet normal -0.967226 0.200562 0.155719
  outer loop
   vertex 53.7838 114.462 146.71
   vertex 53.8227 115.252 145.935
   vertex 53.6533 114.411 145.965
  endloop
 endfacet
 facet normal -0.605549 0.569448 0.555913
  outer loop
   vertex 54.1581 114.905 146.911
   vertex 54.698 115.433 146.958
   vertex 54.1802 115.527 146.298
  endloop
 endfacet
 facet normal 0.996056 -0.0329983 0.0823581
  outer loop
   vertex 58.5725 114.508 145.857
   vertex 58.5979 115.473 145.935
   vertex 58.5151 114.809 146.672
  endloop
 endfacet
 facet normal 0.972558 0.107371 0.206402
  outer loop
   vertex 58.5151 114.809 146.672
   vertex 58.5979 115.473 145.935
   vertex 58.4535 115.737 146.479
  endloop
 endfacet
 facet normal -0.658766 0.74783 0.0823289
  outer loop
   vertex 53.8227 115.252 145.935
   vertex 54.1802 115.527 146.298
   vertex 54.3278 115.721 145.717
  endloop
 endfacet
 facet normal -0.449608 0.764992 0.461129
  outer loop
   vertex 54.1802 115.527 146.298
   vertex 54.698 115.433 146.958
   vertex 55.0436 115.777 146.724
  endloop
 endfacet
 facet normal -0.366499 0.906526 0.209499
  outer loop
   vertex 54.1802 115.527 146.298
   vertex 55.0436 115.777 146.724
   vertex 54.3278 115.721 145.717
  endloop
 endfacet
 facet normal -0.293679 0.943135 0.155718
  outer loop
   vertex 54.3278 115.721 145.717
   vertex 55.0436 115.777 146.724
   vertex 55.3597 116.025 145.819
  endloop
 endfacet
 facet normal -0.479736 0.789499 0.382812
  outer loop
   vertex 55.3597 116.025 145.819
   vertex 55.9982 115.968 146.738
   vertex 56.3477 116.461 146.158
  endloop
 endfacet
 facet normal -0.194534 0.961252 0.195321
  outer loop
   vertex 55.3597 116.025 145.819
   vertex 55.0436 115.777 146.724
   vertex 55.9982 115.968 146.738
  endloop
 endfacet
 facet normal -0.0713329 0.774542 0.628488
  outer loop
   vertex 56.3477 116.461 146.158
   vertex 56.9755 115.953 146.856
   vertex 57.286 116.461 146.265
  endloop
 endfacet
 facet normal -0.0635735 0.778516 0.624397
  outer loop
   vertex 55.9982 115.968 146.738
   vertex 56.9755 115.953 146.856
   vertex 56.3477 116.461 146.158
  endloop
 endfacet
 facet normal 0.216748 0.691474 0.689118
  outer loop
   vertex 57.286 116.461 146.265
   vertex 58.0125 115.648 146.853
   vertex 58.0129 116.576 145.921
  endloop
 endfacet
 facet normal 0.204261 0.686574 0.697778
  outer loop
   vertex 56.9755 115.953 146.856
   vertex 58.0125 115.648 146.853
   vertex 57.286 116.461 146.265
  endloop
 endfacet
 facet normal 0.413693 0.644813 0.642709
  outer loop
   vertex 58.0129 116.576 145.921
   vertex 58.0125 115.648 146.853
   vertex 58.4535 115.737 146.479
  endloop
 endfacet
 facet normal 0.66354 0.623557 0.413391
  outer loop
   vertex 58.0129 116.576 145.921
   vertex 58.4535 115.737 146.479
   vertex 58.4424 116.261 145.706
  endloop
 endfacet
 facet normal 0.9622 0.231593 0.143301
  outer loop
   vertex 58.4424 116.261 145.706
   vertex 58.4535 115.737 146.479
   vertex 58.5979 115.473 145.935
  endloop
 endfacet
 facet normal -0.466766 0.838018 0.282586
  outer loop
   vertex 55.3597 116.025 145.819
   vertex 56.3477 116.461 146.158
   vertex 56.3305 116.653 145.562
  endloop
 endfacet
 facet normal -0.258814 0.917469 0.302104
  outer loop
   vertex 57.0925 116.789 145.802
   vertex 56.3305 116.653 145.562
   vertex 56.3477 116.461 146.158
  endloop
 endfacet
 facet normal -0.067479 0.801105 0.594708
  outer loop
   vertex 57.286 116.461 146.265
   vertex 57.0925 116.789 145.802
   vertex 56.3477 116.461 146.158
  endloop
 endfacet
 facet normal 0.122846 0.83373 0.538333
  outer loop
   vertex 58.0129 116.576 145.921
   vertex 57.0925 116.789 145.802
   vertex 57.286 116.461 146.265
  endloop
 endfacet
 facet normal -0.564514 -0.772476 0.29087
  outer loop
   vertex 53.9786 112.525 146.587
   vertex 55.1665 111.648 146.562
   vertex 54.8869 112.019 147.004
  endloop
 endfacet
 facet normal -0.580426 -0.535038 0.613873
  outer loop
   vertex 53.9786 112.525 146.587
   vertex 54.8869 112.019 147.004
   vertex 54.2171 112.785 147.038
  endloop
 endfacet
 facet normal -0.159555 -0.183263 0.970029
  outer loop
   vertex 54.2171 112.785 147.038
   vertex 54.8869 112.019 147.004
   vertex 55.1138 112.685 147.167
  endloop
 endfacet
 facet normal 0.179976 -0.660379 0.729046
  outer loop
   vertex 55.1665 111.648 146.562
   vertex 56.3971 112.079 146.648
   vertex 55.8903 112.408 147.072
  endloop
 endfacet
 facet normal 0.214907 -0.676874 0.704029
  outer loop
   vertex 55.1665 111.648 146.562
   vertex 55.8903 112.408 147.072
   vertex 54.8869 112.019 147.004
  endloop
 endfacet
 facet normal 0.0304466 -0.247549 0.968397
  outer loop
   vertex 54.8869 112.019 147.004
   vertex 55.8903 112.408 147.072
   vertex 55.1138 112.685 147.167
  endloop
 endfacet
 facet normal 0.136146 -0.706644 0.694348
  outer loop
   vertex 56.3971 112.079 146.648
   vertex 57.9253 112.353 146.627
   vertex 57.1444 112.707 147.141
  endloop
 endfacet
 facet normal 0.128627 -0.702279 0.700185
  outer loop
   vertex 55.8903 112.408 147.072
   vertex 56.3971 112.079 146.648
   vertex 57.1444 112.707 147.141
  endloop
 endfacet
 facet normal 0.0474471 -0.787094 0.615006
  outer loop
   vertex 57.1444 112.707 147.141
   vertex 57.9253 112.353 146.627
   vertex 58.0875 112.674 147.026
  endloop
 endfacet
 facet normal 0.61608 -0.716594 0.327015
  outer loop
   vertex 57.9253 112.353 146.627
   vertex 58.4273 112.821 146.708
   vertex 58.0875 112.674 147.026
  endloop
 endfacet
 facet normal -0.762898 -0.172869 0.622979
  outer loop
   vertex 54.2171 112.785 147.038
   vertex 54.022 113.675 147.046
   vertex 53.7464 113.551 146.675
  endloop
 endfacet
 facet normal -0.800478 -0.228737 0.553998
  outer loop
   vertex 53.9786 112.525 146.587
   vertex 54.2171 112.785 147.038
   vertex 53.7464 113.551 146.675
  endloop
 endfacet
 facet normal -0.15888 -0.175111 0.971645
  outer loop
   vertex 55.1138 112.685 147.167
   vertex 54.8371 113.617 147.29
   vertex 54.2171 112.785 147.038
  endloop
 endfacet
 facet normal -0.289987 -0.0722062 0.954303
  outer loop
   vertex 54.8371 113.617 147.29
   vertex 54.022 113.675 147.046
   vertex 54.2171 112.785 147.038
  endloop
 endfacet
 facet normal 0.0114075 -0.296277 0.955034
  outer loop
   vertex 55.8903 112.408 147.072
   vertex 56.0017 113.4 147.378
   vertex 55.1138 112.685 147.167
  endloop
 endfacet
 facet normal -0.104458 -0.160257 0.981533
  outer loop
   vertex 56.0017 113.4 147.378
   vertex 54.8371 113.617 147.29
   vertex 55.1138 112.685 147.167
  endloop
 endfacet
 facet normal -0.191295 -0.584759 0.788329
  outer loop
   vertex 57.072 113.482 147.698
   vertex 56.0017 113.4 147.378
   vertex 57.1444 112.707 147.141
  endloop
 endfacet
 facet normal 0.0179644 -0.29692 0.954733
  outer loop
   vertex 56.0017 113.4 147.378
   vertex 55.8903 112.408 147.072
   vertex 57.1444 112.707 147.141
  endloop
 endfacet
 facet normal 0.362283 -0.488824 0.793601
  outer loop
   vertex 57.072 113.482 147.698
   vertex 58.0305 113.413 147.218
   vertex 57.4427 113.868 147.767
  endloop
 endfacet
 facet normal 0.350643 -0.524963 0.775541
  outer loop
   vertex 57.072 113.482 147.698
   vertex 57.1444 112.707 147.141
   vertex 58.0305 113.413 147.218
  endloop
 endfacet
 facet normal 0.108858 -0.242181 0.964105
  outer loop
   vertex 57.1444 112.707 147.141
   vertex 58.0875 112.674 147.026
   vertex 58.0305 113.413 147.218
  endloop
 endfacet
 facet normal 0.74584 -0.0709014 0.662341
  outer loop
   vertex 58.4273 112.821 146.708
   vertex 58.5108 113.766 146.715
   vertex 58.0305 113.413 147.218
  endloop
 endfacet
 facet normal 0.706607 -0.126403 0.696225
  outer loop
   vertex 58.0875 112.674 147.026
   vertex 58.4273 112.821 146.708
   vertex 58.0305 113.413 147.218
  endloop
 endfacet
 facet normal -0.759198 0.0479782 0.649088
  outer loop
   vertex 54.022 113.675 147.046
   vertex 54.1391 114.356 147.133
   vertex 53.7838 114.462 146.71
  endloop
 endfacet
 facet normal -0.805025 0.0101922 0.593153
  outer loop
   vertex 53.7464 113.551 146.675
   vertex 54.022 113.675 147.046
   vertex 53.7838 114.462 146.71
  endloop
 endfacet
 facet normal -0.373842 -0.354022 0.857269
  outer loop
   vertex 54.7202 114.468 147.59
   vertex 54.8371 113.617 147.29
   vertex 55.322 114.265 147.769
  endloop
 endfacet
 facet normal -0.538188 -0.34538 0.768808
  outer loop
   vertex 54.7202 114.468 147.59
   vertex 54.1391 114.356 147.133
   vertex 54.8371 113.617 147.29
  endloop
 endfacet
 facet normal -0.289955 -0.0714718 0.954368
  outer loop
   vertex 54.1391 114.356 147.133
   vertex 54.022 113.675 147.046
   vertex 54.8371 113.617 147.29
  endloop
 endfacet
 facet normal -0.158885 -0.507303 0.846994
  outer loop
   vertex 56.0017 113.4 147.378
   vertex 55.322 114.265 147.769
   vertex 54.8371 113.617 147.29
  endloop
 endfacet
 facet normal -0.164825 -0.51057 0.843891
  outer loop
   vertex 56.2278 114.094 147.842
   vertex 55.322 114.265 147.769
   vertex 56.0017 113.4 147.378
  endloop
 endfacet
 facet normal -0.214509 -0.493634 0.8428
  outer loop
   vertex 57.072 113.482 147.698
   vertex 56.2278 114.094 147.842
   vertex 56.0017 113.4 147.378
  endloop
 endfacet
 facet normal 0.672828 -0.0222545 0.739464
  outer loop
   vertex 58.0635 114.515 147.222
   vertex 57.4427 113.868 147.767
   vertex 58.0305 113.413 147.218
  endloop
 endfacet
 facet normal 0.617554 0.0679981 0.783584
  outer loop
   vertex 57.3884 114.621 147.744
   vertex 57.4427 113.868 147.767
   vertex 58.0635 114.515 147.222
  endloop
 endfacet
 facet normal 0.766347 0.0238474 0.641985
  outer loop
   vertex 58.5108 113.766 146.715
   vertex 58.5151 114.809 146.672
   vertex 58.0635 114.515 147.222
  endloop
 endfacet
 facet normal 0.731358 -0.0238417 0.681576
  outer loop
   vertex 58.0305 113.413 147.218
   vertex 58.5108 113.766 146.715
   vertex 58.0635 114.515 147.222
  endloop
 endfacet
 facet normal -0.695989 0.290173 0.656809
  outer loop
   vertex 53.7838 114.462 146.71
   vertex 54.1391 114.356 147.133
   vertex 54.1581 114.905 146.911
  endloop
 endfacet
 facet normal -0.54142 0.507202 0.67053
  outer loop
   vertex 54.698 115.433 146.958
   vertex 55.1521 114.864 147.755
   vertex 55.2211 115.522 147.313
  endloop
 endfacet
 facet normal -0.548283 0.500732 0.669815
  outer loop
   vertex 54.1581 114.905 146.911
   vertex 55.1521 114.864 147.755
   vertex 54.698 115.433 146.958
  endloop
 endfacet
 facet normal -0.597774 0.351183 0.72065
  outer loop
   vertex 54.1581 114.905 146.911
   vertex 54.7202 114.468 147.59
   vertex 55.1521 114.864 147.755
  endloop
 endfacet
 facet normal -0.623623 0.311958 0.716783
  outer loop
   vertex 54.1581 114.905 146.911
   vertex 54.1391 114.356 147.133
   vertex 54.7202 114.468 147.59
  endloop
 endfacet
 facet normal -0.537574 0.50831 0.672782
  outer loop
   vertex 55.1521 114.864 147.755
   vertex 55.7431 115.452 147.783
   vertex 55.2211 115.522 147.313
  endloop
 endfacet
 facet normal 0.305018 0.657991 0.688485
  outer loop
   vertex 57.2732 115.373 147.315
   vertex 56.1538 115.647 147.549
   vertex 56.9477 114.997 147.818
  endloop
 endfacet
 facet normal 0.52756 0.480936 0.700272
  outer loop
   vertex 57.3884 114.621 147.744
   vertex 57.2732 115.373 147.315
   vertex 56.9477 114.997 147.818
  endloop
 endfacet
 facet normal 0.586028 0.467802 0.661614
  outer loop
   vertex 57.3884 114.621 147.744
   vertex 58.0635 114.515 147.222
   vertex 57.2732 115.373 147.315
  endloop
 endfacet
 facet normal 0.424085 0.297613 0.855323
  outer loop
   vertex 58.0635 114.515 147.222
   vertex 58.0125 115.648 146.853
   vertex 57.2732 115.373 147.315
  endloop
 endfacet
 facet normal 0.609683 0.199731 0.767069
  outer loop
   vertex 58.5151 114.809 146.672
   vertex 58.4535 115.737 146.479
   vertex 58.0125 115.648 146.853
  endloop
 endfacet
 facet normal 0.675663 0.255584 0.691489
  outer loop
   vertex 58.0635 114.515 147.222
   vertex 58.5151 114.809 146.672
   vertex 58.0125 115.648 146.853
  endloop
 endfacet
 facet normal -0.445702 0.764348 0.465963
  outer loop
   vertex 54.698 115.433 146.958
   vertex 55.2211 115.522 147.313
   vertex 55.0436 115.777 146.724
  endloop
 endfacet
 facet normal -0.21547 0.902266 0.373483
  outer loop
   vertex 55.2211 115.522 147.313
   vertex 55.7431 115.452 147.783
   vertex 56.1538 115.647 147.549
  endloop
 endfacet
 facet normal -0.228556 0.866056 0.444645
  outer loop
   vertex 55.2211 115.522 147.313
   vertex 56.1538 115.647 147.549
   vertex 55.0436 115.777 146.724
  endloop
 endfacet
 facet normal -0.185355 0.901098 0.392001
  outer loop
   vertex 55.0436 115.777 146.724
   vertex 56.1538 115.647 147.549
   vertex 55.9982 115.968 146.738
  endloop
 endfacet
 facet normal 0.305858 0.682344 0.663971
  outer loop
   vertex 56.1538 115.647 147.549
   vertex 57.2732 115.373 147.315
   vertex 56.9755 115.953 146.856
  endloop
 endfacet
 facet normal -0.0311094 0.927393 0.372794
  outer loop
   vertex 56.1538 115.647 147.549
   vertex 56.9755 115.953 146.856
   vertex 55.9982 115.968 146.738
  endloop
 endfacet
 facet normal 0.199105 0.668899 0.716192
  outer loop
   vertex 58.0125 115.648 146.853
   vertex 56.9755 115.953 146.856
   vertex 57.2732 115.373 147.315
  endloop
 endfacet
 facet normal 0.313993 -0.449991 0.836012
  outer loop
   vertex 57.072 113.482 147.698
   vertex 57.4427 113.868 147.767
   vertex 56.9356 113.894 147.972
  endloop
 endfacet
 facet normal -0.304319 -0.0651748 0.950338
  outer loop
   vertex 55.322 114.265 147.769
   vertex 55.1521 114.864 147.755
   vertex 54.7202 114.468 147.59
  endloop
 endfacet
 facet normal -0.141729 -0.354491 0.924256
  outer loop
   vertex 55.322 114.265 147.769
   vertex 56.2278 114.094 147.842
   vertex 56.1146 114.529 147.991
  endloop
 endfacet
 facet normal -0.254296 -0.0506118 0.965801
  outer loop
   vertex 55.1521 114.864 147.755
   vertex 55.322 114.265 147.769
   vertex 56.1146 114.529 147.991
  endloop
 endfacet
 facet normal -0.303887 -0.593971 0.744883
  outer loop
   vertex 56.2278 114.094 147.842
   vertex 57.072 113.482 147.698
   vertex 56.9356 113.894 147.972
  endloop
 endfacet
 facet normal -0.268319 -0.374799 0.887429
  outer loop
   vertex 56.2278 114.094 147.842
   vertex 56.9356 113.894 147.972
   vertex 56.1146 114.529 147.991
  endloop
 endfacet
 facet normal 0.00472916 -0.0247645 0.999682
  outer loop
   vertex 56.1146 114.529 147.991
   vertex 56.9356 113.894 147.972
   vertex 56.9833 114.529 147.987
  endloop
 endfacet
 facet normal 0.502696 0.0620708 0.862232
  outer loop
   vertex 57.4427 113.868 147.767
   vertex 57.3884 114.621 147.744
   vertex 56.9833 114.529 147.987
  endloop
 endfacet
 facet normal 0.371681 -0.0505836 0.926981
  outer loop
   vertex 56.9356 113.894 147.972
   vertex 57.4427 113.868 147.767
   vertex 56.9833 114.529 147.987
  endloop
 endfacet
 facet normal -0.263934 0.220736 0.938943
  outer loop
   vertex 55.7431 115.452 147.783
   vertex 55.1521 114.864 147.755
   vertex 56.1671 115.231 147.954
  endloop
 endfacet
 facet normal -0.215341 0.0672686 0.974219
  outer loop
   vertex 56.1671 115.231 147.954
   vertex 55.1521 114.864 147.755
   vertex 56.1146 114.529 147.991
  endloop
 endfacet
 facet normal 0.317322 0.667045 0.674061
  outer loop
   vertex 56.9477 114.997 147.818
   vertex 56.1538 115.647 147.549
   vertex 56.1671 115.231 147.954
  endloop
 endfacet
 facet normal 0.260834 0.345421 0.901471
  outer loop
   vertex 56.9477 114.997 147.818
   vertex 56.1671 115.231 147.954
   vertex 56.9833 114.529 147.987
  endloop
 endfacet
 facet normal 0.00470731 0.0521084 0.99863
  outer loop
   vertex 56.9833 114.529 147.987
   vertex 56.1671 115.231 147.954
   vertex 56.1146 114.529 147.991
  endloop
 endfacet
 facet normal 0.426909 0.335714 0.839669
  outer loop
   vertex 57.3884 114.621 147.744
   vertex 56.9477 114.997 147.818
   vertex 56.9833 114.529 147.987
  endloop
 endfacet
 facet normal 0.0758048 0.697191 0.712866
  outer loop
   vertex 55.7431 115.452 147.783
   vertex 56.1671 115.231 147.954
   vertex 56.1538 115.647 147.549
  endloop
 endfacet
endsolid
