ply
format ascii 1.0
element vertex 114
property float x
property float y
property float z
property float nx
property float ny
property float nz
element face 38
property list uint uint vertex_indices
end_header
117.702 89.5271 156.622 -0.447008 -0.50196 -0.740419
117.714 89.3996 156.701 -0.447008 -0.50196 -0.740419
117.04 89.3989 157.108 -0.447008 -0.50196 -0.740419
117.714 89.3996 156.701 0.407653 -0.45666 -0.790747
117.702 89.5271 156.622 0.407653 -0.45666 -0.790747
118.378 89.4021 157.043 0.407653 -0.45666 -0.790747
117.702 89.5271 156.622 -0.364444 0.894081 -0.260385
117.04 89.3989 157.108 -0.364444 0.894081 -0.260385
117.705 89.5771 156.789 -0.364444 0.894081 -0.260385
118.378 89.4021 157.043 0.337624 0.900211 -0.27501
117.702 89.5271 156.622 0.337624 0.900211 -0.27501
117.705 89.5771 156.789 0.337624 0.900211 -0.27501
117.825 88.8185 157.148 -0.291468 -0.694126 -0.658206
117.872 88.5639 157.395 -0.291468 -0.694126 -0.658206
117.203 88.8326 157.408 -0.291468 -0.694126 -0.658206
117.825 88.8185 157.148 0.100299 -0.388415 -0.91601
118.615 88.8121 157.237 0.100299 -0.388415 -0.91601
118.509 88.5883 157.32 0.100299 -0.388415 -0.91601
117.872 88.5639 157.395 -0.0567274 -0.701261 -0.710644
117.825 88.8185 157.148 -0.0567274 -0.701261 -0.710644
118.509 88.5883 157.32 -0.0567274 -0.701261 -0.710644
118.509 88.5883 157.32 0.623294 -0.515173 -0.588304
118.615 88.8121 157.237 0.623294 -0.515173 -0.588304
118.744 88.7905 157.392 0.623294 -0.515173 -0.588304
117.04 89.3989 157.108 -0.859672 -0.12524 -0.495256
116.899 89.209 157.401 -0.859672 -0.12524 -0.495256
116.867 89.4807 157.388 -0.859672 -0.12524 -0.495256
117.203 88.8326 157.408 -0.606577 -0.501147 -0.617184
116.899 89.209 157.401 -0.606577 -0.501147 -0.617184
117.04 89.3989 157.108 -0.606577 -0.501147 -0.617184
117.825 88.8185 157.148 -0.341204 -0.514547 -0.786652
117.203 88.8326 157.408 -0.341204 -0.514547 -0.786652
117.04 89.3989 157.108 -0.341204 -0.514547 -0.786652
117.825 88.8185 157.148 -0.41206 -0.603324 -0.682793
117.04 89.3989 157.108 -0.41206 -0.603324 -0.682793
117.714 89.3996 156.701 -0.41206 -0.603324 -0.682793
118.378 89.4021 157.043 0.393941 -0.511513 -0.763652
117.825 88.8185 157.148 0.393941 -0.511513 -0.763652
117.714 89.3996 156.701 0.393941 -0.511513 -0.763652
118.378 89.4021 157.043 0.105773 -0.272815 -0.956234
118.615 88.8121 157.237 0.105773 -0.272815 -0.956234
117.825 88.8185 157.148 0.105773 -0.272815 -0.956234
118.734 89.3255 157.334 0.765053 -0.0548729 -0.641625
118.744 88.7905 157.392 0.765053 -0.0548729 -0.641625
118.615 88.8121 157.237 0.765053 -0.0548729 -0.641625
118.378 89.4021 157.043 0.634354 4.39945e-05 -0.773043
118.734 89.3255 157.334 0.634354 4.39945e-05 -0.773043
118.615 88.8121 157.237 0.634354 4.39945e-05 -0.773043
117.04 89.3989 157.108 -0.583964 0.606975 -0.539042
116.867 89.4807 157.388 -0.583964 0.606975 -0.539042
117.062 89.5738 157.282 -0.583964 0.606975 -0.539042
117.04 89.3989 157.108 -0.462759 0.652506 -0.600076
117.062 89.5738 157.282 -0.462759 0.652506 -0.600076
117.705 89.5771 156.789 -0.462759 0.652506 -0.600076
117.705 89.5771 156.789 -0.117527 0.982152 -0.146852
117.062 89.5738 157.282 -0.117527 0.982152 -0.146852
117.694 89.6513 157.294 -0.117527 0.982152 -0.146852
118.378 89.4021 157.043 0.385472 0.788411 -0.479394
117.705 89.5771 156.789 0.385472 0.788411 -0.479394
118.397 89.5653 157.326 0.385472 0.788411 -0.479394
118.397 89.5653 157.326 0.126602 0.981795 -0.141596
117.705 89.5771 156.789 0.126602 0.981795 -0.141596
117.694 89.6513 157.294 0.126602 0.981795 -0.141596
118.734 89.3255 157.334 0.525142 0.7221 -0.45033
118.378 89.4021 157.043 0.525142 0.7221 -0.45033
118.397 89.5653 157.326 0.525142 0.7221 -0.45033
117.872 88.5639 157.395 -0.316914 -0.813237 0.488068
117.855 88.7928 157.765 -0.316914 -0.813237 0.488068
117.203 88.8326 157.408 -0.316914 -0.813237 0.488068
117.872 88.5639 157.395 0.0776967 -0.930551 0.357823
118.509 88.5883 157.32 0.0776967 -0.930551 0.357823
118.504 88.6821 157.565 0.0776967 -0.930551 0.357823
117.855 88.7928 157.765 0.0172979 -0.850116 0.526311
117.872 88.5639 157.395 0.0172979 -0.850116 0.526311
118.504 88.6821 157.565 0.0172979 -0.850116 0.526311
118.509 88.5883 157.32 0.566717 -0.765688 0.304228
118.744 88.7905 157.392 0.566717 -0.765688 0.304228
118.504 88.6821 157.565 0.566717 -0.765688 0.304228
116.899 89.209 157.401 -0.479662 -0.0126706 0.877362
117.585 89.4047 157.779 -0.479662 -0.0126706 0.877362
116.867 89.4807 157.388 -0.479662 -0.0126706 0.877362
117.203 88.8326 157.408 -0.39277 -0.301049 0.868966
117.585 89.4047 157.779 -0.39277 -0.301049 0.868966
116.899 89.209 157.401 -0.39277 -0.301049 0.868966
117.203 88.8326 157.408 -0.478201 -0.230089 0.847575
117.855 88.7928 157.765 -0.478201 -0.230089 0.847575
117.585 89.4047 157.779 -0.478201 -0.230089 0.847575
117.585 89.4047 157.779 0.0771078 0.0115746 0.996956
117.855 88.7928 157.765 0.0771078 0.0115746 0.996956
118.524 89.2703 157.708 0.0771078 0.0115746 0.996956
117.855 88.7928 157.765 0.249193 -0.23652 0.939128
118.504 88.6821 157.565 0.249193 -0.23652 0.939128
118.524 89.2703 157.708 0.249193 -0.23652 0.939128
118.744 88.7905 157.392 0.866013 0.0701299 0.49508
118.734 89.3255 157.334 0.866013 0.0701299 0.49508
118.524 89.2703 157.708 0.866013 0.0701299 0.49508
118.504 88.6821 157.565 0.632694 -0.202956 0.747333
118.744 88.7905 157.392 0.632694 -0.202956 0.747333
118.524 89.2703 157.708 0.632694 -0.202956 0.747333
116.867 89.4807 157.388 -0.162242 0.869593 0.466354
117.585 89.4047 157.779 -0.162242 0.869593 0.466354
117.062 89.5738 157.282 -0.162242 0.869593 0.466354
117.062 89.5738 157.282 -0.11815 0.895642 0.428797
117.585 89.4047 157.779 -0.11815 0.895642 0.428797
117.694 89.6513 157.294 -0.11815 0.895642 0.428797
117.585 89.4047 157.779 0.158548 0.806437 0.569668
118.524 89.2703 157.708 0.158548 0.806437 0.569668
118.397 89.5653 157.326 0.158548 0.806437 0.569668
117.585 89.4047 157.779 0.0866976 0.87997 0.467051
118.397 89.5653 157.326 0.0866976 0.87997 0.467051
117.694 89.6513 157.294 0.0866976 0.87997 0.467051
118.734 89.3255 157.334 0.524202 0.749644 0.404037
118.397 89.5653 157.326 0.524202 0.749644 0.404037
118.524 89.2703 157.708 0.524202 0.749644 0.404037
3 0 1 2
3 3 4 5
3 6 7 8
3 9 10 11
3 12 13 14
3 15 16 17
3 18 19 20
3 21 22 23
3 24 25 26
3 27 28 29
3 30 31 32
3 33 34 35
3 36 37 38
3 39 40 41
3 42 43 44
3 45 46 47
3 48 49 50
3 51 52 53
3 54 55 56
3 57 58 59
3 60 61 62
3 63 64 65
3 66 67 68
3 69 70 71
3 72 73 74
3 75 76 77
3 78 79 80
3 81 82 83
3 84 85 86
3 87 88 89
3 90 91 92
3 93 94 95
3 96 97 98
3 99 100 101
3 102 103 104
3 105 106 107
3 108 109 110
3 111 112 113
