ply
format ascii 1.0
element vertex 150
property float x
property float y
property float z
property float nx
property float ny
property float nz
element face 50
property list uint uint vertex_indices
end_header
69.6036 85.6234 157.282 -0.364187 -0.657014 -0.660076
69.5127 85.3695 157.584 -0.364187 -0.657014 -0.660076
69.2158 85.6956 157.424 -0.364187 -0.657014 -0.660076
69.6036 85.6234 157.282 0.0501507 -0.300843 -0.952354
70.2437 85.6456 157.308 0.0501507 -0.300843 -0.952354
70.1327 85.2263 157.435 0.0501507 -0.300843 -0.952354
69.5127 85.3695 157.584 -0.316657 -0.677976 -0.663383
69.6036 85.6234 157.282 -0.316657 -0.677976 -0.663383
70.1327 85.2263 157.435 -0.316657 -0.677976 -0.663383
70.1327 85.2263 157.435 0.749605 -0.365239 -0.551989
70.2437 85.6456 157.308 0.749605 -0.365239 -0.551989
70.3584 85.4933 157.565 0.749605 -0.365239 -0.551989
69.347 86.3314 157.238 -0.368656 -0.189768 -0.90999
69.6036 85.6234 157.282 -0.368656 -0.189768 -0.90999
69.2158 85.6956 157.424 -0.368656 -0.189768 -0.90999
68.8348 86.441 157.5 -0.47561 -0.15482 -0.865925
69.347 86.3314 157.238 -0.47561 -0.15482 -0.865925
69.2158 85.6956 157.424 -0.47561 -0.15482 -0.865925
70.2437 85.6456 157.308 0.0425211 -0.0247269 -0.99879
69.6036 85.6234 157.282 0.0425211 -0.0247269 -0.99879
70.0646 86.4758 157.28 0.0425211 -0.0247269 -0.99879
70.0646 86.4758 157.28 0.0662525 -0.0375564 -0.997096
69.6036 85.6234 157.282 0.0662525 -0.0375564 -0.997096
69.347 86.3314 157.238 0.0662525 -0.0375564 -0.997096
70.3816 86.2305 157.54 0.902429 -0.0424926 -0.428738
70.3584 85.4933 157.565 0.902429 -0.0424926 -0.428738
70.2437 85.6456 157.308 0.902429 -0.0424926 -0.428738
70.0646 86.4758 157.28 0.685088 0.123484 -0.717918
70.3816 86.2305 157.54 0.685088 0.123484 -0.717918
70.2437 85.6456 157.308 0.685088 0.123484 -0.717918
69.3956 87.0581 157.303 -0.433659 0.109282 -0.894425
69.347 86.3314 157.238 -0.433659 0.109282 -0.894425
68.8348 86.441 157.5 -0.433659 0.109282 -0.894425
69.2667 87.2281 157.608 -0.697564 0.458682 -0.550468
69.3956 87.0581 157.303 -0.697564 0.458682 -0.550468
68.8348 86.441 157.5 -0.697564 0.458682 -0.550468
69.8164 87.2466 157.442 0.546765 0.337305 -0.766337
70.221 86.9595 157.605 0.546765 0.337305 -0.766337
70.0646 86.4758 157.28 0.546765 0.337305 -0.766337
69.8164 87.2466 157.442 0.195359 0.261765 -0.945153
70.0646 86.4758 157.28 0.195359 0.261765 -0.945153
69.3956 87.0581 157.303 0.195359 0.261765 -0.945153
69.3956 87.0581 157.303 0.0411657 0.0866039 -0.995392
70.0646 86.4758 157.28 0.0411657 0.0866039 -0.995392
69.347 86.3314 157.238 0.0411657 0.0866039 -0.995392
70.3816 86.2305 157.54 0.714011 0.215912 -0.666011
70.0646 86.4758 157.28 0.714011 0.215912 -0.666011
70.221 86.9595 157.605 0.714011 0.215912 -0.666011
69.8164 87.2466 157.442 -0.189926 0.821269 -0.538002
69.3956 87.0581 157.303 -0.189926 0.821269 -0.538002
69.2667 87.2281 157.608 -0.189926 0.821269 -0.538002
69.5127 85.3695 157.584 -0.584266 -0.804265 0.108582
69.5561 85.4227 158.212 -0.584266 -0.804265 0.108582
69.1872 85.6694 158.054 -0.584266 -0.804265 0.108582
69.2158 85.6956 157.424 -0.722846 -0.688276 -0.0613999
69.5127 85.3695 157.584 -0.722846 -0.688276 -0.0613999
69.1872 85.6694 158.054 -0.722846 -0.688276 -0.0613999
70.1327 85.2263 157.435 -0.225625 -0.974212 -0.00230387
70.1241 85.2269 157.997 -0.225625 -0.974212 -0.00230387
69.5127 85.3695 157.584 -0.225625 -0.974212 -0.00230387
69.5127 85.3695 157.584 -0.289995 -0.951711 0.100745
70.1241 85.2269 157.997 -0.289995 -0.951711 0.100745
69.5561 85.4227 158.212 -0.289995 -0.951711 0.100745
70.1241 85.2269 157.997 0.760653 -0.649042 0.012301
70.1327 85.2263 157.435 0.760653 -0.649042 0.012301
70.3584 85.4933 157.565 0.760653 -0.649042 0.012301
70.1946 85.6806 158.289 0.900909 -0.324835 0.287827
70.1241 85.2269 157.997 0.900909 -0.324835 0.287827
70.3584 85.4933 157.565 0.900909 -0.324835 0.287827
69.2158 85.6956 157.424 -0.891289 -0.449564 -0.0591237
69.1872 85.6694 158.054 -0.891289 -0.449564 -0.0591237
68.8348 86.441 157.5 -0.891289 -0.449564 -0.0591237
69.1872 85.6694 158.054 -0.935464 -0.321191 0.147456
68.9332 86.4725 158.192 -0.935464 -0.321191 0.147456
68.8348 86.441 157.5 -0.935464 -0.321191 0.147456
70.3584 85.4933 157.565 0.973792 -0.023079 0.226265
70.3816 86.2305 157.54 0.973792 -0.023079 0.226265
70.1946 85.6806 158.289 0.973792 -0.023079 0.226265
70.1946 85.6806 158.289 0.977155 -0.181371 0.110785
70.3816 86.2305 157.54 0.977155 -0.181371 0.110785
70.3555 86.4667 158.157 0.977155 -0.181371 0.110785
68.8348 86.441 157.5 -0.877934 0.46746 0.103504
68.9332 86.4725 158.192 -0.877934 0.46746 0.103504
69.2667 87.2281 157.608 -0.877934 0.46746 0.103504
68.9332 86.4725 158.192 -0.894773 0.44229 0.0613178
69.2926 87.1914 158.251 -0.894773 0.44229 0.0613178
69.2667 87.2281 157.608 -0.894773 0.44229 0.0613178
70.221 86.9595 157.605 0.562948 0.82304 0.0754663
69.6299 87.3227 158.052 0.562948 0.82304 0.0754663
70.1382 86.9582 158.236 0.562948 0.82304 0.0754663
69.8164 87.2466 157.442 0.55913 0.826305 0.0677729
69.6299 87.3227 158.052 0.55913 0.826305 0.0677729
70.221 86.9595 157.605 0.55913 0.826305 0.0677729
70.3555 86.4667 158.157 0.97491 0.218509 -0.0424874
70.3816 86.2305 157.54 0.97491 0.218509 -0.0424874
70.221 86.9595 157.605 0.97491 0.218509 -0.0424874
70.1382 86.9582 158.236 0.914902 0.385202 0.120725
70.3555 86.4667 158.157 0.914902 0.385202 0.120725
70.221 86.9595 157.605 0.914902 0.385202 0.120725
69.6299 87.3227 158.052 -0.0773869 0.98613 -0.146832
69.8164 87.2466 157.442 -0.0773869 0.98613 -0.146832
69.2667 87.2281 157.608 -0.0773869 0.98613 -0.146832
69.2926 87.1914 158.251 -0.327412 0.942498 0.0670805
69.6299 87.3227 158.052 -0.327412 0.942498 0.0670805
69.2667 87.2281 157.608 -0.327412 0.942498 0.0670805
69.5561 85.4227 158.212 -0.616652 -0.585571 0.526163
69.4507 85.7848 158.492 -0.616652 -0.585571 0.526163
69.1872 85.6694 158.054 -0.616652 -0.585571 0.526163
69.5561 85.4227 158.212 0.122995 -0.549589 0.826331
70.1241 85.2269 157.997 0.122995 -0.549589 0.826331
70.1946 85.6806 158.289 0.122995 -0.549589 0.826331
69.4507 85.7848 158.492 0.137939 -0.579703 0.803067
69.5561 85.4227 158.212 0.137939 -0.579703 0.803067
70.1946 85.6806 158.289 0.137939 -0.579703 0.803067
69.4507 85.7848 158.492 -0.661854 -0.181236 0.727395
69.378 86.5663 158.62 -0.661854 -0.181236 0.727395
68.9332 86.4725 158.192 -0.661854 -0.181236 0.727395
69.1872 85.6694 158.054 -0.764788 -0.336148 0.54964
69.4507 85.7848 158.492 -0.764788 -0.336148 0.54964
68.9332 86.4725 158.192 -0.764788 -0.336148 0.54964
70.1946 85.6806 158.289 0.21297 -0.294556 0.931601
70.0555 86.4324 158.558 0.21297 -0.294556 0.931601
69.4507 85.7848 158.492 0.21297 -0.294556 0.931601
70.0555 86.4324 158.558 0.0592543 -0.156602 0.985883
69.378 86.5663 158.62 0.0592543 -0.156602 0.985883
69.4507 85.7848 158.492 0.0592543 -0.156602 0.985883
70.1946 85.6806 158.289 0.801679 -0.0646359 0.59425
70.3555 86.4667 158.157 0.801679 -0.0646359 0.59425
70.0555 86.4324 158.558 0.801679 -0.0646359 0.59425
69.378 86.5663 158.62 -0.341633 0.443014 0.82887
69.5664 87.1417 158.39 -0.341633 0.443014 0.82887
69.2926 87.1914 158.251 -0.341633 0.443014 0.82887
68.9332 86.4725 158.192 -0.694344 0.293354 0.657137
69.378 86.5663 158.62 -0.694344 0.293354 0.657137
69.2926 87.1914 158.251 -0.694344 0.293354 0.657137
70.1382 86.9582 158.236 0.383678 0.782332 0.49066
69.6299 87.3227 158.052 0.383678 0.782332 0.49066
69.5664 87.1417 158.39 0.383678 0.782332 0.49066
70.1382 86.9582 158.236 0.363984 0.444743 0.818364
69.5664 87.1417 158.39 0.363984 0.444743 0.818364
70.0555 86.4324 158.558 0.363984 0.444743 0.818364
70.0555 86.4324 158.558 0.14952 0.324237 0.934085
69.5664 87.1417 158.39 0.14952 0.324237 0.934085
69.378 86.5663 158.62 0.14952 0.324237 0.934085
70.3555 86.4667 158.157 0.766395 0.243932 0.594252
70.1382 86.9582 158.236 0.766395 0.243932 0.594252
70.0555 86.4324 158.558 0.766395 0.243932 0.594252
69.6299 87.3227 158.052 -0.0734465 0.885001 0.459759
69.2926 87.1914 158.251 -0.0734465 0.885001 0.459759
69.5664 87.1417 158.39 -0.0734465 0.885001 0.459759
3 0 1 2
3 3 4 5
3 6 7 8
3 9 10 11
3 12 13 14
3 15 16 17
3 18 19 20
3 21 22 23
3 24 25 26
3 27 28 29
3 30 31 32
3 33 34 35
3 36 37 38
3 39 40 41
3 42 43 44
3 45 46 47
3 48 49 50
3 51 52 53
3 54 55 56
3 57 58 59
3 60 61 62
3 63 64 65
3 66 67 68
3 69 70 71
3 72 73 74
3 75 76 77
3 78 79 80
3 81 82 83
3 84 85 86
3 87 88 89
3 90 91 92
3 93 94 95
3 96 97 98
3 99 100 101
3 102 103 104
3 105 106 107
3 108 109 110
3 111 112 113
3 114 115 116
3 117 118 119
3 120 121 122
3 123 124 125
3 126 127 128
3 129 130 131
3 132 133 134
3 135 136 137
3 138 139 140
3 141 142 143
3 144 145 146
3 147 148 149
