ply
format ascii 1.0
element vertex 846
property float x
property float y
property float z
property float nx
property float ny
property float nz
element face 282
property list uint uint vertex_indices
end_header
121.719 168.799 150.613 -0.349979 -0.499563 -0.792434
121.808 169.182 150.332 -0.349979 -0.499563 -0.792434
122.121 168.925 150.355 -0.349979 -0.499563 -0.792434
121.698 170.067 150.17 -0.4221 -0.213569 -0.881033
122.27 170.002 149.912 -0.4221 -0.213569 -0.881033
121.808 169.182 150.332 -0.4221 -0.213569 -0.881033
122.419 169.614 150.227 -0.056183 -0.159108 -0.985661
122.121 168.925 150.355 -0.056183 -0.159108 -0.985661
121.808 169.182 150.332 -0.056183 -0.159108 -0.985661
122.27 170.002 149.912 0.2524 -0.550089 -0.79605
122.419 169.614 150.227 0.2524 -0.550089 -0.79605
121.808 169.182 150.332 0.2524 -0.550089 -0.79605
122.133 170.759 149.807 -0.422004 -0.198542 -0.884587
122.27 170.002 149.912 -0.422004 -0.198542 -0.884587
121.698 170.067 150.17 -0.422004 -0.198542 -0.884587
121.617 171.063 150.147 -0.575395 -0.0659689 -0.81521
122.133 170.759 149.807 -0.575395 -0.0659689 -0.81521
121.698 170.067 150.17 -0.575395 -0.0659689 -0.81521
122.951 170.355 150.102 0.449713 -0.452758 -0.769914
122.419 169.614 150.227 0.449713 -0.452758 -0.769914
122.27 170.002 149.912 0.449713 -0.452758 -0.769914
122.951 170.355 150.102 0.387601 -0.2729 -0.880506
122.27 170.002 149.912 0.387601 -0.2729 -0.880506
122.866 170.918 149.89 0.387601 -0.2729 -0.880506
122.866 170.918 149.89 0.135343 -0.111227 -0.984536
122.27 170.002 149.912 0.135343 -0.111227 -0.984536
122.133 170.759 149.807 0.135343 -0.111227 -0.984536
122.951 170.355 150.102 0.713291 -0.150208 -0.684583
122.866 170.918 149.89 0.713291 -0.150208 -0.684583
123.281 170.737 150.363 0.713291 -0.150208 -0.684583
122.194 171.793 149.831 -0.52802 0.0507375 -0.847715
122.133 170.759 149.807 -0.52802 0.0507375 -0.847715
121.617 171.063 150.147 -0.52802 0.0507375 -0.847715
121.61 172.117 150.185 -0.507122 0.0283096 -0.861409
122.194 171.793 149.831 -0.507122 0.0283096 -0.861409
121.617 171.063 150.147 -0.507122 0.0283096 -0.861409
122.689 171.793 150.06 0.580569 0.266584 -0.769333
123.137 171.311 150.23 0.580569 0.266584 -0.769333
122.866 170.918 149.89 0.580569 0.266584 -0.769333
122.689 171.793 150.06 0.405496 0.252316 -0.878584
122.866 170.918 149.89 0.405496 0.252316 -0.878584
122.194 171.793 149.831 0.405496 0.252316 -0.878584
122.194 171.793 149.831 0.108648 0.016375 -0.993945
122.866 170.918 149.89 0.108648 0.016375 -0.993945
122.133 170.759 149.807 0.108648 0.016375 -0.993945
123.281 170.737 150.363 0.75826 0.0409828 -0.650663
122.866 170.918 149.89 0.75826 0.0409828 -0.650663
123.137 171.311 150.23 0.75826 0.0409828 -0.650663
122.24 172.98 149.897 -0.489984 0.0675399 -0.869111
122.194 171.793 149.831 -0.489984 0.0675399 -0.869111
121.61 172.117 150.185 -0.489984 0.0675399 -0.869111
121.717 173.13 150.186 -0.471436 0.0501996 -0.88047
122.24 172.98 149.897 -0.471436 0.0501996 -0.88047
121.61 172.117 150.185 -0.471436 0.0501996 -0.88047
122.601 172.677 150.103 0.417702 0.0856116 -0.904542
122.689 171.793 150.06 0.417702 0.0856116 -0.904542
122.194 171.793 149.831 0.417702 0.0856116 -0.904542
122.24 172.98 149.897 0.512251 0.0278977 -0.858382
122.601 172.677 150.103 0.512251 0.0278977 -0.858382
122.194 171.793 149.831 0.512251 0.0278977 -0.858382
122.163 173.788 149.98 -0.472651 0.0452347 -0.880088
122.24 172.98 149.897 -0.472651 0.0452347 -0.880088
121.717 173.13 150.186 -0.472651 0.0452347 -0.880088
121.879 173.876 150.162 -0.518423 0.0853589 -0.850854
122.163 173.788 149.98 -0.518423 0.0853589 -0.850854
121.717 173.13 150.186 -0.518423 0.0853589 -0.850854
122.972 173.515 150.086 0.367318 -0.181607 -0.912193
122.601 172.677 150.103 0.367318 -0.181607 -0.912193
122.24 172.98 149.897 0.367318 -0.181607 -0.912193
122.972 173.515 150.086 0.341431 -0.14014 -0.929401
122.24 172.98 149.897 0.341431 -0.14014 -0.929401
122.861 173.95 149.979 0.341431 -0.14014 -0.929401
122.861 173.95 149.979 -0.0252465 0.0998209 -0.994685
122.24 172.98 149.897 -0.0252465 0.0998209 -0.994685
122.163 173.788 149.98 -0.0252465 0.0998209 -0.994685
122.972 173.515 150.086 0.583366 -0.049114 -0.810723
122.861 173.95 149.979 0.583366 -0.049114 -0.810723
123.337 173.958 150.321 0.583366 -0.049114 -0.810723
122.163 173.788 149.98 -0.428053 0.344969 -0.835324
121.879 173.876 150.162 -0.428053 0.344969 -0.835324
122.199 174.451 150.235 -0.428053 0.344969 -0.835324
122.861 173.95 149.979 -0.0859677 0.361884 -0.928251
122.163 173.788 149.98 -0.0859677 0.361884 -0.928251
122.199 174.451 150.235 -0.0859677 0.361884 -0.928251
123.03 174.586 150.079 -0.213326 0.206947 -0.954811
122.861 173.95 149.979 -0.213326 0.206947 -0.954811
122.199 174.451 150.235 -0.213326 0.206947 -0.954811
123.337 173.958 150.321 0.583621 -0.0280524 -0.811542
122.861 173.95 149.979 0.583621 -0.0280524 -0.811542
123.03 174.586 150.079 0.583621 -0.0280524 -0.811542
120.586 169.149 152.184 -0.814708 -0.207654 -0.541415
121.808 169.182 150.332 -0.814708 -0.207654 -0.541415
121.719 168.799 150.613 -0.814708 -0.207654 -0.541415
120.586 169.149 152.184 -0.816465 -0.177922 -0.549298
121.719 168.799 150.613 -0.816465 -0.177922 -0.549298
121.184 168.733 151.429 -0.816465 -0.177922 -0.549298
121.184 168.733 151.429 -0.0181623 -0.995591 -0.0920251
121.719 168.799 150.613 -0.0181623 -0.995591 -0.0920251
121.96 168.758 151.008 -0.0181623 -0.995591 -0.0920251
121.96 168.758 151.008 0.171532 -0.963714 -0.204528
121.719 168.799 150.613 0.171532 -0.963714 -0.204528
122.121 168.925 150.355 0.171532 -0.963714 -0.204528
122.401 169.109 151.123 0.629037 -0.776145 -0.0437191
121.96 168.758 151.008 0.629037 -0.776145 -0.0437191
122.121 168.925 150.355 0.629037 -0.776145 -0.0437191
121.808 169.182 150.332 -0.689006 -0.212092 -0.693028
120.793 169.939 151.109 -0.689006 -0.212092 -0.693028
121.698 170.067 150.17 -0.689006 -0.212092 -0.693028
120.586 169.149 152.184 -0.730285 -0.475435 -0.490556
120.793 169.939 151.109 -0.730285 -0.475435 -0.490556
121.808 169.182 150.332 -0.730285 -0.475435 -0.490556
122.401 169.109 151.123 0.625392 -0.685076 -0.373571
122.419 169.614 150.227 0.625392 -0.685076 -0.373571
122.989 169.89 150.676 0.625392 -0.685076 -0.373571
122.401 169.109 151.123 0.879591 -0.421816 -0.21998
122.121 168.925 150.355 0.879591 -0.421816 -0.21998
122.419 169.614 150.227 0.879591 -0.421816 -0.21998
122.401 169.109 151.123 0.727866 -0.658242 -0.19217
122.989 169.89 150.676 0.727866 -0.658242 -0.19217
123.149 169.958 151.048 0.727866 -0.658242 -0.19217
120.562 170.923 151.207 -0.731214 -0.104834 -0.674044
121.061 170.754 150.692 -0.731214 -0.104834 -0.674044
120.793 169.939 151.109 -0.731214 -0.104834 -0.674044
121.698 170.067 150.17 -0.677371 -0.0723791 -0.732072
121.061 170.754 150.692 -0.677371 -0.0723791 -0.732072
121.617 171.063 150.147 -0.677371 -0.0723791 -0.732072
120.793 169.939 151.109 -0.705757 -0.125132 -0.697316
121.061 170.754 150.692 -0.705757 -0.125132 -0.697316
121.698 170.067 150.17 -0.705757 -0.125132 -0.697316
122.419 169.614 150.227 0.662597 -0.559582 -0.497829
122.951 170.355 150.102 0.662597 -0.559582 -0.497829
122.989 169.89 150.676 0.662597 -0.559582 -0.497829
122.989 169.89 150.676 0.81029 -0.427628 -0.400704
122.951 170.355 150.102 0.81029 -0.427628 -0.400704
123.281 170.737 150.363 0.81029 -0.427628 -0.400704
122.989 169.89 150.676 0.863817 -0.407509 -0.296238
123.281 170.737 150.363 0.863817 -0.407509 -0.296238
123.149 169.958 151.048 0.863817 -0.407509 -0.296238
123.149 169.958 151.048 0.966004 -0.242711 -0.0890344
123.281 170.737 150.363 0.966004 -0.242711 -0.0890344
123.351 170.712 151.185 0.966004 -0.242711 -0.0890344
120.78 171.783 150.991 -0.716936 0.00728852 -0.697101
121.061 170.754 150.692 -0.716936 0.00728852 -0.697101
120.562 170.923 151.207 -0.716936 0.00728852 -0.697101
121.617 171.063 150.147 -0.700912 0.021621 -0.71292
120.78 171.783 150.991 -0.700912 0.021621 -0.71292
121.61 172.117 150.185 -0.700912 0.021621 -0.71292
121.061 170.754 150.692 -0.70405 0.0145574 -0.710001
120.78 171.783 150.991 -0.70405 0.0145574 -0.710001
121.617 171.063 150.147 -0.70405 0.0145574 -0.710001
123.137 171.311 150.23 0.640982 0.353796 -0.681154
122.689 171.793 150.06 0.640982 0.353796 -0.681154
123.109 172.098 150.613 0.640982 0.353796 -0.681154
123.137 171.311 150.23 0.918799 0.19825 -0.34133
123.109 172.098 150.613 0.918799 0.19825 -0.34133
123.369 171.633 151.044 0.918799 0.19825 -0.34133
123.137 171.311 150.23 0.930845 0.15873 -0.329139
123.369 171.633 151.044 0.930845 0.15873 -0.329139
123.281 170.737 150.363 0.930845 0.15873 -0.329139
123.281 170.737 150.363 0.995817 -0.0332315 -0.085117
123.369 171.633 151.044 0.995817 -0.0332315 -0.085117
123.351 170.712 151.185 0.995817 -0.0332315 -0.085117
121.61 172.117 150.185 -0.702462 0.074381 -0.707824
120.953 172.893 150.919 -0.702462 0.074381 -0.707824
121.717 173.13 150.186 -0.702462 0.074381 -0.707824
120.78 171.783 150.991 -0.708419 0.0646127 -0.702828
120.953 172.893 150.919 -0.708419 0.0646127 -0.702828
121.61 172.117 150.185 -0.708419 0.0646127 -0.702828
123.109 172.098 150.613 0.668059 -0.0674926 -0.741041
122.601 172.677 150.103 0.668059 -0.0674926 -0.741041
123.138 173.0 150.557 0.668059 -0.0674926 -0.741041
122.689 171.793 150.06 0.762843 0.106858 -0.637692
122.601 172.677 150.103 0.762843 0.106858 -0.637692
123.109 172.098 150.613 0.762843 0.106858 -0.637692
123.449 172.83 151.087 0.837321 -0.036081 -0.54552
123.369 171.633 151.044 0.837321 -0.036081 -0.54552
123.109 172.098 150.613 0.837321 -0.036081 -0.54552
123.138 173.0 150.557 0.852232 -0.0596609 -0.519751
123.449 172.83 151.087 0.852232 -0.0596609 -0.519751
123.109 172.098 150.613 0.852232 -0.0596609 -0.519751
120.91 173.582 151.246 -0.810403 0.208763 -0.547416
121.305 173.797 150.743 -0.810403 0.208763 -0.547416
120.953 172.893 150.919 -0.810403 0.208763 -0.547416
121.717 173.13 150.186 -0.714095 0.132994 -0.6873
121.305 173.797 150.743 -0.714095 0.132994 -0.6873
121.879 173.876 150.162 -0.714095 0.132994 -0.6873
120.953 172.893 150.919 -0.707948 0.140789 -0.692089
121.305 173.797 150.743 -0.707948 0.140789 -0.692089
121.717 173.13 150.186 -0.707948 0.140789 -0.692089
122.601 172.677 150.103 0.717734 -0.330829 -0.612707
122.972 173.515 150.086 0.717734 -0.330829 -0.612707
123.138 173.0 150.557 0.717734 -0.330829 -0.612707
123.138 173.0 150.557 0.747994 -0.301481 -0.591282
122.972 173.515 150.086 0.747994 -0.301481 -0.591282
123.337 173.958 150.321 0.747994 -0.301481 -0.591282
123.138 173.0 150.557 0.778119 -0.298271 -0.55278
123.337 173.958 150.321 0.778119 -0.298271 -0.55278
123.449 172.83 151.087 0.778119 -0.298271 -0.55278
123.449 172.83 151.087 0.885544 -0.197824 -0.420331
123.337 173.958 150.321 0.885544 -0.197824 -0.420331
123.698 173.791 151.158 0.885544 -0.197824 -0.420331
121.305 173.797 150.743 -0.694456 0.671376 -0.258815
120.91 173.582 151.246 -0.694456 0.671376 -0.258815
121.436 174.102 151.182 -0.694456 0.671376 -0.258815
122.254 174.955 150.776 -0.752799 0.627471 -0.198932
121.436 174.102 151.182 -0.752799 0.627471 -0.198932
122.036 174.811 151.149 -0.752799 0.627471 -0.198932
122.199 174.451 150.235 -0.747711 0.521886 -0.410566
121.436 174.102 151.182 -0.747711 0.521886 -0.410566
122.254 174.955 150.776 -0.747711 0.521886 -0.410566
122.199 174.451 150.235 -0.665211 0.691524 -0.281583
121.305 173.797 150.743 -0.665211 0.691524 -0.281583
121.436 174.102 151.182 -0.665211 0.691524 -0.281583
122.199 174.451 150.235 -0.665971 0.447467 -0.596872
121.879 173.876 150.162 -0.665971 0.447467 -0.596872
121.305 173.797 150.743 -0.665971 0.447467 -0.596872
122.199 174.451 150.235 -0.240908 0.590032 -0.7706
123.267 174.985 150.311 -0.240908 0.590032 -0.7706
123.03 174.586 150.079 -0.240908 0.590032 -0.7706
122.254 174.955 150.776 -0.311231 0.710694 -0.630911
123.267 174.985 150.311 -0.311231 0.710694 -0.630911
122.199 174.451 150.235 -0.311231 0.710694 -0.630911
124.09 174.581 151.007 0.775004 -0.466433 -0.426391
123.698 173.791 151.158 0.775004 -0.466433 -0.426391
123.337 173.958 150.321 0.775004 -0.466433 -0.426391
124.09 174.581 151.007 0.655905 0.0374936 -0.753912
123.337 173.958 150.321 0.655905 0.0374936 -0.753912
123.267 174.985 150.311 0.655905 0.0374936 -0.753912
124.09 174.581 151.007 0.349341 -0.569944 -0.743724
123.267 174.985 150.311 0.349341 -0.569944 -0.743724
124.246 175.204 150.603 0.349341 -0.569944 -0.743724
123.267 174.985 150.311 0.666351 0.0383103 -0.744653
123.337 173.958 150.321 0.666351 0.0383103 -0.744653
123.03 174.586 150.079 0.666351 0.0383103 -0.744653
124.09 174.581 151.007 0.672179 -0.51419 -0.532714
124.246 175.204 150.603 0.672179 -0.51419 -0.532714
124.58 175.014 151.207 0.672179 -0.51419 -0.532714
122.254 174.955 150.776 -0.849598 0.400171 -0.343579
122.036 174.811 151.149 -0.849598 0.400171 -0.343579
122.306 175.262 151.007 -0.849598 0.400171 -0.343579
122.306 175.262 151.007 -0.618454 0.592195 -0.516546
122.703 175.942 151.31 -0.618454 0.592195 -0.516546
123.047 175.741 150.668 -0.618454 0.592195 -0.516546
122.306 175.262 151.007 -0.612142 0.537777 -0.579723
123.047 175.741 150.668 -0.612142 0.537777 -0.579723
122.254 174.955 150.776 -0.612142 0.537777 -0.579723
122.254 174.955 150.776 -0.406572 0.291277 -0.865943
123.047 175.741 150.668 -0.406572 0.291277 -0.865943
123.267 174.985 150.311 -0.406572 0.291277 -0.865943
124.246 175.204 150.603 0.261144 0.111926 -0.958789
123.267 174.985 150.311 0.261144 0.111926 -0.958789
124.031 175.902 150.626 0.261144 0.111926 -0.958789
124.031 175.902 150.626 -0.104251 0.399996 -0.910568
123.267 174.985 150.311 -0.104251 0.399996 -0.910568
123.047 175.741 150.668 -0.104251 0.399996 -0.910568
124.88 175.954 151.232 0.813691 -0.246401 -0.526492
124.58 175.014 151.207 0.813691 -0.246401 -0.526492
124.246 175.204 150.603 0.813691 -0.246401 -0.526492
124.031 175.902 150.626 0.561219 0.199088 -0.803366
124.88 175.954 151.232 0.561219 0.199088 -0.803366
124.246 175.204 150.603 0.561219 0.199088 -0.803366
123.047 175.741 150.668 -0.493065 0.719475 -0.489125
122.703 175.942 151.31 -0.493065 0.719475 -0.489125
123.44 176.305 151.101 -0.493065 0.719475 -0.489125
124.031 175.902 150.626 -0.139791 0.662843 -0.735594
123.047 175.741 150.668 -0.139791 0.662843 -0.735594
123.44 176.305 151.101 -0.139791 0.662843 -0.735594
124.28 176.589 151.166 -0.160437 0.645562 -0.746666
124.031 175.902 150.626 -0.160437 0.645562 -0.746666
123.44 176.305 151.101 -0.160437 0.645562 -0.746666
124.88 175.954 151.232 0.513719 0.40798 -0.754749
124.031 175.902 150.626 0.513719 0.40798 -0.754749
124.28 176.589 151.166 0.513719 0.40798 -0.754749
120.586 169.149 152.184 -0.820851 -0.244279 -0.516266
121.184 168.733 151.429 -0.820851 -0.244279 -0.516266
120.668 168.748 152.242 -0.820851 -0.244279 -0.516266
120.668 168.748 152.242 -0.0856044 -0.995677 -0.0360325
121.184 168.733 151.429 -0.0856044 -0.995677 -0.0360325
121.295 168.693 152.288 -0.0856044 -0.995677 -0.0360325
121.96 168.758 151.008 0.016385 -0.999459 -0.0285241
121.929 168.732 151.9 0.016385 -0.999459 -0.0285241
121.184 168.733 151.429 0.016385 -0.999459 -0.0285241
121.184 168.733 151.429 0.0306624 -0.998222 -0.0511172
121.929 168.732 151.9 0.0306624 -0.998222 -0.0511172
121.295 168.693 152.288 0.0306624 -0.998222 -0.0511172
121.929 168.732 151.9 0.62282 -0.782365 -0.000924649
121.96 168.758 151.008 0.62282 -0.782365 -0.000924649
122.401 169.109 151.123 0.62282 -0.782365 -0.000924649
122.367 169.063 152.28 0.610479 -0.791924 -0.0130725
121.929 168.732 151.9 0.610479 -0.791924 -0.0130725
122.401 169.109 151.123 0.610479 -0.791924 -0.0130725
119.956 169.963 152.067 -0.752281 -0.615845 -0.234111
120.121 169.84 151.859 -0.752281 -0.615845 -0.234111
120.586 169.149 152.184 -0.752281 -0.615845 -0.234111
120.586 169.149 152.184 -0.537257 -0.626665 -0.564488
120.121 169.84 151.859 -0.537257 -0.626665 -0.564488
120.793 169.939 151.109 -0.537257 -0.626665 -0.564488
122.401 169.109 151.123 0.770171 -0.637834 -0.00217089
123.127 169.983 152.011 0.770171 -0.637834 -0.00217089
122.367 169.063 152.28 0.770171 -0.637834 -0.00217089
123.127 169.983 152.011 0.751414 -0.658957 0.03395
122.401 169.109 151.123 0.751414 -0.658957 0.03395
123.149 169.958 151.048 0.751414 -0.658957 0.03395
120.082 170.627 151.799 -0.803944 -0.0844019 -0.588686
120.121 169.84 151.859 -0.803944 -0.0844019 -0.588686
119.956 169.963 152.067 -0.803944 -0.0844019 -0.588686
119.909 170.845 152.082 -0.864287 -0.0377518 -0.50158
120.082 170.627 151.799 -0.864287 -0.0377518 -0.50158
119.956 169.963 152.067 -0.864287 -0.0377518 -0.50158
120.793 169.939 151.109 -0.744841 -0.109623 -0.658176
120.082 170.627 151.799 -0.744841 -0.109623 -0.658176
120.562 170.923 151.207 -0.744841 -0.109623 -0.658176
120.121 169.84 151.859 -0.73602 -0.0873455 -0.671301
120.082 170.627 151.799 -0.73602 -0.0873455 -0.671301
120.793 169.939 151.109 -0.73602 -0.0873455 -0.671301
123.149 169.958 151.048 0.964229 -0.263575 0.0281236
123.351 170.712 151.185 0.964229 -0.263575 0.0281236
123.127 169.983 152.011 0.964229 -0.263575 0.0281236
123.127 169.983 152.011 0.971873 -0.227098 0.0623604
123.351 170.712 151.185 0.971873 -0.227098 0.0623604
123.363 170.966 151.93 0.971873 -0.227098 0.0623604
120.087 171.628 151.798 -0.850908 0.00364094 -0.525302
120.082 170.627 151.799 -0.850908 0.00364094 -0.525302
119.909 170.845 152.082 -0.850908 0.00364094 -0.525302
119.929 171.857 152.083 -0.868328 0.0183616 -0.49565
120.087 171.628 151.798 -0.868328 0.0183616 -0.49565
119.909 170.845 152.082 -0.868328 0.0183616 -0.49565
120.562 170.923 151.207 -0.761096 0.030895 -0.647903
120.087 171.628 151.798 -0.761096 0.030895 -0.647903
120.78 171.783 150.991 -0.761096 0.030895 -0.647903
120.082 170.627 151.799 -0.777903 0.00320891 -0.628376
120.087 171.628 151.798 -0.777903 0.00320891 -0.628376
120.562 170.923 151.207 -0.777903 0.00320891 -0.628376
123.351 170.712 151.185 0.999732 -0.0215427 -0.00847848
123.369 171.633 151.044 0.999732 -0.0215427 -0.00847848
123.363 170.966 151.93 0.999732 -0.0215427 -0.00847848
123.363 170.966 151.93 0.996488 -0.0704322 -0.0452779
123.369 171.633 151.044 0.996488 -0.0704322 -0.0452779
123.433 171.902 152.033 0.996488 -0.0704322 -0.0452779
120.232 172.726 151.786 -0.832404 0.10385 -0.544351
120.087 171.628 151.798 -0.832404 0.10385 -0.544351
119.929 171.857 152.083 -0.832404 0.10385 -0.544351
119.947 172.649 152.119 -0.764774 0.0466936 -0.642605
120.232 172.726 151.786 -0.764774 0.0466936 -0.642605
119.929 171.857 152.083 -0.764774 0.0466936 -0.642605
120.78 171.783 150.991 -0.773832 0.0796441 -0.628364
120.232 172.726 151.786 -0.773832 0.0796441 -0.628364
120.953 172.893 150.919 -0.773832 0.0796441 -0.628364
120.087 171.628 151.798 -0.764027 0.0937482 -0.638336
120.232 172.726 151.786 -0.764027 0.0937482 -0.638336
120.78 171.783 150.991 -0.764027 0.0937482 -0.638336
123.95 173.108 152.018 0.859011 -0.372397 -0.351312
123.433 171.902 152.033 0.859011 -0.372397 -0.351312
123.449 172.83 151.087 0.859011 -0.372397 -0.351312
123.433 171.902 152.033 0.99682 -0.0643867 -0.0469462
123.369 171.633 151.044 0.99682 -0.0643867 -0.0469462
123.449 172.83 151.087 0.99682 -0.0643867 -0.0469462
120.232 172.726 151.786 -0.635031 0.668192 -0.387628
119.947 172.649 152.119 -0.635031 0.668192 -0.387628
120.218 172.947 152.189 -0.635031 0.668192 -0.387628
120.232 172.726 151.786 -0.76917 0.233821 -0.594732
120.91 173.582 151.246 -0.76917 0.233821 -0.594732
120.953 172.893 150.919 -0.76917 0.233821 -0.594732
120.232 172.726 151.786 -0.593489 0.709203 0.380528
121.017 173.239 152.053 -0.593489 0.709203 0.380528
120.91 173.582 151.246 -0.593489 0.709203 0.380528
120.232 172.726 151.786 -0.373396 0.808298 -0.455225
120.218 172.947 152.189 -0.373396 0.808298 -0.455225
121.017 173.239 152.053 -0.373396 0.808298 -0.455225
121.436 174.102 151.182 -0.628058 0.682513 0.373791
120.91 173.582 151.246 -0.628058 0.682513 0.373791
121.017 173.239 152.053 -0.628058 0.682513 0.373791
121.017 173.239 152.053 -0.486498 0.726481 0.48533
121.849 173.788 152.065 -0.486498 0.726481 0.48533
121.436 174.102 151.182 -0.486498 0.726481 0.48533
123.95 173.108 152.018 0.740144 -0.403444 -0.537977
123.698 173.791 151.158 0.740144 -0.403444 -0.537977
124.167 173.94 151.693 0.740144 -0.403444 -0.537977
123.449 172.83 151.087 0.886489 -0.198233 -0.418139
123.698 173.791 151.158 0.886489 -0.198233 -0.418139
123.95 173.108 152.018 0.886489 -0.198233 -0.418139
124.167 173.94 151.693 0.697375 -0.411434 -0.586847
124.541 174.285 151.895 0.697375 -0.411434 -0.586847
123.95 173.108 152.018 0.697375 -0.411434 -0.586847
122.036 174.811 151.149 -0.761013 0.467245 0.450046
122.099 174.293 151.793 -0.761013 0.467245 0.450046
122.261 175.036 151.295 -0.761013 0.467245 0.450046
121.436 174.102 151.182 -0.641034 0.566388 0.517957
122.099 174.293 151.793 -0.641034 0.566388 0.517957
122.036 174.811 151.149 -0.641034 0.566388 0.517957
121.436 174.102 151.182 -0.63421 0.585906 0.504472
121.849 173.788 152.065 -0.63421 0.585906 0.504472
122.099 174.293 151.793 -0.63421 0.585906 0.504472
122.099 174.293 151.793 -0.674573 0.506592 0.53695
122.732 175.015 151.907 -0.674573 0.506592 0.53695
122.261 175.036 151.295 -0.674573 0.506592 0.53695
123.698 173.791 151.158 0.726947 -0.458806 -0.510926
124.09 174.581 151.007 0.726947 -0.458806 -0.510926
124.167 173.94 151.693 0.726947 -0.458806 -0.510926
124.58 175.014 151.207 0.711157 -0.502062 -0.492128
125.154 175.224 151.823 0.711157 -0.502062 -0.492128
124.541 174.285 151.895 0.711157 -0.502062 -0.492128
124.09 174.581 151.007 0.675471 -0.524697 -0.518104
124.58 175.014 151.207 0.675471 -0.524697 -0.518104
124.541 174.285 151.895 0.675471 -0.524697 -0.518104
124.09 174.581 151.007 0.714194 -0.469308 -0.519305
124.541 174.285 151.895 0.714194 -0.469308 -0.519305
124.167 173.94 151.693 0.714194 -0.469308 -0.519305
124.541 174.285 151.895 0.761733 -0.526295 -0.377858
125.154 175.224 151.823 0.761733 -0.526295 -0.377858
125.205 175.136 152.048 0.761733 -0.526295 -0.377858
122.036 174.811 151.149 -0.76623 0.558151 0.31837
122.261 175.036 151.295 -0.76623 0.558151 0.31837
122.306 175.262 151.007 -0.76623 0.558151 0.31837
122.261 175.036 151.295 -0.881945 0.427688 0.198132
122.703 175.942 151.31 -0.881945 0.427688 0.198132
122.306 175.262 151.007 -0.881945 0.427688 0.198132
122.261 175.036 151.295 -0.73616 0.350282 0.579112
122.732 175.015 151.907 -0.73616 0.350282 0.579112
122.703 175.942 151.31 -0.73616 0.350282 0.579112
122.732 175.015 151.907 -0.871378 0.246329 0.424291
123.02 175.896 151.987 -0.871378 0.246329 0.424291
122.703 175.942 151.31 -0.871378 0.246329 0.424291
125.154 175.224 151.823 0.735256 -0.237976 -0.634638
124.88 175.954 151.232 0.735256 -0.237976 -0.634638
125.281 175.924 151.708 0.735256 -0.237976 -0.634638
124.58 175.014 151.207 0.749516 -0.223349 -0.623171
124.88 175.954 151.232 0.749516 -0.223349 -0.623171
125.154 175.224 151.823 0.749516 -0.223349 -0.623171
125.326 175.827 152.0 0.941036 -0.184338 -0.283672
125.205 175.136 152.048 0.941036 -0.184338 -0.283672
125.154 175.224 151.823 0.941036 -0.184338 -0.283672
125.281 175.924 151.708 0.954346 -0.208726 -0.213676
125.326 175.827 152.0 0.954346 -0.208726 -0.213676
125.154 175.224 151.823 0.954346 -0.208726 -0.213676
123.276 176.802 151.745 -0.482666 0.629262 -0.609149
123.44 176.305 151.101 -0.482666 0.629262 -0.609149
122.703 175.942 151.31 -0.482666 0.629262 -0.609149
123.276 176.802 151.745 -0.775129 0.606199 -0.178036
122.703 175.942 151.31 -0.775129 0.606199 -0.178036
123.162 176.722 151.97 -0.775129 0.606199 -0.178036
123.162 176.722 151.97 -0.889648 0.161547 0.427116
122.703 175.942 151.31 -0.889648 0.161547 0.427116
123.02 175.896 151.987 -0.889648 0.161547 0.427116
123.44 176.305 151.101 -0.175761 0.682397 -0.709537
124.026 176.942 151.569 -0.175761 0.682397 -0.709537
124.28 176.589 151.166 -0.175761 0.682397 -0.709537
123.276 176.802 151.745 -0.28272 0.722796 -0.630584
124.026 176.942 151.569 -0.28272 0.722796 -0.630584
123.44 176.305 151.101 -0.28272 0.722796 -0.630584
124.28 176.589 151.166 0.323777 0.802884 -0.500545
124.026 176.942 151.569 0.323777 0.802884 -0.500545
124.658 176.84 151.814 0.323777 0.802884 -0.500545
124.88 175.954 151.232 0.624689 0.532133 -0.571487
124.28 176.589 151.166 0.624689 0.532133 -0.571487
124.658 176.84 151.814 0.624689 0.532133 -0.571487
124.88 175.954 151.232 0.672486 0.516749 -0.529843
124.658 176.84 151.814 0.672486 0.516749 -0.529843
125.141 176.33 151.929 0.672486 0.516749 -0.529843
124.88 175.954 151.232 0.669155 0.52035 -0.530535
125.141 176.33 151.929 0.669155 0.52035 -0.530535
125.281 175.924 151.708 0.669155 0.52035 -0.530535
125.326 175.827 152.0 0.939928 0.340188 -0.0284323
125.281 175.924 151.708 0.939928 0.340188 -0.0284323
125.141 176.33 151.929 0.939928 0.340188 -0.0284323
123.276 176.802 151.745 -0.727495 0.673709 -0.129873
123.162 176.722 151.97 -0.727495 0.673709 -0.129873
123.463 177.047 151.969 -0.727495 0.673709 -0.129873
124.026 176.942 151.569 -0.279846 0.755806 -0.591983
123.276 176.802 151.745 -0.279846 0.755806 -0.591983
123.463 177.047 151.969 -0.279846 0.755806 -0.591983
124.105 177.154 151.99 -0.135266 0.895161 -0.424723
124.026 176.942 151.569 -0.135266 0.895161 -0.424723
123.463 177.047 151.969 -0.135266 0.895161 -0.424723
124.658 176.84 151.814 0.316158 0.822588 -0.472644
124.026 176.942 151.569 0.316158 0.822588 -0.472644
124.105 177.154 151.99 0.316158 0.822588 -0.472644
120.586 169.149 152.184 -0.745859 -0.0570806 0.663653
120.668 168.748 152.242 -0.745859 -0.0570806 0.663653
121.691 168.789 153.395 -0.745859 -0.0570806 0.663653
121.691 168.789 153.395 -0.0965207 -0.988066 0.120039
120.668 168.748 152.242 -0.0965207 -0.988066 0.120039
121.295 168.693 152.288 -0.0965207 -0.988066 0.120039
121.929 168.732 151.9 0.0590667 -0.998243 -0.00478923
121.974 168.73 152.822 0.0590667 -0.998243 -0.00478923
121.295 168.693 152.288 0.0590667 -0.998243 -0.00478923
121.295 168.693 152.288 -0.0174952 -0.995569 0.09239
121.974 168.73 152.822 -0.0174952 -0.995569 0.09239
121.691 168.789 153.395 -0.0174952 -0.995569 0.09239
121.974 168.73 152.822 0.620311 -0.783722 -0.0315297
121.929 168.732 151.9 0.620311 -0.783722 -0.0315297
122.367 169.063 152.28 0.620311 -0.783722 -0.0315297
122.169 168.93 153.171 0.676942 -0.734982 0.0393871
121.974 168.73 152.822 0.676942 -0.734982 0.0393871
122.367 169.063 152.28 0.676942 -0.734982 0.0393871
120.586 169.149 152.184 -0.679059 -0.44136 0.586583
120.132 170.057 152.341 -0.679059 -0.44136 0.586583
119.956 169.963 152.067 -0.679059 -0.44136 0.586583
120.132 170.057 152.341 -0.696114 -0.445759 0.562783
120.586 169.149 152.184 -0.696114 -0.445759 0.562783
120.661 169.863 152.843 -0.696114 -0.445759 0.562783
122.925 169.793 152.46 0.780029 -0.619383 0.088991
122.367 169.063 152.28 0.780029 -0.619383 0.088991
123.127 169.983 152.011 0.780029 -0.619383 0.088991
122.925 169.793 152.46 0.660677 -0.613001 0.433284
122.453 169.817 153.214 0.660677 -0.613001 0.433284
122.367 169.063 152.28 0.660677 -0.613001 0.433284
122.453 169.817 153.214 0.937811 -0.307456 0.161191
122.169 168.93 153.171 0.937811 -0.307456 0.161191
122.367 169.063 152.28 0.937811 -0.307456 0.161191
120.132 170.057 152.341 -0.79597 -0.0261852 0.60477
120.114 171.057 152.362 -0.79597 -0.0261852 0.60477
119.909 170.845 152.082 -0.79597 -0.0261852 0.60477
119.956 169.963 152.067 -0.832227 -0.0538668 0.551812
120.132 170.057 152.341 -0.832227 -0.0538668 0.551812
119.909 170.845 152.082 -0.832227 -0.0538668 0.551812
120.73 170.668 152.957 -0.695333 -0.0424141 0.717435
120.132 170.057 152.341 -0.695333 -0.0424141 0.717435
120.661 169.863 152.843 -0.695333 -0.0424141 0.717435
120.114 171.057 152.362 -0.703702 -0.026723 0.709993
120.132 170.057 152.341 -0.703702 -0.026723 0.709993
120.73 170.668 152.957 -0.703702 -0.026723 0.709993
122.925 169.793 152.46 0.731423 -0.490696 0.473539
123.065 170.425 152.9 0.731423 -0.490696 0.473539
122.453 169.817 153.214 0.731423 -0.490696 0.473539
123.065 170.425 152.9 0.89567 -0.369604 0.247321
122.925 169.793 152.46 0.89567 -0.369604 0.247321
123.127 169.983 152.011 0.89567 -0.369604 0.247321
123.065 170.425 152.9 0.939021 -0.276702 0.204148
123.127 169.983 152.011 0.939021 -0.276702 0.204148
123.259 171.028 152.822 0.939021 -0.276702 0.204148
123.259 171.028 152.822 0.96705 -0.220553 0.127165
123.127 169.983 152.011 0.96705 -0.220553 0.127165
123.363 170.966 151.93 0.96705 -0.220553 0.127165
120.114 171.057 152.362 -0.81301 0.0150175 0.582056
120.127 172.045 152.354 -0.81301 0.0150175 0.582056
119.929 171.857 152.083 -0.81301 0.0150175 0.582056
119.909 170.845 152.082 -0.811485 0.016101 0.584152
120.114 171.057 152.362 -0.811485 0.016101 0.584152
119.929 171.857 152.083 -0.811485 0.016101 0.584152
120.776 171.676 152.957 -0.684839 0.0307256 0.728047
120.114 171.057 152.362 -0.684839 0.0307256 0.728047
120.73 170.668 152.957 -0.684839 0.0307256 0.728047
120.127 172.045 152.354 -0.676781 0.0144128 0.736044
120.114 171.057 152.362 -0.676781 0.0144128 0.736044
120.776 171.676 152.957 -0.676781 0.0144128 0.736044
123.363 170.966 151.93 0.988794 -0.0881563 0.120482
123.433 171.902 152.033 0.988794 -0.0881563 0.120482
123.259 171.028 152.822 0.988794 -0.0881563 0.120482
123.259 171.028 152.822 0.986808 -0.0612166 0.149873
123.433 171.902 152.033 0.986808 -0.0612166 0.149873
123.324 172.104 152.836 0.986808 -0.0612166 0.149873
120.127 172.045 152.354 -0.742103 0.0398141 0.669102
120.192 172.762 152.383 -0.742103 0.0398141 0.669102
119.947 172.649 152.119 -0.742103 0.0398141 0.669102
119.929 171.857 152.083 -0.805269 -0.00867422 0.592846
120.127 172.045 152.354 -0.805269 -0.00867422 0.592846
119.947 172.649 152.119 -0.805269 -0.00867422 0.592846
120.8 172.58 152.926 -0.66725 0.0434637 0.743565
120.127 172.045 152.354 -0.66725 0.0434637 0.743565
120.776 171.676 152.957 -0.66725 0.0434637 0.743565
120.192 172.762 152.383 -0.661124 0.0292179 0.749707
120.127 172.045 152.354 -0.661124 0.0292179 0.749707
120.8 172.58 152.926 -0.661124 0.0292179 0.749707
123.255 173.118 152.628 0.321711 0.492018 0.808962
122.635 173.017 152.936 0.321711 0.492018 0.808962
123.0 172.592 153.049 0.321711 0.492018 0.808962
123.95 173.108 152.018 0.647771 0.195371 0.736358
123.255 173.118 152.628 0.647771 0.195371 0.736358
123.324 172.104 152.836 0.647771 0.195371 0.736358
123.95 173.108 152.018 0.8979 -0.382221 0.218364
123.324 172.104 152.836 0.8979 -0.382221 0.218364
123.433 171.902 152.033 0.8979 -0.382221 0.218364
123.0 172.592 153.049 0.720366 0.186314 0.668102
123.324 172.104 152.836 0.720366 0.186314 0.668102
123.255 173.118 152.628 0.720366 0.186314 0.668102
119.947 172.649 152.119 -0.71733 0.551195 0.426171
120.192 172.762 152.383 -0.71733 0.551195 0.426171
120.218 172.947 152.189 -0.71733 0.551195 0.426171
120.192 172.762 152.383 -0.521997 0.439 0.731299
120.8 172.58 152.926 -0.521997 0.439 0.731299
120.911 172.936 152.793 -0.521997 0.439 0.731299
120.192 172.762 152.383 -0.483589 0.666489 0.567393
120.911 172.936 152.793 -0.483589 0.666489 0.567393
120.218 172.947 152.189 -0.483589 0.666489 0.567393
120.218 172.947 152.189 -0.274189 0.90284 0.331209
120.911 172.936 152.793 -0.274189 0.90284 0.331209
121.017 173.239 152.053 -0.274189 0.90284 0.331209
121.849 173.788 152.065 -0.385515 0.683622 0.619709
121.872 173.108 152.829 -0.385515 0.683622 0.619709
122.452 173.925 152.29 -0.385515 0.683622 0.619709
121.849 173.788 152.065 -0.445723 0.662154 0.602397
121.017 173.239 152.053 -0.445723 0.662154 0.602397
121.872 173.108 152.829 -0.445723 0.662154 0.602397
121.017 173.239 152.053 -0.178556 0.91898 0.351559
120.911 172.936 152.793 -0.178556 0.91898 0.351559
121.872 173.108 152.829 -0.178556 0.91898 0.351559
122.635 173.017 152.936 -0.0455738 0.573189 0.818155
122.452 173.925 152.29 -0.0455738 0.573189 0.818155
121.872 173.108 152.829 -0.0455738 0.573189 0.818155
122.635 173.017 152.936 0.278513 0.593488 0.755118
123.255 173.118 152.628 0.278513 0.593488 0.755118
122.452 173.925 152.29 0.278513 0.593488 0.755118
123.255 173.118 152.628 -0.0574789 0.336917 0.939778
123.368 174.113 152.278 -0.0574789 0.336917 0.939778
122.452 173.925 152.29 -0.0574789 0.336917 0.939778
123.95 173.108 152.018 0.625456 -0.304429 0.71842
124.165 174.009 152.213 0.625456 -0.304429 0.71842
123.255 173.118 152.628 0.625456 -0.304429 0.71842
124.165 174.009 152.213 0.117934 0.317353 0.940946
123.368 174.113 152.278 0.117934 0.317353 0.940946
123.255 173.118 152.628 0.117934 0.317353 0.940946
123.95 173.108 152.018 0.7356 -0.306019 0.604355
124.541 174.285 151.895 0.7356 -0.306019 0.604355
124.165 174.009 152.213 0.7356 -0.306019 0.604355
121.849 173.788 152.065 -0.396284 0.580032 0.711703
122.452 173.925 152.29 -0.396284 0.580032 0.711703
122.099 174.293 151.793 -0.396284 0.580032 0.711703
122.732 175.015 151.907 -0.581907 0.398152 0.709126
122.099 174.293 151.793 -0.581907 0.398152 0.709126
122.452 173.925 152.29 -0.581907 0.398152 0.709126
122.732 175.015 151.907 -0.492166 0.397943 0.774218
122.452 173.925 152.29 -0.492166 0.397943 0.774218
123.281 175.094 152.216 -0.492166 0.397943 0.774218
123.281 175.094 152.216 -0.000660282 0.0636458 0.997972
122.452 173.925 152.29 -0.000660282 0.0636458 0.997972
123.368 174.113 152.278 -0.000660282 0.0636458 0.997972
124.165 174.009 152.213 0.0764318 -0.0371609 0.996382
124.245 174.989 152.244 0.0764318 -0.0371609 0.996382
123.368 174.113 152.278 0.0764318 -0.0371609 0.996382
124.245 174.989 152.244 -0.0222395 0.0617238 0.997845
123.281 175.094 152.216 -0.0222395 0.0617238 0.997845
123.368 174.113 152.278 -0.0222395 0.0617238 0.997845
124.541 174.285 151.895 0.723221 -0.607727 0.328053
124.953 174.894 152.114 0.723221 -0.607727 0.328053
124.165 174.009 152.213 0.723221 -0.607727 0.328053
124.165 174.009 152.213 0.174397 -0.0447556 0.983658
124.953 174.894 152.114 0.174397 -0.0447556 0.983658
124.245 174.989 152.244 0.174397 -0.0447556 0.983658
124.541 174.285 151.895 0.688521 -0.60823 0.394962
125.205 175.136 152.048 0.688521 -0.60823 0.394962
124.953 174.894 152.114 0.688521 -0.60823 0.394962
123.281 175.094 152.216 -0.485672 0.0897873 0.869518
123.425 176.192 152.183 -0.485672 0.0897873 0.869518
123.02 175.896 151.987 -0.485672 0.0897873 0.869518
122.732 175.015 151.907 -0.497356 0.0842588 0.863445
123.281 175.094 152.216 -0.497356 0.0842588 0.863445
123.02 175.896 151.987 -0.497356 0.0842588 0.863445
124.245 174.989 152.244 -0.0295197 -0.00449847 0.999554
124.157 175.887 152.245 -0.0295197 -0.00449847 0.999554
123.281 175.094 152.216 -0.0295197 -0.00449847 0.999554
124.157 175.887 152.245 -0.0687743 0.0389276 0.996872
123.425 176.192 152.183 -0.0687743 0.0389276 0.996872
123.281 175.094 152.216 -0.0687743 0.0389276 0.996872
124.953 174.894 152.114 0.176865 -0.0266515 0.983874
125.04 175.843 152.124 0.176865 -0.0266515 0.983874
124.245 174.989 152.244 0.176865 -0.0266515 0.983874
125.04 175.843 152.124 0.136523 0.0118458 0.990566
124.157 175.887 152.245 0.136523 0.0118458 0.990566
124.245 174.989 152.244 0.136523 0.0118458 0.990566
125.205 175.136 152.048 0.396693 -0.00573691 0.917934
125.326 175.827 152.0 0.396693 -0.00573691 0.917934
125.04 175.843 152.124 0.396693 -0.00573691 0.917934
124.953 174.894 152.114 0.284071 -0.0361952 0.95812
125.205 175.136 152.048 0.284071 -0.0361952 0.95812
125.04 175.843 152.124 0.284071 -0.0361952 0.95812
123.425 176.192 152.183 -0.421991 0.149346 0.894214
123.499 176.933 152.094 -0.421991 0.149346 0.894214
123.162 176.722 151.97 -0.421991 0.149346 0.894214
123.02 175.896 151.987 -0.49239 0.102442 0.864325
123.425 176.192 152.183 -0.49239 0.102442 0.864325
123.162 176.722 151.97 -0.49239 0.102442 0.864325
124.157 175.887 152.245 -0.0184338 0.15808 0.987254
124.317 176.723 152.114 -0.0184338 0.15808 0.987254
123.425 176.192 152.183 -0.0184338 0.15808 0.987254
124.317 176.723 152.114 0.00585053 0.118093 0.992985
123.499 176.933 152.094 0.00585053 0.118093 0.992985
123.425 176.192 152.183 0.00585053 0.118093 0.992985
125.141 176.33 151.929 0.427814 0.564841 0.705642
124.658 176.84 151.814 0.427814 0.564841 0.705642
124.317 176.723 152.114 0.427814 0.564841 0.705642
125.141 176.33 151.929 0.338079 0.287527 0.89612
124.317 176.723 152.114 0.338079 0.287527 0.89612
125.04 175.843 152.124 0.338079 0.287527 0.89612
125.04 175.843 152.124 0.14112 0.126664 0.981856
124.317 176.723 152.114 0.14112 0.126664 0.981856
124.157 175.887 152.245 0.14112 0.126664 0.981856
125.326 175.827 152.0 0.395249 0.268614 0.878422
125.141 176.33 151.929 0.395249 0.268614 0.878422
125.04 175.843 152.124 0.395249 0.268614 0.878422
123.162 176.722 151.97 -0.561855 0.522964 0.640958
123.499 176.933 152.094 -0.561855 0.522964 0.640958
123.463 177.047 151.969 -0.561855 0.522964 0.640958
124.105 177.154 151.99 -0.141484 0.711145 0.688661
123.463 177.047 151.969 -0.141484 0.711145 0.688661
123.499 176.933 152.094 -0.141484 0.711145 0.688661
124.317 176.723 152.114 0.0536926 0.301088 0.952083
124.105 177.154 151.99 0.0536926 0.301088 0.952083
123.499 176.933 152.094 0.0536926 0.301088 0.952083
124.658 176.84 151.814 0.494262 0.457076 0.73945
124.105 177.154 151.99 0.494262 0.457076 0.73945
124.317 176.723 152.114 0.494262 0.457076 0.73945
121.802 169.069 153.809 -0.716112 -0.473784 0.512554
120.586 169.149 152.184 -0.716112 -0.473784 0.512554
121.691 168.789 153.395 -0.716112 -0.473784 0.512554
121.691 168.789 153.395 0.389547 -0.876914 0.281557
121.974 168.73 152.822 0.389547 -0.876914 0.281557
122.169 168.93 153.171 0.389547 -0.876914 0.281557
122.117 169.123 153.873 0.386422 -0.881271 0.272102
121.691 168.789 153.395 0.386422 -0.881271 0.272102
122.169 168.93 153.171 0.386422 -0.881271 0.272102
120.586 169.149 152.184 -0.440331 -0.583402 0.68246
121.073 170.022 153.244 -0.440331 -0.583402 0.68246
120.661 169.863 152.843 -0.440331 -0.583402 0.68246
121.665 169.716 153.754 -0.797852 -0.11832 0.591128
120.586 169.149 152.184 -0.797852 -0.11832 0.591128
121.802 169.069 153.809 -0.797852 -0.11832 0.591128
121.073 170.022 153.244 -0.708309 -0.349656 0.61322
120.586 169.149 152.184 -0.708309 -0.349656 0.61322
121.665 169.716 153.754 -0.708309 -0.349656 0.61322
122.169 168.93 153.171 0.938786 -0.307485 0.15535
122.453 169.817 153.214 0.938786 -0.307485 0.15535
122.117 169.123 153.873 0.938786 -0.307485 0.15535
122.117 169.123 153.873 0.931278 -0.127202 0.341381
122.453 169.817 153.214 0.931278 -0.127202 0.341381
122.181 169.936 154.0 0.931278 -0.127202 0.341381
121.073 170.022 153.244 -0.640351 0.0012291 0.768081
121.257 171.046 153.396 -0.640351 0.0012291 0.768081
120.73 170.668 152.957 -0.640351 0.0012291 0.768081
120.661 169.863 152.843 -0.688445 -0.0439206 0.723958
121.073 170.022 153.244 -0.688445 -0.0439206 0.723958
120.73 170.668 152.957 -0.688445 -0.0439206 0.723958
121.826 170.576 153.946 -0.664277 -0.0419479 0.746309
121.073 170.022 153.244 -0.664277 -0.0419479 0.746309
121.665 169.716 153.754 -0.664277 -0.0419479 0.746309
121.257 171.046 153.396 -0.687777 0.0159887 0.725746
121.073 170.022 153.244 -0.687777 0.0159887 0.725746
121.826 170.576 153.946 -0.687777 0.0159887 0.725746
122.884 170.903 153.323 0.671311 -0.332663 0.662327
122.453 169.817 153.214 0.671311 -0.332663 0.662327
123.065 170.425 152.9 0.671311 -0.332663 0.662327
122.884 170.903 153.323 0.678134 -0.334575 0.654365
122.246 170.771 153.916 0.678134 -0.334575 0.654365
122.453 169.817 153.214 0.678134 -0.334575 0.654365
122.246 170.771 153.916 0.942417 -0.0400557 0.332033
122.181 169.936 154.0 0.942417 -0.0400557 0.332033
122.453 169.817 153.214 0.942417 -0.0400557 0.332033
123.065 170.425 152.9 0.808118 -0.188482 0.558049
123.259 171.028 152.822 0.808118 -0.188482 0.558049
122.884 170.903 153.323 0.808118 -0.188482 0.558049
121.257 171.046 153.396 -0.565086 0.134626 0.813974
121.239 172.028 153.221 -0.565086 0.134626 0.813974
120.776 171.676 152.957 -0.565086 0.134626 0.813974
120.73 170.668 152.957 -0.651866 0.0292129 0.757771
121.257 171.046 153.396 -0.651866 0.0292129 0.757771
120.776 171.676 152.957 -0.651866 0.0292129 0.757771
121.973 171.237 153.984 -0.647142 0.100316 0.755741
121.257 171.046 153.396 -0.647142 0.100316 0.755741
121.826 170.576 153.946 -0.647142 0.100316 0.755741
121.973 171.237 153.984 -0.606199 0.571338 0.553259
122.104 171.649 153.701 -0.606199 0.571338 0.553259
121.257 171.046 153.396 -0.606199 0.571338 0.553259
122.104 171.649 153.701 -0.428456 0.150835 0.890884
121.239 172.028 153.221 -0.428456 0.150835 0.890884
121.257 171.046 153.396 -0.428456 0.150835 0.890884
122.246 170.771 153.916 0.650073 0.27872 0.706909
122.104 171.649 153.701 0.650073 0.27872 0.706909
121.973 171.237 153.984 0.650073 0.27872 0.706909
122.246 170.771 153.916 0.62217 0.280109 0.731057
122.884 170.903 153.323 0.62217 0.280109 0.731057
122.104 171.649 153.701 0.62217 0.280109 0.731057
122.884 170.903 153.323 0.488419 0.0700941 0.869789
122.958 171.842 153.205 0.488419 0.0700941 0.869789
122.104 171.649 153.701 0.488419 0.0700941 0.869789
123.259 171.028 152.822 0.72822 -0.0528796 0.6833
123.324 172.104 152.836 0.72822 -0.0528796 0.6833
122.958 171.842 153.205 0.72822 -0.0528796 0.6833
122.884 170.903 153.323 0.798896 0.011875 0.601352
123.259 171.028 152.822 0.798896 0.011875 0.601352
122.958 171.842 153.205 0.798896 0.011875 0.601352
121.239 172.028 153.221 -0.39038 0.171997 0.904445
121.256 172.767 153.088 -0.39038 0.171997 0.904445
120.8 172.58 152.926 -0.39038 0.171997 0.904445
120.776 171.676 152.957 -0.51843 0.0433551 0.85402
121.239 172.028 153.221 -0.51843 0.0433551 0.85402
120.8 172.58 152.926 -0.51843 0.0433551 0.85402
122.104 171.649 153.701 -0.265345 0.464908 0.844661
122.144 172.613 153.183 -0.265345 0.464908 0.844661
121.239 172.028 153.221 -0.265345 0.464908 0.844661
122.144 172.613 153.183 -0.0743395 0.178392 0.981147
121.256 172.767 153.088 -0.0743395 0.178392 0.981147
121.239 172.028 153.221 -0.0743395 0.178392 0.981147
123.0 172.592 153.049 0.152373 0.374558 0.914598
122.635 173.017 152.936 0.152373 0.374558 0.914598
122.144 172.613 153.183 0.152373 0.374558 0.914598
123.0 172.592 153.049 0.156283 0.193422 0.968588
122.144 172.613 153.183 0.156283 0.193422 0.968588
122.958 171.842 153.205 0.156283 0.193422 0.968588
122.958 171.842 153.205 0.380029 0.4255 0.821297
122.144 172.613 153.183 0.380029 0.4255 0.821297
122.104 171.649 153.701 0.380029 0.4255 0.821297
123.324 172.104 152.836 0.663081 0.117326 0.739296
123.0 172.592 153.049 0.663081 0.117326 0.739296
122.958 171.842 153.205 0.663081 0.117326 0.739296
120.8 172.58 152.926 -0.453332 0.43496 0.778011
121.256 172.767 153.088 -0.453332 0.43496 0.778011
120.911 172.936 152.793 -0.453332 0.43496 0.778011
121.872 173.108 152.829 -0.16116 0.764141 0.624592
120.911 172.936 152.793 -0.16116 0.764141 0.624592
121.256 172.767 153.088 -0.16116 0.764141 0.624592
122.144 172.613 153.183 0.0148467 0.586558 0.809771
121.872 173.108 152.829 0.0148467 0.586558 0.809771
121.256 172.767 153.088 0.0148467 0.586558 0.809771
122.635 173.017 152.936 -0.0477462 0.563067 0.825031
121.872 173.108 152.829 -0.0477462 0.563067 0.825031
122.144 172.613 153.183 -0.0477462 0.563067 0.825031
121.691 168.789 153.395 0.029333 -0.831402 0.554897
122.117 169.123 153.873 0.029333 -0.831402 0.554897
121.802 169.069 153.809 0.029333 -0.831402 0.554897
121.802 169.069 153.809 -0.666352 -0.0776656 0.741581
122.037 169.811 154.098 -0.666352 -0.0776656 0.741581
121.665 169.716 153.754 -0.666352 -0.0776656 0.741581
122.117 169.123 153.873 0.648931 -0.167376 0.742209
122.181 169.936 154.0 0.648931 -0.167376 0.742209
122.037 169.811 154.098 0.648931 -0.167376 0.742209
121.802 169.069 153.809 -0.136241 -0.321963 0.936898
122.117 169.123 153.873 -0.136241 -0.321963 0.936898
122.037 169.811 154.098 -0.136241 -0.321963 0.936898
122.037 169.811 154.098 -0.560144 0.0106155 0.828327
122.085 170.628 154.12 -0.560144 0.0106155 0.828327
121.826 170.576 153.946 -0.560144 0.0106155 0.828327
121.665 169.716 153.754 -0.673305 -0.03848 0.738363
122.037 169.811 154.098 -0.673305 -0.03848 0.738363
121.826 170.576 153.946 -0.673305 -0.03848 0.738363
122.181 169.936 154.0 0.784891 0.00123889 0.619633
122.246 170.771 153.916 0.784891 0.00123889 0.619633
122.085 170.628 154.12 0.784891 0.00123889 0.619633
122.037 169.811 154.098 0.593771 -0.0569774 0.802614
122.181 169.936 154.0 0.593771 -0.0569774 0.802614
122.085 170.628 154.12 0.593771 -0.0569774 0.802614
121.826 170.576 153.946 -0.567793 0.0790058 0.819371
122.085 170.628 154.12 -0.567793 0.0790058 0.819371
121.973 171.237 153.984 -0.567793 0.0790058 0.819371
122.246 170.771 153.916 0.649836 0.278539 0.707198
121.973 171.237 153.984 0.649836 0.278539 0.707198
122.085 170.628 154.12 0.649836 0.278539 0.707198
3 0 1 2
3 3 4 5
3 6 7 8
3 9 10 11
3 12 13 14
3 15 16 17
3 18 19 20
3 21 22 23
3 24 25 26
3 27 28 29
3 30 31 32
3 33 34 35
3 36 37 38
3 39 40 41
3 42 43 44
3 45 46 47
3 48 49 50
3 51 52 53
3 54 55 56
3 57 58 59
3 60 61 62
3 63 64 65
3 66 67 68
3 69 70 71
3 72 73 74
3 75 76 77
3 78 79 80
3 81 82 83
3 84 85 86
3 87 88 89
3 90 91 92
3 93 94 95
3 96 97 98
3 99 100 101
3 102 103 104
3 105 106 107
3 108 109 110
3 111 112 113
3 114 115 116
3 117 118 119
3 120 121 122
3 123 124 125
3 126 127 128
3 129 130 131
3 132 133 134
3 135 136 137
3 138 139 140
3 141 142 143
3 144 145 146
3 147 148 149
3 150 151 152
3 153 154 155
3 156 157 158
3 159 160 161
3 162 163 164
3 165 166 167
3 168 169 170
3 171 172 173
3 174 175 176
3 177 178 179
3 180 181 182
3 183 184 185
3 186 187 188
3 189 190 191
3 192 193 194
3 195 196 197
3 198 199 200
3 201 202 203
3 204 205 206
3 207 208 209
3 210 211 212
3 213 214 215
3 216 217 218
3 219 220 221
3 222 223 224
3 225 226 227
3 228 229 230
3 231 232 233
3 234 235 236
3 237 238 239
3 240 241 242
3 243 244 245
3 246 247 248
3 249 250 251
3 252 253 254
3 255 256 257
3 258 259 260
3 261 262 263
3 264 265 266
3 267 268 269
3 270 271 272
3 273 274 275
3 276 277 278
3 279 280 281
3 282 283 284
3 285 286 287
3 288 289 290
3 291 292 293
3 294 295 296
3 297 298 299
3 300 301 302
3 303 304 305
3 306 307 308
3 309 310 311
3 312 313 314
3 315 316 317
3 318 319 320
3 321 322 323
3 324 325 326
3 327 328 329
3 330 331 332
3 333 334 335
3 336 337 338
3 339 340 341
3 342 343 344
3 345 346 347
3 348 349 350
3 351 352 353
3 354 355 356
3 357 358 359
3 360 361 362
3 363 364 365
3 366 367 368
3 369 370 371
3 372 373 374
3 375 376 377
3 378 379 380
3 381 382 383
3 384 385 386
3 387 388 389
3 390 391 392
3 393 394 395
3 396 397 398
3 399 400 401
3 402 403 404
3 405 406 407
3 408 409 410
3 411 412 413
3 414 415 416
3 417 418 419
3 420 421 422
3 423 424 425
3 426 427 428
3 429 430 431
3 432 433 434
3 435 436 437
3 438 439 440
3 441 442 443
3 444 445 446
3 447 448 449
3 450 451 452
3 453 454 455
3 456 457 458
3 459 460 461
3 462 463 464
3 465 466 467
3 468 469 470
3 471 472 473
3 474 475 476
3 477 478 479
3 480 481 482
3 483 484 485
3 486 487 488
3 489 490 491
3 492 493 494
3 495 496 497
3 498 499 500
3 501 502 503
3 504 505 506
3 507 508 509
3 510 511 512
3 513 514 515
3 516 517 518
3 519 520 521
3 522 523 524
3 525 526 527
3 528 529 530
3 531 532 533
3 534 535 536
3 537 538 539
3 540 541 542
3 543 544 545
3 546 547 548
3 549 550 551
3 552 553 554
3 555 556 557
3 558 559 560
3 561 562 563
3 564 565 566
3 567 568 569
3 570 571 572
3 573 574 575
3 576 577 578
3 579 580 581
3 582 583 584
3 585 586 587
3 588 589 590
3 591 592 593
3 594 595 596
3 597 598 599
3 600 601 602
3 603 604 605
3 606 607 608
3 609 610 611
3 612 613 614
3 615 616 617
3 618 619 620
3 621 622 623
3 624 625 626
3 627 628 629
3 630 631 632
3 633 634 635
3 636 637 638
3 639 640 641
3 642 643 644
3 645 646 647
3 648 649 650
3 651 652 653
3 654 655 656
3 657 658 659
3 660 661 662
3 663 664 665
3 666 667 668
3 669 670 671
3 672 673 674
3 675 676 677
3 678 679 680
3 681 682 683
3 684 685 686
3 687 688 689
3 690 691 692
3 693 694 695
3 696 697 698
3 699 700 701
3 702 703 704
3 705 706 707
3 708 709 710
3 711 712 713
3 714 715 716
3 717 718 719
3 720 721 722
3 723 724 725
3 726 727 728
3 729 730 731
3 732 733 734
3 735 736 737
3 738 739 740
3 741 742 743
3 744 745 746
3 747 748 749
3 750 751 752
3 753 754 755
3 756 757 758
3 759 760 761
3 762 763 764
3 765 766 767
3 768 769 770
3 771 772 773
3 774 775 776
3 777 778 779
3 780 781 782
3 783 784 785
3 786 787 788
3 789 790 791
3 792 793 794
3 795 796 797
3 798 799 800
3 801 802 803
3 804 805 806
3 807 808 809
3 810 811 812
3 813 814 815
3 816 817 818
3 819 820 821
3 822 823 824
3 825 826 827
3 828 829 830
3 831 832 833
3 834 835 836
3 837 838 839
3 840 841 842
3 843 844 845
