ply
format ascii 1.0
element vertex 258
property float x
property float y
property float z
property float nx
property float ny
property float nz
element face 86
property list uint uint vertex_indices
end_header
105.959 83.4361 157.346 -0.454525 -0.342521 -0.822245
105.775 83.0583 157.605 -0.454525 -0.342521 -0.822245
105.659 83.4549 157.504 -0.454525 -0.342521 -0.822245
105.959 83.4361 157.346 -0.00286447 -0.411309 -0.911491
106.725 83.4875 157.321 -0.00286447 -0.411309 -0.911491
106.605 82.6553 157.696 -0.00286447 -0.411309 -0.911491
105.775 83.0583 157.605 -0.153026 -0.507213 -0.848126
105.959 83.4361 157.346 -0.153026 -0.507213 -0.848126
106.605 82.6553 157.696 -0.153026 -0.507213 -0.848126
106.605 82.6553 157.696 0.260299 -0.42838 -0.865295
106.725 83.4875 157.321 0.260299 -0.42838 -0.865295
107.287 83.3259 157.57 0.260299 -0.42838 -0.865295
105.821 84.1731 157.54 -0.453695 0.146819 -0.87898
105.959 83.4361 157.346 -0.453695 0.146819 -0.87898
105.659 83.4549 157.504 -0.453695 0.146819 -0.87898
106.725 83.4875 157.321 -0.0323272 -0.0160897 -0.999348
105.959 83.4361 157.346 -0.0323272 -0.0160897 -0.999348
106.536 84.1997 157.315 -0.0323272 -0.0160897 -0.999348
106.536 84.1997 157.315 -0.301488 0.189917 -0.934364
105.959 83.4361 157.346 -0.301488 0.189917 -0.934364
105.821 84.1731 157.54 -0.301488 0.189917 -0.934364
107.242 84.2894 157.604 0.417184 0.0521758 -0.907323
107.287 83.3259 157.57 0.417184 0.0521758 -0.907323
106.725 83.4875 157.321 0.417184 0.0521758 -0.907323
106.536 84.1997 157.315 0.367374 0.0907467 -0.925636
107.242 84.2894 157.604 0.367374 0.0907467 -0.925636
106.725 83.4875 157.321 0.367374 0.0907467 -0.925636
106.576 84.9424 157.597 -0.29311 0.353196 -0.888447
106.536 84.1997 157.315 -0.29311 0.353196 -0.888447
105.821 84.1731 157.54 -0.29311 0.353196 -0.888447
107.242 84.2894 157.604 0.323643 0.320732 -0.890161
106.536 84.1997 157.315 0.323643 0.320732 -0.890161
106.576 84.9424 157.597 0.323643 0.320732 -0.890161
106.605 82.6553 157.696 -0.332637 -0.698736 -0.633341
106.61 81.9494 158.473 -0.332637 -0.698736 -0.633341
106.056 82.3089 158.367 -0.332637 -0.698736 -0.633341
106.61 81.9494 158.473 0.427855 -0.66745 -0.609467
106.605 82.6553 157.696 0.427855 -0.66745 -0.609467
107.312 82.3493 158.528 0.427855 -0.66745 -0.609467
105.775 83.0583 157.605 -0.967615 -0.237678 -0.0850332
105.786 82.7209 158.425 -0.967615 -0.237678 -0.0850332
105.622 83.4513 158.248 -0.967615 -0.237678 -0.0850332
105.659 83.4549 157.504 -0.955435 -0.291024 -0.0494846
105.775 83.0583 157.605 -0.955435 -0.291024 -0.0494846
105.622 83.4513 158.248 -0.955435 -0.291024 -0.0494846
106.056 82.3089 158.367 -0.642701 -0.3245 -0.693999
105.786 82.7209 158.425 -0.642701 -0.3245 -0.693999
106.605 82.6553 157.696 -0.642701 -0.3245 -0.693999
105.786 82.7209 158.425 -0.377978 -0.857853 -0.348167
105.775 83.0583 157.605 -0.377978 -0.857853 -0.348167
106.605 82.6553 157.696 -0.377978 -0.857853 -0.348167
107.287 83.3259 157.57 0.858457 -0.203461 -0.470803
107.672 83.5114 158.191 0.858457 -0.203461 -0.470803
107.528 82.8597 158.211 0.858457 -0.203461 -0.470803
106.605 82.6553 157.696 0.484322 -0.610853 -0.626331
107.287 83.3259 157.57 0.484322 -0.610853 -0.626331
107.528 82.8597 158.211 0.484322 -0.610853 -0.626331
106.605 82.6553 157.696 0.486646 -0.600265 -0.634711
107.528 82.8597 158.211 0.486646 -0.600265 -0.634711
107.312 82.3493 158.528 0.486646 -0.600265 -0.634711
105.663 84.1194 158.261 -0.936679 0.298161 -0.183664
105.87 84.5302 157.87 -0.936679 0.298161 -0.183664
105.821 84.1731 157.54 -0.936679 0.298161 -0.183664
105.663 84.1194 158.261 -0.975687 0.0637685 -0.209686
105.821 84.1731 157.54 -0.975687 0.0637685 -0.209686
105.622 83.4513 158.248 -0.975687 0.0637685 -0.209686
105.622 83.4513 158.248 -0.97393 0.221716 -0.04798
105.821 84.1731 157.54 -0.97393 0.221716 -0.04798
105.659 83.4549 157.504 -0.97393 0.221716 -0.04798
105.663 84.1194 158.261 -0.894416 0.447211 -0.00475032
105.803 84.4034 158.482 -0.894416 0.447211 -0.00475032
105.87 84.5302 157.87 -0.894416 0.447211 -0.00475032
107.672 83.5114 158.191 0.728501 -0.107778 -0.676513
107.242 84.2894 157.604 0.728501 -0.107778 -0.676513
107.679 84.266 158.079 0.728501 -0.107778 -0.676513
107.287 83.3259 157.57 0.840822 0.05864 -0.538126
107.242 84.2894 157.604 0.840822 0.05864 -0.538126
107.672 83.5114 158.191 0.840822 0.05864 -0.538126
107.679 84.266 158.079 0.984873 -0.0348669 -0.169734
107.754 84.171 158.531 0.984873 -0.0348669 -0.169734
107.672 83.5114 158.191 0.984873 -0.0348669 -0.169734
105.87 84.5302 157.87 -0.567712 0.598728 -0.565002
106.576 84.9424 157.597 -0.567712 0.598728 -0.565002
105.821 84.1731 157.54 -0.567712 0.598728 -0.565002
105.87 84.5302 157.87 -0.565181 0.7672 -0.303272
106.393 85.119 158.384 -0.565181 0.7672 -0.303272
106.576 84.9424 157.597 -0.565181 0.7672 -0.303272
105.87 84.5302 157.87 -0.767564 0.639114 0.0487718
105.803 84.4034 158.482 -0.767564 0.639114 0.0487718
106.393 85.119 158.384 -0.767564 0.639114 0.0487718
106.393 85.119 158.384 -0.779874 0.547291 -0.303758
106.694 85.3065 157.95 -0.779874 0.547291 -0.303758
106.576 84.9424 157.597 -0.779874 0.547291 -0.303758
106.576 84.9424 157.597 0.643322 0.413955 -0.644033
106.694 85.3065 157.95 0.643322 0.413955 -0.644033
107.005 85.1814 158.18 0.643322 0.413955 -0.644033
107.242 84.2894 157.604 0.547188 0.551532 -0.629601
106.576 84.9424 157.597 0.547188 0.551532 -0.629601
107.005 85.1814 158.18 0.547188 0.551532 -0.629601
107.242 84.2894 157.604 0.728063 0.497524 -0.471587
107.005 85.1814 158.18 0.728063 0.497524 -0.471587
107.514 84.7514 158.512 0.728063 0.497524 -0.471587
107.242 84.2894 157.604 0.578267 0.643842 -0.501073
107.514 84.7514 158.512 0.578267 0.643842 -0.501073
107.679 84.266 158.079 0.578267 0.643842 -0.501073
107.754 84.171 158.531 0.922903 0.378084 -0.0728176
107.679 84.266 158.079 0.922903 0.378084 -0.0728176
107.514 84.7514 158.512 0.922903 0.378084 -0.0728176
106.694 85.3065 157.95 -0.584212 0.809721 -0.0552088
106.393 85.119 158.384 -0.584212 0.809721 -0.0552088
106.719 85.3514 158.339 -0.584212 0.809721 -0.0552088
107.005 85.1814 158.18 0.451814 0.882414 -0.131182
106.694 85.3065 157.95 0.451814 0.882414 -0.131182
106.719 85.3514 158.339 0.451814 0.882414 -0.131182
106.61 81.9494 158.473 -0.429511 -0.886005 0.174686
106.783 81.9966 159.137 -0.429511 -0.886005 0.174686
106.114 82.3065 159.066 -0.429511 -0.886005 0.174686
106.056 82.3089 158.367 -0.549631 -0.834291 0.0431757
106.61 81.9494 158.473 -0.549631 -0.834291 0.0431757
106.114 82.3065 159.066 -0.549631 -0.834291 0.0431757
106.783 81.9966 159.137 0.49784 -0.864598 -0.0680077
106.61 81.9494 158.473 0.49784 -0.864598 -0.0680077
107.312 82.3493 158.528 0.49784 -0.864598 -0.0680077
107.339 82.4773 159.239 0.63776 -0.761893 0.113053
106.783 81.9966 159.137 0.63776 -0.761893 0.113053
107.312 82.3493 158.528 0.63776 -0.761893 0.113053
105.786 82.7209 158.425 -0.928653 -0.354448 0.109405
105.833 82.8529 159.251 -0.928653 -0.354448 0.109405
105.654 83.2723 159.091 -0.928653 -0.354448 0.109405
105.622 83.4513 158.248 -0.975176 -0.2212 -0.0101605
105.786 82.7209 158.425 -0.975176 -0.2212 -0.0101605
105.654 83.2723 159.091 -0.975176 -0.2212 -0.0101605
106.114 82.3065 159.066 -0.829784 -0.55398 0.067571
105.786 82.7209 158.425 -0.829784 -0.55398 0.067571
106.056 82.3089 158.367 -0.829784 -0.55398 0.067571
105.833 82.8529 159.251 -0.863283 -0.488452 0.127107
105.786 82.7209 158.425 -0.863283 -0.488452 0.127107
106.114 82.3065 159.066 -0.863283 -0.488452 0.127107
107.312 82.3493 158.528 0.824113 -0.562079 0.0700344
107.654 82.9029 158.949 0.824113 -0.562079 0.0700344
107.339 82.4773 159.239 0.824113 -0.562079 0.0700344
107.528 82.8597 158.211 0.883765 -0.451169 -0.124122
107.654 82.9029 158.949 0.883765 -0.451169 -0.124122
107.312 82.3493 158.528 0.883765 -0.451169 -0.124122
107.654 82.9029 158.949 0.964308 -0.217152 -0.151512
107.528 82.8597 158.211 0.964308 -0.217152 -0.151512
107.672 83.5114 158.191 0.964308 -0.217152 -0.151512
107.568 83.3996 159.293 0.989653 0.0995298 0.103351
107.654 82.9029 158.949 0.989653 0.0995298 0.103351
107.672 83.5114 158.191 0.989653 0.0995298 0.103351
105.622 83.4513 158.248 -0.997484 0.0516059 0.0485989
105.654 83.2723 159.091 -0.997484 0.0516059 0.0485989
105.68 83.8445 159.026 -0.997484 0.0516059 0.0485989
105.663 84.1194 158.261 -0.997209 0.0601136 0.0442831
105.622 83.4513 158.248 -0.997209 0.0601136 0.0442831
105.68 83.8445 159.026 -0.997209 0.0601136 0.0442831
105.68 83.8445 159.026 -0.926828 0.346197 0.145385
105.803 84.4034 158.482 -0.926828 0.346197 0.145385
105.663 84.1194 158.261 -0.926828 0.346197 0.145385
106.044 84.3837 159.181 -0.828354 0.473878 0.298779
105.803 84.4034 158.482 -0.828354 0.473878 0.298779
105.68 83.8445 159.026 -0.828354 0.473878 0.298779
107.672 83.5114 158.191 0.983886 -0.161702 0.076288
107.754 84.171 158.531 0.983886 -0.161702 0.076288
107.568 83.3996 159.293 0.983886 -0.161702 0.076288
107.568 83.3996 159.293 0.984494 -0.15371 0.0845308
107.754 84.171 158.531 0.984494 -0.15371 0.0845308
107.721 84.3061 159.161 0.984494 -0.15371 0.0845308
106.793 85.0031 159.142 -0.588889 0.692589 0.416569
106.83 85.2575 158.772 -0.588889 0.692589 0.416569
106.393 85.119 158.384 -0.588889 0.692589 0.416569
106.793 85.0031 159.142 -0.569028 0.713245 0.409254
106.393 85.119 158.384 -0.569028 0.713245 0.409254
106.044 84.3837 159.181 -0.569028 0.713245 0.409254
106.044 84.3837 159.181 -0.72532 0.634188 0.267801
106.393 85.119 158.384 -0.72532 0.634188 0.267801
105.803 84.4034 158.482 -0.72532 0.634188 0.267801
106.83 85.2575 158.772 0.612154 0.786666 0.0801521
107.514 84.7514 158.512 0.612154 0.786666 0.0801521
107.005 85.1814 158.18 0.612154 0.786666 0.0801521
106.83 85.2575 158.772 0.631906 0.607525 0.481257
106.793 85.0031 159.142 0.631906 0.607525 0.481257
107.514 84.7514 158.512 0.631906 0.607525 0.481257
106.793 85.0031 159.142 0.439527 0.885669 0.149688
107.481 84.6366 159.289 0.439527 0.885669 0.149688
107.514 84.7514 158.512 0.439527 0.885669 0.149688
107.721 84.3061 159.161 0.924395 0.379999 -0.0330819
107.754 84.171 158.531 0.924395 0.379999 -0.0330819
107.514 84.7514 158.512 0.924395 0.379999 -0.0330819
107.481 84.6366 159.289 0.825074 0.55278 0.116991
107.721 84.3061 159.161 0.825074 0.55278 0.116991
107.514 84.7514 158.512 0.825074 0.55278 0.116991
106.393 85.119 158.384 -0.523319 0.795317 0.305953
106.83 85.2575 158.772 -0.523319 0.795317 0.305953
106.719 85.3514 158.339 -0.523319 0.795317 0.305953
107.005 85.1814 158.18 0.530087 0.846574 0.0481752
106.719 85.3514 158.339 0.530087 0.846574 0.0481752
106.83 85.2575 158.772 0.530087 0.846574 0.0481752
106.783 81.9966 159.137 -0.340148 -0.560558 0.755032
106.637 82.6126 159.529 -0.340148 -0.560558 0.755032
106.114 82.3065 159.066 -0.340148 -0.560558 0.755032
106.783 81.9966 159.137 0.256481 -0.475047 0.841753
107.339 82.4773 159.239 0.256481 -0.475047 0.841753
106.637 82.6126 159.529 0.256481 -0.475047 0.841753
105.833 82.8529 159.251 -0.762486 -0.079913 0.642051
105.954 83.4496 159.47 -0.762486 -0.079913 0.642051
105.654 83.2723 159.091 -0.762486 -0.079913 0.642051
105.833 82.8529 159.251 -0.410352 -0.475535 0.778125
106.114 82.3065 159.066 -0.410352 -0.475535 0.778125
106.637 82.6126 159.529 -0.410352 -0.475535 0.778125
105.833 82.8529 159.251 -0.381284 -0.248358 0.890472
106.637 82.6126 159.529 -0.381284 -0.248358 0.890472
105.954 83.4496 159.47 -0.381284 -0.248358 0.890472
105.954 83.4496 159.47 -0.270767 -0.153884 0.950266
106.637 82.6126 159.529 -0.270767 -0.153884 0.950266
106.822 83.48 159.722 -0.270767 -0.153884 0.950266
107.339 82.4773 159.239 0.809954 -0.232821 0.538301
107.654 82.9029 158.949 0.809954 -0.232821 0.538301
107.568 83.3996 159.293 0.809954 -0.232821 0.538301
107.339 82.4773 159.239 0.354691 -0.142509 0.924059
107.568 83.3996 159.293 0.354691 -0.142509 0.924059
106.637 82.6126 159.529 0.354691 -0.142509 0.924059
106.637 82.6126 159.529 0.454592 -0.284624 0.843999
107.568 83.3996 159.293 0.454592 -0.284624 0.843999
106.822 83.48 159.722 0.454592 -0.284624 0.843999
105.654 83.2723 159.091 -0.802332 0.103279 0.587875
105.954 83.4496 159.47 -0.802332 0.103279 0.587875
105.68 83.8445 159.026 -0.802332 0.103279 0.587875
106.044 84.3837 159.181 -0.689767 0.273802 0.670264
105.68 83.8445 159.026 -0.689767 0.273802 0.670264
105.954 83.4496 159.47 -0.689767 0.273802 0.670264
106.044 84.3837 159.181 -0.470813 0.301706 0.829041
105.954 83.4496 159.47 -0.470813 0.301706 0.829041
106.736 84.2733 159.614 -0.470813 0.301706 0.829041
106.736 84.2733 159.614 -0.280885 0.0994624 0.954574
105.954 83.4496 159.47 -0.280885 0.0994624 0.954574
106.822 83.48 159.722 -0.280885 0.0994624 0.954574
107.568 83.3996 159.293 0.469689 -0.212855 0.856788
107.488 84.1559 159.525 0.469689 -0.212855 0.856788
106.822 83.48 159.722 0.469689 -0.212855 0.856788
107.488 84.1559 159.525 0.139072 0.14851 0.979083
106.736 84.2733 159.614 0.139072 0.14851 0.979083
106.822 83.48 159.722 0.139072 0.14851 0.979083
107.568 83.3996 159.293 0.852531 -0.0685497 0.518163
107.721 84.3061 159.161 0.852531 -0.0685497 0.518163
107.488 84.1559 159.525 0.852531 -0.0685497 0.518163
106.044 84.3837 159.181 -0.391702 0.520797 0.758512
106.736 84.2733 159.614 -0.391702 0.520797 0.758512
106.793 85.0031 159.142 -0.391702 0.520797 0.758512
107.481 84.6366 159.289 0.10524 0.533915 0.838963
106.793 85.0031 159.142 0.10524 0.533915 0.838963
106.736 84.2733 159.614 0.10524 0.533915 0.838963
107.488 84.1559 159.525 0.172575 0.435525 0.883479
107.481 84.6366 159.289 0.172575 0.435525 0.883479
106.736 84.2733 159.614 0.172575 0.435525 0.883479
107.721 84.3061 159.161 0.73974 0.304373 0.600118
107.481 84.6366 159.289 0.73974 0.304373 0.600118
107.488 84.1559 159.525 0.73974 0.304373 0.600118
3 0 1 2
3 3 4 5
3 6 7 8
3 9 10 11
3 12 13 14
3 15 16 17
3 18 19 20
3 21 22 23
3 24 25 26
3 27 28 29
3 30 31 32
3 33 34 35
3 36 37 38
3 39 40 41
3 42 43 44
3 45 46 47
3 48 49 50
3 51 52 53
3 54 55 56
3 57 58 59
3 60 61 62
3 63 64 65
3 66 67 68
3 69 70 71
3 72 73 74
3 75 76 77
3 78 79 80
3 81 82 83
3 84 85 86
3 87 88 89
3 90 91 92
3 93 94 95
3 96 97 98
3 99 100 101
3 102 103 104
3 105 106 107
3 108 109 110
3 111 112 113
3 114 115 116
3 117 118 119
3 120 121 122
3 123 124 125
3 126 127 128
3 129 130 131
3 132 133 134
3 135 136 137
3 138 139 140
3 141 142 143
3 144 145 146
3 147 148 149
3 150 151 152
3 153 154 155
3 156 157 158
3 159 160 161
3 162 163 164
3 165 166 167
3 168 169 170
3 171 172 173
3 174 175 176
3 177 178 179
3 180 181 182
3 183 184 185
3 186 187 188
3 189 190 191
3 192 193 194
3 195 196 197
3 198 199 200
3 201 202 203
3 204 205 206
3 207 208 209
3 210 211 212
3 213 214 215
3 216 217 218
3 219 220 221
3 222 223 224
3 225 226 227
3 228 229 230
3 231 232 233
3 234 235 236
3 237 238 239
3 240 241 242
3 243 244 245
3 246 247 248
3 249 250 251
3 252 253 254
3 255 256 257
