ply
format ascii 1.0
element vertex 234
property float x
property float y
property float z
property float nx
property float ny
property float nz
element face 78
property list uint uint vertex_indices
end_header
104.885 85.5452 167.637 -0.380146 -0.178637 -0.907512
104.808 85.0239 167.771 -0.380146 -0.178637 -0.907512
104.559 85.6528 167.752 -0.380146 -0.178637 -0.907512
105.503 84.7891 167.717 -0.151584 -0.226548 -0.962132
104.808 85.0239 167.771 -0.151584 -0.226548 -0.962132
104.885 85.5452 167.637 -0.151584 -0.226548 -0.962132
105.503 84.7891 167.717 -0.052305 -0.14804 -0.987597
104.885 85.5452 167.637 -0.052305 -0.14804 -0.987597
105.716 85.5397 167.593 -0.052305 -0.14804 -0.987597
106.396 85.2211 167.762 0.198822 -0.314249 -0.928287
105.892 84.7209 167.823 0.198822 -0.314249 -0.928287
105.503 84.7891 167.717 0.198822 -0.314249 -0.928287
106.396 85.2211 167.762 0.146139 -0.201165 -0.968595
105.503 84.7891 167.717 0.146139 -0.201165 -0.968595
105.716 85.5397 167.593 0.146139 -0.201165 -0.968595
104.778 86.7543 167.636 -0.3425 -0.0306755 -0.939017
104.885 85.5452 167.637 -0.3425 -0.0306755 -0.939017
104.559 85.6528 167.752 -0.3425 -0.0306755 -0.939017
104.524 86.3776 167.834 -0.661501 0.0531605 -0.748058
104.778 86.7543 167.636 -0.661501 0.0531605 -0.748058
104.559 85.6528 167.752 -0.661501 0.0531605 -0.748058
105.716 85.5397 167.593 -0.0522136 -0.062569 -0.996674
104.885 85.5452 167.637 -0.0522136 -0.062569 -0.996674
105.628 86.4873 167.538 -0.0522136 -0.062569 -0.996674
105.628 86.4873 167.538 -0.117268 -0.0108843 -0.993041
104.885 85.5452 167.637 -0.117268 -0.0108843 -0.993041
104.778 86.7543 167.636 -0.117268 -0.0108843 -0.993041
106.396 85.2211 167.762 0.180755 -0.130569 -0.974823
105.716 85.5397 167.593 0.180755 -0.130569 -0.974823
106.457 86.4185 167.613 0.180755 -0.130569 -0.974823
106.457 86.4185 167.613 0.085317 -0.0496461 -0.995116
105.716 85.5397 167.593 0.085317 -0.0496461 -0.995116
105.628 86.4873 167.538 0.085317 -0.0496461 -0.995116
106.71 86.4113 167.862 0.699466 -0.125112 -0.703629
106.649 85.6634 167.934 0.699466 -0.125112 -0.703629
106.396 85.2211 167.762 0.699466 -0.125112 -0.703629
106.457 86.4185 167.613 0.69489 -0.123505 -0.708431
106.71 86.4113 167.862 0.69489 -0.123505 -0.708431
106.396 85.2211 167.762 0.69489 -0.123505 -0.708431
104.538 87.3741 167.792 -0.59051 -0.0257503 -0.806619
104.778 86.7543 167.636 -0.59051 -0.0257503 -0.806619
104.524 86.3776 167.834 -0.59051 -0.0257503 -0.806619
105.628 86.4873 167.538 -0.104451 0.0302711 -0.994069
104.778 86.7543 167.636 -0.104451 0.0302711 -0.994069
105.694 87.4754 167.562 -0.104451 0.0302711 -0.994069
106.457 86.4185 167.613 0.0889678 -0.00659329 -0.996013
105.628 86.4873 167.538 0.0889678 -0.00659329 -0.996013
106.439 87.455 167.605 0.0889678 -0.00659329 -0.996013
106.439 87.455 167.605 0.0580779 0.0194517 -0.998123
105.628 86.4873 167.538 0.0580779 0.0194517 -0.998123
105.694 87.4754 167.562 0.0580779 0.0194517 -0.998123
106.703 87.4311 167.782 0.700395 -0.0513896 -0.711903
106.71 86.4113 167.862 0.700395 -0.0513896 -0.711903
106.457 86.4185 167.613 0.700395 -0.0513896 -0.711903
106.439 87.455 167.605 0.55792 0.00290728 -0.82989
106.703 87.4311 167.782 0.55792 0.00290728 -0.82989
106.457 86.4185 167.613 0.55792 0.00290728 -0.82989
104.669 88.1036 167.69 -0.568044 -0.0129279 -0.822897
104.778 86.7543 167.636 -0.568044 -0.0129279 -0.822897
104.538 87.3741 167.792 -0.568044 -0.0129279 -0.822897
104.577 88.23 167.744 -0.530255 -0.0231894 -0.847521
104.669 88.1036 167.69 -0.530255 -0.0231894 -0.847521
104.538 87.3741 167.792 -0.530255 -0.0231894 -0.847521
105.694 87.4754 167.562 -0.12912 0.0620508 -0.989686
104.778 86.7543 167.636 -0.12912 0.0620508 -0.989686
105.398 88.1831 167.645 -0.12912 0.0620508 -0.989686
105.398 88.1831 167.645 -0.0658027 0.034649 -0.997231
104.778 86.7543 167.636 -0.0658027 0.034649 -0.997231
104.669 88.1036 167.69 -0.0658027 0.034649 -0.997231
106.439 87.455 167.605 0.0598041 0.0910045 -0.994053
105.694 87.4754 167.562 0.0598041 0.0910045 -0.994053
106.302 88.2718 167.671 0.0598041 0.0910045 -0.994053
106.302 88.2718 167.671 0.0168851 0.123486 -0.992203
105.694 87.4754 167.562 0.0168851 0.123486 -0.992203
105.398 88.1831 167.645 0.0168851 0.123486 -0.992203
106.618 88.2147 167.732 0.558191 0.00747484 -0.829679
106.703 87.4311 167.782 0.558191 0.00747484 -0.829679
106.439 87.455 167.605 0.558191 0.00747484 -0.829679
106.302 88.2718 167.671 0.207395 0.114041 -0.971587
106.618 88.2147 167.732 0.207395 0.114041 -0.971587
106.439 87.455 167.605 0.207395 0.114041 -0.971587
104.669 88.1036 167.69 -0.309579 0.175209 -0.934592
104.577 88.23 167.744 -0.309579 0.175209 -0.934592
104.803 88.4482 167.71 -0.309579 0.175209 -0.934592
105.398 88.1831 167.645 -0.0712334 0.0863817 -0.993712
104.669 88.1036 167.69 -0.0712334 0.0863817 -0.993712
104.803 88.4482 167.71 -0.0712334 0.0863817 -0.993712
105.58 88.4989 167.752 0.0308809 0.305229 -0.951778
105.398 88.1831 167.645 0.0308809 0.305229 -0.951778
104.803 88.4482 167.71 0.0308809 0.305229 -0.951778
106.302 88.2718 167.671 -0.00407628 0.323496 -0.946221
105.398 88.1831 167.645 -0.00407628 0.323496 -0.946221
105.58 88.4989 167.752 -0.00407628 0.323496 -0.946221
106.365 88.4536 167.791 0.0725192 0.530738 -0.844428
106.302 88.2718 167.671 0.0725192 0.530738 -0.844428
105.58 88.4989 167.752 0.0725192 0.530738 -0.844428
106.618 88.2147 167.732 0.247711 0.470858 -0.846718
106.302 88.2718 167.671 0.247711 0.470858 -0.846718
106.365 88.4536 167.791 0.247711 0.470858 -0.846718
105.503 84.7891 167.717 -0.223831 -0.952539 0.206322
105.892 84.7209 167.823 -0.223831 -0.952539 0.206322
105.511 84.8308 167.917 -0.223831 -0.952539 0.206322
104.808 85.0239 167.771 -0.838889 -0.318912 0.441089
104.763 85.5402 168.06 -0.838889 -0.318912 0.441089
104.559 85.6528 167.752 -0.838889 -0.318912 0.441089
104.808 85.0239 167.771 -0.298679 -0.932136 0.204729
105.503 84.7891 167.717 -0.298679 -0.932136 0.204729
105.511 84.8308 167.917 -0.298679 -0.932136 0.204729
104.808 85.0239 167.771 -0.303459 -0.484562 0.820434
105.511 84.8308 167.917 -0.303459 -0.484562 0.820434
104.763 85.5402 168.06 -0.303459 -0.484562 0.820434
104.763 85.5402 168.06 -0.266606 -0.451936 0.851278
105.511 84.8308 167.917 -0.266606 -0.451936 0.851278
105.585 85.7033 168.404 -0.266606 -0.451936 0.851278
105.892 84.7209 167.823 0.685513 -0.652087 0.323812
106.396 85.2211 167.762 0.685513 -0.652087 0.323812
106.328 85.3501 168.166 0.685513 -0.652087 0.323812
105.892 84.7209 167.823 0.0639646 -0.510926 0.857241
106.328 85.3501 168.166 0.0639646 -0.510926 0.857241
105.511 84.8308 167.917 0.0639646 -0.510926 0.857241
105.511 84.8308 167.917 0.0461669 -0.489402 0.870835
106.328 85.3501 168.166 0.0461669 -0.489402 0.870835
105.585 85.7033 168.404 0.0461669 -0.489402 0.870835
106.396 85.2211 167.762 0.769694 -0.55905 0.308277
106.649 85.6634 167.934 0.769694 -0.55905 0.308277
106.328 85.3501 168.166 0.769694 -0.55905 0.308277
104.763 85.5402 168.06 -0.791502 -0.062856 0.607926
104.856 86.5647 168.286 -0.791502 -0.062856 0.607926
104.524 86.3776 167.834 -0.791502 -0.062856 0.607926
104.559 85.6528 167.752 -0.845064 -0.100462 0.525143
104.763 85.5402 168.06 -0.845064 -0.100462 0.525143
104.524 86.3776 167.834 -0.845064 -0.100462 0.525143
105.459 86.3748 168.633 -0.157813 -0.34595 0.924886
105.585 85.7033 168.404 -0.157813 -0.34595 0.924886
105.746 86.2568 168.638 -0.157813 -0.34595 0.924886
105.459 86.3748 168.633 -0.548038 -0.36097 0.754556
104.856 86.5647 168.286 -0.548038 -0.36097 0.754556
105.585 85.7033 168.404 -0.548038 -0.36097 0.754556
104.856 86.5647 168.286 -0.351176 -0.171825 0.920408
104.763 85.5402 168.06 -0.351176 -0.171825 0.920408
105.585 85.7033 168.404 -0.351176 -0.171825 0.920408
105.746 86.2568 168.638 0.363216 -0.0933817 0.927013
106.362 86.3684 168.408 0.363216 -0.0933817 0.927013
105.784 86.5672 168.655 0.363216 -0.0933817 0.927013
105.746 86.2568 168.638 0.382833 -0.452843 0.805215
105.585 85.7033 168.404 0.382833 -0.452843 0.805215
106.362 86.3684 168.408 0.382833 -0.452843 0.805215
105.585 85.7033 168.404 0.194118 -0.233166 0.952865
106.328 85.3501 168.166 0.194118 -0.233166 0.952865
106.362 86.3684 168.408 0.194118 -0.233166 0.952865
106.649 85.6634 167.934 0.844204 -0.0169947 0.535752
106.71 86.4113 167.862 0.844204 -0.0169947 0.535752
106.362 86.3684 168.408 0.844204 -0.0169947 0.535752
106.328 85.3501 168.166 0.689977 -0.189162 0.698676
106.649 85.6634 167.934 0.689977 -0.189162 0.698676
106.362 86.3684 168.408 0.689977 -0.189162 0.698676
104.856 86.5647 168.286 -0.659714 0.185573 0.728245
104.786 87.6603 167.944 -0.659714 0.185573 0.728245
104.538 87.3741 167.792 -0.659714 0.185573 0.728245
104.524 86.3776 167.834 -0.812282 0.0364094 0.582128
104.856 86.5647 168.286 -0.812282 0.0364094 0.582128
104.538 87.3741 167.792 -0.812282 0.0364094 0.582128
105.48 86.7044 168.622 -0.48318 0.061921 0.873329
104.856 86.5647 168.286 -0.48318 0.061921 0.873329
105.459 86.3748 168.633 -0.48318 0.061921 0.873329
105.48 86.7044 168.622 -0.500923 0.417395 0.758194
105.692 87.329 168.418 -0.500923 0.417395 0.758194
104.856 86.5647 168.286 -0.500923 0.417395 0.758194
105.692 87.329 168.418 -0.373432 0.254924 0.891943
104.786 87.6603 167.944 -0.373432 0.254924 0.891943
104.856 86.5647 168.286 -0.373432 0.254924 0.891943
105.784 86.5672 168.655 0.0319894 0.300119 0.953365
105.692 87.329 168.418 0.0319894 0.300119 0.953365
105.48 86.7044 168.622 0.0319894 0.300119 0.953365
105.784 86.5672 168.655 0.461601 0.313459 0.82986
106.362 86.3684 168.408 0.461601 0.313459 0.82986
105.692 87.329 168.418 0.461601 0.313459 0.82986
106.362 86.3684 168.408 0.22528 0.147183 0.963113
106.541 87.3065 168.223 0.22528 0.147183 0.963113
105.692 87.329 168.418 0.22528 0.147183 0.963113
106.71 86.4113 167.862 0.934889 0.0336422 0.353342
106.703 87.4311 167.782 0.934889 0.0336422 0.353342
106.541 87.3065 168.223 0.934889 0.0336422 0.353342
106.362 86.3684 168.408 0.844385 -0.0557772 0.532825
106.71 86.4113 167.862 0.844385 -0.0557772 0.532825
106.541 87.3065 168.223 0.844385 -0.0557772 0.532825
104.786 87.6603 167.944 -0.312832 0.210298 0.926235
104.829 88.3777 167.796 -0.312832 0.210298 0.926235
104.577 88.23 167.744 -0.312832 0.210298 0.926235
104.538 87.3741 167.792 -0.579853 0.072045 0.811529
104.786 87.6603 167.944 -0.579853 0.072045 0.811529
104.577 88.23 167.744 -0.579853 0.072045 0.811529
105.692 87.329 168.418 -0.348794 0.311043 0.884079
105.608 88.285 168.049 -0.348794 0.311043 0.884079
104.786 87.6603 167.944 -0.348794 0.311043 0.884079
105.608 88.285 168.049 -0.2791 0.210478 0.936911
104.829 88.3777 167.796 -0.2791 0.210478 0.936911
104.786 87.6603 167.944 -0.2791 0.210478 0.936911
106.541 87.3065 168.223 0.221233 0.300534 0.927758
106.448 88.1427 167.974 0.221233 0.300534 0.927758
105.692 87.329 168.418 0.221233 0.300534 0.927758
106.448 88.1427 167.974 0.143817 0.367556 0.918814
105.608 88.285 168.049 0.143817 0.367556 0.918814
105.692 87.329 168.418 0.143817 0.367556 0.918814
106.703 87.4311 167.782 0.793306 0.123846 0.596093
106.618 88.2147 167.732 0.793306 0.123846 0.596093
106.448 88.1427 167.974 0.793306 0.123846 0.596093
106.541 87.3065 168.223 0.895009 0.21603 0.390243
106.703 87.4311 167.782 0.895009 0.21603 0.390243
106.448 88.1427 167.974 0.895009 0.21603 0.390243
104.577 88.23 167.744 -0.481344 0.597625 0.641211
104.829 88.3777 167.796 -0.481344 0.597625 0.641211
104.803 88.4482 167.71 -0.481344 0.597625 0.641211
105.58 88.4989 167.752 -0.0839923 0.756199 0.648928
104.803 88.4482 167.71 -0.0839923 0.756199 0.648928
104.829 88.3777 167.796 -0.0839923 0.756199 0.648928
105.608 88.285 168.049 -0.0951949 0.803382 0.587805
105.58 88.4989 167.752 -0.0951949 0.803382 0.587805
104.829 88.3777 167.796 -0.0951949 0.803382 0.587805
106.365 88.4536 167.791 0.0178121 0.8121 0.583246
105.58 88.4989 167.752 0.0178121 0.8121 0.583246
105.608 88.285 168.049 0.0178121 0.8121 0.583246
106.448 88.1427 167.974 0.164018 0.533139 0.829976
106.365 88.4536 167.791 0.164018 0.533139 0.829976
105.608 88.285 168.049 0.164018 0.533139 0.829976
106.618 88.2147 167.732 0.622097 0.513397 0.591116
106.365 88.4536 167.791 0.622097 0.513397 0.591116
106.448 88.1427 167.974 0.622097 0.513397 0.591116
105.746 86.2568 168.638 -0.0369626 -0.0485932 0.998134
105.784 86.5672 168.655 -0.0369626 -0.0485932 0.998134
105.459 86.3748 168.633 -0.0369626 -0.0485932 0.998134
105.784 86.5672 168.655 -0.0896581 0.0407609 0.995138
105.48 86.7044 168.622 -0.0896581 0.0407609 0.995138
105.459 86.3748 168.633 -0.0896581 0.0407609 0.995138
3 0 1 2
3 3 4 5
3 6 7 8
3 9 10 11
3 12 13 14
3 15 16 17
3 18 19 20
3 21 22 23
3 24 25 26
3 27 28 29
3 30 31 32
3 33 34 35
3 36 37 38
3 39 40 41
3 42 43 44
3 45 46 47
3 48 49 50
3 51 52 53
3 54 55 56
3 57 58 59
3 60 61 62
3 63 64 65
3 66 67 68
3 69 70 71
3 72 73 74
3 75 76 77
3 78 79 80
3 81 82 83
3 84 85 86
3 87 88 89
3 90 91 92
3 93 94 95
3 96 97 98
3 99 100 101
3 102 103 104
3 105 106 107
3 108 109 110
3 111 112 113
3 114 115 116
3 117 118 119
3 120 121 122
3 123 124 125
3 126 127 128
3 129 130 131
3 132 133 134
3 135 136 137
3 138 139 140
3 141 142 143
3 144 145 146
3 147 148 149
3 150 151 152
3 153 154 155
3 156 157 158
3 159 160 161
3 162 163 164
3 165 166 167
3 168 169 170
3 171 172 173
3 174 175 176
3 177 178 179
3 180 181 182
3 183 184 185
3 186 187 188
3 189 190 191
3 192 193 194
3 195 196 197
3 198 199 200
3 201 202 203
3 204 205 206
3 207 208 209
3 210 211 212
3 213 214 215
3 216 217 218
3 219 220 221
3 222 223 224
3 225 226 227
3 228 229 230
3 231 232 233
