ply
format ascii 1.0
element vertex 258
property float x
property float y
property float z
property float nx
property float ny
property float nz
element face 86
property list uint uint vertex_indices
end_header
67.4839 105.415 147.931 -0.447731 -0.519208 -0.727984
67.2892 105.209 148.198 -0.447731 -0.519208 -0.727984
67.1651 105.493 148.071 -0.447731 -0.519208 -0.727984
67.4839 105.415 147.931 -0.0567591 -0.668032 -0.741964
68.3903 105.416 147.861 -0.0567591 -0.668032 -0.741964
68.1466 104.961 148.289 -0.0567591 -0.668032 -0.741964
67.2892 105.209 148.198 -0.140184 -0.731168 -0.667638
67.4839 105.415 147.931 -0.140184 -0.731168 -0.667638
68.1466 104.961 148.289 -0.140184 -0.731168 -0.667638
68.3903 105.416 147.861 0.0781708 -0.515959 -0.853039
69.1419 105.463 147.901 0.0781708 -0.515959 -0.853039
69.0062 105.16 148.072 0.0781708 -0.515959 -0.853039
68.1466 104.961 148.289 -0.029127 -0.676813 -0.735579
68.3903 105.416 147.861 -0.029127 -0.676813 -0.735579
69.0062 105.16 148.072 -0.029127 -0.676813 -0.735579
69.0062 105.16 148.072 0.534065 -0.583744 -0.61157
69.1419 105.463 147.901 0.534065 -0.583744 -0.61157
69.314 105.324 148.184 0.534065 -0.583744 -0.61157
67.4073 106.107 147.92 -0.414213 -0.0604295 -0.908172
67.4839 105.415 147.931 -0.414213 -0.0604295 -0.908172
67.1651 105.493 148.071 -0.414213 -0.0604295 -0.908172
67.2996 106.24 148.205 -0.867965 0.234915 -0.437552
67.4073 106.107 147.92 -0.867965 0.234915 -0.437552
67.1651 105.493 148.071 -0.867965 0.234915 -0.437552
68.3903 105.416 147.861 -0.0771335 -0.083772 -0.993495
67.4839 105.415 147.931 -0.0771335 -0.083772 -0.993495
68.0928 106.1 147.826 -0.0771335 -0.083772 -0.993495
68.0928 106.1 147.826 -0.135974 -0.0309549 -0.990229
67.4839 105.415 147.931 -0.135974 -0.0309549 -0.990229
67.4073 106.107 147.92 -0.135974 -0.0309549 -0.990229
69.1419 105.463 147.901 0.0546014 -0.0138339 -0.998412
68.3903 105.416 147.861 0.0546014 -0.0138339 -0.998412
68.9073 106.226 147.878 0.0546014 -0.0138339 -0.998412
68.9073 106.226 147.878 0.0665195 -0.0214638 -0.997554
68.3903 105.416 147.861 0.0665195 -0.0214638 -0.997554
68.0928 106.1 147.826 0.0665195 -0.0214638 -0.997554
69.3351 105.972 148.154 0.84158 -0.0528936 -0.537537
69.314 105.324 148.184 0.84158 -0.0528936 -0.537537
69.1419 105.463 147.901 0.84158 -0.0528936 -0.537537
68.9073 106.226 147.878 0.600402 0.160614 -0.783403
69.3351 105.972 148.154 0.600402 0.160614 -0.783403
69.1419 105.463 147.901 0.600402 0.160614 -0.783403
67.2996 106.24 148.205 -0.610073 0.603318 -0.513633
68.0394 107.078 148.311 -0.610073 0.603318 -0.513633
68.0919 106.8 147.922 -0.610073 0.603318 -0.513633
67.2996 106.24 148.205 -0.610196 0.603932 -0.512764
68.0919 106.8 147.922 -0.610196 0.603932 -0.512764
67.4073 106.107 147.92 -0.610196 0.603932 -0.512764
67.4073 106.107 147.92 -0.13323 0.134504 -0.981916
68.0919 106.8 147.922 -0.13323 0.134504 -0.981916
68.0928 106.1 147.826 -0.13323 0.134504 -0.981916
68.464 106.985 148.078 0.586386 0.508587 -0.630469
69.0896 106.486 148.257 0.586386 0.508587 -0.630469
68.9073 106.226 147.878 0.586386 0.508587 -0.630469
68.464 106.985 148.078 0.202912 0.358679 -0.91114
68.9073 106.226 147.878 0.202912 0.358679 -0.91114
68.0919 106.8 147.922 0.202912 0.358679 -0.91114
68.0919 106.8 147.922 0.0417094 0.135818 -0.989855
68.9073 106.226 147.878 0.0417094 0.135818 -0.989855
68.0928 106.1 147.826 0.0417094 0.135818 -0.989855
69.3351 105.972 148.154 0.655959 0.437473 -0.615089
68.9073 106.226 147.878 0.655959 0.437473 -0.615089
69.0896 106.486 148.257 0.655959 0.437473 -0.615089
68.464 106.985 148.078 -0.149202 0.794814 -0.588225
68.0919 106.8 147.922 -0.149202 0.794814 -0.588225
68.0394 107.078 148.311 -0.149202 0.794814 -0.588225
68.1466 104.961 148.289 -0.913099 -0.327552 -0.242816
68.1965 104.386 148.877 -0.913099 -0.327552 -0.242816
68.0811 104.573 149.059 -0.913099 -0.327552 -0.242816
68.1965 104.386 148.877 0.744795 -0.444382 -0.497801
68.1466 104.961 148.289 0.744795 -0.444382 -0.497801
68.3321 104.513 148.967 0.744795 -0.444382 -0.497801
67.2892 105.209 148.198 -0.750364 -0.659416 0.0460773
67.428 105.101 148.919 -0.750364 -0.659416 0.0460773
67.1182 105.44 148.731 -0.750364 -0.659416 0.0460773
67.1651 105.493 148.071 -0.895434 -0.434154 -0.0985333
67.2892 105.209 148.198 -0.895434 -0.434154 -0.0985333
67.1182 105.44 148.731 -0.895434 -0.434154 -0.0985333
68.0811 104.573 149.059 -0.514456 -0.74726 -0.420639
67.428 105.101 148.919 -0.514456 -0.74726 -0.420639
68.1466 104.961 148.289 -0.514456 -0.74726 -0.420639
67.428 105.101 148.919 -0.267349 -0.959241 -0.0915546
67.2892 105.209 148.198 -0.267349 -0.959241 -0.0915546
68.1466 104.961 148.289 -0.267349 -0.959241 -0.0915546
68.1466 104.961 148.289 0.452605 -0.681705 -0.574828
69.0052 105.049 148.861 0.452605 -0.681705 -0.574828
68.3321 104.513 148.967 0.452605 -0.681705 -0.574828
68.1466 104.961 148.289 0.190441 -0.972114 -0.136843
69.0062 105.16 148.072 0.190441 -0.972114 -0.136843
69.0052 105.049 148.861 0.190441 -0.972114 -0.136843
69.0052 105.049 148.861 0.500804 -0.857167 -0.120254
69.0062 105.16 148.072 0.500804 -0.857167 -0.120254
69.314 105.324 148.184 0.500804 -0.857167 -0.120254
69.3683 105.443 148.832 0.73667 -0.673394 0.0621035
69.0052 105.049 148.861 0.73667 -0.673394 0.0621035
69.314 105.324 148.184 0.73667 -0.673394 0.0621035
67.1651 105.493 148.071 -0.980918 0.186556 -0.054751
67.1182 105.44 148.731 -0.980918 0.186556 -0.054751
67.2996 106.24 148.205 -0.980918 0.186556 -0.054751
67.1182 105.44 148.731 -0.975522 0.0892537 -0.200973
67.1282 106.057 148.956 -0.975522 0.0892537 -0.200973
67.2996 106.24 148.205 -0.975522 0.0892537 -0.200973
69.314 105.324 148.184 0.996389 -0.0360712 -0.0768644
69.3351 105.972 148.154 0.996389 -0.0360712 -0.0768644
69.3683 105.443 148.832 0.996389 -0.0360712 -0.0768644
69.3683 105.443 148.832 0.998449 0.055394 -0.00564948
69.3351 105.972 148.154 0.998449 0.055394 -0.00564948
69.3323 106.105 148.956 0.998449 0.055394 -0.00564948
67.2996 106.24 148.205 -0.885532 0.455506 -0.0913672
67.1282 106.057 148.956 -0.885532 0.455506 -0.0913672
67.3641 106.493 148.841 -0.885532 0.455506 -0.0913672
67.3641 106.493 148.841 -0.72396 0.663071 -0.190313
68.0394 107.078 148.311 -0.72396 0.663071 -0.190313
67.2996 106.24 148.205 -0.72396 0.663071 -0.190313
67.9319 106.988 149.171 -0.65633 0.754467 -0.00335142
68.0394 107.078 148.311 -0.65633 0.754467 -0.00335142
67.3641 106.493 148.841 -0.65633 0.754467 -0.00335142
69.0896 106.486 148.257 0.677709 0.734171 -0.0412633
68.4718 107.086 148.78 0.677709 0.734171 -0.0412633
69.0422 106.575 149.05 0.677709 0.734171 -0.0412633
68.464 106.985 148.078 0.63938 0.760041 -0.116319
68.4718 107.086 148.78 0.63938 0.760041 -0.116319
69.0896 106.486 148.257 0.63938 0.760041 -0.116319
69.3323 106.105 148.956 0.894644 0.44133 -0.0695751
69.3351 105.972 148.154 0.894644 0.44133 -0.0695751
69.0896 106.486 148.257 0.894644 0.44133 -0.0695751
69.0422 106.575 149.05 0.850298 0.526244 -0.0077752
69.3323 106.105 148.956 0.850298 0.526244 -0.0077752
69.0896 106.486 148.257 0.850298 0.526244 -0.0077752
68.0394 107.078 148.311 -0.706762 0.707301 -0.0145817
67.9319 106.988 149.171 -0.706762 0.707301 -0.0145817
68.2012 107.253 148.963 -0.706762 0.707301 -0.0145817
68.4718 107.086 148.78 0.136086 0.980406 -0.142422
68.464 106.985 148.078 0.136086 0.980406 -0.142422
68.0394 107.078 148.311 0.136086 0.980406 -0.142422
68.2012 107.253 148.963 0.331192 0.887322 -0.320891
68.4718 107.086 148.78 0.331192 0.887322 -0.320891
68.0394 107.078 148.311 0.331192 0.887322 -0.320891
68.1965 104.386 148.877 -0.813918 -0.57609 0.0752208
68.2183 104.392 149.158 -0.813918 -0.57609 0.0752208
68.0811 104.573 149.059 -0.813918 -0.57609 0.0752208
68.1965 104.386 148.877 0.695363 -0.717581 -0.039335
68.3321 104.513 148.967 0.695363 -0.717581 -0.039335
68.2183 104.392 149.158 0.695363 -0.717581 -0.039335
67.428 105.101 148.919 -0.780661 -0.568616 0.259315
67.2845 105.523 149.412 -0.780661 -0.568616 0.259315
67.1182 105.44 148.731 -0.780661 -0.568616 0.259315
67.428 105.101 148.919 -0.528599 -0.714791 0.457883
67.9088 105.237 149.687 -0.528599 -0.714791 0.457883
67.2845 105.523 149.412 -0.528599 -0.714791 0.457883
68.0811 104.573 149.059 -0.608855 -0.622442 0.491795
67.9088 105.237 149.687 -0.608855 -0.622442 0.491795
67.428 105.101 148.919 -0.608855 -0.622442 0.491795
68.0811 104.573 149.059 -0.324049 -0.692688 0.644341
68.3571 104.95 149.603 -0.324049 -0.692688 0.644341
67.9088 105.237 149.687 -0.324049 -0.692688 0.644341
68.0811 104.573 149.059 -0.770842 -0.269146 0.577375
68.2183 104.392 149.158 -0.770842 -0.269146 0.577375
68.3571 104.95 149.603 -0.770842 -0.269146 0.577375
68.3321 104.513 148.967 0.871331 -0.419649 0.254317
68.3571 104.95 149.603 0.871331 -0.419649 0.254317
68.2183 104.392 149.158 0.871331 -0.419649 0.254317
68.3321 104.513 148.967 0.601526 -0.669105 0.436424
69.0052 105.049 148.861 0.601526 -0.669105 0.436424
68.3571 104.95 149.603 0.601526 -0.669105 0.436424
69.0052 105.049 148.861 0.528743 -0.768872 0.359537
69.0842 105.477 149.662 0.528743 -0.768872 0.359537
68.3571 104.95 149.603 0.528743 -0.768872 0.359537
69.0842 105.477 149.662 0.717964 -0.64066 0.272182
69.0052 105.049 148.861 0.717964 -0.64066 0.272182
69.3683 105.443 148.832 0.717964 -0.64066 0.272182
67.2845 105.523 149.412 -0.928717 0.0422109 0.368379
67.3209 106.254 149.42 -0.928717 0.0422109 0.368379
67.1282 106.057 148.956 -0.928717 0.0422109 0.368379
67.1182 105.44 148.731 -0.966707 -0.0740185 0.244948
67.2845 105.523 149.412 -0.966707 -0.0740185 0.244948
67.1282 106.057 148.956 -0.966707 -0.0740185 0.244948
67.7708 106.165 149.8 -0.462845 -0.17502 0.868989
67.2845 105.523 149.412 -0.462845 -0.17502 0.868989
67.9088 105.237 149.687 -0.462845 -0.17502 0.868989
67.3209 106.254 149.42 -0.642695 0.0236555 0.765757
67.2845 105.523 149.412 -0.642695 0.0236555 0.765757
67.7708 106.165 149.8 -0.642695 0.0236555 0.765757
69.3683 105.443 148.832 0.945876 -0.00931188 0.324395
69.3323 106.105 148.956 0.945876 -0.00931188 0.324395
69.0842 105.477 149.662 0.945876 -0.00931188 0.324395
69.0842 105.477 149.662 0.941731 0.00573287 0.336318
69.3323 106.105 148.956 0.941731 0.00573287 0.336318
69.0522 106.35 149.736 0.941731 0.00573287 0.336318
67.1282 106.057 148.956 -0.85394 0.500321 0.143057
67.3209 106.254 149.42 -0.85394 0.500321 0.143057
67.3641 106.493 148.841 -0.85394 0.500321 0.143057
67.3209 106.254 149.42 -0.711029 0.666974 0.222675
67.9319 106.988 149.171 -0.711029 0.666974 0.222675
67.3641 106.493 148.841 -0.711029 0.666974 0.222675
67.3209 106.254 149.42 -0.445775 0.597035 0.666959
67.7708 106.165 149.8 -0.445775 0.597035 0.666959
67.9319 106.988 149.171 -0.445775 0.597035 0.666959
67.7708 106.165 149.8 -0.878555 0.386437 0.280726
68.1318 106.956 149.841 -0.878555 0.386437 0.280726
67.9319 106.988 149.171 -0.878555 0.386437 0.280726
69.0422 106.575 149.05 0.701247 0.680537 0.212419
68.3788 107.084 149.607 0.701247 0.680537 0.212419
69.0522 106.35 149.736 0.701247 0.680537 0.212419
68.4718 107.086 148.78 0.645964 0.759751 0.0742156
68.3788 107.084 149.607 0.645964 0.759751 0.0742156
69.0422 106.575 149.05 0.645964 0.759751 0.0742156
69.0522 106.35 149.736 0.854437 0.497353 0.150259
69.3323 106.105 148.956 0.854437 0.497353 0.150259
69.0422 106.575 149.05 0.854437 0.497353 0.150259
67.9319 106.988 149.171 -0.342961 0.927777 0.146998
68.1318 106.956 149.841 -0.342961 0.927777 0.146998
68.3788 107.084 149.607 -0.342961 0.927777 0.146998
68.2012 107.253 148.963 -0.507963 0.788659 0.346397
67.9319 106.988 149.171 -0.507963 0.788659 0.346397
68.3788 107.084 149.607 -0.507963 0.788659 0.346397
68.3788 107.084 149.607 0.555418 0.829091 0.0641822
68.4718 107.086 148.78 0.555418 0.829091 0.0641822
68.2012 107.253 148.963 0.555418 0.829091 0.0641822
68.3571 104.95 149.603 -0.148846 -0.482954 0.862902
68.3276 105.526 149.921 -0.148846 -0.482954 0.862902
67.9088 105.237 149.687 -0.148846 -0.482954 0.862902
68.3276 105.526 149.921 0.261943 -0.455364 0.850899
68.3571 104.95 149.603 0.261943 -0.455364 0.850899
69.0842 105.477 149.662 0.261943 -0.455364 0.850899
68.3276 105.526 149.921 -0.315466 -0.0966613 0.944001
68.2666 106.332 149.983 -0.315466 -0.0966613 0.944001
67.7708 106.165 149.8 -0.315466 -0.0966613 0.944001
67.9088 105.237 149.687 -0.389564 -0.168565 0.905442
68.3276 105.526 149.921 -0.389564 -0.168565 0.905442
67.7708 106.165 149.8 -0.389564 -0.168565 0.905442
69.0842 105.477 149.662 0.29054 -0.306882 0.906317
68.883 106.15 149.954 0.29054 -0.306882 0.906317
68.3276 105.526 149.921 0.29054 -0.306882 0.906317
68.883 106.15 149.954 0.0248285 -0.0749659 0.996877
68.2666 106.332 149.983 0.0248285 -0.0749659 0.996877
68.3276 105.526 149.921 0.0248285 -0.0749659 0.996877
69.0842 105.477 149.662 0.798898 -0.0221514 0.601059
69.0522 106.35 149.736 0.798898 -0.0221514 0.601059
68.883 106.15 149.954 0.798898 -0.0221514 0.601059
68.2666 106.332 149.983 -0.29885 0.150051 0.942429
68.4367 106.864 149.952 -0.29885 0.150051 0.942429
68.1318 106.956 149.841 -0.29885 0.150051 0.942429
67.7708 106.165 149.8 -0.38038 0.126461 0.916143
68.2666 106.332 149.983 -0.38038 0.126461 0.916143
68.1318 106.956 149.841 -0.38038 0.126461 0.916143
69.0522 106.35 149.736 0.670681 0.670798 0.31657
68.3788 107.084 149.607 0.670681 0.670798 0.31657
68.4367 106.864 149.952 0.670681 0.670798 0.31657
69.0522 106.35 149.736 0.555935 0.349328 0.754259
68.4367 106.864 149.952 0.555935 0.349328 0.754259
68.883 106.15 149.954 0.555935 0.349328 0.754259
68.883 106.15 149.954 0.0585188 0.0389294 0.997527
68.4367 106.864 149.952 0.0585188 0.0389294 0.997527
68.2666 106.332 149.983 0.0585188 0.0389294 0.997527
68.1318 106.956 149.841 0.0624091 0.845381 0.530506
68.4367 106.864 149.952 0.0624091 0.845381 0.530506
68.3788 107.084 149.607 0.0624091 0.845381 0.530506
3 0 1 2
3 3 4 5
3 6 7 8
3 9 10 11
3 12 13 14
3 15 16 17
3 18 19 20
3 21 22 23
3 24 25 26
3 27 28 29
3 30 31 32
3 33 34 35
3 36 37 38
3 39 40 41
3 42 43 44
3 45 46 47
3 48 49 50
3 51 52 53
3 54 55 56
3 57 58 59
3 60 61 62
3 63 64 65
3 66 67 68
3 69 70 71
3 72 73 74
3 75 76 77
3 78 79 80
3 81 82 83
3 84 85 86
3 87 88 89
3 90 91 92
3 93 94 95
3 96 97 98
3 99 100 101
3 102 103 104
3 105 106 107
3 108 109 110
3 111 112 113
3 114 115 116
3 117 118 119
3 120 121 122
3 123 124 125
3 126 127 128
3 129 130 131
3 132 133 134
3 135 136 137
3 138 139 140
3 141 142 143
3 144 145 146
3 147 148 149
3 150 151 152
3 153 154 155
3 156 157 158
3 159 160 161
3 162 163 164
3 165 166 167
3 168 169 170
3 171 172 173
3 174 175 176
3 177 178 179
3 180 181 182
3 183 184 185
3 186 187 188
3 189 190 191
3 192 193 194
3 195 196 197
3 198 199 200
3 201 202 203
3 204 205 206
3 207 208 209
3 210 211 212
3 213 214 215
3 216 217 218
3 219 220 221
3 222 223 224
3 225 226 227
3 228 229 230
3 231 232 233
3 234 235 236
3 237 238 239
3 240 241 242
3 243 244 245
3 246 247 248
3 249 250 251
3 252 253 254
3 255 256 257
