ply
format ascii 1.0
element vertex 342
property float x
property float y
property float z
property float nx
property float ny
property float nz
element face 114
property list uint uint vertex_indices
end_header
55.2563 171.904 150.091 -0.245071 -0.924497 -0.291967
55.1985 171.831 150.37 -0.245071 -0.924497 -0.291967
55.0064 171.925 150.236 -0.245071 -0.924497 -0.291967
55.2563 171.904 150.091 0.170166 -0.258341 -0.950949
55.8361 172.005 150.167 0.170166 -0.258341 -0.950949
55.8388 171.835 150.214 0.170166 -0.258341 -0.950949
55.1985 171.831 150.37 -0.0581498 -0.962961 -0.263295
55.2563 171.904 150.091 -0.0581498 -0.962961 -0.263295
55.8388 171.835 150.214 -0.0581498 -0.962961 -0.263295
55.8388 171.835 150.214 0.440545 -0.23111 -0.867472
55.8361 172.005 150.167 0.440545 -0.23111 -0.867472
56.25 171.867 150.414 0.440545 -0.23111 -0.867472
55.2563 171.904 150.091 -0.411169 0.48 -0.774945
55.0064 171.925 150.236 -0.411169 0.48 -0.774945
55.0856 172.157 150.338 -0.411169 0.48 -0.774945
55.8361 172.005 150.167 -0.0242677 0.690366 -0.723053
55.2563 171.904 150.091 -0.0242677 0.690366 -0.723053
55.0856 172.157 150.338 -0.0242677 0.690366 -0.723053
56.0065 172.633 150.739 -0.0299681 0.676562 -0.735775
55.8361 172.005 150.167 -0.0299681 0.676562 -0.735775
55.0856 172.157 150.338 -0.0299681 0.676562 -0.735775
56.25 171.867 150.414 0.562223 0.467436 -0.682208
55.8361 172.005 150.167 0.562223 0.467436 -0.682208
56.0065 172.633 150.739 0.562223 0.467436 -0.682208
57.0593 170.846 151.536 -0.0348771 -0.813977 -0.579849
56.9107 171.187 151.067 -0.0348771 -0.813977 -0.579849
57.2287 171.031 151.266 -0.0348771 -0.813977 -0.579849
55.1985 171.831 150.37 -0.658402 -0.73495 -0.162341
55.0995 171.738 151.196 -0.658402 -0.73495 -0.162341
54.7501 172.093 151.003 -0.658402 -0.73495 -0.162341
55.0064 171.925 150.236 -0.459512 -0.8872 0.0415289
55.1985 171.831 150.37 -0.459512 -0.8872 0.0415289
54.7501 172.093 151.003 -0.459512 -0.8872 0.0415289
55.8388 171.835 150.214 -0.0701249 -0.947502 -0.311964
55.93 171.538 151.098 -0.0701249 -0.947502 -0.311964
55.1985 171.831 150.37 -0.0701249 -0.947502 -0.311964
55.1985 171.831 150.37 -0.24729 -0.958994 -0.138485
55.93 171.538 151.098 -0.24729 -0.958994 -0.138485
55.0995 171.738 151.196 -0.24729 -0.958994 -0.138485
56.25 171.867 150.414 0.58434 -0.18925 -0.789133
56.9575 172.054 150.893 0.58434 -0.18925 -0.789133
56.9107 171.187 151.067 0.58434 -0.18925 -0.789133
56.25 171.867 150.414 -0.301443 -0.796052 -0.524818
56.9107 171.187 151.067 -0.301443 -0.796052 -0.524818
55.93 171.538 151.098 -0.301443 -0.796052 -0.524818
56.25 171.867 150.414 0.232273 -0.91425 -0.331957
55.93 171.538 151.098 0.232273 -0.91425 -0.331957
55.8388 171.835 150.214 0.232273 -0.91425 -0.331957
57.2623 171.698 151.263 0.520146 -0.0294732 -0.853568
57.2287 171.031 151.266 0.520146 -0.0294732 -0.853568
56.9107 171.187 151.067 0.520146 -0.0294732 -0.853568
56.9575 172.054 150.893 0.666717 -0.180494 -0.723125
57.2623 171.698 151.263 0.666717 -0.180494 -0.723125
56.9107 171.187 151.067 0.666717 -0.180494 -0.723125
54.265 172.716 150.907 -0.59918 -0.776843 -0.193642
54.1597 172.728 151.185 -0.59918 -0.776843 -0.193642
53.9902 172.884 151.084 -0.59918 -0.776843 -0.193642
55.0856 172.157 150.338 -0.174212 0.564936 -0.806534
54.265 172.716 150.907 -0.174212 0.564936 -0.806534
54.9423 172.801 150.82 -0.174212 0.564936 -0.806534
55.0856 172.157 150.338 -0.689434 -0.600139 -0.405602
54.7501 172.093 151.003 -0.689434 -0.600139 -0.405602
54.265 172.716 150.907 -0.689434 -0.600139 -0.405602
55.0856 172.157 150.338 -0.817698 0.440871 -0.370139
55.0064 171.925 150.236 -0.817698 0.440871 -0.370139
54.7501 172.093 151.003 -0.817698 0.440871 -0.370139
54.1597 172.728 151.185 -0.743126 -0.618664 -0.254988
54.265 172.716 150.907 -0.743126 -0.618664 -0.254988
54.7501 172.093 151.003 -0.743126 -0.618664 -0.254988
54.9423 172.801 150.82 0.0340801 0.603735 -0.796456
56.0065 172.633 150.739 0.0340801 0.603735 -0.796456
55.0856 172.157 150.338 0.0340801 0.603735 -0.796456
56.0065 172.633 150.739 0.409629 0.462925 -0.786069
56.9575 172.054 150.893 0.409629 0.462925 -0.786069
56.25 171.867 150.414 0.409629 0.462925 -0.786069
56.0065 172.633 150.739 0.238511 0.134996 -0.961711
56.9147 172.781 150.985 0.238511 0.134996 -0.961711
56.9575 172.054 150.893 0.238511 0.134996 -0.961711
57.2555 172.574 151.268 0.776269 0.00942923 -0.630332
57.2623 171.698 151.263 0.776269 0.00942923 -0.630332
56.9575 172.054 150.893 0.776269 0.00942923 -0.630332
56.9147 172.781 150.985 0.679756 0.130785 -0.721684
57.2555 172.574 151.268 0.679756 0.130785 -0.721684
56.9575 172.054 150.893 0.679756 0.130785 -0.721684
54.265 172.716 150.907 -0.0457325 0.688838 -0.723471
53.9902 172.884 151.084 -0.0457325 0.688838 -0.723471
54.3047 172.971 151.147 -0.0457325 0.688838 -0.723471
54.9423 172.801 150.82 -0.176623 0.689413 -0.702505
54.265 172.716 150.907 -0.176623 0.689413 -0.702505
54.3047 172.971 151.147 -0.176623 0.689413 -0.702505
55.2618 173.044 151.222 -0.0266954 0.864743 -0.501504
54.9423 172.801 150.82 -0.0266954 0.864743 -0.501504
54.3047 172.971 151.147 -0.0266954 0.864743 -0.501504
56.0065 172.633 150.739 0.0860643 0.820884 -0.564573
54.9423 172.801 150.82 0.0860643 0.820884 -0.564573
55.2618 173.044 151.222 0.0860643 0.820884 -0.564573
56.299 173.032 151.253 0.0277143 0.7826 -0.621908
56.0065 172.633 150.739 0.0277143 0.7826 -0.621908
55.2618 173.044 151.222 0.0277143 0.7826 -0.621908
56.9147 172.781 150.985 0.0434433 0.777737 -0.627087
56.0065 172.633 150.739 0.0434433 0.777737 -0.627087
56.299 173.032 151.253 0.0434433 0.777737 -0.627087
57.0631 172.954 151.329 0.136885 0.860745 -0.490287
56.9147 172.781 150.985 0.136885 0.860745 -0.490287
56.299 173.032 151.253 0.136885 0.860745 -0.490287
57.2555 172.574 151.268 0.716941 0.448544 -0.53367
56.9147 172.781 150.985 0.716941 0.448544 -0.53367
57.0631 172.954 151.329 0.716941 0.448544 -0.53367
56.3274 170.878 152.057 -0.367375 -0.804062 -0.467462
56.9107 171.187 151.067 -0.367375 -0.804062 -0.467462
57.0593 170.846 151.536 -0.367375 -0.804062 -0.467462
57.2594 171.067 151.99 0.739545 -0.673105 0.00154686
57.0593 170.846 151.536 0.739545 -0.673105 0.00154686
57.2287 171.031 151.266 0.739545 -0.673105 0.00154686
55.0995 171.738 151.196 -0.690487 -0.721824 -0.0468921
55.2376 171.545 152.132 -0.690487 -0.721824 -0.0468921
54.8206 171.956 151.936 -0.690487 -0.721824 -0.0468921
54.7501 172.093 151.003 -0.698052 -0.714156 -0.0520087
55.0995 171.738 151.196 -0.698052 -0.714156 -0.0520087
54.8206 171.956 151.936 -0.698052 -0.714156 -0.0520087
55.8663 171.077 152.057 -0.360308 -0.831469 -0.422892
55.93 171.538 151.098 -0.360308 -0.831469 -0.422892
56.3274 170.878 152.057 -0.360308 -0.831469 -0.422892
55.8663 171.077 152.057 -0.579928 -0.718803 -0.383414
55.2376 171.545 152.132 -0.579928 -0.718803 -0.383414
55.93 171.538 151.098 -0.579928 -0.718803 -0.383414
55.2376 171.545 152.132 -0.248925 -0.955197 -0.160108
55.0995 171.738 151.196 -0.248925 -0.955197 -0.160108
55.93 171.538 151.098 -0.248925 -0.955197 -0.160108
56.9107 171.187 151.067 -0.31393 -0.837889 -0.446532
56.3274 170.878 152.057 -0.31393 -0.837889 -0.446532
55.93 171.538 151.098 -0.31393 -0.837889 -0.446532
57.2287 171.031 151.266 0.99793 -0.0504374 -0.0398868
57.2623 171.698 151.263 0.99793 -0.0504374 -0.0398868
57.2594 171.067 151.99 0.99793 -0.0504374 -0.0398868
57.2594 171.067 151.99 0.995162 -0.0760848 -0.0621611
57.2623 171.698 151.263 0.995162 -0.0760848 -0.0621611
57.3266 171.877 152.074 0.995162 -0.0760848 -0.0621611
54.1597 172.728 151.185 -0.713839 -0.409047 0.568432
54.1936 172.911 151.359 -0.713839 -0.409047 0.568432
53.9902 172.884 151.084 -0.713839 -0.409047 0.568432
54.1597 172.728 151.185 -0.815409 -0.312882 0.487045
54.7004 172.69 152.065 -0.815409 -0.312882 0.487045
54.1936 172.911 151.359 -0.815409 -0.312882 0.487045
54.1597 172.728 151.185 -0.630545 -0.689023 0.357295
54.7501 172.093 151.003 -0.630545 -0.689023 0.357295
54.7004 172.69 152.065 -0.630545 -0.689023 0.357295
54.7501 172.093 151.003 -0.984202 -0.170023 0.0493767
54.8206 171.956 151.936 -0.984202 -0.170023 0.0493767
54.7004 172.69 152.065 -0.984202 -0.170023 0.0493767
57.2623 171.698 151.263 0.996691 0.0081972 -0.0808711
57.2555 172.574 151.268 0.996691 0.0081972 -0.0808711
57.3266 171.877 152.074 0.996691 0.0081972 -0.0808711
57.3266 171.877 152.074 0.997322 0.0664282 -0.0306006
57.2555 172.574 151.268 0.997322 0.0664282 -0.0306006
57.2721 172.7 152.084 0.997322 0.0664282 -0.0306006
53.9902 172.884 151.084 -0.288732 0.950196 0.117308
54.1936 172.911 151.359 -0.288732 0.950196 0.117308
54.3047 172.971 151.147 -0.288732 0.950196 0.117308
54.1936 172.911 151.359 -0.56516 0.579129 0.58754
54.7004 172.69 152.065 -0.56516 0.579129 0.58754
55.028 173.067 152.009 -0.56516 0.579129 0.58754
54.1936 172.911 151.359 -0.275103 0.953213 0.12531
55.028 173.067 152.009 -0.275103 0.953213 0.12531
54.3047 172.971 151.147 -0.275103 0.953213 0.12531
54.3047 172.971 151.147 -0.0720162 0.996148 -0.0500275
55.028 173.067 152.009 -0.0720162 0.996148 -0.0500275
55.2618 173.044 151.222 -0.0720162 0.996148 -0.0500275
56.299 173.032 151.253 0.0140473 0.997218 -0.0732092
55.2618 173.044 151.222 0.0140473 0.997218 -0.0732092
56.0774 173.096 152.089 0.0140473 0.997218 -0.0732092
55.2618 173.044 151.222 -0.0253663 0.999021 -0.0362461
55.028 173.067 152.009 -0.0253663 0.999021 -0.0362461
56.0774 173.096 152.089 -0.0253663 0.999021 -0.0362461
57.0631 172.954 151.329 0.106514 0.993106 -0.0489512
56.299 173.032 151.253 0.106514 0.993106 -0.0489512
56.9597 173.003 152.096 0.106514 0.993106 -0.0489512
56.299 173.032 151.253 0.105987 0.993182 -0.0485353
56.0774 173.096 152.089 0.105987 0.993182 -0.0485353
56.9597 173.003 152.096 0.105987 0.993182 -0.0485353
57.2721 172.7 152.084 0.882831 0.461126 -0.0892907
57.2555 172.574 151.268 0.882831 0.461126 -0.0892907
57.0631 172.954 151.329 0.882831 0.461126 -0.0892907
56.9597 173.003 152.096 0.696014 0.716406 0.048234
57.2721 172.7 152.084 0.696014 0.716406 0.048234
57.0631 172.954 151.329 0.696014 0.716406 0.048234
56.3274 170.878 152.057 -0.360137 -0.931893 -0.0433286
56.3314 170.835 152.943 -0.360137 -0.931893 -0.0433286
55.8658 171.022 152.784 -0.360137 -0.931893 -0.0433286
55.8663 171.077 152.057 -0.396459 -0.915407 -0.0696388
56.3274 170.878 152.057 -0.396459 -0.915407 -0.0696388
55.8658 171.022 152.784 -0.396459 -0.915407 -0.0696388
57.0593 170.846 151.536 -0.054219 -0.998417 -0.0149866
56.9886 170.832 152.688 -0.054219 -0.998417 -0.0149866
56.3274 170.878 152.057 -0.054219 -0.998417 -0.0149866
56.3274 170.878 152.057 -0.022648 -0.998587 -0.0480675
56.9886 170.832 152.688 -0.022648 -0.998587 -0.0480675
56.3314 170.835 152.943 -0.022648 -0.998587 -0.0480675
56.9886 170.832 152.688 0.703893 -0.709445 0.0349578
57.0593 170.846 151.536 0.703893 -0.709445 0.0349578
57.2594 171.067 151.99 0.703893 -0.709445 0.0349578
57.2218 171.186 152.865 0.801796 -0.586575 0.114249
56.9886 170.832 152.688 0.801796 -0.586575 0.114249
57.2594 171.067 151.99 0.801796 -0.586575 0.114249
55.2376 171.545 152.132 -0.783616 -0.61927 0.0495043
55.2734 171.566 152.969 -0.783616 -0.61927 0.0495043
54.9118 172.009 152.784 -0.783616 -0.61927 0.0495043
54.8206 171.956 151.936 -0.725404 -0.677744 0.120218
55.2376 171.545 152.132 -0.725404 -0.677744 0.120218
54.9118 172.009 152.784 -0.725404 -0.677744 0.120218
55.8658 171.022 152.784 -0.600132 -0.797583 -0.0608517
55.2376 171.545 152.132 -0.600132 -0.797583 -0.0608517
55.8663 171.077 152.057 -0.600132 -0.797583 -0.0608517
55.2734 171.566 152.969 -0.667565 -0.743021 0.0477175
55.2376 171.545 152.132 -0.667565 -0.743021 0.0477175
55.8658 171.022 152.784 -0.667565 -0.743021 0.0477175
57.2594 171.067 151.99 0.994598 -0.0881665 0.0547805
57.3266 171.877 152.074 0.994598 -0.0881665 0.0547805
57.2218 171.186 152.865 0.994598 -0.0881665 0.0547805
57.2218 171.186 152.865 0.994112 -0.0325333 0.103357
57.3266 171.877 152.074 0.994112 -0.0325333 0.103357
57.2478 172.062 152.89 0.994112 -0.0325333 0.103357
54.8206 171.956 151.936 -0.976653 -0.180603 0.116324
54.9118 172.009 152.784 -0.976653 -0.180603 0.116324
54.7004 172.69 152.065 -0.976653 -0.180603 0.116324
54.9118 172.009 152.784 -0.965365 -0.0257713 0.259627
54.9518 172.648 152.996 -0.965365 -0.0257713 0.259627
54.7004 172.69 152.065 -0.965365 -0.0257713 0.259627
57.3266 171.877 152.074 0.994573 0.0648848 0.0813343
57.2721 172.7 152.084 0.994573 0.0648848 0.0813343
57.2478 172.062 152.89 0.994573 0.0648848 0.0813343
57.2478 172.062 152.89 0.991294 0.0870531 0.0987843
57.2721 172.7 152.084 0.991294 0.0870531 0.0987843
57.1883 172.781 152.854 0.991294 0.0870531 0.0987843
54.7004 172.69 152.065 -0.762008 0.604332 0.232651
54.9518 172.648 152.996 -0.762008 0.604332 0.232651
55.1949 172.964 152.973 -0.762008 0.604332 0.232651
55.028 173.067 152.009 -0.72554 0.659654 0.196082
54.7004 172.69 152.065 -0.72554 0.659654 0.196082
55.1949 172.964 152.973 -0.72554 0.659654 0.196082
56.0774 173.096 152.089 -0.0318997 0.998291 0.0489689
55.028 173.067 152.009 -0.0318997 0.998291 0.0489689
55.9304 173.051 152.926 -0.0318997 0.998291 0.0489689
55.028 173.067 152.009 -0.108644 0.986284 0.124256
55.1949 172.964 152.973 -0.108644 0.986284 0.124256
55.9304 173.051 152.926 -0.108644 0.986284 0.124256
56.9597 173.003 152.096 0.105172 0.992596 0.0607702
56.0774 173.096 152.089 0.105172 0.992596 0.0607702
56.7656 172.965 153.05 0.105172 0.992596 0.0607702
56.0774 173.096 152.089 0.0918097 0.993282 0.0704337
55.9304 173.051 152.926 0.0918097 0.993282 0.0704337
56.7656 172.965 153.05 0.0918097 0.993282 0.0704337
57.1883 172.781 152.854 0.695934 0.718106 0.000301193
57.2721 172.7 152.084 0.695934 0.718106 0.000301193
56.9597 173.003 152.096 0.695934 0.718106 0.000301193
56.7656 172.965 153.05 0.444404 0.886989 0.125517
57.1883 172.781 152.854 0.444404 0.886989 0.125517
56.9597 173.003 152.096 0.444404 0.886989 0.125517
56.3314 170.835 152.943 -0.466453 -0.660158 0.588739
56.095 171.207 153.173 -0.466453 -0.660158 0.588739
55.8658 171.022 152.784 -0.466453 -0.660158 0.588739
56.3314 170.835 152.943 0.144749 -0.912869 0.381731
56.9886 170.832 152.688 0.144749 -0.912869 0.381731
56.9111 170.997 153.112 0.144749 -0.912869 0.381731
56.095 171.207 153.173 -0.0822746 -0.561076 0.823666
56.3314 170.835 152.943 -0.0822746 -0.561076 0.823666
56.9111 170.997 153.112 -0.0822746 -0.561076 0.823666
56.9886 170.832 152.688 0.678941 -0.633751 0.370674
57.2218 171.186 152.865 0.678941 -0.633751 0.370674
56.9111 170.997 153.112 0.678941 -0.633751 0.370674
55.2734 171.566 152.969 -0.739399 -0.368299 0.5636
55.2511 171.973 153.205 -0.739399 -0.368299 0.5636
54.9118 172.009 152.784 -0.739399 -0.368299 0.5636
55.2734 171.566 152.969 -0.44275 -0.680159 0.584257
55.8658 171.022 152.784 -0.44275 -0.680159 0.584257
56.095 171.207 153.173 -0.44275 -0.680159 0.584257
55.2734 171.566 152.969 -0.402648 -0.476511 0.781545
56.095 171.207 153.173 -0.402648 -0.476511 0.781545
55.2511 171.973 153.205 -0.402648 -0.476511 0.781545
55.2511 171.973 153.205 -0.124572 -0.17829 0.976061
56.095 171.207 153.173 -0.124572 -0.17829 0.976061
56.1154 172.069 153.333 -0.124572 -0.17829 0.976061
56.9111 170.997 153.112 0.0499996 -0.0955311 0.99417
56.9466 171.72 153.18 0.0499996 -0.0955311 0.99417
56.095 171.207 153.173 0.0499996 -0.0955311 0.99417
56.9466 171.72 153.18 0.103443 -0.183946 0.977478
56.1154 172.069 153.333 0.103443 -0.183946 0.977478
56.095 171.207 153.173 0.103443 -0.183946 0.977478
57.2218 171.186 152.865 0.716072 -0.0417449 0.696777
57.2478 172.062 152.89 0.716072 -0.0417449 0.696777
56.9466 171.72 153.18 0.716072 -0.0417449 0.696777
56.9111 170.997 153.112 0.656556 -0.102153 0.747328
57.2218 171.186 152.865 0.656556 -0.102153 0.747328
56.9466 171.72 153.18 0.656556 -0.102153 0.747328
55.2511 171.973 153.205 -0.640847 -0.0466753 0.766248
55.3678 172.704 153.347 -0.640847 -0.0466753 0.766248
54.9518 172.648 152.996 -0.640847 -0.0466753 0.766248
54.9118 172.009 152.784 -0.775985 -0.154458 0.611547
55.2511 171.973 153.205 -0.775985 -0.154458 0.611547
54.9518 172.648 152.996 -0.775985 -0.154458 0.611547
55.3678 172.704 153.347 -0.309774 -0.384271 0.869699
56.1154 172.069 153.333 -0.309774 -0.384271 0.869699
56.2035 172.772 153.675 -0.309774 -0.384271 0.869699
55.3678 172.704 153.347 -0.125713 -0.169876 0.977414
55.2511 171.973 153.205 -0.125713 -0.169876 0.977414
56.1154 172.069 153.333 -0.125713 -0.169876 0.977414
56.2035 172.772 153.675 0.3783 -0.442914 0.812845
56.1154 172.069 153.333 0.3783 -0.442914 0.812845
56.9432 172.592 153.233 0.3783 -0.442914 0.812845
56.1154 172.069 153.333 0.157264 -0.0594353 0.985766
56.9466 171.72 153.18 0.157264 -0.0594353 0.985766
56.9432 172.592 153.233 0.157264 -0.0594353 0.985766
57.2478 172.062 152.89 0.812944 0.0963471 0.574316
57.1883 172.781 152.854 0.812944 0.0963471 0.574316
56.9432 172.592 153.233 0.812944 0.0963471 0.574316
56.9466 171.72 153.18 0.714987 -0.0397443 0.698007
57.2478 172.062 152.89 0.714987 -0.0397443 0.698007
56.9432 172.592 153.233 0.714987 -0.0397443 0.698007
54.9518 172.648 152.996 -0.59563 0.504505 0.62506
55.3678 172.704 153.347 -0.59563 0.504505 0.62506
55.1949 172.964 152.973 -0.59563 0.504505 0.62506
55.3678 172.704 153.347 -0.50158 0.584932 0.637395
55.9673 172.946 153.598 -0.50158 0.584932 0.637395
55.1949 172.964 152.973 -0.50158 0.584932 0.637395
55.1949 172.964 152.973 -0.105828 0.98153 0.159373
55.9673 172.946 153.598 -0.105828 0.98153 0.159373
55.9304 173.051 152.926 -0.105828 0.98153 0.159373
56.2035 172.772 153.675 0.52084 0.562127 0.642447
56.9432 172.592 153.233 0.52084 0.562127 0.642447
56.7656 172.965 153.05 0.52084 0.562127 0.642447
56.2035 172.772 153.675 0.365208 0.744623 0.558712
56.7656 172.965 153.05 0.365208 0.744623 0.558712
55.9673 172.946 153.598 0.365208 0.744623 0.558712
55.9673 172.946 153.598 0.0791799 0.985539 0.149814
56.7656 172.965 153.05 0.0791799 0.985539 0.149814
55.9304 173.051 152.926 0.0791799 0.985539 0.149814
57.1883 172.781 152.854 0.537012 0.562913 0.628289
56.7656 172.965 153.05 0.537012 0.562913 0.628289
56.9432 172.592 153.233 0.537012 0.562913 0.628289
55.3678 172.704 153.347 -0.358721 -0.073826 0.930521
56.2035 172.772 153.675 -0.358721 -0.073826 0.930521
55.9673 172.946 153.598 -0.358721 -0.073826 0.930521
3 0 1 2
3 3 4 5
3 6 7 8
3 9 10 11
3 12 13 14
3 15 16 17
3 18 19 20
3 21 22 23
3 24 25 26
3 27 28 29
3 30 31 32
3 33 34 35
3 36 37 38
3 39 40 41
3 42 43 44
3 45 46 47
3 48 49 50
3 51 52 53
3 54 55 56
3 57 58 59
3 60 61 62
3 63 64 65
3 66 67 68
3 69 70 71
3 72 73 74
3 75 76 77
3 78 79 80
3 81 82 83
3 84 85 86
3 87 88 89
3 90 91 92
3 93 94 95
3 96 97 98
3 99 100 101
3 102 103 104
3 105 106 107
3 108 109 110
3 111 112 113
3 114 115 116
3 117 118 119
3 120 121 122
3 123 124 125
3 126 127 128
3 129 130 131
3 132 133 134
3 135 136 137
3 138 139 140
3 141 142 143
3 144 145 146
3 147 148 149
3 150 151 152
3 153 154 155
3 156 157 158
3 159 160 161
3 162 163 164
3 165 166 167
3 168 169 170
3 171 172 173
3 174 175 176
3 177 178 179
3 180 181 182
3 183 184 185
3 186 187 188
3 189 190 191
3 192 193 194
3 195 196 197
3 198 199 200
3 201 202 203
3 204 205 206
3 207 208 209
3 210 211 212
3 213 214 215
3 216 217 218
3 219 220 221
3 222 223 224
3 225 226 227
3 228 229 230
3 231 232 233
3 234 235 236
3 237 238 239
3 240 241 242
3 243 244 245
3 246 247 248
3 249 250 251
3 252 253 254
3 255 256 257
3 258 259 260
3 261 262 263
3 264 265 266
3 267 268 269
3 270 271 272
3 273 274 275
3 276 277 278
3 279 280 281
3 282 283 284
3 285 286 287
3 288 289 290
3 291 292 293
3 294 295 296
3 297 298 299
3 300 301 302
3 303 304 305
3 306 307 308
3 309 310 311
3 312 313 314
3 315 316 317
3 318 319 320
3 321 322 323
3 324 325 326
3 327 328 329
3 330 331 332
3 333 334 335
3 336 337 338
3 339 340 341
