solid ascii
 facet normal -0.478998 -0.260574 -0.83825
  outer loop
   vertex 62.6947 164.793 158.351
   vertex 62.5461 164.442 158.545
   vertex 62.3835 164.855 158.51
  endloop
 endfacet
 facet normal 0.379084 -0.566041 -0.732047
  outer loop
   vertex 62.5461 164.442 158.545
   vertex 62.6947 164.793 158.351
   vertex 62.8211 164.463 158.671
  endloop
 endfacet
 facet normal -0.452672 0.00756672 -0.891645
  outer loop
   vertex 62.6678 165.374 158.37
   vertex 62.6947 164.793 158.351
   vertex 62.3835 164.855 158.51
  endloop
 endfacet
 facet normal -0.602056 0.116702 -0.78988
  outer loop
   vertex 62.3751 165.495 158.611
   vertex 62.6678 165.374 158.37
   vertex 62.3835 164.855 158.51
  endloop
 endfacet
 facet normal 0.856697 -0.15075 -0.4933
  outer loop
   vertex 62.9259 165.267 158.608
   vertex 62.8211 164.463 158.671
   vertex 62.6947 164.793 158.351
  endloop
 endfacet
 facet normal 0.689127 0.0550918 -0.722544
  outer loop
   vertex 62.6678 165.374 158.37
   vertex 62.9259 165.267 158.608
   vertex 62.6947 164.793 158.351
  endloop
 endfacet
 facet normal -0.105217 0.831703 -0.545161
  outer loop
   vertex 62.6678 165.374 158.37
   vertex 62.3751 165.495 158.611
   vertex 62.8036 165.652 158.767
  endloop
 endfacet
 facet normal 0.699329 0.451307 -0.554311
  outer loop
   vertex 62.9259 165.267 158.608
   vertex 62.6678 165.374 158.37
   vertex 62.8036 165.652 158.767
  endloop
 endfacet
 facet normal -0.42151 -0.498041 -0.757815
  outer loop
   vertex 61.6952 163.695 159.239
   vertex 61.7173 163.28 159.499
   vertex 61.3102 163.505 159.578
  endloop
 endfacet
 facet normal -0.0826498 -0.609078 -0.788792
  outer loop
   vertex 61.6952 163.695 159.239
   vertex 62.493 163.82 159.059
   vertex 62.3763 163.265 159.5
  endloop
 endfacet
 facet normal -0.0117671 -0.532009 -0.846657
  outer loop
   vertex 61.7173 163.28 159.499
   vertex 61.6952 163.695 159.239
   vertex 62.3763 163.265 159.5
  endloop
 endfacet
 facet normal 0.414508 -0.617755 -0.668253
  outer loop
   vertex 62.3763 163.265 159.5
   vertex 62.493 163.82 159.059
   vertex 62.8725 163.546 159.547
  endloop
 endfacet
 facet normal -0.485356 -0.402091 -0.776371
  outer loop
   vertex 61.3102 163.505 159.578
   vertex 60.8561 164.341 159.429
   vertex 61.6952 163.695 159.239
  endloop
 endfacet
 facet normal -0.383277 -0.235055 -0.893223
  outer loop
   vertex 61.6952 163.695 159.239
   vertex 60.8561 164.341 159.429
   vertex 61.8096 164.466 158.987
  endloop
 endfacet
 facet normal -0.501975 -0.268265 -0.822226
  outer loop
   vertex 62.5461 164.442 158.545
   vertex 61.8096 164.466 158.987
   vertex 62.3835 164.855 158.51
  endloop
 endfacet
 facet normal -0.443335 -0.547911 -0.709399
  outer loop
   vertex 62.5461 164.442 158.545
   vertex 62.493 163.82 159.059
   vertex 61.8096 164.466 158.987
  endloop
 endfacet
 facet normal -0.168665 -0.283505 -0.944022
  outer loop
   vertex 62.493 163.82 159.059
   vertex 61.6952 163.695 159.239
   vertex 61.8096 164.466 158.987
  endloop
 endfacet
 facet normal 0.368324 -0.61043 -0.701222
  outer loop
   vertex 62.493 163.82 159.059
   vertex 62.5461 164.442 158.545
   vertex 62.8211 164.463 158.671
  endloop
 endfacet
 facet normal 0.416774 -0.615617 -0.668816
  outer loop
   vertex 62.493 163.82 159.059
   vertex 62.8211 164.463 158.671
   vertex 62.8725 163.546 159.547
  endloop
 endfacet
 facet normal 0.876471 -0.30597 -0.371726
  outer loop
   vertex 62.8725 163.546 159.547
   vertex 62.8211 164.463 158.671
   vertex 63.1622 164.497 159.448
  endloop
 endfacet
 facet normal -0.610184 0.0189358 -0.792034
  outer loop
   vertex 60.8561 164.341 159.429
   vertex 60.4728 164.506 159.728
   vertex 60.7738 164.87 159.505
  endloop
 endfacet
 facet normal -0.550035 0.677253 -0.488661
  outer loop
   vertex 60.7738 164.87 159.505
   vertex 61.3225 165.444 159.683
   vertex 61.5982 165.263 159.122
  endloop
 endfacet
 facet normal -0.443533 0.0595825 -0.894275
  outer loop
   vertex 60.7738 164.87 159.505
   vertex 61.5982 165.263 159.122
   vertex 60.8561 164.341 159.429
  endloop
 endfacet
 facet normal -0.424718 0.0410769 -0.904394
  outer loop
   vertex 60.8561 164.341 159.429
   vertex 61.5982 165.263 159.122
   vertex 61.8096 164.466 158.987
  endloop
 endfacet
 facet normal -0.570829 0.120619 -0.812161
  outer loop
   vertex 62.3835 164.855 158.51
   vertex 61.5982 165.263 159.122
   vertex 62.3751 165.495 158.611
  endloop
 endfacet
 facet normal -0.625483 -0.033397 -0.779523
  outer loop
   vertex 61.8096 164.466 158.987
   vertex 61.5982 165.263 159.122
   vertex 62.3835 164.855 158.51
  endloop
 endfacet
 facet normal 0.735401 -0.383805 -0.558462
  outer loop
   vertex 63.6532 165.315 159.532
   vertex 63.1622 164.497 159.448
   vertex 62.9259 165.267 158.608
  endloop
 endfacet
 facet normal 0.907668 -0.14943 -0.392185
  outer loop
   vertex 63.1622 164.497 159.448
   vertex 62.8211 164.463 158.671
   vertex 62.9259 165.267 158.608
  endloop
 endfacet
 facet normal -0.500581 0.721376 -0.478577
  outer loop
   vertex 61.5982 165.263 159.122
   vertex 61.3225 165.444 159.683
   vertex 61.9748 165.722 159.421
  endloop
 endfacet
 facet normal -0.517666 0.722347 -0.458515
  outer loop
   vertex 62.3751 165.495 158.611
   vertex 61.5982 165.263 159.122
   vertex 61.9748 165.722 159.421
  endloop
 endfacet
 facet normal -0.203604 0.911847 -0.356483
  outer loop
   vertex 62.3751 165.495 158.611
   vertex 61.9748 165.722 159.421
   vertex 62.8036 165.652 158.767
  endloop
 endfacet
 facet normal -0.0515016 0.983877 -0.171272
  outer loop
   vertex 62.8036 165.652 158.767
   vertex 61.9748 165.722 159.421
   vertex 62.8404 165.792 159.557
  endloop
 endfacet
 facet normal 0.688955 0.452831 -0.565937
  outer loop
   vertex 63.6532 165.315 159.532
   vertex 62.9259 165.267 158.608
   vertex 62.8036 165.652 158.767
  endloop
 endfacet
 facet normal 0.700897 0.25991 -0.664221
  outer loop
   vertex 63.6532 165.315 159.532
   vertex 62.8036 165.652 158.767
   vertex 63.5356 165.698 159.558
  endloop
 endfacet
 facet normal 0.131673 0.975136 -0.178247
  outer loop
   vertex 63.5356 165.698 159.558
   vertex 62.8036 165.652 158.767
   vertex 62.8404 165.792 159.557
  endloop
 endfacet
 facet normal -0.526762 -0.749775 -0.400449
  outer loop
   vertex 61.7293 162.776 160.113
   vertex 61.7721 162.418 160.726
   vertex 61.3699 162.744 160.644
  endloop
 endfacet
 facet normal -0.0548505 -0.796288 -0.602425
  outer loop
   vertex 61.7293 162.776 160.113
   vertex 62.5738 162.75 160.069
   vertex 62.4399 162.439 160.493
  endloop
 endfacet
 facet normal -0.144261 -0.859157 -0.490956
  outer loop
   vertex 61.7721 162.418 160.726
   vertex 61.7293 162.776 160.113
   vertex 62.4399 162.439 160.493
  endloop
 endfacet
 facet normal 0.536882 -0.751766 -0.382891
  outer loop
   vertex 62.4399 162.439 160.493
   vertex 62.5738 162.75 160.069
   vertex 62.844 162.724 160.5
  endloop
 endfacet
 facet normal -0.59906 -0.666017 -0.444465
  outer loop
   vertex 61.7293 162.776 160.113
   vertex 61.3699 162.744 160.644
   vertex 60.8517 163.426 160.322
  endloop
 endfacet
 facet normal -0.59965 -0.668053 -0.440597
  outer loop
   vertex 61.7293 162.776 160.113
   vertex 60.8517 163.426 160.322
   vertex 61.3102 163.505 159.578
  endloop
 endfacet
 facet normal -0.482814 -0.681333 -0.55016
  outer loop
   vertex 61.7293 162.776 160.113
   vertex 61.3102 163.505 159.578
   vertex 61.7173 163.28 159.499
  endloop
 endfacet
 facet normal -0.0172728 -0.772824 -0.634386
  outer loop
   vertex 62.3763 163.265 159.5
   vertex 61.7293 162.776 160.113
   vertex 61.7173 163.28 159.499
  endloop
 endfacet
 facet normal -0.0563873 -0.750819 -0.658097
  outer loop
   vertex 62.5738 162.75 160.069
   vertex 61.7293 162.776 160.113
   vertex 62.3763 163.265 159.5
  endloop
 endfacet
 facet normal 0.407796 -0.60303 -0.685607
  outer loop
   vertex 62.5738 162.75 160.069
   vertex 62.3763 163.265 159.5
   vertex 62.8725 163.546 159.547
  endloop
 endfacet
 facet normal 0.684885 -0.56167 -0.464177
  outer loop
   vertex 62.5738 162.75 160.069
   vertex 62.8725 163.546 159.547
   vertex 62.844 162.724 160.5
  endloop
 endfacet
 facet normal 0.857505 -0.40192 -0.321163
  outer loop
   vertex 62.844 162.724 160.5
   vertex 62.8725 163.546 159.547
   vertex 63.2211 163.526 160.503
  endloop
 endfacet
 facet normal -0.542374 -0.585355 -0.602652
  outer loop
   vertex 60.8561 164.341 159.429
   vertex 60.8517 163.426 160.322
   vertex 60.4812 163.901 160.193
  endloop
 endfacet
 facet normal -0.660391 -0.463793 -0.590576
  outer loop
   vertex 60.8561 164.341 159.429
   vertex 60.4812 163.901 160.193
   vertex 60.4728 164.506 159.728
  endloop
 endfacet
 facet normal -0.999574 -0.0252097 -0.0147109
  outer loop
   vertex 60.4728 164.506 159.728
   vertex 60.4812 163.901 160.193
   vertex 60.4667 164.398 160.326
  endloop
 endfacet
 facet normal -0.722567 -0.480979 -0.496544
  outer loop
   vertex 61.3102 163.505 159.578
   vertex 60.8517 163.426 160.322
   vertex 60.8561 164.341 159.429
  endloop
 endfacet
 facet normal 0.677983 -0.521799 -0.51775
  outer loop
   vertex 63.8116 164.287 160.51
   vertex 63.2211 163.526 160.503
   vertex 63.1622 164.497 159.448
  endloop
 endfacet
 facet normal 0.892162 -0.306586 -0.331742
  outer loop
   vertex 63.2211 163.526 160.503
   vertex 62.8725 163.546 159.547
   vertex 63.1622 164.497 159.448
  endloop
 endfacet
 facet normal -0.877907 0.472727 0.0762102
  outer loop
   vertex 60.4728 164.506 159.728
   vertex 60.4667 164.398 160.326
   vertex 60.6887 164.836 160.167
  endloop
 endfacet
 facet normal -0.789461 0.609769 -0.0702302
  outer loop
   vertex 60.7738 164.87 159.505
   vertex 60.4728 164.506 159.728
   vertex 60.6887 164.836 160.167
  endloop
 endfacet
 facet normal -0.713156 0.698773 -0.0558963
  outer loop
   vertex 60.6887 164.836 160.167
   vertex 61.3225 165.444 159.683
   vertex 60.7738 164.87 159.505
  endloop
 endfacet
 facet normal -0.662266 0.745995 0.0699737
  outer loop
   vertex 61.3091 165.346 160.601
   vertex 61.3225 165.444 159.683
   vertex 60.6887 164.836 160.167
  endloop
 endfacet
 facet normal 0.747627 -0.393553 -0.534948
  outer loop
   vertex 63.1622 164.497 159.448
   vertex 63.6532 165.315 159.532
   vertex 63.8116 164.287 160.51
  endloop
 endfacet
 facet normal 0.766582 -0.37656 -0.520149
  outer loop
   vertex 63.8116 164.287 160.51
   vertex 63.6532 165.315 159.532
   vertex 64.1386 164.823 160.604
  endloop
 endfacet
 facet normal 0.924027 0.195048 -0.32883
  outer loop
   vertex 64.1386 164.823 160.604
   vertex 63.6532 165.315 159.532
   vertex 63.8919 165.494 160.309
  endloop
 endfacet
 facet normal -0.595298 0.799835 0.0767027
  outer loop
   vertex 61.3225 165.444 159.683
   vertex 61.3091 165.346 160.601
   vertex 61.7929 165.723 160.421
  endloop
 endfacet
 facet normal -0.41747 0.90545 -0.0766738
  outer loop
   vertex 61.9748 165.722 159.421
   vertex 61.3225 165.444 159.683
   vertex 61.7929 165.723 160.421
  endloop
 endfacet
 facet normal -0.076896 0.996901 -0.0165776
  outer loop
   vertex 62.8404 165.792 159.557
   vertex 61.9748 165.722 159.421
   vertex 62.6948 165.794 160.407
  endloop
 endfacet
 facet normal -0.0788013 0.996775 -0.0151784
  outer loop
   vertex 61.9748 165.722 159.421
   vertex 61.7929 165.723 160.421
   vertex 62.6948 165.794 160.407
  endloop
 endfacet
 facet normal 0.133634 0.990663 -0.0269913
  outer loop
   vertex 63.5356 165.698 159.558
   vertex 62.8404 165.792 159.557
   vertex 63.5719 165.716 160.409
  endloop
 endfacet
 facet normal 0.0889924 0.995962 0.0118194
  outer loop
   vertex 62.8404 165.792 159.557
   vertex 62.6948 165.794 160.407
   vertex 63.5719 165.716 160.409
  endloop
 endfacet
 facet normal 0.891475 0.296901 -0.342231
  outer loop
   vertex 63.8919 165.494 160.309
   vertex 63.6532 165.315 159.532
   vertex 63.5356 165.698 159.558
  endloop
 endfacet
 facet normal 0.561254 0.826593 -0.0416915
  outer loop
   vertex 63.5719 165.716 160.409
   vertex 63.8919 165.494 160.309
   vertex 63.5356 165.698 159.558
  endloop
 endfacet
 facet normal -0.613319 -0.788573 -0.0446295
  outer loop
   vertex 61.7721 162.418 160.726
   vertex 61.7203 162.412 161.539
   vertex 61.4689 162.619 161.342
  endloop
 endfacet
 facet normal -0.622705 -0.78074 -0.051805
  outer loop
   vertex 61.3699 162.744 160.644
   vertex 61.7721 162.418 160.726
   vertex 61.4689 162.619 161.342
  endloop
 endfacet
 facet normal 0.0197524 -0.999276 -0.0325032
  outer loop
   vertex 62.4399 162.439 160.493
   vertex 62.443 162.412 161.313
   vertex 61.7721 162.418 160.726
  endloop
 endfacet
 facet normal -0.00241024 -0.999971 -0.00717505
  outer loop
   vertex 61.7721 162.418 160.726
   vertex 62.443 162.412 161.313
   vertex 61.7203 162.412 161.539
  endloop
 endfacet
 facet normal 0.5768 -0.816382 -0.0286733
  outer loop
   vertex 62.443 162.412 161.313
   vertex 62.4399 162.439 160.493
   vertex 62.844 162.724 160.5
  endloop
 endfacet
 facet normal 0.601065 -0.799136 -0.0100924
  outer loop
   vertex 62.9311 162.779 161.377
   vertex 62.443 162.412 161.313
   vertex 62.844 162.724 160.5
  endloop
 endfacet
 facet normal -0.79199 -0.541493 0.282025
  outer loop
   vertex 60.8517 163.426 160.322
   vertex 60.6923 163.846 160.68
   vertex 60.4812 163.901 160.193
  endloop
 endfacet
 facet normal -0.787205 -0.545107 0.288387
  outer loop
   vertex 60.8517 163.426 160.322
   vertex 61.2624 163.376 161.349
   vertex 60.6923 163.846 160.68
  endloop
 endfacet
 facet normal -0.82209 -0.480497 0.305437
  outer loop
   vertex 60.8517 163.426 160.322
   vertex 61.3699 162.744 160.644
   vertex 61.2624 163.376 161.349
  endloop
 endfacet
 facet normal -0.960711 -0.262823 0.0892101
  outer loop
   vertex 61.3699 162.744 160.644
   vertex 61.4689 162.619 161.342
   vertex 61.2624 163.376 161.349
  endloop
 endfacet
 facet normal 0.554583 -0.769695 -0.31624
  outer loop
   vertex 63.5465 163.343 161.52
   vertex 63.2211 163.526 160.503
   vertex 63.7199 163.646 161.085
  endloop
 endfacet
 facet normal 0.67774 -0.654598 -0.334918
  outer loop
   vertex 63.5465 163.343 161.52
   vertex 62.9311 162.779 161.377
   vertex 63.2211 163.526 160.503
  endloop
 endfacet
 facet normal 0.903188 -0.424545 -0.0633525
  outer loop
   vertex 62.9311 162.779 161.377
   vertex 62.844 162.724 160.5
   vertex 63.2211 163.526 160.503
  endloop
 endfacet
 facet normal 0.631658 -0.73089 -0.258472
  outer loop
   vertex 63.5465 163.343 161.52
   vertex 63.7199 163.646 161.085
   vertex 64.0599 163.764 161.584
  endloop
 endfacet
 facet normal -0.764901 0.0953255 0.637055
  outer loop
   vertex 60.6923 163.846 160.68
   vertex 60.731 164.585 160.616
   vertex 60.4667 164.398 160.326
  endloop
 endfacet
 facet normal -0.914942 -0.128948 0.38243
  outer loop
   vertex 60.4812 163.901 160.193
   vertex 60.6923 163.846 160.68
   vertex 60.4667 164.398 160.326
  endloop
 endfacet
 facet normal -0.758216 0.00873399 0.651945
  outer loop
   vertex 61.3302 164.425 161.414
   vertex 60.6923 163.846 160.68
   vertex 61.2624 163.376 161.349
  endloop
 endfacet
 facet normal -0.787059 0.0940996 0.609658
  outer loop
   vertex 60.731 164.585 160.616
   vertex 60.6923 163.846 160.68
   vertex 61.3302 164.425 161.414
  endloop
 endfacet
 facet normal 0.69322 -0.533917 -0.484127
  outer loop
   vertex 63.2211 163.526 160.503
   vertex 63.8116 164.287 160.51
   vertex 63.7199 163.646 161.085
  endloop
 endfacet
 facet normal 0.751968 -0.250957 -0.609561
  outer loop
   vertex 64.1386 164.823 160.604
   vertex 64.6565 164.712 161.289
   vertex 64.6012 164.414 161.343
  endloop
 endfacet
 facet normal 0.710722 -0.324222 -0.624303
  outer loop
   vertex 63.8116 164.287 160.51
   vertex 64.1386 164.823 160.604
   vertex 64.6012 164.414 161.343
  endloop
 endfacet
 facet normal 0.591182 -0.662922 -0.45939
  outer loop
   vertex 63.8116 164.287 160.51
   vertex 64.6012 164.414 161.343
   vertex 64.0599 163.764 161.584
  endloop
 endfacet
 facet normal 0.772888 -0.481617 -0.413145
  outer loop
   vertex 63.8116 164.287 160.51
   vertex 64.0599 163.764 161.584
   vertex 63.7199 163.646 161.085
  endloop
 endfacet
 facet normal 0.707784 -0.25196 -0.659968
  outer loop
   vertex 64.6012 164.414 161.343
   vertex 64.6565 164.712 161.289
   vertex 64.8764 164.581 161.574
  endloop
 endfacet
 facet normal -0.770382 0.52293 0.364769
  outer loop
   vertex 60.4667 164.398 160.326
   vertex 60.731 164.585 160.616
   vertex 60.6887 164.836 160.167
  endloop
 endfacet
 facet normal -0.731556 0.563504 0.383782
  outer loop
   vertex 60.731 164.585 160.616
   vertex 61.3091 165.346 160.601
   vertex 60.6887 164.836 160.167
  endloop
 endfacet
 facet normal -0.641815 0.499088 0.582223
  outer loop
   vertex 60.731 164.585 160.616
   vertex 61.3302 164.425 161.414
   vertex 61.3091 165.346 160.601
  endloop
 endfacet
 facet normal -0.932235 0.227191 0.281644
  outer loop
   vertex 61.3302 164.425 161.414
   vertex 61.5374 165.339 161.363
   vertex 61.3091 165.346 160.601
  endloop
 endfacet
 facet normal 0.697643 0.711204 -0.0865049
  outer loop
   vertex 64.6565 164.712 161.289
   vertex 64.0327 165.318 161.247
   vertex 64.6537 164.765 161.707
  endloop
 endfacet
 facet normal 0.655096 0.646771 -0.390559
  outer loop
   vertex 64.6565 164.712 161.289
   vertex 64.1386 164.823 160.604
   vertex 64.0327 165.318 161.247
  endloop
 endfacet
 facet normal 0.946644 0.311176 -0.0838761
  outer loop
   vertex 64.1386 164.823 160.604
   vertex 63.8919 165.494 160.309
   vertex 64.0327 165.318 161.247
  endloop
 endfacet
 facet normal 0.600104 0.793927 -0.0977486
  outer loop
   vertex 64.8764 164.581 161.574
   vertex 64.6565 164.712 161.289
   vertex 64.6537 164.765 161.707
  endloop
 endfacet
 facet normal -0.776543 0.583232 0.238372
  outer loop
   vertex 61.3091 165.346 160.601
   vertex 61.5374 165.339 161.363
   vertex 61.714 165.642 161.196
  endloop
 endfacet
 facet normal -0.609946 0.792158 0.02126
  outer loop
   vertex 61.7929 165.723 160.421
   vertex 61.3091 165.346 160.601
   vertex 61.714 165.642 161.196
  endloop
 endfacet
 facet normal -0.0767039 0.992025 0.100016
  outer loop
   vertex 62.6948 165.794 160.407
   vertex 61.7929 165.723 160.421
   vertex 62.4823 165.693 161.25
  endloop
 endfacet
 facet normal -0.0730218 0.992604 0.0969765
  outer loop
   vertex 61.7929 165.723 160.421
   vertex 61.714 165.642 161.196
   vertex 62.4823 165.693 161.25
  endloop
 endfacet
 facet normal 0.0878804 0.985517 0.14503
  outer loop
   vertex 63.5719 165.716 160.409
   vertex 62.6948 165.794 160.407
   vertex 63.442 165.593 161.325
  endloop
 endfacet
 facet normal 0.0919273 0.985624 0.141758
  outer loop
   vertex 62.6948 165.794 160.407
   vertex 62.4823 165.693 161.25
   vertex 63.442 165.593 161.325
  endloop
 endfacet
 facet normal 0.582786 0.810114 0.0638466
  outer loop
   vertex 64.0327 165.318 161.247
   vertex 63.8919 165.494 160.309
   vertex 63.5719 165.716 160.409
  endloop
 endfacet
 facet normal 0.43371 0.882842 0.180236
  outer loop
   vertex 63.442 165.593 161.325
   vertex 64.0327 165.318 161.247
   vertex 63.5719 165.716 160.409
  endloop
 endfacet
 facet normal -0.587403 -0.784847 0.197416
  outer loop
   vertex 61.7203 162.412 161.539
   vertex 61.8332 162.49 162.185
   vertex 61.5242 162.708 162.128
  endloop
 endfacet
 facet normal -0.687954 -0.714259 0.128661
  outer loop
   vertex 61.4689 162.619 161.342
   vertex 61.7203 162.412 161.539
   vertex 61.5242 162.708 162.128
  endloop
 endfacet
 facet normal 0.381693 -0.768646 0.513316
  outer loop
   vertex 62.5 162.613 161.873
   vertex 62.0239 162.791 162.492
   vertex 61.8332 162.49 162.185
  endloop
 endfacet
 facet normal 0.304308 -0.906054 0.294044
  outer loop
   vertex 62.5 162.613 161.873
   vertex 61.8332 162.49 162.185
   vertex 62.443 162.412 161.313
  endloop
 endfacet
 facet normal 0.0353393 -0.99289 0.113665
  outer loop
   vertex 62.443 162.412 161.313
   vertex 61.8332 162.49 162.185
   vertex 61.7203 162.412 161.539
  endloop
 endfacet
 facet normal 0.565291 -0.793052 0.226968
  outer loop
   vertex 62.443 162.412 161.313
   vertex 62.9311 162.779 161.377
   vertex 62.5 162.613 161.873
  endloop
 endfacet
 facet normal -0.959989 -0.262702 0.0969972
  outer loop
   vertex 61.4689 162.619 161.342
   vertex 61.5242 162.708 162.128
   vertex 61.2624 163.376 161.349
  endloop
 endfacet
 facet normal -0.959991 -0.0560566 0.274364
  outer loop
   vertex 61.5242 162.708 162.128
   vertex 61.5184 163.458 162.262
   vertex 61.2624 163.376 161.349
  endloop
 endfacet
 facet normal 0.460391 -0.694738 0.552611
  outer loop
   vertex 62.5 162.613 161.873
   vertex 62.8311 163.154 162.277
   vertex 62.0239 162.791 162.492
  endloop
 endfacet
 facet normal 0.658739 -0.665512 0.350938
  outer loop
   vertex 62.9311 162.779 161.377
   vertex 62.8311 163.154 162.277
   vertex 62.5 162.613 161.873
  endloop
 endfacet
 facet normal 0.58058 -0.726462 0.367668
  outer loop
   vertex 62.9311 162.779 161.377
   vertex 63.5465 163.343 161.52
   vertex 62.8311 163.154 162.277
  endloop
 endfacet
 facet normal 0.357239 -0.927959 0.106174
  outer loop
   vertex 63.5465 163.343 161.52
   vertex 63.6068 163.463 162.371
   vertex 62.8311 163.154 162.277
  endloop
 endfacet
 facet normal 0.627848 -0.775585 0.0653853
  outer loop
   vertex 63.6068 163.463 162.371
   vertex 63.5465 163.343 161.52
   vertex 64.0599 163.764 161.584
  endloop
 endfacet
 facet normal 0.557665 -0.830055 0.00415389
  outer loop
   vertex 64.1041 163.797 162.376
   vertex 63.6068 163.463 162.371
   vertex 64.0599 163.764 161.584
  endloop
 endfacet
 facet normal -0.718714 0.416603 0.55668
  outer loop
   vertex 61.7846 163.905 162.389
   vertex 61.7993 164.762 161.767
   vertex 61.3302 164.425 161.414
  endloop
 endfacet
 facet normal -0.784924 0.315114 0.533476
  outer loop
   vertex 61.7846 163.905 162.389
   vertex 61.3302 164.425 161.414
   vertex 61.5184 163.458 162.262
  endloop
 endfacet
 facet normal -0.962882 0.0457777 0.266012
  outer loop
   vertex 61.5184 163.458 162.262
   vertex 61.3302 164.425 161.414
   vertex 61.2624 163.376 161.349
  endloop
 endfacet
 facet normal -0.51132 0.51072 0.691171
  outer loop
   vertex 61.7846 163.905 162.389
   vertex 62.3992 164.478 162.421
   vertex 61.7993 164.762 161.767
  endloop
 endfacet
 facet normal 0.702212 -0.711911 -0.00893878
  outer loop
   vertex 64.0599 163.764 161.584
   vertex 64.7293 164.417 162.139
   vertex 64.1041 163.797 162.376
  endloop
 endfacet
 facet normal 0.741468 -0.660817 -0.116385
  outer loop
   vertex 64.6012 164.414 161.343
   vertex 64.7293 164.417 162.139
   vertex 64.0599 163.764 161.584
  endloop
 endfacet
 facet normal 0.569921 -0.816963 -0.0881023
  outer loop
   vertex 64.7293 164.417 162.139
   vertex 64.6012 164.414 161.343
   vertex 64.8764 164.581 161.574
  endloop
 endfacet
 facet normal -0.514683 0.323299 0.79409
  outer loop
   vertex 61.7993 164.762 161.767
   vertex 61.8738 165.479 161.524
   vertex 61.5374 165.339 161.363
  endloop
 endfacet
 facet normal -0.674908 0.193051 0.712201
  outer loop
   vertex 61.3302 164.425 161.414
   vertex 61.7993 164.762 161.767
   vertex 61.5374 165.339 161.363
  endloop
 endfacet
 facet normal -0.396974 0.650911 0.647091
  outer loop
   vertex 62.6869 165.272 161.799
   vertex 61.7993 164.762 161.767
   vertex 62.3992 164.478 162.421
  endloop
 endfacet
 facet normal -0.224686 0.334304 0.915291
  outer loop
   vertex 62.6869 165.272 161.799
   vertex 61.8738 165.479 161.524
   vertex 61.7993 164.762 161.767
  endloop
 endfacet
 facet normal 0.364374 0.802196 0.472983
  outer loop
   vertex 63.7888 164.891 162.16
   vertex 64.6537 164.765 161.707
   vertex 64.0327 165.318 161.247
  endloop
 endfacet
 facet normal 0.248484 0.945107 0.212201
  outer loop
   vertex 63.7888 164.891 162.16
   vertex 64.5697 164.642 162.354
   vertex 64.6537 164.765 161.707
  endloop
 endfacet
 facet normal 0.713427 0.601356 0.359712
  outer loop
   vertex 64.7293 164.417 162.139
   vertex 64.8764 164.581 161.574
   vertex 64.6537 164.765 161.707
  endloop
 endfacet
 facet normal 0.878536 0.435175 0.196972
  outer loop
   vertex 64.5697 164.642 162.354
   vertex 64.7293 164.417 162.139
   vertex 64.6537 164.765 161.707
  endloop
 endfacet
 facet normal -0.533359 0.623943 0.571159
  outer loop
   vertex 61.5374 165.339 161.363
   vertex 61.8738 165.479 161.524
   vertex 61.714 165.642 161.196
  endloop
 endfacet
 facet normal -0.0917744 0.872815 0.479345
  outer loop
   vertex 62.4823 165.693 161.25
   vertex 61.714 165.642 161.196
   vertex 61.8738 165.479 161.524
  endloop
 endfacet
 facet normal -0.0048186 0.792439 0.609932
  outer loop
   vertex 62.6869 165.272 161.799
   vertex 62.4823 165.693 161.25
   vertex 61.8738 165.479 161.524
  endloop
 endfacet
 facet normal 0.0367631 0.799358 0.59973
  outer loop
   vertex 63.442 165.593 161.325
   vertex 62.4823 165.693 161.25
   vertex 62.6869 165.272 161.799
  endloop
 endfacet
 facet normal 0.0631463 0.776833 0.626532
  outer loop
   vertex 63.7888 164.891 162.16
   vertex 63.442 165.593 161.325
   vertex 62.6869 165.272 161.799
  endloop
 endfacet
 facet normal 0.421372 0.772869 0.474468
  outer loop
   vertex 64.0327 165.318 161.247
   vertex 63.442 165.593 161.325
   vertex 63.7888 164.891 162.16
  endloop
 endfacet
 facet normal -0.580187 -0.73453 0.35192
  outer loop
   vertex 61.8332 162.49 162.185
   vertex 61.6557 162.776 162.489
   vertex 61.5242 162.708 162.128
  endloop
 endfacet
 facet normal 0.0214742 -0.722194 0.691357
  outer loop
   vertex 61.8332 162.49 162.185
   vertex 62.0239 162.791 162.492
   vertex 61.6557 162.776 162.489
  endloop
 endfacet
 facet normal -0.774677 0.053894 0.630057
  outer loop
   vertex 61.6557 162.776 162.489
   vertex 61.8587 163.386 162.686
   vertex 61.5184 163.458 162.262
  endloop
 endfacet
 facet normal -0.932722 -0.0699393 0.35375
  outer loop
   vertex 61.5242 162.708 162.128
   vertex 61.6557 162.776 162.489
   vertex 61.5184 163.458 162.262
  endloop
 endfacet
 facet normal 0.00319523 -0.309217 0.950986
  outer loop
   vertex 62.0239 162.791 162.492
   vertex 61.8587 163.386 162.686
   vertex 61.6557 162.776 162.489
  endloop
 endfacet
 facet normal -0.341294 -0.375684 0.861615
  outer loop
   vertex 62.0239 162.791 162.492
   vertex 62.7344 163.414 163.045
   vertex 61.8587 163.386 162.686
  endloop
 endfacet
 facet normal 0.459769 -0.822171 0.33563
  outer loop
   vertex 62.0239 162.791 162.492
   vertex 62.8311 163.154 162.277
   vertex 62.7344 163.414 163.045
  endloop
 endfacet
 facet normal -0.340882 -0.37795 0.860786
  outer loop
   vertex 62.7344 163.414 163.045
   vertex 62.5114 163.758 163.108
   vertex 61.8587 163.386 162.686
  endloop
 endfacet
 facet normal 0.4879 -0.576211 0.655694
  outer loop
   vertex 63.6311 163.798 162.716
   vertex 62.9105 163.719 163.182
   vertex 62.7344 163.414 163.045
  endloop
 endfacet
 facet normal 0.491448 -0.642168 0.588302
  outer loop
   vertex 63.6311 163.798 162.716
   vertex 62.7344 163.414 163.045
   vertex 63.6068 163.463 162.371
  endloop
 endfacet
 facet normal 0.312709 -0.887244 0.339133
  outer loop
   vertex 63.6068 163.463 162.371
   vertex 62.7344 163.414 163.045
   vertex 62.8311 163.154 162.277
  endloop
 endfacet
 facet normal 0.43757 -0.660638 0.609992
  outer loop
   vertex 63.6068 163.463 162.371
   vertex 64.1041 163.797 162.376
   vertex 63.6311 163.798 162.716
  endloop
 endfacet
 facet normal -0.732455 0.256014 0.630845
  outer loop
   vertex 61.5184 163.458 162.262
   vertex 61.8587 163.386 162.686
   vertex 61.7846 163.905 162.389
  endloop
 endfacet
 facet normal -0.212643 0.657531 0.722797
  outer loop
   vertex 62.3992 164.478 162.421
   vertex 62.5114 163.758 163.108
   vertex 62.9746 164.424 162.64
  endloop
 endfacet
 facet normal -0.535188 0.538503 0.650836
  outer loop
   vertex 61.7846 163.905 162.389
   vertex 62.5114 163.758 163.108
   vertex 62.3992 164.478 162.421
  endloop
 endfacet
 facet normal -0.63534 0.312836 0.706029
  outer loop
   vertex 61.7846 163.905 162.389
   vertex 61.8587 163.386 162.686
   vertex 62.5114 163.758 163.108
  endloop
 endfacet
 facet normal -0.0846234 0.612736 0.785744
  outer loop
   vertex 62.9105 163.719 163.182
   vertex 62.9746 164.424 162.64
   vertex 62.5114 163.758 163.108
  endloop
 endfacet
 facet normal 0.41875 0.529794 0.737541
  outer loop
   vertex 62.9105 163.719 163.182
   vertex 63.6311 163.798 162.716
   vertex 62.9746 164.424 162.64
  endloop
 endfacet
 facet normal 0.0627161 0.185819 0.98058
  outer loop
   vertex 63.6311 163.798 162.716
   vertex 63.8891 164.484 162.57
   vertex 62.9746 164.424 162.64
  endloop
 endfacet
 facet normal 0.721958 -0.59107 0.359741
  outer loop
   vertex 64.1041 163.797 162.376
   vertex 64.7293 164.417 162.139
   vertex 64.4782 164.35 162.534
  endloop
 endfacet
 facet normal 0.494249 -0.530788 0.688464
  outer loop
   vertex 64.1041 163.797 162.376
   vertex 64.4782 164.35 162.534
   vertex 63.6311 163.798 162.716
  endloop
 endfacet
 facet normal 0.0991525 0.171998 0.980095
  outer loop
   vertex 63.6311 163.798 162.716
   vertex 64.4782 164.35 162.534
   vertex 63.8891 164.484 162.57
  endloop
 endfacet
 facet normal -0.21581 0.649487 0.729104
  outer loop
   vertex 62.3992 164.478 162.421
   vertex 62.9746 164.424 162.64
   vertex 62.6869 165.272 161.799
  endloop
 endfacet
 facet normal 0.0118142 0.705933 0.70818
  outer loop
   vertex 63.7888 164.891 162.16
   vertex 62.6869 165.272 161.799
   vertex 62.9746 164.424 162.64
  endloop
 endfacet
 facet normal 0.00712507 0.709993 0.704172
  outer loop
   vertex 63.8891 164.484 162.57
   vertex 63.7888 164.891 162.16
   vertex 62.9746 164.424 162.64
  endloop
 endfacet
 facet normal 0.0547808 0.714753 0.697228
  outer loop
   vertex 64.5697 164.642 162.354
   vertex 63.7888 164.891 162.16
   vertex 63.8891 164.484 162.57
  endloop
 endfacet
 facet normal 0.1617 0.479889 0.862299
  outer loop
   vertex 64.4782 164.35 162.534
   vertex 64.5697 164.642 162.354
   vertex 63.8891 164.484 162.57
  endloop
 endfacet
 facet normal 0.835571 0.072918 0.544521
  outer loop
   vertex 64.7293 164.417 162.139
   vertex 64.5697 164.642 162.354
   vertex 64.4782 164.35 162.534
  endloop
 endfacet
 facet normal -0.202772 -0.30158 0.931629
  outer loop
   vertex 62.7344 163.414 163.045
   vertex 62.9105 163.719 163.182
   vertex 62.5114 163.758 163.108
  endloop
 endfacet
endsolid
