ply
format ascii 1.0
element vertex 210
property float x
property float y
property float z
property float nx
property float ny
property float nz
element face 70
property list uint uint vertex_indices
end_header
129.003 132.419 165.466 -0.562957 -0.301826 -0.769403
128.844 132.007 165.743 -0.562957 -0.301826 -0.769403
128.426 132.422 165.887 -0.562957 -0.301826 -0.769403
129.003 132.419 165.466 -0.092915 -0.571583 -0.815266
129.75 132.378 165.409 -0.092915 -0.571583 -0.815266
129.579 131.927 165.745 -0.092915 -0.571583 -0.815266
128.844 132.007 165.743 -0.0573463 -0.542768 -0.837922
129.003 132.419 165.466 -0.0573463 -0.542768 -0.837922
129.579 131.927 165.745 -0.0573463 -0.542768 -0.837922
129.579 131.927 165.745 0.153942 -0.626765 -0.763851
129.75 132.378 165.409 0.153942 -0.626765 -0.763851
130.477 132.253 165.659 0.153942 -0.626765 -0.763851
128.812 133.084 165.527 -0.587141 -0.0942097 -0.803984
129.003 132.419 165.466 -0.587141 -0.0942097 -0.803984
128.426 132.422 165.887 -0.587141 -0.0942097 -0.803984
128.557 133.208 165.869 -0.775653 0.115628 -0.620478
128.812 133.084 165.527 -0.775653 0.115628 -0.620478
128.426 132.422 165.887 -0.775653 0.115628 -0.620478
129.75 132.378 165.409 -0.0698635 0.0994671 -0.992585
129.003 132.419 165.466 -0.0698635 0.0994671 -0.992585
129.643 133.064 165.485 -0.0698635 0.0994671 -0.992585
129.643 133.064 165.485 -0.0480322 0.0779027 -0.995803
129.003 132.419 165.466 -0.0480322 0.0779027 -0.995803
128.812 133.084 165.527 -0.0480322 0.0779027 -0.995803
130.154 133.097 165.741 0.513028 0.275734 -0.81288
130.735 132.626 165.948 0.513028 0.275734 -0.81288
130.477 132.253 165.659 0.513028 0.275734 -0.81288
130.154 133.097 165.741 0.421338 0.246468 -0.87277
130.477 132.253 165.659 0.421338 0.246468 -0.87277
129.643 133.064 165.485 0.421338 0.246468 -0.87277
129.643 133.064 165.485 0.344574 0.156331 -0.925651
130.477 132.253 165.659 0.344574 0.156331 -0.925651
129.75 132.378 165.409 0.344574 0.156331 -0.925651
131.026 132.094 166.014 0.573931 0.215942 -0.789919
130.477 132.253 165.659 0.573931 0.215942 -0.789919
130.735 132.626 165.948 0.573931 0.215942 -0.789919
128.812 133.084 165.527 -0.435832 0.691599 -0.575969
128.557 133.208 165.869 -0.435832 0.691599 -0.575969
129.004 133.439 165.809 -0.435832 0.691599 -0.575969
129.643 133.064 165.485 -0.0242849 0.629295 -0.776787
128.812 133.084 165.527 -0.0242849 0.629295 -0.776787
129.004 133.439 165.809 -0.0242849 0.629295 -0.776787
129.73 133.421 165.848 0.0555925 0.705173 -0.706853
129.643 133.064 165.485 0.0555925 0.705173 -0.706853
129.004 133.439 165.809 0.0555925 0.705173 -0.706853
130.154 133.097 165.741 0.311289 0.639457 -0.702989
129.643 133.064 165.485 0.311289 0.639457 -0.702989
129.73 133.421 165.848 0.311289 0.639457 -0.702989
128.757 131.446 166.655 -0.134394 -0.897613 -0.419796
128.812 131.611 166.284 -0.134394 -0.897613 -0.419796
129.846 131.345 166.52 -0.134394 -0.897613 -0.419796
128.757 131.446 166.655 -0.592642 -0.762761 -0.258787
127.935 132.08 166.667 -0.592642 -0.762761 -0.258787
128.032 132.074 166.463 -0.592642 -0.762761 -0.258787
128.812 131.611 166.284 -0.533524 -0.740297 -0.409039
128.757 131.446 166.655 -0.533524 -0.740297 -0.409039
128.032 132.074 166.463 -0.533524 -0.740297 -0.409039
128.812 131.611 166.284 -0.486562 -0.560395 -0.670235
128.032 132.074 166.463 -0.486562 -0.560395 -0.670235
128.426 132.422 165.887 -0.486562 -0.560395 -0.670235
128.812 131.611 166.284 -0.702256 -0.553948 -0.447189
128.426 132.422 165.887 -0.702256 -0.553948 -0.447189
128.844 132.007 165.743 -0.702256 -0.553948 -0.447189
129.579 131.927 165.745 -0.0860633 -0.80114 -0.592256
128.812 131.611 166.284 -0.0860633 -0.80114 -0.592256
128.844 132.007 165.743 -0.0860633 -0.80114 -0.592256
129.846 131.345 166.52 -0.0749388 -0.80999 -0.581636
128.812 131.611 166.284 -0.0749388 -0.80999 -0.581636
129.579 131.927 165.745 -0.0749388 -0.80999 -0.581636
130.477 132.253 165.659 0.209924 -0.746148 -0.631818
129.846 131.345 166.52 0.209924 -0.746148 -0.631818
129.579 131.927 165.745 0.209924 -0.746148 -0.631818
130.762 131.419 166.494 0.0358954 -0.70125 -0.712011
129.846 131.345 166.52 0.0358954 -0.70125 -0.712011
130.477 132.253 165.659 0.0358954 -0.70125 -0.712011
130.762 131.419 166.494 0.287219 -0.627204 -0.723962
130.477 132.253 165.659 0.287219 -0.627204 -0.723962
131.026 132.094 166.014 0.287219 -0.627204 -0.723962
130.762 131.419 166.494 0.748479 -0.552687 -0.366493
131.026 132.094 166.014 0.748479 -0.552687 -0.366493
131.014 131.623 166.699 0.748479 -0.552687 -0.366493
131.014 131.623 166.699 0.999771 0.00467616 0.0208901
131.026 132.094 166.014 0.999771 0.00467616 0.0208901
131.014 132.248 166.542 0.999771 0.00467616 0.0208901
128.032 132.074 166.463 -0.874375 -0.260748 -0.409241
127.935 132.08 166.667 -0.874375 -0.260748 -0.409241
127.895 132.424 166.533 -0.874375 -0.260748 -0.409241
127.895 132.424 166.533 -0.761291 -0.173852 -0.624669
128.426 132.422 165.887 -0.761291 -0.173852 -0.624669
128.032 132.074 166.463 -0.761291 -0.173852 -0.624669
127.895 132.424 166.533 -0.667449 0.501784 -0.550204
128.391 133.028 166.483 -0.667449 0.501784 -0.550204
128.426 132.422 165.887 -0.667449 0.501784 -0.550204
128.391 133.028 166.483 -0.963861 0.156307 -0.215733
128.557 133.208 165.869 -0.963861 0.156307 -0.215733
128.426 132.422 165.887 -0.963861 0.156307 -0.215733
130.735 132.626 165.948 0.684017 0.727123 0.0584203
130.108 133.18 166.389 0.684017 0.727123 0.0584203
130.648 132.653 166.632 0.684017 0.727123 0.0584203
130.154 133.097 165.741 0.640097 0.766443 -0.0533072
130.108 133.18 166.389 0.640097 0.766443 -0.0533072
130.735 132.626 165.948 0.640097 0.766443 -0.0533072
131.014 132.248 166.542 0.877522 0.465275 -0.116079
131.026 132.094 166.014 0.877522 0.465275 -0.116079
130.735 132.626 165.948 0.877522 0.465275 -0.116079
130.648 132.653 166.632 0.747711 0.660424 0.06905
131.014 132.248 166.542 0.747711 0.660424 0.06905
130.735 132.626 165.948 0.747711 0.660424 0.06905
128.557 133.208 165.869 -0.689361 0.723998 0.0246631
128.391 133.028 166.483 -0.689361 0.723998 0.0246631
128.786 133.407 166.426 -0.689361 0.723998 0.0246631
129.004 133.439 165.809 -0.469625 0.874725 -0.119621
128.557 133.208 165.869 -0.469625 0.874725 -0.119621
128.786 133.407 166.426 -0.469625 0.874725 -0.119621
129.73 133.421 165.848 0.0243783 0.999681 0.00661256
129.004 133.439 165.809 0.0243783 0.999681 0.00661256
129.513 133.422 166.476 0.0243783 0.999681 0.00661256
129.004 133.439 165.809 -0.0242658 0.99875 0.0437033
128.786 133.407 166.426 -0.0242658 0.99875 0.0437033
129.513 133.422 166.476 -0.0242658 0.99875 0.0437033
130.108 133.18 166.389 0.596627 0.800217 -0.0607367
130.154 133.097 165.741 0.596627 0.800217 -0.0607367
129.73 133.421 165.848 0.596627 0.800217 -0.0607367
129.513 133.422 166.476 0.390173 0.911091 0.132957
130.108 133.18 166.389 0.390173 0.911091 0.132957
129.73 133.421 165.848 0.390173 0.911091 0.132957
128.757 131.446 166.655 -0.0473561 -0.945601 0.321862
129.846 131.345 166.52 -0.0473561 -0.945601 0.321862
129.761 131.494 166.945 -0.0473561 -0.945601 0.321862
128.752 131.706 166.828 -0.208075 -0.546785 0.811006
128.757 131.446 166.655 -0.208075 -0.546785 0.811006
129.761 131.494 166.945 -0.208075 -0.546785 0.811006
129.846 131.345 166.52 0.0803182 -0.996713 0.0105521
130.762 131.419 166.494 0.0803182 -0.996713 0.0105521
130.616 131.414 167.108 0.0803182 -0.996713 0.0105521
129.761 131.494 166.945 -0.146009 -0.942374 0.301021
129.846 131.345 166.52 -0.146009 -0.942374 0.301021
130.616 131.414 167.108 -0.146009 -0.942374 0.301021
130.762 131.419 166.494 0.561523 -0.817707 0.12668
131.014 131.623 166.699 0.561523 -0.817707 0.12668
130.616 131.414 167.108 0.561523 -0.817707 0.12668
127.935 132.08 166.667 -0.388729 -0.517982 0.761961
128.757 131.446 166.655 -0.388729 -0.517982 0.761961
128.752 131.706 166.828 -0.388729 -0.517982 0.761961
127.935 132.08 166.667 -0.246707 -0.122567 0.961308
128.752 131.706 166.828 -0.246707 -0.122567 0.961308
128.09 132.405 166.748 -0.246707 -0.122567 0.961308
128.09 132.405 166.748 -0.179615 -0.0567478 0.982099
128.752 131.706 166.828 -0.179615 -0.0567478 0.982099
128.879 132.416 166.893 -0.179615 -0.0567478 0.982099
129.761 131.494 166.945 -0.131424 -0.0836049 0.987794
129.651 132.185 166.989 -0.131424 -0.0836049 0.987794
128.752 131.706 166.828 -0.131424 -0.0836049 0.987794
129.651 132.185 166.989 -0.141864 -0.0640222 0.987814
128.879 132.416 166.893 -0.141864 -0.0640222 0.987814
128.752 131.706 166.828 -0.141864 -0.0640222 0.987814
130.616 131.414 167.108 -0.189712 -0.0280205 0.98144
130.597 132.148 167.125 -0.189712 -0.0280205 0.98144
129.761 131.494 166.945 -0.189712 -0.0280205 0.98144
130.597 132.148 167.125 -0.145474 -0.0856976 0.985644
129.651 132.185 166.989 -0.145474 -0.0856976 0.985644
129.761 131.494 166.945 -0.145474 -0.0856976 0.985644
131.014 131.623 166.699 0.791749 0.148139 0.592611
131.014 132.248 166.542 0.791749 0.148139 0.592611
130.597 132.148 167.125 0.791749 0.148139 0.592611
130.616 131.414 167.108 0.716436 0.00304385 0.697647
131.014 131.623 166.699 0.716436 0.00304385 0.697647
130.597 132.148 167.125 0.716436 0.00304385 0.697647
127.935 132.08 166.667 -0.721539 0.177585 0.669213
128.09 132.405 166.748 -0.721539 0.177585 0.669213
127.895 132.424 166.533 -0.721539 0.177585 0.669213
128.391 133.028 166.483 -0.599329 0.540467 0.590508
127.895 132.424 166.533 -0.599329 0.540467 0.590508
128.09 132.405 166.748 -0.599329 0.540467 0.590508
128.391 133.028 166.483 -0.543282 0.536852 0.645472
128.09 132.405 166.748 -0.543282 0.536852 0.645472
128.815 133.116 166.766 -0.543282 0.536852 0.645472
128.815 133.116 166.766 -0.180367 0.158684 0.970715
128.09 132.405 166.748 -0.180367 0.158684 0.970715
128.879 132.416 166.893 -0.180367 0.158684 0.970715
129.651 132.185 166.989 -0.0657046 0.188059 0.979958
129.786 132.973 166.847 -0.0657046 0.188059 0.979958
128.879 132.416 166.893 -0.0657046 0.188059 0.979958
129.786 132.973 166.847 -0.0558941 0.172386 0.983442
128.815 133.116 166.766 -0.0558941 0.172386 0.983442
128.879 132.416 166.893 -0.0558941 0.172386 0.983442
130.648 132.653 166.632 0.40566 0.690538 0.59883
130.108 133.18 166.389 0.40566 0.690538 0.59883
129.786 132.973 166.847 0.40566 0.690538 0.59883
130.648 132.653 166.632 0.398553 0.619699 0.676113
129.786 132.973 166.847 0.398553 0.619699 0.676113
130.597 132.148 167.125 0.398553 0.619699 0.676113
130.597 132.148 167.125 -0.132246 0.197837 0.971273
129.786 132.973 166.847 -0.132246 0.197837 0.971273
129.651 132.185 166.989 -0.132246 0.197837 0.971273
131.014 132.248 166.542 0.671163 0.481705 0.563472
130.648 132.653 166.632 0.671163 0.481705 0.563472
130.597 132.148 167.125 0.671163 0.481705 0.563472
128.391 133.028 166.483 -0.518519 0.627993 0.580312
128.815 133.116 166.766 -0.518519 0.627993 0.580312
128.786 133.407 166.426 -0.518519 0.627993 0.580312
129.513 133.422 166.476 -0.0610704 0.755887 0.651848
128.786 133.407 166.426 -0.0610704 0.755887 0.651848
128.815 133.116 166.766 -0.0610704 0.755887 0.651848
129.786 132.973 166.847 0.0322924 0.647062 0.761753
129.513 133.422 166.476 0.0322924 0.647062 0.761753
128.815 133.116 166.766 0.0322924 0.647062 0.761753
130.108 133.18 166.389 0.376935 0.714474 0.589446
129.513 133.422 166.476 0.376935 0.714474 0.589446
129.786 132.973 166.847 0.376935 0.714474 0.589446
3 0 1 2
3 3 4 5
3 6 7 8
3 9 10 11
3 12 13 14
3 15 16 17
3 18 19 20
3 21 22 23
3 24 25 26
3 27 28 29
3 30 31 32
3 33 34 35
3 36 37 38
3 39 40 41
3 42 43 44
3 45 46 47
3 48 49 50
3 51 52 53
3 54 55 56
3 57 58 59
3 60 61 62
3 63 64 65
3 66 67 68
3 69 70 71
3 72 73 74
3 75 76 77
3 78 79 80
3 81 82 83
3 84 85 86
3 87 88 89
3 90 91 92
3 93 94 95
3 96 97 98
3 99 100 101
3 102 103 104
3 105 106 107
3 108 109 110
3 111 112 113
3 114 115 116
3 117 118 119
3 120 121 122
3 123 124 125
3 126 127 128
3 129 130 131
3 132 133 134
3 135 136 137
3 138 139 140
3 141 142 143
3 144 145 146
3 147 148 149
3 150 151 152
3 153 154 155
3 156 157 158
3 159 160 161
3 162 163 164
3 165 166 167
3 168 169 170
3 171 172 173
3 174 175 176
3 177 178 179
3 180 181 182
3 183 184 185
3 186 187 188
3 189 190 191
3 192 193 194
3 195 196 197
3 198 199 200
3 201 202 203
3 204 205 206
3 207 208 209
