solid ascii
 facet normal -0.536917 -0.358741 -0.763561
  outer loop
   vertex 56.1888 97.0544 151.765
   vertex 56.1188 96.4638 152.092
   vertex 55.508 97.0539 152.244
  endloop
 endfacet
 facet normal 0.486819 -0.466344 -0.738601
  outer loop
   vertex 56.1188 96.4638 152.092
   vertex 56.1888 97.0544 151.765
   vertex 56.7184 96.8075 152.27
  endloop
 endfacet
 facet normal -0.571572 -0.114129 -0.812576
  outer loop
   vertex 56.0356 97.7442 151.776
   vertex 56.1888 97.0544 151.765
   vertex 55.508 97.0539 152.244
  endloop
 endfacet
 facet normal -0.73752 0.112108 -0.665955
  outer loop
   vertex 55.606 97.9405 152.285
   vertex 56.0356 97.7442 151.776
   vertex 55.508 97.0539 152.244
  endloop
 endfacet
 facet normal 0.683939 -0.0241138 -0.729141
  outer loop
   vertex 56.7756 97.8106 152.29
   vertex 56.7184 96.8075 152.27
   vertex 56.1888 97.0544 151.765
  endloop
 endfacet
 facet normal 0.55727 0.136612 -0.819016
  outer loop
   vertex 56.0356 97.7442 151.776
   vertex 56.7756 97.8106 152.29
   vertex 56.1888 97.0544 151.765
  endloop
 endfacet
 facet normal -0.513308 0.560753 -0.64967
  outer loop
   vertex 56.0356 97.7442 151.776
   vertex 55.606 97.9405 152.285
   vertex 56.1157 98.2939 152.187
  endloop
 endfacet
 facet normal 0.469992 0.48381 -0.738265
  outer loop
   vertex 56.7756 97.8106 152.29
   vertex 56.0356 97.7442 151.776
   vertex 56.1157 98.2939 152.187
  endloop
 endfacet
 facet normal -0.35917 -0.586406 -0.726034
  outer loop
   vertex 56.1676 96.0331 152.538
   vertex 55.9387 95.2259 153.303
   vertex 54.9928 95.9033 153.224
  endloop
 endfacet
 facet normal 0.0028964 -0.676526 -0.736413
  outer loop
   vertex 56.1676 96.0331 152.538
   vertex 57.133 95.8364 152.723
   vertex 57.0729 95.1377 153.364
  endloop
 endfacet
 facet normal -0.0142085 -0.685767 -0.727683
  outer loop
   vertex 55.9387 95.2259 153.303
   vertex 56.1676 96.0331 152.538
   vertex 57.0729 95.1377 153.364
  endloop
 endfacet
 facet normal 0.433229 -0.629574 -0.644942
  outer loop
   vertex 57.0729 95.1377 153.364
   vertex 57.133 95.8364 152.723
   vertex 57.7729 95.7675 153.22
  endloop
 endfacet
 facet normal -0.674411 -0.261012 -0.690682
  outer loop
   vertex 55.0637 96.6968 152.661
   vertex 54.7309 96.3657 153.111
   vertex 54.3986 96.9282 153.223
  endloop
 endfacet
 facet normal -0.511594 -0.466604 -0.721494
  outer loop
   vertex 54.9928 95.9033 153.224
   vertex 54.7309 96.3657 153.111
   vertex 55.0637 96.6968 152.661
  endloop
 endfacet
 facet normal -0.391306 -0.5093 -0.766481
  outer loop
   vertex 56.1676 96.0331 152.538
   vertex 54.9928 95.9033 153.224
   vertex 55.0637 96.6968 152.661
  endloop
 endfacet
 facet normal -0.371876 -0.470787 -0.800043
  outer loop
   vertex 56.1676 96.0331 152.538
   vertex 55.0637 96.6968 152.661
   vertex 55.508 97.0539 152.244
  endloop
 endfacet
 facet normal -0.669364 -0.569843 -0.476686
  outer loop
   vertex 56.1676 96.0331 152.538
   vertex 55.508 97.0539 152.244
   vertex 56.1188 96.4638 152.092
  endloop
 endfacet
 facet normal 0.240229 0.319215 -0.916729
  outer loop
   vertex 57.2274 96.4561 152.963
   vertex 57.133 95.8364 152.723
   vertex 56.1676 96.0331 152.538
  endloop
 endfacet
 facet normal 0.491777 -0.575901 -0.653064
  outer loop
   vertex 57.2274 96.4561 152.963
   vertex 56.1676 96.0331 152.538
   vertex 56.7184 96.8075 152.27
  endloop
 endfacet
 facet normal 0.833255 0.168188 -0.526687
  outer loop
   vertex 57.2274 96.4561 152.963
   vertex 56.7184 96.8075 152.27
   vertex 57.0636 97.0076 152.88
  endloop
 endfacet
 facet normal 0.520328 -0.585372 -0.62177
  outer loop
   vertex 56.1188 96.4638 152.092
   vertex 56.7184 96.8075 152.27
   vertex 56.1676 96.0331 152.538
  endloop
 endfacet
 facet normal 0.614297 0.202451 -0.762662
  outer loop
   vertex 57.7729 95.7675 153.22
   vertex 57.133 95.8364 152.723
   vertex 57.2274 96.4561 152.963
  endloop
 endfacet
 facet normal -0.492358 0.426899 -0.758512
  outer loop
   vertex 55.0637 96.6968 152.661
   vertex 54.3986 96.9282 153.223
   vertex 54.9219 97.4725 153.189
  endloop
 endfacet
 facet normal -0.76384 0.262227 -0.589734
  outer loop
   vertex 54.9219 97.4725 153.189
   vertex 55.508 97.0539 152.244
   vertex 55.0637 96.6968 152.661
  endloop
 endfacet
 facet normal -0.584787 0.542693 -0.602917
  outer loop
   vertex 54.9219 97.4725 153.189
   vertex 55.4088 97.9275 153.126
   vertex 55.508 97.0539 152.244
  endloop
 endfacet
 facet normal -0.967347 0.11721 -0.224725
  outer loop
   vertex 55.4088 97.9275 153.126
   vertex 55.606 97.9405 152.285
   vertex 55.508 97.0539 152.244
  endloop
 endfacet
 facet normal 0.610538 -0.357337 -0.706791
  outer loop
   vertex 57.2809 97.3728 152.948
   vertex 56.7756 97.8106 152.29
   vertex 57.4472 98.0428 152.753
  endloop
 endfacet
 facet normal 0.669114 -0.268768 -0.692856
  outer loop
   vertex 57.2809 97.3728 152.948
   vertex 57.0636 97.0076 152.88
   vertex 56.7756 97.8106 152.29
  endloop
 endfacet
 facet normal 0.875192 -0.040069 -0.482114
  outer loop
   vertex 57.0636 97.0076 152.88
   vertex 56.7184 96.8075 152.27
   vertex 56.7756 97.8106 152.29
  endloop
 endfacet
 facet normal 0.572406 -0.357011 -0.738169
  outer loop
   vertex 57.2809 97.3728 152.948
   vertex 57.4472 98.0428 152.753
   vertex 57.9059 97.8195 153.217
  endloop
 endfacet
 facet normal -0.62643 0.767724 -0.134855
  outer loop
   vertex 55.606 97.9405 152.285
   vertex 55.4088 97.9275 153.126
   vertex 56.1649 98.508 152.919
  endloop
 endfacet
 facet normal -0.583737 0.789027 -0.191538
  outer loop
   vertex 56.1157 98.2939 152.187
   vertex 55.606 97.9405 152.285
   vertex 56.1649 98.508 152.919
  endloop
 endfacet
 facet normal 0.596593 0.758566 -0.26202
  outer loop
   vertex 56.7756 97.8106 152.29
   vertex 56.1157 98.2939 152.187
   vertex 56.1649 98.508 152.919
  endloop
 endfacet
 facet normal -0.214909 0.543313 -0.811558
  outer loop
   vertex 56.7756 97.8106 152.29
   vertex 56.1649 98.508 152.919
   vertex 57.1654 98.7435 152.812
  endloop
 endfacet
 facet normal 0.483576 0.26426 -0.834459
  outer loop
   vertex 56.7756 97.8106 152.29
   vertex 57.1654 98.7435 152.812
   vertex 57.4472 98.0428 152.753
  endloop
 endfacet
 facet normal -0.245409 0.780976 -0.574326
  outer loop
   vertex 56.5226 98.9377 153.35
   vertex 57.1654 98.7435 152.812
   vertex 56.1649 98.508 152.919
  endloop
 endfacet
 facet normal 0.723893 0.0596576 -0.687328
  outer loop
   vertex 58.5126 98.6484 153.928
   vertex 57.9059 97.8195 153.217
   vertex 57.4472 98.0428 152.753
  endloop
 endfacet
 facet normal 0.619482 0.309487 -0.721428
  outer loop
   vertex 57.1654 98.7435 152.812
   vertex 58.5126 98.6484 153.928
   vertex 57.4472 98.0428 152.753
  endloop
 endfacet
 facet normal -0.198273 0.822515 -0.533064
  outer loop
   vertex 57.1654 98.7435 152.812
   vertex 56.5226 98.9377 153.35
   vertex 57.384 99.3906 153.729
  endloop
 endfacet
 facet normal 0.518689 0.635447 -0.571987
  outer loop
   vertex 58.5126 98.6484 153.928
   vertex 57.1654 98.7435 152.812
   vertex 57.384 99.3906 153.729
  endloop
 endfacet
 facet normal -0.26054 -0.765586 -0.588215
  outer loop
   vertex 57.1814 94.7214 153.732
   vertex 57.1866 94.339 154.228
   vertex 56.5486 94.6082 154.16
  endloop
 endfacet
 facet normal 0.545201 -0.66077 -0.515886
  outer loop
   vertex 57.1866 94.339 154.228
   vertex 57.1814 94.7214 153.732
   vertex 57.7805 94.7751 154.297
  endloop
 endfacet
 facet normal -0.633262 -0.436497 -0.639101
  outer loop
   vertex 54.0936 95.7517 153.648
   vertex 53.9003 95.1367 154.26
   vertex 53.3985 95.8323 154.282
  endloop
 endfacet
 facet normal -0.234054 -0.645545 -0.726974
  outer loop
   vertex 54.0936 95.7517 153.648
   vertex 54.9928 95.9033 153.224
   vertex 54.9006 95.0811 153.984
  endloop
 endfacet
 facet normal -0.235965 -0.646922 -0.725129
  outer loop
   vertex 53.9003 95.1367 154.26
   vertex 54.0936 95.7517 153.648
   vertex 54.9006 95.0811 153.984
  endloop
 endfacet
 facet normal -0.375291 -0.606027 -0.701347
  outer loop
   vertex 54.9928 95.9033 153.224
   vertex 55.9387 95.2259 153.303
   vertex 54.9006 95.0811 153.984
  endloop
 endfacet
 facet normal -0.15001 -0.895386 -0.419263
  outer loop
   vertex 54.9006 95.0811 153.984
   vertex 55.9387 95.2259 153.303
   vertex 55.9823 94.8922 154
  endloop
 endfacet
 facet normal -0.328081 -0.672396 -0.663511
  outer loop
   vertex 56.5486 94.6082 154.16
   vertex 57.0729 95.1377 153.364
   vertex 57.1814 94.7214 153.732
  endloop
 endfacet
 facet normal -0.198575 -0.750594 -0.63022
  outer loop
   vertex 56.5486 94.6082 154.16
   vertex 55.9823 94.8922 154
   vertex 57.0729 95.1377 153.364
  endloop
 endfacet
 facet normal -0.0470589 -0.902116 -0.42892
  outer loop
   vertex 55.9823 94.8922 154
   vertex 55.9387 95.2259 153.303
   vertex 57.0729 95.1377 153.364
  endloop
 endfacet
 facet normal 0.722668 -0.37731 -0.579127
  outer loop
   vertex 57.7729 95.7675 153.22
   vertex 58.2004 96.1147 153.527
   vertex 58.1526 95.2878 154.006
  endloop
 endfacet
 facet normal 0.454431 -0.645909 -0.613428
  outer loop
   vertex 57.0729 95.1377 153.364
   vertex 57.7729 95.7675 153.22
   vertex 58.1526 95.2878 154.006
  endloop
 endfacet
 facet normal 0.447957 -0.664447 -0.598201
  outer loop
   vertex 57.0729 95.1377 153.364
   vertex 58.1526 95.2878 154.006
   vertex 57.7805 94.7751 154.297
  endloop
 endfacet
 facet normal 0.646051 -0.404391 -0.647369
  outer loop
   vertex 57.0729 95.1377 153.364
   vertex 57.7805 94.7751 154.297
   vertex 57.1814 94.7214 153.732
  endloop
 endfacet
 facet normal 0.6597 -0.404943 -0.633101
  outer loop
   vertex 58.1526 95.2878 154.006
   vertex 58.2004 96.1147 153.527
   vertex 58.7753 95.8555 154.292
  endloop
 endfacet
 facet normal -0.676098 -0.133091 -0.724692
  outer loop
   vertex 54.0275 96.5938 153.555
   vertex 54.0936 95.7517 153.648
   vertex 53.3985 95.8323 154.282
  endloop
 endfacet
 facet normal -0.806361 0.111863 -0.580749
  outer loop
   vertex 53.4159 96.7594 154.436
   vertex 54.0275 96.5938 153.555
   vertex 53.3985 95.8323 154.282
  endloop
 endfacet
 facet normal -0.565725 -0.173869 -0.806055
  outer loop
   vertex 54.7309 96.3657 153.111
   vertex 54.0275 96.5938 153.555
   vertex 54.3986 96.9282 153.223
  endloop
 endfacet
 facet normal -0.573989 -0.486553 -0.658637
  outer loop
   vertex 54.7309 96.3657 153.111
   vertex 54.9928 95.9033 153.224
   vertex 54.0275 96.5938 153.555
  endloop
 endfacet
 facet normal -0.404661 -0.131718 -0.904931
  outer loop
   vertex 54.9928 95.9033 153.224
   vertex 54.0936 95.7517 153.648
   vertex 54.0275 96.5938 153.555
  endloop
 endfacet
 facet normal 0.608207 0.0614986 -0.791392
  outer loop
   vertex 57.2274 96.4561 152.963
   vertex 57.0636 97.0076 152.88
   vertex 57.5581 96.9905 153.259
  endloop
 endfacet
 facet normal 0.525099 0.101125 -0.845012
  outer loop
   vertex 57.2274 96.4561 152.963
   vertex 58.2004 96.1147 153.527
   vertex 57.7729 95.7675 153.22
  endloop
 endfacet
 facet normal 0.531569 0.133821 -0.836377
  outer loop
   vertex 57.2274 96.4561 152.963
   vertex 57.5581 96.9905 153.259
   vertex 58.2004 96.1147 153.527
  endloop
 endfacet
 facet normal 0.374563 -0.00912251 -0.927157
  outer loop
   vertex 57.5581 96.9905 153.259
   vertex 58.3573 96.9809 153.582
   vertex 58.2004 96.1147 153.527
  endloop
 endfacet
 facet normal 0.747339 -0.206252 -0.63162
  outer loop
   vertex 58.8607 96.6653 154.128
   vertex 58.7753 95.8555 154.292
   vertex 58.2004 96.1147 153.527
  endloop
 endfacet
 facet normal 0.708377 -0.0838975 -0.700831
  outer loop
   vertex 58.3573 96.9809 153.582
   vertex 58.8607 96.6653 154.128
   vertex 58.2004 96.1147 153.527
  endloop
 endfacet
 facet normal -0.668305 0.49347 -0.556647
  outer loop
   vertex 54.0275 96.5938 153.555
   vertex 53.4159 96.7594 154.436
   vertex 54.1785 97.4403 154.124
  endloop
 endfacet
 facet normal -0.785886 0.435409 -0.439091
  outer loop
   vertex 54.3986 96.9282 153.223
   vertex 54.0275 96.5938 153.555
   vertex 54.1785 97.4403 154.124
  endloop
 endfacet
 facet normal -0.642892 0.588007 -0.490855
  outer loop
   vertex 54.3986 96.9282 153.223
   vertex 54.1785 97.4403 154.124
   vertex 54.9219 97.4725 153.189
  endloop
 endfacet
 facet normal -0.388054 0.878631 -0.278246
  outer loop
   vertex 54.9219 97.4725 153.189
   vertex 54.1785 97.4403 154.124
   vertex 55.1447 97.9061 154.247
  endloop
 endfacet
 facet normal -0.685342 0.713063 -0.14781
  outer loop
   vertex 55.1447 97.9061 154.247
   vertex 55.4088 97.9275 153.126
   vertex 54.9219 97.4725 153.189
  endloop
 endfacet
 facet normal 0.590514 -0.205656 -0.780383
  outer loop
   vertex 57.0636 97.0076 152.88
   vertex 57.2809 97.3728 152.948
   vertex 57.5581 96.9905 153.259
  endloop
 endfacet
 facet normal 0.534221 -0.264696 -0.802835
  outer loop
   vertex 57.9059 97.8195 153.217
   vertex 57.5581 96.9905 153.259
   vertex 57.2809 97.3728 152.948
  endloop
 endfacet
 facet normal 0.573206 -0.279406 -0.770303
  outer loop
   vertex 57.9059 97.8195 153.217
   vertex 58.295 97.7439 153.534
   vertex 57.5581 96.9905 153.259
  endloop
 endfacet
 facet normal 0.374245 -0.0276333 -0.926918
  outer loop
   vertex 58.295 97.7439 153.534
   vertex 58.3573 96.9809 153.582
   vertex 57.5581 96.9905 153.259
  endloop
 endfacet
 facet normal 0.747215 0.0432879 -0.663171
  outer loop
   vertex 58.8752 97.5942 154.205
   vertex 58.8607 96.6653 154.128
   vertex 58.3573 96.9809 153.582
  endloop
 endfacet
 facet normal 0.758823 0.0210647 -0.650956
  outer loop
   vertex 58.295 97.7439 153.534
   vertex 58.8752 97.5942 154.205
   vertex 58.3573 96.9809 153.582
  endloop
 endfacet
 facet normal -0.656169 0.741439 -0.140393
  outer loop
   vertex 55.4088 97.9275 153.126
   vertex 55.1447 97.9061 154.247
   vertex 55.9896 98.598 153.953
  endloop
 endfacet
 facet normal -0.629201 0.757829 -0.172627
  outer loop
   vertex 56.1649 98.508 152.919
   vertex 55.4088 97.9275 153.126
   vertex 55.9896 98.598 153.953
  endloop
 endfacet
 facet normal -0.662674 0.728005 -0.175706
  outer loop
   vertex 55.9896 98.598 153.953
   vertex 56.5226 98.9377 153.35
   vertex 56.1649 98.508 152.919
  endloop
 endfacet
 facet normal -0.600589 0.795245 -0.0829283
  outer loop
   vertex 56.5013 99.0204 154.298
   vertex 56.5226 98.9377 153.35
   vertex 55.9896 98.598 153.953
  endloop
 endfacet
 facet normal 0.642019 0.171069 -0.74736
  outer loop
   vertex 57.9059 97.8195 153.217
   vertex 58.5126 98.6484 153.928
   vertex 58.295 97.7439 153.534
  endloop
 endfacet
 facet normal 0.76361 0.094506 -0.638723
  outer loop
   vertex 58.5126 98.6484 153.928
   vertex 58.8752 97.5942 154.205
   vertex 58.295 97.7439 153.534
  endloop
 endfacet
 facet normal -0.432978 0.897092 -0.0880676
  outer loop
   vertex 56.5226 98.9377 153.35
   vertex 56.5013 99.0204 154.298
   vertex 57.384 99.3906 153.729
  endloop
 endfacet
 facet normal 0.467082 0.5183 -0.71638
  outer loop
   vertex 58.5126 98.6484 153.928
   vertex 57.384 99.3906 153.729
   vertex 58.2833 99.4087 154.328
  endloop
 endfacet
 facet normal -0.508253 -0.572725 -0.643168
  outer loop
   vertex 54.2041 93.8309 154.718
   vertex 53.9221 93.3326 155.384
   vertex 53.4977 93.942 155.177
  endloop
 endfacet
 facet normal -0.0726596 -0.723672 -0.686309
  outer loop
   vertex 54.2041 93.8309 154.718
   vertex 55.2237 93.8206 154.621
   vertex 54.8855 93.1229 155.392
  endloop
 endfacet
 facet normal -0.15964 -0.757087 -0.63351
  outer loop
   vertex 53.9221 93.3326 155.384
   vertex 54.2041 93.8309 154.718
   vertex 54.8855 93.1229 155.392
  endloop
 endfacet
 facet normal 0.0841733 -0.68267 -0.725863
  outer loop
   vertex 55.2237 93.8206 154.621
   vertex 56.1942 93.9143 154.645
   vertex 55.9141 93.3027 155.188
  endloop
 endfacet
 facet normal -0.00394994 -0.740818 -0.671694
  outer loop
   vertex 54.8855 93.1229 155.392
   vertex 55.2237 93.8206 154.621
   vertex 55.9141 93.3027 155.188
  endloop
 endfacet
 facet normal 0.515879 -0.688543 -0.509683
  outer loop
   vertex 55.9141 93.3027 155.188
   vertex 56.1942 93.9143 154.645
   vertex 56.6803 93.6992 155.428
  endloop
 endfacet
 facet normal -0.553236 -0.291694 -0.780285
  outer loop
   vertex 54.026 94.6323 154.545
   vertex 54.2041 93.8309 154.718
   vertex 53.4977 93.942 155.177
  endloop
 endfacet
 facet normal -0.805561 0.0782152 -0.587327
  outer loop
   vertex 53.4968 94.791 155.291
   vertex 54.026 94.6323 154.545
   vertex 53.4977 93.942 155.177
  endloop
 endfacet
 facet normal -0.0925507 -0.340386 -0.93572
  outer loop
   vertex 55.2237 93.8206 154.621
   vertex 54.2041 93.8309 154.718
   vertex 55.0136 94.5897 154.362
  endloop
 endfacet
 facet normal -0.186665 -0.247082 -0.950845
  outer loop
   vertex 55.0136 94.5897 154.362
   vertex 54.2041 93.8309 154.718
   vertex 54.026 94.6323 154.545
  endloop
 endfacet
 facet normal 0.0625565 -0.410579 -0.909677
  outer loop
   vertex 56.1942 93.9143 154.645
   vertex 55.2237 93.8206 154.621
   vertex 55.8873 94.5284 154.347
  endloop
 endfacet
 facet normal -0.0390701 -0.328461 -0.943709
  outer loop
   vertex 55.8873 94.5284 154.347
   vertex 55.2237 93.8206 154.621
   vertex 55.0136 94.5897 154.362
  endloop
 endfacet
 facet normal -0.359498 -0.907205 -0.218494
  outer loop
   vertex 56.5486 94.6082 154.16
   vertex 57.1866 94.339 154.228
   vertex 57.1268 94.1775 154.997
  endloop
 endfacet
 facet normal 0.421453 -0.654298 -0.62791
  outer loop
   vertex 56.5486 94.6082 154.16
   vertex 57.1268 94.1775 154.997
   vertex 56.1942 93.9143 154.645
  endloop
 endfacet
 facet normal -0.178967 -0.500777 -0.846873
  outer loop
   vertex 56.5486 94.6082 154.16
   vertex 56.1942 93.9143 154.645
   vertex 55.8873 94.5284 154.347
  endloop
 endfacet
 facet normal 0.398438 -0.790704 -0.464796
  outer loop
   vertex 56.6803 93.6992 155.428
   vertex 56.1942 93.9143 154.645
   vertex 57.1268 94.1775 154.997
  endloop
 endfacet
 facet normal 0.596624 -0.793463 -0.120235
  outer loop
   vertex 57.1268 94.1775 154.997
   vertex 57.1866 94.339 154.228
   vertex 57.7805 94.7751 154.297
  endloop
 endfacet
 facet normal 0.685627 -0.727706 0.0189818
  outer loop
   vertex 57.8892 94.9077 155.453
   vertex 57.1268 94.1775 154.997
   vertex 57.7805 94.7751 154.297
  endloop
 endfacet
 facet normal -0.77181 -0.447508 -0.451715
  outer loop
   vertex 53.9003 95.1367 154.26
   vertex 54.026 94.6323 154.545
   vertex 53.4968 94.791 155.291
  endloop
 endfacet
 facet normal -0.728562 -0.511054 -0.456092
  outer loop
   vertex 53.9003 95.1367 154.26
   vertex 53.4968 94.791 155.291
   vertex 53.3985 95.8323 154.282
  endloop
 endfacet
 facet normal -0.997692 -0.0527984 0.0427083
  outer loop
   vertex 53.3985 95.8323 154.282
   vertex 53.4968 94.791 155.291
   vertex 53.4414 95.8354 155.287
  endloop
 endfacet
 facet normal -0.253541 -0.522873 -0.813831
  outer loop
   vertex 54.9006 95.0811 153.984
   vertex 54.026 94.6323 154.545
   vertex 53.9003 95.1367 154.26
  endloop
 endfacet
 facet normal -0.168105 -0.625004 -0.762306
  outer loop
   vertex 55.0136 94.5897 154.362
   vertex 54.026 94.6323 154.545
   vertex 54.9006 95.0811 153.984
  endloop
 endfacet
 facet normal -0.0965916 -0.620701 -0.778075
  outer loop
   vertex 55.9823 94.8922 154
   vertex 55.0136 94.5897 154.362
   vertex 54.9006 95.0811 153.984
  endloop
 endfacet
 facet normal -0.0601265 -0.68042 -0.730351
  outer loop
   vertex 55.8873 94.5284 154.347
   vertex 55.0136 94.5897 154.362
   vertex 55.9823 94.8922 154
  endloop
 endfacet
 facet normal -0.127132 -0.666746 -0.734361
  outer loop
   vertex 56.5486 94.6082 154.16
   vertex 55.8873 94.5284 154.347
   vertex 55.9823 94.8922 154
  endloop
 endfacet
 facet normal 0.679296 -0.733585 0.0202516
  outer loop
   vertex 57.7805 94.7751 154.297
   vertex 58.3366 95.3088 154.975
   vertex 57.8892 94.9077 155.453
  endloop
 endfacet
 facet normal 0.765283 -0.630098 -0.131598
  outer loop
   vertex 58.1526 95.2878 154.006
   vertex 58.3366 95.3088 154.975
   vertex 57.7805 94.7751 154.297
  endloop
 endfacet
 facet normal 0.697841 -0.706608 -0.117143
  outer loop
   vertex 58.3366 95.3088 154.975
   vertex 58.1526 95.2878 154.006
   vertex 58.7753 95.8555 154.292
  endloop
 endfacet
 facet normal 0.879211 -0.416653 0.23106
  outer loop
   vertex 58.843 96.4203 155.053
   vertex 58.3366 95.3088 154.975
   vertex 58.7753 95.8555 154.292
  endloop
 endfacet
 facet normal -0.999026 0.0116667 0.0425636
  outer loop
   vertex 53.3985 95.8323 154.282
   vertex 53.4414 95.8354 155.287
   vertex 53.4159 96.7594 154.436
  endloop
 endfacet
 facet normal -0.998649 0.0175351 0.0489234
  outer loop
   vertex 53.4414 95.8354 155.287
   vertex 53.4573 96.7026 155.301
   vertex 53.4159 96.7594 154.436
  endloop
 endfacet
 facet normal 0.994248 -0.106706 -0.00916803
  outer loop
   vertex 58.7753 95.8555 154.292
   vertex 58.8607 96.6653 154.128
   vertex 58.843 96.4203 155.053
  endloop
 endfacet
 facet normal -0.76707 0.636739 0.0785246
  outer loop
   vertex 53.4159 96.7594 154.436
   vertex 53.4573 96.7026 155.301
   vertex 54.0086 97.3812 155.184
  endloop
 endfacet
 facet normal -0.679848 0.730159 -0.068373
  outer loop
   vertex 54.1785 97.4403 154.124
   vertex 53.4159 96.7594 154.436
   vertex 54.0086 97.3812 155.184
  endloop
 endfacet
 facet normal -0.438515 0.897557 0.0457872
  outer loop
   vertex 55.1447 97.9061 154.247
   vertex 54.1785 97.4403 154.124
   vertex 54.7945 97.6919 155.09
  endloop
 endfacet
 facet normal -0.368397 0.92964 -0.00727582
  outer loop
   vertex 54.1785 97.4403 154.124
   vertex 54.0086 97.3812 155.184
   vertex 54.7945 97.6919 155.09
  endloop
 endfacet
 facet normal -0.487922 0.872682 0.0189364
  outer loop
   vertex 55.3389 97.9894 155.41
   vertex 55.1447 97.9061 154.247
   vertex 54.7945 97.6919 155.09
  endloop
 endfacet
 facet normal 0.99975 -0.01679 0.0147567
  outer loop
   vertex 58.8607 96.6653 154.128
   vertex 58.8752 97.5942 154.205
   vertex 58.843 96.4203 155.053
  endloop
 endfacet
 facet normal 0.999616 -0.00838351 0.026393
  outer loop
   vertex 58.843 96.4203 155.053
   vertex 58.8752 97.5942 154.205
   vertex 58.8553 98.0061 155.089
  endloop
 endfacet
 facet normal -0.625233 0.778924 0.0485892
  outer loop
   vertex 55.1447 97.9061 154.247
   vertex 55.3389 97.9894 155.41
   vertex 56.0789 98.6019 155.112
  endloop
 endfacet
 facet normal -0.623479 0.78052 0.0454102
  outer loop
   vertex 55.9896 98.598 153.953
   vertex 55.1447 97.9061 154.247
   vertex 56.0789 98.6019 155.112
  endloop
 endfacet
 facet normal -0.654814 0.75427 0.0479135
  outer loop
   vertex 56.0789 98.6019 155.112
   vertex 56.5013 99.0204 154.298
   vertex 55.9896 98.598 153.953
  endloop
 endfacet
 facet normal -0.55758 0.819579 0.131889
  outer loop
   vertex 56.6334 98.9555 155.259
   vertex 56.5013 99.0204 154.298
   vertex 56.0789 98.6019 155.112
  endloop
 endfacet
 facet normal 0.94821 0.295537 -0.116431
  outer loop
   vertex 58.8752 97.5942 154.205
   vertex 58.5126 98.6484 153.928
   vertex 58.8553 98.0061 155.089
  endloop
 endfacet
 facet normal 0.967821 0.0959317 -0.232635
  outer loop
   vertex 58.8553 98.0061 155.089
   vertex 58.5126 98.6484 153.928
   vertex 58.7376 98.9461 154.987
  endloop
 endfacet
 facet normal -0.601603 0.787176 0.135748
  outer loop
   vertex 56.5013 99.0204 154.298
   vertex 56.6334 98.9555 155.259
   vertex 57.1726 99.4216 154.946
  endloop
 endfacet
 facet normal -0.43837 0.893339 -0.0988765
  outer loop
   vertex 57.384 99.3906 153.729
   vertex 56.5013 99.0204 154.298
   vertex 57.1726 99.4216 154.946
  endloop
 endfacet
 facet normal -0.000325667 0.999562 -0.029601
  outer loop
   vertex 58.2833 99.4087 154.328
   vertex 57.384 99.3906 153.729
   vertex 58.045 99.4293 155.027
  endloop
 endfacet
 facet normal -0.00634481 0.999628 -0.0265389
  outer loop
   vertex 57.384 99.3906 153.729
   vertex 57.1726 99.4216 154.946
   vertex 58.045 99.4293 155.027
  endloop
 endfacet
 facet normal 0.858305 0.416648 -0.299529
  outer loop
   vertex 58.7376 98.9461 154.987
   vertex 58.5126 98.6484 153.928
   vertex 58.2833 99.4087 154.328
  endloop
 endfacet
 facet normal 0.570473 0.803359 0.170806
  outer loop
   vertex 58.045 99.4293 155.027
   vertex 58.7376 98.9461 154.987
   vertex 58.2833 99.4087 154.328
  endloop
 endfacet
 facet normal -0.450342 -0.680329 -0.578226
  outer loop
   vertex 55.1186 92.758 155.87
   vertex 54.9462 92.3844 156.444
   vertex 54.4482 92.8366 156.3
  endloop
 endfacet
 facet normal 0.568442 -0.757036 -0.322133
  outer loop
   vertex 54.9462 92.3844 156.444
   vertex 55.1186 92.758 155.87
   vertex 55.6112 92.8491 156.525
  endloop
 endfacet
 facet normal -0.744 -0.668003 0.015386
  outer loop
   vertex 53.9221 93.3326 155.384
   vertex 54.0347 93.2259 156.194
   vertex 53.4999 93.8172 156.004
  endloop
 endfacet
 facet normal -0.803397 -0.589092 -0.0867432
  outer loop
   vertex 53.4977 93.942 155.177
   vertex 53.9221 93.3326 155.384
   vertex 53.4999 93.8172 156.004
  endloop
 endfacet
 facet normal -0.376954 -0.815619 -0.438943
  outer loop
   vertex 54.4482 92.8366 156.3
   vertex 54.8855 93.1229 155.392
   vertex 55.1186 92.758 155.87
  endloop
 endfacet
 facet normal -0.534677 -0.697168 -0.477574
  outer loop
   vertex 54.4482 92.8366 156.3
   vertex 54.0347 93.2259 156.194
   vertex 54.8855 93.1229 155.392
  endloop
 endfacet
 facet normal -0.210875 -0.97251 -0.0987716
  outer loop
   vertex 54.0347 93.2259 156.194
   vertex 53.9221 93.3326 155.384
   vertex 54.8855 93.1229 155.392
  endloop
 endfacet
 facet normal 0.45197 -0.864583 -0.219588
  outer loop
   vertex 55.1186 92.758 155.87
   vertex 55.9669 93.1652 156.013
   vertex 55.6112 92.8491 156.525
  endloop
 endfacet
 facet normal 0.409539 -0.617691 -0.671368
  outer loop
   vertex 55.1186 92.758 155.87
   vertex 54.8855 93.1229 155.392
   vertex 55.9669 93.1652 156.013
  endloop
 endfacet
 facet normal 0.136506 -0.975707 -0.171353
  outer loop
   vertex 54.8855 93.1229 155.392
   vertex 55.9141 93.3027 155.188
   vertex 55.9669 93.1652 156.013
  endloop
 endfacet
 facet normal 0.494946 -0.851411 -0.173576
  outer loop
   vertex 55.9669 93.1652 156.013
   vertex 55.9141 93.3027 155.188
   vertex 56.6803 93.6992 155.428
  endloop
 endfacet
 facet normal 0.611943 -0.790519 0.0246098
  outer loop
   vertex 56.6475 93.6972 156.179
   vertex 55.9669 93.1652 156.013
   vertex 56.6803 93.6992 155.428
  endloop
 endfacet
 facet normal -0.60736 0.588284 0.533887
  outer loop
   vertex 54.0414 94.3054 156.446
   vertex 54.846 94.8783 156.73
   vertex 53.4968 94.791 155.291
  endloop
 endfacet
 facet normal -0.765551 0.378511 0.520252
  outer loop
   vertex 54.0414 94.3054 156.446
   vertex 53.4968 94.791 155.291
   vertex 53.4999 93.8172 156.004
  endloop
 endfacet
 facet normal -0.999996 -0.00133362 0.00243196
  outer loop
   vertex 53.4999 93.8172 156.004
   vertex 53.4968 94.791 155.291
   vertex 53.4977 93.942 155.177
  endloop
 endfacet
 facet normal 0.740661 -0.671183 0.0305609
  outer loop
   vertex 56.6803 93.6992 155.428
   vertex 57.0626 94.156 156.196
   vertex 56.6475 93.6972 156.179
  endloop
 endfacet
 facet normal 0.743084 -0.668619 0.0278315
  outer loop
   vertex 57.1268 94.1775 154.997
   vertex 57.0626 94.156 156.196
   vertex 56.6803 93.6992 155.428
  endloop
 endfacet
 facet normal 0.684107 -0.729 0.0235918
  outer loop
   vertex 57.0626 94.156 156.196
   vertex 57.1268 94.1775 154.997
   vertex 57.8892 94.9077 155.453
  endloop
 endfacet
 facet normal 0.751055 -0.629678 0.19855
  outer loop
   vertex 57.6905 94.9444 156.321
   vertex 57.0626 94.156 156.196
   vertex 57.8892 94.9077 155.453
  endloop
 endfacet
 facet normal -0.759626 -0.167436 0.628438
  outer loop
   vertex 54.846 94.8783 156.73
   vertex 54.0419 96.048 156.07
   vertex 53.4414 95.8354 155.287
  endloop
 endfacet
 facet normal -0.727876 -0.0359317 0.684767
  outer loop
   vertex 53.4968 94.791 155.291
   vertex 54.846 94.8783 156.73
   vertex 53.4414 95.8354 155.287
  endloop
 endfacet
 facet normal 0.811636 -0.336412 0.477571
  outer loop
   vertex 58.0995 96.15 155.971
   vertex 57.8892 94.9077 155.453
   vertex 58.3366 95.3088 154.975
  endloop
 endfacet
 facet normal 0.88906 -0.296018 0.349206
  outer loop
   vertex 58.0995 96.15 155.971
   vertex 57.8262 95.7144 156.297
   vertex 57.8892 94.9077 155.453
  endloop
 endfacet
 facet normal 0.960348 -0.162262 0.22672
  outer loop
   vertex 57.8262 95.7144 156.297
   vertex 57.6905 94.9444 156.321
   vertex 57.8892 94.9077 155.453
  endloop
 endfacet
 facet normal 0.76919 -0.385939 0.509311
  outer loop
   vertex 58.3366 95.3088 154.975
   vertex 58.843 96.4203 155.053
   vertex 58.0995 96.15 155.971
  endloop
 endfacet
 facet normal -0.729896 0.135102 0.670074
  outer loop
   vertex 54.0419 96.048 156.07
   vertex 54.0302 96.8955 155.886
   vertex 53.4573 96.7026 155.301
  endloop
 endfacet
 facet normal -0.793961 0.00492944 0.607949
  outer loop
   vertex 53.4414 95.8354 155.287
   vertex 54.0419 96.048 156.07
   vertex 53.4573 96.7026 155.301
  endloop
 endfacet
 facet normal -0.740019 0.132646 0.659377
  outer loop
   vertex 54.0302 96.8955 155.886
   vertex 54.0419 96.048 156.07
   vertex 54.4173 96.7206 156.356
  endloop
 endfacet
 facet normal -0.657148 0.610424 0.442198
  outer loop
   vertex 53.4573 96.7026 155.301
   vertex 54.0302 96.8955 155.886
   vertex 54.0086 97.3812 155.184
  endloop
 endfacet
 facet normal -0.545346 0.532128 0.64764
  outer loop
   vertex 54.0302 96.8955 155.886
   vertex 54.4173 96.7206 156.356
   vertex 54.9404 97.4469 156.2
  endloop
 endfacet
 facet normal -0.569563 0.667822 0.479178
  outer loop
   vertex 54.0302 96.8955 155.886
   vertex 54.9404 97.4469 156.2
   vertex 54.0086 97.3812 155.184
  endloop
 endfacet
 facet normal -0.331211 0.91124 0.244829
  outer loop
   vertex 54.0086 97.3812 155.184
   vertex 54.9404 97.4469 156.2
   vertex 54.7945 97.6919 155.09
  endloop
 endfacet
 facet normal -0.572569 0.781472 0.247924
  outer loop
   vertex 54.9404 97.4469 156.2
   vertex 55.3389 97.9894 155.41
   vertex 54.7945 97.6919 155.09
  endloop
 endfacet
 facet normal -0.605932 0.76463 0.219517
  outer loop
   vertex 55.5419 97.8894 156.318
   vertex 55.3389 97.9894 155.41
   vertex 54.9404 97.4469 156.2
  endloop
 endfacet
 facet normal 0.744385 -0.0208971 0.667424
  outer loop
   vertex 58.843 96.4203 155.053
   vertex 58.8553 98.0061 155.089
   vertex 58.1204 97.8185 155.903
  endloop
 endfacet
 facet normal 0.77467 0.0161866 0.632158
  outer loop
   vertex 58.0995 96.15 155.971
   vertex 58.843 96.4203 155.053
   vertex 58.1204 97.8185 155.903
  endloop
 endfacet
 facet normal -0.625999 0.747521 0.222119
  outer loop
   vertex 55.3389 97.9894 155.41
   vertex 55.5419 97.8894 156.318
   vertex 56.0541 98.3904 156.076
  endloop
 endfacet
 facet normal -0.591013 0.790957 0.1584
  outer loop
   vertex 56.0789 98.6019 155.112
   vertex 55.3389 97.9894 155.41
   vertex 56.0541 98.3904 156.076
  endloop
 endfacet
 facet normal -0.286629 0.786184 0.547503
  outer loop
   vertex 56.6334 98.9555 155.259
   vertex 56.9631 98.4924 156.097
   vertex 57.4299 98.9179 155.73
  endloop
 endfacet
 facet normal -0.545961 0.623485 0.559636
  outer loop
   vertex 56.6334 98.9555 155.259
   vertex 56.0789 98.6019 155.112
   vertex 56.9631 98.4924 156.097
  endloop
 endfacet
 facet normal -0.113819 0.971009 0.210206
  outer loop
   vertex 56.0789 98.6019 155.112
   vertex 56.0541 98.3904 156.076
   vertex 56.9631 98.4924 156.097
  endloop
 endfacet
 facet normal 0.353217 0.357337 0.864609
  outer loop
   vertex 58.1204 97.8185 155.903
   vertex 57.4299 98.9179 155.73
   vertex 56.9631 98.4924 156.097
  endloop
 endfacet
 facet normal 0.136726 0.236611 0.961936
  outer loop
   vertex 58.1204 97.8185 155.903
   vertex 58.3067 98.7699 155.642
   vertex 57.4299 98.9179 155.73
  endloop
 endfacet
 facet normal 0.803832 0.162901 0.572117
  outer loop
   vertex 58.8553 98.0061 155.089
   vertex 58.7376 98.9461 154.987
   vertex 58.3067 98.7699 155.642
  endloop
 endfacet
 facet normal 0.736893 0.0404426 0.674799
  outer loop
   vertex 58.1204 97.8185 155.903
   vertex 58.8553 98.0061 155.089
   vertex 58.3067 98.7699 155.642
  endloop
 endfacet
 facet normal -0.309747 0.750535 0.583742
  outer loop
   vertex 56.6334 98.9555 155.259
   vertex 57.4299 98.9179 155.73
   vertex 57.1726 99.4216 154.946
  endloop
 endfacet
 facet normal -0.0587427 0.831044 0.553097
  outer loop
   vertex 58.045 99.4293 155.027
   vertex 57.1726 99.4216 154.946
   vertex 57.4299 98.9179 155.73
  endloop
 endfacet
 facet normal 0.188008 0.708717 0.67998
  outer loop
   vertex 58.3067 98.7699 155.642
   vertex 58.045 99.4293 155.027
   vertex 57.4299 98.9179 155.73
  endloop
 endfacet
 facet normal 0.509282 0.686338 0.519204
  outer loop
   vertex 58.7376 98.9461 154.987
   vertex 58.045 99.4293 155.027
   vertex 58.3067 98.7699 155.642
  endloop
 endfacet
 facet normal -0.506562 -0.853525 0.122021
  outer loop
   vertex 54.9462 92.3844 156.444
   vertex 55.0746 92.4036 157.112
   vertex 54.5219 92.7266 157.077
  endloop
 endfacet
 facet normal -0.664941 -0.745685 -0.0425145
  outer loop
   vertex 54.4482 92.8366 156.3
   vertex 54.9462 92.3844 156.444
   vertex 54.5219 92.7266 157.077
  endloop
 endfacet
 facet normal 0.577821 -0.811433 -0.0877428
  outer loop
   vertex 55.0746 92.4036 157.112
   vertex 54.9462 92.3844 156.444
   vertex 55.6112 92.8491 156.525
  endloop
 endfacet
 facet normal 0.73648 -0.652629 0.177968
  outer loop
   vertex 55.4795 92.9071 157.283
   vertex 55.0746 92.4036 157.112
   vertex 55.6112 92.8491 156.525
  endloop
 endfacet
 facet normal -0.743116 -0.549371 0.38206
  outer loop
   vertex 54.0347 93.2259 156.194
   vertex 53.899 93.7388 156.668
   vertex 53.4999 93.8172 156.004
  endloop
 endfacet
 facet normal -0.658507 -0.597148 0.45802
  outer loop
   vertex 54.0347 93.2259 156.194
   vertex 54.3499 93.5532 157.074
   vertex 53.899 93.7388 156.668
  endloop
 endfacet
 facet normal -0.668473 -0.586326 0.457565
  outer loop
   vertex 54.0347 93.2259 156.194
   vertex 54.4482 92.8366 156.3
   vertex 54.3499 93.5532 157.074
  endloop
 endfacet
 facet normal -0.97706 -0.203137 0.0639384
  outer loop
   vertex 54.4482 92.8366 156.3
   vertex 54.5219 92.7266 157.077
   vertex 54.3499 93.5532 157.074
  endloop
 endfacet
 facet normal 0.844743 -0.426315 0.32352
  outer loop
   vertex 55.9865 93.8051 156.805
   vertex 55.6112 92.8491 156.525
   vertex 55.9669 93.1652 156.013
  endloop
 endfacet
 facet normal 0.750375 -0.439186 0.494017
  outer loop
   vertex 55.9865 93.8051 156.805
   vertex 55.6005 93.5714 157.184
   vertex 55.6112 92.8491 156.525
  endloop
 endfacet
 facet normal 0.972049 -0.150121 0.18051
  outer loop
   vertex 55.6005 93.5714 157.184
   vertex 55.4795 92.9071 157.283
   vertex 55.6112 92.8491 156.525
  endloop
 endfacet
 facet normal 0.418637 -0.711481 0.564392
  outer loop
   vertex 55.9669 93.1652 156.013
   vertex 56.6475 93.6972 156.179
   vertex 55.9865 93.8051 156.805
  endloop
 endfacet
 facet normal -0.767289 0.391776 0.50772
  outer loop
   vertex 53.4999 93.8172 156.004
   vertex 53.899 93.7388 156.668
   vertex 54.0414 94.3054 156.446
  endloop
 endfacet
 facet normal -0.521842 0.346418 0.779536
  outer loop
   vertex 54.0414 94.3054 156.446
   vertex 54.992 94.1813 157.138
   vertex 54.846 94.8783 156.73
  endloop
 endfacet
 facet normal -0.494095 0.428983 0.756204
  outer loop
   vertex 54.0414 94.3054 156.446
   vertex 54.3499 93.5532 157.074
   vertex 54.992 94.1813 157.138
  endloop
 endfacet
 facet normal -0.504792 0.421979 0.753073
  outer loop
   vertex 54.0414 94.3054 156.446
   vertex 53.899 93.7388 156.668
   vertex 54.3499 93.5532 157.074
  endloop
 endfacet
 facet normal -0.341157 -0.300232 0.890771
  outer loop
   vertex 54.846 94.8783 156.73
   vertex 55.9865 93.8051 156.805
   vertex 56.2522 94.3745 157.099
  endloop
 endfacet
 facet normal 0.437894 0.49359 0.75141
  outer loop
   vertex 55.6005 93.5714 157.184
   vertex 55.9865 93.8051 156.805
   vertex 54.992 94.1813 157.138
  endloop
 endfacet
 facet normal 0.441199 0.520017 0.731386
  outer loop
   vertex 54.992 94.1813 157.138
   vertex 55.9865 93.8051 156.805
   vertex 54.846 94.8783 156.73
  endloop
 endfacet
 facet normal 0.430326 -0.534527 0.727393
  outer loop
   vertex 57.1039 94.7762 156.89
   vertex 56.782 95.0167 157.257
   vertex 56.2522 94.3745 157.099
  endloop
 endfacet
 facet normal 0.45983 -0.675528 0.576383
  outer loop
   vertex 57.0626 94.156 156.196
   vertex 57.1039 94.7762 156.89
   vertex 56.2522 94.3745 157.099
  endloop
 endfacet
 facet normal 0.53739 -0.570921 0.620695
  outer loop
   vertex 57.0626 94.156 156.196
   vertex 56.2522 94.3745 157.099
   vertex 55.9865 93.8051 156.805
  endloop
 endfacet
 facet normal 0.543054 -0.51643 0.662113
  outer loop
   vertex 57.0626 94.156 156.196
   vertex 55.9865 93.8051 156.805
   vertex 56.6475 93.6972 156.179
  endloop
 endfacet
 facet normal 0.643024 -0.58965 0.488705
  outer loop
   vertex 57.0626 94.156 156.196
   vertex 57.6905 94.9444 156.321
   vertex 57.1039 94.7762 156.89
  endloop
 endfacet
 facet normal -0.686098 -0.0624846 0.724821
  outer loop
   vertex 54.846 94.8783 156.73
   vertex 54.9515 95.9722 156.924
   vertex 54.0419 96.048 156.07
  endloop
 endfacet
 facet normal 0.686361 -0.163273 0.708696
  outer loop
   vertex 57.2606 95.6215 156.933
   vertex 56.782 95.0167 157.257
   vertex 57.1039 94.7762 156.89
  endloop
 endfacet
 facet normal 0.609289 -0.0582459 0.790806
  outer loop
   vertex 56.7866 95.9495 157.323
   vertex 56.782 95.0167 157.257
   vertex 57.2606 95.6215 156.933
  endloop
 endfacet
 facet normal 0.750494 -0.112072 0.651306
  outer loop
   vertex 57.6905 94.9444 156.321
   vertex 57.8262 95.7144 156.297
   vertex 57.2606 95.6215 156.933
  endloop
 endfacet
 facet normal 0.710658 -0.1665 0.683552
  outer loop
   vertex 57.1039 94.7762 156.89
   vertex 57.6905 94.9444 156.321
   vertex 57.2606 95.6215 156.933
  endloop
 endfacet
 facet normal -0.669894 0.082302 0.737881
  outer loop
   vertex 54.9515 95.9722 156.924
   vertex 54.94 96.7934 156.822
   vertex 54.4173 96.7206 156.356
  endloop
 endfacet
 facet normal -0.679973 0.0691017 0.729974
  outer loop
   vertex 54.0419 96.048 156.07
   vertex 54.9515 95.9722 156.924
   vertex 54.4173 96.7206 156.356
  endloop
 endfacet
 facet normal -0.597167 0.0906686 0.796976
  outer loop
   vertex 54.94 96.7934 156.822
   vertex 54.9515 95.9722 156.924
   vertex 55.4174 96.7022 157.19
  endloop
 endfacet
 facet normal 0.657206 0.0576418 0.751504
  outer loop
   vertex 57.2094 96.6696 156.898
   vertex 56.7866 95.9495 157.323
   vertex 57.2606 95.6215 156.933
  endloop
 endfacet
 facet normal 0.576903 0.136549 0.805318
  outer loop
   vertex 56.6533 96.9153 157.254
   vertex 56.7866 95.9495 157.323
   vertex 57.2094 96.6696 156.898
  endloop
 endfacet
 facet normal 0.733593 0.047793 0.677907
  outer loop
   vertex 57.8262 95.7144 156.297
   vertex 58.0995 96.15 155.971
   vertex 57.2094 96.6696 156.898
  endloop
 endfacet
 facet normal 0.741535 0.0589452 0.66832
  outer loop
   vertex 57.2606 95.6215 156.933
   vertex 57.8262 95.7144 156.297
   vertex 57.2094 96.6696 156.898
  endloop
 endfacet
 facet normal -0.595832 0.554204 0.581242
  outer loop
   vertex 54.4173 96.7206 156.356
   vertex 54.94 96.7934 156.822
   vertex 54.9404 97.4469 156.2
  endloop
 endfacet
 facet normal -0.264118 0.754385 0.600954
  outer loop
   vertex 55.5419 97.8894 156.318
   vertex 55.9255 97.4162 157.081
   vertex 56.377 97.7781 156.825
  endloop
 endfacet
 facet normal -0.539733 0.566311 0.62288
  outer loop
   vertex 54.9404 97.4469 156.2
   vertex 55.9255 97.4162 157.081
   vertex 55.5419 97.8894 156.318
  endloop
 endfacet
 facet normal -0.567387 0.503487 0.651593
  outer loop
   vertex 54.9404 97.4469 156.2
   vertex 55.4174 96.7022 157.19
   vertex 55.9255 97.4162 157.081
  endloop
 endfacet
 facet normal -0.392175 0.634691 0.665858
  outer loop
   vertex 54.9404 97.4469 156.2
   vertex 54.94 96.7934 156.822
   vertex 55.4174 96.7022 157.19
  endloop
 endfacet
 facet normal 0.116876 0.472006 0.873814
  outer loop
   vertex 56.6533 96.9153 157.254
   vertex 56.377 97.7781 156.825
   vertex 55.9255 97.4162 157.081
  endloop
 endfacet
 facet normal 0.613209 0.500363 0.611237
  outer loop
   vertex 56.6533 96.9153 157.254
   vertex 57.2094 96.6696 156.898
   vertex 56.377 97.7781 156.825
  endloop
 endfacet
 facet normal 0.229142 0.233771 0.944905
  outer loop
   vertex 57.2094 96.6696 156.898
   vertex 57.3139 97.5962 156.643
   vertex 56.377 97.7781 156.825
  endloop
 endfacet
 facet normal 0.672804 0.0218584 0.739498
  outer loop
   vertex 58.0995 96.15 155.971
   vertex 58.1204 97.8185 155.903
   vertex 57.3139 97.5962 156.643
  endloop
 endfacet
 facet normal 0.74448 0.0975169 0.660485
  outer loop
   vertex 57.2094 96.6696 156.898
   vertex 58.0995 96.15 155.971
   vertex 57.3139 97.5962 156.643
  endloop
 endfacet
 facet normal -0.323829 0.659386 0.678487
  outer loop
   vertex 55.5419 97.8894 156.318
   vertex 56.377 97.7781 156.825
   vertex 56.0541 98.3904 156.076
  endloop
 endfacet
 facet normal -0.0991106 0.749129 0.654967
  outer loop
   vertex 56.9631 98.4924 156.097
   vertex 56.0541 98.3904 156.076
   vertex 56.377 97.7781 156.825
  endloop
 endfacet
 facet normal 0.262366 0.574914 0.775009
  outer loop
   vertex 57.3139 97.5962 156.643
   vertex 56.9631 98.4924 156.097
   vertex 56.377 97.7781 156.825
  endloop
 endfacet
 facet normal 0.454089 0.586419 0.670758
  outer loop
   vertex 58.1204 97.8185 155.903
   vertex 56.9631 98.4924 156.097
   vertex 57.3139 97.5962 156.643
  endloop
 endfacet
 facet normal -0.440707 -0.691713 0.57211
  outer loop
   vertex 55.0746 92.4036 157.112
   vertex 54.9224 92.8958 157.59
   vertex 54.5219 92.7266 157.077
  endloop
 endfacet
 facet normal 0.405638 -0.568986 0.715341
  outer loop
   vertex 55.0746 92.4036 157.112
   vertex 55.4795 92.9071 157.283
   vertex 54.9224 92.8958 157.59
  endloop
 endfacet
 facet normal -0.590629 0.112159 0.799111
  outer loop
   vertex 54.9224 92.8958 157.59
   vertex 55.0641 93.5561 157.602
   vertex 54.3499 93.5532 157.074
  endloop
 endfacet
 facet normal -0.753334 -0.154946 0.639125
  outer loop
   vertex 54.5219 92.7266 157.077
   vertex 54.9224 92.8958 157.59
   vertex 54.3499 93.5532 157.074
  endloop
 endfacet
 facet normal 0.614785 0.0058087 0.788673
  outer loop
   vertex 55.4795 92.9071 157.283
   vertex 55.6005 93.5714 157.184
   vertex 55.0641 93.5561 157.602
  endloop
 endfacet
 facet normal 0.480968 -0.119104 0.86861
  outer loop
   vertex 54.9224 92.8958 157.59
   vertex 55.4795 92.9071 157.283
   vertex 55.0641 93.5561 157.602
  endloop
 endfacet
 facet normal -0.526614 0.466827 0.710457
  outer loop
   vertex 54.3499 93.5532 157.074
   vertex 55.0641 93.5561 157.602
   vertex 54.992 94.1813 157.138
  endloop
 endfacet
 facet normal 0.502951 0.551977 0.665103
  outer loop
   vertex 55.6005 93.5714 157.184
   vertex 54.992 94.1813 157.138
   vertex 55.0641 93.5561 157.602
  endloop
 endfacet
 facet normal -0.380877 -0.488489 0.785055
  outer loop
   vertex 56.2522 94.3745 157.099
   vertex 55.9699 95.3126 157.546
   vertex 54.846 94.8783 156.73
  endloop
 endfacet
 facet normal 0.184964 -0.376633 0.907709
  outer loop
   vertex 56.2522 94.3745 157.099
   vertex 56.782 95.0167 157.257
   vertex 55.9699 95.3126 157.546
  endloop
 endfacet
 facet normal -0.561305 -0.0918692 0.822495
  outer loop
   vertex 54.846 94.8783 156.73
   vertex 55.9699 95.3126 157.546
   vertex 54.9515 95.9722 156.924
  endloop
 endfacet
 facet normal 0.311726 -0.0677213 0.947756
  outer loop
   vertex 56.782 95.0167 157.257
   vertex 56.7866 95.9495 157.323
   vertex 55.9699 95.3126 157.546
  endloop
 endfacet
 facet normal -0.49727 0.0240179 0.867263
  outer loop
   vertex 55.9699 95.3126 157.546
   vertex 56.1575 96.6026 157.618
   vertex 55.4174 96.7022 157.19
  endloop
 endfacet
 facet normal -0.513597 0.0151324 0.857898
  outer loop
   vertex 54.9515 95.9722 156.924
   vertex 55.9699 95.3126 157.546
   vertex 55.4174 96.7022 157.19
  endloop
 endfacet
 facet normal 0.530109 0.132364 0.837535
  outer loop
   vertex 56.7866 95.9495 157.323
   vertex 56.6533 96.9153 157.254
   vertex 56.1575 96.6026 157.618
  endloop
 endfacet
 facet normal 0.334613 -0.100856 0.936943
  outer loop
   vertex 55.9699 95.3126 157.546
   vertex 56.7866 95.9495 157.323
   vertex 56.1575 96.6026 157.618
  endloop
 endfacet
 facet normal -0.411574 0.416923 0.810421
  outer loop
   vertex 55.4174 96.7022 157.19
   vertex 56.1575 96.6026 157.618
   vertex 55.9255 97.4162 157.081
  endloop
 endfacet
 facet normal 0.211318 0.579304 0.787243
  outer loop
   vertex 56.6533 96.9153 157.254
   vertex 55.9255 97.4162 157.081
   vertex 56.1575 96.6026 157.618
  endloop
 endfacet
endsolid
