ply
format ascii 1.0
element vertex 762
property float x
property float y
property float z
property float nx
property float ny
property float nz
element face 254
property list uint uint vertex_indices
end_header
56.1888 97.0544 151.765 -0.536917 -0.358741 -0.763561
56.1188 96.4638 152.092 -0.536917 -0.358741 -0.763561
55.508 97.0539 152.244 -0.536917 -0.358741 -0.763561
56.1188 96.4638 152.092 0.486819 -0.466344 -0.738601
56.1888 97.0544 151.765 0.486819 -0.466344 -0.738601
56.7184 96.8075 152.27 0.486819 -0.466344 -0.738601
56.0356 97.7442 151.776 -0.571572 -0.114129 -0.812576
56.1888 97.0544 151.765 -0.571572 -0.114129 -0.812576
55.508 97.0539 152.244 -0.571572 -0.114129 -0.812576
55.606 97.9405 152.285 -0.73752 0.112108 -0.665955
56.0356 97.7442 151.776 -0.73752 0.112108 -0.665955
55.508 97.0539 152.244 -0.73752 0.112108 -0.665955
56.7756 97.8106 152.29 0.683939 -0.0241138 -0.729141
56.7184 96.8075 152.27 0.683939 -0.0241138 -0.729141
56.1888 97.0544 151.765 0.683939 -0.0241138 -0.729141
56.0356 97.7442 151.776 0.55727 0.136612 -0.819016
56.7756 97.8106 152.29 0.55727 0.136612 -0.819016
56.1888 97.0544 151.765 0.55727 0.136612 -0.819016
56.0356 97.7442 151.776 -0.513308 0.560753 -0.64967
55.606 97.9405 152.285 -0.513308 0.560753 -0.64967
56.1157 98.2939 152.187 -0.513308 0.560753 -0.64967
56.7756 97.8106 152.29 0.469992 0.48381 -0.738265
56.0356 97.7442 151.776 0.469992 0.48381 -0.738265
56.1157 98.2939 152.187 0.469992 0.48381 -0.738265
56.1676 96.0331 152.538 -0.35917 -0.586406 -0.726034
55.9387 95.2259 153.303 -0.35917 -0.586406 -0.726034
54.9928 95.9033 153.224 -0.35917 -0.586406 -0.726034
56.1676 96.0331 152.538 0.0028964 -0.676526 -0.736413
57.133 95.8364 152.723 0.0028964 -0.676526 -0.736413
57.0729 95.1377 153.364 0.0028964 -0.676526 -0.736413
55.9387 95.2259 153.303 -0.0142085 -0.685767 -0.727683
56.1676 96.0331 152.538 -0.0142085 -0.685767 -0.727683
57.0729 95.1377 153.364 -0.0142085 -0.685767 -0.727683
57.0729 95.1377 153.364 0.433229 -0.629574 -0.644942
57.133 95.8364 152.723 0.433229 -0.629574 -0.644942
57.7729 95.7675 153.22 0.433229 -0.629574 -0.644942
55.0637 96.6968 152.661 -0.674411 -0.261012 -0.690682
54.7309 96.3657 153.111 -0.674411 -0.261012 -0.690682
54.3986 96.9282 153.223 -0.674411 -0.261012 -0.690682
54.9928 95.9033 153.224 -0.511594 -0.466604 -0.721494
54.7309 96.3657 153.111 -0.511594 -0.466604 -0.721494
55.0637 96.6968 152.661 -0.511594 -0.466604 -0.721494
56.1676 96.0331 152.538 -0.391306 -0.5093 -0.766481
54.9928 95.9033 153.224 -0.391306 -0.5093 -0.766481
55.0637 96.6968 152.661 -0.391306 -0.5093 -0.766481
56.1676 96.0331 152.538 -0.371876 -0.470787 -0.800043
55.0637 96.6968 152.661 -0.371876 -0.470787 -0.800043
55.508 97.0539 152.244 -0.371876 -0.470787 -0.800043
56.1676 96.0331 152.538 -0.669364 -0.569843 -0.476686
55.508 97.0539 152.244 -0.669364 -0.569843 -0.476686
56.1188 96.4638 152.092 -0.669364 -0.569843 -0.476686
57.2274 96.4561 152.963 0.240229 0.319215 -0.916729
57.133 95.8364 152.723 0.240229 0.319215 -0.916729
56.1676 96.0331 152.538 0.240229 0.319215 -0.916729
57.2274 96.4561 152.963 0.491777 -0.575901 -0.653064
56.1676 96.0331 152.538 0.491777 -0.575901 -0.653064
56.7184 96.8075 152.27 0.491777 -0.575901 -0.653064
57.2274 96.4561 152.963 0.833255 0.168188 -0.526687
56.7184 96.8075 152.27 0.833255 0.168188 -0.526687
57.0636 97.0076 152.88 0.833255 0.168188 -0.526687
56.1188 96.4638 152.092 0.520328 -0.585372 -0.62177
56.7184 96.8075 152.27 0.520328 -0.585372 -0.62177
56.1676 96.0331 152.538 0.520328 -0.585372 -0.62177
57.7729 95.7675 153.22 0.614297 0.202451 -0.762662
57.133 95.8364 152.723 0.614297 0.202451 -0.762662
57.2274 96.4561 152.963 0.614297 0.202451 -0.762662
55.0637 96.6968 152.661 -0.492358 0.426899 -0.758512
54.3986 96.9282 153.223 -0.492358 0.426899 -0.758512
54.9219 97.4725 153.189 -0.492358 0.426899 -0.758512
54.9219 97.4725 153.189 -0.76384 0.262227 -0.589734
55.508 97.0539 152.244 -0.76384 0.262227 -0.589734
55.0637 96.6968 152.661 -0.76384 0.262227 -0.589734
54.9219 97.4725 153.189 -0.584787 0.542693 -0.602917
55.4088 97.9275 153.126 -0.584787 0.542693 -0.602917
55.508 97.0539 152.244 -0.584787 0.542693 -0.602917
55.4088 97.9275 153.126 -0.967347 0.11721 -0.224725
55.606 97.9405 152.285 -0.967347 0.11721 -0.224725
55.508 97.0539 152.244 -0.967347 0.11721 -0.224725
57.2809 97.3728 152.948 0.610538 -0.357337 -0.706791
56.7756 97.8106 152.29 0.610538 -0.357337 -0.706791
57.4472 98.0428 152.753 0.610538 -0.357337 -0.706791
57.2809 97.3728 152.948 0.669114 -0.268768 -0.692856
57.0636 97.0076 152.88 0.669114 -0.268768 -0.692856
56.7756 97.8106 152.29 0.669114 -0.268768 -0.692856
57.0636 97.0076 152.88 0.875192 -0.040069 -0.482114
56.7184 96.8075 152.27 0.875192 -0.040069 -0.482114
56.7756 97.8106 152.29 0.875192 -0.040069 -0.482114
57.2809 97.3728 152.948 0.572406 -0.357011 -0.738169
57.4472 98.0428 152.753 0.572406 -0.357011 -0.738169
57.9059 97.8195 153.217 0.572406 -0.357011 -0.738169
55.606 97.9405 152.285 -0.62643 0.767724 -0.134855
55.4088 97.9275 153.126 -0.62643 0.767724 -0.134855
56.1649 98.508 152.919 -0.62643 0.767724 -0.134855
56.1157 98.2939 152.187 -0.583737 0.789027 -0.191538
55.606 97.9405 152.285 -0.583737 0.789027 -0.191538
56.1649 98.508 152.919 -0.583737 0.789027 -0.191538
56.7756 97.8106 152.29 0.596593 0.758566 -0.26202
56.1157 98.2939 152.187 0.596593 0.758566 -0.26202
56.1649 98.508 152.919 0.596593 0.758566 -0.26202
56.7756 97.8106 152.29 -0.214909 0.543313 -0.811558
56.1649 98.508 152.919 -0.214909 0.543313 -0.811558
57.1654 98.7435 152.812 -0.214909 0.543313 -0.811558
56.7756 97.8106 152.29 0.483576 0.26426 -0.834459
57.1654 98.7435 152.812 0.483576 0.26426 -0.834459
57.4472 98.0428 152.753 0.483576 0.26426 -0.834459
56.5226 98.9377 153.35 -0.245409 0.780976 -0.574326
57.1654 98.7435 152.812 -0.245409 0.780976 -0.574326
56.1649 98.508 152.919 -0.245409 0.780976 -0.574326
58.5126 98.6484 153.928 0.723893 0.0596576 -0.687328
57.9059 97.8195 153.217 0.723893 0.0596576 -0.687328
57.4472 98.0428 152.753 0.723893 0.0596576 -0.687328
57.1654 98.7435 152.812 0.619482 0.309487 -0.721428
58.5126 98.6484 153.928 0.619482 0.309487 -0.721428
57.4472 98.0428 152.753 0.619482 0.309487 -0.721428
57.1654 98.7435 152.812 -0.198273 0.822515 -0.533064
56.5226 98.9377 153.35 -0.198273 0.822515 -0.533064
57.384 99.3906 153.729 -0.198273 0.822515 -0.533064
58.5126 98.6484 153.928 0.518689 0.635447 -0.571987
57.1654 98.7435 152.812 0.518689 0.635447 -0.571987
57.384 99.3906 153.729 0.518689 0.635447 -0.571987
57.1814 94.7214 153.732 -0.26054 -0.765586 -0.588215
57.1866 94.339 154.228 -0.26054 -0.765586 -0.588215
56.5486 94.6082 154.16 -0.26054 -0.765586 -0.588215
57.1866 94.339 154.228 0.545201 -0.66077 -0.515886
57.1814 94.7214 153.732 0.545201 -0.66077 -0.515886
57.7805 94.7751 154.297 0.545201 -0.66077 -0.515886
54.0936 95.7517 153.648 -0.633262 -0.436497 -0.639101
53.9003 95.1367 154.26 -0.633262 -0.436497 -0.639101
53.3985 95.8323 154.282 -0.633262 -0.436497 -0.639101
54.0936 95.7517 153.648 -0.234054 -0.645545 -0.726974
54.9928 95.9033 153.224 -0.234054 -0.645545 -0.726974
54.9006 95.0811 153.984 -0.234054 -0.645545 -0.726974
53.9003 95.1367 154.26 -0.235965 -0.646922 -0.725129
54.0936 95.7517 153.648 -0.235965 -0.646922 -0.725129
54.9006 95.0811 153.984 -0.235965 -0.646922 -0.725129
54.9928 95.9033 153.224 -0.375291 -0.606027 -0.701347
55.9387 95.2259 153.303 -0.375291 -0.606027 -0.701347
54.9006 95.0811 153.984 -0.375291 -0.606027 -0.701347
54.9006 95.0811 153.984 -0.15001 -0.895386 -0.419263
55.9387 95.2259 153.303 -0.15001 -0.895386 -0.419263
55.9823 94.8922 154.0 -0.15001 -0.895386 -0.419263
56.5486 94.6082 154.16 -0.328081 -0.672396 -0.663511
57.0729 95.1377 153.364 -0.328081 -0.672396 -0.663511
57.1814 94.7214 153.732 -0.328081 -0.672396 -0.663511
56.5486 94.6082 154.16 -0.198575 -0.750594 -0.63022
55.9823 94.8922 154.0 -0.198575 -0.750594 -0.63022
57.0729 95.1377 153.364 -0.198575 -0.750594 -0.63022
55.9823 94.8922 154.0 -0.0470589 -0.902116 -0.42892
55.9387 95.2259 153.303 -0.0470589 -0.902116 -0.42892
57.0729 95.1377 153.364 -0.0470589 -0.902116 -0.42892
57.7729 95.7675 153.22 0.722668 -0.37731 -0.579127
58.2004 96.1147 153.527 0.722668 -0.37731 -0.579127
58.1526 95.2878 154.006 0.722668 -0.37731 -0.579127
57.0729 95.1377 153.364 0.454431 -0.645909 -0.613428
57.7729 95.7675 153.22 0.454431 -0.645909 -0.613428
58.1526 95.2878 154.006 0.454431 -0.645909 -0.613428
57.0729 95.1377 153.364 0.447957 -0.664447 -0.598201
58.1526 95.2878 154.006 0.447957 -0.664447 -0.598201
57.7805 94.7751 154.297 0.447957 -0.664447 -0.598201
57.0729 95.1377 153.364 0.646051 -0.404391 -0.647369
57.7805 94.7751 154.297 0.646051 -0.404391 -0.647369
57.1814 94.7214 153.732 0.646051 -0.404391 -0.647369
58.1526 95.2878 154.006 0.6597 -0.404943 -0.633101
58.2004 96.1147 153.527 0.6597 -0.404943 -0.633101
58.7753 95.8555 154.292 0.6597 -0.404943 -0.633101
54.0275 96.5938 153.555 -0.676098 -0.133091 -0.724692
54.0936 95.7517 153.648 -0.676098 -0.133091 -0.724692
53.3985 95.8323 154.282 -0.676098 -0.133091 -0.724692
53.4159 96.7594 154.436 -0.806361 0.111863 -0.580749
54.0275 96.5938 153.555 -0.806361 0.111863 -0.580749
53.3985 95.8323 154.282 -0.806361 0.111863 -0.580749
54.7309 96.3657 153.111 -0.565725 -0.173869 -0.806055
54.0275 96.5938 153.555 -0.565725 -0.173869 -0.806055
54.3986 96.9282 153.223 -0.565725 -0.173869 -0.806055
54.7309 96.3657 153.111 -0.573989 -0.486553 -0.658637
54.9928 95.9033 153.224 -0.573989 -0.486553 -0.658637
54.0275 96.5938 153.555 -0.573989 -0.486553 -0.658637
54.9928 95.9033 153.224 -0.404661 -0.131718 -0.904931
54.0936 95.7517 153.648 -0.404661 -0.131718 -0.904931
54.0275 96.5938 153.555 -0.404661 -0.131718 -0.904931
57.2274 96.4561 152.963 0.608207 0.0614986 -0.791392
57.0636 97.0076 152.88 0.608207 0.0614986 -0.791392
57.5581 96.9905 153.259 0.608207 0.0614986 -0.791392
57.2274 96.4561 152.963 0.525099 0.101125 -0.845012
58.2004 96.1147 153.527 0.525099 0.101125 -0.845012
57.7729 95.7675 153.22 0.525099 0.101125 -0.845012
57.2274 96.4561 152.963 0.531569 0.133821 -0.836377
57.5581 96.9905 153.259 0.531569 0.133821 -0.836377
58.2004 96.1147 153.527 0.531569 0.133821 -0.836377
57.5581 96.9905 153.259 0.374563 -0.00912251 -0.927157
58.3573 96.9809 153.582 0.374563 -0.00912251 -0.927157
58.2004 96.1147 153.527 0.374563 -0.00912251 -0.927157
58.8607 96.6653 154.128 0.747339 -0.206252 -0.63162
58.7753 95.8555 154.292 0.747339 -0.206252 -0.63162
58.2004 96.1147 153.527 0.747339 -0.206252 -0.63162
58.3573 96.9809 153.582 0.708377 -0.0838975 -0.700831
58.8607 96.6653 154.128 0.708377 -0.0838975 -0.700831
58.2004 96.1147 153.527 0.708377 -0.0838975 -0.700831
54.0275 96.5938 153.555 -0.668305 0.49347 -0.556647
53.4159 96.7594 154.436 -0.668305 0.49347 -0.556647
54.1785 97.4403 154.124 -0.668305 0.49347 -0.556647
54.3986 96.9282 153.223 -0.785886 0.435409 -0.439091
54.0275 96.5938 153.555 -0.785886 0.435409 -0.439091
54.1785 97.4403 154.124 -0.785886 0.435409 -0.439091
54.3986 96.9282 153.223 -0.642892 0.588007 -0.490855
54.1785 97.4403 154.124 -0.642892 0.588007 -0.490855
54.9219 97.4725 153.189 -0.642892 0.588007 -0.490855
54.9219 97.4725 153.189 -0.388054 0.878631 -0.278246
54.1785 97.4403 154.124 -0.388054 0.878631 -0.278246
55.1447 97.9061 154.247 -0.388054 0.878631 -0.278246
55.1447 97.9061 154.247 -0.685342 0.713063 -0.14781
55.4088 97.9275 153.126 -0.685342 0.713063 -0.14781
54.9219 97.4725 153.189 -0.685342 0.713063 -0.14781
57.0636 97.0076 152.88 0.590514 -0.205656 -0.780383
57.2809 97.3728 152.948 0.590514 -0.205656 -0.780383
57.5581 96.9905 153.259 0.590514 -0.205656 -0.780383
57.9059 97.8195 153.217 0.534221 -0.264696 -0.802835
57.5581 96.9905 153.259 0.534221 -0.264696 -0.802835
57.2809 97.3728 152.948 0.534221 -0.264696 -0.802835
57.9059 97.8195 153.217 0.573206 -0.279406 -0.770303
58.295 97.7439 153.534 0.573206 -0.279406 -0.770303
57.5581 96.9905 153.259 0.573206 -0.279406 -0.770303
58.295 97.7439 153.534 0.374245 -0.0276333 -0.926918
58.3573 96.9809 153.582 0.374245 -0.0276333 -0.926918
57.5581 96.9905 153.259 0.374245 -0.0276333 -0.926918
58.8752 97.5942 154.205 0.747215 0.0432879 -0.663171
58.8607 96.6653 154.128 0.747215 0.0432879 -0.663171
58.3573 96.9809 153.582 0.747215 0.0432879 -0.663171
58.295 97.7439 153.534 0.758823 0.0210647 -0.650956
58.8752 97.5942 154.205 0.758823 0.0210647 -0.650956
58.3573 96.9809 153.582 0.758823 0.0210647 -0.650956
55.4088 97.9275 153.126 -0.656169 0.741439 -0.140393
55.1447 97.9061 154.247 -0.656169 0.741439 -0.140393
55.9896 98.598 153.953 -0.656169 0.741439 -0.140393
56.1649 98.508 152.919 -0.629201 0.757829 -0.172627
55.4088 97.9275 153.126 -0.629201 0.757829 -0.172627
55.9896 98.598 153.953 -0.629201 0.757829 -0.172627
55.9896 98.598 153.953 -0.662674 0.728005 -0.175706
56.5226 98.9377 153.35 -0.662674 0.728005 -0.175706
56.1649 98.508 152.919 -0.662674 0.728005 -0.175706
56.5013 99.0204 154.298 -0.600589 0.795245 -0.0829283
56.5226 98.9377 153.35 -0.600589 0.795245 -0.0829283
55.9896 98.598 153.953 -0.600589 0.795245 -0.0829283
57.9059 97.8195 153.217 0.642019 0.171069 -0.74736
58.5126 98.6484 153.928 0.642019 0.171069 -0.74736
58.295 97.7439 153.534 0.642019 0.171069 -0.74736
58.5126 98.6484 153.928 0.76361 0.094506 -0.638723
58.8752 97.5942 154.205 0.76361 0.094506 -0.638723
58.295 97.7439 153.534 0.76361 0.094506 -0.638723
56.5226 98.9377 153.35 -0.432978 0.897092 -0.0880676
56.5013 99.0204 154.298 -0.432978 0.897092 -0.0880676
57.384 99.3906 153.729 -0.432978 0.897092 -0.0880676
58.5126 98.6484 153.928 0.467082 0.5183 -0.71638
57.384 99.3906 153.729 0.467082 0.5183 -0.71638
58.2833 99.4087 154.328 0.467082 0.5183 -0.71638
54.2041 93.8309 154.718 -0.508253 -0.572725 -0.643168
53.9221 93.3326 155.384 -0.508253 -0.572725 -0.643168
53.4977 93.942 155.177 -0.508253 -0.572725 -0.643168
54.2041 93.8309 154.718 -0.0726596 -0.723672 -0.686309
55.2237 93.8206 154.621 -0.0726596 -0.723672 -0.686309
54.8855 93.1229 155.392 -0.0726596 -0.723672 -0.686309
53.9221 93.3326 155.384 -0.15964 -0.757087 -0.63351
54.2041 93.8309 154.718 -0.15964 -0.757087 -0.63351
54.8855 93.1229 155.392 -0.15964 -0.757087 -0.63351
55.2237 93.8206 154.621 0.0841733 -0.68267 -0.725863
56.1942 93.9143 154.645 0.0841733 -0.68267 -0.725863
55.9141 93.3027 155.188 0.0841733 -0.68267 -0.725863
54.8855 93.1229 155.392 -0.00394994 -0.740818 -0.671694
55.2237 93.8206 154.621 -0.00394994 -0.740818 -0.671694
55.9141 93.3027 155.188 -0.00394994 -0.740818 -0.671694
55.9141 93.3027 155.188 0.515879 -0.688543 -0.509683
56.1942 93.9143 154.645 0.515879 -0.688543 -0.509683
56.6803 93.6992 155.428 0.515879 -0.688543 -0.509683
54.026 94.6323 154.545 -0.553236 -0.291694 -0.780285
54.2041 93.8309 154.718 -0.553236 -0.291694 -0.780285
53.4977 93.942 155.177 -0.553236 -0.291694 -0.780285
53.4968 94.791 155.291 -0.805561 0.0782152 -0.587327
54.026 94.6323 154.545 -0.805561 0.0782152 -0.587327
53.4977 93.942 155.177 -0.805561 0.0782152 -0.587327
55.2237 93.8206 154.621 -0.0925507 -0.340386 -0.93572
54.2041 93.8309 154.718 -0.0925507 -0.340386 -0.93572
55.0136 94.5897 154.362 -0.0925507 -0.340386 -0.93572
55.0136 94.5897 154.362 -0.186665 -0.247082 -0.950845
54.2041 93.8309 154.718 -0.186665 -0.247082 -0.950845
54.026 94.6323 154.545 -0.186665 -0.247082 -0.950845
56.1942 93.9143 154.645 0.0625565 -0.410579 -0.909677
55.2237 93.8206 154.621 0.0625565 -0.410579 -0.909677
55.8873 94.5284 154.347 0.0625565 -0.410579 -0.909677
55.8873 94.5284 154.347 -0.0390701 -0.328461 -0.943709
55.2237 93.8206 154.621 -0.0390701 -0.328461 -0.943709
55.0136 94.5897 154.362 -0.0390701 -0.328461 -0.943709
56.5486 94.6082 154.16 -0.359498 -0.907205 -0.218494
57.1866 94.339 154.228 -0.359498 -0.907205 -0.218494
57.1268 94.1775 154.997 -0.359498 -0.907205 -0.218494
56.5486 94.6082 154.16 0.421453 -0.654298 -0.62791
57.1268 94.1775 154.997 0.421453 -0.654298 -0.62791
56.1942 93.9143 154.645 0.421453 -0.654298 -0.62791
56.5486 94.6082 154.16 -0.178967 -0.500777 -0.846873
56.1942 93.9143 154.645 -0.178967 -0.500777 -0.846873
55.8873 94.5284 154.347 -0.178967 -0.500777 -0.846873
56.6803 93.6992 155.428 0.398438 -0.790704 -0.464796
56.1942 93.9143 154.645 0.398438 -0.790704 -0.464796
57.1268 94.1775 154.997 0.398438 -0.790704 -0.464796
57.1268 94.1775 154.997 0.596624 -0.793463 -0.120235
57.1866 94.339 154.228 0.596624 -0.793463 -0.120235
57.7805 94.7751 154.297 0.596624 -0.793463 -0.120235
57.8892 94.9077 155.453 0.685627 -0.727706 0.0189818
57.1268 94.1775 154.997 0.685627 -0.727706 0.0189818
57.7805 94.7751 154.297 0.685627 -0.727706 0.0189818
53.9003 95.1367 154.26 -0.77181 -0.447508 -0.451715
54.026 94.6323 154.545 -0.77181 -0.447508 -0.451715
53.4968 94.791 155.291 -0.77181 -0.447508 -0.451715
53.9003 95.1367 154.26 -0.728562 -0.511054 -0.456092
53.4968 94.791 155.291 -0.728562 -0.511054 -0.456092
53.3985 95.8323 154.282 -0.728562 -0.511054 -0.456092
53.3985 95.8323 154.282 -0.997692 -0.0527984 0.0427083
53.4968 94.791 155.291 -0.997692 -0.0527984 0.0427083
53.4414 95.8354 155.287 -0.997692 -0.0527984 0.0427083
54.9006 95.0811 153.984 -0.253541 -0.522873 -0.813831
54.026 94.6323 154.545 -0.253541 -0.522873 -0.813831
53.9003 95.1367 154.26 -0.253541 -0.522873 -0.813831
55.0136 94.5897 154.362 -0.168105 -0.625004 -0.762306
54.026 94.6323 154.545 -0.168105 -0.625004 -0.762306
54.9006 95.0811 153.984 -0.168105 -0.625004 -0.762306
55.9823 94.8922 154.0 -0.0965916 -0.620701 -0.778075
55.0136 94.5897 154.362 -0.0965916 -0.620701 -0.778075
54.9006 95.0811 153.984 -0.0965916 -0.620701 -0.778075
55.8873 94.5284 154.347 -0.0601265 -0.68042 -0.730351
55.0136 94.5897 154.362 -0.0601265 -0.68042 -0.730351
55.9823 94.8922 154.0 -0.0601265 -0.68042 -0.730351
56.5486 94.6082 154.16 -0.127132 -0.666746 -0.734361
55.8873 94.5284 154.347 -0.127132 -0.666746 -0.734361
55.9823 94.8922 154.0 -0.127132 -0.666746 -0.734361
57.7805 94.7751 154.297 0.679296 -0.733585 0.0202516
58.3366 95.3088 154.975 0.679296 -0.733585 0.0202516
57.8892 94.9077 155.453 0.679296 -0.733585 0.0202516
58.1526 95.2878 154.006 0.765283 -0.630098 -0.131598
58.3366 95.3088 154.975 0.765283 -0.630098 -0.131598
57.7805 94.7751 154.297 0.765283 -0.630098 -0.131598
58.3366 95.3088 154.975 0.697841 -0.706608 -0.117143
58.1526 95.2878 154.006 0.697841 -0.706608 -0.117143
58.7753 95.8555 154.292 0.697841 -0.706608 -0.117143
58.843 96.4203 155.053 0.879211 -0.416653 0.23106
58.3366 95.3088 154.975 0.879211 -0.416653 0.23106
58.7753 95.8555 154.292 0.879211 -0.416653 0.23106
53.3985 95.8323 154.282 -0.999026 0.0116667 0.0425636
53.4414 95.8354 155.287 -0.999026 0.0116667 0.0425636
53.4159 96.7594 154.436 -0.999026 0.0116667 0.0425636
53.4414 95.8354 155.287 -0.998649 0.0175351 0.0489234
53.4573 96.7026 155.301 -0.998649 0.0175351 0.0489234
53.4159 96.7594 154.436 -0.998649 0.0175351 0.0489234
58.7753 95.8555 154.292 0.994248 -0.106706 -0.00916803
58.8607 96.6653 154.128 0.994248 -0.106706 -0.00916803
58.843 96.4203 155.053 0.994248 -0.106706 -0.00916803
53.4159 96.7594 154.436 -0.76707 0.636739 0.0785246
53.4573 96.7026 155.301 -0.76707 0.636739 0.0785246
54.0086 97.3812 155.184 -0.76707 0.636739 0.0785246
54.1785 97.4403 154.124 -0.679848 0.730159 -0.068373
53.4159 96.7594 154.436 -0.679848 0.730159 -0.068373
54.0086 97.3812 155.184 -0.679848 0.730159 -0.068373
55.1447 97.9061 154.247 -0.438515 0.897557 0.0457872
54.1785 97.4403 154.124 -0.438515 0.897557 0.0457872
54.7945 97.6919 155.09 -0.438515 0.897557 0.0457872
54.1785 97.4403 154.124 -0.368397 0.92964 -0.00727582
54.0086 97.3812 155.184 -0.368397 0.92964 -0.00727582
54.7945 97.6919 155.09 -0.368397 0.92964 -0.00727582
55.3389 97.9894 155.41 -0.487922 0.872682 0.0189364
55.1447 97.9061 154.247 -0.487922 0.872682 0.0189364
54.7945 97.6919 155.09 -0.487922 0.872682 0.0189364
58.8607 96.6653 154.128 0.99975 -0.01679 0.0147567
58.8752 97.5942 154.205 0.99975 -0.01679 0.0147567
58.843 96.4203 155.053 0.99975 -0.01679 0.0147567
58.843 96.4203 155.053 0.999616 -0.00838351 0.026393
58.8752 97.5942 154.205 0.999616 -0.00838351 0.026393
58.8553 98.0061 155.089 0.999616 -0.00838351 0.026393
55.1447 97.9061 154.247 -0.625233 0.778924 0.0485892
55.3389 97.9894 155.41 -0.625233 0.778924 0.0485892
56.0789 98.6019 155.112 -0.625233 0.778924 0.0485892
55.9896 98.598 153.953 -0.623479 0.78052 0.0454102
55.1447 97.9061 154.247 -0.623479 0.78052 0.0454102
56.0789 98.6019 155.112 -0.623479 0.78052 0.0454102
56.0789 98.6019 155.112 -0.654814 0.75427 0.0479135
56.5013 99.0204 154.298 -0.654814 0.75427 0.0479135
55.9896 98.598 153.953 -0.654814 0.75427 0.0479135
56.6334 98.9555 155.259 -0.55758 0.819579 0.131889
56.5013 99.0204 154.298 -0.55758 0.819579 0.131889
56.0789 98.6019 155.112 -0.55758 0.819579 0.131889
58.8752 97.5942 154.205 0.94821 0.295537 -0.116431
58.5126 98.6484 153.928 0.94821 0.295537 -0.116431
58.8553 98.0061 155.089 0.94821 0.295537 -0.116431
58.8553 98.0061 155.089 0.967821 0.0959317 -0.232635
58.5126 98.6484 153.928 0.967821 0.0959317 -0.232635
58.7376 98.9461 154.987 0.967821 0.0959317 -0.232635
56.5013 99.0204 154.298 -0.601603 0.787176 0.135748
56.6334 98.9555 155.259 -0.601603 0.787176 0.135748
57.1726 99.4216 154.946 -0.601603 0.787176 0.135748
57.384 99.3906 153.729 -0.43837 0.893339 -0.0988765
56.5013 99.0204 154.298 -0.43837 0.893339 -0.0988765
57.1726 99.4216 154.946 -0.43837 0.893339 -0.0988765
58.2833 99.4087 154.328 -0.000325667 0.999562 -0.029601
57.384 99.3906 153.729 -0.000325667 0.999562 -0.029601
58.045 99.4293 155.027 -0.000325667 0.999562 -0.029601
57.384 99.3906 153.729 -0.00634481 0.999628 -0.0265389
57.1726 99.4216 154.946 -0.00634481 0.999628 -0.0265389
58.045 99.4293 155.027 -0.00634481 0.999628 -0.0265389
58.7376 98.9461 154.987 0.858305 0.416648 -0.299529
58.5126 98.6484 153.928 0.858305 0.416648 -0.299529
58.2833 99.4087 154.328 0.858305 0.416648 -0.299529
58.045 99.4293 155.027 0.570473 0.803359 0.170806
58.7376 98.9461 154.987 0.570473 0.803359 0.170806
58.2833 99.4087 154.328 0.570473 0.803359 0.170806
55.1186 92.758 155.87 -0.450342 -0.680329 -0.578226
54.9462 92.3844 156.444 -0.450342 -0.680329 -0.578226
54.4482 92.8366 156.3 -0.450342 -0.680329 -0.578226
54.9462 92.3844 156.444 0.568442 -0.757036 -0.322133
55.1186 92.758 155.87 0.568442 -0.757036 -0.322133
55.6112 92.8491 156.525 0.568442 -0.757036 -0.322133
53.9221 93.3326 155.384 -0.744 -0.668003 0.015386
54.0347 93.2259 156.194 -0.744 -0.668003 0.015386
53.4999 93.8172 156.004 -0.744 -0.668003 0.015386
53.4977 93.942 155.177 -0.803397 -0.589092 -0.0867432
53.9221 93.3326 155.384 -0.803397 -0.589092 -0.0867432
53.4999 93.8172 156.004 -0.803397 -0.589092 -0.0867432
54.4482 92.8366 156.3 -0.376954 -0.815619 -0.438943
54.8855 93.1229 155.392 -0.376954 -0.815619 -0.438943
55.1186 92.758 155.87 -0.376954 -0.815619 -0.438943
54.4482 92.8366 156.3 -0.534677 -0.697168 -0.477574
54.0347 93.2259 156.194 -0.534677 -0.697168 -0.477574
54.8855 93.1229 155.392 -0.534677 -0.697168 -0.477574
54.0347 93.2259 156.194 -0.210875 -0.97251 -0.0987716
53.9221 93.3326 155.384 -0.210875 -0.97251 -0.0987716
54.8855 93.1229 155.392 -0.210875 -0.97251 -0.0987716
55.1186 92.758 155.87 0.45197 -0.864583 -0.219588
55.9669 93.1652 156.013 0.45197 -0.864583 -0.219588
55.6112 92.8491 156.525 0.45197 -0.864583 -0.219588
55.1186 92.758 155.87 0.409539 -0.617691 -0.671368
54.8855 93.1229 155.392 0.409539 -0.617691 -0.671368
55.9669 93.1652 156.013 0.409539 -0.617691 -0.671368
54.8855 93.1229 155.392 0.136506 -0.975707 -0.171353
55.9141 93.3027 155.188 0.136506 -0.975707 -0.171353
55.9669 93.1652 156.013 0.136506 -0.975707 -0.171353
55.9669 93.1652 156.013 0.494946 -0.851411 -0.173576
55.9141 93.3027 155.188 0.494946 -0.851411 -0.173576
56.6803 93.6992 155.428 0.494946 -0.851411 -0.173576
56.6475 93.6972 156.179 0.611943 -0.790519 0.0246098
55.9669 93.1652 156.013 0.611943 -0.790519 0.0246098
56.6803 93.6992 155.428 0.611943 -0.790519 0.0246098
54.0414 94.3054 156.446 -0.60736 0.588284 0.533887
54.846 94.8783 156.73 -0.60736 0.588284 0.533887
53.4968 94.791 155.291 -0.60736 0.588284 0.533887
54.0414 94.3054 156.446 -0.765551 0.378511 0.520252
53.4968 94.791 155.291 -0.765551 0.378511 0.520252
53.4999 93.8172 156.004 -0.765551 0.378511 0.520252
53.4999 93.8172 156.004 -0.999996 -0.00133362 0.00243196
53.4968 94.791 155.291 -0.999996 -0.00133362 0.00243196
53.4977 93.942 155.177 -0.999996 -0.00133362 0.00243196
56.6803 93.6992 155.428 0.740661 -0.671183 0.0305609
57.0626 94.156 156.196 0.740661 -0.671183 0.0305609
56.6475 93.6972 156.179 0.740661 -0.671183 0.0305609
57.1268 94.1775 154.997 0.743084 -0.668619 0.0278315
57.0626 94.156 156.196 0.743084 -0.668619 0.0278315
56.6803 93.6992 155.428 0.743084 -0.668619 0.0278315
57.0626 94.156 156.196 0.684107 -0.729 0.0235918
57.1268 94.1775 154.997 0.684107 -0.729 0.0235918
57.8892 94.9077 155.453 0.684107 -0.729 0.0235918
57.6905 94.9444 156.321 0.751055 -0.629678 0.19855
57.0626 94.156 156.196 0.751055 -0.629678 0.19855
57.8892 94.9077 155.453 0.751055 -0.629678 0.19855
54.846 94.8783 156.73 -0.759626 -0.167436 0.628438
54.0419 96.048 156.07 -0.759626 -0.167436 0.628438
53.4414 95.8354 155.287 -0.759626 -0.167436 0.628438
53.4968 94.791 155.291 -0.727876 -0.0359317 0.684767
54.846 94.8783 156.73 -0.727876 -0.0359317 0.684767
53.4414 95.8354 155.287 -0.727876 -0.0359317 0.684767
58.0995 96.15 155.971 0.811636 -0.336412 0.477571
57.8892 94.9077 155.453 0.811636 -0.336412 0.477571
58.3366 95.3088 154.975 0.811636 -0.336412 0.477571
58.0995 96.15 155.971 0.88906 -0.296018 0.349206
57.8262 95.7144 156.297 0.88906 -0.296018 0.349206
57.8892 94.9077 155.453 0.88906 -0.296018 0.349206
57.8262 95.7144 156.297 0.960348 -0.162262 0.22672
57.6905 94.9444 156.321 0.960348 -0.162262 0.22672
57.8892 94.9077 155.453 0.960348 -0.162262 0.22672
58.3366 95.3088 154.975 0.76919 -0.385939 0.509311
58.843 96.4203 155.053 0.76919 -0.385939 0.509311
58.0995 96.15 155.971 0.76919 -0.385939 0.509311
54.0419 96.048 156.07 -0.729896 0.135102 0.670074
54.0302 96.8955 155.886 -0.729896 0.135102 0.670074
53.4573 96.7026 155.301 -0.729896 0.135102 0.670074
53.4414 95.8354 155.287 -0.793961 0.00492944 0.607949
54.0419 96.048 156.07 -0.793961 0.00492944 0.607949
53.4573 96.7026 155.301 -0.793961 0.00492944 0.607949
54.0302 96.8955 155.886 -0.740019 0.132646 0.659377
54.0419 96.048 156.07 -0.740019 0.132646 0.659377
54.4173 96.7206 156.356 -0.740019 0.132646 0.659377
53.4573 96.7026 155.301 -0.657148 0.610424 0.442198
54.0302 96.8955 155.886 -0.657148 0.610424 0.442198
54.0086 97.3812 155.184 -0.657148 0.610424 0.442198
54.0302 96.8955 155.886 -0.545346 0.532128 0.64764
54.4173 96.7206 156.356 -0.545346 0.532128 0.64764
54.9404 97.4469 156.2 -0.545346 0.532128 0.64764
54.0302 96.8955 155.886 -0.569563 0.667822 0.479178
54.9404 97.4469 156.2 -0.569563 0.667822 0.479178
54.0086 97.3812 155.184 -0.569563 0.667822 0.479178
54.0086 97.3812 155.184 -0.331211 0.91124 0.244829
54.9404 97.4469 156.2 -0.331211 0.91124 0.244829
54.7945 97.6919 155.09 -0.331211 0.91124 0.244829
54.9404 97.4469 156.2 -0.572569 0.781472 0.247924
55.3389 97.9894 155.41 -0.572569 0.781472 0.247924
54.7945 97.6919 155.09 -0.572569 0.781472 0.247924
55.5419 97.8894 156.318 -0.605932 0.76463 0.219517
55.3389 97.9894 155.41 -0.605932 0.76463 0.219517
54.9404 97.4469 156.2 -0.605932 0.76463 0.219517
58.843 96.4203 155.053 0.744385 -0.0208971 0.667424
58.8553 98.0061 155.089 0.744385 -0.0208971 0.667424
58.1204 97.8185 155.903 0.744385 -0.0208971 0.667424
58.0995 96.15 155.971 0.77467 0.0161866 0.632158
58.843 96.4203 155.053 0.77467 0.0161866 0.632158
58.1204 97.8185 155.903 0.77467 0.0161866 0.632158
55.3389 97.9894 155.41 -0.625999 0.747521 0.222119
55.5419 97.8894 156.318 -0.625999 0.747521 0.222119
56.0541 98.3904 156.076 -0.625999 0.747521 0.222119
56.0789 98.6019 155.112 -0.591013 0.790957 0.1584
55.3389 97.9894 155.41 -0.591013 0.790957 0.1584
56.0541 98.3904 156.076 -0.591013 0.790957 0.1584
56.6334 98.9555 155.259 -0.286629 0.786184 0.547503
56.9631 98.4924 156.097 -0.286629 0.786184 0.547503
57.4299 98.9179 155.73 -0.286629 0.786184 0.547503
56.6334 98.9555 155.259 -0.545961 0.623485 0.559636
56.0789 98.6019 155.112 -0.545961 0.623485 0.559636
56.9631 98.4924 156.097 -0.545961 0.623485 0.559636
56.0789 98.6019 155.112 -0.113819 0.971009 0.210206
56.0541 98.3904 156.076 -0.113819 0.971009 0.210206
56.9631 98.4924 156.097 -0.113819 0.971009 0.210206
58.1204 97.8185 155.903 0.353217 0.357337 0.864609
57.4299 98.9179 155.73 0.353217 0.357337 0.864609
56.9631 98.4924 156.097 0.353217 0.357337 0.864609
58.1204 97.8185 155.903 0.136726 0.236611 0.961936
58.3067 98.7699 155.642 0.136726 0.236611 0.961936
57.4299 98.9179 155.73 0.136726 0.236611 0.961936
58.8553 98.0061 155.089 0.803832 0.162901 0.572117
58.7376 98.9461 154.987 0.803832 0.162901 0.572117
58.3067 98.7699 155.642 0.803832 0.162901 0.572117
58.1204 97.8185 155.903 0.736893 0.0404426 0.674799
58.8553 98.0061 155.089 0.736893 0.0404426 0.674799
58.3067 98.7699 155.642 0.736893 0.0404426 0.674799
56.6334 98.9555 155.259 -0.309747 0.750535 0.583742
57.4299 98.9179 155.73 -0.309747 0.750535 0.583742
57.1726 99.4216 154.946 -0.309747 0.750535 0.583742
58.045 99.4293 155.027 -0.0587427 0.831044 0.553097
57.1726 99.4216 154.946 -0.0587427 0.831044 0.553097
57.4299 98.9179 155.73 -0.0587427 0.831044 0.553097
58.3067 98.7699 155.642 0.188008 0.708717 0.67998
58.045 99.4293 155.027 0.188008 0.708717 0.67998
57.4299 98.9179 155.73 0.188008 0.708717 0.67998
58.7376 98.9461 154.987 0.509282 0.686338 0.519204
58.045 99.4293 155.027 0.509282 0.686338 0.519204
58.3067 98.7699 155.642 0.509282 0.686338 0.519204
54.9462 92.3844 156.444 -0.506562 -0.853525 0.122021
55.0746 92.4036 157.112 -0.506562 -0.853525 0.122021
54.5219 92.7266 157.077 -0.506562 -0.853525 0.122021
54.4482 92.8366 156.3 -0.664941 -0.745685 -0.0425145
54.9462 92.3844 156.444 -0.664941 -0.745685 -0.0425145
54.5219 92.7266 157.077 -0.664941 -0.745685 -0.0425145
55.0746 92.4036 157.112 0.577821 -0.811433 -0.0877428
54.9462 92.3844 156.444 0.577821 -0.811433 -0.0877428
55.6112 92.8491 156.525 0.577821 -0.811433 -0.0877428
55.4795 92.9071 157.283 0.73648 -0.652629 0.177968
55.0746 92.4036 157.112 0.73648 -0.652629 0.177968
55.6112 92.8491 156.525 0.73648 -0.652629 0.177968
54.0347 93.2259 156.194 -0.743116 -0.549371 0.38206
53.899 93.7388 156.668 -0.743116 -0.549371 0.38206
53.4999 93.8172 156.004 -0.743116 -0.549371 0.38206
54.0347 93.2259 156.194 -0.658507 -0.597148 0.45802
54.3499 93.5532 157.074 -0.658507 -0.597148 0.45802
53.899 93.7388 156.668 -0.658507 -0.597148 0.45802
54.0347 93.2259 156.194 -0.668473 -0.586326 0.457565
54.4482 92.8366 156.3 -0.668473 -0.586326 0.457565
54.3499 93.5532 157.074 -0.668473 -0.586326 0.457565
54.4482 92.8366 156.3 -0.97706 -0.203137 0.0639384
54.5219 92.7266 157.077 -0.97706 -0.203137 0.0639384
54.3499 93.5532 157.074 -0.97706 -0.203137 0.0639384
55.9865 93.8051 156.805 0.844743 -0.426315 0.32352
55.6112 92.8491 156.525 0.844743 -0.426315 0.32352
55.9669 93.1652 156.013 0.844743 -0.426315 0.32352
55.9865 93.8051 156.805 0.750375 -0.439186 0.494017
55.6005 93.5714 157.184 0.750375 -0.439186 0.494017
55.6112 92.8491 156.525 0.750375 -0.439186 0.494017
55.6005 93.5714 157.184 0.972049 -0.150121 0.18051
55.4795 92.9071 157.283 0.972049 -0.150121 0.18051
55.6112 92.8491 156.525 0.972049 -0.150121 0.18051
55.9669 93.1652 156.013 0.418637 -0.711481 0.564392
56.6475 93.6972 156.179 0.418637 -0.711481 0.564392
55.9865 93.8051 156.805 0.418637 -0.711481 0.564392
53.4999 93.8172 156.004 -0.767289 0.391776 0.50772
53.899 93.7388 156.668 -0.767289 0.391776 0.50772
54.0414 94.3054 156.446 -0.767289 0.391776 0.50772
54.0414 94.3054 156.446 -0.521842 0.346418 0.779536
54.992 94.1813 157.138 -0.521842 0.346418 0.779536
54.846 94.8783 156.73 -0.521842 0.346418 0.779536
54.0414 94.3054 156.446 -0.494095 0.428983 0.756204
54.3499 93.5532 157.074 -0.494095 0.428983 0.756204
54.992 94.1813 157.138 -0.494095 0.428983 0.756204
54.0414 94.3054 156.446 -0.504792 0.421979 0.753073
53.899 93.7388 156.668 -0.504792 0.421979 0.753073
54.3499 93.5532 157.074 -0.504792 0.421979 0.753073
54.846 94.8783 156.73 -0.341157 -0.300232 0.890771
55.9865 93.8051 156.805 -0.341157 -0.300232 0.890771
56.2522 94.3745 157.099 -0.341157 -0.300232 0.890771
55.6005 93.5714 157.184 0.437894 0.49359 0.75141
55.9865 93.8051 156.805 0.437894 0.49359 0.75141
54.992 94.1813 157.138 0.437894 0.49359 0.75141
54.992 94.1813 157.138 0.441199 0.520017 0.731386
55.9865 93.8051 156.805 0.441199 0.520017 0.731386
54.846 94.8783 156.73 0.441199 0.520017 0.731386
57.1039 94.7762 156.89 0.430326 -0.534527 0.727393
56.782 95.0167 157.257 0.430326 -0.534527 0.727393
56.2522 94.3745 157.099 0.430326 -0.534527 0.727393
57.0626 94.156 156.196 0.45983 -0.675528 0.576383
57.1039 94.7762 156.89 0.45983 -0.675528 0.576383
56.2522 94.3745 157.099 0.45983 -0.675528 0.576383
57.0626 94.156 156.196 0.53739 -0.570921 0.620695
56.2522 94.3745 157.099 0.53739 -0.570921 0.620695
55.9865 93.8051 156.805 0.53739 -0.570921 0.620695
57.0626 94.156 156.196 0.543054 -0.51643 0.662113
55.9865 93.8051 156.805 0.543054 -0.51643 0.662113
56.6475 93.6972 156.179 0.543054 -0.51643 0.662113
57.0626 94.156 156.196 0.643024 -0.58965 0.488705
57.6905 94.9444 156.321 0.643024 -0.58965 0.488705
57.1039 94.7762 156.89 0.643024 -0.58965 0.488705
54.846 94.8783 156.73 -0.686098 -0.0624846 0.724821
54.9515 95.9722 156.924 -0.686098 -0.0624846 0.724821
54.0419 96.048 156.07 -0.686098 -0.0624846 0.724821
57.2606 95.6215 156.933 0.686361 -0.163273 0.708696
56.782 95.0167 157.257 0.686361 -0.163273 0.708696
57.1039 94.7762 156.89 0.686361 -0.163273 0.708696
56.7866 95.9495 157.323 0.609289 -0.0582459 0.790806
56.782 95.0167 157.257 0.609289 -0.0582459 0.790806
57.2606 95.6215 156.933 0.609289 -0.0582459 0.790806
57.6905 94.9444 156.321 0.750494 -0.112072 0.651306
57.8262 95.7144 156.297 0.750494 -0.112072 0.651306
57.2606 95.6215 156.933 0.750494 -0.112072 0.651306
57.1039 94.7762 156.89 0.710658 -0.1665 0.683552
57.6905 94.9444 156.321 0.710658 -0.1665 0.683552
57.2606 95.6215 156.933 0.710658 -0.1665 0.683552
54.9515 95.9722 156.924 -0.669894 0.082302 0.737881
54.94 96.7934 156.822 -0.669894 0.082302 0.737881
54.4173 96.7206 156.356 -0.669894 0.082302 0.737881
54.0419 96.048 156.07 -0.679973 0.0691017 0.729974
54.9515 95.9722 156.924 -0.679973 0.0691017 0.729974
54.4173 96.7206 156.356 -0.679973 0.0691017 0.729974
54.94 96.7934 156.822 -0.597167 0.0906686 0.796976
54.9515 95.9722 156.924 -0.597167 0.0906686 0.796976
55.4174 96.7022 157.19 -0.597167 0.0906686 0.796976
57.2094 96.6696 156.898 0.657206 0.0576418 0.751504
56.7866 95.9495 157.323 0.657206 0.0576418 0.751504
57.2606 95.6215 156.933 0.657206 0.0576418 0.751504
56.6533 96.9153 157.254 0.576903 0.136549 0.805318
56.7866 95.9495 157.323 0.576903 0.136549 0.805318
57.2094 96.6696 156.898 0.576903 0.136549 0.805318
57.8262 95.7144 156.297 0.733593 0.047793 0.677907
58.0995 96.15 155.971 0.733593 0.047793 0.677907
57.2094 96.6696 156.898 0.733593 0.047793 0.677907
57.2606 95.6215 156.933 0.741535 0.0589452 0.66832
57.8262 95.7144 156.297 0.741535 0.0589452 0.66832
57.2094 96.6696 156.898 0.741535 0.0589452 0.66832
54.4173 96.7206 156.356 -0.595832 0.554204 0.581242
54.94 96.7934 156.822 -0.595832 0.554204 0.581242
54.9404 97.4469 156.2 -0.595832 0.554204 0.581242
55.5419 97.8894 156.318 -0.264118 0.754385 0.600954
55.9255 97.4162 157.081 -0.264118 0.754385 0.600954
56.377 97.7781 156.825 -0.264118 0.754385 0.600954
54.9404 97.4469 156.2 -0.539733 0.566311 0.62288
55.9255 97.4162 157.081 -0.539733 0.566311 0.62288
55.5419 97.8894 156.318 -0.539733 0.566311 0.62288
54.9404 97.4469 156.2 -0.567387 0.503487 0.651593
55.4174 96.7022 157.19 -0.567387 0.503487 0.651593
55.9255 97.4162 157.081 -0.567387 0.503487 0.651593
54.9404 97.4469 156.2 -0.392175 0.634691 0.665858
54.94 96.7934 156.822 -0.392175 0.634691 0.665858
55.4174 96.7022 157.19 -0.392175 0.634691 0.665858
56.6533 96.9153 157.254 0.116876 0.472006 0.873814
56.377 97.7781 156.825 0.116876 0.472006 0.873814
55.9255 97.4162 157.081 0.116876 0.472006 0.873814
56.6533 96.9153 157.254 0.613209 0.500363 0.611237
57.2094 96.6696 156.898 0.613209 0.500363 0.611237
56.377 97.7781 156.825 0.613209 0.500363 0.611237
57.2094 96.6696 156.898 0.229142 0.233771 0.944905
57.3139 97.5962 156.643 0.229142 0.233771 0.944905
56.377 97.7781 156.825 0.229142 0.233771 0.944905
58.0995 96.15 155.971 0.672804 0.0218584 0.739498
58.1204 97.8185 155.903 0.672804 0.0218584 0.739498
57.3139 97.5962 156.643 0.672804 0.0218584 0.739498
57.2094 96.6696 156.898 0.74448 0.0975169 0.660485
58.0995 96.15 155.971 0.74448 0.0975169 0.660485
57.3139 97.5962 156.643 0.74448 0.0975169 0.660485
55.5419 97.8894 156.318 -0.323829 0.659386 0.678487
56.377 97.7781 156.825 -0.323829 0.659386 0.678487
56.0541 98.3904 156.076 -0.323829 0.659386 0.678487
56.9631 98.4924 156.097 -0.0991106 0.749129 0.654967
56.0541 98.3904 156.076 -0.0991106 0.749129 0.654967
56.377 97.7781 156.825 -0.0991106 0.749129 0.654967
57.3139 97.5962 156.643 0.262366 0.574914 0.775009
56.9631 98.4924 156.097 0.262366 0.574914 0.775009
56.377 97.7781 156.825 0.262366 0.574914 0.775009
58.1204 97.8185 155.903 0.454089 0.586419 0.670758
56.9631 98.4924 156.097 0.454089 0.586419 0.670758
57.3139 97.5962 156.643 0.454089 0.586419 0.670758
55.0746 92.4036 157.112 -0.440707 -0.691713 0.57211
54.9224 92.8958 157.59 -0.440707 -0.691713 0.57211
54.5219 92.7266 157.077 -0.440707 -0.691713 0.57211
55.0746 92.4036 157.112 0.405638 -0.568986 0.715341
55.4795 92.9071 157.283 0.405638 -0.568986 0.715341
54.9224 92.8958 157.59 0.405638 -0.568986 0.715341
54.9224 92.8958 157.59 -0.590629 0.112159 0.799111
55.0641 93.5561 157.602 -0.590629 0.112159 0.799111
54.3499 93.5532 157.074 -0.590629 0.112159 0.799111
54.5219 92.7266 157.077 -0.753334 -0.154946 0.639125
54.9224 92.8958 157.59 -0.753334 -0.154946 0.639125
54.3499 93.5532 157.074 -0.753334 -0.154946 0.639125
55.4795 92.9071 157.283 0.614785 0.0058087 0.788673
55.6005 93.5714 157.184 0.614785 0.0058087 0.788673
55.0641 93.5561 157.602 0.614785 0.0058087 0.788673
54.9224 92.8958 157.59 0.480968 -0.119104 0.86861
55.4795 92.9071 157.283 0.480968 -0.119104 0.86861
55.0641 93.5561 157.602 0.480968 -0.119104 0.86861
54.3499 93.5532 157.074 -0.526614 0.466827 0.710457
55.0641 93.5561 157.602 -0.526614 0.466827 0.710457
54.992 94.1813 157.138 -0.526614 0.466827 0.710457
55.6005 93.5714 157.184 0.502951 0.551977 0.665103
54.992 94.1813 157.138 0.502951 0.551977 0.665103
55.0641 93.5561 157.602 0.502951 0.551977 0.665103
56.2522 94.3745 157.099 -0.380877 -0.488489 0.785055
55.9699 95.3126 157.546 -0.380877 -0.488489 0.785055
54.846 94.8783 156.73 -0.380877 -0.488489 0.785055
56.2522 94.3745 157.099 0.184964 -0.376633 0.907709
56.782 95.0167 157.257 0.184964 -0.376633 0.907709
55.9699 95.3126 157.546 0.184964 -0.376633 0.907709
54.846 94.8783 156.73 -0.561305 -0.0918692 0.822495
55.9699 95.3126 157.546 -0.561305 -0.0918692 0.822495
54.9515 95.9722 156.924 -0.561305 -0.0918692 0.822495
56.782 95.0167 157.257 0.311726 -0.0677213 0.947756
56.7866 95.9495 157.323 0.311726 -0.0677213 0.947756
55.9699 95.3126 157.546 0.311726 -0.0677213 0.947756
55.9699 95.3126 157.546 -0.49727 0.0240179 0.867263
56.1575 96.6026 157.618 -0.49727 0.0240179 0.867263
55.4174 96.7022 157.19 -0.49727 0.0240179 0.867263
54.9515 95.9722 156.924 -0.513597 0.0151324 0.857898
55.9699 95.3126 157.546 -0.513597 0.0151324 0.857898
55.4174 96.7022 157.19 -0.513597 0.0151324 0.857898
56.7866 95.9495 157.323 0.530109 0.132364 0.837535
56.6533 96.9153 157.254 0.530109 0.132364 0.837535
56.1575 96.6026 157.618 0.530109 0.132364 0.837535
55.9699 95.3126 157.546 0.334613 -0.100856 0.936943
56.7866 95.9495 157.323 0.334613 -0.100856 0.936943
56.1575 96.6026 157.618 0.334613 -0.100856 0.936943
55.4174 96.7022 157.19 -0.411574 0.416923 0.810421
56.1575 96.6026 157.618 -0.411574 0.416923 0.810421
55.9255 97.4162 157.081 -0.411574 0.416923 0.810421
56.6533 96.9153 157.254 0.211318 0.579304 0.787243
55.9255 97.4162 157.081 0.211318 0.579304 0.787243
56.1575 96.6026 157.618 0.211318 0.579304 0.787243
3 0 1 2
3 3 4 5
3 6 7 8
3 9 10 11
3 12 13 14
3 15 16 17
3 18 19 20
3 21 22 23
3 24 25 26
3 27 28 29
3 30 31 32
3 33 34 35
3 36 37 38
3 39 40 41
3 42 43 44
3 45 46 47
3 48 49 50
3 51 52 53
3 54 55 56
3 57 58 59
3 60 61 62
3 63 64 65
3 66 67 68
3 69 70 71
3 72 73 74
3 75 76 77
3 78 79 80
3 81 82 83
3 84 85 86
3 87 88 89
3 90 91 92
3 93 94 95
3 96 97 98
3 99 100 101
3 102 103 104
3 105 106 107
3 108 109 110
3 111 112 113
3 114 115 116
3 117 118 119
3 120 121 122
3 123 124 125
3 126 127 128
3 129 130 131
3 132 133 134
3 135 136 137
3 138 139 140
3 141 142 143
3 144 145 146
3 147 148 149
3 150 151 152
3 153 154 155
3 156 157 158
3 159 160 161
3 162 163 164
3 165 166 167
3 168 169 170
3 171 172 173
3 174 175 176
3 177 178 179
3 180 181 182
3 183 184 185
3 186 187 188
3 189 190 191
3 192 193 194
3 195 196 197
3 198 199 200
3 201 202 203
3 204 205 206
3 207 208 209
3 210 211 212
3 213 214 215
3 216 217 218
3 219 220 221
3 222 223 224
3 225 226 227
3 228 229 230
3 231 232 233
3 234 235 236
3 237 238 239
3 240 241 242
3 243 244 245
3 246 247 248
3 249 250 251
3 252 253 254
3 255 256 257
3 258 259 260
3 261 262 263
3 264 265 266
3 267 268 269
3 270 271 272
3 273 274 275
3 276 277 278
3 279 280 281
3 282 283 284
3 285 286 287
3 288 289 290
3 291 292 293
3 294 295 296
3 297 298 299
3 300 301 302
3 303 304 305
3 306 307 308
3 309 310 311
3 312 313 314
3 315 316 317
3 318 319 320
3 321 322 323
3 324 325 326
3 327 328 329
3 330 331 332
3 333 334 335
3 336 337 338
3 339 340 341
3 342 343 344
3 345 346 347
3 348 349 350
3 351 352 353
3 354 355 356
3 357 358 359
3 360 361 362
3 363 364 365
3 366 367 368
3 369 370 371
3 372 373 374
3 375 376 377
3 378 379 380
3 381 382 383
3 384 385 386
3 387 388 389
3 390 391 392
3 393 394 395
3 396 397 398
3 399 400 401
3 402 403 404
3 405 406 407
3 408 409 410
3 411 412 413
3 414 415 416
3 417 418 419
3 420 421 422
3 423 424 425
3 426 427 428
3 429 430 431
3 432 433 434
3 435 436 437
3 438 439 440
3 441 442 443
3 444 445 446
3 447 448 449
3 450 451 452
3 453 454 455
3 456 457 458
3 459 460 461
3 462 463 464
3 465 466 467
3 468 469 470
3 471 472 473
3 474 475 476
3 477 478 479
3 480 481 482
3 483 484 485
3 486 487 488
3 489 490 491
3 492 493 494
3 495 496 497
3 498 499 500
3 501 502 503
3 504 505 506
3 507 508 509
3 510 511 512
3 513 514 515
3 516 517 518
3 519 520 521
3 522 523 524
3 525 526 527
3 528 529 530
3 531 532 533
3 534 535 536
3 537 538 539
3 540 541 542
3 543 544 545
3 546 547 548
3 549 550 551
3 552 553 554
3 555 556 557
3 558 559 560
3 561 562 563
3 564 565 566
3 567 568 569
3 570 571 572
3 573 574 575
3 576 577 578
3 579 580 581
3 582 583 584
3 585 586 587
3 588 589 590
3 591 592 593
3 594 595 596
3 597 598 599
3 600 601 602
3 603 604 605
3 606 607 608
3 609 610 611
3 612 613 614
3 615 616 617
3 618 619 620
3 621 622 623
3 624 625 626
3 627 628 629
3 630 631 632
3 633 634 635
3 636 637 638
3 639 640 641
3 642 643 644
3 645 646 647
3 648 649 650
3 651 652 653
3 654 655 656
3 657 658 659
3 660 661 662
3 663 664 665
3 666 667 668
3 669 670 671
3 672 673 674
3 675 676 677
3 678 679 680
3 681 682 683
3 684 685 686
3 687 688 689
3 690 691 692
3 693 694 695
3 696 697 698
3 699 700 701
3 702 703 704
3 705 706 707
3 708 709 710
3 711 712 713
3 714 715 716
3 717 718 719
3 720 721 722
3 723 724 725
3 726 727 728
3 729 730 731
3 732 733 734
3 735 736 737
3 738 739 740
3 741 742 743
3 744 745 746
3 747 748 749
3 750 751 752
3 753 754 755
3 756 757 758
3 759 760 761
