ply
format ascii 1.0
element vertex 192
property float x
property float y
property float z
property float nx
property float ny
property float nz
element face 64
property list uint uint vertex_indices
end_header
41.8642 151.382 160.578 -0.162547 -0.614075 -0.772328
41.8371 151.076 160.827 -0.162547 -0.614075 -0.772328
41.4696 151.365 160.674 -0.162547 -0.614075 -0.772328
41.0648 151.897 160.471 -0.588104 -0.732377 -0.343158
40.9073 151.945 160.64 -0.588104 -0.732377 -0.343158
40.8117 152.066 160.545 -0.588104 -0.732377 -0.343158
41.4696 151.365 160.674 -0.640236 -0.64556 -0.416354
40.9073 151.945 160.64 -0.640236 -0.64556 -0.416354
41.0648 151.897 160.471 -0.640236 -0.64556 -0.416354
41.4696 151.365 160.674 -0.190272 -0.472568 -0.860509
41.0648 151.897 160.471 -0.190272 -0.472568 -0.860509
41.8642 151.382 160.578 -0.190272 -0.472568 -0.860509
41.8642 151.382 160.578 0.0220785 -0.168811 -0.985401
41.0648 151.897 160.471 0.0220785 -0.168811 -0.985401
41.6982 151.99 160.47 0.0220785 -0.168811 -0.985401
42.5248 152.126 160.768 0.348786 -0.0705442 -0.934544
41.8642 151.382 160.578 0.348786 -0.0705442 -0.934544
41.6982 151.99 160.47 0.348786 -0.0705442 -0.934544
41.0648 151.897 160.471 0.0363071 0.446876 -0.893859
40.8117 152.066 160.545 0.0363071 0.446876 -0.893859
41.092 152.159 160.603 0.0363071 0.446876 -0.893859
41.6982 151.99 160.47 -0.0688761 0.454836 -0.887908
41.0648 151.897 160.471 -0.0688761 0.454836 -0.887908
41.092 152.159 160.603 -0.0688761 0.454836 -0.887908
41.7991 152.216 160.631 -0.0155155 0.585326 -0.81065
41.6982 151.99 160.47 -0.0155155 0.585326 -0.81065
41.092 152.159 160.603 -0.0155155 0.585326 -0.81065
42.5248 152.126 160.768 0.219926 0.499663 -0.837836
41.6982 151.99 160.47 0.219926 0.499663 -0.837836
41.7991 152.216 160.631 0.219926 0.499663 -0.837836
41.8371 151.076 160.827 -0.230894 -0.972212 0.0386214
42.0341 151.06 161.594 -0.230894 -0.972212 0.0386214
41.382 151.204 161.327 -0.230894 -0.972212 0.0386214
41.4696 151.365 160.674 -0.523717 -0.808038 -0.269804
41.8371 151.076 160.827 -0.523717 -0.808038 -0.269804
41.382 151.204 161.327 -0.523717 -0.808038 -0.269804
41.8642 151.382 160.578 0.485686 -0.577181 -0.656483
42.5957 151.225 161.257 0.485686 -0.577181 -0.656483
41.8371 151.076 160.827 0.485686 -0.577181 -0.656483
41.8371 151.076 160.827 0.236387 -0.968257 -0.081234
42.5957 151.225 161.257 0.236387 -0.968257 -0.081234
42.0341 151.06 161.594 0.236387 -0.968257 -0.081234
40.9073 151.945 160.64 -0.84711 -0.374746 0.37679
40.9454 152.149 160.928 -0.84711 -0.374746 0.37679
40.8117 152.066 160.545 -0.84711 -0.374746 0.37679
40.9073 151.945 160.64 -0.883952 -0.318742 0.3421
41.196 151.902 161.346 -0.883952 -0.318742 0.3421
40.9454 152.149 160.928 -0.883952 -0.318742 0.3421
40.9073 151.945 160.64 -0.702826 -0.667067 0.247098
41.4696 151.365 160.674 -0.702826 -0.667067 0.247098
41.196 151.902 161.346 -0.702826 -0.667067 0.247098
41.4696 151.365 160.674 -0.950228 -0.247855 -0.188771
41.382 151.204 161.327 -0.950228 -0.247855 -0.188771
41.196 151.902 161.346 -0.950228 -0.247855 -0.188771
41.8642 151.382 160.578 0.597654 -0.345502 -0.72349
42.5248 152.126 160.768 0.597654 -0.345502 -0.72349
42.5957 151.225 161.257 0.597654 -0.345502 -0.72349
42.5957 151.225 161.257 0.280021 -0.4407 -0.852861
42.5248 152.126 160.768 0.280021 -0.4407 -0.852861
42.8642 151.945 160.973 0.280021 -0.4407 -0.852861
42.5957 151.225 161.257 0.700448 -0.472184 -0.535178
42.8642 151.945 160.973 0.700448 -0.472184 -0.535178
42.9109 151.327 161.579 0.700448 -0.472184 -0.535178
42.9109 151.327 161.579 0.985185 -0.076222 -0.153625
42.8642 151.945 160.973 0.985185 -0.076222 -0.153625
42.963 151.967 161.596 0.985185 -0.076222 -0.153625
40.8117 152.066 160.545 -0.293568 0.950388 -0.102864
40.9454 152.149 160.928 -0.293568 0.950388 -0.102864
41.092 152.159 160.603 -0.293568 0.950388 -0.102864
40.9454 152.149 160.928 -0.560678 0.521028 0.643561
41.196 151.902 161.346 -0.560678 0.521028 0.643561
41.8952 152.586 161.402 -0.560678 0.521028 0.643561
40.9454 152.149 160.928 -0.358727 0.923912 -0.133045
41.8952 152.586 161.402 -0.358727 0.923912 -0.133045
41.092 152.159 160.603 -0.358727 0.923912 -0.133045
41.092 152.159 160.603 -0.0563906 0.903049 -0.42582
41.8952 152.586 161.402 -0.0563906 0.903049 -0.42582
41.7991 152.216 160.631 -0.0563906 0.903049 -0.42582
42.6501 152.899 161.356 -0.357756 0.788439 -0.500375
41.8952 152.586 161.402 -0.357756 0.788439 -0.500375
42.4084 152.937 161.588 -0.357756 0.788439 -0.500375
42.6501 152.899 161.356 -0.29744 0.608251 -0.735908
42.5248 152.126 160.768 -0.29744 0.608251 -0.735908
41.8952 152.586 161.402 -0.29744 0.608251 -0.735908
42.5248 152.126 160.768 0.192069 0.875421 -0.443562
41.7991 152.216 160.631 0.192069 0.875421 -0.443562
41.8952 152.586 161.402 0.192069 0.875421 -0.443562
42.5248 152.126 160.768 0.599013 0.421157 -0.681036
42.6501 152.899 161.356 0.599013 0.421157 -0.681036
42.8638 152.71 161.427 0.599013 0.421157 -0.681036
42.5248 152.126 160.768 0.62093 0.400374 -0.673904
42.8638 152.71 161.427 0.62093 0.400374 -0.673904
42.8642 151.945 160.973 0.62093 0.400374 -0.673904
42.8642 151.945 160.973 0.982674 0.094974 -0.159157
42.8638 152.71 161.427 0.982674 0.094974 -0.159157
42.963 151.967 161.596 0.982674 0.094974 -0.159157
42.6501 152.899 161.356 -0.309879 0.833314 -0.45778
42.4084 152.937 161.588 -0.309879 0.833314 -0.45778
42.7682 153.022 161.501 -0.309879 0.833314 -0.45778
42.8638 152.71 161.427 0.558376 0.348104 -0.753021
42.6501 152.899 161.356 0.558376 0.348104 -0.753021
42.7682 153.022 161.501 0.558376 0.348104 -0.753021
42.0341 151.06 161.594 -0.369637 -0.802177 0.468914
41.8491 151.361 161.964 -0.369637 -0.802177 0.468914
41.382 151.204 161.327 -0.369637 -0.802177 0.468914
42.5467 151.209 162.272 -0.379059 -0.801048 0.463288
41.8491 151.361 161.964 -0.379059 -0.801048 0.463288
42.0341 151.06 161.594 -0.379059 -0.801048 0.463288
42.5467 151.209 162.272 -0.18435 -0.921281 0.342427
42.0341 151.06 161.594 -0.18435 -0.921281 0.342427
42.7524 151.118 162.138 -0.18435 -0.921281 0.342427
42.7524 151.118 162.138 0.193925 -0.969114 -0.152354
42.0341 151.06 161.594 0.193925 -0.969114 -0.152354
42.5957 151.225 161.257 0.193925 -0.969114 -0.152354
42.7524 151.118 162.138 0.471603 -0.861398 -0.188636
42.5957 151.225 161.257 0.471603 -0.861398 -0.188636
42.9109 151.327 161.579 0.471603 -0.861398 -0.188636
42.8998 151.398 162.243 0.872525 -0.48402 0.0665289
42.7524 151.118 162.138 0.872525 -0.48402 0.0665289
42.9109 151.327 161.579 0.872525 -0.48402 0.0665289
41.8491 151.361 161.964 -0.694431 -0.0163132 0.719375
41.8207 152.022 161.952 -0.694431 -0.0163132 0.719375
41.196 151.902 161.346 -0.694431 -0.0163132 0.719375
41.382 151.204 161.327 -0.76037 -0.219435 0.611298
41.8491 151.361 161.964 -0.76037 -0.219435 0.611298
41.196 151.902 161.346 -0.76037 -0.219435 0.611298
42.5033 151.916 162.281 -0.409426 -0.0372241 0.911584
41.8491 151.361 161.964 -0.409426 -0.0372241 0.911584
42.5467 151.209 162.272 -0.409426 -0.0372241 0.911584
41.8207 152.022 161.952 -0.434314 -0.00168947 0.90076
41.8491 151.361 161.964 -0.434314 -0.00168947 0.90076
42.5033 151.916 162.281 -0.434314 -0.00168947 0.90076
42.9109 151.327 161.579 0.99633 -0.0817211 0.0254428
42.963 151.967 161.596 0.99633 -0.0817211 0.0254428
42.8998 151.398 162.243 0.99633 -0.0817211 0.0254428
42.8998 151.398 162.243 0.992441 0.0261878 0.119898
42.963 151.967 161.596 0.992441 0.0261878 0.119898
42.889 152.177 162.163 0.992441 0.0261878 0.119898
41.196 151.902 161.346 -0.617567 0.589278 0.520925
41.8207 152.022 161.952 -0.617567 0.589278 0.520925
41.8952 152.586 161.402 -0.617567 0.589278 0.520925
42.4084 152.937 161.588 -0.174543 0.668433 0.723002
42.684 152.385 162.165 -0.174543 0.668433 0.723002
42.7955 152.85 161.761 -0.174543 0.668433 0.723002
41.8952 152.586 161.402 -0.559201 0.449034 0.696895
42.684 152.385 162.165 -0.559201 0.449034 0.696895
42.4084 152.937 161.588 -0.559201 0.449034 0.696895
41.8952 152.586 161.402 -0.58223 0.400043 0.707795
42.5033 151.916 162.281 -0.58223 0.400043 0.707795
42.684 152.385 162.165 -0.58223 0.400043 0.707795
41.8952 152.586 161.402 -0.221758 0.695443 0.683507
41.8207 152.022 161.952 -0.221758 0.695443 0.683507
42.5033 151.916 162.281 -0.221758 0.695443 0.683507
42.7955 152.85 161.761 0.506203 0.492414 0.708016
42.684 152.385 162.165 0.506203 0.492414 0.708016
42.889 152.177 162.163 0.506203 0.492414 0.708016
42.7955 152.85 161.761 0.972613 0.202769 0.113619
42.889 152.177 162.163 0.972613 0.202769 0.113619
42.8638 152.71 161.427 0.972613 0.202769 0.113619
42.8638 152.71 161.427 0.986186 0.148335 0.073718
42.889 152.177 162.163 0.986186 0.148335 0.073718
42.963 151.967 161.596 0.986186 0.148335 0.073718
42.4084 152.937 161.588 -0.0632207 0.82973 0.554573
42.7955 152.85 161.761 -0.0632207 0.82973 0.554573
42.7682 153.022 161.501 -0.0632207 0.82973 0.554573
42.8638 152.71 161.427 0.958295 0.27414 0.0807326
42.7682 153.022 161.501 0.958295 0.27414 0.0807326
42.7955 152.85 161.761 0.958295 0.27414 0.0807326
42.7524 151.118 162.138 0.0279218 -0.806443 0.590652
42.8115 151.321 162.412 0.0279218 -0.806443 0.590652
42.5467 151.209 162.272 0.0279218 -0.806443 0.590652
42.7524 151.118 162.138 0.833971 -0.514009 0.200716
42.8998 151.398 162.243 0.833971 -0.514009 0.200716
42.8115 151.321 162.412 0.833971 -0.514009 0.200716
42.8115 151.321 162.412 -0.350449 0.0251444 0.936244
42.8372 151.9 162.406 -0.350449 0.0251444 0.936244
42.5033 151.916 162.281 -0.350449 0.0251444 0.936244
42.5467 151.209 162.272 -0.455693 -0.039767 0.889248
42.8115 151.321 162.412 -0.455693 -0.039767 0.889248
42.5033 151.916 162.281 -0.455693 -0.039767 0.889248
42.8998 151.398 162.243 0.967489 0.0392154 0.249855
42.889 152.177 162.163 0.967489 0.0392154 0.249855
42.8372 151.9 162.406 0.967489 0.0392154 0.249855
42.8115 151.321 162.412 0.892863 -0.0350081 0.448965
42.8998 151.398 162.243 0.892863 -0.0350081 0.448965
42.8372 151.9 162.406 0.892863 -0.0350081 0.448965
42.5033 151.916 162.281 -0.316273 0.341468 0.885083
42.8372 151.9 162.406 -0.316273 0.341468 0.885083
42.684 152.385 162.165 -0.316273 0.341468 0.885083
42.889 152.177 162.163 0.520945 0.507197 0.686562
42.684 152.385 162.165 0.520945 0.507197 0.686562
42.8372 151.9 162.406 0.520945 0.507197 0.686562
3 0 1 2
3 3 4 5
3 6 7 8
3 9 10 11
3 12 13 14
3 15 16 17
3 18 19 20
3 21 22 23
3 24 25 26
3 27 28 29
3 30 31 32
3 33 34 35
3 36 37 38
3 39 40 41
3 42 43 44
3 45 46 47
3 48 49 50
3 51 52 53
3 54 55 56
3 57 58 59
3 60 61 62
3 63 64 65
3 66 67 68
3 69 70 71
3 72 73 74
3 75 76 77
3 78 79 80
3 81 82 83
3 84 85 86
3 87 88 89
3 90 91 92
3 93 94 95
3 96 97 98
3 99 100 101
3 102 103 104
3 105 106 107
3 108 109 110
3 111 112 113
3 114 115 116
3 117 118 119
3 120 121 122
3 123 124 125
3 126 127 128
3 129 130 131
3 132 133 134
3 135 136 137
3 138 139 140
3 141 142 143
3 144 145 146
3 147 148 149
3 150 151 152
3 153 154 155
3 156 157 158
3 159 160 161
3 162 163 164
3 165 166 167
3 168 169 170
3 171 172 173
3 174 175 176
3 177 178 179
3 180 181 182
3 183 184 185
3 186 187 188
3 189 190 191
