ply
format ascii 1.0
element vertex 246
property float x
property float y
property float z
property float nx
property float ny
property float nz
element face 82
property list uint uint vertex_indices
end_header
46.295 150.009 163.615 0.0676996 -0.256866 -0.964073
46.3295 149.157 163.845 0.0676996 -0.256866 -0.964073
46.0406 149.352 163.772 0.0676996 -0.256866 -0.964073
45.9531 150.136 163.912 -0.639874 0.0647369 -0.765748
46.295 150.009 163.615 -0.639874 0.0647369 -0.765748
46.0406 149.352 163.772 -0.639874 0.0647369 -0.765748
46.8249 149.817 163.69 -0.0208377 -0.214126 -0.976584
46.6866 149.158 163.837 -0.0208377 -0.214126 -0.976584
46.3295 149.157 163.845 -0.0208377 -0.214126 -0.976584
46.295 150.009 163.615 0.0415318 -0.258227 -0.965191
46.8249 149.817 163.69 0.0415318 -0.258227 -0.965191
46.3295 149.157 163.845 0.0415318 -0.258227 -0.965191
46.418 150.994 163.808 -0.589301 0.225125 -0.775914
46.295 150.009 163.615 -0.589301 0.225125 -0.775914
45.9531 150.136 163.912 -0.589301 0.225125 -0.775914
46.1186 150.966 163.936 -0.399552 0.106057 -0.910555
46.418 150.994 163.808 -0.399552 0.106057 -0.910555
45.9531 150.136 163.912 -0.399552 0.106057 -0.910555
46.6679 150.648 163.653 0.13186 -0.0190493 -0.991085
46.8249 149.817 163.69 0.13186 -0.0190493 -0.991085
46.295 150.009 163.615 0.13186 -0.0190493 -0.991085
46.418 150.994 163.808 -0.278877 0.217498 -0.935373
46.6679 150.648 163.653 -0.278877 0.217498 -0.935373
46.295 150.009 163.615 -0.278877 0.217498 -0.935373
46.3295 149.157 163.845 -0.508984 -0.828322 -0.23413
46.3927 148.925 164.528 -0.508984 -0.828322 -0.23413
45.7943 149.288 164.543 -0.508984 -0.828322 -0.23413
46.0406 149.352 163.772 -0.505492 -0.831368 -0.230878
46.3295 149.157 163.845 -0.505492 -0.831368 -0.230878
45.7943 149.288 164.543 -0.505492 -0.831368 -0.230878
46.6866 149.158 163.837 0.449334 -0.751149 -0.483606
47.367 149.327 164.207 0.449334 -0.751149 -0.483606
47.0292 149.008 164.387 0.449334 -0.751149 -0.483606
46.6866 149.158 163.837 -0.00226147 -0.965445 -0.260596
47.0292 149.008 164.387 -0.00226147 -0.965445 -0.260596
46.3295 149.157 163.845 -0.00226147 -0.965445 -0.260596
46.3295 149.157 163.845 0.052407 -0.944153 -0.325314
47.0292 149.008 164.387 0.052407 -0.944153 -0.325314
46.3927 148.925 164.528 0.052407 -0.944153 -0.325314
47.0292 149.008 164.387 0.385939 -0.729695 -0.564444
47.367 149.327 164.207 0.385939 -0.729695 -0.564444
47.4905 149.119 164.56 0.385939 -0.729695 -0.564444
45.4037 149.873 164.462 -0.981 0.140319 0.133978
45.4073 149.668 164.703 -0.981 0.140319 0.133978
45.4975 150.323 164.678 -0.981 0.140319 0.133978
45.4037 149.873 164.462 -0.713831 -0.538311 -0.447958
45.7943 149.288 164.543 -0.713831 -0.538311 -0.447958
45.4073 149.668 164.703 -0.713831 -0.538311 -0.447958
45.4037 149.873 164.462 -0.517874 -0.446478 -0.729701
45.9531 150.136 163.912 -0.517874 -0.446478 -0.729701
45.7943 149.288 164.543 -0.517874 -0.446478 -0.729701
45.9531 150.136 163.912 -0.95002 -0.0513459 -0.307938
46.0406 149.352 163.772 -0.95002 -0.0513459 -0.307938
45.7943 149.288 164.543 -0.95002 -0.0513459 -0.307938
47.367 149.327 164.207 0.502968 -0.299334 -0.810815
46.8249 149.817 163.69 0.502968 -0.299334 -0.810815
47.3679 150.2 163.885 0.502968 -0.299334 -0.810815
46.6866 149.158 163.837 0.511542 -0.28838 -0.80942
46.8249 149.817 163.69 0.511542 -0.28838 -0.80942
47.367 149.327 164.207 0.511542 -0.28838 -0.80942
48.0083 149.619 164.726 0.668907 -0.514259 -0.53675
47.4905 149.119 164.56 0.668907 -0.514259 -0.53675
47.367 149.327 164.207 0.668907 -0.514259 -0.53675
48.0083 149.619 164.726 0.660156 -0.560608 -0.499912
47.367 149.327 164.207 0.660156 -0.560608 -0.499912
48.1544 150.098 164.382 0.660156 -0.560608 -0.499912
48.1544 150.098 164.382 0.480406 -0.303719 -0.822779
47.367 149.327 164.207 0.480406 -0.303719 -0.822779
47.3679 150.2 163.885 0.480406 -0.303719 -0.822779
48.0083 149.619 164.726 0.682792 -0.552117 -0.4785
48.1544 150.098 164.382 0.682792 -0.552117 -0.4785
48.5028 150.199 164.762 0.682792 -0.552117 -0.4785
45.4975 150.323 164.678 -0.735578 0.41163 -0.538039
45.9531 150.136 163.912 -0.735578 0.41163 -0.538039
45.4037 149.873 164.462 -0.735578 0.41163 -0.538039
45.4975 150.323 164.678 -0.774158 0.329022 -0.540763
45.7966 150.9 164.601 -0.774158 0.329022 -0.540763
45.9531 150.136 163.912 -0.774158 0.329022 -0.540763
45.7966 150.9 164.601 -0.891021 0.189522 -0.412508
46.1186 150.966 163.936 -0.891021 0.189522 -0.412508
45.9531 150.136 163.912 -0.891021 0.189522 -0.412508
47.3679 150.2 163.885 0.397081 0.150858 -0.9053
46.6679 150.648 163.653 0.397081 0.150858 -0.9053
47.2012 150.972 163.941 0.397081 0.150858 -0.9053
46.8249 149.817 163.69 0.326364 0.0197369 -0.945038
46.6679 150.648 163.653 0.326364 0.0197369 -0.945038
47.3679 150.2 163.885 0.326364 0.0197369 -0.945038
48.1544 150.098 164.382 0.540473 0.0956325 -0.835909
47.3679 150.2 163.885 0.540473 0.0956325 -0.835909
48.0131 150.911 164.384 0.540473 0.0956325 -0.835909
48.0131 150.911 164.384 0.481872 0.165923 -0.860389
47.3679 150.2 163.885 0.481872 0.165923 -0.860389
47.2012 150.972 163.941 0.481872 0.165923 -0.860389
48.3604 150.796 164.643 0.731586 0.0386929 -0.68065
48.5028 150.199 164.762 0.731586 0.0386929 -0.68065
48.1544 150.098 164.382 0.731586 0.0386929 -0.68065
48.0131 150.911 164.384 0.617888 0.108959 -0.77868
48.3604 150.796 164.643 0.617888 0.108959 -0.77868
48.1544 150.098 164.382 0.617888 0.108959 -0.77868
46.1186 150.966 163.936 -0.651372 0.718403 -0.244154
45.7966 150.9 164.601 -0.651372 0.718403 -0.244154
46.3802 151.422 164.579 -0.651372 0.718403 -0.244154
46.418 150.994 163.808 -0.281303 0.833214 -0.476049
46.1186 150.966 163.936 -0.281303 0.833214 -0.476049
46.3802 151.422 164.579 -0.281303 0.833214 -0.476049
47.2012 150.972 163.941 0.158668 0.496421 -0.853458
46.6679 150.648 163.653 0.158668 0.496421 -0.853458
46.418 150.994 163.808 0.158668 0.496421 -0.853458
47.2012 150.972 163.941 0.136815 0.711141 -0.689609
46.418 150.994 163.808 0.136815 0.711141 -0.689609
47.2673 151.508 164.507 0.136815 0.711141 -0.689609
47.2673 151.508 164.507 -0.12393 0.865107 -0.486035
46.418 150.994 163.808 -0.12393 0.865107 -0.486035
46.3802 151.422 164.579 -0.12393 0.865107 -0.486035
48.0131 150.911 164.384 0.404633 0.639846 -0.653352
47.2012 150.972 163.941 0.404633 0.639846 -0.653352
47.2673 151.508 164.507 0.404633 0.639846 -0.653352
48.1009 151.176 164.813 0.474775 0.702184 -0.53059
48.0131 150.911 164.384 0.474775 0.702184 -0.53059
47.2673 151.508 164.507 0.474775 0.702184 -0.53059
48.3604 150.796 164.643 0.588965 0.628294 -0.508297
48.0131 150.911 164.384 0.588965 0.628294 -0.508297
48.1009 151.176 164.813 0.588965 0.628294 -0.508297
46.3927 148.925 164.528 -0.48992 -0.81851 0.300032
46.3178 149.099 164.882 -0.48992 -0.81851 0.300032
45.7943 149.288 164.543 -0.48992 -0.81851 0.300032
46.3927 148.925 164.528 0.180219 -0.952266 0.246397
47.0292 149.008 164.387 0.180219 -0.952266 0.246397
47.1193 149.144 164.846 0.180219 -0.952266 0.246397
46.3178 149.099 164.882 0.0704818 -0.888505 0.453422
46.3927 148.925 164.528 0.0704818 -0.888505 0.453422
47.1193 149.144 164.846 0.0704818 -0.888505 0.453422
47.0292 149.008 164.387 0.13364 -0.957129 0.256989
47.4905 149.119 164.56 0.13364 -0.957129 0.256989
47.1193 149.144 164.846 0.13364 -0.957129 0.256989
45.4073 149.668 164.703 -0.743842 0.127756 0.656031
45.9714 149.968 165.284 -0.743842 0.127756 0.656031
45.4975 150.323 164.678 -0.743842 0.127756 0.656031
45.7943 149.288 164.543 -0.353751 -0.645767 0.676642
45.9714 149.968 165.284 -0.353751 -0.645767 0.676642
45.4073 149.668 164.703 -0.353751 -0.645767 0.676642
45.7943 149.288 164.543 -0.529808 -0.558268 0.638467
46.4421 149.63 165.38 -0.529808 -0.558268 0.638467
45.9714 149.968 165.284 -0.529808 -0.558268 0.638467
45.7943 149.288 164.543 -0.592596 -0.472797 0.652145
46.3178 149.099 164.882 -0.592596 -0.472797 0.652145
46.4421 149.63 165.38 -0.592596 -0.472797 0.652145
47.1193 149.144 164.846 0.0711229 -0.691074 0.719276
46.4421 149.63 165.38 0.0711229 -0.691074 0.719276
46.3178 149.099 164.882 0.0711229 -0.691074 0.719276
47.3696 149.648 165.389 0.00759589 -0.734678 0.678373
46.4421 149.63 165.38 0.00759589 -0.734678 0.678373
47.1193 149.144 164.846 0.00759589 -0.734678 0.678373
48.0083 149.619 164.726 0.521464 -0.666722 0.532502
48.0371 150.193 165.417 0.521464 -0.666722 0.532502
47.3696 149.648 165.389 0.521464 -0.666722 0.532502
48.0083 149.619 164.726 0.462486 -0.746025 0.479117
47.3696 149.648 165.389 0.462486 -0.746025 0.479117
47.1193 149.144 164.846 0.462486 -0.746025 0.479117
48.0083 149.619 164.726 0.432986 -0.655604 0.618632
47.1193 149.144 164.846 0.432986 -0.655604 0.618632
47.4905 149.119 164.56 0.432986 -0.655604 0.618632
48.5028 150.199 164.762 0.660208 -0.590881 0.463665
48.0371 150.193 165.417 0.660208 -0.590881 0.463665
48.0083 149.619 164.726 0.660208 -0.590881 0.463665
45.7966 150.9 164.601 -0.766552 0.492873 0.411674
46.0835 150.702 165.373 -0.766552 0.492873 0.411674
46.2968 151.097 165.298 -0.766552 0.492873 0.411674
45.4975 150.323 164.678 -0.786012 0.461876 0.410921
46.0835 150.702 165.373 -0.786012 0.461876 0.410921
45.7966 150.9 164.601 -0.786012 0.461876 0.410921
45.4975 150.323 164.678 -0.775201 0.0420121 0.630316
45.9714 149.968 165.284 -0.775201 0.0420121 0.630316
46.0835 150.702 165.373 -0.775201 0.0420121 0.630316
46.0835 150.702 165.373 -0.554891 0.435687 0.708712
46.524 150.923 165.582 -0.554891 0.435687 0.708712
46.2968 151.097 165.298 -0.554891 0.435687 0.708712
48.0114 150.95 165.434 0.701486 0.00822082 0.712635
48.0371 150.193 165.417 0.701486 0.00822082 0.712635
48.3407 150.807 165.111 0.701486 0.00822082 0.712635
48.5028 150.199 164.762 0.97047 0.238623 0.0353052
48.3604 150.796 164.643 0.97047 0.238623 0.0353052
48.3407 150.807 165.111 0.97047 0.238623 0.0353052
48.5028 150.199 164.762 0.81023 -0.114226 0.574874
48.3407 150.807 165.111 0.81023 -0.114226 0.574874
48.0371 150.193 165.417 0.81023 -0.114226 0.574874
45.7966 150.9 164.601 -0.639145 0.725743 0.25454
46.2968 151.097 165.298 -0.639145 0.725743 0.25454
46.3802 151.422 164.579 -0.639145 0.725743 0.25454
46.2968 151.097 165.298 -0.200229 0.757323 0.621586
46.524 150.923 165.582 -0.200229 0.757323 0.621586
47.1932 151.305 165.333 -0.200229 0.757323 0.621586
46.2968 151.097 165.298 -0.223357 0.897373 0.38057
47.1932 151.305 165.333 -0.223357 0.897373 0.38057
46.3802 151.422 164.579 -0.223357 0.897373 0.38057
46.3802 151.422 164.579 -0.0753437 0.969765 0.232117
47.1932 151.305 165.333 -0.0753437 0.969765 0.232117
47.2673 151.508 164.507 -0.0753437 0.969765 0.232117
48.0114 150.95 165.434 0.636616 0.690158 0.344096
48.3407 150.807 165.111 0.636616 0.690158 0.344096
48.1009 151.176 164.813 0.636616 0.690158 0.344096
48.0114 150.95 165.434 0.332388 0.869341 0.365738
48.1009 151.176 164.813 0.332388 0.869341 0.365738
47.1932 151.305 165.333 0.332388 0.869341 0.365738
47.1932 151.305 165.333 0.27614 0.927183 0.253139
48.1009 151.176 164.813 0.27614 0.927183 0.253139
47.2673 151.508 164.507 0.27614 0.927183 0.253139
48.3604 150.796 164.643 0.830684 0.556313 0.0219125
48.1009 151.176 164.813 0.830684 0.556313 0.0219125
48.3407 150.807 165.111 0.830684 0.556313 0.0219125
46.4421 149.63 165.38 -0.434497 -0.374481 0.819132
46.436 150.238 165.654 -0.434497 -0.374481 0.819132
45.9714 149.968 165.284 -0.434497 -0.374481 0.819132
46.4421 149.63 165.38 0.00382607 -0.598848 0.800854
47.3696 149.648 165.389 0.00382607 -0.598848 0.800854
47.1733 150.053 165.693 0.00382607 -0.598848 0.800854
46.436 150.238 165.654 -0.149066 -0.408423 0.900539
46.4421 149.63 165.38 -0.149066 -0.408423 0.900539
47.1733 150.053 165.693 -0.149066 -0.408423 0.900539
47.3696 149.648 165.389 0.336425 -0.455379 0.824287
48.0371 150.193 165.417 0.336425 -0.455379 0.824287
47.1733 150.053 165.693 0.336425 -0.455379 0.824287
45.9714 149.968 165.284 -0.622983 0.000299976 0.782235
46.436 150.238 165.654 -0.622983 0.000299976 0.782235
46.0835 150.702 165.373 -0.622983 0.000299976 0.782235
46.524 150.923 165.582 -0.484863 0.153126 0.861081
46.0835 150.702 165.373 -0.484863 0.153126 0.861081
46.436 150.238 165.654 -0.484863 0.153126 0.861081
46.524 150.923 165.582 -0.124242 0.119901 0.984981
46.436 150.238 165.654 -0.124242 0.119901 0.984981
47.2694 150.769 165.695 -0.124242 0.119901 0.984981
47.2694 150.769 165.695 -0.050897 0.00377176 0.998697
46.436 150.238 165.654 -0.050897 0.00377176 0.998697
47.1733 150.053 165.693 -0.050897 0.00377176 0.998697
48.0371 150.193 165.417 0.333943 -0.00934654 0.942547
48.0114 150.95 165.434 0.333943 -0.00934654 0.942547
47.2694 150.769 165.695 0.333943 -0.00934654 0.942547
47.1733 150.053 165.693 0.310076 -0.0445696 0.949667
48.0371 150.193 165.417 0.310076 -0.0445696 0.949667
47.2694 150.769 165.695 0.310076 -0.0445696 0.949667
46.524 150.923 165.582 -0.00985106 0.559165 0.828998
47.2694 150.769 165.695 -0.00985106 0.559165 0.828998
47.1932 151.305 165.333 -0.00985106 0.559165 0.828998
48.0114 150.95 165.434 0.146712 0.568332 0.809614
47.1932 151.305 165.333 0.146712 0.568332 0.809614
47.2694 150.769 165.695 0.146712 0.568332 0.809614
3 0 1 2
3 3 4 5
3 6 7 8
3 9 10 11
3 12 13 14
3 15 16 17
3 18 19 20
3 21 22 23
3 24 25 26
3 27 28 29
3 30 31 32
3 33 34 35
3 36 37 38
3 39 40 41
3 42 43 44
3 45 46 47
3 48 49 50
3 51 52 53
3 54 55 56
3 57 58 59
3 60 61 62
3 63 64 65
3 66 67 68
3 69 70 71
3 72 73 74
3 75 76 77
3 78 79 80
3 81 82 83
3 84 85 86
3 87 88 89
3 90 91 92
3 93 94 95
3 96 97 98
3 99 100 101
3 102 103 104
3 105 106 107
3 108 109 110
3 111 112 113
3 114 115 116
3 117 118 119
3 120 121 122
3 123 124 125
3 126 127 128
3 129 130 131
3 132 133 134
3 135 136 137
3 138 139 140
3 141 142 143
3 144 145 146
3 147 148 149
3 150 151 152
3 153 154 155
3 156 157 158
3 159 160 161
3 162 163 164
3 165 166 167
3 168 169 170
3 171 172 173
3 174 175 176
3 177 178 179
3 180 181 182
3 183 184 185
3 186 187 188
3 189 190 191
3 192 193 194
3 195 196 197
3 198 199 200
3 201 202 203
3 204 205 206
3 207 208 209
3 210 211 212
3 213 214 215
3 216 217 218
3 219 220 221
3 222 223 224
3 225 226 227
3 228 229 230
3 231 232 233
3 234 235 236
3 237 238 239
3 240 241 242
3 243 244 245
