ply
format ascii 1.0
element vertex 426
property float x
property float y
property float z
property float nx
property float ny
property float nz
element face 142
property list uint uint vertex_indices
end_header
61.5534 114.761 154.464 -0.138373 -0.746824 -0.650467
61.7945 115.019 154.116 -0.138373 -0.746824 -0.650467
62.0752 114.715 154.405 -0.138373 -0.746824 -0.650467
61.5534 114.761 154.464 -0.580836 -0.585432 -0.565596
60.67 115.64 154.461 -0.580836 -0.585432 -0.565596
61.0022 115.662 154.097 -0.580836 -0.585432 -0.565596
61.5534 114.761 154.464 -0.432364 -0.553925 -0.711497
61.0022 115.662 154.097 -0.432364 -0.553925 -0.711497
61.7945 115.019 154.116 -0.432364 -0.553925 -0.711497
61.7945 115.019 154.116 -0.11889 -0.175575 -0.977261
61.0022 115.662 154.097 -0.11889 -0.175575 -0.977261
61.7829 115.794 153.978 -0.11889 -0.175575 -0.977261
62.6726 115.206 154.273 0.257125 -0.530585 -0.807692
62.0752 114.715 154.405 0.257125 -0.530585 -0.807692
61.7945 115.019 154.116 0.257125 -0.530585 -0.807692
62.6726 115.206 154.273 0.243637 -0.406482 -0.880576
61.7945 115.019 154.116 0.243637 -0.406482 -0.880576
62.7286 115.731 154.046 0.243637 -0.406482 -0.880576
62.7286 115.731 154.046 0.0587095 -0.173922 -0.983008
61.7945 115.019 154.116 0.0587095 -0.173922 -0.983008
61.7829 115.794 153.978 0.0587095 -0.173922 -0.983008
62.6726 115.206 154.273 0.264516 -0.406164 -0.874678
62.7286 115.731 154.046 0.264516 -0.406164 -0.874678
63.8378 115.552 154.464 0.264516 -0.406164 -0.874678
60.7733 116.627 154.107 -0.723088 -0.164771 -0.670816
61.0022 115.662 154.097 -0.723088 -0.164771 -0.670816
60.67 115.64 154.461 -0.723088 -0.164771 -0.670816
60.4534 116.647 154.414 -0.687108 -0.180367 -0.703812
60.7733 116.627 154.107 -0.687108 -0.180367 -0.703812
60.67 115.64 154.461 -0.687108 -0.180367 -0.703812
61.7829 115.794 153.978 -0.142922 -0.0440121 -0.988755
61.0022 115.662 154.097 -0.142922 -0.0440121 -0.988755
61.5362 116.535 153.981 -0.142922 -0.0440121 -0.988755
61.5362 116.535 153.981 -0.165943 -0.0295315 -0.985693
61.0022 115.662 154.097 -0.165943 -0.0295315 -0.985693
60.7733 116.627 154.107 -0.165943 -0.0295315 -0.985693
62.7286 115.731 154.046 0.0687846 -0.0384895 -0.996889
61.7829 115.794 153.978 0.0687846 -0.0384895 -0.996889
62.5952 116.688 154.0 0.0687846 -0.0384895 -0.996889
62.5952 116.688 154.0 0.0165123 0.00907503 -0.999822
61.7829 115.794 153.978 0.0165123 0.00907503 -0.999822
61.5362 116.535 153.981 0.0165123 0.00907503 -0.999822
63.8378 115.552 154.464 0.309671 -0.234863 -0.921381
62.7286 115.731 154.046 0.309671 -0.234863 -0.921381
63.6466 116.613 154.13 0.309671 -0.234863 -0.921381
63.6466 116.613 154.13 0.120257 -0.0310927 -0.992256
62.7286 115.731 154.046 0.120257 -0.0310927 -0.992256
62.5952 116.688 154.0 0.120257 -0.0310927 -0.992256
63.6466 116.613 154.13 0.418192 -0.203879 -0.885183
64.2841 116.505 154.456 0.418192 -0.203879 -0.885183
63.8378 115.552 154.464 0.418192 -0.203879 -0.885183
60.6737 117.414 154.182 -0.693213 -0.0188476 -0.720487
60.7733 116.627 154.107 -0.693213 -0.0188476 -0.720487
60.4534 116.647 154.414 -0.693213 -0.0188476 -0.720487
60.4939 117.47 154.537 -0.879277 0.112411 -0.462856
60.6737 117.414 154.182 -0.879277 0.112411 -0.462856
60.4534 116.647 154.414 -0.879277 0.112411 -0.462856
61.5362 116.535 153.981 -0.123852 0.275567 -0.95327
60.7733 116.627 154.107 -0.123852 0.275567 -0.95327
61.6935 117.532 154.249 -0.123852 0.275567 -0.95327
61.6935 117.532 154.249 0.0532368 0.101725 -0.993387
60.7733 116.627 154.107 0.0532368 0.101725 -0.993387
60.6737 117.414 154.182 0.0532368 0.101725 -0.993387
61.6935 117.532 154.249 0.0793199 0.358931 -0.929987
62.7723 117.246 154.23 0.0793199 0.358931 -0.929987
62.5952 116.688 154.0 0.0793199 0.358931 -0.929987
61.6935 117.532 154.249 -0.0206443 0.26236 -0.964749
62.5952 116.688 154.0 -0.0206443 0.26236 -0.964749
61.5362 116.535 153.981 -0.0206443 0.26236 -0.964749
62.7723 117.246 154.23 -0.19129 0.621119 -0.760013
63.3271 117.628 154.403 -0.19129 0.621119 -0.760013
63.5259 117.401 154.168 -0.19129 0.621119 -0.760013
62.7723 117.246 154.23 -0.160938 0.420029 -0.893126
63.5259 117.401 154.168 -0.160938 0.420029 -0.893126
62.5952 116.688 154.0 -0.160938 0.420029 -0.893126
62.5952 116.688 154.0 0.126934 0.0668895 -0.989653
63.5259 117.401 154.168 0.126934 0.0668895 -0.989653
63.6466 116.613 154.13 0.126934 0.0668895 -0.989653
63.9268 117.329 154.418 0.471244 0.16485 -0.86646
64.2841 116.505 154.456 0.471244 0.16485 -0.86646
63.6466 116.613 154.13 0.471244 0.16485 -0.86646
63.5259 117.401 154.168 0.542138 0.122881 -0.831256
63.9268 117.329 154.418 0.542138 0.122881 -0.831256
63.6466 116.613 154.13 0.542138 0.122881 -0.831256
60.6737 117.414 154.182 -0.721479 0.527732 -0.448293
60.4939 117.47 154.537 -0.721479 0.527732 -0.448293
60.7997 117.732 154.354 -0.721479 0.527732 -0.448293
61.6935 117.532 154.249 0.00303605 0.473683 -0.88069
60.6737 117.414 154.182 0.00303605 0.473683 -0.88069
60.7997 117.732 154.354 0.00303605 0.473683 -0.88069
61.3803 117.99 154.546 0.0278146 0.557498 -0.829712
61.6935 117.532 154.249 0.0278146 0.557498 -0.829712
60.7997 117.732 154.354 0.0278146 0.557498 -0.829712
63.5259 117.401 154.168 0.108554 0.760217 -0.640536
63.3271 117.628 154.403 0.108554 0.760217 -0.640536
63.6401 117.687 154.526 0.108554 0.760217 -0.640536
63.9268 117.329 154.418 0.501728 0.591384 -0.631295
63.5259 117.401 154.168 0.501728 0.591384 -0.631295
63.6401 117.687 154.526 0.501728 0.591384 -0.631295
61.5534 114.761 154.464 -0.452304 -0.888326 -0.0793621
61.7961 114.555 155.391 -0.452304 -0.888326 -0.0793621
61.2846 114.839 155.128 -0.452304 -0.888326 -0.0793621
62.0752 114.715 154.405 0.249424 -0.889231 -0.383479
62.9443 114.768 154.848 0.249424 -0.889231 -0.383479
62.5133 114.535 155.108 0.249424 -0.889231 -0.383479
62.0752 114.715 154.405 -0.10624 -0.977102 -0.184352
62.5133 114.535 155.108 -0.10624 -0.977102 -0.184352
61.5534 114.761 154.464 -0.10624 -0.977102 -0.184352
61.5534 114.761 154.464 -0.101833 -0.976361 -0.190656
62.5133 114.535 155.108 -0.101833 -0.976361 -0.190656
61.7961 114.555 155.391 -0.101833 -0.976361 -0.190656
62.9443 114.768 154.848 0.147259 -0.883547 -0.44459
63.6622 114.79 155.041 0.147259 -0.883547 -0.44459
63.447 114.606 155.336 0.147259 -0.883547 -0.44459
62.5133 114.535 155.108 0.181176 -0.862488 -0.472535
62.9443 114.768 154.848 0.181176 -0.862488 -0.472535
63.447 114.606 155.336 0.181176 -0.862488 -0.472535
63.447 114.606 155.336 0.602831 -0.795841 -0.0568481
63.6622 114.79 155.041 0.602831 -0.795841 -0.0568481
63.8587 114.917 155.355 0.602831 -0.795841 -0.0568481
60.67 115.64 154.461 -0.862583 -0.50232 -0.0602129
60.7524 115.394 155.336 -0.862583 -0.50232 -0.0602129
60.4844 115.877 155.145 -0.862583 -0.50232 -0.0602129
61.2846 114.839 155.128 -0.691095 -0.694965 -0.198524
60.67 115.64 154.461 -0.691095 -0.694965 -0.198524
61.5534 114.761 154.464 -0.691095 -0.694965 -0.198524
60.7524 115.394 155.336 -0.738611 -0.663838 -0.117362
60.67 115.64 154.461 -0.738611 -0.663838 -0.117362
61.2846 114.839 155.128 -0.738611 -0.663838 -0.117362
62.0752 114.715 154.405 0.378949 -0.641085 -0.667389
62.6726 115.206 154.273 0.378949 -0.641085 -0.667389
62.9443 114.768 154.848 0.378949 -0.641085 -0.667389
63.8378 115.552 154.464 0.311139 -0.67941 -0.664526
62.9443 114.768 154.848 0.311139 -0.67941 -0.664526
62.6726 115.206 154.273 0.311139 -0.67941 -0.664526
63.6622 114.79 155.041 0.222052 -0.620653 -0.751986
62.9443 114.768 154.848 0.222052 -0.620653 -0.751986
63.8378 115.552 154.464 0.222052 -0.620653 -0.751986
63.6622 114.79 155.041 0.827883 -0.447196 -0.338563
63.8378 115.552 154.464 0.827883 -0.447196 -0.338563
63.8587 114.917 155.355 0.827883 -0.447196 -0.338563
63.8587 114.917 155.355 0.780054 -0.50052 -0.375494
63.8378 115.552 154.464 0.780054 -0.50052 -0.375494
64.2937 115.773 155.117 0.780054 -0.50052 -0.375494
60.67 115.64 154.461 -0.958821 -0.21489 -0.185699
60.4844 115.877 155.145 -0.958821 -0.21489 -0.185699
60.4534 116.647 154.414 -0.958821 -0.21489 -0.185699
60.4844 115.877 155.145 -0.998303 -0.0558501 -0.0164858
60.4382 116.671 155.254 -0.998303 -0.0558501 -0.0164858
60.4534 116.647 154.414 -0.998303 -0.0558501 -0.0164858
63.8378 115.552 154.464 0.812756 -0.38477 -0.43747
64.2841 116.505 154.456 0.812756 -0.38477 -0.43747
64.2937 115.773 155.117 0.812756 -0.38477 -0.43747
64.2937 115.773 155.117 0.999318 0.0311219 0.0198559
64.2841 116.505 154.456 0.999318 0.0311219 0.0198559
64.265 116.639 155.207 0.999318 0.0311219 0.0198559
60.4534 116.647 154.414 -0.998456 0.0519762 -0.0195742
60.4382 116.671 155.254 -0.998456 0.0519762 -0.0195742
60.4939 117.47 154.537 -0.998456 0.0519762 -0.0195742
60.4382 116.671 155.254 -0.998031 0.062193 -0.00814507
60.4864 117.465 155.407 -0.998031 0.062193 -0.00814507
60.4939 117.47 154.537 -0.998031 0.062193 -0.00814507
62.7723 117.246 154.23 0.194025 0.770493 -0.607203
61.6935 117.532 154.249 0.194025 0.770493 -0.607203
62.67 117.619 154.671 0.194025 0.770493 -0.607203
62.7723 117.246 154.23 -0.277731 0.700411 -0.657487
62.67 117.619 154.671 -0.277731 0.700411 -0.657487
63.3271 117.628 154.403 -0.277731 0.700411 -0.657487
64.2841 116.505 154.456 0.917209 0.395564 -0.0475029
63.9268 117.329 154.418 0.917209 0.395564 -0.0475029
64.265 116.639 155.207 0.917209 0.395564 -0.0475029
64.265 116.639 155.207 0.893543 0.448882 0.00924866
63.9268 117.329 154.418 0.893543 0.448882 0.00924866
63.8544 117.456 155.23 0.893543 0.448882 0.00924866
60.4939 117.47 154.537 -0.76942 0.638737 -0.00281398
60.4864 117.465 155.407 -0.76942 0.638737 -0.00281398
60.8107 117.855 155.214 -0.76942 0.638737 -0.00281398
60.7997 117.732 154.354 -0.680011 0.727039 -0.0948641
60.4939 117.47 154.537 -0.680011 0.727039 -0.0948641
60.8107 117.855 155.214 -0.680011 0.727039 -0.0948641
61.4373 118.412 155.048 -0.65814 0.752004 0.036616
60.8107 117.855 155.214 -0.65814 0.752004 0.036616
61.4631 118.422 155.299 -0.65814 0.752004 0.036616
61.4373 118.412 155.048 -0.659067 0.61099 -0.438545
61.3803 117.99 154.546 -0.659067 0.61099 -0.438545
60.8107 117.855 155.214 -0.659067 0.61099 -0.438545
61.3803 117.99 154.546 -0.367006 0.921567 -0.126575
60.7997 117.732 154.354 -0.367006 0.921567 -0.126575
60.8107 117.855 155.214 -0.367006 0.921567 -0.126575
61.3803 117.99 154.546 0.3168 0.708094 -0.631063
61.4373 118.412 155.048 0.3168 0.708094 -0.631063
61.7248 118.318 155.087 0.3168 0.708094 -0.631063
61.6935 117.532 154.249 0.370789 0.670485 -0.642624
61.3803 117.99 154.546 0.370789 0.670485 -0.642624
61.7248 118.318 155.087 0.370789 0.670485 -0.642624
61.6935 117.532 154.249 0.386471 0.665509 -0.638544
61.7248 118.318 155.087 0.386471 0.665509 -0.638544
62.7265 117.821 155.176 0.386471 0.665509 -0.638544
61.6935 117.532 154.249 0.082249 0.921529 -0.3795
62.7265 117.821 155.176 0.082249 0.921529 -0.3795
62.67 117.619 154.671 0.082249 0.921529 -0.3795
63.3271 117.628 154.403 -0.156679 0.922364 -0.353123
62.67 117.619 154.671 -0.156679 0.922364 -0.353123
62.7265 117.821 155.176 -0.156679 0.922364 -0.353123
63.3271 117.628 154.403 -0.065799 0.954583 -0.290589
62.7265 117.821 155.176 -0.065799 0.954583 -0.290589
63.6401 117.687 154.526 -0.065799 0.954583 -0.290589
63.6401 117.687 154.526 0.137491 0.990428 -0.0121965
62.7265 117.821 155.176 0.137491 0.990428 -0.0121965
63.5879 117.703 155.234 0.137491 0.990428 -0.0121965
63.8544 117.456 155.23 0.775837 0.63023 -0.0297909
63.9268 117.329 154.418 0.775837 0.63023 -0.0297909
63.6401 117.687 154.526 0.775837 0.63023 -0.0297909
63.5879 117.703 155.234 0.678908 0.733457 0.033537
63.8544 117.456 155.23 0.678908 0.733457 0.033537
63.6401 117.687 154.526 0.678908 0.733457 0.033537
61.7248 118.318 155.087 0.316635 0.945846 -0.071535
61.4373 118.412 155.048 0.316635 0.945846 -0.071535
61.4631 118.422 155.299 0.316635 0.945846 -0.071535
61.7961 114.555 155.391 -0.427648 -0.891995 0.146498
61.8947 114.634 156.161 -0.427648 -0.891995 0.146498
61.4182 114.829 155.96 -0.427648 -0.891995 0.146498
61.2846 114.839 155.128 -0.512414 -0.855658 0.0726683
61.7961 114.555 155.391 -0.512414 -0.855658 0.0726683
61.4182 114.829 155.96 -0.512414 -0.855658 0.0726683
62.5133 114.535 155.108 -0.00874509 -0.998871 0.046693
62.7576 114.574 155.984 -0.00874509 -0.998871 0.046693
61.7961 114.555 155.391 -0.00874509 -0.998871 0.046693
61.7961 114.555 155.391 -0.046735 -0.993039 0.108121
62.7576 114.574 155.984 -0.046735 -0.993039 0.108121
61.8947 114.634 156.161 -0.046735 -0.993039 0.108121
63.6046 114.654 155.9 0.12226 -0.931867 0.341579
63.423 114.756 156.243 0.12226 -0.931867 0.341579
62.7576 114.574 155.984 0.12226 -0.931867 0.341579
63.6046 114.654 155.9 0.100011 -0.993377 0.0565653
62.7576 114.574 155.984 0.100011 -0.993377 0.0565653
63.447 114.606 155.336 0.100011 -0.993377 0.0565653
63.447 114.606 155.336 0.0701526 -0.997232 0.0246167
62.7576 114.574 155.984 0.0701526 -0.997232 0.0246167
62.5133 114.535 155.108 0.0701526 -0.997232 0.0246167
63.447 114.606 155.336 0.60203 -0.792096 -0.100716
63.8587 114.917 155.355 0.60203 -0.792096 -0.100716
63.6046 114.654 155.9 0.60203 -0.792096 -0.100716
60.4844 115.877 155.145 -0.884671 -0.38863 0.257536
60.7524 115.394 155.336 -0.884671 -0.38863 0.257536
60.8269 115.819 156.234 -0.884671 -0.38863 0.257536
61.4182 114.829 155.96 -0.698193 -0.708292 0.104158
60.7524 115.394 155.336 -0.698193 -0.708292 0.104158
61.2846 114.839 155.128 -0.698193 -0.708292 0.104158
60.8269 115.819 156.234 -0.769891 -0.549623 0.324318
60.7524 115.394 155.336 -0.769891 -0.549623 0.324318
61.4182 114.829 155.96 -0.769891 -0.549623 0.324318
63.6046 114.654 155.9 0.600704 -0.621369 0.503045
63.7471 114.947 156.092 0.600704 -0.621369 0.503045
63.423 114.756 156.243 0.600704 -0.621369 0.503045
63.7471 114.947 156.092 0.847131 -0.510061 0.149019
63.6046 114.654 155.9 0.847131 -0.510061 0.149019
63.8587 114.917 155.355 0.847131 -0.510061 0.149019
63.7471 114.947 156.092 0.97139 -0.180388 0.15447
63.8587 114.917 155.355 0.97139 -0.180388 0.15447
63.9107 115.754 156.004 0.97139 -0.180388 0.15447
63.9107 115.754 156.004 0.866552 -0.33862 0.36664
63.8587 114.917 155.355 0.866552 -0.33862 0.36664
64.2937 115.773 155.117 0.866552 -0.33862 0.36664
60.4844 115.877 155.145 -0.951009 -0.0957189 0.293971
60.8269 115.819 156.234 -0.951009 -0.0957189 0.293971
60.4382 116.671 155.254 -0.951009 -0.0957189 0.293971
60.8269 115.819 156.234 -0.95063 -0.280129 0.13353
60.5181 116.78 156.05 -0.95063 -0.280129 0.13353
60.4382 116.671 155.254 -0.95063 -0.280129 0.13353
64.2937 115.773 155.117 0.918135 -0.0105039 0.396129
64.265 116.639 155.207 0.918135 -0.0105039 0.396129
63.9107 115.754 156.004 0.918135 -0.0105039 0.396129
63.9107 115.754 156.004 0.900304 0.0308793 0.434165
64.265 116.639 155.207 0.900304 0.0308793 0.434165
63.8685 116.747 156.021 0.900304 0.0308793 0.434165
60.5462 117.395 156.12 -0.98375 0.150989 0.0971557
60.563 117.654 155.89 -0.98375 0.150989 0.0971557
60.4864 117.465 155.407 -0.98375 0.150989 0.0971557
60.5462 117.395 156.12 -0.995589 0.0354939 0.0868455
60.4864 117.465 155.407 -0.995589 0.0354939 0.0868455
60.5181 116.78 156.05 -0.995589 0.0354939 0.0868455
60.5181 116.78 156.05 -0.994675 0.0422499 0.0940048
60.4864 117.465 155.407 -0.994675 0.0422499 0.0940048
60.4382 116.671 155.254 -0.994675 0.0422499 0.0940048
60.5462 117.395 156.12 -0.49826 0.595531 0.630142
60.8039 117.6 156.131 -0.49826 0.595531 0.630142
60.563 117.654 155.89 -0.49826 0.595531 0.630142
64.265 116.639 155.207 0.839514 0.412186 0.354005
63.8544 117.456 155.23 0.839514 0.412186 0.354005
63.8685 116.747 156.021 0.839514 0.412186 0.354005
63.8685 116.747 156.021 0.805138 0.448959 0.387542
63.8544 117.456 155.23 0.805138 0.448959 0.387542
63.4229 117.442 156.142 0.805138 0.448959 0.387542
60.4864 117.465 155.407 -0.790277 0.602737 -0.110324
60.563 117.654 155.89 -0.790277 0.602737 -0.110324
60.8107 117.855 155.214 -0.790277 0.602737 -0.110324
60.8107 117.855 155.214 -0.54617 0.531913 0.647121
61.634 117.896 155.875 -0.54617 0.531913 0.647121
61.4631 118.422 155.299 -0.54617 0.531913 0.647121
60.8107 117.855 155.214 -0.253371 0.932487 0.257432
60.8039 117.6 156.131 -0.253371 0.932487 0.257432
61.634 117.896 155.875 -0.253371 0.932487 0.257432
60.8107 117.855 155.214 -0.0524094 0.962216 0.267195
60.563 117.654 155.89 -0.0524094 0.962216 0.267195
60.8039 117.6 156.131 -0.0524094 0.962216 0.267195
61.634 117.896 155.875 0.35772 0.805333 0.472732
62.7265 117.821 155.176 0.35772 0.805333 0.472732
61.7248 118.318 155.087 0.35772 0.805333 0.472732
61.634 117.896 155.875 0.151608 0.979573 0.132107
62.5238 117.717 156.181 0.151608 0.979573 0.132107
62.7265 117.821 155.176 0.151608 0.979573 0.132107
63.5879 117.703 155.234 0.111144 0.949673 0.292862
62.7265 117.821 155.176 0.111144 0.949673 0.292862
63.4229 117.442 156.142 0.111144 0.949673 0.292862
62.7265 117.821 155.176 0.295404 0.942343 0.157246
62.5238 117.717 156.181 0.295404 0.942343 0.157246
63.4229 117.442 156.142 0.295404 0.942343 0.157246
63.4229 117.442 156.142 0.647026 0.693603 0.316658
63.8544 117.456 155.23 0.647026 0.693603 0.316658
63.5879 117.703 155.234 0.647026 0.693603 0.316658
61.7248 118.318 155.087 0.609697 0.667276 0.4278
61.4631 118.422 155.299 0.609697 0.667276 0.4278
61.634 117.896 155.875 0.609697 0.667276 0.4278
61.8947 114.634 156.161 -0.50395 -0.678532 0.534443
61.7537 114.972 156.458 -0.50395 -0.678532 0.534443
61.4182 114.829 155.96 -0.50395 -0.678532 0.534443
61.8947 114.634 156.161 0.023234 -0.907384 0.41966
62.7576 114.574 155.984 0.023234 -0.907384 0.41966
62.6844 114.828 156.537 0.023234 -0.907384 0.41966
61.7537 114.972 156.458 -0.166567 -0.688313 0.706032
61.8947 114.634 156.161 -0.166567 -0.688313 0.706032
62.6844 114.828 156.537 -0.166567 -0.688313 0.706032
62.7576 114.574 155.984 0.0815883 -0.901626 0.424751
63.423 114.756 156.243 0.0815883 -0.901626 0.424751
62.6844 114.828 156.537 0.0815883 -0.901626 0.424751
60.8269 115.819 156.234 -0.623982 -0.531249 0.57308
61.4182 114.829 155.96 -0.623982 -0.531249 0.57308
61.7537 114.972 156.458 -0.623982 -0.531249 0.57308
60.8269 115.819 156.234 -0.501873 -0.338736 0.795853
61.7537 114.972 156.458 -0.501873 -0.338736 0.795853
61.7773 115.803 156.826 -0.501873 -0.338736 0.795853
62.6844 114.828 156.537 -0.133266 -0.354129 0.925653
62.6835 115.649 156.85 -0.133266 -0.354129 0.925653
61.7537 114.972 156.458 -0.133266 -0.354129 0.925653
62.6835 115.649 156.85 -0.0926646 -0.401511 0.911155
61.7773 115.803 156.826 -0.0926646 -0.401511 0.911155
61.7537 114.972 156.458 -0.0926646 -0.401511 0.911155
63.423 114.756 156.243 0.532928 -0.267914 0.802627
63.7471 114.947 156.092 0.532928 -0.267914 0.802627
63.5257 115.457 156.409 0.532928 -0.267914 0.802627
63.423 114.756 156.243 0.334158 -0.263021 0.905074
63.5257 115.457 156.409 0.334158 -0.263021 0.905074
62.6844 114.828 156.537 0.334158 -0.263021 0.905074
62.6844 114.828 156.537 0.378343 -0.330266 0.864743
63.5257 115.457 156.409 0.378343 -0.330266 0.864743
62.6835 115.649 156.85 0.378343 -0.330266 0.864743
63.7471 114.947 156.092 0.75098 -0.0816405 0.655258
63.9107 115.754 156.004 0.75098 -0.0816405 0.655258
63.5257 115.457 156.409 0.75098 -0.0816405 0.655258
60.8269 115.819 156.234 -0.837032 -0.169758 0.520154
60.7809 116.86 156.499 -0.837032 -0.169758 0.520154
60.5181 116.78 156.05 -0.837032 -0.169758 0.520154
61.7773 115.803 156.826 -0.527539 -0.0986853 0.84378
61.6403 116.669 156.842 -0.527539 -0.0986853 0.84378
60.8269 115.819 156.234 -0.527539 -0.0986853 0.84378
61.6403 116.669 156.842 -0.405108 -0.242873 0.881419
60.7809 116.86 156.499 -0.405108 -0.242873 0.881419
60.8269 115.819 156.234 -0.405108 -0.242873 0.881419
62.6835 115.649 156.85 -0.0417709 -0.0884085 0.995208
62.6591 116.626 156.936 -0.0417709 -0.0884085 0.995208
61.7773 115.803 156.826 -0.0417709 -0.0884085 0.995208
62.6591 116.626 156.936 -0.0937156 -0.0327798 0.995059
61.6403 116.669 156.842 -0.0937156 -0.0327798 0.995059
61.7773 115.803 156.826 -0.0937156 -0.0327798 0.995059
63.5257 115.457 156.409 0.417761 -0.204382 0.88527
63.5409 116.431 156.627 0.417761 -0.204382 0.88527
62.6835 115.649 156.85 0.417761 -0.204382 0.88527
63.5409 116.431 156.627 0.315681 -0.0751622 0.945884
62.6591 116.626 156.936 0.315681 -0.0751622 0.945884
62.6835 115.649 156.85 0.315681 -0.0751622 0.945884
63.9107 115.754 156.004 0.872646 0.0288013 0.487503
63.8685 116.747 156.021 0.872646 0.0288013 0.487503
63.5409 116.431 156.627 0.872646 0.0288013 0.487503
63.5257 115.457 156.409 0.768799 -0.150881 0.621436
63.9107 115.754 156.004 0.768799 -0.150881 0.621436
63.5409 116.431 156.627 0.768799 -0.150881 0.621436
60.5181 116.78 156.05 -0.861501 -0.0184394 0.507422
60.7809 116.86 156.499 -0.861501 -0.0184394 0.507422
60.5462 117.395 156.12 -0.861501 -0.0184394 0.507422
60.8039 117.6 156.131 -0.369617 0.42331 0.827159
60.5462 117.395 156.12 -0.369617 0.42331 0.827159
60.7809 116.86 156.499 -0.369617 0.42331 0.827159
60.8039 117.6 156.131 -0.252057 0.437566 0.863136
60.7809 116.86 156.499 -0.252057 0.437566 0.863136
61.6224 117.497 156.422 -0.252057 0.437566 0.863136
61.6224 117.497 156.422 -0.248577 0.433353 0.866265
60.7809 116.86 156.499 -0.248577 0.433353 0.866265
61.6403 116.669 156.842 -0.248577 0.433353 0.866265
62.6591 116.626 156.936 -0.0830628 0.187309 0.978783
62.518 117.409 156.774 -0.0830628 0.187309 0.978783
61.6403 116.669 156.842 -0.0830628 0.187309 0.978783
62.518 117.409 156.774 -0.29456 0.426697 0.855081
61.6224 117.497 156.422 -0.29456 0.426697 0.855081
61.6403 116.669 156.842 -0.29456 0.426697 0.855081
63.5409 116.431 156.627 0.382658 0.434991 0.81508
63.4229 117.442 156.142 0.382658 0.434991 0.81508
62.6591 116.626 156.936 0.382658 0.434991 0.81508
63.4229 117.442 156.142 0.546113 0.262789 0.795426
62.518 117.409 156.774 0.546113 0.262789 0.795426
62.6591 116.626 156.936 0.546113 0.262789 0.795426
63.5409 116.431 156.627 0.726067 0.364077 0.583331
63.8685 116.747 156.021 0.726067 0.364077 0.583331
63.4229 117.442 156.142 0.726067 0.364077 0.583331
60.8039 117.6 156.131 -0.10693 0.804513 0.58423
61.6224 117.497 156.422 -0.10693 0.804513 0.58423
61.634 117.896 155.875 -0.10693 0.804513 0.58423
62.5238 117.717 156.181 -0.0395472 0.807833 0.588083
61.634 117.896 155.875 -0.0395472 0.807833 0.588083
61.6224 117.497 156.422 -0.0395472 0.807833 0.588083
62.518 117.409 156.774 -0.0930832 0.884204 0.457731
62.5238 117.717 156.181 -0.0930832 0.884204 0.457731
61.6224 117.497 156.422 -0.0930832 0.884204 0.457731
63.4229 117.442 156.142 0.279626 0.851159 0.444227
62.5238 117.717 156.181 0.279626 0.851159 0.444227
62.518 117.409 156.774 0.279626 0.851159 0.444227
3 0 1 2
3 3 4 5
3 6 7 8
3 9 10 11
3 12 13 14
3 15 16 17
3 18 19 20
3 21 22 23
3 24 25 26
3 27 28 29
3 30 31 32
3 33 34 35
3 36 37 38
3 39 40 41
3 42 43 44
3 45 46 47
3 48 49 50
3 51 52 53
3 54 55 56
3 57 58 59
3 60 61 62
3 63 64 65
3 66 67 68
3 69 70 71
3 72 73 74
3 75 76 77
3 78 79 80
3 81 82 83
3 84 85 86
3 87 88 89
3 90 91 92
3 93 94 95
3 96 97 98
3 99 100 101
3 102 103 104
3 105 106 107
3 108 109 110
3 111 112 113
3 114 115 116
3 117 118 119
3 120 121 122
3 123 124 125
3 126 127 128
3 129 130 131
3 132 133 134
3 135 136 137
3 138 139 140
3 141 142 143
3 144 145 146
3 147 148 149
3 150 151 152
3 153 154 155
3 156 157 158
3 159 160 161
3 162 163 164
3 165 166 167
3 168 169 170
3 171 172 173
3 174 175 176
3 177 178 179
3 180 181 182
3 183 184 185
3 186 187 188
3 189 190 191
3 192 193 194
3 195 196 197
3 198 199 200
3 201 202 203
3 204 205 206
3 207 208 209
3 210 211 212
3 213 214 215
3 216 217 218
3 219 220 221
3 222 223 224
3 225 226 227
3 228 229 230
3 231 232 233
3 234 235 236
3 237 238 239
3 240 241 242
3 243 244 245
3 246 247 248
3 249 250 251
3 252 253 254
3 255 256 257
3 258 259 260
3 261 262 263
3 264 265 266
3 267 268 269
3 270 271 272
3 273 274 275
3 276 277 278
3 279 280 281
3 282 283 284
3 285 286 287
3 288 289 290
3 291 292 293
3 294 295 296
3 297 298 299
3 300 301 302
3 303 304 305
3 306 307 308
3 309 310 311
3 312 313 314
3 315 316 317
3 318 319 320
3 321 322 323
3 324 325 326
3 327 328 329
3 330 331 332
3 333 334 335
3 336 337 338
3 339 340 341
3 342 343 344
3 345 346 347
3 348 349 350
3 351 352 353
3 354 355 356
3 357 358 359
3 360 361 362
3 363 364 365
3 366 367 368
3 369 370 371
3 372 373 374
3 375 376 377
3 378 379 380
3 381 382 383
3 384 385 386
3 387 388 389
3 390 391 392
3 393 394 395
3 396 397 398
3 399 400 401
3 402 403 404
3 405 406 407
3 408 409 410
3 411 412 413
3 414 415 416
3 417 418 419
3 420 421 422
3 423 424 425
