ply
format ascii 1.0
element vertex 288
property float x
property float y
property float z
property float nx
property float ny
property float nz
element face 96
property list uint uint vertex_indices
end_header
56.2715 103.091 159.932 -0.742302 -0.19687 -0.640493
56.1124 102.334 160.349 -0.742302 -0.19687 -0.640493
55.9023 102.524 160.534 -0.742302 -0.19687 -0.640493
56.1124 102.334 160.349 0.701802 -0.451303 -0.55118
56.2715 103.091 159.932 0.701802 -0.451303 -0.55118
56.26 102.411 160.474 0.701802 -0.451303 -0.55118
55.9023 102.524 160.534 -0.540421 -0.545475 -0.640627
55.2777 103.032 160.628 -0.540421 -0.545475 -0.640627
55.3797 103.272 160.338 -0.540421 -0.545475 -0.640627
55.9023 102.524 160.534 -0.440972 -0.502817 -0.74345
55.3797 103.272 160.338 -0.440972 -0.502817 -0.74345
56.2715 103.091 159.932 -0.440972 -0.502817 -0.74345
57.0294 102.895 160.623 0.479208 -0.552093 -0.682314
56.26 102.411 160.474 0.479208 -0.552093 -0.682314
56.2715 103.091 159.932 0.479208 -0.552093 -0.682314
57.0294 102.895 160.623 0.411321 -0.652572 -0.636368
56.2715 103.091 159.932 0.411321 -0.652572 -0.636368
57.1293 103.346 160.225 0.411321 -0.652572 -0.636368
57.0294 102.895 160.623 0.483748 -0.636838 -0.600354
57.1293 103.346 160.225 0.483748 -0.636838 -0.600354
57.5172 103.24 160.649 0.483748 -0.636838 -0.600354
56.2715 103.091 159.932 -0.43408 -0.139599 -0.889993
55.3797 103.272 160.338 -0.43408 -0.139599 -0.889993
56.1357 104.127 159.835 -0.43408 -0.139599 -0.889993
56.1357 104.127 159.835 -0.620479 0.0904547 -0.778989
55.3797 103.272 160.338 -0.620479 0.0904547 -0.778989
55.3903 104.158 160.433 -0.620479 0.0904547 -0.778989
57.1293 103.346 160.225 0.396734 -0.368897 -0.840545
56.2715 103.091 159.932 0.396734 -0.368897 -0.840545
57.0886 104.123 159.864 0.396734 -0.368897 -0.840545
57.0886 104.123 159.864 0.0296947 -0.0886249 -0.995622
56.2715 103.091 159.932 0.0296947 -0.0886249 -0.995622
56.1357 104.127 159.835 0.0296947 -0.0886249 -0.995622
57.6045 103.964 160.537 0.70067 -0.191294 -0.687363
57.5172 103.24 160.649 0.70067 -0.191294 -0.687363
57.1293 103.346 160.225 0.70067 -0.191294 -0.687363
57.0886 104.123 159.864 0.738418 -0.251439 -0.625714
57.6045 103.964 160.537 0.738418 -0.251439 -0.625714
57.1293 103.346 160.225 0.738418 -0.251439 -0.625714
55.3903 104.158 160.433 -0.691065 0.706596 -0.152153
56.1581 104.969 160.712 -0.691065 0.706596 -0.152153
56.1177 104.827 160.237 -0.691065 0.706596 -0.152153
55.3903 104.158 160.433 -0.562829 0.400131 -0.72327
56.1177 104.827 160.237 -0.562829 0.400131 -0.72327
56.1357 104.127 159.835 -0.562829 0.400131 -0.72327
57.0886 104.123 159.864 0.0301623 0.234378 -0.971677
56.1357 104.127 159.835 0.0301623 0.234378 -0.971677
56.9506 104.926 160.053 0.0301623 0.234378 -0.971677
56.9506 104.926 160.053 -0.24267 0.477741 -0.844319
56.1357 104.127 159.835 -0.24267 0.477741 -0.844319
56.1177 104.827 160.237 -0.24267 0.477741 -0.844319
57.9735 104.884 160.611 0.740154 -0.246107 -0.625783
57.6045 103.964 160.537 0.740154 -0.246107 -0.625783
57.0886 104.123 159.864 0.740154 -0.246107 -0.625783
57.9735 104.884 160.611 0.468662 0.278297 -0.838395
57.0886 104.123 159.864 0.468662 0.278297 -0.838395
56.9506 104.926 160.053 0.468662 0.278297 -0.838395
56.9506 104.926 160.053 -0.171575 0.94792 -0.268344
56.1177 104.827 160.237 -0.171575 0.94792 -0.268344
56.1581 104.969 160.712 -0.171575 0.94792 -0.268344
57.283 105.184 160.66 -0.192667 0.936506 -0.292977
56.9506 104.926 160.053 -0.192667 0.936506 -0.292977
56.1581 104.969 160.712 -0.192667 0.936506 -0.292977
57.9735 104.884 160.611 0.311844 0.800566 -0.511711
56.9506 104.926 160.053 0.311844 0.800566 -0.511711
57.283 105.184 160.66 0.311844 0.800566 -0.511711
56.1124 102.334 160.349 -0.740653 -0.649077 -0.173588
56.1155 102.267 160.587 -0.740653 -0.649077 -0.173588
55.9023 102.524 160.534 -0.740653 -0.649077 -0.173588
56.1124 102.334 160.349 0.593323 -0.772759 -0.225414
56.26 102.411 160.474 0.593323 -0.772759 -0.225414
56.1155 102.267 160.587 0.593323 -0.772759 -0.225414
55.2777 103.032 160.628 -0.930897 -0.042329 -0.36282
55.1775 103.448 160.836 -0.930897 -0.042329 -0.36282
55.3797 103.272 160.338 -0.930897 -0.042329 -0.36282
55.2777 103.032 160.628 -0.801936 -0.411018 0.433547
55.5589 103.126 161.237 -0.801936 -0.411018 0.433547
55.1775 103.448 160.836 -0.801936 -0.411018 0.433547
55.9023 102.524 160.534 -0.552115 -0.74728 0.369786
55.5589 103.126 161.237 -0.552115 -0.74728 0.369786
55.2777 103.032 160.628 -0.552115 -0.74728 0.369786
55.9023 102.524 160.534 -0.488482 -0.766371 0.417205
56.3048 102.662 161.258 -0.488482 -0.766371 0.417205
55.5589 103.126 161.237 -0.488482 -0.766371 0.417205
55.9023 102.524 160.534 -0.717987 -0.491866 0.492506
56.1155 102.267 160.587 -0.717987 -0.491866 0.492506
56.3048 102.662 161.258 -0.717987 -0.491866 0.492506
56.26 102.411 160.474 0.757118 -0.633446 0.159745
56.3048 102.662 161.258 0.757118 -0.633446 0.159745
56.1155 102.267 160.587 0.757118 -0.633446 0.159745
56.26 102.411 160.474 0.482333 -0.841852 0.242157
57.0294 102.895 160.623 0.482333 -0.841852 0.242157
56.3048 102.662 161.258 0.482333 -0.841852 0.242157
57.0294 102.895 160.623 0.0840823 -0.962941 -0.256271
57.1714 102.692 161.429 0.0840823 -0.962941 -0.256271
56.3048 102.662 161.258 0.0840823 -0.962941 -0.256271
57.5172 103.24 160.649 0.591924 -0.670305 -0.447569
58.0954 103.391 161.188 0.591924 -0.670305 -0.447569
57.906 103.061 161.431 0.591924 -0.670305 -0.447569
57.5172 103.24 160.649 0.536591 -0.7246 -0.432464
57.906 103.061 161.431 0.536591 -0.7246 -0.432464
57.0294 102.895 160.623 0.536591 -0.7246 -0.432464
57.0294 102.895 160.623 0.43 -0.854949 -0.290107
57.906 103.061 161.431 0.43 -0.854949 -0.290107
57.1714 102.692 161.429 0.43 -0.854949 -0.290107
57.906 103.061 161.431 0.689903 -0.642488 -0.333531
58.0954 103.391 161.188 0.689903 -0.642488 -0.333531
58.3548 103.409 161.69 0.689903 -0.642488 -0.333531
55.1775 103.448 160.836 -0.962297 0.165538 -0.215829
55.2929 104.172 160.877 -0.962297 0.165538 -0.215829
55.3903 104.158 160.433 -0.962297 0.165538 -0.215829
55.3797 103.272 160.338 -0.918685 0.0526691 -0.391465
55.1775 103.448 160.836 -0.918685 0.0526691 -0.391465
55.3903 104.158 160.433 -0.918685 0.0526691 -0.391465
55.5265 104.091 161.386 -0.76621 -0.123629 0.630586
55.1775 103.448 160.836 -0.76621 -0.123629 0.630586
55.5589 103.126 161.237 -0.76621 -0.123629 0.630586
55.2929 104.172 160.877 -0.895235 0.118397 0.429578
55.1775 103.448 160.836 -0.895235 0.118397 0.429578
55.5265 104.091 161.386 -0.895235 0.118397 0.429578
58.0954 103.391 161.188 0.734747 -0.127556 -0.66624
57.6045 103.964 160.537 0.734747 -0.127556 -0.66624
58.3761 104.156 161.351 0.734747 -0.127556 -0.66624
57.5172 103.24 160.649 0.695275 -0.191483 -0.692768
57.6045 103.964 160.537 0.695275 -0.191483 -0.692768
58.0954 103.391 161.188 0.695275 -0.191483 -0.692768
58.3761 104.156 161.351 0.86893 -0.224736 -0.44097
58.3548 103.409 161.69 0.86893 -0.224736 -0.44097
58.0954 103.391 161.188 0.86893 -0.224736 -0.44097
55.2929 104.172 160.877 -0.685274 0.707793 -0.171547
56.1581 104.969 160.712 -0.685274 0.707793 -0.171547
55.3903 104.158 160.433 -0.685274 0.707793 -0.171547
55.2929 104.172 160.877 -0.585862 0.714617 0.382214
55.5265 104.091 161.386 -0.585862 0.714617 0.382214
56.1581 104.969 160.712 -0.585862 0.714617 0.382214
55.5265 104.091 161.386 -0.840084 0.534955 -0.0899026
56.0454 104.925 161.504 -0.840084 0.534955 -0.0899026
56.1581 104.969 160.712 -0.840084 0.534955 -0.0899026
57.6045 103.964 160.537 0.732113 -0.241996 -0.636748
57.9735 104.884 160.611 0.732113 -0.241996 -0.636748
58.3761 104.156 161.351 0.732113 -0.241996 -0.636748
58.3761 104.156 161.351 0.776569 -0.183006 -0.602868
57.9735 104.884 160.611 0.776569 -0.183006 -0.602868
58.7116 104.919 161.552 0.776569 -0.183006 -0.602868
56.1581 104.969 160.712 -0.602857 0.796766 -0.0415744
56.0454 104.925 161.504 -0.602857 0.796766 -0.0415744
56.3831 105.181 161.517 -0.602857 0.796766 -0.0415744
57.283 105.184 160.66 -0.191406 0.975968 -0.10416
56.1581 104.969 160.712 -0.191406 0.975968 -0.10416
57.1879 105.251 161.463 -0.191406 0.975968 -0.10416
56.1581 104.969 160.712 -0.0993893 0.968671 -0.227591
56.3831 105.181 161.517 -0.0993893 0.968671 -0.227591
57.1879 105.251 161.463 -0.0993893 0.968671 -0.227591
57.9735 104.884 160.611 0.34559 0.857315 -0.381547
57.283 105.184 160.66 0.34559 0.857315 -0.381547
58.1239 105.201 161.46 0.34559 0.857315 -0.381547
57.283 105.184 160.66 0.0528897 0.995634 -0.0769114
57.1879 105.251 161.463 0.0528897 0.995634 -0.0769114
58.1239 105.201 161.46 0.0528897 0.995634 -0.0769114
58.1239 105.201 161.46 0.448252 0.808421 -0.381479
58.7116 104.919 161.552 0.448252 0.808421 -0.381479
57.9735 104.884 160.611 0.448252 0.808421 -0.381479
56.3048 102.662 161.258 -0.428707 -0.661111 0.615746
56.1333 103.41 161.942 -0.428707 -0.661111 0.615746
55.5589 103.126 161.237 -0.428707 -0.661111 0.615746
57.2749 103.306 162.227 -0.2351 -0.684585 0.689979
56.1333 103.41 161.942 -0.2351 -0.684585 0.689979
56.3048 102.662 161.258 -0.2351 -0.684585 0.689979
57.2749 103.306 162.227 -0.0939064 -0.783457 0.61431
56.3048 102.662 161.258 -0.0939064 -0.783457 0.61431
57.1714 102.692 161.429 -0.0939064 -0.783457 0.61431
58.1014 103.221 162.079 -0.0538865 -0.965612 0.254342
57.2749 103.306 162.227 -0.0538865 -0.965612 0.254342
57.906 103.061 161.431 -0.0538865 -0.965612 0.254342
57.906 103.061 161.431 0.378217 -0.757046 0.53276
57.2749 103.306 162.227 0.378217 -0.757046 0.53276
57.1714 102.692 161.429 0.378217 -0.757046 0.53276
57.906 103.061 161.431 0.607951 -0.793881 0.0122017
58.3548 103.409 161.69 0.607951 -0.793881 0.0122017
58.1014 103.221 162.079 0.607951 -0.793881 0.0122017
56.1333 103.41 161.942 -0.741482 -0.122963 0.659609
56.1505 104.341 162.135 -0.741482 -0.122963 0.659609
55.5265 104.091 161.386 -0.741482 -0.122963 0.659609
55.5589 103.126 161.237 -0.743332 -0.126929 0.65677
56.1333 103.41 161.942 -0.743332 -0.126929 0.65677
55.5265 104.091 161.386 -0.743332 -0.126929 0.65677
56.5351 104.075 162.408 -0.255252 -0.447182 0.857248
56.1333 103.41 161.942 -0.255252 -0.447182 0.857248
57.2749 103.306 162.227 -0.255252 -0.447182 0.857248
56.1505 104.341 162.135 -0.63827 -0.144861 0.75606
56.1333 103.41 161.942 -0.63827 -0.144861 0.75606
56.5351 104.075 162.408 -0.63827 -0.144861 0.75606
58.1014 103.221 162.079 0.0839998 -0.587822 0.804618
58.211 103.57 162.323 0.0839998 -0.587822 0.804618
57.2749 103.306 162.227 0.0839998 -0.587822 0.804618
58.211 103.57 162.323 0.824816 -0.473927 0.308336
58.1014 103.221 162.079 0.824816 -0.473927 0.308336
58.3548 103.409 161.69 0.824816 -0.473927 0.308336
58.211 103.57 162.323 0.820554 -0.48077 0.309114
58.3548 103.409 161.69 0.820554 -0.48077 0.309114
58.6529 104.264 162.229 0.820554 -0.48077 0.309114
58.6529 104.264 162.229 0.94767 -0.153881 -0.279718
58.3548 103.409 161.69 0.94767 -0.153881 -0.279718
58.3761 104.156 161.351 0.94767 -0.153881 -0.279718
56.1505 104.341 162.135 -0.804774 0.362731 0.469856
56.3433 105.043 161.923 -0.804774 0.362731 0.469856
56.0454 104.925 161.504 -0.804774 0.362731 0.469856
55.5265 104.091 161.386 -0.764385 0.404679 0.501947
56.1505 104.341 162.135 -0.764385 0.404679 0.501947
56.0454 104.925 161.504 -0.764385 0.404679 0.501947
56.8269 104.876 162.418 -0.491295 0.168971 0.854446
56.1505 104.341 162.135 -0.491295 0.168971 0.854446
56.5351 104.075 162.408 -0.491295 0.168971 0.854446
56.3433 105.043 161.923 -0.595158 0.377373 0.709491
56.1505 104.341 162.135 -0.595158 0.377373 0.709491
56.8269 104.876 162.418 -0.595158 0.377373 0.709491
58.3761 104.156 161.351 0.909521 -0.335527 -0.245343
58.7116 104.919 161.552 0.909521 -0.335527 -0.245343
58.6529 104.264 162.229 0.909521 -0.335527 -0.245343
58.6529 104.264 162.229 0.95573 0.165795 0.243089
58.7116 104.919 161.552 0.95573 0.165795 0.243089
58.5215 105.04 162.217 0.95573 0.165795 0.243089
56.0454 104.925 161.504 -0.596689 0.775612 0.205882
56.3433 105.043 161.923 -0.596689 0.775612 0.205882
56.3831 105.181 161.517 -0.596689 0.775612 0.205882
56.3433 105.043 161.923 -0.369723 0.708351 0.601285
56.8269 104.876 162.418 -0.369723 0.708351 0.601285
57.076 105.183 162.209 -0.369723 0.708351 0.601285
56.3433 105.043 161.923 -0.285524 0.915317 0.284025
57.076 105.183 162.209 -0.285524 0.915317 0.284025
56.3831 105.181 161.517 -0.285524 0.915317 0.284025
56.3831 105.181 161.517 -0.0809261 0.993596 0.078857
57.076 105.183 162.209 -0.0809261 0.993596 0.078857
57.1879 105.251 161.463 -0.0809261 0.993596 0.078857
58.1239 105.201 161.46 0.0533954 0.998125 0.0299273
57.1879 105.251 161.463 0.0533954 0.998125 0.0299273
57.9668 105.186 162.261 0.0533954 0.998125 0.0299273
57.1879 105.251 161.463 -0.00829062 0.99591 0.089971
57.076 105.183 162.209 -0.00829062 0.99591 0.089971
57.9668 105.186 162.261 -0.00829062 0.99591 0.089971
58.5215 105.04 162.217 0.437803 0.89826 -0.0381817
58.7116 104.919 161.552 0.437803 0.89826 -0.0381817
58.1239 105.201 161.46 0.437803 0.89826 -0.0381817
57.9668 105.186 162.261 0.259163 0.963323 0.0695898
58.5215 105.04 162.217 0.259163 0.963323 0.0695898
58.1239 105.201 161.46 0.259163 0.963323 0.0695898
57.2749 103.306 162.227 -0.160503 -0.369734 0.91517
57.3102 104.329 162.647 -0.160503 -0.369734 0.91517
56.5351 104.075 162.408 -0.160503 -0.369734 0.91517
57.2749 103.306 162.227 0.0305651 -0.433229 0.900765
58.211 103.57 162.323 0.0305651 -0.433229 0.900765
58.0826 104.097 162.58 0.0305651 -0.433229 0.900765
57.2749 103.306 162.227 -0.034008 -0.378172 0.92511
58.0826 104.097 162.58 -0.034008 -0.378172 0.92511
57.3102 104.329 162.647 -0.034008 -0.378172 0.92511
58.211 103.57 162.323 0.559767 -0.250073 0.790016
58.6529 104.264 162.229 0.559767 -0.250073 0.790016
58.0826 104.097 162.58 0.559767 -0.250073 0.790016
57.3102 104.329 162.647 -0.259287 0.169245 0.950856
57.3949 105.037 162.544 -0.259287 0.169245 0.950856
56.8269 104.876 162.418 -0.259287 0.169245 0.950856
56.5351 104.075 162.408 -0.324344 0.107058 0.939861
57.3102 104.329 162.647 -0.324344 0.107058 0.939861
56.8269 104.876 162.418 -0.324344 0.107058 0.939861
58.0826 104.097 162.58 0.0953659 0.0317417 0.994936
58.137 104.872 162.55 0.0953659 0.0317417 0.994936
57.3102 104.329 162.647 0.0953659 0.0317417 0.994936
58.137 104.872 162.55 0.0230125 0.141121 0.989725
57.3949 105.037 162.544 0.0230125 0.141121 0.989725
57.3102 104.329 162.647 0.0230125 0.141121 0.989725
58.6529 104.264 162.229 0.621136 0.117811 0.774797
58.5215 105.04 162.217 0.621136 0.117811 0.774797
58.137 104.872 162.55 0.621136 0.117811 0.774797
58.0826 104.097 162.58 0.525169 -0.00395793 0.850988
58.6529 104.264 162.229 0.525169 -0.00395793 0.850988
58.137 104.872 162.55 0.525169 -0.00395793 0.850988
56.8269 104.876 162.418 -0.338605 0.701045 0.627601
57.3949 105.037 162.544 -0.338605 0.701045 0.627601
57.076 105.183 162.209 -0.338605 0.701045 0.627601
57.9668 105.186 162.261 -0.0273926 0.906564 0.421179
57.076 105.183 162.209 -0.0273926 0.906564 0.421179
57.3949 105.037 162.544 -0.0273926 0.906564 0.421179
58.137 104.872 162.55 0.15299 0.713296 0.683961
57.9668 105.186 162.261 0.15299 0.713296 0.683961
57.3949 105.037 162.544 0.15299 0.713296 0.683961
58.5215 105.04 162.217 0.242489 0.725267 0.64435
57.9668 105.186 162.261 0.242489 0.725267 0.64435
58.137 104.872 162.55 0.242489 0.725267 0.64435
3 0 1 2
3 3 4 5
3 6 7 8
3 9 10 11
3 12 13 14
3 15 16 17
3 18 19 20
3 21 22 23
3 24 25 26
3 27 28 29
3 30 31 32
3 33 34 35
3 36 37 38
3 39 40 41
3 42 43 44
3 45 46 47
3 48 49 50
3 51 52 53
3 54 55 56
3 57 58 59
3 60 61 62
3 63 64 65
3 66 67 68
3 69 70 71
3 72 73 74
3 75 76 77
3 78 79 80
3 81 82 83
3 84 85 86
3 87 88 89
3 90 91 92
3 93 94 95
3 96 97 98
3 99 100 101
3 102 103 104
3 105 106 107
3 108 109 110
3 111 112 113
3 114 115 116
3 117 118 119
3 120 121 122
3 123 124 125
3 126 127 128
3 129 130 131
3 132 133 134
3 135 136 137
3 138 139 140
3 141 142 143
3 144 145 146
3 147 148 149
3 150 151 152
3 153 154 155
3 156 157 158
3 159 160 161
3 162 163 164
3 165 166 167
3 168 169 170
3 171 172 173
3 174 175 176
3 177 178 179
3 180 181 182
3 183 184 185
3 186 187 188
3 189 190 191
3 192 193 194
3 195 196 197
3 198 199 200
3 201 202 203
3 204 205 206
3 207 208 209
3 210 211 212
3 213 214 215
3 216 217 218
3 219 220 221
3 222 223 224
3 225 226 227
3 228 229 230
3 231 232 233
3 234 235 236
3 237 238 239
3 240 241 242
3 243 244 245
3 246 247 248
3 249 250 251
3 252 253 254
3 255 256 257
3 258 259 260
3 261 262 263
3 264 265 266
3 267 268 269
3 270 271 272
3 273 274 275
3 276 277 278
3 279 280 281
3 282 283 284
3 285 286 287
