ply
format ascii 1.0
element vertex 198
property float x
property float y
property float z
property float nx
property float ny
property float nz
element face 66
property list uint uint vertex_indices
end_header
59.4029 149.988 155.426 -0.329976 -0.819493 -0.468558
59.5309 149.814 155.639 -0.329976 -0.819493 -0.468558
58.703 149.938 156.005 -0.329976 -0.819493 -0.468558
59.5309 149.814 155.639 0.0854747 -0.747327 -0.658935
59.4029 149.988 155.426 0.0854747 -0.747327 -0.658935
59.932 150.014 155.465 0.0854747 -0.747327 -0.658935
59.4029 149.988 155.426 -0.44949 0.754762 -0.4778
58.703 149.938 156.005 -0.44949 0.754762 -0.4778
59.4869 150.139 155.585 -0.44949 0.754762 -0.4778
59.932 150.014 155.465 0.0159059 0.721713 -0.69201
59.4029 149.988 155.426 0.0159059 0.721713 -0.69201
59.4869 150.139 155.585 0.0159059 0.721713 -0.69201
58.61 149.132 156.229 -0.666501 -0.69317 -0.274394
58.6184 149.001 156.541 -0.666501 -0.69317 -0.274394
58.3439 149.312 156.423 -0.666501 -0.69317 -0.274394
58.61 149.132 156.229 0.00125802 -0.758547 -0.651617
59.2542 149.238 156.107 0.00125802 -0.758547 -0.651617
59.2341 149.008 156.375 0.00125802 -0.758547 -0.651617
58.6184 149.001 156.541 -0.0931599 -0.918276 -0.384826
58.61 149.132 156.229 -0.0931599 -0.918276 -0.384826
59.2341 149.008 156.375 -0.0931599 -0.918276 -0.384826
59.2341 149.008 156.375 0.349244 -0.723553 -0.595399
59.2542 149.238 156.107 0.349244 -0.723553 -0.595399
59.8529 149.325 156.352 0.349244 -0.723553 -0.595399
58.703 149.938 156.005 -0.64148 -0.135294 -0.755115
58.61 149.132 156.229 -0.64148 -0.135294 -0.755115
58.3439 149.312 156.423 -0.64148 -0.135294 -0.755115
58.2806 150.103 156.36 -0.664538 -0.111299 -0.73892
58.703 149.938 156.005 -0.664538 -0.111299 -0.73892
58.3439 149.312 156.423 -0.664538 -0.111299 -0.73892
59.5309 149.814 155.639 -0.417275 -0.443426 -0.793256
59.2542 149.238 156.107 -0.417275 -0.443426 -0.793256
58.703 149.938 156.005 -0.417275 -0.443426 -0.793256
59.2542 149.238 156.107 -0.140586 -0.249365 -0.958151
58.61 149.132 156.229 -0.140586 -0.249365 -0.958151
58.703 149.938 156.005 -0.140586 -0.249365 -0.958151
59.5309 149.814 155.639 0.472833 -0.877235 0.0829868
59.932 150.014 155.465 0.472833 -0.877235 0.0829868
60.1494 150.199 156.177 0.472833 -0.877235 0.0829868
59.5309 149.814 155.639 0.729647 -0.36394 -0.578932
60.1494 150.199 156.177 0.729647 -0.36394 -0.578932
59.8529 149.325 156.352 0.729647 -0.36394 -0.578932
59.5309 149.814 155.639 0.359129 -0.686107 -0.632679
59.8529 149.325 156.352 0.359129 -0.686107 -0.632679
59.2542 149.238 156.107 0.359129 -0.686107 -0.632679
58.4808 150.739 156.214 -0.637717 0.024058 -0.769895
58.703 149.938 156.005 -0.637717 0.024058 -0.769895
58.2806 150.103 156.36 -0.637717 0.024058 -0.769895
58.3146 150.742 156.508 -0.858921 0.158683 -0.486902
58.4808 150.739 156.214 -0.858921 0.158683 -0.486902
58.2806 150.103 156.36 -0.858921 0.158683 -0.486902
58.703 149.938 156.005 -0.506737 0.482791 -0.714234
59.3299 150.76 156.116 -0.506737 0.482791 -0.714234
59.4869 150.139 155.585 -0.506737 0.482791 -0.714234
58.703 149.938 156.005 -0.118008 0.220154 -0.968301
58.4808 150.739 156.214 -0.118008 0.220154 -0.968301
59.3299 150.76 156.116 -0.118008 0.220154 -0.968301
59.4869 150.139 155.585 0.182457 0.93682 -0.29846
60.1494 150.199 156.177 0.182457 0.93682 -0.29846
59.932 150.014 155.465 0.182457 0.93682 -0.29846
59.4869 150.139 155.585 0.481121 0.636956 -0.602336
59.3299 150.76 156.116 0.481121 0.636956 -0.602336
60.1494 150.199 156.177 0.481121 0.636956 -0.602336
59.3299 150.76 156.116 0.0961004 0.0314469 -0.994875
60.1682 150.894 156.201 0.0961004 0.0314469 -0.994875
60.1494 150.199 156.177 0.0961004 0.0314469 -0.994875
60.1682 150.894 156.201 0.540414 0.0142327 -0.841279
60.3929 150.854 156.345 0.540414 0.0142327 -0.841279
60.1494 150.199 156.177 0.540414 0.0142327 -0.841279
58.4808 150.739 156.214 -0.592206 0.729541 -0.342144
58.3146 150.742 156.508 -0.592206 0.729541 -0.342144
58.6759 151.01 156.455 -0.592206 0.729541 -0.342144
59.3299 150.76 156.116 -0.0993883 0.699194 -0.70799
58.4808 150.739 156.214 -0.0993883 0.699194 -0.70799
58.6759 151.01 156.455 -0.0993883 0.699194 -0.70799
59.5137 151.052 156.37 -0.106771 0.690267 -0.715634
59.3299 150.76 156.116 -0.106771 0.690267 -0.715634
58.6759 151.01 156.455 -0.106771 0.690267 -0.715634
60.1682 150.894 156.201 -0.0318102 0.667626 -0.743817
59.3299 150.76 156.116 -0.0318102 0.667626 -0.743817
59.5137 151.052 156.37 -0.0318102 0.667626 -0.743817
60.2067 151.001 156.507 0.135741 0.930652 -0.339795
60.1682 150.894 156.201 0.135741 0.930652 -0.339795
59.5137 151.052 156.37 0.135741 0.930652 -0.339795
60.3929 150.854 156.345 0.374795 0.860312 -0.345531
60.1682 150.894 156.201 0.374795 0.860312 -0.345531
60.2067 151.001 156.507 0.374795 0.860312 -0.345531
58.6184 149.001 156.541 -0.737657 -0.672862 -0.0558443
58.4307 149.171 156.965 -0.737657 -0.672862 -0.0558443
58.3439 149.312 156.423 -0.737657 -0.672862 -0.0558443
58.9103 149.069 157.137 -0.286684 -0.925888 0.246057
58.4307 149.171 156.965 -0.286684 -0.925888 0.246057
58.6184 149.001 156.541 -0.286684 -0.925888 0.246057
58.9103 149.069 157.137 0.255418 -0.96672 -0.0146536
58.6184 149.001 156.541 0.255418 -0.96672 -0.0146536
59.3541 149.187 157.072 0.255418 -0.96672 -0.0146536
59.3541 149.187 157.072 0.0748536 -0.968841 0.236101
58.6184 149.001 156.541 0.0748536 -0.968841 0.236101
59.2341 149.008 156.375 0.0748536 -0.968841 0.236101
59.3541 149.187 157.072 0.4555 -0.877976 0.147237
59.2341 149.008 156.375 0.4555 -0.877976 0.147237
59.8529 149.325 156.352 0.4555 -0.877976 0.147237
58.4307 149.171 156.965 -0.886125 -0.150607 0.438293
58.5394 149.398 157.262 -0.886125 -0.150607 0.438293
58.3339 149.951 157.037 -0.886125 -0.150607 0.438293
58.4307 149.171 156.965 -0.983384 -0.133547 0.122969
58.3339 149.951 157.037 -0.983384 -0.133547 0.122969
58.3439 149.312 156.423 -0.983384 -0.133547 0.122969
58.3439 149.312 156.423 -0.995308 -0.0746988 0.0615021
58.3339 149.951 157.037 -0.995308 -0.0746988 0.0615021
58.2806 150.103 156.36 -0.995308 -0.0746988 0.0615021
58.9103 149.069 157.137 -0.374549 -0.666862 0.644211
58.5394 149.398 157.262 -0.374549 -0.666862 0.644211
58.4307 149.171 156.965 -0.374549 -0.666862 0.644211
60.1494 150.199 156.177 0.937955 -0.276452 0.20932
59.9073 150.087 157.115 0.937955 -0.276452 0.20932
59.8529 149.325 156.352 0.937955 -0.276452 0.20932
59.9073 150.087 157.115 0.75887 -0.486959 0.432419
59.3541 149.187 157.072 0.75887 -0.486959 0.432419
59.8529 149.325 156.352 0.75887 -0.486959 0.432419
58.2806 150.103 156.36 -0.995755 0.0331334 0.085868
58.3339 149.951 157.037 -0.995755 0.0331334 0.085868
58.3146 150.742 156.508 -0.995755 0.0331334 0.085868
58.3339 149.951 157.037 -0.916877 0.205955 0.341936
58.5738 150.779 157.181 -0.916877 0.205955 0.341936
58.3146 150.742 156.508 -0.916877 0.205955 0.341936
60.3347 150.772 156.766 0.872688 -0.457342 0.171039
59.9073 150.087 157.115 0.872688 -0.457342 0.171039
60.1494 150.199 156.177 0.872688 -0.457342 0.171039
60.0717 150.866 157.129 0.775997 -0.174904 0.606001
59.9073 150.087 157.115 0.775997 -0.174904 0.606001
60.3347 150.772 156.766 0.775997 -0.174904 0.606001
60.1494 150.199 156.177 0.93091 -0.360551 0.058393
60.3929 150.854 156.345 0.93091 -0.360551 0.058393
60.3347 150.772 156.766 0.93091 -0.360551 0.058393
58.3146 150.742 156.508 -0.569845 0.802917 0.17493
58.5738 150.779 157.181 -0.569845 0.802917 0.17493
58.6759 151.01 156.455 -0.569845 0.802917 0.17493
59.5137 151.052 156.37 -0.0444439 0.997729 0.0506108
58.6759 151.01 156.455 -0.0444439 0.997729 0.0506108
59.3961 151.013 157.025 -0.0444439 0.997729 0.0506108
60.0717 150.866 157.129 0.653078 0.698337 0.292942
60.3347 150.772 156.766 0.653078 0.698337 0.292942
60.2067 151.001 156.507 0.653078 0.698337 0.292942
60.0717 150.866 157.129 0.170722 0.954667 0.243856
60.2067 151.001 156.507 0.170722 0.954667 0.243856
59.3961 151.013 157.025 0.170722 0.954667 0.243856
59.3961 151.013 157.025 0.0597876 0.995808 0.0692241
60.2067 151.001 156.507 0.0597876 0.995808 0.0692241
59.5137 151.052 156.37 0.0597876 0.995808 0.0692241
60.3929 150.854 156.345 0.716416 0.659557 0.227449
60.2067 151.001 156.507 0.716416 0.659557 0.227449
60.3347 150.772 156.766 0.716416 0.659557 0.227449
59.3541 149.187 157.072 0.289588 -0.792456 0.536798
59.1086 149.29 157.357 0.289588 -0.792456 0.536798
58.9103 149.069 157.137 0.289588 -0.792456 0.536798
58.5394 149.398 157.262 -0.808805 -0.0621109 0.584788
58.6536 150.012 157.485 -0.808805 -0.0621109 0.584788
58.3339 149.951 157.037 -0.808805 -0.0621109 0.584788
58.5394 149.398 157.262 -0.238782 -0.568202 0.787483
58.9103 149.069 157.137 -0.238782 -0.568202 0.787483
59.1086 149.29 157.357 -0.238782 -0.568202 0.787483
58.5394 149.398 157.262 -0.211715 -0.298783 0.93054
59.1086 149.29 157.357 -0.211715 -0.298783 0.93054
58.6536 150.012 157.485 -0.211715 -0.298783 0.93054
58.6536 150.012 157.485 -0.249854 -0.319863 0.913926
59.1086 149.29 157.357 -0.249854 -0.319863 0.913926
59.3282 149.893 157.628 -0.249854 -0.319863 0.913926
59.3541 149.187 157.072 0.673223 -0.442011 0.592788
59.9073 150.087 157.115 0.673223 -0.442011 0.592788
59.3282 149.893 157.628 0.673223 -0.442011 0.592788
59.1086 149.29 157.357 0.557476 -0.500824 0.662115
59.3541 149.187 157.072 0.557476 -0.500824 0.662115
59.3282 149.893 157.628 0.557476 -0.500824 0.662115
58.3339 149.951 157.037 -0.815462 0.138252 0.562057
58.6536 150.012 157.485 -0.815462 0.138252 0.562057
58.5738 150.779 157.181 -0.815462 0.138252 0.562057
59.3282 149.893 157.628 -0.179179 0.150189 0.972285
59.3471 150.684 157.509 -0.179179 0.150189 0.972285
58.6536 150.012 157.485 -0.179179 0.150189 0.972285
59.3471 150.684 157.509 -0.337445 0.316725 0.886463
58.5738 150.779 157.181 -0.337445 0.316725 0.886463
58.6536 150.012 157.485 -0.337445 0.316725 0.886463
59.9073 150.087 157.115 0.484213 -0.117995 0.866957
60.0717 150.866 157.129 0.484213 -0.117995 0.866957
59.3471 150.684 157.509 0.484213 -0.117995 0.866957
59.3282 149.893 157.628 0.640829 0.0990044 0.761273
59.9073 150.087 157.115 0.640829 0.0990044 0.761273
59.3471 150.684 157.509 0.640829 0.0990044 0.761273
59.3961 151.013 157.025 -0.216094 0.938909 0.267867
58.6759 151.01 156.455 -0.216094 0.938909 0.267867
58.5738 150.779 157.181 -0.216094 0.938909 0.267867
59.3471 150.684 157.509 -0.13073 0.826003 0.548297
59.3961 151.013 157.025 -0.13073 0.826003 0.548297
58.5738 150.779 157.181 -0.13073 0.826003 0.548297
60.0717 150.866 157.129 0.0911544 0.819241 0.566158
59.3961 151.013 157.025 0.0911544 0.819241 0.566158
59.3471 150.684 157.509 0.0911544 0.819241 0.566158
3 0 1 2
3 3 4 5
3 6 7 8
3 9 10 11
3 12 13 14
3 15 16 17
3 18 19 20
3 21 22 23
3 24 25 26
3 27 28 29
3 30 31 32
3 33 34 35
3 36 37 38
3 39 40 41
3 42 43 44
3 45 46 47
3 48 49 50
3 51 52 53
3 54 55 56
3 57 58 59
3 60 61 62
3 63 64 65
3 66 67 68
3 69 70 71
3 72 73 74
3 75 76 77
3 78 79 80
3 81 82 83
3 84 85 86
3 87 88 89
3 90 91 92
3 93 94 95
3 96 97 98
3 99 100 101
3 102 103 104
3 105 106 107
3 108 109 110
3 111 112 113
3 114 115 116
3 117 118 119
3 120 121 122
3 123 124 125
3 126 127 128
3 129 130 131
3 132 133 134
3 135 136 137
3 138 139 140
3 141 142 143
3 144 145 146
3 147 148 149
3 150 151 152
3 153 154 155
3 156 157 158
3 159 160 161
3 162 163 164
3 165 166 167
3 168 169 170
3 171 172 173
3 174 175 176
3 177 178 179
3 180 181 182
3 183 184 185
3 186 187 188
3 189 190 191
3 192 193 194
3 195 196 197
