ply
format ascii 1.0
element vertex 300
property float x
property float y
property float z
property float nx
property float ny
property float nz
element face 100
property list uint uint vertex_indices
end_header
44.3416 167.703 158.002 -0.450199 -0.566843 -0.689934
44.0953 167.199 158.576 -0.450199 -0.566843 -0.689934
43.5649 167.898 158.348 -0.450199 -0.566843 -0.689934
44.705 166.945 158.438 -0.405319 -0.594226 -0.694703
44.0953 167.199 158.576 -0.405319 -0.594226 -0.694703
44.3416 167.703 158.002 -0.405319 -0.594226 -0.694703
44.705 166.945 158.438 0.092914 -0.462764 -0.881599
44.3416 167.703 158.002 0.092914 -0.462764 -0.881599
45.248 166.976 158.479 0.092914 -0.462764 -0.881599
45.248 166.976 158.479 -0.0547387 -0.594697 -0.802084
44.3416 167.703 158.002 -0.0547387 -0.594697 -0.802084
45.2731 167.862 157.82 -0.0547387 -0.594697 -0.802084
46.218 167.106 158.531 0.126163 -0.634604 -0.76247
45.6972 166.811 158.69 0.126163 -0.634604 -0.76247
45.248 166.976 158.479 0.126163 -0.634604 -0.76247
46.218 167.106 158.531 0.120718 -0.575641 -0.808743
45.248 166.976 158.479 0.120718 -0.575641 -0.808743
46.1543 167.761 158.055 0.120718 -0.575641 -0.808743
46.1543 167.761 158.055 0.143457 -0.593028 -0.792299
45.248 166.976 158.479 0.143457 -0.593028 -0.792299
45.2731 167.862 157.82 0.143457 -0.593028 -0.792299
46.218 167.106 158.531 0.41135 -0.509109 -0.756042
46.1543 167.761 158.055 0.41135 -0.509109 -0.756042
46.855 167.708 158.472 0.41135 -0.509109 -0.756042
44.1148 168.72 157.87 -0.441861 -0.211113 -0.871889
44.3416 167.703 158.002 -0.441861 -0.211113 -0.871889
43.5649 167.898 158.348 -0.441861 -0.211113 -0.871889
43.5637 168.712 158.465 -0.730597 0.0960195 -0.676024
44.1148 168.72 157.87 -0.730597 0.0960195 -0.676024
43.5649 167.898 158.348 -0.730597 0.0960195 -0.676024
45.2731 167.862 157.82 -0.159566 -0.17631 -0.971315
44.3416 167.703 158.002 -0.159566 -0.17631 -0.971315
45.1199 168.725 157.688 -0.159566 -0.17631 -0.971315
45.1199 168.725 157.688 -0.175031 -0.164367 -0.970746
44.3416 167.703 158.002 -0.175031 -0.164367 -0.970746
44.1148 168.72 157.87 -0.175031 -0.164367 -0.970746
46.1543 167.761 158.055 0.23466 -0.180447 -0.955183
45.2731 167.862 157.82 0.23466 -0.180447 -0.955183
46.1466 168.705 157.875 0.23466 -0.180447 -0.955183
46.1466 168.705 157.875 0.175577 -0.117767 -0.977396
45.2731 167.862 157.82 0.175577 -0.117767 -0.977396
45.1199 168.725 157.688 0.175577 -0.117767 -0.977396
46.9799 168.533 158.315 0.484056 -0.233237 -0.84338
46.855 167.708 158.472 0.484056 -0.233237 -0.84338
46.1543 167.761 158.055 0.484056 -0.233237 -0.84338
46.1466 168.705 157.875 0.433984 -0.165531 -0.885583
46.9799 168.533 158.315 0.433984 -0.165531 -0.885583
46.1543 167.761 158.055 0.433984 -0.165531 -0.885583
44.0789 169.46 158.231 -0.705174 0.282691 -0.650243
44.1148 168.72 157.87 -0.705174 0.282691 -0.650243
43.5637 168.712 158.465 -0.705174 0.282691 -0.650243
43.9536 169.38 158.578 -0.835309 0.518553 -0.182653
44.0789 169.46 158.231 -0.835309 0.518553 -0.182653
43.5637 168.712 158.465 -0.835309 0.518553 -0.182653
45.1199 168.725 157.688 -0.174008 0.253756 -0.951488
44.1148 168.72 157.87 -0.174008 0.253756 -0.951488
44.911 169.533 157.942 -0.174008 0.253756 -0.951488
44.911 169.533 157.942 -0.332232 0.400109 -0.854128
44.1148 168.72 157.87 -0.332232 0.400109 -0.854128
44.0789 169.46 158.231 -0.332232 0.400109 -0.854128
46.1466 168.705 157.875 0.174623 0.343808 -0.922661
45.1199 168.725 157.688 0.174623 0.343808 -0.922661
46.1254 169.589 158.2 0.174623 0.343808 -0.922661
46.1254 169.589 158.2 0.181123 0.336989 -0.923923
45.1199 168.725 157.688 0.181123 0.336989 -0.923923
44.911 169.533 157.942 0.181123 0.336989 -0.923923
46.8853 169.36 158.309 0.47447 0.0473401 -0.878998
46.9799 168.533 158.315 0.47447 0.0473401 -0.878998
46.1466 168.705 157.875 0.47447 0.0473401 -0.878998
46.1254 169.589 158.2 0.233146 0.340831 -0.910756
46.8853 169.36 158.309 0.233146 0.340831 -0.910756
46.1466 168.705 157.875 0.233146 0.340831 -0.910756
44.0789 169.46 158.231 -0.543765 0.83923 -0.00357023
43.9536 169.38 158.578 -0.543765 0.83923 -0.00357023
44.3781 169.655 158.549 -0.543765 0.83923 -0.00357023
44.911 169.533 157.942 -0.206084 0.908397 -0.363792
44.0789 169.46 158.231 -0.206084 0.908397 -0.363792
44.3781 169.655 158.549 -0.206084 0.908397 -0.363792
45.2295 169.801 158.482 -0.185074 0.919219 -0.347541
44.911 169.533 157.942 -0.185074 0.919219 -0.347541
44.3781 169.655 158.549 -0.185074 0.919219 -0.347541
46.1254 169.589 158.2 0.0598575 0.879539 -0.472047
44.911 169.533 157.942 0.0598575 0.879539 -0.472047
45.2295 169.801 158.482 0.0598575 0.879539 -0.472047
45.248 166.976 158.479 0.301769 -0.94517 0.124859
45.0991 167.064 159.51 0.301769 -0.94517 0.124859
44.6827 166.869 159.034 0.301769 -0.94517 0.124859
44.705 166.945 158.438 0.0653157 -0.990085 -0.124361
45.248 166.976 158.479 0.0653157 -0.990085 -0.124361
44.6827 166.869 159.034 0.0653157 -0.990085 -0.124361
45.6972 166.811 158.69 0.0554134 -0.983502 0.172204
46.4059 166.941 159.205 0.0554134 -0.983502 0.172204
46.0223 166.952 159.387 0.0554134 -0.983502 0.172204
45.6972 166.811 158.69 -0.470525 -0.796507 0.379715
46.0223 166.952 159.387 -0.470525 -0.796507 0.379715
45.248 166.976 158.479 -0.470525 -0.796507 0.379715
45.248 166.976 158.479 -0.112021 -0.991303 0.0690654
46.0223 166.952 159.387 -0.112021 -0.991303 0.0690654
45.0991 167.064 159.51 -0.112021 -0.991303 0.0690654
44.0953 167.199 158.576 -0.799459 -0.569789 0.190276
44.2198 167.254 159.263 -0.799459 -0.569789 0.190276
43.7654 167.829 159.076 -0.799459 -0.569789 0.190276
43.5649 167.898 158.348 -0.810931 -0.559851 0.170168
44.0953 167.199 158.576 -0.810931 -0.559851 0.170168
43.7654 167.829 159.076 -0.810931 -0.559851 0.170168
44.6827 166.869 159.034 -0.406366 -0.904271 -0.130996
44.0953 167.199 158.576 -0.406366 -0.904271 -0.130996
44.705 166.945 158.438 -0.406366 -0.904271 -0.130996
44.2198 167.254 159.263 -0.579801 -0.79714 0.168519
44.0953 167.199 158.576 -0.579801 -0.79714 0.168519
44.6827 166.869 159.034 -0.579801 -0.79714 0.168519
45.6972 166.811 158.69 0.390892 -0.862982 -0.320102
46.218 167.106 158.531 0.390892 -0.862982 -0.320102
46.4059 166.941 159.205 0.390892 -0.862982 -0.320102
46.855 167.708 158.472 0.686236 -0.526937 -0.501415
47.3381 168.0 158.827 0.686236 -0.526937 -0.501415
47.0775 167.347 159.156 0.686236 -0.526937 -0.501415
46.218 167.106 158.531 0.559896 -0.643561 -0.521868
46.855 167.708 158.472 0.559896 -0.643561 -0.521868
47.0775 167.347 159.156 0.559896 -0.643561 -0.521868
46.218 167.106 158.531 0.47015 -0.81808 -0.331216
47.0775 167.347 159.156 0.47015 -0.81808 -0.331216
46.4059 166.941 159.205 0.47015 -0.81808 -0.331216
47.0775 167.347 159.156 0.764775 -0.506334 -0.398428
47.3381 168.0 158.827 0.764775 -0.506334 -0.398428
47.5815 167.907 159.412 0.764775 -0.506334 -0.398428
43.5649 167.898 158.348 -0.964282 -0.0390399 0.261985
43.7654 167.829 159.076 -0.964282 -0.0390399 0.261985
43.5637 168.712 158.465 -0.964282 -0.0390399 0.261985
43.7654 167.829 159.076 -0.896714 0.0941898 0.432472
43.9029 168.663 159.179 -0.896714 0.0941898 0.432472
43.5637 168.712 158.465 -0.896714 0.0941898 0.432472
47.3381 168.0 158.827 0.757256 -0.108458 -0.64405
46.9799 168.533 158.315 0.757256 -0.108458 -0.64405
47.3083 168.914 158.638 0.757256 -0.108458 -0.64405
46.855 167.708 158.472 0.663319 -0.235116 -0.710442
46.9799 168.533 158.315 0.663319 -0.235116 -0.710442
47.3381 168.0 158.827 0.663319 -0.235116 -0.710442
47.7281 168.735 159.314 0.891557 -0.205689 -0.403507
47.5815 167.907 159.412 0.891557 -0.205689 -0.403507
47.3381 168.0 158.827 0.891557 -0.205689 -0.403507
47.3083 168.914 158.638 0.836254 -0.0847308 -0.541756
47.7281 168.735 159.314 0.836254 -0.0847308 -0.541756
47.3381 168.0 158.827 0.836254 -0.0847308 -0.541756
44.1449 169.09 159.137 -0.436379 0.729 0.527382
44.3781 169.655 158.549 -0.436379 0.729 0.527382
43.9536 169.38 158.578 -0.436379 0.729 0.527382
44.1449 169.09 159.137 -0.735761 0.464662 0.492692
43.9536 169.38 158.578 -0.735761 0.464662 0.492692
43.9029 168.663 159.179 -0.735761 0.464662 0.492692
43.9029 168.663 159.179 -0.81451 0.405266 0.41513
43.9536 169.38 158.578 -0.81451 0.405266 0.41513
43.5637 168.712 158.465 -0.81451 0.405266 0.41513
44.1449 169.09 159.137 -0.587947 0.68704 0.42696
44.7487 169.541 159.244 -0.587947 0.68704 0.42696
44.3781 169.655 158.549 -0.587947 0.68704 0.42696
47.3083 168.914 158.638 0.766978 0.315383 -0.558819
46.8853 169.36 158.309 0.766978 0.315383 -0.558819
47.0915 169.599 158.727 0.766978 0.315383 -0.558819
46.9799 168.533 158.315 0.656585 0.0691788 -0.751073
46.8853 169.36 158.309 0.656585 0.0691788 -0.751073
47.3083 168.914 158.638 0.656585 0.0691788 -0.751073
47.3391 169.495 159.21 0.830489 0.367561 -0.418553
47.7281 168.735 159.314 0.830489 0.367561 -0.418553
47.3083 168.914 158.638 0.830489 0.367561 -0.418553
47.0915 169.599 158.727 0.868316 0.323614 -0.375901
47.3391 169.495 159.21 0.868316 0.323614 -0.375901
47.3083 168.914 158.638 0.868316 0.323614 -0.375901
44.3781 169.655 158.549 -0.420319 0.832251 0.361511
44.7487 169.541 159.244 -0.420319 0.832251 0.361511
45.0986 169.77 159.123 -0.420319 0.832251 0.361511
44.3781 169.655 158.549 -0.168141 0.985656 0.01449
45.0986 169.77 159.123 -0.168141 0.985656 0.01449
45.2295 169.801 158.482 -0.168141 0.985656 0.01449
46.1254 169.589 158.2 0.173992 0.968717 -0.17696
45.2295 169.801 158.482 0.173992 0.968717 -0.17696
45.9516 169.796 159.164 0.173992 0.968717 -0.17696
45.2295 169.801 158.482 -0.0329918 0.998542 0.0427178
45.0986 169.77 159.123 -0.0329918 0.998542 0.0427178
45.9516 169.796 159.164 -0.0329918 0.998542 0.0427178
47.0915 169.599 158.727 0.309978 0.751301 -0.582631
46.8853 169.36 158.309 0.309978 0.751301 -0.582631
46.1254 169.589 158.2 0.309978 0.751301 -0.582631
47.0915 169.599 158.727 0.104223 0.972281 -0.209304
46.1254 169.589 158.2 0.104223 0.972281 -0.209304
46.9093 169.725 159.22 0.104223 0.972281 -0.209304
46.9093 169.725 159.22 0.0846236 0.977167 -0.194895
46.1254 169.589 158.2 0.0846236 0.977167 -0.194895
45.9516 169.796 159.164 0.0846236 0.977167 -0.194895
47.3391 169.495 159.21 0.469114 0.881637 -0.0514644
47.0915 169.599 158.727 0.469114 0.881637 -0.0514644
46.9093 169.725 159.22 0.469114 0.881637 -0.0514644
44.2198 167.254 159.263 -0.633305 -0.263814 0.727549
44.3047 167.893 159.568 -0.633305 -0.263814 0.727549
43.7654 167.829 159.076 -0.633305 -0.263814 0.727549
44.2198 167.254 159.263 -0.324935 -0.739953 0.588971
44.6827 166.869 159.034 -0.324935 -0.739953 0.588971
45.0991 167.064 159.51 -0.324935 -0.739953 0.588971
44.2198 167.254 159.263 -0.324792 -0.372552 0.869319
45.0991 167.064 159.51 -0.324792 -0.372552 0.869319
44.3047 167.893 159.568 -0.324792 -0.372552 0.869319
44.3047 167.893 159.568 -0.345245 -0.391028 0.853172
45.0991 167.064 159.51 -0.345245 -0.391028 0.853172
45.2645 167.886 159.953 -0.345245 -0.391028 0.853172
46.0223 166.952 159.387 0.0279035 -0.621763 0.782708
46.1679 167.737 160.006 0.0279035 -0.621763 0.782708
45.0991 167.064 159.51 0.0279035 -0.621763 0.782708
46.1679 167.737 160.006 -0.125893 -0.451505 0.883343
45.2645 167.886 159.953 -0.125893 -0.451505 0.883343
45.0991 167.064 159.51 -0.125893 -0.451505 0.883343
46.4059 166.941 159.205 0.494005 -0.768425 0.406795
47.0775 167.347 159.156 0.494005 -0.768425 0.406795
46.9809 167.586 159.724 0.494005 -0.768425 0.406795
46.4059 166.941 159.205 0.272999 -0.739403 0.61543
46.9809 167.586 159.724 0.272999 -0.739403 0.61543
46.0223 166.952 159.387 0.272999 -0.739403 0.61543
46.0223 166.952 159.387 0.147833 -0.628791 0.763392
46.9809 167.586 159.724 0.147833 -0.628791 0.763392
46.1679 167.737 160.006 0.147833 -0.628791 0.763392
47.0775 167.347 159.156 0.584741 -0.707619 0.396678
47.5815 167.907 159.412 0.584741 -0.707619 0.396678
46.9809 167.586 159.724 0.584741 -0.707619 0.396678
44.3047 167.893 159.568 -0.574416 0.110296 0.811099
44.3478 168.858 159.468 -0.574416 0.110296 0.811099
43.9029 168.663 159.179 -0.574416 0.110296 0.811099
43.7654 167.829 159.076 -0.675651 0.0199606 0.736952
44.3047 167.893 159.568 -0.675651 0.0199606 0.736952
43.9029 168.663 159.179 -0.675651 0.0199606 0.736952
45.2645 167.886 159.953 -0.37134 0.0568132 0.926757
45.16 168.747 159.859 -0.37134 0.0568132 0.926757
44.3047 167.893 159.568 -0.37134 0.0568132 0.926757
45.16 168.747 159.859 -0.418471 0.112726 0.901207
44.3478 168.858 159.468 -0.418471 0.112726 0.901207
44.3047 167.893 159.568 -0.418471 0.112726 0.901207
46.1679 167.737 160.006 -0.0632459 -0.0304992 0.997532
46.1903 168.704 160.037 -0.0632459 -0.0304992 0.997532
45.2645 167.886 159.953 -0.0632459 -0.0304992 0.997532
46.1903 168.704 160.037 -0.166412 0.0877723 0.982142
45.16 168.747 159.859 -0.166412 0.0877723 0.982142
45.2645 167.886 159.953 -0.166412 0.0877723 0.982142
46.9809 167.586 159.724 0.284236 -0.213971 0.934573
47.147 168.507 159.885 0.284236 -0.213971 0.934573
46.1679 167.737 160.006 0.284236 -0.213971 0.934573
47.147 168.507 159.885 0.150233 -0.035131 0.988026
46.1903 168.704 160.037 0.150233 -0.035131 0.988026
46.1679 167.737 160.006 0.150233 -0.035131 0.988026
47.5815 167.907 159.412 0.708546 -0.0419648 0.704415
47.7281 168.735 159.314 0.708546 -0.0419648 0.704415
47.147 168.507 159.885 0.708546 -0.0419648 0.704415
46.9809 167.586 159.724 0.545475 -0.238279 0.803542
47.5815 167.907 159.412 0.545475 -0.238279 0.803542
47.147 168.507 159.885 0.545475 -0.238279 0.803542
43.9029 168.663 159.179 -0.616338 0.414403 0.669625
44.3478 168.858 159.468 -0.616338 0.414403 0.669625
44.1449 169.09 159.137 -0.616338 0.414403 0.669625
44.7487 169.541 159.244 -0.511067 0.523579 0.681671
44.1449 169.09 159.137 -0.511067 0.523579 0.681671
44.3478 168.858 159.468 -0.511067 0.523579 0.681671
44.7487 169.541 159.244 -0.39197 0.486178 0.781019
44.3478 168.858 159.468 -0.39197 0.486178 0.781019
45.1967 169.552 159.462 -0.39197 0.486178 0.781019
45.1967 169.552 159.462 -0.343781 0.427667 0.836012
44.3478 168.858 159.468 -0.343781 0.427667 0.836012
45.16 168.747 159.859 -0.343781 0.427667 0.836012
46.1903 168.704 160.037 -0.146465 0.343151 0.927791
46.155 169.532 159.725 -0.146465 0.343151 0.927791
45.16 168.747 159.859 -0.146465 0.343151 0.927791
46.155 169.532 159.725 -0.229749 0.438622 0.868808
45.1967 169.552 159.462 -0.229749 0.438622 0.868808
45.16 168.747 159.859 -0.229749 0.438622 0.868808
47.147 168.507 159.885 0.204371 0.261956 0.943192
47.1052 169.404 159.644 0.204371 0.261956 0.943192
46.1903 168.704 160.037 0.204371 0.261956 0.943192
47.1052 169.404 159.644 0.126614 0.3543 0.926521
46.155 169.532 159.725 0.126614 0.3543 0.926521
46.1903 168.704 160.037 0.126614 0.3543 0.926521
47.7281 168.735 159.314 0.74437 0.448388 0.494835
47.3391 169.495 159.21 0.74437 0.448388 0.494835
47.1052 169.404 159.644 0.74437 0.448388 0.494835
47.147 168.507 159.885 0.635741 0.227043 0.737756
47.7281 168.735 159.314 0.635741 0.227043 0.737756
47.1052 169.404 159.644 0.635741 0.227043 0.737756
44.7487 169.541 159.244 -0.299325 0.760469 0.576274
45.1967 169.552 159.462 -0.299325 0.760469 0.576274
45.0986 169.77 159.123 -0.299325 0.760469 0.576274
45.9516 169.796 159.164 -0.0518782 0.832822 0.551105
45.0986 169.77 159.123 -0.0518782 0.832822 0.551105
45.1967 169.552 159.462 -0.0518782 0.832822 0.551105
46.155 169.532 159.725 -0.106683 0.884321 0.454528
45.9516 169.796 159.164 -0.106683 0.884321 0.454528
45.1967 169.552 159.462 -0.106683 0.884321 0.454528
46.9093 169.725 159.22 0.0436207 0.910056 0.412184
45.9516 169.796 159.164 0.0436207 0.910056 0.412184
46.155 169.532 159.725 0.0436207 0.910056 0.412184
47.1052 169.404 159.644 0.157674 0.82104 0.548665
46.9093 169.725 159.22 0.157674 0.82104 0.548665
46.155 169.532 159.725 0.157674 0.82104 0.548665
47.3391 169.495 159.21 0.438347 0.802449 0.40488
46.9093 169.725 159.22 0.438347 0.802449 0.40488
47.1052 169.404 159.644 0.438347 0.802449 0.40488
3 0 1 2
3 3 4 5
3 6 7 8
3 9 10 11
3 12 13 14
3 15 16 17
3 18 19 20
3 21 22 23
3 24 25 26
3 27 28 29
3 30 31 32
3 33 34 35
3 36 37 38
3 39 40 41
3 42 43 44
3 45 46 47
3 48 49 50
3 51 52 53
3 54 55 56
3 57 58 59
3 60 61 62
3 63 64 65
3 66 67 68
3 69 70 71
3 72 73 74
3 75 76 77
3 78 79 80
3 81 82 83
3 84 85 86
3 87 88 89
3 90 91 92
3 93 94 95
3 96 97 98
3 99 100 101
3 102 103 104
3 105 106 107
3 108 109 110
3 111 112 113
3 114 115 116
3 117 118 119
3 120 121 122
3 123 124 125
3 126 127 128
3 129 130 131
3 132 133 134
3 135 136 137
3 138 139 140
3 141 142 143
3 144 145 146
3 147 148 149
3 150 151 152
3 153 154 155
3 156 157 158
3 159 160 161
3 162 163 164
3 165 166 167
3 168 169 170
3 171 172 173
3 174 175 176
3 177 178 179
3 180 181 182
3 183 184 185
3 186 187 188
3 189 190 191
3 192 193 194
3 195 196 197
3 198 199 200
3 201 202 203
3 204 205 206
3 207 208 209
3 210 211 212
3 213 214 215
3 216 217 218
3 219 220 221
3 222 223 224
3 225 226 227
3 228 229 230
3 231 232 233
3 234 235 236
3 237 238 239
3 240 241 242
3 243 244 245
3 246 247 248
3 249 250 251
3 252 253 254
3 255 256 257
3 258 259 260
3 261 262 263
3 264 265 266
3 267 268 269
3 270 271 272
3 273 274 275
3 276 277 278
3 279 280 281
3 282 283 284
3 285 286 287
3 288 289 290
3 291 292 293
3 294 295 296
3 297 298 299
