ply
format ascii 1.0
element vertex 336
property float x
property float y
property float z
property float nx
property float ny
property float nz
element face 112
property list uint uint vertex_indices
end_header
73.9912 148.202 176.099 -0.285941 -0.491581 -0.822548
73.8862 147.711 176.429 -0.285941 -0.491581 -0.822548
73.6819 148.029 176.31 -0.285941 -0.491581 -0.822548
73.8862 147.711 176.429 0.0979716 -0.569368 -0.816224
73.9912 148.202 176.099 0.0979716 -0.569368 -0.816224
74.3537 148.033 176.261 0.0979716 -0.569368 -0.816224
73.8029 148.829 176.109 -0.504211 -0.138666 -0.852375
73.9912 148.202 176.099 -0.504211 -0.138666 -0.852375
73.6819 148.029 176.31 -0.504211 -0.138666 -0.852375
73.3631 148.778 176.602 -0.742803 -0.055912 -0.667171
73.8029 148.829 176.109 -0.742803 -0.055912 -0.667171
73.6819 148.029 176.31 -0.742803 -0.055912 -0.667171
74.6101 148.518 176.22 0.301454 -0.236005 -0.923811
74.3537 148.033 176.261 0.301454 -0.236005 -0.923811
73.9912 148.202 176.099 0.301454 -0.236005 -0.923811
74.6101 148.518 176.22 0.261913 -0.14703 -0.953826
73.9912 148.202 176.099 0.261913 -0.14703 -0.953826
74.5041 149.06 176.108 0.261913 -0.14703 -0.953826
74.5041 149.06 176.108 -0.00548977 0.0133914 -0.999895
73.9912 148.202 176.099 -0.00548977 0.0133914 -0.999895
73.8029 148.829 176.109 -0.00548977 0.0133914 -0.999895
74.6101 148.518 176.22 0.569106 -0.0591217 -0.820136
74.5041 149.06 176.108 0.569106 -0.0591217 -0.820136
74.9186 148.967 176.402 0.569106 -0.0591217 -0.820136
73.6779 149.694 176.264 -0.747378 0.011503 -0.664299
73.8029 148.829 176.109 -0.747378 0.011503 -0.664299
73.3631 148.778 176.602 -0.747378 0.011503 -0.664299
74.4303 149.963 176.303 0.117811 0.218454 -0.96871
74.8517 149.546 176.26 0.117811 0.218454 -0.96871
74.5041 149.06 176.108 0.117811 0.218454 -0.96871
74.4303 149.963 176.303 -0.0247717 0.208725 -0.977661
74.5041 149.06 176.108 -0.0247717 0.208725 -0.977661
73.6779 149.694 176.264 -0.0247717 0.208725 -0.977661
73.6779 149.694 176.264 -0.0565784 0.168866 -0.984014
74.5041 149.06 176.108 -0.0565784 0.168866 -0.984014
73.8029 148.829 176.109 -0.0565784 0.168866 -0.984014
74.9186 148.967 176.402 0.552697 -0.13821 -0.821842
74.5041 149.06 176.108 0.552697 -0.13821 -0.821842
74.8517 149.546 176.26 0.552697 -0.13821 -0.821842
74.4303 149.963 176.303 -0.0933575 0.391786 -0.915308
73.6779 149.694 176.264 -0.0933575 0.391786 -0.915308
73.6913 150.026 176.405 -0.0933575 0.391786 -0.915308
73.8862 147.711 176.429 -0.493821 -0.529711 -0.6896
73.7407 147.114 176.992 -0.493821 -0.529711 -0.6896
73.6818 147.292 176.897 -0.493821 -0.529711 -0.6896
73.8862 147.711 176.429 -0.457271 -0.554199 -0.695533
73.6818 147.292 176.897 -0.457271 -0.554199 -0.695533
73.6819 148.029 176.31 -0.457271 -0.554199 -0.695533
73.6819 148.029 176.31 -0.936245 -0.218891 -0.274832
73.6818 147.292 176.897 -0.936245 -0.218891 -0.274832
73.521 147.83 177.016 -0.936245 -0.218891 -0.274832
73.8862 147.711 176.429 0.51313 -0.839094 -0.180607
74.3537 148.033 176.261 0.51313 -0.839094 -0.180607
74.6005 148.014 177.051 0.51313 -0.839094 -0.180607
73.8862 147.711 176.429 0.648975 -0.61702 -0.445105
74.6005 148.014 177.051 0.648975 -0.61702 -0.445105
73.9145 147.232 177.134 0.648975 -0.61702 -0.445105
73.8862 147.711 176.429 0.717725 -0.562316 -0.410696
73.9145 147.232 177.134 0.717725 -0.562316 -0.410696
73.7407 147.114 176.992 0.717725 -0.562316 -0.410696
73.3631 148.778 176.602 -0.916693 -0.278046 -0.286991
73.6819 148.029 176.31 -0.916693 -0.278046 -0.286991
73.521 147.83 177.016 -0.916693 -0.278046 -0.286991
74.3537 148.033 176.261 0.840726 -0.467052 -0.273939
74.6101 148.518 176.22 0.840726 -0.467052 -0.273939
74.6005 148.014 177.051 0.840726 -0.467052 -0.273939
74.6005 148.014 177.051 0.840908 -0.466812 -0.273791
74.6101 148.518 176.22 0.840908 -0.466812 -0.273791
74.9186 148.967 176.402 0.840908 -0.466812 -0.273791
74.6005 148.014 177.051 0.78661 -0.504554 -0.355908
74.9186 148.967 176.402 0.78661 -0.504554 -0.355908
75.2187 148.86 177.217 0.78661 -0.504554 -0.355908
72.8733 149.694 176.878 -0.714427 -0.178413 -0.676582
73.3631 148.778 176.602 -0.714427 -0.178413 -0.676582
72.686 149.067 177.241 -0.714427 -0.178413 -0.676582
72.6218 149.769 177.385 -0.895164 0.00944591 -0.445636
72.8733 149.694 176.878 -0.895164 0.00944591 -0.445636
72.686 149.067 177.241 -0.895164 0.00944591 -0.445636
73.3631 148.778 176.602 -0.604473 -0.084818 -0.792097
72.8733 149.694 176.878 -0.604473 -0.084818 -0.792097
73.6779 149.694 176.264 -0.604473 -0.084818 -0.792097
74.8517 149.546 176.26 0.25416 0.349462 -0.90182
74.4303 149.963 176.303 0.25416 0.349462 -0.90182
74.8742 150.13 176.493 0.25416 0.349462 -0.90182
74.8517 149.546 176.26 0.810021 0.189785 -0.554839
74.8742 150.13 176.493 0.810021 0.189785 -0.554839
75.3415 149.774 177.053 0.810021 0.189785 -0.554839
74.8517 149.546 176.26 0.854127 -0.0289943 -0.519255
75.3415 149.774 177.053 0.854127 -0.0289943 -0.519255
74.9186 148.967 176.402 0.854127 -0.0289943 -0.519255
74.9186 148.967 176.402 0.91346 -0.187778 -0.361014
75.3415 149.774 177.053 0.91346 -0.187778 -0.361014
75.2187 148.86 177.217 0.91346 -0.187778 -0.361014
72.8733 149.694 176.878 -0.785805 0.421793 -0.452329
72.6218 149.769 177.385 -0.785805 0.421793 -0.452329
72.9827 150.022 176.994 -0.785805 0.421793 -0.452329
73.6779 149.694 176.264 -0.54627 0.435032 -0.715777
72.8733 149.694 176.878 -0.54627 0.435032 -0.715777
72.9827 150.022 176.994 -0.54627 0.435032 -0.715777
73.6779 149.694 176.264 -0.604318 0.331486 -0.724512
72.9827 150.022 176.994 -0.604318 0.331486 -0.724512
73.6913 150.026 176.405 -0.604318 0.331486 -0.724512
73.6913 150.026 176.405 -0.272511 0.906936 -0.321256
72.9827 150.022 176.994 -0.272511 0.906936 -0.321256
73.6981 150.267 177.078 -0.272511 0.906936 -0.321256
74.4303 149.963 176.303 0.034197 0.941042 -0.336557
73.6913 150.026 176.405 0.034197 0.941042 -0.336557
73.6981 150.267 177.078 0.034197 0.941042 -0.336557
74.4303 149.963 176.303 -0.377056 0.684242 -0.624213
73.6981 150.267 177.078 -0.377056 0.684242 -0.624213
74.5218 150.753 177.114 -0.377056 0.684242 -0.624213
74.4303 149.963 176.303 0.0298502 0.714203 -0.699302
74.5218 150.753 177.114 0.0298502 0.714203 -0.699302
74.8742 150.13 176.493 0.0298502 0.714203 -0.699302
75.0539 150.691 177.228 0.817092 0.344716 -0.462095
75.3415 149.774 177.053 0.817092 0.344716 -0.462095
74.8742 150.13 176.493 0.817092 0.344716 -0.462095
74.5218 150.753 177.114 0.222376 0.748625 -0.624588
75.0539 150.691 177.228 0.222376 0.748625 -0.624588
74.8742 150.13 176.493 0.222376 0.748625 -0.624588
75.0539 150.691 177.228 0.225621 0.721795 -0.654299
74.5218 150.753 177.114 0.225621 0.721795 -0.654299
74.6897 151.016 177.462 0.225621 0.721795 -0.654299
73.7407 147.114 176.992 -0.902929 -0.392033 -0.176153
73.6289 147.202 177.37 -0.902929 -0.392033 -0.176153
73.6818 147.292 176.897 -0.902929 -0.392033 -0.176153
73.7407 147.114 176.992 0.347505 -0.885748 0.307718
73.9145 147.232 177.134 0.347505 -0.885748 0.307718
73.6289 147.202 177.37 0.347505 -0.885748 0.307718
73.6289 147.202 177.37 -0.46934 -0.723223 0.506625
73.8106 147.532 178.01 -0.46934 -0.723223 0.506625
73.0499 147.886 177.811 -0.46934 -0.723223 0.506625
73.6289 147.202 177.37 -0.803486 -0.39064 -0.449233
73.0499 147.886 177.811 -0.803486 -0.39064 -0.449233
73.521 147.83 177.016 -0.803486 -0.39064 -0.449233
73.6289 147.202 177.37 -0.955442 -0.251176 -0.155052
73.521 147.83 177.016 -0.955442 -0.251176 -0.155052
73.6818 147.292 176.897 -0.955442 -0.251176 -0.155052
73.9145 147.232 177.134 0.371976 -0.86366 0.340184
73.8106 147.532 178.01 0.371976 -0.86366 0.340184
73.6289 147.202 177.37 0.371976 -0.86366 0.340184
73.9145 147.232 177.134 0.733419 -0.611625 0.296668
74.6005 148.014 177.051 0.733419 -0.611625 0.296668
73.8106 147.532 178.01 0.733419 -0.611625 0.296668
74.6005 148.014 177.051 0.381942 -0.912893 -0.144041
74.5962 147.869 177.955 0.381942 -0.912893 -0.144041
73.8106 147.532 178.01 0.381942 -0.912893 -0.144041
74.8502 148.245 177.972 0.827319 -0.555293 -0.0848063
74.5962 147.869 177.955 0.827319 -0.555293 -0.0848063
74.6005 148.014 177.051 0.827319 -0.555293 -0.0848063
73.3631 148.778 176.602 -0.722003 -0.4538 -0.522281
73.0499 147.886 177.811 -0.722003 -0.4538 -0.522281
72.7336 148.33 177.862 -0.722003 -0.4538 -0.522281
73.3631 148.778 176.602 -0.700635 -0.485503 -0.522875
72.7336 148.33 177.862 -0.700635 -0.485503 -0.522875
72.686 149.067 177.241 -0.700635 -0.485503 -0.522875
72.686 149.067 177.241 -0.9728 -0.182677 -0.142441
72.7336 148.33 177.862 -0.9728 -0.182677 -0.142441
72.5772 148.982 178.094 -0.9728 -0.182677 -0.142441
73.521 147.83 177.016 -0.819526 -0.338468 -0.462404
73.0499 147.886 177.811 -0.819526 -0.338468 -0.462404
73.3631 148.778 176.602 -0.819526 -0.338468 -0.462404
74.6005 148.014 177.051 0.812199 -0.578556 -0.0748679
75.2187 148.86 177.217 0.812199 -0.578556 -0.0748679
74.8502 148.245 177.972 0.812199 -0.578556 -0.0748679
74.8502 148.245 177.972 0.920967 -0.355193 0.160183
75.2187 148.86 177.217 0.920967 -0.355193 0.160183
75.1956 149.162 178.018 0.920967 -0.355193 0.160183
72.686 149.067 177.241 -0.989148 -0.0633259 -0.132578
72.5772 148.982 178.094 -0.989148 -0.0633259 -0.132578
72.6218 149.769 177.385 -0.989148 -0.0633259 -0.132578
72.5772 148.982 178.094 -0.998558 0.0535661 -0.00350368
72.6139 149.676 178.219 -0.998558 0.0535661 -0.00350368
72.6218 149.769 177.385 -0.998558 0.0535661 -0.00350368
75.2187 148.86 177.217 0.990059 -0.119861 0.0735923
75.3415 149.774 177.053 0.990059 -0.119861 0.0735923
75.1956 149.162 178.018 0.990059 -0.119861 0.0735923
75.1956 149.162 178.018 0.99078 -0.0265384 0.132855
75.3415 149.774 177.053 0.99078 -0.0265384 0.132855
75.224 150.149 178.004 0.99078 -0.0265384 0.132855
72.6218 149.769 177.385 -0.830598 0.554263 0.053843
72.6139 149.676 178.219 -0.830598 0.554263 0.053843
72.9255 150.177 177.867 -0.830598 0.554263 0.053843
72.9827 150.022 176.994 -0.683179 0.710005 -0.170761
72.6218 149.769 177.385 -0.683179 0.710005 -0.170761
72.9255 150.177 177.867 -0.683179 0.710005 -0.170761
73.7088 150.781 177.819 -0.595934 0.749118 -0.289285
72.9255 150.177 177.867 -0.595934 0.749118 -0.289285
73.5091 150.751 178.151 -0.595934 0.749118 -0.289285
73.7088 150.781 177.819 -0.5578 0.685392 -0.468077
73.6981 150.267 177.078 -0.5578 0.685392 -0.468077
72.9255 150.177 177.867 -0.5578 0.685392 -0.468077
73.6981 150.267 177.078 -0.298398 0.936205 -0.185684
72.9827 150.022 176.994 -0.298398 0.936205 -0.185684
72.9255 150.177 177.867 -0.298398 0.936205 -0.185684
73.6981 150.267 177.078 -0.419701 0.748272 -0.51375
73.7088 150.781 177.819 -0.419701 0.748272 -0.51375
74.5218 150.753 177.114 -0.419701 0.748272 -0.51375
75.3415 149.774 177.053 0.954182 0.299228 -0.000191536
75.0539 150.691 177.228 0.954182 0.299228 -0.000191536
75.224 150.149 178.004 0.954182 0.299228 -0.000191536
75.224 150.149 178.004 0.898138 0.427736 0.101935
75.0539 150.691 177.228 0.898138 0.427736 0.101935
74.8746 150.895 177.953 0.898138 0.427736 0.101935
73.7088 150.781 177.819 -0.514671 0.824995 -0.233447
73.5091 150.751 178.151 -0.514671 0.824995 -0.233447
73.9971 151.001 177.958 -0.514671 0.824995 -0.233447
74.5218 150.753 177.114 -0.379484 0.797318 -0.469335
73.7088 150.781 177.819 -0.379484 0.797318 -0.469335
73.9971 151.001 177.958 -0.379484 0.797318 -0.469335
74.5218 150.753 177.114 -0.3444 0.821416 -0.454603
73.9971 151.001 177.958 -0.3444 0.821416 -0.454603
74.6897 151.016 177.462 -0.3444 0.821416 -0.454603
74.6897 151.016 177.462 -0.162455 0.967013 -0.196198
73.9971 151.001 177.958 -0.162455 0.967013 -0.196198
74.5451 151.124 178.109 -0.162455 0.967013 -0.196198
74.8746 150.895 177.953 0.645824 0.761533 -0.0545681
75.0539 150.691 177.228 0.645824 0.761533 -0.0545681
74.6897 151.016 177.462 0.645824 0.761533 -0.0545681
74.5451 151.124 178.109 0.567144 0.823564 -0.00954434
74.8746 150.895 177.953 0.567144 0.823564 -0.00954434
74.6897 151.016 177.462 0.567144 0.823564 -0.00954434
72.7336 148.33 177.862 -0.801103 -0.585099 0.126072
73.0499 147.886 177.811 -0.801103 -0.585099 0.126072
72.9094 148.285 178.767 -0.801103 -0.585099 0.126072
73.8338 148.142 178.742 -0.100385 -0.762935 0.638634
72.9094 148.285 178.767 -0.100385 -0.762935 0.638634
73.8106 147.532 178.01 -0.100385 -0.762935 0.638634
73.8106 147.532 178.01 -0.464527 -0.839612 0.281542
72.9094 148.285 178.767 -0.464527 -0.839612 0.281542
73.0499 147.886 177.811 -0.464527 -0.839612 0.281542
73.8106 147.532 178.01 0.383087 -0.824307 0.416848
74.5962 147.869 177.955 0.383087 -0.824307 0.416848
74.5169 148.004 178.294 0.383087 -0.824307 0.416848
73.8338 148.142 178.742 0.252341 -0.747428 0.614552
73.8106 147.532 178.01 0.252341 -0.747428 0.614552
74.5169 148.004 178.294 0.252341 -0.747428 0.614552
74.5962 147.869 177.955 0.755876 -0.528262 0.386768
74.8502 148.245 177.972 0.755876 -0.528262 0.386768
74.5169 148.004 178.294 0.755876 -0.528262 0.386768
72.7336 148.33 177.862 -0.943138 -0.28641 0.168703
72.9094 148.285 178.767 -0.943138 -0.28641 0.168703
72.5772 148.982 178.094 -0.943138 -0.28641 0.168703
72.9094 148.285 178.767 -0.922143 -0.382329 0.0589712
72.6231 148.977 178.777 -0.922143 -0.382329 0.0589712
72.5772 148.982 178.094 -0.922143 -0.382329 0.0589712
73.6945 149.064 178.915 -0.00164153 -0.184218 0.982884
72.9094 148.285 178.767 -0.00164153 -0.184218 0.982884
73.8338 148.142 178.742 -0.00164153 -0.184218 0.982884
73.128 149.01 178.949 0.0837793 -0.265966 0.960335
72.9094 148.285 178.767 0.0837793 -0.265966 0.960335
73.6945 149.064 178.915 0.0837793 -0.265966 0.960335
74.5169 148.004 178.294 0.449912 -0.387593 0.804581
74.6051 148.787 178.622 0.449912 -0.387593 0.804581
73.8338 148.142 178.742 0.449912 -0.387593 0.804581
74.6051 148.787 178.622 0.2649 -0.138607 0.954262
73.6945 149.064 178.915 0.2649 -0.138607 0.954262
73.8338 148.142 178.742 0.2649 -0.138607 0.954262
74.8502 148.245 177.972 0.768734 -0.317717 0.555071
75.1956 149.162 178.018 0.768734 -0.317717 0.555071
74.6051 148.787 178.622 0.768734 -0.317717 0.555071
74.5169 148.004 178.294 0.767547 -0.319202 0.555861
74.8502 148.245 177.972 0.767547 -0.319202 0.555861
74.6051 148.787 178.622 0.767547 -0.319202 0.555861
72.7289 149.089 178.869 -0.630841 0.516956 0.578616
73.0164 149.906 178.453 -0.630841 0.516956 0.578616
72.6139 149.676 178.219 -0.630841 0.516956 0.578616
72.7289 149.089 178.869 -0.800853 0.366967 0.473254
72.6139 149.676 178.219 -0.800853 0.366967 0.473254
72.6231 148.977 178.777 -0.800853 0.366967 0.473254
72.6231 148.977 178.777 -0.996895 0.040686 0.0674234
72.6139 149.676 178.219 -0.996895 0.040686 0.0674234
72.5772 148.982 178.094 -0.996895 0.040686 0.0674234
73.128 149.01 178.949 -0.0826722 0.475364 0.875897
73.0164 149.906 178.453 -0.0826722 0.475364 0.875897
72.7289 149.089 178.869 -0.0826722 0.475364 0.875897
73.128 149.01 178.949 0.00685575 0.485562 0.874175
73.6945 149.064 178.915 0.00685575 0.485562 0.874175
73.0164 149.906 178.453 0.00685575 0.485562 0.874175
73.6945 149.064 178.915 -0.37904 0.191718 0.905303
73.8598 150.07 178.771 -0.37904 0.191718 0.905303
73.0164 149.906 178.453 -0.37904 0.191718 0.905303
74.6051 148.787 178.622 0.294474 -0.0418624 0.954742
74.6627 149.785 178.648 0.294474 -0.0418624 0.954742
73.6945 149.064 178.915 0.294474 -0.0418624 0.954742
74.6627 149.785 178.648 0.188434 0.108559 0.976067
73.8598 150.07 178.771 0.188434 0.108559 0.976067
73.6945 149.064 178.915 0.188434 0.108559 0.976067
75.1956 149.162 178.018 0.757204 -0.0122003 0.653064
75.224 150.149 178.004 0.757204 -0.0122003 0.653064
74.6627 149.785 178.648 0.757204 -0.0122003 0.653064
74.6051 148.787 178.622 0.731846 -0.0599285 0.67883
75.1956 149.162 178.018 0.731846 -0.0599285 0.67883
74.6627 149.785 178.648 0.731846 -0.0599285 0.67883
72.6139 149.676 178.219 -0.619493 0.671176 0.407125
73.0164 149.906 178.453 -0.619493 0.671176 0.407125
72.9255 150.177 177.867 -0.619493 0.671176 0.407125
73.5091 150.751 178.151 -0.73622 0.563191 0.375228
72.9255 150.177 177.867 -0.73622 0.563191 0.375228
73.0164 149.906 178.453 -0.73622 0.563191 0.375228
73.5091 150.751 178.151 -0.631892 0.559775 0.536063
73.0164 149.906 178.453 -0.631892 0.559775 0.536063
73.8323 150.801 178.48 -0.631892 0.559775 0.536063
73.8323 150.801 178.48 -0.388893 0.328257 0.860819
73.0164 149.906 178.453 -0.388893 0.328257 0.860819
73.8598 150.07 178.771 -0.388893 0.328257 0.860819
74.6627 149.785 178.648 0.205221 0.16031 0.965497
74.6268 150.71 178.502 0.205221 0.16031 0.965497
73.8598 150.07 178.771 0.205221 0.16031 0.965497
74.6268 150.71 178.502 0.0168733 0.370571 0.928651
73.8323 150.801 178.48 0.0168733 0.370571 0.928651
73.8598 150.07 178.771 0.0168733 0.370571 0.928651
75.224 150.149 178.004 0.778668 0.398028 0.485026
74.8746 150.895 177.953 0.778668 0.398028 0.485026
74.6268 150.71 178.502 0.778668 0.398028 0.485026
74.6627 149.785 178.648 0.707145 0.136847 0.6937
75.224 150.149 178.004 0.707145 0.136847 0.6937
74.6268 150.71 178.502 0.707145 0.136847 0.6937
73.5091 150.751 178.151 -0.370903 0.900167 0.228321
73.8323 150.801 178.48 -0.370903 0.900167 0.228321
73.9971 151.001 177.958 -0.370903 0.900167 0.228321
74.5451 151.124 178.109 -0.279785 0.922561 0.26571
73.9971 151.001 177.958 -0.279785 0.922561 0.26571
73.8323 150.801 178.48 -0.279785 0.922561 0.26571
74.6268 150.71 178.502 0.0592779 0.6934 0.718111
74.5451 151.124 178.109 0.0592779 0.6934 0.718111
73.8323 150.801 178.48 0.0592779 0.6934 0.718111
74.8746 150.895 177.953 0.642469 0.590591 0.4883
74.5451 151.124 178.109 0.642469 0.590591 0.4883
74.6268 150.71 178.502 0.642469 0.590591 0.4883
72.9094 148.285 178.767 -0.495612 -0.216962 0.841009
72.7289 149.089 178.869 -0.495612 -0.216962 0.841009
72.6231 148.977 178.777 -0.495612 -0.216962 0.841009
72.9094 148.285 178.767 -0.22766 -0.171672 0.958488
73.128 149.01 178.949 -0.22766 -0.171672 0.958488
72.7289 149.089 178.869 -0.22766 -0.171672 0.958488
3 0 1 2
3 3 4 5
3 6 7 8
3 9 10 11
3 12 13 14
3 15 16 17
3 18 19 20
3 21 22 23
3 24 25 26
3 27 28 29
3 30 31 32
3 33 34 35
3 36 37 38
3 39 40 41
3 42 43 44
3 45 46 47
3 48 49 50
3 51 52 53
3 54 55 56
3 57 58 59
3 60 61 62
3 63 64 65
3 66 67 68
3 69 70 71
3 72 73 74
3 75 76 77
3 78 79 80
3 81 82 83
3 84 85 86
3 87 88 89
3 90 91 92
3 93 94 95
3 96 97 98
3 99 100 101
3 102 103 104
3 105 106 107
3 108 109 110
3 111 112 113
3 114 115 116
3 117 118 119
3 120 121 122
3 123 124 125
3 126 127 128
3 129 130 131
3 132 133 134
3 135 136 137
3 138 139 140
3 141 142 143
3 144 145 146
3 147 148 149
3 150 151 152
3 153 154 155
3 156 157 158
3 159 160 161
3 162 163 164
3 165 166 167
3 168 169 170
3 171 172 173
3 174 175 176
3 177 178 179
3 180 181 182
3 183 184 185
3 186 187 188
3 189 190 191
3 192 193 194
3 195 196 197
3 198 199 200
3 201 202 203
3 204 205 206
3 207 208 209
3 210 211 212
3 213 214 215
3 216 217 218
3 219 220 221
3 222 223 224
3 225 226 227
3 228 229 230
3 231 232 233
3 234 235 236
3 237 238 239
3 240 241 242
3 243 244 245
3 246 247 248
3 249 250 251
3 252 253 254
3 255 256 257
3 258 259 260
3 261 262 263
3 264 265 266
3 267 268 269
3 270 271 272
3 273 274 275
3 276 277 278
3 279 280 281
3 282 283 284
3 285 286 287
3 288 289 290
3 291 292 293
3 294 295 296
3 297 298 299
3 300 301 302
3 303 304 305
3 306 307 308
3 309 310 311
3 312 313 314
3 315 316 317
3 318 319 320
3 321 322 323
3 324 325 326
3 327 328 329
3 330 331 332
3 333 334 335
