ply
format ascii 1.0
element vertex 408
property float x
property float y
property float z
property float nx
property float ny
property float nz
element face 136
property list uint uint vertex_indices
end_header
63.0815 114.708 141.708 -0.661389 -0.306653 -0.684492
62.8799 114.54 141.978 -0.661389 -0.306653 -0.684492
62.7271 114.828 141.996 -0.661389 -0.306653 -0.684492
63.0815 114.708 141.708 0.0212835 -0.628532 -0.777493
64.0261 114.769 141.685 0.0212835 -0.628532 -0.777493
63.7654 114.358 142.009 0.0212835 -0.628532 -0.777493
62.8799 114.54 141.978 -0.141067 -0.79007 -0.596564
63.0815 114.708 141.708 -0.141067 -0.79007 -0.596564
63.7654 114.358 142.009 -0.141067 -0.79007 -0.596564
64.0261 114.769 141.685 0.191294 -0.407786 -0.892814
65.0097 114.798 141.882 0.191294 -0.407786 -0.892814
64.7342 114.505 141.957 0.191294 -0.407786 -0.892814
63.7654 114.358 142.009 0.0555748 -0.640914 -0.765598
64.0261 114.769 141.685 0.0555748 -0.640914 -0.765598
64.7342 114.505 141.957 0.0555748 -0.640914 -0.765598
63.0815 114.708 141.708 -0.627333 0.0209035 -0.778471
62.7271 114.828 141.996 -0.627333 0.0209035 -0.778471
62.9873 114.987 141.791 -0.627333 0.0209035 -0.778471
62.9873 114.987 141.791 -0.313343 0.350223 -0.8827
63.4796 115.483 141.813 -0.313343 0.350223 -0.8827
63.7045 115.343 141.678 -0.313343 0.350223 -0.8827
62.9873 114.987 141.791 -0.24888 0.199641 -0.947735
63.7045 115.343 141.678 -0.24888 0.199641 -0.947735
63.0815 114.708 141.708 -0.24888 0.199641 -0.947735
63.0815 114.708 141.708 -0.0227718 -0.0248214 -0.999433
63.7045 115.343 141.678 -0.0227718 -0.0248214 -0.999433
64.0261 114.769 141.685 -0.0227718 -0.0248214 -0.999433
65.0097 114.798 141.882 0.198638 -0.120976 -0.972578
64.0261 114.769 141.685 0.198638 -0.120976 -0.972578
64.6174 115.474 141.718 0.198638 -0.120976 -0.972578
64.6174 115.474 141.718 0.0420114 0.0114832 -0.999051
64.0261 114.769 141.685 0.0420114 0.0114832 -0.999051
63.7045 115.343 141.678 0.0420114 0.0114832 -0.999051
64.6174 115.474 141.718 0.368229 -0.0121215 -0.929656
65.3489 115.579 142.006 0.368229 -0.0121215 -0.929656
65.0097 114.798 141.882 0.368229 -0.0121215 -0.929656
63.7045 115.343 141.678 -0.19455 0.501647 -0.842912
63.4796 115.483 141.813 -0.19455 0.501647 -0.842912
63.8549 115.809 141.921 -0.19455 0.501647 -0.842912
64.6174 115.474 141.718 -0.0290823 0.469027 -0.882705
63.7045 115.343 141.678 -0.0290823 0.469027 -0.882705
63.8549 115.809 141.921 -0.0290823 0.469027 -0.882705
64.7943 116.045 141.889 -0.111499 0.317142 -0.941801
64.6174 115.474 141.718 -0.111499 0.317142 -0.941801
63.8549 115.809 141.921 -0.111499 0.317142 -0.941801
65.3489 115.579 142.006 0.339841 0.171985 -0.924624
64.6174 115.474 141.718 0.339841 0.171985 -0.924624
64.7943 116.045 141.889 0.339841 0.171985 -0.924624
63.8712 113.689 142.824 0.00346665 -0.933227 -0.35927
64.0139 113.801 142.535 0.00346665 -0.933227 -0.35927
64.292 113.666 142.888 0.00346665 -0.933227 -0.35927
62.8799 114.54 141.978 -0.702883 -0.709407 -0.051938
63.0589 114.307 142.74 -0.702883 -0.709407 -0.051938
62.6735 114.697 142.631 -0.702883 -0.709407 -0.051938
62.7271 114.828 141.996 -0.875026 -0.4542 -0.167431
62.8799 114.54 141.978 -0.875026 -0.4542 -0.167431
62.6735 114.697 142.631 -0.875026 -0.4542 -0.167431
63.8712 113.689 142.824 -0.490411 -0.703454 -0.514441
63.7654 114.358 142.009 -0.490411 -0.703454 -0.514441
64.0139 113.801 142.535 -0.490411 -0.703454 -0.514441
63.8712 113.689 142.824 -0.484037 -0.705828 -0.517219
63.0589 114.307 142.74 -0.484037 -0.705828 -0.517219
63.7654 114.358 142.009 -0.484037 -0.705828 -0.517219
63.0589 114.307 142.74 -0.186565 -0.950912 -0.246902
62.8799 114.54 141.978 -0.186565 -0.950912 -0.246902
63.7654 114.358 142.009 -0.186565 -0.950912 -0.246902
64.0139 113.801 142.535 0.42198 -0.685234 -0.593622
64.6884 114.163 142.597 0.42198 -0.685234 -0.593622
64.292 113.666 142.888 0.42198 -0.685234 -0.593622
64.0139 113.801 142.535 0.363185 -0.54825 -0.753338
63.7654 114.358 142.009 0.363185 -0.54825 -0.753338
64.6884 114.163 142.597 0.363185 -0.54825 -0.753338
63.7654 114.358 142.009 0.108034 -0.879742 -0.463015
64.7342 114.505 141.957 0.108034 -0.879742 -0.463015
64.6884 114.163 142.597 0.108034 -0.879742 -0.463015
65.0097 114.798 141.882 0.543351 -0.523653 -0.656169
65.7943 114.869 142.475 0.543351 -0.523653 -0.656169
65.5698 114.378 142.681 0.543351 -0.523653 -0.656169
65.0097 114.798 141.882 0.467605 -0.604036 -0.645357
65.5698 114.378 142.681 0.467605 -0.604036 -0.645357
64.7342 114.505 141.957 0.467605 -0.604036 -0.645357
64.7342 114.505 141.957 0.252729 -0.860495 -0.442352
65.5698 114.378 142.681 0.252729 -0.860495 -0.442352
64.6884 114.163 142.597 0.252729 -0.860495 -0.442352
65.5698 114.378 142.681 0.618349 -0.527174 -0.582866
65.7943 114.869 142.475 0.618349 -0.527174 -0.582866
65.9729 114.512 142.987 0.618349 -0.527174 -0.582866
62.9448 115.482 142.289 -0.705467 0.471376 -0.529265
62.9873 114.987 141.791 -0.705467 0.471376 -0.529265
62.7271 114.828 141.996 -0.705467 0.471376 -0.529265
62.9448 115.482 142.289 -0.811961 0.441085 -0.382312
62.7271 114.828 141.996 -0.811961 0.441085 -0.382312
62.6907 115.542 142.898 -0.811961 0.441085 -0.382312
62.6907 115.542 142.898 -0.996219 0.0438704 -0.0749911
62.7271 114.828 141.996 -0.996219 0.0438704 -0.0749911
62.6735 114.697 142.631 -0.996219 0.0438704 -0.0749911
62.9873 114.987 141.791 -0.546937 0.569615 -0.613513
62.9448 115.482 142.289 -0.546937 0.569615 -0.613513
63.4796 115.483 141.813 -0.546937 0.569615 -0.613513
65.7943 114.869 142.475 0.505418 -0.231726 -0.831177
65.3489 115.579 142.006 0.505418 -0.231726 -0.831177
65.8604 115.474 142.346 0.505418 -0.231726 -0.831177
65.0097 114.798 141.882 0.605064 -0.138104 -0.784107
65.3489 115.579 142.006 0.605064 -0.138104 -0.784107
65.7943 114.869 142.475 0.605064 -0.138104 -0.784107
65.9882 115.318 142.858 0.923439 -0.0776689 -0.375804
65.9729 114.512 142.987 0.923439 -0.0776689 -0.375804
65.7943 114.869 142.475 0.923439 -0.0776689 -0.375804
65.8604 115.474 142.346 0.944265 -0.163818 -0.285531
65.9882 115.318 142.858 0.944265 -0.163818 -0.285531
65.7943 114.869 142.475 0.944265 -0.163818 -0.285531
62.9448 115.482 142.289 -0.794084 0.475771 -0.37825
62.6907 115.542 142.898 -0.794084 0.475771 -0.37825
63.0541 115.965 142.667 -0.794084 0.475771 -0.37825
63.7854 116.439 142.497 -0.523297 0.585231 -0.619407
63.0541 115.965 142.667 -0.523297 0.585231 -0.619407
63.4868 116.514 142.82 -0.523297 0.585231 -0.619407
63.8549 115.809 141.921 -0.509925 0.549324 -0.661982
63.0541 115.965 142.667 -0.509925 0.549324 -0.661982
63.7854 116.439 142.497 -0.509925 0.549324 -0.661982
63.8549 115.809 141.921 -0.475749 0.60631 -0.637221
62.9448 115.482 142.289 -0.475749 0.60631 -0.637221
63.0541 115.965 142.667 -0.475749 0.60631 -0.637221
63.8549 115.809 141.921 -0.467791 0.711594 -0.524219
63.4796 115.483 141.813 -0.467791 0.711594 -0.524219
62.9448 115.482 142.289 -0.467791 0.711594 -0.524219
63.8549 115.809 141.921 -0.159326 0.521922 -0.837981
64.5666 116.486 142.207 -0.159326 0.521922 -0.837981
64.7943 116.045 141.889 -0.159326 0.521922 -0.837981
63.7854 116.439 142.497 -0.304605 0.624388 -0.719274
64.5666 116.486 142.207 -0.304605 0.624388 -0.719274
63.8549 115.809 141.921 -0.304605 0.624388 -0.719274
64.7943 116.045 141.889 0.534458 0.657904 -0.530581
64.5666 116.486 142.207 0.534458 0.657904 -0.530581
65.073 116.369 142.571 0.534458 0.657904 -0.530581
65.3489 115.579 142.006 0.608311 0.591499 -0.529233
64.7943 116.045 141.889 0.608311 0.591499 -0.529233
65.073 116.369 142.571 0.608311 0.591499 -0.529233
65.3489 115.579 142.006 0.671419 0.571998 -0.471184
65.073 116.369 142.571 0.671419 0.571998 -0.471184
65.7657 115.772 142.834 0.671419 0.571998 -0.471184
65.3489 115.579 142.006 0.436264 0.802721 -0.406588
65.7657 115.772 142.834 0.436264 0.802721 -0.406588
65.8604 115.474 142.346 0.436264 0.802721 -0.406588
65.9882 115.318 142.858 0.89609 0.434276 -0.0918019
65.8604 115.474 142.346 0.89609 0.434276 -0.0918019
65.7657 115.772 142.834 0.89609 0.434276 -0.0918019
63.7854 116.439 142.497 -0.251239 0.865619 -0.433109
63.4868 116.514 142.82 -0.251239 0.865619 -0.433109
63.9379 116.681 142.892 -0.251239 0.865619 -0.433109
64.5666 116.486 142.207 -0.21836 0.867494 -0.446959
63.7854 116.439 142.497 -0.21836 0.867494 -0.446959
63.9379 116.681 142.892 -0.21836 0.867494 -0.446959
64.7668 116.654 142.858 0.0208887 0.966606 -0.255414
64.5666 116.486 142.207 0.0208887 0.966606 -0.255414
63.9379 116.681 142.892 0.0208887 0.966606 -0.255414
65.073 116.369 142.571 0.443015 0.825805 -0.348974
64.5666 116.486 142.207 0.443015 0.825805 -0.348974
64.7668 116.654 142.858 0.443015 0.825805 -0.348974
64.292 113.666 142.888 0.315265 -0.873652 -0.370595
65.0069 113.76 143.275 0.315265 -0.873652 -0.370595
64.8065 113.57 143.552 0.315265 -0.873652 -0.370595
64.292 113.666 142.888 -0.0375363 -0.992746 -0.11422
64.8065 113.57 143.552 -0.0375363 -0.992746 -0.11422
63.8712 113.689 142.824 -0.0375363 -0.992746 -0.11422
63.8712 113.689 142.824 -0.226058 -0.965068 0.132445
64.8065 113.57 143.552 -0.226058 -0.965068 0.132445
63.8343 113.823 143.737 -0.226058 -0.965068 0.132445
64.8065 113.57 143.552 0.168981 -0.865705 -0.47117
65.0069 113.76 143.275 0.168981 -0.865705 -0.47117
65.7192 113.781 143.491 0.168981 -0.865705 -0.47117
62.6735 114.697 142.631 -0.723517 -0.675125 0.143978
63.0589 114.307 142.74 -0.723517 -0.675125 0.143978
62.8748 114.679 143.56 -0.723517 -0.675125 0.143978
63.8343 113.823 143.737 -0.60895 -0.787968 0.0910269
63.0589 114.307 142.74 -0.60895 -0.787968 0.0910269
63.8712 113.689 142.824 -0.60895 -0.787968 0.0910269
62.8748 114.679 143.56 -0.673303 -0.718385 0.174887
63.0589 114.307 142.74 -0.673303 -0.718385 0.174887
63.8343 113.823 143.737 -0.673303 -0.718385 0.174887
64.292 113.666 142.888 0.414804 -0.683577 -0.60055
64.6884 114.163 142.597 0.414804 -0.683577 -0.60055
65.0069 113.76 143.275 0.414804 -0.683577 -0.60055
65.5698 114.378 142.681 0.245615 -0.778532 -0.577548
65.0069 113.76 143.275 0.245615 -0.778532 -0.577548
64.6884 114.163 142.597 0.245615 -0.778532 -0.577548
65.7192 113.781 143.491 0.206534 -0.769141 -0.604787
65.0069 113.76 143.275 0.206534 -0.769141 -0.604787
65.5698 114.378 142.681 0.206534 -0.769141 -0.604787
65.7192 113.781 143.491 0.605499 -0.583267 -0.541453
65.5698 114.378 142.681 0.605499 -0.583267 -0.541453
65.9729 114.512 142.987 0.605499 -0.583267 -0.541453
65.7192 113.781 143.491 0.725891 -0.542929 -0.422268
65.9729 114.512 142.987 0.725891 -0.542929 -0.422268
65.9385 113.967 143.629 0.725891 -0.542929 -0.422268
65.9385 113.967 143.629 0.998427 -0.055719 0.006258
65.9729 114.512 142.987 0.998427 -0.055719 0.006258
65.9843 114.781 143.571 0.998427 -0.055719 0.006258
62.6735 114.697 142.631 -0.976406 -0.0465991 0.210854
62.8748 114.679 143.56 -0.976406 -0.0465991 0.210854
62.6907 115.542 142.898 -0.976406 -0.0465991 0.210854
62.8748 114.679 143.56 -0.983693 -0.173441 0.0476027
62.7332 115.505 143.64 -0.983693 -0.173441 0.0476027
62.6907 115.542 142.898 -0.983693 -0.173441 0.0476027
65.9729 114.512 142.987 0.99974 -0.0204839 -0.0099791
65.9882 115.318 142.858 0.99974 -0.0204839 -0.0099791
65.9843 114.781 143.571 0.99974 -0.0204839 -0.0099791
65.9843 114.781 143.571 0.999603 0.0195836 0.0202335
65.9882 115.318 142.858 0.999603 0.0195836 0.0202335
65.9714 115.511 143.502 0.999603 0.0195836 0.0202335
63.0115 116.471 143.384 -0.793739 0.473603 -0.38168
63.0541 115.965 142.667 -0.793739 0.473603 -0.38168
62.6907 115.542 142.898 -0.793739 0.473603 -0.38168
63.0115 116.471 143.384 -0.778815 0.480009 -0.403781
62.6907 115.542 142.898 -0.778815 0.480009 -0.403781
62.7567 116.242 143.602 -0.778815 0.480009 -0.403781
62.7567 116.242 143.602 -0.997657 0.0349274 0.0588336
62.6907 115.542 142.898 -0.997657 0.0349274 0.0588336
62.7332 115.505 143.64 -0.997657 0.0349274 0.0588336
63.0541 115.965 142.667 -0.620997 0.622366 -0.47647
63.0115 116.471 143.384 -0.620997 0.622366 -0.47647
63.4868 116.514 142.82 -0.620997 0.622366 -0.47647
65.7657 115.772 142.834 0.682215 0.729343 -0.0514034
65.1715 116.374 143.481 0.682215 0.729343 -0.0514034
65.8021 115.79 143.572 0.682215 0.729343 -0.0514034
65.073 116.369 142.571 0.667026 0.741118 -0.0762872
65.1715 116.374 143.481 0.667026 0.741118 -0.0762872
65.7657 115.772 142.834 0.667026 0.741118 -0.0762872
65.9714 115.511 143.502 0.895088 0.433009 -0.106397
65.9882 115.318 142.858 0.895088 0.433009 -0.106397
65.7657 115.772 142.834 0.895088 0.433009 -0.106397
65.8021 115.79 143.572 0.847604 0.527805 -0.0546719
65.9714 115.511 143.502 0.847604 0.527805 -0.0546719
65.7657 115.772 142.834 0.847604 0.527805 -0.0546719
63.4868 116.514 142.82 -0.313073 0.929794 -0.19357
63.0115 116.471 143.384 -0.313073 0.929794 -0.19357
63.9379 116.681 142.892 -0.313073 0.929794 -0.19357
63.9379 116.681 142.892 -0.258531 0.962951 -0.0767335
63.0115 116.471 143.384 -0.258531 0.962951 -0.0767335
63.697 116.672 143.596 -0.258531 0.962951 -0.0767335
64.7668 116.654 142.858 0.0322519 0.999473 -0.00367378
63.9379 116.681 142.892 0.0322519 0.999473 -0.00367378
64.5615 116.663 143.549 0.0322519 0.999473 -0.00367378
63.9379 116.681 142.892 0.0114401 0.999805 0.0160905
63.697 116.672 143.596 0.0114401 0.999805 0.0160905
64.5615 116.663 143.549 0.0114401 0.999805 0.0160905
65.1715 116.374 143.481 0.642219 0.762968 -0.073725
65.073 116.369 142.571 0.642219 0.762968 -0.073725
64.7668 116.654 142.858 0.642219 0.762968 -0.073725
64.5615 116.663 143.549 0.436453 0.891976 0.117847
65.1715 116.374 143.481 0.436453 0.891976 0.117847
64.7668 116.654 142.858 0.436453 0.891976 0.117847
63.8343 113.823 143.737 -0.128305 -0.857415 0.498374
64.8065 113.57 143.552 -0.128305 -0.857415 0.498374
64.7907 113.817 143.973 -0.128305 -0.857415 0.498374
64.0637 113.788 144.011 0.0312828 -0.988061 -0.150854
63.8343 113.823 143.737 0.0312828 -0.988061 -0.150854
64.7907 113.817 143.973 0.0312828 -0.988061 -0.150854
64.8065 113.57 143.552 0.215478 -0.968085 -0.127987
65.7192 113.781 143.491 0.215478 -0.968085 -0.127987
65.6533 113.731 143.756 0.215478 -0.968085 -0.127987
64.7907 113.817 143.973 0.0420081 -0.861007 0.506855
64.8065 113.57 143.552 0.0420081 -0.861007 0.506855
65.6533 113.731 143.756 0.0420081 -0.861007 0.506855
65.7192 113.781 143.491 0.640584 -0.767731 0.0155407
65.9385 113.967 143.629 0.640584 -0.767731 0.0155407
65.6533 113.731 143.756 0.640584 -0.767731 0.0155407
62.8748 114.679 143.56 -0.728635 -0.386012 0.565761
63.6283 114.535 144.432 -0.728635 -0.386012 0.565761
63.0646 114.943 143.984 -0.728635 -0.386012 0.565761
63.8343 113.823 143.737 -0.639517 -0.623715 0.449441
63.6283 114.535 144.432 -0.639517 -0.623715 0.449441
62.8748 114.679 143.56 -0.639517 -0.623715 0.449441
63.8343 113.823 143.737 -0.374714 -0.70085 0.606959
64.1145 114.331 144.497 -0.374714 -0.70085 0.606959
63.6283 114.535 144.432 -0.374714 -0.70085 0.606959
63.8343 113.823 143.737 -0.720524 -0.423573 0.549028
64.0637 113.788 144.011 -0.720524 -0.423573 0.549028
64.1145 114.331 144.497 -0.720524 -0.423573 0.549028
64.7907 113.817 143.973 0.0652501 -0.66862 0.740736
64.1145 114.331 144.497 0.0652501 -0.66862 0.740736
64.0637 113.788 144.011 0.0652501 -0.66862 0.740736
64.8863 114.391 144.474 0.0737877 -0.662319 0.745579
64.1145 114.331 144.497 0.0737877 -0.662319 0.745579
64.7907 113.817 143.973 0.0737877 -0.662319 0.745579
64.8863 114.391 144.474 0.55518 -0.257096 0.790998
65.6526 114.45 143.955 0.55518 -0.257096 0.790998
64.8909 114.747 144.586 0.55518 -0.257096 0.790998
64.8863 114.391 144.474 0.470544 -0.62309 0.624777
64.7907 113.817 143.973 0.470544 -0.62309 0.624777
65.6526 114.45 143.955 0.470544 -0.62309 0.624777
64.7907 113.817 143.973 0.211419 -0.260553 0.942027
65.6533 113.731 143.756 0.211419 -0.260553 0.942027
65.6526 114.45 143.955 0.211419 -0.260553 0.942027
65.9385 113.967 143.629 0.754553 0.00432499 0.656225
65.9843 114.781 143.571 0.754553 0.00432499 0.656225
65.6526 114.45 143.955 0.754553 0.00432499 0.656225
65.6533 113.731 143.756 0.543801 -0.223431 0.808925
65.9385 113.967 143.629 0.543801 -0.223431 0.808925
65.6526 114.45 143.955 0.543801 -0.223431 0.808925
63.0646 114.943 143.984 -0.636552 0.0927322 0.765639
62.9857 115.807 143.814 -0.636552 0.0927322 0.765639
62.7332 115.505 143.64 -0.636552 0.0927322 0.765639
62.8748 114.679 143.56 -0.845088 -0.193648 0.498325
63.0646 114.943 143.984 -0.845088 -0.193648 0.498325
62.7332 115.505 143.64 -0.845088 -0.193648 0.498325
63.8082 114.886 144.55 -0.603025 0.0412016 0.796658
63.0646 114.943 143.984 -0.603025 0.0412016 0.796658
63.6283 114.535 144.432 -0.603025 0.0412016 0.796658
63.8082 114.886 144.55 -0.506183 0.484181 0.713686
63.8991 115.638 144.104 -0.506183 0.484181 0.713686
63.0646 114.943 143.984 -0.506183 0.484181 0.713686
63.8991 115.638 144.104 -0.27172 0.162061 0.948633
62.9857 115.807 143.814 -0.27172 0.162061 0.948633
63.0646 114.943 143.984 -0.27172 0.162061 0.948633
63.8082 114.886 144.55 -0.47155 0.491104 0.732433
64.4832 115.397 144.642 -0.47155 0.491104 0.732433
63.8991 115.638 144.104 -0.47155 0.491104 0.732433
65.5986 115.533 143.955 0.645178 0.0321128 0.763357
64.8909 114.747 144.586 0.645178 0.0321128 0.763357
65.6526 114.45 143.955 0.645178 0.0321128 0.763357
65.9843 114.781 143.571 0.771951 0.0737822 0.631386
65.9714 115.511 143.502 0.771951 0.0737822 0.631386
65.5986 115.533 143.955 0.771951 0.0737822 0.631386
65.6526 114.45 143.955 0.739941 0.0368496 0.671662
65.9843 114.781 143.571 0.739941 0.0368496 0.671662
65.5986 115.533 143.955 0.739941 0.0368496 0.671662
62.9857 115.807 143.814 -0.510664 0.143248 0.847763
63.0199 116.49 143.719 -0.510664 0.143248 0.847763
62.7567 116.242 143.602 -0.510664 0.143248 0.847763
62.7332 115.505 143.64 -0.612924 0.060264 0.78784
62.9857 115.807 143.814 -0.612924 0.060264 0.78784
62.7567 116.242 143.602 -0.612924 0.060264 0.78784
63.8991 115.638 144.104 -0.237114 0.304164 0.922638
63.8073 116.437 143.817 -0.237114 0.304164 0.922638
62.9857 115.807 143.814 -0.237114 0.304164 0.922638
63.8073 116.437 143.817 -0.113219 0.142182 0.983344
63.0199 116.49 143.719 -0.113219 0.142182 0.983344
62.9857 115.807 143.814 -0.113219 0.142182 0.983344
64.8228 115.707 144.457 -0.297057 0.708339 0.640323
63.8991 115.638 144.104 -0.297057 0.708339 0.640323
64.4832 115.397 144.642 -0.297057 0.708339 0.640323
64.8228 115.707 144.457 -0.319083 0.622136 0.714936
64.7608 116.311 143.903 -0.319083 0.622136 0.714936
63.8991 115.638 144.104 -0.319083 0.622136 0.714936
64.7608 116.311 143.903 -0.0406251 0.333628 0.941829
63.8073 116.437 143.817 -0.0406251 0.333628 0.941829
63.8991 115.638 144.104 -0.0406251 0.333628 0.941829
65.5986 115.533 143.955 0.52375 0.604005 0.60072
64.7608 116.311 143.903 0.52375 0.604005 0.60072
64.8228 115.707 144.457 0.52375 0.604005 0.60072
65.5986 115.533 143.955 0.524145 0.604382 0.599995
65.1715 116.374 143.481 0.524145 0.604382 0.599995
64.7608 116.311 143.903 0.524145 0.604382 0.599995
65.5986 115.533 143.955 0.463449 0.601896 0.650335
65.8021 115.79 143.572 0.463449 0.601896 0.650335
65.1715 116.374 143.481 0.463449 0.601896 0.650335
65.9714 115.511 143.502 0.743762 0.300501 0.597091
65.8021 115.79 143.572 0.743762 0.300501 0.597091
65.5986 115.533 143.955 0.743762 0.300501 0.597091
62.7567 116.242 143.602 -0.679693 0.73314 -0.0228869
63.0199 116.49 143.719 -0.679693 0.73314 -0.0228869
63.0115 116.471 143.384 -0.679693 0.73314 -0.0228869
63.697 116.672 143.596 -0.267966 0.962345 -0.0456768
63.0115 116.471 143.384 -0.267966 0.962345 -0.0456768
63.0199 116.49 143.719 -0.267966 0.962345 -0.0456768
63.8073 116.437 143.817 -0.0471407 0.672626 0.73848
63.697 116.672 143.596 -0.0471407 0.672626 0.73848
63.0199 116.49 143.719 -0.0471407 0.672626 0.73848
64.5615 116.663 143.549 0.0464849 0.695916 0.716618
63.697 116.672 143.596 0.0464849 0.695916 0.716618
63.8073 116.437 143.817 0.0464849 0.695916 0.716618
64.7608 116.311 143.903 0.0321863 0.718118 0.695177
64.5615 116.663 143.549 0.0321863 0.718118 0.695177
63.8073 116.437 143.817 0.0321863 0.718118 0.695177
65.1715 116.374 143.481 0.413496 0.751573 0.513964
64.5615 116.663 143.549 0.413496 0.751573 0.513964
64.7608 116.311 143.903 0.413496 0.751573 0.513964
64.1145 114.331 144.497 -0.292852 -0.426366 0.855833
64.1202 114.779 144.722 -0.292852 -0.426366 0.855833
63.6283 114.535 144.432 -0.292852 -0.426366 0.855833
64.1145 114.331 144.497 0.0519486 -0.301453 0.952065
64.8863 114.391 144.474 0.0519486 -0.301453 0.952065
64.8909 114.747 144.586 0.0519486 -0.301453 0.952065
64.1202 114.779 144.722 0.13725 -0.446205 0.884344
64.1145 114.331 144.497 0.13725 -0.446205 0.884344
64.8909 114.747 144.586 0.13725 -0.446205 0.884344
63.6283 114.535 144.432 -0.49267 -0.0397 0.86931
64.1202 114.779 144.722 -0.49267 -0.0397 0.86931
63.8082 114.886 144.55 -0.49267 -0.0397 0.86931
64.4832 115.397 144.642 -0.367072 0.328002 0.870444
63.8082 114.886 144.55 -0.367072 0.328002 0.870444
64.1202 114.779 144.722 -0.367072 0.328002 0.870444
64.4832 115.397 144.642 -0.0215725 0.140356 0.989866
64.1202 114.779 144.722 -0.0215725 0.140356 0.989866
64.8505 115.377 144.653 -0.0215725 0.140356 0.989866
64.8505 115.377 144.653 0.169014 -0.0932673 0.981191
64.1202 114.779 144.722 0.169014 -0.0932673 0.981191
64.8909 114.747 144.586 0.169014 -0.0932673 0.981191
64.8909 114.747 144.586 0.68558 -0.0332505 0.727237
65.5986 115.533 143.955 0.68558 -0.0332505 0.727237
64.8505 115.377 144.653 0.68558 -0.0332505 0.727237
64.4832 115.397 144.642 0.00177856 0.511917 0.859033
64.8505 115.377 144.653 0.00177856 0.511917 0.859033
64.8228 115.707 144.457 0.00177856 0.511917 0.859033
65.5986 115.533 143.955 0.552485 0.460442 0.694804
64.8228 115.707 144.457 0.552485 0.460442 0.694804
64.8505 115.377 144.653 0.552485 0.460442 0.694804
3 0 1 2
3 3 4 5
3 6 7 8
3 9 10 11
3 12 13 14
3 15 16 17
3 18 19 20
3 21 22 23
3 24 25 26
3 27 28 29
3 30 31 32
3 33 34 35
3 36 37 38
3 39 40 41
3 42 43 44
3 45 46 47
3 48 49 50
3 51 52 53
3 54 55 56
3 57 58 59
3 60 61 62
3 63 64 65
3 66 67 68
3 69 70 71
3 72 73 74
3 75 76 77
3 78 79 80
3 81 82 83
3 84 85 86
3 87 88 89
3 90 91 92
3 93 94 95
3 96 97 98
3 99 100 101
3 102 103 104
3 105 106 107
3 108 109 110
3 111 112 113
3 114 115 116
3 117 118 119
3 120 121 122
3 123 124 125
3 126 127 128
3 129 130 131
3 132 133 134
3 135 136 137
3 138 139 140
3 141 142 143
3 144 145 146
3 147 148 149
3 150 151 152
3 153 154 155
3 156 157 158
3 159 160 161
3 162 163 164
3 165 166 167
3 168 169 170
3 171 172 173
3 174 175 176
3 177 178 179
3 180 181 182
3 183 184 185
3 186 187 188
3 189 190 191
3 192 193 194
3 195 196 197
3 198 199 200
3 201 202 203
3 204 205 206
3 207 208 209
3 210 211 212
3 213 214 215
3 216 217 218
3 219 220 221
3 222 223 224
3 225 226 227
3 228 229 230
3 231 232 233
3 234 235 236
3 237 238 239
3 240 241 242
3 243 244 245
3 246 247 248
3 249 250 251
3 252 253 254
3 255 256 257
3 258 259 260
3 261 262 263
3 264 265 266
3 267 268 269
3 270 271 272
3 273 274 275
3 276 277 278
3 279 280 281
3 282 283 284
3 285 286 287
3 288 289 290
3 291 292 293
3 294 295 296
3 297 298 299
3 300 301 302
3 303 304 305
3 306 307 308
3 309 310 311
3 312 313 314
3 315 316 317
3 318 319 320
3 321 322 323
3 324 325 326
3 327 328 329
3 330 331 332
3 333 334 335
3 336 337 338
3 339 340 341
3 342 343 344
3 345 346 347
3 348 349 350
3 351 352 353
3 354 355 356
3 357 358 359
3 360 361 362
3 363 364 365
3 366 367 368
3 369 370 371
3 372 373 374
3 375 376 377
3 378 379 380
3 381 382 383
3 384 385 386
3 387 388 389
3 390 391 392
3 393 394 395
3 396 397 398
3 399 400 401
3 402 403 404
3 405 406 407
