ply
format ascii 1.0
element vertex 426
property float x
property float y
property float z
property float nx
property float ny
property float nz
element face 142
property list uint uint vertex_indices
end_header
69.5591 178.424 157.207 -0.35454 -0.654207 -0.668068
69.4418 178.06 157.625 -0.35454 -0.654207 -0.668068
69.1759 178.429 157.405 -0.35454 -0.654207 -0.668068
69.4418 178.06 157.625 0.0981964 -0.764539 -0.637054
69.5591 178.424 157.207 0.0981964 -0.764539 -0.637054
69.8362 178.198 157.521 0.0981964 -0.764539 -0.637054
69.476 179.221 157.13 -0.457557 -0.131711 -0.879372
69.5591 178.424 157.207 -0.457557 -0.131711 -0.879372
69.1759 178.429 157.405 -0.457557 -0.131711 -0.879372
68.9325 179.284 157.514 -0.580628 -0.0616753 -0.81183
69.476 179.221 157.13 -0.580628 -0.0616753 -0.81183
69.1759 178.429 157.405 -0.580628 -0.0616753 -0.81183
70.2484 178.683 157.359 0.374541 -0.563762 -0.736133
69.8362 178.198 157.521 0.374541 -0.563762 -0.736133
69.5591 178.424 157.207 0.374541 -0.563762 -0.736133
70.2484 178.683 157.359 0.327731 -0.358065 -0.874289
69.5591 178.424 157.207 0.327731 -0.358065 -0.874289
70.2596 179.237 157.136 0.327731 -0.358065 -0.874289
70.2596 179.237 157.136 0.00933685 -0.094128 -0.995516
69.5591 178.424 157.207 0.00933685 -0.094128 -0.995516
69.476 179.221 157.13 0.00933685 -0.094128 -0.995516
70.2484 178.683 157.359 0.48555 -0.33449 -0.807686
70.2596 179.237 157.136 0.48555 -0.33449 -0.807686
70.7196 179.126 157.459 0.48555 -0.33449 -0.807686
69.3483 180.224 157.438 -0.55367 0.178876 -0.813298
69.476 179.221 157.13 -0.55367 0.178876 -0.813298
68.9325 179.284 157.514 -0.55367 0.178876 -0.813298
68.9113 180.008 157.485 -0.0873769 -0.0423725 -0.995274
69.3483 180.224 157.438 -0.0873769 -0.0423725 -0.995274
68.9325 179.284 157.514 -0.0873769 -0.0423725 -0.995274
70.2596 179.237 157.136 0.00314399 0.207344 -0.978263
69.476 179.221 157.13 0.00314399 0.207344 -0.978263
70.2625 180.192 157.339 0.00314399 0.207344 -0.978263
70.2625 180.192 157.339 -0.0938087 0.28092 -0.955136
69.476 179.221 157.13 -0.0938087 0.28092 -0.955136
69.3483 180.224 157.438 -0.0938087 0.28092 -0.955136
70.8638 180.032 157.579 0.576654 0.0169971 -0.816812
70.7196 179.126 157.459 0.576654 0.0169971 -0.816812
70.2596 179.237 157.136 0.576654 0.0169971 -0.816812
70.2625 180.192 157.339 0.40776 0.188146 -0.893495
70.8638 180.032 157.579 0.40776 0.188146 -0.893495
70.2596 179.237 157.136 0.40776 0.188146 -0.893495
69.4418 178.06 157.625 -0.592944 -0.805196 -0.00879042
69.5402 177.979 158.464 -0.592944 -0.805196 -0.00879042
69.006 178.375 158.184 -0.592944 -0.805196 -0.00879042
69.1759 178.429 157.405 -0.731849 -0.650081 -0.204431
69.4418 178.06 157.625 -0.731849 -0.650081 -0.204431
69.006 178.375 158.184 -0.731849 -0.650081 -0.204431
69.8362 178.198 157.521 0.399381 -0.780765 -0.480521
70.6253 178.352 157.926 0.399381 -0.780765 -0.480521
70.3349 177.958 158.324 0.399381 -0.780765 -0.480521
69.8362 178.198 157.521 0.207291 -0.894886 -0.395234
70.3349 177.958 158.324 0.207291 -0.894886 -0.395234
69.4418 178.06 157.625 0.207291 -0.894886 -0.395234
69.4418 178.06 157.625 -0.0416583 -0.994903 -0.091824
70.3349 177.958 158.324 -0.0416583 -0.994903 -0.091824
69.5402 177.979 158.464 -0.0416583 -0.994903 -0.091824
70.6253 178.352 157.926 0.27212 -0.589217 -0.760772
71.4042 178.386 158.178 0.27212 -0.589217 -0.760772
71.2284 178.023 158.396 0.27212 -0.589217 -0.760772
70.3349 177.958 158.324 0.107172 -0.745105 -0.65828
70.6253 178.352 157.926 0.107172 -0.745105 -0.65828
71.2284 178.023 158.396 0.107172 -0.745105 -0.65828
71.2284 178.023 158.396 0.584594 -0.606997 -0.538336
71.4042 178.386 158.178 0.584594 -0.606997 -0.538336
71.6127 178.245 158.564 0.584594 -0.606997 -0.538336
68.4211 179.18 158.122 -0.815209 -0.504761 -0.283992
68.4551 178.875 158.567 -0.815209 -0.504761 -0.283992
68.1609 179.41 158.46 -0.815209 -0.504761 -0.283992
68.4211 179.18 158.122 -0.749998 -0.570767 -0.334257
69.006 178.375 158.184 -0.749998 -0.570767 -0.334257
68.4551 178.875 158.567 -0.749998 -0.570767 -0.334257
68.4211 179.18 158.122 -0.619894 -0.497234 -0.607033
68.9325 179.284 157.514 -0.619894 -0.497234 -0.607033
69.006 178.375 158.184 -0.619894 -0.497234 -0.607033
68.9325 179.284 157.514 -0.944773 -0.240413 -0.222724
69.1759 178.429 157.405 -0.944773 -0.240413 -0.222724
69.006 178.375 158.184 -0.944773 -0.240413 -0.222724
69.8362 178.198 157.521 0.454158 -0.60419 -0.654748
70.2484 178.683 157.359 0.454158 -0.60419 -0.654748
70.6253 178.352 157.926 0.454158 -0.60419 -0.654748
70.7196 179.126 157.459 0.582794 -0.470745 -0.662382
70.6253 178.352 157.926 0.582794 -0.470745 -0.662382
70.2484 178.683 157.359 0.582794 -0.470745 -0.662382
70.7196 179.126 157.459 0.633144 -0.455023 -0.626165
71.3241 179.248 157.981 0.633144 -0.455023 -0.626165
70.6253 178.352 157.926 0.633144 -0.455023 -0.626165
71.3241 179.248 157.981 0.310204 -0.184363 -0.932622
71.4042 178.386 158.178 0.310204 -0.184363 -0.932622
70.6253 178.352 157.926 0.310204 -0.184363 -0.932622
71.7122 179.002 158.504 0.845245 -0.151813 -0.512361
71.6127 178.245 158.564 0.845245 -0.151813 -0.512361
71.4042 178.386 158.178 0.845245 -0.151813 -0.512361
71.3241 179.248 157.981 0.785495 -0.0676068 -0.615164
71.7122 179.002 158.504 0.785495 -0.0676068 -0.615164
71.4042 178.386 158.178 0.785495 -0.0676068 -0.615164
68.4903 180.205 158.111 -0.776271 0.0456912 -0.628742
68.4211 179.18 158.122 -0.776271 0.0456912 -0.628742
68.1609 179.41 158.46 -0.776271 0.0456912 -0.628742
68.0923 180.198 158.703 -0.826221 0.0989425 -0.55459
68.4903 180.205 158.111 -0.826221 0.0989425 -0.55459
68.1609 179.41 158.46 -0.826221 0.0989425 -0.55459
68.9325 179.284 157.514 -0.835496 -0.046433 -0.547531
68.4903 180.205 158.111 -0.835496 -0.046433 -0.547531
68.9113 180.008 157.485 -0.835496 -0.046433 -0.547531
68.4211 179.18 158.122 -0.768099 0.0450333 -0.638745
68.4903 180.205 158.111 -0.768099 0.0450333 -0.638745
68.9325 179.284 157.514 -0.768099 0.0450333 -0.638745
71.3241 179.248 157.981 0.656354 -0.00107031 -0.754452
70.8638 180.032 157.579 0.656354 -0.00107031 -0.754452
71.4031 180.075 158.048 0.656354 -0.00107031 -0.754452
70.7196 179.126 157.459 0.654107 -0.00338736 -0.756395
70.8638 180.032 157.579 0.654107 -0.00338736 -0.756395
71.3241 179.248 157.981 0.654107 -0.00338736 -0.756395
71.6718 180.039 158.54 0.813313 0.051854 -0.579512
71.7122 179.002 158.504 0.813313 0.051854 -0.579512
71.3241 179.248 157.981 0.813313 0.051854 -0.579512
71.4031 180.075 158.048 0.875091 -0.0442392 -0.481932
71.6718 180.039 158.54 0.875091 -0.0442392 -0.481932
71.3241 179.248 157.981 0.875091 -0.0442392 -0.481932
69.2691 181.228 158.486 -0.22023 0.479064 -0.849704
68.4903 180.205 158.111 -0.22023 0.479064 -0.849704
68.7155 181.095 158.554 -0.22023 0.479064 -0.849704
69.3483 180.224 157.438 -0.49871 0.606633 -0.6191
68.4903 180.205 158.111 -0.49871 0.606633 -0.6191
69.2691 181.228 158.486 -0.49871 0.606633 -0.6191
69.3483 180.224 157.438 -0.422431 0.743696 -0.518139
68.9113 180.008 157.485 -0.422431 0.743696 -0.518139
68.4903 180.205 158.111 -0.422431 0.743696 -0.518139
69.3483 180.224 157.438 -0.0502982 0.719137 -0.693045
70.3792 181.192 158.368 -0.0502982 0.719137 -0.693045
70.2625 180.192 157.339 -0.0502982 0.719137 -0.693045
69.2691 181.228 158.486 -0.0503175 0.719147 -0.693034
70.3792 181.192 158.368 -0.0503175 0.719147 -0.693034
69.3483 180.224 157.438 -0.0503175 0.719147 -0.693034
70.2625 180.192 157.339 0.172484 0.696607 -0.696411
70.3792 181.192 158.368 0.172484 0.696607 -0.696411
70.8243 180.89 158.176 0.172484 0.696607 -0.696411
70.8638 180.032 157.579 0.433193 0.527736 -0.730643
70.2625 180.192 157.339 0.433193 0.527736 -0.730643
70.8243 180.89 158.176 0.433193 0.527736 -0.730643
70.8638 180.032 157.579 0.544807 0.495334 -0.676631
70.8243 180.89 158.176 0.544807 0.495334 -0.676631
71.3675 180.573 158.381 0.544807 0.495334 -0.676631
70.8638 180.032 157.579 0.548653 0.491401 -0.676392
71.3675 180.573 158.381 0.548653 0.491401 -0.676392
71.4031 180.075 158.048 0.548653 0.491401 -0.676392
71.6718 180.039 158.54 0.833093 0.34735 -0.43047
71.4031 180.075 158.048 0.833093 0.34735 -0.43047
71.3675 180.573 158.381 0.833093 0.34735 -0.43047
69.006 178.375 158.184 -0.623777 -0.776309 0.0908101
69.5402 177.979 158.464 -0.623777 -0.776309 0.0908101
69.37 178.221 159.362 -0.623777 -0.776309 0.0908101
70.3349 177.958 158.324 -0.0281132 -0.999502 -0.0143633
70.2612 177.948 159.206 -0.0281132 -0.999502 -0.0143633
69.5402 177.979 158.464 -0.0281132 -0.999502 -0.0143633
69.5402 177.979 158.464 -0.253048 -0.945158 0.206501
70.2612 177.948 159.206 -0.253048 -0.945158 0.206501
69.37 178.221 159.362 -0.253048 -0.945158 0.206501
71.2284 178.023 158.396 0.0741507 -0.997019 -0.0213178
71.1957 178.004 159.191 0.0741507 -0.997019 -0.0213178
70.3349 177.958 158.324 0.0741507 -0.997019 -0.0213178
70.3349 177.958 158.324 0.0598006 -0.998186 -0.00700508
71.1957 178.004 159.191 0.0598006 -0.998186 -0.00700508
70.2612 177.948 159.206 0.0598006 -0.998186 -0.00700508
71.1957 178.004 159.191 0.499306 -0.866426 -0.000637376
71.2284 178.023 158.396 0.499306 -0.866426 -0.000637376
71.6127 178.245 158.564 0.499306 -0.866426 -0.000637376
71.6245 178.443 159.228 0.693186 -0.694022 0.194492
71.1957 178.004 159.191 0.693186 -0.694022 0.194492
71.6127 178.245 158.564 0.693186 -0.694022 0.194492
68.1609 179.41 158.46 -0.873599 -0.438014 0.212058
68.4551 178.875 158.567 -0.873599 -0.438014 0.212058
68.4172 179.356 159.404 -0.873599 -0.438014 0.212058
69.37 178.221 159.362 -0.632133 -0.769096 0.0943386
68.4551 178.875 158.567 -0.632133 -0.769096 0.0943386
69.006 178.375 158.184 -0.632133 -0.769096 0.0943386
68.4172 179.356 159.404 -0.719591 -0.615707 0.321082
68.4551 178.875 158.567 -0.719591 -0.615707 0.321082
69.37 178.221 159.362 -0.719591 -0.615707 0.321082
71.6127 178.245 158.564 0.991472 -0.128663 0.0207093
71.7122 179.002 158.504 0.991472 -0.128663 0.0207093
71.6245 178.443 159.228 0.991472 -0.128663 0.0207093
71.6245 178.443 159.228 0.99544 -0.0591947 0.0748054
71.7122 179.002 158.504 0.99544 -0.0591947 0.0748054
71.6797 179.372 159.229 0.99544 -0.0591947 0.0748054
68.1609 179.41 158.46 -0.954878 -0.160189 0.250097
68.4172 179.356 159.404 -0.954878 -0.160189 0.250097
68.0923 180.198 158.703 -0.954878 -0.160189 0.250097
68.4172 179.356 159.404 -0.936509 -0.350386 0.0133965
68.0953 180.212 159.286 -0.936509 -0.350386 0.0133965
68.0923 180.198 158.703 -0.936509 -0.350386 0.0133965
71.7122 179.002 158.504 0.998955 0.0380587 0.0253151
71.6718 180.039 158.54 0.998955 0.0380587 0.0253151
71.6797 179.372 159.229 0.998955 0.0380587 0.0253151
71.6797 179.372 159.229 0.997555 0.055615 0.0423244
71.6718 180.039 158.54 0.997555 0.055615 0.0423244
71.6268 180.286 159.275 0.997555 0.055615 0.0423244
68.2836 180.964 158.892 -0.786263 0.32617 -0.524789
68.4903 180.205 158.111 -0.786263 0.32617 -0.524789
68.0923 180.198 158.703 -0.786263 0.32617 -0.524789
68.2836 180.964 158.892 -0.905167 0.300404 -0.300715
68.0923 180.198 158.703 -0.905167 0.300404 -0.300715
68.1424 180.919 159.273 -0.905167 0.300404 -0.300715
68.1424 180.919 159.273 -0.997773 0.0666162 0.00343033
68.0923 180.198 158.703 -0.997773 0.0666162 0.00343033
68.0953 180.212 159.286 -0.997773 0.0666162 0.00343033
68.4903 180.205 158.111 -0.628185 0.468498 -0.621203
68.2836 180.964 158.892 -0.628185 0.468498 -0.621203
68.7155 181.095 158.554 -0.628185 0.468498 -0.621203
71.3675 180.573 158.381 0.567697 0.628273 -0.531971
70.8243 180.89 158.176 0.567697 0.628273 -0.531971
71.2416 181.128 158.903 0.567697 0.628273 -0.531971
71.3675 180.573 158.381 0.718653 0.55559 -0.41816
71.2416 181.128 158.903 0.718653 0.55559 -0.41816
71.5257 180.933 159.132 0.718653 0.55559 -0.41816
71.3675 180.573 158.381 0.852043 0.378699 -0.3614
71.5257 180.933 159.132 0.852043 0.378699 -0.3614
71.6718 180.039 158.54 0.852043 0.378699 -0.3614
71.6718 180.039 158.54 0.987701 0.15615 0.00799342
71.5257 180.933 159.132 0.987701 0.15615 0.00799342
71.6268 180.286 159.275 0.987701 0.15615 0.00799342
68.2836 180.964 158.892 -0.754305 0.623112 -0.206775
68.1424 180.919 159.273 -0.754305 0.623112 -0.206775
68.4952 181.303 159.143 -0.754305 0.623112 -0.206775
68.7155 181.095 158.554 -0.564744 0.688559 -0.454918
68.2836 180.964 158.892 -0.564744 0.688559 -0.454918
68.4952 181.303 159.143 -0.564744 0.688559 -0.454918
68.7155 181.095 158.554 -0.260716 0.875266 -0.407354
68.4952 181.303 159.143 -0.260716 0.875266 -0.407354
69.2691 181.228 158.486 -0.260716 0.875266 -0.407354
69.2691 181.228 158.486 -0.0652401 0.97974 -0.189351
68.4952 181.303 159.143 -0.0652401 0.97974 -0.189351
69.1954 181.377 159.283 -0.0652401 0.97974 -0.189351
70.3792 181.192 158.368 0.0120813 0.983038 -0.183001
69.2691 181.228 158.486 0.0120813 0.983038 -0.183001
70.1506 181.353 159.217 0.0120813 0.983038 -0.183001
69.2691 181.228 158.486 0.0119427 0.98307 -0.18284
69.1954 181.377 159.283 0.0119427 0.98307 -0.18284
70.1506 181.353 159.217 0.0119427 0.98307 -0.18284
71.2416 181.128 158.903 0.349961 0.811875 -0.467319
70.8243 180.89 158.176 0.349961 0.811875 -0.467319
70.3792 181.192 158.368 0.349961 0.811875 -0.467319
71.2416 181.128 158.903 0.22904 0.938848 -0.257108
70.3792 181.192 158.368 0.22904 0.938848 -0.257108
71.1269 181.25 159.243 0.22904 0.938848 -0.257108
71.1269 181.25 159.243 0.108369 0.981665 -0.156813
70.3792 181.192 158.368 0.108369 0.981665 -0.156813
70.1506 181.353 159.217 0.108369 0.981665 -0.156813
71.5257 180.933 159.132 0.606546 0.791276 -0.0773577
71.2416 181.128 158.903 0.606546 0.791276 -0.0773577
71.1269 181.25 159.243 0.606546 0.791276 -0.0773577
69.9619 178.24 160.148 -0.198922 -0.96459 0.173192
69.4864 178.278 159.815 -0.198922 -0.96459 0.173192
69.37 178.221 159.362 -0.198922 -0.96459 0.173192
69.9619 178.24 160.148 -0.217199 -0.958087 0.186798
69.37 178.221 159.362 -0.217199 -0.958087 0.186798
70.4381 178.108 160.026 -0.217199 -0.958087 0.186798
70.4381 178.108 160.026 -0.246182 -0.939913 0.236554
69.37 178.221 159.362 -0.246182 -0.939913 0.236554
70.2612 177.948 159.206 -0.246182 -0.939913 0.236554
71.2378 178.268 159.703 0.397122 -0.622042 0.674802
70.6461 178.476 160.243 0.397122 -0.622042 0.674802
70.4381 178.108 160.026 0.397122 -0.622042 0.674802
71.2378 178.268 159.703 0.335397 -0.848243 0.409869
70.4381 178.108 160.026 0.335397 -0.848243 0.409869
71.1957 178.004 159.191 0.335397 -0.848243 0.409869
71.1957 178.004 159.191 0.0618897 -0.982031 0.178283
70.4381 178.108 160.026 0.0618897 -0.982031 0.178283
70.2612 177.948 159.206 0.0618897 -0.982031 0.178283
71.1957 178.004 159.191 0.67045 -0.680459 0.295758
71.6245 178.443 159.228 0.67045 -0.680459 0.295758
71.2378 178.268 159.703 0.67045 -0.680459 0.295758
69.37 178.221 159.362 -0.68753 -0.592445 0.419895
69.402 178.72 160.12 -0.68753 -0.592445 0.419895
68.4172 179.356 159.404 -0.68753 -0.592445 0.419895
69.37 178.221 159.362 -0.892087 -0.358944 0.27448
69.4864 178.278 159.815 -0.892087 -0.358944 0.27448
69.402 178.72 160.12 -0.892087 -0.358944 0.27448
69.9619 178.24 160.148 -0.507524 -0.551854 0.661722
69.402 178.72 160.12 -0.507524 -0.551854 0.661722
69.4864 178.278 159.815 -0.507524 -0.551854 0.661722
71.3275 179.023 159.722 0.652102 -0.0969731 0.751904
70.6461 178.476 160.243 0.652102 -0.0969731 0.751904
71.2378 178.268 159.703 0.652102 -0.0969731 0.751904
70.6866 179.364 160.255 0.626373 -0.0395805 0.778518
70.6461 178.476 160.243 0.626373 -0.0395805 0.778518
71.3275 179.023 159.722 0.626373 -0.0395805 0.778518
71.6245 178.443 159.228 0.829095 -0.0496033 0.556903
71.6797 179.372 159.229 0.829095 -0.0496033 0.556903
71.3275 179.023 159.722 0.829095 -0.0496033 0.556903
71.2378 178.268 159.703 0.789767 -0.109474 0.603559
71.6245 178.443 159.228 0.789767 -0.109474 0.603559
71.3275 179.023 159.722 0.789767 -0.109474 0.603559
68.4172 179.356 159.404 -0.660631 -0.147263 0.736125
68.4757 180.374 159.66 -0.660631 -0.147263 0.736125
68.0953 180.212 159.286 -0.660631 -0.147263 0.736125
68.4757 180.374 159.66 -0.73571 -0.125205 0.665623
68.4172 179.356 159.404 -0.73571 -0.125205 0.665623
69.0199 180.001 160.192 -0.73571 -0.125205 0.665623
71.2688 180.101 159.675 0.659338 0.0687665 0.748695
70.6866 179.364 160.255 0.659338 0.0687665 0.748695
71.3275 179.023 159.722 0.659338 0.0687665 0.748695
70.5707 180.194 160.209 0.613187 0.129335 0.779278
70.6866 179.364 160.255 0.613187 0.129335 0.779278
71.2688 180.101 159.675 0.613187 0.129335 0.779278
71.6797 179.372 159.229 0.742623 0.00902216 0.669649
71.6268 180.286 159.275 0.742623 0.00902216 0.669649
71.2688 180.101 159.675 0.742623 0.00902216 0.669649
71.3275 179.023 159.722 0.787773 0.0697569 0.612003
71.6797 179.372 159.229 0.787773 0.0697569 0.612003
71.2688 180.101 159.675 0.787773 0.0697569 0.612003
68.4757 180.374 159.66 -0.589853 0.196174 0.783319
68.5078 181.128 159.495 -0.589853 0.196174 0.783319
68.1424 180.919 159.273 -0.589853 0.196174 0.783319
68.0953 180.212 159.286 -0.712611 0.0612052 0.698885
68.4757 180.374 159.66 -0.712611 0.0612052 0.698885
68.1424 180.919 159.273 -0.712611 0.0612052 0.698885
69.2901 180.394 160.208 -0.531742 0.33382 0.778341
68.4757 180.374 159.66 -0.531742 0.33382 0.778341
69.0199 180.001 160.192 -0.531742 0.33382 0.778341
69.2901 180.394 160.208 -0.452937 0.60925 0.650894
69.4017 181.023 159.697 -0.452937 0.60925 0.650894
68.4757 180.374 159.66 -0.452937 0.60925 0.650894
69.4017 181.023 159.697 -0.190121 0.217208 0.957431
68.5078 181.128 159.495 -0.190121 0.217208 0.957431
68.4757 180.374 159.66 -0.190121 0.217208 0.957431
69.4017 181.023 159.697 0.0451097 0.707624 0.705148
70.0891 180.428 160.25 0.0451097 0.707624 0.705148
70.5441 180.969 159.678 0.0451097 0.707624 0.705148
69.2901 180.394 160.208 -0.0674357 0.636373 0.768428
70.0891 180.428 160.25 -0.0674357 0.636373 0.768428
69.4017 181.023 159.697 -0.0674357 0.636373 0.768428
70.5707 180.194 160.209 0.328988 0.541228 0.773847
70.5441 180.969 159.678 0.328988 0.541228 0.773847
70.0891 180.428 160.25 0.328988 0.541228 0.773847
70.5707 180.194 160.209 0.573267 0.476265 0.666736
71.2688 180.101 159.675 0.573267 0.476265 0.666736
70.5441 180.969 159.678 0.573267 0.476265 0.666736
71.2688 180.101 159.675 0.271415 0.223033 0.936264
71.3562 180.944 159.449 0.271415 0.223033 0.936264
70.5441 180.969 159.678 0.271415 0.223033 0.936264
71.6268 180.286 159.275 0.860515 0.234889 0.452042
71.5257 180.933 159.132 0.860515 0.234889 0.452042
71.3562 180.944 159.449 0.860515 0.234889 0.452042
71.2688 180.101 159.675 0.71388 0.111435 0.691345
71.6268 180.286 159.275 0.71388 0.111435 0.691345
71.3562 180.944 159.449 0.71388 0.111435 0.691345
68.1424 180.919 159.273 -0.620296 0.693027 0.36735
68.5078 181.128 159.495 -0.620296 0.693027 0.36735
68.4952 181.303 159.143 -0.620296 0.693027 0.36735
69.1954 181.377 159.283 -0.18068 0.877792 0.443661
68.4952 181.303 159.143 -0.18068 0.877792 0.443661
68.5078 181.128 159.495 -0.18068 0.877792 0.443661
69.4017 181.023 159.697 -0.0628044 0.742575 0.666812
69.1954 181.377 159.283 -0.0628044 0.742575 0.666812
68.5078 181.128 159.495 -0.0628044 0.742575 0.666812
70.1506 181.353 159.217 0.0626505 0.773478 0.630719
69.1954 181.377 159.283 0.0626505 0.773478 0.630719
69.4017 181.023 159.697 0.0626505 0.773478 0.630719
70.5441 180.969 159.678 0.0474146 0.786438 0.615847
70.1506 181.353 159.217 0.0474146 0.786438 0.615847
69.4017 181.023 159.697 0.0474146 0.786438 0.615847
71.1269 181.25 159.243 0.0681245 0.793818 0.604328
70.1506 181.353 159.217 0.0681245 0.793818 0.604328
70.5441 180.969 159.678 0.0681245 0.793818 0.604328
71.3562 180.944 159.449 0.224183 0.653631 0.722848
71.1269 181.25 159.243 0.224183 0.653631 0.722848
70.5441 180.969 159.678 0.224183 0.653631 0.722848
71.5257 180.933 159.132 0.642475 0.696503 0.319546
71.1269 181.25 159.243 0.642475 0.696503 0.319546
71.3562 180.944 159.449 0.642475 0.696503 0.319546
70.4381 178.108 160.026 -0.0359253 -0.746875 0.663994
70.1701 178.445 160.39 -0.0359253 -0.746875 0.663994
69.9619 178.24 160.148 -0.0359253 -0.746875 0.663994
70.4381 178.108 160.026 0.272862 -0.598177 0.753479
70.6461 178.476 160.243 0.272862 -0.598177 0.753479
70.1701 178.445 160.39 0.272862 -0.598177 0.753479
69.402 178.72 160.12 -0.668223 -0.244322 0.702698
69.4695 179.309 160.388 -0.668223 -0.244322 0.702698
68.4172 179.356 159.404 -0.668223 -0.244322 0.702698
69.402 178.72 160.12 -0.437777 -0.46414 0.770017
69.9619 178.24 160.148 -0.437777 -0.46414 0.770017
70.1701 178.445 160.39 -0.437777 -0.46414 0.770017
69.402 178.72 160.12 -0.418175 -0.337278 0.843429
70.1701 178.445 160.39 -0.418175 -0.337278 0.843429
69.4695 179.309 160.388 -0.418175 -0.337278 0.843429
69.4695 179.309 160.388 -0.122608 -0.097307 0.987673
70.1701 178.445 160.39 -0.122608 -0.097307 0.987673
70.2977 179.094 160.47 -0.122608 -0.097307 0.987673
70.6461 178.476 160.243 0.501873 -0.0351367 0.864227
70.6866 179.364 160.255 0.501873 -0.0351367 0.864227
70.2977 179.094 160.47 0.501873 -0.0351367 0.864227
70.1701 178.445 160.39 0.302155 -0.174524 0.937146
70.6461 178.476 160.243 0.302155 -0.174524 0.937146
70.2977 179.094 160.47 0.302155 -0.174524 0.937146
69.4695 179.309 160.388 -0.448079 -0.0371646 0.893221
69.5168 180.093 160.445 -0.448079 -0.0371646 0.893221
69.0199 180.001 160.192 -0.448079 -0.0371646 0.893221
68.4172 179.356 159.404 -0.669635 -0.234573 0.704674
69.4695 179.309 160.388 -0.669635 -0.234573 0.704674
69.0199 180.001 160.192 -0.669635 -0.234573 0.704674
70.2977 179.094 160.47 -0.0944957 0.0141445 0.995425
70.2103 179.91 160.45 -0.0944957 0.0141445 0.995425
69.4695 179.309 160.388 -0.0944957 0.0141445 0.995425
70.2103 179.91 160.45 -0.0263841 -0.0700233 0.997196
69.5168 180.093 160.445 -0.0263841 -0.0700233 0.997196
69.4695 179.309 160.388 -0.0263841 -0.0700233 0.997196
70.6866 179.364 160.255 0.487654 0.116615 0.865213
70.5707 180.194 160.209 0.487654 0.116615 0.865213
70.2103 179.91 160.45 0.487654 0.116615 0.865213
70.2977 179.094 160.47 0.445006 0.069478 0.892828
70.6866 179.364 160.255 0.445006 0.069478 0.892828
70.2103 179.91 160.45 0.445006 0.069478 0.892828
69.0199 180.001 160.192 -0.476589 0.293812 0.828576
69.5168 180.093 160.445 -0.476589 0.293812 0.828576
69.2901 180.394 160.208 -0.476589 0.293812 0.828576
70.0891 180.428 160.25 -0.0673256 0.585937 0.807555
69.2901 180.394 160.208 -0.0673256 0.585937 0.807555
69.5168 180.093 160.445 -0.0673256 0.585937 0.807555
70.2103 179.91 160.45 0.0930309 0.377942 0.921143
70.0891 180.428 160.25 0.0930309 0.377942 0.921143
69.5168 180.093 160.445 0.0930309 0.377942 0.921143
70.5707 180.194 160.209 0.269637 0.401476 0.875279
70.0891 180.428 160.25 0.269637 0.401476 0.875279
70.2103 179.91 160.45 0.269637 0.401476 0.875279
3 0 1 2
3 3 4 5
3 6 7 8
3 9 10 11
3 12 13 14
3 15 16 17
3 18 19 20
3 21 22 23
3 24 25 26
3 27 28 29
3 30 31 32
3 33 34 35
3 36 37 38
3 39 40 41
3 42 43 44
3 45 46 47
3 48 49 50
3 51 52 53
3 54 55 56
3 57 58 59
3 60 61 62
3 63 64 65
3 66 67 68
3 69 70 71
3 72 73 74
3 75 76 77
3 78 79 80
3 81 82 83
3 84 85 86
3 87 88 89
3 90 91 92
3 93 94 95
3 96 97 98
3 99 100 101
3 102 103 104
3 105 106 107
3 108 109 110
3 111 112 113
3 114 115 116
3 117 118 119
3 120 121 122
3 123 124 125
3 126 127 128
3 129 130 131
3 132 133 134
3 135 136 137
3 138 139 140
3 141 142 143
3 144 145 146
3 147 148 149
3 150 151 152
3 153 154 155
3 156 157 158
3 159 160 161
3 162 163 164
3 165 166 167
3 168 169 170
3 171 172 173
3 174 175 176
3 177 178 179
3 180 181 182
3 183 184 185
3 186 187 188
3 189 190 191
3 192 193 194
3 195 196 197
3 198 199 200
3 201 202 203
3 204 205 206
3 207 208 209
3 210 211 212
3 213 214 215
3 216 217 218
3 219 220 221
3 222 223 224
3 225 226 227
3 228 229 230
3 231 232 233
3 234 235 236
3 237 238 239
3 240 241 242
3 243 244 245
3 246 247 248
3 249 250 251
3 252 253 254
3 255 256 257
3 258 259 260
3 261 262 263
3 264 265 266
3 267 268 269
3 270 271 272
3 273 274 275
3 276 277 278
3 279 280 281
3 282 283 284
3 285 286 287
3 288 289 290
3 291 292 293
3 294 295 296
3 297 298 299
3 300 301 302
3 303 304 305
3 306 307 308
3 309 310 311
3 312 313 314
3 315 316 317
3 318 319 320
3 321 322 323
3 324 325 326
3 327 328 329
3 330 331 332
3 333 334 335
3 336 337 338
3 339 340 341
3 342 343 344
3 345 346 347
3 348 349 350
3 351 352 353
3 354 355 356
3 357 358 359
3 360 361 362
3 363 364 365
3 366 367 368
3 369 370 371
3 372 373 374
3 375 376 377
3 378 379 380
3 381 382 383
3 384 385 386
3 387 388 389
3 390 391 392
3 393 394 395
3 396 397 398
3 399 400 401
3 402 403 404
3 405 406 407
3 408 409 410
3 411 412 413
3 414 415 416
3 417 418 419
3 420 421 422
3 423 424 425
