ply
format ascii 1.0
element vertex 804
property float x
property float y
property float z
property float nx
property float ny
property float nz
element face 268
property list uint uint vertex_indices
end_header
122.204 154.179 161.818 -0.0612087 -0.469971 -0.880557
122.205 153.307 162.283 -0.0612087 -0.469971 -0.880557
121.889 154.179 161.84 -0.0612087 -0.469971 -0.880557
120.121 155.258 161.502 -0.312388 -0.375871 -0.872431
119.895 155.044 161.675 -0.312388 -0.375871 -0.872431
119.75 155.276 161.627 -0.312388 -0.375871 -0.872431
120.121 155.258 161.502 0.00778714 -0.397887 -0.917401
120.736 155.277 161.499 0.00778714 -0.397887 -0.917401
120.681 154.962 161.635 0.00778714 -0.397887 -0.917401
119.895 155.044 161.675 -0.100504 -0.559433 -0.82276
120.121 155.258 161.502 -0.100504 -0.559433 -0.82276
120.681 154.962 161.635 -0.100504 -0.559433 -0.82276
121.889 154.179 161.84 -0.0665439 0.305227 -0.949952
121.905 155.058 162.121 -0.0665439 0.305227 -0.949952
122.204 154.179 161.818 -0.0665439 0.305227 -0.949952
120.681 154.962 161.635 0.171562 -0.415881 -0.89309
120.736 155.277 161.499 0.171562 -0.415881 -0.89309
121.121 155.076 161.667 0.171562 -0.415881 -0.89309
120.121 155.258 161.502 -0.282562 0.365301 -0.886969
119.75 155.276 161.627 -0.282562 0.365301 -0.886969
119.988 155.701 161.726 -0.282562 0.365301 -0.886969
120.736 155.277 161.499 -0.0176732 0.44821 -0.893753
120.121 155.258 161.502 -0.0176732 0.44821 -0.893753
119.988 155.701 161.726 -0.0176732 0.44821 -0.893753
120.978 155.412 161.69 0.175245 0.686919 -0.705288
120.736 155.277 161.499 0.175245 0.686919 -0.705288
119.988 155.701 161.726 0.175245 0.686919 -0.705288
121.121 155.076 161.667 0.499714 0.269629 -0.823156
120.736 155.277 161.499 0.499714 0.269629 -0.823156
120.978 155.412 161.69 0.499714 0.269629 -0.823156
123.075 152.496 162.479 -0.30299 -0.699444 -0.647283
123.137 152.301 162.661 -0.30299 -0.699444 -0.647283
122.864 152.465 162.611 -0.30299 -0.699444 -0.647283
123.137 152.301 162.661 0.869985 -0.160845 -0.466106
123.075 152.496 162.479 0.869985 -0.160845 -0.466106
123.222 152.517 162.745 0.869985 -0.160845 -0.466106
120.943 153.246 162.541 -0.117777 -0.667564 -0.735178
122.205 153.307 162.283 -0.117777 -0.667564 -0.735178
122.0 152.765 162.809 -0.117777 -0.667564 -0.735178
121.22 152.848 162.719 0.0675001 -0.367518 -0.927564
120.943 153.246 162.541 0.0675001 -0.367518 -0.927564
122.0 152.765 162.809 0.0675001 -0.367518 -0.927564
122.864 152.465 162.611 -0.366026 -0.572212 -0.733893
122.0 152.765 162.809 -0.366026 -0.572212 -0.733893
122.205 153.307 162.283 -0.366026 -0.572212 -0.733893
122.864 152.465 162.611 -0.371933 -0.574868 -0.72883
122.205 153.307 162.283 -0.371933 -0.574868 -0.72883
123.075 152.496 162.479 -0.371933 -0.574868 -0.72883
123.075 152.496 162.479 0.11832 -0.111236 -0.986725
122.205 153.307 162.283 0.11832 -0.111236 -0.986725
123.066 153.286 162.389 0.11832 -0.111236 -0.986725
123.284 153.086 162.628 0.8665 -0.189285 -0.461898
123.222 152.517 162.745 0.8665 -0.189285 -0.461898
123.075 152.496 162.479 0.8665 -0.189285 -0.461898
123.066 153.286 162.389 0.707589 -0.0722906 -0.702916
123.284 153.086 162.628 0.707589 -0.0722906 -0.702916
123.075 152.496 162.479 0.707589 -0.0722906 -0.702916
118.085 154.358 162.491 -0.522888 -0.564913 -0.638327
117.913 154.181 162.787 -0.522888 -0.564913 -0.638327
117.771 154.442 162.674 -0.522888 -0.564913 -0.638327
118.085 154.358 162.491 -0.17547 -0.679061 -0.712802
118.959 154.238 162.39 -0.17547 -0.679061 -0.712802
118.668 153.906 162.778 -0.17547 -0.679061 -0.712802
117.913 154.181 162.787 -0.279824 -0.745315 -0.605148
118.085 154.358 162.491 -0.279824 -0.745315 -0.605148
118.668 153.906 162.778 -0.279824 -0.745315 -0.605148
118.959 154.238 162.39 -0.125333 -0.595088 -0.793827
119.991 154.301 162.18 -0.125333 -0.595088 -0.793827
119.707 153.737 162.648 -0.125333 -0.595088 -0.793827
118.668 153.906 162.778 -0.198556 -0.666058 -0.718987
118.959 154.238 162.39 -0.198556 -0.666058 -0.718987
119.707 153.737 162.648 -0.198556 -0.666058 -0.718987
120.943 153.246 162.541 -0.278382 -0.52621 -0.803497
119.707 153.737 162.648 -0.278382 -0.52621 -0.803497
119.991 154.301 162.18 -0.278382 -0.52621 -0.803497
120.943 153.246 162.541 -0.083825 -0.389665 -0.917134
119.991 154.301 162.18 -0.083825 -0.389665 -0.917134
121.171 154.253 162.092 -0.083825 -0.389665 -0.917134
122.205 153.307 162.283 -0.330476 -0.520387 -0.78739
121.171 154.253 162.092 -0.330476 -0.520387 -0.78739
121.889 154.179 161.84 -0.330476 -0.520387 -0.78739
122.205 153.307 162.283 -0.168714 -0.369071 -0.91396
120.943 153.246 162.541 -0.168714 -0.369071 -0.91396
121.171 154.253 162.092 -0.168714 -0.369071 -0.91396
122.204 154.179 161.818 0.577574 -0.383402 -0.720702
122.869 154.257 162.309 0.577574 -0.383402 -0.720702
122.205 153.307 162.283 0.577574 -0.383402 -0.720702
122.869 154.257 162.309 0.120174 -0.0566336 -0.991136
123.066 153.286 162.389 0.120174 -0.0566336 -0.991136
122.205 153.307 162.283 0.120174 -0.0566336 -0.991136
123.244 153.941 162.614 0.750273 0.0245551 -0.660672
123.284 153.086 162.628 0.750273 0.0245551 -0.660672
123.066 153.286 162.389 0.750273 0.0245551 -0.660672
122.869 154.257 162.309 0.666748 0.0750363 -0.741496
123.244 153.941 162.614 0.666748 0.0750363 -0.741496
123.066 153.286 162.389 0.666748 0.0750363 -0.741496
117.908 154.97 162.485 -0.528161 -0.16081 -0.833778
118.085 154.358 162.491 -0.528161 -0.16081 -0.833778
117.771 154.442 162.674 -0.528161 -0.16081 -0.833778
117.748 155.067 162.815 -0.889112 0.0693812 -0.4524
117.908 154.97 162.485 -0.889112 0.0693812 -0.4524
117.771 154.442 162.674 -0.889112 0.0693812 -0.4524
118.959 154.238 162.39 -0.141664 -0.221309 -0.964859
118.085 154.358 162.491 -0.141664 -0.221309 -0.964859
118.933 155.066 162.204 -0.141664 -0.221309 -0.964859
118.933 155.066 162.204 -0.255853 -0.0837518 -0.963081
118.085 154.358 162.491 -0.255853 -0.0837518 -0.963081
117.908 154.97 162.485 -0.255853 -0.0837518 -0.963081
119.895 155.044 161.675 -0.441109 -0.437577 -0.783549
118.933 155.066 162.204 -0.441109 -0.437577 -0.783549
119.75 155.276 161.627 -0.441109 -0.437577 -0.783549
119.895 155.044 161.675 -0.41285 -0.547797 -0.727649
119.991 154.301 162.18 -0.41285 -0.547797 -0.727649
118.933 155.066 162.204 -0.41285 -0.547797 -0.727649
119.991 154.301 162.18 -0.18197 -0.221031 -0.95814
118.959 154.238 162.39 -0.18197 -0.221031 -0.95814
118.933 155.066 162.204 -0.18197 -0.221031 -0.95814
120.681 154.962 161.635 -0.101096 -0.567941 -0.816837
119.991 154.301 162.18 -0.101096 -0.567941 -0.816837
119.895 155.044 161.675 -0.101096 -0.567941 -0.816837
121.171 154.253 162.092 -0.0836633 -0.580483 -0.809963
119.991 154.301 162.18 -0.0836633 -0.580483 -0.809963
120.681 154.962 161.635 -0.0836633 -0.580483 -0.809963
121.121 155.076 161.667 0.177744 -0.443782 -0.878331
121.171 154.253 162.092 0.177744 -0.443782 -0.878331
120.681 154.962 161.635 0.177744 -0.443782 -0.878331
121.121 155.076 161.667 0.456021 -0.387031 -0.801406
121.905 155.058 162.121 0.456021 -0.387031 -0.801406
121.171 154.253 162.092 0.456021 -0.387031 -0.801406
121.889 154.179 161.84 -0.289195 0.296536 -0.910183
121.171 154.253 162.092 -0.289195 0.296536 -0.910183
121.905 155.058 162.121 -0.289195 0.296536 -0.910183
121.905 155.058 162.121 0.5036 0.429997 -0.749326
122.869 154.257 162.309 0.5036 0.429997 -0.749326
122.204 154.179 161.818 0.5036 0.429997 -0.749326
121.905 155.058 162.121 0.317833 0.162999 -0.934031
122.706 155.289 162.434 0.317833 0.162999 -0.934031
122.869 154.257 162.309 0.317833 0.162999 -0.934031
122.939 155.085 162.808 0.741385 0.299014 -0.600781
123.244 153.941 162.614 0.741385 0.299014 -0.600781
122.869 154.257 162.309 0.741385 0.299014 -0.600781
122.706 155.289 162.434 0.876401 0.191722 -0.441773
122.939 155.085 162.808 0.876401 0.191722 -0.441773
122.869 154.257 162.309 0.876401 0.191722 -0.441773
117.908 154.97 162.485 -0.720752 0.486714 -0.493584
117.748 155.067 162.815 -0.720752 0.486714 -0.493584
118.042 155.294 162.609 -0.720752 0.486714 -0.493584
118.933 155.066 162.204 -0.2751 0.441491 -0.854053
117.908 154.97 162.485 -0.2751 0.441491 -0.854053
118.042 155.294 162.609 -0.2751 0.441491 -0.854053
118.998 155.645 162.671 -0.182497 0.628731 -0.755905
118.933 155.066 162.204 -0.182497 0.628731 -0.755905
118.042 155.294 162.609 -0.182497 0.628731 -0.755905
119.952 156.086 162.055 -0.411995 0.911093 0.0130124
118.998 155.645 162.671 -0.411995 0.911093 0.0130124
119.991 156.093 162.754 -0.411995 0.911093 0.0130124
119.988 155.701 161.726 -0.621216 0.474655 -0.623532
118.998 155.645 162.671 -0.621216 0.474655 -0.623532
119.952 156.086 162.055 -0.621216 0.474655 -0.623532
119.988 155.701 161.726 -0.595329 0.542882 -0.592336
118.933 155.066 162.204 -0.595329 0.542882 -0.592336
118.998 155.645 162.671 -0.595329 0.542882 -0.592336
119.988 155.701 161.726 -0.585176 0.479989 -0.653589
119.75 155.276 161.627 -0.585176 0.479989 -0.653589
118.933 155.066 162.204 -0.585176 0.479989 -0.653589
119.988 155.701 161.726 0.168097 0.665277 -0.727427
120.919 156.011 162.225 0.168097 0.665277 -0.727427
120.978 155.412 161.69 0.168097 0.665277 -0.727427
119.952 156.086 162.055 0.179821 0.649016 -0.739217
120.919 156.011 162.225 0.179821 0.649016 -0.739217
119.988 155.701 161.726 0.179821 0.649016 -0.739217
120.978 155.412 161.69 0.488038 0.265263 -0.831537
121.905 155.058 162.121 0.488038 0.265263 -0.831537
121.121 155.076 161.667 0.488038 0.265263 -0.831537
120.978 155.412 161.69 0.514118 0.598417 -0.614475
120.919 156.011 162.225 0.514118 0.598417 -0.614475
121.905 155.058 162.121 0.514118 0.598417 -0.614475
120.919 156.011 162.225 0.212775 0.320469 -0.923053
121.907 155.954 162.433 0.212775 0.320469 -0.923053
121.905 155.058 162.121 0.212775 0.320469 -0.923053
122.037 156.047 162.727 0.730184 0.677954 -0.0849118
122.939 155.085 162.808 0.730184 0.677954 -0.0849118
122.706 155.289 162.434 0.730184 0.677954 -0.0849118
122.037 156.047 162.727 0.566861 0.680429 -0.464419
122.706 155.289 162.434 0.566861 0.680429 -0.464419
121.907 155.954 162.433 0.566861 0.680429 -0.464419
121.907 155.954 162.433 0.264724 0.316151 -0.911027
122.706 155.289 162.434 0.264724 0.316151 -0.911027
121.905 155.058 162.121 0.264724 0.316151 -0.911027
119.952 156.086 162.055 -0.431038 0.902223 0.0141754
119.991 156.093 162.754 -0.431038 0.902223 0.0141754
120.327 156.258 162.525 -0.431038 0.902223 0.0141754
120.919 156.011 162.225 0.1455 0.88628 -0.439701
119.952 156.086 162.055 0.1455 0.88628 -0.439701
120.327 156.258 162.525 0.1455 0.88628 -0.439701
121.148 156.236 162.588 0.0642362 0.830144 -0.553837
120.919 156.011 162.225 0.0642362 0.830144 -0.553837
120.327 156.258 162.525 0.0642362 0.830144 -0.553837
121.907 155.954 162.433 0.17076 0.786268 -0.593821
120.919 156.011 162.225 0.17076 0.786268 -0.593821
121.148 156.236 162.588 0.17076 0.786268 -0.593821
122.037 156.047 162.727 0.249751 0.886313 -0.389966
121.907 155.954 162.433 0.249751 0.886313 -0.389966
121.148 156.236 162.588 0.249751 0.886313 -0.389966
121.07 152.425 163.287 -0.0786051 -0.886757 -0.455504
121.138 152.125 163.861 -0.0786051 -0.886757 -0.455504
120.565 152.286 163.646 -0.0786051 -0.886757 -0.455504
121.07 152.425 163.287 0.00278764 -0.818346 -0.574718
122.0 152.765 162.809 0.00278764 -0.818346 -0.574718
121.843 152.221 163.583 0.00278764 -0.818346 -0.574718
121.138 152.125 163.861 -0.0600133 -0.887015 -0.457824
121.07 152.425 163.287 -0.0600133 -0.887015 -0.457824
121.843 152.221 163.583 -0.0600133 -0.887015 -0.457824
122.316 152.407 163.753 0.463514 -0.766259 -0.444974
121.843 152.221 163.583 0.463514 -0.766259 -0.444974
122.0 152.765 162.809 0.463514 -0.766259 -0.444974
119.143 153.206 163.344 -0.599491 -0.73387 -0.319445
119.077 153.03 163.874 -0.599491 -0.73387 -0.319445
118.713 153.425 163.648 -0.599491 -0.73387 -0.319445
119.143 153.206 163.344 -0.239232 -0.673319 -0.699578
120.095 152.954 163.261 -0.239232 -0.673319 -0.699578
119.872 152.55 163.727 -0.239232 -0.673319 -0.699578
119.077 153.03 163.874 -0.532253 -0.781008 -0.3267
119.143 153.206 163.344 -0.532253 -0.781008 -0.3267
119.872 152.55 163.727 -0.532253 -0.781008 -0.3267
120.565 152.286 163.646 -0.322676 -0.632487 -0.70416
119.872 152.55 163.727 -0.322676 -0.632487 -0.70416
120.095 152.954 163.261 -0.322676 -0.632487 -0.70416
121.07 152.425 163.287 -0.324496 -0.633013 -0.702849
120.565 152.286 163.646 -0.324496 -0.633013 -0.702849
120.095 152.954 163.261 -0.324496 -0.633013 -0.702849
121.07 152.425 163.287 -0.340577 -0.660966 -0.668679
120.095 152.954 163.261 -0.340577 -0.660966 -0.668679
120.943 153.246 162.541 -0.340577 -0.660966 -0.668679
121.07 152.425 163.287 -0.509078 -0.620978 -0.596009
120.943 153.246 162.541 -0.509078 -0.620978 -0.596009
121.22 152.848 162.719 -0.509078 -0.620978 -0.596009
122.0 152.765 162.809 -0.0166773 -0.800123 -0.599605
121.07 152.425 163.287 -0.0166773 -0.800123 -0.599605
121.22 152.848 162.719 -0.0166773 -0.800123 -0.599605
122.0 152.765 162.809 0.194567 -0.894073 -0.403456
122.981 152.784 163.238 0.194567 -0.894073 -0.403456
122.316 152.407 163.753 0.194567 -0.894073 -0.403456
123.137 152.301 162.661 -0.519223 -0.719335 0.46148
122.981 152.784 163.238 -0.519223 -0.719335 0.46148
122.864 152.465 162.611 -0.519223 -0.719335 0.46148
122.864 152.465 162.611 -0.189782 -0.860806 0.472224
122.981 152.784 163.238 -0.189782 -0.860806 0.472224
122.0 152.765 162.809 -0.189782 -0.860806 0.472224
122.981 152.784 163.238 0.653525 -0.484495 0.581524
123.137 152.301 162.661 0.653525 -0.484495 0.581524
123.222 152.517 162.745 0.653525 -0.484495 0.581524
122.981 152.784 163.238 0.723183 -0.394509 0.566895
123.222 152.517 162.745 0.723183 -0.394509 0.566895
123.213 153.501 163.441 0.723183 -0.394509 0.566895
123.213 153.501 163.441 0.988517 -0.0811351 0.127482
123.222 152.517 162.745 0.988517 -0.0811351 0.127482
123.284 153.086 162.628 0.988517 -0.0811351 0.127482
117.913 154.181 162.787 -0.918209 -0.340881 0.201723
118.11 154.038 163.439 -0.918209 -0.340881 0.201723
117.959 154.505 163.541 -0.918209 -0.340881 0.201723
117.771 154.442 162.674 -0.893128 -0.391296 0.221832
117.913 154.181 162.787 -0.893128 -0.391296 0.221832
117.959 154.505 163.541 -0.893128 -0.391296 0.221832
118.713 153.425 163.648 -0.611993 -0.705362 -0.357673
118.668 153.906 162.778 -0.611993 -0.705362 -0.357673
119.143 153.206 163.344 -0.611993 -0.705362 -0.357673
118.713 153.425 163.648 -0.598983 -0.71376 -0.362996
118.11 154.038 163.439 -0.598983 -0.71376 -0.362996
118.668 153.906 162.778 -0.598983 -0.71376 -0.362996
118.11 154.038 163.439 -0.342591 -0.933918 -0.102117
117.913 154.181 162.787 -0.342591 -0.933918 -0.102117
118.668 153.906 162.778 -0.342591 -0.933918 -0.102117
119.707 153.737 162.648 -0.199703 -0.694722 -0.690999
119.143 153.206 163.344 -0.199703 -0.694722 -0.690999
118.668 153.906 162.778 -0.199703 -0.694722 -0.690999
120.095 152.954 163.261 -0.238578 -0.669611 -0.703351
119.143 153.206 163.344 -0.238578 -0.669611 -0.703351
119.707 153.737 162.648 -0.238578 -0.669611 -0.703351
120.943 153.246 162.541 -0.326209 -0.678034 -0.658679
120.095 152.954 163.261 -0.326209 -0.678034 -0.658679
119.707 153.737 162.648 -0.326209 -0.678034 -0.658679
123.284 153.086 162.628 0.996905 0.047624 0.06255
123.244 153.941 162.614 0.996905 0.047624 0.06255
123.213 153.501 163.441 0.996905 0.047624 0.06255
117.771 154.442 162.674 -0.972472 -0.0852645 0.216858
117.959 154.505 163.541 -0.972472 -0.0852645 0.216858
117.748 155.067 162.815 -0.972472 -0.0852645 0.216858
117.959 154.505 163.541 -0.961646 -0.26376 0.0752897
117.77 155.153 163.394 -0.961646 -0.26376 0.0752897
117.748 155.067 162.815 -0.961646 -0.26376 0.0752897
123.244 153.941 162.614 0.96058 0.228951 0.157697
122.939 155.085 162.808 0.96058 0.228951 0.157697
123.213 153.501 163.441 0.96058 0.228951 0.157697
123.213 153.501 163.441 0.98447 0.1751 0.0125807
122.939 155.085 162.808 0.98447 0.1751 0.0125807
122.948 154.959 163.853 0.98447 0.1751 0.0125807
117.748 155.067 162.815 -0.89817 0.438555 -0.0309687
117.77 155.153 163.394 -0.89817 0.438555 -0.0309687
117.999 155.614 163.281 -0.89817 0.438555 -0.0309687
118.042 155.294 162.609 -0.71165 0.61543 -0.338821
117.748 155.067 162.815 -0.71165 0.61543 -0.338821
117.999 155.614 163.281 -0.71165 0.61543 -0.338821
118.655 156.042 163.399 -0.350724 0.706775 -0.614378
117.999 155.614 163.281 -0.350724 0.706775 -0.614378
118.37 156.012 163.528 -0.350724 0.706775 -0.614378
118.655 156.042 163.399 -0.373099 0.729753 -0.572937
118.998 155.645 162.671 -0.373099 0.729753 -0.572937
117.999 155.614 163.281 -0.373099 0.729753 -0.572937
118.998 155.645 162.671 -0.287669 0.857428 -0.426689
118.042 155.294 162.609 -0.287669 0.857428 -0.426689
117.999 155.614 163.281 -0.287669 0.857428 -0.426689
118.995 155.919 163.627 0.468673 0.849707 -0.241545
118.998 155.645 162.671 0.468673 0.849707 -0.241545
118.655 156.042 163.399 0.468673 0.849707 -0.241545
118.995 155.919 163.627 0.255493 0.929743 -0.265142
119.913 155.65 163.569 0.255493 0.929743 -0.265142
118.998 155.645 162.671 0.255493 0.929743 -0.265142
119.991 156.093 162.754 -0.403888 0.819373 0.406819
118.998 155.645 162.671 -0.403888 0.819373 0.406819
119.913 155.65 163.569 -0.403888 0.819373 0.406819
119.913 155.65 163.569 -0.383362 0.826325 0.412577
120.72 156.042 163.534 -0.383362 0.826325 0.412577
119.991 156.093 162.754 -0.383362 0.826325 0.412577
122.198 155.998 163.131 0.507528 0.756182 0.413043
121.753 156.166 163.369 0.507528 0.756182 0.413043
122.075 155.811 163.625 0.507528 0.756182 0.413043
122.198 155.998 163.131 0.72191 0.659762 -0.208712
122.939 155.085 162.808 0.72191 0.659762 -0.208712
122.037 156.047 162.727 0.72191 0.659762 -0.208712
122.198 155.998 163.131 0.778825 0.497183 0.382415
122.075 155.811 163.625 0.778825 0.497183 0.382415
122.939 155.085 162.808 0.778825 0.497183 0.382415
122.075 155.811 163.625 0.684831 0.72417 0.0811405
122.948 154.959 163.853 0.684831 0.72417 0.0811405
122.939 155.085 162.808 0.684831 0.72417 0.0811405
118.655 156.042 163.399 -0.300701 0.825789 -0.477128
118.37 156.012 163.528 -0.300701 0.825789 -0.477128
118.718 156.151 163.548 -0.300701 0.825789 -0.477128
118.655 156.042 163.399 0.599313 0.504329 -0.621671
118.718 156.151 163.548 0.599313 0.504329 -0.621671
118.995 155.919 163.627 0.599313 0.504329 -0.621671
119.991 156.093 162.754 -0.268897 0.911546 0.311092
120.72 156.042 163.534 -0.268897 0.911546 0.311092
120.998 156.239 163.199 -0.268897 0.911546 0.311092
119.991 156.093 162.754 -0.258253 0.923699 0.282995
120.998 156.239 163.199 -0.258253 0.923699 0.282995
120.327 156.258 162.525 -0.258253 0.923699 0.282995
120.327 156.258 162.525 0.0263498 0.999651 0.00162267
120.998 156.239 163.199 0.0263498 0.999651 0.00162267
121.148 156.236 162.588 0.0263498 0.999651 0.00162267
121.753 156.166 163.369 0.342752 0.939132 -0.0235135
122.198 155.998 163.131 0.342752 0.939132 -0.0235135
122.037 156.047 162.727 0.342752 0.939132 -0.0235135
121.753 156.166 163.369 0.123638 0.983964 -0.128564
122.037 156.047 162.727 0.123638 0.983964 -0.128564
120.998 156.239 163.199 0.123638 0.983964 -0.128564
120.998 156.239 163.199 0.201338 0.978494 0.044854
122.037 156.047 162.727 0.201338 0.978494 0.044854
121.148 156.236 162.588 0.201338 0.978494 0.044854
121.138 152.125 163.861 -0.264713 -0.960475 -0.0861117
121.01 152.072 164.842 -0.264713 -0.960475 -0.0861117
120.59 152.228 164.388 -0.264713 -0.960475 -0.0861117
120.565 152.286 163.646 -0.2473 -0.966634 -0.066798
121.138 152.125 163.861 -0.2473 -0.966634 -0.066798
120.59 152.228 164.388 -0.2473 -0.966634 -0.066798
121.843 152.221 163.583 0.0741818 -0.985636 -0.151719
122.002 152.087 164.525 0.0741818 -0.985636 -0.151719
121.138 152.125 163.861 0.0741818 -0.985636 -0.151719
121.138 152.125 163.861 -0.00144731 -0.998544 -0.053926
122.002 152.087 164.525 -0.00144731 -0.998544 -0.053926
121.01 152.072 164.842 -0.00144731 -0.998544 -0.053926
122.002 152.087 164.525 0.420835 -0.885698 -0.196053
121.843 152.221 163.583 0.420835 -0.885698 -0.196053
122.316 152.407 163.753 0.420835 -0.885698 -0.196053
122.42 152.252 164.697 0.427615 -0.883271 -0.192297
122.002 152.087 164.525 0.427615 -0.883271 -0.192297
122.316 152.407 163.753 0.427615 -0.883271 -0.192297
119.077 153.03 163.874 -0.864252 -0.487608 0.123719
119.223 152.977 164.688 -0.864252 -0.487608 0.123719
118.983 153.38 164.598 -0.864252 -0.487608 0.123719
118.713 153.425 163.648 -0.774785 -0.602685 0.190995
119.077 153.03 163.874 -0.774785 -0.602685 0.190995
118.983 153.38 164.598 -0.774785 -0.602685 0.190995
119.872 152.55 163.727 -0.486528 -0.857291 0.168352
119.785 152.742 164.454 -0.486528 -0.857291 0.168352
119.077 153.03 163.874 -0.486528 -0.857291 0.168352
119.077 153.03 163.874 -0.38329 -0.923581 0.00927213
119.785 152.742 164.454 -0.38329 -0.923581 0.00927213
119.223 152.977 164.688 -0.38329 -0.923581 0.00927213
120.59 152.228 164.388 -0.36109 -0.930581 -0.0602739
119.872 152.55 163.727 -0.36109 -0.930581 -0.0602739
120.565 152.286 163.646 -0.36109 -0.930581 -0.0602739
119.785 152.742 164.454 -0.521772 -0.838121 0.159085
119.872 152.55 163.727 -0.521772 -0.838121 0.159085
120.59 152.228 164.388 -0.521772 -0.838121 0.159085
122.975 153.087 163.807 0.655121 -0.66415 0.360169
122.316 152.407 163.753 0.655121 -0.66415 0.360169
122.981 152.784 163.238 0.655121 -0.66415 0.360169
122.975 153.087 163.807 0.700557 -0.693148 0.169604
122.636 152.932 164.574 0.700557 -0.693148 0.169604
122.316 152.407 163.753 0.700557 -0.693148 0.169604
122.636 152.932 164.574 0.932883 -0.324256 -0.156805
122.42 152.252 164.697 0.932883 -0.324256 -0.156805
122.316 152.407 163.753 0.932883 -0.324256 -0.156805
122.981 152.784 163.238 0.915185 -0.35192 0.196441
123.213 153.501 163.441 0.915185 -0.35192 0.196441
122.975 153.087 163.807 0.915185 -0.35192 0.196441
118.11 154.038 163.439 -0.791962 -0.363516 0.490563
118.615 154.062 164.272 -0.791962 -0.363516 0.490563
117.959 154.505 163.541 -0.791962 -0.363516 0.490563
118.11 154.038 163.439 -0.709204 -0.546388 0.445521
118.713 153.425 163.648 -0.709204 -0.546388 0.445521
118.615 154.062 164.272 -0.709204 -0.546388 0.445521
118.713 153.425 163.648 -0.897874 -0.371097 0.236872
118.983 153.38 164.598 -0.897874 -0.371097 0.236872
118.615 154.062 164.272 -0.897874 -0.371097 0.236872
122.975 153.087 163.807 0.828617 -0.492013 0.267051
123.097 153.631 164.43 0.828617 -0.492013 0.267051
122.636 152.932 164.574 0.828617 -0.492013 0.267051
123.097 153.631 164.43 0.909936 -0.383968 0.156797
122.975 153.087 163.807 0.909936 -0.383968 0.156797
123.213 153.501 163.441 0.909936 -0.383968 0.156797
123.097 153.631 164.43 0.943406 -0.296212 0.149141
123.213 153.501 163.441 0.943406 -0.296212 0.149141
123.188 154.028 164.643 0.943406 -0.296212 0.149141
117.959 154.505 163.541 -0.654169 -0.0193704 0.756101
118.025 155.355 163.619 -0.654169 -0.0193704 0.756101
117.77 155.153 163.394 -0.654169 -0.0193704 0.756101
118.913 154.684 164.651 -0.754901 -0.0377895 0.654749
117.959 154.505 163.541 -0.754901 -0.0377895 0.654749
118.615 154.062 164.272 -0.754901 -0.0377895 0.654749
118.913 154.684 164.651 -0.752376 0.262345 0.604239
118.771 155.255 164.226 -0.752376 0.262345 0.604239
117.959 154.505 163.541 -0.752376 0.262345 0.604239
118.771 155.255 164.226 -0.632431 -0.022722 0.774283
118.025 155.355 163.619 -0.632431 -0.022722 0.774283
117.959 154.505 163.541 -0.632431 -0.022722 0.774283
118.913 154.684 164.651 -0.611922 0.36831 0.699928
119.206 155.039 164.72 -0.611922 0.36831 0.699928
118.771 155.255 164.226 -0.611922 0.36831 0.699928
122.948 154.959 163.853 0.76353 0.634435 0.120471
122.714 155.098 164.604 0.76353 0.634435 0.120471
123.012 154.72 164.712 0.76353 0.634435 0.120471
122.948 154.959 163.853 0.968735 0.248086 -0.00237754
123.012 154.72 164.712 0.968735 0.248086 -0.00237754
123.188 154.028 164.643 0.968735 0.248086 -0.00237754
122.948 154.959 163.853 0.978306 0.196263 -0.0663173
123.188 154.028 164.643 0.978306 0.196263 -0.0663173
123.213 153.501 163.441 0.978306 0.196263 -0.0663173
117.77 155.153 163.394 -0.763372 0.483494 0.428365
118.025 155.355 163.619 -0.763372 0.483494 0.428365
117.999 155.614 163.281 -0.763372 0.483494 0.428365
118.37 156.012 163.528 -0.779087 0.467696 0.417472
117.999 155.614 163.281 -0.779087 0.467696 0.417472
118.025 155.355 163.619 -0.779087 0.467696 0.417472
118.37 156.012 163.528 -0.377925 0.31994 0.868799
118.025 155.355 163.619 -0.377925 0.31994 0.868799
118.639 155.953 163.667 -0.377925 0.31994 0.868799
118.639 155.953 163.667 -0.516135 0.474361 0.713153
118.025 155.355 163.619 -0.516135 0.474361 0.713153
118.771 155.255 164.226 -0.516135 0.474361 0.713153
118.995 155.919 163.627 0.284861 0.906525 0.311556
119.921 155.279 164.641 0.284861 0.906525 0.311556
119.913 155.65 163.569 0.284861 0.906525 0.311556
118.995 155.919 163.627 -0.256837 0.69413 0.672472
118.771 155.255 164.226 -0.256837 0.69413 0.672472
119.921 155.279 164.641 -0.256837 0.69413 0.672472
118.995 155.919 163.627 0.144818 0.636177 0.75783
118.639 155.953 163.667 0.144818 0.636177 0.75783
118.771 155.255 164.226 0.144818 0.636177 0.75783
119.206 155.039 164.72 -0.212562 0.812516 0.542803
119.921 155.279 164.641 -0.212562 0.812516 0.542803
118.771 155.255 164.226 -0.212562 0.812516 0.542803
120.72 156.042 163.534 -0.203429 0.797594 0.567855
121.069 155.504 164.415 -0.203429 0.797594 0.567855
121.215 156.088 163.647 -0.203429 0.797594 0.567855
120.72 156.042 163.534 -0.333903 0.739758 0.58418
119.913 155.65 163.569 -0.333903 0.739758 0.58418
121.069 155.504 164.415 -0.333903 0.739758 0.58418
119.913 155.65 163.569 -0.119809 0.937892 0.325583
119.921 155.279 164.641 -0.119809 0.937892 0.325583
121.069 155.504 164.415 -0.119809 0.937892 0.325583
121.215 156.088 163.647 0.244185 0.70213 0.66887
122.075 155.811 163.625 0.244185 0.70213 0.66887
121.753 156.166 163.369 0.244185 0.70213 0.66887
121.215 156.088 163.647 0.256684 0.745193 0.615468
121.069 155.504 164.415 0.256684 0.745193 0.615468
122.075 155.811 163.625 0.256684 0.745193 0.615468
121.069 155.504 164.415 0.0984724 0.879264 0.466046
122.161 155.299 164.572 0.0984724 0.879264 0.466046
122.075 155.811 163.625 0.0984724 0.879264 0.466046
122.714 155.098 164.604 0.343928 0.936644 -0.0664172
122.948 154.959 163.853 0.343928 0.936644 -0.0664172
122.161 155.299 164.572 0.343928 0.936644 -0.0664172
122.161 155.299 164.572 0.612788 0.717344 0.331524
122.948 154.959 163.853 0.612788 0.717344 0.331524
122.075 155.811 163.625 0.612788 0.717344 0.331524
118.37 156.012 163.528 -0.273048 0.571035 0.774186
118.639 155.953 163.667 -0.273048 0.571035 0.774186
118.718 156.151 163.548 -0.273048 0.571035 0.774186
118.995 155.919 163.627 0.14167 0.46495 0.873929
118.718 156.151 163.548 0.14167 0.46495 0.873929
118.639 155.953 163.667 0.14167 0.46495 0.873929
120.72 156.042 163.534 -0.172163 0.905633 0.387542
121.215 156.088 163.647 -0.172163 0.905633 0.387542
120.998 156.239 163.199 -0.172163 0.905633 0.387542
121.753 156.166 163.369 0.02189 0.950897 0.308732
120.998 156.239 163.199 0.02189 0.950897 0.308732
121.215 156.088 163.647 0.02189 0.950897 0.308732
119.991 152.346 165.238 -0.588713 -0.807152 -0.0438499
120.263 152.127 165.629 -0.588713 -0.807152 -0.0438499
119.909 152.379 165.73 -0.588713 -0.807152 -0.0438499
119.991 152.346 165.238 -0.283837 -0.956525 -0.0670508
120.59 152.228 164.388 -0.283837 -0.956525 -0.0670508
121.01 152.072 164.842 -0.283837 -0.956525 -0.0670508
119.991 152.346 165.238 -0.34581 -0.899887 -0.265741
121.01 152.072 164.842 -0.34581 -0.899887 -0.265741
120.263 152.127 165.629 -0.34581 -0.899887 -0.265741
120.263 152.127 165.629 -0.0826554 -0.996537 -0.00905467
121.01 152.072 164.842 -0.0826554 -0.996537 -0.00905467
121.143 152.053 165.672 -0.0826554 -0.996537 -0.00905467
122.002 152.087 164.525 0.00392791 -0.999302 -0.0371403
122.044 152.051 165.507 0.00392791 -0.999302 -0.0371403
121.01 152.072 164.842 0.00392791 -0.999302 -0.0371403
121.01 152.072 164.842 -0.0062237 -0.999752 -0.021361
122.044 152.051 165.507 -0.0062237 -0.999752 -0.021361
121.143 152.053 165.672 -0.0062237 -0.999752 -0.021361
122.42 152.252 164.697 0.775135 -0.418688 -0.473144
123.022 152.473 165.488 0.775135 -0.418688 -0.473144
122.762 152.107 165.386 0.775135 -0.418688 -0.473144
122.42 152.252 164.697 0.474233 -0.783712 -0.401121
122.762 152.107 165.386 0.474233 -0.783712 -0.401121
122.002 152.087 164.525 0.474233 -0.783712 -0.401121
122.002 152.087 164.525 0.0703652 -0.996726 -0.0398328
122.762 152.107 165.386 0.0703652 -0.996726 -0.0398328
122.044 152.051 165.507 0.0703652 -0.996726 -0.0398328
119.991 152.346 165.238 -0.900499 -0.417473 -0.121727
119.909 152.379 165.73 -0.900499 -0.417473 -0.121727
119.636 153.043 165.477 -0.900499 -0.417473 -0.121727
119.991 152.346 165.238 -0.736862 -0.522509 0.428974
119.636 153.043 165.477 -0.736862 -0.522509 0.428974
119.223 152.977 164.688 -0.736862 -0.522509 0.428974
119.991 152.346 165.238 -0.471541 -0.831006 -0.295091
119.223 152.977 164.688 -0.471541 -0.831006 -0.295091
119.785 152.742 164.454 -0.471541 -0.831006 -0.295091
118.983 153.38 164.598 -0.80648 -0.379308 0.453559
119.223 152.977 164.688 -0.80648 -0.379308 0.453559
119.636 153.043 165.477 -0.80648 -0.379308 0.453559
120.59 152.228 164.388 -0.533968 -0.80302 -0.264646
119.991 152.346 165.238 -0.533968 -0.80302 -0.264646
119.785 152.742 164.454 -0.533968 -0.80302 -0.264646
123.022 152.473 165.488 0.814569 -0.30141 -0.495609
122.636 152.932 164.574 0.814569 -0.30141 -0.495609
123.105 153.232 165.162 0.814569 -0.30141 -0.495609
122.42 152.252 164.697 0.791139 -0.342879 -0.506491
122.636 152.932 164.574 0.791139 -0.342879 -0.506491
123.022 152.473 165.488 0.791139 -0.342879 -0.506491
123.105 153.232 165.162 0.972709 -0.172514 -0.155168
123.194 153.354 165.584 0.972709 -0.172514 -0.155168
123.022 152.473 165.488 0.972709 -0.172514 -0.155168
118.983 153.38 164.598 -0.80205 -0.156735 0.576325
118.943 154.094 164.737 -0.80205 -0.156735 0.576325
118.615 154.062 164.272 -0.80205 -0.156735 0.576325
119.605 153.952 165.578 -0.815703 -0.0906263 0.571328
118.983 153.38 164.598 -0.815703 -0.0906263 0.571328
119.636 153.043 165.477 -0.815703 -0.0906263 0.571328
118.943 154.094 164.737 -0.78838 -0.159448 0.594166
118.983 153.38 164.598 -0.78838 -0.159448 0.594166
119.605 153.952 165.578 -0.78838 -0.159448 0.594166
122.636 152.932 164.574 0.760364 -0.56683 -0.317097
123.097 153.631 164.43 0.760364 -0.56683 -0.317097
123.105 153.232 165.162 0.760364 -0.56683 -0.317097
123.105 153.232 165.162 0.980149 -0.169556 -0.102751
123.097 153.631 164.43 0.980149 -0.169556 -0.102751
123.188 154.028 164.643 0.980149 -0.169556 -0.102751
123.105 153.232 165.162 0.969205 -0.197394 -0.14723
123.188 154.028 164.643 0.969205 -0.197394 -0.14723
123.194 153.354 165.584 0.969205 -0.197394 -0.14723
123.194 153.354 165.584 0.9846 0.144753 0.0980272
123.188 154.028 164.643 0.9846 0.144753 0.0980272
123.083 154.218 165.417 0.9846 0.144753 0.0980272
118.615 154.062 164.272 -0.818055 0.04208 0.573598
118.943 154.094 164.737 -0.818055 0.04208 0.573598
118.913 154.684 164.651 -0.818055 0.04208 0.573598
119.206 155.039 164.72 -0.190988 0.769979 0.608816
119.911 154.521 165.597 -0.190988 0.769979 0.608816
119.921 155.279 164.641 -0.190988 0.769979 0.608816
118.913 154.684 164.651 -0.608606 0.364663 0.704712
119.911 154.521 165.597 -0.608606 0.364663 0.704712
119.206 155.039 164.72 -0.608606 0.364663 0.704712
118.913 154.684 164.651 -0.626352 0.312029 0.714367
119.605 153.952 165.578 -0.626352 0.312029 0.714367
119.911 154.521 165.597 -0.626352 0.312029 0.714367
118.913 154.684 164.651 -0.780208 0.0512599 0.623417
118.943 154.094 164.737 -0.780208 0.0512599 0.623417
119.605 153.952 165.578 -0.780208 0.0512599 0.623417
119.911 154.521 165.597 -0.497959 0.681997 0.535647
120.717 155.062 165.659 -0.497959 0.681997 0.535647
119.921 155.279 164.641 -0.497959 0.681997 0.535647
123.012 154.72 164.712 0.693154 0.618922 0.369424
122.434 154.96 165.392 0.693154 0.618922 0.369424
123.083 154.218 165.417 0.693154 0.618922 0.369424
122.714 155.098 164.604 0.683546 0.638034 0.35451
122.434 154.96 165.392 0.683546 0.638034 0.35451
123.012 154.72 164.712 0.683546 0.638034 0.35451
123.083 154.218 165.417 0.967958 0.240479 0.0722942
123.188 154.028 164.643 0.967958 0.240479 0.0722942
123.012 154.72 164.712 0.967958 0.240479 0.0722942
119.921 155.279 164.641 -0.256185 0.884557 0.38978
120.717 155.062 165.659 -0.256185 0.884557 0.38978
120.981 155.248 165.409 -0.256185 0.884557 0.38978
119.921 155.279 164.641 -0.142132 0.9614 0.235604
120.981 155.248 165.409 -0.142132 0.9614 0.235604
121.069 155.504 164.415 -0.142132 0.9614 0.235604
122.161 155.299 164.572 0.160824 0.974475 0.156634
121.069 155.504 164.415 0.160824 0.974475 0.156634
121.812 155.217 165.442 0.160824 0.974475 0.156634
121.069 155.504 164.415 0.026167 0.967369 0.252017
120.981 155.248 165.409 0.026167 0.967369 0.252017
121.812 155.217 165.442 0.026167 0.967369 0.252017
122.434 154.96 165.392 0.314316 0.909743 0.271245
122.714 155.098 164.604 0.314316 0.909743 0.271245
122.161 155.299 164.572 0.314316 0.909743 0.271245
121.812 155.217 165.442 0.386385 0.890732 0.239381
122.434 154.96 165.392 0.386385 0.890732 0.239381
122.161 155.299 164.572 0.386385 0.890732 0.239381
120.263 152.127 165.629 -0.533867 -0.823963 0.189922
120.077 152.342 166.042 -0.533867 -0.823963 0.189922
119.909 152.379 165.73 -0.533867 -0.823963 0.189922
120.263 152.127 165.629 -0.0932298 -0.958016 0.271134
121.143 152.053 165.672 -0.0932298 -0.958016 0.271134
120.84 152.242 166.236 -0.0932298 -0.958016 0.271134
120.077 152.342 166.042 -0.213439 -0.902216 0.374767
120.263 152.127 165.629 -0.213439 -0.902216 0.374767
120.84 152.242 166.236 -0.213439 -0.902216 0.374767
121.143 152.053 165.672 0.0528942 -0.952425 0.300149
122.044 152.051 165.507 0.0528942 -0.952425 0.300149
121.976 152.269 166.211 0.0528942 -0.952425 0.300149
120.84 152.242 166.236 0.0298008 -0.942813 0.331988
121.143 152.053 165.672 0.0298008 -0.942813 0.331988
121.976 152.269 166.211 0.0298008 -0.942813 0.331988
122.044 152.051 165.507 0.113334 -0.966696 0.229463
122.762 152.107 165.386 0.113334 -0.966696 0.229463
122.839 152.236 165.892 0.113334 -0.966696 0.229463
121.976 152.269 166.211 0.07465 -0.950496 0.301637
122.044 152.051 165.507 0.07465 -0.950496 0.301637
122.839 152.236 165.892 0.07465 -0.950496 0.301637
122.762 152.107 165.386 0.811715 -0.583518 0.0250077
123.022 152.473 165.488 0.811715 -0.583518 0.0250077
122.839 152.236 165.892 0.811715 -0.583518 0.0250077
120.077 152.342 166.042 -0.723954 -0.378967 0.576433
120.215 152.784 166.506 -0.723954 -0.378967 0.576433
119.897 153.079 166.3 -0.723954 -0.378967 0.576433
120.077 152.342 166.042 -0.841695 -0.349883 0.411257
119.897 153.079 166.3 -0.841695 -0.349883 0.411257
119.909 152.379 165.73 -0.841695 -0.349883 0.411257
119.909 152.379 165.73 -0.916464 -0.262198 0.302234
119.897 153.079 166.3 -0.916464 -0.262198 0.302234
119.636 153.043 165.477 -0.916464 -0.262198 0.302234
120.84 152.242 166.236 -0.265078 -0.657647 0.705148
120.215 152.784 166.506 -0.265078 -0.657647 0.705148
120.077 152.342 166.042 -0.265078 -0.657647 0.705148
121.186 152.771 166.638 -0.119717 -0.550116 0.826462
120.215 152.784 166.506 -0.119717 -0.550116 0.826462
120.84 152.242 166.236 -0.119717 -0.550116 0.826462
121.976 152.269 166.211 0.0320493 -0.618193 0.785372
121.186 152.771 166.638 0.0320493 -0.618193 0.785372
120.84 152.242 166.236 0.0320493 -0.618193 0.785372
122.159 152.715 166.572 0.015794 -0.633662 0.773449
121.186 152.771 166.638 0.015794 -0.633662 0.773449
121.976 152.269 166.211 0.015794 -0.633662 0.773449
122.159 152.715 166.572 0.476497 -0.364968 0.799843
122.916 152.955 166.23 0.476497 -0.364968 0.799843
122.627 153.354 166.585 0.476497 -0.364968 0.799843
122.159 152.715 166.572 0.47203 -0.664035 0.579866
121.976 152.269 166.211 0.47203 -0.664035 0.579866
122.916 152.955 166.23 0.47203 -0.664035 0.579866
121.976 152.269 166.211 0.297906 -0.432816 0.850836
122.839 152.236 165.892 0.297906 -0.432816 0.850836
122.916 152.955 166.23 0.297906 -0.432816 0.850836
123.022 152.473 165.488 0.938521 -0.21252 0.272053
123.194 153.354 165.584 0.938521 -0.21252 0.272053
122.916 152.955 166.23 0.938521 -0.21252 0.272053
122.839 152.236 165.892 0.92986 -0.233435 0.284375
123.022 152.473 165.488 0.92986 -0.233435 0.284375
122.916 152.955 166.23 0.92986 -0.233435 0.284375
119.924 153.693 166.452 -0.915735 0.142403 0.3757
119.905 154.104 166.25 -0.915735 0.142403 0.3757
119.605 153.952 165.578 -0.915735 0.142403 0.3757
119.924 153.693 166.452 -0.942698 -0.0407584 0.331148
119.605 153.952 165.578 -0.942698 -0.0407584 0.331148
119.897 153.079 166.3 -0.942698 -0.0407584 0.331148
119.897 153.079 166.3 -0.950304 -0.0654532 0.304365
119.605 153.952 165.578 -0.950304 -0.0654532 0.304365
119.636 153.043 165.477 -0.950304 -0.0654532 0.304365
119.924 153.693 166.452 -0.632879 0.317667 0.706082
120.201 154.094 166.52 -0.632879 0.317667 0.706082
119.905 154.104 166.25 -0.632879 0.317667 0.706082
122.914 154.057 166.057 0.819255 0.0904253 0.566255
122.627 153.354 166.585 0.819255 0.0904253 0.566255
122.916 152.955 166.23 0.819255 0.0904253 0.566255
122.506 154.143 166.507 0.74525 0.177894 0.642616
122.627 153.354 166.585 0.74525 0.177894 0.642616
122.914 154.057 166.057 0.74525 0.177894 0.642616
123.194 153.354 165.584 0.939724 0.17663 0.29278
123.083 154.218 165.417 0.939724 0.17663 0.29278
122.914 154.057 166.057 0.939724 0.17663 0.29278
122.916 152.955 166.23 0.900416 0.0690676 0.429512
123.194 153.354 165.584 0.900416 0.0690676 0.429512
122.914 154.057 166.057 0.900416 0.0690676 0.429512
119.605 153.952 165.578 -0.850299 0.447089 0.277675
119.905 154.104 166.25 -0.850299 0.447089 0.277675
119.911 154.521 165.597 -0.850299 0.447089 0.277675
120.717 155.062 165.659 -0.331606 0.812309 0.479784
120.892 154.691 166.407 -0.331606 0.812309 0.479784
121.282 155.049 166.069 -0.331606 0.812309 0.479784
119.911 154.521 165.597 -0.514924 0.714338 0.473894
120.892 154.691 166.407 -0.514924 0.714338 0.473894
120.717 155.062 165.659 -0.514924 0.714338 0.473894
119.911 154.521 165.597 -0.523638 0.698487 0.48777
120.201 154.094 166.52 -0.523638 0.698487 0.48777
120.892 154.691 166.407 -0.523638 0.698487 0.48777
119.911 154.521 165.597 -0.41707 0.767857 0.48626
119.905 154.104 166.25 -0.41707 0.767857 0.48626
120.201 154.094 166.52 -0.41707 0.767857 0.48626
121.282 155.049 166.069 0.261556 0.704472 0.659779
121.816 154.4 166.55 0.261556 0.704472 0.659779
122.141 154.866 165.924 0.261556 0.704472 0.659779
120.892 154.691 166.407 0.0805607 0.635596 0.767807
121.816 154.4 166.55 0.0805607 0.635596 0.767807
121.282 155.049 166.069 0.0805607 0.635596 0.767807
122.506 154.143 166.507 0.297377 0.685669 0.664398
122.141 154.866 165.924 0.297377 0.685669 0.664398
121.816 154.4 166.55 0.297377 0.685669 0.664398
122.914 154.057 166.057 0.615119 0.659022 0.432802
122.141 154.866 165.924 0.615119 0.659022 0.432802
122.506 154.143 166.507 0.615119 0.659022 0.432802
122.914 154.057 166.057 0.607428 0.654527 0.450139
122.434 154.96 165.392 0.607428 0.654527 0.450139
122.141 154.866 165.924 0.607428 0.654527 0.450139
122.914 154.057 166.057 0.70132 0.625144 0.342557
123.083 154.218 165.417 0.70132 0.625144 0.342557
122.434 154.96 165.392 0.70132 0.625144 0.342557
120.717 155.062 165.659 -0.261068 0.885187 0.385082
121.282 155.049 166.069 -0.261068 0.885187 0.385082
120.981 155.248 165.409 -0.261068 0.885187 0.385082
121.812 155.217 165.442 0.0249132 0.960396 0.277522
120.981 155.248 165.409 0.0249132 0.960396 0.277522
121.282 155.049 166.069 0.0249132 0.960396 0.277522
122.141 154.866 165.924 0.257927 0.856712 0.446676
121.812 155.217 165.442 0.257927 0.856712 0.446676
121.282 155.049 166.069 0.257927 0.856712 0.446676
122.434 154.96 165.392 0.380142 0.852092 0.359766
121.812 155.217 165.442 0.380142 0.852092 0.359766
122.141 154.866 165.924 0.380142 0.852092 0.359766
120.215 152.784 166.506 -0.663379 -0.216335 0.71633
120.194 153.297 166.642 -0.663379 -0.216335 0.71633
119.897 153.079 166.3 -0.663379 -0.216335 0.71633
120.194 153.297 166.642 -0.133514 -0.258684 0.956691
120.215 152.784 166.506 -0.133514 -0.258684 0.956691
121.186 152.771 166.638 -0.133514 -0.258684 0.956691
121.186 152.771 166.638 0.0453438 -0.32166 0.945769
122.159 152.715 166.572 0.0453438 -0.32166 0.945769
122.04 153.119 166.715 0.0453438 -0.32166 0.945769
122.159 152.715 166.572 0.301029 -0.238782 0.923236
122.627 153.354 166.585 0.301029 -0.238782 0.923236
122.04 153.119 166.715 0.301029 -0.238782 0.923236
119.897 153.079 166.3 -0.699419 -0.14244 0.700375
120.194 153.297 166.642 -0.699419 -0.14244 0.700375
119.924 153.693 166.452 -0.699419 -0.14244 0.700375
120.201 154.094 166.52 -0.423076 0.140161 0.895188
119.924 153.693 166.452 -0.423076 0.140161 0.895188
120.194 153.297 166.642 -0.423076 0.140161 0.895188
120.201 154.094 166.52 -0.320778 0.145435 0.935922
120.194 153.297 166.642 -0.320778 0.145435 0.935922
121.024 153.961 166.823 -0.320778 0.145435 0.935922
121.024 153.961 166.823 -0.083328 -0.164377 0.982872
120.194 153.297 166.642 -0.083328 -0.164377 0.982872
121.186 152.771 166.638 -0.083328 -0.164377 0.982872
122.04 153.119 166.715 -0.0332449 -0.138812 0.989761
121.978 153.804 166.809 -0.0332449 -0.138812 0.989761
121.186 152.771 166.638 -0.0332449 -0.138812 0.989761
121.978 153.804 166.809 -0.0112247 -0.155349 0.987796
121.024 153.961 166.823 -0.0112247 -0.155349 0.987796
121.186 152.771 166.638 -0.0112247 -0.155349 0.987796
122.627 153.354 166.585 0.415493 0.152045 0.896799
122.506 154.143 166.507 0.415493 0.152045 0.896799
121.978 153.804 166.809 0.415493 0.152045 0.896799
122.04 153.119 166.715 0.257054 -0.108187 0.960322
122.627 153.354 166.585 0.257054 -0.108187 0.960322
121.978 153.804 166.809 0.257054 -0.108187 0.960322
120.201 154.094 166.52 -0.244509 0.446359 0.860801
121.024 153.961 166.823 -0.244509 0.446359 0.860801
120.892 154.691 166.407 -0.244509 0.446359 0.860801
121.816 154.4 166.55 0.0220394 0.498221 0.86677
120.892 154.691 166.407 0.0220394 0.498221 0.86677
121.024 153.961 166.823 0.0220394 0.498221 0.86677
121.978 153.804 166.809 0.0814661 0.415454 0.905959
121.816 154.4 166.55 0.0814661 0.415454 0.905959
121.024 153.961 166.823 0.0814661 0.415454 0.905959
122.506 154.143 166.507 0.218052 0.43788 0.87219
121.816 154.4 166.55 0.218052 0.43788 0.87219
121.978 153.804 166.809 0.218052 0.43788 0.87219
3 0 1 2
3 3 4 5
3 6 7 8
3 9 10 11
3 12 13 14
3 15 16 17
3 18 19 20
3 21 22 23
3 24 25 26
3 27 28 29
3 30 31 32
3 33 34 35
3 36 37 38
3 39 40 41
3 42 43 44
3 45 46 47
3 48 49 50
3 51 52 53
3 54 55 56
3 57 58 59
3 60 61 62
3 63 64 65
3 66 67 68
3 69 70 71
3 72 73 74
3 75 76 77
3 78 79 80
3 81 82 83
3 84 85 86
3 87 88 89
3 90 91 92
3 93 94 95
3 96 97 98
3 99 100 101
3 102 103 104
3 105 106 107
3 108 109 110
3 111 112 113
3 114 115 116
3 117 118 119
3 120 121 122
3 123 124 125
3 126 127 128
3 129 130 131
3 132 133 134
3 135 136 137
3 138 139 140
3 141 142 143
3 144 145 146
3 147 148 149
3 150 151 152
3 153 154 155
3 156 157 158
3 159 160 161
3 162 163 164
3 165 166 167
3 168 169 170
3 171 172 173
3 174 175 176
3 177 178 179
3 180 181 182
3 183 184 185
3 186 187 188
3 189 190 191
3 192 193 194
3 195 196 197
3 198 199 200
3 201 202 203
3 204 205 206
3 207 208 209
3 210 211 212
3 213 214 215
3 216 217 218
3 219 220 221
3 222 223 224
3 225 226 227
3 228 229 230
3 231 232 233
3 234 235 236
3 237 238 239
3 240 241 242
3 243 244 245
3 246 247 248
3 249 250 251
3 252 253 254
3 255 256 257
3 258 259 260
3 261 262 263
3 264 265 266
3 267 268 269
3 270 271 272
3 273 274 275
3 276 277 278
3 279 280 281
3 282 283 284
3 285 286 287
3 288 289 290
3 291 292 293
3 294 295 296
3 297 298 299
3 300 301 302
3 303 304 305
3 306 307 308
3 309 310 311
3 312 313 314
3 315 316 317
3 318 319 320
3 321 322 323
3 324 325 326
3 327 328 329
3 330 331 332
3 333 334 335
3 336 337 338
3 339 340 341
3 342 343 344
3 345 346 347
3 348 349 350
3 351 352 353
3 354 355 356
3 357 358 359
3 360 361 362
3 363 364 365
3 366 367 368
3 369 370 371
3 372 373 374
3 375 376 377
3 378 379 380
3 381 382 383
3 384 385 386
3 387 388 389
3 390 391 392
3 393 394 395
3 396 397 398
3 399 400 401
3 402 403 404
3 405 406 407
3 408 409 410
3 411 412 413
3 414 415 416
3 417 418 419
3 420 421 422
3 423 424 425
3 426 427 428
3 429 430 431
3 432 433 434
3 435 436 437
3 438 439 440
3 441 442 443
3 444 445 446
3 447 448 449
3 450 451 452
3 453 454 455
3 456 457 458
3 459 460 461
3 462 463 464
3 465 466 467
3 468 469 470
3 471 472 473
3 474 475 476
3 477 478 479
3 480 481 482
3 483 484 485
3 486 487 488
3 489 490 491
3 492 493 494
3 495 496 497
3 498 499 500
3 501 502 503
3 504 505 506
3 507 508 509
3 510 511 512
3 513 514 515
3 516 517 518
3 519 520 521
3 522 523 524
3 525 526 527
3 528 529 530
3 531 532 533
3 534 535 536
3 537 538 539
3 540 541 542
3 543 544 545
3 546 547 548
3 549 550 551
3 552 553 554
3 555 556 557
3 558 559 560
3 561 562 563
3 564 565 566
3 567 568 569
3 570 571 572
3 573 574 575
3 576 577 578
3 579 580 581
3 582 583 584
3 585 586 587
3 588 589 590
3 591 592 593
3 594 595 596
3 597 598 599
3 600 601 602
3 603 604 605
3 606 607 608
3 609 610 611
3 612 613 614
3 615 616 617
3 618 619 620
3 621 622 623
3 624 625 626
3 627 628 629
3 630 631 632
3 633 634 635
3 636 637 638
3 639 640 641
3 642 643 644
3 645 646 647
3 648 649 650
3 651 652 653
3 654 655 656
3 657 658 659
3 660 661 662
3 663 664 665
3 666 667 668
3 669 670 671
3 672 673 674
3 675 676 677
3 678 679 680
3 681 682 683
3 684 685 686
3 687 688 689
3 690 691 692
3 693 694 695
3 696 697 698
3 699 700 701
3 702 703 704
3 705 706 707
3 708 709 710
3 711 712 713
3 714 715 716
3 717 718 719
3 720 721 722
3 723 724 725
3 726 727 728
3 729 730 731
3 732 733 734
3 735 736 737
3 738 739 740
3 741 742 743
3 744 745 746
3 747 748 749
3 750 751 752
3 753 754 755
3 756 757 758
3 759 760 761
3 762 763 764
3 765 766 767
3 768 769 770
3 771 772 773
3 774 775 776
3 777 778 779
3 780 781 782
3 783 784 785
3 786 787 788
3 789 790 791
3 792 793 794
3 795 796 797
3 798 799 800
3 801 802 803
