ply
format ascii 1.0
element vertex 486
property float x
property float y
property float z
property float nx
property float ny
property float nz
element face 162
property list uint uint vertex_indices
end_header
101.309 100.374 183.3 -0.119544 -0.655955 -0.745273
101.209 99.9526 183.687 -0.119544 -0.655955 -0.745273
100.809 100.247 183.491 -0.119544 -0.655955 -0.745273
101.209 99.9526 183.687 0.0450518 -0.681547 -0.730387
101.309 100.374 183.3 0.0450518 -0.681547 -0.730387
101.626 100.106 183.57 0.0450518 -0.681547 -0.730387
100.502 101.08 183.295 -0.567218 -0.23366 -0.789726
100.241 100.674 183.602 -0.567218 -0.23366 -0.789726
100.093 101.159 183.565 -0.567218 -0.23366 -0.789726
100.809 100.247 183.491 -0.428244 -0.354344 -0.831292
100.241 100.674 183.602 -0.428244 -0.354344 -0.831292
100.502 101.08 183.295 -0.428244 -0.354344 -0.831292
100.809 100.247 183.491 -0.269169 -0.314336 -0.910352
100.502 101.08 183.295 -0.269169 -0.314336 -0.910352
101.309 100.374 183.3 -0.269169 -0.314336 -0.910352
101.309 100.374 183.3 -0.110441 -0.133622 -0.984859
100.502 101.08 183.295 -0.110441 -0.133622 -0.984859
101.349 101.222 183.18 -0.110441 -0.133622 -0.984859
102.072 100.623 183.438 0.304104 -0.47237 -0.827277
101.626 100.106 183.57 0.304104 -0.47237 -0.827277
101.309 100.374 183.3 0.304104 -0.47237 -0.827277
102.072 100.623 183.438 0.270922 -0.327603 -0.90514
101.309 100.374 183.3 0.270922 -0.327603 -0.90514
102.102 101.136 183.262 0.270922 -0.327603 -0.90514
102.102 101.136 183.262 0.0896603 -0.143062 -0.985644
101.309 100.374 183.3 0.0896603 -0.143062 -0.985644
101.349 101.222 183.18 0.0896603 -0.143062 -0.985644
102.072 100.623 183.438 0.649351 -0.281738 -0.706376
102.102 101.136 183.262 0.649351 -0.281738 -0.706376
102.44 100.933 183.653 0.649351 -0.281738 -0.706376
100.342 102.171 183.301 -0.560112 -0.0772799 -0.824804
100.502 101.08 183.295 -0.560112 -0.0772799 -0.824804
100.093 101.159 183.565 -0.560112 -0.0772799 -0.824804
100.064 102.093 183.576 -0.700396 -0.0138144 -0.713621
100.342 102.171 183.301 -0.700396 -0.0138144 -0.713621
100.093 101.159 183.565 -0.700396 -0.0138144 -0.713621
101.349 101.222 183.18 -0.132927 -0.00501415 -0.991113
100.502 101.08 183.295 -0.132927 -0.00501415 -0.991113
101.2 102.176 183.196 -0.132927 -0.00501415 -0.991113
101.2 102.176 183.196 -0.122209 -0.0119549 -0.992432
100.502 101.08 183.295 -0.122209 -0.0119549 -0.992432
100.342 102.171 183.301 -0.122209 -0.0119549 -0.992432
102.102 101.136 183.262 0.102548 -0.0384115 -0.993986
101.349 101.222 183.18 0.102548 -0.0384115 -0.993986
102.08 102.081 183.223 0.102548 -0.0384115 -0.993986
102.08 102.081 183.223 0.0330969 0.0210053 -0.999231
101.349 101.222 183.18 0.0330969 0.0210053 -0.999231
101.2 102.176 183.196 0.0330969 0.0210053 -0.999231
102.58 101.973 183.65 0.727388 -0.0994913 -0.678976
102.44 100.933 183.653 0.727388 -0.0994913 -0.678976
102.102 101.136 183.262 0.727388 -0.0994913 -0.678976
102.08 102.081 183.223 0.647959 -0.0158641 -0.76151
102.58 101.973 183.65 0.647959 -0.0158641 -0.76151
102.102 101.136 183.262 0.647959 -0.0158641 -0.76151
100.24 103.059 183.338 -0.694268 -0.0504978 -0.717943
100.342 102.171 183.301 -0.694268 -0.0504978 -0.717943
100.064 102.093 183.576 -0.694268 -0.0504978 -0.717943
100.082 103.053 183.587 -0.845791 0.022678 -0.533032
100.24 103.059 183.338 -0.845791 0.022678 -0.533032
100.064 102.093 183.576 -0.845791 0.022678 -0.533032
101.2 102.176 183.196 -0.122385 0.0529036 -0.991072
100.342 102.171 183.301 -0.122385 0.0529036 -0.991072
100.974 103.637 183.301 -0.122385 0.0529036 -0.991072
100.974 103.637 183.301 -0.0746832 0.0323201 -0.996683
100.342 102.171 183.301 -0.0746832 0.0323201 -0.996683
100.24 103.059 183.338 -0.0746832 0.0323201 -0.996683
102.08 102.081 183.223 0.0371964 0.0593795 -0.997542
101.2 102.176 183.196 0.0371964 0.0593795 -0.997542
101.938 103.079 183.277 0.0371964 0.0593795 -0.997542
101.938 103.079 183.277 0.018042 0.0749862 -0.997021
101.2 102.176 183.196 0.018042 0.0749862 -0.997021
100.974 103.637 183.301 0.018042 0.0749862 -0.997021
102.354 102.845 183.481 0.652548 0.0215805 -0.75744
102.58 101.973 183.65 0.652548 0.0215805 -0.75744
102.08 102.081 183.223 0.652548 0.0215805 -0.75744
101.938 103.079 183.277 0.488952 0.116511 -0.864495
102.354 102.845 183.481 0.488952 0.116511 -0.864495
102.08 102.081 183.223 0.488952 0.116511 -0.864495
100.256 103.805 183.369 -0.84552 0.0407135 -0.532388
100.24 103.059 183.338 -0.84552 0.0407135 -0.532388
100.082 103.053 183.587 -0.84552 0.0407135 -0.532388
100.144 103.724 183.643 -0.931566 0.11505 -0.344889
100.256 103.805 183.369 -0.931566 0.11505 -0.344889
100.082 103.053 183.587 -0.931566 0.11505 -0.344889
100.974 103.637 183.301 -0.0833941 0.0434624 -0.995568
100.24 103.059 183.338 -0.0833941 0.0434624 -0.995568
100.256 103.805 183.369 -0.0833941 0.0434624 -0.995568
101.435 103.853 183.465 0.616134 0.539516 -0.573847
102.082 103.324 183.661 0.616134 0.539516 -0.573847
101.938 103.079 183.277 0.616134 0.539516 -0.573847
101.435 103.853 183.465 0.171543 0.336535 -0.925914
101.938 103.079 183.277 0.171543 0.336535 -0.925914
100.974 103.637 183.301 0.171543 0.336535 -0.925914
102.354 102.845 183.481 0.595726 0.557832 -0.57787
101.938 103.079 183.277 0.595726 0.557832 -0.57787
102.082 103.324 183.661 0.595726 0.557832 -0.57787
100.256 103.805 183.369 -0.625121 0.780221 -0.021888
100.144 103.724 183.643 -0.625121 0.780221 -0.021888
100.458 103.973 183.566 -0.625121 0.780221 -0.021888
100.974 103.637 183.301 0.0992973 0.706775 -0.700435
100.256 103.805 183.369 0.0992973 0.706775 -0.700435
100.458 103.973 183.566 0.0992973 0.706775 -0.700435
101.073 104.063 183.5 -0.161391 0.447032 -0.879838
100.974 103.637 183.301 -0.161391 0.447032 -0.879838
100.458 103.973 183.566 -0.161391 0.447032 -0.879838
101.435 103.853 183.465 0.140231 0.391091 -0.909606
100.974 103.637 183.301 0.140231 0.391091 -0.909606
101.073 104.063 183.5 0.140231 0.391091 -0.909606
100.39 100.031 184.3 -0.394924 -0.815511 -0.423056
100.809 100.247 183.491 -0.394924 -0.815511 -0.423056
101.209 99.9526 183.687 -0.394924 -0.815511 -0.423056
100.39 100.031 184.3 -0.280096 -0.925277 -0.255753
101.209 99.9526 183.687 -0.280096 -0.925277 -0.255753
101.212 99.6903 184.632 -0.280096 -0.925277 -0.255753
101.626 100.106 183.57 0.445144 -0.771358 -0.454811
102.206 100.215 183.951 0.445144 -0.771358 -0.454811
101.995 99.8972 184.284 0.445144 -0.771358 -0.454811
101.626 100.106 183.57 0.223435 -0.89867 -0.377451
101.995 99.8972 184.284 0.223435 -0.89867 -0.377451
101.209 99.9526 183.687 0.223435 -0.89867 -0.377451
101.209 99.9526 183.687 0.134486 -0.954663 -0.265578
101.995 99.8972 184.284 0.134486 -0.954663 -0.265578
101.212 99.6903 184.632 0.134486 -0.954663 -0.265578
101.995 99.8972 184.284 0.601265 -0.732611 -0.319001
102.206 100.215 183.951 0.601265 -0.732611 -0.319001
102.474 100.214 184.458 0.601265 -0.732611 -0.319001
100.241 100.674 183.602 -0.632639 -0.632049 -0.447527
100.39 100.031 184.3 -0.632639 -0.632049 -0.447527
100.07 100.389 184.247 -0.632639 -0.632049 -0.447527
100.241 100.674 183.602 -0.881852 -0.297444 -0.365876
100.07 100.389 184.247 -0.881852 -0.297444 -0.365876
100.093 101.159 183.565 -0.881852 -0.297444 -0.365876
100.093 101.159 183.565 -0.991123 -0.0703246 -0.112825
100.07 100.389 184.247 -0.991123 -0.0703246 -0.112825
100.008 101.094 184.357 -0.991123 -0.0703246 -0.112825
100.809 100.247 183.491 -0.585006 -0.654751 -0.478613
100.39 100.031 184.3 -0.585006 -0.654751 -0.478613
100.241 100.674 183.602 -0.585006 -0.654751 -0.478613
101.626 100.106 183.57 0.515855 -0.599967 -0.611501
102.072 100.623 183.438 0.515855 -0.599967 -0.611501
102.206 100.215 183.951 0.515855 -0.599967 -0.611501
102.206 100.215 183.951 0.702772 -0.45597 -0.546079
102.072 100.623 183.438 0.702772 -0.45597 -0.546079
102.44 100.933 183.653 0.702772 -0.45597 -0.546079
102.206 100.215 183.951 0.79601 -0.434449 -0.421452
102.44 100.933 183.653 0.79601 -0.434449 -0.421452
102.474 100.214 184.458 0.79601 -0.434449 -0.421452
102.474 100.214 184.458 0.929926 -0.253874 -0.266055
102.44 100.933 183.653 0.929926 -0.253874 -0.266055
102.752 101.192 184.498 0.929926 -0.253874 -0.266055
100.093 101.159 183.565 -0.993502 -0.0301148 -0.10976
100.008 101.094 184.357 -0.993502 -0.0301148 -0.10976
100.064 102.093 183.576 -0.993502 -0.0301148 -0.10976
100.008 101.094 184.357 -0.998887 0.0244629 -0.0403288
100.031 102.061 184.372 -0.998887 0.0244629 -0.0403288
100.064 102.093 183.576 -0.998887 0.0244629 -0.0403288
103.14 101.956 184.274 0.743454 -0.0202973 -0.668479
102.58 101.973 183.65 0.743454 -0.0202973 -0.668479
103.084 102.197 184.204 0.743454 -0.0202973 -0.668479
103.14 101.956 184.274 0.638998 -0.496476 -0.587531
102.752 101.192 184.498 0.638998 -0.496476 -0.587531
102.58 101.973 183.65 0.638998 -0.496476 -0.587531
102.752 101.192 184.498 0.942337 -0.127612 -0.309382
102.44 100.933 183.653 0.942337 -0.127612 -0.309382
102.58 101.973 183.65 0.942337 -0.127612 -0.309382
103.14 101.956 184.274 0.830309 0.0324621 -0.556357
103.084 102.197 184.204 0.830309 0.0324621 -0.556357
103.184 102.206 184.354 0.830309 0.0324621 -0.556357
100.064 102.093 183.576 -0.998984 0.0197272 -0.0405217
100.031 102.061 184.372 -0.998984 0.0197272 -0.0405217
100.082 103.053 183.587 -0.998984 0.0197272 -0.0405217
100.031 102.061 184.372 -0.994102 0.0941353 0.0538406
100.11 102.89 184.386 -0.994102 0.0941353 0.0538406
100.082 103.053 183.587 -0.994102 0.0941353 0.0538406
103.084 102.197 184.204 0.465359 0.587912 -0.661665
102.58 101.973 183.65 0.465359 0.587912 -0.661665
102.543 102.761 184.325 0.465359 0.587912 -0.661665
102.58 101.973 183.65 0.958399 0.210049 -0.193265
102.354 102.845 183.481 0.958399 0.210049 -0.193265
102.543 102.761 184.325 0.958399 0.210049 -0.193265
103.184 102.206 184.354 0.60026 0.669385 -0.437735
103.084 102.197 184.204 0.60026 0.669385 -0.437735
102.543 102.761 184.325 0.60026 0.669385 -0.437735
100.444 103.27 184.444 -0.426381 0.70921 0.561445
100.458 103.973 183.566 -0.426381 0.70921 0.561445
100.144 103.724 183.643 -0.426381 0.70921 0.561445
100.444 103.27 184.444 -0.6713 0.508481 0.539262
100.144 103.724 183.643 -0.6713 0.508481 0.539262
100.11 102.89 184.386 -0.6713 0.508481 0.539262
100.11 102.89 184.386 -0.99473 0.0880033 0.0526122
100.144 103.724 183.643 -0.99473 0.0880033 0.0526122
100.082 103.053 183.587 -0.99473 0.0880033 0.0526122
100.444 103.27 184.444 -0.283605 0.750548 0.596864
101.233 103.815 184.133 -0.283605 0.750548 0.596864
100.458 103.973 183.566 -0.283605 0.750548 0.596864
102.082 103.324 183.661 0.537902 0.837493 0.0962678
101.233 103.815 184.133 0.537902 0.837493 0.0962678
102.067 103.233 184.538 0.537902 0.837493 0.0962678
101.435 103.853 183.465 0.5771 0.786506 0.21992
101.233 103.815 184.133 0.5771 0.786506 0.21992
102.082 103.324 183.661 0.5771 0.786506 0.21992
102.543 102.761 184.325 0.838016 0.528787 -0.134586
102.354 102.845 183.481 0.838016 0.528787 -0.134586
102.082 103.324 183.661 0.838016 0.528787 -0.134586
102.067 103.233 184.538 0.719538 0.689355 0.0839885
102.543 102.761 184.325 0.719538 0.689355 0.0839885
102.082 103.324 183.661 0.719538 0.689355 0.0839885
100.458 103.973 183.566 -0.0931551 0.918852 0.383448
101.233 103.815 184.133 -0.0931551 0.918852 0.383448
101.073 104.063 183.5 -0.0931551 0.918852 0.383448
101.233 103.815 184.133 0.505795 0.838843 0.201279
101.435 103.853 183.465 0.505795 0.838843 0.201279
101.073 104.063 183.5 0.505795 0.838843 0.201279
101.341 99.2123 185.285 -0.00686598 -0.655926 -0.754794
101.209 99.0625 185.417 -0.00686598 -0.655926 -0.754794
101.07 99.215 185.285 -0.00686598 -0.655926 -0.754794
101.209 99.0625 185.417 0.710441 -0.699086 -0.0809513
101.341 99.2123 185.285 0.710441 -0.699086 -0.0809513
101.457 99.2964 185.575 0.710441 -0.699086 -0.0809513
100.39 100.031 184.3 -0.769309 -0.62967 -0.108072
100.463 99.7882 185.193 -0.769309 -0.62967 -0.108072
100.11 100.245 185.048 -0.769309 -0.62967 -0.108072
100.07 100.389 184.247 -0.736582 -0.671115 -0.0839812
100.39 100.031 184.3 -0.736582 -0.671115 -0.0839812
100.11 100.245 185.048 -0.736582 -0.671115 -0.0839812
101.07 99.215 185.285 -0.00830358 -0.807932 -0.589217
101.212 99.6903 184.632 -0.00830358 -0.807932 -0.589217
101.341 99.2123 185.285 -0.00830358 -0.807932 -0.589217
101.07 99.215 185.285 -0.514065 -0.636772 -0.574682
100.463 99.7882 185.193 -0.514065 -0.636772 -0.574682
101.212 99.6903 184.632 -0.514065 -0.636772 -0.574682
100.463 99.7882 185.193 -0.292554 -0.928592 -0.228316
100.39 100.031 184.3 -0.292554 -0.928592 -0.228316
101.212 99.6903 184.632 -0.292554 -0.928592 -0.228316
101.341 99.2123 185.285 0.558931 -0.829036 0.0171917
102.179 99.7781 185.317 0.558931 -0.829036 0.0171917
101.457 99.2964 185.575 0.558931 -0.829036 0.0171917
101.341 99.2123 185.285 0.470873 -0.665353 -0.579296
101.212 99.6903 184.632 0.470873 -0.665353 -0.579296
102.179 99.7781 185.317 0.470873 -0.665353 -0.579296
101.212 99.6903 184.632 0.191693 -0.970519 -0.146108
101.995 99.8972 184.284 0.191693 -0.970519 -0.146108
102.179 99.7781 185.317 0.191693 -0.970519 -0.146108
102.179 99.7781 185.317 0.59009 -0.783307 -0.195508
101.995 99.8972 184.284 0.59009 -0.783307 -0.195508
102.474 100.214 184.458 0.59009 -0.783307 -0.195508
102.887 100.179 185.353 0.486117 -0.8351 -0.257485
102.179 99.7781 185.317 0.486117 -0.8351 -0.257485
102.474 100.214 184.458 0.486117 -0.8351 -0.257485
100.07 100.389 184.247 -0.995092 -0.0934163 0.0326326
100.11 100.245 185.048 -0.995092 -0.0934163 0.0326326
100.008 101.094 184.357 -0.995092 -0.0934163 0.0326326
100.11 100.245 185.048 -0.994917 -0.0477536 0.0886544
100.08 101.083 185.166 -0.994917 -0.0477536 0.0886544
100.008 101.094 184.357 -0.994917 -0.0477536 0.0886544
103.199 100.89 185.603 0.876403 -0.237109 -0.419161
102.887 100.179 185.353 0.876403 -0.237109 -0.419161
102.752 101.192 184.498 0.876403 -0.237109 -0.419161
102.887 100.179 185.353 0.879302 -0.233358 -0.415176
102.474 100.214 184.458 0.879302 -0.233358 -0.415176
102.752 101.192 184.498 0.879302 -0.233358 -0.415176
100.008 101.094 184.357 -0.995719 0.0222987 0.0897033
100.08 101.083 185.166 -0.995719 0.0222987 0.0897033
100.031 102.061 184.372 -0.995719 0.0222987 0.0897033
100.08 101.083 185.166 -0.99419 0.0327787 0.102528
100.105 101.971 185.125 -0.99419 0.0327787 0.102528
100.031 102.061 184.372 -0.99419 0.0327787 0.102528
103.05 102.056 184.51 0.84374 -0.297383 0.446839
102.752 101.192 184.498 0.84374 -0.297383 0.446839
103.14 101.956 184.274 0.84374 -0.297383 0.446839
103.05 102.056 184.51 0.817756 -0.289133 0.497672
102.545 101.97 185.29 0.817756 -0.289133 0.497672
102.752 101.192 184.498 0.817756 -0.289133 0.497672
103.199 100.89 185.603 0.861099 0.45663 -0.223599
102.752 101.192 184.498 0.861099 0.45663 -0.223599
102.545 101.97 185.29 0.861099 0.45663 -0.223599
103.14 101.956 184.274 0.847388 -0.289705 0.444977
103.184 102.206 184.354 0.847388 -0.289705 0.444977
103.05 102.056 184.51 0.847388 -0.289705 0.444977
100.37 102.294 185.204 -0.658438 0.492651 0.568995
100.444 103.27 184.444 -0.658438 0.492651 0.568995
100.11 102.89 184.386 -0.658438 0.492651 0.568995
100.37 102.294 185.204 -0.706642 0.445353 0.549835
100.11 102.89 184.386 -0.706642 0.445353 0.549835
100.105 101.971 185.125 -0.706642 0.445353 0.549835
100.105 101.971 185.125 -0.989674 0.0927798 0.109254
100.11 102.89 184.386 -0.989674 0.0927798 0.109254
100.031 102.061 184.372 -0.989674 0.0927798 0.109254
100.37 102.294 185.204 -0.471342 0.563629 0.67835
101.214 102.918 185.271 -0.471342 0.563629 0.67835
100.444 103.27 184.444 -0.471342 0.563629 0.67835
102.543 102.761 184.325 0.645537 0.59137 0.483283
102.545 101.97 185.29 0.645537 0.59137 0.483283
103.05 102.056 184.51 0.645537 0.59137 0.483283
102.543 102.761 184.325 0.936947 0.271362 0.220214
102.3 102.939 185.139 0.936947 0.271362 0.220214
102.545 101.97 185.29 0.936947 0.271362 0.220214
103.184 102.206 184.354 0.383268 0.482607 0.787525
102.543 102.761 184.325 0.383268 0.482607 0.787525
103.05 102.056 184.51 0.383268 0.482607 0.787525
100.444 103.27 184.444 -0.320775 0.774706 0.544917
101.327 103.246 184.997 -0.320775 0.774706 0.544917
101.233 103.815 184.133 -0.320775 0.774706 0.544917
100.444 103.27 184.444 -0.383127 0.666151 0.639888
101.214 102.918 185.271 -0.383127 0.666151 0.639888
101.327 103.246 184.997 -0.383127 0.666151 0.639888
101.327 103.246 184.997 0.322605 0.806429 0.495579
102.067 103.233 184.538 0.322605 0.806429 0.495579
101.233 103.815 184.133 0.322605 0.806429 0.495579
101.327 103.246 184.997 0.140573 0.970148 0.197613
101.997 103.101 185.233 0.140573 0.970148 0.197613
102.067 103.233 184.538 0.140573 0.970148 0.197613
102.3 102.939 185.139 0.715816 0.695535 0.0619567
102.543 102.761 184.325 0.715816 0.695535 0.0619567
102.067 103.233 184.538 0.715816 0.695535 0.0619567
101.997 103.101 185.233 0.510809 0.833873 0.209117
102.3 102.939 185.139 0.510809 0.833873 0.209117
102.067 103.233 184.538 0.510809 0.833873 0.209117
101.209 99.0625 185.417 -0.802797 -0.566053 0.187351
101.041 99.3289 185.504 -0.802797 -0.566053 0.187351
101.07 99.215 185.285 -0.802797 -0.566053 0.187351
101.209 99.0625 185.417 -0.185299 -0.408683 0.893668
101.457 99.2964 185.575 -0.185299 -0.408683 0.893668
101.041 99.3289 185.504 -0.185299 -0.408683 0.893668
100.463 99.7882 185.193 -0.744464 -0.408817 0.527865
100.433 100.226 185.489 -0.744464 -0.408817 0.527865
100.11 100.245 185.048 -0.744464 -0.408817 0.527865
100.463 99.7882 185.193 -0.683171 -0.681098 0.263406
101.07 99.215 185.285 -0.683171 -0.681098 0.263406
101.041 99.3289 185.504 -0.683171 -0.681098 0.263406
100.463 99.7882 185.193 -0.672372 -0.446249 0.590574
101.041 99.3289 185.504 -0.672372 -0.446249 0.590574
100.433 100.226 185.489 -0.672372 -0.446249 0.590574
100.433 100.226 185.489 -0.477526 -0.310424 0.821952
101.041 99.3289 185.504 -0.477526 -0.310424 0.821952
101.459 100.048 186.018 -0.477526 -0.310424 0.821952
101.457 99.2964 185.575 -0.184341 -0.498635 0.846984
101.459 100.048 186.018 -0.184341 -0.498635 0.846984
101.041 99.3289 185.504 -0.184341 -0.498635 0.846984
101.457 99.2964 185.575 -0.331698 -0.478294 0.813149
102.281 99.8248 186.222 -0.331698 -0.478294 0.813149
101.459 100.048 186.018 -0.331698 -0.478294 0.813149
101.457 99.2964 185.575 0.54999 -0.834958 -0.0188572
102.179 99.7781 185.317 0.54999 -0.834958 -0.0188572
102.281 99.8248 186.222 0.54999 -0.834958 -0.0188572
102.281 99.8248 186.222 -0.34262 -0.771235 0.536477
102.058 100.022 186.364 -0.34262 -0.771235 0.536477
101.459 100.048 186.018 -0.34262 -0.771235 0.536477
102.887 100.179 185.353 0.572834 -0.650661 -0.498499
103.273 100.128 185.864 0.572834 -0.650661 -0.498499
103.081 99.7475 186.139 0.572834 -0.650661 -0.498499
102.887 100.179 185.353 0.442838 -0.735384 -0.512937
103.081 99.7475 186.139 0.442838 -0.735384 -0.512937
102.179 99.7781 185.317 0.442838 -0.735384 -0.512937
102.179 99.7781 185.317 -0.0896089 -0.994087 0.0613318
103.081 99.7475 186.139 -0.0896089 -0.994087 0.0613318
102.281 99.8248 186.222 -0.0896089 -0.994087 0.0613318
103.081 99.7475 186.139 0.876887 -0.478245 -0.0484805
103.273 100.128 185.864 0.876887 -0.478245 -0.0484805
103.365 100.255 186.276 0.876887 -0.478245 -0.0484805
100.433 100.226 185.489 -0.681169 -0.00416491 0.732114
100.367 101.286 185.434 -0.681169 -0.00416491 0.732114
100.08 101.083 185.166 -0.681169 -0.00416491 0.732114
100.11 100.245 185.048 -0.803927 -0.110485 0.584376
100.433 100.226 185.489 -0.803927 -0.110485 0.584376
100.08 101.083 185.166 -0.803927 -0.110485 0.584376
101.459 100.048 186.018 -0.40483 0.266529 0.874685
101.238 101.064 185.606 -0.40483 0.266529 0.874685
100.433 100.226 185.489 -0.40483 0.266529 0.874685
101.238 101.064 185.606 -0.184506 0.0400171 0.982016
100.367 101.286 185.434 -0.184506 0.0400171 0.982016
100.433 100.226 185.489 -0.184506 0.0400171 0.982016
102.258 100.269 186.303 -0.410345 0.518214 0.750381
101.459 100.048 186.018 -0.410345 0.518214 0.750381
102.058 100.022 186.364 -0.410345 0.518214 0.750381
102.258 100.269 186.303 -0.410143 0.510948 0.755457
102.267 101.044 185.783 -0.410143 0.510948 0.755457
101.459 100.048 186.018 -0.410143 0.510948 0.755457
102.267 101.044 185.783 -0.152857 0.342526 0.92699
101.238 101.064 185.606 -0.152857 0.342526 0.92699
101.459 100.048 186.018 -0.152857 0.342526 0.92699
102.887 100.179 185.353 0.784461 -0.131214 -0.606138
103.199 100.89 185.603 0.784461 -0.131214 -0.606138
103.273 100.128 185.864 0.784461 -0.131214 -0.606138
102.267 101.044 185.783 -0.453943 0.499589 0.737798
102.258 100.269 186.303 -0.453943 0.499589 0.737798
102.903 100.808 186.334 -0.453943 0.499589 0.737798
103.273 100.128 185.864 0.974464 0.0180017 -0.223822
103.199 100.89 185.603 0.974464 0.0180017 -0.223822
103.365 100.255 186.276 0.974464 0.0180017 -0.223822
103.365 100.255 186.276 0.955155 -0.0576451 -0.290441
103.199 100.89 185.603 0.955155 -0.0576451 -0.290441
103.403 100.876 186.276 0.955155 -0.0576451 -0.290441
100.367 101.286 185.434 -0.491187 0.195322 0.848872
100.37 102.294 185.204 -0.491187 0.195322 0.848872
100.105 101.971 185.125 -0.491187 0.195322 0.848872
100.08 101.083 185.166 -0.701514 0.0527441 0.710701
100.367 101.286 185.434 -0.701514 0.0527441 0.710701
100.105 101.971 185.125 -0.701514 0.0527441 0.710701
101.238 101.064 185.606 -0.158826 0.137542 0.977679
101.203 102.066 185.46 -0.158826 0.137542 0.977679
100.367 101.286 185.434 -0.158826 0.137542 0.977679
101.203 102.066 185.46 -0.232121 0.217118 0.948146
100.37 102.294 185.204 -0.232121 0.217118 0.948146
100.367 101.286 185.434 -0.232121 0.217118 0.948146
102.267 101.044 185.783 -0.158645 0.26336 0.951563
102.027 101.914 185.503 -0.158645 0.26336 0.951563
101.238 101.064 185.606 -0.158645 0.26336 0.951563
102.027 101.914 185.503 -0.0250316 0.143845 0.989284
101.203 102.066 185.46 -0.0250316 0.143845 0.989284
101.238 101.064 185.606 -0.0250316 0.143845 0.989284
102.545 101.97 185.29 0.864188 0.489218 -0.117664
103.131 101.143 186.151 0.864188 0.489218 -0.117664
103.199 100.89 185.603 0.864188 0.489218 -0.117664
102.545 101.97 185.29 -0.384498 0.521506 0.761704
102.267 101.044 185.783 -0.384498 0.521506 0.761704
103.131 101.143 186.151 -0.384498 0.521506 0.761704
102.545 101.97 185.29 0.318668 0.369458 0.872898
102.027 101.914 185.503 0.318668 0.369458 0.872898
102.267 101.044 185.783 0.318668 0.369458 0.872898
102.903 100.808 186.334 -0.365678 0.625188 0.689506
103.131 101.143 186.151 -0.365678 0.625188 0.689506
102.267 101.044 185.783 -0.365678 0.625188 0.689506
103.131 101.143 186.151 0.732245 0.648643 -0.207554
103.403 100.876 186.276 0.732245 0.648643 -0.207554
103.199 100.89 185.603 0.732245 0.648643 -0.207554
101.214 102.918 185.271 -0.233522 0.212721 0.948798
100.37 102.294 185.204 -0.233522 0.212721 0.948798
101.203 102.066 185.46 -0.233522 0.212721 0.948798
102.027 101.914 185.503 -0.0282099 0.127252 0.991469
102.052 102.75 185.396 -0.0282099 0.127252 0.991469
101.203 102.066 185.46 -0.0282099 0.127252 0.991469
102.052 102.75 185.396 -0.101316 0.216041 0.971113
101.214 102.918 185.271 -0.101316 0.216041 0.971113
101.203 102.066 185.46 -0.101316 0.216041 0.971113
102.545 101.97 185.29 0.587629 0.267356 0.763683
102.3 102.939 185.139 0.587629 0.267356 0.763683
102.052 102.75 185.396 0.587629 0.267356 0.763683
102.027 101.914 185.503 0.368045 0.106787 0.923656
102.545 101.97 185.29 0.368045 0.106787 0.923656
102.052 102.75 185.396 0.368045 0.106787 0.923656
101.997 103.101 185.233 -0.118268 0.660159 0.741757
101.327 103.246 184.997 -0.118268 0.660159 0.741757
101.214 102.918 185.271 -0.118268 0.660159 0.741757
102.052 102.75 185.396 -0.0524155 0.414454 0.908559
101.997 103.101 185.233 -0.0524155 0.414454 0.908559
101.214 102.918 185.271 -0.0524155 0.414454 0.908559
102.3 102.939 185.139 0.468669 0.432731 0.770125
101.997 103.101 185.233 0.468669 0.432731 0.770125
102.052 102.75 185.396 0.468669 0.432731 0.770125
102.281 99.8248 186.222 0.0589121 -0.53649 0.841848
102.545 100.187 186.434 0.0589121 -0.53649 0.841848
102.058 100.022 186.364 0.0589121 -0.53649 0.841848
102.281 99.8248 186.222 0.0105333 -0.679427 0.733667
103.081 99.7475 186.139 0.0105333 -0.679427 0.733667
103.106 100.069 186.436 0.0105333 -0.679427 0.733667
102.545 100.187 186.434 -0.0976134 -0.449233 0.888066
102.281 99.8248 186.222 -0.0976134 -0.449233 0.888066
103.106 100.069 186.436 -0.0976134 -0.449233 0.888066
103.081 99.7475 186.139 0.687427 -0.521572 0.505377
103.365 100.255 186.276 0.687427 -0.521572 0.505377
103.106 100.069 186.436 0.687427 -0.521572 0.505377
102.058 100.022 186.364 -0.270075 0.431585 0.860694
102.545 100.187 186.434 -0.270075 0.431585 0.860694
102.258 100.269 186.303 -0.270075 0.431585 0.860694
102.903 100.808 186.334 -0.315121 0.324658 0.891793
102.258 100.269 186.303 -0.315121 0.324658 0.891793
102.545 100.187 186.434 -0.315121 0.324658 0.891793
102.903 100.808 186.334 -0.288801 0.311685 0.905233
102.545 100.187 186.434 -0.288801 0.311685 0.905233
103.234 100.733 186.466 -0.288801 0.311685 0.905233
103.234 100.733 186.466 -0.012522 -0.0417969 0.999048
102.545 100.187 186.434 -0.012522 -0.0417969 0.999048
103.106 100.069 186.436 -0.012522 -0.0417969 0.999048
103.365 100.255 186.276 0.763395 -0.0455334 0.644325
103.403 100.876 186.276 0.763395 -0.0455334 0.644325
103.234 100.733 186.466 0.763395 -0.0455334 0.644325
103.106 100.069 186.436 0.595448 -0.149279 0.789403
103.365 100.255 186.276 0.595448 -0.149279 0.789403
103.234 100.733 186.466 0.595448 -0.149279 0.789403
102.903 100.808 186.334 -0.18958 0.566725 0.801799
103.234 100.733 186.466 -0.18958 0.566725 0.801799
103.131 101.143 186.151 -0.18958 0.566725 0.801799
103.403 100.876 186.276 0.285255 0.627209 0.724733
103.131 101.143 186.151 0.285255 0.627209 0.724733
103.234 100.733 186.466 0.285255 0.627209 0.724733
3 0 1 2
3 3 4 5
3 6 7 8
3 9 10 11
3 12 13 14
3 15 16 17
3 18 19 20
3 21 22 23
3 24 25 26
3 27 28 29
3 30 31 32
3 33 34 35
3 36 37 38
3 39 40 41
3 42 43 44
3 45 46 47
3 48 49 50
3 51 52 53
3 54 55 56
3 57 58 59
3 60 61 62
3 63 64 65
3 66 67 68
3 69 70 71
3 72 73 74
3 75 76 77
3 78 79 80
3 81 82 83
3 84 85 86
3 87 88 89
3 90 91 92
3 93 94 95
3 96 97 98
3 99 100 101
3 102 103 104
3 105 106 107
3 108 109 110
3 111 112 113
3 114 115 116
3 117 118 119
3 120 121 122
3 123 124 125
3 126 127 128
3 129 130 131
3 132 133 134
3 135 136 137
3 138 139 140
3 141 142 143
3 144 145 146
3 147 148 149
3 150 151 152
3 153 154 155
3 156 157 158
3 159 160 161
3 162 163 164
3 165 166 167
3 168 169 170
3 171 172 173
3 174 175 176
3 177 178 179
3 180 181 182
3 183 184 185
3 186 187 188
3 189 190 191
3 192 193 194
3 195 196 197
3 198 199 200
3 201 202 203
3 204 205 206
3 207 208 209
3 210 211 212
3 213 214 215
3 216 217 218
3 219 220 221
3 222 223 224
3 225 226 227
3 228 229 230
3 231 232 233
3 234 235 236
3 237 238 239
3 240 241 242
3 243 244 245
3 246 247 248
3 249 250 251
3 252 253 254
3 255 256 257
3 258 259 260
3 261 262 263
3 264 265 266
3 267 268 269
3 270 271 272
3 273 274 275
3 276 277 278
3 279 280 281
3 282 283 284
3 285 286 287
3 288 289 290
3 291 292 293
3 294 295 296
3 297 298 299
3 300 301 302
3 303 304 305
3 306 307 308
3 309 310 311
3 312 313 314
3 315 316 317
3 318 319 320
3 321 322 323
3 324 325 326
3 327 328 329
3 330 331 332
3 333 334 335
3 336 337 338
3 339 340 341
3 342 343 344
3 345 346 347
3 348 349 350
3 351 352 353
3 354 355 356
3 357 358 359
3 360 361 362
3 363 364 365
3 366 367 368
3 369 370 371
3 372 373 374
3 375 376 377
3 378 379 380
3 381 382 383
3 384 385 386
3 387 388 389
3 390 391 392
3 393 394 395
3 396 397 398
3 399 400 401
3 402 403 404
3 405 406 407
3 408 409 410
3 411 412 413
3 414 415 416
3 417 418 419
3 420 421 422
3 423 424 425
3 426 427 428
3 429 430 431
3 432 433 434
3 435 436 437
3 438 439 440
3 441 442 443
3 444 445 446
3 447 448 449
3 450 451 452
3 453 454 455
3 456 457 458
3 459 460 461
3 462 463 464
3 465 466 467
3 468 469 470
3 471 472 473
3 474 475 476
3 477 478 479
3 480 481 482
3 483 484 485
