ply
format ascii 1.0
element vertex 858
property float x
property float y
property float z
property float nx
property float ny
property float nz
element face 286
property list uint uint vertex_indices
end_header
121.219 131.57 163.486 -0.145472 -0.747082 -0.648618
121.156 131.247 163.872 -0.145472 -0.747082 -0.648618
120.693 131.511 163.672 -0.145472 -0.747082 -0.648618
121.219 131.57 163.486 0.0148412 -0.566301 -0.824065
122.279 131.542 163.525 0.0148412 -0.566301 -0.824065
121.945 131.281 163.698 0.0148412 -0.566301 -0.824065
121.156 131.247 163.872 -0.110976 -0.753315 -0.648229
121.219 131.57 163.486 -0.110976 -0.753315 -0.648229
121.945 131.281 163.698 -0.110976 -0.753315 -0.648229
121.945 131.281 163.698 0.234575 -0.728326 -0.643829
122.279 131.542 163.525 0.234575 -0.728326 -0.643829
122.667 131.416 163.808 0.234575 -0.728326 -0.643829
119.172 132.411 163.523 -0.430039 -0.6731 -0.601667
118.992 132.185 163.904 -0.430039 -0.6731 -0.601667
118.747 132.466 163.766 -0.430039 -0.6731 -0.601667
119.172 132.411 163.523 -0.130419 -0.637558 -0.759283
120.211 132.32 163.42 -0.130419 -0.637558 -0.759283
119.882 131.98 163.763 -0.130419 -0.637558 -0.759283
118.992 132.185 163.904 -0.269394 -0.767584 -0.581585
119.172 132.411 163.523 -0.269394 -0.767584 -0.581585
119.882 131.98 163.763 -0.269394 -0.767584 -0.581585
120.693 131.511 163.672 -0.359999 -0.465492 -0.808528
119.882 131.98 163.763 -0.359999 -0.465492 -0.808528
120.211 132.32 163.42 -0.359999 -0.465492 -0.808528
120.693 131.511 163.672 -0.258634 -0.423658 -0.868114
120.211 132.32 163.42 -0.258634 -0.423658 -0.868114
121.219 131.57 163.486 -0.258634 -0.423658 -0.868114
121.219 131.57 163.486 -0.0520836 -0.15675 -0.986264
120.211 132.32 163.42 -0.0520836 -0.15675 -0.986264
121.183 132.453 163.348 -0.0520836 -0.15675 -0.986264
122.279 131.542 163.525 0.0319613 -0.147594 -0.988531
121.219 131.57 163.486 0.0319613 -0.147594 -0.988531
122.124 132.343 163.4 0.0319613 -0.147594 -0.988531
122.124 132.343 163.4 0.0369288 -0.153296 -0.98749
121.219 131.57 163.486 0.0369288 -0.153296 -0.98749
121.183 132.453 163.348 0.0369288 -0.153296 -0.98749
123.056 131.709 163.699 0.296701 -0.65397 -0.695911
122.667 131.416 163.808 0.296701 -0.65397 -0.695911
122.279 131.542 163.525 0.296701 -0.65397 -0.695911
123.056 131.709 163.699 0.266486 -0.277837 -0.922926
122.279 131.542 163.525 0.266486 -0.277837 -0.922926
123.089 132.335 163.52 0.266486 -0.277837 -0.922926
123.089 132.335 163.52 0.120878 -0.129628 -0.984167
122.279 131.542 163.525 0.120878 -0.129628 -0.984167
122.124 132.343 163.4 0.120878 -0.129628 -0.984167
123.056 131.709 163.699 0.521779 -0.259687 -0.812594
123.089 132.335 163.52 0.521779 -0.259687 -0.812594
123.536 132.317 163.813 0.521779 -0.259687 -0.812594
117.737 133.356 163.565 -0.724504 -0.675667 -0.136263
117.792 133.242 163.837 -0.724504 -0.675667 -0.136263
117.603 133.455 163.791 -0.724504 -0.675667 -0.136263
118.747 132.466 163.766 -0.499922 -0.0564909 -0.864226
118.953 132.702 163.631 -0.499922 -0.0564909 -0.864226
119.172 132.411 163.523 -0.499922 -0.0564909 -0.864226
117.792 133.242 163.837 0.149399 -0.900924 -0.40745
117.737 133.356 163.565 0.149399 -0.900924 -0.40745
117.937 133.338 163.679 0.149399 -0.900924 -0.40745
118.953 132.702 163.631 -0.285852 0.135996 -0.948574
119.752 133.431 163.495 -0.285852 0.135996 -0.948574
119.172 132.411 163.523 -0.285852 0.135996 -0.948574
119.172 132.411 163.523 -0.0960636 0.0269999 -0.995009
119.752 133.431 163.495 -0.0960636 0.0269999 -0.995009
120.211 132.32 163.42 -0.0960636 0.0269999 -0.995009
121.183 132.453 163.348 -0.0702238 -0.0296431 -0.997091
120.211 132.32 163.42 -0.0702238 -0.0296431 -0.997091
120.994 133.333 163.335 -0.0702238 -0.0296431 -0.997091
120.994 133.333 163.335 -0.12641 0.0142432 -0.991876
120.211 132.32 163.42 -0.12641 0.0142432 -0.991876
119.752 133.431 163.495 -0.12641 0.0142432 -0.991876
122.124 132.343 163.4 0.0517292 -0.0321822 -0.998142
121.183 132.453 163.348 0.0517292 -0.0321822 -0.998142
122.065 133.324 163.366 0.0517292 -0.0321822 -0.998142
122.065 133.324 163.366 0.0284349 -0.00853138 -0.999559
121.183 132.453 163.348 0.0284349 -0.00853138 -0.999559
120.994 133.333 163.335 0.0284349 -0.00853138 -0.999559
123.089 132.335 163.52 0.12251 -0.0423885 -0.991562
122.124 132.343 163.4 0.12251 -0.0423885 -0.991562
123.052 133.289 163.474 0.12251 -0.0423885 -0.991562
123.052 133.289 163.474 0.108654 -0.0286411 -0.993667
122.124 132.343 163.4 0.108654 -0.0286411 -0.993667
122.065 133.324 163.366 0.108654 -0.0286411 -0.993667
123.722 133.128 163.763 0.534648 -0.173502 -0.827072
123.536 132.317 163.813 0.534648 -0.173502 -0.827072
123.089 132.335 163.52 0.534648 -0.173502 -0.827072
123.052 133.289 163.474 0.389199 -0.0286523 -0.920708
123.722 133.128 163.763 0.389199 -0.0286523 -0.920708
123.089 132.335 163.52 0.389199 -0.0286523 -0.920708
117.603 133.455 163.791 -0.368255 0.752027 -0.546666
117.816 133.514 163.73 -0.368255 0.752027 -0.546666
117.737 133.356 163.565 -0.368255 0.752027 -0.546666
117.937 133.338 163.679 0.456088 0.522304 -0.720543
117.737 133.356 163.565 0.456088 0.522304 -0.720543
117.816 133.514 163.73 0.456088 0.522304 -0.720543
119.584 134.566 163.778 -0.50664 0.137635 -0.851101
120.129 134.471 163.438 -0.50664 0.137635 -0.851101
119.752 133.431 163.495 -0.50664 0.137635 -0.851101
120.994 133.333 163.335 -0.124689 0.0355107 -0.99156
119.752 133.431 163.495 -0.124689 0.0355107 -0.99156
120.848 134.224 163.385 -0.124689 0.0355107 -0.99156
120.848 134.224 163.385 -0.0816984 -0.0246296 -0.996353
119.752 133.431 163.495 -0.0816984 -0.0246296 -0.996353
120.129 134.471 163.438 -0.0816984 -0.0246296 -0.996353
122.065 133.324 163.366 0.0290988 0.0759335 -0.996688
120.994 133.333 163.335 0.0290988 0.0759335 -0.996688
121.846 134.246 163.43 0.0290988 0.0759335 -0.996688
121.846 134.246 163.43 0.0426887 0.0632852 -0.997082
120.994 133.333 163.335 0.0426887 0.0632852 -0.997082
120.848 134.224 163.385 0.0426887 0.0632852 -0.997082
123.052 133.289 163.474 0.111962 0.0753222 -0.990854
122.065 133.324 163.366 0.111962 0.0753222 -0.990854
122.868 134.18 163.521 0.111962 0.0753222 -0.990854
122.868 134.18 163.521 0.0950852 0.0912245 -0.99128
122.065 133.324 163.366 0.0950852 0.0912245 -0.99128
121.846 134.246 163.43 0.0950852 0.0912245 -0.99128
123.478 134.054 163.757 0.414022 0.103957 -0.904311
123.722 133.128 163.763 0.414022 0.103957 -0.904311
123.052 133.289 163.474 0.414022 0.103957 -0.904311
122.868 134.18 163.521 0.380729 0.126834 -0.915947
123.478 134.054 163.757 0.380729 0.126834 -0.915947
123.052 133.289 163.474 0.380729 0.126834 -0.915947
120.042 135.149 163.556 -0.51697 0.0816586 -0.8521
120.129 134.471 163.438 -0.51697 0.0816586 -0.8521
119.584 134.566 163.778 -0.51697 0.0816586 -0.8521
119.825 135.296 163.85 -0.692758 0.292817 -0.659049
120.042 135.149 163.556 -0.692758 0.292817 -0.659049
119.584 134.566 163.778 -0.692758 0.292817 -0.659049
120.848 134.224 163.385 0.0136414 0.246339 -0.969088
120.129 134.471 163.438 0.0136414 0.246339 -0.969088
121.016 135.088 163.607 0.0136414 0.246339 -0.969088
121.016 135.088 163.607 0.0631186 0.178753 -0.981867
120.129 134.471 163.438 0.0631186 0.178753 -0.981867
120.042 135.149 163.556 0.0631186 0.178753 -0.981867
121.016 135.088 163.607 0.250791 0.430661 -0.866969
122.253 134.653 163.75 0.250791 0.430661 -0.866969
121.846 134.246 163.43 0.250791 0.430661 -0.866969
121.016 135.088 163.607 0.0374316 0.241844 -0.969593
121.846 134.246 163.43 0.0374316 0.241844 -0.969593
120.848 134.224 163.385 0.0374316 0.241844 -0.969593
122.868 134.18 163.521 0.110227 0.543696 -0.832012
121.846 134.246 163.43 0.110227 0.543696 -0.832012
122.253 134.653 163.75 0.110227 0.543696 -0.832012
123.084 134.556 163.802 0.115946 0.549045 -0.827711
122.868 134.18 163.521 0.115946 0.549045 -0.827711
122.253 134.653 163.75 0.115946 0.549045 -0.827711
123.478 134.054 163.757 0.401309 0.387332 -0.830015
122.868 134.18 163.521 0.401309 0.387332 -0.830015
123.084 134.556 163.802 0.401309 0.387332 -0.830015
120.042 135.149 163.556 -0.316142 0.734777 -0.600131
119.825 135.296 163.85 -0.316142 0.734777 -0.600131
120.245 135.44 163.804 -0.316142 0.734777 -0.600131
121.016 135.088 163.607 0.0801809 0.614962 -0.78447
120.042 135.149 163.556 0.0801809 0.614962 -0.78447
120.245 135.44 163.804 0.0801809 0.614962 -0.78447
121.004 135.428 163.891 0.0966072 0.639008 -0.76311
121.016 135.088 163.607 0.0966072 0.639008 -0.76311
120.245 135.44 163.804 0.0966072 0.639008 -0.76311
121.156 131.247 163.872 -0.389107 -0.905836 -0.1675
120.9 131.194 164.75 -0.389107 -0.905836 -0.1675
120.559 131.407 164.395 -0.389107 -0.905836 -0.1675
120.693 131.511 163.672 -0.416495 -0.885731 -0.204968
121.156 131.247 163.872 -0.416495 -0.885731 -0.204968
120.559 131.407 164.395 -0.416495 -0.885731 -0.204968
121.945 131.281 163.698 0.0461114 -0.998794 0.0168582
121.949 131.294 164.481 0.0461114 -0.998794 0.0168582
121.156 131.247 163.872 0.0461114 -0.998794 0.0168582
121.156 131.247 163.872 0.0855417 -0.995729 -0.034733
121.949 131.294 164.481 0.0855417 -0.995729 -0.034733
120.9 131.194 164.75 0.0855417 -0.995729 -0.034733
121.949 131.294 164.481 0.181832 -0.983201 0.0158875
121.945 131.281 163.698 0.181832 -0.983201 0.0158875
122.667 131.416 163.808 0.181832 -0.983201 0.0158875
118.992 132.185 163.904 -0.649018 -0.719957 -0.245842
118.69 132.156 164.788 -0.649018 -0.719957 -0.245842
118.473 132.471 164.436 -0.649018 -0.719957 -0.245842
118.747 132.466 163.766 -0.658361 -0.705315 -0.262852
118.992 132.185 163.904 -0.658361 -0.705315 -0.262852
118.473 132.471 164.436 -0.658361 -0.705315 -0.262852
119.882 131.98 163.763 -0.247465 -0.953071 -0.174406
119.687 131.863 164.679 -0.247465 -0.953071 -0.174406
118.992 132.185 163.904 -0.247465 -0.953071 -0.174406
118.992 132.185 163.904 -0.292624 -0.947148 -0.131463
119.687 131.863 164.679 -0.292624 -0.947148 -0.131463
118.69 132.156 164.788 -0.292624 -0.947148 -0.131463
120.559 131.407 164.395 -0.506723 -0.835038 -0.214344
119.882 131.98 163.763 -0.506723 -0.835038 -0.214344
120.693 131.511 163.672 -0.506723 -0.835038 -0.214344
119.687 131.863 164.679 -0.506489 -0.835101 -0.214652
119.882 131.98 163.763 -0.506489 -0.835101 -0.214652
120.559 131.407 164.395 -0.506489 -0.835101 -0.214652
122.667 131.416 163.808 0.511966 -0.754816 0.410053
122.946 131.983 164.506 0.511966 -0.754816 0.410053
121.949 131.294 164.481 0.511966 -0.754816 0.410053
123.056 131.709 163.699 0.62593 -0.708189 0.326619
122.946 131.983 164.506 0.62593 -0.708189 0.326619
122.667 131.416 163.808 0.62593 -0.708189 0.326619
122.946 131.983 164.506 0.717097 -0.624014 0.310449
123.056 131.709 163.699 0.717097 -0.624014 0.310449
123.536 132.317 163.813 0.717097 -0.624014 0.310449
123.455 132.592 164.477 0.730159 -0.595286 0.335412
122.946 131.983 164.506 0.730159 -0.595286 0.335412
123.536 132.317 163.813 0.730159 -0.595286 0.335412
117.792 133.242 163.837 -0.607748 -0.768448 -0.200326
117.896 132.99 164.489 -0.607748 -0.768448 -0.200326
117.419 133.349 164.558 -0.607748 -0.768448 -0.200326
117.603 133.455 163.791 -0.692528 -0.6736 -0.258199
117.792 133.242 163.837 -0.692528 -0.6736 -0.258199
117.419 133.349 164.558 -0.692528 -0.6736 -0.258199
117.792 133.242 163.837 0.156438 -0.912745 -0.377392
118.518 133.271 164.068 0.156438 -0.912745 -0.377392
117.896 132.99 164.489 0.156438 -0.912745 -0.377392
117.792 133.242 163.837 0.162318 -0.903326 -0.397058
117.937 133.338 163.679 0.162318 -0.903326 -0.397058
118.518 133.271 164.068 0.162318 -0.903326 -0.397058
117.896 132.99 164.489 -0.404127 -0.362838 -0.839661
118.518 133.271 164.068 -0.404127 -0.362838 -0.839661
118.473 132.471 164.436 -0.404127 -0.362838 -0.839661
118.953 132.702 163.631 -0.629145 0.110697 -0.769365
118.747 132.466 163.766 -0.629145 0.110697 -0.769365
118.518 133.271 164.068 -0.629145 0.110697 -0.769365
118.473 132.471 164.436 -0.91948 -0.119946 -0.374392
118.518 133.271 164.068 -0.91948 -0.119946 -0.374392
118.747 132.466 163.766 -0.91948 -0.119946 -0.374392
118.953 132.702 163.631 -0.433404 0.317067 -0.843581
118.518 133.271 164.068 -0.433404 0.317067 -0.843581
119.752 133.431 163.495 -0.433404 0.317067 -0.843581
123.536 132.317 163.813 0.956927 -0.207611 0.202949
123.722 133.128 163.763 0.956927 -0.207611 0.202949
123.455 132.592 164.477 0.956927 -0.207611 0.202949
123.455 132.592 164.477 0.95626 -0.125855 0.264061
123.722 133.128 163.763 0.95626 -0.125855 0.264061
123.579 133.516 164.466 0.95626 -0.125855 0.264061
115.766 134.393 164.632 -0.483046 -0.708522 -0.514455
116.502 134.367 163.976 -0.483046 -0.708522 -0.514455
116.476 134.3 164.092 -0.483046 -0.708522 -0.514455
115.766 134.393 164.632 -0.469323 -0.733158 -0.492155
116.476 134.3 164.092 -0.469323 -0.733158 -0.492155
115.818 134.276 164.756 -0.469323 -0.733158 -0.492155
115.818 134.276 164.756 -0.322561 -0.878745 -0.351797
116.476 134.3 164.092 -0.322561 -0.878745 -0.351797
116.596 133.98 164.784 -0.322561 -0.878745 -0.351797
116.476 134.3 164.092 -0.118082 -0.90849 -0.400877
117.525 134.117 164.199 -0.118082 -0.90849 -0.400877
116.596 133.98 164.784 -0.118082 -0.90849 -0.400877
116.476 134.3 164.092 -0.0972243 -0.853986 -0.511131
116.502 134.367 163.976 -0.0972243 -0.853986 -0.511131
117.525 134.117 164.199 -0.0972243 -0.853986 -0.511131
116.596 133.98 164.784 -0.469925 -0.320167 -0.822595
117.525 134.117 164.199 -0.469925 -0.320167 -0.822595
117.419 133.349 164.558 -0.469925 -0.320167 -0.822595
117.816 133.514 163.73 -0.362565 0.458037 -0.811633
117.603 133.455 163.791 -0.362565 0.458037 -0.811633
117.525 134.117 164.199 -0.362565 0.458037 -0.811633
117.419 133.349 164.558 -0.973099 0.0267584 -0.228826
117.525 134.117 164.199 -0.973099 0.0267584 -0.228826
117.603 133.455 163.791 -0.973099 0.0267584 -0.228826
117.816 133.514 163.73 0.509554 0.54371 -0.666884
118.518 133.271 164.068 0.509554 0.54371 -0.666884
117.937 133.338 163.679 0.509554 0.54371 -0.666884
117.816 133.514 163.73 0.4974 0.670117 -0.550941
117.525 134.117 164.199 0.4974 0.670117 -0.550941
118.518 133.271 164.068 0.4974 0.670117 -0.550941
117.525 134.117 164.199 -0.0239527 0.125697 -0.99178
118.737 134.22 164.183 -0.0239527 0.125697 -0.99178
118.518 133.271 164.068 -0.0239527 0.125697 -0.99178
119.752 133.431 163.495 -0.474755 0.146512 -0.867837
118.737 134.22 164.183 -0.474755 0.146512 -0.867837
119.584 134.566 163.778 -0.474755 0.146512 -0.867837
118.518 133.271 164.068 -0.434457 0.206193 -0.876773
118.737 134.22 164.183 -0.434457 0.206193 -0.876773
119.752 133.431 163.495 -0.434457 0.206193 -0.876773
123.722 133.128 163.763 0.96525 0.255317 0.0557322
123.478 134.054 163.757 0.96525 0.255317 0.0557322
123.579 133.516 164.466 0.96525 0.255317 0.0557322
123.579 133.516 164.466 0.916558 0.37064 0.150157
123.478 134.054 163.757 0.916558 0.37064 0.150157
123.282 134.285 164.383 0.916558 0.37064 0.150157
116.502 134.367 163.976 -0.523899 0.592265 -0.612169
115.766 134.393 164.632 -0.523899 0.592265 -0.612169
115.975 134.477 164.534 -0.523899 0.592265 -0.612169
116.502 134.367 163.976 -0.145181 0.935554 -0.321964
115.975 134.477 164.534 -0.145181 0.935554 -0.321964
116.765 134.442 164.074 -0.145181 0.935554 -0.321964
116.765 134.442 164.074 -0.17579 0.911152 -0.372692
115.975 134.477 164.534 -0.17579 0.911152 -0.372692
116.668 134.72 164.802 -0.17579 0.911152 -0.372692
117.525 134.117 164.199 0.268902 0.273406 -0.923548
116.502 134.367 163.976 0.268902 0.273406 -0.923548
116.765 134.442 164.074 0.268902 0.273406 -0.923548
117.525 134.117 164.199 0.331147 0.456609 -0.825742
116.765 134.442 164.074 0.331147 0.456609 -0.825742
117.785 134.681 164.616 0.331147 0.456609 -0.825742
117.785 134.681 164.616 -0.0268917 0.932194 -0.36096
116.765 134.442 164.074 -0.0268917 0.932194 -0.36096
116.668 134.72 164.802 -0.0268917 0.932194 -0.36096
118.737 134.22 164.183 -0.0625288 0.61117 -0.789026
117.525 134.117 164.199 -0.0625288 0.61117 -0.789026
117.785 134.681 164.616 -0.0625288 0.61117 -0.789026
118.841 134.749 164.516 -0.114033 0.544303 -0.831102
118.737 134.22 164.183 -0.114033 0.544303 -0.831102
117.785 134.681 164.616 -0.114033 0.544303 -0.831102
118.841 134.749 164.516 -0.53184 0.522856 -0.666159
119.584 134.566 163.778 -0.53184 0.522856 -0.666159
118.737 134.22 164.183 -0.53184 0.522856 -0.666159
118.841 134.749 164.516 -0.467463 0.623764 -0.626416
119.418 135.255 164.588 -0.467463 0.623764 -0.626416
119.584 134.566 163.778 -0.467463 0.623764 -0.626416
119.418 135.255 164.588 -0.837694 0.319203 -0.443147
119.825 135.296 163.85 -0.837694 0.319203 -0.443147
119.584 134.566 163.778 -0.837694 0.319203 -0.443147
122.253 134.653 163.75 0.341266 0.823475 -0.453239
121.016 135.088 163.607 0.341266 0.823475 -0.453239
121.895 135.266 164.592 0.341266 0.823475 -0.453239
121.895 135.266 164.592 0.465988 0.798175 -0.3818
122.901 134.583 164.392 0.465988 0.798175 -0.3818
122.253 134.653 163.75 0.465988 0.798175 -0.3818
122.901 134.583 164.392 0.116286 0.993184 -0.00792234
123.084 134.556 163.802 0.116286 0.993184 -0.00792234
122.253 134.653 163.75 0.116286 0.993184 -0.00792234
123.282 134.285 164.383 0.787781 0.615659 0.0191063
123.478 134.054 163.757 0.787781 0.615659 0.0191063
123.084 134.556 163.802 0.787781 0.615659 0.0191063
122.901 134.583 164.392 0.610331 0.776835 0.154996
123.282 134.285 164.383 0.610331 0.776835 0.154996
123.084 134.556 163.802 0.610331 0.776835 0.154996
119.825 135.296 163.85 -0.441669 0.875842 -0.194496
119.418 135.255 164.588 -0.441669 0.875842 -0.194496
119.956 135.55 164.696 -0.441669 0.875842 -0.194496
120.245 135.44 163.804 -0.336873 0.914891 -0.222466
119.825 135.296 163.85 -0.336873 0.914891 -0.222466
119.956 135.55 164.696 -0.336873 0.914891 -0.222466
121.004 135.428 163.891 0.0361454 0.981543 -0.187797
120.245 135.44 163.804 0.0361454 0.981543 -0.187797
120.868 135.549 164.494 0.0361454 0.981543 -0.187797
120.245 135.44 163.804 -0.0277602 0.990922 -0.131544
119.956 135.55 164.696 -0.0277602 0.990922 -0.131544
120.868 135.549 164.494 -0.0277602 0.990922 -0.131544
121.895 135.266 164.592 0.581271 0.532811 -0.61501
121.016 135.088 163.607 0.581271 0.532811 -0.61501
121.004 135.428 163.891 0.581271 0.532811 -0.61501
121.895 135.266 164.592 0.274778 0.952886 -0.128471
121.004 135.428 163.891 0.274778 0.952886 -0.128471
120.868 135.549 164.494 0.274778 0.952886 -0.128471
120.119 131.36 165.191 -0.403578 -0.909015 0.104001
120.254 131.343 165.571 -0.403578 -0.909015 0.104001
119.773 131.555 165.558 -0.403578 -0.909015 0.104001
120.119 131.36 165.191 -0.32592 -0.915928 -0.234207
120.559 131.407 164.395 -0.32592 -0.915928 -0.234207
120.9 131.194 164.75 -0.32592 -0.915928 -0.234207
120.119 131.36 165.191 -0.19289 -0.980876 0.0260048
120.9 131.194 164.75 -0.19289 -0.980876 0.0260048
120.254 131.343 165.571 -0.19289 -0.980876 0.0260048
120.254 131.343 165.571 -0.0418769 -0.988358 0.146268
120.9 131.194 164.75 -0.0418769 -0.988358 0.146268
121.173 131.274 165.366 -0.0418769 -0.988358 0.146268
122.026 131.462 165.13 0.30426 -0.857959 0.413922
121.584 131.509 165.55 0.30426 -0.857959 0.413922
121.173 131.274 165.366 0.30426 -0.857959 0.413922
122.026 131.462 165.13 0.266559 -0.940083 0.212582
121.173 131.274 165.366 0.266559 -0.940083 0.212582
121.949 131.294 164.481 0.266559 -0.940083 0.212582
121.949 131.294 164.481 0.11394 -0.990448 0.0776602
121.173 131.274 165.366 0.11394 -0.990448 0.0776602
120.9 131.194 164.75 0.11394 -0.990448 0.0776602
117.801 132.562 165.13 -0.502149 -0.774368 -0.384968
118.473 132.471 164.436 -0.502149 -0.774368 -0.384968
118.69 132.156 164.788 -0.502149 -0.774368 -0.384968
117.801 132.562 165.13 -0.460157 -0.873618 -0.158262
118.69 132.156 164.788 -0.460157 -0.873618 -0.158262
117.973 132.37 165.688 -0.460157 -0.873618 -0.158262
117.973 132.37 165.688 -0.300648 -0.953659 -0.0120875
118.69 132.156 164.788 -0.300648 -0.953659 -0.0120875
119.017 132.042 165.607 -0.300648 -0.953659 -0.0120875
119.773 131.555 165.558 -0.633504 -0.747658 -0.199202
119.687 131.863 164.679 -0.633504 -0.747658 -0.199202
120.119 131.36 165.191 -0.633504 -0.747658 -0.199202
119.773 131.555 165.558 -0.537243 -0.811189 -0.230961
119.017 132.042 165.607 -0.537243 -0.811189 -0.230961
119.687 131.863 164.679 -0.537243 -0.811189 -0.230961
119.017 132.042 165.607 -0.283787 -0.958689 -0.019523
118.69 132.156 164.788 -0.283787 -0.958689 -0.019523
119.687 131.863 164.679 -0.283787 -0.958689 -0.019523
120.559 131.407 164.395 -0.519818 -0.786495 -0.333488
120.119 131.36 165.191 -0.519818 -0.786495 -0.333488
119.687 131.863 164.679 -0.519818 -0.786495 -0.333488
122.026 131.462 165.13 0.549614 -0.540619 0.636911
122.247 131.989 165.385 0.549614 -0.540619 0.636911
121.584 131.509 165.55 0.549614 -0.540619 0.636911
122.978 132.39 164.987 0.578548 -0.299864 0.758528
122.395 132.577 165.505 0.578548 -0.299864 0.758528
122.247 131.989 165.385 0.578548 -0.299864 0.758528
122.946 131.983 164.506 0.609468 -0.625109 0.487635
122.978 132.39 164.987 0.609468 -0.625109 0.487635
122.247 131.989 165.385 0.609468 -0.625109 0.487635
122.946 131.983 164.506 0.660512 -0.534202 0.527591
122.247 131.989 165.385 0.660512 -0.534202 0.527591
122.026 131.462 165.13 0.660512 -0.534202 0.527591
122.946 131.983 164.506 0.560386 -0.815371 0.145387
122.026 131.462 165.13 0.560386 -0.815371 0.145387
121.949 131.294 164.481 0.560386 -0.815371 0.145387
122.946 131.983 164.506 0.701439 -0.566803 0.432109
123.455 132.592 164.477 0.701439 -0.566803 0.432109
122.978 132.39 164.987 0.701439 -0.566803 0.432109
117.801 132.562 165.13 -0.606787 -0.790383 -0.0842886
117.973 132.37 165.688 -0.606787 -0.790383 -0.0842886
116.939 133.165 165.683 -0.606787 -0.790383 -0.0842886
117.801 132.562 165.13 -0.68267 -0.616203 -0.392754
116.939 133.165 165.683 -0.68267 -0.616203 -0.392754
117.419 133.349 164.558 -0.68267 -0.616203 -0.392754
117.801 132.562 165.13 -0.561885 -0.646921 -0.515537
117.419 133.349 164.558 -0.561885 -0.646921 -0.515537
117.896 132.99 164.489 -0.561885 -0.646921 -0.515537
118.473 132.471 164.436 -0.603132 -0.619037 -0.503016
117.801 132.562 165.13 -0.603132 -0.619037 -0.503016
117.896 132.99 164.489 -0.603132 -0.619037 -0.503016
123.077 133.184 165.058 0.630676 -0.146817 0.762032
122.395 132.577 165.505 0.630676 -0.146817 0.762032
122.978 132.39 164.987 0.630676 -0.146817 0.762032
122.403 133.533 165.522 0.560328 -0.019087 0.828051
122.395 132.577 165.505 0.560328 -0.019087 0.828051
123.077 133.184 165.058 0.560328 -0.019087 0.828051
123.455 132.592 164.477 0.784983 -0.0985793 0.611624
123.579 133.516 164.466 0.784983 -0.0985793 0.611624
123.077 133.184 165.058 0.784983 -0.0985793 0.611624
122.978 132.39 164.987 0.750913 -0.151012 0.642903
123.455 132.592 164.477 0.750913 -0.151012 0.642903
123.077 133.184 165.058 0.750913 -0.151012 0.642903
115.818 134.276 164.756 -0.657755 -0.751677 -0.0483729
115.878 134.175 165.501 -0.657755 -0.751677 -0.0483729
115.651 134.377 165.464 -0.657755 -0.751677 -0.0483729
115.766 134.393 164.632 -0.848806 -0.513191 -0.127132
115.818 134.276 164.756 -0.848806 -0.513191 -0.127132
115.651 134.377 165.464 -0.848806 -0.513191 -0.127132
116.392 133.667 165.741 -0.651998 -0.668805 -0.35721
116.596 133.98 164.784 -0.651998 -0.668805 -0.35721
116.939 133.165 165.683 -0.651998 -0.668805 -0.35721
116.392 133.667 165.741 -0.564764 -0.741431 -0.362382
115.878 134.175 165.501 -0.564764 -0.741431 -0.362382
116.596 133.98 164.784 -0.564764 -0.741431 -0.362382
115.878 134.175 165.501 -0.351567 -0.931052 -0.097685
115.818 134.276 164.756 -0.351567 -0.931052 -0.097685
116.596 133.98 164.784 -0.351567 -0.931052 -0.097685
117.419 133.349 164.558 -0.625577 -0.681856 -0.379112
116.939 133.165 165.683 -0.625577 -0.681856 -0.379112
116.596 133.98 164.784 -0.625577 -0.681856 -0.379112
122.906 134.293 164.963 0.615031 0.161051 0.77188
122.403 133.533 165.522 0.615031 0.161051 0.77188
123.077 133.184 165.058 0.615031 0.161051 0.77188
122.254 134.397 165.525 0.659197 0.11106 0.743724
122.403 133.533 165.522 0.659197 0.11106 0.743724
122.906 134.293 164.963 0.659197 0.11106 0.743724
123.579 133.516 164.466 0.785582 0.358614 0.50424
123.282 134.285 164.383 0.785582 0.358614 0.50424
122.906 134.293 164.963 0.785582 0.358614 0.50424
123.077 133.184 165.058 0.702901 0.167629 0.691253
123.579 133.516 164.466 0.702901 0.167629 0.691253
122.906 134.293 164.963 0.702901 0.167629 0.691253
115.766 134.393 164.632 -0.730411 0.67739 -0.0874241
115.651 134.377 165.464 -0.730411 0.67739 -0.0874241
115.89 134.63 165.43 -0.730411 0.67739 -0.0874241
115.975 134.477 164.534 -0.442161 0.876292 -0.191325
115.766 134.393 164.632 -0.442161 0.876292 -0.191325
115.89 134.63 165.43 -0.442161 0.876292 -0.191325
116.601 135.206 165.495 -0.540637 0.71667 -0.440564
115.89 134.63 165.43 -0.540637 0.71667 -0.440564
116.262 135.203 165.905 -0.540637 0.71667 -0.440564
116.601 135.206 165.495 -0.505212 0.68281 -0.527761
116.668 134.72 164.802 -0.505212 0.68281 -0.527761
115.89 134.63 165.43 -0.505212 0.68281 -0.527761
116.668 134.72 164.802 -0.260406 0.947359 -0.18628
115.975 134.477 164.534 -0.260406 0.947359 -0.18628
115.89 134.63 165.43 -0.260406 0.947359 -0.18628
116.668 134.72 164.802 -0.0699395 0.803291 -0.591467
117.598 135.322 165.509 -0.0699395 0.803291 -0.591467
117.785 134.681 164.616 -0.0699395 0.803291 -0.591467
116.601 135.206 165.495 -0.0863008 0.811942 -0.577323
117.598 135.322 165.509 -0.0863008 0.811942 -0.577323
116.668 134.72 164.802 -0.0863008 0.811942 -0.577323
117.785 134.681 164.616 -0.109012 0.781074 -0.614849
118.615 135.23 165.166 -0.109012 0.781074 -0.614849
118.841 134.749 164.516 -0.109012 0.781074 -0.614849
117.598 135.322 165.509 -0.129004 0.792481 -0.596097
118.615 135.23 165.166 -0.129004 0.792481 -0.596097
117.785 134.681 164.616 -0.129004 0.792481 -0.596097
118.841 134.749 164.516 -0.468738 0.62492 -0.624307
118.615 135.23 165.166 -0.468738 0.62492 -0.624307
119.418 135.255 164.588 -0.468738 0.62492 -0.624307
122.16 135.058 165.344 0.490699 0.451932 0.744965
121.707 135.315 165.486 0.490699 0.451932 0.744965
121.934 134.829 165.632 0.490699 0.451932 0.744965
122.254 134.397 165.525 0.62879 0.287478 0.722481
122.16 135.058 165.344 0.62879 0.287478 0.722481
121.934 134.829 165.632 0.62879 0.287478 0.722481
122.906 134.293 164.963 0.651707 0.285318 0.70276
122.16 135.058 165.344 0.651707 0.285318 0.70276
122.254 134.397 165.525 0.651707 0.285318 0.70276
122.906 134.293 164.963 0.702083 0.710218 -0.0516726
121.895 135.266 164.592 0.702083 0.710218 -0.0516726
122.16 135.058 165.344 0.702083 0.710218 -0.0516726
122.906 134.293 164.963 0.571609 0.733947 0.36686
122.901 134.583 164.392 0.571609 0.733947 0.36686
121.895 135.266 164.592 0.571609 0.733947 0.36686
123.282 134.285 164.383 0.578548 0.729621 0.364604
122.901 134.583 164.392 0.578548 0.729621 0.364604
122.906 134.293 164.963 0.578548 0.729621 0.364604
116.601 135.206 165.495 -0.425677 0.836642 -0.344715
116.262 135.203 165.905 -0.425677 0.836642 -0.344715
116.697 135.429 165.917 -0.425677 0.836642 -0.344715
117.598 135.322 165.509 -0.0971038 0.889131 -0.447233
116.601 135.206 165.495 -0.0971038 0.889131 -0.447233
116.697 135.429 165.917 -0.0971038 0.889131 -0.447233
118.814 135.469 165.643 -0.0619633 0.902324 -0.426581
118.615 135.23 165.166 -0.0619633 0.902324 -0.426581
117.598 135.322 165.509 -0.0619633 0.902324 -0.426581
119.418 135.255 164.588 -0.271504 0.900988 -0.338387
118.615 135.23 165.166 -0.271504 0.900988 -0.338387
118.814 135.469 165.643 -0.271504 0.900988 -0.338387
119.418 135.255 164.588 -0.381873 0.83839 -0.388942
118.814 135.469 165.643 -0.381873 0.83839 -0.388942
119.956 135.55 164.696 -0.381873 0.83839 -0.388942
119.956 135.55 164.696 -0.0381868 0.99849 0.0394845
118.814 135.469 165.643 -0.0381868 0.99849 0.0394845
119.799 135.506 165.663 -0.0381868 0.99849 0.0394845
120.868 135.549 164.494 -0.00691477 0.999265 -0.0376971
119.956 135.55 164.696 -0.00691477 0.999265 -0.0376971
120.87 135.583 165.419 -0.00691477 0.999265 -0.0376971
119.956 135.55 164.696 -0.0644179 0.997303 0.0351824
119.799 135.506 165.663 -0.0644179 0.997303 0.0351824
120.87 135.583 165.419 -0.0644179 0.997303 0.0351824
121.707 135.315 165.486 0.506359 0.860311 0.058868
122.16 135.058 165.344 0.506359 0.860311 0.058868
121.895 135.266 164.592 0.506359 0.860311 0.058868
121.707 135.315 165.486 0.304244 0.952528 0.0112287
121.895 135.266 164.592 0.304244 0.952528 0.0112287
120.87 135.583 165.419 0.304244 0.952528 0.0112287
120.87 135.583 165.419 0.268642 0.962538 -0.0367863
121.895 135.266 164.592 0.268642 0.962538 -0.0367863
120.868 135.549 164.494 0.268642 0.962538 -0.0367863
120.254 131.343 165.571 -0.33878 -0.731252 0.592029
119.936 132.077 166.295 -0.33878 -0.731252 0.592029
119.773 131.555 165.558 -0.33878 -0.731252 0.592029
120.254 131.343 165.571 0.0788945 -0.781834 0.618475
121.173 131.274 165.366 0.0788945 -0.781834 0.618475
120.963 131.581 165.781 0.0788945 -0.781834 0.618475
119.936 132.077 166.295 0.0216172 -0.697404 0.716352
120.254 131.343 165.571 0.0216172 -0.697404 0.716352
120.963 131.581 165.781 0.0216172 -0.697404 0.716352
121.173 131.274 165.366 0.148294 -0.757599 0.635652
121.584 131.509 165.55 0.148294 -0.757599 0.635652
120.963 131.581 165.781 0.148294 -0.757599 0.635652
118.823 132.323 166.433 -0.27237 -0.928769 0.251402
117.973 132.37 165.688 -0.27237 -0.928769 0.251402
119.017 132.042 165.607 -0.27237 -0.928769 0.251402
119.936 132.077 166.295 -0.411868 -0.698638 0.585038
119.017 132.042 165.607 -0.411868 -0.698638 0.585038
119.773 131.555 165.558 -0.411868 -0.698638 0.585038
119.936 132.077 166.295 -0.173774 -0.944189 0.279839
118.823 132.323 166.433 -0.173774 -0.944189 0.279839
119.017 132.042 165.607 -0.173774 -0.944189 0.279839
119.936 132.077 166.295 0.233132 -0.546843 0.804122
121.01 132.41 166.21 0.233132 -0.546843 0.804122
120.283 132.626 166.568 0.233132 -0.546843 0.804122
119.936 132.077 166.295 0.210562 -0.458688 0.863289
120.963 131.581 165.781 0.210562 -0.458688 0.863289
121.01 132.41 166.21 0.210562 -0.458688 0.863289
121.584 131.509 165.55 0.458572 -0.353959 0.815123
122.247 131.989 165.385 0.458572 -0.353959 0.815123
121.834 132.203 165.711 0.458572 -0.353959 0.815123
121.584 131.509 165.55 0.298052 -0.316235 0.900644
121.834 132.203 165.711 0.298052 -0.316235 0.900644
120.963 131.581 165.781 0.298052 -0.316235 0.900644
120.963 131.581 165.781 0.38085 -0.441884 0.812215
121.834 132.203 165.711 0.38085 -0.441884 0.812215
121.01 132.41 166.21 0.38085 -0.441884 0.812215
122.247 131.989 165.385 0.49431 -0.291095 0.819098
122.395 132.577 165.505 0.49431 -0.291095 0.819098
121.834 132.203 165.711 0.49431 -0.291095 0.819098
116.939 133.165 165.683 -0.618544 -0.781277 0.0837189
116.929 133.275 166.644 -0.618544 -0.781277 0.0837189
116.552 133.565 166.561 -0.618544 -0.781277 0.0837189
116.392 133.667 165.741 -0.673506 -0.738106 0.0398574
116.939 133.165 165.683 -0.673506 -0.738106 0.0398574
116.552 133.565 166.561 -0.673506 -0.738106 0.0398574
117.973 132.37 165.688 -0.566755 -0.735525 0.371203
117.772 132.948 166.525 -0.566755 -0.735525 0.371203
116.939 133.165 165.683 -0.566755 -0.735525 0.371203
117.772 132.948 166.525 -0.347619 -0.931892 0.103629
116.929 133.275 166.644 -0.347619 -0.931892 0.103629
116.939 133.165 165.683 -0.347619 -0.931892 0.103629
118.823 132.323 166.433 -0.430153 -0.788145 0.440222
117.772 132.948 166.525 -0.430153 -0.788145 0.440222
117.973 132.37 165.688 -0.430153 -0.788145 0.440222
121.052 133.353 166.279 0.419521 -0.0851946 0.903739
120.283 132.626 166.568 0.419521 -0.0851946 0.903739
121.01 132.41 166.21 0.419521 -0.0851946 0.903739
120.377 133.546 166.588 0.40069 -0.0611116 0.914174
120.283 132.626 166.568 0.40069 -0.0611116 0.914174
121.052 133.353 166.279 0.40069 -0.0611116 0.914174
121.834 132.203 165.711 0.484044 -0.150173 0.862061
121.895 133.138 165.84 0.484044 -0.150173 0.862061
121.01 132.41 166.21 0.484044 -0.150173 0.862061
121.895 133.138 165.84 0.44336 -0.0854099 0.892265
121.052 133.353 166.279 0.44336 -0.0854099 0.892265
121.01 132.41 166.21 0.44336 -0.0854099 0.892265
122.395 132.577 165.505 0.540856 -0.0191571 0.840897
122.403 133.533 165.522 0.540856 -0.0191571 0.840897
121.895 133.138 165.84 0.540856 -0.0191571 0.840897
121.834 132.203 165.711 0.4272 -0.150474 0.891548
122.395 132.577 165.505 0.4272 -0.150474 0.891548
121.895 133.138 165.84 0.4272 -0.150474 0.891548
115.878 134.175 165.501 -0.638211 -0.640962 0.426443
116.217 134.457 166.432 -0.638211 -0.640962 0.426443
115.651 134.377 165.464 -0.638211 -0.640962 0.426443
115.878 134.175 165.501 -0.728782 -0.535047 0.427319
116.392 133.667 165.741 -0.728782 -0.535047 0.427319
116.217 134.457 166.432 -0.728782 -0.535047 0.427319
116.392 133.667 165.741 -0.93337 -0.32999 0.141166
116.552 133.565 166.561 -0.93337 -0.32999 0.141166
116.217 134.457 166.432 -0.93337 -0.32999 0.141166
120.861 134.346 166.243 0.44062 0.116924 0.890046
120.377 133.546 166.588 0.44062 0.116924 0.890046
121.052 133.353 166.279 0.44062 0.116924 0.890046
120.151 134.388 166.555 0.404931 0.144029 0.902932
120.377 133.546 166.588 0.404931 0.144029 0.902932
120.861 134.346 166.243 0.404931 0.144029 0.902932
121.895 133.138 165.84 0.473619 0.0619407 0.878549
121.824 134.211 165.802 0.473619 0.0619407 0.878549
121.052 133.353 166.279 0.473619 0.0619407 0.878549
121.824 134.211 165.802 0.426702 0.114502 0.897114
120.861 134.346 166.243 0.426702 0.114502 0.897114
121.052 133.353 166.279 0.426702 0.114502 0.897114
122.403 133.533 165.522 0.513675 0.0856912 0.853695
122.254 134.397 165.525 0.513675 0.0856912 0.853695
121.824 134.211 165.802 0.513675 0.0856912 0.853695
121.895 133.138 165.84 0.493584 0.0628719 0.867423
122.403 133.533 165.522 0.493584 0.0628719 0.867423
121.824 134.211 165.802 0.493584 0.0628719 0.867423
116.262 135.203 165.905 -0.77416 -0.333727 -0.537868
116.217 134.457 166.432 -0.77416 -0.333727 -0.537868
115.845 135.217 166.496 -0.77416 -0.333727 -0.537868
115.651 134.377 165.464 -0.663555 0.670326 0.332202
116.217 134.457 166.432 -0.663555 0.670326 0.332202
115.89 134.63 165.43 -0.663555 0.670326 0.332202
115.89 134.63 165.43 -0.891988 0.29544 0.342158
116.217 134.457 166.432 -0.891988 0.29544 0.342158
116.262 135.203 165.905 -0.891988 0.29544 0.342158
119.088 135.316 166.342 0.226854 0.693721 0.683585
118.393 135.368 166.519 0.226854 0.693721 0.683585
118.751 135.097 166.676 0.226854 0.693721 0.683585
119.088 135.316 166.342 0.198828 0.541677 0.816734
119.59 134.722 166.614 0.198828 0.541677 0.816734
120.109 135.176 166.186 0.198828 0.541677 0.816734
118.751 135.097 166.676 0.325115 0.606539 0.725542
119.59 134.722 166.614 0.325115 0.606539 0.725542
119.088 135.316 166.342 0.325115 0.606539 0.725542
120.151 134.388 166.555 0.335052 0.413963 0.846389
120.109 135.176 166.186 0.335052 0.413963 0.846389
119.59 134.722 166.614 0.335052 0.413963 0.846389
120.151 134.388 166.555 0.387316 0.407647 0.826928
120.861 134.346 166.243 0.387316 0.407647 0.826928
120.109 135.176 166.186 0.387316 0.407647 0.826928
120.861 134.346 166.243 0.28038 0.316217 0.906308
121.162 135.127 165.878 0.28038 0.316217 0.906308
120.109 135.176 166.186 0.28038 0.316217 0.906308
121.934 134.829 165.632 0.421139 0.434822 0.795972
121.707 135.315 165.486 0.421139 0.434822 0.795972
121.162 135.127 165.878 0.421139 0.434822 0.795972
121.934 134.829 165.632 0.362599 0.187007 0.91299
121.162 135.127 165.878 0.362599 0.187007 0.91299
121.824 134.211 165.802 0.362599 0.187007 0.91299
121.824 134.211 165.802 0.431683 0.240569 0.869354
121.162 135.127 165.878 0.431683 0.240569 0.869354
120.861 134.346 166.243 0.431683 0.240569 0.869354
122.254 134.397 165.525 0.489299 0.149823 0.85915
121.934 134.829 165.632 0.489299 0.149823 0.85915
121.824 134.211 165.802 0.489299 0.149823 0.85915
116.262 135.203 165.905 -0.769331 0.324977 -0.550017
115.845 135.217 166.496 -0.769331 0.324977 -0.550017
115.953 135.38 166.442 -0.769331 0.324977 -0.550017
116.262 135.203 165.905 -0.393189 0.781715 -0.48407
115.953 135.38 166.442 -0.393189 0.781715 -0.48407
116.697 135.429 165.917 -0.393189 0.781715 -0.48407
116.697 135.429 165.917 -0.0462821 0.998526 0.0283585
115.953 135.38 166.442 -0.0462821 0.998526 0.0283585
116.556 135.404 166.588 -0.0462821 0.998526 0.0283585
117.598 135.322 165.509 0.0752959 0.992709 -0.0941239
116.697 135.429 165.917 0.0752959 0.992709 -0.0941239
117.584 135.412 166.446 0.0752959 0.992709 -0.0941239
116.697 135.429 165.917 -0.00300504 0.999293 0.0374679
116.556 135.404 166.588 -0.00300504 0.999293 0.0374679
117.584 135.412 166.446 -0.00300504 0.999293 0.0374679
118.393 135.368 166.519 0.116578 0.978855 0.168087
119.088 135.316 166.342 0.116578 0.978855 0.168087
118.814 135.469 165.643 0.116578 0.978855 0.168087
118.393 135.368 166.519 0.0413116 0.990221 0.133247
118.814 135.469 165.643 0.0413116 0.990221 0.133247
117.584 135.412 166.446 0.0413116 0.990221 0.133247
117.584 135.412 166.446 -0.108761 0.989382 -0.0964053
118.814 135.469 165.643 -0.108761 0.989382 -0.0964053
117.598 135.322 165.509 -0.108761 0.989382 -0.0964053
119.799 135.506 165.663 -0.0410408 0.972667 0.22855
118.814 135.469 165.643 -0.0410408 0.972667 0.22855
119.088 135.316 166.342 -0.0410408 0.972667 0.22855
120.109 135.176 166.186 0.187725 0.877418 0.441472
119.799 135.506 165.663 0.187725 0.877418 0.441472
119.088 135.316 166.342 0.187725 0.877418 0.441472
120.87 135.583 165.419 0.0536354 0.859025 0.509116
119.799 135.506 165.663 0.0536354 0.859025 0.509116
120.109 135.176 166.186 0.0536354 0.859025 0.509116
121.162 135.127 165.878 0.215981 0.757428 0.616162
120.87 135.583 165.419 0.215981 0.757428 0.616162
120.109 135.176 166.186 0.215981 0.757428 0.616162
121.707 135.315 165.486 0.190638 0.753878 0.628749
120.87 135.583 165.419 0.190638 0.753878 0.628749
121.162 135.127 165.878 0.190638 0.753878 0.628749
118.823 132.323 166.433 -0.0726563 -0.717654 0.692599
119.936 132.077 166.295 -0.0726563 -0.717654 0.692599
119.658 132.449 166.651 -0.0726563 -0.717654 0.692599
118.794 132.71 166.81 -0.080333 -0.698544 0.711043
118.823 132.323 166.433 -0.080333 -0.698544 0.711043
119.658 132.449 166.651 -0.080333 -0.698544 0.711043
119.936 132.077 166.295 0.263244 -0.557528 0.787315
120.283 132.626 166.568 0.263244 -0.557528 0.787315
119.658 132.449 166.651 0.263244 -0.557528 0.787315
116.929 133.275 166.644 -0.595414 -0.635552 0.491483
116.847 133.655 167.036 -0.595414 -0.635552 0.491483
116.552 133.565 166.561 -0.595414 -0.635552 0.491483
116.929 133.275 166.644 -0.214466 -0.769497 0.601563
117.772 132.948 166.525 -0.214466 -0.769497 0.601563
117.823 133.442 167.175 -0.214466 -0.769497 0.601563
116.847 133.655 167.036 -0.250227 -0.7208 0.646401
116.929 133.275 166.644 -0.250227 -0.7208 0.646401
117.823 133.442 167.175 -0.250227 -0.7208 0.646401
117.772 132.948 166.525 -0.339914 -0.668937 0.661046
118.823 132.323 166.433 -0.339914 -0.668937 0.661046
118.794 132.71 166.81 -0.339914 -0.668937 0.661046
117.772 132.948 166.525 -0.335094 -0.737382 0.586497
118.794 132.71 166.81 -0.335094 -0.737382 0.586497
117.823 133.442 167.175 -0.335094 -0.737382 0.586497
117.823 133.442 167.175 0.130497 -0.298682 0.945389
118.794 132.71 166.81 0.130497 -0.298682 0.945389
118.912 133.469 167.033 0.130497 -0.298682 0.945389
119.658 132.449 166.651 0.133771 -0.152849 0.979154
119.74 133.18 166.754 0.133771 -0.152849 0.979154
118.794 132.71 166.81 0.133771 -0.152849 0.979154
119.74 133.18 166.754 0.206981 -0.305855 0.929307
118.912 133.469 167.033 0.206981 -0.305855 0.929307
118.794 132.71 166.81 0.206981 -0.305855 0.929307
120.283 132.626 166.568 0.278369 -0.0494787 0.959199
120.377 133.546 166.588 0.278369 -0.0494787 0.959199
119.74 133.18 166.754 0.278369 -0.0494787 0.959199
119.658 132.449 166.651 0.173765 -0.15633 0.9723
120.283 132.626 166.568 0.173765 -0.15633 0.9723
119.74 133.18 166.754 0.173765 -0.15633 0.9723
116.847 133.655 167.036 -0.464433 -0.586029 0.663982
116.787 134.262 167.529 -0.464433 -0.586029 0.663982
116.575 134.229 167.351 -0.464433 -0.586029 0.663982
116.847 133.655 167.036 -0.636575 -0.581344 0.506766
116.575 134.229 167.351 -0.636575 -0.581344 0.506766
116.552 133.565 166.561 -0.636575 -0.581344 0.506766
116.552 133.565 166.561 -0.911442 -0.301713 0.27972
116.575 134.229 167.351 -0.911442 -0.301713 0.27972
116.217 134.457 166.432 -0.911442 -0.301713 0.27972
116.787 134.262 167.529 0.326427 -0.22569 0.917883
117.484 134.37 167.308 0.326427 -0.22569 0.917883
116.917 134.521 167.546 0.326427 -0.22569 0.917883
116.787 134.262 167.529 0.32716 -0.57633 0.748873
116.847 133.655 167.036 0.32716 -0.57633 0.748873
117.484 134.37 167.308 0.32716 -0.57633 0.748873
116.847 133.655 167.036 -0.181924 -0.203726 0.961977
117.823 133.442 167.175 -0.181924 -0.203726 0.961977
117.484 134.37 167.308 -0.181924 -0.203726 0.961977
118.912 133.469 167.033 0.122395 0.177686 0.976446
118.68 134.361 166.9 0.122395 0.177686 0.976446
117.823 133.442 167.175 0.122395 0.177686 0.976446
118.68 134.361 166.9 0.322228 -0.0175571 0.946499
117.484 134.37 167.308 0.322228 -0.0175571 0.946499
117.823 133.442 167.175 0.322228 -0.0175571 0.946499
119.74 133.18 166.754 0.327749 0.0248814 0.944437
119.716 134.092 166.738 0.327749 0.0248814 0.944437
118.912 133.469 167.033 0.327749 0.0248814 0.944437
119.716 134.092 166.738 0.201051 0.195744 0.959824
118.68 134.361 166.9 0.201051 0.195744 0.959824
118.912 133.469 167.033 0.201051 0.195744 0.959824
120.377 133.546 166.588 0.314194 0.121138 0.941598
120.151 134.388 166.555 0.314194 0.121138 0.941598
119.716 134.092 166.738 0.314194 0.121138 0.941598
119.74 133.18 166.754 0.239773 0.0230235 0.970556
120.377 133.546 166.588 0.239773 0.0230235 0.970556
119.716 134.092 166.738 0.239773 0.0230235 0.970556
116.539 134.706 167.38 -0.935494 -0.0906174 0.341526
116.217 134.457 166.432 -0.935494 -0.0906174 0.341526
116.575 134.229 167.351 -0.935494 -0.0906174 0.341526
116.539 134.706 167.38 -0.822981 -0.414467 0.388483
115.992 135.209 166.756 -0.822981 -0.414467 0.388483
116.217 134.457 166.432 -0.822981 -0.414467 0.388483
116.539 134.706 167.38 -0.228163 0.650465 0.724457
116.842 135.151 167.077 -0.228163 0.650465 0.724457
115.992 135.209 166.756 -0.228163 0.650465 0.724457
115.992 135.209 166.756 -0.793805 -0.425547 0.434492
115.845 135.217 166.496 -0.793805 -0.425547 0.434492
116.217 134.457 166.432 -0.793805 -0.425547 0.434492
116.917 134.521 167.546 -0.0633613 0.592119 0.803356
116.842 135.151 167.077 -0.0633613 0.592119 0.803356
116.539 134.706 167.38 -0.0633613 0.592119 0.803356
116.917 134.521 167.546 0.443556 0.569762 0.69183
117.484 134.37 167.308 0.443556 0.569762 0.69183
116.842 135.151 167.077 0.443556 0.569762 0.69183
117.484 134.37 167.308 0.163065 0.400956 0.901468
117.869 135.149 166.891 0.163065 0.400956 0.901468
116.842 135.151 167.077 0.163065 0.400956 0.901468
118.751 135.097 166.676 0.211303 0.682492 0.699683
118.393 135.368 166.519 0.211303 0.682492 0.699683
117.869 135.149 166.891 0.211303 0.682492 0.699683
118.751 135.097 166.676 0.24339 0.261038 0.934142
117.869 135.149 166.891 0.24339 0.261038 0.934142
118.68 134.361 166.9 0.24339 0.261038 0.934142
118.68 134.361 166.9 0.306961 0.325904 0.894182
117.869 135.149 166.891 0.306961 0.325904 0.894182
117.484 134.37 167.308 0.306961 0.325904 0.894182
119.59 134.722 166.614 0.190443 0.269201 0.944067
118.751 135.097 166.676 0.190443 0.269201 0.944067
118.68 134.361 166.9 0.190443 0.269201 0.944067
119.716 134.092 166.738 0.208362 0.229322 0.950787
119.59 134.722 166.614 0.208362 0.229322 0.950787
118.68 134.361 166.9 0.208362 0.229322 0.950787
120.151 134.388 166.555 0.237982 0.233659 0.942745
119.59 134.722 166.614 0.237982 0.233659 0.942745
119.716 134.092 166.738 0.237982 0.233659 0.942745
115.845 135.217 166.496 -0.692093 0.595561 0.407817
115.992 135.209 166.756 -0.692093 0.595561 0.407817
115.953 135.38 166.442 -0.692093 0.595561 0.407817
116.556 135.404 166.588 -0.151592 0.86089 0.485684
115.953 135.38 166.442 -0.151592 0.86089 0.485684
115.992 135.209 166.756 -0.151592 0.86089 0.485684
116.842 135.151 167.077 -0.136694 0.844916 0.517138
116.556 135.404 166.588 -0.136694 0.844916 0.517138
115.992 135.209 166.756 -0.136694 0.844916 0.517138
117.584 135.412 166.446 0.0524236 0.899037 0.434723
116.556 135.404 166.588 0.0524236 0.899037 0.434723
116.842 135.151 167.077 0.0524236 0.899037 0.434723
117.869 135.149 166.891 0.0849193 0.880949 0.465529
117.584 135.412 166.446 0.0849193 0.880949 0.465529
116.842 135.151 167.077 0.0849193 0.880949 0.465529
118.393 135.368 166.519 0.000510347 0.861327 0.508051
117.584 135.412 166.446 0.000510347 0.861327 0.508051
117.869 135.149 166.891 0.000510347 0.861327 0.508051
116.787 134.262 167.529 -0.405708 -0.67963 0.61115
116.664 134.415 167.618 -0.405708 -0.67963 0.61115
116.575 134.229 167.351 -0.405708 -0.67963 0.61115
116.787 134.262 167.529 0.355863 -0.23947 0.903336
116.917 134.521 167.546 0.355863 -0.23947 0.903336
116.664 134.415 167.618 0.355863 -0.23947 0.903336
116.575 134.229 167.351 -0.923411 -0.0915871 0.372725
116.664 134.415 167.618 -0.923411 -0.0915871 0.372725
116.539 134.706 167.38 -0.923411 -0.0915871 0.372725
116.917 134.521 167.546 -0.0387621 0.622707 0.781494
116.539 134.706 167.38 -0.0387621 0.622707 0.781494
116.664 134.415 167.618 -0.0387621 0.622707 0.781494
3 0 1 2
3 3 4 5
3 6 7 8
3 9 10 11
3 12 13 14
3 15 16 17
3 18 19 20
3 21 22 23
3 24 25 26
3 27 28 29
3 30 31 32
3 33 34 35
3 36 37 38
3 39 40 41
3 42 43 44
3 45 46 47
3 48 49 50
3 51 52 53
3 54 55 56
3 57 58 59
3 60 61 62
3 63 64 65
3 66 67 68
3 69 70 71
3 72 73 74
3 75 76 77
3 78 79 80
3 81 82 83
3 84 85 86
3 87 88 89
3 90 91 92
3 93 94 95
3 96 97 98
3 99 100 101
3 102 103 104
3 105 106 107
3 108 109 110
3 111 112 113
3 114 115 116
3 117 118 119
3 120 121 122
3 123 124 125
3 126 127 128
3 129 130 131
3 132 133 134
3 135 136 137
3 138 139 140
3 141 142 143
3 144 145 146
3 147 148 149
3 150 151 152
3 153 154 155
3 156 157 158
3 159 160 161
3 162 163 164
3 165 166 167
3 168 169 170
3 171 172 173
3 174 175 176
3 177 178 179
3 180 181 182
3 183 184 185
3 186 187 188
3 189 190 191
3 192 193 194
3 195 196 197
3 198 199 200
3 201 202 203
3 204 205 206
3 207 208 209
3 210 211 212
3 213 214 215
3 216 217 218
3 219 220 221
3 222 223 224
3 225 226 227
3 228 229 230
3 231 232 233
3 234 235 236
3 237 238 239
3 240 241 242
3 243 244 245
3 246 247 248
3 249 250 251
3 252 253 254
3 255 256 257
3 258 259 260
3 261 262 263
3 264 265 266
3 267 268 269
3 270 271 272
3 273 274 275
3 276 277 278
3 279 280 281
3 282 283 284
3 285 286 287
3 288 289 290
3 291 292 293
3 294 295 296
3 297 298 299
3 300 301 302
3 303 304 305
3 306 307 308
3 309 310 311
3 312 313 314
3 315 316 317
3 318 319 320
3 321 322 323
3 324 325 326
3 327 328 329
3 330 331 332
3 333 334 335
3 336 337 338
3 339 340 341
3 342 343 344
3 345 346 347
3 348 349 350
3 351 352 353
3 354 355 356
3 357 358 359
3 360 361 362
3 363 364 365
3 366 367 368
3 369 370 371
3 372 373 374
3 375 376 377
3 378 379 380
3 381 382 383
3 384 385 386
3 387 388 389
3 390 391 392
3 393 394 395
3 396 397 398
3 399 400 401
3 402 403 404
3 405 406 407
3 408 409 410
3 411 412 413
3 414 415 416
3 417 418 419
3 420 421 422
3 423 424 425
3 426 427 428
3 429 430 431
3 432 433 434
3 435 436 437
3 438 439 440
3 441 442 443
3 444 445 446
3 447 448 449
3 450 451 452
3 453 454 455
3 456 457 458
3 459 460 461
3 462 463 464
3 465 466 467
3 468 469 470
3 471 472 473
3 474 475 476
3 477 478 479
3 480 481 482
3 483 484 485
3 486 487 488
3 489 490 491
3 492 493 494
3 495 496 497
3 498 499 500
3 501 502 503
3 504 505 506
3 507 508 509
3 510 511 512
3 513 514 515
3 516 517 518
3 519 520 521
3 522 523 524
3 525 526 527
3 528 529 530
3 531 532 533
3 534 535 536
3 537 538 539
3 540 541 542
3 543 544 545
3 546 547 548
3 549 550 551
3 552 553 554
3 555 556 557
3 558 559 560
3 561 562 563
3 564 565 566
3 567 568 569
3 570 571 572
3 573 574 575
3 576 577 578
3 579 580 581
3 582 583 584
3 585 586 587
3 588 589 590
3 591 592 593
3 594 595 596
3 597 598 599
3 600 601 602
3 603 604 605
3 606 607 608
3 609 610 611
3 612 613 614
3 615 616 617
3 618 619 620
3 621 622 623
3 624 625 626
3 627 628 629
3 630 631 632
3 633 634 635
3 636 637 638
3 639 640 641
3 642 643 644
3 645 646 647
3 648 649 650
3 651 652 653
3 654 655 656
3 657 658 659
3 660 661 662
3 663 664 665
3 666 667 668
3 669 670 671
3 672 673 674
3 675 676 677
3 678 679 680
3 681 682 683
3 684 685 686
3 687 688 689
3 690 691 692
3 693 694 695
3 696 697 698
3 699 700 701
3 702 703 704
3 705 706 707
3 708 709 710
3 711 712 713
3 714 715 716
3 717 718 719
3 720 721 722
3 723 724 725
3 726 727 728
3 729 730 731
3 732 733 734
3 735 736 737
3 738 739 740
3 741 742 743
3 744 745 746
3 747 748 749
3 750 751 752
3 753 754 755
3 756 757 758
3 759 760 761
3 762 763 764
3 765 766 767
3 768 769 770
3 771 772 773
3 774 775 776
3 777 778 779
3 780 781 782
3 783 784 785
3 786 787 788
3 789 790 791
3 792 793 794
3 795 796 797
3 798 799 800
3 801 802 803
3 804 805 806
3 807 808 809
3 810 811 812
3 813 814 815
3 816 817 818
3 819 820 821
3 822 823 824
3 825 826 827
3 828 829 830
3 831 832 833
3 834 835 836
3 837 838 839
3 840 841 842
3 843 844 845
3 846 847 848
3 849 850 851
3 852 853 854
3 855 856 857
