solid ascii
 facet normal -0.0922572 -0.197255 -0.976002
  outer loop
   vertex 122.645 154.296 164.791
   vertex 122.014 154.774 164.754
   vertex 121.982 155.363 164.638
  endloop
 endfacet
 facet normal -0.0564202 -0.175963 -0.982779
  outer loop
   vertex 122.645 154.296 164.791
   vertex 121.982 155.363 164.638
   vertex 123.024 154.502 164.732
  endloop
 endfacet
 facet normal -0.0296142 -0.144204 -0.989105
  outer loop
   vertex 123.024 154.502 164.732
   vertex 121.982 155.363 164.638
   vertex 123.127 156.085 164.498
  endloop
 endfacet
 facet normal 0.563217 -0.24952 -0.787735
  outer loop
   vertex 123.504 155.107 164.883
   vertex 123.246 154.088 165.022
   vertex 123.024 154.502 164.732
  endloop
 endfacet
 facet normal 0.47363 -0.158817 -0.866286
  outer loop
   vertex 123.127 156.085 164.498
   vertex 123.504 155.107 164.883
   vertex 123.024 154.502 164.732
  endloop
 endfacet
 facet normal -0.115362 -0.131666 -0.984559
  outer loop
   vertex 121.326 156.334 164.585
   vertex 122.13 156.488 164.47
   vertex 121.982 155.363 164.638
  endloop
 endfacet
 facet normal -0.0300338 -0.143553 -0.989187
  outer loop
   vertex 123.127 156.085 164.498
   vertex 121.982 155.363 164.638
   vertex 122.13 156.488 164.47
  endloop
 endfacet
 facet normal 0.386382 -0.205359 -0.899187
  outer loop
   vertex 123.727 156.138 164.744
   vertex 123.504 155.107 164.883
   vertex 123.127 156.085 164.498
  endloop
 endfacet
 facet normal -0.165818 -0.120141 -0.978811
  outer loop
   vertex 121.179 157.365 164.498
   vertex 120.832 156.752 164.632
   vertex 120.405 157.45 164.619
  endloop
 endfacet
 facet normal -0.185267 -0.108682 -0.97666
  outer loop
   vertex 121.326 156.334 164.585
   vertex 120.832 156.752 164.632
   vertex 121.179 157.365 164.498
  endloop
 endfacet
 facet normal -0.121729 -0.100545 -0.987458
  outer loop
   vertex 121.326 156.334 164.585
   vertex 121.179 157.365 164.498
   vertex 122.13 156.488 164.47
  endloop
 endfacet
 facet normal -0.0961826 -0.0726892 -0.992706
  outer loop
   vertex 122.13 156.488 164.47
   vertex 121.179 157.365 164.498
   vertex 122.256 157.449 164.387
  endloop
 endfacet
 facet normal -0.0142609 -0.104875 -0.994383
  outer loop
   vertex 123.127 156.085 164.498
   vertex 122.13 156.488 164.47
   vertex 123.184 157.289 164.37
  endloop
 endfacet
 facet normal -0.0322709 -0.081409 -0.996158
  outer loop
   vertex 123.184 157.289 164.37
   vertex 122.13 156.488 164.47
   vertex 122.256 157.449 164.387
  endloop
 endfacet
 facet normal 0.381716 -0.34431 -0.857755
  outer loop
   vertex 124.146 157.189 164.508
   vertex 123.727 156.138 164.744
   vertex 123.127 156.085 164.498
  endloop
 endfacet
 facet normal 0.12969 -0.110682 -0.985358
  outer loop
   vertex 124.146 157.189 164.508
   vertex 123.127 156.085 164.498
   vertex 123.184 157.289 164.37
  endloop
 endfacet
 facet normal -0.265397 -0.0991005 -0.959033
  outer loop
   vertex 120.26 158.354 164.553
   vertex 119.863 158.063 164.693
   vertex 119.685 158.626 164.684
  endloop
 endfacet
 facet normal -0.256888 -0.111168 -0.960026
  outer loop
   vertex 120.405 157.45 164.619
   vertex 119.863 158.063 164.693
   vertex 120.26 158.354 164.553
  endloop
 endfacet
 facet normal -0.163808 -0.097798 -0.981633
  outer loop
   vertex 120.405 157.45 164.619
   vertex 120.26 158.354 164.553
   vertex 121.179 157.365 164.498
  endloop
 endfacet
 facet normal -0.119605 -0.0562034 -0.991229
  outer loop
   vertex 121.179 157.365 164.498
   vertex 120.26 158.354 164.553
   vertex 121.187 158.472 164.434
  endloop
 endfacet
 facet normal -0.0999756 -0.0264785 -0.994638
  outer loop
   vertex 122.256 157.449 164.387
   vertex 121.179 157.365 164.498
   vertex 122.132 158.355 164.376
  endloop
 endfacet
 facet normal -0.0685806 -0.0568684 -0.996023
  outer loop
   vertex 122.132 158.355 164.376
   vertex 121.179 157.365 164.498
   vertex 121.187 158.472 164.434
  endloop
 endfacet
 facet normal -0.0214763 -0.018337 -0.999601
  outer loop
   vertex 123.184 157.289 164.37
   vertex 122.256 157.449 164.387
   vertex 123.191 158.326 164.351
  endloop
 endfacet
 facet normal -0.0236194 -0.0160513 -0.999592
  outer loop
   vertex 123.191 158.326 164.351
   vertex 122.256 157.449 164.387
   vertex 122.132 158.355 164.376
  endloop
 endfacet
 facet normal 0.129759 -0.110093 -0.985415
  outer loop
   vertex 124.146 157.189 164.508
   vertex 123.184 157.289 164.37
   vertex 124.11 158.187 164.392
  endloop
 endfacet
 facet normal 0.0415852 -0.0187652 -0.998959
  outer loop
   vertex 124.11 158.187 164.392
   vertex 123.184 157.289 164.37
   vertex 123.191 158.326 164.351
  endloop
 endfacet
 facet normal 0.452367 -0.202465 -0.868546
  outer loop
   vertex 125.044 158.374 164.7
   vertex 124.699 157.312 164.768
   vertex 124.146 157.189 164.508
  endloop
 endfacet
 facet normal 0.329071 -0.0975271 -0.939255
  outer loop
   vertex 125.044 158.374 164.7
   vertex 124.146 157.189 164.508
   vertex 124.11 158.187 164.392
  endloop
 endfacet
 facet normal -0.248418 -0.0595484 -0.966821
  outer loop
   vertex 120.101 159.378 164.531
   vertex 120.26 158.354 164.553
   vertex 119.685 158.626 164.684
  endloop
 endfacet
 facet normal -0.223381 -0.0744058 -0.971887
  outer loop
   vertex 119.577 159.473 164.644
   vertex 120.101 159.378 164.531
   vertex 119.685 158.626 164.684
  endloop
 endfacet
 facet normal -0.124323 -0.0198523 -0.992043
  outer loop
   vertex 121.187 158.472 164.434
   vertex 120.26 158.354 164.553
   vertex 121.035 159.367 164.435
  endloop
 endfacet
 facet normal -0.10179 -0.0373342 -0.994105
  outer loop
   vertex 121.035 159.367 164.435
   vertex 120.26 158.354 164.553
   vertex 120.101 159.378 164.531
  endloop
 endfacet
 facet normal -0.0606662 0.00837701 -0.998123
  outer loop
   vertex 122.132 158.355 164.376
   vertex 121.187 158.472 164.434
   vertex 122.086 159.364 164.387
  endloop
 endfacet
 facet normal -0.0459392 -0.00650548 -0.998923
  outer loop
   vertex 122.086 159.364 164.387
   vertex 121.187 158.472 164.434
   vertex 121.035 159.367 164.435
  endloop
 endfacet
 facet normal -0.0223202 0.0299383 -0.999303
  outer loop
   vertex 123.191 158.326 164.351
   vertex 122.132 158.355 164.376
   vertex 123.153 159.345 164.383
  endloop
 endfacet
 facet normal -0.00393932 0.0109711 -0.999932
  outer loop
   vertex 123.153 159.345 164.383
   vertex 122.132 158.355 164.376
   vertex 122.086 159.364 164.387
  endloop
 endfacet
 facet normal 0.052727 0.0555385 -0.997063
  outer loop
   vertex 124.11 158.187 164.392
   vertex 123.191 158.326 164.351
   vertex 124.196 159.249 164.456
  endloop
 endfacet
 facet normal 0.0730721 0.033374 -0.996768
  outer loop
   vertex 124.196 159.249 164.456
   vertex 123.191 158.326 164.351
   vertex 123.153 159.345 164.383
  endloop
 endfacet
 facet normal 0.409447 0.145831 -0.900603
  outer loop
   vertex 124.693 159.356 164.699
   vertex 125.044 158.374 164.7
   vertex 124.196 159.249 164.456
  endloop
 endfacet
 facet normal 0.306981 0.0323229 -0.951167
  outer loop
   vertex 124.196 159.249 164.456
   vertex 125.044 158.374 164.7
   vertex 124.11 158.187 164.392
  endloop
 endfacet
 facet normal -0.209721 0.00830461 -0.977726
  outer loop
   vertex 120.012 160.137 164.556
   vertex 120.101 159.378 164.531
   vertex 119.577 159.473 164.644
  endloop
 endfacet
 facet normal -0.640444 0.32829 -0.694303
  outer loop
   vertex 119.768 160.109 164.768
   vertex 120.012 160.137 164.556
   vertex 119.577 159.473 164.644
  endloop
 endfacet
 facet normal -0.100643 0.0505766 -0.993636
  outer loop
   vertex 121.035 159.367 164.435
   vertex 120.101 159.378 164.531
   vertex 120.944 160.304 164.492
  endloop
 endfacet
 facet normal -0.072693 0.0249584 -0.997042
  outer loop
   vertex 120.944 160.304 164.492
   vertex 120.101 159.378 164.531
   vertex 120.012 160.137 164.556
  endloop
 endfacet
 facet normal -0.0457765 0.0403678 -0.998136
  outer loop
   vertex 122.086 159.364 164.387
   vertex 121.035 159.367 164.435
   vertex 121.942 160.232 164.429
  endloop
 endfacet
 facet normal -0.0594921 0.0547506 -0.996726
  outer loop
   vertex 121.942 160.232 164.429
   vertex 121.035 159.367 164.435
   vertex 120.944 160.304 164.492
  endloop
 endfacet
 facet normal -0.00276469 0.0775733 -0.996983
  outer loop
   vertex 123.153 159.345 164.383
   vertex 122.086 159.364 164.387
   vertex 122.948 160.283 164.456
  endloop
 endfacet
 facet normal 0.0245807 0.0520395 -0.998342
  outer loop
   vertex 122.948 160.283 164.456
   vertex 122.086 159.364 164.387
   vertex 121.942 160.232 164.429
  endloop
 endfacet
 facet normal 0.0779168 0.08867 -0.993009
  outer loop
   vertex 124.196 159.249 164.456
   vertex 123.153 159.345 164.383
   vertex 123.947 160.214 164.522
  endloop
 endfacet
 facet normal 0.0723658 0.0937315 -0.992964
  outer loop
   vertex 123.947 160.214 164.522
   vertex 123.153 159.345 164.383
   vertex 122.948 160.283 164.456
  endloop
 endfacet
 facet normal 0.388898 0.224913 -0.893405
  outer loop
   vertex 124.503 160.196 164.828
   vertex 124.693 159.356 164.699
   vertex 124.196 159.249 164.456
  endloop
 endfacet
 facet normal 0.477861 0.182575 -0.859253
  outer loop
   vertex 123.947 160.214 164.522
   vertex 124.503 160.196 164.828
   vertex 124.196 159.249 164.456
  endloop
 endfacet
 facet normal -0.530518 0.665707 -0.524772
  outer loop
   vertex 120.012 160.137 164.556
   vertex 119.768 160.109 164.768
   vertex 120.26 160.458 164.713
  endloop
 endfacet
 facet normal -0.151444 0.525195 -0.837398
  outer loop
   vertex 120.944 160.304 164.492
   vertex 120.012 160.137 164.556
   vertex 120.26 160.458 164.713
  endloop
 endfacet
 facet normal -0.155624 0.51478 -0.843079
  outer loop
   vertex 121.142 160.735 164.719
   vertex 120.944 160.304 164.492
   vertex 120.26 160.458 164.713
  endloop
 endfacet
 facet normal -0.268931 0.655892 -0.705324
  outer loop
   vertex 121.142 160.735 164.719
   vertex 121.854 161.272 164.947
   vertex 122.171 161.058 164.628
  endloop
 endfacet
 facet normal -0.240426 0.536013 -0.80925
  outer loop
   vertex 121.142 160.735 164.719
   vertex 122.171 161.058 164.628
   vertex 120.944 160.304 164.492
  endloop
 endfacet
 facet normal -0.044095 0.245415 -0.968415
  outer loop
   vertex 120.944 160.304 164.492
   vertex 122.171 161.058 164.628
   vertex 121.942 160.232 164.429
  endloop
 endfacet
 facet normal 0.197326 0.396236 -0.896694
  outer loop
   vertex 122.171 161.058 164.628
   vertex 123.362 160.75 164.754
   vertex 122.948 160.283 164.456
  endloop
 endfacet
 facet normal 0.014918 0.230192 -0.973031
  outer loop
   vertex 122.171 161.058 164.628
   vertex 122.948 160.283 164.456
   vertex 121.942 160.232 164.429
  endloop
 endfacet
 facet normal 0.0910445 0.47628 -0.874567
  outer loop
   vertex 123.947 160.214 164.522
   vertex 122.948 160.283 164.456
   vertex 123.362 160.75 164.754
  endloop
 endfacet
 facet normal 0.121589 0.501763 -0.856417
  outer loop
   vertex 124.118 160.599 164.773
   vertex 123.947 160.214 164.522
   vertex 123.362 160.75 164.754
  endloop
 endfacet
 facet normal 0.462721 0.328492 -0.823397
  outer loop
   vertex 124.503 160.196 164.828
   vertex 123.947 160.214 164.522
   vertex 124.118 160.599 164.773
  endloop
 endfacet
 facet normal -0.218077 0.697405 -0.682692
  outer loop
   vertex 122.171 161.058 164.628
   vertex 121.854 161.272 164.947
   vertex 122.354 161.449 164.968
  endloop
 endfacet
 facet normal -0.379728 -0.55778 -0.73803
  outer loop
   vertex 121.245 154.065 165.541
   vertex 122.066 154.066 165.117
   vertex 122.002 153.312 165.72
  endloop
 endfacet
 facet normal -0.418692 -0.545133 -0.726311
  outer loop
   vertex 122.291 153.38 165.502
   vertex 122.002 153.312 165.72
   vertex 122.066 154.066 165.117
  endloop
 endfacet
 facet normal 0.0596707 -0.47348 -0.878781
  outer loop
   vertex 122.865 153.379 165.542
   vertex 122.291 153.38 165.502
   vertex 122.066 154.066 165.117
  endloop
 endfacet
 facet normal -0.161779 -0.647928 -0.744323
  outer loop
   vertex 122.865 153.379 165.542
   vertex 122.066 154.066 165.117
   vertex 122.645 154.296 164.791
  endloop
 endfacet
 facet normal 0.200188 -0.59128 -0.781225
  outer loop
   vertex 122.865 153.379 165.542
   vertex 122.645 154.296 164.791
   vertex 123.024 154.502 164.732
  endloop
 endfacet
 facet normal -0.0260293 -0.581977 -0.812789
  outer loop
   vertex 122.865 153.379 165.542
   vertex 123.024 154.502 164.732
   vertex 123.246 154.088 165.022
  endloop
 endfacet
 facet normal 0.388741 -0.671442 -0.630909
  outer loop
   vertex 122.865 153.379 165.542
   vertex 123.246 154.088 165.022
   vertex 123.278 153.392 165.782
  endloop
 endfacet
 facet normal 0.841015 -0.38109 -0.38401
  outer loop
   vertex 123.278 153.392 165.782
   vertex 123.246 154.088 165.022
   vertex 123.575 154.136 165.693
  endloop
 endfacet
 facet normal -0.459136 -0.417368 -0.784218
  outer loop
   vertex 121.08 155.096 165.088
   vertex 121.245 154.065 165.541
   vertex 120.665 154.381 165.712
  endloop
 endfacet
 facet normal -0.472732 -0.407121 -0.781522
  outer loop
   vertex 120.199 155.253 165.539
   vertex 121.08 155.096 165.088
   vertex 120.665 154.381 165.712
  endloop
 endfacet
 facet normal -0.390172 -0.198267 -0.899142
  outer loop
   vertex 122.014 154.774 164.754
   vertex 121.08 155.096 165.088
   vertex 121.982 155.363 164.638
  endloop
 endfacet
 facet normal -0.4329 -0.436501 -0.78871
  outer loop
   vertex 122.014 154.774 164.754
   vertex 122.066 154.066 165.117
   vertex 121.08 155.096 165.088
  endloop
 endfacet
 facet normal -0.415384 -0.420256 -0.806747
  outer loop
   vertex 122.066 154.066 165.117
   vertex 121.245 154.065 165.541
   vertex 121.08 155.096 165.088
  endloop
 endfacet
 facet normal -0.294041 -0.453376 -0.841422
  outer loop
   vertex 122.645 154.296 164.791
   vertex 122.066 154.066 165.117
   vertex 122.014 154.774 164.754
  endloop
 endfacet
 facet normal 0.596507 -0.484551 -0.639836
  outer loop
   vertex 124.338 154.92 165.803
   vertex 123.504 155.107 164.883
   vertex 124.351 155.586 165.31
  endloop
 endfacet
 facet normal 0.593929 -0.489461 -0.638496
  outer loop
   vertex 124.338 154.92 165.803
   vertex 123.575 154.136 165.693
   vertex 123.504 155.107 164.883
  endloop
 endfacet
 facet normal 0.871154 -0.275528 -0.406418
  outer loop
   vertex 123.575 154.136 165.693
   vertex 123.246 154.088 165.022
   vertex 123.504 155.107 164.883
  endloop
 endfacet
 facet normal -0.462565 -0.387981 -0.797186
  outer loop
   vertex 119.967 156.171 165.249
   vertex 119.719 155.666 165.638
   vertex 119.232 156.317 165.605
  endloop
 endfacet
 facet normal -0.484485 -0.37278 -0.791397
  outer loop
   vertex 120.199 155.253 165.539
   vertex 119.719 155.666 165.638
   vertex 119.967 156.171 165.249
  endloop
 endfacet
 facet normal -0.474738 -0.372255 -0.797528
  outer loop
   vertex 120.199 155.253 165.539
   vertex 119.967 156.171 165.249
   vertex 121.08 155.096 165.088
  endloop
 endfacet
 facet normal -0.425617 -0.31364 -0.848811
  outer loop
   vertex 121.08 155.096 165.088
   vertex 119.967 156.171 165.249
   vertex 120.899 156.18 164.778
  endloop
 endfacet
 facet normal -0.317663 -0.26448 -0.910572
  outer loop
   vertex 121.982 155.363 164.638
   vertex 120.899 156.18 164.778
   vertex 121.326 156.334 164.585
  endloop
 endfacet
 facet normal -0.349258 -0.310944 -0.88393
  outer loop
   vertex 121.08 155.096 165.088
   vertex 120.899 156.18 164.778
   vertex 121.982 155.363 164.638
  endloop
 endfacet
 facet normal 0.524052 -0.24485 -0.815732
  outer loop
   vertex 124.351 155.586 165.31
   vertex 123.727 156.138 164.744
   vertex 124.466 156.49 165.113
  endloop
 endfacet
 facet normal 0.537414 -0.226297 -0.812389
  outer loop
   vertex 123.504 155.107 164.883
   vertex 123.727 156.138 164.744
   vertex 124.351 155.586 165.31
  endloop
 endfacet
 facet normal 0.499198 -0.521335 -0.692106
  outer loop
   vertex 125.112 155.774 165.718
   vertex 124.338 154.92 165.803
   vertex 124.351 155.586 165.31
  endloop
 endfacet
 facet normal 0.507421 -0.399686 -0.763397
  outer loop
   vertex 125.112 155.774 165.718
   vertex 124.351 155.586 165.31
   vertex 125.187 156.348 165.467
  endloop
 endfacet
 facet normal 0.388525 -0.243452 -0.888695
  outer loop
   vertex 125.187 156.348 165.467
   vertex 124.351 155.586 165.31
   vertex 124.466 156.49 165.113
  endloop
 endfacet
 facet normal 0.714352 -0.356411 -0.602224
  outer loop
   vertex 125.112 155.774 165.718
   vertex 125.187 156.348 165.467
   vertex 125.472 156.141 165.928
  endloop
 endfacet
 facet normal -0.802504 -0.0973874 -0.588645
  outer loop
   vertex 119.104 157.106 165.395
   vertex 118.88 156.703 165.767
   vertex 118.804 157.326 165.768
  endloop
 endfacet
 facet normal -0.646768 -0.291695 -0.704702
  outer loop
   vertex 119.232 156.317 165.605
   vertex 118.88 156.703 165.767
   vertex 119.104 157.106 165.395
  endloop
 endfacet
 facet normal -0.462844 -0.29677 -0.835286
  outer loop
   vertex 119.232 156.317 165.605
   vertex 119.104 157.106 165.395
   vertex 119.967 156.171 165.249
  endloop
 endfacet
 facet normal -0.461396 -0.295224 -0.836634
  outer loop
   vertex 119.967 156.171 165.249
   vertex 119.104 157.106 165.395
   vertex 119.965 157.194 164.889
  endloop
 endfacet
 facet normal -0.393007 -0.257236 -0.882822
  outer loop
   vertex 120.832 156.752 164.632
   vertex 119.965 157.194 164.889
   vertex 120.405 157.45 164.619
  endloop
 endfacet
 facet normal -0.398144 -0.271041 -0.876367
  outer loop
   vertex 120.832 156.752 164.632
   vertex 120.899 156.18 164.778
   vertex 119.965 157.194 164.889
  endloop
 endfacet
 facet normal -0.427595 -0.300762 -0.852469
  outer loop
   vertex 120.899 156.18 164.778
   vertex 119.967 156.171 165.249
   vertex 119.965 157.194 164.889
  endloop
 endfacet
 facet normal -0.315368 -0.269858 -0.909791
  outer loop
   vertex 121.326 156.334 164.585
   vertex 120.899 156.18 164.778
   vertex 120.832 156.752 164.632
  endloop
 endfacet
 facet normal 0.552677 -0.385826 -0.738706
  outer loop
   vertex 123.727 156.138 164.744
   vertex 124.146 157.189 164.508
   vertex 124.466 156.49 165.113
  endloop
 endfacet
 facet normal 0.459139 -0.451488 -0.765082
  outer loop
   vertex 124.699 157.312 164.768
   vertex 124.466 156.49 165.113
   vertex 124.146 157.189 164.508
  endloop
 endfacet
 facet normal 0.573 -0.450051 -0.684927
  outer loop
   vertex 124.699 157.312 164.768
   vertex 125.218 157.302 165.208
   vertex 124.466 156.49 165.113
  endloop
 endfacet
 facet normal 0.385828 -0.253259 -0.887129
  outer loop
   vertex 125.218 157.302 165.208
   vertex 125.187 156.348 165.467
   vertex 124.466 156.49 165.113
  endloop
 endfacet
 facet normal 0.796525 -0.184719 -0.575698
  outer loop
   vertex 125.568 157.204 165.719
   vertex 125.472 156.141 165.928
   vertex 125.187 156.348 165.467
  endloop
 endfacet
 facet normal 0.794569 -0.182882 -0.578977
  outer loop
   vertex 125.218 157.302 165.208
   vertex 125.568 157.204 165.719
   vertex 125.187 156.348 165.467
  endloop
 endfacet
 facet normal -0.811358 -0.149152 -0.565201
  outer loop
   vertex 119.109 158.12 165.12
   vertex 119.104 157.106 165.395
   vertex 118.804 157.326 165.768
  endloop
 endfacet
 facet normal -0.875319 -0.0552376 -0.480381
  outer loop
   vertex 118.757 158.28 165.744
   vertex 119.109 158.12 165.12
   vertex 118.804 157.326 165.768
  endloop
 endfacet
 facet normal -0.495884 -0.170021 -0.851582
  outer loop
   vertex 119.863 158.063 164.693
   vertex 119.109 158.12 165.12
   vertex 119.685 158.626 164.684
  endloop
 endfacet
 facet normal -0.492196 -0.246553 -0.834838
  outer loop
   vertex 119.863 158.063 164.693
   vertex 119.965 157.194 164.889
   vertex 119.109 158.12 165.12
  endloop
 endfacet
 facet normal -0.475893 -0.227813 -0.849486
  outer loop
   vertex 119.965 157.194 164.889
   vertex 119.104 157.106 165.395
   vertex 119.109 158.12 165.12
  endloop
 endfacet
 facet normal -0.399379 -0.246493 -0.883027
  outer loop
   vertex 120.405 157.45 164.619
   vertex 119.965 157.194 164.889
   vertex 119.863 158.063 164.693
  endloop
 endfacet
 facet normal 0.623887 -0.250046 -0.740434
  outer loop
   vertex 124.699 157.312 164.768
   vertex 125.044 158.374 164.7
   vertex 125.218 157.302 165.208
  endloop
 endfacet
 facet normal 0.510618 -0.299476 -0.805968
  outer loop
   vertex 125.218 157.302 165.208
   vertex 125.044 158.374 164.7
   vertex 125.533 158.162 165.088
  endloop
 endfacet
 facet normal 0.739904 -0.350916 -0.573933
  outer loop
   vertex 125.218 157.302 165.208
   vertex 125.533 158.162 165.088
   vertex 125.568 157.204 165.719
  endloop
 endfacet
 facet normal 0.887282 -0.230606 -0.399438
  outer loop
   vertex 125.568 157.204 165.719
   vertex 125.533 158.162 165.088
   vertex 125.851 158.184 165.782
  endloop
 endfacet
 facet normal -0.872294 -0.0161364 -0.488715
  outer loop
   vertex 119.104 159.222 165.092
   vertex 119.109 158.12 165.12
   vertex 118.757 158.28 165.744
  endloop
 endfacet
 facet normal -0.913016 0.0576845 -0.403825
  outer loop
   vertex 118.764 159.009 165.831
   vertex 119.104 159.222 165.092
   vertex 118.757 158.28 165.744
  endloop
 endfacet
 facet normal -0.650001 -0.118758 -0.750597
  outer loop
   vertex 119.685 158.626 164.684
   vertex 119.104 159.222 165.092
   vertex 119.577 159.473 164.644
  endloop
 endfacet
 facet normal -0.590975 -0.0228955 -0.806365
  outer loop
   vertex 119.109 158.12 165.12
   vertex 119.104 159.222 165.092
   vertex 119.685 158.626 164.684
  endloop
 endfacet
 facet normal 0.697364 0.248806 -0.672146
  outer loop
   vertex 125.044 158.374 164.7
   vertex 124.693 159.356 164.699
   vertex 125.157 159.448 165.214
  endloop
 endfacet
 facet normal 0.844188 0.157001 -0.512541
  outer loop
   vertex 125.044 158.374 164.7
   vertex 125.157 159.448 165.214
   vertex 125.474 159.079 165.624
  endloop
 endfacet
 facet normal 0.669745 0.406316 -0.62157
  outer loop
   vertex 125.044 158.374 164.7
   vertex 125.474 159.079 165.624
   vertex 125.533 158.162 165.088
  endloop
 endfacet
 facet normal 0.866033 0.292357 -0.405604
  outer loop
   vertex 125.533 158.162 165.088
   vertex 125.474 159.079 165.624
   vertex 125.851 158.184 165.782
  endloop
 endfacet
 facet normal -0.715278 0.686295 -0.131819
  outer loop
   vertex 119.104 159.222 165.092
   vertex 118.764 159.009 165.831
   vertex 119.125 159.397 165.895
  endloop
 endfacet
 facet normal -0.736368 0.336199 -0.587139
  outer loop
   vertex 119.104 159.222 165.092
   vertex 119.768 160.109 164.768
   vertex 119.577 159.473 164.644
  endloop
 endfacet
 facet normal -0.719179 0.638251 0.274622
  outer loop
   vertex 119.104 159.222 165.092
   vertex 119.795 159.815 165.523
   vertex 119.768 160.109 164.768
  endloop
 endfacet
 facet normal -0.584219 0.795845 -0.159121
  outer loop
   vertex 119.104 159.222 165.092
   vertex 119.125 159.397 165.895
   vertex 119.795 159.815 165.523
  endloop
 endfacet
 facet normal -0.662745 0.689337 0.292545
  outer loop
   vertex 120.129 160.348 165.024
   vertex 119.768 160.109 164.768
   vertex 119.795 159.815 165.523
  endloop
 endfacet
 facet normal -0.618886 0.707459 0.341294
  outer loop
   vertex 119.795 159.815 165.523
   vertex 120.548 160.322 165.837
   vertex 120.129 160.348 165.024
  endloop
 endfacet
 facet normal 0.742579 0.355665 -0.56752
  outer loop
   vertex 125.157 159.448 165.214
   vertex 124.503 160.196 164.828
   vertex 125.142 160.152 165.636
  endloop
 endfacet
 facet normal 0.694174 0.259886 -0.671254
  outer loop
   vertex 124.693 159.356 164.699
   vertex 124.503 160.196 164.828
   vertex 125.157 159.448 165.214
  endloop
 endfacet
 facet normal 0.863764 0.27228 -0.423999
  outer loop
   vertex 125.142 160.152 165.636
   vertex 125.474 159.079 165.624
   vertex 125.157 159.448 165.214
  endloop
 endfacet
 facet normal -0.573642 0.817753 0.0470592
  outer loop
   vertex 119.768 160.109 164.768
   vertex 120.129 160.348 165.024
   vertex 120.26 160.458 164.713
  endloop
 endfacet
 facet normal -0.499206 0.818875 0.283262
  outer loop
   vertex 120.129 160.348 165.024
   vertex 120.548 160.322 165.837
   vertex 120.977 160.729 165.417
  endloop
 endfacet
 facet normal -0.452892 0.883313 0.121025
  outer loop
   vertex 120.129 160.348 165.024
   vertex 120.977 160.729 165.417
   vertex 120.26 160.458 164.713
  endloop
 endfacet
 facet normal -0.298407 0.952383 -0.0626019
  outer loop
   vertex 120.26 160.458 164.713
   vertex 120.977 160.729 165.417
   vertex 121.142 160.735 164.719
  endloop
 endfacet
 facet normal -0.571091 0.810757 -0.128565
  outer loop
   vertex 120.977 160.729 165.417
   vertex 121.854 161.272 164.947
   vertex 121.142 160.735 164.719
  endloop
 endfacet
 facet normal -0.539478 0.841305 -0.0342005
  outer loop
   vertex 121.807 161.277 165.818
   vertex 121.854 161.272 164.947
   vertex 120.977 160.729 165.417
  endloop
 endfacet
 facet normal 0.250466 0.691696 -0.677365
  outer loop
   vertex 123.362 160.75 164.754
   vertex 122.171 161.058 164.628
   vertex 123.076 161.318 165.227
  endloop
 endfacet
 facet normal 0.178797 0.829609 -0.528943
  outer loop
   vertex 123.362 160.75 164.754
   vertex 124.089 161.124 165.586
   vertex 124.118 160.599 164.773
  endloop
 endfacet
 facet normal 0.353679 0.698029 -0.622628
  outer loop
   vertex 123.076 161.318 165.227
   vertex 124.089 161.124 165.586
   vertex 123.362 160.75 164.754
  endloop
 endfacet
 facet normal 0.696298 0.614255 -0.371295
  outer loop
   vertex 124.503 160.196 164.828
   vertex 124.118 160.599 164.773
   vertex 124.089 161.124 165.586
  endloop
 endfacet
 facet normal 0.61667 0.644556 -0.451959
  outer loop
   vertex 124.503 160.196 164.828
   vertex 124.089 161.124 165.586
   vertex 125.142 160.152 165.636
  endloop
 endfacet
 facet normal -0.411773 0.910865 -0.0277203
  outer loop
   vertex 121.854 161.272 164.947
   vertex 121.807 161.277 165.818
   vertex 122.291 161.491 165.652
  endloop
 endfacet
 facet normal -0.329068 0.940186 -0.0881104
  outer loop
   vertex 122.354 161.449 164.968
   vertex 121.854 161.272 164.947
   vertex 122.291 161.491 165.652
  endloop
 endfacet
 facet normal 0.371559 0.504678 -0.779259
  outer loop
   vertex 123.076 161.318 165.227
   vertex 122.171 161.058 164.628
   vertex 122.354 161.449 164.968
  endloop
 endfacet
 facet normal 0.293544 0.881243 -0.370464
  outer loop
   vertex 123.076 161.318 165.227
   vertex 122.354 161.449 164.968
   vertex 123.058 161.477 165.593
  endloop
 endfacet
 facet normal 0.0134314 0.998117 -0.0598468
  outer loop
   vertex 123.058 161.477 165.593
   vertex 122.354 161.449 164.968
   vertex 122.291 161.491 165.652
  endloop
 endfacet
 facet normal 0.298741 0.879853 -0.369611
  outer loop
   vertex 124.089 161.124 165.586
   vertex 123.076 161.318 165.227
   vertex 123.058 161.477 165.593
  endloop
 endfacet
 facet normal -0.361625 -0.789553 -0.495817
  outer loop
   vertex 121.051 153.347 166.225
   vertex 121.171 152.856 166.919
   vertex 120.459 153.305 166.723
  endloop
 endfacet
 facet normal -0.28977 -0.822868 -0.488797
  outer loop
   vertex 121.051 153.347 166.225
   vertex 122.002 153.312 165.72
   vertex 122.174 152.722 166.611
  endloop
 endfacet
 facet normal -0.26904 -0.807731 -0.524584
  outer loop
   vertex 121.171 152.856 166.919
   vertex 121.051 153.347 166.225
   vertex 122.174 152.722 166.611
  endloop
 endfacet
 facet normal 0.0174925 -0.961067 -0.27576
  outer loop
   vertex 122.002 153.312 165.72
   vertex 122.291 153.38 165.502
   vertex 122.865 153.379 165.542
  endloop
 endfacet
 facet normal -0.0476189 -0.837188 -0.544839
  outer loop
   vertex 122.002 153.312 165.72
   vertex 122.865 153.379 165.542
   vertex 122.174 152.722 166.611
  endloop
 endfacet
 facet normal 0.257227 -0.888764 -0.379384
  outer loop
   vertex 122.174 152.722 166.611
   vertex 122.865 153.379 165.542
   vertex 123.079 153.025 166.515
  endloop
 endfacet
 facet normal 0.248855 -0.891502 -0.378543
  outer loop
   vertex 123.079 153.025 166.515
   vertex 122.865 153.379 165.542
   vertex 123.278 153.392 165.782
  endloop
 endfacet
 facet normal 0.599735 -0.768829 -0.221857
  outer loop
   vertex 123.544 153.331 166.715
   vertex 123.079 153.025 166.515
   vertex 123.278 153.392 165.782
  endloop
 endfacet
 facet normal -0.79803 -0.470183 -0.37693
  outer loop
   vertex 120.024 154.161 166.358
   vertex 120.004 153.732 166.934
   vertex 119.631 154.432 166.853
  endloop
 endfacet
 facet normal -0.716196 -0.548059 -0.432082
  outer loop
   vertex 120.459 153.305 166.723
   vertex 120.004 153.732 166.934
   vertex 120.024 154.161 166.358
  endloop
 endfacet
 facet normal -0.5173 -0.544334 -0.66038
  outer loop
   vertex 121.051 153.347 166.225
   vertex 120.459 153.305 166.723
   vertex 120.024 154.161 166.358
  endloop
 endfacet
 facet normal -0.506764 -0.527527 -0.68184
  outer loop
   vertex 121.051 153.347 166.225
   vertex 120.024 154.161 166.358
   vertex 120.665 154.381 165.712
  endloop
 endfacet
 facet normal -0.49209 -0.527383 -0.692614
  outer loop
   vertex 121.051 153.347 166.225
   vertex 120.665 154.381 165.712
   vertex 121.245 154.065 165.541
  endloop
 endfacet
 facet normal -0.400581 -0.573235 -0.714798
  outer loop
   vertex 122.002 153.312 165.72
   vertex 121.051 153.347 166.225
   vertex 121.245 154.065 165.541
  endloop
 endfacet
 facet normal 0.604954 -0.633834 -0.48196
  outer loop
   vertex 124.129 154.015 166.549
   vertex 123.544 153.331 166.715
   vertex 123.575 154.136 165.693
  endloop
 endfacet
 facet normal 0.880718 -0.384177 -0.277028
  outer loop
   vertex 123.544 153.331 166.715
   vertex 123.278 153.392 165.782
   vertex 123.575 154.136 165.693
  endloop
 endfacet
 facet normal -0.807437 -0.58995 0.00195079
  outer loop
   vertex 119.153 155.124 166.493
   vertex 119.017 155.312 166.959
   vertex 118.808 155.597 166.672
  endloop
 endfacet
 facet normal -0.820877 -0.571024 -0.00964274
  outer loop
   vertex 119.631 154.432 166.853
   vertex 119.017 155.312 166.959
   vertex 119.153 155.124 166.493
  endloop
 endfacet
 facet normal -0.736619 -0.632448 -0.239588
  outer loop
   vertex 119.631 154.432 166.853
   vertex 119.153 155.124 166.493
   vertex 120.024 154.161 166.358
  endloop
 endfacet
 facet normal -0.599867 -0.449429 -0.661946
  outer loop
   vertex 120.024 154.161 166.358
   vertex 119.153 155.124 166.493
   vertex 119.818 155.13 165.887
  endloop
 endfacet
 facet normal -0.529999 -0.427944 -0.732096
  outer loop
   vertex 120.665 154.381 165.712
   vertex 119.818 155.13 165.887
   vertex 120.199 155.253 165.539
  endloop
 endfacet
 facet normal -0.549057 -0.457028 -0.699759
  outer loop
   vertex 120.024 154.161 166.358
   vertex 119.818 155.13 165.887
   vertex 120.665 154.381 165.712
  endloop
 endfacet
 facet normal 0.652939 -0.565925 -0.503388
  outer loop
   vertex 123.575 154.136 165.693
   vertex 124.338 154.92 165.803
   vertex 124.129 154.015 166.549
  endloop
 endfacet
 facet normal 0.593918 -0.676979 -0.434697
  outer loop
   vertex 124.338 154.92 165.803
   vertex 125.183 155.256 166.434
   vertex 124.569 154.444 166.859
  endloop
 endfacet
 facet normal 0.769007 -0.502989 -0.394499
  outer loop
   vertex 124.338 154.92 165.803
   vertex 124.569 154.444 166.859
   vertex 124.129 154.015 166.549
  endloop
 endfacet
 facet normal -0.78223 -0.385763 -0.489186
  outer loop
   vertex 119.031 155.98 166.014
   vertex 119.153 155.124 166.493
   vertex 118.808 155.597 166.672
  endloop
 endfacet
 facet normal -0.907175 -0.148576 -0.393647
  outer loop
   vertex 118.757 156.424 166.477
   vertex 119.031 155.98 166.014
   vertex 118.808 155.597 166.672
  endloop
 endfacet
 facet normal -0.578302 -0.468049 -0.668204
  outer loop
   vertex 119.719 155.666 165.638
   vertex 119.031 155.98 166.014
   vertex 119.232 156.317 165.605
  endloop
 endfacet
 facet normal -0.5757 -0.428867 -0.696163
  outer loop
   vertex 119.719 155.666 165.638
   vertex 119.818 155.13 165.887
   vertex 119.031 155.98 166.014
  endloop
 endfacet
 facet normal -0.597958 -0.454937 -0.659908
  outer loop
   vertex 119.818 155.13 165.887
   vertex 119.153 155.124 166.493
   vertex 119.031 155.98 166.014
  endloop
 endfacet
 facet normal -0.526021 -0.4356 -0.730448
  outer loop
   vertex 120.199 155.253 165.539
   vertex 119.818 155.13 165.887
   vertex 119.719 155.666 165.638
  endloop
 endfacet
 facet normal 0.615941 -0.608053 -0.500888
  outer loop
   vertex 124.338 154.92 165.803
   vertex 125.112 155.774 165.718
   vertex 125.183 155.256 166.434
  endloop
 endfacet
 facet normal 0.754971 -0.493484 -0.431849
  outer loop
   vertex 125.183 155.256 166.434
   vertex 125.112 155.774 165.718
   vertex 125.472 156.141 165.928
  endloop
 endfacet
 facet normal 0.869191 -0.426654 -0.249948
  outer loop
   vertex 125.183 155.256 166.434
   vertex 125.472 156.141 165.928
   vertex 125.418 155.598 166.666
  endloop
 endfacet
 facet normal 0.996347 -0.0847316 0.0106287
  outer loop
   vertex 125.418 155.598 166.666
   vertex 125.472 156.141 165.928
   vertex 125.493 156.471 166.606
  endloop
 endfacet
 facet normal -0.919735 -0.28409 -0.270889
  outer loop
   vertex 118.88 156.703 165.767
   vertex 119.031 155.98 166.014
   vertex 118.757 156.424 166.477
  endloop
 endfacet
 facet normal -0.969511 -0.118653 -0.214406
  outer loop
   vertex 118.88 156.703 165.767
   vertex 118.757 156.424 166.477
   vertex 118.804 157.326 165.768
  endloop
 endfacet
 facet normal -0.992914 -0.0375919 -0.112734
  outer loop
   vertex 118.804 157.326 165.768
   vertex 118.757 156.424 166.477
   vertex 118.707 157.3 166.628
  endloop
 endfacet
 facet normal -0.687034 -0.358947 -0.631777
  outer loop
   vertex 119.232 156.317 165.605
   vertex 119.031 155.98 166.014
   vertex 118.88 156.703 165.767
  endloop
 endfacet
 facet normal 0.996086 -0.0875686 0.0120177
  outer loop
   vertex 125.472 156.141 165.928
   vertex 125.568 157.204 165.719
   vertex 125.493 156.471 166.606
  endloop
 endfacet
 facet normal 0.997631 -0.0584938 0.0361923
  outer loop
   vertex 125.493 156.471 166.606
   vertex 125.568 157.204 165.719
   vertex 125.554 157.501 166.574
  endloop
 endfacet
 facet normal -0.992236 -0.0517479 -0.113089
  outer loop
   vertex 118.804 157.326 165.768
   vertex 118.707 157.3 166.628
   vertex 118.757 158.28 165.744
  endloop
 endfacet
 facet normal -0.998772 0.00620427 -0.0491491
  outer loop
   vertex 118.707 157.3 166.628
   vertex 118.712 158.235 166.643
   vertex 118.757 158.28 165.744
  endloop
 endfacet
 facet normal 0.952535 -0.282562 0.113293
  outer loop
   vertex 125.568 157.204 165.719
   vertex 125.851 158.184 165.782
   vertex 125.554 157.501 166.574
  endloop
 endfacet
 facet normal 0.915735 0.0624285 0.396904
  outer loop
   vertex 125.554 157.501 166.574
   vertex 125.851 158.184 165.782
   vertex 125.533 158.447 166.474
  endloop
 endfacet
 facet normal -0.715339 0.608329 0.343839
  outer loop
   vertex 118.901 158.755 166.565
   vertex 119.125 159.397 165.895
   vertex 118.764 159.009 165.831
  endloop
 endfacet
 facet normal -0.884333 0.365108 0.29095
  outer loop
   vertex 118.901 158.755 166.565
   vertex 118.764 159.009 165.831
   vertex 118.712 158.235 166.643
  endloop
 endfacet
 facet normal -0.998681 0.0164788 -0.0486319
  outer loop
   vertex 118.712 158.235 166.643
   vertex 118.764 159.009 165.831
   vertex 118.757 158.28 165.744
  endloop
 endfacet
 facet normal -0.689977 0.623804 0.367152
  outer loop
   vertex 118.901 158.755 166.565
   vertex 119.479 159.227 166.849
   vertex 119.125 159.397 165.895
  endloop
 endfacet
 facet normal 0.877347 0.412048 0.245925
  outer loop
   vertex 125.851 158.184 165.782
   vertex 125.474 159.079 165.624
   vertex 125.533 158.447 166.474
  endloop
 endfacet
 facet normal 0.940715 0.300022 0.158249
  outer loop
   vertex 125.533 158.447 166.474
   vertex 125.474 159.079 165.624
   vertex 125.192 159.452 166.598
  endloop
 endfacet
 facet normal -0.560316 0.754268 0.342237
  outer loop
   vertex 119.125 159.397 165.895
   vertex 119.479 159.227 166.849
   vertex 120.013 159.743 166.587
  endloop
 endfacet
 facet normal -0.459898 0.874622 0.153399
  outer loop
   vertex 119.125 159.397 165.895
   vertex 120.013 159.743 166.587
   vertex 119.795 159.815 165.523
  endloop
 endfacet
 facet normal -0.599293 0.781023 0.175645
  outer loop
   vertex 120.013 159.743 166.587
   vertex 120.548 160.322 165.837
   vertex 119.795 159.815 165.523
  endloop
 endfacet
 facet normal -0.608955 0.775894 0.164808
  outer loop
   vertex 120.772 160.308 166.73
   vertex 120.548 160.322 165.837
   vertex 120.013 159.743 166.587
  endloop
 endfacet
 facet normal 0.689704 0.553349 0.467025
  outer loop
   vertex 125.025 160.403 166.026
   vertex 124.629 160.482 166.518
   vertex 125.049 159.904 166.582
  endloop
 endfacet
 facet normal 0.925243 0.301173 0.230695
  outer loop
   vertex 125.025 160.403 166.026
   vertex 125.049 159.904 166.582
   vertex 125.192 159.452 166.598
  endloop
 endfacet
 facet normal 0.960462 0.246476 0.129468
  outer loop
   vertex 125.025 160.403 166.026
   vertex 125.192 159.452 166.598
   vertex 125.142 160.152 165.636
  endloop
 endfacet
 facet normal 0.942932 0.290652 0.162485
  outer loop
   vertex 125.142 160.152 165.636
   vertex 125.192 159.452 166.598
   vertex 125.474 159.079 165.624
  endloop
 endfacet
 facet normal -0.647657 0.741792 0.174027
  outer loop
   vertex 120.548 160.322 165.837
   vertex 120.772 160.308 166.73
   vertex 121.144 160.705 166.422
  endloop
 endfacet
 facet normal -0.618079 0.776744 0.121027
  outer loop
   vertex 120.977 160.729 165.417
   vertex 120.548 160.322 165.837
   vertex 121.144 160.705 166.422
  endloop
 endfacet
 facet normal -0.586052 0.801886 0.116284
  outer loop
   vertex 121.144 160.705 166.422
   vertex 121.807 161.277 165.818
   vertex 120.977 160.729 165.417
  endloop
 endfacet
 facet normal -0.601237 0.793763 0.091946
  outer loop
   vertex 121.836 161.207 166.611
   vertex 121.807 161.277 165.818
   vertex 121.144 160.705 166.422
  endloop
 endfacet
 facet normal 0.491836 0.731124 0.472816
  outer loop
   vertex 124.333 161.089 166.086
   vertex 123.672 161.299 166.449
   vertex 124.122 160.886 166.619
  endloop
 endfacet
 facet normal 0.603472 0.636138 0.480782
  outer loop
   vertex 124.629 160.482 166.518
   vertex 124.333 161.089 166.086
   vertex 124.122 160.886 166.619
  endloop
 endfacet
 facet normal 0.654691 0.623318 0.427615
  outer loop
   vertex 125.025 160.403 166.026
   vertex 124.333 161.089 166.086
   vertex 124.629 160.482 166.518
  endloop
 endfacet
 facet normal 0.664664 0.694982 -0.274266
  outer loop
   vertex 125.025 160.403 166.026
   vertex 124.089 161.124 165.586
   vertex 124.333 161.089 166.086
  endloop
 endfacet
 facet normal 0.662616 0.704402 -0.254476
  outer loop
   vertex 125.142 160.152 165.636
   vertex 124.089 161.124 165.586
   vertex 125.025 160.403 166.026
  endloop
 endfacet
 facet normal -0.483554 0.870215 0.0943431
  outer loop
   vertex 121.807 161.277 165.818
   vertex 121.836 161.207 166.611
   vertex 122.198 161.43 166.411
  endloop
 endfacet
 facet normal -0.396696 0.91761 0.0249784
  outer loop
   vertex 122.291 161.491 165.652
   vertex 121.807 161.277 165.818
   vertex 122.198 161.43 166.411
  endloop
 endfacet
 facet normal 0.0234976 0.99718 0.0712688
  outer loop
   vertex 123.058 161.477 165.593
   vertex 122.291 161.491 165.652
   vertex 123.044 161.421 166.386
  endloop
 endfacet
 facet normal 0.0133983 0.996576 0.081584
  outer loop
   vertex 122.291 161.491 165.652
   vertex 122.198 161.43 166.411
   vertex 123.044 161.421 166.386
  endloop
 endfacet
 facet normal 0.270903 0.960503 -0.0636053
  outer loop
   vertex 123.672 161.299 166.449
   vertex 124.333 161.089 166.086
   vertex 124.089 161.124 165.586
  endloop
 endfacet
 facet normal 0.199149 0.974731 -0.101185
  outer loop
   vertex 123.672 161.299 166.449
   vertex 124.089 161.124 165.586
   vertex 123.044 161.421 166.386
  endloop
 endfacet
 facet normal 0.323419 0.943456 0.0727416
  outer loop
   vertex 123.044 161.421 166.386
   vertex 124.089 161.124 165.586
   vertex 123.058 161.477 165.593
  endloop
 endfacet
 facet normal -0.455013 -0.853106 0.255291
  outer loop
   vertex 121.171 152.856 166.919
   vertex 121.247 153.036 167.657
   vertex 120.711 153.252 167.424
  endloop
 endfacet
 facet normal -0.555568 -0.820003 0.137617
  outer loop
   vertex 120.459 153.305 166.723
   vertex 121.171 152.856 166.919
   vertex 120.711 153.252 167.424
  endloop
 endfacet
 facet normal -0.132975 -0.991115 -0.00279058
  outer loop
   vertex 122.174 152.722 166.611
   vertex 122.117 152.727 167.583
   vertex 121.171 152.856 166.919
  endloop
 endfacet
 facet normal -0.304135 -0.917719 0.255525
  outer loop
   vertex 121.171 152.856 166.919
   vertex 122.117 152.727 167.583
   vertex 121.247 153.036 167.657
  endloop
 endfacet
 facet normal 0.313646 -0.94887 -0.0356537
  outer loop
   vertex 123.079 153.025 166.515
   vertex 123.079 152.992 167.397
   vertex 122.174 152.722 166.611
  endloop
 endfacet
 facet normal 0.268985 -0.962924 0.0205983
  outer loop
   vertex 122.174 152.722 166.611
   vertex 123.079 152.992 167.397
   vertex 122.117 152.727 167.583
  endloop
 endfacet
 facet normal 0.55776 -0.829413 -0.0312657
  outer loop
   vertex 123.079 152.992 167.397
   vertex 123.079 153.025 166.515
   vertex 123.544 153.331 166.715
  endloop
 endfacet
 facet normal 0.403221 -0.898911 -0.171381
  outer loop
   vertex 123.86 153.304 167.6
   vertex 123.079 152.992 167.397
   vertex 123.544 153.331 166.715
  endloop
 endfacet
 facet normal -0.627671 -0.736702 0.251592
  outer loop
   vertex 120.004 153.732 166.934
   vertex 120.114 153.864 167.591
   vertex 119.653 154.219 167.481
  endloop
 endfacet
 facet normal -0.867768 -0.479111 -0.132027
  outer loop
   vertex 119.631 154.432 166.853
   vertex 120.004 153.732 166.934
   vertex 119.653 154.219 167.481
  endloop
 endfacet
 facet normal -0.631888 -0.756209 0.169898
  outer loop
   vertex 120.711 153.252 167.424
   vertex 120.004 153.732 166.934
   vertex 120.459 153.305 166.723
  endloop
 endfacet
 facet normal -0.657234 -0.710554 0.251309
  outer loop
   vertex 120.114 153.864 167.591
   vertex 120.004 153.732 166.934
   vertex 120.711 153.252 167.424
  endloop
 endfacet
 facet normal 0.610967 -0.754081 -0.241002
  outer loop
   vertex 123.544 153.331 166.715
   vertex 124.199 153.646 167.388
   vertex 123.86 153.304 167.6
  endloop
 endfacet
 facet normal 0.670757 -0.656758 -0.344608
  outer loop
   vertex 124.129 154.015 166.549
   vertex 124.199 153.646 167.388
   vertex 123.544 153.331 166.715
  endloop
 endfacet
 facet normal 0.766961 -0.561447 -0.310722
  outer loop
   vertex 124.199 153.646 167.388
   vertex 124.129 154.015 166.549
   vertex 124.569 154.444 166.859
  endloop
 endfacet
 facet normal 0.9253 -0.36799 0.0916711
  outer loop
   vertex 124.414 154.231 167.565
   vertex 124.199 153.646 167.388
   vertex 124.569 154.444 166.859
  endloop
 endfacet
 facet normal -0.729082 -0.556 0.39913
  outer loop
   vertex 119.017 155.312 166.959
   vertex 119.631 154.432 166.853
   vertex 119.595 155.005 167.587
  endloop
 endfacet
 facet normal -0.997134 -0.0750361 0.00966253
  outer loop
   vertex 119.631 154.432 166.853
   vertex 119.653 154.219 167.481
   vertex 119.595 155.005 167.587
  endloop
 endfacet
 facet normal 0.801296 -0.598066 0.0155608
  outer loop
   vertex 125.159 155.24 167.05
   vertex 124.569 154.444 166.859
   vertex 125.183 155.256 166.434
  endloop
 endfacet
 facet normal 0.620124 -0.584992 0.522714
  outer loop
   vertex 125.159 155.24 167.05
   vertex 124.423 155.125 167.795
   vertex 124.569 154.444 166.859
  endloop
 endfacet
 facet normal 0.978698 -0.0600563 0.196323
  outer loop
   vertex 124.423 155.125 167.795
   vertex 124.414 154.231 167.565
   vertex 124.569 154.444 166.859
  endloop
 endfacet
 facet normal 0.819433 -0.572926 0.0168849
  outer loop
   vertex 125.183 155.256 166.434
   vertex 125.418 155.598 166.666
   vertex 125.159 155.24 167.05
  endloop
 endfacet
 facet normal -0.878951 -0.328464 0.34577
  outer loop
   vertex 119.017 155.312 166.959
   vertex 119.09 155.855 167.659
   vertex 118.803 156.277 167.332
  endloop
 endfacet
 facet normal -0.888253 -0.323081 0.326535
  outer loop
   vertex 119.017 155.312 166.959
   vertex 118.803 156.277 167.332
   vertex 118.808 155.597 166.672
  endloop
 endfacet
 facet normal -0.997725 -0.0503794 0.0447976
  outer loop
   vertex 118.808 155.597 166.672
   vertex 118.803 156.277 167.332
   vertex 118.757 156.424 166.477
  endloop
 endfacet
 facet normal -0.748933 -0.483937 0.452664
  outer loop
   vertex 119.595 155.005 167.587
   vertex 119.09 155.855 167.659
   vertex 119.017 155.312 166.959
  endloop
 endfacet
 facet normal 0.707868 -0.246523 0.661928
  outer loop
   vertex 125.252 156.068 167.259
   vertex 124.423 155.125 167.795
   vertex 125.159 155.24 167.05
  endloop
 endfacet
 facet normal 0.689053 -0.212407 0.692885
  outer loop
   vertex 124.86 156.44 167.763
   vertex 124.423 155.125 167.795
   vertex 125.252 156.068 167.259
  endloop
 endfacet
 facet normal 0.9482 -0.0598733 0.311979
  outer loop
   vertex 125.418 155.598 166.666
   vertex 125.493 156.471 166.606
   vertex 125.252 156.068 167.259
  endloop
 endfacet
 facet normal 0.889691 -0.202966 0.408968
  outer loop
   vertex 125.159 155.24 167.05
   vertex 125.418 155.598 166.666
   vertex 125.252 156.068 167.259
  endloop
 endfacet
 facet normal -0.997017 -0.0645491 0.0423242
  outer loop
   vertex 118.757 156.424 166.477
   vertex 118.803 156.277 167.332
   vertex 118.707 157.3 166.628
  endloop
 endfacet
 facet normal -0.993558 -0.016113 0.112177
  outer loop
   vertex 118.803 156.277 167.332
   vertex 118.801 157.319 167.466
   vertex 118.707 157.3 166.628
  endloop
 endfacet
 facet normal 0.763148 -0.0664807 0.642795
  outer loop
   vertex 125.317 157.112 167.29
   vertex 124.86 156.44 167.763
   vertex 125.252 156.068 167.259
  endloop
 endfacet
 facet normal 0.741284 -0.0321724 0.67042
  outer loop
   vertex 124.93 157.509 167.737
   vertex 124.86 156.44 167.763
   vertex 125.317 157.112 167.29
  endloop
 endfacet
 facet normal 0.955702 -0.0482973 0.290346
  outer loop
   vertex 125.493 156.471 166.606
   vertex 125.554 157.501 166.574
   vertex 125.317 157.112 167.29
  endloop
 endfacet
 facet normal 0.949185 -0.0681245 0.307258
  outer loop
   vertex 125.252 156.068 167.259
   vertex 125.493 156.471 166.606
   vertex 125.317 157.112 167.29
  endloop
 endfacet
 facet normal -0.993729 0.00354699 0.111756
  outer loop
   vertex 118.707 157.3 166.628
   vertex 118.801 157.319 167.466
   vertex 118.712 158.235 166.643
  endloop
 endfacet
 facet normal -0.946624 0.159406 0.280165
  outer loop
   vertex 118.801 157.319 167.466
   vertex 118.965 158.358 167.429
   vertex 118.712 158.235 166.643
  endloop
 endfacet
 facet normal 0.799316 0.115537 0.589699
  outer loop
   vertex 125.225 158.269 167.187
   vertex 124.93 157.509 167.737
   vertex 125.317 157.112 167.29
  endloop
 endfacet
 facet normal 0.730453 0.190135 0.655963
  outer loop
   vertex 124.723 158.437 167.698
   vertex 124.93 157.509 167.737
   vertex 125.225 158.269 167.187
  endloop
 endfacet
 facet normal 0.910523 0.063547 0.408546
  outer loop
   vertex 125.554 157.501 166.574
   vertex 125.533 158.447 166.474
   vertex 125.225 158.269 167.187
  endloop
 endfacet
 facet normal 0.925442 0.105538 0.363893
  outer loop
   vertex 125.317 157.112 167.29
   vertex 125.554 157.501 166.574
   vertex 125.225 158.269 167.187
  endloop
 endfacet
 facet normal -0.901946 0.362928 0.234044
  outer loop
   vertex 118.901 158.755 166.565
   vertex 118.712 158.235 166.643
   vertex 118.965 158.358 167.429
  endloop
 endfacet
 facet normal -0.6896 0.637157 0.344214
  outer loop
   vertex 118.965 158.358 167.429
   vertex 119.479 159.227 166.849
   vertex 118.901 158.755 166.565
  endloop
 endfacet
 facet normal -0.757726 0.607257 0.238936
  outer loop
   vertex 119.62 159.108 167.597
   vertex 119.479 159.227 166.849
   vertex 118.965 158.358 167.429
  endloop
 endfacet
 facet normal 0.63667 0.413367 0.650983
  outer loop
   vertex 124.723 158.437 167.698
   vertex 124.328 159.325 167.52
   vertex 124.223 158.996 167.833
  endloop
 endfacet
 facet normal 0.710679 0.427745 0.558543
  outer loop
   vertex 124.723 158.437 167.698
   vertex 125.225 158.269 167.187
   vertex 124.328 159.325 167.52
  endloop
 endfacet
 facet normal 0.659237 0.350348 0.665329
  outer loop
   vertex 125.225 158.269 167.187
   vertex 125.192 159.452 166.598
   vertex 124.328 159.325 167.52
  endloop
 endfacet
 facet normal 0.867808 0.241218 0.434423
  outer loop
   vertex 125.225 158.269 167.187
   vertex 125.533 158.447 166.474
   vertex 125.192 159.452 166.598
  endloop
 endfacet
 facet normal -0.648772 0.723142 0.23698
  outer loop
   vertex 119.479 159.227 166.849
   vertex 119.62 159.108 167.597
   vertex 119.968 159.463 167.468
  endloop
 endfacet
 facet normal -0.625069 0.752599 0.207084
  outer loop
   vertex 120.013 159.743 166.587
   vertex 119.479 159.227 166.849
   vertex 119.968 159.463 167.468
  endloop
 endfacet
 facet normal -0.601527 0.711542 0.363144
  outer loop
   vertex 120.772 160.308 166.73
   vertex 120.809 159.921 167.548
   vertex 121.362 160.549 167.234
  endloop
 endfacet
 facet normal -0.599447 0.712993 0.363737
  outer loop
   vertex 120.772 160.308 166.73
   vertex 120.013 159.743 166.587
   vertex 120.809 159.921 167.548
  endloop
 endfacet
 facet normal -0.482257 0.841702 0.242827
  outer loop
   vertex 120.013 159.743 166.587
   vertex 119.968 159.463 167.468
   vertex 120.809 159.921 167.548
  endloop
 endfacet
 facet normal -0.196777 0.660733 0.724369
  outer loop
   vertex 121.362 160.549 167.234
   vertex 121.895 160.133 167.759
   vertex 122.259 160.601 167.43
  endloop
 endfacet
 facet normal -0.263518 0.607177 0.749596
  outer loop
   vertex 120.809 159.921 167.548
   vertex 121.895 160.133 167.759
   vertex 121.362 160.549 167.234
  endloop
 endfacet
 facet normal 0.0826422 0.528315 0.845017
  outer loop
   vertex 121.895 160.133 167.759
   vertex 123.124 160.173 167.613
   vertex 122.259 160.601 167.43
  endloop
 endfacet
 facet normal 0.398097 0.479784 0.781873
  outer loop
   vertex 124.328 159.325 167.52
   vertex 124.287 160.276 166.958
   vertex 123.124 160.173 167.613
  endloop
 endfacet
 facet normal 0.566077 0.485568 0.666169
  outer loop
   vertex 125.049 159.904 166.582
   vertex 124.629 160.482 166.518
   vertex 124.287 160.276 166.958
  endloop
 endfacet
 facet normal 0.507551 0.190255 0.840354
  outer loop
   vertex 125.049 159.904 166.582
   vertex 124.287 160.276 166.958
   vertex 125.192 159.452 166.598
  endloop
 endfacet
 facet normal 0.635777 0.413119 0.652012
  outer loop
   vertex 125.192 159.452 166.598
   vertex 124.287 160.276 166.958
   vertex 124.328 159.325 167.52
  endloop
 endfacet
 facet normal -0.569259 0.765644 0.299555
  outer loop
   vertex 120.772 160.308 166.73
   vertex 121.362 160.549 167.234
   vertex 121.144 160.705 166.422
  endloop
 endfacet
 facet normal -0.612496 0.729579 0.304243
  outer loop
   vertex 121.836 161.207 166.611
   vertex 121.144 160.705 166.422
   vertex 121.362 160.549 167.234
  endloop
 endfacet
 facet normal -0.332886 0.7637 0.553127
  outer loop
   vertex 121.836 161.207 166.611
   vertex 121.362 160.549 167.234
   vertex 122.23 161.222 166.828
  endloop
 endfacet
 facet normal -0.194299 0.678593 0.70835
  outer loop
   vertex 122.23 161.222 166.828
   vertex 121.362 160.549 167.234
   vertex 122.259 160.601 167.43
  endloop
 endfacet
 facet normal 0.126129 0.594445 0.794183
  outer loop
   vertex 123.124 160.173 167.613
   vertex 123.228 161.092 166.909
   vertex 122.259 160.601 167.43
  endloop
 endfacet
 facet normal 0.0324814 0.696937 0.716396
  outer loop
   vertex 123.228 161.092 166.909
   vertex 122.23 161.222 166.828
   vertex 122.259 160.601 167.43
  endloop
 endfacet
 facet normal 0.364619 0.665917 0.650851
  outer loop
   vertex 124.122 160.886 166.619
   vertex 123.672 161.299 166.449
   vertex 123.228 161.092 166.909
  endloop
 endfacet
 facet normal 0.369775 0.525861 0.765988
  outer loop
   vertex 124.122 160.886 166.619
   vertex 123.228 161.092 166.909
   vertex 124.287 160.276 166.958
  endloop
 endfacet
 facet normal 0.377956 0.53584 0.755
  outer loop
   vertex 124.287 160.276 166.958
   vertex 123.228 161.092 166.909
   vertex 123.124 160.173 167.613
  endloop
 endfacet
 facet normal 0.543416 0.515492 0.662546
  outer loop
   vertex 124.629 160.482 166.518
   vertex 124.122 160.886 166.619
   vertex 124.287 160.276 166.958
  endloop
 endfacet
 facet normal -0.277412 0.850735 0.446423
  outer loop
   vertex 121.836 161.207 166.611
   vertex 122.23 161.222 166.828
   vertex 122.198 161.43 166.411
  endloop
 endfacet
 facet normal 0.0233421 0.895089 0.445277
  outer loop
   vertex 123.044 161.421 166.386
   vertex 122.198 161.43 166.411
   vertex 122.23 161.222 166.828
  endloop
 endfacet
 facet normal 0.0698177 0.855463 0.513136
  outer loop
   vertex 123.228 161.092 166.909
   vertex 123.044 161.421 166.386
   vertex 122.23 161.222 166.828
  endloop
 endfacet
 facet normal 0.116557 0.858824 0.498834
  outer loop
   vertex 123.672 161.299 166.449
   vertex 123.044 161.421 166.386
   vertex 123.228 161.092 166.909
  endloop
 endfacet
 facet normal -0.504212 -0.688918 0.520733
  outer loop
   vertex 121.247 153.036 167.657
   vertex 120.892 153.458 167.872
   vertex 120.711 153.252 167.424
  endloop
 endfacet
 facet normal -0.189976 -0.699563 0.688854
  outer loop
   vertex 121.247 153.036 167.657
   vertex 122.117 152.727 167.583
   vertex 121.997 153.419 168.252
  endloop
 endfacet
 facet normal -0.277124 -0.610833 0.741677
  outer loop
   vertex 120.892 153.458 167.872
   vertex 121.247 153.036 167.657
   vertex 121.997 153.419 168.252
  endloop
 endfacet
 facet normal 0.313307 -0.868737 0.383582
  outer loop
   vertex 122.117 152.727 167.583
   vertex 123.079 152.992 167.397
   vertex 123.134 153.289 168.023
  endloop
 endfacet
 facet normal 0.0668212 -0.687859 0.722762
  outer loop
   vertex 121.997 153.419 168.252
   vertex 122.117 152.727 167.583
   vertex 123.134 153.289 168.023
  endloop
 endfacet
 facet normal 0.249301 -0.883621 0.396312
  outer loop
   vertex 123.079 152.992 167.397
   vertex 123.86 153.304 167.6
   vertex 123.134 153.289 168.023
  endloop
 endfacet
 facet normal -0.548632 -0.50486 0.666423
  outer loop
   vertex 120.114 153.864 167.591
   vertex 120.071 154.278 167.87
   vertex 119.653 154.219 167.481
  endloop
 endfacet
 facet normal -0.534372 -0.664887 0.521893
  outer loop
   vertex 120.114 153.864 167.591
   vertex 120.711 153.252 167.424
   vertex 120.892 153.458 167.872
  endloop
 endfacet
 facet normal -0.51497 -0.514377 0.685727
  outer loop
   vertex 120.114 153.864 167.591
   vertex 120.892 153.458 167.872
   vertex 120.071 154.278 167.87
  endloop
 endfacet
 facet normal -0.494779 -0.494128 0.714865
  outer loop
   vertex 120.071 154.278 167.87
   vertex 120.892 153.458 167.872
   vertex 120.952 154.249 168.46
  endloop
 endfacet
 facet normal -0.0465459 -0.508706 0.859681
  outer loop
   vertex 121.762 154.132 168.662
   vertex 121.997 153.419 168.252
   vertex 122.226 154.071 168.65
  endloop
 endfacet
 facet normal -0.275631 -0.545055 0.791797
  outer loop
   vertex 121.762 154.132 168.662
   vertex 120.952 154.249 168.46
   vertex 121.997 153.419 168.252
  endloop
 endfacet
 facet normal -0.287975 -0.557312 0.778764
  outer loop
   vertex 120.952 154.249 168.46
   vertex 120.892 153.458 167.872
   vertex 121.997 153.419 168.252
  endloop
 endfacet
 facet normal 0.277836 -0.498611 0.821093
  outer loop
   vertex 122.226 154.071 168.65
   vertex 123.141 154.137 168.381
   vertex 122.547 154.372 168.725
  endloop
 endfacet
 facet normal 0.269914 -0.569309 0.776553
  outer loop
   vertex 122.226 154.071 168.65
   vertex 121.997 153.419 168.252
   vertex 123.141 154.137 168.381
  endloop
 endfacet
 facet normal 0.13942 -0.386007 0.911899
  outer loop
   vertex 121.997 153.419 168.252
   vertex 123.134 153.289 168.023
   vertex 123.141 154.137 168.381
  endloop
 endfacet
 facet normal 0.741529 -0.401843 0.537268
  outer loop
   vertex 123.86 153.304 167.6
   vertex 124.199 153.646 167.388
   vertex 124.06 154.006 167.849
  endloop
 endfacet
 facet normal 0.465399 -0.410781 0.784004
  outer loop
   vertex 123.86 153.304 167.6
   vertex 124.06 154.006 167.849
   vertex 123.134 153.289 168.023
  endloop
 endfacet
 facet normal 0.430061 -0.353905 0.830541
  outer loop
   vertex 123.134 153.289 168.023
   vertex 124.06 154.006 167.849
   vertex 123.141 154.137 168.381
  endloop
 endfacet
 facet normal 0.715332 -0.429645 0.551094
  outer loop
   vertex 124.199 153.646 167.388
   vertex 124.414 154.231 167.565
   vertex 124.06 154.006 167.849
  endloop
 endfacet
 facet normal -0.77711 -0.291758 0.557653
  outer loop
   vertex 120.071 154.278 167.87
   vertex 119.958 155.352 168.274
   vertex 119.595 155.005 167.587
  endloop
 endfacet
 facet normal -0.662688 -0.147814 0.734163
  outer loop
   vertex 119.653 154.219 167.481
   vertex 120.071 154.278 167.87
   vertex 119.595 155.005 167.587
  endloop
 endfacet
 facet normal -0.436409 -0.342108 0.832171
  outer loop
   vertex 120.689 155.144 168.69
   vertex 120.952 154.249 168.46
   vertex 121.206 154.613 168.743
  endloop
 endfacet
 facet normal -0.536302 -0.354469 0.765984
  outer loop
   vertex 120.689 155.144 168.69
   vertex 119.958 155.352 168.274
   vertex 120.952 154.249 168.46
  endloop
 endfacet
 facet normal -0.529564 -0.347034 0.774035
  outer loop
   vertex 119.958 155.352 168.274
   vertex 120.071 154.278 167.87
   vertex 120.952 154.249 168.46
  endloop
 endfacet
 facet normal -0.276291 -0.462199 0.842636
  outer loop
   vertex 121.762 154.132 168.662
   vertex 121.206 154.613 168.743
   vertex 120.952 154.249 168.46
  endloop
 endfacet
 facet normal 0.345581 -0.38076 0.857669
  outer loop
   vertex 123.141 154.137 168.381
   vertex 123.286 154.771 168.604
   vertex 122.547 154.372 168.725
  endloop
 endfacet
 facet normal 0.613684 -0.306434 0.727661
  outer loop
   vertex 123.286 154.771 168.604
   vertex 124.423 155.125 167.795
   vertex 123.581 155.468 168.649
  endloop
 endfacet
 facet normal 0.612009 -0.383496 0.691647
  outer loop
   vertex 123.286 154.771 168.604
   vertex 123.141 154.137 168.381
   vertex 124.423 155.125 167.795
  endloop
 endfacet
 facet normal 0.485295 -0.114928 0.866764
  outer loop
   vertex 123.141 154.137 168.381
   vertex 124.06 154.006 167.849
   vertex 124.423 155.125 167.795
  endloop
 endfacet
 facet normal 0.684525 -0.187449 0.704478
  outer loop
   vertex 124.06 154.006 167.849
   vertex 124.414 154.231 167.565
   vertex 124.423 155.125 167.795
  endloop
 endfacet
 facet normal -0.820911 -0.125712 0.557048
  outer loop
   vertex 119.09 155.855 167.659
   vertex 119.139 156.451 167.866
   vertex 118.803 156.277 167.332
  endloop
 endfacet
 facet normal -0.674914 -0.451112 0.583942
  outer loop
   vertex 119.09 155.855 167.659
   vertex 119.595 155.005 167.587
   vertex 119.958 155.352 168.274
  endloop
 endfacet
 facet normal -0.641736 -0.203741 0.739368
  outer loop
   vertex 119.09 155.855 167.659
   vertex 119.958 155.352 168.274
   vertex 119.139 156.451 167.866
  endloop
 endfacet
 facet normal -0.392333 0.0488111 0.918527
  outer loop
   vertex 119.139 156.451 167.866
   vertex 119.958 155.352 168.274
   vertex 119.984 156.38 168.231
  endloop
 endfacet
 facet normal -0.490375 0.0174331 0.871337
  outer loop
   vertex 120.686 156.052 168.67
   vertex 119.958 155.352 168.274
   vertex 120.689 155.144 168.69
  endloop
 endfacet
 facet normal -0.51313 0.0492142 0.856899
  outer loop
   vertex 119.984 156.38 168.231
   vertex 119.958 155.352 168.274
   vertex 120.686 156.052 168.67
  endloop
 endfacet
 facet normal 0.65317 -0.209486 0.727657
  outer loop
   vertex 124.229 156.161 168.267
   vertex 123.581 155.468 168.649
   vertex 124.423 155.125 167.795
  endloop
 endfacet
 facet normal 0.600751 -0.126459 0.789371
  outer loop
   vertex 123.682 156.462 168.731
   vertex 123.581 155.468 168.649
   vertex 124.229 156.161 168.267
  endloop
 endfacet
 facet normal 0.664318 -0.203546 0.719202
  outer loop
   vertex 124.423 155.125 167.795
   vertex 124.86 156.44 167.763
   vertex 124.229 156.161 168.267
  endloop
 endfacet
 facet normal -0.787918 -0.0230176 0.61535
  outer loop
   vertex 119.139 156.451 167.866
   vertex 119.1 157.543 167.857
   vertex 118.801 157.319 167.466
  endloop
 endfacet
 facet normal -0.833645 -0.0719485 0.547595
  outer loop
   vertex 118.803 156.277 167.332
   vertex 119.139 156.451 167.866
   vertex 118.801 157.319 167.466
  endloop
 endfacet
 facet normal -0.402366 -0.154233 0.902393
  outer loop
   vertex 119.984 156.38 168.231
   vertex 119.992 157.371 168.404
   vertex 119.139 156.451 167.866
  endloop
 endfacet
 facet normal -0.524021 -0.0117753 0.851624
  outer loop
   vertex 119.992 157.371 168.404
   vertex 119.1 157.543 167.857
   vertex 119.139 156.451 167.866
  endloop
 endfacet
 facet normal -0.552834 -0.0715953 0.83021
  outer loop
   vertex 120.556 157.049 168.67
   vertex 119.984 156.38 168.231
   vertex 120.686 156.052 168.67
  endloop
 endfacet
 facet normal -0.488658 -0.146144 0.860149
  outer loop
   vertex 119.992 157.371 168.404
   vertex 119.984 156.38 168.231
   vertex 120.556 157.049 168.67
  endloop
 endfacet
 facet normal 0.636312 -0.0329558 0.770728
  outer loop
   vertex 124.207 157.233 168.331
   vertex 123.682 156.462 168.731
   vertex 124.229 156.161 168.267
  endloop
 endfacet
 facet normal 0.553621 0.0545559 0.83098
  outer loop
   vertex 123.581 157.393 168.737
   vertex 123.682 156.462 168.731
   vertex 124.207 157.233 168.331
  endloop
 endfacet
 facet normal 0.639854 -0.0231892 0.768147
  outer loop
   vertex 124.86 156.44 167.763
   vertex 124.93 157.509 167.737
   vertex 124.207 157.233 168.331
  endloop
 endfacet
 facet normal 0.632588 -0.0332149 0.773776
  outer loop
   vertex 124.229 156.161 168.267
   vertex 124.86 156.44 167.763
   vertex 124.207 157.233 168.331
  endloop
 endfacet
 facet normal -0.822263 0.152309 0.548348
  outer loop
   vertex 119.1 157.543 167.857
   vertex 119.24 158.454 167.815
   vertex 118.965 158.358 167.429
  endloop
 endfacet
 facet normal -0.825256 0.149806 0.544528
  outer loop
   vertex 118.801 157.319 167.466
   vertex 119.1 157.543 167.857
   vertex 118.965 158.358 167.429
  endloop
 endfacet
 facet normal -0.499175 0.131838 0.856413
  outer loop
   vertex 119.992 157.371 168.404
   vertex 119.965 158.355 168.237
   vertex 119.1 157.543 167.857
  endloop
 endfacet
 facet normal -0.487778 0.115527 0.865289
  outer loop
   vertex 119.965 158.355 168.237
   vertex 119.24 158.454 167.815
   vertex 119.1 157.543 167.857
  endloop
 endfacet
 facet normal -0.370147 0.112884 0.922089
  outer loop
   vertex 120.871 157.814 168.702
   vertex 119.992 157.371 168.404
   vertex 120.556 157.049 168.67
  endloop
 endfacet
 facet normal -0.44073 0.305563 0.844031
  outer loop
   vertex 120.871 157.814 168.702
   vertex 121.033 158.404 168.573
   vertex 119.992 157.371 168.404
  endloop
 endfacet
 facet normal -0.303463 0.151413 0.940736
  outer loop
   vertex 121.033 158.404 168.573
   vertex 119.965 158.355 168.237
   vertex 119.992 157.371 168.404
  endloop
 endfacet
 facet normal -0.326579 0.286526 0.900693
  outer loop
   vertex 120.871 157.814 168.702
   vertex 121.392 158.187 168.772
   vertex 121.033 158.404 168.573
  endloop
 endfacet
 facet normal 0.332834 0.4285 0.840006
  outer loop
   vertex 123.313 158.302 168.572
   vertex 122.73 158.444 168.731
   vertex 123.069 158.016 168.814
  endloop
 endfacet
 facet normal 0.480006 0.292311 0.827133
  outer loop
   vertex 123.581 157.393 168.737
   vertex 123.313 158.302 168.572
   vertex 123.069 158.016 168.814
  endloop
 endfacet
 facet normal 0.572445 0.307413 0.760135
  outer loop
   vertex 123.581 157.393 168.737
   vertex 124.207 157.233 168.331
   vertex 123.313 158.302 168.572
  endloop
 endfacet
 facet normal 0.440265 0.169491 0.881725
  outer loop
   vertex 124.207 157.233 168.331
   vertex 124.208 158.309 168.123
   vertex 123.313 158.302 168.572
  endloop
 endfacet
 facet normal 0.60281 0.166847 0.780245
  outer loop
   vertex 124.93 157.509 167.737
   vertex 124.723 158.437 167.698
   vertex 124.208 158.309 168.123
  endloop
 endfacet
 facet normal 0.592162 0.151866 0.791379
  outer loop
   vertex 124.207 157.233 168.331
   vertex 124.93 157.509 167.737
   vertex 124.208 158.309 168.123
  endloop
 endfacet
 facet normal -0.73628 0.555546 0.386342
  outer loop
   vertex 119.62 159.108 167.597
   vertex 118.965 158.358 167.429
   vertex 119.24 158.454 167.815
  endloop
 endfacet
 facet normal -0.619139 0.546667 0.563756
  outer loop
   vertex 119.62 159.108 167.597
   vertex 119.24 158.454 167.815
   vertex 120.019 159.214 167.933
  endloop
 endfacet
 facet normal -0.442548 0.323045 0.836536
  outer loop
   vertex 120.019 159.214 167.933
   vertex 119.24 158.454 167.815
   vertex 119.965 158.355 168.237
  endloop
 endfacet
 facet normal -0.294648 0.372116 0.880177
  outer loop
   vertex 121.033 158.404 168.573
   vertex 120.996 159.293 168.185
   vertex 119.965 158.355 168.237
  endloop
 endfacet
 facet normal -0.260447 0.335971 0.905147
  outer loop
   vertex 120.996 159.293 168.185
   vertex 120.019 159.214 167.933
   vertex 119.965 158.355 168.237
  endloop
 endfacet
 facet normal -0.235283 0.41688 0.877982
  outer loop
   vertex 121.982 158.619 168.725
   vertex 121.033 158.404 168.573
   vertex 121.392 158.187 168.772
  endloop
 endfacet
 facet normal -0.254781 0.573256 0.778758
  outer loop
   vertex 121.982 158.619 168.725
   vertex 122.244 159.21 168.376
   vertex 121.033 158.404 168.573
  endloop
 endfacet
 facet normal -0.11372 0.393754 0.912154
  outer loop
   vertex 122.244 159.21 168.376
   vertex 120.996 159.293 168.185
   vertex 121.033 158.404 168.573
  endloop
 endfacet
 facet normal 0.104317 0.471149 0.875863
  outer loop
   vertex 122.73 158.444 168.731
   vertex 122.244 159.21 168.376
   vertex 121.982 158.619 168.725
  endloop
 endfacet
 facet normal 0.34175 0.564337 0.751486
  outer loop
   vertex 122.73 158.444 168.731
   vertex 123.313 158.302 168.572
   vertex 122.244 159.21 168.376
  endloop
 endfacet
 facet normal 0.187843 0.413122 0.891092
  outer loop
   vertex 123.313 158.302 168.572
   vertex 123.437 159.202 168.128
   vertex 122.244 159.21 168.376
  endloop
 endfacet
 facet normal 0.416693 0.551589 0.722576
  outer loop
   vertex 124.223 158.996 167.833
   vertex 124.328 159.325 167.52
   vertex 123.437 159.202 168.128
  endloop
 endfacet
 facet normal 0.408749 0.348247 0.843592
  outer loop
   vertex 124.223 158.996 167.833
   vertex 123.437 159.202 168.128
   vertex 124.208 158.309 168.123
  endloop
 endfacet
 facet normal 0.416463 0.354943 0.837003
  outer loop
   vertex 124.208 158.309 168.123
   vertex 123.437 159.202 168.128
   vertex 123.313 158.302 168.572
  endloop
 endfacet
 facet normal 0.556981 0.313573 0.769054
  outer loop
   vertex 124.723 158.437 167.698
   vertex 124.223 158.996 167.833
   vertex 124.208 158.309 168.123
  endloop
 endfacet
 facet normal -0.556116 0.705621 0.439129
  outer loop
   vertex 119.62 159.108 167.597
   vertex 120.019 159.214 167.933
   vertex 119.968 159.463 167.468
  endloop
 endfacet
 facet normal -0.458816 0.761262 0.458223
  outer loop
   vertex 120.809 159.921 167.548
   vertex 119.968 159.463 167.468
   vertex 120.019 159.214 167.933
  endloop
 endfacet
 facet normal -0.23801 0.655559 0.716654
  outer loop
   vertex 120.996 159.293 168.185
   vertex 120.809 159.921 167.548
   vertex 120.019 159.214 167.933
  endloop
 endfacet
 facet normal -0.264554 0.646536 0.715544
  outer loop
   vertex 121.895 160.133 167.759
   vertex 120.809 159.921 167.548
   vertex 120.996 159.293 168.185
  endloop
 endfacet
 facet normal -0.094101 0.528821 0.8435
  outer loop
   vertex 122.244 159.21 168.376
   vertex 121.895 160.133 167.759
   vertex 120.996 159.293 168.185
  endloop
 endfacet
 facet normal 0.0775491 0.574535 0.814798
  outer loop
   vertex 123.124 160.173 167.613
   vertex 121.895 160.133 167.759
   vertex 122.244 159.21 168.376
  endloop
 endfacet
 facet normal 0.17865 0.505424 0.844175
  outer loop
   vertex 123.437 159.202 168.128
   vertex 123.124 160.173 167.613
   vertex 122.244 159.21 168.376
  endloop
 endfacet
 facet normal 0.427874 0.527332 0.734061
  outer loop
   vertex 124.328 159.325 167.52
   vertex 123.124 160.173 167.613
   vertex 123.437 159.202 168.128
  endloop
 endfacet
 facet normal -0.0277564 -0.379524 0.924765
  outer loop
   vertex 122.226 154.071 168.65
   vertex 122.032 154.498 168.82
   vertex 121.762 154.132 168.662
  endloop
 endfacet
 facet normal 0.0920311 -0.330655 0.939254
  outer loop
   vertex 122.226 154.071 168.65
   vertex 122.547 154.372 168.725
   vertex 122.032 154.498 168.82
  endloop
 endfacet
 facet normal -0.307206 -0.206803 0.928901
  outer loop
   vertex 121.206 154.613 168.743
   vertex 121.268 155.365 168.931
   vertex 120.689 155.144 168.69
  endloop
 endfacet
 facet normal -0.13109 -0.310652 0.941441
  outer loop
   vertex 121.206 154.613 168.743
   vertex 121.762 154.132 168.662
   vertex 122.032 154.498 168.82
  endloop
 endfacet
 facet normal -0.122287 -0.231228 0.965184
  outer loop
   vertex 121.206 154.613 168.743
   vertex 122.032 154.498 168.82
   vertex 121.268 155.365 168.931
  endloop
 endfacet
 facet normal -0.203861 -0.298812 0.932283
  outer loop
   vertex 121.268 155.365 168.931
   vertex 122.032 154.498 168.82
   vertex 122.219 155.353 169.135
  endloop
 endfacet
 facet normal 0.362695 -0.420352 0.831719
  outer loop
   vertex 122.547 154.372 168.725
   vertex 123.286 154.771 168.604
   vertex 122.924 155.1 168.928
  endloop
 endfacet
 facet normal 0.0969815 -0.314219 0.944384
  outer loop
   vertex 122.547 154.372 168.725
   vertex 122.924 155.1 168.928
   vertex 122.032 154.498 168.82
  endloop
 endfacet
 facet normal 0.136733 -0.368626 0.919467
  outer loop
   vertex 122.032 154.498 168.82
   vertex 122.924 155.1 168.928
   vertex 122.219 155.353 169.135
  endloop
 endfacet
 facet normal 0.498774 -0.264161 0.825496
  outer loop
   vertex 123.286 154.771 168.604
   vertex 123.581 155.468 168.649
   vertex 122.924 155.1 168.928
  endloop
 endfacet
 facet normal -0.421451 -0.0129623 0.906759
  outer loop
   vertex 121.268 155.365 168.931
   vertex 121.179 156.45 168.905
   vertex 120.686 156.052 168.67
  endloop
 endfacet
 facet normal -0.390036 0.018949 0.920605
  outer loop
   vertex 120.689 155.144 168.69
   vertex 121.268 155.365 168.931
   vertex 120.686 156.052 168.67
  endloop
 endfacet
 facet normal -0.210134 -0.0969708 0.972852
  outer loop
   vertex 122.219 155.353 169.135
   vertex 122.105 156.253 169.2
   vertex 121.268 155.365 168.931
  endloop
 endfacet
 facet normal -0.30422 -0.00224615 0.952599
  outer loop
   vertex 122.105 156.253 169.2
   vertex 121.179 156.45 168.905
   vertex 121.268 155.365 168.931
  endloop
 endfacet
 facet normal 0.218162 -0.175193 0.960059
  outer loop
   vertex 122.924 155.1 168.928
   vertex 123.033 156.056 169.078
   vertex 122.219 155.353 169.135
  endloop
 endfacet
 facet normal 0.118144 -0.0567053 0.991376
  outer loop
   vertex 123.033 156.056 169.078
   vertex 122.105 156.253 169.2
   vertex 122.219 155.353 169.135
  endloop
 endfacet
 facet normal 0.526596 -0.123169 0.841146
  outer loop
   vertex 123.581 155.468 168.649
   vertex 123.682 156.462 168.731
   vertex 123.033 156.056 169.078
  endloop
 endfacet
 facet normal 0.471803 -0.188821 0.861248
  outer loop
   vertex 122.924 155.1 168.928
   vertex 123.581 155.468 168.649
   vertex 123.033 156.056 169.078
  endloop
 endfacet
 facet normal -0.300321 0.0615494 0.95185
  outer loop
   vertex 121.179 156.45 168.905
   vertex 121.218 157.424 168.854
   vertex 120.556 157.049 168.67
  endloop
 endfacet
 facet normal -0.395505 -0.0512054 0.917035
  outer loop
   vertex 120.686 156.052 168.67
   vertex 121.179 156.45 168.905
   vertex 120.556 157.049 168.67
  endloop
 endfacet
 facet normal -0.303458 0.00169403 0.952843
  outer loop
   vertex 122.105 156.253 169.2
   vertex 121.983 157.157 169.159
   vertex 121.179 156.45 168.905
  endloop
 endfacet
 facet normal -0.351166 0.0626549 0.934215
  outer loop
   vertex 121.983 157.157 169.159
   vertex 121.218 157.424 168.854
   vertex 121.179 156.45 168.905
  endloop
 endfacet
 facet normal 0.133029 0.0136593 0.991018
  outer loop
   vertex 123.033 156.056 169.078
   vertex 122.969 157.159 169.071
   vertex 122.105 156.253 169.2
  endloop
 endfacet
 facet normal 0.0886711 0.0564987 0.994457
  outer loop
   vertex 122.969 157.159 169.071
   vertex 121.983 157.157 169.159
   vertex 122.105 156.253 169.2
  endloop
 endfacet
 facet normal 0.465542 0.0446422 0.883899
  outer loop
   vertex 123.682 156.462 168.731
   vertex 123.581 157.393 168.737
   vertex 122.969 157.159 169.071
  endloop
 endfacet
 facet normal 0.455671 0.0317775 0.889581
  outer loop
   vertex 123.033 156.056 169.078
   vertex 123.682 156.462 168.731
   vertex 122.969 157.159 169.071
  endloop
 endfacet
 facet normal -0.313938 0.0887943 0.945282
  outer loop
   vertex 120.556 157.049 168.67
   vertex 121.218 157.424 168.854
   vertex 120.871 157.814 168.702
  endloop
 endfacet
 facet normal -0.241967 0.157744 0.957376
  outer loop
   vertex 121.392 158.187 168.772
   vertex 120.871 157.814 168.702
   vertex 121.218 157.424 168.854
  endloop
 endfacet
 facet normal -0.214808 0.152326 0.964704
  outer loop
   vertex 121.392 158.187 168.772
   vertex 121.218 157.424 168.854
   vertex 122.177 158.055 168.968
  endloop
 endfacet
 facet normal -0.279326 0.25761 0.924994
  outer loop
   vertex 122.177 158.055 168.968
   vertex 121.218 157.424 168.854
   vertex 121.983 157.157 169.159
  endloop
 endfacet
 facet normal 0.174276 0.320337 0.931135
  outer loop
   vertex 123.069 158.016 168.814
   vertex 122.73 158.444 168.731
   vertex 122.177 158.055 168.968
  endloop
 endfacet
 facet normal 0.174859 0.264193 0.948486
  outer loop
   vertex 123.069 158.016 168.814
   vertex 122.177 158.055 168.968
   vertex 122.969 157.159 169.071
  endloop
 endfacet
 facet normal 0.0869555 0.1898 0.977964
  outer loop
   vertex 122.969 157.159 169.071
   vertex 122.177 158.055 168.968
   vertex 121.983 157.157 169.159
  endloop
 endfacet
 facet normal 0.401226 0.219976 0.889173
  outer loop
   vertex 123.581 157.393 168.737
   vertex 123.069 158.016 168.814
   vertex 122.969 157.159 169.071
  endloop
 endfacet
 facet normal -0.173506 0.337726 0.925115
  outer loop
   vertex 121.392 158.187 168.772
   vertex 122.177 158.055 168.968
   vertex 121.982 158.619 168.725
  endloop
 endfacet
 facet normal 0.09211 0.419914 0.902878
  outer loop
   vertex 122.73 158.444 168.731
   vertex 121.982 158.619 168.725
   vertex 122.177 158.055 168.968
  endloop
 endfacet
endsolid
