ply
format ascii 1.0
element vertex 570
property float x
property float y
property float z
property float nx
property float ny
property float nz
element face 190
property list uint uint vertex_indices
end_header
112.234 196.149 137.592 0.109458 -0.360508 -0.926311
112.114 195.522 137.822 0.109458 -0.360508 -0.926311
111.627 195.993 137.581 0.109458 -0.360508 -0.926311
111.627 195.993 137.581 -0.202935 -0.132713 -0.970157
111.067 196.248 137.663 -0.202935 -0.132713 -0.970157
111.241 196.988 137.525 -0.202935 -0.132713 -0.970157
111.627 195.993 137.581 0.0294711 -0.0442427 -0.998586
111.241 196.988 137.525 0.0294711 -0.0442427 -0.998586
112.234 196.149 137.592 0.0294711 -0.0442427 -0.998586
112.234 196.149 137.592 -0.118711 -0.217194 -0.968883
111.241 196.988 137.525 -0.118711 -0.217194 -0.968883
112.317 197.038 137.382 -0.118711 -0.217194 -0.968883
113.069 196.874 137.567 0.181745 -0.241611 -0.953201
112.234 196.149 137.592 0.181745 -0.241611 -0.953201
112.317 197.038 137.382 0.181745 -0.241611 -0.953201
110.899 197.946 137.642 -0.519224 -0.0820136 -0.850694
111.345 197.955 137.369 -0.519224 -0.0820136 -0.850694
111.241 196.988 137.525 -0.519224 -0.0820136 -0.850694
112.317 197.038 137.382 -0.126719 -0.0965936 -0.987224
111.241 196.988 137.525 -0.126719 -0.0965936 -0.987224
112.176 197.906 137.315 -0.126719 -0.0965936 -0.987224
112.176 197.906 137.315 -0.0723914 -0.151631 -0.985783
111.241 196.988 137.525 -0.0723914 -0.151631 -0.985783
111.345 197.955 137.369 -0.0723914 -0.151631 -0.985783
113.069 196.874 137.567 0.202495 -0.160966 -0.965964
112.317 197.038 137.382 0.202495 -0.160966 -0.965964
113.069 197.871 137.401 0.202495 -0.160966 -0.965964
113.069 197.871 137.401 0.0930269 -0.061509 -0.993762
112.317 197.038 137.382 0.0930269 -0.061509 -0.993762
112.176 197.906 137.315 0.0930269 -0.061509 -0.993762
113.416 197.66 137.75 0.725585 -0.165641 -0.667899
113.361 196.741 137.917 0.725585 -0.165641 -0.667899
113.069 196.874 137.567 0.725585 -0.165641 -0.667899
113.069 197.871 137.401 0.665304 -0.123057 -0.736361
113.416 197.66 137.75 0.665304 -0.123057 -0.736361
113.069 196.874 137.567 0.665304 -0.123057 -0.736361
111.345 197.955 137.369 -0.506586 0.269544 -0.818973
110.899 197.946 137.642 -0.506586 0.269544 -0.818973
111.212 198.307 137.567 -0.506586 0.269544 -0.818973
111.212 198.307 137.567 -0.296079 0.380758 -0.875991
111.919 198.728 137.511 -0.296079 0.380758 -0.875991
111.345 197.955 137.369 -0.296079 0.380758 -0.875991
111.345 197.955 137.369 -0.0501162 0.216019 -0.975102
111.919 198.728 137.511 -0.0501162 0.216019 -0.975102
112.176 197.906 137.315 -0.0501162 0.216019 -0.975102
113.069 197.871 137.401 0.0970558 0.0403354 -0.994461
112.176 197.906 137.315 0.0970558 0.0403354 -0.994461
112.939 198.734 137.423 0.0970558 0.0403354 -0.994461
112.939 198.734 137.423 -0.0848025 0.205164 -0.975047
112.176 197.906 137.315 -0.0848025 0.205164 -0.975047
111.919 198.728 137.511 -0.0848025 0.205164 -0.975047
113.397 198.592 137.728 0.708259 -0.00259924 -0.705948
113.416 197.66 137.75 0.708259 -0.00259924 -0.705948
113.069 197.871 137.401 0.708259 -0.00259924 -0.705948
112.939 198.734 137.423 0.572473 0.107638 -0.812828
113.397 198.592 137.728 0.572473 0.107638 -0.812828
113.069 197.871 137.401 0.572473 0.107638 -0.812828
112.939 198.734 137.423 -0.0669827 0.676181 -0.733684
111.919 198.728 137.511 -0.0669827 0.676181 -0.733684
112.396 199.126 137.834 -0.0669827 0.676181 -0.733684
113.174 199.026 137.796 0.0663058 0.764127 -0.641649
112.939 198.734 137.423 0.0663058 0.764127 -0.641649
112.396 199.126 137.834 0.0663058 0.764127 -0.641649
113.397 198.592 137.728 0.588897 0.412008 -0.695305
112.939 198.734 137.423 0.588897 0.412008 -0.695305
113.174 199.026 137.796 0.588897 0.412008 -0.695305
111.229 195.08 138.37 -0.164301 -0.854901 -0.492088
111.914 195.053 138.188 -0.164301 -0.854901 -0.492088
111.887 194.88 138.498 -0.164301 -0.854901 -0.492088
111.111 195.023 138.56 -0.197997 -0.899804 -0.388779
111.229 195.08 138.37 -0.197997 -0.899804 -0.388779
111.887 194.88 138.498 -0.197997 -0.899804 -0.388779
111.887 194.88 138.498 0.460083 -0.791233 -0.402832
111.914 195.053 138.188 0.460083 -0.791233 -0.402832
112.239 195.076 138.513 0.460083 -0.791233 -0.402832
110.393 195.727 138.387 -0.68886 -0.644769 -0.331278
110.303 195.594 138.832 -0.68886 -0.644769 -0.331278
109.946 196.072 138.644 -0.68886 -0.644769 -0.331278
111.111 195.023 138.56 -0.615997 -0.712172 -0.336688
110.303 195.594 138.832 -0.615997 -0.712172 -0.336688
110.393 195.727 138.387 -0.615997 -0.712172 -0.336688
111.111 195.023 138.56 -0.527886 -0.668429 -0.523965
110.393 195.727 138.387 -0.527886 -0.668429 -0.523965
111.229 195.08 138.37 -0.527886 -0.668429 -0.523965
111.229 195.08 138.37 -0.433758 -0.54174 -0.71998
110.393 195.727 138.387 -0.433758 -0.54174 -0.71998
111.175 195.758 137.892 -0.433758 -0.54174 -0.71998
112.114 195.522 137.822 -0.210025 -0.608442 -0.765303
111.175 195.758 137.892 -0.210025 -0.608442 -0.765303
111.627 195.993 137.581 -0.210025 -0.608442 -0.765303
112.114 195.522 137.822 -0.198495 -0.548841 -0.812018
111.914 195.053 138.188 -0.198495 -0.548841 -0.812018
111.175 195.758 137.892 -0.198495 -0.548841 -0.812018
111.914 195.053 138.188 -0.231437 -0.572614 -0.78648
111.229 195.08 138.37 -0.231437 -0.572614 -0.78648
111.175 195.758 137.892 -0.231437 -0.572614 -0.78648
112.114 195.522 137.822 0.630958 -0.370121 -0.681837
112.234 196.149 137.592 0.630958 -0.370121 -0.681837
112.947 195.85 138.414 0.630958 -0.370121 -0.681837
112.114 195.522 137.822 0.603143 -0.616378 -0.506257
112.947 195.85 138.414 0.603143 -0.616378 -0.506257
112.239 195.076 138.513 0.603143 -0.616378 -0.506257
112.114 195.522 137.822 0.563483 -0.644301 -0.517072
112.239 195.076 138.513 0.563483 -0.644301 -0.517072
111.914 195.053 138.188 0.563483 -0.644301 -0.517072
110.307 196.633 138.172 -0.615616 -0.235837 -0.75193
110.393 195.727 138.387 -0.615616 -0.235837 -0.75193
109.946 196.072 138.644 -0.615616 -0.235837 -0.75193
109.69 196.98 138.737 -0.707418 -0.128674 -0.694984
110.307 196.633 138.172 -0.707418 -0.128674 -0.694984
109.946 196.072 138.644 -0.707418 -0.128674 -0.694984
111.067 196.248 137.663 -0.564102 -0.0207964 -0.825443
110.307 196.633 138.172 -0.564102 -0.0207964 -0.825443
111.241 196.988 137.525 -0.564102 -0.0207964 -0.825443
111.067 196.248 137.663 -0.643007 -0.435807 -0.629774
111.175 195.758 137.892 -0.643007 -0.435807 -0.629774
110.307 196.633 138.172 -0.643007 -0.435807 -0.629774
111.175 195.758 137.892 -0.511573 -0.243093 -0.824135
110.393 195.727 138.387 -0.511573 -0.243093 -0.824135
110.307 196.633 138.172 -0.511573 -0.243093 -0.824135
111.627 195.993 137.581 -0.329924 -0.457952 -0.825487
111.175 195.758 137.892 -0.329924 -0.457952 -0.825487
111.067 196.248 137.663 -0.329924 -0.457952 -0.825487
112.234 196.149 137.592 0.492241 -0.588716 -0.64118
113.069 196.874 137.567 0.492241 -0.588716 -0.64118
112.947 195.85 138.414 0.492241 -0.588716 -0.64118
112.947 195.85 138.414 0.498323 -0.586915 -0.638127
113.069 196.874 137.567 0.498323 -0.586915 -0.638127
113.361 196.741 137.917 0.498323 -0.586915 -0.638127
112.947 195.85 138.414 0.69926 -0.567115 -0.435219
113.361 196.741 137.917 0.69926 -0.567115 -0.435219
113.343 196.118 138.702 0.69926 -0.567115 -0.435219
113.343 196.118 138.702 0.979921 -0.165972 -0.110494
113.361 196.741 137.917 0.979921 -0.165972 -0.110494
113.464 196.908 138.586 0.979921 -0.165972 -0.110494
110.234 197.804 138.176 -0.686495 -0.0409249 -0.725982
110.307 196.633 138.172 -0.686495 -0.0409249 -0.725982
109.69 196.98 138.737 -0.686495 -0.0409249 -0.725982
109.62 198.073 138.687 -0.657758 -0.0758385 -0.749401
110.234 197.804 138.176 -0.657758 -0.0758385 -0.749401
109.69 196.98 138.737 -0.657758 -0.0758385 -0.749401
111.241 196.988 137.525 -0.605685 -0.120674 -0.786501
110.234 197.804 138.176 -0.605685 -0.120674 -0.786501
110.899 197.946 137.642 -0.605685 -0.120674 -0.786501
110.307 196.633 138.172 -0.560837 -0.0327196 -0.827279
110.234 197.804 138.176 -0.560837 -0.0327196 -0.827279
111.241 196.988 137.525 -0.560837 -0.0327196 -0.827279
113.361 196.741 137.917 0.987669 -0.0837919 -0.132245
113.416 197.66 137.75 0.987669 -0.0837919 -0.132245
113.464 196.908 138.586 0.987669 -0.0837919 -0.132245
113.464 196.908 138.586 0.995725 -0.0323531 -0.0865178
113.416 197.66 137.75 0.995725 -0.0323531 -0.0865178
113.494 197.874 138.563 0.995725 -0.0323531 -0.0865178
110.066 198.695 138.387 -0.621105 0.0673032 -0.780832
110.234 197.804 138.176 -0.621105 0.0673032 -0.780832
109.62 198.073 138.687 -0.621105 0.0673032 -0.780832
109.626 198.821 138.769 -0.638968 0.0881345 -0.764168
110.066 198.695 138.387 -0.638968 0.0881345 -0.764168
109.62 198.073 138.687 -0.638968 0.0881345 -0.764168
110.899 197.946 137.642 -0.626734 0.405591 -0.665357
110.916 198.716 138.096 -0.626734 0.405591 -0.665357
111.212 198.307 137.567 -0.626734 0.405591 -0.665357
110.899 197.946 137.642 -0.623372 0.406906 -0.667709
110.234 197.804 138.176 -0.623372 0.406906 -0.667709
110.916 198.716 138.096 -0.623372 0.406906 -0.667709
110.234 197.804 138.176 -0.323301 0.159418 -0.932771
110.066 198.695 138.387 -0.323301 0.159418 -0.932771
110.916 198.716 138.096 -0.323301 0.159418 -0.932771
111.212 198.307 137.567 -0.409438 0.595888 -0.690853
110.916 198.716 138.096 -0.409438 0.595888 -0.690853
111.919 198.728 137.511 -0.409438 0.595888 -0.690853
113.416 197.66 137.75 0.994868 0.017618 -0.0996353
113.397 198.592 137.728 0.994868 0.017618 -0.0996353
113.494 197.874 138.563 0.994868 0.017618 -0.0996353
113.494 197.874 138.563 0.995915 0.0746618 -0.0507773
113.397 198.592 137.728 0.995915 0.0746618 -0.0507773
113.43 198.731 138.575 0.995915 0.0746618 -0.0507773
110.066 198.695 138.387 -0.332895 0.712551 -0.617617
109.626 198.821 138.769 -0.332895 0.712551 -0.617617
110.199 199.087 138.767 -0.332895 0.712551 -0.617617
110.916 198.716 138.096 -0.241671 0.716811 -0.654047
110.066 198.695 138.387 -0.241671 0.716811 -0.654047
110.199 199.087 138.767 -0.241671 0.716811 -0.654047
111.394 199.163 138.526 -0.172631 0.772517 -0.611078
110.916 198.716 138.096 -0.172631 0.772517 -0.611078
110.199 199.087 138.767 -0.172631 0.772517 -0.611078
111.919 198.728 137.511 -0.302997 0.808868 -0.503911
110.916 198.716 138.096 -0.302997 0.808868 -0.503911
111.394 199.163 138.526 -0.302997 0.808868 -0.503911
111.919 198.728 137.511 -0.32176 0.798304 -0.509099
111.394 199.163 138.526 -0.32176 0.798304 -0.509099
112.396 199.126 137.834 -0.32176 0.798304 -0.509099
112.396 199.126 137.834 -0.0232781 0.995951 -0.086837
111.394 199.163 138.526 -0.0232781 0.995951 -0.086837
112.325 199.2 138.694 -0.0232781 0.995951 -0.086837
113.174 199.026 137.796 0.124235 0.990178 -0.0641296
112.396 199.126 137.834 0.124235 0.990178 -0.0641296
113.089 199.089 138.596 0.124235 0.990178 -0.0641296
112.396 199.126 137.834 0.134193 0.988242 -0.0732837
112.325 199.2 138.694 0.134193 0.988242 -0.0732837
113.089 199.089 138.596 0.134193 0.988242 -0.0732837
113.43 198.731 138.575 0.876459 0.46856 -0.110773
113.397 198.592 137.728 0.876459 0.46856 -0.110773
113.174 199.026 137.796 0.876459 0.46856 -0.110773
113.089 199.089 138.596 0.724497 0.688901 0.0228145
113.43 198.731 138.575 0.724497 0.688901 0.0228145
113.174 199.026 137.796 0.724497 0.688901 0.0228145
111.111 195.023 138.56 -0.139348 -0.916438 0.375131
111.887 194.88 138.498 -0.139348 -0.916438 0.375131
111.849 194.994 138.762 -0.139348 -0.916438 0.375131
111.107 195.072 138.765 -0.100841 -0.968772 0.226523
111.111 195.023 138.56 -0.100841 -0.968772 0.226523
111.849 194.994 138.762 -0.100841 -0.968772 0.226523
111.887 194.88 138.498 0.431959 -0.804024 0.408604
112.239 195.076 138.513 0.431959 -0.804024 0.408604
111.849 194.994 138.762 0.431959 -0.804024 0.408604
110.303 195.594 138.832 -0.668106 -0.744053 0.00441002
110.194 195.697 139.771 -0.668106 -0.744053 0.00441002
109.702 196.138 139.509 -0.668106 -0.744053 0.00441002
109.946 196.072 138.644 -0.757636 -0.631274 -0.165772
110.303 195.594 138.832 -0.757636 -0.631274 -0.165772
109.702 196.138 139.509 -0.757636 -0.631274 -0.165772
111.107 195.072 138.765 -0.524921 -0.831054 0.183866
110.303 195.594 138.832 -0.524921 -0.831054 0.183866
111.111 195.023 138.56 -0.524921 -0.831054 0.183866
111.107 195.072 138.765 -0.452952 -0.757137 0.47072
111.207 195.468 139.499 -0.452952 -0.757137 0.47072
110.303 195.594 138.832 -0.452952 -0.757137 0.47072
111.207 195.468 139.499 -0.198549 -0.976434 0.084584
110.194 195.697 139.771 -0.198549 -0.976434 0.084584
110.303 195.594 138.832 -0.198549 -0.976434 0.084584
111.849 194.994 138.762 -0.0895255 -0.871184 0.482725
111.207 195.468 139.499 -0.0895255 -0.871184 0.482725
111.107 195.072 138.765 -0.0895255 -0.871184 0.482725
112.255 195.479 139.342 0.0977536 -0.795833 0.597573
111.207 195.468 139.499 0.0977536 -0.795833 0.597573
111.849 194.994 138.762 0.0977536 -0.795833 0.597573
112.239 195.076 138.513 0.422704 -0.818375 0.389337
112.255 195.479 139.342 0.422704 -0.818375 0.389337
111.849 194.994 138.762 0.422704 -0.818375 0.389337
112.239 195.076 138.513 0.724301 -0.625439 0.290198
112.947 195.85 138.414 0.724301 -0.625439 0.290198
112.255 195.479 139.342 0.724301 -0.625439 0.290198
112.947 195.85 138.414 0.467728 -0.88386 -0.00471956
113.004 195.874 139.624 0.467728 -0.88386 -0.00471956
112.255 195.479 139.342 0.467728 -0.88386 -0.00471956
113.004 195.874 139.624 0.56511 -0.824949 -0.0104991
112.947 195.85 138.414 0.56511 -0.824949 -0.0104991
113.343 196.118 138.702 0.56511 -0.824949 -0.0104991
113.356 196.303 139.556 0.776874 -0.617664 0.1223
113.004 195.874 139.624 0.776874 -0.617664 0.1223
113.343 196.118 138.702 0.776874 -0.617664 0.1223
109.152 196.903 139.416 -0.975065 -0.219089 0.0353298
109.202 196.723 139.705 -0.975065 -0.219089 0.0353298
109.09 197.228 139.742 -0.975065 -0.219089 0.0353298
109.152 196.903 139.416 -0.777141 -0.586711 -0.227646
109.702 196.138 139.509 -0.777141 -0.586711 -0.227646
109.202 196.723 139.705 -0.777141 -0.586711 -0.227646
109.152 196.903 139.416 -0.636363 -0.526183 -0.564069
109.69 196.98 138.737 -0.636363 -0.526183 -0.564069
109.702 196.138 139.509 -0.636363 -0.526183 -0.564069
109.69 196.98 138.737 -0.939046 -0.239554 -0.246591
109.946 196.072 138.644 -0.939046 -0.239554 -0.246591
109.702 196.138 139.509 -0.939046 -0.239554 -0.246591
113.343 196.118 138.702 0.988744 -0.148617 0.0172437
113.464 196.908 138.586 0.988744 -0.148617 0.0172437
113.356 196.303 139.556 0.988744 -0.148617 0.0172437
113.356 196.303 139.556 0.991989 -0.121515 0.0345135
113.464 196.908 138.586 0.991989 -0.121515 0.0345135
113.454 197.066 139.421 0.991989 -0.121515 0.0345135
109.091 197.726 139.31 -0.991231 -0.0862299 -0.100129
109.152 196.903 139.416 -0.991231 -0.0862299 -0.100129
109.09 197.228 139.742 -0.991231 -0.0862299 -0.100129
108.91 198.027 139.571 -0.908712 -0.272918 -0.315845
109.091 197.726 139.31 -0.908712 -0.272918 -0.315845
109.09 197.228 139.742 -0.908712 -0.272918 -0.315845
109.69 196.98 138.737 -0.737842 -0.0773513 -0.670526
109.091 197.726 139.31 -0.737842 -0.0773513 -0.670526
109.62 198.073 138.687 -0.737842 -0.0773513 -0.670526
109.152 196.903 139.416 -0.768606 -0.137112 -0.624856
109.091 197.726 139.31 -0.768606 -0.137112 -0.624856
109.69 196.98 138.737 -0.768606 -0.137112 -0.624856
113.464 196.908 138.586 0.999399 -0.0299918 0.0173725
113.494 197.874 138.563 0.999399 -0.0299918 0.0173725
113.454 197.066 139.421 0.999399 -0.0299918 0.0173725
113.454 197.066 139.421 0.998917 0.000942405 0.0465168
113.494 197.874 138.563 0.998917 0.000942405 0.0465168
113.449 197.926 139.53 0.998917 0.000942405 0.0465168
109.084 198.611 139.325 -0.819542 0.00339838 -0.573009
109.091 197.726 139.31 -0.819542 0.00339838 -0.573009
108.91 198.027 139.571 -0.819542 0.00339838 -0.573009
108.961 198.686 139.577 -0.88819 0.0743829 -0.453416
109.084 198.611 139.325 -0.88819 0.0743829 -0.453416
108.91 198.027 139.571 -0.88819 0.0743829 -0.453416
109.62 198.073 138.687 -0.728606 0.0797093 -0.680279
109.084 198.611 139.325 -0.728606 0.0797093 -0.680279
109.626 198.821 138.769 -0.728606 0.0797093 -0.680279
109.091 197.726 139.31 -0.763137 0.00499772 -0.646217
109.084 198.611 139.325 -0.763137 0.00499772 -0.646217
109.62 198.073 138.687 -0.763137 0.00499772 -0.646217
113.494 197.874 138.563 0.99639 0.0734616 0.0425563
113.43 198.731 138.575 0.99639 0.0734616 0.0425563
113.449 197.926 139.53 0.99639 0.0734616 0.0425563
113.449 197.926 139.53 0.99066 0.113131 0.0761138
113.43 198.731 138.575 0.99066 0.113131 0.0761138
113.353 198.753 139.54 0.99066 0.113131 0.0761138
109.084 198.611 139.325 -0.73777 0.459974 -0.494085
108.961 198.686 139.577 -0.73777 0.459974 -0.494085
109.26 198.956 139.383 -0.73777 0.459974 -0.494085
109.626 198.821 138.769 -0.717214 0.455147 -0.52768
109.084 198.611 139.325 -0.717214 0.455147 -0.52768
109.26 198.956 139.383 -0.717214 0.455147 -0.52768
109.626 198.821 138.769 -0.384983 0.826305 -0.411106
109.26 198.956 139.383 -0.384983 0.826305 -0.411106
110.199 199.087 138.767 -0.384983 0.826305 -0.411106
110.199 199.087 138.767 -0.119595 0.992408 0.0287001
109.26 198.956 139.383 -0.119595 0.992408 0.0287001
110.051 199.045 139.595 -0.119595 0.992408 0.0287001
111.394 199.163 138.526 -0.0674872 0.99755 -0.018449
110.199 199.087 138.767 -0.0674872 0.99755 -0.018449
111.106 199.163 139.541 -0.0674872 0.99755 -0.018449
110.199 199.087 138.767 -0.109095 0.993559 0.0306283
110.051 199.045 139.595 -0.109095 0.993559 0.0306283
111.106 199.163 139.541 -0.109095 0.993559 0.0306283
112.325 199.2 138.694 -0.0411502 0.999088 0.0114001
111.394 199.163 138.526 -0.0411502 0.999088 0.0114001
112.056 199.18 139.438 -0.0411502 0.999088 0.0114001
111.394 199.163 138.526 -0.0190034 0.999808 -0.00468732
111.106 199.163 139.541 -0.0190034 0.999808 -0.00468732
112.056 199.18 139.438 -0.0190034 0.999808 -0.00468732
113.089 199.089 138.596 0.150341 0.987129 0.0545272
112.325 199.2 138.694 0.150341 0.987129 0.0545272
112.951 199.053 139.624 0.150341 0.987129 0.0545272
112.325 199.2 138.694 0.125558 0.989502 0.0715666
112.056 199.18 139.438 0.125558 0.989502 0.0715666
112.951 199.053 139.624 0.125558 0.989502 0.0715666
113.353 198.753 139.54 0.724629 0.687858 0.0419953
113.43 198.731 138.575 0.724629 0.687858 0.0419953
113.089 199.089 138.596 0.724629 0.687858 0.0419953
112.951 199.053 139.624 0.609146 0.785511 0.109151
113.353 198.753 139.54 0.609146 0.785511 0.109151
113.089 199.089 138.596 0.609146 0.785511 0.109151
110.194 195.697 139.771 -0.331204 -0.931611 0.149684
110.248 195.795 140.496 -0.331204 -0.931611 0.149684
109.682 195.972 140.351 -0.331204 -0.931611 0.149684
109.702 196.138 139.509 -0.606634 -0.777314 -0.166666
110.194 195.697 139.771 -0.606634 -0.777314 -0.166666
109.682 195.972 140.351 -0.606634 -0.777314 -0.166666
111.207 195.468 139.499 -0.146377 -0.954405 0.260164
111.123 195.727 140.401 -0.146377 -0.954405 0.260164
110.194 195.697 139.771 -0.146377 -0.954405 0.260164
110.194 195.697 139.771 -0.0619116 -0.988584 0.137363
111.123 195.727 140.401 -0.0619116 -0.988584 0.137363
110.248 195.795 140.496 -0.0619116 -0.988584 0.137363
112.255 195.479 139.342 0.0473573 -0.967076 0.250044
112.101 195.708 140.258 0.0473573 -0.967076 0.250044
111.207 195.468 139.499 0.0473573 -0.967076 0.250044
111.207 195.468 139.499 0.0221588 -0.960438 0.277611
112.101 195.708 140.258 0.0221588 -0.960438 0.277611
111.123 195.727 140.401 0.0221588 -0.960438 0.277611
113.004 195.874 139.624 0.388996 -0.860358 0.329342
112.529 195.967 140.429 0.388996 -0.860358 0.329342
112.101 195.708 140.258 0.388996 -0.860358 0.329342
113.004 195.874 139.624 0.361613 -0.888331 0.283027
112.101 195.708 140.258 0.361613 -0.888331 0.283027
112.255 195.479 139.342 0.361613 -0.888331 0.283027
109.202 196.723 139.705 -0.749577 -0.211798 0.627117
109.736 196.738 140.348 -0.749577 -0.211798 0.627117
109.09 197.228 139.742 -0.749577 -0.211798 0.627117
109.202 196.723 139.705 -0.573937 -0.65493 0.491593
109.702 196.138 139.509 -0.573937 -0.65493 0.491593
109.736 196.738 140.348 -0.573937 -0.65493 0.491593
109.702 196.138 139.509 -0.997485 0.0702313 -0.00954119
109.682 195.972 140.351 -0.997485 0.0702313 -0.00954119
109.736 196.738 140.348 -0.997485 0.0702313 -0.00954119
113.004 195.874 139.624 0.714 -0.509002 0.48075
112.995 196.642 140.451 0.714 -0.509002 0.48075
112.529 195.967 140.429 0.714 -0.509002 0.48075
112.995 196.642 140.451 0.713794 -0.509157 0.480892
113.004 195.874 139.624 0.713794 -0.509157 0.480892
113.356 196.303 139.556 0.713794 -0.509157 0.480892
112.995 196.642 140.451 0.805133 -0.368692 0.464572
113.356 196.303 139.556 0.805133 -0.368692 0.464572
113.329 197.123 140.255 0.805133 -0.368692 0.464572
113.329 197.123 140.255 0.9829 -0.0989516 0.155297
113.356 196.303 139.556 0.9829 -0.0989516 0.155297
113.454 197.066 139.421 0.9829 -0.0989516 0.155297
109.09 197.228 139.742 -0.660704 0.0109116 0.750567
109.221 198.111 139.844 -0.660704 0.0109116 0.750567
108.91 198.027 139.571 -0.660704 0.0109116 0.750567
110.015 197.762 140.473 -0.647716 0.0838873 0.757249
109.09 197.228 139.742 -0.647716 0.0838873 0.757249
109.736 196.738 140.348 -0.647716 0.0838873 0.757249
109.221 198.111 139.844 -0.620965 0.00116494 0.783838
109.09 197.228 139.742 -0.620965 0.00116494 0.783838
110.015 197.762 140.473 -0.620965 0.00116494 0.783838
113.454 197.066 139.421 0.98858 -0.0122165 0.150199
113.449 197.926 139.53 0.98858 -0.0122165 0.150199
113.329 197.123 140.255 0.98858 -0.0122165 0.150199
113.329 197.123 140.255 0.985486 0.00582482 0.169659
113.449 197.926 139.53 0.985486 0.00582482 0.169659
113.308 198.066 140.343 0.985486 0.00582482 0.169659
109.221 198.111 139.844 -0.380277 0.241855 0.89269
109.238 198.824 139.658 -0.380277 0.241855 0.89269
108.961 198.686 139.577 -0.380277 0.241855 0.89269
108.91 198.027 139.571 -0.665177 0.0449227 0.745333
109.221 198.111 139.844 -0.665177 0.0449227 0.745333
108.961 198.686 139.577 -0.665177 0.0449227 0.745333
110.024 198.223 140.366 -0.553455 0.19952 0.808628
109.221 198.111 139.844 -0.553455 0.19952 0.808628
110.015 197.762 140.473 -0.553455 0.19952 0.808628
110.024 198.223 140.366 -0.515133 0.521397 0.680282
110.03 198.768 139.952 -0.515133 0.521397 0.680282
109.221 198.111 139.844 -0.515133 0.521397 0.680282
110.03 198.768 139.952 -0.322375 0.246058 0.914073
109.238 198.824 139.658 -0.322375 0.246058 0.914073
109.221 198.111 139.844 -0.322375 0.246058 0.914073
110.024 198.223 140.366 -0.394634 0.557845 0.730119
110.986 198.666 140.547 -0.394634 0.557845 0.730119
110.03 198.768 139.952 -0.394634 0.557845 0.730119
113.224 198.772 140.262 0.492124 0.490466 0.719206
112.86 198.878 140.439 0.492124 0.490466 0.719206
113.089 198.469 140.561 0.492124 0.490466 0.719206
113.224 198.772 140.262 0.828295 0.1599 0.536991
113.089 198.469 140.561 0.828295 0.1599 0.536991
113.308 198.066 140.343 0.828295 0.1599 0.536991
113.224 198.772 140.262 0.976016 0.134994 0.170788
113.308 198.066 140.343 0.976016 0.134994 0.170788
113.353 198.753 139.54 0.976016 0.134994 0.170788
113.353 198.753 139.54 0.982276 0.111247 0.15086
113.308 198.066 140.343 0.982276 0.111247 0.15086
113.449 197.926 139.53 0.982276 0.111247 0.15086
108.961 198.686 139.577 -0.496085 0.79729 0.343843
109.238 198.824 139.658 -0.496085 0.79729 0.343843
109.26 198.956 139.383 -0.496085 0.79729 0.343843
110.051 199.045 139.595 -0.21028 0.887551 0.409922
109.26 198.956 139.383 -0.21028 0.887551 0.409922
109.238 198.824 139.658 -0.21028 0.887551 0.409922
110.03 198.768 139.952 -0.167471 0.783698 0.598139
110.051 199.045 139.595 -0.167471 0.783698 0.598139
109.238 198.824 139.658 -0.167471 0.783698 0.598139
110.03 198.768 139.952 -0.380588 0.589011 0.712895
110.986 198.666 140.547 -0.380588 0.589011 0.712895
110.944 199.01 140.24 -0.380588 0.589011 0.712895
110.03 198.768 139.952 -0.371938 0.74412 0.55493
110.944 199.01 140.24 -0.371938 0.74412 0.55493
110.051 199.045 139.595 -0.371938 0.74412 0.55493
110.051 199.045 139.595 -0.0990464 0.976827 0.189733
110.944 199.01 140.24 -0.0990464 0.976827 0.189733
111.106 199.163 139.541 -0.0990464 0.976827 0.189733
112.056 199.18 139.438 0.00283683 0.981227 0.192838
111.106 199.163 139.541 0.00283683 0.981227 0.192838
112.024 199.01 140.306 0.00283683 0.981227 0.192838
111.106 199.163 139.541 -0.0120968 0.977615 0.210054
110.944 199.01 140.24 -0.0120968 0.977615 0.210054
112.024 199.01 140.306 -0.0120968 0.977615 0.210054
112.86 198.878 140.439 0.37527 0.896742 0.234575
113.224 198.772 140.262 0.37527 0.896742 0.234575
112.951 199.053 139.624 0.37527 0.896742 0.234575
112.86 198.878 140.439 0.117334 0.968156 0.221148
112.951 199.053 139.624 0.117334 0.968156 0.221148
112.024 199.01 140.306 0.117334 0.968156 0.221148
112.024 199.01 140.306 0.0978916 0.97586 0.19523
112.951 199.053 139.624 0.0978916 0.97586 0.19523
112.056 199.18 139.438 0.0978916 0.97586 0.19523
113.353 198.753 139.54 0.607566 0.78942 0.0876321
112.951 199.053 139.624 0.607566 0.78942 0.0876321
113.224 198.772 140.262 0.607566 0.78942 0.0876321
110.248 195.795 140.496 -0.349563 -0.430244 0.832284
110.192 196.178 140.671 -0.349563 -0.430244 0.832284
109.682 195.972 140.351 -0.349563 -0.430244 0.832284
110.248 195.795 140.496 0.0294571 -0.664054 0.747104
111.123 195.727 140.401 0.0294571 -0.664054 0.747104
111.12 196.068 140.705 0.0294571 -0.664054 0.747104
110.192 196.178 140.671 -0.0830686 -0.423547 0.902057
110.248 195.795 140.496 -0.0830686 -0.423547 0.902057
111.12 196.068 140.705 -0.0830686 -0.423547 0.902057
111.123 195.727 140.401 0.078444 -0.766696 0.637199
112.101 195.708 140.258 0.078444 -0.766696 0.637199
112.087 196.032 140.649 0.078444 -0.766696 0.637199
111.12 196.068 140.705 0.0177973 -0.664279 0.747272
111.123 195.727 140.401 0.0177973 -0.664279 0.747272
112.087 196.032 140.649 0.0177973 -0.664279 0.747272
112.101 195.708 140.258 0.203279 -0.750797 0.628475
112.529 195.967 140.429 0.203279 -0.750797 0.628475
112.087 196.032 140.649 0.203279 -0.750797 0.628475
110.192 196.178 140.671 -0.542526 0.0414747 0.839015
110.266 197.008 140.678 -0.542526 0.0414747 0.839015
109.736 196.738 140.348 -0.542526 0.0414747 0.839015
109.682 195.972 140.351 -0.543292 0.0405898 0.838562
110.192 196.178 140.671 -0.543292 0.0405898 0.838562
109.736 196.738 140.348 -0.543292 0.0405898 0.838562
111.12 196.068 140.705 -0.0423131 -0.0486888 0.997917
111.119 196.909 140.746 -0.0423131 -0.0486888 0.997917
110.192 196.178 140.671 -0.0423131 -0.0486888 0.997917
111.119 196.909 140.746 -0.0799078 -0.000926407 0.996802
110.266 197.008 140.678 -0.0799078 -0.000926407 0.996802
110.192 196.178 140.671 -0.0799078 -0.000926407 0.996802
112.087 196.032 140.649 0.0533663 -0.104881 0.993052
112.142 196.867 140.734 0.0533663 -0.104881 0.993052
111.12 196.068 140.705 0.0533663 -0.104881 0.993052
112.142 196.867 140.734 0.00924153 -0.048635 0.998774
111.119 196.909 140.746 0.00924153 -0.048635 0.998774
111.12 196.068 140.705 0.00924153 -0.048635 0.998774
112.529 195.967 140.429 0.390545 -0.297913 0.871047
112.995 196.642 140.451 0.390545 -0.297913 0.871047
112.087 196.032 140.649 0.390545 -0.297913 0.871047
112.087 196.032 140.649 0.285693 -0.115825 0.951296
112.995 196.642 140.451 0.285693 -0.115825 0.951296
112.142 196.867 140.734 0.285693 -0.115825 0.951296
109.736 196.738 140.348 -0.544002 0.0458217 0.837832
110.266 197.008 140.678 -0.544002 0.0458217 0.837832
110.015 197.762 140.473 -0.544002 0.0458217 0.837832
111.119 196.909 140.746 -0.0754262 0.0375403 0.996444
111.104 197.861 140.709 -0.0754262 0.0375403 0.996444
110.266 197.008 140.678 -0.0754262 0.0375403 0.996444
111.104 197.861 140.709 -0.223968 0.184719 0.956931
110.015 197.762 140.473 -0.223968 0.184719 0.956931
110.266 197.008 140.678 -0.223968 0.184719 0.956931
112.142 196.867 140.734 0.011065 -0.00477395 0.999927
112.035 197.741 140.74 0.011065 -0.00477395 0.999927
111.119 196.909 140.746 0.011065 -0.00477395 0.999927
112.035 197.741 140.74 -0.0281412 0.0383815 0.998867
111.104 197.861 140.709 -0.0281412 0.0383815 0.998867
111.119 196.909 140.746 -0.0281412 0.0383815 0.998867
112.995 196.642 140.451 0.279724 -0.137168 0.950231
112.969 197.757 140.619 0.279724 -0.137168 0.950231
112.142 196.867 140.734 0.279724 -0.137168 0.950231
112.969 197.757 140.619 0.127642 0.00951246 0.991775
112.035 197.741 140.74 0.127642 0.00951246 0.991775
112.142 196.867 140.734 0.127642 0.00951246 0.991775
113.329 197.123 140.255 0.66078 -0.0555998 0.748517
113.308 198.066 140.343 0.66078 -0.0555998 0.748517
112.969 197.757 140.619 0.66078 -0.0555998 0.748517
112.995 196.642 140.451 0.611475 -0.104184 0.784375
113.329 197.123 140.255 0.611475 -0.104184 0.784375
112.969 197.757 140.619 0.611475 -0.104184 0.784375
110.986 198.666 140.547 -0.279306 0.22363 0.933798
110.024 198.223 140.366 -0.279306 0.22363 0.933798
110.015 197.762 140.473 -0.279306 0.22363 0.933798
110.986 198.666 140.547 -0.222765 0.160614 0.96155
110.015 197.762 140.473 -0.222765 0.160614 0.96155
111.104 197.861 140.709 -0.222765 0.160614 0.96155
112.035 197.741 140.74 -0.0186934 0.110228 0.993731
112.21 198.596 140.648 -0.0186934 0.110228 0.993731
111.104 197.861 140.709 -0.0186934 0.110228 0.993731
112.21 198.596 140.648 -0.0701745 0.186545 0.979937
110.986 198.666 140.547 -0.0701745 0.186545 0.979937
111.104 197.861 140.709 -0.0701745 0.186545 0.979937
113.089 198.469 140.561 0.143112 0.356549 0.923251
112.86 198.878 140.439 0.143112 0.356549 0.923251
112.21 198.596 140.648 0.143112 0.356549 0.923251
113.089 198.469 140.561 0.107383 0.0631143 0.992212
112.21 198.596 140.648 0.107383 0.0631143 0.992212
112.969 197.757 140.619 0.107383 0.0631143 0.992212
112.969 197.757 140.619 0.126051 0.0801188 0.988783
112.21 198.596 140.648 0.126051 0.0801188 0.988783
112.035 197.741 140.74 0.126051 0.0801188 0.988783
113.308 198.066 140.343 0.657618 -0.049261 0.75174
113.089 198.469 140.561 0.657618 -0.049261 0.75174
112.969 197.757 140.619 0.657618 -0.049261 0.75174
112.024 199.01 140.306 -0.0452699 0.662075 0.748069
110.944 199.01 140.24 -0.0452699 0.662075 0.748069
110.986 198.666 140.547 -0.0452699 0.662075 0.748069
112.21 198.596 140.648 -0.028109 0.62994 0.776135
112.024 199.01 140.306 -0.028109 0.62994 0.776135
110.986 198.666 140.547 -0.028109 0.62994 0.776135
112.86 198.878 140.439 -0.0235593 0.631234 0.775235
112.024 199.01 140.306 -0.0235593 0.631234 0.775235
112.21 198.596 140.648 -0.0235593 0.631234 0.775235
3 0 1 2
3 3 4 5
3 6 7 8
3 9 10 11
3 12 13 14
3 15 16 17
3 18 19 20
3 21 22 23
3 24 25 26
3 27 28 29
3 30 31 32
3 33 34 35
3 36 37 38
3 39 40 41
3 42 43 44
3 45 46 47
3 48 49 50
3 51 52 53
3 54 55 56
3 57 58 59
3 60 61 62
3 63 64 65
3 66 67 68
3 69 70 71
3 72 73 74
3 75 76 77
3 78 79 80
3 81 82 83
3 84 85 86
3 87 88 89
3 90 91 92
3 93 94 95
3 96 97 98
3 99 100 101
3 102 103 104
3 105 106 107
3 108 109 110
3 111 112 113
3 114 115 116
3 117 118 119
3 120 121 122
3 123 124 125
3 126 127 128
3 129 130 131
3 132 133 134
3 135 136 137
3 138 139 140
3 141 142 143
3 144 145 146
3 147 148 149
3 150 151 152
3 153 154 155
3 156 157 158
3 159 160 161
3 162 163 164
3 165 166 167
3 168 169 170
3 171 172 173
3 174 175 176
3 177 178 179
3 180 181 182
3 183 184 185
3 186 187 188
3 189 190 191
3 192 193 194
3 195 196 197
3 198 199 200
3 201 202 203
3 204 205 206
3 207 208 209
3 210 211 212
3 213 214 215
3 216 217 218
3 219 220 221
3 222 223 224
3 225 226 227
3 228 229 230
3 231 232 233
3 234 235 236
3 237 238 239
3 240 241 242
3 243 244 245
3 246 247 248
3 249 250 251
3 252 253 254
3 255 256 257
3 258 259 260
3 261 262 263
3 264 265 266
3 267 268 269
3 270 271 272
3 273 274 275
3 276 277 278
3 279 280 281
3 282 283 284
3 285 286 287
3 288 289 290
3 291 292 293
3 294 295 296
3 297 298 299
3 300 301 302
3 303 304 305
3 306 307 308
3 309 310 311
3 312 313 314
3 315 316 317
3 318 319 320
3 321 322 323
3 324 325 326
3 327 328 329
3 330 331 332
3 333 334 335
3 336 337 338
3 339 340 341
3 342 343 344
3 345 346 347
3 348 349 350
3 351 352 353
3 354 355 356
3 357 358 359
3 360 361 362
3 363 364 365
3 366 367 368
3 369 370 371
3 372 373 374
3 375 376 377
3 378 379 380
3 381 382 383
3 384 385 386
3 387 388 389
3 390 391 392
3 393 394 395
3 396 397 398
3 399 400 401
3 402 403 404
3 405 406 407
3 408 409 410
3 411 412 413
3 414 415 416
3 417 418 419
3 420 421 422
3 423 424 425
3 426 427 428
3 429 430 431
3 432 433 434
3 435 436 437
3 438 439 440
3 441 442 443
3 444 445 446
3 447 448 449
3 450 451 452
3 453 454 455
3 456 457 458
3 459 460 461
3 462 463 464
3 465 466 467
3 468 469 470
3 471 472 473
3 474 475 476
3 477 478 479
3 480 481 482
3 483 484 485
3 486 487 488
3 489 490 491
3 492 493 494
3 495 496 497
3 498 499 500
3 501 502 503
3 504 505 506
3 507 508 509
3 510 511 512
3 513 514 515
3 516 517 518
3 519 520 521
3 522 523 524
3 525 526 527
3 528 529 530
3 531 532 533
3 534 535 536
3 537 538 539
3 540 541 542
3 543 544 545
3 546 547 548
3 549 550 551
3 552 553 554
3 555 556 557
3 558 559 560
3 561 562 563
3 564 565 566
3 567 568 569
