ply
format ascii 1.0
element vertex 726
property float x
property float y
property float z
property float nx
property float ny
property float nz
element face 242
property list uint uint vertex_indices
end_header
110.123 177.588 163.448 0.103021 -0.561546 -0.821007
110.215 177.439 163.561 0.103021 -0.561546 -0.821007
109.774 177.471 163.484 0.103021 -0.561546 -0.821007
109.774 177.471 163.484 -0.744181 -0.532223 -0.403651
109.118 178.295 163.607 -0.744181 -0.532223 -0.403651
109.397 178.205 163.21 -0.744181 -0.532223 -0.403651
109.774 177.471 163.484 0.0166922 -0.342151 -0.939497
109.397 178.205 163.21 0.0166922 -0.342151 -0.939497
110.123 177.588 163.448 0.0166922 -0.342151 -0.939497
110.123 177.588 163.448 0.26172 -0.0631272 -0.963077
109.397 178.205 163.21 0.26172 -0.0631272 -0.963077
110.152 178.316 163.408 0.26172 -0.0631272 -0.963077
110.847 178.067 163.57 0.396825 -0.387757 -0.83197
110.215 177.439 163.561 0.396825 -0.387757 -0.83197
110.123 177.588 163.448 0.396825 -0.387757 -0.83197
110.847 178.067 163.57 0.312251 -0.23765 -0.919795
110.123 177.588 163.448 0.312251 -0.23765 -0.919795
110.832 178.29 163.507 0.312251 -0.23765 -0.919795
110.832 178.29 163.507 0.141717 -0.0596476 -0.988108
110.123 177.588 163.448 0.141717 -0.0596476 -0.988108
110.152 178.316 163.408 0.141717 -0.0596476 -0.988108
109.187 179.17 163.47 -0.820141 -0.0250839 -0.571611
109.397 178.205 163.21 -0.820141 -0.0250839 -0.571611
109.118 178.295 163.607 -0.820141 -0.0250839 -0.571611
108.924 179.287 163.68 -0.641942 -0.0693077 -0.763614
109.187 179.17 163.47 -0.641942 -0.0693077 -0.763614
109.118 178.295 163.607 -0.641942 -0.0693077 -0.763614
110.152 178.316 163.408 0.250987 0.0189705 -0.967805
109.397 178.205 163.21 0.250987 0.0189705 -0.967805
110.013 179.172 163.389 0.250987 0.0189705 -0.967805
110.013 179.172 163.389 -0.0957467 0.239525 -0.966157
109.397 178.205 163.21 -0.0957467 0.239525 -0.966157
109.187 179.17 163.47 -0.0957467 0.239525 -0.966157
110.832 178.29 163.507 0.142732 -0.0361975 -0.989099
110.152 178.316 163.408 0.142732 -0.0361975 -0.989099
110.884 179.168 163.482 0.142732 -0.0361975 -0.989099
110.884 179.168 163.482 0.106994 -0.00507764 -0.994247
110.152 178.316 163.408 0.106994 -0.00507764 -0.994247
110.013 179.172 163.389 0.106994 -0.00507764 -0.994247
111.286 178.991 163.759 0.659341 -0.16279 -0.734008
110.847 178.067 163.57 0.659341 -0.16279 -0.734008
110.832 178.29 163.507 0.659341 -0.16279 -0.734008
110.884 179.168 163.482 0.549337 -0.0557491 -0.833739
111.286 178.991 163.759 0.549337 -0.0557491 -0.833739
110.832 178.29 163.507 0.549337 -0.0557491 -0.833739
109.121 180.072 163.559 -0.615176 0.0334127 -0.787682
109.187 179.17 163.47 -0.615176 0.0334127 -0.787682
108.924 179.287 163.68 -0.615176 0.0334127 -0.787682
108.801 179.979 163.816 -0.632231 0.039852 -0.773755
109.121 180.072 163.559 -0.632231 0.039852 -0.773755
108.924 179.287 163.68 -0.632231 0.039852 -0.773755
110.013 179.172 163.389 -0.0979897 0.0434061 -0.99424
109.187 179.17 163.47 -0.0979897 0.0434061 -0.99424
109.855 180.037 163.442 -0.0979897 0.0434061 -0.99424
109.855 180.037 163.442 -0.153184 0.0862204 -0.984429
109.187 179.17 163.47 -0.153184 0.0862204 -0.984429
109.121 180.072 163.559 -0.153184 0.0862204 -0.984429
110.884 179.168 163.482 0.107105 0.0255231 -0.99392
110.013 179.172 163.389 0.107105 0.0255231 -0.99392
110.711 180.201 163.49 0.107105 0.0255231 -0.99392
110.711 180.201 163.49 0.0429789 0.0692792 -0.996671
110.013 179.172 163.389 0.0429789 0.0692792 -0.996671
109.855 180.037 163.442 0.0429789 0.0692792 -0.996671
111.403 180.068 163.878 0.574937 0.0277355 -0.817727
111.286 178.991 163.759 0.574937 0.0277355 -0.817727
110.884 179.168 163.482 0.574937 0.0277355 -0.817727
110.711 180.201 163.49 0.500064 0.0901006 -0.861288
111.403 180.068 163.878 0.500064 0.0901006 -0.861288
110.884 179.168 163.482 0.500064 0.0901006 -0.861288
109.121 180.072 163.559 -0.646427 0.172867 -0.743135
108.801 179.979 163.816 -0.646427 0.172867 -0.743135
108.95 180.419 163.789 -0.646427 0.172867 -0.743135
108.95 180.419 163.789 -0.380853 0.372204 -0.846413
109.802 180.9 163.617 -0.380853 0.372204 -0.846413
109.121 180.072 163.559 -0.380853 0.372204 -0.846413
109.121 180.072 163.559 -0.146227 0.187918 -0.971239
109.802 180.9 163.617 -0.146227 0.187918 -0.971239
109.855 180.037 163.442 -0.146227 0.187918 -0.971239
110.308 181.21 163.798 0.365726 0.402548 -0.839166
111.0 180.653 163.833 0.365726 0.402548 -0.839166
110.711 180.201 163.49 0.365726 0.402548 -0.839166
110.308 181.21 163.798 0.128854 0.336483 -0.932832
110.711 180.201 163.49 0.128854 0.336483 -0.932832
109.802 180.9 163.617 0.128854 0.336483 -0.932832
109.802 180.9 163.617 0.0170728 0.199604 -0.979728
110.711 180.201 163.49 0.0170728 0.199604 -0.979728
109.855 180.037 163.442 0.0170728 0.199604 -0.979728
111.403 180.068 163.878 0.509771 0.288628 -0.810449
110.711 180.201 163.49 0.509771 0.288628 -0.810449
111.0 180.653 163.833 0.509771 0.288628 -0.810449
110.308 181.21 163.798 0.0941832 0.384582 -0.918273
109.802 180.9 163.617 0.0941832 0.384582 -0.918273
109.809 181.639 163.927 0.0941832 0.384582 -0.918273
110.215 177.439 163.561 -0.173925 -0.661078 0.729881
109.887 177.607 163.635 -0.173925 -0.661078 0.729881
109.774 177.471 163.484 -0.173925 -0.661078 0.729881
109.118 178.295 163.607 -0.447021 -0.469522 0.761394
109.774 177.471 163.484 -0.447021 -0.469522 0.761394
109.887 177.607 163.635 -0.447021 -0.469522 0.761394
109.118 178.295 163.607 -0.658779 -0.72917 0.185261
109.887 177.607 163.635 -0.658779 -0.72917 0.185261
109.182 178.3 163.855 -0.658779 -0.72917 0.185261
109.182 178.3 163.855 -0.0883081 -0.382831 0.919588
109.887 177.607 163.635 -0.0883081 -0.382831 0.919588
109.896 178.256 163.906 -0.0883081 -0.382831 0.919588
110.215 177.439 163.561 0.60853 -0.618622 0.496989
110.847 178.067 163.57 0.60853 -0.618622 0.496989
110.828 178.269 163.843 0.60853 -0.618622 0.496989
110.215 177.439 163.561 0.0344264 -0.344481 0.938162
110.828 178.269 163.843 0.0344264 -0.344481 0.938162
109.887 177.607 163.635 0.0344264 -0.344481 0.938162
109.887 177.607 163.635 0.0671393 -0.385384 0.920311
110.828 178.269 163.843 0.0671393 -0.385384 0.920311
109.896 178.256 163.906 0.0671393 -0.385384 0.920311
109.182 178.3 163.855 -0.696193 -0.576542 0.427685
109.21 178.908 164.72 -0.696193 -0.576542 0.427685
108.759 179.25 164.448 -0.696193 -0.576542 0.427685
109.182 178.3 163.855 -0.830294 -0.50986 0.225067
108.759 179.25 164.448 -0.830294 -0.50986 0.225067
109.118 178.295 163.607 -0.830294 -0.50986 0.225067
109.118 178.295 163.607 -0.96142 -0.172018 -0.214666
108.759 179.25 164.448 -0.96142 -0.172018 -0.214666
108.924 179.287 163.68 -0.96142 -0.172018 -0.214666
109.896 178.256 163.906 -0.0908921 -0.813501 0.574417
109.21 178.908 164.72 -0.0908921 -0.813501 0.574417
109.182 178.3 163.855 -0.0908921 -0.813501 0.574417
110.231 178.799 164.625 -0.0273507 -0.791592 0.610438
109.21 178.908 164.72 -0.0273507 -0.791592 0.610438
109.896 178.256 163.906 -0.0273507 -0.791592 0.610438
110.828 178.269 163.843 0.0505621 -0.808201 0.586731
110.231 178.799 164.625 0.0505621 -0.808201 0.586731
109.896 178.256 163.906 0.0505621 -0.808201 0.586731
111.054 178.858 164.594 0.0793545 -0.795828 0.600301
110.231 178.799 164.625 0.0793545 -0.795828 0.600301
110.828 178.269 163.843 0.0793545 -0.795828 0.600301
110.828 178.269 163.843 0.796972 -0.459127 0.392476
110.847 178.067 163.57 0.796972 -0.459127 0.392476
111.286 178.991 163.759 0.796972 -0.459127 0.392476
110.828 178.269 163.843 0.758857 -0.525405 -0.38482
111.286 178.991 163.759 0.758857 -0.525405 -0.38482
111.716 179.021 164.567 0.758857 -0.525405 -0.38482
110.828 178.269 163.843 0.220322 -0.798587 0.560104
111.716 179.021 164.567 0.220322 -0.798587 0.560104
111.054 178.858 164.594 0.220322 -0.798587 0.560104
112.039 179.483 164.638 0.779404 -0.484454 -0.397284
111.716 179.021 164.567 0.779404 -0.484454 -0.397284
111.286 178.991 163.759 0.779404 -0.484454 -0.397284
108.386 180.31 164.488 -0.871072 -0.291843 -0.395045
108.801 179.979 163.816 -0.871072 -0.291843 -0.395045
108.759 179.25 164.448 -0.871072 -0.291843 -0.395045
108.801 179.979 163.816 -0.968217 -0.129382 -0.214045
108.924 179.287 163.68 -0.968217 -0.129382 -0.214045
108.759 179.25 164.448 -0.968217 -0.129382 -0.214045
112.039 179.483 164.638 0.656523 -0.22232 -0.720799
111.403 180.068 163.878 0.656523 -0.22232 -0.720799
112.039 180.073 164.455 0.656523 -0.22232 -0.720799
111.286 178.991 163.759 0.762361 -0.0116619 -0.647047
111.403 180.068 163.878 0.762361 -0.0116619 -0.647047
112.039 179.483 164.638 0.762361 -0.0116619 -0.647047
112.039 180.073 164.455 0.866472 -0.146935 -0.477112
112.186 180.072 164.724 0.866472 -0.146935 -0.477112
112.039 179.483 164.638 0.866472 -0.146935 -0.477112
109.035 181.11 164.27 -0.743168 0.474423 -0.471831
108.386 180.31 164.488 -0.743168 0.474423 -0.471831
108.716 181.253 164.916 -0.743168 0.474423 -0.471831
108.95 180.419 163.789 -0.728016 0.449694 -0.517464
108.386 180.31 164.488 -0.728016 0.449694 -0.517464
109.035 181.11 164.27 -0.728016 0.449694 -0.517464
108.95 180.419 163.789 -0.774944 0.225852 -0.590299
108.801 179.979 163.816 -0.774944 0.225852 -0.590299
108.386 180.31 164.488 -0.774944 0.225852 -0.590299
108.95 180.419 163.789 -0.450996 0.546814 -0.705405
109.035 181.11 164.27 -0.450996 0.546814 -0.705405
109.802 180.9 163.617 -0.450996 0.546814 -0.705405
111.0 180.653 163.833 0.546157 0.64613 -0.53313
110.308 181.21 163.798 0.546157 0.64613 -0.53313
110.855 181.413 164.605 0.546157 0.64613 -0.53313
111.0 180.653 163.833 0.576007 0.634184 -0.515778
110.855 181.413 164.605 0.576007 0.634184 -0.515778
111.314 180.926 164.519 0.576007 0.634184 -0.515778
111.403 180.068 163.878 0.724397 0.459398 -0.514006
111.0 180.653 163.833 0.724397 0.459398 -0.514006
111.314 180.926 164.519 0.724397 0.459398 -0.514006
111.403 180.068 163.878 0.650899 0.496626 -0.574189
111.314 180.926 164.519 0.650899 0.496626 -0.574189
111.947 180.387 164.77 0.650899 0.496626 -0.574189
111.403 180.068 163.878 0.486211 0.685909 -0.541413
111.947 180.387 164.77 0.486211 0.685909 -0.541413
112.039 180.073 164.455 0.486211 0.685909 -0.541413
112.186 180.072 164.724 0.705388 0.594358 -0.386222
112.039 180.073 164.455 0.705388 0.594358 -0.386222
111.947 180.387 164.77 0.705388 0.594358 -0.386222
109.035 181.11 164.27 -0.742203 0.476048 -0.471713
108.716 181.253 164.916 -0.742203 0.476048 -0.471713
109.199 181.643 164.55 -0.742203 0.476048 -0.471713
109.821 182.078 164.275 -0.636263 0.617832 -0.46201
109.199 181.643 164.55 -0.636263 0.617832 -0.46201
109.686 182.364 164.842 -0.636263 0.617832 -0.46201
109.809 181.639 163.927 -0.617602 0.498667 -0.608193
109.199 181.643 164.55 -0.617602 0.498667 -0.608193
109.821 182.078 164.275 -0.617602 0.498667 -0.608193
109.809 181.639 163.927 -0.614234 0.506694 -0.60496
109.035 181.11 164.27 -0.614234 0.506694 -0.60496
109.199 181.643 164.55 -0.614234 0.506694 -0.60496
109.809 181.639 163.927 -0.559932 0.325088 -0.762098
109.802 180.9 163.617 -0.559932 0.325088 -0.762098
109.035 181.11 164.27 -0.559932 0.325088 -0.762098
109.809 181.639 163.927 0.622083 0.476268 -0.621435
109.821 182.078 164.275 0.622083 0.476268 -0.621435
110.112 182.126 164.603 0.622083 0.476268 -0.621435
110.308 181.21 163.798 0.394583 0.652637 -0.646815
109.809 181.639 163.927 0.394583 0.652637 -0.646815
110.112 182.126 164.603 0.394583 0.652637 -0.646815
110.308 181.21 163.798 0.580673 0.603954 -0.545947
110.112 182.126 164.603 0.580673 0.603954 -0.545947
110.855 181.413 164.605 0.580673 0.603954 -0.545947
110.112 182.126 164.603 0.280507 0.882447 -0.377629
109.821 182.078 164.275 0.280507 0.882447 -0.377629
109.686 182.364 164.842 0.280507 0.882447 -0.377629
109.21 178.908 164.72 -0.516973 -0.848393 0.11388
109.136 179.108 165.877 -0.516973 -0.848393 0.11388
108.755 179.288 165.489 -0.516973 -0.848393 0.11388
108.759 179.25 164.448 -0.614713 -0.78831 0.0263472
109.21 178.908 164.72 -0.614713 -0.78831 0.0263472
108.755 179.288 165.489 -0.614713 -0.78831 0.0263472
110.231 178.799 164.625 -0.087592 -0.980413 0.176405
110.048 178.993 165.612 -0.087592 -0.980413 0.176405
109.21 178.908 164.72 -0.087592 -0.980413 0.176405
109.21 178.908 164.72 -0.0757766 -0.983281 0.165579
110.048 178.993 165.612 -0.0757766 -0.983281 0.165579
109.136 179.108 165.877 -0.0757766 -0.983281 0.165579
111.054 178.858 164.594 0.077382 -0.972728 0.218661
111.138 179.045 165.398 0.077382 -0.972728 0.218661
110.231 178.799 164.625 0.077382 -0.972728 0.218661
110.231 178.799 164.625 0.087231 -0.974317 0.2076
111.138 179.045 165.398 0.087231 -0.974317 0.2076
110.048 178.993 165.612 0.087231 -0.974317 0.2076
111.973 179.232 165.219 0.268812 -0.916005 0.297784
111.805 179.392 165.864 0.268812 -0.916005 0.297784
111.138 179.045 165.398 0.268812 -0.916005 0.297784
111.973 179.232 165.219 0.255346 -0.94497 0.204523
111.138 179.045 165.398 0.255346 -0.94497 0.204523
111.716 179.021 164.567 0.255346 -0.94497 0.204523
111.716 179.021 164.567 0.242755 -0.950097 0.195921
111.138 179.045 165.398 0.242755 -0.950097 0.195921
111.054 178.858 164.594 0.242755 -0.950097 0.195921
111.716 179.021 164.567 0.820867 -0.552359 -0.145179
112.039 179.483 164.638 0.820867 -0.552359 -0.145179
111.973 179.232 165.219 0.820867 -0.552359 -0.145179
108.386 180.31 164.488 -0.937376 -0.325543 -0.123888
108.759 179.25 164.448 -0.937376 -0.325543 -0.123888
108.304 180.153 165.516 -0.937376 -0.325543 -0.123888
108.759 179.25 164.448 -0.886621 -0.462306 0.0132358
108.755 179.288 165.489 -0.886621 -0.462306 0.0132358
108.304 180.153 165.516 -0.886621 -0.462306 0.0132358
111.973 179.232 165.219 0.738542 -0.583769 0.337296
112.129 179.589 165.495 0.738542 -0.583769 0.337296
111.805 179.392 165.864 0.738542 -0.583769 0.337296
112.129 179.589 165.495 0.92931 -0.365577 -0.0523091
111.973 179.232 165.219 0.92931 -0.365577 -0.0523091
112.039 179.483 164.638 0.92931 -0.365577 -0.0523091
112.129 179.589 165.495 0.988657 -0.121183 -0.0887283
112.039 179.483 164.638 0.988657 -0.121183 -0.0887283
112.174 180.059 165.357 0.988657 -0.121183 -0.0887283
112.174 180.059 165.357 0.96958 -0.244392 0.0137171
112.039 179.483 164.638 0.96958 -0.244392 0.0137171
112.186 180.072 164.724 0.96958 -0.244392 0.0137171
108.386 180.31 164.488 -0.940342 0.339492 -0.0224194
108.304 180.153 165.516 -0.940342 0.339492 -0.0224194
108.716 181.253 164.916 -0.940342 0.339492 -0.0224194
108.304 180.153 165.516 -0.949514 0.256803 -0.180209
108.516 181.12 165.78 -0.949514 0.256803 -0.180209
108.716 181.253 164.916 -0.949514 0.256803 -0.180209
111.947 180.387 164.77 0.754537 0.65577 -0.0253052
111.268 181.201 165.631 0.754537 0.65577 -0.0253052
112.006 180.353 165.663 0.754537 0.65577 -0.0253052
111.314 180.926 164.519 0.675081 0.722161 -0.150832
111.268 181.201 165.631 0.675081 0.722161 -0.150832
111.947 180.387 164.77 0.675081 0.722161 -0.150832
112.174 180.059 165.357 0.796916 0.603446 0.027902
112.186 180.072 164.724 0.796916 0.603446 0.027902
111.947 180.387 164.77 0.796916 0.603446 0.027902
112.006 180.353 165.663 0.850341 0.524957 -0.0366084
112.174 180.059 165.357 0.850341 0.524957 -0.0366084
111.947 180.387 164.77 0.850341 0.524957 -0.0366084
109.02 182.156 165.246 -0.740238 0.436423 -0.511451
109.199 181.643 164.55 -0.740238 0.436423 -0.511451
108.716 181.253 164.916 -0.740238 0.436423 -0.511451
109.02 182.156 165.246 -0.804972 0.423224 -0.415813
108.716 181.253 164.916 -0.804972 0.423224 -0.415813
108.753 182.225 165.834 -0.804972 0.423224 -0.415813
108.753 182.225 165.834 -0.958276 0.214691 -0.188716
108.716 181.253 164.916 -0.958276 0.214691 -0.188716
108.516 181.12 165.78 -0.958276 0.214691 -0.188716
109.199 181.643 164.55 -0.542597 0.603904 -0.583857
109.02 182.156 165.246 -0.542597 0.603904 -0.583857
109.686 182.364 164.842 -0.542597 0.603904 -0.583857
110.855 181.413 164.605 0.732347 0.662321 -0.158111
110.385 182.147 165.502 0.732347 0.662321 -0.158111
111.268 181.201 165.631 0.732347 0.662321 -0.158111
110.112 182.126 164.603 0.675301 0.703446 -0.22166
110.385 182.147 165.502 0.675301 0.703446 -0.22166
110.855 181.413 164.605 0.675301 0.703446 -0.22166
111.268 181.201 165.631 0.707681 0.692102 -0.142061
111.314 180.926 164.519 0.707681 0.692102 -0.142061
110.855 181.413 164.605 0.707681 0.692102 -0.142061
109.02 182.156 165.246 -0.837533 0.347531 -0.421616
108.753 182.225 165.834 -0.837533 0.347531 -0.421616
109.142 182.821 165.553 -0.837533 0.347531 -0.421616
109.686 182.364 164.842 -0.0373987 0.826956 -0.561022
109.142 182.821 165.553 -0.0373987 0.826956 -0.561022
109.843 183.027 165.81 -0.0373987 0.826956 -0.561022
109.686 182.364 164.842 -0.562531 0.428613 -0.707
109.02 182.156 165.246 -0.562531 0.428613 -0.707
109.142 182.821 165.553 -0.562531 0.428613 -0.707
109.686 182.364 164.842 0.127881 0.808148 -0.574928
109.843 183.027 165.81 0.127881 0.808148 -0.574928
110.112 182.126 164.603 0.127881 0.808148 -0.574928
110.112 182.126 164.603 0.782591 0.569587 -0.25124
109.843 183.027 165.81 0.782591 0.569587 -0.25124
110.385 182.147 165.502 0.782591 0.569587 -0.25124
109.136 179.108 165.877 -0.535861 -0.827694 0.166658
109.114 179.36 167.057 -0.535861 -0.827694 0.166658
108.695 179.512 166.466 -0.535861 -0.827694 0.166658
108.755 179.288 165.489 -0.54679 -0.822777 0.155107
109.136 179.108 165.877 -0.54679 -0.822777 0.155107
108.695 179.512 166.466 -0.54679 -0.822777 0.155107
110.048 178.993 165.612 -0.0850072 -0.987133 0.135435
110.005 179.13 166.584 -0.0850072 -0.987133 0.135435
109.136 179.108 165.877 -0.0850072 -0.987133 0.135435
109.136 179.108 165.877 -0.141323 -0.968701 0.204076
110.005 179.13 166.584 -0.141323 -0.968701 0.204076
109.114 179.36 167.057 -0.141323 -0.968701 0.204076
111.138 179.045 165.398 0.0737957 -0.987965 0.135939
110.959 179.163 166.351 0.0737957 -0.987965 0.135939
110.048 178.993 165.612 0.0737957 -0.987965 0.135939
110.048 178.993 165.612 0.068578 -0.987452 0.14225
110.959 179.163 166.351 0.068578 -0.987452 0.14225
110.005 179.13 166.584 0.068578 -0.987452 0.14225
110.959 179.163 166.351 0.352555 -0.918366 0.179744
111.138 179.045 165.398 0.352555 -0.918366 0.179744
111.805 179.392 165.864 0.352555 -0.918366 0.179744
111.289 179.444 166.646 0.421259 -0.842971 0.334576
110.959 179.163 166.351 0.421259 -0.842971 0.334576
111.805 179.392 165.864 0.421259 -0.842971 0.334576
108.755 179.288 165.489 -0.885018 -0.462673 0.0517439
108.695 179.512 166.466 -0.885018 -0.462673 0.0517439
108.304 180.153 165.516 -0.885018 -0.462673 0.0517439
108.695 179.512 166.466 -0.885509 -0.46163 0.0526487
108.259 180.352 166.496 -0.885509 -0.46163 0.0526487
108.304 180.153 165.516 -0.885509 -0.46163 0.0526487
112.094 180.024 165.936 0.782491 -0.410706 0.468005
111.805 179.392 165.864 0.782491 -0.410706 0.468005
112.129 179.589 165.495 0.782491 -0.410706 0.468005
112.094 180.024 165.936 0.711285 -0.391381 0.583862
111.696 180.324 166.621 0.711285 -0.391381 0.583862
111.805 179.392 165.864 0.711285 -0.391381 0.583862
111.696 180.324 166.621 0.772818 -0.343368 0.533714
111.289 179.444 166.646 0.772818 -0.343368 0.533714
111.805 179.392 165.864 0.772818 -0.343368 0.533714
112.129 179.589 165.495 0.989459 -0.0556608 0.133687
112.174 180.059 165.357 0.989459 -0.0556608 0.133687
112.094 180.024 165.936 0.989459 -0.0556608 0.133687
108.304 180.153 165.516 -0.967074 0.236871 -0.0930648
108.259 180.352 166.496 -0.967074 0.236871 -0.0930648
108.516 181.12 165.78 -0.967074 0.236871 -0.0930648
108.259 180.352 166.496 -0.957448 0.0565306 -0.283016
108.261 181.245 166.667 -0.957448 0.0565306 -0.283016
108.516 181.12 165.78 -0.957448 0.0565306 -0.283016
112.006 180.353 165.663 0.839882 0.461349 0.285928
111.696 180.324 166.621 0.839882 0.461349 0.285928
112.094 180.024 165.936 0.839882 0.461349 0.285928
112.006 180.353 165.663 0.724694 0.640491 0.254144
111.268 181.201 165.631 0.724694 0.640491 0.254144
111.696 180.324 166.621 0.724694 0.640491 0.254144
111.268 181.201 165.631 0.927053 0.367281 -0.0753524
111.253 181.494 166.877 0.927053 0.367281 -0.0753524
111.696 180.324 166.621 0.927053 0.367281 -0.0753524
112.174 180.059 165.357 0.917371 0.368867 0.149555
112.006 180.353 165.663 0.917371 0.368867 0.149555
112.094 180.024 165.936 0.917371 0.368867 0.149555
108.516 181.12 165.78 -0.930401 0.214035 -0.297563
108.261 181.245 166.667 -0.930401 0.214035 -0.297563
108.753 182.225 165.834 -0.930401 0.214035 -0.297563
108.261 181.245 166.667 -0.932418 0.309779 -0.1861
108.536 182.165 166.822 -0.932418 0.309779 -0.1861
108.753 182.225 165.834 -0.932418 0.309779 -0.1861
111.268 181.201 165.631 0.758739 0.636086 -0.14039
110.454 182.383 166.585 0.758739 0.636086 -0.14039
111.253 181.494 166.877 0.758739 0.636086 -0.14039
110.385 182.147 165.502 0.730389 0.65622 -0.189493
110.454 182.383 166.585 0.730389 0.65622 -0.189493
111.268 181.201 165.631 0.730389 0.65622 -0.189493
109.043 183.135 166.032 -0.840855 0.35646 -0.407308
109.142 182.821 165.553 -0.840855 0.35646 -0.407308
108.753 182.225 165.834 -0.840855 0.35646 -0.407308
109.043 183.135 166.032 -0.888296 0.348135 -0.299554
108.753 182.225 165.834 -0.888296 0.348135 -0.299554
108.785 183.219 166.894 -0.888296 0.348135 -0.299554
108.785 183.219 166.894 -0.951456 0.238395 -0.194675
108.753 182.225 165.834 -0.951456 0.238395 -0.194675
108.536 182.165 166.822 -0.951456 0.238395 -0.194675
109.142 182.821 165.553 -0.0414337 0.831636 -0.553774
109.043 183.135 166.032 -0.0414337 0.831636 -0.553774
109.843 183.027 165.81 -0.0414337 0.831636 -0.553774
110.385 182.147 165.502 0.810446 0.55953 -0.173503
109.843 183.027 165.81 0.810446 0.55953 -0.173503
110.454 182.383 166.585 0.810446 0.55953 -0.173503
110.454 182.383 166.585 0.851703 0.399457 -0.339169
109.843 183.027 165.81 0.851703 0.399457 -0.339169
110.107 183.309 166.804 0.851703 0.399457 -0.339169
109.043 183.135 166.032 -0.624812 0.736688 -0.258653
108.785 183.219 166.894 -0.624812 0.736688 -0.258653
109.227 183.54 166.741 -0.624812 0.736688 -0.258653
109.843 183.027 165.81 -0.0190767 0.870367 -0.492034
109.043 183.135 166.032 -0.0190767 0.870367 -0.492034
109.227 183.54 166.741 -0.0190767 0.870367 -0.492034
109.843 183.027 165.81 -0.00135278 0.875539 -0.483146
109.227 183.54 166.741 -0.00135278 0.875539 -0.483146
109.877 183.583 166.818 -0.00135278 0.875539 -0.483146
109.877 183.583 166.818 0.706694 0.609003 -0.360139
110.107 183.309 166.804 0.706694 0.609003 -0.360139
109.843 183.027 165.81 0.706694 0.609003 -0.360139
109.114 179.36 167.057 -0.0567045 -0.935837 0.347842
110.005 179.13 166.584 -0.0567045 -0.935837 0.347842
110.015 179.395 167.297 -0.0567045 -0.935837 0.347842
110.005 179.13 166.584 0.104413 -0.950053 0.294104
110.959 179.163 166.351 0.104413 -0.950053 0.294104
110.822 179.306 166.864 0.104413 -0.950053 0.294104
110.015 179.395 167.297 0.0835174 -0.934684 0.345529
110.005 179.13 166.584 0.0835174 -0.934684 0.345529
110.822 179.306 166.864 0.0835174 -0.934684 0.345529
110.959 179.163 166.351 0.41106 -0.843274 0.346294
111.289 179.444 166.646 0.41106 -0.843274 0.346294
110.822 179.306 166.864 0.41106 -0.843274 0.346294
109.114 179.36 167.057 -0.600094 -0.580721 0.550136
109.236 179.804 167.659 -0.600094 -0.580721 0.550136
108.568 180.229 167.379 -0.600094 -0.580721 0.550136
109.114 179.36 167.057 -0.723458 -0.588173 0.36147
108.568 180.229 167.379 -0.723458 -0.588173 0.36147
108.695 179.512 166.466 -0.723458 -0.588173 0.36147
108.695 179.512 166.466 -0.858567 -0.454315 0.237615
108.568 180.229 167.379 -0.858567 -0.454315 0.237615
108.259 180.352 166.496 -0.858567 -0.454315 0.237615
110.015 179.395 167.297 -0.131288 -0.78488 0.60558
109.236 179.804 167.659 -0.131288 -0.78488 0.60558
109.114 179.36 167.057 -0.131288 -0.78488 0.60558
110.102 179.815 167.677 -0.00647222 -0.669125 0.743122
109.236 179.804 167.659 -0.00647222 -0.669125 0.743122
110.015 179.395 167.297 -0.00647222 -0.669125 0.743122
110.102 179.815 167.677 0.375916 -0.604819 0.702055
110.942 179.957 167.349 0.375916 -0.604819 0.702055
110.673 180.29 167.78 0.375916 -0.604819 0.702055
110.102 179.815 167.677 0.366349 -0.664061 0.651775
110.015 179.395 167.297 0.366349 -0.664061 0.651775
110.942 179.957 167.349 0.366349 -0.664061 0.651775
110.015 179.395 167.297 0.325264 -0.60346 0.728038
110.822 179.306 166.864 0.325264 -0.60346 0.728038
110.942 179.957 167.349 0.325264 -0.60346 0.728038
111.289 179.444 166.646 0.733744 -0.323521 0.597457
111.696 180.324 166.621 0.733744 -0.323521 0.597457
110.942 179.957 167.349 0.733744 -0.323521 0.597457
110.822 179.306 166.864 0.479147 -0.580047 0.658759
111.289 179.444 166.646 0.479147 -0.580047 0.658759
110.942 179.957 167.349 0.479147 -0.580047 0.658759
108.259 180.352 166.496 -0.944673 -0.0593109 0.322607
108.568 180.229 167.379 -0.944673 -0.0593109 0.322607
108.261 181.245 166.667 -0.944673 -0.0593109 0.322607
108.568 180.229 167.379 -0.970258 -0.214584 0.11204
108.352 181.361 167.678 -0.970258 -0.214584 0.11204
108.261 181.245 166.667 -0.970258 -0.214584 0.11204
110.942 179.957 167.349 0.47899 -0.524158 0.70415
111.174 180.528 167.617 0.47899 -0.524158 0.70415
110.673 180.29 167.78 0.47899 -0.524158 0.70415
111.174 180.528 167.617 0.71185 -0.513554 0.479095
110.942 179.957 167.349 0.71185 -0.513554 0.479095
111.696 180.324 166.621 0.71185 -0.513554 0.479095
111.174 180.528 167.617 0.782029 -0.385674 0.489578
111.696 180.324 166.621 0.782029 -0.385674 0.489578
111.496 181.342 167.744 0.782029 -0.385674 0.489578
111.496 181.342 167.744 0.90484 0.383034 -0.185875
111.696 180.324 166.621 0.90484 0.383034 -0.185875
111.253 181.494 166.877 0.90484 0.383034 -0.185875
108.261 181.245 166.667 -0.959244 0.277181 0.0549705
108.352 181.361 167.678 -0.959244 0.277181 0.0549705
108.536 182.165 166.822 -0.959244 0.277181 0.0549705
108.352 181.361 167.678 -0.965638 -0.0512883 -0.254781
108.32 182.397 167.592 -0.965638 -0.0512883 -0.254781
108.536 182.165 166.822 -0.965638 -0.0512883 -0.254781
111.253 181.494 166.877 0.740318 0.5295 -0.414197
110.454 182.383 166.585 0.740318 0.5295 -0.414197
110.952 182.505 167.632 0.740318 0.5295 -0.414197
111.253 181.494 166.877 0.779403 0.506866 -0.368263
110.952 182.505 167.632 0.779403 0.506866 -0.368263
111.249 182.177 167.807 0.779403 0.506866 -0.368263
111.253 181.494 166.877 0.933158 0.291973 -0.209686
111.249 182.177 167.807 0.933158 0.291973 -0.209686
111.496 181.342 167.744 0.933158 0.291973 -0.209686
108.536 182.165 166.822 -0.914153 0.238586 -0.327722
108.32 182.397 167.592 -0.914153 0.238586 -0.327722
108.785 183.219 166.894 -0.914153 0.238586 -0.327722
108.32 182.397 167.592 -0.90736 0.397951 -0.1354
108.624 183.17 167.833 -0.90736 0.397951 -0.1354
108.785 183.219 166.894 -0.90736 0.397951 -0.1354
110.952 182.505 167.632 0.720074 0.56108 -0.408268
110.454 182.383 166.585 0.720074 0.56108 -0.408268
110.336 183.316 167.659 0.720074 0.56108 -0.408268
110.454 182.383 166.585 0.88856 0.39015 -0.241339
110.107 183.309 166.804 0.88856 0.39015 -0.241339
110.336 183.316 167.659 0.88856 0.39015 -0.241339
109.105 184.185 167.724 -0.617809 0.620246 -0.483329
109.227 183.54 166.741 -0.617809 0.620246 -0.483329
108.785 183.219 166.894 -0.617809 0.620246 -0.483329
109.105 184.185 167.724 -0.625707 0.617316 -0.476877
108.785 183.219 166.894 -0.625707 0.617316 -0.476877
108.788 184.027 167.936 -0.625707 0.617316 -0.476877
108.788 184.027 167.936 -0.966535 0.20384 -0.155755
108.785 183.219 166.894 -0.966535 0.20384 -0.155755
108.624 183.17 167.833 -0.966535 0.20384 -0.155755
109.227 183.54 166.741 0.00962819 0.833539 -0.552377
109.793 184.16 167.687 0.00962819 0.833539 -0.552377
109.877 183.583 166.818 0.00962819 0.833539 -0.552377
109.105 184.185 167.724 0.000447584 0.836106 -0.548568
109.793 184.16 167.687 0.000447584 0.836106 -0.548568
109.227 183.54 166.741 0.000447584 0.836106 -0.548568
109.877 183.583 166.818 0.36545 0.791562 -0.489771
109.793 184.16 167.687 0.36545 0.791562 -0.489771
110.054 183.968 167.572 0.36545 0.791562 -0.489771
109.877 183.583 166.818 0.671431 0.584387 -0.455712
110.054 183.968 167.572 0.671431 0.584387 -0.455712
110.107 183.309 166.804 0.671431 0.584387 -0.455712
110.107 183.309 166.804 0.901567 0.356874 -0.244576
110.054 183.968 167.572 0.901567 0.356874 -0.244576
110.336 183.316 167.659 0.901567 0.356874 -0.244576
109.236 179.804 167.659 -0.585195 -0.498237 0.63977
109.028 180.5 168.01 -0.585195 -0.498237 0.63977
108.568 180.229 167.379 -0.585195 -0.498237 0.63977
109.236 179.804 167.659 -0.00894746 -0.582184 0.813008
110.102 179.815 167.677 -0.00894746 -0.582184 0.813008
109.963 180.335 168.047 -0.00894746 -0.582184 0.813008
109.028 180.5 168.01 -0.118212 -0.475536 0.871717
109.236 179.804 167.659 -0.118212 -0.475536 0.871717
109.963 180.335 168.047 -0.118212 -0.475536 0.871717
110.102 179.815 167.677 0.274862 -0.508328 0.816121
110.673 180.29 167.78 0.274862 -0.508328 0.816121
109.963 180.335 168.047 0.274862 -0.508328 0.816121
109.028 180.5 168.01 -0.737962 -0.358487 0.571751
108.949 181.315 168.419 -0.737962 -0.358487 0.571751
108.352 181.361 167.678 -0.737962 -0.358487 0.571751
108.568 180.229 167.379 -0.703305 -0.303989 0.642614
109.028 180.5 168.01 -0.703305 -0.303989 0.642614
108.352 181.361 167.678 -0.703305 -0.303989 0.642614
109.963 180.335 168.047 -0.123836 -0.512479 0.849723
109.795 181.12 168.496 -0.123836 -0.512479 0.849723
109.028 180.5 168.01 -0.123836 -0.512479 0.849723
109.795 181.12 168.496 -0.183933 -0.455019 0.871278
108.949 181.315 168.419 -0.183933 -0.455019 0.871278
109.028 180.5 168.01 -0.183933 -0.455019 0.871278
110.673 180.29 167.78 0.472114 -0.490163 0.732699
111.174 180.528 167.617 0.472114 -0.490163 0.732699
110.815 181.087 168.222 0.472114 -0.490163 0.732699
110.673 180.29 167.78 0.276279 -0.502949 0.81897
110.815 181.087 168.222 0.276279 -0.502949 0.81897
109.963 180.335 168.047 0.276279 -0.502949 0.81897
109.963 180.335 168.047 0.218718 -0.44871 0.8665
110.815 181.087 168.222 0.218718 -0.44871 0.8665
109.795 181.12 168.496 0.218718 -0.44871 0.8665
111.174 180.528 167.617 0.622449 -0.355255 0.697388
111.496 181.342 167.744 0.622449 -0.355255 0.697388
110.815 181.087 168.222 0.622449 -0.355255 0.697388
108.949 181.315 168.419 -0.60733 -0.195525 0.770013
109.241 181.709 168.75 -0.60733 -0.195525 0.770013
108.689 182.253 168.453 -0.60733 -0.195525 0.770013
108.949 181.315 168.419 -0.764577 -0.232956 0.60096
108.689 182.253 168.453 -0.764577 -0.232956 0.60096
108.352 181.361 167.678 -0.764577 -0.232956 0.60096
108.352 181.361 167.678 -0.918957 0.00458176 0.394332
108.689 182.253 168.453 -0.918957 0.00458176 0.394332
108.32 182.397 167.592 -0.918957 0.00458176 0.394332
109.795 181.12 168.496 -0.198578 -0.539218 0.81842
109.241 181.709 168.75 -0.198578 -0.539218 0.81842
108.949 181.315 168.419 -0.198578 -0.539218 0.81842
110.198 181.604 168.721 -0.0173633 -0.409561 0.912117
109.241 181.709 168.75 -0.0173633 -0.409561 0.912117
109.795 181.12 168.496 -0.0173633 -0.409561 0.912117
110.815 181.087 168.222 0.20138 -0.545512 0.813549
110.198 181.604 168.721 0.20138 -0.545512 0.813549
109.795 181.12 168.496 0.20138 -0.545512 0.813549
111.009 181.847 168.546 0.313206 -0.439459 0.841889
110.198 181.604 168.721 0.313206 -0.439459 0.841889
110.815 181.087 168.222 0.313206 -0.439459 0.841889
111.009 181.847 168.546 0.62067 -0.436374 0.651419
110.815 181.087 168.222 0.62067 -0.436374 0.651419
111.496 181.342 167.744 0.62067 -0.436374 0.651419
111.009 181.847 168.546 0.780846 -0.191514 0.594645
111.496 181.342 167.744 0.780846 -0.191514 0.594645
111.14 182.317 168.525 0.780846 -0.191514 0.594645
111.14 182.317 168.525 0.956778 0.276349 0.0905906
111.496 181.342 167.744 0.956778 0.276349 0.0905906
111.249 182.177 167.807 0.956778 0.276349 0.0905906
108.32 182.397 167.592 -0.883742 0.217086 0.414576
108.689 182.253 168.453 -0.883742 0.217086 0.414576
108.624 183.17 167.833 -0.883742 0.217086 0.414576
108.689 182.253 168.453 -0.977684 -0.161241 -0.134668
108.491 183.311 168.628 -0.977684 -0.161241 -0.134668
108.624 183.17 167.833 -0.977684 -0.161241 -0.134668
110.952 182.505 167.632 0.726486 0.565364 -0.390617
110.336 183.316 167.659 0.726486 0.565364 -0.390617
110.761 183.385 168.55 0.726486 0.565364 -0.390617
110.952 182.505 167.632 0.70725 0.578144 -0.406874
110.761 183.385 168.55 0.70725 0.578144 -0.406874
111.076 182.939 168.464 0.70725 0.578144 -0.406874
110.952 182.505 167.632 0.778625 0.501252 -0.377479
111.076 182.939 168.464 0.778625 0.501252 -0.377479
111.249 182.177 167.807 0.778625 0.501252 -0.377479
111.249 182.177 167.807 0.985405 0.113686 0.126695
111.076 182.939 168.464 0.985405 0.113686 0.126695
111.14 182.317 168.525 0.985405 0.113686 0.126695
108.624 183.17 167.833 -0.958267 0.207231 -0.196928
108.491 183.311 168.628 -0.958267 0.207231 -0.196928
108.788 184.027 167.936 -0.958267 0.207231 -0.196928
108.491 183.311 168.628 -0.92211 0.386899 0.00464733
108.831 184.122 168.774 -0.92211 0.386899 0.00464733
108.788 184.027 167.936 -0.92211 0.386899 0.00464733
110.761 183.385 168.55 0.711638 0.58749 -0.385262
110.336 183.316 167.659 0.711638 0.58749 -0.385262
110.118 184.097 168.446 0.711638 0.58749 -0.385262
110.336 183.316 167.659 0.9169 0.379915 -0.122303
110.054 183.968 167.572 0.9169 0.379915 -0.122303
110.118 184.097 168.446 0.9169 0.379915 -0.122303
108.788 184.027 167.936 -0.881966 0.471262 -0.00696456
108.831 184.122 168.774 -0.881966 0.471262 -0.00696456
109.029 184.488 168.577 -0.881966 0.471262 -0.00696456
109.105 184.185 167.724 -0.583602 0.747312 -0.317701
108.788 184.027 167.936 -0.583602 0.747312 -0.317701
109.029 184.488 168.577 -0.583602 0.747312 -0.317701
109.793 184.16 167.687 0.0242951 0.979857 -0.198217
109.105 184.185 167.724 0.0242951 0.979857 -0.198217
109.689 184.352 168.621 0.0242951 0.979857 -0.198217
109.105 184.185 167.724 0.21117 0.926957 -0.310094
109.029 184.488 168.577 0.21117 0.926957 -0.310094
109.689 184.352 168.621 0.21117 0.926957 -0.310094
110.118 184.097 168.446 0.537474 0.82787 -0.160478
110.054 183.968 167.572 0.537474 0.82787 -0.160478
109.793 184.16 167.687 0.537474 0.82787 -0.160478
109.689 184.352 168.621 0.469119 0.873904 -0.127351
110.118 184.097 168.446 0.469119 0.873904 -0.127351
109.793 184.16 167.687 0.469119 0.873904 -0.127351
109.241 181.709 168.75 -0.663162 -0.297688 0.68673
109.073 182.555 168.954 -0.663162 -0.297688 0.68673
108.689 182.253 168.453 -0.663162 -0.297688 0.68673
109.241 181.709 168.75 -0.0247099 -0.468457 0.883141
110.198 181.604 168.721 -0.0247099 -0.468457 0.883141
109.998 182.353 169.113 -0.0247099 -0.468457 0.883141
109.073 182.555 168.954 -0.219898 -0.269806 0.93747
109.241 181.709 168.75 -0.219898 -0.269806 0.93747
109.998 182.353 169.113 -0.219898 -0.269806 0.93747
110.198 181.604 168.721 0.302405 -0.380093 0.874117
111.009 181.847 168.546 0.302405 -0.380093 0.874117
110.812 182.27 168.798 0.302405 -0.380093 0.874117
109.998 182.353 169.113 0.299992 -0.378062 0.875828
110.198 181.604 168.721 0.299992 -0.378062 0.875828
110.812 182.27 168.798 0.299992 -0.378062 0.875828
111.009 181.847 168.546 0.645602 -0.146636 0.749463
111.14 182.317 168.525 0.645602 -0.146636 0.749463
110.812 182.27 168.798 0.645602 -0.146636 0.749463
109.073 182.555 168.954 -0.69018 -0.236026 0.684064
109.078 183.51 169.289 -0.69018 -0.236026 0.684064
108.491 183.311 168.628 -0.69018 -0.236026 0.684064
108.689 182.253 168.453 -0.694567 -0.242278 0.677406
109.073 182.555 168.954 -0.694567 -0.242278 0.677406
108.491 183.311 168.628 -0.694567 -0.242278 0.677406
109.998 182.353 169.113 -0.223483 -0.292242 0.929865
109.859 183.193 169.344 -0.223483 -0.292242 0.929865
109.073 182.555 168.954 -0.223483 -0.292242 0.929865
109.859 183.193 169.344 -0.196191 -0.323334 0.925724
109.078 183.51 169.289 -0.196191 -0.323334 0.925724
109.073 182.555 168.954 -0.196191 -0.323334 0.925724
110.812 182.27 168.798 0.352769 -0.0775652 0.93249
110.76 183.1 168.887 0.352769 -0.0775652 0.93249
109.998 182.353 169.113 0.352769 -0.0775652 0.93249
110.76 183.1 168.887 0.431135 -0.171758 0.885789
109.859 183.193 169.344 0.431135 -0.171758 0.885789
109.998 182.353 169.113 0.431135 -0.171758 0.885789
111.14 182.317 168.525 0.818317 0.139041 0.557696
111.076 182.939 168.464 0.818317 0.139041 0.557696
110.76 183.1 168.887 0.818317 0.139041 0.557696
110.812 182.27 168.798 0.64314 -0.0415042 0.764623
111.14 182.317 168.525 0.64314 -0.0415042 0.764623
110.76 183.1 168.887 0.64314 -0.0415042 0.764623
109.078 183.51 169.289 -0.797563 0.166636 0.579764
109.165 184.243 169.198 -0.797563 0.166636 0.579764
108.831 184.122 168.774 -0.797563 0.166636 0.579764
108.491 183.311 168.628 -0.76146 0.209517 0.613418
109.078 183.51 169.289 -0.76146 0.209517 0.613418
108.831 184.122 168.774 -0.76146 0.209517 0.613418
109.859 183.193 169.344 0.0105592 0.195876 0.980572
109.969 183.974 169.187 0.0105592 0.195876 0.980572
109.078 183.51 169.289 0.0105592 0.195876 0.980572
109.969 183.974 169.187 0.0526645 0.117434 0.991683
109.165 184.243 169.198 0.0526645 0.117434 0.991683
109.078 183.51 169.289 0.0526645 0.117434 0.991683
110.761 183.385 168.55 0.699403 0.669103 0.251271
110.118 184.097 168.446 0.699403 0.669103 0.251271
109.969 183.974 169.187 0.699403 0.669103 0.251271
110.761 183.385 168.55 0.735926 0.516438 0.437841
109.969 183.974 169.187 0.735926 0.516438 0.437841
110.76 183.1 168.887 0.735926 0.516438 0.437841
110.76 183.1 168.887 0.458423 0.112841 0.881541
109.969 183.974 169.187 0.458423 0.112841 0.881541
109.859 183.193 169.344 0.458423 0.112841 0.881541
111.076 182.939 168.464 0.782424 0.474941 0.402794
110.761 183.385 168.55 0.782424 0.474941 0.402794
110.76 183.1 168.887 0.782424 0.474941 0.402794
108.831 184.122 168.774 -0.707723 0.590307 0.388157
109.165 184.243 169.198 -0.707723 0.590307 0.388157
109.029 184.488 168.577 -0.707723 0.590307 0.388157
109.689 184.352 168.621 0.169123 0.928816 0.329693
109.029 184.488 168.577 0.169123 0.928816 0.329693
109.165 184.243 169.198 0.169123 0.928816 0.329693
109.969 183.974 169.187 0.291673 0.855745 0.427349
109.689 184.352 168.621 0.291673 0.855745 0.427349
109.165 184.243 169.198 0.291673 0.855745 0.427349
110.118 184.097 168.446 0.568018 0.785935 0.244258
109.689 184.352 168.621 0.568018 0.785935 0.244258
109.969 183.974 169.187 0.568018 0.785935 0.244258
3 0 1 2
3 3 4 5
3 6 7 8
3 9 10 11
3 12 13 14
3 15 16 17
3 18 19 20
3 21 22 23
3 24 25 26
3 27 28 29
3 30 31 32
3 33 34 35
3 36 37 38
3 39 40 41
3 42 43 44
3 45 46 47
3 48 49 50
3 51 52 53
3 54 55 56
3 57 58 59
3 60 61 62
3 63 64 65
3 66 67 68
3 69 70 71
3 72 73 74
3 75 76 77
3 78 79 80
3 81 82 83
3 84 85 86
3 87 88 89
3 90 91 92
3 93 94 95
3 96 97 98
3 99 100 101
3 102 103 104
3 105 106 107
3 108 109 110
3 111 112 113
3 114 115 116
3 117 118 119
3 120 121 122
3 123 124 125
3 126 127 128
3 129 130 131
3 132 133 134
3 135 136 137
3 138 139 140
3 141 142 143
3 144 145 146
3 147 148 149
3 150 151 152
3 153 154 155
3 156 157 158
3 159 160 161
3 162 163 164
3 165 166 167
3 168 169 170
3 171 172 173
3 174 175 176
3 177 178 179
3 180 181 182
3 183 184 185
3 186 187 188
3 189 190 191
3 192 193 194
3 195 196 197
3 198 199 200
3 201 202 203
3 204 205 206
3 207 208 209
3 210 211 212
3 213 214 215
3 216 217 218
3 219 220 221
3 222 223 224
3 225 226 227
3 228 229 230
3 231 232 233
3 234 235 236
3 237 238 239
3 240 241 242
3 243 244 245
3 246 247 248
3 249 250 251
3 252 253 254
3 255 256 257
3 258 259 260
3 261 262 263
3 264 265 266
3 267 268 269
3 270 271 272
3 273 274 275
3 276 277 278
3 279 280 281
3 282 283 284
3 285 286 287
3 288 289 290
3 291 292 293
3 294 295 296
3 297 298 299
3 300 301 302
3 303 304 305
3 306 307 308
3 309 310 311
3 312 313 314
3 315 316 317
3 318 319 320
3 321 322 323
3 324 325 326
3 327 328 329
3 330 331 332
3 333 334 335
3 336 337 338
3 339 340 341
3 342 343 344
3 345 346 347
3 348 349 350
3 351 352 353
3 354 355 356
3 357 358 359
3 360 361 362
3 363 364 365
3 366 367 368
3 369 370 371
3 372 373 374
3 375 376 377
3 378 379 380
3 381 382 383
3 384 385 386
3 387 388 389
3 390 391 392
3 393 394 395
3 396 397 398
3 399 400 401
3 402 403 404
3 405 406 407
3 408 409 410
3 411 412 413
3 414 415 416
3 417 418 419
3 420 421 422
3 423 424 425
3 426 427 428
3 429 430 431
3 432 433 434
3 435 436 437
3 438 439 440
3 441 442 443
3 444 445 446
3 447 448 449
3 450 451 452
3 453 454 455
3 456 457 458
3 459 460 461
3 462 463 464
3 465 466 467
3 468 469 470
3 471 472 473
3 474 475 476
3 477 478 479
3 480 481 482
3 483 484 485
3 486 487 488
3 489 490 491
3 492 493 494
3 495 496 497
3 498 499 500
3 501 502 503
3 504 505 506
3 507 508 509
3 510 511 512
3 513 514 515
3 516 517 518
3 519 520 521
3 522 523 524
3 525 526 527
3 528 529 530
3 531 532 533
3 534 535 536
3 537 538 539
3 540 541 542
3 543 544 545
3 546 547 548
3 549 550 551
3 552 553 554
3 555 556 557
3 558 559 560
3 561 562 563
3 564 565 566
3 567 568 569
3 570 571 572
3 573 574 575
3 576 577 578
3 579 580 581
3 582 583 584
3 585 586 587
3 588 589 590
3 591 592 593
3 594 595 596
3 597 598 599
3 600 601 602
3 603 604 605
3 606 607 608
3 609 610 611
3 612 613 614
3 615 616 617
3 618 619 620
3 621 622 623
3 624 625 626
3 627 628 629
3 630 631 632
3 633 634 635
3 636 637 638
3 639 640 641
3 642 643 644
3 645 646 647
3 648 649 650
3 651 652 653
3 654 655 656
3 657 658 659
3 660 661 662
3 663 664 665
3 666 667 668
3 669 670 671
3 672 673 674
3 675 676 677
3 678 679 680
3 681 682 683
3 684 685 686
3 687 688 689
3 690 691 692
3 693 694 695
3 696 697 698
3 699 700 701
3 702 703 704
3 705 706 707
3 708 709 710
3 711 712 713
3 714 715 716
3 717 718 719
3 720 721 722
3 723 724 725
