ply
format ascii 1.0
element vertex 732
property float x
property float y
property float z
property float nx
property float ny
property float nz
element face 244
property list uint uint vertex_indices
end_header
58.3194 134.671 159.339 -0.668306 -0.173735 -0.723314
58.2831 134.428 159.431 -0.668306 -0.173735 -0.723314
58.1321 134.741 159.495 -0.668306 -0.173735 -0.723314
58.2831 134.428 159.431 0.857583 -0.288556 -0.425778
58.3194 134.671 159.339 0.857583 -0.288556 -0.425778
58.3963 134.609 159.536 0.857583 -0.288556 -0.425778
58.3063 135.43 159.33 -0.644846 -0.0204964 -0.764038
58.3194 134.671 159.339 -0.644846 -0.0204964 -0.764038
58.1321 134.741 159.495 -0.644846 -0.0204964 -0.764038
58.0993 135.558 159.513 -0.66636 -0.0106114 -0.745554
58.3063 135.43 159.33 -0.66636 -0.0106114 -0.745554
58.1321 134.741 159.495 -0.66636 -0.0106114 -0.745554
58.5307 135.289 159.537 0.896678 -0.176495 -0.405978
58.3963 134.609 159.536 0.896678 -0.176495 -0.405978
58.3194 134.671 159.339 0.896678 -0.176495 -0.405978
58.3063 135.43 159.33 0.679565 0.00275161 -0.73361
58.5307 135.289 159.537 0.679565 0.00275161 -0.73361
58.3194 134.671 159.339 0.679565 0.00275161 -0.73361
58.2967 136.255 159.383 -0.647652 0.0412303 -0.76082
58.3063 135.43 159.33 -0.647652 0.0412303 -0.76082
58.0993 135.558 159.513 -0.647652 0.0412303 -0.76082
58.1619 136.466 159.7 -0.866867 0.157152 -0.473123
58.2967 136.255 159.383 -0.866867 0.157152 -0.473123
58.0993 135.558 159.513 -0.866867 0.157152 -0.473123
58.5791 136.189 159.489 0.650602 -0.0758554 -0.755621
58.5307 135.289 159.537 0.650602 -0.0758554 -0.755621
58.3063 135.43 159.33 0.650602 -0.0758554 -0.755621
58.2967 136.255 159.383 0.363355 0.063761 -0.929466
58.5791 136.189 159.489 0.363355 0.063761 -0.929466
58.3063 135.43 159.33 0.363355 0.063761 -0.929466
60.3956 136.723 159.274 -0.156241 -0.541819 -0.825845
60.4721 136.311 159.53 -0.156241 -0.541819 -0.825845
59.9872 136.491 159.504 -0.156241 -0.541819 -0.825845
60.4721 136.311 159.53 0.382338 -0.435051 -0.815198
60.3956 136.723 159.274 0.382338 -0.435051 -0.815198
60.8393 136.388 159.661 0.382338 -0.435051 -0.815198
58.2967 136.255 159.383 -0.788715 0.301543 -0.535724
58.1619 136.466 159.7 -0.788715 0.301543 -0.535724
58.4458 136.848 159.497 -0.788715 0.301543 -0.535724
59.4056 137.111 159.395 -0.382362 -0.652611 -0.654139
58.9507 137.339 159.434 -0.382362 -0.652611 -0.654139
59.6177 137.275 159.108 -0.382362 -0.652611 -0.654139
58.5791 136.189 159.489 0.367368 0.0862156 -0.926071
58.2967 136.255 159.383 0.367368 0.0862156 -0.926071
58.4458 136.848 159.497 0.367368 0.0862156 -0.926071
59.9872 136.491 159.504 -0.476854 -0.564401 -0.673842
59.4056 137.111 159.395 -0.476854 -0.564401 -0.673842
59.6177 137.275 159.108 -0.476854 -0.564401 -0.673842
59.9872 136.491 159.504 -0.182713 -0.509867 -0.840626
59.6177 137.275 159.108 -0.182713 -0.509867 -0.840626
60.3956 136.723 159.274 -0.182713 -0.509867 -0.840626
60.3956 136.723 159.274 0.278652 0.106152 -0.954508
59.6177 137.275 159.108 0.278652 0.106152 -0.954508
60.2631 137.393 159.31 0.278652 0.106152 -0.954508
60.7691 137.198 159.598 0.656119 -0.00196845 -0.754655
60.8393 136.388 159.661 0.656119 -0.00196845 -0.754655
60.3956 136.723 159.274 0.656119 -0.00196845 -0.754655
60.2631 137.393 159.31 0.531626 0.149704 -0.833644
60.7691 137.198 159.598 0.531626 0.149704 -0.833644
60.3956 136.723 159.274 0.531626 0.149704 -0.833644
59.6177 137.275 159.108 -0.258495 0.699659 -0.666076
58.9507 137.339 159.434 -0.258495 0.699659 -0.666076
59.4419 137.732 159.657 -0.258495 0.699659 -0.666076
60.2631 137.393 159.31 0.0544921 0.775463 -0.629037
59.6177 137.275 159.108 0.0544921 0.775463 -0.629037
59.4419 137.732 159.657 0.0544921 0.775463 -0.629037
60.4651 137.652 159.643 0.0524428 0.773346 -0.631811
60.2631 137.393 159.31 0.0524428 0.773346 -0.631811
59.4419 137.732 159.657 0.0524428 0.773346 -0.631811
60.7691 137.198 159.598 0.566025 0.449158 -0.691283
60.2631 137.393 159.31 0.566025 0.449158 -0.691283
60.4651 137.652 159.643 0.566025 0.449158 -0.691283
60.6298 132.587 160.225 -0.188308 -0.655419 -0.731414
60.366 132.157 160.678 -0.188308 -0.655419 -0.731414
59.9886 132.489 160.477 -0.188308 -0.655419 -0.731414
60.6298 132.587 160.225 0.0525443 -0.733771 -0.677362
61.4878 132.586 160.292 0.0525443 -0.733771 -0.677362
61.2535 132.279 160.606 0.0525443 -0.733771 -0.677362
60.366 132.157 160.678 0.0475002 -0.738316 -0.67278
60.6298 132.587 160.225 0.0475002 -0.738316 -0.67278
61.2535 132.279 160.606 0.0475002 -0.738316 -0.67278
61.2535 132.279 160.606 0.607666 -0.745101 -0.274893
61.4878 132.586 160.292 0.607666 -0.745101 -0.274893
61.717 132.64 160.652 0.607666 -0.745101 -0.274893
59.6862 133.236 160.227 -0.633724 -0.342291 -0.693708
59.4697 132.854 160.613 -0.633724 -0.342291 -0.693708
59.1841 133.417 160.596 -0.633724 -0.342291 -0.693708
59.9886 132.489 160.477 -0.509493 -0.45171 -0.732376
59.4697 132.854 160.613 -0.509493 -0.45171 -0.732376
59.6862 133.236 160.227 -0.509493 -0.45171 -0.732376
59.9886 132.489 160.477 -0.280966 -0.405287 -0.869943
59.6862 133.236 160.227 -0.280966 -0.405287 -0.869943
60.6298 132.587 160.225 -0.280966 -0.405287 -0.869943
60.6298 132.587 160.225 -0.0190493 -0.0242294 -0.999525
59.6862 133.236 160.227 -0.0190493 -0.0242294 -0.999525
60.5126 133.694 160.2 -0.0190493 -0.0242294 -0.999525
61.4878 132.586 160.292 0.0775308 -0.0852655 -0.993337
60.6298 132.587 160.225 0.0775308 -0.0852655 -0.993337
61.4296 133.378 160.219 0.0775308 -0.0852655 -0.993337
61.4296 133.378 160.219 0.0137046 -0.0207643 -0.99969
60.6298 132.587 160.225 0.0137046 -0.0207643 -0.99969
60.5126 133.694 160.2 0.0137046 -0.0207643 -0.99969
61.8074 133.245 160.509 0.834759 -0.241978 -0.494595
61.717 132.64 160.652 0.834759 -0.241978 -0.494595
61.4878 132.586 160.292 0.834759 -0.241978 -0.494595
61.4296 133.378 160.219 0.601706 -0.0288126 -0.798197
61.8074 133.245 160.509 0.601706 -0.0288126 -0.798197
61.4878 132.586 160.292 0.601706 -0.0288126 -0.798197
58.2831 134.428 159.431 -0.890408 -0.446608 0.0878386
58.2138 134.619 159.703 -0.890408 -0.446608 0.0878386
58.1321 134.741 159.495 -0.890408 -0.446608 0.0878386
59.4445 134.344 160.199 -0.621065 -0.154747 -0.768331
59.6862 133.236 160.227 -0.621065 -0.154747 -0.768331
59.1841 133.417 160.596 -0.621065 -0.154747 -0.768331
59.4445 134.344 160.199 -0.564139 -0.186205 -0.80441
59.1841 133.417 160.596 -0.564139 -0.186205 -0.80441
58.9087 134.208 160.606 -0.564139 -0.186205 -0.80441
58.2138 134.619 159.703 0.497559 -0.644242 0.58085
58.2831 134.428 159.431 0.497559 -0.644242 0.58085
58.3963 134.609 159.536 0.497559 -0.644242 0.58085
59.9886 134.397 160.39 0.261582 0.4286 -0.864799
60.5126 133.694 160.2 0.261582 0.4286 -0.864799
59.4445 134.344 160.199 0.261582 0.4286 -0.864799
59.4445 134.344 160.199 -0.0165972 -0.0286546 -0.999452
60.5126 133.694 160.2 -0.0165972 -0.0286546 -0.999452
59.6862 133.236 160.227 -0.0165972 -0.0286546 -0.999452
60.5126 133.694 160.2 -0.201762 0.340976 -0.918165
61.061 134.618 160.423 -0.201762 0.340976 -0.918165
61.4836 134.403 160.25 -0.201762 0.340976 -0.918165
60.5126 133.694 160.2 0.0306408 0.028411 -0.999127
61.4836 134.403 160.25 0.0306408 0.028411 -0.999127
61.4296 133.378 160.219 0.0306408 0.028411 -0.999127
61.9529 134.185 160.643 0.612192 0.0179189 -0.790506
61.8074 133.245 160.509 0.612192 0.0179189 -0.790506
61.4296 133.378 160.219 0.612192 0.0179189 -0.790506
61.4836 134.403 160.25 0.638934 -0.010587 -0.769188
61.9529 134.185 160.643 0.638934 -0.010587 -0.769188
61.4296 133.378 160.219 0.638934 -0.010587 -0.769188
58.2138 134.619 159.703 -0.47865 -0.703993 0.524679
58.4585 134.894 160.295 -0.47865 -0.703993 0.524679
57.7765 135.346 160.28 -0.47865 -0.703993 0.524679
58.2138 134.619 159.703 -0.848473 -0.528728 0.023231
57.7765 135.346 160.28 -0.848473 -0.528728 0.023231
58.1321 134.741 159.495 -0.848473 -0.528728 0.023231
58.1321 134.741 159.495 -0.918479 -0.0283773 -0.39445
57.7765 135.346 160.28 -0.918479 -0.0283773 -0.39445
58.0993 135.558 159.513 -0.918479 -0.0283773 -0.39445
59.4445 134.344 160.199 -0.21057 -0.21189 -0.954339
58.4585 134.894 160.295 -0.21057 -0.21189 -0.954339
59.35 135.567 159.948 -0.21057 -0.21189 -0.954339
59.4445 134.344 160.199 -0.39352 -0.581908 -0.711706
58.9087 134.208 160.606 -0.39352 -0.581908 -0.711706
58.4585 134.894 160.295 -0.39352 -0.581908 -0.711706
59.35 135.567 159.948 0.461413 -0.80379 -0.375527
58.4585 134.894 160.295 0.461413 -0.80379 -0.375527
58.5307 135.289 159.537 0.461413 -0.80379 -0.375527
58.2138 134.619 159.703 0.245962 -0.914116 0.322327
58.3963 134.609 159.536 0.245962 -0.914116 0.322327
58.4585 134.894 160.295 0.245962 -0.914116 0.322327
58.5307 135.289 159.537 0.980989 -0.193913 -0.00765981
58.4585 134.894 160.295 0.980989 -0.193913 -0.00765981
58.3963 134.609 159.536 0.980989 -0.193913 -0.00765981
59.9664 135.153 160.405 0.328322 0.0285984 -0.944133
59.9886 134.397 160.39 0.328322 0.0285984 -0.944133
59.4445 134.344 160.199 0.328322 0.0285984 -0.944133
59.35 135.567 159.948 0.532243 -0.130335 -0.836499
59.9664 135.153 160.405 0.532243 -0.130335 -0.836499
59.4445 134.344 160.199 0.532243 -0.130335 -0.836499
61.3736 135.468 160.197 -0.414995 -0.0881351 -0.905545
61.4836 134.403 160.25 -0.414995 -0.0881351 -0.905545
61.061 134.618 160.423 -0.414995 -0.0881351 -0.905545
61.0423 135.351 160.418 -0.550325 -0.0195816 -0.834721
61.3736 135.468 160.197 -0.550325 -0.0195816 -0.834721
61.061 134.618 160.423 -0.550325 -0.0195816 -0.834721
61.9268 135.331 160.633 0.644059 0.00817435 -0.764933
61.9529 134.185 160.643 0.644059 0.00817435 -0.764933
61.4836 134.403 160.25 0.644059 0.00817435 -0.764933
61.3736 135.468 160.197 0.622916 0.0252578 -0.781881
61.9268 135.331 160.633 0.622916 0.0252578 -0.781881
61.4836 134.403 160.25 0.622916 0.0252578 -0.781881
58.0993 135.558 159.513 -0.925984 0.13634 -0.352087
57.7765 135.346 160.28 -0.925984 0.13634 -0.352087
58.1619 136.466 159.7 -0.925984 0.13634 -0.352087
57.7765 135.346 160.28 -0.955716 0.24326 -0.165624
57.9749 136.305 160.543 -0.955716 0.24326 -0.165624
58.1619 136.466 159.7 -0.955716 0.24326 -0.165624
59.35 135.567 159.948 0.445718 -0.104803 -0.889017
58.5791 136.189 159.489 0.445718 -0.104803 -0.889017
59.1457 136.644 159.719 0.445718 -0.104803 -0.889017
58.5307 135.289 159.537 0.466951 -0.0727514 -0.881285
58.5791 136.189 159.489 0.466951 -0.0727514 -0.881285
59.35 135.567 159.948 0.466951 -0.0727514 -0.881285
59.9872 136.491 159.504 -0.271641 -0.809169 -0.521016
60.4721 136.311 159.53 -0.271641 -0.809169 -0.521016
60.4852 135.89 160.176 -0.271641 -0.809169 -0.521016
59.9872 136.491 159.504 0.315704 -0.579748 -0.751148
60.4852 135.89 160.176 0.315704 -0.579748 -0.751148
59.35 135.567 159.948 0.315704 -0.579748 -0.751148
59.9872 136.491 159.504 -0.282793 -0.25082 -0.925806
59.35 135.567 159.948 -0.282793 -0.25082 -0.925806
59.1457 136.644 159.719 -0.282793 -0.25082 -0.925806
59.9664 135.153 160.405 0.300152 -0.469038 -0.830609
59.35 135.567 159.948 0.300152 -0.469038 -0.830609
60.4852 135.89 160.176 0.300152 -0.469038 -0.830609
60.8393 136.388 159.661 0.700893 -0.00856678 -0.713215
61.5208 136.433 160.33 0.700893 -0.00856678 -0.713215
61.3736 135.468 160.197 0.700893 -0.00856678 -0.713215
60.8393 136.388 159.661 -0.265605 -0.595905 -0.757859
61.3736 135.468 160.197 -0.265605 -0.595905 -0.757859
60.4852 135.89 160.176 -0.265605 -0.595905 -0.757859
60.8393 136.388 159.661 0.348636 -0.78234 -0.516136
60.4852 135.89 160.176 0.348636 -0.78234 -0.516136
60.4721 136.311 159.53 0.348636 -0.78234 -0.516136
60.4852 135.89 160.176 -0.275291 -0.615355 -0.738615
61.3736 135.468 160.197 -0.275291 -0.615355 -0.738615
61.0423 135.351 160.418 -0.275291 -0.615355 -0.738615
61.5208 136.433 160.33 0.621235 0.01328 -0.783512
61.9268 135.331 160.633 0.621235 0.01328 -0.783512
61.3736 135.468 160.197 0.621235 0.01328 -0.783512
58.5324 137.296 159.713 -0.816335 0.371546 -0.442211
58.4458 136.848 159.497 -0.816335 0.371546 -0.442211
58.1619 136.466 159.7 -0.816335 0.371546 -0.442211
58.5324 137.296 159.713 -0.866089 0.391658 -0.310635
58.1619 136.466 159.7 -0.866089 0.391658 -0.310635
58.2226 137.266 160.539 -0.866089 0.391658 -0.310635
58.2226 137.266 160.539 -0.955199 0.245668 -0.165053
58.1619 136.466 159.7 -0.955199 0.245668 -0.165053
57.9749 136.305 160.543 -0.955199 0.245668 -0.165053
58.4458 136.848 159.497 0.321701 0.0772058 -0.943688
59.1457 136.644 159.719 0.321701 0.0772058 -0.943688
58.5791 136.189 159.489 0.321701 0.0772058 -0.943688
58.4458 136.848 159.497 0.3734 0.343459 -0.861747
58.5324 137.296 159.713 0.3734 0.343459 -0.861747
59.1457 136.644 159.719 0.3734 0.343459 -0.861747
59.4056 137.111 159.395 -0.28919 -0.431402 -0.854553
59.1457 136.644 159.719 -0.28919 -0.431402 -0.854553
58.9507 137.339 159.434 -0.28919 -0.431402 -0.854553
58.9507 137.339 159.434 -0.464464 -0.444353 -0.766045
59.1457 136.644 159.719 -0.464464 -0.444353 -0.766045
58.5324 137.296 159.713 -0.464464 -0.444353 -0.766045
59.9872 136.491 159.504 -0.296602 -0.427039 -0.854204
59.1457 136.644 159.719 -0.296602 -0.427039 -0.854204
59.4056 137.111 159.395 -0.296602 -0.427039 -0.854204
61.5208 136.433 160.33 0.810563 0.3402 -0.47671
60.7691 137.198 159.598 0.810563 0.3402 -0.47671
61.1201 137.563 160.455 0.810563 0.3402 -0.47671
60.8393 136.388 159.661 0.700452 0.00506157 -0.713681
60.7691 137.198 159.598 0.700452 0.00506157 -0.713681
61.5208 136.433 160.33 0.700452 0.00506157 -0.713681
58.5324 137.296 159.713 -0.815616 0.501993 -0.287704
58.2226 137.266 160.539 -0.815616 0.501993 -0.287704
58.5758 137.739 160.364 -0.815616 0.501993 -0.287704
59.4419 137.732 159.657 -0.458906 0.682365 -0.569019
58.5758 137.739 160.364 -0.458906 0.682365 -0.569019
59.1116 138.325 160.634 -0.458906 0.682365 -0.569019
59.4419 137.732 159.657 -0.400024 0.769569 -0.49774
58.5324 137.296 159.713 -0.400024 0.769569 -0.49774
58.5758 137.739 160.364 -0.400024 0.769569 -0.49774
59.4419 137.732 159.657 -0.402602 0.776614 -0.484544
58.9507 137.339 159.434 -0.402602 0.776614 -0.484544
58.5324 137.296 159.713 -0.402602 0.776614 -0.484544
59.4419 137.732 159.657 0.0468985 0.71464 -0.697918
60.3288 138.192 160.187 0.0468985 0.71464 -0.697918
60.4651 137.652 159.643 0.0468985 0.71464 -0.697918
60.4651 137.652 159.643 0.643488 0.617652 -0.452139
60.3288 138.192 160.187 0.643488 0.617652 -0.452139
61.1201 137.563 160.455 0.643488 0.617652 -0.452139
60.7691 137.198 159.598 0.693354 0.515535 -0.503472
60.4651 137.652 159.643 0.693354 0.515535 -0.503472
61.1201 137.563 160.455 0.693354 0.515535 -0.503472
59.4419 137.732 159.657 -0.387828 0.724115 -0.570303
59.1116 138.325 160.634 -0.387828 0.724115 -0.570303
59.6233 138.439 160.431 -0.387828 0.724115 -0.570303
60.3288 138.192 160.187 0.0237551 0.735426 -0.677189
59.4419 137.732 159.657 0.0237551 0.735426 -0.677189
59.6233 138.439 160.431 0.0237551 0.735426 -0.677189
60.2845 138.421 160.621 0.152863 0.879995 -0.449714
60.3288 138.192 160.187 0.152863 0.879995 -0.449714
59.6233 138.439 160.431 0.152863 0.879995 -0.449714
61.1201 137.563 160.455 0.6534 0.694766 -0.300615
60.3288 138.192 160.187 0.6534 0.694766 -0.300615
60.2845 138.421 160.621 0.6534 0.694766 -0.300615
59.6235 132.37 161.025 -0.680852 -0.732392 -0.00649433
59.7446 132.255 161.37 -0.680852 -0.732392 -0.00649433
59.3142 132.655 161.349 -0.680852 -0.732392 -0.00649433
59.6235 132.37 161.025 -0.437324 -0.77353 -0.458693
59.9886 132.489 160.477 -0.437324 -0.77353 -0.458693
60.366 132.157 160.678 -0.437324 -0.77353 -0.458693
59.6235 132.37 161.025 -0.350684 -0.918072 -0.184839
60.366 132.157 160.678 -0.350684 -0.918072 -0.184839
59.7446 132.255 161.37 -0.350684 -0.918072 -0.184839
59.7446 132.255 161.37 -0.0105557 -0.991345 0.130859
60.366 132.157 160.678 -0.0105557 -0.991345 0.130859
60.5898 132.231 161.259 -0.0105557 -0.991345 0.130859
61.2535 132.279 160.606 0.141983 -0.987274 0.0716256
60.5898 132.231 161.259 0.141983 -0.987274 0.0716256
60.366 132.157 160.678 0.141983 -0.987274 0.0716256
59.4697 132.854 160.613 -0.798439 -0.517014 -0.308531
59.6235 132.37 161.025 -0.798439 -0.517014 -0.308531
59.3142 132.655 161.349 -0.798439 -0.517014 -0.308531
59.4697 132.854 160.613 -0.84772 -0.438923 -0.297854
59.3142 132.655 161.349 -0.84772 -0.438923 -0.297854
59.1841 133.417 160.596 -0.84772 -0.438923 -0.297854
59.1841 133.417 160.596 -0.94068 -0.305784 -0.147026
59.3142 132.655 161.349 -0.94068 -0.305784 -0.147026
58.9981 133.596 161.415 -0.94068 -0.305784 -0.147026
59.9886 132.489 160.477 -0.578061 -0.628076 -0.520928
59.6235 132.37 161.025 -0.578061 -0.628076 -0.520928
59.4697 132.854 160.613 -0.578061 -0.628076 -0.520928
61.2535 132.279 160.606 0.5197 -0.709541 0.475882
61.3227 132.865 161.405 0.5197 -0.709541 0.475882
60.5898 132.231 161.259 0.5197 -0.709541 0.475882
61.3227 132.865 161.405 0.508788 -0.714395 0.48039
61.2535 132.279 160.606 0.508788 -0.714395 0.48039
61.717 132.64 160.652 0.508788 -0.714395 0.48039
61.3227 132.865 161.405 0.692933 -0.505308 0.514304
61.717 132.64 160.652 0.692933 -0.505308 0.514304
61.8608 133.396 161.201 0.692933 -0.505308 0.514304
61.8608 133.396 161.201 0.986649 -0.157388 -0.0418768
61.717 132.64 160.652 0.986649 -0.157388 -0.0418768
61.8074 133.245 160.509 0.986649 -0.157388 -0.0418768
58.4708 134.325 161.104 -0.693419 -0.706864 -0.139689
58.4955 134.213 161.543 -0.693419 -0.706864 -0.139689
58.1154 134.652 161.209 -0.693419 -0.706864 -0.139689
58.4708 134.325 161.104 -0.782099 -0.613185 -0.111015
58.9981 133.596 161.415 -0.782099 -0.613185 -0.111015
58.4955 134.213 161.543 -0.782099 -0.613185 -0.111015
58.4708 134.325 161.104 -0.643339 -0.642844 -0.415772
58.9087 134.208 160.606 -0.643339 -0.642844 -0.415772
58.9981 133.596 161.415 -0.643339 -0.642844 -0.415772
58.9087 134.208 160.606 -0.935408 -0.323856 -0.141878
59.1841 133.417 160.596 -0.935408 -0.323856 -0.141878
58.9981 133.596 161.415 -0.935408 -0.323856 -0.141878
60.5126 133.694 160.2 0.360434 0.484066 -0.79735
59.9886 134.397 160.39 0.360434 0.484066 -0.79735
60.4443 134.521 160.671 0.360434 0.484066 -0.79735
60.5126 133.694 160.2 -0.394921 0.429991 -0.811878
60.4443 134.521 160.671 -0.394921 0.429991 -0.811878
61.061 134.618 160.423 -0.394921 0.429991 -0.811878
62.3366 134.18 161.475 0.803607 -0.463589 -0.373231
61.9529 134.185 160.643 0.803607 -0.463589 -0.373231
62.5053 134.67 161.23 0.803607 -0.463589 -0.373231
62.3366 134.18 161.475 0.841518 -0.373691 -0.390131
61.8608 133.396 161.201 0.841518 -0.373691 -0.390131
61.9529 134.185 160.643 0.841518 -0.373691 -0.390131
61.8608 133.396 161.201 0.988203 -0.146591 -0.0443456
61.8074 133.245 160.509 0.988203 -0.146591 -0.0443456
61.9529 134.185 160.643 0.988203 -0.146591 -0.0443456
62.3366 134.18 161.475 0.708447 -0.4956 -0.502477
62.5053 134.67 161.23 0.708447 -0.4956 -0.502477
62.6472 134.61 161.49 0.708447 -0.4956 -0.502477
58.4585 134.894 160.295 -0.680537 -0.60413 -0.414604
58.4708 134.325 161.104 -0.680537 -0.60413 -0.414604
58.1154 134.652 161.209 -0.680537 -0.60413 -0.414604
58.4585 134.894 160.295 -0.503007 -0.770333 -0.391881
58.1154 134.652 161.209 -0.503007 -0.770333 -0.391881
57.7765 135.346 160.28 -0.503007 -0.770333 -0.391881
57.7765 135.346 160.28 -0.936354 -0.339969 0.0875312
58.1154 134.652 161.209 -0.936354 -0.339969 0.0875312
57.8282 135.458 161.266 -0.936354 -0.339969 0.0875312
58.9087 134.208 160.606 -0.653251 -0.623918 -0.42894
58.4708 134.325 161.104 -0.653251 -0.623918 -0.42894
58.4585 134.894 160.295 -0.653251 -0.623918 -0.42894
60.4443 134.521 160.671 0.424618 -0.059522 -0.903414
59.9664 135.153 160.405 0.424618 -0.059522 -0.903414
60.5812 135.227 160.689 0.424618 -0.059522 -0.903414
59.9886 134.397 160.39 0.518774 0.0323633 -0.854299
59.9664 135.153 160.405 0.518774 0.0323633 -0.854299
60.4443 134.521 160.671 0.518774 0.0323633 -0.854299
61.061 134.618 160.423 -0.503378 -0.0185773 -0.863867
60.5812 135.227 160.689 -0.503378 -0.0185773 -0.863867
61.0423 135.351 160.418 -0.503378 -0.0185773 -0.863867
60.4443 134.521 160.671 -0.38534 0.0978092 -0.917576
60.5812 135.227 160.689 -0.38534 0.0978092 -0.917576
61.061 134.618 160.423 -0.38534 0.0978092 -0.917576
62.5053 134.67 161.23 0.771407 0.109005 -0.626937
61.9268 135.331 160.633 0.771407 0.109005 -0.626937
62.451 135.429 161.295 0.771407 0.109005 -0.626937
61.9529 134.185 160.643 0.723889 0.0106334 -0.689834
61.9268 135.331 160.633 0.723889 0.0106334 -0.689834
62.5053 134.67 161.23 0.723889 0.0106334 -0.689834
62.6657 135.192 161.455 0.870444 -0.056425 -0.489023
62.6472 134.61 161.49 0.870444 -0.056425 -0.489023
62.5053 134.67 161.23 0.870444 -0.056425 -0.489023
62.451 135.429 161.295 0.670322 0.110943 -0.733731
62.6657 135.192 161.455 0.670322 0.110943 -0.733731
62.5053 134.67 161.23 0.670322 0.110943 -0.733731
57.7765 135.346 160.28 -0.980409 0.194765 0.0294024
57.8282 135.458 161.266 -0.980409 0.194765 0.0294024
57.9749 136.305 160.543 -0.980409 0.194765 0.0294024
57.8282 135.458 161.266 -0.951207 0.278275 0.133298
58.123 136.452 161.294 -0.951207 0.278275 0.133298
57.9749 136.305 160.543 -0.951207 0.278275 0.133298
59.9664 135.153 160.405 0.40929 -0.520573 -0.749323
60.4852 135.89 160.176 0.40929 -0.520573 -0.749323
60.5812 135.227 160.689 0.40929 -0.520573 -0.749323
61.0423 135.351 160.418 -0.271924 -0.613227 -0.741627
60.5812 135.227 160.689 -0.271924 -0.613227 -0.741627
60.4852 135.89 160.176 -0.271924 -0.613227 -0.741627
62.451 135.429 161.295 0.752673 0.617036 -0.229674
61.6768 136.427 161.439 0.752673 0.617036 -0.229674
62.4347 135.553 161.576 0.752673 0.617036 -0.229674
62.451 135.429 161.295 0.610253 0.555124 -0.56518
61.9268 135.331 160.633 0.610253 0.555124 -0.56518
61.6768 136.427 161.439 0.610253 0.555124 -0.56518
61.9268 135.331 160.633 0.94141 0.310916 -0.130684
61.5208 136.433 160.33 0.94141 0.310916 -0.130684
61.6768 136.427 161.439 0.94141 0.310916 -0.130684
62.6657 135.192 161.455 0.791184 0.574849 -0.20875
62.451 135.429 161.295 0.791184 0.574849 -0.20875
62.4347 135.553 161.576 0.791184 0.574849 -0.20875
57.9749 136.305 160.543 -0.958505 0.247949 0.140677
58.123 136.452 161.294 -0.958505 0.247949 0.140677
58.2226 137.266 160.539 -0.958505 0.247949 0.140677
58.123 136.452 161.294 -0.988611 0.147723 0.0287413
58.2537 137.311 161.376 -0.988611 0.147723 0.0287413
58.2226 137.266 160.539 -0.988611 0.147723 0.0287413
61.1201 137.563 160.455 0.709509 0.626712 0.322225
60.4294 137.807 161.502 0.709509 0.626712 0.322225
61.6768 136.427 161.439 0.709509 0.626712 0.322225
61.1201 137.563 160.455 0.93008 0.343998 -0.128906
61.6768 136.427 161.439 0.93008 0.343998 -0.128906
61.5208 136.433 160.33 0.93008 0.343998 -0.128906
58.2226 137.266 160.539 -0.912766 0.408314 0.0117164
58.2537 137.311 161.376 -0.912766 0.408314 0.0117164
58.5667 138.011 161.382 -0.912766 0.408314 0.0117164
58.5758 137.739 160.364 -0.818535 0.553202 -0.154813
58.2226 137.266 160.539 -0.818535 0.553202 -0.154813
58.5667 138.011 161.382 -0.818535 0.553202 -0.154813
58.5667 138.011 161.382 -0.676924 0.70968 -0.195261
59.1116 138.325 160.634 -0.676924 0.70968 -0.195261
58.5758 137.739 160.364 -0.676924 0.70968 -0.195261
58.9281 138.426 161.502 -0.701239 0.675751 -0.227211
59.1116 138.325 160.634 -0.701239 0.675751 -0.227211
58.5667 138.011 161.382 -0.701239 0.675751 -0.227211
60.4826 138.249 160.792 0.566658 0.67984 0.465528
59.8609 138.415 161.306 0.566658 0.67984 0.465528
60.4294 137.807 161.502 0.566658 0.67984 0.465528
61.1201 137.563 160.455 0.762893 0.521731 0.381826
60.4826 138.249 160.792 0.762893 0.521731 0.381826
60.4294 137.807 161.502 0.762893 0.521731 0.381826
59.1116 138.325 160.634 -0.305895 0.936023 -0.174037
58.9281 138.426 161.502 -0.305895 0.936023 -0.174037
59.4689 138.549 161.215 -0.305895 0.936023 -0.174037
59.6233 138.439 160.431 -0.284279 0.939958 -0.188848
59.1116 138.325 160.634 -0.284279 0.939958 -0.188848
59.4689 138.549 161.215 -0.284279 0.939958 -0.188848
59.8609 138.415 161.306 0.467303 0.833154 0.295774
60.4826 138.249 160.792 0.467303 0.833154 0.295774
60.2845 138.421 160.621 0.467303 0.833154 0.295774
59.8609 138.415 161.306 0.280872 0.942429 0.181491
60.2845 138.421 160.621 0.280872 0.942429 0.181491
59.4689 138.549 161.215 0.280872 0.942429 0.181491
59.4689 138.549 161.215 0.0632029 0.989825 -0.127483
60.2845 138.421 160.621 0.0632029 0.989825 -0.127483
59.6233 138.439 160.431 0.0632029 0.989825 -0.127483
61.1201 137.563 160.455 0.702092 0.704367 -0.104569
60.2845 138.421 160.621 0.702092 0.704367 -0.104569
60.4826 138.249 160.792 0.702092 0.704367 -0.104569
59.7446 132.255 161.37 -0.661024 -0.695903 0.280654
59.5573 132.596 161.774 -0.661024 -0.695903 0.280654
59.3142 132.655 161.349 -0.661024 -0.695903 0.280654
59.7446 132.255 161.37 0.0508131 -0.824505 0.563569
60.5898 132.231 161.259 0.0508131 -0.824505 0.563569
60.3238 132.563 161.769 0.0508131 -0.824505 0.563569
59.5573 132.596 161.774 -0.0283735 -0.770456 0.636862
59.7446 132.255 161.37 -0.0283735 -0.770456 0.636862
60.3238 132.563 161.769 -0.0283735 -0.770456 0.636862
59.5573 132.596 161.774 -0.39846 -0.505365 0.7654
59.7447 133.445 162.432 -0.39846 -0.505365 0.7654
59.3369 133.27 162.105 -0.39846 -0.505365 0.7654
59.5573 132.596 161.774 -0.799307 -0.45405 0.393634
59.3369 133.27 162.105 -0.799307 -0.45405 0.393634
59.3142 132.655 161.349 -0.799307 -0.45405 0.393634
59.3142 132.655 161.349 -0.900904 -0.322929 0.28998
59.3369 133.27 162.105 -0.900904 -0.322929 0.28998
58.9981 133.596 161.415 -0.900904 -0.322929 0.28998
60.3238 132.563 161.769 -0.0204378 -0.609692 0.792375
59.7447 133.445 162.432 -0.0204378 -0.609692 0.792375
59.5573 132.596 161.774 -0.0204378 -0.609692 0.792375
60.6438 133.199 162.241 0.00737604 -0.598169 0.801336
59.7447 133.445 162.432 0.00737604 -0.598169 0.801336
60.3238 132.563 161.769 0.00737604 -0.598169 0.801336
61.5264 133.476 161.826 0.479304 -0.654813 0.58437
60.9664 133.577 162.4 0.479304 -0.654813 0.58437
60.6438 133.199 162.241 0.479304 -0.654813 0.58437
61.3227 132.865 161.405 0.485992 -0.600943 0.63457
61.5264 133.476 161.826 0.485992 -0.600943 0.63457
60.6438 133.199 162.241 0.485992 -0.600943 0.63457
61.3227 132.865 161.405 0.42496 -0.667411 0.611532
60.6438 133.199 162.241 0.42496 -0.667411 0.611532
60.3238 132.563 161.769 0.42496 -0.667411 0.611532
61.3227 132.865 161.405 0.426691 -0.639581 0.63943
60.3238 132.563 161.769 0.426691 -0.639581 0.63943
60.5898 132.231 161.259 0.426691 -0.639581 0.63943
61.3227 132.865 161.405 0.70791 -0.546061 0.447974
61.8608 133.396 161.201 0.70791 -0.546061 0.447974
61.5264 133.476 161.826 0.70791 -0.546061 0.447974
58.4955 134.213 161.543 -0.810364 -0.337796 0.478752
58.4127 134.696 161.744 -0.810364 -0.337796 0.478752
58.1154 134.652 161.209 -0.810364 -0.337796 0.478752
58.4955 134.213 161.543 -0.691719 -0.374955 0.617199
59.1347 134.206 162.255 -0.691719 -0.374955 0.617199
58.4127 134.696 161.744 -0.691719 -0.374955 0.617199
58.4955 134.213 161.543 -0.599247 -0.598277 0.531947
58.9981 133.596 161.415 -0.599247 -0.598277 0.531947
59.1347 134.206 162.255 -0.599247 -0.598277 0.531947
58.9981 133.596 161.415 -0.910619 -0.249634 0.329326
59.3369 133.27 162.105 -0.910619 -0.249634 0.329326
59.1347 134.206 162.255 -0.910619 -0.249634 0.329326
61.5264 133.476 161.826 0.553112 -0.538393 0.635767
61.7084 134.134 162.226 0.553112 -0.538393 0.635767
60.9664 133.577 162.4 0.553112 -0.538393 0.635767
62.4141 134.48 161.741 0.635656 -0.299265 0.711605
61.849 134.661 162.322 0.635656 -0.299265 0.711605
61.7084 134.134 162.226 0.635656 -0.299265 0.711605
62.3366 134.18 161.475 0.631819 -0.598669 0.492342
62.4141 134.48 161.741 0.631819 -0.598669 0.492342
61.7084 134.134 162.226 0.631819 -0.598669 0.492342
62.3366 134.18 161.475 0.674672 -0.510004 0.533586
61.7084 134.134 162.226 0.674672 -0.510004 0.533586
61.5264 133.476 161.826 0.674672 -0.510004 0.533586
62.3366 134.18 161.475 0.689981 -0.5733 0.441874
61.5264 133.476 161.826 0.689981 -0.5733 0.441874
61.8608 133.396 161.201 0.689981 -0.5733 0.441874
62.3366 134.18 161.475 0.735985 -0.545128 0.40145
62.6472 134.61 161.49 0.735985 -0.545128 0.40145
62.4141 134.48 161.741 0.735985 -0.545128 0.40145
58.4127 134.696 161.744 -0.648322 -0.0200518 0.761102
58.4125 135.648 161.769 -0.648322 -0.0200518 0.761102
57.8282 135.458 161.266 -0.648322 -0.0200518 0.761102
58.1154 134.652 161.209 -0.815006 -0.324279 0.480218
58.4127 134.696 161.744 -0.815006 -0.324279 0.480218
57.8282 135.458 161.266 -0.815006 -0.324279 0.480218
59.1097 135.239 162.416 -0.631797 -0.134107 0.763445
58.4127 134.696 161.744 -0.631797 -0.134107 0.763445
59.1347 134.206 162.255 -0.631797 -0.134107 0.763445
58.4125 135.648 161.769 -0.68621 -0.0191691 0.727151
58.4127 134.696 161.744 -0.68621 -0.0191691 0.727151
59.1097 135.239 162.416 -0.68621 -0.0191691 0.727151
62.4821 135.141 161.717 0.708465 -0.0471131 0.704172
61.849 134.661 162.322 0.708465 -0.0471131 0.704172
62.4141 134.48 161.741 0.708465 -0.0471131 0.704172
61.8256 135.594 162.259 0.662332 0.0666743 0.746238
61.849 134.661 162.322 0.662332 0.0666743 0.746238
62.4821 135.141 161.717 0.662332 0.0666743 0.746238
62.6472 134.61 161.49 0.817941 0.00785709 0.575249
62.6657 135.192 161.455 0.817941 0.00785709 0.575249
62.4821 135.141 161.717 0.817941 0.00785709 0.575249
62.4141 134.48 161.741 0.746033 -0.0524536 0.66384
62.6472 134.61 161.49 0.746033 -0.0524536 0.66384
62.4821 135.141 161.717 0.746033 -0.0524536 0.66384
58.4125 135.648 161.769 -0.816041 0.046408 0.576128
58.4674 136.654 161.765 -0.816041 0.046408 0.576128
58.123 136.452 161.294 -0.816041 0.046408 0.576128
57.8282 135.458 161.266 -0.674589 0.179893 0.715939
58.4125 135.648 161.769 -0.674589 0.179893 0.715939
58.123 136.452 161.294 -0.674589 0.179893 0.715939
59.1097 136.273 162.429 -0.683143 -0.00908701 0.730228
58.4125 135.648 161.769 -0.683143 -0.00908701 0.730228
59.1097 135.239 162.416 -0.683143 -0.00908701 0.730228
58.4674 136.654 161.765 -0.705944 0.0408274 0.70709
58.4125 135.648 161.769 -0.705944 0.0408274 0.70709
59.1097 136.273 162.429 -0.705944 0.0408274 0.70709
62.4347 135.553 161.576 0.721518 0.296566 0.625667
61.8256 135.594 162.259 0.721518 0.296566 0.625667
62.4821 135.141 161.717 0.721518 0.296566 0.625667
62.4347 135.553 161.576 0.609939 0.608643 0.507472
61.6768 136.427 161.439 0.609939 0.608643 0.507472
61.8256 135.594 162.259 0.609939 0.608643 0.507472
61.6768 136.427 161.439 0.896834 0.381206 0.224434
61.3904 136.545 162.384 0.896834 0.381206 0.224434
61.8256 135.594 162.259 0.896834 0.381206 0.224434
62.6657 135.192 161.455 0.757192 0.287328 0.586603
62.4347 135.553 161.576 0.757192 0.287328 0.586603
62.4821 135.141 161.717 0.757192 0.287328 0.586603
58.4674 136.654 161.765 -0.83475 0.0532704 0.548046
58.4642 137.425 161.686 -0.83475 0.0532704 0.548046
58.2537 137.311 161.376 -0.83475 0.0532704 0.548046
58.123 136.452 161.294 -0.819648 0.0703212 0.568535
58.4674 136.654 161.765 -0.819648 0.0703212 0.568535
58.2537 137.311 161.376 -0.819648 0.0703212 0.568535
59.0978 137.342 162.323 -0.698788 0.0624542 0.712597
58.4674 136.654 161.765 -0.698788 0.0624542 0.712597
59.1097 136.273 162.429 -0.698788 0.0624542 0.712597
58.4642 137.425 161.686 -0.703035 0.0703466 0.707667
58.4674 136.654 161.765 -0.703035 0.0703466 0.707667
59.0978 137.342 162.323 -0.703035 0.0703466 0.707667
61.6768 136.427 161.439 0.693864 0.709727 0.121822
60.5229 137.403 162.325 0.693864 0.709727 0.121822
61.3904 136.545 162.384 0.693864 0.709727 0.121822
60.4294 137.807 161.502 0.726432 0.646021 0.234421
60.5229 137.403 162.325 0.726432 0.646021 0.234421
61.6768 136.427 161.439 0.726432 0.646021 0.234421
58.2537 137.311 161.376 -0.826375 0.366154 0.427827
58.4642 137.425 161.686 -0.826375 0.366154 0.427827
58.5667 138.011 161.382 -0.826375 0.366154 0.427827
58.9281 138.426 161.502 -0.362066 0.689644 0.627136
59.4543 138.067 162.2 -0.362066 0.689644 0.627136
59.5078 138.393 161.873 -0.362066 0.689644 0.627136
58.5667 138.011 161.382 -0.643471 0.365519 0.672563
59.4543 138.067 162.2 -0.643471 0.365519 0.672563
58.9281 138.426 161.502 -0.643471 0.365519 0.672563
58.5667 138.011 161.382 -0.629503 0.420073 0.653654
59.0978 137.342 162.323 -0.629503 0.420073 0.653654
59.4543 138.067 162.2 -0.629503 0.420073 0.653654
58.5667 138.011 161.382 -0.604817 0.447159 0.658973
58.4642 137.425 161.686 -0.604817 0.447159 0.658973
59.0978 137.342 162.323 -0.604817 0.447159 0.658973
59.5078 138.393 161.873 0.601057 0.691228 0.401166
60.4294 137.807 161.502 0.601057 0.691228 0.401166
59.8609 138.415 161.306 0.601057 0.691228 0.401166
59.5078 138.393 161.873 0.583427 0.525933 0.618875
59.4543 138.067 162.2 0.583427 0.525933 0.618875
60.4294 137.807 161.502 0.583427 0.525933 0.618875
59.4543 138.067 162.2 0.465563 0.814314 0.346618
60.5229 137.403 162.325 0.465563 0.814314 0.346618
60.4294 137.807 161.502 0.465563 0.814314 0.346618
58.9281 138.426 161.502 -0.0956328 0.967162 0.235484
59.5078 138.393 161.873 -0.0956328 0.967162 0.235484
59.4689 138.549 161.215 -0.0956328 0.967162 0.235484
59.8609 138.415 161.306 0.273852 0.93924 0.206964
59.4689 138.549 161.215 0.273852 0.93924 0.206964
59.5078 138.393 161.873 0.273852 0.93924 0.206964
59.7447 133.445 162.432 -0.0257303 -0.67179 0.740295
60.6438 133.199 162.241 -0.0257303 -0.67179 0.740295
60.562 133.6 162.602 -0.0257303 -0.67179 0.740295
60.6438 133.199 162.241 0.332675 -0.592626 0.733568
60.9664 133.577 162.4 0.332675 -0.592626 0.733568
60.562 133.6 162.602 0.332675 -0.592626 0.733568
59.7447 133.445 162.432 -0.620615 -0.331952 0.710384
59.6194 134.591 162.859 -0.620615 -0.331952 0.710384
59.1347 134.206 162.255 -0.620615 -0.331952 0.710384
59.3369 133.27 162.105 -0.540702 -0.246119 0.804405
59.7447 133.445 162.432 -0.540702 -0.246119 0.804405
59.1347 134.206 162.255 -0.540702 -0.246119 0.804405
60.562 133.6 162.602 -0.117241 -0.382977 0.916288
60.506 134.393 162.926 -0.117241 -0.382977 0.916288
59.7447 133.445 162.432 -0.117241 -0.382977 0.916288
60.506 134.393 162.926 -0.150317 -0.358972 0.921165
59.6194 134.591 162.859 -0.150317 -0.358972 0.921165
59.7447 133.445 162.432 -0.150317 -0.358972 0.921165
60.9664 133.577 162.4 0.514106 -0.458653 0.724798
61.7084 134.134 162.226 0.514106 -0.458653 0.724798
61.3104 134.284 162.603 0.514106 -0.458653 0.724798
60.9664 133.577 162.4 0.385353 -0.423343 0.819929
61.3104 134.284 162.603 0.385353 -0.423343 0.819929
60.562 133.6 162.602 0.385353 -0.423343 0.819929
60.562 133.6 162.602 0.309994 -0.341028 0.887471
61.3104 134.284 162.603 0.309994 -0.341028 0.887471
60.506 134.393 162.926 0.309994 -0.341028 0.887471
61.7084 134.134 162.226 0.596263 -0.295105 0.746582
61.849 134.661 162.322 0.596263 -0.295105 0.746582
61.3104 134.284 162.603 0.596263 -0.295105 0.746582
59.6194 134.591 162.859 -0.704032 -0.0711361 0.706597
59.5998 135.627 162.943 -0.704032 -0.0711361 0.706597
59.1097 135.239 162.416 -0.704032 -0.0711361 0.706597
59.1347 134.206 162.255 -0.734438 -0.1217 0.667675
59.6194 134.591 162.859 -0.734438 -0.1217 0.667675
59.1097 135.239 162.416 -0.734438 -0.1217 0.667675
60.506 134.393 162.926 -0.105784 -0.1379 0.984781
60.4809 135.406 163.065 -0.105784 -0.1379 0.984781
59.6194 134.591 162.859 -0.105784 -0.1379 0.984781
60.4809 135.406 163.065 -0.157099 -0.0834369 0.984052
59.5998 135.627 162.943 -0.157099 -0.0834369 0.984052
59.6194 134.591 162.859 -0.157099 -0.0834369 0.984052
61.3104 134.284 162.603 0.357628 -0.108361 0.927556
61.3696 135.206 162.688 0.357628 -0.108361 0.927556
60.506 134.393 162.926 0.357628 -0.108361 0.927556
61.3696 135.206 162.688 0.365364 -0.117799 0.923381
60.4809 135.406 163.065 0.365364 -0.117799 0.923381
60.506 134.393 162.926 0.365364 -0.117799 0.923381
61.849 134.661 162.322 0.652736 0.066995 0.754617
61.8256 135.594 162.259 0.652736 0.066995 0.754617
61.3696 135.206 162.688 0.652736 0.066995 0.754617
61.3104 134.284 162.603 0.52015 -0.111364 0.846784
61.849 134.661 162.322 0.52015 -0.111364 0.846784
61.3696 135.206 162.688 0.52015 -0.111364 0.846784
59.5998 135.627 162.943 -0.714114 0.0156938 0.699853
59.6031 136.625 162.924 -0.714114 0.0156938 0.699853
59.1097 136.273 162.429 -0.714114 0.0156938 0.699853
59.1097 135.239 162.416 -0.729395 -0.00850564 0.68404
59.5998 135.627 162.943 -0.729395 -0.00850564 0.68404
59.1097 136.273 162.429 -0.729395 -0.00850564 0.68404
60.4809 135.406 163.065 -0.147211 -0.0417806 0.988222
60.3647 136.302 163.086 -0.147211 -0.0417806 0.988222
59.5998 135.627 162.943 -0.147211 -0.0417806 0.988222
60.3647 136.302 163.086 -0.199483 0.0192827 0.979712
59.6031 136.625 162.924 -0.199483 0.0192827 0.979712
59.5998 135.627 162.943 -0.199483 0.0192827 0.979712
61.3696 135.206 162.688 0.396897 0.0344722 0.917216
61.2397 136.202 162.707 0.396897 0.0344722 0.917216
60.4809 135.406 163.065 0.396897 0.0344722 0.917216
61.2397 136.202 162.707 0.400084 0.0308685 0.915958
60.3647 136.302 163.086 0.400084 0.0308685 0.915958
60.4809 135.406 163.065 0.400084 0.0308685 0.915958
61.8256 135.594 162.259 0.74124 0.258281 0.619559
61.3904 136.545 162.384 0.74124 0.258281 0.619559
61.2397 136.202 162.707 0.74124 0.258281 0.619559
61.3696 135.206 162.688 0.650849 0.0706466 0.755913
61.8256 135.594 162.259 0.650849 0.0706466 0.755913
61.2397 136.202 162.707 0.650849 0.0706466 0.755913
59.6031 136.625 162.924 -0.646491 0.168057 0.744182
59.6697 137.419 162.803 -0.646491 0.168057 0.744182
59.0978 137.342 162.323 -0.646491 0.168057 0.744182
59.1097 136.273 162.429 -0.728113 0.0592 0.682896
59.6031 136.625 162.924 -0.728113 0.0592 0.682896
59.0978 137.342 162.323 -0.728113 0.0592 0.682896
60.3647 136.302 163.086 -0.00635494 0.435138 0.900341
60.4921 137.047 162.726 -0.00635494 0.435138 0.900341
59.6031 136.625 162.924 -0.00635494 0.435138 0.900341
60.4921 137.047 162.726 0.152762 0.137069 0.978711
59.6697 137.419 162.803 0.152762 0.137069 0.978711
59.6031 136.625 162.924 0.152762 0.137069 0.978711
61.3904 136.545 162.384 0.555226 0.600338 0.575602
60.5229 137.403 162.325 0.555226 0.600338 0.575602
60.4921 137.047 162.726 0.555226 0.600338 0.575602
61.3904 136.545 162.384 0.526486 0.449066 0.721909
60.4921 137.047 162.726 0.526486 0.449066 0.721909
61.2397 136.202 162.707 0.526486 0.449066 0.721909
61.2397 136.202 162.707 0.406064 0.339624 0.848391
60.4921 137.047 162.726 0.406064 0.339624 0.848391
60.3647 136.302 163.086 0.406064 0.339624 0.848391
59.0978 137.342 162.323 -0.616559 0.416196 0.668308
59.6697 137.419 162.803 -0.616559 0.416196 0.668308
59.4543 138.067 162.2 -0.616559 0.416196 0.668308
60.5229 137.403 162.325 0.360346 0.696539 0.620471
59.4543 138.067 162.2 0.360346 0.696539 0.620471
59.6697 137.419 162.803 0.360346 0.696539 0.620471
60.4921 137.047 162.726 0.367132 0.681448 0.633121
60.5229 137.403 162.325 0.367132 0.681448 0.633121
59.6697 137.419 162.803 0.367132 0.681448 0.633121
3 0 1 2
3 3 4 5
3 6 7 8
3 9 10 11
3 12 13 14
3 15 16 17
3 18 19 20
3 21 22 23
3 24 25 26
3 27 28 29
3 30 31 32
3 33 34 35
3 36 37 38
3 39 40 41
3 42 43 44
3 45 46 47
3 48 49 50
3 51 52 53
3 54 55 56
3 57 58 59
3 60 61 62
3 63 64 65
3 66 67 68
3 69 70 71
3 72 73 74
3 75 76 77
3 78 79 80
3 81 82 83
3 84 85 86
3 87 88 89
3 90 91 92
3 93 94 95
3 96 97 98
3 99 100 101
3 102 103 104
3 105 106 107
3 108 109 110
3 111 112 113
3 114 115 116
3 117 118 119
3 120 121 122
3 123 124 125
3 126 127 128
3 129 130 131
3 132 133 134
3 135 136 137
3 138 139 140
3 141 142 143
3 144 145 146
3 147 148 149
3 150 151 152
3 153 154 155
3 156 157 158
3 159 160 161
3 162 163 164
3 165 166 167
3 168 169 170
3 171 172 173
3 174 175 176
3 177 178 179
3 180 181 182
3 183 184 185
3 186 187 188
3 189 190 191
3 192 193 194
3 195 196 197
3 198 199 200
3 201 202 203
3 204 205 206
3 207 208 209
3 210 211 212
3 213 214 215
3 216 217 218
3 219 220 221
3 222 223 224
3 225 226 227
3 228 229 230
3 231 232 233
3 234 235 236
3 237 238 239
3 240 241 242
3 243 244 245
3 246 247 248
3 249 250 251
3 252 253 254
3 255 256 257
3 258 259 260
3 261 262 263
3 264 265 266
3 267 268 269
3 270 271 272
3 273 274 275
3 276 277 278
3 279 280 281
3 282 283 284
3 285 286 287
3 288 289 290
3 291 292 293
3 294 295 296
3 297 298 299
3 300 301 302
3 303 304 305
3 306 307 308
3 309 310 311
3 312 313 314
3 315 316 317
3 318 319 320
3 321 322 323
3 324 325 326
3 327 328 329
3 330 331 332
3 333 334 335
3 336 337 338
3 339 340 341
3 342 343 344
3 345 346 347
3 348 349 350
3 351 352 353
3 354 355 356
3 357 358 359
3 360 361 362
3 363 364 365
3 366 367 368
3 369 370 371
3 372 373 374
3 375 376 377
3 378 379 380
3 381 382 383
3 384 385 386
3 387 388 389
3 390 391 392
3 393 394 395
3 396 397 398
3 399 400 401
3 402 403 404
3 405 406 407
3 408 409 410
3 411 412 413
3 414 415 416
3 417 418 419
3 420 421 422
3 423 424 425
3 426 427 428
3 429 430 431
3 432 433 434
3 435 436 437
3 438 439 440
3 441 442 443
3 444 445 446
3 447 448 449
3 450 451 452
3 453 454 455
3 456 457 458
3 459 460 461
3 462 463 464
3 465 466 467
3 468 469 470
3 471 472 473
3 474 475 476
3 477 478 479
3 480 481 482
3 483 484 485
3 486 487 488
3 489 490 491
3 492 493 494
3 495 496 497
3 498 499 500
3 501 502 503
3 504 505 506
3 507 508 509
3 510 511 512
3 513 514 515
3 516 517 518
3 519 520 521
3 522 523 524
3 525 526 527
3 528 529 530
3 531 532 533
3 534 535 536
3 537 538 539
3 540 541 542
3 543 544 545
3 546 547 548
3 549 550 551
3 552 553 554
3 555 556 557
3 558 559 560
3 561 562 563
3 564 565 566
3 567 568 569
3 570 571 572
3 573 574 575
3 576 577 578
3 579 580 581
3 582 583 584
3 585 586 587
3 588 589 590
3 591 592 593
3 594 595 596
3 597 598 599
3 600 601 602
3 603 604 605
3 606 607 608
3 609 610 611
3 612 613 614
3 615 616 617
3 618 619 620
3 621 622 623
3 624 625 626
3 627 628 629
3 630 631 632
3 633 634 635
3 636 637 638
3 639 640 641
3 642 643 644
3 645 646 647
3 648 649 650
3 651 652 653
3 654 655 656
3 657 658 659
3 660 661 662
3 663 664 665
3 666 667 668
3 669 670 671
3 672 673 674
3 675 676 677
3 678 679 680
3 681 682 683
3 684 685 686
3 687 688 689
3 690 691 692
3 693 694 695
3 696 697 698
3 699 700 701
3 702 703 704
3 705 706 707
3 708 709 710
3 711 712 713
3 714 715 716
3 717 718 719
3 720 721 722
3 723 724 725
3 726 727 728
3 729 730 731
