ply
format ascii 1.0
element vertex 132
property float x
property float y
property float z
property float nx
property float ny
property float nz
element face 44
property list uint uint vertex_indices
end_header
78.1226 115.735 190.958 0.123408 -0.446538 -0.886213
77.8374 115.593 190.99 0.123408 -0.446538 -0.886213
77.7532 115.931 190.808 0.123408 -0.446538 -0.886213
78.0715 116.504 191.059 0.437671 0.145122 -0.887347
78.1226 115.735 190.958 0.437671 0.145122 -0.887347
77.7532 115.931 190.808 0.437671 0.145122 -0.887347
77.5521 116.543 190.896 0.306225 0.233629 -0.922846
78.0715 116.504 191.059 0.306225 0.233629 -0.922846
77.7532 115.931 190.808 0.306225 0.233629 -0.922846
77.2536 115.767 191.17 -0.686674 -0.718994 -0.107356
77.3704 115.573 191.724 -0.686674 -0.718994 -0.107356
77.0133 115.922 191.669 -0.686674 -0.718994 -0.107356
77.2536 115.767 191.17 -0.388492 -0.510186 -0.767323
77.7532 115.931 190.808 -0.388492 -0.510186 -0.767323
77.8374 115.593 190.99 -0.388492 -0.510186 -0.767323
77.2536 115.767 191.17 -0.345357 -0.90596 -0.244877
77.8374 115.593 190.99 -0.345357 -0.90596 -0.244877
77.3704 115.573 191.724 -0.345357 -0.90596 -0.244877
77.3704 115.573 191.724 -0.290321 -0.933459 -0.210637
77.8374 115.593 190.99 -0.290321 -0.933459 -0.210637
78.0437 115.399 191.567 -0.290321 -0.933459 -0.210637
78.0437 115.399 191.567 0.368068 -0.833506 -0.41206
77.8374 115.593 190.99 0.368068 -0.833506 -0.41206
78.1226 115.735 190.958 0.368068 -0.833506 -0.41206
78.5116 115.814 191.682 0.67404 -0.680262 -0.287947
78.0437 115.399 191.567 0.67404 -0.680262 -0.287947
78.1226 115.735 190.958 0.67404 -0.680262 -0.287947
77.1579 116.405 191.08 -0.906558 -0.188916 -0.377444
77.2536 115.767 191.17 -0.906558 -0.188916 -0.377444
77.0133 115.922 191.669 -0.906558 -0.188916 -0.377444
76.9391 116.53 191.683 -0.94158 -0.107421 -0.319199
77.1579 116.405 191.08 -0.94158 -0.107421 -0.319199
77.0133 115.922 191.669 -0.94158 -0.107421 -0.319199
77.7532 115.931 190.808 -0.420482 -0.00715846 -0.907273
77.1579 116.405 191.08 -0.420482 -0.00715846 -0.907273
77.5521 116.543 190.896 -0.420482 -0.00715846 -0.907273
77.2536 115.767 191.17 -0.53231 -0.195427 -0.823684
77.1579 116.405 191.08 -0.53231 -0.195427 -0.823684
77.7532 115.931 190.808 -0.53231 -0.195427 -0.823684
78.1226 115.735 190.958 0.868828 0.120496 -0.480227
78.0715 116.504 191.059 0.868828 0.120496 -0.480227
78.5116 115.814 191.682 0.868828 0.120496 -0.480227
78.5116 115.814 191.682 0.783829 -0.0583386 -0.61823
78.0715 116.504 191.059 0.783829 -0.0583386 -0.61823
78.6645 116.505 191.81 0.783829 -0.0583386 -0.61823
77.1579 116.405 191.08 -0.628101 0.684577 -0.369922
76.9391 116.53 191.683 -0.628101 0.684577 -0.369922
77.3527 116.875 191.62 -0.628101 0.684577 -0.369922
77.5521 116.543 190.896 -0.479534 0.739927 -0.471758
77.1579 116.405 191.08 -0.479534 0.739927 -0.471758
77.3527 116.875 191.62 -0.479534 0.739927 -0.471758
77.5521 116.543 190.896 0.184197 0.911562 -0.367595
77.3527 116.875 191.62 0.184197 0.911562 -0.367595
78.0715 116.504 191.059 0.184197 0.911562 -0.367595
78.0715 116.504 191.059 -0.0365216 0.811089 -0.583782
77.3527 116.875 191.62 -0.0365216 0.811089 -0.583782
78.1449 117.042 191.802 -0.0365216 0.811089 -0.583782
78.1449 117.042 191.802 0.627933 0.599537 -0.496241
78.6645 116.505 191.81 0.627933 0.599537 -0.496241
78.0715 116.504 191.059 0.627933 0.599537 -0.496241
77.3704 115.573 191.724 -0.70342 -0.704324 0.095542
77.1908 115.795 192.041 -0.70342 -0.704324 0.095542
77.0133 115.922 191.669 -0.70342 -0.704324 0.095542
77.7137 115.758 192.439 -0.358477 -0.847668 0.391092
77.1908 115.795 192.041 -0.358477 -0.847668 0.391092
77.3704 115.573 191.724 -0.358477 -0.847668 0.391092
77.7137 115.758 192.439 -0.25117 -0.901114 0.353421
77.3704 115.573 191.724 -0.25117 -0.901114 0.353421
78.0462 115.628 192.344 -0.25117 -0.901114 0.353421
78.0462 115.628 192.344 -0.179234 -0.943475 0.278802
77.3704 115.573 191.724 -0.179234 -0.943475 0.278802
78.0437 115.399 191.567 -0.179234 -0.943475 0.278802
78.0462 115.628 192.344 0.616659 -0.755622 0.220834
78.0437 115.399 191.567 0.616659 -0.755622 0.220834
78.5116 115.814 191.682 0.616659 -0.755622 0.220834
78.309 115.963 192.488 0.685835 -0.665372 0.294804
78.0462 115.628 192.344 0.685835 -0.665372 0.294804
78.5116 115.814 191.682 0.685835 -0.665372 0.294804
77.1908 115.795 192.041 -0.908293 -0.0532869 0.414926
77.3172 116.433 192.4 -0.908293 -0.0532869 0.414926
77.0133 115.922 191.669 -0.908293 -0.0532869 0.414926
77.0133 115.922 191.669 -0.884689 -0.118668 0.450825
77.3172 116.433 192.4 -0.884689 -0.118668 0.450825
76.9391 116.53 191.683 -0.884689 -0.118668 0.450825
77.7137 115.758 192.439 -0.590754 -0.303306 0.747674
77.3172 116.433 192.4 -0.590754 -0.303306 0.747674
77.1908 115.795 192.041 -0.590754 -0.303306 0.747674
78.5116 115.814 191.682 0.925132 -0.256816 0.2796
78.6645 116.505 191.81 0.925132 -0.256816 0.2796
78.309 115.963 192.488 0.925132 -0.256816 0.2796
78.309 115.963 192.488 0.924044 -0.279236 0.261093
78.6645 116.505 191.81 0.924044 -0.279236 0.261093
78.5294 116.671 192.466 0.924044 -0.279236 0.261093
77.3527 116.875 191.62 -0.553107 0.735165 0.391925
76.9391 116.53 191.683 -0.553107 0.735165 0.391925
77.3172 116.433 192.4 -0.553107 0.735165 0.391925
78.1449 117.042 191.802 -0.19502 0.979628 -0.0479157
77.3527 116.875 191.62 -0.19502 0.979628 -0.0479157
77.9535 117.035 192.443 -0.19502 0.979628 -0.0479157
77.3527 116.875 191.62 -0.656466 0.668544 0.34943
77.3172 116.433 192.4 -0.656466 0.668544 0.34943
77.9535 117.035 192.443 -0.656466 0.668544 0.34943
78.5294 116.671 192.466 0.718633 0.694839 -0.0276688
78.6645 116.505 191.81 0.718633 0.694839 -0.0276688
78.1449 117.042 191.802 0.718633 0.694839 -0.0276688
77.9535 117.035 192.443 0.522556 0.836499 0.164937
78.5294 116.671 192.466 0.522556 0.836499 0.164937
78.1449 117.042 191.802 0.522556 0.836499 0.164937
78.0462 115.628 192.344 -0.127476 -0.777056 0.616388
77.9664 115.891 192.66 -0.127476 -0.777056 0.616388
77.7137 115.758 192.439 -0.127476 -0.777056 0.616388
78.0462 115.628 192.344 0.449059 -0.626925 0.636641
78.309 115.963 192.488 0.449059 -0.626925 0.636641
77.9664 115.891 192.66 0.449059 -0.626925 0.636641
77.3172 116.433 192.4 -0.546299 -0.274664 0.791276
77.7137 115.758 192.439 -0.546299 -0.274664 0.791276
77.9664 115.891 192.66 -0.546299 -0.274664 0.791276
77.3172 116.433 192.4 -0.480633 -0.162017 0.861825
77.9664 115.891 192.66 -0.480633 -0.162017 0.861825
78.0602 116.503 192.827 -0.480633 -0.162017 0.861825
78.309 115.963 192.488 0.639328 -0.175271 0.748692
78.5294 116.671 192.466 0.639328 -0.175271 0.748692
78.0602 116.503 192.827 0.639328 -0.175271 0.748692
77.9664 115.891 192.66 0.476323 -0.29935 0.826744
78.309 115.963 192.488 0.476323 -0.29935 0.826744
78.0602 116.503 192.827 0.476323 -0.29935 0.826744
78.0602 116.503 192.827 -0.47668 0.449787 0.755293
77.9535 117.035 192.443 -0.47668 0.449787 0.755293
77.3172 116.433 192.4 -0.47668 0.449787 0.755293
78.5294 116.671 192.466 0.346149 0.593801 0.726348
77.9535 117.035 192.443 0.346149 0.593801 0.726348
78.0602 116.503 192.827 0.346149 0.593801 0.726348
3 0 1 2
3 3 4 5
3 6 7 8
3 9 10 11
3 12 13 14
3 15 16 17
3 18 19 20
3 21 22 23
3 24 25 26
3 27 28 29
3 30 31 32
3 33 34 35
3 36 37 38
3 39 40 41
3 42 43 44
3 45 46 47
3 48 49 50
3 51 52 53
3 54 55 56
3 57 58 59
3 60 61 62
3 63 64 65
3 66 67 68
3 69 70 71
3 72 73 74
3 75 76 77
3 78 79 80
3 81 82 83
3 84 85 86
3 87 88 89
3 90 91 92
3 93 94 95
3 96 97 98
3 99 100 101
3 102 103 104
3 105 106 107
3 108 109 110
3 111 112 113
3 114 115 116
3 117 118 119
3 120 121 122
3 123 124 125
3 126 127 128
3 129 130 131
