solid ascii
 facet normal 0.0712516 -0.662831 -0.745371
  outer loop
   vertex 50.7029 137.843 164.621
   vertex 50.5426 137.482 164.926
   vertex 50.1205 137.697 164.695
  endloop
 endfacet
 facet normal -0.0819723 -0.622608 -0.778228
  outer loop
   vertex 50.5426 137.482 164.926
   vertex 50.7029 137.843 164.621
   vertex 51.1537 137.585 164.779
  endloop
 endfacet
 facet normal -0.150009 0.0991202 -0.983703
  outer loop
   vertex 50.1205 137.697 164.695
   vertex 49.9175 138.422 164.799
   vertex 50.7029 137.843 164.621
  endloop
 endfacet
 facet normal -0.24125 -0.0287622 -0.970037
  outer loop
   vertex 50.7029 137.843 164.621
   vertex 49.9175 138.422 164.799
   vertex 50.7813 138.641 164.577
  endloop
 endfacet
 facet normal 0.112538 -0.370854 -0.921848
  outer loop
   vertex 51.5222 138.041 164.641
   vertex 51.1537 137.585 164.779
   vertex 50.7029 137.843 164.621
  endloop
 endfacet
 facet normal 0.0534806 -0.119301 -0.991417
  outer loop
   vertex 51.5222 138.041 164.641
   vertex 50.7029 137.843 164.621
   vertex 51.472 138.49 164.584
  endloop
 endfacet
 facet normal -0.00192387 -0.0538247 -0.998549
  outer loop
   vertex 51.472 138.49 164.584
   vertex 50.7029 137.843 164.621
   vertex 50.7813 138.641 164.577
  endloop
 endfacet
 facet normal 0.199884 -0.100814 -0.974619
  outer loop
   vertex 51.5222 138.041 164.641
   vertex 51.472 138.49 164.584
   vertex 51.9145 138.477 164.676
  endloop
 endfacet
 facet normal -0.58076 0.362867 -0.728728
  outer loop
   vertex 49.9175 138.422 164.799
   vertex 50.4263 139.557 164.958
   vertex 50.6759 139.315 164.639
  endloop
 endfacet
 facet normal -0.259049 0.047059 -0.964717
  outer loop
   vertex 49.9175 138.422 164.799
   vertex 50.6759 139.315 164.639
   vertex 50.7813 138.641 164.577
  endloop
 endfacet
 facet normal 0.026977 0.0785098 -0.996548
  outer loop
   vertex 51.472 138.49 164.584
   vertex 50.7813 138.641 164.577
   vertex 51.7215 139.289 164.654
  endloop
 endfacet
 facet normal 0.0169032 0.092995 -0.995523
  outer loop
   vertex 51.7215 139.289 164.654
   vertex 50.7813 138.641 164.577
   vertex 50.6759 139.315 164.639
  endloop
 endfacet
 facet normal 0.204229 0.0216205 -0.978684
  outer loop
   vertex 51.7215 139.289 164.654
   vertex 51.9145 138.477 164.676
   vertex 51.472 138.49 164.584
  endloop
 endfacet
 facet normal -0.520131 0.434261 -0.735446
  outer loop
   vertex 50.6759 139.315 164.639
   vertex 50.4263 139.557 164.958
   vertex 50.9578 139.791 164.721
  endloop
 endfacet
 facet normal 0.0183996 0.159298 -0.987059
  outer loop
   vertex 51.7215 139.289 164.654
   vertex 50.6759 139.315 164.639
   vertex 50.9578 139.791 164.721
  endloop
 endfacet
 facet normal -0.0194343 0.102768 -0.994515
  outer loop
   vertex 51.7169 139.843 164.711
   vertex 51.7215 139.289 164.654
   vertex 50.9578 139.791 164.721
  endloop
 endfacet
 facet normal -0.760782 -0.637044 -0.124036
  outer loop
   vertex 49.7672 137.644 164.993
   vertex 49.8389 137.411 165.75
   vertex 49.5622 137.781 165.547
  endloop
 endfacet
 facet normal -0.219726 -0.881484 -0.41798
  outer loop
   vertex 49.7672 137.644 164.993
   vertex 50.1205 137.697 164.695
   vertex 50.5426 137.482 164.926
  endloop
 endfacet
 facet normal -0.218698 -0.938272 -0.267987
  outer loop
   vertex 49.7672 137.644 164.993
   vertex 50.5426 137.482 164.926
   vertex 49.8389 137.411 165.75
  endloop
 endfacet
 facet normal -0.197819 -0.947568 -0.250961
  outer loop
   vertex 49.8389 137.411 165.75
   vertex 50.5426 137.482 164.926
   vertex 50.7546 137.212 165.777
  endloop
 endfacet
 facet normal 0.233234 -0.852137 -0.468469
  outer loop
   vertex 51.1537 137.585 164.779
   vertex 51.9268 137.706 164.944
   vertex 51.6377 137.282 165.572
  endloop
 endfacet
 facet normal 0.0616521 -0.919029 -0.389339
  outer loop
   vertex 51.1537 137.585 164.779
   vertex 51.6377 137.282 165.572
   vertex 50.5426 137.482 164.926
  endloop
 endfacet
 facet normal 0.00457592 -0.952945 -0.303109
  outer loop
   vertex 50.5426 137.482 164.926
   vertex 51.6377 137.282 165.572
   vertex 50.7546 137.212 165.777
  endloop
 endfacet
 facet normal 0.353388 -0.571622 -0.740517
  outer loop
   vertex 51.9268 137.706 164.944
   vertex 52.7835 137.738 165.328
   vertex 52.5719 137.248 165.605
  endloop
 endfacet
 facet normal -0.00941645 -0.826502 -0.562855
  outer loop
   vertex 51.6377 137.282 165.572
   vertex 51.9268 137.706 164.944
   vertex 52.5719 137.248 165.605
  endloop
 endfacet
 facet normal 0.579866 -0.576329 -0.575848
  outer loop
   vertex 52.5719 137.248 165.605
   vertex 52.7835 137.738 165.328
   vertex 53.095 137.558 165.822
  endloop
 endfacet
 facet normal -0.926988 0.0880046 -0.36462
  outer loop
   vertex 49.9175 138.422 164.799
   vertex 49.7672 137.644 164.993
   vertex 49.5622 137.781 165.547
  endloop
 endfacet
 facet normal -0.937538 0.157048 -0.310416
  outer loop
   vertex 49.9175 138.422 164.799
   vertex 49.5622 137.781 165.547
   vertex 49.6503 138.661 165.727
  endloop
 endfacet
 facet normal -0.63738 -0.0682875 -0.767518
  outer loop
   vertex 50.1205 137.697 164.695
   vertex 49.7672 137.644 164.993
   vertex 49.9175 138.422 164.799
  endloop
 endfacet
 facet normal 0.253842 -0.463063 -0.849197
  outer loop
   vertex 51.1537 137.585 164.779
   vertex 51.5222 138.041 164.641
   vertex 51.9268 137.706 164.944
  endloop
 endfacet
 facet normal 0.405433 -0.294576 -0.865361
  outer loop
   vertex 51.9145 138.477 164.676
   vertex 51.9268 137.706 164.944
   vertex 51.5222 138.041 164.641
  endloop
 endfacet
 facet normal 0.483285 -0.280768 -0.82922
  outer loop
   vertex 51.9145 138.477 164.676
   vertex 52.6073 138.636 165.026
   vertex 51.9268 137.706 164.944
  endloop
 endfacet
 facet normal 0.40586 -0.219052 -0.887296
  outer loop
   vertex 52.6073 138.636 165.026
   vertex 52.7835 137.738 165.328
   vertex 51.9268 137.706 164.944
  endloop
 endfacet
 facet normal 0.794882 -0.198164 -0.573492
  outer loop
   vertex 53.3455 138.467 165.856
   vertex 53.095 137.558 165.822
   vertex 52.7835 137.738 165.328
  endloop
 endfacet
 facet normal 0.736157 -0.0816981 -0.671862
  outer loop
   vertex 52.6073 138.636 165.026
   vertex 53.3455 138.467 165.856
   vertex 52.7835 137.738 165.328
  endloop
 endfacet
 facet normal -0.835475 0.423853 -0.349756
  outer loop
   vertex 49.6503 138.661 165.727
   vertex 50.4263 139.557 164.958
   vertex 49.9175 138.422 164.799
  endloop
 endfacet
 facet normal -0.831495 0.478809 -0.281706
  outer loop
   vertex 50.2111 139.656 165.762
   vertex 50.4263 139.557 164.958
   vertex 49.6503 138.661 165.727
  endloop
 endfacet
 facet normal 0.38661 -0.00116001 -0.922243
  outer loop
   vertex 52.6073 138.636 165.026
   vertex 51.7215 139.289 164.654
   vertex 52.5032 139.732 164.981
  endloop
 endfacet
 facet normal 0.434867 0.078687 -0.89705
  outer loop
   vertex 51.9145 138.477 164.676
   vertex 51.7215 139.289 164.654
   vertex 52.6073 138.636 165.026
  endloop
 endfacet
 facet normal 0.753696 0.126615 -0.644911
  outer loop
   vertex 52.969 139.42 165.603
   vertex 53.3455 138.467 165.856
   vertex 52.6073 138.636 165.026
  endloop
 endfacet
 facet normal 0.811734 0.0531976 -0.5816
  outer loop
   vertex 52.5032 139.732 164.981
   vertex 52.969 139.42 165.603
   vertex 52.6073 138.636 165.026
  endloop
 endfacet
 facet normal -0.518356 0.421533 -0.744055
  outer loop
   vertex 50.7713 140.342 165.163
   vertex 50.9578 139.791 164.721
   vertex 50.4263 139.557 164.958
  endloop
 endfacet
 facet normal -0.831434 0.450143 -0.325714
  outer loop
   vertex 50.7713 140.342 165.163
   vertex 50.4263 139.557 164.958
   vertex 50.557 140.347 165.717
  endloop
 endfacet
 facet normal -0.86505 0.414433 -0.282725
  outer loop
   vertex 50.557 140.347 165.717
   vertex 50.4263 139.557 164.958
   vertex 50.2111 139.656 165.762
  endloop
 endfacet
 facet normal -0.0446435 0.497567 -0.866276
  outer loop
   vertex 50.9578 139.791 164.721
   vertex 51.6326 140.376 165.022
   vertex 51.7169 139.843 164.711
  endloop
 endfacet
 facet normal -0.153308 0.5864 -0.795382
  outer loop
   vertex 50.7713 140.342 165.163
   vertex 51.6326 140.376 165.022
   vertex 50.9578 139.791 164.721
  endloop
 endfacet
 facet normal 0.335482 0.0997572 -0.93675
  outer loop
   vertex 51.7169 139.843 164.711
   vertex 52.5032 139.732 164.981
   vertex 51.7215 139.289 164.654
  endloop
 endfacet
 facet normal 0.34242 0.512709 -0.787323
  outer loop
   vertex 51.7169 139.843 164.711
   vertex 51.6326 140.376 165.022
   vertex 52.5032 139.732 164.981
  endloop
 endfacet
 facet normal 0.202811 0.332581 -0.921009
  outer loop
   vertex 51.6326 140.376 165.022
   vertex 52.5047 140.472 165.248
   vertex 52.5032 139.732 164.981
  endloop
 endfacet
 facet normal 0.829436 0.195626 -0.523227
  outer loop
   vertex 52.8454 140.258 165.72
   vertex 52.969 139.42 165.603
   vertex 52.5032 139.732 164.981
  endloop
 endfacet
 facet normal 0.834588 0.185777 -0.518604
  outer loop
   vertex 52.5047 140.472 165.248
   vertex 52.8454 140.258 165.72
   vertex 52.5032 139.732 164.981
  endloop
 endfacet
 facet normal -0.489352 0.849452 -0.197398
  outer loop
   vertex 50.7713 140.342 165.163
   vertex 50.557 140.347 165.717
   vertex 50.9643 140.585 165.731
  endloop
 endfacet
 facet normal -0.096493 0.926479 -0.363767
  outer loop
   vertex 51.6326 140.376 165.022
   vertex 50.7713 140.342 165.163
   vertex 50.9643 140.585 165.731
  endloop
 endfacet
 facet normal -0.0755764 0.93498 -0.346556
  outer loop
   vertex 51.8902 140.658 165.726
   vertex 51.6326 140.376 165.022
   vertex 50.9643 140.585 165.731
  endloop
 endfacet
 facet normal -0.00531702 0.929065 -0.369879
  outer loop
   vertex 52.5047 140.472 165.248
   vertex 51.6326 140.376 165.022
   vertex 51.8902 140.658 165.726
  endloop
 endfacet
 facet normal 0.0966687 0.962893 -0.251975
  outer loop
   vertex 52.6408 140.61 165.831
   vertex 52.5047 140.472 165.248
   vertex 51.8902 140.658 165.726
  endloop
 endfacet
 facet normal 0.775708 0.548663 -0.311842
  outer loop
   vertex 52.8454 140.258 165.72
   vertex 52.5047 140.472 165.248
   vertex 52.6408 140.61 165.831
  endloop
 endfacet
 facet normal -0.815171 -0.577955 -0.0382532
  outer loop
   vertex 49.8389 137.411 165.75
   vertex 49.8254 137.372 166.619
   vertex 49.573 137.745 166.369
  endloop
 endfacet
 facet normal -0.796526 -0.604394 -0.0159545
  outer loop
   vertex 49.5622 137.781 165.547
   vertex 49.8389 137.411 165.75
   vertex 49.573 137.745 166.369
  endloop
 endfacet
 facet normal -0.198409 -0.949325 -0.243755
  outer loop
   vertex 50.7546 137.212 165.777
   vertex 50.6275 137.028 166.599
   vertex 49.8389 137.411 165.75
  endloop
 endfacet
 facet normal -0.394883 -0.917539 -0.0467847
  outer loop
   vertex 49.8389 137.411 165.75
   vertex 50.6275 137.028 166.599
   vertex 49.8254 137.372 166.619
  endloop
 endfacet
 facet normal 0.00973141 -0.959089 -0.282939
  outer loop
   vertex 51.6377 137.282 165.572
   vertex 51.6622 136.992 166.555
   vertex 50.7546 137.212 165.777
  endloop
 endfacet
 facet normal -0.0432906 -0.973361 -0.225154
  outer loop
   vertex 50.7546 137.212 165.777
   vertex 51.6622 136.992 166.555
   vertex 50.6275 137.028 166.599
  endloop
 endfacet
 facet normal -0.0316874 -0.994112 -0.103624
  outer loop
   vertex 52.5719 137.248 165.605
   vertex 52.5969 137.168 166.374
   vertex 51.6377 137.282 165.572
  endloop
 endfacet
 facet normal 0.123652 -0.951 -0.283387
  outer loop
   vertex 51.6377 137.282 165.572
   vertex 52.5969 137.168 166.374
   vertex 51.6622 136.992 166.555
  endloop
 endfacet
 facet normal 0.538569 -0.835942 -0.105565
  outer loop
   vertex 52.5969 137.168 166.374
   vertex 52.5719 137.248 165.605
   vertex 53.095 137.558 165.822
  endloop
 endfacet
 facet normal 0.730716 -0.653605 0.197113
  outer loop
   vertex 53.0465 137.701 166.476
   vertex 52.5969 137.168 166.374
   vertex 53.095 137.558 165.822
  endloop
 endfacet
 facet normal -0.995231 0.0959966 0.0173262
  outer loop
   vertex 49.5622 137.781 165.547
   vertex 49.573 137.745 166.369
   vertex 49.6503 138.661 165.727
  endloop
 endfacet
 facet normal -0.986419 0.14151 0.0833804
  outer loop
   vertex 49.573 137.745 166.369
   vertex 49.7335 138.663 166.709
   vertex 49.6503 138.661 165.727
  endloop
 endfacet
 facet normal 0.804267 -0.551825 -0.220552
  outer loop
   vertex 53.5185 138.385 166.692
   vertex 53.3455 138.467 165.856
   vertex 53.6517 138.674 166.454
  endloop
 endfacet
 facet normal 0.833739 -0.50552 -0.222099
  outer loop
   vertex 53.5185 138.385 166.692
   vertex 53.0465 137.701 166.476
   vertex 53.3455 138.467 165.856
  endloop
 endfacet
 facet normal 0.954718 -0.267904 0.129387
  outer loop
   vertex 53.0465 137.701 166.476
   vertex 53.095 137.558 165.822
   vertex 53.3455 138.467 165.856
  endloop
 endfacet
 facet normal 0.882585 -0.464796 -0.0707651
  outer loop
   vertex 53.5185 138.385 166.692
   vertex 53.6517 138.674 166.454
   vertex 53.6785 138.694 166.653
  endloop
 endfacet
 facet normal -0.994924 0.0550806 0.084211
  outer loop
   vertex 49.7523 139.451 166.416
   vertex 49.6503 138.661 165.727
   vertex 49.7335 138.663 166.709
  endloop
 endfacet
 facet normal -0.788512 0.45912 -0.409216
  outer loop
   vertex 49.6503 138.661 165.727
   vertex 49.7523 139.451 166.416
   vertex 50.2111 139.656 165.762
  endloop
 endfacet
 facet normal 0.649195 0.552093 -0.523201
  outer loop
   vertex 53.6517 138.674 166.454
   vertex 53.3455 138.467 165.856
   vertex 53.158 139.367 166.573
  endloop
 endfacet
 facet normal 0.931532 0.324655 -0.163851
  outer loop
   vertex 53.3455 138.467 165.856
   vertex 52.969 139.42 165.603
   vertex 53.158 139.367 166.573
  endloop
 endfacet
 facet normal 0.789274 0.590887 -0.167033
  outer loop
   vertex 53.6785 138.694 166.653
   vertex 53.6517 138.674 166.454
   vertex 53.158 139.367 166.573
  endloop
 endfacet
 facet normal -0.741926 0.57846 -0.339014
  outer loop
   vertex 50.3303 140.193 166.418
   vertex 50.2111 139.656 165.762
   vertex 49.7523 139.451 166.416
  endloop
 endfacet
 facet normal -0.882729 0.429234 -0.191173
  outer loop
   vertex 50.3303 140.193 166.418
   vertex 50.557 140.347 165.717
   vertex 50.2111 139.656 165.762
  endloop
 endfacet
 facet normal 0.969266 0.168049 -0.179677
  outer loop
   vertex 52.969 139.42 165.603
   vertex 52.8454 140.258 165.72
   vertex 53.158 139.367 166.573
  endloop
 endfacet
 facet normal 0.949396 0.313415 -0.0204425
  outer loop
   vertex 53.158 139.367 166.573
   vertex 52.8454 140.258 165.72
   vertex 52.8298 140.363 166.601
  endloop
 endfacet
 facet normal -0.460943 0.88624 0.0459288
  outer loop
   vertex 50.557 140.347 165.717
   vertex 50.3303 140.193 166.418
   vertex 50.73 140.389 166.656
  endloop
 endfacet
 facet normal -0.504999 0.861357 0.0551437
  outer loop
   vertex 50.9643 140.585 165.731
   vertex 50.557 140.347 165.717
   vertex 50.73 140.389 166.656
  endloop
 endfacet
 facet normal -0.0787054 0.996897 0.00125741
  outer loop
   vertex 51.8902 140.658 165.726
   vertex 50.9643 140.585 165.731
   vertex 51.5953 140.634 166.49
  endloop
 endfacet
 facet normal -0.244873 0.959125 0.141834
  outer loop
   vertex 50.9643 140.585 165.731
   vertex 50.73 140.389 166.656
   vertex 51.5953 140.634 166.49
  endloop
 endfacet
 facet normal 0.0629497 0.998001 0.00568066
  outer loop
   vertex 52.6408 140.61 165.831
   vertex 51.8902 140.658 165.726
   vertex 52.4474 140.618 166.568
  endloop
 endfacet
 facet normal 0.014978 0.999184 0.0375084
  outer loop
   vertex 51.8902 140.658 165.726
   vertex 51.5953 140.634 166.49
   vertex 52.4474 140.618 166.568
  endloop
 endfacet
 facet normal 0.857536 0.512384 -0.0457755
  outer loop
   vertex 52.8298 140.363 166.601
   vertex 52.8454 140.258 165.72
   vertex 52.6408 140.61 165.831
  endloop
 endfacet
 facet normal 0.542475 0.8294 0.133479
  outer loop
   vertex 52.4474 140.618 166.568
   vertex 52.8298 140.363 166.601
   vertex 52.6408 140.61 165.831
  endloop
 endfacet
 facet normal -0.857652 -0.301287 0.416724
  outer loop
   vertex 49.8254 137.372 166.619
   vertex 49.8136 137.766 166.879
   vertex 49.573 137.745 166.369
  endloop
 endfacet
 facet normal -0.302531 -0.739873 0.600885
  outer loop
   vertex 49.8254 137.372 166.619
   vertex 50.6275 137.028 166.599
   vertex 50.495 137.552 167.177
  endloop
 endfacet
 facet normal -0.473859 -0.49568 0.727846
  outer loop
   vertex 49.8136 137.766 166.879
   vertex 49.8254 137.372 166.619
   vertex 50.495 137.552 167.177
  endloop
 endfacet
 facet normal 9.46982e-05 -0.769281 0.63891
  outer loop
   vertex 50.6275 137.028 166.599
   vertex 51.6622 136.992 166.555
   vertex 51.4474 137.627 167.319
  endloop
 endfacet
 facet normal -0.0409938 -0.745163 0.665621
  outer loop
   vertex 50.495 137.552 167.177
   vertex 50.6275 137.028 166.599
   vertex 51.4474 137.627 167.319
  endloop
 endfacet
 facet normal 0.256275 -0.792535 0.553364
  outer loop
   vertex 51.6622 136.992 166.555
   vertex 52.5969 137.168 166.374
   vertex 52.5801 137.648 167.07
  endloop
 endfacet
 facet normal 0.158747 -0.737155 0.656812
  outer loop
   vertex 51.4474 137.627 167.319
   vertex 51.6622 136.992 166.555
   vertex 52.5801 137.648 167.07
  endloop
 endfacet
 facet normal 0.639922 -0.625056 0.446996
  outer loop
   vertex 52.5969 137.168 166.374
   vertex 53.0465 137.701 166.476
   vertex 52.5801 137.648 167.07
  endloop
 endfacet
 facet normal -0.904626 0.000252062 0.426206
  outer loop
   vertex 49.573 137.745 166.369
   vertex 49.8136 137.766 166.879
   vertex 49.7335 138.663 166.709
  endloop
 endfacet
 facet normal -0.437513 -0.162881 0.884337
  outer loop
   vertex 50.495 137.552 167.177
   vertex 50.6407 138.45 167.414
   vertex 49.8136 137.766 166.879
  endloop
 endfacet
 facet normal -0.596674 0.0982867 0.796442
  outer loop
   vertex 50.6407 138.45 167.414
   vertex 49.7335 138.663 166.709
   vertex 49.8136 137.766 166.879
  endloop
 endfacet
 facet normal -0.107392 -0.35633 0.928168
  outer loop
   vertex 51.28 138.48 167.628
   vertex 51.4474 137.627 167.319
   vertex 51.8847 138.15 167.571
  endloop
 endfacet
 facet normal -0.27767 -0.374108 0.88484
  outer loop
   vertex 51.28 138.48 167.628
   vertex 50.6407 138.45 167.414
   vertex 51.4474 137.627 167.319
  endloop
 endfacet
 facet normal -0.125809 -0.234482 0.963945
  outer loop
   vertex 50.6407 138.45 167.414
   vertex 50.495 137.552 167.177
   vertex 51.4474 137.627 167.319
  endloop
 endfacet
 facet normal 0.189823 -0.549505 0.813641
  outer loop
   vertex 52.5801 137.648 167.07
   vertex 51.8847 138.15 167.571
   vertex 51.4474 137.627 167.319
  endloop
 endfacet
 facet normal 0.291623 -0.442761 0.847891
  outer loop
   vertex 52.7571 138.507 167.458
   vertex 51.8847 138.15 167.571
   vertex 52.5801 137.648 167.07
  endloop
 endfacet
 facet normal 0.633445 -0.180263 0.752498
  outer loop
   vertex 53.4867 138.679 166.884
   vertex 52.9305 138.912 167.408
   vertex 52.7571 138.507 167.458
  endloop
 endfacet
 facet normal 0.624985 -0.379605 0.682124
  outer loop
   vertex 53.5185 138.385 166.692
   vertex 53.4867 138.679 166.884
   vertex 52.7571 138.507 167.458
  endloop
 endfacet
 facet normal 0.60593 -0.427546 0.67086
  outer loop
   vertex 53.5185 138.385 166.692
   vertex 52.7571 138.507 167.458
   vertex 52.5801 137.648 167.07
  endloop
 endfacet
 facet normal 0.655388 -0.597827 0.461595
  outer loop
   vertex 53.5185 138.385 166.692
   vertex 52.5801 137.648 167.07
   vertex 53.0465 137.701 166.476
  endloop
 endfacet
 facet normal 0.742489 -0.30927 0.59419
  outer loop
   vertex 53.5185 138.385 166.692
   vertex 53.6785 138.694 166.653
   vertex 53.4867 138.679 166.884
  endloop
 endfacet
 facet normal -0.89081 0.176832 0.418555
  outer loop
   vertex 49.7335 138.663 166.709
   vertex 49.9451 139.659 166.738
   vertex 49.7523 139.451 166.416
  endloop
 endfacet
 facet normal -0.586983 0.141802 0.797084
  outer loop
   vertex 50.6407 138.45 167.414
   vertex 50.7294 139.543 167.285
   vertex 49.7335 138.663 166.709
  endloop
 endfacet
 facet normal -0.560247 0.0946246 0.822903
  outer loop
   vertex 50.7294 139.543 167.285
   vertex 49.9451 139.659 166.738
   vertex 49.7335 138.663 166.709
  endloop
 endfacet
 facet normal -0.317557 0.0362351 0.947547
  outer loop
   vertex 51.3551 139.199 167.625
   vertex 50.6407 138.45 167.414
   vertex 51.28 138.48 167.628
  endloop
 endfacet
 facet normal -0.412128 0.139812 0.900335
  outer loop
   vertex 50.7294 139.543 167.285
   vertex 50.6407 138.45 167.414
   vertex 51.3551 139.199 167.625
  endloop
 endfacet
 facet normal 0.684124 0.545897 0.483706
  outer loop
   vertex 53.158 139.367 166.573
   vertex 52.9305 138.912 167.408
   vertex 53.4867 138.679 166.884
  endloop
 endfacet
 facet normal 0.929715 0.151599 0.335631
  outer loop
   vertex 53.158 139.367 166.573
   vertex 52.8106 139.682 167.393
   vertex 52.9305 138.912 167.408
  endloop
 endfacet
 facet normal 0.624702 0.549648 0.554649
  outer loop
   vertex 53.6785 138.694 166.653
   vertex 53.158 139.367 166.573
   vertex 53.4867 138.679 166.884
  endloop
 endfacet
 facet normal -0.786915 0.612436 0.0754114
  outer loop
   vertex 49.7523 139.451 166.416
   vertex 49.9451 139.659 166.738
   vertex 50.3303 140.193 166.418
  endloop
 endfacet
 facet normal -0.590418 0.68325 0.429623
  outer loop
   vertex 50.3303 140.193 166.418
   vertex 49.9451 139.659 166.738
   vertex 50.73 140.389 166.656
  endloop
 endfacet
 facet normal -0.42636 0.540166 0.72556
  outer loop
   vertex 50.73 140.389 166.656
   vertex 49.9451 139.659 166.738
   vertex 50.7294 139.543 167.285
  endloop
 endfacet
 facet normal -0.287768 0.355145 0.889417
  outer loop
   vertex 51.7761 139.594 167.603
   vertex 50.7294 139.543 167.285
   vertex 51.3551 139.199 167.625
  endloop
 endfacet
 facet normal -0.277457 0.472836 0.836328
  outer loop
   vertex 51.7761 139.594 167.603
   vertex 51.7646 140.35 167.172
   vertex 50.7294 139.543 167.285
  endloop
 endfacet
 facet normal -0.353677 0.558525 0.750308
  outer loop
   vertex 51.7646 140.35 167.172
   vertex 50.73 140.389 166.656
   vertex 50.7294 139.543 167.285
  endloop
 endfacet
 facet normal -0.0115822 0.612506 0.790381
  outer loop
   vertex 51.7646 140.35 167.172
   vertex 52.5046 139.879 167.548
   vertex 52.6232 140.367 167.171
  endloop
 endfacet
 facet normal -0.126208 0.490061 0.862503
  outer loop
   vertex 51.7761 139.594 167.603
   vertex 52.5046 139.879 167.548
   vertex 51.7646 140.35 167.172
  endloop
 endfacet
 facet normal 0.60439 0.389497 0.694985
  outer loop
   vertex 52.6232 140.367 167.171
   vertex 52.5046 139.879 167.548
   vertex 52.8106 139.682 167.393
  endloop
 endfacet
 facet normal 0.88375 0.343907 0.317355
  outer loop
   vertex 52.6232 140.367 167.171
   vertex 52.8106 139.682 167.393
   vertex 52.8298 140.363 166.601
  endloop
 endfacet
 facet normal 0.915432 0.293835 0.275038
  outer loop
   vertex 52.8298 140.363 166.601
   vertex 52.8106 139.682 167.393
   vertex 53.158 139.367 166.573
  endloop
 endfacet
 facet normal -0.173786 0.893065 0.41501
  outer loop
   vertex 51.7646 140.35 167.172
   vertex 51.5953 140.634 166.49
   vertex 50.73 140.389 166.656
  endloop
 endfacet
 facet normal -0.0183988 0.921375 0.38824
  outer loop
   vertex 52.4474 140.618 166.568
   vertex 51.5953 140.634 166.49
   vertex 51.7646 140.35 167.172
  endloop
 endfacet
 facet normal -0.0183043 0.921338 0.38833
  outer loop
   vertex 52.6232 140.367 167.171
   vertex 52.4474 140.618 166.568
   vertex 51.7646 140.35 167.172
  endloop
 endfacet
 facet normal 0.534396 0.82428 0.187039
  outer loop
   vertex 52.8298 140.363 166.601
   vertex 52.4474 140.618 166.568
   vertex 52.6232 140.367 167.171
  endloop
 endfacet
 facet normal -0.000447254 -0.169916 0.985459
  outer loop
   vertex 51.8847 138.15 167.571
   vertex 51.8514 138.778 167.679
   vertex 51.28 138.48 167.628
  endloop
 endfacet
 facet normal 0.190347 -0.156974 0.969086
  outer loop
   vertex 51.8514 138.778 167.679
   vertex 51.8847 138.15 167.571
   vertex 52.7571 138.507 167.458
  endloop
 endfacet
 facet normal -0.0325581 0.0896381 0.995442
  outer loop
   vertex 51.8514 138.778 167.679
   vertex 51.7761 139.594 167.603
   vertex 51.3551 139.199 167.625
  endloop
 endfacet
 facet normal -0.0971142 0.0133425 0.995184
  outer loop
   vertex 51.28 138.48 167.628
   vertex 51.8514 138.778 167.679
   vertex 51.3551 139.199 167.625
  endloop
 endfacet
 facet normal 0.185197 -0.172799 0.967389
  outer loop
   vertex 52.7571 138.507 167.458
   vertex 52.5742 139.334 167.64
   vertex 51.8514 138.778 167.679
  endloop
 endfacet
 facet normal -0.0160767 0.091184 0.995704
  outer loop
   vertex 52.5742 139.334 167.64
   vertex 51.7761 139.594 167.603
   vertex 51.8514 138.778 167.679
  endloop
 endfacet
 facet normal 0.633162 0.114013 0.765576
  outer loop
   vertex 52.9305 138.912 167.408
   vertex 52.8106 139.682 167.393
   vertex 52.5742 139.334 167.64
  endloop
 endfacet
 facet normal 0.464189 -0.0919581 0.88095
  outer loop
   vertex 52.7571 138.507 167.458
   vertex 52.9305 138.912 167.408
   vertex 52.5742 139.334 167.64
  endloop
 endfacet
 facet normal 0.0091619 0.167083 0.9859
  outer loop
   vertex 52.5742 139.334 167.64
   vertex 52.5046 139.879 167.548
   vertex 51.7761 139.594 167.603
  endloop
 endfacet
 facet normal 0.54587 0.206376 0.812056
  outer loop
   vertex 52.8106 139.682 167.393
   vertex 52.5046 139.879 167.548
   vertex 52.5742 139.334 167.64
  endloop
 endfacet
endsolid
