ply
format ascii 1.0
element vertex 348
property float x
property float y
property float z
property float nx
property float ny
property float nz
element face 116
property list uint uint vertex_indices
end_header
56.2766 143.906 171.919 -0.00123665 -0.0925232 -0.99571
56.0358 143.322 171.974 -0.00123665 -0.0925232 -0.99571
55.4446 143.763 171.934 -0.00123665 -0.0925232 -0.99571
56.2766 143.906 171.919 0.171786 -0.141703 -0.97489
57.5234 143.834 172.149 0.171786 -0.141703 -0.97489
57.0584 143.239 172.154 0.171786 -0.141703 -0.97489
56.0358 143.322 171.974 0.158995 -0.156644 -0.974773
56.2766 143.906 171.919 0.158995 -0.156644 -0.974773
57.0584 143.239 172.154 0.158995 -0.156644 -0.974773
55.4446 143.763 171.934 -0.0500932 0.19251 -0.980016
55.217 144.406 172.072 -0.0500932 0.19251 -0.980016
56.2766 143.906 171.919 -0.0500932 0.19251 -0.980016
56.2766 143.906 171.919 -0.171701 -0.0644525 -0.983039
55.217 144.406 172.072 -0.171701 -0.0644525 -0.983039
56.0172 144.893 171.9 -0.171701 -0.0644525 -0.983039
57.5234 143.834 172.149 0.183767 0.042043 -0.98207
56.2766 143.906 171.919 0.183767 0.042043 -0.98207
57.3336 144.736 172.152 0.183767 0.042043 -0.98207
57.3336 144.736 172.152 0.192013 0.0312021 -0.980896
56.2766 143.906 171.919 0.192013 0.0312021 -0.980896
56.0172 144.893 171.9 0.192013 0.0312021 -0.980896
55.0495 145.509 172.246 -0.83535 -0.0401042 -0.548254
55.2546 145.481 171.936 -0.83535 -0.0401042 -0.548254
55.217 144.406 172.072 -0.83535 -0.0401042 -0.548254
55.6796 145.625 171.93 0.0867289 0.0812318 -0.992915
56.3788 145.404 171.973 0.0867289 0.0812318 -0.992915
56.0172 144.893 171.9 0.0867289 0.0812318 -0.992915
55.6796 145.625 171.93 -0.0232125 0.0307915 -0.999256
56.0172 144.893 171.9 -0.0232125 0.0307915 -0.999256
55.2546 145.481 171.936 -0.0232125 0.0307915 -0.999256
55.2546 145.481 171.936 -0.138248 -0.119425 -0.983171
56.0172 144.893 171.9 -0.138248 -0.119425 -0.983171
55.217 144.406 172.072 -0.138248 -0.119425 -0.983171
57.3336 144.736 172.152 0.189308 0.0070259 -0.981893
56.0172 144.893 171.9 0.189308 0.0070259 -0.981893
56.3788 145.404 171.973 0.189308 0.0070259 -0.981893
57.081 145.299 172.131 0.227372 0.0641336 -0.971694
57.3336 144.736 172.152 0.227372 0.0641336 -0.971694
56.3788 145.404 171.973 0.227372 0.0641336 -0.971694
55.2546 145.481 171.936 -0.677984 0.542434 -0.496088
55.0495 145.509 172.246 -0.677984 0.542434 -0.496088
55.3393 145.783 172.15 -0.677984 0.542434 -0.496088
55.6796 145.625 171.93 -0.214884 0.604806 -0.766834
55.2546 145.481 171.936 -0.214884 0.604806 -0.766834
55.3393 145.783 172.15 -0.214884 0.604806 -0.766834
55.3136 142.981 173.089 -0.339209 -0.889124 -0.307239
56.1971 142.901 172.344 -0.339209 -0.889124 -0.307239
56.1214 142.713 172.972 -0.339209 -0.889124 -0.307239
56.1971 142.901 172.344 -0.0750703 -0.977634 -0.196457
57.0549 142.823 172.404 -0.0750703 -0.977634 -0.196457
56.9003 142.726 172.947 -0.0750703 -0.977634 -0.196457
56.1214 142.713 172.972 0.00669107 -0.958153 -0.286179
56.1971 142.901 172.344 0.00669107 -0.958153 -0.286179
56.9003 142.726 172.947 0.00669107 -0.958153 -0.286179
56.9003 142.726 172.947 0.276518 -0.956547 -0.0924942
57.0549 142.823 172.404 0.276518 -0.956547 -0.0924942
57.4791 142.905 172.825 0.276518 -0.956547 -0.0924942
54.9892 143.832 172.817 -0.874928 -0.413741 -0.251635
55.2941 143.578 172.175 -0.874928 -0.413741 -0.251635
55.3136 142.981 173.089 -0.874928 -0.413741 -0.251635
56.0358 143.322 171.974 -0.394889 -0.593818 -0.70103
55.2941 143.578 172.175 -0.394889 -0.593818 -0.70103
55.4446 143.763 171.934 -0.394889 -0.593818 -0.70103
56.0358 143.322 171.974 -0.401204 -0.686789 -0.606099
56.1971 142.901 172.344 -0.401204 -0.686789 -0.606099
55.2941 143.578 172.175 -0.401204 -0.686789 -0.606099
56.1971 142.901 172.344 -0.468569 -0.744109 -0.476178
55.3136 142.981 173.089 -0.468569 -0.744109 -0.476178
55.2941 143.578 172.175 -0.468569 -0.744109 -0.476178
57.0584 143.239 172.154 0.082347 -0.640296 -0.763701
56.1971 142.901 172.344 0.082347 -0.640296 -0.763701
56.0358 143.322 171.974 0.082347 -0.640296 -0.763701
57.0549 142.823 172.404 0.0130495 -0.51597 -0.856507
56.1971 142.901 172.344 0.0130495 -0.51597 -0.856507
57.0584 143.239 172.154 0.0130495 -0.51597 -0.856507
57.5234 143.834 172.149 0.686437 -0.520178 -0.508153
58.0517 144.095 172.596 0.686437 -0.520178 -0.508153
57.9462 143.627 172.933 0.686437 -0.520178 -0.508153
57.0584 143.239 172.154 0.677467 -0.533154 -0.50674
57.5234 143.834 172.149 0.677467 -0.533154 -0.50674
57.9462 143.627 172.933 0.677467 -0.533154 -0.50674
57.0584 143.239 172.154 0.699118 -0.360204 -0.617646
57.9462 143.627 172.933 0.699118 -0.360204 -0.617646
57.4791 142.905 172.825 0.699118 -0.360204 -0.617646
57.0584 143.239 172.154 0.687324 -0.379023 -0.619618
57.4791 142.905 172.825 0.687324 -0.379023 -0.619618
57.0549 142.823 172.404 0.687324 -0.379023 -0.619618
55.217 144.406 172.072 -0.914744 -0.132772 -0.381595
55.2941 143.578 172.175 -0.914744 -0.132772 -0.381595
54.9892 143.832 172.817 -0.914744 -0.132772 -0.381595
55.217 144.406 172.072 -0.951703 -0.0202901 -0.30635
54.9892 143.832 172.817 -0.951703 -0.0202901 -0.30635
54.9388 144.714 172.915 -0.951703 -0.0202901 -0.30635
55.4446 143.763 171.934 -0.78412 -0.14823 -0.602647
55.2941 143.578 172.175 -0.78412 -0.14823 -0.602647
55.217 144.406 172.072 -0.78412 -0.14823 -0.602647
58.0517 144.095 172.596 0.527503 0.0029164 -0.849548
57.3336 144.736 172.152 0.527503 0.0029164 -0.849548
58.1033 144.636 172.63 0.527503 0.0029164 -0.849548
57.5234 143.834 172.149 0.602248 0.129475 -0.787739
57.3336 144.736 172.152 0.602248 0.129475 -0.787739
58.0517 144.095 172.596 0.602248 0.129475 -0.787739
58.2152 144.507 172.892 0.948621 -0.2954 -0.113387
57.9462 143.627 172.933 0.948621 -0.2954 -0.113387
58.0517 144.095 172.596 0.948621 -0.2954 -0.113387
58.1033 144.636 172.63 0.906576 -0.060234 -0.417723
58.2152 144.507 172.892 0.906576 -0.060234 -0.417723
58.0517 144.095 172.596 0.906576 -0.060234 -0.417723
55.217 144.406 172.072 -0.955248 -0.101118 -0.277986
54.9388 144.714 172.915 -0.955248 -0.101118 -0.277986
55.0495 145.509 172.246 -0.955248 -0.101118 -0.277986
54.9388 144.714 172.915 -0.994351 0.0768443 -0.0732247
54.9947 145.464 172.944 -0.994351 0.0768443 -0.0732247
55.0495 145.509 172.246 -0.994351 0.0768443 -0.0732247
56.3788 145.404 171.973 0.220347 0.538374 -0.813388
55.6796 145.625 171.93 0.220347 0.538374 -0.813388
56.0718 145.767 172.13 0.220347 0.538374 -0.813388
56.3788 145.404 171.973 0.260247 0.52487 -0.810422
56.8758 145.719 172.336 0.260247 0.52487 -0.810422
57.081 145.299 172.131 0.260247 0.52487 -0.810422
56.0718 145.767 172.13 0.238604 0.54858 -0.801329
56.8758 145.719 172.336 0.238604 0.54858 -0.801329
56.3788 145.404 171.973 0.238604 0.54858 -0.801329
57.081 145.299 172.131 0.703147 0.559289 -0.439067
56.8758 145.719 172.336 0.703147 0.559289 -0.439067
57.3838 145.497 172.868 0.703147 0.559289 -0.439067
57.3336 144.736 172.152 0.827761 0.354253 -0.435105
57.081 145.299 172.131 0.827761 0.354253 -0.435105
57.3838 145.497 172.868 0.827761 0.354253 -0.435105
57.3336 144.736 172.152 0.586478 0.533755 -0.60922
57.3838 145.497 172.868 0.586478 0.533755 -0.60922
58.0429 144.837 172.924 0.586478 0.533755 -0.60922
57.3336 144.736 172.152 0.390379 0.795691 -0.46312
58.0429 144.837 172.924 0.390379 0.795691 -0.46312
58.1033 144.636 172.63 0.390379 0.795691 -0.46312
58.2152 144.507 172.892 0.871818 0.469051 -0.141155
58.1033 144.636 172.63 0.871818 0.469051 -0.141155
58.0429 144.837 172.924 0.871818 0.469051 -0.141155
55.0495 145.509 172.246 -0.652804 0.757522 -0.0028515
54.9947 145.464 172.944 -0.652804 0.757522 -0.0028515
55.2904 145.719 173.015 -0.652804 0.757522 -0.0028515
55.3393 145.783 172.15 -0.684642 0.728725 0.0150046
55.0495 145.509 172.246 -0.684642 0.728725 0.0150046
55.2904 145.719 173.015 -0.684642 0.728725 0.0150046
56.0718 145.767 172.13 0.00190276 0.813847 -0.581076
55.6796 145.625 171.93 0.00190276 0.813847 -0.581076
55.3393 145.783 172.15 0.00190276 0.813847 -0.581076
56.0718 145.767 172.13 0.0169036 0.987544 -0.156433
55.3393 145.783 172.15 0.0169036 0.987544 -0.156433
56.1837 145.884 172.877 0.0169036 0.987544 -0.156433
56.1837 145.884 172.877 -0.171206 0.983235 0.0627468
55.3393 145.783 172.15 -0.171206 0.983235 0.0627468
55.2904 145.719 173.015 -0.171206 0.983235 0.0627468
56.8758 145.719 172.336 0.102692 0.980392 -0.168186
56.0718 145.767 172.13 0.102692 0.980392 -0.168186
56.1837 145.884 172.877 0.102692 0.980392 -0.168186
57.0463 145.84 173.048 0.087175 0.978397 -0.187454
56.8758 145.719 172.336 0.087175 0.978397 -0.187454
56.1837 145.884 172.877 0.087175 0.978397 -0.187454
57.3838 145.497 172.868 0.609773 0.744115 -0.272889
56.8758 145.719 172.336 0.609773 0.744115 -0.272889
57.0463 145.84 173.048 0.609773 0.744115 -0.272889
55.4614 142.806 173.837 -0.131061 -0.970757 -0.201133
55.3136 142.981 173.089 -0.131061 -0.970757 -0.201133
56.2039 142.736 173.689 -0.131061 -0.970757 -0.201133
56.2039 142.736 173.689 -0.305133 -0.950032 0.0658197
55.3136 142.981 173.089 -0.305133 -0.950032 0.0658197
56.1214 142.713 172.972 -0.305133 -0.950032 0.0658197
57.1936 142.863 173.53 0.155073 -0.96831 0.195776
56.8741 142.905 173.994 0.155073 -0.96831 0.195776
56.2039 142.736 173.689 0.155073 -0.96831 0.195776
57.1936 142.863 173.53 0.149433 -0.976716 0.153937
56.2039 142.736 173.689 0.149433 -0.976716 0.153937
56.9003 142.726 172.947 0.149433 -0.976716 0.153937
56.9003 142.726 172.947 0.0174083 -0.999389 0.030304
56.2039 142.736 173.689 0.0174083 -0.999389 0.030304
56.1214 142.713 172.972 0.0174083 -0.999389 0.030304
56.9003 142.726 172.947 0.308013 -0.948976 0.0676182
57.4791 142.905 172.825 0.308013 -0.948976 0.0676182
57.1936 142.863 173.53 0.308013 -0.948976 0.0676182
55.3136 142.981 173.089 -0.945857 -0.316799 -0.0706598
55.221 143.072 173.918 -0.945857 -0.316799 -0.0706598
54.992 143.811 173.671 -0.945857 -0.316799 -0.0706598
55.3136 142.981 173.089 -0.933832 -0.357666 -0.00570062
54.992 143.811 173.671 -0.933832 -0.357666 -0.00570062
54.9892 143.832 172.817 -0.933832 -0.357666 -0.00570062
55.4614 142.806 173.837 -0.744043 -0.668069 -0.00920659
55.221 143.072 173.918 -0.744043 -0.668069 -0.00920659
55.3136 142.981 173.089 -0.744043 -0.668069 -0.00920659
57.1936 142.863 173.53 0.532753 -0.726784 0.433543
57.4254 143.192 173.797 0.532753 -0.726784 0.433543
56.8741 142.905 173.994 0.532753 -0.726784 0.433543
58.04 143.772 173.332 0.766749 -0.431538 0.475259
57.7954 143.967 173.904 0.766749 -0.431538 0.475259
57.4254 143.192 173.797 0.766749 -0.431538 0.475259
57.9462 143.627 172.933 0.716557 -0.692579 0.0829491
58.04 143.772 173.332 0.716557 -0.692579 0.0829491
57.4254 143.192 173.797 0.716557 -0.692579 0.0829491
57.9462 143.627 172.933 0.756258 -0.6406 0.133063
57.4254 143.192 173.797 0.756258 -0.6406 0.133063
57.1936 142.863 173.53 0.756258 -0.6406 0.133063
57.9462 143.627 172.933 0.784921 -0.550348 0.284633
57.1936 142.863 173.53 0.784921 -0.550348 0.284633
57.4791 142.905 172.825 0.784921 -0.550348 0.284633
54.9892 143.832 172.817 -0.998362 -0.0571843 0.00193758
54.992 143.811 173.671 -0.998362 -0.0571843 0.00193758
54.9388 144.714 172.915 -0.998362 -0.0571843 0.00193758
54.992 143.811 173.671 -0.987316 0.0635712 0.145483
55.0707 144.859 173.748 -0.987316 0.0635712 0.145483
54.9388 144.714 172.915 -0.987316 0.0635712 0.145483
58.1557 144.46 173.281 0.897475 -0.11955 0.424554
57.7954 143.967 173.904 0.897475 -0.11955 0.424554
58.04 143.772 173.332 0.897475 -0.11955 0.424554
57.7921 144.915 173.749 0.828195 0.0932279 0.552632
57.7954 143.967 173.904 0.828195 0.0932279 0.552632
58.1557 144.46 173.281 0.828195 0.0932279 0.552632
57.9462 143.627 172.933 0.951778 -0.285954 0.11113
58.2152 144.507 172.892 0.951778 -0.285954 0.11113
58.1557 144.46 173.281 0.951778 -0.285954 0.11113
58.04 143.772 173.332 0.970714 -0.175492 -0.164062
57.9462 143.627 172.933 0.970714 -0.175492 -0.164062
58.1557 144.46 173.281 0.970714 -0.175492 -0.164062
55.0707 144.859 173.748 -0.630715 0.590112 0.503951
55.2904 145.719 173.015 -0.630715 0.590112 0.503951
54.9947 145.464 172.944 -0.630715 0.590112 0.503951
55.0707 144.859 173.748 -0.987135 0.0680766 0.14467
54.9947 145.464 172.944 -0.987135 0.0680766 0.14467
54.9388 144.714 172.915 -0.987135 0.0680766 0.14467
55.0707 144.859 173.748 -0.709905 0.552811 0.436388
55.6986 145.568 173.871 -0.709905 0.552811 0.436388
55.2904 145.719 173.015 -0.709905 0.552811 0.436388
58.0429 144.837 172.924 0.859398 0.462946 0.217062
57.7921 144.915 173.749 0.859398 0.462946 0.217062
58.1557 144.46 173.281 0.859398 0.462946 0.217062
58.0429 144.837 172.924 0.69446 0.704995 0.1439
57.3838 145.497 172.868 0.69446 0.704995 0.1439
57.7921 144.915 173.749 0.69446 0.704995 0.1439
57.3838 145.497 172.868 0.830546 0.556687 -0.0171348
57.2865 145.667 173.682 0.830546 0.556687 -0.0171348
57.7921 144.915 173.749 0.830546 0.556687 -0.0171348
58.2152 144.507 172.892 0.877995 0.440437 0.187459
58.0429 144.837 172.924 0.877995 0.440437 0.187459
58.1557 144.46 173.281 0.877995 0.440437 0.187459
55.2904 145.719 173.015 -0.444029 0.821787 0.357078
55.6986 145.568 173.871 -0.444029 0.821787 0.357078
56.0687 145.845 173.693 -0.444029 0.821787 0.357078
55.2904 145.719 173.015 -0.177771 0.983845 0.0211172
56.0687 145.845 173.693 -0.177771 0.983845 0.0211172
56.1837 145.884 172.877 -0.177771 0.983845 0.0211172
57.0463 145.84 173.048 0.0455646 0.998579 0.0276551
56.1837 145.884 172.877 0.0455646 0.998579 0.0276551
56.8511 145.829 173.736 0.0455646 0.998579 0.0276551
56.1837 145.884 172.877 0.0176364 0.998626 0.049352
56.0687 145.845 173.693 0.0176364 0.998626 0.049352
56.8511 145.829 173.736 0.0176364 0.998626 0.049352
57.2865 145.667 173.682 0.692751 0.718027 -0.0673334
57.3838 145.497 172.868 0.692751 0.718027 -0.0673334
57.0463 145.84 173.048 0.692751 0.718027 -0.0673334
56.8511 145.829 173.736 0.358971 0.926171 0.115527
57.2865 145.667 173.682 0.358971 0.926171 0.115527
57.0463 145.84 173.048 0.358971 0.926171 0.115527
56.2039 142.736 173.689 0.0102516 -0.884458 0.466506
56.043 143.035 174.258 0.0102516 -0.884458 0.466506
55.4614 142.806 173.837 0.0102516 -0.884458 0.466506
56.2039 142.736 173.689 0.0105297 -0.884423 0.466567
56.8741 142.905 173.994 0.0105297 -0.884423 0.466567
56.043 143.035 174.258 0.0105297 -0.884423 0.466567
55.221 143.072 173.918 -0.884597 -0.124128 0.449533
55.3353 143.907 174.373 -0.884597 -0.124128 0.449533
54.992 143.811 173.671 -0.884597 -0.124128 0.449533
55.221 143.072 173.918 -0.342681 -0.541715 0.767538
55.4614 142.806 173.837 -0.342681 -0.541715 0.767538
56.043 143.035 174.258 -0.342681 -0.541715 0.767538
55.221 143.072 173.918 -0.365386 -0.406677 0.837321
56.043 143.035 174.258 -0.365386 -0.406677 0.837321
55.3353 143.907 174.373 -0.365386 -0.406677 0.837321
55.3353 143.907 174.373 -0.277201 -0.343093 0.897467
56.043 143.035 174.258 -0.277201 -0.343093 0.897467
56.2431 143.887 174.646 -0.277201 -0.343093 0.897467
56.8741 142.905 173.994 0.512261 -0.509629 0.691279
57.4254 143.192 173.797 0.512261 -0.509629 0.691279
57.0292 143.61 174.399 0.512261 -0.509629 0.691279
56.8741 142.905 173.994 0.184156 -0.519597 0.83433
57.0292 143.61 174.399 0.184156 -0.519597 0.83433
56.043 143.035 174.258 0.184156 -0.519597 0.83433
56.043 143.035 174.258 0.126758 -0.435183 0.891374
57.0292 143.61 174.399 0.126758 -0.435183 0.891374
56.2431 143.887 174.646 0.126758 -0.435183 0.891374
57.4254 143.192 173.797 0.620921 -0.390272 0.679813
57.7954 143.967 173.904 0.620921 -0.390272 0.679813
57.0292 143.61 174.399 0.620921 -0.390272 0.679813
55.3353 143.907 174.373 -0.855799 0.0963377 0.508259
55.4144 144.9 174.318 -0.855799 0.0963377 0.508259
55.0707 144.859 173.748 -0.855799 0.0963377 0.508259
54.992 143.811 173.671 -0.899732 0.0359273 0.434961
55.3353 143.907 174.373 -0.899732 0.0359273 0.434961
55.0707 144.859 173.748 -0.899732 0.0359273 0.434961
56.2431 143.887 174.646 -0.285455 0.0699348 0.955837
56.1505 144.764 174.554 -0.285455 0.0699348 0.955837
55.3353 143.907 174.373 -0.285455 0.0699348 0.955837
56.1505 144.764 174.554 -0.291316 0.0759871 0.953604
55.4144 144.9 174.318 -0.291316 0.0759871 0.953604
55.3353 143.907 174.373 -0.291316 0.0759871 0.953604
57.0292 143.61 174.399 0.281216 -0.0560272 0.958008
57.1063 144.57 174.432 0.281216 -0.0560272 0.958008
56.2431 143.887 174.646 0.281216 -0.0560272 0.958008
57.1063 144.57 174.432 0.149035 0.118535 0.981702
56.1505 144.764 174.554 0.149035 0.118535 0.981702
56.2431 143.887 174.646 0.149035 0.118535 0.981702
57.7954 143.967 173.904 0.668956 0.122194 0.733189
57.7921 144.915 173.749 0.668956 0.122194 0.733189
57.1063 144.57 174.432 0.668956 0.122194 0.733189
57.0292 143.61 174.399 0.565173 -0.0741062 0.821637
57.7954 143.967 173.904 0.565173 -0.0741062 0.821637
57.1063 144.57 174.432 0.565173 -0.0741062 0.821637
55.6986 145.568 173.871 -0.721169 0.570269 0.39333
55.0707 144.859 173.748 -0.721169 0.570269 0.39333
55.4144 144.9 174.318 -0.721169 0.570269 0.39333
55.6986 145.568 173.871 -0.356851 0.619935 0.698811
55.4144 144.9 174.318 -0.356851 0.619935 0.698811
56.1767 145.588 174.097 -0.356851 0.619935 0.698811
56.1767 145.588 174.097 -0.185487 0.480846 0.856961
55.4144 144.9 174.318 -0.185487 0.480846 0.856961
56.1505 144.764 174.554 -0.185487 0.480846 0.856961
57.1063 144.57 174.432 0.190195 0.365479 0.911181
57.032 145.473 174.086 0.190195 0.365479 0.911181
56.1505 144.764 174.554 0.190195 0.365479 0.911181
57.032 145.473 174.086 0.0766165 0.481462 0.873112
56.1767 145.588 174.097 0.0766165 0.481462 0.873112
56.1505 144.764 174.554 0.0766165 0.481462 0.873112
57.7921 144.915 173.749 0.623422 0.474423 0.621505
57.2865 145.667 173.682 0.623422 0.474423 0.621505
57.032 145.473 174.086 0.623422 0.474423 0.621505
57.1063 144.57 174.432 0.575557 0.33392 0.74648
57.7921 144.915 173.749 0.575557 0.33392 0.74648
57.032 145.473 174.086 0.575557 0.33392 0.74648
55.6986 145.568 173.871 -0.300878 0.766089 0.567961
56.1767 145.588 174.097 -0.300878 0.766089 0.567961
56.0687 145.845 173.693 -0.300878 0.766089 0.567961
56.8511 145.829 173.736 -0.0125206 0.842023 0.539297
56.0687 145.845 173.693 -0.0125206 0.842023 0.539297
56.1767 145.588 174.097 -0.0125206 0.842023 0.539297
57.032 145.473 174.086 0.10642 0.723567 0.682001
56.8511 145.829 173.736 0.10642 0.723567 0.682001
56.1767 145.588 174.097 0.10642 0.723567 0.682001
57.2865 145.667 173.682 0.346753 0.74086 0.57523
56.8511 145.829 173.736 0.346753 0.74086 0.57523
57.032 145.473 174.086 0.346753 0.74086 0.57523
3 0 1 2
3 3 4 5
3 6 7 8
3 9 10 11
3 12 13 14
3 15 16 17
3 18 19 20
3 21 22 23
3 24 25 26
3 27 28 29
3 30 31 32
3 33 34 35
3 36 37 38
3 39 40 41
3 42 43 44
3 45 46 47
3 48 49 50
3 51 52 53
3 54 55 56
3 57 58 59
3 60 61 62
3 63 64 65
3 66 67 68
3 69 70 71
3 72 73 74
3 75 76 77
3 78 79 80
3 81 82 83
3 84 85 86
3 87 88 89
3 90 91 92
3 93 94 95
3 96 97 98
3 99 100 101
3 102 103 104
3 105 106 107
3 108 109 110
3 111 112 113
3 114 115 116
3 117 118 119
3 120 121 122
3 123 124 125
3 126 127 128
3 129 130 131
3 132 133 134
3 135 136 137
3 138 139 140
3 141 142 143
3 144 145 146
3 147 148 149
3 150 151 152
3 153 154 155
3 156 157 158
3 159 160 161
3 162 163 164
3 165 166 167
3 168 169 170
3 171 172 173
3 174 175 176
3 177 178 179
3 180 181 182
3 183 184 185
3 186 187 188
3 189 190 191
3 192 193 194
3 195 196 197
3 198 199 200
3 201 202 203
3 204 205 206
3 207 208 209
3 210 211 212
3 213 214 215
3 216 217 218
3 219 220 221
3 222 223 224
3 225 226 227
3 228 229 230
3 231 232 233
3 234 235 236
3 237 238 239
3 240 241 242
3 243 244 245
3 246 247 248
3 249 250 251
3 252 253 254
3 255 256 257
3 258 259 260
3 261 262 263
3 264 265 266
3 267 268 269
3 270 271 272
3 273 274 275
3 276 277 278
3 279 280 281
3 282 283 284
3 285 286 287
3 288 289 290
3 291 292 293
3 294 295 296
3 297 298 299
3 300 301 302
3 303 304 305
3 306 307 308
3 309 310 311
3 312 313 314
3 315 316 317
3 318 319 320
3 321 322 323
3 324 325 326
3 327 328 329
3 330 331 332
3 333 334 335
3 336 337 338
3 339 340 341
3 342 343 344
3 345 346 347
