ply
format ascii 1.0
element vertex 366
property float x
property float y
property float z
property float nx
property float ny
property float nz
element face 122
property list uint uint vertex_indices
end_header
118.973 137.481 172.022 0.0137463 -0.389823 -0.920787
119.858 137.704 171.941 0.0137463 -0.389823 -0.920787
119.811 137.112 172.19 0.0137463 -0.389823 -0.920787
119.811 137.112 172.19 0.292567 -0.391277 -0.872529
119.858 137.704 171.941 0.292567 -0.391277 -0.872529
120.311 137.583 172.147 0.292567 -0.391277 -0.872529
118.805 138.416 171.867 -0.126006 -0.183655 -0.974881
118.973 137.481 172.022 -0.126006 -0.183655 -0.974881
118.462 137.855 172.017 -0.126006 -0.183655 -0.974881
118.168 138.716 171.948 -0.19035 -0.143282 -0.971204
118.805 138.416 171.867 -0.19035 -0.143282 -0.971204
118.462 137.855 172.017 -0.19035 -0.143282 -0.971204
119.858 137.704 171.941 -0.0743206 -0.066772 -0.994996
118.973 137.481 172.022 -0.0743206 -0.066772 -0.994996
119.605 138.57 171.901 -0.0743206 -0.066772 -0.994996
119.605 138.57 171.901 0.0710946 -0.150168 -0.986101
118.973 137.481 172.022 0.0710946 -0.150168 -0.986101
118.805 138.416 171.867 0.0710946 -0.150168 -0.986101
120.38 138.478 172.16 0.410077 -0.0177192 -0.911879
120.311 137.583 172.147 0.410077 -0.0177192 -0.911879
119.858 137.704 171.941 0.410077 -0.0177192 -0.911879
119.605 138.57 171.901 0.322049 0.0511128 -0.945342
120.38 138.478 172.16 0.322049 0.0511128 -0.945342
119.858 137.704 171.941 0.322049 0.0511128 -0.945342
118.807 139.273 171.904 -0.105794 0.0425608 -0.993477
118.805 138.416 171.867 -0.105794 0.0425608 -0.993477
118.168 138.716 171.948 -0.105794 0.0425608 -0.993477
118.328 139.419 171.961 -0.10565 0.042394 -0.993499
118.807 139.273 171.904 -0.10565 0.042394 -0.993499
118.168 138.716 171.948 -0.10565 0.042394 -0.993499
119.343 139.575 172.116 0.0946788 0.231811 -0.968142
119.952 139.159 172.076 0.0946788 0.231811 -0.968142
119.605 138.57 171.901 0.0946788 0.231811 -0.968142
119.343 139.575 172.116 0.22611 0.259794 -0.938819
119.605 138.57 171.901 0.22611 0.259794 -0.938819
118.807 139.273 171.904 0.22611 0.259794 -0.938819
118.807 139.273 171.904 0.0344511 0.0424078 -0.998506
119.605 138.57 171.901 0.0344511 0.0424078 -0.998506
118.805 138.416 171.867 0.0344511 0.0424078 -0.998506
120.38 138.478 172.16 0.32516 0.0880066 -0.941555
119.605 138.57 171.901 0.32516 0.0880066 -0.941555
119.952 139.159 172.076 0.32516 0.0880066 -0.941555
118.807 139.273 171.904 0.0384705 0.471691 -0.880924
118.328 139.419 171.961 0.0384705 0.471691 -0.880924
118.621 139.766 172.16 0.0384705 0.471691 -0.880924
119.343 139.575 172.116 0.0751991 0.48154 -0.873192
118.807 139.273 171.904 0.0751991 0.48154 -0.873192
118.621 139.766 172.16 0.0751991 0.48154 -0.873192
117.955 136.693 172.833 -0.477035 -0.84909 0.226898
118.185 136.639 173.114 -0.477035 -0.84909 0.226898
117.69 136.888 173.005 -0.477035 -0.84909 0.226898
117.955 136.693 172.833 -0.0202978 -0.984639 -0.17342
118.857 136.731 172.513 -0.0202978 -0.984639 -0.17342
118.185 136.639 173.114 -0.0202978 -0.984639 -0.17342
118.857 136.731 172.513 -0.0859907 -0.995629 0.0364518
119.672 136.66 172.507 -0.0859907 -0.995629 0.0364518
119.758 136.663 172.786 -0.0859907 -0.995629 0.0364518
118.185 136.639 173.114 -0.021257 -0.984434 -0.174463
118.857 136.731 172.513 -0.021257 -0.984434 -0.174463
119.758 136.663 172.786 -0.021257 -0.984434 -0.174463
117.994 137.371 172.582 -0.644657 -0.231829 -0.728473
117.955 136.693 172.833 -0.644657 -0.231829 -0.728473
117.69 136.888 173.005 -0.644657 -0.231829 -0.728473
117.571 137.64 172.912 -0.677216 -0.19472 -0.709551
117.994 137.371 172.582 -0.677216 -0.19472 -0.709551
117.69 136.888 173.005 -0.677216 -0.19472 -0.709551
118.973 137.481 172.022 -0.377661 -0.525071 -0.762674
117.994 137.371 172.582 -0.377661 -0.525071 -0.762674
118.462 137.855 172.017 -0.377661 -0.525071 -0.762674
118.973 137.481 172.022 -0.402518 -0.45761 -0.792826
118.857 136.731 172.513 -0.402518 -0.45761 -0.792826
117.994 137.371 172.582 -0.402518 -0.45761 -0.792826
118.857 136.731 172.513 -0.304822 -0.314495 -0.898986
117.955 136.693 172.833 -0.304822 -0.314495 -0.898986
117.994 137.371 172.582 -0.304822 -0.314495 -0.898986
119.811 137.112 172.19 -0.0684197 -0.539458 -0.839228
118.857 136.731 172.513 -0.0684197 -0.539458 -0.839228
118.973 137.481 172.022 -0.0684197 -0.539458 -0.839228
119.672 136.66 172.507 -0.054783 -0.561848 -0.825424
118.857 136.731 172.513 -0.054783 -0.561848 -0.825424
119.811 137.112 172.19 -0.054783 -0.561848 -0.825424
120.311 137.583 172.147 0.685674 -0.553732 -0.472474
120.805 137.795 172.614 0.685674 -0.553732 -0.472474
120.5 137.209 172.859 0.685674 -0.553732 -0.472474
119.811 137.112 172.19 0.572674 -0.653566 -0.49487
120.311 137.583 172.147 0.572674 -0.653566 -0.49487
120.5 137.209 172.859 0.572674 -0.653566 -0.49487
119.811 137.112 172.19 0.552955 -0.688318 -0.469532
120.5 137.209 172.859 0.552955 -0.688318 -0.469532
119.758 136.663 172.786 0.552955 -0.688318 -0.469532
119.811 137.112 172.19 0.857088 -0.445379 -0.258917
119.758 136.663 172.786 0.857088 -0.445379 -0.258917
119.672 136.66 172.507 0.857088 -0.445379 -0.258917
120.5 137.209 172.859 0.887416 -0.460967 0.00154684
120.805 137.795 172.614 0.887416 -0.460967 0.00154684
120.749 137.69 173.19 0.887416 -0.460967 0.00154684
117.82 138.342 172.256 -0.702961 -0.336422 -0.626631
117.994 137.371 172.582 -0.702961 -0.336422 -0.626631
117.571 137.64 172.912 -0.702961 -0.336422 -0.626631
117.476 138.521 172.973 -0.90638 -0.0684013 -0.416889
117.82 138.342 172.256 -0.90638 -0.0684013 -0.416889
117.571 137.64 172.912 -0.90638 -0.0684013 -0.416889
118.462 137.855 172.017 -0.490537 -0.235221 -0.839074
117.82 138.342 172.256 -0.490537 -0.235221 -0.839074
118.168 138.716 171.948 -0.490537 -0.235221 -0.839074
117.994 137.371 172.582 -0.549462 -0.352845 -0.757359
117.82 138.342 172.256 -0.549462 -0.352845 -0.757359
118.462 137.855 172.017 -0.549462 -0.352845 -0.757359
120.805 137.795 172.614 0.624481 -0.124175 -0.771106
120.38 138.478 172.16 0.624481 -0.124175 -0.771106
120.869 138.454 172.56 0.624481 -0.124175 -0.771106
120.311 137.583 172.147 0.696573 -0.0428829 -0.716203
120.38 138.478 172.16 0.696573 -0.0428829 -0.716203
120.805 137.795 172.614 0.696573 -0.0428829 -0.716203
120.944 138.372 172.904 0.965422 -0.256512 0.0464988
120.749 137.69 173.19 0.965422 -0.256512 0.0464988
120.805 137.795 172.614 0.965422 -0.256512 0.0464988
120.869 138.454 172.56 0.96486 -0.113902 -0.236795
120.944 138.372 172.904 0.96486 -0.113902 -0.236795
120.805 137.795 172.614 0.96486 -0.113902 -0.236795
117.869 139.354 172.295 -0.894367 0.0602633 -0.443256
117.82 138.342 172.256 -0.894367 0.0602633 -0.443256
117.476 138.521 172.973 -0.894367 0.0602633 -0.443256
117.546 139.408 173.167 -0.92416 0.148832 -0.351819
117.869 139.354 172.295 -0.92416 0.148832 -0.351819
117.476 138.521 172.973 -0.92416 0.148832 -0.351819
118.168 138.716 171.948 -0.595556 0.150224 -0.789143
117.869 139.354 172.295 -0.595556 0.150224 -0.789143
118.328 139.419 171.961 -0.595556 0.150224 -0.789143
117.82 138.342 172.256 -0.697844 0.0612349 -0.713627
117.869 139.354 172.295 -0.697844 0.0612349 -0.713627
118.168 138.716 171.948 -0.697844 0.0612349 -0.713627
119.952 139.159 172.076 0.238312 0.432674 -0.869483
119.343 139.575 172.116 0.238312 0.432674 -0.869483
119.914 139.587 172.279 0.238312 0.432674 -0.869483
119.952 139.159 172.076 0.705902 0.352896 -0.61414
119.914 139.587 172.279 0.705902 0.352896 -0.61414
120.467 139.352 172.779 0.705902 0.352896 -0.61414
120.38 138.478 172.16 0.700489 0.364737 -0.613418
119.952 139.159 172.076 0.700489 0.364737 -0.613418
120.467 139.352 172.779 0.700489 0.364737 -0.613418
120.38 138.478 172.16 0.588365 0.427567 -0.686304
120.467 139.352 172.779 0.588365 0.427567 -0.686304
120.839 138.872 172.799 0.588365 0.427567 -0.686304
120.38 138.478 172.16 0.582791 0.434611 -0.686635
120.839 138.872 172.799 0.582791 0.434611 -0.686635
120.869 138.454 172.56 0.582791 0.434611 -0.686635
120.944 138.372 172.904 0.970986 0.167122 -0.171042
120.869 138.454 172.56 0.970986 0.167122 -0.171042
120.839 138.872 172.799 0.970986 0.167122 -0.171042
117.869 139.354 172.295 -0.787618 0.523849 -0.324407
117.546 139.408 173.167 -0.787618 0.523849 -0.324407
118.036 140.027 172.975 -0.787618 0.523849 -0.324407
118.621 139.766 172.16 -0.0861467 0.929341 -0.359033
118.036 140.027 172.975 -0.0861467 0.929341 -0.359033
119.018 140.128 173.0 -0.0861467 0.929341 -0.359033
118.621 139.766 172.16 -0.473838 0.681439 -0.55778
117.869 139.354 172.295 -0.473838 0.681439 -0.55778
118.036 140.027 172.975 -0.473838 0.681439 -0.55778
118.621 139.766 172.16 -0.48015 0.704446 -0.522696
118.328 139.419 171.961 -0.48015 0.704446 -0.522696
117.869 139.354 172.295 -0.48015 0.704446 -0.522696
119.343 139.575 172.116 0.200872 0.861896 -0.465602
118.621 139.766 172.16 0.200872 0.861896 -0.465602
119.018 140.128 173.0 0.200872 0.861896 -0.465602
119.343 139.575 172.116 0.0371615 0.853137 -0.520362
119.018 140.128 173.0 0.0371615 0.853137 -0.520362
119.804 139.971 172.799 0.0371615 0.853137 -0.520362
119.343 139.575 172.116 0.14417 0.810481 -0.567746
119.804 139.971 172.799 0.14417 0.810481 -0.567746
119.914 139.587 172.279 0.14417 0.810481 -0.567746
120.467 139.352 172.779 0.627514 0.684205 -0.371605
119.914 139.587 172.279 0.627514 0.684205 -0.371605
119.804 139.971 172.799 0.627514 0.684205 -0.371605
118.185 136.639 173.114 0.022058 -0.999233 0.0323543
119.758 136.663 172.786 0.022058 -0.999233 0.0323543
119.569 136.675 173.286 0.022058 -0.999233 0.0323543
118.698 136.589 173.617 0.0433777 -0.989058 -0.141003
118.185 136.639 173.114 0.0433777 -0.989058 -0.141003
119.569 136.675 173.286 0.0433777 -0.989058 -0.141003
118.185 136.639 173.114 -0.688271 -0.717669 0.105997
118.038 136.901 173.937 -0.688271 -0.717669 0.105997
117.308 137.574 173.75 -0.688271 -0.717669 0.105997
118.185 136.639 173.114 -0.47823 -0.754385 0.449665
117.308 137.574 173.75 -0.47823 -0.754385 0.449665
117.69 136.888 173.005 -0.47823 -0.754385 0.449665
117.69 136.888 173.005 -0.933214 -0.18496 -0.30806
117.308 137.574 173.75 -0.933214 -0.18496 -0.30806
117.571 137.64 172.912 -0.933214 -0.18496 -0.30806
118.698 136.589 173.617 -0.319388 -0.917805 0.235849
118.038 136.901 173.937 -0.319388 -0.917805 0.235849
118.185 136.639 173.114 -0.319388 -0.917805 0.235849
119.015 136.85 173.913 -0.0221486 -0.737812 0.674643
118.038 136.901 173.937 -0.0221486 -0.737812 0.674643
118.698 136.589 173.617 -0.0221486 -0.737812 0.674643
119.569 136.675 173.286 0.260385 -0.84511 0.466892
119.015 136.85 173.913 0.260385 -0.84511 0.466892
118.698 136.589 173.617 0.260385 -0.84511 0.466892
119.981 137.208 173.701 0.393591 -0.733814 0.553718
119.015 136.85 173.913 0.393591 -0.733814 0.553718
119.569 136.675 173.286 0.393591 -0.733814 0.553718
120.749 137.69 173.19 0.672362 -0.441406 0.594214
120.246 137.817 173.854 0.672362 -0.441406 0.594214
119.981 137.208 173.701 0.672362 -0.441406 0.594214
120.5 137.209 172.859 0.664493 -0.625773 0.408482
120.749 137.69 173.19 0.664493 -0.625773 0.408482
119.981 137.208 173.701 0.664493 -0.625773 0.408482
120.5 137.209 172.859 0.583384 -0.728824 0.35844
119.981 137.208 173.701 0.583384 -0.728824 0.35844
119.569 136.675 173.286 0.583384 -0.728824 0.35844
120.5 137.209 172.859 0.562344 -0.793888 0.231326
119.569 136.675 173.286 0.562344 -0.793888 0.231326
119.758 136.663 172.786 0.562344 -0.793888 0.231326
117.571 137.64 172.912 -0.948979 -0.0808532 -0.304797
117.308 137.574 173.75 -0.948979 -0.0808532 -0.304797
117.476 138.521 172.973 -0.948979 -0.0808532 -0.304797
117.308 137.574 173.75 -0.910967 -0.152101 -0.383412
117.105 138.629 173.813 -0.910967 -0.152101 -0.383412
117.476 138.521 172.973 -0.910967 -0.152101 -0.383412
120.722 138.592 173.321 0.789218 -0.0653028 0.610632
120.246 137.817 173.854 0.789218 -0.0653028 0.610632
120.749 137.69 173.19 0.789218 -0.0653028 0.610632
120.247 138.685 173.88 0.760202 -0.0207888 0.649354
120.246 137.817 173.854 0.760202 -0.0207888 0.649354
120.722 138.592 173.321 0.760202 -0.0207888 0.649354
120.749 137.69 173.19 0.871831 -0.0450905 0.487727
120.944 138.372 172.904 0.871831 -0.0450905 0.487727
120.722 138.592 173.321 0.871831 -0.0450905 0.487727
117.476 138.521 172.973 -0.894858 0.160629 -0.416447
117.105 138.629 173.813 -0.894858 0.160629 -0.416447
117.546 139.408 173.167 -0.894858 0.160629 -0.416447
117.105 138.629 173.813 -0.896296 0.434826 -0.087068
117.386 139.262 174.081 -0.896296 0.434826 -0.087068
117.546 139.408 173.167 -0.896296 0.434826 -0.087068
120.247 138.685 173.88 0.581155 0.486684 0.652225
119.984 139.492 173.512 0.581155 0.486684 0.652225
119.551 139.478 173.908 0.581155 0.486684 0.652225
120.722 138.592 173.321 0.709182 0.470486 0.525074
119.984 139.492 173.512 0.709182 0.470486 0.525074
120.247 138.685 173.88 0.709182 0.470486 0.525074
120.722 138.592 173.321 0.750043 0.53226 0.3926
120.467 139.352 172.779 0.750043 0.53226 0.3926
119.984 139.492 173.512 0.750043 0.53226 0.3926
120.722 138.592 173.321 0.693873 0.557997 0.45517
120.839 138.872 172.799 0.693873 0.557997 0.45517
120.467 139.352 172.779 0.693873 0.557997 0.45517
120.944 138.372 172.904 0.90265 0.260655 0.342464
120.839 138.872 172.799 0.90265 0.260655 0.342464
120.722 138.592 173.321 0.90265 0.260655 0.342464
117.546 139.408 173.167 -0.730085 0.68311 -0.0183735
117.386 139.262 174.081 -0.730085 0.68311 -0.0183735
117.799 139.695 173.794 -0.730085 0.68311 -0.0183735
118.036 140.027 172.975 -0.779286 0.626059 0.0276351
117.546 139.408 173.167 -0.779286 0.626059 0.0276351
117.799 139.695 173.794 -0.779286 0.626059 0.0276351
119.018 140.128 173.0 -0.104435 0.984167 0.143209
118.036 140.027 172.975 -0.104435 0.984167 0.143209
118.608 139.961 173.849 -0.104435 0.984167 0.143209
118.036 140.027 172.975 -0.316283 0.907647 0.275939
117.799 139.695 173.794 -0.316283 0.907647 0.275939
118.608 139.961 173.849 -0.316283 0.907647 0.275939
119.551 139.478 173.908 0.406693 0.839014 0.361465
119.018 140.128 173.0 0.406693 0.839014 0.361465
118.608 139.961 173.849 0.406693 0.839014 0.361465
119.984 139.492 173.512 0.343507 0.847531 0.404592
119.018 140.128 173.0 0.343507 0.847531 0.404592
119.551 139.478 173.908 0.343507 0.847531 0.404592
119.984 139.492 173.512 0.288457 0.826879 0.482767
119.804 139.971 172.799 0.288457 0.826879 0.482767
119.018 140.128 173.0 0.288457 0.826879 0.482767
120.467 139.352 172.779 0.65578 0.692887 0.299768
119.804 139.971 172.799 0.65578 0.692887 0.299768
119.984 139.492 173.512 0.65578 0.692887 0.299768
118.038 136.901 173.937 -0.632196 -0.529331 0.565806
117.861 137.744 174.527 -0.632196 -0.529331 0.565806
117.308 137.574 173.75 -0.632196 -0.529331 0.565806
118.038 136.901 173.937 -0.00962043 -0.568863 0.822376
119.015 136.85 173.913 -0.00962043 -0.568863 0.822376
118.796 137.574 174.411 -0.00962043 -0.568863 0.822376
117.861 137.744 174.527 -0.00254516 -0.574233 0.818688
118.038 136.901 173.937 -0.00254516 -0.574233 0.818688
118.796 137.574 174.411 -0.00254516 -0.574233 0.818688
119.015 136.85 173.913 0.379067 -0.611095 0.694889
119.981 137.208 173.701 0.379067 -0.611095 0.694889
119.672 137.52 174.143 0.379067 -0.611095 0.694889
118.796 137.574 174.411 0.223503 -0.505851 0.833163
119.015 136.85 173.913 0.223503 -0.505851 0.833163
119.672 137.52 174.143 0.223503 -0.505851 0.833163
119.981 137.208 173.701 0.573734 -0.42527 0.699982
120.246 137.817 173.854 0.573734 -0.42527 0.699982
119.672 137.52 174.143 0.573734 -0.42527 0.699982
117.861 137.744 174.527 -0.575895 -0.3744 0.726753
117.82 138.436 174.852 -0.575895 -0.3744 0.726753
117.48 138.448 174.588 -0.575895 -0.3744 0.726753
117.861 137.744 174.527 -0.691196 -0.424419 0.584907
117.48 138.448 174.588 -0.691196 -0.424419 0.584907
117.308 137.574 173.75 -0.691196 -0.424419 0.584907
117.308 137.574 173.75 -0.899918 -0.195799 0.389628
117.48 138.448 174.588 -0.899918 -0.195799 0.389628
117.105 138.629 173.813 -0.899918 -0.195799 0.389628
117.82 138.436 174.852 0.240256 -0.0635804 0.968625
118.537 138.529 174.68 0.240256 -0.0635804 0.968625
117.912 138.699 174.846 0.240256 -0.0635804 0.968625
117.82 138.436 174.852 0.262342 -0.396819 0.879609
117.861 137.744 174.527 0.262342 -0.396819 0.879609
118.537 138.529 174.68 0.262342 -0.396819 0.879609
117.861 137.744 174.527 0.0742982 -0.251523 0.964995
118.796 137.574 174.411 0.0742982 -0.251523 0.964995
118.537 138.529 174.68 0.0742982 -0.251523 0.964995
119.672 137.52 174.143 0.279684 -0.158813 0.946866
119.626 138.46 174.314 0.279684 -0.158813 0.946866
118.796 137.574 174.411 0.279684 -0.158813 0.946866
119.626 138.46 174.314 0.302556 -0.18145 0.935701
118.537 138.529 174.68 0.302556 -0.18145 0.935701
118.796 137.574 174.411 0.302556 -0.18145 0.935701
120.246 137.817 173.854 0.578953 -0.0254075 0.814965
120.247 138.685 173.88 0.578953 -0.0254075 0.814965
119.626 138.46 174.314 0.578953 -0.0254075 0.814965
119.672 137.52 174.143 0.499818 -0.131269 0.856125
120.246 137.817 173.854 0.499818 -0.131269 0.856125
119.626 138.46 174.314 0.499818 -0.131269 0.856125
117.674 138.788 174.764 -0.520662 0.582604 0.624086
117.956 139.353 174.471 -0.520662 0.582604 0.624086
117.386 139.262 174.081 -0.520662 0.582604 0.624086
117.674 138.788 174.764 -0.836635 0.216317 0.503238
117.386 139.262 174.081 -0.836635 0.216317 0.503238
117.48 138.448 174.588 -0.836635 0.216317 0.503238
117.48 138.448 174.588 -0.866213 0.187829 0.463029
117.386 139.262 174.081 -0.866213 0.187829 0.463029
117.105 138.629 173.813 -0.866213 0.187829 0.463029
117.912 138.699 174.846 -0.109096 0.499557 0.859384
117.956 139.353 174.471 -0.109096 0.499557 0.859384
117.674 138.788 174.764 -0.109096 0.499557 0.859384
117.912 138.699 174.846 0.341548 0.450127 0.825064
118.537 138.529 174.68 0.341548 0.450127 0.825064
117.956 139.353 174.471 0.341548 0.450127 0.825064
118.537 138.529 174.68 0.0655563 0.288389 0.955266
118.865 139.35 174.41 0.0655563 0.288389 0.955266
117.956 139.353 174.471 0.0655563 0.288389 0.955266
119.551 139.478 173.908 0.50899 0.350983 0.785964
118.865 139.35 174.41 0.50899 0.350983 0.785964
119.626 138.46 174.314 0.50899 0.350983 0.785964
119.626 138.46 174.314 0.323294 0.176926 0.929612
118.865 139.35 174.41 0.323294 0.176926 0.929612
118.537 138.529 174.68 0.323294 0.176926 0.929612
120.247 138.685 173.88 0.443737 0.360016 0.820662
119.551 139.478 173.908 0.443737 0.360016 0.820662
119.626 138.46 174.314 0.443737 0.360016 0.820662
117.386 139.262 174.081 -0.451431 0.749988 0.483455
117.956 139.353 174.471 -0.451431 0.749988 0.483455
117.799 139.695 173.794 -0.451431 0.749988 0.483455
118.608 139.961 173.849 -0.30199 0.820886 0.484715
117.799 139.695 173.794 -0.30199 0.820886 0.484715
117.956 139.353 174.471 -0.30199 0.820886 0.484715
118.865 139.35 174.41 0.0515248 0.687005 0.724823
118.608 139.961 173.849 0.0515248 0.687005 0.724823
117.956 139.353 174.471 0.0515248 0.687005 0.724823
119.551 139.478 173.908 0.324112 0.710134 0.62503
118.608 139.961 173.849 0.324112 0.710134 0.62503
118.865 139.35 174.41 0.324112 0.710134 0.62503
117.48 138.448 174.588 -0.61245 -0.0585109 0.788341
117.82 138.436 174.852 -0.61245 -0.0585109 0.788341
117.674 138.788 174.764 -0.61245 -0.0585109 0.788341
117.912 138.699 174.846 -0.283029 0.119104 0.951687
117.674 138.788 174.764 -0.283029 0.119104 0.951687
117.82 138.436 174.852 -0.283029 0.119104 0.951687
3 0 1 2
3 3 4 5
3 6 7 8
3 9 10 11
3 12 13 14
3 15 16 17
3 18 19 20
3 21 22 23
3 24 25 26
3 27 28 29
3 30 31 32
3 33 34 35
3 36 37 38
3 39 40 41
3 42 43 44
3 45 46 47
3 48 49 50
3 51 52 53
3 54 55 56
3 57 58 59
3 60 61 62
3 63 64 65
3 66 67 68
3 69 70 71
3 72 73 74
3 75 76 77
3 78 79 80
3 81 82 83
3 84 85 86
3 87 88 89
3 90 91 92
3 93 94 95
3 96 97 98
3 99 100 101
3 102 103 104
3 105 106 107
3 108 109 110
3 111 112 113
3 114 115 116
3 117 118 119
3 120 121 122
3 123 124 125
3 126 127 128
3 129 130 131
3 132 133 134
3 135 136 137
3 138 139 140
3 141 142 143
3 144 145 146
3 147 148 149
3 150 151 152
3 153 154 155
3 156 157 158
3 159 160 161
3 162 163 164
3 165 166 167
3 168 169 170
3 171 172 173
3 174 175 176
3 177 178 179
3 180 181 182
3 183 184 185
3 186 187 188
3 189 190 191
3 192 193 194
3 195 196 197
3 198 199 200
3 201 202 203
3 204 205 206
3 207 208 209
3 210 211 212
3 213 214 215
3 216 217 218
3 219 220 221
3 222 223 224
3 225 226 227
3 228 229 230
3 231 232 233
3 234 235 236
3 237 238 239
3 240 241 242
3 243 244 245
3 246 247 248
3 249 250 251
3 252 253 254
3 255 256 257
3 258 259 260
3 261 262 263
3 264 265 266
3 267 268 269
3 270 271 272
3 273 274 275
3 276 277 278
3 279 280 281
3 282 283 284
3 285 286 287
3 288 289 290
3 291 292 293
3 294 295 296
3 297 298 299
3 300 301 302
3 303 304 305
3 306 307 308
3 309 310 311
3 312 313 314
3 315 316 317
3 318 319 320
3 321 322 323
3 324 325 326
3 327 328 329
3 330 331 332
3 333 334 335
3 336 337 338
3 339 340 341
3 342 343 344
3 345 346 347
3 348 349 350
3 351 352 353
3 354 355 356
3 357 358 359
3 360 361 362
3 363 364 365
