ply
format ascii 1.0
element vertex 300
property float x
property float y
property float z
property float nx
property float ny
property float nz
element face 100
property list uint uint vertex_indices
end_header
114.192 127.011 160.848 0.141657 -0.631729 -0.762136
114.381 127.49 160.486 0.141657 -0.631729 -0.762136
114.735 127.222 160.774 0.141657 -0.631729 -0.762136
114.033 128.249 160.61 -0.555121 -0.121133 -0.822902
114.576 128.274 160.239 -0.555121 -0.121133 -0.822902
114.381 127.49 160.486 -0.555121 -0.121133 -0.822902
115.248 127.784 160.554 0.245812 -0.540261 -0.804795
114.735 127.222 160.774 0.245812 -0.540261 -0.804795
114.381 127.49 160.486 0.245812 -0.540261 -0.804795
115.248 127.784 160.554 0.240348 -0.520854 -0.819111
114.381 127.49 160.486 0.240348 -0.520854 -0.819111
115.266 128.205 160.291 0.240348 -0.520854 -0.819111
115.266 128.205 160.291 0.0402483 -0.30911 -0.950174
114.381 127.49 160.486 0.0402483 -0.30911 -0.950174
114.576 128.274 160.239 0.0402483 -0.30911 -0.950174
115.248 127.784 160.554 0.667599 -0.414 -0.618801
115.266 128.205 160.291 0.667599 -0.414 -0.618801
115.577 128.142 160.669 0.667599 -0.414 -0.618801
114.279 128.958 160.529 -0.563217 0.103118 -0.819849
114.576 128.274 160.239 -0.563217 0.103118 -0.819849
114.033 128.249 160.61 -0.563217 0.103118 -0.819849
115.266 128.205 160.291 0.0481353 -0.243882 -0.96861
114.576 128.274 160.239 0.0481353 -0.243882 -0.96861
115.157 128.948 160.099 0.0481353 -0.243882 -0.96861
115.157 128.948 160.099 -0.430953 0.187066 -0.882771
114.576 128.274 160.239 -0.430953 0.187066 -0.882771
114.279 128.958 160.529 -0.430953 0.187066 -0.882771
115.561 128.821 160.595 0.766771 -0.0521415 -0.6398
115.577 128.142 160.669 0.766771 -0.0521415 -0.6398
115.266 128.205 160.291 0.766771 -0.0521415 -0.6398
115.157 128.948 160.099 0.767341 -0.052779 -0.639063
115.561 128.821 160.595 0.767341 -0.052779 -0.639063
115.266 128.205 160.291 0.767341 -0.052779 -0.639063
115.157 128.948 160.099 -0.308508 0.69824 -0.645976
114.279 128.958 160.529 -0.308508 0.69824 -0.645976
114.595 129.267 160.712 -0.308508 0.69824 -0.645976
115.352 129.189 160.651 0.0609733 0.906952 -0.416798
115.157 128.948 160.099 0.0609733 0.906952 -0.416798
114.595 129.267 160.712 0.0609733 0.906952 -0.416798
115.561 128.821 160.595 0.732975 0.489588 -0.472283
115.157 128.948 160.099 0.732975 0.489588 -0.472283
115.352 129.189 160.651 0.732975 0.489588 -0.472283
113.434 127.302 161.36 -0.610624 -0.309791 -0.728813
114.381 127.49 160.486 -0.610624 -0.309791 -0.728813
114.192 127.011 160.848 -0.610624 -0.309791 -0.728813
113.434 127.302 161.36 -0.545549 -0.743986 -0.385825
114.192 127.011 160.848 -0.545549 -0.743986 -0.385825
113.648 126.974 161.689 -0.545549 -0.743986 -0.385825
113.648 126.974 161.689 -0.071485 -0.99334 -0.0903654
114.192 127.011 160.848 -0.071485 -0.99334 -0.0903654
114.469 126.931 161.508 -0.071485 -0.99334 -0.0903654
114.469 126.931 161.508 0.321393 -0.914475 -0.24585
114.192 127.011 160.848 0.321393 -0.914475 -0.24585
114.735 127.222 160.774 0.321393 -0.914475 -0.24585
114.942 127.158 161.544 0.437227 -0.879071 -0.189914
114.469 126.931 161.508 0.437227 -0.879071 -0.189914
114.735 127.222 160.774 0.437227 -0.879071 -0.189914
113.167 128.005 161.655 -0.844607 -0.0996171 -0.526038
113.503 128.017 161.114 -0.844607 -0.0996171 -0.526038
113.434 127.302 161.36 -0.844607 -0.0996171 -0.526038
114.381 127.49 160.486 -0.638852 -0.171437 -0.749985
113.503 128.017 161.114 -0.638852 -0.171437 -0.749985
114.033 128.249 160.61 -0.638852 -0.171437 -0.749985
113.434 127.302 161.36 -0.644379 -0.192441 -0.740096
113.503 128.017 161.114 -0.644379 -0.192441 -0.740096
114.381 127.49 160.486 -0.644379 -0.192441 -0.740096
114.735 127.222 160.774 0.675963 -0.697083 -0.23906
115.37 127.67 161.264 0.675963 -0.697083 -0.23906
114.942 127.158 161.544 0.675963 -0.697083 -0.23906
115.248 127.784 160.554 0.672718 -0.703604 -0.228891
115.37 127.67 161.264 0.672718 -0.703604 -0.228891
114.735 127.222 160.774 0.672718 -0.703604 -0.228891
115.37 127.67 161.264 0.752213 -0.617949 -0.228726
115.248 127.784 160.554 0.752213 -0.617949 -0.228726
115.577 128.142 160.669 0.752213 -0.617949 -0.228726
115.674 128.097 161.503 0.840139 -0.527479 -0.126225
115.37 127.67 161.264 0.840139 -0.527479 -0.126225
115.577 128.142 160.669 0.840139 -0.527479 -0.126225
113.365 128.833 161.529 -0.844618 0.122526 -0.521161
113.503 128.017 161.114 -0.844618 0.122526 -0.521161
113.167 128.005 161.655 -0.844618 0.122526 -0.521161
114.033 128.249 160.61 -0.73688 0.182797 -0.65084
113.365 128.833 161.529 -0.73688 0.182797 -0.65084
114.279 128.958 160.529 -0.73688 0.182797 -0.65084
113.503 128.017 161.114 -0.721224 0.213532 -0.658969
113.365 128.833 161.529 -0.721224 0.213532 -0.658969
114.033 128.249 160.61 -0.721224 0.213532 -0.658969
115.577 128.142 160.669 0.993327 0.0106863 -0.114832
115.561 128.821 160.595 0.993327 0.0106863 -0.114832
115.674 128.097 161.503 0.993327 0.0106863 -0.114832
115.674 128.097 161.503 0.995077 0.0774197 -0.0618651
115.561 128.821 160.595 0.995077 0.0774197 -0.0618651
115.603 128.935 161.404 0.995077 0.0774197 -0.0618651
114.279 128.958 160.529 -0.662097 0.519453 -0.540181
113.365 128.833 161.529 -0.662097 0.519453 -0.540181
113.758 129.268 161.466 -0.662097 0.519453 -0.540181
114.279 128.958 160.529 -0.444508 0.747156 -0.494137
113.758 129.268 161.466 -0.444508 0.747156 -0.494137
114.595 129.267 160.712 -0.444508 0.747156 -0.494137
114.595 129.267 160.712 -0.14928 0.974755 -0.166035
113.758 129.268 161.466 -0.14928 0.974755 -0.166035
114.402 129.369 161.483 -0.14928 0.974755 -0.166035
115.352 129.189 160.651 0.0987355 0.993328 -0.0595862
114.595 129.267 160.712 0.0987355 0.993328 -0.0595862
115.106 129.266 161.534 0.0987355 0.993328 -0.0595862
114.595 129.267 160.712 0.150942 0.984246 -0.0920642
114.402 129.369 161.483 0.150942 0.984246 -0.0920642
115.106 129.266 161.534 0.150942 0.984246 -0.0920642
115.603 128.935 161.404 0.855635 0.504573 -0.115307
115.561 128.821 160.595 0.855635 0.504573 -0.115307
115.352 129.189 160.651 0.855635 0.504573 -0.115307
115.106 129.266 161.534 0.56795 0.818542 0.0861553
115.603 128.935 161.404 0.56795 0.818542 0.0861553
115.352 129.189 160.651 0.56795 0.818542 0.0861553
113.648 126.974 161.689 -0.67151 -0.739688 0.0440007
113.615 127.056 162.547 -0.67151 -0.739688 0.0440007
113.258 127.369 162.379 -0.67151 -0.739688 0.0440007
113.434 127.302 161.36 -0.786718 -0.609907 -0.0953359
113.648 126.974 161.689 -0.786718 -0.609907 -0.0953359
113.258 127.369 162.379 -0.786718 -0.609907 -0.0953359
114.469 126.931 161.508 -0.0386645 -0.997476 0.0595471
114.406 126.985 162.364 -0.0386645 -0.997476 0.0595471
113.648 126.974 161.689 -0.0386645 -0.997476 0.0595471
113.648 126.974 161.689 -0.0676486 -0.993455 0.092037
114.406 126.985 162.364 -0.0676486 -0.993455 0.092037
113.615 127.056 162.547 -0.0676486 -0.993455 0.092037
114.942 127.158 161.544 0.560457 -0.774106 -0.294359
115.423 127.319 162.037 0.560457 -0.774106 -0.294359
115.186 127.068 162.247 0.560457 -0.774106 -0.294359
114.942 127.158 161.544 0.434385 -0.861875 -0.26169
115.186 127.068 162.247 0.434385 -0.861875 -0.26169
114.469 126.931 161.508 0.434385 -0.861875 -0.26169
114.469 126.931 161.508 0.116671 -0.990658 0.0706049
115.186 127.068 162.247 0.116671 -0.990658 0.0706049
114.406 126.985 162.364 0.116671 -0.990658 0.0706049
115.186 127.068 162.247 0.74479 -0.665964 0.0421856
115.423 127.319 162.037 0.74479 -0.665964 0.0421856
115.507 127.433 162.348 0.74479 -0.665964 0.0421856
113.434 127.302 161.36 -0.943703 -0.298337 -0.142897
113.258 127.369 162.379 -0.943703 -0.298337 -0.142897
113.167 128.005 161.655 -0.943703 -0.298337 -0.142897
113.258 127.369 162.379 -0.991715 -0.127798 0.0129691
113.149 128.219 162.369 -0.991715 -0.127798 0.0129691
113.167 128.005 161.655 -0.991715 -0.127798 0.0129691
114.942 127.158 161.544 0.607472 -0.707023 -0.362072
115.37 127.67 161.264 0.607472 -0.707023 -0.362072
115.423 127.319 162.037 0.607472 -0.707023 -0.362072
115.423 127.319 162.037 0.849431 -0.456374 -0.264933
115.37 127.67 161.264 0.849431 -0.456374 -0.264933
115.674 128.097 161.503 0.849431 -0.456374 -0.264933
115.423 127.319 162.037 0.920501 -0.374371 -0.111906
115.674 128.097 161.503 0.920501 -0.374371 -0.111906
115.507 127.433 162.348 0.920501 -0.374371 -0.111906
115.507 127.433 162.348 0.988075 -0.088074 0.126297
115.674 128.097 161.503 0.988075 -0.088074 0.126297
115.601 128.235 162.168 0.988075 -0.088074 0.126297
113.167 128.005 161.655 -0.971624 0.218502 -0.0905702
113.149 128.219 162.369 -0.971624 0.218502 -0.0905702
113.365 128.833 161.529 -0.971624 0.218502 -0.0905702
113.149 128.219 162.369 -0.9778 0.160926 -0.134204
113.226 128.919 162.648 -0.9778 0.160926 -0.134204
113.365 128.833 161.529 -0.9778 0.160926 -0.134204
115.355 128.885 161.964 0.582335 0.441413 0.682671
114.511 128.887 162.682 0.582335 0.441413 0.682671
115.192 128.037 162.651 0.582335 0.441413 0.682671
115.355 128.885 161.964 0.589189 0.437414 0.679357
115.192 128.037 162.651 0.589189 0.437414 0.679357
115.601 128.235 162.168 0.589189 0.437414 0.679357
115.355 128.885 161.964 0.809538 0.4322 0.397306
115.601 128.235 162.168 0.809538 0.4322 0.397306
115.603 128.935 161.404 0.809538 0.4322 0.397306
115.603 128.935 161.404 0.991538 0.0949389 0.0885334
115.601 128.235 162.168 0.991538 0.0949389 0.0885334
115.674 128.097 161.503 0.991538 0.0949389 0.0885334
113.365 128.833 161.529 -0.857598 0.493528 -0.144765
113.226 128.919 162.648 -0.857598 0.493528 -0.144765
113.447 129.216 162.349 -0.857598 0.493528 -0.144765
113.758 129.268 161.466 -0.739346 0.635355 -0.222914
113.365 128.833 161.529 -0.739346 0.635355 -0.222914
113.447 129.216 162.349 -0.739346 0.635355 -0.222914
114.402 129.369 161.483 -0.156906 0.985993 0.0565498
113.758 129.268 161.466 -0.156906 0.985993 0.0565498
114.151 129.278 162.382 -0.156906 0.985993 0.0565498
113.758 129.268 161.466 -0.0883142 0.995727 0.0269772
113.447 129.216 162.349 -0.0883142 0.995727 0.0269772
114.151 129.278 162.382 -0.0883142 0.995727 0.0269772
114.511 128.887 162.682 0.400652 0.787782 0.467844
115.355 128.885 161.964 0.400652 0.787782 0.467844
115.106 129.266 161.534 0.400652 0.787782 0.467844
114.511 128.887 162.682 0.432757 0.764991 0.476981
115.106 129.266 161.534 0.432757 0.764991 0.476981
114.151 129.278 162.382 0.432757 0.764991 0.476981
114.151 129.278 162.382 0.133771 0.981471 0.137184
115.106 129.266 161.534 0.133771 0.981471 0.137184
114.402 129.369 161.483 0.133771 0.981471 0.137184
115.603 128.935 161.404 0.582 0.745367 0.325121
115.106 129.266 161.534 0.582 0.745367 0.325121
115.355 128.885 161.964 0.582 0.745367 0.325121
113.615 127.056 162.547 -0.703028 -0.666941 0.246863
113.545 127.368 163.191 -0.703028 -0.666941 0.246863
113.258 127.369 162.379 -0.703028 -0.666941 0.246863
113.615 127.056 162.547 0.0187284 -0.902744 0.42977
114.406 126.985 162.364 0.0187284 -0.902744 0.42977
114.387 127.291 163.008 0.0187284 -0.902744 0.42977
113.545 127.368 163.191 0.013474 -0.899421 0.436875
113.615 127.056 162.547 0.013474 -0.899421 0.436875
114.387 127.291 163.008 0.013474 -0.899421 0.436875
114.406 126.985 162.364 0.158869 -0.892258 0.422654
115.186 127.068 162.247 0.158869 -0.892258 0.422654
115.177 127.229 162.59 0.158869 -0.892258 0.422654
114.387 127.291 163.008 0.156625 -0.890119 0.427967
114.406 126.985 162.364 0.156625 -0.890119 0.427967
115.177 127.229 162.59 0.156625 -0.890119 0.427967
115.186 127.068 162.247 0.659946 -0.672917 0.334147
115.507 127.433 162.348 0.659946 -0.672917 0.334147
115.177 127.229 162.59 0.659946 -0.672917 0.334147
113.545 127.368 163.191 -0.837764 -0.325595 0.438337
113.536 127.739 163.45 -0.837764 -0.325595 0.438337
113.276 128.095 163.218 -0.837764 -0.325595 0.438337
113.545 127.368 163.191 -0.887304 -0.339254 0.312406
113.276 128.095 163.218 -0.887304 -0.339254 0.312406
113.258 127.369 162.379 -0.887304 -0.339254 0.312406
113.258 127.369 162.379 -0.983635 -0.125343 0.129424
113.276 128.095 163.218 -0.983635 -0.125343 0.129424
113.149 128.219 162.369 -0.983635 -0.125343 0.129424
113.536 127.739 163.45 0.283861 -0.100274 0.953608
114.26 127.982 163.26 0.283861 -0.100274 0.953608
113.901 128.353 163.406 0.283861 -0.100274 0.953608
113.536 127.739 163.45 0.376806 -0.524014 0.763823
113.545 127.368 163.191 0.376806 -0.524014 0.763823
114.26 127.982 163.26 0.376806 -0.524014 0.763823
113.545 127.368 163.191 0.175663 -0.309316 0.934594
114.387 127.291 163.008 0.175663 -0.309316 0.934594
114.26 127.982 163.26 0.175663 -0.309316 0.934594
115.177 127.229 162.59 0.461192 -0.0748242 0.88414
115.192 128.037 162.651 0.461192 -0.0748242 0.88414
114.387 127.291 163.008 0.461192 -0.0748242 0.88414
115.192 128.037 162.651 0.544525 -0.197992 0.815041
114.26 127.982 163.26 0.544525 -0.197992 0.815041
114.387 127.291 163.008 0.544525 -0.197992 0.815041
115.507 127.433 162.348 0.749157 0.0600077 0.659668
115.601 128.235 162.168 0.749157 0.0600077 0.659668
115.192 128.037 162.651 0.749157 0.0600077 0.659668
115.177 127.229 162.59 0.617633 -0.070361 0.783313
115.507 127.433 162.348 0.617633 -0.070361 0.783313
115.192 128.037 162.651 0.617633 -0.070361 0.783313
113.149 128.219 162.369 -0.986797 0.0464202 0.15517
113.276 128.095 163.218 -0.986797 0.0464202 0.15517
113.226 128.919 162.648 -0.986797 0.0464202 0.15517
113.276 128.095 163.218 -0.993712 0.0153747 0.110901
113.305 128.871 163.365 -0.993712 0.0153747 0.110901
113.226 128.919 162.648 -0.993712 0.0153747 0.110901
114.511 128.887 162.682 0.608985 0.300371 0.734108
113.901 128.353 163.406 0.608985 0.300371 0.734108
114.26 127.982 163.26 0.608985 0.300371 0.734108
113.678 129.029 163.25 0.567138 0.358321 0.741593
113.901 128.353 163.406 0.567138 0.358321 0.741593
114.511 128.887 162.682 0.567138 0.358321 0.741593
115.192 128.037 162.651 0.49411 0.366853 0.78821
114.511 128.887 162.682 0.49411 0.366853 0.78821
114.26 127.982 163.26 0.49411 0.366853 0.78821
113.226 128.919 162.648 -0.855431 0.501853 0.127991
113.305 128.871 163.365 -0.855431 0.501853 0.127991
113.43 129.134 163.172 -0.855431 0.501853 0.127991
113.447 129.216 162.349 -0.777968 0.626574 0.0465891
113.226 128.919 162.648 -0.777968 0.626574 0.0465891
113.43 129.134 163.172 -0.777968 0.626574 0.0465891
113.678 129.029 163.25 0.446012 0.76619 0.462629
114.511 128.887 162.682 0.446012 0.76619 0.462629
114.151 129.278 162.382 0.446012 0.76619 0.462629
113.678 129.029 163.25 0.251749 0.885326 0.390922
114.151 129.278 162.382 0.251749 0.885326 0.390922
113.43 129.134 163.172 0.251749 0.885326 0.390922
113.43 129.134 163.172 -0.0912093 0.991078 0.0971849
114.151 129.278 162.382 -0.0912093 0.991078 0.0971849
113.447 129.216 162.349 -0.0912093 0.991078 0.0971849
113.536 127.739 163.45 -0.807377 -0.23682 0.540425
113.409 128.292 163.503 -0.807377 -0.23682 0.540425
113.276 128.095 163.218 -0.807377 -0.23682 0.540425
113.536 127.739 163.45 0.19864 -0.0478533 0.978904
113.901 128.353 163.406 0.19864 -0.0478533 0.978904
113.409 128.292 163.503 0.19864 -0.0478533 0.978904
113.409 128.292 163.503 -0.631291 0.0701077 0.772371
113.436 128.901 163.47 -0.631291 0.0701077 0.772371
113.305 128.871 163.365 -0.631291 0.0701077 0.772371
113.276 128.095 163.218 -0.890564 -0.0529729 0.451763
113.409 128.292 163.503 -0.890564 -0.0529729 0.451763
113.305 128.871 163.365 -0.890564 -0.0529729 0.451763
113.901 128.353 163.406 0.51998 0.351297 0.778596
113.678 129.029 163.25 0.51998 0.351297 0.778596
113.436 128.901 163.47 0.51998 0.351297 0.778596
113.409 128.292 163.503 0.187475 0.0453751 0.981221
113.901 128.353 163.406 0.187475 0.0453751 0.981221
113.436 128.901 163.47 0.187475 0.0453751 0.981221
113.305 128.871 163.365 -0.560084 0.646846 0.517587
113.436 128.901 163.47 -0.560084 0.646846 0.517587
113.43 129.134 163.172 -0.560084 0.646846 0.517587
113.678 129.029 163.25 0.139174 0.781051 0.60876
113.43 129.134 163.172 0.139174 0.781051 0.60876
113.436 128.901 163.47 0.139174 0.781051 0.60876
3 0 1 2
3 3 4 5
3 6 7 8
3 9 10 11
3 12 13 14
3 15 16 17
3 18 19 20
3 21 22 23
3 24 25 26
3 27 28 29
3 30 31 32
3 33 34 35
3 36 37 38
3 39 40 41
3 42 43 44
3 45 46 47
3 48 49 50
3 51 52 53
3 54 55 56
3 57 58 59
3 60 61 62
3 63 64 65
3 66 67 68
3 69 70 71
3 72 73 74
3 75 76 77
3 78 79 80
3 81 82 83
3 84 85 86
3 87 88 89
3 90 91 92
3 93 94 95
3 96 97 98
3 99 100 101
3 102 103 104
3 105 106 107
3 108 109 110
3 111 112 113
3 114 115 116
3 117 118 119
3 120 121 122
3 123 124 125
3 126 127 128
3 129 130 131
3 132 133 134
3 135 136 137
3 138 139 140
3 141 142 143
3 144 145 146
3 147 148 149
3 150 151 152
3 153 154 155
3 156 157 158
3 159 160 161
3 162 163 164
3 165 166 167
3 168 169 170
3 171 172 173
3 174 175 176
3 177 178 179
3 180 181 182
3 183 184 185
3 186 187 188
3 189 190 191
3 192 193 194
3 195 196 197
3 198 199 200
3 201 202 203
3 204 205 206
3 207 208 209
3 210 211 212
3 213 214 215
3 216 217 218
3 219 220 221
3 222 223 224
3 225 226 227
3 228 229 230
3 231 232 233
3 234 235 236
3 237 238 239
3 240 241 242
3 243 244 245
3 246 247 248
3 249 250 251
3 252 253 254
3 255 256 257
3 258 259 260
3 261 262 263
3 264 265 266
3 267 268 269
3 270 271 272
3 273 274 275
3 276 277 278
3 279 280 281
3 282 283 284
3 285 286 287
3 288 289 290
3 291 292 293
3 294 295 296
3 297 298 299
