solid ascii
 facet normal -0.441558 -0.714289 -0.542972
  outer loop
   vertex 113.572 114.716 178.907
   vertex 113.488 114.385 179.41
   vertex 113.014 114.794 179.259
  endloop
 endfacet
 facet normal 0.0405353 -0.567053 -0.822683
  outer loop
   vertex 113.572 114.716 178.907
   vertex 114.332 114.765 178.91
   vertex 114.221 114.322 179.211
  endloop
 endfacet
 facet normal -0.221997 -0.797539 -0.560936
  outer loop
   vertex 113.488 114.385 179.41
   vertex 113.572 114.716 178.907
   vertex 114.221 114.322 179.211
  endloop
 endfacet
 facet normal 0.507254 -0.566785 -0.649191
  outer loop
   vertex 114.221 114.322 179.211
   vertex 114.332 114.765 178.91
   vertex 114.781 114.661 179.352
  endloop
 endfacet
 facet normal -0.524841 0.0668744 -0.848569
  outer loop
   vertex 113.34 115.288 179.096
   vertex 113.572 114.716 178.907
   vertex 113.014 114.794 179.259
  endloop
 endfacet
 facet normal -0.788657 0.354289 -0.502494
  outer loop
   vertex 113.184 115.454 179.459
   vertex 113.34 115.288 179.096
   vertex 113.014 114.794 179.259
  endloop
 endfacet
 facet normal -0.0138782 0.270286 -0.96268
  outer loop
   vertex 114.332 114.765 178.91
   vertex 113.572 114.716 178.907
   vertex 114.034 115.373 179.085
  endloop
 endfacet
 facet normal -0.0512172 0.29425 -0.954355
  outer loop
   vertex 114.034 115.373 179.085
   vertex 113.572 114.716 178.907
   vertex 113.34 115.288 179.096
  endloop
 endfacet
 facet normal 0.70551 0.281795 -0.650267
  outer loop
   vertex 114.504 115.309 179.332
   vertex 114.781 114.661 179.352
   vertex 114.332 114.765 178.91
  endloop
 endfacet
 facet normal 0.462945 0.447547 -0.765104
  outer loop
   vertex 114.034 115.373 179.085
   vertex 114.504 115.309 179.332
   vertex 114.332 114.765 178.91
  endloop
 endfacet
 facet normal -0.114988 0.883048 -0.454977
  outer loop
   vertex 114.034 115.373 179.085
   vertex 113.34 115.288 179.096
   vertex 113.184 115.454 179.459
  endloop
 endfacet
 facet normal -0.139534 0.852297 -0.504104
  outer loop
   vertex 114.183 115.594 179.418
   vertex 114.034 115.373 179.085
   vertex 113.184 115.454 179.459
  endloop
 endfacet
 facet normal 0.418215 0.659253 -0.624885
  outer loop
   vertex 114.504 115.309 179.332
   vertex 114.034 115.373 179.085
   vertex 114.183 115.594 179.418
  endloop
 endfacet
 facet normal -0.580537 -0.767664 0.271422
  outer loop
   vertex 113.488 114.385 179.41
   vertex 113.564 114.556 180.055
   vertex 113.206 114.775 179.907
  endloop
 endfacet
 facet normal -0.674029 -0.716819 0.178479
  outer loop
   vertex 113.014 114.794 179.259
   vertex 113.488 114.385 179.41
   vertex 113.206 114.775 179.907
  endloop
 endfacet
 facet normal -0.0202375 -0.971711 0.235306
  outer loop
   vertex 114.221 114.322 179.211
   vertex 114.255 114.485 179.89
   vertex 113.488 114.385 179.41
  endloop
 endfacet
 facet normal -0.0361759 -0.96509 0.259407
  outer loop
   vertex 113.488 114.385 179.41
   vertex 114.255 114.485 179.89
   vertex 113.564 114.556 180.055
  endloop
 endfacet
 facet normal 0.474802 -0.860757 0.183468
  outer loop
   vertex 114.255 114.485 179.89
   vertex 114.221 114.322 179.211
   vertex 114.781 114.661 179.352
  endloop
 endfacet
 facet normal 0.654525 -0.615001 0.43974
  outer loop
   vertex 114.546 114.861 179.982
   vertex 114.255 114.485 179.89
   vertex 114.781 114.661 179.352
  endloop
 endfacet
 facet normal -0.945877 0.156527 0.284282
  outer loop
   vertex 113.014 114.794 179.259
   vertex 113.206 114.775 179.907
   vertex 113.184 115.454 179.459
  endloop
 endfacet
 facet normal -0.998342 -0.0507054 -0.0272369
  outer loop
   vertex 113.206 114.775 179.907
   vertex 113.17 115.396 180.082
   vertex 113.184 115.454 179.459
  endloop
 endfacet
 facet normal 0.896092 0.390677 0.21069
  outer loop
   vertex 114.781 114.661 179.352
   vertex 114.504 115.309 179.332
   vertex 114.546 114.861 179.982
  endloop
 endfacet
 facet normal 0.977034 0.199846 0.073937
  outer loop
   vertex 114.546 114.861 179.982
   vertex 114.504 115.309 179.332
   vertex 114.423 115.475 179.951
  endloop
 endfacet
 facet normal -0.802777 0.595058 0.0381396
  outer loop
   vertex 113.184 115.454 179.459
   vertex 113.17 115.396 180.082
   vertex 113.374 115.672 180.06
  endloop
 endfacet
 facet normal -0.141529 0.985421 -0.094416
  outer loop
   vertex 114.183 115.594 179.418
   vertex 113.184 115.454 179.459
   vertex 114.016 115.627 180.015
  endloop
 endfacet
 facet normal 0.0411023 0.935096 -0.352002
  outer loop
   vertex 113.184 115.454 179.459
   vertex 113.374 115.672 180.06
   vertex 114.016 115.627 180.015
  endloop
 endfacet
 facet normal 0.641583 0.757597 -0.120075
  outer loop
   vertex 114.423 115.475 179.951
   vertex 114.504 115.309 179.332
   vertex 114.183 115.594 179.418
  endloop
 endfacet
 facet normal 0.356798 0.932967 0.0476299
  outer loop
   vertex 114.016 115.627 180.015
   vertex 114.423 115.475 179.951
   vertex 114.183 115.594 179.418
  endloop
 endfacet
 facet normal -0.557666 -0.439467 0.704186
  outer loop
   vertex 113.564 114.556 180.055
   vertex 113.501 114.885 180.21
   vertex 113.206 114.775 179.907
  endloop
 endfacet
 facet normal 0.0662422 -0.7873 0.613002
  outer loop
   vertex 113.564 114.556 180.055
   vertex 114.255 114.485 179.89
   vertex 114.158 114.718 180.198
  endloop
 endfacet
 facet normal -0.0963576 -0.43977 0.892926
  outer loop
   vertex 113.501 114.885 180.21
   vertex 113.564 114.556 180.055
   vertex 114.158 114.718 180.198
  endloop
 endfacet
 facet normal 0.550349 -0.57489 0.60549
  outer loop
   vertex 114.255 114.485 179.89
   vertex 114.546 114.861 179.982
   vertex 114.158 114.718 180.198
  endloop
 endfacet
 facet normal -0.427172 -0.0504178 0.902764
  outer loop
   vertex 113.501 114.885 180.21
   vertex 113.524 115.497 180.255
   vertex 113.17 115.396 180.082
  endloop
 endfacet
 facet normal -0.649556 -0.240185 0.721379
  outer loop
   vertex 113.206 114.775 179.907
   vertex 113.501 114.885 180.21
   vertex 113.17 115.396 180.082
  endloop
 endfacet
 facet normal 0.0107286 -0.026093 0.999602
  outer loop
   vertex 114.158 114.718 180.198
   vertex 114.183 115.333 180.214
   vertex 113.501 114.885 180.21
  endloop
 endfacet
 facet normal 0.0428714 -0.0749632 0.996264
  outer loop
   vertex 114.183 115.333 180.214
   vertex 113.524 115.497 180.255
   vertex 113.501 114.885 180.21
  endloop
 endfacet
 facet normal 0.680008 0.172661 0.712585
  outer loop
   vertex 114.546 114.861 179.982
   vertex 114.423 115.475 179.951
   vertex 114.183 115.333 180.214
  endloop
 endfacet
 facet normal 0.498821 -0.0422496 0.865675
  outer loop
   vertex 114.158 114.718 180.198
   vertex 114.546 114.861 179.982
   vertex 114.183 115.333 180.214
  endloop
 endfacet
 facet normal -0.492886 0.423306 0.760181
  outer loop
   vertex 113.17 115.396 180.082
   vertex 113.524 115.497 180.255
   vertex 113.374 115.672 180.06
  endloop
 endfacet
 facet normal 0.0974314 0.776626 0.622382
  outer loop
   vertex 114.016 115.627 180.015
   vertex 113.374 115.672 180.06
   vertex 113.524 115.497 180.255
  endloop
 endfacet
 facet normal 0.202358 0.623969 0.754794
  outer loop
   vertex 114.183 115.333 180.214
   vertex 114.016 115.627 180.015
   vertex 113.524 115.497 180.255
  endloop
 endfacet
 facet normal 0.35096 0.652147 0.671961
  outer loop
   vertex 114.423 115.475 179.951
   vertex 114.016 115.627 180.015
   vertex 114.183 115.333 180.214
  endloop
 endfacet
endsolid
