ply
format ascii 1.0
element vertex 474
property float x
property float y
property float z
property float nx
property float ny
property float nz
element face 158
property list uint uint vertex_indices
end_header
101.222 105.323 144.942 -0.0262824 -0.56016 -0.827967
101.949 105.449 144.833 -0.0262824 -0.56016 -0.827967
102.238 104.952 145.161 -0.0262824 -0.56016 -0.827967
102.238 104.952 145.161 0.434056 -0.305633 -0.847457
101.949 105.449 144.833 0.434056 -0.305633 -0.847457
102.41 105.397 145.088 0.434056 -0.305633 -0.847457
101.222 105.323 144.942 -0.200345 -0.290347 -0.935714
100.45 106.129 144.857 -0.200345 -0.290347 -0.935714
101.256 106.095 144.695 -0.200345 -0.290347 -0.935714
101.714 106.117 144.861 0.491437 0.20896 -0.845473
102.41 105.397 145.088 0.491437 0.20896 -0.845473
101.949 105.449 144.833 0.491437 0.20896 -0.845473
101.714 106.117 144.861 0.331041 0.156084 -0.930618
101.949 105.449 144.833 0.331041 0.156084 -0.930618
101.256 106.095 144.695 0.331041 0.156084 -0.930618
101.256 106.095 144.695 -0.0897723 -0.299746 -0.949786
101.949 105.449 144.833 -0.0897723 -0.299746 -0.949786
101.222 105.323 144.942 -0.0897723 -0.299746 -0.949786
100.45 106.129 144.857 -0.443628 0.0446434 -0.895099
99.9855 106.095 145.085 -0.443628 0.0446434 -0.895099
100.123 106.511 145.038 -0.443628 0.0446434 -0.895099
100.123 106.511 145.038 -0.238281 0.0838608 -0.967569
100.725 107.144 144.944 -0.238281 0.0838608 -0.967569
101.207 106.899 144.805 -0.238281 0.0838608 -0.967569
100.123 106.511 145.038 -0.276527 0.208091 -0.938206
101.207 106.899 144.805 -0.276527 0.208091 -0.938206
100.45 106.129 144.857 -0.276527 0.208091 -0.938206
100.45 106.129 144.857 -0.190818 0.121438 -0.974085
101.207 106.899 144.805 -0.190818 0.121438 -0.974085
101.256 106.095 144.695 -0.190818 0.121438 -0.974085
101.207 106.899 144.805 0.331876 0.147272 -0.931756
101.714 106.117 144.861 0.331876 0.147272 -0.931756
101.256 106.095 144.695 0.331876 0.147272 -0.931756
101.207 106.899 144.805 -0.0203631 0.466096 -0.8845
100.725 107.144 144.944 -0.0203631 0.466096 -0.8845
101.06 107.497 145.123 -0.0203631 0.466096 -0.8845
101.38 104.459 145.616 -0.488845 -0.749474 -0.446452
101.413 104.139 146.118 -0.488845 -0.749474 -0.446452
100.885 104.524 146.049 -0.488845 -0.749474 -0.446452
101.38 104.459 145.616 -0.0996245 -0.800706 -0.590716
102.227 104.337 145.637 -0.0996245 -0.800706 -0.590716
102.124 104.137 145.927 -0.0996245 -0.800706 -0.590716
101.413 104.139 146.118 -0.143247 -0.838597 -0.525581
101.38 104.459 145.616 -0.143247 -0.838597 -0.525581
102.124 104.137 145.927 -0.143247 -0.838597 -0.525581
102.124 104.137 145.927 0.32788 -0.827038 -0.456621
102.227 104.337 145.637 0.32788 -0.827038 -0.456621
102.815 104.381 145.981 0.32788 -0.827038 -0.456621
100.256 105.305 145.553 -0.454823 -0.732628 -0.506352
100.177 105.086 145.94 -0.454823 -0.732628 -0.506352
99.6705 105.434 145.893 -0.454823 -0.732628 -0.506352
100.885 104.524 146.049 -0.48954 -0.71283 -0.502219
100.177 105.086 145.94 -0.48954 -0.71283 -0.502219
100.256 105.305 145.553 -0.48954 -0.71283 -0.502219
101.38 104.459 145.616 -0.511283 -0.714606 -0.477419
100.885 104.524 146.049 -0.511283 -0.714606 -0.477419
100.256 105.305 145.553 -0.511283 -0.714606 -0.477419
101.38 104.459 145.616 -0.417762 -0.605362 -0.677504
100.256 105.305 145.553 -0.417762 -0.605362 -0.677504
101.222 105.323 144.942 -0.417762 -0.605362 -0.677504
102.238 104.952 145.161 -0.0583634 -0.620795 -0.781797
101.38 104.459 145.616 -0.0583634 -0.620795 -0.781797
101.222 105.323 144.942 -0.0583634 -0.620795 -0.781797
102.227 104.337 145.637 -0.067509 -0.611175 -0.788611
101.38 104.459 145.616 -0.067509 -0.611175 -0.788611
102.238 104.952 145.161 -0.067509 -0.611175 -0.788611
102.41 105.397 145.088 0.629687 -0.14604 -0.762999
103.166 105.512 145.69 0.629687 -0.14604 -0.762999
103.103 104.875 145.76 0.629687 -0.14604 -0.762999
102.238 104.952 145.161 0.518091 -0.328656 -0.789662
102.41 105.397 145.088 0.518091 -0.328656 -0.789662
103.103 104.875 145.76 0.518091 -0.328656 -0.789662
102.238 104.952 145.161 0.434811 -0.56669 -0.699859
103.103 104.875 145.76 0.434811 -0.56669 -0.699859
102.815 104.381 145.981 0.434811 -0.56669 -0.699859
102.238 104.952 145.161 0.450353 -0.552811 -0.701129
102.815 104.381 145.981 0.450353 -0.552811 -0.701129
102.227 104.337 145.637 0.450353 -0.552811 -0.701129
103.103 104.875 145.76 0.801834 -0.142643 -0.580271
103.166 105.512 145.69 0.801834 -0.142643 -0.580271
103.386 105.293 146.047 0.801834 -0.142643 -0.580271
99.4519 106.054 145.624 -0.921964 -0.0302172 -0.386094
99.3319 105.989 145.915 -0.921964 -0.0302172 -0.386094
99.4045 106.437 145.707 -0.921964 -0.0302172 -0.386094
99.6705 105.434 145.893 -0.780823 -0.458913 -0.423927
99.3319 105.989 145.915 -0.780823 -0.458913 -0.423927
99.4519 106.054 145.624 -0.780823 -0.458913 -0.423927
100.256 105.305 145.553 -0.51594 -0.487277 -0.704533
99.6705 105.434 145.893 -0.51594 -0.487277 -0.704533
99.4519 106.054 145.624 -0.51594 -0.487277 -0.704533
100.256 105.305 145.553 -0.569723 -0.554219 -0.606842
99.4519 106.054 145.624 -0.569723 -0.554219 -0.606842
99.9855 106.095 145.085 -0.569723 -0.554219 -0.606842
100.256 105.305 145.553 -0.331876 -0.562054 -0.757597
99.9855 106.095 145.085 -0.331876 -0.562054 -0.757597
100.45 106.129 144.857 -0.331876 -0.562054 -0.757597
101.222 105.323 144.942 -0.453108 -0.510699 -0.73067
100.256 105.305 145.553 -0.453108 -0.510699 -0.73067
100.45 106.129 144.857 -0.453108 -0.510699 -0.73067
102.41 105.397 145.088 0.526353 0.253364 -0.81164
101.714 106.117 144.861 0.526353 0.253364 -0.81164
102.388 106.356 145.373 0.526353 0.253364 -0.81164
102.41 105.397 145.088 0.580878 0.244208 -0.776494
102.388 106.356 145.373 0.580878 0.244208 -0.776494
103.166 105.512 145.69 0.580878 0.244208 -0.776494
102.388 106.356 145.373 0.396141 0.0208742 -0.917952
103.236 106.376 145.74 0.396141 0.0208742 -0.917952
103.166 105.512 145.69 0.396141 0.0208742 -0.917952
103.444 106.079 146.031 0.829008 -0.0732706 -0.554415
103.386 105.293 146.047 0.829008 -0.0732706 -0.554415
103.166 105.512 145.69 0.829008 -0.0732706 -0.554415
103.236 106.376 145.74 0.798632 -0.0302388 -0.601059
103.444 106.079 146.031 0.798632 -0.0302388 -0.601059
103.166 105.512 145.69 0.798632 -0.0302388 -0.601059
100.179 107.14 145.445 -0.672114 0.559582 -0.484904
99.4045 106.437 145.707 -0.672114 0.559582 -0.484904
99.8439 107.074 145.833 -0.672114 0.559582 -0.484904
100.123 106.511 145.038 -0.629651 0.460274 -0.625849
99.4045 106.437 145.707 -0.629651 0.460274 -0.625849
100.179 107.14 145.445 -0.629651 0.460274 -0.625849
100.123 106.511 145.038 -0.683475 0.0732876 -0.726286
99.4519 106.054 145.624 -0.683475 0.0732876 -0.726286
99.4045 106.437 145.707 -0.683475 0.0732876 -0.726286
100.123 106.511 145.038 -0.707363 0.155654 -0.689499
99.9855 106.095 145.085 -0.707363 0.155654 -0.689499
99.4519 106.054 145.624 -0.707363 0.155654 -0.689499
100.123 106.511 145.038 -0.597168 0.47206 -0.648498
100.179 107.14 145.445 -0.597168 0.47206 -0.648498
100.725 107.144 144.944 -0.597168 0.47206 -0.648498
102.388 106.356 145.373 0.496757 0.194418 -0.845833
101.207 106.899 144.805 0.496757 0.194418 -0.845833
102.05 107.397 145.414 0.496757 0.194418 -0.845833
101.714 106.117 144.861 0.51714 0.27609 -0.810149
101.207 106.899 144.805 0.51714 0.27609 -0.810149
102.388 106.356 145.373 0.51714 0.27609 -0.810149
103.236 106.376 145.74 0.39347 0.0859716 -0.915309
102.388 106.356 145.373 0.39347 0.0859716 -0.915309
103.002 107.305 145.726 0.39347 0.0859716 -0.915309
103.002 107.305 145.726 0.320827 0.140996 -0.936584
102.388 106.356 145.373 0.320827 0.140996 -0.936584
102.05 107.397 145.414 0.320827 0.140996 -0.936584
103.404 107.004 146.033 0.830747 0.0371435 -0.555409
103.444 106.079 146.031 0.830747 0.0371435 -0.555409
103.236 106.376 145.74 0.830747 0.0371435 -0.555409
103.002 107.305 145.726 0.671348 0.158609 -0.723972
103.404 107.004 146.033 0.671348 0.158609 -0.723972
103.236 106.376 145.74 0.671348 0.158609 -0.723972
100.179 107.14 145.445 -0.635366 0.634215 -0.440547
99.8439 107.074 145.833 -0.635366 0.634215 -0.440547
100.409 107.58 145.746 -0.635366 0.634215 -0.440547
101.373 108.19 145.641 -0.514679 0.738016 -0.436392
100.409 107.58 145.746 -0.514679 0.738016 -0.436392
100.921 108.147 146.102 -0.514679 0.738016 -0.436392
101.06 107.497 145.123 -0.477829 0.653985 -0.586501
100.409 107.58 145.746 -0.477829 0.653985 -0.586501
101.373 108.19 145.641 -0.477829 0.653985 -0.586501
101.06 107.497 145.123 -0.478701 0.652684 -0.587238
100.179 107.14 145.445 -0.478701 0.652684 -0.587238
100.409 107.58 145.746 -0.478701 0.652684 -0.587238
101.06 107.497 145.123 -0.476523 0.712674 -0.514802
100.725 107.144 144.944 -0.476523 0.712674 -0.514802
100.179 107.14 145.445 -0.476523 0.712674 -0.514802
101.06 107.497 145.123 0.29036 0.504454 -0.813153
102.05 107.397 145.414 0.29036 0.504454 -0.813153
101.207 106.899 144.805 0.29036 0.504454 -0.813153
101.06 107.497 145.123 0.291708 0.485046 -0.824401
101.373 108.19 145.641 0.291708 0.485046 -0.824401
102.05 107.397 145.414 0.291708 0.485046 -0.824401
101.373 108.19 145.641 0.0366316 0.303772 -0.95204
102.294 108.269 145.702 0.0366316 0.303772 -0.95204
102.05 107.397 145.414 0.0366316 0.303772 -0.95204
102.634 108.191 145.931 0.654495 0.417483 -0.630352
103.155 107.571 146.061 0.654495 0.417483 -0.630352
103.002 107.305 145.726 0.654495 0.417483 -0.630352
102.634 108.191 145.931 0.572752 0.402744 -0.71397
103.002 107.305 145.726 0.572752 0.402744 -0.71397
102.294 108.269 145.702 0.572752 0.402744 -0.71397
102.294 108.269 145.702 0.323025 0.213929 -0.921895
103.002 107.305 145.726 0.323025 0.213929 -0.921895
102.05 107.397 145.414 0.323025 0.213929 -0.921895
103.404 107.004 146.033 0.719083 0.345714 -0.602828
103.002 107.305 145.726 0.719083 0.345714 -0.602828
103.155 107.571 146.061 0.719083 0.345714 -0.602828
101.373 108.19 145.641 -0.584127 0.627407 -0.514933
100.921 108.147 146.102 -0.584127 0.627407 -0.514933
101.48 108.599 146.018 -0.584127 0.627407 -0.514933
101.48 108.599 146.018 -0.593009 0.740227 -0.316866
102.063 109.06 146.003 -0.593009 0.740227 -0.316866
102.09 108.995 145.803 -0.593009 0.740227 -0.316866
101.48 108.599 146.018 -0.587923 0.625996 -0.512325
102.09 108.995 145.803 -0.587923 0.625996 -0.512325
101.373 108.19 145.641 -0.587923 0.625996 -0.512325
101.373 108.19 145.641 0.0519843 0.15182 -0.98704
102.09 108.995 145.803 0.0519843 0.15182 -0.98704
102.294 108.269 145.702 0.0519843 0.15182 -0.98704
102.389 108.916 145.936 0.578149 0.200939 -0.790801
102.634 108.191 145.931 0.578149 0.200939 -0.790801
102.294 108.269 145.702 0.578149 0.200939 -0.790801
102.09 108.995 145.803 0.44695 0.245352 -0.860254
102.389 108.916 145.936 0.44695 0.245352 -0.860254
102.294 108.269 145.702 0.44695 0.245352 -0.860254
102.09 108.995 145.803 -0.0280765 0.950821 -0.308465
102.063 109.06 146.003 -0.0280765 0.950821 -0.308465
102.277 109.084 146.059 -0.0280765 0.950821 -0.308465
102.389 108.916 145.936 0.435283 0.703756 -0.561477
102.09 108.995 145.803 0.435283 0.703756 -0.561477
102.277 109.084 146.059 0.435283 0.703756 -0.561477
101.413 104.139 146.118 -0.387032 -0.918685 0.0788946
101.498 104.156 146.739 -0.387032 -0.918685 0.0788946
101.196 104.275 146.638 -0.387032 -0.918685 0.0788946
100.885 104.524 146.049 -0.586631 -0.809191 -0.0327723
101.413 104.139 146.118 -0.586631 -0.809191 -0.0327723
101.196 104.275 146.638 -0.586631 -0.809191 -0.0327723
102.124 104.137 145.927 -0.00435481 -0.99997 -0.00635406
102.188 104.132 146.573 -0.00435481 -0.99997 -0.00635406
101.413 104.139 146.118 -0.00435481 -0.99997 -0.00635406
101.413 104.139 146.118 -0.0266873 -0.999143 0.0316374
102.188 104.132 146.573 -0.0266873 -0.999143 0.0316374
101.498 104.156 146.739 -0.0266873 -0.999143 0.0316374
102.188 104.132 146.573 0.335642 -0.941158 -0.0395832
102.124 104.137 145.927 0.335642 -0.941158 -0.0395832
102.815 104.381 145.981 0.335642 -0.941158 -0.0395832
102.666 104.421 146.721 0.478422 -0.866434 0.142846
102.188 104.132 146.573 0.478422 -0.866434 0.142846
102.815 104.381 145.981 0.478422 -0.866434 0.142846
100.177 105.086 145.94 -0.511977 -0.67282 0.534035
100.25 105.417 146.426 -0.511977 -0.67282 0.534035
99.6705 105.434 145.893 -0.511977 -0.67282 0.534035
101.204 104.799 146.723 -0.892937 -0.0593172 0.446256
100.885 104.524 146.049 -0.892937 -0.0593172 0.446256
101.196 104.275 146.638 -0.892937 -0.0593172 0.446256
101.204 104.799 146.723 -0.571241 -0.629313 0.526924
100.25 105.417 146.426 -0.571241 -0.629313 0.526924
100.885 104.524 146.049 -0.571241 -0.629313 0.526924
101.204 104.799 146.723 -0.256034 0.0681007 0.964266
101.393 105.46 146.727 -0.256034 0.0681007 0.964266
100.25 105.417 146.426 -0.256034 0.0681007 0.964266
100.25 105.417 146.426 -0.579917 -0.630713 0.515653
100.177 105.086 145.94 -0.579917 -0.630713 0.515653
100.885 104.524 146.049 -0.579917 -0.630713 0.515653
101.204 104.799 146.723 -0.194046 0.0502387 0.979705
102.202 105.244 146.898 -0.194046 0.0502387 0.979705
101.393 105.46 146.727 -0.194046 0.0502387 0.979705
102.815 104.381 145.981 0.704023 -0.687363 0.17856
103.235 104.959 146.547 0.704023 -0.687363 0.17856
102.666 104.421 146.721 0.704023 -0.687363 0.17856
103.103 104.875 145.76 0.84334 -0.530675 -0.0846292
103.235 104.959 146.547 0.84334 -0.530675 -0.0846292
102.815 104.381 145.981 0.84334 -0.530675 -0.0846292
103.235 104.959 146.547 0.852386 -0.515496 -0.0877549
103.103 104.875 145.76 0.852386 -0.515496 -0.0877549
103.386 105.293 146.047 0.852386 -0.515496 -0.0877549
103.401 105.513 146.665 0.949671 -0.301638 0.084494
103.235 104.959 146.547 0.949671 -0.301638 0.084494
103.386 105.293 146.047 0.949671 -0.301638 0.084494
99.3319 105.989 145.915 -0.846674 0.331269 0.416419
99.5166 106.356 145.999 -0.846674 0.331269 0.416419
99.4045 106.437 145.707 -0.846674 0.331269 0.416419
99.3319 105.989 145.915 -0.62491 -0.408507 0.665289
99.6705 105.434 145.893 -0.62491 -0.408507 0.665289
100.25 105.417 146.426 -0.62491 -0.408507 0.665289
99.3319 105.989 145.915 -0.469154 0.0351411 0.882417
100.25 105.417 146.426 -0.469154 0.0351411 0.882417
99.5166 106.356 145.999 -0.469154 0.0351411 0.882417
99.5166 106.356 145.999 -0.374527 0.125525 0.91868
100.25 105.417 146.426 -0.374527 0.125525 0.91868
100.294 106.374 146.313 -0.374527 0.125525 0.91868
101.393 105.46 146.727 -0.256481 0.176473 0.950303
101.074 106.15 146.513 -0.256481 0.176473 0.950303
100.25 105.417 146.426 -0.256481 0.176473 0.950303
101.074 106.15 146.513 -0.211902 0.124105 0.969379
100.294 106.374 146.313 -0.211902 0.124105 0.969379
100.25 105.417 146.426 -0.211902 0.124105 0.969379
102.13 105.798 146.845 -0.189089 0.068674 0.979556
101.393 105.46 146.727 -0.189089 0.068674 0.979556
102.202 105.244 146.898 -0.189089 0.068674 0.979556
102.13 105.798 146.845 -0.196483 0.0857511 0.97675
101.979 106.31 146.77 -0.196483 0.0857511 0.97675
101.393 105.46 146.727 -0.196483 0.0857511 0.97675
101.979 106.31 146.77 -0.295772 0.155869 0.942456
101.074 106.15 146.513 -0.295772 0.155869 0.942456
101.393 105.46 146.727 -0.295772 0.155869 0.942456
102.13 105.798 146.845 -0.201631 0.0840993 0.975844
102.431 106.109 146.881 -0.201631 0.0840993 0.975844
101.979 106.31 146.77 -0.201631 0.0840993 0.975844
103.386 105.293 146.047 0.997216 -0.0745323 0.00241163
103.444 106.079 146.031 0.997216 -0.0745323 0.00241163
103.401 105.513 146.665 0.997216 -0.0745323 0.00241163
103.401 105.513 146.665 0.998666 -0.0363817 0.0366374
103.444 106.079 146.031 0.998666 -0.0363817 0.0366374
103.434 106.453 146.676 0.998666 -0.0363817 0.0366374
99.8439 107.074 145.833 -0.781998 0.455064 0.425906
99.4045 106.437 145.707 -0.781998 0.455064 0.425906
99.5166 106.356 145.999 -0.781998 0.455064 0.425906
99.8439 107.074 145.833 -0.654707 0.440578 0.614207
99.5166 106.356 145.999 -0.654707 0.440578 0.614207
100.304 107.251 146.196 -0.654707 0.440578 0.614207
100.304 107.251 146.196 -0.374481 0.127135 0.918477
99.5166 106.356 145.999 -0.374481 0.127135 0.918477
100.294 106.374 146.313 -0.374481 0.127135 0.918477
101.074 106.15 146.513 -0.254515 -0.026644 0.966702
101.155 107.018 146.558 -0.254515 -0.026644 0.966702
100.294 106.374 146.313 -0.254515 -0.026644 0.966702
101.155 107.018 146.558 -0.358157 0.127797 0.924874
100.304 107.251 146.196 -0.358157 0.127797 0.924874
100.294 106.374 146.313 -0.358157 0.127797 0.924874
101.883 107.133 146.827 -0.235285 -0.0940454 0.967366
101.979 106.31 146.77 -0.235285 -0.0940454 0.967366
102.354 106.6 146.889 -0.235285 -0.0940454 0.967366
101.883 107.133 146.827 -0.330202 -0.1031 0.938263
101.155 107.018 146.558 -0.330202 -0.1031 0.938263
101.979 106.31 146.77 -0.330202 -0.1031 0.938263
101.155 107.018 146.558 -0.26942 -0.0250516 0.962697
101.074 106.15 146.513 -0.26942 -0.0250516 0.962697
101.979 106.31 146.77 -0.26942 -0.0250516 0.962697
102.431 106.109 146.881 -0.26181 -0.0580415 0.963373
102.354 106.6 146.889 -0.26181 -0.0580415 0.963373
101.979 106.31 146.77 -0.26181 -0.0580415 0.963373
103.444 106.079 146.031 0.999004 0.0435584 -0.00968249
103.404 107.004 146.033 0.999004 0.0435584 -0.00968249
103.434 106.453 146.676 0.999004 0.0435584 -0.00968249
103.434 106.453 146.676 0.969175 0.20769 0.132536
103.404 107.004 146.033 0.969175 0.20769 0.132536
103.235 107.388 146.664 0.969175 0.20769 0.132536
99.8439 107.074 145.833 -0.581415 0.715726 0.386901
100.304 107.251 146.196 -0.581415 0.715726 0.386901
100.409 107.58 145.746 -0.581415 0.715726 0.386901
101.212 107.799 146.711 -0.420474 -0.144416 0.895737
100.304 107.251 146.196 -0.420474 -0.144416 0.895737
101.155 107.018 146.558 -0.420474 -0.144416 0.895737
101.212 107.799 146.711 -0.634963 0.499262 0.589542
100.921 108.147 146.102 -0.634963 0.499262 0.589542
100.304 107.251 146.196 -0.634963 0.499262 0.589542
101.212 107.799 146.711 -0.769321 -0.638856 0.00289106
100.845 108.241 146.702 -0.769321 -0.638856 0.00289106
100.921 108.147 146.102 -0.769321 -0.638856 0.00289106
100.409 107.58 145.746 -0.789958 0.568174 0.230529
100.304 107.251 146.196 -0.789958 0.568174 0.230529
100.921 108.147 146.102 -0.789958 0.568174 0.230529
101.883 107.133 146.827 -0.319767 -0.159272 0.934014
101.212 107.799 146.711 -0.319767 -0.159272 0.934014
101.155 107.018 146.558 -0.319767 -0.159272 0.934014
103.155 107.571 146.061 0.799159 0.596546 0.074012
102.559 108.313 146.516 0.799159 0.596546 0.074012
103.235 107.388 146.664 0.799159 0.596546 0.074012
102.634 108.191 145.931 0.768672 0.638702 -0.0346968
102.559 108.313 146.516 0.768672 0.638702 -0.0346968
103.155 107.571 146.061 0.768672 0.638702 -0.0346968
103.235 107.388 146.664 0.915568 0.402164 -0.000179985
103.404 107.004 146.033 0.915568 0.402164 -0.000179985
103.155 107.571 146.061 0.915568 0.402164 -0.000179985
100.921 108.147 146.102 -0.371053 0.909136 -0.189185
100.845 108.241 146.702 -0.371053 0.909136 -0.189185
101.258 108.392 146.618 -0.371053 0.909136 -0.189185
101.48 108.599 146.018 -0.624954 0.779737 0.0379812
100.921 108.147 146.102 -0.624954 0.779737 0.0379812
101.258 108.392 146.618 -0.624954 0.779737 0.0379812
102.063 109.06 146.003 -0.247119 0.736753 0.629386
102.047 108.545 146.6 -0.247119 0.736753 0.629386
102.277 109.084 146.059 -0.247119 0.736753 0.629386
102.063 109.06 146.003 -0.506537 0.659215 0.555748
101.48 108.599 146.018 -0.506537 0.659215 0.555748
102.047 108.545 146.6 -0.506537 0.659215 0.555748
101.48 108.599 146.018 -0.177181 0.948702 0.261859
101.258 108.392 146.618 -0.177181 0.948702 0.261859
102.047 108.545 146.6 -0.177181 0.948702 0.261859
102.277 109.084 146.059 0.378438 0.570434 0.728964
102.047 108.545 146.6 0.378438 0.570434 0.728964
102.559 108.313 146.516 0.378438 0.570434 0.728964
102.277 109.084 146.059 0.875518 0.439599 0.200553
102.559 108.313 146.516 0.875518 0.439599 0.200553
102.389 108.916 145.936 0.875518 0.439599 0.200553
102.389 108.916 145.936 0.946205 0.318983 0.0542726
102.559 108.313 146.516 0.946205 0.318983 0.0542726
102.634 108.191 145.931 0.946205 0.318983 0.0542726
101.498 104.156 146.739 -0.441396 -0.474035 0.761879
101.483 104.398 146.881 -0.441396 -0.474035 0.761879
101.196 104.275 146.638 -0.441396 -0.474035 0.761879
101.498 104.156 146.739 0.120874 -0.779409 0.614745
102.188 104.132 146.573 0.120874 -0.779409 0.614745
102.219 104.401 146.907 0.120874 -0.779409 0.614745
101.483 104.398 146.881 -0.0289425 -0.507021 0.861447
101.498 104.156 146.739 -0.0289425 -0.507021 0.861447
102.219 104.401 146.907 -0.0289425 -0.507021 0.861447
102.188 104.132 146.573 0.278757 -0.761386 0.585309
102.666 104.421 146.721 0.278757 -0.761386 0.585309
102.219 104.401 146.907 0.278757 -0.761386 0.585309
101.196 104.275 146.638 -0.611786 -0.118048 0.782165
101.483 104.398 146.881 -0.611786 -0.118048 0.782165
101.204 104.799 146.723 -0.611786 -0.118048 0.782165
102.202 105.244 146.898 -0.253381 0.196245 0.947252
101.204 104.799 146.723 -0.253381 0.196245 0.947252
101.483 104.398 146.881 -0.253381 0.196245 0.947252
102.202 105.244 146.898 -0.0355956 0.0100813 0.999315
101.483 104.398 146.881 -0.0355956 0.0100813 0.999315
102.219 104.401 146.907 -0.0355956 0.0100813 0.999315
102.666 104.421 146.721 0.638092 -0.481252 0.601028
103.235 104.959 146.547 0.638092 -0.481252 0.601028
103.044 105.129 146.887 0.638092 -0.481252 0.601028
102.666 104.421 146.721 0.369062 -0.394128 0.841698
103.044 105.129 146.887 0.369062 -0.394128 0.841698
102.219 104.401 146.907 0.369062 -0.394128 0.841698
102.219 104.401 146.907 0.0149087 0.011125 0.999827
103.044 105.129 146.887 0.0149087 0.011125 0.999827
102.202 105.244 146.898 0.0149087 0.011125 0.999827
103.235 104.959 146.547 0.733871 -0.343689 0.585928
103.401 105.513 146.665 0.733871 -0.343689 0.585928
103.044 105.129 146.887 0.733871 -0.343689 0.585928
102.431 106.109 146.881 -0.186603 0.0690407 0.980006
102.13 105.798 146.845 -0.186603 0.0690407 0.980006
102.202 105.244 146.898 -0.186603 0.0690407 0.980006
102.431 106.109 146.881 -0.102857 0.0471257 0.993579
102.202 105.244 146.898 -0.102857 0.0471257 0.993579
103.04 106.206 146.939 -0.102857 0.0471257 0.993579
103.04 106.206 146.939 0.00675427 -0.0485887 0.998796
102.202 105.244 146.898 0.00675427 -0.0485887 0.998796
103.044 105.129 146.887 0.00675427 -0.0485887 0.998796
103.401 105.513 146.665 0.568327 -0.0297853 0.822263
103.434 106.453 146.676 0.568327 -0.0297853 0.822263
103.04 106.206 146.939 0.568327 -0.0297853 0.822263
103.044 105.129 146.887 0.557131 -0.038483 0.829533
103.401 105.513 146.665 0.557131 -0.038483 0.829533
103.04 106.206 146.939 0.557131 -0.038483 0.829533
102.354 106.6 146.889 -0.269471 -0.12573 0.954766
102.257 107.329 146.958 -0.269471 -0.12573 0.954766
101.883 107.133 146.827 -0.269471 -0.12573 0.954766
102.354 106.6 146.889 -0.0904605 -0.0316497 0.995397
102.431 106.109 146.881 -0.0904605 -0.0316497 0.995397
103.04 106.206 146.939 -0.0904605 -0.0316497 0.995397
102.354 106.6 146.889 -0.135006 -0.110666 0.984645
103.04 106.206 146.939 -0.135006 -0.110666 0.984645
102.257 107.329 146.958 -0.135006 -0.110666 0.984645
102.257 107.329 146.958 0.0338308 0.006866 0.999404
103.04 106.206 146.939 0.0338308 0.006866 0.999404
103.105 107.16 146.93 0.0338308 0.006866 0.999404
103.434 106.453 146.676 0.813195 0.179502 0.553618
103.235 107.388 146.664 0.813195 0.179502 0.553618
103.105 107.16 146.93 0.813195 0.179502 0.553618
103.04 106.206 146.939 0.568835 -0.0310195 0.821867
103.434 106.453 146.676 0.568835 -0.0310195 0.821867
103.105 107.16 146.93 0.568835 -0.0310195 0.821867
101.212 107.799 146.711 -0.266226 -0.203149 0.94226
101.48 108.182 146.869 -0.266226 -0.203149 0.94226
100.845 108.241 146.702 -0.266226 -0.203149 0.94226
101.212 107.799 146.711 -0.276488 -0.112121 0.954454
101.883 107.133 146.827 -0.276488 -0.112121 0.954454
102.257 107.329 146.958 -0.276488 -0.112121 0.954454
101.212 107.799 146.711 -0.301298 -0.17642 0.937067
102.257 107.329 146.958 -0.301298 -0.17642 0.937067
101.48 108.182 146.869 -0.301298 -0.17642 0.937067
101.48 108.182 146.869 -0.00886805 0.0959305 0.995349
102.257 107.329 146.958 -0.00886805 0.0959305 0.995349
102.413 108.016 146.893 -0.00886805 0.0959305 0.995349
103.235 107.388 146.664 0.573505 0.521208 0.632008
102.559 108.313 146.516 0.573505 0.521208 0.632008
102.413 108.016 146.893 0.573505 0.521208 0.632008
103.235 107.388 146.664 0.55397 0.47736 0.682088
102.413 108.016 146.893 0.55397 0.47736 0.682088
103.105 107.16 146.93 0.55397 0.47736 0.682088
103.105 107.16 146.93 0.0488063 0.0828123 0.995369
102.413 108.016 146.893 0.0488063 0.0828123 0.995369
102.257 107.329 146.958 0.0488063 0.0828123 0.995369
100.845 108.241 146.702 -0.117183 0.706169 0.698279
101.48 108.182 146.869 -0.117183 0.706169 0.698279
101.258 108.392 146.618 -0.117183 0.706169 0.698279
102.047 108.545 146.6 -0.119899 0.704617 0.699385
101.258 108.392 146.618 -0.119899 0.704617 0.699385
101.48 108.182 146.869 -0.119899 0.704617 0.699385
102.413 108.016 146.893 0.0702234 0.520166 0.851173
102.047 108.545 146.6 0.0702234 0.520166 0.851173
101.48 108.182 146.869 0.0702234 0.520166 0.851173
102.559 108.313 146.516 0.398079 0.63983 0.657382
102.047 108.545 146.6 0.398079 0.63983 0.657382
102.413 108.016 146.893 0.398079 0.63983 0.657382
3 0 1 2
3 3 4 5
3 6 7 8
3 9 10 11
3 12 13 14
3 15 16 17
3 18 19 20
3 21 22 23
3 24 25 26
3 27 28 29
3 30 31 32
3 33 34 35
3 36 37 38
3 39 40 41
3 42 43 44
3 45 46 47
3 48 49 50
3 51 52 53
3 54 55 56
3 57 58 59
3 60 61 62
3 63 64 65
3 66 67 68
3 69 70 71
3 72 73 74
3 75 76 77
3 78 79 80
3 81 82 83
3 84 85 86
3 87 88 89
3 90 91 92
3 93 94 95
3 96 97 98
3 99 100 101
3 102 103 104
3 105 106 107
3 108 109 110
3 111 112 113
3 114 115 116
3 117 118 119
3 120 121 122
3 123 124 125
3 126 127 128
3 129 130 131
3 132 133 134
3 135 136 137
3 138 139 140
3 141 142 143
3 144 145 146
3 147 148 149
3 150 151 152
3 153 154 155
3 156 157 158
3 159 160 161
3 162 163 164
3 165 166 167
3 168 169 170
3 171 172 173
3 174 175 176
3 177 178 179
3 180 181 182
3 183 184 185
3 186 187 188
3 189 190 191
3 192 193 194
3 195 196 197
3 198 199 200
3 201 202 203
3 204 205 206
3 207 208 209
3 210 211 212
3 213 214 215
3 216 217 218
3 219 220 221
3 222 223 224
3 225 226 227
3 228 229 230
3 231 232 233
3 234 235 236
3 237 238 239
3 240 241 242
3 243 244 245
3 246 247 248
3 249 250 251
3 252 253 254
3 255 256 257
3 258 259 260
3 261 262 263
3 264 265 266
3 267 268 269
3 270 271 272
3 273 274 275
3 276 277 278
3 279 280 281
3 282 283 284
3 285 286 287
3 288 289 290
3 291 292 293
3 294 295 296
3 297 298 299
3 300 301 302
3 303 304 305
3 306 307 308
3 309 310 311
3 312 313 314
3 315 316 317
3 318 319 320
3 321 322 323
3 324 325 326
3 327 328 329
3 330 331 332
3 333 334 335
3 336 337 338
3 339 340 341
3 342 343 344
3 345 346 347
3 348 349 350
3 351 352 353
3 354 355 356
3 357 358 359
3 360 361 362
3 363 364 365
3 366 367 368
3 369 370 371
3 372 373 374
3 375 376 377
3 378 379 380
3 381 382 383
3 384 385 386
3 387 388 389
3 390 391 392
3 393 394 395
3 396 397 398
3 399 400 401
3 402 403 404
3 405 406 407
3 408 409 410
3 411 412 413
3 414 415 416
3 417 418 419
3 420 421 422
3 423 424 425
3 426 427 428
3 429 430 431
3 432 433 434
3 435 436 437
3 438 439 440
3 441 442 443
3 444 445 446
3 447 448 449
3 450 451 452
3 453 454 455
3 456 457 458
3 459 460 461
3 462 463 464
3 465 466 467
3 468 469 470
3 471 472 473
