ply
format ascii 1.0
element vertex 624
property float x
property float y
property float z
property float nx
property float ny
property float nz
element face 208
property list uint uint vertex_indices
end_header
57.2678 127.337 129.155 -0.144182 -0.600794 -0.786294
57.2575 126.948 129.454 -0.144182 -0.600794 -0.786294
56.8037 127.293 129.274 -0.144182 -0.600794 -0.786294
57.2678 127.337 129.155 0.257318 -0.045613 -0.96525
58.0259 127.477 129.35 0.257318 -0.045613 -0.96525
57.986 127.084 129.358 0.257318 -0.045613 -0.96525
57.2575 126.948 129.454 0.00951678 -0.609697 -0.792577
57.2678 127.337 129.155 0.00951678 -0.609697 -0.792577
57.986 127.084 129.358 0.00951678 -0.609697 -0.792577
57.986 127.084 129.358 0.650811 -0.0812756 -0.754877
58.0259 127.477 129.35 0.650811 -0.0812756 -0.754877
58.2865 127.203 129.605 0.650811 -0.0812756 -0.754877
56.3349 128.218 129.062 -0.435969 -0.357681 -0.82583
56.177 127.668 129.384 -0.435969 -0.357681 -0.82583
55.75 128.211 129.374 -0.435969 -0.357681 -0.82583
56.8037 127.293 129.274 -0.377626 -0.384173 -0.842502
56.177 127.668 129.384 -0.377626 -0.384173 -0.842502
56.3349 128.218 129.062 -0.377626 -0.384173 -0.842502
56.8037 127.293 129.274 -0.206831 -0.316657 -0.925716
56.3349 128.218 129.062 -0.206831 -0.316657 -0.925716
57.2678 127.337 129.155 -0.206831 -0.316657 -0.925716
57.2678 127.337 129.155 0.102358 0.00346532 -0.994742
56.3349 128.218 129.062 0.102358 0.00346532 -0.994742
57.2458 128.18 129.156 0.102358 0.00346532 -0.994742
57.5812 128.165 129.323 0.441749 0.251695 -0.861108
58.0259 127.477 129.35 0.441749 0.251695 -0.861108
57.2458 128.18 129.156 0.441749 0.251695 -0.861108
57.2458 128.18 129.156 0.248423 0.00725868 -0.968624
58.0259 127.477 129.35 0.248423 0.00725868 -0.968624
57.2678 127.337 129.155 0.248423 0.00725868 -0.968624
55.75 128.211 129.374 -0.636822 -0.418581 -0.647493
55.0493 129.156 129.452 -0.636822 -0.418581 -0.647493
55.4594 129.169 129.04 -0.636822 -0.418581 -0.647493
55.75 128.211 129.374 -0.425231 -0.409925 -0.806932
55.4594 129.169 129.04 -0.425231 -0.409925 -0.806932
56.3349 128.218 129.062 -0.425231 -0.409925 -0.806932
56.3349 128.218 129.062 -0.0531551 -0.0716002 -0.996016
55.4594 129.169 129.04 -0.0531551 -0.0716002 -0.996016
56.1548 129.187 129.002 -0.0531551 -0.0716002 -0.996016
57.2458 128.18 129.156 0.105547 0.0902636 -0.990309
56.3349 128.218 129.062 0.105547 0.0902636 -0.990309
57.0026 129.345 129.236 0.105547 0.0902636 -0.990309
57.0026 129.345 129.236 0.26765 -0.00992589 -0.963465
56.3349 128.218 129.062 0.26765 -0.00992589 -0.963465
56.1548 129.187 129.002 0.26765 -0.00992589 -0.963465
57.5772 128.998 129.511 0.445268 0.19919 -0.87296
57.5812 128.165 129.323 0.445268 0.19919 -0.87296
57.2458 128.18 129.156 0.445268 0.19919 -0.87296
57.0026 129.345 129.236 0.505147 0.163798 -0.847347
57.5772 128.998 129.511 0.505147 0.163798 -0.847347
57.2458 128.18 129.156 0.505147 0.163798 -0.847347
55.238 130.161 129.093 -0.70167 -0.11928 -0.702447
55.4594 129.169 129.04 -0.70167 -0.11928 -0.702447
55.0493 129.156 129.452 -0.70167 -0.11928 -0.702447
54.9047 130.175 129.404 -0.679213 -0.130568 -0.722234
55.238 130.161 129.093 -0.679213 -0.130568 -0.722234
55.0493 129.156 129.452 -0.679213 -0.130568 -0.722234
56.1548 129.187 129.002 -0.0568981 0.0778087 -0.995343
55.4594 129.169 129.04 -0.0568981 0.0778087 -0.995343
56.1455 130.091 129.073 -0.0568981 0.0778087 -0.995343
56.1455 130.091 129.073 -0.0180243 0.0489985 -0.998636
55.4594 129.169 129.04 -0.0180243 0.0489985 -0.998636
55.238 130.161 129.093 -0.0180243 0.0489985 -0.998636
56.7961 130.203 129.206 0.1976 0.0133284 -0.980192
57.0026 129.345 129.236 0.1976 0.0133284 -0.980192
56.1455 130.091 129.073 0.1976 0.0133284 -0.980192
56.1455 130.091 129.073 0.251419 0.0785802 -0.964683
57.0026 129.345 129.236 0.251419 0.0785802 -0.964683
56.1548 129.187 129.002 0.251419 0.0785802 -0.964683
55.1446 130.94 129.163 -0.68233 -0.0162054 -0.730864
55.238 130.161 129.093 -0.68233 -0.0162054 -0.730864
54.9047 130.175 129.404 -0.68233 -0.0162054 -0.730864
54.9888 130.933 129.442 -0.868199 0.120685 -0.481316
55.1446 130.94 129.163 -0.868199 0.120685 -0.481316
54.9047 130.175 129.404 -0.868199 0.120685 -0.481316
56.1455 130.091 129.073 -0.0160449 0.0741654 -0.997117
55.238 130.161 129.093 -0.0160449 0.0741654 -0.997117
55.8929 130.984 129.144 -0.0160449 0.0741654 -0.997117
55.8929 130.984 129.144 -0.0307364 0.0857708 -0.995841
55.238 130.161 129.093 -0.0307364 0.0857708 -0.995841
55.1446 130.94 129.163 -0.0307364 0.0857708 -0.995841
56.7208 130.902 129.229 0.190737 0.0532517 -0.980196
56.7961 130.203 129.206 0.190737 0.0532517 -0.980196
56.1455 130.091 129.073 0.190737 0.0532517 -0.980196
55.8929 130.984 129.144 0.112914 0.109865 -0.987512
56.7208 130.902 129.229 0.112914 0.109865 -0.987512
56.1455 130.091 129.073 0.112914 0.109865 -0.987512
55.1446 130.94 129.163 -0.650459 0.676838 -0.344665
54.9888 130.933 129.442 -0.650459 0.676838 -0.344665
55.3678 131.242 129.334 -0.650459 0.676838 -0.344665
55.8929 130.984 129.144 -0.0527756 0.521665 -0.851517
55.1446 130.94 129.163 -0.0527756 0.521665 -0.851517
55.3678 131.242 129.334 -0.0527756 0.521665 -0.851517
56.2921 131.254 129.428 0.0657717 0.676424 -0.73357
55.8929 130.984 129.144 0.0657717 0.676424 -0.73357
55.3678 131.242 129.334 0.0657717 0.676424 -0.73357
56.7208 130.902 129.229 0.141308 0.611825 -0.778269
55.8929 130.984 129.144 0.141308 0.611825 -0.778269
56.2921 131.254 129.428 0.141308 0.611825 -0.778269
56.384 126.226 130.138 -0.638934 -0.769176 0.0114325
56.3209 126.282 130.419 -0.638934 -0.769176 0.0114325
56.0922 126.47 130.261 -0.638934 -0.769176 0.0114325
56.384 126.226 130.138 -0.0194472 -0.618192 -0.785787
57.1032 126.342 130.029 -0.0194472 -0.618192 -0.785787
56.9551 126.079 130.239 -0.0194472 -0.618192 -0.785787
56.3209 126.282 130.419 -0.268592 -0.954189 0.131839
56.384 126.226 130.138 -0.268592 -0.954189 0.131839
56.9551 126.079 130.239 -0.268592 -0.954189 0.131839
56.9551 126.079 130.239 0.503276 -0.694866 -0.513687
57.1032 126.342 130.029 0.503276 -0.694866 -0.513687
57.3361 126.284 130.336 0.503276 -0.694866 -0.513687
56.3697 126.923 129.859 -0.579863 -0.313066 -0.752162
56.384 126.226 130.138 -0.579863 -0.313066 -0.752162
56.0922 126.47 130.261 -0.579863 -0.313066 -0.752162
55.948 127.285 130.068 -0.610316 -0.283378 -0.739737
56.3697 126.923 129.859 -0.610316 -0.283378 -0.739737
56.0922 126.47 130.261 -0.610316 -0.283378 -0.739737
57.2575 126.948 129.454 -0.277208 -0.705552 -0.652191
56.3697 126.923 129.859 -0.277208 -0.705552 -0.652191
56.8037 127.293 129.274 -0.277208 -0.705552 -0.652191
57.2575 126.948 129.454 -0.314322 -0.60962 -0.727712
57.1032 126.342 130.029 -0.314322 -0.60962 -0.727712
56.3697 126.923 129.859 -0.314322 -0.60962 -0.727712
57.1032 126.342 130.029 -0.08034 -0.371978 -0.924758
56.384 126.226 130.138 -0.08034 -0.371978 -0.924758
56.3697 126.923 129.859 -0.08034 -0.371978 -0.924758
57.1032 126.342 130.029 0.485519 -0.714386 -0.503908
57.9634 126.836 130.157 0.485519 -0.714386 -0.503908
57.3361 126.284 130.336 0.485519 -0.714386 -0.503908
57.1032 126.342 130.029 0.469521 -0.667298 -0.578155
57.2575 126.948 129.454 0.469521 -0.667298 -0.578155
57.9634 126.836 130.157 0.469521 -0.667298 -0.578155
57.2575 126.948 129.454 0.138515 -0.946904 -0.290149
57.986 127.084 129.358 0.138515 -0.946904 -0.290149
57.9634 126.836 130.157 0.138515 -0.946904 -0.290149
57.9634 126.836 130.157 0.521038 -0.819199 -0.239651
57.986 127.084 129.358 0.521038 -0.819199 -0.239651
58.2865 127.203 129.605 0.521038 -0.819199 -0.239651
58.402 127.177 130.371 0.645879 -0.753475 -0.122944
57.9634 126.836 130.157 0.645879 -0.753475 -0.122944
58.2865 127.203 129.605 0.645879 -0.753475 -0.122944
56.177 127.668 129.384 -0.691021 -0.507108 -0.515103
56.3697 126.923 129.859 -0.691021 -0.507108 -0.515103
55.948 127.285 130.068 -0.691021 -0.507108 -0.515103
56.177 127.668 129.384 -0.666088 -0.533324 -0.521433
55.948 127.285 130.068 -0.666088 -0.533324 -0.521433
55.75 128.211 129.374 -0.666088 -0.533324 -0.521433
55.75 128.211 129.374 -0.935441 -0.317136 -0.156126
55.948 127.285 130.068 -0.935441 -0.317136 -0.156126
55.6453 128.113 130.2 -0.935441 -0.317136 -0.156126
56.8037 127.293 129.274 -0.456037 -0.55927 -0.692277
56.3697 126.923 129.859 -0.456037 -0.55927 -0.692277
56.177 127.668 129.384 -0.456037 -0.55927 -0.692277
58.0259 127.477 129.35 0.610712 0.36734 -0.701493
57.5812 128.165 129.323 0.610712 0.36734 -0.701493
58.1074 128.236 129.818 0.610712 0.36734 -0.701493
58.0259 127.477 129.35 0.809556 0.242876 -0.534445
58.1074 128.236 129.818 0.809556 0.242876 -0.534445
58.5241 127.916 130.305 0.809556 0.242876 -0.534445
58.0259 127.477 129.35 0.800884 0.26173 -0.538593
58.5241 127.916 130.305 0.800884 0.26173 -0.538593
58.2865 127.203 129.605 0.800884 0.26173 -0.538593
58.2865 127.203 129.605 0.972787 -0.174365 -0.152584
58.5241 127.916 130.305 0.972787 -0.174365 -0.152584
58.402 127.177 130.371 0.972787 -0.174365 -0.152584
55.0493 129.156 129.452 -0.874369 -0.480972 -0.0643829
55.1425 128.86 130.395 -0.874369 -0.480972 -0.0643829
54.8653 129.402 130.114 -0.874369 -0.480972 -0.0643829
55.6453 128.113 130.2 -0.798264 -0.577954 -0.16954
55.0493 129.156 129.452 -0.798264 -0.577954 -0.16954
55.75 128.211 129.374 -0.798264 -0.577954 -0.16954
55.1425 128.86 130.395 -0.83674 -0.540671 -0.0868372
55.0493 129.156 129.452 -0.83674 -0.540671 -0.0868372
55.6453 128.113 130.2 -0.83674 -0.540671 -0.0868372
58.1074 128.236 129.818 0.67197 0.177738 -0.718933
57.5772 128.998 129.511 0.67197 0.177738 -0.718933
58.4291 128.886 130.28 0.67197 0.177738 -0.718933
57.5812 128.165 129.323 0.663528 0.167777 -0.729096
57.5772 128.998 129.511 0.663528 0.167777 -0.729096
58.1074 128.236 129.818 0.663528 0.167777 -0.729096
58.4291 128.886 130.28 0.777097 0.0601783 -0.626497
58.5241 127.916 130.305 0.777097 0.0601783 -0.626497
58.1074 128.236 129.818 0.777097 0.0601783 -0.626497
55.0493 129.156 129.452 -0.965701 -0.147046 -0.214009
54.8653 129.402 130.114 -0.965701 -0.147046 -0.214009
54.9047 130.175 129.404 -0.965701 -0.147046 -0.214009
54.8653 129.402 130.114 -0.999269 0.0325154 -0.0201058
54.8866 130.157 130.273 -0.999269 0.0325154 -0.0201058
54.9047 130.175 129.404 -0.999269 0.0325154 -0.0201058
57.0026 129.345 129.236 0.545969 0.102414 -0.831522
56.7961 130.203 129.206 0.545969 0.102414 -0.831522
57.1973 130.373 129.49 0.545969 0.102414 -0.831522
57.0026 129.345 129.236 0.633423 0.070763 -0.770563
57.1973 130.373 129.49 0.633423 0.070763 -0.770563
57.8128 130.011 129.963 0.633423 0.070763 -0.770563
57.5772 128.998 129.511 0.533052 0.238119 -0.811883
57.0026 129.345 129.236 0.533052 0.238119 -0.811883
57.8128 130.011 129.963 0.533052 0.238119 -0.811883
57.5772 128.998 129.511 0.635298 0.186463 -0.749418
57.8128 130.011 129.963 0.635298 0.186463 -0.749418
58.2777 129.471 130.223 0.635298 0.186463 -0.749418
57.5772 128.998 129.511 0.67372 0.103031 -0.731769
58.2777 129.471 130.223 0.67372 0.103031 -0.731769
58.4291 128.886 130.28 0.67372 0.103031 -0.731769
55.098 130.66 130.137 -0.730061 0.589137 0.346309
55.2608 131.155 129.637 -0.730061 0.589137 0.346309
54.9888 130.933 129.442 -0.730061 0.589137 0.346309
55.098 130.66 130.137 -0.845576 0.438096 0.30508
54.9888 130.933 129.442 -0.845576 0.438096 0.30508
54.8866 130.157 130.273 -0.845576 0.438096 0.30508
54.8866 130.157 130.273 -0.993618 0.111301 -0.0183111
54.9888 130.933 129.442 -0.993618 0.111301 -0.0183111
54.9047 130.175 129.404 -0.993618 0.111301 -0.0183111
55.098 130.66 130.137 -0.673562 0.622767 0.39809
55.6618 131.097 130.406 -0.673562 0.622767 0.39809
55.2608 131.155 129.637 -0.673562 0.622767 0.39809
57.1973 130.373 129.49 0.608324 0.164807 -0.776389
56.7208 130.902 129.229 0.608324 0.164807 -0.776389
57.0646 131.092 129.539 0.608324 0.164807 -0.776389
56.7961 130.203 129.206 0.551249 0.0870637 -0.829786
56.7208 130.902 129.229 0.551249 0.0870637 -0.829786
57.1973 130.373 129.49 0.551249 0.0870637 -0.829786
57.5485 130.903 130.15 0.69034 0.338806 -0.639251
57.8128 130.011 129.963 0.69034 0.338806 -0.639251
57.1973 130.373 129.49 0.69034 0.338806 -0.639251
57.0646 131.092 129.539 0.797662 0.185989 -0.57371
57.5485 130.903 130.15 0.797662 0.185989 -0.57371
57.1973 130.373 129.49 0.797662 0.185989 -0.57371
54.9888 130.933 129.442 -0.632241 0.774771 -0.000857149
55.2608 131.155 129.637 -0.632241 0.774771 -0.000857149
55.3678 131.242 129.334 -0.632241 0.774771 -0.000857149
55.2608 131.155 129.637 -0.390147 0.880463 0.269387
55.6618 131.097 130.406 -0.390147 0.880463 0.269387
56.1112 131.369 130.168 -0.390147 0.880463 0.269387
55.2608 131.155 129.637 -0.32926 0.932093 0.150964
56.1112 131.369 130.168 -0.32926 0.932093 0.150964
55.3678 131.242 129.334 -0.32926 0.932093 0.150964
55.3678 131.242 129.334 0.00220662 0.988226 -0.152985
56.1112 131.369 130.168 0.00220662 0.988226 -0.152985
56.2921 131.254 129.428 0.00220662 0.988226 -0.152985
57.0646 131.092 129.539 0.242148 0.683737 -0.688381
56.7208 130.902 129.229 0.242148 0.683737 -0.688381
56.2921 131.254 129.428 0.242148 0.683737 -0.688381
57.0646 131.092 129.539 0.235853 0.929296 -0.284222
56.2921 131.254 129.428 0.235853 0.929296 -0.284222
57.2093 131.292 130.314 0.235853 0.929296 -0.284222
57.2093 131.292 130.314 0.0866885 0.987425 -0.132202
56.2921 131.254 129.428 0.0866885 0.987425 -0.132202
56.1112 131.369 130.168 0.0866885 0.987425 -0.132202
57.5485 130.903 130.15 0.652896 0.69486 -0.30149
57.0646 131.092 129.539 0.652896 0.69486 -0.30149
57.2093 131.292 130.314 0.652896 0.69486 -0.30149
56.3209 126.282 130.419 -0.0841132 -0.794062 0.601988
56.9551 126.079 130.239 -0.0841132 -0.794062 0.601988
56.9757 126.304 130.539 -0.0841132 -0.794062 0.601988
56.9551 126.079 130.239 0.275231 -0.777771 0.565084
57.3361 126.284 130.336 0.275231 -0.777771 0.565084
56.9757 126.304 130.539 0.275231 -0.777771 0.565084
56.3209 126.282 130.419 -0.593643 -0.50396 0.627385
56.3715 127.115 131.135 -0.593643 -0.50396 0.627385
55.9996 127.135 130.8 -0.593643 -0.50396 0.627385
56.3209 126.282 130.419 -0.730051 -0.48851 0.477895
55.9996 127.135 130.8 -0.730051 -0.48851 0.477895
56.0922 126.47 130.261 -0.730051 -0.48851 0.477895
56.0922 126.47 130.261 -0.985515 -0.165827 0.0355222
55.9996 127.135 130.8 -0.985515 -0.165827 0.0355222
55.948 127.285 130.068 -0.985515 -0.165827 0.0355222
56.9757 126.304 130.539 -0.11745 -0.64376 0.756161
56.3715 127.115 131.135 -0.11745 -0.64376 0.756161
56.3209 126.282 130.419 -0.11745 -0.64376 0.756161
57.3671 126.835 131.086 -0.147322 -0.654978 0.741147
56.3715 127.115 131.135 -0.147322 -0.654978 0.741147
56.9757 126.304 130.539 -0.147322 -0.654978 0.741147
57.3361 126.284 130.336 0.273296 -0.780717 0.561952
57.3671 126.835 131.086 0.273296 -0.780717 0.561952
56.9757 126.304 130.539 0.273296 -0.780717 0.561952
57.3361 126.284 130.336 0.663446 -0.615915 0.42484
57.9634 126.836 130.157 0.663446 -0.615915 0.42484
57.3671 126.835 131.086 0.663446 -0.615915 0.42484
57.9634 126.836 130.157 0.164995 -0.980769 0.104255
58.1733 126.97 131.089 0.164995 -0.980769 0.104255
57.3671 126.835 131.086 0.164995 -0.980769 0.104255
58.1733 126.97 131.089 0.621851 -0.782662 -0.0272263
57.9634 126.836 130.157 0.621851 -0.782662 -0.0272263
58.402 127.177 130.371 0.621851 -0.782662 -0.0272263
58.5038 127.349 131.306 0.740738 -0.670418 0.0429729
58.1733 126.97 131.089 0.740738 -0.670418 0.0429729
58.402 127.177 130.371 0.740738 -0.670418 0.0429729
55.948 127.285 130.068 -0.939404 -0.342788 -0.00392016
55.9996 127.135 130.8 -0.939404 -0.342788 -0.00392016
55.6453 128.113 130.2 -0.939404 -0.342788 -0.00392016
55.9996 127.135 130.8 -0.955487 -0.253385 0.151131
55.7835 128.086 131.026 -0.955487 -0.253385 0.151131
55.6453 128.113 130.2 -0.955487 -0.253385 0.151131
58.9784 127.948 131.23 0.839345 -0.368532 -0.399605
58.5241 127.916 130.305 0.839345 -0.368532 -0.399605
59.1719 128.475 131.15 0.839345 -0.368532 -0.399605
58.9784 127.948 131.23 0.718089 -0.611699 -0.331921
58.5038 127.349 131.306 0.718089 -0.611699 -0.331921
58.5241 127.916 130.305 0.718089 -0.611699 -0.331921
58.5038 127.349 131.306 0.982674 -0.169119 -0.0758321
58.402 127.177 130.371 0.982674 -0.169119 -0.0758321
58.5241 127.916 130.305 0.982674 -0.169119 -0.0758321
55.1425 128.86 130.395 -0.861579 -0.477606 0.171971
55.2794 128.879 131.132 -0.861579 -0.477606 0.171971
54.9799 129.343 130.922 -0.861579 -0.477606 0.171971
54.8653 129.402 130.114 -0.905666 -0.412369 0.0985895
55.1425 128.86 130.395 -0.905666 -0.412369 0.0985895
54.9799 129.343 130.922 -0.905666 -0.412369 0.0985895
55.7835 128.086 131.026 -0.8096 -0.57543 0.115882
55.1425 128.86 130.395 -0.8096 -0.57543 0.115882
55.6453 128.113 130.2 -0.8096 -0.57543 0.115882
55.2794 128.879 131.132 -0.822043 -0.544592 0.166326
55.1425 128.86 130.395 -0.822043 -0.544592 0.166326
55.7835 128.086 131.026 -0.822043 -0.544592 0.166326
59.1719 128.475 131.15 0.731343 -0.104698 -0.673926
58.4291 128.886 130.28 0.731343 -0.104698 -0.673926
59.0952 129.389 130.925 0.731343 -0.104698 -0.673926
58.5241 127.916 130.305 0.772854 0.0596277 -0.631776
58.4291 128.886 130.28 0.772854 0.0596277 -0.631776
59.1719 128.475 131.15 0.772854 0.0596277 -0.631776
59.0952 129.389 130.925 0.735491 -0.103288 -0.669616
59.3919 129.3 131.264 0.735491 -0.103288 -0.669616
59.1719 128.475 131.15 0.735491 -0.103288 -0.669616
54.8653 129.402 130.114 -0.990113 -0.00152539 0.140265
54.9799 129.343 130.922 -0.990113 -0.00152539 0.140265
54.8866 130.157 130.273 -0.990113 -0.00152539 0.140265
54.9799 129.343 130.922 -0.986786 0.0156238 0.161272
55.0172 130.003 131.087 -0.986786 0.0156238 0.161272
54.8866 130.157 130.273 -0.986786 0.0156238 0.161272
58.2777 129.471 130.223 0.65471 0.215147 -0.724614
57.8128 130.011 129.963 0.65471 0.215147 -0.724614
58.3585 130.21 130.515 0.65471 0.215147 -0.724614
58.2777 129.471 130.223 0.653835 0.0960614 -0.750515
59.0952 129.389 130.925 0.653835 0.0960614 -0.750515
58.4291 128.886 130.28 0.653835 0.0960614 -0.750515
58.2777 129.471 130.223 0.64817 0.217861 -0.729666
58.3585 130.21 130.515 0.64817 0.217861 -0.729666
59.0952 129.389 130.925 0.64817 0.217861 -0.729666
58.3585 130.21 130.515 0.612563 0.164191 -0.77318
59.0811 130.329 131.113 0.612563 0.164191 -0.77318
59.0952 129.389 130.925 0.612563 0.164191 -0.77318
59.3502 130.014 131.239 0.755693 0.0209397 -0.654591
59.3919 129.3 131.264 0.755693 0.0209397 -0.654591
59.0952 129.389 130.925 0.755693 0.0209397 -0.654591
59.0811 130.329 131.113 0.573287 0.169309 -0.801671
59.3502 130.014 131.239 0.573287 0.169309 -0.801671
59.0952 129.389 130.925 0.573287 0.169309 -0.801671
54.8866 130.157 130.273 -0.896608 0.386027 0.216972
55.0172 130.003 131.087 -0.896608 0.386027 0.216972
55.1707 130.453 130.92 -0.896608 0.386027 0.216972
55.098 130.66 130.137 -0.884431 0.424413 0.194049
54.8866 130.157 130.273 -0.884431 0.424413 0.194049
55.1707 130.453 130.92 -0.884431 0.424413 0.194049
55.1707 130.453 130.92 -0.665208 0.704451 0.247482
55.6618 131.097 130.406 -0.665208 0.704451 0.247482
55.098 130.66 130.137 -0.665208 0.704451 0.247482
55.7616 131.003 131.111 -0.701187 0.686888 0.191109
55.6618 131.097 130.406 -0.701187 0.686888 0.191109
55.1707 130.453 130.92 -0.701187 0.686888 0.191109
58.3585 130.21 130.515 0.644964 0.416719 -0.640598
57.5485 130.903 130.15 0.644964 0.416719 -0.640598
58.2466 131.012 130.924 0.644964 0.416719 -0.640598
57.8128 130.011 129.963 0.608446 0.3317 -0.72095
57.5485 130.903 130.15 0.608446 0.3317 -0.72095
58.3585 130.21 130.515 0.608446 0.3317 -0.72095
58.7848 130.965 131.415 0.581348 0.553612 -0.596279
59.1879 130.515 131.39 0.581348 0.553612 -0.596279
59.0811 130.329 131.113 0.581348 0.553612 -0.596279
58.7848 130.965 131.415 0.58663 0.553609 -0.591085
59.0811 130.329 131.113 0.58663 0.553609 -0.591085
58.2466 131.012 130.924 0.58663 0.553609 -0.591085
58.2466 131.012 130.924 0.526804 0.443376 -0.725187
59.0811 130.329 131.113 0.526804 0.443376 -0.725187
58.3585 130.21 130.515 0.526804 0.443376 -0.725187
59.3502 130.014 131.239 0.729914 0.402806 -0.552243
59.0811 130.329 131.113 0.729914 0.402806 -0.552243
59.1879 130.515 131.39 0.729914 0.402806 -0.552243
55.6618 131.097 130.406 -0.569353 0.800399 0.187615
55.7616 131.003 131.111 -0.569353 0.800399 0.187615
56.1524 131.307 130.999 -0.569353 0.800399 0.187615
56.1112 131.369 130.168 -0.480649 0.872402 0.0888323
55.6618 131.097 130.406 -0.480649 0.872402 0.0888323
56.1524 131.307 130.999 -0.480649 0.872402 0.0888323
57.2093 131.292 130.314 0.0785239 0.99467 -0.0668308
56.1112 131.369 130.168 0.0785239 0.99467 -0.0668308
57.0811 131.36 131.176 0.0785239 0.99467 -0.0668308
56.1112 131.369 130.168 -0.0715244 0.994416 0.0775929
56.1524 131.307 130.999 -0.0715244 0.994416 0.0775929
57.0811 131.36 131.176 -0.0715244 0.994416 0.0775929
58.2466 131.012 130.924 0.503204 0.668082 -0.548136
57.5485 130.903 130.15 0.503204 0.668082 -0.548136
57.2093 131.292 130.314 0.503204 0.668082 -0.548136
58.2466 131.012 130.924 0.444142 0.81026 -0.382383
57.2093 131.292 130.314 0.444142 0.81026 -0.382383
58.1097 131.268 131.309 0.444142 0.81026 -0.382383
58.1097 131.268 131.309 0.0971513 0.993213 -0.0639455
57.2093 131.292 130.314 0.0971513 0.993213 -0.0639455
57.0811 131.36 131.176 0.0971513 0.993213 -0.0639455
58.7848 130.965 131.415 0.427401 0.814921 -0.391448
58.2466 131.012 130.924 0.427401 0.814921 -0.391448
58.1097 131.268 131.309 0.427401 0.814921 -0.391448
56.3715 127.115 131.135 -0.170774 -0.725186 0.667039
57.3671 126.835 131.086 -0.170774 -0.725186 0.667039
57.1069 127.396 131.63 -0.170774 -0.725186 0.667039
58.0391 127.159 131.936 -0.373427 -0.728858 0.573863
57.1069 127.396 131.63 -0.373427 -0.728858 0.573863
57.3671 126.835 131.086 -0.373427 -0.728858 0.573863
58.0391 127.159 131.936 0.160618 -0.957636 0.239029
57.3671 126.835 131.086 0.160618 -0.957636 0.239029
58.1733 126.97 131.089 0.160618 -0.957636 0.239029
58.0391 127.159 131.936 0.648056 -0.715043 0.262175
58.1733 126.97 131.089 0.648056 -0.715043 0.262175
58.5038 127.349 131.306 0.648056 -0.715043 0.262175
58.3712 127.394 132.145 0.518429 -0.845611 0.127177
58.0391 127.159 131.936 0.518429 -0.845611 0.127177
58.5038 127.349 131.306 0.518429 -0.845611 0.127177
56.3715 127.115 131.135 -0.655074 -0.319987 0.684461
56.1917 128.306 131.52 -0.655074 -0.319987 0.684461
55.7835 128.086 131.026 -0.655074 -0.319987 0.684461
55.9996 127.135 130.8 -0.6455 -0.312807 0.696764
56.3715 127.115 131.135 -0.6455 -0.312807 0.696764
55.7835 128.086 131.026 -0.6455 -0.312807 0.696764
56.9988 128.166 132.065 -0.460448 -0.485063 0.743439
57.1069 127.396 131.63 -0.460448 -0.485063 0.743439
57.5285 128.05 132.317 -0.460448 -0.485063 0.743439
56.9988 128.166 132.065 -0.54866 -0.468565 0.692401
56.1917 128.306 131.52 -0.54866 -0.468565 0.692401
57.1069 127.396 131.63 -0.54866 -0.468565 0.692401
56.1917 128.306 131.52 -0.433628 -0.335617 0.836258
56.3715 127.115 131.135 -0.433628 -0.335617 0.836258
57.1069 127.396 131.63 -0.433628 -0.335617 0.836258
58.0391 127.159 131.936 -0.383088 -0.540713 0.748915
57.5285 128.05 132.317 -0.383088 -0.540713 0.748915
57.1069 127.396 131.63 -0.383088 -0.540713 0.748915
58.6152 128.228 132.032 0.709481 -0.500477 0.496145
58.5038 127.349 131.306 0.709481 -0.500477 0.496145
58.9784 127.948 131.23 0.709481 -0.500477 0.496145
58.6152 128.228 132.032 0.952417 -0.256746 0.164264
58.3712 127.394 132.145 0.952417 -0.256746 0.164264
58.5038 127.349 131.306 0.952417 -0.256746 0.164264
58.9784 127.948 131.23 0.849987 -0.240183 0.468866
59.1719 128.475 131.15 0.849987 -0.240183 0.468866
58.6152 128.228 132.032 0.849987 -0.240183 0.468866
55.2794 128.879 131.132 -0.732587 -0.17473 0.657864
55.3429 129.359 131.331 -0.732587 -0.17473 0.657864
54.9799 129.343 130.922 -0.732587 -0.17473 0.657864
55.2794 128.879 131.132 -0.575112 -0.456064 0.679155
55.7835 128.086 131.026 -0.575112 -0.456064 0.679155
56.1917 128.306 131.52 -0.575112 -0.456064 0.679155
55.2794 128.879 131.132 -0.51473 -0.268215 0.814318
56.1917 128.306 131.52 -0.51473 -0.268215 0.814318
55.3429 129.359 131.331 -0.51473 -0.268215 0.814318
55.3429 129.359 131.331 -0.34913 -0.113752 0.930145
56.1917 128.306 131.52 -0.34913 -0.113752 0.930145
56.2516 129.328 131.668 -0.34913 -0.113752 0.930145
57.168 129.161 132.265 -0.566447 -0.0688008 0.821221
56.1917 128.306 131.52 -0.566447 -0.0688008 0.821221
56.9988 128.166 132.065 -0.566447 -0.0688008 0.821221
56.2516 129.328 131.668 -0.555199 -0.0868309 0.827173
56.1917 128.306 131.52 -0.555199 -0.0868309 0.827173
57.168 129.161 132.265 -0.555199 -0.0868309 0.827173
58.6054 129.349 132.221 0.730468 -0.107315 0.674463
58.6152 128.228 132.032 0.730468 -0.107315 0.674463
59.1732 129.077 131.563 0.730468 -0.107315 0.674463
59.1719 128.475 131.15 0.862393 -0.287892 0.416408
59.3919 129.3 131.264 0.862393 -0.287892 0.416408
59.1732 129.077 131.563 0.862393 -0.287892 0.416408
58.6152 128.228 132.032 0.841387 -0.307217 0.444619
59.1719 128.475 131.15 0.841387 -0.307217 0.444619
59.1732 129.077 131.563 0.841387 -0.307217 0.444619
55.3429 129.359 131.331 -0.53311 0.0500562 0.844564
55.3585 130.306 131.284 -0.53311 0.0500562 0.844564
55.0172 130.003 131.087 -0.53311 0.0500562 0.844564
54.9799 129.343 130.922 -0.739339 -0.12331 0.661946
55.3429 129.359 131.331 -0.739339 -0.12331 0.661946
55.0172 130.003 131.087 -0.739339 -0.12331 0.661946
56.2516 129.328 131.668 -0.344006 0.08969 0.934674
56.1462 130.21 131.544 -0.344006 0.08969 0.934674
55.3429 129.359 131.331 -0.344006 0.08969 0.934674
56.1462 130.21 131.544 -0.307673 0.0515227 0.950096
55.3585 130.306 131.284 -0.307673 0.0515227 0.950096
55.3429 129.359 131.331 -0.307673 0.0515227 0.950096
57.0411 130.189 132.074 -0.532203 0.091204 0.84169
56.2516 129.328 131.668 -0.532203 0.091204 0.84169
57.168 129.161 132.265 -0.532203 0.091204 0.84169
56.1462 130.21 131.544 -0.507139 0.0596996 0.859794
56.2516 129.328 131.668 -0.507139 0.0596996 0.859794
57.0411 130.189 132.074 -0.507139 0.0596996 0.859794
59.2038 129.936 131.513 0.75935 0.0107809 0.650594
58.6054 129.349 132.221 0.75935 0.0107809 0.650594
59.1732 129.077 131.563 0.75935 0.0107809 0.650594
58.6068 130.37 132.091 0.724572 0.0862774 0.683778
58.6054 129.349 132.221 0.724572 0.0862774 0.683778
59.2038 129.936 131.513 0.724572 0.0862774 0.683778
59.3919 129.3 131.264 0.871718 0.0680875 0.485255
59.3502 130.014 131.239 0.871718 0.0680875 0.485255
59.2038 129.936 131.513 0.871718 0.0680875 0.485255
59.1732 129.077 131.563 0.804662 0.00585581 0.593705
59.3919 129.3 131.264 0.804662 0.00585581 0.593705
59.2038 129.936 131.513 0.804662 0.00585581 0.593705
55.0172 130.003 131.087 -0.710239 0.444494 0.54588
55.3585 130.306 131.284 -0.710239 0.444494 0.54588
55.1707 130.453 130.92 -0.710239 0.444494 0.54588
55.7616 131.003 131.111 -0.657933 0.516445 0.548095
55.1707 130.453 130.92 -0.657933 0.516445 0.548095
55.3585 130.306 131.284 -0.657933 0.516445 0.548095
55.7616 131.003 131.111 -0.457653 0.454464 0.76421
55.3585 130.306 131.284 -0.457653 0.454464 0.76421
56.2044 131.035 131.357 -0.457653 0.454464 0.76421
56.2044 131.035 131.357 -0.279733 0.231331 0.931791
55.3585 130.306 131.284 -0.279733 0.231331 0.931791
56.1462 130.21 131.544 -0.279733 0.231331 0.931791
57.0411 130.189 132.074 -0.452204 0.430713 0.781024
57.1322 131.017 131.67 -0.452204 0.430713 0.781024
56.1462 130.21 131.544 -0.452204 0.430713 0.781024
57.1322 131.017 131.67 -0.307086 0.2313 0.923146
56.2044 131.035 131.357 -0.307086 0.2313 0.923146
56.1462 130.21 131.544 -0.307086 0.2313 0.923146
57.0411 130.189 132.074 -0.516182 0.4207 0.746034
57.8236 130.949 132.187 -0.516182 0.4207 0.746034
57.1322 131.017 131.67 -0.516182 0.4207 0.746034
59.1879 130.515 131.39 0.743732 0.158238 0.649479
58.6068 130.37 132.091 0.743732 0.158238 0.649479
59.2038 129.936 131.513 0.743732 0.158238 0.649479
59.1879 130.515 131.39 0.607047 0.510405 0.609082
58.7848 130.965 131.415 0.607047 0.510405 0.609082
58.6068 130.37 132.091 0.607047 0.510405 0.609082
58.7848 130.965 131.415 0.828466 0.293836 0.476765
58.3927 131.093 132.017 0.828466 0.293836 0.476765
58.6068 130.37 132.091 0.828466 0.293836 0.476765
59.3502 130.014 131.239 0.858842 0.128812 0.49578
59.1879 130.515 131.39 0.858842 0.128812 0.49578
59.2038 129.936 131.513 0.858842 0.128812 0.49578
55.7616 131.003 131.111 -0.381332 0.707906 0.594521
56.2044 131.035 131.357 -0.381332 0.707906 0.594521
56.1524 131.307 130.999 -0.381332 0.707906 0.594521
57.0811 131.36 131.176 -0.160725 0.773824 0.61267
56.1524 131.307 130.999 -0.160725 0.773824 0.61267
56.2044 131.035 131.357 -0.160725 0.773824 0.61267
57.1322 131.017 131.67 -0.178199 0.7993 0.573903
57.0811 131.36 131.176 -0.178199 0.7993 0.573903
56.2044 131.035 131.357 -0.178199 0.7993 0.573903
57.1322 131.017 131.67 -0.390392 0.687328 0.612515
57.8236 130.949 132.187 -0.390392 0.687328 0.612515
58.0102 131.236 131.984 -0.390392 0.687328 0.612515
57.1322 131.017 131.67 -0.38242 0.73975 0.553647
58.0102 131.236 131.984 -0.38242 0.73975 0.553647
57.0811 131.36 131.176 -0.38242 0.73975 0.553647
57.0811 131.36 131.176 0.0812924 0.994888 0.0599144
58.0102 131.236 131.984 0.0812924 0.994888 0.0599144
58.1097 131.268 131.309 0.0812924 0.994888 0.0599144
58.3927 131.093 132.017 0.400278 0.91402 0.0659238
58.7848 130.965 131.415 0.400278 0.91402 0.0659238
58.1097 131.268 131.309 0.400278 0.91402 0.0659238
58.0102 131.236 131.984 0.340237 0.935506 0.0952276
58.3927 131.093 132.017 0.340237 0.935506 0.0952276
58.1097 131.268 131.309 0.340237 0.935506 0.0952276
58.0391 127.159 131.936 0.278288 -0.827244 0.488081
58.3712 127.394 132.145 0.278288 -0.827244 0.488081
58.14 127.423 132.325 0.278288 -0.827244 0.488081
57.5285 128.05 132.317 -0.601865 -0.580269 0.548677
58.0391 127.159 131.936 -0.601865 -0.580269 0.548677
58.14 127.423 132.325 -0.601865 -0.580269 0.548677
57.5285 128.05 132.317 -0.145261 -0.129536 0.980877
58.14 127.423 132.325 -0.145261 -0.129536 0.980877
58.2088 128.027 132.415 -0.145261 -0.129536 0.980877
58.3712 127.394 132.145 0.710865 -0.114391 0.693964
58.6152 128.228 132.032 0.710865 -0.114391 0.693964
58.2088 128.027 132.415 0.710865 -0.114391 0.693964
58.14 127.423 132.325 0.590746 -0.184358 0.785514
58.3712 127.394 132.145 0.590746 -0.184358 0.785514
58.2088 128.027 132.415 0.590746 -0.184358 0.785514
56.9988 128.166 132.065 -0.445809 -0.102978 0.889185
57.5285 128.05 132.317 -0.445809 -0.102978 0.889185
57.168 129.161 132.265 -0.445809 -0.102978 0.889185
58.2088 128.027 132.415 -0.145229 -0.320189 0.936156
58.1245 128.937 132.713 -0.145229 -0.320189 0.936156
57.5285 128.05 132.317 -0.145229 -0.320189 0.936156
58.1245 128.937 132.713 -0.441321 -0.101408 0.891601
57.168 129.161 132.265 -0.441321 -0.101408 0.891601
57.5285 128.05 132.317 -0.441321 -0.101408 0.891601
58.6152 128.228 132.032 0.75327 -0.102923 0.649608
58.6054 129.349 132.221 0.75327 -0.102923 0.649608
58.1245 128.937 132.713 0.75327 -0.102923 0.649608
58.2088 128.027 132.415 0.717328 -0.156039 0.679038
58.6152 128.228 132.032 0.717328 -0.156039 0.679038
58.1245 128.937 132.713 0.717328 -0.156039 0.679038
57.168 129.161 132.265 -0.548568 0.0872922 0.831537
57.526 130.268 132.385 -0.548568 0.0872922 0.831537
57.0411 130.189 132.074 -0.548568 0.0872922 0.831537
58.1245 128.937 132.713 -0.42513 -0.00518356 0.905117
58.1224 129.98 132.718 -0.42513 -0.00518356 0.905117
57.168 129.161 132.265 -0.42513 -0.00518356 0.905117
58.1224 129.98 132.718 -0.466354 0.0551368 0.882878
57.526 130.268 132.385 -0.466354 0.0551368 0.882878
57.168 129.161 132.265 -0.466354 0.0551368 0.882878
58.6054 129.349 132.221 0.764297 0.0806063 0.639807
58.6068 130.37 132.091 0.764297 0.0806063 0.639807
58.1224 129.98 132.718 0.764297 0.0806063 0.639807
58.1245 128.937 132.713 0.716219 -0.00186637 0.697873
58.6054 129.349 132.221 0.716219 -0.00186637 0.697873
58.1224 129.98 132.718 0.716219 -0.00186637 0.697873
57.8236 130.949 132.187 -0.534385 0.443375 0.719619
57.0411 130.189 132.074 -0.534385 0.443375 0.719619
57.526 130.268 132.385 -0.534385 0.443375 0.719619
57.8236 130.949 132.187 -0.314095 0.389749 0.865702
57.526 130.268 132.385 -0.314095 0.389749 0.865702
58.1789 130.896 132.339 -0.314095 0.389749 0.865702
58.1789 130.896 132.339 -0.304282 0.380119 0.873454
57.526 130.268 132.385 -0.304282 0.380119 0.873454
58.1224 129.98 132.718 -0.304282 0.380119 0.873454
58.6068 130.37 132.091 0.714377 0.276961 0.642618
58.3927 131.093 132.017 0.714377 0.276961 0.642618
58.1789 130.896 132.339 0.714377 0.276961 0.642618
58.1224 129.98 132.718 0.691104 0.23946 0.681934
58.6068 130.37 132.091 0.691104 0.23946 0.681934
58.1789 130.896 132.339 0.691104 0.23946 0.681934
57.8236 130.949 132.187 -0.214846 0.653258 0.726013
58.1789 130.896 132.339 -0.214846 0.653258 0.726013
58.0102 131.236 131.984 -0.214846 0.653258 0.726013
58.3927 131.093 132.017 0.228927 0.755937 0.613312
58.0102 131.236 131.984 0.228927 0.755937 0.613312
58.1789 130.896 132.339 0.228927 0.755937 0.613312
3 0 1 2
3 3 4 5
3 6 7 8
3 9 10 11
3 12 13 14
3 15 16 17
3 18 19 20
3 21 22 23
3 24 25 26
3 27 28 29
3 30 31 32
3 33 34 35
3 36 37 38
3 39 40 41
3 42 43 44
3 45 46 47
3 48 49 50
3 51 52 53
3 54 55 56
3 57 58 59
3 60 61 62
3 63 64 65
3 66 67 68
3 69 70 71
3 72 73 74
3 75 76 77
3 78 79 80
3 81 82 83
3 84 85 86
3 87 88 89
3 90 91 92
3 93 94 95
3 96 97 98
3 99 100 101
3 102 103 104
3 105 106 107
3 108 109 110
3 111 112 113
3 114 115 116
3 117 118 119
3 120 121 122
3 123 124 125
3 126 127 128
3 129 130 131
3 132 133 134
3 135 136 137
3 138 139 140
3 141 142 143
3 144 145 146
3 147 148 149
3 150 151 152
3 153 154 155
3 156 157 158
3 159 160 161
3 162 163 164
3 165 166 167
3 168 169 170
3 171 172 173
3 174 175 176
3 177 178 179
3 180 181 182
3 183 184 185
3 186 187 188
3 189 190 191
3 192 193 194
3 195 196 197
3 198 199 200
3 201 202 203
3 204 205 206
3 207 208 209
3 210 211 212
3 213 214 215
3 216 217 218
3 219 220 221
3 222 223 224
3 225 226 227
3 228 229 230
3 231 232 233
3 234 235 236
3 237 238 239
3 240 241 242
3 243 244 245
3 246 247 248
3 249 250 251
3 252 253 254
3 255 256 257
3 258 259 260
3 261 262 263
3 264 265 266
3 267 268 269
3 270 271 272
3 273 274 275
3 276 277 278
3 279 280 281
3 282 283 284
3 285 286 287
3 288 289 290
3 291 292 293
3 294 295 296
3 297 298 299
3 300 301 302
3 303 304 305
3 306 307 308
3 309 310 311
3 312 313 314
3 315 316 317
3 318 319 320
3 321 322 323
3 324 325 326
3 327 328 329
3 330 331 332
3 333 334 335
3 336 337 338
3 339 340 341
3 342 343 344
3 345 346 347
3 348 349 350
3 351 352 353
3 354 355 356
3 357 358 359
3 360 361 362
3 363 364 365
3 366 367 368
3 369 370 371
3 372 373 374
3 375 376 377
3 378 379 380
3 381 382 383
3 384 385 386
3 387 388 389
3 390 391 392
3 393 394 395
3 396 397 398
3 399 400 401
3 402 403 404
3 405 406 407
3 408 409 410
3 411 412 413
3 414 415 416
3 417 418 419
3 420 421 422
3 423 424 425
3 426 427 428
3 429 430 431
3 432 433 434
3 435 436 437
3 438 439 440
3 441 442 443
3 444 445 446
3 447 448 449
3 450 451 452
3 453 454 455
3 456 457 458
3 459 460 461
3 462 463 464
3 465 466 467
3 468 469 470
3 471 472 473
3 474 475 476
3 477 478 479
3 480 481 482
3 483 484 485
3 486 487 488
3 489 490 491
3 492 493 494
3 495 496 497
3 498 499 500
3 501 502 503
3 504 505 506
3 507 508 509
3 510 511 512
3 513 514 515
3 516 517 518
3 519 520 521
3 522 523 524
3 525 526 527
3 528 529 530
3 531 532 533
3 534 535 536
3 537 538 539
3 540 541 542
3 543 544 545
3 546 547 548
3 549 550 551
3 552 553 554
3 555 556 557
3 558 559 560
3 561 562 563
3 564 565 566
3 567 568 569
3 570 571 572
3 573 574 575
3 576 577 578
3 579 580 581
3 582 583 584
3 585 586 587
3 588 589 590
3 591 592 593
3 594 595 596
3 597 598 599
3 600 601 602
3 603 604 605
3 606 607 608
3 609 610 611
3 612 613 614
3 615 616 617
3 618 619 620
3 621 622 623
