solid ascii
 facet normal -0.0816471 -0.408455 -0.90912
  outer loop
   vertex 116.825 109.597 171.979
   vertex 117.637 109.599 171.904
   vertex 117.624 109.105 172.128
  endloop
 endfacet
 facet normal -0.128215 -0.472863 -0.871758
  outer loop
   vertex 116.815 109.031 172.287
   vertex 116.825 109.597 171.979
   vertex 117.624 109.105 172.128
  endloop
 endfacet
 facet normal 0.230548 -0.405594 -0.8845
  outer loop
   vertex 117.624 109.105 172.128
   vertex 117.637 109.599 171.904
   vertex 118.141 109.447 172.106
  endloop
 endfacet
 facet normal -0.779179 -0.141348 -0.610656
  outer loop
   vertex 116.469 110.404 172.246
   vertex 116.774 110.301 171.88
   vertex 116.825 109.597 171.979
  endloop
 endfacet
 facet normal -0.090333 -0.077907 -0.99286
  outer loop
   vertex 117.637 109.599 171.904
   vertex 116.825 109.597 171.979
   vertex 117.411 110.306 171.87
  endloop
 endfacet
 facet normal -0.0158243 -0.13911 -0.990151
  outer loop
   vertex 117.411 110.306 171.87
   vertex 116.825 109.597 171.979
   vertex 116.774 110.301 171.88
  endloop
 endfacet
 facet normal 0.3955 0.102678 -0.912708
  outer loop
   vertex 117.953 110.278 172.118
   vertex 118.141 109.447 172.106
   vertex 117.637 109.599 171.904
  endloop
 endfacet
 facet normal 0.418376 0.0892491 -0.903878
  outer loop
   vertex 117.411 110.306 171.87
   vertex 117.953 110.278 172.118
   vertex 117.637 109.599 171.904
  endloop
 endfacet
 facet normal -0.600373 0.482889 -0.637472
  outer loop
   vertex 116.774 110.301 171.88
   vertex 116.469 110.404 172.246
   vertex 116.902 110.706 172.066
  endloop
 endfacet
 facet normal -0.0182878 0.421955 -0.906432
  outer loop
   vertex 117.411 110.306 171.87
   vertex 116.774 110.301 171.88
   vertex 116.902 110.706 172.066
  endloop
 endfacet
 facet normal -0.0754294 0.360691 -0.92963
  outer loop
   vertex 117.583 110.96 172.109
   vertex 117.411 110.306 171.87
   vertex 116.902 110.706 172.066
  endloop
 endfacet
 facet normal 0.41553 0.214684 -0.883881
  outer loop
   vertex 117.953 110.278 172.118
   vertex 117.411 110.306 171.87
   vertex 117.583 110.96 172.109
  endloop
 endfacet
 facet normal -0.640077 -0.764468 -0.0767499
  outer loop
   vertex 116.815 109.031 172.287
   vertex 116.783 108.977 173.094
   vertex 116.183 109.513 172.753
  endloop
 endfacet
 facet normal -0.709769 -0.327332 -0.623764
  outer loop
   vertex 116.825 109.597 171.979
   vertex 116.815 109.031 172.287
   vertex 116.183 109.513 172.753
  endloop
 endfacet
 facet normal 0.0086956 -0.922667 -0.3855
  outer loop
   vertex 117.624 109.105 172.128
   vertex 117.558 108.814 172.824
   vertex 116.815 109.031 172.287
  endloop
 endfacet
 facet normal -0.229899 -0.970352 -0.0745935
  outer loop
   vertex 116.815 109.031 172.287
   vertex 117.558 108.814 172.824
   vertex 116.783 108.977 173.094
  endloop
 endfacet
 facet normal 0.625822 -0.603429 -0.494187
  outer loop
   vertex 118.141 109.447 172.106
   vertex 118.568 109.596 172.465
   vertex 118.41 109.118 172.848
  endloop
 endfacet
 facet normal 0.464852 -0.734821 -0.493913
  outer loop
   vertex 118.141 109.447 172.106
   vertex 118.41 109.118 172.848
   vertex 117.624 109.105 172.128
  endloop
 endfacet
 facet normal 0.32515 -0.882881 -0.338819
  outer loop
   vertex 117.624 109.105 172.128
   vertex 118.41 109.118 172.848
   vertex 117.558 108.814 172.824
  endloop
 endfacet
 facet normal 0.84198 -0.478399 -0.249408
  outer loop
   vertex 118.41 109.118 172.848
   vertex 118.568 109.596 172.465
   vertex 118.734 109.599 173.018
  endloop
 endfacet
 facet normal -0.757589 -0.1217 -0.641286
  outer loop
   vertex 116.825 109.597 171.979
   vertex 116.183 109.513 172.753
   vertex 116.469 110.404 172.246
  endloop
 endfacet
 facet normal -0.902589 0.0462198 -0.428014
  outer loop
   vertex 116.183 109.513 172.753
   vertex 116.09 110.27 173.03
   vertex 116.469 110.404 172.246
  endloop
 endfacet
 facet normal 0.714245 0.329442 -0.617513
  outer loop
   vertex 118.568 109.596 172.465
   vertex 117.953 110.278 172.118
   vertex 118.574 110.268 172.83
  endloop
 endfacet
 facet normal 0.605703 0.148127 -0.781782
  outer loop
   vertex 118.141 109.447 172.106
   vertex 117.953 110.278 172.118
   vertex 118.568 109.596 172.465
  endloop
 endfacet
 facet normal 0.947293 0.146587 -0.284865
  outer loop
   vertex 118.574 110.268 172.83
   vertex 118.734 109.599 173.018
   vertex 118.568 109.596 172.465
  endloop
 endfacet
 facet normal -0.610348 0.522041 -0.595776
  outer loop
   vertex 116.728 111.173 172.654
   vertex 116.902 110.706 172.066
   vertex 116.469 110.404 172.246
  endloop
 endfacet
 facet normal -0.825905 0.455066 -0.332861
  outer loop
   vertex 116.728 111.173 172.654
   vertex 116.469 110.404 172.246
   vertex 116.52 111.059 173.015
  endloop
 endfacet
 facet normal -0.832925 0.447318 -0.325796
  outer loop
   vertex 116.52 111.059 173.015
   vertex 116.469 110.404 172.246
   vertex 116.09 110.27 173.03
  endloop
 endfacet
 facet normal -0.247751 0.766208 -0.592912
  outer loop
   vertex 116.902 110.706 172.066
   vertex 117.406 111.263 172.575
   vertex 117.583 110.96 172.109
  endloop
 endfacet
 facet normal -0.173222 0.745312 -0.64382
  outer loop
   vertex 116.728 111.173 172.654
   vertex 117.406 111.263 172.575
   vertex 116.902 110.706 172.066
  endloop
 endfacet
 facet normal 0.511603 0.796195 -0.323011
  outer loop
   vertex 117.583 110.96 172.109
   vertex 117.406 111.263 172.575
   vertex 117.901 111.029 172.784
  endloop
 endfacet
 facet normal 0.79939 0.429117 -0.420516
  outer loop
   vertex 117.953 110.278 172.118
   vertex 117.583 110.96 172.109
   vertex 117.901 111.029 172.784
  endloop
 endfacet
 facet normal 0.641379 0.533899 -0.550985
  outer loop
   vertex 117.953 110.278 172.118
   vertex 117.901 111.029 172.784
   vertex 118.574 110.268 172.83
  endloop
 endfacet
 facet normal -0.659526 0.737082 -0.147432
  outer loop
   vertex 116.728 111.173 172.654
   vertex 116.52 111.059 173.015
   vertex 116.868 111.351 172.914
  endloop
 endfacet
 facet normal -0.169783 0.853963 -0.491854
  outer loop
   vertex 117.406 111.263 172.575
   vertex 116.728 111.173 172.654
   vertex 116.868 111.351 172.914
  endloop
 endfacet
 facet normal 0.216906 0.972064 0.0896853
  outer loop
   vertex 117.658 111.15 173.179
   vertex 117.406 111.263 172.575
   vertex 116.868 111.351 172.914
  endloop
 endfacet
 facet normal 0.430341 0.90258 -0.0124716
  outer loop
   vertex 117.901 111.029 172.784
   vertex 117.406 111.263 172.575
   vertex 117.658 111.15 173.179
  endloop
 endfacet
 facet normal -0.650597 -0.66874 0.359876
  outer loop
   vertex 116.783 108.977 173.094
   vertex 116.892 109.263 173.824
   vertex 116.499 109.538 173.625
  endloop
 endfacet
 facet normal -0.723534 -0.630652 0.280671
  outer loop
   vertex 116.183 109.513 172.753
   vertex 116.783 108.977 173.094
   vertex 116.499 109.538 173.625
  endloop
 endfacet
 facet normal -0.0677143 -0.928329 0.36554
  outer loop
   vertex 117.558 108.814 172.824
   vertex 117.731 109.127 173.651
   vertex 116.783 108.977 173.094
  endloop
 endfacet
 facet normal -0.0731944 -0.924591 0.373863
  outer loop
   vertex 116.783 108.977 173.094
   vertex 117.731 109.127 173.651
   vertex 116.892 109.263 173.824
  endloop
 endfacet
 facet normal 0.356958 -0.644235 0.676418
  outer loop
   vertex 118.553 109.46 173.535
   vertex 118.237 109.662 173.893
   vertex 117.731 109.127 173.651
  endloop
 endfacet
 facet normal 0.394477 -0.852486 0.343008
  outer loop
   vertex 118.553 109.46 173.535
   vertex 117.731 109.127 173.651
   vertex 118.41 109.118 172.848
  endloop
 endfacet
 facet normal 0.316233 -0.907251 0.277294
  outer loop
   vertex 118.41 109.118 172.848
   vertex 117.731 109.127 173.651
   vertex 117.558 108.814 172.824
  endloop
 endfacet
 facet normal 0.802473 -0.583614 0.124224
  outer loop
   vertex 118.41 109.118 172.848
   vertex 118.734 109.599 173.018
   vertex 118.553 109.46 173.535
  endloop
 endfacet
 facet normal -0.911502 -0.235043 0.337518
  outer loop
   vertex 116.183 109.513 172.753
   vertex 116.499 109.538 173.625
   vertex 116.09 110.27 173.03
  endloop
 endfacet
 facet normal -0.783524 0.0647374 0.61798
  outer loop
   vertex 116.499 109.538 173.625
   vertex 116.67 110.356 173.756
   vertex 116.09 110.27 173.03
  endloop
 endfacet
 facet normal 0.762864 0.0487483 0.644719
  outer loop
   vertex 118.511 110.308 173.52
   vertex 118.237 109.662 173.893
   vertex 118.553 109.46 173.535
  endloop
 endfacet
 facet normal 0.721317 0.0904901 0.686669
  outer loop
   vertex 118.214 110.432 173.816
   vertex 118.237 109.662 173.893
   vertex 118.511 110.308 173.52
  endloop
 endfacet
 facet normal 0.965014 0.251594 0.0738149
  outer loop
   vertex 118.734 109.599 173.018
   vertex 118.574 110.268 172.83
   vertex 118.511 110.308 173.52
  endloop
 endfacet
 facet normal 0.937932 0.0524323 0.342834
  outer loop
   vertex 118.553 109.46 173.535
   vertex 118.734 109.599 173.018
   vertex 118.511 110.308 173.52
  endloop
 endfacet
 facet normal -0.571186 0.635629 0.519347
  outer loop
   vertex 116.757 110.763 173.638
   vertex 116.875 111.212 173.219
   vertex 116.52 111.059 173.015
  endloop
 endfacet
 facet normal -0.829583 0.311374 0.463506
  outer loop
   vertex 116.757 110.763 173.638
   vertex 116.52 111.059 173.015
   vertex 116.67 110.356 173.756
  endloop
 endfacet
 facet normal -0.735408 0.410838 0.538876
  outer loop
   vertex 116.67 110.356 173.756
   vertex 116.52 111.059 173.015
   vertex 116.09 110.27 173.03
  endloop
 endfacet
 facet normal 0.0926718 0.803694 0.587782
  outer loop
   vertex 116.875 111.212 173.219
   vertex 117.443 110.75 173.76
   vertex 117.658 111.15 173.179
  endloop
 endfacet
 facet normal -0.113629 0.694147 0.710808
  outer loop
   vertex 116.757 110.763 173.638
   vertex 117.443 110.75 173.76
   vertex 116.875 111.212 173.219
  endloop
 endfacet
 facet normal 0.264138 0.745885 0.611463
  outer loop
   vertex 118.214 110.432 173.816
   vertex 117.658 111.15 173.179
   vertex 117.443 110.75 173.76
  endloop
 endfacet
 facet normal 0.606207 0.735897 0.30161
  outer loop
   vertex 118.511 110.308 173.52
   vertex 117.658 111.15 173.179
   vertex 118.214 110.432 173.816
  endloop
 endfacet
 facet normal 0.65487 0.73469 0.177133
  outer loop
   vertex 118.511 110.308 173.52
   vertex 117.901 111.029 172.784
   vertex 117.658 111.15 173.179
  endloop
 endfacet
 facet normal 0.748023 0.663007 0.0297241
  outer loop
   vertex 118.511 110.308 173.52
   vertex 118.574 110.268 172.83
   vertex 117.901 111.029 172.784
  endloop
 endfacet
 facet normal -0.535263 0.763537 0.361255
  outer loop
   vertex 116.52 111.059 173.015
   vertex 116.875 111.212 173.219
   vertex 116.868 111.351 172.914
  endloop
 endfacet
 facet normal 0.0918104 0.906152 0.412866
  outer loop
   vertex 117.658 111.15 173.179
   vertex 116.868 111.351 172.914
   vertex 116.875 111.212 173.219
  endloop
 endfacet
 facet normal -0.616205 -0.382353 0.688548
  outer loop
   vertex 116.892 109.263 173.824
   vertex 116.868 109.616 173.998
   vertex 116.499 109.538 173.625
  endloop
 endfacet
 facet normal 0.0120639 -0.756702 0.653649
  outer loop
   vertex 116.892 109.263 173.824
   vertex 117.731 109.127 173.651
   vertex 117.543 109.476 174.058
  endloop
 endfacet
 facet normal -0.170465 -0.445673 0.878816
  outer loop
   vertex 116.868 109.616 173.998
   vertex 116.892 109.263 173.824
   vertex 117.543 109.476 174.058
  endloop
 endfacet
 facet normal 0.335912 -0.63361 0.696923
  outer loop
   vertex 117.731 109.127 173.651
   vertex 118.237 109.662 173.893
   vertex 117.543 109.476 174.058
  endloop
 endfacet
 facet normal -0.714696 0.0375586 0.698426
  outer loop
   vertex 116.499 109.538 173.625
   vertex 116.868 109.616 173.998
   vertex 116.67 110.356 173.756
  endloop
 endfacet
 facet normal -0.0831289 0.0247033 0.996233
  outer loop
   vertex 117.543 109.476 174.058
   vertex 117.594 110.166 174.045
   vertex 116.868 109.616 173.998
  endloop
 endfacet
 facet normal -0.244357 0.242627 0.938841
  outer loop
   vertex 117.594 110.166 174.045
   vertex 116.67 110.356 173.756
   vertex 116.868 109.616 173.998
  endloop
 endfacet
 facet normal 0.305923 0.104084 0.94635
  outer loop
   vertex 118.237 109.662 173.893
   vertex 118.214 110.432 173.816
   vertex 117.594 110.166 174.045
  endloop
 endfacet
 facet normal 0.231495 0.0011459 0.972836
  outer loop
   vertex 117.543 109.476 174.058
   vertex 118.237 109.662 173.893
   vertex 117.594 110.166 174.045
  endloop
 endfacet
 facet normal -0.161197 0.305028 0.938602
  outer loop
   vertex 117.443 110.75 173.76
   vertex 116.757 110.763 173.638
   vertex 116.67 110.356 173.756
  endloop
 endfacet
 facet normal -0.202553 0.386542 0.899754
  outer loop
   vertex 117.594 110.166 174.045
   vertex 117.443 110.75 173.76
   vertex 116.67 110.356 173.756
  endloop
 endfacet
 facet normal 0.127372 0.46129 0.878059
  outer loop
   vertex 118.214 110.432 173.816
   vertex 117.443 110.75 173.76
   vertex 117.594 110.166 174.045
  endloop
 endfacet
endsolid
