ply
format ascii 1.0
element vertex 660
property float x
property float y
property float z
property float nx
property float ny
property float nz
element face 220
property list uint uint vertex_indices
end_header
59.7818 120.809 166.634 -0.591377 -0.476177 -0.650791
59.5651 120.545 167.024 -0.591377 -0.476177 -0.650791
59.3694 121.049 166.833 -0.591377 -0.476177 -0.650791
60.1697 119.911 166.957 -0.581736 -0.486091 -0.652149
59.5651 120.545 167.024 -0.581736 -0.486091 -0.652149
59.7818 120.809 166.634 -0.581736 -0.486091 -0.652149
60.1697 119.911 166.957 -0.3056 -0.436698 -0.846111
59.7818 120.809 166.634 -0.3056 -0.436698 -0.846111
60.5768 119.912 166.809 -0.3056 -0.436698 -0.846111
60.5768 119.912 166.809 -0.102166 -0.277747 -0.955206
59.7818 120.809 166.634 -0.102166 -0.277747 -0.955206
60.4954 120.818 166.555 -0.102166 -0.277747 -0.955206
61.4946 119.796 166.99 0.153961 -0.262339 -0.952614
60.5768 119.912 166.809 0.153961 -0.262339 -0.952614
61.2454 120.847 166.66 0.153961 -0.262339 -0.952614
61.2454 120.847 166.66 0.144122 -0.255828 -0.955919
60.5768 119.912 166.809 0.144122 -0.255828 -0.955919
60.4954 120.818 166.555 0.144122 -0.255828 -0.955919
61.2454 120.847 166.66 0.498458 -0.149648 -0.8539
61.9187 120.759 167.068 0.498458 -0.149648 -0.8539
61.4946 119.796 166.99 0.498458 -0.149648 -0.8539
59.56 121.634 166.638 -0.490296 -0.12693 -0.862264
59.7818 120.809 166.634 -0.490296 -0.12693 -0.862264
59.3694 121.049 166.833 -0.490296 -0.12693 -0.862264
59.3269 121.846 167.051 -0.84375 0.0994047 -0.527451
59.56 121.634 166.638 -0.84375 0.0994047 -0.527451
59.3694 121.049 166.833 -0.84375 0.0994047 -0.527451
60.4954 120.818 166.555 -0.110331 0.0370469 -0.993204
59.7818 120.809 166.634 -0.110331 0.0370469 -0.993204
60.3575 121.619 166.6 -0.110331 0.0370469 -0.993204
60.3575 121.619 166.6 -0.0482404 -0.0073175 -0.998809
59.7818 120.809 166.634 -0.0482404 -0.0073175 -0.998809
59.56 121.634 166.638 -0.0482404 -0.0073175 -0.998809
60.9317 121.822 166.932 0.319307 0.348752 -0.881144
61.5364 121.244 166.923 0.319307 0.348752 -0.881144
61.2454 120.847 166.66 0.319307 0.348752 -0.881144
60.9317 121.822 166.932 0.369616 0.358286 -0.85733
61.2454 120.847 166.66 0.369616 0.358286 -0.85733
60.3575 121.619 166.6 0.369616 0.358286 -0.85733
60.3575 121.619 166.6 0.135672 0.0790894 -0.987592
61.2454 120.847 166.66 0.135672 0.0790894 -0.987592
60.4954 120.818 166.555 0.135672 0.0790894 -0.987592
61.9187 120.759 167.068 0.527353 0.164854 -0.8335
61.2454 120.847 166.66 0.527353 0.164854 -0.8335
61.5364 121.244 166.923 0.527353 0.164854 -0.8335
59.56 121.634 166.638 -0.627762 0.489266 -0.60542
59.3269 121.846 167.051 -0.627762 0.489266 -0.60542
59.7184 122.117 166.864 -0.627762 0.489266 -0.60542
60.3575 121.619 166.6 -0.0350739 0.432726 -0.900843
59.56 121.634 166.638 -0.0350739 0.432726 -0.900843
59.7184 122.117 166.864 -0.0350739 0.432726 -0.900843
60.418 122.174 166.917 0.0254178 0.493647 -0.869291
60.3575 121.619 166.6 0.0254178 0.493647 -0.869291
59.7184 122.117 166.864 0.0254178 0.493647 -0.869291
60.9317 121.822 166.932 0.327551 0.441338 -0.835423
60.3575 121.619 166.6 0.327551 0.441338 -0.835423
60.418 122.174 166.917 0.327551 0.441338 -0.835423
60.765 118.948 167.475 -0.435951 -0.424112 -0.793773
60.6481 118.257 167.908 -0.435951 -0.424112 -0.793773
60.3551 118.927 167.711 -0.435951 -0.424112 -0.793773
60.6481 118.257 167.908 0.251059 -0.544458 -0.800334
60.765 118.948 167.475 0.251059 -0.544458 -0.800334
61.4939 118.676 167.889 0.251059 -0.544458 -0.800334
60.5768 119.912 166.809 -0.386802 -0.573911 -0.721811
60.765 118.948 167.475 -0.386802 -0.573911 -0.721811
60.3551 118.927 167.711 -0.386802 -0.573911 -0.721811
60.5768 119.912 166.809 -0.266416 -0.617628 -0.739971
60.3551 118.927 167.711 -0.266416 -0.617628 -0.739971
60.1697 119.911 166.957 -0.266416 -0.617628 -0.739971
60.1697 119.911 166.957 -0.859316 -0.403232 -0.314611
60.3551 118.927 167.711 -0.859316 -0.403232 -0.314611
59.9655 119.741 167.733 -0.859316 -0.403232 -0.314611
61.4946 119.796 166.99 0.0926749 -0.553421 -0.82773
60.765 118.948 167.475 0.0926749 -0.553421 -0.82773
60.5768 119.912 166.809 0.0926749 -0.553421 -0.82773
61.4939 118.676 167.889 0.204492 -0.612774 -0.763342
60.765 118.948 167.475 0.204492 -0.612774 -0.763342
61.4946 119.796 166.99 0.204492 -0.612774 -0.763342
61.4946 119.796 166.99 0.549561 -0.523143 -0.651387
62.4795 119.758 167.851 0.549561 -0.523143 -0.651387
61.4939 118.676 167.889 0.549561 -0.523143 -0.651387
59.5651 120.545 167.024 -0.898992 -0.387127 -0.204807
59.4683 120.337 167.842 -0.898992 -0.387127 -0.204807
59.2677 120.891 167.675 -0.898992 -0.387127 -0.204807
59.3694 121.049 166.833 -0.890287 -0.415883 -0.185551
59.5651 120.545 167.024 -0.890287 -0.415883 -0.185551
59.2677 120.891 167.675 -0.890287 -0.415883 -0.185551
59.9655 119.741 167.733 -0.701496 -0.634855 -0.323826
59.5651 120.545 167.024 -0.701496 -0.634855 -0.323826
60.1697 119.911 166.957 -0.701496 -0.634855 -0.323826
59.4683 120.337 167.842 -0.766419 -0.59502 -0.241977
59.5651 120.545 167.024 -0.766419 -0.59502 -0.241977
59.9655 119.741 167.733 -0.766419 -0.59502 -0.241977
62.4795 119.758 167.851 0.604867 -0.25193 -0.755426
61.9187 120.759 167.068 0.604867 -0.25193 -0.755426
62.5444 120.66 167.602 0.604867 -0.25193 -0.755426
61.4946 119.796 166.99 0.637386 -0.220353 -0.738366
61.9187 120.759 167.068 0.637386 -0.220353 -0.738366
62.4795 119.758 167.851 0.637386 -0.220353 -0.738366
62.5444 120.66 167.602 0.864957 -0.190363 -0.464339
62.7356 120.571 167.995 0.864957 -0.190363 -0.464339
62.4795 119.758 167.851 0.864957 -0.190363 -0.464339
59.3694 121.049 166.833 -0.992173 -0.0191588 -0.123394
59.2677 120.891 167.675 -0.992173 -0.0191588 -0.123394
59.3269 121.846 167.051 -0.992173 -0.0191588 -0.123394
59.2677 120.891 167.675 -0.992778 -0.0161653 -0.11887
59.2313 121.706 167.868 -0.992778 -0.0161653 -0.11887
59.3269 121.846 167.051 -0.992778 -0.0161653 -0.11887
61.5364 121.244 166.923 0.518312 0.553167 -0.652195
60.9317 121.822 166.932 0.518312 0.553167 -0.652195
61.4979 121.771 167.339 0.518312 0.553167 -0.652195
61.5364 121.244 166.923 0.673745 0.487809 -0.555076
61.4979 121.771 167.339 0.673745 0.487809 -0.555076
61.8456 121.607 167.617 0.673745 0.487809 -0.555076
61.9187 120.759 167.068 0.731752 0.413281 -0.541976
61.5364 121.244 166.923 0.731752 0.413281 -0.541976
61.8456 121.607 167.617 0.731752 0.413281 -0.541976
61.9187 120.759 167.068 0.672822 0.44155 -0.593585
61.8456 121.607 167.617 0.672822 0.44155 -0.593585
62.4876 121.039 167.922 0.672822 0.44155 -0.593585
61.9187 120.759 167.068 0.58262 0.572818 -0.57657
62.4876 121.039 167.922 0.58262 0.572818 -0.57657
62.5444 120.66 167.602 0.58262 0.572818 -0.57657
62.7356 120.571 167.995 0.85551 0.402442 -0.325796
62.5444 120.66 167.602 0.85551 0.402442 -0.325796
62.4876 121.039 167.922 0.85551 0.402442 -0.325796
59.5503 122.624 167.467 -0.62969 0.498961 -0.595423
59.7184 122.117 166.864 -0.62969 0.498961 -0.595423
59.3269 121.846 167.051 -0.62969 0.498961 -0.595423
59.5503 122.624 167.467 -0.889467 0.386072 -0.244533
59.3269 121.846 167.051 -0.889467 0.386072 -0.244533
59.3732 122.457 167.848 -0.889467 0.386072 -0.244533
59.3732 122.457 167.848 -0.979649 0.182654 -0.0832202
59.3269 121.846 167.051 -0.979649 0.182654 -0.0832202
59.2313 121.706 167.868 -0.979649 0.182654 -0.0832202
59.7184 122.117 166.864 -0.00552593 0.714976 -0.699127
60.2144 122.714 167.471 -0.00552593 0.714976 -0.699127
60.418 122.174 166.917 -0.00552593 0.714976 -0.699127
59.5503 122.624 167.467 -0.097532 0.748026 -0.656463
60.2144 122.714 167.471 -0.097532 0.748026 -0.656463
59.7184 122.117 166.864 -0.097532 0.748026 -0.656463
60.418 122.174 166.917 0.328796 0.733755 -0.594557
60.2144 122.714 167.471 0.328796 0.733755 -0.594557
60.6804 122.621 167.614 0.328796 0.733755 -0.594557
60.9317 121.822 166.932 0.466203 0.654396 -0.595332
60.418 122.174 166.917 0.466203 0.654396 -0.595332
60.6804 122.621 167.614 0.466203 0.654396 -0.595332
60.9317 121.822 166.932 0.589051 0.623596 -0.513952
60.6804 122.621 167.614 0.589051 0.623596 -0.513952
61.4072 122.129 167.849 0.589051 0.623596 -0.513952
60.9317 121.822 166.932 0.409971 0.779702 -0.473274
61.4072 122.129 167.849 0.409971 0.779702 -0.473274
61.4979 121.771 167.339 0.409971 0.779702 -0.473274
61.8456 121.607 167.617 0.622577 0.688656 -0.371685
61.4979 121.771 167.339 0.622577 0.688656 -0.371685
61.4072 122.129 167.849 0.622577 0.688656 -0.371685
59.5503 122.624 167.467 -0.673311 0.739288 0.0102756
59.3732 122.457 167.848 -0.673311 0.739288 0.0102756
59.7658 122.813 167.956 -0.673311 0.739288 0.0102756
60.2144 122.714 167.471 -0.126116 0.942532 -0.3094
59.5503 122.624 167.467 -0.126116 0.942532 -0.3094
59.7658 122.813 167.956 -0.126116 0.942532 -0.3094
60.4019 122.912 167.912 -0.167102 0.92416 -0.343518
60.2144 122.714 167.471 -0.167102 0.92416 -0.343518
59.7658 122.813 167.956 -0.167102 0.92416 -0.343518
60.6804 122.621 167.614 0.313639 0.809466 -0.496382
60.2144 122.714 167.471 0.313639 0.809466 -0.496382
60.4019 122.912 167.912 0.313639 0.809466 -0.496382
60.7714 117.927 168.417 -0.359018 -0.886347 -0.292396
60.6694 117.773 169.009 -0.359018 -0.886347 -0.292396
60.3731 118.023 168.614 -0.359018 -0.886347 -0.292396
60.6694 117.773 169.009 0.128173 -0.964979 -0.228883
60.7714 117.927 168.417 0.128173 -0.964979 -0.228883
61.4467 117.941 168.736 0.128173 -0.964979 -0.228883
60.6481 118.257 167.908 -0.406235 -0.808304 -0.426166
60.7714 117.927 168.417 -0.406235 -0.808304 -0.426166
60.3731 118.023 168.614 -0.406235 -0.808304 -0.426166
60.6481 118.257 167.908 -0.761452 -0.465662 -0.450943
60.3731 118.023 168.614 -0.761452 -0.465662 -0.450943
60.3551 118.927 167.711 -0.761452 -0.465662 -0.450943
60.3551 118.927 167.711 -0.697038 -0.513675 -0.500276
60.3731 118.023 168.614 -0.697038 -0.513675 -0.500276
59.7566 118.828 168.647 -0.697038 -0.513675 -0.500276
61.4939 118.676 167.889 0.35443 -0.742879 -0.5679
60.7714 117.927 168.417 0.35443 -0.742879 -0.5679
60.6481 118.257 167.908 0.35443 -0.742879 -0.5679
61.4467 117.941 168.736 0.305091 -0.727877 -0.614097
60.7714 117.927 168.417 0.305091 -0.727877 -0.614097
61.4939 118.676 167.889 0.305091 -0.727877 -0.614097
61.4939 118.676 167.889 0.543155 -0.649136 -0.532547
62.2924 118.556 168.849 0.543155 -0.649136 -0.532547
61.4467 117.941 168.736 0.543155 -0.649136 -0.532547
59.5124 119.681 168.474 -0.780871 -0.230666 -0.580545
59.4277 119.238 168.763 -0.780871 -0.230666 -0.580545
59.2189 119.965 168.755 -0.780871 -0.230666 -0.580545
59.5124 119.681 168.474 -0.649119 -0.325827 -0.687373
59.7566 118.828 168.647 -0.649119 -0.325827 -0.687373
59.4277 119.238 168.763 -0.649119 -0.325827 -0.687373
59.5124 119.681 168.474 -0.792839 -0.331133 -0.511622
59.9655 119.741 167.733 -0.792839 -0.331133 -0.511622
59.7566 118.828 168.647 -0.792839 -0.331133 -0.511622
59.9655 119.741 167.733 -0.770136 -0.354823 -0.530086
60.3551 118.927 167.711 -0.770136 -0.354823 -0.530086
59.7566 118.828 168.647 -0.770136 -0.354823 -0.530086
61.4939 118.676 167.889 0.598533 -0.564812 -0.568107
62.4795 119.758 167.851 0.598533 -0.564812 -0.568107
62.2924 118.556 168.849 0.598533 -0.564812 -0.568107
62.2924 118.556 168.849 0.629808 -0.551849 -0.54663
62.4795 119.758 167.851 0.629808 -0.551849 -0.54663
62.7125 119.0 168.885 0.629808 -0.551849 -0.54663
62.7125 119.0 168.885 0.938039 -0.142416 -0.315913
62.4795 119.758 167.851 0.938039 -0.142416 -0.315913
62.8037 119.819 168.786 0.938039 -0.142416 -0.315913
59.4683 120.337 167.842 -0.806154 -0.437732 -0.398129
59.5124 119.681 168.474 -0.806154 -0.437732 -0.398129
59.2189 119.965 168.755 -0.806154 -0.437732 -0.398129
59.4683 120.337 167.842 -0.820477 -0.415266 -0.3929
59.2189 119.965 168.755 -0.820477 -0.415266 -0.3929
59.2677 120.891 167.675 -0.820477 -0.415266 -0.3929
59.2677 120.891 167.675 -0.993679 -0.059029 -0.0954877
59.2189 119.965 168.755 -0.993679 -0.059029 -0.0954877
59.1739 120.952 168.613 -0.993679 -0.059029 -0.0954877
59.9655 119.741 167.733 -0.71534 -0.509149 -0.478598
59.5124 119.681 168.474 -0.71534 -0.509149 -0.478598
59.4683 120.337 167.842 -0.71534 -0.509149 -0.478598
62.4795 119.758 167.851 0.922606 -0.236856 -0.304463
62.7356 120.571 167.995 0.922606 -0.236856 -0.304463
62.8037 119.819 168.786 0.922606 -0.236856 -0.304463
62.8037 119.819 168.786 0.997181 0.0122979 -0.0740144
62.7356 120.571 167.995 0.997181 0.0122979 -0.0740144
62.7992 120.749 168.881 0.997181 0.0122979 -0.0740144
59.2677 120.891 167.675 -0.994951 -0.0211865 -0.0980952
59.1739 120.952 168.613 -0.994951 -0.0211865 -0.0980952
59.2313 121.706 167.868 -0.994951 -0.0211865 -0.0980952
59.1739 120.952 168.613 -0.992934 0.112621 0.0373927
59.265 121.704 168.767 -0.992934 0.112621 0.0373927
59.2313 121.706 167.868 -0.992934 0.112621 0.0373927
62.4876 121.039 167.922 0.698824 0.676558 -0.232195
62.0044 121.758 168.561 0.698824 0.676558 -0.232195
62.5888 121.264 168.884 0.698824 0.676558 -0.232195
61.8456 121.607 167.617 0.703461 0.673932 -0.225741
62.0044 121.758 168.561 0.703461 0.673932 -0.225741
62.4876 121.039 167.922 0.703461 0.673932 -0.225741
62.7992 120.749 168.881 0.882895 0.444026 -0.152765
62.7356 120.571 167.995 0.882895 0.444026 -0.152765
62.4876 121.039 167.922 0.882895 0.444026 -0.152765
62.5888 121.264 168.884 0.909782 0.372529 -0.183079
62.7992 120.749 168.881 0.909782 0.372529 -0.183079
62.4876 121.039 167.922 0.909782 0.372529 -0.183079
59.6236 122.191 168.693 -0.674376 0.622894 0.396509
59.7658 122.813 167.956 -0.674376 0.622894 0.396509
59.3732 122.457 167.848 -0.674376 0.622894 0.396509
59.6236 122.191 168.693 -0.709814 0.583502 0.394575
59.3732 122.457 167.848 -0.709814 0.583502 0.394575
59.265 121.704 168.767 -0.709814 0.583502 0.394575
59.265 121.704 168.767 -0.981784 0.186339 0.0371192
59.3732 122.457 167.848 -0.981784 0.186339 0.0371192
59.2313 121.706 167.868 -0.981784 0.186339 0.0371192
59.6236 122.191 168.693 -0.582458 0.672664 0.456362
60.2431 122.686 168.754 -0.582458 0.672664 0.456362
59.7658 122.813 167.956 -0.582458 0.672664 0.456362
61.4072 122.129 167.849 0.629199 0.773489 -0.0763117
60.7389 122.731 168.445 0.629199 0.773489 -0.0763117
61.4284 122.217 168.924 0.629199 0.773489 -0.0763117
60.6804 122.621 167.614 0.587174 0.796118 -0.146366
60.7389 122.731 168.445 0.587174 0.796118 -0.146366
61.4072 122.129 167.849 0.587174 0.796118 -0.146366
62.0044 121.758 168.561 0.694037 0.683644 -0.225706
61.8456 121.607 167.617 0.694037 0.683644 -0.225706
61.4072 122.129 167.849 0.694037 0.683644 -0.225706
61.4284 122.217 168.924 0.591622 0.802438 -0.0779579
62.0044 121.758 168.561 0.591622 0.802438 -0.0779579
61.4072 122.129 167.849 0.591622 0.802438 -0.0779579
59.7658 122.813 167.956 -0.449264 0.800279 0.397134
60.2431 122.686 168.754 -0.449264 0.800279 0.397134
60.3911 122.888 168.512 -0.449264 0.800279 0.397134
59.7658 122.813 167.956 -0.150608 0.987937 0.0360349
60.3911 122.888 168.512 -0.150608 0.987937 0.0360349
60.4019 122.912 167.912 -0.150608 0.987937 0.0360349
60.7389 122.731 168.445 0.635931 0.758044 -0.14478
60.6804 122.621 167.614 0.635931 0.758044 -0.14478
60.4019 122.912 167.912 0.635931 0.758044 -0.14478
60.3911 122.888 168.512 0.418977 0.906973 0.0431094
60.7389 122.731 168.445 0.418977 0.906973 0.0431094
60.4019 122.912 167.912 0.418977 0.906973 0.0431094
60.6694 117.773 169.009 -0.275913 -0.961177 -0.00333412
60.6776 117.768 169.868 -0.275913 -0.961177 -0.00333412
59.9486 117.978 169.551 -0.275913 -0.961177 -0.00333412
60.3731 118.023 168.614 -0.42518 -0.874077 -0.23497
60.6694 117.773 169.009 -0.42518 -0.874077 -0.23497
59.9486 117.978 169.551 -0.42518 -0.874077 -0.23497
61.4467 117.941 168.736 0.165318 -0.977519 -0.130871
61.4844 117.834 169.586 0.165318 -0.977519 -0.130871
60.6694 117.773 169.009 0.165318 -0.977519 -0.130871
60.6694 117.773 169.009 0.078996 -0.996851 -0.00693703
61.4844 117.834 169.586 0.078996 -0.996851 -0.00693703
60.6776 117.768 169.868 0.078996 -0.996851 -0.00693703
61.4844 117.834 169.586 0.594436 -0.794088 -0.126769
61.4467 117.941 168.736 0.594436 -0.794088 -0.126769
62.2924 118.556 168.849 0.594436 -0.794088 -0.126769
61.9411 118.134 169.874 0.597994 -0.792297 -0.121117
61.4844 117.834 169.586 0.597994 -0.792297 -0.121117
62.2924 118.556 168.849 0.597994 -0.792297 -0.121117
59.3162 118.855 169.192 -0.601083 -0.655634 -0.456993
59.4204 118.198 169.997 -0.601083 -0.655634 -0.456993
58.8455 118.825 169.853 -0.601083 -0.655634 -0.456993
59.3162 118.855 169.192 -0.634428 -0.637174 -0.437619
59.9486 117.978 169.551 -0.634428 -0.637174 -0.437619
59.4204 118.198 169.997 -0.634428 -0.637174 -0.437619
59.3162 118.855 169.192 -0.615354 -0.635301 -0.466619
59.7566 118.828 168.647 -0.615354 -0.635301 -0.466619
59.9486 117.978 169.551 -0.615354 -0.635301 -0.466619
59.7566 118.828 168.647 -0.746095 -0.556847 -0.365052
60.3731 118.023 168.614 -0.746095 -0.556847 -0.365052
59.9486 117.978 169.551 -0.746095 -0.556847 -0.365052
62.2924 118.556 168.849 0.561321 -0.815136 -0.143078
62.5672 118.616 169.588 0.561321 -0.815136 -0.143078
61.9411 118.134 169.874 0.561321 -0.815136 -0.143078
62.5672 118.616 169.588 0.718277 -0.662091 -0.213807
62.2924 118.556 168.849 0.718277 -0.662091 -0.213807
62.7125 119.0 168.885 0.718277 -0.662091 -0.213807
62.787 119.117 169.782 0.919109 -0.393196 -0.0252074
62.5672 118.616 169.588 0.919109 -0.393196 -0.0252074
62.7125 119.0 168.885 0.919109 -0.393196 -0.0252074
59.3162 118.855 169.192 -0.79461 -0.19629 -0.574513
58.8455 118.825 169.853 -0.79461 -0.19629 -0.574513
58.5777 119.791 169.893 -0.79461 -0.19629 -0.574513
59.3162 118.855 169.192 -0.820614 -0.269733 -0.503822
58.5777 119.791 169.893 -0.820614 -0.269733 -0.503822
59.2189 119.965 168.755 -0.820614 -0.269733 -0.503822
59.3162 118.855 169.192 -0.857661 -0.251306 -0.448624
59.2189 119.965 168.755 -0.857661 -0.251306 -0.448624
59.4277 119.238 168.763 -0.857661 -0.251306 -0.448624
59.7566 118.828 168.647 -0.716783 -0.416027 -0.559592
59.3162 118.855 169.192 -0.716783 -0.416027 -0.559592
59.4277 119.238 168.763 -0.716783 -0.416027 -0.559592
62.7125 119.0 168.885 0.990708 -0.11842 -0.0668901
62.8037 119.819 168.786 0.990708 -0.11842 -0.0668901
62.787 119.117 169.782 0.990708 -0.11842 -0.0668901
62.787 119.117 169.782 0.9932 -0.102334 -0.0555165
62.8037 119.819 168.786 0.9932 -0.102334 -0.0555165
62.8666 119.952 169.665 0.9932 -0.102334 -0.0555165
58.5777 119.791 169.893 -0.867838 -0.039712 -0.495258
58.6963 120.771 169.607 -0.867838 -0.039712 -0.495258
59.2189 119.965 168.755 -0.867838 -0.039712 -0.495258
58.6963 120.771 169.607 -0.888676 -0.104865 -0.446384
59.1739 120.952 168.613 -0.888676 -0.104865 -0.446384
59.2189 119.965 168.755 -0.888676 -0.104865 -0.446384
62.8037 119.819 168.786 0.997239 0.0122202 -0.0732471
62.7992 120.749 168.881 0.997239 0.0122202 -0.0732471
62.8666 119.952 169.665 0.997239 0.0122202 -0.0732471
62.8666 119.952 169.665 0.998181 0.0458305 -0.0391812
62.7992 120.749 168.881 0.998181 0.0458305 -0.0391812
62.8412 120.701 169.894 0.998181 0.0458305 -0.0391812
59.3233 121.263 169.77 -0.643626 0.685957 0.339425
59.5593 121.814 169.103 -0.643626 0.685957 0.339425
59.265 121.704 168.767 -0.643626 0.685957 0.339425
59.3233 121.263 169.77 -0.633334 0.694022 0.342377
59.265 121.704 168.767 -0.633334 0.694022 0.342377
58.6963 120.771 169.607 -0.633334 0.694022 0.342377
58.6963 120.771 169.607 -0.897946 0.190085 -0.396939
59.265 121.704 168.767 -0.897946 0.190085 -0.396939
59.1739 120.952 168.613 -0.897946 0.190085 -0.396939
59.3233 121.263 169.77 -0.505082 0.744405 0.436754
60.42 122.025 169.739 -0.505082 0.744405 0.436754
59.5593 121.814 169.103 -0.505082 0.744405 0.436754
62.5888 121.264 168.884 0.707658 0.630841 -0.318215
62.0044 121.758 168.561 0.707658 0.630841 -0.318215
62.4032 121.876 169.683 0.707658 0.630841 -0.318215
62.5888 121.264 168.884 0.784785 0.566599 -0.251154
62.4032 121.876 169.683 0.784785 0.566599 -0.251154
62.7342 121.46 169.78 0.784785 0.566599 -0.251154
62.5888 121.264 168.884 0.901208 0.369238 -0.226907
62.7342 121.46 169.78 0.901208 0.369238 -0.226907
62.7992 120.749 168.881 0.901208 0.369238 -0.226907
62.7992 120.749 168.881 0.990338 0.134282 -0.0346359
62.7342 121.46 169.78 0.990338 0.134282 -0.0346359
62.8412 120.701 169.894 0.990338 0.134282 -0.0346359
59.265 121.704 168.767 -0.697747 0.578815 0.422046
59.5593 121.814 169.103 -0.697747 0.578815 0.422046
59.6236 122.191 168.693 -0.697747 0.578815 0.422046
60.2431 122.686 168.754 -0.17059 0.803892 0.569787
60.42 122.025 169.739 -0.17059 0.803892 0.569787
60.6072 122.683 168.867 -0.17059 0.803892 0.569787
59.6236 122.191 168.693 -0.561253 0.637241 0.528127
60.42 122.025 169.739 -0.561253 0.637241 0.528127
60.2431 122.686 168.754 -0.561253 0.637241 0.528127
59.6236 122.191 168.693 -0.544979 0.658429 0.519105
59.5593 121.814 169.103 -0.544979 0.658429 0.519105
60.42 122.025 169.739 -0.544979 0.658429 0.519105
60.6072 122.683 168.867 0.465348 0.8512 0.242713
61.4284 122.217 168.924 0.465348 0.8512 0.242713
60.7389 122.731 168.445 0.465348 0.8512 0.242713
60.6072 122.683 168.867 0.358108 0.706847 0.610022
60.42 122.025 169.739 0.358108 0.706847 0.610022
61.4284 122.217 168.924 0.358108 0.706847 0.610022
60.42 122.025 169.739 -0.207103 0.978004 -0.0248352
61.6428 122.287 169.895 -0.207103 0.978004 -0.0248352
61.4284 122.217 168.924 -0.207103 0.978004 -0.0248352
62.4032 121.876 169.683 0.495247 0.827848 -0.263435
62.0044 121.758 168.561 0.495247 0.827848 -0.263435
61.4284 122.217 168.924 0.495247 0.827848 -0.263435
62.4032 121.876 169.683 0.435084 0.88607 -0.159942
61.4284 122.217 168.924 0.435084 0.88607 -0.159942
61.6428 122.287 169.895 0.435084 0.88607 -0.159942
60.2431 122.686 168.754 -0.170788 0.803406 0.570412
60.6072 122.683 168.867 -0.170788 0.803406 0.570412
60.3911 122.888 168.512 -0.170788 0.803406 0.570412
60.7389 122.731 168.445 0.43852 0.867137 0.236166
60.3911 122.888 168.512 0.43852 0.867137 0.236166
60.6072 122.683 168.867 0.43852 0.867137 0.236166
59.9486 117.978 169.551 -0.354826 -0.910622 0.211816
60.6776 117.768 169.868 -0.354826 -0.910622 0.211816
60.3769 118.068 170.657 -0.354826 -0.910622 0.211816
61.4844 117.834 169.586 0.140587 -0.974483 0.174983
61.4165 117.988 170.502 0.140587 -0.974483 0.174983
60.6776 117.768 169.868 0.140587 -0.974483 0.174983
60.6776 117.768 169.868 -0.0203207 -0.936788 0.349307
61.4165 117.988 170.502 -0.0203207 -0.936788 0.349307
60.3769 118.068 170.657 -0.0203207 -0.936788 0.349307
61.4165 117.988 170.502 0.458622 -0.870013 0.180951
61.4844 117.834 169.586 0.458622 -0.870013 0.180951
61.9411 118.134 169.874 0.458622 -0.870013 0.180951
59.4204 118.198 169.997 -0.69907 -0.699371 0.148935
59.4798 118.29 170.706 -0.69907 -0.699371 0.148935
58.8772 118.862 170.565 -0.69907 -0.699371 0.148935
58.8455 118.825 169.853 -0.743304 -0.665579 0.0671117
59.4204 118.198 169.997 -0.743304 -0.665579 0.0671117
58.8772 118.862 170.565 -0.743304 -0.665579 0.0671117
60.3769 118.068 170.657 -0.249232 -0.952621 0.174346
59.4204 118.198 169.997 -0.249232 -0.952621 0.174346
59.9486 117.978 169.551 -0.249232 -0.952621 0.174346
59.4798 118.29 170.706 -0.229411 -0.962672 0.143644
59.4204 118.198 169.997 -0.229411 -0.962672 0.143644
60.3769 118.068 170.657 -0.229411 -0.962672 0.143644
62.4924 118.753 170.084 0.663351 -0.689525 0.290726
61.9411 118.134 169.874 0.663351 -0.689525 0.290726
62.5672 118.616 169.588 0.663351 -0.689525 0.290726
62.4924 118.753 170.084 0.562932 -0.666875 0.488247
61.9735 118.754 170.684 0.562932 -0.666875 0.488247
61.9411 118.134 169.874 0.562932 -0.666875 0.488247
61.9735 118.754 170.684 0.679036 -0.595673 0.42905
61.4165 117.988 170.502 0.679036 -0.595673 0.42905
61.9411 118.134 169.874 0.679036 -0.595673 0.42905
62.5672 118.616 169.588 0.844375 -0.469939 0.257272
62.787 119.117 169.782 0.844375 -0.469939 0.257272
62.4924 118.753 170.084 0.844375 -0.469939 0.257272
58.8772 118.862 170.565 -0.961489 -0.268963 0.0565523
58.5777 119.791 169.893 -0.961489 -0.268963 0.0565523
58.8455 118.825 169.853 -0.961489 -0.268963 0.0565523
58.7079 119.889 170.859 -0.967536 -0.202725 0.150919
58.5777 119.791 169.893 -0.967536 -0.202725 0.150919
58.8772 118.862 170.565 -0.967536 -0.202725 0.150919
62.4924 118.753 170.084 0.620665 -0.570369 0.538009
62.5857 119.374 170.635 0.620665 -0.570369 0.538009
61.9735 118.754 170.684 0.620665 -0.570369 0.538009
62.5857 119.374 170.635 0.848674 -0.416511 0.325992
62.4924 118.753 170.084 0.848674 -0.416511 0.325992
62.787 119.117 169.782 0.848674 -0.416511 0.325992
62.5857 119.374 170.635 0.911324 -0.281773 0.300154
62.787 119.117 169.782 0.911324 -0.281773 0.300154
62.7689 119.961 170.629 0.911324 -0.281773 0.300154
62.7689 119.961 170.629 0.991624 -0.0802867 0.101176
62.787 119.117 169.782 0.991624 -0.0802867 0.101176
62.8666 119.952 169.665 0.991624 -0.0802867 0.101176
58.4025 120.639 170.109 -0.980535 -0.191368 -0.0439216
58.5777 119.791 169.893 -0.980535 -0.191368 -0.0439216
58.3967 120.558 170.594 -0.980535 -0.191368 -0.0439216
58.3967 120.558 170.594 -0.917684 -0.363471 0.160452
58.5777 119.791 169.893 -0.917684 -0.363471 0.160452
58.7079 119.889 170.859 -0.917684 -0.363471 0.160452
58.5777 119.791 169.893 -0.85708 -0.0462303 -0.513104
58.4025 120.639 170.109 -0.85708 -0.0462303 -0.513104
58.6963 120.771 169.607 -0.85708 -0.0462303 -0.513104
62.8666 119.952 169.665 0.994906 0.00295165 0.100768
62.8412 120.701 169.894 0.994906 0.00295165 0.100768
62.7689 119.961 170.629 0.994906 0.00295165 0.100768
62.7689 119.961 170.629 0.994276 0.00869295 0.106486
62.8412 120.701 169.894 0.994276 0.00869295 0.106486
62.756 120.976 170.668 0.994276 0.00869295 0.106486
58.4025 120.639 170.109 -0.839807 0.536944 0.0800943
58.3967 120.558 170.594 -0.839807 0.536944 0.0800943
58.5859 120.869 170.494 -0.839807 0.536944 0.0800943
58.6963 120.771 169.607 -0.620744 0.767167 -0.161652
58.4025 120.639 170.109 -0.620744 0.767167 -0.161652
58.5859 120.869 170.494 -0.620744 0.767167 -0.161652
58.6963 120.771 169.607 -0.58307 0.796472 -0.160193
58.5859 120.869 170.494 -0.58307 0.796472 -0.160193
59.3233 121.263 169.77 -0.58307 0.796472 -0.160193
59.3233 121.263 169.77 -0.350698 0.924987 0.146318
58.5859 120.869 170.494 -0.350698 0.924987 0.146318
59.4151 121.16 170.64 -0.350698 0.924987 0.146318
59.4151 121.16 170.64 -0.560742 0.813306 0.15525
60.42 122.025 169.739 -0.560742 0.813306 0.15525
59.3233 121.263 169.77 -0.560742 0.813306 0.15525
60.2116 121.657 170.754 -0.53908 0.821231 0.187012
60.42 122.025 169.739 -0.53908 0.821231 0.187012
59.4151 121.16 170.64 -0.53908 0.821231 0.187012
62.8412 120.701 169.894 0.987447 0.147555 0.0563568
62.7342 121.46 169.78 0.987447 0.147555 0.0563568
62.756 120.976 170.668 0.987447 0.147555 0.0563568
62.756 120.976 170.668 0.985193 0.159485 0.0629222
62.7342 121.46 169.78 0.985193 0.159485 0.0629222
62.6464 121.701 170.546 0.985193 0.159485 0.0629222
60.42 122.025 169.739 -0.472137 0.855373 0.213128
60.2116 121.657 170.754 -0.472137 0.855373 0.213128
60.6155 121.902 170.663 -0.472137 0.855373 0.213128
61.6428 122.287 169.895 -0.2372 0.922274 0.3052
60.42 122.025 169.739 -0.2372 0.922274 0.3052
61.3536 121.964 170.649 -0.2372 0.922274 0.3052
60.42 122.025 169.739 -0.0791899 0.985926 0.147237
60.6155 121.902 170.663 -0.0791899 0.985926 0.147237
61.3536 121.964 170.649 -0.0791899 0.985926 0.147237
62.4032 121.876 169.683 0.482366 0.875464 0.0297515
61.6428 122.287 169.895 0.482366 0.875464 0.0297515
62.2975 121.902 170.633 0.482366 0.875464 0.0297515
61.6428 122.287 169.895 0.066562 0.907231 0.415332
61.3536 121.964 170.649 0.066562 0.907231 0.415332
62.2975 121.902 170.633 0.066562 0.907231 0.415332
62.6464 121.701 170.546 0.789367 0.605746 -0.0998604
62.7342 121.46 169.78 0.789367 0.605746 -0.0998604
62.4032 121.876 169.683 0.789367 0.605746 -0.0998604
62.2975 121.902 170.633 0.504173 0.86299 0.032517
62.6464 121.701 170.546 0.504173 0.86299 0.032517
62.4032 121.876 169.683 0.504173 0.86299 0.032517
59.4798 118.29 170.706 -0.558011 -0.409379 0.721826
59.5825 118.94 171.154 -0.558011 -0.409379 0.721826
58.8772 118.862 170.565 -0.558011 -0.409379 0.721826
59.4798 118.29 170.706 -0.0914603 -0.555263 0.82663
60.3769 118.068 170.657 -0.0914603 -0.555263 0.82663
59.5825 118.94 171.154 -0.0914603 -0.555263 0.82663
59.5825 118.94 171.154 -0.137047 -0.582352 0.801302
60.3769 118.068 170.657 -0.137047 -0.582352 0.801302
60.6329 118.928 171.325 -0.137047 -0.582352 0.801302
61.4165 117.988 170.502 0.0802279 -0.555246 0.827808
61.4795 118.793 171.035 0.0802279 -0.555246 0.827808
60.3769 118.068 170.657 0.0802279 -0.555246 0.827808
61.4795 118.793 171.035 0.157148 -0.634986 0.756371
60.6329 118.928 171.325 0.157148 -0.634986 0.756371
60.3769 118.068 170.657 0.157148 -0.634986 0.756371
61.4165 117.988 170.502 0.471091 -0.512852 0.717674
61.9735 118.754 170.684 0.471091 -0.512852 0.717674
61.4795 118.793 171.035 0.471091 -0.512852 0.717674
58.7079 119.889 170.859 -0.589123 -0.310649 0.745944
58.8772 118.862 170.565 -0.589123 -0.310649 0.745944
59.5825 118.94 171.154 -0.589123 -0.310649 0.745944
58.7079 119.889 170.859 -0.505983 -0.205412 0.837727
59.5825 118.94 171.154 -0.505983 -0.205412 0.837727
59.5998 119.948 171.412 -0.505983 -0.205412 0.837727
60.6329 118.928 171.325 -0.158024 -0.261953 0.952055
60.5318 119.821 171.554 -0.158024 -0.261953 0.952055
59.5825 118.94 171.154 -0.158024 -0.261953 0.952055
60.5318 119.821 171.554 -0.178538 -0.240746 0.954026
59.5998 119.948 171.412 -0.178538 -0.240746 0.954026
59.5825 118.94 171.154 -0.178538 -0.240746 0.954026
61.4795 118.793 171.035 0.228891 -0.43346 0.87162
61.5622 119.778 171.504 0.228891 -0.43346 0.87162
60.6329 118.928 171.325 0.228891 -0.43346 0.87162
61.5622 119.778 171.504 0.0370725 -0.244221 0.969011
60.5318 119.821 171.554 0.0370725 -0.244221 0.969011
60.6329 118.928 171.325 0.0370725 -0.244221 0.969011
61.9735 118.754 170.684 0.626726 -0.577513 0.523157
62.5857 119.374 170.635 0.626726 -0.577513 0.523157
62.3626 119.644 171.2 0.626726 -0.577513 0.523157
61.9735 118.754 170.684 0.438897 -0.586691 0.680561
62.3626 119.644 171.2 0.438897 -0.586691 0.680561
61.4795 118.793 171.035 0.438897 -0.586691 0.680561
61.4795 118.793 171.035 0.255904 -0.432393 0.864609
62.3626 119.644 171.2 0.255904 -0.432393 0.864609
61.5622 119.778 171.504 0.255904 -0.432393 0.864609
62.5857 119.374 170.635 0.848922 -0.26074 0.459724
62.7689 119.961 170.629 0.848922 -0.26074 0.459724
62.3626 119.644 171.2 0.848922 -0.26074 0.459724
58.7079 119.889 170.859 -0.700653 -0.0443244 0.712124
58.6488 120.728 170.853 -0.700653 -0.0443244 0.712124
58.3967 120.558 170.594 -0.700653 -0.0443244 0.712124
59.5998 119.948 171.412 -0.528691 0.131676 0.838539
59.5403 120.84 171.234 -0.528691 0.131676 0.838539
58.7079 119.889 170.859 -0.528691 0.131676 0.838539
59.5403 120.84 171.234 -0.390915 -0.0210779 0.920185
58.6488 120.728 170.853 -0.390915 -0.0210779 0.920185
58.7079 119.889 170.859 -0.390915 -0.0210779 0.920185
60.5318 119.821 171.554 -0.144564 0.0484585 0.988308
60.5257 120.811 171.505 -0.144564 0.0484585 0.988308
59.5998 119.948 171.412 -0.144564 0.0484585 0.988308
60.5257 120.811 171.505 -0.256277 0.172226 0.951136
59.5403 120.84 171.234 -0.256277 0.172226 0.951136
59.5998 119.948 171.412 -0.256277 0.172226 0.951136
61.5622 119.778 171.504 0.0476777 -0.0241198 0.998572
61.5645 120.777 171.528 0.0476777 -0.0241198 0.998572
60.5318 119.821 171.554 0.0476777 -0.0241198 0.998572
61.5645 120.777 171.528 -0.0206459 0.0497323 0.998549
60.5257 120.811 171.505 -0.0206459 0.0497323 0.998549
60.5318 119.821 171.554 -0.0206459 0.0497323 0.998549
62.3626 119.644 171.2 0.325698 -0.166371 0.930721
62.4453 120.599 171.342 0.325698 -0.166371 0.930721
61.5622 119.778 171.504 0.325698 -0.166371 0.930721
62.4453 120.599 171.342 0.202268 -0.0240075 0.979036
61.5645 120.777 171.528 0.202268 -0.0240075 0.979036
61.5622 119.778 171.504 0.202268 -0.0240075 0.979036
62.7689 119.961 170.629 0.909022 -0.00407467 0.416727
62.756 120.976 170.668 0.909022 -0.00407467 0.416727
62.4453 120.599 171.342 0.909022 -0.00407467 0.416727
62.3626 119.644 171.2 0.842751 -0.149702 0.51707
62.7689 119.961 170.629 0.842751 -0.149702 0.51707
62.4453 120.599 171.342 0.842751 -0.149702 0.51707
58.3967 120.558 170.594 -0.744455 0.566795 0.352888
58.6488 120.728 170.853 -0.744455 0.566795 0.352888
58.5859 120.869 170.494 -0.744455 0.566795 0.352888
59.4151 121.16 170.64 -0.365758 0.842817 0.394817
58.5859 120.869 170.494 -0.365758 0.842817 0.394817
58.6488 120.728 170.853 -0.365758 0.842817 0.394817
59.5403 120.84 171.234 -0.31585 0.80615 0.50036
59.4151 121.16 170.64 -0.31585 0.80615 0.50036
58.6488 120.728 170.853 -0.31585 0.80615 0.50036
60.2116 121.657 170.754 -0.511069 0.707315 0.488378
59.4151 121.16 170.64 -0.511069 0.707315 0.488378
59.5403 120.84 171.234 -0.511069 0.707315 0.488378
60.2116 121.657 170.754 -0.386509 0.682455 0.620376
59.5403 120.84 171.234 -0.386509 0.682455 0.620376
60.5923 121.64 171.01 -0.386509 0.682455 0.620376
60.5923 121.64 171.01 -0.213249 0.513562 0.831131
59.5403 120.84 171.234 -0.213249 0.513562 0.831131
60.5257 120.811 171.505 -0.213249 0.513562 0.831131
61.5645 120.777 171.528 -0.0071027 0.399745 0.916599
61.5453 121.626 171.157 -0.0071027 0.399745 0.916599
60.5257 120.811 171.505 -0.0071027 0.399745 0.916599
61.5453 121.626 171.157 -0.123616 0.516157 0.847527
60.5923 121.64 171.01 -0.123616 0.516157 0.847527
60.5257 120.811 171.505 -0.123616 0.516157 0.847527
62.4453 120.599 171.342 0.261705 0.357587 0.896461
62.4284 121.514 170.982 0.261705 0.357587 0.896461
61.5645 120.777 171.528 0.261705 0.357587 0.896461
62.4284 121.514 170.982 0.227217 0.393732 0.890701
61.5453 121.626 171.157 0.227217 0.393732 0.890701
61.5645 120.777 171.528 0.227217 0.393732 0.890701
62.756 120.976 170.668 0.834733 0.211575 0.508387
62.6464 121.701 170.546 0.834733 0.211575 0.508387
62.4284 121.514 170.982 0.834733 0.211575 0.508387
62.4453 120.599 171.342 0.836007 0.214227 0.505173
62.756 120.976 170.668 0.836007 0.214227 0.505173
62.4284 121.514 170.982 0.836007 0.214227 0.505173
60.2116 121.657 170.754 -0.33798 0.761326 0.553311
60.5923 121.64 171.01 -0.33798 0.761326 0.553311
60.6155 121.902 170.663 -0.33798 0.761326 0.553311
61.3536 121.964 170.649 -0.0548585 0.798087 0.60004
60.6155 121.902 170.663 -0.0548585 0.798087 0.60004
60.5923 121.64 171.01 -0.0548585 0.798087 0.60004
61.5453 121.626 171.157 -0.0764347 0.817013 0.57153
61.3536 121.964 170.649 -0.0764347 0.817013 0.57153
60.5923 121.64 171.01 -0.0764347 0.817013 0.57153
62.2975 121.902 170.633 0.0642907 0.842239 0.535258
61.3536 121.964 170.649 0.0642907 0.842239 0.535258
61.5453 121.626 171.157 0.0642907 0.842239 0.535258
62.4284 121.514 170.982 0.224291 0.692324 0.685844
62.2975 121.902 170.633 0.224291 0.692324 0.685844
61.5453 121.626 171.157 0.224291 0.692324 0.685844
62.6464 121.701 170.546 0.516307 0.66234 0.542893
62.2975 121.902 170.633 0.516307 0.66234 0.542893
62.4284 121.514 170.982 0.516307 0.66234 0.542893
3 0 1 2
3 3 4 5
3 6 7 8
3 9 10 11
3 12 13 14
3 15 16 17
3 18 19 20
3 21 22 23
3 24 25 26
3 27 28 29
3 30 31 32
3 33 34 35
3 36 37 38
3 39 40 41
3 42 43 44
3 45 46 47
3 48 49 50
3 51 52 53
3 54 55 56
3 57 58 59
3 60 61 62
3 63 64 65
3 66 67 68
3 69 70 71
3 72 73 74
3 75 76 77
3 78 79 80
3 81 82 83
3 84 85 86
3 87 88 89
3 90 91 92
3 93 94 95
3 96 97 98
3 99 100 101
3 102 103 104
3 105 106 107
3 108 109 110
3 111 112 113
3 114 115 116
3 117 118 119
3 120 121 122
3 123 124 125
3 126 127 128
3 129 130 131
3 132 133 134
3 135 136 137
3 138 139 140
3 141 142 143
3 144 145 146
3 147 148 149
3 150 151 152
3 153 154 155
3 156 157 158
3 159 160 161
3 162 163 164
3 165 166 167
3 168 169 170
3 171 172 173
3 174 175 176
3 177 178 179
3 180 181 182
3 183 184 185
3 186 187 188
3 189 190 191
3 192 193 194
3 195 196 197
3 198 199 200
3 201 202 203
3 204 205 206
3 207 208 209
3 210 211 212
3 213 214 215
3 216 217 218
3 219 220 221
3 222 223 224
3 225 226 227
3 228 229 230
3 231 232 233
3 234 235 236
3 237 238 239
3 240 241 242
3 243 244 245
3 246 247 248
3 249 250 251
3 252 253 254
3 255 256 257
3 258 259 260
3 261 262 263
3 264 265 266
3 267 268 269
3 270 271 272
3 273 274 275
3 276 277 278
3 279 280 281
3 282 283 284
3 285 286 287
3 288 289 290
3 291 292 293
3 294 295 296
3 297 298 299
3 300 301 302
3 303 304 305
3 306 307 308
3 309 310 311
3 312 313 314
3 315 316 317
3 318 319 320
3 321 322 323
3 324 325 326
3 327 328 329
3 330 331 332
3 333 334 335
3 336 337 338
3 339 340 341
3 342 343 344
3 345 346 347
3 348 349 350
3 351 352 353
3 354 355 356
3 357 358 359
3 360 361 362
3 363 364 365
3 366 367 368
3 369 370 371
3 372 373 374
3 375 376 377
3 378 379 380
3 381 382 383
3 384 385 386
3 387 388 389
3 390 391 392
3 393 394 395
3 396 397 398
3 399 400 401
3 402 403 404
3 405 406 407
3 408 409 410
3 411 412 413
3 414 415 416
3 417 418 419
3 420 421 422
3 423 424 425
3 426 427 428
3 429 430 431
3 432 433 434
3 435 436 437
3 438 439 440
3 441 442 443
3 444 445 446
3 447 448 449
3 450 451 452
3 453 454 455
3 456 457 458
3 459 460 461
3 462 463 464
3 465 466 467
3 468 469 470
3 471 472 473
3 474 475 476
3 477 478 479
3 480 481 482
3 483 484 485
3 486 487 488
3 489 490 491
3 492 493 494
3 495 496 497
3 498 499 500
3 501 502 503
3 504 505 506
3 507 508 509
3 510 511 512
3 513 514 515
3 516 517 518
3 519 520 521
3 522 523 524
3 525 526 527
3 528 529 530
3 531 532 533
3 534 535 536
3 537 538 539
3 540 541 542
3 543 544 545
3 546 547 548
3 549 550 551
3 552 553 554
3 555 556 557
3 558 559 560
3 561 562 563
3 564 565 566
3 567 568 569
3 570 571 572
3 573 574 575
3 576 577 578
3 579 580 581
3 582 583 584
3 585 586 587
3 588 589 590
3 591 592 593
3 594 595 596
3 597 598 599
3 600 601 602
3 603 604 605
3 606 607 608
3 609 610 611
3 612 613 614
3 615 616 617
3 618 619 620
3 621 622 623
3 624 625 626
3 627 628 629
3 630 631 632
3 633 634 635
3 636 637 638
3 639 640 641
3 642 643 644
3 645 646 647
3 648 649 650
3 651 652 653
3 654 655 656
3 657 658 659
