ply
format ascii 1.0
element vertex 330
property float x
property float y
property float z
property float nx
property float ny
property float nz
element face 110
property list uint uint vertex_indices
end_header
76.9157 126.317 178.345 0.00233429 -0.813187 -0.581998
77.1665 126.497 178.095 0.00233429 -0.813187 -0.581998
77.8946 126.34 178.317 0.00233429 -0.813187 -0.581998
76.3407 127.125 178.095 -0.5459 -0.469533 -0.693925
76.1485 126.864 178.423 -0.5459 -0.469533 -0.693925
75.9426 127.327 178.272 -0.5459 -0.469533 -0.693925
76.9157 126.317 178.345 -0.459345 -0.543814 -0.702331
76.1485 126.864 178.423 -0.459345 -0.543814 -0.702331
76.3407 127.125 178.095 -0.459345 -0.543814 -0.702331
76.9157 126.317 178.345 -0.391935 -0.51447 -0.762698
76.3407 127.125 178.095 -0.391935 -0.51447 -0.762698
77.1665 126.497 178.095 -0.391935 -0.51447 -0.762698
77.1665 126.497 178.095 -0.119732 -0.156384 -0.980412
76.3407 127.125 178.095 -0.119732 -0.156384 -0.980412
77.1743 127.253 177.973 -0.119732 -0.156384 -0.980412
77.8946 126.34 178.317 0.207032 -0.339836 -0.917415
77.1665 126.497 178.095 0.207032 -0.339836 -0.917415
78.0364 127.126 178.058 0.207032 -0.339836 -0.917415
78.0364 127.126 178.058 0.0735662 -0.159039 -0.984528
77.1665 126.497 178.095 0.0735662 -0.159039 -0.984528
77.1743 127.253 177.973 0.0735662 -0.159039 -0.984528
78.0364 127.126 178.058 0.301073 -0.34716 -0.888164
78.7386 126.977 178.354 0.301073 -0.34716 -0.888164
77.8946 126.34 178.317 0.301073 -0.34716 -0.888164
76.1648 128.059 178.118 -0.430043 -0.0593215 -0.900857
76.3407 127.125 178.095 -0.430043 -0.0593215 -0.900857
75.9426 127.327 178.272 -0.430043 -0.0593215 -0.900857
75.92 128.023 178.424 -0.783217 0.108771 -0.61216
76.1648 128.059 178.118 -0.783217 0.108771 -0.61216
75.9426 127.327 178.272 -0.783217 0.108771 -0.61216
77.1743 127.253 177.973 -0.144741 -0.00193869 -0.989468
76.3407 127.125 178.095 -0.144741 -0.00193869 -0.989468
77.0148 128.094 177.995 -0.144741 -0.00193869 -0.989468
77.0148 128.094 177.995 -0.143073 -0.00312414 -0.989707
76.3407 127.125 178.095 -0.143073 -0.00312414 -0.989707
76.1648 128.059 178.118 -0.143073 -0.00312414 -0.989707
78.0364 127.126 178.058 0.0943932 -0.0251593 -0.995217
77.1743 127.253 177.973 0.0943932 -0.0251593 -0.995217
77.9432 128.09 178.025 0.0943932 -0.0251593 -0.995217
77.9432 128.09 178.025 0.0325171 0.0319164 -0.998961
77.1743 127.253 177.973 0.0325171 0.0319164 -0.998961
77.0148 128.094 177.995 0.0325171 0.0319164 -0.998961
78.7492 128.0 178.279 0.374638 -0.0719235 -0.924377
78.7386 126.977 178.354 0.374638 -0.0719235 -0.924377
78.0364 127.126 178.058 0.374638 -0.0719235 -0.924377
77.9432 128.09 178.025 0.300247 -0.00384148 -0.953854
78.7492 128.0 178.279 0.300247 -0.00384148 -0.953854
78.0364 127.126 178.058 0.300247 -0.00384148 -0.953854
76.1648 128.059 178.118 -0.781281 0.150748 -0.605702
75.92 128.023 178.424 -0.781281 0.150748 -0.605702
76.1425 128.599 178.281 -0.781281 0.150748 -0.605702
76.1425 128.599 178.281 -0.37313 0.705283 -0.602785
76.5913 128.996 178.468 -0.37313 0.705283 -0.602785
76.8644 128.857 178.136 -0.37313 0.705283 -0.602785
76.1425 128.599 178.281 -0.280884 0.266968 -0.921863
76.8644 128.857 178.136 -0.280884 0.266968 -0.921863
76.1648 128.059 178.118 -0.280884 0.266968 -0.921863
76.1648 128.059 178.118 -0.147723 0.151523 -0.977353
76.8644 128.857 178.136 -0.147723 0.151523 -0.977353
77.0148 128.094 177.995 -0.147723 0.151523 -0.977353
77.9432 128.09 178.025 0.0326938 0.139426 -0.989693
77.0148 128.094 177.995 0.0326938 0.139426 -0.989693
77.748 128.899 178.132 0.0326938 0.139426 -0.989693
77.748 128.899 178.132 -0.0122904 0.179399 -0.9837
77.0148 128.094 177.995 -0.0122904 0.179399 -0.9837
76.8644 128.857 178.136 -0.0122904 0.179399 -0.9837
78.1744 128.838 178.261 0.314626 0.195862 -0.928789
78.7492 128.0 178.279 0.314626 0.195862 -0.928789
77.9432 128.09 178.025 0.314626 0.195862 -0.928789
77.748 128.899 178.132 0.308682 0.198172 -0.930292
78.1744 128.838 178.261 0.308682 0.198172 -0.930292
77.9432 128.09 178.025 0.308682 0.198172 -0.930292
76.8644 128.857 178.136 -0.207341 0.829487 -0.518614
76.5913 128.996 178.468 -0.207341 0.829487 -0.518614
77.2539 129.118 178.398 -0.207341 0.829487 -0.518614
77.748 128.899 178.132 -0.0372687 0.735032 -0.677007
76.8644 128.857 178.136 -0.0372687 0.735032 -0.677007
77.2539 129.118 178.398 -0.0372687 0.735032 -0.677007
77.9672 129.097 178.409 0.0329476 0.799501 -0.599761
77.748 128.899 178.132 0.0329476 0.799501 -0.599761
77.2539 129.118 178.398 0.0329476 0.799501 -0.599761
78.1744 128.838 178.261 0.302863 0.644108 -0.702423
77.748 128.899 178.132 0.302863 0.644108 -0.702423
77.9672 129.097 178.409 0.302863 0.644108 -0.702423
76.9157 126.317 178.345 0.0495298 -0.996123 0.0727074
77.1217 126.383 179.107 0.0495298 -0.996123 0.0727074
76.6869 126.344 178.874 0.0495298 -0.996123 0.0727074
78.1221 126.3 178.832 -0.109566 -0.98891 -0.100264
77.6829 126.309 179.226 -0.109566 -0.98891 -0.100264
77.1217 126.383 179.107 -0.109566 -0.98891 -0.100264
78.1221 126.3 178.832 -0.0922686 -0.995097 -0.0356269
77.1217 126.383 179.107 -0.0922686 -0.995097 -0.0356269
77.8946 126.34 178.317 -0.0922686 -0.995097 -0.0356269
77.8946 126.34 178.317 0.0251586 -0.996531 0.0793267
77.1217 126.383 179.107 0.0251586 -0.996531 0.0793267
76.9157 126.317 178.345 0.0251586 -0.996531 0.0793267
76.1485 126.864 178.423 -0.883944 -0.467583 -0.00312005
76.2049 126.753 179.021 -0.883944 -0.467583 -0.00312005
75.9388 127.258 178.883 -0.883944 -0.467583 -0.00312005
75.9426 127.327 178.272 -0.905694 -0.420572 -0.0532653
76.1485 126.864 178.423 -0.905694 -0.420572 -0.0532653
75.9388 127.258 178.883 -0.905694 -0.420572 -0.0532653
76.6869 126.344 178.874 -0.581546 -0.785637 -0.211138
76.1485 126.864 178.423 -0.581546 -0.785637 -0.211138
76.9157 126.317 178.345 -0.581546 -0.785637 -0.211138
76.2049 126.753 179.021 -0.658591 -0.748614 -0.0763837
76.1485 126.864 178.423 -0.658591 -0.748614 -0.0763837
76.6869 126.344 178.874 -0.658591 -0.748614 -0.0763837
78.1221 126.3 178.832 0.224044 -0.936368 0.27022
78.316 126.502 179.37 0.224044 -0.936368 0.27022
77.6829 126.309 179.226 0.224044 -0.936368 0.27022
78.1221 126.3 178.832 0.580688 -0.750936 -0.314478
77.8946 126.34 178.317 0.580688 -0.750936 -0.314478
78.7386 126.977 178.354 0.580688 -0.750936 -0.314478
78.1221 126.3 178.832 0.527213 -0.75518 -0.389551
78.7386 126.977 178.354 0.527213 -0.75518 -0.389551
78.9375 126.746 179.072 0.527213 -0.75518 -0.389551
78.1221 126.3 178.832 0.431345 -0.88481 0.176217
78.9375 126.746 179.072 0.431345 -0.88481 0.176217
78.316 126.502 179.37 0.431345 -0.88481 0.176217
79.1132 127.337 178.628 0.770266 -0.513002 -0.37884
78.9375 126.746 179.072 0.770266 -0.513002 -0.37884
78.7386 126.977 178.354 0.770266 -0.513002 -0.37884
78.9375 126.746 179.072 0.875599 -0.428008 -0.22391
79.1132 127.337 178.628 0.875599 -0.428008 -0.22391
79.1854 127.189 179.193 0.875599 -0.428008 -0.22391
75.9426 127.327 178.272 -0.999496 -0.0302471 -0.0096539
75.9388 127.258 178.883 -0.999496 -0.0302471 -0.0096539
75.92 128.023 178.424 -0.999496 -0.0302471 -0.0096539
75.9388 127.258 178.883 -0.998918 0.0033348 0.0463867
75.949 127.955 179.054 -0.998918 0.0033348 0.0463867
75.92 128.023 178.424 -0.998918 0.0033348 0.0463867
79.1132 127.337 178.628 0.764314 0.0832819 -0.639444
78.7492 128.0 178.279 0.764314 0.0832819 -0.639444
79.028 128.1 178.625 0.764314 0.0832819 -0.639444
78.7386 126.977 178.354 0.627632 -0.0636127 -0.775907
78.7492 128.0 178.279 0.627632 -0.0636127 -0.775907
79.1132 127.337 178.628 0.627632 -0.0636127 -0.775907
79.211 127.83 179.222 0.990252 -0.0334935 -0.135203
79.1854 127.189 179.193 0.990252 -0.0334935 -0.135203
79.1132 127.337 178.628 0.990252 -0.0334935 -0.135203
79.028 128.1 178.625 0.96312 0.106835 -0.246953
79.211 127.83 179.222 0.96312 0.106835 -0.246953
79.1132 127.337 178.628 0.96312 0.106835 -0.246953
75.92 128.023 178.424 -0.967793 0.241603 0.0707448
75.949 127.955 179.054 -0.967793 0.241603 0.0707448
76.0894 128.562 178.901 -0.967793 0.241603 0.0707448
76.1425 128.599 178.281 -0.936168 0.346548 -0.0591055
75.92 128.023 178.424 -0.936168 0.346548 -0.0591055
76.0894 128.562 178.901 -0.936168 0.346548 -0.0591055
76.0894 128.562 178.901 -0.660046 0.751146 -0.0109232
76.5913 128.996 178.468 -0.660046 0.751146 -0.0109232
76.1425 128.599 178.281 -0.660046 0.751146 -0.0109232
76.6072 128.887 179.063 -0.561613 0.811134 0.163258
76.5913 128.996 178.468 -0.561613 0.811134 0.163258
76.0894 128.562 178.901 -0.561613 0.811134 0.163258
79.028 128.1 178.625 0.691445 0.718605 -0.0742341
78.3234 128.82 179.033 0.691445 0.718605 -0.0742341
78.9633 128.238 179.359 0.691445 0.718605 -0.0742341
79.028 128.1 178.625 0.421368 0.722867 -0.547643
78.7492 128.0 178.279 0.421368 0.722867 -0.547643
78.3234 128.82 179.033 0.421368 0.722867 -0.547643
78.7492 128.0 178.279 0.817548 0.557469 -0.144376
78.1744 128.838 178.261 0.817548 0.557469 -0.144376
78.3234 128.82 179.033 0.817548 0.557469 -0.144376
79.211 127.83 179.222 0.851052 0.524546 -0.0236897
79.028 128.1 178.625 0.851052 0.524546 -0.0236897
78.9633 128.238 179.359 0.851052 0.524546 -0.0236897
76.5913 128.996 178.468 -0.146389 0.972397 0.181698
76.6072 128.887 179.063 -0.146389 0.972397 0.181698
77.1609 128.925 179.309 -0.146389 0.972397 0.181698
77.2539 129.118 178.398 -0.158408 0.969008 0.18955
76.5913 128.996 178.468 -0.158408 0.969008 0.18955
77.1609 128.925 179.309 -0.158408 0.969008 0.18955
77.9672 129.097 178.409 0.0307263 0.998617 -0.0426606
77.2539 129.118 178.398 0.0307263 0.998617 -0.0426606
77.896 129.131 179.17 0.0307263 0.998617 -0.0426606
77.2539 129.118 178.398 -0.234578 0.955492 0.178911
77.1609 128.925 179.309 -0.234578 0.955492 0.178911
77.896 129.131 179.17 -0.234578 0.955492 0.178911
78.3234 128.82 179.033 0.737484 0.663431 -0.1264
78.1744 128.838 178.261 0.737484 0.663431 -0.1264
77.9672 129.097 178.409 0.737484 0.663431 -0.1264
77.896 129.131 179.17 0.592901 0.805056 0.0187644
78.3234 128.82 179.033 0.592901 0.805056 0.0187644
77.9672 129.097 178.409 0.592901 0.805056 0.0187644
76.2049 126.753 179.021 -0.762563 -0.238111 0.601499
76.2475 127.271 179.28 -0.762563 -0.238111 0.601499
75.9388 127.258 178.883 -0.762563 -0.238111 0.601499
76.2049 126.753 179.021 -0.322039 -0.632834 0.704139
76.6869 126.344 178.874 -0.322039 -0.632834 0.704139
77.1217 126.383 179.107 -0.322039 -0.632834 0.704139
76.2049 126.753 179.021 -0.25066 -0.416487 0.873904
77.1217 126.383 179.107 -0.25066 -0.416487 0.873904
76.2475 127.271 179.28 -0.25066 -0.416487 0.873904
76.2475 127.271 179.28 -0.37344 -0.517236 0.770071
77.1217 126.383 179.107 -0.37344 -0.517236 0.770071
77.1547 127.255 179.709 -0.37344 -0.517236 0.770071
77.6829 126.309 179.226 -0.0173803 -0.560375 0.828057
78.316 126.502 179.37 -0.0173803 -0.560375 0.828057
77.9814 127.05 179.734 -0.0173803 -0.560375 0.828057
77.6829 126.309 179.226 -0.241783 -0.480299 0.843122
77.9814 127.05 179.734 -0.241783 -0.480299 0.843122
77.1217 126.383 179.107 -0.241783 -0.480299 0.843122
77.1217 126.383 179.107 -0.162406 -0.556221 0.815011
77.9814 127.05 179.734 -0.162406 -0.556221 0.815011
77.1547 127.255 179.709 -0.162406 -0.556221 0.815011
78.6834 127.105 179.952 -0.188371 -0.62045 0.761287
77.9814 127.05 179.734 -0.188371 -0.62045 0.761287
78.316 126.502 179.37 -0.188371 -0.62045 0.761287
78.6834 127.105 179.952 0.42972 -0.748834 0.504568
78.316 126.502 179.37 0.42972 -0.748834 0.504568
79.0286 127.239 179.857 0.42972 -0.748834 0.504568
79.0286 127.239 179.857 0.498473 -0.758855 0.419123
78.316 126.502 179.37 0.498473 -0.758855 0.419123
78.9375 126.746 179.072 0.498473 -0.758855 0.419123
79.0286 127.239 179.857 0.820246 -0.522348 0.233127
78.9375 126.746 179.072 0.820246 -0.522348 0.233127
79.1854 127.189 179.193 0.820246 -0.522348 0.233127
76.2475 127.271 179.28 -0.653704 -0.036404 0.755874
76.2564 128.244 179.334 -0.653704 -0.036404 0.755874
75.949 127.955 179.054 -0.653704 -0.036404 0.755874
75.9388 127.258 178.883 -0.779247 -0.13888 0.611136
76.2475 127.271 179.28 -0.779247 -0.13888 0.611136
75.949 127.955 179.054 -0.779247 -0.13888 0.611136
77.1547 127.255 179.709 -0.427399 -0.0790475 0.900601
76.9387 128.024 179.674 -0.427399 -0.0790475 0.900601
76.2475 127.271 179.28 -0.427399 -0.0790475 0.900601
76.9387 128.024 179.674 -0.456847 -0.0456247 0.888375
76.2564 128.244 179.334 -0.456847 -0.0456247 0.888375
76.2475 127.271 179.28 -0.456847 -0.0456247 0.888375
77.9814 127.05 179.734 -0.0583178 -0.114469 0.991714
78.0382 128.24 179.874 -0.0583178 -0.114469 0.991714
77.1547 127.255 179.709 -0.0583178 -0.114469 0.991714
78.0382 128.24 179.874 -0.178493 -0.005406 0.983926
76.9387 128.024 179.674 -0.178493 -0.005406 0.983926
77.1547 127.255 179.709 -0.178493 -0.005406 0.983926
78.5726 127.799 180.083 -0.2745 -0.219803 0.936128
77.9814 127.05 179.734 -0.2745 -0.219803 0.936128
78.6834 127.105 179.952 -0.2745 -0.219803 0.936128
78.0382 128.24 179.874 -0.423307 -0.0864303 0.901854
77.9814 127.05 179.734 -0.423307 -0.0864303 0.901854
78.5726 127.799 180.083 -0.423307 -0.0864303 0.901854
79.1854 127.189 179.193 0.971149 -0.0493208 0.233319
79.211 127.83 179.222 0.971149 -0.0493208 0.233319
79.0286 127.239 179.857 0.971149 -0.0493208 0.233319
79.0286 127.239 179.857 0.97527 -0.199888 0.0943062
79.211 127.83 179.222 0.97527 -0.199888 0.0943062
79.1743 127.981 179.923 0.97527 -0.199888 0.0943062
75.949 127.955 179.054 -0.784094 0.316049 0.534144
76.2564 128.244 179.334 -0.784094 0.316049 0.534144
76.0894 128.562 178.901 -0.784094 0.316049 0.534144
76.6072 128.887 179.063 -0.547325 0.560182 0.621797
76.0894 128.562 178.901 -0.547325 0.560182 0.621797
76.2564 128.244 179.334 -0.547325 0.560182 0.621797
76.6072 128.887 179.063 -0.374213 0.525609 0.764003
76.2564 128.244 179.334 -0.374213 0.525609 0.764003
77.1609 128.925 179.309 -0.374213 0.525609 0.764003
77.1609 128.925 179.309 -0.292127 0.420056 0.859194
76.2564 128.244 179.334 -0.292127 0.420056 0.859194
76.9387 128.024 179.674 -0.292127 0.420056 0.859194
77.8167 128.959 180.027 -0.597744 -0.338685 0.726632
78.0382 128.24 179.874 -0.597744 -0.338685 0.726632
78.0411 128.757 180.118 -0.597744 -0.338685 0.726632
77.8167 128.959 180.027 -0.684338 -0.347225 0.641183
77.1609 128.925 179.309 -0.684338 -0.347225 0.641183
78.0382 128.24 179.874 -0.684338 -0.347225 0.641183
77.1609 128.925 179.309 -0.241608 0.414891 0.877207
76.9387 128.024 179.674 -0.241608 0.414891 0.877207
78.0382 128.24 179.874 -0.241608 0.414891 0.877207
78.0921 128.987 179.924 0.960141 -0.0870944 0.265601
78.0382 128.24 179.874 0.960141 -0.0870944 0.265601
78.3234 128.82 179.033 0.960141 -0.0870944 0.265601
78.0921 128.987 179.924 0.983392 -0.0818485 0.161989
78.0411 128.757 180.118 0.983392 -0.0818485 0.161989
78.0382 128.24 179.874 0.983392 -0.0818485 0.161989
78.3234 128.82 179.033 0.341398 0.71574 0.609232
78.0382 128.24 179.874 0.341398 0.71574 0.609232
78.9633 128.238 179.359 0.341398 0.71574 0.609232
78.5726 127.799 180.083 -0.122788 0.298937 0.94634
78.9422 128.126 180.028 -0.122788 0.298937 0.94634
78.0382 128.24 179.874 -0.122788 0.298937 0.94634
78.9633 128.238 179.359 0.0955017 0.981363 0.166749
78.0382 128.24 179.874 0.0955017 0.981363 0.166749
78.9422 128.126 180.028 0.0955017 0.981363 0.166749
79.1743 127.981 179.923 0.841872 0.534937 -0.0713678
79.211 127.83 179.222 0.841872 0.534937 -0.0713678
78.9633 128.238 179.359 0.841872 0.534937 -0.0713678
78.9422 128.126 180.028 0.572623 0.805517 0.152462
79.1743 127.981 179.923 0.572623 0.805517 0.152462
78.9633 128.238 179.359 0.572623 0.805517 0.152462
77.1609 128.925 179.309 -0.56738 0.664207 0.486734
77.8167 128.959 180.027 -0.56738 0.664207 0.486734
77.9147 129.12 179.921 -0.56738 0.664207 0.486734
77.1609 128.925 179.309 -0.266731 0.963537 0.0212219
77.9147 129.12 179.921 -0.266731 0.963537 0.0212219
77.896 129.131 179.17 -0.266731 0.963537 0.0212219
78.0921 128.987 179.924 0.589433 0.807816 0.00155164
78.3234 128.82 179.033 0.589433 0.807816 0.00155164
77.896 129.131 179.17 0.589433 0.807816 0.00155164
77.9147 129.12 179.921 0.600293 0.799775 -0.00281006
78.0921 128.987 179.924 0.600293 0.799775 -0.00281006
77.896 129.131 179.17 0.600293 0.799775 -0.00281006
79.0286 127.239 179.857 -0.014647 -0.384537 0.922993
79.0532 127.928 180.144 -0.014647 -0.384537 0.922993
78.5726 127.799 180.083 -0.014647 -0.384537 0.922993
78.6834 127.105 179.952 0.310749 -0.127433 0.941911
79.0286 127.239 179.857 0.310749 -0.127433 0.941911
78.5726 127.799 180.083 0.310749 -0.127433 0.941911
79.0286 127.239 179.857 0.878045 -0.210701 0.4297
79.1743 127.981 179.923 0.878045 -0.210701 0.4297
79.0532 127.928 180.144 0.878045 -0.210701 0.4297
78.0411 128.757 180.118 -0.434051 -0.0797107 0.897355
78.0291 129.054 180.138 -0.434051 -0.0797107 0.897355
77.8167 128.959 180.027 -0.434051 -0.0797107 0.897355
78.9422 128.126 180.028 -0.219651 0.399016 0.890247
78.5726 127.799 180.083 -0.219651 0.399016 0.890247
79.0532 127.928 180.144 -0.219651 0.399016 0.890247
78.0921 128.987 179.924 0.960744 0.0197575 0.276731
78.0291 129.054 180.138 0.960744 0.0197575 0.276731
78.0411 128.757 180.118 0.960744 0.0197575 0.276731
79.1743 127.981 179.923 0.610609 0.625874 0.48522
78.9422 128.126 180.028 0.610609 0.625874 0.48522
79.0532 127.928 180.144 0.610609 0.625874 0.48522
77.8167 128.959 180.027 -0.557454 0.664957 0.497069
78.0291 129.054 180.138 -0.557454 0.664957 0.497069
77.9147 129.12 179.921 -0.557454 0.664957 0.497069
78.0921 128.987 179.924 0.599494 0.797101 -0.0723683
77.9147 129.12 179.921 0.599494 0.797101 -0.0723683
78.0291 129.054 180.138 0.599494 0.797101 -0.0723683
3 0 1 2
3 3 4 5
3 6 7 8
3 9 10 11
3 12 13 14
3 15 16 17
3 18 19 20
3 21 22 23
3 24 25 26
3 27 28 29
3 30 31 32
3 33 34 35
3 36 37 38
3 39 40 41
3 42 43 44
3 45 46 47
3 48 49 50
3 51 52 53
3 54 55 56
3 57 58 59
3 60 61 62
3 63 64 65
3 66 67 68
3 69 70 71
3 72 73 74
3 75 76 77
3 78 79 80
3 81 82 83
3 84 85 86
3 87 88 89
3 90 91 92
3 93 94 95
3 96 97 98
3 99 100 101
3 102 103 104
3 105 106 107
3 108 109 110
3 111 112 113
3 114 115 116
3 117 118 119
3 120 121 122
3 123 124 125
3 126 127 128
3 129 130 131
3 132 133 134
3 135 136 137
3 138 139 140
3 141 142 143
3 144 145 146
3 147 148 149
3 150 151 152
3 153 154 155
3 156 157 158
3 159 160 161
3 162 163 164
3 165 166 167
3 168 169 170
3 171 172 173
3 174 175 176
3 177 178 179
3 180 181 182
3 183 184 185
3 186 187 188
3 189 190 191
3 192 193 194
3 195 196 197
3 198 199 200
3 201 202 203
3 204 205 206
3 207 208 209
3 210 211 212
3 213 214 215
3 216 217 218
3 219 220 221
3 222 223 224
3 225 226 227
3 228 229 230
3 231 232 233
3 234 235 236
3 237 238 239
3 240 241 242
3 243 244 245
3 246 247 248
3 249 250 251
3 252 253 254
3 255 256 257
3 258 259 260
3 261 262 263
3 264 265 266
3 267 268 269
3 270 271 272
3 273 274 275
3 276 277 278
3 279 280 281
3 282 283 284
3 285 286 287
3 288 289 290
3 291 292 293
3 294 295 296
3 297 298 299
3 300 301 302
3 303 304 305
3 306 307 308
3 309 310 311
3 312 313 314
3 315 316 317
3 318 319 320
3 321 322 323
3 324 325 326
3 327 328 329
