ply
format ascii 1.0
element vertex 222
property float x
property float y
property float z
property float nx
property float ny
property float nz
element face 74
property list uint uint vertex_indices
end_header
116.825 109.597 171.979 -0.0816471 -0.408455 -0.90912
117.637 109.599 171.904 -0.0816471 -0.408455 -0.90912
117.624 109.105 172.128 -0.0816471 -0.408455 -0.90912
116.815 109.031 172.287 -0.128215 -0.472863 -0.871758
116.825 109.597 171.979 -0.128215 -0.472863 -0.871758
117.624 109.105 172.128 -0.128215 -0.472863 -0.871758
117.624 109.105 172.128 0.230548 -0.405594 -0.8845
117.637 109.599 171.904 0.230548 -0.405594 -0.8845
118.141 109.447 172.106 0.230548 -0.405594 -0.8845
116.469 110.404 172.246 -0.779179 -0.141348 -0.610656
116.774 110.301 171.88 -0.779179 -0.141348 -0.610656
116.825 109.597 171.979 -0.779179 -0.141348 -0.610656
117.637 109.599 171.904 -0.090333 -0.077907 -0.99286
116.825 109.597 171.979 -0.090333 -0.077907 -0.99286
117.411 110.306 171.87 -0.090333 -0.077907 -0.99286
117.411 110.306 171.87 -0.0158243 -0.13911 -0.990151
116.825 109.597 171.979 -0.0158243 -0.13911 -0.990151
116.774 110.301 171.88 -0.0158243 -0.13911 -0.990151
117.953 110.278 172.118 0.3955 0.102678 -0.912708
118.141 109.447 172.106 0.3955 0.102678 -0.912708
117.637 109.599 171.904 0.3955 0.102678 -0.912708
117.411 110.306 171.87 0.418376 0.0892491 -0.903878
117.953 110.278 172.118 0.418376 0.0892491 -0.903878
117.637 109.599 171.904 0.418376 0.0892491 -0.903878
116.774 110.301 171.88 -0.600373 0.482889 -0.637472
116.469 110.404 172.246 -0.600373 0.482889 -0.637472
116.902 110.706 172.066 -0.600373 0.482889 -0.637472
117.411 110.306 171.87 -0.0182878 0.421955 -0.906432
116.774 110.301 171.88 -0.0182878 0.421955 -0.906432
116.902 110.706 172.066 -0.0182878 0.421955 -0.906432
117.583 110.96 172.109 -0.0754294 0.360691 -0.92963
117.411 110.306 171.87 -0.0754294 0.360691 -0.92963
116.902 110.706 172.066 -0.0754294 0.360691 -0.92963
117.953 110.278 172.118 0.41553 0.214684 -0.883881
117.411 110.306 171.87 0.41553 0.214684 -0.883881
117.583 110.96 172.109 0.41553 0.214684 -0.883881
116.815 109.031 172.287 -0.640077 -0.764468 -0.0767499
116.783 108.977 173.094 -0.640077 -0.764468 -0.0767499
116.183 109.513 172.753 -0.640077 -0.764468 -0.0767499
116.825 109.597 171.979 -0.709769 -0.327332 -0.623764
116.815 109.031 172.287 -0.709769 -0.327332 -0.623764
116.183 109.513 172.753 -0.709769 -0.327332 -0.623764
117.624 109.105 172.128 0.0086956 -0.922667 -0.3855
117.558 108.814 172.824 0.0086956 -0.922667 -0.3855
116.815 109.031 172.287 0.0086956 -0.922667 -0.3855
116.815 109.031 172.287 -0.229899 -0.970352 -0.0745935
117.558 108.814 172.824 -0.229899 -0.970352 -0.0745935
116.783 108.977 173.094 -0.229899 -0.970352 -0.0745935
118.141 109.447 172.106 0.625822 -0.603429 -0.494187
118.568 109.596 172.465 0.625822 -0.603429 -0.494187
118.41 109.118 172.848 0.625822 -0.603429 -0.494187
118.141 109.447 172.106 0.464852 -0.734821 -0.493913
118.41 109.118 172.848 0.464852 -0.734821 -0.493913
117.624 109.105 172.128 0.464852 -0.734821 -0.493913
117.624 109.105 172.128 0.32515 -0.882881 -0.338819
118.41 109.118 172.848 0.32515 -0.882881 -0.338819
117.558 108.814 172.824 0.32515 -0.882881 -0.338819
118.41 109.118 172.848 0.84198 -0.478399 -0.249408
118.568 109.596 172.465 0.84198 -0.478399 -0.249408
118.734 109.599 173.018 0.84198 -0.478399 -0.249408
116.825 109.597 171.979 -0.757589 -0.1217 -0.641286
116.183 109.513 172.753 -0.757589 -0.1217 -0.641286
116.469 110.404 172.246 -0.757589 -0.1217 -0.641286
116.183 109.513 172.753 -0.902589 0.0462198 -0.428014
116.09 110.27 173.03 -0.902589 0.0462198 -0.428014
116.469 110.404 172.246 -0.902589 0.0462198 -0.428014
118.568 109.596 172.465 0.714245 0.329442 -0.617513
117.953 110.278 172.118 0.714245 0.329442 -0.617513
118.574 110.268 172.83 0.714245 0.329442 -0.617513
118.141 109.447 172.106 0.605703 0.148127 -0.781782
117.953 110.278 172.118 0.605703 0.148127 -0.781782
118.568 109.596 172.465 0.605703 0.148127 -0.781782
118.574 110.268 172.83 0.947293 0.146587 -0.284865
118.734 109.599 173.018 0.947293 0.146587 -0.284865
118.568 109.596 172.465 0.947293 0.146587 -0.284865
116.728 111.173 172.654 -0.610348 0.522041 -0.595776
116.902 110.706 172.066 -0.610348 0.522041 -0.595776
116.469 110.404 172.246 -0.610348 0.522041 -0.595776
116.728 111.173 172.654 -0.825905 0.455066 -0.332861
116.469 110.404 172.246 -0.825905 0.455066 -0.332861
116.52 111.059 173.015 -0.825905 0.455066 -0.332861
116.52 111.059 173.015 -0.832925 0.447318 -0.325796
116.469 110.404 172.246 -0.832925 0.447318 -0.325796
116.09 110.27 173.03 -0.832925 0.447318 -0.325796
116.902 110.706 172.066 -0.247751 0.766208 -0.592912
117.406 111.263 172.575 -0.247751 0.766208 -0.592912
117.583 110.96 172.109 -0.247751 0.766208 -0.592912
116.728 111.173 172.654 -0.173222 0.745312 -0.64382
117.406 111.263 172.575 -0.173222 0.745312 -0.64382
116.902 110.706 172.066 -0.173222 0.745312 -0.64382
117.583 110.96 172.109 0.511603 0.796195 -0.323011
117.406 111.263 172.575 0.511603 0.796195 -0.323011
117.901 111.029 172.784 0.511603 0.796195 -0.323011
117.953 110.278 172.118 0.79939 0.429117 -0.420516
117.583 110.96 172.109 0.79939 0.429117 -0.420516
117.901 111.029 172.784 0.79939 0.429117 -0.420516
117.953 110.278 172.118 0.641379 0.533899 -0.550985
117.901 111.029 172.784 0.641379 0.533899 -0.550985
118.574 110.268 172.83 0.641379 0.533899 -0.550985
116.728 111.173 172.654 -0.659526 0.737082 -0.147432
116.52 111.059 173.015 -0.659526 0.737082 -0.147432
116.868 111.351 172.914 -0.659526 0.737082 -0.147432
117.406 111.263 172.575 -0.169783 0.853963 -0.491854
116.728 111.173 172.654 -0.169783 0.853963 -0.491854
116.868 111.351 172.914 -0.169783 0.853963 -0.491854
117.658 111.15 173.179 0.216906 0.972064 0.0896853
117.406 111.263 172.575 0.216906 0.972064 0.0896853
116.868 111.351 172.914 0.216906 0.972064 0.0896853
117.901 111.029 172.784 0.430341 0.90258 -0.0124716
117.406 111.263 172.575 0.430341 0.90258 -0.0124716
117.658 111.15 173.179 0.430341 0.90258 -0.0124716
116.783 108.977 173.094 -0.650597 -0.66874 0.359876
116.892 109.263 173.824 -0.650597 -0.66874 0.359876
116.499 109.538 173.625 -0.650597 -0.66874 0.359876
116.183 109.513 172.753 -0.723534 -0.630652 0.280671
116.783 108.977 173.094 -0.723534 -0.630652 0.280671
116.499 109.538 173.625 -0.723534 -0.630652 0.280671
117.558 108.814 172.824 -0.0677143 -0.928329 0.36554
117.731 109.127 173.651 -0.0677143 -0.928329 0.36554
116.783 108.977 173.094 -0.0677143 -0.928329 0.36554
116.783 108.977 173.094 -0.0731944 -0.924591 0.373863
117.731 109.127 173.651 -0.0731944 -0.924591 0.373863
116.892 109.263 173.824 -0.0731944 -0.924591 0.373863
118.553 109.46 173.535 0.356958 -0.644235 0.676418
118.237 109.662 173.893 0.356958 -0.644235 0.676418
117.731 109.127 173.651 0.356958 -0.644235 0.676418
118.553 109.46 173.535 0.394477 -0.852486 0.343008
117.731 109.127 173.651 0.394477 -0.852486 0.343008
118.41 109.118 172.848 0.394477 -0.852486 0.343008
118.41 109.118 172.848 0.316233 -0.907251 0.277294
117.731 109.127 173.651 0.316233 -0.907251 0.277294
117.558 108.814 172.824 0.316233 -0.907251 0.277294
118.41 109.118 172.848 0.802473 -0.583614 0.124224
118.734 109.599 173.018 0.802473 -0.583614 0.124224
118.553 109.46 173.535 0.802473 -0.583614 0.124224
116.183 109.513 172.753 -0.911502 -0.235043 0.337518
116.499 109.538 173.625 -0.911502 -0.235043 0.337518
116.09 110.27 173.03 -0.911502 -0.235043 0.337518
116.499 109.538 173.625 -0.783524 0.0647374 0.61798
116.67 110.356 173.756 -0.783524 0.0647374 0.61798
116.09 110.27 173.03 -0.783524 0.0647374 0.61798
118.511 110.308 173.52 0.762864 0.0487483 0.644719
118.237 109.662 173.893 0.762864 0.0487483 0.644719
118.553 109.46 173.535 0.762864 0.0487483 0.644719
118.214 110.432 173.816 0.721317 0.0904901 0.686669
118.237 109.662 173.893 0.721317 0.0904901 0.686669
118.511 110.308 173.52 0.721317 0.0904901 0.686669
118.734 109.599 173.018 0.965014 0.251594 0.0738149
118.574 110.268 172.83 0.965014 0.251594 0.0738149
118.511 110.308 173.52 0.965014 0.251594 0.0738149
118.553 109.46 173.535 0.937932 0.0524323 0.342834
118.734 109.599 173.018 0.937932 0.0524323 0.342834
118.511 110.308 173.52 0.937932 0.0524323 0.342834
116.757 110.763 173.638 -0.571186 0.635629 0.519347
116.875 111.212 173.219 -0.571186 0.635629 0.519347
116.52 111.059 173.015 -0.571186 0.635629 0.519347
116.757 110.763 173.638 -0.829583 0.311374 0.463506
116.52 111.059 173.015 -0.829583 0.311374 0.463506
116.67 110.356 173.756 -0.829583 0.311374 0.463506
116.67 110.356 173.756 -0.735408 0.410838 0.538876
116.52 111.059 173.015 -0.735408 0.410838 0.538876
116.09 110.27 173.03 -0.735408 0.410838 0.538876
116.875 111.212 173.219 0.0926718 0.803694 0.587782
117.443 110.75 173.76 0.0926718 0.803694 0.587782
117.658 111.15 173.179 0.0926718 0.803694 0.587782
116.757 110.763 173.638 -0.113629 0.694147 0.710808
117.443 110.75 173.76 -0.113629 0.694147 0.710808
116.875 111.212 173.219 -0.113629 0.694147 0.710808
118.214 110.432 173.816 0.264138 0.745885 0.611463
117.658 111.15 173.179 0.264138 0.745885 0.611463
117.443 110.75 173.76 0.264138 0.745885 0.611463
118.511 110.308 173.52 0.606207 0.735897 0.30161
117.658 111.15 173.179 0.606207 0.735897 0.30161
118.214 110.432 173.816 0.606207 0.735897 0.30161
118.511 110.308 173.52 0.65487 0.73469 0.177133
117.901 111.029 172.784 0.65487 0.73469 0.177133
117.658 111.15 173.179 0.65487 0.73469 0.177133
118.511 110.308 173.52 0.748023 0.663007 0.0297241
118.574 110.268 172.83 0.748023 0.663007 0.0297241
117.901 111.029 172.784 0.748023 0.663007 0.0297241
116.52 111.059 173.015 -0.535263 0.763537 0.361255
116.875 111.212 173.219 -0.535263 0.763537 0.361255
116.868 111.351 172.914 -0.535263 0.763537 0.361255
117.658 111.15 173.179 0.0918104 0.906152 0.412866
116.868 111.351 172.914 0.0918104 0.906152 0.412866
116.875 111.212 173.219 0.0918104 0.906152 0.412866
116.892 109.263 173.824 -0.616205 -0.382353 0.688548
116.868 109.616 173.998 -0.616205 -0.382353 0.688548
116.499 109.538 173.625 -0.616205 -0.382353 0.688548
116.892 109.263 173.824 0.0120639 -0.756702 0.653649
117.731 109.127 173.651 0.0120639 -0.756702 0.653649
117.543 109.476 174.058 0.0120639 -0.756702 0.653649
116.868 109.616 173.998 -0.170465 -0.445673 0.878816
116.892 109.263 173.824 -0.170465 -0.445673 0.878816
117.543 109.476 174.058 -0.170465 -0.445673 0.878816
117.731 109.127 173.651 0.335912 -0.63361 0.696923
118.237 109.662 173.893 0.335912 -0.63361 0.696923
117.543 109.476 174.058 0.335912 -0.63361 0.696923
116.499 109.538 173.625 -0.714696 0.0375586 0.698426
116.868 109.616 173.998 -0.714696 0.0375586 0.698426
116.67 110.356 173.756 -0.714696 0.0375586 0.698426
117.543 109.476 174.058 -0.0831289 0.0247033 0.996233
117.594 110.166 174.045 -0.0831289 0.0247033 0.996233
116.868 109.616 173.998 -0.0831289 0.0247033 0.996233
117.594 110.166 174.045 -0.244357 0.242627 0.938841
116.67 110.356 173.756 -0.244357 0.242627 0.938841
116.868 109.616 173.998 -0.244357 0.242627 0.938841
118.237 109.662 173.893 0.305923 0.104084 0.94635
118.214 110.432 173.816 0.305923 0.104084 0.94635
117.594 110.166 174.045 0.305923 0.104084 0.94635
117.543 109.476 174.058 0.231495 0.0011459 0.972836
118.237 109.662 173.893 0.231495 0.0011459 0.972836
117.594 110.166 174.045 0.231495 0.0011459 0.972836
117.443 110.75 173.76 -0.161197 0.305028 0.938602
116.757 110.763 173.638 -0.161197 0.305028 0.938602
116.67 110.356 173.756 -0.161197 0.305028 0.938602
117.594 110.166 174.045 -0.202553 0.386542 0.899754
117.443 110.75 173.76 -0.202553 0.386542 0.899754
116.67 110.356 173.756 -0.202553 0.386542 0.899754
118.214 110.432 173.816 0.127372 0.46129 0.878059
117.443 110.75 173.76 0.127372 0.46129 0.878059
117.594 110.166 174.045 0.127372 0.46129 0.878059
3 0 1 2
3 3 4 5
3 6 7 8
3 9 10 11
3 12 13 14
3 15 16 17
3 18 19 20
3 21 22 23
3 24 25 26
3 27 28 29
3 30 31 32
3 33 34 35
3 36 37 38
3 39 40 41
3 42 43 44
3 45 46 47
3 48 49 50
3 51 52 53
3 54 55 56
3 57 58 59
3 60 61 62
3 63 64 65
3 66 67 68
3 69 70 71
3 72 73 74
3 75 76 77
3 78 79 80
3 81 82 83
3 84 85 86
3 87 88 89
3 90 91 92
3 93 94 95
3 96 97 98
3 99 100 101
3 102 103 104
3 105 106 107
3 108 109 110
3 111 112 113
3 114 115 116
3 117 118 119
3 120 121 122
3 123 124 125
3 126 127 128
3 129 130 131
3 132 133 134
3 135 136 137
3 138 139 140
3 141 142 143
3 144 145 146
3 147 148 149
3 150 151 152
3 153 154 155
3 156 157 158
3 159 160 161
3 162 163 164
3 165 166 167
3 168 169 170
3 171 172 173
3 174 175 176
3 177 178 179
3 180 181 182
3 183 184 185
3 186 187 188
3 189 190 191
3 192 193 194
3 195 196 197
3 198 199 200
3 201 202 203
3 204 205 206
3 207 208 209
3 210 211 212
3 213 214 215
3 216 217 218
3 219 220 221
