ply
format ascii 1.0
element vertex 168
property float x
property float y
property float z
property float nx
property float ny
property float nz
element face 56
property list uint uint vertex_indices
end_header
116.644 111.85 169.794 -0.0538276 -0.252769 -0.966028
116.547 111.543 169.88 -0.0538276 -0.252769 -0.966028
116.242 111.678 169.862 -0.0538276 -0.252769 -0.966028
116.547 111.543 169.88 0.662836 -0.388983 -0.639798
116.644 111.85 169.794 0.662836 -0.388983 -0.639798
116.709 111.658 169.978 0.662836 -0.388983 -0.639798
115.878 112.451 169.738 -0.566364 -0.390412 -0.725817
115.793 111.939 170.079 -0.566364 -0.390412 -0.725817
115.501 112.641 169.929 -0.566364 -0.390412 -0.725817
116.242 111.678 169.862 -0.574191 -0.386425 -0.721789
115.793 111.939 170.079 -0.574191 -0.386425 -0.721789
115.878 112.451 169.738 -0.574191 -0.386425 -0.721789
116.242 111.678 169.862 -0.0805022 -0.194922 -0.97751
115.878 112.451 169.738 -0.0805022 -0.194922 -0.97751
116.644 111.85 169.794 -0.0805022 -0.194922 -0.97751
116.644 111.85 169.794 -0.0606552 -0.170172 -0.983546
115.878 112.451 169.738 -0.0606552 -0.170172 -0.983546
116.578 112.516 169.683 -0.0606552 -0.170172 -0.983546
117.303 112.281 170.006 0.537625 -0.481275 -0.69234
116.709 111.658 169.978 0.537625 -0.481275 -0.69234
116.644 111.85 169.794 0.537625 -0.481275 -0.69234
117.303 112.281 170.006 0.498712 -0.378861 -0.779584
116.644 111.85 169.794 0.498712 -0.378861 -0.779584
117.206 112.604 169.787 0.498712 -0.378861 -0.779584
117.206 112.604 169.787 0.181241 -0.144272 -0.972799
116.644 111.85 169.794 0.181241 -0.144272 -0.972799
116.578 112.516 169.683 0.181241 -0.144272 -0.972799
115.667 113.251 169.766 -0.490374 -0.0993923 -0.865826
115.878 112.451 169.738 -0.490374 -0.0993923 -0.865826
115.501 112.641 169.929 -0.490374 -0.0993923 -0.865826
115.482 113.307 170.09 -0.857501 0.097378 -0.505183
115.667 113.251 169.766 -0.857501 0.097378 -0.505183
115.501 112.641 169.929 -0.857501 0.097378 -0.505183
116.578 112.516 169.683 -0.0811522 0.0384025 -0.995962
115.878 112.451 169.738 -0.0811522 0.0384025 -0.995962
116.437 113.245 169.723 -0.0811522 0.0384025 -0.995962
116.437 113.245 169.723 -0.0553513 0.0201903 -0.998263
115.878 112.451 169.738 -0.0553513 0.0201903 -0.998263
115.667 113.251 169.766 -0.0553513 0.0201903 -0.998263
116.85 113.289 169.912 0.642955 0.448194 -0.621072
117.345 112.75 170.036 0.642955 0.448194 -0.621072
117.206 112.604 169.787 0.642955 0.448194 -0.621072
116.85 113.289 169.912 0.361045 0.346278 -0.865874
117.206 112.604 169.787 0.361045 0.346278 -0.865874
116.437 113.245 169.723 0.361045 0.346278 -0.865874
116.437 113.245 169.723 0.151496 0.0827896 -0.984985
117.206 112.604 169.787 0.151496 0.0827896 -0.984985
116.578 112.516 169.683 0.151496 0.0827896 -0.984985
117.303 112.281 170.006 0.884396 -0.0491629 -0.46414
117.206 112.604 169.787 0.884396 -0.0491629 -0.46414
117.345 112.75 170.036 0.884396 -0.0491629 -0.46414
115.667 113.251 169.766 -0.580025 0.680243 -0.448152
115.482 113.307 170.09 -0.580025 0.680243 -0.448152
115.837 113.539 169.983 -0.580025 0.680243 -0.448152
116.437 113.245 169.723 -0.0389307 0.616446 -0.786434
115.667 113.251 169.766 -0.0389307 0.616446 -0.786434
115.837 113.539 169.983 -0.0389307 0.616446 -0.786434
116.476 113.55 169.938 -0.0675522 0.580323 -0.81158
116.437 113.245 169.723 -0.0675522 0.580323 -0.81158
115.837 113.539 169.983 -0.0675522 0.580323 -0.81158
116.85 113.289 169.912 0.309685 0.521476 -0.795084
116.437 113.245 169.723 0.309685 0.521476 -0.795084
116.476 113.55 169.938 0.309685 0.521476 -0.795084
116.547 111.543 169.88 -0.406258 -0.913758 5.86161e-05
116.451 111.586 170.147 -0.406258 -0.913758 5.86161e-05
116.242 111.678 169.862 -0.406258 -0.913758 5.86161e-05
116.547 111.543 169.88 0.42982 -0.854592 0.291424
116.709 111.658 169.978 0.42982 -0.854592 0.291424
116.451 111.586 170.147 0.42982 -0.854592 0.291424
115.793 111.939 170.079 -0.839734 -0.497727 0.217061
115.814 112.195 170.749 -0.839734 -0.497727 0.217061
115.523 112.605 170.561 -0.839734 -0.497727 0.217061
115.501 112.641 169.929 -0.924084 -0.382066 0.00971387
115.793 111.939 170.079 -0.924084 -0.382066 0.00971387
115.523 112.605 170.561 -0.924084 -0.382066 0.00971387
116.451 111.586 170.147 -0.477599 -0.876219 0.0643455
115.793 111.939 170.079 -0.477599 -0.876219 0.0643455
116.242 111.678 169.862 -0.477599 -0.876219 0.0643455
116.451 111.586 170.147 -0.40725 -0.630603 0.660672
116.642 111.923 170.587 -0.40725 -0.630603 0.660672
115.793 111.939 170.079 -0.40725 -0.630603 0.660672
116.642 111.923 170.587 -0.229313 -0.906552 0.35437
115.814 112.195 170.749 -0.229313 -0.906552 0.35437
115.793 111.939 170.079 -0.229313 -0.906552 0.35437
116.709 111.658 169.978 0.47767 -0.785079 0.394311
116.642 111.923 170.587 0.47767 -0.785079 0.394311
116.451 111.586 170.147 0.47767 -0.785079 0.394311
116.709 111.658 169.978 0.668014 -0.652569 0.357645
117.303 112.281 170.006 0.668014 -0.652569 0.357645
116.642 111.923 170.587 0.668014 -0.652569 0.357645
117.303 112.281 170.006 0.675556 -0.632773 0.378449
117.271 112.613 170.618 0.675556 -0.632773 0.378449
116.642 111.923 170.587 0.675556 -0.632773 0.378449
115.501 112.641 169.929 -0.998807 -0.0368667 0.0320137
115.523 112.605 170.561 -0.998807 -0.0368667 0.0320137
115.482 113.307 170.09 -0.998807 -0.0368667 0.0320137
115.523 112.605 170.561 -0.99576 0.00350246 0.0919276
115.539 113.274 170.707 -0.99576 0.00350246 0.0919276
115.482 113.307 170.09 -0.99576 0.00350246 0.0919276
117.345 112.75 170.036 0.684976 0.685335 0.247232
116.529 113.39 170.521 0.684976 0.685335 0.247232
117.271 112.613 170.618 0.684976 0.685335 0.247232
116.85 113.289 169.912 0.684848 0.685727 0.2465
116.529 113.39 170.521 0.684848 0.685727 0.2465
117.345 112.75 170.036 0.684848 0.685727 0.2465
117.271 112.613 170.618 0.990243 -0.0944938 0.102415
117.303 112.281 170.006 0.990243 -0.0944938 0.102415
117.345 112.75 170.036 0.990243 -0.0944938 0.102415
115.482 113.307 170.09 -0.811978 0.574082 0.105454
115.539 113.274 170.707 -0.811978 0.574082 0.105454
115.678 113.495 170.576 -0.811978 0.574082 0.105454
115.837 113.539 169.983 -0.563805 0.820966 -0.090213
115.482 113.307 170.09 -0.563805 0.820966 -0.090213
115.678 113.495 170.576 -0.563805 0.820966 -0.090213
116.476 113.55 169.938 0.00143548 0.964494 0.264101
115.837 113.539 169.983 0.00143548 0.964494 0.264101
116.529 113.39 170.521 0.00143548 0.964494 0.264101
115.837 113.539 169.983 0.127769 0.985942 0.107671
115.678 113.495 170.576 0.127769 0.985942 0.107671
116.529 113.39 170.521 0.127769 0.985942 0.107671
116.529 113.39 170.521 0.57248 0.802572 0.167763
116.85 113.289 169.912 0.57248 0.802572 0.167763
116.476 113.55 169.938 0.57248 0.802572 0.167763
115.814 112.195 170.749 -0.770288 -0.28733 0.569296
115.761 112.738 170.95 -0.770288 -0.28733 0.569296
115.523 112.605 170.561 -0.770288 -0.28733 0.569296
115.814 112.195 170.749 -0.0617472 -0.641291 0.764809
116.642 111.923 170.587 -0.0617472 -0.641291 0.764809
116.463 112.484 171.043 -0.0617472 -0.641291 0.764809
115.761 112.738 170.95 -0.248668 -0.358993 0.899604
115.814 112.195 170.749 -0.248668 -0.358993 0.899604
116.463 112.484 171.043 -0.248668 -0.358993 0.899604
116.642 111.923 170.587 0.722769 -0.666883 0.181305
117.271 112.613 170.618 0.722769 -0.666883 0.181305
117.125 112.519 170.857 0.722769 -0.666883 0.181305
116.463 112.484 171.043 0.252368 -0.560718 0.78861
116.642 111.923 170.587 0.252368 -0.560718 0.78861
117.125 112.519 170.857 0.252368 -0.560718 0.78861
115.761 112.738 170.95 -0.43166 0.218657 0.875134
115.806 113.363 170.816 -0.43166 0.218657 0.875134
115.539 113.274 170.707 -0.43166 0.218657 0.875134
115.523 112.605 170.561 -0.833429 -0.0987679 0.543729
115.761 112.738 170.95 -0.833429 -0.0987679 0.543729
115.539 113.274 170.707 -0.833429 -0.0987679 0.543729
116.463 112.484 171.043 -0.0353213 0.255572 0.966145
116.558 113.109 170.882 -0.0353213 0.255572 0.966145
115.761 112.738 170.95 -0.0353213 0.255572 0.966145
116.558 113.109 170.882 -0.0134473 0.210688 0.977461
115.806 113.363 170.816 -0.0134473 0.210688 0.977461
115.761 112.738 170.95 -0.0134473 0.210688 0.977461
117.271 112.613 170.618 0.614973 0.644265 0.454678
116.529 113.39 170.521 0.614973 0.644265 0.454678
116.558 113.109 170.882 0.614973 0.644265 0.454678
117.271 112.613 170.618 0.59725 0.550197 0.583589
116.558 113.109 170.882 0.59725 0.550197 0.583589
117.125 112.519 170.857 0.59725 0.550197 0.583589
117.125 112.519 170.857 0.255559 0.206082 0.944574
116.558 113.109 170.882 0.255559 0.206082 0.944574
116.463 112.484 171.043 0.255559 0.206082 0.944574
115.539 113.274 170.707 -0.4638 0.6491 0.602958
115.806 113.363 170.816 -0.4638 0.6491 0.602958
115.678 113.495 170.576 -0.4638 0.6491 0.602958
116.529 113.39 170.521 0.136963 0.8977 0.418778
115.678 113.495 170.576 0.136963 0.8977 0.418778
115.806 113.363 170.816 0.136963 0.8977 0.418778
116.558 113.109 170.882 0.212051 0.777805 0.591654
116.529 113.39 170.521 0.212051 0.777805 0.591654
115.806 113.363 170.816 0.212051 0.777805 0.591654
3 0 1 2
3 3 4 5
3 6 7 8
3 9 10 11
3 12 13 14
3 15 16 17
3 18 19 20
3 21 22 23
3 24 25 26
3 27 28 29
3 30 31 32
3 33 34 35
3 36 37 38
3 39 40 41
3 42 43 44
3 45 46 47
3 48 49 50
3 51 52 53
3 54 55 56
3 57 58 59
3 60 61 62
3 63 64 65
3 66 67 68
3 69 70 71
3 72 73 74
3 75 76 77
3 78 79 80
3 81 82 83
3 84 85 86
3 87 88 89
3 90 91 92
3 93 94 95
3 96 97 98
3 99 100 101
3 102 103 104
3 105 106 107
3 108 109 110
3 111 112 113
3 114 115 116
3 117 118 119
3 120 121 122
3 123 124 125
3 126 127 128
3 129 130 131
3 132 133 134
3 135 136 137
3 138 139 140
3 141 142 143
3 144 145 146
3 147 148 149
3 150 151 152
3 153 154 155
3 156 157 158
3 159 160 161
3 162 163 164
3 165 166 167
