ply
format ascii 1.0
element vertex 192
property float x
property float y
property float z
property float nx
property float ny
property float nz
element face 64
property list uint uint vertex_indices
end_header
71.8776 124.232 181.157 -0.568891 -0.758177 -0.318638
71.6893 124.229 181.5 -0.568891 -0.758177 -0.318638
71.5413 124.391 181.378 -0.568891 -0.758177 -0.318638
71.8776 124.232 181.157 -0.0944222 -0.959476 -0.265501
72.7887 124.209 180.915 -0.0944222 -0.959476 -0.265501
72.5418 124.077 181.479 -0.0944222 -0.959476 -0.265501
71.6893 124.229 181.5 -0.17662 -0.978635 -0.105254
71.8776 124.232 181.157 -0.17662 -0.978635 -0.105254
72.5418 124.077 181.479 -0.17662 -0.978635 -0.105254
72.7887 124.209 180.915 0.314603 -0.57872 -0.752402
73.5265 124.236 181.203 0.314603 -0.57872 -0.752402
73.3995 124.0 181.331 0.314603 -0.57872 -0.752402
72.5418 124.077 181.479 -0.133972 -0.950401 -0.280693
72.7887 124.209 180.915 -0.133972 -0.950401 -0.280693
73.3995 124.0 181.331 -0.133972 -0.950401 -0.280693
73.3995 124.0 181.331 0.598623 -0.606742 -0.522986
73.5265 124.236 181.203 0.598623 -0.606742 -0.522986
73.667 124.123 181.494 0.598623 -0.606742 -0.522986
71.7517 124.981 181.183 -0.570373 -0.0674366 -0.818613
71.8776 124.232 181.157 -0.570373 -0.0674366 -0.818613
71.5413 124.391 181.378 -0.570373 -0.0674366 -0.818613
71.5124 125.073 181.479 -0.767386 0.0625589 -0.638126
71.7517 124.981 181.183 -0.767386 0.0625589 -0.638126
71.5413 124.391 181.378 -0.767386 0.0625589 -0.638126
72.7887 124.209 180.915 -0.254697 -0.234695 -0.938108
71.8776 124.232 181.157 -0.254697 -0.234695 -0.938108
72.4882 124.882 180.828 -0.254697 -0.234695 -0.938108
72.4882 124.882 180.828 -0.43782 -0.0424184 -0.898062
71.8776 124.232 181.157 -0.43782 -0.0424184 -0.898062
71.7517 124.981 181.183 -0.43782 -0.0424184 -0.898062
73.5265 124.236 181.203 0.361877 0.0385897 -0.931427
72.7887 124.209 180.915 0.361877 0.0385897 -0.931427
73.3229 125.015 181.156 0.361877 0.0385897 -0.931427
73.3229 125.015 181.156 0.359511 0.0404081 -0.932265
72.7887 124.209 180.915 0.359511 0.0404081 -0.932265
72.4882 124.882 180.828 0.359511 0.0404081 -0.932265
73.6695 124.78 181.463 0.896767 -0.0241848 -0.441841
73.667 124.123 181.494 0.896767 -0.0241848 -0.441841
73.5265 124.236 181.203 0.896767 -0.0241848 -0.441841
73.3229 125.015 181.156 0.709389 0.143925 -0.689966
73.6695 124.78 181.463 0.709389 0.143925 -0.689966
73.5265 124.236 181.203 0.709389 0.143925 -0.689966
71.7517 124.981 181.183 -0.744429 0.157486 -0.648863
71.5124 125.073 181.479 -0.744429 0.157486 -0.648863
71.7056 125.605 181.387 -0.744429 0.157486 -0.648863
71.7056 125.605 181.387 -0.250934 0.595588 -0.76309
71.9854 125.943 181.559 -0.250934 0.595588 -0.76309
72.4783 125.7 181.207 -0.250934 0.595588 -0.76309
71.7056 125.605 181.387 -0.25059 0.284557 -0.925328
72.4783 125.7 181.207 -0.25059 0.284557 -0.925328
71.7517 124.981 181.183 -0.25059 0.284557 -0.925328
71.7517 124.981 181.183 -0.356279 0.388773 -0.849659
72.4783 125.7 181.207 -0.356279 0.388773 -0.849659
72.4882 124.882 180.828 -0.356279 0.388773 -0.849659
73.0452 125.793 181.377 0.555945 0.405079 -0.725835
73.4779 125.398 181.489 0.555945 0.405079 -0.725835
73.3229 125.015 181.156 0.555945 0.405079 -0.725835
73.0452 125.793 181.377 0.219619 0.33883 -0.914856
73.3229 125.015 181.156 0.219619 0.33883 -0.914856
72.4783 125.7 181.207 0.219619 0.33883 -0.914856
72.4783 125.7 181.207 0.276947 0.406203 -0.870804
73.3229 125.015 181.156 0.276947 0.406203 -0.870804
72.4882 124.882 180.828 0.276947 0.406203 -0.870804
73.6695 124.78 181.463 0.732244 0.252705 -0.632423
73.3229 125.015 181.156 0.732244 0.252705 -0.632423
73.4779 125.398 181.489 0.732244 0.252705 -0.632423
72.4783 125.7 181.207 -0.140348 0.711657 -0.688365
71.9854 125.943 181.559 -0.140348 0.711657 -0.688365
72.5828 126.002 181.498 -0.140348 0.711657 -0.688365
73.0452 125.793 181.377 0.111543 0.669137 -0.73472
72.4783 125.7 181.207 0.111543 0.669137 -0.73472
72.5828 126.002 181.498 0.111543 0.669137 -0.73472
73.435 124.053 182.026 -0.0759097 -0.993961 0.0792463
72.5418 124.077 181.479 -0.0759097 -0.993961 0.0792463
73.3995 124.0 181.331 -0.0759097 -0.993961 0.0792463
73.435 124.053 182.026 0.393793 -0.917865 0.049496
73.3995 124.0 181.331 0.393793 -0.917865 0.049496
73.667 124.123 181.494 0.393793 -0.917865 0.049496
73.673 124.311 182.127 0.679524 -0.705201 0.202336
73.435 124.053 182.026 0.679524 -0.705201 0.202336
73.667 124.123 181.494 0.679524 -0.705201 0.202336
71.6893 124.229 181.5 -0.567456 -0.58408 0.580383
71.8794 124.722 182.182 -0.567456 -0.58408 0.580383
71.517 124.904 182.011 -0.567456 -0.58408 0.580383
71.6893 124.229 181.5 -0.808067 -0.472485 0.351832
71.517 124.904 182.011 -0.808067 -0.472485 0.351832
71.5413 124.391 181.378 -0.808067 -0.472485 0.351832
71.5413 124.391 181.378 -0.999124 -0.0415864 -0.00468154
71.517 124.904 182.011 -0.999124 -0.0415864 -0.00468154
71.5124 125.073 181.479 -0.999124 -0.0415864 -0.00468154
72.5418 124.077 181.479 -0.125147 -0.787122 0.603967
71.8794 124.722 182.182 -0.125147 -0.787122 0.603967
71.6893 124.229 181.5 -0.125147 -0.787122 0.603967
72.7197 124.518 182.27 -0.253372 -0.819947 0.513312
71.8794 124.722 182.182 -0.253372 -0.819947 0.513312
72.5418 124.077 181.479 -0.253372 -0.819947 0.513312
73.435 124.053 182.026 -0.337028 -0.788429 0.51458
72.7197 124.518 182.27 -0.337028 -0.788429 0.51458
72.5418 124.077 181.479 -0.337028 -0.788429 0.51458
73.667 124.123 181.494 0.999957 -0.00422426 -0.00825513
73.6695 124.78 181.463 0.999957 -0.00422426 -0.00825513
73.673 124.311 182.127 0.999957 -0.00422426 -0.00825513
73.673 124.311 182.127 0.973107 0.19058 0.129388
73.6695 124.78 181.463 0.973107 0.19058 0.129388
73.5185 125.117 182.102 0.973107 0.19058 0.129388
71.5124 125.073 181.479 -0.993142 0.108763 0.0428786
71.517 124.904 182.011 -0.993142 0.108763 0.0428786
71.5978 125.64 182.016 -0.993142 0.108763 0.0428786
71.7056 125.605 181.387 -0.934738 0.308113 -0.177006
71.5124 125.073 181.479 -0.934738 0.308113 -0.177006
71.5978 125.64 182.016 -0.934738 0.308113 -0.177006
71.5978 125.64 182.016 -0.718689 0.676625 -0.160201
71.9854 125.943 181.559 -0.718689 0.676625 -0.160201
71.7056 125.605 181.387 -0.718689 0.676625 -0.160201
71.8757 125.862 182.198 -0.621789 0.783149 -0.00748277
71.9854 125.943 181.559 -0.621789 0.783149 -0.00748277
71.5978 125.64 182.016 -0.621789 0.783149 -0.00748277
73.4779 125.398 181.489 0.716935 0.650512 0.250675
72.9018 125.841 181.988 0.716935 0.650512 0.250675
73.5185 125.117 182.102 0.716935 0.650512 0.250675
73.0452 125.793 181.377 0.657191 0.747599 0.095899
72.9018 125.841 181.988 0.657191 0.747599 0.095899
73.4779 125.398 181.489 0.657191 0.747599 0.095899
73.5185 125.117 182.102 0.953649 0.29244 0.070934
73.6695 124.78 181.463 0.953649 0.29244 0.070934
73.4779 125.398 181.489 0.953649 0.29244 0.070934
71.9854 125.943 181.559 -0.256659 0.963345 0.0780566
71.8757 125.862 182.198 -0.256659 0.963345 0.0780566
72.4422 126.025 182.058 -0.256659 0.963345 0.0780566
72.5828 126.002 181.498 -0.10437 0.992348 -0.0659734
71.9854 125.943 181.559 -0.10437 0.992348 -0.0659734
72.4422 126.025 182.058 -0.10437 0.992348 -0.0659734
72.9018 125.841 181.988 0.418049 0.908016 0.0272471
73.0452 125.793 181.377 0.418049 0.908016 0.0272471
72.5828 126.002 181.498 0.418049 0.908016 0.0272471
72.4422 126.025 182.058 0.378687 0.923705 0.0580128
72.9018 125.841 181.988 0.378687 0.923705 0.0580128
72.5828 126.002 181.498 0.378687 0.923705 0.0580128
73.435 124.053 182.026 0.584631 -0.699419 0.411121
73.673 124.311 182.127 0.584631 -0.699419 0.411121
73.3914 124.321 182.544 0.584631 -0.699419 0.411121
71.8794 124.722 182.182 -0.562273 -0.500272 0.658465
71.7899 125.227 182.489 -0.562273 -0.500272 0.658465
71.517 124.904 182.011 -0.562273 -0.500272 0.658465
71.8794 124.722 182.182 -0.245019 -0.734138 0.633251
72.7197 124.518 182.27 -0.245019 -0.734138 0.633251
72.615 124.942 182.722 -0.245019 -0.734138 0.633251
71.7899 125.227 182.489 -0.394172 -0.527671 0.752457
71.8794 124.722 182.182 -0.394172 -0.527671 0.752457
72.615 124.942 182.722 -0.394172 -0.527671 0.752457
72.7197 124.518 182.27 -0.40283 -0.826254 0.393742
73.435 124.053 182.026 -0.40283 -0.826254 0.393742
73.3914 124.321 182.544 -0.40283 -0.826254 0.393742
72.7197 124.518 182.27 -0.435268 -0.70417 0.560969
73.3914 124.321 182.544 -0.435268 -0.70417 0.560969
72.615 124.942 182.722 -0.435268 -0.70417 0.560969
72.615 124.942 182.722 0.334188 0.151647 0.930227
73.3914 124.321 182.544 0.334188 0.151647 0.930227
73.3952 124.902 182.448 0.334188 0.151647 0.930227
73.673 124.311 182.127 0.884742 0.183096 0.428612
73.5185 125.117 182.102 0.884742 0.183096 0.428612
73.3952 124.902 182.448 0.884742 0.183096 0.428612
73.3914 124.321 182.544 0.826587 0.0866444 0.556099
73.673 124.311 182.127 0.826587 0.0866444 0.556099
73.3952 124.902 182.448 0.826587 0.0866444 0.556099
71.517 124.904 182.011 -0.890787 0.094573 0.444471
71.7899 125.227 182.489 -0.890787 0.094573 0.444471
71.5978 125.64 182.016 -0.890787 0.094573 0.444471
71.8757 125.862 182.198 -0.697742 0.374678 0.610552
71.5978 125.64 182.016 -0.697742 0.374678 0.610552
71.7899 125.227 182.489 -0.697742 0.374678 0.610552
71.8757 125.862 182.198 -0.1124 0.427267 0.897111
71.7899 125.227 182.489 -0.1124 0.427267 0.897111
72.6307 125.661 182.388 -0.1124 0.427267 0.897111
72.6307 125.661 182.388 -0.108481 0.420529 0.900771
71.7899 125.227 182.489 -0.108481 0.420529 0.900771
72.615 124.942 182.722 -0.108481 0.420529 0.900771
73.5185 125.117 182.102 0.544938 0.562112 0.622152
72.9018 125.841 181.988 0.544938 0.562112 0.622152
72.6307 125.661 182.388 0.544938 0.562112 0.622152
73.5185 125.117 182.102 0.554581 0.60414 0.572237
72.6307 125.661 182.388 0.554581 0.60414 0.572237
73.3952 124.902 182.448 0.554581 0.60414 0.572237
73.3952 124.902 182.448 0.322263 0.392831 0.861296
72.6307 125.661 182.388 0.322263 0.392831 0.861296
72.615 124.942 182.722 0.322263 0.392831 0.861296
71.8757 125.862 182.198 -0.00882466 0.669501 0.742759
72.6307 125.661 182.388 -0.00882466 0.669501 0.742759
72.4422 126.025 182.058 -0.00882466 0.669501 0.742759
72.9018 125.841 181.988 0.377113 0.721979 0.580114
72.4422 126.025 182.058 0.377113 0.721979 0.580114
72.6307 125.661 182.388 0.377113 0.721979 0.580114
3 0 1 2
3 3 4 5
3 6 7 8
3 9 10 11
3 12 13 14
3 15 16 17
3 18 19 20
3 21 22 23
3 24 25 26
3 27 28 29
3 30 31 32
3 33 34 35
3 36 37 38
3 39 40 41
3 42 43 44
3 45 46 47
3 48 49 50
3 51 52 53
3 54 55 56
3 57 58 59
3 60 61 62
3 63 64 65
3 66 67 68
3 69 70 71
3 72 73 74
3 75 76 77
3 78 79 80
3 81 82 83
3 84 85 86
3 87 88 89
3 90 91 92
3 93 94 95
3 96 97 98
3 99 100 101
3 102 103 104
3 105 106 107
3 108 109 110
3 111 112 113
3 114 115 116
3 117 118 119
3 120 121 122
3 123 124 125
3 126 127 128
3 129 130 131
3 132 133 134
3 135 136 137
3 138 139 140
3 141 142 143
3 144 145 146
3 147 148 149
3 150 151 152
3 153 154 155
3 156 157 158
3 159 160 161
3 162 163 164
3 165 166 167
3 168 169 170
3 171 172 173
3 174 175 176
3 177 178 179
3 180 181 182
3 183 184 185
3 186 187 188
3 189 190 191
