ply
format ascii 1.0
element vertex 798
property float x
property float y
property float z
property float nx
property float ny
property float nz
element face 266
property list uint uint vertex_indices
end_header
116.628 104.217 140.641 -0.536998 -0.56844 -0.623305
116.514 103.934 140.998 -0.536998 -0.56844 -0.623305
116.324 104.325 140.805 -0.536998 -0.56844 -0.623305
116.514 103.934 140.998 0.361507 -0.782602 -0.5068
116.628 104.217 140.641 0.361507 -0.782602 -0.5068
117.09 104.209 140.983 0.361507 -0.782602 -0.5068
116.628 104.217 140.641 -0.314164 0.415781 -0.85348
116.324 104.325 140.805 -0.314164 0.415781 -0.85348
116.626 104.61 140.833 -0.314164 0.415781 -0.85348
117.09 104.209 140.983 0.557674 0.366617 -0.744709
116.628 104.217 140.641 0.557674 0.366617 -0.744709
116.626 104.61 140.833 0.557674 0.366617 -0.744709
115.856 104.37 141.257 -0.598688 -0.569102 -0.563644
116.324 104.325 140.805 -0.598688 -0.569102 -0.563644
116.514 103.934 140.998 -0.598688 -0.569102 -0.563644
115.856 104.37 141.257 -0.598614 -0.568704 -0.564125
116.514 103.934 140.998 -0.598614 -0.568704 -0.564125
115.577 104.214 141.71 -0.598614 -0.568704 -0.564125
115.577 104.214 141.71 -0.525499 -0.753366 -0.395337
116.514 103.934 140.998 -0.525499 -0.753366 -0.395337
116.438 103.55 141.831 -0.525499 -0.753366 -0.395337
117.09 104.209 140.983 0.369883 -0.560088 -0.741275
117.585 104.057 141.345 0.369883 -0.560088 -0.741275
117.355 103.583 141.588 0.369883 -0.560088 -0.741275
117.09 104.209 140.983 0.271157 -0.607294 -0.746772
117.355 103.583 141.588 0.271157 -0.607294 -0.746772
116.514 103.934 140.998 0.271157 -0.607294 -0.746772
116.514 103.934 140.998 -0.0789808 -0.902572 -0.423233
117.355 103.583 141.588 -0.0789808 -0.902572 -0.423233
116.438 103.55 141.831 -0.0789808 -0.902572 -0.423233
117.355 103.583 141.588 0.691151 -0.566384 -0.44891
117.585 104.057 141.345 0.691151 -0.566384 -0.44891
117.806 103.889 141.897 0.691151 -0.566384 -0.44891
115.597 104.946 141.323 -0.770829 -0.281388 -0.571528
115.856 104.37 141.257 -0.770829 -0.281388 -0.571528
115.577 104.214 141.71 -0.770829 -0.281388 -0.571528
115.044 105.049 141.913 -0.720648 -0.308795 -0.620735
115.597 104.946 141.323 -0.720648 -0.308795 -0.620735
115.577 104.214 141.71 -0.720648 -0.308795 -0.620735
116.324 104.325 140.805 -0.357041 0.45731 -0.814487
116.319 104.971 141.17 -0.357041 0.45731 -0.814487
116.626 104.61 140.833 -0.357041 0.45731 -0.814487
116.324 104.325 140.805 -0.622712 0.38101 -0.683419
115.856 104.37 141.257 -0.622712 0.38101 -0.683419
116.319 104.971 141.17 -0.622712 0.38101 -0.683419
115.856 104.37 141.257 -0.207395 0.018993 -0.978073
115.597 104.946 141.323 -0.207395 0.018993 -0.978073
116.319 104.971 141.17 -0.207395 0.018993 -0.978073
116.626 104.61 140.833 0.438867 0.784695 -0.437778
116.319 104.971 141.17 0.438867 0.784695 -0.437778
116.794 104.916 141.549 0.438867 0.784695 -0.437778
117.09 104.209 140.983 0.667946 0.615012 -0.419057
116.626 104.61 140.833 0.667946 0.615012 -0.419057
116.794 104.916 141.549 0.667946 0.615012 -0.419057
117.09 104.209 140.983 0.672936 0.613016 -0.413967
116.794 104.916 141.549 0.672936 0.613016 -0.413967
117.514 104.324 141.842 0.672936 0.613016 -0.413967
117.09 104.209 140.983 0.500336 0.790759 -0.352653
117.514 104.324 141.842 0.500336 0.790759 -0.352653
117.585 104.057 141.345 0.500336 0.790759 -0.352653
117.806 103.889 141.897 0.828418 0.534448 -0.167598
117.585 104.057 141.345 0.828418 0.534448 -0.167598
117.514 104.324 141.842 0.828418 0.534448 -0.167598
115.597 104.946 141.323 -0.348409 0.812224 -0.467872
115.044 105.049 141.913 -0.348409 0.812224 -0.467872
115.655 105.292 141.881 -0.348409 0.812224 -0.467872
116.319 104.971 141.17 -0.137361 0.847899 -0.512054
115.597 104.946 141.323 -0.137361 0.847899 -0.512054
115.655 105.292 141.881 -0.137361 0.847899 -0.512054
116.485 105.199 141.856 0.0953344 0.937361 -0.335062
116.319 104.971 141.17 0.0953344 0.937361 -0.335062
115.655 105.292 141.881 0.0953344 0.937361 -0.335062
116.794 104.916 141.549 0.394983 0.838725 -0.374871
116.319 104.971 141.17 0.394983 0.838725 -0.374871
116.485 105.199 141.856 0.394983 0.838725 -0.374871
116.842 103.196 142.233 -0.231668 -0.933719 -0.272943
116.563 103.05 142.97 -0.231668 -0.933719 -0.272943
116.186 103.256 142.584 -0.231668 -0.933719 -0.272943
116.842 103.196 142.233 0.0250478 -0.901699 -0.431638
117.578 103.273 142.115 0.0250478 -0.901699 -0.431638
117.436 102.987 142.703 0.0250478 -0.901699 -0.431638
116.563 103.05 142.97 -0.143133 -0.959036 -0.244466
116.842 103.196 142.233 -0.143133 -0.959036 -0.244466
117.436 102.987 142.703 -0.143133 -0.959036 -0.244466
117.436 102.987 142.703 0.578304 -0.779994 -0.239111
117.578 103.273 142.115 0.578304 -0.779994 -0.239111
117.818 103.254 142.756 0.578304 -0.779994 -0.239111
115.577 104.214 141.71 -0.5734 -0.683844 -0.451188
115.624 103.659 142.49 -0.5734 -0.683844 -0.451188
114.867 104.246 142.564 -0.5734 -0.683844 -0.451188
116.186 103.256 142.584 -0.309541 -0.846217 -0.433707
116.438 103.55 141.831 -0.309541 -0.846217 -0.433707
116.842 103.196 142.233 -0.309541 -0.846217 -0.433707
116.186 103.256 142.584 -0.469079 -0.758194 -0.452887
115.624 103.659 142.49 -0.469079 -0.758194 -0.452887
116.438 103.55 141.831 -0.469079 -0.758194 -0.452887
115.624 103.659 142.49 -0.490463 -0.724097 -0.484901
115.577 104.214 141.71 -0.490463 -0.724097 -0.484901
116.438 103.55 141.831 -0.490463 -0.724097 -0.484901
117.355 103.583 141.588 -0.124593 -0.803686 -0.581864
116.842 103.196 142.233 -0.124593 -0.803686 -0.581864
116.438 103.55 141.831 -0.124593 -0.803686 -0.581864
117.578 103.273 142.115 0.00799409 -0.859975 -0.510274
116.842 103.196 142.233 0.00799409 -0.859975 -0.510274
117.355 103.583 141.588 0.00799409 -0.859975 -0.510274
117.578 103.273 142.115 0.692124 -0.454747 -0.560508
117.355 103.583 141.588 0.692124 -0.454747 -0.560508
117.806 103.889 141.897 0.692124 -0.454747 -0.560508
117.578 103.273 142.115 0.842282 -0.428087 -0.327571
117.806 103.889 141.897 0.842282 -0.428087 -0.327571
117.818 103.254 142.756 0.842282 -0.428087 -0.327571
117.818 103.254 142.756 0.995663 -0.067774 -0.0637269
117.806 103.889 141.897 0.995663 -0.067774 -0.0637269
117.872 103.988 142.827 0.995663 -0.067774 -0.0637269
114.435 105.085 142.539 -0.481407 -0.273437 -0.832754
114.867 104.246 142.564 -0.481407 -0.273437 -0.832754
114.495 104.488 142.7 -0.481407 -0.273437 -0.832754
114.435 105.085 142.539 -0.676493 -0.367861 -0.637993
115.044 105.049 141.913 -0.676493 -0.367861 -0.637993
114.867 104.246 142.564 -0.676493 -0.367861 -0.637993
115.044 105.049 141.913 -0.733764 -0.322715 -0.597868
115.577 104.214 141.71 -0.733764 -0.322715 -0.597868
114.867 104.246 142.564 -0.733764 -0.322715 -0.597868
117.514 104.324 141.842 0.679589 0.731155 -0.0597583
116.916 104.943 142.614 0.679589 0.731155 -0.0597583
117.56 104.352 142.705 0.679589 0.731155 -0.0597583
116.794 104.916 141.549 0.654959 0.749816 -0.0938307
116.916 104.943 142.614 0.654959 0.749816 -0.0938307
117.514 104.324 141.842 0.654959 0.749816 -0.0938307
117.872 103.988 142.827 0.831591 0.542876 -0.117226
117.806 103.889 141.897 0.831591 0.542876 -0.117226
117.514 104.324 141.842 0.831591 0.542876 -0.117226
117.56 104.352 142.705 0.767672 0.637891 -0.0614394
117.872 103.988 142.827 0.767672 0.637891 -0.0614394
117.514 104.324 141.842 0.767672 0.637891 -0.0614394
115.044 105.049 141.913 -0.627826 0.446221 -0.637747
114.435 105.085 142.539 -0.627826 0.446221 -0.637747
114.808 105.729 142.622 -0.627826 0.446221 -0.637747
115.044 105.049 141.913 -0.292463 0.639158 -0.711296
114.808 105.729 142.622 -0.292463 0.639158 -0.711296
115.655 105.292 141.881 -0.292463 0.639158 -0.711296
115.655 105.292 141.881 0.315035 0.930178 -0.188474
114.808 105.729 142.622 0.315035 0.930178 -0.188474
115.625 105.495 142.833 0.315035 0.930178 -0.188474
116.485 105.199 141.856 0.109411 0.991405 -0.071727
115.655 105.292 141.881 0.109411 0.991405 -0.071727
116.401 105.272 142.741 0.109411 0.991405 -0.071727
115.655 105.292 141.881 0.249798 0.948569 -0.194466
115.625 105.495 142.833 0.249798 0.948569 -0.194466
116.401 105.272 142.741 0.249798 0.948569 -0.194466
116.916 104.943 142.614 0.621151 0.778423 -0.0907091
116.794 104.916 141.549 0.621151 0.778423 -0.0907091
116.485 105.199 141.856 0.621151 0.778423 -0.0907091
116.401 105.272 142.741 0.534958 0.844656 -0.0193995
116.916 104.943 142.614 0.534958 0.844656 -0.0193995
116.485 105.199 141.856 0.534958 0.844656 -0.0193995
115.515 103.41 143.047 -0.331117 -0.927698 -0.172445
116.186 103.256 142.584 -0.331117 -0.927698 -0.172445
116.563 103.05 142.97 -0.331117 -0.927698 -0.172445
115.515 103.41 143.047 -0.33121 -0.92371 -0.19251
116.563 103.05 142.97 -0.33121 -0.92371 -0.19251
115.592 103.233 143.761 -0.33121 -0.92371 -0.19251
115.592 103.233 143.761 -0.285756 -0.949339 -0.130764
116.563 103.05 142.97 -0.285756 -0.949339 -0.130764
116.695 102.887 143.862 -0.285756 -0.949339 -0.130764
117.436 102.987 142.703 -0.146396 -0.955547 -0.255924
117.486 102.754 143.547 -0.146396 -0.955547 -0.255924
116.563 103.05 142.97 -0.146396 -0.955547 -0.255924
116.563 103.05 142.97 -0.219754 -0.964965 -0.143355
117.486 102.754 143.547 -0.219754 -0.964965 -0.143355
116.695 102.887 143.862 -0.219754 -0.964965 -0.143355
117.486 102.754 143.547 0.577757 -0.7771 -0.249624
117.436 102.987 142.703 0.577757 -0.7771 -0.249624
117.818 103.254 142.756 0.577757 -0.7771 -0.249624
117.905 103.212 143.736 0.753977 -0.649971 -0.0951701
117.486 102.754 143.547 0.753977 -0.649971 -0.0951701
117.818 103.254 142.756 0.753977 -0.649971 -0.0951701
114.489 104.195 143.11 -0.416879 -0.846897 -0.330117
114.358 103.908 144.014 -0.416879 -0.846897 -0.330117
113.759 104.328 143.692 -0.416879 -0.846897 -0.330117
115.592 103.233 143.761 -0.504195 -0.799051 -0.327574
114.358 103.908 144.014 -0.504195 -0.799051 -0.327574
114.489 104.195 143.11 -0.504195 -0.799051 -0.327574
115.515 103.41 143.047 -0.608343 -0.783326 -0.127742
115.592 103.233 143.761 -0.608343 -0.783326 -0.127742
114.489 104.195 143.11 -0.608343 -0.783326 -0.127742
115.515 103.41 143.047 -0.560441 -0.694516 -0.451168
114.489 104.195 143.11 -0.560441 -0.694516 -0.451168
114.867 104.246 142.564 -0.560441 -0.694516 -0.451168
115.515 103.41 143.047 -0.579412 -0.694771 -0.426116
114.867 104.246 142.564 -0.579412 -0.694771 -0.426116
115.624 103.659 142.49 -0.579412 -0.694771 -0.426116
116.186 103.256 142.584 -0.475701 -0.763627 -0.436558
115.515 103.41 143.047 -0.475701 -0.763627 -0.436558
115.624 103.659 142.49 -0.475701 -0.763627 -0.436558
117.872 103.988 142.827 0.792913 0.590023 0.152192
117.477 104.336 143.536 0.792913 0.590023 0.152192
117.739 103.878 143.945 0.792913 0.590023 0.152192
117.872 103.988 142.827 0.970701 0.198934 0.13478
117.739 103.878 143.945 0.970701 0.198934 0.13478
117.905 103.212 143.736 0.970701 0.198934 0.13478
117.872 103.988 142.827 0.993701 -0.0649881 -0.0912959
117.905 103.212 143.736 0.993701 -0.0649881 -0.0912959
117.818 103.254 142.756 0.993701 -0.0649881 -0.0912959
113.631 105.132 143.347 -0.792051 -0.141685 -0.593785
113.32 104.624 143.884 -0.792051 -0.141685 -0.593785
113.164 105.259 143.94 -0.792051 -0.141685 -0.593785
113.759 104.328 143.692 -0.578818 -0.39751 -0.712008
113.32 104.624 143.884 -0.578818 -0.39751 -0.712008
113.631 105.132 143.347 -0.578818 -0.39751 -0.712008
114.489 104.195 143.11 -0.615722 -0.391344 -0.683912
113.759 104.328 143.692 -0.615722 -0.391344 -0.683912
113.631 105.132 143.347 -0.615722 -0.391344 -0.683912
114.489 104.195 143.11 -0.65002 -0.438757 -0.620456
113.631 105.132 143.347 -0.65002 -0.438757 -0.620456
114.435 105.085 142.539 -0.65002 -0.438757 -0.620456
114.489 104.195 143.11 -0.985948 -0.128897 -0.106263
114.435 105.085 142.539 -0.985948 -0.128897 -0.106263
114.495 104.488 142.7 -0.985948 -0.128897 -0.106263
114.867 104.246 142.564 -0.595553 -0.650458 -0.471404
114.489 104.195 143.11 -0.595553 -0.650458 -0.471404
114.495 104.488 142.7 -0.595553 -0.650458 -0.471404
117.56 104.352 142.705 0.741698 0.665092 0.08682
117.477 104.336 143.536 0.741698 0.665092 0.08682
117.872 103.988 142.827 0.741698 0.665092 0.08682
117.56 104.352 142.705 0.667749 0.739975 0.0809298
116.916 104.943 142.614 0.667749 0.739975 0.0809298
117.477 104.336 143.536 0.667749 0.739975 0.0809298
116.916 104.943 142.614 0.712482 0.701127 0.0281308
116.817 104.999 143.723 0.712482 0.701127 0.0281308
117.477 104.336 143.536 0.712482 0.701127 0.0281308
113.453 105.977 143.634 -0.779667 0.0475464 -0.624387
113.631 105.132 143.347 -0.779667 0.0475464 -0.624387
113.164 105.259 143.94 -0.779667 0.0475464 -0.624387
113.176 106.201 144.133 -0.845332 0.117926 -0.521064
113.453 105.977 143.634 -0.845332 0.117926 -0.521064
113.164 105.259 143.94 -0.845332 0.117926 -0.521064
114.435 105.085 142.539 -0.530961 0.403855 -0.744971
114.275 106.002 143.15 -0.530961 0.403855 -0.744971
114.808 105.729 142.622 -0.530961 0.403855 -0.744971
114.435 105.085 142.539 -0.658563 0.334459 -0.674116
113.631 105.132 143.347 -0.658563 0.334459 -0.674116
114.275 106.002 143.15 -0.658563 0.334459 -0.674116
113.631 105.132 143.347 -0.503403 0.180926 -0.844897
113.453 105.977 143.634 -0.503403 0.180926 -0.844897
114.275 106.002 143.15 -0.503403 0.180926 -0.844897
114.808 105.729 142.622 0.352891 0.812017 -0.464862
115.287 106.017 143.487 0.352891 0.812017 -0.464862
115.625 105.495 142.833 0.352891 0.812017 -0.464862
114.275 106.002 143.15 0.109652 0.923579 -0.367393
115.287 106.017 143.487 0.109652 0.923579 -0.367393
114.808 105.729 142.622 0.109652 0.923579 -0.367393
116.274 105.449 143.836 0.555078 0.766157 -0.32387
115.625 105.495 142.833 0.555078 0.766157 -0.32387
115.287 106.017 143.487 0.555078 0.766157 -0.32387
116.274 105.449 143.836 0.260605 0.957383 -0.124509
116.401 105.272 142.741 0.260605 0.957383 -0.124509
115.625 105.495 142.833 0.260605 0.957383 -0.124509
116.817 104.999 143.723 0.53945 0.841999 0.00553451
116.916 104.943 142.614 0.53945 0.841999 0.00553451
116.401 105.272 142.741 0.53945 0.841999 0.00553451
116.274 105.449 143.836 0.630543 0.774423 -0.0518013
116.817 104.999 143.723 0.630543 0.774423 -0.0518013
116.401 105.272 142.741 0.630543 0.774423 -0.0518013
113.453 105.977 143.634 -0.47428 0.674953 -0.565241
113.176 106.201 144.133 -0.47428 0.674953 -0.565241
113.652 106.355 143.919 -0.47428 0.674953 -0.565241
114.275 106.002 143.15 -0.389465 0.675899 -0.625682
113.453 105.977 143.634 -0.389465 0.675899 -0.625682
113.652 106.355 143.919 -0.389465 0.675899 -0.625682
114.608 106.294 143.911 0.0558061 0.923832 -0.378709
114.275 106.002 143.15 0.0558061 0.923832 -0.378709
113.652 106.355 143.919 0.0558061 0.923832 -0.378709
115.287 106.017 143.487 0.121157 0.907939 -0.401208
114.275 106.002 143.15 0.121157 0.907939 -0.401208
114.608 106.294 143.911 0.121157 0.907939 -0.401208
115.483 106.118 144.01 0.219792 0.9392 -0.263807
115.287 106.017 143.487 0.219792 0.9392 -0.263807
114.608 106.294 143.911 0.219792 0.9392 -0.263807
116.274 105.449 143.836 0.557145 0.751051 -0.354276
115.287 106.017 143.487 0.557145 0.751051 -0.354276
115.483 106.118 144.01 0.557145 0.751051 -0.354276
116.695 102.887 143.862 -0.295912 -0.954487 -0.0372884
116.454 102.931 144.643 -0.295912 -0.954487 -0.0372884
115.592 103.233 143.761 -0.295912 -0.954487 -0.0372884
115.592 103.233 143.761 -0.240777 -0.965914 -0.0950606
116.454 102.931 144.643 -0.240777 -0.965914 -0.0950606
115.414 103.166 144.893 -0.240777 -0.965914 -0.0950606
117.486 102.754 143.547 -0.179341 -0.983194 -0.034161
117.431 102.727 144.608 -0.179341 -0.983194 -0.034161
116.695 102.887 143.862 -0.179341 -0.983194 -0.034161
116.695 102.887 143.862 -0.20504 -0.978722 -0.00786193
117.431 102.727 144.608 -0.20504 -0.978722 -0.00786193
116.454 102.931 144.643 -0.20504 -0.978722 -0.00786193
117.431 102.727 144.608 0.733585 -0.679268 0.0211467
117.486 102.754 143.547 0.733585 -0.679268 0.0211467
117.905 103.212 143.736 0.733585 -0.679268 0.0211467
117.853 103.252 144.599 0.777812 -0.623888 0.0759793
117.431 102.727 144.608 0.777812 -0.623888 0.0759793
117.905 103.212 143.736 0.777812 -0.623888 0.0759793
113.45 104.207 144.167 -0.52934 -0.806611 -0.263016
113.525 103.972 144.74 -0.52934 -0.806611 -0.263016
112.9 104.377 144.755 -0.52934 -0.806611 -0.263016
113.45 104.207 144.167 -0.347457 -0.829743 -0.436807
113.759 104.328 143.692 -0.347457 -0.829743 -0.436807
114.358 103.908 144.014 -0.347457 -0.829743 -0.436807
113.45 104.207 144.167 -0.344971 -0.882978 -0.318346
114.358 103.908 144.014 -0.344971 -0.882978 -0.318346
113.525 103.972 144.74 -0.344971 -0.882978 -0.318346
113.525 103.972 144.74 -0.282141 -0.928277 -0.242277
114.358 103.908 144.014 -0.282141 -0.928277 -0.242277
114.292 103.684 144.949 -0.282141 -0.928277 -0.242277
115.414 103.166 144.893 -0.496124 -0.858637 -0.128852
114.358 103.908 144.014 -0.496124 -0.858637 -0.128852
115.592 103.233 143.761 -0.496124 -0.858637 -0.128852
114.292 103.684 144.949 -0.416755 -0.87689 -0.239539
114.358 103.908 144.014 -0.416755 -0.87689 -0.239539
115.414 103.166 144.893 -0.416755 -0.87689 -0.239539
117.739 103.878 143.945 0.844034 0.506909 0.175074
117.386 104.215 144.674 0.844034 0.506909 0.175074
117.646 103.727 144.832 0.844034 0.506909 0.175074
117.477 104.336 143.536 0.808148 0.575347 0.125984
117.386 104.215 144.674 0.808148 0.575347 0.125984
117.739 103.878 143.945 0.808148 0.575347 0.125984
117.853 103.252 144.599 0.972756 0.226838 0.0478628
117.905 103.212 143.736 0.972756 0.226838 0.0478628
117.739 103.878 143.945 0.972756 0.226838 0.0478628
117.646 103.727 144.832 0.931085 0.330537 0.154358
117.853 103.252 144.599 0.931085 0.330537 0.154358
117.739 103.878 143.945 0.931085 0.330537 0.154358
113.32 104.624 143.884 -0.685103 -0.543889 -0.484581
113.45 104.207 144.167 -0.685103 -0.543889 -0.484581
112.9 104.377 144.755 -0.685103 -0.543889 -0.484581
113.32 104.624 143.884 -0.867705 -0.171472 -0.466568
112.9 104.377 144.755 -0.867705 -0.171472 -0.466568
113.164 105.259 143.94 -0.867705 -0.171472 -0.466568
113.164 105.259 143.94 -0.829337 -0.224577 -0.51163
112.9 104.377 144.755 -0.829337 -0.224577 -0.51163
112.631 105.418 144.734 -0.829337 -0.224577 -0.51163
113.759 104.328 143.692 -0.618909 -0.564779 -0.545872
113.45 104.207 144.167 -0.618909 -0.564779 -0.545872
113.32 104.624 143.884 -0.618909 -0.564779 -0.545872
117.477 104.336 143.536 0.720856 0.680748 0.130187
116.817 104.999 143.723 0.720856 0.680748 0.130187
117.386 104.215 144.674 0.720856 0.680748 0.130187
117.386 104.215 144.674 0.791038 0.610996 0.0307045
116.817 104.999 143.723 0.791038 0.610996 0.0307045
116.78 104.997 144.716 0.791038 0.610996 0.0307045
113.164 105.259 143.94 -0.811457 0.127587 -0.570315
112.631 105.418 144.734 -0.811457 0.127587 -0.570315
113.176 106.201 144.133 -0.811457 0.127587 -0.570315
112.631 105.418 144.734 -0.871848 0.329159 -0.362679
112.9 106.199 144.797 -0.871848 0.329159 -0.362679
113.176 106.201 144.133 -0.871848 0.329159 -0.362679
116.274 105.449 143.836 0.697781 0.716141 -0.0155774
115.789 105.942 144.793 0.697781 0.716141 -0.0155774
116.427 105.321 144.834 0.697781 0.716141 -0.0155774
116.78 104.997 144.716 0.64079 0.76729 0.0255755
116.817 104.999 143.723 0.64079 0.76729 0.0255755
116.274 105.449 143.836 0.64079 0.76729 0.0255755
116.427 105.321 144.834 0.674996 0.737762 -0.00929528
116.78 104.997 144.716 0.674996 0.737762 -0.00929528
116.274 105.449 143.836 0.674996 0.737762 -0.00929528
113.418 106.812 144.706 -0.470892 0.695239 -0.54305
113.652 106.355 143.919 -0.470892 0.695239 -0.54305
113.176 106.201 144.133 -0.470892 0.695239 -0.54305
113.418 106.812 144.706 -0.479653 0.693533 -0.537535
113.176 106.201 144.133 -0.479653 0.693533 -0.537535
113.098 106.741 144.901 -0.479653 0.693533 -0.537535
113.098 106.741 144.901 -0.854181 0.379757 -0.355189
113.176 106.201 144.133 -0.854181 0.379757 -0.355189
112.9 106.199 144.797 -0.854181 0.379757 -0.355189
113.418 106.812 144.706 0.414696 0.835093 -0.361452
114.291 106.454 144.88 0.414696 0.835093 -0.361452
113.652 106.355 143.919 0.414696 0.835093 -0.361452
114.291 106.454 144.88 0.0618644 0.987903 -0.142197
114.608 106.294 143.911 0.0618644 0.987903 -0.142197
113.652 106.355 143.919 0.0618644 0.987903 -0.142197
115.483 106.118 144.01 0.21132 0.967495 -0.138917
114.608 106.294 143.911 0.21132 0.967495 -0.138917
115.28 106.275 144.799 0.21132 0.967495 -0.138917
114.608 106.294 143.911 0.168244 0.980023 -0.106061
114.291 106.454 144.88 0.168244 0.980023 -0.106061
115.28 106.275 144.799 0.168244 0.980023 -0.106061
115.789 105.942 144.793 0.634287 0.769431 -0.0752051
116.274 105.449 143.836 0.634287 0.769431 -0.0752051
115.483 106.118 144.01 0.634287 0.769431 -0.0752051
115.28 106.275 144.799 0.547209 0.836587 -0.0261531
115.789 105.942 144.793 0.547209 0.836587 -0.0261531
115.483 106.118 144.01 0.547209 0.836587 -0.0261531
114.628 103.135 145.844 -0.087657 -0.990677 -0.104285
115.414 103.166 144.893 -0.087657 -0.990677 -0.104285
115.654 103.037 145.917 -0.087657 -0.990677 -0.104285
116.454 102.931 144.643 -0.18886 -0.973658 0.127758
116.641 103.016 145.562 -0.18886 -0.973658 0.127758
115.414 103.166 144.893 -0.18886 -0.973658 0.127758
115.414 103.166 144.893 -0.061121 -0.991976 -0.110669
116.641 103.016 145.562 -0.061121 -0.991976 -0.110669
115.654 103.037 145.917 -0.061121 -0.991976 -0.110669
117.524 103.16 145.221 0.36531 -0.639937 0.676039
117.255 103.424 145.617 0.36531 -0.639937 0.676039
116.641 103.016 145.562 0.36531 -0.639937 0.676039
117.524 103.16 145.221 0.327148 -0.794559 0.511518
116.641 103.016 145.562 0.327148 -0.794559 0.511518
117.431 102.727 144.608 0.327148 -0.794559 0.511518
117.431 102.727 144.608 -0.198618 -0.971478 0.129541
116.641 103.016 145.562 -0.198618 -0.971478 0.129541
116.454 102.931 144.643 -0.198618 -0.971478 0.129541
117.431 102.727 144.608 0.744795 -0.593248 0.30551
117.853 103.252 144.599 0.744795 -0.593248 0.30551
117.524 103.16 145.221 0.744795 -0.593248 0.30551
112.43 104.194 145.512 -0.70419 -0.663274 -0.253344
112.418 103.984 146.097 -0.70419 -0.663274 -0.253344
112.114 104.401 145.85 -0.70419 -0.663274 -0.253344
113.377 103.447 145.832 -0.527492 -0.795869 -0.297229
112.418 103.984 146.097 -0.527492 -0.795869 -0.297229
112.43 104.194 145.512 -0.527492 -0.795869 -0.297229
113.377 103.447 145.832 -0.447521 -0.76548 -0.462348
112.43 104.194 145.512 -0.447521 -0.76548 -0.462348
112.9 104.377 144.755 -0.447521 -0.76548 -0.462348
113.377 103.447 145.832 -0.498613 -0.753145 -0.429136
112.9 104.377 144.755 -0.498613 -0.753145 -0.429136
113.525 103.972 144.74 -0.498613 -0.753145 -0.429136
114.292 103.684 144.949 -0.205227 -0.871184 -0.446004
113.377 103.447 145.832 -0.205227 -0.871184 -0.446004
113.525 103.972 144.74 -0.205227 -0.871184 -0.446004
114.628 103.135 145.844 -0.211824 -0.866695 -0.451632
113.377 103.447 145.832 -0.211824 -0.866695 -0.451632
114.292 103.684 144.949 -0.211824 -0.866695 -0.451632
115.414 103.166 144.893 -0.405485 -0.839335 -0.362077
114.628 103.135 145.844 -0.405485 -0.839335 -0.362077
114.292 103.684 144.949 -0.405485 -0.839335 -0.362077
117.646 103.727 144.832 0.860961 0.149163 0.486309
117.255 103.424 145.617 0.860961 0.149163 0.486309
117.524 103.16 145.221 0.860961 0.149163 0.486309
117.646 103.727 144.832 0.662826 0.525903 0.532998
117.386 104.215 144.674 0.662826 0.525903 0.532998
117.255 103.424 145.617 0.662826 0.525903 0.532998
117.386 104.215 144.674 0.854932 0.33295 0.397788
116.909 104.227 145.688 0.854932 0.33295 0.397788
117.255 103.424 145.617 0.854932 0.33295 0.397788
117.853 103.252 144.599 0.86624 0.142858 0.478769
117.646 103.727 144.832 0.86624 0.142858 0.478769
117.524 103.16 145.221 0.86624 0.142858 0.478769
112.29 105.021 145.265 -0.781355 -0.296502 -0.549155
112.43 104.194 145.512 -0.781355 -0.296502 -0.549155
112.114 104.401 145.85 -0.781355 -0.296502 -0.549155
112.047 105.142 145.969 -0.946388 -0.0342066 -0.321217
112.29 105.021 145.265 -0.946388 -0.0342066 -0.321217
112.114 104.401 145.85 -0.946388 -0.0342066 -0.321217
112.9 104.377 144.755 -0.746326 -0.205535 -0.63305
112.29 105.021 145.265 -0.746326 -0.205535 -0.63305
112.631 105.418 144.734 -0.746326 -0.205535 -0.63305
112.43 104.194 145.512 -0.777379 -0.297365 -0.554307
112.29 105.021 145.265 -0.777379 -0.297365 -0.554307
112.9 104.377 144.755 -0.777379 -0.297365 -0.554307
116.594 105.016 145.265 0.687223 0.601751 0.406964
116.101 105.283 145.704 0.687223 0.601751 0.406964
116.568 104.693 145.788 0.687223 0.601751 0.406964
116.594 105.016 145.265 0.789559 0.503244 0.351201
116.568 104.693 145.788 0.789559 0.503244 0.351201
116.909 104.227 145.688 0.789559 0.503244 0.351201
116.594 105.016 145.265 0.837441 0.477123 0.266545
116.909 104.227 145.688 0.837441 0.477123 0.266545
116.78 104.997 144.716 0.837441 0.477123 0.266545
116.78 104.997 144.716 0.750581 0.562886 0.346104
116.909 104.227 145.688 0.750581 0.562886 0.346104
117.386 104.215 144.674 0.750581 0.562886 0.346104
112.419 106.088 145.509 -0.917242 0.190467 -0.349843
112.29 105.021 145.265 -0.917242 0.190467 -0.349843
112.047 105.142 145.969 -0.917242 0.190467 -0.349843
112.107 106.019 145.922 -0.799811 0.0227724 -0.59982
112.419 106.088 145.509 -0.799811 0.0227724 -0.59982
112.047 105.142 145.969 -0.799811 0.0227724 -0.59982
112.631 105.418 144.734 -0.807936 0.31797 -0.49612
112.419 106.088 145.509 -0.807936 0.31797 -0.49612
112.9 106.199 144.797 -0.807936 0.31797 -0.49612
112.29 105.021 145.265 -0.885947 0.202136 -0.41742
112.419 106.088 145.509 -0.885947 0.202136 -0.41742
112.631 105.418 144.734 -0.885947 0.202136 -0.41742
116.427 105.321 144.834 0.632212 0.726518 0.269222
116.101 105.283 145.704 0.632212 0.726518 0.269222
116.594 105.016 145.265 0.632212 0.726518 0.269222
116.427 105.321 144.834 0.660346 0.69741 0.278501
115.789 105.942 144.793 0.660346 0.69741 0.278501
116.101 105.283 145.704 0.660346 0.69741 0.278501
115.789 105.942 144.793 0.811212 0.569188 0.134015
115.562 106.082 145.575 0.811212 0.569188 0.134015
116.101 105.283 145.704 0.811212 0.569188 0.134015
116.78 104.997 144.716 0.699046 0.682789 0.212448
116.427 105.321 144.834 0.699046 0.682789 0.212448
116.594 105.016 145.265 0.699046 0.682789 0.212448
112.419 106.088 145.509 -0.76731 0.381478 -0.515471
112.107 106.019 145.922 -0.76731 0.381478 -0.515471
112.383 106.452 145.831 -0.76731 0.381478 -0.515471
112.419 106.088 145.509 -0.792819 0.380445 -0.47613
113.098 106.741 144.901 -0.792819 0.380445 -0.47613
112.9 106.199 144.797 -0.792819 0.380445 -0.47613
112.419 106.088 145.509 -0.454631 0.812342 0.365254
113.227 106.48 145.642 -0.454631 0.812342 0.365254
113.098 106.741 144.901 -0.454631 0.812342 0.365254
112.419 106.088 145.509 -0.188519 0.640421 -0.744527
112.383 106.452 145.831 -0.188519 0.640421 -0.744527
113.227 106.48 145.642 -0.188519 0.640421 -0.744527
113.418 106.812 144.706 -0.00682644 0.942929 0.332925
113.098 106.741 144.901 -0.00682644 0.942929 0.332925
113.227 106.48 145.642 -0.00682644 0.942929 0.332925
113.418 106.812 144.706 0.288425 0.882385 0.371763
113.227 106.48 145.642 0.288425 0.882385 0.371763
114.291 106.454 144.88 0.288425 0.882385 0.371763
113.227 106.48 145.642 0.110223 0.986712 0.119378
114.215 106.348 145.822 0.110223 0.986712 0.119378
114.291 106.454 144.88 0.110223 0.986712 0.119378
115.28 106.275 144.799 0.181622 0.981856 0.0545266
114.291 106.454 144.88 0.181622 0.981856 0.0545266
115.112 106.257 145.682 0.181622 0.981856 0.0545266
114.291 106.454 144.88 0.118575 0.985675 0.119935
114.215 106.348 145.822 0.118575 0.985675 0.119935
115.112 106.257 145.682 0.118575 0.985675 0.119935
115.562 106.082 145.575 0.547687 0.836626 0.00983013
115.789 105.942 144.793 0.547687 0.836626 0.00983013
115.28 106.275 144.799 0.547687 0.836626 0.00983013
115.112 106.257 145.682 0.380823 0.920128 0.0913114
115.562 106.082 145.575 0.380823 0.920128 0.0913114
115.28 106.275 144.799 0.380823 0.920128 0.0913114
113.377 103.447 145.832 -0.470962 -0.86668 -0.1645
113.541 103.127 147.052 -0.470962 -0.86668 -0.1645
113.029 103.438 146.875 -0.470962 -0.86668 -0.1645
114.628 103.135 145.844 -0.238222 -0.960868 -0.141361
114.431 103.038 146.839 -0.238222 -0.960868 -0.141361
113.377 103.447 145.832 -0.238222 -0.960868 -0.141361
113.377 103.447 145.832 -0.151318 -0.960783 -0.232376
114.431 103.038 146.839 -0.151318 -0.960783 -0.232376
113.541 103.127 147.052 -0.151318 -0.960783 -0.232376
115.654 103.037 145.917 -0.0915587 -0.994313 -0.0543944
115.402 103.017 146.697 -0.0915587 -0.994313 -0.0543944
114.628 103.135 145.844 -0.0915587 -0.994313 -0.0543944
114.628 103.135 145.844 -0.0361642 -0.993861 -0.104563
115.402 103.017 146.697 -0.0361642 -0.993861 -0.104563
114.431 103.038 146.839 -0.0361642 -0.993861 -0.104563
116.641 103.016 145.562 0.0796612 -0.957333 0.277791
116.521 103.305 146.592 0.0796612 -0.957333 0.277791
115.654 103.037 145.917 0.0796612 -0.957333 0.277791
115.654 103.037 145.917 0.253231 -0.965667 0.0579699
116.521 103.305 146.592 0.253231 -0.965667 0.0579699
115.402 103.017 146.697 0.253231 -0.965667 0.0579699
116.521 103.305 146.592 0.512823 -0.809284 0.286482
116.641 103.016 145.562 0.512823 -0.809284 0.286482
117.255 103.424 145.617 0.512823 -0.809284 0.286482
112.418 103.984 146.097 -0.805936 -0.591914 -0.0102526
112.391 104.009 146.733 -0.805936 -0.591914 -0.0102526
112.186 104.291 146.569 -0.805936 -0.591914 -0.0102526
112.114 104.401 145.85 -0.805327 -0.592757 -0.00940493
112.418 103.984 146.097 -0.805327 -0.592757 -0.00940493
112.186 104.291 146.569 -0.805327 -0.592757 -0.00940493
113.029 103.438 146.875 -0.517779 -0.836394 -0.179862
112.418 103.984 146.097 -0.517779 -0.836394 -0.179862
113.377 103.447 145.832 -0.517779 -0.836394 -0.179862
112.391 104.009 146.733 -0.667218 -0.74486 0.00164605
112.418 103.984 146.097 -0.667218 -0.74486 0.00164605
113.029 103.438 146.875 -0.667218 -0.74486 0.00164605
116.444 104.27 146.323 0.605412 0.53463 0.589616
116.017 104.15 146.871 0.605412 0.53463 0.589616
116.467 103.699 146.816 0.605412 0.53463 0.589616
116.444 104.27 146.323 0.993041 0.0975306 0.0660081
116.467 103.699 146.816 0.993041 0.0975306 0.0660081
116.521 103.305 146.592 0.993041 0.0975306 0.0660081
116.444 104.27 146.323 0.79386 0.221053 0.5665
116.521 103.305 146.592 0.79386 0.221053 0.5665
116.909 104.227 145.688 0.79386 0.221053 0.5665
116.909 104.227 145.688 0.752755 0.271102 0.599886
116.521 103.305 146.592 0.752755 0.271102 0.599886
117.255 103.424 145.617 0.752755 0.271102 0.599886
112.35 104.583 146.696 -0.72396 0.36728 0.58394
112.493 105.363 146.383 -0.72396 0.36728 0.58394
112.047 105.142 145.969 -0.72396 0.36728 0.58394
112.35 104.583 146.696 -0.819948 0.234684 0.522119
112.047 105.142 145.969 -0.819948 0.234684 0.522119
112.186 104.291 146.569 -0.819948 0.234684 0.522119
112.186 104.291 146.569 -0.991151 -0.102879 0.083876
112.047 105.142 145.969 -0.991151 -0.102879 0.083876
112.114 104.401 145.85 -0.991151 -0.102879 0.083876
112.493 105.363 146.383 -0.15438 0.557338 0.815807
113.259 104.722 146.966 -0.15438 0.557338 0.815807
113.555 105.322 146.611 -0.15438 0.557338 0.815807
112.35 104.583 146.696 -0.31624 0.403027 0.858814
113.259 104.722 146.966 -0.31624 0.403027 0.858814
112.493 105.363 146.383 -0.31624 0.403027 0.858814
113.555 105.322 146.611 0.0922197 0.588004 0.803584
114.264 104.783 146.924 0.0922197 0.588004 0.803584
114.616 105.265 146.531 0.0922197 0.588004 0.803584
113.259 104.722 146.966 0.00450181 0.506553 0.862197
114.264 104.783 146.924 0.00450181 0.506553 0.862197
113.555 105.322 146.611 0.00450181 0.506553 0.862197
114.616 105.265 146.531 0.282158 0.672615 0.684087
115.212 104.526 147.012 0.282158 0.672615 0.684087
115.599 105.019 146.368 0.282158 0.672615 0.684087
114.264 104.783 146.924 0.0861924 0.591101 0.801979
115.212 104.526 147.012 0.0861924 0.591101 0.801979
114.616 105.265 146.531 0.0861924 0.591101 0.801979
116.017 104.15 146.871 0.400723 0.595448 0.696322
115.599 105.019 146.368 0.400723 0.595448 0.696322
115.212 104.526 147.012 0.400723 0.595448 0.696322
116.444 104.27 146.323 0.561857 0.599667 0.569839
115.599 105.019 146.368 0.561857 0.599667 0.569839
116.017 104.15 146.871 0.561857 0.599667 0.569839
116.444 104.27 146.323 0.534351 0.565117 0.628579
116.101 105.283 145.704 0.534351 0.565117 0.628579
115.599 105.019 146.368 0.534351 0.565117 0.628579
116.444 104.27 146.323 0.597911 0.555598 0.577766
116.568 104.693 145.788 0.597911 0.555598 0.577766
116.101 105.283 145.704 0.597911 0.555598 0.577766
116.909 104.227 145.688 0.741072 0.432624 0.513468
116.568 104.693 145.788 0.741072 0.432624 0.513468
116.444 104.27 146.323 0.741072 0.432624 0.513468
112.493 105.363 146.383 -0.492598 0.287059 0.82155
112.485 106.172 146.095 -0.492598 0.287059 0.82155
112.107 106.019 145.922 -0.492598 0.287059 0.82155
112.047 105.142 145.969 -0.700283 0.0856546 0.708708
112.493 105.363 146.383 -0.700283 0.0856546 0.708708
112.107 106.019 145.922 -0.700283 0.0856546 0.708708
113.555 105.322 146.611 -0.189238 0.304958 0.933375
113.337 106.071 146.323 -0.189238 0.304958 0.933375
112.493 105.363 146.383 -0.189238 0.304958 0.933375
113.337 106.071 146.323 -0.207343 0.325632 0.922482
112.485 106.172 146.095 -0.207343 0.325632 0.922482
112.493 105.363 146.383 -0.207343 0.325632 0.922482
114.616 105.265 146.531 0.0879557 0.31344 0.945526
114.386 106.024 146.301 0.0879557 0.31344 0.945526
113.555 105.322 146.611 0.0879557 0.31344 0.945526
114.386 106.024 146.301 0.0353233 0.368471 0.928968
113.337 106.071 146.323 0.0353233 0.368471 0.928968
113.555 105.322 146.611 0.0353233 0.368471 0.928968
115.599 105.019 146.368 0.245913 0.393414 0.885862
115.337 105.895 146.051 0.245913 0.393414 0.885862
114.616 105.265 146.531 0.245913 0.393414 0.885862
115.337 105.895 146.051 0.282136 0.35583 0.890946
114.386 106.024 146.301 0.282136 0.35583 0.890946
114.616 105.265 146.531 0.282136 0.35583 0.890946
116.101 105.283 145.704 0.665181 0.533425 0.522487
115.562 106.082 145.575 0.665181 0.533425 0.522487
115.337 105.895 146.051 0.665181 0.533425 0.522487
115.599 105.019 146.368 0.633801 0.423311 0.647382
116.101 105.283 145.704 0.633801 0.423311 0.647382
115.337 105.895 146.051 0.633801 0.423311 0.647382
112.107 106.019 145.922 -0.51842 0.478661 0.708607
112.485 106.172 146.095 -0.51842 0.478661 0.708607
112.383 106.452 145.831 -0.51842 0.478661 0.708607
113.227 106.48 145.642 0.133189 0.704532 0.697062
112.383 106.452 145.831 0.133189 0.704532 0.697062
112.485 106.172 146.095 0.133189 0.704532 0.697062
113.337 106.071 146.323 -0.037122 0.853529 0.51972
113.227 106.48 145.642 -0.037122 0.853529 0.51972
112.485 106.172 146.095 -0.037122 0.853529 0.51972
114.215 106.348 145.822 0.0210213 0.858098 0.513055
113.227 106.48 145.642 0.0210213 0.858098 0.513055
113.337 106.071 146.323 0.0210213 0.858098 0.513055
114.386 106.024 146.301 0.0482288 0.835064 0.548035
114.215 106.348 145.822 0.0482288 0.835064 0.548035
113.337 106.071 146.323 0.0482288 0.835064 0.548035
115.112 106.257 145.682 0.165603 0.843083 0.511651
114.215 106.348 145.822 0.165603 0.843083 0.511651
114.386 106.024 146.301 0.165603 0.843083 0.511651
115.337 105.895 146.051 0.258881 0.763876 0.591164
115.112 106.257 145.682 0.258881 0.763876 0.591164
114.386 106.024 146.301 0.258881 0.763876 0.591164
115.562 106.082 145.575 0.415615 0.763168 0.494812
115.112 106.257 145.682 0.415615 0.763168 0.494812
115.337 105.895 146.051 0.415615 0.763168 0.494812
113.541 103.127 147.052 -0.0338923 -0.982558 0.182843
113.665 103.263 147.808 -0.0338923 -0.982558 0.182843
113.326 103.231 147.575 -0.0338923 -0.982558 0.182843
113.029 103.438 146.875 -0.510229 -0.859221 -0.037504
113.541 103.127 147.052 -0.510229 -0.859221 -0.037504
113.326 103.231 147.575 -0.510229 -0.859221 -0.037504
114.431 103.038 146.839 -0.0864296 -0.994831 0.0532998
114.42 103.086 147.717 -0.0864296 -0.994831 0.0532998
113.541 103.127 147.052 -0.0864296 -0.994831 0.0532998
113.541 103.127 147.052 -0.20001 -0.957977 0.205613
114.42 103.086 147.717 -0.20001 -0.957977 0.205613
113.665 103.263 147.808 -0.20001 -0.957977 0.205613
115.402 103.017 146.697 -0.0159209 -0.99927 0.0347375
115.479 103.045 147.535 -0.0159209 -0.99927 0.0347375
114.431 103.038 146.839 -0.0159209 -0.99927 0.0347375
114.431 103.038 146.839 -0.0288623 -0.998112 0.0542216
115.479 103.045 147.535 -0.0288623 -0.998112 0.0542216
114.42 103.086 147.717 -0.0288623 -0.998112 0.0542216
116.222 103.396 147.214 0.532391 -0.718402 0.447726
115.676 103.329 147.757 0.532391 -0.718402 0.447726
115.479 103.045 147.535 0.532391 -0.718402 0.447726
116.222 103.396 147.214 0.521451 -0.771746 0.364001
115.479 103.045 147.535 0.521451 -0.771746 0.364001
116.521 103.305 146.592 0.521451 -0.771746 0.364001
116.521 103.305 146.592 0.249327 -0.968376 0.00920205
115.479 103.045 147.535 0.249327 -0.968376 0.00920205
115.402 103.017 146.697 0.249327 -0.968376 0.00920205
112.391 104.009 146.733 -0.775439 -0.221779 0.591193
112.598 104.116 147.043 -0.775439 -0.221779 0.591193
112.186 104.291 146.569 -0.775439 -0.221779 0.591193
113.336 103.593 147.671 -0.92549 -0.0723667 0.371795
113.029 103.438 146.875 -0.92549 -0.0723667 0.371795
113.326 103.231 147.575 -0.92549 -0.0723667 0.371795
113.336 103.593 147.671 -0.729373 -0.561359 0.391013
112.598 104.116 147.043 -0.729373 -0.561359 0.391013
113.029 103.438 146.875 -0.729373 -0.561359 0.391013
113.336 103.593 147.671 -0.553124 0.191291 0.81084
113.458 104.152 147.622 -0.553124 0.191291 0.81084
112.598 104.116 147.043 -0.553124 0.191291 0.81084
112.598 104.116 147.043 -0.608705 -0.533366 0.587365
112.391 104.009 146.733 -0.608705 -0.533366 0.587365
113.029 103.438 146.875 -0.608705 -0.533366 0.587365
113.336 103.593 147.671 -0.282823 0.14407 0.94829
114.351 103.866 147.932 -0.282823 0.14407 0.94829
113.458 104.152 147.622 -0.282823 0.14407 0.94829
115.578 103.965 147.468 0.428193 0.589421 0.685006
114.947 104.129 147.721 0.428193 0.589421 0.685006
115.293 103.716 147.861 0.428193 0.589421 0.685006
115.676 103.329 147.757 0.598133 0.405237 0.69139
115.578 103.965 147.468 0.598133 0.405237 0.69139
115.293 103.716 147.861 0.598133 0.405237 0.69139
116.222 103.396 147.214 0.620496 0.400794 0.674054
115.578 103.965 147.468 0.620496 0.400794 0.674054
115.676 103.329 147.757 0.620496 0.400794 0.674054
116.222 103.396 147.214 0.644913 0.45518 0.613921
116.017 104.15 146.871 0.644913 0.45518 0.613921
115.578 103.965 147.468 0.644913 0.45518 0.613921
116.222 103.396 147.214 0.549016 0.46563 0.694096
116.467 103.699 146.816 0.549016 0.46563 0.694096
116.017 104.15 146.871 0.549016 0.46563 0.694096
116.521 103.305 146.592 0.885409 -0.132994 0.44538
116.467 103.699 146.816 0.885409 -0.132994 0.44538
116.222 103.396 147.214 0.885409 -0.132994 0.44538
112.186 104.291 146.569 -0.728101 0.116683 0.675466
112.598 104.116 147.043 -0.728101 0.116683 0.675466
112.35 104.583 146.696 -0.728101 0.116683 0.675466
113.259 104.722 146.966 -0.316333 0.452434 0.833809
112.35 104.583 146.696 -0.316333 0.452434 0.833809
112.598 104.116 147.043 -0.316333 0.452434 0.833809
113.458 104.152 147.622 -0.46607 0.593106 0.656509
113.259 104.722 146.966 -0.46607 0.593106 0.656509
112.598 104.116 147.043 -0.46607 0.593106 0.656509
113.458 104.152 147.622 -0.0880982 0.592903 0.800441
114.351 103.866 147.932 -0.0880982 0.592903 0.800441
114.313 104.336 147.58 -0.0880982 0.592903 0.800441
113.458 104.152 147.622 -0.124038 0.730329 0.671739
114.313 104.336 147.58 -0.124038 0.730329 0.671739
113.259 104.722 146.966 -0.124038 0.730329 0.671739
113.259 104.722 146.966 -0.0273397 0.824585 0.565077
114.313 104.336 147.58 -0.0273397 0.824585 0.565077
114.264 104.783 146.924 -0.0273397 0.824585 0.565077
114.947 104.129 147.721 0.411207 0.721454 0.557146
115.578 103.965 147.468 0.411207 0.721454 0.557146
115.212 104.526 147.012 0.411207 0.721454 0.557146
114.947 104.129 147.721 0.154724 0.8365 0.52567
115.212 104.526 147.012 0.154724 0.8365 0.52567
114.313 104.336 147.58 0.154724 0.8365 0.52567
114.313 104.336 147.58 0.171691 0.819473 0.546796
115.212 104.526 147.012 0.171691 0.819473 0.546796
114.264 104.783 146.924 0.171691 0.819473 0.546796
116.017 104.15 146.871 0.432481 0.721735 0.540425
115.212 104.526 147.012 0.432481 0.721735 0.540425
115.578 103.965 147.468 0.432481 0.721735 0.540425
113.665 103.263 147.808 -0.147625 -0.870828 0.468898
114.42 103.086 147.717 -0.147625 -0.870828 0.468898
114.4 103.276 148.064 -0.147625 -0.870828 0.468898
114.42 103.086 147.717 0.0514384 -0.869075 0.491999
115.479 103.045 147.535 0.0514384 -0.869075 0.491999
115.159 103.277 147.977 0.0514384 -0.869075 0.491999
114.4 103.276 148.064 0.0560672 -0.874078 0.482539
114.42 103.086 147.717 0.0560672 -0.874078 0.482539
115.159 103.277 147.977 0.0560672 -0.874078 0.482539
115.479 103.045 147.535 0.335119 -0.713148 0.615724
115.676 103.329 147.757 0.335119 -0.713148 0.615724
115.159 103.277 147.977 0.335119 -0.713148 0.615724
113.326 103.231 147.575 -0.543064 -0.200213 0.815473
113.665 103.263 147.808 -0.543064 -0.200213 0.815473
113.336 103.593 147.671 -0.543064 -0.200213 0.815473
114.351 103.866 147.932 -0.277898 0.121392 0.95291
113.336 103.593 147.671 -0.277898 0.121392 0.95291
113.665 103.263 147.808 -0.277898 0.121392 0.95291
114.351 103.866 147.932 -0.326515 0.181805 0.927542
113.665 103.263 147.808 -0.326515 0.181805 0.927542
114.4 103.276 148.064 -0.326515 0.181805 0.927542
115.293 103.716 147.861 0.133902 0.415682 0.899599
114.947 104.129 147.721 0.133902 0.415682 0.899599
114.351 103.866 147.932 0.133902 0.415682 0.899599
115.293 103.716 147.861 0.108413 0.223831 0.96858
114.351 103.866 147.932 0.108413 0.223831 0.96858
115.159 103.277 147.977 0.108413 0.223831 0.96858
115.159 103.277 147.977 0.110887 0.22714 0.967529
114.351 103.866 147.932 0.110887 0.22714 0.967529
114.4 103.276 148.064 0.110887 0.22714 0.967529
115.676 103.329 147.757 0.378705 0.127291 0.916722
115.293 103.716 147.861 0.378705 0.127291 0.916722
115.159 103.277 147.977 0.378705 0.127291 0.916722
114.947 104.129 147.721 0.0170401 0.600557 0.799401
114.313 104.336 147.58 0.0170401 0.600557 0.799401
114.351 103.866 147.932 0.0170401 0.600557 0.799401
3 0 1 2
3 3 4 5
3 6 7 8
3 9 10 11
3 12 13 14
3 15 16 17
3 18 19 20
3 21 22 23
3 24 25 26
3 27 28 29
3 30 31 32
3 33 34 35
3 36 37 38
3 39 40 41
3 42 43 44
3 45 46 47
3 48 49 50
3 51 52 53
3 54 55 56
3 57 58 59
3 60 61 62
3 63 64 65
3 66 67 68
3 69 70 71
3 72 73 74
3 75 76 77
3 78 79 80
3 81 82 83
3 84 85 86
3 87 88 89
3 90 91 92
3 93 94 95
3 96 97 98
3 99 100 101
3 102 103 104
3 105 106 107
3 108 109 110
3 111 112 113
3 114 115 116
3 117 118 119
3 120 121 122
3 123 124 125
3 126 127 128
3 129 130 131
3 132 133 134
3 135 136 137
3 138 139 140
3 141 142 143
3 144 145 146
3 147 148 149
3 150 151 152
3 153 154 155
3 156 157 158
3 159 160 161
3 162 163 164
3 165 166 167
3 168 169 170
3 171 172 173
3 174 175 176
3 177 178 179
3 180 181 182
3 183 184 185
3 186 187 188
3 189 190 191
3 192 193 194
3 195 196 197
3 198 199 200
3 201 202 203
3 204 205 206
3 207 208 209
3 210 211 212
3 213 214 215
3 216 217 218
3 219 220 221
3 222 223 224
3 225 226 227
3 228 229 230
3 231 232 233
3 234 235 236
3 237 238 239
3 240 241 242
3 243 244 245
3 246 247 248
3 249 250 251
3 252 253 254
3 255 256 257
3 258 259 260
3 261 262 263
3 264 265 266
3 267 268 269
3 270 271 272
3 273 274 275
3 276 277 278
3 279 280 281
3 282 283 284
3 285 286 287
3 288 289 290
3 291 292 293
3 294 295 296
3 297 298 299
3 300 301 302
3 303 304 305
3 306 307 308
3 309 310 311
3 312 313 314
3 315 316 317
3 318 319 320
3 321 322 323
3 324 325 326
3 327 328 329
3 330 331 332
3 333 334 335
3 336 337 338
3 339 340 341
3 342 343 344
3 345 346 347
3 348 349 350
3 351 352 353
3 354 355 356
3 357 358 359
3 360 361 362
3 363 364 365
3 366 367 368
3 369 370 371
3 372 373 374
3 375 376 377
3 378 379 380
3 381 382 383
3 384 385 386
3 387 388 389
3 390 391 392
3 393 394 395
3 396 397 398
3 399 400 401
3 402 403 404
3 405 406 407
3 408 409 410
3 411 412 413
3 414 415 416
3 417 418 419
3 420 421 422
3 423 424 425
3 426 427 428
3 429 430 431
3 432 433 434
3 435 436 437
3 438 439 440
3 441 442 443
3 444 445 446
3 447 448 449
3 450 451 452
3 453 454 455
3 456 457 458
3 459 460 461
3 462 463 464
3 465 466 467
3 468 469 470
3 471 472 473
3 474 475 476
3 477 478 479
3 480 481 482
3 483 484 485
3 486 487 488
3 489 490 491
3 492 493 494
3 495 496 497
3 498 499 500
3 501 502 503
3 504 505 506
3 507 508 509
3 510 511 512
3 513 514 515
3 516 517 518
3 519 520 521
3 522 523 524
3 525 526 527
3 528 529 530
3 531 532 533
3 534 535 536
3 537 538 539
3 540 541 542
3 543 544 545
3 546 547 548
3 549 550 551
3 552 553 554
3 555 556 557
3 558 559 560
3 561 562 563
3 564 565 566
3 567 568 569
3 570 571 572
3 573 574 575
3 576 577 578
3 579 580 581
3 582 583 584
3 585 586 587
3 588 589 590
3 591 592 593
3 594 595 596
3 597 598 599
3 600 601 602
3 603 604 605
3 606 607 608
3 609 610 611
3 612 613 614
3 615 616 617
3 618 619 620
3 621 622 623
3 624 625 626
3 627 628 629
3 630 631 632
3 633 634 635
3 636 637 638
3 639 640 641
3 642 643 644
3 645 646 647
3 648 649 650
3 651 652 653
3 654 655 656
3 657 658 659
3 660 661 662
3 663 664 665
3 666 667 668
3 669 670 671
3 672 673 674
3 675 676 677
3 678 679 680
3 681 682 683
3 684 685 686
3 687 688 689
3 690 691 692
3 693 694 695
3 696 697 698
3 699 700 701
3 702 703 704
3 705 706 707
3 708 709 710
3 711 712 713
3 714 715 716
3 717 718 719
3 720 721 722
3 723 724 725
3 726 727 728
3 729 730 731
3 732 733 734
3 735 736 737
3 738 739 740
3 741 742 743
3 744 745 746
3 747 748 749
3 750 751 752
3 753 754 755
3 756 757 758
3 759 760 761
3 762 763 764
3 765 766 767
3 768 769 770
3 771 772 773
3 774 775 776
3 777 778 779
3 780 781 782
3 783 784 785
3 786 787 788
3 789 790 791
3 792 793 794
3 795 796 797
