ply
format ascii 1.0
element vertex 102
property float x
property float y
property float z
property float nx
property float ny
property float nz
element face 34
property list uint uint vertex_indices
end_header
99.0756 114.693 187.43 -0.457279 -0.409445 -0.789463
99.136 113.952 187.779 -0.457279 -0.409445 -0.789463
98.6785 114.598 187.709 -0.457279 -0.409445 -0.789463
99.136 113.952 187.779 0.245318 -0.396876 -0.884482
99.0756 114.693 187.43 0.245318 -0.396876 -0.884482
99.6566 114.543 187.658 0.245318 -0.396876 -0.884482
98.9616 115.302 187.537 -0.579979 0.0352569 -0.813868
99.0756 114.693 187.43 -0.579979 0.0352569 -0.813868
98.6785 114.598 187.709 -0.579979 0.0352569 -0.813868
98.8795 115.268 187.759 -0.90991 0.295197 -0.291414
98.9616 115.302 187.537 -0.90991 0.295197 -0.291414
98.6785 114.598 187.709 -0.90991 0.295197 -0.291414
99.2157 115.232 187.629 0.405895 0.222601 -0.886396
99.6566 114.543 187.658 0.405895 0.222601 -0.886396
99.0756 114.693 187.43 0.405895 0.222601 -0.886396
98.9616 115.302 187.537 0.386813 0.23001 -0.893012
99.2157 115.232 187.629 0.386813 0.23001 -0.893012
99.0756 114.693 187.43 0.386813 0.23001 -0.893012
98.9616 115.302 187.537 -0.826446 0.515213 -0.227029
98.8795 115.268 187.759 -0.826446 0.515213 -0.227029
99.0196 115.456 187.675 -0.826446 0.515213 -0.227029
99.2157 115.232 187.629 0.414154 0.515441 -0.750198
98.9616 115.302 187.537 0.414154 0.515441 -0.750198
99.0196 115.456 187.675 0.414154 0.515441 -0.750198
99.042 113.683 188.058 -0.274661 -0.900247 0.337813
99.0725 113.901 188.665 -0.274661 -0.900247 0.337813
98.6416 113.88 188.259 -0.274661 -0.900247 0.337813
99.0725 113.901 188.665 -0.00169413 -0.940883 0.338727
99.042 113.683 188.058 -0.00169413 -0.940883 0.338727
99.5373 113.797 188.379 -0.00169413 -0.940883 0.338727
99.136 113.952 187.779 -0.571476 -0.485514 -0.661583
99.042 113.683 188.058 -0.571476 -0.485514 -0.661583
98.6416 113.88 188.259 -0.571476 -0.485514 -0.661583
99.136 113.952 187.779 -0.574541 -0.478899 -0.663745
98.6416 113.88 188.259 -0.574541 -0.478899 -0.663745
98.6785 114.598 187.709 -0.574541 -0.478899 -0.663745
98.6785 114.598 187.709 -0.999146 0.0279461 -0.0304187
98.6416 113.88 188.259 -0.999146 0.0279461 -0.0304187
98.657 114.56 188.379 -0.999146 0.0279461 -0.0304187
99.6566 114.543 187.658 0.920672 -0.136348 -0.36575
99.7978 114.686 187.96 0.920672 -0.136348 -0.36575
99.8229 114.132 188.23 0.920672 -0.136348 -0.36575
99.136 113.952 187.779 0.543039 -0.599093 -0.588384
99.6566 114.543 187.658 0.543039 -0.599093 -0.588384
99.8229 114.132 188.23 0.543039 -0.599093 -0.588384
99.136 113.952 187.779 0.519713 -0.676099 -0.522292
99.8229 114.132 188.23 0.519713 -0.676099 -0.522292
99.5373 113.797 188.379 0.519713 -0.676099 -0.522292
99.136 113.952 187.779 0.49441 -0.702327 -0.512147
99.5373 113.797 188.379 0.49441 -0.702327 -0.512147
99.042 113.683 188.058 0.49441 -0.702327 -0.512147
99.8229 114.132 188.23 0.993223 0.0841897 0.0801259
99.7978 114.686 187.96 0.993223 0.0841897 0.0801259
99.7712 114.386 188.604 0.993223 0.0841897 0.0801259
99.1348 115.106 188.251 -0.564396 0.650659 0.508035
99.0196 115.456 187.675 -0.564396 0.650659 0.508035
98.8795 115.268 187.759 -0.564396 0.650659 0.508035
99.1348 115.106 188.251 -0.583344 0.631024 0.511389
98.8795 115.268 187.759 -0.583344 0.631024 0.511389
98.657 114.56 188.379 -0.583344 0.631024 0.511389
98.657 114.56 188.379 -0.957381 0.288475 -0.0142653
98.8795 115.268 187.759 -0.957381 0.288475 -0.0142653
98.6785 114.598 187.709 -0.957381 0.288475 -0.0142653
99.7978 114.686 187.96 0.495395 0.861 -0.115167
99.1348 115.106 188.251 0.495395 0.861 -0.115167
99.7229 114.799 188.483 0.495395 0.861 -0.115167
99.7978 114.686 187.96 0.591545 0.771796 0.233249
99.2157 115.232 187.629 0.591545 0.771796 0.233249
99.1348 115.106 188.251 0.591545 0.771796 0.233249
99.7978 114.686 187.96 0.717961 0.436752 -0.542014
99.6566 114.543 187.658 0.717961 0.436752 -0.542014
99.2157 115.232 187.629 0.717961 0.436752 -0.542014
99.2157 115.232 187.629 0.755406 0.616122 0.223059
99.0196 115.456 187.675 0.755406 0.616122 0.223059
99.1348 115.106 188.251 0.755406 0.616122 0.223059
99.7712 114.386 188.604 0.983076 0.147208 0.109044
99.7978 114.686 187.96 0.983076 0.147208 0.109044
99.7229 114.799 188.483 0.983076 0.147208 0.109044
99.0725 113.901 188.665 -0.60119 -0.0326543 0.798439
99.1787 114.571 188.772 -0.60119 -0.0326543 0.798439
98.657 114.56 188.379 -0.60119 -0.0326543 0.798439
98.6416 113.88 188.259 -0.678787 -0.113212 0.725556
99.0725 113.901 188.665 -0.678787 -0.113212 0.725556
98.657 114.56 188.379 -0.678787 -0.113212 0.725556
99.5373 113.797 188.379 0.772783 -0.470708 0.425724
99.8229 114.132 188.23 0.772783 -0.470708 0.425724
99.7712 114.386 188.604 0.772783 -0.470708 0.425724
99.5373 113.797 188.379 0.388457 -0.460771 0.797992
99.7712 114.386 188.604 0.388457 -0.460771 0.797992
99.0725 113.901 188.665 0.388457 -0.460771 0.797992
99.0725 113.901 188.665 0.213009 -0.187536 0.958884
99.7712 114.386 188.604 0.213009 -0.187536 0.958884
99.1787 114.571 188.772 0.213009 -0.187536 0.958884
98.657 114.56 188.379 -0.495797 0.58502 0.641823
99.1787 114.571 188.772 -0.495797 0.58502 0.641823
99.1348 115.106 188.251 -0.495797 0.58502 0.641823
99.7229 114.799 188.483 0.0851486 0.699108 0.709928
99.1348 115.106 188.251 0.0851486 0.699108 0.709928
99.1787 114.571 188.772 0.0851486 0.699108 0.709928
99.7712 114.386 188.604 0.346095 0.302008 0.888262
99.7229 114.799 188.483 0.346095 0.302008 0.888262
99.1787 114.571 188.772 0.346095 0.302008 0.888262
3 0 1 2
3 3 4 5
3 6 7 8
3 9 10 11
3 12 13 14
3 15 16 17
3 18 19 20
3 21 22 23
3 24 25 26
3 27 28 29
3 30 31 32
3 33 34 35
3 36 37 38
3 39 40 41
3 42 43 44
3 45 46 47
3 48 49 50
3 51 52 53
3 54 55 56
3 57 58 59
3 60 61 62
3 63 64 65
3 66 67 68
3 69 70 71
3 72 73 74
3 75 76 77
3 78 79 80
3 81 82 83
3 84 85 86
3 87 88 89
3 90 91 92
3 93 94 95
3 96 97 98
3 99 100 101
