ply
format ascii 1.0
element vertex 180
property float x
property float y
property float z
property float nx
property float ny
property float nz
element face 60
property list uint uint vertex_indices
end_header
107.802 144.03 184.414 -0.716477 -0.013293 -0.697484
107.782 143.859 184.438 -0.716477 -0.013293 -0.697484
107.692 144.093 184.525 -0.716477 -0.013293 -0.697484
107.782 143.859 184.438 0.969798 -0.143945 -0.196907
107.802 144.03 184.414 0.969798 -0.143945 -0.196907
107.827 144.012 184.551 0.969798 -0.143945 -0.196907
107.783 144.56 184.44 -0.709669 0.0105923 -0.704456
107.802 144.03 184.414 -0.709669 0.0105923 -0.704456
107.692 144.093 184.525 -0.709669 0.0105923 -0.704456
107.6 144.717 184.666 -0.764519 0.0323105 -0.643791
107.783 144.56 184.44 -0.764519 0.0323105 -0.643791
107.692 144.093 184.525 -0.764519 0.0323105 -0.643791
107.929 144.56 184.611 0.967393 -0.157706 -0.198192
107.827 144.012 184.551 0.967393 -0.157706 -0.198192
107.802 144.03 184.414 0.967393 -0.157706 -0.198192
107.783 144.56 184.44 0.759353 0.0593021 -0.647971
107.929 144.56 184.611 0.759353 0.0593021 -0.647971
107.802 144.03 184.414 0.759353 0.0593021 -0.647971
107.783 144.56 184.44 -0.0983099 0.777739 -0.620852
107.6 144.717 184.666 -0.0983099 0.777739 -0.620852
107.965 144.811 184.727 -0.0983099 0.777739 -0.620852
107.929 144.56 184.611 0.747383 0.1862 -0.637768
107.783 144.56 184.44 0.747383 0.1862 -0.637768
107.965 144.811 184.727 0.747383 0.1862 -0.637768
107.782 143.859 184.438 -0.924575 -0.37543 0.0649126
107.729 144.027 184.667 -0.924575 -0.37543 0.0649126
107.692 144.093 184.525 -0.924575 -0.37543 0.0649126
107.827 144.012 184.551 0.581756 -0.586192 0.56386
107.729 144.027 184.667 0.581756 -0.586192 0.56386
107.782 143.859 184.438 0.581756 -0.586192 0.56386
108.722 144.096 185.424 -0.759496 -0.507847 -0.406519
108.851 143.866 185.47 -0.759496 -0.507847 -0.406519
108.663 144.05 185.593 -0.759496 -0.507847 -0.406519
108.851 143.866 185.47 0.642611 0.21382 -0.735753
108.722 144.096 185.424 0.642611 0.21382 -0.735753
108.843 144.047 185.515 0.642611 0.21382 -0.735753
107.729 144.027 184.667 -0.314427 -0.759217 0.569847
107.945 144.464 185.369 -0.314427 -0.759217 0.569847
107.41 144.674 185.353 -0.314427 -0.759217 0.569847
107.729 144.027 184.667 -0.889094 -0.457385 0.0176019
107.41 144.674 185.353 -0.889094 -0.457385 0.0176019
107.692 144.093 184.525 -0.889094 -0.457385 0.0176019
107.692 144.093 184.525 -0.959363 -0.0812352 -0.270227
107.41 144.674 185.353 -0.959363 -0.0812352 -0.270227
107.6 144.717 184.666 -0.959363 -0.0812352 -0.270227
108.722 144.096 185.424 -0.139417 -0.428231 -0.89285
107.945 144.464 185.369 -0.139417 -0.428231 -0.89285
108.482 144.648 185.197 -0.139417 -0.428231 -0.89285
108.722 144.096 185.424 -0.377853 -0.850982 -0.364769
108.663 144.05 185.593 -0.377853 -0.850982 -0.364769
107.945 144.464 185.369 -0.377853 -0.850982 -0.364769
108.482 144.648 185.197 0.285349 -0.950128 -0.12583
107.945 144.464 185.369 0.285349 -0.950128 -0.12583
107.929 144.56 184.611 0.285349 -0.950128 -0.12583
107.729 144.027 184.667 0.361239 -0.837309 0.410391
107.827 144.012 184.551 0.361239 -0.837309 0.410391
107.945 144.464 185.369 0.361239 -0.837309 0.410391
107.929 144.56 184.611 0.983128 -0.177616 -0.0437262
107.945 144.464 185.369 0.983128 -0.177616 -0.0437262
107.827 144.012 184.551 0.983128 -0.177616 -0.0437262
108.579 144.762 185.544 0.647519 0.267559 -0.713534
108.843 144.047 185.515 0.647519 0.267559 -0.713534
108.722 144.096 185.424 0.647519 0.267559 -0.713534
108.482 144.648 185.197 0.906589 0.255163 -0.336137
108.579 144.762 185.544 0.906589 0.255163 -0.336137
108.722 144.096 185.424 0.906589 0.255163 -0.336137
107.6 144.717 184.666 -0.680118 0.719021 -0.142998
107.41 144.674 185.353 -0.680118 0.719021 -0.142998
107.83 145.067 185.332 -0.680118 0.719021 -0.142998
107.965 144.811 184.727 -0.162741 0.8953 -0.414673
107.6 144.717 184.666 -0.162741 0.8953 -0.414673
107.83 145.067 185.332 -0.162741 0.8953 -0.414673
108.482 144.648 185.197 0.693186 0.216849 -0.687364
107.929 144.56 184.611 0.693186 0.216849 -0.687364
107.965 144.811 184.727 0.693186 0.216849 -0.687364
108.482 144.648 185.197 0.582546 0.710607 -0.394561
107.965 144.811 184.727 0.582546 0.710607 -0.394561
108.579 144.762 185.544 0.582546 0.710607 -0.394561
108.579 144.762 185.544 0.427988 0.862719 -0.269337
107.965 144.811 184.727 0.427988 0.862719 -0.269337
107.83 145.067 185.332 0.427988 0.862719 -0.269337
108.851 143.866 185.47 -0.358879 -0.743369 0.564454
108.849 143.954 185.585 -0.358879 -0.743369 0.564454
108.663 144.05 185.593 -0.358879 -0.743369 0.564454
108.851 143.866 185.47 0.998248 0.0529047 -0.0265078
108.843 144.047 185.515 0.998248 0.0529047 -0.0265078
108.849 143.954 185.585 0.998248 0.0529047 -0.0265078
107.945 144.464 185.369 -0.414623 -0.908822 0.0461585
108.021 144.482 186.396 -0.414623 -0.908822 0.0461585
107.574 144.691 186.495 -0.414623 -0.908822 0.0461585
107.41 144.674 185.353 -0.365605 -0.928409 0.0662521
107.945 144.464 185.369 -0.365605 -0.928409 0.0662521
107.574 144.691 186.495 -0.365605 -0.928409 0.0662521
108.663 144.05 185.593 -0.511778 -0.857519 0.05239
108.021 144.482 186.396 -0.511778 -0.857519 0.05239
107.945 144.464 185.369 -0.511778 -0.857519 0.05239
108.663 144.05 185.593 0.497524 -0.53308 0.684321
108.712 144.487 185.897 0.497524 -0.53308 0.684321
108.021 144.482 186.396 0.497524 -0.53308 0.684321
108.663 144.05 185.593 -0.243369 -0.536142 0.808284
108.849 143.954 185.585 -0.243369 -0.536142 0.808284
108.712 144.487 185.897 -0.243369 -0.536142 0.808284
108.39 144.633 186.557 0.236083 -0.918218 0.318024
108.021 144.482 186.396 0.236083 -0.918218 0.318024
108.712 144.487 185.897 0.236083 -0.918218 0.318024
108.843 144.047 185.515 0.934159 0.347616 -0.0806815
108.579 144.762 185.544 0.934159 0.347616 -0.0806815
108.712 144.487 185.897 0.934159 0.347616 -0.0806815
108.849 143.954 185.585 0.975654 0.172965 0.134842
108.843 144.047 185.515 0.975654 0.172965 0.134842
108.712 144.487 185.897 0.975654 0.172965 0.134842
107.41 144.674 185.353 -0.67634 0.731493 0.0864993
107.574 144.691 186.495 -0.67634 0.731493 0.0864993
107.894 145.005 186.338 -0.67634 0.731493 0.0864993
107.83 145.067 185.332 -0.678471 0.729304 0.0882794
107.41 144.674 185.353 -0.678471 0.729304 0.0882794
107.894 145.005 186.338 -0.678471 0.729304 0.0882794
108.39 144.633 186.557 0.737828 0.638338 0.219397
108.712 144.487 185.897 0.737828 0.638338 0.219397
108.579 144.762 185.544 0.737828 0.638338 0.219397
108.39 144.633 186.557 0.527888 0.824472 0.203913
108.579 144.762 185.544 0.527888 0.824472 0.203913
107.894 145.005 186.338 0.527888 0.824472 0.203913
107.894 145.005 186.338 0.368845 0.928845 0.0346419
108.579 144.762 185.544 0.368845 0.928845 0.0346419
107.83 145.067 185.332 0.368845 0.928845 0.0346419
108.021 144.482 186.396 -0.356263 -0.817501 -0.452513
107.968 144.047 187.224 -0.356263 -0.817501 -0.452513
107.768 144.137 187.219 -0.356263 -0.817501 -0.452513
108.021 144.482 186.396 -0.457352 -0.761162 -0.459849
107.768 144.137 187.219 -0.457352 -0.761162 -0.459849
107.574 144.691 186.495 -0.457352 -0.761162 -0.459849
107.574 144.691 186.495 -0.97784 -0.145138 0.150875
107.768 144.137 187.219 -0.97784 -0.145138 0.150875
107.724 144.567 187.349 -0.97784 -0.145138 0.150875
107.968 144.047 187.224 0.486618 -0.78544 -0.382474
108.021 144.482 186.396 0.486618 -0.78544 -0.382474
108.39 144.633 186.557 0.486618 -0.78544 -0.382474
107.968 144.047 187.224 0.534131 -0.773241 -0.341765
108.39 144.633 186.557 0.534131 -0.773241 -0.341765
108.209 144.155 187.355 0.534131 -0.773241 -0.341765
108.209 144.155 187.355 0.905153 0.241061 0.350125
108.39 144.633 186.557 0.905153 0.241061 0.350125
108.117 144.711 187.208 0.905153 0.241061 0.350125
107.574 144.691 186.495 -0.883105 0.416629 0.215743
107.724 144.567 187.349 -0.883105 0.416629 0.215743
107.807 144.818 187.202 -0.883105 0.416629 0.215743
107.894 145.005 186.338 -0.675017 0.732213 0.0906437
107.574 144.691 186.495 -0.675017 0.732213 0.0906437
107.807 144.818 187.202 -0.675017 0.732213 0.0906437
108.117 144.711 187.208 0.55576 0.820493 0.13387
108.39 144.633 186.557 0.55576 0.820493 0.13387
107.894 145.005 186.338 0.55576 0.820493 0.13387
107.807 144.818 187.202 0.312627 0.921502 0.230429
108.117 144.711 187.208 0.312627 0.921502 0.230429
107.894 145.005 186.338 0.312627 0.921502 0.230429
107.968 144.047 187.224 -0.407728 -0.909585 -0.0800877
107.869 144.064 187.535 -0.407728 -0.909585 -0.0800877
107.768 144.137 187.219 -0.407728 -0.909585 -0.0800877
107.968 144.047 187.224 0.333365 -0.92933 0.158787
108.209 144.155 187.355 0.333365 -0.92933 0.158787
107.869 144.064 187.535 0.333365 -0.92933 0.158787
107.869 144.064 187.535 -0.615281 0.113583 0.780082
107.901 144.569 187.488 -0.615281 0.113583 0.780082
107.724 144.567 187.349 -0.615281 0.113583 0.780082
107.768 144.137 187.219 -0.949445 -0.175229 0.26048
107.869 144.064 187.535 -0.949445 -0.175229 0.26048
107.724 144.567 187.349 -0.949445 -0.175229 0.26048
108.209 144.155 187.355 0.681761 0.289247 0.671966
108.117 144.711 187.208 0.681761 0.289247 0.671966
107.901 144.569 187.488 0.681761 0.289247 0.671966
107.869 144.064 187.535 0.457808 0.0539352 0.887413
108.209 144.155 187.355 0.457808 0.0539352 0.887413
107.901 144.569 187.488 0.457808 0.0539352 0.887413
107.724 144.567 187.349 -0.5203 0.551378 0.652127
107.901 144.569 187.488 -0.5203 0.551378 0.652127
107.807 144.818 187.202 -0.5203 0.551378 0.652127
108.117 144.711 187.208 0.254097 0.769368 0.586095
107.807 144.818 187.202 0.254097 0.769368 0.586095
107.901 144.569 187.488 0.254097 0.769368 0.586095
3 0 1 2
3 3 4 5
3 6 7 8
3 9 10 11
3 12 13 14
3 15 16 17
3 18 19 20
3 21 22 23
3 24 25 26
3 27 28 29
3 30 31 32
3 33 34 35
3 36 37 38
3 39 40 41
3 42 43 44
3 45 46 47
3 48 49 50
3 51 52 53
3 54 55 56
3 57 58 59
3 60 61 62
3 63 64 65
3 66 67 68
3 69 70 71
3 72 73 74
3 75 76 77
3 78 79 80
3 81 82 83
3 84 85 86
3 87 88 89
3 90 91 92
3 93 94 95
3 96 97 98
3 99 100 101
3 102 103 104
3 105 106 107
3 108 109 110
3 111 112 113
3 114 115 116
3 117 118 119
3 120 121 122
3 123 124 125
3 126 127 128
3 129 130 131
3 132 133 134
3 135 136 137
3 138 139 140
3 141 142 143
3 144 145 146
3 147 148 149
3 150 151 152
3 153 154 155
3 156 157 158
3 159 160 161
3 162 163 164
3 165 166 167
3 168 169 170
3 171 172 173
3 174 175 176
3 177 178 179
