ply
format ascii 1.0
element vertex 366
property float x
property float y
property float z
property float nx
property float ny
property float nz
element face 122
property list uint uint vertex_indices
end_header
98.1396 180.565 127.963 -0.686235 0.0198422 -0.72711
97.9383 180.306 128.146 -0.686235 0.0198422 -0.72711
97.8709 180.583 128.217 -0.686235 0.0198422 -0.72711
97.9383 180.306 128.146 0.757004 -0.647953 -0.084265
98.1396 180.565 127.963 0.757004 -0.647953 -0.084265
98.0836 180.46 128.268 0.757004 -0.647953 -0.084265
98.1417 181.246 127.938 -0.687713 -0.0244057 -0.725572
98.1396 180.565 127.963 -0.687713 -0.0244057 -0.725572
97.8709 180.583 128.217 -0.687713 -0.0244057 -0.725572
97.8165 181.389 128.38 -0.792708 0.0689203 -0.605693
98.1417 181.246 127.938 -0.792708 0.0689203 -0.605693
97.8709 180.583 128.217 -0.792708 0.0689203 -0.605693
98.7182 180.988 128.293 0.636385 -0.757779 -0.144172
98.0836 180.46 128.268 0.636385 -0.757779 -0.144172
98.1396 180.565 127.963 0.636385 -0.757779 -0.144172
98.7182 180.988 128.293 0.660637 -0.707477 -0.251066
98.1396 180.565 127.963 0.660637 -0.707477 -0.251066
99.0008 181.427 127.799 0.660637 -0.707477 -0.251066
99.0008 181.427 127.799 -0.15181 -0.0356601 -0.987766
98.1396 180.565 127.963 -0.15181 -0.0356601 -0.987766
98.1417 181.246 127.938 -0.15181 -0.0356601 -0.987766
98.7182 180.988 128.293 0.642204 -0.717282 -0.270335
99.0008 181.427 127.799 0.642204 -0.717282 -0.270335
99.2605 181.427 128.417 0.642204 -0.717282 -0.270335
98.1417 181.246 127.938 -0.739651 0.249464 -0.625048
97.8165 181.389 128.38 -0.739651 0.249464 -0.625048
98.1346 181.72 128.136 -0.739651 0.249464 -0.625048
98.1346 181.72 128.136 -0.627808 0.508884 -0.588977
98.5633 182.464 128.321 -0.627808 0.508884 -0.588977
98.9615 182.23 127.695 -0.627808 0.508884 -0.588977
98.1346 181.72 128.136 -0.587391 0.303875 -0.750088
98.9615 182.23 127.695 -0.587391 0.303875 -0.750088
98.1417 181.246 127.938 -0.587391 0.303875 -0.750088
98.1417 181.246 127.938 -0.130115 -0.134258 -0.982367
98.9615 182.23 127.695 -0.130115 -0.134258 -0.982367
99.0008 181.427 127.799 -0.130115 -0.134258 -0.982367
99.8171 182.027 128.218 0.657016 -0.701317 -0.276558
99.2605 181.427 128.417 0.657016 -0.701317 -0.276558
99.0008 181.427 127.799 0.657016 -0.701317 -0.276558
99.8171 182.027 128.218 0.651899 -0.474065 -0.591853
99.0008 181.427 127.799 0.651899 -0.474065 -0.591853
99.8407 182.37 127.969 0.651899 -0.474065 -0.591853
99.8407 182.37 127.969 0.311638 -0.107644 -0.944084
99.0008 181.427 127.799 0.311638 -0.107644 -0.944084
98.9615 182.23 127.695 0.311638 -0.107644 -0.944084
99.8171 182.027 128.218 0.809352 -0.380278 -0.447591
99.8407 182.37 127.969 0.809352 -0.380278 -0.447591
100.093 182.411 128.39 0.809352 -0.380278 -0.447591
99.0548 183.078 127.939 -0.770889 0.253339 -0.584423
98.9615 182.23 127.695 -0.770889 0.253339 -0.584423
98.5633 182.464 128.321 -0.770889 0.253339 -0.584423
98.8555 183.254 128.377 -0.80123 0.331351 -0.498234
99.0548 183.078 127.939 -0.80123 0.331351 -0.498234
98.5633 182.464 128.321 -0.80123 0.331351 -0.498234
99.8407 182.37 127.969 0.320513 -0.198303 -0.926255
98.9615 182.23 127.695 0.320513 -0.198303 -0.926255
99.7504 183.131 127.775 0.320513 -0.198303 -0.926255
99.7504 183.131 127.775 -0.241219 0.293318 -0.925083
98.9615 182.23 127.695 -0.241219 0.293318 -0.925083
99.0548 183.078 127.939 -0.241219 0.293318 -0.925083
100.158 183.173 128.381 0.85878 -0.0792092 -0.506185
100.093 182.411 128.39 0.85878 -0.0792092 -0.506185
99.8407 182.37 127.969 0.85878 -0.0792092 -0.506185
99.7504 183.131 127.775 0.830726 -0.0430385 -0.555015
100.158 183.173 128.381 0.830726 -0.0430385 -0.555015
99.8407 182.37 127.969 0.830726 -0.0430385 -0.555015
99.0548 183.078 127.939 -0.590389 0.618908 -0.518068
98.8555 183.254 128.377 -0.590389 0.618908 -0.518068
99.2285 183.453 128.189 -0.590389 0.618908 -0.518068
99.7504 183.131 127.775 -0.226323 0.610765 -0.758778
99.0548 183.078 127.939 -0.226323 0.610765 -0.758778
99.2285 183.453 128.189 -0.226323 0.610765 -0.758778
99.8763 183.614 128.4 0.00239891 0.791523 -0.611135
99.7504 183.131 127.775 0.00239891 0.791523 -0.611135
99.2285 183.453 128.189 0.00239891 0.791523 -0.611135
100.158 183.173 128.381 0.713901 0.477579 -0.512117
99.7504 183.131 127.775 0.713901 0.477579 -0.512117
99.8763 183.614 128.4 0.713901 0.477579 -0.512117
97.9383 180.306 128.146 -0.966808 -0.249416 0.0554471
97.9081 180.483 128.417 -0.966808 -0.249416 0.0554471
97.8709 180.583 128.217 -0.966808 -0.249416 0.0554471
97.9383 180.306 128.146 0.355932 -0.763998 0.538164
98.0836 180.46 128.268 0.355932 -0.763998 0.538164
97.9081 180.483 128.417 0.355932 -0.763998 0.538164
97.9081 180.483 128.417 -0.563751 -0.589836 0.578168
98.1222 180.997 129.15 -0.563751 -0.589836 0.578168
97.7687 181.171 128.983 -0.563751 -0.589836 0.578168
97.9081 180.483 128.417 -0.968014 -0.244018 0.0583501
97.7687 181.171 128.983 -0.968014 -0.244018 0.0583501
97.8709 180.583 128.217 -0.968014 -0.244018 0.0583501
97.8709 180.583 128.217 -0.994253 -0.0478133 -0.0957858
97.7687 181.171 128.983 -0.994253 -0.0478133 -0.0957858
97.8165 181.389 128.38 -0.994253 -0.0478133 -0.0957858
98.0836 180.46 128.268 0.304011 -0.819503 0.48579
98.1222 180.997 129.15 0.304011 -0.819503 0.48579
97.9081 180.483 128.417 0.304011 -0.819503 0.48579
98.0836 180.46 128.268 0.574745 -0.709844 0.407173
98.7182 180.988 128.293 0.574745 -0.709844 0.407173
98.1222 180.997 129.15 0.574745 -0.709844 0.407173
98.7182 180.988 128.293 0.239621 -0.954615 0.176896
98.8916 181.173 129.057 0.239621 -0.954615 0.176896
98.1222 180.997 129.15 0.239621 -0.954615 0.176896
98.8916 181.173 129.057 0.621722 -0.781745 0.0483306
98.7182 180.988 128.293 0.621722 -0.781745 0.0483306
99.2605 181.427 128.417 0.621722 -0.781745 0.0483306
99.2132 181.502 129.263 0.678848 -0.727031 0.102916
98.8916 181.173 129.057 0.678848 -0.727031 0.102916
99.2605 181.427 128.417 0.678848 -0.727031 0.102916
97.9938 182.041 128.619 -0.781185 0.390963 -0.486722
98.1346 181.72 128.136 -0.781185 0.390963 -0.486722
97.8165 181.389 128.38 -0.781185 0.390963 -0.486722
97.9938 182.041 128.619 -0.91138 0.335341 -0.238608
97.8165 181.389 128.38 -0.91138 0.335341 -0.238608
97.8757 182.15 129.223 -0.91138 0.335341 -0.238608
97.8757 182.15 129.223 -0.992432 0.117329 -0.0362248
97.8165 181.389 128.38 -0.992432 0.117329 -0.0362248
97.7687 181.171 128.983 -0.992432 0.117329 -0.0362248
98.1346 181.72 128.136 -0.665769 0.517838 -0.537212
97.9938 182.041 128.619 -0.665769 0.517838 -0.537212
98.5633 182.464 128.321 -0.665769 0.517838 -0.537212
99.2605 181.427 128.417 0.74128 -0.663593 0.100742
99.8351 182.172 129.094 0.74128 -0.663593 0.100742
99.2132 181.502 129.263 0.74128 -0.663593 0.100742
99.8171 182.027 128.218 0.745079 -0.660329 0.0939321
99.8351 182.172 129.094 0.745079 -0.660329 0.0939321
99.2605 181.427 128.417 0.745079 -0.660329 0.0939321
99.8351 182.172 129.094 0.791529 -0.605348 0.0838761
99.8171 182.027 128.218 0.791529 -0.605348 0.0838761
100.093 182.411 128.39 0.791529 -0.605348 0.0838761
100.114 182.698 129.182 0.862767 -0.482305 0.151705
99.8351 182.172 129.094 0.862767 -0.482305 0.151705
100.093 182.411 128.39 0.862767 -0.482305 0.151705
97.8757 182.15 129.223 -0.659431 0.706729 -0.25629
98.5633 182.464 128.321 -0.659431 0.706729 -0.25629
97.9938 182.041 128.619 -0.659431 0.706729 -0.25629
97.8757 182.15 129.223 -0.740172 0.562752 -0.368045
98.6704 183.27 129.337 -0.740172 0.562752 -0.368045
98.5633 182.464 128.321 -0.740172 0.562752 -0.368045
98.6704 183.27 129.337 -0.917888 0.352376 -0.18252
98.8555 183.254 128.377 -0.917888 0.352376 -0.18252
98.5633 182.464 128.321 -0.917888 0.352376 -0.18252
100.093 182.411 128.39 0.996358 -0.0851589 0.00429051
100.158 183.173 128.381 0.996358 -0.0851589 0.00429051
100.114 182.698 129.182 0.996358 -0.0851589 0.00429051
100.114 182.698 129.182 0.989095 -0.143981 -0.0309937
100.158 183.173 128.381 0.989095 -0.143981 -0.0309937
100.207 183.34 129.185 0.989095 -0.143981 -0.0309937
98.8555 183.254 128.377 -0.679419 0.719772 -0.142544
98.6704 183.27 129.337 -0.679419 0.719772 -0.142544
99.1783 183.676 128.97 -0.679419 0.719772 -0.142544
99.2285 183.453 128.189 -0.553214 0.79083 -0.261806
98.8555 183.254 128.377 -0.553214 0.79083 -0.261806
99.1783 183.676 128.97 -0.553214 0.79083 -0.261806
99.8375 184.166 129.128 -0.39897 0.720154 -0.567628
99.8763 183.614 128.4 -0.39897 0.720154 -0.567628
99.1783 183.676 128.97 -0.39897 0.720154 -0.567628
99.8763 183.614 128.4 -0.144256 0.948897 -0.280685
99.2285 183.453 128.189 -0.144256 0.948897 -0.280685
99.1783 183.676 128.97 -0.144256 0.948897 -0.280685
99.8763 183.614 128.4 0.471053 0.714636 -0.517112
99.8375 184.166 129.128 0.471053 0.714636 -0.517112
100.137 184.016 129.193 0.471053 0.714636 -0.517112
99.8763 183.614 128.4 0.727569 0.485147 -0.485053
100.137 184.016 129.193 0.727569 0.485147 -0.485053
100.158 183.173 128.381 0.727569 0.485147 -0.485053
100.158 183.173 128.381 0.991131 0.104093 -0.0826025
100.137 184.016 129.193 0.991131 0.104093 -0.0826025
100.207 183.34 129.185 0.991131 0.104093 -0.0826025
100.137 184.016 129.193 0.461874 0.667102 -0.584506
99.8375 184.166 129.128 0.461874 0.667102 -0.584506
99.9455 184.435 129.52 0.461874 0.667102 -0.584506
98.1222 180.997 129.15 -0.726882 -0.674311 0.130181
98.072 181.221 130.029 -0.726882 -0.674311 0.130181
97.8203 181.488 130.005 -0.726882 -0.674311 0.130181
97.7687 181.171 128.983 -0.526483 -0.804273 0.275609
98.1222 180.997 129.15 -0.526483 -0.804273 0.275609
97.8203 181.488 130.005 -0.526483 -0.804273 0.275609
98.8916 181.173 129.057 0.247175 -0.919669 0.305144
98.7547 181.429 129.94 0.247175 -0.919669 0.305144
98.1222 180.997 129.15 0.247175 -0.919669 0.305144
98.1222 180.997 129.15 0.312126 -0.91622 0.251233
98.7547 181.429 129.94 0.312126 -0.91622 0.251233
98.072 181.221 130.029 0.312126 -0.91622 0.251233
98.7547 181.429 129.94 0.57702 -0.756094 0.308821
98.8916 181.173 129.057 0.57702 -0.756094 0.308821
99.2132 181.502 129.263 0.57702 -0.756094 0.308821
97.7687 181.171 128.983 -0.994388 0.104263 0.0179399
97.8203 181.488 130.005 -0.994388 0.104263 0.0179399
97.8757 182.15 129.223 -0.994388 0.104263 0.0179399
97.8203 181.488 130.005 -0.997877 0.00700726 -0.0647469
97.8087 182.195 130.26 -0.997877 0.00700726 -0.0647469
97.8757 182.15 129.223 -0.997877 0.00700726 -0.0647469
99.8351 182.172 129.094 0.703477 -0.536364 0.466298
99.2582 182.154 129.945 0.703477 -0.536364 0.466298
99.2132 181.502 129.263 0.703477 -0.536364 0.466298
99.2582 182.154 129.945 0.735384 -0.513428 0.442269
98.7547 181.429 129.94 0.735384 -0.513428 0.442269
99.2132 181.502 129.263 0.735384 -0.513428 0.442269
97.8757 182.15 129.223 -0.756141 0.649827 -0.0773087
97.8087 182.195 130.26 -0.756141 0.649827 -0.0773087
98.1513 182.577 130.119 -0.756141 0.649827 -0.0773087
98.1513 182.577 130.119 -0.813958 0.580326 -0.0263607
98.6704 183.27 129.337 -0.813958 0.580326 -0.0263607
97.8757 182.15 129.223 -0.813958 0.580326 -0.0263607
98.7329 183.221 130.228 -0.74659 0.659382 0.0884212
98.6704 183.27 129.337 -0.74659 0.659382 0.0884212
98.1513 182.577 130.119 -0.74659 0.659382 0.0884212
99.8351 182.172 129.094 0.703596 -0.536135 0.466383
99.7501 182.916 130.078 0.703596 -0.536135 0.466383
99.2582 182.154 129.945 0.703596 -0.536135 0.466383
99.7501 182.916 130.078 0.767173 -0.477912 0.427838
99.8351 182.172 129.094 0.767173 -0.477912 0.427838
100.114 182.698 129.182 0.767173 -0.477912 0.427838
99.7501 182.916 130.078 0.846537 -0.32378 0.422542
100.114 182.698 129.182 0.846537 -0.32378 0.422542
99.9599 183.491 130.099 0.846537 -0.32378 0.422542
99.9599 183.491 130.099 0.949766 -0.139406 0.280196
100.114 182.698 129.182 0.949766 -0.139406 0.280196
100.207 183.34 129.185 0.949766 -0.139406 0.280196
99.2365 184.266 129.933 -0.723595 0.607292 -0.328036
99.1783 183.676 128.97 -0.723595 0.607292 -0.328036
98.6704 183.27 129.337 -0.723595 0.607292 -0.328036
99.2365 184.266 129.933 -0.779009 0.58206 -0.233134
98.6704 183.27 129.337 -0.779009 0.58206 -0.233134
98.9266 184.022 130.36 -0.779009 0.58206 -0.233134
98.9266 184.022 130.36 -0.971792 0.221761 0.0802658
98.6704 183.27 129.337 -0.971792 0.221761 0.0802658
98.7329 183.221 130.228 -0.971792 0.221761 0.0802658
99.1783 183.676 128.97 -0.46441 0.767548 -0.441806
99.2365 184.266 129.933 -0.46441 0.767548 -0.441806
99.8375 184.166 129.128 -0.46441 0.767548 -0.441806
100.207 183.34 129.185 0.96467 0.0971248 0.244906
100.137 184.016 129.193 0.96467 0.0971248 0.244906
99.9599 183.491 130.099 0.96467 0.0971248 0.244906
99.9599 183.491 130.099 0.985146 -0.119271 0.123542
100.137 184.016 129.193 0.985146 -0.119271 0.123542
100.069 184.292 129.999 0.985146 -0.119271 0.123542
99.8375 184.166 129.128 -0.436193 0.793722 -0.42396
99.2365 184.266 129.933 -0.436193 0.793722 -0.42396
99.9455 184.435 129.52 -0.436193 0.793722 -0.42396
99.9455 184.435 129.52 -0.412331 0.834141 -0.366323
99.2365 184.266 129.933 -0.412331 0.834141 -0.366323
99.775 184.687 130.285 -0.412331 0.834141 -0.366323
100.069 184.292 129.999 0.878784 0.469245 -0.0868714
100.137 184.016 129.193 0.878784 0.469245 -0.0868714
99.9455 184.435 129.52 0.878784 0.469245 -0.0868714
99.775 184.687 130.285 0.793373 0.608297 -0.0230918
100.069 184.292 129.999 0.793373 0.608297 -0.0230918
99.9455 184.435 129.52 0.793373 0.608297 -0.0230918
98.072 181.221 130.029 -0.638432 -0.55366 0.534663
98.0986 181.576 130.428 -0.638432 -0.55366 0.534663
97.8203 181.488 130.005 -0.638432 -0.55366 0.534663
98.0986 181.576 130.428 0.301448 -0.722586 0.622092
98.072 181.221 130.029 0.301448 -0.722586 0.622092
98.7547 181.429 129.94 0.301448 -0.722586 0.622092
98.0986 181.576 130.428 -0.191525 -0.693344 0.694688
98.0727 182.103 130.947 -0.191525 -0.693344 0.694688
97.8648 182.094 130.881 -0.191525 -0.693344 0.694688
98.0986 181.576 130.428 -0.54143 -0.678262 0.496804
97.8648 182.094 130.881 -0.54143 -0.678262 0.496804
97.8203 181.488 130.005 -0.54143 -0.678262 0.496804
97.8203 181.488 130.005 -0.995534 -0.0460856 0.0823888
97.8648 182.094 130.881 -0.995534 -0.0460856 0.0823888
97.8087 182.195 130.26 -0.995534 -0.0460856 0.0823888
98.0727 182.103 130.947 0.633099 -0.420493 0.6499
98.759 182.421 130.484 0.633099 -0.420493 0.6499
98.065 182.27 131.063 0.633099 -0.420493 0.6499
98.0727 182.103 130.947 0.629142 -0.529438 0.569101
98.0986 181.576 130.428 0.629142 -0.529438 0.569101
98.759 182.421 130.484 0.629142 -0.529438 0.569101
98.0986 181.576 130.428 0.477511 -0.424285 0.769393
98.7547 181.429 129.94 0.477511 -0.424285 0.769393
98.759 182.421 130.484 0.477511 -0.424285 0.769393
98.7547 181.429 129.94 0.566864 -0.398212 0.721175
99.2582 182.154 129.945 0.566864 -0.398212 0.721175
98.759 182.421 130.484 0.566864 -0.398212 0.721175
97.8087 182.195 130.26 -0.835325 0.525573 0.161259
97.8648 182.094 130.881 -0.835325 0.525573 0.161259
98.024 182.358 130.846 -0.835325 0.525573 0.161259
98.1513 182.577 130.119 -0.727488 0.681631 0.0783592
97.8087 182.195 130.26 -0.727488 0.681631 0.0783592
98.024 182.358 130.846 -0.727488 0.681631 0.0783592
98.024 182.358 130.846 0.0654412 0.952069 0.2988
98.759 182.421 130.484 0.0654412 0.952069 0.2988
98.1513 182.577 130.119 0.0654412 0.952069 0.2988
98.024 182.358 130.846 0.0957405 0.929421 0.356385
98.065 182.27 131.063 0.0957405 0.929421 0.356385
98.759 182.421 130.484 0.0957405 0.929421 0.356385
98.1513 182.577 130.119 -0.447604 0.259026 0.855895
98.759 182.421 130.484 -0.447604 0.259026 0.855895
98.7329 183.221 130.228 -0.447604 0.259026 0.855895
99.1721 183.416 130.956 -0.321851 -0.293372 0.900191
98.9164 183.422 130.867 -0.321851 -0.293372 0.900191
98.759 182.421 130.484 -0.321851 -0.293372 0.900191
98.7329 183.221 130.228 -0.96403 0.0519171 0.260675
98.759 182.421 130.484 -0.96403 0.0519171 0.260675
98.9164 183.422 130.867 -0.96403 0.0519171 0.260675
99.9599 183.491 130.099 0.699161 -0.373811 0.609458
99.3292 183.712 130.958 0.699161 -0.373811 0.609458
99.1721 183.416 130.956 0.699161 -0.373811 0.609458
99.7501 182.916 130.078 0.718279 -0.284714 0.634833
99.9599 183.491 130.099 0.718279 -0.284714 0.634833
99.1721 183.416 130.956 0.718279 -0.284714 0.634833
99.7501 182.916 130.078 0.534922 -0.532931 0.655624
99.1721 183.416 130.956 0.534922 -0.532931 0.655624
98.759 182.421 130.484 0.534922 -0.532931 0.655624
99.7501 182.916 130.078 0.524343 -0.463702 0.714174
98.759 182.421 130.484 0.524343 -0.463702 0.714174
99.2582 182.154 129.945 0.524343 -0.463702 0.714174
98.7329 183.221 130.228 -0.957076 0.196388 0.21316
98.9164 183.422 130.867 -0.957076 0.196388 0.21316
98.9266 184.022 130.36 -0.957076 0.196388 0.21316
98.9164 183.422 130.867 -0.993282 0.0840811 0.0795024
98.987 184.083 131.05 -0.993282 0.0840811 0.0795024
98.9266 184.022 130.36 -0.993282 0.0840811 0.0795024
99.8456 184.211 130.434 0.775199 -0.161468 0.610732
99.3292 183.712 130.958 0.775199 -0.161468 0.610732
99.9599 183.491 130.099 0.775199 -0.161468 0.610732
99.2997 184.311 130.963 0.698109 0.028062 0.715441
99.3292 183.712 130.958 0.698109 0.028062 0.715441
99.8456 184.211 130.434 0.698109 0.028062 0.715441
99.9599 183.491 130.099 0.892452 -0.0662235 0.446256
100.069 184.292 129.999 0.892452 -0.0662235 0.446256
99.8456 184.211 130.434 0.892452 -0.0662235 0.446256
98.9266 184.022 130.36 -0.896999 0.440263 0.0395243
98.987 184.083 131.05 -0.896999 0.440263 0.0395243
99.1264 184.382 130.885 -0.896999 0.440263 0.0395243
99.2365 184.266 129.933 -0.740084 0.651945 -0.165053
98.9266 184.022 130.36 -0.740084 0.651945 -0.165053
99.1264 184.382 130.885 -0.740084 0.651945 -0.165053
99.2997 184.311 130.963 0.690354 0.308354 0.654469
99.8456 184.211 130.434 0.690354 0.308354 0.654469
99.775 184.687 130.285 0.690354 0.308354 0.654469
99.2997 184.311 130.963 0.101725 0.838544 0.535252
99.775 184.687 130.285 0.101725 0.838544 0.535252
99.1264 184.382 130.885 0.101725 0.838544 0.535252
99.1264 184.382 130.885 -0.539117 0.82629 -0.163087
99.775 184.687 130.285 -0.539117 0.82629 -0.163087
99.2365 184.266 129.933 -0.539117 0.82629 -0.163087
100.069 184.292 129.999 0.833815 0.274503 0.478957
99.775 184.687 130.285 0.833815 0.274503 0.478957
99.8456 184.211 130.434 0.833815 0.274503 0.478957
98.0727 182.103 130.947 -0.22907 -0.560836 0.795607
98.065 182.27 131.063 -0.22907 -0.560836 0.795607
97.8648 182.094 130.881 -0.22907 -0.560836 0.795607
97.8648 182.094 130.881 -0.778705 0.516987 0.355449
98.065 182.27 131.063 -0.778705 0.516987 0.355449
98.024 182.358 130.846 -0.778705 0.516987 0.355449
99.1721 183.416 130.956 -0.67509 -0.283036 0.681282
99.0805 184.129 131.161 -0.67509 -0.283036 0.681282
98.987 184.083 131.05 -0.67509 -0.283036 0.681282
98.9164 183.422 130.867 -0.326821 -0.219771 0.919178
99.1721 183.416 130.956 -0.326821 -0.219771 0.919178
98.987 184.083 131.05 -0.326821 -0.219771 0.919178
99.3292 183.712 130.958 0.659248 0.0258352 0.751482
99.2997 184.311 130.963 0.659248 0.0258352 0.751482
99.0805 184.129 131.161 0.659248 0.0258352 0.751482
99.1721 183.416 130.956 0.386241 -0.209084 0.898389
99.3292 183.712 130.958 0.386241 -0.209084 0.898389
99.0805 184.129 131.161 0.386241 -0.209084 0.898389
98.987 184.083 131.05 -0.733903 0.556785 0.38907
99.0805 184.129 131.161 -0.733903 0.556785 0.38907
99.1264 184.382 130.885 -0.733903 0.556785 0.38907
99.2997 184.311 130.963 -0.00247302 0.737035 0.67585
99.1264 184.382 130.885 -0.00247302 0.737035 0.67585
99.0805 184.129 131.161 -0.00247302 0.737035 0.67585
3 0 1 2
3 3 4 5
3 6 7 8
3 9 10 11
3 12 13 14
3 15 16 17
3 18 19 20
3 21 22 23
3 24 25 26
3 27 28 29
3 30 31 32
3 33 34 35
3 36 37 38
3 39 40 41
3 42 43 44
3 45 46 47
3 48 49 50
3 51 52 53
3 54 55 56
3 57 58 59
3 60 61 62
3 63 64 65
3 66 67 68
3 69 70 71
3 72 73 74
3 75 76 77
3 78 79 80
3 81 82 83
3 84 85 86
3 87 88 89
3 90 91 92
3 93 94 95
3 96 97 98
3 99 100 101
3 102 103 104
3 105 106 107
3 108 109 110
3 111 112 113
3 114 115 116
3 117 118 119
3 120 121 122
3 123 124 125
3 126 127 128
3 129 130 131
3 132 133 134
3 135 136 137
3 138 139 140
3 141 142 143
3 144 145 146
3 147 148 149
3 150 151 152
3 153 154 155
3 156 157 158
3 159 160 161
3 162 163 164
3 165 166 167
3 168 169 170
3 171 172 173
3 174 175 176
3 177 178 179
3 180 181 182
3 183 184 185
3 186 187 188
3 189 190 191
3 192 193 194
3 195 196 197
3 198 199 200
3 201 202 203
3 204 205 206
3 207 208 209
3 210 211 212
3 213 214 215
3 216 217 218
3 219 220 221
3 222 223 224
3 225 226 227
3 228 229 230
3 231 232 233
3 234 235 236
3 237 238 239
3 240 241 242
3 243 244 245
3 246 247 248
3 249 250 251
3 252 253 254
3 255 256 257
3 258 259 260
3 261 262 263
3 264 265 266
3 267 268 269
3 270 271 272
3 273 274 275
3 276 277 278
3 279 280 281
3 282 283 284
3 285 286 287
3 288 289 290
3 291 292 293
3 294 295 296
3 297 298 299
3 300 301 302
3 303 304 305
3 306 307 308
3 309 310 311
3 312 313 314
3 315 316 317
3 318 319 320
3 321 322 323
3 324 325 326
3 327 328 329
3 330 331 332
3 333 334 335
3 336 337 338
3 339 340 341
3 342 343 344
3 345 346 347
3 348 349 350
3 351 352 353
3 354 355 356
3 357 358 359
3 360 361 362
3 363 364 365
