ply
format ascii 1.0
element vertex 138
property float x
property float y
property float z
property float nx
property float ny
property float nz
element face 46
property list uint uint vertex_indices
end_header
123.172 187.666 143.51 -0.46049 -0.496858 -0.735582
123.009 187.163 143.952 -0.46049 -0.496858 -0.735582
122.337 187.806 143.939 -0.46049 -0.496858 -0.735582
123.172 187.666 143.51 0.255517 -0.468985 -0.845437
123.934 187.755 143.691 0.255517 -0.468985 -0.845437
123.897 187.418 143.867 0.255517 -0.468985 -0.845437
123.009 187.163 143.952 0.124529 -0.677665 -0.72475
123.172 187.666 143.51 0.124529 -0.677665 -0.72475
123.897 187.418 143.867 0.124529 -0.677665 -0.72475
122.422 188.306 143.629 -0.670761 -0.304507 -0.67628
122.337 187.806 143.939 -0.670761 -0.304507 -0.67628
122.157 188.4 143.849 -0.670761 -0.304507 -0.67628
122.337 187.806 143.939 -0.470031 -0.405361 -0.784062
122.422 188.306 143.629 -0.470031 -0.405361 -0.784062
123.172 187.666 143.51 -0.470031 -0.405361 -0.784062
123.172 187.666 143.51 -0.154883 0.00232351 -0.98793
122.422 188.306 143.629 -0.154883 0.00232351 -0.98793
123.19 188.34 143.509 -0.154883 0.00232351 -0.98793
123.88 188.262 143.922 0.745199 0.34094 -0.573095
124.132 187.729 143.934 0.745199 0.34094 -0.573095
123.934 187.755 143.691 0.745199 0.34094 -0.573095
123.88 188.262 143.922 0.503588 0.40258 -0.764413
123.934 187.755 143.691 0.503588 0.40258 -0.764413
123.19 188.34 143.509 0.503588 0.40258 -0.764413
123.19 188.34 143.509 0.231963 -0.00775654 -0.972694
123.934 187.755 143.691 0.231963 -0.00775654 -0.972694
123.172 187.666 143.51 0.231963 -0.00775654 -0.972694
123.897 187.418 143.867 0.690488 -0.392181 -0.6078
123.934 187.755 143.691 0.690488 -0.392181 -0.6078
124.132 187.729 143.934 0.690488 -0.392181 -0.6078
122.422 188.306 143.629 -0.376414 0.597894 -0.707698
122.157 188.4 143.849 -0.376414 0.597894 -0.707698
122.467 188.621 143.871 -0.376414 0.597894 -0.707698
123.19 188.34 143.509 -0.148296 0.615856 -0.773776
122.422 188.306 143.629 -0.148296 0.615856 -0.773776
122.467 188.621 143.871 -0.148296 0.615856 -0.773776
123.249 188.602 143.953 0.0745839 0.854833 -0.513515
123.19 188.34 143.509 0.0745839 0.854833 -0.513515
122.467 188.621 143.871 0.0745839 0.854833 -0.513515
123.88 188.262 143.922 0.389888 0.769976 -0.505098
123.19 188.34 143.509 0.389888 0.769976 -0.505098
123.249 188.602 143.953 0.389888 0.769976 -0.505098
122.327 187.508 144.121 -0.425662 -0.461364 -0.778431
122.337 187.806 143.939 -0.425662 -0.461364 -0.778431
123.009 187.163 143.952 -0.425662 -0.461364 -0.778431
122.327 187.508 144.121 -0.466563 -0.880248 -0.0865055
123.009 187.163 143.952 -0.466563 -0.880248 -0.0865055
122.482 187.377 144.618 -0.466563 -0.880248 -0.0865055
122.482 187.377 144.618 -0.213744 -0.966584 0.141519
123.009 187.163 143.952 -0.213744 -0.966584 0.141519
123.355 187.172 144.531 -0.213744 -0.966584 0.141519
124.034 187.471 144.191 0.55486 -0.554156 0.620517
123.844 187.724 144.587 0.55486 -0.554156 0.620517
123.355 187.172 144.531 0.55486 -0.554156 0.620517
124.034 187.471 144.191 0.395927 -0.918126 -0.0169444
123.355 187.172 144.531 0.395927 -0.918126 -0.0169444
123.897 187.418 143.867 0.395927 -0.918126 -0.0169444
123.897 187.418 143.867 0.259951 -0.955156 -0.141782
123.355 187.172 144.531 0.259951 -0.955156 -0.141782
123.009 187.163 143.952 0.259951 -0.955156 -0.141782
122.337 187.806 143.939 -0.912991 -0.223957 0.341014
122.299 188.467 144.271 -0.912991 -0.223957 0.341014
122.157 188.4 143.849 -0.912991 -0.223957 0.341014
122.327 187.508 144.121 -0.898557 -0.4033 0.173043
122.482 187.377 144.618 -0.898557 -0.4033 0.173043
122.228 187.918 144.562 -0.898557 -0.4033 0.173043
122.228 187.918 144.562 -0.98492 -0.0668008 -0.159594
122.337 187.806 143.939 -0.98492 -0.0668008 -0.159594
122.327 187.508 144.121 -0.98492 -0.0668008 -0.159594
122.228 187.918 144.562 -0.857959 0.458461 -0.231776
122.421 188.322 144.646 -0.857959 0.458461 -0.231776
122.337 187.806 143.939 -0.857959 0.458461 -0.231776
122.299 188.467 144.271 -0.953931 -0.176775 0.242419
122.337 187.806 143.939 -0.953931 -0.176775 0.242419
122.421 188.322 144.646 -0.953931 -0.176775 0.242419
124.132 187.729 143.934 0.913299 0.0547255 0.403598
123.844 187.724 144.587 0.913299 0.0547255 0.403598
124.034 187.471 144.191 0.913299 0.0547255 0.403598
124.132 187.729 143.934 0.835892 0.403643 0.371965
123.88 188.262 143.922 0.835892 0.403643 0.371965
123.844 187.724 144.587 0.835892 0.403643 0.371965
123.88 188.262 143.922 0.950955 0.213123 0.224196
123.691 188.438 144.556 0.950955 0.213123 0.224196
123.844 187.724 144.587 0.950955 0.213123 0.224196
123.897 187.418 143.867 0.797688 -0.550196 -0.246939
124.132 187.729 143.934 0.797688 -0.550196 -0.246939
124.034 187.471 144.191 0.797688 -0.550196 -0.246939
122.157 188.4 143.849 -0.581945 0.810605 0.0652589
122.299 188.467 144.271 -0.581945 0.810605 0.0652589
122.467 188.621 143.871 -0.581945 0.810605 0.0652589
122.299 188.467 144.271 -0.479242 0.754191 0.448913
122.421 188.322 144.646 -0.479242 0.754191 0.448913
122.982 188.738 144.547 -0.479242 0.754191 0.448913
122.299 188.467 144.271 -0.419422 0.892672 0.164992
122.982 188.738 144.547 -0.419422 0.892672 0.164992
122.467 188.621 143.871 -0.419422 0.892672 0.164992
122.467 188.621 143.871 0.0448842 0.977986 -0.203787
122.982 188.738 144.547 0.0448842 0.977986 -0.203787
123.249 188.602 143.953 0.0448842 0.977986 -0.203787
123.691 188.438 144.556 0.467386 0.877748 -0.1054
123.88 188.262 143.922 0.467386 0.877748 -0.1054
123.249 188.602 143.953 0.467386 0.877748 -0.1054
122.982 188.738 144.547 0.389095 0.920483 -0.036283
123.691 188.438 144.556 0.389095 0.920483 -0.036283
123.249 188.602 143.953 0.389095 0.920483 -0.036283
122.482 187.377 144.618 -0.115299 -0.758786 0.641053
123.355 187.172 144.531 -0.115299 -0.758786 0.641053
123.085 187.57 144.955 -0.115299 -0.758786 0.641053
122.435 187.772 144.831 -0.305464 -0.480323 0.822181
122.482 187.377 144.618 -0.305464 -0.480323 0.822181
123.085 187.57 144.955 -0.305464 -0.480323 0.822181
123.355 187.172 144.531 0.458957 -0.482062 0.746307
123.844 187.724 144.587 0.458957 -0.482062 0.746307
123.085 187.57 144.955 0.458957 -0.482062 0.746307
122.482 187.377 144.618 -0.825857 -0.340514 0.449456
122.435 187.772 144.831 -0.825857 -0.340514 0.449456
122.228 187.918 144.562 -0.825857 -0.340514 0.449456
122.421 188.322 144.646 -0.719377 0.204071 0.663966
122.228 187.918 144.562 -0.719377 0.204071 0.663966
122.435 187.772 144.831 -0.719377 0.204071 0.663966
122.421 188.322 144.646 -0.336176 0.291563 0.895531
122.435 187.772 144.831 -0.336176 0.291563 0.895531
123.138 188.266 144.934 -0.336176 0.291563 0.895531
123.138 188.266 144.934 -0.174032 0.0429129 0.983805
122.435 187.772 144.831 -0.174032 0.0429129 0.983805
123.085 187.57 144.955 -0.174032 0.0429129 0.983805
123.844 187.724 144.587 0.52546 0.149611 0.837561
123.691 188.438 144.556 0.52546 0.149611 0.837561
123.138 188.266 144.934 0.52546 0.149611 0.837561
123.085 187.57 144.955 0.436521 -0.00585895 0.899675
123.844 187.724 144.587 0.436521 -0.00585895 0.899675
123.138 188.266 144.934 0.436521 -0.00585895 0.899675
122.421 188.322 144.646 -0.271954 0.555032 0.786117
123.138 188.266 144.934 -0.271954 0.555032 0.786117
122.982 188.738 144.547 -0.271954 0.555032 0.786117
123.691 188.438 144.556 0.271097 0.662221 0.698548
122.982 188.738 144.547 0.271097 0.662221 0.698548
123.138 188.266 144.934 0.271097 0.662221 0.698548
3 0 1 2
3 3 4 5
3 6 7 8
3 9 10 11
3 12 13 14
3 15 16 17
3 18 19 20
3 21 22 23
3 24 25 26
3 27 28 29
3 30 31 32
3 33 34 35
3 36 37 38
3 39 40 41
3 42 43 44
3 45 46 47
3 48 49 50
3 51 52 53
3 54 55 56
3 57 58 59
3 60 61 62
3 63 64 65
3 66 67 68
3 69 70 71
3 72 73 74
3 75 76 77
3 78 79 80
3 81 82 83
3 84 85 86
3 87 88 89
3 90 91 92
3 93 94 95
3 96 97 98
3 99 100 101
3 102 103 104
3 105 106 107
3 108 109 110
3 111 112 113
3 114 115 116
3 117 118 119
3 120 121 122
3 123 124 125
3 126 127 128
3 129 130 131
3 132 133 134
3 135 136 137
