ply
format ascii 1.0
element vertex 168
property float x
property float y
property float z
property float nx
property float ny
property float nz
element face 56
property list uint uint vertex_indices
end_header
118.811 127.838 159.632 -0.574769 0.10781 -0.811183
118.641 128.202 159.8 -0.574769 0.10781 -0.811183
118.921 128.328 159.619 -0.574769 0.10781 -0.811183
118.989 127.991 159.631 0.02105 -0.031486 -0.999283
118.811 127.838 159.632 0.02105 -0.031486 -0.999283
118.921 128.328 159.619 0.02105 -0.031486 -0.999283
119.059 127.345 159.992 -0.519412 -0.629423 -0.577961
118.918 126.939 160.561 -0.519412 -0.629423 -0.577961
118.679 127.382 160.292 -0.519412 -0.629423 -0.577961
119.059 127.345 159.992 0.619827 -0.395913 -0.677545
119.77 127.44 160.587 0.619827 -0.395913 -0.677545
119.505 127.072 160.56 0.619827 -0.395913 -0.677545
118.918 126.939 160.561 0.186337 -0.82068 -0.540151
119.059 127.345 159.992 0.186337 -0.82068 -0.540151
119.505 127.072 160.56 0.186337 -0.82068 -0.540151
118.811 127.838 159.632 -0.50503 -0.660278 -0.555858
119.059 127.345 159.992 -0.50503 -0.660278 -0.555858
118.679 127.382 160.292 -0.50503 -0.660278 -0.555858
118.811 127.838 159.632 -0.89986 -0.25416 -0.354477
118.679 127.382 160.292 -0.89986 -0.25416 -0.354477
118.641 128.202 159.8 -0.89986 -0.25416 -0.354477
118.641 128.202 159.8 -0.816361 -0.324374 -0.477845
118.679 127.382 160.292 -0.816361 -0.324374 -0.477845
118.284 128.014 160.54 -0.816361 -0.324374 -0.477845
118.989 127.991 159.631 0.360214 -0.425465 -0.830196
119.059 127.345 159.992 0.360214 -0.425465 -0.830196
118.811 127.838 159.632 0.360214 -0.425465 -0.830196
118.989 127.991 159.631 0.695466 -0.29227 -0.656434
119.575 128.212 160.153 0.695466 -0.29227 -0.656434
119.059 127.345 159.992 0.695466 -0.29227 -0.656434
119.575 128.212 160.153 0.641034 -0.246853 -0.726732
119.77 127.44 160.587 0.641034 -0.246853 -0.726732
119.059 127.345 159.992 0.641034 -0.246853 -0.726732
119.575 128.212 160.153 0.761853 -0.160614 -0.627521
119.893 128.136 160.559 0.761853 -0.160614 -0.627521
119.77 127.44 160.587 0.761853 -0.160614 -0.627521
118.961 128.862 159.986 -0.61891 0.475674 -0.625048
118.921 128.328 159.619 -0.61891 0.475674 -0.625048
118.641 128.202 159.8 -0.61891 0.475674 -0.625048
118.961 128.862 159.986 -0.710911 0.487045 -0.507338
118.641 128.202 159.8 -0.710911 0.487045 -0.507338
118.554 128.841 160.536 -0.710911 0.487045 -0.507338
118.554 128.841 160.536 -0.888573 0.288761 -0.356447
118.641 128.202 159.8 -0.888573 0.288761 -0.356447
118.284 128.014 160.54 -0.888573 0.288761 -0.356447
118.921 128.328 159.619 0.640186 0.102687 -0.761326
119.575 128.212 160.153 0.640186 0.102687 -0.761326
118.989 127.991 159.631 0.640186 0.102687 -0.761326
118.921 128.328 159.619 0.61888 0.413368 -0.667917
118.961 128.862 159.986 0.61888 0.413368 -0.667917
119.575 128.212 160.153 0.61888 0.413368 -0.667917
118.961 128.862 159.986 0.42186 0.169906 -0.890599
119.599 129.007 160.316 0.42186 0.169906 -0.890599
119.575 128.212 160.153 0.42186 0.169906 -0.890599
119.821 128.815 160.527 0.79069 0.0553079 -0.609714
119.893 128.136 160.559 0.79069 0.0553079 -0.609714
119.575 128.212 160.153 0.79069 0.0553079 -0.609714
119.599 129.007 160.316 0.73457 0.114835 -0.668745
119.821 128.815 160.527 0.73457 0.114835 -0.668745
119.575 128.212 160.153 0.73457 0.114835 -0.668745
118.961 128.862 159.986 -0.611216 0.666523 -0.426804
118.554 128.841 160.536 -0.611216 0.666523 -0.426804
119.026 129.211 160.437 -0.611216 0.666523 -0.426804
119.599 129.007 160.316 0.143943 0.772281 -0.618759
118.961 128.862 159.986 0.143943 0.772281 -0.618759
119.026 129.211 160.437 0.143943 0.772281 -0.618759
119.62 129.117 160.526 0.206079 0.858398 -0.469771
119.599 129.007 160.316 0.206079 0.858398 -0.469771
119.026 129.211 160.437 0.206079 0.858398 -0.469771
119.821 128.815 160.527 0.780427 0.518549 -0.349344
119.599 129.007 160.316 0.780427 0.518549 -0.349344
119.62 129.117 160.526 0.780427 0.518549 -0.349344
118.918 126.939 160.561 -0.531322 -0.794523 0.29399
119.035 127.078 161.15 -0.531322 -0.794523 0.29399
118.68 127.304 161.117 -0.531322 -0.794523 0.29399
118.679 127.382 160.292 -0.86739 -0.495502 -0.0459656
118.918 126.939 160.561 -0.86739 -0.495502 -0.0459656
118.68 127.304 161.117 -0.86739 -0.495502 -0.0459656
119.605 127.202 161.022 0.29807 -0.637215 0.710711
119.025 127.433 161.472 0.29807 -0.637215 0.710711
119.035 127.078 161.15 0.29807 -0.637215 0.710711
119.605 127.202 161.022 0.252547 -0.944337 0.210828
119.035 127.078 161.15 0.252547 -0.944337 0.210828
119.505 127.072 160.56 0.252547 -0.944337 0.210828
119.505 127.072 160.56 0.218547 -0.958346 0.183874
119.035 127.078 161.15 0.218547 -0.958346 0.183874
118.918 126.939 160.561 0.218547 -0.958346 0.183874
119.505 127.072 160.56 0.81196 -0.583608 -0.0110474
119.77 127.44 160.587 0.81196 -0.583608 -0.0110474
119.605 127.202 161.022 0.81196 -0.583608 -0.0110474
118.679 127.382 160.292 -0.8548 -0.516731 -0.048021
118.68 127.304 161.117 -0.8548 -0.516731 -0.048021
118.284 128.014 160.54 -0.8548 -0.516731 -0.048021
118.68 127.304 161.117 -0.915671 -0.347163 0.202547
118.412 128.101 161.271 -0.915671 -0.347163 0.202547
118.284 128.014 160.54 -0.915671 -0.347163 0.202547
119.605 127.202 161.022 0.38415 -0.52111 0.76215
119.693 127.594 161.245 0.38415 -0.52111 0.76215
119.025 127.433 161.472 0.38415 -0.52111 0.76215
119.693 127.594 161.245 0.931962 -0.313512 0.182092
119.605 127.202 161.022 0.931962 -0.313512 0.182092
119.77 127.44 160.587 0.931962 -0.313512 0.182092
119.693 127.594 161.245 0.992423 -0.021816 0.120917
119.77 127.44 160.587 0.992423 -0.021816 0.120917
119.705 128.124 161.243 0.992423 -0.021816 0.120917
119.705 128.124 161.243 0.952534 -0.158716 0.259784
119.77 127.44 160.587 0.952534 -0.158716 0.259784
119.893 128.136 160.559 0.952534 -0.158716 0.259784
118.833 128.732 161.302 -0.542882 0.780725 0.309432
119.071 129.037 160.95 -0.542882 0.780725 0.309432
118.554 128.841 160.536 -0.542882 0.780725 0.309432
118.833 128.732 161.302 -0.784686 0.505712 0.358502
118.554 128.841 160.536 -0.784686 0.505712 0.358502
118.412 128.101 161.271 -0.784686 0.505712 0.358502
118.412 128.101 161.271 -0.942469 0.308288 0.129266
118.554 128.841 160.536 -0.942469 0.308288 0.129266
118.284 128.014 160.54 -0.942469 0.308288 0.129266
119.071 129.037 160.95 0.313353 0.729412 0.608086
119.492 128.543 161.326 0.313353 0.729412 0.608086
119.707 128.909 160.775 0.313353 0.729412 0.608086
118.833 128.732 161.302 0.170956 0.684645 0.708544
119.492 128.543 161.326 0.170956 0.684645 0.708544
119.071 129.037 160.95 0.170956 0.684645 0.708544
119.707 128.909 160.775 0.800384 0.304936 0.51614
119.492 128.543 161.326 0.800384 0.304936 0.51614
119.705 128.124 161.243 0.800384 0.304936 0.51614
119.707 128.909 160.775 0.916621 0.202432 0.344713
119.705 128.124 161.243 0.916621 0.202432 0.344713
119.821 128.815 160.527 0.916621 0.202432 0.344713
119.821 128.815 160.527 0.957259 0.113932 0.265849
119.705 128.124 161.243 0.957259 0.113932 0.265849
119.893 128.136 160.559 0.957259 0.113932 0.265849
118.554 128.841 160.536 -0.544392 0.778498 0.312375
119.071 129.037 160.95 -0.544392 0.778498 0.312375
119.026 129.211 160.437 -0.544392 0.778498 0.312375
119.62 129.117 160.526 0.102805 0.944411 0.312281
119.026 129.211 160.437 0.102805 0.944411 0.312281
119.071 129.037 160.95 0.102805 0.944411 0.312281
119.707 128.909 160.775 0.306231 0.78068 0.544758
119.62 129.117 160.526 0.306231 0.78068 0.544758
119.071 129.037 160.95 0.306231 0.78068 0.544758
119.821 128.815 160.527 0.819918 0.546768 0.169646
119.62 129.117 160.526 0.819918 0.546768 0.169646
119.707 128.909 160.775 0.819918 0.546768 0.169646
119.035 127.078 161.15 -0.447233 -0.609016 0.655044
119.025 127.433 161.472 -0.447233 -0.609016 0.655044
118.68 127.304 161.117 -0.447233 -0.609016 0.655044
119.025 127.433 161.472 -0.520207 -0.229441 0.822643
118.981 128.157 161.646 -0.520207 -0.229441 0.822643
118.412 128.101 161.271 -0.520207 -0.229441 0.822643
118.68 127.304 161.117 -0.609018 -0.343223 0.715049
119.025 127.433 161.472 -0.609018 -0.343223 0.715049
118.412 128.101 161.271 -0.609018 -0.343223 0.715049
119.025 127.433 161.472 0.32234 -0.0037704 0.946616
119.693 127.594 161.245 0.32234 -0.0037704 0.946616
119.705 128.124 161.243 0.32234 -0.0037704 0.946616
119.025 127.433 161.472 0.472501 -0.179257 0.862908
119.705 128.124 161.243 0.472501 -0.179257 0.862908
118.981 128.157 161.646 0.472501 -0.179257 0.862908
118.412 128.101 161.271 -0.543241 0.324102 0.774498
118.981 128.157 161.646 -0.543241 0.324102 0.774498
118.833 128.732 161.302 -0.543241 0.324102 0.774498
119.492 128.543 161.326 0.12272 0.532932 0.837211
118.833 128.732 161.302 0.12272 0.532932 0.837211
118.981 128.157 161.646 0.12272 0.532932 0.837211
119.705 128.124 161.243 0.487923 0.0759825 0.869573
119.492 128.543 161.326 0.487923 0.0759825 0.869573
118.981 128.157 161.646 0.487923 0.0759825 0.869573
3 0 1 2
3 3 4 5
3 6 7 8
3 9 10 11
3 12 13 14
3 15 16 17
3 18 19 20
3 21 22 23
3 24 25 26
3 27 28 29
3 30 31 32
3 33 34 35
3 36 37 38
3 39 40 41
3 42 43 44
3 45 46 47
3 48 49 50
3 51 52 53
3 54 55 56
3 57 58 59
3 60 61 62
3 63 64 65
3 66 67 68
3 69 70 71
3 72 73 74
3 75 76 77
3 78 79 80
3 81 82 83
3 84 85 86
3 87 88 89
3 90 91 92
3 93 94 95
3 96 97 98
3 99 100 101
3 102 103 104
3 105 106 107
3 108 109 110
3 111 112 113
3 114 115 116
3 117 118 119
3 120 121 122
3 123 124 125
3 126 127 128
3 129 130 131
3 132 133 134
3 135 136 137
3 138 139 140
3 141 142 143
3 144 145 146
3 147 148 149
3 150 151 152
3 153 154 155
3 156 157 158
3 159 160 161
3 162 163 164
3 165 166 167
