ply
format ascii 1.0
element vertex 438
property float x
property float y
property float z
property float nx
property float ny
property float nz
element face 146
property list uint uint vertex_indices
end_header
118.93 169.023 151.999 -0.0480041 -0.598141 -0.799952
118.842 168.474 152.415 -0.0480041 -0.598141 -0.799952
118.13 168.846 152.18 -0.0480041 -0.598141 -0.799952
118.93 169.023 151.999 0.114439 -0.433443 -0.893885
119.776 169.024 152.107 0.114439 -0.433443 -0.893885
119.613 168.711 152.238 0.114439 -0.433443 -0.893885
118.842 168.474 152.415 0.00257982 -0.604034 -0.796954
118.93 169.023 151.999 0.00257982 -0.604034 -0.796954
119.613 168.711 152.238 0.00257982 -0.604034 -0.796954
119.613 168.711 152.238 0.528494 -0.547434 -0.648853
119.776 169.024 152.107 0.528494 -0.547434 -0.648853
119.939 168.864 152.374 0.528494 -0.547434 -0.648853
118.052 169.746 151.691 -0.758622 -0.218017 -0.613972
117.773 169.048 152.283 -0.758622 -0.218017 -0.613972
117.628 169.828 152.185 -0.758622 -0.218017 -0.613972
118.13 168.846 152.18 -0.473985 -0.451948 -0.755699
117.773 169.048 152.283 -0.473985 -0.451948 -0.755699
118.052 169.746 151.691 -0.473985 -0.451948 -0.755699
118.13 168.846 152.18 -0.0900928 -0.481472 -0.871819
118.052 169.746 151.691 -0.0900928 -0.481472 -0.871819
118.93 169.023 151.999 -0.0900928 -0.481472 -0.871819
118.93 169.023 151.999 0.193806 -0.176203 -0.965086
118.052 169.746 151.691 0.193806 -0.176203 -0.965086
118.955 169.938 151.837 0.193806 -0.176203 -0.965086
119.776 169.024 152.107 0.125704 -0.125814 -0.984058
118.93 169.023 151.999 0.125704 -0.125814 -0.984058
119.767 169.808 152.006 0.125704 -0.125814 -0.984058
119.767 169.808 152.006 0.172954 -0.176331 -0.969017
118.93 169.023 151.999 0.172954 -0.176331 -0.969017
118.955 169.938 151.837 0.172954 -0.176331 -0.969017
120.217 169.618 152.359 0.734393 -0.283896 -0.616498
119.939 168.864 152.374 0.734393 -0.283896 -0.616498
119.776 169.024 152.107 0.734393 -0.283896 -0.616498
119.767 169.808 152.006 0.58867 -0.096941 -0.80254
120.217 169.618 152.359 0.58867 -0.096941 -0.80254
119.776 169.024 152.107 0.58867 -0.096941 -0.80254
117.919 170.795 151.553 -0.76154 -0.178554 -0.623037
118.052 169.746 151.691 -0.76154 -0.178554 -0.623037
117.628 169.828 152.185 -0.76154 -0.178554 -0.623037
117.555 170.799 152.238 -0.882346 -0.041293 -0.468787
117.919 170.795 151.553 -0.882346 -0.041293 -0.468787
117.628 169.828 152.185 -0.882346 -0.041293 -0.468787
118.955 169.938 151.837 0.176679 -0.0836415 -0.980708
118.052 169.746 151.691 0.176679 -0.0836415 -0.980708
118.801 170.805 151.736 0.176679 -0.0836415 -0.980708
118.801 170.805 151.736 0.203029 -0.102566 -0.973786
118.052 169.746 151.691 0.203029 -0.102566 -0.973786
117.919 170.795 151.553 0.203029 -0.102566 -0.973786
119.767 169.808 152.006 0.197198 -0.0382907 -0.979616
118.955 169.938 151.837 0.197198 -0.0382907 -0.979616
119.738 170.788 151.962 0.197198 -0.0382907 -0.979616
119.738 170.788 151.962 0.232684 -0.0724013 -0.969854
118.955 169.938 151.837 0.232684 -0.0724013 -0.969854
118.801 170.805 151.736 0.232684 -0.0724013 -0.969854
120.459 170.607 152.216 0.531327 -0.24683 -0.810412
120.217 169.618 152.359 0.531327 -0.24683 -0.810412
119.767 169.808 152.006 0.531327 -0.24683 -0.810412
119.738 170.788 151.962 0.3252 -0.0329635 -0.94507
120.459 170.607 152.216 0.3252 -0.0329635 -0.94507
119.767 169.808 152.006 0.3252 -0.0329635 -0.94507
117.831 171.587 151.911 -0.877034 0.113179 -0.466906
117.919 170.795 151.553 -0.877034 0.113179 -0.466906
117.555 170.799 152.238 -0.877034 0.113179 -0.466906
117.617 171.641 152.427 -0.907163 0.155226 -0.391102
117.831 171.587 151.911 -0.907163 0.155226 -0.391102
117.555 170.799 152.238 -0.907163 0.155226 -0.391102
118.801 170.805 151.736 0.203188 -0.0804913 -0.975826
117.919 170.795 151.553 0.203188 -0.0804913 -0.975826
118.605 171.65 151.625 0.203188 -0.0804913 -0.975826
118.605 171.65 151.625 -0.348696 0.353084 -0.868184
117.919 170.795 151.553 -0.348696 0.353084 -0.868184
117.831 171.587 151.911 -0.348696 0.353084 -0.868184
119.738 170.788 151.962 0.235154 0.0687779 -0.969522
118.801 170.805 151.736 0.235154 0.0687779 -0.969522
119.561 171.64 151.979 0.235154 0.0687779 -0.969522
119.561 171.64 151.979 0.346677 -0.0422031 -0.937035
118.801 170.805 151.736 0.346677 -0.0422031 -0.937035
118.605 171.65 151.625 0.346677 -0.0422031 -0.937035
120.151 171.525 152.227 0.359184 0.132087 -0.923872
120.459 170.607 152.216 0.359184 0.132087 -0.923872
119.738 170.788 151.962 0.359184 0.132087 -0.923872
119.561 171.64 151.979 0.402739 0.102539 -0.909553
120.151 171.525 152.227 0.402739 0.102539 -0.909553
119.738 170.788 151.962 0.402739 0.102539 -0.909553
117.831 171.587 151.911 -0.654272 0.67498 -0.341071
117.617 171.641 152.427 -0.654272 0.67498 -0.341071
118.05 171.968 152.242 -0.654272 0.67498 -0.341071
118.605 171.65 151.625 -0.291342 0.718563 -0.631496
117.831 171.587 151.911 -0.291342 0.718563 -0.631496
118.05 171.968 152.242 -0.291342 0.718563 -0.631496
118.991 172.032 152.253 -0.0542513 0.867275 -0.494865
118.605 171.65 151.625 -0.0542513 0.867275 -0.494865
118.05 171.968 152.242 -0.0542513 0.867275 -0.494865
119.561 171.64 151.979 0.232784 0.760283 -0.606449
118.605 171.65 151.625 0.232784 0.760283 -0.606449
118.991 172.032 152.253 0.232784 0.760283 -0.606449
119.856 171.92 152.352 0.170926 0.718047 -0.674679
119.561 171.64 151.979 0.170926 0.718047 -0.674679
118.991 172.032 152.253 0.170926 0.718047 -0.674679
120.151 171.525 152.227 0.414027 0.539119 -0.733439
119.561 171.64 151.979 0.414027 0.539119 -0.733439
119.856 171.92 152.352 0.414027 0.539119 -0.733439
118.007 168.536 153.147 -0.351111 -0.877832 -0.325778
118.13 168.846 152.18 -0.351111 -0.877832 -0.325778
118.842 168.474 152.415 -0.351111 -0.877832 -0.325778
118.007 168.536 153.147 -0.23429 -0.954191 -0.186087
118.842 168.474 152.415 -0.23429 -0.954191 -0.186087
118.936 168.288 153.252 -0.23429 -0.954191 -0.186087
119.613 168.711 152.238 0.218796 -0.930837 -0.292695
119.69 168.503 152.958 0.218796 -0.930837 -0.292695
118.842 168.474 152.415 0.218796 -0.930837 -0.292695
118.842 168.474 152.415 0.181759 -0.955237 -0.233423
119.69 168.503 152.958 0.181759 -0.955237 -0.233423
118.936 168.288 153.252 0.181759 -0.955237 -0.233423
119.69 168.503 152.958 0.503675 -0.813959 -0.289453
119.613 168.711 152.238 0.503675 -0.813959 -0.289453
119.939 168.864 152.374 0.503675 -0.813959 -0.289453
120.241 169.019 153.222 0.709829 -0.692902 -0.126611
119.69 168.503 152.958 0.709829 -0.692902 -0.126611
119.939 168.864 152.374 0.709829 -0.692902 -0.126611
117.773 169.048 152.283 -0.767089 -0.621245 -0.160092
118.007 168.536 153.147 -0.767089 -0.621245 -0.160092
117.643 169.026 152.99 -0.767089 -0.621245 -0.160092
117.773 169.048 152.283 -0.962264 -0.201686 -0.182676
117.643 169.026 152.99 -0.962264 -0.201686 -0.182676
117.628 169.828 152.185 -0.962264 -0.201686 -0.182676
117.628 169.828 152.185 -0.96726 -0.188731 -0.16967
117.643 169.026 152.99 -0.96726 -0.188731 -0.16967
117.468 169.825 153.101 -0.96726 -0.188731 -0.16967
118.13 168.846 152.18 -0.534764 -0.782604 -0.318682
118.007 168.536 153.147 -0.534764 -0.782604 -0.318682
117.773 169.048 152.283 -0.534764 -0.782604 -0.318682
120.776 169.554 153.014 0.704668 -0.321727 -0.632404
120.217 169.618 152.359 0.704668 -0.321727 -0.632404
120.849 170.08 152.828 0.704668 -0.321727 -0.632404
120.776 169.554 153.014 0.506899 -0.701765 -0.500579
120.241 169.019 153.222 0.506899 -0.701765 -0.500579
120.217 169.618 152.359 0.506899 -0.701765 -0.500579
120.241 169.019 153.222 0.903982 -0.339302 -0.260175
119.939 168.864 152.374 0.903982 -0.339302 -0.260175
120.217 169.618 152.359 0.903982 -0.339302 -0.260175
120.776 169.554 153.014 0.881971 -0.261673 -0.391988
120.849 170.08 152.828 0.881971 -0.261673 -0.391988
120.966 170.018 153.132 0.881971 -0.261673 -0.391988
117.628 169.828 152.185 -0.982963 -0.0650208 -0.171921
117.468 169.825 153.101 -0.982963 -0.0650208 -0.171921
117.555 170.799 152.238 -0.982963 -0.0650208 -0.171921
117.468 169.825 153.101 -0.980375 -0.0746013 -0.182481
117.384 170.8 153.151 -0.980375 -0.0746013 -0.182481
117.555 170.799 152.238 -0.980375 -0.0746013 -0.182481
120.849 170.08 152.828 0.781915 -0.129327 -0.609823
120.459 170.607 152.216 0.781915 -0.129327 -0.609823
120.814 170.99 152.59 0.781915 -0.129327 -0.609823
120.217 169.618 152.359 0.692401 -0.266074 -0.67066
120.459 170.607 152.216 0.692401 -0.266074 -0.67066
120.849 170.08 152.828 0.692401 -0.266074 -0.67066
120.997 170.713 153.056 0.924663 -0.0817422 -0.371909
120.966 170.018 153.132 0.924663 -0.0817422 -0.371909
120.849 170.08 152.828 0.924663 -0.0817422 -0.371909
120.814 170.99 152.59 0.913966 -0.0692007 -0.399847
120.997 170.713 153.056 0.913966 -0.0692007 -0.399847
120.849 170.08 152.828 0.913966 -0.0692007 -0.399847
117.555 170.799 152.238 -0.976696 0.113643 -0.182073
117.384 170.8 153.151 -0.976696 0.113643 -0.182073
117.617 171.641 152.427 -0.976696 0.113643 -0.182073
117.384 170.8 153.151 -0.974802 0.213027 -0.0661791
117.55 171.608 153.314 -0.974802 0.213027 -0.0661791
117.617 171.641 152.427 -0.974802 0.213027 -0.0661791
120.814 170.99 152.59 0.691557 0.513108 -0.508398
120.151 171.525 152.227 0.691557 0.513108 -0.508398
120.53 171.752 152.973 0.691557 0.513108 -0.508398
120.459 170.607 152.216 0.593345 0.209019 -0.777337
120.151 171.525 152.227 0.593345 0.209019 -0.777337
120.814 170.99 152.59 0.593345 0.209019 -0.777337
120.815 171.438 153.177 0.939935 0.270554 -0.20814
120.997 170.713 153.056 0.939935 0.270554 -0.20814
120.814 170.99 152.59 0.939935 0.270554 -0.20814
120.53 171.752 152.973 0.794866 0.481539 -0.369198
120.815 171.438 153.177 0.794866 0.481539 -0.369198
120.814 170.99 152.59 0.794866 0.481539 -0.369198
117.617 171.641 152.427 -0.701218 0.712452 -0.0265455
117.55 171.608 153.314 -0.701218 0.712452 -0.0265455
117.915 171.96 153.114 -0.701218 0.712452 -0.0265455
118.05 171.968 152.242 -0.623832 0.776393 -0.0897053
117.617 171.641 152.427 -0.623832 0.776393 -0.0897053
117.915 171.96 153.114 -0.623832 0.776393 -0.0897053
118.991 172.032 152.253 -0.06227 0.952822 -0.297074
118.05 171.968 152.242 -0.06227 0.952822 -0.297074
118.688 172.249 153.01 -0.06227 0.952822 -0.297074
118.05 171.968 152.242 -0.355227 0.933616 -0.0466323
117.915 171.96 153.114 -0.355227 0.933616 -0.0466323
118.688 172.249 153.01 -0.355227 0.933616 -0.0466323
119.856 171.92 152.352 0.14912 0.968227 -0.200748
118.991 172.032 152.253 0.14912 0.968227 -0.200748
119.645 172.13 153.211 0.14912 0.968227 -0.200748
118.991 172.032 152.253 0.163206 0.963999 -0.209927
118.688 172.249 153.01 0.163206 0.963999 -0.209927
119.645 172.13 153.211 0.163206 0.963999 -0.209927
120.53 171.752 152.973 0.612586 0.613168 -0.498762
120.151 171.525 152.227 0.612586 0.613168 -0.498762
119.856 171.92 152.352 0.612586 0.613168 -0.498762
120.53 171.752 152.973 0.357397 0.923606 -0.138632
119.856 171.92 152.352 0.357397 0.923606 -0.138632
119.645 172.13 153.211 0.357397 0.923606 -0.138632
118.007 168.536 153.147 -0.671063 -0.73548 0.0935046
118.032 168.658 154.283 -0.671063 -0.73548 0.0935046
117.636 168.965 153.861 -0.671063 -0.73548 0.0935046
117.643 169.026 152.99 -0.794228 -0.605681 -0.0484895
118.007 168.536 153.147 -0.794228 -0.605681 -0.0484895
117.636 168.965 153.861 -0.794228 -0.605681 -0.0484895
118.936 168.288 153.252 -0.277396 -0.921149 0.273015
118.832 168.588 154.16 -0.277396 -0.921149 0.273015
118.007 168.536 153.147 -0.277396 -0.921149 0.273015
118.007 168.536 153.147 -0.0700966 -0.991705 0.107742
118.832 168.588 154.16 -0.0700966 -0.991705 0.107742
118.032 168.658 154.283 -0.0700966 -0.991705 0.107742
119.69 168.503 152.958 0.31527 -0.941633 0.118037
119.699 168.629 153.937 0.31527 -0.941633 0.118037
118.936 168.288 153.252 0.31527 -0.941633 0.118037
118.936 168.288 153.252 0.12748 -0.937126 0.324874
119.699 168.629 153.937 0.12748 -0.937126 0.324874
118.832 168.588 154.16 0.12748 -0.937126 0.324874
119.699 168.629 153.937 0.657312 -0.748198 0.0902242
119.69 168.503 152.958 0.657312 -0.748198 0.0902242
120.241 169.019 153.222 0.657312 -0.748198 0.0902242
119.992 168.904 154.249 0.641863 -0.763609 0.070092
119.699 168.629 153.937 0.641863 -0.763609 0.070092
120.241 169.019 153.222 0.641863 -0.763609 0.070092
117.643 169.026 152.99 -0.97717 -0.211255 -0.0225635
117.636 168.965 153.861 -0.97717 -0.211255 -0.0225635
117.468 169.825 153.101 -0.97717 -0.211255 -0.0225635
117.636 168.965 153.861 -0.905711 -0.366198 -0.21351
117.247 169.842 154.007 -0.905711 -0.366198 -0.21351
117.468 169.825 153.101 -0.905711 -0.366198 -0.21351
120.769 169.777 153.31 0.716805 -0.548908 0.429989
120.241 169.019 153.222 0.716805 -0.548908 0.429989
120.776 169.554 153.014 0.716805 -0.548908 0.429989
120.769 169.777 153.31 0.708539 -0.545235 0.447987
120.23 169.735 154.112 0.708539 -0.545235 0.447987
120.241 169.019 153.222 0.708539 -0.545235 0.447987
120.23 169.735 154.112 0.949644 -0.238125 0.203649
119.992 168.904 154.249 0.949644 -0.238125 0.203649
120.241 169.019 153.222 0.949644 -0.238125 0.203649
120.776 169.554 153.014 0.834953 -0.430182 0.343216
120.966 170.018 153.132 0.834953 -0.430182 0.343216
120.769 169.777 153.31 0.834953 -0.430182 0.343216
117.468 169.825 153.101 -0.969459 -0.0709576 -0.234763
117.247 169.842 154.007 -0.969459 -0.0709576 -0.234763
117.384 170.8 153.151 -0.969459 -0.0709576 -0.234763
117.247 169.842 154.007 -0.984969 -0.0128968 -0.172251
117.229 170.802 154.039 -0.984969 -0.0128968 -0.172251
117.384 170.8 153.151 -0.984969 -0.0128968 -0.172251
120.747 170.687 153.464 0.82927 -0.0737598 0.553959
120.23 169.735 154.112 0.82927 -0.0737598 0.553959
120.769 169.777 153.31 0.82927 -0.0737598 0.553959
120.173 170.676 154.277 0.816336 -0.0522607 0.575208
120.23 169.735 154.112 0.816336 -0.0522607 0.575208
120.747 170.687 153.464 0.816336 -0.0522607 0.575208
120.966 170.018 153.132 0.852164 0.0195987 0.522907
120.997 170.713 153.056 0.852164 0.0195987 0.522907
120.747 170.687 153.464 0.852164 0.0195987 0.522907
120.769 169.777 153.31 0.729382 -0.0969395 0.677204
120.966 170.018 153.132 0.729382 -0.0969395 0.677204
120.747 170.687 153.464 0.729382 -0.0969395 0.677204
117.745 171.479 154.031 -0.787312 0.532567 0.310662
117.853 171.807 153.74 -0.787312 0.532567 0.310662
117.55 171.608 153.314 -0.787312 0.532567 0.310662
117.745 171.479 154.031 -0.754337 0.578692 0.309987
117.55 171.608 153.314 -0.754337 0.578692 0.309987
117.229 170.802 154.039 -0.754337 0.578692 0.309987
117.229 170.802 154.039 -0.958534 0.230219 -0.167966
117.55 171.608 153.314 -0.958534 0.230219 -0.167966
117.384 170.8 153.151 -0.958534 0.230219 -0.167966
117.745 171.479 154.031 -0.201868 0.685767 0.699266
118.609 171.78 153.985 -0.201868 0.685767 0.699266
117.853 171.807 153.74 -0.201868 0.685767 0.699266
120.173 170.676 154.277 0.787715 0.257945 0.559437
120.747 170.687 153.464 0.787715 0.257945 0.559437
120.09 171.547 153.993 0.787715 0.257945 0.559437
120.747 170.687 153.464 0.747536 0.177612 0.640035
120.815 171.438 153.177 0.747536 0.177612 0.640035
120.09 171.547 153.993 0.747536 0.177612 0.640035
120.747 170.687 153.464 0.842704 0.124628 0.523753
120.997 170.713 153.056 0.842704 0.124628 0.523753
120.815 171.438 153.177 0.842704 0.124628 0.523753
117.55 171.608 153.314 -0.655381 0.746255 0.11653
117.853 171.807 153.74 -0.655381 0.746255 0.11653
117.915 171.96 153.114 -0.655381 0.746255 0.11653
117.853 171.807 153.74 -0.0402706 0.971659 0.232933
118.609 171.78 153.985 -0.0402706 0.971659 0.232933
117.915 171.96 153.114 -0.0402706 0.971659 0.232933
117.915 171.96 153.114 -0.273342 0.875393 0.398711
118.609 171.78 153.985 -0.273342 0.875393 0.398711
118.688 172.249 153.01 -0.273342 0.875393 0.398711
119.489 171.661 154.23 0.331328 0.836697 0.436073
120.09 171.547 153.993 0.331328 0.836697 0.436073
119.645 172.13 153.211 0.331328 0.836697 0.436073
119.489 171.661 154.23 0.00576337 0.907981 0.418972
119.645 172.13 153.211 0.00576337 0.907981 0.418972
118.609 171.78 153.985 0.00576337 0.907981 0.418972
118.609 171.78 153.985 0.0198884 0.900463 0.434477
119.645 172.13 153.211 0.0198884 0.900463 0.434477
118.688 172.249 153.01 0.0198884 0.900463 0.434477
120.53 171.752 152.973 0.446485 0.820002 0.358117
119.645 172.13 153.211 0.446485 0.820002 0.358117
120.09 171.547 153.993 0.446485 0.820002 0.358117
120.815 171.438 153.177 0.545561 0.744109 0.385572
120.53 171.752 152.973 0.545561 0.744109 0.385572
120.09 171.547 153.993 0.545561 0.744109 0.385572
118.032 168.658 154.283 -0.766655 -0.562935 0.30878
117.801 169.093 154.502 -0.766655 -0.562935 0.30878
117.636 168.965 153.861 -0.766655 -0.562935 0.30878
118.33 168.927 154.946 -0.619041 -0.590073 0.518269
117.801 169.093 154.502 -0.619041 -0.590073 0.518269
118.032 168.658 154.283 -0.619041 -0.590073 0.518269
118.33 168.927 154.946 -0.105968 -0.903711 0.414821
118.032 168.658 154.283 -0.105968 -0.903711 0.414821
118.907 168.971 155.189 -0.105968 -0.903711 0.414821
118.907 168.971 155.189 -0.0277304 -0.936165 0.350466
118.032 168.658 154.283 -0.0277304 -0.936165 0.350466
118.832 168.588 154.16 -0.0277304 -0.936165 0.350466
119.699 168.629 153.937 0.0756781 -0.990677 0.113274
119.67 168.738 154.912 0.0756781 -0.990677 0.113274
118.832 168.588 154.16 0.0756781 -0.990677 0.113274
118.832 168.588 154.16 -0.153045 -0.922446 0.354502
119.67 168.738 154.912 -0.153045 -0.922446 0.354502
118.907 168.971 155.189 -0.153045 -0.922446 0.354502
119.67 168.738 154.912 0.618368 -0.778766 0.105568
119.699 168.629 153.937 0.618368 -0.778766 0.105568
119.992 168.904 154.249 0.618368 -0.778766 0.105568
119.956 169.093 155.056 0.726163 -0.661535 0.187241
119.67 168.738 154.912 0.726163 -0.661535 0.187241
119.992 168.904 154.249 0.726163 -0.661535 0.187241
117.801 169.093 154.502 -0.742605 -0.112374 0.660234
117.777 170.025 154.634 -0.742605 -0.112374 0.660234
117.247 169.842 154.007 -0.742605 -0.112374 0.660234
117.636 168.965 153.861 -0.851108 -0.428282 0.303628
117.801 169.093 154.502 -0.851108 -0.428282 0.303628
117.247 169.842 154.007 -0.851108 -0.428282 0.303628
118.418 169.639 155.072 -0.650942 -0.0543065 0.757183
117.801 169.093 154.502 -0.650942 -0.0543065 0.757183
118.33 168.927 154.946 -0.650942 -0.0543065 0.757183
117.777 170.025 154.634 -0.610249 -0.126214 0.782091
117.801 169.093 154.502 -0.610249 -0.126214 0.782091
118.418 169.639 155.072 -0.610249 -0.126214 0.782091
119.992 168.904 154.249 0.960688 -0.257862 0.102891
120.23 169.735 154.112 0.960688 -0.257862 0.102891
119.956 169.093 155.056 0.960688 -0.257862 0.102891
119.956 169.093 155.056 0.967042 -0.042994 0.250959
120.23 169.735 154.112 0.967042 -0.042994 0.250959
120.001 169.987 155.035 0.967042 -0.042994 0.250959
117.777 170.025 154.634 -0.579386 0.197578 0.790743
117.888 170.928 154.49 -0.579386 0.197578 0.790743
117.229 170.802 154.039 -0.579386 0.197578 0.790743
117.247 169.842 154.007 -0.75821 -0.0358133 0.651026
117.777 170.025 154.634 -0.75821 -0.0358133 0.651026
117.229 170.802 154.039 -0.75821 -0.0358133 0.651026
118.821 170.76 154.938 -0.433489 0.258887 0.863172
117.777 170.025 154.634 -0.433489 0.258887 0.863172
118.418 169.639 155.072 -0.433489 0.258887 0.863172
118.821 170.76 154.938 -0.396668 0.192257 0.897603
117.888 170.928 154.49 -0.396668 0.192257 0.897603
117.777 170.025 154.634 -0.396668 0.192257 0.897603
120.23 169.735 154.112 0.971659 0.0167947 0.235791
120.173 170.676 154.277 0.971659 0.0167947 0.235791
120.001 169.987 155.035 0.971659 0.0167947 0.235791
120.001 169.987 155.035 0.948353 0.095877 0.302382
120.173 170.676 154.277 0.948353 0.095877 0.302382
119.952 170.823 154.924 0.948353 0.095877 0.302382
117.229 170.802 154.039 -0.563706 0.437931 0.700323
117.888 170.928 154.49 -0.563706 0.437931 0.700323
117.745 171.479 154.031 -0.563706 0.437931 0.700323
118.609 171.78 153.985 -0.169416 0.604823 0.778131
117.745 171.479 154.031 -0.169416 0.604823 0.778131
117.888 170.928 154.49 -0.169416 0.604823 0.778131
118.609 171.78 153.985 -0.237709 0.636396 0.733822
117.888 170.928 154.49 -0.237709 0.636396 0.733822
118.821 170.76 154.938 -0.237709 0.636396 0.733822
119.489 171.661 154.23 0.350404 0.786231 0.508978
119.724 171.116 154.911 0.350404 0.786231 0.508978
120.09 171.547 153.993 0.350404 0.786231 0.508978
119.489 171.661 154.23 -0.259499 0.7083 0.656485
118.821 170.76 154.938 -0.259499 0.7083 0.656485
119.724 171.116 154.911 -0.259499 0.7083 0.656485
119.489 171.661 154.23 -0.115424 0.665312 0.737588
118.609 171.78 153.985 -0.115424 0.665312 0.737588
118.821 170.76 154.938 -0.115424 0.665312 0.737588
119.952 170.823 154.924 0.942419 0.181704 0.280768
120.173 170.676 154.277 0.942419 0.181704 0.280768
120.09 171.547 153.993 0.942419 0.181704 0.280768
119.724 171.116 154.911 0.662591 0.540684 0.518299
119.952 170.823 154.924 0.662591 0.540684 0.518299
120.09 171.547 153.993 0.662591 0.540684 0.518299
118.907 168.971 155.189 -0.155969 -0.924394 0.348093
119.67 168.738 154.912 -0.155969 -0.924394 0.348093
119.705 168.945 155.477 -0.155969 -0.924394 0.348093
119.67 168.738 154.912 0.722502 -0.662635 0.197245
119.956 169.093 155.056 0.722502 -0.662635 0.197245
119.705 168.945 155.477 0.722502 -0.662635 0.197245
118.907 168.971 155.189 -0.399769 -0.133928 0.906779
119.006 169.882 155.367 -0.399769 -0.133928 0.906779
118.418 169.639 155.072 -0.399769 -0.133928 0.906779
118.33 168.927 154.946 -0.378468 -0.116314 0.918277
118.907 168.971 155.189 -0.378468 -0.116314 0.918277
118.418 169.639 155.072 -0.378468 -0.116314 0.918277
119.705 168.945 155.477 -0.340933 -0.110068 0.933622
119.684 169.624 155.55 -0.340933 -0.110068 0.933622
118.907 168.971 155.189 -0.340933 -0.110068 0.933622
119.684 169.624 155.55 -0.309916 -0.149927 0.938868
119.006 169.882 155.367 -0.309916 -0.149927 0.938868
118.907 168.971 155.189 -0.309916 -0.149927 0.938868
119.956 169.093 155.056 0.861016 -0.0317716 0.507584
120.001 169.987 155.035 0.861016 -0.0317716 0.507584
119.684 169.624 155.55 0.861016 -0.0317716 0.507584
119.705 168.945 155.477 0.863289 -0.0272448 0.503975
119.956 169.093 155.056 0.863289 -0.0272448 0.503975
119.684 169.624 155.55 0.863289 -0.0272448 0.503975
118.418 169.639 155.072 -0.520859 0.283445 0.805211
119.006 169.882 155.367 -0.520859 0.283445 0.805211
118.821 170.76 154.938 -0.520859 0.283445 0.805211
118.821 170.76 154.938 -0.283671 0.371746 0.883932
119.006 169.882 155.367 -0.283671 0.371746 0.883932
119.676 170.537 155.306 -0.283671 0.371746 0.883932
119.676 170.537 155.306 -0.160951 0.252612 0.954087
119.006 169.882 155.367 -0.160951 0.252612 0.954087
119.684 169.624 155.55 -0.160951 0.252612 0.954087
120.001 169.987 155.035 0.755732 0.12962 0.641925
119.952 170.823 154.924 0.755732 0.12962 0.641925
119.676 170.537 155.306 0.755732 0.12962 0.641925
119.684 169.624 155.55 0.782845 0.166563 0.599508
120.001 169.987 155.035 0.782845 0.166563 0.599508
119.676 170.537 155.306 0.782845 0.166563 0.599508
118.821 170.76 154.938 -0.198196 0.564142 0.801537
119.676 170.537 155.306 -0.198196 0.564142 0.801537
119.724 171.116 154.911 -0.198196 0.564142 0.801537
119.952 170.823 154.924 0.53211 0.447768 0.718584
119.724 171.116 154.911 0.53211 0.447768 0.718584
119.676 170.537 155.306 0.53211 0.447768 0.718584
3 0 1 2
3 3 4 5
3 6 7 8
3 9 10 11
3 12 13 14
3 15 16 17
3 18 19 20
3 21 22 23
3 24 25 26
3 27 28 29
3 30 31 32
3 33 34 35
3 36 37 38
3 39 40 41
3 42 43 44
3 45 46 47
3 48 49 50
3 51 52 53
3 54 55 56
3 57 58 59
3 60 61 62
3 63 64 65
3 66 67 68
3 69 70 71
3 72 73 74
3 75 76 77
3 78 79 80
3 81 82 83
3 84 85 86
3 87 88 89
3 90 91 92
3 93 94 95
3 96 97 98
3 99 100 101
3 102 103 104
3 105 106 107
3 108 109 110
3 111 112 113
3 114 115 116
3 117 118 119
3 120 121 122
3 123 124 125
3 126 127 128
3 129 130 131
3 132 133 134
3 135 136 137
3 138 139 140
3 141 142 143
3 144 145 146
3 147 148 149
3 150 151 152
3 153 154 155
3 156 157 158
3 159 160 161
3 162 163 164
3 165 166 167
3 168 169 170
3 171 172 173
3 174 175 176
3 177 178 179
3 180 181 182
3 183 184 185
3 186 187 188
3 189 190 191
3 192 193 194
3 195 196 197
3 198 199 200
3 201 202 203
3 204 205 206
3 207 208 209
3 210 211 212
3 213 214 215
3 216 217 218
3 219 220 221
3 222 223 224
3 225 226 227
3 228 229 230
3 231 232 233
3 234 235 236
3 237 238 239
3 240 241 242
3 243 244 245
3 246 247 248
3 249 250 251
3 252 253 254
3 255 256 257
3 258 259 260
3 261 262 263
3 264 265 266
3 267 268 269
3 270 271 272
3 273 274 275
3 276 277 278
3 279 280 281
3 282 283 284
3 285 286 287
3 288 289 290
3 291 292 293
3 294 295 296
3 297 298 299
3 300 301 302
3 303 304 305
3 306 307 308
3 309 310 311
3 312 313 314
3 315 316 317
3 318 319 320
3 321 322 323
3 324 325 326
3 327 328 329
3 330 331 332
3 333 334 335
3 336 337 338
3 339 340 341
3 342 343 344
3 345 346 347
3 348 349 350
3 351 352 353
3 354 355 356
3 357 358 359
3 360 361 362
3 363 364 365
3 366 367 368
3 369 370 371
3 372 373 374
3 375 376 377
3 378 379 380
3 381 382 383
3 384 385 386
3 387 388 389
3 390 391 392
3 393 394 395
3 396 397 398
3 399 400 401
3 402 403 404
3 405 406 407
3 408 409 410
3 411 412 413
3 414 415 416
3 417 418 419
3 420 421 422
3 423 424 425
3 426 427 428
3 429 430 431
3 432 433 434
3 435 436 437
