ply
format ascii 1.0
element vertex 696
property float x
property float y
property float z
property float nx
property float ny
property float nz
element face 232
property list uint uint vertex_indices
end_header
74.024 136.714 180.197 -0.39866 -0.510809 -0.761672
73.8056 136.473 180.473 -0.39866 -0.510809 -0.761672
73.6605 136.74 180.37 -0.39866 -0.510809 -0.761672
74.024 136.714 180.197 0.016547 -0.563098 -0.826224
74.6896 136.74 180.193 0.016547 -0.563098 -0.826224
74.477 136.482 180.364 0.016547 -0.563098 -0.826224
73.8056 136.473 180.473 -0.104056 -0.706967 -0.69955
74.024 136.714 180.197 -0.104056 -0.706967 -0.69955
74.477 136.482 180.364 -0.104056 -0.706967 -0.69955
74.477 136.482 180.364 0.10636 -0.60983 -0.785363
74.6896 136.74 180.193 0.10636 -0.60983 -0.785363
74.814 136.649 180.28 0.10636 -0.60983 -0.785363
73.8938 137.525 180.164 -0.432911 -0.105984 -0.895185
74.024 136.714 180.197 -0.432911 -0.105984 -0.895185
73.6605 136.74 180.37 -0.432911 -0.105984 -0.895185
73.2867 137.369 180.751 -0.697693 0.0197469 -0.716124
73.8938 137.525 180.164 -0.697693 0.0197469 -0.716124
73.6605 136.74 180.37 -0.697693 0.0197469 -0.716124
74.6896 136.74 180.193 -0.00182525 -0.118671 -0.992932
74.024 136.714 180.197 -0.00182525 -0.118671 -0.992932
74.661 137.507 180.101 -0.00182525 -0.118671 -0.992932
74.661 137.507 180.101 -0.0828394 -0.0538254 -0.995108
74.024 136.714 180.197 -0.0828394 -0.0538254 -0.995108
73.8938 137.525 180.164 -0.0828394 -0.0538254 -0.995108
75.0855 137.316 180.382 0.530291 -0.0877002 -0.843267
74.814 136.649 180.28 0.530291 -0.0877002 -0.843267
74.6896 136.74 180.193 0.530291 -0.0877002 -0.843267
74.661 137.507 180.101 0.523855 -0.0817653 -0.847874
75.0855 137.316 180.382 0.523855 -0.0817653 -0.847874
74.6896 136.74 180.193 0.523855 -0.0817653 -0.847874
73.6585 138.53 180.454 -0.700127 0.0418821 -0.712789
73.8938 137.525 180.164 -0.700127 0.0418821 -0.712789
73.2867 137.369 180.751 -0.700127 0.0418821 -0.712789
74.661 137.507 180.101 -0.08119 0.0215179 -0.996466
73.8938 137.525 180.164 -0.08119 0.0215179 -0.996466
74.6936 138.51 180.12 -0.08119 0.0215179 -0.996466
74.6936 138.51 180.12 -0.297438 0.199918 -0.933576
73.8938 137.525 180.164 -0.297438 0.199918 -0.933576
73.6585 138.53 180.454 -0.297438 0.199918 -0.933576
75.2331 138.308 180.336 0.511362 -0.115117 -0.85162
75.0855 137.316 180.382 0.511362 -0.115117 -0.85162
74.661 137.507 180.101 0.511362 -0.115117 -0.85162
74.6936 138.51 180.12 0.373696 0.00540208 -0.927536
75.2331 138.308 180.336 0.373696 0.00540208 -0.927536
74.661 137.507 180.101 0.373696 0.00540208 -0.927536
73.6585 138.53 180.454 -0.29626 0.214202 -0.930778
74.5348 139.526 180.404 -0.29626 0.214202 -0.930778
74.6936 138.51 180.12 -0.29626 0.214202 -0.930778
75.7084 139.364 180.42 0.34469 -0.080638 -0.935247
75.2331 138.308 180.336 0.34469 -0.080638 -0.935247
74.6936 138.51 180.12 0.34469 -0.080638 -0.935247
75.7084 139.364 180.42 0.0511249 0.276582 -0.95963
74.6936 138.51 180.12 0.0511249 0.276582 -0.95963
74.5348 139.526 180.404 0.0511249 0.276582 -0.95963
74.9845 140.443 180.627 -0.142494 0.093441 -0.985375
75.8759 140.111 180.467 -0.142494 0.093441 -0.985375
75.7084 139.364 180.42 -0.142494 0.093441 -0.985375
74.9845 140.443 180.627 0.0429834 0.216006 -0.975446
75.7084 139.364 180.42 0.0429834 0.216006 -0.975446
74.5348 139.526 180.404 0.0429834 0.216006 -0.975446
76.2896 139.757 180.684 0.435656 -0.0416751 -0.899148
75.7084 139.364 180.42 0.435656 -0.0416751 -0.899148
75.8759 140.111 180.467 0.435656 -0.0416751 -0.899148
73.8056 136.473 180.473 -0.526154 -0.836473 -0.153215
73.7597 136.357 181.268 -0.526154 -0.836473 -0.153215
73.4608 136.59 181.019 -0.526154 -0.836473 -0.153215
73.6605 136.74 180.37 -0.754837 -0.549058 -0.358828
73.8056 136.473 180.473 -0.754837 -0.549058 -0.358828
73.4608 136.59 181.019 -0.754837 -0.549058 -0.358828
74.7368 136.636 180.634 0.128132 -0.965139 -0.22823
74.3014 136.388 181.441 0.128132 -0.965139 -0.22823
73.7597 136.357 181.268 0.128132 -0.965139 -0.22823
74.7368 136.636 180.634 0.369768 -0.913954 0.16721
73.7597 136.357 181.268 0.369768 -0.913954 0.16721
74.477 136.482 180.364 0.369768 -0.913954 0.16721
74.477 136.482 180.364 -0.0112926 -0.989237 -0.145884
73.7597 136.357 181.268 -0.0112926 -0.989237 -0.145884
73.8056 136.473 180.473 -0.0112926 -0.989237 -0.145884
74.477 136.482 180.364 0.456487 -0.887098 0.0683915
74.814 136.649 180.28 0.456487 -0.887098 0.0683915
74.7368 136.636 180.634 0.456487 -0.887098 0.0683915
73.2867 137.369 180.751 -0.883901 -0.316098 -0.344675
73.6605 136.74 180.37 -0.883901 -0.316098 -0.344675
73.4608 136.59 181.019 -0.883901 -0.316098 -0.344675
74.7368 136.636 180.634 0.659045 -0.741268 0.127211
74.8499 136.84 181.239 0.659045 -0.741268 0.127211
74.3014 136.388 181.441 0.659045 -0.741268 0.127211
74.7368 136.636 180.634 0.900718 -0.394107 0.182723
74.814 136.649 180.28 0.900718 -0.394107 0.182723
75.0855 137.316 180.382 0.900718 -0.394107 0.182723
74.7368 136.636 180.634 0.657663 -0.534502 -0.530836
75.0855 137.316 180.382 0.657663 -0.534502 -0.530836
75.539 137.062 181.199 0.657663 -0.534502 -0.530836
74.7368 136.636 180.634 0.30961 -0.916871 0.251971
75.539 137.062 181.199 0.30961 -0.916871 0.251971
74.8499 136.84 181.239 0.30961 -0.916871 0.251971
75.7677 137.741 180.908 0.703534 -0.467298 -0.535419
75.539 137.062 181.199 0.703534 -0.467298 -0.535419
75.0855 137.316 180.382 0.703534 -0.467298 -0.535419
75.539 137.062 181.199 0.638515 -0.475392 -0.605228
75.7677 137.741 180.908 0.638515 -0.475392 -0.605228
76.0675 137.371 181.514 0.638515 -0.475392 -0.605228
72.7118 138.321 181.375 -0.710317 0.0316722 -0.703169
73.2867 137.369 180.751 -0.710317 0.0316722 -0.703169
72.6094 137.501 181.441 -0.710317 0.0316722 -0.703169
73.2867 137.369 180.751 -0.701343 0.0425886 -0.71155
72.7118 138.321 181.375 -0.701343 0.0425886 -0.71155
73.6585 138.53 180.454 -0.701343 0.0425886 -0.71155
75.7677 137.741 180.908 0.640239 -0.15446 -0.752487
75.2331 138.308 180.336 0.640239 -0.15446 -0.752487
75.8073 138.51 180.783 0.640239 -0.15446 -0.752487
75.0855 137.316 180.382 0.655283 -0.131588 -0.743834
75.2331 138.308 180.336 0.655283 -0.131588 -0.743834
75.7677 137.741 180.908 0.655283 -0.131588 -0.743834
76.2182 138.426 181.285 0.807803 -0.233144 -0.541385
76.0675 137.371 181.514 0.807803 -0.233144 -0.541385
75.7677 137.741 180.908 0.807803 -0.233144 -0.541385
75.8073 138.51 180.783 0.753648 -0.142392 -0.641669
76.2182 138.426 181.285 0.753648 -0.142392 -0.641669
75.7677 137.741 180.908 0.753648 -0.142392 -0.641669
73.6585 138.53 180.454 -0.558014 0.474949 -0.680474
72.9237 138.807 181.25 -0.558014 0.474949 -0.680474
73.442 139.429 181.259 -0.558014 0.474949 -0.680474
73.6585 138.53 180.454 -0.705823 0.129413 -0.696467
72.7118 138.321 181.375 -0.705823 0.129413 -0.696467
72.9237 138.807 181.25 -0.705823 0.129413 -0.696467
73.6585 138.53 180.454 -0.570003 0.467666 -0.675563
73.442 139.429 181.259 -0.570003 0.467666 -0.675563
74.5348 139.526 180.404 -0.570003 0.467666 -0.675563
75.2331 138.308 180.336 0.647179 -0.233517 -0.725692
75.7084 139.364 180.42 0.647179 -0.233517 -0.725692
75.8073 138.51 180.783 0.647179 -0.233517 -0.725692
76.2896 139.757 180.684 0.79046 -0.0597161 -0.609596
76.9369 139.538 181.545 0.79046 -0.0597161 -0.609596
76.6308 139.271 181.174 0.79046 -0.0597161 -0.609596
75.7084 139.364 180.42 0.571809 -0.347728 -0.743048
76.2896 139.757 180.684 0.571809 -0.347728 -0.743048
76.6308 139.271 181.174 0.571809 -0.347728 -0.743048
75.7084 139.364 180.42 0.564291 -0.372268 -0.73688
76.6308 139.271 181.174 0.564291 -0.372268 -0.73688
76.2182 138.426 181.285 0.564291 -0.372268 -0.73688
75.7084 139.364 180.42 0.744248 -0.186433 -0.641356
76.2182 138.426 181.285 0.744248 -0.186433 -0.641356
75.8073 138.51 180.783 0.744248 -0.186433 -0.641356
74.5348 139.526 180.404 -0.516007 0.4328 -0.739203
73.7956 140.333 181.393 -0.516007 0.4328 -0.739203
74.9845 140.443 180.627 -0.516007 0.4328 -0.739203
73.442 139.429 181.259 -0.597822 0.341059 -0.725457
73.7956 140.333 181.393 -0.597822 0.341059 -0.725457
74.5348 139.526 180.404 -0.597822 0.341059 -0.725457
75.8759 140.111 180.467 0.0420512 0.523792 -0.850808
74.9845 140.443 180.627 0.0420512 0.523792 -0.850808
75.8498 140.525 180.721 0.0420512 0.523792 -0.850808
75.8759 140.111 180.467 0.516168 0.470785 -0.715494
75.8498 140.525 180.721 0.516168 0.470785 -0.715494
76.4442 140.432 181.088 0.516168 0.470785 -0.715494
76.2896 139.757 180.684 0.626866 0.289774 -0.723235
75.8759 140.111 180.467 0.626866 0.289774 -0.723235
76.4442 140.432 181.088 0.626866 0.289774 -0.723235
76.2896 139.757 180.684 0.67253 0.260918 -0.69255
76.4442 140.432 181.088 0.67253 0.260918 -0.69255
76.8229 140.178 181.36 0.67253 0.260918 -0.69255
76.2896 139.757 180.684 0.794745 -0.0330911 -0.606041
76.8229 140.178 181.36 0.794745 -0.0330911 -0.606041
76.9369 139.538 181.545 0.794745 -0.0330911 -0.606041
74.9845 140.443 180.627 -0.497091 0.515424 -0.698024
73.7956 140.333 181.393 -0.497091 0.515424 -0.698024
74.1732 140.756 181.436 -0.497091 0.515424 -0.698024
74.9845 140.443 180.627 -0.238237 0.801156 -0.548992
74.1732 140.756 181.436 -0.238237 0.801156 -0.548992
74.986 140.993 181.429 -0.238237 0.801156 -0.548992
75.8498 140.525 180.721 -0.0573903 0.949865 -0.307347
74.9845 140.443 180.627 -0.0573903 0.949865 -0.307347
75.9317 140.737 181.361 -0.0573903 0.949865 -0.307347
75.9317 140.737 181.361 0.178812 0.811255 -0.556679
74.9845 140.443 180.627 0.178812 0.811255 -0.556679
74.986 140.993 181.429 0.178812 0.811255 -0.556679
76.4442 140.432 181.088 0.344957 0.876931 -0.334659
75.8498 140.525 180.721 0.344957 0.876931 -0.334659
75.9317 140.737 181.361 0.344957 0.876931 -0.334659
74.9204 135.74 182.135 -0.173326 -0.678222 -0.714124
75.0196 135.448 182.388 -0.173326 -0.678222 -0.714124
74.6634 135.575 182.353 -0.173326 -0.678222 -0.714124
74.9204 135.74 182.135 0.105238 -0.440835 -0.891397
75.7609 135.735 182.236 0.105238 -0.440835 -0.891397
75.6143 135.48 182.345 0.105238 -0.440835 -0.891397
75.0196 135.448 182.388 -0.0185773 -0.658676 -0.752197
74.9204 135.74 182.135 -0.0185773 -0.658676 -0.752197
75.6143 135.48 182.345 -0.0185773 -0.658676 -0.752197
75.6143 135.48 182.345 0.749255 -0.572518 -0.332926
75.7609 135.735 182.236 0.749255 -0.572518 -0.332926
75.892 135.733 182.535 0.749255 -0.572518 -0.332926
72.9824 136.593 181.752 -0.649948 -0.747168 -0.13895
73.0247 136.446 182.346 -0.649948 -0.747168 -0.13895
72.6793 136.81 182.005 -0.649948 -0.747168 -0.13895
72.9824 136.593 181.752 -0.4351 -0.855485 -0.280772
73.4608 136.59 181.019 -0.4351 -0.855485 -0.280772
73.7597 136.357 181.268 -0.4351 -0.855485 -0.280772
72.9824 136.593 181.752 -0.394345 -0.898144 -0.194496
73.7597 136.357 181.268 -0.394345 -0.898144 -0.194496
73.0247 136.446 182.346 -0.394345 -0.898144 -0.194496
73.0247 136.446 182.346 -0.335531 -0.929714 -0.151822
73.7597 136.357 181.268 -0.335531 -0.929714 -0.151822
74.0282 136.088 182.32 -0.335531 -0.929714 -0.151822
74.3014 136.388 181.441 0.427235 -0.438333 -0.790781
74.9682 136.491 181.744 0.427235 -0.438333 -0.790781
74.9204 135.74 182.135 0.427235 -0.438333 -0.790781
74.3014 136.388 181.441 -0.404097 -0.820032 -0.405281
74.9204 135.74 182.135 -0.404097 -0.820032 -0.405281
74.0282 136.088 182.32 -0.404097 -0.820032 -0.405281
74.3014 136.388 181.441 0.143551 -0.949467 -0.279116
74.0282 136.088 182.32 0.143551 -0.949467 -0.279116
73.7597 136.357 181.268 0.143551 -0.949467 -0.279116
74.0282 136.088 182.32 -0.357383 -0.494491 -0.79231
74.9204 135.74 182.135 -0.357383 -0.494491 -0.79231
74.6634 135.575 182.353 -0.357383 -0.494491 -0.79231
75.7609 135.735 182.236 0.108226 -0.391452 -0.913812
74.9204 135.74 182.135 0.108226 -0.391452 -0.913812
75.7 136.456 181.92 0.108226 -0.391452 -0.913812
75.7 136.456 181.92 0.186463 -0.462515 -0.866782
74.9204 135.74 182.135 0.186463 -0.462515 -0.866782
74.9682 136.491 181.744 0.186463 -0.462515 -0.866782
76.0574 136.514 182.29 0.87136 -0.305087 -0.384257
75.892 135.733 182.535 0.87136 -0.305087 -0.384257
75.7609 135.735 182.236 0.87136 -0.305087 -0.384257
75.7 136.456 181.92 0.717792 -0.227784 -0.657943
76.0574 136.514 182.29 0.717792 -0.227784 -0.657943
75.7609 135.735 182.236 0.717792 -0.227784 -0.657943
73.2867 137.369 180.751 -0.739031 -0.404566 -0.538665
72.9824 136.593 181.752 -0.739031 -0.404566 -0.538665
72.6793 136.81 182.005 -0.739031 -0.404566 -0.538665
73.2867 137.369 180.751 -0.659395 -0.513786 -0.548837
72.6793 136.81 182.005 -0.659395 -0.513786 -0.548837
72.6094 137.501 181.441 -0.659395 -0.513786 -0.548837
72.6094 137.501 181.441 -0.922158 -0.296059 -0.248944
72.6793 136.81 182.005 -0.922158 -0.296059 -0.248944
72.4005 137.538 182.171 -0.922158 -0.296059 -0.248944
73.4608 136.59 181.019 -0.784508 -0.351193 -0.511088
72.9824 136.593 181.752 -0.784508 -0.351193 -0.511088
73.2867 137.369 180.751 -0.784508 -0.351193 -0.511088
74.3014 136.388 181.441 0.377086 -0.717917 -0.585151
74.8499 136.84 181.239 0.377086 -0.717917 -0.585151
74.9682 136.491 181.744 0.377086 -0.717917 -0.585151
75.539 137.062 181.199 0.216471 -0.778318 -0.589373
74.9682 136.491 181.744 0.216471 -0.778318 -0.589373
74.8499 136.84 181.239 0.216471 -0.778318 -0.589373
75.7 136.456 181.92 0.122006 -0.746113 -0.654546
74.9682 136.491 181.744 0.122006 -0.746113 -0.654546
75.539 137.062 181.199 0.122006 -0.746113 -0.654546
75.7 136.456 181.92 0.640396 -0.511476 -0.572962
75.539 137.062 181.199 0.640396 -0.511476 -0.572962
76.0675 137.371 181.514 0.640396 -0.511476 -0.572962
75.7 136.456 181.92 0.657109 -0.510177 -0.554912
76.0675 137.371 181.514 0.657109 -0.510177 -0.554912
76.0574 136.514 182.29 0.657109 -0.510177 -0.554912
76.0574 136.514 182.29 0.969499 -0.170685 -0.175893
76.0675 137.371 181.514 0.969499 -0.170685 -0.175893
76.279 137.663 182.397 0.969499 -0.170685 -0.175893
72.6094 137.501 181.441 -0.955639 0.0968494 -0.278161
72.4005 137.538 182.171 -0.955639 0.0968494 -0.278161
72.7118 138.321 181.375 -0.955639 0.0968494 -0.278161
72.4005 137.538 182.171 -0.963299 0.18995 -0.189668
72.5423 138.371 182.285 -0.963299 0.18995 -0.189668
72.7118 138.321 181.375 -0.963299 0.18995 -0.189668
76.8124 138.589 182.021 0.693865 -0.5755 -0.432841
76.279 137.663 182.397 0.693865 -0.5755 -0.432841
76.2182 138.426 181.285 0.693865 -0.5755 -0.432841
76.279 137.663 182.397 0.968861 -0.176265 -0.173896
76.0675 137.371 181.514 0.968861 -0.176265 -0.173896
76.2182 138.426 181.285 0.968861 -0.176265 -0.173896
72.7118 138.321 181.375 -0.959912 0.20615 -0.189922
72.5423 138.371 182.285 -0.959912 0.20615 -0.189922
72.7427 139.071 182.032 -0.959912 0.20615 -0.189922
72.9237 138.807 181.25 -0.897448 0.311202 -0.312634
72.7118 138.321 181.375 -0.897448 0.311202 -0.312634
72.7427 139.071 182.032 -0.897448 0.311202 -0.312634
72.7427 139.071 182.032 -0.712131 0.598703 -0.36664
73.442 139.429 181.259 -0.712131 0.598703 -0.36664
72.9237 138.807 181.25 -0.712131 0.598703 -0.36664
73.0126 139.504 182.33 -0.688606 0.649917 -0.321606
73.442 139.429 181.259 -0.688606 0.649917 -0.321606
72.7427 139.071 182.032 -0.688606 0.649917 -0.321606
76.2182 138.426 181.285 0.746347 -0.431032 -0.507127
76.6308 139.271 181.174 0.746347 -0.431032 -0.507127
76.8124 138.589 182.021 0.746347 -0.431032 -0.507127
76.8124 138.589 182.021 0.830728 -0.332882 -0.446184
76.6308 139.271 181.174 0.830728 -0.332882 -0.446184
76.9369 139.538 181.545 0.830728 -0.332882 -0.446184
76.8124 138.589 182.021 0.906744 -0.278051 -0.317021
76.9369 139.538 181.545 0.906744 -0.278051 -0.317021
77.0536 138.955 182.39 0.906744 -0.278051 -0.317021
77.0536 138.955 182.39 0.978376 -0.0804213 -0.190557
76.9369 139.538 181.545 0.978376 -0.0804213 -0.190557
77.0864 139.6 182.286 0.978376 -0.0804213 -0.190557
73.442 139.429 181.259 -0.846782 0.385393 -0.366649
73.0126 139.504 182.33 -0.846782 0.385393 -0.366649
73.7956 140.333 181.393 -0.846782 0.385393 -0.366649
73.0126 139.504 182.33 -0.82745 0.50588 -0.243744
73.4895 140.348 182.462 -0.82745 0.50588 -0.243744
73.7956 140.333 181.393 -0.82745 0.50588 -0.243744
76.8229 140.178 181.36 0.695607 0.573114 -0.43321
76.4442 140.432 181.088 0.695607 0.573114 -0.43321
76.7609 140.549 181.752 0.695607 0.573114 -0.43321
76.8229 140.178 181.36 0.901679 0.375893 -0.213727
76.7609 140.549 181.752 0.901679 0.375893 -0.213727
76.9719 140.294 182.193 0.901679 0.375893 -0.213727
76.8229 140.178 181.36 0.974419 0.118643 -0.190871
76.9719 140.294 182.193 0.974419 0.118643 -0.190871
76.9369 139.538 181.545 0.974419 0.118643 -0.190871
76.9369 139.538 181.545 0.969453 0.132309 -0.206531
76.9719 140.294 182.193 0.969453 0.132309 -0.206531
77.0864 139.6 182.286 0.969453 0.132309 -0.206531
73.7956 140.333 181.393 -0.728607 0.649516 -0.217394
73.4895 140.348 182.462 -0.728607 0.649516 -0.217394
73.9428 140.788 182.258 -0.728607 0.649516 -0.217394
74.1732 140.756 181.436 -0.71476 0.66178 -0.226198
73.7956 140.333 181.393 -0.71476 0.66178 -0.226198
73.9428 140.788 182.258 -0.71476 0.66178 -0.226198
74.986 140.993 181.429 -0.279595 0.956488 -0.0834126
74.1732 140.756 181.436 -0.279595 0.956488 -0.0834126
74.8337 141.023 182.289 -0.279595 0.956488 -0.0834126
74.1732 140.756 181.436 -0.250414 0.962121 -0.107774
73.9428 140.788 182.258 -0.250414 0.962121 -0.107774
74.8337 141.023 182.289 -0.250414 0.962121 -0.107774
75.9317 140.737 181.361 0.235615 0.939191 -0.249809
74.986 140.993 181.429 0.235615 0.939191 -0.249809
75.7411 141.005 182.189 0.235615 0.939191 -0.249809
74.986 140.993 181.429 0.0161685 0.999339 -0.0325678
74.8337 141.023 182.289 0.0161685 0.999339 -0.0325678
75.7411 141.005 182.189 0.0161685 0.999339 -0.0325678
76.7609 140.549 181.752 0.351872 0.878427 -0.323344
76.4442 140.432 181.088 0.351872 0.878427 -0.323344
75.9317 140.737 181.361 0.351872 0.878427 -0.323344
76.7609 140.549 181.752 0.25276 0.964864 -0.0717616
75.9317 140.737 181.361 0.25276 0.964864 -0.0717616
76.6042 140.635 182.357 0.25276 0.964864 -0.0717616
76.6042 140.635 182.357 0.418031 0.888072 -0.191252
75.9317 140.737 181.361 0.418031 0.888072 -0.191252
75.7411 141.005 182.189 0.418031 0.888072 -0.191252
76.9719 140.294 182.193 0.696927 0.712747 0.0792725
76.7609 140.549 181.752 0.696927 0.712747 0.0792725
76.6042 140.635 182.357 0.696927 0.712747 0.0792725
75.0196 135.448 182.388 -0.347177 -0.921916 0.171871
74.806 135.582 182.676 -0.347177 -0.921916 0.171871
74.6634 135.575 182.353 -0.347177 -0.921916 0.171871
75.0196 135.448 182.388 0.0668953 -0.978394 0.195628
75.6143 135.48 182.345 0.0668953 -0.978394 0.195628
75.5452 135.545 182.694 0.0668953 -0.978394 0.195628
74.806 135.582 182.676 -0.0556715 -0.920182 0.387512
75.0196 135.448 182.388 -0.0556715 -0.920182 0.387512
75.5452 135.545 182.694 -0.0556715 -0.920182 0.387512
75.6143 135.48 182.345 0.548293 -0.795874 0.256827
75.892 135.733 182.535 0.548293 -0.795874 0.256827
75.5452 135.545 182.694 0.548293 -0.795874 0.256827
73.0247 136.446 182.346 -0.752112 -0.656183 0.0612409
72.7183 136.824 182.639 -0.752112 -0.656183 0.0612409
72.6793 136.81 182.005 -0.752112 -0.656183 0.0612409
73.3046 136.615 183.127 -0.566139 -0.739715 0.363742
72.7183 136.824 182.639 -0.566139 -0.739715 0.363742
73.0247 136.446 182.346 -0.566139 -0.739715 0.363742
73.3046 136.615 183.127 -0.412555 -0.848208 0.332177
73.0247 136.446 182.346 -0.412555 -0.848208 0.332177
73.8183 136.386 183.179 -0.412555 -0.848208 0.332177
73.8183 136.386 183.179 -0.320442 -0.916509 0.239433
73.0247 136.446 182.346 -0.320442 -0.916509 0.239433
74.0282 136.088 182.32 -0.320442 -0.916509 0.239433
74.806 135.582 182.676 -0.610927 -0.738673 0.284834
74.0282 136.088 182.32 -0.610927 -0.738673 0.284834
74.6634 135.575 182.353 -0.610927 -0.738673 0.284834
74.806 135.582 182.676 -0.622008 -0.617504 0.48145
74.8598 135.942 183.207 -0.622008 -0.617504 0.48145
74.0282 136.088 182.32 -0.622008 -0.617504 0.48145
74.8598 135.942 183.207 -0.387512 -0.896201 0.216006
73.8183 136.386 183.179 -0.387512 -0.896201 0.216006
74.0282 136.088 182.32 -0.387512 -0.896201 0.216006
75.5452 135.545 182.694 -0.0553262 -0.823922 0.563997
74.8598 135.942 183.207 -0.0553262 -0.823922 0.563997
74.806 135.582 182.676 -0.0553262 -0.823922 0.563997
75.7272 135.947 183.19 0.01647 -0.779843 0.625759
74.8598 135.942 183.207 0.01647 -0.779843 0.625759
75.5452 135.545 182.694 0.01647 -0.779843 0.625759
75.7272 135.947 183.19 0.568926 -0.728549 0.381497
75.5452 135.545 182.694 0.568926 -0.728549 0.381497
75.892 135.733 182.535 0.568926 -0.728549 0.381497
75.7272 135.947 183.19 0.866726 -0.3667 0.338108
75.892 135.733 182.535 0.866726 -0.3667 0.338108
75.9953 136.66 183.276 0.866726 -0.3667 0.338108
75.9953 136.66 183.276 0.979777 -0.17963 0.0881519
75.892 135.733 182.535 0.979777 -0.17963 0.0881519
76.0574 136.514 182.29 0.979777 -0.17963 0.0881519
72.7183 136.824 182.639 -0.912672 -0.159724 0.376189
72.643 137.724 182.839 -0.912672 -0.159724 0.376189
72.4005 137.538 182.171 -0.912672 -0.159724 0.376189
72.6793 136.81 182.005 -0.926812 -0.36979 0.065378
72.7183 136.824 182.639 -0.926812 -0.36979 0.065378
72.4005 137.538 182.171 -0.926812 -0.36979 0.065378
73.0571 137.351 183.283 -0.668706 -0.362805 0.649003
72.7183 136.824 182.639 -0.668706 -0.362805 0.649003
73.3046 136.615 183.127 -0.668706 -0.362805 0.649003
72.643 137.724 182.839 -0.793507 -0.194233 0.576732
72.7183 136.824 182.639 -0.793507 -0.194233 0.576732
73.0571 137.351 183.283 -0.793507 -0.194233 0.576732
76.0574 136.514 182.29 0.976274 -0.19674 0.0904569
76.279 137.663 182.397 0.976274 -0.19674 0.0904569
75.9953 136.66 183.276 0.976274 -0.19674 0.0904569
75.9953 136.66 183.276 0.977831 -0.172787 0.118283
76.279 137.663 182.397 0.977831 -0.172787 0.118283
76.1481 137.552 183.317 0.977831 -0.172787 0.118283
72.643 137.724 182.839 -0.965664 0.0649024 0.251555
72.6802 138.617 182.751 -0.965664 0.0649024 0.251555
72.5423 138.371 182.285 -0.965664 0.0649024 0.251555
72.4005 137.538 182.171 -0.943418 0.118246 0.309807
72.643 137.724 182.839 -0.943418 0.118246 0.309807
72.5423 138.371 182.285 -0.943418 0.118246 0.309807
73.0196 138.466 183.234 -0.729132 0.00539657 0.684352
72.643 137.724 182.839 -0.729132 0.00539657 0.684352
73.0571 137.351 183.283 -0.729132 0.00539657 0.684352
72.6802 138.617 182.751 -0.801089 0.0913916 0.591527
72.643 137.724 182.839 -0.801089 0.0913916 0.591527
73.0196 138.466 183.234 -0.801089 0.0913916 0.591527
76.8019 138.551 182.603 0.863313 -0.504375 -0.0172161
76.279 137.663 182.397 0.863313 -0.504375 -0.0172161
76.8124 138.589 182.021 0.863313 -0.504375 -0.0172161
76.8019 138.551 182.603 0.718086 -0.527956 0.453449
76.2987 138.545 183.392 0.718086 -0.527956 0.453449
76.279 137.663 182.397 0.718086 -0.527956 0.453449
76.2987 138.545 183.392 0.980095 -0.157855 0.120396
76.1481 137.552 183.317 0.980095 -0.157855 0.120396
76.279 137.663 182.397 0.980095 -0.157855 0.120396
76.8124 138.589 182.021 0.843747 -0.536381 -0.0196434
77.0536 138.955 182.39 0.843747 -0.536381 -0.0196434
76.8019 138.551 182.603 0.843747 -0.536381 -0.0196434
72.5423 138.371 182.285 -0.943356 0.311392 0.114521
72.6802 138.617 182.751 -0.943356 0.311392 0.114521
72.7427 139.071 182.032 -0.943356 0.311392 0.114521
72.6802 138.617 182.751 -0.88636 0.422425 0.189533
73.0126 139.504 182.33 -0.88636 0.422425 0.189533
72.7427 139.071 182.032 -0.88636 0.422425 0.189533
72.6802 138.617 182.751 -0.617579 0.514478 0.594902
73.0196 138.466 183.234 -0.617579 0.514478 0.594902
73.0126 139.504 182.33 -0.617579 0.514478 0.594902
73.0196 138.466 183.234 -0.800137 0.391083 0.454791
73.4973 139.512 183.175 -0.800137 0.391083 0.454791
73.0126 139.504 182.33 -0.800137 0.391083 0.454791
76.8019 138.551 182.603 0.75627 -0.446263 0.47844
76.8803 139.215 183.098 0.75627 -0.446263 0.47844
76.2987 138.545 183.392 0.75627 -0.446263 0.47844
76.8803 139.215 183.098 0.8674 -0.359287 0.344282
76.8019 138.551 182.603 0.8674 -0.359287 0.344282
77.0536 138.955 182.39 0.8674 -0.359287 0.344282
76.8803 139.215 183.098 0.941151 -0.169289 0.292534
77.0536 138.955 182.39 0.941151 -0.169289 0.292534
77.0047 139.692 182.974 0.941151 -0.169289 0.292534
77.0047 139.692 182.974 0.992047 -0.0308967 0.12202
77.0536 138.955 182.39 0.992047 -0.0308967 0.12202
77.0864 139.6 182.286 0.992047 -0.0308967 0.12202
73.9128 140.083 183.373 -0.739647 0.47112 0.480591
73.91 140.58 182.881 -0.739647 0.47112 0.480591
73.4895 140.348 182.462 -0.739647 0.47112 0.480591
73.9128 140.083 183.373 -0.780351 0.40163 0.479317
73.4895 140.348 182.462 -0.780351 0.40163 0.479317
73.4973 139.512 183.175 -0.780351 0.40163 0.479317
73.4973 139.512 183.175 -0.803354 0.382139 0.456719
73.4895 140.348 182.462 -0.803354 0.382139 0.456719
73.0126 139.504 182.33 -0.803354 0.382139 0.456719
73.9128 140.083 183.373 -0.544415 0.588297 0.597929
74.3795 140.478 183.41 -0.544415 0.588297 0.597929
73.91 140.58 182.881 -0.544415 0.588297 0.597929
76.8689 140.387 182.714 0.484688 0.692715 0.534063
76.402 140.401 183.12 0.484688 0.692715 0.534063
76.8436 140.046 183.179 0.484688 0.692715 0.534063
76.8689 140.387 182.714 0.927483 0.27566 0.252562
76.8436 140.046 183.179 0.927483 0.27566 0.252562
77.0047 139.692 182.974 0.927483 0.27566 0.252562
76.8689 140.387 182.714 0.959097 0.242247 0.146452
77.0047 139.692 182.974 0.959097 0.242247 0.146452
76.9719 140.294 182.193 0.959097 0.242247 0.146452
76.9719 140.294 182.193 0.980302 0.174191 0.0930864
77.0047 139.692 182.974 0.980302 0.174191 0.0930864
77.0864 139.6 182.286 0.980302 0.174191 0.0930864
73.4895 140.348 182.462 -0.628453 0.747303 0.215837
73.91 140.58 182.881 -0.628453 0.747303 0.215837
73.9428 140.788 182.258 -0.628453 0.747303 0.215837
73.91 140.58 182.881 -0.314627 0.839726 0.442572
74.3795 140.478 183.41 -0.314627 0.839726 0.442572
74.6746 140.749 183.104 -0.314627 0.839726 0.442572
73.91 140.58 182.881 -0.286252 0.913448 0.289261
74.6746 140.749 183.104 -0.286252 0.913448 0.289261
73.9428 140.788 182.258 -0.286252 0.913448 0.289261
73.9428 140.788 182.258 -0.255027 0.930471 0.263031
74.6746 140.749 183.104 -0.255027 0.930471 0.263031
74.8337 141.023 182.289 -0.255027 0.930471 0.263031
75.7411 141.005 182.189 0.0660095 0.898104 0.434802
74.8337 141.023 182.289 0.0660095 0.898104 0.434802
75.8045 140.474 183.276 0.0660095 0.898104 0.434802
74.8337 141.023 182.289 0.172366 0.923021 0.34398
74.6746 140.749 183.104 0.172366 0.923021 0.34398
75.8045 140.474 183.276 0.172366 0.923021 0.34398
76.402 140.401 183.12 0.336235 0.871639 0.35664
76.8689 140.387 182.714 0.336235 0.871639 0.35664
76.6042 140.635 182.357 0.336235 0.871639 0.35664
76.402 140.401 183.12 0.200716 0.920346 0.335673
76.6042 140.635 182.357 0.200716 0.920346 0.335673
75.8045 140.474 183.276 0.200716 0.920346 0.335673
75.8045 140.474 183.276 0.292321 0.865921 0.405869
76.6042 140.635 182.357 0.292321 0.865921 0.405869
75.7411 141.005 182.189 0.292321 0.865921 0.405869
76.9719 140.294 182.193 0.681383 0.731914 0.00424808
76.6042 140.635 182.357 0.681383 0.731914 0.00424808
76.8689 140.387 182.714 0.681383 0.731914 0.00424808
73.8183 136.386 183.179 -0.376822 -0.707589 0.597765
73.7001 136.736 183.519 -0.376822 -0.707589 0.597765
73.3046 136.615 183.127 -0.376822 -0.707589 0.597765
73.8183 136.386 183.179 -0.317087 -0.703779 0.635729
74.8598 135.942 183.207 -0.317087 -0.703779 0.635729
74.5621 136.662 183.856 -0.317087 -0.703779 0.635729
73.7001 136.736 183.519 -0.306978 -0.714299 0.628922
73.8183 136.386 183.179 -0.306978 -0.714299 0.628922
74.5621 136.662 183.856 -0.306978 -0.714299 0.628922
74.8598 135.942 183.207 0.0171615 -0.741834 0.670364
75.7272 135.947 183.19 0.0171615 -0.741834 0.670364
75.5487 136.486 183.791 0.0171615 -0.741834 0.670364
74.5621 136.662 183.856 -0.0747817 -0.684321 0.725337
74.8598 135.942 183.207 -0.0747817 -0.684321 0.725337
75.5487 136.486 183.791 -0.0747817 -0.684321 0.725337
75.7272 135.947 183.19 0.762742 -0.352223 0.542368
75.9953 136.66 183.276 0.762742 -0.352223 0.542368
75.5487 136.486 183.791 0.762742 -0.352223 0.542368
73.7001 136.736 183.519 -0.564887 -0.294516 0.77082
73.7824 137.605 183.912 -0.564887 -0.294516 0.77082
73.0571 137.351 183.283 -0.564887 -0.294516 0.77082
73.3046 136.615 183.127 -0.601937 -0.354501 0.715543
73.7001 136.736 183.519 -0.601937 -0.354501 0.715543
73.0571 137.351 183.283 -0.601937 -0.354501 0.715543
74.3758 137.476 184.282 -0.28978 -0.495299 0.818966
74.5621 136.662 183.856 -0.28978 -0.495299 0.818966
75.0336 137.088 184.28 -0.28978 -0.495299 0.818966
74.3758 137.476 184.282 -0.536934 -0.484617 0.690542
73.7824 137.605 183.912 -0.536934 -0.484617 0.690542
74.5621 136.662 183.856 -0.536934 -0.484617 0.690542
73.7824 137.605 183.912 -0.36655 -0.353774 0.860514
73.7001 136.736 183.519 -0.36655 -0.353774 0.860514
74.5621 136.662 183.856 -0.36655 -0.353774 0.860514
75.5487 136.486 183.791 -0.0699484 -0.664266 0.744216
75.0336 137.088 184.28 -0.0699484 -0.664266 0.744216
74.5621 136.662 183.856 -0.0699484 -0.664266 0.744216
75.7574 137.03 184.151 0.0996123 -0.574611 0.812342
75.0336 137.088 184.28 0.0996123 -0.574611 0.812342
75.5487 136.486 183.791 0.0996123 -0.574611 0.812342
75.7574 137.03 184.151 0.711678 -0.556206 0.429126
75.5487 136.486 183.791 0.711678 -0.556206 0.429126
75.9953 136.66 183.276 0.711678 -0.556206 0.429126
75.7574 137.03 184.151 0.891156 -0.276661 0.359584
75.9953 136.66 183.276 0.891156 -0.276661 0.359584
75.9786 137.658 184.086 0.891156 -0.276661 0.359584
75.9786 137.658 184.086 0.956219 -0.174489 0.234944
75.9953 136.66 183.276 0.956219 -0.174489 0.234944
76.1481 137.552 183.317 0.956219 -0.174489 0.234944
73.7824 137.605 183.912 -0.529932 0.182274 0.82822
73.7952 138.727 183.673 -0.529932 0.182274 0.82822
73.0196 138.466 183.234 -0.529932 0.182274 0.82822
73.0571 137.351 183.283 -0.657141 0.0108504 0.75369
73.7824 137.605 183.912 -0.657141 0.0108504 0.75369
73.0196 138.466 183.234 -0.657141 0.0108504 0.75369
74.471 138.36 184.268 -0.517471 0.0693422 0.852886
73.7824 137.605 183.912 -0.517471 0.0693422 0.852886
74.3758 137.476 184.282 -0.517471 0.0693422 0.852886
73.7952 138.727 183.673 -0.596068 0.17361 0.783941
73.7824 137.605 183.912 -0.596068 0.17361 0.783941
74.471 138.36 184.268 -0.596068 0.17361 0.783941
76.1481 137.552 183.317 0.958486 -0.16311 0.23388
76.2987 138.545 183.392 0.958486 -0.16311 0.23388
75.9786 137.658 184.086 0.958486 -0.16311 0.23388
75.9786 137.658 184.086 0.927797 -0.0452674 0.370329
76.2987 138.545 183.392 0.927797 -0.0452674 0.370329
75.9853 138.673 184.193 0.927797 -0.0452674 0.370329
73.7952 138.727 183.673 -0.715438 0.159708 0.680178
73.8433 139.499 183.542 -0.715438 0.159708 0.680178
73.4973 139.512 183.175 -0.715438 0.159708 0.680178
73.0196 138.466 183.234 -0.543512 0.292506 0.786788
73.7952 138.727 183.673 -0.543512 0.292506 0.786788
73.4973 139.512 183.175 -0.543512 0.292506 0.786788
74.5032 139.384 184.122 -0.614582 0.12993 0.778079
73.7952 138.727 183.673 -0.614582 0.12993 0.778079
74.471 138.36 184.268 -0.614582 0.12993 0.778079
73.8433 139.499 183.542 -0.634424 0.167272 0.754669
73.7952 138.727 183.673 -0.634424 0.167272 0.754669
74.5032 139.384 184.122 -0.634424 0.167272 0.754669
76.6618 139.673 183.377 0.604345 -0.184081 0.775165
76.2987 138.545 183.392 0.604345 -0.184081 0.775165
76.8803 139.215 183.098 0.604345 -0.184081 0.775165
76.6618 139.673 183.377 0.712436 -0.220304 0.666259
76.0462 139.469 183.968 0.712436 -0.220304 0.666259
76.2987 138.545 183.392 0.712436 -0.220304 0.666259
76.0462 139.469 183.968 0.932434 0.0304421 0.360055
75.9853 138.673 184.193 0.932434 0.0304421 0.360055
76.2987 138.545 183.392 0.932434 0.0304421 0.360055
76.8803 139.215 183.098 0.762256 -0.0305595 0.646553
77.0047 139.692 182.974 0.762256 -0.0305595 0.646553
76.6618 139.673 183.377 0.762256 -0.0305595 0.646553
73.4973 139.512 183.175 -0.694687 0.275291 0.664549
73.8433 139.499 183.542 -0.694687 0.275291 0.664549
73.9128 140.083 183.373 -0.694687 0.275291 0.664549
74.3795 140.478 183.41 -0.237636 0.678076 0.695516
74.7443 139.934 184.064 -0.237636 0.678076 0.695516
74.9719 140.413 183.675 -0.237636 0.678076 0.695516
73.9128 140.083 183.373 -0.491208 0.515646 0.702014
74.7443 139.934 184.064 -0.491208 0.515646 0.702014
74.3795 140.478 183.41 -0.491208 0.515646 0.702014
73.9128 140.083 183.373 -0.568057 0.329104 0.754322
74.5032 139.384 184.122 -0.568057 0.329104 0.754322
74.7443 139.934 184.064 -0.568057 0.329104 0.754322
73.9128 140.083 183.373 -0.603772 0.287375 0.743556
73.8433 139.499 183.542 -0.603772 0.287375 0.743556
74.5032 139.384 184.122 -0.603772 0.287375 0.743556
74.9719 140.413 183.675 0.286533 0.656489 0.697797
75.5765 139.583 184.208 0.286533 0.656489 0.697797
75.8045 140.474 183.276 0.286533 0.656489 0.697797
74.7443 139.934 184.064 0.113006 0.593572 0.796807
75.5765 139.583 184.208 0.113006 0.593572 0.796807
74.9719 140.413 183.675 0.113006 0.593572 0.796807
76.0462 139.469 183.968 0.478657 0.573166 0.665108
75.8045 140.474 183.276 0.478657 0.573166 0.665108
75.5765 139.583 184.208 0.478657 0.573166 0.665108
76.6618 139.673 183.377 0.458279 0.576247 0.676697
75.8045 140.474 183.276 0.458279 0.576247 0.676697
76.0462 139.469 183.968 0.458279 0.576247 0.676697
76.6618 139.673 183.377 0.277284 0.407039 0.870306
76.402 140.401 183.12 0.277284 0.407039 0.870306
75.8045 140.474 183.276 0.277284 0.407039 0.870306
76.6618 139.673 183.377 0.189878 0.387133 0.902261
76.8436 140.046 183.179 0.189878 0.387133 0.902261
76.402 140.401 183.12 0.189878 0.387133 0.902261
77.0047 139.692 182.974 0.762255 -0.0276783 0.646685
76.8436 140.046 183.179 0.762255 -0.0276783 0.646685
76.6618 139.673 183.377 0.762255 -0.0276783 0.646685
74.3795 140.478 183.41 -0.163492 0.810478 0.562491
74.9719 140.413 183.675 -0.163492 0.810478 0.562491
74.6746 140.749 183.104 -0.163492 0.810478 0.562491
75.8045 140.474 183.276 0.147703 0.883868 0.443804
74.6746 140.749 183.104 0.147703 0.883868 0.443804
74.9719 140.413 183.675 0.147703 0.883868 0.443804
75.0336 137.088 184.28 -0.198084 -0.340295 0.919218
74.9437 137.773 184.515 -0.198084 -0.340295 0.919218
74.3758 137.476 184.282 -0.198084 -0.340295 0.919218
75.0336 137.088 184.28 0.127638 -0.418885 0.899024
75.7574 137.03 184.151 0.127638 -0.418885 0.899024
75.6362 137.537 184.404 0.127638 -0.418885 0.899024
74.9437 137.773 184.515 0.0428203 -0.318195 0.947058
75.0336 137.088 184.28 0.0428203 -0.318195 0.947058
75.6362 137.537 184.404 0.0428203 -0.318195 0.947058
75.7574 137.03 184.151 0.702871 -0.176348 0.689111
75.9786 137.658 184.086 0.702871 -0.176348 0.689111
75.6362 137.537 184.404 0.702871 -0.176348 0.689111
74.9437 137.773 184.515 -0.36725 0.0928421 0.925477
74.9623 138.743 184.425 -0.36725 0.0928421 0.925477
74.471 138.36 184.268 -0.36725 0.0928421 0.925477
74.3758 137.476 184.282 -0.403894 0.0580825 0.91296
74.9437 137.773 184.515 -0.403894 0.0580825 0.91296
74.471 138.36 184.268 -0.403894 0.0580825 0.91296
75.6362 137.537 184.404 0.146069 -0.035098 0.988652
75.6712 138.386 184.429 0.146069 -0.035098 0.988652
74.9437 137.773 184.515 0.146069 -0.035098 0.988652
75.6712 138.386 184.429 0.0401891 0.0914913 0.994995
74.9623 138.743 184.425 0.0401891 0.0914913 0.994995
74.9437 137.773 184.515 0.0401891 0.0914913 0.994995
75.9786 137.658 184.086 0.646488 -0.0844095 0.75824
75.9853 138.673 184.193 0.646488 -0.0844095 0.75824
75.6712 138.386 184.429 0.646488 -0.0844095 0.75824
75.6362 137.537 184.404 0.689262 -0.0496325 0.72281
75.9786 137.658 184.086 0.689262 -0.0496325 0.72281
75.6712 138.386 184.429 0.689262 -0.0496325 0.72281
74.9623 138.743 184.425 -0.46249 0.0847029 0.882569
74.9189 139.486 184.331 -0.46249 0.0847029 0.882569
74.5032 139.384 184.122 -0.46249 0.0847029 0.882569
74.471 138.36 184.268 -0.398882 0.141329 0.906046
74.9623 138.743 184.425 -0.398882 0.141329 0.906046
74.5032 139.384 184.122 -0.398882 0.141329 0.906046
75.6712 138.386 184.429 0.0887781 0.187588 0.978228
75.5765 139.583 184.208 0.0887781 0.187588 0.978228
74.9623 138.743 184.425 0.0887781 0.187588 0.978228
75.5765 139.583 184.208 0.162768 0.133293 0.977619
74.9189 139.486 184.331 0.162768 0.133293 0.977619
74.9623 138.743 184.425 0.162768 0.133293 0.977619
75.9853 138.673 184.193 0.484227 0.203496 0.850949
76.0462 139.469 183.968 0.484227 0.203496 0.850949
75.5765 139.583 184.208 0.484227 0.203496 0.850949
75.6712 138.386 184.429 0.46806 0.19606 0.861673
75.9853 138.673 184.193 0.46806 0.19606 0.861673
75.5765 139.583 184.208 0.46806 0.19606 0.861673
74.5032 139.384 184.122 -0.484595 0.299675 0.821804
74.9189 139.486 184.331 -0.484595 0.299675 0.821804
74.7443 139.934 184.064 -0.484595 0.299675 0.821804
75.5765 139.583 184.208 0.0789256 0.531822 0.84317
74.7443 139.934 184.064 0.0789256 0.531822 0.84317
74.9189 139.486 184.331 0.0789256 0.531822 0.84317
3 0 1 2
3 3 4 5
3 6 7 8
3 9 10 11
3 12 13 14
3 15 16 17
3 18 19 20
3 21 22 23
3 24 25 26
3 27 28 29
3 30 31 32
3 33 34 35
3 36 37 38
3 39 40 41
3 42 43 44
3 45 46 47
3 48 49 50
3 51 52 53
3 54 55 56
3 57 58 59
3 60 61 62
3 63 64 65
3 66 67 68
3 69 70 71
3 72 73 74
3 75 76 77
3 78 79 80
3 81 82 83
3 84 85 86
3 87 88 89
3 90 91 92
3 93 94 95
3 96 97 98
3 99 100 101
3 102 103 104
3 105 106 107
3 108 109 110
3 111 112 113
3 114 115 116
3 117 118 119
3 120 121 122
3 123 124 125
3 126 127 128
3 129 130 131
3 132 133 134
3 135 136 137
3 138 139 140
3 141 142 143
3 144 145 146
3 147 148 149
3 150 151 152
3 153 154 155
3 156 157 158
3 159 160 161
3 162 163 164
3 165 166 167
3 168 169 170
3 171 172 173
3 174 175 176
3 177 178 179
3 180 181 182
3 183 184 185
3 186 187 188
3 189 190 191
3 192 193 194
3 195 196 197
3 198 199 200
3 201 202 203
3 204 205 206
3 207 208 209
3 210 211 212
3 213 214 215
3 216 217 218
3 219 220 221
3 222 223 224
3 225 226 227
3 228 229 230
3 231 232 233
3 234 235 236
3 237 238 239
3 240 241 242
3 243 244 245
3 246 247 248
3 249 250 251
3 252 253 254
3 255 256 257
3 258 259 260
3 261 262 263
3 264 265 266
3 267 268 269
3 270 271 272
3 273 274 275
3 276 277 278
3 279 280 281
3 282 283 284
3 285 286 287
3 288 289 290
3 291 292 293
3 294 295 296
3 297 298 299
3 300 301 302
3 303 304 305
3 306 307 308
3 309 310 311
3 312 313 314
3 315 316 317
3 318 319 320
3 321 322 323
3 324 325 326
3 327 328 329
3 330 331 332
3 333 334 335
3 336 337 338
3 339 340 341
3 342 343 344
3 345 346 347
3 348 349 350
3 351 352 353
3 354 355 356
3 357 358 359
3 360 361 362
3 363 364 365
3 366 367 368
3 369 370 371
3 372 373 374
3 375 376 377
3 378 379 380
3 381 382 383
3 384 385 386
3 387 388 389
3 390 391 392
3 393 394 395
3 396 397 398
3 399 400 401
3 402 403 404
3 405 406 407
3 408 409 410
3 411 412 413
3 414 415 416
3 417 418 419
3 420 421 422
3 423 424 425
3 426 427 428
3 429 430 431
3 432 433 434
3 435 436 437
3 438 439 440
3 441 442 443
3 444 445 446
3 447 448 449
3 450 451 452
3 453 454 455
3 456 457 458
3 459 460 461
3 462 463 464
3 465 466 467
3 468 469 470
3 471 472 473
3 474 475 476
3 477 478 479
3 480 481 482
3 483 484 485
3 486 487 488
3 489 490 491
3 492 493 494
3 495 496 497
3 498 499 500
3 501 502 503
3 504 505 506
3 507 508 509
3 510 511 512
3 513 514 515
3 516 517 518
3 519 520 521
3 522 523 524
3 525 526 527
3 528 529 530
3 531 532 533
3 534 535 536
3 537 538 539
3 540 541 542
3 543 544 545
3 546 547 548
3 549 550 551
3 552 553 554
3 555 556 557
3 558 559 560
3 561 562 563
3 564 565 566
3 567 568 569
3 570 571 572
3 573 574 575
3 576 577 578
3 579 580 581
3 582 583 584
3 585 586 587
3 588 589 590
3 591 592 593
3 594 595 596
3 597 598 599
3 600 601 602
3 603 604 605
3 606 607 608
3 609 610 611
3 612 613 614
3 615 616 617
3 618 619 620
3 621 622 623
3 624 625 626
3 627 628 629
3 630 631 632
3 633 634 635
3 636 637 638
3 639 640 641
3 642 643 644
3 645 646 647
3 648 649 650
3 651 652 653
3 654 655 656
3 657 658 659
3 660 661 662
3 663 664 665
3 666 667 668
3 669 670 671
3 672 673 674
3 675 676 677
3 678 679 680
3 681 682 683
3 684 685 686
3 687 688 689
3 690 691 692
3 693 694 695
