ply
format ascii 1.0
element vertex 420
property float x
property float y
property float z
property float nx
property float ny
property float nz
element face 140
property list uint uint vertex_indices
end_header
124.412 155.366 159.154 -0.314546 -0.27176 -0.90951
124.348 154.661 159.387 -0.314546 -0.27176 -0.90951
123.691 155.244 159.44 -0.314546 -0.27176 -0.90951
124.412 155.366 159.154 0.019499 -0.280348 -0.9597
125.255 155.362 159.172 0.019499 -0.280348 -0.9597
125.091 154.579 159.398 0.019499 -0.280348 -0.9597
124.348 154.661 159.387 -0.0200575 -0.311491 -0.950037
124.412 155.366 159.154 -0.0200575 -0.311491 -0.950037
125.091 154.579 159.398 -0.0200575 -0.311491 -0.950037
125.091 154.579 159.398 0.668081 -0.331607 -0.666112
125.255 155.362 159.172 0.668081 -0.331607 -0.666112
125.694 155.148 159.719 0.668081 -0.331607 -0.666112
123.691 155.244 159.44 -0.673055 -0.162569 -0.721504
123.174 156.148 159.718 -0.673055 -0.162569 -0.721504
123.6 156.141 159.322 -0.673055 -0.162569 -0.721504
123.691 155.244 159.44 -0.341021 -0.156093 -0.927006
123.6 156.141 159.322 -0.341021 -0.156093 -0.927006
124.412 155.366 159.154 -0.341021 -0.156093 -0.927006
124.412 155.366 159.154 -0.307825 -0.117643 -0.944142
123.6 156.141 159.322 -0.307825 -0.117643 -0.944142
124.297 156.209 159.087 -0.307825 -0.117643 -0.944142
125.255 155.362 159.172 0.0217883 0.113148 -0.993339
124.412 155.366 159.154 0.0217883 0.113148 -0.993339
124.998 156.243 159.267 0.0217883 0.113148 -0.993339
124.998 156.243 159.267 0.250877 -0.0434085 -0.967045
124.412 155.366 159.154 0.250877 -0.0434085 -0.967045
124.297 156.209 159.087 0.250877 -0.0434085 -0.967045
125.456 156.017 159.492 0.78918 0.0558409 -0.611618
125.694 155.148 159.719 0.78918 0.0558409 -0.611618
125.255 155.362 159.172 0.78918 0.0558409 -0.611618
124.998 156.243 159.267 0.520876 0.239672 -0.819296
125.456 156.017 159.492 0.520876 0.239672 -0.819296
125.255 155.362 159.172 0.520876 0.239672 -0.819296
123.6 156.141 159.322 -0.680604 0.00307476 -0.732645
123.174 156.148 159.718 -0.680604 0.00307476 -0.732645
123.438 156.586 159.474 -0.680604 0.00307476 -0.732645
123.438 156.586 159.474 -0.366371 0.404094 -0.838141
123.782 157.147 159.595 -0.366371 0.404094 -0.838141
124.155 156.853 159.29 -0.366371 0.404094 -0.838141
123.438 156.586 159.474 -0.314457 0.203054 -0.9273
124.155 156.853 159.29 -0.314457 0.203054 -0.9273
123.6 156.141 159.322 -0.314457 0.203054 -0.9273
123.6 156.141 159.322 -0.331645 0.216875 -0.918138
124.155 156.853 159.29 -0.331645 0.216875 -0.918138
124.297 156.209 159.087 -0.331645 0.216875 -0.918138
124.398 157.143 159.659 0.447349 0.591392 -0.670921
125.249 156.56 159.713 0.447349 0.591392 -0.670921
124.998 156.243 159.267 0.447349 0.591392 -0.670921
124.398 157.143 159.659 0.39776 0.576832 -0.713479
124.998 156.243 159.267 0.39776 0.576832 -0.713479
124.155 156.853 159.29 0.39776 0.576832 -0.713479
124.155 156.853 159.29 0.219036 0.337143 -0.915619
124.998 156.243 159.267 0.219036 0.337143 -0.915619
124.297 156.209 159.087 0.219036 0.337143 -0.915619
125.456 156.017 159.492 0.567231 0.486932 -0.664189
124.998 156.243 159.267 0.567231 0.486932 -0.664189
125.249 156.56 159.713 0.567231 0.486932 -0.664189
124.155 156.853 159.29 0.0732707 0.760985 -0.644619
123.782 157.147 159.595 0.0732707 0.760985 -0.644619
124.398 157.143 159.659 0.0732707 0.760985 -0.644619
124.36 154.308 159.776 -0.384869 -0.810575 -0.441411
124.361 153.816 160.677 -0.384869 -0.810575 -0.441411
123.623 154.312 160.411 -0.384869 -0.810575 -0.441411
124.36 154.308 159.776 -0.0593236 -0.797822 -0.599968
125.484 154.219 159.782 -0.0593236 -0.797822 -0.599968
125.355 153.704 160.48 -0.0593236 -0.797822 -0.599968
124.361 153.816 160.677 -0.190544 -0.862048 -0.469645
124.36 154.308 159.776 -0.190544 -0.862048 -0.469645
125.355 153.704 160.48 -0.190544 -0.862048 -0.469645
125.484 154.219 159.782 0.646816 -0.231983 -0.726507
126.275 154.298 160.461 0.646816 -0.231983 -0.726507
126.106 153.855 160.452 0.646816 -0.231983 -0.726507
125.355 153.704 160.48 0.140914 -0.808744 -0.571031
125.484 154.219 159.782 0.140914 -0.808744 -0.571031
126.106 153.855 160.452 0.140914 -0.808744 -0.571031
123.353 155.059 159.864 -0.776369 -0.463798 -0.426781
123.181 154.695 160.573 -0.776369 -0.463798 -0.426781
122.89 155.367 160.37 -0.776369 -0.463798 -0.426781
123.623 154.312 160.411 -0.670677 -0.58088 -0.461271
123.181 154.695 160.573 -0.670677 -0.58088 -0.461271
123.353 155.059 159.864 -0.670677 -0.58088 -0.461271
124.36 154.308 159.776 -0.514085 -0.620255 -0.592453
123.623 154.312 160.411 -0.514085 -0.620255 -0.592453
123.353 155.059 159.864 -0.514085 -0.620255 -0.592453
124.36 154.308 159.776 -0.491419 -0.583512 -0.646545
123.353 155.059 159.864 -0.491419 -0.583512 -0.646545
123.691 155.244 159.44 -0.491419 -0.583512 -0.646545
124.36 154.308 159.776 -0.584113 -0.609978 -0.53548
123.691 155.244 159.44 -0.584113 -0.609978 -0.53548
124.348 154.661 159.387 -0.584113 -0.609978 -0.53548
125.091 154.579 159.398 -0.0715912 -0.739817 -0.668989
124.36 154.308 159.776 -0.0715912 -0.739817 -0.668989
124.348 154.661 159.387 -0.0715912 -0.739817 -0.668989
125.484 154.219 159.782 -0.0558438 -0.757074 -0.650939
124.36 154.308 159.776 -0.0558438 -0.757074 -0.650939
125.091 154.579 159.398 -0.0558438 -0.757074 -0.650939
125.694 155.148 159.719 0.593534 -0.186849 -0.782818
125.484 154.219 159.782 0.593534 -0.186849 -0.782818
125.091 154.579 159.398 0.593534 -0.186849 -0.782818
125.694 155.148 159.719 0.649906 -0.19627 -0.734235
126.275 154.298 160.461 0.649906 -0.19627 -0.734235
125.484 154.219 159.782 0.649906 -0.19627 -0.734235
125.694 155.148 159.719 0.772715 -0.0251453 -0.634255
126.389 154.987 160.572 0.772715 -0.0251453 -0.634255
126.275 154.298 160.461 0.772715 -0.0251453 -0.634255
123.174 156.148 159.718 -0.781845 -0.206924 -0.588133
123.353 155.059 159.864 -0.781845 -0.206924 -0.588133
122.89 155.367 160.37 -0.781845 -0.206924 -0.588133
123.174 156.148 159.718 -0.890747 -0.0532429 -0.45137
122.89 155.367 160.37 -0.890747 -0.0532429 -0.45137
122.747 156.101 160.566 -0.890747 -0.0532429 -0.45137
123.691 155.244 159.44 -0.719128 -0.206729 -0.663414
123.353 155.059 159.864 -0.719128 -0.206729 -0.663414
123.174 156.148 159.718 -0.719128 -0.206729 -0.663414
125.694 155.148 159.719 0.744209 0.362818 -0.560817
125.634 156.128 160.274 0.744209 0.362818 -0.560817
126.245 155.444 160.643 0.744209 0.362818 -0.560817
125.694 155.148 159.719 0.949726 0.196107 -0.244053
125.456 156.017 159.492 0.949726 0.196107 -0.244053
125.634 156.128 160.274 0.949726 0.196107 -0.244053
126.389 154.987 160.572 0.762332 0.325155 -0.559575
125.694 155.148 159.719 0.762332 0.325155 -0.559575
126.245 155.444 160.643 0.762332 0.325155 -0.559575
123.291 157.038 159.953 -0.841639 0.238253 -0.484643
123.438 156.586 159.474 -0.841639 0.238253 -0.484643
123.174 156.148 159.718 -0.841639 0.238253 -0.484643
123.291 157.038 159.953 -0.896959 0.218948 -0.384092
123.174 156.148 159.718 -0.896959 0.218948 -0.384092
123.004 156.977 160.587 -0.896959 0.218948 -0.384092
123.004 156.977 160.587 -0.867289 0.264507 -0.421717
123.174 156.148 159.718 -0.867289 0.264507 -0.421717
122.747 156.101 160.566 -0.867289 0.264507 -0.421717
123.438 156.586 159.474 -0.581054 0.494461 -0.64644
123.291 157.038 159.953 -0.581054 0.494461 -0.64644
123.782 157.147 159.595 -0.581054 0.494461 -0.64644
125.249 156.56 159.713 0.700694 0.65943 -0.27236
124.902 157.186 160.335 0.700694 0.65943 -0.27236
125.297 156.887 160.627 0.700694 0.65943 -0.27236
124.398 157.143 159.659 0.526169 0.728217 -0.439142
124.902 157.186 160.335 0.526169 0.728217 -0.439142
125.249 156.56 159.713 0.526169 0.728217 -0.439142
125.634 156.128 160.274 0.863212 0.433789 -0.258247
125.456 156.017 159.492 0.863212 0.433789 -0.258247
125.249 156.56 159.713 0.863212 0.433789 -0.258247
125.297 156.887 160.627 0.851177 0.478637 -0.215417
125.634 156.128 160.274 0.851177 0.478637 -0.215417
125.249 156.56 159.713 0.851177 0.478637 -0.215417
123.291 157.038 159.953 -0.624313 0.752472 -0.209809
123.004 156.977 160.587 -0.624313 0.752472 -0.209809
123.549 157.374 160.39 -0.624313 0.752472 -0.209809
123.782 157.147 159.595 -0.446985 0.817146 -0.363974
123.291 157.038 159.953 -0.446985 0.817146 -0.363974
123.549 157.374 160.39 -0.446985 0.817146 -0.363974
123.782 157.147 159.595 0.0351243 0.963812 -0.26426
123.549 157.374 160.39 0.0351243 0.963812 -0.26426
124.398 157.143 159.659 0.0351243 0.963812 -0.26426
124.398 157.143 159.659 -0.0896231 0.914865 -0.393687
123.549 157.374 160.39 -0.0896231 0.914865 -0.393687
124.285 157.454 160.41 -0.0896231 0.914865 -0.393687
124.285 157.454 160.41 0.346422 0.883647 -0.314898
124.902 157.186 160.335 0.346422 0.883647 -0.314898
124.398 157.143 159.659 0.346422 0.883647 -0.314898
124.361 153.816 160.677 -0.530957 -0.847373 -0.00662596
124.411 153.777 161.639 -0.530957 -0.847373 -0.00662596
123.484 154.36 161.44 -0.530957 -0.847373 -0.00662596
123.623 154.312 160.411 -0.548267 -0.835574 -0.0349225
124.361 153.816 160.677 -0.548267 -0.835574 -0.0349225
123.484 154.36 161.44 -0.548267 -0.835574 -0.0349225
125.355 153.704 160.48 -0.144446 -0.974191 -0.173455
125.245 153.57 161.328 -0.144446 -0.974191 -0.173455
124.361 153.816 160.677 -0.144446 -0.974191 -0.173455
124.361 153.816 160.677 -0.251118 -0.967605 -0.0260644
125.245 153.57 161.328 -0.251118 -0.967605 -0.0260644
124.411 153.777 161.639 -0.251118 -0.967605 -0.0260644
126.106 153.855 160.452 0.193552 -0.978151 -0.0758813
126.145 153.798 161.287 0.193552 -0.978151 -0.0758813
125.355 153.704 160.48 0.193552 -0.978151 -0.0758813
125.355 153.704 160.48 0.238635 -0.963452 -0.121711
126.145 153.798 161.287 0.238635 -0.963452 -0.121711
125.245 153.57 161.328 0.238635 -0.963452 -0.121711
126.145 153.798 161.287 0.932666 -0.354308 -0.06782
126.106 153.855 160.452 0.932666 -0.354308 -0.06782
126.275 154.298 160.461 0.932666 -0.354308 -0.06782
126.467 154.42 161.329 0.884197 -0.44802 -0.132186
126.145 153.798 161.287 0.884197 -0.44802 -0.132186
126.275 154.298 160.461 0.884197 -0.44802 -0.132186
123.181 154.695 160.573 -0.818546 -0.570613 0.0662058
123.484 154.36 161.44 -0.818546 -0.570613 0.0662058
122.831 155.272 161.229 -0.818546 -0.570613 0.0662058
122.89 155.367 160.37 -0.900339 -0.421466 -0.108423
123.181 154.695 160.573 -0.900339 -0.421466 -0.108423
122.831 155.272 161.229 -0.900339 -0.421466 -0.108423
123.484 154.36 161.44 -0.664742 -0.745052 -0.0549117
123.181 154.695 160.573 -0.664742 -0.745052 -0.0549117
123.623 154.312 160.411 -0.664742 -0.745052 -0.0549117
126.275 154.298 160.461 0.972002 -0.128752 -0.196558
126.389 154.987 160.572 0.972002 -0.128752 -0.196558
126.467 154.42 161.329 0.972002 -0.128752 -0.196558
126.467 154.42 161.329 0.993051 -0.0185986 -0.116209
126.389 154.987 160.572 0.993051 -0.0185986 -0.116209
126.474 155.12 161.278 0.993051 -0.0185986 -0.116209
122.89 155.367 160.37 -0.981961 -0.168316 -0.086157
122.831 155.272 161.229 -0.981961 -0.168316 -0.086157
122.747 156.101 160.566 -0.981961 -0.168316 -0.086157
122.831 155.272 161.229 -0.991247 -0.127544 -0.0340981
122.704 156.205 161.436 -0.991247 -0.127544 -0.0340981
122.747 156.101 160.566 -0.991247 -0.127544 -0.0340981
126.245 155.444 160.643 0.818662 0.563002 -0.113233
125.864 156.144 161.366 0.818662 0.563002 -0.113233
126.339 155.48 161.496 0.818662 0.563002 -0.113233
125.634 156.128 160.274 0.778729 0.603032 -0.173015
125.864 156.144 161.366 0.778729 0.603032 -0.173015
126.245 155.444 160.643 0.778729 0.603032 -0.173015
126.474 155.12 161.278 0.93219 0.3184 -0.172173
126.389 154.987 160.572 0.93219 0.3184 -0.172173
126.245 155.444 160.643 0.93219 0.3184 -0.172173
126.339 155.48 161.496 0.905193 0.408779 -0.116298
126.474 155.12 161.278 0.905193 0.408779 -0.116298
126.245 155.444 160.643 0.905193 0.408779 -0.116298
122.747 156.101 160.566 -0.955953 0.28202 -0.0813515
122.704 156.205 161.436 -0.955953 0.28202 -0.0813515
123.004 156.977 160.587 -0.955953 0.28202 -0.0813515
122.704 156.205 161.436 -0.942359 0.333263 -0.0299139
122.976 156.987 161.582 -0.942359 0.333263 -0.0299139
123.004 156.977 160.587 -0.942359 0.333263 -0.0299139
125.297 156.887 160.627 0.428286 0.892503 0.141457
124.284 157.278 161.232 0.428286 0.892503 0.141457
125.163 156.805 161.549 0.428286 0.892503 0.141457
124.902 157.186 160.335 0.468783 0.851221 0.235934
124.284 157.278 161.232 0.468783 0.851221 0.235934
125.297 156.887 160.627 0.468783 0.851221 0.235934
125.864 156.144 161.366 0.861812 0.470867 -0.188584
125.634 156.128 160.274 0.861812 0.470867 -0.188584
125.297 156.887 160.627 0.861812 0.470867 -0.188584
125.163 156.805 161.549 0.698819 0.696407 0.163307
125.864 156.144 161.366 0.698819 0.696407 0.163307
125.297 156.887 160.627 0.698819 0.696407 0.163307
123.004 156.977 160.587 -0.655195 0.755014 -0.0259539
122.976 156.987 161.582 -0.655195 0.755014 -0.0259539
123.322 157.276 161.252 -0.655195 0.755014 -0.0259539
123.549 157.374 160.39 -0.603606 0.794349 -0.0683266
123.004 156.977 160.587 -0.603606 0.794349 -0.0683266
123.322 157.276 161.252 -0.603606 0.794349 -0.0683266
124.285 157.454 160.41 -0.111552 0.971601 0.208682
123.549 157.374 160.39 -0.111552 0.971601 0.208682
124.284 157.278 161.232 -0.111552 0.971601 0.208682
123.549 157.374 160.39 0.000868167 0.993591 0.113029
123.322 157.276 161.252 0.000868167 0.993591 0.113029
124.284 157.278 161.232 0.000868167 0.993591 0.113029
124.284 157.278 161.232 0.411104 0.891122 0.192082
124.902 157.186 160.335 0.411104 0.891122 0.192082
124.285 157.454 160.41 0.411104 0.891122 0.192082
124.411 153.777 161.639 -0.359183 -0.869615 0.338757
124.522 154.019 162.376 -0.359183 -0.869615 0.338757
123.958 154.204 162.254 -0.359183 -0.869615 0.338757
123.484 154.36 161.44 -0.549714 -0.819264 0.163162
124.411 153.777 161.639 -0.549714 -0.819264 0.163162
123.958 154.204 162.254 -0.549714 -0.819264 0.163162
125.245 153.57 161.328 -0.072316 -0.908087 0.412491
125.398 153.937 162.162 -0.072316 -0.908087 0.412491
124.411 153.777 161.639 -0.072316 -0.908087 0.412491
124.411 153.777 161.639 -0.0126644 -0.94977 0.312691
125.398 153.937 162.162 -0.0126644 -0.94977 0.312691
124.522 154.019 162.376 -0.0126644 -0.94977 0.312691
126.235 154.233 161.92 0.411558 -0.604487 0.682067
125.782 154.464 162.398 0.411558 -0.604487 0.682067
125.398 153.937 162.162 0.411558 -0.604487 0.682067
126.235 154.233 161.92 0.412783 -0.776849 0.475517
125.398 153.937 162.162 0.412783 -0.776849 0.475517
126.145 153.798 161.287 0.412783 -0.776849 0.475517
126.145 153.798 161.287 0.244845 -0.903325 0.352213
125.398 153.937 162.162 0.244845 -0.903325 0.352213
125.245 153.57 161.328 0.244845 -0.903325 0.352213
126.145 153.798 161.287 0.866266 -0.460678 0.193283
126.467 154.42 161.329 0.866266 -0.460678 0.193283
126.235 154.233 161.92 0.866266 -0.460678 0.193283
123.484 154.36 161.44 -0.811277 -0.541563 0.220316
123.461 154.769 162.36 -0.811277 -0.541563 0.220316
123.05 155.298 162.145 -0.811277 -0.541563 0.220316
122.831 155.272 161.229 -0.817355 -0.536543 0.209886
123.484 154.36 161.44 -0.817355 -0.536543 0.209886
123.05 155.298 162.145 -0.817355 -0.536543 0.209886
123.461 154.769 162.36 -0.694909 -0.663394 0.277507
123.484 154.36 161.44 -0.694909 -0.663394 0.277507
123.958 154.204 162.254 -0.694909 -0.663394 0.277507
126.352 154.961 161.884 0.704194 -0.0778274 0.705729
125.782 154.464 162.398 0.704194 -0.0778274 0.705729
126.235 154.233 161.92 0.704194 -0.0778274 0.705729
125.927 155.392 162.287 0.678672 -0.0191496 0.734192
125.782 154.464 162.398 0.678672 -0.0191496 0.734192
126.352 154.961 161.884 0.678672 -0.0191496 0.734192
126.467 154.42 161.329 0.980033 0.00432097 0.198789
126.474 155.12 161.278 0.980033 0.00432097 0.198789
126.352 154.961 161.884 0.980033 0.00432097 0.198789
126.235 154.233 161.92 0.936456 -0.133811 0.32426
126.467 154.42 161.329 0.936456 -0.133811 0.32426
126.352 154.961 161.884 0.936456 -0.133811 0.32426
122.831 155.272 161.229 -0.955384 -0.181768 0.232813
123.05 155.298 162.145 -0.955384 -0.181768 0.232813
122.704 156.205 161.436 -0.955384 -0.181768 0.232813
123.05 155.298 162.145 -0.944247 -0.119743 0.306691
122.982 156.194 162.286 -0.944247 -0.119743 0.306691
122.704 156.205 161.436 -0.944247 -0.119743 0.306691
126.339 155.48 161.496 0.809073 0.363886 0.461506
125.927 155.392 162.287 0.809073 0.363886 0.461506
126.352 154.961 161.884 0.809073 0.363886 0.461506
126.339 155.48 161.496 0.694605 0.579837 0.425809
125.864 156.144 161.366 0.694605 0.579837 0.425809
125.927 155.392 162.287 0.694605 0.579837 0.425809
125.864 156.144 161.366 0.732158 0.551335 0.399968
125.255 156.273 162.303 0.732158 0.551335 0.399968
125.927 155.392 162.287 0.732158 0.551335 0.399968
126.474 155.12 161.278 0.947416 0.205725 0.245113
126.339 155.48 161.496 0.947416 0.205725 0.245113
126.352 154.961 161.884 0.947416 0.205725 0.245113
123.3 156.765 162.289 -0.509045 0.727035 0.460754
123.45 157.158 161.836 -0.509045 0.727035 0.460754
122.976 156.987 161.582 -0.509045 0.727035 0.460754
123.3 156.765 162.289 -0.765681 0.424264 0.483459
122.976 156.987 161.582 -0.765681 0.424264 0.483459
122.982 156.194 162.286 -0.765681 0.424264 0.483459
122.982 156.194 162.286 -0.916375 0.262311 0.302407
122.976 156.987 161.582 -0.916375 0.262311 0.302407
122.704 156.205 161.436 -0.916375 0.262311 0.302407
123.45 157.158 161.836 0.183701 0.884258 0.429351
124.214 156.787 162.272 0.183701 0.884258 0.429351
124.284 157.278 161.232 0.183701 0.884258 0.429351
123.3 156.765 162.289 -0.00543532 0.757338 0.653
124.214 156.787 162.272 -0.00543532 0.757338 0.653
123.45 157.158 161.836 -0.00543532 0.757338 0.653
124.284 157.278 161.232 0.305605 0.853137 0.422803
124.214 156.787 162.272 0.305605 0.853137 0.422803
125.163 156.805 161.549 0.305605 0.853137 0.422803
124.214 156.787 162.272 0.369716 0.779879 0.505073
125.255 156.273 162.303 0.369716 0.779879 0.505073
125.163 156.805 161.549 0.369716 0.779879 0.505073
125.255 156.273 162.303 0.68779 0.630201 0.360266
125.864 156.144 161.366 0.68779 0.630201 0.360266
125.163 156.805 161.549 0.68779 0.630201 0.360266
122.976 156.987 161.582 -0.451612 0.85001 0.271165
123.45 157.158 161.836 -0.451612 0.85001 0.271165
123.322 157.276 161.252 -0.451612 0.85001 0.271165
124.284 157.278 161.232 0.00267608 0.980115 0.198411
123.322 157.276 161.252 0.00267608 0.980115 0.198411
123.45 157.158 161.836 0.00267608 0.980115 0.198411
124.522 154.019 162.376 -0.349188 -0.575511 0.739496
124.299 154.503 162.647 -0.349188 -0.575511 0.739496
123.958 154.204 162.254 -0.349188 -0.575511 0.739496
124.522 154.019 162.376 0.0883432 -0.753654 0.651307
125.398 153.937 162.162 0.0883432 -0.753654 0.651307
125.178 154.28 162.59 0.0883432 -0.753654 0.651307
124.299 154.503 162.647 -0.0740535 -0.513125 0.855113
124.522 154.019 162.376 -0.0740535 -0.513125 0.855113
125.178 154.28 162.59 -0.0740535 -0.513125 0.855113
125.398 153.937 162.162 0.402283 -0.601396 0.690283
125.782 154.464 162.398 0.402283 -0.601396 0.690283
125.178 154.28 162.59 0.402283 -0.601396 0.690283
123.461 154.769 162.36 -0.686642 -0.25874 0.679394
123.494 155.382 162.626 -0.686642 -0.25874 0.679394
123.05 155.298 162.145 -0.686642 -0.25874 0.679394
123.461 154.769 162.36 -0.419686 -0.510011 0.750835
123.958 154.204 162.254 -0.419686 -0.510011 0.750835
124.299 154.503 162.647 -0.419686 -0.510011 0.750835
123.461 154.769 162.36 -0.401243 -0.347337 0.847562
124.299 154.503 162.647 -0.401243 -0.347337 0.847562
123.494 155.382 162.626 -0.401243 -0.347337 0.847562
123.494 155.382 162.626 -0.286351 -0.240192 0.927529
124.299 154.503 162.647 -0.286351 -0.240192 0.927529
124.435 155.323 162.902 -0.286351 -0.240192 0.927529
125.178 154.28 162.59 0.0038505 -0.235964 0.971754
125.254 155.035 162.773 0.0038505 -0.235964 0.971754
124.299 154.503 162.647 0.0038505 -0.235964 0.971754
125.254 155.035 162.773 0.0436662 -0.302844 0.952039
124.435 155.323 162.902 0.0436662 -0.302844 0.952039
124.299 154.503 162.647 0.0436662 -0.302844 0.952039
125.782 154.464 162.398 0.582826 0.00516744 0.812581
125.927 155.392 162.287 0.582826 0.00516744 0.812581
125.254 155.035 162.773 0.582826 0.00516744 0.812581
125.178 154.28 162.59 0.362302 -0.253886 0.896816
125.782 154.464 162.398 0.362302 -0.253886 0.896816
125.254 155.035 162.773 0.362302 -0.253886 0.896816
123.494 155.382 162.626 -0.559562 -0.00591739 0.828767
123.466 156.26 162.613 -0.559562 -0.00591739 0.828767
122.982 156.194 162.286 -0.559562 -0.00591739 0.828767
123.05 155.298 162.145 -0.710694 -0.161453 0.684724
123.494 155.382 162.626 -0.710694 -0.161453 0.684724
122.982 156.194 162.286 -0.710694 -0.161453 0.684724
124.435 155.323 162.902 -0.269157 0.147266 0.951771
124.318 156.093 162.749 -0.269157 0.147266 0.951771
123.494 155.382 162.626 -0.269157 0.147266 0.951771
124.318 156.093 162.749 -0.155486 0.00939429 0.987793
123.466 156.26 162.613 -0.155486 0.00939429 0.987793
123.494 155.382 162.626 -0.155486 0.00939429 0.987793
125.254 155.035 162.773 0.206718 0.154817 0.966074
125.191 155.86 162.654 0.206718 0.154817 0.966074
124.435 155.323 162.902 0.206718 0.154817 0.966074
125.191 155.86 162.654 0.162835 0.2151 0.962921
124.318 156.093 162.749 0.162835 0.2151 0.962921
124.435 155.323 162.902 0.162835 0.2151 0.962921
125.927 155.392 162.287 0.610956 0.454545 0.648168
125.255 156.273 162.303 0.610956 0.454545 0.648168
125.191 155.86 162.654 0.610956 0.454545 0.648168
125.254 155.035 162.773 0.519526 0.160529 0.83924
125.927 155.392 162.287 0.519526 0.160529 0.83924
125.191 155.86 162.654 0.519526 0.160529 0.83924
122.982 156.194 162.286 -0.561219 0.308663 0.767959
123.466 156.26 162.613 -0.561219 0.308663 0.767959
123.3 156.765 162.289 -0.561219 0.308663 0.767959
124.214 156.787 162.272 0.00325366 0.54059 0.84128
123.3 156.765 162.289 0.00325366 0.54059 0.84128
123.466 156.26 162.613 0.00325366 0.54059 0.84128
124.318 156.093 162.749 -0.0209884 0.56456 0.825125
124.214 156.787 162.272 -0.0209884 0.56456 0.825125
123.466 156.26 162.613 -0.0209884 0.56456 0.825125
125.255 156.273 162.303 0.259867 0.573506 0.776891
124.214 156.787 162.272 0.259867 0.573506 0.776891
124.318 156.093 162.749 0.259867 0.573506 0.776891
125.191 155.86 162.654 0.244797 0.604755 0.757856
125.255 156.273 162.303 0.244797 0.604755 0.757856
124.318 156.093 162.749 0.244797 0.604755 0.757856
3 0 1 2
3 3 4 5
3 6 7 8
3 9 10 11
3 12 13 14
3 15 16 17
3 18 19 20
3 21 22 23
3 24 25 26
3 27 28 29
3 30 31 32
3 33 34 35
3 36 37 38
3 39 40 41
3 42 43 44
3 45 46 47
3 48 49 50
3 51 52 53
3 54 55 56
3 57 58 59
3 60 61 62
3 63 64 65
3 66 67 68
3 69 70 71
3 72 73 74
3 75 76 77
3 78 79 80
3 81 82 83
3 84 85 86
3 87 88 89
3 90 91 92
3 93 94 95
3 96 97 98
3 99 100 101
3 102 103 104
3 105 106 107
3 108 109 110
3 111 112 113
3 114 115 116
3 117 118 119
3 120 121 122
3 123 124 125
3 126 127 128
3 129 130 131
3 132 133 134
3 135 136 137
3 138 139 140
3 141 142 143
3 144 145 146
3 147 148 149
3 150 151 152
3 153 154 155
3 156 157 158
3 159 160 161
3 162 163 164
3 165 166 167
3 168 169 170
3 171 172 173
3 174 175 176
3 177 178 179
3 180 181 182
3 183 184 185
3 186 187 188
3 189 190 191
3 192 193 194
3 195 196 197
3 198 199 200
3 201 202 203
3 204 205 206
3 207 208 209
3 210 211 212
3 213 214 215
3 216 217 218
3 219 220 221
3 222 223 224
3 225 226 227
3 228 229 230
3 231 232 233
3 234 235 236
3 237 238 239
3 240 241 242
3 243 244 245
3 246 247 248
3 249 250 251
3 252 253 254
3 255 256 257
3 258 259 260
3 261 262 263
3 264 265 266
3 267 268 269
3 270 271 272
3 273 274 275
3 276 277 278
3 279 280 281
3 282 283 284
3 285 286 287
3 288 289 290
3 291 292 293
3 294 295 296
3 297 298 299
3 300 301 302
3 303 304 305
3 306 307 308
3 309 310 311
3 312 313 314
3 315 316 317
3 318 319 320
3 321 322 323
3 324 325 326
3 327 328 329
3 330 331 332
3 333 334 335
3 336 337 338
3 339 340 341
3 342 343 344
3 345 346 347
3 348 349 350
3 351 352 353
3 354 355 356
3 357 358 359
3 360 361 362
3 363 364 365
3 366 367 368
3 369 370 371
3 372 373 374
3 375 376 377
3 378 379 380
3 381 382 383
3 384 385 386
3 387 388 389
3 390 391 392
3 393 394 395
3 396 397 398
3 399 400 401
3 402 403 404
3 405 406 407
3 408 409 410
3 411 412 413
3 414 415 416
3 417 418 419
