ply
format ascii 1.0
element vertex 102
property float x
property float y
property float z
property float nx
property float ny
property float nz
element face 34
property list uint uint vertex_indices
end_header
53.9986 202.457 136.415 -0.0741761 -0.254525 -0.964217
53.898 202.039 136.533 -0.0741761 -0.254525 -0.964217
53.3165 202.285 136.513 -0.0741761 -0.254525 -0.964217
53.898 202.039 136.533 0.217281 -0.313457 -0.92441
53.9986 202.457 136.415 0.217281 -0.313457 -0.92441
54.4822 202.286 136.587 0.217281 -0.313457 -0.92441
53.1793 202.925 136.446 -0.744371 0.0304669 -0.66707
53.0766 202.61 136.547 -0.744371 0.0304669 -0.66707
53.1481 203.228 136.495 -0.744371 0.0304669 -0.66707
53.3165 202.285 136.513 -0.362671 -0.17362 -0.915601
53.0766 202.61 136.547 -0.362671 -0.17362 -0.915601
53.1793 202.925 136.446 -0.362671 -0.17362 -0.915601
53.3165 202.285 136.513 -0.109557 -0.126724 -0.985869
53.1793 202.925 136.446 -0.109557 -0.126724 -0.985869
53.9986 202.457 136.415 -0.109557 -0.126724 -0.985869
54.8426 202.575 136.504 0.155303 -0.446052 -0.88143
54.4822 202.286 136.587 0.155303 -0.446052 -0.88143
53.9986 202.457 136.415 0.155303 -0.446052 -0.88143
54.8426 202.575 136.504 0.143595 -0.320982 -0.936136
53.9986 202.457 136.415 0.143595 -0.320982 -0.936136
54.7762 203.213 136.275 0.143595 -0.320982 -0.936136
54.8426 202.575 136.504 0.396668 -0.273211 -0.876362
54.7762 203.213 136.275 0.396668 -0.273211 -0.876362
55.264 203.135 136.52 0.396668 -0.273211 -0.876362
53.1481 203.228 136.495 -0.30579 0.401133 -0.863473
53.8019 203.84 136.548 -0.30579 0.401133 -0.863473
53.8959 203.608 136.407 -0.30579 0.401133 -0.863473
53.1481 203.228 136.495 -0.184412 0.13744 -0.973192
53.8959 203.608 136.407 -0.184412 0.13744 -0.973192
53.1793 202.925 136.446 -0.184412 0.13744 -0.973192
53.1793 202.925 136.446 -0.0440491 -0.0111564 -0.998967
53.8959 203.608 136.407 -0.0440491 -0.0111564 -0.998967
53.9986 202.457 136.415 -0.0440491 -0.0111564 -0.998967
54.5315 203.902 136.49 0.423217 0.402891 -0.811521
54.8591 203.705 136.563 0.423217 0.402891 -0.811521
54.7762 203.213 136.275 0.423217 0.402891 -0.811521
54.5315 203.902 136.49 -0.0109198 0.293748 -0.955821
54.7762 203.213 136.275 -0.0109198 0.293748 -0.955821
53.8959 203.608 136.407 -0.0109198 0.293748 -0.955821
53.8959 203.608 136.407 -0.157109 -0.0211565 -0.987355
54.7762 203.213 136.275 -0.157109 -0.0211565 -0.987355
53.9986 202.457 136.415 -0.157109 -0.0211565 -0.987355
55.264 203.135 136.52 0.462629 0.387879 -0.797198
54.7762 203.213 136.275 0.462629 0.387879 -0.797198
54.8591 203.705 136.563 0.462629 0.387879 -0.797198
54.5315 203.902 136.49 -0.110126 0.483541 -0.868367
53.8959 203.608 136.407 -0.110126 0.483541 -0.868367
53.8019 203.84 136.548 -0.110126 0.483541 -0.868367
53.898 202.039 136.533 -0.284363 -0.613784 0.736482
53.8269 202.406 136.811 -0.284363 -0.613784 0.736482
53.3165 202.285 136.513 -0.284363 -0.613784 0.736482
53.898 202.039 136.533 0.169649 -0.574443 0.800771
54.4822 202.286 136.587 0.169649 -0.574443 0.800771
53.8269 202.406 136.811 0.169649 -0.574443 0.800771
53.0766 202.61 136.547 -0.795397 0.141462 0.589349
53.3058 203.155 136.725 -0.795397 0.141462 0.589349
53.1481 203.228 136.495 -0.795397 0.141462 0.589349
53.0766 202.61 136.547 -0.39803 -0.378571 0.835617
53.3165 202.285 136.513 -0.39803 -0.378571 0.835617
53.8269 202.406 136.811 -0.39803 -0.378571 0.835617
53.0766 202.61 136.547 -0.364669 -0.148092 0.919285
53.8269 202.406 136.811 -0.364669 -0.148092 0.919285
53.3058 203.155 136.725 -0.364669 -0.148092 0.919285
53.3058 203.155 136.725 -0.509239 -0.260001 0.820412
53.8269 202.406 136.811 -0.509239 -0.260001 0.820412
53.9359 203.112 137.103 -0.509239 -0.260001 0.820412
54.4822 202.286 136.587 0.537877 -0.472485 0.698174
54.8426 202.575 136.504 0.537877 -0.472485 0.698174
54.705 203.041 136.926 0.537877 -0.472485 0.698174
54.4822 202.286 136.587 0.214155 -0.452285 0.865781
54.705 203.041 136.926 0.214155 -0.452285 0.865781
53.8269 202.406 136.811 0.214155 -0.452285 0.865781
53.8269 202.406 136.811 0.170324 -0.398183 0.901355
54.705 203.041 136.926 0.170324 -0.398183 0.901355
53.9359 203.112 137.103 0.170324 -0.398183 0.901355
54.8426 202.575 136.504 0.572443 -0.450485 0.685107
55.264 203.135 136.52 0.572443 -0.450485 0.685107
54.705 203.041 136.926 0.572443 -0.450485 0.685107
53.8019 203.84 136.548 -0.581783 0.571469 0.57875
53.1481 203.228 136.495 -0.581783 0.571469 0.57875
53.3058 203.155 136.725 -0.581783 0.571469 0.57875
53.8019 203.84 136.548 -0.5363 0.553631 0.637082
53.3058 203.155 136.725 -0.5363 0.553631 0.637082
54.0982 203.764 136.863 -0.5363 0.553631 0.637082
54.0982 203.764 136.863 -0.449706 0.40501 0.796073
53.3058 203.155 136.725 -0.449706 0.40501 0.796073
53.9359 203.112 137.103 -0.449706 0.40501 0.796073
54.8591 203.705 136.563 0.300333 0.726252 0.618351
54.5315 203.902 136.49 0.300333 0.726252 0.618351
54.0982 203.764 136.863 0.300333 0.726252 0.618351
54.8591 203.705 136.563 0.364718 0.380603 0.849778
54.0982 203.764 136.863 0.364718 0.380603 0.849778
54.705 203.041 136.926 0.364718 0.380603 0.849778
54.705 203.041 136.926 0.23935 0.282255 0.929001
54.0982 203.764 136.863 0.23935 0.282255 0.929001
53.9359 203.112 137.103 0.23935 0.282255 0.929001
55.264 203.135 136.52 0.523176 0.3126 0.792823
54.8591 203.705 136.563 0.523176 0.3126 0.792823
54.705 203.041 136.926 0.523176 0.3126 0.792823
54.5315 203.902 136.49 -0.0595034 0.95649 0.285634
53.8019 203.84 136.548 -0.0595034 0.95649 0.285634
54.0982 203.764 136.863 -0.0595034 0.95649 0.285634
3 0 1 2
3 3 4 5
3 6 7 8
3 9 10 11
3 12 13 14
3 15 16 17
3 18 19 20
3 21 22 23
3 24 25 26
3 27 28 29
3 30 31 32
3 33 34 35
3 36 37 38
3 39 40 41
3 42 43 44
3 45 46 47
3 48 49 50
3 51 52 53
3 54 55 56
3 57 58 59
3 60 61 62
3 63 64 65
3 66 67 68
3 69 70 71
3 72 73 74
3 75 76 77
3 78 79 80
3 81 82 83
3 84 85 86
3 87 88 89
3 90 91 92
3 93 94 95
3 96 97 98
3 99 100 101
