ply
format ascii 1.0
element vertex 210
property float x
property float y
property float z
property float nx
property float ny
property float nz
element face 70
property list uint uint vertex_indices
end_header
47.65 125.258 151.335 -0.172767 -0.75642 -0.630857
48.2843 125.293 151.119 -0.172767 -0.75642 -0.630857
48.3943 125.062 151.366 -0.172767 -0.75642 -0.630857
48.3943 125.062 151.366 0.599023 -0.433216 -0.67342
48.2843 125.293 151.119 0.599023 -0.433216 -0.67342
48.5435 125.29 151.352 0.599023 -0.433216 -0.67342
47.3501 126.036 151.418 -0.878442 -0.298728 -0.372962
47.5151 125.921 151.121 -0.878442 -0.298728 -0.372962
47.65 125.258 151.335 -0.878442 -0.298728 -0.372962
48.2843 125.293 151.119 -0.311724 -0.138734 -0.93999
47.65 125.258 151.335 -0.311724 -0.138734 -0.93999
48.0995 125.912 151.089 -0.311724 -0.138734 -0.93999
48.0995 125.912 151.089 -0.0567974 -0.316439 -0.946911
47.65 125.258 151.335 -0.0567974 -0.316439 -0.946911
47.5151 125.921 151.121 -0.0567974 -0.316439 -0.946911
48.429 125.973 151.287 0.666828 0.0415632 -0.744052
48.5435 125.29 151.352 0.666828 0.0415632 -0.744052
48.2843 125.293 151.119 0.666828 0.0415632 -0.744052
48.0995 125.912 151.089 0.497487 0.10639 -0.860922
48.429 125.973 151.287 0.497487 0.10639 -0.860922
48.2843 125.293 151.119 0.497487 0.10639 -0.860922
47.5151 125.921 151.121 -0.752689 0.35464 -0.554698
47.3501 126.036 151.418 -0.752689 0.35464 -0.554698
47.6226 126.292 151.212 -0.752689 0.35464 -0.554698
48.0995 125.912 151.089 -0.0488975 0.251254 -0.966685
47.5151 125.921 151.121 -0.0488975 0.251254 -0.966685
47.6226 126.292 151.212 -0.0488975 0.251254 -0.966685
48.2538 126.436 151.263 0.00534245 0.313824 -0.949466
48.0995 125.912 151.089 0.00534245 0.313824 -0.949466
47.6226 126.292 151.212 0.00534245 0.313824 -0.949466
48.429 125.973 151.287 0.490429 0.141312 -0.859948
48.0995 125.912 151.089 0.490429 0.141312 -0.859948
48.2538 126.436 151.263 0.490429 0.141312 -0.859948
47.65 125.258 151.335 -0.585183 -0.77447 -0.240326
47.5736 125.023 152.279 -0.585183 -0.77447 -0.240326
47.3271 125.294 152.005 -0.585183 -0.77447 -0.240326
48.3943 125.062 151.366 -0.248391 -0.9625 -0.109066
48.3836 124.98 152.115 -0.248391 -0.9625 -0.109066
47.65 125.258 151.335 -0.248391 -0.9625 -0.109066
47.65 125.258 151.335 -0.100741 -0.96346 -0.248185
48.3836 124.98 152.115 -0.100741 -0.96346 -0.248185
47.5736 125.023 152.279 -0.100741 -0.96346 -0.248185
48.5435 125.29 151.352 0.726343 -0.503996 -0.467348
49.0195 125.213 152.174 0.726343 -0.503996 -0.467348
48.3943 125.062 151.366 0.726343 -0.503996 -0.467348
48.3943 125.062 151.366 0.350585 -0.931482 -0.097115
49.0195 125.213 152.174 0.350585 -0.931482 -0.097115
48.3836 124.98 152.115 0.350585 -0.931482 -0.097115
47.65 125.258 151.335 -0.867778 -0.291457 -0.402511
47.3271 125.294 152.005 -0.867778 -0.291457 -0.402511
47.3501 126.036 151.418 -0.867778 -0.291457 -0.402511
47.3271 125.294 152.005 -0.98972 -0.0685634 -0.125511
47.2602 125.926 152.187 -0.98972 -0.0685634 -0.125511
47.3501 126.036 151.418 -0.98972 -0.0685634 -0.125511
49.0195 125.213 152.174 0.83575 0.307795 -0.454735
48.5435 125.29 151.352 0.83575 0.307795 -0.454735
48.6532 125.92 151.98 0.83575 0.307795 -0.454735
48.5435 125.29 151.352 0.946131 0.130608 -0.296272
48.429 125.973 151.287 0.946131 0.130608 -0.296272
48.6532 125.92 151.98 0.946131 0.130608 -0.296272
47.4694 126.785 151.721 -0.750877 0.346774 -0.562078
47.6226 126.292 151.212 -0.750877 0.346774 -0.562078
47.3501 126.036 151.418 -0.750877 0.346774 -0.562078
47.4694 126.785 151.721 -0.925785 0.258818 -0.275562
47.3501 126.036 151.418 -0.925785 0.258818 -0.275562
47.3281 126.65 152.069 -0.925785 0.258818 -0.275562
47.3281 126.65 152.069 -0.991552 0.0759204 -0.105167
47.3501 126.036 151.418 -0.991552 0.0759204 -0.105167
47.2602 125.926 152.187 -0.991552 0.0759204 -0.105167
47.6226 126.292 151.212 -0.0724881 0.599539 -0.797056
48.0986 126.881 151.612 -0.0724881 0.599539 -0.797056
48.2538 126.436 151.263 -0.0724881 0.599539 -0.797056
47.4694 126.785 151.721 -0.224921 0.665053 -0.71212
48.0986 126.881 151.612 -0.224921 0.665053 -0.71212
47.6226 126.292 151.212 -0.224921 0.665053 -0.71212
48.2538 126.436 151.263 0.714853 0.568632 -0.406992
48.0986 126.881 151.612 0.714853 0.568632 -0.406992
48.4682 126.718 152.034 0.714853 0.568632 -0.406992
48.2538 126.436 151.263 0.878746 0.314006 -0.359452
48.4682 126.718 152.034 0.878746 0.314006 -0.359452
48.429 125.973 151.287 0.878746 0.314006 -0.359452
48.429 125.973 151.287 0.929932 0.234756 -0.283047
48.4682 126.718 152.034 0.929932 0.234756 -0.283047
48.6532 125.92 151.98 0.929932 0.234756 -0.283047
47.4694 126.785 151.721 -0.687797 0.7259 0.00188703
47.3281 126.65 152.069 -0.687797 0.7259 0.00188703
47.611 126.918 152.188 -0.687797 0.7259 0.00188703
48.0986 126.881 151.612 -0.183944 0.958725 -0.216821
47.4694 126.785 151.721 -0.183944 0.958725 -0.216821
47.611 126.918 152.188 -0.183944 0.958725 -0.216821
48.2532 127.043 152.244 -0.170342 0.96369 -0.205633
48.0986 126.881 151.612 -0.170342 0.96369 -0.205633
47.611 126.918 152.188 -0.170342 0.96369 -0.205633
48.4682 126.718 152.034 0.672018 0.661043 -0.333789
48.0986 126.881 151.612 0.672018 0.661043 -0.333789
48.2532 127.043 152.244 0.672018 0.661043 -0.333789
47.5736 125.023 152.279 -0.661926 -0.748574 0.038611
47.6088 125.031 153.039 -0.661926 -0.748574 0.038611
47.3357 125.26 152.796 -0.661926 -0.748574 0.038611
47.3271 125.294 152.005 -0.729007 -0.684159 -0.0217793
47.5736 125.023 152.279 -0.729007 -0.684159 -0.0217793
47.3357 125.26 152.796 -0.729007 -0.684159 -0.0217793
48.3836 124.98 152.115 -0.0585212 -0.997818 -0.0305698
48.3723 124.955 152.954 -0.0585212 -0.997818 -0.0305698
47.5736 125.023 152.279 -0.0585212 -0.997818 -0.0305698
47.5736 125.023 152.279 -0.0968309 -0.995187 0.0150371
48.3723 124.955 152.954 -0.0968309 -0.995187 0.0150371
47.6088 125.031 153.039 -0.0968309 -0.995187 0.0150371
49.0195 125.213 152.174 0.353098 -0.889601 -0.289708
49.1141 125.027 152.86 0.353098 -0.889601 -0.289708
48.3836 124.98 152.115 0.353098 -0.889601 -0.289708
48.3836 124.98 152.115 0.0936064 -0.995203 -0.0284416
49.1141 125.027 152.86 0.0936064 -0.995203 -0.0284416
48.3723 124.955 152.954 0.0936064 -0.995203 -0.0284416
49.1513 125.276 153.03 0.987777 -0.0464094 -0.148806
49.1141 125.027 152.86 0.987777 -0.0464094 -0.148806
49.0195 125.213 152.174 0.987777 -0.0464094 -0.148806
47.3271 125.294 152.005 -0.994238 -0.107022 0.00610995
47.3357 125.26 152.796 -0.994238 -0.107022 0.00610995
47.2602 125.926 152.187 -0.994238 -0.107022 0.00610995
47.3357 125.26 152.796 -0.976658 0.0736528 0.201778
47.4116 126.127 152.847 -0.976658 0.0736528 0.201778
47.2602 125.926 152.187 -0.976658 0.0736528 0.201778
49.0195 125.213 152.174 0.859951 0.482068 -0.167615
48.6676 126.085 152.877 0.859951 0.482068 -0.167615
49.1513 125.276 153.03 0.859951 0.482068 -0.167615
48.6532 125.92 151.98 0.894327 0.437263 -0.0947673
48.6676 126.085 152.877 0.894327 0.437263 -0.0947673
49.0195 125.213 152.174 0.894327 0.437263 -0.0947673
47.4116 126.127 152.847 -0.707505 0.549116 0.444869
47.611 126.918 152.188 -0.707505 0.549116 0.444869
47.3281 126.65 152.069 -0.707505 0.549116 0.444869
47.4116 126.127 152.847 -0.974816 0.122108 0.186612
47.3281 126.65 152.069 -0.974816 0.122108 0.186612
47.2602 125.926 152.187 -0.974816 0.122108 0.186612
47.4116 126.127 152.847 -0.661162 0.571631 0.485904
48.0963 126.854 152.924 -0.661162 0.571631 0.485904
47.611 126.918 152.188 -0.661162 0.571631 0.485904
48.6532 125.92 151.98 0.971662 0.229222 -0.0577139
48.4682 126.718 152.034 0.971662 0.229222 -0.0577139
48.6676 126.085 152.877 0.971662 0.229222 -0.0577139
48.6676 126.085 152.877 0.956506 0.291621 -0.00730454
48.4682 126.718 152.034 0.956506 0.291621 -0.00730454
48.4249 126.881 152.857 0.956506 0.291621 -0.00730454
47.611 126.918 152.188 -0.20549 0.953982 0.218385
48.0963 126.854 152.924 -0.20549 0.953982 0.218385
48.2532 127.043 152.244 -0.20549 0.953982 0.218385
48.4249 126.881 152.857 0.809573 0.582522 -0.0725177
48.4682 126.718 152.034 0.809573 0.582522 -0.0725177
48.2532 127.043 152.244 0.809573 0.582522 -0.0725177
48.0963 126.854 152.924 -0.0256733 0.964498 0.262839
48.4249 126.881 152.857 -0.0256733 0.964498 0.262839
48.2532 127.043 152.244 -0.0256733 0.964498 0.262839
47.6088 125.031 153.039 -0.770123 -0.359398 0.527014
47.5772 125.352 153.212 -0.770123 -0.359398 0.527014
47.3357 125.26 152.796 -0.770123 -0.359398 0.527014
47.6088 125.031 153.039 -0.055089 -0.939031 0.33939
48.3723 124.955 152.954 -0.055089 -0.939031 0.33939
48.2682 125.138 153.444 -0.055089 -0.939031 0.33939
47.5772 125.352 153.212 -0.407539 -0.463596 0.78676
47.6088 125.031 153.039 -0.407539 -0.463596 0.78676
48.2682 125.138 153.444 -0.407539 -0.463596 0.78676
48.3723 124.955 152.954 0.132901 -0.935412 0.32763
49.1141 125.027 152.86 0.132901 -0.935412 0.32763
49.0132 125.134 153.205 0.132901 -0.935412 0.32763
48.2682 125.138 153.444 0.113138 -0.922536 0.368955
48.3723 124.955 152.954 0.113138 -0.922536 0.368955
49.0132 125.134 153.205 0.113138 -0.922536 0.368955
49.1141 125.027 152.86 0.850976 -0.377196 0.365462
49.1513 125.276 153.03 0.850976 -0.377196 0.365462
49.0132 125.134 153.205 0.850976 -0.377196 0.365462
47.5772 125.352 153.212 -0.802752 0.104758 0.587039
47.713 126.139 153.257 -0.802752 0.104758 0.587039
47.4116 126.127 152.847 -0.802752 0.104758 0.587039
47.3357 125.26 152.796 -0.868211 0.0469874 0.493965
47.5772 125.352 153.212 -0.868211 0.0469874 0.493965
47.4116 126.127 152.847 -0.868211 0.0469874 0.493965
48.2682 125.138 153.444 -0.307068 0.0402715 0.950835
48.4041 125.796 153.46 -0.307068 0.0402715 0.950835
47.5772 125.352 153.212 -0.307068 0.0402715 0.950835
48.4041 125.796 153.46 -0.284612 -0.00583683 0.958625
47.713 126.139 153.257 -0.284612 -0.00583683 0.958625
47.5772 125.352 153.212 -0.284612 -0.00583683 0.958625
49.1513 125.276 153.03 0.667265 0.502246 0.550006
48.6676 126.085 152.877 0.667265 0.502246 0.550006
48.4041 125.796 153.46 0.667265 0.502246 0.550006
49.1513 125.276 153.03 0.622374 0.292132 0.72616
48.4041 125.796 153.46 0.622374 0.292132 0.72616
49.0132 125.134 153.205 0.622374 0.292132 0.72616
49.0132 125.134 153.205 0.304405 -0.0860132 0.948651
48.4041 125.796 153.46 0.304405 -0.0860132 0.948651
48.2682 125.138 153.444 0.304405 -0.0860132 0.948651
48.0963 126.854 152.924 -0.665885 0.57751 0.472313
47.4116 126.127 152.847 -0.665885 0.57751 0.472313
47.713 126.139 153.257 -0.665885 0.57751 0.472313
48.0963 126.854 152.924 -0.46305 0.566417 0.681731
47.713 126.139 153.257 -0.46305 0.566417 0.681731
48.3094 126.65 153.238 -0.46305 0.566417 0.681731
48.3094 126.65 153.238 -0.16707 0.230968 0.95851
47.713 126.139 153.257 -0.16707 0.230968 0.95851
48.4041 125.796 153.46 -0.16707 0.230968 0.95851
48.6676 126.085 152.877 0.861844 0.273582 0.427058
48.4249 126.881 152.857 0.861844 0.273582 0.427058
48.3094 126.65 153.238 0.861844 0.273582 0.427058
48.4041 125.796 153.46 0.843065 0.221251 0.490193
48.6676 126.085 152.877 0.843065 0.221251 0.490193
48.3094 126.65 153.238 0.843065 0.221251 0.490193
48.4249 126.881 152.857 0.0373571 0.84944 0.526361
48.0963 126.854 152.924 0.0373571 0.84944 0.526361
48.3094 126.65 153.238 0.0373571 0.84944 0.526361
3 0 1 2
3 3 4 5
3 6 7 8
3 9 10 11
3 12 13 14
3 15 16 17
3 18 19 20
3 21 22 23
3 24 25 26
3 27 28 29
3 30 31 32
3 33 34 35
3 36 37 38
3 39 40 41
3 42 43 44
3 45 46 47
3 48 49 50
3 51 52 53
3 54 55 56
3 57 58 59
3 60 61 62
3 63 64 65
3 66 67 68
3 69 70 71
3 72 73 74
3 75 76 77
3 78 79 80
3 81 82 83
3 84 85 86
3 87 88 89
3 90 91 92
3 93 94 95
3 96 97 98
3 99 100 101
3 102 103 104
3 105 106 107
3 108 109 110
3 111 112 113
3 114 115 116
3 117 118 119
3 120 121 122
3 123 124 125
3 126 127 128
3 129 130 131
3 132 133 134
3 135 136 137
3 138 139 140
3 141 142 143
3 144 145 146
3 147 148 149
3 150 151 152
3 153 154 155
3 156 157 158
3 159 160 161
3 162 163 164
3 165 166 167
3 168 169 170
3 171 172 173
3 174 175 176
3 177 178 179
3 180 181 182
3 183 184 185
3 186 187 188
3 189 190 191
3 192 193 194
3 195 196 197
3 198 199 200
3 201 202 203
3 204 205 206
3 207 208 209
