ply
format ascii 1.0
element vertex 492
property float x
property float y
property float z
property float nx
property float ny
property float nz
element face 164
property list uint uint vertex_indices
end_header
101.546 103.269 169.712 -0.330378 -0.243271 -0.911959
101.391 102.69 169.922 -0.330378 -0.243271 -0.911959
101.092 103.084 169.926 -0.330378 -0.243271 -0.911959
101.546 103.269 169.712 0.0850003 -0.551918 -0.829555
102.495 103.361 169.748 0.0850003 -0.551918 -0.829555
102.219 102.812 170.085 0.0850003 -0.551918 -0.829555
101.391 102.69 169.922 0.232267 -0.386362 -0.892623
101.546 103.269 169.712 0.232267 -0.386362 -0.892623
102.219 102.812 170.085 0.232267 -0.386362 -0.892623
102.219 102.812 170.085 0.0837261 -0.551519 -0.82995
102.495 103.361 169.748 0.0837261 -0.551519 -0.82995
103.031 103.1 169.975 0.0837261 -0.551519 -0.82995
101.092 103.084 169.926 -0.29933 -0.308873 -0.902773
101.094 104.114 169.572 -0.29933 -0.308873 -0.902773
101.546 103.269 169.712 -0.29933 -0.308873 -0.902773
102.495 103.361 169.748 0.0522122 -0.147722 -0.98765
101.546 103.269 169.712 0.0522122 -0.147722 -0.98765
102.274 104.181 169.614 0.0522122 -0.147722 -0.98765
102.274 104.181 169.614 0.0427961 -0.140364 -0.989175
101.546 103.269 169.712 0.0427961 -0.140364 -0.989175
101.094 104.114 169.572 0.0427961 -0.140364 -0.989175
103.272 103.487 169.85 0.183111 -0.404437 -0.896048
103.031 103.1 169.975 0.183111 -0.404437 -0.896048
102.495 103.361 169.748 0.183111 -0.404437 -0.896048
103.272 103.487 169.85 0.145647 -0.102416 -0.984021
102.495 103.361 169.748 0.145647 -0.102416 -0.984021
103.191 104.184 169.766 0.145647 -0.102416 -0.984021
103.191 104.184 169.766 0.162471 -0.116726 -0.979785
102.495 103.361 169.748 0.162471 -0.116726 -0.979785
102.274 104.181 169.614 0.162471 -0.116726 -0.979785
103.272 103.487 169.85 0.50207 -0.0467168 -0.863564
103.191 104.184 169.766 0.50207 -0.0467168 -0.863564
103.679 103.978 170.06 0.50207 -0.0467168 -0.863564
100.453 105.169 169.668 -0.490014 -0.221427 -0.843123
101.094 104.114 169.572 -0.490014 -0.221427 -0.843123
100.243 104.349 170.006 -0.490014 -0.221427 -0.843123
100.108 105.278 170.067 -0.763379 -0.0687383 -0.642283
100.453 105.169 169.668 -0.763379 -0.0687383 -0.642283
100.243 104.349 170.006 -0.763379 -0.0687383 -0.642283
101.307 105.281 169.359 -0.325507 -0.112709 -0.938798
101.094 104.114 169.572 -0.325507 -0.112709 -0.938798
100.453 105.169 169.668 -0.325507 -0.112709 -0.938798
102.274 104.181 169.614 0.0386444 -0.0626231 -0.997289
101.094 104.114 169.572 0.0386444 -0.0626231 -0.997289
102.102 105.059 169.552 0.0386444 -0.0626231 -0.997289
102.102 105.059 169.552 0.176083 -0.208424 -0.962057
101.094 104.114 169.572 0.176083 -0.208424 -0.962057
101.307 105.281 169.359 0.176083 -0.208424 -0.962057
103.191 104.184 169.766 0.163033 0.0386033 -0.985865
102.274 104.181 169.614 0.163033 0.0386033 -0.985865
102.969 105.21 169.769 0.163033 0.0386033 -0.985865
102.969 105.21 169.769 0.245989 -0.0200078 -0.969066
102.274 104.181 169.614 0.245989 -0.0200078 -0.969066
102.102 105.059 169.552 0.245989 -0.0200078 -0.969066
103.487 104.897 170.049 0.54611 0.104117 -0.831218
103.679 103.978 170.06 0.54611 0.104117 -0.831218
103.191 104.184 169.766 0.54611 0.104117 -0.831218
102.969 105.21 169.769 0.52626 0.116741 -0.842272
103.487 104.897 170.049 0.52626 0.116741 -0.842272
103.191 104.184 169.766 0.52626 0.116741 -0.842272
100.453 105.169 169.668 -0.760756 -0.0404942 -0.647773
100.108 105.278 170.067 -0.760756 -0.0404942 -0.647773
100.306 105.824 169.8 -0.760756 -0.0404942 -0.647773
100.306 105.824 169.8 -0.386171 0.252585 -0.887171
100.538 106.244 169.819 -0.386171 0.252585 -0.887171
101.036 106.03 169.541 -0.386171 0.252585 -0.887171
100.306 105.824 169.8 -0.359041 0.105948 -0.927289
101.036 106.03 169.541 -0.359041 0.105948 -0.927289
100.453 105.169 169.668 -0.359041 0.105948 -0.927289
100.453 105.169 169.668 -0.350531 0.0996037 -0.93124
101.036 106.03 169.541 -0.350531 0.0996037 -0.93124
101.307 105.281 169.359 -0.350531 0.0996037 -0.93124
102.102 105.059 169.552 0.275344 0.159947 -0.947946
101.307 105.281 169.359 0.275344 0.159947 -0.947946
102.034 105.971 169.686 0.275344 0.159947 -0.947946
102.034 105.971 169.686 0.154666 0.286027 -0.945657
101.307 105.281 169.359 0.154666 0.286027 -0.945657
101.036 106.03 169.541 0.154666 0.286027 -0.945657
102.407 106.261 170.035 0.493584 0.451967 -0.743035
103.224 105.584 170.166 0.493584 0.451967 -0.743035
102.969 105.21 169.769 0.493584 0.451967 -0.743035
102.407 106.261 170.035 0.418221 0.426553 -0.801963
102.969 105.21 169.769 0.418221 0.426553 -0.801963
102.034 105.971 169.686 0.418221 0.426553 -0.801963
102.034 105.971 169.686 0.213879 0.157716 -0.964044
102.969 105.21 169.769 0.213879 0.157716 -0.964044
102.102 105.059 169.552 0.213879 0.157716 -0.964044
103.487 104.897 170.049 0.600994 0.351973 -0.71758
102.969 105.21 169.769 0.600994 0.351973 -0.71758
103.224 105.584 170.166 0.600994 0.351973 -0.71758
101.036 106.03 169.541 -0.149639 0.635468 -0.757488
100.538 106.244 169.819 -0.149639 0.635468 -0.757488
101.252 106.698 170.059 -0.149639 0.635468 -0.757488
102.034 105.971 169.686 0.151344 0.574496 -0.804394
101.036 106.03 169.541 0.151344 0.574496 -0.804394
101.252 106.698 170.059 0.151344 0.574496 -0.804394
102.407 106.261 170.035 0.219782 0.62131 -0.75211
102.034 105.971 169.686 0.219782 0.62131 -0.75211
101.252 106.698 170.059 0.219782 0.62131 -0.75211
101.304 102.418 170.454 -0.454522 -0.873252 -0.175618
101.443 102.226 171.05 -0.454522 -0.873252 -0.175618
100.977 102.479 171.002 -0.454522 -0.873252 -0.175618
101.443 102.226 171.05 -0.112489 -0.953052 -0.281136
101.304 102.418 170.454 -0.112489 -0.953052 -0.281136
102.047 102.245 170.744 -0.112489 -0.953052 -0.281136
100.553 103.072 170.532 -0.784801 -0.472338 -0.401229
100.337 103.054 170.975 -0.784801 -0.472338 -0.401229
100.252 103.489 170.631 -0.784801 -0.472338 -0.401229
100.977 102.479 171.002 -0.623231 -0.707872 -0.332417
100.337 103.054 170.975 -0.623231 -0.707872 -0.332417
100.553 103.072 170.532 -0.623231 -0.707872 -0.332417
101.304 102.418 170.454 -0.642855 -0.701777 -0.306996
100.977 102.479 171.002 -0.642855 -0.701777 -0.306996
100.553 103.072 170.532 -0.642855 -0.701777 -0.306996
101.304 102.418 170.454 -0.586367 -0.609695 -0.533334
100.553 103.072 170.532 -0.586367 -0.609695 -0.533334
101.092 103.084 169.926 -0.586367 -0.609695 -0.533334
101.304 102.418 170.454 -0.730475 -0.551818 -0.402372
101.092 103.084 169.926 -0.730475 -0.551818 -0.402372
101.391 102.69 169.922 -0.730475 -0.551818 -0.402372
102.219 102.812 170.085 0.21205 -0.883574 -0.417531
101.304 102.418 170.454 0.21205 -0.883574 -0.417531
101.391 102.69 169.922 0.21205 -0.883574 -0.417531
102.047 102.245 170.744 0.0714523 -0.765043 -0.640003
101.304 102.418 170.454 0.0714523 -0.765043 -0.640003
102.219 102.812 170.085 0.0714523 -0.765043 -0.640003
103.031 103.1 169.975 0.461064 -0.785932 -0.411983
103.425 103.232 170.164 0.461064 -0.785932 -0.411983
103.129 102.742 170.769 0.461064 -0.785932 -0.411983
102.219 102.812 170.085 0.25146 -0.869981 -0.424148
103.031 103.1 169.975 0.25146 -0.869981 -0.424148
103.129 102.742 170.769 0.25146 -0.869981 -0.424148
102.219 102.812 170.085 0.367577 -0.738609 -0.565105
103.129 102.742 170.769 0.367577 -0.738609 -0.565105
102.457 102.337 170.86 0.367577 -0.738609 -0.565105
102.219 102.812 170.085 0.330563 -0.756278 -0.564599
102.457 102.337 170.86 0.330563 -0.756278 -0.564599
102.047 102.245 170.744 0.330563 -0.756278 -0.564599
103.129 102.742 170.769 0.696972 -0.684357 -0.214208
103.425 103.232 170.164 0.696972 -0.684357 -0.214208
103.699 103.297 170.849 0.696972 -0.684357 -0.214208
101.094 104.114 169.572 -0.64922 -0.304453 -0.697009
100.553 103.072 170.532 -0.64922 -0.304453 -0.697009
100.252 103.489 170.631 -0.64922 -0.304453 -0.697009
101.094 104.114 169.572 -0.497297 -0.513359 -0.699398
100.252 103.489 170.631 -0.497297 -0.513359 -0.699398
100.243 104.349 170.006 -0.497297 -0.513359 -0.699398
100.243 104.349 170.006 -0.990109 -0.089047 -0.108424
100.252 103.489 170.631 -0.990109 -0.089047 -0.108424
100.128 104.457 170.968 -0.990109 -0.089047 -0.108424
101.092 103.084 169.926 -0.726711 -0.221181 -0.650362
100.553 103.072 170.532 -0.726711 -0.221181 -0.650362
101.094 104.114 169.572 -0.726711 -0.221181 -0.650362
103.031 103.1 169.975 0.504609 -0.533946 -0.678433
103.272 103.487 169.85 0.504609 -0.533946 -0.678433
103.425 103.232 170.164 0.504609 -0.533946 -0.678433
103.425 103.232 170.164 0.715773 -0.329445 -0.61574
103.272 103.487 169.85 0.715773 -0.329445 -0.61574
103.679 103.978 170.06 0.715773 -0.329445 -0.61574
103.425 103.232 170.164 0.88225 -0.344933 -0.320401
103.679 103.978 170.06 0.88225 -0.344933 -0.320401
103.699 103.297 170.849 0.88225 -0.344933 -0.320401
103.699 103.297 170.849 0.954551 -0.213095 -0.20838
103.679 103.978 170.06 0.954551 -0.213095 -0.20838
103.893 104.165 170.849 0.954551 -0.213095 -0.20838
100.243 104.349 170.006 -0.98537 -0.136141 -0.10253
100.128 104.457 170.968 -0.98537 -0.136141 -0.10253
100.108 105.278 170.067 -0.98537 -0.136141 -0.10253
103.679 103.978 170.06 0.934791 0.191833 -0.298942
103.487 104.897 170.049 0.934791 0.191833 -0.298942
103.893 104.165 170.849 0.934791 0.191833 -0.298942
103.893 104.165 170.849 0.913094 0.394657 -0.102495
103.487 104.897 170.049 0.913094 0.394657 -0.102495
103.506 105.072 170.898 0.913094 0.394657 -0.102495
100.267 106.185 170.171 -0.936387 0.198006 -0.289781
100.306 105.824 169.8 -0.936387 0.198006 -0.289781
100.108 105.278 170.067 -0.936387 0.198006 -0.289781
100.267 106.185 170.171 -0.937708 0.197763 -0.285645
100.108 105.278 170.067 -0.937708 0.197763 -0.285645
99.9812 105.943 170.942 -0.937708 0.197763 -0.285645
99.9812 105.943 170.942 -0.992731 -0.0989593 -0.068502
100.108 105.278 170.067 -0.992731 -0.0989593 -0.068502
100.128 104.457 170.968 -0.992731 -0.0989593 -0.068502
100.306 105.824 169.8 -0.747676 0.435474 -0.501341
100.267 106.185 170.171 -0.747676 0.435474 -0.501341
100.538 106.244 169.819 -0.747676 0.435474 -0.501341
103.224 105.584 170.166 0.781541 0.616303 -0.096768
102.824 106.185 170.768 0.781541 0.616303 -0.096768
103.21 105.745 171.078 0.781541 0.616303 -0.096768
102.407 106.261 170.035 0.638102 0.713579 -0.289189
102.824 106.185 170.768 0.638102 0.713579 -0.289189
103.224 105.584 170.166 0.638102 0.713579 -0.289189
103.506 105.072 170.898 0.923614 0.370645 -0.0977705
103.487 104.897 170.049 0.923614 0.370645 -0.0977705
103.224 105.584 170.166 0.923614 0.370645 -0.0977705
103.21 105.745 171.078 0.907266 0.41632 -0.0595506
103.506 105.072 170.898 0.907266 0.41632 -0.0595506
103.224 105.584 170.166 0.907266 0.41632 -0.0595506
100.267 106.185 170.171 -0.832587 0.535767 -0.140547
99.9812 105.943 170.942 -0.832587 0.535767 -0.140547
100.458 106.654 170.83 -0.832587 0.535767 -0.140547
101.119 107.126 170.551 -0.628977 0.739588 -0.23958
100.458 106.654 170.83 -0.628977 0.739588 -0.23958
100.932 107.083 170.908 -0.628977 0.739588 -0.23958
101.252 106.698 170.059 -0.615615 0.50498 -0.60499
100.458 106.654 170.83 -0.615615 0.50498 -0.60499
101.119 107.126 170.551 -0.615615 0.50498 -0.60499
101.252 106.698 170.059 -0.456044 0.781984 -0.424881
100.267 106.185 170.171 -0.456044 0.781984 -0.424881
100.458 106.654 170.83 -0.456044 0.781984 -0.424881
101.252 106.698 170.059 -0.470571 0.854934 -0.218292
100.538 106.244 169.819 -0.470571 0.854934 -0.218292
100.267 106.185 170.171 -0.470571 0.854934 -0.218292
101.589 107.152 170.69 0.142255 0.765939 -0.626977
101.252 106.698 170.059 0.142255 0.765939 -0.626977
101.119 107.126 170.551 0.142255 0.765939 -0.626977
101.589 107.152 170.69 0.606676 0.455122 -0.651774
102.023 106.787 170.838 0.606676 0.455122 -0.651774
101.252 106.698 170.059 0.606676 0.455122 -0.651774
102.023 106.787 170.838 0.315534 0.855901 -0.409721
102.407 106.261 170.035 0.315534 0.855901 -0.409721
101.252 106.698 170.059 0.315534 0.855901 -0.409721
102.023 106.787 170.838 0.569105 0.785688 -0.242515
102.824 106.185 170.768 0.569105 0.785688 -0.242515
102.407 106.261 170.035 0.569105 0.785688 -0.242515
101.119 107.126 170.551 -0.519654 0.83718 -0.170555
100.932 107.083 170.908 -0.519654 0.83718 -0.170555
101.233 107.245 170.788 -0.519654 0.83718 -0.170555
101.589 107.152 170.69 0.0938195 0.870795 -0.482612
101.119 107.126 170.551 0.0938195 0.870795 -0.482612
101.233 107.245 170.788 0.0938195 0.870795 -0.482612
101.443 102.226 171.05 0.0290691 -0.999562 -0.00547479
102.047 102.245 170.744 0.0290691 -0.999562 -0.00547479
102.078 102.244 171.147 0.0290691 -0.999562 -0.00547479
102.047 102.245 170.744 0.224578 -0.974238 -0.0206272
102.457 102.337 170.86 0.224578 -0.974238 -0.0206272
102.078 102.244 171.147 0.224578 -0.974238 -0.0206272
100.337 103.054 170.975 -0.985301 -0.167486 0.0336139
100.284 103.43 171.275 -0.985301 -0.167486 0.0336139
100.252 103.489 170.631 -0.985301 -0.167486 0.0336139
100.337 103.054 170.975 -0.786683 -0.449806 0.422853
100.672 103.117 171.665 -0.786683 -0.449806 0.422853
100.284 103.43 171.275 -0.786683 -0.449806 0.422853
100.977 102.479 171.002 -0.630364 -0.683368 0.368307
100.672 103.117 171.665 -0.630364 -0.683368 0.368307
100.337 103.054 170.975 -0.630364 -0.683368 0.368307
100.977 102.479 171.002 -0.514108 -0.723653 0.460454
101.436 102.613 171.726 -0.514108 -0.723653 0.460454
100.672 103.117 171.665 -0.514108 -0.723653 0.460454
100.977 102.479 171.002 -0.463053 -0.771158 0.436918
101.443 102.226 171.05 -0.463053 -0.771158 0.436918
101.436 102.613 171.726 -0.463053 -0.771158 0.436918
102.078 102.244 171.147 -0.0514705 -0.866625 0.496298
101.436 102.613 171.726 -0.0514705 -0.866625 0.496298
101.443 102.226 171.05 -0.0514705 -0.866625 0.496298
102.473 102.62 171.661 0.0415325 -0.82047 0.570179
101.436 102.613 171.726 0.0415325 -0.82047 0.570179
102.078 102.244 171.147 0.0415325 -0.82047 0.570179
102.457 102.337 170.86 0.432611 -0.852659 0.292952
102.473 102.62 171.661 0.432611 -0.852659 0.292952
102.078 102.244 171.147 0.432611 -0.852659 0.292952
102.457 102.337 170.86 0.522792 -0.806915 0.274913
103.129 102.742 170.769 0.522792 -0.806915 0.274913
102.473 102.62 171.661 0.522792 -0.806915 0.274913
103.129 102.742 170.769 0.420015 -0.88777 0.188287
103.299 102.997 171.594 0.420015 -0.88777 0.188287
102.473 102.62 171.661 0.420015 -0.88777 0.188287
103.299 102.997 171.594 0.689634 -0.719635 0.0808088
103.129 102.742 170.769 0.689634 -0.719635 0.0808088
103.699 103.297 170.849 0.689634 -0.719635 0.0808088
103.527 103.451 171.695 0.839119 -0.478741 0.258239
103.299 102.997 171.594 0.839119 -0.478741 0.258239
103.699 103.297 170.849 0.839119 -0.478741 0.258239
100.252 103.489 170.631 -0.989561 -0.139439 0.0364114
100.284 103.43 171.275 -0.989561 -0.139439 0.0364114
100.128 104.457 170.968 -0.989561 -0.139439 0.0364114
100.873 104.164 171.966 -0.729563 -0.0560249 0.681615
100.284 103.43 171.275 -0.729563 -0.0560249 0.681615
100.672 103.117 171.665 -0.729563 -0.0560249 0.681615
100.128 104.457 170.968 -0.790928 0.0615919 0.608802
100.284 103.43 171.275 -0.790928 0.0615919 0.608802
100.873 104.164 171.966 -0.790928 0.0615919 0.608802
103.699 103.297 170.849 0.949362 -0.211829 0.232036
103.893 104.165 170.849 0.949362 -0.211829 0.232036
103.527 103.451 171.695 0.949362 -0.211829 0.232036
103.527 103.451 171.695 0.914551 0.0100044 0.404346
103.893 104.165 170.849 0.914551 0.0100044 0.404346
103.521 104.291 171.687 0.914551 0.0100044 0.404346
100.128 104.457 170.968 -0.707197 -0.421884 0.56735
100.443 105.298 171.987 -0.707197 -0.421884 0.56735
100.077 105.355 171.573 -0.707197 -0.421884 0.56735
100.873 104.164 171.966 -0.802666 -0.313395 0.507456
100.443 105.298 171.987 -0.802666 -0.313395 0.507456
100.128 104.457 170.968 -0.802666 -0.313395 0.507456
103.893 104.165 170.849 0.873277 0.354378 0.33437
103.506 105.072 170.898 0.873277 0.354378 0.33437
103.521 104.291 171.687 0.873277 0.354378 0.33437
103.521 104.291 171.687 0.923394 0.281342 0.261134
103.506 105.072 170.898 0.923394 0.281342 0.261134
103.188 105.113 171.979 0.923394 0.281342 0.261134
100.128 104.457 170.968 -0.99342 -0.096766 0.0612702
100.077 105.355 171.573 -0.99342 -0.096766 0.0612702
99.9812 105.943 170.942 -0.99342 -0.096766 0.0612702
100.077 105.355 171.573 -0.985485 0.0197506 0.168607
100.119 105.997 171.74 -0.985485 0.0197506 0.168607
99.9812 105.943 170.942 -0.985485 0.0197506 0.168607
103.21 105.745 171.078 0.489611 0.836704 0.245373
102.38 106.016 171.809 0.489611 0.836704 0.245373
103.129 105.605 171.715 0.489611 0.836704 0.245373
102.824 106.185 170.768 0.561085 0.745203 0.360355
102.38 106.016 171.809 0.561085 0.745203 0.360355
103.21 105.745 171.078 0.561085 0.745203 0.360355
103.188 105.113 171.979 0.908155 0.332216 0.254728
103.506 105.072 170.898 0.908155 0.332216 0.254728
103.21 105.745 171.078 0.908155 0.332216 0.254728
103.129 105.605 171.715 0.964636 0.204377 0.166457
103.188 105.113 171.979 0.964636 0.204377 0.166457
103.21 105.745 171.078 0.964636 0.204377 0.166457
99.9812 105.943 170.942 -0.919029 0.371056 0.133055
100.119 105.997 171.74 -0.919029 0.371056 0.133055
100.256 106.385 171.609 -0.919029 0.371056 0.133055
100.458 106.654 170.83 -0.832213 0.553931 -0.0241294
99.9812 105.943 170.942 -0.832213 0.553931 -0.0241294
100.256 106.385 171.609 -0.832213 0.553931 -0.0241294
100.932 107.083 170.908 -0.121035 0.734754 0.667448
101.127 106.496 171.589 -0.121035 0.734754 0.667448
101.334 107.109 170.952 -0.121035 0.734754 0.667448
100.932 107.083 170.908 -0.579501 0.527928 0.620863
100.458 106.654 170.83 -0.579501 0.527928 0.620863
101.127 106.496 171.589 -0.579501 0.527928 0.620863
100.458 106.654 170.83 -0.114097 0.947804 0.297741
100.256 106.385 171.609 -0.114097 0.947804 0.297741
101.127 106.496 171.589 -0.114097 0.947804 0.297741
101.334 107.109 170.952 0.42773 0.727246 0.536805
102.023 106.787 170.838 0.42773 0.727246 0.536805
101.589 107.152 170.69 0.42773 0.727246 0.536805
101.334 107.109 170.952 0.39322 0.595663 0.700402
101.127 106.496 171.589 0.39322 0.595663 0.700402
102.023 106.787 170.838 0.39322 0.595663 0.700402
101.127 106.496 171.589 0.20883 0.801607 0.560194
102.38 106.016 171.809 0.20883 0.801607 0.560194
102.023 106.787 170.838 0.20883 0.801607 0.560194
102.38 106.016 171.809 0.579561 0.72838 0.365474
102.824 106.185 170.768 0.579561 0.72838 0.365474
102.023 106.787 170.838 0.579561 0.72838 0.365474
100.932 107.083 170.908 -0.121545 0.725099 0.677833
101.334 107.109 170.952 -0.121545 0.725099 0.677833
101.233 107.245 170.788 -0.121545 0.725099 0.677833
101.589 107.152 170.69 0.341519 0.815434 0.467366
101.233 107.245 170.788 0.341519 0.815434 0.467366
101.334 107.109 170.952 0.341519 0.815434 0.467366
101.436 102.613 171.726 -0.447953 -0.598768 0.663939
101.254 103.317 172.238 -0.447953 -0.598768 0.663939
100.672 103.117 171.665 -0.447953 -0.598768 0.663939
101.436 102.613 171.726 0.0480202 -0.728104 0.683783
102.473 102.62 171.661 0.0480202 -0.728104 0.683783
102.213 103.32 172.424 0.0480202 -0.728104 0.683783
101.254 103.317 172.238 -0.149492 -0.606706 0.780743
101.436 102.613 171.726 -0.149492 -0.606706 0.780743
102.213 103.32 172.424 -0.149492 -0.606706 0.780743
102.473 102.62 171.661 0.387901 -0.757511 0.52508
103.299 102.997 171.594 0.387901 -0.757511 0.52508
103.119 103.194 172.01 0.387901 -0.757511 0.52508
102.213 103.32 172.424 0.224264 -0.679057 0.698991
102.473 102.62 171.661 0.224264 -0.679057 0.698991
103.119 103.194 172.01 0.224264 -0.679057 0.698991
103.299 102.997 171.594 0.706318 -0.472069 0.527508
103.527 103.451 171.695 0.706318 -0.472069 0.527508
103.119 103.194 172.01 0.706318 -0.472069 0.527508
101.254 103.317 172.238 -0.547536 0.0227583 0.836473
101.429 104.012 172.334 -0.547536 0.0227583 0.836473
100.873 104.164 171.966 -0.547536 0.0227583 0.836473
100.672 103.117 171.665 -0.686451 -0.0762098 0.723172
101.254 103.317 172.238 -0.686451 -0.0762098 0.723172
100.873 104.164 171.966 -0.686451 -0.0762098 0.723172
102.021 104.086 172.781 -0.328302 -0.465571 0.821864
102.213 103.32 172.424 -0.328302 -0.465571 0.821864
102.428 103.834 172.801 -0.328302 -0.465571 0.821864
102.021 104.086 172.781 -0.49528 -0.465997 0.733174
101.429 104.012 172.334 -0.49528 -0.465997 0.733174
102.213 103.32 172.424 -0.49528 -0.465997 0.733174
101.429 104.012 172.334 -0.189017 -0.0871074 0.978103
101.254 103.317 172.238 -0.189017 -0.0871074 0.978103
102.213 103.32 172.424 -0.189017 -0.0871074 0.978103
102.428 103.834 172.801 0.570005 -0.240369 0.785695
103.143 103.99 172.33 0.570005 -0.240369 0.785695
102.72 104.434 172.773 0.570005 -0.240369 0.785695
102.428 103.834 172.801 0.515948 -0.636927 0.572819
102.213 103.32 172.424 0.515948 -0.636927 0.572819
103.143 103.99 172.33 0.515948 -0.636927 0.572819
102.213 103.32 172.424 0.34545 -0.35903 0.867042
103.119 103.194 172.01 0.34545 -0.35903 0.867042
103.143 103.99 172.33 0.34545 -0.35903 0.867042
103.527 103.451 171.695 0.860076 0.010644 0.510055
103.521 104.291 171.687 0.860076 0.010644 0.510055
103.143 103.99 172.33 0.860076 0.010644 0.510055
103.119 103.194 172.01 0.692967 -0.286819 0.661462
103.527 103.451 171.695 0.692967 -0.286819 0.661462
103.143 103.99 172.33 0.692967 -0.286819 0.661462
100.873 104.164 171.966 -0.649735 -0.259381 0.714539
101.375 105.048 172.743 -0.649735 -0.259381 0.714539
100.443 105.298 171.987 -0.649735 -0.259381 0.714539
100.873 104.164 171.966 -0.735705 -0.160707 0.65796
101.433 104.653 172.711 -0.735705 -0.160707 0.65796
101.375 105.048 172.743 -0.735705 -0.160707 0.65796
100.873 104.164 171.966 -0.579136 -0.41086 0.704128
101.429 104.012 172.334 -0.579136 -0.41086 0.704128
101.433 104.653 172.711 -0.579136 -0.41086 0.704128
102.021 104.086 172.781 -0.507384 -0.434764 0.744004
101.433 104.653 172.711 -0.507384 -0.434764 0.744004
101.429 104.012 172.334 -0.507384 -0.434764 0.744004
103.188 105.113 171.979 0.787264 0.155163 0.596775
102.72 104.434 172.773 0.787264 0.155163 0.596775
103.143 103.99 172.33 0.787264 0.155163 0.596775
102.564 105.225 172.654 0.732302 0.240268 0.637185
102.72 104.434 172.773 0.732302 0.240268 0.637185
103.188 105.113 171.979 0.732302 0.240268 0.637185
103.143 103.99 172.33 0.82424 0.138761 0.548976
103.521 104.291 171.687 0.82424 0.138761 0.548976
103.188 105.113 171.979 0.82424 0.138761 0.548976
100.443 105.298 171.987 -0.636959 -0.0236056 0.770536
100.411 106.135 171.986 -0.636959 -0.0236056 0.770536
100.119 105.997 171.74 -0.636959 -0.0236056 0.770536
100.077 105.355 171.573 -0.751793 -0.120031 0.648382
100.443 105.298 171.987 -0.751793 -0.120031 0.648382
100.119 105.997 171.74 -0.751793 -0.120031 0.648382
101.224 105.501 172.635 -0.634466 -0.0272969 0.772468
100.443 105.298 171.987 -0.634466 -0.0272969 0.772468
101.375 105.048 172.743 -0.634466 -0.0272969 0.772468
101.224 105.501 172.635 -0.630441 0.482961 0.607694
101.225 105.989 172.249 -0.630441 0.482961 0.607694
100.443 105.298 171.987 -0.630441 0.482961 0.607694
101.225 105.989 172.249 -0.309055 -0.0105591 0.950986
100.411 106.135 171.986 -0.309055 -0.0105591 0.950986
100.443 105.298 171.987 -0.309055 -0.0105591 0.950986
101.225 105.989 172.249 0.189315 0.815747 0.54655
101.999 105.506 172.702 0.189315 0.815747 0.54655
102.38 106.016 171.809 0.189315 0.815747 0.54655
101.224 105.501 172.635 -0.0719584 0.618968 0.782113
101.999 105.506 172.702 -0.0719584 0.618968 0.782113
101.225 105.989 172.249 -0.0719584 0.618968 0.782113
102.564 105.225 172.654 0.402025 0.7106 0.577429
102.38 106.016 171.809 0.402025 0.7106 0.577429
101.999 105.506 172.702 0.402025 0.7106 0.577429
103.188 105.113 171.979 0.615435 0.63788 0.462978
102.38 106.016 171.809 0.615435 0.63788 0.462978
102.564 105.225 172.654 0.615435 0.63788 0.462978
103.188 105.113 171.979 0.360953 0.47418 0.803036
103.129 105.605 171.715 0.360953 0.47418 0.803036
102.38 106.016 171.809 0.360953 0.47418 0.803036
100.119 105.997 171.74 -0.690309 0.439378 0.574823
100.411 106.135 171.986 -0.690309 0.439378 0.574823
100.256 106.385 171.609 -0.690309 0.439378 0.574823
101.127 106.496 171.589 -0.0903294 0.812205 0.576336
100.256 106.385 171.609 -0.0903294 0.812205 0.576336
100.411 106.135 171.986 -0.0903294 0.812205 0.576336
101.225 105.989 172.249 -0.0573548 0.787626 0.613478
101.127 106.496 171.589 -0.0573548 0.787626 0.613478
100.411 106.135 171.986 -0.0573548 0.787626 0.613478
102.38 106.016 171.809 0.201691 0.791003 0.577611
101.127 106.496 171.589 0.201691 0.791003 0.577611
101.225 105.989 172.249 0.201691 0.791003 0.577611
102.428 103.834 172.801 -0.329094 -0.466942 0.82077
102.129 104.398 173.002 -0.329094 -0.466942 0.82077
102.021 104.086 172.781 -0.329094 -0.466942 0.82077
102.428 103.834 172.801 0.364395 -0.133986 0.921555
102.72 104.434 172.773 0.364395 -0.133986 0.921555
102.129 104.398 173.002 0.364395 -0.133986 0.921555
101.433 104.653 172.711 -0.473259 -0.393911 0.787946
102.021 104.086 172.781 -0.473259 -0.393911 0.787946
102.129 104.398 173.002 -0.473259 -0.393911 0.787946
101.433 104.653 172.711 -0.423476 -0.134437 0.895876
102.129 104.398 173.002 -0.423476 -0.134437 0.895876
101.375 105.048 172.743 -0.423476 -0.134437 0.895876
101.375 105.048 172.743 -0.225967 0.122696 0.966377
102.129 104.398 173.002 -0.225967 0.122696 0.966377
102.23 105.014 172.947 -0.225967 0.122696 0.966377
102.72 104.434 172.773 0.555435 0.229799 0.799177
102.564 105.225 172.654 0.555435 0.229799 0.799177
102.23 105.014 172.947 0.555435 0.229799 0.799177
102.129 104.398 173.002 0.359236 0.0238115 0.932943
102.72 104.434 172.773 0.359236 0.0238115 0.932943
102.23 105.014 172.947 0.359236 0.0238115 0.932943
101.999 105.506 172.702 -0.0862596 0.20406 0.975151
101.224 105.501 172.635 -0.0862596 0.20406 0.975151
101.375 105.048 172.743 -0.0862596 0.20406 0.975151
102.23 105.014 172.947 -0.20346 0.35806 0.911261
101.999 105.506 172.702 -0.20346 0.35806 0.911261
101.375 105.048 172.743 -0.20346 0.35806 0.911261
102.564 105.225 172.654 0.334543 0.541102 0.77155
101.999 105.506 172.702 0.334543 0.541102 0.77155
102.23 105.014 172.947 0.334543 0.541102 0.77155
3 0 1 2
3 3 4 5
3 6 7 8
3 9 10 11
3 12 13 14
3 15 16 17
3 18 19 20
3 21 22 23
3 24 25 26
3 27 28 29
3 30 31 32
3 33 34 35
3 36 37 38
3 39 40 41
3 42 43 44
3 45 46 47
3 48 49 50
3 51 52 53
3 54 55 56
3 57 58 59
3 60 61 62
3 63 64 65
3 66 67 68
3 69 70 71
3 72 73 74
3 75 76 77
3 78 79 80
3 81 82 83
3 84 85 86
3 87 88 89
3 90 91 92
3 93 94 95
3 96 97 98
3 99 100 101
3 102 103 104
3 105 106 107
3 108 109 110
3 111 112 113
3 114 115 116
3 117 118 119
3 120 121 122
3 123 124 125
3 126 127 128
3 129 130 131
3 132 133 134
3 135 136 137
3 138 139 140
3 141 142 143
3 144 145 146
3 147 148 149
3 150 151 152
3 153 154 155
3 156 157 158
3 159 160 161
3 162 163 164
3 165 166 167
3 168 169 170
3 171 172 173
3 174 175 176
3 177 178 179
3 180 181 182
3 183 184 185
3 186 187 188
3 189 190 191
3 192 193 194
3 195 196 197
3 198 199 200
3 201 202 203
3 204 205 206
3 207 208 209
3 210 211 212
3 213 214 215
3 216 217 218
3 219 220 221
3 222 223 224
3 225 226 227
3 228 229 230
3 231 232 233
3 234 235 236
3 237 238 239
3 240 241 242
3 243 244 245
3 246 247 248
3 249 250 251
3 252 253 254
3 255 256 257
3 258 259 260
3 261 262 263
3 264 265 266
3 267 268 269
3 270 271 272
3 273 274 275
3 276 277 278
3 279 280 281
3 282 283 284
3 285 286 287
3 288 289 290
3 291 292 293
3 294 295 296
3 297 298 299
3 300 301 302
3 303 304 305
3 306 307 308
3 309 310 311
3 312 313 314
3 315 316 317
3 318 319 320
3 321 322 323
3 324 325 326
3 327 328 329
3 330 331 332
3 333 334 335
3 336 337 338
3 339 340 341
3 342 343 344
3 345 346 347
3 348 349 350
3 351 352 353
3 354 355 356
3 357 358 359
3 360 361 362
3 363 364 365
3 366 367 368
3 369 370 371
3 372 373 374
3 375 376 377
3 378 379 380
3 381 382 383
3 384 385 386
3 387 388 389
3 390 391 392
3 393 394 395
3 396 397 398
3 399 400 401
3 402 403 404
3 405 406 407
3 408 409 410
3 411 412 413
3 414 415 416
3 417 418 419
3 420 421 422
3 423 424 425
3 426 427 428
3 429 430 431
3 432 433 434
3 435 436 437
3 438 439 440
3 441 442 443
3 444 445 446
3 447 448 449
3 450 451 452
3 453 454 455
3 456 457 458
3 459 460 461
3 462 463 464
3 465 466 467
3 468 469 470
3 471 472 473
3 474 475 476
3 477 478 479
3 480 481 482
3 483 484 485
3 486 487 488
3 489 490 491
