solid ascii
 facet normal -0.414213 -0.545513 -0.72859
  outer loop
   vertex 123.559 189.754 136.433
   vertex 123.441 189.36 136.795
   vertex 123.159 189.84 136.596
  endloop
 endfacet
 facet normal 0.0438586 -0.339 -0.939764
  outer loop
   vertex 123.559 189.754 136.433
   vertex 124.345 189.815 136.448
   vertex 124.121 189.31 136.619
  endloop
 endfacet
 facet normal -0.238661 -0.617389 -0.749581
  outer loop
   vertex 123.441 189.36 136.795
   vertex 123.559 189.754 136.433
   vertex 124.121 189.31 136.619
  endloop
 endfacet
 facet normal 0.583088 -0.480867 -0.654809
  outer loop
   vertex 124.121 189.31 136.619
   vertex 124.345 189.815 136.448
   vertex 124.703 189.766 136.802
  endloop
 endfacet
 facet normal -0.403685 -0.179294 -0.897158
  outer loop
   vertex 123.394 190.633 136.331
   vertex 123.559 189.754 136.433
   vertex 123.159 189.84 136.596
  endloop
 endfacet
 facet normal -0.483414 -0.144489 -0.863385
  outer loop
   vertex 122.86 190.644 136.628
   vertex 123.394 190.633 136.331
   vertex 123.159 189.84 136.596
  endloop
 endfacet
 facet normal 0.027978 -0.122611 -0.99206
  outer loop
   vertex 124.345 189.815 136.448
   vertex 123.559 189.754 136.433
   vertex 124.284 190.637 136.344
  endloop
 endfacet
 facet normal 0.0146455 -0.111819 -0.993621
  outer loop
   vertex 124.284 190.637 136.344
   vertex 123.559 189.754 136.433
   vertex 123.394 190.633 136.331
  endloop
 endfacet
 facet normal 0.60726 -0.424567 -0.67155
  outer loop
   vertex 125.064 190.622 136.587
   vertex 124.703 189.766 136.802
   vertex 124.345 189.815 136.448
  endloop
 endfacet
 facet normal 0.294594 -0.0977999 -0.950605
  outer loop
   vertex 125.064 190.622 136.587
   vertex 124.345 189.815 136.448
   vertex 124.284 190.637 136.344
  endloop
 endfacet
 facet normal -0.484568 -0.121281 -0.866305
  outer loop
   vertex 123.381 191.527 136.213
   vertex 123.394 190.633 136.331
   vertex 122.86 190.644 136.628
  endloop
 endfacet
 facet normal -0.852186 0.302196 -0.427149
  outer loop
   vertex 123.114 191.43 136.677
   vertex 123.381 191.527 136.213
   vertex 122.86 190.644 136.628
  endloop
 endfacet
 facet normal 0.0145386 -0.0762029 -0.996986
  outer loop
   vertex 124.284 190.637 136.344
   vertex 123.394 190.633 136.331
   vertex 124.157 191.496 136.277
  endloop
 endfacet
 facet normal 0.0756681 -0.129749 -0.988655
  outer loop
   vertex 124.157 191.496 136.277
   vertex 123.394 190.633 136.331
   vertex 123.381 191.527 136.213
  endloop
 endfacet
 facet normal 0.293112 -0.126737 -0.947641
  outer loop
   vertex 125.064 190.622 136.587
   vertex 124.284 190.637 136.344
   vertex 125.037 191.678 136.438
  endloop
 endfacet
 facet normal 0.189557 -0.0488807 -0.980652
  outer loop
   vertex 125.037 191.678 136.438
   vertex 124.284 190.637 136.344
   vertex 124.157 191.496 136.277
  endloop
 endfacet
 facet normal 0.737948 -0.0761989 -0.670542
  outer loop
   vertex 125.037 191.678 136.438
   vertex 125.357 191.605 136.799
   vertex 125.064 190.622 136.587
  endloop
 endfacet
 facet normal -0.788843 0.506689 -0.34784
  outer loop
   vertex 123.381 191.527 136.213
   vertex 123.114 191.43 136.677
   vertex 123.467 191.899 136.561
  endloop
 endfacet
 facet normal -0.507257 0.733105 -0.453042
  outer loop
   vertex 123.467 191.899 136.561
   vertex 124.092 192.484 136.808
   vertex 124.267 192.323 136.351
  endloop
 endfacet
 facet normal -0.495796 0.651344 -0.574401
  outer loop
   vertex 123.467 191.899 136.561
   vertex 124.267 192.323 136.351
   vertex 123.381 191.527 136.213
  endloop
 endfacet
 facet normal 0.0843733 0.0776367 -0.993405
  outer loop
   vertex 123.381 191.527 136.213
   vertex 124.267 192.323 136.351
   vertex 124.157 191.496 136.277
  endloop
 endfacet
 facet normal 0.4711 0.086192 -0.877858
  outer loop
   vertex 125.007 192.511 136.503
   vertex 125.318 192.28 136.648
   vertex 125.037 191.678 136.438
  endloop
 endfacet
 facet normal 0.181079 0.0837965 -0.979892
  outer loop
   vertex 125.007 192.511 136.503
   vertex 125.037 191.678 136.438
   vertex 124.267 192.323 136.351
  endloop
 endfacet
 facet normal 0.166437 0.0657864 -0.983855
  outer loop
   vertex 124.267 192.323 136.351
   vertex 125.037 191.678 136.438
   vertex 124.157 191.496 136.277
  endloop
 endfacet
 facet normal 0.732586 -0.10743 -0.672143
  outer loop
   vertex 125.357 191.605 136.799
   vertex 125.037 191.678 136.438
   vertex 125.318 192.28 136.648
  endloop
 endfacet
 facet normal -0.49484 0.742445 -0.451563
  outer loop
   vertex 124.267 192.323 136.351
   vertex 124.092 192.484 136.808
   vertex 124.577 192.749 136.712
  endloop
 endfacet
 facet normal -0.00828841 0.650299 -0.759633
  outer loop
   vertex 125.007 192.511 136.503
   vertex 124.267 192.323 136.351
   vertex 124.577 192.749 136.712
  endloop
 endfacet
 facet normal -0.761407 -0.62477 0.172983
  outer loop
   vertex 123.441 189.36 136.795
   vertex 123.482 189.555 137.681
   vertex 123.163 189.864 137.392
  endloop
 endfacet
 facet normal -0.865622 -0.500322 0.01939
  outer loop
   vertex 123.159 189.84 136.596
   vertex 123.441 189.36 136.795
   vertex 123.163 189.864 137.392
  endloop
 endfacet
 facet normal -0.0342832 -0.988289 0.148694
  outer loop
   vertex 124.121 189.31 136.619
   vertex 124.157 189.42 137.36
   vertex 123.441 189.36 136.795
  endloop
 endfacet
 facet normal -0.0907679 -0.971618 0.218447
  outer loop
   vertex 123.441 189.36 136.795
   vertex 124.157 189.42 137.36
   vertex 123.482 189.555 137.681
  endloop
 endfacet
 facet normal 0.59703 -0.797172 0.08985
  outer loop
   vertex 124.157 189.42 137.36
   vertex 124.121 189.31 136.619
   vertex 124.703 189.766 136.802
  endloop
 endfacet
 facet normal 0.602906 -0.791641 0.0990343
  outer loop
   vertex 124.578 189.788 137.734
   vertex 124.157 189.42 137.36
   vertex 124.703 189.766 136.802
  endloop
 endfacet
 facet normal -0.937009 -0.348979 0.0150855
  outer loop
   vertex 123.159 189.84 136.596
   vertex 123.163 189.864 137.392
   vertex 122.86 190.644 136.628
  endloop
 endfacet
 facet normal -0.950159 -0.0717354 0.303402
  outer loop
   vertex 123.163 189.864 137.392
   vertex 123.085 190.756 137.36
   vertex 122.86 190.644 136.628
  endloop
 endfacet
 facet normal 0.842855 -0.523386 0.125147
  outer loop
   vertex 124.703 189.766 136.802
   vertex 125.188 190.707 137.468
   vertex 124.578 189.788 137.734
  endloop
 endfacet
 facet normal 0.909578 -0.405804 -0.0893926
  outer loop
   vertex 125.064 190.622 136.587
   vertex 125.188 190.707 137.468
   vertex 124.703 189.766 136.802
  endloop
 endfacet
 facet normal -0.927599 0.284872 0.241676
  outer loop
   vertex 122.86 190.644 136.628
   vertex 123.085 190.756 137.36
   vertex 123.114 191.43 136.677
  endloop
 endfacet
 facet normal -0.915675 0.304861 0.261913
  outer loop
   vertex 123.085 190.756 137.36
   vertex 123.402 191.642 137.435
   vertex 123.114 191.43 136.677
  endloop
 endfacet
 facet normal 0.958597 -0.262649 -0.110032
  outer loop
   vertex 125.064 190.622 136.587
   vertex 125.357 191.605 136.799
   vertex 125.188 190.707 137.468
  endloop
 endfacet
 facet normal 0.96652 -0.243164 -0.0819102
  outer loop
   vertex 125.188 190.707 137.468
   vertex 125.357 191.605 136.799
   vertex 125.421 191.614 137.524
  endloop
 endfacet
 facet normal -0.77834 0.615715 0.12281
  outer loop
   vertex 123.467 191.899 136.561
   vertex 123.114 191.43 136.677
   vertex 123.402 191.642 137.435
  endloop
 endfacet
 facet normal -0.706624 0.691427 0.150369
  outer loop
   vertex 123.402 191.642 137.435
   vertex 124.092 192.484 136.808
   vertex 123.467 191.899 136.561
  endloop
 endfacet
 facet normal -0.749872 0.658932 0.0591699
  outer loop
   vertex 124.123 192.434 137.761
   vertex 124.092 192.484 136.808
   vertex 123.402 191.642 137.435
  endloop
 endfacet
 facet normal 0.63061 0.45984 -0.625203
  outer loop
   vertex 125.318 192.28 136.648
   vertex 125.007 192.511 136.503
   vertex 125.22 192.638 136.811
  endloop
 endfacet
 facet normal 0.941602 0.314554 -0.120172
  outer loop
   vertex 125.318 192.28 136.648
   vertex 125.22 192.638 136.811
   vertex 125.394 192.359 137.452
  endloop
 endfacet
 facet normal 0.994546 0.0359372 -0.0979106
  outer loop
   vertex 125.318 192.28 136.648
   vertex 125.394 192.359 137.452
   vertex 125.357 191.605 136.799
  endloop
 endfacet
 facet normal 0.995751 0.0272646 -0.0879595
  outer loop
   vertex 125.357 191.605 136.799
   vertex 125.394 192.359 137.452
   vertex 125.421 191.614 137.524
  endloop
 endfacet
 facet normal -0.552992 0.830884 0.0618968
  outer loop
   vertex 124.092 192.484 136.808
   vertex 124.123 192.434 137.761
   vertex 124.501 192.701 137.551
  endloop
 endfacet
 facet normal -0.478728 0.877933 0.00725513
  outer loop
   vertex 124.577 192.749 136.712
   vertex 124.092 192.484 136.808
   vertex 124.501 192.701 137.551
  endloop
 endfacet
 facet normal 0.222464 0.837586 -0.498958
  outer loop
   vertex 125.22 192.638 136.811
   vertex 125.007 192.511 136.503
   vertex 124.577 192.749 136.712
  endloop
 endfacet
 facet normal 0.183079 0.979755 -0.0810107
  outer loop
   vertex 125.22 192.638 136.811
   vertex 124.577 192.749 136.712
   vertex 125.137 192.703 137.415
  endloop
 endfacet
 facet normal 0.00955446 0.998249 0.0583827
  outer loop
   vertex 125.137 192.703 137.415
   vertex 124.577 192.749 136.712
   vertex 124.501 192.701 137.551
  endloop
 endfacet
 facet normal 0.797168 0.602141 0.0441429
  outer loop
   vertex 125.394 192.359 137.452
   vertex 125.22 192.638 136.811
   vertex 125.137 192.703 137.415
  endloop
 endfacet
 facet normal -0.726288 -0.683673 0.0713878
  outer loop
   vertex 123.482 189.555 137.681
   vertex 123.297 189.799 138.133
   vertex 123.163 189.864 137.392
  endloop
 endfacet
 facet normal -0.482989 -0.837788 0.254622
  outer loop
   vertex 123.657 189.739 138.616
   vertex 123.297 189.799 138.133
   vertex 123.482 189.555 137.681
  endloop
 endfacet
 facet normal -0.271921 -0.933462 0.233896
  outer loop
   vertex 123.657 189.739 138.616
   vertex 123.482 189.555 137.681
   vertex 124.124 189.567 138.473
  endloop
 endfacet
 facet normal -0.13728 -0.982572 0.125322
  outer loop
   vertex 124.124 189.567 138.473
   vertex 123.482 189.555 137.681
   vertex 124.157 189.42 137.36
  endloop
 endfacet
 facet normal 0.588421 -0.799184 0.122741
  outer loop
   vertex 124.124 189.567 138.473
   vertex 124.157 189.42 137.36
   vertex 124.578 189.788 137.734
  endloop
 endfacet
 facet normal 0.426106 -0.904632 -0.00865628
  outer loop
   vertex 124.396 189.693 138.684
   vertex 124.124 189.567 138.473
   vertex 124.578 189.788 137.734
  endloop
 endfacet
 facet normal -0.994894 -0.0475042 0.0890465
  outer loop
   vertex 123.297 189.799 138.133
   vertex 123.328 190.112 138.649
   vertex 123.269 190.602 138.251
  endloop
 endfacet
 facet normal -0.983196 -0.0593965 0.172619
  outer loop
   vertex 123.297 189.799 138.133
   vertex 123.269 190.602 138.251
   vertex 123.163 189.864 137.392
  endloop
 endfacet
 facet normal -0.978949 -0.0784257 0.188436
  outer loop
   vertex 123.163 189.864 137.392
   vertex 123.269 190.602 138.251
   vertex 123.085 190.756 137.36
  endloop
 endfacet
 facet normal -0.663841 -0.621059 0.416655
  outer loop
   vertex 123.657 189.739 138.616
   vertex 123.328 190.112 138.649
   vertex 123.297 189.799 138.133
  endloop
 endfacet
 facet normal 0.842309 -0.503793 0.191593
  outer loop
   vertex 125.188 190.707 137.468
   vertex 124.755 190.4 138.566
   vertex 124.578 189.788 137.734
  endloop
 endfacet
 facet normal 0.89285 -0.431828 0.12784
  outer loop
   vertex 124.755 190.4 138.566
   vertex 124.396 189.693 138.684
   vertex 124.578 189.788 137.734
  endloop
 endfacet
 facet normal -0.919762 0.307906 0.243375
  outer loop
   vertex 123.269 190.602 138.251
   vertex 123.402 191.642 137.435
   vertex 123.085 190.756 137.36
  endloop
 endfacet
 facet normal -0.843891 0.393398 0.364809
  outer loop
   vertex 123.269 190.602 138.251
   vertex 123.837 191.518 138.577
   vertex 123.402 191.642 137.435
  endloop
 endfacet
 facet normal 0.843886 -0.500562 0.193117
  outer loop
   vertex 125.188 190.707 137.468
   vertex 125.388 191.454 138.535
   vertex 124.755 190.4 138.566
  endloop
 endfacet
 facet normal 0.968664 -0.248274 -0.0070558
  outer loop
   vertex 125.388 191.454 138.535
   vertex 125.188 190.707 137.468
   vertex 125.421 191.614 137.524
  endloop
 endfacet
 facet normal -0.759647 0.54844 0.3495
  outer loop
   vertex 123.402 191.642 137.435
   vertex 123.837 191.518 138.577
   vertex 124.123 192.434 137.761
  endloop
 endfacet
 facet normal -0.908473 0.397724 0.128422
  outer loop
   vertex 123.837 191.518 138.577
   vertex 124.206 192.323 138.693
   vertex 124.123 192.434 137.761
  endloop
 endfacet
 facet normal 0.998438 0.0396211 0.0393856
  outer loop
   vertex 125.421 191.614 137.524
   vertex 125.394 192.359 137.452
   vertex 125.388 191.454 138.535
  endloop
 endfacet
 facet normal 0.96633 0.194418 0.168548
  outer loop
   vertex 125.388 191.454 138.535
   vertex 125.394 192.359 137.452
   vertex 125.206 192.441 138.44
  endloop
 endfacet
 facet normal -0.576703 0.803618 0.147009
  outer loop
   vertex 124.123 192.434 137.761
   vertex 124.206 192.323 138.693
   vertex 124.494 192.549 138.584
  endloop
 endfacet
 facet normal -0.527953 0.840778 0.119823
  outer loop
   vertex 124.501 192.701 137.551
   vertex 124.123 192.434 137.761
   vertex 124.494 192.549 138.584
  endloop
 endfacet
 facet normal 0.0496038 0.96835 0.24462
  outer loop
   vertex 125.137 192.703 137.415
   vertex 124.501 192.701 137.551
   vertex 125.206 192.441 138.44
  endloop
 endfacet
 facet normal 0.177567 0.973418 0.14466
  outer loop
   vertex 124.501 192.701 137.551
   vertex 124.494 192.549 138.584
   vertex 125.206 192.441 138.44
  endloop
 endfacet
 facet normal 0.79087 0.603533 0.101349
  outer loop
   vertex 125.206 192.441 138.44
   vertex 125.394 192.359 137.452
   vertex 125.137 192.703 137.415
  endloop
 endfacet
 facet normal -0.381204 -0.916959 -0.117774
  outer loop
   vertex 124.124 189.567 138.473
   vertex 124.258 189.372 139.556
   vertex 123.747 189.583 139.561
  endloop
 endfacet
 facet normal -0.373882 -0.920296 -0.115188
  outer loop
   vertex 123.657 189.739 138.616
   vertex 124.124 189.567 138.473
   vertex 123.747 189.583 139.561
  endloop
 endfacet
 facet normal 0.541858 -0.813051 -0.212925
  outer loop
   vertex 124.258 189.372 139.556
   vertex 124.124 189.567 138.473
   vertex 124.396 189.693 138.684
  endloop
 endfacet
 facet normal 0.588373 -0.784699 -0.195103
  outer loop
   vertex 124.628 189.651 139.549
   vertex 124.258 189.372 139.556
   vertex 124.396 189.693 138.684
  endloop
 endfacet
 facet normal -0.985383 0.0190065 0.169287
  outer loop
   vertex 123.328 190.112 138.649
   vertex 123.379 190.665 138.886
   vertex 123.269 190.602 138.251
  endloop
 endfacet
 facet normal -0.94854 -0.0463376 0.313249
  outer loop
   vertex 123.328 190.112 138.649
   vertex 123.579 190.483 139.463
   vertex 123.379 190.665 138.886
  endloop
 endfacet
 facet normal -0.640325 -0.605405 0.472725
  outer loop
   vertex 123.328 190.112 138.649
   vertex 123.657 189.739 138.616
   vertex 123.579 190.483 139.463
  endloop
 endfacet
 facet normal -0.982086 -0.176908 0.0648949
  outer loop
   vertex 123.657 189.739 138.616
   vertex 123.747 189.583 139.561
   vertex 123.579 190.483 139.463
  endloop
 endfacet
 facet normal 0.647841 -0.644031 -0.406848
  outer loop
   vertex 125.395 190.362 139.646
   vertex 124.628 189.651 139.549
   vertex 124.755 190.4 138.566
  endloop
 endfacet
 facet normal 0.84635 -0.470786 -0.249102
  outer loop
   vertex 124.628 189.651 139.549
   vertex 124.396 189.693 138.684
   vertex 124.755 190.4 138.566
  endloop
 endfacet
 facet normal -0.861142 0.498386 0.100223
  outer loop
   vertex 123.379 190.665 138.886
   vertex 123.837 191.518 138.577
   vertex 123.269 190.602 138.251
  endloop
 endfacet
 facet normal -0.726105 0.54267 0.422233
  outer loop
   vertex 123.379 190.665 138.886
   vertex 123.579 190.483 139.463
   vertex 123.837 191.518 138.577
  endloop
 endfacet
 facet normal -0.920628 0.359787 0.151649
  outer loop
   vertex 123.579 190.483 139.463
   vertex 124.004 191.512 139.607
   vertex 123.837 191.518 138.577
  endloop
 endfacet
 facet normal 0.75377 -0.466032 -0.463299
  outer loop
   vertex 124.755 190.4 138.566
   vertex 125.388 191.454 138.535
   vertex 125.395 190.362 139.646
  endloop
 endfacet
 facet normal 0.846939 -0.376234 -0.375689
  outer loop
   vertex 125.395 190.362 139.646
   vertex 125.388 191.454 138.535
   vertex 125.597 190.887 139.574
  endloop
 endfacet
 facet normal 0.982131 0.147103 -0.117389
  outer loop
   vertex 125.597 190.887 139.574
   vertex 125.388 191.454 138.535
   vertex 125.491 191.573 139.55
  endloop
 endfacet
 facet normal -0.504688 0.798913 0.327152
  outer loop
   vertex 124.39 192.153 139.393
   vertex 124.494 192.549 138.584
   vertex 124.206 192.323 138.693
  endloop
 endfacet
 facet normal -0.753106 0.565659 0.335948
  outer loop
   vertex 124.39 192.153 139.393
   vertex 124.206 192.323 138.693
   vertex 124.004 191.512 139.607
  endloop
 endfacet
 facet normal -0.906875 0.393941 0.149628
  outer loop
   vertex 124.004 191.512 139.607
   vertex 124.206 192.323 138.693
   vertex 123.837 191.518 138.577
  endloop
 endfacet
 facet normal 0.1998 0.938747 0.280774
  outer loop
   vertex 124.494 192.549 138.584
   vertex 125.071 192.154 139.494
   vertex 125.206 192.441 138.44
  endloop
 endfacet
 facet normal -0.0659831 0.899301 0.432324
  outer loop
   vertex 124.39 192.153 139.393
   vertex 125.071 192.154 139.494
   vertex 124.494 192.549 138.584
  endloop
 endfacet
 facet normal 0.77114 0.582567 0.256824
  outer loop
   vertex 125.206 192.441 138.44
   vertex 125.071 192.154 139.494
   vertex 125.491 191.573 139.55
  endloop
 endfacet
 facet normal 0.978353 0.168909 -0.119564
  outer loop
   vertex 125.206 192.441 138.44
   vertex 125.491 191.573 139.55
   vertex 125.388 191.454 138.535
  endloop
 endfacet
 facet normal -0.220544 -0.754229 -0.618465
  outer loop
   vertex 124.595 188.816 140.392
   vertex 124.522 188.435 140.883
   vertex 124.174 188.861 140.487
  endloop
 endfacet
 facet normal 0.203573 -0.610618 -0.765313
  outer loop
   vertex 124.595 188.816 140.392
   vertex 125.35 188.821 140.588
   vertex 125.153 188.557 140.747
  endloop
 endfacet
 facet normal 0.0214633 -0.791249 -0.611117
  outer loop
   vertex 124.522 188.435 140.883
   vertex 124.595 188.816 140.392
   vertex 125.153 188.557 140.747
  endloop
 endfacet
 facet normal 0.518316 -0.688904 -0.506715
  outer loop
   vertex 125.153 188.557 140.747
   vertex 125.35 188.821 140.588
   vertex 125.471 188.715 140.857
  endloop
 endfacet
 facet normal -0.200728 -0.851134 -0.485056
  outer loop
   vertex 124.258 189.372 139.556
   vertex 124.595 188.816 140.392
   vertex 124.174 188.861 140.487
  endloop
 endfacet
 facet normal -0.340752 -0.810975 -0.475614
  outer loop
   vertex 124.258 189.372 139.556
   vertex 124.174 188.861 140.487
   vertex 123.747 189.583 139.561
  endloop
 endfacet
 facet normal -0.910519 -0.39897 0.108527
  outer loop
   vertex 123.747 189.583 139.561
   vertex 124.174 188.861 140.487
   vertex 123.864 189.591 140.565
  endloop
 endfacet
 facet normal 0.468031 -0.636933 -0.612587
  outer loop
   vertex 124.628 189.651 139.549
   vertex 124.595 188.816 140.392
   vertex 124.258 189.372 139.556
  endloop
 endfacet
 facet normal 0.507141 -0.622161 -0.596426
  outer loop
   vertex 124.628 189.651 139.549
   vertex 125.263 189.467 140.28
   vertex 124.595 188.816 140.392
  endloop
 endfacet
 facet normal 0.234376 -0.392701 -0.8893
  outer loop
   vertex 125.263 189.467 140.28
   vertex 125.35 188.821 140.588
   vertex 124.595 188.816 140.392
  endloop
 endfacet
 facet normal 0.71163 -0.481832 -0.511293
  outer loop
   vertex 125.882 189.516 140.675
   vertex 125.471 188.715 140.857
   vertex 125.35 188.821 140.588
  endloop
 endfacet
 facet normal 0.528223 -0.306572 -0.79183
  outer loop
   vertex 125.263 189.467 140.28
   vertex 125.882 189.516 140.675
   vertex 125.35 188.821 140.588
  endloop
 endfacet
 facet normal -0.978605 -0.170794 0.114725
  outer loop
   vertex 123.747 189.583 139.561
   vertex 123.864 189.591 140.565
   vertex 123.579 190.483 139.463
  endloop
 endfacet
 facet normal -0.87991 0.231727 0.414803
  outer loop
   vertex 123.864 189.591 140.565
   vertex 124.115 190.456 140.615
   vertex 123.579 190.483 139.463
  endloop
 endfacet
 facet normal 0.570209 -0.529737 -0.627886
  outer loop
   vertex 124.628 189.651 139.549
   vertex 125.395 190.362 139.646
   vertex 125.263 189.467 140.28
  endloop
 endfacet
 facet normal 0.831916 -0.375055 -0.408962
  outer loop
   vertex 125.395 190.362 139.646
   vertex 125.597 190.887 139.574
   vertex 125.911 190.592 140.483
  endloop
 endfacet
 facet normal 0.859571 -0.11165 -0.49867
  outer loop
   vertex 125.395 190.362 139.646
   vertex 125.911 190.592 140.483
   vertex 125.882 189.516 140.675
  endloop
 endfacet
 facet normal 0.477683 -0.554154 -0.681713
  outer loop
   vertex 125.395 190.362 139.646
   vertex 125.882 189.516 140.675
   vertex 125.263 189.467 140.28
  endloop
 endfacet
 facet normal -0.615537 0.533378 0.580192
  outer loop
   vertex 124.396 191.049 140.447
   vertex 124.502 191.673 139.986
   vertex 124.004 191.512 139.607
  endloop
 endfacet
 facet normal -0.665794 0.477852 0.573041
  outer loop
   vertex 124.396 191.049 140.447
   vertex 124.004 191.512 139.607
   vertex 124.115 190.456 140.615
  endloop
 endfacet
 facet normal -0.862302 0.299722 0.40817
  outer loop
   vertex 124.115 190.456 140.615
   vertex 124.004 191.512 139.607
   vertex 123.579 190.483 139.463
  endloop
 endfacet
 facet normal -0.196367 0.604054 0.772372
  outer loop
   vertex 124.396 191.049 140.447
   vertex 125.194 191.303 140.451
   vertex 124.502 191.673 139.986
  endloop
 endfacet
 facet normal 0.634391 0.657606 0.406329
  outer loop
   vertex 125.911 190.592 140.483
   vertex 125.491 191.573 139.55
   vertex 125.194 191.303 140.451
  endloop
 endfacet
 facet normal 0.949211 0.136246 -0.283612
  outer loop
   vertex 125.911 190.592 140.483
   vertex 125.597 190.887 139.574
   vertex 125.491 191.573 139.55
  endloop
 endfacet
 facet normal -0.610537 0.556046 0.563965
  outer loop
   vertex 124.004 191.512 139.607
   vertex 124.502 191.673 139.986
   vertex 124.39 192.153 139.393
  endloop
 endfacet
 facet normal -0.0961292 0.765413 0.636319
  outer loop
   vertex 125.071 192.154 139.494
   vertex 124.39 192.153 139.393
   vertex 124.502 191.673 139.986
  endloop
 endfacet
 facet normal -0.0509543 0.743326 0.666986
  outer loop
   vertex 125.194 191.303 140.451
   vertex 125.071 192.154 139.494
   vertex 124.502 191.673 139.986
  endloop
 endfacet
 facet normal 0.721378 0.56101 0.406056
  outer loop
   vertex 125.491 191.573 139.55
   vertex 125.071 192.154 139.494
   vertex 125.194 191.303 140.451
  endloop
 endfacet
 facet normal -0.639011 -0.744308 0.19409
  outer loop
   vertex 124.522 188.435 140.883
   vertex 124.57 188.561 141.526
   vertex 124.261 188.775 141.328
  endloop
 endfacet
 facet normal -0.782456 -0.62247 0.0171259
  outer loop
   vertex 124.174 188.861 140.487
   vertex 124.522 188.435 140.883
   vertex 124.261 188.775 141.328
  endloop
 endfacet
 facet normal 0.186547 -0.982354 -0.0134539
  outer loop
   vertex 125.153 188.557 140.747
   vertex 125.185 188.554 141.364
   vertex 124.522 188.435 140.883
  endloop
 endfacet
 facet normal 0.0388102 -0.981085 0.189649
  outer loop
   vertex 124.522 188.435 140.883
   vertex 125.185 188.554 141.364
   vertex 124.57 188.561 141.526
  endloop
 endfacet
 facet normal 0.452452 -0.891392 -0.0265827
  outer loop
   vertex 125.185 188.554 141.364
   vertex 125.153 188.557 140.747
   vertex 125.471 188.715 140.857
  endloop
 endfacet
 facet normal 0.700085 -0.691999 0.176123
  outer loop
   vertex 125.49 188.886 141.454
   vertex 125.185 188.554 141.364
   vertex 125.471 188.715 140.857
  endloop
 endfacet
 facet normal -0.916737 -0.395794 0.0542268
  outer loop
   vertex 124.174 188.861 140.487
   vertex 124.261 188.775 141.328
   vertex 123.864 189.591 140.565
  endloop
 endfacet
 facet normal -0.923707 -0.105428 0.368306
  outer loop
   vertex 124.261 188.775 141.328
   vertex 124.199 189.499 141.38
   vertex 123.864 189.591 140.565
  endloop
 endfacet
 facet normal 0.894287 -0.437008 0.0963074
  outer loop
   vertex 125.471 188.715 140.857
   vertex 125.882 189.516 140.675
   vertex 125.49 188.886 141.454
  endloop
 endfacet
 facet normal 0.927991 -0.162226 0.335433
  outer loop
   vertex 125.49 188.886 141.454
   vertex 125.882 189.516 140.675
   vertex 125.661 189.761 141.403
  endloop
 endfacet
 facet normal -0.57964 0.50269 0.641342
  outer loop
   vertex 124.51 189.753 141.524
   vertex 124.62 190.589 140.968
   vertex 124.115 190.456 140.615
  endloop
 endfacet
 facet normal -0.647008 0.440411 0.62243
  outer loop
   vertex 124.51 189.753 141.524
   vertex 124.115 190.456 140.615
   vertex 124.199 189.499 141.38
  endloop
 endfacet
 facet normal -0.889027 0.235663 0.392547
  outer loop
   vertex 124.199 189.499 141.38
   vertex 124.115 190.456 140.615
   vertex 123.864 189.591 140.565
  endloop
 endfacet
 facet normal -0.1943 0.672677 0.71397
  outer loop
   vertex 124.62 190.589 140.968
   vertex 125.19 190.159 141.529
   vertex 125.384 190.55 141.213
  endloop
 endfacet
 facet normal -0.334764 0.551832 0.763815
  outer loop
   vertex 124.51 189.753 141.524
   vertex 125.19 190.159 141.529
   vertex 124.62 190.589 140.968
  endloop
 endfacet
 facet normal 0.735002 0.392249 0.553094
  outer loop
   vertex 125.911 190.592 140.483
   vertex 125.384 190.55 141.213
   vertex 125.661 189.761 141.403
  endloop
 endfacet
 facet normal 0.959103 0.0248731 0.281962
  outer loop
   vertex 125.911 190.592 140.483
   vertex 125.661 189.761 141.403
   vertex 125.882 189.516 140.675
  endloop
 endfacet
 facet normal 0.516232 0.36838 0.773176
  outer loop
   vertex 125.19 190.159 141.529
   vertex 125.661 189.761 141.403
   vertex 125.384 190.55 141.213
  endloop
 endfacet
 facet normal -0.585457 0.465484 0.66375
  outer loop
   vertex 124.115 190.456 140.615
   vertex 124.62 190.589 140.968
   vertex 124.396 191.049 140.447
  endloop
 endfacet
 facet normal -0.220719 0.681753 0.697492
  outer loop
   vertex 125.194 191.303 140.451
   vertex 124.396 191.049 140.447
   vertex 124.62 190.589 140.968
  endloop
 endfacet
 facet normal -0.194342 0.672549 0.714079
  outer loop
   vertex 125.384 190.55 141.213
   vertex 125.194 191.303 140.451
   vertex 124.62 190.589 140.968
  endloop
 endfacet
 facet normal 0.608646 0.634708 0.476126
  outer loop
   vertex 125.911 190.592 140.483
   vertex 125.194 191.303 140.451
   vertex 125.384 190.55 141.213
  endloop
 endfacet
 facet normal -0.679707 -0.437827 0.588477
  outer loop
   vertex 124.57 188.561 141.526
   vertex 124.518 188.888 141.709
   vertex 124.261 188.775 141.328
  endloop
 endfacet
 facet normal 0.110015 -0.883454 0.455418
  outer loop
   vertex 124.57 188.561 141.526
   vertex 125.185 188.554 141.364
   vertex 125.141 188.712 141.68
  endloop
 endfacet
 facet normal -0.10133 -0.49753 0.861508
  outer loop
   vertex 124.518 188.888 141.709
   vertex 124.57 188.561 141.526
   vertex 125.141 188.712 141.68
  endloop
 endfacet
 facet normal 0.608409 -0.673365 0.420021
  outer loop
   vertex 125.185 188.554 141.364
   vertex 125.49 188.886 141.454
   vertex 125.141 188.712 141.68
  endloop
 endfacet
 facet normal -0.526512 0.17409 0.832153
  outer loop
   vertex 124.518 188.888 141.709
   vertex 124.51 189.753 141.524
   vertex 124.199 189.499 141.38
  endloop
 endfacet
 facet normal -0.808618 -0.1104 0.577883
  outer loop
   vertex 124.261 188.775 141.328
   vertex 124.518 188.888 141.709
   vertex 124.199 189.499 141.38
  endloop
 endfacet
 facet normal 0.0154203 -0.107287 0.994109
  outer loop
   vertex 125.141 188.712 141.68
   vertex 125.208 189.407 141.754
   vertex 124.518 188.888 141.709
  endloop
 endfacet
 facet normal -0.215347 0.203188 0.955165
  outer loop
   vertex 125.208 189.407 141.754
   vertex 124.51 189.753 141.524
   vertex 124.518 188.888 141.709
  endloop
 endfacet
 facet normal 0.649718 -0.0834138 0.755585
  outer loop
   vertex 125.49 188.886 141.454
   vertex 125.661 189.761 141.403
   vertex 125.208 189.407 141.754
  endloop
 endfacet
 facet normal 0.587185 -0.141285 0.797027
  outer loop
   vertex 125.141 188.712 141.68
   vertex 125.49 188.886 141.454
   vertex 125.208 189.407 141.754
  endloop
 endfacet
 facet normal -0.173809 0.279605 0.944252
  outer loop
   vertex 125.208 189.407 141.754
   vertex 125.19 190.159 141.529
   vertex 124.51 189.753 141.524
  endloop
 endfacet
 facet normal 0.451168 0.266345 0.851767
  outer loop
   vertex 125.661 189.761 141.403
   vertex 125.19 190.159 141.529
   vertex 125.208 189.407 141.754
  endloop
 endfacet
endsolid
