ply
format ascii 1.0
element vertex 528
property float x
property float y
property float z
property float nx
property float ny
property float nz
element face 176
property list uint uint vertex_indices
end_header
103.636 85.5976 159.229 -0.294511 -0.211889 -0.931862
103.321 85.0528 159.452 -0.294511 -0.211889 -0.931862
102.85 85.6662 159.461 -0.294511 -0.211889 -0.931862
103.636 85.5976 159.229 0.172744 -0.414269 -0.893611
104.403 85.6475 159.354 0.172744 -0.414269 -0.893611
104.142 85.1938 159.514 0.172744 -0.414269 -0.893611
103.321 85.0528 159.452 0.143047 -0.444795 -0.884135
103.636 85.5976 159.229 0.143047 -0.444795 -0.884135
104.142 85.1938 159.514 0.143047 -0.444795 -0.884135
104.142 85.1938 159.514 0.526836 -0.535851 -0.659779
104.403 85.6475 159.354 0.526836 -0.535851 -0.659779
104.541 85.3255 159.726 0.526836 -0.535851 -0.659779
103.522 86.4039 159.258 -0.284419 -0.00527663 -0.958686
103.636 85.5976 159.229 -0.284419 -0.00527663 -0.958686
102.85 85.6662 159.461 -0.284419 -0.00527663 -0.958686
103.127 86.3711 159.502 -0.522964 0.251855 -0.814296
103.522 86.4039 159.258 -0.522964 0.251855 -0.814296
102.85 85.6662 159.461 -0.522964 0.251855 -0.814296
104.403 85.6475 159.354 0.168246 -0.137712 -0.976078
103.636 85.5976 159.229 0.168246 -0.137712 -0.976078
104.339 86.4243 159.233 0.168246 -0.137712 -0.976078
104.339 86.4243 159.233 -0.0310287 0.0319914 -0.999006
103.636 85.5976 159.229 -0.0310287 0.0319914 -0.999006
103.522 86.4039 159.258 -0.0310287 0.0319914 -0.999006
104.917 86.2583 159.627 0.73196 -0.356539 -0.580616
104.541 85.3255 159.726 0.73196 -0.356539 -0.580616
104.403 85.6475 159.354 0.73196 -0.356539 -0.580616
104.339 86.4243 159.233 0.544215 -0.0848173 -0.834648
104.917 86.2583 159.627 0.544215 -0.0848173 -0.834648
104.403 85.6475 159.354 0.544215 -0.0848173 -0.834648
103.522 86.4039 159.258 -0.508804 0.375519 -0.774664
103.127 86.3711 159.502 -0.508804 0.375519 -0.774664
103.389 86.9333 159.602 -0.508804 0.375519 -0.774664
103.389 86.9333 159.602 -0.357749 0.552959 -0.752497
104.304 87.6126 159.666 -0.357749 0.552959 -0.752497
104.226 87.1529 159.365 -0.357749 0.552959 -0.752497
103.389 86.9333 159.602 -0.349968 0.44698 -0.823244
104.226 87.1529 159.365 -0.349968 0.44698 -0.823244
103.522 86.4039 159.258 -0.349968 0.44698 -0.823244
103.522 86.4039 159.258 -0.0341014 0.172931 -0.984343
104.226 87.1529 159.365 -0.0341014 0.172931 -0.984343
104.339 86.4243 159.233 -0.0341014 0.172931 -0.984343
104.736 87.1765 159.539 0.569097 0.032797 -0.821616
104.917 86.2583 159.627 0.569097 0.032797 -0.821616
104.339 86.4243 159.233 0.569097 0.032797 -0.821616
104.226 87.1529 159.365 0.305265 0.215241 -0.927623
104.736 87.1765 159.539 0.305265 0.215241 -0.927623
104.339 86.4243 159.233 0.305265 0.215241 -0.927623
104.736 87.1765 159.539 0.258286 0.498015 -0.82781
104.226 87.1529 159.365 0.258286 0.498015 -0.82781
104.304 87.6126 159.666 0.258286 0.498015 -0.82781
102.613 84.5146 160.241 -0.551744 -0.773339 -0.312291
102.566 84.3491 160.734 -0.551744 -0.773339 -0.312291
102.312 84.6432 160.454 -0.551744 -0.773339 -0.312291
102.613 84.5146 160.241 -0.0568794 -0.924072 -0.377963
103.389 84.6366 159.826 -0.0568794 -0.924072 -0.377963
103.404 84.3416 160.545 -0.0568794 -0.924072 -0.377963
102.566 84.3491 160.734 -0.0814395 -0.942407 -0.324401
102.613 84.5146 160.241 -0.0814395 -0.942407 -0.324401
103.404 84.3416 160.545 -0.0814395 -0.942407 -0.324401
103.404 84.3416 160.545 0.146453 -0.914031 -0.378283
103.389 84.6366 159.826 0.146453 -0.914031 -0.378283
104.234 84.5872 160.272 0.146453 -0.914031 -0.378283
102.553 85.2227 159.798 -0.636335 -0.447314 -0.62848
102.613 84.5146 160.241 -0.636335 -0.447314 -0.62848
102.312 84.6432 160.454 -0.636335 -0.447314 -0.62848
102.282 85.4199 160.528 -0.9378 -0.0035644 -0.347157
102.553 85.2227 159.798 -0.9378 -0.0035644 -0.347157
102.312 84.6432 160.454 -0.9378 -0.0035644 -0.347157
103.321 85.0528 159.452 -0.447391 -0.330971 -0.830842
102.553 85.2227 159.798 -0.447391 -0.330971 -0.830842
102.85 85.6662 159.461 -0.447391 -0.330971 -0.830842
103.321 85.0528 159.452 -0.428446 -0.641419 -0.636409
103.389 84.6366 159.826 -0.428446 -0.641419 -0.636409
102.553 85.2227 159.798 -0.428446 -0.641419 -0.636409
103.389 84.6366 159.826 -0.33815 -0.519604 -0.784644
102.613 84.5146 160.241 -0.33815 -0.519604 -0.784644
102.553 85.2227 159.798 -0.33815 -0.519604 -0.784644
104.142 85.1938 159.514 0.166915 -0.643894 -0.746686
103.389 84.6366 159.826 0.166915 -0.643894 -0.746686
103.321 85.0528 159.452 0.166915 -0.643894 -0.746686
104.234 84.5872 160.272 0.284553 -0.731608 -0.619499
103.389 84.6366 159.826 0.284553 -0.731608 -0.619499
104.142 85.1938 159.514 0.284553 -0.731608 -0.619499
104.234 84.5872 160.272 0.514437 -0.638162 -0.572803
104.142 85.1938 159.514 0.514437 -0.638162 -0.572803
104.541 85.3255 159.726 0.514437 -0.638162 -0.572803
104.234 84.5872 160.272 0.626169 -0.615158 -0.479055
104.541 85.3255 159.726 0.626169 -0.615158 -0.479055
104.537 84.6735 160.557 0.626169 -0.615158 -0.479055
104.537 84.6735 160.557 0.871015 -0.388727 -0.300372
104.541 85.3255 159.726 0.871015 -0.388727 -0.300372
104.844 85.4359 160.463 0.871015 -0.388727 -0.300372
102.576 86.1844 160.05 -0.919673 0.120131 -0.373858
102.553 85.2227 159.798 -0.919673 0.120131 -0.373858
102.282 85.4199 160.528 -0.919673 0.120131 -0.373858
102.554 86.4828 160.553 -0.950297 0.248088 -0.188119
102.576 86.1844 160.05 -0.950297 0.248088 -0.188119
102.282 85.4199 160.528 -0.950297 0.248088 -0.188119
102.85 85.6662 159.461 -0.720758 0.318274 -0.6158
102.576 86.1844 160.05 -0.720758 0.318274 -0.6158
103.127 86.3711 159.502 -0.720758 0.318274 -0.6158
102.553 85.2227 159.798 -0.834484 0.158313 -0.5278
102.576 86.1844 160.05 -0.834484 0.158313 -0.5278
102.85 85.6662 159.461 -0.834484 0.158313 -0.5278
105.392 86.209 160.407 0.788402 -0.355209 -0.502243
104.917 86.2583 159.627 0.788402 -0.355209 -0.502243
105.411 86.746 160.058 0.788402 -0.355209 -0.502243
105.392 86.209 160.407 0.706852 -0.53398 -0.463925
104.844 85.4359 160.463 0.706852 -0.53398 -0.463925
104.917 86.2583 159.627 0.706852 -0.53398 -0.463925
104.844 85.4359 160.463 0.872671 -0.383897 -0.301777
104.541 85.3255 159.726 0.872671 -0.383897 -0.301777
104.917 86.2583 159.627 0.872671 -0.383897 -0.301777
105.392 86.209 160.407 0.927263 -0.227403 -0.29744
105.411 86.746 160.058 0.927263 -0.227403 -0.29744
105.602 86.5832 160.776 0.927263 -0.227403 -0.29744
103.4 87.4118 160.0 -0.786183 0.559841 -0.261714
102.554 86.4828 160.553 -0.786183 0.559841 -0.261714
103.18 87.4298 160.699 -0.786183 0.559841 -0.261714
103.389 86.9333 159.602 -0.771965 0.416992 -0.479779
102.554 86.4828 160.553 -0.771965 0.416992 -0.479779
103.4 87.4118 160.0 -0.771965 0.416992 -0.479779
103.389 86.9333 159.602 -0.731503 0.572226 -0.370757
102.576 86.1844 160.05 -0.731503 0.572226 -0.370757
102.554 86.4828 160.553 -0.731503 0.572226 -0.370757
103.389 86.9333 159.602 -0.70599 0.429631 -0.563024
103.127 86.3711 159.502 -0.70599 0.429631 -0.563024
102.576 86.1844 160.05 -0.70599 0.429631 -0.563024
103.389 86.9333 159.602 -0.391429 0.593683 -0.703082
103.4 87.4118 160.0 -0.391429 0.593683 -0.703082
104.304 87.6126 159.666 -0.391429 0.593683 -0.703082
105.411 86.746 160.058 0.661588 0.150941 -0.734519
104.736 87.1765 159.539 0.661588 0.150941 -0.734519
105.298 87.6832 160.149 0.661588 0.150941 -0.734519
104.917 86.2583 159.627 0.628586 0.0488924 -0.776202
104.736 87.1765 159.539 0.628586 0.0488924 -0.776202
105.411 86.746 160.058 0.628586 0.0488924 -0.776202
105.601 87.4074 160.507 0.957728 -0.0879888 -0.27389
105.602 86.5832 160.776 0.957728 -0.0879888 -0.27389
105.411 86.746 160.058 0.957728 -0.0879888 -0.27389
105.298 87.6832 160.149 0.809885 0.152626 -0.566385
105.601 87.4074 160.507 0.809885 0.152626 -0.566385
105.411 86.746 160.058 0.809885 0.152626 -0.566385
103.4 87.4118 160.0 -0.858434 0.429047 -0.281087
103.18 87.4298 160.699 -0.858434 0.429047 -0.281087
103.648 88.1459 160.364 -0.858434 0.429047 -0.281087
104.584 88.5188 160.08 -0.419817 0.456757 -0.7843
103.648 88.1459 160.364 -0.419817 0.456757 -0.7843
103.845 88.6351 160.543 -0.419817 0.456757 -0.7843
104.304 87.6126 159.666 -0.424343 0.481281 -0.767008
103.648 88.1459 160.364 -0.424343 0.481281 -0.767008
104.584 88.5188 160.08 -0.424343 0.481281 -0.767008
104.304 87.6126 159.666 -0.395282 0.511638 -0.762875
103.4 87.4118 160.0 -0.395282 0.511638 -0.762875
103.648 88.1459 160.364 -0.395282 0.511638 -0.762875
104.304 87.6126 159.666 0.331905 0.552556 -0.76454
105.298 87.6832 160.149 0.331905 0.552556 -0.76454
104.736 87.1765 159.539 0.331905 0.552556 -0.76454
104.304 87.6126 159.666 0.404231 0.273751 -0.87273
104.584 88.5188 160.08 0.404231 0.273751 -0.87273
105.298 87.6832 160.149 0.404231 0.273751 -0.87273
104.584 88.5188 160.08 0.266778 0.149679 -0.952064
105.428 88.6215 160.333 0.266778 0.149679 -0.952064
105.298 87.6832 160.149 0.266778 0.149679 -0.952064
105.603 88.3209 160.592 0.783571 0.0557585 -0.618795
105.601 87.4074 160.507 0.783571 0.0557585 -0.618795
105.298 87.6832 160.149 0.783571 0.0557585 -0.618795
105.428 88.6215 160.333 0.826828 -0.00409615 -0.562439
105.603 88.3209 160.592 0.826828 -0.00409615 -0.562439
105.298 87.6832 160.149 0.826828 -0.00409615 -0.562439
104.523 89.2695 160.103 -0.532953 -0.0163074 -0.845988
104.584 88.5188 160.08 -0.532953 -0.0163074 -0.845988
103.845 88.6351 160.543 -0.532953 -0.0163074 -0.845988
104.317 89.1933 160.622 -0.734648 0.649357 -0.196539
104.523 89.2695 160.103 -0.734648 0.649357 -0.196539
103.845 88.6351 160.543 -0.734648 0.649357 -0.196539
105.428 88.6215 160.333 0.287252 -0.00436964 -0.957845
104.584 88.5188 160.08 0.287252 -0.00436964 -0.957845
105.268 89.3238 160.281 0.287252 -0.00436964 -0.957845
105.268 89.3238 160.281 0.228719 0.0489871 -0.972259
104.584 88.5188 160.08 0.228719 0.0489871 -0.972259
104.523 89.2695 160.103 0.228719 0.0489871 -0.972259
105.611 89.2202 160.526 0.79933 -0.0513939 -0.59869
105.603 88.3209 160.592 0.79933 -0.0513939 -0.59869
105.428 88.6215 160.333 0.79933 -0.0513939 -0.59869
105.268 89.3238 160.281 0.593559 0.0768783 -0.80111
105.611 89.2202 160.526 0.593559 0.0768783 -0.80111
105.428 88.6215 160.333 0.593559 0.0768783 -0.80111
104.523 89.2695 160.103 -0.394497 0.918638 -0.0218021
104.317 89.1933 160.622 -0.394497 0.918638 -0.0218021
104.83 89.4123 160.566 -0.394497 0.918638 -0.0218021
105.268 89.3238 160.281 0.000885003 0.955414 -0.29527
104.523 89.2695 160.103 0.000885003 0.955414 -0.29527
104.83 89.4123 160.566 0.000885003 0.955414 -0.29527
105.425 89.5417 160.459 -0.271356 0.71919 -0.639634
105.268 89.3238 160.281 -0.271356 0.71919 -0.639634
104.83 89.4123 160.566 -0.271356 0.71919 -0.639634
105.611 89.2202 160.526 0.606974 0.191773 -0.771236
105.268 89.3238 160.281 0.606974 0.191773 -0.771236
105.425 89.5417 160.459 0.606974 0.191773 -0.771236
102.566 84.3491 160.734 -0.705449 -0.708747 0.00429189
102.611 84.3093 161.568 -0.705449 -0.708747 0.00429189
102.306 84.6115 161.261 -0.705449 -0.708747 0.00429189
102.312 84.6432 160.454 -0.740974 -0.670765 -0.0321282
102.566 84.3491 160.734 -0.740974 -0.670765 -0.0321282
102.306 84.6115 161.261 -0.740974 -0.670765 -0.0321282
103.404 84.3416 160.545 -0.0301245 -0.995074 -0.0944463
103.407 84.2556 161.45 -0.0301245 -0.995074 -0.0944463
102.566 84.3491 160.734 -0.0301245 -0.995074 -0.0944463
102.566 84.3491 160.734 -0.073714 -0.996332 -0.0434517
103.407 84.2556 161.45 -0.073714 -0.996332 -0.0434517
102.611 84.3093 161.568 -0.073714 -0.996332 -0.0434517
104.234 84.5872 160.272 0.213789 -0.954181 -0.209364
104.261 84.3829 161.231 0.213789 -0.954181 -0.209364
103.404 84.3416 160.545 0.213789 -0.954181 -0.209364
103.404 84.3416 160.545 0.123167 -0.987901 -0.0942465
104.261 84.3829 161.231 0.123167 -0.987901 -0.0942465
103.407 84.2556 161.45 0.123167 -0.987901 -0.0942465
104.261 84.3829 161.231 0.437366 -0.876945 -0.199195
104.234 84.5872 160.272 0.437366 -0.876945 -0.199195
104.537 84.6735 160.557 0.437366 -0.876945 -0.199195
104.768 84.7458 161.557 0.616108 -0.783004 -0.0855248
104.261 84.3829 161.231 0.616108 -0.783004 -0.0855248
104.537 84.6735 160.557 0.616108 -0.783004 -0.0855248
102.312 84.6432 160.454 -0.999237 -0.0379377 -0.00922909
102.306 84.6115 161.261 -0.999237 -0.0379377 -0.00922909
102.282 85.4199 160.528 -0.999237 -0.0379377 -0.00922909
102.306 84.6115 161.261 -0.999291 -0.0367954 -0.00796845
102.274 85.432 161.439 -0.999291 -0.0367954 -0.00796845
102.282 85.4199 160.528 -0.999291 -0.0367954 -0.00796845
104.768 84.7458 161.557 0.72811 -0.601776 -0.328211
104.844 85.4359 160.463 0.72811 -0.601776 -0.328211
105.406 85.6535 161.311 0.72811 -0.601776 -0.328211
104.768 84.7458 161.557 0.904125 -0.387231 -0.180584
104.537 84.6735 160.557 0.904125 -0.387231 -0.180584
104.844 85.4359 160.463 0.904125 -0.387231 -0.180584
102.282 85.4199 160.528 -0.968552 0.248546 -0.0115041
102.274 85.432 161.439 -0.968552 0.248546 -0.0115041
102.554 86.4828 160.553 -0.968552 0.248546 -0.0115041
102.274 85.432 161.439 -0.974573 0.085102 -0.207279
102.318 86.2246 161.556 -0.974573 0.085102 -0.207279
102.554 86.4828 160.553 -0.974573 0.085102 -0.207279
104.844 85.4359 160.463 0.750825 -0.557168 -0.35472
105.392 86.209 160.407 0.750825 -0.557168 -0.35472
105.406 85.6535 161.311 0.750825 -0.557168 -0.35472
105.406 85.6535 161.311 0.926077 -0.314509 -0.208485
105.392 86.209 160.407 0.926077 -0.314509 -0.208485
105.602 86.5832 160.776 0.926077 -0.314509 -0.208485
102.554 86.4828 160.553 -0.906717 0.407601 -0.108288
102.318 86.2246 161.556 -0.906717 0.407601 -0.108288
102.561 86.7141 161.366 -0.906717 0.407601 -0.108288
102.561 86.7141 161.366 -0.813517 0.561126 -0.152735
103.18 87.4298 160.699 -0.813517 0.561126 -0.152735
102.554 86.4828 160.553 -0.813517 0.561126 -0.152735
103.139 87.3668 161.644 -0.751046 0.660151 0.0114291
103.18 87.4298 160.699 -0.751046 0.660151 0.0114291
102.561 86.7141 161.366 -0.751046 0.660151 0.0114291
105.602 86.5832 160.776 0.998727 -0.0142805 -0.0483721
105.601 87.4074 160.507 0.998727 -0.0142805 -0.0483721
105.644 87.5761 161.355 0.998727 -0.0142805 -0.0483721
103.18 87.4298 160.699 -0.855428 0.517916 -0.00257373
103.139 87.3668 161.644 -0.855428 0.517916 -0.00257373
103.552 88.0479 161.366 -0.855428 0.517916 -0.00257373
103.648 88.1459 160.364 -0.842832 0.537463 -0.0277126
103.18 87.4298 160.699 -0.842832 0.537463 -0.0277126
103.552 88.0479 161.366 -0.842832 0.537463 -0.0277126
103.552 88.0479 161.366 -0.919858 0.389111 -0.0495433
103.845 88.6351 160.543 -0.919858 0.389111 -0.0495433
103.648 88.1459 160.364 -0.919858 0.389111 -0.0495433
104.073 88.5431 161.395 -0.673803 0.693483 0.25509
103.845 88.6351 160.543 -0.673803 0.693483 0.25509
103.552 88.0479 161.366 -0.673803 0.693483 0.25509
105.601 87.4074 160.507 0.998663 0.0021984 -0.051645
105.603 88.3209 160.592 0.998663 0.0021984 -0.051645
105.644 87.5761 161.355 0.998663 0.0021984 -0.051645
105.644 87.5761 161.355 0.999242 0.0308814 -0.0236908
105.603 88.3209 160.592 0.999242 0.0308814 -0.0236908
105.608 88.5979 161.18 0.999242 0.0308814 -0.0236908
104.58 88.8011 161.275 -0.268668 0.774406 0.572811
104.83 89.4123 160.566 -0.268668 0.774406 0.572811
104.317 89.1933 160.622 -0.268668 0.774406 0.572811
104.58 88.8011 161.275 -0.260892 0.777843 0.571747
104.317 89.1933 160.622 -0.260892 0.777843 0.571747
104.073 88.5431 161.395 -0.260892 0.777843 0.571747
104.073 88.5431 161.395 -0.75408 0.600284 0.2665
104.317 89.1933 160.622 -0.75408 0.600284 0.2665
103.845 88.6351 160.543 -0.75408 0.600284 0.2665
104.83 89.4123 160.566 -0.0575525 0.727182 0.684028
105.288 88.74 161.32 -0.0575525 0.727182 0.684028
105.464 89.3133 160.725 -0.0575525 0.727182 0.684028
104.58 88.8011 161.275 0.023768 0.752976 0.657619
105.288 88.74 161.32 0.023768 0.752976 0.657619
104.83 89.4123 160.566 0.023768 0.752976 0.657619
105.464 89.3133 160.725 0.526276 0.529057 0.665682
105.288 88.74 161.32 0.526276 0.529057 0.665682
105.608 88.5979 161.18 0.526276 0.529057 0.665682
105.464 89.3133 160.725 0.812843 0.420231 0.403351
105.608 88.5979 161.18 0.812843 0.420231 0.403351
105.611 89.2202 160.526 0.812843 0.420231 0.403351
105.611 89.2202 160.526 0.999945 -0.00939907 -0.00470965
105.608 88.5979 161.18 0.999945 -0.00939907 -0.00470965
105.603 88.3209 160.592 0.999945 -0.00939907 -0.00470965
105.464 89.3133 160.725 -0.046107 0.754112 0.655126
105.425 89.5417 160.459 -0.046107 0.754112 0.655126
104.83 89.4123 160.566 -0.046107 0.754112 0.655126
105.611 89.2202 160.526 0.784444 0.521993 0.33492
105.425 89.5417 160.459 0.784444 0.521993 0.33492
105.464 89.3133 160.725 0.784444 0.521993 0.33492
102.306 84.6115 161.261 -0.760517 -0.636049 0.130595
102.611 84.3093 161.568 -0.760517 -0.636049 0.130595
102.506 84.5751 162.253 -0.760517 -0.636049 0.130595
103.407 84.2556 161.45 -0.0856702 -0.98808 -0.127903
103.394 84.1416 162.34 -0.0856702 -0.98808 -0.127903
102.611 84.3093 161.568 -0.0856702 -0.98808 -0.127903
102.611 84.3093 161.568 -0.443778 -0.856244 0.2644
103.394 84.1416 162.34 -0.443778 -0.856244 0.2644
102.506 84.5751 162.253 -0.443778 -0.856244 0.2644
104.261 84.3829 161.231 0.139367 -0.989718 -0.0321791
104.276 84.3543 162.177 0.139367 -0.989718 -0.0321791
103.407 84.2556 161.45 0.139367 -0.989718 -0.0321791
103.407 84.2556 161.45 0.211597 -0.969813 -0.121203
104.276 84.3543 162.177 0.211597 -0.969813 -0.121203
103.394 84.1416 162.34 0.211597 -0.969813 -0.121203
104.276 84.3543 162.177 0.596407 -0.801969 -0.0338399
104.261 84.3829 161.231 0.596407 -0.801969 -0.0338399
104.768 84.7458 161.557 0.596407 -0.801969 -0.0338399
104.674 84.6763 162.469 0.627156 -0.778877 0.00510797
104.276 84.3543 162.177 0.627156 -0.778877 0.00510797
104.768 84.7458 161.557 0.627156 -0.778877 0.00510797
102.306 84.6115 161.261 -0.977567 -0.0799065 0.194877
102.506 84.5751 162.253 -0.977567 -0.0799065 0.194877
102.274 85.432 161.439 -0.977567 -0.0799065 0.194877
102.506 84.5751 162.253 -0.976503 -0.206614 0.0612628
102.325 85.4478 162.302 -0.976503 -0.206614 0.0612628
102.274 85.432 161.439 -0.976503 -0.206614 0.0612628
105.41 85.4818 161.995 0.663778 -0.713221 0.225199
105.246 85.4639 162.423 0.663778 -0.713221 0.225199
104.768 84.7458 161.557 0.663778 -0.713221 0.225199
105.246 85.4639 162.423 0.809705 -0.585565 0.0386194
104.674 84.6763 162.469 0.809705 -0.585565 0.0386194
104.768 84.7458 161.557 0.809705 -0.585565 0.0386194
104.768 84.7458 161.557 0.787805 -0.596393 -0.153881
105.406 85.6535 161.311 0.787805 -0.596393 -0.153881
105.41 85.4818 161.995 0.787805 -0.596393 -0.153881
102.274 85.432 161.439 -0.997207 0.0472417 0.057842
102.325 85.4478 162.302 -0.997207 0.0472417 0.057842
102.318 86.2246 161.556 -0.997207 0.0472417 0.057842
102.325 85.4478 162.302 -0.962362 0.184056 0.199957
102.509 86.4553 162.26 -0.962362 0.184056 0.199957
102.318 86.2246 161.556 -0.962362 0.184056 0.199957
105.41 85.4818 161.995 0.916072 -0.207228 0.343321
105.58 86.4651 162.133 0.916072 -0.207228 0.343321
105.246 85.4639 162.423 0.916072 -0.207228 0.343321
105.58 86.4651 162.133 0.985334 -0.164198 -0.046421
105.41 85.4818 161.995 0.985334 -0.164198 -0.046421
105.406 85.6535 161.311 0.985334 -0.164198 -0.046421
105.58 86.4651 162.133 0.978323 -0.207069 -0.0026488
105.406 85.6535 161.311 0.978323 -0.207069 -0.0026488
105.602 86.5832 160.776 0.978323 -0.207069 -0.0026488
102.561 86.7141 161.366 -0.879339 0.468693 0.0842053
102.318 86.2246 161.556 -0.879339 0.468693 0.0842053
102.509 86.4553 162.26 -0.879339 0.468693 0.0842053
102.509 86.4553 162.26 -0.769733 0.623813 0.135529
103.139 87.3668 161.644 -0.769733 0.623813 0.135529
102.561 86.7141 161.366 -0.769733 0.623813 0.135529
103.14 87.2533 162.395 -0.788224 0.608239 0.0935362
103.139 87.3668 161.644 -0.788224 0.608239 0.0935362
102.509 86.4553 162.26 -0.788224 0.608239 0.0935362
105.463 87.5665 162.15 0.660992 0.429209 0.615523
105.149 87.6384 162.436 0.660992 0.429209 0.615523
105.39 87.1672 162.506 0.660992 0.429209 0.615523
105.463 87.5665 162.15 0.948486 0.0967293 0.301692
105.39 87.1672 162.506 0.948486 0.0967293 0.301692
105.58 86.4651 162.133 0.948486 0.0967293 0.301692
105.463 87.5665 162.15 0.969815 0.100184 0.222312
105.58 86.4651 162.133 0.969815 0.100184 0.222312
105.644 87.5761 161.355 0.969815 0.100184 0.222312
105.644 87.5761 161.355 0.998726 -0.0491663 0.0114015
105.58 86.4651 162.133 0.998726 -0.0491663 0.0114015
105.602 86.5832 160.776 0.998726 -0.0491663 0.0114015
103.139 87.3668 161.644 -0.774806 0.624865 0.0960209
103.14 87.2533 162.395 -0.774806 0.624865 0.0960209
103.489 87.708 162.251 -0.774806 0.624865 0.0960209
103.552 88.0479 161.366 -0.814759 0.558254 0.156592
103.139 87.3668 161.644 -0.814759 0.558254 0.156592
103.489 87.708 162.251 -0.814759 0.558254 0.156592
104.073 88.5431 161.395 -0.175528 0.824987 0.537202
104.271 87.9984 162.296 -0.175528 0.824987 0.537202
104.782 88.3435 161.933 -0.175528 0.824987 0.537202
104.073 88.5431 161.395 -0.609934 0.611804 0.503663
103.552 88.0479 161.366 -0.609934 0.611804 0.503663
104.271 87.9984 162.296 -0.609934 0.611804 0.503663
103.552 88.0479 161.366 -0.346689 0.883563 0.314838
103.489 87.708 162.251 -0.346689 0.883563 0.314838
104.271 87.9984 162.296 -0.346689 0.883563 0.314838
105.149 87.6384 162.436 0.130653 0.620201 0.773486
104.782 88.3435 161.933 0.130653 0.620201 0.773486
104.271 87.9984 162.296 0.130653 0.620201 0.773486
105.149 87.6384 162.436 0.58848 0.650048 0.480759
105.463 87.5665 162.15 0.58848 0.650048 0.480759
104.782 88.3435 161.933 0.58848 0.650048 0.480759
105.463 87.5665 162.15 0.363823 0.532105 0.764524
105.464 88.2986 161.64 0.363823 0.532105 0.764524
104.782 88.3435 161.933 0.363823 0.532105 0.764524
105.644 87.5761 161.355 0.930775 0.0933556 0.353472
105.608 88.5979 161.18 0.930775 0.0933556 0.353472
105.464 88.2986 161.64 0.930775 0.0933556 0.353472
105.463 87.5665 162.15 0.963034 0.153432 0.221413
105.644 87.5761 161.355 0.963034 0.153432 0.221413
105.464 88.2986 161.64 0.963034 0.153432 0.221413
104.073 88.5431 161.395 -0.244084 0.759365 0.603149
104.782 88.3435 161.933 -0.244084 0.759365 0.603149
104.58 88.8011 161.275 -0.244084 0.759365 0.603149
105.288 88.74 161.32 0.0359298 0.825476 0.563292
104.58 88.8011 161.275 0.0359298 0.825476 0.563292
104.782 88.3435 161.933 0.0359298 0.825476 0.563292
105.464 88.2986 161.64 0.339596 0.636873 0.692147
105.288 88.74 161.32 0.339596 0.636873 0.692147
104.782 88.3435 161.933 0.339596 0.636873 0.692147
105.608 88.5979 161.18 0.528806 0.625862 0.57329
105.288 88.74 161.32 0.528806 0.625862 0.57329
105.464 88.2986 161.64 0.528806 0.625862 0.57329
102.506 84.5751 162.253 -0.407338 -0.723381 0.557491
103.394 84.1416 162.34 -0.407338 -0.723381 0.557491
103.321 84.672 162.975 -0.407338 -0.723381 0.557491
102.516 84.7675 162.613 -0.303363 -0.837079 0.455268
102.506 84.5751 162.253 -0.303363 -0.837079 0.455268
103.321 84.672 162.975 -0.303363 -0.837079 0.455268
103.394 84.1416 162.34 0.273374 -0.920338 0.279723
104.276 84.3543 162.177 0.273374 -0.920338 0.279723
104.213 84.5015 162.724 0.273374 -0.920338 0.279723
103.321 84.672 162.975 0.0345195 -0.765109 0.642974
103.394 84.1416 162.34 0.0345195 -0.765109 0.642974
104.213 84.5015 162.724 0.0345195 -0.765109 0.642974
104.276 84.3543 162.177 0.471935 -0.835957 0.280095
104.674 84.6763 162.469 0.471935 -0.835957 0.280095
104.213 84.5015 162.724 0.471935 -0.835957 0.280095
102.516 84.7675 162.613 -0.853658 -0.00129484 0.520832
102.65 85.5533 162.835 -0.853658 -0.00129484 0.520832
102.325 85.4478 162.302 -0.853658 -0.00129484 0.520832
102.506 84.5751 162.253 -0.968324 -0.209118 0.136449
102.516 84.7675 162.613 -0.968324 -0.209118 0.136449
102.325 85.4478 162.302 -0.968324 -0.209118 0.136449
103.429 85.4503 163.254 -0.483774 -0.235159 0.843009
102.65 85.5533 162.835 -0.483774 -0.235159 0.843009
103.321 84.672 162.975 -0.483774 -0.235159 0.843009
102.65 85.5533 162.835 -0.420263 -0.17938 0.889495
102.516 84.7675 162.613 -0.420263 -0.17938 0.889495
103.321 84.672 162.975 -0.420263 -0.17938 0.889495
103.429 85.4503 163.254 0.152684 -0.352105 0.923423
103.321 84.672 162.975 0.152684 -0.352105 0.923423
104.379 85.4459 163.095 0.152684 -0.352105 0.923423
103.321 84.672 162.975 0.180387 -0.386999 0.904264
104.213 84.5015 162.724 0.180387 -0.386999 0.904264
104.379 85.4459 163.095 0.180387 -0.386999 0.904264
104.674 84.6763 162.469 0.573498 -0.373705 0.729003
105.246 85.4639 162.423 0.573498 -0.373705 0.729003
104.379 85.4459 163.095 0.573498 -0.373705 0.729003
104.213 84.5015 162.724 0.554477 -0.387195 0.736638
104.674 84.6763 162.469 0.554477 -0.387195 0.736638
104.379 85.4459 163.095 0.554477 -0.387195 0.736638
102.65 85.5533 162.835 -0.864494 0.167132 0.474043
102.757 86.56 162.676 -0.864494 0.167132 0.474043
102.509 86.4553 162.26 -0.864494 0.167132 0.474043
102.325 85.4478 162.302 -0.855508 0.176628 0.486732
102.65 85.5533 162.835 -0.855508 0.176628 0.486732
102.509 86.4553 162.26 -0.855508 0.176628 0.486732
103.429 85.4503 163.254 -0.442296 0.202994 0.873595
103.55 86.3549 163.105 -0.442296 0.202994 0.873595
102.65 85.5533 162.835 -0.442296 0.202994 0.873595
103.55 86.3549 163.105 -0.429632 0.185337 0.883779
102.757 86.56 162.676 -0.429632 0.185337 0.883779
102.65 85.5533 162.835 -0.429632 0.185337 0.883779
103.429 85.4503 163.254 0.163814 0.138731 0.976688
104.379 85.4459 163.095 0.163814 0.138731 0.976688
103.55 86.3549 163.105 0.163814 0.138731 0.976688
104.379 85.4459 163.095 -0.0290799 -0.0374182 0.998876
104.47 86.4193 163.134 -0.0290799 -0.0374182 0.998876
103.55 86.3549 163.105 -0.0290799 -0.0374182 0.998876
105.246 85.4639 162.423 0.845374 -0.133313 0.517272
105.58 86.4651 162.133 0.845374 -0.133313 0.517272
105.213 86.4131 162.721 0.845374 -0.133313 0.517272
105.246 85.4639 162.423 0.600842 -0.220577 0.768332
105.213 86.4131 162.721 0.600842 -0.220577 0.768332
104.379 85.4459 163.095 0.600842 -0.220577 0.768332
104.379 85.4459 163.095 0.484212 -0.0802375 0.871264
105.213 86.4131 162.721 0.484212 -0.0802375 0.871264
104.47 86.4193 163.134 0.484212 -0.0802375 0.871264
103.14 87.2533 162.395 -0.768551 0.554319 0.319467
102.509 86.4553 162.26 -0.768551 0.554319 0.319467
102.757 86.56 162.676 -0.768551 0.554319 0.319467
103.14 87.2533 162.395 -0.576883 0.559906 0.594737
102.757 86.56 162.676 -0.576883 0.559906 0.594737
103.529 87.3333 162.697 -0.576883 0.559906 0.594737
103.529 87.3333 162.697 -0.373679 0.349988 0.858995
102.757 86.56 162.676 -0.373679 0.349988 0.858995
103.55 86.3549 163.105 -0.373679 0.349988 0.858995
104.47 86.4193 163.134 -0.0542792 0.352008 0.934422
104.538 87.2344 162.831 -0.0542792 0.352008 0.934422
103.55 86.3549 163.105 -0.0542792 0.352008 0.934422
104.538 87.2344 162.831 -0.0847486 0.381838 0.920336
103.529 87.3333 162.697 -0.0847486 0.381838 0.920336
103.55 86.3549 163.105 -0.0847486 0.381838 0.920336
105.39 87.1672 162.506 0.359567 0.313968 0.878713
105.149 87.6384 162.436 0.359567 0.313968 0.878713
104.538 87.2344 162.831 0.359567 0.313968 0.878713
105.39 87.1672 162.506 0.362587 0.175151 0.915343
104.538 87.2344 162.831 0.362587 0.175151 0.915343
105.213 86.4131 162.721 0.362587 0.175151 0.915343
105.213 86.4131 162.721 0.469529 0.273188 0.839589
104.538 87.2344 162.831 0.469529 0.273188 0.839589
104.47 86.4193 163.134 0.469529 0.273188 0.839589
105.58 86.4651 162.133 0.8486 -0.0497898 0.526687
105.39 87.1672 162.506 0.8486 -0.0497898 0.526687
105.213 86.4131 162.721 0.8486 -0.0497898 0.526687
103.14 87.2533 162.395 -0.560891 0.608651 0.5612
103.529 87.3333 162.697 -0.560891 0.608651 0.5612
103.489 87.708 162.251 -0.560891 0.608651 0.5612
104.271 87.9984 162.296 -0.302838 0.71635 0.628595
103.489 87.708 162.251 -0.302838 0.71635 0.628595
103.529 87.3333 162.697 -0.302838 0.71635 0.628595
104.538 87.2344 162.831 -0.054928 0.559518 0.826996
104.271 87.9984 162.296 -0.054928 0.559518 0.826996
103.529 87.3333 162.697 -0.054928 0.559518 0.826996
105.149 87.6384 162.436 0.117807 0.596729 0.793748
104.271 87.9984 162.296 0.117807 0.596729 0.793748
104.538 87.2344 162.831 0.117807 0.596729 0.793748
3 0 1 2
3 3 4 5
3 6 7 8
3 9 10 11
3 12 13 14
3 15 16 17
3 18 19 20
3 21 22 23
3 24 25 26
3 27 28 29
3 30 31 32
3 33 34 35
3 36 37 38
3 39 40 41
3 42 43 44
3 45 46 47
3 48 49 50
3 51 52 53
3 54 55 56
3 57 58 59
3 60 61 62
3 63 64 65
3 66 67 68
3 69 70 71
3 72 73 74
3 75 76 77
3 78 79 80
3 81 82 83
3 84 85 86
3 87 88 89
3 90 91 92
3 93 94 95
3 96 97 98
3 99 100 101
3 102 103 104
3 105 106 107
3 108 109 110
3 111 112 113
3 114 115 116
3 117 118 119
3 120 121 122
3 123 124 125
3 126 127 128
3 129 130 131
3 132 133 134
3 135 136 137
3 138 139 140
3 141 142 143
3 144 145 146
3 147 148 149
3 150 151 152
3 153 154 155
3 156 157 158
3 159 160 161
3 162 163 164
3 165 166 167
3 168 169 170
3 171 172 173
3 174 175 176
3 177 178 179
3 180 181 182
3 183 184 185
3 186 187 188
3 189 190 191
3 192 193 194
3 195 196 197
3 198 199 200
3 201 202 203
3 204 205 206
3 207 208 209
3 210 211 212
3 213 214 215
3 216 217 218
3 219 220 221
3 222 223 224
3 225 226 227
3 228 229 230
3 231 232 233
3 234 235 236
3 237 238 239
3 240 241 242
3 243 244 245
3 246 247 248
3 249 250 251
3 252 253 254
3 255 256 257
3 258 259 260
3 261 262 263
3 264 265 266
3 267 268 269
3 270 271 272
3 273 274 275
3 276 277 278
3 279 280 281
3 282 283 284
3 285 286 287
3 288 289 290
3 291 292 293
3 294 295 296
3 297 298 299
3 300 301 302
3 303 304 305
3 306 307 308
3 309 310 311
3 312 313 314
3 315 316 317
3 318 319 320
3 321 322 323
3 324 325 326
3 327 328 329
3 330 331 332
3 333 334 335
3 336 337 338
3 339 340 341
3 342 343 344
3 345 346 347
3 348 349 350
3 351 352 353
3 354 355 356
3 357 358 359
3 360 361 362
3 363 364 365
3 366 367 368
3 369 370 371
3 372 373 374
3 375 376 377
3 378 379 380
3 381 382 383
3 384 385 386
3 387 388 389
3 390 391 392
3 393 394 395
3 396 397 398
3 399 400 401
3 402 403 404
3 405 406 407
3 408 409 410
3 411 412 413
3 414 415 416
3 417 418 419
3 420 421 422
3 423 424 425
3 426 427 428
3 429 430 431
3 432 433 434
3 435 436 437
3 438 439 440
3 441 442 443
3 444 445 446
3 447 448 449
3 450 451 452
3 453 454 455
3 456 457 458
3 459 460 461
3 462 463 464
3 465 466 467
3 468 469 470
3 471 472 473
3 474 475 476
3 477 478 479
3 480 481 482
3 483 484 485
3 486 487 488
3 489 490 491
3 492 493 494
3 495 496 497
3 498 499 500
3 501 502 503
3 504 505 506
3 507 508 509
3 510 511 512
3 513 514 515
3 516 517 518
3 519 520 521
3 522 523 524
3 525 526 527
