ply
format ascii 1.0
element vertex 462
property float x
property float y
property float z
property float nx
property float ny
property float nz
element face 154
property list uint uint vertex_indices
end_header
67.1316 100.816 166.983 -0.580191 0.107061 -0.807414
67.0321 100.913 167.067 -0.580191 0.107061 -0.807414
67.0986 101.205 167.058 -0.580191 0.107061 -0.807414
67.3056 100.906 166.998 -0.00967265 0.189227 -0.981886
67.1316 100.816 166.983 -0.00967265 0.189227 -0.981886
67.0986 101.205 167.058 -0.00967265 0.189227 -0.981886
67.4169 100.237 167.55 -0.34528 -0.695055 -0.630619
67.3111 99.8485 168.036 -0.34528 -0.695055 -0.630619
67.0659 100.324 167.646 -0.34528 -0.695055 -0.630619
67.4169 100.237 167.55 0.239206 -0.373926 -0.89608
68.3949 100.141 167.851 0.239206 -0.373926 -0.89608
68.0643 99.6052 167.986 0.239206 -0.373926 -0.89608
67.3111 99.8485 168.036 -0.274713 -0.721085 -0.636057
67.4169 100.237 167.55 -0.274713 -0.721085 -0.636057
68.0643 99.6052 167.986 -0.274713 -0.721085 -0.636057
67.1316 100.816 166.983 -0.342496 -0.737754 -0.581735
67.4169 100.237 167.55 -0.342496 -0.737754 -0.581735
67.0659 100.324 167.646 -0.342496 -0.737754 -0.581735
67.1316 100.816 166.983 -0.790895 -0.451222 -0.413381
67.0659 100.324 167.646 -0.790895 -0.451222 -0.413381
67.0321 100.913 167.067 -0.790895 -0.451222 -0.413381
67.0321 100.913 167.067 -0.908153 -0.318652 -0.271512
67.0659 100.324 167.646 -0.908153 -0.318652 -0.271512
66.7353 101.116 167.822 -0.908153 -0.318652 -0.271512
67.3056 100.906 166.998 0.355416 -0.558433 -0.749554
67.4169 100.237 167.55 0.355416 -0.558433 -0.749554
67.1316 100.816 166.983 0.355416 -0.558433 -0.749554
67.3056 100.906 166.998 0.547941 -0.475764 -0.688047
68.0414 101.142 167.421 0.547941 -0.475764 -0.688047
67.4169 100.237 167.55 0.547941 -0.475764 -0.688047
68.0414 101.142 167.421 0.252808 -0.304767 -0.918262
68.3949 100.141 167.851 0.252808 -0.304767 -0.918262
67.4169 100.237 167.55 0.252808 -0.304767 -0.918262
69.1157 101.044 167.748 0.251406 -0.305345 -0.918455
68.3949 100.141 167.851 0.251406 -0.305345 -0.918455
68.0414 101.142 167.421 0.251406 -0.305345 -0.918455
66.3607 101.867 167.622 -0.678771 -0.669703 -0.301276
66.1891 101.924 167.882 -0.678771 -0.669703 -0.301276
66.1064 102.059 167.768 -0.678771 -0.669703 -0.301276
67.0986 101.205 167.058 -0.181403 0.512515 -0.839298
66.3607 101.867 167.622 -0.181403 0.512515 -0.839298
67.2064 102.004 167.523 -0.181403 0.512515 -0.839298
67.0986 101.205 167.058 -0.762398 -0.492326 -0.419959
66.7353 101.116 167.822 -0.762398 -0.492326 -0.419959
66.3607 101.867 167.622 -0.762398 -0.492326 -0.419959
67.0986 101.205 167.058 -0.894845 0.191319 -0.403299
67.0321 100.913 167.067 -0.894845 0.191319 -0.403299
66.7353 101.116 167.822 -0.894845 0.191319 -0.403299
66.1891 101.924 167.882 -0.772195 -0.492332 -0.401651
66.3607 101.867 167.622 -0.772195 -0.492332 -0.401651
66.7353 101.116 167.822 -0.772195 -0.492332 -0.401651
67.0986 101.205 167.058 0.351776 0.411255 -0.840906
68.0414 101.142 167.421 0.351776 0.411255 -0.840906
67.3056 100.906 166.998 0.351776 0.411255 -0.840906
67.0986 101.205 167.058 0.349115 0.435416 -0.829778
67.2064 102.004 167.523 0.349115 0.435416 -0.829778
68.0414 101.142 167.421 0.349115 0.435416 -0.829778
67.2064 102.004 167.523 -0.0344488 0.0836378 -0.995901
68.1381 102.055 167.495 -0.0344488 0.0836378 -0.995901
68.0414 101.142 167.421 -0.0344488 0.0836378 -0.995901
69.1157 101.044 167.748 0.268444 -0.198878 -0.942542
68.0414 101.142 167.421 0.268444 -0.198878 -0.942542
68.9571 102.087 167.483 0.268444 -0.198878 -0.942542
68.9571 102.087 167.483 -0.0176701 0.0819068 -0.996483
68.0414 101.142 167.421 -0.0176701 0.0819068 -0.996483
68.1381 102.055 167.495 -0.0176701 0.0819068 -0.996483
69.6116 101.801 167.936 0.603478 -0.204398 -0.770737
69.4995 101.02 168.055 0.603478 -0.204398 -0.770737
69.1157 101.044 167.748 0.603478 -0.204398 -0.770737
68.9571 102.087 167.483 0.523385 -0.134407 -0.841429
69.6116 101.801 167.936 0.523385 -0.134407 -0.841429
69.1157 101.044 167.748 0.523385 -0.134407 -0.841429
66.3607 101.867 167.622 -0.216728 0.395267 -0.892633
66.1064 102.059 167.768 -0.216728 0.395267 -0.892633
66.3315 102.112 167.737 -0.216728 0.395267 -0.892633
67.2064 102.004 167.523 -0.170725 0.403673 -0.898833
66.3607 101.867 167.622 -0.170725 0.403673 -0.898833
66.3315 102.112 167.737 -0.170725 0.403673 -0.898833
66.9838 102.438 167.924 -0.106031 0.645588 -0.756289
67.2064 102.004 167.523 -0.106031 0.645588 -0.756289
66.3315 102.112 167.737 -0.106031 0.645588 -0.756289
66.9838 102.438 167.924 -0.301487 0.559745 -0.771875
67.9916 102.801 167.794 -0.301487 0.559745 -0.771875
67.2064 102.004 167.523 -0.301487 0.559745 -0.771875
67.2064 102.004 167.523 -0.0476044 0.363639 -0.930323
67.9916 102.801 167.794 -0.0476044 0.363639 -0.930323
68.1381 102.055 167.495 -0.0476044 0.363639 -0.930323
68.762 102.899 167.841 0.542695 0.444383 -0.712745
69.293 102.548 168.026 0.542695 0.444383 -0.712745
68.9571 102.087 167.483 0.542695 0.444383 -0.712745
68.762 102.899 167.841 0.00417882 0.404042 -0.914731
68.9571 102.087 167.483 0.00417882 0.404042 -0.914731
67.9916 102.801 167.794 0.00417882 0.404042 -0.914731
67.9916 102.801 167.794 -0.0278781 0.367259 -0.929701
68.9571 102.087 167.483 -0.0278781 0.367259 -0.929701
68.1381 102.055 167.495 -0.0278781 0.367259 -0.929701
69.6116 101.801 167.936 0.631708 0.353015 -0.690163
68.9571 102.087 167.483 0.631708 0.353015 -0.690163
69.293 102.548 168.026 0.631708 0.353015 -0.690163
68.762 102.899 167.841 -0.0498052 0.722158 -0.689933
67.9916 102.801 167.794 -0.0498052 0.722158 -0.689933
68.2461 103.118 168.107 -0.0498052 0.722158 -0.689933
67.3111 99.8485 168.036 -0.799177 -0.536417 -0.271244
67.1792 99.6173 168.882 -0.799177 -0.536417 -0.271244
66.9085 100.186 168.555 -0.799177 -0.536417 -0.271244
67.0659 100.324 167.646 -0.779211 -0.585386 -0.223949
67.3111 99.8485 168.036 -0.779211 -0.585386 -0.223949
66.9085 100.186 168.555 -0.779211 -0.585386 -0.223949
68.0643 99.6052 167.986 -0.305276 -0.863341 -0.401807
67.9725 99.2537 168.811 -0.305276 -0.863341 -0.401807
67.3111 99.8485 168.036 -0.305276 -0.863341 -0.401807
67.3111 99.8485 168.036 -0.419324 -0.85696 -0.299644
67.9725 99.2537 168.811 -0.419324 -0.85696 -0.299644
67.1792 99.6173 168.882 -0.419324 -0.85696 -0.299644
68.3949 100.141 167.851 0.616187 -0.420566 -0.665911
69.3175 100.094 168.735 0.616187 -0.420566 -0.665911
68.8342 99.4873 168.67 0.616187 -0.420566 -0.665911
68.3949 100.141 167.851 0.530981 -0.500359 -0.683886
68.8342 99.4873 168.67 0.530981 -0.500359 -0.683886
68.0643 99.6052 167.986 0.530981 -0.500359 -0.683886
68.0643 99.6052 167.986 0.186881 -0.911097 -0.367393
68.8342 99.4873 168.67 0.186881 -0.911097 -0.367393
67.9725 99.2537 168.811 0.186881 -0.911097 -0.367393
67.0659 100.324 167.646 -0.917979 -0.336393 -0.210128
66.9085 100.186 168.555 -0.917979 -0.336393 -0.210128
66.7353 101.116 167.822 -0.917979 -0.336393 -0.210128
66.9085 100.186 168.555 -0.836362 -0.426717 -0.344108
66.4126 100.922 168.848 -0.836362 -0.426717 -0.344108
66.7353 101.116 167.822 -0.836362 -0.426717 -0.344108
68.3949 100.141 167.851 0.572793 -0.528698 -0.626408
69.1157 101.044 167.748 0.572793 -0.528698 -0.626408
69.3175 100.094 168.735 0.572793 -0.528698 -0.626408
69.3175 100.094 168.735 0.488362 -0.576456 -0.655134
69.1157 101.044 167.748 0.488362 -0.576456 -0.655134
69.4995 101.02 168.055 0.488362 -0.576456 -0.655134
69.3175 100.094 168.735 0.819217 -0.435 -0.37371
69.4995 101.02 168.055 0.819217 -0.435 -0.37371
69.8353 101.034 168.775 0.819217 -0.435 -0.37371
66.1891 101.924 167.882 -0.868619 -0.130531 0.477978
66.2523 102.179 168.066 -0.868619 -0.130531 0.477978
66.1064 102.059 167.768 -0.868619 -0.130531 0.477978
66.1891 101.924 167.882 -0.976419 0.105419 0.188397
66.3431 101.864 168.713 -0.976419 0.105419 0.188397
66.2523 102.179 168.066 -0.976419 0.105419 0.188397
66.1891 101.924 167.882 -0.8194 -0.562304 0.111343
66.7353 101.116 167.822 -0.8194 -0.562304 0.111343
66.3431 101.864 168.713 -0.8194 -0.562304 0.111343
66.7353 101.116 167.822 -0.941158 -0.114726 -0.3179
66.4126 100.922 168.848 -0.941158 -0.114726 -0.3179
66.3431 101.864 168.713 -0.941158 -0.114726 -0.3179
69.4995 101.02 168.055 0.891048 -0.190922 -0.411805
69.6116 101.801 167.936 0.891048 -0.190922 -0.411805
69.8353 101.034 168.775 0.891048 -0.190922 -0.411805
69.8353 101.034 168.775 0.974762 0.0449085 -0.218685
69.6116 101.801 167.936 0.974762 0.0449085 -0.218685
69.7961 101.975 168.794 0.974762 0.0449085 -0.218685
66.1064 102.059 167.768 -0.254623 0.933562 -0.252247
66.2523 102.179 168.066 -0.254623 0.933562 -0.252247
66.3315 102.112 167.737 -0.254623 0.933562 -0.252247
66.2523 102.179 168.066 -0.367512 0.889815 -0.27049
66.9838 102.438 167.924 -0.367512 0.889815 -0.27049
66.3315 102.112 167.737 -0.367512 0.889815 -0.27049
66.2523 102.179 168.066 -0.37396 0.835025 -0.403592
66.7845 102.782 168.82 -0.37396 0.835025 -0.403592
66.9838 102.438 167.924 -0.37396 0.835025 -0.403592
66.2523 102.179 168.066 -0.870641 0.383017 0.308679
66.3431 101.864 168.713 -0.870641 0.383017 0.308679
66.7845 102.782 168.82 -0.870641 0.383017 0.308679
66.7845 102.782 168.82 -0.620028 0.676431 -0.397501
67.2172 102.946 168.425 -0.620028 0.676431 -0.397501
66.9838 102.438 167.924 -0.620028 0.676431 -0.397501
66.9838 102.438 167.924 -0.34062 0.73456 -0.586856
67.2172 102.946 168.425 -0.34062 0.73456 -0.586856
67.9916 102.801 167.794 -0.34062 0.73456 -0.586856
69.293 102.548 168.026 0.662028 0.73569 -0.143105
68.878 103.03 168.586 0.662028 0.73569 -0.143105
69.2708 102.748 168.951 0.662028 0.73569 -0.143105
68.762 102.899 167.841 0.59106 0.773607 -0.228431
68.878 103.03 168.586 0.59106 0.773607 -0.228431
69.293 102.548 168.026 0.59106 0.773607 -0.228431
69.7961 101.975 168.794 0.873424 0.405078 -0.270264
69.6116 101.801 167.936 0.873424 0.405078 -0.270264
69.293 102.548 168.026 0.873424 0.405078 -0.270264
69.2708 102.748 168.951 0.812405 0.573659 -0.104472
69.7961 101.975 168.794 0.812405 0.573659 -0.104472
69.293 102.548 168.026 0.812405 0.573659 -0.104472
67.2172 102.946 168.425 -0.447274 0.886148 -0.121194
66.7845 102.782 168.82 -0.447274 0.886148 -0.121194
67.46 103.109 168.721 -0.447274 0.886148 -0.121194
67.9916 102.801 167.794 -0.143067 0.911803 -0.384899
67.2172 102.946 168.425 -0.143067 0.911803 -0.384899
67.46 103.109 168.721 -0.143067 0.911803 -0.384899
67.9916 102.801 167.794 -0.385395 0.786614 -0.482399
67.46 103.109 168.721 -0.385395 0.786614 -0.482399
68.2461 103.118 168.107 -0.385395 0.786614 -0.482399
68.2461 103.118 168.107 -0.0546591 0.996979 -0.0551847
67.46 103.109 168.721 -0.0546591 0.996979 -0.0551847
68.2086 103.157 168.85 -0.0546591 0.996979 -0.0551847
68.878 103.03 168.586 0.28841 0.934281 -0.209617
68.762 102.899 167.841 0.28841 0.934281 -0.209617
68.2461 103.118 168.107 0.28841 0.934281 -0.209617
68.2086 103.157 168.85 0.16938 0.984603 -0.0432052
68.878 103.03 168.586 0.16938 0.984603 -0.0432052
68.2461 103.118 168.107 0.16938 0.984603 -0.0432052
68.4202 99.0686 169.2 -0.0958373 -0.979396 -0.177762
68.2816 98.9939 169.686 -0.0958373 -0.979396 -0.177762
67.8606 99.0534 169.585 -0.0958373 -0.979396 -0.177762
68.4202 99.0686 169.2 0.220777 -0.975296 -0.00745191
69.1184 99.2253 169.384 0.220777 -0.975296 -0.00745191
68.8941 99.1708 169.869 0.220777 -0.975296 -0.00745191
68.2816 98.9939 169.686 0.294215 -0.953679 -0.0627174
68.4202 99.0686 169.2 0.294215 -0.953679 -0.0627174
68.8941 99.1708 169.869 0.294215 -0.953679 -0.0627174
68.8941 99.1708 169.869 0.565771 -0.806685 0.170772
69.1184 99.2253 169.384 0.565771 -0.806685 0.170772
69.3175 99.4588 169.827 0.565771 -0.806685 0.170772
67.1792 99.6173 168.882 -0.724316 -0.689294 0.0154756
67.3727 99.4352 169.829 -0.724316 -0.689294 0.0154756
66.7172 100.118 169.551 -0.724316 -0.689294 0.0154756
66.9085 100.186 168.555 -0.837033 -0.510982 -0.195633
67.1792 99.6173 168.882 -0.837033 -0.510982 -0.195633
66.7172 100.118 169.551 -0.837033 -0.510982 -0.195633
67.8606 99.0534 169.585 -0.159368 -0.949909 -0.26884
67.9725 99.2537 168.811 -0.159368 -0.949909 -0.26884
68.4202 99.0686 169.2 -0.159368 -0.949909 -0.26884
67.8606 99.0534 169.585 -0.674044 -0.685641 -0.274885
67.3727 99.4352 169.829 -0.674044 -0.685641 -0.274885
67.9725 99.2537 168.811 -0.674044 -0.685641 -0.274885
67.3727 99.4352 169.829 -0.421443 -0.902637 -0.0873615
67.1792 99.6173 168.882 -0.421443 -0.902637 -0.0873615
67.9725 99.2537 168.811 -0.421443 -0.902637 -0.0873615
68.8342 99.4873 168.67 0.134151 -0.825614 -0.548055
68.4202 99.0686 169.2 0.134151 -0.825614 -0.548055
67.9725 99.2537 168.811 0.134151 -0.825614 -0.548055
69.1184 99.2253 169.384 0.304483 -0.848458 -0.432908
68.4202 99.0686 169.2 0.304483 -0.848458 -0.432908
68.8342 99.4873 168.67 0.304483 -0.848458 -0.432908
69.1184 99.2253 169.384 0.712385 -0.517613 -0.473903
68.8342 99.4873 168.67 0.712385 -0.517613 -0.473903
69.3175 100.094 168.735 0.712385 -0.517613 -0.473903
69.1184 99.2253 169.384 0.905384 -0.3671 -0.213348
69.3175 100.094 168.735 0.905384 -0.3671 -0.213348
69.3175 99.4588 169.827 0.905384 -0.3671 -0.213348
69.3175 99.4588 169.827 0.810886 -0.505968 -0.294043
69.3175 100.094 168.735 0.810886 -0.505968 -0.294043
69.7099 100.201 169.631 0.810886 -0.505968 -0.294043
66.9085 100.186 168.555 -0.847555 -0.493018 -0.196429
66.7172 100.118 169.551 -0.847555 -0.493018 -0.196429
66.4126 100.922 168.848 -0.847555 -0.493018 -0.196429
66.7172 100.118 169.551 -0.955595 -0.278959 0.0949739
66.4697 101.031 169.743 -0.955595 -0.278959 0.0949739
66.4126 100.922 168.848 -0.955595 -0.278959 0.0949739
69.3175 100.094 168.735 0.83766 -0.447787 -0.312752
69.8353 101.034 168.775 0.83766 -0.447787 -0.312752
69.7099 100.201 169.631 0.83766 -0.447787 -0.312752
69.7099 100.201 169.631 0.988384 -0.151949 -0.00296579
69.8353 101.034 168.775 0.988384 -0.151949 -0.00296579
69.8436 101.069 169.732 0.988384 -0.151949 -0.00296579
66.4126 100.922 168.848 -0.995451 -0.063264 0.0712364
66.4697 101.031 169.743 -0.995451 -0.063264 0.0712364
66.3431 101.864 168.713 -0.995451 -0.063264 0.0712364
66.4697 101.031 169.743 -0.947831 0.180563 0.262704
66.6776 102.004 169.824 -0.947831 0.180563 0.262704
66.3431 101.864 168.713 -0.947831 0.180563 0.262704
69.8353 101.034 168.775 0.999075 0.0417621 -0.010248
69.7961 101.975 168.794 0.999075 0.0417621 -0.010248
69.8436 101.069 169.732 0.999075 0.0417621 -0.010248
69.8436 101.069 169.732 0.955786 0.234206 0.177821
69.7961 101.975 168.794 0.955786 0.234206 0.177821
69.6153 102.006 169.725 0.955786 0.234206 0.177821
67.1021 102.786 169.717 -0.673122 0.701217 0.23495
67.282 103.057 169.425 -0.673122 0.701217 0.23495
66.7845 102.782 168.82 -0.673122 0.701217 0.23495
67.1021 102.786 169.717 -0.82402 0.48709 0.28937
66.7845 102.782 168.82 -0.82402 0.48709 0.28937
66.6776 102.004 169.824 -0.82402 0.48709 0.28937
66.6776 102.004 169.824 -0.889261 0.40263 0.217037
66.7845 102.782 168.82 -0.889261 0.40263 0.217037
66.3431 101.864 168.713 -0.889261 0.40263 0.217037
67.1021 102.786 169.717 -0.330751 0.785364 0.523266
67.6681 102.951 169.828 -0.330751 0.785364 0.523266
67.282 103.057 169.425 -0.330751 0.785364 0.523266
69.2708 102.748 168.951 0.485102 0.842922 0.232722
68.535 103.029 169.466 0.485102 0.842922 0.232722
69.094 102.634 169.733 0.485102 0.842922 0.232722
68.878 103.03 168.586 0.458649 0.870168 0.180136
68.535 103.029 169.466 0.458649 0.870168 0.180136
69.2708 102.748 168.951 0.458649 0.870168 0.180136
69.6153 102.006 169.725 0.831631 0.536411 0.143708
69.7961 101.975 168.794 0.831631 0.536411 0.143708
69.2708 102.748 168.951 0.831631 0.536411 0.143708
69.094 102.634 169.733 0.744689 0.615482 0.25811
69.6153 102.006 169.725 0.744689 0.615482 0.25811
69.2708 102.748 168.951 0.744689 0.615482 0.25811
66.7845 102.782 168.82 -0.440987 0.896397 -0.0447601
67.282 103.057 169.425 -0.440987 0.896397 -0.0447601
67.46 103.109 168.721 -0.440987 0.896397 -0.0447601
67.282 103.057 169.425 -0.131028 0.920681 0.367667
67.6681 102.951 169.828 -0.131028 0.920681 0.367667
67.9882 103.111 169.541 -0.131028 0.920681 0.367667
67.282 103.057 169.425 -0.0849492 0.994998 0.0525639
67.9882 103.111 169.541 -0.0849492 0.994998 0.0525639
67.46 103.109 168.721 -0.0849492 0.994998 0.0525639
67.46 103.109 168.721 -0.0717984 0.996444 0.0440911
67.9882 103.111 169.541 -0.0717984 0.996444 0.0440911
68.2086 103.157 168.85 -0.0717984 0.996444 0.0440911
68.535 103.029 169.466 0.218232 0.972043 0.0866397
68.878 103.03 168.586 0.218232 0.972043 0.0866397
68.2086 103.157 168.85 0.218232 0.972043 0.0866397
67.9882 103.111 169.541 0.162519 0.979657 0.117731
68.535 103.029 169.466 0.162519 0.979657 0.117731
68.2086 103.157 168.85 0.162519 0.979657 0.117731
68.2816 98.9939 169.686 -0.222988 -0.886655 0.405117
68.1396 99.1284 169.903 -0.222988 -0.886655 0.405117
67.8606 99.0534 169.585 -0.222988 -0.886655 0.405117
68.1396 99.1284 169.903 0.0711517 -0.825338 0.560138
68.2816 98.9939 169.686 0.0711517 -0.825338 0.560138
68.8941 99.1708 169.869 0.0711517 -0.825338 0.560138
67.3727 99.4352 169.829 -0.628788 -0.669176 0.396015
67.4056 99.9199 170.701 -0.628788 -0.669176 0.396015
66.993 100.171 170.47 -0.628788 -0.669176 0.396015
66.7172 100.118 169.551 -0.747212 -0.611699 0.259805
67.3727 99.4352 169.829 -0.747212 -0.611699 0.259805
66.993 100.171 170.47 -0.747212 -0.611699 0.259805
68.1396 99.1284 169.903 -0.36205 -0.784667 0.503207
67.3727 99.4352 169.829 -0.36205 -0.784667 0.503207
67.8606 99.0534 169.585 -0.36205 -0.784667 0.503207
68.1396 99.1284 169.903 -0.338676 -0.694868 0.634395
68.1885 99.6868 170.54 -0.338676 -0.694868 0.634395
67.3727 99.4352 169.829 -0.338676 -0.694868 0.634395
68.1885 99.6868 170.54 -0.157012 -0.860515 0.484625
67.4056 99.9199 170.701 -0.157012 -0.860515 0.484625
67.3727 99.4352 169.829 -0.157012 -0.860515 0.484625
68.8941 99.1708 169.869 0.0712425 -0.753144 0.653986
68.1885 99.6868 170.54 0.0712425 -0.753144 0.653986
68.1396 99.1284 169.903 0.0712425 -0.753144 0.653986
69.0326 99.9342 170.641 0.128074 -0.716592 0.685633
68.1885 99.6868 170.54 0.128074 -0.716592 0.685633
68.8941 99.1708 169.869 0.128074 -0.716592 0.685633
69.0326 99.9342 170.641 0.503459 -0.657816 0.560185
68.8941 99.1708 169.869 0.503459 -0.657816 0.560185
69.3175 99.4588 169.827 0.503459 -0.657816 0.560185
69.0326 99.9342 170.641 0.673198 -0.511412 0.534099
69.3175 99.4588 169.827 0.673198 -0.511412 0.534099
69.4241 100.265 170.465 0.673198 -0.511412 0.534099
69.4241 100.265 170.465 0.868558 -0.372923 0.326399
69.3175 99.4588 169.827 0.868558 -0.372923 0.326399
69.7099 100.201 169.631 0.868558 -0.372923 0.326399
66.7172 100.118 169.551 -0.906578 -0.306702 0.289913
66.993 100.171 170.47 -0.906578 -0.306702 0.289913
66.4697 101.031 169.743 -0.906578 -0.306702 0.289913
66.993 100.171 170.47 -0.884955 -0.173154 0.432287
66.8874 101.036 170.6 -0.884955 -0.173154 0.432287
66.4697 101.031 169.743 -0.884955 -0.173154 0.432287
69.7099 100.201 169.631 0.925946 -0.18118 0.331357
69.8436 101.069 169.732 0.925946 -0.18118 0.331357
69.4241 100.265 170.465 0.925946 -0.18118 0.331357
69.4241 100.265 170.465 0.880493 -0.0281707 0.473222
69.8436 101.069 169.732 0.880493 -0.0281707 0.473222
69.4484 101.177 170.474 0.880493 -0.0281707 0.473222
67.1748 101.684 170.648 -0.651734 0.486023 0.582257
67.3441 102.29 170.332 -0.651734 0.486023 0.582257
66.6776 102.004 169.824 -0.651734 0.486023 0.582257
67.1748 101.684 170.648 -0.762728 0.295697 0.57516
66.6776 102.004 169.824 -0.762728 0.295697 0.57516
66.8874 101.036 170.6 -0.762728 0.295697 0.57516
66.8874 101.036 170.6 -0.888585 0.153842 0.432146
66.6776 102.004 169.824 -0.888585 0.153842 0.432146
66.4697 101.031 169.743 -0.888585 0.153842 0.432146
67.1748 101.684 170.648 -0.137189 0.488367 0.861787
68.0986 101.842 170.706 -0.137189 0.488367 0.861787
67.3441 102.29 170.332 -0.137189 0.488367 0.861787
68.0986 101.842 170.706 0.285306 0.401561 0.870258
68.9837 100.951 170.826 0.285306 0.401561 0.870258
69.088 101.995 170.311 0.285306 0.401561 0.870258
69.088 101.995 170.311 0.446746 0.360095 0.818993
68.9837 100.951 170.826 0.446746 0.360095 0.818993
69.4484 101.177 170.474 0.446746 0.360095 0.818993
69.088 101.995 170.311 0.671064 0.41783 0.612446
69.4484 101.177 170.474 0.671064 0.41783 0.612446
69.6153 102.006 169.725 0.671064 0.41783 0.612446
69.6153 102.006 169.725 0.874316 0.216297 0.434496
69.4484 101.177 170.474 0.874316 0.216297 0.434496
69.8436 101.069 169.732 0.874316 0.216297 0.434496
66.6776 102.004 169.824 -0.655787 0.440011 0.61346
67.3441 102.29 170.332 -0.655787 0.440011 0.61346
67.1021 102.786 169.717 -0.655787 0.440011 0.61346
67.6681 102.951 169.828 -0.325308 0.669048 0.668244
67.1021 102.786 169.717 -0.325308 0.669048 0.668244
67.3441 102.29 170.332 -0.325308 0.669048 0.668244
67.6681 102.951 169.828 -0.025194 0.613876 0.789
67.3441 102.29 170.332 -0.025194 0.613876 0.789
68.252 102.784 169.976 -0.025194 0.613876 0.789
68.252 102.784 169.976 -0.0258166 0.6146 0.788416
67.3441 102.29 170.332 -0.0258166 0.6146 0.788416
68.0986 101.842 170.706 -0.0258166 0.6146 0.788416
69.094 102.634 169.733 0.296717 0.785873 0.542552
68.535 103.029 169.466 0.296717 0.785873 0.542552
68.252 102.784 169.976 0.296717 0.785873 0.542552
69.094 102.634 169.733 0.316628 0.634336 0.705241
68.252 102.784 169.976 0.316628 0.634336 0.705241
69.088 101.995 170.311 0.316628 0.634336 0.705241
69.088 101.995 170.311 0.225835 0.57312 0.787738
68.252 102.784 169.976 0.225835 0.57312 0.787738
68.0986 101.842 170.706 0.225835 0.57312 0.787738
69.6153 102.006 169.725 0.631119 0.516787 0.578463
69.094 102.634 169.733 0.631119 0.516787 0.578463
69.088 101.995 170.311 0.631119 0.516787 0.578463
67.6681 102.951 169.828 0.0921928 0.82236 0.561449
68.252 102.784 169.976 0.0921928 0.82236 0.561449
67.9882 103.111 169.541 0.0921928 0.82236 0.561449
68.535 103.029 169.466 0.194663 0.837423 0.510715
67.9882 103.111 169.541 0.194663 0.837423 0.510715
68.252 102.784 169.976 0.194663 0.837423 0.510715
67.4056 99.9199 170.701 -0.620408 -0.39953 0.674885
67.3233 100.342 170.875 -0.620408 -0.39953 0.674885
66.993 100.171 170.47 -0.620408 -0.39953 0.674885
67.4056 99.9199 170.701 -0.0640068 -0.702287 0.709011
68.1885 99.6868 170.54 -0.0640068 -0.702287 0.709011
68.1872 100.187 171.036 -0.0640068 -0.702287 0.709011
67.3233 100.342 170.875 -0.237614 -0.40988 0.880646
67.4056 99.9199 170.701 -0.237614 -0.40988 0.880646
68.1872 100.187 171.036 -0.237614 -0.40988 0.880646
68.1872 100.187 171.036 0.120358 -0.698376 0.705539
68.1885 99.6868 170.54 0.120358 -0.698376 0.705539
69.0326 99.9342 170.641 0.120358 -0.698376 0.705539
67.3233 100.342 170.875 -0.577811 -0.0402964 0.815175
67.3502 101.122 170.933 -0.577811 -0.0402964 0.815175
66.8874 101.036 170.6 -0.577811 -0.0402964 0.815175
66.993 100.171 170.47 -0.720458 -0.188487 0.667393
67.3233 100.342 170.875 -0.720458 -0.188487 0.667393
66.8874 101.036 170.6 -0.720458 -0.188487 0.667393
68.1872 100.187 171.036 -0.196994 -0.0837729 0.976819
68.0649 100.933 171.075 -0.196994 -0.0837729 0.976819
67.3233 100.342 170.875 -0.196994 -0.0837729 0.976819
68.0649 100.933 171.075 -0.211742 -0.0647178 0.97518
67.3502 101.122 170.933 -0.211742 -0.0647178 0.97518
67.3233 100.342 170.875 -0.211742 -0.0647178 0.97518
69.0326 99.9342 170.641 0.381643 -0.147758 0.912423
68.9837 100.951 170.826 0.381643 -0.147758 0.912423
68.1872 100.187 171.036 0.381643 -0.147758 0.912423
68.9837 100.951 170.826 0.261424 -0.00800227 0.965191
68.0649 100.933 171.075 0.261424 -0.00800227 0.965191
68.1872 100.187 171.036 0.261424 -0.00800227 0.965191
69.4241 100.265 170.465 0.611711 -0.0240794 0.790715
69.4484 101.177 170.474 0.611711 -0.0240794 0.790715
68.9837 100.951 170.826 0.611711 -0.0240794 0.790715
69.0326 99.9342 170.641 0.497932 -0.132096 0.857097
69.4241 100.265 170.465 0.497932 -0.132096 0.857097
68.9837 100.951 170.826 0.497932 -0.132096 0.857097
66.8874 101.036 170.6 -0.59587 0.206808 0.775996
67.3502 101.122 170.933 -0.59587 0.206808 0.775996
67.1748 101.684 170.648 -0.59587 0.206808 0.775996
68.0986 101.842 170.706 -0.127247 0.416153 0.900347
67.1748 101.684 170.648 -0.127247 0.416153 0.900347
67.3502 101.122 170.933 -0.127247 0.416153 0.900347
68.0649 100.933 171.075 -0.0840666 0.378041 0.921964
68.0986 101.842 170.706 -0.0840666 0.378041 0.921964
67.3502 101.122 170.933 -0.0840666 0.378041 0.921964
68.9837 100.951 170.826 0.23738 0.358342 0.902908
68.0986 101.842 170.706 0.23738 0.358342 0.902908
68.0649 100.933 171.075 0.23738 0.358342 0.902908
3 0 1 2
3 3 4 5
3 6 7 8
3 9 10 11
3 12 13 14
3 15 16 17
3 18 19 20
3 21 22 23
3 24 25 26
3 27 28 29
3 30 31 32
3 33 34 35
3 36 37 38
3 39 40 41
3 42 43 44
3 45 46 47
3 48 49 50
3 51 52 53
3 54 55 56
3 57 58 59
3 60 61 62
3 63 64 65
3 66 67 68
3 69 70 71
3 72 73 74
3 75 76 77
3 78 79 80
3 81 82 83
3 84 85 86
3 87 88 89
3 90 91 92
3 93 94 95
3 96 97 98
3 99 100 101
3 102 103 104
3 105 106 107
3 108 109 110
3 111 112 113
3 114 115 116
3 117 118 119
3 120 121 122
3 123 124 125
3 126 127 128
3 129 130 131
3 132 133 134
3 135 136 137
3 138 139 140
3 141 142 143
3 144 145 146
3 147 148 149
3 150 151 152
3 153 154 155
3 156 157 158
3 159 160 161
3 162 163 164
3 165 166 167
3 168 169 170
3 171 172 173
3 174 175 176
3 177 178 179
3 180 181 182
3 183 184 185
3 186 187 188
3 189 190 191
3 192 193 194
3 195 196 197
3 198 199 200
3 201 202 203
3 204 205 206
3 207 208 209
3 210 211 212
3 213 214 215
3 216 217 218
3 219 220 221
3 222 223 224
3 225 226 227
3 228 229 230
3 231 232 233
3 234 235 236
3 237 238 239
3 240 241 242
3 243 244 245
3 246 247 248
3 249 250 251
3 252 253 254
3 255 256 257
3 258 259 260
3 261 262 263
3 264 265 266
3 267 268 269
3 270 271 272
3 273 274 275
3 276 277 278
3 279 280 281
3 282 283 284
3 285 286 287
3 288 289 290
3 291 292 293
3 294 295 296
3 297 298 299
3 300 301 302
3 303 304 305
3 306 307 308
3 309 310 311
3 312 313 314
3 315 316 317
3 318 319 320
3 321 322 323
3 324 325 326
3 327 328 329
3 330 331 332
3 333 334 335
3 336 337 338
3 339 340 341
3 342 343 344
3 345 346 347
3 348 349 350
3 351 352 353
3 354 355 356
3 357 358 359
3 360 361 362
3 363 364 365
3 366 367 368
3 369 370 371
3 372 373 374
3 375 376 377
3 378 379 380
3 381 382 383
3 384 385 386
3 387 388 389
3 390 391 392
3 393 394 395
3 396 397 398
3 399 400 401
3 402 403 404
3 405 406 407
3 408 409 410
3 411 412 413
3 414 415 416
3 417 418 419
3 420 421 422
3 423 424 425
3 426 427 428
3 429 430 431
3 432 433 434
3 435 436 437
3 438 439 440
3 441 442 443
3 444 445 446
3 447 448 449
3 450 451 452
3 453 454 455
3 456 457 458
3 459 460 461
