ply
format ascii 1.0
element vertex 384
property float x
property float y
property float z
property float nx
property float ny
property float nz
element face 128
property list uint uint vertex_indices
end_header
113.593 118.842 159.245 -0.551592 -0.410975 -0.725842
113.435 118.008 159.837 -0.551592 -0.410975 -0.725842
113.064 118.958 159.582 -0.551592 -0.410975 -0.725842
113.593 118.842 159.245 0.185841 -0.201365 -0.961725
114.251 118.924 159.355 0.185841 -0.201365 -0.961725
114.142 118.34 159.456 0.185841 -0.201365 -0.961725
113.435 118.008 159.837 -0.184508 -0.545618 -0.81747
113.593 118.842 159.245 -0.184508 -0.545618 -0.81747
114.142 118.34 159.456 -0.184508 -0.545618 -0.81747
114.142 118.34 159.456 0.706448 -0.246916 -0.663298
114.251 118.924 159.355 0.706448 -0.246916 -0.663298
114.424 118.62 159.652 0.706448 -0.246916 -0.663298
113.391 119.64 159.333 -0.543212 -0.0448062 -0.838399
113.593 118.842 159.245 -0.543212 -0.0448062 -0.838399
113.064 118.958 159.582 -0.543212 -0.0448062 -0.838399
112.977 119.81 159.649 -0.606184 0.00107377 -0.795323
113.391 119.64 159.333 -0.606184 0.00107377 -0.795323
113.064 118.958 159.582 -0.606184 0.00107377 -0.795323
114.251 118.924 159.355 0.162281 0.0207471 -0.986526
113.593 118.842 159.245 0.162281 0.0207471 -0.986526
114.074 119.69 159.342 0.162281 0.0207471 -0.986526
114.074 119.69 159.342 0.00395902 0.111419 -0.993766
113.593 118.842 159.245 0.00395902 0.111419 -0.993766
113.391 119.64 159.333 0.00395902 0.111419 -0.993766
114.408 119.548 159.611 0.861166 -0.00710961 -0.508275
114.424 118.62 159.652 0.861166 -0.00710961 -0.508275
114.251 118.924 159.355 0.861166 -0.00710961 -0.508275
114.074 119.69 159.342 0.65742 0.139405 -0.740517
114.408 119.548 159.611 0.65742 0.139405 -0.740517
114.251 118.924 159.355 0.65742 0.139405 -0.740517
113.391 119.64 159.333 -0.425225 0.43635 -0.792958
112.977 119.81 159.649 -0.425225 0.43635 -0.792958
113.46 120.338 159.68 -0.425225 0.43635 -0.792958
114.074 119.69 159.342 -0.0216537 0.446847 -0.894348
113.391 119.64 159.333 -0.0216537 0.446847 -0.894348
113.46 120.338 159.68 -0.0216537 0.446847 -0.894348
114.201 120.151 159.577 -0.00942893 0.456105 -0.889876
114.074 119.69 159.342 -0.00942893 0.456105 -0.889876
113.46 120.338 159.68 -0.00942893 0.456105 -0.889876
114.408 119.548 159.611 0.664205 0.187048 -0.723771
114.074 119.69 159.342 0.664205 0.187048 -0.723771
114.201 120.151 159.577 0.664205 0.187048 -0.723771
113.435 118.008 159.837 -0.295894 -0.861843 -0.411915
113.378 117.631 160.666 -0.295894 -0.861843 -0.411915
112.95 117.869 160.477 -0.295894 -0.861843 -0.411915
113.435 118.008 159.837 -0.0981289 -0.899887 -0.42494
114.249 117.931 159.811 -0.0981289 -0.899887 -0.42494
114.125 117.673 160.387 -0.0981289 -0.899887 -0.42494
113.378 117.631 160.666 -0.105471 -0.902593 -0.417376
113.435 118.008 159.837 -0.105471 -0.902593 -0.417376
114.125 117.673 160.387 -0.105471 -0.902593 -0.417376
114.125 117.673 160.387 0.617215 -0.758901 -0.207641
114.249 117.931 159.811 0.617215 -0.758901 -0.207641
114.463 117.929 160.456 0.617215 -0.758901 -0.207641
113.435 118.008 159.837 -0.608281 -0.54265 -0.579245
112.95 117.869 160.477 -0.608281 -0.54265 -0.579245
112.492 118.573 160.298 -0.608281 -0.54265 -0.579245
113.435 118.008 159.837 -0.588295 -0.416533 -0.693116
112.492 118.573 160.298 -0.588295 -0.416533 -0.693116
113.064 118.958 159.582 -0.588295 -0.416533 -0.693116
114.249 117.931 159.811 -0.0863617 -0.66631 -0.740657
113.435 118.008 159.837 -0.0863617 -0.66631 -0.740657
114.142 118.34 159.456 -0.0863617 -0.66631 -0.740657
114.249 117.931 159.811 0.735605 -0.324267 -0.594758
114.142 118.34 159.456 0.735605 -0.324267 -0.594758
114.424 118.62 159.652 0.735605 -0.324267 -0.594758
114.249 117.931 159.811 0.905272 -0.299655 -0.301148
114.424 118.62 159.652 0.905272 -0.299655 -0.301148
114.463 117.929 160.456 0.905272 -0.299655 -0.301148
114.463 117.929 160.456 0.991017 -0.0742662 -0.111222
114.424 118.62 159.652 0.991017 -0.0742662 -0.111222
114.527 118.797 160.446 0.991017 -0.0742662 -0.111222
112.313 119.539 160.197 -0.560778 -0.188079 -0.806321
112.492 118.573 160.298 -0.560778 -0.188079 -0.806321
111.89 118.92 160.635 -0.560778 -0.188079 -0.806321
111.608 119.753 160.594 -0.527891 -0.220401 -0.820216
112.313 119.539 160.197 -0.527891 -0.220401 -0.820216
111.89 118.92 160.635 -0.527891 -0.220401 -0.820216
113.064 118.958 159.582 -0.635847 -0.00377075 -0.771806
112.313 119.539 160.197 -0.635847 -0.00377075 -0.771806
112.977 119.81 159.649 -0.635847 -0.00377075 -0.771806
112.492 118.573 160.298 -0.709761 -0.201976 -0.674867
112.313 119.539 160.197 -0.709761 -0.201976 -0.674867
113.064 118.958 159.582 -0.709761 -0.201976 -0.674867
114.424 118.62 159.652 0.991371 0.0120253 -0.130533
114.408 119.548 159.611 0.991371 0.0120253 -0.130533
114.527 118.797 160.446 0.991371 0.0120253 -0.130533
114.527 118.797 160.446 0.966153 0.244615 0.0819199
114.408 119.548 159.611 0.966153 0.244615 0.0819199
114.231 119.987 160.378 0.966153 0.244615 0.0819199
112.313 119.539 160.197 -0.340406 0.427638 -0.837406
111.608 119.753 160.594 -0.340406 0.427638 -0.837406
112.42 120.27 160.527 -0.340406 0.427638 -0.837406
112.977 119.81 159.649 -0.676201 0.382963 -0.629357
112.313 119.539 160.197 -0.676201 0.382963 -0.629357
112.42 120.27 160.527 -0.676201 0.382963 -0.629357
112.977 119.81 159.649 -0.551585 0.542301 -0.633769
112.42 120.27 160.527 -0.551585 0.542301 -0.633769
113.46 120.338 159.68 -0.551585 0.542301 -0.633769
113.46 120.338 159.68 -0.080015 0.996617 -0.0187556
112.42 120.27 160.527 -0.080015 0.996617 -0.0187556
113.44 120.353 160.583 -0.080015 0.996617 -0.0187556
114.201 120.151 159.577 0.264076 0.946965 0.183086
113.46 120.338 159.68 0.264076 0.946965 0.183086
114.231 119.987 160.378 0.264076 0.946965 0.183086
113.46 120.338 159.68 0.418215 0.908324 -0.00665538
113.44 120.353 160.583 0.418215 0.908324 -0.00665538
114.231 119.987 160.378 0.418215 0.908324 -0.00665538
114.231 119.987 160.378 0.944906 0.325924 0.0304267
114.408 119.548 159.611 0.944906 0.325924 0.0304267
114.201 120.151 159.577 0.944906 0.325924 0.0304267
112.333 117.846 161.393 -0.371926 -0.887401 -0.272378
112.95 117.869 160.477 -0.371926 -0.887401 -0.272378
113.378 117.631 160.666 -0.371926 -0.887401 -0.272378
112.333 117.846 161.393 -0.267503 -0.958224 -0.101241
113.378 117.631 160.666 -0.267503 -0.958224 -0.101241
113.425 117.525 161.55 -0.267503 -0.958224 -0.101241
114.125 117.673 160.387 0.0307077 -0.997271 -0.067146
114.18 117.617 161.239 0.0307077 -0.997271 -0.067146
113.378 117.631 160.666 0.0307077 -0.997271 -0.067146
113.378 117.631 160.666 0.0705924 -0.989916 -0.122813
114.18 117.617 161.239 0.0705924 -0.989916 -0.122813
113.425 117.525 161.55 0.0705924 -0.989916 -0.122813
114.18 117.617 161.239 0.613134 -0.784758 -0.0906785
114.125 117.673 160.387 0.613134 -0.784758 -0.0906785
114.463 117.929 160.456 0.613134 -0.784758 -0.0906785
114.525 117.953 161.412 0.70361 -0.710023 -0.0282875
114.18 117.617 161.239 0.70361 -0.710023 -0.0282875
114.463 117.929 160.456 0.70361 -0.710023 -0.0282875
111.331 118.737 161.238 -0.587347 -0.649113 -0.483401
111.138 118.516 161.769 -0.587347 -0.649113 -0.483401
110.87 118.956 161.505 -0.587347 -0.649113 -0.483401
112.333 117.846 161.393 -0.538865 -0.690244 -0.482895
111.138 118.516 161.769 -0.538865 -0.690244 -0.482895
111.331 118.737 161.238 -0.538865 -0.690244 -0.482895
112.333 117.846 161.393 -0.463974 -0.630225 -0.622531
111.331 118.737 161.238 -0.463974 -0.630225 -0.622531
111.89 118.92 160.635 -0.463974 -0.630225 -0.622531
112.333 117.846 161.393 -0.625447 -0.605118 -0.492593
111.89 118.92 160.635 -0.625447 -0.605118 -0.492593
112.492 118.573 160.298 -0.625447 -0.605118 -0.492593
112.95 117.869 160.477 -0.679614 -0.56181 -0.471693
112.333 117.846 161.393 -0.679614 -0.56181 -0.471693
112.492 118.573 160.298 -0.679614 -0.56181 -0.471693
114.463 117.929 160.456 0.995229 -0.074069 -0.0635111
114.527 118.797 160.446 0.995229 -0.074069 -0.0635111
114.525 117.953 161.412 0.995229 -0.074069 -0.0635111
114.525 117.953 161.412 0.999999 7.76511e-05 0.00134776
114.527 118.797 160.446 0.999999 7.76511e-05 0.00134776
114.525 118.856 161.434 0.999999 7.76511e-05 0.00134776
111.165 119.511 160.98 -0.58969 -0.365726 -0.720077
111.331 118.737 161.238 -0.58969 -0.365726 -0.720077
110.87 118.956 161.505 -0.58969 -0.365726 -0.720077
110.63 119.564 161.639 -0.771525 -0.168422 -0.613501
111.165 119.511 160.98 -0.771525 -0.168422 -0.613501
110.87 118.956 161.505 -0.771525 -0.168422 -0.613501
111.89 118.92 160.635 -0.5655 -0.231728 -0.791525
111.165 119.511 160.98 -0.5655 -0.231728 -0.791525
111.608 119.753 160.594 -0.5655 -0.231728 -0.791525
111.331 118.737 161.238 -0.625034 -0.363523 -0.690785
111.165 119.511 160.98 -0.625034 -0.363523 -0.690785
111.89 118.92 160.635 -0.625034 -0.363523 -0.690785
114.527 118.797 160.446 0.970609 0.24031 -0.0130298
114.231 119.987 160.378 0.970609 0.24031 -0.0130298
114.525 118.856 161.434 0.970609 0.24031 -0.0130298
114.525 118.856 161.434 0.946841 0.313521 0.0720876
114.231 119.987 160.378 0.946841 0.313521 0.0720876
114.195 119.834 161.523 0.946841 0.313521 0.0720876
111.165 119.511 160.98 -0.643117 0.518228 -0.563773
110.63 119.564 161.639 -0.643117 0.518228 -0.563773
111.348 120.071 161.286 -0.643117 0.518228 -0.563773
111.608 119.753 160.594 -0.708229 0.502385 -0.496004
111.165 119.511 160.98 -0.708229 0.502385 -0.496004
111.348 120.071 161.286 -0.708229 0.502385 -0.496004
111.608 119.753 160.594 -0.491356 0.707076 -0.50854
111.348 120.071 161.286 -0.491356 0.707076 -0.50854
112.42 120.27 160.527 -0.491356 0.707076 -0.50854
112.42 120.27 160.527 -0.165696 0.98587 0.0245894
111.348 120.071 161.286 -0.165696 0.98587 0.0245894
112.286 120.221 161.6 -0.165696 0.98587 0.0245894
113.44 120.353 160.583 -0.0882467 0.984889 0.149015
112.42 120.27 160.527 -0.0882467 0.984889 0.149015
113.284 120.206 161.459 -0.0882467 0.984889 0.149015
112.42 120.27 160.527 0.0211314 0.998595 0.048586
112.286 120.221 161.6 0.0211314 0.998595 0.048586
113.284 120.206 161.459 0.0211314 0.998595 0.048586
114.231 119.987 160.378 0.444121 0.886 0.133266
113.44 120.353 160.583 0.444121 0.886 0.133266
114.195 119.834 161.523 0.444121 0.886 0.133266
113.44 120.353 160.583 0.356813 0.908851 0.216043
113.284 120.206 161.459 0.356813 0.908851 0.216043
114.195 119.834 161.523 0.356813 0.908851 0.216043
112.333 117.846 161.393 -0.537324 -0.826954 -0.165621
112.465 117.552 162.433 -0.537324 -0.826954 -0.165621
111.945 117.92 162.284 -0.537324 -0.826954 -0.165621
113.425 117.525 161.55 -0.242715 -0.940499 -0.237806
113.306 117.355 162.343 -0.242715 -0.940499 -0.237806
112.333 117.846 161.393 -0.242715 -0.940499 -0.237806
112.333 117.846 161.393 -0.245631 -0.940493 -0.234815
113.306 117.355 162.343 -0.245631 -0.940493 -0.234815
112.465 117.552 162.433 -0.245631 -0.940493 -0.234815
114.18 117.617 161.239 0.124815 -0.992146 0.0082679
114.199 117.627 162.171 0.124815 -0.992146 0.0082679
113.425 117.525 161.55 0.124815 -0.992146 0.0082679
113.425 117.525 161.55 0.258701 -0.951718 -0.165245
114.199 117.627 162.171 0.258701 -0.951718 -0.165245
113.306 117.355 162.343 0.258701 -0.951718 -0.165245
114.199 117.627 162.171 0.698267 -0.715809 -0.00642229
114.18 117.617 161.239 0.698267 -0.715809 -0.00642229
114.525 117.953 161.412 0.698267 -0.715809 -0.00642229
114.61 118.057 162.309 0.720431 -0.693409 0.0127287
114.199 117.627 162.171 0.720431 -0.693409 0.0127287
114.525 117.953 161.412 0.720431 -0.693409 0.0127287
110.397 118.895 162.17 -0.623271 -0.64946 -0.435587
110.435 118.713 162.386 -0.623271 -0.64946 -0.435587
110.254 118.851 162.44 -0.623271 -0.64946 -0.435587
110.397 118.895 162.17 -0.590981 -0.648863 -0.479289
110.87 118.956 161.505 -0.590981 -0.648863 -0.479289
111.138 118.516 161.769 -0.590981 -0.648863 -0.479289
110.397 118.895 162.17 -0.588244 -0.667284 -0.456838
111.138 118.516 161.769 -0.588244 -0.667284 -0.456838
110.435 118.713 162.386 -0.588244 -0.667284 -0.456838
110.435 118.713 162.386 -0.269242 -0.963072 0.00074656
111.138 118.516 161.769 -0.269242 -0.963072 0.00074656
111.261 118.482 162.412 -0.269242 -0.963072 0.00074656
111.945 117.92 162.284 -0.520068 -0.83956 -0.157063
111.138 118.516 161.769 -0.520068 -0.83956 -0.157063
112.333 117.846 161.393 -0.520068 -0.83956 -0.157063
111.261 118.482 162.412 -0.624364 -0.777168 0.078608
111.138 118.516 161.769 -0.624364 -0.777168 0.078608
111.945 117.92 162.284 -0.624364 -0.777168 0.078608
114.525 117.953 161.412 0.995601 0.00234117 -0.0936691
114.525 118.856 161.434 0.995601 0.00234117 -0.0936691
114.61 118.057 162.309 0.995601 0.00234117 -0.0936691
114.61 118.057 162.309 0.979753 0.185525 0.0752623
114.525 118.856 161.434 0.979753 0.185525 0.0752623
114.438 118.965 162.299 0.979753 0.185525 0.0752623
110.397 118.895 162.17 -0.793161 -0.18422 -0.580482
110.63 119.564 161.639 -0.793161 -0.18422 -0.580482
110.87 118.956 161.505 -0.793161 -0.18422 -0.580482
110.397 118.895 162.17 -0.599946 0.615067 0.511623
110.903 119.232 162.358 -0.599946 0.615067 0.511623
110.63 119.564 161.639 -0.599946 0.615067 0.511623
110.397 118.895 162.17 -0.514121 0.846939 -0.13555
110.254 118.851 162.44 -0.514121 0.846939 -0.13555
110.903 119.232 162.358 -0.514121 0.846939 -0.13555
111.402 119.778 162.032 -0.461108 0.725982 0.510225
110.63 119.564 161.639 -0.461108 0.725982 0.510225
110.903 119.232 162.358 -0.461108 0.725982 0.510225
111.402 119.778 162.032 -0.198376 0.596463 0.777739
111.862 119.391 162.446 -0.198376 0.596463 0.777739
112.525 119.723 162.36 -0.198376 0.596463 0.777739
110.903 119.232 162.358 -0.172832 0.616553 0.768109
111.862 119.391 162.446 -0.172832 0.616553 0.768109
111.402 119.778 162.032 -0.172832 0.616553 0.768109
114.525 118.856 161.434 0.947389 0.315198 0.0557158
114.195 119.834 161.523 0.947389 0.315198 0.0557158
114.438 118.965 162.299 0.947389 0.315198 0.0557158
114.438 118.965 162.299 0.978769 0.162867 -0.12444
114.195 119.834 161.523 0.978769 0.162867 -0.12444
114.327 119.638 162.308 0.978769 0.162867 -0.12444
110.63 119.564 161.639 -0.414596 0.836322 0.358715
111.402 119.778 162.032 -0.414596 0.836322 0.358715
111.348 120.071 161.286 -0.414596 0.836322 0.358715
112.286 120.221 161.6 -0.265802 0.890501 0.369266
111.348 120.071 161.286 -0.265802 0.890501 0.369266
111.402 119.778 162.032 -0.265802 0.890501 0.369266
112.525 119.723 162.36 -0.12745 0.810955 0.571059
112.286 120.221 161.6 -0.12745 0.810955 0.571059
111.402 119.778 162.032 -0.12745 0.810955 0.571059
112.525 119.723 162.36 -0.193692 0.79174 0.579337
113.187 119.977 162.235 -0.193692 0.79174 0.579337
112.286 120.221 161.6 -0.193692 0.79174 0.579337
112.286 120.221 161.6 0.054645 0.955637 0.289434
113.187 119.977 162.235 0.054645 0.955637 0.289434
113.284 120.206 161.459 0.054645 0.955637 0.289434
114.195 119.834 161.523 0.370907 0.923368 0.0990897
113.284 120.206 161.459 0.370907 0.923368 0.0990897
114.01 119.827 162.272 0.370907 0.923368 0.0990897
113.284 120.206 161.459 0.157737 0.941425 0.298056
113.187 119.977 162.235 0.157737 0.941425 0.298056
114.01 119.827 162.272 0.157737 0.941425 0.298056
114.01 119.827 162.272 0.497246 0.857869 0.12964
114.327 119.638 162.308 0.497246 0.857869 0.12964
114.195 119.834 161.523 0.497246 0.857869 0.12964
112.465 117.552 162.433 -0.57788 -0.587069 0.566926
112.222 118.076 162.728 -0.57788 -0.587069 0.566926
111.945 117.92 162.284 -0.57788 -0.587069 0.566926
112.465 117.552 162.433 -0.0979534 -0.728604 0.677895
113.306 117.355 162.343 -0.0979534 -0.728604 0.677895
113.288 117.86 162.883 -0.0979534 -0.728604 0.677895
112.222 118.076 162.728 -0.22895 -0.555768 0.79919
112.465 117.552 162.433 -0.22895 -0.555768 0.79919
113.288 117.86 162.883 -0.22895 -0.555768 0.79919
113.306 117.355 162.343 0.330834 -0.895528 0.297621
114.199 117.627 162.171 0.330834 -0.895528 0.297621
114.132 117.784 162.716 0.330834 -0.895528 0.297621
113.288 117.86 162.883 0.069665 -0.727505 0.682556
113.306 117.355 162.343 0.069665 -0.727505 0.682556
114.132 117.784 162.716 0.069665 -0.727505 0.682556
114.199 117.627 162.171 0.646048 -0.708979 0.282791
114.61 118.057 162.309 0.646048 -0.708979 0.282791
114.132 117.784 162.716 0.646048 -0.708979 0.282791
110.435 118.713 162.386 -0.308279 -0.667931 0.677371
110.402 118.84 162.496 -0.308279 -0.667931 0.677371
110.254 118.851 162.44 -0.308279 -0.667931 0.677371
110.435 118.713 162.386 -0.138045 -0.39287 0.909174
111.261 118.482 162.412 -0.138045 -0.39287 0.909174
111.232 118.782 162.537 -0.138045 -0.39287 0.909174
110.402 118.84 162.496 -0.0828561 -0.664346 0.742819
110.435 118.713 162.386 -0.0828561 -0.664346 0.742819
111.232 118.782 162.537 -0.0828561 -0.664346 0.742819
111.261 118.482 162.412 -0.472214 -0.696966 0.539677
111.945 117.92 162.284 -0.472214 -0.696966 0.539677
112.222 118.076 162.728 -0.472214 -0.696966 0.539677
111.261 118.482 162.412 -0.430798 -0.382779 0.817247
112.222 118.076 162.728 -0.430798 -0.382779 0.817247
111.232 118.782 162.537 -0.430798 -0.382779 0.817247
111.232 118.782 162.537 -0.0947478 0.133835 0.986464
112.222 118.076 162.728 -0.0947478 0.133835 0.986464
112.345 118.943 162.622 -0.0947478 0.133835 0.986464
113.288 117.86 162.883 -0.142277 0.0076772 0.989797
113.281 118.746 162.875 -0.142277 0.0076772 0.989797
112.222 118.076 162.728 -0.142277 0.0076772 0.989797
113.281 118.746 162.875 -0.228348 0.149737 0.961996
112.345 118.943 162.622 -0.228348 0.149737 0.961996
112.222 118.076 162.728 -0.228348 0.149737 0.961996
114.132 117.784 162.716 0.187511 -0.0702748 0.979745
114.175 118.559 162.763 0.187511 -0.0702748 0.979745
113.288 117.86 162.883 0.187511 -0.0702748 0.979745
114.175 118.559 162.763 0.12605 0.00982786 0.991975
113.281 118.746 162.875 0.12605 0.00982786 0.991975
113.288 117.86 162.883 0.12605 0.00982786 0.991975
114.61 118.057 162.309 0.794367 0.155898 0.587091
114.438 118.965 162.299 0.794367 0.155898 0.587091
114.175 118.559 162.763 0.794367 0.155898 0.587091
114.132 117.784 162.716 0.673427 -0.0823912 0.734648
114.61 118.057 162.309 0.673427 -0.0823912 0.734648
114.175 118.559 162.763 0.673427 -0.0823912 0.734648
110.903 119.232 162.358 -0.247132 0.586858 0.771054
110.254 118.851 162.44 -0.247132 0.586858 0.771054
110.402 118.84 162.496 -0.247132 0.586858 0.771054
111.232 118.782 162.537 -0.0218931 0.356319 0.934108
110.903 119.232 162.358 -0.0218931 0.356319 0.934108
110.402 118.84 162.496 -0.0218931 0.356319 0.934108
111.862 119.391 162.446 -0.133593 0.280896 0.950395
110.903 119.232 162.358 -0.133593 0.280896 0.950395
111.232 118.782 162.537 -0.133593 0.280896 0.950395
112.345 118.943 162.622 -0.110665 0.258595 0.959626
111.862 119.391 162.446 -0.110665 0.258595 0.959626
111.232 118.782 162.537 -0.110665 0.258595 0.959626
112.525 119.723 162.36 -0.0420309 0.326405 0.944295
111.862 119.391 162.446 -0.0420309 0.326405 0.944295
112.345 118.943 162.622 -0.0420309 0.326405 0.944295
112.525 119.723 162.36 -0.198966 0.352657 0.914355
112.345 118.943 162.622 -0.198966 0.352657 0.914355
113.301 119.583 162.584 -0.198966 0.352657 0.914355
113.301 119.583 162.584 -0.181659 0.327555 0.927204
112.345 118.943 162.622 -0.181659 0.327555 0.927204
113.281 118.746 162.875 -0.181659 0.327555 0.927204
114.175 118.559 162.763 0.168516 0.232754 0.957825
114.132 119.442 162.556 0.168516 0.232754 0.957825
113.281 118.746 162.875 0.168516 0.232754 0.957825
114.132 119.442 162.556 0.086152 0.325915 0.941465
113.301 119.583 162.584 0.086152 0.325915 0.941465
113.281 118.746 162.875 0.086152 0.325915 0.941465
114.438 118.965 162.299 0.735115 0.11244 0.668554
114.327 119.638 162.308 0.735115 0.11244 0.668554
114.132 119.442 162.556 0.735115 0.11244 0.668554
114.175 118.559 162.763 0.780348 0.178838 0.599228
114.438 118.965 162.299 0.780348 0.178838 0.599228
114.132 119.442 162.556 0.780348 0.178838 0.599228
112.525 119.723 162.36 -0.102074 0.64226 0.75966
113.301 119.583 162.584 -0.102074 0.64226 0.75966
113.187 119.977 162.235 -0.102074 0.64226 0.75966
114.01 119.827 162.272 0.0892725 0.674233 0.733103
113.187 119.977 162.235 0.0892725 0.674233 0.733103
113.301 119.583 162.584 0.0892725 0.674233 0.733103
114.132 119.442 162.556 0.129496 0.614785 0.777991
114.01 119.827 162.272 0.129496 0.614785 0.777991
113.301 119.583 162.584 0.129496 0.614785 0.777991
114.327 119.638 162.308 0.29191 0.625638 0.72344
114.01 119.827 162.272 0.29191 0.625638 0.72344
114.132 119.442 162.556 0.29191 0.625638 0.72344
3 0 1 2
3 3 4 5
3 6 7 8
3 9 10 11
3 12 13 14
3 15 16 17
3 18 19 20
3 21 22 23
3 24 25 26
3 27 28 29
3 30 31 32
3 33 34 35
3 36 37 38
3 39 40 41
3 42 43 44
3 45 46 47
3 48 49 50
3 51 52 53
3 54 55 56
3 57 58 59
3 60 61 62
3 63 64 65
3 66 67 68
3 69 70 71
3 72 73 74
3 75 76 77
3 78 79 80
3 81 82 83
3 84 85 86
3 87 88 89
3 90 91 92
3 93 94 95
3 96 97 98
3 99 100 101
3 102 103 104
3 105 106 107
3 108 109 110
3 111 112 113
3 114 115 116
3 117 118 119
3 120 121 122
3 123 124 125
3 126 127 128
3 129 130 131
3 132 133 134
3 135 136 137
3 138 139 140
3 141 142 143
3 144 145 146
3 147 148 149
3 150 151 152
3 153 154 155
3 156 157 158
3 159 160 161
3 162 163 164
3 165 166 167
3 168 169 170
3 171 172 173
3 174 175 176
3 177 178 179
3 180 181 182
3 183 184 185
3 186 187 188
3 189 190 191
3 192 193 194
3 195 196 197
3 198 199 200
3 201 202 203
3 204 205 206
3 207 208 209
3 210 211 212
3 213 214 215
3 216 217 218
3 219 220 221
3 222 223 224
3 225 226 227
3 228 229 230
3 231 232 233
3 234 235 236
3 237 238 239
3 240 241 242
3 243 244 245
3 246 247 248
3 249 250 251
3 252 253 254
3 255 256 257
3 258 259 260
3 261 262 263
3 264 265 266
3 267 268 269
3 270 271 272
3 273 274 275
3 276 277 278
3 279 280 281
3 282 283 284
3 285 286 287
3 288 289 290
3 291 292 293
3 294 295 296
3 297 298 299
3 300 301 302
3 303 304 305
3 306 307 308
3 309 310 311
3 312 313 314
3 315 316 317
3 318 319 320
3 321 322 323
3 324 325 326
3 327 328 329
3 330 331 332
3 333 334 335
3 336 337 338
3 339 340 341
3 342 343 344
3 345 346 347
3 348 349 350
3 351 352 353
3 354 355 356
3 357 358 359
3 360 361 362
3 363 364 365
3 366 367 368
3 369 370 371
3 372 373 374
3 375 376 377
3 378 379 380
3 381 382 383
