ply
format ascii 1.0
element vertex 570
property float x
property float y
property float z
property float nx
property float ny
property float nz
element face 190
property list uint uint vertex_indices
end_header
102.48 143.941 172.73 -0.556062 -0.281486 -0.782023
102.411 143.148 173.065 -0.556062 -0.281486 -0.782023
102.019 143.814 173.104 -0.556062 -0.281486 -0.782023
102.48 143.941 172.73 0.189206 -0.205521 -0.960189
103.266 143.93 172.887 0.189206 -0.205521 -0.960189
103.084 143.269 172.993 0.189206 -0.205521 -0.960189
102.411 143.148 173.065 -0.0294801 -0.386736 -0.921719
102.48 143.941 172.73 -0.0294801 -0.386736 -0.921719
103.084 143.269 172.993 -0.0294801 -0.386736 -0.921719
103.084 143.269 172.993 0.653482 -0.291788 -0.698442
103.266 143.93 172.887 0.653482 -0.291788 -0.698442
103.462 143.604 173.207 0.653482 -0.291788 -0.698442
102.019 143.814 173.104 -0.650655 -0.454295 -0.608494
101.31 144.768 173.15 -0.650655 -0.454295 -0.608494
101.661 144.783 172.763 -0.650655 -0.454295 -0.608494
102.019 143.814 173.104 -0.486969 -0.444376 -0.751925
101.661 144.783 172.763 -0.486969 -0.444376 -0.751925
102.48 143.941 172.73 -0.486969 -0.444376 -0.751925
102.48 143.941 172.73 -0.196189 -0.15273 -0.968599
101.661 144.783 172.763 -0.196189 -0.15273 -0.968599
102.434 144.905 172.588 -0.196189 -0.15273 -0.968599
103.266 143.93 172.887 0.194639 -0.0765792 -0.977881
102.48 143.941 172.73 0.194639 -0.0765792 -0.977881
103.201 144.786 172.807 0.194639 -0.0765792 -0.977881
103.201 144.786 172.807 0.254365 -0.129303 -0.958425
102.48 143.941 172.73 0.254365 -0.129303 -0.958425
102.434 144.905 172.588 0.254365 -0.129303 -0.958425
103.611 144.561 173.168 0.770416 -0.145065 -0.620818
103.462 143.604 173.207 0.770416 -0.145065 -0.620818
103.266 143.93 172.887 0.770416 -0.145065 -0.620818
103.201 144.786 172.807 0.654158 -0.0212368 -0.75606
103.611 144.561 173.168 0.654158 -0.0212368 -0.75606
103.266 143.93 172.887 0.654158 -0.0212368 -0.75606
101.385 145.571 172.82 -0.720634 -0.204516 -0.662465
101.661 144.783 172.763 -0.720634 -0.204516 -0.662465
101.31 144.768 173.15 -0.720634 -0.204516 -0.662465
101.16 145.791 173.335 -0.924218 -0.067982 -0.375766
101.385 145.571 172.82 -0.924218 -0.067982 -0.375766
101.31 144.768 173.15 -0.924218 -0.067982 -0.375766
102.434 144.905 172.588 -0.231069 0.0654292 -0.970735
101.661 144.783 172.763 -0.231069 0.0654292 -0.970735
102.141 145.629 172.706 -0.231069 0.0654292 -0.970735
102.141 145.629 172.706 -0.150901 0.0187717 -0.988371
101.661 144.783 172.763 -0.150901 0.0187717 -0.988371
101.385 145.571 172.82 -0.150901 0.0187717 -0.988371
103.201 144.786 172.807 0.276882 0.0124612 -0.960823
102.434 144.905 172.588 0.276882 0.0124612 -0.960823
103.07 145.632 172.78 0.276882 0.0124612 -0.960823
103.07 145.632 172.78 0.077476 0.191431 -0.978444
102.434 144.905 172.588 0.077476 0.191431 -0.978444
102.141 145.629 172.706 0.077476 0.191431 -0.978444
103.667 145.681 173.248 0.666925 0.0199574 -0.744857
103.611 144.561 173.168 0.666925 0.0199574 -0.744857
103.201 144.786 172.807 0.666925 0.0199574 -0.744857
103.07 145.632 172.78 0.611611 0.0699725 -0.788059
103.667 145.681 173.248 0.611611 0.0699725 -0.788059
103.201 144.786 172.807 0.611611 0.0699725 -0.788059
101.385 145.571 172.82 -0.635397 0.569428 -0.521558
101.16 145.791 173.335 -0.635397 0.569428 -0.521558
101.578 146.047 173.105 -0.635397 0.569428 -0.521558
102.141 145.629 172.706 -0.165608 0.554465 -0.815563
101.385 145.571 172.82 -0.165608 0.554465 -0.815563
101.578 146.047 173.105 -0.165608 0.554465 -0.815563
102.548 146.06 173.075 -0.0317153 0.666772 -0.744586
102.141 145.629 172.706 -0.0317153 0.666772 -0.744586
101.578 146.047 173.105 -0.0317153 0.666772 -0.744586
103.07 145.632 172.78 0.0603329 0.61531 -0.785973
102.141 145.629 172.706 0.0603329 0.61531 -0.785973
102.548 146.06 173.075 0.0603329 0.61531 -0.785973
103.303 145.986 173.084 0.0704667 0.62293 -0.779098
103.07 145.632 172.78 0.0704667 0.62293 -0.779098
102.548 146.06 173.075 0.0704667 0.62293 -0.779098
103.667 145.681 173.248 0.578096 0.27814 -0.767101
103.07 145.632 172.78 0.578096 0.27814 -0.767101
103.303 145.986 173.084 0.578096 0.27814 -0.767101
102.611 142.808 173.367 -0.5849 -0.770624 -0.253043
102.503 142.62 174.187 -0.5849 -0.770624 -0.253043
102.205 142.973 173.8 -0.5849 -0.770624 -0.253043
102.611 142.808 173.367 0.143532 -0.91275 -0.382474
103.264 142.904 173.381 0.143532 -0.91275 -0.382474
103.156 142.657 173.931 0.143532 -0.91275 -0.382474
102.503 142.62 174.187 -0.033988 -0.973288 -0.227057
102.611 142.808 173.367 -0.033988 -0.973288 -0.227057
103.156 142.657 173.931 -0.033988 -0.973288 -0.227057
103.156 142.657 173.931 0.595024 -0.770113 -0.229938
103.264 142.904 173.381 0.595024 -0.770113 -0.229938
103.514 142.907 174.022 0.595024 -0.770113 -0.229938
102.411 143.148 173.065 -0.644867 -0.683212 -0.34259
102.611 142.808 173.367 -0.644867 -0.683212 -0.34259
102.205 142.973 173.8 -0.644867 -0.683212 -0.34259
102.411 143.148 173.065 -0.819358 -0.46227 -0.339057
102.205 142.973 173.8 -0.819358 -0.46227 -0.339057
102.019 143.814 173.104 -0.819358 -0.46227 -0.339057
102.019 143.814 173.104 -0.87452 -0.409275 -0.260209
102.205 142.973 173.8 -0.87452 -0.409275 -0.260209
101.785 143.76 173.974 -0.87452 -0.409275 -0.260209
103.084 143.269 172.993 0.0358673 -0.651359 -0.757922
102.611 142.808 173.367 0.0358673 -0.651359 -0.757922
102.411 143.148 173.065 0.0358673 -0.651359 -0.757922
103.264 142.904 173.381 0.118859 -0.696077 -0.70806
102.611 142.808 173.367 0.118859 -0.696077 -0.70806
103.084 143.269 172.993 0.118859 -0.696077 -0.70806
103.264 142.904 173.381 0.677661 -0.353134 -0.645036
103.084 143.269 172.993 0.677661 -0.353134 -0.645036
103.462 143.604 173.207 0.677661 -0.353134 -0.645036
103.264 142.904 173.381 0.878032 -0.334402 -0.342397
103.462 143.604 173.207 0.878032 -0.334402 -0.342397
103.514 142.907 174.022 0.878032 -0.334402 -0.342397
103.514 142.907 174.022 0.874421 -0.339536 -0.346559
103.462 143.604 173.207 0.874421 -0.339536 -0.346559
103.857 143.725 174.086 0.874421 -0.339536 -0.346559
101.785 143.76 173.974 -0.783671 -0.570455 -0.245847
101.31 144.768 173.15 -0.783671 -0.570455 -0.245847
102.019 143.814 173.104 -0.783671 -0.570455 -0.245847
101.052 144.692 174.104 -0.777111 -0.575199 -0.255428
101.31 144.768 173.15 -0.777111 -0.575199 -0.255428
101.785 143.76 173.974 -0.777111 -0.575199 -0.255428
104.296 144.786 173.999 0.765048 -0.360495 -0.533614
103.857 143.725 174.086 0.765048 -0.360495 -0.533614
103.611 144.561 173.168 0.765048 -0.360495 -0.533614
103.857 143.725 174.086 0.908573 -0.157272 -0.386988
103.462 143.604 173.207 0.908573 -0.157272 -0.386988
103.611 144.561 173.168 0.908573 -0.157272 -0.386988
101.31 144.768 173.15 -0.95933 -0.0929211 -0.266555
101.052 144.692 174.104 -0.95933 -0.0929211 -0.266555
101.16 145.791 173.335 -0.95933 -0.0929211 -0.266555
101.052 144.692 174.104 -0.929305 -0.146597 -0.338971
100.881 145.658 174.156 -0.929305 -0.146597 -0.338971
101.16 145.791 173.335 -0.929305 -0.146597 -0.338971
104.296 144.786 173.999 0.768285 0.00385559 -0.640096
103.667 145.681 173.248 0.768285 0.00385559 -0.640096
104.376 145.662 174.099 0.768285 0.00385559 -0.640096
103.611 144.561 173.168 0.770257 0.00725738 -0.637693
103.667 145.681 173.248 0.770257 0.00725738 -0.637693
104.296 144.786 173.999 0.770257 0.00725738 -0.637693
101.51 146.722 173.979 -0.635324 0.586517 -0.502356
101.578 146.047 173.105 -0.635324 0.586517 -0.502356
101.16 145.791 173.335 -0.635324 0.586517 -0.502356
101.51 146.722 173.979 -0.582978 0.599004 -0.548936
101.16 145.791 173.335 -0.582978 0.599004 -0.548936
101.061 146.502 174.215 -0.582978 0.599004 -0.548936
101.061 146.502 174.215 -0.934131 0.21927 -0.281639
101.16 145.791 173.335 -0.934131 0.21927 -0.281639
100.881 145.658 174.156 -0.934131 0.21927 -0.281639
101.578 146.047 173.105 -0.0308034 0.722502 -0.690682
102.295 146.632 173.685 -0.0308034 0.722502 -0.690682
102.548 146.06 173.075 -0.0308034 0.722502 -0.690682
101.51 146.722 173.979 -0.140118 0.778361 -0.611981
102.295 146.632 173.685 -0.140118 0.778361 -0.611981
101.578 146.047 173.105 -0.140118 0.778361 -0.611981
102.548 146.06 173.075 0.0834157 0.770807 -0.631584
103.492 146.551 173.799 0.0834157 0.770807 -0.631584
103.303 145.986 173.084 0.0834157 0.770807 -0.631584
102.295 146.632 173.685 0.113069 0.74758 -0.654477
103.492 146.551 173.799 0.113069 0.74758 -0.654477
102.548 146.06 173.075 0.113069 0.74758 -0.654477
103.667 145.681 173.248 0.664228 0.490962 -0.5637
103.303 145.986 173.084 0.664228 0.490962 -0.5637
103.492 146.551 173.799 0.664228 0.490962 -0.5637
103.667 145.681 173.248 0.483792 0.535887 -0.691932
103.492 146.551 173.799 0.483792 0.535887 -0.691932
104.134 146.338 174.083 0.483792 0.535887 -0.691932
103.667 145.681 173.248 0.746238 0.252386 -0.615979
104.134 146.338 174.083 0.746238 0.252386 -0.615979
104.376 145.662 174.099 0.746238 0.252386 -0.615979
102.49 146.867 174.157 -0.0565921 0.902698 -0.426537
102.295 146.632 173.685 -0.0565921 0.902698 -0.426537
101.51 146.722 173.979 -0.0565921 0.902698 -0.426537
103.492 146.551 173.799 0.104731 0.872105 -0.477979
102.295 146.632 173.685 0.104731 0.872105 -0.477979
102.49 146.867 174.157 0.104731 0.872105 -0.477979
102.503 142.62 174.187 -0.670119 -0.722777 -0.168922
102.436 142.445 175.202 -0.670119 -0.722777 -0.168922
102.053 142.894 174.798 -0.670119 -0.722777 -0.168922
102.205 142.973 173.8 -0.662157 -0.732354 -0.15876
102.503 142.62 174.187 -0.662157 -0.732354 -0.15876
102.053 142.894 174.798 -0.662157 -0.732354 -0.15876
103.156 142.657 173.931 -0.0101343 -0.985726 -0.16805
103.234 142.506 174.813 -0.0101343 -0.985726 -0.16805
102.503 142.62 174.187 -0.0101343 -0.985726 -0.16805
102.503 142.62 174.187 -0.00821114 -0.98537 -0.170233
103.234 142.506 174.813 -0.00821114 -0.98537 -0.170233
102.436 142.445 175.202 -0.00821114 -0.98537 -0.170233
103.234 142.506 174.813 0.593143 -0.783147 -0.186714
103.156 142.657 173.931 0.593143 -0.783147 -0.186714
103.514 142.907 174.022 0.593143 -0.783147 -0.186714
103.916 142.985 175.118 0.616454 -0.768582 -0.171074
103.234 142.506 174.813 0.616454 -0.768582 -0.171074
103.514 142.907 174.022 0.616454 -0.768582 -0.171074
101.348 143.634 175.068 -0.736966 -0.571589 -0.360788
101.785 143.76 173.974 -0.736966 -0.571589 -0.360788
102.053 142.894 174.798 -0.736966 -0.571589 -0.360788
101.785 143.76 173.974 -0.884534 -0.434791 -0.168989
102.205 142.973 173.8 -0.884534 -0.434791 -0.168989
102.053 142.894 174.798 -0.884534 -0.434791 -0.168989
104.294 143.379 174.931 0.837662 -0.191661 -0.511457
103.857 143.725 174.086 0.837662 -0.191661 -0.511457
104.42 144.032 174.893 0.837662 -0.191661 -0.511457
104.294 143.379 174.931 0.470151 -0.704341 -0.531847
103.916 142.985 175.118 0.470151 -0.704341 -0.531847
103.857 143.725 174.086 0.470151 -0.704341 -0.531847
103.916 142.985 175.118 0.887727 -0.348713 -0.300565
103.514 142.907 174.022 0.887727 -0.348713 -0.300565
103.857 143.725 174.086 0.887727 -0.348713 -0.300565
101.052 144.692 174.104 -0.667408 -0.594458 -0.448537
101.348 143.634 175.068 -0.667408 -0.594458 -0.448537
101.009 144.072 174.991 -0.667408 -0.594458 -0.448537
101.052 144.692 174.104 -0.866914 -0.387556 -0.313466
101.009 144.072 174.991 -0.866914 -0.387556 -0.313466
100.679 144.81 174.992 -0.866914 -0.387556 -0.313466
101.785 143.76 173.974 -0.756021 -0.543245 -0.365125
101.348 143.634 175.068 -0.756021 -0.543245 -0.365125
101.052 144.692 174.104 -0.756021 -0.543245 -0.365125
103.857 143.725 174.086 0.821121 -0.375173 -0.430122
104.296 144.786 173.999 0.821121 -0.375173 -0.430122
104.42 144.032 174.893 0.821121 -0.375173 -0.430122
104.42 144.032 174.893 0.978182 -0.0708828 -0.195285
104.296 144.786 173.999 0.978182 -0.0708828 -0.195285
104.483 145.008 174.853 0.978182 -0.0708828 -0.195285
101.052 144.692 174.104 -0.91887 -0.143214 -0.367651
100.679 144.81 174.992 -0.91887 -0.143214 -0.367651
100.881 145.658 174.156 -0.91887 -0.143214 -0.367651
100.679 144.81 174.992 -0.969379 -0.0106001 -0.245339
100.661 145.772 175.018 -0.969379 -0.0106001 -0.245339
100.881 145.658 174.156 -0.969379 -0.0106001 -0.245339
104.296 144.786 173.999 0.978267 -0.0658923 -0.196602
104.376 145.662 174.099 0.978267 -0.0658923 -0.196602
104.483 145.008 174.853 0.978267 -0.0658923 -0.196602
104.483 145.008 174.853 0.983282 0.181302 0.0168877
104.376 145.662 174.099 0.983282 0.181302 0.0168877
104.323 145.883 174.76 0.983282 0.181302 0.0168877
100.881 145.658 174.156 -0.93827 0.219171 -0.267607
100.661 145.772 175.018 -0.93827 0.219171 -0.267607
101.061 146.502 174.215 -0.93827 0.219171 -0.267607
100.661 145.772 175.018 -0.899699 0.433155 -0.0540203
101.023 146.536 175.125 -0.899699 0.433155 -0.0540203
101.061 146.502 174.215 -0.899699 0.433155 -0.0540203
104.134 146.338 174.083 0.588129 0.737916 0.331036
103.399 146.578 174.854 0.588129 0.737916 0.331036
104.323 145.883 174.76 0.588129 0.737916 0.331036
103.492 146.551 173.799 0.313519 0.949576 0.00342421
103.399 146.578 174.854 0.313519 0.949576 0.00342421
104.134 146.338 174.083 0.313519 0.949576 0.00342421
104.323 145.883 174.76 0.941349 0.335284 -0.038028
104.376 145.662 174.099 0.941349 0.335284 -0.038028
104.134 146.338 174.083 0.941349 0.335284 -0.038028
101.061 146.502 174.215 -0.733174 0.677711 -0.0562473
101.023 146.536 175.125 -0.733174 0.677711 -0.0562473
101.332 146.842 174.798 -0.733174 0.677711 -0.0562473
101.51 146.722 173.979 -0.525091 0.817985 -0.234905
101.061 146.502 174.215 -0.525091 0.817985 -0.234905
101.332 146.842 174.798 -0.525091 0.817985 -0.234905
102.49 146.867 174.157 -0.108216 0.973699 -0.200498
101.51 146.722 173.979 -0.108216 0.973699 -0.200498
102.147 146.973 174.853 -0.108216 0.973699 -0.200498
101.51 146.722 173.979 -0.143804 0.974066 -0.174689
101.332 146.842 174.798 -0.143804 0.974066 -0.174689
102.147 146.973 174.853 -0.143804 0.974066 -0.174689
103.492 146.551 173.799 0.301836 0.953357 0.00230707
102.49 146.867 174.157 0.301836 0.953357 0.00230707
103.399 146.578 174.854 0.301836 0.953357 0.00230707
102.49 146.867 174.157 0.300837 0.953668 0.00373821
102.147 146.973 174.853 0.300837 0.953668 0.00373821
103.399 146.578 174.854 0.300837 0.953668 0.00373821
102.436 142.445 175.202 -0.560466 -0.828144 0.00743327
102.336 142.521 176.146 -0.560466 -0.828144 0.00743327
101.744 142.92 175.941 -0.560466 -0.828144 0.00743327
102.053 142.894 174.798 -0.672269 -0.721562 -0.165539
102.436 142.445 175.202 -0.672269 -0.721562 -0.165539
101.744 142.92 175.941 -0.672269 -0.721562 -0.165539
103.234 142.506 174.813 0.115935 -0.989713 0.0838308
103.174 142.594 175.935 0.115935 -0.989713 0.0838308
102.436 142.445 175.202 0.115935 -0.989713 0.0838308
102.436 142.445 175.202 0.109178 -0.989878 0.0906711
103.174 142.594 175.935 0.109178 -0.989878 0.0906711
102.336 142.521 176.146 0.109178 -0.989878 0.0906711
103.174 142.594 175.935 0.54359 -0.833998 0.0946452
103.234 142.506 174.813 0.54359 -0.833998 0.0946452
103.916 142.985 175.118 0.54359 -0.833998 0.0946452
103.559 142.965 176.216 0.608595 -0.771988 0.183429
103.174 142.594 175.935 0.608595 -0.771988 0.183429
103.916 142.985 175.118 0.608595 -0.771988 0.183429
101.348 143.634 175.068 -0.86685 -0.494052 -0.0669572
101.297 143.589 176.051 -0.86685 -0.494052 -0.0669572
101.095 143.985 175.751 -0.86685 -0.494052 -0.0669572
101.009 144.072 174.991 -0.793018 -0.608888 0.0194703
101.348 143.634 175.068 -0.793018 -0.608888 0.0194703
101.095 143.985 175.751 -0.793018 -0.608888 0.0194703
101.744 142.92 175.941 -0.743788 -0.641819 -0.186677
101.348 143.634 175.068 -0.743788 -0.641819 -0.186677
102.053 142.894 174.798 -0.743788 -0.641819 -0.186677
101.297 143.589 176.051 -0.834606 -0.546675 -0.0676654
101.348 143.634 175.068 -0.834606 -0.546675 -0.0676654
101.744 142.92 175.941 -0.834606 -0.546675 -0.0676654
104.358 143.728 175.434 0.755171 -0.579288 0.306825
103.916 142.985 175.118 0.755171 -0.579288 0.306825
104.294 143.379 174.931 0.755171 -0.579288 0.306825
104.358 143.728 175.434 0.693591 -0.588742 0.415107
104.091 143.782 175.955 0.693591 -0.588742 0.415107
103.916 142.985 175.118 0.693591 -0.588742 0.415107
104.091 143.782 175.955 0.8445 -0.46493 0.265821
103.559 142.965 176.216 0.8445 -0.46493 0.265821
103.916 142.985 175.118 0.8445 -0.46493 0.265821
104.294 143.379 174.931 0.981873 -0.189398 0.00736668
104.42 144.032 174.893 0.981873 -0.189398 0.00736668
104.358 143.728 175.434 0.981873 -0.189398 0.00736668
101.009 144.072 174.991 -0.911218 -0.408112 0.0559105
101.095 143.985 175.751 -0.911218 -0.408112 0.0559105
100.679 144.81 174.992 -0.911218 -0.408112 0.0559105
101.095 143.985 175.751 -0.936215 -0.221093 0.273167
100.934 144.838 175.889 -0.936215 -0.221093 0.273167
100.679 144.81 174.992 -0.936215 -0.221093 0.273167
104.303 144.712 175.555 0.890163 -0.00705257 0.455587
104.091 143.782 175.955 0.890163 -0.00705257 0.455587
104.358 143.728 175.434 0.890163 -0.00705257 0.455587
103.888 144.751 176.172 0.830282 0.0494774 0.555144
104.091 143.782 175.955 0.830282 0.0494774 0.555144
104.303 144.712 175.555 0.830282 0.0494774 0.555144
104.42 144.032 174.893 0.972579 -0.0532091 0.226406
104.483 145.008 174.853 0.972579 -0.0532091 0.226406
104.303 144.712 175.555 0.972579 -0.0532091 0.226406
104.358 143.728 175.434 0.989981 0.0378388 0.136036
104.42 144.032 174.893 0.989981 0.0378388 0.136036
104.303 144.712 175.555 0.989981 0.0378388 0.136036
100.679 144.81 174.992 -0.961369 -0.0245189 0.274168
100.934 144.838 175.889 -0.961369 -0.0245189 0.274168
100.661 145.772 175.018 -0.961369 -0.0245189 0.274168
100.934 144.838 175.889 -0.925951 0.0752221 0.370076
101.007 145.747 175.889 -0.925951 0.0752221 0.370076
100.661 145.772 175.018 -0.925951 0.0752221 0.370076
103.472 145.758 175.732 0.404397 0.705285 0.582268
102.787 145.919 176.013 0.404397 0.705285 0.582268
103.206 145.416 176.33 0.404397 0.705285 0.582268
103.888 144.751 176.172 0.635025 0.514537 0.57619
103.472 145.758 175.732 0.635025 0.514537 0.57619
103.206 145.416 176.33 0.635025 0.514537 0.57619
103.888 144.751 176.172 0.731318 0.503476 0.460093
104.303 144.712 175.555 0.731318 0.503476 0.460093
103.472 145.758 175.732 0.731318 0.503476 0.460093
104.303 144.712 175.555 0.574272 0.329861 0.749269
104.209 145.69 175.197 0.574272 0.329861 0.749269
103.472 145.758 175.732 0.574272 0.329861 0.749269
104.483 145.008 174.853 0.921101 0.20324 0.332063
104.323 145.883 174.76 0.921101 0.20324 0.332063
104.209 145.69 175.197 0.921101 0.20324 0.332063
104.303 144.712 175.555 0.922893 0.208013 0.324035
104.483 145.008 174.853 0.922893 0.208013 0.324035
104.209 145.69 175.197 0.922893 0.208013 0.324035
101.307 146.176 175.845 -0.467503 0.702747 0.536272
101.523 146.704 175.34 -0.467503 0.702747 0.536272
101.023 146.536 175.125 -0.467503 0.702747 0.536272
101.307 146.176 175.845 -0.670283 0.522979 0.52651
101.023 146.536 175.125 -0.670283 0.522979 0.52651
101.007 145.747 175.889 -0.670283 0.522979 0.52651
101.007 145.747 175.889 -0.863672 0.359265 0.353552
101.023 146.536 175.125 -0.863672 0.359265 0.353552
100.661 145.772 175.018 -0.863672 0.359265 0.353552
101.523 146.704 175.34 0.0219737 0.761912 0.647308
102.063 146.157 175.965 0.0219737 0.761912 0.647308
102.473 146.574 175.461 0.0219737 0.761912 0.647308
101.307 146.176 175.845 -0.0943964 0.707596 0.700284
102.063 146.157 175.965 -0.0943964 0.707596 0.700284
101.523 146.704 175.34 -0.0943964 0.707596 0.700284
102.787 145.919 176.013 0.178599 0.68233 0.708892
102.473 146.574 175.461 0.178599 0.68233 0.708892
102.063 146.157 175.965 0.178599 0.68233 0.708892
102.787 145.919 176.013 0.406542 0.69439 0.593756
103.472 145.758 175.732 0.406542 0.69439 0.593756
102.473 146.574 175.461 0.406542 0.69439 0.593756
103.472 145.758 175.732 0.396209 0.686889 0.609263
103.399 146.578 174.854 0.396209 0.686889 0.609263
102.473 146.574 175.461 0.396209 0.686889 0.609263
104.323 145.883 174.76 0.56441 0.689781 0.453479
103.399 146.578 174.854 0.56441 0.689781 0.453479
104.209 145.69 175.197 0.56441 0.689781 0.453479
104.209 145.69 175.197 0.479735 0.660479 0.5776
103.399 146.578 174.854 0.479735 0.660479 0.5776
103.472 145.758 175.732 0.479735 0.660479 0.5776
101.023 146.536 175.125 -0.434173 0.824315 0.363317
101.523 146.704 175.34 -0.434173 0.824315 0.363317
101.332 146.842 174.798 -0.434173 0.824315 0.363317
102.147 146.973 174.853 -0.170338 0.938773 0.299484
101.332 146.842 174.798 -0.170338 0.938773 0.299484
101.523 146.704 175.34 -0.170338 0.938773 0.299484
102.473 146.574 175.461 0.0485459 0.846789 0.529709
102.147 146.973 174.853 0.0485459 0.846789 0.529709
101.523 146.704 175.34 0.0485459 0.846789 0.529709
103.399 146.578 174.854 0.272529 0.864934 0.421447
102.147 146.973 174.853 0.272529 0.864934 0.421447
102.473 146.574 175.461 0.272529 0.864934 0.421447
102.336 142.521 176.146 -0.419734 -0.873871 0.245299
102.57 142.608 176.856 -0.419734 -0.873871 0.245299
102.015 142.901 176.949 -0.419734 -0.873871 0.245299
101.744 142.92 175.941 -0.586411 -0.79738 0.142505
102.336 142.521 176.146 -0.586411 -0.79738 0.142505
102.015 142.901 176.949 -0.586411 -0.79738 0.142505
103.231 142.721 176.747 0.194475 -0.963602 0.183441
103.023 142.74 177.066 0.194475 -0.963602 0.183441
102.57 142.608 176.856 0.194475 -0.963602 0.183441
103.231 142.721 176.747 0.18856 -0.972226 0.138642
102.57 142.608 176.856 0.18856 -0.972226 0.138642
103.174 142.594 175.935 0.18856 -0.972226 0.138642
103.174 142.594 175.935 0.108083 -0.990402 0.0861499
102.57 142.608 176.856 0.108083 -0.990402 0.0861499
102.336 142.521 176.146 0.108083 -0.990402 0.0861499
103.174 142.594 175.935 0.664703 -0.743852 0.0696766
103.559 142.965 176.216 0.664703 -0.743852 0.0696766
103.231 142.721 176.747 0.664703 -0.743852 0.0696766
101.297 143.589 176.051 -0.926003 -0.286992 0.245262
101.249 144.07 176.434 -0.926003 -0.286992 0.245262
101.095 143.985 175.751 -0.926003 -0.286992 0.245262
101.297 143.589 176.051 -0.916223 -0.301166 0.264263
101.515 143.648 176.875 -0.916223 -0.301166 0.264263
101.249 144.07 176.434 -0.916223 -0.301166 0.264263
101.297 143.589 176.051 -0.786006 -0.566093 0.248461
101.744 142.92 175.941 -0.786006 -0.566093 0.248461
101.515 143.648 176.875 -0.786006 -0.566093 0.248461
101.744 142.92 175.941 -0.821821 -0.529245 0.210977
102.015 142.901 176.949 -0.821821 -0.529245 0.210977
101.515 143.648 176.875 -0.821821 -0.529245 0.210977
103.231 142.721 176.747 0.681266 -0.555725 0.476494
103.224 143.03 177.117 0.681266 -0.555725 0.476494
103.023 142.74 177.066 0.681266 -0.555725 0.476494
103.224 143.03 177.117 0.851133 -0.395168 0.345564
103.231 142.721 176.747 0.851133 -0.395168 0.345564
103.559 142.965 176.216 0.851133 -0.395168 0.345564
103.224 143.03 177.117 0.840165 -0.419865 0.343272
103.559 142.965 176.216 0.840165 -0.419865 0.343272
103.741 143.869 176.877 0.840165 -0.419865 0.343272
103.741 143.869 176.877 0.831044 -0.427342 0.356012
103.559 142.965 176.216 0.831044 -0.427342 0.356012
104.091 143.782 175.955 0.831044 -0.427342 0.356012
101.249 144.07 176.434 -0.809329 0.0803312 0.581836
101.405 145.023 176.52 -0.809329 0.0803312 0.581836
100.934 144.838 175.889 -0.809329 0.0803312 0.581836
101.095 143.985 175.751 -0.945773 -0.2177 0.241081
101.249 144.07 176.434 -0.945773 -0.2177 0.241081
100.934 144.838 175.889 -0.945773 -0.2177 0.241081
101.719 144.523 177.178 -0.84956 0.015216 0.527273
101.249 144.07 176.434 -0.84956 0.015216 0.527273
101.515 143.648 176.875 -0.84956 0.015216 0.527273
101.405 145.023 176.52 -0.867339 0.0982424 0.487925
101.249 144.07 176.434 -0.867339 0.0982424 0.487925
101.719 144.523 177.178 -0.867339 0.0982424 0.487925
104.091 143.782 175.955 0.931874 0.118287 0.342956
103.888 144.751 176.172 0.931874 0.118287 0.342956
103.741 143.869 176.877 0.931874 0.118287 0.342956
103.741 143.869 176.877 0.886692 0.188978 0.421977
103.888 144.751 176.172 0.886692 0.188978 0.421977
103.555 144.759 176.87 0.886692 0.188978 0.421977
101.405 145.023 176.52 -0.620216 0.292893 0.727699
101.448 145.784 176.25 -0.620216 0.292893 0.727699
101.007 145.747 175.889 -0.620216 0.292893 0.727699
100.934 144.838 175.889 -0.808165 0.0655521 0.585296
101.405 145.023 176.52 -0.808165 0.0655521 0.585296
101.007 145.747 175.889 -0.808165 0.0655521 0.585296
102.339 145.264 176.96 -0.46475 0.584442 0.665157
101.405 145.023 176.52 -0.46475 0.584442 0.665157
101.719 144.523 177.178 -0.46475 0.584442 0.665157
102.339 145.264 176.96 -0.457563 0.635458 0.621955
102.243 145.691 176.453 -0.457563 0.635458 0.621955
101.405 145.023 176.52 -0.457563 0.635458 0.621955
102.243 145.691 176.453 -0.196338 0.337619 0.920578
101.448 145.784 176.25 -0.196338 0.337619 0.920578
101.405 145.023 176.52 -0.196338 0.337619 0.920578
102.243 145.691 176.453 0.27906 0.668412 0.689457
103.206 145.416 176.33 0.27906 0.668412 0.689457
102.787 145.919 176.013 0.27906 0.668412 0.689457
102.243 145.691 176.453 0.291152 0.758447 0.583086
102.339 145.264 176.96 0.291152 0.758447 0.583086
103.206 145.416 176.33 0.291152 0.758447 0.583086
102.339 145.264 176.96 0.219553 0.835767 0.50328
103.145 144.988 177.068 0.219553 0.835767 0.50328
103.206 145.416 176.33 0.219553 0.835767 0.50328
103.555 144.759 176.87 0.697587 0.637895 0.326287
103.888 144.751 176.172 0.697587 0.637895 0.326287
103.206 145.416 176.33 0.697587 0.637895 0.326287
103.145 144.988 177.068 0.590841 0.675516 0.441118
103.555 144.759 176.87 0.590841 0.675516 0.441118
103.206 145.416 176.33 0.590841 0.675516 0.441118
101.007 145.747 175.889 -0.581101 0.47461 0.66111
101.448 145.784 176.25 -0.581101 0.47461 0.66111
101.307 146.176 175.845 -0.581101 0.47461 0.66111
102.063 146.157 175.965 -0.0960822 0.698218 0.709409
101.307 146.176 175.845 -0.0960822 0.698218 0.709409
101.448 145.784 176.25 -0.0960822 0.698218 0.709409
102.243 145.691 176.453 -0.0991372 0.700905 0.706331
102.063 146.157 175.965 -0.0991372 0.700905 0.706331
101.448 145.784 176.25 -0.0991372 0.700905 0.706331
102.787 145.919 176.013 0.203799 0.744376 0.635901
102.063 146.157 175.965 0.203799 0.744376 0.635901
102.243 145.691 176.453 0.203799 0.744376 0.635901
102.57 142.608 176.856 -0.35452 -0.817224 0.454379
102.468 142.925 177.346 -0.35452 -0.817224 0.454379
102.015 142.901 176.949 -0.35452 -0.817224 0.454379
102.57 142.608 176.856 -0.00714009 -0.840588 0.541628
103.023 142.74 177.066 -0.00714009 -0.840588 0.541628
102.468 142.925 177.346 -0.00714009 -0.840588 0.541628
102.468 142.925 177.346 -0.389407 -0.566743 0.726061
102.512 143.543 177.852 -0.389407 -0.566743 0.726061
102.086 143.685 177.734 -0.389407 -0.566743 0.726061
102.468 142.925 177.346 -0.518396 -0.5811 0.627367
102.086 143.685 177.734 -0.518396 -0.5811 0.627367
102.015 142.901 176.949 -0.518396 -0.5811 0.627367
102.015 142.901 176.949 -0.737686 -0.4432 0.509307
102.086 143.685 177.734 -0.737686 -0.4432 0.509307
101.515 143.648 176.875 -0.737686 -0.4432 0.509307
103.132 143.855 177.59 0.490512 -0.281715 0.824642
102.508 143.917 177.982 0.490512 -0.281715 0.824642
102.512 143.543 177.852 0.490512 -0.281715 0.824642
103.224 143.03 177.117 0.516372 -0.38153 0.766678
103.132 143.855 177.59 0.516372 -0.38153 0.766678
102.512 143.543 177.852 0.516372 -0.38153 0.766678
103.224 143.03 177.117 0.305302 -0.616269 0.72595
102.512 143.543 177.852 0.305302 -0.616269 0.72595
102.468 142.925 177.346 0.305302 -0.616269 0.72595
103.224 143.03 177.117 0.315651 -0.373208 0.872399
102.468 142.925 177.346 0.315651 -0.373208 0.872399
103.023 142.74 177.066 0.315651 -0.373208 0.872399
103.224 143.03 177.117 0.733607 -0.274369 0.621726
103.741 143.869 176.877 0.733607 -0.274369 0.621726
103.132 143.855 177.59 0.733607 -0.274369 0.621726
102.231 144.182 177.917 -0.442443 0.657026 0.610377
102.517 144.61 177.663 -0.442443 0.657026 0.610377
101.719 144.523 177.178 -0.442443 0.657026 0.610377
102.231 144.182 177.917 -0.815614 0.026526 0.577989
101.719 144.523 177.178 -0.815614 0.026526 0.577989
102.086 143.685 177.734 -0.815614 0.026526 0.577989
102.086 143.685 177.734 -0.833061 0.00241366 0.553175
101.719 144.523 177.178 -0.833061 0.00241366 0.553175
101.515 143.648 176.875 -0.833061 0.00241366 0.553175
102.508 143.917 177.982 0.182145 0.408422 0.894436
102.517 144.61 177.663 0.182145 0.408422 0.894436
102.231 144.182 177.917 0.182145 0.408422 0.894436
102.508 143.917 177.982 0.522845 0.35028 0.777134
103.132 143.855 177.59 0.522845 0.35028 0.777134
102.517 144.61 177.663 0.522845 0.35028 0.777134
103.132 143.855 177.59 0.413853 0.251932 0.874789
103.314 144.556 177.302 0.413853 0.251932 0.874789
102.517 144.61 177.663 0.413853 0.251932 0.874789
103.741 143.869 176.877 0.822541 0.176536 0.540613
103.555 144.759 176.87 0.822541 0.176536 0.540613
103.314 144.556 177.302 0.822541 0.176536 0.540613
103.132 143.855 177.59 0.757755 0.0694551 0.648832
103.741 143.869 176.877 0.757755 0.0694551 0.648832
103.314 144.556 177.302 0.757755 0.0694551 0.648832
101.719 144.523 177.178 -0.466655 0.585397 0.66298
102.517 144.61 177.663 -0.466655 0.585397 0.66298
102.339 145.264 176.96 -0.466655 0.585397 0.66298
103.145 144.988 177.068 0.167947 0.742266 0.648718
102.339 145.264 176.96 0.167947 0.742266 0.648718
102.517 144.61 177.663 0.167947 0.742266 0.648718
103.314 144.556 177.302 0.375449 0.550492 0.745651
103.145 144.988 177.068 0.375449 0.550492 0.745651
102.517 144.61 177.663 0.375449 0.550492 0.745651
103.555 144.759 176.87 0.592267 0.550636 0.588234
103.145 144.988 177.068 0.592267 0.550636 0.588234
103.314 144.556 177.302 0.592267 0.550636 0.588234
102.512 143.543 177.852 -0.397332 -0.725583 0.561833
102.312 143.805 178.049 -0.397332 -0.725583 0.561833
102.086 143.685 177.734 -0.397332 -0.725583 0.561833
102.512 143.543 177.852 0.453223 -0.288598 0.843386
102.508 143.917 177.982 0.453223 -0.288598 0.843386
102.312 143.805 178.049 0.453223 -0.288598 0.843386
102.086 143.685 177.734 -0.817647 0.0282097 0.575029
102.312 143.805 178.049 -0.817647 0.0282097 0.575029
102.231 144.182 177.917 -0.817647 0.0282097 0.575029
102.508 143.917 177.982 0.120398 0.35218 0.928156
102.231 144.182 177.917 0.120398 0.35218 0.928156
102.312 143.805 178.049 0.120398 0.35218 0.928156
3 0 1 2
3 3 4 5
3 6 7 8
3 9 10 11
3 12 13 14
3 15 16 17
3 18 19 20
3 21 22 23
3 24 25 26
3 27 28 29
3 30 31 32
3 33 34 35
3 36 37 38
3 39 40 41
3 42 43 44
3 45 46 47
3 48 49 50
3 51 52 53
3 54 55 56
3 57 58 59
3 60 61 62
3 63 64 65
3 66 67 68
3 69 70 71
3 72 73 74
3 75 76 77
3 78 79 80
3 81 82 83
3 84 85 86
3 87 88 89
3 90 91 92
3 93 94 95
3 96 97 98
3 99 100 101
3 102 103 104
3 105 106 107
3 108 109 110
3 111 112 113
3 114 115 116
3 117 118 119
3 120 121 122
3 123 124 125
3 126 127 128
3 129 130 131
3 132 133 134
3 135 136 137
3 138 139 140
3 141 142 143
3 144 145 146
3 147 148 149
3 150 151 152
3 153 154 155
3 156 157 158
3 159 160 161
3 162 163 164
3 165 166 167
3 168 169 170
3 171 172 173
3 174 175 176
3 177 178 179
3 180 181 182
3 183 184 185
3 186 187 188
3 189 190 191
3 192 193 194
3 195 196 197
3 198 199 200
3 201 202 203
3 204 205 206
3 207 208 209
3 210 211 212
3 213 214 215
3 216 217 218
3 219 220 221
3 222 223 224
3 225 226 227
3 228 229 230
3 231 232 233
3 234 235 236
3 237 238 239
3 240 241 242
3 243 244 245
3 246 247 248
3 249 250 251
3 252 253 254
3 255 256 257
3 258 259 260
3 261 262 263
3 264 265 266
3 267 268 269
3 270 271 272
3 273 274 275
3 276 277 278
3 279 280 281
3 282 283 284
3 285 286 287
3 288 289 290
3 291 292 293
3 294 295 296
3 297 298 299
3 300 301 302
3 303 304 305
3 306 307 308
3 309 310 311
3 312 313 314
3 315 316 317
3 318 319 320
3 321 322 323
3 324 325 326
3 327 328 329
3 330 331 332
3 333 334 335
3 336 337 338
3 339 340 341
3 342 343 344
3 345 346 347
3 348 349 350
3 351 352 353
3 354 355 356
3 357 358 359
3 360 361 362
3 363 364 365
3 366 367 368
3 369 370 371
3 372 373 374
3 375 376 377
3 378 379 380
3 381 382 383
3 384 385 386
3 387 388 389
3 390 391 392
3 393 394 395
3 396 397 398
3 399 400 401
3 402 403 404
3 405 406 407
3 408 409 410
3 411 412 413
3 414 415 416
3 417 418 419
3 420 421 422
3 423 424 425
3 426 427 428
3 429 430 431
3 432 433 434
3 435 436 437
3 438 439 440
3 441 442 443
3 444 445 446
3 447 448 449
3 450 451 452
3 453 454 455
3 456 457 458
3 459 460 461
3 462 463 464
3 465 466 467
3 468 469 470
3 471 472 473
3 474 475 476
3 477 478 479
3 480 481 482
3 483 484 485
3 486 487 488
3 489 490 491
3 492 493 494
3 495 496 497
3 498 499 500
3 501 502 503
3 504 505 506
3 507 508 509
3 510 511 512
3 513 514 515
3 516 517 518
3 519 520 521
3 522 523 524
3 525 526 527
3 528 529 530
3 531 532 533
3 534 535 536
3 537 538 539
3 540 541 542
3 543 544 545
3 546 547 548
3 549 550 551
3 552 553 554
3 555 556 557
3 558 559 560
3 561 562 563
3 564 565 566
3 567 568 569
