ply
format ascii 1.0
element vertex 102
property float x
property float y
property float z
property float nx
property float ny
property float nz
element face 34
property list uint uint vertex_indices
end_header
57.5791 93.9546 155.115 0.0431809 -0.611172 -0.790319
58.1718 94.0121 155.103 0.0431809 -0.611172 -0.790319
57.978 93.7162 155.321 0.0431809 -0.611172 -0.790319
57.328 93.6735 155.391 -0.0333404 -0.685069 -0.727715
57.5791 93.9546 155.115 -0.0333404 -0.685069 -0.727715
57.978 93.7162 155.321 -0.0333404 -0.685069 -0.727715
57.978 93.7162 155.321 0.57285 -0.695291 -0.434066
58.1718 94.0121 155.103 0.57285 -0.695291 -0.434066
58.3009 94.0062 155.283 0.57285 -0.695291 -0.434066
57.3666 94.5422 155.141 -0.621029 -0.191723 -0.759978
57.5791 93.9546 155.115 -0.621029 -0.191723 -0.759978
57.328 93.6735 155.391 -0.621029 -0.191723 -0.759978
57.1793 94.5308 155.485 -0.872552 -0.0992463 -0.478334
57.3666 94.5422 155.141 -0.872552 -0.0992463 -0.478334
57.328 93.6735 155.391 -0.872552 -0.0992463 -0.478334
58.1718 94.0121 155.103 -0.00963018 -0.109834 -0.993903
57.5791 93.9546 155.115 -0.00963018 -0.109834 -0.993903
58.0007 94.6616 155.033 -0.00963018 -0.109834 -0.993903
58.0007 94.6616 155.033 -0.164166 -0.0167859 -0.98629
57.5791 93.9546 155.115 -0.164166 -0.0167859 -0.98629
57.3666 94.5422 155.141 -0.164166 -0.0167859 -0.98629
58.366 94.5842 155.216 0.799798 -0.157633 -0.579202
58.3009 94.0062 155.283 0.799798 -0.157633 -0.579202
58.1718 94.0121 155.103 0.799798 -0.157633 -0.579202
58.0007 94.6616 155.033 0.450701 0.0223937 -0.892394
58.366 94.5842 155.216 0.450701 0.0223937 -0.892394
58.1718 94.0121 155.103 0.450701 0.0223937 -0.892394
57.3666 94.5422 155.141 -0.851312 0.261571 -0.454806
57.1793 94.5308 155.485 -0.851312 0.261571 -0.454806
57.4582 95.1018 155.291 -0.851312 0.261571 -0.454806
58.0007 94.6616 155.033 -0.212362 0.285956 -0.934415
57.3666 94.5422 155.141 -0.212362 0.285956 -0.934415
57.4582 95.1018 155.291 -0.212362 0.285956 -0.934415
58.0528 94.9868 155.321 0.1609 0.639116 -0.752092
58.0007 94.6616 155.033 0.1609 0.639116 -0.752092
57.4582 95.1018 155.291 0.1609 0.639116 -0.752092
58.366 94.5842 155.216 0.464567 0.54359 -0.699062
58.0007 94.6616 155.033 0.464567 0.54359 -0.699062
58.0528 94.9868 155.321 0.464567 0.54359 -0.699062
57.328 93.6735 155.391 -0.549775 -0.819607 0.161222
57.4025 93.7322 155.944 -0.549775 -0.819607 0.161222
57.1643 93.8997 155.983 -0.549775 -0.819607 0.161222
57.9763 93.9627 155.592 0.588763 -0.372012 0.717611
57.3823 93.9646 156.081 0.588763 -0.372012 0.717611
57.4025 93.7322 155.944 0.588763 -0.372012 0.717611
57.9763 93.9627 155.592 0.578769 -0.601392 0.550776
57.4025 93.7322 155.944 0.578769 -0.601392 0.550776
57.978 93.7162 155.321 0.578769 -0.601392 0.550776
57.978 93.7162 155.321 0.0753233 -0.992599 0.0952559
57.4025 93.7322 155.944 0.0753233 -0.992599 0.0952559
57.328 93.6735 155.391 0.0753233 -0.992599 0.0952559
57.978 93.7162 155.321 0.596163 -0.591997 0.542337
58.3009 94.0062 155.283 0.596163 -0.591997 0.542337
57.9763 93.9627 155.592 0.596163 -0.591997 0.542337
57.2219 94.2747 156.068 -0.647165 0.679481 0.345664
57.4785 94.6356 155.839 -0.647165 0.679481 0.345664
57.1793 94.5308 155.485 -0.647165 0.679481 0.345664
57.2219 94.2747 156.068 -0.98445 0.122639 0.125767
57.1793 94.5308 155.485 -0.98445 0.122639 0.125767
57.1643 93.8997 155.983 -0.98445 0.122639 0.125767
57.1643 93.8997 155.983 -0.966473 -0.144568 -0.212204
57.1793 94.5308 155.485 -0.966473 -0.144568 -0.212204
57.328 93.6735 155.391 -0.966473 -0.144568 -0.212204
57.3823 93.9646 156.081 0.420507 0.253446 0.871171
57.4785 94.6356 155.839 0.420507 0.253446 0.871171
57.2219 94.2747 156.068 0.420507 0.253446 0.871171
57.3823 93.9646 156.081 0.624615 0.183758 0.759005
57.9763 93.9627 155.592 0.624615 0.183758 0.759005
57.4785 94.6356 155.839 0.624615 0.183758 0.759005
57.9763 93.9627 155.592 0.431363 -0.0116724 0.902103
58.1665 94.5777 155.509 0.431363 -0.0116724 0.902103
57.4785 94.6356 155.839 0.431363 -0.0116724 0.902103
58.3009 94.0062 155.283 0.827302 -0.0276117 0.561079
58.366 94.5842 155.216 0.827302 -0.0276117 0.561079
58.1665 94.5777 155.509 0.827302 -0.0276117 0.561079
57.9763 93.9627 155.592 0.693317 -0.118455 0.71083
58.3009 94.0062 155.283 0.693317 -0.118455 0.71083
58.1665 94.5777 155.509 0.693317 -0.118455 0.71083
57.1793 94.5308 155.485 -0.725253 0.510932 0.461473
57.4785 94.6356 155.839 -0.725253 0.510932 0.461473
57.4582 95.1018 155.291 -0.725253 0.510932 0.461473
58.0528 94.9868 155.321 0.114969 0.758773 0.641128
57.4582 95.1018 155.291 0.114969 0.758773 0.641128
57.4785 94.6356 155.839 0.114969 0.758773 0.641128
58.1665 94.5777 155.509 0.41267 0.47391 0.77789
58.0528 94.9868 155.321 0.41267 0.47391 0.77789
57.4785 94.6356 155.839 0.41267 0.47391 0.77789
58.366 94.5842 155.216 0.738067 0.440915 0.510736
58.0528 94.9868 155.321 0.738067 0.440915 0.510736
58.1665 94.5777 155.509 0.738067 0.440915 0.510736
57.4025 93.7322 155.944 -0.564569 -0.821533 0.0796626
57.2322 93.8711 156.169 -0.564569 -0.821533 0.0796626
57.1643 93.8997 155.983 -0.564569 -0.821533 0.0796626
57.4025 93.7322 155.944 0.628528 -0.353817 0.692651
57.3823 93.9646 156.081 0.628528 -0.353817 0.692651
57.2322 93.8711 156.169 0.628528 -0.353817 0.692651
57.1643 93.8997 155.983 -0.93438 0.0639433 0.350493
57.2322 93.8711 156.169 -0.93438 0.0639433 0.350493
57.2219 94.2747 156.068 -0.93438 0.0639433 0.350493
57.3823 93.9646 156.081 0.381115 0.234023 0.894419
57.2219 94.2747 156.068 0.381115 0.234023 0.894419
57.2322 93.8711 156.169 0.381115 0.234023 0.894419
3 0 1 2
3 3 4 5
3 6 7 8
3 9 10 11
3 12 13 14
3 15 16 17
3 18 19 20
3 21 22 23
3 24 25 26
3 27 28 29
3 30 31 32
3 33 34 35
3 36 37 38
3 39 40 41
3 42 43 44
3 45 46 47
3 48 49 50
3 51 52 53
3 54 55 56
3 57 58 59
3 60 61 62
3 63 64 65
3 66 67 68
3 69 70 71
3 72 73 74
3 75 76 77
3 78 79 80
3 81 82 83
3 84 85 86
3 87 88 89
3 90 91 92
3 93 94 95
3 96 97 98
3 99 100 101
