ply
format ascii 1.0
element vertex 84
property float x
property float y
property float z
property float nx
property float ny
property float nz
element face 28
property list uint uint vertex_indices
end_header
112.208 103.554 151.938 0.0476203 -0.820255 -0.570012
112.313 103.382 152.195 0.0476203 -0.820255 -0.570012
111.603 103.383 152.134 0.0476203 -0.820255 -0.570012
111.403 103.928 151.9 -0.744574 -0.385151 -0.545224
111.331 103.692 152.165 -0.744574 -0.385151 -0.545224
111.209 104.051 152.078 -0.744574 -0.385151 -0.545224
111.603 103.383 152.134 -0.625774 -0.490319 -0.606625
111.331 103.692 152.165 -0.625774 -0.490319 -0.606625
111.403 103.928 151.9 -0.625774 -0.490319 -0.606625
111.603 103.383 152.134 -0.162196 -0.438665 -0.883892
111.403 103.928 151.9 -0.162196 -0.438665 -0.883892
112.208 103.554 151.938 -0.162196 -0.438665 -0.883892
112.208 103.554 151.938 -0.178594 -0.471939 -0.863352
111.403 103.928 151.9 -0.178594 -0.471939 -0.863352
112.073 104.091 151.672 -0.178594 -0.471939 -0.863352
112.962 103.974 152.11 0.486204 -0.621018 -0.61477
112.313 103.382 152.195 0.486204 -0.621018 -0.61477
112.208 103.554 151.938 0.486204 -0.621018 -0.61477
112.962 103.974 152.11 0.405807 -0.389946 -0.826597
112.208 103.554 151.938 0.405807 -0.389946 -0.826597
112.821 104.129 151.967 0.405807 -0.389946 -0.826597
112.821 104.129 151.967 0.35999 -0.33897 -0.869199
112.208 103.554 151.938 0.35999 -0.33897 -0.869199
112.073 104.091 151.672 0.35999 -0.33897 -0.869199
111.403 103.928 151.9 -0.482868 0.380724 -0.788598
111.209 104.051 152.078 -0.482868 0.380724 -0.788598
111.427 104.174 152.004 -0.482868 0.380724 -0.788598
112.073 104.091 151.672 -0.380313 0.391448 -0.837932
111.403 103.928 151.9 -0.380313 0.391448 -0.837932
111.427 104.174 152.004 -0.380313 0.391448 -0.837932
112.19 104.372 152.083 -0.162448 0.835713 -0.52459
112.073 104.091 151.672 -0.162448 0.835713 -0.52459
111.427 104.174 152.004 -0.162448 0.835713 -0.52459
112.821 104.129 151.967 0.192934 0.783604 -0.590543
112.073 104.091 151.672 0.192934 0.783604 -0.590543
112.19 104.372 152.083 0.192934 0.783604 -0.590543
112.931 104.364 152.176 0.103378 0.634549 -0.765937
112.821 104.129 151.967 0.103378 0.634549 -0.765937
112.19 104.372 152.083 0.103378 0.634549 -0.765937
112.962 103.974 152.11 0.785037 0.164538 -0.597197
112.821 104.129 151.967 0.785037 0.164538 -0.597197
112.931 104.364 152.176 0.785037 0.164538 -0.597197
112.313 103.382 152.195 -0.0282287 -0.948322 0.316051
112.032 103.513 152.565 -0.0282287 -0.948322 0.316051
111.603 103.383 152.134 -0.0282287 -0.948322 0.316051
111.331 103.692 152.165 -0.573588 0.00542853 0.819126
111.483 104.055 152.27 -0.573588 0.00542853 0.819126
111.209 104.051 152.078 -0.573588 0.00542853 0.819126
111.331 103.692 152.165 -0.517764 -0.52528 0.675278
111.603 103.383 152.134 -0.517764 -0.52528 0.675278
112.032 103.513 152.565 -0.517764 -0.52528 0.675278
111.331 103.692 152.165 -0.501464 -0.0378377 0.864351
112.032 103.513 152.565 -0.501464 -0.0378377 0.864351
111.483 104.055 152.27 -0.501464 -0.0378377 0.864351
111.483 104.055 152.27 -0.268576 0.236293 0.933827
112.032 103.513 152.565 -0.268576 0.236293 0.933827
112.29 104.121 152.485 -0.268576 0.236293 0.933827
112.313 103.382 152.195 0.665156 -0.687402 0.291628
112.962 103.974 152.11 0.665156 -0.687402 0.291628
112.835 103.969 152.389 0.665156 -0.687402 0.291628
112.313 103.382 152.195 0.49084 -0.633774 0.597835
112.835 103.969 152.389 0.49084 -0.633774 0.597835
112.032 103.513 152.565 0.49084 -0.633774 0.597835
112.032 103.513 152.565 0.186607 0.0498312 0.98117
112.835 103.969 152.389 0.186607 0.0498312 0.98117
112.29 104.121 152.485 0.186607 0.0498312 0.98117
111.209 104.051 152.078 -0.323442 0.835871 0.443514
111.483 104.055 152.27 -0.323442 0.835871 0.443514
111.427 104.174 152.004 -0.323442 0.835871 0.443514
112.19 104.372 152.083 -0.267828 0.856582 0.441063
111.427 104.174 152.004 -0.267828 0.856582 0.441063
111.483 104.055 152.27 -0.267828 0.856582 0.441063
112.29 104.121 152.485 -0.214266 0.803979 0.554714
112.19 104.372 152.083 -0.214266 0.803979 0.554714
111.483 104.055 152.27 -0.214266 0.803979 0.554714
112.931 104.364 152.176 -0.0585851 0.840308 0.538934
112.19 104.372 152.083 -0.0585851 0.840308 0.538934
112.29 104.121 152.485 -0.0585851 0.840308 0.538934
112.835 103.969 152.389 0.267008 0.405565 0.874199
112.931 104.364 152.176 0.267008 0.405565 0.874199
112.29 104.121 152.485 0.267008 0.405565 0.874199
112.962 103.974 152.11 0.909823 0.00167071 0.414993
112.931 104.364 152.176 0.909823 0.00167071 0.414993
112.835 103.969 152.389 0.909823 0.00167071 0.414993
3 0 1 2
3 3 4 5
3 6 7 8
3 9 10 11
3 12 13 14
3 15 16 17
3 18 19 20
3 21 22 23
3 24 25 26
3 27 28 29
3 30 31 32
3 33 34 35
3 36 37 38
3 39 40 41
3 42 43 44
3 45 46 47
3 48 49 50
3 51 52 53
3 54 55 56
3 57 58 59
3 60 61 62
3 63 64 65
3 66 67 68
3 69 70 71
3 72 73 74
3 75 76 77
3 78 79 80
3 81 82 83
