ply
format ascii 1.0
element vertex 288
property float x
property float y
property float z
property float nx
property float ny
property float nz
element face 96
property list uint uint vertex_indices
end_header
104.884 90.8011 159.517 -0.640605 0.110786 -0.759837
104.664 90.1909 159.613 -0.640605 0.110786 -0.759837
104.499 90.5605 159.807 -0.640605 0.110786 -0.759837
104.884 90.8011 159.517 -0.243311 -0.339901 -0.908442
105.603 90.8019 159.324 -0.243311 -0.339901 -0.908442
105.534 90.0746 159.615 -0.243311 -0.339901 -0.908442
104.664 90.1909 159.613 -0.0181497 -0.149212 -0.988639
104.884 90.8011 159.517 -0.0181497 -0.149212 -0.988639
105.534 90.0746 159.615 -0.0181497 -0.149212 -0.988639
105.534 90.0746 159.615 0.539713 -0.356069 -0.76284
105.603 90.8019 159.324 0.539713 -0.356069 -0.76284
106.08 90.7484 159.687 0.539713 -0.356069 -0.76284
104.884 90.8011 159.517 -0.565753 0.459509 -0.684671
105.377 91.7798 159.767 -0.565753 0.459509 -0.684671
105.513 91.3808 159.386 -0.565753 0.459509 -0.684671
104.884 90.8011 159.517 -0.258667 0.062951 -0.963913
105.513 91.3808 159.386 -0.258667 0.062951 -0.963913
105.603 90.8019 159.324 -0.258667 0.062951 -0.963913
105.917 91.523 159.615 0.607935 0.0543286 -0.792126
106.08 90.7484 159.687 0.607935 0.0543286 -0.792126
105.603 90.8019 159.324 0.607935 0.0543286 -0.792126
105.513 91.3808 159.386 0.44243 0.162679 -0.881925
105.917 91.523 159.615 0.44243 0.162679 -0.881925
105.603 90.8019 159.324 0.44243 0.162679 -0.881925
105.917 91.523 159.615 0.142497 0.708209 -0.691472
105.513 91.3808 159.386 0.142497 0.708209 -0.691472
105.377 91.7798 159.767 0.142497 0.708209 -0.691472
104.834 88.7809 160.115 -0.455066 -0.785006 -0.420334
104.674 88.5666 160.688 -0.455066 -0.785006 -0.420334
104.455 88.8403 160.415 -0.455066 -0.785006 -0.420334
104.834 88.7809 160.115 0.223186 -0.770128 -0.59757
105.538 88.8313 160.313 0.223186 -0.770128 -0.59757
105.342 88.6039 160.533 0.223186 -0.770128 -0.59757
104.674 88.5666 160.688 -0.030912 -0.933315 -0.357726
104.834 88.7809 160.115 -0.030912 -0.933315 -0.357726
105.342 88.6039 160.533 -0.030912 -0.933315 -0.357726
105.342 88.6039 160.533 0.524476 -0.780731 -0.339683
105.538 88.8313 160.313 0.524476 -0.780731 -0.339683
105.645 88.7482 160.67 0.524476 -0.780731 -0.339683
104.727 89.5054 159.832 -0.611685 -0.364739 -0.702003
104.834 88.7809 160.115 -0.611685 -0.364739 -0.702003
104.455 88.8403 160.415 -0.611685 -0.364739 -0.702003
104.377 89.659 160.379 -0.851069 -0.102884 -0.514875
104.727 89.5054 159.832 -0.851069 -0.102884 -0.514875
104.455 88.8403 160.415 -0.851069 -0.102884 -0.514875
105.538 88.8313 160.313 0.260627 -0.56483 -0.782969
104.834 88.7809 160.115 0.260627 -0.56483 -0.782969
105.436 89.4127 159.86 0.260627 -0.56483 -0.782969
105.436 89.4127 159.86 -0.0112039 -0.3655 -0.930744
104.834 88.7809 160.115 -0.0112039 -0.3655 -0.930744
104.727 89.5054 159.832 -0.0112039 -0.3655 -0.930744
106.067 89.6398 160.512 0.820328 -0.450698 -0.352041
105.645 88.7482 160.67 0.820328 -0.450698 -0.352041
105.538 88.8313 160.313 0.820328 -0.450698 -0.352041
105.436 89.4127 159.86 0.732639 -0.333937 -0.593065
106.067 89.6398 160.512 0.732639 -0.333937 -0.593065
105.538 88.8313 160.313 0.732639 -0.333937 -0.593065
104.664 90.1909 159.613 -0.848138 -0.229643 -0.477416
104.727 89.5054 159.832 -0.848138 -0.229643 -0.477416
104.377 89.659 160.379 -0.848138 -0.229643 -0.477416
104.664 90.1909 159.613 -0.881455 -0.16267 -0.443368
104.377 89.659 160.379 -0.881455 -0.16267 -0.443368
104.499 90.5605 159.807 -0.881455 -0.16267 -0.443368
104.499 90.5605 159.807 -0.983885 0.0197215 -0.17771
104.377 89.659 160.379 -0.983885 0.0197215 -0.17771
104.361 90.4701 160.56 -0.983885 0.0197215 -0.17771
105.534 90.0746 159.615 -0.039255 -0.30652 -0.951055
104.727 89.5054 159.832 -0.039255 -0.30652 -0.951055
104.664 90.1909 159.613 -0.039255 -0.30652 -0.951055
105.436 89.4127 159.86 -0.00829669 -0.345567 -0.938357
104.727 89.5054 159.832 -0.00829669 -0.345567 -0.938357
105.534 90.0746 159.615 -0.00829669 -0.345567 -0.938357
106.08 90.7484 159.687 0.828162 -0.0686421 -0.55627
106.438 90.7491 160.22 0.828162 -0.0686421 -0.55627
106.415 90.4076 160.228 0.828162 -0.0686421 -0.55627
105.534 90.0746 159.615 0.619231 -0.432007 -0.655685
106.08 90.7484 159.687 0.619231 -0.432007 -0.655685
106.415 90.4076 160.228 0.619231 -0.432007 -0.655685
105.534 90.0746 159.615 0.613457 -0.502904 -0.608899
106.415 90.4076 160.228 0.613457 -0.502904 -0.608899
106.067 89.6398 160.512 0.613457 -0.502904 -0.608899
105.534 90.0746 159.615 0.733171 -0.32833 -0.595533
106.067 89.6398 160.512 0.733171 -0.32833 -0.595533
105.436 89.4127 159.86 0.733171 -0.32833 -0.595533
106.415 90.4076 160.228 0.937293 -0.0706295 -0.341312
106.438 90.7491 160.22 0.937293 -0.0706295 -0.341312
106.495 90.7342 160.38 0.937293 -0.0706295 -0.341312
104.564 91.3628 160.44 -0.698851 0.477254 -0.532762
104.884 90.8011 159.517 -0.698851 0.477254 -0.532762
104.499 90.5605 159.807 -0.698851 0.477254 -0.532762
104.564 91.3628 160.44 -0.967847 0.199505 -0.153197
104.499 90.5605 159.807 -0.967847 0.199505 -0.153197
104.361 90.4701 160.56 -0.967847 0.199505 -0.153197
104.884 90.8011 159.517 -0.69187 0.484879 -0.534984
104.564 91.3628 160.44 -0.69187 0.484879 -0.534984
105.377 91.7798 159.767 -0.69187 0.484879 -0.534984
106.438 90.7491 160.22 0.647076 0.625838 -0.435453
106.08 90.7484 159.687 0.647076 0.625838 -0.435453
105.974 91.3548 160.401 0.647076 0.625838 -0.435453
106.08 90.7484 159.687 0.978713 0.203405 -0.0273313
105.917 91.523 159.615 0.978713 0.203405 -0.0273313
105.974 91.3548 160.401 0.978713 0.203405 -0.0273313
106.495 90.7342 160.38 0.745674 0.633231 -0.207337
106.438 90.7491 160.22 0.745674 0.633231 -0.207337
105.974 91.3548 160.401 0.745674 0.633231 -0.207337
105.452 92.4762 160.332 -0.613075 0.744516 -0.264264
104.89 92.0993 160.572 -0.613075 0.744516 -0.264264
105.403 92.5105 160.54 -0.613075 0.744516 -0.264264
105.377 91.7798 159.767 -0.610249 0.537539 -0.581935
104.89 92.0993 160.572 -0.610249 0.537539 -0.581935
105.452 92.4762 160.332 -0.610249 0.537539 -0.581935
105.377 91.7798 159.767 -0.697177 0.413867 -0.585371
104.564 91.3628 160.44 -0.697177 0.413867 -0.585371
104.89 92.0993 160.572 -0.697177 0.413867 -0.585371
105.377 91.7798 159.767 0.484886 0.518715 -0.704145
105.452 92.4762 160.332 0.484886 0.518715 -0.704145
105.638 92.3156 160.342 0.484886 0.518715 -0.704145
105.377 91.7798 159.767 0.131609 0.694615 -0.70724
105.638 92.3156 160.342 0.131609 0.694615 -0.70724
105.917 91.523 159.615 0.131609 0.694615 -0.70724
105.917 91.523 159.615 0.944034 0.329839 0.00223621
105.638 92.3156 160.342 0.944034 0.329839 0.00223621
105.974 91.3548 160.401 0.944034 0.329839 0.00223621
105.452 92.4762 160.332 -0.664075 0.697842 -0.268365
105.403 92.5105 160.54 -0.664075 0.697842 -0.268365
105.556 92.6146 160.432 -0.664075 0.697842 -0.268365
105.638 92.3156 160.342 0.354995 0.357568 -0.863785
105.452 92.4762 160.332 0.354995 0.357568 -0.863785
105.556 92.6146 160.432 0.354995 0.357568 -0.863785
104.674 88.5666 160.688 -0.511953 -0.85847 -0.0305657
104.613 88.5793 161.361 -0.511953 -0.85847 -0.0305657
104.24 88.8079 161.175 -0.511953 -0.85847 -0.0305657
104.455 88.8403 160.415 -0.646947 -0.732104 -0.213269
104.674 88.5666 160.688 -0.646947 -0.732104 -0.213269
104.24 88.8079 161.175 -0.646947 -0.732104 -0.213269
105.342 88.6039 160.533 0.0779935 -0.992239 0.0968447
105.307 88.6804 161.344 0.0779935 -0.992239 0.0968447
104.674 88.5666 160.688 0.0779935 -0.992239 0.0968447
104.674 88.5666 160.688 0.144832 -0.988944 0.0318328
105.307 88.6804 161.344 0.144832 -0.988944 0.0318328
104.613 88.5793 161.361 0.144832 -0.988944 0.0318328
105.307 88.6804 161.344 0.388624 -0.91563 0.102921
105.342 88.6039 160.533 0.388624 -0.91563 0.102921
105.645 88.7482 160.67 0.388624 -0.91563 0.102921
105.665 88.9646 161.286 0.627155 -0.740922 0.240233
105.307 88.6804 161.344 0.627155 -0.740922 0.240233
105.645 88.7482 160.67 0.627155 -0.740922 0.240233
104.455 88.8403 160.415 -0.95639 -0.102371 -0.273565
104.24 88.8079 161.175 -0.95639 -0.102371 -0.273565
104.377 89.659 160.379 -0.95639 -0.102371 -0.273565
104.24 88.8079 161.175 -0.990419 0.0337649 -0.133907
104.25 89.6334 161.312 -0.990419 0.0337649 -0.133907
104.377 89.659 160.379 -0.990419 0.0337649 -0.133907
105.645 88.7482 160.67 0.905592 -0.408415 0.114456
106.067 89.6398 160.512 0.905592 -0.408415 0.114456
105.665 88.9646 161.286 0.905592 -0.408415 0.114456
105.665 88.9646 161.286 0.924115 -0.145933 0.353149
106.067 89.6398 160.512 0.924115 -0.145933 0.353149
105.726 89.7294 161.442 0.924115 -0.145933 0.353149
104.377 89.659 160.379 -0.990847 0.00997842 -0.134619
104.25 89.6334 161.312 -0.990847 0.00997842 -0.134619
104.361 90.4701 160.56 -0.990847 0.00997842 -0.134619
104.25 89.6334 161.312 -0.977727 0.196234 0.074443
104.443 90.5921 161.32 -0.977727 0.196234 0.074443
104.361 90.4701 160.56 -0.977727 0.196234 0.074443
106.388 90.5928 160.523 0.909412 -0.309106 0.278249
106.067 89.6398 160.512 0.909412 -0.309106 0.278249
106.415 90.4076 160.228 0.909412 -0.309106 0.278249
106.388 90.5928 160.523 0.734457 -0.254122 0.629281
105.81 90.7014 161.241 0.734457 -0.254122 0.629281
106.067 89.6398 160.512 0.734457 -0.254122 0.629281
105.81 90.7014 161.241 0.938449 -0.00970464 0.345281
105.726 89.7294 161.442 0.938449 -0.00970464 0.345281
106.067 89.6398 160.512 0.938449 -0.00970464 0.345281
106.415 90.4076 160.228 0.881933 -0.358075 0.306555
106.495 90.7342 160.38 0.881933 -0.358075 0.306555
106.388 90.5928 160.523 0.881933 -0.358075 0.306555
104.564 91.3101 161.315 -0.992787 0.119637 0.00779094
104.605 91.6652 161.051 -0.992787 0.119637 0.00779094
104.564 91.3628 160.44 -0.992787 0.119637 0.00779094
104.564 91.3101 161.315 -0.986015 0.16632 0.010604
104.564 91.3628 160.44 -0.986015 0.16632 0.010604
104.443 90.5921 161.32 -0.986015 0.16632 0.010604
104.443 90.5921 161.32 -0.970827 0.229843 0.0683083
104.564 91.3628 160.44 -0.970827 0.229843 0.0683083
104.361 90.4701 160.56 -0.970827 0.229843 0.0683083
104.564 91.3101 161.315 -0.552006 0.537324 0.63763
104.891 91.5984 161.354 -0.552006 0.537324 0.63763
104.605 91.6652 161.051 -0.552006 0.537324 0.63763
105.974 91.3548 160.401 0.720118 0.472692 0.50793
105.81 90.7014 161.241 0.720118 0.472692 0.50793
106.388 90.5928 160.523 0.720118 0.472692 0.50793
105.974 91.3548 160.401 0.875006 0.2845 0.391693
105.493 91.9128 161.071 0.875006 0.2845 0.391693
105.81 90.7014 161.241 0.875006 0.2845 0.391693
106.495 90.7342 160.38 0.502035 0.395796 0.768965
105.974 91.3548 160.401 0.502035 0.395796 0.768965
106.388 90.5928 160.523 0.502035 0.395796 0.768965
104.564 91.3628 160.44 -0.893829 0.422886 -0.149119
104.605 91.6652 161.051 -0.893829 0.422886 -0.149119
104.89 92.0993 160.572 -0.893829 0.422886 -0.149119
105.403 92.5105 160.54 -0.217458 0.630217 0.745345
105.493 91.9128 161.071 -0.217458 0.630217 0.745345
105.56 92.5232 160.575 -0.217458 0.630217 0.745345
104.89 92.0993 160.572 -0.41186 0.570404 0.710641
105.493 91.9128 161.071 -0.41186 0.570404 0.710641
105.403 92.5105 160.54 -0.41186 0.570404 0.710641
104.89 92.0993 160.572 -0.182827 0.82785 0.530319
104.891 91.5984 161.354 -0.182827 0.82785 0.530319
105.493 91.9128 161.071 -0.182827 0.82785 0.530319
104.89 92.0993 160.572 -0.352395 0.787976 0.504887
104.605 91.6652 161.051 -0.352395 0.787976 0.504887
104.891 91.5984 161.354 -0.352395 0.787976 0.504887
105.56 92.5232 160.575 0.965778 0.0904816 0.243077
105.493 91.9128 161.071 0.965778 0.0904816 0.243077
105.638 92.3156 160.342 0.965778 0.0904816 0.243077
105.638 92.3156 160.342 0.875207 0.327597 0.355939
105.493 91.9128 161.071 0.875207 0.327597 0.355939
105.974 91.3548 160.401 0.875207 0.327597 0.355939
105.403 92.5105 160.54 -0.18598 0.824944 0.533741
105.56 92.5232 160.575 -0.18598 0.824944 0.533741
105.556 92.6146 160.432 -0.18598 0.824944 0.533741
105.638 92.3156 160.342 0.966142 0.228205 0.120387
105.556 92.6146 160.432 0.966142 0.228205 0.120387
105.56 92.5232 160.575 0.966142 0.228205 0.120387
104.613 88.5793 161.361 -0.620004 -0.592035 0.514868
104.638 88.9017 161.762 -0.620004 -0.592035 0.514868
104.24 88.8079 161.175 -0.620004 -0.592035 0.514868
104.638 88.9017 161.762 0.127884 -0.776891 0.616512
104.613 88.5793 161.361 0.127884 -0.776891 0.616512
105.307 88.6804 161.344 0.127884 -0.776891 0.616512
104.638 88.9017 161.762 -0.774213 -0.0215882 0.632557
104.684 89.8135 161.85 -0.774213 -0.0215882 0.632557
104.25 89.6334 161.312 -0.774213 -0.0215882 0.632557
104.24 88.8079 161.175 -0.818489 -0.0845791 0.568263
104.638 88.9017 161.762 -0.818489 -0.0845791 0.568263
104.25 89.6334 161.312 -0.818489 -0.0845791 0.568263
105.307 88.6804 161.344 0.306306 -0.54585 0.779887
105.377 89.4361 161.846 0.306306 -0.54585 0.779887
104.638 88.9017 161.762 0.306306 -0.54585 0.779887
105.377 89.4361 161.846 -0.0454417 -0.0934886 0.994583
104.684 89.8135 161.85 -0.0454417 -0.0934886 0.994583
104.638 88.9017 161.762 -0.0454417 -0.0934886 0.994583
105.665 88.9646 161.286 0.804675 -0.179673 0.565877
105.726 89.7294 161.442 0.804675 -0.179673 0.565877
105.377 89.4361 161.846 0.804675 -0.179673 0.565877
105.307 88.6804 161.344 0.514752 -0.506527 0.691709
105.665 88.9646 161.286 0.514752 -0.506527 0.691709
105.377 89.4361 161.846 0.514752 -0.506527 0.691709
104.684 89.8135 161.85 -0.833508 0.10993 0.541461
104.75 90.7834 161.754 -0.833508 0.10993 0.541461
104.443 90.5921 161.32 -0.833508 0.10993 0.541461
104.25 89.6334 161.312 -0.793274 0.154646 0.588898
104.684 89.8135 161.85 -0.793274 0.154646 0.588898
104.443 90.5921 161.32 -0.793274 0.154646 0.588898
105.377 89.4361 161.846 -0.0311466 -0.067294 0.997247
105.405 90.4123 161.913 -0.0311466 -0.067294 0.997247
104.684 89.8135 161.85 -0.0311466 -0.067294 0.997247
105.405 90.4123 161.913 -0.175329 0.108108 0.978556
104.75 90.7834 161.754 -0.175329 0.108108 0.978556
104.684 89.8135 161.85 -0.175329 0.108108 0.978556
105.726 89.7294 161.442 0.848528 0.0357498 0.527942
105.81 90.7014 161.241 0.848528 0.0357498 0.527942
105.405 90.4123 161.913 0.848528 0.0357498 0.527942
105.377 89.4361 161.846 0.777498 -0.0650348 0.625514
105.726 89.7294 161.442 0.777498 -0.0650348 0.625514
105.405 90.4123 161.913 0.777498 -0.0650348 0.625514
104.443 90.5921 161.32 -0.836661 0.145319 0.528092
104.75 90.7834 161.754 -0.836661 0.145319 0.528092
104.564 91.3101 161.315 -0.836661 0.145319 0.528092
104.891 91.5984 161.354 -0.488855 0.450865 0.746821
104.564 91.3101 161.315 -0.488855 0.450865 0.746821
104.75 90.7834 161.754 -0.488855 0.450865 0.746821
104.891 91.5984 161.354 -0.222458 0.460302 0.859439
104.75 90.7834 161.754 -0.222458 0.460302 0.859439
105.389 91.3051 161.64 -0.222458 0.460302 0.859439
105.389 91.3051 161.64 -0.066402 0.289982 0.954726
104.75 90.7834 161.754 -0.066402 0.289982 0.954726
105.405 90.4123 161.913 -0.066402 0.289982 0.954726
105.81 90.7014 161.241 0.842609 0.285147 0.456838
105.493 91.9128 161.071 0.842609 0.285147 0.456838
105.389 91.3051 161.64 0.842609 0.285147 0.456838
105.405 90.4123 161.913 0.803522 0.18605 0.565453
105.81 90.7014 161.241 0.803522 0.18605 0.565453
105.389 91.3051 161.64 0.803522 0.18605 0.565453
104.891 91.5984 161.354 -0.01505 0.685062 0.728329
105.389 91.3051 161.64 -0.01505 0.685062 0.728329
105.493 91.9128 161.071 -0.01505 0.685062 0.728329
3 0 1 2
3 3 4 5
3 6 7 8
3 9 10 11
3 12 13 14
3 15 16 17
3 18 19 20
3 21 22 23
3 24 25 26
3 27 28 29
3 30 31 32
3 33 34 35
3 36 37 38
3 39 40 41
3 42 43 44
3 45 46 47
3 48 49 50
3 51 52 53
3 54 55 56
3 57 58 59
3 60 61 62
3 63 64 65
3 66 67 68
3 69 70 71
3 72 73 74
3 75 76 77
3 78 79 80
3 81 82 83
3 84 85 86
3 87 88 89
3 90 91 92
3 93 94 95
3 96 97 98
3 99 100 101
3 102 103 104
3 105 106 107
3 108 109 110
3 111 112 113
3 114 115 116
3 117 118 119
3 120 121 122
3 123 124 125
3 126 127 128
3 129 130 131
3 132 133 134
3 135 136 137
3 138 139 140
3 141 142 143
3 144 145 146
3 147 148 149
3 150 151 152
3 153 154 155
3 156 157 158
3 159 160 161
3 162 163 164
3 165 166 167
3 168 169 170
3 171 172 173
3 174 175 176
3 177 178 179
3 180 181 182
3 183 184 185
3 186 187 188
3 189 190 191
3 192 193 194
3 195 196 197
3 198 199 200
3 201 202 203
3 204 205 206
3 207 208 209
3 210 211 212
3 213 214 215
3 216 217 218
3 219 220 221
3 222 223 224
3 225 226 227
3 228 229 230
3 231 232 233
3 234 235 236
3 237 238 239
3 240 241 242
3 243 244 245
3 246 247 248
3 249 250 251
3 252 253 254
3 255 256 257
3 258 259 260
3 261 262 263
3 264 265 266
3 267 268 269
3 270 271 272
3 273 274 275
3 276 277 278
3 279 280 281
3 282 283 284
3 285 286 287
