ply
format ascii 1.0
element vertex 348
property float x
property float y
property float z
property float nx
property float ny
property float nz
element face 116
property list uint uint vertex_indices
end_header
48.4978 145.942 162.858 -0.558411 0.177002 -0.810461
48.4186 145.574 162.832 -0.558411 0.177002 -0.810461
47.6867 145.717 163.367 -0.558411 0.177002 -0.810461
48.4978 145.942 162.858 -0.0805772 0.140516 -0.986794
49.3736 145.994 162.794 -0.0805772 0.140516 -0.986794
49.1834 145.319 162.713 -0.0805772 0.140516 -0.986794
48.4186 145.574 162.832 -0.121639 0.0955906 -0.987961
48.4978 145.942 162.858 -0.121639 0.0955906 -0.987961
49.1834 145.319 162.713 -0.121639 0.0955906 -0.987961
49.1834 145.319 162.713 0.246839 0.046 -0.967964
49.3736 145.994 162.794 0.246839 0.046 -0.967964
49.7297 145.793 162.875 0.246839 0.046 -0.967964
48.4462 145.009 163.387 -0.158618 -0.870818 -0.465313
49.6576 145.006 162.979 -0.158618 -0.870818 -0.465313
49.4887 144.668 163.671 -0.158618 -0.870818 -0.465313
48.5841 144.63 163.914 -0.116475 -0.820558 -0.559569
48.4462 145.009 163.387 -0.116475 -0.820558 -0.559569
49.4887 144.668 163.671 -0.116475 -0.820558 -0.559569
49.6576 145.006 162.979 0.424614 -0.555028 -0.715295
50.4518 145.039 163.425 0.424614 -0.555028 -0.715295
50.3104 144.739 163.574 0.424614 -0.555028 -0.715295
49.4887 144.668 163.671 0.0273243 -0.900339 -0.434331
49.6576 145.006 162.979 0.0273243 -0.900339 -0.434331
50.3104 144.739 163.574 0.0273243 -0.900339 -0.434331
50.3104 144.739 163.574 0.664204 -0.559088 -0.496239
50.4518 145.039 163.425 0.664204 -0.559088 -0.496239
50.6074 144.906 163.783 0.664204 -0.559088 -0.496239
47.6867 145.717 163.367 -0.783251 -0.2109 -0.584841
47.452 145.455 163.776 -0.783251 -0.2109 -0.584841
47.2982 145.805 163.856 -0.783251 -0.2109 -0.584841
48.4462 145.009 163.387 -0.507676 -0.562887 -0.652246
47.452 145.455 163.776 -0.507676 -0.562887 -0.652246
47.6867 145.717 163.367 -0.507676 -0.562887 -0.652246
48.4462 145.009 163.387 -0.545055 -0.601141 -0.584418
47.6867 145.717 163.367 -0.545055 -0.601141 -0.584418
48.4186 145.574 162.832 -0.545055 -0.601141 -0.584418
49.1834 145.319 162.713 -0.326607 -0.670652 -0.665999
48.4462 145.009 163.387 -0.326607 -0.670652 -0.665999
48.4186 145.574 162.832 -0.326607 -0.670652 -0.665999
49.6576 145.006 162.979 -0.196772 -0.790984 -0.579332
48.4462 145.009 163.387 -0.196772 -0.790984 -0.579332
49.1834 145.319 162.713 -0.196772 -0.790984 -0.579332
49.7297 145.793 162.875 0.403004 -0.156752 -0.901674
49.6576 145.006 162.979 0.403004 -0.156752 -0.901674
49.1834 145.319 162.713 0.403004 -0.156752 -0.901674
49.7297 145.793 162.875 0.527091 -0.159219 -0.83476
50.3431 145.622 163.295 0.527091 -0.159219 -0.83476
49.6576 145.006 162.979 0.527091 -0.159219 -0.83476
50.3431 145.622 163.295 0.490111 -0.102208 -0.865647
50.4518 145.039 163.425 0.490111 -0.102208 -0.865647
49.6576 145.006 162.979 0.490111 -0.102208 -0.865647
50.6568 145.697 163.798 0.909227 -0.0493471 -0.413366
50.6074 144.906 163.783 0.909227 -0.0493471 -0.413366
50.4518 145.039 163.425 0.909227 -0.0493471 -0.413366
50.3431 145.622 163.295 0.845205 0.0383978 -0.533061
50.6568 145.697 163.798 0.845205 0.0383978 -0.533061
50.4518 145.039 163.425 0.845205 0.0383978 -0.533061
47.6867 145.717 163.367 -0.732645 0.258235 -0.629719
47.2982 145.805 163.856 -0.732645 0.258235 -0.629719
47.6586 146.116 163.563 -0.732645 0.258235 -0.629719
48.4029 146.634 163.399 -0.563323 0.645675 -0.51553
47.6586 146.116 163.563 -0.563323 0.645675 -0.51553
48.0991 146.744 163.869 -0.563323 0.645675 -0.51553
48.4978 145.942 162.858 -0.499224 0.490767 -0.71409
47.6586 146.116 163.563 -0.499224 0.490767 -0.71409
48.4029 146.634 163.399 -0.499224 0.490767 -0.71409
48.4978 145.942 162.858 -0.566259 0.3314 -0.754669
47.6867 145.717 163.367 -0.566259 0.3314 -0.754669
47.6586 146.116 163.563 -0.566259 0.3314 -0.754669
48.4978 145.942 162.858 -0.0935869 0.581394 -0.808221
49.191 146.673 163.303 -0.0935869 0.581394 -0.808221
49.3736 145.994 162.794 -0.0935869 0.581394 -0.808221
48.4029 146.634 163.399 -0.126234 0.600857 -0.789326
49.191 146.673 163.303 -0.126234 0.600857 -0.789326
48.4978 145.942 162.858 -0.126234 0.600857 -0.789326
49.3736 145.994 162.794 0.305873 0.622722 -0.72018
49.191 146.673 163.303 0.305873 0.622722 -0.72018
49.8046 146.738 163.62 0.305873 0.622722 -0.72018
49.7297 145.793 162.875 0.460483 0.52679 -0.714457
49.3736 145.994 162.794 0.460483 0.52679 -0.714457
49.8046 146.738 163.62 0.460483 0.52679 -0.714457
49.7297 145.793 162.875 0.486105 0.516975 -0.704584
49.8046 146.738 163.62 0.486105 0.516975 -0.704584
50.3811 146.109 163.556 0.486105 0.516975 -0.704584
49.7297 145.793 162.875 0.5939 0.343849 -0.727359
50.3811 146.109 163.556 0.5939 0.343849 -0.727359
50.3431 145.622 163.295 0.5939 0.343849 -0.727359
50.6568 145.697 163.798 0.81082 0.226355 -0.539755
50.3431 145.622 163.295 0.81082 0.226355 -0.539755
50.3811 146.109 163.556 0.81082 0.226355 -0.539755
48.4029 146.634 163.399 -0.366017 0.825318 -0.429979
48.0991 146.744 163.869 -0.366017 0.825318 -0.429979
48.699 146.943 163.74 -0.366017 0.825318 -0.429979
49.191 146.673 163.303 -0.113509 0.783129 -0.611412
48.4029 146.634 163.399 -0.113509 0.783129 -0.611412
48.699 146.943 163.74 -0.113509 0.783129 -0.611412
49.3706 146.969 163.678 -0.0858469 0.801608 -0.591655
49.191 146.673 163.303 -0.0858469 0.801608 -0.591655
48.699 146.943 163.74 -0.0858469 0.801608 -0.591655
49.8046 146.738 163.62 0.274912 0.686353 -0.673307
49.191 146.673 163.303 0.274912 0.686353 -0.673307
49.3706 146.969 163.678 0.274912 0.686353 -0.673307
47.6911 144.817 164.443 -0.430296 -0.78248 -0.450079
48.4462 145.009 163.387 -0.430296 -0.78248 -0.450079
48.5841 144.63 163.914 -0.430296 -0.78248 -0.450079
47.6911 144.817 164.443 -0.342207 -0.903237 -0.258953
48.5841 144.63 163.914 -0.342207 -0.903237 -0.258953
48.5601 144.428 164.652 -0.342207 -0.903237 -0.258953
49.4887 144.668 163.671 0.0204608 -0.996843 -0.0767099
49.4764 144.603 164.502 0.0204608 -0.996843 -0.0767099
48.5841 144.63 163.914 0.0204608 -0.996843 -0.0767099
48.5841 144.63 163.914 0.140985 -0.955874 -0.257737
49.4764 144.603 164.502 0.140985 -0.955874 -0.257737
48.5601 144.428 164.652 0.140985 -0.955874 -0.257737
50.3104 144.739 163.574 0.0622037 -0.978688 -0.195704
50.3372 144.594 164.308 0.0622037 -0.978688 -0.195704
49.4887 144.668 163.671 0.0622037 -0.978688 -0.195704
49.4887 144.668 163.671 -0.0282204 -0.9966 -0.0774112
50.3372 144.594 164.308 -0.0282204 -0.9966 -0.0774112
49.4764 144.603 164.502 -0.0282204 -0.9966 -0.0774112
50.3372 144.594 164.308 0.575181 -0.79825 -0.178785
50.3104 144.739 163.574 0.575181 -0.79825 -0.178785
50.6074 144.906 163.783 0.575181 -0.79825 -0.178785
50.6136 145.084 164.507 0.842743 -0.524333 0.121893
50.3372 144.594 164.308 0.842743 -0.524333 0.121893
50.6074 144.906 163.783 0.842743 -0.524333 0.121893
47.452 145.455 163.776 -0.547047 -0.694156 -0.467854
47.6911 144.817 164.443 -0.547047 -0.694156 -0.467854
47.1069 145.211 164.541 -0.547047 -0.694156 -0.467854
47.452 145.455 163.776 -0.844555 -0.264972 -0.465313
47.1069 145.211 164.541 -0.844555 -0.264972 -0.465313
47.2982 145.805 163.856 -0.844555 -0.264972 -0.465313
47.2982 145.805 163.856 -0.971238 0.225972 -0.0750599
47.1069 145.211 164.541 -0.971238 0.225972 -0.0750599
47.246 145.816 164.561 -0.971238 0.225972 -0.0750599
48.4462 145.009 163.387 -0.509208 -0.705779 -0.492527
47.6911 144.817 164.443 -0.509208 -0.705779 -0.492527
47.452 145.455 163.776 -0.509208 -0.705779 -0.492527
50.6074 144.906 163.783 0.998026 -0.0624395 0.00678302
50.6568 145.697 163.798 0.998026 -0.0624395 0.00678302
50.6136 145.084 164.507 0.998026 -0.0624395 0.00678302
50.6136 145.084 164.507 0.997573 -0.0696233 0.000547546
50.6568 145.697 163.798 0.997573 -0.0696233 0.000547546
50.6739 145.948 164.652 0.997573 -0.0696233 0.000547546
47.2982 145.805 163.856 -0.938938 0.335978 -0.0742635
47.246 145.816 164.561 -0.938938 0.335978 -0.0742635
47.4593 146.376 164.4 -0.938938 0.335978 -0.0742635
47.6586 146.116 163.563 -0.757822 0.549557 -0.3517
47.2982 145.805 163.856 -0.757822 0.549557 -0.3517
47.4593 146.376 164.4 -0.757822 0.549557 -0.3517
47.4593 146.376 164.4 -0.671692 0.646687 -0.361421
48.0991 146.744 163.869 -0.671692 0.646687 -0.361421
47.6586 146.116 163.563 -0.671692 0.646687 -0.361421
47.793 146.716 164.76 -0.599178 0.779668 -0.181942
48.0991 146.744 163.869 -0.599178 0.779668 -0.181942
47.4593 146.376 164.4 -0.599178 0.779668 -0.181942
50.3811 146.109 163.556 0.551326 0.567329 -0.611701
49.8046 146.738 163.62 0.551326 0.567329 -0.611701
50.5954 146.835 164.423 0.551326 0.567329 -0.611701
50.3811 146.109 163.556 0.839936 0.295422 -0.455228
50.5954 146.835 164.423 0.839936 0.295422 -0.455228
50.6568 145.697 163.798 0.839936 0.295422 -0.455228
50.6568 145.697 163.798 0.996111 0.077128 -0.0425854
50.5954 146.835 164.423 0.996111 0.077128 -0.0425854
50.6739 145.948 164.652 0.996111 0.077128 -0.0425854
48.0991 146.744 163.869 -0.33208 0.939392 -0.0852351
47.793 146.716 164.76 -0.33208 0.939392 -0.0852351
48.5418 146.965 164.58 -0.33208 0.939392 -0.0852351
48.699 146.943 163.74 -0.329969 0.939999 -0.0867381
48.0991 146.744 163.869 -0.329969 0.939999 -0.0867381
48.5418 146.965 164.58 -0.329969 0.939999 -0.0867381
49.3706 146.969 163.678 -0.058697 0.97364 -0.220408
48.699 146.943 163.74 -0.058697 0.97364 -0.220408
49.5087 147.142 164.404 -0.058697 0.97364 -0.220408
48.699 146.943 163.74 -0.190428 0.97976 -0.061702
48.5418 146.965 164.58 -0.190428 0.97976 -0.061702
49.5087 147.142 164.404 -0.190428 0.97976 -0.061702
49.8046 146.738 163.62 0.420431 0.861447 -0.284863
49.3706 146.969 163.678 0.420431 0.861447 -0.284863
49.5087 147.142 164.404 0.420431 0.861447 -0.284863
49.8046 146.738 163.62 -0.336801 0.779382 -0.528326
49.5087 147.142 164.404 -0.336801 0.779382 -0.528326
50.3855 147.561 164.463 -0.336801 0.779382 -0.528326
49.8046 146.738 163.62 0.678206 0.234813 -0.696347
50.3855 147.561 164.463 0.678206 0.234813 -0.696347
50.5954 146.835 164.423 0.678206 0.234813 -0.696347
50.322 147.565 164.748 -0.422677 0.899845 -0.107807
50.3855 147.561 164.463 -0.422677 0.899845 -0.107807
49.5087 147.142 164.404 -0.422677 0.899845 -0.107807
50.3855 147.561 164.463 0.403109 0.166476 -0.899883
50.5907 147.674 164.576 0.403109 0.166476 -0.899883
50.5954 146.835 164.423 0.403109 0.166476 -0.899883
50.3855 147.561 164.463 -0.753154 0.63351 -0.177269
50.322 147.565 164.748 -0.753154 0.63351 -0.177269
50.5493 147.796 164.609 -0.753154 0.63351 -0.177269
50.5907 147.674 164.576 0.299957 0.343811 -0.889842
50.3855 147.561 164.463 0.299957 0.343811 -0.889842
50.5493 147.796 164.609 0.299957 0.343811 -0.889842
47.6911 144.817 164.443 -0.551304 -0.832094 0.0606902
47.4717 145.008 165.074 -0.551304 -0.832094 0.0606902
47.1069 145.211 164.541 -0.551304 -0.832094 0.0606902
47.6911 144.817 164.443 -0.45325 -0.791276 0.410423
48.5601 144.428 164.652 -0.45325 -0.791276 0.410423
48.2466 144.911 165.237 -0.45325 -0.791276 0.410423
47.4717 145.008 165.074 -0.169355 -0.957964 0.23157
47.6911 144.817 164.443 -0.169355 -0.957964 0.23157
48.2466 144.911 165.237 -0.169355 -0.957964 0.23157
48.5601 144.428 164.652 0.234503 -0.893054 0.38401
49.4764 144.603 164.502 0.234503 -0.893054 0.38401
49.3841 144.903 165.255 0.234503 -0.893054 0.38401
48.2466 144.911 165.237 -0.015009 -0.774981 0.631806
48.5601 144.428 164.652 -0.015009 -0.774981 0.631806
49.3841 144.903 165.255 -0.015009 -0.774981 0.631806
49.4764 144.603 164.502 0.0874923 -0.897223 0.432823
50.3372 144.594 164.308 0.0874923 -0.897223 0.432823
50.2771 144.873 164.899 0.0874923 -0.897223 0.432823
49.3841 144.903 165.255 0.120628 -0.917218 0.379683
49.4764 144.603 164.502 0.120628 -0.917218 0.379683
50.2771 144.873 164.899 0.120628 -0.917218 0.379683
50.3372 144.594 164.308 0.752501 -0.562606 0.342369
50.6136 145.084 164.507 0.752501 -0.562606 0.342369
50.2771 144.873 164.899 0.752501 -0.562606 0.342369
47.4717 145.008 165.074 -0.822524 0.0150047 0.568533
47.6528 145.85 165.314 -0.822524 0.0150047 0.568533
47.1069 145.211 164.541 -0.822524 0.0150047 0.568533
47.1069 145.211 164.541 -0.868141 0.184425 0.460781
47.6528 145.85 165.314 -0.868141 0.184425 0.460781
47.246 145.816 164.561 -0.868141 0.184425 0.460781
48.2466 144.911 165.237 -0.227397 -0.22131 0.948321
47.6528 145.85 165.314 -0.227397 -0.22131 0.948321
47.4717 145.008 165.074 -0.227397 -0.22131 0.948321
48.6409 145.323 165.579 -0.402443 -0.324468 0.856014
47.6528 145.85 165.314 -0.402443 -0.324468 0.856014
48.2466 144.911 165.237 -0.402443 -0.324468 0.856014
49.3841 144.903 165.255 -0.0163545 -0.628818 0.77738
48.6409 145.323 165.579 -0.0163545 -0.628818 0.77738
48.2466 144.911 165.237 -0.0163545 -0.628818 0.77738
49.5573 145.388 165.575 0.0434819 -0.560879 0.826755
48.6409 145.323 165.579 0.0434819 -0.560879 0.826755
49.3841 144.903 165.255 0.0434819 -0.560879 0.826755
49.5573 145.388 165.575 0.423828 -0.361623 0.830421
50.3429 145.634 165.282 0.423828 -0.361623 0.830421
50.0263 145.976 165.592 0.423828 -0.361623 0.830421
49.5573 145.388 165.575 0.438236 -0.598716 0.670439
49.3841 144.903 165.255 0.438236 -0.598716 0.670439
50.3429 145.634 165.282 0.438236 -0.598716 0.670439
49.3841 144.903 165.255 0.318252 -0.447299 0.835847
50.2771 144.873 164.899 0.318252 -0.447299 0.835847
50.3429 145.634 165.282 0.318252 -0.447299 0.835847
50.6136 145.084 164.507 0.902991 -0.131805 0.408943
50.6739 145.948 164.652 0.902991 -0.131805 0.408943
50.3429 145.634 165.282 0.902991 -0.131805 0.408943
50.2771 144.873 164.899 0.797401 -0.324482 0.508785
50.6136 145.084 164.507 0.797401 -0.324482 0.508785
50.3429 145.634 165.282 0.797401 -0.324482 0.508785
47.4593 146.376 164.4 -0.804029 0.425568 0.415247
47.246 145.816 164.561 -0.804029 0.425568 0.415247
47.6528 145.85 165.314 -0.804029 0.425568 0.415247
47.6528 145.85 165.314 -0.829141 0.390289 0.40025
47.793 146.716 164.76 -0.829141 0.390289 0.40025
47.4593 146.376 164.4 -0.829141 0.390289 0.40025
48.1167 146.673 165.422 -0.811709 0.402295 0.423422
47.793 146.716 164.76 -0.811709 0.402295 0.423422
47.6528 145.85 165.314 -0.811709 0.402295 0.423422
50.3693 146.75 165.257 0.69955 -0.000631884 0.714584
50.0263 145.976 165.592 0.69955 -0.000631884 0.714584
50.3429 145.634 165.282 0.69955 -0.000631884 0.714584
50.6739 145.948 164.652 0.949447 0.154585 0.273228
50.5954 146.835 164.423 0.949447 0.154585 0.273228
50.3693 146.75 165.257 0.949447 0.154585 0.273228
50.3429 145.634 165.282 0.887293 -0.0107021 0.461083
50.6739 145.948 164.652 0.887293 -0.0107021 0.461083
50.3693 146.75 165.257 0.887293 -0.0107021 0.461083
47.793 146.716 164.76 -0.436872 0.857943 0.270328
48.1167 146.673 165.422 -0.436872 0.857943 0.270328
48.426 146.857 165.338 -0.436872 0.857943 0.270328
48.5418 146.965 164.58 -0.293884 0.951497 0.0910301
47.793 146.716 164.76 -0.293884 0.951497 0.0910301
48.426 146.857 165.338 -0.293884 0.951497 0.0910301
49.5087 147.142 164.404 -0.14558 0.97324 0.177793
48.5418 146.965 164.58 -0.14558 0.97324 0.177793
49.3845 146.957 165.311 -0.14558 0.97324 0.177793
48.5418 146.965 164.58 -0.100298 0.986985 0.125703
48.426 146.857 165.338 -0.100298 0.986985 0.125703
49.3845 146.957 165.311 -0.100298 0.986985 0.125703
50.322 147.565 164.748 0.042898 0.530664 0.846496
50.3693 146.75 165.257 0.042898 0.530664 0.846496
50.5666 147.588 164.722 0.042898 0.530664 0.846496
50.322 147.565 164.748 0.157061 0.529334 0.833749
49.3845 146.957 165.311 0.157061 0.529334 0.833749
50.3693 146.75 165.257 0.157061 0.529334 0.833749
50.322 147.565 164.748 -0.494451 0.862531 0.107514
49.5087 147.142 164.404 -0.494451 0.862531 0.107514
49.3845 146.957 165.311 -0.494451 0.862531 0.107514
50.5954 146.835 164.423 0.988336 -0.0219401 0.150697
50.5907 147.674 164.576 0.988336 -0.0219401 0.150697
50.5666 147.588 164.722 0.988336 -0.0219401 0.150697
50.3693 146.75 165.257 0.964781 -0.0642603 0.255086
50.5954 146.835 164.423 0.964781 -0.0642603 0.255086
50.5666 147.588 164.722 0.964781 -0.0642603 0.255086
50.322 147.565 164.748 0.0513088 0.477385 0.877195
50.5666 147.588 164.722 0.0513088 0.477385 0.877195
50.5493 147.796 164.609 0.0513088 0.477385 0.877195
50.5907 147.674 164.576 0.927812 0.233796 0.290695
50.5493 147.796 164.609 0.927812 0.233796 0.290695
50.5666 147.588 164.722 0.927812 0.233796 0.290695
47.6528 145.85 165.314 -0.378339 -0.263519 0.887365
48.6409 145.323 165.579 -0.378339 -0.263519 0.887365
48.5789 145.977 165.747 -0.378339 -0.263519 0.887365
48.6409 145.323 165.579 0.0303781 -0.372865 0.927388
49.5573 145.388 165.575 0.0303781 -0.372865 0.927388
49.337 145.824 165.758 0.0303781 -0.372865 0.927388
48.5789 145.977 165.747 -0.0651094 -0.253759 0.965074
48.6409 145.323 165.579 -0.0651094 -0.253759 0.965074
49.337 145.824 165.758 -0.0651094 -0.253759 0.965074
49.5573 145.388 165.575 0.277998 -0.247912 0.928039
50.0263 145.976 165.592 0.277998 -0.247912 0.928039
49.337 145.824 165.758 0.277998 -0.247912 0.928039
48.1167 146.673 165.422 -0.391386 0.101156 0.91465
47.6528 145.85 165.314 -0.391386 0.101156 0.91465
48.5158 146.639 165.596 -0.391386 0.101156 0.91465
48.5158 146.639 165.596 -0.435794 0.160056 0.885701
47.6528 145.85 165.314 -0.435794 0.160056 0.885701
48.5789 145.977 165.747 -0.435794 0.160056 0.885701
49.337 145.824 165.758 0.0100514 0.121002 0.992601
49.436 146.549 165.668 0.0100514 0.121002 0.992601
48.5789 145.977 165.747 0.0100514 0.121002 0.992601
49.436 146.549 165.668 -0.0553935 0.216535 0.974702
48.5158 146.639 165.596 -0.0553935 0.216535 0.974702
48.5789 145.977 165.747 -0.0553935 0.216535 0.974702
50.0263 145.976 165.592 0.348628 0.237822 0.906586
50.3693 146.75 165.257 0.348628 0.237822 0.906586
49.436 146.549 165.668 0.348628 0.237822 0.906586
49.337 145.824 165.758 0.214214 0.090673 0.972569
50.0263 145.976 165.592 0.214214 0.090673 0.972569
49.436 146.549 165.668 0.214214 0.090673 0.972569
48.1167 146.673 165.422 -0.234764 0.702113 0.672253
48.5158 146.639 165.596 -0.234764 0.702113 0.672253
48.426 146.857 165.338 -0.234764 0.702113 0.672253
49.3845 146.957 165.311 -0.060961 0.753233 0.654923
48.426 146.857 165.338 -0.060961 0.753233 0.654923
48.5158 146.639 165.596 -0.060961 0.753233 0.654923
49.436 146.549 165.668 0.00521865 0.659465 0.751717
49.3845 146.957 165.311 0.00521865 0.659465 0.751717
48.5158 146.639 165.596 0.00521865 0.659465 0.751717
50.3693 146.75 165.257 0.179013 0.661134 0.728598
49.3845 146.957 165.311 0.179013 0.661134 0.728598
49.436 146.549 165.668 0.179013 0.661134 0.728598
3 0 1 2
3 3 4 5
3 6 7 8
3 9 10 11
3 12 13 14
3 15 16 17
3 18 19 20
3 21 22 23
3 24 25 26
3 27 28 29
3 30 31 32
3 33 34 35
3 36 37 38
3 39 40 41
3 42 43 44
3 45 46 47
3 48 49 50
3 51 52 53
3 54 55 56
3 57 58 59
3 60 61 62
3 63 64 65
3 66 67 68
3 69 70 71
3 72 73 74
3 75 76 77
3 78 79 80
3 81 82 83
3 84 85 86
3 87 88 89
3 90 91 92
3 93 94 95
3 96 97 98
3 99 100 101
3 102 103 104
3 105 106 107
3 108 109 110
3 111 112 113
3 114 115 116
3 117 118 119
3 120 121 122
3 123 124 125
3 126 127 128
3 129 130 131
3 132 133 134
3 135 136 137
3 138 139 140
3 141 142 143
3 144 145 146
3 147 148 149
3 150 151 152
3 153 154 155
3 156 157 158
3 159 160 161
3 162 163 164
3 165 166 167
3 168 169 170
3 171 172 173
3 174 175 176
3 177 178 179
3 180 181 182
3 183 184 185
3 186 187 188
3 189 190 191
3 192 193 194
3 195 196 197
3 198 199 200
3 201 202 203
3 204 205 206
3 207 208 209
3 210 211 212
3 213 214 215
3 216 217 218
3 219 220 221
3 222 223 224
3 225 226 227
3 228 229 230
3 231 232 233
3 234 235 236
3 237 238 239
3 240 241 242
3 243 244 245
3 246 247 248
3 249 250 251
3 252 253 254
3 255 256 257
3 258 259 260
3 261 262 263
3 264 265 266
3 267 268 269
3 270 271 272
3 273 274 275
3 276 277 278
3 279 280 281
3 282 283 284
3 285 286 287
3 288 289 290
3 291 292 293
3 294 295 296
3 297 298 299
3 300 301 302
3 303 304 305
3 306 307 308
3 309 310 311
3 312 313 314
3 315 316 317
3 318 319 320
3 321 322 323
3 324 325 326
3 327 328 329
3 330 331 332
3 333 334 335
3 336 337 338
3 339 340 341
3 342 343 344
3 345 346 347
