ply
format ascii 1.0
element vertex 228
property float x
property float y
property float z
property float nx
property float ny
property float nz
element face 76
property list uint uint vertex_indices
end_header
129.917 171.106 146.557 -0.197031 -0.637632 -0.744717
129.723 170.504 147.124 -0.197031 -0.637632 -0.744717
128.995 171.062 146.839 -0.197031 -0.637632 -0.744717
129.917 171.106 146.557 0.177608 -0.656223 -0.733367
130.845 171.117 146.772 0.177608 -0.656223 -0.733367
130.61 170.75 147.043 0.177608 -0.656223 -0.733367
129.723 170.504 147.124 0.131056 -0.70166 -0.700356
129.917 171.106 146.557 0.131056 -0.70166 -0.700356
130.61 170.75 147.043 0.131056 -0.70166 -0.700356
130.61 170.75 147.043 0.776504 -0.611227 -0.153111
130.845 171.117 146.772 0.776504 -0.611227 -0.153111
130.977 171.067 147.642 0.776504 -0.611227 -0.153111
128.995 171.062 146.839 -0.611887 -0.23097 -0.75647
128.491 171.802 147.021 -0.611887 -0.23097 -0.75647
129.059 171.895 146.533 -0.611887 -0.23097 -0.75647
128.995 171.062 146.839 -0.263488 -0.314766 -0.911864
129.059 171.895 146.533 -0.263488 -0.314766 -0.911864
129.917 171.106 146.557 -0.263488 -0.314766 -0.911864
129.917 171.106 146.557 -0.227116 -0.275893 -0.933971
129.059 171.895 146.533 -0.227116 -0.275893 -0.933971
129.931 172.021 146.283 -0.227116 -0.275893 -0.933971
130.845 171.117 146.772 0.216522 -0.334257 -0.917273
129.917 171.106 146.557 0.216522 -0.334257 -0.917273
130.792 171.898 146.475 0.216522 -0.334257 -0.917273
130.792 171.898 146.475 0.169432 -0.28493 -0.943455
129.917 171.106 146.557 0.169432 -0.28493 -0.943455
129.931 172.021 146.283 0.169432 -0.28493 -0.943455
131.421 171.773 147.02 0.770363 -0.619068 -0.152632
130.977 171.067 147.642 0.770363 -0.619068 -0.152632
130.845 171.117 146.772 0.770363 -0.619068 -0.152632
130.792 171.898 146.475 0.605845 -0.246572 -0.756408
131.421 171.773 147.02 0.605845 -0.246572 -0.756408
130.845 171.117 146.772 0.605845 -0.246572 -0.756408
128.885 172.808 146.66 -0.649955 -0.0176982 -0.759767
129.059 171.895 146.533 -0.649955 -0.0176982 -0.759767
128.491 171.802 147.021 -0.649955 -0.0176982 -0.759767
128.408 172.802 147.168 -0.729323 0.0408952 -0.682946
128.885 172.808 146.66 -0.729323 0.0408952 -0.682946
128.491 171.802 147.021 -0.729323 0.0408952 -0.682946
129.931 172.021 146.283 -0.274539 -0.000665922 -0.961576
129.059 171.895 146.533 -0.274539 -0.000665922 -0.961576
129.676 172.757 146.356 -0.274539 -0.000665922 -0.961576
129.676 172.757 146.356 -0.354736 0.0626417 -0.932866
129.059 171.895 146.533 -0.354736 0.0626417 -0.932866
128.885 172.808 146.66 -0.354736 0.0626417 -0.932866
130.792 171.898 146.475 0.230949 0.108918 -0.96685
129.931 172.021 146.283 0.230949 0.108918 -0.96685
130.538 172.918 146.529 0.230949 0.108918 -0.96685
130.538 172.918 146.529 0.167438 0.153783 -0.973815
129.931 172.021 146.283 0.167438 0.153783 -0.973815
129.676 172.757 146.356 0.167438 0.153783 -0.973815
131.262 172.64 147.002 0.662868 0.105933 -0.741205
131.421 171.773 147.02 0.662868 0.105933 -0.741205
130.792 171.898 146.475 0.662868 0.105933 -0.741205
130.538 172.918 146.529 0.586276 0.187743 -0.788057
131.262 172.64 147.002 0.586276 0.187743 -0.788057
130.792 171.898 146.475 0.586276 0.187743 -0.788057
128.885 172.808 146.66 -0.673502 0.392596 -0.626309
128.408 172.802 147.168 -0.673502 0.392596 -0.626309
128.922 173.386 146.982 -0.673502 0.392596 -0.626309
128.922 173.386 146.982 -0.322569 0.724211 -0.609482
129.536 173.763 147.105 -0.322569 0.724211 -0.609482
129.672 173.529 146.755 -0.322569 0.724211 -0.609482
128.922 173.386 146.982 -0.336618 0.475354 -0.812851
129.672 173.529 146.755 -0.336618 0.475354 -0.812851
128.885 172.808 146.66 -0.336618 0.475354 -0.812851
128.885 172.808 146.66 -0.297985 0.437862 -0.848223
129.672 173.529 146.755 -0.297985 0.437862 -0.848223
129.676 172.757 146.356 -0.297985 0.437862 -0.848223
129.994 173.7 146.963 0.417211 0.644962 -0.64028
130.662 173.386 147.082 0.417211 0.644962 -0.64028
130.538 172.918 146.529 0.417211 0.644962 -0.64028
129.994 173.7 146.963 0.2013 0.578148 -0.790711
130.538 172.918 146.529 0.2013 0.578148 -0.790711
129.672 173.529 146.755 0.2013 0.578148 -0.790711
129.672 173.529 146.755 0.0926113 0.45849 -0.883861
130.538 172.918 146.529 0.0926113 0.45849 -0.883861
129.676 172.757 146.356 0.0926113 0.45849 -0.883861
131.262 172.64 147.002 0.595155 0.542198 -0.593138
130.538 172.918 146.529 0.595155 0.542198 -0.593138
130.662 173.386 147.082 0.595155 0.542198 -0.593138
129.672 173.529 146.755 -0.0659391 0.817398 -0.572287
129.536 173.763 147.105 -0.0659391 0.817398 -0.572287
129.994 173.7 146.963 -0.0659391 0.817398 -0.572287
128.812 170.904 147.167 -0.634305 -0.76503 -0.111293
129.039 170.624 147.805 -0.634305 -0.76503 -0.111293
128.495 171.087 147.716 -0.634305 -0.76503 -0.111293
128.812 170.904 147.167 -0.355438 -0.749139 -0.558977
128.995 171.062 146.839 -0.355438 -0.749139 -0.558977
129.723 170.504 147.124 -0.355438 -0.749139 -0.558977
128.812 170.904 147.167 -0.39974 -0.88291 -0.246327
129.723 170.504 147.124 -0.39974 -0.88291 -0.246327
129.039 170.624 147.805 -0.39974 -0.88291 -0.246327
129.039 170.624 147.805 -0.29644 -0.945981 -0.131317
129.723 170.504 147.124 -0.29644 -0.945981 -0.131317
129.912 170.344 147.85 -0.29644 -0.945981 -0.131317
130.61 170.75 147.043 0.212322 -0.893966 -0.394644
130.59 170.468 147.673 0.212322 -0.893966 -0.394644
129.723 170.504 147.124 0.212322 -0.893966 -0.394644
129.723 170.504 147.124 0.113073 -0.963597 -0.242272
130.59 170.468 147.673 0.113073 -0.963597 -0.242272
129.912 170.344 147.85 0.113073 -0.963597 -0.242272
130.59 170.468 147.673 0.815221 -0.537369 -0.215983
130.61 170.75 147.043 0.815221 -0.537369 -0.215983
130.977 171.067 147.642 0.815221 -0.537369 -0.215983
128.491 171.802 147.021 -0.85356 -0.366092 -0.370692
128.812 170.904 147.167 -0.85356 -0.366092 -0.370692
128.495 171.087 147.716 -0.85356 -0.366092 -0.370692
128.491 171.802 147.021 -0.919426 -0.277209 -0.278948
128.495 171.087 147.716 -0.919426 -0.277209 -0.278948
128.219 171.907 147.81 -0.919426 -0.277209 -0.278948
128.995 171.062 146.839 -0.732531 -0.356714 -0.579788
128.812 170.904 147.167 -0.732531 -0.356714 -0.579788
128.491 171.802 147.021 -0.732531 -0.356714 -0.579788
130.977 171.067 147.642 0.903291 -0.288115 0.317892
131.421 171.773 147.02 0.903291 -0.288115 0.317892
131.248 171.963 147.682 0.903291 -0.288115 0.317892
128.491 171.802 147.021 -0.946475 -0.0303529 -0.321348
128.219 171.907 147.81 -0.946475 -0.0303529 -0.321348
128.408 172.802 147.168 -0.946475 -0.0303529 -0.321348
128.219 171.907 147.81 -0.9733 0.0441886 -0.225244
128.235 172.76 147.91 -0.9733 0.0441886 -0.225244
128.408 172.802 147.168 -0.9733 0.0441886 -0.225244
131.421 171.773 147.02 0.963361 0.180124 0.198724
131.262 172.64 147.002 0.963361 0.180124 0.198724
131.248 171.963 147.682 0.963361 0.180124 0.198724
131.248 171.963 147.682 0.752198 0.45955 0.472242
131.262 172.64 147.002 0.752198 0.45955 0.472242
130.677 172.729 147.846 0.752198 0.45955 0.472242
128.408 172.802 147.168 -0.786671 0.598803 -0.150279
128.235 172.76 147.91 -0.786671 0.598803 -0.150279
128.831 173.482 147.667 -0.786671 0.598803 -0.150279
128.922 173.386 146.982 -0.766531 0.614034 -0.188129
128.408 172.802 147.168 -0.766531 0.614034 -0.188129
128.831 173.482 147.667 -0.766531 0.614034 -0.188129
128.831 173.482 147.667 -0.486879 0.853752 -0.184543
129.536 173.763 147.105 -0.486879 0.853752 -0.184543
128.922 173.386 146.982 -0.486879 0.853752 -0.184543
129.782 173.567 147.73 -0.105758 0.93607 0.335541
129.536 173.763 147.105 -0.105758 0.93607 0.335541
128.831 173.482 147.667 -0.105758 0.93607 0.335541
130.662 173.386 147.082 0.53339 0.646635 0.545306
129.782 173.567 147.73 0.53339 0.646635 0.545306
130.677 172.729 147.846 0.53339 0.646635 0.545306
129.994 173.7 146.963 0.372379 0.891427 0.258249
129.782 173.567 147.73 0.372379 0.891427 0.258249
130.662 173.386 147.082 0.372379 0.891427 0.258249
130.677 172.729 147.846 0.721325 0.532239 0.443183
131.262 172.64 147.002 0.721325 0.532239 0.443183
130.662 173.386 147.082 0.721325 0.532239 0.443183
129.994 173.7 146.963 0.199497 0.954575 0.22133
129.536 173.763 147.105 0.199497 0.954575 0.22133
129.782 173.567 147.73 0.199497 0.954575 0.22133
129.039 170.624 147.805 -0.590141 -0.585922 0.555364
128.864 171.175 148.201 -0.590141 -0.585922 0.555364
128.495 171.087 147.716 -0.590141 -0.585922 0.555364
129.039 170.624 147.805 -0.228488 -0.587979 0.775934
129.912 170.344 147.85 -0.228488 -0.587979 0.775934
129.808 170.961 148.287 -0.228488 -0.587979 0.775934
128.864 171.175 148.201 -0.208286 -0.6136 0.761651
129.039 170.624 147.805 -0.208286 -0.6136 0.761651
129.808 170.961 148.287 -0.208286 -0.6136 0.761651
129.912 170.344 147.85 0.301535 -0.640377 0.706395
130.59 170.468 147.673 0.301535 -0.640377 0.706395
130.604 170.834 147.999 0.301535 -0.640377 0.706395
129.808 170.961 148.287 0.208065 -0.541517 0.814536
129.912 170.344 147.85 0.208065 -0.541517 0.814536
130.604 170.834 147.999 0.208065 -0.541517 0.814536
130.59 170.468 147.673 0.747621 -0.457469 0.481441
130.977 171.067 147.642 0.747621 -0.457469 0.481441
130.604 170.834 147.999 0.747621 -0.457469 0.481441
128.864 171.175 148.201 -0.655048 -0.185129 0.732556
128.808 172.105 148.386 -0.655048 -0.185129 0.732556
128.219 171.907 147.81 -0.655048 -0.185129 0.732556
128.495 171.087 147.716 -0.727265 -0.314204 0.610214
128.864 171.175 148.201 -0.727265 -0.314204 0.610214
128.219 171.907 147.81 -0.727265 -0.314204 0.610214
129.808 170.961 148.287 -0.122697 -0.148285 0.981304
129.782 171.886 148.424 -0.122697 -0.148285 0.981304
128.864 171.175 148.201 -0.122697 -0.148285 0.981304
129.782 171.886 148.424 -0.0825729 -0.19866 0.976584
128.808 172.105 148.386 -0.0825729 -0.19866 0.976584
128.864 171.175 148.201 -0.0825729 -0.19866 0.976584
130.604 170.834 147.999 0.307881 -0.184962 0.933273
130.693 171.673 148.136 0.307881 -0.184962 0.933273
129.808 170.961 148.287 0.307881 -0.184962 0.933273
130.693 171.673 148.136 0.269866 -0.133377 0.953616
129.782 171.886 148.424 0.269866 -0.133377 0.953616
129.808 170.961 148.287 0.269866 -0.133377 0.953616
130.977 171.067 147.642 0.686301 -0.239206 0.686856
131.248 171.963 147.682 0.686301 -0.239206 0.686856
130.693 171.673 148.136 0.686301 -0.239206 0.686856
130.604 170.834 147.999 0.738075 -0.184239 0.649077
130.977 171.067 147.642 0.738075 -0.184239 0.649077
130.693 171.673 148.136 0.738075 -0.184239 0.649077
128.808 172.105 148.386 -0.491759 0.187109 0.85039
128.899 172.969 148.249 -0.491759 0.187109 0.85039
128.235 172.76 147.91 -0.491759 0.187109 0.85039
128.219 171.907 147.81 -0.685105 -0.0728857 0.724789
128.808 172.105 148.386 -0.685105 -0.0728857 0.724789
128.235 172.76 147.91 -0.685105 -0.0728857 0.724789
129.782 171.886 148.424 -0.0110973 0.122642 0.992389
129.667 172.766 148.313 -0.0110973 0.122642 0.992389
128.808 172.105 148.386 -0.0110973 0.122642 0.992389
129.667 172.766 148.313 -0.0409043 0.160699 0.986156
128.899 172.969 148.249 -0.0409043 0.160699 0.986156
128.808 172.105 148.386 -0.0409043 0.160699 0.986156
130.693 171.673 148.136 0.344413 0.253172 0.904037
130.677 172.729 147.846 0.344413 0.253172 0.904037
129.782 171.886 148.424 0.344413 0.253172 0.904037
130.677 172.729 147.846 0.418765 0.166493 0.892702
129.667 172.766 148.313 0.418765 0.166493 0.892702
129.782 171.886 148.424 0.418765 0.166493 0.892702
130.693 171.673 148.136 0.541006 0.230048 0.808944
131.248 171.963 147.682 0.541006 0.230048 0.808944
130.677 172.729 147.846 0.541006 0.230048 0.808944
128.235 172.76 147.91 -0.50211 0.618628 0.604305
128.899 172.969 148.249 -0.50211 0.618628 0.604305
128.831 173.482 147.667 -0.50211 0.618628 0.604305
129.782 173.567 147.73 -0.110052 0.739398 0.664214
128.831 173.482 147.667 -0.110052 0.739398 0.664214
128.899 172.969 148.249 -0.110052 0.739398 0.664214
129.782 173.567 147.73 0.0846625 0.579178 0.810793
128.899 172.969 148.249 0.0846625 0.579178 0.810793
129.667 172.766 148.313 0.0846625 0.579178 0.810793
130.677 172.729 147.846 0.376179 0.51023 0.773405
129.782 173.567 147.73 0.376179 0.51023 0.773405
129.667 172.766 148.313 0.376179 0.51023 0.773405
3 0 1 2
3 3 4 5
3 6 7 8
3 9 10 11
3 12 13 14
3 15 16 17
3 18 19 20
3 21 22 23
3 24 25 26
3 27 28 29
3 30 31 32
3 33 34 35
3 36 37 38
3 39 40 41
3 42 43 44
3 45 46 47
3 48 49 50
3 51 52 53
3 54 55 56
3 57 58 59
3 60 61 62
3 63 64 65
3 66 67 68
3 69 70 71
3 72 73 74
3 75 76 77
3 78 79 80
3 81 82 83
3 84 85 86
3 87 88 89
3 90 91 92
3 93 94 95
3 96 97 98
3 99 100 101
3 102 103 104
3 105 106 107
3 108 109 110
3 111 112 113
3 114 115 116
3 117 118 119
3 120 121 122
3 123 124 125
3 126 127 128
3 129 130 131
3 132 133 134
3 135 136 137
3 138 139 140
3 141 142 143
3 144 145 146
3 147 148 149
3 150 151 152
3 153 154 155
3 156 157 158
3 159 160 161
3 162 163 164
3 165 166 167
3 168 169 170
3 171 172 173
3 174 175 176
3 177 178 179
3 180 181 182
3 183 184 185
3 186 187 188
3 189 190 191
3 192 193 194
3 195 196 197
3 198 199 200
3 201 202 203
3 204 205 206
3 207 208 209
3 210 211 212
3 213 214 215
3 216 217 218
3 219 220 221
3 222 223 224
3 225 226 227
