ply
format ascii 1.0
element vertex 600
property float x
property float y
property float z
property float nx
property float ny
property float nz
element face 200
property list uint uint vertex_indices
end_header
61.6914 187.753 142.732 -0.147897 -0.430507 -0.890387
62.6436 187.726 142.587 -0.147897 -0.430507 -0.890387
62.4332 187.26 142.847 -0.147897 -0.430507 -0.890387
61.6129 187.273 143.134 -0.274833 -0.590664 -0.758672
61.6914 187.753 142.732 -0.274833 -0.590664 -0.758672
62.4332 187.26 142.847 -0.274833 -0.590664 -0.758672
62.4332 187.26 142.847 0.53102 -0.5829 -0.615017
62.6436 187.726 142.587 0.53102 -0.5829 -0.615017
62.8737 187.541 142.961 0.53102 -0.5829 -0.615017
61.6914 187.753 142.732 -0.251053 -0.185475 -0.950038
60.7786 188.548 142.818 -0.251053 -0.185475 -0.950038
61.6121 188.536 142.6 -0.251053 -0.185475 -0.950038
62.6436 187.726 142.587 -0.150538 0.0107013 -0.988546
61.6914 187.753 142.732 -0.150538 0.0107013 -0.988546
62.4381 188.476 142.626 -0.150538 0.0107013 -0.988546
62.4381 188.476 142.626 0.019132 -0.164219 -0.986238
61.6914 187.753 142.732 0.019132 -0.164219 -0.986238
61.6121 188.536 142.6 0.019132 -0.164219 -0.986238
63.3325 188.418 142.983 0.707711 -0.354966 -0.610855
62.8737 187.541 142.961 0.707711 -0.354966 -0.610855
62.6436 187.726 142.587 0.707711 -0.354966 -0.610855
62.4381 188.476 142.626 0.374927 0.150919 -0.914687
63.3325 188.418 142.983 0.374927 0.150919 -0.914687
62.6436 187.726 142.587 0.374927 0.150919 -0.914687
60.5524 189.389 142.813 -0.556793 -0.154285 -0.816197
60.7786 188.548 142.818 -0.556793 -0.154285 -0.816197
59.7918 188.635 143.475 -0.556793 -0.154285 -0.816197
60.2377 189.647 142.987 -0.564694 -0.143302 -0.812764
60.5524 189.389 142.813 -0.564694 -0.143302 -0.812764
59.7918 188.635 143.475 -0.564694 -0.143302 -0.812764
61.6121 188.536 142.6 -0.247975 0.156444 -0.956051
60.7786 188.548 142.818 -0.247975 0.156444 -0.956051
61.6099 189.347 142.733 -0.247975 0.156444 -0.956051
61.6099 189.347 142.733 -0.0766738 -0.0261237 -0.996714
60.7786 188.548 142.818 -0.0766738 -0.0261237 -0.996714
60.5524 189.389 142.813 -0.0766738 -0.0261237 -0.996714
61.6099 189.347 142.733 0.323393 0.412279 -0.851729
62.6748 188.961 142.951 0.323393 0.412279 -0.851729
62.4381 188.476 142.626 0.323393 0.412279 -0.851729
61.6099 189.347 142.733 0.0430466 0.162126 -0.985831
62.4381 188.476 142.626 0.0430466 0.162126 -0.985831
61.6121 188.536 142.6 0.0430466 0.162126 -0.985831
63.3325 188.418 142.983 0.363218 0.38934 -0.846456
62.4381 188.476 142.626 0.363218 0.38934 -0.846456
62.6748 188.961 142.951 0.363218 0.38934 -0.846456
60.5524 189.389 142.813 -0.268171 0.28971 -0.918778
60.2377 189.647 142.987 -0.268171 0.28971 -0.918778
60.8032 190.087 142.96 -0.268171 0.28971 -0.918778
61.6099 189.347 142.733 -0.0646571 0.227722 -0.971577
60.5524 189.389 142.813 -0.0646571 0.227722 -0.971577
60.8032 190.087 142.96 -0.0646571 0.227722 -0.971577
61.6207 189.829 143.051 0.255621 0.527167 -0.810403
61.6099 189.347 142.733 0.255621 0.527167 -0.810403
60.8032 190.087 142.96 0.255621 0.527167 -0.810403
60.6547 187.686 143.403 -0.52649 -0.627686 -0.573426
60.7441 187.12 143.94 -0.52649 -0.627686 -0.573426
60.1584 187.701 143.843 -0.52649 -0.627686 -0.573426
60.6547 187.686 143.403 -0.434286 -0.535663 -0.724196
61.6914 187.753 142.732 -0.434286 -0.535663 -0.724196
61.6129 187.273 143.134 -0.434286 -0.535663 -0.724196
60.6547 187.686 143.403 -0.451837 -0.650788 -0.610179
61.6129 187.273 143.134 -0.451837 -0.650788 -0.610179
60.7441 187.12 143.94 -0.451837 -0.650788 -0.610179
60.7441 187.12 143.94 -0.239301 -0.873709 -0.423519
61.6129 187.273 143.134 -0.239301 -0.873709 -0.423519
61.7394 186.873 143.888 -0.239301 -0.873709 -0.423519
62.4332 187.26 142.847 -0.106019 -0.960432 -0.257547
62.5406 187.053 143.576 -0.106019 -0.960432 -0.257547
61.6129 187.273 143.134 -0.106019 -0.960432 -0.257547
61.6129 187.273 143.134 0.0141562 -0.882239 -0.47059
62.5406 187.053 143.576 0.0141562 -0.882239 -0.47059
61.7394 186.873 143.888 0.0141562 -0.882239 -0.47059
62.5406 187.053 143.576 0.567271 -0.766351 -0.301513
62.4332 187.26 142.847 0.567271 -0.766351 -0.301513
62.8737 187.541 142.961 0.567271 -0.766351 -0.301513
63.3275 187.695 143.79 0.652179 -0.724701 -0.222422
62.5406 187.053 143.576 0.652179 -0.724701 -0.222422
62.8737 187.541 142.961 0.652179 -0.724701 -0.222422
59.7918 188.635 143.475 -0.495989 -0.586057 -0.640728
59.4536 188.272 144.069 -0.495989 -0.586057 -0.640728
59.0652 188.816 143.872 -0.495989 -0.586057 -0.640728
60.1584 187.701 143.843 -0.597868 -0.485927 -0.637518
59.4536 188.272 144.069 -0.597868 -0.485927 -0.637518
59.7918 188.635 143.475 -0.597868 -0.485927 -0.637518
60.6547 187.686 143.403 -0.587675 -0.4857 -0.647096
60.1584 187.701 143.843 -0.587675 -0.4857 -0.647096
59.7918 188.635 143.475 -0.587675 -0.4857 -0.647096
60.6547 187.686 143.403 -0.527359 -0.424072 -0.736244
59.7918 188.635 143.475 -0.527359 -0.424072 -0.736244
60.7786 188.548 142.818 -0.527359 -0.424072 -0.736244
61.6914 187.753 142.732 -0.464398 -0.450824 -0.762294
60.6547 187.686 143.403 -0.464398 -0.450824 -0.762294
60.7786 188.548 142.818 -0.464398 -0.450824 -0.762294
63.3275 187.695 143.79 0.511802 -0.641476 -0.571461
63.3325 188.418 142.983 0.511802 -0.641476 -0.571461
63.6988 188.414 143.315 0.511802 -0.641476 -0.571461
63.3275 187.695 143.79 0.825688 -0.42273 -0.373548
62.8737 187.541 142.961 0.825688 -0.42273 -0.373548
63.3325 188.418 142.983 0.825688 -0.42273 -0.373548
63.3275 187.695 143.79 0.851784 -0.512261 -0.109785
63.6988 188.414 143.315 0.851784 -0.512261 -0.109785
63.8413 188.501 144.016 0.851784 -0.512261 -0.109785
59.518 189.613 143.514 -0.496511 -0.104386 -0.861731
59.7918 188.635 143.475 -0.496511 -0.104386 -0.861731
59.0652 188.816 143.872 -0.496511 -0.104386 -0.861731
58.8124 189.688 144.041 -0.599337 -0.0184064 -0.800285
59.518 189.613 143.514 -0.599337 -0.0184064 -0.800285
59.0652 188.816 143.872 -0.599337 -0.0184064 -0.800285
59.7918 188.635 143.475 -0.582084 -0.130713 -0.802554
59.518 189.613 143.514 -0.582084 -0.130713 -0.802554
60.2377 189.647 142.987 -0.582084 -0.130713 -0.802554
62.6748 188.961 142.951 0.37576 0.687012 -0.621948
61.6099 189.347 142.733 0.37576 0.687012 -0.621948
62.5245 189.69 143.665 0.37576 0.687012 -0.621948
62.6748 188.961 142.951 0.429072 0.675814 -0.59931
62.5245 189.69 143.665 0.429072 0.675814 -0.59931
63.1349 189.272 143.631 0.429072 0.675814 -0.59931
63.3325 188.418 142.983 0.517742 0.589611 -0.619921
62.6748 188.961 142.951 0.517742 0.589611 -0.619921
63.1349 189.272 143.631 0.517742 0.589611 -0.619921
63.3325 188.418 142.983 0.615158 0.561635 -0.553305
63.1349 189.272 143.631 0.615158 0.561635 -0.553305
63.6858 188.828 143.792 0.615158 0.561635 -0.553305
63.3325 188.418 142.983 0.509357 0.657194 -0.555564
63.6858 188.828 143.792 0.509357 0.657194 -0.555564
63.6988 188.414 143.315 0.509357 0.657194 -0.555564
63.8413 188.501 144.016 0.930582 0.288792 -0.22498
63.6988 188.414 143.315 0.930582 0.288792 -0.22498
63.6858 188.828 143.792 0.930582 0.288792 -0.22498
59.5205 190.58 143.544 -0.596193 0.026284 -0.802411
59.518 189.613 143.514 -0.596193 0.026284 -0.802411
58.8124 189.688 144.041 -0.596193 0.026284 -0.802411
59.0827 190.744 144.047 -0.710158 0.18536 -0.679203
59.5205 190.58 143.544 -0.710158 0.18536 -0.679203
58.8124 189.688 144.041 -0.710158 0.18536 -0.679203
60.2377 189.647 142.987 -0.243293 0.256779 -0.935346
60.3315 190.548 143.21 -0.243293 0.256779 -0.935346
60.8032 190.087 142.96 -0.243293 0.256779 -0.935346
60.2377 189.647 142.987 -0.579717 0.252088 -0.774842
59.518 189.613 143.514 -0.579717 0.252088 -0.774842
60.3315 190.548 143.21 -0.579717 0.252088 -0.774842
59.518 189.613 143.514 -0.379861 0.0294871 -0.924573
59.5205 190.58 143.544 -0.379861 0.0294871 -0.924573
60.3315 190.548 143.21 -0.379861 0.0294871 -0.924573
60.8589 190.601 143.65 0.402263 0.718406 -0.567519
60.8032 190.087 142.96 0.402263 0.718406 -0.567519
60.3315 190.548 143.21 0.402263 0.718406 -0.567519
60.8589 190.601 143.65 0.525172 0.66166 -0.535164
61.6593 190.115 143.835 0.525172 0.66166 -0.535164
60.8032 190.087 142.96 0.525172 0.66166 -0.535164
61.6593 190.115 143.835 0.31662 0.886193 -0.338251
61.6207 189.829 143.051 0.31662 0.886193 -0.338251
60.8032 190.087 142.96 0.31662 0.886193 -0.338251
62.5245 189.69 143.665 0.548403 0.450841 -0.70427
61.6099 189.347 142.733 0.548403 0.450841 -0.70427
61.6207 189.829 143.051 0.548403 0.450841 -0.70427
62.5245 189.69 143.665 0.361613 0.870201 -0.334643
61.6207 189.829 143.051 0.361613 0.870201 -0.334643
61.6593 190.115 143.835 0.361613 0.870201 -0.334643
59.5205 190.58 143.544 -0.552518 0.519907 -0.651476
59.0827 190.744 144.047 -0.552518 0.519907 -0.651476
59.6853 191.277 143.961 -0.552518 0.519907 -0.651476
59.6853 191.277 143.961 -0.479725 0.315202 -0.818848
60.1807 191.556 143.778 -0.479725 0.315202 -0.818848
60.2511 191.365 143.663 -0.479725 0.315202 -0.818848
59.6853 191.277 143.961 -0.457402 0.533342 -0.711569
60.2511 191.365 143.663 -0.457402 0.533342 -0.711569
59.5205 190.58 143.544 -0.457402 0.533342 -0.711569
59.5205 190.58 143.544 -0.328931 0.433223 -0.83912
60.2511 191.365 143.663 -0.328931 0.433223 -0.83912
60.3315 190.548 143.21 -0.328931 0.433223 -0.83912
60.5799 191.304 143.842 0.55759 0.417436 -0.717524
60.8589 190.601 143.65 0.55759 0.417436 -0.717524
60.3315 190.548 143.21 0.55759 0.417436 -0.717524
60.2511 191.365 143.663 0.489842 0.459342 -0.740985
60.5799 191.304 143.842 0.489842 0.459342 -0.740985
60.3315 190.548 143.21 0.489842 0.459342 -0.740985
60.2511 191.365 143.663 -0.0907091 0.488139 -0.868039
60.1807 191.556 143.778 -0.0907091 0.488139 -0.868039
60.4165 191.58 143.767 -0.0907091 0.488139 -0.868039
60.5799 191.304 143.842 0.48493 0.0481521 -0.873226
60.2511 191.365 143.663 0.48493 0.0481521 -0.873226
60.4165 191.58 143.767 0.48493 0.0481521 -0.873226
60.7441 187.12 143.94 -0.462033 -0.886648 0.0195061
60.7114 187.158 144.852 -0.462033 -0.886648 0.0195061
59.9619 187.542 144.595 -0.462033 -0.886648 0.0195061
60.1584 187.701 143.843 -0.641113 -0.699967 -0.314675
60.7441 187.12 143.94 -0.641113 -0.699967 -0.314675
59.9619 187.542 144.595 -0.641113 -0.699967 -0.314675
61.7394 186.873 143.888 -0.234932 -0.967052 0.0980673
61.6266 186.985 144.719 -0.234932 -0.967052 0.0980673
60.7441 187.12 143.94 -0.234932 -0.967052 0.0980673
60.7441 187.12 143.94 -0.180409 -0.983021 0.0335058
61.6266 186.985 144.719 -0.180409 -0.983021 0.0335058
60.7114 187.158 144.852 -0.180409 -0.983021 0.0335058
62.5406 187.053 143.576 0.229837 -0.972717 0.0315728
62.5828 187.092 144.49 0.229837 -0.972717 0.0315728
61.7394 186.873 143.888 0.229837 -0.972717 0.0315728
61.7394 186.873 143.888 0.145725 -0.977707 0.151171
62.5828 187.092 144.49 0.145725 -0.977707 0.151171
61.6266 186.985 144.719 0.145725 -0.977707 0.151171
62.5828 187.092 144.49 0.631765 -0.775147 0.00444147
62.5406 187.053 143.576 0.631765 -0.775147 0.00444147
63.3275 187.695 143.79 0.631765 -0.775147 0.00444147
63.1123 187.533 144.657 0.63694 -0.770791 0.0136943
62.5828 187.092 144.49 0.63694 -0.770791 0.0136943
63.3275 187.695 143.79 0.63694 -0.770791 0.0136943
59.4536 188.272 144.069 -0.719234 -0.679061 -0.146893
59.5636 187.948 145.027 -0.719234 -0.679061 -0.146893
58.8193 188.801 144.729 -0.719234 -0.679061 -0.146893
59.0652 188.816 143.872 -0.7521 -0.618785 -0.226826
59.4536 188.272 144.069 -0.7521 -0.618785 -0.226826
58.8193 188.801 144.729 -0.7521 -0.618785 -0.226826
59.9619 187.542 144.595 -0.656233 -0.685404 -0.315562
59.4536 188.272 144.069 -0.656233 -0.685404 -0.315562
60.1584 187.701 143.843 -0.656233 -0.685404 -0.315562
59.5636 187.948 145.027 -0.770154 -0.625873 -0.123066
59.4536 188.272 144.069 -0.770154 -0.625873 -0.123066
59.9619 187.542 144.595 -0.770154 -0.625873 -0.123066
63.3275 187.695 143.79 0.810254 -0.578704 0.0926837
63.4623 188.034 144.729 0.810254 -0.578704 0.0926837
63.1123 187.533 144.657 0.810254 -0.578704 0.0926837
63.4623 188.034 144.729 0.830108 -0.551815 0.0801273
63.3275 187.695 143.79 0.830108 -0.551815 0.0801273
63.8413 188.501 144.016 0.830108 -0.551815 0.0801273
63.5982 188.652 144.943 0.909677 -0.299805 0.287412
63.4623 188.034 144.729 0.909677 -0.299805 0.287412
63.8413 188.501 144.016 0.909677 -0.299805 0.287412
58.472 189.457 144.624 -0.886407 -0.456199 0.0785142
58.8193 188.801 144.729 -0.886407 -0.456199 0.0785142
58.4955 189.456 144.882 -0.886407 -0.456199 0.0785142
58.472 189.457 144.624 -0.681392 -0.451814 -0.575821
58.8124 189.688 144.041 -0.681392 -0.451814 -0.575821
58.8193 188.801 144.729 -0.681392 -0.451814 -0.575821
58.8124 189.688 144.041 -0.936906 -0.218724 -0.272703
59.0652 188.816 143.872 -0.936906 -0.218724 -0.272703
58.8193 188.801 144.729 -0.936906 -0.218724 -0.272703
63.6858 188.828 143.792 0.63909 0.6343 -0.435003
63.1349 189.272 143.631 0.63909 0.6343 -0.435003
63.4626 189.539 144.501 0.63909 0.6343 -0.435003
63.6858 188.828 143.792 0.719248 0.590587 -0.365908
63.4626 189.539 144.501 0.719248 0.590587 -0.365908
63.7856 189.218 144.619 0.719248 0.590587 -0.365908
63.6858 188.828 143.792 0.929902 0.276263 -0.242817
63.7856 189.218 144.619 0.929902 0.276263 -0.242817
63.8413 188.501 144.016 0.929902 0.276263 -0.242817
63.8413 188.501 144.016 0.948787 -0.156639 0.27435
63.7856 189.218 144.619 0.948787 -0.156639 0.27435
63.5982 188.652 144.943 0.948787 -0.156639 0.27435
58.472 189.457 144.624 -0.989618 -0.112175 0.0898468
58.4955 189.456 144.882 -0.989618 -0.112175 0.0898468
58.4479 189.721 144.688 -0.989618 -0.112175 0.0898468
58.4479 189.721 144.688 -0.869769 0.0398411 -0.491848
58.8124 189.688 144.041 -0.869769 0.0398411 -0.491848
58.472 189.457 144.624 -0.869769 0.0398411 -0.491848
58.4479 189.721 144.688 -0.763763 0.45906 -0.453795
58.749 190.339 144.807 -0.763763 0.45906 -0.453795
58.8124 189.688 144.041 -0.763763 0.45906 -0.453795
58.749 190.339 144.807 -0.929541 0.239283 -0.280529
59.0827 190.744 144.047 -0.929541 0.239283 -0.280529
58.8124 189.688 144.041 -0.929541 0.239283 -0.280529
61.6593 190.115 143.835 0.53423 0.699816 -0.47419
60.8589 190.601 143.65 0.53423 0.699816 -0.47419
61.3372 190.725 144.372 0.53423 0.699816 -0.47419
62.0224 190.548 144.842 0.516461 0.703185 -0.488672
61.6593 190.115 143.835 0.516461 0.703185 -0.488672
61.3372 190.725 144.372 0.516461 0.703185 -0.488672
62.0224 190.548 144.842 0.51892 0.701313 -0.488755
62.7222 190.0 144.798 0.51892 0.701313 -0.488755
61.6593 190.115 143.835 0.51892 0.701313 -0.488755
62.7222 190.0 144.798 0.371047 0.877318 -0.304362
62.5245 189.69 143.665 0.371047 0.877318 -0.304362
61.6593 190.115 143.835 0.371047 0.877318 -0.304362
63.4626 189.539 144.501 0.496626 0.759687 -0.419807
63.1349 189.272 143.631 0.496626 0.759687 -0.419807
62.5245 189.69 143.665 0.496626 0.759687 -0.419807
63.4626 189.539 144.501 0.41137 0.858477 -0.306255
62.5245 189.69 143.665 0.41137 0.858477 -0.306255
62.7222 190.0 144.798 0.41137 0.858477 -0.306255
59.3788 191.427 144.423 -0.586427 0.570631 -0.574877
59.6853 191.277 143.961 -0.586427 0.570631 -0.574877
59.0827 190.744 144.047 -0.586427 0.570631 -0.574877
59.3788 191.427 144.423 -0.911627 0.410119 -0.0271841
59.0827 190.744 144.047 -0.911627 0.410119 -0.0271841
59.2695 191.213 144.851 -0.911627 0.410119 -0.0271841
59.2695 191.213 144.851 -0.852439 0.513001 -0.100885
59.0827 190.744 144.047 -0.852439 0.513001 -0.100885
58.749 190.339 144.807 -0.852439 0.513001 -0.100885
59.5901 191.42 144.738 0.251356 0.956999 -0.144822
59.6853 191.277 143.961 0.251356 0.956999 -0.144822
59.3788 191.427 144.423 0.251356 0.956999 -0.144822
59.5901 191.42 144.738 0.28137 0.949369 -0.13975
60.5034 191.161 144.821 0.28137 0.949369 -0.13975
59.6853 191.277 143.961 0.28137 0.949369 -0.13975
60.1807 191.556 143.778 -0.236079 0.789159 0.567005
59.6853 191.277 143.961 -0.236079 0.789159 0.567005
60.3464 191.504 143.919 -0.236079 0.789159 0.567005
60.3464 191.504 143.919 -0.278928 0.880308 0.383741
59.6853 191.277 143.961 -0.278928 0.880308 0.383741
60.5034 191.161 144.821 -0.278928 0.880308 0.383741
61.3372 190.725 144.372 0.245728 0.8824 -0.401233
60.5034 191.161 144.821 0.245728 0.8824 -0.401233
61.5751 190.935 144.981 0.245728 0.8824 -0.401233
61.3372 190.725 144.372 0.524841 0.835487 0.162796
60.5799 191.304 143.842 0.524841 0.835487 0.162796
60.5034 191.161 144.821 0.524841 0.835487 0.162796
61.3372 190.725 144.372 0.715071 0.433655 -0.548285
60.8589 190.601 143.65 0.715071 0.433655 -0.548285
60.5799 191.304 143.842 0.715071 0.433655 -0.548285
60.5799 191.304 143.842 0.673067 0.722527 0.15791
60.3464 191.504 143.919 0.673067 0.722527 0.15791
60.5034 191.161 144.821 0.673067 0.722527 0.15791
62.0224 190.548 144.842 0.50004 0.73923 -0.451108
61.3372 190.725 144.372 0.50004 0.73923 -0.451108
61.5751 190.935 144.981 0.50004 0.73923 -0.451108
59.3788 191.427 144.423 -0.855879 0.515633 0.0399333
59.2695 191.213 144.851 -0.855879 0.515633 0.0399333
59.4207 191.463 144.858 -0.855879 0.515633 0.0399333
60.1807 191.556 143.778 -0.0727074 0.905478 0.418119
60.3464 191.504 143.919 -0.0727074 0.905478 0.418119
60.4165 191.58 143.767 -0.0727074 0.905478 0.418119
59.3788 191.427 144.423 0.182389 0.978316 -0.098145
59.4207 191.463 144.858 0.182389 0.978316 -0.098145
59.5901 191.42 144.738 0.182389 0.978316 -0.098145
60.5799 191.304 143.842 0.638938 0.529559 0.557966
60.4165 191.58 143.767 0.638938 0.529559 0.557966
60.3464 191.504 143.919 0.638938 0.529559 0.557966
60.7114 187.158 144.852 -0.5192 -0.784657 0.33874
60.4477 187.548 145.353 -0.5192 -0.784657 0.33874
59.9619 187.542 144.595 -0.5192 -0.784657 0.33874
60.7114 187.158 144.852 -0.062796 -0.797071 0.600612
61.6266 186.985 144.719 -0.062796 -0.797071 0.600612
61.5948 187.675 145.631 -0.062796 -0.797071 0.600612
60.4477 187.548 145.353 -0.0560478 -0.801232 0.595723
60.7114 187.158 144.852 -0.0560478 -0.801232 0.595723
61.5948 187.675 145.631 -0.0560478 -0.801232 0.595723
61.6266 186.985 144.719 0.219985 -0.814038 0.53754
62.5828 187.092 144.49 0.219985 -0.814038 0.53754
62.6095 187.52 145.127 0.219985 -0.814038 0.53754
61.5948 187.675 145.631 0.177617 -0.781926 0.597532
61.6266 186.985 144.719 0.177617 -0.781926 0.597532
62.6095 187.52 145.127 0.177617 -0.781926 0.597532
62.5828 187.092 144.49 0.466957 -0.743 0.479482
63.1123 187.533 144.657 0.466957 -0.743 0.479482
62.6095 187.52 145.127 0.466957 -0.743 0.479482
59.5636 187.948 145.027 -0.587277 -0.712411 0.384157
59.6689 188.286 145.815 -0.587277 -0.712411 0.384157
59.1595 188.591 145.602 -0.587277 -0.712411 0.384157
58.8193 188.801 144.729 -0.770367 -0.619337 0.151513
59.5636 187.948 145.027 -0.770367 -0.619337 0.151513
59.1595 188.591 145.602 -0.770367 -0.619337 0.151513
60.4477 187.548 145.353 -0.485235 -0.814825 0.317185
59.5636 187.948 145.027 -0.485235 -0.814825 0.317185
59.9619 187.542 144.595 -0.485235 -0.814825 0.317185
60.4477 187.548 145.353 -0.502281 -0.617813 0.604997
60.5231 187.924 145.8 -0.502281 -0.617813 0.604997
59.5636 187.948 145.027 -0.502281 -0.617813 0.604997
60.5231 187.924 145.8 -0.349467 -0.843215 0.408486
59.6689 188.286 145.815 -0.349467 -0.843215 0.408486
59.5636 187.948 145.027 -0.349467 -0.843215 0.408486
61.5948 187.675 145.631 -0.0740886 -0.756609 0.649656
60.5231 187.924 145.8 -0.0740886 -0.756609 0.649656
60.4477 187.548 145.353 -0.0740886 -0.756609 0.649656
62.7814 188.138 145.559 0.280277 -0.601106 0.748409
61.5948 187.675 145.631 0.280277 -0.601106 0.748409
62.6095 187.52 145.127 0.280277 -0.601106 0.748409
63.5982 188.652 144.943 0.695134 -0.35749 0.62369
62.9673 188.82 145.743 0.695134 -0.35749 0.62369
62.7814 188.138 145.559 0.695134 -0.35749 0.62369
63.4623 188.034 144.729 0.696109 -0.367006 0.617041
63.5982 188.652 144.943 0.696109 -0.367006 0.617041
62.7814 188.138 145.559 0.696109 -0.367006 0.617041
63.4623 188.034 144.729 0.603109 -0.562852 0.565206
62.7814 188.138 145.559 0.603109 -0.562852 0.565206
62.6095 187.52 145.127 0.603109 -0.562852 0.565206
63.4623 188.034 144.729 0.595946 -0.505581 0.623887
62.6095 187.52 145.127 0.595946 -0.505581 0.623887
63.1123 187.533 144.657 0.595946 -0.505581 0.623887
58.4955 189.456 144.882 -0.767819 -0.0637604 0.637487
59.0542 189.523 145.561 -0.767819 -0.0637604 0.637487
58.515 189.714 144.931 -0.767819 -0.0637604 0.637487
58.4955 189.456 144.882 -0.661417 -0.464134 0.589158
58.8193 188.801 144.729 -0.661417 -0.464134 0.589158
59.0542 189.523 145.561 -0.661417 -0.464134 0.589158
58.8193 188.801 144.729 -0.935152 -0.0905705 0.342474
59.1595 188.591 145.602 -0.935152 -0.0905705 0.342474
59.0542 189.523 145.561 -0.935152 -0.0905705 0.342474
63.4883 189.515 145.315 0.75438 -0.176096 0.632378
62.9673 188.82 145.743 0.75438 -0.176096 0.632378
63.5982 188.652 144.943 0.75438 -0.176096 0.632378
63.169 189.674 145.859 0.796918 -0.262245 0.544196
62.9673 188.82 145.743 0.796918 -0.262245 0.544196
63.4883 189.515 145.315 0.796918 -0.262245 0.544196
63.5982 188.652 144.943 0.907875 -0.0627575 0.414516
63.7856 189.218 144.619 0.907875 -0.0627575 0.414516
63.4883 189.515 145.315 0.907875 -0.0627575 0.414516
58.4955 189.456 144.882 -0.96344 0.0218485 0.267031
58.515 189.714 144.931 -0.96344 0.0218485 0.267031
58.4479 189.721 144.688 -0.96344 0.0218485 0.267031
58.515 189.714 144.931 -0.887498 0.382947 0.256317
58.749 190.339 144.807 -0.887498 0.382947 0.256317
58.4479 189.721 144.688 -0.887498 0.382947 0.256317
58.515 189.714 144.931 -0.645691 0.373642 0.665939
59.0542 189.523 145.561 -0.645691 0.373642 0.665939
58.749 190.339 144.807 -0.645691 0.373642 0.665939
59.0542 189.523 145.561 -0.845566 0.1556 0.510692
59.2971 190.515 145.661 -0.845566 0.1556 0.510692
58.749 190.339 144.807 -0.845566 0.1556 0.510692
62.7222 190.0 144.798 0.525605 0.708434 -0.471021
62.0224 190.548 144.842 0.525605 0.708434 -0.471021
62.6114 190.513 145.446 0.525605 0.708434 -0.471021
63.4883 189.515 145.315 0.851702 0.336793 0.401465
62.9925 190.336 145.678 0.851702 0.336793 0.401465
63.169 189.674 145.859 0.851702 0.336793 0.401465
63.4883 189.515 145.315 0.672322 0.598697 -0.435367
62.7222 190.0 144.798 0.672322 0.598697 -0.435367
62.9925 190.336 145.678 0.672322 0.598697 -0.435367
63.4883 189.515 145.315 0.530536 0.847623 0.00820318
63.4626 189.539 144.501 0.530536 0.847623 0.00820318
62.7222 190.0 144.798 0.530536 0.847623 0.00820318
62.6114 190.513 145.446 0.584096 0.68201 -0.440107
62.9925 190.336 145.678 0.584096 0.68201 -0.440107
62.7222 190.0 144.798 0.584096 0.68201 -0.440107
63.7856 189.218 144.619 0.704882 0.709324 -0.00138014
63.4626 189.539 144.501 0.704882 0.709324 -0.00138014
63.4883 189.515 145.315 0.704882 0.709324 -0.00138014
59.6024 191.01 145.474 -0.623952 0.581381 0.522188
59.2695 191.213 144.851 -0.623952 0.581381 0.522188
59.2971 190.515 145.661 -0.623952 0.581381 0.522188
59.2971 190.515 145.661 -0.790596 0.450307 0.414948
59.2695 191.213 144.851 -0.790596 0.450307 0.414948
58.749 190.339 144.807 -0.790596 0.450307 0.414948
59.6024 191.01 145.474 0.199844 0.857615 0.473876
60.5034 191.161 144.821 0.199844 0.857615 0.473876
59.5901 191.42 144.738 0.199844 0.857615 0.473876
60.6576 191.521 145.63 -0.425172 0.854084 -0.299616
60.5034 191.161 144.821 -0.425172 0.854084 -0.299616
60.3411 191.398 145.726 -0.425172 0.854084 -0.299616
60.3411 191.398 145.726 -0.362443 0.883712 -0.296121
60.5034 191.161 144.821 -0.362443 0.883712 -0.296121
59.6024 191.01 145.474 -0.362443 0.883712 -0.296121
60.5034 191.161 144.821 0.249852 0.800209 -0.545197
61.3582 191.42 145.593 0.249852 0.800209 -0.545197
61.5751 190.935 144.981 0.249852 0.800209 -0.545197
60.6576 191.521 145.63 0.108357 0.900134 -0.421921
61.3582 191.42 145.593 0.108357 0.900134 -0.421921
60.5034 191.161 144.821 0.108357 0.900134 -0.421921
61.5751 190.935 144.981 0.501855 0.755763 -0.42067
61.3582 191.42 145.593 0.501855 0.755763 -0.42067
62.2866 190.851 145.678 0.501855 0.755763 -0.42067
62.0224 190.548 144.842 0.510527 0.744085 -0.430928
61.5751 190.935 144.981 0.510527 0.744085 -0.430928
62.2866 190.851 145.678 0.510527 0.744085 -0.430928
62.0224 190.548 144.842 0.485998 0.761205 -0.429387
62.2866 190.851 145.678 0.485998 0.761205 -0.429387
62.6114 190.513 145.446 0.485998 0.761205 -0.429387
62.9925 190.336 145.678 0.555827 0.761875 -0.332571
62.6114 190.513 145.446 0.555827 0.761875 -0.332571
62.2866 190.851 145.678 0.555827 0.761875 -0.332571
59.2695 191.213 144.851 -0.732945 0.426403 0.530068
59.6024 191.01 145.474 -0.732945 0.426403 0.530068
59.4207 191.463 144.858 -0.732945 0.426403 0.530068
60.6576 191.521 145.63 -0.405711 0.895427 -0.183328
60.3411 191.398 145.726 -0.405711 0.895427 -0.183328
60.7546 191.6 145.801 -0.405711 0.895427 -0.183328
59.5901 191.42 144.738 0.491982 0.764234 0.417013
59.4207 191.463 144.858 0.491982 0.764234 0.417013
59.6024 191.01 145.474 0.491982 0.764234 0.417013
61.3582 191.42 145.593 0.103168 0.879756 -0.464097
60.6576 191.521 145.63 0.103168 0.879756 -0.464097
60.7546 191.6 145.801 0.103168 0.879756 -0.464097
61.4364 191.489 145.83 0.165569 0.930344 -0.32718
61.3582 191.42 145.593 0.165569 0.930344 -0.32718
60.7546 191.6 145.801 0.165569 0.930344 -0.32718
62.2866 190.851 145.678 0.50666 0.767941 -0.391869
61.3582 191.42 145.593 0.50666 0.767941 -0.391869
61.4364 191.489 145.83 0.50666 0.767941 -0.391869
59.6689 188.286 145.815 -0.55811 -0.443447 0.701333
59.6017 188.865 146.127 -0.55811 -0.443447 0.701333
59.1595 188.591 145.602 -0.55811 -0.443447 0.701333
59.6689 188.286 145.815 -0.222774 -0.559564 0.798286
60.5231 187.924 145.8 -0.222774 -0.559564 0.798286
60.5301 188.68 146.331 -0.222774 -0.559564 0.798286
59.6017 188.865 146.127 -0.278494 -0.481124 0.83124
59.6689 188.286 145.815 -0.278494 -0.481124 0.83124
60.5301 188.68 146.331 -0.278494 -0.481124 0.83124
60.5231 187.924 145.8 -0.0045728 -0.572658 0.819782
61.5948 187.675 145.631 -0.0045728 -0.572658 0.819782
61.5709 188.58 146.263 -0.0045728 -0.572658 0.819782
60.5301 188.68 146.331 -0.00202405 -0.575386 0.817879
60.5231 187.924 145.8 -0.00202405 -0.575386 0.817879
61.5709 188.58 146.263 -0.00202405 -0.575386 0.817879
61.5948 187.675 145.631 0.287612 -0.623226 0.727233
62.7814 188.138 145.559 0.287612 -0.623226 0.727233
62.4407 188.512 146.014 0.287612 -0.623226 0.727233
61.5709 188.58 146.263 0.18782 -0.559047 0.807583
61.5948 187.675 145.631 0.18782 -0.559047 0.807583
62.4407 188.512 146.014 0.18782 -0.559047 0.807583
62.7814 188.138 145.559 0.584131 -0.355722 0.729556
62.9673 188.82 145.743 0.584131 -0.355722 0.729556
62.4407 188.512 146.014 0.584131 -0.355722 0.729556
59.6017 188.865 146.127 -0.758536 -0.074203 0.647393
59.6292 189.821 146.269 -0.758536 -0.074203 0.647393
59.0542 189.523 145.561 -0.758536 -0.074203 0.647393
59.1595 188.591 145.602 -0.749158 -0.0554956 0.660063
59.6017 188.865 146.127 -0.749158 -0.0554956 0.660063
59.0542 189.523 145.561 -0.749158 -0.0554956 0.660063
60.5301 188.68 146.331 -0.252367 -0.229071 0.940126
60.5198 189.616 146.557 -0.252367 -0.229071 0.940126
59.6017 188.865 146.127 -0.252367 -0.229071 0.940126
60.5198 189.616 146.557 -0.331507 -0.129125 0.934575
59.6292 189.821 146.269 -0.331507 -0.129125 0.934575
59.6017 188.865 146.127 -0.331507 -0.129125 0.934575
61.5709 188.58 146.263 0.038999 -0.251356 0.967109
61.5626 189.554 146.517 0.038999 -0.251356 0.967109
60.5301 188.68 146.331 0.038999 -0.251356 0.967109
61.5626 189.554 146.517 0.0231775 -0.233713 0.972029
60.5198 189.616 146.557 0.0231775 -0.233713 0.972029
60.5301 188.68 146.331 0.0231775 -0.233713 0.972029
62.4407 188.512 146.014 0.250129 -0.240675 0.937822
62.5171 189.373 146.215 0.250129 -0.240675 0.937822
61.5709 188.58 146.263 0.250129 -0.240675 0.937822
62.5171 189.373 146.215 0.251037 -0.241791 0.937293
61.5626 189.554 146.517 0.251037 -0.241791 0.937293
61.5709 188.58 146.263 0.251037 -0.241791 0.937293
62.9673 188.82 145.743 0.547759 -0.238481 0.801927
63.169 189.674 145.859 0.547759 -0.238481 0.801927
62.5171 189.373 146.215 0.547759 -0.238481 0.801927
62.4407 188.512 146.014 0.550514 -0.235406 0.800949
62.9673 188.82 145.743 0.550514 -0.235406 0.800949
62.5171 189.373 146.215 0.550514 -0.235406 0.800949
59.6292 189.821 146.269 -0.69437 0.256902 0.672199
59.7643 190.737 146.059 -0.69437 0.256902 0.672199
59.2971 190.515 145.661 -0.69437 0.256902 0.672199
59.0542 189.523 145.561 -0.796284 0.135592 0.589531
59.6292 189.821 146.269 -0.796284 0.135592 0.589531
59.2971 190.515 145.661 -0.796284 0.135592 0.589531
60.5198 189.616 146.557 -0.269952 0.158539 0.949732
60.5371 190.59 146.399 -0.269952 0.158539 0.949732
59.6292 189.821 146.269 -0.269952 0.158539 0.949732
60.5371 190.59 146.399 -0.347599 0.258453 0.90132
59.7643 190.737 146.059 -0.347599 0.258453 0.90132
59.6292 189.821 146.269 -0.347599 0.258453 0.90132
61.5626 189.554 146.517 0.0395339 0.0279121 0.998828
61.4391 190.435 146.497 0.0395339 0.0279121 0.998828
60.5198 189.616 146.557 0.0395339 0.0279121 0.998828
61.4391 190.435 146.497 -0.0797238 0.160669 0.983783
60.5371 190.59 146.399 -0.0797238 0.160669 0.983783
60.5198 189.616 146.557 -0.0797238 0.160669 0.983783
62.5171 189.373 146.215 0.314718 0.0795556 0.945845
62.443 190.391 146.154 0.314718 0.0795556 0.945845
61.5626 189.554 146.517 0.314718 0.0795556 0.945845
62.443 190.391 146.154 0.325718 0.0667938 0.943105
61.4391 190.435 146.497 0.325718 0.0667938 0.943105
61.5626 189.554 146.517 0.325718 0.0667938 0.943105
63.169 189.674 145.859 0.631888 0.356555 0.688176
62.9925 190.336 145.678 0.631888 0.356555 0.688176
62.443 190.391 146.154 0.631888 0.356555 0.688176
62.5171 189.373 146.215 0.446626 0.0858517 0.890593
63.169 189.674 145.859 0.446626 0.0858517 0.890593
62.443 190.391 146.154 0.446626 0.0858517 0.890593
59.2971 190.515 145.661 -0.668952 0.58505 0.458497
59.7643 190.737 146.059 -0.668952 0.58505 0.458497
59.6024 191.01 145.474 -0.668952 0.58505 0.458497
60.3411 191.398 145.726 -0.530721 0.702023 0.474867
59.6024 191.01 145.474 -0.530721 0.702023 0.474867
59.7643 190.737 146.059 -0.530721 0.702023 0.474867
60.3411 191.398 145.726 -0.446869 0.68145 0.579598
59.7643 190.737 146.059 -0.446869 0.68145 0.579598
60.6349 191.392 145.96 -0.446869 0.68145 0.579598
60.6349 191.392 145.96 -0.272448 0.487012 0.829814
59.7643 190.737 146.059 -0.272448 0.487012 0.829814
60.5371 190.59 146.399 -0.272448 0.487012 0.829814
61.4391 190.435 146.497 -0.00232466 0.526447 0.850205
61.5446 191.19 146.03 -0.00232466 0.526447 0.850205
60.5371 190.59 146.399 -0.00232466 0.526447 0.850205
61.5446 191.19 146.03 0.0382789 0.475857 0.878689
60.6349 191.392 145.96 0.0382789 0.475857 0.878689
60.5371 190.59 146.399 0.0382789 0.475857 0.878689
62.2866 190.851 145.678 0.543196 0.685795 0.484379
61.5446 191.19 146.03 0.543196 0.685795 0.484379
62.443 190.391 146.154 0.543196 0.685795 0.484379
62.443 190.391 146.154 0.303958 0.470272 0.828525
61.5446 191.19 146.03 0.303958 0.470272 0.828525
61.4391 190.435 146.497 0.303958 0.470272 0.828525
62.9925 190.336 145.678 0.50855 0.696544 0.506165
62.2866 190.851 145.678 0.50855 0.696544 0.506165
62.443 190.391 146.154 0.50855 0.696544 0.506165
60.3411 191.398 145.726 -0.441401 0.69056 0.572968
60.6349 191.392 145.96 -0.441401 0.69056 0.572968
60.7546 191.6 145.801 -0.441401 0.69056 0.572968
61.4364 191.489 145.83 0.0606567 0.583505 0.809841
60.7546 191.6 145.801 0.0606567 0.583505 0.809841
60.6349 191.392 145.96 0.0606567 0.583505 0.809841
61.5446 191.19 146.03 0.0637441 0.570318 0.818947
61.4364 191.489 145.83 0.0637441 0.570318 0.818947
60.6349 191.392 145.96 0.0637441 0.570318 0.818947
62.2866 190.851 145.678 0.549927 0.592506 0.588656
61.4364 191.489 145.83 0.549927 0.592506 0.588656
61.5446 191.19 146.03 0.549927 0.592506 0.588656
3 0 1 2
3 3 4 5
3 6 7 8
3 9 10 11
3 12 13 14
3 15 16 17
3 18 19 20
3 21 22 23
3 24 25 26
3 27 28 29
3 30 31 32
3 33 34 35
3 36 37 38
3 39 40 41
3 42 43 44
3 45 46 47
3 48 49 50
3 51 52 53
3 54 55 56
3 57 58 59
3 60 61 62
3 63 64 65
3 66 67 68
3 69 70 71
3 72 73 74
3 75 76 77
3 78 79 80
3 81 82 83
3 84 85 86
3 87 88 89
3 90 91 92
3 93 94 95
3 96 97 98
3 99 100 101
3 102 103 104
3 105 106 107
3 108 109 110
3 111 112 113
3 114 115 116
3 117 118 119
3 120 121 122
3 123 124 125
3 126 127 128
3 129 130 131
3 132 133 134
3 135 136 137
3 138 139 140
3 141 142 143
3 144 145 146
3 147 148 149
3 150 151 152
3 153 154 155
3 156 157 158
3 159 160 161
3 162 163 164
3 165 166 167
3 168 169 170
3 171 172 173
3 174 175 176
3 177 178 179
3 180 181 182
3 183 184 185
3 186 187 188
3 189 190 191
3 192 193 194
3 195 196 197
3 198 199 200
3 201 202 203
3 204 205 206
3 207 208 209
3 210 211 212
3 213 214 215
3 216 217 218
3 219 220 221
3 222 223 224
3 225 226 227
3 228 229 230
3 231 232 233
3 234 235 236
3 237 238 239
3 240 241 242
3 243 244 245
3 246 247 248
3 249 250 251
3 252 253 254
3 255 256 257
3 258 259 260
3 261 262 263
3 264 265 266
3 267 268 269
3 270 271 272
3 273 274 275
3 276 277 278
3 279 280 281
3 282 283 284
3 285 286 287
3 288 289 290
3 291 292 293
3 294 295 296
3 297 298 299
3 300 301 302
3 303 304 305
3 306 307 308
3 309 310 311
3 312 313 314
3 315 316 317
3 318 319 320
3 321 322 323
3 324 325 326
3 327 328 329
3 330 331 332
3 333 334 335
3 336 337 338
3 339 340 341
3 342 343 344
3 345 346 347
3 348 349 350
3 351 352 353
3 354 355 356
3 357 358 359
3 360 361 362
3 363 364 365
3 366 367 368
3 369 370 371
3 372 373 374
3 375 376 377
3 378 379 380
3 381 382 383
3 384 385 386
3 387 388 389
3 390 391 392
3 393 394 395
3 396 397 398
3 399 400 401
3 402 403 404
3 405 406 407
3 408 409 410
3 411 412 413
3 414 415 416
3 417 418 419
3 420 421 422
3 423 424 425
3 426 427 428
3 429 430 431
3 432 433 434
3 435 436 437
3 438 439 440
3 441 442 443
3 444 445 446
3 447 448 449
3 450 451 452
3 453 454 455
3 456 457 458
3 459 460 461
3 462 463 464
3 465 466 467
3 468 469 470
3 471 472 473
3 474 475 476
3 477 478 479
3 480 481 482
3 483 484 485
3 486 487 488
3 489 490 491
3 492 493 494
3 495 496 497
3 498 499 500
3 501 502 503
3 504 505 506
3 507 508 509
3 510 511 512
3 513 514 515
3 516 517 518
3 519 520 521
3 522 523 524
3 525 526 527
3 528 529 530
3 531 532 533
3 534 535 536
3 537 538 539
3 540 541 542
3 543 544 545
3 546 547 548
3 549 550 551
3 552 553 554
3 555 556 557
3 558 559 560
3 561 562 563
3 564 565 566
3 567 568 569
3 570 571 572
3 573 574 575
3 576 577 578
3 579 580 581
3 582 583 584
3 585 586 587
3 588 589 590
3 591 592 593
3 594 595 596
3 597 598 599
