ply
format ascii 1.0
element vertex 582
property float x
property float y
property float z
property float nx
property float ny
property float nz
element face 194
property list uint uint vertex_indices
end_header
55.3642 185.666 136.48 -0.00704434 -0.558411 -0.829534
55.0776 185.304 136.726 -0.00704434 -0.558411 -0.829534
54.5381 185.588 136.539 -0.00704434 -0.558411 -0.829534
55.3642 185.666 136.48 0.136758 -0.799128 -0.585399
56.2223 185.785 136.518 0.136758 -0.799128 -0.585399
56.1104 185.585 136.765 0.136758 -0.799128 -0.585399
55.0776 185.304 136.726 0.205861 -0.65637 -0.72581
55.3642 185.666 136.48 0.205861 -0.65637 -0.72581
56.1104 185.585 136.765 0.205861 -0.65637 -0.72581
54.85 186.297 136.47 -0.294785 0.101593 -0.950148
54.0529 185.868 136.672 -0.294785 0.101593 -0.950148
53.6877 186.503 136.853 -0.294785 0.101593 -0.950148
54.5381 185.588 136.539 -0.254066 0.0179346 -0.967021
54.0529 185.868 136.672 -0.254066 0.0179346 -0.967021
54.85 186.297 136.47 -0.254066 0.0179346 -0.967021
54.5381 185.588 136.539 -0.0653507 -0.0679101 -0.995549
54.85 186.297 136.47 -0.0653507 -0.0679101 -0.995549
55.3642 185.666 136.48 -0.0653507 -0.0679101 -0.995549
56.2223 185.785 136.518 0.0147471 0.206858 -0.97826
55.3642 185.666 136.48 0.0147471 0.206858 -0.97826
56.5059 186.556 136.685 0.0147471 0.206858 -0.97826
56.5059 186.556 136.685 0.115851 0.079925 -0.990046
55.3642 185.666 136.48 0.115851 0.079925 -0.990046
54.85 186.297 136.47 0.115851 0.079925 -0.990046
56.9358 186.357 136.79 0.662474 -0.69998 -0.26675
56.1104 185.585 136.765 0.662474 -0.69998 -0.26675
56.2223 185.785 136.518 0.662474 -0.69998 -0.26675
56.9358 186.357 136.79 0.281605 0.103466 -0.953936
56.2223 185.785 136.518 0.281605 0.103466 -0.953936
56.5059 186.556 136.685 0.281605 0.103466 -0.953936
54.85 186.297 136.47 -0.296137 0.0945564 -0.950454
53.6877 186.503 136.853 -0.296137 0.0945564 -0.950454
54.272 186.748 136.695 -0.296137 0.0945564 -0.950454
55.2181 186.805 136.707 -0.0152659 0.430671 -0.90238
54.85 186.297 136.47 -0.0152659 0.430671 -0.90238
54.272 186.748 136.695 -0.0152659 0.430671 -0.90238
56.5059 186.556 136.685 0.0589493 0.385533 -0.920809
54.85 186.297 136.47 0.0589493 0.385533 -0.920809
55.2181 186.805 136.707 0.0589493 0.385533 -0.920809
54.0229 184.509 137.656 -0.165753 -0.611009 -0.774077
54.8972 184.648 137.359 -0.165753 -0.611009 -0.774077
54.7336 184.154 137.784 -0.165753 -0.611009 -0.774077
54.7336 184.154 137.784 0.406515 -0.669541 -0.621659
54.8972 184.648 137.359 0.406515 -0.669541 -0.621659
55.2219 184.365 137.876 0.406515 -0.669541 -0.621659
53.6274 185.486 137.502 -0.720167 -0.38257 -0.578791
54.1838 185.28 136.946 -0.720167 -0.38257 -0.578791
54.0229 184.509 137.656 -0.720167 -0.38257 -0.578791
55.0776 185.304 136.726 -0.146954 -0.722764 -0.67529
54.1838 185.28 136.946 -0.146954 -0.722764 -0.67529
54.5381 185.588 136.539 -0.146954 -0.722764 -0.67529
55.0776 185.304 136.726 -0.162555 -0.661642 -0.731987
54.8972 184.648 137.359 -0.162555 -0.661642 -0.731987
54.1838 185.28 136.946 -0.162555 -0.661642 -0.731987
54.8972 184.648 137.359 -0.148488 -0.652838 -0.742801
54.0229 184.509 137.656 -0.148488 -0.652838 -0.742801
54.1838 185.28 136.946 -0.148488 -0.652838 -0.742801
54.8972 184.648 137.359 0.43369 -0.647463 -0.626662
55.7998 185.166 137.448 0.43369 -0.647463 -0.626662
55.2219 184.365 137.876 0.43369 -0.647463 -0.626662
54.8972 184.648 137.359 0.448438 -0.681435 -0.578403
55.0776 185.304 136.726 0.448438 -0.681435 -0.578403
55.7998 185.166 137.448 0.448438 -0.681435 -0.578403
55.0776 185.304 136.726 0.253053 -0.87183 -0.419377
56.1104 185.585 136.765 0.253053 -0.87183 -0.419377
55.7998 185.166 137.448 0.253053 -0.87183 -0.419377
56.3653 185.69 137.624 0.69463 -0.709414 -0.119251
55.7998 185.166 137.448 0.69463 -0.709414 -0.119251
56.1104 185.585 136.765 0.69463 -0.709414 -0.119251
54.0529 185.868 136.672 -0.714644 -0.419907 -0.55943
54.1838 185.28 136.946 -0.714644 -0.419907 -0.55943
53.6274 185.486 137.502 -0.714644 -0.419907 -0.55943
54.0529 185.868 136.672 -0.786817 -0.29814 -0.5404
53.6274 185.486 137.502 -0.786817 -0.29814 -0.5404
53.6877 186.503 136.853 -0.786817 -0.29814 -0.5404
53.6877 186.503 136.853 -0.786873 -0.298099 -0.54034
53.6274 185.486 137.502 -0.786873 -0.298099 -0.54034
53.0564 186.505 137.771 -0.786873 -0.298099 -0.54034
54.5381 185.588 136.539 -0.470128 -0.456734 -0.755231
54.1838 185.28 136.946 -0.470128 -0.456734 -0.755231
54.0529 185.868 136.672 -0.470128 -0.456734 -0.755231
56.1104 185.585 136.765 0.65731 -0.746458 -0.103651
56.9139 186.217 137.312 0.65731 -0.746458 -0.103651
56.3653 185.69 137.624 0.65731 -0.746458 -0.103651
56.9358 186.357 136.79 0.676252 -0.718159 -0.164106
56.9139 186.217 137.312 0.676252 -0.718159 -0.164106
56.1104 185.585 136.765 0.676252 -0.718159 -0.164106
57.1328 186.64 137.438 0.894877 -0.43906 -0.0801357
56.9139 186.217 137.312 0.894877 -0.43906 -0.0801357
56.9358 186.357 136.79 0.894877 -0.43906 -0.0801357
53.9414 187.337 137.211 -0.405944 0.461918 -0.788569
54.272 186.748 136.695 -0.405944 0.461918 -0.788569
53.6877 186.503 136.853 -0.405944 0.461918 -0.788569
53.9414 187.337 137.211 -0.467309 0.464888 -0.751998
53.6877 186.503 136.853 -0.467309 0.464888 -0.751998
53.3158 187.417 137.649 -0.467309 0.464888 -0.751998
53.3158 187.417 137.649 -0.813772 0.156319 -0.559768
53.6877 186.503 136.853 -0.813772 0.156319 -0.559768
53.0564 186.505 137.771 -0.813772 0.156319 -0.559768
54.272 186.748 136.695 -0.0278494 0.614008 -0.788809
54.8332 187.434 137.21 -0.0278494 0.614008 -0.788809
55.2181 186.805 136.707 -0.0278494 0.614008 -0.788809
53.9414 187.337 137.211 -0.0697281 0.634177 -0.770037
54.8332 187.434 137.21 -0.0697281 0.634177 -0.770037
54.272 186.748 136.695 -0.0697281 0.634177 -0.770037
55.2181 186.805 136.707 0.116892 0.66892 -0.734086
56.0226 187.487 137.456 0.116892 0.66892 -0.734086
56.5059 186.556 136.685 0.116892 0.66892 -0.734086
54.8332 187.434 137.21 0.122984 0.664771 -0.736854
56.0226 187.487 137.456 0.122984 0.664771 -0.736854
55.2181 186.805 136.707 0.122984 0.664771 -0.736854
56.0226 187.487 137.456 0.0799547 0.660252 -0.746776
56.9129 187.315 137.399 0.0799547 0.660252 -0.746776
56.5059 186.556 136.685 0.0799547 0.660252 -0.746776
56.5059 186.556 136.685 0.326291 0.549265 -0.769313
56.9129 187.315 137.399 0.326291 0.549265 -0.769313
57.1022 187.094 137.322 0.326291 0.549265 -0.769313
56.5059 186.556 136.685 0.410026 0.470534 -0.78133
57.1022 187.094 137.322 0.410026 0.470534 -0.78133
56.9358 186.357 136.79 0.410026 0.470534 -0.78133
56.9358 186.357 136.79 0.957706 -0.00897172 -0.28761
57.1022 187.094 137.322 0.957706 -0.00897172 -0.28761
57.1328 186.64 137.438 0.957706 -0.00897172 -0.28761
53.9414 187.337 137.211 -0.405848 0.600751 -0.688757
53.3158 187.417 137.649 -0.405848 0.600751 -0.688757
54.1667 188.019 137.673 -0.405848 0.600751 -0.688757
54.8332 187.434 137.21 -0.0632624 0.57394 -0.81645
53.9414 187.337 137.211 -0.0632624 0.57394 -0.81645
54.1667 188.019 137.673 -0.0632624 0.57394 -0.81645
55.1127 187.9 137.716 0.120181 0.696672 -0.707252
54.8332 187.434 137.21 0.120181 0.696672 -0.707252
54.1667 188.019 137.673 0.120181 0.696672 -0.707252
56.0226 187.487 137.456 0.115142 0.698569 -0.706218
54.8332 187.434 137.21 0.115142 0.698569 -0.706218
55.1127 187.9 137.716 0.115142 0.698569 -0.706218
54.0229 184.509 137.656 -0.602741 -0.556538 -0.571811
53.9629 183.677 138.529 -0.602741 -0.556538 -0.571811
53.2045 184.508 138.52 -0.602741 -0.556538 -0.571811
54.7336 184.154 137.784 -0.225819 -0.69744 -0.680135
53.9629 183.677 138.529 -0.225819 -0.69744 -0.680135
54.0229 184.509 137.656 -0.225819 -0.69744 -0.680135
54.7917 183.573 138.49 -0.126634 -0.770737 -0.624443
53.9629 183.677 138.529 -0.126634 -0.770737 -0.624443
54.7336 184.154 137.784 -0.126634 -0.770737 -0.624443
54.7917 183.573 138.49 0.410011 -0.687151 -0.599762
54.7336 184.154 137.784 0.410011 -0.687151 -0.599762
55.2219 184.365 137.876 0.410011 -0.687151 -0.599762
54.7917 183.573 138.49 0.263295 -0.676035 -0.688224
55.2219 184.365 137.876 0.263295 -0.676035 -0.688224
55.0632 183.689 138.479 0.263295 -0.676035 -0.688224
55.0632 183.689 138.479 0.8551 -0.442216 -0.270646
55.2219 184.365 137.876 0.8551 -0.442216 -0.270646
55.413 184.248 138.672 0.8551 -0.442216 -0.270646
54.0229 184.509 137.656 -0.673313 -0.372981 -0.638384
53.2045 184.508 138.52 -0.673313 -0.372981 -0.638384
53.6274 185.486 137.502 -0.673313 -0.372981 -0.638384
53.2045 184.508 138.52 -0.853046 -0.150915 -0.499538
52.9827 185.668 138.548 -0.853046 -0.150915 -0.499538
53.6274 185.486 137.502 -0.853046 -0.150915 -0.499538
55.2219 184.365 137.876 0.770978 -0.576657 -0.270296
56.0665 185.184 138.538 0.770978 -0.576657 -0.270296
55.413 184.248 138.672 0.770978 -0.576657 -0.270296
55.7998 185.166 137.448 0.752264 -0.635557 -0.173682
56.0665 185.184 138.538 0.752264 -0.635557 -0.173682
55.2219 184.365 137.876 0.752264 -0.635557 -0.173682
56.0665 185.184 138.538 0.697289 -0.698887 -0.159204
55.7998 185.166 137.448 0.697289 -0.698887 -0.159204
56.3653 185.69 137.624 0.697289 -0.698887 -0.159204
52.8456 186.347 138.238 -0.992674 -0.0475429 -0.111077
52.8341 186.001 138.489 -0.992674 -0.0475429 -0.111077
52.8147 186.442 138.473 -0.992674 -0.0475429 -0.111077
52.8456 186.347 138.238 -0.684578 -0.412585 -0.600938
52.9827 185.668 138.548 -0.684578 -0.412585 -0.600938
52.8341 186.001 138.489 -0.684578 -0.412585 -0.600938
52.8456 186.347 138.238 -0.787519 -0.380393 -0.484887
53.0564 186.505 137.771 -0.787519 -0.380393 -0.484887
52.9827 185.668 138.548 -0.787519 -0.380393 -0.484887
53.0564 186.505 137.771 -0.824946 -0.343608 -0.448774
53.6274 185.486 137.502 -0.824946 -0.343608 -0.448774
52.9827 185.668 138.548 -0.824946 -0.343608 -0.448774
56.94 186.452 137.692 0.744221 -0.589737 0.313601
56.3653 185.69 137.624 0.744221 -0.589737 0.313601
56.9139 186.217 137.312 0.744221 -0.589737 0.313601
56.94 186.452 137.692 0.716889 -0.576207 0.392499
56.4315 186.371 138.502 0.716889 -0.576207 0.392499
56.3653 185.69 137.624 0.716889 -0.576207 0.392499
56.4315 186.371 138.502 0.946226 -0.286332 0.150567
56.0665 185.184 138.538 0.946226 -0.286332 0.150567
56.3653 185.69 137.624 0.946226 -0.286332 0.150567
56.9139 186.217 137.312 0.826154 -0.502822 0.254242
57.1328 186.64 137.438 0.826154 -0.502822 0.254242
56.94 186.452 137.692 0.826154 -0.502822 0.254242
52.8456 186.347 138.238 -0.983458 0.0813546 -0.16184
52.8147 186.442 138.473 -0.983458 0.0813546 -0.16184
52.8636 186.869 138.391 -0.983458 0.0813546 -0.16184
52.8636 186.869 138.391 -0.919285 0.139414 -0.368074
53.0564 186.505 137.771 -0.919285 0.139414 -0.368074
52.8456 186.347 138.238 -0.919285 0.139414 -0.368074
52.8636 186.869 138.391 -0.550975 0.633358 -0.543401
53.1292 187.245 138.559 -0.550975 0.633358 -0.543401
53.0564 186.505 137.771 -0.550975 0.633358 -0.543401
53.1292 187.245 138.559 -0.956243 0.25221 -0.148289
53.3158 187.417 137.649 -0.956243 0.25221 -0.148289
53.0564 186.505 137.771 -0.956243 0.25221 -0.148289
56.8752 187.29 137.925 0.847583 -0.0803145 0.524549
56.4315 186.371 138.502 0.847583 -0.0803145 0.524549
56.94 186.452 137.692 0.847583 -0.0803145 0.524549
56.5322 187.334 138.701 0.896149 -0.177666 0.406634
56.4315 186.371 138.502 0.896149 -0.177666 0.406634
56.8752 187.29 137.925 0.896149 -0.177666 0.406634
57.1328 186.64 137.438 0.940873 0.142178 0.30748
57.1022 187.094 137.322 0.940873 0.142178 0.30748
56.8752 187.29 137.925 0.940873 0.142178 0.30748
56.94 186.452 137.692 0.825281 -0.0911512 0.557318
57.1328 186.64 137.438 0.825281 -0.0911512 0.557318
56.8752 187.29 137.925 0.825281 -0.0911512 0.557318
54.0652 188.226 138.669 -0.558833 0.79863 -0.223375
54.1667 188.019 137.673 -0.558833 0.79863 -0.223375
53.3158 187.417 137.649 -0.558833 0.79863 -0.223375
54.0652 188.226 138.669 -0.72274 0.690898 -0.0174923
53.3158 187.417 137.649 -0.72274 0.690898 -0.0174923
53.1292 187.245 138.559 -0.72274 0.690898 -0.0174923
54.1667 188.019 137.673 0.127831 0.804601 -0.579893
54.8857 188.354 138.297 0.127831 0.804601 -0.579893
55.1127 187.9 137.716 0.127831 0.804601 -0.579893
54.0652 188.226 138.669 -0.247658 0.943121 -0.221784
54.8857 188.354 138.297 -0.247658 0.943121 -0.221784
54.1667 188.019 137.673 -0.247658 0.943121 -0.221784
55.1127 187.9 137.716 0.249155 0.845917 -0.471536
55.8685 188.174 138.607 0.249155 0.845917 -0.471536
56.0226 187.487 137.456 0.249155 0.845917 -0.471536
54.8857 188.354 138.297 0.308233 0.803841 -0.508756
55.8685 188.174 138.607 0.308233 0.803841 -0.508756
55.1127 187.9 137.716 0.308233 0.803841 -0.508756
56.8752 187.29 137.925 0.734657 0.613374 0.289916
55.8685 188.174 138.607 0.734657 0.613374 0.289916
56.5322 187.334 138.701 0.734657 0.613374 0.289916
56.8752 187.29 137.925 0.418716 0.803359 -0.423428
56.0226 187.487 137.456 0.418716 0.803359 -0.423428
55.8685 188.174 138.607 0.418716 0.803359 -0.423428
56.8752 187.29 137.925 0.193043 0.979334 0.0603282
56.9129 187.315 137.399 0.193043 0.979334 0.0603282
56.0226 187.487 137.456 0.193043 0.979334 0.0603282
57.1022 187.094 137.322 0.771754 0.630185 0.0852242
56.9129 187.315 137.399 0.771754 0.630185 0.0852242
56.8752 187.29 137.925 0.771754 0.630185 0.0852242
54.9801 188.493 138.662 -0.270542 0.921168 -0.279744
54.8857 188.354 138.297 -0.270542 0.921168 -0.279744
54.0652 188.226 138.669 -0.270542 0.921168 -0.279744
55.8685 188.174 138.607 0.287068 0.868573 -0.403947
54.8857 188.354 138.297 0.287068 0.868573 -0.403947
54.9801 188.493 138.662 0.287068 0.868573 -0.403947
53.9629 183.677 138.529 -0.343037 -0.873551 -0.345304
54.1174 183.309 139.307 -0.343037 -0.873551 -0.345304
53.2832 183.63 139.325 -0.343037 -0.873551 -0.345304
54.9948 183.536 138.969 0.305946 -0.937702 0.164657
54.6289 183.525 139.587 0.305946 -0.937702 0.164657
54.1174 183.309 139.307 0.305946 -0.937702 0.164657
54.9948 183.536 138.969 0.191317 -0.969228 -0.154906
54.1174 183.309 139.307 0.191317 -0.969228 -0.154906
54.7917 183.573 138.49 0.191317 -0.969228 -0.154906
54.7917 183.573 138.49 -0.133164 -0.905795 -0.402248
54.1174 183.309 139.307 -0.133164 -0.905795 -0.402248
53.9629 183.677 138.529 -0.133164 -0.905795 -0.402248
54.7917 183.573 138.49 0.375902 -0.898264 -0.227639
55.0632 183.689 138.479 0.375902 -0.898264 -0.227639
54.9948 183.536 138.969 0.375902 -0.898264 -0.227639
52.9106 184.313 139.12 -0.970705 -0.239648 -0.0173386
53.0141 183.863 139.548 -0.970705 -0.239648 -0.0173386
52.8596 184.495 139.454 -0.970705 -0.239648 -0.0173386
52.9106 184.313 139.12 -0.764329 -0.527815 -0.370423
53.2832 183.63 139.325 -0.764329 -0.527815 -0.370423
53.0141 183.863 139.548 -0.764329 -0.527815 -0.370423
52.9106 184.313 139.12 -0.684508 -0.524921 -0.505871
53.2045 184.508 138.52 -0.684508 -0.524921 -0.505871
53.2832 183.63 139.325 -0.684508 -0.524921 -0.505871
53.2045 184.508 138.52 -0.610999 -0.563906 -0.555599
53.9629 183.677 138.529 -0.610999 -0.563906 -0.555599
53.2832 183.63 139.325 -0.610999 -0.563906 -0.555599
54.9948 183.536 138.969 0.38369 -0.898938 0.211407
55.1763 183.759 139.588 0.38369 -0.898938 0.211407
54.6289 183.525 139.587 0.38369 -0.898938 0.211407
54.9948 183.536 138.969 0.853408 -0.519473 -0.0429328
55.0632 183.689 138.479 0.853408 -0.519473 -0.0429328
55.413 184.248 138.672 0.853408 -0.519473 -0.0429328
54.9948 183.536 138.969 0.65032 -0.585041 -0.484573
55.413 184.248 138.672 0.65032 -0.585041 -0.484573
55.7715 184.035 139.41 0.65032 -0.585041 -0.484573
54.9948 183.536 138.969 0.457255 -0.870984 0.179735
55.7715 184.035 139.41 0.457255 -0.870984 0.179735
55.1763 183.759 139.588 0.457255 -0.870984 0.179735
55.955 184.465 139.224 0.705096 -0.512374 -0.490216
55.7715 184.035 139.41 0.705096 -0.512374 -0.490216
55.413 184.248 138.672 0.705096 -0.512374 -0.490216
55.7715 184.035 139.41 0.907795 -0.414515 -0.0639187
55.955 184.465 139.224 0.907795 -0.414515 -0.0639187
56.0598 184.652 139.502 0.907795 -0.414515 -0.0639187
52.8922 185.107 138.981 -0.990972 -0.0450312 -0.126277
52.9106 184.313 139.12 -0.990972 -0.0450312 -0.126277
52.8596 184.495 139.454 -0.990972 -0.0450312 -0.126277
53.0556 185.092 139.691 -0.948992 0.223026 0.222875
52.8922 185.107 138.981 -0.948992 0.223026 0.222875
52.8596 184.495 139.454 -0.948992 0.223026 0.222875
53.2045 184.508 138.52 -0.902035 -0.162706 -0.399825
52.8922 185.107 138.981 -0.902035 -0.162706 -0.399825
52.9827 185.668 138.548 -0.902035 -0.162706 -0.399825
52.9106 184.313 139.12 -0.879867 -0.101599 -0.464233
52.8922 185.107 138.981 -0.879867 -0.101599 -0.464233
53.2045 184.508 138.52 -0.879867 -0.101599 -0.464233
55.413 184.248 138.672 0.693909 -0.550426 -0.464243
56.0665 185.184 138.538 0.693909 -0.550426 -0.464243
55.955 184.465 139.224 0.693909 -0.550426 -0.464243
55.955 184.465 139.224 0.942405 -0.295561 -0.156578
56.0665 185.184 138.538 0.942405 -0.295561 -0.156578
56.0598 184.652 139.502 0.942405 -0.295561 -0.156578
56.0598 184.652 139.502 0.995389 -0.0867305 -0.0409631
56.0665 185.184 138.538 0.995389 -0.0867305 -0.0409631
56.1426 185.627 139.447 0.995389 -0.0867305 -0.0409631
52.8341 186.001 138.489 -0.837082 -0.0175028 0.546797
52.918 186.454 138.632 -0.837082 -0.0175028 0.546797
52.8147 186.442 138.473 -0.837082 -0.0175028 0.546797
52.8922 185.107 138.981 -0.954402 0.19777 0.223613
53.0556 185.092 139.691 -0.954402 0.19777 0.223613
53.1311 185.573 139.588 -0.954402 0.19777 0.223613
53.1311 185.573 139.588 -0.947517 0.276554 0.160404
52.9827 185.668 138.548 -0.947517 0.276554 0.160404
52.8922 185.107 138.981 -0.947517 0.276554 0.160404
53.1311 185.573 139.588 -0.905786 0.390363 0.164828
53.4823 186.44 139.464 -0.905786 0.390363 0.164828
52.9827 185.668 138.548 -0.905786 0.390363 0.164828
52.8341 186.001 138.489 -0.609885 -0.13347 0.78117
52.9827 185.668 138.548 -0.609885 -0.13347 0.78117
52.918 186.454 138.632 -0.609885 -0.13347 0.78117
52.918 186.454 138.632 -0.821812 -0.126843 0.55546
52.9827 185.668 138.548 -0.821812 -0.126843 0.55546
53.4823 186.44 139.464 -0.821812 -0.126843 0.55546
56.0665 185.184 138.538 0.954502 -0.291607 0.0623776
56.4315 186.371 138.502 0.954502 -0.291607 0.0623776
56.1426 185.627 139.447 0.954502 -0.291607 0.0623776
56.1426 185.627 139.447 0.967146 -0.06238 0.246449
56.4315 186.371 138.502 0.967146 -0.06238 0.246449
56.2148 186.665 139.427 0.967146 -0.06238 0.246449
52.8147 186.442 138.473 -0.828349 0.196656 0.524561
52.918 186.454 138.632 -0.828349 0.196656 0.524561
52.8636 186.869 138.391 -0.828349 0.196656 0.524561
52.918 186.454 138.632 -0.749795 0.256613 0.609883
53.1292 187.245 138.559 -0.749795 0.256613 0.609883
52.8636 186.869 138.391 -0.749795 0.256613 0.609883
52.918 186.454 138.632 -0.796354 0.263039 0.544639
53.4823 186.44 139.464 -0.796354 0.263039 0.544639
53.1292 187.245 138.559 -0.796354 0.263039 0.544639
53.4823 186.44 139.464 -0.819445 0.230529 0.524753
53.7854 187.432 139.501 -0.819445 0.230529 0.524753
53.1292 187.245 138.559 -0.819445 0.230529 0.524753
56.4315 186.371 138.502 0.949651 -0.155457 0.272021
56.5322 187.334 138.701 0.949651 -0.155457 0.272021
56.2148 186.665 139.427 0.949651 -0.155457 0.272021
56.2148 186.665 139.427 0.9075 0.0243878 0.419344
56.5322 187.334 138.701 0.9075 0.0243878 0.419344
56.2287 187.523 139.347 0.9075 0.0243878 0.419344
54.0333 188.025 139.492 -0.92073 0.385775 0.0585906
54.0652 188.226 138.669 -0.92073 0.385775 0.0585906
53.7854 187.432 139.501 -0.92073 0.385775 0.0585906
53.7854 187.432 139.501 -0.695086 0.622269 0.360052
54.0652 188.226 138.669 -0.695086 0.622269 0.360052
53.1292 187.245 138.559 -0.695086 0.622269 0.360052
54.0333 188.025 139.492 -0.49217 0.849825 0.18859
54.5186 188.304 139.501 -0.49217 0.849825 0.18859
54.0652 188.226 138.669 -0.49217 0.849825 0.18859
55.8685 188.174 138.607 0.666851 0.721485 0.186465
55.4389 188.367 139.396 0.666851 0.721485 0.186465
55.869 187.952 139.464 0.666851 0.721485 0.186465
55.8685 188.174 138.607 0.777553 0.60884 0.157243
55.869 187.952 139.464 0.777553 0.60884 0.157243
56.2287 187.523 139.347 0.777553 0.60884 0.157243
55.8685 188.174 138.607 0.762343 0.622575 0.176729
56.2287 187.523 139.347 0.762343 0.622575 0.176729
56.5322 187.334 138.701 0.762343 0.622575 0.176729
54.0652 188.226 138.669 -0.277658 0.958712 0.0614605
54.5186 188.304 139.501 -0.277658 0.958712 0.0614605
54.998 188.458 139.269 -0.277658 0.958712 0.0614605
54.0652 188.226 138.669 -0.278605 0.958332 0.0630803
54.998 188.458 139.269 -0.278605 0.958332 0.0630803
54.9801 188.493 138.662 -0.278605 0.958332 0.0630803
55.4389 188.367 139.396 0.232048 0.966444 -0.110178
55.8685 188.174 138.607 0.232048 0.966444 -0.110178
54.998 188.458 139.269 0.232048 0.966444 -0.110178
54.998 188.458 139.269 0.34022 0.939327 0.0437587
55.8685 188.174 138.607 0.34022 0.939327 0.0437587
54.9801 188.493 138.662 0.34022 0.939327 0.0437587
54.1174 183.309 139.307 -0.319811 -0.855418 0.407408
53.8413 183.674 139.856 -0.319811 -0.855418 0.407408
53.2832 183.63 139.325 -0.319811 -0.855418 0.407408
54.1174 183.309 139.307 0.0378507 -0.823589 0.565922
54.6289 183.525 139.587 0.0378507 -0.823589 0.565922
53.8413 183.674 139.856 0.0378507 -0.823589 0.565922
53.0141 183.863 139.548 -0.773218 -0.0963358 0.62678
53.1099 184.326 139.737 -0.773218 -0.0963358 0.62678
52.8596 184.495 139.454 -0.773218 -0.0963358 0.62678
53.0141 183.863 139.548 -0.352371 -0.826418 0.439167
53.2832 183.63 139.325 -0.352371 -0.826418 0.439167
53.8413 183.674 139.856 -0.352371 -0.826418 0.439167
53.0141 183.863 139.548 -0.390772 -0.277886 0.87754
53.8413 183.674 139.856 -0.390772 -0.277886 0.87754
53.1099 184.326 139.737 -0.390772 -0.277886 0.87754
53.1099 184.326 139.737 -0.445252 -0.348633 0.824746
53.8413 183.674 139.856 -0.445252 -0.348633 0.824746
53.91 184.611 140.289 -0.445252 -0.348633 0.824746
54.6289 183.525 139.587 0.233558 -0.549351 0.802287
55.1763 183.759 139.588 0.233558 -0.549351 0.802287
54.9295 184.348 140.063 0.233558 -0.549351 0.802287
54.6289 183.525 139.587 0.178823 -0.540738 0.821964
54.9295 184.348 140.063 0.178823 -0.540738 0.821964
53.8413 183.674 139.856 0.178823 -0.540738 0.821964
53.8413 183.674 139.856 0.0910539 -0.423389 0.901361
54.9295 184.348 140.063 0.0910539 -0.423389 0.901361
53.91 184.611 140.289 0.0910539 -0.423389 0.901361
55.1763 183.759 139.588 0.48101 -0.686693 0.545052
55.7715 184.035 139.41 0.48101 -0.686693 0.545052
55.7839 184.369 139.82 0.48101 -0.686693 0.545052
54.9295 184.348 140.063 0.241597 -0.545941 0.802234
55.1763 183.759 139.588 0.241597 -0.545941 0.802234
55.7839 184.369 139.82 0.241597 -0.545941 0.802234
55.7715 184.035 139.41 0.834129 -0.439668 0.333047
56.0598 184.652 139.502 0.834129 -0.439668 0.333047
55.7839 184.369 139.82 0.834129 -0.439668 0.333047
52.8596 184.495 139.454 -0.752802 -0.0135867 0.658107
53.1099 184.326 139.737 -0.752802 -0.0135867 0.658107
53.0556 185.092 139.691 -0.752802 -0.0135867 0.658107
53.7176 185.334 140.376 -0.586876 -0.248742 0.770522
53.91 184.611 140.289 -0.586876 -0.248742 0.770522
54.0822 185.059 140.565 -0.586876 -0.248742 0.770522
53.7176 185.334 140.376 -0.647737 -0.258448 0.716688
53.0556 185.092 139.691 -0.647737 -0.258448 0.716688
53.91 184.611 140.289 -0.647737 -0.258448 0.716688
53.0556 185.092 139.691 -0.570218 0.0092154 0.821442
53.1099 184.326 139.737 -0.570218 0.0092154 0.821442
53.91 184.611 140.289 -0.570218 0.0092154 0.821442
54.0822 185.059 140.565 0.322098 -0.271508 0.906938
54.7946 185.543 140.457 0.322098 -0.271508 0.906938
54.3553 185.462 140.589 0.322098 -0.271508 0.906938
54.0822 185.059 140.565 0.495144 -0.585244 0.642123
53.91 184.611 140.289 0.495144 -0.585244 0.642123
54.7946 185.543 140.457 0.495144 -0.585244 0.642123
53.91 184.611 140.289 0.133487 -0.296764 0.945575
54.9295 184.348 140.063 0.133487 -0.296764 0.945575
54.7946 185.543 140.457 0.133487 -0.296764 0.945575
55.7839 184.369 139.82 0.272909 -0.195135 0.942042
55.8122 185.229 139.99 0.272909 -0.195135 0.942042
54.9295 184.348 140.063 0.272909 -0.195135 0.942042
55.8122 185.229 139.99 0.335292 -0.260711 0.905323
54.7946 185.543 140.457 0.335292 -0.260711 0.905323
54.9295 184.348 140.063 0.335292 -0.260711 0.905323
56.0598 184.652 139.502 0.867645 -0.04557 0.495091
56.1426 185.627 139.447 0.867645 -0.04557 0.495091
55.8122 185.229 139.99 0.867645 -0.04557 0.495091
55.7839 184.369 139.82 0.805628 -0.140189 0.575596
56.0598 184.652 139.502 0.805628 -0.140189 0.575596
55.8122 185.229 139.99 0.805628 -0.140189 0.575596
53.4823 186.44 139.464 -0.772782 0.326629 0.54417
53.9328 185.958 140.393 -0.772782 0.326629 0.54417
54.1752 186.597 140.354 -0.772782 0.326629 0.54417
53.1311 185.573 139.588 -0.739996 0.379169 0.555551
53.9328 185.958 140.393 -0.739996 0.379169 0.555551
53.4823 186.44 139.464 -0.739996 0.379169 0.555551
53.1311 185.573 139.588 -0.742829 0.239378 0.625223
53.7176 185.334 140.376 -0.742829 0.239378 0.625223
53.9328 185.958 140.393 -0.742829 0.239378 0.625223
53.1311 185.573 139.588 -0.739042 0.249903 0.625592
53.0556 185.092 139.691 -0.739042 0.249903 0.625592
53.7176 185.334 140.376 -0.739042 0.249903 0.625592
54.6501 186.341 140.576 0.0698612 -0.135116 0.988364
54.7946 185.543 140.457 0.0698612 -0.135116 0.988364
55.047 186.23 140.533 0.0698612 -0.135116 0.988364
54.6501 186.341 140.576 -0.507248 -0.216585 0.834141
54.1752 186.597 140.354 -0.507248 -0.216585 0.834141
54.7946 185.543 140.457 -0.507248 -0.216585 0.834141
54.3553 185.462 140.589 0.168059 0.481731 0.860053
54.7946 185.543 140.457 0.168059 0.481731 0.860053
53.9328 185.958 140.393 0.168059 0.481731 0.860053
53.9328 185.958 140.393 -0.0375967 0.0754134 0.996443
54.7946 185.543 140.457 -0.0375967 0.0754134 0.996443
54.1752 186.597 140.354 -0.0375967 0.0754134 0.996443
55.047 186.23 140.533 0.537227 -0.0705669 0.84048
55.7416 186.362 140.1 0.537227 -0.0705669 0.84048
55.1128 186.551 140.518 0.537227 -0.0705669 0.84048
55.047 186.23 140.533 0.545242 -0.287483 0.787442
54.7946 185.543 140.457 0.545242 -0.287483 0.787442
55.7416 186.362 140.1 0.545242 -0.287483 0.787442
54.7946 185.543 140.457 0.400079 -0.0643065 0.914222
55.8122 185.229 139.99 0.400079 -0.0643065 0.914222
55.7416 186.362 140.1 0.400079 -0.0643065 0.914222
56.1426 185.627 139.447 0.827124 -0.0463711 0.560104
56.2148 186.665 139.427 0.827124 -0.0463711 0.560104
55.7416 186.362 140.1 0.827124 -0.0463711 0.560104
55.8122 185.229 139.99 0.853273 0.0022423 0.52146
56.1426 185.627 139.447 0.853273 0.0022423 0.52146
55.7416 186.362 140.1 0.853273 0.0022423 0.52146
54.1752 186.597 140.354 -0.758706 0.256893 0.598641
54.2235 187.618 139.977 -0.758706 0.256893 0.598641
53.7854 187.432 139.501 -0.758706 0.256893 0.598641
53.4823 186.44 139.464 -0.788219 0.219084 0.575077
54.1752 186.597 140.354 -0.788219 0.219084 0.575077
53.7854 187.432 139.501 -0.788219 0.219084 0.575077
54.8386 186.64 140.561 -0.30388 0.238061 0.922488
54.1752 186.597 140.354 -0.30388 0.238061 0.922488
54.6501 186.341 140.576 -0.30388 0.238061 0.922488
54.8386 186.64 140.561 -0.292775 0.45408 0.841483
55.0058 187.224 140.305 -0.292775 0.45408 0.841483
54.1752 186.597 140.354 -0.292775 0.45408 0.841483
55.0058 187.224 140.305 -0.207984 0.347487 0.914328
54.2235 187.618 139.977 -0.207984 0.347487 0.914328
54.1752 186.597 140.354 -0.207984 0.347487 0.914328
55.1128 186.551 140.518 0.250761 0.328701 0.910535
55.0058 187.224 140.305 0.250761 0.328701 0.910535
54.8386 186.64 140.561 0.250761 0.328701 0.910535
55.1128 186.551 140.518 0.589217 0.327925 0.738437
55.7416 186.362 140.1 0.589217 0.327925 0.738437
55.0058 187.224 140.305 0.589217 0.327925 0.738437
55.7416 186.362 140.1 0.47163 0.198931 0.859064
55.8678 187.402 139.79 0.47163 0.198931 0.859064
55.0058 187.224 140.305 0.47163 0.198931 0.859064
56.2148 186.665 139.427 0.768408 0.0470294 0.63823
56.2287 187.523 139.347 0.768408 0.0470294 0.63823
55.8678 187.402 139.79 0.768408 0.0470294 0.63823
55.7416 186.362 140.1 0.798006 0.0812522 0.597147
56.2148 186.665 139.427 0.798006 0.0812522 0.597147
55.8678 187.402 139.79 0.798006 0.0812522 0.597147
53.7854 187.432 139.501 -0.755462 0.324391 0.569252
54.2235 187.618 139.977 -0.755462 0.324391 0.569252
54.0333 188.025 139.492 -0.755462 0.324391 0.569252
54.5186 188.304 139.501 -0.375334 0.631758 0.678237
54.0333 188.025 139.492 -0.375334 0.631758 0.678237
54.2235 187.618 139.977 -0.375334 0.631758 0.678237
54.5186 188.304 139.501 -0.116205 0.59924 0.792091
54.2235 187.618 139.977 -0.116205 0.59924 0.792091
55.0901 188.166 139.69 -0.116205 0.59924 0.792091
55.0901 188.166 139.69 -0.0716011 0.549708 0.832283
54.2235 187.618 139.977 -0.0716011 0.549708 0.832283
55.0058 187.224 140.305 -0.0716011 0.549708 0.832283
55.869 187.952 139.464 0.365652 0.506647 0.780773
55.4389 188.367 139.396 0.365652 0.506647 0.780773
55.0901 188.166 139.69 0.365652 0.506647 0.780773
55.869 187.952 139.464 0.363007 0.475032 0.801605
55.0901 188.166 139.69 0.363007 0.475032 0.801605
55.8678 187.402 139.79 0.363007 0.475032 0.801605
55.8678 187.402 139.79 0.372704 0.483635 0.791953
55.0901 188.166 139.69 0.372704 0.483635 0.791953
55.0058 187.224 140.305 0.372704 0.483635 0.791953
56.2287 187.523 139.347 0.663715 0.380717 0.643846
55.869 187.952 139.464 0.663715 0.380717 0.643846
55.8678 187.402 139.79 0.663715 0.380717 0.643846
54.5186 188.304 139.501 0.0118002 0.822603 0.568494
55.0901 188.166 139.69 0.0118002 0.822603 0.568494
54.998 188.458 139.269 0.0118002 0.822603 0.568494
55.4389 188.367 139.396 0.0059017 0.822043 0.569395
54.998 188.458 139.269 0.0059017 0.822043 0.569395
55.0901 188.166 139.69 0.0059017 0.822043 0.569395
54.0822 185.059 140.565 -0.59402 -0.265972 0.75921
53.988 185.441 140.625 -0.59402 -0.265972 0.75921
53.7176 185.334 140.376 -0.59402 -0.265972 0.75921
54.0822 185.059 140.565 0.10532 -0.129027 0.986032
54.3553 185.462 140.589 0.10532 -0.129027 0.986032
53.988 185.441 140.625 0.10532 -0.129027 0.986032
53.7176 185.334 140.376 -0.706401 0.225577 0.670904
53.988 185.441 140.625 -0.706401 0.225577 0.670904
53.9328 185.958 140.393 -0.706401 0.225577 0.670904
54.3553 185.462 140.589 0.0666082 0.414173 0.907758
53.9328 185.958 140.393 0.0666082 0.414173 0.907758
53.988 185.441 140.625 0.0666082 0.414173 0.907758
55.047 186.23 140.533 0.0154284 -0.314831 0.949022
54.9376 186.447 140.607 0.0154284 -0.314831 0.949022
54.6501 186.341 140.576 0.0154284 -0.314831 0.949022
55.047 186.23 140.533 0.477683 -0.0566422 0.876704
55.1128 186.551 140.518 0.477683 -0.0566422 0.876704
54.9376 186.447 140.607 0.477683 -0.0566422 0.876704
54.6501 186.341 140.576 -0.158023 0.148881 0.976147
54.9376 186.447 140.607 -0.158023 0.148881 0.976147
54.8386 186.64 140.561 -0.158023 0.148881 0.976147
55.1128 186.551 140.518 0.254407 0.342898 0.904267
54.8386 186.64 140.561 0.254407 0.342898 0.904267
54.9376 186.447 140.607 0.254407 0.342898 0.904267
3 0 1 2
3 3 4 5
3 6 7 8
3 9 10 11
3 12 13 14
3 15 16 17
3 18 19 20
3 21 22 23
3 24 25 26
3 27 28 29
3 30 31 32
3 33 34 35
3 36 37 38
3 39 40 41
3 42 43 44
3 45 46 47
3 48 49 50
3 51 52 53
3 54 55 56
3 57 58 59
3 60 61 62
3 63 64 65
3 66 67 68
3 69 70 71
3 72 73 74
3 75 76 77
3 78 79 80
3 81 82 83
3 84 85 86
3 87 88 89
3 90 91 92
3 93 94 95
3 96 97 98
3 99 100 101
3 102 103 104
3 105 106 107
3 108 109 110
3 111 112 113
3 114 115 116
3 117 118 119
3 120 121 122
3 123 124 125
3 126 127 128
3 129 130 131
3 132 133 134
3 135 136 137
3 138 139 140
3 141 142 143
3 144 145 146
3 147 148 149
3 150 151 152
3 153 154 155
3 156 157 158
3 159 160 161
3 162 163 164
3 165 166 167
3 168 169 170
3 171 172 173
3 174 175 176
3 177 178 179
3 180 181 182
3 183 184 185
3 186 187 188
3 189 190 191
3 192 193 194
3 195 196 197
3 198 199 200
3 201 202 203
3 204 205 206
3 207 208 209
3 210 211 212
3 213 214 215
3 216 217 218
3 219 220 221
3 222 223 224
3 225 226 227
3 228 229 230
3 231 232 233
3 234 235 236
3 237 238 239
3 240 241 242
3 243 244 245
3 246 247 248
3 249 250 251
3 252 253 254
3 255 256 257
3 258 259 260
3 261 262 263
3 264 265 266
3 267 268 269
3 270 271 272
3 273 274 275
3 276 277 278
3 279 280 281
3 282 283 284
3 285 286 287
3 288 289 290
3 291 292 293
3 294 295 296
3 297 298 299
3 300 301 302
3 303 304 305
3 306 307 308
3 309 310 311
3 312 313 314
3 315 316 317
3 318 319 320
3 321 322 323
3 324 325 326
3 327 328 329
3 330 331 332
3 333 334 335
3 336 337 338
3 339 340 341
3 342 343 344
3 345 346 347
3 348 349 350
3 351 352 353
3 354 355 356
3 357 358 359
3 360 361 362
3 363 364 365
3 366 367 368
3 369 370 371
3 372 373 374
3 375 376 377
3 378 379 380
3 381 382 383
3 384 385 386
3 387 388 389
3 390 391 392
3 393 394 395
3 396 397 398
3 399 400 401
3 402 403 404
3 405 406 407
3 408 409 410
3 411 412 413
3 414 415 416
3 417 418 419
3 420 421 422
3 423 424 425
3 426 427 428
3 429 430 431
3 432 433 434
3 435 436 437
3 438 439 440
3 441 442 443
3 444 445 446
3 447 448 449
3 450 451 452
3 453 454 455
3 456 457 458
3 459 460 461
3 462 463 464
3 465 466 467
3 468 469 470
3 471 472 473
3 474 475 476
3 477 478 479
3 480 481 482
3 483 484 485
3 486 487 488
3 489 490 491
3 492 493 494
3 495 496 497
3 498 499 500
3 501 502 503
3 504 505 506
3 507 508 509
3 510 511 512
3 513 514 515
3 516 517 518
3 519 520 521
3 522 523 524
3 525 526 527
3 528 529 530
3 531 532 533
3 534 535 536
3 537 538 539
3 540 541 542
3 543 544 545
3 546 547 548
3 549 550 551
3 552 553 554
3 555 556 557
3 558 559 560
3 561 562 563
3 564 565 566
3 567 568 569
3 570 571 572
3 573 574 575
3 576 577 578
3 579 580 581
