solid ascii
 facet normal -0.556062 -0.281486 -0.782023
  outer loop
   vertex 102.48 143.941 172.73
   vertex 102.411 143.148 173.065
   vertex 102.019 143.814 173.104
  endloop
 endfacet
 facet normal 0.189206 -0.205521 -0.960189
  outer loop
   vertex 102.48 143.941 172.73
   vertex 103.266 143.93 172.887
   vertex 103.084 143.269 172.993
  endloop
 endfacet
 facet normal -0.0294801 -0.386736 -0.921719
  outer loop
   vertex 102.411 143.148 173.065
   vertex 102.48 143.941 172.73
   vertex 103.084 143.269 172.993
  endloop
 endfacet
 facet normal 0.653482 -0.291788 -0.698442
  outer loop
   vertex 103.084 143.269 172.993
   vertex 103.266 143.93 172.887
   vertex 103.462 143.604 173.207
  endloop
 endfacet
 facet normal -0.650655 -0.454295 -0.608494
  outer loop
   vertex 102.019 143.814 173.104
   vertex 101.31 144.768 173.15
   vertex 101.661 144.783 172.763
  endloop
 endfacet
 facet normal -0.486969 -0.444376 -0.751925
  outer loop
   vertex 102.019 143.814 173.104
   vertex 101.661 144.783 172.763
   vertex 102.48 143.941 172.73
  endloop
 endfacet
 facet normal -0.196189 -0.15273 -0.968599
  outer loop
   vertex 102.48 143.941 172.73
   vertex 101.661 144.783 172.763
   vertex 102.434 144.905 172.588
  endloop
 endfacet
 facet normal 0.194639 -0.0765792 -0.977881
  outer loop
   vertex 103.266 143.93 172.887
   vertex 102.48 143.941 172.73
   vertex 103.201 144.786 172.807
  endloop
 endfacet
 facet normal 0.254365 -0.129303 -0.958425
  outer loop
   vertex 103.201 144.786 172.807
   vertex 102.48 143.941 172.73
   vertex 102.434 144.905 172.588
  endloop
 endfacet
 facet normal 0.770416 -0.145065 -0.620818
  outer loop
   vertex 103.611 144.561 173.168
   vertex 103.462 143.604 173.207
   vertex 103.266 143.93 172.887
  endloop
 endfacet
 facet normal 0.654158 -0.0212368 -0.75606
  outer loop
   vertex 103.201 144.786 172.807
   vertex 103.611 144.561 173.168
   vertex 103.266 143.93 172.887
  endloop
 endfacet
 facet normal -0.720634 -0.204516 -0.662465
  outer loop
   vertex 101.385 145.571 172.82
   vertex 101.661 144.783 172.763
   vertex 101.31 144.768 173.15
  endloop
 endfacet
 facet normal -0.924218 -0.067982 -0.375766
  outer loop
   vertex 101.16 145.791 173.335
   vertex 101.385 145.571 172.82
   vertex 101.31 144.768 173.15
  endloop
 endfacet
 facet normal -0.231069 0.0654292 -0.970735
  outer loop
   vertex 102.434 144.905 172.588
   vertex 101.661 144.783 172.763
   vertex 102.141 145.629 172.706
  endloop
 endfacet
 facet normal -0.150901 0.0187717 -0.988371
  outer loop
   vertex 102.141 145.629 172.706
   vertex 101.661 144.783 172.763
   vertex 101.385 145.571 172.82
  endloop
 endfacet
 facet normal 0.276882 0.0124612 -0.960823
  outer loop
   vertex 103.201 144.786 172.807
   vertex 102.434 144.905 172.588
   vertex 103.07 145.632 172.78
  endloop
 endfacet
 facet normal 0.077476 0.191431 -0.978444
  outer loop
   vertex 103.07 145.632 172.78
   vertex 102.434 144.905 172.588
   vertex 102.141 145.629 172.706
  endloop
 endfacet
 facet normal 0.666925 0.0199574 -0.744857
  outer loop
   vertex 103.667 145.681 173.248
   vertex 103.611 144.561 173.168
   vertex 103.201 144.786 172.807
  endloop
 endfacet
 facet normal 0.611611 0.0699725 -0.788059
  outer loop
   vertex 103.07 145.632 172.78
   vertex 103.667 145.681 173.248
   vertex 103.201 144.786 172.807
  endloop
 endfacet
 facet normal -0.635397 0.569428 -0.521558
  outer loop
   vertex 101.385 145.571 172.82
   vertex 101.16 145.791 173.335
   vertex 101.578 146.047 173.105
  endloop
 endfacet
 facet normal -0.165608 0.554465 -0.815563
  outer loop
   vertex 102.141 145.629 172.706
   vertex 101.385 145.571 172.82
   vertex 101.578 146.047 173.105
  endloop
 endfacet
 facet normal -0.0317153 0.666772 -0.744586
  outer loop
   vertex 102.548 146.06 173.075
   vertex 102.141 145.629 172.706
   vertex 101.578 146.047 173.105
  endloop
 endfacet
 facet normal 0.0603329 0.61531 -0.785973
  outer loop
   vertex 103.07 145.632 172.78
   vertex 102.141 145.629 172.706
   vertex 102.548 146.06 173.075
  endloop
 endfacet
 facet normal 0.0704667 0.62293 -0.779098
  outer loop
   vertex 103.303 145.986 173.084
   vertex 103.07 145.632 172.78
   vertex 102.548 146.06 173.075
  endloop
 endfacet
 facet normal 0.578096 0.27814 -0.767101
  outer loop
   vertex 103.667 145.681 173.248
   vertex 103.07 145.632 172.78
   vertex 103.303 145.986 173.084
  endloop
 endfacet
 facet normal -0.5849 -0.770624 -0.253043
  outer loop
   vertex 102.611 142.808 173.367
   vertex 102.503 142.62 174.187
   vertex 102.205 142.973 173.8
  endloop
 endfacet
 facet normal 0.143532 -0.91275 -0.382474
  outer loop
   vertex 102.611 142.808 173.367
   vertex 103.264 142.904 173.381
   vertex 103.156 142.657 173.931
  endloop
 endfacet
 facet normal -0.033988 -0.973288 -0.227057
  outer loop
   vertex 102.503 142.62 174.187
   vertex 102.611 142.808 173.367
   vertex 103.156 142.657 173.931
  endloop
 endfacet
 facet normal 0.595024 -0.770113 -0.229938
  outer loop
   vertex 103.156 142.657 173.931
   vertex 103.264 142.904 173.381
   vertex 103.514 142.907 174.022
  endloop
 endfacet
 facet normal -0.644867 -0.683212 -0.34259
  outer loop
   vertex 102.411 143.148 173.065
   vertex 102.611 142.808 173.367
   vertex 102.205 142.973 173.8
  endloop
 endfacet
 facet normal -0.819358 -0.46227 -0.339057
  outer loop
   vertex 102.411 143.148 173.065
   vertex 102.205 142.973 173.8
   vertex 102.019 143.814 173.104
  endloop
 endfacet
 facet normal -0.87452 -0.409275 -0.260209
  outer loop
   vertex 102.019 143.814 173.104
   vertex 102.205 142.973 173.8
   vertex 101.785 143.76 173.974
  endloop
 endfacet
 facet normal 0.0358673 -0.651359 -0.757922
  outer loop
   vertex 103.084 143.269 172.993
   vertex 102.611 142.808 173.367
   vertex 102.411 143.148 173.065
  endloop
 endfacet
 facet normal 0.118859 -0.696077 -0.70806
  outer loop
   vertex 103.264 142.904 173.381
   vertex 102.611 142.808 173.367
   vertex 103.084 143.269 172.993
  endloop
 endfacet
 facet normal 0.677661 -0.353134 -0.645036
  outer loop
   vertex 103.264 142.904 173.381
   vertex 103.084 143.269 172.993
   vertex 103.462 143.604 173.207
  endloop
 endfacet
 facet normal 0.878032 -0.334402 -0.342397
  outer loop
   vertex 103.264 142.904 173.381
   vertex 103.462 143.604 173.207
   vertex 103.514 142.907 174.022
  endloop
 endfacet
 facet normal 0.874421 -0.339536 -0.346559
  outer loop
   vertex 103.514 142.907 174.022
   vertex 103.462 143.604 173.207
   vertex 103.857 143.725 174.086
  endloop
 endfacet
 facet normal -0.783671 -0.570455 -0.245847
  outer loop
   vertex 101.785 143.76 173.974
   vertex 101.31 144.768 173.15
   vertex 102.019 143.814 173.104
  endloop
 endfacet
 facet normal -0.777111 -0.575199 -0.255428
  outer loop
   vertex 101.052 144.692 174.104
   vertex 101.31 144.768 173.15
   vertex 101.785 143.76 173.974
  endloop
 endfacet
 facet normal 0.765048 -0.360495 -0.533614
  outer loop
   vertex 104.296 144.786 173.999
   vertex 103.857 143.725 174.086
   vertex 103.611 144.561 173.168
  endloop
 endfacet
 facet normal 0.908573 -0.157272 -0.386988
  outer loop
   vertex 103.857 143.725 174.086
   vertex 103.462 143.604 173.207
   vertex 103.611 144.561 173.168
  endloop
 endfacet
 facet normal -0.95933 -0.0929211 -0.266555
  outer loop
   vertex 101.31 144.768 173.15
   vertex 101.052 144.692 174.104
   vertex 101.16 145.791 173.335
  endloop
 endfacet
 facet normal -0.929305 -0.146597 -0.338971
  outer loop
   vertex 101.052 144.692 174.104
   vertex 100.881 145.658 174.156
   vertex 101.16 145.791 173.335
  endloop
 endfacet
 facet normal 0.768285 0.00385559 -0.640096
  outer loop
   vertex 104.296 144.786 173.999
   vertex 103.667 145.681 173.248
   vertex 104.376 145.662 174.099
  endloop
 endfacet
 facet normal 0.770257 0.00725738 -0.637693
  outer loop
   vertex 103.611 144.561 173.168
   vertex 103.667 145.681 173.248
   vertex 104.296 144.786 173.999
  endloop
 endfacet
 facet normal -0.635324 0.586517 -0.502356
  outer loop
   vertex 101.51 146.722 173.979
   vertex 101.578 146.047 173.105
   vertex 101.16 145.791 173.335
  endloop
 endfacet
 facet normal -0.582978 0.599004 -0.548936
  outer loop
   vertex 101.51 146.722 173.979
   vertex 101.16 145.791 173.335
   vertex 101.061 146.502 174.215
  endloop
 endfacet
 facet normal -0.934131 0.21927 -0.281639
  outer loop
   vertex 101.061 146.502 174.215
   vertex 101.16 145.791 173.335
   vertex 100.881 145.658 174.156
  endloop
 endfacet
 facet normal -0.0308034 0.722502 -0.690682
  outer loop
   vertex 101.578 146.047 173.105
   vertex 102.295 146.632 173.685
   vertex 102.548 146.06 173.075
  endloop
 endfacet
 facet normal -0.140118 0.778361 -0.611981
  outer loop
   vertex 101.51 146.722 173.979
   vertex 102.295 146.632 173.685
   vertex 101.578 146.047 173.105
  endloop
 endfacet
 facet normal 0.0834157 0.770807 -0.631584
  outer loop
   vertex 102.548 146.06 173.075
   vertex 103.492 146.551 173.799
   vertex 103.303 145.986 173.084
  endloop
 endfacet
 facet normal 0.113069 0.74758 -0.654477
  outer loop
   vertex 102.295 146.632 173.685
   vertex 103.492 146.551 173.799
   vertex 102.548 146.06 173.075
  endloop
 endfacet
 facet normal 0.664228 0.490962 -0.5637
  outer loop
   vertex 103.667 145.681 173.248
   vertex 103.303 145.986 173.084
   vertex 103.492 146.551 173.799
  endloop
 endfacet
 facet normal 0.483792 0.535887 -0.691932
  outer loop
   vertex 103.667 145.681 173.248
   vertex 103.492 146.551 173.799
   vertex 104.134 146.338 174.083
  endloop
 endfacet
 facet normal 0.746238 0.252386 -0.615979
  outer loop
   vertex 103.667 145.681 173.248
   vertex 104.134 146.338 174.083
   vertex 104.376 145.662 174.099
  endloop
 endfacet
 facet normal -0.0565921 0.902698 -0.426537
  outer loop
   vertex 102.49 146.867 174.157
   vertex 102.295 146.632 173.685
   vertex 101.51 146.722 173.979
  endloop
 endfacet
 facet normal 0.104731 0.872105 -0.477979
  outer loop
   vertex 103.492 146.551 173.799
   vertex 102.295 146.632 173.685
   vertex 102.49 146.867 174.157
  endloop
 endfacet
 facet normal -0.670119 -0.722777 -0.168922
  outer loop
   vertex 102.503 142.62 174.187
   vertex 102.436 142.445 175.202
   vertex 102.053 142.894 174.798
  endloop
 endfacet
 facet normal -0.662157 -0.732354 -0.15876
  outer loop
   vertex 102.205 142.973 173.8
   vertex 102.503 142.62 174.187
   vertex 102.053 142.894 174.798
  endloop
 endfacet
 facet normal -0.0101343 -0.985726 -0.16805
  outer loop
   vertex 103.156 142.657 173.931
   vertex 103.234 142.506 174.813
   vertex 102.503 142.62 174.187
  endloop
 endfacet
 facet normal -0.00821114 -0.98537 -0.170233
  outer loop
   vertex 102.503 142.62 174.187
   vertex 103.234 142.506 174.813
   vertex 102.436 142.445 175.202
  endloop
 endfacet
 facet normal 0.593143 -0.783147 -0.186714
  outer loop
   vertex 103.234 142.506 174.813
   vertex 103.156 142.657 173.931
   vertex 103.514 142.907 174.022
  endloop
 endfacet
 facet normal 0.616454 -0.768582 -0.171074
  outer loop
   vertex 103.916 142.985 175.118
   vertex 103.234 142.506 174.813
   vertex 103.514 142.907 174.022
  endloop
 endfacet
 facet normal -0.736966 -0.571589 -0.360788
  outer loop
   vertex 101.348 143.634 175.068
   vertex 101.785 143.76 173.974
   vertex 102.053 142.894 174.798
  endloop
 endfacet
 facet normal -0.884534 -0.434791 -0.168989
  outer loop
   vertex 101.785 143.76 173.974
   vertex 102.205 142.973 173.8
   vertex 102.053 142.894 174.798
  endloop
 endfacet
 facet normal 0.837662 -0.191661 -0.511457
  outer loop
   vertex 104.294 143.379 174.931
   vertex 103.857 143.725 174.086
   vertex 104.42 144.032 174.893
  endloop
 endfacet
 facet normal 0.470151 -0.704341 -0.531847
  outer loop
   vertex 104.294 143.379 174.931
   vertex 103.916 142.985 175.118
   vertex 103.857 143.725 174.086
  endloop
 endfacet
 facet normal 0.887727 -0.348713 -0.300565
  outer loop
   vertex 103.916 142.985 175.118
   vertex 103.514 142.907 174.022
   vertex 103.857 143.725 174.086
  endloop
 endfacet
 facet normal -0.667408 -0.594458 -0.448537
  outer loop
   vertex 101.052 144.692 174.104
   vertex 101.348 143.634 175.068
   vertex 101.009 144.072 174.991
  endloop
 endfacet
 facet normal -0.866914 -0.387556 -0.313466
  outer loop
   vertex 101.052 144.692 174.104
   vertex 101.009 144.072 174.991
   vertex 100.679 144.81 174.992
  endloop
 endfacet
 facet normal -0.756021 -0.543245 -0.365125
  outer loop
   vertex 101.785 143.76 173.974
   vertex 101.348 143.634 175.068
   vertex 101.052 144.692 174.104
  endloop
 endfacet
 facet normal 0.821121 -0.375173 -0.430122
  outer loop
   vertex 103.857 143.725 174.086
   vertex 104.296 144.786 173.999
   vertex 104.42 144.032 174.893
  endloop
 endfacet
 facet normal 0.978182 -0.0708828 -0.195285
  outer loop
   vertex 104.42 144.032 174.893
   vertex 104.296 144.786 173.999
   vertex 104.483 145.008 174.853
  endloop
 endfacet
 facet normal -0.91887 -0.143214 -0.367651
  outer loop
   vertex 101.052 144.692 174.104
   vertex 100.679 144.81 174.992
   vertex 100.881 145.658 174.156
  endloop
 endfacet
 facet normal -0.969379 -0.0106001 -0.245339
  outer loop
   vertex 100.679 144.81 174.992
   vertex 100.661 145.772 175.018
   vertex 100.881 145.658 174.156
  endloop
 endfacet
 facet normal 0.978267 -0.0658923 -0.196602
  outer loop
   vertex 104.296 144.786 173.999
   vertex 104.376 145.662 174.099
   vertex 104.483 145.008 174.853
  endloop
 endfacet
 facet normal 0.983282 0.181302 0.0168877
  outer loop
   vertex 104.483 145.008 174.853
   vertex 104.376 145.662 174.099
   vertex 104.323 145.883 174.76
  endloop
 endfacet
 facet normal -0.93827 0.219171 -0.267607
  outer loop
   vertex 100.881 145.658 174.156
   vertex 100.661 145.772 175.018
   vertex 101.061 146.502 174.215
  endloop
 endfacet
 facet normal -0.899699 0.433155 -0.0540203
  outer loop
   vertex 100.661 145.772 175.018
   vertex 101.023 146.536 175.125
   vertex 101.061 146.502 174.215
  endloop
 endfacet
 facet normal 0.588129 0.737916 0.331036
  outer loop
   vertex 104.134 146.338 174.083
   vertex 103.399 146.578 174.854
   vertex 104.323 145.883 174.76
  endloop
 endfacet
 facet normal 0.313519 0.949576 0.00342421
  outer loop
   vertex 103.492 146.551 173.799
   vertex 103.399 146.578 174.854
   vertex 104.134 146.338 174.083
  endloop
 endfacet
 facet normal 0.941349 0.335284 -0.038028
  outer loop
   vertex 104.323 145.883 174.76
   vertex 104.376 145.662 174.099
   vertex 104.134 146.338 174.083
  endloop
 endfacet
 facet normal -0.733174 0.677711 -0.0562473
  outer loop
   vertex 101.061 146.502 174.215
   vertex 101.023 146.536 175.125
   vertex 101.332 146.842 174.798
  endloop
 endfacet
 facet normal -0.525091 0.817985 -0.234905
  outer loop
   vertex 101.51 146.722 173.979
   vertex 101.061 146.502 174.215
   vertex 101.332 146.842 174.798
  endloop
 endfacet
 facet normal -0.108216 0.973699 -0.200498
  outer loop
   vertex 102.49 146.867 174.157
   vertex 101.51 146.722 173.979
   vertex 102.147 146.973 174.853
  endloop
 endfacet
 facet normal -0.143804 0.974066 -0.174689
  outer loop
   vertex 101.51 146.722 173.979
   vertex 101.332 146.842 174.798
   vertex 102.147 146.973 174.853
  endloop
 endfacet
 facet normal 0.301836 0.953357 0.00230707
  outer loop
   vertex 103.492 146.551 173.799
   vertex 102.49 146.867 174.157
   vertex 103.399 146.578 174.854
  endloop
 endfacet
 facet normal 0.300837 0.953668 0.00373821
  outer loop
   vertex 102.49 146.867 174.157
   vertex 102.147 146.973 174.853
   vertex 103.399 146.578 174.854
  endloop
 endfacet
 facet normal -0.560466 -0.828144 0.00743327
  outer loop
   vertex 102.436 142.445 175.202
   vertex 102.336 142.521 176.146
   vertex 101.744 142.92 175.941
  endloop
 endfacet
 facet normal -0.672269 -0.721562 -0.165539
  outer loop
   vertex 102.053 142.894 174.798
   vertex 102.436 142.445 175.202
   vertex 101.744 142.92 175.941
  endloop
 endfacet
 facet normal 0.115935 -0.989713 0.0838308
  outer loop
   vertex 103.234 142.506 174.813
   vertex 103.174 142.594 175.935
   vertex 102.436 142.445 175.202
  endloop
 endfacet
 facet normal 0.109178 -0.989878 0.0906711
  outer loop
   vertex 102.436 142.445 175.202
   vertex 103.174 142.594 175.935
   vertex 102.336 142.521 176.146
  endloop
 endfacet
 facet normal 0.54359 -0.833998 0.0946452
  outer loop
   vertex 103.174 142.594 175.935
   vertex 103.234 142.506 174.813
   vertex 103.916 142.985 175.118
  endloop
 endfacet
 facet normal 0.608595 -0.771988 0.183429
  outer loop
   vertex 103.559 142.965 176.216
   vertex 103.174 142.594 175.935
   vertex 103.916 142.985 175.118
  endloop
 endfacet
 facet normal -0.86685 -0.494052 -0.0669572
  outer loop
   vertex 101.348 143.634 175.068
   vertex 101.297 143.589 176.051
   vertex 101.095 143.985 175.751
  endloop
 endfacet
 facet normal -0.793018 -0.608888 0.0194703
  outer loop
   vertex 101.009 144.072 174.991
   vertex 101.348 143.634 175.068
   vertex 101.095 143.985 175.751
  endloop
 endfacet
 facet normal -0.743788 -0.641819 -0.186677
  outer loop
   vertex 101.744 142.92 175.941
   vertex 101.348 143.634 175.068
   vertex 102.053 142.894 174.798
  endloop
 endfacet
 facet normal -0.834606 -0.546675 -0.0676654
  outer loop
   vertex 101.297 143.589 176.051
   vertex 101.348 143.634 175.068
   vertex 101.744 142.92 175.941
  endloop
 endfacet
 facet normal 0.755171 -0.579288 0.306825
  outer loop
   vertex 104.358 143.728 175.434
   vertex 103.916 142.985 175.118
   vertex 104.294 143.379 174.931
  endloop
 endfacet
 facet normal 0.693591 -0.588742 0.415107
  outer loop
   vertex 104.358 143.728 175.434
   vertex 104.091 143.782 175.955
   vertex 103.916 142.985 175.118
  endloop
 endfacet
 facet normal 0.8445 -0.46493 0.265821
  outer loop
   vertex 104.091 143.782 175.955
   vertex 103.559 142.965 176.216
   vertex 103.916 142.985 175.118
  endloop
 endfacet
 facet normal 0.981873 -0.189398 0.00736668
  outer loop
   vertex 104.294 143.379 174.931
   vertex 104.42 144.032 174.893
   vertex 104.358 143.728 175.434
  endloop
 endfacet
 facet normal -0.911218 -0.408112 0.0559105
  outer loop
   vertex 101.009 144.072 174.991
   vertex 101.095 143.985 175.751
   vertex 100.679 144.81 174.992
  endloop
 endfacet
 facet normal -0.936215 -0.221093 0.273167
  outer loop
   vertex 101.095 143.985 175.751
   vertex 100.934 144.838 175.889
   vertex 100.679 144.81 174.992
  endloop
 endfacet
 facet normal 0.890163 -0.00705257 0.455587
  outer loop
   vertex 104.303 144.712 175.555
   vertex 104.091 143.782 175.955
   vertex 104.358 143.728 175.434
  endloop
 endfacet
 facet normal 0.830282 0.0494774 0.555144
  outer loop
   vertex 103.888 144.751 176.172
   vertex 104.091 143.782 175.955
   vertex 104.303 144.712 175.555
  endloop
 endfacet
 facet normal 0.972579 -0.0532091 0.226406
  outer loop
   vertex 104.42 144.032 174.893
   vertex 104.483 145.008 174.853
   vertex 104.303 144.712 175.555
  endloop
 endfacet
 facet normal 0.989981 0.0378388 0.136036
  outer loop
   vertex 104.358 143.728 175.434
   vertex 104.42 144.032 174.893
   vertex 104.303 144.712 175.555
  endloop
 endfacet
 facet normal -0.961369 -0.0245189 0.274168
  outer loop
   vertex 100.679 144.81 174.992
   vertex 100.934 144.838 175.889
   vertex 100.661 145.772 175.018
  endloop
 endfacet
 facet normal -0.925951 0.0752221 0.370076
  outer loop
   vertex 100.934 144.838 175.889
   vertex 101.007 145.747 175.889
   vertex 100.661 145.772 175.018
  endloop
 endfacet
 facet normal 0.404397 0.705285 0.582268
  outer loop
   vertex 103.472 145.758 175.732
   vertex 102.787 145.919 176.013
   vertex 103.206 145.416 176.33
  endloop
 endfacet
 facet normal 0.635025 0.514537 0.57619
  outer loop
   vertex 103.888 144.751 176.172
   vertex 103.472 145.758 175.732
   vertex 103.206 145.416 176.33
  endloop
 endfacet
 facet normal 0.731318 0.503476 0.460093
  outer loop
   vertex 103.888 144.751 176.172
   vertex 104.303 144.712 175.555
   vertex 103.472 145.758 175.732
  endloop
 endfacet
 facet normal 0.574272 0.329861 0.749269
  outer loop
   vertex 104.303 144.712 175.555
   vertex 104.209 145.69 175.197
   vertex 103.472 145.758 175.732
  endloop
 endfacet
 facet normal 0.921101 0.20324 0.332063
  outer loop
   vertex 104.483 145.008 174.853
   vertex 104.323 145.883 174.76
   vertex 104.209 145.69 175.197
  endloop
 endfacet
 facet normal 0.922893 0.208013 0.324035
  outer loop
   vertex 104.303 144.712 175.555
   vertex 104.483 145.008 174.853
   vertex 104.209 145.69 175.197
  endloop
 endfacet
 facet normal -0.467503 0.702747 0.536272
  outer loop
   vertex 101.307 146.176 175.845
   vertex 101.523 146.704 175.34
   vertex 101.023 146.536 175.125
  endloop
 endfacet
 facet normal -0.670283 0.522979 0.52651
  outer loop
   vertex 101.307 146.176 175.845
   vertex 101.023 146.536 175.125
   vertex 101.007 145.747 175.889
  endloop
 endfacet
 facet normal -0.863672 0.359265 0.353552
  outer loop
   vertex 101.007 145.747 175.889
   vertex 101.023 146.536 175.125
   vertex 100.661 145.772 175.018
  endloop
 endfacet
 facet normal 0.0219737 0.761912 0.647308
  outer loop
   vertex 101.523 146.704 175.34
   vertex 102.063 146.157 175.965
   vertex 102.473 146.574 175.461
  endloop
 endfacet
 facet normal -0.0943964 0.707596 0.700284
  outer loop
   vertex 101.307 146.176 175.845
   vertex 102.063 146.157 175.965
   vertex 101.523 146.704 175.34
  endloop
 endfacet
 facet normal 0.178599 0.68233 0.708892
  outer loop
   vertex 102.787 145.919 176.013
   vertex 102.473 146.574 175.461
   vertex 102.063 146.157 175.965
  endloop
 endfacet
 facet normal 0.406542 0.69439 0.593756
  outer loop
   vertex 102.787 145.919 176.013
   vertex 103.472 145.758 175.732
   vertex 102.473 146.574 175.461
  endloop
 endfacet
 facet normal 0.396209 0.686889 0.609263
  outer loop
   vertex 103.472 145.758 175.732
   vertex 103.399 146.578 174.854
   vertex 102.473 146.574 175.461
  endloop
 endfacet
 facet normal 0.56441 0.689781 0.453479
  outer loop
   vertex 104.323 145.883 174.76
   vertex 103.399 146.578 174.854
   vertex 104.209 145.69 175.197
  endloop
 endfacet
 facet normal 0.479735 0.660479 0.5776
  outer loop
   vertex 104.209 145.69 175.197
   vertex 103.399 146.578 174.854
   vertex 103.472 145.758 175.732
  endloop
 endfacet
 facet normal -0.434173 0.824315 0.363317
  outer loop
   vertex 101.023 146.536 175.125
   vertex 101.523 146.704 175.34
   vertex 101.332 146.842 174.798
  endloop
 endfacet
 facet normal -0.170338 0.938773 0.299484
  outer loop
   vertex 102.147 146.973 174.853
   vertex 101.332 146.842 174.798
   vertex 101.523 146.704 175.34
  endloop
 endfacet
 facet normal 0.0485459 0.846789 0.529709
  outer loop
   vertex 102.473 146.574 175.461
   vertex 102.147 146.973 174.853
   vertex 101.523 146.704 175.34
  endloop
 endfacet
 facet normal 0.272529 0.864934 0.421447
  outer loop
   vertex 103.399 146.578 174.854
   vertex 102.147 146.973 174.853
   vertex 102.473 146.574 175.461
  endloop
 endfacet
 facet normal -0.419734 -0.873871 0.245299
  outer loop
   vertex 102.336 142.521 176.146
   vertex 102.57 142.608 176.856
   vertex 102.015 142.901 176.949
  endloop
 endfacet
 facet normal -0.586411 -0.79738 0.142505
  outer loop
   vertex 101.744 142.92 175.941
   vertex 102.336 142.521 176.146
   vertex 102.015 142.901 176.949
  endloop
 endfacet
 facet normal 0.194475 -0.963602 0.183441
  outer loop
   vertex 103.231 142.721 176.747
   vertex 103.023 142.74 177.066
   vertex 102.57 142.608 176.856
  endloop
 endfacet
 facet normal 0.18856 -0.972226 0.138642
  outer loop
   vertex 103.231 142.721 176.747
   vertex 102.57 142.608 176.856
   vertex 103.174 142.594 175.935
  endloop
 endfacet
 facet normal 0.108083 -0.990402 0.0861499
  outer loop
   vertex 103.174 142.594 175.935
   vertex 102.57 142.608 176.856
   vertex 102.336 142.521 176.146
  endloop
 endfacet
 facet normal 0.664703 -0.743852 0.0696766
  outer loop
   vertex 103.174 142.594 175.935
   vertex 103.559 142.965 176.216
   vertex 103.231 142.721 176.747
  endloop
 endfacet
 facet normal -0.926003 -0.286992 0.245262
  outer loop
   vertex 101.297 143.589 176.051
   vertex 101.249 144.07 176.434
   vertex 101.095 143.985 175.751
  endloop
 endfacet
 facet normal -0.916223 -0.301166 0.264263
  outer loop
   vertex 101.297 143.589 176.051
   vertex 101.515 143.648 176.875
   vertex 101.249 144.07 176.434
  endloop
 endfacet
 facet normal -0.786006 -0.566093 0.248461
  outer loop
   vertex 101.297 143.589 176.051
   vertex 101.744 142.92 175.941
   vertex 101.515 143.648 176.875
  endloop
 endfacet
 facet normal -0.821821 -0.529245 0.210977
  outer loop
   vertex 101.744 142.92 175.941
   vertex 102.015 142.901 176.949
   vertex 101.515 143.648 176.875
  endloop
 endfacet
 facet normal 0.681266 -0.555725 0.476494
  outer loop
   vertex 103.231 142.721 176.747
   vertex 103.224 143.03 177.117
   vertex 103.023 142.74 177.066
  endloop
 endfacet
 facet normal 0.851133 -0.395168 0.345564
  outer loop
   vertex 103.224 143.03 177.117
   vertex 103.231 142.721 176.747
   vertex 103.559 142.965 176.216
  endloop
 endfacet
 facet normal 0.840165 -0.419865 0.343272
  outer loop
   vertex 103.224 143.03 177.117
   vertex 103.559 142.965 176.216
   vertex 103.741 143.869 176.877
  endloop
 endfacet
 facet normal 0.831044 -0.427342 0.356012
  outer loop
   vertex 103.741 143.869 176.877
   vertex 103.559 142.965 176.216
   vertex 104.091 143.782 175.955
  endloop
 endfacet
 facet normal -0.809329 0.0803312 0.581836
  outer loop
   vertex 101.249 144.07 176.434
   vertex 101.405 145.023 176.52
   vertex 100.934 144.838 175.889
  endloop
 endfacet
 facet normal -0.945773 -0.2177 0.241081
  outer loop
   vertex 101.095 143.985 175.751
   vertex 101.249 144.07 176.434
   vertex 100.934 144.838 175.889
  endloop
 endfacet
 facet normal -0.84956 0.015216 0.527273
  outer loop
   vertex 101.719 144.523 177.178
   vertex 101.249 144.07 176.434
   vertex 101.515 143.648 176.875
  endloop
 endfacet
 facet normal -0.867339 0.0982424 0.487925
  outer loop
   vertex 101.405 145.023 176.52
   vertex 101.249 144.07 176.434
   vertex 101.719 144.523 177.178
  endloop
 endfacet
 facet normal 0.931874 0.118287 0.342956
  outer loop
   vertex 104.091 143.782 175.955
   vertex 103.888 144.751 176.172
   vertex 103.741 143.869 176.877
  endloop
 endfacet
 facet normal 0.886692 0.188978 0.421977
  outer loop
   vertex 103.741 143.869 176.877
   vertex 103.888 144.751 176.172
   vertex 103.555 144.759 176.87
  endloop
 endfacet
 facet normal -0.620216 0.292893 0.727699
  outer loop
   vertex 101.405 145.023 176.52
   vertex 101.448 145.784 176.25
   vertex 101.007 145.747 175.889
  endloop
 endfacet
 facet normal -0.808165 0.0655521 0.585296
  outer loop
   vertex 100.934 144.838 175.889
   vertex 101.405 145.023 176.52
   vertex 101.007 145.747 175.889
  endloop
 endfacet
 facet normal -0.46475 0.584442 0.665157
  outer loop
   vertex 102.339 145.264 176.96
   vertex 101.405 145.023 176.52
   vertex 101.719 144.523 177.178
  endloop
 endfacet
 facet normal -0.457563 0.635458 0.621955
  outer loop
   vertex 102.339 145.264 176.96
   vertex 102.243 145.691 176.453
   vertex 101.405 145.023 176.52
  endloop
 endfacet
 facet normal -0.196338 0.337619 0.920578
  outer loop
   vertex 102.243 145.691 176.453
   vertex 101.448 145.784 176.25
   vertex 101.405 145.023 176.52
  endloop
 endfacet
 facet normal 0.27906 0.668412 0.689457
  outer loop
   vertex 102.243 145.691 176.453
   vertex 103.206 145.416 176.33
   vertex 102.787 145.919 176.013
  endloop
 endfacet
 facet normal 0.291152 0.758447 0.583086
  outer loop
   vertex 102.243 145.691 176.453
   vertex 102.339 145.264 176.96
   vertex 103.206 145.416 176.33
  endloop
 endfacet
 facet normal 0.219553 0.835767 0.50328
  outer loop
   vertex 102.339 145.264 176.96
   vertex 103.145 144.988 177.068
   vertex 103.206 145.416 176.33
  endloop
 endfacet
 facet normal 0.697587 0.637895 0.326287
  outer loop
   vertex 103.555 144.759 176.87
   vertex 103.888 144.751 176.172
   vertex 103.206 145.416 176.33
  endloop
 endfacet
 facet normal 0.590841 0.675516 0.441118
  outer loop
   vertex 103.145 144.988 177.068
   vertex 103.555 144.759 176.87
   vertex 103.206 145.416 176.33
  endloop
 endfacet
 facet normal -0.581101 0.47461 0.66111
  outer loop
   vertex 101.007 145.747 175.889
   vertex 101.448 145.784 176.25
   vertex 101.307 146.176 175.845
  endloop
 endfacet
 facet normal -0.0960822 0.698218 0.709409
  outer loop
   vertex 102.063 146.157 175.965
   vertex 101.307 146.176 175.845
   vertex 101.448 145.784 176.25
  endloop
 endfacet
 facet normal -0.0991372 0.700905 0.706331
  outer loop
   vertex 102.243 145.691 176.453
   vertex 102.063 146.157 175.965
   vertex 101.448 145.784 176.25
  endloop
 endfacet
 facet normal 0.203799 0.744376 0.635901
  outer loop
   vertex 102.787 145.919 176.013
   vertex 102.063 146.157 175.965
   vertex 102.243 145.691 176.453
  endloop
 endfacet
 facet normal -0.35452 -0.817224 0.454379
  outer loop
   vertex 102.57 142.608 176.856
   vertex 102.468 142.925 177.346
   vertex 102.015 142.901 176.949
  endloop
 endfacet
 facet normal -0.00714009 -0.840588 0.541628
  outer loop
   vertex 102.57 142.608 176.856
   vertex 103.023 142.74 177.066
   vertex 102.468 142.925 177.346
  endloop
 endfacet
 facet normal -0.389407 -0.566743 0.726061
  outer loop
   vertex 102.468 142.925 177.346
   vertex 102.512 143.543 177.852
   vertex 102.086 143.685 177.734
  endloop
 endfacet
 facet normal -0.518396 -0.5811 0.627367
  outer loop
   vertex 102.468 142.925 177.346
   vertex 102.086 143.685 177.734
   vertex 102.015 142.901 176.949
  endloop
 endfacet
 facet normal -0.737686 -0.4432 0.509307
  outer loop
   vertex 102.015 142.901 176.949
   vertex 102.086 143.685 177.734
   vertex 101.515 143.648 176.875
  endloop
 endfacet
 facet normal 0.490512 -0.281715 0.824642
  outer loop
   vertex 103.132 143.855 177.59
   vertex 102.508 143.917 177.982
   vertex 102.512 143.543 177.852
  endloop
 endfacet
 facet normal 0.516372 -0.38153 0.766678
  outer loop
   vertex 103.224 143.03 177.117
   vertex 103.132 143.855 177.59
   vertex 102.512 143.543 177.852
  endloop
 endfacet
 facet normal 0.305302 -0.616269 0.72595
  outer loop
   vertex 103.224 143.03 177.117
   vertex 102.512 143.543 177.852
   vertex 102.468 142.925 177.346
  endloop
 endfacet
 facet normal 0.315651 -0.373208 0.872399
  outer loop
   vertex 103.224 143.03 177.117
   vertex 102.468 142.925 177.346
   vertex 103.023 142.74 177.066
  endloop
 endfacet
 facet normal 0.733607 -0.274369 0.621726
  outer loop
   vertex 103.224 143.03 177.117
   vertex 103.741 143.869 176.877
   vertex 103.132 143.855 177.59
  endloop
 endfacet
 facet normal -0.442443 0.657026 0.610377
  outer loop
   vertex 102.231 144.182 177.917
   vertex 102.517 144.61 177.663
   vertex 101.719 144.523 177.178
  endloop
 endfacet
 facet normal -0.815614 0.026526 0.577989
  outer loop
   vertex 102.231 144.182 177.917
   vertex 101.719 144.523 177.178
   vertex 102.086 143.685 177.734
  endloop
 endfacet
 facet normal -0.833061 0.00241366 0.553175
  outer loop
   vertex 102.086 143.685 177.734
   vertex 101.719 144.523 177.178
   vertex 101.515 143.648 176.875
  endloop
 endfacet
 facet normal 0.182145 0.408422 0.894436
  outer loop
   vertex 102.508 143.917 177.982
   vertex 102.517 144.61 177.663
   vertex 102.231 144.182 177.917
  endloop
 endfacet
 facet normal 0.522845 0.35028 0.777134
  outer loop
   vertex 102.508 143.917 177.982
   vertex 103.132 143.855 177.59
   vertex 102.517 144.61 177.663
  endloop
 endfacet
 facet normal 0.413853 0.251932 0.874789
  outer loop
   vertex 103.132 143.855 177.59
   vertex 103.314 144.556 177.302
   vertex 102.517 144.61 177.663
  endloop
 endfacet
 facet normal 0.822541 0.176536 0.540613
  outer loop
   vertex 103.741 143.869 176.877
   vertex 103.555 144.759 176.87
   vertex 103.314 144.556 177.302
  endloop
 endfacet
 facet normal 0.757755 0.0694551 0.648832
  outer loop
   vertex 103.132 143.855 177.59
   vertex 103.741 143.869 176.877
   vertex 103.314 144.556 177.302
  endloop
 endfacet
 facet normal -0.466655 0.585397 0.66298
  outer loop
   vertex 101.719 144.523 177.178
   vertex 102.517 144.61 177.663
   vertex 102.339 145.264 176.96
  endloop
 endfacet
 facet normal 0.167947 0.742266 0.648718
  outer loop
   vertex 103.145 144.988 177.068
   vertex 102.339 145.264 176.96
   vertex 102.517 144.61 177.663
  endloop
 endfacet
 facet normal 0.375449 0.550492 0.745651
  outer loop
   vertex 103.314 144.556 177.302
   vertex 103.145 144.988 177.068
   vertex 102.517 144.61 177.663
  endloop
 endfacet
 facet normal 0.592267 0.550636 0.588234
  outer loop
   vertex 103.555 144.759 176.87
   vertex 103.145 144.988 177.068
   vertex 103.314 144.556 177.302
  endloop
 endfacet
 facet normal -0.397332 -0.725583 0.561833
  outer loop
   vertex 102.512 143.543 177.852
   vertex 102.312 143.805 178.049
   vertex 102.086 143.685 177.734
  endloop
 endfacet
 facet normal 0.453223 -0.288598 0.843386
  outer loop
   vertex 102.512 143.543 177.852
   vertex 102.508 143.917 177.982
   vertex 102.312 143.805 178.049
  endloop
 endfacet
 facet normal -0.817647 0.0282097 0.575029
  outer loop
   vertex 102.086 143.685 177.734
   vertex 102.312 143.805 178.049
   vertex 102.231 144.182 177.917
  endloop
 endfacet
 facet normal 0.120398 0.35218 0.928156
  outer loop
   vertex 102.508 143.917 177.982
   vertex 102.231 144.182 177.917
   vertex 102.312 143.805 178.049
  endloop
 endfacet
endsolid
