ply
format ascii 1.0
element vertex 78
property float x
property float y
property float z
property float nx
property float ny
property float nz
element face 26
property list uint uint vertex_indices
end_header
52.0421 199.119 151.811 -0.648166 -0.550248 -0.526411
51.9957 198.873 152.126 -0.648166 -0.550248 -0.526411
51.7614 199.194 152.078 -0.648166 -0.550248 -0.526411
52.0421 199.119 151.811 -0.0300159 -0.590098 -0.806773
52.7393 199.168 151.75 -0.0300159 -0.590098 -0.806773
52.6098 198.777 152.04 -0.0300159 -0.590098 -0.806773
51.9957 198.873 152.126 -0.204337 -0.755913 -0.621966
52.0421 199.119 151.811 -0.204337 -0.755913 -0.621966
52.6098 198.777 152.04 -0.204337 -0.755913 -0.621966
52.6098 198.777 152.04 0.634563 -0.58551 -0.504489
52.7393 199.168 151.75 0.634563 -0.58551 -0.504489
53.0543 199.152 152.165 0.634563 -0.58551 -0.504489
51.8663 199.727 151.988 -0.687559 0.0126702 -0.726018
52.0421 199.119 151.811 -0.687559 0.0126702 -0.726018
51.7614 199.194 152.078 -0.687559 0.0126702 -0.726018
51.7472 199.746 152.184 -0.847962 0.0782551 -0.524249
51.8663 199.727 151.988 -0.847962 0.0782551 -0.524249
51.7614 199.194 152.078 -0.847962 0.0782551 -0.524249
52.7393 199.168 151.75 -0.102813 0.254384 -0.961623
52.0421 199.119 151.811 -0.102813 0.254384 -0.961623
52.4852 199.726 151.925 -0.102813 0.254384 -0.961623
52.4852 199.726 151.925 -0.0988455 0.251699 -0.962745
52.0421 199.119 151.811 -0.0988455 0.251699 -0.962745
51.8663 199.727 151.988 -0.0988455 0.251699 -0.962745
52.8783 199.753 152.156 0.780917 0.220061 -0.584587
53.0543 199.152 152.165 0.780917 0.220061 -0.584587
52.7393 199.168 151.75 0.780917 0.220061 -0.584587
52.4852 199.726 151.925 0.432061 0.44258 -0.785778
52.8783 199.753 152.156 0.432061 0.44258 -0.785778
52.7393 199.168 151.75 0.432061 0.44258 -0.785778
51.8663 199.727 151.988 -0.569307 0.709643 -0.415086
51.7472 199.746 152.184 -0.569307 0.709643 -0.415086
52.0276 199.942 152.134 -0.569307 0.709643 -0.415086
52.4852 199.726 151.925 -0.0810292 0.600106 -0.795806
51.8663 199.727 151.988 -0.0810292 0.600106 -0.795806
52.0276 199.942 152.134 -0.0810292 0.600106 -0.795806
52.8783 199.753 152.156 0.204921 0.87012 -0.448217
52.4852 199.726 151.925 0.204921 0.87012 -0.448217
52.0276 199.942 152.134 0.204921 0.87012 -0.448217
51.9957 198.873 152.126 -0.731399 -0.458396 0.504905
51.9508 199.236 152.391 -0.731399 -0.458396 0.504905
51.7614 199.194 152.078 -0.731399 -0.458396 0.504905
51.9957 198.873 152.126 -0.0500571 -0.826274 0.56104
52.6098 198.777 152.04 -0.0500571 -0.826274 0.56104
52.5927 199.035 152.419 -0.0500571 -0.826274 0.56104
51.9508 199.236 152.391 -0.219133 -0.592235 0.775396
51.9957 198.873 152.126 -0.219133 -0.592235 0.775396
52.5927 199.035 152.419 -0.219133 -0.592235 0.775396
52.6098 198.777 152.04 0.464634 -0.721719 0.513066
53.0543 199.152 152.165 0.464634 -0.721719 0.513066
52.5927 199.035 152.419 0.464634 -0.721719 0.513066
51.9508 199.236 152.391 -0.731783 -0.0157578 0.681356
52.0493 199.821 152.51 -0.731783 -0.0157578 0.681356
51.7472 199.746 152.184 -0.731783 -0.0157578 0.681356
51.7614 199.194 152.078 -0.841309 -0.122198 0.526561
51.9508 199.236 152.391 -0.841309 -0.122198 0.526561
51.7472 199.746 152.184 -0.841309 -0.122198 0.526561
52.5927 199.035 152.419 -0.137977 -0.308791 0.941069
52.6446 199.616 152.617 -0.137977 -0.308791 0.941069
51.9508 199.236 152.391 -0.137977 -0.308791 0.941069
52.6446 199.616 152.617 -0.227175 -0.157756 0.960991
52.0493 199.821 152.51 -0.227175 -0.157756 0.960991
51.9508 199.236 152.391 -0.227175 -0.157756 0.960991
53.0543 199.152 152.165 0.831463 0.250969 0.495666
52.8783 199.753 152.156 0.831463 0.250969 0.495666
52.6446 199.616 152.617 0.831463 0.250969 0.495666
52.5927 199.035 152.419 0.517861 -0.317396 0.794405
53.0543 199.152 152.165 0.517861 -0.317396 0.794405
52.6446 199.616 152.617 0.517861 -0.317396 0.794405
51.7472 199.746 152.184 -0.512484 0.808661 0.288837
52.0493 199.821 152.51 -0.512484 0.808661 0.288837
52.0276 199.942 152.134 -0.512484 0.808661 0.288837
52.8783 199.753 152.156 0.200611 0.936191 0.288619
52.0276 199.942 152.134 0.200611 0.936191 0.288619
52.0493 199.821 152.51 0.200611 0.936191 0.288619
52.6446 199.616 152.617 0.23831 0.891439 0.385416
52.8783 199.753 152.156 0.23831 0.891439 0.385416
52.0493 199.821 152.51 0.23831 0.891439 0.385416
3 0 1 2
3 3 4 5
3 6 7 8
3 9 10 11
3 12 13 14
3 15 16 17
3 18 19 20
3 21 22 23
3 24 25 26
3 27 28 29
3 30 31 32
3 33 34 35
3 36 37 38
3 39 40 41
3 42 43 44
3 45 46 47
3 48 49 50
3 51 52 53
3 54 55 56
3 57 58 59
3 60 61 62
3 63 64 65
3 66 67 68
3 69 70 71
3 72 73 74
3 75 76 77
