ply
format ascii 1.0
element vertex 234
property float x
property float y
property float z
property float nx
property float ny
property float nz
element face 78
property list uint uint vertex_indices
end_header
68.4887 170.038 182.079 -0.0965442 -0.517362 -0.850304
69.3847 170.069 181.959 -0.0965442 -0.517362 -0.850304
69.0943 169.502 182.337 -0.0965442 -0.517362 -0.850304
68.4724 169.538 182.594 -0.315625 -0.676377 -0.665504
68.4887 170.038 182.079 -0.315625 -0.676377 -0.665504
69.0943 169.502 182.337 -0.315625 -0.676377 -0.665504
69.0943 169.502 182.337 0.671525 -0.617338 -0.409813
69.3847 170.069 181.959 0.671525 -0.617338 -0.409813
69.5825 169.908 182.525 0.671525 -0.617338 -0.409813
68.1021 170.956 182.519 -0.811283 -0.0634848 -0.581196
68.4844 170.961 181.985 -0.811283 -0.0634848 -0.581196
68.4887 170.038 182.079 -0.811283 -0.0634848 -0.581196
69.3847 170.069 181.959 -0.136263 0.102213 -0.985386
68.4887 170.038 182.079 -0.136263 0.102213 -0.985386
69.1674 170.739 182.058 -0.136263 0.102213 -0.985386
69.1674 170.739 182.058 0.0741367 -0.101506 -0.992069
68.4887 170.038 182.079 0.0741367 -0.101506 -0.992069
68.4844 170.961 181.985 0.0741367 -0.101506 -0.992069
70.093 170.529 182.377 0.654759 -0.635542 -0.409118
69.5825 169.908 182.525 0.654759 -0.635542 -0.409118
69.3847 170.069 181.959 0.654759 -0.635542 -0.409118
70.093 170.529 182.377 0.538493 -0.0654388 -0.840085
69.3847 170.069 181.959 0.538493 -0.0654388 -0.840085
69.9183 170.909 182.235 0.538493 -0.0654388 -0.840085
69.9183 170.909 182.235 0.181273 0.201693 -0.962528
69.3847 170.069 181.959 0.181273 0.201693 -0.962528
69.1674 170.739 182.058 0.181273 0.201693 -0.962528
70.093 170.529 182.377 0.813138 0.16604 -0.557886
69.9183 170.909 182.235 0.813138 0.16604 -0.557886
70.1964 170.953 182.654 0.813138 0.16604 -0.557886
68.4184 171.821 182.448 -0.78981 0.24299 -0.563166
68.4844 170.961 181.985 -0.78981 0.24299 -0.563166
68.1021 170.956 182.519 -0.78981 0.24299 -0.563166
68.1531 171.932 182.707 -0.647717 0.176451 -0.741166
68.4184 171.821 182.448 -0.647717 0.176451 -0.741166
68.1021 170.956 182.519 -0.647717 0.176451 -0.741166
69.1674 170.739 182.058 0.188488 0.266326 -0.945274
68.4844 170.961 181.985 0.188488 0.266326 -0.945274
69.1846 171.611 182.307 0.188488 0.266326 -0.945274
69.1846 171.611 182.307 -0.032326 0.47235 -0.880818
68.4844 170.961 181.985 -0.032326 0.47235 -0.880818
68.4184 171.821 182.448 -0.032326 0.47235 -0.880818
69.5699 171.682 182.556 0.684956 0.52057 -0.509748
70.1964 170.953 182.654 0.684956 0.52057 -0.509748
69.9183 170.909 182.235 0.684956 0.52057 -0.509748
69.5699 171.682 182.556 0.402889 0.500021 -0.766589
69.9183 170.909 182.235 0.402889 0.500021 -0.766589
69.1846 171.611 182.307 0.402889 0.500021 -0.766589
69.1846 171.611 182.307 0.163187 0.268031 -0.949489
69.9183 170.909 182.235 0.163187 0.268031 -0.949489
69.1674 170.739 182.058 0.163187 0.268031 -0.949489
68.4724 169.538 182.594 -0.637837 -0.71423 0.288167
68.4843 169.785 183.232 -0.637837 -0.71423 0.288167
68.104 170.089 183.143 -0.637837 -0.71423 0.288167
68.4887 170.038 182.079 -0.903512 -0.293131 -0.312636
68.4724 169.538 182.594 -0.903512 -0.293131 -0.312636
68.104 170.089 183.143 -0.903512 -0.293131 -0.312636
69.0943 169.502 182.337 0.0617771 -0.956826 0.28402
69.1609 169.714 183.036 0.0617771 -0.956826 0.28402
68.4724 169.538 182.594 0.0617771 -0.956826 0.28402
68.4724 169.538 182.594 0.00640074 -0.932669 0.360676
69.1609 169.714 183.036 0.00640074 -0.932669 0.360676
68.4843 169.785 183.232 0.00640074 -0.932669 0.360676
69.1609 169.714 183.036 0.585797 -0.78944 0.183375
69.0943 169.502 182.337 0.585797 -0.78944 0.183375
69.5825 169.908 182.525 0.585797 -0.78944 0.183375
69.7346 169.988 183.194 0.428463 -0.903499 0.0104689
69.1609 169.714 183.036 0.428463 -0.903499 0.0104689
69.5825 169.908 182.525 0.428463 -0.903499 0.0104689
67.7366 170.873 183.304 -0.848962 -0.30995 -0.428011
68.1021 170.956 182.519 -0.848962 -0.30995 -0.428011
68.104 170.089 183.143 -0.848962 -0.30995 -0.428011
68.1021 170.956 182.519 -0.918057 -0.232935 -0.320799
68.4887 170.038 182.079 -0.918057 -0.232935 -0.320799
68.104 170.089 183.143 -0.918057 -0.232935 -0.320799
69.5825 169.908 182.525 0.64068 -0.765893 -0.0541851
70.1903 170.38 183.041 0.64068 -0.765893 -0.0541851
69.7346 169.988 183.194 0.64068 -0.765893 -0.0541851
70.093 170.529 182.377 0.717601 -0.649582 -0.25118
70.1903 170.38 183.041 0.717601 -0.649582 -0.25118
69.5825 169.908 182.525 0.717601 -0.649582 -0.25118
70.1903 170.38 183.041 0.977053 -0.126308 -0.171503
70.093 170.529 182.377 0.977053 -0.126308 -0.171503
70.1964 170.953 182.654 0.977053 -0.126308 -0.171503
70.3273 170.771 183.198 0.932632 -0.208809 -0.294272
70.1903 170.38 183.041 0.932632 -0.208809 -0.294272
70.1964 170.953 182.654 0.932632 -0.208809 -0.294272
67.7366 170.873 183.304 -0.861228 0.355623 -0.363068
68.043 171.655 183.344 -0.861228 0.355623 -0.363068
68.1021 170.956 182.519 -0.861228 0.355623 -0.363068
68.043 171.655 183.344 -0.987537 0.0779337 -0.136738
68.1531 171.932 182.707 -0.987537 0.0779337 -0.136738
68.1021 170.956 182.519 -0.987537 0.0779337 -0.136738
70.1964 170.953 182.654 0.820723 0.565215 0.0833421
69.62 171.705 183.226 0.820723 0.565215 0.0833421
70.0521 171.051 183.406 0.820723 0.565215 0.0833421
69.5699 171.682 182.556 0.761232 0.643588 -0.079496
69.62 171.705 183.226 0.761232 0.643588 -0.079496
70.1964 170.953 182.654 0.761232 0.643588 -0.079496
70.0521 171.051 183.406 0.732106 0.679247 0.0514235
70.3273 170.771 183.198 0.732106 0.679247 0.0514235
70.1964 170.953 182.654 0.732106 0.679247 0.0514235
68.3504 172.556 183.145 -0.408051 0.607886 -0.681153
68.4184 171.821 182.448 -0.408051 0.607886 -0.681153
68.1531 171.932 182.707 -0.408051 0.607886 -0.681153
68.3504 172.556 183.145 -0.848412 0.456643 -0.267721
68.1531 171.932 182.707 -0.848412 0.456643 -0.267721
68.2035 172.461 183.449 -0.848412 0.456643 -0.267721
68.2035 172.461 183.449 -0.975589 0.204671 -0.0795959
68.1531 171.932 182.707 -0.975589 0.204671 -0.0795959
68.043 171.655 183.344 -0.975589 0.204671 -0.0795959
68.4184 171.821 182.448 0.100746 0.780602 -0.616856
69.0912 172.361 183.242 0.100746 0.780602 -0.616856
69.1846 171.611 182.307 0.100746 0.780602 -0.616856
68.3504 172.556 183.145 0.267505 0.675787 -0.686843
69.0912 172.361 183.242 0.267505 0.675787 -0.686843
68.4184 171.821 182.448 0.267505 0.675787 -0.686843
69.1846 171.611 182.307 0.240998 0.76832 -0.592963
69.0912 172.361 183.242 0.240998 0.76832 -0.592963
69.5699 171.682 182.556 0.240998 0.76832 -0.592963
69.5699 171.682 182.556 0.775011 0.626872 -0.079942
69.0912 172.361 183.242 0.775011 0.626872 -0.079942
69.62 171.705 183.226 0.775011 0.626872 -0.079942
68.4843 169.785 183.232 -0.6026 -0.601044 0.524995
68.4857 170.111 183.606 -0.6026 -0.601044 0.524995
68.104 170.089 183.143 -0.6026 -0.601044 0.524995
68.4843 169.785 183.232 0.0881631 -0.798668 0.595279
69.1609 169.714 183.036 0.0881631 -0.798668 0.595279
69.2376 170.017 183.432 0.0881631 -0.798668 0.595279
68.4857 170.111 183.606 0.0583197 -0.753333 0.655049
68.4843 169.785 183.232 0.0583197 -0.753333 0.655049
69.2376 170.017 183.432 0.0583197 -0.753333 0.655049
69.1609 169.714 183.036 0.223754 -0.793928 0.565343
69.7346 169.988 183.194 0.223754 -0.793928 0.565343
69.2376 170.017 183.432 0.223754 -0.793928 0.565343
68.104 170.089 183.143 -0.645588 -0.431775 0.62991
68.3606 171.041 184.059 -0.645588 -0.431775 0.62991
67.7366 170.873 183.304 -0.645588 -0.431775 0.62991
68.104 170.089 183.143 -0.703177 -0.385211 0.597624
68.4857 170.111 183.606 -0.703177 -0.385211 0.597624
68.3606 171.041 184.059 -0.703177 -0.385211 0.597624
68.3606 171.041 184.059 0.00488251 -0.436919 0.899488
68.4857 170.111 183.606 0.00488251 -0.436919 0.899488
69.2758 170.844 183.958 0.00488251 -0.436919 0.899488
68.4857 170.111 183.606 0.126834 -0.536885 0.834067
69.2376 170.017 183.432 0.126834 -0.536885 0.834067
69.2758 170.844 183.958 0.126834 -0.536885 0.834067
69.7346 169.988 183.194 0.644214 -0.535497 0.546106
70.1903 170.38 183.041 0.644214 -0.535497 0.546106
70.0585 170.604 183.416 0.644214 -0.535497 0.546106
69.7346 169.988 183.194 0.356371 -0.476887 0.803479
70.0585 170.604 183.416 0.356371 -0.476887 0.803479
69.2376 170.017 183.432 0.356371 -0.476887 0.803479
69.2376 170.017 183.432 0.379005 -0.509378 0.772586
70.0585 170.604 183.416 0.379005 -0.509378 0.772586
69.2758 170.844 183.958 0.379005 -0.509378 0.772586
70.1903 170.38 183.041 0.713315 -0.462361 0.526692
70.3273 170.771 183.198 0.713315 -0.462361 0.526692
70.0585 170.604 183.416 0.713315 -0.462361 0.526692
67.7366 170.873 183.304 -0.770558 0.272748 0.576064
68.3606 171.041 184.059 -0.770558 0.272748 0.576064
68.043 171.655 183.344 -0.770558 0.272748 0.576064
68.3606 171.041 184.059 -0.947186 -0.183176 0.263221
68.2078 171.874 184.088 -0.947186 -0.183176 0.263221
68.043 171.655 183.344 -0.947186 -0.183176 0.263221
69.2758 170.844 183.958 0.00907497 -0.421232 0.906908
69.1175 171.491 184.26 0.00907497 -0.421232 0.906908
68.3606 171.041 184.059 0.00907497 -0.421232 0.906908
70.0521 171.051 183.406 0.777018 0.580381 0.243723
69.62 171.705 183.226 0.777018 0.580381 0.243723
69.3455 171.732 184.039 0.777018 0.580381 0.243723
70.0521 171.051 183.406 0.596508 -0.118724 0.793777
69.3455 171.732 184.039 0.596508 -0.118724 0.793777
69.2758 170.844 183.958 0.596508 -0.118724 0.793777
70.0521 171.051 183.406 0.574874 0.0265437 0.817811
69.2758 170.844 183.958 0.574874 0.0265437 0.817811
70.0585 170.604 183.416 0.574874 0.0265437 0.817811
69.2758 170.844 183.958 0.75326 -0.117752 0.647096
69.3455 171.732 184.039 0.75326 -0.117752 0.647096
69.1175 171.491 184.26 0.75326 -0.117752 0.647096
70.3273 170.771 183.198 0.61961 0.0264324 0.784464
70.0521 171.051 183.406 0.61961 0.0264324 0.784464
70.0585 170.604 183.416 0.61961 0.0264324 0.784464
68.3511 172.206 184.124 -0.62374 0.676145 0.392143
68.4553 172.602 183.605 -0.62374 0.676145 0.392143
68.2035 172.461 183.449 -0.62374 0.676145 0.392143
68.3511 172.206 184.124 -0.880688 0.345987 0.323546
68.2035 172.461 183.449 -0.880688 0.345987 0.323546
68.2078 171.874 184.088 -0.880688 0.345987 0.323546
68.2078 171.874 184.088 -0.971283 0.171958 0.164438
68.2035 172.461 183.449 -0.971283 0.171958 0.164438
68.043 171.655 183.344 -0.971283 0.171958 0.164438
68.4553 172.602 183.605 0.497987 0.796732 0.342384
68.968 172.05 184.145 0.497987 0.796732 0.342384
69.0912 172.361 183.242 0.497987 0.796732 0.342384
68.3511 172.206 184.124 0.171762 0.76534 0.620284
68.968 172.05 184.145 0.171762 0.76534 0.620284
68.4553 172.602 183.605 0.171762 0.76534 0.620284
69.0912 172.361 183.242 0.661502 0.67666 0.323337
68.968 172.05 184.145 0.661502 0.67666 0.323337
69.3455 171.732 184.039 0.661502 0.67666 0.323337
69.0912 172.361 183.242 0.759016 0.606486 0.236791
69.3455 171.732 184.039 0.759016 0.606486 0.236791
69.62 171.705 183.226 0.759016 0.606486 0.236791
68.2035 172.461 183.449 -0.502414 0.864214 0.0267222
68.4553 172.602 183.605 -0.502414 0.864214 0.0267222
68.3504 172.556 183.145 -0.502414 0.864214 0.0267222
69.0912 172.361 183.242 0.270134 0.949763 -0.158046
68.3504 172.556 183.145 0.270134 0.949763 -0.158046
68.4553 172.602 183.605 0.270134 0.949763 -0.158046
68.3606 171.041 184.059 -0.768162 -0.16285 0.619198
68.4503 171.808 184.372 -0.768162 -0.16285 0.619198
68.2078 171.874 184.088 -0.768162 -0.16285 0.619198
68.3606 171.041 184.059 -0.0805373 -0.291097 0.953298
69.1175 171.491 184.26 -0.0805373 -0.291097 0.953298
69.0175 171.723 184.323 -0.0805373 -0.291097 0.953298
68.3606 171.041 184.059 0.0231711 -0.380006 0.924694
69.0175 171.723 184.323 0.0231711 -0.380006 0.924694
68.4503 171.808 184.372 0.0231711 -0.380006 0.924694
69.1175 171.491 184.26 0.651273 0.0778221 0.754842
69.3455 171.732 184.039 0.651273 0.0778221 0.754842
69.0175 171.723 184.323 0.651273 0.0778221 0.754842
68.2078 171.874 184.088 -0.710914 0.23682 0.662207
68.4503 171.808 184.372 -0.710914 0.23682 0.662207
68.3511 172.206 184.124 -0.710914 0.23682 0.662207
68.968 172.05 184.145 0.109479 0.546694 0.830145
68.3511 172.206 184.124 0.109479 0.546694 0.830145
68.4503 171.808 184.372 0.109479 0.546694 0.830145
69.0175 171.723 184.323 0.148822 0.489688 0.859103
68.968 172.05 184.145 0.148822 0.489688 0.859103
68.4503 171.808 184.372 0.148822 0.489688 0.859103
69.3455 171.732 184.039 0.575242 0.456239 0.678927
68.968 172.05 184.145 0.575242 0.456239 0.678927
69.0175 171.723 184.323 0.575242 0.456239 0.678927
3 0 1 2
3 3 4 5
3 6 7 8
3 9 10 11
3 12 13 14
3 15 16 17
3 18 19 20
3 21 22 23
3 24 25 26
3 27 28 29
3 30 31 32
3 33 34 35
3 36 37 38
3 39 40 41
3 42 43 44
3 45 46 47
3 48 49 50
3 51 52 53
3 54 55 56
3 57 58 59
3 60 61 62
3 63 64 65
3 66 67 68
3 69 70 71
3 72 73 74
3 75 76 77
3 78 79 80
3 81 82 83
3 84 85 86
3 87 88 89
3 90 91 92
3 93 94 95
3 96 97 98
3 99 100 101
3 102 103 104
3 105 106 107
3 108 109 110
3 111 112 113
3 114 115 116
3 117 118 119
3 120 121 122
3 123 124 125
3 126 127 128
3 129 130 131
3 132 133 134
3 135 136 137
3 138 139 140
3 141 142 143
3 144 145 146
3 147 148 149
3 150 151 152
3 153 154 155
3 156 157 158
3 159 160 161
3 162 163 164
3 165 166 167
3 168 169 170
3 171 172 173
3 174 175 176
3 177 178 179
3 180 181 182
3 183 184 185
3 186 187 188
3 189 190 191
3 192 193 194
3 195 196 197
3 198 199 200
3 201 202 203
3 204 205 206
3 207 208 209
3 210 211 212
3 213 214 215
3 216 217 218
3 219 220 221
3 222 223 224
3 225 226 227
3 228 229 230
3 231 232 233
