ply
format ascii 1.0
element vertex 612
property float x
property float y
property float z
property float nx
property float ny
property float nz
element face 204
property list uint uint vertex_indices
end_header
72.7846 153.074 166.896 -0.617878 -0.343772 -0.70714
72.7266 152.855 167.053 -0.617878 -0.343772 -0.70714
72.5935 153.037 167.081 -0.617878 -0.343772 -0.70714
72.7266 152.855 167.053 0.411577 -0.600601 -0.68548
72.7846 153.074 166.896 0.411577 -0.600601 -0.68548
73.4459 152.955 167.397 0.411577 -0.600601 -0.68548
72.7846 153.074 166.896 -0.367555 0.908688 -0.197961
72.5935 153.037 167.081 -0.367555 0.908688 -0.197961
72.8922 153.16 167.093 -0.367555 0.908688 -0.197961
73.4459 152.955 167.397 0.541396 0.620825 -0.566981
72.7846 153.074 166.896 0.541396 0.620825 -0.566981
72.8922 153.16 167.093 0.541396 0.620825 -0.566981
72.9329 152.262 167.532 -0.35786 -0.455127 -0.81535
72.7619 151.866 167.828 -0.35786 -0.455127 -0.81535
72.3736 152.306 167.753 -0.35786 -0.455127 -0.81535
72.9329 152.262 167.532 0.159569 -0.59096 -0.790762
73.7922 152.398 167.603 0.159569 -0.59096 -0.790762
73.7076 151.849 167.997 0.159569 -0.59096 -0.790762
72.7619 151.866 167.828 0.125859 -0.628259 -0.767756
72.9329 152.262 167.532 0.125859 -0.628259 -0.767756
73.7076 151.849 167.997 0.125859 -0.628259 -0.767756
72.7266 152.855 167.053 -0.320209 -0.660207 -0.679407
72.9329 152.262 167.532 -0.320209 -0.660207 -0.679407
72.3736 152.306 167.753 -0.320209 -0.660207 -0.679407
72.7266 152.855 167.053 -0.664045 -0.387897 -0.639203
72.3736 152.306 167.753 -0.664045 -0.387897 -0.639203
72.5935 153.037 167.081 -0.664045 -0.387897 -0.639203
72.5935 153.037 167.081 -0.959471 0.0310636 -0.280089
72.3736 152.306 167.753 -0.959471 0.0310636 -0.280089
72.3815 153.134 167.818 -0.959471 0.0310636 -0.280089
73.4459 152.955 167.397 0.433298 -0.470298 -0.768812
72.9329 152.262 167.532 0.433298 -0.470298 -0.768812
72.7266 152.855 167.053 0.433298 -0.470298 -0.768812
73.4459 152.955 167.397 0.123054 -0.276481 -0.953109
73.7922 152.398 167.603 0.123054 -0.276481 -0.953109
72.9329 152.262 167.532 0.123054 -0.276481 -0.953109
74.4986 152.664 167.815 0.425208 -0.569382 -0.703564
73.7076 151.849 167.997 0.425208 -0.569382 -0.703564
73.7922 152.398 167.603 0.425208 -0.569382 -0.703564
74.4986 152.664 167.815 0.375264 -0.297392 -0.877915
73.7922 152.398 167.603 0.375264 -0.297392 -0.877915
74.4233 152.993 167.671 0.375264 -0.297392 -0.877915
74.4233 152.993 167.671 0.272399 -0.180588 -0.945086
73.7922 152.398 167.603 0.272399 -0.180588 -0.945086
73.4459 152.955 167.397 0.272399 -0.180588 -0.945086
74.4986 152.664 167.815 0.615946 -0.192583 -0.763886
74.4233 152.993 167.671 0.615946 -0.192583 -0.763886
74.8144 152.861 168.02 0.615946 -0.192583 -0.763886
72.5935 153.037 167.081 -0.481363 0.840217 -0.249652
72.3815 153.134 167.818 -0.481363 0.840217 -0.249652
72.8114 153.387 167.839 -0.481363 0.840217 -0.249652
72.8922 153.16 167.093 -0.352754 0.883984 -0.306816
72.5935 153.037 167.081 -0.352754 0.883984 -0.306816
72.8114 153.387 167.839 -0.352754 0.883984 -0.306816
73.4459 152.955 167.397 0.551133 0.415705 -0.723493
72.8922 153.16 167.093 0.551133 0.415705 -0.723493
73.7678 153.239 167.805 0.551133 0.415705 -0.723493
73.7678 153.239 167.805 0.137674 0.951737 -0.274304
72.8922 153.16 167.093 0.137674 0.951737 -0.274304
72.8114 153.387 167.839 0.137674 0.951737 -0.274304
74.4233 152.993 167.671 0.150471 0.752061 -0.641688
73.4459 152.955 167.397 0.150471 0.752061 -0.641688
73.7678 153.239 167.805 0.150471 0.752061 -0.641688
74.6374 153.155 167.973 0.186271 0.804889 -0.563433
74.4233 152.993 167.671 0.186271 0.804889 -0.563433
73.7678 153.239 167.805 0.186271 0.804889 -0.563433
74.8144 152.861 168.02 0.689114 0.310532 -0.654746
74.4233 152.993 167.671 0.689114 0.310532 -0.654746
74.6374 153.155 167.973 0.689114 0.310532 -0.654746
72.8057 150.314 168.703 -0.302156 -0.630352 -0.715093
72.5467 149.954 169.13 -0.302156 -0.630352 -0.715093
72.2626 150.298 168.947 -0.302156 -0.630352 -0.715093
72.5467 149.954 169.13 0.014223 -0.768399 -0.639813
72.8057 150.314 168.703 0.014223 -0.768399 -0.639813
73.0065 150.107 168.956 0.014223 -0.768399 -0.639813
72.499 151.234 168.47 -0.376134 -0.343413 -0.860575
72.8057 150.314 168.703 -0.376134 -0.343413 -0.860575
72.2626 150.298 168.947 -0.376134 -0.343413 -0.860575
73.662 150.585 169.002 0.422897 -0.507438 -0.750776
73.0065 150.107 168.956 0.422897 -0.507438 -0.750776
72.8057 150.314 168.703 0.422897 -0.507438 -0.750776
73.662 150.585 169.002 0.426068 -0.580368 -0.694002
72.8057 150.314 168.703 0.426068 -0.580368 -0.694002
73.4728 151.014 168.527 0.426068 -0.580368 -0.694002
73.4728 151.014 168.527 0.00187251 -0.244986 -0.969525
72.8057 150.314 168.703 0.00187251 -0.244986 -0.969525
72.499 151.234 168.47 0.00187251 -0.244986 -0.969525
73.662 150.585 169.002 0.45084 -0.565606 -0.690531
73.4728 151.014 168.527 0.45084 -0.565606 -0.690531
74.0863 151.146 168.819 0.45084 -0.565606 -0.690531
71.7372 152.063 168.442 -0.745581 -0.328155 -0.58002
71.6284 151.65 168.816 -0.745581 -0.328155 -0.58002
71.3414 152.136 168.91 -0.745581 -0.328155 -0.58002
72.499 151.234 168.47 -0.514819 -0.496414 -0.698953
71.6284 151.65 168.816 -0.514819 -0.496414 -0.698953
71.7372 152.063 168.442 -0.514819 -0.496414 -0.698953
72.499 151.234 168.47 -0.53336 -0.512588 -0.672889
71.7372 152.063 168.442 -0.53336 -0.512588 -0.672889
72.3736 152.306 167.753 -0.53336 -0.512588 -0.672889
72.499 151.234 168.47 -0.462636 -0.529728 -0.710884
72.3736 152.306 167.753 -0.462636 -0.529728 -0.710884
72.7619 151.866 167.828 -0.462636 -0.529728 -0.710884
73.7076 151.849 167.997 0.107406 -0.730202 -0.674736
72.499 151.234 168.47 0.107406 -0.730202 -0.674736
72.7619 151.866 167.828 0.107406 -0.730202 -0.674736
73.4728 151.014 168.527 -0.0676056 -0.521413 -0.850622
72.499 151.234 168.47 -0.0676056 -0.521413 -0.850622
73.7076 151.849 167.997 -0.0676056 -0.521413 -0.850622
73.7076 151.849 167.997 0.458388 -0.591337 -0.663476
74.6505 152.211 168.325 0.458388 -0.591337 -0.663476
74.5722 151.734 168.696 0.458388 -0.591337 -0.663476
73.7076 151.849 167.997 0.483377 -0.543202 -0.686498
74.5722 151.734 168.696 0.483377 -0.543202 -0.686498
74.0863 151.146 168.819 0.483377 -0.543202 -0.686498
73.7076 151.849 167.997 0.45085 -0.56553 -0.690586
74.0863 151.146 168.819 0.45085 -0.56553 -0.690586
73.4728 151.014 168.527 0.45085 -0.56553 -0.690586
74.5722 151.734 168.696 0.719443 -0.496178 -0.486014
74.6505 152.211 168.325 0.719443 -0.496178 -0.486014
74.914 152.049 168.881 0.719443 -0.496178 -0.486014
71.722 153.012 168.432 -0.764602 -0.0191828 -0.644217
71.7372 152.063 168.442 -0.764602 -0.0191828 -0.644217
71.3414 152.136 168.91 -0.764602 -0.0191828 -0.644217
71.3162 153.082 168.967 -0.795455 0.0151615 -0.605822
71.722 153.012 168.432 -0.795455 0.0151615 -0.605822
71.3414 152.136 168.91 -0.795455 0.0151615 -0.605822
72.3736 152.306 167.753 -0.686539 0.0631499 -0.724345
71.722 153.012 168.432 -0.686539 0.0631499 -0.724345
72.3815 153.134 167.818 -0.686539 0.0631499 -0.724345
71.7372 152.063 168.442 -0.731298 -0.0190616 -0.681791
71.722 153.012 168.432 -0.731298 -0.0190616 -0.681791
72.3736 152.306 167.753 -0.731298 -0.0190616 -0.681791
73.7076 151.849 167.997 0.458455 -0.59246 -0.662428
74.4986 152.664 167.815 0.458455 -0.59246 -0.662428
74.6505 152.211 168.325 0.458455 -0.59246 -0.662428
74.6505 152.211 168.325 0.666261 -0.448069 -0.596096
74.4986 152.664 167.815 0.666261 -0.448069 -0.596096
74.8144 152.861 168.02 0.666261 -0.448069 -0.596096
74.6505 152.211 168.325 0.765577 -0.421451 -0.486077
74.8144 152.861 168.02 0.765577 -0.421451 -0.486077
74.914 152.049 168.881 0.765577 -0.421451 -0.486077
74.914 152.049 168.881 0.996297 0.0436911 -0.0740468
74.8144 152.861 168.02 0.996297 0.0436911 -0.0740468
74.8631 152.904 168.701 0.996297 0.0436911 -0.0740468
71.623 153.859 168.702 -0.78574 0.102622 -0.609985
71.722 153.012 168.432 -0.78574 0.102622 -0.609985
71.3162 153.082 168.967 -0.78574 0.102622 -0.609985
71.432 153.91 169.122 -0.881854 0.203557 -0.425322
71.623 153.859 168.702 -0.881854 0.203557 -0.425322
71.3162 153.082 168.967 -0.881854 0.203557 -0.425322
72.3815 153.134 167.818 -0.33765 0.633915 -0.695805
72.3672 153.885 168.508 -0.33765 0.633915 -0.695805
72.8114 153.387 167.839 -0.33765 0.633915 -0.695805
72.3815 153.134 167.818 -0.632634 0.51788 -0.575826
71.722 153.012 168.432 -0.632634 0.51788 -0.575826
72.3672 153.885 168.508 -0.632634 0.51788 -0.575826
71.722 153.012 168.432 -0.251499 0.267282 -0.930219
71.623 153.859 168.702 -0.251499 0.267282 -0.930219
72.3672 153.885 168.508 -0.251499 0.267282 -0.930219
72.9285 153.96 168.713 0.0924274 0.827249 -0.554181
72.8114 153.387 167.839 0.0924274 0.827249 -0.554181
72.3672 153.885 168.508 0.0924274 0.827249 -0.554181
72.9285 153.96 168.713 0.428616 0.72843 -0.534488
73.7133 153.519 168.742 0.428616 0.72843 -0.534488
72.8114 153.387 167.839 0.428616 0.72843 -0.534488
73.7133 153.519 168.742 0.137537 0.951252 -0.276051
73.7678 153.239 167.805 0.137537 0.951252 -0.276051
72.8114 153.387 167.839 0.137537 0.951252 -0.276051
74.6374 153.155 167.973 0.117356 0.986208 -0.116709
73.7678 153.239 167.805 0.117356 0.986208 -0.116709
74.5121 153.239 168.553 0.117356 0.986208 -0.116709
73.7678 153.239 167.805 0.263137 0.928516 -0.261948
73.7133 153.519 168.742 0.263137 0.928516 -0.261948
74.5121 153.239 168.553 0.263137 0.928516 -0.261948
74.8631 152.904 168.701 0.85979 0.502009 -0.0935355
74.8144 152.861 168.02 0.85979 0.502009 -0.0935355
74.6374 153.155 167.973 0.85979 0.502009 -0.0935355
74.5121 153.239 168.553 0.680034 0.731999 0.0416092
74.8631 152.904 168.701 0.680034 0.731999 0.0416092
74.6374 153.155 167.973 0.680034 0.731999 0.0416092
71.623 153.859 168.702 -0.600626 0.714026 -0.359744
71.432 153.91 169.122 -0.600626 0.714026 -0.359744
71.848 154.19 168.983 -0.600626 0.714026 -0.359744
72.3672 153.885 168.508 -0.200787 0.710159 -0.674803
71.623 153.859 168.702 -0.200787 0.710159 -0.674803
71.848 154.19 168.983 -0.200787 0.710159 -0.674803
72.7084 154.206 169.038 0.0170653 0.850044 -0.526435
72.3672 153.885 168.508 0.0170653 0.850044 -0.526435
71.848 154.19 168.983 0.0170653 0.850044 -0.526435
72.9285 153.96 168.713 0.0952451 0.82281 -0.560279
72.3672 153.885 168.508 0.0952451 0.82281 -0.560279
72.7084 154.206 169.038 0.0952451 0.82281 -0.560279
71.7289 150.135 169.508 -0.50855 -0.814216 -0.280052
71.8185 149.922 169.965 -0.50855 -0.814216 -0.280052
71.4445 150.181 169.893 -0.50855 -0.814216 -0.280052
71.7289 150.135 169.508 -0.42802 -0.674042 -0.602052
72.2626 150.298 168.947 -0.42802 -0.674042 -0.602052
72.5467 149.954 169.13 -0.42802 -0.674042 -0.602052
71.7289 150.135 169.508 -0.350436 -0.873219 -0.33865
72.5467 149.954 169.13 -0.350436 -0.873219 -0.33865
71.8185 149.922 169.965 -0.350436 -0.873219 -0.33865
71.8185 149.922 169.965 -0.069812 -0.992706 -0.0982877
72.5467 149.954 169.13 -0.069812 -0.992706 -0.0982877
72.7464 149.861 169.928 -0.069812 -0.992706 -0.0982877
73.0065 150.107 168.956 0.203857 -0.935962 -0.287085
73.5412 149.991 169.715 0.203857 -0.935962 -0.287085
72.5467 149.954 169.13 0.203857 -0.935962 -0.287085
72.5467 149.954 169.13 0.122004 -0.981876 -0.14503
73.5412 149.991 169.715 0.122004 -0.981876 -0.14503
72.7464 149.861 169.928 0.122004 -0.981876 -0.14503
71.4675 150.998 169.612 -0.80167 -0.173881 -0.571919
71.7289 150.135 169.508 -0.80167 -0.173881 -0.571919
71.4445 150.181 169.893 -0.80167 -0.173881 -0.571919
72.2626 150.298 168.947 -0.714698 -0.165666 -0.67953
71.4675 150.998 169.612 -0.714698 -0.165666 -0.67953
72.499 151.234 168.47 -0.714698 -0.165666 -0.67953
71.7289 150.135 169.508 -0.700205 -0.127394 -0.702484
71.4675 150.998 169.612 -0.700205 -0.127394 -0.702484
72.2626 150.298 168.947 -0.700205 -0.127394 -0.702484
73.0065 150.107 168.956 0.53728 -0.690528 -0.484255
73.662 150.585 169.002 0.53728 -0.690528 -0.484255
73.5412 149.991 169.715 0.53728 -0.690528 -0.484255
74.0863 151.146 168.819 0.566523 -0.595758 -0.569319
74.7023 151.24 169.334 0.566523 -0.595758 -0.569319
74.5061 150.758 169.643 0.566523 -0.595758 -0.569319
73.662 150.585 169.002 0.556383 -0.605693 -0.568835
74.0863 151.146 168.819 0.556383 -0.605693 -0.568835
74.5061 150.758 169.643 0.556383 -0.605693 -0.568835
73.662 150.585 169.002 0.554301 -0.611643 -0.564485
74.5061 150.758 169.643 0.554301 -0.611643 -0.564485
74.0362 150.231 169.753 0.554301 -0.611643 -0.564485
73.662 150.585 169.002 0.399147 -0.736563 -0.546037
74.0362 150.231 169.753 0.399147 -0.736563 -0.546037
73.5412 149.991 169.715 0.399147 -0.736563 -0.546037
74.5061 150.758 169.643 0.736699 -0.551192 -0.391742
74.7023 151.24 169.334 0.736699 -0.551192 -0.391742
74.8703 151.071 169.888 0.736699 -0.551192 -0.391742
71.6284 151.65 168.816 -0.796399 -0.379208 -0.471116
71.4675 150.998 169.612 -0.796399 -0.379208 -0.471116
71.3414 152.136 168.91 -0.796399 -0.379208 -0.471116
71.3414 152.136 168.91 -0.973691 -0.187709 -0.129191
71.4675 150.998 169.612 -0.973691 -0.187709 -0.129191
71.2336 152.088 169.791 -0.973691 -0.187709 -0.129191
72.499 151.234 168.47 -0.526207 -0.603004 -0.599577
71.4675 150.998 169.612 -0.526207 -0.603004 -0.599577
71.6284 151.65 168.816 -0.526207 -0.603004 -0.599577
74.0863 151.146 168.819 0.568769 -0.590014 -0.573049
74.5722 151.734 168.696 0.568769 -0.590014 -0.573049
74.7023 151.24 169.334 0.568769 -0.590014 -0.573049
74.7023 151.24 169.334 0.714693 -0.474828 -0.513569
74.5722 151.734 168.696 0.714693 -0.474828 -0.513569
74.914 152.049 168.881 0.714693 -0.474828 -0.513569
74.7023 151.24 169.334 0.820587 -0.427388 -0.379442
74.914 152.049 168.881 0.820587 -0.427388 -0.379442
74.8703 151.071 169.888 0.820587 -0.427388 -0.379442
74.8703 151.071 169.888 0.999489 -0.0164389 0.0274297
74.914 152.049 168.881 0.999489 -0.0164389 0.0274297
74.8932 152.091 169.664 0.999489 -0.0164389 0.0274297
71.3414 152.136 168.91 -0.992299 -0.0190375 -0.122394
71.2336 152.088 169.791 -0.992299 -0.0190375 -0.122394
71.3162 153.082 168.967 -0.992299 -0.0190375 -0.122394
71.2336 152.088 169.791 -0.996614 0.0159374 -0.0806613
71.2452 153.069 169.841 -0.996614 0.0159374 -0.0806613
71.3162 153.082 168.967 -0.996614 0.0159374 -0.0806613
74.5495 153.061 169.171 0.726345 0.529096 0.438726
74.1318 153.02 169.913 0.726345 0.529096 0.438726
74.6027 152.416 169.861 0.726345 0.529096 0.438726
74.5495 153.061 169.171 0.791926 0.475281 0.383356
74.6027 152.416 169.861 0.791926 0.475281 0.383356
74.8932 152.091 169.664 0.791926 0.475281 0.383356
74.5495 153.061 169.171 0.797521 0.472848 0.374666
74.8932 152.091 169.664 0.797521 0.472848 0.374666
74.8631 152.904 168.701 0.797521 0.472848 0.374666
74.8631 152.904 168.701 0.997669 0.0642191 0.02308
74.8932 152.091 169.664 0.997669 0.0642191 0.02308
74.914 152.049 168.881 0.997669 0.0642191 0.02308
71.3162 153.082 168.967 -0.985251 0.152516 -0.0775835
71.2452 153.069 169.841 -0.985251 0.152516 -0.0775835
71.432 153.91 169.122 -0.985251 0.152516 -0.0775835
71.2452 153.069 169.841 -0.977612 0.210264 -0.00796972
71.3971 153.779 169.969 -0.977612 0.210264 -0.00796972
71.432 153.91 169.122 -0.977612 0.210264 -0.00796972
73.7133 153.519 168.742 0.447569 0.766927 -0.459897
72.9285 153.96 168.713 0.447569 0.766927 -0.459897
73.4656 154.039 169.368 0.447569 0.766927 -0.459897
74.5495 153.061 169.171 0.778897 0.423619 0.462457
73.8743 153.752 169.675 0.778897 0.423619 0.462457
74.1318 153.02 169.913 0.778897 0.423619 0.462457
74.5495 153.061 169.171 0.569873 0.76876 -0.290264
73.7133 153.519 168.742 0.569873 0.76876 -0.290264
73.8743 153.752 169.675 0.569873 0.76876 -0.290264
74.5495 153.061 169.171 0.370421 0.898333 0.236192
74.5121 153.239 168.553 0.370421 0.898333 0.236192
73.7133 153.519 168.742 0.370421 0.898333 0.236192
73.4656 154.039 169.368 0.685221 0.670046 -0.285501
73.8743 153.752 169.675 0.685221 0.670046 -0.285501
73.7133 153.519 168.742 0.685221 0.670046 -0.285501
74.8631 152.904 168.701 0.638792 0.748762 0.176916
74.5121 153.239 168.553 0.638792 0.748762 0.176916
74.5495 153.061 169.171 0.638792 0.748762 0.176916
71.432 153.91 169.122 -0.669218 0.738076 0.0859663
71.3971 153.779 169.969 -0.669218 0.738076 0.0859663
71.7863 154.139 169.91 -0.669218 0.738076 0.0859663
71.848 154.19 168.983 -0.556392 0.83088 0.00814326
71.432 153.91 169.122 -0.556392 0.83088 0.00814326
71.7863 154.139 169.91 -0.556392 0.83088 0.00814326
72.7084 154.206 169.038 -0.0123091 0.994209 -0.106758
71.848 154.19 168.983 -0.0123091 0.994209 -0.106758
72.5051 154.275 169.701 -0.0123091 0.994209 -0.106758
71.848 154.19 168.983 -0.17341 0.983955 0.0419723
71.7863 154.139 169.91 -0.17341 0.983955 0.0419723
72.5051 154.275 169.701 -0.17341 0.983955 0.0419723
73.4656 154.039 169.368 0.359759 0.84426 -0.397238
72.9285 153.96 168.713 0.359759 0.84426 -0.397238
72.7084 154.206 169.038 0.359759 0.84426 -0.397238
73.4656 154.039 169.368 0.19946 0.979141 0.0387039
72.7084 154.206 169.038 0.19946 0.979141 0.0387039
73.4033 154.03 169.928 0.19946 0.979141 0.0387039
73.4033 154.03 169.928 0.267671 0.963348 -0.0177013
72.7084 154.206 169.038 0.267671 0.963348 -0.0177013
72.5051 154.275 169.701 0.267671 0.963348 -0.0177013
73.8743 153.752 169.675 0.535502 0.841304 0.0737916
73.4656 154.039 169.368 0.535502 0.841304 0.0737916
73.4033 154.03 169.928 0.535502 0.841304 0.0737916
71.8185 149.922 169.965 -0.666384 -0.741732 0.0759342
71.8066 150.013 170.742 -0.666384 -0.741732 0.0759342
71.4704 150.303 170.626 -0.666384 -0.741732 0.0759342
71.4445 150.181 169.893 -0.581115 -0.799141 0.153881
71.8185 149.922 169.965 -0.581115 -0.799141 0.153881
71.4704 150.303 170.626 -0.581115 -0.799141 0.153881
72.7464 149.861 169.928 -0.0618007 -0.992586 0.104665
72.6423 149.944 170.652 -0.0618007 -0.992586 0.104665
71.8185 149.922 169.965 -0.0618007 -0.992586 0.104665
71.8185 149.922 169.965 -0.0696304 -0.991038 0.113996
72.6423 149.944 170.652 -0.0696304 -0.991038 0.113996
71.8066 150.013 170.742 -0.0696304 -0.991038 0.113996
73.5412 149.991 169.715 0.148099 -0.987648 -0.0511572
73.656 149.963 170.591 0.148099 -0.987648 -0.0511572
72.7464 149.861 169.928 0.148099 -0.987648 -0.0511572
72.7464 149.861 169.928 0.0259459 -0.992758 0.117299
73.656 149.963 170.591 0.0259459 -0.992758 0.117299
72.6423 149.944 170.652 0.0259459 -0.992758 0.117299
74.0362 150.231 169.753 0.4309 -0.834267 -0.343982
74.4927 150.189 170.425 0.4309 -0.834267 -0.343982
73.5412 149.991 169.715 0.4309 -0.834267 -0.343982
73.5412 149.991 169.715 0.249228 -0.966346 -0.063732
74.4927 150.189 170.425 0.249228 -0.966346 -0.063732
73.656 149.963 170.591 0.249228 -0.966346 -0.063732
71.4445 150.181 169.893 -0.99886 0.0379715 0.0289379
71.4704 150.303 170.626 -0.99886 0.0379715 0.0289379
71.4675 150.998 169.612 -0.99886 0.0379715 0.0289379
71.4704 150.303 170.626 -0.983634 -0.149871 -0.100011
71.3341 151.196 170.627 -0.983634 -0.149871 -0.100011
71.4675 150.998 169.612 -0.983634 -0.149871 -0.100011
74.0362 150.231 169.753 0.614606 -0.642989 -0.456974
74.5061 150.758 169.643 0.614606 -0.642989 -0.456974
74.4927 150.189 170.425 0.614606 -0.642989 -0.456974
74.4927 150.189 170.425 0.73663 -0.55293 -0.389416
74.5061 150.758 169.643 0.73663 -0.55293 -0.389416
74.8703 151.071 169.888 0.73663 -0.55293 -0.389416
74.4927 150.189 170.425 0.777317 -0.534868 -0.331203
74.8703 151.071 169.888 0.777317 -0.534868 -0.331203
74.7569 150.424 170.667 0.777317 -0.534868 -0.331203
74.7569 150.424 170.667 0.993633 -0.0573518 0.0969795
74.8703 151.071 169.888 0.993633 -0.0573518 0.0969795
74.8141 151.192 170.535 0.993633 -0.0573518 0.0969795
71.4675 150.998 169.612 -0.976687 -0.194726 -0.0903597
71.3341 151.196 170.627 -0.976687 -0.194726 -0.0903597
71.2336 152.088 169.791 -0.976687 -0.194726 -0.0903597
71.3341 151.196 170.627 -0.996517 -0.0491277 0.0673804
71.3006 152.076 170.774 -0.996517 -0.0491277 0.0673804
71.2336 152.088 169.791 -0.996517 -0.0491277 0.0673804
74.6906 151.925 170.21 0.663965 0.461101 0.588673
74.0772 152.302 170.606 0.663965 0.461101 0.588673
74.5379 151.451 170.753 0.663965 0.461101 0.588673
74.6906 151.925 170.21 0.763157 0.365336 0.53303
74.5379 151.451 170.753 0.763157 0.365336 0.53303
74.8141 151.192 170.535 0.763157 0.365336 0.53303
74.6906 151.925 170.21 0.849072 0.327253 0.414707
74.8141 151.192 170.535 0.849072 0.327253 0.414707
74.8932 152.091 169.664 0.849072 0.327253 0.414707
74.8932 152.091 169.664 0.996193 -0.00325113 0.08711
74.8141 151.192 170.535 0.996193 -0.00325113 0.08711
74.8703 151.071 169.888 0.996193 -0.00325113 0.08711
71.2336 152.088 169.791 -0.997637 0.00843704 0.068179
71.3006 152.076 170.774 -0.997637 0.00843704 0.068179
71.2452 153.069 169.841 -0.997637 0.00843704 0.068179
71.3006 152.076 170.774 -0.989673 0.0649244 0.127795
71.3672 152.95 170.845 -0.989673 0.0649244 0.127795
71.2452 153.069 169.841 -0.989673 0.0649244 0.127795
74.6027 152.416 169.861 0.665631 0.507684 0.546985
74.0772 152.302 170.606 0.665631 0.507684 0.546985
74.6906 151.925 170.21 0.665631 0.507684 0.546985
74.6027 152.416 169.861 0.67931 0.48265 0.552798
74.1318 153.02 169.913 0.67931 0.48265 0.552798
74.0772 152.302 170.606 0.67931 0.48265 0.552798
74.1318 153.02 169.913 0.872364 0.303841 0.382964
73.8233 153.228 170.45 0.872364 0.303841 0.382964
74.0772 152.302 170.606 0.872364 0.303841 0.382964
74.8932 152.091 169.664 0.787275 0.444488 0.42735
74.6027 152.416 169.861 0.787275 0.444488 0.42735
74.6906 151.925 170.21 0.787275 0.444488 0.42735
71.7265 153.435 170.857 -0.558281 0.68206 0.472352
71.7863 154.139 169.91 -0.558281 0.68206 0.472352
71.3971 153.779 169.969 -0.558281 0.68206 0.472352
71.7265 153.435 170.857 -0.715275 0.519487 0.467456
71.3971 153.779 169.969 -0.715275 0.519487 0.467456
71.3672 152.95 170.845 -0.715275 0.519487 0.467456
71.3672 152.95 170.845 -0.973219 0.182594 0.13966
71.3971 153.779 169.969 -0.973219 0.182594 0.13966
71.2452 153.069 169.841 -0.973219 0.182594 0.13966
71.7265 153.435 170.857 -0.544178 0.689132 0.478506
72.3088 153.909 170.836 -0.544178 0.689132 0.478506
71.7863 154.139 169.91 -0.544178 0.689132 0.478506
73.4033 154.03 169.928 0.527409 0.636094 0.563227
72.6678 154.084 170.555 0.527409 0.636094 0.563227
73.412 153.117 170.95 0.527409 0.636094 0.563227
73.4033 154.03 169.928 0.517414 0.64062 0.567353
73.412 153.117 170.95 0.517414 0.64062 0.567353
73.8233 153.228 170.45 0.517414 0.64062 0.567353
73.4033 154.03 169.928 0.621225 0.629495 0.466708
73.8233 153.228 170.45 0.621225 0.629495 0.466708
73.8743 153.752 169.675 0.621225 0.629495 0.466708
73.8743 153.752 169.675 0.851498 0.406602 0.331097
73.8233 153.228 170.45 0.851498 0.406602 0.331097
74.1318 153.02 169.913 0.851498 0.406602 0.331097
71.7863 154.139 169.91 -0.187505 0.923192 0.335496
72.3088 153.909 170.836 -0.187505 0.923192 0.335496
72.6678 154.084 170.555 -0.187505 0.923192 0.335496
71.7863 154.139 169.91 -0.113056 0.964818 0.237371
72.6678 154.084 170.555 -0.113056 0.964818 0.237371
72.5051 154.275 169.701 -0.113056 0.964818 0.237371
72.6678 154.084 170.555 0.218662 0.960318 0.173135
73.4033 154.03 169.928 0.218662 0.960318 0.173135
72.5051 154.275 169.701 0.218662 0.960318 0.173135
71.8066 150.013 170.742 -0.679785 -0.656627 0.326701
71.6766 150.319 171.087 -0.679785 -0.656627 0.326701
71.4704 150.303 170.626 -0.679785 -0.656627 0.326701
71.8066 150.013 170.742 -0.00353556 -0.808513 0.588468
72.6423 149.944 170.652 -0.00353556 -0.808513 0.588468
72.5404 150.296 171.136 -0.00353556 -0.808513 0.588468
71.6766 150.319 171.087 -0.0568488 -0.75718 0.650728
71.8066 150.013 170.742 -0.0568488 -0.75718 0.650728
72.5404 150.296 171.136 -0.0568488 -0.75718 0.650728
72.6423 149.944 170.652 0.0500417 -0.822384 0.566728
73.656 149.963 170.591 0.0500417 -0.822384 0.566728
73.6372 150.217 170.962 0.0500417 -0.822384 0.566728
72.5404 150.296 171.136 0.0366126 -0.803941 0.593581
72.6423 149.944 170.652 0.0366126 -0.803941 0.593581
73.6372 150.217 170.962 0.0366126 -0.803941 0.593581
73.656 149.963 170.591 0.259356 -0.965713 -0.0115419
74.4927 150.189 170.425 0.259356 -0.965713 -0.0115419
74.4633 150.177 170.808 0.259356 -0.965713 -0.0115419
73.6372 150.217 170.962 0.0650926 -0.821313 0.566752
73.656 149.963 170.591 0.0650926 -0.821313 0.566752
74.4633 150.177 170.808 0.0650926 -0.821313 0.566752
74.4927 150.189 170.425 0.650271 -0.759285 0.0251788
74.7569 150.424 170.667 0.650271 -0.759285 0.0251788
74.4633 150.177 170.808 0.650271 -0.759285 0.0251788
71.6766 150.319 171.087 -0.550708 -0.428811 0.71613
71.8585 151.153 171.726 -0.550708 -0.428811 0.71613
71.48 151.094 171.4 -0.550708 -0.428811 0.71613
71.6766 150.319 171.087 -0.842861 -0.371158 0.38965
71.48 151.094 171.4 -0.842861 -0.371158 0.38965
71.4704 150.303 170.626 -0.842861 -0.371158 0.38965
71.4704 150.303 170.626 -0.975057 -0.149104 0.164416
71.48 151.094 171.4 -0.975057 -0.149104 0.164416
71.3341 151.196 170.627 -0.975057 -0.149104 0.164416
72.5404 150.296 171.136 -0.061179 -0.598765 0.798585
71.8585 151.153 171.726 -0.061179 -0.598765 0.798585
71.6766 150.319 171.087 -0.061179 -0.598765 0.798585
72.6611 150.971 171.725 -0.142677 -0.635976 0.758405
71.8585 151.153 171.726 -0.142677 -0.635976 0.758405
72.5404 150.296 171.136 -0.142677 -0.635976 0.758405
72.6611 150.971 171.725 0.252095 -0.355909 0.899876
73.4946 150.955 171.485 0.252095 -0.355909 0.899876
73.0338 151.356 171.773 0.252095 -0.355909 0.899876
72.6611 150.971 171.725 0.194872 -0.664279 0.721636
72.5404 150.296 171.136 0.194872 -0.664279 0.721636
73.4946 150.955 171.485 0.194872 -0.664279 0.721636
72.5404 150.296 171.136 0.0899814 -0.564644 0.820415
73.6372 150.217 170.962 0.0899814 -0.564644 0.820415
73.4946 150.955 171.485 0.0899814 -0.564644 0.820415
74.4633 150.177 170.808 0.171788 -0.171217 0.970141
74.4596 150.916 170.939 0.171788 -0.171217 0.970141
73.6372 150.217 170.962 0.171788 -0.171217 0.970141
74.4596 150.916 170.939 0.420051 -0.469686 0.7765
73.4946 150.955 171.485 0.420051 -0.469686 0.7765
73.6372 150.217 170.962 0.420051 -0.469686 0.7765
74.7569 150.424 170.667 0.728539 0.0628472 0.682115
74.8141 151.192 170.535 0.728539 0.0628472 0.682115
74.4596 150.916 170.939 0.728539 0.0628472 0.682115
74.4633 150.177 170.808 0.525674 -0.145979 0.838067
74.7569 150.424 170.667 0.525674 -0.145979 0.838067
74.4596 150.916 170.939 0.525674 -0.145979 0.838067
71.3341 151.196 170.627 -0.982014 -0.0667574 0.176612
71.48 151.094 171.4 -0.982014 -0.0667574 0.176612
71.3006 152.076 170.774 -0.982014 -0.0667574 0.176612
71.48 151.094 171.4 -0.972689 -0.0310017 0.230031
71.497 152.005 171.595 -0.972689 -0.0310017 0.230031
71.3006 152.076 170.774 -0.972689 -0.0310017 0.230031
73.7273 151.858 171.154 0.604993 0.132131 0.785191
73.0338 151.356 171.773 0.604993 0.132131 0.785191
73.4946 150.955 171.485 0.604993 0.132131 0.785191
72.8736 152.289 171.686 0.582643 0.173784 0.793931
73.0338 151.356 171.773 0.582643 0.173784 0.793931
73.7273 151.858 171.154 0.582643 0.173784 0.793931
74.5379 151.451 170.753 0.56397 0.427338 0.706626
74.0772 152.302 170.606 0.56397 0.427338 0.706626
73.7273 151.858 171.154 0.56397 0.427338 0.706626
74.5379 151.451 170.753 0.516901 0.212943 0.829137
73.7273 151.858 171.154 0.516901 0.212943 0.829137
74.4596 150.916 170.939 0.516901 0.212943 0.829137
74.4596 150.916 170.939 0.489412 0.186388 0.851901
73.7273 151.858 171.154 0.489412 0.186388 0.851901
73.4946 150.955 171.485 0.489412 0.186388 0.851901
74.8141 151.192 170.535 0.69279 0.144528 0.706508
74.5379 151.451 170.753 0.69279 0.144528 0.706508
74.4596 150.916 170.939 0.69279 0.144528 0.706508
71.6033 152.451 171.614 -0.787138 0.378259 0.487169
71.6211 153.01 171.209 -0.787138 0.378259 0.487169
71.3672 152.95 170.845 -0.787138 0.378259 0.487169
71.6033 152.451 171.614 -0.894577 0.195826 0.401726
71.3672 152.95 170.845 -0.894577 0.195826 0.401726
71.497 152.005 171.595 -0.894577 0.195826 0.401726
71.497 152.005 171.595 -0.970038 0.0545622 0.236747
71.3672 152.95 170.845 -0.970038 0.0545622 0.236747
71.3006 152.076 170.774 -0.970038 0.0545622 0.236747
71.6033 152.451 171.614 -0.521766 0.51152 0.682721
72.0759 152.925 171.62 -0.521766 0.51152 0.682721
71.6211 153.01 171.209 -0.521766 0.51152 0.682721
73.412 153.117 170.95 0.604307 0.272415 0.748734
72.8736 152.289 171.686 0.604307 0.272415 0.748734
73.7273 151.858 171.154 0.604307 0.272415 0.748734
72.7859 153.095 171.567 0.687331 0.178653 0.70403
72.8736 152.289 171.686 0.687331 0.178653 0.70403
73.412 153.117 170.95 0.687331 0.178653 0.70403
74.0772 152.302 170.606 0.702792 0.301523 0.644334
73.8233 153.228 170.45 0.702792 0.301523 0.644334
73.412 153.117 170.95 0.702792 0.301523 0.644334
73.7273 151.858 171.154 0.68936 0.280629 0.667855
74.0772 152.302 170.606 0.68936 0.280629 0.667855
73.412 153.117 170.95 0.68936 0.280629 0.667855
71.3672 152.95 170.845 -0.73235 0.533205 0.423504
71.6211 153.01 171.209 -0.73235 0.533205 0.423504
71.7265 153.435 170.857 -0.73235 0.533205 0.423504
72.3088 153.909 170.836 -0.233598 0.640705 0.731388
72.4307 153.028 171.646 -0.233598 0.640705 0.731388
72.6928 153.743 171.104 -0.233598 0.640705 0.731388
71.7265 153.435 170.857 -0.44238 0.573371 0.689599
72.4307 153.028 171.646 -0.44238 0.573371 0.689599
72.3088 153.909 170.836 -0.44238 0.573371 0.689599
71.7265 153.435 170.857 -0.261295 0.743419 0.615672
72.0759 152.925 171.62 -0.261295 0.743419 0.615672
72.4307 153.028 171.646 -0.261295 0.743419 0.615672
71.7265 153.435 170.857 -0.450323 0.633729 0.628964
71.6211 153.01 171.209 -0.450323 0.633729 0.628964
72.0759 152.925 171.62 -0.450323 0.633729 0.628964
72.7859 153.095 171.567 0.0692013 0.586844 0.806738
72.6928 153.743 171.104 0.0692013 0.586844 0.806738
72.4307 153.028 171.646 0.0692013 0.586844 0.806738
73.412 153.117 170.95 0.588137 0.524622 0.615521
72.6928 153.743 171.104 0.588137 0.524622 0.615521
72.7859 153.095 171.567 0.588137 0.524622 0.615521
73.412 153.117 170.95 0.652446 0.656704 0.378226
72.6678 154.084 170.555 0.652446 0.656704 0.378226
72.6928 153.743 171.104 0.652446 0.656704 0.378226
72.3088 153.909 170.836 -0.00121466 0.849424 0.52771
72.6928 153.743 171.104 -0.00121466 0.849424 0.52771
72.6678 154.084 170.555 -0.00121466 0.849424 0.52771
71.8585 151.153 171.726 -0.12706 -0.567408 0.813575
72.6611 150.971 171.725 -0.12706 -0.567408 0.813575
72.5303 151.222 171.88 -0.12706 -0.567408 0.813575
72.6611 150.971 171.725 0.289013 -0.388563 0.874923
73.0338 151.356 171.773 0.289013 -0.388563 0.874923
72.5303 151.222 171.88 0.289013 -0.388563 0.874923
71.8585 151.153 171.726 -0.557929 -0.10962 0.822617
71.8174 152.19 171.837 -0.557929 -0.10962 0.822617
71.497 152.005 171.595 -0.557929 -0.10962 0.822617
71.48 151.094 171.4 -0.632033 -0.150687 0.76015
71.8585 151.153 171.726 -0.632033 -0.150687 0.76015
71.497 152.005 171.595 -0.632033 -0.150687 0.76015
72.5303 151.222 171.88 -0.201196 -0.180217 0.96283
72.4697 151.921 171.998 -0.201196 -0.180217 0.96283
71.8585 151.153 171.726 -0.201196 -0.180217 0.96283
72.4697 151.921 171.998 -0.281883 -0.11251 0.952829
71.8174 152.19 171.837 -0.281883 -0.11251 0.952829
71.8585 151.153 171.726 -0.281883 -0.11251 0.952829
73.0338 151.356 171.773 0.503925 0.165273 0.847788
72.8736 152.289 171.686 0.503925 0.165273 0.847788
72.4697 151.921 171.998 0.503925 0.165273 0.847788
72.5303 151.222 171.88 0.241501 -0.141305 0.960057
73.0338 151.356 171.773 0.241501 -0.141305 0.960057
72.4697 151.921 171.998 0.241501 -0.141305 0.960057
71.497 152.005 171.595 -0.641069 0.119854 0.758067
71.8174 152.19 171.837 -0.641069 0.119854 0.758067
71.6033 152.451 171.614 -0.641069 0.119854 0.758067
72.0759 152.925 171.62 -0.396312 0.384533 0.833709
71.6033 152.451 171.614 -0.396312 0.384533 0.833709
71.8174 152.19 171.837 -0.396312 0.384533 0.833709
72.0759 152.925 171.62 -0.164849 0.33124 0.929034
71.8174 152.19 171.837 -0.164849 0.33124 0.929034
72.4307 153.028 171.646 -0.164849 0.33124 0.929034
72.4307 153.028 171.646 -0.112296 0.297151 0.948204
71.8174 152.19 171.837 -0.112296 0.297151 0.948204
72.4697 151.921 171.998 -0.112296 0.297151 0.948204
72.8736 152.289 171.686 0.185393 0.163126 0.96903
72.7859 153.095 171.567 0.185393 0.163126 0.96903
72.4307 153.028 171.646 0.185393 0.163126 0.96903
72.4697 151.921 171.998 0.405507 0.289595 0.867006
72.8736 152.289 171.686 0.405507 0.289595 0.867006
72.4307 153.028 171.646 0.405507 0.289595 0.867006
3 0 1 2
3 3 4 5
3 6 7 8
3 9 10 11
3 12 13 14
3 15 16 17
3 18 19 20
3 21 22 23
3 24 25 26
3 27 28 29
3 30 31 32
3 33 34 35
3 36 37 38
3 39 40 41
3 42 43 44
3 45 46 47
3 48 49 50
3 51 52 53
3 54 55 56
3 57 58 59
3 60 61 62
3 63 64 65
3 66 67 68
3 69 70 71
3 72 73 74
3 75 76 77
3 78 79 80
3 81 82 83
3 84 85 86
3 87 88 89
3 90 91 92
3 93 94 95
3 96 97 98
3 99 100 101
3 102 103 104
3 105 106 107
3 108 109 110
3 111 112 113
3 114 115 116
3 117 118 119
3 120 121 122
3 123 124 125
3 126 127 128
3 129 130 131
3 132 133 134
3 135 136 137
3 138 139 140
3 141 142 143
3 144 145 146
3 147 148 149
3 150 151 152
3 153 154 155
3 156 157 158
3 159 160 161
3 162 163 164
3 165 166 167
3 168 169 170
3 171 172 173
3 174 175 176
3 177 178 179
3 180 181 182
3 183 184 185
3 186 187 188
3 189 190 191
3 192 193 194
3 195 196 197
3 198 199 200
3 201 202 203
3 204 205 206
3 207 208 209
3 210 211 212
3 213 214 215
3 216 217 218
3 219 220 221
3 222 223 224
3 225 226 227
3 228 229 230
3 231 232 233
3 234 235 236
3 237 238 239
3 240 241 242
3 243 244 245
3 246 247 248
3 249 250 251
3 252 253 254
3 255 256 257
3 258 259 260
3 261 262 263
3 264 265 266
3 267 268 269
3 270 271 272
3 273 274 275
3 276 277 278
3 279 280 281
3 282 283 284
3 285 286 287
3 288 289 290
3 291 292 293
3 294 295 296
3 297 298 299
3 300 301 302
3 303 304 305
3 306 307 308
3 309 310 311
3 312 313 314
3 315 316 317
3 318 319 320
3 321 322 323
3 324 325 326
3 327 328 329
3 330 331 332
3 333 334 335
3 336 337 338
3 339 340 341
3 342 343 344
3 345 346 347
3 348 349 350
3 351 352 353
3 354 355 356
3 357 358 359
3 360 361 362
3 363 364 365
3 366 367 368
3 369 370 371
3 372 373 374
3 375 376 377
3 378 379 380
3 381 382 383
3 384 385 386
3 387 388 389
3 390 391 392
3 393 394 395
3 396 397 398
3 399 400 401
3 402 403 404
3 405 406 407
3 408 409 410
3 411 412 413
3 414 415 416
3 417 418 419
3 420 421 422
3 423 424 425
3 426 427 428
3 429 430 431
3 432 433 434
3 435 436 437
3 438 439 440
3 441 442 443
3 444 445 446
3 447 448 449
3 450 451 452
3 453 454 455
3 456 457 458
3 459 460 461
3 462 463 464
3 465 466 467
3 468 469 470
3 471 472 473
3 474 475 476
3 477 478 479
3 480 481 482
3 483 484 485
3 486 487 488
3 489 490 491
3 492 493 494
3 495 496 497
3 498 499 500
3 501 502 503
3 504 505 506
3 507 508 509
3 510 511 512
3 513 514 515
3 516 517 518
3 519 520 521
3 522 523 524
3 525 526 527
3 528 529 530
3 531 532 533
3 534 535 536
3 537 538 539
3 540 541 542
3 543 544 545
3 546 547 548
3 549 550 551
3 552 553 554
3 555 556 557
3 558 559 560
3 561 562 563
3 564 565 566
3 567 568 569
3 570 571 572
3 573 574 575
3 576 577 578
3 579 580 581
3 582 583 584
3 585 586 587
3 588 589 590
3 591 592 593
3 594 595 596
3 597 598 599
3 600 601 602
3 603 604 605
3 606 607 608
3 609 610 611
