ply
format ascii 1.0
element vertex 828
property float x
property float y
property float z
property float nx
property float ny
property float nz
element face 276
property list uint uint vertex_indices
end_header
109.248 109.468 138.582 -0.684591 -0.0246349 -0.728511
109.055 108.944 138.781 -0.684591 -0.0246349 -0.728511
108.883 109.442 138.926 -0.684591 -0.0246349 -0.728511
109.248 109.468 138.582 0.0739051 -0.416922 -0.905933
109.929 109.61 138.572 0.0739051 -0.416922 -0.905933
109.841 109.125 138.788 0.0739051 -0.416922 -0.905933
109.055 108.944 138.781 0.0964852 -0.384998 -0.91786
109.248 109.468 138.582 0.0964852 -0.384998 -0.91786
109.841 109.125 138.788 0.0964852 -0.384998 -0.91786
109.841 109.125 138.788 0.433835 -0.430935 -0.791254
109.929 109.61 138.572 0.433835 -0.430935 -0.791254
110.271 109.478 138.831 0.433835 -0.430935 -0.791254
109.248 109.468 138.582 -0.686397 0.0215431 -0.726908
108.883 109.442 138.926 -0.686397 0.0215431 -0.726908
109.166 109.8 138.67 -0.686397 0.0215431 -0.726908
109.166 109.8 138.67 -0.411354 0.329477 -0.849843
109.618 110.67 138.788 -0.411354 0.329477 -0.849843
109.907 110.365 138.53 -0.411354 0.329477 -0.849843
109.166 109.8 138.67 -0.306772 0.170997 -0.936296
109.907 110.365 138.53 -0.306772 0.170997 -0.936296
109.248 109.468 138.582 -0.306772 0.170997 -0.936296
109.248 109.468 138.582 -0.00298807 -0.0555993 -0.998449
109.907 110.365 138.53 -0.00298807 -0.0555993 -0.998449
109.929 109.61 138.572 -0.00298807 -0.0555993 -0.998449
110.351 110.226 138.76 0.564166 -0.137319 -0.814162
110.271 109.478 138.831 0.564166 -0.137319 -0.814162
109.929 109.61 138.572 0.564166 -0.137319 -0.814162
109.907 110.365 138.53 0.451251 -0.0362223 -0.891662
110.351 110.226 138.76 0.451251 -0.0362223 -0.891662
109.929 109.61 138.572 0.451251 -0.0362223 -0.891662
110.085 111.608 138.5 -0.622457 0.070641 -0.77946
109.907 110.365 138.53 -0.622457 0.070641 -0.77946
109.618 110.67 138.788 -0.622457 0.070641 -0.77946
109.619 111.683 138.753 -0.480745 -0.0296441 -0.876359
110.085 111.608 138.5 -0.480745 -0.0296441 -0.876359
109.618 110.67 138.788 -0.480745 -0.0296441 -0.876359
110.691 111.207 138.671 0.394649 -0.218254 -0.892534
110.351 110.226 138.76 0.394649 -0.218254 -0.892534
109.907 110.365 138.53 0.394649 -0.218254 -0.892534
110.085 111.608 138.5 0.235528 -0.057114 -0.970188
110.691 111.207 138.671 0.235528 -0.057114 -0.970188
109.907 110.365 138.53 0.235528 -0.057114 -0.970188
109.282 112.504 138.5 -0.625559 -0.327088 -0.7083
109.104 112.369 138.719 -0.625559 -0.327088 -0.7083
108.889 112.805 138.708 -0.625559 -0.327088 -0.7083
109.619 111.683 138.753 -0.543321 -0.443177 -0.713019
109.104 112.369 138.719 -0.543321 -0.443177 -0.713019
109.282 112.504 138.5 -0.543321 -0.443177 -0.713019
109.619 111.683 138.753 -0.483021 -0.433219 -0.760928
109.282 112.504 138.5 -0.483021 -0.433219 -0.760928
110.085 111.608 138.5 -0.483021 -0.433219 -0.760928
110.085 111.608 138.5 -0.0585504 -0.0528216 -0.996886
109.282 112.504 138.5 -0.0585504 -0.0528216 -0.996886
109.994 112.512 138.458 -0.0585504 -0.0528216 -0.996886
110.891 112.015 138.626 0.204872 -0.104769 -0.973165
110.691 111.207 138.671 0.204872 -0.104769 -0.973165
110.085 111.608 138.5 0.204872 -0.104769 -0.973165
110.891 112.015 138.626 0.109334 0.089306 -0.989985
110.085 111.608 138.5 0.109334 0.089306 -0.989985
110.71 112.632 138.662 0.109334 0.089306 -0.989985
110.71 112.632 138.662 0.276487 -0.0172187 -0.960864
110.085 111.608 138.5 0.276487 -0.0172187 -0.960864
109.994 112.512 138.458 0.276487 -0.0172187 -0.960864
110.891 112.015 138.626 0.708017 0.246652 -0.661721
110.71 112.632 138.662 0.708017 0.246652 -0.661721
111.076 112.335 138.942 0.708017 0.246652 -0.661721
109.065 113.321 138.557 -0.510851 -0.0756082 -0.856338
109.282 112.504 138.5 -0.510851 -0.0756082 -0.856338
108.889 112.805 138.708 -0.510851 -0.0756082 -0.856338
108.881 113.625 138.885 -0.817692 0.114631 -0.564127
109.065 113.321 138.557 -0.817692 0.114631 -0.564127
108.889 112.805 138.708 -0.817692 0.114631 -0.564127
109.994 112.512 138.458 -0.0601326 0.145029 -0.987598
109.282 112.504 138.5 -0.0601326 0.145029 -0.987598
109.844 113.353 138.59 -0.0601326 0.145029 -0.987598
109.844 113.353 138.59 0.0393118 0.0800667 -0.996014
109.282 112.504 138.5 0.0393118 0.0800667 -0.996014
109.065 113.321 138.557 0.0393118 0.0800667 -0.996014
110.333 113.502 138.877 0.381979 0.374921 -0.844705
110.71 112.632 138.662 0.381979 0.374921 -0.844705
109.844 113.353 138.59 0.381979 0.374921 -0.844705
109.844 113.353 138.59 0.238694 0.19243 -0.951838
110.71 112.632 138.662 0.238694 0.19243 -0.951838
109.994 112.512 138.458 0.238694 0.19243 -0.951838
109.065 113.321 138.557 -0.478605 0.49386 -0.725975
108.881 113.625 138.885 -0.478605 0.49386 -0.725975
109.172 113.772 138.793 -0.478605 0.49386 -0.725975
109.844 113.353 138.59 0.0187718 0.46038 -0.887523
109.065 113.321 138.557 0.0187718 0.46038 -0.887523
109.172 113.772 138.793 0.0187718 0.46038 -0.887523
109.276 107.424 139.476 -0.525483 -0.200651 -0.826805
109.07 106.778 139.764 -0.525483 -0.200651 -0.826805
108.909 107.37 139.723 -0.525483 -0.200651 -0.826805
109.276 107.424 139.476 0.325596 -0.365571 -0.871978
110.114 107.373 139.811 0.325596 -0.365571 -0.871978
109.799 107.002 139.849 0.325596 -0.365571 -0.871978
109.07 106.778 139.764 0.240508 -0.457247 -0.856201
109.276 107.424 139.476 0.240508 -0.457247 -0.856201
109.799 107.002 139.849 0.240508 -0.457247 -0.856201
109.15 108.278 139.111 -0.468144 -0.4045 -0.785634
109.276 107.424 139.476 -0.468144 -0.4045 -0.785634
108.909 107.37 139.723 -0.468144 -0.4045 -0.785634
108.81 108.388 139.584 -0.819022 -0.154468 -0.552578
109.15 108.278 139.111 -0.819022 -0.154468 -0.552578
108.909 107.37 139.723 -0.819022 -0.154468 -0.552578
110.114 107.373 139.811 0.345512 -0.250436 -0.90438
109.276 107.424 139.476 0.345512 -0.250436 -0.90438
110.106 108.223 139.572 0.345512 -0.250436 -0.90438
110.106 108.223 139.572 0.398179 -0.310118 -0.863296
109.276 107.424 139.476 0.398179 -0.310118 -0.863296
109.15 108.278 139.111 0.398179 -0.310118 -0.863296
109.055 108.944 138.781 -0.79614 -0.356119 -0.489225
109.15 108.278 139.111 -0.79614 -0.356119 -0.489225
108.81 108.388 139.584 -0.79614 -0.356119 -0.489225
109.055 108.944 138.781 -0.894317 -0.190848 -0.40469
108.81 108.388 139.584 -0.894317 -0.190848 -0.40469
108.883 109.442 138.926 -0.894317 -0.190848 -0.40469
108.883 109.442 138.926 -0.967404 -0.0825341 -0.239411
108.81 108.388 139.584 -0.967404 -0.0825341 -0.239411
108.692 109.245 139.765 -0.967404 -0.0825341 -0.239411
109.841 109.125 138.788 0.106505 -0.429237 -0.89689
109.15 108.278 139.111 0.106505 -0.429237 -0.89689
109.055 108.944 138.781 0.106505 -0.429237 -0.89689
110.106 108.223 139.572 0.332743 -0.560971 -0.758019
109.15 108.278 139.111 0.332743 -0.560971 -0.758019
109.841 109.125 138.788 0.332743 -0.560971 -0.758019
110.271 109.478 138.831 0.738058 -0.243832 -0.629139
110.946 109.553 139.595 0.738058 -0.243832 -0.629139
110.698 109.103 139.477 0.738058 -0.243832 -0.629139
109.841 109.125 138.788 0.515963 -0.547141 -0.659105
110.271 109.478 138.831 0.515963 -0.547141 -0.659105
110.698 109.103 139.477 0.515963 -0.547141 -0.659105
109.841 109.125 138.788 0.553356 -0.447848 -0.702303
110.698 109.103 139.477 0.553356 -0.447848 -0.702303
110.106 108.223 139.572 0.553356 -0.447848 -0.702303
109.006 110.25 139.165 -0.813615 0.275531 -0.51197
109.166 109.8 138.67 -0.813615 0.275531 -0.51197
108.883 109.442 138.926 -0.813615 0.275531 -0.51197
109.006 110.25 139.165 -0.874581 0.255302 -0.412225
108.883 109.442 138.926 -0.874581 0.255302 -0.412225
108.728 110.325 139.803 -0.874581 0.255302 -0.412225
108.728 110.325 139.803 -0.976289 0.0394995 -0.212836
108.883 109.442 138.926 -0.976289 0.0394995 -0.212836
108.692 109.245 139.765 -0.976289 0.0394995 -0.212836
109.166 109.8 138.67 -0.668984 0.430322 -0.606039
109.006 110.25 139.165 -0.668984 0.430322 -0.606039
109.618 110.67 138.788 -0.668984 0.430322 -0.606039
110.946 109.553 139.595 0.711498 -0.203847 -0.672471
110.351 110.226 138.76 0.711498 -0.203847 -0.672471
110.982 110.608 139.312 0.711498 -0.203847 -0.672471
110.271 109.478 138.831 0.748307 -0.141152 -0.648161
110.351 110.226 138.76 0.748307 -0.141152 -0.648161
110.946 109.553 139.595 0.748307 -0.141152 -0.648161
110.982 110.608 139.312 0.912071 -0.134179 -0.387456
111.156 110.308 139.827 0.912071 -0.134179 -0.387456
110.946 109.553 139.595 0.912071 -0.134179 -0.387456
109.006 110.25 139.165 -0.833213 0.373092 -0.408117
108.728 110.325 139.803 -0.833213 0.373092 -0.408117
109.067 110.767 139.514 -0.833213 0.373092 -0.408117
109.067 110.767 139.514 -0.673575 0.465967 -0.573735
109.618 110.67 138.788 -0.673575 0.465967 -0.573735
109.006 110.25 139.165 -0.673575 0.465967 -0.573735
109.067 110.767 139.514 -0.714635 0.37201 -0.592373
109.442 111.487 139.513 -0.714635 0.37201 -0.592373
109.618 110.67 138.788 -0.714635 0.37201 -0.592373
109.442 111.487 139.513 -0.973626 -0.00742577 -0.228031
109.619 111.683 138.753 -0.973626 -0.00742577 -0.228031
109.618 110.67 138.788 -0.973626 -0.00742577 -0.228031
110.982 110.608 139.312 0.733093 -0.298358 -0.611193
110.691 111.207 138.671 0.733093 -0.298358 -0.611193
111.042 111.514 138.942 0.733093 -0.298358 -0.611193
110.351 110.226 138.76 0.725095 -0.307549 -0.616158
110.691 111.207 138.671 0.725095 -0.307549 -0.616158
110.982 110.608 139.312 0.725095 -0.307549 -0.616158
111.168 111.354 139.646 0.930864 -0.0727068 -0.358059
111.156 110.308 139.827 0.930864 -0.0727068 -0.358059
110.982 110.608 139.312 0.930864 -0.0727068 -0.358059
111.042 111.514 138.942 0.966826 -0.149254 -0.207294
111.168 111.354 139.646 0.966826 -0.149254 -0.207294
110.982 110.608 139.312 0.966826 -0.149254 -0.207294
109.104 112.369 138.719 -0.895199 -0.438842 0.0776964
108.973 112.686 139.0 -0.895199 -0.438842 0.0776964
108.889 112.805 138.708 -0.895199 -0.438842 0.0776964
109.104 112.369 138.719 -0.771069 -0.570197 0.283421
109.372 112.34 139.392 -0.771069 -0.570197 0.283421
108.973 112.686 139.0 -0.771069 -0.570197 0.283421
109.104 112.369 138.719 -0.773564 -0.566224 0.284586
109.619 111.683 138.753 -0.773564 -0.566224 0.284586
109.372 112.34 139.392 -0.773564 -0.566224 0.284586
109.619 111.683 138.753 -0.960728 -0.114704 -0.252676
109.442 111.487 139.513 -0.960728 -0.114704 -0.252676
109.372 112.34 139.392 -0.960728 -0.114704 -0.252676
110.691 111.207 138.671 0.707059 -0.212688 -0.674412
110.891 112.015 138.626 0.707059 -0.212688 -0.674412
111.042 111.514 138.942 0.707059 -0.212688 -0.674412
111.042 111.514 138.942 0.878588 -0.0359367 -0.476226
110.891 112.015 138.626 0.878588 -0.0359367 -0.476226
111.076 112.335 138.942 0.878588 -0.0359367 -0.476226
111.042 111.514 138.942 0.981879 -0.0402519 -0.185184
111.076 112.335 138.942 0.981879 -0.0402519 -0.185184
111.168 111.354 139.646 0.981879 -0.0402519 -0.185184
111.168 111.354 139.646 0.991582 0.000643456 -0.12948
111.076 112.335 138.942 0.991582 0.000643456 -0.12948
111.183 112.339 139.765 0.991582 0.000643456 -0.12948
108.973 112.686 139.0 -0.948063 -0.307061 0.0830101
108.956 112.925 139.692 -0.948063 -0.307061 0.0830101
108.814 113.329 139.564 -0.948063 -0.307061 0.0830101
108.973 112.686 139.0 -0.931037 -0.34191 0.127545
108.814 113.329 139.564 -0.931037 -0.34191 0.127545
108.889 112.805 138.708 -0.931037 -0.34191 0.127545
108.889 112.805 138.708 -0.995522 0.0112617 -0.0938527
108.814 113.329 139.564 -0.995522 0.0112617 -0.0938527
108.881 113.625 138.885 -0.995522 0.0112617 -0.0938527
109.372 112.34 139.392 -0.746266 -0.634438 0.201434
108.956 112.925 139.692 -0.746266 -0.634438 0.201434
108.973 112.686 139.0 -0.746266 -0.634438 0.201434
110.71 112.632 138.662 0.744008 0.445546 -0.497936
110.333 113.502 138.877 0.744008 0.445546 -0.497936
110.949 113.375 139.684 0.744008 0.445546 -0.497936
110.71 112.632 138.662 0.743951 0.445607 -0.497967
110.949 113.375 139.684 0.743951 0.445607 -0.497967
111.076 112.335 138.942 0.743951 0.445607 -0.497967
111.076 112.335 138.942 0.969481 0.209291 -0.127684
110.949 113.375 139.684 0.969481 0.209291 -0.127684
111.183 112.339 139.765 0.969481 0.209291 -0.127684
109.058 114.315 139.357 -0.495526 0.572643 -0.653096
109.172 113.772 138.793 -0.495526 0.572643 -0.653096
108.881 113.625 138.885 -0.495526 0.572643 -0.653096
109.058 114.315 139.357 -0.842376 0.433589 -0.320007
108.881 113.625 138.885 -0.842376 0.433589 -0.320007
108.868 114.257 139.777 -0.842376 0.433589 -0.320007
108.868 114.257 139.777 -0.995076 0.0732038 -0.0668242
108.881 113.625 138.885 -0.995076 0.0732038 -0.0668242
108.814 113.329 139.564 -0.995076 0.0732038 -0.0668242
109.172 113.772 138.793 0.21183 0.680197 -0.701755
109.873 114.287 139.504 0.21183 0.680197 -0.701755
109.844 113.353 138.59 0.21183 0.680197 -0.701755
109.058 114.315 139.357 0.146642 0.72669 -0.671131
109.873 114.287 139.504 0.146642 0.72669 -0.671131
109.172 113.772 138.793 0.146642 0.72669 -0.671131
110.333 113.502 138.877 0.205832 0.68119 -0.702577
109.844 113.353 138.59 0.205832 0.68119 -0.702577
109.873 114.287 139.504 0.205832 0.68119 -0.702577
110.333 113.502 138.877 0.634627 0.673729 -0.378601
109.873 114.287 139.504 0.634627 0.673729 -0.378601
110.949 113.375 139.684 0.634627 0.673729 -0.378601
109.058 114.315 139.357 -0.695733 0.684076 -0.219078
108.868 114.257 139.777 -0.695733 0.684076 -0.219078
109.159 114.559 139.795 -0.695733 0.684076 -0.219078
109.873 114.287 139.504 0.120791 0.855506 -0.503506
109.058 114.315 139.357 0.120791 0.855506 -0.503506
109.159 114.559 139.795 0.120791 0.855506 -0.503506
109.189 106.448 140.104 -0.565277 -0.800309 -0.19992
109.15 106.291 140.842 -0.565277 -0.800309 -0.19992
108.904 106.557 140.47 -0.565277 -0.800309 -0.19992
109.15 106.291 140.842 0.149805 -0.96861 -0.198376
109.189 106.448 140.104 0.149805 -0.96861 -0.198376
109.954 106.45 140.672 0.149805 -0.96861 -0.198376
109.07 106.778 139.764 -0.698587 -0.619907 -0.35734
109.189 106.448 140.104 -0.698587 -0.619907 -0.35734
108.904 106.557 140.47 -0.698587 -0.619907 -0.35734
109.07 106.778 139.764 -0.915069 -0.270376 -0.299243
108.904 106.557 140.47 -0.915069 -0.270376 -0.299243
108.909 107.37 139.723 -0.915069 -0.270376 -0.299243
108.909 107.37 139.723 -0.979689 -0.132937 -0.150121
108.904 106.557 140.47 -0.979689 -0.132937 -0.150121
108.777 107.353 140.595 -0.979689 -0.132937 -0.150121
109.799 107.002 139.849 0.280109 -0.639264 -0.716157
109.189 106.448 140.104 0.280109 -0.639264 -0.716157
109.07 106.778 139.764 0.280109 -0.639264 -0.716157
109.954 106.45 140.672 0.416377 -0.717146 -0.558867
109.189 106.448 140.104 0.416377 -0.717146 -0.558867
109.799 107.002 139.849 0.416377 -0.717146 -0.558867
110.114 107.373 139.811 0.711393 -0.278188 -0.645393
110.909 107.338 140.702 0.711393 -0.278188 -0.645393
110.629 107.019 140.531 0.711393 -0.278188 -0.645393
109.799 107.002 139.849 0.545418 -0.529197 -0.649977
110.114 107.373 139.811 0.545418 -0.529197 -0.649977
110.629 107.019 140.531 0.545418 -0.529197 -0.649977
109.799 107.002 139.849 0.46745 -0.691214 -0.551102
110.629 107.019 140.531 0.46745 -0.691214 -0.551102
109.954 106.45 140.672 0.46745 -0.691214 -0.551102
108.909 107.37 139.723 -0.981922 -0.115313 -0.150106
108.777 107.353 140.595 -0.981922 -0.115313 -0.150106
108.81 108.388 139.584 -0.981922 -0.115313 -0.150106
108.777 107.353 140.595 -0.985728 -0.100496 -0.135061
108.673 108.341 140.621 -0.985728 -0.100496 -0.135061
108.81 108.388 139.584 -0.985728 -0.100496 -0.135061
110.909 107.338 140.702 0.707495 -0.216815 -0.672638
110.106 108.223 139.572 0.707495 -0.216815 -0.672638
111.063 108.43 140.512 0.707495 -0.216815 -0.672638
110.114 107.373 139.811 0.73088 -0.178007 -0.658884
110.106 108.223 139.572 0.73088 -0.178007 -0.658884
110.909 107.338 140.702 0.73088 -0.178007 -0.658884
108.81 108.388 139.584 -0.985016 -0.106995 -0.135263
108.673 108.341 140.621 -0.985016 -0.106995 -0.135263
108.692 109.245 139.765 -0.985016 -0.106995 -0.135263
108.673 108.341 140.621 -0.994773 -0.0581493 -0.083933
108.611 109.35 140.658 -0.994773 -0.0581493 -0.083933
108.692 109.245 139.765 -0.994773 -0.0581493 -0.083933
110.106 108.223 139.572 0.65864 -0.503133 -0.559509
110.698 109.103 139.477 0.65864 -0.503133 -0.559509
111.063 108.43 140.512 0.65864 -0.503133 -0.559509
111.063 108.43 140.512 0.809419 -0.318903 -0.493094
110.698 109.103 139.477 0.809419 -0.318903 -0.493094
110.946 109.553 139.595 0.809419 -0.318903 -0.493094
111.063 108.43 140.512 0.951645 -0.128992 -0.278806
110.946 109.553 139.595 0.951645 -0.128992 -0.278806
111.228 109.39 140.631 0.951645 -0.128992 -0.278806
108.692 109.245 139.765 -0.994824 0.0359747 -0.0950367
108.611 109.35 140.658 -0.994824 0.0359747 -0.0950367
108.728 110.325 139.803 -0.994824 0.0359747 -0.0950367
108.611 109.35 140.658 -0.99345 0.0205751 -0.1124
108.616 110.263 140.779 -0.99345 0.0205751 -0.1124
108.728 110.325 139.803 -0.99345 0.0205751 -0.1124
110.946 109.553 139.595 0.942907 -0.174641 -0.283597
111.156 110.308 139.827 0.942907 -0.174641 -0.283597
111.228 109.39 140.631 0.942907 -0.174641 -0.283597
111.228 109.39 140.631 0.991334 -0.0336803 -0.126973
111.156 110.308 139.827 0.991334 -0.0336803 -0.126973
111.264 110.405 140.643 0.991334 -0.0336803 -0.126973
108.948 111.329 140.1 -0.820317 0.320076 -0.473953
109.067 110.767 139.514 -0.820317 0.320076 -0.473953
108.728 110.325 139.803 -0.820317 0.320076 -0.473953
108.948 111.329 140.1 -0.884292 0.299834 -0.357948
108.728 110.325 139.803 -0.884292 0.299834 -0.357948
108.716 111.322 140.667 -0.884292 0.299834 -0.357948
108.716 111.322 140.667 -0.990737 0.0820644 -0.108192
108.728 110.325 139.803 -0.990737 0.0820644 -0.108192
108.616 110.263 140.779 -0.990737 0.0820644 -0.108192
109.067 110.767 139.514 -0.752673 0.391851 -0.529089
108.948 111.329 140.1 -0.752673 0.391851 -0.529089
109.442 111.487 139.513 -0.752673 0.391851 -0.529089
111.156 110.308 139.827 0.991338 -0.0335005 -0.126995
111.168 111.354 139.646 0.991338 -0.0335005 -0.126995
111.264 110.405 140.643 0.991338 -0.0335005 -0.126995
111.264 110.405 140.643 0.996749 0.0179001 -0.0785616
111.168 111.354 139.646 0.996749 0.0179001 -0.0785616
111.245 111.451 140.635 0.996749 0.0179001 -0.0785616
108.997 112.208 140.176 -0.92261 0.083952 -0.376488
108.948 111.329 140.1 -0.92261 0.083952 -0.376488
108.716 111.322 140.667 -0.92261 0.083952 -0.376488
108.792 112.508 140.586 -0.886637 0.0253131 -0.461773
108.997 112.208 140.176 -0.886637 0.0253131 -0.461773
108.716 111.322 140.667 -0.886637 0.0253131 -0.461773
109.442 111.487 139.513 -0.884474 -0.135974 -0.446336
108.997 112.208 140.176 -0.884474 -0.135974 -0.446336
109.372 112.34 139.392 -0.884474 -0.135974 -0.446336
108.948 111.329 140.1 -0.773739 0.0972956 -0.625988
108.997 112.208 140.176 -0.773739 0.0972956 -0.625988
109.442 111.487 139.513 -0.773739 0.0972956 -0.625988
111.168 111.354 139.646 0.997071 -0.0058517 -0.076257
111.183 112.339 139.765 0.997071 -0.0058517 -0.076257
111.245 111.451 140.635 0.997071 -0.0058517 -0.076257
111.245 111.451 140.635 0.997545 0.0700176 0.00110058
111.183 112.339 139.765 0.997545 0.0700176 0.00110058
111.167 112.558 140.671 0.997545 0.0700176 0.00110058
108.956 112.925 139.692 -0.926851 -0.245092 -0.284389
108.997 112.208 140.176 -0.926851 -0.245092 -0.284389
108.792 112.508 140.586 -0.926851 -0.245092 -0.284389
108.956 112.925 139.692 -0.845992 -0.406621 -0.344901
108.792 112.508 140.586 -0.845992 -0.406621 -0.344901
108.814 113.329 139.564 -0.845992 -0.406621 -0.344901
108.814 113.329 139.564 -0.999199 0.0388888 0.00947208
108.792 112.508 140.586 -0.999199 0.0388888 0.00947208
108.829 113.47 140.606 -0.999199 0.0388888 0.00947208
109.372 112.34 139.392 -0.819864 -0.3518 -0.45173
108.997 112.208 140.176 -0.819864 -0.3518 -0.45173
108.956 112.925 139.692 -0.819864 -0.3518 -0.45173
111.183 112.339 139.765 0.975346 0.217868 -0.0351106
110.949 113.375 139.684 0.975346 0.217868 -0.0351106
111.167 112.558 140.671 0.975346 0.217868 -0.0351106
111.167 112.558 140.671 0.983728 0.0564048 -0.170581
110.949 113.375 139.684 0.983728 0.0564048 -0.170581
111.102 113.38 140.568 0.983728 0.0564048 -0.170581
108.814 113.329 139.564 -0.998378 0.056495 0.00707085
108.829 113.47 140.606 -0.998378 0.056495 0.00707085
108.868 114.257 139.777 -0.998378 0.056495 0.00707085
108.829 113.47 140.606 -0.993715 0.100591 0.0491092
108.908 114.194 140.719 -0.993715 0.100591 0.0491092
108.868 114.257 139.777 -0.993715 0.100591 0.0491092
110.949 113.375 139.684 0.696651 0.687025 -0.206579
110.249 114.287 140.356 0.696651 0.687025 -0.206579
110.835 113.757 140.569 0.696651 0.687025 -0.206579
109.873 114.287 139.504 0.647222 0.706975 -0.285114
110.249 114.287 140.356 0.647222 0.706975 -0.285114
110.949 113.375 139.684 0.647222 0.706975 -0.285114
110.835 113.757 140.569 0.806813 0.573187 -0.143211
111.102 113.38 140.568 0.806813 0.573187 -0.143211
110.949 113.375 139.684 0.806813 0.573187 -0.143211
108.868 114.257 139.777 -0.888786 0.453207 0.0682815
108.908 114.194 140.719 -0.888786 0.453207 0.0682815
109.054 114.526 140.411 -0.888786 0.453207 0.0682815
109.159 114.559 139.795 -0.714613 0.69433 -0.0850521
108.868 114.257 139.777 -0.714613 0.69433 -0.0850521
109.054 114.526 140.411 -0.714613 0.69433 -0.0850521
109.873 114.287 139.504 0.27385 0.939524 -0.20567
109.159 114.559 139.795 0.27385 0.939524 -0.20567
109.723 114.53 140.414 0.27385 0.939524 -0.20567
109.159 114.559 139.795 -0.00629033 0.998614 0.0522512
109.054 114.526 140.411 -0.00629033 0.998614 0.0522512
109.723 114.53 140.414 -0.00629033 0.998614 0.0522512
109.723 114.53 140.414 0.39706 0.900958 -0.17498
110.249 114.287 140.356 0.39706 0.900958 -0.17498
109.873 114.287 139.504 0.39706 0.900958 -0.17498
109.15 106.291 140.842 -0.7 -0.714021 0.013175
109.174 106.281 141.566 -0.7 -0.714021 0.013175
108.87 106.577 141.459 -0.7 -0.714021 0.013175
108.904 106.557 140.47 -0.727092 -0.686435 -0.011956
109.15 106.291 140.842 -0.727092 -0.686435 -0.011956
108.87 106.577 141.459 -0.727092 -0.686435 -0.011956
109.954 106.45 140.672 0.145328 -0.965415 -0.216455
109.852 106.264 141.433 0.145328 -0.965415 -0.216455
109.15 106.291 140.842 0.145328 -0.965415 -0.216455
109.15 106.291 140.842 -0.0267936 -0.999551 -0.0134004
109.852 106.264 141.433 -0.0267936 -0.999551 -0.0134004
109.174 106.281 141.566 -0.0267936 -0.999551 -0.0134004
109.954 106.45 140.672 0.356214 -0.917608 -0.176373
110.702 106.569 141.566 0.356214 -0.917608 -0.176373
109.852 106.264 141.433 0.356214 -0.917608 -0.176373
108.904 106.557 140.47 -0.98773 -0.152923 -0.0316964
108.87 106.577 141.459 -0.98773 -0.152923 -0.0316964
108.777 107.353 140.595 -0.98773 -0.152923 -0.0316964
108.87 106.577 141.459 -0.986075 -0.16152 -0.0395961
108.725 107.457 141.48 -0.986075 -0.16152 -0.0395961
108.777 107.353 140.595 -0.986075 -0.16152 -0.0395961
109.954 106.45 140.672 0.554338 -0.748313 -0.364332
110.629 107.019 140.531 0.554338 -0.748313 -0.364332
110.702 106.569 141.566 0.554338 -0.748313 -0.364332
110.702 106.569 141.566 0.791186 -0.538578 -0.289756
110.629 107.019 140.531 0.791186 -0.538578 -0.289756
110.909 107.338 140.702 0.791186 -0.538578 -0.289756
110.702 106.569 141.566 0.635934 -0.645828 -0.422486
110.909 107.338 140.702 0.635934 -0.645828 -0.422486
111.065 106.814 141.737 0.635934 -0.645828 -0.422486
111.065 106.814 141.737 0.946494 -0.207406 -0.247248
110.909 107.338 140.702 0.946494 -0.207406 -0.247248
111.156 107.501 141.511 0.946494 -0.207406 -0.247248
108.777 107.353 140.595 -0.99351 -0.103645 -0.0468557
108.725 107.457 141.48 -0.99351 -0.103645 -0.0468557
108.673 108.341 140.621 -0.99351 -0.103645 -0.0468557
108.725 107.457 141.48 -0.99744 -0.070422 -0.0124257
108.66 108.347 141.613 -0.99744 -0.070422 -0.0124257
108.673 108.341 140.621 -0.99744 -0.070422 -0.0124257
110.909 107.338 140.702 0.950561 -0.17809 -0.254398
111.063 108.43 140.512 0.950561 -0.17809 -0.254398
111.156 107.501 141.511 0.950561 -0.17809 -0.254398
111.156 107.501 141.511 0.987537 -0.0580757 -0.146282
111.063 108.43 140.512 0.987537 -0.0580757 -0.146282
111.223 108.386 141.611 0.987537 -0.0580757 -0.146282
108.673 108.341 140.621 -0.998062 -0.0609668 -0.0124895
108.66 108.347 141.613 -0.998062 -0.0609668 -0.0124895
108.611 109.35 140.658 -0.998062 -0.0609668 -0.0124895
108.66 108.347 141.613 -0.999366 -0.0260168 0.0243166
108.634 109.366 141.645 -0.999366 -0.0260168 0.0243166
108.611 109.35 140.658 -0.999366 -0.0260168 0.0243166
111.063 108.43 140.512 0.97751 -0.149677 -0.148564
111.228 109.39 140.631 0.97751 -0.149677 -0.148564
111.223 108.386 141.611 0.97751 -0.149677 -0.148564
111.223 108.386 141.611 0.997571 -0.0510615 -0.0473719
111.228 109.39 140.631 0.997571 -0.0510615 -0.0473719
111.277 109.409 141.631 0.997571 -0.0510615 -0.0473719
108.611 109.35 140.658 -0.999712 0.00261025 0.0238706
108.634 109.366 141.645 -0.999712 0.00261025 0.0238706
108.616 110.263 140.779 -0.999712 0.00261025 0.0238706
108.634 109.366 141.645 -0.996612 0.0456559 0.0684173
108.681 110.387 141.648 -0.996612 0.0456559 0.0684173
108.616 110.263 140.779 -0.996612 0.0456559 0.0684173
111.228 109.39 140.631 0.998254 -0.0348187 -0.0477207
111.264 110.405 140.643 0.998254 -0.0348187 -0.0477207
111.277 109.409 141.631 0.998254 -0.0348187 -0.0477207
111.277 109.409 141.631 0.99992 0.0126283 6.45318e-05
111.264 110.405 140.643 0.99992 0.0126283 6.45318e-05
111.263 110.445 141.62 0.99992 0.0126283 6.45318e-05
108.616 110.263 140.779 -0.993134 0.10016 0.0604313
108.681 110.387 141.648 -0.993134 0.10016 0.0604313
108.716 111.322 140.667 -0.993134 0.10016 0.0604313
108.681 110.387 141.648 -0.988075 0.127361 0.0865316
108.809 111.375 141.645 -0.988075 0.127361 0.0865316
108.716 111.322 140.667 -0.988075 0.127361 0.0865316
111.264 110.405 140.643 0.999828 0.0185208 -0.000178591
111.245 111.451 140.635 0.999828 0.0185208 -0.000178591
111.263 110.445 141.62 0.999828 0.0185208 -0.000178591
111.263 110.445 141.62 0.988673 0.114035 0.0975794
111.245 111.451 140.635 0.988673 0.114035 0.0975794
111.145 111.527 141.558 0.988673 0.114035 0.0975794
108.716 111.322 140.667 -0.993496 0.0695223 0.0901814
108.809 111.375 141.645 -0.993496 0.0695223 0.0901814
108.792 112.508 140.586 -0.993496 0.0695223 0.0901814
108.809 111.375 141.645 -0.98972 0.0895227 0.111534
108.887 112.485 141.449 -0.98972 0.0895227 0.111534
108.792 112.508 140.586 -0.98972 0.0895227 0.111534
110.265 112.683 141.566 0.137789 0.252842 0.957646
109.703 112.83 141.608 0.137789 0.252842 0.957646
109.995 112.368 141.688 0.137789 0.252842 0.957646
110.265 112.683 141.566 0.300986 0.432466 0.84993
110.763 112.109 141.682 0.300986 0.432466 0.84993
110.956 112.472 141.429 0.300986 0.432466 0.84993
109.995 112.368 141.688 0.102795 0.281492 0.954042
110.763 112.109 141.682 0.102795 0.281492 0.954042
110.265 112.683 141.566 0.102795 0.281492 0.954042
110.956 112.472 141.429 0.593035 0.22398 0.773397
110.763 112.109 141.682 0.593035 0.22398 0.773397
111.145 111.527 141.558 0.593035 0.22398 0.773397
110.956 112.472 141.429 0.931997 0.224749 0.284375
111.145 111.527 141.558 0.931997 0.224749 0.284375
111.167 112.558 140.671 0.931997 0.224749 0.284375
111.167 112.558 140.671 0.992572 0.0664537 0.101903
111.145 111.527 141.558 0.992572 0.0664537 0.101903
111.245 111.451 140.635 0.992572 0.0664537 0.101903
108.792 112.508 140.586 -0.993205 0.0365472 0.110488
108.887 112.485 141.449 -0.993205 0.0365472 0.110488
108.829 113.47 140.606 -0.993205 0.0365472 0.110488
108.887 112.485 141.449 -0.993068 0.0373729 0.111444
108.912 113.372 141.379 -0.993068 0.0373729 0.111444
108.829 113.47 140.606 -0.993068 0.0373729 0.111444
109.944 113.52 141.346 0.150144 0.305026 0.940434
109.703 112.83 141.608 0.150144 0.305026 0.940434
110.265 112.683 141.566 0.150144 0.305026 0.940434
109.439 113.54 141.464 0.228838 0.275065 0.933795
109.703 112.83 141.608 0.228838 0.275065 0.933795
109.944 113.52 141.346 0.228838 0.275065 0.933795
110.956 112.472 141.429 0.279538 0.32817 0.90231
110.813 113.354 141.152 0.279538 0.32817 0.90231
110.265 112.683 141.566 0.279538 0.32817 0.90231
110.813 113.354 141.152 0.265725 0.339444 0.902313
109.944 113.52 141.346 0.265725 0.339444 0.902313
110.265 112.683 141.566 0.265725 0.339444 0.902313
111.167 112.558 140.671 0.887164 0.125758 0.443988
111.102 113.38 140.568 0.887164 0.125758 0.443988
110.813 113.354 141.152 0.887164 0.125758 0.443988
110.956 112.472 141.429 0.92796 0.240131 0.285002
111.167 112.558 140.671 0.92796 0.240131 0.285002
110.813 113.354 141.152 0.92796 0.240131 0.285002
109.086 113.506 141.449 -0.415637 0.609721 0.674897
109.248 114.256 140.872 -0.415637 0.609721 0.674897
108.908 114.194 140.719 -0.415637 0.609721 0.674897
109.086 113.506 141.449 -0.626067 0.486144 0.609675
108.908 114.194 140.719 -0.626067 0.486144 0.609675
108.912 113.372 141.379 -0.626067 0.486144 0.609675
108.912 113.372 141.379 -0.989019 0.0894379 0.11765
108.908 114.194 140.719 -0.989019 0.0894379 0.11765
108.829 113.47 140.606 -0.989019 0.0894379 0.11765
109.439 113.54 141.464 -0.0906428 0.620004 0.779345
109.248 114.256 140.872 -0.0906428 0.620004 0.779345
109.086 113.506 141.449 -0.0906428 0.620004 0.779345
109.439 113.54 141.464 0.196278 0.655451 0.729286
109.944 113.52 141.346 0.196278 0.655451 0.729286
109.248 114.256 140.872 0.196278 0.655451 0.729286
109.944 113.52 141.346 0.113305 0.61161 0.783004
110.099 114.22 140.777 0.113305 0.61161 0.783004
109.248 114.256 140.872 0.113305 0.61161 0.783004
110.835 113.757 140.569 0.567775 0.75698 0.32344
110.249 114.287 140.356 0.567775 0.75698 0.32344
110.099 114.22 140.777 0.567775 0.75698 0.32344
110.835 113.757 140.569 0.559874 0.672178 0.484477
110.099 114.22 140.777 0.559874 0.672178 0.484477
110.813 113.354 141.152 0.559874 0.672178 0.484477
110.813 113.354 141.152 0.280484 0.567439 0.774171
110.099 114.22 140.777 0.280484 0.567439 0.774171
109.944 113.52 141.346 0.280484 0.567439 0.774171
111.102 113.38 140.568 0.749951 0.531144 0.394283
110.835 113.757 140.569 0.749951 0.531144 0.394283
110.813 113.354 141.152 0.749951 0.531144 0.394283
108.908 114.194 140.719 -0.392382 0.712301 0.581948
109.248 114.256 140.872 -0.392382 0.712301 0.581948
109.054 114.526 140.411 -0.392382 0.712301 0.581948
109.723 114.53 140.414 -0.00758941 0.861452 0.507782
109.054 114.526 140.411 -0.00758941 0.861452 0.507782
109.248 114.256 140.872 -0.00758941 0.861452 0.507782
110.099 114.22 140.777 0.0992043 0.805056 0.584845
109.723 114.53 140.414 0.0992043 0.805056 0.584845
109.248 114.256 140.872 0.0992043 0.805056 0.584845
110.249 114.287 140.356 0.427312 0.856605 0.289193
109.723 114.53 140.414 0.427312 0.856605 0.289193
110.099 114.22 140.777 0.427312 0.856605 0.289193
109.174 106.281 141.566 -0.719438 -0.657592 0.223566
109.054 106.529 141.909 -0.719438 -0.657592 0.223566
108.87 106.577 141.459 -0.719438 -0.657592 0.223566
109.174 106.281 141.566 0.0537462 -0.921073 0.385663
109.852 106.264 141.433 0.0537462 -0.921073 0.385663
109.798 106.452 141.89 0.0537462 -0.921073 0.385663
109.054 106.529 141.909 -0.0695344 -0.81917 0.56932
109.174 106.281 141.566 -0.0695344 -0.81917 0.56932
109.798 106.452 141.89 -0.0695344 -0.81917 0.56932
109.798 106.452 141.89 0.254416 -0.883294 0.393781
109.852 106.264 141.433 0.254416 -0.883294 0.393781
110.702 106.569 141.566 0.254416 -0.883294 0.393781
109.054 106.529 141.909 -0.607881 -0.479819 0.632656
109.263 107.061 142.514 -0.607881 -0.479819 0.632656
108.83 107.339 142.308 -0.607881 -0.479819 0.632656
109.054 106.529 141.909 -0.865391 -0.39247 0.311554
108.83 107.339 142.308 -0.865391 -0.39247 0.311554
108.87 106.577 141.459 -0.865391 -0.39247 0.311554
108.87 106.577 141.459 -0.981186 -0.164184 0.101578
108.83 107.339 142.308 -0.981186 -0.164184 0.101578
108.725 107.457 141.48 -0.981186 -0.164184 0.101578
109.798 106.452 141.89 -0.0586977 -0.739343 0.670766
109.263 107.061 142.514 -0.0586977 -0.739343 0.670766
109.054 106.529 141.909 -0.0586977 -0.739343 0.670766
110.186 107.002 142.489 -0.0284676 -0.727707 0.685297
109.263 107.061 142.514 -0.0284676 -0.727707 0.685297
109.798 106.452 141.89 -0.0284676 -0.727707 0.685297
110.702 106.569 141.566 0.293375 -0.791877 0.535596
110.186 107.002 142.489 0.293375 -0.791877 0.535596
109.798 106.452 141.89 0.293375 -0.791877 0.535596
110.928 107.06 142.407 0.120918 -0.870928 0.476302
110.186 107.002 142.489 0.120918 -0.870928 0.476302
110.702 106.569 141.566 0.120918 -0.870928 0.476302
110.928 107.06 142.407 0.38602 -0.837917 0.385853
110.702 106.569 141.566 0.38602 -0.837917 0.385853
111.065 106.814 141.737 0.38602 -0.837917 0.385853
110.928 107.06 142.407 0.877425 -0.363756 0.31274
111.065 106.814 141.737 0.877425 -0.363756 0.31274
111.119 107.516 142.4 0.877425 -0.363756 0.31274
111.119 107.516 142.4 0.99206 -0.118007 0.0434887
111.065 106.814 141.737 0.99206 -0.118007 0.0434887
111.156 107.501 141.511 0.99206 -0.118007 0.0434887
108.725 107.457 141.48 -0.989585 -0.0885876 0.113461
108.83 107.339 142.308 -0.989585 -0.0885876 0.113461
108.66 108.347 141.613 -0.989585 -0.0885876 0.113461
108.83 107.339 142.308 -0.987571 -0.0691562 0.141138
108.78 108.378 142.466 -0.987571 -0.0691562 0.141138
108.66 108.347 141.613 -0.987571 -0.0691562 0.141138
111.156 107.501 141.511 0.995864 -0.0800257 0.0430217
111.223 108.386 141.611 0.995864 -0.0800257 0.0430217
111.119 107.516 142.4 0.995864 -0.0800257 0.0430217
111.119 107.516 142.4 0.995762 -0.0476958 0.0786325
111.223 108.386 141.611 0.995762 -0.0476958 0.0786325
111.164 108.558 142.467 0.995762 -0.0476958 0.0786325
108.66 108.347 141.613 -0.989713 -0.0294109 0.14001
108.78 108.378 142.466 -0.989713 -0.0294109 0.14001
108.634 109.366 141.645 -0.989713 -0.0294109 0.14001
108.78 108.378 142.466 -0.982316 0.0106793 0.186925
108.794 109.402 142.481 -0.982316 0.0106793 0.186925
108.634 109.366 141.645 -0.982316 0.0106793 0.186925
111.223 108.386 141.611 0.99538 -0.0534412 0.0797653
111.277 109.409 141.631 0.99538 -0.0534412 0.0797653
111.164 108.558 142.467 0.99538 -0.0534412 0.0797653
111.164 108.558 142.467 0.991709 -0.00520744 0.128401
111.277 109.409 141.631 0.991709 -0.00520744 0.128401
111.17 109.585 142.46 0.991709 -0.00520744 0.128401
108.634 109.366 141.645 -0.981659 0.0445935 0.185356
108.794 109.402 142.481 -0.981659 0.0445935 0.185356
108.681 110.387 141.648 -0.981659 0.0445935 0.185356
108.794 109.402 142.481 -0.974372 0.0695622 0.213915
108.858 110.334 142.47 -0.974372 0.0695622 0.213915
108.681 110.387 141.648 -0.974372 0.0695622 0.213915
111.277 109.409 141.631 0.992132 0.0138504 0.124425
111.263 110.445 141.62 0.992132 0.0138504 0.124425
111.17 109.585 142.46 0.992132 0.0138504 0.124425
111.17 109.585 142.46 0.978447 0.0797748 0.190466
111.263 110.445 141.62 0.978447 0.0797748 0.190466
111.111 110.536 142.367 0.978447 0.0797748 0.190466
109.041 110.726 142.442 -0.665972 0.47173 0.577886
109.137 111.508 141.915 -0.665972 0.47173 0.577886
108.809 111.375 141.645 -0.665972 0.47173 0.577886
109.041 110.726 142.442 -0.750955 0.387933 0.534392
108.809 111.375 141.645 -0.750955 0.387933 0.534392
108.858 110.334 142.47 -0.750955 0.387933 0.534392
108.858 110.334 142.47 -0.968298 0.125223 0.216143
108.809 111.375 141.645 -0.968298 0.125223 0.216143
108.681 110.387 141.648 -0.968298 0.125223 0.216143
109.137 111.508 141.915 -0.0421379 0.583847 0.810769
109.791 110.717 142.519 -0.0421379 0.583847 0.810769
110.066 111.548 141.935 -0.0421379 0.583847 0.810769
109.041 110.726 142.442 -0.076807 0.563949 0.82223
109.791 110.717 142.519 -0.076807 0.563949 0.82223
109.137 111.508 141.915 -0.076807 0.563949 0.82223
110.066 111.548 141.935 0.144866 0.611766 0.777661
110.717 110.657 142.514 0.144866 0.611766 0.777661
110.923 111.333 141.944 0.144866 0.611766 0.777661
109.791 110.717 142.519 0.0405412 0.56556 0.82371
110.717 110.657 142.514 0.0405412 0.56556 0.82371
110.066 111.548 141.935 0.0405412 0.56556 0.82371
110.923 111.333 141.944 0.432612 0.500598 0.749832
110.717 110.657 142.514 0.432612 0.500598 0.749832
111.111 110.536 142.367 0.432612 0.500598 0.749832
110.923 111.333 141.944 0.639645 0.472976 0.605927
111.111 110.536 142.367 0.639645 0.472976 0.605927
111.145 111.527 141.558 0.639645 0.472976 0.605927
111.145 111.527 141.558 0.97562 0.117631 0.185281
111.111 110.536 142.367 0.97562 0.117631 0.185281
111.263 110.445 141.62 0.97562 0.117631 0.185281
109.137 111.508 141.915 -0.584777 0.222442 0.7801
109.2 112.507 141.678 -0.584777 0.222442 0.7801
108.887 112.485 141.449 -0.584777 0.222442 0.7801
108.809 111.375 141.645 -0.666409 0.175137 0.724725
109.137 111.508 141.915 -0.666409 0.175137 0.724725
108.887 112.485 141.449 -0.666409 0.175137 0.724725
109.995 112.368 141.688 0.0185495 0.181957 0.983131
109.703 112.83 141.608 0.0185495 0.181957 0.983131
109.2 112.507 141.678 0.0185495 0.181957 0.983131
109.995 112.368 141.688 0.0378521 0.290306 0.956185
109.2 112.507 141.678 0.0378521 0.290306 0.956185
110.066 111.548 141.935 0.0378521 0.290306 0.956185
110.066 111.548 141.935 -0.0306078 0.232786 0.972046
109.2 112.507 141.678 -0.0306078 0.232786 0.972046
109.137 111.508 141.915 -0.0306078 0.232786 0.972046
110.763 112.109 141.682 0.107104 0.294368 0.949672
109.995 112.368 141.688 0.107104 0.294368 0.949672
110.066 111.548 141.935 0.107104 0.294368 0.949672
110.923 111.333 141.944 0.0729286 0.332581 0.940251
110.763 112.109 141.682 0.0729286 0.332581 0.940251
110.066 111.548 141.935 0.0729286 0.332581 0.940251
111.145 111.527 141.558 0.725515 0.349143 0.593066
110.763 112.109 141.682 0.725515 0.349143 0.593066
110.923 111.333 141.944 0.725515 0.349143 0.593066
109.2 112.507 141.678 -0.468257 0.145244 0.871573
109.086 113.506 141.449 -0.468257 0.145244 0.871573
108.912 113.372 141.379 -0.468257 0.145244 0.871573
108.887 112.485 141.449 -0.591159 0.0804351 0.802534
109.2 112.507 141.678 -0.591159 0.0804351 0.802534
108.912 113.372 141.379 -0.591159 0.0804351 0.802534
109.703 112.83 141.608 -0.0573567 0.178467 0.982273
109.439 113.54 141.464 -0.0573567 0.178467 0.982273
109.086 113.506 141.449 -0.0573567 0.178467 0.982273
109.2 112.507 141.678 -0.00811762 0.221744 0.975071
109.703 112.83 141.608 -0.00811762 0.221744 0.975071
109.086 113.506 141.449 -0.00811762 0.221744 0.975071
109.263 107.061 142.514 -0.592754 -0.412202 0.691904
109.146 107.635 142.756 -0.592754 -0.412202 0.691904
108.83 107.339 142.308 -0.592754 -0.412202 0.691904
109.263 107.061 142.514 -0.0135617 -0.557478 0.830081
110.186 107.002 142.489 -0.0135617 -0.557478 0.830081
110.019 107.478 142.806 -0.0135617 -0.557478 0.830081
109.146 107.635 142.756 -0.125535 -0.40668 0.904904
109.263 107.061 142.514 -0.125535 -0.40668 0.904904
110.019 107.478 142.806 -0.125535 -0.40668 0.904904
110.186 107.002 142.489 0.133855 -0.643757 0.753432
110.928 107.06 142.407 0.133855 -0.643757 0.753432
110.812 107.381 142.702 0.133855 -0.643757 0.753432
110.019 107.478 142.806 0.04389 -0.542968 0.838606
110.186 107.002 142.489 0.04389 -0.542968 0.838606
110.812 107.381 142.702 0.04389 -0.542968 0.838606
110.928 107.06 142.407 0.732498 -0.29845 0.611862
111.119 107.516 142.4 0.732498 -0.29845 0.611862
110.812 107.381 142.702 0.732498 -0.29845 0.611862
109.146 107.635 142.756 -0.674807 -0.0459685 0.736562
109.135 108.596 142.805 -0.674807 -0.0459685 0.736562
108.78 108.378 142.466 -0.674807 -0.0459685 0.736562
108.83 107.339 142.308 -0.765874 -0.132696 0.62915
109.146 107.635 142.756 -0.765874 -0.132696 0.62915
108.78 108.378 142.466 -0.765874 -0.132696 0.62915
110.019 107.478 142.806 -0.0727736 -0.0851367 0.993708
110.0 108.357 142.88 -0.0727736 -0.0851367 0.993708
109.146 107.635 142.756 -0.0727736 -0.0851367 0.993708
110.0 108.357 142.88 -0.100746 -0.0520626 0.993549
109.135 108.596 142.805 -0.100746 -0.0520626 0.993549
109.146 107.635 142.756 -0.100746 -0.0520626 0.993549
110.812 107.381 142.702 0.11922 -0.0877384 0.988984
110.848 108.148 142.766 0.11922 -0.0877384 0.988984
110.019 107.478 142.806 0.11922 -0.0877384 0.988984
110.848 108.148 142.766 0.113675 -0.0808141 0.990226
110.0 108.357 142.88 0.113675 -0.0808141 0.990226
110.019 107.478 142.806 0.113675 -0.0808141 0.990226
111.119 107.516 142.4 0.734558 -0.0743933 0.674456
111.164 108.558 142.467 0.734558 -0.0743933 0.674456
110.848 108.148 142.766 0.734558 -0.0743933 0.674456
110.812 107.381 142.702 0.718001 -0.09055 0.690127
111.119 107.516 142.4 0.718001 -0.09055 0.690127
110.848 108.148 142.766 0.718001 -0.09055 0.690127
109.135 108.596 142.805 -0.657577 0.0249258 0.752975
109.144 109.588 142.781 -0.657577 0.0249258 0.752975
108.794 109.402 142.481 -0.657577 0.0249258 0.752975
108.78 108.378 142.466 -0.690241 -0.000703746 0.723579
109.135 108.596 142.805 -0.690241 -0.000703746 0.723579
108.794 109.402 142.481 -0.690241 -0.000703746 0.723579
110.0 108.357 142.88 -0.0812114 0.0198377 0.996499
109.998 109.358 142.86 -0.0812114 0.0198377 0.996499
109.135 108.596 142.805 -0.0812114 0.0198377 0.996499
109.998 109.358 142.86 -0.0858571 0.0251344 0.99599
109.144 109.588 142.781 -0.0858571 0.0251344 0.99599
109.135 108.596 142.805 -0.0858571 0.0251344 0.99599
110.848 108.148 142.766 0.131041 -0.01093 0.991317
110.854 109.15 142.776 0.131041 -0.01093 0.991317
110.0 108.357 142.88 0.131041 -0.01093 0.991317
110.854 109.15 142.776 0.102503 0.0202351 0.994527
109.998 109.358 142.86 0.102503 0.0202351 0.994527
110.0 108.357 142.88 0.102503 0.0202351 0.994527
111.164 108.558 142.467 0.706533 0.000238437 0.70768
111.17 109.585 142.46 0.706533 0.000238437 0.70768
110.854 109.15 142.776 0.706533 0.000238437 0.70768
110.848 108.148 142.766 0.695113 -0.0115646 0.718807
111.164 108.558 142.467 0.695113 -0.0115646 0.718807
110.854 109.15 142.776 0.695113 -0.0115646 0.718807
109.144 109.588 142.781 -0.595195 0.103261 0.796919
109.181 110.339 142.711 -0.595195 0.103261 0.796919
108.858 110.334 142.47 -0.595195 0.103261 0.796919
108.794 109.402 142.481 -0.665707 0.0543054 0.744235
109.144 109.588 142.781 -0.665707 0.0543054 0.744235
108.858 110.334 142.47 -0.665707 0.0543054 0.744235
109.998 109.358 142.86 -0.0642906 0.103931 0.992504
109.978 110.227 142.768 -0.0642906 0.103931 0.992504
109.144 109.588 142.781 -0.0642906 0.103931 0.992504
109.978 110.227 142.768 -0.0574667 0.0950634 0.993811
109.181 110.339 142.711 -0.0574667 0.0950634 0.993811
109.144 109.588 142.781 -0.0574667 0.0950634 0.993811
110.854 109.15 142.776 0.112201 0.0612675 0.991795
110.839 110.099 142.719 0.112201 0.0612675 0.991795
109.998 109.358 142.86 0.112201 0.0612675 0.991795
110.839 110.099 142.719 0.0719292 0.106946 0.99166
109.978 110.227 142.768 0.0719292 0.106946 0.99166
109.998 109.358 142.86 0.0719292 0.106946 0.99166
111.17 109.585 142.46 0.714254 0.11193 0.690878
111.111 110.536 142.367 0.714254 0.11193 0.690878
110.839 110.099 142.719 0.714254 0.11193 0.690878
110.854 109.15 142.776 0.66677 0.0550259 0.743229
111.17 109.585 142.46 0.66677 0.0550259 0.743229
110.839 110.099 142.719 0.66677 0.0550259 0.743229
108.858 110.334 142.47 -0.569187 0.319113 0.757755
109.181 110.339 142.711 -0.569187 0.319113 0.757755
109.041 110.726 142.442 -0.569187 0.319113 0.757755
109.791 110.717 142.519 -0.077964 0.549551 0.831815
109.041 110.726 142.442 -0.077964 0.549551 0.831815
109.181 110.339 142.711 -0.077964 0.549551 0.831815
109.978 110.227 142.768 0.00026384 0.453486 0.891263
109.791 110.717 142.519 0.00026384 0.453486 0.891263
109.181 110.339 142.711 0.00026384 0.453486 0.891263
110.717 110.657 142.514 0.0342411 0.4635 0.885435
109.791 110.717 142.519 0.0342411 0.4635 0.885435
109.978 110.227 142.768 0.0342411 0.4635 0.885435
110.839 110.099 142.719 0.106291 0.363254 0.925607
110.717 110.657 142.514 0.106291 0.363254 0.925607
109.978 110.227 142.768 0.106291 0.363254 0.925607
111.111 110.536 142.367 0.424287 0.392731 0.815931
110.717 110.657 142.514 0.424287 0.392731 0.815931
110.839 110.099 142.719 0.424287 0.392731 0.815931
3 0 1 2
3 3 4 5
3 6 7 8
3 9 10 11
3 12 13 14
3 15 16 17
3 18 19 20
3 21 22 23
3 24 25 26
3 27 28 29
3 30 31 32
3 33 34 35
3 36 37 38
3 39 40 41
3 42 43 44
3 45 46 47
3 48 49 50
3 51 52 53
3 54 55 56
3 57 58 59
3 60 61 62
3 63 64 65
3 66 67 68
3 69 70 71
3 72 73 74
3 75 76 77
3 78 79 80
3 81 82 83
3 84 85 86
3 87 88 89
3 90 91 92
3 93 94 95
3 96 97 98
3 99 100 101
3 102 103 104
3 105 106 107
3 108 109 110
3 111 112 113
3 114 115 116
3 117 118 119
3 120 121 122
3 123 124 125
3 126 127 128
3 129 130 131
3 132 133 134
3 135 136 137
3 138 139 140
3 141 142 143
3 144 145 146
3 147 148 149
3 150 151 152
3 153 154 155
3 156 157 158
3 159 160 161
3 162 163 164
3 165 166 167
3 168 169 170
3 171 172 173
3 174 175 176
3 177 178 179
3 180 181 182
3 183 184 185
3 186 187 188
3 189 190 191
3 192 193 194
3 195 196 197
3 198 199 200
3 201 202 203
3 204 205 206
3 207 208 209
3 210 211 212
3 213 214 215
3 216 217 218
3 219 220 221
3 222 223 224
3 225 226 227
3 228 229 230
3 231 232 233
3 234 235 236
3 237 238 239
3 240 241 242
3 243 244 245
3 246 247 248
3 249 250 251
3 252 253 254
3 255 256 257
3 258 259 260
3 261 262 263
3 264 265 266
3 267 268 269
3 270 271 272
3 273 274 275
3 276 277 278
3 279 280 281
3 282 283 284
3 285 286 287
3 288 289 290
3 291 292 293
3 294 295 296
3 297 298 299
3 300 301 302
3 303 304 305
3 306 307 308
3 309 310 311
3 312 313 314
3 315 316 317
3 318 319 320
3 321 322 323
3 324 325 326
3 327 328 329
3 330 331 332
3 333 334 335
3 336 337 338
3 339 340 341
3 342 343 344
3 345 346 347
3 348 349 350
3 351 352 353
3 354 355 356
3 357 358 359
3 360 361 362
3 363 364 365
3 366 367 368
3 369 370 371
3 372 373 374
3 375 376 377
3 378 379 380
3 381 382 383
3 384 385 386
3 387 388 389
3 390 391 392
3 393 394 395
3 396 397 398
3 399 400 401
3 402 403 404
3 405 406 407
3 408 409 410
3 411 412 413
3 414 415 416
3 417 418 419
3 420 421 422
3 423 424 425
3 426 427 428
3 429 430 431
3 432 433 434
3 435 436 437
3 438 439 440
3 441 442 443
3 444 445 446
3 447 448 449
3 450 451 452
3 453 454 455
3 456 457 458
3 459 460 461
3 462 463 464
3 465 466 467
3 468 469 470
3 471 472 473
3 474 475 476
3 477 478 479
3 480 481 482
3 483 484 485
3 486 487 488
3 489 490 491
3 492 493 494
3 495 496 497
3 498 499 500
3 501 502 503
3 504 505 506
3 507 508 509
3 510 511 512
3 513 514 515
3 516 517 518
3 519 520 521
3 522 523 524
3 525 526 527
3 528 529 530
3 531 532 533
3 534 535 536
3 537 538 539
3 540 541 542
3 543 544 545
3 546 547 548
3 549 550 551
3 552 553 554
3 555 556 557
3 558 559 560
3 561 562 563
3 564 565 566
3 567 568 569
3 570 571 572
3 573 574 575
3 576 577 578
3 579 580 581
3 582 583 584
3 585 586 587
3 588 589 590
3 591 592 593
3 594 595 596
3 597 598 599
3 600 601 602
3 603 604 605
3 606 607 608
3 609 610 611
3 612 613 614
3 615 616 617
3 618 619 620
3 621 622 623
3 624 625 626
3 627 628 629
3 630 631 632
3 633 634 635
3 636 637 638
3 639 640 641
3 642 643 644
3 645 646 647
3 648 649 650
3 651 652 653
3 654 655 656
3 657 658 659
3 660 661 662
3 663 664 665
3 666 667 668
3 669 670 671
3 672 673 674
3 675 676 677
3 678 679 680
3 681 682 683
3 684 685 686
3 687 688 689
3 690 691 692
3 693 694 695
3 696 697 698
3 699 700 701
3 702 703 704
3 705 706 707
3 708 709 710
3 711 712 713
3 714 715 716
3 717 718 719
3 720 721 722
3 723 724 725
3 726 727 728
3 729 730 731
3 732 733 734
3 735 736 737
3 738 739 740
3 741 742 743
3 744 745 746
3 747 748 749
3 750 751 752
3 753 754 755
3 756 757 758
3 759 760 761
3 762 763 764
3 765 766 767
3 768 769 770
3 771 772 773
3 774 775 776
3 777 778 779
3 780 781 782
3 783 784 785
3 786 787 788
3 789 790 791
3 792 793 794
3 795 796 797
3 798 799 800
3 801 802 803
3 804 805 806
3 807 808 809
3 810 811 812
3 813 814 815
3 816 817 818
3 819 820 821
3 822 823 824
3 825 826 827
