ply
format ascii 1.0
element vertex 552
property float x
property float y
property float z
property float nx
property float ny
property float nz
element face 184
property list uint uint vertex_indices
end_header
76.8864 125.01 194.867 -0.183482 -0.214147 -0.959414
76.7826 124.68 194.961 -0.183482 -0.214147 -0.959414
76.5002 125.104 194.92 -0.183482 -0.214147 -0.959414
76.7826 124.68 194.961 0.722588 -0.389154 -0.571337
76.8864 125.01 194.867 0.722588 -0.389154 -0.571337
77.0843 124.917 195.181 0.722588 -0.389154 -0.571337
76.8864 125.01 194.867 -0.0331014 0.384513 -0.922526
76.5002 125.104 194.92 -0.0331014 0.384513 -0.922526
76.9369 125.406 195.03 -0.0331014 0.384513 -0.922526
77.0843 124.917 195.181 0.854483 0.10106 -0.509555
76.8864 125.01 194.867 0.854483 0.10106 -0.509555
76.9369 125.406 195.03 0.854483 0.10106 -0.509555
76.1413 124.122 195.661 -0.41482 -0.797846 -0.437455
75.999 123.938 196.13 -0.41482 -0.797846 -0.437455
75.708 124.24 195.856 -0.41482 -0.797846 -0.437455
76.1413 124.122 195.661 0.0405688 -0.870508 -0.490479
76.7922 124.261 195.468 0.0405688 -0.870508 -0.490479
76.7344 124.003 195.92 0.0405688 -0.870508 -0.490479
75.999 123.938 196.13 -0.0236997 -0.928756 -0.369933
76.1413 124.122 195.661 -0.0236997 -0.928756 -0.369933
76.7344 124.003 195.92 -0.0236997 -0.928756 -0.369933
76.7344 124.003 195.92 0.411131 -0.813788 -0.410755
76.7922 124.261 195.468 0.411131 -0.813788 -0.410755
77.1451 124.207 195.928 0.411131 -0.813788 -0.410755
76.1031 124.898 195.209 -0.466299 -0.462002 -0.7544
76.1413 124.122 195.661 -0.466299 -0.462002 -0.7544
75.708 124.24 195.856 -0.466299 -0.462002 -0.7544
75.3106 125.064 195.934 -0.680735 -0.263526 -0.683487
76.1031 124.898 195.209 -0.680735 -0.263526 -0.683487
75.708 124.24 195.856 -0.680735 -0.263526 -0.683487
76.7826 124.68 194.961 -0.419665 -0.359588 -0.833414
76.1031 124.898 195.209 -0.419665 -0.359588 -0.833414
76.5002 125.104 194.92 -0.419665 -0.359588 -0.833414
76.7826 124.68 194.961 -0.431975 -0.698792 -0.570165
76.7922 124.261 195.468 -0.431975 -0.698792 -0.570165
76.1031 124.898 195.209 -0.431975 -0.698792 -0.570165
76.7922 124.261 195.468 -0.145006 -0.503039 -0.852013
76.1413 124.122 195.661 -0.145006 -0.503039 -0.852013
76.1031 124.898 195.209 -0.145006 -0.503039 -0.852013
76.7922 124.261 195.468 0.731016 -0.518812 -0.443227
76.7826 124.68 194.961 0.731016 -0.518812 -0.443227
77.0843 124.917 195.181 0.731016 -0.518812 -0.443227
76.7922 124.261 195.468 0.642501 -0.528342 -0.55502
77.0843 124.917 195.181 0.642501 -0.528342 -0.55502
77.1451 124.207 195.928 0.642501 -0.528342 -0.55502
77.1451 124.207 195.928 0.7833 -0.417264 -0.460795
77.0843 124.917 195.181 0.7833 -0.417264 -0.460795
77.5548 124.891 196.004 0.7833 -0.417264 -0.460795
75.9523 125.671 195.424 -0.664092 0.0774334 -0.74363
76.1031 124.898 195.209 -0.664092 0.0774334 -0.74363
75.3106 125.064 195.934 -0.664092 0.0774334 -0.74363
75.961 125.943 196.076 -0.760816 0.602427 -0.24133
75.9523 125.671 195.424 -0.760816 0.602427 -0.24133
75.3106 125.064 195.934 -0.760816 0.602427 -0.24133
76.5002 125.104 194.92 -0.169721 0.544985 -0.821088
76.6413 125.71 195.293 -0.169721 0.544985 -0.821088
76.9369 125.406 195.03 -0.169721 0.544985 -0.821088
76.5002 125.104 194.92 -0.664262 0.497843 -0.557591
76.1031 124.898 195.209 -0.664262 0.497843 -0.557591
76.6413 125.71 195.293 -0.664262 0.497843 -0.557591
76.1031 124.898 195.209 -0.194202 0.227762 -0.954154
75.9523 125.671 195.424 -0.194202 0.227762 -0.954154
76.6413 125.71 195.293 -0.194202 0.227762 -0.954154
76.9369 125.406 195.03 0.423018 0.791793 -0.440591
76.6413 125.71 195.293 0.423018 0.791793 -0.440591
77.264 125.728 195.922 0.423018 0.791793 -0.440591
76.9369 125.406 195.03 0.908292 0.154465 -0.388776
77.264 125.728 195.922 0.908292 0.154465 -0.388776
77.0843 124.917 195.181 0.908292 0.154465 -0.388776
77.0843 124.917 195.181 0.844731 0.247207 -0.474676
77.264 125.728 195.922 0.844731 0.247207 -0.474676
77.5548 124.891 196.004 0.844731 0.247207 -0.474676
76.6413 125.71 195.293 -0.125252 0.916144 -0.380779
75.9523 125.671 195.424 -0.125252 0.916144 -0.380779
75.961 125.943 196.076 -0.125252 0.916144 -0.380779
77.264 125.728 195.922 0.141236 0.975836 -0.166724
76.6413 125.71 195.293 0.141236 0.975836 -0.166724
75.961 125.943 196.076 0.141236 0.975836 -0.166724
75.999 123.938 196.13 -0.385371 -0.892289 -0.235182
75.71 123.835 196.994 -0.385371 -0.892289 -0.235182
75.1979 124.16 196.602 -0.385371 -0.892289 -0.235182
75.708 124.24 195.856 -0.45415 -0.798131 -0.395896
75.999 123.938 196.13 -0.45415 -0.798131 -0.395896
75.1979 124.16 196.602 -0.45415 -0.798131 -0.395896
76.7344 124.003 195.92 0.0825983 -0.996416 -0.018266
76.7351 123.988 196.757 0.0825983 -0.996416 -0.018266
75.999 123.938 196.13 0.0825983 -0.996416 -0.018266
75.999 123.938 196.13 0.129887 -0.988734 -0.0743902
76.7351 123.988 196.757 0.129887 -0.988734 -0.0743902
75.71 123.835 196.994 0.129887 -0.988734 -0.0743902
76.7351 123.988 196.757 0.444307 -0.895719 -0.0167271
76.7344 124.003 195.92 0.444307 -0.895719 -0.0167271
77.1451 124.207 195.928 0.444307 -0.895719 -0.0167271
77.3861 124.274 196.697 0.398173 -0.916208 -0.0449545
76.7351 123.988 196.757 0.398173 -0.916208 -0.0449545
77.1451 124.207 195.928 0.398173 -0.916208 -0.0449545
74.8373 124.893 196.426 -0.81418 -0.306541 -0.493097
74.7541 124.288 196.94 -0.81418 -0.306541 -0.493097
74.4364 124.99 197.028 -0.81418 -0.306541 -0.493097
74.8373 124.893 196.426 -0.618206 -0.457507 -0.639147
75.1979 124.16 196.602 -0.618206 -0.457507 -0.639147
74.7541 124.288 196.94 -0.618206 -0.457507 -0.639147
74.8373 124.893 196.426 -0.563396 -0.444317 -0.696539
75.3106 125.064 195.934 -0.563396 -0.444317 -0.696539
75.1979 124.16 196.602 -0.563396 -0.444317 -0.696539
75.3106 125.064 195.934 -0.766808 -0.316801 -0.558249
75.708 124.24 195.856 -0.766808 -0.316801 -0.558249
75.1979 124.16 196.602 -0.766808 -0.316801 -0.558249
77.1451 124.207 195.928 0.847173 -0.48208 -0.223378
77.5548 124.891 196.004 0.847173 -0.48208 -0.223378
77.3861 124.274 196.697 0.847173 -0.48208 -0.223378
77.3861 124.274 196.697 0.872741 -0.450218 -0.188752
77.5548 124.891 196.004 0.872741 -0.450218 -0.188752
77.8972 125.137 197.001 0.872741 -0.450218 -0.188752
74.9106 125.692 196.641 -0.793818 0.224539 -0.565186
74.8373 124.893 196.426 -0.793818 0.224539 -0.565186
74.4364 124.99 197.028 -0.793818 0.224539 -0.565186
74.5898 125.779 197.168 -0.807823 0.251769 -0.532949
74.9106 125.692 196.641 -0.807823 0.251769 -0.532949
74.4364 124.99 197.028 -0.807823 0.251769 -0.532949
75.3106 125.064 195.934 -0.501274 0.486593 -0.715508
74.9106 125.692 196.641 -0.501274 0.486593 -0.715508
75.961 125.943 196.076 -0.501274 0.486593 -0.715508
74.8373 124.893 196.426 -0.740361 0.236814 -0.629115
74.9106 125.692 196.641 -0.740361 0.236814 -0.629115
75.3106 125.064 195.934 -0.740361 0.236814 -0.629115
77.5548 124.891 196.004 0.887442 0.272077 -0.372049
77.264 125.728 195.922 0.887442 0.272077 -0.372049
77.8972 125.137 197.001 0.887442 0.272077 -0.372049
77.8972 125.137 197.001 0.879161 0.0871087 -0.468496
77.264 125.728 195.922 0.879161 0.0871087 -0.468496
77.7043 125.898 196.78 0.879161 0.0871087 -0.468496
74.9106 125.692 196.641 -0.554467 0.698493 -0.452409
74.5898 125.779 197.168 -0.554467 0.698493 -0.452409
75.1414 126.068 196.939 -0.554467 0.698493 -0.452409
75.961 125.943 196.076 -0.458401 0.707383 -0.538032
74.9106 125.692 196.641 -0.458401 0.707383 -0.538032
75.1414 126.068 196.939 -0.458401 0.707383 -0.538032
75.961 125.943 196.076 -0.138807 0.952673 -0.270457
75.1414 126.068 196.939 -0.138807 0.952673 -0.270457
75.9297 126.168 196.887 -0.138807 0.952673 -0.270457
77.264 125.728 195.922 0.104169 0.913078 -0.394255
75.961 125.943 196.076 0.104169 0.913078 -0.394255
76.9013 126.186 196.888 0.104169 0.913078 -0.394255
75.961 125.943 196.076 -0.0173298 0.963079 -0.268662
75.9297 126.168 196.887 -0.0173298 0.963079 -0.268662
76.9013 126.186 196.888 -0.0173298 0.963079 -0.268662
76.9013 126.186 196.888 0.28067 0.90365 -0.323482
77.7043 125.898 196.78 0.28067 0.90365 -0.323482
77.264 125.728 195.922 0.28067 0.90365 -0.323482
74.9352 123.981 197.182 -0.539572 -0.838627 -0.0746075
75.0154 123.879 197.743 -0.539572 -0.838627 -0.0746075
74.527 124.199 197.678 -0.539572 -0.838627 -0.0746075
74.9352 123.981 197.182 -0.260072 -0.882845 -0.391084
75.1979 124.16 196.602 -0.260072 -0.882845 -0.391084
75.71 123.835 196.994 -0.260072 -0.882845 -0.391084
74.9352 123.981 197.182 -0.215781 -0.965792 -0.143822
75.71 123.835 196.994 -0.215781 -0.965792 -0.143822
75.0154 123.879 197.743 -0.215781 -0.965792 -0.143822
75.0154 123.879 197.743 0.165446 -0.963716 0.209475
75.71 123.835 196.994 0.165446 -0.963716 0.209475
75.8152 124.048 197.888 0.165446 -0.963716 0.209475
77.0908 124.335 197.535 0.283761 -0.917342 0.279221
75.8152 124.048 197.888 0.283761 -0.917342 0.279221
76.7351 123.988 196.757 0.283761 -0.917342 0.279221
76.7351 123.988 196.757 0.190493 -0.959912 0.205623
75.8152 124.048 197.888 0.190493 -0.959912 0.205623
75.71 123.835 196.994 0.190493 -0.959912 0.205623
76.7351 123.988 196.757 0.409164 -0.888222 0.208917
77.3861 124.274 196.697 0.409164 -0.888222 0.208917
77.0908 124.335 197.535 0.409164 -0.888222 0.208917
74.7541 124.288 196.94 -0.703864 -0.646601 -0.294081
74.9352 123.981 197.182 -0.703864 -0.646601 -0.294081
74.527 124.199 197.678 -0.703864 -0.646601 -0.294081
74.7541 124.288 196.94 -0.879307 -0.358554 -0.313462
74.527 124.199 197.678 -0.879307 -0.358554 -0.313462
74.4364 124.99 197.028 -0.879307 -0.358554 -0.313462
74.4364 124.99 197.028 -0.906426 -0.325356 -0.269323
74.527 124.199 197.678 -0.906426 -0.325356 -0.269323
74.1659 124.963 197.97 -0.906426 -0.325356 -0.269323
75.1979 124.16 196.602 -0.55286 -0.691705 -0.464641
74.9352 123.981 197.182 -0.55286 -0.691705 -0.464641
74.7541 124.288 196.94 -0.55286 -0.691705 -0.464641
77.0908 124.335 197.535 0.765851 -0.562842 0.310937
77.3861 124.274 196.697 0.765851 -0.562842 0.310937
77.8972 125.137 197.001 0.765851 -0.562842 0.310937
77.0908 124.335 197.535 0.481809 -0.766655 -0.424383
77.8972 125.137 197.001 0.481809 -0.766655 -0.424383
77.9507 124.746 197.768 0.481809 -0.766655 -0.424383
77.9507 124.746 197.768 0.728736 -0.588196 -0.35067
77.8972 125.137 197.001 0.728736 -0.588196 -0.35067
78.3018 125.129 197.855 0.728736 -0.588196 -0.35067
74.8261 125.83 198.114 -0.648232 0.751733 0.121216
74.966 126.058 197.45 -0.648232 0.751733 0.121216
74.5898 125.779 197.168 -0.648232 0.751733 0.121216
74.8261 125.83 198.114 -0.797483 0.579529 0.16783
74.5898 125.779 197.168 -0.797483 0.579529 0.16783
74.1659 124.963 197.97 -0.797483 0.579529 0.16783
74.1659 124.963 197.97 -0.937355 0.228929 -0.262598
74.5898 125.779 197.168 -0.937355 0.228929 -0.262598
74.4364 124.99 197.028 -0.937355 0.228929 -0.262598
77.8972 125.137 197.001 0.893683 0.0997795 -0.437465
77.7043 125.898 196.78 0.893683 0.0997795 -0.437465
77.9134 126.206 197.278 0.893683 0.0997795 -0.437465
78.5553 125.955 198.076 0.891478 -0.160356 -0.423737
78.3018 125.129 197.855 0.891478 -0.160356 -0.423737
77.8972 125.137 197.001 0.891478 -0.160356 -0.423737
77.9134 126.206 197.278 0.79266 0.141591 -0.592995
78.5553 125.955 198.076 0.79266 0.141591 -0.592995
77.8972 125.137 197.001 0.79266 0.141591 -0.592995
74.5898 125.779 197.168 -0.509381 0.846014 -0.157452
74.966 126.058 197.45 -0.509381 0.846014 -0.157452
75.1414 126.068 196.939 -0.509381 0.846014 -0.157452
74.966 126.058 197.45 -0.416846 0.883166 0.215076
74.8261 125.83 198.114 -0.416846 0.883166 0.215076
75.8865 126.427 197.719 -0.416846 0.883166 0.215076
74.966 126.058 197.45 -0.345028 0.933331 -0.0992424
75.8865 126.427 197.719 -0.345028 0.933331 -0.0992424
75.1414 126.068 196.939 -0.345028 0.933331 -0.0992424
75.1414 126.068 196.939 -0.139639 0.943623 -0.300127
75.8865 126.427 197.719 -0.139639 0.943623 -0.300127
75.9297 126.168 196.887 -0.139639 0.943623 -0.300127
77.0469 126.821 197.691 -0.282678 0.793501 -0.538933
75.8865 126.427 197.719 -0.282678 0.793501 -0.538933
76.5733 127.005 198.211 -0.282678 0.793501 -0.538933
77.0469 126.821 197.691 -0.277839 0.777468 -0.564224
76.9013 126.186 196.888 -0.277839 0.777468 -0.564224
75.8865 126.427 197.719 -0.277839 0.777468 -0.564224
76.9013 126.186 196.888 -0.0171283 0.954661 -0.297201
75.9297 126.168 196.887 -0.0171283 0.954661 -0.297201
75.8865 126.427 197.719 -0.0171283 0.954661 -0.297201
76.9013 126.186 196.888 0.20614 0.790593 -0.576602
77.9134 126.206 197.278 0.20614 0.790593 -0.576602
77.7043 125.898 196.78 0.20614 0.790593 -0.576602
76.9013 126.186 196.888 0.227225 0.743518 -0.628928
77.0469 126.821 197.691 0.227225 0.743518 -0.628928
77.9134 126.206 197.278 0.227225 0.743518 -0.628928
77.0469 126.821 197.691 -0.109322 0.444203 -0.889231
77.8463 126.966 197.665 -0.109322 0.444203 -0.889231
77.9134 126.206 197.278 -0.109322 0.444203 -0.889231
78.3373 126.943 198.055 0.793222 0.162826 -0.58676
78.5553 125.955 198.076 0.793222 0.162826 -0.58676
77.9134 126.206 197.278 0.793222 0.162826 -0.58676
77.8463 126.966 197.665 0.578481 0.410785 -0.704709
78.3373 126.943 198.055 0.578481 0.410785 -0.704709
77.9134 126.206 197.278 0.578481 0.410785 -0.704709
77.0469 126.821 197.691 -0.353895 0.732074 -0.582088
76.5733 127.005 198.211 -0.353895 0.732074 -0.582088
77.2055 127.159 198.02 -0.353895 0.732074 -0.582088
77.8463 126.966 197.665 -0.153121 0.724873 -0.67165
77.0469 126.821 197.691 -0.153121 0.724873 -0.67165
77.2055 127.159 198.02 -0.153121 0.724873 -0.67165
77.9268 127.326 198.204 -0.0529981 0.833612 -0.549802
77.8463 126.966 197.665 -0.0529981 0.833612 -0.549802
77.2055 127.159 198.02 -0.0529981 0.833612 -0.549802
78.3373 126.943 198.055 0.461063 0.704131 -0.540019
77.8463 126.966 197.665 0.461063 0.704131 -0.540019
77.9268 127.326 198.204 0.461063 0.704131 -0.540019
75.0154 123.879 197.743 -0.555681 -0.818433 0.146242
74.737 124.175 198.344 -0.555681 -0.818433 0.146242
74.527 124.199 197.678 -0.555681 -0.818433 0.146242
74.737 124.175 198.344 0.0982535 -0.873731 0.476383
75.0154 123.879 197.743 0.0982535 -0.873731 0.476383
75.8152 124.048 197.888 0.0982535 -0.873731 0.476383
74.1659 124.963 197.97 -0.930377 -0.336168 -0.14625
74.1331 124.664 198.867 -0.930377 -0.336168 -0.14625
73.9796 125.142 198.744 -0.930377 -0.336168 -0.14625
74.737 124.175 198.344 -0.219381 -0.826335 0.518693
75.0676 124.421 198.876 -0.219381 -0.826335 0.518693
74.1331 124.664 198.867 -0.219381 -0.826335 0.518693
74.737 124.175 198.344 -0.727858 -0.642026 -0.240885
74.1331 124.664 198.867 -0.727858 -0.642026 -0.240885
74.1659 124.963 197.97 -0.727858 -0.642026 -0.240885
74.737 124.175 198.344 -0.836531 -0.489328 0.246525
74.1659 124.963 197.97 -0.836531 -0.489328 0.246525
74.527 124.199 197.678 -0.836531 -0.489328 0.246525
75.8152 124.048 197.888 0.0563152 -0.919072 0.390045
75.0676 124.421 198.876 0.0563152 -0.919072 0.390045
74.737 124.175 198.344 0.0563152 -0.919072 0.390045
76.1244 124.577 198.704 0.203837 -0.854734 0.477368
75.0676 124.421 198.876 0.203837 -0.854734 0.477368
75.8152 124.048 197.888 0.203837 -0.854734 0.477368
77.0107 124.89 198.665 0.278884 -0.708503 0.648265
76.6989 125.086 199.013 0.278884 -0.708503 0.648265
76.1244 124.577 198.704 0.278884 -0.708503 0.648265
77.0908 124.335 197.535 0.316605 -0.842247 0.436328
77.0107 124.89 198.665 0.316605 -0.842247 0.436328
76.1244 124.577 198.704 0.316605 -0.842247 0.436328
77.0908 124.335 197.535 0.310182 -0.846866 0.431978
76.1244 124.577 198.704 0.310182 -0.846866 0.431978
75.8152 124.048 197.888 0.310182 -0.846866 0.431978
77.0908 124.335 197.535 0.284788 -0.848182 0.446634
77.9507 124.746 197.768 0.284788 -0.848182 0.446634
77.9911 125.134 198.478 0.284788 -0.848182 0.446634
77.0107 124.89 198.665 0.294561 -0.849242 0.438203
77.0908 124.335 197.535 0.294561 -0.849242 0.438203
77.9911 125.134 198.478 0.294561 -0.849242 0.438203
77.9507 124.746 197.768 0.65625 -0.677414 0.332335
78.3018 125.129 197.855 0.65625 -0.677414 0.332335
77.9911 125.134 198.478 0.65625 -0.677414 0.332335
74.1659 124.963 197.97 -0.728664 0.607447 -0.316318
73.9796 125.142 198.744 -0.728664 0.607447 -0.316318
74.8261 125.83 198.114 -0.728664 0.607447 -0.316318
74.8261 125.83 198.114 -0.588371 0.803917 0.0868096
73.9796 125.142 198.744 -0.588371 0.803917 0.0868096
74.6056 125.58 198.937 -0.588371 0.803917 0.0868096
75.137 125.912 198.987 -0.534071 0.838024 0.111731
74.8261 125.83 198.114 -0.534071 0.838024 0.111731
74.6056 125.58 198.937 -0.534071 0.838024 0.111731
77.0107 124.89 198.665 0.213475 -0.757327 0.617158
77.2828 125.321 199.099 0.213475 -0.757327 0.617158
76.6989 125.086 199.013 0.213475 -0.757327 0.617158
77.9911 125.134 198.478 0.298799 -0.764644 0.570998
77.2828 125.321 199.099 0.298799 -0.764644 0.570998
77.0107 124.89 198.665 0.298799 -0.764644 0.570998
77.9911 125.134 198.478 0.831446 -0.366747 0.417366
78.3018 125.129 197.855 0.831446 -0.366747 0.417366
78.5553 125.955 198.076 0.831446 -0.366747 0.417366
77.9911 125.134 198.478 0.699952 -0.638001 -0.320972
78.5553 125.955 198.076 0.699952 -0.638001 -0.320972
78.8235 125.823 198.923 0.699952 -0.638001 -0.320972
79.0514 126.142 198.872 0.743463 -0.583763 -0.32632
78.8235 125.823 198.923 0.743463 -0.583763 -0.32632
78.5553 125.955 198.076 0.743463 -0.583763 -0.32632
74.8261 125.83 198.114 -0.588297 0.797321 0.134852
75.137 125.912 198.987 -0.588297 0.797321 0.134852
75.8356 126.468 198.744 -0.588297 0.797321 0.134852
75.8865 126.427 197.719 -0.506406 0.860189 -0.0602367
74.8261 125.83 198.114 -0.506406 0.860189 -0.0602367
75.8356 126.468 198.744 -0.506406 0.860189 -0.0602367
75.8356 126.468 198.744 -0.616321 0.784999 -0.0626421
76.5733 127.005 198.211 -0.616321 0.784999 -0.0626421
75.8865 126.427 197.719 -0.616321 0.784999 -0.0626421
76.5552 127.016 199.168 -0.597702 0.801462 -0.0202787
76.5733 127.005 198.211 -0.597702 0.801462 -0.0202787
75.8356 126.468 198.744 -0.597702 0.801462 -0.0202787
79.0514 126.142 198.872 0.792 0.257303 -0.553653
78.5553 125.955 198.076 0.792 0.257303 -0.553653
78.9333 126.801 199.01 0.792 0.257303 -0.553653
78.5553 125.955 198.076 0.846503 0.176316 -0.50234
78.3373 126.943 198.055 0.846503 0.176316 -0.50234
78.9333 126.801 199.01 0.846503 0.176316 -0.50234
76.5733 127.005 198.211 -0.684715 0.728505 -0.0211047
76.5552 127.016 199.168 -0.684715 0.728505 -0.0211047
77.1658 127.579 198.816 -0.684715 0.728505 -0.0211047
77.2055 127.159 198.02 -0.337479 0.82531 -0.452738
76.5733 127.005 198.211 -0.337479 0.82531 -0.452738
77.1658 127.579 198.816 -0.337479 0.82531 -0.452738
77.9449 127.913 198.869 -0.32359 0.828641 -0.456775
77.1658 127.579 198.816 -0.32359 0.828641 -0.456775
77.6178 127.994 199.248 -0.32359 0.828641 -0.456775
77.9449 127.913 198.869 -0.267777 0.726109 -0.633295
77.9268 127.326 198.204 -0.267777 0.726109 -0.633295
77.1658 127.579 198.816 -0.267777 0.726109 -0.633295
77.9268 127.326 198.204 -0.084345 0.879341 -0.468663
77.2055 127.159 198.02 -0.084345 0.879341 -0.468663
77.1658 127.579 198.816 -0.084345 0.879341 -0.468663
77.9268 127.326 198.204 0.351374 0.697298 -0.62475
77.9449 127.913 198.869 0.351374 0.697298 -0.62475
78.446 127.717 198.932 0.351374 0.697298 -0.62475
77.9268 127.326 198.204 0.390585 0.665739 -0.635795
78.446 127.717 198.932 0.390585 0.665739 -0.635795
78.3373 126.943 198.055 0.390585 0.665739 -0.635795
78.3373 126.943 198.055 0.805726 0.390994 -0.444892
78.446 127.717 198.932 0.805726 0.390994 -0.444892
78.9333 126.801 199.01 0.805726 0.390994 -0.444892
77.9449 127.913 198.869 -0.123051 0.943265 -0.308398
77.6178 127.994 199.248 -0.123051 0.943265 -0.308398
78.1612 128.052 199.21 -0.123051 0.943265 -0.308398
78.446 127.717 198.932 0.364503 0.757459 -0.541659
77.9449 127.913 198.869 0.364503 0.757459 -0.541659
78.1612 128.052 199.21 0.364503 0.757459 -0.541659
74.1331 124.664 198.867 -0.94563 -0.249433 0.208726
74.0885 125.074 199.155 -0.94563 -0.249433 0.208726
73.9796 125.142 198.744 -0.94563 -0.249433 0.208726
74.1331 124.664 198.867 -0.160629 -0.59086 0.790622
75.0676 124.421 198.876 -0.160629 -0.59086 0.790622
74.8785 125.156 199.386 -0.160629 -0.59086 0.790622
74.0885 125.074 199.155 -0.172954 -0.578812 0.796909
74.1331 124.664 198.867 -0.172954 -0.578812 0.796909
74.8785 125.156 199.386 -0.172954 -0.578812 0.796909
75.0676 124.421 198.876 0.214081 -0.698865 0.682464
76.1244 124.577 198.704 0.214081 -0.698865 0.682464
75.9057 125.105 199.314 0.214081 -0.698865 0.682464
74.8785 125.156 199.386 0.0307008 -0.565121 0.824436
75.0676 124.421 198.876 0.0307008 -0.565121 0.824436
75.9057 125.105 199.314 0.0307008 -0.565121 0.824436
76.1244 124.577 198.704 0.24221 -0.68851 0.683585
76.6989 125.086 199.013 0.24221 -0.68851 0.683585
75.9057 125.105 199.314 0.24221 -0.68851 0.683585
74.6056 125.58 198.937 -0.606421 0.742566 0.284341
73.9796 125.142 198.744 -0.606421 0.742566 0.284341
74.0885 125.074 199.155 -0.606421 0.742566 0.284341
74.8785 125.156 199.386 -0.280197 0.607415 0.743328
74.6056 125.58 198.937 -0.280197 0.607415 0.743328
74.0885 125.074 199.155 -0.280197 0.607415 0.743328
75.137 125.912 198.987 -0.402451 0.531155 0.745592
74.6056 125.58 198.937 -0.402451 0.531155 0.745592
74.8785 125.156 199.386 -0.402451 0.531155 0.745592
75.137 125.912 198.987 -0.516832 0.531107 0.671424
74.8785 125.156 199.386 -0.516832 0.531107 0.671424
75.9734 126.052 199.52 -0.516832 0.531107 0.671424
75.9734 126.052 199.52 0.0583557 -0.216836 0.974462
74.8785 125.156 199.386 0.0583557 -0.216836 0.974462
75.9057 125.105 199.314 0.0583557 -0.216836 0.974462
76.6989 125.086 199.013 0.0222323 -0.393152 0.919205
77.2828 125.321 199.099 0.0222323 -0.393152 0.919205
76.8543 125.831 199.328 0.0222323 -0.393152 0.919205
76.6989 125.086 199.013 0.311859 -0.424334 0.850108
76.8543 125.831 199.328 0.311859 -0.424334 0.850108
75.9057 125.105 199.314 0.311859 -0.424334 0.850108
75.9057 125.105 199.314 0.154714 -0.221205 0.962877
76.8543 125.831 199.328 0.154714 -0.221205 0.962877
75.9734 126.052 199.52 0.154714 -0.221205 0.962877
77.6884 126.017 199.769 -0.278071 -0.577315 0.767713
76.8543 125.831 199.328 -0.278071 -0.577315 0.767713
77.2828 125.321 199.099 -0.278071 -0.577315 0.767713
77.6884 126.017 199.769 -0.0645703 -0.672453 0.737318
77.2828 125.321 199.099 -0.0645703 -0.672453 0.737318
78.2076 125.803 199.62 -0.0645703 -0.672453 0.737318
78.2076 125.803 199.62 0.18492 -0.862708 0.470679
77.2828 125.321 199.099 0.18492 -0.862708 0.470679
77.9911 125.134 198.478 0.18492 -0.862708 0.470679
78.9556 126.12 199.316 0.499001 -0.731781 0.464214
78.7512 126.302 199.821 0.499001 -0.731781 0.464214
78.2076 125.803 199.62 0.499001 -0.731781 0.464214
78.9556 126.12 199.316 0.492651 -0.766009 0.412946
78.2076 125.803 199.62 0.492651 -0.766009 0.412946
78.8235 125.823 198.923 0.492651 -0.766009 0.412946
78.8235 125.823 198.923 0.459552 -0.801462 0.382715
78.2076 125.803 199.62 0.459552 -0.801462 0.382715
77.9911 125.134 198.478 0.459552 -0.801462 0.382715
78.8235 125.823 198.923 0.815053 -0.559881 0.149068
79.0514 126.142 198.872 0.815053 -0.559881 0.149068
78.9556 126.12 199.316 0.815053 -0.559881 0.149068
75.137 125.912 198.987 -0.435726 0.758724 0.484232
75.9734 126.052 199.52 -0.435726 0.758724 0.484232
75.8356 126.468 198.744 -0.435726 0.758724 0.484232
77.0352 126.705 199.826 0.0617801 -0.504002 0.86149
75.9734 126.052 199.52 0.0617801 -0.504002 0.86149
76.8543 125.831 199.328 0.0617801 -0.504002 0.86149
77.0352 126.705 199.826 -0.526701 0.553472 0.645178
76.5552 127.016 199.168 -0.526701 0.553472 0.645178
75.9734 126.052 199.52 -0.526701 0.553472 0.645178
77.0352 126.705 199.826 -0.832128 -0.162916 0.530115
76.9492 127.135 199.823 -0.832128 -0.162916 0.530115
76.5552 127.016 199.168 -0.832128 -0.162916 0.530115
75.8356 126.468 198.744 -0.693496 0.576404 0.432229
75.9734 126.052 199.52 -0.693496 0.576404 0.432229
76.5552 127.016 199.168 -0.693496 0.576404 0.432229
77.6884 126.017 199.769 -0.355277 -0.40645 0.84177
77.0352 126.705 199.826 -0.355277 -0.40645 0.84177
76.8543 125.831 199.328 -0.355277 -0.40645 0.84177
79.0505 126.726 199.754 0.987888 0.00577775 -0.155062
78.9333 126.801 199.01 0.987888 0.00577775 -0.155062
79.0008 127.202 199.455 0.987888 0.00577775 -0.155062
79.0505 126.726 199.754 0.78953 -0.585681 -0.183358
78.7512 126.302 199.821 0.78953 -0.585681 -0.183358
78.9333 126.801 199.01 0.78953 -0.585681 -0.183358
78.9556 126.12 199.316 0.933148 0.172455 0.315425
78.9333 126.801 199.01 0.933148 0.172455 0.315425
78.7512 126.302 199.821 0.933148 0.172455 0.315425
78.9333 126.801 199.01 0.968097 0.128492 0.215123
78.9556 126.12 199.316 0.968097 0.128492 0.215123
79.0514 126.142 198.872 0.968097 0.128492 0.215123
79.0008 127.202 199.455 0.914382 0.279311 0.293073
78.8707 126.969 200.083 0.914382 0.279311 0.293073
79.0505 126.726 199.754 0.914382 0.279311 0.293073
76.5552 127.016 199.168 -0.822135 0.378284 0.425435
76.9492 127.135 199.823 -0.822135 0.378284 0.425435
77.0846 127.581 199.689 -0.822135 0.378284 0.425435
77.1658 127.579 198.816 -0.697039 0.714018 -0.0656845
76.5552 127.016 199.168 -0.697039 0.714018 -0.0656845
77.0846 127.581 199.689 -0.697039 0.714018 -0.0656845
77.0846 127.581 199.689 -0.642656 0.763747 -0.0606907
77.6178 127.994 199.248 -0.642656 0.763747 -0.0606907
77.1658 127.579 198.816 -0.642656 0.763747 -0.0606907
77.493 127.91 199.92 -0.621655 0.783104 -0.0171352
77.6178 127.994 199.248 -0.621655 0.783104 -0.0171352
77.0846 127.581 199.689 -0.621655 0.783104 -0.0171352
79.0008 127.202 199.455 0.779441 0.564353 -0.271988
78.446 127.717 198.932 0.779441 0.564353 -0.271988
78.7052 127.809 199.866 0.779441 0.564353 -0.271988
78.9333 126.801 199.01 0.79639 0.384131 -0.467125
78.446 127.717 198.932 0.79639 0.384131 -0.467125
79.0008 127.202 199.455 0.79639 0.384131 -0.467125
78.7052 127.809 199.866 0.923246 0.256188 0.28633
78.8707 126.969 200.083 0.923246 0.256188 0.28633
79.0008 127.202 199.455 0.923246 0.256188 0.28633
77.6178 127.994 199.248 -0.271478 0.959888 0.0701008
77.493 127.91 199.92 -0.271478 0.959888 0.0701008
78.0489 128.074 199.823 -0.271478 0.959888 0.0701008
78.1612 128.052 199.21 -0.110371 0.99235 -0.0553058
77.6178 127.994 199.248 -0.110371 0.99235 -0.0553058
78.0489 128.074 199.823 -0.110371 0.99235 -0.0553058
78.7052 127.809 199.866 0.6284 0.737583 -0.247153
78.446 127.717 198.932 0.6284 0.737583 -0.247153
78.1612 128.052 199.21 0.6284 0.737583 -0.247153
78.7052 127.809 199.866 0.372681 0.927282 0.0354451
78.1612 128.052 199.21 0.372681 0.927282 0.0354451
78.0489 128.074 199.823 0.372681 0.927282 0.0354451
78.2076 125.803 199.62 -0.063295 -0.670604 0.73911
78.0515 126.392 200.141 -0.063295 -0.670604 0.73911
77.6884 126.017 199.769 -0.063295 -0.670604 0.73911
78.2076 125.803 199.62 0.267974 -0.597486 0.755778
78.7512 126.302 199.821 0.267974 -0.597486 0.755778
78.0515 126.392 200.141 0.267974 -0.597486 0.755778
77.0352 126.705 199.826 -0.544512 -0.103348 0.832361
77.336 127.206 200.085 -0.544512 -0.103348 0.832361
76.9492 127.135 199.823 -0.544512 -0.103348 0.832361
77.0352 126.705 199.826 -0.385883 -0.433228 0.814498
77.6884 126.017 199.769 -0.385883 -0.433228 0.814498
78.0515 126.392 200.141 -0.385883 -0.433228 0.814498
77.0352 126.705 199.826 -0.356285 -0.251286 0.899954
78.0515 126.392 200.141 -0.356285 -0.251286 0.899954
77.336 127.206 200.085 -0.356285 -0.251286 0.899954
77.336 127.206 200.085 -0.348566 -0.244161 0.904924
78.0515 126.392 200.141 -0.348566 -0.244161 0.904924
78.1885 127.197 200.411 -0.348566 -0.244161 0.904924
78.7512 126.302 199.821 0.671965 -0.371211 0.640832
79.0505 126.726 199.754 0.671965 -0.371211 0.640832
78.8707 126.969 200.083 0.671965 -0.371211 0.640832
78.7512 126.302 199.821 0.33896 -0.395084 0.853824
78.8707 126.969 200.083 0.33896 -0.395084 0.853824
78.0515 126.392 200.141 0.33896 -0.395084 0.853824
78.0515 126.392 200.141 0.308904 -0.349321 0.88462
78.8707 126.969 200.083 0.308904 -0.349321 0.88462
78.1885 127.197 200.411 0.308904 -0.349321 0.88462
76.9492 127.135 199.823 -0.564243 0.390866 0.727223
77.336 127.206 200.085 -0.564243 0.390866 0.727223
77.0846 127.581 199.689 -0.564243 0.390866 0.727223
77.493 127.91 199.92 -0.644138 0.308379 0.699992
77.0846 127.581 199.689 -0.644138 0.308379 0.699992
77.336 127.206 200.085 -0.644138 0.308379 0.699992
77.493 127.91 199.92 -0.540558 0.305009 0.784071
77.336 127.206 200.085 -0.540558 0.305009 0.784071
78.0067 127.84 200.301 -0.540558 0.305009 0.784071
78.0067 127.84 200.301 -0.355817 0.0588369 0.932702
77.336 127.206 200.085 -0.355817 0.0588369 0.932702
78.1885 127.197 200.411 -0.355817 0.0588369 0.932702
78.8707 126.969 200.083 0.493799 0.307989 0.813207
78.7052 127.809 199.866 0.493799 0.307989 0.813207
78.1885 127.197 200.411 0.493799 0.307989 0.813207
78.7052 127.809 199.866 0.516483 0.284029 0.80782
78.0067 127.84 200.301 0.516483 0.284029 0.80782
78.1885 127.197 200.411 0.516483 0.284029 0.80782
77.493 127.91 199.92 -0.189644 0.888483 0.41789
78.0067 127.84 200.301 -0.189644 0.888483 0.41789
78.0489 128.074 199.823 -0.189644 0.888483 0.41789
78.7052 127.809 199.866 0.31197 0.842302 0.439547
78.0489 128.074 199.823 0.31197 0.842302 0.439547
78.0067 127.84 200.301 0.31197 0.842302 0.439547
3 0 1 2
3 3 4 5
3 6 7 8
3 9 10 11
3 12 13 14
3 15 16 17
3 18 19 20
3 21 22 23
3 24 25 26
3 27 28 29
3 30 31 32
3 33 34 35
3 36 37 38
3 39 40 41
3 42 43 44
3 45 46 47
3 48 49 50
3 51 52 53
3 54 55 56
3 57 58 59
3 60 61 62
3 63 64 65
3 66 67 68
3 69 70 71
3 72 73 74
3 75 76 77
3 78 79 80
3 81 82 83
3 84 85 86
3 87 88 89
3 90 91 92
3 93 94 95
3 96 97 98
3 99 100 101
3 102 103 104
3 105 106 107
3 108 109 110
3 111 112 113
3 114 115 116
3 117 118 119
3 120 121 122
3 123 124 125
3 126 127 128
3 129 130 131
3 132 133 134
3 135 136 137
3 138 139 140
3 141 142 143
3 144 145 146
3 147 148 149
3 150 151 152
3 153 154 155
3 156 157 158
3 159 160 161
3 162 163 164
3 165 166 167
3 168 169 170
3 171 172 173
3 174 175 176
3 177 178 179
3 180 181 182
3 183 184 185
3 186 187 188
3 189 190 191
3 192 193 194
3 195 196 197
3 198 199 200
3 201 202 203
3 204 205 206
3 207 208 209
3 210 211 212
3 213 214 215
3 216 217 218
3 219 220 221
3 222 223 224
3 225 226 227
3 228 229 230
3 231 232 233
3 234 235 236
3 237 238 239
3 240 241 242
3 243 244 245
3 246 247 248
3 249 250 251
3 252 253 254
3 255 256 257
3 258 259 260
3 261 262 263
3 264 265 266
3 267 268 269
3 270 271 272
3 273 274 275
3 276 277 278
3 279 280 281
3 282 283 284
3 285 286 287
3 288 289 290
3 291 292 293
3 294 295 296
3 297 298 299
3 300 301 302
3 303 304 305
3 306 307 308
3 309 310 311
3 312 313 314
3 315 316 317
3 318 319 320
3 321 322 323
3 324 325 326
3 327 328 329
3 330 331 332
3 333 334 335
3 336 337 338
3 339 340 341
3 342 343 344
3 345 346 347
3 348 349 350
3 351 352 353
3 354 355 356
3 357 358 359
3 360 361 362
3 363 364 365
3 366 367 368
3 369 370 371
3 372 373 374
3 375 376 377
3 378 379 380
3 381 382 383
3 384 385 386
3 387 388 389
3 390 391 392
3 393 394 395
3 396 397 398
3 399 400 401
3 402 403 404
3 405 406 407
3 408 409 410
3 411 412 413
3 414 415 416
3 417 418 419
3 420 421 422
3 423 424 425
3 426 427 428
3 429 430 431
3 432 433 434
3 435 436 437
3 438 439 440
3 441 442 443
3 444 445 446
3 447 448 449
3 450 451 452
3 453 454 455
3 456 457 458
3 459 460 461
3 462 463 464
3 465 466 467
3 468 469 470
3 471 472 473
3 474 475 476
3 477 478 479
3 480 481 482
3 483 484 485
3 486 487 488
3 489 490 491
3 492 493 494
3 495 496 497
3 498 499 500
3 501 502 503
3 504 505 506
3 507 508 509
3 510 511 512
3 513 514 515
3 516 517 518
3 519 520 521
3 522 523 524
3 525 526 527
3 528 529 530
3 531 532 533
3 534 535 536
3 537 538 539
3 540 541 542
3 543 544 545
3 546 547 548
3 549 550 551
