ply
format ascii 1.0
element vertex 804
property float x
property float y
property float z
property float nx
property float ny
property float nz
element face 268
property list uint uint vertex_indices
end_header
120.044 177.691 157.652 -0.0144452 -0.422338 -0.906323
119.871 178.047 157.489 -0.0144452 -0.422338 -0.906323
120.433 178.001 157.501 -0.0144452 -0.422338 -0.906323
121.024 178.715 157.351 -0.441784 -0.0160625 -0.896978
120.784 179.305 157.459 -0.441784 -0.0160625 -0.896978
121.137 179.346 157.284 -0.441784 -0.0160625 -0.896978
120.433 178.001 157.501 0.0610608 0.514493 -0.855318
119.871 178.047 157.489 0.0610608 0.514493 -0.855318
119.882 178.25 157.612 0.0610608 0.514493 -0.855318
121.024 178.715 157.351 0.453188 -0.173885 -0.874291
121.137 179.346 157.284 0.453188 -0.173885 -0.874291
121.289 179.11 157.41 0.453188 -0.173885 -0.874291
121.145 180.182 157.365 -0.449918 0.0903413 -0.888488
121.137 179.346 157.284 -0.449918 0.0903413 -0.888488
120.784 179.305 157.459 -0.449918 0.0903413 -0.888488
120.771 180.179 157.548 -0.437824 0.0846662 -0.895065
121.145 180.182 157.365 -0.437824 0.0846662 -0.895065
120.784 179.305 157.459 -0.437824 0.0846662 -0.895065
121.814 180.073 157.377 0.375867 -0.235616 -0.89622
121.289 179.11 157.41 0.375867 -0.235616 -0.89622
121.137 179.346 157.284 0.375867 -0.235616 -0.89622
121.814 180.073 157.377 0.0334447 0.0957576 -0.994843
121.137 179.346 157.284 0.0334447 0.0957576 -0.994843
121.145 180.182 157.365 0.0334447 0.0957576 -0.994843
121.145 180.182 157.365 0.042999 0.154845 -0.987003
121.74 180.987 157.517 0.042999 0.154845 -0.987003
121.814 180.073 157.377 0.042999 0.154845 -0.987003
122.093 180.867 157.586 0.683443 -0.0485475 -0.728387
122.13 180.035 157.676 0.683443 -0.0485475 -0.728387
121.814 180.073 157.377 0.683443 -0.0485475 -0.728387
121.74 180.987 157.517 0.242763 0.16613 -0.955755
122.093 180.867 157.586 0.242763 0.16613 -0.955755
121.814 180.073 157.377 0.242763 0.16613 -0.955755
122.093 180.867 157.586 0.323675 0.485258 -0.812256
121.74 180.987 157.517 0.323675 0.485258 -0.812256
121.955 181.216 157.74 0.323675 0.485258 -0.812256
119.817 176.371 158.344 -0.24173 -0.319023 -0.916401
119.522 176.011 158.547 -0.24173 -0.319023 -0.916401
118.942 176.097 158.67 -0.24173 -0.319023 -0.916401
119.817 176.371 158.344 -0.183904 -0.451825 -0.872945
118.942 176.097 158.67 -0.183904 -0.451825 -0.872945
119.666 177.069 158.014 -0.183904 -0.451825 -0.872945
119.666 177.069 158.014 -0.427681 -0.264488 -0.86437
118.942 176.097 158.67 -0.427681 -0.264488 -0.86437
118.718 177.249 158.428 -0.427681 -0.264488 -0.86437
119.817 176.371 158.344 0.181391 -0.387313 -0.903928
119.666 177.069 158.014 0.181391 -0.387313 -0.903928
120.526 176.992 158.22 0.181391 -0.387313 -0.903928
118.618 177.977 158.434 -0.614103 -0.0784613 -0.785316
119.17 177.934 158.006 -0.614103 -0.0784613 -0.785316
118.718 177.249 158.428 -0.614103 -0.0784613 -0.785316
120.044 177.691 157.652 -0.440943 -0.542382 -0.715116
119.17 177.934 158.006 -0.440943 -0.542382 -0.715116
119.871 178.047 157.489 -0.440943 -0.542382 -0.715116
120.044 177.691 157.652 -0.42298 -0.250472 -0.870834
119.666 177.069 158.014 -0.42298 -0.250472 -0.870834
119.17 177.934 158.006 -0.42298 -0.250472 -0.870834
119.666 177.069 158.014 -0.427109 -0.252811 -0.868138
118.718 177.249 158.428 -0.427109 -0.252811 -0.868138
119.17 177.934 158.006 -0.427109 -0.252811 -0.868138
120.433 178.001 157.501 0.435812 -0.438507 -0.78599
121.009 178.339 157.633 0.435812 -0.438507 -0.78599
120.897 177.446 158.069 0.435812 -0.438507 -0.78599
120.044 177.691 157.652 0.195576 -0.616181 -0.762936
120.433 178.001 157.501 0.195576 -0.616181 -0.762936
120.897 177.446 158.069 0.195576 -0.616181 -0.762936
120.044 177.691 157.652 0.263874 -0.491866 -0.829722
120.897 177.446 158.069 0.263874 -0.491866 -0.829722
120.526 176.992 158.22 0.263874 -0.491866 -0.829722
120.044 177.691 157.652 0.144332 -0.561876 -0.814533
120.526 176.992 158.22 0.144332 -0.561876 -0.814533
119.666 177.069 158.014 0.144332 -0.561876 -0.814533
121.009 178.339 157.633 0.611363 -0.196415 -0.766587
121.981 178.14 158.458 0.611363 -0.196415 -0.766587
121.654 177.693 158.312 0.611363 -0.196415 -0.766587
120.897 177.446 158.069 0.402283 -0.442003 -0.801749
121.009 178.339 157.633 0.402283 -0.442003 -0.801749
121.654 177.693 158.312 0.402283 -0.442003 -0.801749
119.17 177.934 158.006 -0.553025 0.362397 -0.750221
118.618 177.977 158.434 -0.553025 0.362397 -0.750221
118.902 178.454 158.455 -0.553025 0.362397 -0.750221
119.981 179.021 157.953 -0.547793 0.382779 -0.743911
118.902 178.454 158.455 -0.547793 0.382779 -0.743911
119.528 179.431 158.497 -0.547793 0.382779 -0.743911
119.882 178.25 157.612 -0.550514 0.395819 -0.735025
118.902 178.454 158.455 -0.550514 0.395819 -0.735025
119.981 179.021 157.953 -0.550514 0.395819 -0.735025
119.882 178.25 157.612 -0.568435 0.349673 -0.744722
119.17 177.934 158.006 -0.568435 0.349673 -0.744722
118.902 178.454 158.455 -0.568435 0.349673 -0.744722
119.882 178.25 157.612 -0.577453 0.445584 -0.684108
119.871 178.047 157.489 -0.577453 0.445584 -0.684108
119.17 177.934 158.006 -0.577453 0.445584 -0.684108
119.882 178.25 157.612 -0.0128652 0.381594 -0.92424
121.009 178.339 157.633 -0.0128652 0.381594 -0.92424
120.433 178.001 157.501 -0.0128652 0.381594 -0.92424
119.882 178.25 157.612 -0.0149658 0.4059 -0.913795
119.981 179.021 157.953 -0.0149658 0.4059 -0.913795
121.009 178.339 157.633 -0.0149658 0.4059 -0.913795
121.024 178.715 157.351 -0.86628 -0.276486 -0.41607
121.009 178.339 157.633 -0.86628 -0.276486 -0.41607
120.784 179.305 157.459 -0.86628 -0.276486 -0.41607
120.784 179.305 157.459 -0.438615 -0.257129 -0.861105
121.009 178.339 157.633 -0.438615 -0.257129 -0.861105
119.981 179.021 157.953 -0.438615 -0.257129 -0.861105
121.289 179.11 157.41 0.741577 -0.420348 -0.522849
121.009 178.339 157.633 0.741577 -0.420348 -0.522849
121.024 178.715 157.351 0.741577 -0.420348 -0.522849
121.289 179.11 157.41 0.599099 -0.415224 -0.684594
121.889 179.158 157.906 0.599099 -0.415224 -0.684594
121.009 178.339 157.633 0.599099 -0.415224 -0.684594
121.889 179.158 157.906 0.562255 -0.354836 -0.746968
121.981 178.14 158.458 0.562255 -0.354836 -0.746968
121.009 178.339 157.633 0.562255 -0.354836 -0.746968
121.889 179.158 157.906 0.837441 -0.200461 -0.508437
122.206 179.186 158.417 0.837441 -0.200461 -0.508437
121.981 178.14 158.458 0.837441 -0.200461 -0.508437
120.116 180.1 158.035 -0.705828 0.141893 -0.694027
119.981 179.021 157.953 -0.705828 0.141893 -0.694027
119.528 179.431 158.497 -0.705828 0.141893 -0.694027
119.73 180.323 158.459 -0.698762 0.129072 -0.703613
120.116 180.1 158.035 -0.698762 0.129072 -0.703613
119.528 179.431 158.497 -0.698762 0.129072 -0.703613
120.784 179.305 157.459 -0.60115 0.072075 -0.795879
120.116 180.1 158.035 -0.60115 0.072075 -0.795879
120.771 180.179 157.548 -0.60115 0.072075 -0.795879
119.981 179.021 157.953 -0.552507 0.132547 -0.822902
120.116 180.1 158.035 -0.552507 0.132547 -0.822902
120.784 179.305 157.459 -0.552507 0.132547 -0.822902
121.289 179.11 157.41 0.611833 -0.357613 -0.705531
121.814 180.073 157.377 0.611833 -0.357613 -0.705531
121.889 179.158 157.906 0.611833 -0.357613 -0.705531
121.889 179.158 157.906 0.619993 -0.353901 -0.700259
121.814 180.073 157.377 0.619993 -0.353901 -0.700259
122.13 180.035 157.676 0.619993 -0.353901 -0.700259
121.889 179.158 157.906 0.805353 -0.347234 -0.480454
122.13 180.035 157.676 0.805353 -0.347234 -0.480454
122.206 179.186 158.417 0.805353 -0.347234 -0.480454
122.206 179.186 158.417 0.987756 -0.042392 -0.150133
122.13 180.035 157.676 0.987756 -0.042392 -0.150133
122.24 180.185 158.36 0.987756 -0.042392 -0.150133
120.03 180.957 158.262 -0.704098 0.114502 -0.700811
120.116 180.1 158.035 -0.704098 0.114502 -0.700811
119.73 180.323 158.459 -0.704098 0.114502 -0.700811
119.802 181.036 158.676 -0.83138 0.23643 -0.5029
120.03 180.957 158.262 -0.83138 0.23643 -0.5029
119.73 180.323 158.459 -0.83138 0.23643 -0.5029
120.771 180.179 157.548 -0.387302 0.48437 -0.784463
120.827 180.945 157.993 -0.387302 0.48437 -0.784463
121.145 180.182 157.365 -0.387302 0.48437 -0.784463
120.771 180.179 157.548 -0.56893 0.443916 -0.692284
120.116 180.1 158.035 -0.56893 0.443916 -0.692284
120.827 180.945 157.993 -0.56893 0.443916 -0.692284
120.116 180.1 158.035 -0.309234 0.213756 -0.926651
120.03 180.957 158.262 -0.309234 0.213756 -0.926651
120.827 180.945 157.993 -0.309234 0.213756 -0.926651
121.145 180.182 157.365 -0.426409 0.462271 -0.777483
120.827 180.945 157.993 -0.426409 0.462271 -0.777483
121.74 180.987 157.517 -0.426409 0.462271 -0.777483
122.13 180.035 157.676 0.985992 0.025685 -0.164803
122.093 180.867 157.586 0.985992 0.025685 -0.164803
122.24 180.185 158.36 0.985992 0.025685 -0.164803
122.24 180.185 158.36 0.98995 0.0871092 -0.111408
122.093 180.867 157.586 0.98995 0.0871092 -0.111408
122.167 181.014 158.361 0.98995 0.0871092 -0.111408
120.03 180.957 158.262 -0.55139 0.709126 -0.439442
119.802 181.036 158.676 -0.55139 0.709126 -0.439442
120.238 181.284 158.529 -0.55139 0.709126 -0.439442
120.827 180.945 157.993 -0.219636 0.69712 -0.682484
120.03 180.957 158.262 -0.219636 0.69712 -0.682484
120.238 181.284 158.529 -0.219636 0.69712 -0.682484
121.234 181.314 158.353 -0.134439 0.763979 -0.63108
120.827 180.945 157.993 -0.134439 0.763979 -0.63108
120.238 181.284 158.529 -0.134439 0.763979 -0.63108
121.74 180.987 157.517 -0.297334 0.814381 -0.498374
120.827 180.945 157.993 -0.297334 0.814381 -0.498374
121.234 181.314 158.353 -0.297334 0.814381 -0.498374
121.74 180.987 157.517 -0.325286 0.797199 -0.508588
121.234 181.314 158.353 -0.325286 0.797199 -0.508588
121.955 181.216 157.74 -0.325286 0.797199 -0.508588
121.955 181.216 157.74 0.0588535 0.994327 -0.0885988
121.234 181.314 158.353 0.0588535 0.994327 -0.0885988
121.965 181.281 158.467 0.0588535 0.994327 -0.0885988
122.167 181.014 158.361 0.889834 0.424999 -0.166045
122.093 180.867 157.586 0.889834 0.424999 -0.166045
121.955 181.216 157.74 0.889834 0.424999 -0.166045
121.965 181.281 158.467 0.781511 0.620455 -0.0653898
122.167 181.014 158.361 0.781511 0.620455 -0.0653898
121.955 181.216 157.74 0.781511 0.620455 -0.0653898
118.757 175.215 159.63 -0.391877 -0.638786 -0.662107
117.962 175.861 159.478 -0.391877 -0.638786 -0.662107
118.942 176.097 158.67 -0.391877 -0.638786 -0.662107
119.522 176.011 158.547 0.273913 -0.730937 -0.625063
120.214 176.195 158.634 0.273913 -0.730937 -0.625063
119.793 175.566 159.186 0.273913 -0.730937 -0.625063
118.942 176.097 158.67 -0.229521 -0.841822 -0.488524
119.522 176.011 158.547 -0.229521 -0.841822 -0.488524
119.793 175.566 159.186 -0.229521 -0.841822 -0.488524
118.942 176.097 158.67 0.0232144 -0.677343 -0.735301
119.793 175.566 159.186 0.0232144 -0.677343 -0.735301
119.258 175.232 159.477 0.0232144 -0.677343 -0.735301
118.942 176.097 158.67 -0.186149 -0.705559 -0.683765
119.258 175.232 159.477 -0.186149 -0.705559 -0.683765
118.757 175.215 159.63 -0.186149 -0.705559 -0.683765
120.214 176.195 158.634 0.320655 -0.857048 -0.403299
121.131 176.355 159.024 0.320655 -0.857048 -0.403299
120.793 176.036 159.433 0.320655 -0.857048 -0.403299
119.793 175.566 159.186 0.467489 -0.738383 -0.486051
120.214 176.195 158.634 0.467489 -0.738383 -0.486051
120.793 176.036 159.433 0.467489 -0.738383 -0.486051
120.793 176.036 159.433 0.354629 -0.856587 -0.374829
121.131 176.355 159.024 0.354629 -0.856587 -0.374829
121.378 176.326 159.325 0.354629 -0.856587 -0.374829
117.957 176.854 159.153 -0.625133 -0.245824 -0.740796
117.962 175.861 159.478 -0.625133 -0.245824 -0.740796
117.667 176.172 159.623 -0.625133 -0.245824 -0.740796
117.662 177.042 159.596 -0.837004 -0.0219331 -0.546757
117.957 176.854 159.153 -0.837004 -0.0219331 -0.546757
117.667 176.172 159.623 -0.837004 -0.0219331 -0.546757
118.942 176.097 158.67 -0.584681 -0.273959 -0.763606
117.957 176.854 159.153 -0.584681 -0.273959 -0.763606
118.718 177.249 158.428 -0.584681 -0.273959 -0.763606
117.962 175.861 159.478 -0.577203 -0.256854 -0.775153
117.957 176.854 159.153 -0.577203 -0.256854 -0.775153
118.942 176.097 158.67 -0.577203 -0.256854 -0.775153
119.522 176.011 158.547 0.259895 -0.626917 -0.734458
119.817 176.371 158.344 0.259895 -0.626917 -0.734458
120.214 176.195 158.634 0.259895 -0.626917 -0.734458
120.526 176.992 158.22 0.33219 -0.534457 -0.777178
120.214 176.195 158.634 0.33219 -0.534457 -0.777178
119.817 176.371 158.344 0.33219 -0.534457 -0.777178
120.526 176.992 158.22 0.362714 -0.537973 -0.760936
121.059 176.99 158.475 0.362714 -0.537973 -0.760936
120.214 176.195 158.634 0.362714 -0.537973 -0.760936
121.059 176.99 158.475 0.403338 -0.571844 -0.714362
121.131 176.355 159.024 0.403338 -0.571844 -0.714362
120.214 176.195 158.634 0.403338 -0.571844 -0.714362
121.827 176.782 159.268 0.570596 -0.626747 -0.530667
121.378 176.326 159.325 0.570596 -0.626747 -0.530667
121.131 176.355 159.024 0.570596 -0.626747 -0.530667
121.827 176.782 159.268 0.563327 -0.584401 -0.584071
121.131 176.355 159.024 0.563327 -0.584401 -0.584071
121.827 177.156 158.894 0.563327 -0.584401 -0.584071
121.827 177.156 158.894 0.490273 -0.537514 -0.686084
121.131 176.355 159.024 0.490273 -0.537514 -0.686084
121.059 176.99 158.475 0.490273 -0.537514 -0.686084
121.827 176.782 159.268 0.877686 -0.339174 -0.338568
121.827 177.156 158.894 0.877686 -0.339174 -0.338568
122.046 177.385 159.231 0.877686 -0.339174 -0.338568
118.006 177.86 159.098 -0.830922 0.0101338 -0.556296
117.957 176.854 159.153 -0.830922 0.0101338 -0.556296
117.662 177.042 159.596 -0.830922 0.0101338 -0.556296
117.718 177.901 159.705 -0.894945 0.112873 -0.431663
118.006 177.86 159.098 -0.894945 0.112873 -0.431663
117.662 177.042 159.596 -0.894945 0.112873 -0.431663
118.718 177.249 158.428 -0.723741 -0.0942392 -0.683606
118.006 177.86 159.098 -0.723741 -0.0942392 -0.683606
118.618 177.977 158.434 -0.723741 -0.0942392 -0.683606
117.957 176.854 159.153 -0.687759 -0.00595808 -0.725915
118.006 177.86 159.098 -0.687759 -0.00595808 -0.725915
118.718 177.249 158.428 -0.687759 -0.00595808 -0.725915
120.526 176.992 158.22 0.360406 -0.546194 -0.756162
120.897 177.446 158.069 0.360406 -0.546194 -0.756162
121.059 176.99 158.475 0.360406 -0.546194 -0.756162
121.654 177.693 158.312 0.410826 -0.521157 -0.748076
121.059 176.99 158.475 0.410826 -0.521157 -0.748076
120.897 177.446 158.069 0.410826 -0.521157 -0.748076
121.827 177.156 158.894 0.485684 -0.565566 -0.666518
121.059 176.99 158.475 0.485684 -0.565566 -0.666518
121.654 177.693 158.312 0.485684 -0.565566 -0.666518
121.827 177.156 158.894 0.746195 -0.36336 -0.557819
121.654 177.693 158.312 0.746195 -0.36336 -0.557819
121.981 178.14 158.458 0.746195 -0.36336 -0.557819
121.827 177.156 158.894 0.880519 -0.299832 -0.367134
121.981 178.14 158.458 0.880519 -0.299832 -0.367134
122.046 177.385 159.231 0.880519 -0.299832 -0.367134
122.046 177.385 159.231 0.967829 -0.134341 -0.212745
121.981 178.14 158.458 0.967829 -0.134341 -0.212745
122.172 178.365 159.187 0.967829 -0.134341 -0.212745
118.006 177.86 159.098 -0.842915 0.334065 -0.421776
117.718 177.901 159.705 -0.842915 0.334065 -0.421776
118.066 178.4 159.404 -0.842915 0.334065 -0.421776
118.845 179.306 159.289 -0.73644 0.590078 -0.330854
118.066 178.4 159.404 -0.73644 0.590078 -0.330854
118.522 179.185 159.789 -0.73644 0.590078 -0.330854
118.902 178.454 158.455 -0.664274 0.499356 -0.556222
118.066 178.4 159.404 -0.664274 0.499356 -0.556222
118.845 179.306 159.289 -0.664274 0.499356 -0.556222
118.902 178.454 158.455 -0.695488 0.41206 -0.588645
118.006 177.86 159.098 -0.695488 0.41206 -0.588645
118.066 178.4 159.404 -0.695488 0.41206 -0.588645
118.902 178.454 158.455 -0.697464 0.439807 -0.565786
118.618 177.977 158.434 -0.697464 0.439807 -0.565786
118.006 177.86 159.098 -0.697464 0.439807 -0.565786
118.902 178.454 158.455 -0.702471 0.472955 -0.531834
118.845 179.306 159.289 -0.702471 0.472955 -0.531834
119.528 179.431 158.497 -0.702471 0.472955 -0.531834
121.981 178.14 158.458 0.958994 -0.213982 -0.185855
122.206 179.186 158.417 0.958994 -0.213982 -0.185855
122.172 178.365 159.187 0.958994 -0.213982 -0.185855
122.172 178.365 159.187 0.995887 -0.080407 -0.0417613
122.206 179.186 158.417 0.995887 -0.080407 -0.0417613
122.254 179.388 159.182 0.995887 -0.080407 -0.0417613
118.845 179.306 159.289 -0.702551 0.472717 -0.531941
119.445 180.312 159.39 -0.702551 0.472717 -0.531941
119.528 179.431 158.497 -0.702551 0.472717 -0.531941
119.445 180.312 159.39 -0.937141 0.200626 -0.285511
119.73 180.323 158.459 -0.937141 0.200626 -0.285511
119.528 179.431 158.497 -0.937141 0.200626 -0.285511
122.206 179.186 158.417 0.997885 -0.0371598 -0.0533344
122.24 180.185 158.36 0.997885 -0.0371598 -0.0533344
122.254 179.388 159.182 0.997885 -0.0371598 -0.0533344
122.254 179.388 159.182 0.999828 0.0185141 0.000520701
122.24 180.185 158.36 0.999828 0.0185141 0.000520701
122.236 180.377 159.165 0.999828 0.0185141 0.000520701
119.73 180.323 158.459 -0.940583 0.181805 -0.286795
119.445 180.312 159.39 -0.940583 0.181805 -0.286795
119.802 181.036 158.676 -0.940583 0.181805 -0.286795
119.445 180.312 159.39 -0.930889 0.346985 -0.114224
119.726 181.103 159.499 -0.930889 0.346985 -0.114224
119.802 181.036 158.676 -0.930889 0.346985 -0.114224
122.24 180.185 158.36 0.996042 0.0874454 -0.0159259
122.167 181.014 158.361 0.996042 0.0874454 -0.0159259
122.236 180.377 159.165 0.996042 0.0874454 -0.0159259
122.236 180.377 159.165 0.991425 0.129458 0.0177782
122.167 181.014 158.361 0.991425 0.129458 0.0177782
122.142 181.106 159.109 0.991425 0.129458 0.0177782
119.802 181.036 158.676 -0.627744 0.76906 -0.120352
119.726 181.103 159.499 -0.627744 0.76906 -0.120352
120.012 181.301 159.276 -0.627744 0.76906 -0.120352
120.238 181.284 158.529 -0.531175 0.827882 -0.180178
119.802 181.036 158.676 -0.531175 0.827882 -0.180178
120.012 181.301 159.276 -0.531175 0.827882 -0.180178
121.234 181.314 158.353 -0.0365848 0.998697 -0.0355741
120.238 181.284 158.529 -0.0365848 0.998697 -0.0355741
120.743 181.332 159.377 -0.0365848 0.998697 -0.0355741
120.238 181.284 158.529 -0.0372128 0.998687 -0.0351995
120.012 181.301 159.276 -0.0372128 0.998687 -0.0351995
120.743 181.332 159.377 -0.0372128 0.998687 -0.0351995
121.965 181.281 158.467 0.0457248 0.998948 -0.00335432
121.234 181.314 158.353 0.0457248 0.998948 -0.00335432
121.737 181.294 159.193 0.0457248 0.998948 -0.00335432
121.234 181.314 158.353 0.0390283 0.999238 0.000667438
120.743 181.332 159.377 0.0390283 0.999238 0.000667438
121.737 181.294 159.193 0.0390283 0.999238 0.000667438
122.142 181.106 159.109 0.785445 0.616978 -0.0491403
122.167 181.014 158.361 0.785445 0.616978 -0.0491403
121.965 181.281 158.467 0.785445 0.616978 -0.0491403
121.737 181.294 159.193 0.437853 0.890813 0.121394
122.142 181.106 159.109 0.437853 0.890813 0.121394
121.965 181.281 158.467 0.437853 0.890813 0.121394
118.028 175.082 160.485 -0.110941 -0.963233 -0.244691
118.757 175.215 159.63 -0.110941 -0.963233 -0.244691
118.914 174.972 160.518 -0.110941 -0.963233 -0.244691
119.258 175.232 159.477 0.314307 -0.888116 -0.335352
119.926 175.28 159.976 0.314307 -0.888116 -0.335352
119.582 175.041 160.286 0.314307 -0.888116 -0.335352
119.258 175.232 159.477 -0.0334327 -0.975645 -0.216793
119.582 175.041 160.286 -0.0334327 -0.975645 -0.216793
118.757 175.215 159.63 -0.0334327 -0.975645 -0.216793
118.757 175.215 159.63 0.00811471 -0.963948 -0.265965
119.582 175.041 160.286 0.00811471 -0.963948 -0.265965
118.914 174.972 160.518 0.00811471 -0.963948 -0.265965
119.582 175.041 160.286 0.479199 -0.867166 -0.135611
119.926 175.28 159.976 0.479199 -0.867166 -0.135611
119.905 175.175 160.572 0.479199 -0.867166 -0.135611
117.962 175.861 159.478 -0.392922 -0.739535 -0.546535
118.028 175.082 160.485 -0.392922 -0.739535 -0.546535
117.677 175.416 160.285 -0.392922 -0.739535 -0.546535
117.962 175.861 159.478 -0.731301 -0.454484 -0.50857
117.677 175.416 160.285 -0.731301 -0.454484 -0.50857
117.667 176.172 159.623 -0.731301 -0.454484 -0.50857
117.667 176.172 159.623 -0.991542 -0.0925706 -0.0909702
117.677 175.416 160.285 -0.991542 -0.0925706 -0.0909702
117.603 176.091 160.405 -0.991542 -0.0925706 -0.0909702
118.757 175.215 159.63 -0.477135 -0.709878 -0.518089
118.028 175.082 160.485 -0.477135 -0.709878 -0.518089
117.962 175.861 159.478 -0.477135 -0.709878 -0.518089
119.258 175.232 159.477 0.338414 -0.865306 -0.369759
119.793 175.566 159.186 0.338414 -0.865306 -0.369759
119.926 175.28 159.976 0.338414 -0.865306 -0.369759
119.926 175.28 159.976 0.468812 -0.802547 -0.368962
119.793 175.566 159.186 0.468812 -0.802547 -0.368962
120.793 176.036 159.433 0.468812 -0.802547 -0.368962
119.926 175.28 159.976 0.731734 -0.541001 0.414588
120.793 176.036 159.433 0.731734 -0.541001 0.414588
120.224 176.01 160.402 0.731734 -0.541001 0.414588
119.926 175.28 159.976 0.931309 -0.362935 -0.030696
120.224 176.01 160.402 0.931309 -0.362935 -0.030696
119.905 175.175 160.572 0.931309 -0.362935 -0.030696
117.667 176.172 159.623 -0.996541 -0.00842086 -0.0826793
117.603 176.091 160.405 -0.996541 -0.00842086 -0.0826793
117.662 177.042 159.596 -0.996541 -0.00842086 -0.0826793
117.603 176.091 160.405 -0.998877 0.0340092 -0.0329857
117.632 177.034 160.497 -0.998877 0.0340092 -0.0329857
117.662 177.042 159.596 -0.998877 0.0340092 -0.0329857
121.031 177.145 159.743 0.823782 -0.309658 0.474863
120.224 176.01 160.402 0.823782 -0.309658 0.474863
120.793 176.036 159.433 0.823782 -0.309658 0.474863
120.376 177.227 160.476 0.731823 -0.131903 0.668608
120.224 176.01 160.402 0.731823 -0.131903 0.668608
121.031 177.145 159.743 0.731823 -0.131903 0.668608
121.378 176.326 159.325 0.506377 -0.403852 0.761896
121.827 176.782 159.268 0.506377 -0.403852 0.761896
121.742 176.968 159.423 0.506377 -0.403852 0.761896
121.378 176.326 159.325 0.323081 -0.319705 0.890734
121.742 176.968 159.423 0.323081 -0.319705 0.890734
120.793 176.036 159.433 0.323081 -0.319705 0.890734
120.793 176.036 159.433 0.321798 -0.318388 0.89167
121.742 176.968 159.423 0.321798 -0.318388 0.89167
121.031 177.145 159.743 0.321798 -0.318388 0.89167
121.827 176.782 159.268 0.719916 -0.2199 0.658304
122.046 177.385 159.231 0.719916 -0.2199 0.658304
121.742 176.968 159.423 0.719916 -0.2199 0.658304
117.662 177.042 159.596 -0.997097 0.0687982 -0.0326264
117.632 177.034 160.497 -0.997097 0.0687982 -0.0326264
117.718 177.901 159.705 -0.997097 0.0687982 -0.0326264
117.632 177.034 160.497 -0.995776 0.0914987 -0.0076342
117.709 177.865 160.466 -0.995776 0.0914987 -0.0076342
117.718 177.901 159.705 -0.995776 0.0914987 -0.0076342
121.148 178.784 159.822 0.73828 -0.084748 0.669149
120.376 177.227 160.476 0.73828 -0.084748 0.669149
121.031 177.145 159.743 0.73828 -0.084748 0.669149
120.335 178.503 160.561 0.677719 -0.0271872 0.734818
120.376 177.227 160.476 0.677719 -0.0271872 0.734818
121.148 178.784 159.822 0.677719 -0.0271872 0.734818
121.742 176.968 159.423 0.38078 -0.126141 0.916021
121.861 178.011 159.517 0.38078 -0.126141 0.916021
121.031 177.145 159.743 0.38078 -0.126141 0.916021
121.861 178.011 159.517 0.327909 -0.0686309 0.942213
121.148 178.784 159.822 0.327909 -0.0686309 0.942213
121.031 177.145 159.743 0.327909 -0.0686309 0.942213
122.046 177.385 159.231 0.762558 -0.0696163 0.643164
122.172 178.365 159.187 0.762558 -0.0696163 0.643164
121.861 178.011 159.517 0.762558 -0.0696163 0.643164
121.742 176.968 159.423 0.661846 -0.141865 0.736094
122.046 177.385 159.231 0.661846 -0.141865 0.736094
121.861 178.011 159.517 0.661846 -0.141865 0.736094
117.718 177.901 159.705 -0.856448 0.516048 0.0138496
117.709 177.865 160.466 -0.856448 0.516048 0.0138496
117.984 178.323 160.397 -0.856448 0.516048 0.0138496
118.066 178.4 159.404 -0.826807 0.561906 -0.0255435
117.718 177.901 159.705 -0.826807 0.561906 -0.0255435
117.984 178.323 160.397 -0.826807 0.561906 -0.0255435
117.984 178.323 160.397 -0.857353 0.513744 -0.0318107
118.522 179.185 159.789 -0.857353 0.513744 -0.0318107
118.066 178.4 159.404 -0.857353 0.513744 -0.0318107
118.608 179.13 160.519 -0.793316 0.593124 0.137311
118.522 179.185 159.789 -0.793316 0.593124 0.137311
117.984 178.323 160.397 -0.793316 0.593124 0.137311
121.861 178.011 159.517 0.32835 -0.0681765 0.942093
121.98 179.011 159.548 0.32835 -0.0681765 0.942093
121.148 178.784 159.822 0.32835 -0.0681765 0.942093
122.172 178.365 159.187 0.82894 -0.064393 0.555618
122.254 179.388 159.182 0.82894 -0.064393 0.555618
121.98 179.011 159.548 0.82894 -0.064393 0.555618
121.861 178.011 159.517 0.780625 -0.111921 0.614897
122.172 178.365 159.187 0.780625 -0.111921 0.614897
121.98 179.011 159.548 0.780625 -0.111921 0.614897
118.877 179.999 160.045 -0.790199 0.468585 -0.394986
118.845 179.306 159.289 -0.790199 0.468585 -0.394986
118.522 179.185 159.789 -0.790199 0.468585 -0.394986
118.877 179.999 160.045 -0.895948 0.427866 -0.119192
118.522 179.185 159.789 -0.895948 0.427866 -0.119192
118.784 179.913 160.44 -0.895948 0.427866 -0.119192
118.784 179.913 160.44 -0.964537 0.22942 0.130516
118.522 179.185 159.789 -0.964537 0.22942 0.130516
118.608 179.13 160.519 -0.964537 0.22942 0.130516
118.845 179.306 159.289 -0.759611 0.495642 -0.421107
118.877 179.999 160.045 -0.759611 0.495642 -0.421107
119.445 180.312 159.39 -0.759611 0.495642 -0.421107
121.058 180.033 159.839 0.665179 0.0377345 0.74573
120.335 178.503 160.561 0.665179 0.0377345 0.74573
121.148 178.784 159.822 0.665179 0.0377345 0.74573
120.287 180.098 160.462 0.630889 0.066781 0.772994
120.335 178.503 160.561 0.630889 0.066781 0.772994
121.058 180.033 159.839 0.630889 0.066781 0.772994
121.98 179.011 159.548 0.312015 0.00139516 0.950076
121.903 179.945 159.572 0.312015 0.00139516 0.950076
121.148 178.784 159.822 0.312015 0.00139516 0.950076
121.903 179.945 159.572 0.301889 0.00867476 0.953304
121.058 180.033 159.839 0.301889 0.00867476 0.953304
121.148 178.784 159.822 0.301889 0.00867476 0.953304
122.254 179.388 159.182 0.759809 0.0253946 0.649651
122.236 180.377 159.165 0.759809 0.0253946 0.649651
121.903 179.945 159.572 0.759809 0.0253946 0.649651
121.98 179.011 159.548 0.774496 0.0479186 0.630762
122.254 179.388 159.182 0.774496 0.0479186 0.630762
121.903 179.945 159.572 0.774496 0.0479186 0.630762
118.877 179.999 160.045 -0.874889 0.472956 -0.104314
118.784 179.913 160.44 -0.874889 0.472956 -0.104314
119.082 180.477 160.496 -0.874889 0.472956 -0.104314
119.082 180.477 160.496 -0.716991 0.615547 -0.327148
119.445 180.312 159.39 -0.716991 0.615547 -0.327148
118.877 179.999 160.045 -0.716991 0.615547 -0.327148
119.082 180.477 160.496 -0.792973 0.508196 -0.336052
119.467 180.975 160.339 -0.792973 0.508196 -0.336052
119.445 180.312 159.39 -0.792973 0.508196 -0.336052
119.467 180.975 160.339 -0.907573 0.354103 -0.225658
119.726 181.103 159.499 -0.907573 0.354103 -0.225658
119.445 180.312 159.39 -0.907573 0.354103 -0.225658
121.0 180.996 159.714 0.629934 0.136794 0.764507
120.287 180.098 160.462 0.629934 0.136794 0.764507
121.058 180.033 159.839 0.629934 0.136794 0.764507
120.171 181.013 160.358 0.607221 0.165342 0.777139
120.287 180.098 160.462 0.607221 0.165342 0.777139
121.0 180.996 159.714 0.607221 0.165342 0.777139
121.903 179.945 159.572 0.308739 0.095266 0.946364
121.865 180.889 159.489 0.308739 0.095266 0.946364
121.058 180.033 159.839 0.308739 0.095266 0.946364
121.865 180.889 159.489 0.265065 0.139617 0.954069
121.0 180.996 159.714 0.265065 0.139617 0.954069
121.058 180.033 159.839 0.265065 0.139617 0.954069
122.236 180.377 159.165 0.758146 0.146767 0.635354
122.142 181.106 159.109 0.758146 0.146767 0.635354
121.865 180.889 159.489 0.758146 0.146767 0.635354
121.903 179.945 159.572 0.722161 0.0886753 0.686017
122.236 180.377 159.165 0.722161 0.0886753 0.686017
121.865 180.889 159.489 0.722161 0.0886753 0.686017
119.726 181.103 159.499 -0.475828 0.879442 -0.0130275
119.467 180.975 160.339 -0.475828 0.879442 -0.0130275
119.949 181.233 160.136 -0.475828 0.879442 -0.0130275
120.012 181.301 159.276 -0.556718 0.830318 0.0252452
119.726 181.103 159.499 -0.556718 0.830318 0.0252452
119.949 181.233 160.136 -0.556718 0.830318 0.0252452
120.171 181.013 160.358 0.390937 0.783358 0.483237
121.0 180.996 159.714 0.390937 0.783358 0.483237
120.743 181.332 159.377 0.390937 0.783358 0.483237
120.171 181.013 160.358 0.343025 0.815676 0.465839
120.743 181.332 159.377 0.343025 0.815676 0.465839
119.949 181.233 160.136 0.343025 0.815676 0.465839
119.949 181.233 160.136 -0.0524755 0.995754 0.0756336
120.743 181.332 159.377 -0.0524755 0.995754 0.0756336
120.012 181.301 159.276 -0.0524755 0.995754 0.0756336
121.737 181.294 159.193 0.148171 0.754317 0.639571
120.743 181.332 159.377 0.148171 0.754317 0.639571
121.0 180.996 159.714 0.148171 0.754317 0.639571
121.865 180.889 159.489 0.268048 0.623436 0.734492
121.737 181.294 159.193 0.268048 0.623436 0.734492
121.0 180.996 159.714 0.268048 0.623436 0.734492
122.142 181.106 159.109 0.423271 0.619049 0.661529
121.737 181.294 159.193 0.423271 0.619049 0.661529
121.865 180.889 159.489 0.423271 0.619049 0.661529
118.028 175.082 160.485 -0.585571 -0.809414 -0.04422
118.024 175.04 161.305 -0.585571 -0.809414 -0.04422
117.714 175.275 161.104 -0.585571 -0.809414 -0.04422
117.677 175.416 160.285 -0.655996 -0.748244 -0.0989953
118.028 175.082 160.485 -0.655996 -0.748244 -0.0989953
117.714 175.275 161.104 -0.655996 -0.748244 -0.0989953
118.914 174.972 160.518 -0.123462 -0.992326 -0.00680884
118.814 174.979 161.231 -0.123462 -0.992326 -0.00680884
118.028 175.082 160.485 -0.123462 -0.992326 -0.00680884
118.028 175.082 160.485 -0.0814986 -0.995344 -0.0514632
118.814 174.979 161.231 -0.0814986 -0.995344 -0.0514632
118.024 175.04 161.305 -0.0814986 -0.995344 -0.0514632
119.582 175.041 160.286 0.0882894 -0.995077 -0.045019
119.64 175.009 161.111 0.0882894 -0.995077 -0.045019
118.914 174.972 160.518 0.0882894 -0.995077 -0.045019
118.914 174.972 160.518 0.0385541 -0.999128 0.0160497
119.64 175.009 161.111 0.0385541 -0.999128 0.0160497
118.814 174.979 161.231 0.0385541 -0.999128 0.0160497
119.64 175.009 161.111 0.430569 -0.90018 -0.0654682
119.582 175.041 160.286 0.430569 -0.90018 -0.0654682
119.905 175.175 160.572 0.430569 -0.90018 -0.0654682
119.917 175.348 161.229 0.736032 -0.657966 0.159178
119.64 175.009 161.111 0.736032 -0.657966 0.159178
119.905 175.175 160.572 0.736032 -0.657966 0.159178
117.677 175.416 160.285 -0.99325 -0.113326 0.0247339
117.714 175.275 161.104 -0.99325 -0.113326 0.0247339
117.603 176.091 160.405 -0.99325 -0.113326 0.0247339
117.714 175.275 161.104 -0.992947 -0.0384333 0.112161
117.697 176.056 161.222 -0.992947 -0.0384333 0.112161
117.603 176.091 160.405 -0.992947 -0.0384333 0.112161
119.905 175.175 160.572 0.936247 -0.343735 0.0727162
120.224 176.01 160.402 0.936247 -0.343735 0.0727162
119.917 175.348 161.229 0.936247 -0.343735 0.0727162
119.917 175.348 161.229 0.957942 -0.118179 0.261499
120.224 176.01 160.402 0.957942 -0.118179 0.261499
120.027 176.281 161.248 0.957942 -0.118179 0.261499
117.746 176.704 161.289 -0.976252 0.110938 0.186077
117.781 177.323 161.105 -0.976252 0.110938 0.186077
117.632 177.034 160.497 -0.976252 0.110938 0.186077
117.746 176.704 161.289 -0.984645 0.0573123 0.164894
117.632 177.034 160.497 -0.984645 0.0573123 0.164894
117.697 176.056 161.222 -0.984645 0.0573123 0.164894
117.697 176.056 161.222 -0.993213 0.0194932 0.114664
117.632 177.034 160.497 -0.993213 0.0194932 0.114664
117.603 176.091 160.405 -0.993213 0.0194932 0.114664
117.746 176.704 161.289 -0.730533 0.232204 0.642186
118.005 177.062 161.454 -0.730533 0.232204 0.642186
117.781 177.323 161.105 -0.730533 0.232204 0.642186
120.224 176.01 160.402 0.954358 -0.135437 0.26619
120.376 177.227 160.476 0.954358 -0.135437 0.26619
120.027 176.281 161.248 0.954358 -0.135437 0.26619
120.027 176.281 161.248 0.929264 -0.0440727 0.366777
120.376 177.227 160.476 0.929264 -0.0440727 0.366777
120.069 177.338 161.268 0.929264 -0.0440727 0.366777
117.781 177.323 161.105 -0.957819 0.156577 0.240969
117.818 177.962 160.839 -0.957819 0.156577 0.240969
117.709 177.865 160.466 -0.957819 0.156577 0.240969
117.632 177.034 160.497 -0.97644 0.0971649 0.192675
117.781 177.323 161.105 -0.97644 0.0971649 0.192675
117.709 177.865 160.466 -0.97644 0.0971649 0.192675
118.244 177.929 161.321 -0.690463 0.292454 0.661613
117.781 177.323 161.105 -0.690463 0.292454 0.661613
118.005 177.062 161.454 -0.690463 0.292454 0.661613
117.818 177.962 160.839 -0.702161 0.308497 0.641716
117.781 177.323 161.105 -0.702161 0.308497 0.641716
118.244 177.929 161.321 -0.702161 0.308497 0.641716
120.376 177.227 160.476 0.932538 0.00595588 0.361022
120.335 178.503 160.561 0.932538 0.00595588 0.361022
120.069 177.338 161.268 0.932538 0.00595588 0.361022
120.069 177.338 161.268 0.926937 0.0156591 0.37489
120.335 178.503 160.561 0.926937 0.0156591 0.37489
120.027 178.294 161.332 0.926937 0.0156591 0.37489
117.709 177.865 160.466 -0.844483 0.523683 0.112266
117.818 177.962 160.839 -0.844483 0.523683 0.112266
117.984 178.323 160.397 -0.844483 0.523683 0.112266
118.608 179.13 160.519 -0.885044 0.353338 0.303066
118.684 178.72 161.219 -0.885044 0.353338 0.303066
118.899 179.402 161.053 -0.885044 0.353338 0.303066
117.984 178.323 160.397 -0.755812 0.525794 0.390242
118.684 178.72 161.219 -0.755812 0.525794 0.390242
118.608 179.13 160.519 -0.755812 0.525794 0.390242
117.984 178.323 160.397 -0.768151 0.481314 0.422232
118.244 177.929 161.321 -0.768151 0.481314 0.422232
118.684 178.72 161.219 -0.768151 0.481314 0.422232
117.984 178.323 160.397 -0.455422 0.765099 0.455208
117.818 177.962 160.839 -0.455422 0.765099 0.455208
118.244 177.929 161.321 -0.455422 0.765099 0.455208
118.684 178.72 161.219 -0.593562 0.362568 0.71849
119.163 179.119 161.413 -0.593562 0.362568 0.71849
118.899 179.402 161.053 -0.593562 0.362568 0.71849
120.027 178.294 161.332 0.921366 0.0585013 0.384268
120.335 178.503 160.561 0.921366 0.0585013 0.384268
120.008 179.291 161.226 0.921366 0.0585013 0.384268
118.899 179.402 161.053 -0.928082 0.180554 0.325674
118.956 180.076 160.84 -0.928082 0.180554 0.325674
118.784 179.913 160.44 -0.928082 0.180554 0.325674
118.608 179.13 160.519 -0.898359 0.238848 0.368651
118.899 179.402 161.053 -0.898359 0.238848 0.368651
118.784 179.913 160.44 -0.898359 0.238848 0.368651
119.475 179.972 161.265 -0.606894 0.346254 0.715393
118.899 179.402 161.053 -0.606894 0.346254 0.715393
119.163 179.119 161.413 -0.606894 0.346254 0.715393
118.956 180.076 160.84 -0.570719 0.290014 0.768227
118.899 179.402 161.053 -0.570719 0.290014 0.768227
119.475 179.972 161.265 -0.570719 0.290014 0.768227
120.335 178.503 160.561 0.91899 0.0519664 0.39084
120.287 180.098 160.462 0.91899 0.0519664 0.39084
120.008 179.291 161.226 0.91899 0.0519664 0.39084
120.008 179.291 161.226 0.902433 0.0871062 0.421933
120.287 180.098 160.462 0.902433 0.0871062 0.421933
119.948 180.302 161.145 0.902433 0.0871062 0.421933
118.784 179.913 160.44 -0.874747 0.443063 0.196248
118.956 180.076 160.84 -0.874747 0.443063 0.196248
119.082 180.477 160.496 -0.874747 0.443063 0.196248
119.467 180.975 160.339 -0.693972 0.513069 0.505136
119.708 180.503 161.149 -0.693972 0.513069 0.505136
119.85 180.994 160.846 -0.693972 0.513069 0.505136
119.082 180.477 160.496 -0.581109 0.616137 0.531684
119.708 180.503 161.149 -0.581109 0.616137 0.531684
119.467 180.975 160.339 -0.581109 0.616137 0.531684
119.082 180.477 160.496 -0.662197 0.42502 0.617133
119.475 179.972 161.265 -0.662197 0.42502 0.617133
119.708 180.503 161.149 -0.662197 0.42502 0.617133
119.082 180.477 160.496 -0.38654 0.668016 0.635878
118.956 180.076 160.84 -0.38654 0.668016 0.635878
119.475 179.972 161.265 -0.38654 0.668016 0.635878
119.85 180.994 160.846 0.360346 0.412004 0.836901
119.708 180.503 161.149 0.360346 0.412004 0.836901
119.948 180.302 161.145 0.360346 0.412004 0.836901
119.85 180.994 160.846 0.780677 0.33724 0.52613
119.948 180.302 161.145 0.780677 0.33724 0.52613
120.171 181.013 160.358 0.780677 0.33724 0.52613
120.171 181.013 160.358 0.902393 0.159651 0.400247
119.948 180.302 161.145 0.902393 0.159651 0.400247
120.287 180.098 160.462 0.902393 0.159651 0.400247
119.467 180.975 160.339 -0.373244 0.893834 0.248497
119.85 180.994 160.846 -0.373244 0.893834 0.248497
119.949 181.233 160.136 -0.373244 0.893834 0.248497
120.171 181.013 160.358 0.469039 0.815486 0.339094
119.949 181.233 160.136 0.469039 0.815486 0.339094
119.85 180.994 160.846 0.469039 0.815486 0.339094
118.024 175.04 161.305 -0.69921 -0.43689 0.565891
117.967 175.377 161.496 -0.69921 -0.43689 0.565891
117.714 175.275 161.104 -0.69921 -0.43689 0.565891
118.024 175.04 161.305 0.00165459 -0.766368 0.642399
118.814 174.979 161.231 0.00165459 -0.766368 0.642399
118.803 175.237 161.538 0.00165459 -0.766368 0.642399
117.967 175.377 161.496 -0.127957 -0.503516 0.854458
118.024 175.04 161.305 -0.127957 -0.503516 0.854458
118.803 175.237 161.538 -0.127957 -0.503516 0.854458
118.814 174.979 161.231 0.0920745 -0.908369 0.407906
119.64 175.009 161.111 0.0920745 -0.908369 0.407906
119.587 175.154 161.445 0.0920745 -0.908369 0.407906
118.803 175.237 161.538 -0.00494435 -0.766478 0.642252
118.814 174.979 161.231 -0.00494435 -0.766478 0.642252
119.587 175.154 161.445 -0.00494435 -0.766478 0.642252
119.64 175.009 161.111 0.64242 -0.660825 0.388081
119.917 175.348 161.229 0.64242 -0.660825 0.388081
119.587 175.154 161.445 0.64242 -0.660825 0.388081
117.967 175.377 161.496 -0.741136 -0.0246688 0.670901
117.975 176.251 161.537 -0.741136 -0.0246688 0.670901
117.697 176.056 161.222 -0.741136 -0.0246688 0.670901
117.714 175.275 161.104 -0.82298 -0.102407 0.558764
117.967 175.377 161.496 -0.82298 -0.102407 0.558764
117.697 176.056 161.222 -0.82298 -0.102407 0.558764
118.803 175.237 161.538 -0.0953005 -0.27939 0.955437
118.803 176.075 161.783 -0.0953005 -0.27939 0.955437
117.967 175.377 161.496 -0.0953005 -0.27939 0.955437
118.803 176.075 161.783 -0.293119 -0.0422501 0.955142
117.975 176.251 161.537 -0.293119 -0.0422501 0.955142
117.967 175.377 161.496 -0.293119 -0.0422501 0.955142
119.587 175.154 161.445 0.0984372 -0.168891 0.980707
119.651 175.874 161.563 0.0984372 -0.168891 0.980707
118.803 175.237 161.538 0.0984372 -0.168891 0.980707
119.651 175.874 161.563 0.180119 -0.276077 0.944107
118.803 176.075 161.783 0.180119 -0.276077 0.944107
118.803 175.237 161.538 0.180119 -0.276077 0.944107
119.917 175.348 161.229 0.698766 -0.0966931 0.708785
120.027 176.281 161.248 0.698766 -0.0966931 0.708785
119.651 175.874 161.563 0.698766 -0.0966931 0.708785
119.587 175.154 161.445 0.611022 -0.180302 0.770807
119.917 175.348 161.229 0.611022 -0.180302 0.770807
119.651 175.874 161.563 0.611022 -0.180302 0.770807
117.697 176.056 161.222 -0.74518 -0.0121593 0.666752
117.975 176.251 161.537 -0.74518 -0.0121593 0.666752
117.746 176.704 161.289 -0.74518 -0.0121593 0.666752
118.005 177.062 161.454 -0.631258 0.101522 0.7689
117.746 176.704 161.289 -0.631258 0.101522 0.7689
117.975 176.251 161.537 -0.631258 0.101522 0.7689
118.005 177.062 161.454 -0.355275 0.107586 0.92855
117.975 176.251 161.537 -0.355275 0.107586 0.92855
118.774 177.162 161.737 -0.355275 0.107586 0.92855
118.774 177.162 161.737 -0.278483 0.0333755 0.959861
117.975 176.251 161.537 -0.278483 0.0333755 0.959861
118.803 176.075 161.783 -0.278483 0.0333755 0.959861
119.651 175.874 161.563 0.237381 -0.0619978 0.969436
119.67 176.877 161.622 0.237381 -0.0619978 0.969436
118.803 176.075 161.783 0.237381 -0.0619978 0.969436
119.67 176.877 161.622 0.141191 0.0458732 0.988919
118.774 177.162 161.737 0.141191 0.0458732 0.988919
118.803 176.075 161.783 0.141191 0.0458732 0.988919
120.027 176.281 161.248 0.689427 -0.0414665 0.723168
120.069 177.338 161.268 0.689427 -0.0414665 0.723168
119.67 176.877 161.622 0.689427 -0.0414665 0.723168
119.651 175.874 161.563 0.676461 -0.0562392 0.734328
120.027 176.281 161.248 0.676461 -0.0562392 0.734328
119.67 176.877 161.622 0.676461 -0.0562392 0.734328
118.774 177.162 161.737 -0.436156 0.177604 0.882171
118.974 178.267 161.613 -0.436156 0.177604 0.882171
118.244 177.929 161.321 -0.436156 0.177604 0.882171
118.005 177.062 161.454 -0.362192 0.238865 0.900977
118.774 177.162 161.737 -0.362192 0.238865 0.900977
118.244 177.929 161.321 -0.362192 0.238865 0.900977
119.67 176.877 161.622 0.134719 0.0248241 0.990573
119.687 177.927 161.593 0.134719 0.0248241 0.990573
118.774 177.162 161.737 0.134719 0.0248241 0.990573
119.687 177.927 161.593 0.073851 0.0977777 0.992464
118.974 178.267 161.613 0.073851 0.0977777 0.992464
118.774 177.162 161.737 0.073851 0.0977777 0.992464
120.069 177.338 161.268 0.626584 -0.0244295 0.778971
120.027 178.294 161.332 0.626584 -0.0244295 0.778971
119.687 177.927 161.593 0.626584 -0.0244295 0.778971
119.67 176.877 161.622 0.657399 0.00957951 0.753482
120.069 177.338 161.268 0.657399 0.00957951 0.753482
119.687 177.927 161.593 0.657399 0.00957951 0.753482
118.244 177.929 161.321 -0.489061 0.373129 0.788413
118.974 178.267 161.613 -0.489061 0.373129 0.788413
118.684 178.72 161.219 -0.489061 0.373129 0.788413
119.163 179.119 161.413 -0.56528 0.30529 0.766327
118.684 178.72 161.219 -0.56528 0.30529 0.766327
118.974 178.267 161.613 -0.56528 0.30529 0.766327
119.163 179.119 161.413 -0.0946877 0.247262 0.964311
118.974 178.267 161.613 -0.0946877 0.247262 0.964311
119.721 179.056 161.484 -0.0946877 0.247262 0.964311
119.721 179.056 161.484 0.0720694 0.0939979 0.99296
118.974 178.267 161.613 0.0720694 0.0939979 0.99296
119.687 177.927 161.593 0.0720694 0.0939979 0.99296
120.027 178.294 161.332 0.62259 0.0944823 0.776824
120.008 179.291 161.226 0.62259 0.0944823 0.776824
119.721 179.056 161.484 0.62259 0.0944823 0.776824
119.687 177.927 161.593 0.56588 0.062661 0.822103
120.027 178.294 161.332 0.56588 0.062661 0.822103
119.721 179.056 161.484 0.56588 0.062661 0.822103
119.721 179.056 161.484 -0.306783 0.142585 0.941038
119.841 179.973 161.384 -0.306783 0.142585 0.941038
119.475 179.972 161.265 -0.306783 0.142585 0.941038
119.163 179.119 161.413 -0.1005 0.205824 0.973415
119.721 179.056 161.484 -0.1005 0.205824 0.973415
119.475 179.972 161.265 -0.1005 0.205824 0.973415
120.008 179.291 161.226 0.857167 0.0912234 0.506896
119.948 180.302 161.145 0.857167 0.0912234 0.506896
119.841 179.973 161.384 0.857167 0.0912234 0.506896
119.721 179.056 161.484 0.672923 -0.00781873 0.739671
120.008 179.291 161.226 0.672923 -0.00781873 0.739671
119.841 179.973 161.384 0.672923 -0.00781873 0.739671
119.475 179.972 161.265 -0.293804 0.324954 0.898935
119.841 179.973 161.384 -0.293804 0.324954 0.898935
119.708 180.503 161.149 -0.293804 0.324954 0.898935
119.948 180.302 161.145 0.394896 0.453935 0.798749
119.708 180.503 161.149 0.394896 0.453935 0.798749
119.841 179.973 161.384 0.394896 0.453935 0.798749
3 0 1 2
3 3 4 5
3 6 7 8
3 9 10 11
3 12 13 14
3 15 16 17
3 18 19 20
3 21 22 23
3 24 25 26
3 27 28 29
3 30 31 32
3 33 34 35
3 36 37 38
3 39 40 41
3 42 43 44
3 45 46 47
3 48 49 50
3 51 52 53
3 54 55 56
3 57 58 59
3 60 61 62
3 63 64 65
3 66 67 68
3 69 70 71
3 72 73 74
3 75 76 77
3 78 79 80
3 81 82 83
3 84 85 86
3 87 88 89
3 90 91 92
3 93 94 95
3 96 97 98
3 99 100 101
3 102 103 104
3 105 106 107
3 108 109 110
3 111 112 113
3 114 115 116
3 117 118 119
3 120 121 122
3 123 124 125
3 126 127 128
3 129 130 131
3 132 133 134
3 135 136 137
3 138 139 140
3 141 142 143
3 144 145 146
3 147 148 149
3 150 151 152
3 153 154 155
3 156 157 158
3 159 160 161
3 162 163 164
3 165 166 167
3 168 169 170
3 171 172 173
3 174 175 176
3 177 178 179
3 180 181 182
3 183 184 185
3 186 187 188
3 189 190 191
3 192 193 194
3 195 196 197
3 198 199 200
3 201 202 203
3 204 205 206
3 207 208 209
3 210 211 212
3 213 214 215
3 216 217 218
3 219 220 221
3 222 223 224
3 225 226 227
3 228 229 230
3 231 232 233
3 234 235 236
3 237 238 239
3 240 241 242
3 243 244 245
3 246 247 248
3 249 250 251
3 252 253 254
3 255 256 257
3 258 259 260
3 261 262 263
3 264 265 266
3 267 268 269
3 270 271 272
3 273 274 275
3 276 277 278
3 279 280 281
3 282 283 284
3 285 286 287
3 288 289 290
3 291 292 293
3 294 295 296
3 297 298 299
3 300 301 302
3 303 304 305
3 306 307 308
3 309 310 311
3 312 313 314
3 315 316 317
3 318 319 320
3 321 322 323
3 324 325 326
3 327 328 329
3 330 331 332
3 333 334 335
3 336 337 338
3 339 340 341
3 342 343 344
3 345 346 347
3 348 349 350
3 351 352 353
3 354 355 356
3 357 358 359
3 360 361 362
3 363 364 365
3 366 367 368
3 369 370 371
3 372 373 374
3 375 376 377
3 378 379 380
3 381 382 383
3 384 385 386
3 387 388 389
3 390 391 392
3 393 394 395
3 396 397 398
3 399 400 401
3 402 403 404
3 405 406 407
3 408 409 410
3 411 412 413
3 414 415 416
3 417 418 419
3 420 421 422
3 423 424 425
3 426 427 428
3 429 430 431
3 432 433 434
3 435 436 437
3 438 439 440
3 441 442 443
3 444 445 446
3 447 448 449
3 450 451 452
3 453 454 455
3 456 457 458
3 459 460 461
3 462 463 464
3 465 466 467
3 468 469 470
3 471 472 473
3 474 475 476
3 477 478 479
3 480 481 482
3 483 484 485
3 486 487 488
3 489 490 491
3 492 493 494
3 495 496 497
3 498 499 500
3 501 502 503
3 504 505 506
3 507 508 509
3 510 511 512
3 513 514 515
3 516 517 518
3 519 520 521
3 522 523 524
3 525 526 527
3 528 529 530
3 531 532 533
3 534 535 536
3 537 538 539
3 540 541 542
3 543 544 545
3 546 547 548
3 549 550 551
3 552 553 554
3 555 556 557
3 558 559 560
3 561 562 563
3 564 565 566
3 567 568 569
3 570 571 572
3 573 574 575
3 576 577 578
3 579 580 581
3 582 583 584
3 585 586 587
3 588 589 590
3 591 592 593
3 594 595 596
3 597 598 599
3 600 601 602
3 603 604 605
3 606 607 608
3 609 610 611
3 612 613 614
3 615 616 617
3 618 619 620
3 621 622 623
3 624 625 626
3 627 628 629
3 630 631 632
3 633 634 635
3 636 637 638
3 639 640 641
3 642 643 644
3 645 646 647
3 648 649 650
3 651 652 653
3 654 655 656
3 657 658 659
3 660 661 662
3 663 664 665
3 666 667 668
3 669 670 671
3 672 673 674
3 675 676 677
3 678 679 680
3 681 682 683
3 684 685 686
3 687 688 689
3 690 691 692
3 693 694 695
3 696 697 698
3 699 700 701
3 702 703 704
3 705 706 707
3 708 709 710
3 711 712 713
3 714 715 716
3 717 718 719
3 720 721 722
3 723 724 725
3 726 727 728
3 729 730 731
3 732 733 734
3 735 736 737
3 738 739 740
3 741 742 743
3 744 745 746
3 747 748 749
3 750 751 752
3 753 754 755
3 756 757 758
3 759 760 761
3 762 763 764
3 765 766 767
3 768 769 770
3 771 772 773
3 774 775 776
3 777 778 779
3 780 781 782
3 783 784 785
3 786 787 788
3 789 790 791
3 792 793 794
3 795 796 797
3 798 799 800
3 801 802 803
