solid ascii
 facet normal -0.480513 -0.698571 -0.530194
  outer loop
   vertex 58.3648 167.942 151.019
   vertex 58.4008 167.644 151.379
   vertex 58.1697 167.953 151.18
  endloop
 endfacet
 facet normal 0.272944 -0.727554 -0.629418
  outer loop
   vertex 58.4008 167.644 151.379
   vertex 58.3648 167.942 151.019
   vertex 58.6753 167.825 151.288
  endloop
 endfacet
 facet normal -0.639396 -0.08306 -0.764378
  outer loop
   vertex 58.293 168.514 151.016
   vertex 58.3648 167.942 151.019
   vertex 58.1697 167.953 151.18
  endloop
 endfacet
 facet normal -0.842545 0.0278716 -0.537904
  outer loop
   vertex 58.1059 168.533 151.311
   vertex 58.293 168.514 151.016
   vertex 58.1697 167.953 151.18
  endloop
 endfacet
 facet normal 0.646484 -0.0413533 -0.761806
  outer loop
   vertex 58.6286 168.488 151.213
   vertex 58.6753 167.825 151.288
   vertex 58.3648 167.942 151.019
  endloop
 endfacet
 facet normal 0.507722 0.0605168 -0.859393
  outer loop
   vertex 58.293 168.514 151.016
   vertex 58.6286 168.488 151.213
   vertex 58.3648 167.942 151.019
  endloop
 endfacet
 facet normal -0.77548 0.362799 -0.516727
  outer loop
   vertex 58.293 168.514 151.016
   vertex 58.1059 168.533 151.311
   vertex 58.29 168.984 151.351
  endloop
 endfacet
 facet normal 0.462598 0.516023 -0.720918
  outer loop
   vertex 58.6286 168.488 151.213
   vertex 58.293 168.514 151.016
   vertex 58.29 168.984 151.351
  endloop
 endfacet
 facet normal -0.669406 -0.742812 -0.0112099
  outer loop
   vertex 58.4008 167.644 151.379
   vertex 58.463 167.574 152.28
   vertex 58.0895 167.916 151.91
  endloop
 endfacet
 facet normal -0.758967 -0.6407 -0.11607
  outer loop
   vertex 58.1697 167.953 151.18
   vertex 58.4008 167.644 151.379
   vertex 58.0895 167.916 151.91
  endloop
 endfacet
 facet normal 0.662396 -0.498509 -0.559214
  outer loop
   vertex 58.6753 167.825 151.288
   vertex 59.2418 168.017 151.788
   vertex 59.0991 167.6 151.992
  endloop
 endfacet
 facet normal 0.368883 -0.797078 -0.478113
  outer loop
   vertex 58.6753 167.825 151.288
   vertex 59.0991 167.6 151.992
   vertex 58.4008 167.644 151.379
  endloop
 endfacet
 facet normal 0.00480312 -0.996986 -0.0774347
  outer loop
   vertex 58.4008 167.644 151.379
   vertex 59.0991 167.6 151.992
   vertex 58.463 167.574 152.28
  endloop
 endfacet
 facet normal 0.664549 -0.498154 -0.556972
  outer loop
   vertex 59.0991 167.6 151.992
   vertex 59.2418 168.017 151.788
   vertex 59.505 167.824 152.275
  endloop
 endfacet
 facet normal -0.990048 -0.083712 -0.113122
  outer loop
   vertex 58.1697 167.953 151.18
   vertex 58.0895 167.916 151.91
   vertex 58.1059 168.533 151.311
  endloop
 endfacet
 facet normal -0.953692 -0.196306 -0.227893
  outer loop
   vertex 58.0895 167.916 151.91
   vertex 57.8757 168.761 152.077
   vertex 58.1059 168.533 151.311
  endloop
 endfacet
 facet normal 0.695372 0.0282047 -0.718096
  outer loop
   vertex 59.2418 168.017 151.788
   vertex 58.6286 168.488 151.213
   vertex 59.177 168.953 151.762
  endloop
 endfacet
 facet normal 0.668228 -0.0376751 -0.743002
  outer loop
   vertex 58.6753 167.825 151.288
   vertex 58.6286 168.488 151.213
   vertex 59.2418 168.017 151.788
  endloop
 endfacet
 facet normal 0.847224 -0.138786 -0.512786
  outer loop
   vertex 59.6156 168.581 152.253
   vertex 59.505 167.824 152.275
   vertex 59.2418 168.017 151.788
  endloop
 endfacet
 facet normal 0.7581 0.034411 -0.65123
  outer loop
   vertex 59.177 168.953 151.762
   vertex 59.6156 168.581 152.253
   vertex 59.2418 168.017 151.788
  endloop
 endfacet
 facet normal -0.611319 -0.48358 -0.62645
  outer loop
   vertex 57.5614 169.711 151.892
   vertex 57.3405 169.437 152.32
   vertex 57.1208 169.794 152.259
  endloop
 endfacet
 facet normal -0.192493 0.454636 -0.869628
  outer loop
   vertex 58.29 168.984 151.351
   vertex 57.5614 169.711 151.892
   vertex 58.5039 169.805 151.733
  endloop
 endfacet
 facet normal -0.759803 -0.357021 -0.543356
  outer loop
   vertex 58.29 168.984 151.351
   vertex 57.8757 168.761 152.077
   vertex 57.5614 169.711 151.892
  endloop
 endfacet
 facet normal -0.848945 0.379375 -0.367924
  outer loop
   vertex 58.29 168.984 151.351
   vertex 58.1059 168.533 151.311
   vertex 57.8757 168.761 152.077
  endloop
 endfacet
 facet normal -0.718427 -0.354093 -0.598732
  outer loop
   vertex 57.3405 169.437 152.32
   vertex 57.5614 169.711 151.892
   vertex 57.8757 168.761 152.077
  endloop
 endfacet
 facet normal 0.382593 0.480494 -0.789144
  outer loop
   vertex 58.29 168.984 151.351
   vertex 59.177 168.953 151.762
   vertex 58.6286 168.488 151.213
  endloop
 endfacet
 facet normal 0.410324 0.294461 -0.863092
  outer loop
   vertex 58.29 168.984 151.351
   vertex 58.5039 169.805 151.733
   vertex 59.177 168.953 151.762
  endloop
 endfacet
 facet normal 0.191281 0.117496 -0.974477
  outer loop
   vertex 58.5039 169.805 151.733
   vertex 59.3039 169.911 151.903
   vertex 59.177 168.953 151.762
  endloop
 endfacet
 facet normal 0.732281 -0.034192 -0.680144
  outer loop
   vertex 59.7221 169.681 152.312
   vertex 59.6156 168.581 152.253
   vertex 59.177 168.953 151.762
  endloop
 endfacet
 facet normal 0.703018 0.0111182 -0.711085
  outer loop
   vertex 59.3039 169.911 151.903
   vertex 59.7221 169.681 152.312
   vertex 59.177 168.953 151.762
  endloop
 endfacet
 facet normal -0.592559 0.242702 -0.768095
  outer loop
   vertex 57.5614 169.711 151.892
   vertex 57.1208 169.794 152.259
   vertex 57.2728 170.259 152.288
  endloop
 endfacet
 facet normal -0.469927 0.374971 -0.799103
  outer loop
   vertex 57.2728 170.259 152.288
   vertex 57.9083 170.917 152.223
   vertex 58.1832 170.573 151.9
  endloop
 endfacet
 facet normal -0.466017 0.343504 -0.815373
  outer loop
   vertex 57.2728 170.259 152.288
   vertex 58.1832 170.573 151.9
   vertex 57.5614 169.711 151.892
  endloop
 endfacet
 facet normal -0.178701 0.137567 -0.974239
  outer loop
   vertex 57.5614 169.711 151.892
   vertex 58.1832 170.573 151.9
   vertex 58.5039 169.805 151.733
  endloop
 endfacet
 facet normal 0.195354 0.0902387 -0.976572
  outer loop
   vertex 59.3039 169.911 151.903
   vertex 58.5039 169.805 151.733
   vertex 59.0903 170.67 151.93
  endloop
 endfacet
 facet normal 0.00903597 0.216406 -0.976262
  outer loop
   vertex 59.0903 170.67 151.93
   vertex 58.5039 169.805 151.733
   vertex 58.1832 170.573 151.9
  endloop
 endfacet
 facet normal 0.712473 0.0478811 -0.700064
  outer loop
   vertex 59.6126 170.715 152.272
   vertex 59.7221 169.681 152.312
   vertex 59.3039 169.911 151.903
  endloop
 endfacet
 facet normal 0.527999 0.178603 -0.830252
  outer loop
   vertex 59.0903 170.67 151.93
   vertex 59.6126 170.715 152.272
   vertex 59.3039 169.911 151.903
  endloop
 endfacet
 facet normal -0.276147 0.531312 -0.800906
  outer loop
   vertex 58.1832 170.573 151.9
   vertex 57.9083 170.917 152.223
   vertex 58.5549 171.186 152.178
  endloop
 endfacet
 facet normal -0.0152651 0.421211 -0.906834
  outer loop
   vertex 59.0903 170.67 151.93
   vertex 58.1832 170.573 151.9
   vertex 58.5549 171.186 152.178
  endloop
 endfacet
 facet normal 0.106263 0.519122 -0.848069
  outer loop
   vertex 59.3259 171.189 152.277
   vertex 59.0903 170.67 151.93
   vertex 58.5549 171.186 152.178
  endloop
 endfacet
 facet normal 0.501408 0.312199 -0.806921
  outer loop
   vertex 59.6126 170.715 152.272
   vertex 59.0903 170.67 151.93
   vertex 59.3259 171.189 152.277
  endloop
 endfacet
 facet normal -0.592216 -0.782225 0.1934
  outer loop
   vertex 58.463 167.574 152.28
   vertex 58.4894 167.794 153.25
   vertex 58.0486 168.039 152.893
  endloop
 endfacet
 facet normal -0.705497 -0.706244 0.0590977
  outer loop
   vertex 58.0895 167.916 151.91
   vertex 58.463 167.574 152.28
   vertex 58.0486 168.039 152.893
  endloop
 endfacet
 facet normal 0.031443 -0.999327 -0.0188944
  outer loop
   vertex 59.0991 167.6 151.992
   vertex 59.2158 167.587 152.849
   vertex 58.463 167.574 152.28
  endloop
 endfacet
 facet normal -0.151635 -0.963091 0.222403
  outer loop
   vertex 58.463 167.574 152.28
   vertex 59.2158 167.587 152.849
   vertex 58.4894 167.794 153.25
  endloop
 endfacet
 facet normal 0.526099 -0.846265 -0.0839915
  outer loop
   vertex 59.2158 167.587 152.849
   vertex 59.0991 167.6 151.992
   vertex 59.505 167.824 152.275
  endloop
 endfacet
 facet normal 0.671591 -0.740184 0.0330677
  outer loop
   vertex 59.6241 167.96 152.914
   vertex 59.2158 167.587 152.849
   vertex 59.505 167.824 152.275
  endloop
 endfacet
 facet normal -0.96987 -0.243424 -0.00988251
  outer loop
   vertex 58.0895 167.916 151.91
   vertex 58.0486 168.039 152.893
   vertex 57.8757 168.761 152.077
  endloop
 endfacet
 facet normal -0.929992 -0.349913 -0.112585
  outer loop
   vertex 58.0486 168.039 152.893
   vertex 57.7238 168.875 152.978
   vertex 57.8757 168.761 152.077
  endloop
 endfacet
 facet normal 0.977511 -0.147171 -0.151039
  outer loop
   vertex 59.505 167.824 152.275
   vertex 59.6156 168.581 152.253
   vertex 59.6241 167.96 152.914
  endloop
 endfacet
 facet normal 0.91815 -0.28269 -0.277647
  outer loop
   vertex 59.6241 167.96 152.914
   vertex 59.6156 168.581 152.253
   vertex 59.9243 168.742 153.11
  endloop
 endfacet
 facet normal -0.839215 -0.534083 -0.102336
  outer loop
   vertex 57.1208 169.794 152.259
   vertex 57.3405 169.437 152.32
   vertex 57.0154 169.792 153.132
  endloop
 endfacet
 facet normal -0.792471 -0.607244 -0.0569536
  outer loop
   vertex 57.7238 168.875 152.978
   vertex 57.3405 169.437 152.32
   vertex 57.8757 168.761 152.077
  endloop
 endfacet
 facet normal -0.794608 -0.604754 -0.0535859
  outer loop
   vertex 57.0154 169.792 153.132
   vertex 57.3405 169.437 152.32
   vertex 57.7238 168.875 152.978
  endloop
 endfacet
 facet normal 0.695281 -0.372564 -0.614639
  outer loop
   vertex 60.3513 169.704 153.01
   vertex 59.9243 168.742 153.11
   vertex 59.7221 169.681 152.312
  endloop
 endfacet
 facet normal 0.942594 -0.0737089 -0.325706
  outer loop
   vertex 59.9243 168.742 153.11
   vertex 59.6156 168.581 152.253
   vertex 59.7221 169.681 152.312
  endloop
 endfacet
 facet normal -0.653455 -0.456024 -0.604185
  outer loop
   vertex 56.5078 170.871 152.959
   vertex 56.2756 170.587 153.424
   vertex 56.0798 171.079 153.264
  endloop
 endfacet
 facet normal -0.389616 0.414303 -0.822528
  outer loop
   vertex 57.2728 170.259 152.288
   vertex 56.5078 170.871 152.959
   vertex 57.3277 171.02 152.646
  endloop
 endfacet
 facet normal -0.764647 -0.43605 -0.474527
  outer loop
   vertex 57.2728 170.259 152.288
   vertex 57.0154 169.792 153.132
   vertex 56.5078 170.871 152.959
  endloop
 endfacet
 facet normal -0.942245 0.315274 -0.11303
  outer loop
   vertex 57.2728 170.259 152.288
   vertex 57.1208 169.794 152.259
   vertex 57.0154 169.792 153.132
  endloop
 endfacet
 facet normal -0.684866 -0.418146 -0.596752
  outer loop
   vertex 56.2756 170.587 153.424
   vertex 56.5078 170.871 152.959
   vertex 57.0154 169.792 153.132
  endloop
 endfacet
 facet normal -0.492054 0.398825 -0.773836
  outer loop
   vertex 57.2728 170.259 152.288
   vertex 57.3277 171.02 152.646
   vertex 57.9083 170.917 152.223
  endloop
 endfacet
 facet normal 0.604716 0.197778 -0.771494
  outer loop
   vertex 60.3513 169.704 153.01
   vertex 60.0551 170.602 153.008
   vertex 60.5153 170.182 153.261
  endloop
 endfacet
 facet normal 0.717828 0.235348 -0.655236
  outer loop
   vertex 60.3513 169.704 153.01
   vertex 59.7221 169.681 152.312
   vertex 60.0551 170.602 153.008
  endloop
 endfacet
 facet normal 0.859761 0.0711337 -0.505719
  outer loop
   vertex 59.7221 169.681 152.312
   vertex 59.6126 170.715 152.272
   vertex 60.0551 170.602 153.008
  endloop
 endfacet
 facet normal 0.712126 0.11906 -0.691883
  outer loop
   vertex 60.8245 169.723 153.5
   vertex 60.3513 169.704 153.01
   vertex 60.5153 170.182 153.261
  endloop
 endfacet
 facet normal -0.578078 0.00967495 -0.815924
  outer loop
   vertex 56.3626 171.809 153.073
   vertex 56.5078 170.871 152.959
   vertex 56.0798 171.079 153.264
  endloop
 endfacet
 facet normal -0.639423 0.0461581 -0.767468
  outer loop
   vertex 55.9773 171.822 153.395
   vertex 56.3626 171.809 153.073
   vertex 56.0798 171.079 153.264
  endloop
 endfacet
 facet normal -0.378463 0.170242 -0.909826
  outer loop
   vertex 57.3277 171.02 152.646
   vertex 56.5078 170.871 152.959
   vertex 57.2445 171.87 152.839
  endloop
 endfacet
 facet normal -0.260104 0.0766783 -0.962531
  outer loop
   vertex 57.2445 171.87 152.839
   vertex 56.5078 170.871 152.959
   vertex 56.3626 171.809 153.073
  endloop
 endfacet
 facet normal -0.256126 0.476375 -0.84111
  outer loop
   vertex 57.9083 170.917 152.223
   vertex 58.2687 171.822 152.626
   vertex 58.5549 171.186 152.178
  endloop
 endfacet
 facet normal -0.446683 0.506264 -0.73768
  outer loop
   vertex 57.9083 170.917 152.223
   vertex 57.3277 171.02 152.646
   vertex 58.2687 171.822 152.626
  endloop
 endfacet
 facet normal -0.19074 0.200281 -0.960992
  outer loop
   vertex 57.3277 171.02 152.646
   vertex 57.2445 171.87 152.839
   vertex 58.2687 171.822 152.626
  endloop
 endfacet
 facet normal 0.10655 0.515599 -0.850179
  outer loop
   vertex 58.5549 171.186 152.178
   vertex 59.1912 171.811 152.637
   vertex 59.3259 171.189 152.277
  endloop
 endfacet
 facet normal 0.0170368 0.580328 -0.814205
  outer loop
   vertex 58.2687 171.822 152.626
   vertex 59.1912 171.811 152.637
   vertex 58.5549 171.186 152.178
  endloop
 endfacet
 facet normal 0.554728 0.503785 -0.662176
  outer loop
   vertex 59.3259 171.189 152.277
   vertex 59.1912 171.811 152.637
   vertex 59.8526 171.595 153.028
  endloop
 endfacet
 facet normal 0.638639 0.393428 -0.661328
  outer loop
   vertex 59.3259 171.189 152.277
   vertex 59.8526 171.595 153.028
   vertex 59.6126 170.715 152.272
  endloop
 endfacet
 facet normal 0.854711 0.183721 -0.485506
  outer loop
   vertex 59.6126 170.715 152.272
   vertex 59.8526 171.595 153.028
   vertex 60.0551 170.602 153.008
  endloop
 endfacet
 facet normal -0.621208 0.218939 -0.75244
  outer loop
   vertex 56.3626 171.809 153.073
   vertex 55.9773 171.822 153.395
   vertex 56.3408 172.277 153.227
  endloop
 endfacet
 facet normal -0.457934 0.427268 -0.779576
  outer loop
   vertex 56.3408 172.277 153.227
   vertex 56.7783 172.932 153.329
   vertex 57.2405 172.9 153.04
  endloop
 endfacet
 facet normal -0.374086 0.274464 -0.88585
  outer loop
   vertex 56.3408 172.277 153.227
   vertex 57.2405 172.9 153.04
   vertex 56.3626 171.809 153.073
  endloop
 endfacet
 facet normal -0.263389 0.183556 -0.947066
  outer loop
   vertex 56.3626 171.809 153.073
   vertex 57.2405 172.9 153.04
   vertex 57.2445 171.87 152.839
  endloop
 endfacet
 facet normal -0.193972 0.161212 -0.96767
  outer loop
   vertex 58.2687 171.822 152.626
   vertex 57.2445 171.87 152.839
   vertex 58.1677 172.769 152.804
  endloop
 endfacet
 facet normal -0.217634 0.185894 -0.958164
  outer loop
   vertex 58.1677 172.769 152.804
   vertex 57.2445 171.87 152.839
   vertex 57.2405 172.9 153.04
  endloop
 endfacet
 facet normal 0.0151581 0.275296 -0.96124
  outer loop
   vertex 59.1912 171.811 152.637
   vertex 58.2687 171.822 152.626
   vertex 59.3908 172.988 152.977
  endloop
 endfacet
 facet normal 0.103627 0.194423 -0.975429
  outer loop
   vertex 59.3908 172.988 152.977
   vertex 58.2687 171.822 152.626
   vertex 58.1677 172.769 152.804
  endloop
 endfacet
 facet normal 0.538032 0.148618 -0.82972
  outer loop
   vertex 59.3908 172.988 152.977
   vertex 59.8526 171.595 153.028
   vertex 59.1912 171.811 152.637
  endloop
 endfacet
 facet normal -0.363025 0.374912 -0.853026
  outer loop
   vertex 57.2405 172.9 153.04
   vertex 57.8185 173.807 153.192
   vertex 58.3425 173.739 152.94
  endloop
 endfacet
 facet normal -0.219787 0.173876 -0.959927
  outer loop
   vertex 57.2405 172.9 153.04
   vertex 58.3425 173.739 152.94
   vertex 58.1677 172.769 152.804
  endloop
 endfacet
 facet normal 0.11908 0.116459 -0.986031
  outer loop
   vertex 59.3908 172.988 152.977
   vertex 58.1677 172.769 152.804
   vertex 58.3425 173.739 152.94
  endloop
 endfacet
 facet normal -0.333871 0.468682 -0.817843
  outer loop
   vertex 58.3425 173.739 152.94
   vertex 57.8185 173.807 153.192
   vertex 58.2255 174.332 153.327
  endloop
 endfacet
 facet normal -0.346569 0.417402 -0.840039
  outer loop
   vertex 58.2255 174.332 153.327
   vertex 58.9257 174.972 153.356
   vertex 59.1557 174.645 153.099
  endloop
 endfacet
 facet normal -0.354755 0.461484 -0.81313
  outer loop
   vertex 58.2255 174.332 153.327
   vertex 59.1557 174.645 153.099
   vertex 58.3425 173.739 152.94
  endloop
 endfacet
 facet normal 0.0978317 0.0865359 -0.991434
  outer loop
   vertex 58.3425 173.739 152.94
   vertex 59.1557 174.645 153.099
   vertex 59.3908 172.988 152.977
  endloop
 endfacet
 facet normal 0.431337 0.0957857 -0.897092
  outer loop
   vertex 59.7451 174.637 153.324
   vertex 59.922 173.8 153.32
   vertex 59.3908 172.988 152.977
  endloop
 endfacet
 facet normal 0.355528 0.118387 -0.927138
  outer loop
   vertex 59.1557 174.645 153.099
   vertex 59.7451 174.637 153.324
   vertex 59.3908 172.988 152.977
  endloop
 endfacet
 facet normal -0.0054934 0.615975 -0.787747
  outer loop
   vertex 59.1557 174.645 153.099
   vertex 58.9257 174.972 153.356
   vertex 59.3613 175.589 153.836
  endloop
 endfacet
 facet normal 0.305748 0.543496 -0.781748
  outer loop
   vertex 59.7451 174.637 153.324
   vertex 59.1557 174.645 153.099
   vertex 59.3613 175.589 153.836
  endloop
 endfacet
 facet normal 0.0390597 -0.857406 0.513157
  outer loop
   vertex 58.4894 167.794 153.25
   vertex 59.2158 167.587 152.849
   vertex 59.39 167.993 153.514
  endloop
 endfacet
 facet normal 0.622753 -0.729722 0.282284
  outer loop
   vertex 59.2158 167.587 152.849
   vertex 59.6241 167.96 152.914
   vertex 59.39 167.993 153.514
  endloop
 endfacet
 facet normal -0.546288 -0.655561 0.521353
  outer loop
   vertex 58.4894 167.794 153.25
   vertex 58.671 168.48 154.303
   vertex 57.9299 168.853 153.995
  endloop
 endfacet
 facet normal -0.66957 -0.630333 0.392882
  outer loop
   vertex 58.4894 167.794 153.25
   vertex 57.9299 168.853 153.995
   vertex 58.0486 168.039 152.893
  endloop
 endfacet
 facet normal -0.911187 -0.372266 0.176512
  outer loop
   vertex 58.0486 168.039 152.893
   vertex 57.9299 168.853 153.995
   vertex 57.7238 168.875 152.978
  endloop
 endfacet
 facet normal 0.0265834 -0.839684 0.542425
  outer loop
   vertex 59.39 167.993 153.514
   vertex 58.671 168.48 154.303
   vertex 58.4894 167.794 153.25
  endloop
 endfacet
 facet normal -0.0804516 -0.879347 0.469336
  outer loop
   vertex 59.5619 168.408 154.322
   vertex 58.671 168.48 154.303
   vertex 59.39 167.993 153.514
  endloop
 endfacet
 facet normal 0.841478 -0.411259 0.350402
  outer loop
   vertex 59.39 167.993 153.514
   vertex 59.6241 167.96 152.914
   vertex 59.9243 168.742 153.11
  endloop
 endfacet
 facet normal 0.607617 -0.666185 -0.432434
  outer loop
   vertex 59.39 167.993 153.514
   vertex 59.9243 168.742 153.11
   vertex 60.3196 168.493 154.05
  endloop
 endfacet
 facet normal 0.242957 -0.882711 0.402235
  outer loop
   vertex 59.39 167.993 153.514
   vertex 60.3196 168.493 154.05
   vertex 59.5619 168.408 154.322
  endloop
 endfacet
 facet normal 0.509556 -0.754017 -0.4145
  outer loop
   vertex 60.7041 168.916 153.753
   vertex 60.3196 168.493 154.05
   vertex 59.9243 168.742 153.11
  endloop
 endfacet
 facet normal 0.0614109 -0.875384 -0.479511
  outer loop
   vertex 60.7041 168.916 153.753
   vertex 61.3824 168.789 154.071
   vertex 61.2191 168.696 154.22
  endloop
 endfacet
 facet normal 0.28252 -0.70958 -0.645507
  outer loop
   vertex 60.3196 168.493 154.05
   vertex 60.7041 168.916 153.753
   vertex 61.2191 168.696 154.22
  endloop
 endfacet
 facet normal 0.224486 -0.917841 -0.327373
  outer loop
   vertex 61.2191 168.696 154.22
   vertex 61.3824 168.789 154.071
   vertex 61.5137 168.784 154.177
  endloop
 endfacet
 facet normal -0.577198 -0.816363 0.0198636
  outer loop
   vertex 57.0154 169.792 153.132
   vertex 57.1785 169.704 154.239
   vertex 56.7364 170.008 153.888
  endloop
 endfacet
 facet normal -0.771613 -0.619866 0.142758
  outer loop
   vertex 57.9299 168.853 153.995
   vertex 57.0154 169.792 153.132
   vertex 57.7238 168.875 152.978
  endloop
 endfacet
 facet normal -0.740574 -0.669667 0.0556535
  outer loop
   vertex 57.1785 169.704 154.239
   vertex 57.0154 169.792 153.132
   vertex 57.9299 168.853 153.995
  endloop
 endfacet
 facet normal 0.64048 -0.355138 -0.680927
  outer loop
   vertex 59.9243 168.742 153.11
   vertex 60.3513 169.704 153.01
   vertex 60.7041 168.916 153.753
  endloop
 endfacet
 facet normal 0.43601 0.0894433 -0.895486
  outer loop
   vertex 61.3267 169.004 154.065
   vertex 61.3824 168.789 154.071
   vertex 60.7041 168.916 153.753
  endloop
 endfacet
 facet normal 0.460086 -0.327019 -0.825457
  outer loop
   vertex 61.3267 169.004 154.065
   vertex 60.7041 168.916 153.753
   vertex 60.8245 169.723 153.5
  endloop
 endfacet
 facet normal 0.875202 0.41123 -0.254778
  outer loop
   vertex 61.3267 169.004 154.065
   vertex 60.8245 169.723 153.5
   vertex 61.1227 169.609 154.34
  endloop
 endfacet
 facet normal 0.690517 -0.307869 -0.654525
  outer loop
   vertex 60.3513 169.704 153.01
   vertex 60.8245 169.723 153.5
   vertex 60.7041 168.916 153.753
  endloop
 endfacet
 facet normal 0.626736 0.142261 -0.766135
  outer loop
   vertex 61.5137 168.784 154.177
   vertex 61.3824 168.789 154.071
   vertex 61.3267 169.004 154.065
  endloop
 endfacet
 facet normal -0.744525 -0.667383 -0.0167927
  outer loop
   vertex 56.2756 170.587 153.424
   vertex 56.3866 170.442 154.267
   vertex 55.8535 171.043 154.024
  endloop
 endfacet
 facet normal -0.858838 -0.43128 -0.276396
  outer loop
   vertex 56.0798 171.079 153.264
   vertex 56.2756 170.587 153.424
   vertex 55.8535 171.043 154.024
  endloop
 endfacet
 facet normal -0.744822 -0.661691 -0.0860543
  outer loop
   vertex 56.7364 170.008 153.888
   vertex 56.2756 170.587 153.424
   vertex 57.0154 169.792 153.132
  endloop
 endfacet
 facet normal -0.780608 -0.625003 -0.00474458
  outer loop
   vertex 56.3866 170.442 154.267
   vertex 56.2756 170.587 153.424
   vertex 56.7364 170.008 153.888
  endloop
 endfacet
 facet normal 0.688361 0.382661 -0.616222
  outer loop
   vertex 60.5153 170.182 153.261
   vertex 60.0551 170.602 153.008
   vertex 60.8376 170.673 153.926
  endloop
 endfacet
 facet normal 0.791665 0.240772 -0.561511
  outer loop
   vertex 60.5153 170.182 153.261
   vertex 60.8376 170.673 153.926
   vertex 60.8245 169.723 153.5
  endloop
 endfacet
 facet normal 0.939873 0.128795 -0.316307
  outer loop
   vertex 60.8245 169.723 153.5
   vertex 60.8376 170.673 153.926
   vertex 61.1227 169.609 154.34
  endloop
 endfacet
 facet normal -0.660472 -0.510172 -0.550909
  outer loop
   vertex 55.3213 171.971 153.976
   vertex 55.209 171.579 154.473
   vertex 54.935 172.121 154.3
  endloop
 endfacet
 facet normal -0.730819 -0.446279 -0.516467
  outer loop
   vertex 55.3213 171.971 153.976
   vertex 55.8535 171.043 154.024
   vertex 55.209 171.579 154.473
  endloop
 endfacet
 facet normal -0.655331 -0.409206 -0.634895
  outer loop
   vertex 55.3213 171.971 153.976
   vertex 55.9773 171.822 153.395
   vertex 55.8535 171.043 154.024
  endloop
 endfacet
 facet normal -0.954179 -0.0812965 -0.287981
  outer loop
   vertex 55.9773 171.822 153.395
   vertex 56.0798 171.079 153.264
   vertex 55.8535 171.043 154.024
  endloop
 endfacet
 facet normal 0.713841 0.085092 -0.695119
  outer loop
   vertex 60.8376 170.673 153.926
   vertex 59.8526 171.595 153.028
   vertex 60.5843 171.882 153.814
  endloop
 endfacet
 facet normal 0.744388 0.164378 -0.647198
  outer loop
   vertex 60.0551 170.602 153.008
   vertex 59.8526 171.595 153.028
   vertex 60.8376 170.673 153.926
  endloop
 endfacet
 facet normal -0.637282 0.0221925 -0.770311
  outer loop
   vertex 55.2161 172.837 154.088
   vertex 55.3213 171.971 153.976
   vertex 54.935 172.121 154.3
  endloop
 endfacet
 facet normal -0.768853 0.115686 -0.628874
  outer loop
   vertex 54.8787 172.927 154.517
   vertex 55.2161 172.837 154.088
   vertex 54.935 172.121 154.3
  endloop
 endfacet
 facet normal -0.691569 0.312516 -0.651203
  outer loop
   vertex 55.9773 171.822 153.395
   vertex 56.0787 172.82 153.766
   vertex 56.3408 172.277 153.227
  endloop
 endfacet
 facet normal -0.581167 0.334946 -0.741658
  outer loop
   vertex 55.9773 171.822 153.395
   vertex 55.3213 171.971 153.976
   vertex 56.0787 172.82 153.766
  endloop
 endfacet
 facet normal -0.347277 0.0786517 -0.934458
  outer loop
   vertex 55.3213 171.971 153.976
   vertex 55.2161 172.837 154.088
   vertex 56.0787 172.82 153.766
  endloop
 endfacet
 facet normal -0.522059 0.460509 -0.717904
  outer loop
   vertex 56.3408 172.277 153.227
   vertex 56.0787 172.82 153.766
   vertex 56.7783 172.932 153.329
  endloop
 endfacet
 facet normal 0.595551 0.0356625 -0.802525
  outer loop
   vertex 60.5843 171.882 153.814
   vertex 59.3908 172.988 152.977
   vertex 60.5672 173.043 153.853
  endloop
 endfacet
 facet normal 0.679934 0.200162 -0.705425
  outer loop
   vertex 59.8526 171.595 153.028
   vertex 59.3908 172.988 152.977
   vertex 60.5843 171.882 153.814
  endloop
 endfacet
 facet normal -0.752894 0.186529 -0.631156
  outer loop
   vertex 55.2161 172.837 154.088
   vertex 54.8787 172.927 154.517
   vertex 55.1559 173.247 154.281
  endloop
 endfacet
 facet normal -0.320126 0.36447 -0.87446
  outer loop
   vertex 55.1559 173.247 154.281
   vertex 55.857 173.7 154.213
   vertex 55.2161 172.837 154.088
  endloop
 endfacet
 facet normal -0.31937 0.363978 -0.874941
  outer loop
   vertex 55.2161 172.837 154.088
   vertex 55.857 173.7 154.213
   vertex 56.0787 172.82 153.766
  endloop
 endfacet
 facet normal -0.427293 0.518834 -0.740427
  outer loop
   vertex 56.7783 172.932 153.329
   vertex 57.0594 173.755 153.744
   vertex 57.2405 172.9 153.04
  endloop
 endfacet
 facet normal -0.5109 0.519421 -0.684969
  outer loop
   vertex 56.7783 172.932 153.329
   vertex 56.0787 172.82 153.766
   vertex 57.0594 173.755 153.744
  endloop
 endfacet
 facet normal -0.354285 0.351027 -0.866754
  outer loop
   vertex 56.0787 172.82 153.766
   vertex 55.857 173.7 154.213
   vertex 57.0594 173.755 153.744
  endloop
 endfacet
 facet normal -0.541138 0.463063 -0.701955
  outer loop
   vertex 57.2405 172.9 153.04
   vertex 57.0594 173.755 153.744
   vertex 57.8185 173.807 153.192
  endloop
 endfacet
 facet normal 0.663885 0.0396889 -0.74678
  outer loop
   vertex 60.5672 173.043 153.853
   vertex 59.922 173.8 153.32
   vertex 60.4231 174.156 153.784
  endloop
 endfacet
 facet normal 0.597777 -0.0540925 -0.799836
  outer loop
   vertex 59.3908 172.988 152.977
   vertex 59.922 173.8 153.32
   vertex 60.5672 173.043 153.853
  endloop
 endfacet
 facet normal 0.736744 0.0536306 -0.674042
  outer loop
   vertex 60.4231 174.156 153.784
   vertex 60.978 173.992 154.377
   vertex 60.5672 173.043 153.853
  endloop
 endfacet
 facet normal -0.288031 0.697855 -0.655772
  outer loop
   vertex 57.0594 173.755 153.744
   vertex 55.857 173.7 154.213
   vertex 56.3617 174.128 154.446
  endloop
 endfacet
 facet normal -0.3514 0.636749 -0.686345
  outer loop
   vertex 57.443 174.378 154.125
   vertex 57.0594 173.755 153.744
   vertex 56.3617 174.128 154.446
  endloop
 endfacet
 facet normal -0.559955 0.714112 -0.420112
  outer loop
   vertex 58.3982 174.947 153.819
   vertex 57.443 174.378 154.125
   vertex 58.2839 175.16 154.333
  endloop
 endfacet
 facet normal -0.547237 0.611022 -0.572
  outer loop
   vertex 58.2255 174.332 153.327
   vertex 57.443 174.378 154.125
   vertex 58.3982 174.947 153.819
  endloop
 endfacet
 facet normal -0.519845 0.655567 -0.547716
  outer loop
   vertex 58.2255 174.332 153.327
   vertex 57.0594 173.755 153.744
   vertex 57.443 174.378 154.125
  endloop
 endfacet
 facet normal -0.510459 0.562431 -0.650464
  outer loop
   vertex 58.2255 174.332 153.327
   vertex 57.8185 173.807 153.192
   vertex 57.0594 173.755 153.744
  endloop
 endfacet
 facet normal -0.53659 0.613738 -0.579135
  outer loop
   vertex 58.2255 174.332 153.327
   vertex 58.3982 174.947 153.819
   vertex 58.9257 174.972 153.356
  endloop
 endfacet
 facet normal 0.616297 0.125076 -0.777518
  outer loop
   vertex 60.4231 174.156 153.784
   vertex 59.7451 174.637 153.324
   vertex 60.3455 175.144 153.881
  endloop
 endfacet
 facet normal 0.620146 0.135047 -0.772775
  outer loop
   vertex 59.922 173.8 153.32
   vertex 59.7451 174.637 153.324
   vertex 60.4231 174.156 153.784
  endloop
 endfacet
 facet normal 0.738666 0.0752277 -0.669861
  outer loop
   vertex 60.7705 174.884 154.249
   vertex 60.978 173.992 154.377
   vertex 60.4231 174.156 153.784
  endloop
 endfacet
 facet normal 0.691387 0.124489 -0.711678
  outer loop
   vertex 60.3455 175.144 153.881
   vertex 60.7705 174.884 154.249
   vertex 60.4231 174.156 153.784
  endloop
 endfacet
 facet normal -0.511533 0.687283 -0.515728
  outer loop
   vertex 59.3613 175.589 153.836
   vertex 58.2839 175.16 154.333
   vertex 59.055 175.868 154.512
  endloop
 endfacet
 facet normal -0.49695 0.757178 -0.423936
  outer loop
   vertex 59.3613 175.589 153.836
   vertex 58.3982 174.947 153.819
   vertex 58.2839 175.16 154.333
  endloop
 endfacet
 facet normal -0.473564 0.724041 -0.5015
  outer loop
   vertex 59.3613 175.589 153.836
   vertex 58.9257 174.972 153.356
   vertex 58.3982 174.947 153.819
  endloop
 endfacet
 facet normal 0.280923 0.539817 -0.793524
  outer loop
   vertex 59.3613 175.589 153.836
   vertex 60.3455 175.144 153.881
   vertex 59.7451 174.637 153.324
  endloop
 endfacet
 facet normal 0.14331 0.21783 -0.965408
  outer loop
   vertex 59.3613 175.589 153.836
   vertex 60.2864 175.911 154.046
   vertex 60.3455 175.144 153.881
  endloop
 endfacet
 facet normal 0.676696 0.0704023 -0.732889
  outer loop
   vertex 60.8545 175.752 154.41
   vertex 60.7705 174.884 154.249
   vertex 60.3455 175.144 153.881
  endloop
 endfacet
 facet normal 0.568817 0.213883 -0.794167
  outer loop
   vertex 60.2864 175.911 154.046
   vertex 60.8545 175.752 154.41
   vertex 60.3455 175.144 153.881
  endloop
 endfacet
 facet normal -0.437868 0.743426 -0.505559
  outer loop
   vertex 59.3613 175.589 153.836
   vertex 59.055 175.868 154.512
   vertex 59.7082 176.157 154.372
  endloop
 endfacet
 facet normal -0.0897528 0.711482 -0.696949
  outer loop
   vertex 60.2864 175.911 154.046
   vertex 59.3613 175.589 153.836
   vertex 59.7082 176.157 154.372
  endloop
 endfacet
 facet normal 0.0491099 0.836849 -0.545226
  outer loop
   vertex 60.6175 176.183 154.493
   vertex 60.2864 175.911 154.046
   vertex 59.7082 176.157 154.372
  endloop
 endfacet
 facet normal 0.568092 0.446155 -0.691533
  outer loop
   vertex 60.8545 175.752 154.41
   vertex 60.2864 175.911 154.046
   vertex 60.6175 176.183 154.493
  endloop
 endfacet
 facet normal -0.290866 -0.860898 0.417435
  outer loop
   vertex 59.0455 168.785 155.194
   vertex 58.671 168.48 154.303
   vertex 59.5049 168.616 155.164
  endloop
 endfacet
 facet normal -0.0825618 -0.968993 0.232886
  outer loop
   vertex 59.5049 168.616 155.164
   vertex 58.671 168.48 154.303
   vertex 59.5619 168.408 154.322
  endloop
 endfacet
 facet normal 0.151472 -0.981554 0.116653
  outer loop
   vertex 60.3196 168.493 154.05
   vertex 60.4837 168.623 154.931
   vertex 59.5619 168.408 154.322
  endloop
 endfacet
 facet normal 0.0651027 -0.967936 0.242614
  outer loop
   vertex 59.5619 168.408 154.322
   vertex 60.4837 168.623 154.931
   vertex 59.5049 168.616 155.164
  endloop
 endfacet
 facet normal 0.445157 -0.837618 0.316593
  outer loop
   vertex 61.3009 168.861 154.411
   vertex 60.9067 168.977 155.273
   vertex 60.4837 168.623 154.931
  endloop
 endfacet
 facet normal 0.495393 -0.751959 0.434906
  outer loop
   vertex 61.3009 168.861 154.411
   vertex 60.4837 168.623 154.931
   vertex 61.2191 168.696 154.22
  endloop
 endfacet
 facet normal 0.2001 -0.973973 0.106472
  outer loop
   vertex 61.2191 168.696 154.22
   vertex 60.4837 168.623 154.931
   vertex 60.3196 168.493 154.05
  endloop
 endfacet
 facet normal 0.310095 -0.782331 0.540184
  outer loop
   vertex 61.2191 168.696 154.22
   vertex 61.5137 168.784 154.177
   vertex 61.3009 168.861 154.411
  endloop
 endfacet
 facet normal -0.606533 -0.661776 0.440648
  outer loop
   vertex 57.9299 168.853 153.995
   vertex 57.8154 169.655 155.043
   vertex 57.1785 169.704 154.239
  endloop
 endfacet
 facet normal -0.599233 -0.665812 0.444538
  outer loop
   vertex 57.9299 168.853 153.995
   vertex 58.4137 169.251 155.244
   vertex 57.8154 169.655 155.043
  endloop
 endfacet
 facet normal -0.542579 -0.716343 0.438704
  outer loop
   vertex 57.9299 168.853 153.995
   vertex 58.671 168.48 154.303
   vertex 58.4137 169.251 155.244
  endloop
 endfacet
 facet normal -0.502319 -0.731059 0.461767
  outer loop
   vertex 59.0455 168.785 155.194
   vertex 58.4137 169.251 155.244
   vertex 58.671 168.48 154.303
  endloop
 endfacet
 facet normal 0.7325 -0.511567 -0.449158
  outer loop
   vertex 61.5526 169.503 155.161
   vertex 61.1227 169.609 154.34
   vertex 61.6516 169.968 154.793
  endloop
 endfacet
 facet normal 0.543359 -0.748231 -0.380673
  outer loop
   vertex 61.5526 169.503 155.161
   vertex 60.9067 168.977 155.273
   vertex 61.1227 169.609 154.34
  endloop
 endfacet
 facet normal 0.954375 0.243933 0.172235
  outer loop
   vertex 61.3267 169.004 154.065
   vertex 61.1227 169.609 154.34
   vertex 61.3009 168.861 154.411
  endloop
 endfacet
 facet normal 0.893007 0.248721 0.375068
  outer loop
   vertex 61.3009 168.861 154.411
   vertex 61.1227 169.609 154.34
   vertex 60.9067 168.977 155.273
  endloop
 endfacet
 facet normal 0.364057 -0.52082 -0.772146
  outer loop
   vertex 61.6516 169.968 154.793
   vertex 62.3871 170.026 155.101
   vertex 62.3153 169.731 155.266
  endloop
 endfacet
 facet normal 0.287409 -0.63146 -0.720177
  outer loop
   vertex 61.6516 169.968 154.793
   vertex 62.3153 169.731 155.266
   vertex 61.5526 169.503 155.161
  endloop
 endfacet
 facet normal 0.626651 0.702377 0.337603
  outer loop
   vertex 61.3009 168.861 154.411
   vertex 61.5137 168.784 154.177
   vertex 61.3267 169.004 154.065
  endloop
 endfacet
 facet normal 0.0842256 -0.50225 -0.860611
  outer loop
   vertex 62.3153 169.731 155.266
   vertex 62.3871 170.026 155.101
   vertex 62.6262 169.839 155.233
  endloop
 endfacet
 facet normal -0.756616 -0.652134 0.0474668
  outer loop
   vertex 55.8535 171.043 154.024
   vertex 56.3866 170.442 154.267
   vertex 56.1754 170.752 155.168
  endloop
 endfacet
 facet normal -0.662323 -0.718682 0.211717
  outer loop
   vertex 57.1785 169.704 154.239
   vertex 56.3866 170.442 154.267
   vertex 56.7364 170.008 153.888
  endloop
 endfacet
 facet normal -0.624776 -0.68461 0.375451
  outer loop
   vertex 57.1785 169.704 154.239
   vertex 57.1561 170.234 155.169
   vertex 56.3866 170.442 154.267
  endloop
 endfacet
 facet normal -0.458726 -0.867654 0.191693
  outer loop
   vertex 57.1561 170.234 155.169
   vertex 56.1754 170.752 155.168
   vertex 56.3866 170.442 154.267
  endloop
 endfacet
 facet normal -0.560315 -0.7252 0.400164
  outer loop
   vertex 57.8154 169.655 155.043
   vertex 57.1561 170.234 155.169
   vertex 57.1785 169.704 154.239
  endloop
 endfacet
 facet normal 0.71842 -0.025109 -0.695156
  outer loop
   vertex 61.6516 169.968 154.793
   vertex 60.8376 170.673 153.926
   vertex 61.6196 170.929 154.725
  endloop
 endfacet
 facet normal 0.684766 -0.0972979 -0.722239
  outer loop
   vertex 61.1227 169.609 154.34
   vertex 60.8376 170.673 153.926
   vertex 61.6516 169.968 154.793
  endloop
 endfacet
 facet normal 0.593669 0.487208 -0.640457
  outer loop
   vertex 62.2388 170.604 155.403
   vertex 62.5605 170.005 155.246
   vertex 62.3871 170.026 155.101
  endloop
 endfacet
 facet normal 0.75741 0.444372 -0.478396
  outer loop
   vertex 62.2388 170.604 155.403
   vertex 62.3871 170.026 155.101
   vertex 61.6196 170.929 154.725
  endloop
 endfacet
 facet normal 0.389076 -0.0519023 -0.919743
  outer loop
   vertex 61.6196 170.929 154.725
   vertex 62.3871 170.026 155.101
   vertex 61.6516 169.968 154.793
  endloop
 endfacet
 facet normal 0.631883 0.304495 -0.712746
  outer loop
   vertex 62.6262 169.839 155.233
   vertex 62.3871 170.026 155.101
   vertex 62.5605 170.005 155.246
  endloop
 endfacet
 facet normal -0.760872 -0.648848 0.00839046
  outer loop
   vertex 55.209 171.579 154.473
   vertex 55.2825 171.505 155.426
   vertex 54.81 172.054 155.055
  endloop
 endfacet
 facet normal -0.852184 -0.48969 -0.184355
  outer loop
   vertex 54.935 172.121 154.3
   vertex 55.209 171.579 154.473
   vertex 54.81 172.054 155.055
  endloop
 endfacet
 facet normal -0.644623 -0.764398 -0.0125575
  outer loop
   vertex 56.1754 170.752 155.168
   vertex 55.209 171.579 154.473
   vertex 55.8535 171.043 154.024
  endloop
 endfacet
 facet normal -0.645983 -0.763295 -0.00935292
  outer loop
   vertex 55.2825 171.505 155.426
   vertex 55.209 171.579 154.473
   vertex 56.1754 170.752 155.168
  endloop
 endfacet
 facet normal 0.680725 0.0403136 -0.731429
  outer loop
   vertex 61.6196 170.929 154.725
   vertex 60.5843 171.882 153.814
   vertex 61.4773 172.101 154.657
  endloop
 endfacet
 facet normal 0.699228 0.0806173 -0.710339
  outer loop
   vertex 60.8376 170.673 153.926
   vertex 60.5843 171.882 153.814
   vertex 61.6196 170.929 154.725
  endloop
 endfacet
 facet normal 0.740032 0.00612577 -0.672543
  outer loop
   vertex 62.1402 171.669 155.305
   vertex 62.2388 170.604 155.403
   vertex 61.6196 170.929 154.725
  endloop
 endfacet
 facet normal 0.713173 0.0461124 -0.699469
  outer loop
   vertex 61.4773 172.101 154.657
   vertex 62.1402 171.669 155.305
   vertex 61.6196 170.929 154.725
  endloop
 endfacet
 facet normal -0.985923 -0.0244118 -0.165409
  outer loop
   vertex 54.935 172.121 154.3
   vertex 54.81 172.054 155.055
   vertex 54.8787 172.927 154.517
  endloop
 endfacet
 facet normal -0.975625 -0.054329 -0.212612
  outer loop
   vertex 54.81 172.054 155.055
   vertex 54.705 172.809 155.344
   vertex 54.8787 172.927 154.517
  endloop
 endfacet
 facet normal 0.689773 0.0497026 -0.722318
  outer loop
   vertex 61.4773 172.101 154.657
   vertex 60.5672 173.043 153.853
   vertex 61.4626 173.076 154.71
  endloop
 endfacet
 facet normal 0.681628 0.0345286 -0.730883
  outer loop
   vertex 60.5843 171.882 153.814
   vertex 60.5672 173.043 153.853
   vertex 61.4773 172.101 154.657
  endloop
 endfacet
 facet normal 0.724492 0.0871097 -0.683756
  outer loop
   vertex 62.0743 172.838 155.384
   vertex 62.1402 171.669 155.305
   vertex 61.4773 172.101 154.657
  endloop
 endfacet
 facet normal 0.747647 0.0473161 -0.662408
  outer loop
   vertex 61.4626 173.076 154.71
   vertex 62.0743 172.838 155.384
   vertex 61.4773 172.101 154.657
  endloop
 endfacet
 facet normal -0.812386 0.371843 -0.449179
  outer loop
   vertex 55.1135 173.718 154.747
   vertex 55.1559 173.247 154.281
   vertex 54.8787 172.927 154.517
  endloop
 endfacet
 facet normal -0.856654 0.361415 -0.368134
  outer loop
   vertex 55.1135 173.718 154.747
   vertex 54.8787 172.927 154.517
   vertex 54.8267 173.691 155.388
  endloop
 endfacet
 facet normal -0.972452 0.143391 -0.183785
  outer loop
   vertex 54.8267 173.691 155.388
   vertex 54.8787 172.927 154.517
   vertex 54.705 172.809 155.344
  endloop
 endfacet
 facet normal -0.454446 0.605933 -0.652935
  outer loop
   vertex 55.1559 173.247 154.281
   vertex 55.1135 173.718 154.747
   vertex 55.857 173.7 154.213
  endloop
 endfacet
 facet normal 0.759285 0.173889 -0.627095
  outer loop
   vertex 61.4626 173.076 154.71
   vertex 60.978 173.992 154.377
   vertex 61.7302 174.003 155.291
  endloop
 endfacet
 facet normal 0.686081 0.101222 -0.720449
  outer loop
   vertex 60.5672 173.043 153.853
   vertex 60.978 173.992 154.377
   vertex 61.4626 173.076 154.71
  endloop
 endfacet
 facet normal 0.75879 0.174331 -0.627571
  outer loop
   vertex 61.7302 174.003 155.291
   vertex 62.0743 172.838 155.384
   vertex 61.4626 173.076 154.71
  endloop
 endfacet
 facet normal -0.638424 0.726091 -0.255355
  outer loop
   vertex 55.1135 173.718 154.747
   vertex 54.8267 173.691 155.388
   vertex 55.3988 174.126 155.193
  endloop
 endfacet
 facet normal -0.34329 0.792288 -0.504413
  outer loop
   vertex 55.857 173.7 154.213
   vertex 55.1135 173.718 154.747
   vertex 55.3988 174.126 155.193
  endloop
 endfacet
 facet normal -0.402069 0.75621 -0.516224
  outer loop
   vertex 55.857 173.7 154.213
   vertex 55.3988 174.126 155.193
   vertex 56.3617 174.128 154.446
  endloop
 endfacet
 facet normal -0.162731 0.96469 -0.207104
  outer loop
   vertex 56.3617 174.128 154.446
   vertex 55.3988 174.126 155.193
   vertex 56.2842 174.303 155.323
  endloop
 endfacet
 facet normal -0.27717 0.939938 -0.19923
  outer loop
   vertex 57.443 174.378 154.125
   vertex 56.3617 174.128 154.446
   vertex 57.2373 174.508 155.024
  endloop
 endfacet
 facet normal -0.268962 0.939648 -0.211475
  outer loop
   vertex 56.3617 174.128 154.446
   vertex 56.2842 174.303 155.323
   vertex 57.2373 174.508 155.024
  endloop
 endfacet
 facet normal -0.625355 0.739233 -0.249931
  outer loop
   vertex 57.2373 174.508 155.024
   vertex 58.2839 175.16 154.333
   vertex 57.443 174.378 154.125
  endloop
 endfacet
 facet normal -0.564003 0.821988 -0.0789641
  outer loop
   vertex 58.2294 175.218 155.326
   vertex 58.2839 175.16 154.333
   vertex 57.2373 174.508 155.024
  endloop
 endfacet
 facet normal 0.727699 0.37637 -0.57341
  outer loop
   vertex 61.7302 174.003 155.291
   vertex 61.1225 175.073 155.223
   vertex 61.5767 174.574 155.471
  endloop
 endfacet
 facet normal 0.715648 0.368244 -0.593502
  outer loop
   vertex 61.7302 174.003 155.291
   vertex 60.978 173.992 154.377
   vertex 61.1225 175.073 155.223
  endloop
 endfacet
 facet normal 0.917754 0.161077 -0.363017
  outer loop
   vertex 60.978 173.992 154.377
   vertex 60.7705 174.884 154.249
   vertex 61.1225 175.073 155.223
  endloop
 endfacet
 facet normal -0.664089 0.743375 -0.0798707
  outer loop
   vertex 58.2294 175.218 155.326
   vertex 59.055 175.868 154.512
   vertex 58.2839 175.16 154.333
  endloop
 endfacet
 facet normal -0.637333 0.769945 -0.0314921
  outer loop
   vertex 59.0406 175.894 155.442
   vertex 59.055 175.868 154.512
   vertex 58.2294 175.218 155.326
  endloop
 endfacet
 facet normal 0.768525 -0.250645 -0.588682
  outer loop
   vertex 61.3675 175.742 155.084
   vertex 60.8545 175.752 154.41
   vertex 61.4079 176.02 155.018
  endloop
 endfacet
 facet normal 0.731635 -0.384843 -0.562678
  outer loop
   vertex 61.3675 175.742 155.084
   vertex 61.1225 175.073 155.223
   vertex 60.8545 175.752 154.41
  endloop
 endfacet
 facet normal 0.941837 -0.0290595 -0.334812
  outer loop
   vertex 61.1225 175.073 155.223
   vertex 60.7705 174.884 154.249
   vertex 60.8545 175.752 154.41
  endloop
 endfacet
 facet normal -0.50745 0.861085 -0.0320577
  outer loop
   vertex 59.055 175.868 154.512
   vertex 59.0406 175.894 155.442
   vertex 59.57 176.198 155.22
  endloop
 endfacet
 facet normal -0.422385 0.899498 -0.111778
  outer loop
   vertex 59.7082 176.157 154.372
   vertex 59.055 175.868 154.512
   vertex 59.57 176.198 155.22
  endloop
 endfacet
 facet normal -0.010404 0.990961 -0.133745
  outer loop
   vertex 60.6175 176.183 154.493
   vertex 59.7082 176.157 154.372
   vertex 60.363 176.264 155.108
  endloop
 endfacet
 facet normal -0.0911184 0.993884 -0.0623863
  outer loop
   vertex 59.7082 176.157 154.372
   vertex 59.57 176.198 155.22
   vertex 60.363 176.264 155.108
  endloop
 endfacet
 facet normal 0.557632 0.442496 -0.702314
  outer loop
   vertex 61.4079 176.02 155.018
   vertex 60.8545 175.752 154.41
   vertex 60.6175 176.183 154.493
  endloop
 endfacet
 facet normal 0.340774 0.911627 -0.229803
  outer loop
   vertex 61.4079 176.02 155.018
   vertex 60.6175 176.183 154.493
   vertex 61.1514 176.189 155.306
  endloop
 endfacet
 facet normal 0.114738 0.990022 -0.0817997
  outer loop
   vertex 61.1514 176.189 155.306
   vertex 60.6175 176.183 154.493
   vertex 60.363 176.264 155.108
  endloop
 endfacet
 facet normal -0.317861 -0.908523 0.2712
  outer loop
   vertex 59.0455 168.785 155.194
   vertex 59.5049 168.616 155.164
   vertex 59.3707 168.895 155.944
  endloop
 endfacet
 facet normal 0.0427224 -0.988032 0.148217
  outer loop
   vertex 60.4837 168.623 154.931
   vertex 60.3067 168.758 155.885
   vertex 59.5049 168.616 155.164
  endloop
 endfacet
 facet normal -0.117641 -0.940991 0.317326
  outer loop
   vertex 59.5049 168.616 155.164
   vertex 60.3067 168.758 155.885
   vertex 59.3707 168.895 155.944
  endloop
 endfacet
 facet normal 0.519572 -0.827226 0.213872
  outer loop
   vertex 60.3067 168.758 155.885
   vertex 60.4837 168.623 154.931
   vertex 60.9067 168.977 155.273
  endloop
 endfacet
 facet normal 0.486501 -0.856807 0.170874
  outer loop
   vertex 60.725 169.063 156.222
   vertex 60.3067 168.758 155.885
   vertex 60.9067 168.977 155.273
  endloop
 endfacet
 facet normal -0.585305 -0.747336 0.314494
  outer loop
   vertex 58.4137 169.251 155.244
   vertex 58.5544 169.495 156.086
   vertex 58.0052 169.845 155.896
  endloop
 endfacet
 facet normal -0.601152 -0.741127 0.298909
  outer loop
   vertex 57.8154 169.655 155.043
   vertex 58.4137 169.251 155.244
   vertex 58.0052 169.845 155.896
  endloop
 endfacet
 facet normal -0.538692 -0.768008 0.346375
  outer loop
   vertex 59.3707 168.895 155.944
   vertex 58.4137 169.251 155.244
   vertex 59.0455 168.785 155.194
  endloop
 endfacet
 facet normal -0.52516 -0.789853 0.316765
  outer loop
   vertex 58.5544 169.495 156.086
   vertex 58.4137 169.251 155.244
   vertex 59.3707 168.895 155.944
  endloop
 endfacet
 facet normal 0.485238 -0.857558 0.170701
  outer loop
   vertex 60.9067 168.977 155.273
   vertex 61.6239 169.522 155.973
   vertex 60.725 169.063 156.222
  endloop
 endfacet
 facet normal 0.627086 -0.7781 -0.036385
  outer loop
   vertex 61.5526 169.503 155.161
   vertex 61.6239 169.522 155.973
   vertex 60.9067 168.977 155.273
  endloop
 endfacet
 facet normal 0.564083 -0.740811 0.364705
  outer loop
   vertex 62.4211 169.882 155.471
   vertex 62.0224 169.991 156.308
   vertex 61.6239 169.522 155.973
  endloop
 endfacet
 facet normal 0.542667 -0.784878 0.29913
  outer loop
   vertex 62.4211 169.882 155.471
   vertex 61.6239 169.522 155.973
   vertex 62.3153 169.731 155.266
  endloop
 endfacet
 facet normal 0.286586 -0.958052 -0.00215919
  outer loop
   vertex 62.3153 169.731 155.266
   vertex 61.6239 169.522 155.973
   vertex 61.5526 169.503 155.161
  endloop
 endfacet
 facet normal 0.337261 -0.83225 0.440017
  outer loop
   vertex 62.3153 169.731 155.266
   vertex 62.6262 169.839 155.233
   vertex 62.4211 169.882 155.471
  endloop
 endfacet
 facet normal -0.371731 -0.840391 0.394411
  outer loop
   vertex 56.7752 170.957 156.17
   vertex 56.0735 171.034 155.671
   vertex 56.1754 170.752 155.168
  endloop
 endfacet
 facet normal -0.551478 -0.688539 0.470942
  outer loop
   vertex 56.7752 170.957 156.17
   vertex 56.1754 170.752 155.168
   vertex 57.2692 170.468 156.032
  endloop
 endfacet
 facet normal -0.447757 -0.846598 0.287723
  outer loop
   vertex 57.2692 170.468 156.032
   vertex 56.1754 170.752 155.168
   vertex 57.1561 170.234 155.169
  endloop
 endfacet
 facet normal -0.596873 -0.744645 0.298741
  outer loop
   vertex 58.0052 169.845 155.896
   vertex 57.1561 170.234 155.169
   vertex 57.8154 169.655 155.043
  endloop
 endfacet
 facet normal -0.588579 -0.757622 0.282104
  outer loop
   vertex 57.2692 170.468 156.032
   vertex 57.1561 170.234 155.169
   vertex 58.0052 169.845 155.896
  endloop
 endfacet
 facet normal 0.857425 -0.358337 -0.369346
  outer loop
   vertex 62.5605 170.54 156.213
   vertex 62.2388 170.604 155.403
   vertex 62.6186 171.026 155.876
  endloop
 endfacet
 facet normal 0.65049 -0.691738 -0.313627
  outer loop
   vertex 62.5605 170.54 156.213
   vertex 62.0224 169.991 156.308
   vertex 62.2388 170.604 155.403
  endloop
 endfacet
 facet normal 0.758085 0.247886 0.603207
  outer loop
   vertex 62.5605 170.005 155.246
   vertex 62.2388 170.604 155.403
   vertex 62.4211 169.882 155.471
  endloop
 endfacet
 facet normal 0.884518 0.259567 0.387624
  outer loop
   vertex 62.4211 169.882 155.471
   vertex 62.2388 170.604 155.403
   vertex 62.0224 169.991 156.308
  endloop
 endfacet
 facet normal 0.755051 0.253802 0.604551
  outer loop
   vertex 62.5605 170.005 155.246
   vertex 62.4211 169.882 155.471
   vertex 62.6262 169.839 155.233
  endloop
 endfacet
 facet normal 0.79132 -0.409232 -0.454248
  outer loop
   vertex 62.6186 171.026 155.876
   vertex 62.8801 170.929 156.419
   vertex 62.5605 170.54 156.213
  endloop
 endfacet
 facet normal -0.705009 -0.686063 0.179664
  outer loop
   vertex 55.2825 171.505 155.426
   vertex 55.2657 171.728 156.212
   vertex 54.8382 172.131 156.071
  endloop
 endfacet
 facet normal -0.778708 -0.623637 0.0684812
  outer loop
   vertex 54.81 172.054 155.055
   vertex 55.2825 171.505 155.426
   vertex 54.8382 172.131 156.071
  endloop
 endfacet
 facet normal -0.55609 -0.768364 0.316829
  outer loop
   vertex 56.0735 171.034 155.671
   vertex 55.2825 171.505 155.426
   vertex 56.1754 170.752 155.168
  endloop
 endfacet
 facet normal -0.547169 -0.633528 0.547037
  outer loop
   vertex 56.0735 171.034 155.671
   vertex 56.0809 171.495 156.213
   vertex 55.2825 171.505 155.426
  endloop
 endfacet
 facet normal -0.26551 -0.928948 0.257993
  outer loop
   vertex 56.0809 171.495 156.213
   vertex 55.2657 171.728 156.212
   vertex 55.2825 171.505 155.426
  endloop
 endfacet
 facet normal -0.47947 -0.664848 0.572787
  outer loop
   vertex 56.7752 170.957 156.17
   vertex 56.0809 171.495 156.213
   vertex 56.0735 171.034 155.671
  endloop
 endfacet
 facet normal 0.789131 0.0423797 -0.612761
  outer loop
   vertex 62.6186 171.026 155.876
   vertex 62.1402 171.669 155.305
   vertex 62.8422 171.895 156.224
  endloop
 endfacet
 facet normal 0.77389 0.0129115 -0.633189
  outer loop
   vertex 62.2388 170.604 155.403
   vertex 62.1402 171.669 155.305
   vertex 62.6186 171.026 155.876
  endloop
 endfacet
 facet normal 0.895845 -0.0538363 -0.441094
  outer loop
   vertex 62.8422 171.895 156.224
   vertex 62.8801 170.929 156.419
   vertex 62.6186 171.026 155.876
  endloop
 endfacet
 facet normal -0.98757 -0.152301 0.0388617
  outer loop
   vertex 54.81 172.054 155.055
   vertex 54.8382 172.131 156.071
   vertex 54.705 172.809 155.344
  endloop
 endfacet
 facet normal -0.989858 -0.127718 0.0622033
  outer loop
   vertex 54.8382 172.131 156.071
   vertex 54.726 173.021 156.115
   vertex 54.705 172.809 155.344
  endloop
 endfacet
 facet normal 0.778573 0.0790544 -0.622555
  outer loop
   vertex 62.8422 171.895 156.224
   vertex 62.0743 172.838 155.384
   vertex 62.5864 172.943 156.037
  endloop
 endfacet
 facet normal 0.781679 0.0858773 -0.617741
  outer loop
   vertex 62.1402 171.669 155.305
   vertex 62.0743 172.838 155.384
   vertex 62.8422 171.895 156.224
  endloop
 endfacet
 facet normal 0.821379 0.100396 -0.561477
  outer loop
   vertex 62.5864 172.943 156.037
   vertex 62.9246 172.722 156.493
   vertex 62.8422 171.895 156.224
  endloop
 endfacet
 facet normal -0.990484 0.137202 -0.0108076
  outer loop
   vertex 54.705 172.809 155.344
   vertex 54.726 173.021 156.115
   vertex 54.8267 173.691 155.388
  endloop
 endfacet
 facet normal -0.990222 0.139217 -0.00891471
  outer loop
   vertex 54.726 173.021 156.115
   vertex 54.8244 173.741 156.418
   vertex 54.8267 173.691 155.388
  endloop
 endfacet
 facet normal 0.82731 0.529762 -0.186843
  outer loop
   vertex 62.5864 172.943 156.037
   vertex 61.9957 173.951 156.281
   vertex 62.4844 173.292 156.577
  endloop
 endfacet
 facet normal 0.634559 0.511661 -0.579257
  outer loop
   vertex 62.5864 172.943 156.037
   vertex 62.0743 172.838 155.384
   vertex 61.9957 173.951 156.281
  endloop
 endfacet
 facet normal 0.936494 0.257749 -0.23779
  outer loop
   vertex 62.0743 172.838 155.384
   vertex 61.7302 174.003 155.291
   vertex 61.9957 173.951 156.281
  endloop
 endfacet
 facet normal 0.746359 0.614011 -0.256785
  outer loop
   vertex 62.9246 172.722 156.493
   vertex 62.5864 172.943 156.037
   vertex 62.4844 173.292 156.577
  endloop
 endfacet
 facet normal -0.711664 0.701617 -0.0355959
  outer loop
   vertex 54.8267 173.691 155.388
   vertex 54.8244 173.741 156.418
   vertex 55.2126 174.125 156.223
  endloop
 endfacet
 facet normal -0.624987 0.772493 -0.112458
  outer loop
   vertex 55.3988 174.126 155.193
   vertex 54.8267 173.691 155.388
   vertex 55.2126 174.125 156.223
  endloop
 endfacet
 facet normal -0.192082 0.98093 -0.029696
  outer loop
   vertex 56.2842 174.303 155.323
   vertex 55.3988 174.126 155.193
   vertex 56.0221 174.275 156.089
  endloop
 endfacet
 facet normal -0.187214 0.981757 -0.0332198
  outer loop
   vertex 55.3988 174.126 155.193
   vertex 55.2126 174.125 156.223
   vertex 56.0221 174.275 156.089
  endloop
 endfacet
 facet normal -0.200181 0.979145 0.0346761
  outer loop
   vertex 57.2373 174.508 155.024
   vertex 56.2842 174.303 155.323
   vertex 57.1538 174.453 156.118
  endloop
 endfacet
 facet normal -0.154776 0.987809 -0.0166773
  outer loop
   vertex 56.2842 174.303 155.323
   vertex 56.0221 174.275 156.089
   vertex 57.1538 174.453 156.118
  endloop
 endfacet
 facet normal -0.581218 0.813743 -0.00285207
  outer loop
   vertex 57.1538 174.453 156.118
   vertex 58.2294 175.218 155.326
   vertex 57.2373 174.508 155.024
  endloop
 endfacet
 facet normal -0.4664 0.861785 0.199495
  outer loop
   vertex 58.0415 174.898 156.269
   vertex 58.2294 175.218 155.326
   vertex 57.1538 174.453 156.118
  endloop
 endfacet
 facet normal 0.767904 0.497294 -0.40376
  outer loop
   vertex 61.5767 174.574 155.471
   vertex 61.1225 175.073 155.223
   vertex 61.5219 174.951 155.832
  endloop
 endfacet
 facet normal 0.778979 0.488619 -0.392993
  outer loop
   vertex 61.5767 174.574 155.471
   vertex 61.5219 174.951 155.832
   vertex 61.7862 174.752 156.108
  endloop
 endfacet
 facet normal 0.856439 0.34987 -0.379608
  outer loop
   vertex 61.5767 174.574 155.471
   vertex 61.7862 174.752 156.108
   vertex 61.7302 174.003 155.291
  endloop
 endfacet
 facet normal 0.949691 0.19565 -0.244555
  outer loop
   vertex 61.7302 174.003 155.291
   vertex 61.7862 174.752 156.108
   vertex 61.9957 173.951 156.281
  endloop
 endfacet
 facet normal -0.615539 0.775476 0.14053
  outer loop
   vertex 58.2294 175.218 155.326
   vertex 58.0415 174.898 156.269
   vertex 58.5552 175.318 156.201
  endloop
 endfacet
 facet normal -0.645689 0.747723 0.154909
  outer loop
   vertex 58.5552 175.318 156.201
   vertex 59.0406 175.894 155.442
   vertex 58.2294 175.218 155.326
  endloop
 endfacet
 facet normal -0.639799 0.75139 0.161462
  outer loop
   vertex 59.1681 175.823 156.277
   vertex 59.0406 175.894 155.442
   vertex 58.5552 175.318 156.201
  endloop
 endfacet
 facet normal 0.940544 -0.322368 0.107032
  outer loop
   vertex 61.3835 175.893 155.398
   vertex 61.1225 175.073 155.223
   vertex 61.3675 175.742 155.084
  endloop
 endfacet
 facet normal 0.74881 -0.357713 0.557965
  outer loop
   vertex 61.3835 175.893 155.398
   vertex 60.9509 175.88 155.971
   vertex 61.1225 175.073 155.223
  endloop
 endfacet
 facet normal 0.62201 0.738681 -0.25972
  outer loop
   vertex 61.5219 174.951 155.832
   vertex 61.1225 175.073 155.223
   vertex 61.343 175.287 156.36
  endloop
 endfacet
 facet normal 0.875008 0.415795 -0.247942
  outer loop
   vertex 61.343 175.287 156.36
   vertex 61.1225 175.073 155.223
   vertex 60.9509 175.88 155.971
  endloop
 endfacet
 facet normal 0.710185 0.677627 -0.190944
  outer loop
   vertex 61.5219 174.951 155.832
   vertex 61.343 175.287 156.36
   vertex 61.7862 174.752 156.108
  endloop
 endfacet
 facet normal 0.990031 -0.13984 0.0168115
  outer loop
   vertex 61.3675 175.742 155.084
   vertex 61.4079 176.02 155.018
   vertex 61.3835 175.893 155.398
  endloop
 endfacet
 facet normal -0.628894 0.760725 0.160589
  outer loop
   vertex 59.0406 175.894 155.442
   vertex 59.1681 175.823 156.277
   vertex 59.4926 176.145 156.024
  endloop
 endfacet
 facet normal -0.494613 0.869062 0.00945303
  outer loop
   vertex 59.57 176.198 155.22
   vertex 59.0406 175.894 155.442
   vertex 59.4926 176.145 156.024
  endloop
 endfacet
 facet normal -0.0717285 0.994619 0.0747566
  outer loop
   vertex 60.363 176.264 155.108
   vertex 59.57 176.198 155.22
   vertex 60.341 176.196 155.987
  endloop
 endfacet
 facet normal -0.0570193 0.99657 0.0599715
  outer loop
   vertex 59.57 176.198 155.22
   vertex 59.4926 176.145 156.024
   vertex 60.341 176.196 155.987
  endloop
 endfacet
 facet normal 0.61387 0.62909 0.476875
  outer loop
   vertex 60.9509 175.88 155.971
   vertex 61.3835 175.893 155.398
   vertex 61.1514 176.189 155.306
  endloop
 endfacet
 facet normal 0.412751 0.77245 0.482657
  outer loop
   vertex 60.9509 175.88 155.971
   vertex 61.1514 176.189 155.306
   vertex 60.341 176.196 155.987
  endloop
 endfacet
 facet normal 0.0749005 0.994105 0.0783865
  outer loop
   vertex 60.341 176.196 155.987
   vertex 61.1514 176.189 155.306
   vertex 60.363 176.264 155.108
  endloop
 endfacet
 facet normal 0.7181 0.644364 0.26292
  outer loop
   vertex 61.4079 176.02 155.018
   vertex 61.1514 176.189 155.306
   vertex 61.3835 175.893 155.398
  endloop
 endfacet
 facet normal -0.104064 -0.896651 0.430335
  outer loop
   vertex 59.3707 168.895 155.944
   vertex 60.3067 168.758 155.885
   vertex 60.206 168.948 156.256
  endloop
 endfacet
 facet normal -0.198375 -0.729669 0.654393
  outer loop
   vertex 59.3725 169.211 156.296
   vertex 59.3707 168.895 155.944
   vertex 60.206 168.948 156.256
  endloop
 endfacet
 facet normal 0.218852 -0.843404 0.490687
  outer loop
   vertex 60.3067 168.758 155.885
   vertex 60.725 169.063 156.222
   vertex 60.206 168.948 156.256
  endloop
 endfacet
 facet normal -0.57422 -0.597282 0.559933
  outer loop
   vertex 58.5544 169.495 156.086
   vertex 58.3023 169.971 156.335
   vertex 58.0052 169.845 155.896
  endloop
 endfacet
 facet normal -0.395229 -0.683323 0.613893
  outer loop
   vertex 58.5544 169.495 156.086
   vertex 59.3707 168.895 155.944
   vertex 59.3725 169.211 156.296
  endloop
 endfacet
 facet normal -0.385915 -0.579934 0.717458
  outer loop
   vertex 58.5544 169.495 156.086
   vertex 59.3725 169.211 156.296
   vertex 58.3023 169.971 156.335
  endloop
 endfacet
 facet normal -0.215529 -0.349949 0.911638
  outer loop
   vertex 58.3023 169.971 156.335
   vertex 59.3725 169.211 156.296
   vertex 59.2534 170.057 156.593
  endloop
 endfacet
 facet normal -0.081144 -0.396979 0.914234
  outer loop
   vertex 60.206 168.948 156.256
   vertex 60.2926 169.739 156.607
   vertex 59.3725 169.211 156.296
  endloop
 endfacet
 facet normal -0.117904 -0.343285 0.931802
  outer loop
   vertex 60.2926 169.739 156.607
   vertex 59.2534 170.057 156.593
   vertex 59.3725 169.211 156.296
  endloop
 endfacet
 facet normal 0.150201 -0.414831 0.897416
  outer loop
   vertex 60.725 169.063 156.222
   vertex 60.2926 169.739 156.607
   vertex 60.206 168.948 156.256
  endloop
 endfacet
 facet normal -0.224471 -0.586692 0.778078
  outer loop
   vertex 60.725 169.063 156.222
   vertex 61.3663 169.751 156.926
   vertex 60.2926 169.739 156.607
  endloop
 endfacet
 facet normal 0.5001 -0.801479 0.32792
  outer loop
   vertex 60.725 169.063 156.222
   vertex 61.6239 169.522 155.973
   vertex 61.3663 169.751 156.926
  endloop
 endfacet
 facet normal 0.585258 -0.738088 0.335708
  outer loop
   vertex 61.3663 169.751 156.926
   vertex 61.6239 169.522 155.973
   vertex 62.0224 169.991 156.308
  endloop
 endfacet
 facet normal 0.438569 -0.890539 0.120823
  outer loop
   vertex 61.9139 170.051 157.146
   vertex 61.3663 169.751 156.926
   vertex 62.0224 169.991 156.308
  endloop
 endfacet
 facet normal -0.455898 -0.634927 0.623719
  outer loop
   vertex 57.2692 170.468 156.032
   vertex 57.4355 170.795 156.487
   vertex 56.7752 170.957 156.17
  endloop
 endfacet
 facet normal -0.488567 -0.693546 0.52943
  outer loop
   vertex 57.2692 170.468 156.032
   vertex 58.0052 169.845 155.896
   vertex 58.3023 169.971 156.335
  endloop
 endfacet
 facet normal -0.479795 -0.619473 0.621329
  outer loop
   vertex 57.2692 170.468 156.032
   vertex 58.3023 169.971 156.335
   vertex 57.4355 170.795 156.487
  endloop
 endfacet
 facet normal -0.209289 -0.386467 0.898243
  outer loop
   vertex 57.4355 170.795 156.487
   vertex 58.3023 169.971 156.335
   vertex 58.29 170.812 156.694
  endloop
 endfacet
 facet normal -0.1294 -0.531156 0.837335
  outer loop
   vertex 59.0559 170.824 157.049
   vertex 59.2534 170.057 156.593
   vertex 59.558 170.96 157.212
  endloop
 endfacet
 facet normal -0.345892 -0.543724 0.764672
  outer loop
   vertex 59.0559 170.824 157.049
   vertex 58.29 170.812 156.694
   vertex 59.2534 170.057 156.593
  endloop
 endfacet
 facet normal -0.208602 -0.386516 0.898382
  outer loop
   vertex 58.29 170.812 156.694
   vertex 58.3023 169.971 156.335
   vertex 59.2534 170.057 156.593
  endloop
 endfacet
 facet normal -0.170207 -0.51802 0.838263
  outer loop
   vertex 60.2926 169.739 156.607
   vertex 59.558 170.96 157.212
   vertex 59.2534 170.057 156.593
  endloop
 endfacet
 facet normal -0.263231 -0.550997 0.791904
  outer loop
   vertex 60.6274 170.422 157.194
   vertex 59.558 170.96 157.212
   vertex 60.2926 169.739 156.607
  endloop
 endfacet
 facet normal -0.228584 -0.56731 0.791144
  outer loop
   vertex 61.3663 169.751 156.926
   vertex 60.6274 170.422 157.194
   vertex 60.2926 169.739 156.607
  endloop
 endfacet
 facet normal 0.61732 -0.774931 0.135643
  outer loop
   vertex 62.0224 169.991 156.308
   vertex 62.5539 170.531 156.976
   vertex 61.9139 170.051 157.146
  endloop
 endfacet
 facet normal 0.714232 -0.699905 -0.00227638
  outer loop
   vertex 62.5605 170.54 156.213
   vertex 62.5539 170.531 156.976
   vertex 62.0224 169.991 156.308
  endloop
 endfacet
 facet normal 0.772782 -0.634671 -0.000982104
  outer loop
   vertex 62.5539 170.531 156.976
   vertex 62.5605 170.54 156.213
   vertex 62.8801 170.929 156.419
  endloop
 endfacet
 facet normal 0.872841 -0.449455 0.1901
  outer loop
   vertex 62.8413 171.148 157.117
   vertex 62.5539 170.531 156.976
   vertex 62.8801 170.929 156.419
  endloop
 endfacet
 facet normal -0.698575 -0.612421 0.370045
  outer loop
   vertex 55.2657 171.728 156.212
   vertex 55.1339 172.117 156.607
   vertex 54.8382 172.131 156.071
  endloop
 endfacet
 facet normal -0.205572 -0.717867 0.665137
  outer loop
   vertex 55.2657 171.728 156.212
   vertex 56.0809 171.495 156.213
   vertex 55.9266 171.978 156.686
  endloop
 endfacet
 facet normal -0.193453 -0.730536 0.654899
  outer loop
   vertex 55.1339 172.117 156.607
   vertex 55.2657 171.728 156.212
   vertex 55.9266 171.978 156.686
  endloop
 endfacet
 facet normal -0.322611 -0.713253 0.622248
  outer loop
   vertex 56.0809 171.495 156.213
   vertex 57.1931 171.67 156.99
   vertex 55.9266 171.978 156.686
  endloop
 endfacet
 facet normal -0.404084 -0.57855 0.708517
  outer loop
   vertex 56.7752 170.957 156.17
   vertex 57.1931 171.67 156.99
   vertex 56.0809 171.495 156.213
  endloop
 endfacet
 facet normal -0.469371 -0.534105 0.703151
  outer loop
   vertex 56.7752 170.957 156.17
   vertex 57.4355 170.795 156.487
   vertex 57.1931 171.67 156.99
  endloop
 endfacet
 facet normal -0.189412 -0.528177 0.827739
  outer loop
   vertex 58.29 170.812 156.694
   vertex 57.1931 171.67 156.99
   vertex 57.4355 170.795 156.487
  endloop
 endfacet
 facet normal -0.209931 -0.548146 0.809608
  outer loop
   vertex 58.4297 171.453 157.164
   vertex 57.1931 171.67 156.99
   vertex 58.29 170.812 156.694
  endloop
 endfacet
 facet normal -0.357567 -0.500464 0.788468
  outer loop
   vertex 59.0559 170.824 157.049
   vertex 58.4297 171.453 157.164
   vertex 58.29 170.812 156.694
  endloop
 endfacet
 facet normal 0.998057 0.0472732 0.0405884
  outer loop
   vertex 62.8801 170.929 156.419
   vertex 62.8422 171.895 156.224
   vertex 62.8413 171.148 157.117
  endloop
 endfacet
 facet normal 0.995372 -0.0742122 -0.061056
  outer loop
   vertex 62.8413 171.148 157.117
   vertex 62.8422 171.895 156.224
   vertex 62.9246 172.128 157.284
  endloop
 endfacet
 facet normal -0.583102 -0.424636 0.692586
  outer loop
   vertex 55.1339 172.117 156.607
   vertex 55.3652 172.661 157.136
   vertex 54.9262 172.922 156.926
  endloop
 endfacet
 facet normal -0.812747 -0.383374 0.43871
  outer loop
   vertex 55.1339 172.117 156.607
   vertex 54.9262 172.922 156.926
   vertex 54.8382 172.131 156.071
  endloop
 endfacet
 facet normal -0.965966 -0.132516 0.222145
  outer loop
   vertex 54.8382 172.131 156.071
   vertex 54.9262 172.922 156.926
   vertex 54.726 173.021 156.115
  endloop
 endfacet
 facet normal -0.186711 -0.642377 0.743297
  outer loop
   vertex 55.9266 171.978 156.686
   vertex 55.3652 172.661 157.136
   vertex 55.1339 172.117 156.607
  endloop
 endfacet
 facet normal -0.186463 -0.642273 0.743449
  outer loop
   vertex 56.2581 172.466 157.191
   vertex 55.3652 172.661 157.136
   vertex 55.9266 171.978 156.686
  endloop
 endfacet
 facet normal -0.32 -0.567413 0.758711
  outer loop
   vertex 57.1931 171.67 156.99
   vertex 56.2581 172.466 157.191
   vertex 55.9266 171.978 156.686
  endloop
 endfacet
 facet normal 0.995025 -0.0796613 -0.0598293
  outer loop
   vertex 62.8422 171.895 156.224
   vertex 62.9246 172.722 156.493
   vertex 62.9246 172.128 157.284
  endloop
 endfacet
 facet normal 0.999406 0.0275853 0.0206401
  outer loop
   vertex 62.9246 172.128 157.284
   vertex 62.9246 172.722 156.493
   vertex 62.9062 172.867 157.187
  endloop
 endfacet
 facet normal -0.969579 0.0301853 0.242909
  outer loop
   vertex 54.726 173.021 156.115
   vertex 54.9262 172.922 156.926
   vertex 54.8244 173.741 156.418
  endloop
 endfacet
 facet normal -0.976404 0.0123932 0.215597
  outer loop
   vertex 54.9262 172.922 156.926
   vertex 54.9822 173.699 157.135
   vertex 54.8244 173.741 156.418
  endloop
 endfacet
 facet normal 0.68515 0.465165 0.560528
  outer loop
   vertex 61.6842 173.913 156.853
   vertex 61.0594 174.097 157.464
   vertex 61.6178 173.356 157.396
  endloop
 endfacet
 facet normal 0.644321 0.654894 0.394924
  outer loop
   vertex 61.6842 173.913 156.853
   vertex 62.4844 173.292 156.577
   vertex 61.9957 173.951 156.281
  endloop
 endfacet
 facet normal 0.608498 0.515807 0.603053
  outer loop
   vertex 61.6842 173.913 156.853
   vertex 61.6178 173.356 157.396
   vertex 62.4844 173.292 156.577
  endloop
 endfacet
 facet normal 0.200901 0.970032 0.136661
  outer loop
   vertex 61.6178 173.356 157.396
   vertex 62.5822 173.156 157.396
   vertex 62.4844 173.292 156.577
  endloop
 endfacet
 facet normal 0.779187 0.617442 -0.107851
  outer loop
   vertex 62.9062 172.867 157.187
   vertex 62.9246 172.722 156.493
   vertex 62.4844 173.292 156.577
  endloop
 endfacet
 facet normal 0.680471 0.731683 0.040004
  outer loop
   vertex 62.5822 173.156 157.396
   vertex 62.9062 172.867 157.187
   vertex 62.4844 173.292 156.577
  endloop
 endfacet
 facet normal -0.810243 0.546925 0.210663
  outer loop
   vertex 54.8244 173.741 156.418
   vertex 54.9822 173.699 157.135
   vertex 55.1457 173.989 157.009
  endloop
 endfacet
 facet normal -0.684338 0.726083 0.0669709
  outer loop
   vertex 55.2126 174.125 156.223
   vertex 54.8244 173.741 156.418
   vertex 55.1457 173.989 157.009
  endloop
 endfacet
 facet normal -0.147555 0.969968 0.193364
  outer loop
   vertex 56.0221 174.275 156.089
   vertex 55.2126 174.125 156.223
   vertex 56.1233 174.114 156.972
  endloop
 endfacet
 facet normal -0.119084 0.980088 0.158891
  outer loop
   vertex 55.2126 174.125 156.223
   vertex 55.1457 173.989 157.009
   vertex 56.1233 174.114 156.972
  endloop
 endfacet
 facet normal -0.156961 0.968334 0.194144
  outer loop
   vertex 57.1538 174.453 156.118
   vertex 56.0221 174.275 156.089
   vertex 56.1233 174.114 156.972
  endloop
 endfacet
 facet normal -0.519862 0.733956 0.437095
  outer loop
   vertex 58.0415 174.898 156.269
   vertex 57.8879 174.332 157.037
   vertex 58.4064 174.933 156.645
  endloop
 endfacet
 facet normal -0.459122 0.756447 0.465827
  outer loop
   vertex 58.0415 174.898 156.269
   vertex 57.1538 174.453 156.118
   vertex 57.8879 174.332 157.037
  endloop
 endfacet
 facet normal -0.127414 0.965166 0.228516
  outer loop
   vertex 57.1538 174.453 156.118
   vertex 56.1233 174.114 156.972
   vertex 57.8879 174.332 157.037
  endloop
 endfacet
 facet normal -0.41772 0.721273 0.552517
  outer loop
   vertex 57.8879 174.332 157.037
   vertex 59.306 175.016 157.216
   vertex 58.4064 174.933 156.645
  endloop
 endfacet
 facet normal 0.63013 -0.272926 0.726944
  outer loop
   vertex 61.6842 173.913 156.853
   vertex 61.4843 174.676 157.313
   vertex 61.0594 174.097 157.464
  endloop
 endfacet
 facet normal 0.878561 -0.0556865 0.474374
  outer loop
   vertex 61.4843 174.676 157.313
   vertex 61.6842 173.913 156.853
   vertex 61.9957 173.951 156.281
  endloop
 endfacet
 facet normal 0.863024 -0.0970901 0.495745
  outer loop
   vertex 61.4843 174.676 157.313
   vertex 61.9957 173.951 156.281
   vertex 61.7352 174.884 156.917
  endloop
 endfacet
 facet normal 0.966239 0.256948 0.0189632
  outer loop
   vertex 61.7352 174.884 156.917
   vertex 61.9957 173.951 156.281
   vertex 61.7862 174.752 156.108
  endloop
 endfacet
 facet normal -0.529675 0.720288 0.447916
  outer loop
   vertex 58.0415 174.898 156.269
   vertex 58.4064 174.933 156.645
   vertex 58.5552 175.318 156.201
  endloop
 endfacet
 facet normal -0.375143 0.674859 0.635479
  outer loop
   vertex 59.1681 175.823 156.277
   vertex 59.306 175.016 157.216
   vertex 59.7125 175.876 156.543
  endloop
 endfacet
 facet normal -0.557172 0.58738 0.586978
  outer loop
   vertex 58.5552 175.318 156.201
   vertex 59.306 175.016 157.216
   vertex 59.1681 175.823 156.277
  endloop
 endfacet
 facet normal -0.400487 0.754041 0.520608
  outer loop
   vertex 58.5552 175.318 156.201
   vertex 58.4064 174.933 156.645
   vertex 59.306 175.016 157.216
  endloop
 endfacet
 facet normal 0.0645754 0.772993 0.63112
  outer loop
   vertex 59.7125 175.876 156.543
   vertex 60.4764 175.345 157.114
   vertex 60.5429 175.858 156.48
  endloop
 endfacet
 facet normal -0.116217 0.64575 0.754653
  outer loop
   vertex 59.306 175.016 157.216
   vertex 60.4764 175.345 157.114
   vertex 59.7125 175.876 156.543
  endloop
 endfacet
 facet normal 0.55693 0.680454 0.476247
  outer loop
   vertex 60.5429 175.858 156.48
   vertex 61.343 175.287 156.36
   vertex 60.9509 175.88 155.971
  endloop
 endfacet
 facet normal 0.533933 0.629521 0.564464
  outer loop
   vertex 60.5429 175.858 156.48
   vertex 60.4764 175.345 157.114
   vertex 61.343 175.287 156.36
  endloop
 endfacet
 facet normal 0.213704 0.961785 0.171174
  outer loop
   vertex 60.4764 175.345 157.114
   vertex 61.2646 175.131 157.337
   vertex 61.343 175.287 156.36
  endloop
 endfacet
 facet normal 0.755208 0.652834 -0.0588889
  outer loop
   vertex 61.7352 174.884 156.917
   vertex 61.7862 174.752 156.108
   vertex 61.343 175.287 156.36
  endloop
 endfacet
 facet normal 0.574863 0.799509 0.174121
  outer loop
   vertex 61.2646 175.131 157.337
   vertex 61.7352 174.884 156.917
   vertex 61.343 175.287 156.36
  endloop
 endfacet
 facet normal -0.338821 0.768746 0.54243
  outer loop
   vertex 59.1681 175.823 156.277
   vertex 59.7125 175.876 156.543
   vertex 59.4926 176.145 156.024
  endloop
 endfacet
 facet normal -0.0323462 0.881501 0.471074
  outer loop
   vertex 60.341 176.196 155.987
   vertex 59.4926 176.145 156.024
   vertex 59.7125 175.876 156.543
  endloop
 endfacet
 facet normal 0.0596976 0.834318 0.548042
  outer loop
   vertex 60.5429 175.858 156.48
   vertex 60.341 176.196 155.987
   vertex 59.7125 175.876 156.543
  endloop
 endfacet
 facet normal 0.43268 0.816196 0.3829
  outer loop
   vertex 60.9509 175.88 155.971
   vertex 60.341 176.196 155.987
   vertex 60.5429 175.858 156.48
  endloop
 endfacet
 facet normal 0.0925377 -0.694016 0.713987
  outer loop
   vertex 61.3663 169.751 156.926
   vertex 61.9139 170.051 157.146
   vertex 61.5066 170.217 157.361
  endloop
 endfacet
 facet normal -0.164277 -0.358436 0.918987
  outer loop
   vertex 59.558 170.96 157.212
   vertex 60.6274 170.422 157.194
   vertex 60.7457 170.948 157.42
  endloop
 endfacet
 facet normal -0.282694 -0.60743 0.74237
  outer loop
   vertex 60.6274 170.422 157.194
   vertex 61.3663 169.751 156.926
   vertex 61.5066 170.217 157.361
  endloop
 endfacet
 facet normal -0.250492 -0.334523 0.908487
  outer loop
   vertex 60.6274 170.422 157.194
   vertex 61.5066 170.217 157.361
   vertex 60.7457 170.948 157.42
  endloop
 endfacet
 facet normal -0.0844611 -0.167798 0.982197
  outer loop
   vertex 60.7457 170.948 157.42
   vertex 61.5066 170.217 157.361
   vertex 61.6942 170.99 157.509
  endloop
 endfacet
 facet normal 0.589402 -0.58963 0.552215
  outer loop
   vertex 61.9139 170.051 157.146
   vertex 62.5539 170.531 156.976
   vertex 62.3756 170.769 157.42
  endloop
 endfacet
 facet normal 0.247113 -0.479975 0.841759
  outer loop
   vertex 61.9139 170.051 157.146
   vertex 62.3756 170.769 157.42
   vertex 61.5066 170.217 157.361
  endloop
 endfacet
 facet normal 0.0615012 -0.202279 0.977395
  outer loop
   vertex 61.5066 170.217 157.361
   vertex 62.3756 170.769 157.42
   vertex 61.6942 170.99 157.509
  endloop
 endfacet
 facet normal 0.71595 -0.454025 0.530356
  outer loop
   vertex 62.5539 170.531 156.976
   vertex 62.8413 171.148 157.117
   vertex 62.3756 170.769 157.42
  endloop
 endfacet
 facet normal -0.186475 -0.318752 0.929314
  outer loop
   vertex 57.1931 171.67 156.99
   vertex 58.4297 171.453 157.164
   vertex 58.4176 171.964 157.337
  endloop
 endfacet
 facet normal -0.130673 -0.479248 0.867897
  outer loop
   vertex 57.222 172.278 157.33
   vertex 57.1931 171.67 156.99
   vertex 58.4176 171.964 157.337
  endloop
 endfacet
 facet normal -0.198198 -0.364192 0.90999
  outer loop
   vertex 58.4297 171.453 157.164
   vertex 59.0559 170.824 157.049
   vertex 59.558 170.96 157.212
  endloop
 endfacet
 facet normal -0.17932 -0.319027 0.930627
  outer loop
   vertex 58.4297 171.453 157.164
   vertex 59.558 170.96 157.212
   vertex 58.4176 171.964 157.337
  endloop
 endfacet
 facet normal -0.0740237 -0.205038 0.975951
  outer loop
   vertex 58.4176 171.964 157.337
   vertex 59.558 170.96 157.212
   vertex 59.5441 172.03 157.436
  endloop
 endfacet
 facet normal -0.172216 -0.126793 0.976865
  outer loop
   vertex 60.7457 170.948 157.42
   vertex 60.5251 171.888 157.503
   vertex 59.558 170.96 157.212
  endloop
 endfacet
 facet normal -0.0964047 -0.204924 0.974019
  outer loop
   vertex 60.5251 171.888 157.503
   vertex 59.5441 172.03 157.436
   vertex 59.558 170.96 157.212
  endloop
 endfacet
 facet normal -0.0882744 -0.100065 0.991057
  outer loop
   vertex 61.6942 170.99 157.509
   vertex 61.4748 171.744 157.565
   vertex 60.7457 170.948 157.42
  endloop
 endfacet
 facet normal -0.0810914 -0.106633 0.990986
  outer loop
   vertex 61.4748 171.744 157.565
   vertex 60.5251 171.888 157.503
   vertex 60.7457 170.948 157.42
  endloop
 endfacet
 facet normal 0.0638246 -0.195615 0.978602
  outer loop
   vertex 62.3756 170.769 157.42
   vertex 62.4422 171.856 157.633
   vertex 61.6942 170.99 157.509
  endloop
 endfacet
 facet normal -0.0588923 -0.0917377 0.99404
  outer loop
   vertex 62.4422 171.856 157.633
   vertex 61.4748 171.744 157.565
   vertex 61.6942 170.99 157.509
  endloop
 endfacet
 facet normal 0.641826 -0.181954 0.744951
  outer loop
   vertex 62.8413 171.148 157.117
   vertex 62.9246 172.128 157.284
   vertex 62.4422 171.856 157.633
  endloop
 endfacet
 facet normal 0.638315 -0.185498 0.74709
  outer loop
   vertex 62.3756 170.769 157.42
   vertex 62.8413 171.148 157.117
   vertex 62.4422 171.856 157.633
  endloop
 endfacet
 facet normal -0.562213 -0.340416 0.75368
  outer loop
   vertex 55.3652 172.661 157.136
   vertex 55.2868 173.181 157.312
   vertex 54.9262 172.922 156.926
  endloop
 endfacet
 facet normal -0.14012 -0.382446 0.913292
  outer loop
   vertex 55.3652 172.661 157.136
   vertex 56.2581 172.466 157.191
   vertex 56.1771 172.899 157.36
  endloop
 endfacet
 facet normal -0.157051 -0.338314 0.927835
  outer loop
   vertex 55.2868 173.181 157.312
   vertex 55.3652 172.661 157.136
   vertex 56.1771 172.899 157.36
  endloop
 endfacet
 facet normal -0.215183 -0.468927 0.856624
  outer loop
   vertex 56.2581 172.466 157.191
   vertex 57.1931 171.67 156.99
   vertex 57.222 172.278 157.33
  endloop
 endfacet
 facet normal -0.205515 -0.38876 0.898125
  outer loop
   vertex 56.2581 172.466 157.191
   vertex 57.222 172.278 157.33
   vertex 56.1771 172.899 157.36
  endloop
 endfacet
 facet normal -0.0342666 -0.105312 0.993849
  outer loop
   vertex 56.1771 172.899 157.36
   vertex 57.222 172.278 157.33
   vertex 57.2202 173.057 157.413
  endloop
 endfacet
 facet normal -0.0455599 -0.152861 0.987197
  outer loop
   vertex 58.4176 171.964 157.337
   vertex 58.2935 172.941 157.482
   vertex 57.222 172.278 157.33
  endloop
 endfacet
 facet normal -0.0756873 -0.105165 0.99157
  outer loop
   vertex 58.2935 172.941 157.482
   vertex 57.2202 173.057 157.413
   vertex 57.222 172.278 157.33
  endloop
 endfacet
 facet normal -0.0776286 -0.15658 0.98461
  outer loop
   vertex 59.5441 172.03 157.436
   vertex 59.2744 172.811 157.539
   vertex 58.4176 171.964 157.337
  endloop
 endfacet
 facet normal -0.0776564 -0.156552 0.984612
  outer loop
   vertex 59.2744 172.811 157.539
   vertex 58.2935 172.941 157.482
   vertex 58.4176 171.964 157.337
  endloop
 endfacet
 facet normal -0.0929108 -0.178176 0.979602
  outer loop
   vertex 60.5251 171.888 157.503
   vertex 60.3993 173.072 157.707
   vertex 59.5441 172.03 157.436
  endloop
 endfacet
 facet normal -0.107542 -0.166324 0.980189
  outer loop
   vertex 60.3993 173.072 157.707
   vertex 59.2744 172.811 157.539
   vertex 59.5441 172.03 157.436
  endloop
 endfacet
 facet normal -0.0827255 -0.118083 0.989552
  outer loop
   vertex 61.4748 171.744 157.565
   vertex 61.6353 172.677 157.69
   vertex 60.5251 171.888 157.503
  endloop
 endfacet
 facet normal -0.0423211 -0.173544 0.983916
  outer loop
   vertex 61.6353 172.677 157.69
   vertex 60.3993 173.072 157.707
   vertex 60.5251 171.888 157.503
  endloop
 endfacet
 facet normal -0.16829 -0.482856 0.859377
  outer loop
   vertex 62.4299 172.742 158.129
   vertex 62.4422 171.856 157.633
   vertex 62.7027 172.561 158.081
  endloop
 endfacet
 facet normal -0.402816 -0.450963 0.796474
  outer loop
   vertex 62.4299 172.742 158.129
   vertex 61.6353 172.677 157.69
   vertex 62.4422 171.856 157.633
  endloop
 endfacet
 facet normal -0.0550708 -0.123018 0.990875
  outer loop
   vertex 61.6353 172.677 157.69
   vertex 61.4748 171.744 157.565
   vertex 62.4422 171.856 157.633
  endloop
 endfacet
 facet normal 0.669881 -0.557851 0.489962
  outer loop
   vertex 62.7027 172.561 158.081
   vertex 62.4422 171.856 157.633
   vertex 62.9246 172.128 157.284
  endloop
 endfacet
 facet normal 0.885826 -0.256841 0.386451
  outer loop
   vertex 62.7027 172.561 158.081
   vertex 62.9246 172.128 157.284
   vertex 62.8271 172.833 157.976
  endloop
 endfacet
 facet normal 0.994121 0.0380484 0.101372
  outer loop
   vertex 62.8271 172.833 157.976
   vertex 62.9246 172.128 157.284
   vertex 62.9062 172.867 157.187
  endloop
 endfacet
 facet normal -0.412944 0.0674017 0.908259
  outer loop
   vertex 55.2868 173.181 157.312
   vertex 55.3311 173.836 157.284
   vertex 54.9822 173.699 157.135
  endloop
 endfacet
 facet normal -0.671572 -0.147023 0.726206
  outer loop
   vertex 54.9262 172.922 156.926
   vertex 55.2868 173.181 157.312
   vertex 54.9822 173.699 157.135
  endloop
 endfacet
 facet normal -0.0473398 0.020054 0.998678
  outer loop
   vertex 56.1771 172.899 157.36
   vertex 56.4064 173.729 157.354
   vertex 55.2868 173.181 157.312
  endloop
 endfacet
 facet normal -0.0606747 0.0474241 0.99703
  outer loop
   vertex 56.4064 173.729 157.354
   vertex 55.3311 173.836 157.284
   vertex 55.2868 173.181 157.312
  endloop
 endfacet
 facet normal -0.0536897 0.0218056 0.99832
  outer loop
   vertex 57.2202 173.057 157.413
   vertex 56.4064 173.729 157.354
   vertex 56.1771 172.899 157.36
  endloop
 endfacet
 facet normal -0.0614449 0.0304456 0.997646
  outer loop
   vertex 58.2935 172.941 157.482
   vertex 58.1714 173.876 157.446
   vertex 57.2202 173.057 157.413
  endloop
 endfacet
 facet normal -0.0538553 0.0216048 0.998315
  outer loop
   vertex 58.1714 173.876 157.446
   vertex 56.4064 173.729 157.354
   vertex 57.2202 173.057 157.413
  endloop
 endfacet
 facet normal -0.0952857 -0.306048 0.947235
  outer loop
   vertex 59.2744 172.811 157.539
   vertex 59.4105 173.849 157.888
   vertex 58.2935 172.941 157.482
  endloop
 endfacet
 facet normal -0.336106 -0.00760276 0.941793
  outer loop
   vertex 59.4105 173.849 157.888
   vertex 58.1714 173.876 157.446
   vertex 58.2935 172.941 157.482
  endloop
 endfacet
 facet normal -0.195271 -0.521374 0.830686
  outer loop
   vertex 60.0932 173.941 158.18
   vertex 60.3993 173.072 157.707
   vertex 60.4246 173.824 158.184
  endloop
 endfacet
 facet normal -0.271487 -0.532446 0.801746
  outer loop
   vertex 60.0932 173.941 158.18
   vertex 59.4105 173.849 157.888
   vertex 60.3993 173.072 157.707
  endloop
 endfacet
 facet normal -0.0694912 -0.309775 0.948267
  outer loop
   vertex 59.4105 173.849 157.888
   vertex 59.2744 172.811 157.539
   vertex 60.3993 173.072 157.707
  endloop
 endfacet
 facet normal 0.692561 0.472144 0.54538
  outer loop
   vertex 61.6178 173.356 157.396
   vertex 61.0594 174.097 157.464
   vertex 60.6563 173.988 158.07
  endloop
 endfacet
 facet normal 0.315342 -0.42515 0.848415
  outer loop
   vertex 61.6178 173.356 157.396
   vertex 60.6563 173.988 158.07
   vertex 60.3993 173.072 157.707
  endloop
 endfacet
 facet normal 0.138665 0.396557 0.907477
  outer loop
   vertex 61.6178 173.356 157.396
   vertex 60.3993 173.072 157.707
   vertex 61.6353 172.677 157.69
  endloop
 endfacet
 facet normal 0.626545 -0.432959 0.648065
  outer loop
   vertex 60.3993 173.072 157.707
   vertex 60.6563 173.988 158.07
   vertex 60.4246 173.824 158.184
  endloop
 endfacet
 facet normal -0.47847 0.309807 0.821636
  outer loop
   vertex 61.6353 172.677 157.69
   vertex 62.4299 172.742 158.129
   vertex 62.4551 173.041 158.03
  endloop
 endfacet
 facet normal -0.484581 0.33709 0.807187
  outer loop
   vertex 61.6353 172.677 157.69
   vertex 62.4551 173.041 158.03
   vertex 61.6178 173.356 157.396
  endloop
 endfacet
 facet normal 0.198097 0.956596 0.213733
  outer loop
   vertex 61.6178 173.356 157.396
   vertex 62.4551 173.041 158.03
   vertex 62.5822 173.156 157.396
  endloop
 endfacet
 facet normal 0.698521 0.708572 0.0999741
  outer loop
   vertex 62.8271 172.833 157.976
   vertex 62.9062 172.867 157.187
   vertex 62.5822 173.156 157.396
  endloop
 endfacet
 facet normal 0.499896 0.828923 0.25098
  outer loop
   vertex 62.4551 173.041 158.03
   vertex 62.8271 172.833 157.976
   vertex 62.5822 173.156 157.396
  endloop
 endfacet
 facet normal -0.500929 0.565353 0.655321
  outer loop
   vertex 54.9822 173.699 157.135
   vertex 55.3311 173.836 157.284
   vertex 55.1457 173.989 157.009
  endloop
 endfacet
 facet normal -0.0874319 0.842716 0.531212
  outer loop
   vertex 56.1233 174.114 156.972
   vertex 55.1457 173.989 157.009
   vertex 55.3311 173.836 157.284
  endloop
 endfacet
 facet normal 0.0247478 0.713033 0.700694
  outer loop
   vertex 56.4064 173.729 157.354
   vertex 56.1233 174.114 156.972
   vertex 55.3311 173.836 157.284
  endloop
 endfacet
 facet normal -0.108653 0.658539 0.744662
  outer loop
   vertex 57.8879 174.332 157.037
   vertex 56.1233 174.114 156.972
   vertex 56.4064 173.729 157.354
  endloop
 endfacet
 facet normal -0.092608 0.632071 0.769357
  outer loop
   vertex 58.1714 173.876 157.446
   vertex 57.8879 174.332 157.037
   vertex 56.4064 173.729 157.354
  endloop
 endfacet
 facet normal -0.341763 0.500548 0.795393
  outer loop
   vertex 59.306 175.016 157.216
   vertex 57.8879 174.332 157.037
   vertex 58.1714 173.876 157.446
  endloop
 endfacet
 facet normal -0.290028 0.458132 0.840237
  outer loop
   vertex 59.306 175.016 157.216
   vertex 58.1714 173.876 157.446
   vertex 59.4105 173.849 157.888
  endloop
 endfacet
 facet normal -0.402408 0.0977565 0.910226
  outer loop
   vertex 60.1929 174.669 158.146
   vertex 59.4105 173.849 157.888
   vertex 60.0932 173.941 158.18
  endloop
 endfacet
 facet normal -0.606703 0.355339 0.711088
  outer loop
   vertex 59.306 175.016 157.216
   vertex 59.4105 173.849 157.888
   vertex 60.1929 174.669 158.146
  endloop
 endfacet
 facet normal 0.639297 -0.28274 0.715093
  outer loop
   vertex 61.4843 174.676 157.313
   vertex 60.7739 174.775 157.988
   vertex 61.0594 174.097 157.464
  endloop
 endfacet
 facet normal 0.836295 -0.067829 0.544068
  outer loop
   vertex 60.7739 174.775 157.988
   vertex 60.6563 173.988 158.07
   vertex 61.0594 174.097 157.464
  endloop
 endfacet
 facet normal -0.401772 0.663908 0.630718
  outer loop
   vertex 59.306 175.016 157.216
   vertex 60.1929 174.669 158.146
   vertex 60.4672 175.017 157.955
  endloop
 endfacet
 facet normal -0.22499 0.908337 0.352568
  outer loop
   vertex 59.306 175.016 157.216
   vertex 60.4672 175.017 157.955
   vertex 60.4764 175.345 157.114
  endloop
 endfacet
 facet normal 0.679436 0.293197 0.672609
  outer loop
   vertex 60.7739 174.775 157.988
   vertex 61.4843 174.676 157.313
   vertex 61.2646 175.131 157.337
  endloop
 endfacet
 facet normal 0.421183 0.62374 0.658448
  outer loop
   vertex 60.7739 174.775 157.988
   vertex 61.2646 175.131 157.337
   vertex 60.4672 175.017 157.955
  endloop
 endfacet
 facet normal 0.148736 0.920462 0.361423
  outer loop
   vertex 60.4672 175.017 157.955
   vertex 61.2646 175.131 157.337
   vertex 60.4764 175.345 157.114
  endloop
 endfacet
 facet normal 0.718429 0.314741 0.62032
  outer loop
   vertex 61.7352 174.884 156.917
   vertex 61.2646 175.131 157.337
   vertex 61.4843 174.676 157.313
  endloop
 endfacet
 facet normal -0.26322 -0.599026 0.756229
  outer loop
   vertex 62.7027 172.561 158.081
   vertex 62.6639 172.868 158.31
   vertex 62.4299 172.742 158.129
  endloop
 endfacet
 facet normal 0.866027 -0.224631 0.446696
  outer loop
   vertex 62.7027 172.561 158.081
   vertex 62.8271 172.833 157.976
   vertex 62.6639 172.868 158.31
  endloop
 endfacet
 facet normal -0.110954 -0.279161 0.953813
  outer loop
   vertex 60.4246 173.824 158.184
   vertex 60.4218 174.161 158.283
   vertex 60.0932 173.941 158.18
  endloop
 endfacet
 facet normal 0.555847 -0.228493 0.799265
  outer loop
   vertex 60.4246 173.824 158.184
   vertex 60.6563 173.988 158.07
   vertex 60.4218 174.161 158.283
  endloop
 endfacet
 facet normal -0.677989 0.280079 0.679623
  outer loop
   vertex 62.4299 172.742 158.129
   vertex 62.6639 172.868 158.31
   vertex 62.4551 173.041 158.03
  endloop
 endfacet
 facet normal 0.499115 0.852558 0.155013
  outer loop
   vertex 62.8271 172.833 157.976
   vertex 62.4551 173.041 158.03
   vertex 62.6639 172.868 158.31
  endloop
 endfacet
 facet normal -0.332291 0.102297 0.937613
  outer loop
   vertex 60.4218 174.161 158.283
   vertex 60.5029 174.716 158.251
   vertex 60.1929 174.669 158.146
  endloop
 endfacet
 facet normal -0.3519 0.0918419 0.931521
  outer loop
   vertex 60.0932 173.941 158.18
   vertex 60.4218 174.161 158.283
   vertex 60.1929 174.669 158.146
  endloop
 endfacet
 facet normal 0.69964 -0.0296212 0.713882
  outer loop
   vertex 60.6563 173.988 158.07
   vertex 60.7739 174.775 157.988
   vertex 60.5029 174.716 158.251
  endloop
 endfacet
 facet normal 0.649372 -0.0513385 0.758736
  outer loop
   vertex 60.4218 174.161 158.283
   vertex 60.6563 173.988 158.07
   vertex 60.5029 174.716 158.251
  endloop
 endfacet
 facet normal -0.330777 0.641629 0.692025
  outer loop
   vertex 60.1929 174.669 158.146
   vertex 60.5029 174.716 158.251
   vertex 60.4672 175.017 157.955
  endloop
 endfacet
 facet normal 0.449546 0.653037 0.609467
  outer loop
   vertex 60.7739 174.775 157.988
   vertex 60.4672 175.017 157.955
   vertex 60.5029 174.716 158.251
  endloop
 endfacet
endsolid
