solid ascii
 facet normal -0.0439879 -0.646079 -0.762002
  outer loop
   vertex 118.904 89.5836 151.211
   vertex 118.759 89.429 151.351
   vertex 118.608 89.5838 151.228
  endloop
 endfacet
 facet normal 0.393997 -0.791164 -0.467789
  outer loop
   vertex 118.759 89.429 151.351
   vertex 118.904 89.5836 151.211
   vertex 119.522 89.5857 151.728
  endloop
 endfacet
 facet normal -0.19316 -0.0069624 -0.981143
  outer loop
   vertex 117.848 90.7286 151.332
   vertex 117.864 90.4443 151.331
   vertex 117.587 90.5886 151.384
  endloop
 endfacet
 facet normal -0.0443001 0.620534 -0.782927
  outer loop
   vertex 118.608 89.5838 151.228
   vertex 118.751 89.7382 151.342
   vertex 118.904 89.5836 151.211
  endloop
 endfacet
 facet normal 0.471568 0.0300104 -0.881319
  outer loop
   vertex 117.864 90.4443 151.331
   vertex 117.848 90.7286 151.332
   vertex 118.603 90.526 151.729
  endloop
 endfacet
 facet normal 0.392455 0.789267 -0.472268
  outer loop
   vertex 119.522 89.5857 151.728
   vertex 118.904 89.5836 151.211
   vertex 118.751 89.7382 151.342
  endloop
 endfacet
 facet normal -0.404033 0.456821 -0.79251
  outer loop
   vertex 117.848 90.7286 151.332
   vertex 117.587 90.5886 151.384
   vertex 117.627 91.3859 151.824
  endloop
 endfacet
 facet normal 0.488633 0.621791 -0.612058
  outer loop
   vertex 118.603 90.526 151.729
   vertex 117.848 90.7286 151.332
   vertex 117.627 91.3859 151.824
  endloop
 endfacet
 facet normal 0.0024409 -0.565299 -0.824883
  outer loop
   vertex 119.085 86.8049 152.08
   vertex 120.09 86.7942 152.09
   vertex 120.004 86.4242 152.343
  endloop
 endfacet
 facet normal -0.0160366 -0.595099 -0.803492
  outer loop
   vertex 118.667 86.3759 152.406
   vertex 119.085 86.8049 152.08
   vertex 120.004 86.4242 152.343
  endloop
 endfacet
 facet normal -0.220187 -0.334928 -0.916156
  outer loop
   vertex 116.736 87.7319 152.253
   vertex 118.001 87.4763 152.043
   vertex 117.495 86.934 152.363
  endloop
 endfacet
 facet normal -0.340679 -0.437924 -0.831961
  outer loop
   vertex 116.491 87.4035 152.527
   vertex 116.736 87.7319 152.253
   vertex 117.495 86.934 152.363
  endloop
 endfacet
 facet normal -0.153287 -0.391971 -0.907117
  outer loop
   vertex 118.667 86.3759 152.406
   vertex 117.495 86.934 152.363
   vertex 118.001 87.4763 152.043
  endloop
 endfacet
 facet normal -0.237251 -0.430819 -0.870693
  outer loop
   vertex 118.667 86.3759 152.406
   vertex 118.001 87.4763 152.043
   vertex 119.085 86.8049 152.08
  endloop
 endfacet
 facet normal -0.0623726 -0.15473 -0.985986
  outer loop
   vertex 119.085 86.8049 152.08
   vertex 118.001 87.4763 152.043
   vertex 118.998 87.6691 151.95
  endloop
 endfacet
 facet normal 0.00864856 -0.142778 -0.989717
  outer loop
   vertex 120.09 86.7942 152.09
   vertex 119.085 86.8049 152.08
   vertex 120.05 87.5605 151.979
  endloop
 endfacet
 facet normal 0.0125596 -0.147672 -0.988957
  outer loop
   vertex 120.05 87.5605 151.979
   vertex 119.085 86.8049 152.08
   vertex 118.998 87.6691 151.95
  endloop
 endfacet
 facet normal 0.200008 -0.584663 -0.786235
  outer loop
   vertex 120.989 86.8884 152.249
   vertex 120.004 86.4242 152.343
   vertex 120.09 86.7942 152.09
  endloop
 endfacet
 facet normal 0.198477 -0.356539 -0.912955
  outer loop
   vertex 120.989 86.8884 152.249
   vertex 120.09 86.7942 152.09
   vertex 121.085 87.4711 152.042
  endloop
 endfacet
 facet normal 0.0479321 -0.140617 -0.988903
  outer loop
   vertex 121.085 87.4711 152.042
   vertex 120.09 86.7942 152.09
   vertex 120.05 87.5605 151.979
  endloop
 endfacet
 facet normal 0.189042 -0.351859 -0.916765
  outer loop
   vertex 121.085 87.4711 152.042
   vertex 121.945 87.7666 152.106
   vertex 121.795 87.3925 152.219
  endloop
 endfacet
 facet normal 0.188278 -0.355743 -0.915422
  outer loop
   vertex 120.989 86.8884 152.249
   vertex 121.085 87.4711 152.042
   vertex 121.795 87.3925 152.219
  endloop
 endfacet
 facet normal 0.639847 -0.444625 -0.626821
  outer loop
   vertex 121.795 87.3925 152.219
   vertex 121.945 87.7666 152.106
   vertex 122.086 87.6272 152.35
  endloop
 endfacet
 facet normal -0.599557 -0.113621 -0.792226
  outer loop
   vertex 115.909 88.6045 152.755
   vertex 116.79 88.6 152.088
   vertex 116.736 87.7319 152.253
  endloop
 endfacet
 facet normal -0.19708 -0.181779 -0.963388
  outer loop
   vertex 118.001 87.4763 152.043
   vertex 116.736 87.7319 152.253
   vertex 117.61 88.4369 151.942
  endloop
 endfacet
 facet normal -0.206001 -0.170786 -0.963533
  outer loop
   vertex 117.61 88.4369 151.942
   vertex 116.736 87.7319 152.253
   vertex 116.79 88.6 152.088
  endloop
 endfacet
 facet normal -0.0642328 -0.145714 -0.987239
  outer loop
   vertex 118.998 87.6691 151.95
   vertex 118.001 87.4763 152.043
   vertex 118.709 88.6259 151.827
  endloop
 endfacet
 facet normal -0.0793063 -0.136467 -0.987465
  outer loop
   vertex 118.709 88.6259 151.827
   vertex 118.001 87.4763 152.043
   vertex 117.61 88.4369 151.942
  endloop
 endfacet
 facet normal 0.018506 -0.0918962 -0.995597
  outer loop
   vertex 120.05 87.5605 151.979
   vertex 118.998 87.6691 151.95
   vertex 119.969 88.5681 151.885
  endloop
 endfacet
 facet normal 0.0400093 -0.114908 -0.99257
  outer loop
   vertex 119.969 88.5681 151.885
   vertex 118.998 87.6691 151.95
   vertex 118.709 88.6259 151.827
  endloop
 endfacet
 facet normal 0.0531497 -0.0845298 -0.995002
  outer loop
   vertex 121.085 87.4711 152.042
   vertex 120.05 87.5605 151.979
   vertex 121.759 88.6104 151.981
  endloop
 endfacet
 facet normal 0.0557814 -0.0888151 -0.994485
  outer loop
   vertex 121.759 88.6104 151.981
   vertex 120.05 87.5605 151.979
   vertex 119.969 88.5681 151.885
  endloop
 endfacet
 facet normal 0.114671 -0.120458 -0.986073
  outer loop
   vertex 121.945 87.7666 152.106
   vertex 121.085 87.4711 152.042
   vertex 121.759 88.6104 151.981
  endloop
 endfacet
 facet normal 0.79222 -0.201021 -0.576175
  outer loop
   vertex 122.34 88.5738 152.368
   vertex 122.086 87.6272 152.35
   vertex 121.945 87.7666 152.106
  endloop
 endfacet
 facet normal 0.553691 -0.00112376 -0.832721
  outer loop
   vertex 121.759 88.6104 151.981
   vertex 122.34 88.5738 152.368
   vertex 121.945 87.7666 152.106
  endloop
 endfacet
 facet normal -0.597469 0.131088 -0.791105
  outer loop
   vertex 116.79 88.6 152.088
   vertex 115.909 88.6045 152.755
   vertex 116.712 89.003 152.214
  endloop
 endfacet
 facet normal -0.486675 0.160069 -0.858793
  outer loop
   vertex 116.712 89.003 152.214
   vertex 117.091 89.6324 152.116
   vertex 117.783 89.5892 151.716
  endloop
 endfacet
 facet normal -0.4908 0.171471 -0.854232
  outer loop
   vertex 116.712 89.003 152.214
   vertex 117.783 89.5892 151.716
   vertex 116.79 88.6 152.088
  endloop
 endfacet
 facet normal -0.203969 -0.158267 -0.966099
  outer loop
   vertex 116.79 88.6 152.088
   vertex 117.783 89.5892 151.716
   vertex 117.61 88.4369 151.942
  endloop
 endfacet
 facet normal -0.333035 -0.762633 -0.554508
  outer loop
   vertex 118.759 89.429 151.351
   vertex 117.783 89.5892 151.716
   vertex 118.608 89.5838 151.228
  endloop
 endfacet
 facet normal -0.377034 -0.455342 -0.806541
  outer loop
   vertex 118.759 89.429 151.351
   vertex 118.709 88.6259 151.827
   vertex 117.783 89.5892 151.716
  endloop
 endfacet
 facet normal -0.0709474 -0.181085 -0.980905
  outer loop
   vertex 118.709 88.6259 151.827
   vertex 117.61 88.4369 151.942
   vertex 117.783 89.5892 151.716
  endloop
 endfacet
 facet normal 0.46692 -0.472549 -0.747451
  outer loop
   vertex 119.522 89.5857 151.728
   vertex 118.709 88.6259 151.827
   vertex 118.759 89.429 151.351
  endloop
 endfacet
 facet normal 0.038958 -0.135295 -0.990039
  outer loop
   vertex 119.522 89.5857 151.728
   vertex 119.969 88.5681 151.885
   vertex 118.709 88.6259 151.827
  endloop
 endfacet
 facet normal 0.0562749 -0.116244 -0.991625
  outer loop
   vertex 121.759 88.6104 151.981
   vertex 119.969 88.5681 151.885
   vertex 120.782 89.6095 151.809
  endloop
 endfacet
 facet normal 0.0657441 -0.12353 -0.990161
  outer loop
   vertex 120.782 89.6095 151.809
   vertex 119.969 88.5681 151.885
   vertex 119.522 89.5857 151.728
  endloop
 endfacet
 facet normal 0.00557357 -0.164879 -0.986298
  outer loop
   vertex 121.909 89.5111 151.832
   vertex 121.759 88.6104 151.981
   vertex 120.782 89.6095 151.809
  endloop
 endfacet
 facet normal 0.452313 -0.514107 -0.728771
  outer loop
   vertex 122.839 89.3347 152.141
   vertex 122.34 88.5738 152.368
   vertex 121.759 88.6104 151.981
  endloop
 endfacet
 facet normal 0.347675 -0.324906 -0.879522
  outer loop
   vertex 122.839 89.3347 152.141
   vertex 121.759 88.6104 151.981
   vertex 122.706 89.4706 152.038
  endloop
 endfacet
 facet normal 0.236295 -0.197529 -0.951392
  outer loop
   vertex 122.706 89.4706 152.038
   vertex 121.759 88.6104 151.981
   vertex 121.909 89.5111 151.832
  endloop
 endfacet
 facet normal -0.488581 -0.325033 -0.809717
  outer loop
   vertex 117.783 89.5892 151.716
   vertex 117.091 89.6324 152.116
   vertex 116.789 90.5306 151.938
  endloop
 endfacet
 facet normal -0.51423 -0.359419 -0.778707
  outer loop
   vertex 117.783 89.5892 151.716
   vertex 116.789 90.5306 151.938
   vertex 117.587 90.5886 151.384
  endloop
 endfacet
 facet normal -0.352848 -0.356489 -0.865109
  outer loop
   vertex 117.783 89.5892 151.716
   vertex 117.587 90.5886 151.384
   vertex 117.864 90.4443 151.331
  endloop
 endfacet
 facet normal 0.468677 -0.399624 -0.787809
  outer loop
   vertex 118.603 90.526 151.729
   vertex 117.783 89.5892 151.716
   vertex 117.864 90.4443 151.331
  endloop
 endfacet
 facet normal -0.33816 0.741247 -0.579829
  outer loop
   vertex 118.608 89.5838 151.228
   vertex 117.783 89.5892 151.716
   vertex 118.751 89.7382 151.342
  endloop
 endfacet
 facet normal -0.384086 0.348347 -0.855063
  outer loop
   vertex 118.751 89.7382 151.342
   vertex 117.783 89.5892 151.716
   vertex 118.603 90.526 151.729
  endloop
 endfacet
 facet normal 0.468568 0.45863 -0.755051
  outer loop
   vertex 118.751 89.7382 151.342
   vertex 118.603 90.526 151.729
   vertex 119.522 89.5857 151.728
  endloop
 endfacet
 facet normal 0.230268 0.226215 -0.946469
  outer loop
   vertex 118.603 90.526 151.729
   vertex 119.687 90.6365 152.019
   vertex 119.522 89.5857 151.728
  endloop
 endfacet
 facet normal 0.290127 0.538487 -0.791112
  outer loop
   vertex 120.34 90.6068 152.325
   vertex 121.231 89.958 152.21
   vertex 120.782 89.6095 151.809
  endloop
 endfacet
 facet normal 0.374228 0.551982 -0.745163
  outer loop
   vertex 120.34 90.6068 152.325
   vertex 120.782 89.6095 151.809
   vertex 119.687 90.6365 152.019
  endloop
 endfacet
 facet normal 0.0568769 0.258432 -0.964354
  outer loop
   vertex 119.687 90.6365 152.019
   vertex 120.782 89.6095 151.809
   vertex 119.522 89.5857 151.728
  endloop
 endfacet
 facet normal 0.0761333 0.709503 -0.700578
  outer loop
   vertex 121.909 89.5111 151.832
   vertex 120.782 89.6095 151.809
   vertex 121.231 89.958 152.21
  endloop
 endfacet
 facet normal 0.142149 0.756729 -0.638086
  outer loop
   vertex 122.239 89.8113 152.261
   vertex 121.909 89.5111 151.832
   vertex 121.231 89.958 152.21
  endloop
 endfacet
 facet normal 0.208243 0.719295 -0.662759
  outer loop
   vertex 122.706 89.4706 152.038
   vertex 121.909 89.5111 151.832
   vertex 122.239 89.8113 152.261
  endloop
 endfacet
 facet normal -0.00176036 0.546224 -0.837637
  outer loop
   vertex 122.921 89.657 152.159
   vertex 122.706 89.4706 152.038
   vertex 122.239 89.8113 152.261
  endloop
 endfacet
 facet normal 0.547903 -0.0924374 -0.831419
  outer loop
   vertex 122.839 89.3347 152.141
   vertex 122.706 89.4706 152.038
   vertex 122.921 89.657 152.159
  endloop
 endfacet
 facet normal -0.517692 -0.258516 -0.815576
  outer loop
   vertex 116.675 91.4245 151.727
   vertex 116.789 90.5306 151.938
   vertex 116.22 90.9568 152.164
  endloop
 endfacet
 facet normal -0.724914 0.064438 -0.685819
  outer loop
   vertex 116.3 91.5349 152.134
   vertex 116.675 91.4245 151.727
   vertex 116.22 90.9568 152.164
  endloop
 endfacet
 facet normal -0.536084 0.427805 -0.727734
  outer loop
   vertex 117.587 90.5886 151.384
   vertex 116.789 90.5306 151.938
   vertex 117.627 91.3859 151.824
  endloop
 endfacet
 facet normal 0.0894797 -0.217924 -0.971855
  outer loop
   vertex 116.789 90.5306 151.938
   vertex 116.675 91.4245 151.727
   vertex 117.627 91.3859 151.824
  endloop
 endfacet
 facet normal 0.158652 0.283683 -0.945703
  outer loop
   vertex 117.627 91.3859 151.824
   vertex 118.666 91.4658 152.022
   vertex 118.603 90.526 151.729
  endloop
 endfacet
 facet normal 0.405154 0.502435 -0.763812
  outer loop
   vertex 119.088 91.6694 152.381
   vertex 119.838 91.0118 152.347
   vertex 119.687 90.6365 152.019
  endloop
 endfacet
 facet normal 0.406794 0.502959 -0.762595
  outer loop
   vertex 119.088 91.6694 152.381
   vertex 119.687 90.6365 152.019
   vertex 118.666 91.4658 152.022
  endloop
 endfacet
 facet normal 0.22213 0.276149 -0.935094
  outer loop
   vertex 118.666 91.4658 152.022
   vertex 119.687 90.6365 152.019
   vertex 118.603 90.526 151.729
  endloop
 endfacet
 facet normal 0.382885 0.514455 -0.767291
  outer loop
   vertex 120.34 90.6068 152.325
   vertex 119.687 90.6365 152.019
   vertex 119.838 91.0118 152.347
  endloop
 endfacet
 facet normal -0.46399 0.648227 -0.603751
  outer loop
   vertex 116.675 91.4245 151.727
   vertex 116.3 91.5349 152.134
   vertex 116.667 91.9376 152.284
  endloop
 endfacet
 facet normal 0.0977855 0.732515 -0.673691
  outer loop
   vertex 117.627 91.3859 151.824
   vertex 116.675 91.4245 151.727
   vertex 116.667 91.9376 152.284
  endloop
 endfacet
 facet normal -0.102709 0.526035 -0.844238
  outer loop
   vertex 117.955 92.2492 152.322
   vertex 117.627 91.3859 151.824
   vertex 116.667 91.9376 152.284
  endloop
 endfacet
 facet normal 0.132697 0.457052 -0.879486
  outer loop
   vertex 118.666 91.4658 152.022
   vertex 117.627 91.3859 151.824
   vertex 117.955 92.2492 152.322
  endloop
 endfacet
 facet normal 0.339976 0.589206 -0.732975
  outer loop
   vertex 119.088 91.6694 152.381
   vertex 118.666 91.4658 152.022
   vertex 117.955 92.2492 152.322
  endloop
 endfacet
 facet normal -0.580623 -0.73021 -0.360097
  outer loop
   vertex 117.811 86.449 152.61
   vertex 117.815 86.0854 153.341
   vertex 117.404 86.5478 153.067
  endloop
 endfacet
 facet normal -0.179767 -0.881042 -0.437548
  outer loop
   vertex 117.811 86.449 152.61
   vertex 118.667 86.3759 152.406
   vertex 117.815 86.0854 153.341
  endloop
 endfacet
 facet normal -0.282255 -0.812728 -0.509712
  outer loop
   vertex 117.815 86.0854 153.341
   vertex 118.667 86.3759 152.406
   vertex 118.923 85.7336 153.288
  endloop
 endfacet
 facet normal 0.00313638 -0.822397 -0.568905
  outer loop
   vertex 120.004 86.4242 152.343
   vertex 119.86 85.8667 153.149
   vertex 118.667 86.3759 152.406
  endloop
 endfacet
 facet normal 0.0257124 -0.804737 -0.593075
  outer loop
   vertex 118.667 86.3759 152.406
   vertex 119.86 85.8667 153.149
   vertex 118.923 85.7336 153.288
  endloop
 endfacet
 facet normal 0.280149 -0.812414 -0.511371
  outer loop
   vertex 120.004 86.4242 152.343
   vertex 121.02 86.5716 152.666
   vertex 120.761 86.2169 153.088
  endloop
 endfacet
 facet normal 0.280998 -0.811701 -0.512037
  outer loop
   vertex 120.004 86.4242 152.343
   vertex 120.761 86.2169 153.088
   vertex 119.86 85.8667 153.149
  endloop
 endfacet
 facet normal 0.652627 -0.727674 -0.211113
  outer loop
   vertex 120.761 86.2169 153.088
   vertex 121.02 86.5716 152.666
   vertex 121.381 86.6923 153.364
  endloop
 endfacet
 facet normal -0.601883 -0.19456 -0.774521
  outer loop
   vertex 115.736 87.7364 153.03
   vertex 116.736 87.7319 152.253
   vertex 116.491 87.4035 152.527
  endloop
 endfacet
 facet normal -0.619302 -0.532442 -0.577036
  outer loop
   vertex 115.736 87.7364 153.03
   vertex 116.491 87.4035 152.527
   vertex 115.794 87.4056 153.272
  endloop
 endfacet
 facet normal -0.37506 -0.859226 -0.347936
  outer loop
   vertex 115.794 87.4056 153.272
   vertex 116.491 87.4035 152.527
   vertex 116.585 87.0708 153.246
  endloop
 endfacet
 facet normal -0.638645 -0.636717 -0.432116
  outer loop
   vertex 117.404 86.5478 153.067
   vertex 117.495 86.934 152.363
   vertex 117.811 86.449 152.61
  endloop
 endfacet
 facet normal -0.548235 -0.701206 -0.455795
  outer loop
   vertex 117.404 86.5478 153.067
   vertex 116.585 87.0708 153.246
   vertex 117.495 86.934 152.363
  endloop
 endfacet
 facet normal -0.443535 -0.834325 -0.327382
  outer loop
   vertex 116.585 87.0708 153.246
   vertex 116.491 87.4035 152.527
   vertex 117.495 86.934 152.363
  endloop
 endfacet
 facet normal -0.23745 -0.560003 -0.793734
  outer loop
   vertex 118.667 86.3759 152.406
   vertex 117.811 86.449 152.61
   vertex 117.495 86.934 152.363
  endloop
 endfacet
 facet normal 0.296505 -0.749849 -0.591449
  outer loop
   vertex 120.004 86.4242 152.343
   vertex 120.989 86.8884 152.249
   vertex 121.02 86.5716 152.666
  endloop
 endfacet
 facet normal 0.618439 -0.763179 -0.187327
  outer loop
   vertex 121.02 86.5716 152.666
   vertex 121.82 87.1706 152.866
   vertex 121.381 86.6923 153.364
  endloop
 endfacet
 facet normal 0.592563 -0.619613 -0.514732
  outer loop
   vertex 121.02 86.5716 152.666
   vertex 120.989 86.8884 152.249
   vertex 121.82 87.1706 152.866
  endloop
 endfacet
 facet normal 0.49806 -0.814186 -0.29839
  outer loop
   vertex 120.989 86.8884 152.249
   vertex 121.795 87.3925 152.219
   vertex 121.82 87.1706 152.866
  endloop
 endfacet
 facet normal 0.674216 -0.69024 -0.262683
  outer loop
   vertex 121.82 87.1706 152.866
   vertex 121.795 87.3925 152.219
   vertex 122.086 87.6272 152.35
  endloop
 endfacet
 facet normal 0.878106 -0.477473 0.0308198
  outer loop
   vertex 122.156 87.7984 153.03
   vertex 121.82 87.1706 152.866
   vertex 122.086 87.6272 152.35
  endloop
 endfacet
 facet normal -0.72538 -0.0724928 -0.684521
  outer loop
   vertex 115.413 88.5626 153.284
   vertex 115.909 88.6045 152.755
   vertex 115.736 87.7364 153.03
  endloop
 endfacet
 facet normal -0.608434 -0.127138 -0.783355
  outer loop
   vertex 115.736 87.7364 153.03
   vertex 115.909 88.6045 152.755
   vertex 116.736 87.7319 152.253
  endloop
 endfacet
 facet normal 0.965636 -0.257749 -0.0333438
  outer loop
   vertex 122.086 87.6272 152.35
   vertex 122.34 88.5738 152.368
   vertex 122.156 87.7984 153.03
  endloop
 endfacet
 facet normal 0.945444 -0.31001 -0.100145
  outer loop
   vertex 122.156 87.7984 153.03
   vertex 122.34 88.5738 152.368
   vertex 122.456 88.664 153.189
  endloop
 endfacet
 facet normal -0.715193 -0.155016 -0.681519
  outer loop
   vertex 115.503 89.5582 152.964
   vertex 115.909 88.6045 152.755
   vertex 115.413 88.5626 153.284
  endloop
 endfacet
 facet normal -0.684146 -0.166967 -0.709976
  outer loop
   vertex 115.141 89.4246 153.344
   vertex 115.503 89.5582 152.964
   vertex 115.413 88.5626 153.284
  endloop
 endfacet
 facet normal -0.610533 0.186448 -0.769732
  outer loop
   vertex 115.909 88.6045 152.755
   vertex 116.378 89.6112 152.626
   vertex 116.712 89.003 152.214
  endloop
 endfacet
 facet normal -0.361817 0.0500339 -0.930906
  outer loop
   vertex 115.909 88.6045 152.755
   vertex 115.503 89.5582 152.964
   vertex 116.378 89.6112 152.626
  endloop
 endfacet
 facet normal -0.571457 0.221771 -0.790098
  outer loop
   vertex 116.712 89.003 152.214
   vertex 116.378 89.6112 152.626
   vertex 117.091 89.6324 152.116
  endloop
 endfacet
 facet normal 0.823232 -0.429413 0.371341
  outer loop
   vertex 122.815 89.5783 152.477
   vertex 122.34 88.5738 152.368
   vertex 122.839 89.3347 152.141
  endloop
 endfacet
 facet normal 0.85202 -0.43443 0.292117
  outer loop
   vertex 122.815 89.5783 152.477
   vertex 122.571 89.5546 153.151
   vertex 122.34 88.5738 152.368
  endloop
 endfacet
 facet normal 0.983327 -0.132003 -0.12507
  outer loop
   vertex 122.571 89.5546 153.151
   vertex 122.456 88.664 153.189
   vertex 122.34 88.5738 152.368
  endloop
 endfacet
 facet normal -0.592015 -0.394971 -0.702507
  outer loop
   vertex 115.141 89.4246 153.344
   vertex 114.715 90.435 153.134
   vertex 115.503 89.5582 152.964
  endloop
 endfacet
 facet normal -0.391958 -0.176333 -0.902926
  outer loop
   vertex 115.503 89.5582 152.964
   vertex 114.715 90.435 153.134
   vertex 115.712 90.5072 152.687
  endloop
 endfacet
 facet normal -0.539688 -0.30412 -0.785014
  outer loop
   vertex 116.789 90.5306 151.938
   vertex 115.712 90.5072 152.687
   vertex 116.22 90.9568 152.164
  endloop
 endfacet
 facet normal -0.531713 -0.342134 -0.774742
  outer loop
   vertex 116.789 90.5306 151.938
   vertex 116.378 89.6112 152.626
   vertex 115.712 90.5072 152.687
  endloop
 endfacet
 facet normal -0.342804 -0.192044 -0.919568
  outer loop
   vertex 116.378 89.6112 152.626
   vertex 115.503 89.5582 152.964
   vertex 115.712 90.5072 152.687
  endloop
 endfacet
 facet normal -0.541313 -0.335144 -0.771141
  outer loop
   vertex 117.091 89.6324 152.116
   vertex 116.378 89.6112 152.626
   vertex 116.789 90.5306 151.938
  endloop
 endfacet
 facet normal 0.426093 0.688873 -0.586428
  outer loop
   vertex 121.231 89.958 152.21
   vertex 120.34 90.6068 152.325
   vertex 121.056 90.5608 152.791
  endloop
 endfacet
 facet normal 0.139756 0.72932 -0.669746
  outer loop
   vertex 121.231 89.958 152.21
   vertex 121.803 90.482 152.9
   vertex 122.239 89.8113 152.261
  endloop
 endfacet
 facet normal 0.17439 0.709136 -0.683165
  outer loop
   vertex 121.056 90.5608 152.791
   vertex 121.803 90.482 152.9
   vertex 121.231 89.958 152.21
  endloop
 endfacet
 facet normal 0.875407 0.354911 0.328178
  outer loop
   vertex 122.815 89.5783 152.477
   vertex 122.301 90.3068 153.059
   vertex 122.571 89.5546 153.151
  endloop
 endfacet
 facet normal 0.478615 0.72875 -0.489746
  outer loop
   vertex 122.815 89.5783 152.477
   vertex 122.239 89.8113 152.261
   vertex 122.301 90.3068 153.059
  endloop
 endfacet
 facet normal 0.253823 0.915366 0.312536
  outer loop
   vertex 122.815 89.5783 152.477
   vertex 122.921 89.657 152.159
   vertex 122.239 89.8113 152.261
  endloop
 endfacet
 facet normal 0.424773 0.753896 -0.501207
  outer loop
   vertex 121.803 90.482 152.9
   vertex 122.301 90.3068 153.059
   vertex 122.239 89.8113 152.261
  endloop
 endfacet
 facet normal 0.934208 -0.252994 0.251497
  outer loop
   vertex 122.839 89.3347 152.141
   vertex 122.921 89.657 152.159
   vertex 122.815 89.5783 152.477
  endloop
 endfacet
 facet normal -0.565914 -0.193636 -0.801402
  outer loop
   vertex 114.536 91.3892 153.03
   vertex 114.715 90.435 153.134
   vertex 114.243 90.7452 153.393
  endloop
 endfacet
 facet normal -0.814541 0.0448767 -0.578368
  outer loop
   vertex 114.233 91.4888 153.465
   vertex 114.536 91.3892 153.03
   vertex 114.243 90.7452 153.393
  endloop
 endfacet
 facet normal -0.406952 -0.0310398 -0.912922
  outer loop
   vertex 115.712 90.5072 152.687
   vertex 114.715 90.435 153.134
   vertex 115.504 91.4658 152.748
  endloop
 endfacet
 facet normal -0.265741 -0.153682 -0.951716
  outer loop
   vertex 115.504 91.4658 152.748
   vertex 114.715 90.435 153.134
   vertex 114.536 91.3892 153.03
  endloop
 endfacet
 facet normal -0.612473 0.0433759 -0.789301
  outer loop
   vertex 116.22 90.9568 152.164
   vertex 115.504 91.4658 152.748
   vertex 116.3 91.5349 152.134
  endloop
 endfacet
 facet normal -0.670176 -0.0993236 -0.735526
  outer loop
   vertex 115.712 90.5072 152.687
   vertex 115.504 91.4658 152.748
   vertex 116.22 90.9568 152.164
  endloop
 endfacet
 facet normal 0.498308 0.601314 -0.624588
  outer loop
   vertex 119.838 91.0118 152.347
   vertex 119.088 91.6694 152.381
   vertex 119.803 91.5599 152.846
  endloop
 endfacet
 facet normal 0.41648 0.626893 -0.658445
  outer loop
   vertex 119.838 91.0118 152.347
   vertex 119.803 91.5599 152.846
   vertex 120.252 91.4245 153.001
  endloop
 endfacet
 facet normal 0.453372 0.596304 -0.662476
  outer loop
   vertex 120.34 90.6068 152.325
   vertex 119.838 91.0118 152.347
   vertex 120.252 91.4245 153.001
  endloop
 endfacet
 facet normal 0.441516 0.599355 -0.667711
  outer loop
   vertex 120.34 90.6068 152.325
   vertex 120.252 91.4245 153.001
   vertex 121.132 91.0288 153.228
  endloop
 endfacet
 facet normal 0.478302 0.556046 -0.679735
  outer loop
   vertex 120.34 90.6068 152.325
   vertex 121.132 91.0288 153.228
   vertex 121.056 90.5608 152.791
  endloop
 endfacet
 facet normal 0.176196 0.655739 -0.73414
  outer loop
   vertex 121.803 90.482 152.9
   vertex 121.056 90.5608 152.791
   vertex 121.132 91.0288 153.228
  endloop
 endfacet
 facet normal 0.382202 0.772721 -0.506778
  outer loop
   vertex 121.934 90.656 153.264
   vertex 121.803 90.482 152.9
   vertex 121.132 91.0288 153.228
  endloop
 endfacet
 facet normal 0.425377 0.74751 -0.510181
  outer loop
   vertex 122.301 90.3068 153.059
   vertex 121.803 90.482 152.9
   vertex 121.934 90.656 153.264
  endloop
 endfacet
 facet normal -0.655393 0.494991 -0.570477
  outer loop
   vertex 114.536 91.3892 153.03
   vertex 114.233 91.4888 153.465
   vertex 114.673 91.7876 153.219
  endloop
 endfacet
 facet normal -0.28004 0.48772 -0.826865
  outer loop
   vertex 115.504 91.4658 152.748
   vertex 114.536 91.3892 153.03
   vertex 114.673 91.7876 153.219
  endloop
 endfacet
 facet normal -0.204474 0.602183 -0.771729
  outer loop
   vertex 115.574 92.0767 153.206
   vertex 115.504 91.4658 152.748
   vertex 114.673 91.7876 153.219
  endloop
 endfacet
 facet normal -0.460715 0.706577 -0.537113
  outer loop
   vertex 116.564 92.5236 152.945
   vertex 115.574 92.0767 153.206
   vertex 116.174 92.618 153.403
  endloop
 endfacet
 facet normal -0.451399 0.631235 -0.630699
  outer loop
   vertex 116.667 91.9376 152.284
   vertex 115.574 92.0767 153.206
   vertex 116.564 92.5236 152.945
  endloop
 endfacet
 facet normal -0.492512 0.557461 -0.668333
  outer loop
   vertex 116.667 91.9376 152.284
   vertex 115.504 91.4658 152.748
   vertex 115.574 92.0767 153.206
  endloop
 endfacet
 facet normal -0.493469 0.660842 -0.565487
  outer loop
   vertex 116.667 91.9376 152.284
   vertex 116.3 91.5349 152.134
   vertex 115.504 91.4658 152.748
  endloop
 endfacet
 facet normal -0.126341 0.615678 -0.777804
  outer loop
   vertex 116.667 91.9376 152.284
   vertex 117.455 92.6067 152.686
   vertex 117.955 92.2492 152.322
  endloop
 endfacet
 facet normal -0.258149 0.702257 -0.663471
  outer loop
   vertex 116.564 92.5236 152.945
   vertex 117.455 92.6067 152.686
   vertex 116.667 91.9376 152.284
  endloop
 endfacet
 facet normal 0.210816 0.826357 -0.522198
  outer loop
   vertex 118.244 92.6547 153.08
   vertex 117.955 92.2492 152.322
   vertex 117.455 92.6067 152.686
  endloop
 endfacet
 facet normal 0.440187 0.71121 -0.548102
  outer loop
   vertex 118.244 92.6547 153.08
   vertex 118.859 92.4105 153.257
   vertex 117.955 92.2492 152.322
  endloop
 endfacet
 facet normal 0.40945 0.746504 -0.524482
  outer loop
   vertex 118.859 92.4105 153.257
   vertex 119.088 91.6694 152.381
   vertex 117.955 92.2492 152.322
  endloop
 endfacet
 facet normal 0.4877 0.633487 -0.600702
  outer loop
   vertex 119.803 91.5599 152.846
   vertex 119.088 91.6694 152.381
   vertex 119.932 91.8726 153.28
  endloop
 endfacet
 facet normal 0.388202 0.751121 -0.533962
  outer loop
   vertex 119.932 91.8726 153.28
   vertex 119.088 91.6694 152.381
   vertex 118.859 92.4105 153.257
  endloop
 endfacet
 facet normal 0.414342 0.675893 -0.6095
  outer loop
   vertex 120.252 91.4245 153.001
   vertex 119.803 91.5599 152.846
   vertex 119.932 91.8726 153.28
  endloop
 endfacet
 facet normal -0.256953 0.879987 -0.399497
  outer loop
   vertex 116.564 92.5236 152.945
   vertex 116.174 92.618 153.403
   vertex 116.783 92.7798 153.368
  endloop
 endfacet
 facet normal -0.20596 0.880804 -0.426338
  outer loop
   vertex 117.455 92.6067 152.686
   vertex 116.564 92.5236 152.945
   vertex 116.783 92.7798 153.368
  endloop
 endfacet
 facet normal -0.0888371 0.941115 -0.326206
  outer loop
   vertex 117.716 92.8475 153.309
   vertex 117.455 92.6067 152.686
   vertex 116.783 92.7798 153.368
  endloop
 endfacet
 facet normal 0.150361 0.899527 -0.410174
  outer loop
   vertex 118.244 92.6547 153.08
   vertex 117.455 92.6067 152.686
   vertex 117.716 92.8475 153.309
  endloop
 endfacet
 facet normal -0.518625 -0.851251 -0.0799937
  outer loop
   vertex 116.859 86.5126 153.8
   vertex 116.964 86.4064 154.248
   vertex 116.402 86.7488 154.246
  endloop
 endfacet
 facet normal -0.532322 -0.728947 -0.43043
  outer loop
   vertex 116.859 86.5126 153.8
   vertex 117.404 86.5478 153.067
   vertex 117.815 86.0854 153.341
  endloop
 endfacet
 facet normal -0.447291 -0.888149 -0.105466
  outer loop
   vertex 116.859 86.5126 153.8
   vertex 117.815 86.0854 153.341
   vertex 116.964 86.4064 154.248
  endloop
 endfacet
 facet normal -0.351592 -0.936152 0.00127662
  outer loop
   vertex 116.964 86.4064 154.248
   vertex 117.815 86.0854 153.341
   vertex 117.878 86.0633 154.369
  endloop
 endfacet
 facet normal -0.301588 -0.953111 0.0249766
  outer loop
   vertex 118.923 85.7336 153.288
   vertex 118.821 85.7887 154.159
   vertex 117.815 86.0854 153.341
  endloop
 endfacet
 facet normal -0.280354 -0.95989 -0.00358281
  outer loop
   vertex 117.815 86.0854 153.341
   vertex 118.821 85.7887 154.159
   vertex 117.878 86.0633 154.369
  endloop
 endfacet
 facet normal 0.132242 -0.989701 -0.0548122
  outer loop
   vertex 119.86 85.8667 153.149
   vertex 119.746 85.8041 154.004
   vertex 118.923 85.7336 153.288
  endloop
 endfacet
 facet normal 0.0276521 -0.997414 0.0663445
  outer loop
   vertex 118.923 85.7336 153.288
   vertex 119.746 85.8041 154.004
   vertex 118.821 85.7887 154.159
  endloop
 endfacet
 facet normal 0.365143 -0.929098 0.0587128
  outer loop
   vertex 120.761 86.2169 153.088
   vertex 120.712 86.2543 153.989
   vertex 119.86 85.8667 153.149
  endloop
 endfacet
 facet normal 0.422565 -0.906278 -0.00996756
  outer loop
   vertex 119.86 85.8667 153.149
   vertex 120.712 86.2543 153.989
   vertex 119.746 85.8041 154.004
  endloop
 endfacet
 facet normal 0.588772 -0.805607 0.0659136
  outer loop
   vertex 120.712 86.2543 153.989
   vertex 120.761 86.2169 153.088
   vertex 121.381 86.6923 153.364
  endloop
 endfacet
 facet normal 0.677578 -0.695879 0.237991
  outer loop
   vertex 121.116 86.7124 154.177
   vertex 120.712 86.2543 153.989
   vertex 121.381 86.6923 153.364
  endloop
 endfacet
 facet normal -0.836129 -0.516813 -0.183827
  outer loop
   vertex 115.794 87.4056 153.272
   vertex 115.743 87.1807 154.135
   vertex 115.468 87.6992 153.929
  endloop
 endfacet
 facet normal -0.889296 -0.362006 -0.279473
  outer loop
   vertex 115.736 87.7364 153.03
   vertex 115.794 87.4056 153.272
   vertex 115.468 87.6992 153.929
  endloop
 endfacet
 facet normal -0.670413 -0.661583 -0.335938
  outer loop
   vertex 116.402 86.7488 154.246
   vertex 116.585 87.0708 153.246
   vertex 116.859 86.5126 153.8
  endloop
 endfacet
 facet normal -0.472536 -0.809929 -0.347456
  outer loop
   vertex 116.402 86.7488 154.246
   vertex 115.743 87.1807 154.135
   vertex 116.585 87.0708 153.246
  endloop
 endfacet
 facet normal -0.383992 -0.887723 -0.253965
  outer loop
   vertex 115.743 87.1807 154.135
   vertex 115.794 87.4056 153.272
   vertex 116.585 87.0708 153.246
  endloop
 endfacet
 facet normal -0.549902 -0.708378 -0.442502
  outer loop
   vertex 117.404 86.5478 153.067
   vertex 116.859 86.5126 153.8
   vertex 116.585 87.0708 153.246
  endloop
 endfacet
 facet normal 0.808179 -0.56342 0.171478
  outer loop
   vertex 121.924 87.4951 153.443
   vertex 121.381 86.6923 153.364
   vertex 121.82 87.1706 152.866
  endloop
 endfacet
 facet normal 0.707281 -0.524696 0.47376
  outer loop
   vertex 121.924 87.4951 153.443
   vertex 121.493 87.6254 154.23
   vertex 121.381 86.6923 153.364
  endloop
 endfacet
 facet normal 0.876897 -0.37946 0.295063
  outer loop
   vertex 121.493 87.6254 154.23
   vertex 121.116 86.7124 154.177
   vertex 121.381 86.6923 153.364
  endloop
 endfacet
 facet normal 0.861681 -0.492562 0.122017
  outer loop
   vertex 121.82 87.1706 152.866
   vertex 122.156 87.7984 153.03
   vertex 121.924 87.4951 153.443
  endloop
 endfacet
 facet normal -0.919439 -0.271278 -0.284677
  outer loop
   vertex 115.736 87.7364 153.03
   vertex 115.468 87.6992 153.929
   vertex 115.413 88.5626 153.284
  endloop
 endfacet
 facet normal -0.9204 -0.269955 -0.282822
  outer loop
   vertex 115.468 87.6992 153.929
   vertex 115.159 88.553 154.121
   vertex 115.413 88.5626 153.284
  endloop
 endfacet
 facet normal 0.818094 -0.291455 0.495758
  outer loop
   vertex 122.053 88.3512 153.733
   vertex 121.493 87.6254 154.23
   vertex 121.924 87.4951 153.443
  endloop
 endfacet
 facet normal 0.788109 -0.212222 0.577794
  outer loop
   vertex 121.77 88.6537 154.23
   vertex 121.493 87.6254 154.23
   vertex 122.053 88.3512 153.733
  endloop
 endfacet
 facet normal 0.835944 -0.365406 0.409483
  outer loop
   vertex 122.156 87.7984 153.03
   vertex 122.456 88.664 153.189
   vertex 122.053 88.3512 153.733
  endloop
 endfacet
 facet normal 0.911025 -0.24885 0.328796
  outer loop
   vertex 121.924 87.4951 153.443
   vertex 122.156 87.7984 153.03
   vertex 122.053 88.3512 153.733
  endloop
 endfacet
 facet normal -0.666443 -0.503701 -0.549672
  outer loop
   vertex 114.607 89.4516 153.967
   vertex 115.141 89.4246 153.344
   vertex 115.159 88.553 154.121
  endloop
 endfacet
 facet normal -0.920145 -0.270893 -0.282755
  outer loop
   vertex 115.141 89.4246 153.344
   vertex 115.413 88.5626 153.284
   vertex 115.159 88.553 154.121
  endloop
 endfacet
 facet normal 0.827445 -0.125414 0.547363
  outer loop
   vertex 122.125 89.3584 153.854
   vertex 121.77 88.6537 154.23
   vertex 122.053 88.3512 153.733
  endloop
 endfacet
 facet normal 0.811607 -0.102613 0.575121
  outer loop
   vertex 121.719 89.5192 154.456
   vertex 121.77 88.6537 154.23
   vertex 122.125 89.3584 153.854
  endloop
 endfacet
 facet normal 0.852146 -0.088322 0.515797
  outer loop
   vertex 122.456 88.664 153.189
   vertex 122.571 89.5546 153.151
   vertex 122.125 89.3584 153.854
  endloop
 endfacet
 facet normal 0.830183 -0.125119 0.543269
  outer loop
   vertex 122.053 88.3512 153.733
   vertex 122.456 88.664 153.189
   vertex 122.125 89.3584 153.854
  endloop
 endfacet
 facet normal -0.692214 -0.420208 -0.586741
  outer loop
   vertex 114.715 90.435 153.134
   vertex 114.607 89.4516 153.967
   vertex 114.133 89.8617 154.231
  endloop
 endfacet
 facet normal -0.642957 -0.483733 -0.593809
  outer loop
   vertex 114.715 90.435 153.134
   vertex 114.133 89.8617 154.231
   vertex 114.243 90.7452 153.393
  endloop
 endfacet
 facet normal -0.942382 -0.161025 -0.293235
  outer loop
   vertex 114.243 90.7452 153.393
   vertex 114.133 89.8617 154.231
   vertex 113.98 90.8253 154.194
  endloop
 endfacet
 facet normal -0.699392 -0.415207 -0.581768
  outer loop
   vertex 115.141 89.4246 153.344
   vertex 114.607 89.4516 153.967
   vertex 114.715 90.435 153.134
  endloop
 endfacet
 facet normal 0.822485 -0.0447942 0.56702
  outer loop
   vertex 122.125 89.3584 153.854
   vertex 122.005 90.5789 154.126
   vertex 121.719 89.5192 154.456
  endloop
 endfacet
 facet normal 0.848223 -0.0337014 0.528567
  outer loop
   vertex 122.005 90.5789 154.126
   vertex 122.125 89.3584 153.854
   vertex 122.571 89.5546 153.151
  endloop
 endfacet
 facet normal 0.921357 0.351422 0.166147
  outer loop
   vertex 122.005 90.5789 154.126
   vertex 122.571 89.5546 153.151
   vertex 122.301 90.3068 153.059
  endloop
 endfacet
 facet normal -0.949472 0.0172097 -0.313379
  outer loop
   vertex 114.243 90.7452 153.393
   vertex 113.98 90.8253 154.194
   vertex 114.233 91.4888 153.465
  endloop
 endfacet
 facet normal -0.959289 0.062714 -0.275374
  outer loop
   vertex 113.98 90.8253 154.194
   vertex 114.003 91.5599 154.281
   vertex 114.233 91.4888 153.465
  endloop
 endfacet
 facet normal 0.453913 0.678458 -0.577631
  outer loop
   vertex 121.132 91.0288 153.228
   vertex 120.252 91.4245 153.001
   vertex 120.823 91.6118 153.67
  endloop
 endfacet
 facet normal 0.517639 0.673885 -0.52719
  outer loop
   vertex 121.379 91.476 154.042
   vertex 121.132 91.0288 153.228
   vertex 120.823 91.6118 153.67
  endloop
 endfacet
 facet normal 0.738772 0.470389 -0.482649
  outer loop
   vertex 121.379 91.476 154.042
   vertex 122.005 90.5789 154.126
   vertex 121.132 91.0288 153.228
  endloop
 endfacet
 facet normal 0.419308 0.906646 0.0466161
  outer loop
   vertex 122.005 90.5789 154.126
   vertex 121.934 90.656 153.264
   vertex 121.132 91.0288 153.228
  endloop
 endfacet
 facet normal 0.691366 0.722464 0.00767217
  outer loop
   vertex 122.005 90.5789 154.126
   vertex 122.301 90.3068 153.059
   vertex 121.934 90.656 153.264
  endloop
 endfacet
 facet normal -0.640412 0.728373 -0.243609
  outer loop
   vertex 114.233 91.4888 153.465
   vertex 114.003 91.5599 154.281
   vertex 114.47 91.9095 154.1
  endloop
 endfacet
 facet normal -0.635428 0.731422 -0.247491
  outer loop
   vertex 114.673 91.7876 153.219
   vertex 114.233 91.4888 153.465
   vertex 114.47 91.9095 154.1
  endloop
 endfacet
 facet normal -0.461979 0.77851 -0.424849
  outer loop
   vertex 115.314 92.5113 154.284
   vertex 115.574 92.0767 153.206
   vertex 114.47 91.9095 154.1
  endloop
 endfacet
 facet normal -0.302022 0.932396 -0.198547
  outer loop
   vertex 115.574 92.0767 153.206
   vertex 114.673 91.7876 153.219
   vertex 114.47 91.9095 154.1
  endloop
 endfacet
 facet normal -0.525975 0.737444 -0.423706
  outer loop
   vertex 115.574 92.0767 153.206
   vertex 115.314 92.5113 154.284
   vertex 116.174 92.618 153.403
  endloop
 endfacet
 facet normal 0.438987 0.896988 -0.0519902
  outer loop
   vertex 118.859 92.4105 153.257
   vertex 118.342 92.7016 153.916
   vertex 118.781 92.5153 154.409
  endloop
 endfacet
 facet normal 0.391447 0.915047 -0.0972528
  outer loop
   vertex 118.244 92.6547 153.08
   vertex 118.342 92.7016 153.916
   vertex 118.859 92.4105 153.257
  endloop
 endfacet
 facet normal 0.432374 0.849247 -0.303038
  outer loop
   vertex 119.932 91.8726 153.28
   vertex 118.859 92.4105 153.257
   vertex 119.88 92.2304 154.209
  endloop
 endfacet
 facet normal 0.238033 0.968581 -0.0720514
  outer loop
   vertex 118.859 92.4105 153.257
   vertex 118.781 92.5153 154.409
   vertex 119.88 92.2304 154.209
  endloop
 endfacet
 facet normal 0.451204 0.681501 -0.57617
  outer loop
   vertex 120.823 91.6118 153.67
   vertex 120.252 91.4245 153.001
   vertex 119.932 91.8726 153.28
  endloop
 endfacet
 facet normal 0.431202 0.769002 -0.471912
  outer loop
   vertex 120.823 91.6118 153.67
   vertex 119.932 91.8726 153.28
   vertex 120.969 91.8882 154.253
  endloop
 endfacet
 facet normal 0.295222 0.896985 -0.329033
  outer loop
   vertex 120.969 91.8882 154.253
   vertex 119.932 91.8726 153.28
   vertex 119.88 92.2304 154.209
  endloop
 endfacet
 facet normal 0.493461 0.731925 -0.469874
  outer loop
   vertex 121.379 91.476 154.042
   vertex 120.823 91.6118 153.67
   vertex 120.969 91.8882 154.253
  endloop
 endfacet
 facet normal -0.373193 0.891733 -0.256005
  outer loop
   vertex 116.174 92.618 153.403
   vertex 115.314 92.5113 154.284
   vertex 116.007 92.777 154.201
  endloop
 endfacet
 facet normal -0.262206 0.934367 -0.241261
  outer loop
   vertex 116.174 92.618 153.403
   vertex 116.007 92.777 154.201
   vertex 116.783 92.7798 153.368
  endloop
 endfacet
 facet normal -0.0279348 0.999352 -0.0226944
  outer loop
   vertex 116.783 92.7798 153.368
   vertex 116.007 92.777 154.201
   vertex 116.749 92.7969 154.164
  endloop
 endfacet
 facet normal -0.0706252 0.997114 0.0278629
  outer loop
   vertex 117.716 92.8475 153.309
   vertex 116.783 92.7798 153.368
   vertex 117.53 92.8122 154.101
  endloop
 endfacet
 facet normal -0.0213658 0.99952 -0.0224228
  outer loop
   vertex 116.783 92.7798 153.368
   vertex 116.749 92.7969 154.164
   vertex 117.53 92.8122 154.101
  endloop
 endfacet
 facet normal 0.307271 0.947432 -0.0892002
  outer loop
   vertex 118.342 92.7016 153.916
   vertex 118.244 92.6547 153.08
   vertex 117.716 92.8475 153.309
  endloop
 endfacet
 facet normal 0.15234 0.985104 0.0797652
  outer loop
   vertex 117.53 92.8122 154.101
   vertex 118.342 92.7016 153.916
   vertex 117.716 92.8475 153.309
  endloop
 endfacet
 facet normal -0.367509 -0.834074 0.411409
  outer loop
   vertex 116.964 86.4064 154.248
   vertex 117.878 86.0633 154.369
   vertex 117.493 86.469 154.848
  endloop
 endfacet
 facet normal -0.188184 -0.818615 0.542638
  outer loop
   vertex 118.078 86.628 155.291
   vertex 117.493 86.469 154.848
   vertex 117.878 86.0633 154.369
  endloop
 endfacet
 facet normal -0.216866 -0.810599 0.543965
  outer loop
   vertex 118.078 86.628 155.291
   vertex 117.878 86.0633 154.369
   vertex 118.85 86.2496 155.034
  endloop
 endfacet
 facet normal -0.150526 -0.872724 0.464429
  outer loop
   vertex 118.85 86.2496 155.034
   vertex 117.878 86.0633 154.369
   vertex 118.821 85.7887 154.159
  endloop
 endfacet
 facet normal 0.091402 -0.883829 0.458795
  outer loop
   vertex 119.746 85.8041 154.004
   vertex 119.878 86.2532 154.843
   vertex 118.821 85.7887 154.159
  endloop
 endfacet
 facet normal 0.0889886 -0.882575 0.461674
  outer loop
   vertex 118.821 85.7887 154.159
   vertex 119.878 86.2532 154.843
   vertex 118.85 86.2496 155.034
  endloop
 endfacet
 facet normal 0.444379 -0.704447 0.553427
  outer loop
   vertex 120.748 86.563 154.539
   vertex 120.249 86.7424 155.168
   vertex 119.878 86.2532 154.843
  endloop
 endfacet
 facet normal 0.431247 -0.798593 0.419851
  outer loop
   vertex 120.748 86.563 154.539
   vertex 119.878 86.2532 154.843
   vertex 120.712 86.2543 153.989
  endloop
 endfacet
 facet normal 0.395134 -0.834258 0.384556
  outer loop
   vertex 120.712 86.2543 153.989
   vertex 119.878 86.2532 154.843
   vertex 119.746 85.8041 154.004
  endloop
 endfacet
 facet normal 0.626374 -0.696592 0.349879
  outer loop
   vertex 120.712 86.2543 153.989
   vertex 121.116 86.7124 154.177
   vertex 120.748 86.563 154.539
  endloop
 endfacet
 facet normal -0.872575 -0.485257 -0.056027
  outer loop
   vertex 115.743 87.1807 154.135
   vertex 115.409 87.7006 154.833
   vertex 115.468 87.6992 153.929
  endloop
 endfacet
 facet normal -0.649342 -0.725109 0.229286
  outer loop
   vertex 115.743 87.1807 154.135
   vertex 115.88 87.3437 155.036
   vertex 115.409 87.7006 154.833
  endloop
 endfacet
 facet normal -0.560412 -0.79602 0.22867
  outer loop
   vertex 116.402 86.7488 154.246
   vertex 115.88 87.3437 155.036
   vertex 115.743 87.1807 154.135
  endloop
 endfacet
 facet normal -0.3703 -0.843125 0.389896
  outer loop
   vertex 116.402 86.7488 154.246
   vertex 116.841 86.971 155.144
   vertex 115.88 87.3437 155.036
  endloop
 endfacet
 facet normal -0.473008 -0.772996 0.422777
  outer loop
   vertex 116.402 86.7488 154.246
   vertex 116.964 86.4064 154.248
   vertex 116.841 86.971 155.144
  endloop
 endfacet
 facet normal -0.410707 -0.795519 0.445499
  outer loop
   vertex 117.493 86.469 154.848
   vertex 116.841 86.971 155.144
   vertex 116.964 86.4064 154.248
  endloop
 endfacet
 facet normal -0.276486 -0.728329 0.62697
  outer loop
   vertex 118.078 86.628 155.291
   vertex 116.841 86.971 155.144
   vertex 117.493 86.469 154.848
  endloop
 endfacet
 facet normal 0.640167 -0.436406 0.632247
  outer loop
   vertex 120.92 87.2551 154.843
   vertex 120.249 86.7424 155.168
   vertex 120.748 86.563 154.539
  endloop
 endfacet
 facet normal 0.638488 -0.430637 0.637876
  outer loop
   vertex 120.577 87.3793 155.27
   vertex 120.249 86.7424 155.168
   vertex 120.92 87.2551 154.843
  endloop
 endfacet
 facet normal 0.779953 -0.352203 0.517326
  outer loop
   vertex 121.116 86.7124 154.177
   vertex 121.493 87.6254 154.23
   vertex 120.92 87.2551 154.843
  endloop
 endfacet
 facet normal 0.716775 -0.421711 0.555332
  outer loop
   vertex 120.748 86.563 154.539
   vertex 121.116 86.7124 154.177
   vertex 120.92 87.2551 154.843
  endloop
 endfacet
 facet normal -0.669705 -0.684298 0.2885
  outer loop
   vertex 115.409 87.7006 154.833
   vertex 115.635 87.7348 155.437
   vertex 114.546 88.665 155.116
  endloop
 endfacet
 facet normal -0.738898 -0.546624 -0.393995
  outer loop
   vertex 115.409 87.7006 154.833
   vertex 114.546 88.665 155.116
   vertex 115.159 88.553 154.121
  endloop
 endfacet
 facet normal -0.94273 -0.327959 -0.0608478
  outer loop
   vertex 115.409 87.7006 154.833
   vertex 115.159 88.553 154.121
   vertex 115.468 87.6992 153.929
  endloop
 endfacet
 facet normal -0.654418 -0.700878 0.283739
  outer loop
   vertex 115.88 87.3437 155.036
   vertex 115.635 87.7348 155.437
   vertex 115.409 87.7006 154.833
  endloop
 endfacet
 facet normal 0.670733 -0.366168 0.64501
  outer loop
   vertex 120.92 87.2551 154.843
   vertex 120.838 87.8558 155.268
   vertex 120.577 87.3793 155.27
  endloop
 endfacet
 facet normal 0.779759 -0.288175 0.555816
  outer loop
   vertex 120.838 87.8558 155.268
   vertex 120.92 87.2551 154.843
   vertex 121.493 87.6254 154.23
  endloop
 endfacet
 facet normal 0.770038 -0.313958 0.555403
  outer loop
   vertex 120.838 87.8558 155.268
   vertex 121.493 87.6254 154.23
   vertex 121.318 88.6626 155.059
  endloop
 endfacet
 facet normal 0.853517 -0.229748 0.467679
  outer loop
   vertex 121.318 88.6626 155.059
   vertex 121.493 87.6254 154.23
   vertex 121.77 88.6537 154.23
  endloop
 endfacet
 facet normal -0.671524 -0.68384 -0.285341
  outer loop
   vertex 114.546 88.665 155.116
   vertex 113.523 89.4999 155.522
   vertex 113.636 89.5932 155.032
  endloop
 endfacet
 facet normal -0.567929 -0.606619 -0.5563
  outer loop
   vertex 114.546 88.665 155.116
   vertex 113.636 89.5932 155.032
   vertex 114.133 89.8617 154.231
  endloop
 endfacet
 facet normal -0.716962 -0.55682 -0.419424
  outer loop
   vertex 114.546 88.665 155.116
   vertex 114.133 89.8617 154.231
   vertex 114.607 89.4516 153.967
  endloop
 endfacet
 facet normal -0.74797 -0.528421 -0.401636
  outer loop
   vertex 115.159 88.553 154.121
   vertex 114.546 88.665 155.116
   vertex 114.607 89.4516 153.967
  endloop
 endfacet
 facet normal 0.875337 -0.0734528 0.477902
  outer loop
   vertex 121.77 88.6537 154.23
   vertex 121.719 89.5192 154.456
   vertex 121.318 88.6626 155.059
  endloop
 endfacet
 facet normal 0.933755 -0.280331 0.222525
  outer loop
   vertex 121.318 88.6626 155.059
   vertex 121.719 89.5192 154.456
   vertex 121.538 89.4856 155.176
  endloop
 endfacet
 facet normal -0.939526 -0.223425 -0.259561
  outer loop
   vertex 113.377 90.4788 155.206
   vertex 113.636 89.5932 155.032
   vertex 113.523 89.4999 155.522
  endloop
 endfacet
 facet normal -0.82526 -0.152159 -0.543869
  outer loop
   vertex 114.133 89.8617 154.231
   vertex 113.377 90.4788 155.206
   vertex 113.98 90.8253 154.194
  endloop
 endfacet
 facet normal -0.821775 -0.131024 -0.554544
  outer loop
   vertex 113.636 89.5932 155.032
   vertex 113.377 90.4788 155.206
   vertex 114.133 89.8617 154.231
  endloop
 endfacet
 facet normal 0.873315 -0.444381 0.199615
  outer loop
   vertex 121.719 89.5192 154.456
   vertex 121.831 90.0776 155.211
   vertex 121.538 89.4856 155.176
  endloop
 endfacet
 facet normal 0.967818 -0.248373 0.040484
  outer loop
   vertex 122.005 90.5789 154.126
   vertex 121.831 90.0776 155.211
   vertex 121.719 89.5192 154.456
  endloop
 endfacet
 facet normal 0.86103 -0.499999 -0.0928952
  outer loop
   vertex 122.161 90.6663 155.106
   vertex 121.831 90.0776 155.211
   vertex 122.005 90.5789 154.126
  endloop
 endfacet
 facet normal -0.923484 0.00811573 -0.38355
  outer loop
   vertex 113.261 91.449 155.507
   vertex 113.502 91.3947 154.924
   vertex 113.377 90.4788 155.206
  endloop
 endfacet
 facet normal -0.796859 0.0958387 -0.596515
  outer loop
   vertex 113.98 90.8253 154.194
   vertex 113.502 91.3947 154.924
   vertex 114.003 91.5599 154.281
  endloop
 endfacet
 facet normal -0.851385 -0.0446361 -0.522639
  outer loop
   vertex 113.377 90.4788 155.206
   vertex 113.502 91.3947 154.924
   vertex 113.98 90.8253 154.194
  endloop
 endfacet
 facet normal 0.663251 0.404058 -0.629949
  outer loop
   vertex 122.005 90.5789 154.126
   vertex 121.379 91.476 154.042
   vertex 121.814 91.5753 154.564
  endloop
 endfacet
 facet normal 0.969915 0.225845 -0.0908779
  outer loop
   vertex 122.005 90.5789 154.126
   vertex 121.814 91.5753 154.564
   vertex 121.933 91.3347 155.242
  endloop
 endfacet
 facet normal 0.919765 0.34978 -0.178004
  outer loop
   vertex 122.005 90.5789 154.126
   vertex 121.933 91.3347 155.242
   vertex 122.161 90.6663 155.106
  endloop
 endfacet
 facet normal -0.802129 0.464171 -0.375678
  outer loop
   vertex 113.502 91.3947 154.924
   vertex 113.261 91.449 155.507
   vertex 113.637 91.7575 155.084
  endloop
 endfacet
 facet normal -0.747284 0.480486 -0.45902
  outer loop
   vertex 114.003 91.5599 154.281
   vertex 113.502 91.3947 154.924
   vertex 113.637 91.7575 155.084
  endloop
 endfacet
 facet normal -0.64128 0.624299 -0.446106
  outer loop
   vertex 114.003 91.5599 154.281
   vertex 113.637 91.7575 155.084
   vertex 114.47 91.9095 154.1
  endloop
 endfacet
 facet normal -0.359982 0.918671 -0.162651
  outer loop
   vertex 114.47 91.9095 154.1
   vertex 113.637 91.7575 155.084
   vertex 114.377 92.0456 155.075
  endloop
 endfacet
 facet normal -0.547861 0.819777 -0.166777
  outer loop
   vertex 114.377 92.0456 155.075
   vertex 115.314 92.5113 154.284
   vertex 114.47 91.9095 154.1
  endloop
 endfacet
 facet normal -0.572526 0.791877 -0.212474
  outer loop
   vertex 114.923 92.5125 155.342
   vertex 115.314 92.5113 154.284
   vertex 114.377 92.0456 155.075
  endloop
 endfacet
 facet normal 0.174395 0.941731 0.287628
  outer loop
   vertex 117.867 92.6832 154.607
   vertex 117.078 92.7136 154.986
   vertex 117.866 92.4595 155.34
  endloop
 endfacet
 facet normal 0.21395 0.961458 0.172698
  outer loop
   vertex 117.867 92.6832 154.607
   vertex 118.781 92.5153 154.409
   vertex 118.342 92.7016 153.916
  endloop
 endfacet
 facet normal 0.232341 0.9302 0.284159
  outer loop
   vertex 117.867 92.6832 154.607
   vertex 117.866 92.4595 155.34
   vertex 118.781 92.5153 154.409
  endloop
 endfacet
 facet normal 0.277966 0.903081 0.327383
  outer loop
   vertex 117.866 92.4595 155.34
   vertex 118.784 92.2127 155.241
   vertex 118.781 92.5153 154.409
  endloop
 endfacet
 facet normal 0.276993 0.944497 0.176637
  outer loop
   vertex 119.88 92.2304 154.209
   vertex 118.781 92.5153 154.409
   vertex 119.737 92.0617 155.335
  endloop
 endfacet
 facet normal 0.114532 0.933756 0.33909
  outer loop
   vertex 118.781 92.5153 154.409
   vertex 118.784 92.2127 155.241
   vertex 119.737 92.0617 155.335
  endloop
 endfacet
 facet normal 0.299656 0.921854 -0.245745
  outer loop
   vertex 120.969 91.8882 154.253
   vertex 119.88 92.2304 154.209
   vertex 120.79 92.1648 155.073
  endloop
 endfacet
 facet normal -0.0618943 0.988189 0.140183
  outer loop
   vertex 119.88 92.2304 154.209
   vertex 119.737 92.0617 155.335
   vertex 120.79 92.1648 155.073
  endloop
 endfacet
 facet normal 0.457786 0.721694 -0.519221
  outer loop
   vertex 121.814 91.5753 154.564
   vertex 121.379 91.476 154.042
   vertex 120.969 91.8882 154.253
  endloop
 endfacet
 facet normal 0.439359 0.817506 -0.372355
  outer loop
   vertex 121.814 91.5753 154.564
   vertex 120.969 91.8882 154.253
   vertex 121.602 91.9825 155.208
  endloop
 endfacet
 facet normal 0.252354 0.932171 -0.259566
  outer loop
   vertex 121.602 91.9825 155.208
   vertex 120.969 91.8882 154.253
   vertex 120.79 92.1648 155.073
  endloop
 endfacet
 facet normal 0.890227 0.455493 0.00463311
  outer loop
   vertex 121.933 91.3347 155.242
   vertex 121.814 91.5753 154.564
   vertex 121.602 91.9825 155.208
  endloop
 endfacet
 facet normal -0.301165 0.946926 -0.112383
  outer loop
   vertex 115.314 92.5113 154.284
   vertex 114.923 92.5125 155.342
   vertex 115.659 92.743 155.313
  endloop
 endfacet
 facet normal -0.366059 0.926605 -0.0860506
  outer loop
   vertex 116.007 92.777 154.201
   vertex 115.314 92.5113 154.284
   vertex 115.659 92.743 155.313
  endloop
 endfacet
 facet normal -0.0211946 0.993801 0.109134
  outer loop
   vertex 116.749 92.7969 154.164
   vertex 116.007 92.777 154.201
   vertex 117.078 92.7136 154.986
  endloop
 endfacet
 facet normal 0.0298524 0.998758 0.0398788
  outer loop
   vertex 116.007 92.777 154.201
   vertex 115.659 92.743 155.313
   vertex 117.078 92.7136 154.986
  endloop
 endfacet
 facet normal 0.119359 0.978186 0.170018
  outer loop
   vertex 117.078 92.7136 154.986
   vertex 117.867 92.6832 154.607
   vertex 117.53 92.8122 154.101
  endloop
 endfacet
 facet normal -0.0110745 0.994394 0.105154
  outer loop
   vertex 117.078 92.7136 154.986
   vertex 117.53 92.8122 154.101
   vertex 116.749 92.7969 154.164
  endloop
 endfacet
 facet normal 0.164758 0.976449 0.139292
  outer loop
   vertex 118.342 92.7016 153.916
   vertex 117.53 92.8122 154.101
   vertex 117.867 92.6832 154.607
  endloop
 endfacet
 facet normal -0.138959 -0.733821 0.664979
  outer loop
   vertex 118.85 86.2496 155.034
   vertex 118.97 86.6706 155.524
   vertex 118.078 86.628 155.291
  endloop
 endfacet
 facet normal 0.104242 -0.832183 0.544614
  outer loop
   vertex 118.85 86.2496 155.034
   vertex 119.878 86.2532 154.843
   vertex 119.676 86.563 155.355
  endloop
 endfacet
 facet normal 0.0384266 -0.762437 0.64592
  outer loop
   vertex 118.97 86.6706 155.524
   vertex 118.85 86.2496 155.034
   vertex 119.676 86.563 155.355
  endloop
 endfacet
 facet normal 0.409994 -0.699555 0.585259
  outer loop
   vertex 119.878 86.2532 154.843
   vertex 120.249 86.7424 155.168
   vertex 119.676 86.563 155.355
  endloop
 endfacet
 facet normal -0.359552 -0.780168 0.511918
  outer loop
   vertex 116.841 86.971 155.144
   vertex 116.52 87.4947 155.716
   vertex 115.88 87.3437 155.036
  endloop
 endfacet
 facet normal -0.190601 -0.775226 0.602242
  outer loop
   vertex 117.7 87.6245 156.257
   vertex 116.52 87.4947 155.716
   vertex 116.841 86.971 155.144
  endloop
 endfacet
 facet normal -0.275498 -0.720951 0.63587
  outer loop
   vertex 117.7 87.6245 156.257
   vertex 116.841 86.971 155.144
   vertex 118.078 86.628 155.291
  endloop
 endfacet
 facet normal -0.154537 -0.681786 0.715043
  outer loop
   vertex 118.97 86.6706 155.524
   vertex 118.805 87.2598 156.05
   vertex 118.078 86.628 155.291
  endloop
 endfacet
 facet normal -0.105561 -0.712486 0.6937
  outer loop
   vertex 118.805 87.2598 156.05
   vertex 117.7 87.6245 156.257
   vertex 118.078 86.628 155.291
  endloop
 endfacet
 facet normal 0.213009 -0.68221 0.69944
  outer loop
   vertex 118.805 87.2598 156.05
   vertex 119.858 87.3274 155.795
   vertex 119.442 87.6429 156.23
  endloop
 endfacet
 facet normal 0.222615 -0.613965 0.757291
  outer loop
   vertex 118.805 87.2598 156.05
   vertex 118.97 86.6706 155.524
   vertex 119.858 87.3274 155.795
  endloop
 endfacet
 facet normal 0.12388 -0.51743 0.846711
  outer loop
   vertex 118.97 86.6706 155.524
   vertex 119.676 86.563 155.355
   vertex 119.858 87.3274 155.795
  endloop
 endfacet
 facet normal 0.55916 -0.403579 0.724199
  outer loop
   vertex 120.249 86.7424 155.168
   vertex 120.577 87.3793 155.27
   vertex 119.858 87.3274 155.795
  endloop
 endfacet
 facet normal 0.408227 -0.527014 0.74539
  outer loop
   vertex 119.676 86.563 155.355
   vertex 120.249 86.7424 155.168
   vertex 119.858 87.3274 155.795
  endloop
 endfacet
 facet normal -0.667783 -0.668881 0.326595
  outer loop
   vertex 115.635 87.7348 155.437
   vertex 115.479 88.2473 156.169
   vertex 114.546 88.665 155.116
  endloop
 endfacet
 facet normal -0.468191 -0.881202 0.0654252
  outer loop
   vertex 114.546 88.665 155.116
   vertex 115.479 88.2473 156.169
   vertex 114.377 88.8418 156.29
  endloop
 endfacet
 facet normal -0.372436 -0.767809 0.521307
  outer loop
   vertex 116.52 87.4947 155.716
   vertex 115.635 87.7348 155.437
   vertex 115.88 87.3437 155.036
  endloop
 endfacet
 facet normal -0.375554 -0.745936 0.550034
  outer loop
   vertex 116.52 87.4947 155.716
   vertex 116.522 87.9033 156.271
   vertex 115.635 87.7348 155.437
  endloop
 endfacet
 facet normal -0.315492 -0.807395 0.498576
  outer loop
   vertex 116.522 87.9033 156.271
   vertex 115.479 88.2473 156.169
   vertex 115.635 87.7348 155.437
  endloop
 endfacet
 facet normal -0.180109 -0.791988 0.583366
  outer loop
   vertex 117.7 87.6245 156.257
   vertex 116.522 87.9033 156.271
   vertex 116.52 87.4947 155.716
  endloop
 endfacet
 facet normal 0.427323 -0.486016 0.762354
  outer loop
   vertex 119.858 87.3274 155.795
   vertex 120.092 87.9599 156.068
   vertex 119.442 87.6429 156.23
  endloop
 endfacet
 facet normal 0.632475 -0.336692 0.697577
  outer loop
   vertex 120.833 88.5208 155.667
   vertex 120.385 88.771 156.193
   vertex 120.092 87.9599 156.068
  endloop
 endfacet
 facet normal 0.648205 -0.387571 0.655453
  outer loop
   vertex 120.838 87.8558 155.268
   vertex 120.833 88.5208 155.667
   vertex 120.092 87.9599 156.068
  endloop
 endfacet
 facet normal 0.603164 -0.492858 0.627123
  outer loop
   vertex 120.838 87.8558 155.268
   vertex 120.092 87.9599 156.068
   vertex 119.858 87.3274 155.795
  endloop
 endfacet
 facet normal 0.575449 -0.313556 0.755342
  outer loop
   vertex 120.838 87.8558 155.268
   vertex 119.858 87.3274 155.795
   vertex 120.577 87.3793 155.27
  endloop
 endfacet
 facet normal 0.775408 -0.320026 0.544359
  outer loop
   vertex 120.838 87.8558 155.268
   vertex 121.318 88.6626 155.059
   vertex 120.833 88.5208 155.667
  endloop
 endfacet
 facet normal -0.84358 -0.535305 -0.0426726
  outer loop
   vertex 113.523 89.4999 155.522
   vertex 113.494 89.4801 156.342
   vertex 113.226 89.912 156.226
  endloop
 endfacet
 facet normal -0.625504 -0.779733 0.0276011
  outer loop
   vertex 114.377 88.8418 156.29
   vertex 113.523 89.4999 155.522
   vertex 114.546 88.665 155.116
  endloop
 endfacet
 facet normal -0.586832 -0.80871 -0.0402047
  outer loop
   vertex 113.494 89.4801 156.342
   vertex 113.523 89.4999 155.522
   vertex 114.377 88.8418 156.29
  endloop
 endfacet
 facet normal 0.639123 -0.324353 0.697364
  outer loop
   vertex 121.092 89.4033 155.84
   vertex 120.385 88.771 156.193
   vertex 120.833 88.5208 155.667
  endloop
 endfacet
 facet normal 0.626416 -0.29715 0.720628
  outer loop
   vertex 120.755 89.6199 156.222
   vertex 120.385 88.771 156.193
   vertex 121.092 89.4033 155.84
  endloop
 endfacet
 facet normal 0.811343 -0.288343 0.508509
  outer loop
   vertex 121.318 88.6626 155.059
   vertex 121.538 89.4856 155.176
   vertex 121.092 89.4033 155.84
  endloop
 endfacet
 facet normal 0.773285 -0.332837 0.539676
  outer loop
   vertex 120.833 88.5208 155.667
   vertex 121.318 88.6626 155.059
   vertex 121.092 89.4033 155.84
  endloop
 endfacet
 facet normal -0.937921 -0.224691 -0.264232
  outer loop
   vertex 113.523 89.4999 155.522
   vertex 113.226 89.912 156.226
   vertex 113.377 90.4788 155.206
  endloop
 endfacet
 facet normal -0.96679 -0.133591 -0.217878
  outer loop
   vertex 113.226 89.912 156.226
   vertex 113.127 90.7434 156.154
   vertex 113.377 90.4788 155.206
  endloop
 endfacet
 facet normal 0.628268 -0.293828 0.720378
  outer loop
   vertex 121.092 89.4033 155.84
   vertex 121.197 90.0856 156.027
   vertex 120.755 89.6199 156.222
  endloop
 endfacet
 facet normal 0.599327 -0.0879752 0.795655
  outer loop
   vertex 121.864 90.6099 155.582
   vertex 121.287 90.8287 156.041
   vertex 121.197 90.0856 156.027
  endloop
 endfacet
 facet normal 0.710058 -0.432289 0.555828
  outer loop
   vertex 121.831 90.0776 155.211
   vertex 121.864 90.6099 155.582
   vertex 121.197 90.0856 156.027
  endloop
 endfacet
 facet normal 0.75722 -0.27819 0.590955
  outer loop
   vertex 121.831 90.0776 155.211
   vertex 121.197 90.0856 156.027
   vertex 121.092 89.4033 155.84
  endloop
 endfacet
 facet normal 0.778957 -0.413705 0.471247
  outer loop
   vertex 121.831 90.0776 155.211
   vertex 121.092 89.4033 155.84
   vertex 121.538 89.4856 155.176
  endloop
 endfacet
 facet normal 0.806441 -0.371493 0.46005
  outer loop
   vertex 121.831 90.0776 155.211
   vertex 122.161 90.6663 155.106
   vertex 121.864 90.6099 155.582
  endloop
 endfacet
 facet normal -0.968822 -0.0404324 -0.244437
  outer loop
   vertex 113.377 90.4788 155.206
   vertex 113.127 90.7434 156.154
   vertex 113.261 91.449 155.507
  endloop
 endfacet
 facet normal -0.959888 -0.06751 -0.272134
  outer loop
   vertex 113.127 90.7434 156.154
   vertex 112.992 91.4631 156.451
   vertex 113.261 91.449 155.507
  endloop
 endfacet
 facet normal 0.0465202 0.626002 0.778433
  outer loop
   vertex 119.989 91.6891 156.035
   vertex 119.341 91.5908 156.152
   vertex 119.873 91.4509 156.233
  endloop
 endfacet
 facet normal -0.0623402 0.656522 0.751726
  outer loop
   vertex 119.873 91.4509 156.233
   vertex 120.347 91.512 156.219
   vertex 119.989 91.6891 156.035
  endloop
 endfacet
 facet normal 0.65973 0.266567 0.702637
  outer loop
   vertex 121.933 91.3347 155.242
   vertex 121.287 90.8287 156.041
   vertex 121.864 90.6099 155.582
  endloop
 endfacet
 facet normal 0.728541 0.130839 0.67239
  outer loop
   vertex 121.241 91.5672 155.947
   vertex 121.287 90.8287 156.041
   vertex 121.933 91.3347 155.242
  endloop
 endfacet
 facet normal 0.825864 0.17285 0.536723
  outer loop
   vertex 121.864 90.6099 155.582
   vertex 122.161 90.6663 155.106
   vertex 121.933 91.3347 155.242
  endloop
 endfacet
 facet normal -0.683905 0.700153 -0.205083
  outer loop
   vertex 113.261 91.449 155.507
   vertex 112.992 91.4631 156.451
   vertex 113.582 91.9635 156.193
  endloop
 endfacet
 facet normal -0.727005 0.667617 -0.160469
  outer loop
   vertex 113.637 91.7575 155.084
   vertex 113.261 91.449 155.507
   vertex 113.582 91.9635 156.193
  endloop
 endfacet
 facet normal -0.358624 0.914378 -0.187887
  outer loop
   vertex 114.377 92.0456 155.075
   vertex 113.637 91.7575 155.084
   vertex 113.582 91.9635 156.193
  endloop
 endfacet
 facet normal -0.523189 0.792305 -0.31389
  outer loop
   vertex 114.377 92.0456 155.075
   vertex 113.582 91.9635 156.193
   vertex 114.923 92.5125 155.342
  endloop
 endfacet
 facet normal 0.331413 0.880121 0.339931
  outer loop
   vertex 117.866 92.4595 155.34
   vertex 116.709 92.506 156.348
   vertex 117.738 92.1759 156.199
  endloop
 endfacet
 facet normal 0.216089 0.954806 0.204084
  outer loop
   vertex 117.078 92.7136 154.986
   vertex 116.709 92.506 156.348
   vertex 117.866 92.4595 155.34
  endloop
 endfacet
 facet normal 0.277594 0.868831 0.409968
  outer loop
   vertex 118.784 92.2127 155.241
   vertex 117.866 92.4595 155.34
   vertex 118.654 91.8699 156.056
  endloop
 endfacet
 facet normal 0.34535 0.874638 0.340207
  outer loop
   vertex 117.866 92.4595 155.34
   vertex 117.738 92.1759 156.199
   vertex 118.654 91.8699 156.056
  endloop
 endfacet
 facet normal -0.0451172 0.874837 0.482313
  outer loop
   vertex 119.341 91.5908 156.152
   vertex 119.989 91.6891 156.035
   vertex 119.737 92.0617 155.335
  endloop
 endfacet
 facet normal 0.239518 0.786393 0.5694
  outer loop
   vertex 119.341 91.5908 156.152
   vertex 119.737 92.0617 155.335
   vertex 118.654 91.8699 156.056
  endloop
 endfacet
 facet normal 0.104845 0.910493 0.400012
  outer loop
   vertex 118.654 91.8699 156.056
   vertex 119.737 92.0617 155.335
   vertex 118.784 92.2127 155.241
  endloop
 endfacet
 facet normal 0.0112466 0.73204 0.681169
  outer loop
   vertex 119.989 91.6891 156.035
   vertex 120.347 91.512 156.219
   vertex 120.807 91.7729 155.931
  endloop
 endfacet
 facet normal -0.0293456 0.877762 0.478197
  outer loop
   vertex 119.989 91.6891 156.035
   vertex 120.807 91.7729 155.931
   vertex 119.737 92.0617 155.335
  endloop
 endfacet
 facet normal 0.0143558 0.909635 0.41516
  outer loop
   vertex 119.737 92.0617 155.335
   vertex 120.807 91.7729 155.931
   vertex 120.79 92.1648 155.073
  endloop
 endfacet
 facet normal 0.716864 0.396857 0.573245
  outer loop
   vertex 121.241 91.5672 155.947
   vertex 121.933 91.3347 155.242
   vertex 121.602 91.9825 155.208
  endloop
 endfacet
 facet normal 0.331442 0.744205 0.579919
  outer loop
   vertex 121.241 91.5672 155.947
   vertex 121.602 91.9825 155.208
   vertex 120.807 91.7729 155.931
  endloop
 endfacet
 facet normal 0.134634 0.902361 0.409412
  outer loop
   vertex 120.807 91.7729 155.931
   vertex 121.602 91.9825 155.208
   vertex 120.79 92.1648 155.073
  endloop
 endfacet
 facet normal -0.500881 0.826626 -0.25653
  outer loop
   vertex 114.923 92.5125 155.342
   vertex 113.582 91.9635 156.193
   vertex 114.703 92.6648 156.263
  endloop
 endfacet
 facet normal -0.29952 0.927176 -0.225018
  outer loop
   vertex 114.923 92.5125 155.342
   vertex 114.703 92.6648 156.263
   vertex 115.659 92.743 155.313
  endloop
 endfacet
 facet normal -0.0821975 0.996616 -0.000708869
  outer loop
   vertex 115.659 92.743 155.313
   vertex 114.703 92.6648 156.263
   vertex 115.549 92.7345 156.266
  endloop
 endfacet
 facet normal 0.0586218 0.984387 0.165968
  outer loop
   vertex 117.078 92.7136 154.986
   vertex 115.659 92.743 155.313
   vertex 116.709 92.506 156.348
  endloop
 endfacet
 facet normal 0.19103 0.981099 0.0308747
  outer loop
   vertex 115.659 92.743 155.313
   vertex 115.549 92.7345 156.266
   vertex 116.709 92.506 156.348
  endloop
 endfacet
 facet normal -0.0508621 -0.604188 0.795217
  outer loop
   vertex 117.7 87.6245 156.257
   vertex 118.805 87.2598 156.05
   vertex 118.857 87.7398 156.418
  endloop
 endfacet
 facet normal 0.148687 -0.611689 0.777
  outer loop
   vertex 118.805 87.2598 156.05
   vertex 119.442 87.6429 156.23
   vertex 118.857 87.7398 156.418
  endloop
 endfacet
 facet normal -0.373225 -0.791056 0.484699
  outer loop
   vertex 114.377 88.8418 156.29
   vertex 115.479 88.2473 156.169
   vertex 115.376 88.6539 156.753
  endloop
 endfacet
 facet normal -0.304553 -0.746461 0.591645
  outer loop
   vertex 115.479 88.2473 156.169
   vertex 116.522 87.9033 156.271
   vertex 116.26 88.472 156.854
  endloop
 endfacet
 facet normal -0.228764 -0.817477 0.528581
  outer loop
   vertex 115.376 88.6539 156.753
   vertex 115.479 88.2473 156.169
   vertex 116.26 88.472 156.854
  endloop
 endfacet
 facet normal -0.156581 -0.741108 0.652872
  outer loop
   vertex 116.522 87.9033 156.271
   vertex 117.081 88.5266 157.113
   vertex 116.26 88.472 156.854
  endloop
 endfacet
 facet normal -0.166081 -0.736481 0.655754
  outer loop
   vertex 117.7 87.6245 156.257
   vertex 117.081 88.5266 157.113
   vertex 116.522 87.9033 156.271
  endloop
 endfacet
 facet normal -0.108764 -0.722628 0.682627
  outer loop
   vertex 117.7 87.6245 156.257
   vertex 117.837 88.4157 157.116
   vertex 117.081 88.5266 157.113
  endloop
 endfacet
 facet normal 0.249223 -0.592874 0.76576
  outer loop
   vertex 117.837 88.4157 157.116
   vertex 118.746 88.502 156.887
   vertex 118.289 88.7489 157.227
  endloop
 endfacet
 facet normal 0.230641 -0.733848 0.638962
  outer loop
   vertex 117.837 88.4157 157.116
   vertex 117.7 87.6245 156.257
   vertex 118.746 88.502 156.887
  endloop
 endfacet
 facet normal -0.0653819 -0.529392 0.845854
  outer loop
   vertex 117.7 87.6245 156.257
   vertex 118.857 87.7398 156.418
   vertex 118.746 88.502 156.887
  endloop
 endfacet
 facet normal 0.400863 -0.40011 0.824148
  outer loop
   vertex 119.442 87.6429 156.23
   vertex 120.092 87.9599 156.068
   vertex 119.678 88.3943 156.48
  endloop
 endfacet
 facet normal 0.22812 -0.371202 0.900095
  outer loop
   vertex 119.442 87.6429 156.23
   vertex 119.678 88.3943 156.48
   vertex 118.857 87.7398 156.418
  endloop
 endfacet
 facet normal 0.308437 -0.465265 0.829696
  outer loop
   vertex 118.857 87.7398 156.418
   vertex 119.678 88.3943 156.48
   vertex 118.746 88.502 156.887
  endloop
 endfacet
 facet normal 0.492525 -0.304325 0.815356
  outer loop
   vertex 120.092 87.9599 156.068
   vertex 120.385 88.771 156.193
   vertex 119.678 88.3943 156.48
  endloop
 endfacet
 facet normal -0.849288 -0.527926 -0.00210741
  outer loop
   vertex 113.494 89.4801 156.342
   vertex 113.308 89.7771 156.884
   vertex 113.226 89.912 156.226
  endloop
 endfacet
 facet normal -0.525273 -0.80914 0.263404
  outer loop
   vertex 113.494 89.4801 156.342
   vertex 113.812 89.5136 157.079
   vertex 113.308 89.7771 156.884
  endloop
 endfacet
 facet normal -0.55264 -0.787018 0.274211
  outer loop
   vertex 114.377 88.8418 156.29
   vertex 113.812 89.5136 157.079
   vertex 113.494 89.4801 156.342
  endloop
 endfacet
 facet normal -0.352399 -0.821935 0.447478
  outer loop
   vertex 114.377 88.8418 156.29
   vertex 114.687 89.2056 157.203
   vertex 113.812 89.5136 157.079
  endloop
 endfacet
 facet normal -0.361503 -0.817292 0.448719
  outer loop
   vertex 115.376 88.6539 156.753
   vertex 114.687 89.2056 157.203
   vertex 114.377 88.8418 156.29
  endloop
 endfacet
 facet normal -0.186645 -0.750246 0.634267
  outer loop
   vertex 115.792 88.9917 157.275
   vertex 114.687 89.2056 157.203
   vertex 115.376 88.6539 156.753
  endloop
 endfacet
 facet normal -0.223955 -0.727072 0.649008
  outer loop
   vertex 116.26 88.472 156.854
   vertex 115.792 88.9917 157.275
   vertex 115.376 88.6539 156.753
  endloop
 endfacet
 facet normal -0.16923 -0.707712 0.685933
  outer loop
   vertex 117.081 88.5266 157.113
   vertex 115.792 88.9917 157.275
   vertex 116.26 88.472 156.854
  endloop
 endfacet
 facet normal 0.408447 -0.383786 0.828178
  outer loop
   vertex 118.746 88.502 156.887
   vertex 118.864 89.082 157.097
   vertex 118.289 88.7489 157.227
  endloop
 endfacet
 facet normal 0.512374 0.000134994 0.858762
  outer loop
   vertex 118.864 89.082 157.097
   vertex 119.804 89.464 156.537
   vertex 118.742 89.5767 157.171
  endloop
 endfacet
 facet normal 0.582958 -0.379392 0.718486
  outer loop
   vertex 118.864 89.082 157.097
   vertex 118.746 88.502 156.887
   vertex 119.804 89.464 156.537
  endloop
 endfacet
 facet normal 0.389158 -0.0943898 0.916322
  outer loop
   vertex 118.746 88.502 156.887
   vertex 119.678 88.3943 156.48
   vertex 119.804 89.464 156.537
  endloop
 endfacet
 facet normal 0.335221 -0.177349 0.925297
  outer loop
   vertex 120.385 88.771 156.193
   vertex 120.755 89.6199 156.222
   vertex 119.804 89.464 156.537
  endloop
 endfacet
 facet normal 0.417875 -0.0970854 0.903302
  outer loop
   vertex 119.678 88.3943 156.48
   vertex 120.385 88.771 156.193
   vertex 119.804 89.464 156.537
  endloop
 endfacet
 facet normal -0.741934 -0.501364 0.445161
  outer loop
   vertex 113.308 89.7771 156.884
   vertex 113.445 89.9913 157.354
   vertex 112.894 90.7053 157.24
  endloop
 endfacet
 facet normal -0.909017 -0.415792 0.0283602
  outer loop
   vertex 113.308 89.7771 156.884
   vertex 112.894 90.7053 157.24
   vertex 113.226 89.912 156.226
  endloop
 endfacet
 facet normal -0.968146 -0.13324 -0.211991
  outer loop
   vertex 113.226 89.912 156.226
   vertex 112.894 90.7053 157.24
   vertex 113.127 90.7434 156.154
  endloop
 endfacet
 facet normal -0.545302 -0.691212 0.474207
  outer loop
   vertex 113.812 89.5136 157.079
   vertex 113.445 89.9913 157.354
   vertex 113.308 89.7771 156.884
  endloop
 endfacet
 facet normal 0.516457 0.0673386 0.853661
  outer loop
   vertex 119.779 90.7744 156.448
   vertex 118.742 89.5767 157.171
   vertex 119.804 89.464 156.537
  endloop
 endfacet
 facet normal 0.522337 0.0604001 0.850597
  outer loop
   vertex 118.643 90.5407 157.163
   vertex 118.742 89.5767 157.171
   vertex 119.779 90.7744 156.448
  endloop
 endfacet
 facet normal 0.452822 -0.0562425 0.889825
  outer loop
   vertex 120.755 89.6199 156.222
   vertex 121.197 90.0856 156.027
   vertex 120.765 90.4517 156.27
  endloop
 endfacet
 facet normal 0.322129 -0.057863 0.944926
  outer loop
   vertex 120.755 89.6199 156.222
   vertex 120.765 90.4517 156.27
   vertex 119.804 89.464 156.537
  endloop
 endfacet
 facet normal 0.200097 0.0696126 0.9773
  outer loop
   vertex 119.804 89.464 156.537
   vertex 120.765 90.4517 156.27
   vertex 119.779 90.7744 156.448
  endloop
 endfacet
 facet normal 0.442633 -0.0709667 0.89389
  outer loop
   vertex 121.197 90.0856 156.027
   vertex 121.287 90.8287 156.041
   vertex 120.765 90.4517 156.27
  endloop
 endfacet
 facet normal -0.805861 -0.522582 -0.278381
  outer loop
   vertex 112.431 91.4779 157.153
   vertex 112.427 91.3486 157.409
   vertex 112.301 91.6042 157.292
  endloop
 endfacet
 facet normal -0.81047 -0.516904 -0.275588
  outer loop
   vertex 112.431 91.4779 157.153
   vertex 112.894 90.7053 157.24
   vertex 112.427 91.3486 157.409
  endloop
 endfacet
 facet normal -0.691946 -0.475936 -0.542859
  outer loop
   vertex 112.431 91.4779 157.153
   vertex 112.992 91.4631 156.451
   vertex 112.894 90.7053 157.24
  endloop
 endfacet
 facet normal -0.972729 -0.0949318 -0.211626
  outer loop
   vertex 112.992 91.4631 156.451
   vertex 113.127 90.7434 156.154
   vertex 112.894 90.7053 157.24
  endloop
 endfacet
 facet normal 0.459875 0.61813 0.637518
  outer loop
   vertex 117.84 91.7104 156.849
   vertex 117.224 91.8162 157.191
   vertex 117.609 91.3953 157.321
  endloop
 endfacet
 facet normal 0.432051 0.594312 0.678325
  outer loop
   vertex 117.84 91.7104 156.849
   vertex 118.367 90.9755 157.158
   vertex 118.801 91.3823 156.525
  endloop
 endfacet
 facet normal 0.474236 0.607359 0.63735
  outer loop
   vertex 117.609 91.3953 157.321
   vertex 118.367 90.9755 157.158
   vertex 117.84 91.7104 156.849
  endloop
 endfacet
 facet normal 0.61612 0.399104 0.679053
  outer loop
   vertex 118.643 90.5407 157.163
   vertex 118.801 91.3823 156.525
   vertex 118.367 90.9755 157.158
  endloop
 endfacet
 facet normal 0.378795 0.512897 0.770358
  outer loop
   vertex 119.779 90.7744 156.448
   vertex 118.801 91.3823 156.525
   vertex 118.643 90.5407 157.163
  endloop
 endfacet
 facet normal 0.362595 0.483528 0.796696
  outer loop
   vertex 119.779 90.7744 156.448
   vertex 119.341 91.5908 156.152
   vertex 118.801 91.3823 156.525
  endloop
 endfacet
 facet normal -0.0620584 0.310747 0.948465
  outer loop
   vertex 119.779 90.7744 156.448
   vertex 119.873 91.4509 156.233
   vertex 119.341 91.5908 156.152
  endloop
 endfacet
 facet normal -0.0111289 0.304869 0.952329
  outer loop
   vertex 120.347 91.512 156.219
   vertex 119.873 91.4509 156.233
   vertex 119.779 90.7744 156.448
  endloop
 endfacet
 facet normal 0.0846101 0.235956 0.968073
  outer loop
   vertex 120.347 91.512 156.219
   vertex 119.779 90.7744 156.448
   vertex 120.829 91.3443 156.218
  endloop
 endfacet
 facet normal 0.191981 0.0430724 0.980453
  outer loop
   vertex 120.829 91.3443 156.218
   vertex 119.779 90.7744 156.448
   vertex 120.765 90.4517 156.27
  endloop
 endfacet
 facet normal 0.489965 0.139938 0.860437
  outer loop
   vertex 121.287 90.8287 156.041
   vertex 121.241 91.5672 155.947
   vertex 120.829 91.3443 156.218
  endloop
 endfacet
 facet normal 0.38525 0.0257664 0.922453
  outer loop
   vertex 120.765 90.4517 156.27
   vertex 121.287 90.8287 156.041
   vertex 120.829 91.3443 156.218
  endloop
 endfacet
 facet normal -0.625676 0.187499 -0.757215
  outer loop
   vertex 112.431 91.4779 157.153
   vertex 112.301 91.6042 157.292
   vertex 112.574 91.7121 157.093
  endloop
 endfacet
 facet normal -0.742472 0.298805 -0.599542
  outer loop
   vertex 112.992 91.4631 156.451
   vertex 112.431 91.4779 157.153
   vertex 112.574 91.7121 157.093
  endloop
 endfacet
 facet normal -0.653021 0.458136 -0.603054
  outer loop
   vertex 112.992 91.4631 156.451
   vertex 112.574 91.7121 157.093
   vertex 113.582 91.9635 156.193
  endloop
 endfacet
 facet normal -0.393962 0.899291 -0.189921
  outer loop
   vertex 113.582 91.9635 156.193
   vertex 112.574 91.7121 157.093
   vertex 113.223 92.0555 157.374
  endloop
 endfacet
 facet normal -0.511012 0.830889 -0.220206
  outer loop
   vertex 114.147 92.6196 157.357
   vertex 113.582 91.9635 156.193
   vertex 113.223 92.0555 157.374
  endloop
 endfacet
 facet normal 0.424005 0.824778 0.374113
  outer loop
   vertex 116.709 92.506 156.348
   vertex 115.996 92.4592 157.259
   vertex 116.611 92.1649 157.211
  endloop
 endfacet
 facet normal 0.46822 0.802291 0.370268
  outer loop
   vertex 117.224 91.8162 157.191
   vertex 116.709 92.506 156.348
   vertex 116.611 92.1649 157.211
  endloop
 endfacet
 facet normal 0.381263 0.815957 0.434572
  outer loop
   vertex 117.84 91.7104 156.849
   vertex 116.709 92.506 156.348
   vertex 117.224 91.8162 157.191
  endloop
 endfacet
 facet normal 0.328321 0.791613 0.515319
  outer loop
   vertex 117.84 91.7104 156.849
   vertex 117.738 92.1759 156.199
   vertex 116.709 92.506 156.348
  endloop
 endfacet
 facet normal 0.343193 0.788335 0.510633
  outer loop
   vertex 118.654 91.8699 156.056
   vertex 117.738 92.1759 156.199
   vertex 117.84 91.7104 156.849
  endloop
 endfacet
 facet normal 0.43185 0.689292 0.581706
  outer loop
   vertex 118.801 91.3823 156.525
   vertex 118.654 91.8699 156.056
   vertex 117.84 91.7104 156.849
  endloop
 endfacet
 facet normal 0.193139 0.709713 0.677499
  outer loop
   vertex 119.341 91.5908 156.152
   vertex 118.654 91.8699 156.056
   vertex 118.801 91.3823 156.525
  endloop
 endfacet
 facet normal 0.194339 0.552378 0.810623
  outer loop
   vertex 120.347 91.512 156.219
   vertex 120.829 91.3443 156.218
   vertex 120.807 91.7729 155.931
  endloop
 endfacet
 facet normal 0.230656 0.549267 0.803183
  outer loop
   vertex 121.241 91.5672 155.947
   vertex 120.807 91.7729 155.931
   vertex 120.829 91.3443 156.218
  endloop
 endfacet
 facet normal -0.506752 0.832675 -0.223281
  outer loop
   vertex 114.703 92.6648 156.263
   vertex 113.582 91.9635 156.193
   vertex 114.147 92.6196 157.357
  endloop
 endfacet
 facet normal -0.0822555 0.995928 0.0368919
  outer loop
   vertex 115.549 92.7345 156.266
   vertex 114.703 92.6648 156.263
   vertex 115.317 92.6797 157.23
  endloop
 endfacet
 facet normal -0.0495653 0.998641 0.0160922
  outer loop
   vertex 114.703 92.6648 156.263
   vertex 114.147 92.6196 157.357
   vertex 115.317 92.6797 157.23
  endloop
 endfacet
 facet normal 0.28688 0.91865 0.271628
  outer loop
   vertex 115.996 92.4592 157.259
   vertex 116.709 92.506 156.348
   vertex 115.317 92.6797 157.23
  endloop
 endfacet
 facet normal 0.185445 0.97755 0.100032
  outer loop
   vertex 115.317 92.6797 157.23
   vertex 116.709 92.506 156.348
   vertex 115.549 92.7345 156.266
  endloop
 endfacet
 facet normal -0.0789529 -0.514454 0.853876
  outer loop
   vertex 117.837 88.4157 157.116
   vertex 117.726 88.8765 157.383
   vertex 117.081 88.5266 157.113
  endloop
 endfacet
 facet normal 0.135119 -0.47288 0.870705
  outer loop
   vertex 117.837 88.4157 157.116
   vertex 118.289 88.7489 157.227
   vertex 117.726 88.8765 157.383
  endloop
 endfacet
 facet normal -0.326935 -0.656274 0.680014
  outer loop
   vertex 114.687 89.2056 157.203
   vertex 114.366 89.8519 157.672
   vertex 113.812 89.5136 157.079
  endloop
 endfacet
 facet normal -0.163753 -0.575568 0.801191
  outer loop
   vertex 114.687 89.2056 157.203
   vertex 115.792 88.9917 157.275
   vertex 115.531 89.7046 157.734
  endloop
 endfacet
 facet normal -0.119509 -0.621606 0.77416
  outer loop
   vertex 114.366 89.8519 157.672
   vertex 114.687 89.2056 157.203
   vertex 115.531 89.7046 157.734
  endloop
 endfacet
 facet normal -0.0640481 -0.481836 0.873917
  outer loop
   vertex 115.792 88.9917 157.275
   vertex 117.081 88.5266 157.113
   vertex 116.763 89.5542 157.656
  endloop
 endfacet
 facet normal -0.0137708 -0.544621 0.838569
  outer loop
   vertex 115.531 89.7046 157.734
   vertex 115.792 88.9917 157.275
   vertex 116.763 89.5542 157.656
  endloop
 endfacet
 facet normal -0.0983442 -0.488727 0.866876
  outer loop
   vertex 117.081 88.5266 157.113
   vertex 117.726 88.8765 157.383
   vertex 116.763 89.5542 157.656
  endloop
 endfacet
 facet normal 0.127241 -0.209273 0.969543
  outer loop
   vertex 116.763 89.5542 157.656
   vertex 117.726 88.8765 157.383
   vertex 117.828 89.7303 157.554
  endloop
 endfacet
 facet normal 0.261199 -0.0774829 0.96217
  outer loop
   vertex 118.289 88.7489 157.227
   vertex 118.864 89.082 157.097
   vertex 118.742 89.5767 157.171
  endloop
 endfacet
 facet normal 0.252193 -0.0723692 0.964967
  outer loop
   vertex 118.289 88.7489 157.227
   vertex 118.742 89.5767 157.171
   vertex 117.726 88.8765 157.383
  endloop
 endfacet
 facet normal 0.345236 -0.223549 0.911503
  outer loop
   vertex 117.726 88.8765 157.383
   vertex 118.742 89.5767 157.171
   vertex 117.828 89.7303 157.554
  endloop
 endfacet
 facet normal -0.71478 -0.468605 0.519134
  outer loop
   vertex 113.445 89.9913 157.354
   vertex 113.524 90.4639 157.888
   vertex 112.894 90.7053 157.24
  endloop
 endfacet
 facet normal -0.334258 -0.649472 0.682977
  outer loop
   vertex 113.445 89.9913 157.354
   vertex 113.812 89.5136 157.079
   vertex 114.366 89.8519 157.672
  endloop
 endfacet
 facet normal -0.328715 -0.68307 0.652197
  outer loop
   vertex 113.445 89.9913 157.354
   vertex 114.366 89.8519 157.672
   vertex 113.524 90.4639 157.888
  endloop
 endfacet
 facet normal -0.193995 -0.553457 0.80997
  outer loop
   vertex 113.524 90.4639 157.888
   vertex 114.366 89.8519 157.672
   vertex 114.286 90.5727 158.145
  endloop
 endfacet
 facet normal -0.0964213 -0.377671 0.920906
  outer loop
   vertex 115.531 89.7046 157.734
   vertex 115.384 90.619 158.093
   vertex 114.366 89.8519 157.672
  endloop
 endfacet
 facet normal 0.0627206 -0.542964 0.837411
  outer loop
   vertex 115.384 90.619 158.093
   vertex 114.286 90.5727 158.145
   vertex 114.366 89.8519 157.672
  endloop
 endfacet
 facet normal 0.0294995 -0.255963 0.966236
  outer loop
   vertex 116.763 89.5542 157.656
   vertex 116.446 90.4904 157.914
   vertex 115.531 89.7046 157.734
  endloop
 endfacet
 facet normal 0.115062 -0.347482 0.9306
  outer loop
   vertex 116.446 90.4904 157.914
   vertex 115.384 90.619 158.093
   vertex 115.531 89.7046 157.734
  endloop
 endfacet
 facet normal 0.0809986 0.0840997 0.99316
  outer loop
   vertex 117.828 89.7303 157.554
   vertex 117.564 90.6143 157.501
   vertex 116.763 89.5542 157.656
  endloop
 endfacet
 facet normal 0.356436 -0.134038 0.924655
  outer loop
   vertex 117.564 90.6143 157.501
   vertex 116.446 90.4904 157.914
   vertex 116.763 89.5542 157.656
  endloop
 endfacet
 facet normal 0.393591 0.047732 0.918046
  outer loop
   vertex 118.742 89.5767 157.171
   vertex 118.643 90.5407 157.163
   vertex 117.828 89.7303 157.554
  endloop
 endfacet
 facet normal 0.304966 0.147862 0.940815
  outer loop
   vertex 118.643 90.5407 157.163
   vertex 117.564 90.6143 157.501
   vertex 117.828 89.7303 157.554
  endloop
 endfacet
 facet normal -0.686141 -0.00365666 0.727459
  outer loop
   vertex 112.427 91.3486 157.409
   vertex 112.535 91.742 157.513
   vertex 112.301 91.6042 157.292
  endloop
 endfacet
 facet normal -0.798903 0.0613989 0.598318
  outer loop
   vertex 112.427 91.3486 157.409
   vertex 112.971 91.5423 158.115
   vertex 112.535 91.742 157.513
  endloop
 endfacet
 facet normal -0.56873 -0.56906 0.593899
  outer loop
   vertex 112.894 90.7053 157.24
   vertex 112.971 91.5423 158.115
   vertex 112.427 91.3486 157.409
  endloop
 endfacet
 facet normal -0.75878 -0.43632 0.483609
  outer loop
   vertex 112.894 90.7053 157.24
   vertex 113.453 90.9503 158.338
   vertex 112.971 91.5423 158.115
  endloop
 endfacet
 facet normal -0.695845 -0.539095 0.474527
  outer loop
   vertex 112.894 90.7053 157.24
   vertex 113.524 90.4639 157.888
   vertex 113.453 90.9503 158.338
  endloop
 endfacet
 facet normal -0.144079 -0.682536 0.71651
  outer loop
   vertex 114.286 90.5727 158.145
   vertex 113.453 90.9503 158.338
   vertex 113.524 90.4639 157.888
  endloop
 endfacet
 facet normal -0.0660652 -0.56457 0.822737
  outer loop
   vertex 114.508 91.0282 158.476
   vertex 113.453 90.9503 158.338
   vertex 114.286 90.5727 158.145
  endloop
 endfacet
 facet normal 0.063265 -0.605995 0.792949
  outer loop
   vertex 115.384 90.619 158.093
   vertex 114.508 91.0282 158.476
   vertex 114.286 90.5727 158.145
  endloop
 endfacet
 facet normal 0.245875 -0.326944 0.912498
  outer loop
   vertex 115.517 91.2391 158.279
   vertex 114.508 91.0282 158.476
   vertex 115.384 90.619 158.093
  endloop
 endfacet
 facet normal 0.500169 -0.152479 0.852397
  outer loop
   vertex 115.517 91.2391 158.279
   vertex 116.472 91.5694 157.778
   vertex 115.785 91.7216 158.208
  endloop
 endfacet
 facet normal 0.52717 -0.346511 0.775901
  outer loop
   vertex 115.517 91.2391 158.279
   vertex 115.384 90.619 158.093
   vertex 116.472 91.5694 157.778
  endloop
 endfacet
 facet normal 0.17922 0.118316 0.976668
  outer loop
   vertex 115.384 90.619 158.093
   vertex 116.446 90.4904 157.914
   vertex 116.472 91.5694 157.778
  endloop
 endfacet
 facet normal 0.379707 0.572445 0.726725
  outer loop
   vertex 117.609 91.3953 157.321
   vertex 117.224 91.8162 157.191
   vertex 116.472 91.5694 157.778
  endloop
 endfacet
 facet normal 0.390702 0.184761 0.901785
  outer loop
   vertex 117.609 91.3953 157.321
   vertex 116.472 91.5694 157.778
   vertex 117.564 90.6143 157.501
  endloop
 endfacet
 facet normal 0.333716 0.1096 0.936281
  outer loop
   vertex 117.564 90.6143 157.501
   vertex 116.472 91.5694 157.778
   vertex 116.446 90.4904 157.914
  endloop
 endfacet
 facet normal 0.309668 0.196085 0.930406
  outer loop
   vertex 118.367 90.9755 157.158
   vertex 117.609 91.3953 157.321
   vertex 117.564 90.6143 157.501
  endloop
 endfacet
 facet normal 0.305438 0.204995 0.929884
  outer loop
   vertex 118.643 90.5407 157.163
   vertex 118.367 90.9755 157.158
   vertex 117.564 90.6143 157.501
  endloop
 endfacet
 facet normal -0.430637 0.896518 -0.103962
  outer loop
   vertex 112.301 91.6042 157.292
   vertex 112.535 91.742 157.513
   vertex 112.574 91.7121 157.093
  endloop
 endfacet
 facet normal -0.429854 0.896898 -0.103917
  outer loop
   vertex 112.535 91.742 157.513
   vertex 113.223 92.0555 157.374
   vertex 112.574 91.7121 157.093
  endloop
 endfacet
 facet normal -0.44603 0.829139 -0.337024
  outer loop
   vertex 112.535 91.742 157.513
   vertex 113.138 92.411 158.36
   vertex 113.223 92.0555 157.374
  endloop
 endfacet
 facet normal -0.811467 -0.0082484 0.58434
  outer loop
   vertex 112.535 91.742 157.513
   vertex 112.971 91.5423 158.115
   vertex 113.138 92.411 158.36
  endloop
 endfacet
 facet normal -0.734808 0.615606 -0.284756
  outer loop
   vertex 113.138 92.411 158.36
   vertex 113.439 92.5832 157.956
   vertex 113.223 92.0555 157.374
  endloop
 endfacet
 facet normal -0.458573 0.736582 -0.497149
  outer loop
   vertex 113.223 92.0555 157.374
   vertex 113.439 92.5832 157.956
   vertex 114.147 92.6196 157.357
  endloop
 endfacet
 facet normal 0.58284 0.577262 0.571897
  outer loop
   vertex 115.578 92.3735 157.668
   vertex 114.848 92.5735 158.21
   vertex 115.233 91.9624 158.435
  endloop
 endfacet
 facet normal 0.513523 0.638304 0.573466
  outer loop
   vertex 115.785 91.7216 158.208
   vertex 115.578 92.3735 157.668
   vertex 115.233 91.9624 158.435
  endloop
 endfacet
 facet normal 0.504705 0.640206 0.579146
  outer loop
   vertex 116.472 91.5694 157.778
   vertex 115.578 92.3735 157.668
   vertex 115.785 91.7216 158.208
  endloop
 endfacet
 facet normal 0.480942 0.619449 0.620466
  outer loop
   vertex 116.472 91.5694 157.778
   vertex 115.996 92.4592 157.259
   vertex 115.578 92.3735 157.668
  endloop
 endfacet
 facet normal 0.344874 0.60399 0.718512
  outer loop
   vertex 116.472 91.5694 157.778
   vertex 116.611 92.1649 157.211
   vertex 115.996 92.4592 157.259
  endloop
 endfacet
 facet normal 0.362931 0.596923 0.715517
  outer loop
   vertex 117.224 91.8162 157.191
   vertex 116.611 92.1649 157.211
   vertex 116.472 91.5694 157.778
  endloop
 endfacet
 facet normal -0.648955 0.7423 -0.166877
  outer loop
   vertex 113.439 92.5832 157.956
   vertex 113.138 92.411 158.36
   vertex 113.607 92.8253 158.381
  endloop
 endfacet
 facet normal -0.346864 0.86723 -0.357208
  outer loop
   vertex 114.147 92.6196 157.357
   vertex 113.439 92.5832 157.956
   vertex 113.607 92.8253 158.381
  endloop
 endfacet
 facet normal 0.0189618 0.982132 -0.187238
  outer loop
   vertex 114.147 92.6196 157.357
   vertex 113.607 92.8253 158.381
   vertex 114.415 92.7927 158.292
  endloop
 endfacet
 facet normal 0.458184 0.833227 0.309514
  outer loop
   vertex 114.848 92.5735 158.21
   vertex 115.578 92.3735 157.668
   vertex 115.317 92.6797 157.23
  endloop
 endfacet
 facet normal 0.474817 0.821327 0.316182
  outer loop
   vertex 114.848 92.5735 158.21
   vertex 115.317 92.6797 157.23
   vertex 114.415 92.7927 158.292
  endloop
 endfacet
 facet normal -0.0681891 0.984318 -0.162693
  outer loop
   vertex 114.415 92.7927 158.292
   vertex 115.317 92.6797 157.23
   vertex 114.147 92.6196 157.357
  endloop
 endfacet
 facet normal 0.259653 0.857367 0.444412
  outer loop
   vertex 115.996 92.4592 157.259
   vertex 115.317 92.6797 157.23
   vertex 115.578 92.3735 157.668
  endloop
 endfacet
 facet normal -0.534645 -0.613463 0.581221
  outer loop
   vertex 113.453 90.9503 158.338
   vertex 113.654 91.518 159.122
   vertex 113.253 91.763 159.011
  endloop
 endfacet
 facet normal -0.783641 -0.49942 0.36944
  outer loop
   vertex 112.971 91.5423 158.115
   vertex 113.453 90.9503 158.338
   vertex 113.253 91.763 159.011
  endloop
 endfacet
 facet normal 0.222175 -0.751608 0.621066
  outer loop
   vertex 114.483 91.7188 159.068
   vertex 114.112 91.8265 159.331
   vertex 113.654 91.518 159.122
  endloop
 endfacet
 facet normal 0.201722 -0.633486 0.746996
  outer loop
   vertex 114.483 91.7188 159.068
   vertex 113.654 91.518 159.122
   vertex 114.508 91.0282 158.476
  endloop
 endfacet
 facet normal -0.0175417 -0.807729 0.589293
  outer loop
   vertex 114.508 91.0282 158.476
   vertex 113.654 91.518 159.122
   vertex 113.453 90.9503 158.338
  endloop
 endfacet
 facet normal 0.264921 -0.500129 0.824432
  outer loop
   vertex 114.508 91.0282 158.476
   vertex 115.517 91.2391 158.279
   vertex 115.264 91.5542 158.552
  endloop
 endfacet
 facet normal 0.347413 -0.603307 0.717861
  outer loop
   vertex 114.483 91.7188 159.068
   vertex 114.508 91.0282 158.476
   vertex 115.264 91.5542 158.552
  endloop
 endfacet
 facet normal 0.584078 -0.209116 0.784298
  outer loop
   vertex 115.517 91.2391 158.279
   vertex 115.785 91.7216 158.208
   vertex 115.264 91.5542 158.552
  endloop
 endfacet
 facet normal -0.955735 0.106817 0.274155
  outer loop
   vertex 112.971 91.5423 158.115
   vertex 113.253 91.763 159.011
   vertex 113.138 92.411 158.36
  endloop
 endfacet
 facet normal -0.990921 -0.0490222 0.125187
  outer loop
   vertex 113.253 91.763 159.011
   vertex 113.243 92.4674 159.211
   vertex 113.138 92.411 158.36
  endloop
 endfacet
 facet normal 0.423591 -0.454611 0.783517
  outer loop
   vertex 114.483 91.7188 159.068
   vertex 114.363 92.0233 159.31
   vertex 114.112 91.8265 159.331
  endloop
 endfacet
 facet normal 0.733607 0.587563 0.341453
  outer loop
   vertex 115.233 91.9624 158.435
   vertex 114.848 92.5735 158.21
   vertex 114.511 92.5035 159.056
  endloop
 endfacet
 facet normal 0.647207 -0.0107036 0.762239
  outer loop
   vertex 115.233 91.9624 158.435
   vertex 114.511 92.5035 159.056
   vertex 114.483 91.7188 159.068
  endloop
 endfacet
 facet normal 0.569959 0.266331 0.777313
  outer loop
   vertex 115.233 91.9624 158.435
   vertex 114.483 91.7188 159.068
   vertex 115.264 91.5542 158.552
  endloop
 endfacet
 facet normal 0.882902 -0.0236263 0.468963
  outer loop
   vertex 114.483 91.7188 159.068
   vertex 114.511 92.5035 159.056
   vertex 114.363 92.0233 159.31
  endloop
 endfacet
 facet normal 0.465333 0.276661 0.840788
  outer loop
   vertex 115.785 91.7216 158.208
   vertex 115.233 91.9624 158.435
   vertex 115.264 91.5542 158.552
  endloop
 endfacet
 facet normal -0.870541 0.486358 0.0749288
  outer loop
   vertex 113.138 92.411 158.36
   vertex 113.243 92.4674 159.211
   vertex 113.422 92.8045 159.1
  endloop
 endfacet
 facet normal -0.651648 0.744307 -0.146155
  outer loop
   vertex 113.607 92.8253 158.381
   vertex 113.138 92.411 158.36
   vertex 113.422 92.8045 159.1
  endloop
 endfacet
 facet normal 0.0141321 0.973569 -0.227955
  outer loop
   vertex 114.415 92.7927 158.292
   vertex 113.607 92.8253 158.381
   vertex 114.094 92.9935 159.13
  endloop
 endfacet
 facet normal -0.268957 0.962263 -0.0413875
  outer loop
   vertex 113.607 92.8253 158.381
   vertex 113.422 92.8045 159.1
   vertex 114.094 92.9935 159.13
  endloop
 endfacet
 facet normal 0.474227 0.84146 0.258948
  outer loop
   vertex 114.511 92.5035 159.056
   vertex 114.848 92.5735 158.21
   vertex 114.415 92.7927 158.292
  endloop
 endfacet
 facet normal 0.764086 0.62925 0.142187
  outer loop
   vertex 114.094 92.9935 159.13
   vertex 114.511 92.5035 159.056
   vertex 114.415 92.7927 158.292
  endloop
 endfacet
 facet normal -0.510995 -0.532324 0.674919
  outer loop
   vertex 113.654 91.518 159.122
   vertex 113.513 91.9632 159.366
   vertex 113.253 91.763 159.011
  endloop
 endfacet
 facet normal -0.0628508 -0.495174 0.866517
  outer loop
   vertex 113.654 91.518 159.122
   vertex 114.112 91.8265 159.331
   vertex 113.513 91.9632 159.366
  endloop
 endfacet
 facet normal -0.51931 -0.0154301 0.854447
  outer loop
   vertex 113.513 91.9632 159.366
   vertex 113.545 92.6379 159.398
   vertex 113.243 92.4674 159.211
  endloop
 endfacet
 facet normal -0.735627 -0.194293 0.648924
  outer loop
   vertex 113.253 91.763 159.011
   vertex 113.513 91.9632 159.366
   vertex 113.243 92.4674 159.211
  endloop
 endfacet
 facet normal 0.137816 -0.0679215 0.988126
  outer loop
   vertex 114.112 91.8265 159.331
   vertex 114.363 92.0233 159.31
   vertex 114.161 92.4707 159.369
  endloop
 endfacet
 facet normal 0.0436066 -0.0613001 0.997166
  outer loop
   vertex 114.112 91.8265 159.331
   vertex 114.161 92.4707 159.369
   vertex 113.513 91.9632 159.366
  endloop
 endfacet
 facet normal 0.0337024 -0.0486568 0.998247
  outer loop
   vertex 113.513 91.9632 159.366
   vertex 114.161 92.4707 159.369
   vertex 113.545 92.6379 159.398
  endloop
 endfacet
 facet normal 0.644058 0.193419 0.74012
  outer loop
   vertex 114.363 92.0233 159.31
   vertex 114.511 92.5035 159.056
   vertex 114.161 92.4707 159.369
  endloop
 endfacet
 facet normal -0.641823 0.524949 0.55901
  outer loop
   vertex 113.243 92.4674 159.211
   vertex 113.545 92.6379 159.398
   vertex 113.422 92.8045 159.1
  endloop
 endfacet
 facet normal -0.248943 0.797888 0.549001
  outer loop
   vertex 114.094 92.9935 159.13
   vertex 113.422 92.8045 159.1
   vertex 113.545 92.6379 159.398
  endloop
 endfacet
 facet normal 0.157933 0.427536 0.890096
  outer loop
   vertex 114.161 92.4707 159.369
   vertex 114.094 92.9935 159.13
   vertex 113.545 92.6379 159.398
  endloop
 endfacet
 facet normal 0.590901 0.39737 0.702092
  outer loop
   vertex 114.511 92.5035 159.056
   vertex 114.094 92.9935 159.13
   vertex 114.161 92.4707 159.369
  endloop
 endfacet
endsolid
