ply
format ascii 1.0
element vertex 696
property float x
property float y
property float z
property float nx
property float ny
property float nz
element face 232
property list uint uint vertex_indices
end_header
69.4991 118.018 173.937 0.0195014 -0.481337 -0.876319
70.2651 117.989 173.97 0.0195014 -0.481337 -0.876319
70.1205 117.722 174.113 0.0195014 -0.481337 -0.876319
69.3371 117.76 174.3 -0.185775 -0.760838 -0.621782
69.4991 118.018 173.937 -0.185775 -0.760838 -0.621782
70.1205 117.722 174.113 -0.185775 -0.760838 -0.621782
70.1205 117.722 174.113 0.51115 -0.604779 -0.610711
70.2651 117.989 173.97 0.51115 -0.604779 -0.610711
70.4318 117.852 174.245 0.51115 -0.604779 -0.610711
69.3371 117.76 174.3 -0.405703 -0.650774 -0.641794
68.5407 118.416 174.139 -0.405703 -0.650774 -0.641794
69.4991 118.018 173.937 -0.405703 -0.650774 -0.641794
69.4991 118.018 173.937 -0.274156 -0.181312 -0.944439
68.5407 118.416 174.139 -0.274156 -0.181312 -0.944439
69.2046 118.656 173.9 -0.274156 -0.181312 -0.944439
70.2651 117.989 173.97 0.0429677 0.00537823 -0.999062
69.4991 118.018 173.937 0.0429677 0.00537823 -0.999062
70.0748 118.679 173.965 0.0429677 0.00537823 -0.999062
70.0748 118.679 173.965 0.0754732 -0.0230317 -0.996882
69.4991 118.018 173.937 0.0754732 -0.0230317 -0.996882
69.2046 118.656 173.9 0.0754732 -0.0230317 -0.996882
70.6052 118.633 174.319 0.818411 -0.128119 -0.560168
70.4318 117.852 174.245 0.818411 -0.128119 -0.560168
70.2651 117.989 173.97 0.818411 -0.128119 -0.560168
70.0748 118.679 173.965 0.557813 0.148614 -0.816553
70.6052 118.633 174.319 0.557813 0.148614 -0.816553
70.2651 117.989 173.97 0.557813 0.148614 -0.816553
68.5407 118.416 174.139 -0.617804 -0.0608436 -0.783974
68.2247 118.652 174.369 -0.617804 -0.0608436 -0.783974
68.517 118.81 174.127 -0.617804 -0.0608436 -0.783974
69.2046 118.656 173.9 -0.322617 -0.0478801 -0.945318
68.5407 118.416 174.139 -0.322617 -0.0478801 -0.945318
68.517 118.81 174.127 -0.322617 -0.0478801 -0.945318
69.3236 119.058 174.237 -0.0998604 0.656297 -0.747865
69.2046 118.656 173.9 -0.0998604 0.656297 -0.747865
68.517 118.81 174.127 -0.0998604 0.656297 -0.747865
70.0748 118.679 173.965 0.0413051 0.634556 -0.771772
69.2046 118.656 173.9 0.0413051 0.634556 -0.771772
69.3236 119.058 174.237 0.0413051 0.634556 -0.771772
68.5577 117.804 175.08 -0.193887 -0.9712 -0.138483
69.3371 117.76 174.3 -0.193887 -0.9712 -0.138483
69.4449 117.617 175.15 -0.193887 -0.9712 -0.138483
70.1205 117.722 174.113 -0.0725454 -0.992274 -0.100646
70.1779 117.644 174.836 -0.0725454 -0.992274 -0.100646
69.3371 117.76 174.3 -0.0725454 -0.992274 -0.100646
69.3371 117.76 174.3 -0.0329929 -0.986329 -0.161454
70.1779 117.644 174.836 -0.0329929 -0.986329 -0.161454
69.4449 117.617 175.15 -0.0329929 -0.986329 -0.161454
70.1779 117.644 174.836 0.42958 -0.893626 -0.129977
70.1205 117.722 174.113 0.42958 -0.893626 -0.129977
70.4318 117.852 174.245 0.42958 -0.893626 -0.129977
70.5503 117.911 175.024 0.591983 -0.80542 -0.0292515
70.1779 117.644 174.836 0.591983 -0.80542 -0.0292515
70.4318 117.852 174.245 0.591983 -0.80542 -0.0292515
68.5407 118.416 174.139 -0.540443 -0.710029 -0.451421
68.5577 117.804 175.08 -0.540443 -0.710029 -0.451421
68.2341 118.12 174.972 -0.540443 -0.710029 -0.451421
68.5407 118.416 174.139 -0.721151 -0.5249 -0.45213
68.2341 118.12 174.972 -0.721151 -0.5249 -0.45213
68.2247 118.652 174.369 -0.721151 -0.5249 -0.45213
68.2247 118.652 174.369 -0.998676 -0.0452447 -0.0244733
68.2341 118.12 174.972 -0.998676 -0.0452447 -0.0244733
68.2056 118.671 175.116 -0.998676 -0.0452447 -0.0244733
69.3371 117.76 174.3 -0.505372 -0.727793 -0.46359
68.5577 117.804 175.08 -0.505372 -0.727793 -0.46359
68.5407 118.416 174.139 -0.505372 -0.727793 -0.46359
70.4318 117.852 174.245 0.970233 -0.202849 -0.132287
70.6052 118.633 174.319 0.970233 -0.202849 -0.132287
70.5503 117.911 175.024 0.970233 -0.202849 -0.132287
70.5503 117.911 175.024 0.885807 -0.356822 -0.296689
70.6052 118.633 174.319 0.885807 -0.356822 -0.296689
70.871 118.602 175.151 0.885807 -0.356822 -0.296689
68.2247 118.652 174.369 -0.748399 0.662261 -0.0361724
68.2056 118.671 175.116 -0.748399 0.662261 -0.0361724
68.5041 118.995 174.879 -0.748399 0.662261 -0.0361724
68.517 118.81 174.127 -0.590663 0.781069 -0.202604
68.2247 118.652 174.369 -0.590663 0.781069 -0.202604
68.5041 118.995 174.879 -0.590663 0.781069 -0.202604
69.49 119.741 175.106 -0.46564 0.755154 -0.461435
68.5041 118.995 174.879 -0.46564 0.755154 -0.461435
68.934 119.53 175.32 -0.46564 0.755154 -0.461435
69.49 119.741 175.106 -0.447557 0.742478 -0.498416
69.3236 119.058 174.237 -0.447557 0.742478 -0.498416
68.5041 118.995 174.879 -0.447557 0.742478 -0.498416
69.3236 119.058 174.237 -0.256331 0.937483 -0.235413
68.517 118.81 174.127 -0.256331 0.937483 -0.235413
68.5041 118.995 174.879 -0.256331 0.937483 -0.235413
69.3236 119.058 174.237 0.0348286 0.626595 -0.778567
70.3919 119.515 174.653 0.0348286 0.626595 -0.778567
70.0748 118.679 173.965 0.0348286 0.626595 -0.778567
69.49 119.741 175.106 -0.104275 0.791258 -0.602526
70.3919 119.515 174.653 -0.104275 0.791258 -0.602526
69.3236 119.058 174.237 -0.104275 0.791258 -0.602526
71.2138 119.356 175.008 0.850089 -0.440637 -0.288422
70.871 118.602 175.151 0.850089 -0.440637 -0.288422
70.6052 118.633 174.319 0.850089 -0.440637 -0.288422
71.2138 119.356 175.008 0.427772 0.408389 -0.806368
70.6052 118.633 174.319 0.427772 0.408389 -0.806368
70.3919 119.515 174.653 0.427772 0.408389 -0.806368
71.2138 119.356 175.008 0.377355 -0.105761 -0.92001
70.3919 119.515 174.653 0.377355 -0.105761 -0.92001
71.2136 119.752 174.963 0.377355 -0.105761 -0.92001
70.3919 119.515 174.653 0.530579 0.409065 -0.742396
70.6052 118.633 174.319 0.530579 0.409065 -0.742396
70.0748 118.679 173.965 0.530579 0.409065 -0.742396
71.2138 119.356 175.008 0.689181 -0.0825409 -0.719873
71.2136 119.752 174.963 0.689181 -0.0825409 -0.719873
71.5192 119.61 175.272 0.689181 -0.0825409 -0.719873
70.5832 119.926 175.196 -0.0889357 0.809119 -0.580876
70.3919 119.515 174.653 -0.0889357 0.809119 -0.580876
69.49 119.741 175.106 -0.0889357 0.809119 -0.580876
71.2136 119.752 174.963 -0.00201828 0.797777 -0.602949
70.3919 119.515 174.653 -0.00201828 0.797777 -0.602949
70.5832 119.926 175.196 -0.00201828 0.797777 -0.602949
71.3501 119.852 175.29 0.131854 0.931052 -0.340229
71.2136 119.752 174.963 0.131854 0.931052 -0.340229
70.5832 119.926 175.196 0.131854 0.931052 -0.340229
71.5192 119.61 175.272 0.711478 0.531342 -0.459863
71.2136 119.752 174.963 0.711478 0.531342 -0.459863
71.3501 119.852 175.29 0.711478 0.531342 -0.459863
68.5577 117.804 175.08 -0.666691 -0.732066 -0.140005
68.2747 117.981 175.507 -0.666691 -0.732066 -0.140005
68.2341 118.12 174.972 -0.666691 -0.732066 -0.140005
68.5222 117.915 176.079 -0.431955 -0.89794 0.0843748
68.2747 117.981 175.507 -0.431955 -0.89794 0.0843748
68.5577 117.804 175.08 -0.431955 -0.89794 0.0843748
68.5222 117.915 176.079 -0.35819 -0.929255 0.0904767
68.5577 117.804 175.08 -0.35819 -0.929255 0.0904767
69.2966 117.624 176.149 -0.35819 -0.929255 0.0904767
69.2966 117.624 176.149 -0.204384 -0.978592 -0.0241743
68.5577 117.804 175.08 -0.204384 -0.978592 -0.0241743
69.4449 117.617 175.15 -0.204384 -0.978592 -0.0241743
70.1779 117.644 174.836 0.025019 -0.999321 -0.0270393
70.3186 117.618 175.929 0.025019 -0.999321 -0.0270393
69.4449 117.617 175.15 0.025019 -0.999321 -0.0270393
69.4449 117.617 175.15 -0.0041658 -0.999975 0.00567827
70.3186 117.618 175.929 -0.0041658 -0.999975 0.00567827
69.2966 117.624 176.149 -0.0041658 -0.999975 0.00567827
70.3186 117.618 175.929 0.611742 -0.785033 -0.0974455
70.1779 117.644 174.836 0.611742 -0.785033 -0.0974455
70.5503 117.911 175.024 0.611742 -0.785033 -0.0974455
70.7965 117.958 175.894 0.569643 -0.813461 -0.117419
70.3186 117.618 175.929 0.569643 -0.813461 -0.117419
70.5503 117.911 175.024 0.569643 -0.813461 -0.117419
68.2747 117.981 175.507 -0.983708 -0.130437 0.12371
68.2892 118.408 176.073 -0.983708 -0.130437 0.12371
68.2413 118.554 175.846 -0.983708 -0.130437 0.12371
68.2747 117.981 175.507 -0.994666 -0.0888821 0.052333
68.2413 118.554 175.846 -0.994666 -0.0888821 0.052333
68.2341 118.12 174.972 -0.994666 -0.0888821 0.052333
68.2341 118.12 174.972 -0.997329 -0.0618087 0.0389133
68.2413 118.554 175.846 -0.997329 -0.0618087 0.0389133
68.2056 118.671 175.116 -0.997329 -0.0618087 0.0389133
68.5222 117.915 176.079 -0.856471 -0.401085 0.324943
68.2892 118.408 176.073 -0.856471 -0.401085 0.324943
68.2747 117.981 175.507 -0.856471 -0.401085 0.324943
71.4723 118.727 176.047 0.72447 -0.555403 -0.408253
70.7965 117.958 175.894 0.72447 -0.555403 -0.408253
70.871 118.602 175.151 0.72447 -0.555403 -0.408253
70.7965 117.958 175.894 0.897562 -0.373838 -0.233725
70.5503 117.911 175.024 0.897562 -0.373838 -0.233725
70.871 118.602 175.151 0.897562 -0.373838 -0.233725
68.2056 118.671 175.116 -0.89022 0.44102 0.114058
68.2413 118.554 175.846 -0.89022 0.44102 0.114058
68.436 118.952 175.825 -0.89022 0.44102 0.114058
68.5041 118.995 174.879 -0.744123 0.667632 -0.0234223
68.2056 118.671 175.116 -0.744123 0.667632 -0.0234223
68.436 118.952 175.825 -0.744123 0.667632 -0.0234223
68.436 118.952 175.825 -0.768187 0.63968 -0.0264167
68.934 119.53 175.32 -0.768187 0.63968 -0.0264167
68.5041 118.995 174.879 -0.768187 0.63968 -0.0264167
69.3016 119.733 176.215 -0.694839 0.708325 0.124396
68.934 119.53 175.32 -0.694839 0.708325 0.124396
68.436 118.952 175.825 -0.694839 0.708325 0.124396
70.871 118.602 175.151 0.773787 -0.437871 -0.457737
71.2138 119.356 175.008 0.773787 -0.437871 -0.457737
71.4723 118.727 176.047 0.773787 -0.437871 -0.457737
71.4723 118.727 176.047 0.767395 -0.445727 -0.460904
71.2138 119.356 175.008 0.767395 -0.445727 -0.460904
71.5192 119.61 175.272 0.767395 -0.445727 -0.460904
71.4723 118.727 176.047 0.986726 -0.133576 -0.0923523
71.5192 119.61 175.272 0.986726 -0.133576 -0.0923523
71.5832 119.572 176.01 0.986726 -0.133576 -0.0923523
69.49 119.741 175.106 -0.374295 0.925573 -0.0567295
68.934 119.53 175.32 -0.374295 0.925573 -0.0567295
69.3016 119.733 176.215 -0.374295 0.925573 -0.0567295
70.5832 119.926 175.196 -0.155326 0.979916 -0.125055
69.49 119.741 175.106 -0.155326 0.979916 -0.125055
70.2647 119.971 175.943 -0.155326 0.979916 -0.125055
69.49 119.741 175.106 -0.248921 0.967886 -0.0351295
69.3016 119.733 176.215 -0.248921 0.967886 -0.0351295
70.2647 119.971 175.943 -0.248921 0.967886 -0.0351295
71.3501 119.852 175.29 0.0978483 0.995121 -0.0126275
70.5832 119.926 175.196 0.0978483 0.995121 -0.0126275
71.1564 119.881 176.08 0.0978483 0.995121 -0.0126275
70.5832 119.926 175.196 0.102796 0.994576 -0.0158598
70.2647 119.971 175.943 0.102796 0.994576 -0.0158598
71.1564 119.881 176.08 0.102796 0.994576 -0.0158598
71.5832 119.572 176.01 0.817574 0.574324 -0.0415281
71.5192 119.61 175.272 0.817574 0.574324 -0.0415281
71.3501 119.852 175.29 0.817574 0.574324 -0.0415281
71.1564 119.881 176.08 0.594735 0.795442 0.116458
71.5832 119.572 176.01 0.594735 0.795442 0.116458
71.3501 119.852 175.29 0.594735 0.795442 0.116458
69.2966 117.624 176.149 -0.358175 -0.933517 -0.0160029
69.428 117.553 177.31 -0.358175 -0.933517 -0.0160029
68.7411 117.823 176.955 -0.358175 -0.933517 -0.0160029
68.5222 117.915 176.079 -0.351508 -0.936123 -0.0107597
69.2966 117.624 176.149 -0.351508 -0.936123 -0.0107597
68.7411 117.823 176.955 -0.351508 -0.936123 -0.0107597
70.3186 117.618 175.929 -0.0225437 -0.996565 -0.0796826
70.3569 117.526 177.072 -0.0225437 -0.996565 -0.0796826
69.2966 117.624 176.149 -0.0225437 -0.996565 -0.0796826
69.2966 117.624 176.149 -0.0436611 -0.997503 -0.0555058
70.3569 117.526 177.072 -0.0436611 -0.997503 -0.0555058
69.428 117.553 177.31 -0.0436611 -0.997503 -0.0555058
70.7965 117.958 175.894 0.521498 -0.771073 -0.365357
71.1774 117.769 176.836 0.521498 -0.771073 -0.365357
70.3186 117.618 175.929 0.521498 -0.771073 -0.365357
70.3186 117.618 175.929 0.260267 -0.961669 -0.0863363
71.1774 117.769 176.836 0.260267 -0.961669 -0.0863363
70.3569 117.526 177.072 0.260267 -0.961669 -0.0863363
68.2892 118.408 176.073 -0.962564 0.0847519 0.257463
68.5216 118.67 176.855 -0.962564 0.0847519 0.257463
68.2413 118.554 175.846 -0.962564 0.0847519 0.257463
68.2892 118.408 176.073 -0.837992 -0.391696 0.379926
68.5222 117.915 176.079 -0.837992 -0.391696 0.379926
68.5216 118.67 176.855 -0.837992 -0.391696 0.379926
68.5222 117.915 176.079 -0.951346 -0.221361 0.214338
68.7411 117.823 176.955 -0.951346 -0.221361 0.214338
68.5216 118.67 176.855 -0.951346 -0.221361 0.214338
70.7965 117.958 175.894 0.7253 -0.556807 -0.404852
71.4723 118.727 176.047 0.7253 -0.556807 -0.404852
71.1774 117.769 176.836 0.7253 -0.556807 -0.404852
71.1774 117.769 176.836 0.68316 -0.578001 -0.446327
71.4723 118.727 176.047 0.68316 -0.578001 -0.446327
71.5787 117.98 177.178 0.68316 -0.578001 -0.446327
71.5787 117.98 177.178 0.891171 -0.335365 -0.305523
71.4723 118.727 176.047 0.891171 -0.335365 -0.305523
71.8812 118.834 177.123 0.891171 -0.335365 -0.305523
68.2413 118.554 175.846 -0.877544 0.438891 0.193109
68.5216 118.67 176.855 -0.877544 0.438891 0.193109
68.436 118.952 175.825 -0.877544 0.438891 0.193109
68.5216 118.67 176.855 -0.707568 0.664375 0.240734
69.3016 119.733 176.215 -0.707568 0.664375 0.240734
68.436 118.952 175.825 -0.707568 0.664375 0.240734
68.5216 118.67 176.855 -0.82578 0.558434 -0.0789889
69.1009 119.594 177.328 -0.82578 0.558434 -0.0789889
69.3016 119.733 176.215 -0.82578 0.558434 -0.0789889
71.4812 119.579 176.495 0.57593 0.773351 0.265014
71.0308 119.738 177.009 0.57593 0.773351 0.265014
71.5407 119.276 177.251 0.57593 0.773351 0.265014
71.4812 119.579 176.495 0.803849 0.571216 0.16595
71.5407 119.276 177.251 0.803849 0.571216 0.16595
71.8812 118.834 177.123 0.803849 0.571216 0.16595
71.4812 119.579 176.495 0.806442 0.568839 0.161476
71.8812 118.834 177.123 0.806442 0.568839 0.161476
71.5832 119.572 176.01 0.806442 0.568839 0.161476
71.5832 119.572 176.01 0.93035 -0.137056 -0.340095
71.8812 118.834 177.123 0.93035 -0.137056 -0.340095
71.4723 118.727 176.047 0.93035 -0.137056 -0.340095
69.3016 119.733 176.215 -0.60546 0.795819 -0.00951898
69.1009 119.594 177.328 -0.60546 0.795819 -0.00951898
69.5592 119.941 177.233 -0.60546 0.795819 -0.00951898
70.2647 119.971 175.943 -0.231702 0.972334 0.029671
69.3016 119.733 176.215 -0.231702 0.972334 0.029671
70.4127 119.974 176.994 -0.231702 0.972334 0.029671
69.3016 119.733 176.215 -0.0875898 0.98009 -0.178189
69.5592 119.941 177.233 -0.0875898 0.98009 -0.178189
70.4127 119.974 176.994 -0.0875898 0.98009 -0.178189
71.0308 119.738 177.009 0.519696 0.83112 0.197876
71.4812 119.579 176.495 0.519696 0.83112 0.197876
71.1564 119.881 176.08 0.519696 0.83112 0.197876
71.0308 119.738 177.009 0.346038 0.919208 0.187921
71.1564 119.881 176.08 0.346038 0.919208 0.187921
70.4127 119.974 176.994 0.346038 0.919208 0.187921
70.4127 119.974 176.994 0.103047 0.994522 -0.0175236
71.1564 119.881 176.08 0.103047 0.994522 -0.0175236
70.2647 119.971 175.943 0.103047 0.994522 -0.0175236
71.5832 119.572 176.01 0.594621 0.795949 0.113539
71.1564 119.881 176.08 0.594621 0.795949 0.113539
71.4812 119.579 176.495 0.594621 0.795949 0.113539
69.428 117.553 177.31 -0.660719 -0.732995 -0.161769
69.4174 117.35 178.276 -0.660719 -0.732995 -0.161769
68.986 117.795 178.021 -0.660719 -0.732995 -0.161769
68.7411 117.823 176.955 -0.394189 -0.916623 0.0664649
69.428 117.553 177.31 -0.394189 -0.916623 0.0664649
68.986 117.795 178.021 -0.394189 -0.916623 0.0664649
70.3569 117.526 177.072 -0.0725379 -0.982811 -0.169766
70.3041 117.334 178.206 -0.0725379 -0.982811 -0.169766
69.428 117.553 177.31 -0.0725379 -0.982811 -0.169766
69.428 117.553 177.31 -0.0338036 -0.977874 -0.206444
70.3041 117.334 178.206 -0.0338036 -0.977874 -0.206444
69.4174 117.35 178.276 -0.0338036 -0.977874 -0.206444
71.1774 117.769 176.836 0.237052 -0.957698 -0.163158
71.2457 117.607 177.886 0.237052 -0.957698 -0.163158
70.3569 117.526 177.072 0.237052 -0.957698 -0.163158
70.3569 117.526 177.072 0.227443 -0.961815 -0.152258
71.2457 117.607 177.886 0.227443 -0.961815 -0.152258
70.3041 117.334 178.206 0.227443 -0.961815 -0.152258
71.2457 117.607 177.886 0.562892 -0.810568 -0.161654
71.1774 117.769 176.836 0.562892 -0.810568 -0.161654
71.5787 117.98 177.178 0.562892 -0.810568 -0.161654
71.6573 117.914 178.112 0.631502 -0.767959 -0.106978
71.2457 117.607 177.886 0.631502 -0.767959 -0.106978
71.5787 117.98 177.178 0.631502 -0.767959 -0.106978
68.7411 117.823 176.955 -0.951622 -0.221607 0.212851
68.986 117.795 178.021 -0.951622 -0.221607 0.212851
68.5216 118.67 176.855 -0.951622 -0.221607 0.212851
68.986 117.795 178.021 -0.947354 -0.0960944 0.305429
68.9247 118.733 178.126 -0.947354 -0.0960944 0.305429
68.5216 118.67 176.855 -0.947354 -0.0960944 0.305429
71.5787 117.98 177.178 0.935581 -0.337953 -0.102352
71.8812 118.834 177.123 0.935581 -0.337953 -0.102352
71.6573 117.914 178.112 0.935581 -0.337953 -0.102352
71.6573 117.914 178.112 0.898367 -0.404078 -0.172217
71.8812 118.834 177.123 0.898367 -0.404078 -0.172217
72.0013 118.62 178.25 0.898367 -0.404078 -0.172217
68.5216 118.67 176.855 -0.872446 0.416095 0.256327
68.9247 118.733 178.126 -0.872446 0.416095 0.256327
69.1009 119.594 177.328 -0.872446 0.416095 0.256327
68.9247 118.733 178.126 -0.974073 0.224591 0.0272048
69.1265 119.577 178.382 -0.974073 0.224591 0.0272048
69.1009 119.594 177.328 -0.974073 0.224591 0.0272048
71.5407 119.276 177.251 0.698295 0.705134 -0.123165
71.0308 119.738 177.009 0.698295 0.705134 -0.123165
71.2601 119.717 178.188 0.698295 0.705134 -0.123165
71.5407 119.276 177.251 0.430035 0.859524 -0.276205
71.2601 119.717 178.188 0.430035 0.859524 -0.276205
71.9515 119.319 178.026 0.430035 0.859524 -0.276205
71.5407 119.276 177.251 0.67074 0.63035 -0.390853
71.9515 119.319 178.026 0.67074 0.63035 -0.390853
71.8812 118.834 177.123 0.67074 0.63035 -0.390853
71.8812 118.834 177.123 0.994366 0.0392716 -0.0984574
71.9515 119.319 178.026 0.994366 0.0392716 -0.0984574
72.0013 118.62 178.25 0.994366 0.0392716 -0.0984574
69.1009 119.594 177.328 -0.673437 0.738722 0.0277958
69.1265 119.577 178.382 -0.673437 0.738722 0.0277958
69.5145 119.94 178.154 -0.673437 0.738722 0.0277958
69.5592 119.941 177.233 -0.607692 0.793674 -0.0281301
69.1009 119.594 177.328 -0.607692 0.793674 -0.0281301
69.5145 119.94 178.154 -0.607692 0.793674 -0.0281301
70.4127 119.974 176.994 -0.0516016 0.997551 -0.0472109
69.5592 119.941 177.233 -0.0516016 0.997551 -0.0472109
70.2835 120.015 177.996 -0.0516016 0.997551 -0.0472109
69.5592 119.941 177.233 -0.0978932 0.995192 -0.00303738
69.5145 119.94 178.154 -0.0978932 0.995192 -0.00303738
70.2835 120.015 177.996 -0.0978932 0.995192 -0.00303738
71.2601 119.717 178.188 0.356919 0.932647 -0.0527165
71.0308 119.738 177.009 0.356919 0.932647 -0.0527165
70.4127 119.974 176.994 0.356919 0.932647 -0.0527165
71.2601 119.717 178.188 0.291679 0.956515 -0.00128033
70.4127 119.974 176.994 0.291679 0.956515 -0.00128033
70.2835 120.015 177.996 0.291679 0.956515 -0.00128033
69.646 116.799 179.22 -0.0840358 -0.802598 -0.590572
70.4209 116.865 179.02 -0.0840358 -0.802598 -0.590572
70.2935 116.657 179.32 -0.0840358 -0.802598 -0.590572
70.2935 116.657 179.32 0.410182 -0.822315 -0.394397
70.4209 116.865 179.02 0.410182 -0.822315 -0.394397
70.7001 116.794 179.457 0.410182 -0.822315 -0.394397
69.4174 117.35 178.276 -0.441281 -0.81737 -0.370375
69.646 116.799 179.22 -0.441281 -0.81737 -0.370375
69.1579 117.106 179.124 -0.441281 -0.81737 -0.370375
69.4174 117.35 178.276 -0.544588 -0.746812 -0.3817
69.1579 117.106 179.124 -0.544588 -0.746812 -0.3817
68.986 117.795 178.021 -0.544588 -0.746812 -0.3817
68.986 117.795 178.021 -0.870198 -0.467255 -0.156293
69.1579 117.106 179.124 -0.870198 -0.467255 -0.156293
68.7649 117.877 179.006 -0.870198 -0.467255 -0.156293
70.3041 117.334 178.206 -0.0547274 -0.867989 -0.493559
69.646 116.799 179.22 -0.0547274 -0.867989 -0.493559
69.4174 117.35 178.276 -0.0547274 -0.867989 -0.493559
70.4209 116.865 179.02 -0.0531554 -0.86851 -0.492814
69.646 116.799 179.22 -0.0531554 -0.86851 -0.492814
70.3041 117.334 178.206 -0.0531554 -0.86851 -0.492814
70.4209 116.865 179.02 0.485001 -0.760235 -0.432222
71.2234 117.408 178.966 0.485001 -0.760235 -0.432222
70.7001 116.794 179.457 0.485001 -0.760235 -0.432222
70.4209 116.865 179.02 0.465039 -0.7366 -0.491079
70.3041 117.334 178.206 0.465039 -0.7366 -0.491079
71.2234 117.408 178.966 0.465039 -0.7366 -0.491079
70.3041 117.334 178.206 0.219883 -0.960059 -0.173028
71.2457 117.607 177.886 0.219883 -0.960059 -0.173028
71.2234 117.408 178.966 0.219883 -0.960059 -0.173028
71.2234 117.408 178.966 0.637008 -0.760249 -0.127448
71.2457 117.607 177.886 0.637008 -0.760249 -0.127448
71.6573 117.914 178.112 0.637008 -0.760249 -0.127448
71.6647 117.848 179.152 0.715743 -0.696598 -0.0496442
71.2234 117.408 178.966 0.715743 -0.696598 -0.0496442
71.6573 117.914 178.112 0.715743 -0.696598 -0.0496442
68.986 117.795 178.021 -0.975648 -0.039633 -0.215731
68.7649 117.877 179.006 -0.975648 -0.039633 -0.215731
68.9247 118.733 178.126 -0.975648 -0.039633 -0.215731
68.7649 117.877 179.006 -0.969141 0.239795 0.0571346
68.9849 118.726 179.174 -0.969141 0.239795 0.0571346
68.9247 118.733 178.126 -0.969141 0.239795 0.0571346
71.6573 117.914 178.112 0.90107 -0.432333 -0.0340786
72.0013 118.62 178.25 0.90107 -0.432333 -0.0340786
71.6647 117.848 179.152 0.90107 -0.432333 -0.0340786
71.6647 117.848 179.152 0.957011 -0.254591 0.138972
72.0013 118.62 178.25 0.957011 -0.254591 0.138972
71.9202 118.824 179.181 0.957011 -0.254591 0.138972
68.9247 118.733 178.126 -0.974791 0.215636 0.0573068
68.9849 118.726 179.174 -0.974791 0.215636 0.0573068
69.1265 119.577 178.382 -0.974791 0.215636 0.0573068
68.9849 118.726 179.174 -0.977842 0.204495 0.0447934
69.1701 119.559 179.416 -0.977842 0.204495 0.0447934
69.1265 119.577 178.382 -0.977842 0.204495 0.0447934
71.2601 119.717 178.188 0.628973 0.76128 0.157622
70.9858 119.742 179.164 0.628973 0.76128 0.157622
71.4736 119.312 179.294 0.628973 0.76128 0.157622
71.2601 119.717 178.188 0.745593 0.659201 0.0976971
71.4736 119.312 179.294 0.745593 0.659201 0.0976971
71.9202 118.824 179.181 0.745593 0.659201 0.0976971
71.2601 119.717 178.188 0.527579 0.775323 0.347181
71.9202 118.824 179.181 0.527579 0.775323 0.347181
71.9515 119.319 178.026 0.527579 0.775323 0.347181
71.9515 119.319 178.026 0.993539 0.0920037 0.0664489
71.9202 118.824 179.181 0.993539 0.0920037 0.0664489
72.0013 118.62 178.25 0.993539 0.0920037 0.0664489
69.1265 119.577 178.382 -0.684483 0.727836 0.0416748
69.1701 119.559 179.416 -0.684483 0.727836 0.0416748
69.5237 119.905 179.191 -0.684483 0.727836 0.0416748
69.5145 119.94 178.154 -0.672363 0.739573 0.0309868
69.1265 119.577 178.382 -0.672363 0.739573 0.0309868
69.5237 119.905 179.191 -0.672363 0.739573 0.0309868
70.2835 120.015 177.996 -0.0867222 0.99492 0.0511258
69.5145 119.94 178.154 -0.0867222 0.99492 0.0511258
70.4326 119.973 179.062 -0.0867222 0.99492 0.0511258
69.5145 119.94 178.154 -0.0702054 0.996941 0.0343381
69.5237 119.905 179.191 -0.0702054 0.996941 0.0343381
70.4326 119.973 179.062 -0.0702054 0.996941 0.0343381
70.9858 119.742 179.164 0.371508 0.924876 0.0811564
71.2601 119.717 178.188 0.371508 0.924876 0.0811564
70.4326 119.973 179.062 0.371508 0.924876 0.0811564
70.4326 119.973 179.062 0.292052 0.956396 -0.0033627
71.2601 119.717 178.188 0.292052 0.956396 -0.0033627
70.2835 120.015 177.996 0.292052 0.956396 -0.0033627
69.646 116.799 179.22 -0.501289 -0.848881 -0.167662
69.2942 116.871 179.906 -0.501289 -0.848881 -0.167662
69.1579 117.106 179.124 -0.501289 -0.848881 -0.167662
69.6265 116.72 180.116 -0.364849 -0.926759 -0.0894622
69.2942 116.871 179.906 -0.364849 -0.926759 -0.0894622
69.646 116.799 179.22 -0.364849 -0.926759 -0.0894622
69.6265 116.72 180.116 -0.103579 -0.990597 -0.0893805
69.646 116.799 179.22 -0.103579 -0.990597 -0.0893805
70.2906 116.664 179.964 -0.103579 -0.990597 -0.0893805
70.2906 116.664 179.964 -0.214385 -0.976706 0.00918095
69.646 116.799 179.22 -0.214385 -0.976706 0.00918095
70.2935 116.657 179.32 -0.214385 -0.976706 0.00918095
70.2906 116.664 179.964 0.315999 -0.948693 0.0112841
70.2935 116.657 179.32 0.315999 -0.948693 0.0112841
70.7001 116.794 179.457 0.315999 -0.948693 0.0112841
70.8715 116.765 180.245 0.208972 -0.974493 -0.0818167
70.2906 116.664 179.964 0.208972 -0.974493 -0.0818167
70.7001 116.794 179.457 0.208972 -0.974493 -0.0818167
69.2942 116.871 179.906 -0.82423 -0.412931 0.387471
69.4873 117.002 180.457 -0.82423 -0.412931 0.387471
68.922 117.686 179.983 -0.82423 -0.412931 0.387471
69.2942 116.871 179.906 -0.908028 -0.417633 0.0326826
68.922 117.686 179.983 -0.908028 -0.417633 0.0326826
69.1579 117.106 179.124 -0.908028 -0.417633 0.0326826
69.1579 117.106 179.124 -0.893066 -0.446401 0.0562058
68.922 117.686 179.983 -0.893066 -0.446401 0.0562058
68.7649 117.877 179.006 -0.893066 -0.446401 0.0562058
69.6265 116.72 180.116 -0.569371 -0.731949 0.374254
69.4873 117.002 180.457 -0.569371 -0.731949 0.374254
69.2942 116.871 179.906 -0.569371 -0.731949 0.374254
70.7001 116.794 179.457 0.594713 -0.788113 -0.15873
71.2928 117.114 180.089 0.594713 -0.788113 -0.15873
70.8715 116.765 180.245 0.594713 -0.788113 -0.15873
71.2234 117.408 178.966 0.641117 -0.731967 -0.230635
71.2928 117.114 180.089 0.641117 -0.731967 -0.230635
70.7001 116.794 179.457 0.641117 -0.731967 -0.230635
71.2928 117.114 180.089 0.733648 -0.64506 -0.213679
71.2234 117.408 178.966 0.733648 -0.64506 -0.213679
71.6647 117.848 179.152 0.733648 -0.64506 -0.213679
71.6591 117.871 180.175 0.899272 -0.437142 0.0147523
71.2928 117.114 180.089 0.899272 -0.437142 0.0147523
71.6647 117.848 179.152 0.899272 -0.437142 0.0147523
68.7649 117.877 179.006 -0.958139 0.209627 0.195001
68.922 117.686 179.983 -0.958139 0.209627 0.195001
68.9849 118.726 179.174 -0.958139 0.209627 0.195001
68.922 117.686 179.983 -0.981419 0.151213 0.118118
69.1054 118.718 180.185 -0.981419 0.151213 0.118118
68.9849 118.726 179.174 -0.981419 0.151213 0.118118
71.6647 117.848 179.152 0.967265 -0.253531 0.0109832
71.9202 118.824 179.181 0.967265 -0.253531 0.0109832
71.6591 117.871 180.175 0.967265 -0.253531 0.0109832
71.6591 117.871 180.175 0.941472 -0.329948 -0.06903
71.9202 118.824 179.181 0.941472 -0.329948 -0.06903
71.9405 118.646 180.305 0.941472 -0.329948 -0.06903
68.9849 118.726 179.174 -0.976052 0.182923 0.117736
69.1054 118.718 180.185 -0.976052 0.182923 0.117736
69.1701 119.559 179.416 -0.976052 0.182923 0.117736
69.1054 118.718 180.185 -0.983629 0.156887 0.0886604
69.2493 119.509 180.383 -0.983629 0.156887 0.0886604
69.1701 119.559 179.416 -0.983629 0.156887 0.0886604
71.4736 119.312 179.294 0.677075 0.699079 -0.22991
70.9858 119.742 179.164 0.677075 0.699079 -0.22991
71.2428 119.794 180.08 0.677075 0.699079 -0.22991
71.4736 119.312 179.294 0.671011 0.703435 -0.234359
71.2428 119.794 180.08 0.671011 0.703435 -0.234359
71.6885 119.403 180.183 0.671011 0.703435 -0.234359
71.4736 119.312 179.294 0.689058 0.684919 -0.236822
71.6885 119.403 180.183 0.689058 0.684919 -0.236822
71.9202 118.824 179.181 0.689058 0.684919 -0.236822
71.9202 118.824 179.181 0.946658 0.3205 0.0334392
71.6885 119.403 180.183 0.946658 0.3205 0.0334392
71.9405 118.646 180.305 0.946658 0.3205 0.0334392
69.1701 119.559 179.416 -0.731315 0.675419 0.0947998
69.2493 119.509 180.383 -0.731315 0.675419 0.0947998
69.5203 119.83 180.184 -0.731315 0.675419 0.0947998
69.5237 119.905 179.191 -0.680658 0.730741 0.0521748
69.1701 119.559 179.416 -0.680658 0.730741 0.0521748
69.5203 119.83 180.184 -0.680658 0.730741 0.0521748
70.4326 119.973 179.062 -0.0711398 0.997077 0.0278567
69.5237 119.905 179.191 -0.0711398 0.997077 0.0278567
70.375 119.938 180.158 -0.0711398 0.997077 0.0278567
69.5237 119.905 179.191 -0.122587 0.989737 0.0734317
69.5203 119.83 180.184 -0.122587 0.989737 0.0734317
70.375 119.938 180.158 -0.122587 0.989737 0.0734317
71.2428 119.794 180.08 0.406357 0.898626 -0.165363
70.9858 119.742 179.164 0.406357 0.898626 -0.165363
70.4326 119.973 179.062 0.406357 0.898626 -0.165363
71.2428 119.794 180.08 0.167206 0.98511 0.0400009
70.4326 119.973 179.062 0.167206 0.98511 0.0400009
70.375 119.938 180.158 0.167206 0.98511 0.0400009
70.2906 116.664 179.964 -0.0535451 -0.990215 0.128872
70.2456 116.747 180.581 -0.0535451 -0.990215 0.128872
69.6265 116.72 180.116 -0.0535451 -0.990215 0.128872
70.2906 116.664 179.964 0.103497 -0.984784 0.139606
70.8715 116.765 180.245 0.103497 -0.984784 0.139606
70.2456 116.747 180.581 0.103497 -0.984784 0.139606
69.4873 117.002 180.457 -0.729474 -0.459682 0.506517
69.622 117.548 181.146 -0.729474 -0.459682 0.506517
69.2715 117.844 180.91 -0.729474 -0.459682 0.506517
68.922 117.686 179.983 -0.824684 -0.417092 0.382007
69.4873 117.002 180.457 -0.824684 -0.417092 0.382007
69.2715 117.844 180.91 -0.824684 -0.417092 0.382007
70.2456 116.747 180.581 -0.348166 -0.786634 0.50989
69.4873 117.002 180.457 -0.348166 -0.786634 0.50989
69.6265 116.72 180.116 -0.348166 -0.786634 0.50989
70.2456 116.747 180.581 -0.318355 -0.583584 0.747048
70.5216 117.116 180.987 -0.318355 -0.583584 0.747048
69.4873 117.002 180.457 -0.318355 -0.583584 0.747048
70.5216 117.116 180.987 -0.241911 -0.737205 0.630878
69.622 117.548 181.146 -0.241911 -0.737205 0.630878
69.4873 117.002 180.457 -0.241911 -0.737205 0.630878
70.8715 116.765 180.245 0.302245 -0.798305 0.520919
70.5216 117.116 180.987 0.302245 -0.798305 0.520919
70.2456 116.747 180.581 0.302245 -0.798305 0.520919
70.8715 116.765 180.245 0.643208 -0.528538 0.554013
71.2928 117.114 180.089 0.643208 -0.528538 0.554013
70.5216 117.116 180.987 0.643208 -0.528538 0.554013
71.2928 117.114 180.089 0.449831 -0.804231 0.388413
71.36 117.568 180.951 0.449831 -0.804231 0.388413
70.5216 117.116 180.987 0.449831 -0.804231 0.388413
71.36 117.568 180.951 0.880096 -0.444942 0.165703
71.2928 117.114 180.089 0.880096 -0.444942 0.165703
71.6591 117.871 180.175 0.880096 -0.444942 0.165703
71.5724 118.03 181.042 0.882414 -0.439123 0.168867
71.36 117.568 180.951 0.882414 -0.439123 0.168867
71.6591 117.871 180.175 0.882414 -0.439123 0.168867
68.922 117.686 179.983 -0.93647 0.100525 0.336035
69.2715 117.844 180.91 -0.93647 0.100525 0.336035
69.1054 118.718 180.185 -0.93647 0.100525 0.336035
69.2715 117.844 180.91 -0.97732 -0.0104195 0.211511
69.2891 118.727 181.035 -0.97732 -0.0104195 0.211511
69.1054 118.718 180.185 -0.97732 -0.0104195 0.211511
71.6591 117.871 180.175 0.919468 -0.360004 0.158039
71.9405 118.646 180.305 0.919468 -0.360004 0.158039
71.5724 118.03 181.042 0.919468 -0.360004 0.158039
71.5724 118.03 181.042 0.929895 -0.157682 0.332314
71.9405 118.646 180.305 0.929895 -0.157682 0.332314
71.7239 118.908 181.035 0.929895 -0.157682 0.332314
69.3772 119.338 181.095 -0.872961 0.414751 0.256749
69.4891 119.712 180.871 -0.872961 0.414751 0.256749
69.2493 119.509 180.383 -0.872961 0.414751 0.256749
69.3772 119.338 181.095 -0.971632 0.120274 0.203629
69.2493 119.509 180.383 -0.971632 0.120274 0.203629
69.2891 118.727 181.035 -0.971632 0.120274 0.203629
69.2891 118.727 181.035 -0.970065 0.124444 0.208538
69.2493 119.509 180.383 -0.970065 0.124444 0.208538
69.1054 118.718 180.185 -0.970065 0.124444 0.208538
69.3772 119.338 181.095 -0.572353 0.54029 0.616845
69.7438 119.599 181.206 -0.572353 0.54029 0.616845
69.4891 119.712 180.871 -0.572353 0.54029 0.616845
71.9405 118.646 180.305 0.929475 0.334441 0.155645
71.6885 119.403 180.183 0.929475 0.334441 0.155645
71.7239 118.908 181.035 0.929475 0.334441 0.155645
71.7239 118.908 181.035 0.935342 0.32138 0.147817
71.6885 119.403 180.183 0.935342 0.32138 0.147817
71.4942 119.62 180.942 0.935342 0.32138 0.147817
69.2493 119.509 180.383 -0.736115 0.671814 0.0824672
69.4891 119.712 180.871 -0.736115 0.671814 0.0824672
69.5203 119.83 180.184 -0.736115 0.671814 0.0824672
69.4891 119.712 180.871 -0.184863 0.88023 0.43706
69.7438 119.599 181.206 -0.184863 0.88023 0.43706
70.2126 119.81 180.979 -0.184863 0.88023 0.43706
69.4891 119.712 180.871 -0.156207 0.97452 0.160965
70.2126 119.81 180.979 -0.156207 0.97452 0.160965
69.5203 119.83 180.184 -0.156207 0.97452 0.160965
69.5203 119.83 180.184 -0.120159 0.984227 0.129842
70.2126 119.81 180.979 -0.120159 0.984227 0.129842
70.375 119.938 180.158 -0.120159 0.984227 0.129842
71.2428 119.794 180.08 0.1679 0.984597 0.0487627
70.375 119.938 180.158 0.1679 0.984597 0.0487627
71.1062 119.772 180.992 0.1679 0.984597 0.0487627
70.375 119.938 180.158 0.0394437 0.986056 0.161671
70.2126 119.81 180.979 0.0394437 0.986056 0.161671
71.1062 119.772 180.992 0.0394437 0.986056 0.161671
71.4942 119.62 180.942 0.664346 0.746196 -0.0428436
71.6885 119.403 180.183 0.664346 0.746196 -0.0428436
71.2428 119.794 180.08 0.664346 0.746196 -0.0428436
71.1062 119.772 180.992 0.373427 0.924364 0.078128
71.4942 119.62 180.942 0.373427 0.924364 0.078128
71.2428 119.794 180.08 0.373427 0.924364 0.078128
69.622 117.548 181.146 -0.694015 -0.299688 0.654622
69.5679 118.051 181.319 -0.694015 -0.299688 0.654622
69.2715 117.844 180.91 -0.694015 -0.299688 0.654622
69.622 117.548 181.146 -0.136227 -0.580291 0.802935
70.5216 117.116 180.987 -0.136227 -0.580291 0.802935
70.415 117.854 181.502 -0.136227 -0.580291 0.802935
69.5679 118.051 181.319 -0.273088 -0.338924 0.900307
69.622 117.548 181.146 -0.273088 -0.338924 0.900307
70.415 117.854 181.502 -0.273088 -0.338924 0.900307
70.5216 117.116 180.987 0.414022 -0.724931 0.55051
71.36 117.568 180.951 0.414022 -0.724931 0.55051
71.213 117.762 181.317 0.414022 -0.724931 0.55051
70.415 117.854 181.502 0.126523 -0.555522 0.821819
70.5216 117.116 180.987 0.126523 -0.555522 0.821819
71.213 117.762 181.317 0.126523 -0.555522 0.821819
71.36 117.568 180.951 0.728694 -0.439028 0.525605
71.5724 118.03 181.042 0.728694 -0.439028 0.525605
71.213 117.762 181.317 0.728694 -0.439028 0.525605
69.5679 118.051 181.319 -0.73932 -0.0219959 0.672994
69.5963 118.916 181.379 -0.73932 -0.0219959 0.672994
69.2891 118.727 181.035 -0.73932 -0.0219959 0.672994
69.2715 117.844 180.91 -0.790533 -0.0702924 0.608371
69.5679 118.051 181.319 -0.790533 -0.0702924 0.608371
69.2891 118.727 181.035 -0.790533 -0.0702924 0.608371
70.415 117.854 181.502 -0.227359 -0.0773307 0.970736
70.4099 118.741 181.571 -0.227359 -0.0773307 0.970736
69.5679 118.051 181.319 -0.227359 -0.0773307 0.970736
70.4099 118.741 181.571 -0.241976 -0.0586734 0.968507
69.5963 118.916 181.379 -0.241976 -0.0586734 0.968507
69.5679 118.051 181.319 -0.241976 -0.0586734 0.968507
71.213 117.762 181.317 0.201988 -0.183825 0.961982
71.2738 118.553 181.455 0.201988 -0.183825 0.961982
70.415 117.854 181.502 0.201988 -0.183825 0.961982
71.2738 118.553 181.455 0.116441 -0.0768783 0.990218
70.4099 118.741 181.571 0.116441 -0.0768783 0.990218
70.415 117.854 181.502 0.116441 -0.0768783 0.990218
71.5724 118.03 181.042 0.725924 -0.119719 0.677275
71.7239 118.908 181.035 0.725924 -0.119719 0.677275
71.2738 118.553 181.455 0.725924 -0.119719 0.677275
71.213 117.762 181.317 0.676974 -0.176971 0.714414
71.5724 118.03 181.042 0.676974 -0.176971 0.714414
71.2738 118.553 181.455 0.676974 -0.176971 0.714414
69.2891 118.727 181.035 -0.757065 0.0455113 0.651753
69.5963 118.916 181.379 -0.757065 0.0455113 0.651753
69.3772 119.338 181.095 -0.757065 0.0455113 0.651753
69.7438 119.599 181.206 -0.471871 0.310303 0.825257
69.3772 119.338 181.095 -0.471871 0.310303 0.825257
69.5963 118.916 181.379 -0.471871 0.310303 0.825257
69.7438 119.599 181.206 -0.122948 0.267913 0.955566
69.5963 118.916 181.379 -0.122948 0.267913 0.955566
70.4092 119.551 181.305 -0.122948 0.267913 0.955566
70.4092 119.551 181.305 -0.155952 0.308212 0.938448
69.5963 118.916 181.379 -0.155952 0.308212 0.938448
70.4099 118.741 181.571 -0.155952 0.308212 0.938448
71.2738 118.553 181.455 0.172073 0.193995 0.965793
71.2618 119.432 181.281 0.172073 0.193995 0.965793
70.4099 118.741 181.571 0.172073 0.193995 0.965793
71.2618 119.432 181.281 0.0705908 0.311433 0.947642
70.4092 119.551 181.305 0.0705908 0.311433 0.947642
70.4099 118.741 181.571 0.0705908 0.311433 0.947642
71.7239 118.908 181.035 0.695293 0.309674 0.648591
71.4942 119.62 180.942 0.695293 0.309674 0.648591
71.2618 119.432 181.281 0.695293 0.309674 0.648591
71.2738 118.553 181.455 0.60064 0.163448 0.782634
71.7239 118.908 181.035 0.60064 0.163448 0.782634
71.2618 119.432 181.281 0.60064 0.163448 0.782634
69.7438 119.599 181.206 -0.0387724 0.770116 0.636725
70.4092 119.551 181.305 -0.0387724 0.770116 0.636725
70.2126 119.81 180.979 -0.0387724 0.770116 0.636725
71.1062 119.772 180.992 0.0249002 0.789261 0.613553
70.2126 119.81 180.979 0.0249002 0.789261 0.613553
70.4092 119.551 181.305 0.0249002 0.789261 0.613553
71.2618 119.432 181.281 0.114515 0.673123 0.730611
71.1062 119.772 180.992 0.114515 0.673123 0.730611
70.4092 119.551 181.305 0.114515 0.673123 0.730611
71.4942 119.62 180.942 0.353307 0.694337 0.626953
71.1062 119.772 180.992 0.353307 0.694337 0.626953
71.2618 119.432 181.281 0.353307 0.694337 0.626953
3 0 1 2
3 3 4 5
3 6 7 8
3 9 10 11
3 12 13 14
3 15 16 17
3 18 19 20
3 21 22 23
3 24 25 26
3 27 28 29
3 30 31 32
3 33 34 35
3 36 37 38
3 39 40 41
3 42 43 44
3 45 46 47
3 48 49 50
3 51 52 53
3 54 55 56
3 57 58 59
3 60 61 62
3 63 64 65
3 66 67 68
3 69 70 71
3 72 73 74
3 75 76 77
3 78 79 80
3 81 82 83
3 84 85 86
3 87 88 89
3 90 91 92
3 93 94 95
3 96 97 98
3 99 100 101
3 102 103 104
3 105 106 107
3 108 109 110
3 111 112 113
3 114 115 116
3 117 118 119
3 120 121 122
3 123 124 125
3 126 127 128
3 129 130 131
3 132 133 134
3 135 136 137
3 138 139 140
3 141 142 143
3 144 145 146
3 147 148 149
3 150 151 152
3 153 154 155
3 156 157 158
3 159 160 161
3 162 163 164
3 165 166 167
3 168 169 170
3 171 172 173
3 174 175 176
3 177 178 179
3 180 181 182
3 183 184 185
3 186 187 188
3 189 190 191
3 192 193 194
3 195 196 197
3 198 199 200
3 201 202 203
3 204 205 206
3 207 208 209
3 210 211 212
3 213 214 215
3 216 217 218
3 219 220 221
3 222 223 224
3 225 226 227
3 228 229 230
3 231 232 233
3 234 235 236
3 237 238 239
3 240 241 242
3 243 244 245
3 246 247 248
3 249 250 251
3 252 253 254
3 255 256 257
3 258 259 260
3 261 262 263
3 264 265 266
3 267 268 269
3 270 271 272
3 273 274 275
3 276 277 278
3 279 280 281
3 282 283 284
3 285 286 287
3 288 289 290
3 291 292 293
3 294 295 296
3 297 298 299
3 300 301 302
3 303 304 305
3 306 307 308
3 309 310 311
3 312 313 314
3 315 316 317
3 318 319 320
3 321 322 323
3 324 325 326
3 327 328 329
3 330 331 332
3 333 334 335
3 336 337 338
3 339 340 341
3 342 343 344
3 345 346 347
3 348 349 350
3 351 352 353
3 354 355 356
3 357 358 359
3 360 361 362
3 363 364 365
3 366 367 368
3 369 370 371
3 372 373 374
3 375 376 377
3 378 379 380
3 381 382 383
3 384 385 386
3 387 388 389
3 390 391 392
3 393 394 395
3 396 397 398
3 399 400 401
3 402 403 404
3 405 406 407
3 408 409 410
3 411 412 413
3 414 415 416
3 417 418 419
3 420 421 422
3 423 424 425
3 426 427 428
3 429 430 431
3 432 433 434
3 435 436 437
3 438 439 440
3 441 442 443
3 444 445 446
3 447 448 449
3 450 451 452
3 453 454 455
3 456 457 458
3 459 460 461
3 462 463 464
3 465 466 467
3 468 469 470
3 471 472 473
3 474 475 476
3 477 478 479
3 480 481 482
3 483 484 485
3 486 487 488
3 489 490 491
3 492 493 494
3 495 496 497
3 498 499 500
3 501 502 503
3 504 505 506
3 507 508 509
3 510 511 512
3 513 514 515
3 516 517 518
3 519 520 521
3 522 523 524
3 525 526 527
3 528 529 530
3 531 532 533
3 534 535 536
3 537 538 539
3 540 541 542
3 543 544 545
3 546 547 548
3 549 550 551
3 552 553 554
3 555 556 557
3 558 559 560
3 561 562 563
3 564 565 566
3 567 568 569
3 570 571 572
3 573 574 575
3 576 577 578
3 579 580 581
3 582 583 584
3 585 586 587
3 588 589 590
3 591 592 593
3 594 595 596
3 597 598 599
3 600 601 602
3 603 604 605
3 606 607 608
3 609 610 611
3 612 613 614
3 615 616 617
3 618 619 620
3 621 622 623
3 624 625 626
3 627 628 629
3 630 631 632
3 633 634 635
3 636 637 638
3 639 640 641
3 642 643 644
3 645 646 647
3 648 649 650
3 651 652 653
3 654 655 656
3 657 658 659
3 660 661 662
3 663 664 665
3 666 667 668
3 669 670 671
3 672 673 674
3 675 676 677
3 678 679 680
3 681 682 683
3 684 685 686
3 687 688 689
3 690 691 692
3 693 694 695
