solid ascii
 facet normal -0.533315 -0.825079 -0.1866
  outer loop
   vertex 113.697 148.182 122.878
   vertex 113.62 148.138 123.291
   vertex 113.339 148.376 123.044
  endloop
 endfacet
 facet normal -0.138328 -0.60605 -0.783307
  outer loop
   vertex 113.697 148.182 122.878
   vertex 114.615 148.14 122.748
   vertex 114.32 147.847 123.026
  endloop
 endfacet
 facet normal -0.433178 -0.88429 -0.174323
  outer loop
   vertex 113.62 148.138 123.291
   vertex 113.697 148.182 122.878
   vertex 114.32 147.847 123.026
  endloop
 endfacet
 facet normal 0.0604612 -0.611283 -0.789099
  outer loop
   vertex 114.615 148.14 122.748
   vertex 115.4 148.188 122.771
   vertex 115.169 147.842 123.022
  endloop
 endfacet
 facet normal -0.00862421 -0.684618 -0.728851
  outer loop
   vertex 114.32 147.847 123.026
   vertex 114.615 148.14 122.748
   vertex 115.169 147.842 123.022
  endloop
 endfacet
 facet normal 0.592046 -0.69253 -0.412168
  outer loop
   vertex 115.169 147.842 123.022
   vertex 115.4 148.188 122.771
   vertex 115.614 148.182 123.088
  endloop
 endfacet
 facet normal -0.487242 -0.166242 -0.857297
  outer loop
   vertex 113.564 149.018 122.791
   vertex 113.697 148.182 122.878
   vertex 113.339 148.376 123.044
  endloop
 endfacet
 facet normal -0.597566 -0.102977 -0.795179
  outer loop
   vertex 113.25 149.14 123.012
   vertex 113.564 149.018 122.791
   vertex 113.339 148.376 123.044
  endloop
 endfacet
 facet normal -0.144772 -0.143594 -0.97899
  outer loop
   vertex 114.615 148.14 122.748
   vertex 113.697 148.182 122.878
   vertex 114.435 148.991 122.65
  endloop
 endfacet
 facet normal -0.162523 -0.127261 -0.978463
  outer loop
   vertex 114.435 148.991 122.65
   vertex 113.697 148.182 122.878
   vertex 113.564 149.018 122.791
  endloop
 endfacet
 facet normal 0.0349942 -0.103571 -0.994006
  outer loop
   vertex 115.4 148.188 122.771
   vertex 114.615 148.14 122.748
   vertex 115.327 148.967 122.687
  endloop
 endfacet
 facet normal 0.0384741 -0.106539 -0.993564
  outer loop
   vertex 115.327 148.967 122.687
   vertex 114.615 148.14 122.748
   vertex 114.435 148.991 122.65
  endloop
 endfacet
 facet normal 0.815423 -0.173461 -0.552265
  outer loop
   vertex 115.703 148.851 123.01
   vertex 115.614 148.182 123.088
   vertex 115.4 148.188 122.771
  endloop
 endfacet
 facet normal 0.6475 -0.0211403 -0.761772
  outer loop
   vertex 115.327 148.967 122.687
   vertex 115.703 148.851 123.01
   vertex 115.4 148.188 122.771
  endloop
 endfacet
 facet normal -0.588051 -0.0576927 -0.806764
  outer loop
   vertex 113.512 149.986 122.76
   vertex 113.564 149.018 122.791
   vertex 113.25 149.14 123.012
  endloop
 endfacet
 facet normal -0.696974 0.0028908 -0.717091
  outer loop
   vertex 113.166 149.996 123.097
   vertex 113.512 149.986 122.76
   vertex 113.25 149.14 123.012
  endloop
 endfacet
 facet normal -0.160752 -0.0258216 -0.986657
  outer loop
   vertex 114.435 148.991 122.65
   vertex 113.564 149.018 122.791
   vertex 114.387 149.992 122.631
  endloop
 endfacet
 facet normal -0.144591 -0.039798 -0.988691
  outer loop
   vertex 114.387 149.992 122.631
   vertex 113.564 149.018 122.791
   vertex 113.512 149.986 122.76
  endloop
 endfacet
 facet normal 0.0420014 0.014125 -0.999018
  outer loop
   vertex 115.327 148.967 122.687
   vertex 114.435 148.991 122.65
   vertex 115.298 149.969 122.7
  endloop
 endfacet
 facet normal 0.0746366 -0.014797 -0.997101
  outer loop
   vertex 115.298 149.969 122.7
   vertex 114.435 148.991 122.65
   vertex 114.387 149.992 122.631
  endloop
 endfacet
 facet normal 0.65988 0.0531173 -0.749491
  outer loop
   vertex 115.722 149.761 123.091
   vertex 115.703 148.851 123.01
   vertex 115.327 148.967 122.687
  endloop
 endfacet
 facet normal 0.685297 0.0293799 -0.72767
  outer loop
   vertex 115.298 149.969 122.7
   vertex 115.722 149.761 123.091
   vertex 115.327 148.967 122.687
  endloop
 endfacet
 facet normal -0.69699 -0.0452043 -0.715655
  outer loop
   vertex 113.401 150.786 122.818
   vertex 113.512 149.986 122.76
   vertex 113.166 149.996 123.097
  endloop
 endfacet
 facet normal -0.792378 0.0206071 -0.609682
  outer loop
   vertex 113.117 150.816 123.188
   vertex 113.401 150.786 122.818
   vertex 113.166 149.996 123.097
  endloop
 endfacet
 facet normal -0.145157 0.0562382 -0.987809
  outer loop
   vertex 114.387 149.992 122.631
   vertex 113.512 149.986 122.76
   vertex 114.187 150.883 122.712
  endloop
 endfacet
 facet normal -0.140022 0.0523282 -0.988765
  outer loop
   vertex 114.187 150.883 122.712
   vertex 113.512 149.986 122.76
   vertex 113.401 150.786 122.818
  endloop
 endfacet
 facet normal 0.0784463 0.185903 -0.979432
  outer loop
   vertex 115.298 149.969 122.7
   vertex 114.387 149.992 122.631
   vertex 115.22 151.038 122.897
  endloop
 endfacet
 facet normal 0.15707 0.123434 -0.979843
  outer loop
   vertex 115.22 151.038 122.897
   vertex 114.387 149.992 122.631
   vertex 114.187 150.883 122.712
  endloop
 endfacet
 facet normal 0.698113 0.0876735 -0.710599
  outer loop
   vertex 115.719 150.782 123.214
   vertex 115.722 149.761 123.091
   vertex 115.298 149.969 122.7
  endloop
 endfacet
 facet normal 0.593421 0.18751 -0.782746
  outer loop
   vertex 115.22 151.038 122.897
   vertex 115.719 150.782 123.214
   vertex 115.298 149.969 122.7
  endloop
 endfacet
 facet normal -0.720081 0.375799 -0.583317
  outer loop
   vertex 113.401 150.786 122.818
   vertex 113.117 150.816 123.188
   vertex 113.454 151.405 123.15
  endloop
 endfacet
 facet normal -0.175217 0.477657 -0.860897
  outer loop
   vertex 114.187 150.883 122.712
   vertex 113.401 150.786 122.818
   vertex 113.454 151.405 123.15
  endloop
 endfacet
 facet normal -0.128822 0.52586 -0.840759
  outer loop
   vertex 114.495 151.486 123.042
   vertex 114.187 150.883 122.712
   vertex 113.454 151.405 123.15
  endloop
 endfacet
 facet normal 0.0937567 0.440733 -0.892729
  outer loop
   vertex 115.22 151.038 122.897
   vertex 114.187 150.883 122.712
   vertex 114.495 151.486 123.042
  endloop
 endfacet
 facet normal -0.382018 -0.760599 0.524931
  outer loop
   vertex 114.361 148.321 124.096
   vertex 113.62 148.138 123.291
   vertex 114.522 147.905 123.61
  endloop
 endfacet
 facet normal -0.310696 -0.929443 0.199005
  outer loop
   vertex 114.522 147.905 123.61
   vertex 113.62 148.138 123.291
   vertex 114.32 147.847 123.026
  endloop
 endfacet
 facet normal 0.293587 -0.838396 0.459238
  outer loop
   vertex 115.28 148.057 123.403
   vertex 114.792 148.125 123.839
   vertex 114.522 147.905 123.61
  endloop
 endfacet
 facet normal 0.285184 -0.867922 0.406671
  outer loop
   vertex 115.28 148.057 123.403
   vertex 114.522 147.905 123.61
   vertex 115.169 147.842 123.022
  endloop
 endfacet
 facet normal -0.00576366 -0.994976 0.0999478
  outer loop
   vertex 115.169 147.842 123.022
   vertex 114.522 147.905 123.61
   vertex 114.32 147.847 123.026
  endloop
 endfacet
 facet normal 0.556946 -0.782177 0.279302
  outer loop
   vertex 115.169 147.842 123.022
   vertex 115.614 148.182 123.088
   vertex 115.28 148.057 123.403
  endloop
 endfacet
 facet normal -0.810111 -0.485424 0.32876
  outer loop
   vertex 113.62 148.138 123.291
   vertex 113.495 148.952 124.185
   vertex 113.21 149.107 123.71
  endloop
 endfacet
 facet normal -0.770672 -0.498285 0.397212
  outer loop
   vertex 113.62 148.138 123.291
   vertex 113.21 149.107 123.71
   vertex 113.339 148.376 123.044
  endloop
 endfacet
 facet normal -0.991039 -0.118112 -0.0623829
  outer loop
   vertex 113.339 148.376 123.044
   vertex 113.21 149.107 123.71
   vertex 113.25 149.14 123.012
  endloop
 endfacet
 facet normal -0.445612 -0.692067 0.567867
  outer loop
   vertex 114.361 148.321 124.096
   vertex 113.495 148.952 124.185
   vertex 113.62 148.138 123.291
  endloop
 endfacet
 facet normal 0.533899 -0.506923 0.676743
  outer loop
   vertex 115.28 148.057 123.403
   vertex 115.494 148.977 123.924
   vertex 114.792 148.125 123.839
  endloop
 endfacet
 facet normal 0.692387 -0.470337 0.547159
  outer loop
   vertex 115.494 148.977 123.924
   vertex 115.28 148.057 123.403
   vertex 115.614 148.182 123.088
  endloop
 endfacet
 facet normal 0.966715 -0.100901 0.235118
  outer loop
   vertex 115.494 148.977 123.924
   vertex 115.614 148.182 123.088
   vertex 115.703 148.851 123.01
  endloop
 endfacet
 facet normal -0.993913 -0.0915541 -0.0612748
  outer loop
   vertex 113.25 149.14 123.012
   vertex 113.21 149.107 123.71
   vertex 113.166 149.996 123.097
  endloop
 endfacet
 facet normal -0.984737 -0.129239 -0.116577
  outer loop
   vertex 113.21 149.107 123.71
   vertex 113.061 150.138 123.823
   vertex 113.166 149.996 123.097
  endloop
 endfacet
 facet normal 0.972745 -0.041062 0.228211
  outer loop
   vertex 115.703 148.851 123.01
   vertex 115.722 149.761 123.091
   vertex 115.494 148.977 123.924
  endloop
 endfacet
 facet normal 0.967029 -0.253232 0.0269839
  outer loop
   vertex 115.494 148.977 123.924
   vertex 115.722 149.761 123.091
   vertex 115.788 150.094 123.853
  endloop
 endfacet
 facet normal -0.990003 -0.043997 -0.134008
  outer loop
   vertex 113.166 149.996 123.097
   vertex 113.061 150.138 123.823
   vertex 113.117 150.816 123.188
  endloop
 endfacet
 facet normal -0.975093 -0.10343 -0.196202
  outer loop
   vertex 113.061 150.138 123.823
   vertex 112.914 151.13 124.03
   vertex 113.117 150.816 123.188
  endloop
 endfacet
 facet normal 0.995645 0.0140023 -0.0921652
  outer loop
   vertex 115.722 149.761 123.091
   vertex 115.719 150.782 123.214
   vertex 115.788 150.094 123.853
  endloop
 endfacet
 facet normal 0.99436 0.00097988 -0.10605
  outer loop
   vertex 115.788 150.094 123.853
   vertex 115.719 150.782 123.214
   vertex 115.812 150.908 124.086
  endloop
 endfacet
 facet normal -0.619135 -0.486222 -0.616653
  outer loop
   vertex 112.604 152.133 123.748
   vertex 112.405 151.941 124.099
   vertex 112.202 152.37 123.964
  endloop
 endfacet
 facet normal -0.27356 0.398908 -0.875236
  outer loop
   vertex 113.454 151.405 123.15
   vertex 112.604 152.133 123.748
   vertex 113.487 152.27 123.534
  endloop
 endfacet
 facet normal -0.728086 -0.384847 -0.567259
  outer loop
   vertex 113.454 151.405 123.15
   vertex 112.914 151.13 124.03
   vertex 112.604 152.133 123.748
  endloop
 endfacet
 facet normal -0.817897 0.446101 -0.363371
  outer loop
   vertex 113.454 151.405 123.15
   vertex 113.117 150.816 123.188
   vertex 112.914 151.13 124.03
  endloop
 endfacet
 facet normal -0.696198 -0.385695 -0.605432
  outer loop
   vertex 112.405 151.941 124.099
   vertex 112.604 152.133 123.748
   vertex 112.914 151.13 124.03
  endloop
 endfacet
 facet normal -0.128557 0.507882 -0.85178
  outer loop
   vertex 113.454 151.405 123.15
   vertex 114.402 152.177 123.467
   vertex 114.495 151.486 123.042
  endloop
 endfacet
 facet normal -0.0253544 0.406565 -0.91327
  outer loop
   vertex 113.487 152.27 123.534
   vertex 114.402 152.177 123.467
   vertex 113.454 151.405 123.15
  endloop
 endfacet
 facet normal 0.14971 0.515416 -0.843761
  outer loop
   vertex 114.495 151.486 123.042
   vertex 115.295 152.097 123.557
   vertex 115.22 151.038 122.897
  endloop
 endfacet
 facet normal 0.131173 0.533053 -0.835852
  outer loop
   vertex 114.402 152.177 123.467
   vertex 115.295 152.097 123.557
   vertex 114.495 151.486 123.042
  endloop
 endfacet
 facet normal 0.746675 0.312799 -0.587055
  outer loop
   vertex 115.22 151.038 122.897
   vertex 115.295 152.097 123.557
   vertex 115.726 151.788 123.94
  endloop
 endfacet
 facet normal 0.631828 0.450851 -0.630497
  outer loop
   vertex 115.22 151.038 122.897
   vertex 115.726 151.788 123.94
   vertex 115.719 150.782 123.214
  endloop
 endfacet
 facet normal 0.990137 0.0775532 -0.116678
  outer loop
   vertex 115.719 150.782 123.214
   vertex 115.726 151.788 123.94
   vertex 115.812 150.908 124.086
  endloop
 endfacet
 facet normal -0.494049 -0.0450096 -0.868268
  outer loop
   vertex 112.454 153.15 123.78
   vertex 112.604 152.133 123.748
   vertex 112.202 152.37 123.964
  endloop
 endfacet
 facet normal -0.658902 0.0359102 -0.751371
  outer loop
   vertex 112.118 153.264 124.08
   vertex 112.454 153.15 123.78
   vertex 112.202 152.37 123.964
  endloop
 endfacet
 facet normal -0.243946 0.0622065 -0.967792
  outer loop
   vertex 113.487 152.27 123.534
   vertex 112.604 152.133 123.748
   vertex 113.352 153.141 123.624
  endloop
 endfacet
 facet normal -0.171189 0.00603167 -0.98522
  outer loop
   vertex 113.352 153.141 123.624
   vertex 112.604 152.133 123.748
   vertex 112.454 153.15 123.78
  endloop
 endfacet
 facet normal -0.0579223 0.139388 -0.988542
  outer loop
   vertex 114.402 152.177 123.467
   vertex 113.487 152.27 123.534
   vertex 114.383 153.141 123.604
  endloop
 endfacet
 facet normal -0.0188676 0.099712 -0.994837
  outer loop
   vertex 114.383 153.141 123.604
   vertex 113.487 152.27 123.534
   vertex 113.352 153.141 123.624
  endloop
 endfacet
 facet normal 0.113635 0.179625 -0.97715
  outer loop
   vertex 115.295 152.097 123.557
   vertex 114.402 152.177 123.467
   vertex 115.286 153.098 123.74
  endloop
 endfacet
 facet normal 0.153149 0.141925 -0.977958
  outer loop
   vertex 115.286 153.098 123.74
   vertex 114.402 152.177 123.467
   vertex 114.383 153.141 123.604
  endloop
 endfacet
 facet normal 0.709762 0.130603 -0.692229
  outer loop
   vertex 115.696 152.875 124.115
   vertex 115.726 151.788 123.94
   vertex 115.295 152.097 123.557
  endloop
 endfacet
 facet normal 0.707162 0.133458 -0.694342
  outer loop
   vertex 115.286 153.098 123.74
   vertex 115.696 152.875 124.115
   vertex 115.295 152.097 123.557
  endloop
 endfacet
 facet normal -0.663535 0.0132621 -0.748028
  outer loop
   vertex 112.42 154.103 123.827
   vertex 112.454 153.15 123.78
   vertex 112.118 153.264 124.08
  endloop
 endfacet
 facet normal -0.745793 0.0686972 -0.662626
  outer loop
   vertex 112.094 154.309 124.216
   vertex 112.42 154.103 123.827
   vertex 112.118 153.264 124.08
  endloop
 endfacet
 facet normal -0.170958 0.0243498 -0.984977
  outer loop
   vertex 113.352 153.141 123.624
   vertex 112.454 153.15 123.78
   vertex 113.299 154.152 123.658
  endloop
 endfacet
 facet normal -0.19076 0.0415624 -0.980756
  outer loop
   vertex 113.299 154.152 123.658
   vertex 112.454 153.15 123.78
   vertex 112.42 154.103 123.827
  endloop
 endfacet
 facet normal -0.0189679 0.0378381 -0.999104
  outer loop
   vertex 114.383 153.141 123.604
   vertex 113.352 153.141 123.624
   vertex 114.342 154.157 123.644
  endloop
 endfacet
 facet normal -0.0140445 0.0330451 -0.999355
  outer loop
   vertex 114.342 154.157 123.644
   vertex 113.352 153.141 123.624
   vertex 113.299 154.152 123.658
  endloop
 endfacet
 facet normal 0.149932 0.0439974 -0.987717
  outer loop
   vertex 115.286 153.098 123.74
   vertex 114.383 153.141 123.604
   vertex 115.27 154.124 123.783
  endloop
 endfacet
 facet normal 0.149694 0.0442163 -0.987743
  outer loop
   vertex 115.27 154.124 123.783
   vertex 114.383 153.141 123.604
   vertex 114.342 154.157 123.644
  endloop
 endfacet
 facet normal 0.686614 0.042417 -0.725784
  outer loop
   vertex 115.683 153.91 124.163
   vertex 115.696 152.875 124.115
   vertex 115.286 153.098 123.74
  endloop
 endfacet
 facet normal 0.687837 0.0412503 -0.724692
  outer loop
   vertex 115.27 154.124 123.783
   vertex 115.683 153.91 124.163
   vertex 115.286 153.098 123.74
  endloop
 endfacet
 facet normal -0.681448 0.230934 -0.694477
  outer loop
   vertex 112.42 154.103 123.827
   vertex 112.094 154.309 124.216
   vertex 112.408 154.636 124.017
  endloop
 endfacet
 facet normal -0.462035 0.328057 -0.823955
  outer loop
   vertex 112.408 154.636 124.017
   vertex 112.774 155.338 124.091
   vertex 113.139 155.02 123.76
  endloop
 endfacet
 facet normal -0.44937 0.289807 -0.845032
  outer loop
   vertex 112.408 154.636 124.017
   vertex 113.139 155.02 123.76
   vertex 112.42 154.103 123.827
  endloop
 endfacet
 facet normal -0.192365 0.078741 -0.978159
  outer loop
   vertex 112.42 154.103 123.827
   vertex 113.139 155.02 123.76
   vertex 113.299 154.152 123.658
  endloop
 endfacet
 facet normal -0.014271 0.0982591 -0.995059
  outer loop
   vertex 114.342 154.157 123.644
   vertex 113.299 154.152 123.658
   vertex 114.101 155.23 123.753
  endloop
 endfacet
 facet normal -0.0308276 0.110435 -0.993405
  outer loop
   vertex 114.101 155.23 123.753
   vertex 113.299 154.152 123.658
   vertex 113.139 155.02 123.76
  endloop
 endfacet
 facet normal 0.150309 0.0674993 -0.986332
  outer loop
   vertex 115.27 154.124 123.783
   vertex 114.342 154.157 123.644
   vertex 115.14 155.054 123.827
  endloop
 endfacet
 facet normal 0.0905911 0.121095 -0.988499
  outer loop
   vertex 115.14 155.054 123.827
   vertex 114.342 154.157 123.644
   vertex 114.101 155.23 123.753
  endloop
 endfacet
 facet normal 0.694085 0.0674534 -0.716726
  outer loop
   vertex 115.657 154.993 124.24
   vertex 115.683 153.91 124.163
   vertex 115.27 154.124 123.783
  endloop
 endfacet
 facet normal 0.628307 0.123762 -0.768058
  outer loop
   vertex 115.14 155.054 123.827
   vertex 115.657 154.993 124.24
   vertex 115.27 154.124 123.783
  endloop
 endfacet
 facet normal -0.526645 0.244077 -0.814292
  outer loop
   vertex 113.245 156.021 123.991
   vertex 113.139 155.02 123.76
   vertex 112.774 155.338 124.091
  endloop
 endfacet
 facet normal 0.175574 0.441737 -0.879797
  outer loop
   vertex 113.704 156.383 124.253
   vertex 114.588 155.697 124.085
   vertex 114.101 155.23 123.753
  endloop
 endfacet
 facet normal 0.158681 0.438092 -0.884814
  outer loop
   vertex 113.704 156.383 124.253
   vertex 114.101 155.23 123.753
   vertex 113.245 156.021 123.991
  endloop
 endfacet
 facet normal -0.0569605 0.230562 -0.971389
  outer loop
   vertex 113.245 156.021 123.991
   vertex 114.101 155.23 123.753
   vertex 113.139 155.02 123.76
  endloop
 endfacet
 facet normal 0.141644 0.470723 -0.870837
  outer loop
   vertex 115.14 155.054 123.827
   vertex 114.101 155.23 123.753
   vertex 114.588 155.697 124.085
  endloop
 endfacet
 facet normal 0.205565 0.511072 -0.834595
  outer loop
   vertex 115.378 155.55 124.189
   vertex 115.14 155.054 123.827
   vertex 114.588 155.697 124.085
  endloop
 endfacet
 facet normal 0.622762 0.244718 -0.743156
  outer loop
   vertex 115.657 154.993 124.24
   vertex 115.14 155.054 123.827
   vertex 115.378 155.55 124.189
  endloop
 endfacet
 facet normal 0.051217 -0.750314 0.659094
  outer loop
   vertex 114.522 147.905 123.61
   vertex 114.792 148.125 123.839
   vertex 114.361 148.321 124.096
  endloop
 endfacet
 facet normal -0.468753 -0.716649 0.516416
  outer loop
   vertex 114.361 148.321 124.096
   vertex 114.059 149.093 124.894
   vertex 113.495 148.952 124.185
  endloop
 endfacet
 facet normal -0.0425643 -0.725664 0.686732
  outer loop
   vertex 114.361 148.321 124.096
   vertex 114.614 149.23 125.073
   vertex 114.059 149.093 124.894
  endloop
 endfacet
 facet normal 0.485025 -0.699085 0.525386
  outer loop
   vertex 115.494 148.977 123.924
   vertex 114.614 149.23 125.073
   vertex 114.361 148.321 124.096
  endloop
 endfacet
 facet normal 0.346027 -0.370506 0.861969
  outer loop
   vertex 115.494 148.977 123.924
   vertex 114.361 148.321 124.096
   vertex 114.792 148.125 123.839
  endloop
 endfacet
 facet normal -0.809613 -0.44292 0.385161
  outer loop
   vertex 113.495 148.952 124.185
   vertex 113.454 149.871 125.156
   vertex 113.115 150.097 124.704
  endloop
 endfacet
 facet normal -0.82718 -0.435263 0.355413
  outer loop
   vertex 113.495 148.952 124.185
   vertex 113.115 150.097 124.704
   vertex 113.21 149.107 123.71
  endloop
 endfacet
 facet normal -0.98744 -0.148356 0.0543374
  outer loop
   vertex 113.21 149.107 123.71
   vertex 113.115 150.097 124.704
   vertex 113.061 150.138 123.823
  endloop
 endfacet
 facet normal -0.550433 -0.617757 0.561605
  outer loop
   vertex 114.059 149.093 124.894
   vertex 113.454 149.871 125.156
   vertex 113.495 148.952 124.185
  endloop
 endfacet
 facet normal 0.478669 -0.705945 0.522032
  outer loop
   vertex 115.494 148.977 123.924
   vertex 115.381 149.594 124.861
   vertex 114.614 149.23 125.073
  endloop
 endfacet
 facet normal 0.841098 -0.399711 0.364397
  outer loop
   vertex 115.381 149.594 124.861
   vertex 115.494 148.977 123.924
   vertex 115.684 150.154 124.776
  endloop
 endfacet
 facet normal 0.961348 -0.245567 0.124524
  outer loop
   vertex 115.684 150.154 124.776
   vertex 115.494 148.977 123.924
   vertex 115.788 150.094 123.853
  endloop
 endfacet
 facet normal -0.986106 -0.157147 0.0538515
  outer loop
   vertex 113.061 150.138 123.823
   vertex 113.115 150.097 124.704
   vertex 112.914 151.13 124.03
  endloop
 endfacet
 facet normal -0.986137 -0.156729 0.0545004
  outer loop
   vertex 113.115 150.097 124.704
   vertex 112.978 151.045 124.942
   vertex 112.914 151.13 124.03
  endloop
 endfacet
 facet normal 0.991302 -0.062486 0.115829
  outer loop
   vertex 115.788 150.094 123.853
   vertex 115.812 150.908 124.086
   vertex 115.684 150.154 124.776
  endloop
 endfacet
 facet normal 0.992121 -0.0816624 0.0950135
  outer loop
   vertex 115.684 150.154 124.776
   vertex 115.812 150.908 124.086
   vertex 115.755 151.298 125.019
  endloop
 endfacet
 facet normal -0.883717 -0.306389 0.353794
  outer loop
   vertex 112.405 151.941 124.099
   vertex 112.321 152.417 124.302
   vertex 112.202 152.37 123.964
  endloop
 endfacet
 facet normal -0.854972 -0.323383 0.40552
  outer loop
   vertex 112.405 151.941 124.099
   vertex 112.809 151.909 124.926
   vertex 112.321 152.417 124.302
  endloop
 endfacet
 facet normal -0.776025 -0.51828 0.359404
  outer loop
   vertex 112.405 151.941 124.099
   vertex 112.914 151.13 124.03
   vertex 112.809 151.909 124.926
  endloop
 endfacet
 facet normal -0.980245 -0.191127 0.0508859
  outer loop
   vertex 112.914 151.13 124.03
   vertex 112.978 151.045 124.942
   vertex 112.809 151.909 124.926
  endloop
 endfacet
 facet normal 0.99475 0.100551 0.0190394
  outer loop
   vertex 115.812 150.908 124.086
   vertex 115.726 151.788 123.94
   vertex 115.755 151.298 125.019
  endloop
 endfacet
 facet normal 0.993287 -0.0929389 -0.0688753
  outer loop
   vertex 115.755 151.298 125.019
   vertex 115.726 151.788 123.94
   vertex 115.828 152.204 124.85
  endloop
 endfacet
 facet normal -0.941116 -0.145715 0.305069
  outer loop
   vertex 112.321 152.417 124.302
   vertex 112.249 153.286 124.495
   vertex 112.118 153.264 124.08
  endloop
 endfacet
 facet normal -0.928995 -0.132203 0.345673
  outer loop
   vertex 112.202 152.37 123.964
   vertex 112.321 152.417 124.302
   vertex 112.118 153.264 124.08
  endloop
 endfacet
 facet normal -0.841598 -0.185409 0.507283
  outer loop
   vertex 112.71 153.037 125.174
   vertex 112.321 152.417 124.302
   vertex 112.809 151.909 124.926
  endloop
 endfacet
 facet normal -0.843168 -0.182325 0.505791
  outer loop
   vertex 112.249 153.286 124.495
   vertex 112.321 152.417 124.302
   vertex 112.71 153.037 125.174
  endloop
 endfacet
 facet normal 0.989917 0.0484595 -0.133104
  outer loop
   vertex 115.726 151.788 123.94
   vertex 115.696 152.875 124.115
   vertex 115.828 152.204 124.85
  endloop
 endfacet
 facet normal 0.989835 0.0473432 -0.13411
  outer loop
   vertex 115.828 152.204 124.85
   vertex 115.696 152.875 124.115
   vertex 115.804 153.108 124.992
  endloop
 endfacet
 facet normal -0.789054 -0.341734 0.510502
  outer loop
   vertex 112.249 153.286 124.495
   vertex 112.335 154.241 125.267
   vertex 112.052 154.077 124.72
  endloop
 endfacet
 facet normal -0.901593 -0.310197 0.301509
  outer loop
   vertex 112.249 153.286 124.495
   vertex 112.052 154.077 124.72
   vertex 112.118 153.264 124.08
  endloop
 endfacet
 facet normal -0.996125 -0.0119397 -0.0871294
  outer loop
   vertex 112.118 153.264 124.08
   vertex 112.052 154.077 124.72
   vertex 112.094 154.309 124.216
  endloop
 endfacet
 facet normal -0.837057 -0.296477 0.459822
  outer loop
   vertex 112.71 153.037 125.174
   vertex 112.335 154.241 125.267
   vertex 112.249 153.286 124.495
  endloop
 endfacet
 facet normal 0.991756 0.0187615 -0.12676
  outer loop
   vertex 115.696 152.875 124.115
   vertex 115.683 153.91 124.163
   vertex 115.804 153.108 124.992
  endloop
 endfacet
 facet normal 0.990072 0.00429505 -0.140495
  outer loop
   vertex 115.804 153.108 124.992
   vertex 115.683 153.91 124.163
   vertex 115.805 154.139 125.034
  endloop
 endfacet
 facet normal -0.736237 0.356072 -0.575473
  outer loop
   vertex 112.27 155.139 124.505
   vertex 112.408 154.636 124.017
   vertex 112.094 154.309 124.216
  endloop
 endfacet
 facet normal -0.847423 0.325501 -0.419432
  outer loop
   vertex 112.27 155.139 124.505
   vertex 112.094 154.309 124.216
   vertex 112.062 155.212 124.982
  endloop
 endfacet
 facet normal -0.997213 0.0243654 -0.0705157
  outer loop
   vertex 112.062 155.212 124.982
   vertex 112.094 154.309 124.216
   vertex 112.052 154.077 124.72
  endloop
 endfacet
 facet normal -0.669568 0.414229 -0.616517
  outer loop
   vertex 112.408 154.636 124.017
   vertex 112.27 155.139 124.505
   vertex 112.774 155.338 124.091
  endloop
 endfacet
 facet normal 0.988384 0.0341149 -0.148098
  outer loop
   vertex 115.683 153.91 124.163
   vertex 115.657 154.993 124.24
   vertex 115.805 154.139 125.034
  endloop
 endfacet
 facet normal 0.985151 0.0119925 -0.171269
  outer loop
   vertex 115.805 154.139 125.034
   vertex 115.657 154.993 124.24
   vertex 115.811 155.061 125.131
  endloop
 endfacet
 facet normal -0.888652 0.191097 -0.416868
  outer loop
   vertex 112.414 156.12 124.648
   vertex 112.27 155.139 124.505
   vertex 112.062 155.212 124.982
  endloop
 endfacet
 facet normal -0.754736 0.0518692 -0.653975
  outer loop
   vertex 112.058 156.33 125.074
   vertex 112.414 156.12 124.648
   vertex 112.062 155.212 124.982
  endloop
 endfacet
 facet normal -0.573559 0.283107 -0.768687
  outer loop
   vertex 112.774 155.338 124.091
   vertex 112.414 156.12 124.648
   vertex 113.245 156.021 123.991
  endloop
 endfacet
 facet normal -0.667687 0.20245 -0.716386
  outer loop
   vertex 112.27 155.139 124.505
   vertex 112.414 156.12 124.648
   vertex 112.774 155.338 124.091
  endloop
 endfacet
 facet normal 0.384366 0.654721 -0.650848
  outer loop
   vertex 114.588 155.697 124.085
   vertex 113.704 156.383 124.253
   vertex 114.435 156.234 124.534
  endloop
 endfacet
 facet normal 0.217616 0.651963 -0.726353
  outer loop
   vertex 114.588 155.697 124.085
   vertex 115.179 156.147 124.666
   vertex 115.378 155.55 124.189
  endloop
 endfacet
 facet normal 0.204624 0.662072 -0.720964
  outer loop
   vertex 114.435 156.234 124.534
   vertex 115.179 156.147 124.666
   vertex 114.588 155.697 124.085
  endloop
 endfacet
 facet normal 0.628539 0.601797 -0.492725
  outer loop
   vertex 115.378 155.55 124.189
   vertex 115.179 156.147 124.666
   vertex 115.677 155.899 124.997
  endloop
 endfacet
 facet normal 0.810657 0.36487 -0.457937
  outer loop
   vertex 115.378 155.55 124.189
   vertex 115.677 155.899 124.997
   vertex 115.657 154.993 124.24
  endloop
 endfacet
 facet normal 0.975636 0.127587 -0.17848
  outer loop
   vertex 115.657 154.993 124.24
   vertex 115.677 155.899 124.997
   vertex 115.811 155.061 125.131
  endloop
 endfacet
 facet normal -0.733537 0.118687 -0.669206
  outer loop
   vertex 112.322 157.003 124.905
   vertex 112.414 156.12 124.648
   vertex 112.058 156.33 125.074
  endloop
 endfacet
 facet normal -0.848238 0.209744 -0.486313
  outer loop
   vertex 112.11 157.073 125.305
   vertex 112.322 157.003 124.905
   vertex 112.058 156.33 125.074
  endloop
 endfacet
 facet normal -0.00742901 0.591979 -0.805919
  outer loop
   vertex 113.245 156.021 123.991
   vertex 113.082 157.003 124.714
   vertex 113.704 156.383 124.253
  endloop
 endfacet
 facet normal -0.520538 0.44864 -0.726473
  outer loop
   vertex 113.245 156.021 123.991
   vertex 112.414 156.12 124.648
   vertex 113.082 157.003 124.714
  endloop
 endfacet
 facet normal -0.235593 0.248953 -0.939425
  outer loop
   vertex 112.414 156.12 124.648
   vertex 112.322 157.003 124.905
   vertex 113.082 157.003 124.714
  endloop
 endfacet
 facet normal 0.239141 0.722332 -0.648882
  outer loop
   vertex 113.704 156.383 124.253
   vertex 113.082 157.003 124.714
   vertex 113.592 157.089 124.998
  endloop
 endfacet
 facet normal 0.467632 0.675518 -0.570084
  outer loop
   vertex 113.704 156.383 124.253
   vertex 113.592 157.089 124.998
   vertex 114.425 156.619 125.123
  endloop
 endfacet
 facet normal 0.355622 0.785147 -0.507028
  outer loop
   vertex 113.704 156.383 124.253
   vertex 114.425 156.619 125.123
   vertex 114.435 156.234 124.534
  endloop
 endfacet
 facet normal 0.190286 0.823341 -0.534697
  outer loop
   vertex 115.179 156.147 124.666
   vertex 114.435 156.234 124.534
   vertex 114.425 156.619 125.123
  endloop
 endfacet
 facet normal 0.249971 0.850009 -0.463681
  outer loop
   vertex 115.359 156.393 125.214
   vertex 115.179 156.147 124.666
   vertex 114.425 156.619 125.123
  endloop
 endfacet
 facet normal 0.626502 0.613268 -0.481039
  outer loop
   vertex 115.677 155.899 124.997
   vertex 115.179 156.147 124.666
   vertex 115.359 156.393 125.214
  endloop
 endfacet
 facet normal -0.596453 0.674437 -0.435175
  outer loop
   vertex 112.322 157.003 124.905
   vertex 112.11 157.073 125.305
   vertex 112.521 157.367 125.197
  endloop
 endfacet
 facet normal -0.180308 0.673509 -0.71685
  outer loop
   vertex 113.082 157.003 124.714
   vertex 112.322 157.003 124.905
   vertex 112.521 157.367 125.197
  endloop
 endfacet
 facet normal -0.00514125 0.795922 -0.605377
  outer loop
   vertex 113.232 157.383 125.212
   vertex 113.082 157.003 124.714
   vertex 112.521 157.367 125.197
  endloop
 endfacet
 facet normal 0.22708 0.740396 -0.632652
  outer loop
   vertex 113.592 157.089 124.998
   vertex 113.082 157.003 124.714
   vertex 113.232 157.383 125.212
  endloop
 endfacet
 facet normal -0.527689 -0.610029 0.591107
  outer loop
   vertex 114.059 149.093 124.894
   vertex 114.055 149.835 125.655
   vertex 113.454 149.871 125.156
  endloop
 endfacet
 facet normal -0.0483231 -0.71558 0.696857
  outer loop
   vertex 114.059 149.093 124.894
   vertex 114.614 149.23 125.073
   vertex 114.055 149.835 125.655
  endloop
 endfacet
 facet normal 0.444736 -0.567828 0.692663
  outer loop
   vertex 115.285 149.981 125.258
   vertex 114.714 150.233 125.83
   vertex 114.614 149.23 125.073
  endloop
 endfacet
 facet normal 0.459848 -0.576984 0.675004
  outer loop
   vertex 115.381 149.594 124.861
   vertex 115.285 149.981 125.258
   vertex 114.614 149.23 125.073
  endloop
 endfacet
 facet normal 0.780254 -0.342643 0.523259
  outer loop
   vertex 115.381 149.594 124.861
   vertex 115.684 150.154 124.776
   vertex 115.285 149.981 125.258
  endloop
 endfacet
 facet normal -0.754892 -0.45246 0.474782
  outer loop
   vertex 113.454 149.871 125.156
   vertex 113.527 150.543 125.913
   vertex 113.115 151.082 125.771
  endloop
 endfacet
 facet normal -0.812827 -0.428155 0.394963
  outer loop
   vertex 113.454 149.871 125.156
   vertex 113.115 151.082 125.771
   vertex 113.115 150.097 124.704
  endloop
 endfacet
 facet normal -0.968607 -0.182799 0.168481
  outer loop
   vertex 113.115 150.097 124.704
   vertex 113.115 151.082 125.771
   vertex 112.978 151.045 124.942
  endloop
 endfacet
 facet normal -0.528224 -0.608859 0.591836
  outer loop
   vertex 114.055 149.835 125.655
   vertex 113.527 150.543 125.913
   vertex 113.454 149.871 125.156
  endloop
 endfacet
 facet normal 0.628166 -0.251413 0.736342
  outer loop
   vertex 115.366 150.846 125.484
   vertex 114.714 150.233 125.83
   vertex 115.285 149.981 125.258
  endloop
 endfacet
 facet normal 0.640675 -0.275868 0.716542
  outer loop
   vertex 114.861 151.025 126.004
   vertex 114.714 150.233 125.83
   vertex 115.366 150.846 125.484
  endloop
 endfacet
 facet normal 0.829265 -0.164954 0.533957
  outer loop
   vertex 115.684 150.154 124.776
   vertex 115.755 151.298 125.019
   vertex 115.366 150.846 125.484
  endloop
 endfacet
 facet normal 0.788523 -0.223594 0.57292
  outer loop
   vertex 115.285 149.981 125.258
   vertex 115.684 150.154 124.776
   vertex 115.366 150.846 125.484
  endloop
 endfacet
 facet normal -0.967903 -0.18645 0.168526
  outer loop
   vertex 112.978 151.045 124.942
   vertex 113.115 151.082 125.771
   vertex 112.809 151.909 124.926
  endloop
 endfacet
 facet normal -0.967991 -0.1701 0.184553
  outer loop
   vertex 113.115 151.082 125.771
   vertex 112.941 152.184 125.873
   vertex 112.809 151.909 124.926
  endloop
 endfacet
 facet normal 0.577882 -0.414202 0.703199
  outer loop
   vertex 115.366 150.846 125.484
   vertex 115.257 151.844 126.161
   vertex 114.861 151.025 126.004
  endloop
 endfacet
 facet normal 0.845266 -0.233935 0.480415
  outer loop
   vertex 115.257 151.844 126.161
   vertex 115.366 150.846 125.484
   vertex 115.755 151.298 125.019
  endloop
 endfacet
 facet normal 0.798761 -0.327302 0.504832
  outer loop
   vertex 115.257 151.844 126.161
   vertex 115.755 151.298 125.019
   vertex 115.73 152.227 125.66
  endloop
 endfacet
 facet normal 0.99099 -0.0572715 0.121073
  outer loop
   vertex 115.73 152.227 125.66
   vertex 115.755 151.298 125.019
   vertex 115.828 152.204 124.85
  endloop
 endfacet
 facet normal -0.977273 -0.123432 0.172342
  outer loop
   vertex 112.809 151.909 124.926
   vertex 112.941 152.184 125.873
   vertex 112.71 153.037 125.174
  endloop
 endfacet
 facet normal -0.971746 -0.0817283 0.221427
  outer loop
   vertex 112.941 152.184 125.873
   vertex 112.933 152.976 126.129
   vertex 112.71 153.037 125.174
  endloop
 endfacet
 facet normal 0.992816 0.0074699 0.119414
  outer loop
   vertex 115.828 152.204 124.85
   vertex 115.804 153.108 124.992
   vertex 115.73 152.227 125.66
  endloop
 endfacet
 facet normal 0.966154 0.0995921 0.237965
  outer loop
   vertex 115.73 152.227 125.66
   vertex 115.804 153.108 124.992
   vertex 115.539 153.131 126.058
  endloop
 endfacet
 facet normal -0.854937 -0.299259 0.423706
  outer loop
   vertex 112.335 154.241 125.267
   vertex 112.71 153.037 125.174
   vertex 112.843 153.926 126.07
  endloop
 endfacet
 facet normal -0.971967 -0.0782933 0.2217
  outer loop
   vertex 112.71 153.037 125.174
   vertex 112.933 152.976 126.129
   vertex 112.843 153.926 126.07
  endloop
 endfacet
 facet normal 0.970381 -0.0110152 0.241328
  outer loop
   vertex 115.804 153.108 124.992
   vertex 115.805 154.139 125.034
   vertex 115.539 153.131 126.058
  endloop
 endfacet
 facet normal 0.983289 -0.126725 0.130703
  outer loop
   vertex 115.539 153.131 126.058
   vertex 115.805 154.139 125.034
   vertex 115.718 154.365 125.907
  endloop
 endfacet
 facet normal -0.923982 -0.157693 0.348411
  outer loop
   vertex 112.335 154.241 125.267
   vertex 112.249 155.288 125.514
   vertex 112.062 155.212 124.982
  endloop
 endfacet
 facet normal -0.870605 -0.103736 0.480921
  outer loop
   vertex 112.052 154.077 124.72
   vertex 112.335 154.241 125.267
   vertex 112.062 155.212 124.982
  endloop
 endfacet
 facet normal -0.858132 -0.101781 0.503239
  outer loop
   vertex 112.77 155.057 126.174
   vertex 112.335 154.241 125.267
   vertex 112.843 153.926 126.07
  endloop
 endfacet
 facet normal -0.802047 -0.198498 0.56331
  outer loop
   vertex 112.249 155.288 125.514
   vertex 112.335 154.241 125.267
   vertex 112.77 155.057 126.174
  endloop
 endfacet
 facet normal 0.994487 -0.0169957 0.103477
  outer loop
   vertex 115.805 154.139 125.034
   vertex 115.811 155.061 125.131
   vertex 115.718 154.365 125.907
  endloop
 endfacet
 facet normal 0.991559 0.0119581 0.129102
  outer loop
   vertex 115.718 154.365 125.907
   vertex 115.811 155.061 125.131
   vertex 115.71 155.366 125.876
  endloop
 endfacet
 facet normal -0.828189 -0.309824 0.467024
  outer loop
   vertex 112.249 155.288 125.514
   vertex 112.365 155.869 126.106
   vertex 112.038 156.217 125.756
  endloop
 endfacet
 facet normal -0.887338 -0.294224 0.355055
  outer loop
   vertex 112.249 155.288 125.514
   vertex 112.038 156.217 125.756
   vertex 112.062 155.212 124.982
  endloop
 endfacet
 facet normal -0.999536 -0.000217118 -0.0304561
  outer loop
   vertex 112.062 155.212 124.982
   vertex 112.038 156.217 125.756
   vertex 112.058 156.33 125.074
  endloop
 endfacet
 facet normal -0.790892 -0.351676 0.500813
  outer loop
   vertex 112.77 155.057 126.174
   vertex 112.365 155.869 126.106
   vertex 112.249 155.288 125.514
  endloop
 endfacet
 facet normal 0.983751 0.16764 0.0642697
  outer loop
   vertex 115.811 155.061 125.131
   vertex 115.677 155.899 124.997
   vertex 115.71 155.366 125.876
  endloop
 endfacet
 facet normal 0.991107 0.12709 0.0394411
  outer loop
   vertex 115.71 155.366 125.876
   vertex 115.677 155.899 124.997
   vertex 115.614 156.133 125.821
  endloop
 endfacet
 facet normal -0.997043 0.074715 -0.0179893
  outer loop
   vertex 112.058 156.33 125.074
   vertex 112.038 156.217 125.756
   vertex 112.11 157.073 125.305
  endloop
 endfacet
 facet normal -0.997128 0.0722626 -0.0226636
  outer loop
   vertex 112.038 156.217 125.756
   vertex 112.092 157.043 125.988
   vertex 112.11 157.073 125.305
  endloop
 endfacet
 facet normal 0.590028 0.807067 -0.0225838
  outer loop
   vertex 114.425 156.619 125.123
   vertex 113.663 157.195 125.813
   vertex 114.27 156.76 126.115
  endloop
 endfacet
 facet normal 0.503585 0.850091 -0.154105
  outer loop
   vertex 113.592 157.089 124.998
   vertex 113.663 157.195 125.813
   vertex 114.425 156.619 125.123
  endloop
 endfacet
 facet normal 0.233075 0.972382 0.0122461
  outer loop
   vertex 115.359 156.393 125.214
   vertex 114.425 156.619 125.123
   vertex 115.116 156.441 126.056
  endloop
 endfacet
 facet normal 0.346399 0.934761 -0.0789278
  outer loop
   vertex 114.425 156.619 125.123
   vertex 114.27 156.76 126.115
   vertex 115.116 156.441 126.056
  endloop
 endfacet
 facet normal 0.816917 0.56813 -0.0993754
  outer loop
   vertex 115.614 156.133 125.821
   vertex 115.677 155.899 124.997
   vertex 115.359 156.393 125.214
  endloop
 endfacet
 facet normal 0.56135 0.819453 0.115683
  outer loop
   vertex 115.116 156.441 126.056
   vertex 115.614 156.133 125.821
   vertex 115.359 156.393 125.214
  endloop
 endfacet
 facet normal -0.73425 0.678791 0.0109481
  outer loop
   vertex 112.11 157.073 125.305
   vertex 112.092 157.043 125.988
   vertex 112.424 157.402 125.961
  endloop
 endfacet
 facet normal -0.597264 0.794113 -0.11252
  outer loop
   vertex 112.521 157.367 125.197
   vertex 112.11 157.073 125.305
   vertex 112.424 157.402 125.961
  endloop
 endfacet
 facet normal -0.0196237 0.99128 -0.130305
  outer loop
   vertex 113.232 157.383 125.212
   vertex 112.521 157.367 125.197
   vertex 113.107 157.469 125.885
  endloop
 endfacet
 facet normal -0.103507 0.992874 -0.0590495
  outer loop
   vertex 112.521 157.367 125.197
   vertex 112.424 157.402 125.961
   vertex 113.107 157.469 125.885
  endloop
 endfacet
 facet normal 0.56766 0.80868 -0.154265
  outer loop
   vertex 113.663 157.195 125.813
   vertex 113.592 157.089 124.998
   vertex 113.232 157.383 125.212
  endloop
 endfacet
 facet normal 0.438425 0.898143 -0.0334971
  outer loop
   vertex 113.107 157.469 125.885
   vertex 113.663 157.195 125.813
   vertex 113.232 157.383 125.212
  endloop
 endfacet
 facet normal -0.00694765 -0.696844 0.717189
  outer loop
   vertex 114.614 149.23 125.073
   vertex 114.209 150.2 126.011
   vertex 114.055 149.835 125.655
  endloop
 endfacet
 facet normal 0.304907 -0.593363 0.744951
  outer loop
   vertex 114.614 149.23 125.073
   vertex 114.714 150.233 125.83
   vertex 114.209 150.2 126.011
  endloop
 endfacet
 facet normal -0.729562 -0.415002 0.543611
  outer loop
   vertex 113.527 150.543 125.913
   vertex 113.517 151.104 126.328
   vertex 113.115 151.082 125.771
  endloop
 endfacet
 facet normal -0.385801 -0.555589 0.736532
  outer loop
   vertex 113.527 150.543 125.913
   vertex 114.055 149.835 125.655
   vertex 114.209 150.2 126.011
  endloop
 endfacet
 facet normal -0.384887 -0.553102 0.738878
  outer loop
   vertex 113.527 150.543 125.913
   vertex 114.209 150.2 126.011
   vertex 113.517 151.104 126.328
  endloop
 endfacet
 facet normal -0.0184865 -0.342966 0.939166
  outer loop
   vertex 113.517 151.104 126.328
   vertex 114.209 150.2 126.011
   vertex 114.37 151.11 126.346
  endloop
 endfacet
 facet normal 0.518026 -0.273719 0.810387
  outer loop
   vertex 114.714 150.233 125.83
   vertex 114.861 151.025 126.004
   vertex 114.37 151.11 126.346
  endloop
 endfacet
 facet normal 0.333422 -0.377613 0.863851
  outer loop
   vertex 114.209 150.2 126.011
   vertex 114.714 150.233 125.83
   vertex 114.37 151.11 126.346
  endloop
 endfacet
 facet normal -0.563645 -0.453431 0.690438
  outer loop
   vertex 113.517 151.104 126.328
   vertex 113.648 151.826 126.908
   vertex 113.183 152.087 126.7
  endloop
 endfacet
 facet normal -0.716604 -0.446873 0.535522
  outer loop
   vertex 113.517 151.104 126.328
   vertex 113.183 152.087 126.7
   vertex 113.115 151.082 125.771
  endloop
 endfacet
 facet normal -0.950495 -0.174091 0.257394
  outer loop
   vertex 113.115 151.082 125.771
   vertex 113.183 152.087 126.7
   vertex 112.941 152.184 125.873
  endloop
 endfacet
 facet normal -0.0131474 -0.62536 0.780226
  outer loop
   vertex 114.37 151.11 126.346
   vertex 113.648 151.826 126.908
   vertex 113.517 151.104 126.328
  endloop
 endfacet
 facet normal 0.0754624 -0.567238 0.820089
  outer loop
   vertex 114.427 151.865 126.864
   vertex 113.648 151.826 126.908
   vertex 114.37 151.11 126.346
  endloop
 endfacet
 facet normal 0.587378 -0.395409 0.706144
  outer loop
   vertex 115.257 151.844 126.161
   vertex 114.739 152.305 126.85
   vertex 114.427 151.865 126.864
  endloop
 endfacet
 facet normal 0.552492 -0.49862 0.667931
  outer loop
   vertex 115.257 151.844 126.161
   vertex 114.427 151.865 126.864
   vertex 114.37 151.11 126.346
  endloop
 endfacet
 facet normal 0.482644 -0.384273 0.787013
  outer loop
   vertex 115.257 151.844 126.161
   vertex 114.37 151.11 126.346
   vertex 114.861 151.025 126.004
  endloop
 endfacet
 facet normal -0.958322 -0.0968599 0.268768
  outer loop
   vertex 112.941 152.184 125.873
   vertex 113.183 152.087 126.7
   vertex 112.933 152.976 126.129
  endloop
 endfacet
 facet normal -0.959568 -0.101114 0.262687
  outer loop
   vertex 113.183 152.087 126.7
   vertex 113.116 153.138 126.86
   vertex 112.933 152.976 126.129
  endloop
 endfacet
 facet normal 0.75582 -0.113928 0.644792
  outer loop
   vertex 115.539 153.131 126.058
   vertex 114.739 152.305 126.85
   vertex 115.257 151.844 126.161
  endloop
 endfacet
 facet normal 0.668838 0.0625627 0.740771
  outer loop
   vertex 114.44 153.084 127.054
   vertex 114.739 152.305 126.85
   vertex 115.539 153.131 126.058
  endloop
 endfacet
 facet normal 0.764811 -0.116806 0.633578
  outer loop
   vertex 115.257 151.844 126.161
   vertex 115.73 152.227 125.66
   vertex 115.539 153.131 126.058
  endloop
 endfacet
 facet normal -0.963251 -0.0752262 0.257853
  outer loop
   vertex 112.933 152.976 126.129
   vertex 113.116 153.138 126.86
   vertex 112.843 153.926 126.07
  endloop
 endfacet
 facet normal -0.95565 -0.0383634 0.291996
  outer loop
   vertex 113.116 153.138 126.86
   vertex 113.084 154.166 126.89
   vertex 112.843 153.926 126.07
  endloop
 endfacet
 facet normal 0.667829 -0.14571 0.729913
  outer loop
   vertex 115.265 154.039 126.49
   vertex 114.44 153.084 127.054
   vertex 115.539 153.131 126.058
  endloop
 endfacet
 facet normal 0.582767 -0.0235623 0.812298
  outer loop
   vertex 114.414 154.272 127.107
   vertex 114.44 153.084 127.054
   vertex 115.265 154.039 126.49
  endloop
 endfacet
 facet normal 0.800119 -0.043054 0.598294
  outer loop
   vertex 115.539 153.131 126.058
   vertex 115.718 154.365 125.907
   vertex 115.265 154.039 126.49
  endloop
 endfacet
 facet normal -0.948258 -0.0892772 0.30469
  outer loop
   vertex 112.843 153.926 126.07
   vertex 113.084 154.166 126.89
   vertex 112.77 155.057 126.174
  endloop
 endfacet
 facet normal -0.920098 -0.009511 0.391573
  outer loop
   vertex 113.084 154.166 126.89
   vertex 113.11 155.083 126.975
   vertex 112.77 155.057 126.174
  endloop
 endfacet
 facet normal 0.588408 0.00701347 0.808534
  outer loop
   vertex 115.328 155.004 126.436
   vertex 114.414 154.272 127.107
   vertex 115.265 154.039 126.49
  endloop
 endfacet
 facet normal 0.61762 -0.0512122 0.784807
  outer loop
   vertex 114.688 155.375 126.964
   vertex 114.414 154.272 127.107
   vertex 115.328 155.004 126.436
  endloop
 endfacet
 facet normal 0.817998 0.0241444 0.574714
  outer loop
   vertex 115.718 154.365 125.907
   vertex 115.71 155.366 125.876
   vertex 115.328 155.004 126.436
  endloop
 endfacet
 facet normal 0.793991 -0.0177482 0.60767
  outer loop
   vertex 115.265 154.039 126.49
   vertex 115.718 154.365 125.907
   vertex 115.328 155.004 126.436
  endloop
 endfacet
 facet normal -0.815765 -0.237447 0.527395
  outer loop
   vertex 112.365 155.869 126.106
   vertex 112.355 156.478 126.364
   vertex 112.038 156.217 125.756
  endloop
 endfacet
 facet normal -0.720544 -0.281079 0.633885
  outer loop
   vertex 112.365 155.869 126.106
   vertex 112.965 156.025 126.857
   vertex 112.355 156.478 126.364
  endloop
 endfacet
 facet normal -0.713323 -0.301939 0.632458
  outer loop
   vertex 112.365 155.869 126.106
   vertex 112.77 155.057 126.174
   vertex 112.965 156.025 126.857
  endloop
 endfacet
 facet normal -0.915287 -0.0918526 0.392189
  outer loop
   vertex 112.77 155.057 126.174
   vertex 113.11 155.083 126.975
   vertex 112.965 156.025 126.857
  endloop
 endfacet
 facet normal 0.656199 0.0620312 0.752034
  outer loop
   vertex 115.336 155.941 126.351
   vertex 114.688 155.375 126.964
   vertex 115.328 155.004 126.436
  endloop
 endfacet
 facet normal 0.641405 0.0897334 0.761937
  outer loop
   vertex 114.713 156.158 126.85
   vertex 114.688 155.375 126.964
   vertex 115.336 155.941 126.351
  endloop
 endfacet
 facet normal 0.854256 0.142988 0.499801
  outer loop
   vertex 115.71 155.366 125.876
   vertex 115.614 156.133 125.821
   vertex 115.336 155.941 126.351
  endloop
 endfacet
 facet normal 0.810786 0.0454529 0.583576
  outer loop
   vertex 115.328 155.004 126.436
   vertex 115.71 155.366 125.876
   vertex 115.336 155.941 126.351
  endloop
 endfacet
 facet normal -0.758889 0.0769671 0.646656
  outer loop
   vertex 112.355 156.478 126.364
   vertex 112.451 157.163 126.395
   vertex 112.092 157.043 125.988
  endloop
 endfacet
 facet normal -0.869265 -0.0799339 0.487842
  outer loop
   vertex 112.038 156.217 125.756
   vertex 112.355 156.478 126.364
   vertex 112.092 157.043 125.988
  endloop
 endfacet
 facet normal -0.639373 -0.0253056 0.76848
  outer loop
   vertex 113.003 156.941 126.919
   vertex 112.355 156.478 126.364
   vertex 112.965 156.025 126.857
  endloop
 endfacet
 facet normal -0.673707 0.06102 0.736475
  outer loop
   vertex 112.451 157.163 126.395
   vertex 112.355 156.478 126.364
   vertex 113.003 156.941 126.919
  endloop
 endfacet
 facet normal 0.537609 0.819656 0.197838
  outer loop
   vertex 114.27 156.76 126.115
   vertex 113.319 157.25 126.669
   vertex 114.279 156.575 126.855
  endloop
 endfacet
 facet normal 0.522882 0.837943 0.156354
  outer loop
   vertex 113.663 157.195 125.813
   vertex 113.319 157.25 126.669
   vertex 114.27 156.76 126.115
  endloop
 endfacet
 facet normal 0.622299 0.582451 0.522967
  outer loop
   vertex 114.713 156.158 126.85
   vertex 115.336 155.941 126.351
   vertex 115.116 156.441 126.056
  endloop
 endfacet
 facet normal 0.594558 0.613362 0.519893
  outer loop
   vertex 114.713 156.158 126.85
   vertex 115.116 156.441 126.056
   vertex 114.279 156.575 126.855
  endloop
 endfacet
 facet normal 0.357304 0.907186 0.222142
  outer loop
   vertex 114.279 156.575 126.855
   vertex 115.116 156.441 126.056
   vertex 114.27 156.76 126.115
  endloop
 endfacet
 facet normal 0.61218 0.583985 0.533101
  outer loop
   vertex 115.614 156.133 125.821
   vertex 115.116 156.441 126.056
   vertex 115.336 155.941 126.351
  endloop
 endfacet
 facet normal -0.659925 0.639565 0.394277
  outer loop
   vertex 112.092 157.043 125.988
   vertex 112.451 157.163 126.395
   vertex 112.424 157.402 125.961
  endloop
 endfacet
 facet normal -0.265412 0.755173 0.599391
  outer loop
   vertex 112.451 157.163 126.395
   vertex 113.003 156.941 126.919
   vertex 113.319 157.25 126.669
  endloop
 endfacet
 facet normal -0.236971 0.844108 0.480964
  outer loop
   vertex 112.451 157.163 126.395
   vertex 113.319 157.25 126.669
   vertex 112.424 157.402 125.961
  endloop
 endfacet
 facet normal -0.0618947 0.956808 0.284056
  outer loop
   vertex 112.424 157.402 125.961
   vertex 113.319 157.25 126.669
   vertex 113.107 157.469 125.885
  endloop
 endfacet
 facet normal 0.451719 0.88338 0.124861
  outer loop
   vertex 113.319 157.25 126.669
   vertex 113.663 157.195 125.813
   vertex 113.107 157.469 125.885
  endloop
 endfacet
 facet normal -0.549245 -0.387929 0.740163
  outer loop
   vertex 113.648 151.826 126.908
   vertex 113.522 152.411 127.122
   vertex 113.183 152.087 126.7
  endloop
 endfacet
 facet normal 0.0756105 -0.582369 0.809401
  outer loop
   vertex 113.648 151.826 126.908
   vertex 114.427 151.865 126.864
   vertex 114.212 152.201 127.126
  endloop
 endfacet
 facet normal -0.115434 -0.362292 0.924889
  outer loop
   vertex 113.522 152.411 127.122
   vertex 113.648 151.826 126.908
   vertex 114.212 152.201 127.126
  endloop
 endfacet
 facet normal 0.487479 -0.321322 0.81186
  outer loop
   vertex 114.427 151.865 126.864
   vertex 114.739 152.305 126.85
   vertex 114.212 152.201 127.126
  endloop
 endfacet
 facet normal -0.608866 -0.0556763 0.791317
  outer loop
   vertex 113.522 152.411 127.122
   vertex 113.517 153.388 127.186
   vertex 113.116 153.138 126.86
  endloop
 endfacet
 facet normal -0.710702 -0.15006 0.687302
  outer loop
   vertex 113.183 152.087 126.7
   vertex 113.522 152.411 127.122
   vertex 113.116 153.138 126.86
  endloop
 endfacet
 facet normal 0.0175184 0.0763831 0.996925
  outer loop
   vertex 114.212 152.201 127.126
   vertex 114.44 153.084 127.054
   vertex 113.522 152.411 127.122
  endloop
 endfacet
 facet normal 0.120604 -0.0648494 0.99058
  outer loop
   vertex 114.44 153.084 127.054
   vertex 113.517 153.388 127.186
   vertex 113.522 152.411 127.122
  endloop
 endfacet
 facet normal 0.470408 -0.05015 0.881023
  outer loop
   vertex 114.212 152.201 127.126
   vertex 114.739 152.305 126.85
   vertex 114.44 153.084 127.054
  endloop
 endfacet
 facet normal -0.614418 -0.0424859 0.787836
  outer loop
   vertex 113.517 153.388 127.186
   vertex 113.495 154.41 127.225
   vertex 113.084 154.166 126.89
  endloop
 endfacet
 facet normal -0.614339 -0.0424173 0.787901
  outer loop
   vertex 113.116 153.138 126.86
   vertex 113.517 153.388 127.186
   vertex 113.084 154.166 126.89
  endloop
 endfacet
 facet normal 0.128266 -0.0417084 0.990862
  outer loop
   vertex 114.44 153.084 127.054
   vertex 114.414 154.272 127.107
   vertex 113.517 153.388 127.186
  endloop
 endfacet
 facet normal 0.12132 -0.0345585 0.992012
  outer loop
   vertex 114.414 154.272 127.107
   vertex 113.495 154.41 127.225
   vertex 113.517 153.388 127.186
  endloop
 endfacet
 facet normal -0.555304 -0.00953572 0.831593
  outer loop
   vertex 113.495 154.41 127.225
   vertex 113.464 155.408 127.215
   vertex 113.11 155.083 126.975
  endloop
 endfacet
 facet normal -0.609288 -0.0554738 0.791006
  outer loop
   vertex 113.084 154.166 126.89
   vertex 113.495 154.41 127.225
   vertex 113.11 155.083 126.975
  endloop
 endfacet
 facet normal 0.110002 -0.106458 0.988214
  outer loop
   vertex 114.414 154.272 127.107
   vertex 114.167 155.124 127.227
   vertex 113.495 154.41 127.225
  endloop
 endfacet
 facet normal -0.0130291 0.00926507 0.999872
  outer loop
   vertex 114.167 155.124 127.227
   vertex 113.464 155.408 127.215
   vertex 113.495 154.41 127.225
  endloop
 endfacet
 facet normal 0.448609 0.00493438 0.893714
  outer loop
   vertex 114.414 154.272 127.107
   vertex 114.688 155.375 126.964
   vertex 114.167 155.124 127.227
  endloop
 endfacet
 facet normal -0.607219 -0.029764 0.793976
  outer loop
   vertex 113.464 155.408 127.215
   vertex 113.379 156.308 127.183
   vertex 112.965 156.025 126.857
  endloop
 endfacet
 facet normal -0.570864 0.0152559 0.820903
  outer loop
   vertex 113.11 155.083 126.975
   vertex 113.464 155.408 127.215
   vertex 112.965 156.025 126.857
  endloop
 endfacet
 facet normal 0.00445254 0.0524134 0.998616
  outer loop
   vertex 114.167 155.124 127.227
   vertex 114.159 156.083 127.176
   vertex 113.464 155.408 127.215
  endloop
 endfacet
 facet normal 0.019683 0.0367378 0.999131
  outer loop
   vertex 114.159 156.083 127.176
   vertex 113.379 156.308 127.183
   vertex 113.464 155.408 127.215
  endloop
 endfacet
 facet normal 0.493473 0.109237 0.862874
  outer loop
   vertex 114.688 155.375 126.964
   vertex 114.713 156.158 126.85
   vertex 114.159 156.083 127.176
  endloop
 endfacet
 facet normal 0.430362 0.0505655 0.901239
  outer loop
   vertex 114.167 155.124 127.227
   vertex 114.688 155.375 126.964
   vertex 114.159 156.083 127.176
  endloop
 endfacet
 facet normal -0.366257 0.165893 0.915606
  outer loop
   vertex 113.379 156.308 127.183
   vertex 113.521 156.903 127.133
   vertex 113.003 156.941 126.919
  endloop
 endfacet
 facet normal -0.60786 -0.0283202 0.793539
  outer loop
   vertex 112.965 156.025 126.857
   vertex 113.379 156.308 127.183
   vertex 113.003 156.941 126.919
  endloop
 endfacet
 facet normal 0.481239 0.789676 0.380553
  outer loop
   vertex 114.279 156.575 126.855
   vertex 113.319 157.25 126.669
   vertex 113.521 156.903 127.133
  endloop
 endfacet
 facet normal 0.463546 0.402604 0.789326
  outer loop
   vertex 114.279 156.575 126.855
   vertex 113.521 156.903 127.133
   vertex 114.159 156.083 127.176
  endloop
 endfacet
 facet normal 0.0314531 0.0776419 0.996485
  outer loop
   vertex 114.159 156.083 127.176
   vertex 113.521 156.903 127.133
   vertex 113.379 156.308 127.183
  endloop
 endfacet
 facet normal 0.415904 0.424102 0.804463
  outer loop
   vertex 114.713 156.158 126.85
   vertex 114.279 156.575 126.855
   vertex 114.159 156.083 127.176
  endloop
 endfacet
 facet normal -0.211987 0.735898 0.643052
  outer loop
   vertex 113.003 156.941 126.919
   vertex 113.521 156.903 127.133
   vertex 113.319 157.25 126.669
  endloop
 endfacet
endsolid
