ply
format ascii 1.0
element vertex 642
property float x
property float y
property float z
property float nx
property float ny
property float nz
element face 214
property list uint uint vertex_indices
end_header
57.0926 128.455 112.399 -0.0874686 -0.636229 -0.766526
56.94 128.02 112.778 -0.0874686 -0.636229 -0.766526
56.6512 128.342 112.543 -0.0874686 -0.636229 -0.766526
56.94 128.02 112.778 0.374845 -0.679761 -0.63041
57.0926 128.455 112.399 0.374845 -0.679761 -0.63041
57.3611 128.244 112.786 0.374845 -0.679761 -0.63041
55.3151 129.317 112.296 -0.456656 -0.358671 -0.814138
55.1424 128.868 112.59 -0.456656 -0.358671 -0.814138
54.6702 129.353 112.642 -0.456656 -0.358671 -0.814138
55.3151 129.317 112.296 -0.103017 -0.5063 -0.856182
56.3258 129.17 112.261 -0.103017 -0.5063 -0.856182
55.882 128.716 112.583 -0.103017 -0.5063 -0.856182
55.1424 128.868 112.59 -0.114233 -0.514004 -0.850148
55.3151 129.317 112.296 -0.114233 -0.514004 -0.850148
55.882 128.716 112.583 -0.114233 -0.514004 -0.850148
56.6512 128.342 112.543 -0.238085 -0.395976 -0.886859
55.882 128.716 112.583 -0.238085 -0.395976 -0.886859
56.3258 129.17 112.261 -0.238085 -0.395976 -0.886859
56.6512 128.342 112.543 -0.195826 -0.384557 -0.902091
56.3258 129.17 112.261 -0.195826 -0.384557 -0.902091
57.0926 128.455 112.399 -0.195826 -0.384557 -0.902091
57.0926 128.455 112.399 0.103207 -0.0812475 -0.991336
56.3258 129.17 112.261 0.103207 -0.0812475 -0.991336
57.1415 129.304 112.335 0.103207 -0.0812475 -0.991336
57.5795 129.023 112.756 0.735759 -0.231387 -0.63649
57.3611 128.244 112.786 0.735759 -0.231387 -0.63649
57.0926 128.455 112.399 0.735759 -0.231387 -0.63649
57.1415 129.304 112.335 0.657582 -0.0946401 -0.747415
57.5795 129.023 112.756 0.657582 -0.0946401 -0.747415
57.0926 128.455 112.399 0.657582 -0.0946401 -0.747415
55.0422 130.306 112.245 -0.472978 -0.174519 -0.863617
55.3151 129.317 112.296 -0.472978 -0.174519 -0.863617
54.6702 129.353 112.642 -0.472978 -0.174519 -0.863617
54.4257 130.296 112.537 -0.416206 -0.20585 -0.885662
55.0422 130.306 112.245 -0.416206 -0.20585 -0.885662
54.6702 129.353 112.642 -0.416206 -0.20585 -0.885662
56.3258 129.17 112.261 -0.0486863 -0.0991885 -0.993877
55.3151 129.317 112.296 -0.0486863 -0.0991885 -0.993877
55.9678 130.085 112.187 -0.0486863 -0.0991885 -0.993877
55.9678 130.085 112.187 -0.0798798 -0.072703 -0.99415
55.3151 129.317 112.296 -0.0798798 -0.072703 -0.99415
55.0422 130.306 112.245 -0.0798798 -0.072703 -0.99415
57.1415 129.304 112.335 0.0897894 0.00311621 -0.995956
56.3258 129.17 112.261 0.0897894 0.00311621 -0.995956
56.8692 130.231 112.313 0.0897894 0.00311621 -0.995956
56.8692 130.231 112.313 0.142254 -0.0240801 -0.989537
56.3258 129.17 112.261 0.142254 -0.0240801 -0.989537
55.9678 130.085 112.187 0.142254 -0.0240801 -0.989537
57.5937 130.094 112.774 0.693961 0.0029904 -0.720006
57.5795 129.023 112.756 0.693961 0.0029904 -0.720006
57.1415 129.304 112.335 0.693961 0.0029904 -0.720006
56.8692 130.231 112.313 0.550175 0.142395 -0.822819
57.5937 130.094 112.774 0.550175 0.142395 -0.822819
57.1415 129.304 112.335 0.550175 0.142395 -0.822819
54.2385 131.201 112.319 -0.567778 -0.256245 -0.782283
53.8429 130.804 112.736 -0.567778 -0.256245 -0.782283
53.7485 131.411 112.606 -0.567778 -0.256245 -0.782283
54.4257 130.296 112.537 -0.532122 -0.301189 -0.791284
53.8429 130.804 112.736 -0.532122 -0.301189 -0.791284
54.2385 131.201 112.319 -0.532122 -0.301189 -0.791284
54.4257 130.296 112.537 -0.405395 -0.293039 -0.8659
54.2385 131.201 112.319 -0.405395 -0.293039 -0.8659
55.0422 130.306 112.245 -0.405395 -0.293039 -0.8659
55.0422 130.306 112.245 -0.132862 -0.0382386 -0.990397
54.2385 131.201 112.319 -0.132862 -0.0382386 -0.990397
55.0224 131.209 112.213 -0.132862 -0.0382386 -0.990397
55.9678 130.085 112.187 -0.0428308 0.0827299 -0.995651
55.0422 130.306 112.245 -0.0428308 0.0827299 -0.995651
55.9145 131.08 112.272 -0.0428308 0.0827299 -0.995651
55.9145 131.08 112.272 0.0610399 -0.0342297 -0.997548
55.0422 130.306 112.245 0.0610399 -0.0342297 -0.997548
55.0224 131.209 112.213 0.0610399 -0.0342297 -0.997548
56.6004 131.231 112.722 0.413121 0.437808 -0.798533
57.1643 130.694 112.72 0.413121 0.437808 -0.798533
56.8692 130.231 112.313 0.413121 0.437808 -0.798533
56.6004 131.231 112.722 0.423921 0.43828 -0.792592
56.8692 130.231 112.313 0.423921 0.43828 -0.792592
55.9145 131.08 112.272 0.423921 0.43828 -0.792592
55.9145 131.08 112.272 0.123394 0.0909885 -0.988178
56.8692 130.231 112.313 0.123394 0.0909885 -0.988178
55.9678 130.085 112.187 0.123394 0.0909885 -0.988178
57.5937 130.094 112.774 0.550398 0.324628 -0.769207
56.8692 130.231 112.313 0.550398 0.324628 -0.769207
57.1643 130.694 112.72 0.550398 0.324628 -0.769207
54.0467 132.011 112.391 -0.519618 -0.0468559 -0.853113
54.2385 131.201 112.319 -0.519618 -0.0468559 -0.853113
53.7485 131.411 112.606 -0.519618 -0.0468559 -0.853113
53.7861 132.022 112.667 -0.720643 0.113424 -0.683966
54.0467 132.011 112.391 -0.720643 0.113424 -0.683966
53.7485 131.411 112.606 -0.720643 0.113424 -0.683966
55.0224 131.209 112.213 -0.132251 0.216815 -0.967213
54.2385 131.201 112.319 -0.132251 0.216815 -0.967213
55.0227 131.994 112.389 -0.132251 0.216815 -0.967213
55.0227 131.994 112.389 -0.000282041 0.0888803 -0.996042
54.2385 131.201 112.319 -0.000282041 0.0888803 -0.996042
54.0467 132.011 112.391 -0.000282041 0.0888803 -0.996042
55.0227 131.994 112.389 0.350608 0.447338 -0.822777
56.0216 131.705 112.657 0.350608 0.447338 -0.822777
55.9145 131.08 112.272 0.350608 0.447338 -0.822777
55.0227 131.994 112.389 0.0956692 0.217629 -0.971332
55.9145 131.08 112.272 0.0956692 0.217629 -0.971332
55.0224 131.209 112.213 0.0956692 0.217629 -0.971332
56.6004 131.231 112.722 0.432296 0.418509 -0.798731
55.9145 131.08 112.272 0.432296 0.418509 -0.798731
56.0216 131.705 112.657 0.432296 0.418509 -0.798731
54.0467 132.011 112.391 -0.514428 0.688463 -0.511256
53.7861 132.022 112.667 -0.514428 0.688463 -0.511256
54.2421 132.349 112.649 -0.514428 0.688463 -0.511256
55.0227 131.994 112.389 0.00914932 0.60414 -0.796826
54.0467 132.011 112.391 0.00914932 0.60414 -0.796826
54.2421 132.349 112.649 0.00914932 0.60414 -0.796826
55.1161 132.435 112.838 0.0837173 0.702244 -0.706997
55.0227 131.994 112.389 0.0837173 0.702244 -0.706997
54.2421 132.349 112.649 0.0837173 0.702244 -0.706997
55.1456 128.395 113.168 -0.506255 -0.81665 -0.277108
55.2881 128.074 113.854 -0.506255 -0.81665 -0.277108
54.6607 128.504 113.734 -0.506255 -0.81665 -0.277108
55.1456 128.395 113.168 -0.242782 -0.891132 -0.383328
56.1601 128.187 113.01 -0.242782 -0.891132 -0.383328
56.1912 127.934 113.579 -0.242782 -0.891132 -0.383328
55.2881 128.074 113.854 -0.251122 -0.895629 -0.367134
55.1456 128.395 113.168 -0.251122 -0.895629 -0.367134
56.1912 127.934 113.579 -0.251122 -0.895629 -0.367134
56.1601 128.187 113.01 -0.333748 -0.731393 -0.594707
56.6512 128.342 112.543 -0.333748 -0.731393 -0.594707
56.94 128.02 112.778 -0.333748 -0.731393 -0.594707
56.1601 128.187 113.01 -0.299473 -0.877653 -0.37422
56.94 128.02 112.778 -0.299473 -0.877653 -0.37422
56.1912 127.934 113.579 -0.299473 -0.877653 -0.37422
56.1912 127.934 113.579 0.0281384 -0.996354 -0.0805377
56.94 128.02 112.778 0.0281384 -0.996354 -0.0805377
57.0967 127.969 113.454 0.0281384 -0.996354 -0.0805377
57.0967 127.969 113.454 0.466184 -0.867711 -0.172483
56.94 128.02 112.778 0.466184 -0.867711 -0.172483
57.3611 128.244 112.786 0.466184 -0.867711 -0.172483
57.5429 128.422 113.666 0.7138 -0.700326 -0.00564091
57.0967 127.969 113.454 0.7138 -0.700326 -0.00564091
57.3611 128.244 112.786 0.7138 -0.700326 -0.00564091
54.0553 129.205 113.297 -0.738674 -0.620469 -0.2634
54.0629 129.016 113.723 -0.738674 -0.620469 -0.2634
53.6296 129.524 113.739 -0.738674 -0.620469 -0.2634
54.6607 128.504 113.734 -0.614401 -0.724663 -0.312051
54.0629 129.016 113.723 -0.614401 -0.724663 -0.312051
54.0553 129.205 113.297 -0.614401 -0.724663 -0.312051
55.1456 128.395 113.168 -0.583363 -0.72793 -0.360286
54.6607 128.504 113.734 -0.583363 -0.72793 -0.360286
54.0553 129.205 113.297 -0.583363 -0.72793 -0.360286
55.1456 128.395 113.168 -0.514809 -0.595014 -0.617195
54.0553 129.205 113.297 -0.514809 -0.595014 -0.617195
54.6702 129.353 112.642 -0.514809 -0.595014 -0.617195
55.1456 128.395 113.168 -0.654424 -0.587006 -0.476606
54.6702 129.353 112.642 -0.654424 -0.587006 -0.476606
55.1424 128.868 112.59 -0.654424 -0.587006 -0.476606
55.882 128.716 112.583 -0.163132 -0.764073 -0.624163
55.1456 128.395 113.168 -0.163132 -0.764073 -0.624163
55.1424 128.868 112.59 -0.163132 -0.764073 -0.624163
56.1601 128.187 113.01 -0.247425 -0.684002 -0.686237
55.1456 128.395 113.168 -0.247425 -0.684002 -0.686237
55.882 128.716 112.583 -0.247425 -0.684002 -0.686237
56.6512 128.342 112.543 -0.368846 -0.693435 -0.618951
56.1601 128.187 113.01 -0.368846 -0.693435 -0.618951
55.882 128.716 112.583 -0.368846 -0.693435 -0.618951
58.0996 129.018 113.465 0.755516 -0.34587 -0.55639
57.5795 129.023 112.756 0.755516 -0.34587 -0.55639
58.1548 129.457 113.267 0.755516 -0.34587 -0.55639
58.0996 129.018 113.465 0.581946 -0.689385 -0.431378
57.5429 128.422 113.666 0.581946 -0.689385 -0.431378
57.5795 129.023 112.756 0.581946 -0.689385 -0.431378
57.5429 128.422 113.666 0.951683 -0.272544 -0.14149
57.3611 128.244 112.786 0.951683 -0.272544 -0.14149
57.5795 129.023 112.756 0.951683 -0.272544 -0.14149
58.0996 129.018 113.465 0.895466 -0.27165 -0.352628
58.1548 129.457 113.267 0.895466 -0.27165 -0.352628
58.3493 129.472 113.749 0.895466 -0.27165 -0.352628
53.2056 130.189 113.345 -0.365833 -0.753885 -0.545732
53.0333 130.045 113.658 -0.365833 -0.753885 -0.545732
52.8135 130.228 113.553 -0.365833 -0.753885 -0.545732
53.6296 129.524 113.739 -0.494791 -0.654909 -0.571206
53.0333 130.045 113.658 -0.494791 -0.654909 -0.571206
53.2056 130.189 113.345 -0.494791 -0.654909 -0.571206
53.6296 129.524 113.739 -0.737004 -0.624278 -0.259042
53.2056 130.189 113.345 -0.737004 -0.624278 -0.259042
54.0553 129.205 113.297 -0.737004 -0.624278 -0.259042
54.0553 129.205 113.297 -0.429174 -0.32991 -0.840814
53.2056 130.189 113.345 -0.429174 -0.32991 -0.840814
53.9683 130.048 113.011 -0.429174 -0.32991 -0.840814
54.6702 129.353 112.642 -0.629802 -0.244821 -0.737165
53.9683 130.048 113.011 -0.629802 -0.244821 -0.737165
54.4257 130.296 112.537 -0.629802 -0.244821 -0.737165
54.0553 129.205 113.297 -0.660237 -0.301794 -0.687755
53.9683 130.048 113.011 -0.660237 -0.301794 -0.687755
54.6702 129.353 112.642 -0.660237 -0.301794 -0.687755
58.1548 129.457 113.267 0.674156 0.0220105 -0.738261
57.5937 130.094 112.774 0.674156 0.0220105 -0.738261
58.1694 130.081 113.299 0.674156 0.0220105 -0.738261
57.5795 129.023 112.756 0.662807 0.00389167 -0.74878
57.5937 130.094 112.774 0.662807 0.00389167 -0.74878
58.1548 129.457 113.267 0.662807 0.00389167 -0.74878
58.3663 130.018 113.605 0.921366 -0.125662 -0.367823
58.3493 129.472 113.749 0.921366 -0.125662 -0.367823
58.1548 129.457 113.267 0.921366 -0.125662 -0.367823
58.1694 130.081 113.299 0.841567 0.00796005 -0.540095
58.3663 130.018 113.605 0.841567 0.00796005 -0.540095
58.1548 129.457 113.267 0.841567 0.00796005 -0.540095
53.2056 130.189 113.345 -0.441066 0.214392 -0.871491
52.8135 130.228 113.553 -0.441066 0.214392 -0.871491
52.9709 130.462 113.531 -0.441066 0.214392 -0.871491
53.8429 130.804 112.736 -0.957246 -0.19475 -0.2139
53.6081 131.185 113.44 -0.957246 -0.19475 -0.2139
53.7485 131.411 112.606 -0.957246 -0.19475 -0.2139
53.8429 130.804 112.736 -0.803045 0.369288 -0.467701
53.2056 130.189 113.345 -0.803045 0.369288 -0.467701
53.6081 131.185 113.44 -0.803045 0.369288 -0.467701
53.8429 130.804 112.736 -0.429197 -0.370391 -0.823772
53.9683 130.048 113.011 -0.429197 -0.370391 -0.823772
53.2056 130.189 113.345 -0.429197 -0.370391 -0.823772
53.2056 130.189 113.345 -0.407033 0.248675 -0.878911
52.9709 130.462 113.531 -0.407033 0.248675 -0.878911
53.6081 131.185 113.44 -0.407033 0.248675 -0.878911
54.4257 130.296 112.537 -0.567844 -0.362571 -0.738983
53.9683 130.048 113.011 -0.567844 -0.362571 -0.738983
53.8429 130.804 112.736 -0.567844 -0.362571 -0.738983
57.1643 130.694 112.72 0.562739 0.59391 -0.574975
56.6004 131.231 112.722 0.562739 0.59391 -0.574975
57.1124 131.171 113.162 0.562739 0.59391 -0.574975
57.1643 130.694 112.72 0.708201 0.519742 -0.477828
57.1124 131.171 113.162 0.708201 0.519742 -0.477828
57.422 131.003 113.438 0.708201 0.519742 -0.477828
57.5937 130.094 112.774 0.736137 0.484447 -0.472666
57.1643 130.694 112.72 0.736137 0.484447 -0.472666
57.422 131.003 113.438 0.736137 0.484447 -0.472666
57.5937 130.094 112.774 0.631614 0.531647 -0.564282
57.422 131.003 113.438 0.631614 0.531647 -0.564282
58.0411 130.457 113.616 0.631614 0.531647 -0.564282
57.5937 130.094 112.774 0.522413 0.646699 -0.555756
58.0411 130.457 113.616 0.522413 0.646699 -0.555756
58.1694 130.081 113.299 0.522413 0.646699 -0.555756
58.3663 130.018 113.605 0.743711 0.560668 -0.364067
58.1694 130.081 113.299 0.743711 0.560668 -0.364067
58.0411 130.457 113.616 0.743711 0.560668 -0.364067
53.6081 131.185 113.44 -0.751238 0.526801 0.397647
54.0109 132.136 112.941 -0.751238 0.526801 0.397647
53.7861 132.022 112.667 -0.751238 0.526801 0.397647
53.6081 131.185 113.44 -0.986469 0.0753102 -0.145625
53.7861 132.022 112.667 -0.986469 0.0753102 -0.145625
53.7485 131.411 112.606 -0.986469 0.0753102 -0.145625
53.6081 131.185 113.44 -0.594885 0.556313 0.580196
54.8161 132.305 113.605 -0.594885 0.556313 0.580196
54.0109 132.136 112.941 -0.594885 0.556313 0.580196
56.0216 131.705 112.657 0.366631 0.635094 -0.679881
55.0227 131.994 112.389 0.366631 0.635094 -0.679881
55.8477 132.222 113.047 0.366631 0.635094 -0.679881
56.0216 131.705 112.657 0.592824 0.601985 -0.534951
55.8477 132.222 113.047 0.592824 0.601985 -0.534951
56.3667 132.036 113.413 0.592824 0.601985 -0.534951
56.6004 131.231 112.722 0.570598 0.623645 -0.534308
56.0216 131.705 112.657 0.570598 0.623645 -0.534308
56.3667 132.036 113.413 0.570598 0.623645 -0.534308
56.6004 131.231 112.722 0.651364 0.593885 -0.472257
56.3667 132.036 113.413 0.651364 0.593885 -0.472257
56.9946 131.5 113.605 0.651364 0.593885 -0.472257
56.6004 131.231 112.722 0.469276 0.763988 -0.442835
56.9946 131.5 113.605 0.469276 0.763988 -0.442835
57.1124 131.171 113.162 0.469276 0.763988 -0.442835
57.422 131.003 113.438 0.659194 0.67685 -0.327625
57.1124 131.171 113.162 0.659194 0.67685 -0.327625
56.9946 131.5 113.605 0.659194 0.67685 -0.327625
53.7861 132.022 112.667 -0.574319 0.807289 0.135803
54.0109 132.136 112.941 -0.574319 0.807289 0.135803
54.2421 132.349 112.649 -0.574319 0.807289 0.135803
54.0109 132.136 112.941 -0.421922 0.857818 0.293479
54.8161 132.305 113.605 -0.421922 0.857818 0.293479
54.2421 132.349 112.649 -0.421922 0.857818 0.293479
54.2421 132.349 112.649 -0.122919 0.985165 0.119756
54.8161 132.305 113.605 -0.122919 0.985165 0.119756
55.1161 132.435 112.838 -0.122919 0.985165 0.119756
55.8477 132.222 113.047 0.376874 0.620538 -0.687677
55.0227 131.994 112.389 0.376874 0.620538 -0.687677
55.1161 132.435 112.838 0.376874 0.620538 -0.687677
55.8477 132.222 113.047 0.351023 0.872467 -0.339976
55.1161 132.435 112.838 0.351023 0.872467 -0.339976
55.8969 132.423 113.614 0.351023 0.872467 -0.339976
55.8969 132.423 113.614 -0.109323 0.986086 0.125234
55.1161 132.435 112.838 -0.109323 0.986086 0.125234
54.8161 132.305 113.605 -0.109323 0.986086 0.125234
56.3667 132.036 113.413 0.514094 0.793341 -0.326063
55.8477 132.222 113.047 0.514094 0.793341 -0.326063
55.8969 132.423 113.614 0.514094 0.793341 -0.326063
55.6384 128.176 114.588 -0.406783 -0.858012 0.313597
55.2881 128.074 113.854 -0.406783 -0.858012 0.313597
56.0533 127.966 114.552 -0.406783 -0.858012 0.313597
56.0533 127.966 114.552 -0.150053 -0.988606 0.0119209
55.2881 128.074 113.854 -0.150053 -0.988606 0.0119209
56.1912 127.934 113.579 -0.150053 -0.988606 0.0119209
57.0967 127.969 113.454 0.0451731 -0.998051 0.0430497
56.9464 128.004 114.42 0.0451731 -0.998051 0.0430497
56.1912 127.934 113.579 0.0451731 -0.998051 0.0430497
56.1912 127.934 113.579 0.0481903 -0.998023 0.0403385
56.9464 128.004 114.42 0.0481903 -0.998023 0.0403385
56.0533 127.966 114.552 0.0481903 -0.998023 0.0403385
56.9464 128.004 114.42 0.675042 -0.726007 0.131272
57.0967 127.969 113.454 0.675042 -0.726007 0.131272
57.5429 128.422 113.666 0.675042 -0.726007 0.131272
57.3487 128.43 114.704 0.675204 -0.725814 0.131507
56.9464 128.004 114.42 0.675204 -0.725814 0.131507
57.5429 128.422 113.666 0.675204 -0.725814 0.131507
54.0629 129.016 113.723 -0.672242 -0.586598 0.451656
53.9892 129.343 114.038 -0.672242 -0.586598 0.451656
53.6296 129.524 113.739 -0.672242 -0.586598 0.451656
54.0629 129.016 113.723 -0.608565 -0.617392 0.498472
54.5252 129.231 114.554 -0.608565 -0.617392 0.498472
53.9892 129.343 114.038 -0.608565 -0.617392 0.498472
54.6607 128.504 113.734 -0.572453 -0.658179 0.488976
54.5252 129.231 114.554 -0.572453 -0.658179 0.488976
54.0629 129.016 113.723 -0.572453 -0.658179 0.488976
54.6607 128.504 113.734 -0.688609 -0.595305 0.414042
55.0804 128.666 114.664 -0.688609 -0.595305 0.414042
54.5252 129.231 114.554 -0.688609 -0.595305 0.414042
54.6607 128.504 113.734 -0.570786 -0.725959 0.38365
55.2881 128.074 113.854 -0.570786 -0.725959 0.38365
55.0804 128.666 114.664 -0.570786 -0.725959 0.38365
55.6384 128.176 114.588 -0.580735 -0.721208 0.377632
55.0804 128.666 114.664 -0.580735 -0.721208 0.377632
55.2881 128.074 113.854 -0.580735 -0.721208 0.377632
58.0875 129.178 113.916 0.748175 -0.618573 0.240003
57.5429 128.422 113.666 0.748175 -0.618573 0.240003
58.0996 129.018 113.465 0.748175 -0.618573 0.240003
58.0875 129.178 113.916 0.636417 -0.613353 0.46773
57.5943 129.19 114.602 0.636417 -0.613353 0.46773
57.5429 128.422 113.666 0.636417 -0.613353 0.46773
57.5943 129.19 114.602 0.943002 -0.280904 0.178439
57.3487 128.43 114.704 0.943002 -0.280904 0.178439
57.5429 128.422 113.666 0.943002 -0.280904 0.178439
58.0996 129.018 113.465 0.787594 -0.573614 0.225082
58.3493 129.472 113.749 0.787594 -0.573614 0.225082
58.0875 129.178 113.916 0.787594 -0.573614 0.225082
53.0333 130.045 113.658 -0.562653 -0.213729 0.798587
53.0102 130.352 113.724 -0.562653 -0.213729 0.798587
52.8135 130.228 113.553 -0.562653 -0.213729 0.798587
53.0333 130.045 113.658 -0.671661 -0.203411 0.712387
53.5237 130.332 114.203 -0.671661 -0.203411 0.712387
53.0102 130.352 113.724 -0.671661 -0.203411 0.712387
53.6296 129.524 113.739 -0.512733 -0.477391 0.713585
53.5237 130.332 114.203 -0.512733 -0.477391 0.713585
53.0333 130.045 113.658 -0.512733 -0.477391 0.713585
53.6296 129.524 113.739 -0.700938 -0.422305 0.574756
54.0282 130.221 114.737 -0.700938 -0.422305 0.574756
53.5237 130.332 114.203 -0.700938 -0.422305 0.574756
53.6296 129.524 113.739 -0.695999 -0.42785 0.576654
53.9892 129.343 114.038 -0.695999 -0.42785 0.576654
54.0282 130.221 114.737 -0.695999 -0.42785 0.576654
54.5252 129.231 114.554 -0.667521 -0.44518 0.59685
54.0282 130.221 114.737 -0.667521 -0.44518 0.59685
53.9892 129.343 114.038 -0.667521 -0.44518 0.59685
58.0875 129.178 113.916 0.748731 -0.378092 0.54447
58.0316 129.999 114.563 0.748731 -0.378092 0.54447
57.5943 129.19 114.602 0.748731 -0.378092 0.54447
58.0316 129.999 114.563 0.758095 -0.371026 0.536313
58.0875 129.178 113.916 0.758095 -0.371026 0.536313
58.3493 129.472 113.749 0.758095 -0.371026 0.536313
58.0316 129.999 114.563 0.869545 -0.183608 0.458454
58.3493 129.472 113.749 0.869545 -0.183608 0.458454
58.2569 130.226 114.226 0.869545 -0.183608 0.458454
58.2569 130.226 114.226 0.985537 0.0138253 0.168893
58.3493 129.472 113.749 0.985537 0.0138253 0.168893
58.3663 130.018 113.605 0.985537 0.0138253 0.168893
52.8135 130.228 113.553 -0.722339 0.528777 0.445669
53.0102 130.352 113.724 -0.722339 0.528777 0.445669
52.9709 130.462 113.531 -0.722339 0.528777 0.445669
53.0102 130.352 113.724 -0.629644 0.614478 0.475358
53.6081 131.185 113.44 -0.629644 0.614478 0.475358
52.9709 130.462 113.531 -0.629644 0.614478 0.475358
53.0102 130.352 113.724 -0.537081 0.59118 0.601706
53.5237 130.332 114.203 -0.537081 0.59118 0.601706
53.6081 131.185 113.44 -0.537081 0.59118 0.601706
53.5237 130.332 114.203 -0.881866 0.359777 0.304751
54.0487 131.279 114.604 -0.881866 0.359777 0.304751
53.6081 131.185 113.44 -0.881866 0.359777 0.304751
58.0411 130.457 113.616 0.667214 0.743516 0.0448205
57.3152 131.052 114.55 0.667214 0.743516 0.0448205
58.2569 130.226 114.226 0.667214 0.743516 0.0448205
57.422 131.003 113.438 0.656603 0.753634 0.0301312
57.3152 131.052 114.55 0.656603 0.753634 0.0301312
58.0411 130.457 113.616 0.656603 0.753634 0.0301312
58.2569 130.226 114.226 0.801148 0.59561 -0.0584012
58.3663 130.018 113.605 0.801148 0.59561 -0.0584012
58.0411 130.457 113.616 0.801148 0.59561 -0.0584012
54.0487 131.279 114.604 -0.680626 0.70461 0.200681
54.8161 132.305 113.605 -0.680626 0.70461 0.200681
53.6081 131.185 113.44 -0.680626 0.70461 0.200681
55.1479 132.254 114.782 -0.667329 0.711996 0.218481
54.8161 132.305 113.605 -0.667329 0.711996 0.218481
54.0487 131.279 114.604 -0.667329 0.711996 0.218481
56.9946 131.5 113.605 0.752091 0.656648 0.0563333
56.4457 132.055 114.461 0.752091 0.656648 0.0563333
57.3152 131.052 114.55 0.752091 0.656648 0.0563333
56.3667 132.036 113.413 0.659233 0.749272 -0.0632745
56.4457 132.055 114.461 0.659233 0.749272 -0.0632745
56.9946 131.5 113.605 0.659233 0.749272 -0.0632745
57.3152 131.052 114.55 0.764827 0.642635 0.0453712
57.422 131.003 113.438 0.764827 0.642635 0.0453712
56.9946 131.5 113.605 0.764827 0.642635 0.0453712
55.8969 132.423 113.614 -0.109095 0.994024 -0.00369852
54.8161 132.305 113.605 -0.109095 0.994024 -0.00369852
55.893 132.427 114.562 -0.109095 0.994024 -0.00369852
54.8161 132.305 113.605 -0.196704 0.975635 0.0971823
55.1479 132.254 114.782 -0.196704 0.975635 0.0971823
55.893 132.427 114.562 -0.196704 0.975635 0.0971823
56.4457 132.055 114.461 0.619019 0.783015 -0.0608495
56.3667 132.036 113.413 0.619019 0.783015 -0.0608495
55.8969 132.423 113.614 0.619019 0.783015 -0.0608495
55.893 132.427 114.562 0.557422 0.830229 -0.00040681
56.4457 132.055 114.461 0.557422 0.830229 -0.00040681
55.8969 132.423 113.614 0.557422 0.830229 -0.00040681
56.0533 127.966 114.552 -0.326535 -0.912429 0.246674
56.3006 128.081 115.305 -0.326535 -0.912429 0.246674
55.7913 128.257 115.281 -0.326535 -0.912429 0.246674
55.6384 128.176 114.588 -0.428703 -0.881559 0.197653
56.0533 127.966 114.552 -0.428703 -0.881559 0.197653
55.7913 128.257 115.281 -0.428703 -0.881559 0.197653
56.9799 128.219 115.017 0.378179 -0.759782 0.528878
56.5401 128.358 115.531 0.378179 -0.759782 0.528878
56.3006 128.081 115.305 0.378179 -0.759782 0.528878
56.9799 128.219 115.017 0.312263 -0.899217 0.306433
56.3006 128.081 115.305 0.312263 -0.899217 0.306433
56.9464 128.004 114.42 0.312263 -0.899217 0.306433
56.9464 128.004 114.42 0.0612249 -0.989482 0.131061
56.3006 128.081 115.305 0.0612249 -0.989482 0.131061
56.0533 127.966 114.552 0.0612249 -0.989482 0.131061
56.9464 128.004 114.42 0.624125 -0.745582 0.233613
57.3487 128.43 114.704 0.624125 -0.745582 0.233613
56.9799 128.219 115.017 0.624125 -0.745582 0.233613
55.0804 128.666 114.664 -0.728682 -0.63862 0.247359
55.241 128.803 115.492 -0.728682 -0.63862 0.247359
54.8452 129.21 115.378 -0.728682 -0.63862 0.247359
54.5252 129.231 114.554 -0.713818 -0.649924 0.260889
55.0804 128.666 114.664 -0.713818 -0.649924 0.260889
54.8452 129.21 115.378 -0.713818 -0.649924 0.260889
55.7913 128.257 115.281 -0.624845 -0.747563 0.225206
55.0804 128.666 114.664 -0.624845 -0.747563 0.225206
55.6384 128.176 114.588 -0.624845 -0.747563 0.225206
55.241 128.803 115.492 -0.633828 -0.73374 0.244721
55.0804 128.666 114.664 -0.633828 -0.73374 0.244721
55.7913 128.257 115.281 -0.633828 -0.73374 0.244721
56.9799 128.219 115.017 0.522158 -0.597784 0.60828
57.1074 128.736 115.415 0.522158 -0.597784 0.60828
56.5401 128.358 115.531 0.522158 -0.597784 0.60828
57.1074 128.736 115.415 0.703325 -0.534708 0.468424
56.9799 128.219 115.017 0.703325 -0.534708 0.468424
57.3487 128.43 114.704 0.703325 -0.534708 0.468424
57.1074 128.736 115.415 0.832982 -0.346463 0.431398
57.3487 128.43 114.704 0.832982 -0.346463 0.431398
57.3247 129.243 115.403 0.832982 -0.346463 0.431398
57.3247 129.243 115.403 0.912111 -0.251512 0.323722
57.3487 128.43 114.704 0.912111 -0.251512 0.323722
57.5943 129.19 114.602 0.912111 -0.251512 0.323722
54.0282 130.221 114.737 -0.7149 -0.456553 0.529601
54.5252 129.231 114.554 -0.7149 -0.456553 0.529601
54.7037 130.119 115.561 -0.7149 -0.456553 0.529601
54.5252 129.231 114.554 -0.912682 -0.212311 0.349192
54.8452 129.21 115.378 -0.912682 -0.212311 0.349192
54.7037 130.119 115.561 -0.912682 -0.212311 0.349192
58.0316 129.999 114.563 0.697939 -0.346638 0.626677
57.458 130.061 115.236 0.697939 -0.346638 0.626677
57.5943 129.19 114.602 0.697939 -0.346638 0.626677
57.458 130.061 115.236 0.942349 -0.0875321 0.322982
57.3247 129.243 115.403 0.942349 -0.0875321 0.322982
57.5943 129.19 114.602 0.942349 -0.0875321 0.322982
54.0282 130.221 114.737 -0.99811 0.0262669 0.0555499
54.0611 131.015 114.953 -0.99811 0.0262669 0.0555499
54.0487 131.279 114.604 -0.99811 0.0262669 0.0555499
53.5237 130.332 114.203 -0.712711 0.101128 0.69413
54.0282 130.221 114.737 -0.712711 0.101128 0.69413
54.0487 131.279 114.604 -0.712711 0.101128 0.69413
54.5608 131.081 115.531 -0.775582 -0.0958615 0.623926
54.0282 130.221 114.737 -0.775582 -0.0958615 0.623926
54.7037 130.119 115.561 -0.775582 -0.0958615 0.623926
54.0611 131.015 114.953 -0.739558 -0.148332 0.656545
54.0282 130.221 114.737 -0.739558 -0.148332 0.656545
54.5608 131.081 115.531 -0.739558 -0.148332 0.656545
57.3152 131.052 114.55 0.733356 0.373346 0.568157
56.4446 131.419 115.433 0.733356 0.373346 0.568157
56.8877 130.204 115.659 0.733356 0.373346 0.568157
57.458 130.061 115.236 0.590543 0.514967 0.621343
57.3152 131.052 114.55 0.590543 0.514967 0.621343
56.8877 130.204 115.659 0.590543 0.514967 0.621343
58.0316 129.999 114.563 0.690494 0.476192 0.544481
57.3152 131.052 114.55 0.690494 0.476192 0.544481
57.458 130.061 115.236 0.690494 0.476192 0.544481
58.0316 129.999 114.563 0.600007 0.416229 0.683187
58.2569 130.226 114.226 0.600007 0.416229 0.683187
57.3152 131.052 114.55 0.600007 0.416229 0.683187
54.0487 131.279 114.604 -0.646391 0.657534 0.387077
54.924 131.625 115.477 -0.646391 0.657534 0.387077
55.1479 132.254 114.782 -0.646391 0.657534 0.387077
54.0487 131.279 114.604 -0.69892 0.515009 0.496263
54.5608 131.081 115.531 -0.69892 0.515009 0.496263
54.924 131.625 115.477 -0.69892 0.515009 0.496263
54.0487 131.279 114.604 -0.635066 0.605022 0.48025
54.0611 131.015 114.953 -0.635066 0.605022 0.48025
54.5608 131.081 115.531 -0.635066 0.605022 0.48025
54.924 131.625 115.477 -0.490221 0.718834 0.492911
55.6553 132.018 115.631 -0.490221 0.718834 0.492911
55.1479 132.254 114.782 -0.490221 0.718834 0.492911
57.3152 131.052 114.55 0.672508 0.618904 0.405822
56.4457 132.055 114.461 0.672508 0.618904 0.405822
56.4446 131.419 115.433 0.672508 0.618904 0.405822
56.4457 132.055 114.461 0.939709 0.285646 0.188027
56.2347 132.178 115.33 0.939709 0.285646 0.188027
56.4446 131.419 115.433 0.939709 0.285646 0.188027
55.1479 132.254 114.782 -0.457367 0.74776 0.481322
55.6553 132.018 115.631 -0.457367 0.74776 0.481322
55.9312 132.355 115.371 -0.457367 0.74776 0.481322
55.1479 132.254 114.782 -0.197099 0.975683 0.0958851
55.9312 132.355 115.371 -0.197099 0.975683 0.0958851
55.893 132.427 114.562 -0.197099 0.975683 0.0958851
56.2347 132.178 115.33 0.559823 0.828384 0.0194401
56.4457 132.055 114.461 0.559823 0.828384 0.0194401
55.893 132.427 114.562 0.559823 0.828384 0.0194401
55.9312 132.355 115.371 0.508712 0.859351 0.0522266
56.2347 132.178 115.33 0.508712 0.859351 0.0522266
55.893 132.427 114.562 0.508712 0.859351 0.0522266
56.3006 128.081 115.305 -0.283488 -0.738922 0.611253
56.0387 128.497 115.686 -0.283488 -0.738922 0.611253
55.7913 128.257 115.281 -0.283488 -0.738922 0.611253
56.3006 128.081 115.305 0.0497488 -0.657728 0.751611
56.5401 128.358 115.531 0.0497488 -0.657728 0.751611
56.0387 128.497 115.686 0.0497488 -0.657728 0.751611
55.241 128.803 115.492 -0.581168 -0.360126 0.729762
55.2703 129.357 115.789 -0.581168 -0.360126 0.729762
54.8452 129.21 115.378 -0.581168 -0.360126 0.729762
55.241 128.803 115.492 -0.405994 -0.65558 0.636698
55.7913 128.257 115.281 -0.405994 -0.65558 0.636698
56.0387 128.497 115.686 -0.405994 -0.65558 0.636698
55.241 128.803 115.492 -0.364199 -0.424654 0.828872
56.0387 128.497 115.686 -0.364199 -0.424654 0.828872
55.2703 129.357 115.789 -0.364199 -0.424654 0.828872
55.2703 129.357 115.789 -0.0437979 -0.157115 0.986609
56.0387 128.497 115.686 -0.0437979 -0.157115 0.986609
56.1926 129.327 115.825 -0.0437979 -0.157115 0.986609
56.5401 128.358 115.531 0.441891 -0.420805 0.792247
57.1074 128.736 115.415 0.441891 -0.420805 0.792247
56.8827 129.075 115.721 0.441891 -0.420805 0.792247
56.5401 128.358 115.531 0.191839 -0.335715 0.922222
56.8827 129.075 115.721 0.191839 -0.335715 0.922222
56.0387 128.497 115.686 0.191839 -0.335715 0.922222
56.0387 128.497 115.686 0.0825155 -0.179487 0.980294
56.8827 129.075 115.721 0.0825155 -0.179487 0.980294
56.1926 129.327 115.825 0.0825155 -0.179487 0.980294
57.1074 128.736 115.415 0.625945 -0.250444 0.738559
57.3247 129.243 115.403 0.625945 -0.250444 0.738559
56.8827 129.075 115.721 0.625945 -0.250444 0.738559
55.2703 129.357 115.789 -0.593988 -0.20922 0.776792
55.1866 130.384 116.001 -0.593988 -0.20922 0.776792
54.7037 130.119 115.561 -0.593988 -0.20922 0.776792
54.8452 129.21 115.378 -0.6283 -0.24632 0.737947
55.2703 129.357 115.789 -0.6283 -0.24632 0.737947
54.7037 130.119 115.561 -0.6283 -0.24632 0.737947
56.1926 129.327 115.825 -0.0414525 -0.0715672 0.996574
55.9634 130.113 115.872 -0.0414525 -0.0715672 0.996574
55.2703 129.357 115.789 -0.0414525 -0.0715672 0.996574
55.9634 130.113 115.872 0.0950057 -0.194394 0.976312
55.1866 130.384 116.001 0.0950057 -0.194394 0.976312
55.2703 129.357 115.789 0.0950057 -0.194394 0.976312
56.8827 129.075 115.721 0.168153 0.052918 0.984339
56.8877 130.204 115.659 0.168153 0.052918 0.984339
56.1926 129.327 115.825 0.168153 0.052918 0.984339
56.8877 130.204 115.659 0.223657 0.0070839 0.974642
55.9634 130.113 115.872 0.223657 0.0070839 0.974642
56.1926 129.327 115.825 0.223657 0.0070839 0.974642
57.3247 129.243 115.403 0.605111 0.0636649 0.793592
57.458 130.061 115.236 0.605111 0.0636649 0.793592
56.8877 130.204 115.659 0.605111 0.0636649 0.793592
56.8827 129.075 115.721 0.572454 0.0420883 0.818856
57.3247 129.243 115.403 0.572454 0.0420883 0.818856
56.8877 130.204 115.659 0.572454 0.0420883 0.818856
55.1866 130.384 116.001 -0.326591 -0.556599 0.763895
55.1499 131.031 116.457 -0.326591 -0.556599 0.763895
54.8799 131.02 116.334 -0.326591 -0.556599 0.763895
55.1866 130.384 116.001 -0.36652 -0.563537 0.74033
54.8799 131.02 116.334 -0.36652 -0.563537 0.74033
54.7037 130.119 115.561 -0.36652 -0.563537 0.74033
54.7037 130.119 115.561 -0.925066 -0.126402 0.358154
54.8799 131.02 116.334 -0.925066 -0.126402 0.358154
54.5608 131.081 115.531 -0.925066 -0.126402 0.358154
55.1499 131.031 116.457 0.56297 -0.456544 0.688936
55.8812 131.163 115.947 0.56297 -0.456544 0.688936
55.2611 131.234 116.501 0.56297 -0.456544 0.688936
55.1499 131.031 116.457 0.563395 -0.454165 0.69016
55.1866 130.384 116.001 0.563395 -0.454165 0.69016
55.8812 131.163 115.947 0.563395 -0.454165 0.69016
55.1866 130.384 116.001 0.144036 -0.0592544 0.987797
55.9634 130.113 115.872 0.144036 -0.0592544 0.987797
55.8812 131.163 115.947 0.144036 -0.0592544 0.987797
56.8877 130.204 115.659 0.54418 0.341312 0.766403
56.4446 131.419 115.433 0.54418 0.341312 0.766403
55.8812 131.163 115.947 0.54418 0.341312 0.766403
56.8877 130.204 115.659 0.228836 -0.0514952 0.972102
55.8812 131.163 115.947 0.228836 -0.0514952 0.972102
55.9634 130.113 115.872 0.228836 -0.0514952 0.972102
54.5608 131.081 115.531 -0.774099 0.529223 0.34741
54.8799 131.02 116.334 -0.774099 0.529223 0.34741
55.1202 131.405 116.283 -0.774099 0.529223 0.34741
54.924 131.625 115.477 -0.768013 0.545234 0.335971
54.5608 131.081 115.531 -0.768013 0.545234 0.335971
55.1202 131.405 116.283 -0.768013 0.545234 0.335971
55.6553 132.018 115.631 -0.119339 0.315626 0.941349
55.8812 131.163 115.947 -0.119339 0.315626 0.941349
56.0826 132.023 115.684 -0.119339 0.315626 0.941349
55.6553 132.018 115.631 0.474651 0.412168 0.777704
55.1202 131.405 116.283 0.474651 0.412168 0.777704
55.8812 131.163 115.947 0.474651 0.412168 0.777704
55.6553 132.018 115.631 -0.499756 0.796903 0.339396
54.924 131.625 115.477 -0.499756 0.796903 0.339396
55.1202 131.405 116.283 -0.499756 0.796903 0.339396
55.1202 131.405 116.283 0.426465 0.824908 0.371017
55.2611 131.234 116.501 0.426465 0.824908 0.371017
55.8812 131.163 115.947 0.426465 0.824908 0.371017
56.4446 131.419 115.433 0.825172 0.293839 0.482442
56.2347 132.178 115.33 0.825172 0.293839 0.482442
56.0826 132.023 115.684 0.825172 0.293839 0.482442
55.8812 131.163 115.947 0.652611 0.0775958 0.753709
56.4446 131.419 115.433 0.652611 0.0775958 0.753709
56.0826 132.023 115.684 0.652611 0.0775958 0.753709
55.6553 132.018 115.631 -0.0994173 0.659064 0.745487
56.0826 132.023 115.684 -0.0994173 0.659064 0.745487
55.9312 132.355 115.371 -0.0994173 0.659064 0.745487
56.2347 132.178 115.33 0.482594 0.707896 0.515738
55.9312 132.355 115.371 0.482594 0.707896 0.515738
56.0826 132.023 115.684 0.482594 0.707896 0.515738
55.1499 131.031 116.457 -0.25856 -0.731788 0.630582
55.0426 131.22 116.632 -0.25856 -0.731788 0.630582
54.8799 131.02 116.334 -0.25856 -0.731788 0.630582
55.1499 131.031 116.457 0.485982 -0.429866 0.760944
55.2611 131.234 116.501 0.485982 -0.429866 0.760944
55.0426 131.22 116.632 0.485982 -0.429866 0.760944
54.8799 131.02 116.334 -0.838323 0.536326 0.0978161
55.0426 131.22 116.632 -0.838323 0.536326 0.0978161
55.1202 131.405 116.283 -0.838323 0.536326 0.0978161
55.2611 131.234 116.501 0.24409 0.833517 0.495651
55.1202 131.405 116.283 0.24409 0.833517 0.495651
55.0426 131.22 116.632 0.24409 0.833517 0.495651
3 0 1 2
3 3 4 5
3 6 7 8
3 9 10 11
3 12 13 14
3 15 16 17
3 18 19 20
3 21 22 23
3 24 25 26
3 27 28 29
3 30 31 32
3 33 34 35
3 36 37 38
3 39 40 41
3 42 43 44
3 45 46 47
3 48 49 50
3 51 52 53
3 54 55 56
3 57 58 59
3 60 61 62
3 63 64 65
3 66 67 68
3 69 70 71
3 72 73 74
3 75 76 77
3 78 79 80
3 81 82 83
3 84 85 86
3 87 88 89
3 90 91 92
3 93 94 95
3 96 97 98
3 99 100 101
3 102 103 104
3 105 106 107
3 108 109 110
3 111 112 113
3 114 115 116
3 117 118 119
3 120 121 122
3 123 124 125
3 126 127 128
3 129 130 131
3 132 133 134
3 135 136 137
3 138 139 140
3 141 142 143
3 144 145 146
3 147 148 149
3 150 151 152
3 153 154 155
3 156 157 158
3 159 160 161
3 162 163 164
3 165 166 167
3 168 169 170
3 171 172 173
3 174 175 176
3 177 178 179
3 180 181 182
3 183 184 185
3 186 187 188
3 189 190 191
3 192 193 194
3 195 196 197
3 198 199 200
3 201 202 203
3 204 205 206
3 207 208 209
3 210 211 212
3 213 214 215
3 216 217 218
3 219 220 221
3 222 223 224
3 225 226 227
3 228 229 230
3 231 232 233
3 234 235 236
3 237 238 239
3 240 241 242
3 243 244 245
3 246 247 248
3 249 250 251
3 252 253 254
3 255 256 257
3 258 259 260
3 261 262 263
3 264 265 266
3 267 268 269
3 270 271 272
3 273 274 275
3 276 277 278
3 279 280 281
3 282 283 284
3 285 286 287
3 288 289 290
3 291 292 293
3 294 295 296
3 297 298 299
3 300 301 302
3 303 304 305
3 306 307 308
3 309 310 311
3 312 313 314
3 315 316 317
3 318 319 320
3 321 322 323
3 324 325 326
3 327 328 329
3 330 331 332
3 333 334 335
3 336 337 338
3 339 340 341
3 342 343 344
3 345 346 347
3 348 349 350
3 351 352 353
3 354 355 356
3 357 358 359
3 360 361 362
3 363 364 365
3 366 367 368
3 369 370 371
3 372 373 374
3 375 376 377
3 378 379 380
3 381 382 383
3 384 385 386
3 387 388 389
3 390 391 392
3 393 394 395
3 396 397 398
3 399 400 401
3 402 403 404
3 405 406 407
3 408 409 410
3 411 412 413
3 414 415 416
3 417 418 419
3 420 421 422
3 423 424 425
3 426 427 428
3 429 430 431
3 432 433 434
3 435 436 437
3 438 439 440
3 441 442 443
3 444 445 446
3 447 448 449
3 450 451 452
3 453 454 455
3 456 457 458
3 459 460 461
3 462 463 464
3 465 466 467
3 468 469 470
3 471 472 473
3 474 475 476
3 477 478 479
3 480 481 482
3 483 484 485
3 486 487 488
3 489 490 491
3 492 493 494
3 495 496 497
3 498 499 500
3 501 502 503
3 504 505 506
3 507 508 509
3 510 511 512
3 513 514 515
3 516 517 518
3 519 520 521
3 522 523 524
3 525 526 527
3 528 529 530
3 531 532 533
3 534 535 536
3 537 538 539
3 540 541 542
3 543 544 545
3 546 547 548
3 549 550 551
3 552 553 554
3 555 556 557
3 558 559 560
3 561 562 563
3 564 565 566
3 567 568 569
3 570 571 572
3 573 574 575
3 576 577 578
3 579 580 581
3 582 583 584
3 585 586 587
3 588 589 590
3 591 592 593
3 594 595 596
3 597 598 599
3 600 601 602
3 603 604 605
3 606 607 608
3 609 610 611
3 612 613 614
3 615 616 617
3 618 619 620
3 621 622 623
3 624 625 626
3 627 628 629
3 630 631 632
3 633 634 635
3 636 637 638
3 639 640 641
